<svg width="159" height="81" fill="none" xmlns="http://www.w3.org/2000/svg"><path fill="#fff" d="M0 0h157v79H0z"/><path fill-rule="evenodd" clip-rule="evenodd" d="M158 3H3v77h155V3zM2 2v79h157V2H2z" fill="#444674"/><rect x="9" y="10" width="29" height="2" rx="1" fill="#D4D1EC"/><path fill="#B85586" d="M140 52h-8v22h8zM118 34h-8v40h8zM96 48h-8v26h8zM74 45h-8v29h8zM52 34h-8v40h8zM30 45h-8v29h8zM129 45h-8v29h8zM151 39h-8v35h8zM107 39h-8v35h8zM85 39h-8v35h8zM63 34h-8v40h8zM41 26h-8v48h8zM19 52h-8v22h8z"/></svg>