<svg width="159" height="81" fill="none" xmlns="http://www.w3.org/2000/svg"><path fill="#fff" d="M0 0h157v79H0z"/><path fill-rule="evenodd" clip-rule="evenodd" d="M158 3H3v77h155V3zM2 2v79h157V2H2z" fill="#444674"/><rect x="9" y="10" width="29" height="2" rx="1" fill="#D4D1EC"/><path d="m11.3 55.7-1.7.6a1 1 0 0 0-.6 1v16.2h141v-24a1 1 0 0 0-1.6-.8l-1.4 1a1 1 0 0 1-.2.2l-2.2 1a1 1 0 0 1-1-.2l-2.1-1.5a1 1 0 0 0-.5-.2l-2.6-.1-2 .1a1 1 0 0 1-1-.6l-2.3-5.1a1 1 0 0 0-1-.6l-2.1.1h-2.8l-2 .2a1 1 0 0 1-1-.7l-2.6-7.4a1 1 0 0 0-.3-.5l-2.3-2a1 1 0 0 1-.3-.6L117 21.7c-.2-1.2-1.9-1.2-2 0l-2 18.9a1 1 0 0 1-.4.7l-2.1 1.3a1 1 0 0 1-.6 0l-1.8-.1a1 1 0 0 0-1 .5l-2 3.9a1 1 0 0 1-1.4.4l-1.6-1a1 1 0 0 0-.8 0l-2.1.6a1 1 0 0 0-.4.2l-2.7 2.5-2.5 2a1 1 0 0 1-.6.2l-2.3.1a1 1 0 0 1-.3 0l-2-.5a1 1 0 0 1-.8-.8l-2.7-17-1.4-5.5c-.3-1.1-1.9-1-2 .1l-2 20.4a1 1 0 0 1-1.7.6l-1-1a1 1 0 0 0-1-.2l-2.2.6-2.8.3h-2.4a1 1 0 0 1-.7-.1L66 47.3a1 1 0 0 0-1.4.1l-2 2.2a1 1 0 0 1-.3.3l-2.2.9a1 1 0 0 1-.9 0L57 49.5a1 1 0 0 0-.4 0l-2.4-.3a1 1 0 0 0-.3 0l-1.6.5A1 1 0 0 1 51 49l-1.5-9.5c-.2-1.1-1.8-1.1-2 0l-1.8 10.4a1 1 0 0 1-1 .8H43a1 1 0 0 1-.4 0l-2.4-1a1 1 0 0 0-.5 0l-2.5.2a1 1 0 0 1-.2 0l-2.5-.3a1 1 0 0 1-.3-.1L32 48.4a1 1 0 0 0-1 0l-2.2 1.4a1 1 0 0 1-.2.1l-2.7 1-2.7.8a1 1 0 0 1-.3 0l-2.3-.2a1 1 0 0 1-.6-.2l-2.5-2a1 1 0 0 0-.2-.2l-3.1-1.6a1 1 0 0 0-1.5.8L12 55a1 1 0 0 1-.6.8z" fill="#7A5088"/></svg>
