<svg width="159" height="81" fill="none" xmlns="http://www.w3.org/2000/svg"><path d="M0 0h157v79H0V0z" fill="#fff"/><path d="M9 11a1 1 0 011-1h27a1 1 0 110 2H10a1 1 0 01-1-1z" fill="#D4D1EC"/><path d="M1 20h157v13H1V20z" fill="#C1B2DD"/><path d="M9 42a1 1 0 011-1h40a1 1 0 110 2H10a1 1 0 01-1-1z" fill="#D4D1EC"/><path d="M9 27a1 1 0 011-1h40a1 1 0 110 2H10a1 1 0 01-1-1zM122 27a1 1 0 011-1h26a1 1 0 010 2h-26a1 1 0 01-1-1z" fill="#A396DA"/><path fill-rule="evenodd" clip-rule="evenodd" d="M158 3H3v77h155V3zm1-1v79H2V2h157z" fill="#444674"/><path d="M122 42a1 1 0 011-1h26a1 1 0 010 2h-26a1 1 0 01-1-1zM9 51a1 1 0 011-1h40a1 1 0 110 2H10a1 1 0 01-1-1zM122 51a1 1 0 011-1h26a1 1 0 010 2h-26a1 1 0 01-1-1zM9 60a1 1 0 011-1h40a1 1 0 110 2H10a1 1 0 01-1-1zM122 60a1 1 0 011-1h26a1 1 0 010 2h-26a1 1 0 01-1-1zM9 69a1 1 0 011-1h40a1 1 0 110 2H10a1 1 0 01-1-1zM122 69a1 1 0 011-1h26a1 1 0 010 2h-26a1 1 0 01-1-1z" fill="#D4D1EC"/></svg>