<svg fill="none" height="81" width="159" xmlns="http://www.w3.org/2000/svg"><path d="m0 0h157v79h-157z" fill="#fff"/><path clip-rule="evenodd" d="m158 3h-155v77h155zm-156-1v79h157v-79z" fill="#444674" fill-rule="evenodd"/><rect fill="#d4d1ec" height="2" rx="1" width="29" x="9" y="10"/><g fill="#a396da"><path d="m83.856 33.447c-5.777.195-6.813 1.71-9.836 6.331-.642 1.09-.33.716-.093 1.431.178 1.251-.744 2.456-.162 3.562 1.173 1.334 2.311 4 5.816 3.232 1.992-.835 1.891-1.089 3.243.261 2.382-.515.212 3.039 2.24 4.44.455 1.34.93 2.607.072 3.817-.601 2.826 1.892 6.662 2.374 9.09 3.262 1.08 7.056-3.575 6.405-6.253 2.485-2.113 2.803-2.765 2.107-5.685-1.629-2.422 8.1-8.693 3.094-8.524-1.982 1.004-1.53-1.109-3.025-1.826-.422-.419-1.076-2.193-1.645-3.301-3.312-6.158-.002-2.95-4.66-4.28-3.133-1.387-.118 2.57-5.207-.833-.87.251.464-.571-.031-.828-.248-.11.057-.468.099-.515-.246.006-.402-.323-.791-.12zm9.934 16.811c-.035.443-.202 1.089-.5 1-.935.2-.163-1.738.5-1zm-1.801 2c-.061.557.712 1.554.495 1.8-.379-.187-.88-2.774-.495-1.8zm1.874 2.384c.26.55.028 1.225.203 1.76-.152.802-.47-2.446-.203-1.76zm5.779 1.052c-.184 1.533-2.401 1.186-2.025 3.077-.127.85-1.168 3.352.73 2.795.91-1.512 2.5-4.96 1.296-5.872z"/><path d="m108.047 16.841c-.062.676-4.666.645-3.285 1.197.307.123-.859.154-1.442.185 1.412 1.105 1.105.337-.491.43.153.276-.553.091.153.398.123.307-.614-.399-.767-.583-.645-.153-.092.03.031.184.184.184-.737.276-.093.522.584.246 0 .829.829.737.768-.062-.43.061.062.368.46.399-.676.89-.645.583.737-.614-.675-2.087-1.197-2.363-.553-.553-.491-.062-.86.552-.368.031.215.737.338.737s.706.245.583.399c-.429-.03-1.32-.675-.583.153-3.1 1.29.706 2.855-.92 4.911-.093 1.443 1.595-.184 1.381.982.122.584.245.553.613.86.921.982-2.394-.184-2.762.123-2.793-.062 1.565 2.67.184 2.578-.86.122-.399.89.246 1.166.276-.092.307 1.29.583 1.29 1.903 2.27-2.394 1.472-1.136-.154-5.648-3.407-1.657.337-4.972-.583-1.412-.799-2.579.521-3.899.521-.153.123.4.369.369.737-.4-.061.092.338.245.614.031.153-.307.153.123.153.215-.03-.276.123 0 .123.246.154.276-.153.614.123 1.228-.246.583.276 2.24-.092.523-.307.369 2.517-.675 2.425-.583.03.43 1.872.706 1.503 1.32.86 2.394 3.898 3.346 5.095-.153-.184-.123-.122-.276-.276-.184-.061.061.276-.123.092-.307-.245.123.46.184.4.522 2.393 2.517 1.074 4.052.122.583-.675 1.443-.737 1.995-1.412.215.123-.031-.982.307-.614.123.184.307-.276.153-.184.215-.706.768-.737-.399-1.381-.89.03-.552-1.535-.859-1.044-.399.706-1.381 1.197-1.719.676.154-.522-.184-1.105-.368-.307-.123-.154-.307-.583-.031-.246-2.118-3.008-.43-1.78 1.289-.337 1.228-.185 2.701 1.043 4.482.552 1.412-.123 1.688 3.13 2.823 1.596.246.276 1.904 8.226 3.131 5.31.461-1.934.338-3.07 2.21-4.39.676-1.227 1.105-.552 1.965-1.227-.031-.307.092.061.153.061.062.43 1.013 1.167.952 1.597.89-.031-.062 2.578 1.473.798.829 1.504.86 2.179.829 3.53-.092 1.012.245.306.337.675 0 .214.093-.123.093.03.306.645.368.46.491 1.197 1.995 3.775 2.332.737-.031-1.289-.184-.245-.184-1.074-.246-.829-.491.706-.061-2.885.43-1.32 1.351.308 1.443 2.886 2.302 1.014 3.377-1.136-3.376-4.605.43-5.034.46.706-.031.767.798-.062.552 0 .706-.214.767-.398.676.306 2.149-1.044 2.026-1.689.276-.798.982-1.964.031-1.841-.368-.03.614-.368.031-.491-2.886-2.701.583-2.302-1.259-2.855-.644.215-.951.031-1.473-.49.614-.216 1.32-1.812 1.289-.093 2.118-.829.583.276 2.179.675.369.338.154 1.873 1.075 1.32 1.749-.675-1.904-1.995-.676-2.67.338-1.995 3.07-.553 1.197-5.003 1.013.338 1.689 3.07 2.18 2.333.951.43-.768-.614-.676-1.105 1.627.521-1.473-1.78-1.964-2.302.092.184.215.583.368.89-.307-.338-1.627-1.412-1.749-.553-.246-.245-.307-.951-.798-.614.061.092.521.031.46.307-1.32-.215-.645-.43-.246-1.473.031-1.197 2.303-.491 2.886-.706-.031.46 2.026.092.982-.092-.553-.276.031-1.136.675-.86.676.737 1.167.277.86-.337.767.03.552 1.627 0 1.934.122.767 2.946 4.174 2.885 2.026-.859-.89.491-.277-.123-.86-.307-.215-.43-.522-.153-.399.184-.522-1.259-.43-1.32-1.565 0 .03.245-.123.215-.062.184.338.092-.368.399-.03.307.337.061-.522 1.074-.062.553.246.092 0 .338-.215 1.995-1.688 1.32-.061.122-2.056-.368-.368 3.162.982 2.824.491-.828-.552.154-.245-.122-.46-.584-.553-9.454-2.486-7.306-1.228-3.284-.583-9.883-1.504-12.277-1.105-.123 1.013-2.303-1.29-3.315-.644.399.736-3.101-.43-3.469-.215-.215 0-.675.613-.921.307 2.732-1.075-1.627-1.29-2.762-1.382zm4.051 1.259c.154.092-.307.061-.245 0-.031-.062.123-.062.245 0zm-8.195 1.964c.246.307-.307-.092-.368-.092-.062-.092.276 0 .368.092zm32.475.737c.03.092-.246-.062-.092-.062.03 0 .061.031.092.062zm-.983.89c.031.061-.092.061-.184 0-.153-.092.184-.061.184 0zm-18.109 3.775c.46.982-.154 1.443-.89 1.596.583.092.736-1.934.89-1.596zm-10.007 3.775c-.03.184-.276.215-.276.43-.215.46-.215-.706.276-.43zm.307-.03h-.122c-.123-.031.184-.031.122 0zm.706.061c.154.092-.491-.061-.184-.061.062.03.123.061.184.061zm.307 0c0 .061-.215.03-.215 0 0-.061.215-.061.215 0zm-6.261.092c-.031.03-.062.03-.092 0-.123-.03.153-.03.092 0zm-.399.246c-.215.122.521.245.276.644-.369.583-.583-.89-.276-.644zm-.185.245c.092.46-.337-.153-.122-.092.061 0 .092.03.122.092zm-.153.4c-.031.03-.123-.246-.123-.338.031-.093.154.398.123.337zm-1.443 1.166c.215.245.461.552-.061.399-.368.06-.276-.799.061-.4zm-6.445 5.954c0 .03-.031.092-.062.092-.092-.03.062-.276.062-.092zm20.043 3.929c0 .092-.061.06-.092 0-.031-.062.092-.062.092 0zm-16.913 1.442c.031.061-.123.061-.092 0 .03-.03.062-.03.092 0zm24.433 2.517c.031.061-.061.153-.092.03 0-.091.031-.091.092-.03zm1.105.491c.123.154-.031.123-.092 0-.092-.184-.031-.123.092 0z"/><path d="m119.465 17.977c0 .215.307.061.399.184.031.092-.368.154 0 .154 1.842.214.399-.307-.399-.338zm11.572 11.817c-.184.061.491.46.399.828.245.215-.522-.092-.215.185.153.153-.092.092-.061.337.122.062.429.645.644.307.307-.03-.368-.276-.337-.338.153-.06.92.093 1.074.154-.031.123.123.061.061-.061-.215-.369.798-.307.461-.522-.154.03-.062-.491.092-.43-.276-.399-.276.645-.369.123-.061.215-1.688-.737-1.749-.583z"/><path d="m131.835 31.543c-.215.184.706 2.486-.338 1.842.062-.215-.337-.062-.153.123.153.061.092.122-.031.306-.153.062.184.46-.123.307-.644-.306-2.302.921-1.534 1.35.89 1.904.521-.797.859-.183.399.368.184-.184.645-.246.092-.644.092-.03.46.03.184-.122.491-.46.123-.582.184-.062.736.337.675-.184.368.706.061-.307.43.061.522-.153-.123-2.885-1.013-2.824zm.245.154c0 .03-.153.092-.153.03 0-.061.153-.061.153-.03zm-.951 2.915c.153.185-.368.123-.246 0 .092-.092.215-.092.246 0zm-.368.154c-.031.092-.154.092-.215.03-.092 0 .245-.184.215-.03zm-.461.092c-.031.092-.031-.153 0-.092zm.154.03c-.123.461-.369.154-.614.062.184.092.767-.276.614-.061zm-37.202-.736c-1.258.154-.307.89.092.062.215-.154.062-.185-.092-.062zm34.316 7.704c.031.583-.399 1.995.338 1.719-.153.276.184.675-.123.43-.337-.277.184.398.215.49.246.522.461-.122.184-.306-.153-.215.307-.277.215.03.123.215.154-.215.246 0 .092.123.153 0 .061-.092-.307-.43.675.491.338.43-.369-.737-.123.092-.062.276.062-.153.491.338.277-.061-.154-.215.245-.43-.092-.583-.277-.092-.093-.246 0-.092.982-.185-1.535-.307-.737-.492-.522-.245.522-2.087-.86-1.749z"/><path d="m129.379 44.588c.461.43-.245.46.399 1.074.522.46-.184.276-.153.614-.215.123-1.074-.062-1.013.736.153.307.276-.521.338-.214-.031.214.307.061.307-.031.122-.307.644 1.596.92.767.092-.123-.245-.49 0-.49.584.95.154-1.136.062-1.26.092-.337-.123-.03-.184-.214-.123-.246-.092.03-.215.061-.031-.245.368-1.412-.461-1.043z"/><path d="m128.428 44.833c.245.43-.154.675.399.645.245 0-.215.276-.062.399.215.153.307.43.4.092.399-.307.644.153.214-.675 0-.338-.153-.154-.307-.092-.061-.154-.429-.46-.644-.369zm.829.491c-.031.092-.031-.153 0-.092zm-.031.4c-.031.06-.123-.154-.092-.154 0-.092.092.123.092.153zm.092-.031c-.031.092-.031-.154 0-.092zm-.215.122c-.031.093-.031-.153 0-.092zm-1.627-.583c.031.46-.951.952-.644 1.259.491-.4 1.258-1.78.644-1.259zm-15.562.583c.184.123-.399 1.903.522 1.658.829-.154-.215-1.995-.522-1.658zm14.764 1.044c-.767 1.35-2.026 2.302-3.038 2.609-.185 1.013.521 2.578 1.504 2.18.583-.154.552.705 1.197.152.368.369.429-2.025 1.043-1.994.614.122-.522-.83-.276-1.167-.153-.49.583-.399.276-.583-.153-.03-.184-.123-.03-.123.736 0-.614-.767-.676-1.074z"/><path d="m118.115 47.657c2.087 3.008 3.744 6.937 7.673 6.323.276.767 6.016-.491 2.947.03-.553-.184-1.197.031-1.596-.184-.246-.153-1.228.43-1.013.154-.154-.43-1.719-.246-.583-.676-1.198-.122-1.965-.122-3.008-.46-.461.184-.123-1.473.03-1.29.184.124.399-.214.246-.122-.092.03-.276-.215-.338-.49 0-.37-.675.183-.276.183-.031.46-.399-.644-.706-.583.153-.89-2.333-2.64-3.376-2.885zm8.962 6.384c0 .03-.153.03-.153-.03 0-.062.153.03.153.03zm3.96-4.727c-.154.46-.154.86 0 .86-.399.307-.215.46.153.368.307.307-.307-.706.154-.46.491.153-.215-.246.061-.307.154-.154.154-.46-.092-.246-.245.246 0-.706-.276-.215z"/><path d="m129.778 49.59c-.552.553-1.534-.49-1.841.492-.277.951-.553 2.21 0 2.67.429-.215.092-1.473.337-1.29.277.032.092 1.444.706.768-.399 1.136.645.215.185-.215-.338-.03-.123-.368-.338-.614-.43-.46 1.473-1.258-.338-.675-.245.215-.215 0-.368-.153-.645-.952 1.872-.246 1.719-.583.123-.184.46-.952-.062-.4zm1.596 1.873c-.828.153-.184.583.185.276 1.043.4.92-.368-.185-.276zm-.798 2.486c-.491.03-1.411.368-1.442.952.153.03 2.056-1.013 1.442-.952zm2.118-3.529c-1.197.214.154.797.768.828-.583.246-1.013-.092-.43.583.184.368 3.376.583 1.811 2.118 1.32-.154 1.903.89 2.241.338.583-1.78 2.179 1.534 2.916.644.03-.123-1.781-1.381-1.167-1.657.215-.706-3.622-3.346-4.604-1.658-.89.215-.184-1.78-1.535-1.197zm3.868 4.634c-.798 2.21-.737 4.174-2.916 1.81.675-.858.092-.153.614-.214.092-.645-.246-.061-.215-.368 0-.123.46-.491.307-.645-.123-.245-.062-.123-.491-.061-.645.245-.952-.583-1.412-.4.552.676-1.075.43-1.136 1.505.092.245-.614.184-.614-.062-.429-.614-1.32.123-1.442.829-.553-.184-.307.675-.492.307-1.35 1.872-3.714 1.412-4.327 3.1-.338.123.337 1.75-.185.767-.03.062-.092.184-.092.246-.215-.369.491 2.455.123 2.916.031.337-.767.644-.43.859 1.75 1.35 6.999-3.407 7.49.03 0 .83 1.074-.767 1.289-.613-.184.368-1.351 1.473-.338.767.215-.399.307-.03.062.215.429 1.197-.031 1.535 1.933 1.535 2.671-.154 6.692-5.31 4.789-6.845-.184-.245.245-.614-.369-.614-.153-.061-.153-.736-.092-.798-1.197-.43-.982-1.964-1.135-2.824-.369-.122.122 0-.307.093-.43.184.184-.89 0-1.044-.246 1.258-.154-.645-.614-.491zm-12.278 6.998c0 .215-.123-.061-.061-.092.03.03.061.061.061.092zm9.884 5.31c-.031.061-.092.061-.092.061-.092-.061.214-.215.092-.061zm-.768 1.166c-.921 1.78.645 1.443 1.197.276.43-.583-.89.062-.828-.184-.277-.123-.092-.49-.369-.092zm-34.377-51.492c-2.536-.013-4.745 2.57-1.38 2.218-2.955-1.184 3.762-2.128 1.38-2.218zm-2.676 1.14c-.016.016-.063.021-.1.005-.101-.039.155-.044.1-.005z"/><path d="m88.578 19.14c-1.674.37-2.291.48-3.514 1.186 1.672-.24-.503.34-.073 1.157-.85 0-.63.525-1.422.634-.872.36-1.343 1.224-.587 2.093 1.39.558 1.06-1.427 2.004.537.542.307-.863.774-.656.442.096-.191.014.099.109.063.078-.046-.026-.111.052-.156.234-.19-.33-.173-.11-.365.164-.677-1.32.154-.618 1.197-1.225.377-1.832 1.154-2.984 2.005-.137.345-.72-.33-.688.01.447.882-1.335-.153-.978.72.614.187 1.377.556 1 1.76-1.593.749-2.77-1.01-3.057 2.04-.003 1.733 2.487 1.728 3.53.338-.576-1.044 1.504-1.076 1.145-1.879 0-.255.552-.349.87-.146.517.198 1.757-1.232 1.718.1.601.53 3.713 2.005.796 2.263.236.229 1.254.96 1.063.074 1.182-.29-.058-1.559 1.145-1.005-.213-.765-2.76-1.382-2.088-2.494.457-.117.166-.082.24.156.123.382.268-.01.265.182.095.362.075.001.167-.067.39 1.527 1.17-.064 1.838 2.145.425.762.404 1.14 1.12 1.635.23-.153.324.476.16-.432.373.228.398-.677.724-.026.672.333-1.462-1.468-.692-1.187.332.284.279-.11.333-.036.363.23-.215-.233.037-.24.285-.15-.076.291.234 0 .101-.02 1.801.156 1.333-.302-1.064-.979 1.446-3.102 1.234-1.728 1.7.086 5.072 1.518 6.721 2.167-1.363-.961-2.039-2.304-.14-2.943-3.075-3.94 5.045-.163 2.666-2.207-.751-2.297-.652-.042-1.672-1.348.895-.813-.144-2.852-.526-4.239 3.935-1.415-2.002-2.093-.995-1.608.379.064.74.335.35.51-.25-.256-.11-.507-.422-.203-1.076.372-2.132-.348-2.942.765-1.223.262.373-.93-1.25-.557.812 1.153-.141.412-.9 1.15.694.67-.586.012-.792.126-.31.265.31.263.411.39-.614.457-.973-.71-1.494-.932 5.84.513-2.087-2.06-2.665-1.746zm.235.098c0 .026-.026.052-.058.052-.087-.016.067-.187.058-.052zm.572-.031c0 .047-.156.073-.182.031-.049-.074.192-.052.182-.031zm-2.395.5c-.001.069-.158-.011-.156-.031.01-.03.164-.032.156.03zm-.52.104c.009.064-.254.076-.105 0 .1-.063.105-.063.105 0zm-.552.344c.038.111-.087.013-.073-.037 0-.073.036-.057.073.037zm.411-.047a.275.275 0 0 1 -.13 0c-.095-.037.215-.035.13 0zm2.322 1.14c-1.436 1.767-1.45 2.46 1.516 2.155.446.457-1.667.042-1.677.557.09.22-.354-.402-.432.26.077.248 1.269-.332.645.537-1.092-1.211-.653 1.534-1.583.989-.14-.42-1.514.64-1.64.078.1-.267-.608.133-.88.156.031-.165.323-.238.438-.338.12-.007.02-.12-.042-.068-.08.072.18-.486.167-.245.342.484.913-.511 1.218-.26.266-.546-.293-.855.61-1.234.468-.576-.606-.433-.438-.942.44-.719 1.12-1.662 2.098-1.645zm-4.056.5c0 .073-.25.302-.328.302-.076-.06.295-.524.328-.302zm-.953.593c-.015.016-.062.021-.099.005-.102-.039.155-.044.1-.005zm1.11 3.25c-.065.105-.115.082-.152 0-.198-.094.153-.091.151 0zm3.134.01c-.131.114-.024-.17.036-.089.01.016-.005.057-.036.088zm-3.395.088c.179-.03.116.253-.135.114-.353-.233.096-.038.135-.114zm-1.796.937c-.016.031-.058.057-.084.057-.078-.029.197-.243.084-.057zm11.585 2.5c-.569.137.279.627-.573.614-1.692.095.94-1.085.573-.615zm-5.884 3.82c.108.108-.225.284-.193-.015-.051-.336.094.032.193.016zm.99-.119c.152.085-.12.054-.13 0-.043-.068.025-.068.13 0zm-.329.187c-.015.016-.062.021-.099.006-.102-.04.155-.045.1-.006zm.104.188c-.039.101-.044-.155-.005-.1.016.017.021.063.005.1zm-14.791-12.266c-.145.096-.92.462-.25.37 1.042-.017-.708.277-.115.286 1.215.103-.645.35.838.442.817.196 2.86-.3 2.02-1.056-.117-.187-1.677.07-1.822.223-.226.186-.359-.546-.672-.265z"/><path d="m79.966 23.836c-.156.326-1.68.655-.973.91.043.079-.35.163-.334.225.198.002.137-.068.302.114.113.023-.504.323-.02.25.364-.076-.236.156.187.125.356-.08-.181.27.151.307 1.086.017.198.629-.125.823.917-.098-.709.454.125.49.25.01.438.124.208.124-1.807.921 1.355.252 1.828.006-.043-.076-.28-.108-.083-.23.476-.43-.654-1.063-1.072-1.806-.39-.17.803-.78-.095-.73-.955.154.794-.804-.099-.608zm-.994.713c0 .026-.026.052-.057.052-.087-.017.066-.187.057-.052z"/><path d="m78.259 25.476c-.291.53-1.107.343-.719.864.455.041-.564.581-.229.656.714.794 2.812-1.709.948-1.52zm5.743 5.383c-.771.297.326.878-.459.911.244 2.368.827-.393.459-.911zm5.316 3.254c-.266.374 1.225.453.958.182-.045.068-.702-.115-.958-.182zm-37.483 10.501c-.83.54-1.607.801-2.088 1.792-.106.02-.916-.936-.922-.417.35.493.832 1.47.625 2.224.054 1.09-2.378 2.436-1.041 3.295.078.172-.865.658-.39 1.11 1.168 1.417 1.755 4.398 3.878 5.195 2.366 1.528.44 12.796 2.323 11.345-.004.65.45 1.356-.203.801.189.142-.367.463-.146.412.633-.243-.23 1.138.276.875.535.393.36 2.273 1.719 2.566.25.239-.544-.165-.173.141.357.103.559.613.854.391-.453-.322.163.103.339.333.849.239 1.653.608 2.207-.042-.583-.09-2.927-1.527-1.4-2.936-.264-.796-1.745-.455-.437-1.364-.214-1.01 1.024-1.195-.193-1.156-.79-1.422 1.267.581.635-1.265 1.766-.321 2.109-1.127.9-2.276 2.342 1.095 1.942-1.731 2.625-1.691.866-1.188-.172-2.738 1.609-3.005 1.721-.113 2.197-3.035 2.269-4.894 3.32-3.623-.341-3.855-2.738-5.31-.332.208-1.061-.732-1.41-.016-.153-.148.317-.383-.538-.713.07-2.5-3.042-2.374-4.264-3.869.227-.561-1.207-.375-.421-.74-.842-.102-2.254.426-3.051-.562-.033-.57-.51.703-.766.417-.248-.252.701-.7-.078-.64zm.218 1.23c-.118.655-.482-.185-.135-.365.065.102.131.24.135.364zm.974 11.417c.132.091.062.337-.016.177-.17-.09-.336-.469.016-.177zm10.065 3.368c-.002.08-.047.052-.079 0-.038-.078.085-.058.079 0zm-1.943 3.395c-.039.101-.044-.155-.005-.099.016.016.021.063.005.099zm-3.759 5.404c.034.079-.197.055-.182 0 .005-.081.158-.055.182 0zm-2.817.86c-.02.04-.052.062-.078.046-.106-.062.126-.216.078-.047zm-.099.187c.053.156 0 .172-.067.02-.077-.168.03-.164.068-.02zm.235.172c.002.02-.155.1-.156.03-.009-.062.145-.06.156-.03zm2.343 3.31c-.088.247.58.1.323.225-.153.056-.003.211-.136.062-.33.014-.34-.682-.187-.286zm-.339-.004c-.022.063-.286.098-.099-.016.11-.078.157-.073.1.016zm3.541-.781c-.488-.004.072.176-.208.234-.242.252.463.128.52-.047-.282.78 1.444-.369-.312-.187zm12.834-58.094c-1.14.365-18.882-.198-14.256 1.589 1.699.23.471-.123.136.238-.78.53-1.911-.164-2.635.245.498.398-.316.335-.609.37.823-.531-.642-.518-1.015-.177-.864-.644-.664.538.359.396.506.051.56-.379.666.021.649.797.824-.884 1.39-.364-.979.827 2.825.707 3.26.182.048-.391-2.505.203-2.416-.213.788-.106 2.693-.226 2.656.104 1.206-.897 4.338-1.67 6.461-1.958-.001.296-2.632.335-1.734.552.548.022.082.239-.49.265-.914.093-1.548.15-1.874.344.17.104.819.183.23.193-1.08.751 3.58.155 2.852 1.12-.274.104.287.031-.14.28.331-.176.08.226.094.245-.569.724.148.602.411.557.758.413-.346.053-.552.219.128.168-.137.028-.166.099-.63.702 1.23.48.52.078.452-.034.523.633-.062.572-2.6 1.479.78 5.859 2.796 1.458 2.79-.825 6.162-2.17 6.258-2.104.311-.298-.257-.693-.145-.635.373-.007.218-.162.323-.291-.156-.2.9-.135.51-.386.105-.008.757-.267 1-.349-.376-.497-.34.264-.667.068.096-.145.293-.4.026-.578-.305-.245.476-.119.37.094.075.128.557-.486-.161-.443.847-.144-.512-.148-.12-.333-.575-.003 3.969-1.126 1.91-1.036-.65-.093-.79.235-.989-.063-.752.243-1.575-.709-4.197-.359zm-2.046.386c.022.162-.373-.01-.005-.073 0-.005.005.031.005.073zm5.014.026a.41.41 0 0 1 -.182.047c-.23.001.42-.169.182-.047zm-15.74.083c-.015.016-.062.02-.099.005-.102-.039.155-.044.1-.005zm.26.375c-.205-.057-.396.41-.364.094-.085-.219.758-.141.365-.094zm.823-.042c.025.104-.24-.003-.047.13.094.073.089.073-.041.021-.255-.067.025-.295.088-.15zm-.859.35c-.002.12-.086-.034-.13-.048-.055-.073.156-.043.13.047zm-.104.088c.006.028-.098.105-.104.036-.007-.06.092-.073.104-.036zm-.99.213c-.036.042-.088.078-.119.078-.064-.037.306-.265.12-.078zm5.067.323a.273.273 0 0 1 -.13 0c-.095-.037.215-.035.13 0zm-.781.052a.275.275 0 0 1 -.13 0c-.095-.037.215-.035.13 0zm-8.58.333c.111.198-.188-.027-.09-.057.032 0 .074.026.09.057zm-.823.078c-.016.016-.063.021-.1.005-.101-.039.155-.044.1-.005zm20.608.906c.037.078-.084.056-.078 0 0-.08.047-.055.078 0zm-.115.156c-.39.144.33.344-.057.276-.556-.503.254-.31.057-.276zm.469-.015a.394.394 0 0 1 -.156 0c-.129-.033.25-.04.156 0zm.02.099c-.015.015-.062.02-.098.005-.102-.04.154-.045.099-.005zm-9.798 3.29c-.029.045-.219-.14-.063-.062.052.015.078.047.063.062z"/><path d="m55.438 16.265c-.967.415.293.394.682.526.873-.254-.283-.64-.682-.526zm-2.171.235c-1.112.16.576.153-.334.213-1.638.563 2.639-.34.334-.213z"/><path d="m51.064 16.89c-.03.022-2.802.448-1.614.583.52-.152.336.165.802.047-.63.816 4.9.011 2.88-.151.522-.615-.712-.062-.542-.006-.339.058.25.164-.24.151-.484.011-.11-.244-.77-.291-.878-.056 1.224-.46-.516-.333zm-.11.48c.666.092-.677-.061-.234.13-.484-.096-.457-.355.235-.13zm.188-.11c-.015.026-.078.052-.135.052-.245-.033.156-.187.135-.052zm-.052.468c.064.07-.487.063-.182 0 .126-.019.131-.093.182 0z"/><path d="m47.924 17.921c-2.152 1.033-1.389 1.48.615.744-1.26.734-.152.747.724.666.003.002-2.746.294-.843.594-.346.53 1.592.002 1.837.047-1.053.1-.474.53-.895.437-.033-.386-.671.053-1.401-.089-.027.14-.777.01-.083-.072.9-.482-2.452-.567-2.229-.594.631-.394-.33-.023-.552.104-.102-1.075-3.072.687-3.936-.094-2.308-.48-7.81-1.006-8.165 1.031.493.598-1.795-.115-2.223.604.179.185-.477.433.364.396 2.213.044-.461.4-1.233.77-2.456 1.127.177.893-1.037 1.62.461-.024.814 0 1.214-.015-.07.848-4.294 1.338-4.073 1.786 2.194-.438 4.235-1.067 6.31-2.244.788-.416.514-.105.053.213.259-.02 2.555-.313 1.953-.515.023-.146.745-.237.37-.01-.377.229.25.005.364.093-.138.32 2.32-.092 1.562 1.307.067.272-.13.564.255.224-.039.148-.555.422-.052.359-.727.377.46.63.546.177-.033.433.092.32-.182.484-.35-.061-.062 1.143-.047 1.448.389.153-.786.108-.327.005.202-.034-.22-.052-.136.13 1.666 1.722-2.493 3.59-1.593 6.034-.24 1.757 1.177.66 1.036 2.728-.14.543 1.004 1.267 0 1.364.93.643.717 1.843 1.635 2.172.268-.234-.198-.865-.245-.614.025-.537-.406-1.728-.609-2.182.045-.076.214.3.13-.01-.041-.193-.072-.224-.124-.136-.806-1.056.807-1.314.38.167 3.227 5.58 1.075 4.774 8.394 7.252.456.455.503 1.657.957 1.5.325-.027.51.924.781.75.572-.254.249.348.39.333.226-.403.485.797.704-.458 1.024-1.218-.793.3-.963-.573-1.129-.752 1.05-3.125-1.156-2.864-2.514.797 1.12-2.593-.287-2.535-.719.063-1.084.063-1.26.823-4.423 2.802-2.14-6.656 1.265-4.164.012.155.36-.082.12-.163-.156-.782 1.969-.202 2.208-.125.376.585-.093 1.757.703 2.098.67-4.849.742-2.562 3.12-4.992-.29-.417 1.132-2.218 2.675-2.4.54-.158-.508-.747.917-1.125.693-.216 2.183-.967 1.374-.38-1.36 1.203 1.964-.22 2.27-.567-.112-.952-.83.642-1.431.036.252.045 1.08-.17.494-.208-.54.111-.298-.42-.484-.167-.005.087-.27-.06-.063.188.27.296-.659-.04.209-.703-.18.052-.477.088-.078-.078.96-.745-1.197-.352-1.49-.047-.07-.698 3.766-.858 4.743-1.328-2.931 2.578-.222 1.288.334 1.91-.057.584.744-.327.474-.348-.342.26.247-.412-.333.052.029-.251.221-.239.375-.375.029-.12-.394-.014-.12-.218.248-.045-.2-.437-.166-.266-.017-.044-.46.142-.5-.005.302-.161.09-.17-.167-.234.432-.315.894-.693.13-.552 1.087-.43.378-1.623-.495-1.666.074-.64-.167-1.379-.265-2.255-.483.709-2.38 1.598-1.505-.073-.493-.079-.516-.375-.906-.672-.561.195-1.172-.393-1.864.677-.47.237.204-.062.063.177.063.409-.842.541-.755.828 1.003.617-.758 1.53-1.406 1.52.177.555-.544 2.086-1.026 1.229-.598-.547.761-.201.11-.532-.332.042.04-.373.02-.5.744-.58-3.129-.938-2.39-1.63-1.045-1.28 3.384-2.158 4.452-3.107-1.573 1.39-.734.982.417.859.001.223 1.227.1.484-.245-.192-.026-.786-.956-.38-.552.49.32.125-.546.39-.213.696.167 1.464-1.2 1.442-1.301 1.227-.035.418.257.474.577.112-.248 1.17-.715.328-.577.651-.347.228-.146.859.197-.639-.207-.51.182-.094.24-.162.122-1.033.175-.843.495.6.066.88-.271 1.275-.23-.111-.133-.483-.268-.088-.197.802.525-1.31 1.256-1.937 1.192-1.175.831 1.114.054 1.13.573.04.517 1.732 1.117 1.952.849-.138-.249-.143.006-.234-.016.034-.175-.757-.888-.406-.688.523.149.826.767 1.01.11.664-.265-.39-.742-.151-1.02.766-.743.017 1.151 1.703-.157.838-.29-.836-.696-1.104-.979 1.356-.623-.97-1.162-1.38-1.484.515-.989-5.691-.116-3.592.63-1.766.115.762.22-.136.818-.144-.019-.565.503-.53.182-.235.293-.897.65-.444.063.565-.468-.232-.304-.244-.427-.858-1.101.971-1.244 1.53-1.723-1.29-.435-1.915.605-2.858 1.171-.117.649-1.877.262-1.26.86-.706.46-2.056.224-2.171-.193-.721-.12.797.15 1.208.099.122-.158.324-.03.198-.26.064-.066 1.037-.127.036-.49-.199-.272.561-.881.895-1.026-.474-.514-1.801.786-1.593.427-.735-.315-1.928-.821-3.42-.756zm10.039.458c-.144.075-.276.267-.349.417-.367-.295.634-.592.349-.417zm1.447.084c.103.2.756.009-.015.171-.41.137.021-.455.015-.171zm-1.926.291c-.11.008.113.372-.094.172-.107-.149.187-.266.094-.172zm3.082.068c-.015.026-.073.052-.12.047-.178.019.252-.169.12-.047zm.755.416a.411.411 0 0 1 -.182.047c-.23.002.42-.168.182-.047zm.542.219c.74.054-1.007.371-.256.151.235 0 .272-.322.256-.151zm-5.191.02c-.016.016-.063.022-.1.006-.101-.039.155-.045.1-.005zm4.962.043c0 .01-.047.03-.105.046-.22.028.095-.133.105-.046zm-17.563.062c-.015.016-.062.02-.098.005-.102-.039.154-.045.099-.005zm13.553.02c.017.06-.306.082-.156 0 .1-.067.156-.067.156 0zm.771-.015a.53.53 0 0 1 -.182 0c-.132-.037.303-.03.182 0zm-14.724.068c-.041.04-.297.08-.13 0 .14-.063.223-.063.13 0zm11.35 0c.002.066-.103.066-.104 0 0-.07.107-.068.104 0zm-.885.114c.048.2-1.678 1.195-.807.412.454-.098.243-.568.807-.412zm-11.61.068c-.24.094-.376.094-.21.005.077-.066.55-.126.21-.005zm19.524-.036c.005.052-.37.005-.364-.021-.003-.027.373-.03.364.02zm-6.852.177c-.031.109-.13.213-.161.177-.036-.05.235-.494.161-.177zm4.067-.01c-.021.047-.144.084-.105 0 .02-.052.144-.086.105 0zm-1.588.051c0 .026-.026.052-.058.052-.087-.016.067-.187.058-.052zm1.91-.02c-.015.015-.062.02-.099.005-.102-.04.155-.045.1-.006zm-3.603.328a.113.113 0 0 1 -.088.057c-.099-.03.2-.256.088-.058zm-3.254.025c.002.02-.154.1-.156.032-.008-.063.146-.062.156-.032zm6.967.016a.536.536 0 0 1 -.183 0c-.131-.037.304-.03.183 0zm-10.3.255c.01.021-.23.043-.181-.031.026-.042.182-.016.182.031zm3.63.052c-.016.016-.063.021-.099.005-.102-.039.155-.044.099-.005zm-7.248.073c-.899.285-.066.265.313.203-.426.282-2.243.613-1.14.339.489-.273-.923.314-.745.088 1.672-.558-1.246-.235 1.572-.63zm14.5-.005c.625.16-.212.33-.218.167.063-.162.219-.282.219-.167zm2.677.052c.021.026-.016.036-.073.02-.238-.06.026-.104.073-.02zm-29.454.088c-.016.016-.063.021-.099.006-.102-.04.155-.045.099-.005zm22.284.188c0 .094-.01.14-.02.104-.464-.097-.064-.53.02-.104zm-1.26.177c.232.143-.165.048-.171-.02-.026-.084.047-.079.172.02zm-22.128.333a.132.132 0 0 1 -.094.052c-.095-.007.21-.186.094-.052zm26.112.058c0 .026-.037.046-.078.046-.157-.029.07-.237.078-.046zm.65.41c-.026.052-.125.082-.13 0-.011-.057.166-.079.13 0zm-13.495.62c1.833-.192-1.514.691-1.094.37.545.011.752-.73 1.094-.37zm15.12.193c-.016.016-.063.02-.099.005-.102-.039.155-.045.099-.005zm-26.85.208c-.011.03-.165.032-.157-.031.001-.07.158.01.156.031zm-.433.052c-.016.016-.063.021-.099.006-.102-.04.155-.045.099-.006zm-.219.073c-.047.073-.234.167-.234.12-.051.004.295-.244.234-.12zm-1.676.505a.394.394 0 0 1 -.156 0c-.13-.032.25-.039.156 0zm.297-.015c0 .01-.047.03-.105.047-.22.028.095-.134.105-.047zm5.3.421c-.034.044-.142-.21-.037-.093.037.036.052.078.037.093zm.088.13c.04.085-.083.048-.104 0-.04-.085.084-.05.104 0zm-.26.105c-.067.059.127.195 0 .192-.194-.053.021-.35 0-.192zm-6.69.052c-.002.08-.047.052-.079 0-.038-.079.085-.06.078 0zm7.133.234c-.073.088-.24.104-.282.031.014.001.43-.19.282-.031zm-.073.193c.014-.003-.18.14-.209.099.005-.086.102-.249.209-.1zm-.344.166c0 .01-.042.052-.088.089-.203.178.109-.2.088-.089zm.208.214c.012.2-.136-.057-.052-.078.032 0 .052.036.052.078zm.35-.047c-.016.015-.063.02-.1.005-.102-.039.155-.045.1-.005zm-.62.4c-.076.142-.075.187-.079-.01-.023-.207.185-.138.079.01zm10.923.615c-.073.52.093.921-.432.656-.043-.347-.105-.768.432-.656zm13.038-.036c.02.01-.463.208-.24.057.094-.073.24-.104.24-.057zm-23.847.187c-.001.08-.046.052-.078 0-.038-.079.084-.059.078 0zm10.674.911c.026-.012-.312.382-.313.266-.03-.058.331-.374.313-.266zm-10.122.63c.106.134.462.378.286.495-.098.05-.587-.766-.286-.495zm12.897.469c.098.52.27.264.364.395-.02.048-.139.776-.203.485-.206-.172-.824.231-1.046-.13-.144-.013.502-.336.062-.24-.087.13-1.115.475-.99.323.1-.089.095-.089-.113-.068-.847.207 1.368-.856.853-.38.37-.113.346-.5 1.073-.385zm-12.746.182c.022.039-.41.06-.26.01.094-.019.286-.192.26-.01zm19.994.15c.041.069-.026.069-.13 0-.154-.082.119-.057.13 0zm.546.709c.01.02-.23.043-.182-.031.026-.042.182-.016.182.031zm-6.846.099c.054.031-.496.026-.443-.016 0-.036.323-.026.443.016zm-.964.057c-.63.46-1.024.96-1.322 1.666-1.205.77.655-2.196 1.322-1.666zm.886.156c.77-.392.846.71.328.282-.115-.198-.22-.209-.183-.021.014.149-.722 1.277-.65.63.055-.428-.262-.08-.407-.037-.043-.008.486-.493.417-.52.155-.341-.643-.629.495-.334zm.124-.072c-.022.04-.119.065-.124 0-.01-.053.16-.07.124 0zm1.698.806c-.017.357-.826.203-1.11.266-.654-.033 1.06-.364 1.11-.265zm-1.198.51c-.02.146-2.044.893-1.614.391.406.048 1.06-.489 1.614-.39zm-1.327.287c-.023.053-.223.08-.235 0-.017-.058.276-.079.235 0zm1.458 1.88c.111.197-.188-.028-.089-.058.031 0 .073.026.089.058zm0 .88c.03.085-.245-.063-.084-.053.031 0 .068.021.084.052zm-6.144 2.603c.015.026-.006.052-.052.052-.132-.006.011-.184.052-.052zm.588 8.455c.188.19-.393.132-.219.047-.048-.23-.109-.461.219-.047z"/><path d="m54.735 18.051c-.688.168-1.964.33-1.427.708.207.967 2.48-.665 1.427-.708zm.078.36c.15.1-.107-.03-.12.062-.108.028-.067-.236.12-.063zm-23.154 5.742c-.266.177-1.675.464-.974.682.406.007 1.89-.98.974-.682zm16.593 15.604c-2.72 1.136 1.502-.333 1.698 1.432 2.953.522-.378-1.638-1.698-1.432zm1.9 1.192c.043.08-.305.054-.285 0 .008-.08.268-.057.286 0zm1.548.261c.032.659.622.527-.584.63 1.331.943 3.792-.65.583-.63z"/></g></svg>