<svg width="159" height="81" fill="none" xmlns="http://www.w3.org/2000/svg"><path fill="#fff" d="M0 0h157v79H0z"/><path fill-rule="evenodd" clip-rule="evenodd" d="M158 3H3v77h155V3zM2 2v79h157V2H2z" fill="#444674"/><rect x="9" y="10" width="29" height="2" rx="1" fill="#D4D1EC"/><path d="M11.262 55.67l-1.628.64a1 1 0 00-.634.93V73.5h141V49.46a1 1 0 00-1.614-.79l-1.403 1.091a1.015 1.015 0 01-.224.132l-2.18.925a1 1 0 01-.968-.104l-2.128-1.504a.998.998 0 00-.514-.182l-2.531-.159-2.116.133a1.001 1.001 0 01-.979-.596l-2.252-5.128a1 1 0 00-.978-.596l-2.117.133-2.813.044-2.033.16a1 1 0 01-1.028-.683l-2.479-7.475a1 1 0 00-.302-.448l-2.316-1.964a1.003 1.003 0 01-.341-.61l-1.574-10.185c-.179-1.159-1.862-1.117-1.983.05l-1.961 18.881a1 1 0 01-.493.762l-2.082 1.21a.998.998 0 01-.627.127l-1.784-.224a1 1 0 00-1.014.535l-2.002 3.899a1 1 0 01-1.412.396l-1.521-.932a1 1 0 00-.794-.11l-2.157.61a.999.999 0 00-.414.235l-2.636 2.483-2.572 1.98a1 1 0 01-.547.205l-2.36.148a1 1 0 01-.293-.024l-2.017-.475a1 1 0 01-.758-.816l-2.709-16.972-1.414-5.554c-.276-1.084-1.853-.966-1.964.147l-2.04 20.381a1 1 0 01-1.699.611l-.93-.92a1 1 0 00-.933-.263l-2.275.536-2.814.354-2.445.076a1 1 0 01-.657-.219l-1.798-1.44a1 1 0 00-1.36.102l-2.03 2.201a1 1 0 01-.357.248l-2.187.893a1 1 0 01-.828-.033l-2.232-1.122a1 1 0 00-.37-.103l-2.448-.192a1.001 1.001 0 00-.337.03l-1.577.422a1 1 0 01-1.245-.81l-1.507-9.46c-.178-1.114-1.777-1.128-1.973-.017l-1.833 10.391a1 1 0 01-.953.826l-1.803.057a1 1 0 01-.384-.064l-2.427-.915a.999.999 0 00-.416-.062l-2.505.157a1.002 1.002 0 01-.188-.006l-2.55-.32a1 1 0 01-.324-.099l-2.156-1.084a1 1 0 00-.981.047l-2.246 1.41a1 1 0 01-.192.094l-2.713.98-2.635.787a.999.999 0 01-.364.038l-2.311-.181a1 1 0 01-.562-.228l-2.48-2.064a1.006 1.006 0 00-.194-.127l-3.178-1.577a1 1 0 00-1.436.77l-.834 6.547a1 1 0 01-.627.804z" fill="#7A5088"/></svg>