<svg width="159" height="81" fill="none" xmlns="http://www.w3.org/2000/svg"><path fill="#fff" d="M0 0h157v79H0z"/><path fill-rule="evenodd" clip-rule="evenodd" d="M158 3H3v77h155V3zM2 2v79h157V2H2z" fill="#444674"/><rect x="9" y="10" width="29" height="2" rx="1" fill="#D4D1EC"/><path fill-rule="evenodd" clip-rule="evenodd" d="M43.056 21.586c.025.021.063.064.071.173l1.98 26.422c.036.482.27.928.647 1.232l2.123 1.71a1.75 1.75 0 001.399.361l1.547-.269a.25.25 0 01.277.16l2.029 5.476a1.75 1.75 0 002.774.727l1.27-1.078a.25.25 0 01.252-.043l1.998.783a.25.25 0 01.107.081l2.645 3.455.048.057 2.552 2.723c.295.314.695.509 1.125.546l2.23.194c.234.02.47-.006.695-.08l2.01-.656a1.75 1.75 0 001.195-1.464l2.738-23.783 1.393-7.582c.018-.102.058-.14.086-.16a.276.276 0 01.173-.045.275.275 0 01.168.063c.025.023.06.066.068.169l2.052 28.424c.118 1.626 2.2 2.222 3.16.904l.777-1.066a.25.25 0 01.28-.09l2.055.671c.08.026.16.046.243.06l2.743.479.096.01 2.343.102a1.75 1.75 0 001.377-.577l1.636-1.817a.25.25 0 01.394.028l1.968 2.957c.152.229.356.418.595.553l2.058 1.166a1.75 1.75 0 001.863-.087l2.087-1.455a.255.255 0 01.116-.044l2.326-.253a.252.252 0 01.114.014l1.397.518a1.75 1.75 0 002.347-1.442l1.53-13.319c.012-.104.049-.145.076-.167a.273.273 0 01.171-.054c.076 0 .136.023.172.052.026.021.064.063.077.166l1.86 14.619a1.75 1.75 0 001.66 1.527l1.703.075a1.75 1.75 0 00.887-.198l2.317-1.21a.249.249 0 01.137-.028l2.393.208c.151.014.303.007.452-.019l2.468-.43c.251-.043.49-.142.7-.288l1.992-1.388a.25.25 0 01.307.017l2.13 1.855c.111.097.234.179.365.245l2.701 1.352.049.023 2.578 1.066c.271.112.566.154.858.123l2.169-.236a1.75 1.75 0 001.133-.594l2.474-2.854a.212.212 0 01.047-.042l3.029-2.085a.25.25 0 01.391.183l.881 9.593c.054.582.394 1.098.906 1.377l2.345 1.277.718-1.318-2.345-1.276a.25.25 0 01-.13-.197l-.881-9.593c-.123-1.332-1.633-2.04-2.735-1.281l-3.03 2.084a1.75 1.75 0 00-.33.296l-2.473 2.854a.249.249 0 01-.162.084l-2.169.236a.251.251 0 01-.123-.017l-2.553-1.056-2.676-1.34a.243.243 0 01-.052-.035l-2.13-1.855a1.75 1.75 0 00-2.15-.116l-1.992 1.388a.25.25 0 01-.1.04l-2.467.43a.251.251 0 01-.065.003l-2.393-.208a1.75 1.75 0 00-.962.192l-2.317 1.21a.247.247 0 01-.126.029l-1.704-.074a.25.25 0 01-.237-.218l-1.86-14.62c-.261-2.05-3.238-2.032-3.474.022l-1.531 13.32a.25.25 0 01-.335.205l-1.398-.517a1.747 1.747 0 00-.796-.099l-2.326.253a1.75 1.75 0 00-.811.304l-2.088 1.455a.25.25 0 01-.266.012l-2.058-1.165a.25.25 0 01-.085-.08l-1.968-2.956a1.75 1.75 0 00-2.758-.201l-1.636 1.817a.25.25 0 01-.197.083l-2.294-.1-2.696-.47a.241.241 0 01-.034-.009l-2.055-.67a1.75 1.75 0 00-1.958.632l-.777 1.066a.25.25 0 01-.451-.13L78.152 30.65c-.148-2.05-3.095-2.21-3.467-.19l-1.397 7.607-.008.05-2.74 23.808a.25.25 0 01-.17.21l-2.011.656a.248.248 0 01-.1.011l-2.229-.194a.25.25 0 01-.16-.078l-2.527-2.696-2.622-3.425a1.75 1.75 0 00-.75-.565l-1.998-.783a1.75 1.75 0 00-1.772.295l-1.27 1.078a.25.25 0 01-.395-.104l-2.029-5.477a1.75 1.75 0 00-1.941-1.116l-1.548.27a.25.25 0 01-.2-.052l-2.123-1.71a.25.25 0 01-.093-.177l-1.98-26.42c-.158-2.121-3.248-2.177-3.484-.064l-1.59 14.27a.25.25 0 01-.058.135l-2.461 2.893a1.75 1.75 0 00-.369.727l-2.553 10.673a.25.25 0 01-.27.19l-1.938-.21-.065-.005-2.79-.06-1.991-.174a1.75 1.75 0 00-1.82 1.215l-2.33 7.356a.25.25 0 01-.26.174l-1.93-.168a1.75 1.75 0 00-.303 0l-2.37.206a1.75 1.75 0 00-1.073.494l-2.01 1.97a.25.25 0 01-.303.037l-2.027-1.192a.248.248 0 01-.057-.045l-3.02-3.257-1.1 1.02 3.02 3.257c.116.125.25.232.397.318l2.027 1.192a1.75 1.75 0 002.112-.258l2.011-1.97a.25.25 0 01.153-.071l2.37-.207a.262.262 0 01.044 0l1.929.168a1.75 1.75 0 001.82-1.215l2.33-7.356a.25.25 0 01.26-.173l2.016.175.048.003 2.782.06 1.905.208a1.75 1.75 0 001.892-1.333l2.553-10.673a.25.25 0 01.053-.104l2.46-2.893a1.75 1.75 0 00.406-.94l1.591-14.27c.012-.11.051-.15.077-.171a.28.28 0 01.176-.052c.079.001.14.028.175.058z" fill="#444674"/></svg>