<svg width="159" height="81" fill="none" xmlns="http://www.w3.org/2000/svg"><path fill="#fff" d="M0 0h157v79H0z"/><path fill-rule="evenodd" clip-rule="evenodd" d="M158 3H3v77h155V3zM2 2v79h157V2H2z" fill="#444674"/><rect x="9" y="10" width="29" height="2" rx="1" fill="#D4D1EC"/><path fill-rule="evenodd" clip-rule="evenodd" d="m43 21.6.1.2 2 26.4c0 .5.3 1 .7 1.2l2 1.7a1.8 1.8 0 0 0 1.5.4l1.5-.3a.3.3 0 0 1 .3.2l2 5.5a1.8 1.8 0 0 0 2.8.7l1.3-1.1a.3.3 0 0 1 .2 0l2 .7a.3.3 0 0 1 .1.1l2.7 3.5 2.6 2.8c.3.3.7.5 1.1.5l2.2.2h.7l2-.7A1.8 1.8 0 0 0 72 62l2.8-23.8 1.4-7.6v-.1a.3.3 0 0 1 .2 0 .3.3 0 0 1 .2 0v.2l2.1 28.4a1.8 1.8 0 0 0 3.2.9l.7-1a.3.3 0 0 1 .3-.2l2 .7h.3l2.8.5 2.4.2a1.8 1.8 0 0 0 1.4-.6l1.6-1.8a.3.3 0 0 1 .4 0l2 3c.1.2.3.4.6.5l2 1.2a1.8 1.8 0 0 0 1.9-.1l2-1.5a.3.3 0 0 1 .2 0l2.3-.3a.3.3 0 0 1 .1 0l1.4.6a1.8 1.8 0 0 0 2.4-1.5l1.5-13.3v-.2a.3.3 0 0 1 .3 0h.1l.1.2 1.9 14.6a1.8 1.8 0 0 0 1.6 1.5l1.7.1a1.8 1.8 0 0 0 1-.2l2.2-1.2a.2.2 0 0 1 .2 0l2.4.2h.4l2.5-.5c.2 0 .5-.1.7-.3l2-1.3a.3.3 0 0 1 .3 0l2.1 1.8.4.3 2.7 1.3 2.6 1.1c.3.1.6.2.9.1l2.1-.2a1.8 1.8 0 0 0 1.2-.6l2.4-2.8 3.1-2.2a.3.3 0 0 1 .4.2l.9 9.6c0 .6.4 1.1.9 1.4l2.3 1.3.8-1.4-2.4-1.2a.3.3 0 0 1-.1-.2l-.9-9.6c-.1-1.4-1.6-2-2.7-1.3l-3 2a1.8 1.8 0 0 0-.4.4l-2.5 2.8a.2.2 0 0 1-.1.1l-2.2.2a.3.3 0 0 1-.1 0l-2.6-1-2.6-1.4a.2.2 0 0 1-.1 0l-2.1-1.9a1.8 1.8 0 0 0-2.2 0l-2 1.3-2.5.5a.3.3 0 0 1-.1 0l-2.4-.2a1.8 1.8 0 0 0-1 .2l-2.3 1.2a.2.2 0 0 1-.1 0h-1.7a.3.3 0 0 1-.2-.3l-1.9-14.6c-.3-2-3.2-2-3.5 0l-1.5 13.3a.3.3 0 0 1-.3.2l-1.4-.5a1.7 1.7 0 0 0-.8 0l-2.4.2a1.8 1.8 0 0 0-.8.3l-2 1.4a.3.3 0 0 1-.3 0l-2-1.1a.3.3 0 0 1-.2 0l-2-3a1.8 1.8 0 0 0-2.7-.2l-1.6 1.8a.3.3 0 0 1-.2 0h-2.3l-2.7-.5-2.1-.7a1.8 1.8 0 0 0-2 .6l-.7 1.1a.3.3 0 0 1-.5-.1l-2-28.5c-.2-2-3.1-2.2-3.5-.1L73.3 38 70.5 62a.3.3 0 0 1-.1.2l-2 .7a.2.2 0 0 1-.1 0l-2.3-.2a.3.3 0 0 1-.1 0l-2.6-2.8-2.6-3.4a1.8 1.8 0 0 0-.7-.6l-2-.7a1.8 1.8 0 0 0-1.8.3l-1.3 1a.3.3 0 0 1-.4 0l-2-5.5a1.8 1.8 0 0 0-2-1.2L49 50a.3.3 0 0 1-.2 0l-2.1-1.8a.3.3 0 0 1-.1-.1l-2-26.5c-.1-2-3.2-2.1-3.5 0l-1.6 14.3-2.5 3a1.8 1.8 0 0 0-.3.7L34 50.3a.3.3 0 0 1-.3.2l-1.9-.2-2.9-.1-2-.2a1.8 1.8 0 0 0-1.8 1.2L23 58.6a.3.3 0 0 1-.3.2l-1.9-.2a1.8 1.8 0 0 0-.3 0l-2.4.2a1.8 1.8 0 0 0-1 .5l-2 2a.3.3 0 0 1-.3 0l-2-1.2a.2.2 0 0 1-.1 0l-3-3.3-1.1 1 3 3.3.4.3 2 1.2a1.8 1.8 0 0 0 2.1-.3l2-2a.3.3 0 0 1 .2 0l2.3-.2 2 .2a1.8 1.8 0 0 0 1.8-1.3l2.4-7.3a.3.3 0 0 1 .2-.2l2 .2h2.9l1.9.3a1.8 1.8 0 0 0 1.9-1.4L38 40a.3.3 0 0 1 0-.1l2.5-3a1.8 1.8 0 0 0 .4-.9l1.6-14.2.1-.2a.3.3 0 0 1 .2 0h.2z" fill="#444674"/></svg>
