<svg xmlns="http://www.w3.org/2000/svg" viewBox="0 0 539.08 186.67"><g data-name="Layer 10"><ellipse cx="53.48" cy="164.17" rx="4.73" ry="1.48" fill="#f58452"/><ellipse cx="180.41" cy="181.59" rx="7.19" ry="2.58" fill="#f58452"/><ellipse cx="113.71" cy="159.48" rx="4.26" ry="1.26" fill="#f58452"/><path d="M39 101l-5.33-3.6s-2.79 4.65-3.54 6.23a33.43 33.43 0 00-2.21 6.37c.19-.19 2.33.18 4.09-1.12s3.26-5.39 3.26-5.39l4.55 2.66A48.49 48.49 0 0039 101zM51.08 91.57L48.76 91l2.14 18-8.7-5.88c.07-.22.91 4.88 1 4.93l10 5.88s1.59.74 1.68-.47-3.8-21.89-3.8-21.89z" fill="#7c6891"/><path fill="#aba3bb" d="M108.57 118.64l3.72 10.88 3.91-.93-4.74-10.6-2.89.65z"/><path d="M110 135.85l-17.24 10.42s1.41 3.13 2.79 5.67a13.3 13.3 0 005 4.93 5.86 5.86 0 001.3-3.72c0-2.6-2.23-4.93-2.23-4.93l17.58-10.7-4-2.51a19.8 19.8 0 01-3.2.84zM175.46 100.41c.55.37 31.81 58.79 31.81 58.79a27.68 27.68 0 016.7-4.28 23.41 23.41 0 018.37-1.86 5.8 5.8 0 00-4.84-4.84c-2.85-.59-8 1.67-8 1.67l-30.7-50.23zM30.71 77.52l33.68-16.55-8.75 14.88 42.05-8.37-18.61 22.14 69.03-28.28-17.49 25.11 64.37-47.07-2.23-2.6 13.39-2.79-5.21 12.46-2.6-2.79-80.56 56.56 21.21-31.63L72.02 95.2l20.09-24.56-39.63 7.63 8.56-14.33-30.89 14.89.56-1.31z" fill="#7c6891"/><path d="M28.88 85.83c.53-.68 21.93-10.91 21.93-10.91l-4.1 7.63L78.9 75.1l-9.68 13.21 48.93-15.25L109 94.83l131.2-68.66-1.49-5.76 30.7-2.05-26.23 24-1.12-5.77-142.32 67.54L110 80.69 61.78 93l8.56-12.5-28.46 5.58 3.53-6.14-17.12 7.26z" fill="#f58452"/><path d="M16.71 147.37h.06l.06-.05s.07-.06 0 0a.86.86 0 01.07-.1.14.14 0 010-.06V147c-1.72-.87-3-1.5-3.65-1.81a.92.92 0 00.49-.71c0-1.79-7.2-1.79-7.2 0 0 .9 1.81 1.37 3.6 1.37a7.87 7.87 0 002.55-.38c.18.06 1.6.78 3.78 1.93zm-6.46-2c-1.89 0-3.1-.52-3.1-.87s1.21-.87 3.1-.87 3.1.52 3.1.87-1.21.87-3.1.87zM33.46 156.3H33.63l.23-.1.14-.2-.06-.07c-5.8-3-11.44-5.94-15.41-8l-.16.11-.06.09c0 .05 0 0 0 0V148.28c3.92 2.06 9.53 5 15.23 8.09zM70.23 165v-.05a.22.22 0 000-.08l-.09-.07h-.06l-.11-.06H69.62L58.4 165.8c-.11-1.92-5.76-2.43-8.84-1.54-4-2.12-8.76-4.66-13.56-7.17h-.51a.36.36 0 000 .09.13.13 0 000 .06v.13l13.14 7c-.57.31-.92.7-.92 1.18 0 1.35 2.72 2 5.4 2 2.15 0 4.32-.45 5.1-1.32L70.17 165zm-12.76.61a.34.34 0 00-.14.21c-.49.48-2.12 1-4.48 1-2.84 0-4.65-.77-4.65-1.3s1.81-1.3 4.65-1.3 4.65.77 4.65 1.3c0 .03-.02.05-.03.08zM532.11 142.26c-2.9 0-8.38.47-8.38 2.24a.75.75 0 00.06.29l-15.28 3.51h1.02l14.44-3.35c1.22 1.19 5.56 1.54 8 1.54 2.89 0 8.37-.47 8.37-2.24s-5.34-1.99-8.23-1.99zm0 3.73c-4.94 0-7.63-1-7.63-1.49s2.69-1.49 7.63-1.49 7.62 1 7.62 1.49-2.73 1.5-7.62 1.5zM506.71 149.1c.4-.13.82-.2 1.22-.3l-.07-.09c0-.05 0 0 0 0h-.62l-61.4 14.13a.3.3 0 010 .1v.11h.05a4.34 4.34 0 00.5.2l60.2-14a.27.27 0 01.12-.15zM444.1 163.79v-.05l-.05-.07h-.11l-.3-.12h-.08l-38.69 8.9c-1.26-1.62-6.23-2.47-11.16-2.47-5.16 0-10.36.93-11.31 2.71-4.69-.66-23.56-3.28-43.49-6l-.18.06h-.06l-.11.07.06.13.1.24 43.57 6.2c.26 2.06 5.88 3.13 11.45 3.13s11.48-1.13 11.48-3.29v-.12zm-50.41 11.46c-6.88 0-10.48-1.49-10.48-2.29s3.6-2.29 10.48-2.29 10.48 1.5 10.48 2.29-3.6 2.29-10.48 2.29zM294.73 160.65l.11-.08v-.09L284.83 159a.59.59 0 000-.13c0-1.41-3.66-2.05-7.07-2.05s-7.07.64-7.07 2.05a.76.76 0 000 .21l-31.25 8.85v.05l.09.07h.05l.11.05h.16c11.17-3.22 22.22-6.38 30.93-8.85.86 1 3.94 1.47 6.83 1.47s6.19-.5 6.92-1.58l10 1.39zm-17-.53c-3.61 0-5.7-.68-6.2-1.11 0-.05-.08-.1-.08-.13 0-.39 2.15-1.3 6.32-1.3s6.32.91 6.32 1.3-2.09 1.24-6.31 1.24zM302.12 161.74h.09v-.08c0-.02 0-.07 0 0l-.1-.08-5.66-.77-.09.09.09.24 5.7.8zM337.28 166.27v-.08a.1.1 0 010-.05l-32.9-4.52H304.09l.09.17 33 4.67h.05s.05-.06 0 0v-.09s0-.07 0 0a.07.07 0 01.05-.1zM225.07 172.57a.2.2 0 000-.07.15.15 0 000-.07.57.57 0 010-.13v-.05H224.78c-17.41 4.95-33.62 9.56-36.47 10.44-1.13-1.36-4.45-2.07-7.73-2.07-3.64 0-7.31.87-8 2.54l-32.09-12.73h-.22l-.15.06h-.06c-.05 0 0 0 0 0v.14l32.54 13.06c.25 1.91 4.19 2.91 8.1 2.91s8.13-1.06 8.13-3.1a1.5 1.5 0 00-.05-.37c2.73-.84 18.29-5.37 36.29-10.56zm-44.59 13.1c-4.35 0-7.13-1.24-7.13-2.1s2.78-2.11 7.13-2.11 7.13 1.25 7.13 2.11-2.78 2.1-7.13 2.1zM238.34 168.59a.09.09 0 010-.05l-.1-.08-12.24 3.26V171.89h.28l11.93-3.43s0-.07 0 0a.11.11 0 010-.05zM138.69 170.15h.06l.06-.06v-.07l-.05-.12v-.05l-.07-.1-8.11-3.21h-.19v.1a.09.09 0 000 .05.34.34 0 000 .1l8.25 3.31zM128.94 166.28H129.28a.3.3 0 000-.1v-.05L118 161.37a.86.86 0 00.43-.68c0-2-9.43-2-9.43 0l-37.12 3.49-.08.05-.06.08s0 .07 0 0 0 .1 0 0v.07h.06l.16.08 37.13-3.69c.62.71 2.56 1.08 4.5 1.08a10.61 10.61 0 003.69-.56l11.38 4.57zm-15.25-4.54c-2.57 0-4.22-.62-4.22-1.05s1.65-1.06 4.22-1.06 4.21.63 4.21 1.06-1.64 1.05-4.21 1.05z" fill="#5c4376"/><path d="M10.06 141.84a.49.49 0 01-.43-.26L8.14 139a.49.49 0 01.18-.68.51.51 0 01.69.18l.94 1.65 2.8-8.07a.51.51 0 01.64-.31.5.5 0 01.31.63l-3.17 9.12a.47.47 0 01-.42.33zM52.67 161.93a.48.48 0 01-.4-.2l-2.8-3.73a.5.5 0 01.11-.7.48.48 0 01.69.1l2.2 2.92 4.37-14.67a.5.5 0 011 .28l-4.66 15.63a.48.48 0 01-.39.35zM113.87 157.65a.5.5 0 01-.43-.25l-2-3.53a.51.51 0 01.18-.69.5.5 0 01.68.19l1.58 2.71 5.72-11.8a.5.5 0 11.9.44l-6.14 12.65a.49.49 0 01-.43.28zM179 178.86a.51.51 0 01-.43-.24l-3.53-6a.49.49 0 01.17-.68.5.5 0 01.69.17l3 5 6.35-18.33a.5.5 0 01.94.32l-6.7 19.35a.48.48 0 01-.42.34z" fill="#f58452"/><path fill="#662429" d="M84.07 83.69l-3.54 1.1-3.51 4.29 3.2-.81 3.85-4.58zM173.59 61.04l-28.9 15.13-14.07 10.28 3.2-4.6-5.73 3.01-5.73 8.53 15.88-7.53 35.35-24.82zM117.88 73.72L85.93 86.81 106 81.7l10.24-4.07 1.64-3.91zM173.33 182a2 2 0 00.69.75 13.27 13.27 0 016.46-1.31 13.59 13.59 0 016.38 1.26 1.86 1.86 0 00.66-.77c-1.48-1-4.26-1.49-7-1.49s-5.74.56-7.19 1.56zM109.67 159.85a1.9 1.9 0 00.48.31 12.08 12.08 0 017.11 0 1.89 1.89 0 00.48-.3c-1.74-.93-6.32-.93-8.07-.01zM49.4 163.93l-.39-.21a.65.65 0 00-.25.45.81.81 0 00.43.61 10.53 10.53 0 013.66-.56 8.57 8.57 0 014.31.87 3 3 0 00.7-.36c-1.32-1.29-5.86-1.56-8.46-.8zM7.89 144a7.34 7.34 0 012.36-.34 7.46 7.46 0 012.29.32 2.58 2.58 0 00.6-.29 8.44 8.44 0 00-5.86 0 2.7 2.7 0 00.61.31z"/><ellipse cx="38.45" cy="41.27" rx="2.81" ry="2.67" fill="#f58452"/><ellipse cx="48.47" cy="39.86" rx="3.2" ry="2.97" fill="#7c6891"/><path d="M36.26 106a.17.17 0 000-.07v-.11l-3-2a.51.51 0 00-.48 0 .51.51 0 00-.3.38 5.42 5.42 0 01-2 3.2 7.26 7.26 0 01-3.34 1.2c-.1-.4-.15-1.68 1.47-5 .29-.6.56-1.13.83-1.6a2.5 2.5 0 000-.25v-.21a.3.3 0 000-.1v-.06l-.17-.07H28.92a2.12 2.12 0 00-.36.21c-.28.49-.56 1-.86 1.66-2.36 4.89-1.58 6.1-1.13 6.4a.46.46 0 00.28.08 7.94 7.94 0 004.15-1.59 6.26 6.26 0 002.25-3.13l2 1.36a2.47 2.47 0 00.47 0 1.52 1.52 0 00.21 0H36.14c.06 0 0 0 0 0a.11.11 0 010-.05c.12-.19.12-.25.12-.25z" fill="#5c4376"/><path d="M199.41 139h.62v-.12V138.71a3.48 3.48 0 00-.24-.52.23.23 0 010-.14c-4.29-7.34-9.47-16.16-14-23.8a1.35 1.35 0 00-.52.11s-.07 0 0 0l-.09.06a.29.29 0 000 .1v.34c4.82 8.2 10 17 14.17 24.14zM221 152.64c-.73-1.09-3.46-2.41-7.26-1.94a11.15 11.15 0 00-4.83 2l-.41.26c-.77-1.38-3.73-6.47-7.59-13.07h-.1s-.08 0 0 0a.79.79 0 00-.23.09 1 1 0 00-.3.28.28.28 0 000 .09.15.15 0 000 .07.86.86 0 000 .16v.09c4.3 7.34 7.35 12.58 7.52 12.93a.62.62 0 00.37.39c.37.13.71-.09 1.34-.49a10.32 10.32 0 014.4-1.8 8.94 8.94 0 015.65.94 14.07 14.07 0 00-5.15 1.08c-3 1.18-6.64 3.76-8 5.76a6 6 0 00-.7 1.29L203.1 156l-.1-.06a1.59 1.59 0 00-.5.11.57.57 0 00-.28.25v.06l3.33 6.39a.38.38 0 00.11.11s0 .05.07.07a.55.55 0 00.22.06h.15a38.39 38.39 0 007.93-3.59c4.61-2.88 6.26-4.18 7-5.57a1.12 1.12 0 00-.03-1.19zm-7.46 6a37.32 37.32 0 01-7.16 3.3 3.51 3.51 0 01.76-1.85c1.28-1.82 4.75-4.3 7.59-5.4s4.69-1.12 5.32-.95c-.82 1.07-2.52 2.34-6.53 4.85z" fill="#3f2b56"/><path d="M201.29 154.47h.34s.09 0 0 0h.06l.12-.05h.05l.1-.08v-.05s0-.07 0 0L189 129a2.37 2.37 0 00-.27-.28h-.14c.05 0 0 0 0 0h-.2l-.09.07a.44.44 0 00-.08.11s0-.05 0 0v.06a.56.56 0 000 .12l13.16 25.2zM206.19 87.89a2.56 2.56 0 00-.51-.35.44.44 0 00-.15-.05h-.2l-.11.11c-.41 3.49-.67 5.61-.68 5.76s.09 2.35-2.93 2.82c-.48.08-1.55.2-3 .37l-4.11.45v-4.59a.25.25 0 10-.5 0v4.68c-2.55.31-5.62.7-9 1.19l-.32-4.4a.24.24 0 00-.27-.23.25.25 0 00-.23.26l.33 4.44c-2.39.35-4.93.74-7.57 1.19h-.05l-2.28.39-.92-3.32a.26.26 0 00-.31-.18.25.25 0 00-.17.31l.91 3.28-.42.08a.45.45 0 00-.3 0c-2.42.44-4.89.93-7.38 1.46l-.88-3.69a.24.24 0 00-.3-.18.25.25 0 00-.18.3l.87 3.67c-3.46.74-6.95 1.58-10.35 2.52l-.82-4.62a.25.25 0 00-.29-.2.25.25 0 00-.21.29l.84 4.66-1.11.32c-.08.21-11.7 40.84-12.59 42.87a1.23 1.23 0 01-.77.76 3.08 3.08 0 01-2.16-.59l-24.84-13.25a.49.49 0 00-.47 0 11.32 11.32 0 01-5.32 1.05 4.27 4.27 0 01-3.39-1.44 31.89 31.89 0 016.18-3 39.72 39.72 0 016.7-1.76l19.94 12.6a.48.48 0 00.42 0 .5.5 0 00.31-.29s13.75-35.95 13.91-36.32c-2.12.64-4 1.24-6 2l-1.56-3.47a.25.25 0 00-.46.2l1.55 3.44-1.69.65q-3.44 1.35-6.74 2.51l-1.59-3.82a.23.23 0 00-.32-.13.25.25 0 00-.14.32l1.58 3.79c-1.68.58-3.31 1.11-4.92 1.62l-.14.19s0 .07 0 0l.09.13.18.21.36.12c3.82-1.21 7.85-2.61 12-4.25 2-.78 4-1.51 6.18-2.2l-13 33.87-19.58-12.37a.51.51 0 00-.34-.08c-.07 0-1 .14-2.44.48l-1.38-3H112.85a.62.62 0 00-.19 0h-.11l-.06.08v.06a.81.81 0 00-.09.26v.05l1.26 2.74c-.82.22-1.74.48-2.74.81L107.36 119l1.75-.31 2.36 5.17.1.07a.72.72 0 00.2.09h.39a1.34 1.34 0 01.06-.12l-2.22-5.06a194.1 194.1 0 0019.24-4.76 4.72 4.72 0 00.52-.35 1.54 1.54 0 00.19-.17v-.19-.07c0-.07 0-.09 0 0a.25.25 0 010-.07v-.07l-.07-.09-.17-.11-2.23.69-1.27-3.65a.26.26 0 00-.32-.16.26.26 0 00-.16.32l1.14 3.57c-3.24.93-6.25 1.72-9 2.37l-1-3.12a.25.25 0 10-.47.15l1 3.09c-3.18.75-6 1.32-8.17 1.74h-.14l-.36.07v-3.69a.25.25 0 00-.5 0v3.78c-3.1.56-4.91.79-5 .79l-1.65-.91a.52.52 0 00-.34-.06l-2.49.46.64-3.83a.24.24 0 00-.2-.29.25.25 0 00-.29.2l-.67 4-.51.09-15.63-14.13 13.53-17.35a.51.51 0 00-.09-.71.5.5 0 00-.7.09L81 104.19a.5.5 0 000 .68l16.19 14.65a.48.48 0 00.43.12l3.59-.66 1.77 1-.64.65a.48.48 0 00-.15.37.49.49 0 00.17.36l2.85 2.48-1.07 1.34-.73-.55a.51.51 0 00-.64 0l-1.39 1.28-.8-.5a.5.5 0 00-.62.08l-1 1c-1.22-1.26-5.18-5.36-9.27-9.57a.52.52 0 00-.34-.35c-4.8-4.93-9.69-9.92-10.45-10.54-1.09-.89-.59-1.68-.5-1.8l15.9-18.14a.48.48 0 000-.7.5.5 0 00-.71 0l-15.92 18.24a2.25 2.25 0 00.63 3.21c.7.57 9.63 9.75 9.61 9.75s1.39 1.37 1.56 1.54c-.49 1.57-2.38 7.68-2.86 9.3a2.27 2.27 0 01-1 1.36.57.57 0 00-.13.08l-13.8 12.28a.52.52 0 00-.17.37v2.61a.53.53 0 00.33.47s.94.39 1.75 2.5a5.56 5.56 0 01.31 3.37 12.25 12.25 0 01-2.81-.85c-2.15-.9-3.43-1.91-3.6-4.41s1.14-6.32 1.41-7.1l14.95-11.45a.5.5 0 00.17-.21s3.78-9.63 3.76-9.67a29.53 29.53 0 01-7.18-2.42l1.68-2.85a.25.25 0 10-.43-.25l-1.71 2.89c-.45-.22-.92-.45-1.41-.72a24.14 24.14 0 01-5-3.62l2.42-2.92a.24.24 0 000-.35.25.25 0 00-.35 0l-2.41 2.89c-1.36-1.27-2.67-2.68-4.12-4.25l-.35-.38 1.86-2a.25.25 0 000-.35.25.25 0 00-.36 0l-1.83 2c-1.47-1.58-3.08-3.28-5-5.1l2.17-2.51a.25.25 0 000-.35.26.26 0 00-.36 0L63.15 99c-1.09-1-2.27-2.08-3.59-3.18-.42-.35-.84-.67-1.26-1l2.2-3a.25.25 0 00-.06-.35.25.25 0 00-.35.06l-2.2 3a27 27 0 00-6-3.21L53.27 88a.25.25 0 10-.46-.2l-1.4 3.33a27.09 27.09 0 00-3.42-1 .47.47 0 00-.41-.15h-.11a27.65 27.65 0 00-3.85-.47l.73-2.92a.25.25 0 00-.18-.3.24.24 0 00-.3.18l-.75 3a21.45 21.45 0 00-3.72.19.51.51 0 00-.32.21.47.47 0 00-.08.38l2.75 14.38 4.78 25.05a.49.49 0 00.59.39 15.52 15.52 0 014.47-.16 7.08 7.08 0 011.34.41 14.59 14.59 0 00-3.66.88 9.21 9.21 0 00-4.36 2.85l-7.16-43.69a.5.5 0 00-.5-.41 21.35 21.35 0 00-2.71.27l.88-3.33a.26.26 0 00-.18-.31.25.25 0 00-.3.18L34 90.29c-.95.15-2.13.34-3.59.63-1.06.2-2 .41-2.91.6.4-1.64.87-3.57 1.37-5.69l2.42-.24a.26.26 0 00.22-.28.25.25 0 00-.27-.22l-2.24.22c.4-1.67.82-3.43 1.25-5.25l2.92-.62a.25.25 0 10-.1-.49l-2.69.57c.41-1.69.82-3.41 1.22-5.12l2.12-.35a.25.25 0 00.21-.29.27.27 0 00-.29-.21l-1.91.32c.13-.54.25-1.08.38-1.63l5.43-1a.5.5 0 00.4-.58.51.51 0 00-.59-.4l-14.08 2.63A.6.6 0 0023 73L6.47 89l-.81-.18-.13-.18.37-.17a.51.51 0 00.26-.3.47.47 0 000-.4l-.87-1.47a.54.54 0 00-.53-.25l-1.58.28a.5.5 0 00.18 1l1.23-.22.4.7-.12.06a.48.48 0 00-.29 0l-1.36.23L1.79 86l.5-.67.77-.11a.51.51 0 00.4-.32l.3-.79h.77a.49.49 0 00.47-.36l.43-1.08h1.1L7.63 84a.5.5 0 00.35.18.56.56 0 00.37-.13C8.47 84 20.91 72.77 21.87 72a2.12 2.12 0 011.56-.58l14-1.82a.49.49 0 00.43-.56.49.49 0 00-.56-.43l-4.4.58c.23-.94.44-1.87.65-2.77l2.66-.51a.25.25 0 00.19-.29.24.24 0 00-.29-.2l-2.43.47c.38-1.63.73-3.16 1-4.55l2-.26a.25.25 0 00.21-.28.25.25 0 00-.28-.22l-1.83.24c.41-1.82.75-3.36 1-4.49l3-.28a.25.25 0 00.22-.27.23.23 0 00-.27-.22l-2.79.26a10.31 10.31 0 00.26-1.58.28.28 0 00-.32-.19.25.25 0 00-.17.3 13 13 0 01-.28 1.52l-2.65.24a.26.26 0 00-.23.28.24.24 0 00.25.22l2.5-.23c-.24 1.13-.59 2.68-1 4.51l-1.92.25a.25.25 0 000 .5l1.73-.22c-.32 1.4-.68 3-1.06 4.59l-2.8.54a.25.25 0 00-.2.29.26.26 0 00.25.2h.05l2.57-.5-.64 2.73L26 70l1.14-4.73-.09-.07c-.32.07-.64.16-1 .26L25 70.17l-1.49.2a3.23 3.23 0 00-2.27.82C20.34 72 10.23 81 8.07 83l-.92-1.13a.51.51 0 00-.39-.19H5.08a.51.51 0 00-.46.32l-.43 1.08h-.78a.5.5 0 00-.47.32l-.31.84-.69.1a.5.5 0 00-.33.2l-.83 1.1a.5.5 0 000 .58l1.82 2.66a.5.5 0 00.49.21l1.29-.22a.36.36 0 00.15.08l.45.63a.49.49 0 00.3.2l1.25.28h.11a.52.52 0 00.36-.13l16.6-16.08.52-.1-1.37 5.71.22.35s0 .08 0 0l.06.09a.22.22 0 00.05.08h.06a3.3 3.3 0 00.43-.19l.09-.08 1.5-6.24 6.38-1.2c-.13.53-.26 1.07-.38 1.61l-2 .34a.25.25 0 000 .5l1.81-.3-1.22 5.15-2.91.62a.24.24 0 00-.19.29.25.25 0 00.24.2H27l2.68-.56-1.24 5.18-2.82.29a.25.25 0 00-.22.27.25.25 0 00.25.23l2.65-.26c-.53 2.21-1 4.18-1.39 5.76l-.9.21c-1.56.35-2.91.65-4.13.83a1.1 1.1 0 01-.94-.17 1.46 1.46 0 01-.08-1.15l2.18-9.07a6.67 6.67 0 00-1-.13L20 91.1a2.39 2.39 0 00.29 2.06 1.91 1.91 0 001.84.51c1.27-.18 2.63-.49 4.21-.85 1.25-.28 2.68-.6 4.32-.92a52.34 52.34 0 016.17-.9l1.84 11.19-7.14-4.41a.48.48 0 00-.6.06 10.52 10.52 0 00-1.18 1.49l-.05.12v.38h.11c.06 0 0 0 0 0h.51a12.93 12.93 0 01.9-1.21l7.46 4.62h.06l.76 4.64-2.23-1.52h-.12a.94.94 0 01-.15.64v.12a.13.13 0 010 .06.71.71 0 000 .14V107.49l2.68 1.84h.12l4.29 26.2a.51.51 0 00.5.42 18.58 18.58 0 005.78-1.31 17.06 17.06 0 005.3-2.83.5.5 0 00.06-.68 6.76 6.76 0 00-4-2.11 14.56 14.56 0 00-4.35.08l-3.48-18.48c1.48.91 4.71 2.87 6.66 4a3.24 3.24 0 001.55.5 1.4 1.4 0 00.79-.22 2.4 2.4 0 00.82-2.1l-.81-4.66-.23-.16-.2-.11h-.13c-.05 0 0 0 0 0h-.06c-.07 0 0 0 0 0s-.05.11-.08.16-.13.21-.19.33l.78 4.58c0 .27 0 .94-.35 1.13s-.72 0-1.32-.3c-2.52-1.44-7.21-4.33-7.41-4.45l-.72-3.55 6.81 4.54a.48.48 0 00.28.08.48.48 0 00.26-.07.5.5 0 00.24-.49l-2.35-18.55c.26.06.52.12.79.2l2.47 14.31a.22.22 0 01.11.17c0 .16 0 .32.08.48a1 1 0 010 .12H52.05l.12-.06.24-.09a2.68 2.68 0 00.12-.3l-2.44-14.33a25.93 25.93 0 018.83 4.83 93.42 93.42 0 019.54 9.27c3.27 3.54 5.85 6.33 9.8 8.44a28.92 28.92 0 008.19 3.09L83.13 126l-14.95 11.4a.48.48 0 00-.17.23c-.07.2-1.71 4.79-1.52 7.65s1.83 4.27 4.22 5.26a10.28 10.28 0 003.54 1 .5.5 0 00.45-.3 6.09 6.09 0 00-.17-4.47 5.7 5.7 0 00-2-2.91v-2.08l13.56-12.09a3.26 3.26 0 001.49-2c.45-1.47 2-6.67 2.7-8.77 4.38 4.51 8.29 8.56 8.37 8.65a.41.41 0 00.36.15.5.5 0 00.35-.14l1.12-1.12.78.49a.48.48 0 00.6-.06l1.37-1.25.78.59a.5.5 0 00.69-.09l1.68-2.09a.5.5 0 00-.06-.69l-2.81-2.44.74-.74a.49.49 0 00.14-.41c.46-.07 1.07-.16 1.82-.29l3.61 10.64a31.67 31.67 0 00-6.77 3.39.5.5 0 00-.17.61 4.17 4.17 0 002.51 2l-7.13 4.18a.31.31 0 000 .08.58.58 0 000 .32c0 .06 0 0 0 0a.36.36 0 010 .09l.06.08a2.55 2.55 0 00.61.08l7.73-4.53.08-.07a5.1 5.1 0 00.57 0 12.76 12.76 0 005.59-1.05l.24.12-16.34 12a.5.5 0 00-.1.7 8.72 8.72 0 011.42 3.88 7.45 7.45 0 01-.48 4c-1-.4-3.67-1.6-4.93-3.55a17.73 17.73 0 01-1.93-6.54l6.15-3.6a.84.84 0 000-.17.29.29 0 000-.09 1.41 1.41 0 000-.35.13.13 0 000-.06v-.12c0-.04 0 0 0 0l-.06-.08h-.13l-6.82 4a.51.51 0 00-.24.48c0 .18.4 4.62 2.12 7.3s5.68 4 5.85 4.11h.15a.5.5 0 00.42-.22 7.68 7.68 0 00.83-5 9.83 9.83 0 00-1.31-3.72l16.34-12 23.35 12.46a4.77 4.77 0 002.31.78 2.35 2.35 0 00.64-.09 2.2 2.2 0 001.42-1.32c1-2.23 11.88-40.53 12.43-42.45 6.24-1.77 12.82-3.19 19-4.33l13.88 26.57a1 1 0 00.23 0h.3a1 1 0 00.21-.15s0-.06 0 0L174.37 101l2.32-.4 7.44 12.66h.36a.36.36 0 01.1-.07v-.26a.49.49 0 010-.12c-2.87-4.87-5.4-9.17-7.13-12.13 9.06-1.51 16.88-2.4 20.95-2.86 1.55-.18 2.57-.29 3.07-.37 3.9-.62 3.77-3.78 3.76-3.78s.55-2.45.95-5.78zM54.46 131.6a19.15 19.15 0 01-4.38 2.19 22.45 22.45 0 01-4.46 1.21 8 8 0 014-2.63c3.11-1.14 4.38-.95 4.84-.77zm-5-22.73l-6.73-4.48-2.64-13.68a23.86 23.86 0 017.11.34z" fill="#3f2b56"/><path d="M215.49 67.38L214 65.23l.75-1.21a.5.5 0 000-.6l-1.59-1.75 1.21-1.67a.49.49 0 000-.6l-1.86-2.42a.47.47 0 00-.34-.19.46.46 0 00-.38.12l-2.11 1.81c.9-7.52 1.85-15.43 2.73-22.82a1 1 0 00-.71.1 2.54 2.54 0 00-.34.23c-.91 7.62-1.88 15.77-2.8 23.46l-.51.45-1-1a.46.46 0 00-.38-.14.47.47 0 00-.36.18l-3.54 4.28a.5.5 0 00-.1.44l1 4-27.2 21.76-17.55-22.31a.5.5 0 00-.7-.08.5.5 0 00-.09.7L176 90.67a.58.58 0 00.34.19.54.54 0 00.37-.11l27.91-22.33a.49.49 0 00.17-.51l-1.05-4 3-3.66.91.91a.5.5 0 00.68 0c0 .11 3.65-3.16 3.65-3.16l1.31 1.7-1.26 1.75a.48.48 0 000 .62l1.61 1.77L213 65a.48.48 0 000 .55l1.4 2L177 96.48a.38.38 0 00-.09.09 1.52 1.52 0 01-.95.55 1.16 1.16 0 01-.86-.55c-1.28-1.64-17.67-26.88-17.84-27.13a.5.5 0 10-.84.54c.68 1 16.59 25.53 17.89 27.2a2.1 2.1 0 001.65.94 2.41 2.41 0 001.7-.89l29.09-22.49c-.47 3.89-.88 7.35-1.22 10.23a1.91 1.91 0 001 .15c.37-3.11.83-6.94 1.34-11.24l7.53-5.82a.49.49 0 00.09-.68zM215.55.93a4 4 0 00-3.07-.93c-3.2 0-11.94 2.52-24 6.91-13.67 5-46.76 28.16-47.05 28.37l-2.22 1.28c-10.31 6-27.58 16.11-43.11 14.7-10.63-1-16.69-5.14-23.12-9.55a64.37 64.37 0 00-11.76-6.88c-7.55-3.17-16.56-2-26.79 3.42-.31.17-.54.29-.68.35a3.05 3.05 0 00-1.82 2.62l-5.32 22.15v.06c.05.08.09.16.15.24l.08.1c-.06 0 0 0 0 0 .17-.11.32-.23.48-.35l.14-.15 3-12.27h.06c.05-.05 5.67-4.4 22.34-3.15 10.26.77 16.11 5.36 21.77 9.8 5.23 4.11 10.17 8 18 8.44h1.49c13.48 0 32.59-9.79 48.06-17.72 3.42-1.75 6.65-3.4 9.68-4.89 18.48-8.88 39.53-15.48 48.63-17.37 7.8-1.59 11.19-1.59 12.25-1.53-.35 2.92-.72 6-1.11 9.27h.06a1.06 1.06 0 00.26.17.45.45 0 00.18 0 1 1 0 00.47-.31h.05l3.49-29.27c.21-1.73.02-2.82-.59-3.51zm-176.63 44a2.71 2.71 0 112.64-2.71 2.68 2.68 0 01-2.64 2.7zm10.14-1.05a3 3 0 113.08-3 3.06 3.06 0 01-3.08 2.99zm13.23-.65a3.22 3.22 0 11-2-4.12 3.24 3.24 0 012 4.11z" fill="#3f2b56"/><path d="M45.06 135l.48-.13v.08z" fill="#5c4376"/><path d="M40.25 40.76l-1.11.85-.77-1.13a.36.36 0 00-.52-.1.37.37 0 00-.1.52l.79 1.17-1.45 1.11a.37.37 0 00.23.67.3.3 0 00.22-.08L39 42.69l.93 1.37a.36.36 0 00.31.16.39.39 0 00.21-.06.37.37 0 00.1-.52l-.95-1.41 1.15-.87a.39.39 0 00.07-.53.38.38 0 00-.57-.07z" fill="#662429"/><path d="M51.1 40.59l-4-.19a.39.39 0 00-.39.36.37.37 0 00.36.39l4 .19a.38.38 0 00.38-.36.38.38 0 00-.35-.39z" fill="#231338"/><path d="M61.15 42.47l-1.33-.41.55-1.73a.37.37 0 10-.71-.22l-.55 1.73-1.87-.58A.37.37 0 1057 42l1.86.58-.53 1.65a.38.38 0 00.25.47h.11a.38.38 0 00.36-.26l.53-1.66 1.33.41a.2.2 0 00.11 0 .37.37 0 00.11-.73z" fill="#3f2b56"/><path d="M48.47 36.89a3.09 3.09 0 00-3.2 3 2.81 2.81 0 00.92 2.07 2.89 2.89 0 01-.19-1.14A3.09 3.09 0 0151.52 39a3.16 3.16 0 00-3.05-2.11z" fill="#231338"/><path d="M36.27 42.21a2.68 2.68 0 012.65-2.7 2.63 2.63 0 012.31 1.4 2.82 2.82 0 00-5.59.36 2.59 2.59 0 00.8 1.85 2.49 2.49 0 01-.17-.91z" fill="#471a20"/></g></svg>