<svg width="824" height="229" fill="none" xmlns="http://www.w3.org/2000/svg"><path fill="#FAF9FB" d="M0 0h824v229H0z"/><path d="M529.536 53.544a.37.37 0 0 1-.272-.112.346.346 0 0 1-.096-.256V38.952c0-.107.032-.192.096-.256a.37.37 0 0 1 .272-.112h2.864a.34.34 0 0 1 .272.112c.064.064.096.15.096.256v.56c0 .117-.032.208-.096.272a.368.368 0 0 1-.272.096h-1.808v12.304h1.808c.117 0 .208.032.272.096a.404.404 0 0 1 .096.272v.624a.346.346 0 0 1-.096.256.34.34 0 0 1-.272.112h-2.864ZM534.823 51c-.118 0-.208-.032-.272-.096a.404.404 0 0 1-.096-.272V40.184c0-.117.032-.208.096-.272a.338.338 0 0 1 .272-.112h4.384c.8 0 1.45.133 1.952.4.512.256.885.608 1.12 1.056.245.448.368.95.368 1.504 0 .437-.075.816-.224 1.136-.139.31-.315.565-.528.768a3.159 3.159 0 0 1-.624.448c.416.203.784.533 1.104.992.33.459.496 1.013.496 1.664 0 .587-.134 1.125-.401 1.616-.266.49-.666.885-1.199 1.184-.523.288-1.174.432-1.952.432h-4.496Zm1.2-1.296h3.088c.693 0 1.226-.187 1.6-.56.373-.373.56-.832.56-1.376 0-.565-.187-1.03-.56-1.392-.374-.373-.907-.56-1.6-.56h-3.088v3.888Zm0-5.168h2.944c.682 0 1.2-.155 1.552-.464.352-.32.528-.752.528-1.296s-.176-.96-.528-1.248c-.352-.288-.87-.432-1.552-.432h-2.944v3.44Zm12.319 6.624c-.811 0-1.488-.155-2.032-.464a3.134 3.134 0 0 1-1.248-1.28c-.288-.555-.448-1.184-.48-1.888-.011-.181-.016-.41-.016-.688 0-.288.005-.517.016-.688.032-.715.192-1.344.48-1.888.299-.544.72-.97 1.264-1.28.544-.31 1.216-.464 2.016-.464s1.472.155 2.016.464c.544.31.96.736 1.248 1.28.299.544.464 1.173.496 1.888.011.17.016.4.016.688 0 .277-.005.507-.016.688-.032.704-.192 1.333-.48 1.888-.288.544-.704.97-1.248 1.28-.544.31-1.221.464-2.032.464Zm0-1.232c.661 0 1.189-.208 1.584-.624.395-.427.608-1.045.64-1.856.011-.16.016-.363.016-.608s-.005-.448-.016-.608c-.032-.81-.245-1.424-.64-1.84-.395-.427-.923-.64-1.584-.64s-1.195.213-1.6.64c-.395.416-.603 1.03-.624 1.84-.011.16-.016.363-.016.608s.005.448.016.608c.021.81.229 1.43.624 1.856.405.416.939.624 1.6.624Zm8.819 1.232c-.586 0-1.093-.101-1.519-.304a3.063 3.063 0 0 1-1.056-.848 4.007 4.007 0 0 1-.608-1.232 6.372 6.372 0 0 1-.224-1.456 7.472 7.472 0 0 1 0-.96c.021-.501.096-.981.224-1.44.138-.459.341-.87.608-1.232a2.837 2.837 0 0 1 1.056-.848c.426-.213.933-.32 1.519-.32.63 0 1.153.112 1.569.336.416.224.757.501 1.024.832v-3.68c0-.107.032-.192.096-.256a.369.369 0 0 1 .272-.112h.768c.106 0 .192.037.256.112.074.064.112.15.112.256v10.624a.373.373 0 0 1-.112.272.347.347 0 0 1-.256.096h-.72c-.118 0-.208-.032-.272-.096a.404.404 0 0 1-.096-.272v-.672a3.35 3.35 0 0 1-1.04.864c-.427.224-.96.336-1.601.336Zm.337-1.296c.533 0 .96-.123 1.28-.368.32-.245.56-.555.72-.928a3.25 3.25 0 0 0 .256-1.168c.01-.17.016-.373.016-.608 0-.245-.006-.453-.016-.624a2.775 2.775 0 0 0-.272-1.104 2.148 2.148 0 0 0-.736-.896c-.32-.235-.736-.352-1.248-.352-.544 0-.976.123-1.296.368-.32.235-.55.55-.688.944-.139.384-.219.8-.24 1.248-.011.31-.011.619 0 .928.021.448.101.87.24 1.264.138.384.368.699.688.944.32.235.752.352 1.296.352Zm7.595 4.176a.308.308 0 0 1-.224-.096.307.307 0 0 1-.096-.224.51.51 0 0 1 .016-.128.844.844 0 0 1 .064-.16l1.232-2.928-3.056-7.216a.859.859 0 0 1-.08-.272.326.326 0 0 1 .336-.336h.784c.107 0 .192.027.256.08a.381.381 0 0 1 .128.192l2.432 5.824 2.496-5.824a.61.61 0 0 1 .128-.192.414.414 0 0 1 .272-.08h.752c.096 0 .176.032.24.096a.307.307 0 0 1 .096.224 1 1 0 0 1-.08.288l-4.544 10.48a.507.507 0 0 1-.144.192c-.053.053-.139.08-.256.08h-.752Zm13.73-3.04c-.598 0-1.083-.112-1.456-.336a2.029 2.029 0 0 1-.816-.976c-.171-.427-.256-.928-.256-1.504V43.96h-1.248a.402.402 0 0 1-.272-.096.404.404 0 0 1-.096-.272v-.544c0-.107.032-.192.096-.256a.369.369 0 0 1 .272-.112h1.248v-2.672c0-.107.032-.192.096-.256a.369.369 0 0 1 .272-.112h.752c.106 0 .192.037.256.112.074.064.112.15.112.256v2.672h1.984c.106 0 .192.037.256.112.074.064.112.15.112.256v.544a.373.373 0 0 1-.112.272.347.347 0 0 1-.256.096h-1.984v4.112c0 .501.085.896.256 1.184.17.288.474.432.912.432h.976c.106 0 .192.037.256.112.074.064.112.15.112.256v.576a.373.373 0 0 1-.112.272.347.347 0 0 1-.256.096h-1.104Zm6.314.16c-1.099 0-1.974-.336-2.624-1.008-.651-.683-1.008-1.61-1.072-2.784a6.942 6.942 0 0 1-.016-.528c0-.224.005-.405.016-.544.042-.757.218-1.419.528-1.984a3.295 3.295 0 0 1 1.264-1.328c.544-.31 1.178-.464 1.904-.464.81 0 1.488.17 2.032.512.554.341.976.827 1.264 1.456.288.63.432 1.365.432 2.208v.272a.34.34 0 0 1-.112.272.347.347 0 0 1-.256.096h-5.536V47.48c.021.437.117.848.288 1.232.17.373.416.677.736.912s.704.352 1.152.352c.384 0 .704-.059.96-.176a2.61 2.61 0 0 0 .624-.384c.16-.15.266-.261.32-.336.096-.139.17-.219.224-.24a.515.515 0 0 1 .256-.048h.768c.106 0 .192.032.256.096.074.053.106.133.096.24-.011.16-.096.357-.256.592-.16.224-.39.448-.688.672-.299.224-.662.41-1.088.56a4.765 4.765 0 0 1-1.472.208Zm-2.176-4.928h4.384v-.048c0-.48-.091-.907-.272-1.28a2.029 2.029 0 0 0-.752-.88c-.331-.224-.726-.336-1.184-.336-.459 0-.854.112-1.184.336-.32.213-.566.507-.736.88-.171.373-.256.8-.256 1.28v.048ZM590.269 51a.36.36 0 0 1-.24-.096.326.326 0 0 1-.096-.24c0-.032.005-.07.016-.112a.942.942 0 0 1 .096-.176l2.784-3.632-2.608-3.44a1.449 1.449 0 0 1-.096-.16.51.51 0 0 1-.016-.128.326.326 0 0 1 .336-.336h.816c.117 0 .202.032.256.096.064.053.117.107.16.16l2.128 2.768 2.128-2.752c.042-.053.09-.112.144-.176.064-.064.154-.096.272-.096h.784a.326.326 0 0 1 .336.336.288.288 0 0 1-.032.128.578.578 0 0 1-.08.16l-2.64 3.472 2.784 3.6a.578.578 0 0 1 .08.16.288.288 0 0 1 .032.128.326.326 0 0 1-.336.336h-.848a.387.387 0 0 1-.256-.08 1.097 1.097 0 0 1-.16-.16l-2.256-2.928-2.256 2.928-.16.16c-.054.053-.139.08-.256.08h-.816Zm12.257 0c-.598 0-1.083-.112-1.456-.336a2.029 2.029 0 0 1-.816-.976c-.171-.427-.256-.928-.256-1.504V43.96h-1.248a.402.402 0 0 1-.272-.096.404.404 0 0 1-.096-.272v-.544c0-.107.032-.192.096-.256a.369.369 0 0 1 .272-.112h1.248v-2.672c0-.107.032-.192.096-.256a.369.369 0 0 1 .272-.112h.752c.106 0 .192.037.256.112.074.064.112.15.112.256v2.672h1.984c.106 0 .192.037.256.112.074.064.112.15.112.256v.544a.373.373 0 0 1-.112.272.347.347 0 0 1-.256.096h-1.984v4.112c0 .501.085.896.256 1.184.17.288.474.432.912.432h.976c.106 0 .192.037.256.112.074.064.112.15.112.256v.576a.373.373 0 0 1-.112.272.347.347 0 0 1-.256.096h-1.104Zm2.368 2.544a.369.369 0 0 1-.272-.112.346.346 0 0 1-.096-.256v-.624c0-.107.032-.197.096-.272a.402.402 0 0 1 .272-.096h1.808V39.88h-1.808a.402.402 0 0 1-.272-.096c-.064-.064-.096-.155-.096-.272v-.56c0-.107.032-.192.096-.256a.369.369 0 0 1 .272-.112h2.88c.106 0 .192.037.256.112.074.064.112.15.112.256v14.224a.322.322 0 0 1-.112.256.321.321 0 0 1-.256.112h-2.88Zm13.332-2.384c-.928 0-1.706-.139-2.336-.416-.629-.288-1.114-.656-1.456-1.104-.33-.459-.506-.944-.528-1.456 0-.085.032-.16.096-.224a.353.353 0 0 1 .256-.112h.816c.128 0 .224.032.288.096a.472.472 0 0 1 .128.224c.054.256.182.512.384.768.214.245.507.453.88.624.384.16.875.24 1.472.24.918 0 1.59-.16 2.016-.48.438-.33.656-.768.656-1.312 0-.373-.117-.672-.352-.896-.224-.235-.57-.443-1.04-.624a21.889 21.889 0 0 0-1.824-.592c-.778-.224-1.424-.47-1.936-.736-.512-.267-.896-.597-1.152-.992-.245-.395-.368-.896-.368-1.504 0-.576.155-1.088.464-1.536.31-.459.752-.821 1.328-1.088.587-.267 1.296-.4 2.128-.4.662 0 1.238.09 1.728.272.502.17.918.405 1.248.704.331.288.582.603.752.944.171.33.262.656.272.976a.38.38 0 0 1-.08.224c-.053.064-.138.096-.256.096h-.848a.544.544 0 0 1-.24-.064.436.436 0 0 1-.176-.24c-.064-.437-.309-.805-.736-1.104-.426-.299-.981-.448-1.664-.448-.693 0-1.258.133-1.696.4-.426.267-.64.683-.64 1.248 0 .363.102.667.304.912.203.235.523.443.96.624.438.181 1.008.373 1.712.576.854.235 1.552.485 2.096.752.544.256.944.581 1.2.976.267.384.4.88.4 1.488 0 .672-.176 1.248-.528 1.728-.352.47-.848.832-1.488 1.088-.629.245-1.376.368-2.24.368Zm9.25 0c-.683 0-1.264-.15-1.744-.448a2.935 2.935 0 0 1-1.072-1.28c-.246-.544-.368-1.168-.368-1.872v-4.512c0-.107.032-.192.096-.256a.369.369 0 0 1 .272-.112h.8c.106 0 .192.037.256.112.074.064.112.15.112.256v4.432c0 1.59.693 2.384 2.08 2.384.661 0 1.189-.208 1.584-.624.405-.427.608-1.013.608-1.76v-4.432c0-.107.032-.192.096-.256a.369.369 0 0 1 .272-.112h.784a.34.34 0 0 1 .272.112c.064.064.096.15.096.256v7.584a.404.404 0 0 1-.096.272.368.368 0 0 1-.272.096h-.736a.402.402 0 0 1-.272-.096.404.404 0 0 1-.096-.272v-.704c-.288.373-.64.672-1.056.896-.406.224-.944.336-1.616.336Zm9.881 0c-.758 0-1.414-.144-1.968-.432a3.131 3.131 0 0 1-1.264-1.264c-.299-.555-.459-1.216-.48-1.984a9.846 9.846 0 0 1-.016-.64c0-.267.005-.48.016-.64.021-.768.181-1.424.48-1.968.298-.555.72-.976 1.264-1.264.554-.299 1.21-.448 1.968-.448.618 0 1.146.085 1.584.256.448.17.816.39 1.104.656.288.267.501.555.64.864.149.31.229.603.24.88a.283.283 0 0 1-.096.256.406.406 0 0 1-.272.096h-.768c-.107 0-.187-.021-.24-.064a.865.865 0 0 1-.16-.256c-.192-.523-.454-.89-.784-1.104-.331-.213-.742-.32-1.232-.32-.64 0-1.163.197-1.568.592-.395.395-.608 1.03-.641 1.904-.01.384-.01.757 0 1.12.033.885.246 1.525.641 1.92.405.384.928.576 1.568.576.49 0 .901-.107 1.232-.32.33-.213.592-.581.784-1.104a.649.649 0 0 1 .16-.24c.053-.053.133-.08.24-.08h.768c.106 0 .197.032.272.096.074.064.106.15.096.256a2.356 2.356 0 0 1-.144.688 2.673 2.673 0 0 1-.416.72 3.082 3.082 0 0 1-.688.64 3.85 3.85 0 0 1-1.008.448c-.384.107-.822.16-1.312.16Zm8.828 0c-.758 0-1.414-.144-1.968-.432a3.131 3.131 0 0 1-1.264-1.264c-.299-.555-.459-1.216-.48-1.984a9.846 9.846 0 0 1-.016-.64c0-.267.005-.48.016-.64.021-.768.181-1.424.48-1.968.298-.555.72-.976 1.264-1.264.554-.299 1.21-.448 1.968-.448.618 0 1.146.085 1.584.256.448.17.816.39 1.104.656.288.267.501.555.64.864.149.31.229.603.24.88a.283.283 0 0 1-.096.256.406.406 0 0 1-.272.096h-.768c-.107 0-.187-.021-.24-.064a.865.865 0 0 1-.16-.256c-.192-.523-.454-.89-.784-1.104-.331-.213-.742-.32-1.232-.32-.64 0-1.163.197-1.568.592-.395.395-.608 1.03-.64 1.904-.011.384-.011.757 0 1.12.032.885.245 1.525.64 1.92.405.384.928.576 1.568.576.49 0 .901-.107 1.232-.32.33-.213.592-.581.784-1.104a.649.649 0 0 1 .16-.24c.053-.053.133-.08.24-.08h.768c.106 0 .197.032.272.096.074.064.106.15.096.256a2.356 2.356 0 0 1-.144.688 2.673 2.673 0 0 1-.416.72 3.082 3.082 0 0 1-.688.64 3.85 3.85 0 0 1-1.008.448c-.384.107-.822.16-1.312.16Zm8.78 0c-1.099 0-1.974-.336-2.624-1.008-.651-.683-1.008-1.61-1.072-2.784a6.942 6.942 0 0 1-.016-.528c0-.224.005-.405.016-.544.042-.757.218-1.419.528-1.984a3.295 3.295 0 0 1 1.264-1.328c.544-.31 1.178-.464 1.904-.464.81 0 1.488.17 2.032.512.554.341.976.827 1.264 1.456.288.63.432 1.365.432 2.208v.272a.34.34 0 0 1-.112.272.347.347 0 0 1-.256.096h-5.536V47.48c.021.437.117.848.288 1.232.17.373.416.677.736.912s.704.352 1.152.352c.384 0 .704-.059.96-.176a2.61 2.61 0 0 0 .624-.384c.16-.15.266-.261.32-.336.096-.139.17-.219.224-.24a.515.515 0 0 1 .256-.048h.768c.106 0 .192.032.256.096.074.053.106.133.096.24-.011.16-.096.357-.256.592-.16.224-.39.448-.688.672-.299.224-.662.41-1.088.56a4.765 4.765 0 0 1-1.472.208Zm-2.176-4.928h4.384v-.048c0-.48-.091-.907-.272-1.28a2.029 2.029 0 0 0-.752-.88c-.331-.224-.726-.336-1.184-.336-.459 0-.854.112-1.184.336-.32.213-.566.507-.736.88-.171.373-.256.8-.256 1.28v.048Zm10.697 4.928c-.597 0-1.109-.075-1.536-.224-.427-.15-.773-.33-1.04-.544a2.801 2.801 0 0 1-.608-.64c-.128-.213-.197-.384-.208-.512a.285.285 0 0 1 .112-.272.426.426 0 0 1 .256-.096h.704c.064 0 .112.01.144.032.043.01.096.053.16.128.139.15.293.299.464.448.171.15.379.272.624.368.256.096.571.144.944.144.544 0 .992-.101 1.344-.304.352-.213.528-.523.528-.928 0-.267-.075-.48-.224-.64-.139-.16-.395-.304-.768-.432a13.053 13.053 0 0 0-1.504-.4c-.64-.15-1.147-.33-1.52-.544-.373-.224-.64-.485-.8-.784a2.23 2.23 0 0 1-.24-1.04c0-.395.117-.773.352-1.136.235-.373.576-.677 1.024-.912.459-.235 1.029-.352 1.712-.352.555 0 1.029.07 1.424.208.395.139.72.315.976.528.256.203.448.405.576.608.128.203.197.373.208.512a.32.32 0 0 1-.096.272.383.383 0 0 1-.256.096h-.672a.365.365 0 0 1-.192-.048 1.198 1.198 0 0 1-.128-.112 3.463 3.463 0 0 0-.384-.416 1.506 1.506 0 0 0-.56-.336c-.224-.096-.523-.144-.896-.144-.533 0-.933.112-1.2.336a1.06 1.06 0 0 0-.4.848c0 .203.059.384.176.544.117.16.341.304.672.432s.821.267 1.472.416c.704.139 1.259.325 1.664.56.405.235.693.507.864.816.171.31.256.667.256 1.072 0 .448-.133.859-.4 1.232-.256.373-.64.672-1.152.896-.501.213-1.125.32-1.872.32Zm8.156 0c-.597 0-1.109-.075-1.536-.224-.427-.15-.773-.33-1.04-.544a2.801 2.801 0 0 1-.608-.64c-.128-.213-.197-.384-.208-.512a.285.285 0 0 1 .112-.272.426.426 0 0 1 .256-.096h.704c.064 0 .112.01.144.032.043.01.096.053.16.128.139.15.293.299.464.448.171.15.379.272.624.368.256.096.571.144.944.144.544 0 .992-.101 1.344-.304.352-.213.528-.523.528-.928 0-.267-.075-.48-.224-.64-.139-.16-.395-.304-.768-.432a13.053 13.053 0 0 0-1.504-.4c-.64-.15-1.147-.33-1.52-.544-.373-.224-.64-.485-.8-.784a2.23 2.23 0 0 1-.24-1.04c0-.395.117-.773.352-1.136.235-.373.576-.677 1.024-.912.459-.235 1.029-.352 1.712-.352.555 0 1.029.07 1.424.208.395.139.72.315.976.528.256.203.448.405.576.608.128.203.197.373.208.512a.32.32 0 0 1-.096.272.383.383 0 0 1-.256.096h-.672a.365.365 0 0 1-.192-.048 1.198 1.198 0 0 1-.128-.112 3.463 3.463 0 0 0-.384-.416 1.506 1.506 0 0 0-.56-.336c-.224-.096-.523-.144-.896-.144-.533 0-.933.112-1.2.336a1.06 1.06 0 0 0-.4.848c0 .203.059.384.176.544.117.16.341.304.672.432s.821.267 1.472.416c.704.139 1.259.325 1.664.56.405.235.693.507.864.816.171.31.256.667.256 1.072 0 .448-.133.859-.4 1.232-.256.373-.64.672-1.152.896-.501.213-1.125.32-1.872.32Zm6.476-.16a.406.406 0 0 1-.272-.096.404.404 0 0 1-.096-.272V43.96h-1.36a.406.406 0 0 1-.272-.096.404.404 0 0 1-.096-.272v-.544c0-.107.032-.192.096-.256a.372.372 0 0 1 .272-.112h1.36v-.8c0-.544.091-1.019.272-1.424.182-.416.47-.736.864-.96.406-.224.944-.336 1.616-.336h.96a.32.32 0 0 1 .256.112c.064.064.096.15.096.256v.544a.404.404 0 0 1-.096.272.345.345 0 0 1-.256.096h-.928c-.501 0-.842.133-1.024.4-.181.256-.272.63-.272 1.12v.72h2.064a.32.32 0 0 1 .256.112c.064.064.096.15.096.256v.544a.404.404 0 0 1-.096.272.345.345 0 0 1-.256.096h-2.064v6.672a.369.369 0 0 1-.112.272.345.345 0 0 1-.256.096h-.752Zm8.061.16c-.683 0-1.264-.15-1.744-.448a2.935 2.935 0 0 1-1.072-1.28c-.246-.544-.368-1.168-.368-1.872v-4.512c0-.107.032-.192.096-.256a.369.369 0 0 1 .272-.112h.8c.106 0 .192.037.256.112.074.064.112.15.112.256v4.432c0 1.59.693 2.384 2.08 2.384.661 0 1.189-.208 1.584-.624.405-.427.608-1.013.608-1.76v-4.432c0-.107.032-.192.096-.256a.369.369 0 0 1 .272-.112h.784a.34.34 0 0 1 .272.112c.064.064.096.15.096.256v7.584a.404.404 0 0 1-.096.272.368.368 0 0 1-.272.096h-.736a.402.402 0 0 1-.272-.096.404.404 0 0 1-.096-.272v-.704c-.288.373-.64.672-1.056.896-.406.224-.944.336-1.616.336Zm6.905-.16a.402.402 0 0 1-.272-.096.404.404 0 0 1-.096-.272V40.008c0-.107.032-.192.096-.256a.369.369 0 0 1 .272-.112h.752a.34.34 0 0 1 .272.112c.064.064.096.15.096.256v10.624a.404.404 0 0 1-.096.272.368.368 0 0 1-.272.096h-.752Zm-161.58 22.16a3.277 3.277 0 0 1-1.456-.32 2.82 2.82 0 0 1-1.056-.864 2.025 2.025 0 0 1-.4-1.232c0-.736.299-1.323.896-1.76.597-.437 1.376-.725 2.336-.864l2.384-.336v-.464c0-.512-.149-.912-.448-1.2-.288-.288-.763-.432-1.424-.432-.48 0-.869.096-1.168.288a1.557 1.557 0 0 0-.608.736c-.064.16-.176.24-.336.24h-.72a.368.368 0 0 1-.272-.096.432.432 0 0 1-.08-.256c0-.16.059-.357.176-.592.128-.235.32-.464.576-.688.256-.224.581-.41.976-.56.405-.16.896-.24 1.472-.24.64 0 1.179.085 1.616.256.437.16.779.379 1.024.656.256.277.437.592.544.944.117.352.176.71.176 1.072v5.184a.369.369 0 0 1-.112.272.345.345 0 0 1-.256.096h-.736a.368.368 0 0 1-.272-.096.404.404 0 0 1-.096-.272v-.688a3.126 3.126 0 0 1-.56.576 3.251 3.251 0 0 1-.88.464c-.352.117-.784.176-1.296.176Zm.336-1.2c.437 0 .837-.09 1.2-.272.363-.192.645-.485.848-.88.213-.395.32-.89.32-1.488v-.448l-1.856.272c-.757.107-1.328.288-1.712.544-.384.245-.576.56-.576.944 0 .299.085.55.256.752.181.192.405.336.672.432.277.096.56.144.848.144Zm9.342 1.04c-.597 0-1.083-.112-1.456-.336a2.04 2.04 0 0 1-.816-.976c-.171-.427-.256-.928-.256-1.504V65.96h-1.248a.404.404 0 0 1-.272-.096.404.404 0 0 1-.096-.272v-.544c0-.107.032-.192.096-.256a.37.37 0 0 1 .272-.112h1.248v-2.672c0-.107.032-.192.096-.256a.37.37 0 0 1 .272-.112h.752a.32.32 0 0 1 .256.112.32.32 0 0 1 .112.256v2.672h1.984a.32.32 0 0 1 .256.112.32.32 0 0 1 .112.256v.544a.369.369 0 0 1-.112.272.345.345 0 0 1-.256.096h-1.984v4.112c0 .501.085.896.256 1.184.171.288.475.432.912.432h.976a.32.32 0 0 1 .256.112.32.32 0 0 1 .112.256v.576a.369.369 0 0 1-.112.272.345.345 0 0 1-.256.096h-1.104Zm6.25 0c-.597 0-1.083-.112-1.456-.336a2.04 2.04 0 0 1-.816-.976c-.171-.427-.256-.928-.256-1.504V65.96h-1.248a.404.404 0 0 1-.272-.096.404.404 0 0 1-.096-.272v-.544c0-.107.032-.192.096-.256a.37.37 0 0 1 .272-.112h1.248v-2.672c0-.107.032-.192.096-.256a.37.37 0 0 1 .272-.112h.752a.32.32 0 0 1 .256.112.32.32 0 0 1 .112.256v2.672h1.984a.32.32 0 0 1 .256.112.32.32 0 0 1 .112.256v.544a.369.369 0 0 1-.112.272.345.345 0 0 1-.256.096h-1.984v4.112c0 .501.085.896.256 1.184.171.288.475.432.912.432h.976a.32.32 0 0 1 .256.112.32.32 0 0 1 .112.256v.576a.369.369 0 0 1-.112.272.345.345 0 0 1-.256.096h-1.104Zm6.314.16c-1.099 0-1.973-.336-2.624-1.008-.651-.683-1.008-1.61-1.072-2.784a6.942 6.942 0 0 1-.016-.528c0-.224.005-.405.016-.544.043-.757.219-1.419.528-1.984a3.301 3.301 0 0 1 1.264-1.328c.544-.31 1.179-.464 1.904-.464.811 0 1.488.17 2.032.512.555.341.976.827 1.264 1.456.288.63.432 1.365.432 2.208v.272a.338.338 0 0 1-.112.272.345.345 0 0 1-.256.096h-5.536V69.48c.021.437.117.848.288 1.232.171.373.416.677.736.912s.704.352 1.152.352c.384 0 .704-.059.96-.176a2.61 2.61 0 0 0 .624-.384c.16-.15.267-.261.32-.336.096-.139.171-.219.224-.24a.517.517 0 0 1 .256-.048h.768c.107 0 .192.032.256.096.075.053.107.133.096.24-.011.16-.096.357-.256.592-.16.224-.389.448-.688.672-.299.224-.661.41-1.088.56a4.76 4.76 0 0 1-1.472.208Zm-2.176-4.928h4.384v-.048c0-.48-.091-.907-.272-1.28a2.022 2.022 0 0 0-.752-.88c-.331-.224-.725-.336-1.184-.336-.459 0-.853.112-1.184.336-.32.213-.565.507-.736.88-.171.373-.256.8-.256 1.28v.048ZM559.755 73a.404.404 0 0 1-.272-.096.404.404 0 0 1-.096-.272v-7.584c0-.107.032-.192.096-.256a.37.37 0 0 1 .272-.112h.72a.32.32 0 0 1 .256.112.32.32 0 0 1 .112.256v.56c.245-.33.555-.592.928-.784.373-.203.821-.304 1.344-.304 1.205-.01 2.059.48 2.56 1.472a2.726 2.726 0 0 1 1.072-1.072c.469-.267 1.003-.4 1.6-.4.555 0 1.056.128 1.504.384.459.256.816.645 1.072 1.168.267.512.4 1.157.4 1.936v4.624a.369.369 0 0 1-.112.272.345.345 0 0 1-.256.096h-.752a.404.404 0 0 1-.272-.096.404.404 0 0 1-.096-.272v-4.48c0-.597-.085-1.067-.256-1.408-.171-.341-.4-.581-.688-.72a2.148 2.148 0 0 0-.944-.208c-.277 0-.56.07-.848.208-.288.139-.528.379-.72.72-.181.341-.272.81-.272 1.408v4.48a.369.369 0 0 1-.112.272.345.345 0 0 1-.256.096h-.752a.404.404 0 0 1-.272-.096.404.404 0 0 1-.096-.272v-4.48c0-.597-.091-1.067-.272-1.408-.181-.341-.416-.581-.704-.72a2.076 2.076 0 0 0-.912-.208c-.277 0-.56.07-.848.208-.288.139-.528.379-.72.72-.181.341-.272.805-.272 1.392v4.496a.369.369 0 0 1-.112.272.345.345 0 0 1-.256.096h-.768Zm14.235 3.04a.37.37 0 0 1-.272-.112.346.346 0 0 1-.096-.256V65.048c0-.107.032-.192.096-.256a.37.37 0 0 1 .272-.112h.736a.32.32 0 0 1 .256.112.32.32 0 0 1 .112.256v.704a3.067 3.067 0 0 1 1.024-.88c.427-.235.96-.352 1.6-.352.597 0 1.104.101 1.52.304.427.203.773.48 1.04.832.277.352.485.752.624 1.2.139.448.213.928.224 1.44.011.17.016.352.016.544 0 .192-.005.373-.016.544a5.346 5.346 0 0 1-.224 1.44 3.688 3.688 0 0 1-.624 1.2 2.993 2.993 0 0 1-1.04.832c-.416.203-.923.304-1.52.304-.619 0-1.141-.112-1.568-.336a3.401 3.401 0 0 1-1.024-.864v3.712a.346.346 0 0 1-.096.256.34.34 0 0 1-.272.112h-.768Zm3.392-4.176c.555 0 .987-.117 1.296-.352.32-.245.549-.56.688-.944.139-.395.219-.816.24-1.264.011-.31.011-.619 0-.928a4.229 4.229 0 0 0-.24-1.248 1.936 1.936 0 0 0-.688-.944c-.309-.245-.741-.368-1.296-.368-.523 0-.949.123-1.28.368-.32.245-.56.56-.72.944a3.606 3.606 0 0 0-.256 1.152c-.011.17-.016.373-.016.608s.005.443.016.624c.011.373.096.741.256 1.104.171.363.421.661.752.896s.747.352 1.248.352ZM586.276 73c-.598 0-1.083-.112-1.456-.336a2.029 2.029 0 0 1-.816-.976c-.171-.427-.256-.928-.256-1.504V65.96H582.5a.402.402 0 0 1-.272-.096.404.404 0 0 1-.096-.272v-.544c0-.107.032-.192.096-.256a.369.369 0 0 1 .272-.112h1.248v-2.672c0-.107.032-.192.096-.256a.369.369 0 0 1 .272-.112h.752c.106 0 .192.037.256.112.074.064.112.15.112.256v2.672h1.984c.106 0 .192.037.256.112.074.064.112.15.112.256v.544a.373.373 0 0 1-.112.272.347.347 0 0 1-.256.096h-1.984v4.112c0 .501.085.896.256 1.184.17.288.474.432.912.432h.976c.106 0 .192.037.256.112.074.064.112.15.112.256v.576a.373.373 0 0 1-.112.272.347.347 0 0 1-.256.096h-1.104Zm5.882.16c-.598 0-1.11-.075-1.536-.224-.427-.15-.774-.33-1.04-.544a2.78 2.78 0 0 1-.608-.64c-.128-.213-.198-.384-.208-.512-.011-.117.026-.208.112-.272a.423.423 0 0 1 .256-.096h.704c.064 0 .112.01.144.032.042.01.096.053.16.128.138.15.293.299.464.448.17.15.378.272.624.368.256.096.57.144.944.144.544 0 .992-.101 1.344-.304.352-.213.528-.523.528-.928 0-.267-.075-.48-.224-.64-.139-.16-.395-.304-.768-.432a13.053 13.053 0 0 0-1.504-.4c-.64-.15-1.147-.33-1.52-.544-.374-.224-.64-.485-.8-.784a2.23 2.23 0 0 1-.24-1.04c0-.395.117-.773.352-1.136.234-.373.576-.677 1.024-.912.458-.235 1.029-.352 1.712-.352.554 0 1.029.07 1.424.208.394.139.72.315.976.528.256.203.448.405.576.608.128.203.197.373.208.512a.325.325 0 0 1-.096.272.383.383 0 0 1-.256.096h-.672a.365.365 0 0 1-.192-.048 1.108 1.108 0 0 1-.128-.112 3.463 3.463 0 0 0-.384-.416 1.514 1.514 0 0 0-.56-.336c-.224-.096-.523-.144-.896-.144-.534 0-.934.112-1.2.336a1.06 1.06 0 0 0-.4.848c0 .203.058.384.176.544.117.16.341.304.672.432.33.128.821.267 1.472.416.704.139 1.258.325 1.664.56.405.235.693.507.864.816.17.31.256.667.256 1.072 0 .448-.134.859-.4 1.232-.256.373-.64.672-1.152.896-.502.213-1.126.32-1.872.32Zm11.518 0a3.277 3.277 0 0 1-1.456-.32 2.82 2.82 0 0 1-1.056-.864 2.025 2.025 0 0 1-.4-1.232c0-.736.299-1.323.896-1.76.597-.437 1.376-.725 2.336-.864l2.384-.336v-.464c0-.512-.149-.912-.448-1.2-.288-.288-.763-.432-1.424-.432-.48 0-.869.096-1.168.288a1.557 1.557 0 0 0-.608.736c-.064.16-.176.24-.336.24h-.72a.368.368 0 0 1-.272-.096.432.432 0 0 1-.08-.256c0-.16.059-.357.176-.592.128-.235.32-.464.576-.688.256-.224.581-.41.976-.56.405-.16.896-.24 1.472-.24.64 0 1.179.085 1.616.256.437.16.779.379 1.024.656.256.277.437.592.544.944.117.352.176.71.176 1.072v5.184a.369.369 0 0 1-.112.272.345.345 0 0 1-.256.096h-.736a.368.368 0 0 1-.272-.096.404.404 0 0 1-.096-.272v-.688a3.126 3.126 0 0 1-.56.576 3.251 3.251 0 0 1-.88.464c-.352.117-.784.176-1.296.176Zm.336-1.2c.437 0 .837-.09 1.2-.272.363-.192.645-.485.848-.88.213-.395.32-.89.32-1.488v-.448l-1.856.272c-.757.107-1.328.288-1.712.544-.384.245-.576.56-.576.944 0 .299.085.55.256.752.181.192.405.336.672.432.277.096.56.144.848.144Zm6.54 1.04a.404.404 0 0 1-.272-.096.404.404 0 0 1-.096-.272v-7.568c0-.107.032-.197.096-.272a.37.37 0 0 1 .272-.112h.736a.37.37 0 0 1 .272.112.369.369 0 0 1 .112.272v.704a2.03 2.03 0 0 1 .88-.816c.373-.181.821-.272 1.344-.272h.64a.32.32 0 0 1 .256.112c.064.064.096.15.096.256v.656a.346.346 0 0 1-.096.256.345.345 0 0 1-.256.096h-.96c-.576 0-1.029.17-1.36.512-.331.33-.496.784-.496 1.36v4.704a.369.369 0 0 1-.112.272.404.404 0 0 1-.272.096h-.784Zm8.835.16c-1.099 0-1.974-.336-2.624-1.008-.651-.683-1.008-1.61-1.072-2.784a6.942 6.942 0 0 1-.016-.528c0-.224.005-.405.016-.544.042-.757.218-1.419.528-1.984a3.295 3.295 0 0 1 1.264-1.328c.544-.31 1.178-.464 1.904-.464.81 0 1.488.17 2.032.512.554.341.976.827 1.264 1.456.288.63.432 1.365.432 2.208v.272a.34.34 0 0 1-.112.272.347.347 0 0 1-.256.096h-5.536V69.48c.021.437.117.848.288 1.232.17.373.416.677.736.912s.704.352 1.152.352c.384 0 .704-.059.96-.176a2.61 2.61 0 0 0 .624-.384c.16-.15.266-.261.32-.336.096-.139.17-.219.224-.24a.515.515 0 0 1 .256-.048h.768c.106 0 .192.032.256.096.074.053.106.133.096.24-.011.16-.096.357-.256.592-.16.224-.39.448-.688.672-.299.224-.662.41-1.088.56a4.765 4.765 0 0 1-1.472.208Zm-2.176-4.928h4.384v-.048c0-.48-.091-.907-.272-1.28a2.029 2.029 0 0 0-.752-.88c-.331-.224-.726-.336-1.184-.336-.459 0-.854.112-1.184.336-.32.213-.566.507-.736.88-.171.373-.256.8-.256 1.28v.048ZM629.318 73a.402.402 0 0 1-.272-.096.404.404 0 0 1-.096-.272v-7.584c0-.107.032-.192.096-.256a.369.369 0 0 1 .272-.112h.72c.106 0 .192.037.256.112.074.064.112.15.112.256v.56c.245-.33.554-.592.928-.784.373-.203.821-.304 1.344-.304 1.205-.01 2.058.48 2.56 1.472a2.72 2.72 0 0 1 1.072-1.072c.469-.267 1.002-.4 1.6-.4.554 0 1.056.128 1.504.384.458.256.816.645 1.072 1.168.266.512.4 1.157.4 1.936v4.624a.373.373 0 0 1-.112.272.347.347 0 0 1-.256.096h-.752a.402.402 0 0 1-.272-.096.404.404 0 0 1-.096-.272v-4.48c0-.597-.086-1.067-.256-1.408-.171-.341-.4-.581-.688-.72a2.148 2.148 0 0 0-.944-.208c-.278 0-.56.07-.848.208-.288.139-.528.379-.72.72-.182.341-.272.81-.272 1.408v4.48a.373.373 0 0 1-.112.272.347.347 0 0 1-.256.096h-.752a.402.402 0 0 1-.272-.096.404.404 0 0 1-.096-.272v-4.48c0-.597-.091-1.067-.272-1.408-.182-.341-.416-.581-.704-.72a2.076 2.076 0 0 0-.912-.208c-.278 0-.56.07-.848.208-.288.139-.528.379-.72.72-.182.341-.272.805-.272 1.392v4.496a.373.373 0 0 1-.112.272.347.347 0 0 1-.256.096h-.768Zm16.17.16a3.28 3.28 0 0 1-1.456-.32 2.82 2.82 0 0 1-1.056-.864 2.032 2.032 0 0 1-.4-1.232c0-.736.299-1.323.896-1.76.598-.437 1.376-.725 2.336-.864l2.384-.336v-.464c0-.512-.149-.912-.448-1.2-.288-.288-.762-.432-1.424-.432-.48 0-.869.096-1.168.288-.288.192-.49.437-.608.736-.064.16-.176.24-.336.24h-.72a.368.368 0 0 1-.272-.096.432.432 0 0 1-.08-.256c0-.16.059-.357.176-.592.128-.235.32-.464.576-.688.256-.224.582-.41.976-.56.406-.16.896-.24 1.472-.24.64 0 1.179.085 1.616.256.438.16.779.379 1.024.656.256.277.438.592.544.944.118.352.176.71.176 1.072v5.184a.369.369 0 0 1-.112.272.345.345 0 0 1-.256.096h-.736a.368.368 0 0 1-.272-.096.404.404 0 0 1-.096-.272v-.688a3.094 3.094 0 0 1-.56.576 3.236 3.236 0 0 1-.88.464c-.352.117-.784.176-1.296.176Zm.336-1.2c.438 0 .838-.09 1.2-.272.363-.192.646-.485.848-.88.214-.395.32-.89.32-1.488v-.448l-1.856.272c-.757.107-1.328.288-1.712.544-.384.245-.576.56-.576.944 0 .299.086.55.256.752.182.192.406.336.672.432.278.096.56.144.848.144Zm9.212 1.2c-.586 0-1.093-.101-1.519-.304a3.063 3.063 0 0 1-1.056-.848 4.007 4.007 0 0 1-.608-1.232 6.372 6.372 0 0 1-.224-1.456 7.472 7.472 0 0 1 0-.96c.021-.501.096-.981.224-1.44.138-.459.341-.87.608-1.232a2.837 2.837 0 0 1 1.056-.848c.426-.213.933-.32 1.519-.32.63 0 1.153.112 1.569.336.416.224.757.501 1.024.832v-3.68c0-.107.032-.192.096-.256a.369.369 0 0 1 .272-.112h.768c.106 0 .192.037.256.112.074.064.112.15.112.256v10.624a.373.373 0 0 1-.112.272.347.347 0 0 1-.256.096h-.72c-.118 0-.208-.032-.272-.096a.404.404 0 0 1-.096-.272v-.672a3.35 3.35 0 0 1-1.04.864c-.427.224-.96.336-1.601.336Zm.337-1.296c.533 0 .96-.123 1.28-.368.32-.245.56-.555.72-.928a3.25 3.25 0 0 0 .256-1.168c.01-.17.016-.373.016-.608 0-.245-.006-.453-.016-.624a2.775 2.775 0 0 0-.272-1.104 2.148 2.148 0 0 0-.736-.896c-.32-.235-.736-.352-1.248-.352-.544 0-.976.123-1.296.368-.32.235-.55.55-.688.944-.139.384-.219.8-.24 1.248-.011.31-.011.619 0 .928.021.448.101.87.24 1.264.138.384.368.699.688.944.32.235.752.352 1.296.352Zm9.451 1.296c-1.099 0-1.973-.336-2.624-1.008-.651-.683-1.008-1.61-1.072-2.784a6.942 6.942 0 0 1-.016-.528c0-.224.005-.405.016-.544.043-.757.219-1.419.528-1.984a3.301 3.301 0 0 1 1.264-1.328c.544-.31 1.179-.464 1.904-.464.811 0 1.488.17 2.032.512.555.341.976.827 1.264 1.456.288.63.432 1.365.432 2.208v.272a.338.338 0 0 1-.112.272.345.345 0 0 1-.256.096h-5.536V69.48c.021.437.117.848.288 1.232.171.373.416.677.736.912s.704.352 1.152.352c.384 0 .704-.059.96-.176a2.61 2.61 0 0 0 .624-.384c.16-.15.267-.261.32-.336.096-.139.171-.219.224-.24a.517.517 0 0 1 .256-.048h.768c.107 0 .192.032.256.096.075.053.107.133.096.24-.011.16-.096.357-.256.592-.16.224-.389.448-.688.672-.299.224-.661.41-1.088.56a4.76 4.76 0 0 1-1.472.208Zm-2.176-4.928h4.384v-.048c0-.48-.091-.907-.272-1.28a2.022 2.022 0 0 0-.752-.88c-.331-.224-.725-.336-1.184-.336-.459 0-.853.112-1.184.336-.32.213-.565.507-.736.88-.171.373-.256.8-.256 1.28v.048ZM677.276 73c-.598 0-1.083-.112-1.456-.336a2.029 2.029 0 0 1-.816-.976c-.171-.427-.256-.928-.256-1.504V65.96H673.5a.402.402 0 0 1-.272-.096.404.404 0 0 1-.096-.272v-.544c0-.107.032-.192.096-.256a.369.369 0 0 1 .272-.112h1.248v-2.672c0-.107.032-.192.096-.256a.369.369 0 0 1 .272-.112h.752c.106 0 .192.037.256.112.074.064.112.15.112.256v2.672h1.984c.106 0 .192.037.256.112.074.064.112.15.112.256v.544a.373.373 0 0 1-.112.272.347.347 0 0 1-.256.096h-1.984v4.112c0 .501.085.896.256 1.184.17.288.474.432.912.432h.976c.106 0 .192.037.256.112.074.064.112.15.112.256v.576a.373.373 0 0 1-.112.272.347.347 0 0 1-.256.096h-1.104Zm6.41.16c-.811 0-1.488-.155-2.032-.464a3.134 3.134 0 0 1-1.248-1.28c-.288-.555-.448-1.184-.48-1.888-.011-.181-.016-.41-.016-.688 0-.288.005-.517.016-.688.032-.715.192-1.344.48-1.888.298-.544.72-.97 1.264-1.28.544-.31 1.216-.464 2.016-.464s1.472.155 2.016.464c.544.31.96.736 1.248 1.28.298.544.464 1.173.496 1.888.01.17.016.4.016.688 0 .277-.006.507-.016.688-.032.704-.192 1.333-.48 1.888-.288.544-.704.97-1.248 1.28-.544.31-1.222.464-2.032.464Zm0-1.232c.661 0 1.189-.208 1.584-.624.394-.427.608-1.045.64-1.856.01-.16.016-.363.016-.608s-.006-.448-.016-.608c-.032-.81-.246-1.424-.64-1.84-.395-.427-.923-.64-1.584-.64-.662 0-1.195.213-1.6.64-.395.416-.603 1.03-.624 1.84-.011.16-.016.363-.016.608s.005.448.016.608c.021.81.229 1.43.624 1.856.405.416.938.624 1.6.624ZM693.771 73a.404.404 0 0 1-.272-.096.404.404 0 0 1-.096-.272V62.008c0-.107.032-.192.096-.256a.37.37 0 0 1 .272-.112h.752a.34.34 0 0 1 .272.112c.064.064.096.15.096.256v10.624a.404.404 0 0 1-.096.272.368.368 0 0 1-.272.096h-.752Zm5.827.16a3.274 3.274 0 0 1-1.456-.32 2.804 2.804 0 0 1-1.056-.864 2.025 2.025 0 0 1-.4-1.232c0-.736.298-1.323.896-1.76.597-.437 1.376-.725 2.336-.864l2.384-.336v-.464c0-.512-.15-.912-.448-1.2-.288-.288-.763-.432-1.424-.432-.48 0-.87.096-1.168.288a1.557 1.557 0 0 0-.608.736c-.064.16-.176.24-.336.24h-.72c-.118 0-.208-.032-.272-.096a.425.425 0 0 1-.08-.256c0-.16.058-.357.176-.592.128-.235.32-.464.576-.688.256-.224.581-.41.976-.56.405-.16.896-.24 1.472-.24.64 0 1.178.085 1.616.256.437.16.778.379 1.024.656.256.277.437.592.544.944.117.352.176.71.176 1.072v5.184a.373.373 0 0 1-.112.272.347.347 0 0 1-.256.096h-.736c-.118 0-.208-.032-.272-.096a.404.404 0 0 1-.096-.272v-.688a3.16 3.16 0 0 1-.56.576 3.251 3.251 0 0 1-.88.464c-.352.117-.784.176-1.296.176Zm.336-1.2c.437 0 .837-.09 1.2-.272.362-.192.645-.485.848-.88.213-.395.32-.89.32-1.488v-.448l-1.856.272c-.758.107-1.328.288-1.712.544-.384.245-.576.56-.576.944 0 .299.085.55.256.752.181.192.405.336.672.432.277.096.56.144.848.144Zm9.276 1.2c-.683 0-1.264-.15-1.744-.448a2.942 2.942 0 0 1-1.072-1.28c-.245-.544-.368-1.168-.368-1.872v-4.512c0-.107.032-.192.096-.256a.37.37 0 0 1 .272-.112h.8a.32.32 0 0 1 .256.112.32.32 0 0 1 .112.256v4.432c0 1.59.693 2.384 2.08 2.384.661 0 1.189-.208 1.584-.624.405-.427.608-1.013.608-1.76v-4.432c0-.107.032-.192.096-.256a.37.37 0 0 1 .272-.112h.784a.34.34 0 0 1 .272.112c.064.064.096.15.096.256v7.584a.404.404 0 0 1-.096.272.368.368 0 0 1-.272.096h-.736a.404.404 0 0 1-.272-.096.404.404 0 0 1-.096-.272v-.704c-.288.373-.64.672-1.056.896-.405.224-.944.336-1.616.336Zm6.889-.16a.404.404 0 0 1-.272-.096.404.404 0 0 1-.096-.272v-7.584c0-.107.032-.192.096-.256a.37.37 0 0 1 .272-.112h.752a.32.32 0 0 1 .256.112.32.32 0 0 1 .112.256v.704a3.198 3.198 0 0 1 1.04-.88c.427-.235.971-.352 1.632-.352.693 0 1.28.155 1.76.464.491.299.859.72 1.104 1.264.245.533.368 1.157.368 1.872v4.512a.404.404 0 0 1-.096.272.345.345 0 0 1-.256.096h-.8a.404.404 0 0 1-.272-.096.404.404 0 0 1-.096-.272V68.2c0-.747-.181-1.328-.544-1.744-.363-.427-.896-.64-1.6-.64-.661 0-1.195.213-1.6.64-.395.416-.592.997-.592 1.744v4.432a.369.369 0 0 1-.112.272.345.345 0 0 1-.256.096h-.8Zm12.695.16c-.757 0-1.413-.144-1.968-.432a3.137 3.137 0 0 1-1.264-1.264c-.299-.555-.459-1.216-.48-1.984a9.846 9.846 0 0 1-.016-.64c0-.267.005-.48.016-.64.021-.768.181-1.424.48-1.968.299-.555.72-.976 1.264-1.264.555-.299 1.211-.448 1.968-.448.619 0 1.147.085 1.584.256.448.17.816.39 1.104.656.288.267.501.555.64.864.149.31.229.603.24.88a.279.279 0 0 1-.096.256.404.404 0 0 1-.272.096h-.768c-.107 0-.187-.021-.24-.064a.886.886 0 0 1-.16-.256c-.192-.523-.453-.89-.784-1.104-.331-.213-.741-.32-1.232-.32-.64 0-1.163.197-1.568.592-.395.395-.608 1.03-.64 1.904-.011.384-.011.757 0 1.12.032.885.245 1.525.64 1.92.405.384.928.576 1.568.576.491 0 .901-.107 1.232-.32.331-.213.592-.581.784-1.104a.66.66 0 0 1 .16-.24c.053-.053.133-.08.24-.08h.768c.107 0 .197.032.272.096.075.064.107.15.096.256a2.356 2.356 0 0 1-.144.688 2.647 2.647 0 0 1-.416.72 3.06 3.06 0 0 1-.688.64 3.82 3.82 0 0 1-1.008.448c-.384.107-.821.16-1.312.16Zm5.852-.16a.404.404 0 0 1-.272-.096.404.404 0 0 1-.096-.272V62.008c0-.107.032-.192.096-.256a.37.37 0 0 1 .272-.112h.8a.34.34 0 0 1 .272.112c.064.064.096.15.096.256v3.728c.288-.363.64-.656 1.056-.88.416-.224.944-.336 1.584-.336.693 0 1.28.155 1.76.464.491.299.859.72 1.104 1.264.256.533.384 1.157.384 1.872v4.512a.404.404 0 0 1-.096.272.368.368 0 0 1-.272.096h-.8a.404.404 0 0 1-.272-.096.404.404 0 0 1-.096-.272V68.2c0-.747-.181-1.328-.544-1.744-.363-.427-.896-.64-1.6-.64-.661 0-1.195.213-1.6.64-.405.416-.608.997-.608 1.744v4.432a.404.404 0 0 1-.096.272.368.368 0 0 1-.272.096h-.8ZM529.568 98.04a.37.37 0 0 1-.272-.112.346.346 0 0 1-.096-.256V87.048c0-.107.032-.192.096-.256a.37.37 0 0 1 .272-.112h.736a.32.32 0 0 1 .256.112.32.32 0 0 1 .112.256v.704a3.067 3.067 0 0 1 1.024-.88c.427-.235.96-.352 1.6-.352.597 0 1.104.101 1.52.304.427.203.773.48 1.04.832.277.352.485.752.624 1.2.139.448.213.928.224 1.44.011.17.016.352.016.544 0 .192-.005.373-.016.544a5.346 5.346 0 0 1-.224 1.44 3.688 3.688 0 0 1-.624 1.2 2.993 2.993 0 0 1-1.04.832c-.416.203-.923.304-1.52.304-.619 0-1.141-.112-1.568-.336a3.401 3.401 0 0 1-1.024-.864v3.712a.346.346 0 0 1-.096.256.34.34 0 0 1-.272.112h-.768Zm3.392-4.176c.555 0 .987-.117 1.296-.352.32-.245.549-.56.688-.944.139-.395.219-.816.24-1.264.011-.31.011-.619 0-.928a4.229 4.229 0 0 0-.24-1.248 1.936 1.936 0 0 0-.688-.944c-.309-.245-.741-.368-1.296-.368-.523 0-.949.123-1.28.368-.32.245-.56.56-.72.944a3.606 3.606 0 0 0-.256 1.152c-.011.17-.016.373-.016.608s.005.443.016.624c.011.373.096.741.256 1.104.171.363.421.661.752.896s.747.352 1.248.352Zm9.067 1.296c-1.098 0-1.973-.336-2.624-1.008-.65-.683-1.008-1.61-1.072-2.784a7.508 7.508 0 0 1-.016-.528c0-.224.006-.405.016-.544.043-.757.219-1.419.528-1.984a3.308 3.308 0 0 1 1.264-1.328c.544-.31 1.179-.464 1.904-.464.811 0 1.488.17 2.032.512.555.341.976.827 1.264 1.456.288.63.432 1.365.432 2.208v.272a.338.338 0 0 1-.112.272.345.345 0 0 1-.256.096h-5.536V91.48c.022.437.118.848.288 1.232.171.373.416.677.736.912s.704.352 1.152.352c.384 0 .704-.059.96-.176a2.61 2.61 0 0 0 .624-.384c.16-.15.267-.261.32-.336.096-.139.171-.219.224-.24a.52.52 0 0 1 .256-.048h.768c.107 0 .192.032.256.096.075.053.107.133.096.24-.01.16-.096.357-.256.592-.16.224-.389.448-.688.672-.298.224-.661.41-1.088.56a4.756 4.756 0 0 1-1.472.208Zm-2.176-4.928h4.384v-.048c0-.48-.09-.907-.272-1.28a2.015 2.015 0 0 0-.752-.88c-.33-.224-.725-.336-1.184-.336-.458 0-.853.112-1.184.336-.32.213-.565.507-.736.88-.17.373-.256.8-.256 1.28v.048Zm11.225 4.928c-.81 0-1.488-.155-2.032-.464a3.134 3.134 0 0 1-1.248-1.28c-.288-.555-.448-1.184-.48-1.888a12.77 12.77 0 0 1-.016-.688c0-.288.006-.517.016-.688.032-.715.192-1.344.48-1.888.299-.544.72-.97 1.264-1.28.544-.31 1.216-.464 2.016-.464s1.472.155 2.016.464c.544.31.96.736 1.248 1.28.299.544.464 1.173.496 1.888.011.17.016.4.016.688 0 .277-.005.507-.016.688-.032.704-.192 1.333-.48 1.888-.288.544-.704.97-1.248 1.28-.544.31-1.221.464-2.032.464Zm0-1.232c.662 0 1.19-.208 1.584-.624.395-.427.608-1.045.64-1.856.011-.16.016-.363.016-.608s-.005-.448-.016-.608c-.032-.81-.245-1.424-.64-1.84-.394-.427-.922-.64-1.584-.64-.661 0-1.194.213-1.6.64-.394.416-.602 1.03-.624 1.84-.01.16-.016.363-.016.608s.006.448.016.608c.022.81.23 1.43.624 1.856.406.416.939.624 1.6.624Zm6.164 4.112a.37.37 0 0 1-.272-.112.346.346 0 0 1-.096-.256V87.048c0-.107.032-.192.096-.256a.37.37 0 0 1 .272-.112h.736a.32.32 0 0 1 .256.112.32.32 0 0 1 .112.256v.704a3.067 3.067 0 0 1 1.024-.88c.427-.235.96-.352 1.6-.352.597 0 1.104.101 1.52.304.427.203.773.48 1.04.832.277.352.485.752.624 1.2.139.448.213.928.224 1.44.011.17.016.352.016.544 0 .192-.005.373-.016.544a5.346 5.346 0 0 1-.224 1.44 3.688 3.688 0 0 1-.624 1.2 2.993 2.993 0 0 1-1.04.832c-.416.203-.923.304-1.52.304-.619 0-1.141-.112-1.568-.336a3.401 3.401 0 0 1-1.024-.864v3.712a.346.346 0 0 1-.096.256.34.34 0 0 1-.272.112h-.768Zm3.392-4.176c.555 0 .987-.117 1.296-.352.32-.245.549-.56.688-.944.139-.395.219-.816.24-1.264.011-.31.011-.619 0-.928a4.229 4.229 0 0 0-.24-1.248 1.936 1.936 0 0 0-.688-.944c-.309-.245-.741-.368-1.296-.368-.523 0-.949.123-1.28.368-.32.245-.56.56-.72.944a3.606 3.606 0 0 0-.256 1.152c-.011.17-.016.373-.016.608s.005.443.016.624c.011.373.096.741.256 1.104.171.363.421.661.752.896s.747.352 1.248.352ZM566.771 95a.404.404 0 0 1-.272-.096.404.404 0 0 1-.096-.272V84.008c0-.107.032-.192.096-.256a.37.37 0 0 1 .272-.112h.752a.34.34 0 0 1 .272.112c.064.064.096.15.096.256v10.624a.404.404 0 0 1-.096.272.368.368 0 0 1-.272.096h-.752Zm6.819.16c-1.099 0-1.974-.336-2.624-1.008-.651-.683-1.008-1.61-1.072-2.784a6.942 6.942 0 0 1-.016-.528c0-.224.005-.405.016-.544.042-.757.218-1.419.528-1.984a3.295 3.295 0 0 1 1.264-1.328c.544-.31 1.178-.464 1.904-.464.81 0 1.488.17 2.032.512.554.341.976.827 1.264 1.456.288.63.432 1.365.432 2.208v.272a.34.34 0 0 1-.112.272.347.347 0 0 1-.256.096h-5.536V91.48c.021.437.117.848.288 1.232.17.373.416.677.736.912s.704.352 1.152.352c.384 0 .704-.059.96-.176a2.61 2.61 0 0 0 .624-.384c.16-.15.266-.261.32-.336.096-.139.17-.219.224-.24a.515.515 0 0 1 .256-.048h.768c.106 0 .192.032.256.096.074.053.106.133.096.24-.011.16-.096.357-.256.592-.16.224-.39.448-.688.672-.299.224-.662.41-1.088.56a4.765 4.765 0 0 1-1.472.208Zm-2.176-4.928h4.384v-.048c0-.48-.091-.907-.272-1.28a2.029 2.029 0 0 0-.752-.88c-.331-.224-.726-.336-1.184-.336-.459 0-.854.112-1.184.336-.32.213-.566.507-.736.88-.171.373-.256.8-.256 1.28v.048ZM583.521 95a.402.402 0 0 1-.272-.096.404.404 0 0 1-.096-.272v-7.584c0-.107.032-.192.096-.256a.369.369 0 0 1 .272-.112h.768c.106 0 .192.037.256.112.064.064.096.15.096.256v7.584a.404.404 0 0 1-.096.272.347.347 0 0 1-.256.096h-.768Zm-.128-9.872a.402.402 0 0 1-.272-.096.404.404 0 0 1-.096-.272v-.864c0-.107.032-.192.096-.256a.369.369 0 0 1 .272-.112h1.008c.106 0 .192.037.256.112.074.064.112.15.112.256v.864a.373.373 0 0 1-.112.272.347.347 0 0 1-.256.096h-1.008ZM587.396 95a.402.402 0 0 1-.272-.096.404.404 0 0 1-.096-.272v-7.584c0-.107.032-.192.096-.256a.369.369 0 0 1 .272-.112h.752c.106 0 .192.037.256.112.074.064.112.15.112.256v.704a3.198 3.198 0 0 1 1.04-.88c.426-.235.97-.352 1.632-.352.693 0 1.28.155 1.76.464.49.299.858.72 1.104 1.264.245.533.368 1.157.368 1.872v4.512a.404.404 0 0 1-.096.272.347.347 0 0 1-.256.096h-.8a.402.402 0 0 1-.272-.096.404.404 0 0 1-.096-.272V90.2c0-.747-.182-1.328-.544-1.744-.363-.427-.896-.64-1.6-.64-.662 0-1.195.213-1.6.64-.395.416-.592.997-.592 1.744v4.432a.373.373 0 0 1-.112.272.347.347 0 0 1-.256.096h-.8Zm15.577.16a3.274 3.274 0 0 1-1.456-.32 2.804 2.804 0 0 1-1.056-.864 2.025 2.025 0 0 1-.4-1.232c0-.736.298-1.323.896-1.76.597-.437 1.376-.725 2.336-.864l2.384-.336v-.464c0-.512-.15-.912-.448-1.2-.288-.288-.763-.432-1.424-.432-.48 0-.87.096-1.168.288a1.557 1.557 0 0 0-.608.736c-.064.16-.176.24-.336.24h-.72c-.118 0-.208-.032-.272-.096a.425.425 0 0 1-.08-.256c0-.16.058-.357.176-.592.128-.235.32-.464.576-.688.256-.224.581-.41.976-.56.405-.16.896-.24 1.472-.24.64 0 1.178.085 1.616.256.437.16.778.379 1.024.656.256.277.437.592.544.944.117.352.176.71.176 1.072v5.184a.373.373 0 0 1-.112.272.347.347 0 0 1-.256.096h-.736c-.118 0-.208-.032-.272-.096a.404.404 0 0 1-.096-.272v-.688a3.16 3.16 0 0 1-.56.576 3.251 3.251 0 0 1-.88.464c-.352.117-.784.176-1.296.176Zm.336-1.2c.437 0 .837-.09 1.2-.272.362-.192.645-.485.848-.88.213-.395.32-.89.32-1.488v-.448l-1.856.272c-.758.107-1.328.288-1.712.544-.384.245-.576.56-.576.944 0 .299.085.55.256.752.181.192.405.336.672.432.277.096.56.144.848.144Zm10.478 4.08a.369.369 0 0 1-.272-.112.346.346 0 0 1-.096-.256V87.048c0-.107.032-.192.096-.256a.369.369 0 0 1 .272-.112h.736c.106 0 .192.037.256.112.074.064.112.15.112.256v.704a3.067 3.067 0 0 1 1.024-.88c.426-.235.96-.352 1.6-.352.597 0 1.104.101 1.52.304.426.203.773.48 1.04.832.277.352.485.752.624 1.2.138.448.213.928.224 1.44a9.29 9.29 0 0 1 0 1.088 5.386 5.386 0 0 1-.224 1.44 3.688 3.688 0 0 1-.624 1.2 3.003 3.003 0 0 1-1.04.832c-.416.203-.923.304-1.52.304-.619 0-1.142-.112-1.568-.336a3.389 3.389 0 0 1-1.024-.864v3.712a.346.346 0 0 1-.096.256.34.34 0 0 1-.272.112h-.768Zm3.392-4.176c.554 0 .986-.117 1.296-.352.32-.245.549-.56.688-.944.138-.395.218-.816.24-1.264.01-.31.01-.619 0-.928a4.294 4.294 0 0 0-.24-1.248 1.936 1.936 0 0 0-.688-.944c-.31-.245-.742-.368-1.296-.368-.523 0-.95.123-1.28.368-.32.245-.56.56-.72.944a3.58 3.58 0 0 0-.256 1.152c-.011.17-.016.373-.016.608s.005.443.016.624c.01.373.096.741.256 1.104.17.363.421.661.752.896.33.235.746.352 1.248.352ZM623.302 95a.404.404 0 0 1-.272-.096.404.404 0 0 1-.096-.272v-7.568c0-.107.032-.197.096-.272a.37.37 0 0 1 .272-.112h.736a.37.37 0 0 1 .272.112.369.369 0 0 1 .112.272v.704a2.03 2.03 0 0 1 .88-.816c.373-.181.821-.272 1.344-.272h.64a.32.32 0 0 1 .256.112c.064.064.096.15.096.256v.656a.346.346 0 0 1-.096.256.345.345 0 0 1-.256.096h-.96c-.576 0-1.029.17-1.36.512-.331.33-.496.784-.496 1.36v4.704a.369.369 0 0 1-.112.272.404.404 0 0 1-.272.096h-.784Zm8.931.16c-.811 0-1.488-.155-2.032-.464a3.134 3.134 0 0 1-1.248-1.28c-.288-.555-.448-1.184-.48-1.888-.011-.181-.016-.41-.016-.688 0-.288.005-.517.016-.688.032-.715.192-1.344.48-1.888.298-.544.72-.97 1.264-1.28.544-.31 1.216-.464 2.016-.464s1.472.155 2.016.464c.544.31.96.736 1.248 1.28.298.544.464 1.173.496 1.888.01.17.016.4.016.688 0 .277-.006.507-.016.688-.032.704-.192 1.333-.48 1.888-.288.544-.704.97-1.248 1.28-.544.31-1.222.464-2.032.464Zm0-1.232c.661 0 1.189-.208 1.584-.624.394-.427.608-1.045.64-1.856.01-.16.016-.363.016-.608s-.006-.448-.016-.608c-.032-.81-.246-1.424-.64-1.84-.395-.427-.923-.64-1.584-.64-.662 0-1.195.213-1.6.64-.395.416-.603 1.03-.624 1.84-.011.16-.016.363-.016.608s.005.448.016.608c.021.81.229 1.43.624 1.856.405.416.938.624 1.6.624Zm4.419 4.112a.32.32 0 0 1-.256-.112.32.32 0 0 1-.112-.256v-.544c0-.107.037-.197.112-.272a.345.345 0 0 1 .256-.096h.224c.384 0 .667-.075.848-.224a.944.944 0 0 0 .352-.56c.064-.235.096-.501.096-.8v-8.128c0-.107.032-.192.096-.256a.37.37 0 0 1 .272-.112h.784a.32.32 0 0 1 .256.112.32.32 0 0 1 .112.256v8.144c0 .565-.091 1.061-.272 1.488a1.98 1.98 0 0 1-.848.992c-.395.245-.933.368-1.616.368h-.304Zm1.76-12.912a.404.404 0 0 1-.272-.096.404.404 0 0 1-.096-.272v-.864c0-.107.032-.192.096-.256a.37.37 0 0 1 .272-.112h1.024a.37.37 0 0 1 .272.112.32.32 0 0 1 .112.256v.864a.369.369 0 0 1-.112.272.404.404 0 0 1-.272.096h-1.024Zm6.975 10.032c-1.099 0-1.974-.336-2.624-1.008-.651-.683-1.008-1.61-1.072-2.784a6.942 6.942 0 0 1-.016-.528c0-.224.005-.405.016-.544.042-.757.218-1.419.528-1.984a3.295 3.295 0 0 1 1.264-1.328c.544-.31 1.178-.464 1.904-.464.81 0 1.488.17 2.032.512.554.341.976.827 1.264 1.456.288.63.432 1.365.432 2.208v.272a.34.34 0 0 1-.112.272.347.347 0 0 1-.256.096h-5.536V91.48c.021.437.117.848.288 1.232.17.373.416.677.736.912s.704.352 1.152.352c.384 0 .704-.059.96-.176a2.61 2.61 0 0 0 .624-.384c.16-.15.266-.261.32-.336.096-.139.17-.219.224-.24a.515.515 0 0 1 .256-.048h.768c.106 0 .192.032.256.096.074.053.106.133.096.24-.011.16-.096.357-.256.592-.16.224-.39.448-.688.672-.299.224-.662.41-1.088.56a4.765 4.765 0 0 1-1.472.208Zm-2.176-4.928h4.384v-.048c0-.48-.091-.907-.272-1.28a2.029 2.029 0 0 0-.752-.88c-.331-.224-.726-.336-1.184-.336-.459 0-.854.112-1.184.336-.32.213-.566.507-.736.88-.171.373-.256.8-.256 1.28v.048Zm11.177 4.928c-.758 0-1.414-.144-1.968-.432a3.131 3.131 0 0 1-1.264-1.264c-.299-.555-.459-1.216-.48-1.984a9.846 9.846 0 0 1-.016-.64c0-.267.005-.48.016-.64.021-.768.181-1.424.48-1.968.298-.555.72-.976 1.264-1.264.554-.299 1.21-.448 1.968-.448.618 0 1.146.085 1.584.256.448.17.816.39 1.104.656.288.267.501.555.64.864.149.31.229.603.24.88a.283.283 0 0 1-.096.256.406.406 0 0 1-.272.096h-.768c-.107 0-.187-.021-.24-.064a.865.865 0 0 1-.16-.256c-.192-.523-.454-.89-.784-1.104-.331-.213-.742-.32-1.232-.32-.64 0-1.163.197-1.568.592-.395.395-.608 1.03-.64 1.904-.011.384-.011.757 0 1.12.032.885.245 1.525.64 1.92.405.384.928.576 1.568.576.49 0 .901-.107 1.232-.32.33-.213.592-.581.784-1.104a.649.649 0 0 1 .16-.24c.053-.053.133-.08.24-.08h.768c.106 0 .197.032.272.096.074.064.106.15.096.256a2.356 2.356 0 0 1-.144.688 2.673 2.673 0 0 1-.416.72 3.082 3.082 0 0 1-.688.64A3.85 3.85 0 0 1 655.7 95c-.384.107-.822.16-1.312.16Zm8.716-.16c-.597 0-1.083-.112-1.456-.336a2.04 2.04 0 0 1-.816-.976c-.171-.427-.256-.928-.256-1.504V87.96h-1.248a.404.404 0 0 1-.272-.096.404.404 0 0 1-.096-.272v-.544c0-.107.032-.192.096-.256a.37.37 0 0 1 .272-.112h1.248v-2.672c0-.107.032-.192.096-.256a.37.37 0 0 1 .272-.112h.752a.32.32 0 0 1 .256.112.32.32 0 0 1 .112.256v2.672h1.984a.32.32 0 0 1 .256.112.32.32 0 0 1 .112.256v.544a.369.369 0 0 1-.112.272.345.345 0 0 1-.256.096h-1.984v4.112c0 .501.085.896.256 1.184.171.288.475.432.912.432h.976a.32.32 0 0 1 .256.112.32.32 0 0 1 .112.256v.576a.369.369 0 0 1-.112.272.345.345 0 0 1-.256.096h-1.104Zm3.37 0a.404.404 0 0 1-.272-.096.404.404 0 0 1-.096-.272v-7.584c0-.107.032-.192.096-.256a.37.37 0 0 1 .272-.112h.768a.32.32 0 0 1 .256.112c.064.064.096.15.096.256v7.584a.404.404 0 0 1-.096.272.345.345 0 0 1-.256.096h-.768Zm-.128-9.872a.404.404 0 0 1-.272-.096.404.404 0 0 1-.096-.272v-.864c0-.107.032-.192.096-.256a.37.37 0 0 1 .272-.112h1.008a.32.32 0 0 1 .256.112.32.32 0 0 1 .112.256v.864a.369.369 0 0 1-.112.272.345.345 0 0 1-.256.096h-1.008ZM670.365 95a.404.404 0 0 1-.272-.096.404.404 0 0 1-.096-.272V84.008c0-.107.032-.192.096-.256a.37.37 0 0 1 .272-.112h.752a.34.34 0 0 1 .272.112c.064.064.096.15.096.256v10.624a.404.404 0 0 1-.096.272.368.368 0 0 1-.272.096h-.752Zm6.819.16c-1.099 0-1.974-.336-2.624-1.008-.651-.683-1.008-1.61-1.072-2.784a6.942 6.942 0 0 1-.016-.528c0-.224.005-.405.016-.544.042-.757.218-1.419.528-1.984a3.295 3.295 0 0 1 1.264-1.328c.544-.31 1.178-.464 1.904-.464.81 0 1.488.17 2.032.512.554.341.976.827 1.264 1.456.288.63.431 1.365.431 2.208v.272a.34.34 0 0 1-.111.272.347.347 0 0 1-.256.096h-5.536V91.48c.021.437.117.848.288 1.232.17.373.416.677.736.912s.704.352 1.152.352c.384 0 .704-.059.96-.176a2.61 2.61 0 0 0 .624-.384c.16-.15.266-.261.32-.336.096-.139.17-.219.224-.24a.515.515 0 0 1 .256-.048h.768c.106 0 .192.032.256.096.074.053.106.133.096.24-.011.16-.096.357-.256.592-.16.224-.39.448-.688.672-.299.224-.662.41-1.088.56a4.765 4.765 0 0 1-1.472.208Zm-2.176-4.928h4.384v-.048c0-.48-.091-.907-.272-1.28a2.029 2.029 0 0 0-.752-.88c-.331-.224-.726-.336-1.184-.336-.459 0-.854.112-1.184.336-.32.213-.566.507-.736.88-.171.373-.256.8-.256 1.28v.048ZM688.58 95c-.139 0-.246-.032-.32-.096a.92.92 0 0 1-.192-.304l-2.272-7.424a.415.415 0 0 1-.032-.16c0-.096.032-.176.096-.24a.36.36 0 0 1 .24-.096h.704c.117 0 .208.032.272.096a.568.568 0 0 1 .128.176l1.776 6.032 1.904-5.968a.599.599 0 0 1 .128-.224c.074-.075.181-.112.32-.112h.544c.138 0 .245.037.32.112.074.075.117.15.128.224l1.903 5.968 1.777-6.032a.365.365 0 0 1 .112-.176c.064-.064.154-.096.272-.096h.704a.326.326 0 0 1 .336.336.435.435 0 0 1-.032.16l-2.272 7.424a.58.58 0 0 1-.176.304c-.075.064-.187.096-.336.096h-.624a.623.623 0 0 1-.353-.096.578.578 0 0 1-.175-.304l-1.856-5.728-1.856 5.728a.684.684 0 0 1-.192.304.577.577 0 0 1-.352.096h-.624Zm10.988 0a.402.402 0 0 1-.272-.096.404.404 0 0 1-.096-.272v-7.584c0-.107.032-.192.096-.256a.369.369 0 0 1 .272-.112h.768c.106 0 .192.037.256.112.064.064.096.15.096.256v7.584a.404.404 0 0 1-.096.272.347.347 0 0 1-.256.096h-.768Zm-.128-9.872a.402.402 0 0 1-.272-.096.404.404 0 0 1-.096-.272v-.864c0-.107.032-.192.096-.256a.369.369 0 0 1 .272-.112h1.008c.106 0 .192.037.256.112.074.064.112.15.112.256v.864a.373.373 0 0 1-.112.272.347.347 0 0 1-.256.096h-1.008ZM706.323 95c-.598 0-1.083-.112-1.456-.336a2.029 2.029 0 0 1-.816-.976c-.171-.427-.256-.928-.256-1.504V87.96h-1.248a.402.402 0 0 1-.272-.096.404.404 0 0 1-.096-.272v-.544c0-.107.032-.192.096-.256a.369.369 0 0 1 .272-.112h1.248v-2.672c0-.107.032-.192.096-.256a.369.369 0 0 1 .272-.112h.752c.106 0 .192.037.256.112.074.064.112.15.112.256v2.672h1.984c.106 0 .192.037.256.112.074.064.112.15.112.256v.544a.373.373 0 0 1-.112.272.347.347 0 0 1-.256.096h-1.984v4.112c0 .501.085.896.256 1.184.17.288.474.432.912.432h.976c.106 0 .192.037.256.112.074.064.112.15.112.256v.576a.373.373 0 0 1-.112.272.347.347 0 0 1-.256.096h-1.104Zm3.386 0a.402.402 0 0 1-.272-.096.404.404 0 0 1-.096-.272V84.008c0-.107.032-.192.096-.256a.369.369 0 0 1 .272-.112h.8a.34.34 0 0 1 .272.112c.064.064.096.15.096.256v3.728c.288-.363.64-.656 1.056-.88.416-.224.944-.336 1.584-.336.693 0 1.28.155 1.76.464.49.299.858.72 1.104 1.264.256.533.384 1.157.384 1.872v4.512a.404.404 0 0 1-.096.272.368.368 0 0 1-.272.096h-.8a.402.402 0 0 1-.272-.096.404.404 0 0 1-.096-.272V90.2c0-.747-.182-1.328-.544-1.744-.363-.427-.896-.64-1.6-.64-.662 0-1.195.213-1.6.64-.406.416-.608.997-.608 1.744v4.432a.404.404 0 0 1-.096.272.368.368 0 0 1-.272.096h-.8Zm16.176 0c-.597 0-1.083-.112-1.456-.336a2.04 2.04 0 0 1-.816-.976c-.171-.427-.256-.928-.256-1.504V87.96h-1.248a.404.404 0 0 1-.272-.096.404.404 0 0 1-.096-.272v-.544c0-.107.032-.192.096-.256a.37.37 0 0 1 .272-.112h1.248v-2.672c0-.107.032-.192.096-.256a.37.37 0 0 1 .272-.112h.752a.32.32 0 0 1 .256.112.32.32 0 0 1 .112.256v2.672h1.984a.32.32 0 0 1 .256.112.32.32 0 0 1 .112.256v.544a.369.369 0 0 1-.112.272.345.345 0 0 1-.256.096h-1.984v4.112c0 .501.085.896.256 1.184.171.288.475.432.912.432h.976a.32.32 0 0 1 .256.112.32.32 0 0 1 .112.256v.576a.369.369 0 0 1-.112.272.345.345 0 0 1-.256.096h-1.104Zm3.386 0a.404.404 0 0 1-.272-.096.404.404 0 0 1-.096-.272V84.008c0-.107.032-.192.096-.256a.37.37 0 0 1 .272-.112h.8a.34.34 0 0 1 .272.112c.064.064.096.15.096.256v3.728c.288-.363.64-.656 1.056-.88.416-.224.944-.336 1.584-.336.693 0 1.28.155 1.76.464.491.299.859.72 1.104 1.264.256.533.384 1.157.384 1.872v4.512a.404.404 0 0 1-.096.272.368.368 0 0 1-.272.096h-.8a.404.404 0 0 1-.272-.096.404.404 0 0 1-.096-.272V90.2c0-.747-.181-1.328-.544-1.744-.363-.427-.896-.64-1.6-.64-.661 0-1.195.213-1.6.64-.405.416-.608.997-.608 1.744v4.432a.404.404 0 0 1-.096.272.368.368 0 0 1-.272.096h-.8Zm12.678.16c-1.099 0-1.973-.336-2.624-1.008-.651-.683-1.008-1.61-1.072-2.784a6.942 6.942 0 0 1-.016-.528c0-.224.005-.405.016-.544.043-.757.219-1.419.528-1.984a3.301 3.301 0 0 1 1.264-1.328c.544-.31 1.179-.464 1.904-.464.811 0 1.488.17 2.032.512.555.341.976.827 1.264 1.456.288.63.432 1.365.432 2.208v.272a.338.338 0 0 1-.112.272.345.345 0 0 1-.256.096h-5.536V91.48c.021.437.117.848.288 1.232.171.373.416.677.736.912s.704.352 1.152.352c.384 0 .704-.059.96-.176a2.61 2.61 0 0 0 .624-.384c.16-.15.267-.261.32-.336.096-.139.171-.219.224-.24a.517.517 0 0 1 .256-.048h.768c.107 0 .192.032.256.096.075.053.107.133.096.24-.011.16-.096.357-.256.592-.16.224-.389.448-.688.672-.299.224-.661.41-1.088.56a4.76 4.76 0 0 1-1.472.208Zm-2.176-4.928h4.384v-.048c0-.48-.091-.907-.272-1.28a2.022 2.022 0 0 0-.752-.88c-.331-.224-.725-.336-1.184-.336-.459 0-.853.112-1.184.336-.32.213-.565.507-.736.88-.171.373-.256.8-.256 1.28v.048ZM532.592 120.52c-.725 0-1.323-.096-1.792-.288-.459-.192-.821-.427-1.088-.704a2.73 2.73 0 0 1-.56-.816c-.107-.267-.165-.48-.176-.64a.32.32 0 0 1 .096-.272.405.405 0 0 1 .272-.112h.768a.42.42 0 0 1 .24.064c.064.043.117.133.16.272.064.16.16.336.288.528.128.203.325.373.592.512.267.149.64.224 1.12.224.501 0 .923-.069 1.264-.208.341-.128.597-.363.768-.704.181-.331.272-.789.272-1.376v-1.088a3.12 3.12 0 0 1-1.008.832c-.416.213-.939.32-1.568.32-.597 0-1.109-.101-1.536-.304a3.06 3.06 0 0 1-1.056-.848 4.029 4.029 0 0 1-.608-1.232 6.33 6.33 0 0 1-.224-1.44 11.736 11.736 0 0 1 0-.88 6.33 6.33 0 0 1 .224-1.44c.139-.459.341-.869.608-1.232a2.837 2.837 0 0 1 1.056-.848c.427-.213.939-.32 1.536-.32.64 0 1.168.123 1.584.368.427.235.773.523 1.04.864v-.688c0-.107.032-.197.096-.272a.369.369 0 0 1 .272-.112h.736c.107 0 .197.037.272.112a.369.369 0 0 1 .112.272v7.76c0 .715-.123 1.349-.368 1.904-.235.555-.629.992-1.184 1.312-.544.32-1.28.48-2.208.48Zm-.032-4.736c.533 0 .96-.123 1.28-.368a2.11 2.11 0 0 0 .72-.928c.16-.373.245-.752.256-1.136a7.61 7.61 0 0 0 .016-.544c0-.224-.005-.411-.016-.56a3.086 3.086 0 0 0-.256-1.136 2.11 2.11 0 0 0-.72-.928c-.32-.245-.747-.368-1.28-.368s-.96.123-1.28.368c-.32.235-.549.549-.688.944-.139.384-.219.8-.24 1.248-.011.277-.011.56 0 .848.021.448.101.869.24 1.264.139.384.368.699.688.944.32.235.747.352 1.28.352Zm9.579 1.376c-.811 0-1.488-.155-2.032-.464a3.132 3.132 0 0 1-1.248-1.28c-.288-.555-.448-1.184-.48-1.888a11.806 11.806 0 0 1-.016-.688c0-.288.005-.517.016-.688.032-.715.192-1.344.48-1.888.299-.544.72-.971 1.264-1.28.544-.309 1.216-.464 2.016-.464s1.472.155 2.016.464c.544.309.96.736 1.248 1.28.299.544.464 1.173.496 1.888.011.171.016.4.016.688 0 .277-.005.507-.016.688-.032.704-.192 1.333-.48 1.888a3.132 3.132 0 0 1-1.248 1.28c-.544.309-1.221.464-2.032.464Zm0-1.232c.661 0 1.189-.208 1.584-.624.395-.427.608-1.045.64-1.856a9.22 9.22 0 0 0 .016-.608 9.22 9.22 0 0 0-.016-.608c-.032-.811-.245-1.424-.64-1.84-.395-.427-.923-.64-1.584-.64s-1.195.213-1.6.64c-.395.416-.603 1.029-.624 1.84a9.22 9.22 0 0 0-.016.608c0 .245.005.448.016.608.021.811.229 1.429.624 1.856.405.416.939.624 1.6.624Zm8.099 1.232a3.284 3.284 0 0 1-1.456-.32 2.814 2.814 0 0 1-1.056-.864 2.032 2.032 0 0 1-.4-1.232c0-.736.299-1.323.896-1.76.598-.437 1.376-.725 2.336-.864l2.384-.336v-.464c0-.512-.149-.912-.448-1.2-.288-.288-.762-.432-1.424-.432-.48 0-.869.096-1.168.288-.288.192-.49.437-.608.736-.064.16-.176.24-.336.24h-.72a.368.368 0 0 1-.272-.096.432.432 0 0 1-.08-.256c0-.16.059-.357.176-.592.128-.235.32-.464.576-.688.256-.224.582-.411.976-.56.406-.16.896-.24 1.472-.24.64 0 1.179.085 1.616.256.438.16.779.379 1.024.656.256.277.438.592.544.944.118.352.176.709.176 1.072v5.184a.369.369 0 0 1-.112.272.345.345 0 0 1-.256.096h-.736a.368.368 0 0 1-.272-.096.404.404 0 0 1-.096-.272v-.688a3.094 3.094 0 0 1-.56.576 3.244 3.244 0 0 1-.88.464c-.352.117-.784.176-1.296.176Zm.336-1.2c.438 0 .838-.091 1.2-.272.363-.192.646-.485.848-.88.214-.395.32-.891.32-1.488v-.448l-1.856.272c-.757.107-1.328.288-1.712.544-.384.245-.576.56-.576.944 0 .299.086.549.256.752.182.192.406.336.672.432.278.096.56.144.848.144Zm6.557 1.04a.402.402 0 0 1-.272-.096.404.404 0 0 1-.096-.272v-10.624c0-.107.032-.192.096-.256a.367.367 0 0 1 .272-.112h.752c.117 0 .208.037.272.112a.345.345 0 0 1 .096.256v10.624a.404.404 0 0 1-.096.272.368.368 0 0 1-.272.096h-.752Zm10.836.16c-.811 0-1.488-.155-2.032-.464a3.132 3.132 0 0 1-1.248-1.28c-.288-.555-.448-1.184-.48-1.888a11.806 11.806 0 0 1-.016-.688c0-.288.005-.517.016-.688.032-.715.192-1.344.48-1.888.299-.544.72-.971 1.264-1.28.544-.309 1.216-.464 2.016-.464s1.472.155 2.016.464c.544.309.96.736 1.248 1.28.299.544.464 1.173.496 1.888.011.171.016.4.016.688 0 .277-.005.507-.016.688-.032.704-.192 1.333-.48 1.888a3.132 3.132 0 0 1-1.248 1.28c-.544.309-1.221.464-2.032.464Zm0-1.232c.661 0 1.189-.208 1.584-.624.395-.427.608-1.045.64-1.856a9.22 9.22 0 0 0 .016-.608 9.22 9.22 0 0 0-.016-.608c-.032-.811-.245-1.424-.64-1.84-.395-.427-.923-.64-1.584-.64s-1.195.213-1.6.64c-.395.416-.603 1.029-.624 1.84a9.22 9.22 0 0 0-.016.608c0 .245.005.448.016.608.021.811.229 1.429.624 1.856.405.416.939.624 1.6.624Zm6.87 1.072a.404.404 0 0 1-.272-.096.404.404 0 0 1-.096-.272v-6.672h-1.36a.404.404 0 0 1-.272-.096.404.404 0 0 1-.096-.272v-.544c0-.107.032-.192.096-.256a.369.369 0 0 1 .272-.112h1.36v-.8c0-.544.091-1.019.272-1.424.181-.416.469-.736.864-.96.405-.224.944-.336 1.616-.336h.96c.107 0 .192.037.256.112a.345.345 0 0 1 .096.256v.544a.404.404 0 0 1-.096.272.345.345 0 0 1-.256.096h-.928c-.501 0-.843.133-1.024.4-.181.256-.272.629-.272 1.12v.72h2.064c.107 0 .192.037.256.112a.345.345 0 0 1 .096.256v.544a.404.404 0 0 1-.096.272.345.345 0 0 1-.256.096h-2.064v6.672a.369.369 0 0 1-.112.272.345.345 0 0 1-.256.096h-.752Zm10.823.16a3.284 3.284 0 0 1-1.456-.32 2.814 2.814 0 0 1-1.056-.864 2.032 2.032 0 0 1-.4-1.232c0-.736.299-1.323.896-1.76.598-.437 1.376-.725 2.336-.864l2.384-.336v-.464c0-.512-.149-.912-.448-1.2-.288-.288-.762-.432-1.424-.432-.48 0-.869.096-1.168.288-.288.192-.49.437-.608.736-.064.16-.176.24-.336.24h-.72a.368.368 0 0 1-.272-.096.432.432 0 0 1-.08-.256c0-.16.059-.357.176-.592.128-.235.32-.464.576-.688.256-.224.582-.411.976-.56.406-.16.896-.24 1.472-.24.64 0 1.179.085 1.616.256.438.16.779.379 1.024.656.256.277.438.592.544.944.118.352.176.709.176 1.072v5.184a.369.369 0 0 1-.112.272.345.345 0 0 1-.256.096h-.736a.368.368 0 0 1-.272-.096.404.404 0 0 1-.096-.272v-.688a3.094 3.094 0 0 1-.56.576 3.244 3.244 0 0 1-.88.464c-.352.117-.784.176-1.296.176Zm.336-1.2c.438 0 .838-.091 1.2-.272.363-.192.646-.485.848-.88.214-.395.32-.891.32-1.488v-.448l-1.856.272c-.757.107-1.328.288-1.712.544-.384.245-.576.56-.576.944 0 .299.086.549.256.752.182.192.406.336.672.432.278.096.56.144.848.144Zm10.67 1.04a.406.406 0 0 1-.272-.096.404.404 0 0 1-.096-.272v-10.448c0-.117.032-.208.096-.272a.37.37 0 0 1 .272-.112h.8c.128 0 .224.032.288.096a.388.388 0 0 1 .112.16l3.392 6.464 3.408-6.464a.938.938 0 0 1 .112-.16c.064-.064.16-.096.288-.096h.784c.118 0 .208.037.272.112a.338.338 0 0 1 .112.272v10.448a.369.369 0 0 1-.112.272c-.064.064-.154.096-.272.096h-.784a.406.406 0 0 1-.272-.096.404.404 0 0 1-.096-.272v-7.872l-2.672 5.216a.57.57 0 0 1-.192.256.596.596 0 0 1-.32.08h-.496a.633.633 0 0 1-.336-.08.822.822 0 0 1-.192-.256l-2.672-5.216v7.872a.369.369 0 0 1-.112.272.345.345 0 0 1-.256.096h-.784Zm15.535.16c-.81 0-1.488-.155-2.032-.464a3.132 3.132 0 0 1-1.248-1.28c-.288-.555-.448-1.184-.48-1.888a12.77 12.77 0 0 1-.016-.688c0-.288.006-.517.016-.688.032-.715.192-1.344.48-1.888.299-.544.72-.971 1.264-1.28.544-.309 1.216-.464 2.016-.464s1.472.155 2.016.464c.544.309.96.736 1.248 1.28.299.544.464 1.173.496 1.888.011.171.016.4.016.688 0 .277-.005.507-.016.688-.032.704-.192 1.333-.48 1.888a3.132 3.132 0 0 1-1.248 1.28c-.544.309-1.221.464-2.032.464Zm0-1.232c.662 0 1.19-.208 1.584-.624.395-.427.608-1.045.64-1.856a9.22 9.22 0 0 0 .016-.608 9.22 9.22 0 0 0-.016-.608c-.032-.811-.245-1.424-.64-1.84-.394-.427-.922-.64-1.584-.64-.661 0-1.194.213-1.6.64-.394.416-.602 1.029-.624 1.84-.01.16-.016.363-.016.608s.006.448.016.608c.022.811.23 1.429.624 1.856.406.416.939.624 1.6.624Zm9.188 1.232c-.811 0-1.488-.155-2.032-.464a3.132 3.132 0 0 1-1.248-1.28c-.288-.555-.448-1.184-.48-1.888a11.806 11.806 0 0 1-.016-.688c0-.288.005-.517.016-.688.032-.715.192-1.344.48-1.888.299-.544.72-.971 1.264-1.28.544-.309 1.216-.464 2.016-.464s1.472.155 2.016.464c.544.309.96.736 1.248 1.28.299.544.464 1.173.496 1.888.011.171.016.4.016.688 0 .277-.005.507-.016.688-.032.704-.192 1.333-.48 1.888a3.132 3.132 0 0 1-1.248 1.28c-.544.309-1.221.464-2.032.464Zm0-1.232c.661 0 1.189-.208 1.584-.624.395-.427.608-1.045.64-1.856a9.22 9.22 0 0 0 .016-.608 9.22 9.22 0 0 0-.016-.608c-.032-.811-.245-1.424-.64-1.84-.395-.427-.923-.64-1.584-.64s-1.195.213-1.6.64c-.395.416-.603 1.029-.624 1.84a9.22 9.22 0 0 0-.016.608c0 .245.005.448.016.608.021.811.229 1.429.624 1.856.405.416.939.624 1.6.624Zm6.147 1.072a.406.406 0 0 1-.272-.096.404.404 0 0 1-.096-.272v-7.584c0-.107.032-.192.096-.256a.37.37 0 0 1 .272-.112h.752c.107 0 .192.037.256.112a.319.319 0 0 1 .112.256v.704a3.205 3.205 0 0 1 1.04-.88c.427-.235.971-.352 1.632-.352.694 0 1.28.155 1.76.464.491.299.859.72 1.104 1.264.246.533.368 1.157.368 1.872v4.512a.404.404 0 0 1-.096.272.345.345 0 0 1-.256.096h-.8a.406.406 0 0 1-.272-.096.404.404 0 0 1-.096-.272V112.2c0-.747-.181-1.328-.544-1.744-.362-.427-.896-.64-1.6-.64-.661 0-1.194.213-1.6.64-.394.416-.592.997-.592 1.744v4.432a.369.369 0 0 1-.112.272.345.345 0 0 1-.256.096h-.8Zm13.641 0a.406.406 0 0 1-.272-.096.404.404 0 0 1-.096-.272v-10.624c0-.107.032-.192.096-.256a.37.37 0 0 1 .272-.112h.752c.118 0 .208.037.272.112a.345.345 0 0 1 .096.256v10.624a.404.404 0 0 1-.096.272c-.064.064-.154.096-.272.096h-.752Zm5.827.16a3.28 3.28 0 0 1-1.456-.32 2.814 2.814 0 0 1-1.056-.864 2.025 2.025 0 0 1-.4-1.232c0-.736.299-1.323.896-1.76.597-.437 1.376-.725 2.336-.864l2.384-.336v-.464c0-.512-.149-.912-.448-1.2-.288-.288-.763-.432-1.424-.432-.48 0-.869.096-1.168.288a1.556 1.556 0 0 0-.608.736c-.064.16-.176.24-.336.24h-.72a.368.368 0 0 1-.272-.096.432.432 0 0 1-.08-.256c0-.16.059-.357.176-.592.128-.235.32-.464.576-.688a3.16 3.16 0 0 1 .976-.56c.405-.16.896-.24 1.472-.24.64 0 1.179.085 1.616.256.437.16.779.379 1.024.656.256.277.437.592.544.944.117.352.176.709.176 1.072v5.184a.369.369 0 0 1-.112.272.345.345 0 0 1-.256.096h-.736a.368.368 0 0 1-.272-.096.404.404 0 0 1-.096-.272v-.688a3.126 3.126 0 0 1-.56.576 3.26 3.26 0 0 1-.88.464c-.352.117-.784.176-1.296.176Zm.336-1.2c.437 0 .837-.091 1.2-.272.363-.192.645-.485.848-.88.213-.395.32-.891.32-1.488v-.448l-1.856.272c-.757.107-1.328.288-1.712.544-.384.245-.576.56-.576.944 0 .299.085.549.256.752.181.192.405.336.672.432.277.096.56.144.848.144Zm6.54 1.04a.404.404 0 0 1-.272-.096.404.404 0 0 1-.096-.272v-7.584c0-.107.032-.192.096-.256a.369.369 0 0 1 .272-.112h.752c.107 0 .192.037.256.112a.319.319 0 0 1 .112.256v.704a3.195 3.195 0 0 1 1.04-.88c.427-.235.971-.352 1.632-.352.693 0 1.28.155 1.76.464.491.299.859.72 1.104 1.264.245.533.368 1.157.368 1.872v4.512a.404.404 0 0 1-.096.272.345.345 0 0 1-.256.096h-.8a.404.404 0 0 1-.272-.096.404.404 0 0 1-.096-.272V112.2c0-.747-.181-1.328-.544-1.744-.363-.427-.896-.64-1.6-.64-.661 0-1.195.213-1.6.64-.395.416-.592.997-.592 1.744v4.432a.369.369 0 0 1-.112.272.345.345 0 0 1-.256.096h-.8Zm12.375.16c-.586 0-1.093-.101-1.52-.304a3.078 3.078 0 0 1-1.056-.848 4.052 4.052 0 0 1-.608-1.232 6.43 6.43 0 0 1-.224-1.456 8.293 8.293 0 0 1-.016-.48c0-.149.006-.309.016-.48.022-.501.096-.981.224-1.44.139-.459.342-.869.608-1.232.278-.363.63-.645 1.056-.848.427-.213.934-.32 1.52-.32.63 0 1.152.112 1.568.336.416.224.758.501 1.024.832v-3.68c0-.107.032-.192.096-.256a.37.37 0 0 1 .272-.112h.768c.107 0 .192.037.256.112a.319.319 0 0 1 .112.256v10.624a.369.369 0 0 1-.112.272.345.345 0 0 1-.256.096h-.72a.368.368 0 0 1-.272-.096.404.404 0 0 1-.096-.272v-.672a3.336 3.336 0 0 1-1.04.864c-.426.224-.96.336-1.6.336Zm.336-1.296c.534 0 .96-.123 1.28-.368.32-.245.56-.555.72-.928.16-.384.246-.773.256-1.168.011-.171.016-.373.016-.608 0-.245-.005-.453-.016-.624a2.744 2.744 0 0 0-.272-1.104 2.14 2.14 0 0 0-.736-.896c-.32-.235-.736-.352-1.248-.352-.544 0-.976.123-1.296.368-.32.235-.549.549-.688.944-.138.384-.218.8-.24 1.248-.01.309-.01.619 0 .928.022.448.102.869.24 1.264.139.384.368.699.688.944.32.235.752.352 1.296.352Zm6.508 1.136a.404.404 0 0 1-.272-.096.404.404 0 0 1-.096-.272v-7.584c0-.107.032-.192.096-.256a.369.369 0 0 1 .272-.112h.768c.107 0 .192.037.256.112a.345.345 0 0 1 .096.256v7.584a.404.404 0 0 1-.096.272.345.345 0 0 1-.256.096h-.768Zm-.128-9.872a.404.404 0 0 1-.272-.096.404.404 0 0 1-.096-.272v-.864c0-.107.032-.192.096-.256a.369.369 0 0 1 .272-.112h1.008c.107 0 .192.037.256.112a.319.319 0 0 1 .112.256v.864a.369.369 0 0 1-.112.272.345.345 0 0 1-.256.096h-1.008Zm4.003 9.872a.404.404 0 0 1-.272-.096.404.404 0 0 1-.096-.272v-7.584c0-.107.032-.192.096-.256a.369.369 0 0 1 .272-.112h.752c.107 0 .192.037.256.112a.319.319 0 0 1 .112.256v.704a3.195 3.195 0 0 1 1.04-.88c.427-.235.971-.352 1.632-.352.693 0 1.28.155 1.76.464.491.299.859.72 1.104 1.264.245.533.368 1.157.368 1.872v4.512a.404.404 0 0 1-.096.272.345.345 0 0 1-.256.096h-.8a.404.404 0 0 1-.272-.096.404.404 0 0 1-.096-.272V112.2c0-.747-.181-1.328-.544-1.744-.363-.427-.896-.64-1.6-.64-.661 0-1.195.213-1.6.64-.395.416-.592.997-.592 1.744v4.432a.369.369 0 0 1-.112.272.345.345 0 0 1-.256.096h-.8Zm12.743 3.52c-.725 0-1.323-.096-1.792-.288-.459-.192-.821-.427-1.088-.704a2.73 2.73 0 0 1-.56-.816c-.107-.267-.165-.48-.176-.64a.32.32 0 0 1 .096-.272.405.405 0 0 1 .272-.112h.768a.42.42 0 0 1 .24.064c.064.043.117.133.16.272.064.16.16.336.288.528.128.203.325.373.592.512.267.149.64.224 1.12.224.501 0 .923-.069 1.264-.208.341-.128.597-.363.768-.704.181-.331.272-.789.272-1.376v-1.088a3.12 3.12 0 0 1-1.008.832c-.416.213-.939.32-1.568.32-.597 0-1.109-.101-1.536-.304a3.06 3.06 0 0 1-1.056-.848 4.029 4.029 0 0 1-.608-1.232 6.33 6.33 0 0 1-.224-1.44 11.736 11.736 0 0 1 0-.88 6.33 6.33 0 0 1 .224-1.44c.139-.459.341-.869.608-1.232a2.837 2.837 0 0 1 1.056-.848c.427-.213.939-.32 1.536-.32.64 0 1.168.123 1.584.368.427.235.773.523 1.04.864v-.688c0-.107.032-.197.096-.272a.369.369 0 0 1 .272-.112h.736c.107 0 .197.037.272.112a.369.369 0 0 1 .112.272v7.76c0 .715-.123 1.349-.368 1.904-.235.555-.629.992-1.184 1.312-.544.32-1.28.48-2.208.48Zm-.032-4.736c.533 0 .96-.123 1.28-.368a2.11 2.11 0 0 0 .72-.928c.16-.373.245-.752.256-1.136a7.61 7.61 0 0 0 .016-.544c0-.224-.005-.411-.016-.56a3.086 3.086 0 0 0-.256-1.136 2.11 2.11 0 0 0-.72-.928c-.32-.245-.747-.368-1.28-.368s-.96.123-1.28.368c-.32.235-.549.549-.688.944-.139.384-.219.8-.24 1.248-.011.277-.011.56 0 .848.021.448.101.869.24 1.264.139.384.368.699.688.944.32.235.747.352 1.28.352ZM439.448 110c-.118 0-.208-.032-.272-.096a.404.404 0 0 1-.096-.272V99.184c0-.117.032-.208.096-.272a.338.338 0 0 1 .272-.112h3.904c1.205 0 2.16.283 2.864.848.704.565 1.056 1.403 1.056 2.512 0 .821-.208 1.493-.624 2.016-.406.512-.96.869-1.664 1.072l2.464 4.256a.4.4 0 0 1 .048.176.29.29 0 0 1-.112.224.308.308 0 0 1-.224.096h-.768c-.182 0-.315-.048-.4-.144a2.692 2.692 0 0 1-.225-.288l-2.319-4.064h-2.8v4.128a.373.373 0 0 1-.112.272.368.368 0 0 1-.272.096h-.816Zm1.2-5.856h2.64c.8 0 1.397-.165 1.792-.496.394-.341.592-.843.592-1.504 0-.651-.198-1.147-.592-1.488-.384-.341-.982-.512-1.792-.512h-2.64v4Zm11.926 6.016c-1.099 0-1.973-.336-2.624-1.008-.651-.683-1.008-1.611-1.072-2.784a6.953 6.953 0 0 1-.016-.528c0-.224.005-.405.016-.544.043-.757.219-1.419.528-1.984a3.3 3.3 0 0 1 1.264-1.328c.544-.309 1.179-.464 1.904-.464.811 0 1.488.171 2.032.512.555.341.976.827 1.264 1.456.288.629.432 1.365.432 2.208v.272a.338.338 0 0 1-.112.272.345.345 0 0 1-.256.096h-5.536V106.48c.021.437.117.848.288 1.232.171.373.416.677.736.912s.704.352 1.152.352c.384 0 .704-.059.96-.176.256-.117.464-.245.624-.384.16-.149.267-.261.32-.336.096-.139.171-.219.224-.24a.517.517 0 0 1 .256-.048h.768c.107 0 .192.032.256.096.075.053.107.133.096.24-.011.16-.096.357-.256.592-.16.224-.389.448-.688.672a3.999 3.999 0 0 1-1.088.56c-.427.139-.917.208-1.472.208Zm-2.176-4.928h4.384v-.048c0-.48-.091-.907-.272-1.28a2.022 2.022 0 0 0-.752-.88c-.331-.224-.725-.336-1.184-.336-.459 0-.853.112-1.184.336-.32.213-.565.507-.736.88-.171.373-.256.8-.256 1.28v.048Zm11.225 8.288c-.725 0-1.322-.096-1.792-.288-.458-.192-.821-.427-1.088-.704a2.748 2.748 0 0 1-.56-.816c-.106-.267-.165-.48-.176-.64a.325.325 0 0 1 .096-.272.407.407 0 0 1 .272-.112h.768a.42.42 0 0 1 .24.064c.064.043.118.133.16.272.064.16.16.336.288.528.128.203.326.373.592.512.267.149.64.224 1.12.224.502 0 .923-.069 1.264-.208.342-.128.598-.363.768-.704.182-.331.272-.789.272-1.376v-1.088a3.12 3.12 0 0 1-1.008.832c-.416.213-.938.32-1.568.32-.597 0-1.109-.101-1.536-.304a3.078 3.078 0 0 1-1.056-.848 4.052 4.052 0 0 1-.608-1.232 6.386 6.386 0 0 1-.224-1.44 12.91 12.91 0 0 1 0-.88c.022-.501.096-.981.224-1.44.139-.459.342-.869.608-1.232.278-.363.63-.645 1.056-.848.427-.213.939-.32 1.536-.32.64 0 1.168.123 1.584.368.427.235.774.523 1.04.864v-.688c0-.107.032-.197.096-.272a.37.37 0 0 1 .272-.112h.736c.107 0 .198.037.272.112a.369.369 0 0 1 .112.272v7.76c0 .715-.122 1.349-.368 1.904-.234.555-.629.992-1.184 1.312-.544.32-1.28.48-2.208.48Zm-.032-4.736c.534 0 .96-.123 1.28-.368a2.11 2.11 0 0 0 .72-.928c.16-.373.246-.752.256-1.136a7.61 7.61 0 0 0 .016-.544c0-.224-.005-.411-.016-.56a3.066 3.066 0 0 0-.256-1.136 2.11 2.11 0 0 0-.72-.928c-.32-.245-.746-.368-1.28-.368-.533 0-.96.123-1.28.368-.32.235-.549.549-.688.944-.138.384-.218.8-.24 1.248-.01.277-.01.56 0 .848.022.448.102.869.24 1.264.139.384.368.699.688.944.32.235.747.352 1.28.352Zm9.275 1.376c-.683 0-1.264-.149-1.744-.448a2.94 2.94 0 0 1-1.072-1.28c-.245-.544-.368-1.168-.368-1.872v-4.512c0-.107.032-.192.096-.256a.369.369 0 0 1 .272-.112h.8c.107 0 .192.037.256.112a.319.319 0 0 1 .112.256v4.432c0 1.589.693 2.384 2.08 2.384.661 0 1.189-.208 1.584-.624.405-.427.608-1.013.608-1.76v-4.432c0-.107.032-.192.096-.256a.369.369 0 0 1 .272-.112h.784c.117 0 .208.037.272.112a.345.345 0 0 1 .096.256v7.584a.404.404 0 0 1-.096.272.368.368 0 0 1-.272.096h-.736a.404.404 0 0 1-.272-.096.404.404 0 0 1-.096-.272v-.704c-.288.373-.64.672-1.056.896-.405.224-.944.336-1.616.336Zm6.905-.16a.404.404 0 0 1-.272-.096.404.404 0 0 1-.096-.272V99.008c0-.107.032-.192.096-.256a.37.37 0 0 1 .272-.112h.752a.34.34 0 0 1 .272.112c.064.064.096.15.096.256v10.624a.404.404 0 0 1-.096.272.368.368 0 0 1-.272.096h-.752Zm5.827.16a3.278 3.278 0 0 1-1.456-.32 2.799 2.799 0 0 1-1.056-.864 2.025 2.025 0 0 1-.4-1.232c0-.736.298-1.323.896-1.76.597-.437 1.376-.725 2.336-.864l2.384-.336v-.464c0-.512-.15-.912-.448-1.2-.288-.288-.763-.432-1.424-.432-.48 0-.87.096-1.168.288a1.556 1.556 0 0 0-.608.736c-.064.16-.176.24-.336.24h-.72c-.118 0-.208-.032-.272-.096a.426.426 0 0 1-.08-.256c0-.16.058-.357.176-.592.128-.235.32-.464.576-.688a3.16 3.16 0 0 1 .976-.56c.405-.16.896-.24 1.472-.24.64 0 1.178.085 1.616.256.437.16.778.379 1.024.656.256.277.437.592.544.944.117.352.176.709.176 1.072v5.184a.373.373 0 0 1-.112.272.347.347 0 0 1-.256.096h-.736c-.118 0-.208-.032-.272-.096a.404.404 0 0 1-.096-.272v-.688a3.16 3.16 0 0 1-.56.576 3.26 3.26 0 0 1-.88.464c-.352.117-.784.176-1.296.176Zm.336-1.2c.437 0 .837-.091 1.2-.272.362-.192.645-.485.848-.88.213-.395.32-.891.32-1.488v-.448l-1.856.272c-.758.107-1.328.288-1.712.544-.384.245-.576.56-.576.944 0 .299.085.549.256.752.181.192.405.336.672.432.277.096.56.144.848.144Zm6.54 1.04a.404.404 0 0 1-.272-.096.404.404 0 0 1-.096-.272v-7.568c0-.107.032-.197.096-.272a.369.369 0 0 1 .272-.112h.736c.107 0 .197.037.272.112a.369.369 0 0 1 .112.272v.704c.213-.363.507-.635.88-.816.373-.181.821-.272 1.344-.272h.64c.107 0 .192.037.256.112a.345.345 0 0 1 .096.256v.656a.345.345 0 0 1-.096.256.345.345 0 0 1-.256.096h-.96c-.576 0-1.029.171-1.36.512-.331.331-.496.784-.496 1.36v4.704a.369.369 0 0 1-.112.272.404.404 0 0 1-.272.096h-.784ZM68.039 111a.389.389 0 0 1-.288-.112.37.37 0 0 1-.112-.272V100.2a.39.39 0 0 1 .112-.288.39.39 0 0 1 .288-.112h1.264c.149 0 .261.043.336.128a.792.792 0 0 1 .144.176l3.088 5.76 3.12-5.76a.798.798 0 0 1 .144-.176c.074-.085.186-.128.336-.128h1.248a.39.39 0 0 1 .288.112.39.39 0 0 1 .112.288v10.416a.37.37 0 0 1-.112.272.388.388 0 0 1-.288.112h-1.344a.389.389 0 0 1-.288-.112.404.404 0 0 1-.096-.272v-6.928l-2.24 4.272a.958.958 0 0 1-.208.256.546.546 0 0 1-.336.096h-.656a.575.575 0 0 1-.352-.096 1.16 1.16 0 0 1-.192-.256l-2.24-4.272v6.928a.37.37 0 0 1-.112.272.369.369 0 0 1-.272.112h-1.344Zm15.96.16c-1.184 0-2.122-.341-2.816-1.024-.693-.683-1.066-1.653-1.12-2.912a4.132 4.132 0 0 1-.016-.4c0-.171.006-.304.016-.4.043-.8.224-1.493.544-2.08a3.36 3.36 0 0 1 1.36-1.344c.576-.32 1.254-.48 2.032-.48.864 0 1.59.181 2.176.544.587.352 1.03.848 1.328 1.488.299.629.448 1.36.448 2.192v.336a.37.37 0 0 1-.112.272.389.389 0 0 1-.288.112H82.24v.128c.011.373.08.72.208 1.04.139.309.336.56.592.752.267.192.582.288.944.288.299 0 .55-.043.752-.128.203-.096.368-.203.496-.32.128-.117.219-.213.272-.288.096-.128.171-.203.224-.224a.621.621 0 0 1 .272-.048h1.376c.107 0 .192.032.256.096a.262.262 0 0 1 .096.24c-.01.171-.101.379-.272.624-.16.245-.394.485-.704.72-.309.235-.698.432-1.168.592-.458.149-.986.224-1.584.224Zm-1.76-5.04h3.536v-.048c0-.416-.069-.779-.208-1.088a1.72 1.72 0 0 0-.608-.736c-.266-.181-.586-.272-.96-.272-.373 0-.693.091-.96.272-.266.181-.469.427-.608.736a2.831 2.831 0 0 0-.192 1.088v.048Zm10.499 5.04c-.555 0-1.046-.091-1.472-.272a2.87 2.87 0 0 1-1.04-.8 3.687 3.687 0 0 1-.64-1.2 5.774 5.774 0 0 1-.256-1.536 9.317 9.317 0 0 1-.016-.512c0-.16.005-.336.016-.528a5.95 5.95 0 0 1 .24-1.488c.15-.459.362-.859.64-1.2.288-.352.64-.624 1.056-.816.426-.192.917-.288 1.472-.288.576 0 1.061.101 1.456.304.405.192.741.443 1.008.752v-3.552c0-.107.032-.197.096-.272a.39.39 0 0 1 .288-.112h1.36a.37.37 0 0 1 .272.112.37.37 0 0 1 .112.272v10.592a.37.37 0 0 1-.112.272.37.37 0 0 1-.272.112h-1.264a.388.388 0 0 1-.288-.112.404.404 0 0 1-.096-.272v-.592a3.117 3.117 0 0 1-1.024.816c-.406.213-.918.32-1.536.32Zm.592-1.712c.448 0 .805-.101 1.072-.304.266-.203.464-.459.592-.768.128-.32.197-.645.208-.976a11.055 11.055 0 0 0 0-1.232 2.254 2.254 0 0 0-.224-.912 1.853 1.853 0 0 0-.608-.736c-.267-.192-.614-.288-1.04-.288-.448 0-.806.101-1.072.304a1.64 1.64 0 0 0-.56.768c-.118.32-.187.672-.208 1.056-.01.32-.01.64 0 .96.021.384.09.736.208 1.056.117.32.304.581.56.784.266.192.624.288 1.072.288ZM99.846 111a.369.369 0 0 1-.272-.112.37.37 0 0 1-.112-.272v-7.552a.37.37 0 0 1 .112-.272.369.369 0 0 1 .272-.112h1.328c.118 0 .208.037.272.112a.369.369 0 0 1 .112.272v7.552a.369.369 0 0 1-.112.272.337.337 0 0 1-.272.112h-1.328Zm-.064-9.696a.427.427 0 0 1-.288-.096.428.428 0 0 1-.096-.288v-1.152c0-.107.032-.197.096-.272a.39.39 0 0 1 .288-.112h1.456c.118 0 .214.037.288.112a.369.369 0 0 1 .112.272v1.152a.39.39 0 0 1-.112.288.425.425 0 0 1-.288.096h-1.456Zm6.987 9.856c-.651 0-1.216-.144-1.696-.432a2.965 2.965 0 0 1-1.088-1.248c-.256-.544-.384-1.184-.384-1.92v-4.496c0-.107.037-.197.112-.272a.369.369 0 0 1 .272-.112h1.408c.117 0 .208.037.272.112a.369.369 0 0 1 .112.272v4.4c0 1.323.581 1.984 1.744 1.984.555 0 .992-.176 1.312-.528.331-.352.496-.837.496-1.456v-4.4c0-.107.037-.197.112-.272a.369.369 0 0 1 .272-.112h1.408c.107 0 .197.037.272.112a.369.369 0 0 1 .112.272v7.552a.369.369 0 0 1-.112.272.369.369 0 0 1-.272.112h-1.296a.39.39 0 0 1-.288-.112.404.404 0 0 1-.096-.272v-.656a3.066 3.066 0 0 1-1.072.88c-.427.213-.96.32-1.6.32Zm7.234-.16a.367.367 0 0 1-.272-.112.37.37 0 0 1-.113-.272v-7.552a.37.37 0 0 1 .113-.272.367.367 0 0 1 .272-.112h1.248a.37.37 0 0 1 .272.112.373.373 0 0 1 .112.272v.544c.224-.299.522-.549.896-.752.384-.213.837-.325 1.36-.336 1.216-.021 2.064.453 2.544 1.424a2.704 2.704 0 0 1 1.056-1.024 3.08 3.08 0 0 1 1.552-.4c.554 0 1.056.128 1.504.384.458.256.816.645 1.072 1.168.266.512.4 1.163.4 1.952v4.592a.373.373 0 0 1-.112.272.37.37 0 0 1-.272.112h-1.312a.367.367 0 0 1-.272-.112.369.369 0 0 1-.112-.272v-4.464c0-.48-.07-.859-.208-1.136-.139-.288-.326-.491-.56-.608a1.734 1.734 0 0 0-.784-.176c-.235 0-.47.059-.704.176-.235.117-.427.32-.576.608-.15.277-.224.656-.224 1.136v4.464a.373.373 0 0 1-.112.272.37.37 0 0 1-.272.112h-1.312a.386.386 0 0 1-.288-.112.404.404 0 0 1-.096-.272v-4.464c0-.48-.075-.859-.224-1.136-.15-.288-.342-.491-.576-.608a1.666 1.666 0 0 0-.752-.176c-.246 0-.486.064-.72.192-.235.117-.427.315-.576.592-.15.277-.224.656-.224 1.136v4.464a.373.373 0 0 1-.112.272.37.37 0 0 1-.272.112h-1.344ZM161.672 61a.908.908 0 0 1-.612-.216.877.877 0 0 1-.252-.648V36.7c0-.264.084-.48.252-.648a.833.833 0 0 1 .612-.252h3.276c.264 0 .468.084.612.252a.877.877 0 0 1 .252.648v9.288h10.62V36.7c0-.264.084-.48.252-.648a.833.833 0 0 1 .612-.252h3.24c.264 0 .48.084.648.252a.877.877 0 0 1 .252.648v23.436c0 .24-.084.444-.252.612a.877.877 0 0 1-.648.252h-3.24a.833.833 0 0 1-.612-.252.833.833 0 0 1-.252-.612v-9.648h-10.62v9.648c0 .24-.084.444-.252.612-.144.168-.348.252-.612.252h-3.276Zm32.455.36c-2.664 0-4.776-.768-6.336-2.304-1.56-1.536-2.4-3.72-2.52-6.552a9.31 9.31 0 0 1-.036-.9c0-.384.012-.684.036-.9.096-1.824.504-3.384 1.224-4.68.744-1.32 1.764-2.328 3.06-3.024 1.296-.72 2.82-1.08 4.572-1.08 1.944 0 3.576.408 4.896 1.224 1.32.792 2.316 1.908 2.988 3.348.672 1.416 1.008 3.06 1.008 4.932v.756c0 .24-.084.444-.252.612a.877.877 0 0 1-.648.252h-11.952v.288c.024.84.18 1.62.468 2.34.312.696.756 1.26 1.332 1.692.6.432 1.308.648 2.124.648.672 0 1.236-.096 1.692-.288a4.48 4.48 0 0 0 1.116-.72c.288-.264.492-.48.612-.648.216-.288.384-.456.504-.504.144-.072.348-.108.612-.108h3.096c.24 0 .432.072.576.216.168.144.24.324.216.54-.024.384-.228.852-.612 1.404-.36.552-.888 1.092-1.584 1.62-.696.528-1.572.972-2.628 1.332-1.032.336-2.22.504-3.564.504Zm-3.96-11.34h7.956v-.108c0-.936-.156-1.752-.468-2.448-.312-.72-.768-1.272-1.368-1.656-.6-.408-1.32-.612-2.16-.612-.84 0-1.56.204-2.16.612-.6.384-1.056.936-1.368 1.656-.288.696-.432 1.512-.432 2.448v.108Zm21.569 11.34c-1.248 0-2.376-.24-3.384-.72-1.008-.504-1.812-1.164-2.412-1.98a4.854 4.854 0 0 1-.864-2.808c0-1.68.684-3.012 2.052-3.996 1.368-1.008 3.156-1.68 5.364-2.016l4.932-.72v-.756c0-1.008-.252-1.788-.756-2.34-.504-.552-1.368-.828-2.592-.828-.864 0-1.572.18-2.124.54a3.135 3.135 0 0 0-1.188 1.368.918.918 0 0 1-.828.468h-2.844c-.264 0-.468-.072-.612-.216-.12-.144-.18-.336-.18-.576.024-.384.18-.852.468-1.404.312-.552.768-1.08 1.368-1.584.624-.528 1.428-.972 2.412-1.332.984-.36 2.172-.54 3.564-.54 1.512 0 2.784.192 3.816.576 1.056.36 1.896.852 2.52 1.476a5.661 5.661 0 0 1 1.368 2.196c.288.84.432 1.728.432 2.664v11.304c0 .24-.084.444-.252.612a.833.833 0 0 1-.612.252h-2.916a.877.877 0 0 1-.648-.252.908.908 0 0 1-.216-.612v-1.404c-.312.432-.732.852-1.26 1.26-.528.408-1.176.744-1.944 1.008-.744.24-1.632.36-2.664.36Zm1.224-3.42c.84 0 1.596-.18 2.268-.54.696-.36 1.236-.912 1.62-1.656.408-.768.612-1.728.612-2.88v-.756l-3.6.576c-1.416.216-2.472.564-3.168 1.044-.696.48-1.044 1.068-1.044 1.764 0 .528.156.984.468 1.368.336.36.756.636 1.26.828a4.976 4.976 0 0 0 1.584.252Zm20.314 3.42c-1.248 0-2.352-.204-3.312-.612a6.448 6.448 0 0 1-2.34-1.8c-.624-.768-1.104-1.668-1.44-2.7-.336-1.056-.528-2.208-.576-3.456a21.016 21.016 0 0 1-.036-1.152c0-.36.012-.756.036-1.188.048-1.2.228-2.316.54-3.348.336-1.032.816-1.932 1.44-2.7a6.606 6.606 0 0 1 2.376-1.836c.96-.432 2.064-.648 3.312-.648 1.296 0 2.388.228 3.276.684.912.432 1.668.996 2.268 1.692v-7.992c0-.24.072-.444.216-.612a.877.877 0 0 1 .648-.252h3.06c.24 0 .444.084.612.252a.833.833 0 0 1 .252.612v23.832c0 .24-.084.444-.252.612a.833.833 0 0 1-.612.252h-2.844a.877.877 0 0 1-.648-.252.908.908 0 0 1-.216-.612v-1.332c-.6.744-1.368 1.356-2.304 1.836-.912.48-2.064.72-3.456.72Zm1.332-3.852c1.008 0 1.812-.228 2.412-.684a4.105 4.105 0 0 0 1.332-1.728c.288-.72.444-1.452.468-2.196.024-.432.036-.888.036-1.368 0-.504-.012-.972-.036-1.404a5.069 5.069 0 0 0-.504-2.052 4.173 4.173 0 0 0-1.368-1.656c-.6-.432-1.38-.648-2.34-.648-1.008 0-1.812.228-2.412.684-.576.432-.996 1.008-1.26 1.728a8.19 8.19 0 0 0-.468 2.376c-.024.72-.024 1.44 0 2.16a8.19 8.19 0 0 0 .468 2.376c.264.72.684 1.308 1.26 1.764.6.432 1.404.648 2.412.648ZM248.728 61a.833.833 0 0 1-.612-.252.833.833 0 0 1-.252-.612V43.144c0-.24.084-.444.252-.612a.833.833 0 0 1 .612-.252h2.988c.264 0 .468.084.612.252a.833.833 0 0 1 .252.612v16.992c0 .24-.084.444-.252.612-.144.168-.348.252-.612.252h-2.988Zm-.144-21.816a.833.833 0 0 1-.612-.252.833.833 0 0 1-.252-.612v-2.592c0-.24.084-.444.252-.612a.833.833 0 0 1 .612-.252h3.276c.264 0 .48.084.648.252a.833.833 0 0 1 .252.612v2.592c0 .24-.084.444-.252.612a.877.877 0 0 1-.648.252h-3.276Zm9.8 21.816a.833.833 0 0 1-.612-.252.833.833 0 0 1-.252-.612V43.144c0-.24.084-.444.252-.612a.833.833 0 0 1 .612-.252h2.952c.24 0 .444.084.612.252a.833.833 0 0 1 .252.612v1.476c.624-.768 1.416-1.404 2.376-1.908.984-.528 2.196-.792 3.636-.792 1.464 0 2.736.336 3.816 1.008 1.08.648 1.908 1.572 2.484 2.772.6 1.2.9 2.64.9 4.32v10.116c0 .24-.084.444-.252.612a.833.833 0 0 1-.612.252h-3.168a.833.833 0 0 1-.612-.252.833.833 0 0 1-.252-.612v-9.9c0-1.392-.348-2.484-1.044-3.276-.672-.792-1.656-1.188-2.952-1.188-1.248 0-2.244.396-2.988 1.188-.744.792-1.116 1.884-1.116 3.276v9.9c0 .24-.084.444-.252.612a.833.833 0 0 1-.612.252h-3.168Zm29.521 7.92c-1.752 0-3.192-.228-4.32-.684-1.128-.456-2.016-1.008-2.664-1.656-.648-.648-1.116-1.296-1.404-1.944-.264-.624-.408-1.116-.432-1.476a.825.825 0 0 1 .216-.648.959.959 0 0 1 .648-.252h3.132c.24 0 .432.048.576.144.144.12.264.324.36.612.144.312.336.648.576 1.008.24.36.6.66 1.08.9.504.264 1.188.396 2.052.396.912 0 1.68-.132 2.304-.396a2.712 2.712 0 0 0 1.404-1.332c.336-.624.504-1.488.504-2.592v-2.448c-.576.696-1.32 1.26-2.232 1.692-.888.432-1.992.648-3.312.648-1.272 0-2.388-.204-3.348-.612a6.631 6.631 0 0 1-2.34-1.764c-.624-.768-1.104-1.668-1.44-2.7-.312-1.032-.492-2.172-.54-3.42a26.253 26.253 0 0 1 0-1.944c.048-1.2.228-2.316.54-3.348.336-1.032.816-1.932 1.44-2.7a6.286 6.286 0 0 1 2.34-1.836c.96-.432 2.076-.648 3.348-.648 1.368 0 2.52.264 3.456.792.936.504 1.704 1.14 2.304 1.908v-1.44c0-.264.084-.48.252-.648a.833.833 0 0 1 .612-.252h2.916c.24 0 .444.084.612.252a.877.877 0 0 1 .252.648l.036 17.352c0 1.728-.324 3.216-.972 4.464-.648 1.248-1.632 2.208-2.952 2.88-1.296.696-2.964 1.044-5.004 1.044Zm-.18-11.844c.984 0 1.776-.216 2.376-.648a3.86 3.86 0 0 0 1.332-1.692 6.689 6.689 0 0 0 .504-2.124c.024-.312.036-.708.036-1.188s-.012-.864-.036-1.152a6.397 6.397 0 0 0-.504-2.124 3.86 3.86 0 0 0-1.332-1.692c-.6-.456-1.392-.684-2.376-.684s-1.776.228-2.376.684a3.604 3.604 0 0 0-1.296 1.728 9.086 9.086 0 0 0-.432 2.376 10.821 10.821 0 0 0 0 1.764c.048.84.192 1.632.432 2.376.264.72.696 1.296 1.296 1.728.6.432 1.392.648 2.376.648Z" fill="#2B1D38"/><path d="M377 184.5h.5V142a4.5 4.5 0 0 0-4.5-4.5H162a4.5 4.5 0 0 0-4.5 4.5v42.5H377Z" fill="#fff" stroke="#E7E1EC"/><path d="M181.072 165a.278.278 0 0 1-.204-.084.278.278 0 0 1-.084-.204v-6.636h-2.22a.278.278 0 0 1-.204-.084.278.278 0 0 1-.084-.204v-.888c0-.088.028-.16.084-.216a.278.278 0 0 1 .204-.084h6.12c.088 0 .16.028.216.084a.292.292 0 0 1 .084.216v.888c0 .08-.028.148-.084.204a.292.292 0 0 1-.216.084h-2.208v6.636c0 .08-.028.148-.084.204a.292.292 0 0 1-.216.084h-1.104Zm3.711 0a.272.272 0 0 1-.18-.072.244.244 0 0 1-.072-.18c0-.032.008-.068.024-.108l2.892-7.74a.418.418 0 0 1 .42-.3h1.308c.12 0 .212.032.276.096a.527.527 0 0 1 .144.204l2.892 7.74c.008.04.012.076.012.108a.244.244 0 0 1-.072.18.23.23 0 0 1-.168.072h-1.044c-.112 0-.196-.024-.252-.072a.485.485 0 0 1-.096-.156l-.564-1.464h-3.564l-.564 1.464a.423.423 0 0 1-.108.156c-.048.048-.128.072-.24.072h-1.044Zm2.376-3.072h2.724l-1.368-3.708-1.356 3.708Zm6.749 3.072a.278.278 0 0 1-.204-.084.278.278 0 0 1-.084-.204V156.9c0-.088.028-.16.084-.216a.278.278 0 0 1 .204-.084h3.48c.648 0 1.176.1 1.584.3.408.192.708.46.9.804.2.344.3.744.3 1.2a1.828 1.828 0 0 1-.564 1.356 2.08 2.08 0 0 1-.456.336c.312.144.588.384.828.72.24.336.36.736.36 1.2 0 .48-.108.908-.324 1.284a2.25 2.25 0 0 1-.96.888c-.424.208-.948.312-1.572.312h-3.576Zm1.38-1.272h2.004c.432 0 .76-.116.984-.348.224-.24.336-.528.336-.864 0-.352-.116-.644-.348-.876-.224-.232-.548-.348-.972-.348h-2.004v2.436Zm0-3.684h1.884c.424 0 .74-.1.948-.3.216-.208.324-.476.324-.804 0-.336-.108-.596-.324-.78-.208-.192-.524-.288-.948-.288h-1.884v2.172Zm6.846 4.956a.278.278 0 0 1-.204-.084.278.278 0 0 1-.084-.204v-7.824c0-.08.028-.148.084-.204a.278.278 0 0 1 .204-.084h1.116c.08 0 .148.028.204.084a.278.278 0 0 1 .084.204v6.684h3.804c.088 0 .16.028.216.084a.292.292 0 0 1 .084.216v.84c0 .08-.028.148-.084.204a.292.292 0 0 1-.216.084h-5.208Zm6.961 0a.278.278 0 0 1-.204-.084.278.278 0 0 1-.084-.204V156.9c0-.088.028-.16.084-.216a.278.278 0 0 1 .204-.084h5.28c.088 0 .16.028.216.084a.292.292 0 0 1 .084.216v.792c0 .08-.028.148-.084.204a.292.292 0 0 1-.216.084h-3.948v2.124h3.684c.088 0 .16.028.216.084a.254.254 0 0 1 .084.204v.744c0 .088-.028.16-.084.216a.32.32 0 0 1-.216.072h-3.684v2.196h4.044c.088 0 .16.028.216.084a.292.292 0 0 1 .084.216v.792c0 .08-.028.148-.084.204a.292.292 0 0 1-.216.084h-5.376Zm10.207 0a.303.303 0 0 1-.204-.072.292.292 0 0 1-.084-.216V156.9c0-.088.028-.16.084-.216a.278.278 0 0 1 .204-.084h1.092c.088 0 .156.028.204.084a.292.292 0 0 1 .084.216v3.096h3.54V156.9c0-.088.028-.16.084-.216a.278.278 0 0 1 .204-.084h1.08c.088 0 .16.028.216.084a.292.292 0 0 1 .084.216v7.812c0 .08-.028.148-.084.204a.292.292 0 0 1-.216.084h-1.08a.278.278 0 0 1-.204-.084.278.278 0 0 1-.084-.204v-3.216h-3.54v3.216c0 .08-.028.148-.084.204a.254.254 0 0 1-.204.084h-1.092Zm8.742 0a.278.278 0 0 1-.204-.084.278.278 0 0 1-.084-.204V156.9c0-.088.028-.16.084-.216a.278.278 0 0 1 .204-.084h5.28c.088 0 .16.028.216.084a.292.292 0 0 1 .084.216v.792c0 .08-.028.148-.084.204a.292.292 0 0 1-.216.084h-3.948v2.124h3.684c.088 0 .16.028.216.084a.254.254 0 0 1 .084.204v.744c0 .088-.028.16-.084.216a.32.32 0 0 1-.216.072h-3.684v2.196h4.044c.088 0 .16.028.216.084a.292.292 0 0 1 .084.216v.792c0 .08-.028.148-.084.204a.292.292 0 0 1-.216.084h-5.376Zm6.661 0a.272.272 0 0 1-.18-.072.244.244 0 0 1-.072-.18c0-.032.008-.068.024-.108l2.892-7.74a.418.418 0 0 1 .42-.3h1.308c.12 0 .212.032.276.096a.527.527 0 0 1 .144.204l2.892 7.74c.008.04.012.076.012.108a.244.244 0 0 1-.072.18.23.23 0 0 1-.168.072h-1.044c-.112 0-.196-.024-.252-.072a.485.485 0 0 1-.096-.156l-.564-1.464h-3.564l-.564 1.464a.423.423 0 0 1-.108.156c-.048.048-.128.072-.24.072h-1.044Zm2.376-3.072h2.724l-1.368-3.708-1.356 3.708Zm6.748 3.072a.278.278 0 0 1-.204-.084.278.278 0 0 1-.084-.204V156.9c0-.088.028-.16.084-.216a.278.278 0 0 1 .204-.084h2.928c.808 0 1.472.124 1.992.372.528.248.924.616 1.188 1.104.272.488.412 1.084.42 1.788.016.352.024.664.024.936s-.008.58-.024.924c-.016.744-.152 1.36-.408 1.848a2.43 2.43 0 0 1-1.164 1.08c-.512.232-1.168.348-1.968.348h-2.988Zm1.38-1.38h1.548c.448 0 .812-.064 1.092-.192s.484-.332.612-.612c.136-.288.208-.664.216-1.128.008-.24.012-.448.012-.624a6.077 6.077 0 0 0 0-.54c0-.184-.004-.392-.012-.624-.016-.656-.18-1.14-.492-1.452-.312-.312-.808-.468-1.488-.468h-1.488v5.64Zm7.058 1.38a.278.278 0 0 1-.204-.084.278.278 0 0 1-.084-.204V156.9c0-.088.028-.16.084-.216a.278.278 0 0 1 .204-.084h5.28c.088 0 .16.028.216.084a.292.292 0 0 1 .084.216v.792c0 .08-.028.148-.084.204a.292.292 0 0 1-.216.084h-3.948v2.124h3.684c.088 0 .16.028.216.084a.254.254 0 0 1 .084.204v.744c0 .088-.028.16-.084.216a.32.32 0 0 1-.216.072h-3.684v2.196h4.044c.088 0 .16.028.216.084a.292.292 0 0 1 .084.216v.792c0 .08-.028.148-.084.204a.292.292 0 0 1-.216.084h-5.376Zm7.465 0a.278.278 0 0 1-.204-.084.278.278 0 0 1-.084-.204V156.9c0-.088.028-.16.084-.216a.278.278 0 0 1 .204-.084h3.108c.968 0 1.732.224 2.292.672.56.448.84 1.1.84 1.956 0 .592-.148 1.084-.444 1.476a2.426 2.426 0 0 1-1.164.852l1.752 3.06a.299.299 0 0 1 .036.132.227.227 0 0 1-.084.18.23.23 0 0 1-.168.072h-1.092c-.136 0-.24-.036-.312-.108a.99.99 0 0 1-.168-.216l-1.548-2.844h-1.668v2.88c0 .08-.028.148-.084.204a.254.254 0 0 1-.204.084h-1.092Zm1.38-4.524h1.692c.488 0 .852-.108 1.092-.324.24-.224.36-.536.36-.936s-.12-.712-.36-.936c-.232-.232-.596-.348-1.092-.348h-1.692v2.544Z" fill="#9386A0"/><path d="M158 89a4 4 0 0 1 4-4h116a4 4 0 0 1 4 4v24a4 4 0 0 1-4 4H162a4 4 0 0 1-4-4V89Z" fill="#6C5FC7"/><path d="M171.913 106a.37.37 0 0 1-.272-.112.373.373 0 0 1-.112-.272V95.2c0-.117.038-.213.112-.288a.372.372 0 0 1 .272-.112h4.64c.864 0 1.568.133 2.112.4.544.256.944.613 1.2 1.072.267.459.4.992.4 1.6 0 .405-.074.763-.224 1.072a2.227 2.227 0 0 1-.528.736 2.76 2.76 0 0 1-.608.448c.416.192.784.512 1.104.96.32.448.48.981.48 1.6 0 .64-.144 1.211-.432 1.712-.288.501-.714.896-1.28 1.184-.565.277-1.264.416-2.096.416h-4.768Zm1.84-1.696h2.672c.576 0 1.014-.155 1.312-.464.299-.32.448-.704.448-1.152 0-.469-.154-.859-.464-1.168-.298-.309-.73-.464-1.296-.464h-2.672v3.248Zm0-4.912h2.512c.566 0 .987-.133 1.264-.4.288-.277.432-.635.432-1.072 0-.448-.144-.795-.432-1.04-.277-.256-.698-.384-1.264-.384h-2.512v2.896Zm11.641 6.768c-.651 0-1.216-.144-1.696-.432a2.965 2.965 0 0 1-1.088-1.248c-.256-.544-.384-1.184-.384-1.92v-4.496c0-.107.037-.197.112-.272a.37.37 0 0 1 .272-.112h1.408a.34.34 0 0 1 .272.112.369.369 0 0 1 .112.272v4.4c0 1.323.581 1.984 1.744 1.984.555 0 .992-.176 1.312-.528.331-.352.496-.837.496-1.456v-4.4c0-.107.037-.197.112-.272a.37.37 0 0 1 .272-.112h1.408a.37.37 0 0 1 .272.112.369.369 0 0 1 .112.272v7.552a.369.369 0 0 1-.112.272.369.369 0 0 1-.272.112h-1.296a.39.39 0 0 1-.288-.112.404.404 0 0 1-.096-.272v-.656a3.066 3.066 0 0 1-1.072.88c-.427.213-.96.32-1.6.32Zm10.61-.16c-.64 0-1.179-.112-1.616-.336a2.142 2.142 0 0 1-.976-.992c-.214-.448-.32-1.003-.32-1.664v-3.632h-1.264a.369.369 0 0 1-.272-.112.369.369 0 0 1-.112-.272v-.928c0-.107.037-.197.112-.272a.369.369 0 0 1 .272-.112h1.264v-2.656c0-.107.032-.197.096-.272a.388.388 0 0 1 .288-.112h1.296c.106 0 .197.037.272.112a.373.373 0 0 1 .112.272v2.656h2c.106 0 .197.037.272.112a.373.373 0 0 1 .112.272v.928a.373.373 0 0 1-.112.272.372.372 0 0 1-.272.112h-2v3.472c0 .437.074.779.224 1.024.16.245.432.368.816.368h1.104a.37.37 0 0 1 .272.112.373.373 0 0 1 .112.272v.992a.373.373 0 0 1-.112.272.37.37 0 0 1-.272.112h-1.296Zm6.859 0c-.64 0-1.179-.112-1.616-.336a2.147 2.147 0 0 1-.976-.992c-.213-.448-.32-1.003-.32-1.664v-3.632h-1.264a.37.37 0 0 1-.272-.112.369.369 0 0 1-.112-.272v-.928c0-.107.037-.197.112-.272a.37.37 0 0 1 .272-.112h1.264v-2.656c0-.107.032-.197.096-.272a.39.39 0 0 1 .288-.112h1.296a.37.37 0 0 1 .272.112.369.369 0 0 1 .112.272v2.656h2a.37.37 0 0 1 .272.112.369.369 0 0 1 .112.272v.928a.369.369 0 0 1-.112.272.37.37 0 0 1-.272.112h-2v3.472c0 .437.075.779.224 1.024.16.245.432.368.816.368h1.104c.107 0 .197.037.272.112a.369.369 0 0 1 .112.272v.992a.369.369 0 0 1-.112.272.369.369 0 0 1-.272.112h-1.296Zm6.779.16c-.853 0-1.573-.149-2.16-.448a3.172 3.172 0 0 1-1.328-1.264c-.298-.544-.469-1.179-.512-1.904-.01-.192-.016-.427-.016-.704 0-.277.006-.512.016-.704.043-.736.219-1.37.528-1.904a3.27 3.27 0 0 1 1.344-1.264c.587-.299 1.296-.448 2.128-.448.832 0 1.536.15 2.112.448.587.299 1.035.72 1.344 1.264.32.533.502 1.168.544 1.904.011.192.016.427.016.704 0 .277-.005.512-.016.704-.042.725-.218 1.36-.528 1.904a3.044 3.044 0 0 1-1.328 1.264c-.576.299-1.29.448-2.144.448Zm0-1.584c.566 0 1.003-.176 1.312-.528.31-.363.48-.891.512-1.584.011-.16.016-.368.016-.624s-.005-.464-.016-.624c-.032-.683-.202-1.205-.512-1.568-.309-.363-.746-.544-1.312-.544-.565 0-1.002.181-1.312.544-.309.363-.48.885-.512 1.568-.01.16-.016.368-.016.624s.006.464.016.624c.032.693.203 1.221.512 1.584.31.352.747.528 1.312.528Zm6.173 1.424a.369.369 0 0 1-.272-.112.369.369 0 0 1-.112-.272v-7.552c0-.107.037-.197.112-.272a.37.37 0 0 1 .272-.112h1.312a.37.37 0 0 1 .272.112.369.369 0 0 1 .112.272v.656a3.331 3.331 0 0 1 1.056-.848c.437-.235.976-.352 1.616-.352.651 0 1.216.15 1.696.448.48.288.848.699 1.104 1.232.267.533.4 1.173.4 1.92v4.496a.369.369 0 0 1-.112.272.369.369 0 0 1-.272.112h-1.408a.369.369 0 0 1-.272-.112.369.369 0 0 1-.112-.272v-4.4c0-.619-.155-1.104-.464-1.456-.299-.352-.736-.528-1.312-.528-.555 0-.997.176-1.328.528-.331.352-.496.837-.496 1.456v4.4a.369.369 0 0 1-.112.272.369.369 0 0 1-.272.112h-1.408Zm13.833 0a.367.367 0 0 1-.272-.112.369.369 0 0 1-.112-.272V95.184c0-.107.037-.197.112-.272a.369.369 0 0 1 .272-.112h1.488c.106 0 .197.037.272.112a.373.373 0 0 1 .112.272v8.912h5.072a.39.39 0 0 1 .288.112.394.394 0 0 1 .112.288v1.12a.373.373 0 0 1-.112.272.39.39 0 0 1-.288.112h-6.944Zm11.121.16a3.458 3.458 0 0 1-1.504-.32 2.924 2.924 0 0 1-1.072-.88 2.156 2.156 0 0 1-.384-1.248c0-.747.299-1.339.896-1.776.608-.448 1.408-.747 2.4-.896l2.192-.32v-.336c0-.448-.112-.795-.336-1.04-.224-.245-.608-.368-1.152-.368-.384 0-.699.08-.944.24-.235.15-.411.352-.528.608a.407.407 0 0 1-.368.208h-1.264a.368.368 0 0 1-.272-.096.389.389 0 0 1-.08-.256c.011-.17.08-.379.208-.624a2.29 2.29 0 0 1 .608-.704c.277-.235.635-.432 1.072-.592.437-.16.965-.24 1.584-.24.672 0 1.237.085 1.696.256.469.16.843.379 1.12.656.277.277.48.603.608.976s.192.768.192 1.184v5.024a.369.369 0 0 1-.112.272.369.369 0 0 1-.272.112h-1.296a.39.39 0 0 1-.288-.112.404.404 0 0 1-.096-.272v-.624a2.566 2.566 0 0 1-.56.576 3.258 3.258 0 0 1-.864.432c-.331.107-.725.16-1.184.16Zm.544-1.52c.373 0 .709-.08 1.008-.24a1.66 1.66 0 0 0 .72-.736c.181-.341.272-.768.272-1.28v-.336l-1.6.256c-.629.096-1.099.251-1.408.464-.309.213-.464.475-.464.784 0 .235.069.437.208.608.149.16.336.283.56.368.224.075.459.112.704.112Zm10.789 1.52c-.619 0-1.136-.107-1.553-.32a3.157 3.157 0 0 1-1.007-.816v.592a.373.373 0 0 1-.112.272.338.338 0 0 1-.272.112h-1.264a.367.367 0 0 1-.272-.112.369.369 0 0 1-.112-.272V95.024c0-.107.037-.197.112-.272a.369.369 0 0 1 .272-.112h1.36a.34.34 0 0 1 .272.112.373.373 0 0 1 .112.272v3.552c.266-.31.597-.56.992-.752.405-.203.896-.304 1.472-.304.565 0 1.056.096 1.472.288a2.8 2.8 0 0 1 1.04.816c.288.341.506.741.656 1.2.149.459.229.955.24 1.488.01.192.016.368.016.528 0 .149-.006.32-.016.512a5.778 5.778 0 0 1-.257 1.536 3.687 3.687 0 0 1-.639 1.2 2.875 2.875 0 0 1-1.04.8c-.416.181-.907.272-1.472.272Zm-.592-1.712c.458 0 .816-.096 1.072-.288a1.64 1.64 0 0 0 .544-.784c.117-.32.186-.672.208-1.056.021-.32.021-.64 0-.96a3.674 3.674 0 0 0-.208-1.056 1.546 1.546 0 0 0-.544-.768c-.256-.203-.614-.304-1.072-.304-.427 0-.774.096-1.04.288-.267.192-.47.437-.608.736a2.237 2.237 0 0 0-.224.912c-.011.192-.016.4-.016.624 0 .213.005.416.016.608.021.331.09.656.208.976.128.309.325.565.592.768.277.203.634.304 1.072.304Zm9.38 1.712c-1.184 0-2.123-.341-2.816-1.024-.693-.683-1.067-1.653-1.12-2.912a4.038 4.038 0 0 1-.016-.4c0-.171.005-.304.016-.4.043-.8.224-1.493.544-2.08a3.367 3.367 0 0 1 1.36-1.344c.576-.32 1.253-.48 2.032-.48.864 0 1.589.181 2.176.544a3.337 3.337 0 0 1 1.328 1.488c.299.629.448 1.36.448 2.192v.336a.369.369 0 0 1-.112.272.39.39 0 0 1-.288.112h-5.312v.128c.011.373.08.72.208 1.04.139.309.336.56.592.752.267.192.581.288.944.288.299 0 .549-.043.752-.128.203-.096.368-.203.496-.32.128-.117.219-.213.272-.288.096-.128.171-.203.224-.224a.622.622 0 0 1 .272-.048h1.376c.107 0 .192.032.256.096a.26.26 0 0 1 .096.24c-.011.171-.101.379-.272.624-.16.245-.395.485-.704.72-.309.235-.699.432-1.168.592-.459.149-.987.224-1.584.224Zm-1.76-5.04h3.536v-.048c0-.416-.069-.779-.208-1.088a1.72 1.72 0 0 0-.608-.736c-.267-.181-.587-.272-.96-.272s-.693.09-.96.272a1.72 1.72 0 0 0-.608.736 2.831 2.831 0 0 0-.192 1.088v.048Zm7.81 4.88a.37.37 0 0 1-.272-.112.373.373 0 0 1-.112-.272V95.024c0-.107.038-.197.112-.272a.372.372 0 0 1 .272-.112h1.328c.107 0 .198.037.272.112a.369.369 0 0 1 .112.272v10.592a.369.369 0 0 1-.112.272.367.367 0 0 1-.272.112h-1.328Z" fill="#fff"/><path d="M140.5 36.5V184M510.5 38.5V180" stroke="#C6BECF" stroke-width="2" stroke-linecap="round"/><rect x="528.5" y="141.5" width="221" height="39" rx="3.5" fill="#fff" stroke="#E7E1EC"/><path d="M542.76 167a.368.368 0 0 1-.272-.096.404.404 0 0 1-.096-.272v-10.464c0-.107.032-.192.096-.256a.338.338 0 0 1 .272-.112h.848c.117 0 .208.037.272.112a.345.345 0 0 1 .096.256v10.464a.404.404 0 0 1-.096.272.368.368 0 0 1-.272.096h-.848Zm4.167 0a.404.404 0 0 1-.272-.096.404.404 0 0 1-.096-.272v-7.584c0-.107.032-.192.096-.256a.369.369 0 0 1 .272-.112h.752c.107 0 .192.037.256.112a.319.319 0 0 1 .112.256v.704a3.195 3.195 0 0 1 1.04-.88c.427-.235.971-.352 1.632-.352.693 0 1.28.155 1.76.464.491.299.859.72 1.104 1.264.256.533.384 1.157.384 1.872v4.512a.369.369 0 0 1-.112.272.345.345 0 0 1-.256.096h-.8a.404.404 0 0 1-.272-.096.404.404 0 0 1-.096-.272V162.2c0-.747-.181-1.328-.544-1.744-.363-.427-.896-.64-1.6-.64-.661 0-1.195.213-1.6.64-.395.416-.592.997-.592 1.744v4.432a.369.369 0 0 1-.112.272.345.345 0 0 1-.256.096h-.8Zm9.719 3.04a.369.369 0 0 1-.272-.112.345.345 0 0 1-.096-.256v-10.624c0-.107.032-.192.096-.256a.369.369 0 0 1 .272-.112h.736c.107 0 .192.037.256.112a.319.319 0 0 1 .112.256v.704a3.07 3.07 0 0 1 1.024-.88c.427-.235.96-.352 1.6-.352.597 0 1.104.101 1.52.304.427.203.773.48 1.04.832.277.352.485.752.624 1.2.139.448.219.928.24 1.44.011.171.016.352.016.544 0 .192-.005.373-.016.544a5.784 5.784 0 0 1-.24 1.44 3.688 3.688 0 0 1-.624 1.2 2.993 2.993 0 0 1-1.04.832c-.416.203-.923.304-1.52.304-.619 0-1.141-.112-1.568-.336a3.41 3.41 0 0 1-1.024-.864v3.712a.345.345 0 0 1-.096.256.319.319 0 0 1-.256.112h-.784Zm3.392-4.176c.555 0 .987-.117 1.296-.352.32-.245.549-.56.688-.944.139-.395.219-.816.24-1.264.011-.309.011-.619 0-.928a4.229 4.229 0 0 0-.24-1.248 1.936 1.936 0 0 0-.688-.944c-.309-.245-.741-.368-1.296-.368-.523 0-.949.123-1.28.368-.32.245-.56.56-.72.944a3.603 3.603 0 0 0-.256 1.152 9.667 9.667 0 0 0-.016.608c0 .235.005.443.016.624.011.373.096.741.256 1.104.171.363.421.661.752.896s.747.352 1.248.352Zm8.859 1.296c-.682 0-1.264-.149-1.744-.448a2.947 2.947 0 0 1-1.072-1.28c-.245-.544-.368-1.168-.368-1.872v-4.512c0-.107.032-.192.096-.256a.37.37 0 0 1 .272-.112h.8c.107 0 .192.037.256.112a.319.319 0 0 1 .112.256v4.432c0 1.589.694 2.384 2.08 2.384.662 0 1.19-.208 1.584-.624.406-.427.608-1.013.608-1.76v-4.432c0-.107.032-.192.096-.256a.37.37 0 0 1 .272-.112h.8c.107 0 .192.037.256.112a.345.345 0 0 1 .096.256v7.584a.404.404 0 0 1-.096.272.345.345 0 0 1-.256.096h-.752a.406.406 0 0 1-.272-.096.404.404 0 0 1-.096-.272v-.704c-.288.373-.64.672-1.056.896-.405.224-.944.336-1.616.336Zm9.769-.16c-.597 0-1.082-.112-1.456-.336a2.041 2.041 0 0 1-.816-.976c-.17-.427-.256-.928-.256-1.504v-4.224h-1.248a.406.406 0 0 1-.272-.096.404.404 0 0 1-.096-.272v-.544c0-.107.032-.192.096-.256a.37.37 0 0 1 .272-.112h1.248v-2.672c0-.107.032-.192.096-.256a.37.37 0 0 1 .272-.112h.752c.107 0 .192.037.256.112a.319.319 0 0 1 .112.256v2.672h1.984c.118 0 .208.037.272.112a.345.345 0 0 1 .096.256v.544a.404.404 0 0 1-.096.272c-.064.064-.154.096-.272.096h-1.984v4.112c0 .501.086.896.256 1.184.171.288.475.432.912.432h.976c.107 0 .192.037.256.112a.319.319 0 0 1 .112.256v.576a.369.369 0 0 1-.112.272.345.345 0 0 1-.256.096h-1.104Zm9.829 0c-.598 0-1.083-.112-1.456-.336a2.03 2.03 0 0 1-.816-.976c-.171-.427-.256-.928-.256-1.504v-4.224h-1.248a.402.402 0 0 1-.272-.096.404.404 0 0 1-.096-.272v-.544c0-.107.032-.192.096-.256a.367.367 0 0 1 .272-.112h1.248v-2.672c0-.107.032-.192.095-.256a.371.371 0 0 1 .273-.112h.752a.32.32 0 0 1 .256.112.322.322 0 0 1 .112.256v2.672h1.984c.117 0 .208.037.272.112a.345.345 0 0 1 .096.256v.544a.404.404 0 0 1-.096.272.368.368 0 0 1-.272.096h-1.984v4.112c0 .501.085.896.256 1.184.17.288.474.432.912.432h.976a.32.32 0 0 1 .256.112.322.322 0 0 1 .112.256v.576a.373.373 0 0 1-.112.272.347.347 0 0 1-.256.096h-1.104Zm6.33.16c-1.11 0-1.99-.336-2.64-1.008-.651-.683-1.008-1.611-1.072-2.784a6.953 6.953 0 0 1-.016-.528c0-.224.005-.405.016-.544.042-.757.218-1.419.528-1.984a3.293 3.293 0 0 1 1.264-1.328c.544-.309 1.178-.464 1.904-.464.81 0 1.488.171 2.032.512.554.341.976.827 1.264 1.456.288.629.431 1.365.431 2.208v.272a.34.34 0 0 1-.111.272.347.347 0 0 1-.256.096h-5.536V163.48c.021.437.117.848.288 1.232.17.373.416.677.736.912.33.235.714.352 1.152.352.384 0 .704-.059.96-.176.256-.117.464-.245.624-.384.16-.149.266-.267.32-.352.096-.128.17-.203.224-.224a.515.515 0 0 1 .256-.048h.784c.096 0 .176.032.24.096.074.053.106.133.095.24-.01.16-.095.357-.255.592-.16.224-.39.448-.688.672a3.713 3.713 0 0 1-1.088.56 4.696 4.696 0 0 1-1.456.208Zm-2.192-4.928h4.384v-.048c0-.48-.091-.907-.272-1.28a2.029 2.029 0 0 0-.752-.88c-.331-.224-.726-.336-1.184-.336-.459 0-.854.112-1.184.336-.32.213-.566.507-.736.88-.171.373-.256.8-.256 1.28v.048Zm7.261 4.768a.36.36 0 0 1-.24-.096.326.326 0 0 1-.096-.24c0-.032.005-.069.016-.112a.951.951 0 0 1 .096-.176l2.784-3.632-2.608-3.44a1.421 1.421 0 0 1-.096-.16.51.51 0 0 1-.016-.128.326.326 0 0 1 .336-.336h.816c.117 0 .208.032.272.096a.65.65 0 0 1 .144.16l2.128 2.768 2.128-2.752c.042-.053.09-.112.144-.176.064-.064.154-.096.272-.096h.784a.326.326 0 0 1 .336.336.288.288 0 0 1-.032.128.574.574 0 0 1-.08.16l-2.64 3.472 2.784 3.6a.574.574 0 0 1 .08.16.288.288 0 0 1 .032.128.326.326 0 0 1-.336.336h-.848a.388.388 0 0 1-.256-.08 1.097 1.097 0 0 1-.16-.16l-2.24-2.928-2.272 2.928-.16.16c-.054.053-.139.08-.256.08h-.816Zm12.257 0c-.598 0-1.083-.112-1.456-.336a2.03 2.03 0 0 1-.816-.976c-.171-.427-.256-.928-.256-1.504v-4.224h-1.248a.402.402 0 0 1-.272-.096.404.404 0 0 1-.096-.272v-.544c0-.107.032-.192.096-.256a.367.367 0 0 1 .272-.112h1.248v-2.672c0-.107.032-.192.096-.256a.367.367 0 0 1 .272-.112h.752a.32.32 0 0 1 .256.112.322.322 0 0 1 .112.256v2.672h1.984c.117 0 .208.037.272.112a.345.345 0 0 1 .096.256v.544a.404.404 0 0 1-.096.272.368.368 0 0 1-.272.096h-1.984v4.112c0 .501.085.896.256 1.184.17.288.474.432.912.432h.976a.32.32 0 0 1 .256.112.322.322 0 0 1 .112.256v.576a.373.373 0 0 1-.112.272.347.347 0 0 1-.256.096h-1.104Z" fill="#9386A0"/></svg>