<svg width="600" height="300" viewBox="0 0 600 300" fill="none" xmlns="http://www.w3.org/2000/svg">
<g clip-path="url(#clip0_253:187)">
<rect width="600" height="300" fill="#FAF9FB"/>
<path d="M111.88 303.6C110.28 303.6 108.92 303.04 107.8 301.92C106.68 300.8 106.12 299.44 106.12 297.84V243.36C102.28 248.48 97.32 252.64 91.24 255.84C85.16 258.88 77.8 260.4 69.16 260.4C61 260.4 53.72 258.96 47.32 256.08C41.08 253.2 35.8 249.28 31.48 244.32C27.32 239.2 24.12 233.28 21.88 226.56C19.64 219.68 18.36 212.24 18.04 204.24C17.88 201.36 17.8 198.48 17.8 195.6C17.8 192.72 17.88 189.92 18.04 187.2C18.52 178.88 19.8 171.28 21.88 164.4C24.12 157.52 27.32 151.6 31.48 146.64C35.8 141.52 41.08 137.6 47.32 134.88C53.72 132.16 61 130.8 69.16 130.8C78.44 130.8 86.2 132.48 92.44 135.84C98.84 139.2 103.88 143.44 107.56 148.56V138.96C107.56 137.36 108.12 136 109.24 134.88C110.36 133.76 111.72 133.2 113.32 133.2H132.52C134.12 133.2 135.48 133.76 136.6 134.88C137.72 136 138.28 137.36 138.28 138.96V297.84C138.28 299.44 137.72 300.8 136.6 301.92C135.48 303.04 134.12 303.6 132.52 303.6H111.88ZM78.28 234.72C84.68 234.72 89.88 233.28 93.88 230.4C97.88 227.52 100.84 223.92 102.76 219.6C104.84 215.12 105.96 210.48 106.12 205.68C106.44 202.64 106.6 199.52 106.6 196.32C106.6 193.12 106.44 190.08 106.12 187.2C105.96 182.24 104.92 177.44 103 172.8C101.08 168 98.12 164.08 94.12 161.04C90.12 158 84.84 156.48 78.28 156.48C71.56 156.48 66.2 158 62.2 161.04C58.2 163.92 55.32 167.76 53.56 172.56C51.96 177.36 51 182.64 50.68 188.4C50.36 193.2 50.36 198 50.68 202.8C51 208.56 51.96 213.84 53.56 218.64C55.32 223.44 58.2 227.36 62.2 230.4C66.2 233.28 71.56 234.72 78.28 234.72ZM216.582 260.4C206.822 260.4 198.342 258.24 191.142 253.92C184.102 249.44 178.662 243.2 174.822 235.2C170.982 227.04 169.062 217.44 169.062 206.4V138.96C169.062 137.36 169.622 136 170.742 134.88C171.862 133.76 173.222 133.2 174.822 133.2H195.942C197.702 133.2 199.062 133.76 200.022 134.88C201.142 136 201.702 137.36 201.702 138.96V204.96C201.702 224.8 210.422 234.72 227.862 234.72C236.182 234.72 242.742 232.08 247.542 226.8C252.502 221.52 254.982 214.24 254.982 204.96V138.96C254.982 137.36 255.542 136 256.662 134.88C257.782 133.76 259.142 133.2 260.742 133.2H281.862C283.462 133.2 284.822 133.76 285.942 134.88C287.062 136 287.622 137.36 287.622 138.96V252.24C287.622 253.84 287.062 255.2 285.942 256.32C284.822 257.44 283.462 258 281.862 258H262.422C260.662 258 259.222 257.44 258.102 256.32C257.142 255.2 256.662 253.84 256.662 252.24V242.4C252.342 248 246.982 252.4 240.582 255.6C234.182 258.8 226.182 260.4 216.582 260.4ZM325.084 258C323.484 258 322.124 257.44 321.004 256.32C319.884 255.2 319.324 253.84 319.324 252.24V138.96C319.324 137.36 319.884 136 321.004 134.88C322.124 133.76 323.484 133.2 325.084 133.2H345.004C346.764 133.2 348.124 133.76 349.084 134.88C350.204 136 350.764 137.36 350.764 138.96V252.24C350.764 253.84 350.204 255.2 349.084 256.32C348.124 257.44 346.764 258 345.004 258H325.084ZM324.124 112.56C322.364 112.56 320.924 112.08 319.804 111.12C318.844 110 318.364 108.56 318.364 106.8V89.52C318.364 87.92 318.844 86.56 319.804 85.44C320.924 84.32 322.364 83.76 324.124 83.76H345.964C347.724 83.76 349.164 84.32 350.284 85.44C351.404 86.56 351.964 87.92 351.964 89.52V106.8C351.964 108.56 351.404 110 350.284 111.12C349.164 112.08 347.724 112.56 345.964 112.56H324.124ZM388.366 258C386.766 258 385.406 257.44 384.286 256.32C383.166 255.2 382.606 253.84 382.606 252.24V138.96C382.606 137.36 383.166 136 384.286 134.88C385.406 133.76 386.766 133.2 388.366 133.2H408.046C409.646 133.2 411.006 133.76 412.126 134.88C413.246 136 413.806 137.36 413.806 138.96V148.8C417.966 143.68 423.246 139.44 429.646 136.08C436.206 132.56 444.286 130.8 453.886 130.8C463.646 130.8 472.126 133.04 479.326 137.52C486.526 141.84 492.046 148 495.886 156C499.886 164 501.886 173.6 501.886 184.8V252.24C501.886 253.84 501.326 255.2 500.206 256.32C499.086 257.44 497.726 258 496.126 258H475.006C473.406 258 472.046 257.44 470.926 256.32C469.806 255.2 469.246 253.84 469.246 252.24V186.24C469.246 176.96 466.926 169.68 462.286 164.4C457.806 159.12 451.246 156.48 442.606 156.48C434.286 156.48 427.646 159.12 422.686 164.4C417.726 169.68 415.246 176.96 415.246 186.24V252.24C415.246 253.84 414.686 255.2 413.566 256.32C412.446 257.44 411.086 258 409.486 258H388.366ZM568.611 260.4C560.291 260.4 552.771 258.8 546.051 255.6C539.331 252.24 533.971 247.84 529.971 242.4C526.131 236.8 524.211 230.56 524.211 223.68C524.211 212.48 528.691 203.6 537.651 197.04C546.771 190.32 558.771 185.84 573.651 183.6L606.531 178.8V173.76C606.531 167.04 604.851 161.84 601.491 158.16C598.131 154.48 592.371 152.64 584.211 152.64C578.451 152.64 573.731 153.84 570.051 156.24C566.531 158.48 563.891 161.52 562.131 165.36C560.851 167.44 559.011 168.48 556.611 168.48H537.651C535.891 168.48 534.531 168 533.571 167.04C532.771 166.08 532.371 164.8 532.371 163.2C532.531 160.64 533.571 157.52 535.491 153.84C537.411 150.16 540.451 146.64 544.611 143.28C548.771 139.76 554.131 136.8 560.691 134.4C567.251 132 575.171 130.8 584.451 130.8C594.531 130.8 603.011 132.08 609.891 134.64C616.931 137.04 622.531 140.32 626.691 144.48C630.851 148.64 633.891 153.52 635.811 159.12C637.731 164.72 638.691 170.64 638.691 176.88V252.24C638.691 253.84 638.131 255.2 637.011 256.32C635.891 257.44 634.531 258 632.931 258H613.491C611.731 258 610.291 257.44 609.171 256.32C608.211 255.2 607.731 253.84 607.731 252.24V242.88C605.651 245.92 602.851 248.8 599.331 251.52C595.811 254.08 591.491 256.24 586.371 258C581.411 259.6 575.491 260.4 568.611 260.4ZM576.771 237.6C582.371 237.6 587.411 236.4 591.891 234C596.531 231.6 600.131 227.92 602.691 222.96C605.411 217.84 606.771 211.44 606.771 203.76V198.72L582.771 202.56C573.331 204 566.291 206.32 561.651 209.52C557.011 212.72 554.691 216.64 554.691 221.28C554.691 224.8 555.731 227.84 557.811 230.4C560.051 232.8 562.851 234.64 566.211 235.92C569.571 237.04 573.091 237.6 576.771 237.6Z" fill="#2BA185"/>
</g>
<defs>
<clipPath id="clip0_253:187">
<rect width="600" height="300" fill="white"/>
</clipPath>
</defs>
</svg>
