<svg width="600" height="300" viewBox="0 0 600 300" fill="none" xmlns="http://www.w3.org/2000/svg">
<g clip-path="url(#clip0_252:193)">
<rect width="600" height="300" fill="#FAF9FB"/>
<path d="M76.6 204C75.32 204 74.2 203.52 73.24 202.56C72.28 201.6 71.8 200.48 71.8 199.2C71.8 198.4 71.88 197.52 72.04 196.56L131.56 41.28C132.2 39.68 133.08 38.4 134.2 37.44C135.32 36.48 137 36 139.24 36H155.56C157.64 36 159.24 36.48 160.36 37.44C161.64 38.4 162.6 39.68 163.24 41.28L222.52 196.56C222.84 197.52 223 198.4 223 199.2C223 200.48 222.52 201.6 221.56 202.56C220.6 203.52 219.48 204 218.2 204H205.96C204.04 204 202.6 203.52 201.64 202.56C200.84 201.6 200.28 200.72 199.96 199.92L186.76 165.84H108.04L94.84 199.92C94.68 200.72 94.12 201.6 93.16 202.56C92.2 203.52 90.76 204 88.84 204H76.6ZM115 145.2H179.8L147.4 60L115 145.2ZM251.061 204C249.461 204 248.101 203.52 246.981 202.56C246.021 201.44 245.541 200.08 245.541 198.48V84.96C245.541 83.36 246.021 82 246.981 80.88C248.101 79.76 249.461 79.2 251.061 79.2H262.101C263.701 79.2 265.061 79.76 266.181 80.88C267.301 82 267.861 83.36 267.861 84.96V95.52C271.061 90.08 275.461 86 281.061 83.28C286.661 80.56 293.381 79.2 301.221 79.2H310.821C312.421 79.2 313.701 79.76 314.661 80.88C315.621 81.84 316.101 83.12 316.101 84.72V94.56C316.101 96.16 315.621 97.44 314.661 98.4C313.701 99.36 312.421 99.84 310.821 99.84H296.421C287.781 99.84 280.981 102.4 276.021 107.52C271.061 112.48 268.581 119.28 268.581 127.92V198.48C268.581 200.08 268.021 201.44 266.901 202.56C265.781 203.52 264.421 204 262.821 204H251.061ZM398.393 206.4C388.793 206.4 380.793 204.72 374.393 201.36C367.993 197.84 362.873 193.52 359.033 188.4V198.48C359.033 200.08 358.473 201.44 357.353 202.56C356.393 203.52 355.113 204 353.513 204H342.473C340.873 204 339.513 203.52 338.393 202.56C337.433 201.44 336.953 200.08 336.953 198.48V39.12C336.953 37.52 337.433 36.24 338.393 35.28C339.513 34.16 340.873 33.6 342.473 33.6H353.993C355.753 33.6 357.113 34.16 358.073 35.28C359.033 36.24 359.513 37.52 359.513 39.12V94.32C363.513 89.36 368.633 85.2 374.873 81.84C381.273 78.48 389.113 76.8 398.393 76.8C407.353 76.8 414.953 78.4 421.193 81.6C427.593 84.64 432.793 88.88 436.793 94.32C440.953 99.76 444.073 105.92 446.153 112.8C448.233 119.68 449.353 126.88 449.513 134.4C449.673 136.96 449.753 139.36 449.753 141.6C449.753 143.84 449.673 146.24 449.513 148.8C449.353 156.48 448.233 163.76 446.153 170.64C444.073 177.52 440.953 183.68 436.793 189.12C432.793 194.4 427.593 198.64 421.193 201.84C414.953 204.88 407.353 206.4 398.393 206.4ZM393.353 186.96C401.673 186.96 408.153 185.2 412.793 181.68C417.593 178 421.033 173.28 423.113 167.52C425.193 161.6 426.393 155.28 426.713 148.56C426.873 143.92 426.873 139.28 426.713 134.64C426.393 127.92 425.193 121.68 423.113 115.92C421.033 110 417.593 105.28 412.793 101.76C408.153 98.08 401.673 96.24 393.353 96.24C385.833 96.24 379.593 98 374.633 101.52C369.673 105.04 365.913 109.52 363.353 114.96C360.953 120.4 359.673 125.92 359.513 131.52C359.353 134.08 359.273 137.2 359.273 140.88C359.273 144.4 359.353 147.44 359.513 150C359.833 155.92 361.113 161.76 363.353 167.52C365.753 173.12 369.353 177.76 374.153 181.44C379.113 185.12 385.513 186.96 393.353 186.96ZM529.128 206.4C512.648 206.4 499.528 201.36 489.768 191.28C480.008 181.04 474.648 167.12 473.688 149.52C473.528 147.44 473.448 144.8 473.448 141.6C473.448 138.24 473.528 135.52 473.688 133.44C474.328 122.08 476.968 112.16 481.608 103.68C486.248 95.04 492.568 88.4 500.568 83.76C508.728 79.12 518.248 76.8 529.128 76.8C541.288 76.8 551.448 79.36 559.608 84.48C567.928 89.6 574.248 96.88 578.568 106.32C582.888 115.76 585.047 126.8 585.047 139.44V143.52C585.047 145.28 584.488 146.64 583.368 147.6C582.408 148.56 581.128 149.04 579.528 149.04H496.488C496.488 149.2 496.488 149.52 496.488 150C496.488 150.48 496.488 150.88 496.488 151.2C496.808 157.76 498.248 163.92 500.808 169.68C503.368 175.28 507.048 179.84 511.848 183.36C516.648 186.88 522.408 188.64 529.128 188.64C534.888 188.64 539.688 187.76 543.528 186C547.368 184.24 550.488 182.32 552.888 180.24C555.288 178 556.888 176.32 557.688 175.2C559.128 173.12 560.248 171.92 561.048 171.6C561.848 171.12 563.128 170.88 564.888 170.88H576.408C578.008 170.88 579.288 171.36 580.248 172.32C581.368 173.12 581.848 174.32 581.688 175.92C581.528 178.32 580.248 181.28 577.848 184.8C575.448 188.16 572.008 191.52 567.528 194.88C563.048 198.24 557.608 201.04 551.208 203.28C544.808 205.36 537.448 206.4 529.128 206.4ZM496.488 132.48H562.248V131.76C562.248 124.56 560.888 118.16 558.168 112.56C555.608 106.96 551.848 102.56 546.888 99.36C541.928 96 536.008 94.32 529.128 94.32C522.248 94.32 516.328 96 511.368 99.36C506.568 102.56 502.888 106.96 500.328 112.56C497.768 118.16 496.488 124.56 496.488 131.76V132.48ZM703.984 249.6C702.224 249.6 700.864 249.04 699.904 247.92C698.944 246.96 698.464 245.68 698.464 244.08V188.4C694.464 193.52 689.264 197.84 682.864 201.36C676.624 204.72 668.864 206.4 659.584 206.4C650.784 206.4 643.184 204.88 636.784 201.84C630.384 198.64 625.104 194.48 620.944 189.36C616.944 184.08 613.904 178.08 611.824 171.36C609.904 164.48 608.784 157.28 608.464 149.76C608.304 147.2 608.224 144.48 608.224 141.6C608.224 138.72 608.304 136 608.464 133.44C608.784 125.76 609.904 118.56 611.824 111.84C613.904 105.12 616.944 99.12 620.944 93.84C625.104 88.56 630.384 84.4 636.784 81.36C643.184 78.32 650.784 76.8 659.584 76.8C669.184 76.8 677.184 78.56 683.584 82.08C689.984 85.6 695.104 90 698.944 95.28V84.72C698.944 83.12 699.424 81.84 700.384 80.88C701.504 79.76 702.864 79.2 704.464 79.2H715.504C717.104 79.2 718.384 79.76 719.344 80.88C720.464 81.84 721.024 83.12 721.024 84.72V244.08C721.024 245.68 720.464 246.96 719.344 247.92C718.384 249.04 717.104 249.6 715.504 249.6H703.984ZM664.624 186.96C672.304 186.96 678.544 185.2 683.344 181.68C688.304 178.16 691.984 173.68 694.384 168.24C696.944 162.8 698.304 157.28 698.464 151.68C698.624 148.96 698.704 145.84 698.704 142.32C698.704 138.8 698.624 135.76 698.464 133.2C698.304 127.28 697.024 121.52 694.624 115.92C692.224 110.16 688.544 105.44 683.584 101.76C678.784 98.08 672.464 96.24 664.624 96.24C656.464 96.24 649.984 98.08 645.184 101.76C640.384 105.28 636.944 110 634.864 115.92C632.784 121.68 631.584 127.92 631.264 134.64C631.104 139.28 631.104 143.92 631.264 148.56C631.584 155.28 632.784 161.6 634.864 167.52C636.944 173.28 640.384 178 645.184 181.68C649.984 185.2 656.464 186.96 664.624 186.96ZM803.273 206.4C793.033 206.4 784.313 204.16 777.113 199.68C770.073 195.04 764.713 188.64 761.033 180.48C757.353 172.32 755.513 162.96 755.513 152.4V84.72C755.513 83.12 755.993 81.84 756.953 80.88C758.073 79.76 759.433 79.2 761.033 79.2H773.033C774.633 79.2 775.913 79.76 776.873 80.88C777.993 81.84 778.553 83.12 778.553 84.72V151.2C778.553 175.04 788.953 186.96 809.753 186.96C819.673 186.96 827.593 183.84 833.513 177.6C839.593 171.2 842.633 162.4 842.633 151.2V84.72C842.633 83.12 843.113 81.84 844.073 80.88C845.193 79.76 846.553 79.2 848.153 79.2H859.913C861.673 79.2 863.033 79.76 863.993 80.88C864.953 81.84 865.433 83.12 865.433 84.72V198.48C865.433 200.08 864.953 201.44 863.993 202.56C863.033 203.52 861.673 204 859.913 204H848.873C847.273 204 845.913 203.52 844.793 202.56C843.833 201.44 843.353 200.08 843.353 198.48V187.92C839.033 193.52 833.753 198 827.513 201.36C821.433 204.72 813.353 206.4 803.273 206.4ZM906.608 204C905.008 204 903.648 203.52 902.528 202.56C901.568 201.44 901.088 200.08 901.088 198.48V84.72C901.088 83.12 901.568 81.84 902.528 80.88C903.648 79.76 905.008 79.2 906.608 79.2H918.128C919.728 79.2 921.008 79.76 921.968 80.88C922.928 81.84 923.408 83.12 923.408 84.72V198.48C923.408 200.08 922.928 201.44 921.968 202.56C921.008 203.52 919.728 204 918.128 204H906.608ZM904.688 55.92C903.088 55.92 901.728 55.44 900.608 54.48C899.648 53.36 899.168 52 899.168 50.4V37.44C899.168 35.84 899.648 34.56 900.608 33.6C901.728 32.48 903.088 31.92 904.688 31.92H919.808C921.408 31.92 922.688 32.48 923.648 33.6C924.768 34.56 925.328 35.84 925.328 37.44V50.4C925.328 52 924.768 53.36 923.648 54.48C922.688 55.44 921.408 55.92 919.808 55.92H904.688ZM964.733 204C963.133 204 961.773 203.52 960.653 202.56C959.693 201.44 959.213 200.08 959.213 198.48V84.72C959.213 83.12 959.693 81.84 960.653 80.88C961.773 79.76 963.133 79.2 964.733 79.2H976.013C977.613 79.2 978.893 79.76 979.853 80.88C980.973 81.84 981.533 83.12 981.533 84.72V95.28C985.693 89.84 990.893 85.44 997.133 82.08C1003.53 78.56 1011.69 76.8 1021.61 76.8C1032.01 76.8 1040.81 79.12 1048.01 83.76C1055.37 88.24 1060.89 94.56 1064.57 102.72C1068.25 110.72 1070.09 120.08 1070.09 130.8V198.48C1070.09 200.08 1069.61 201.44 1068.65 202.56C1067.69 203.52 1066.41 204 1064.81 204H1052.81C1051.21 204 1049.85 203.52 1048.73 202.56C1047.77 201.44 1047.29 200.08 1047.29 198.48V132C1047.29 120.8 1044.57 112.08 1039.13 105.84C1033.69 99.44 1025.69 96.24 1015.13 96.24C1005.21 96.24 997.213 99.44 991.133 105.84C985.213 112.08 982.253 120.8 982.253 132V198.48C982.253 200.08 981.693 201.44 980.573 202.56C979.613 203.52 978.333 204 976.733 204H964.733ZM1139.56 206.4C1131.56 206.4 1124.28 204.8 1117.72 201.6C1111.16 198.4 1105.88 194.08 1101.88 188.64C1097.88 183.2 1095.88 177.04 1095.88 170.16C1095.88 159.12 1100.36 150.32 1109.32 143.76C1118.28 137.2 1129.96 132.88 1144.36 130.8L1180.12 125.76V118.8C1180.12 111.12 1177.88 105.12 1173.4 100.8C1169.08 96.48 1161.96 94.32 1152.04 94.32C1144.84 94.32 1139 95.76 1134.52 98.64C1130.2 101.52 1127.16 105.2 1125.4 109.68C1124.44 112.08 1122.76 113.28 1120.36 113.28H1109.56C1107.8 113.28 1106.44 112.8 1105.48 111.84C1104.68 110.72 1104.28 109.44 1104.28 108C1104.28 105.6 1105.16 102.64 1106.92 99.12C1108.84 95.6 1111.72 92.16 1115.56 88.8C1119.4 85.44 1124.28 82.64 1130.2 80.4C1136.28 78 1143.64 76.8 1152.28 76.8C1161.88 76.8 1169.96 78.08 1176.52 80.64C1183.08 83.04 1188.2 86.32 1191.88 90.48C1195.72 94.64 1198.44 99.36 1200.04 104.64C1201.8 109.92 1202.68 115.28 1202.68 120.72V198.48C1202.68 200.08 1202.12 201.44 1201 202.56C1200.04 203.52 1198.76 204 1197.16 204H1186.12C1184.36 204 1183 203.52 1182.04 202.56C1181.08 201.44 1180.6 200.08 1180.6 198.48V188.16C1178.52 191.04 1175.72 193.92 1172.2 196.8C1168.68 199.52 1164.28 201.84 1159 203.76C1153.72 205.52 1147.24 206.4 1139.56 206.4ZM1144.6 188.4C1151.16 188.4 1157.16 187.04 1162.6 184.32C1168.04 181.44 1172.28 177.04 1175.32 171.12C1178.52 165.2 1180.12 157.76 1180.12 148.8V142.08L1152.28 146.16C1140.92 147.76 1132.36 150.48 1126.6 154.32C1120.84 158 1117.96 162.72 1117.96 168.48C1117.96 172.96 1119.24 176.72 1121.8 179.76C1124.52 182.64 1127.88 184.8 1131.88 186.24C1136.04 187.68 1140.28 188.4 1144.6 188.4Z" fill="#80708F"/>
<path d="M76.6 234C75.32 234 74.2 233.52 73.24 232.56C72.28 231.6 71.8 230.48 71.8 229.2C71.8 228.4 71.88 227.52 72.04 226.56L131.56 71.28C132.2 69.68 133.08 68.4 134.2 67.44C135.32 66.48 137 66 139.24 66H155.56C157.64 66 159.24 66.48 160.36 67.44C161.64 68.4 162.6 69.68 163.24 71.28L222.52 226.56C222.84 227.52 223 228.4 223 229.2C223 230.48 222.52 231.6 221.56 232.56C220.6 233.52 219.48 234 218.2 234H205.96C204.04 234 202.6 233.52 201.64 232.56C200.84 231.6 200.28 230.72 199.96 229.92L186.76 195.84H108.04L94.84 229.92C94.68 230.72 94.12 231.6 93.16 232.56C92.2 233.52 90.76 234 88.84 234H76.6ZM115 175.2H179.8L147.4 90L115 175.2ZM251.061 234C249.461 234 248.101 233.52 246.981 232.56C246.021 231.44 245.541 230.08 245.541 228.48V114.96C245.541 113.36 246.021 112 246.981 110.88C248.101 109.76 249.461 109.2 251.061 109.2H262.101C263.701 109.2 265.061 109.76 266.181 110.88C267.301 112 267.861 113.36 267.861 114.96V125.52C271.061 120.08 275.461 116 281.061 113.28C286.661 110.56 293.381 109.2 301.221 109.2H310.821C312.421 109.2 313.701 109.76 314.661 110.88C315.621 111.84 316.101 113.12 316.101 114.72V124.56C316.101 126.16 315.621 127.44 314.661 128.4C313.701 129.36 312.421 129.84 310.821 129.84H296.421C287.781 129.84 280.981 132.4 276.021 137.52C271.061 142.48 268.581 149.28 268.581 157.92V228.48C268.581 230.08 268.021 231.44 266.901 232.56C265.781 233.52 264.421 234 262.821 234H251.061ZM398.393 236.4C388.793 236.4 380.793 234.72 374.393 231.36C367.993 227.84 362.873 223.52 359.033 218.4V228.48C359.033 230.08 358.473 231.44 357.353 232.56C356.393 233.52 355.113 234 353.513 234H342.473C340.873 234 339.513 233.52 338.393 232.56C337.433 231.44 336.953 230.08 336.953 228.48V69.12C336.953 67.52 337.433 66.24 338.393 65.28C339.513 64.16 340.873 63.6 342.473 63.6H353.993C355.753 63.6 357.113 64.16 358.073 65.28C359.033 66.24 359.513 67.52 359.513 69.12V124.32C363.513 119.36 368.633 115.2 374.873 111.84C381.273 108.48 389.113 106.8 398.393 106.8C407.353 106.8 414.953 108.4 421.193 111.6C427.593 114.64 432.793 118.88 436.793 124.32C440.953 129.76 444.073 135.92 446.153 142.8C448.233 149.68 449.353 156.88 449.513 164.4C449.673 166.96 449.753 169.36 449.753 171.6C449.753 173.84 449.673 176.24 449.513 178.8C449.353 186.48 448.233 193.76 446.153 200.64C444.073 207.52 440.953 213.68 436.793 219.12C432.793 224.4 427.593 228.64 421.193 231.84C414.953 234.88 407.353 236.4 398.393 236.4ZM393.353 216.96C401.673 216.96 408.153 215.2 412.793 211.68C417.593 208 421.033 203.28 423.113 197.52C425.193 191.6 426.393 185.28 426.713 178.56C426.873 173.92 426.873 169.28 426.713 164.64C426.393 157.92 425.193 151.68 423.113 145.92C421.033 140 417.593 135.28 412.793 131.76C408.153 128.08 401.673 126.24 393.353 126.24C385.833 126.24 379.593 128 374.633 131.52C369.673 135.04 365.913 139.52 363.353 144.96C360.953 150.4 359.673 155.92 359.513 161.52C359.353 164.08 359.273 167.2 359.273 170.88C359.273 174.4 359.353 177.44 359.513 180C359.833 185.92 361.113 191.76 363.353 197.52C365.753 203.12 369.353 207.76 374.153 211.44C379.113 215.12 385.513 216.96 393.353 216.96ZM529.128 236.4C512.648 236.4 499.528 231.36 489.768 221.28C480.008 211.04 474.648 197.12 473.688 179.52C473.528 177.44 473.448 174.8 473.448 171.6C473.448 168.24 473.528 165.52 473.688 163.44C474.328 152.08 476.968 142.16 481.608 133.68C486.248 125.04 492.568 118.4 500.568 113.76C508.728 109.12 518.248 106.8 529.128 106.8C541.288 106.8 551.448 109.36 559.608 114.48C567.928 119.6 574.248 126.88 578.568 136.32C582.888 145.76 585.047 156.8 585.047 169.44V173.52C585.047 175.28 584.488 176.64 583.368 177.6C582.408 178.56 581.128 179.04 579.528 179.04H496.488C496.488 179.2 496.488 179.52 496.488 180C496.488 180.48 496.488 180.88 496.488 181.2C496.808 187.76 498.248 193.92 500.808 199.68C503.368 205.28 507.048 209.84 511.848 213.36C516.648 216.88 522.408 218.64 529.128 218.64C534.888 218.64 539.688 217.76 543.528 216C547.368 214.24 550.488 212.32 552.888 210.24C555.288 208 556.888 206.32 557.688 205.2C559.128 203.12 560.248 201.92 561.048 201.6C561.848 201.12 563.128 200.88 564.888 200.88H576.408C578.008 200.88 579.288 201.36 580.248 202.32C581.368 203.12 581.848 204.32 581.688 205.92C581.528 208.32 580.248 211.28 577.848 214.8C575.448 218.16 572.008 221.52 567.528 224.88C563.048 228.24 557.608 231.04 551.208 233.28C544.808 235.36 537.448 236.4 529.128 236.4ZM496.488 162.48H562.248V161.76C562.248 154.56 560.888 148.16 558.168 142.56C555.608 136.96 551.848 132.56 546.888 129.36C541.928 126 536.008 124.32 529.128 124.32C522.248 124.32 516.328 126 511.368 129.36C506.568 132.56 502.888 136.96 500.328 142.56C497.768 148.16 496.488 154.56 496.488 161.76V162.48ZM703.984 279.6C702.224 279.6 700.864 279.04 699.904 277.92C698.944 276.96 698.464 275.68 698.464 274.08V218.4C694.464 223.52 689.264 227.84 682.864 231.36C676.624 234.72 668.864 236.4 659.584 236.4C650.784 236.4 643.184 234.88 636.784 231.84C630.384 228.64 625.104 224.48 620.944 219.36C616.944 214.08 613.904 208.08 611.824 201.36C609.904 194.48 608.784 187.28 608.464 179.76C608.304 177.2 608.224 174.48 608.224 171.6C608.224 168.72 608.304 166 608.464 163.44C608.784 155.76 609.904 148.56 611.824 141.84C613.904 135.12 616.944 129.12 620.944 123.84C625.104 118.56 630.384 114.4 636.784 111.36C643.184 108.32 650.784 106.8 659.584 106.8C669.184 106.8 677.184 108.56 683.584 112.08C689.984 115.6 695.104 120 698.944 125.28V114.72C698.944 113.12 699.424 111.84 700.384 110.88C701.504 109.76 702.864 109.2 704.464 109.2H715.504C717.104 109.2 718.384 109.76 719.344 110.88C720.464 111.84 721.024 113.12 721.024 114.72V274.08C721.024 275.68 720.464 276.96 719.344 277.92C718.384 279.04 717.104 279.6 715.504 279.6H703.984ZM664.624 216.96C672.304 216.96 678.544 215.2 683.344 211.68C688.304 208.16 691.984 203.68 694.384 198.24C696.944 192.8 698.304 187.28 698.464 181.68C698.624 178.96 698.704 175.84 698.704 172.32C698.704 168.8 698.624 165.76 698.464 163.2C698.304 157.28 697.024 151.52 694.624 145.92C692.224 140.16 688.544 135.44 683.584 131.76C678.784 128.08 672.464 126.24 664.624 126.24C656.464 126.24 649.984 128.08 645.184 131.76C640.384 135.28 636.944 140 634.864 145.92C632.784 151.68 631.584 157.92 631.264 164.64C631.104 169.28 631.104 173.92 631.264 178.56C631.584 185.28 632.784 191.6 634.864 197.52C636.944 203.28 640.384 208 645.184 211.68C649.984 215.2 656.464 216.96 664.624 216.96ZM803.273 236.4C793.033 236.4 784.313 234.16 777.113 229.68C770.073 225.04 764.713 218.64 761.033 210.48C757.353 202.32 755.513 192.96 755.513 182.4V114.72C755.513 113.12 755.993 111.84 756.953 110.88C758.073 109.76 759.433 109.2 761.033 109.2H773.033C774.633 109.2 775.913 109.76 776.873 110.88C777.993 111.84 778.553 113.12 778.553 114.72V181.2C778.553 205.04 788.953 216.96 809.753 216.96C819.673 216.96 827.593 213.84 833.513 207.6C839.593 201.2 842.633 192.4 842.633 181.2V114.72C842.633 113.12 843.113 111.84 844.073 110.88C845.193 109.76 846.553 109.2 848.153 109.2H859.913C861.673 109.2 863.033 109.76 863.993 110.88C864.953 111.84 865.433 113.12 865.433 114.72V228.48C865.433 230.08 864.953 231.44 863.993 232.56C863.033 233.52 861.673 234 859.913 234H848.873C847.273 234 845.913 233.52 844.793 232.56C843.833 231.44 843.353 230.08 843.353 228.48V217.92C839.033 223.52 833.753 228 827.513 231.36C821.433 234.72 813.353 236.4 803.273 236.4ZM906.608 234C905.008 234 903.648 233.52 902.528 232.56C901.568 231.44 901.088 230.08 901.088 228.48V114.72C901.088 113.12 901.568 111.84 902.528 110.88C903.648 109.76 905.008 109.2 906.608 109.2H918.128C919.728 109.2 921.008 109.76 921.968 110.88C922.928 111.84 923.408 113.12 923.408 114.72V228.48C923.408 230.08 922.928 231.44 921.968 232.56C921.008 233.52 919.728 234 918.128 234H906.608ZM904.688 85.92C903.088 85.92 901.728 85.44 900.608 84.48C899.648 83.36 899.168 82 899.168 80.4V67.44C899.168 65.84 899.648 64.56 900.608 63.6C901.728 62.48 903.088 61.92 904.688 61.92H919.808C921.408 61.92 922.688 62.48 923.648 63.6C924.768 64.56 925.328 65.84 925.328 67.44V80.4C925.328 82 924.768 83.36 923.648 84.48C922.688 85.44 921.408 85.92 919.808 85.92H904.688ZM964.733 234C963.133 234 961.773 233.52 960.653 232.56C959.693 231.44 959.213 230.08 959.213 228.48V114.72C959.213 113.12 959.693 111.84 960.653 110.88C961.773 109.76 963.133 109.2 964.733 109.2H976.013C977.613 109.2 978.893 109.76 979.853 110.88C980.973 111.84 981.533 113.12 981.533 114.72V125.28C985.693 119.84 990.893 115.44 997.133 112.08C1003.53 108.56 1011.69 106.8 1021.61 106.8C1032.01 106.8 1040.81 109.12 1048.01 113.76C1055.37 118.24 1060.89 124.56 1064.57 132.72C1068.25 140.72 1070.09 150.08 1070.09 160.8V228.48C1070.09 230.08 1069.61 231.44 1068.65 232.56C1067.69 233.52 1066.41 234 1064.81 234H1052.81C1051.21 234 1049.85 233.52 1048.73 232.56C1047.77 231.44 1047.29 230.08 1047.29 228.48V162C1047.29 150.8 1044.57 142.08 1039.13 135.84C1033.69 129.44 1025.69 126.24 1015.13 126.24C1005.21 126.24 997.213 129.44 991.133 135.84C985.213 142.08 982.253 150.8 982.253 162V228.48C982.253 230.08 981.693 231.44 980.573 232.56C979.613 233.52 978.333 234 976.733 234H964.733ZM1139.56 236.4C1131.56 236.4 1124.28 234.8 1117.72 231.6C1111.16 228.4 1105.88 224.08 1101.88 218.64C1097.88 213.2 1095.88 207.04 1095.88 200.16C1095.88 189.12 1100.36 180.32 1109.32 173.76C1118.28 167.2 1129.96 162.88 1144.36 160.8L1180.12 155.76V148.8C1180.12 141.12 1177.88 135.12 1173.4 130.8C1169.08 126.48 1161.96 124.32 1152.04 124.32C1144.84 124.32 1139 125.76 1134.52 128.64C1130.2 131.52 1127.16 135.2 1125.4 139.68C1124.44 142.08 1122.76 143.28 1120.36 143.28H1109.56C1107.8 143.28 1106.44 142.8 1105.48 141.84C1104.68 140.72 1104.28 139.44 1104.28 138C1104.28 135.6 1105.16 132.64 1106.92 129.12C1108.84 125.6 1111.72 122.16 1115.56 118.8C1119.4 115.44 1124.28 112.64 1130.2 110.4C1136.28 108 1143.64 106.8 1152.28 106.8C1161.88 106.8 1169.96 108.08 1176.52 110.64C1183.08 113.04 1188.2 116.32 1191.88 120.48C1195.72 124.64 1198.44 129.36 1200.04 134.64C1201.8 139.92 1202.68 145.28 1202.68 150.72V228.48C1202.68 230.08 1202.12 231.44 1201 232.56C1200.04 233.52 1198.76 234 1197.16 234H1186.12C1184.36 234 1183 233.52 1182.04 232.56C1181.08 231.44 1180.6 230.08 1180.6 228.48V218.16C1178.52 221.04 1175.72 223.92 1172.2 226.8C1168.68 229.52 1164.28 231.84 1159 233.76C1153.72 235.52 1147.24 236.4 1139.56 236.4ZM1144.6 218.4C1151.16 218.4 1157.16 217.04 1162.6 214.32C1168.04 211.44 1172.28 207.04 1175.32 201.12C1178.52 195.2 1180.12 187.76 1180.12 178.8V172.08L1152.28 176.16C1140.92 177.76 1132.36 180.48 1126.6 184.32C1120.84 188 1117.96 192.72 1117.96 198.48C1117.96 202.96 1119.24 206.72 1121.8 209.76C1124.52 212.64 1127.88 214.8 1131.88 216.24C1136.04 217.68 1140.28 218.4 1144.6 218.4Z" fill="#4D4158"/>
<path d="M76.6 264C75.32 264 74.2 263.52 73.24 262.56C72.28 261.6 71.8 260.48 71.8 259.2C71.8 258.4 71.88 257.52 72.04 256.56L131.56 101.28C132.2 99.68 133.08 98.4 134.2 97.44C135.32 96.48 137 96 139.24 96H155.56C157.64 96 159.24 96.48 160.36 97.44C161.64 98.4 162.6 99.68 163.24 101.28L222.52 256.56C222.84 257.52 223 258.4 223 259.2C223 260.48 222.52 261.6 221.56 262.56C220.6 263.52 219.48 264 218.2 264H205.96C204.04 264 202.6 263.52 201.64 262.56C200.84 261.6 200.28 260.72 199.96 259.92L186.76 225.84H108.04L94.84 259.92C94.68 260.72 94.12 261.6 93.16 262.56C92.2 263.52 90.76 264 88.84 264H76.6ZM115 205.2H179.8L147.4 120L115 205.2ZM251.061 264C249.461 264 248.101 263.52 246.981 262.56C246.021 261.44 245.541 260.08 245.541 258.48V144.96C245.541 143.36 246.021 142 246.981 140.88C248.101 139.76 249.461 139.2 251.061 139.2H262.101C263.701 139.2 265.061 139.76 266.181 140.88C267.301 142 267.861 143.36 267.861 144.96V155.52C271.061 150.08 275.461 146 281.061 143.28C286.661 140.56 293.381 139.2 301.221 139.2H310.821C312.421 139.2 313.701 139.76 314.661 140.88C315.621 141.84 316.101 143.12 316.101 144.72V154.56C316.101 156.16 315.621 157.44 314.661 158.4C313.701 159.36 312.421 159.84 310.821 159.84H296.421C287.781 159.84 280.981 162.4 276.021 167.52C271.061 172.48 268.581 179.28 268.581 187.92V258.48C268.581 260.08 268.021 261.44 266.901 262.56C265.781 263.52 264.421 264 262.821 264H251.061ZM398.393 266.4C388.793 266.4 380.793 264.72 374.393 261.36C367.993 257.84 362.873 253.52 359.033 248.4V258.48C359.033 260.08 358.473 261.44 357.353 262.56C356.393 263.52 355.113 264 353.513 264H342.473C340.873 264 339.513 263.52 338.393 262.56C337.433 261.44 336.953 260.08 336.953 258.48V99.12C336.953 97.52 337.433 96.24 338.393 95.28C339.513 94.16 340.873 93.6 342.473 93.6H353.993C355.753 93.6 357.113 94.16 358.073 95.28C359.033 96.24 359.513 97.52 359.513 99.12V154.32C363.513 149.36 368.633 145.2 374.873 141.84C381.273 138.48 389.113 136.8 398.393 136.8C407.353 136.8 414.953 138.4 421.193 141.6C427.593 144.64 432.793 148.88 436.793 154.32C440.953 159.76 444.073 165.92 446.153 172.8C448.233 179.68 449.353 186.88 449.513 194.4C449.673 196.96 449.753 199.36 449.753 201.6C449.753 203.84 449.673 206.24 449.513 208.8C449.353 216.48 448.233 223.76 446.153 230.64C444.073 237.52 440.953 243.68 436.793 249.12C432.793 254.4 427.593 258.64 421.193 261.84C414.953 264.88 407.353 266.4 398.393 266.4ZM393.353 246.96C401.673 246.96 408.153 245.2 412.793 241.68C417.593 238 421.033 233.28 423.113 227.52C425.193 221.6 426.393 215.28 426.713 208.56C426.873 203.92 426.873 199.28 426.713 194.64C426.393 187.92 425.193 181.68 423.113 175.92C421.033 170 417.593 165.28 412.793 161.76C408.153 158.08 401.673 156.24 393.353 156.24C385.833 156.24 379.593 158 374.633 161.52C369.673 165.04 365.913 169.52 363.353 174.96C360.953 180.4 359.673 185.92 359.513 191.52C359.353 194.08 359.273 197.2 359.273 200.88C359.273 204.4 359.353 207.44 359.513 210C359.833 215.92 361.113 221.76 363.353 227.52C365.753 233.12 369.353 237.76 374.153 241.44C379.113 245.12 385.513 246.96 393.353 246.96ZM529.128 266.4C512.648 266.4 499.528 261.36 489.768 251.28C480.008 241.04 474.648 227.12 473.688 209.52C473.528 207.44 473.448 204.8 473.448 201.6C473.448 198.24 473.528 195.52 473.688 193.44C474.328 182.08 476.968 172.16 481.608 163.68C486.248 155.04 492.568 148.4 500.568 143.76C508.728 139.12 518.248 136.8 529.128 136.8C541.288 136.8 551.448 139.36 559.608 144.48C567.928 149.6 574.248 156.88 578.568 166.32C582.888 175.76 585.047 186.8 585.047 199.44V203.52C585.047 205.28 584.488 206.64 583.368 207.6C582.408 208.56 581.128 209.04 579.528 209.04H496.488C496.488 209.2 496.488 209.52 496.488 210C496.488 210.48 496.488 210.88 496.488 211.2C496.808 217.76 498.248 223.92 500.808 229.68C503.368 235.28 507.048 239.84 511.848 243.36C516.648 246.88 522.408 248.64 529.128 248.64C534.888 248.64 539.688 247.76 543.528 246C547.368 244.24 550.488 242.32 552.888 240.24C555.288 238 556.888 236.32 557.688 235.2C559.128 233.12 560.248 231.92 561.048 231.6C561.848 231.12 563.128 230.88 564.888 230.88H576.408C578.008 230.88 579.288 231.36 580.248 232.32C581.368 233.12 581.848 234.32 581.688 235.92C581.528 238.32 580.248 241.28 577.848 244.8C575.448 248.16 572.008 251.52 567.528 254.88C563.048 258.24 557.608 261.04 551.208 263.28C544.808 265.36 537.448 266.4 529.128 266.4ZM496.488 192.48H562.248V191.76C562.248 184.56 560.888 178.16 558.168 172.56C555.608 166.96 551.848 162.56 546.888 159.36C541.928 156 536.008 154.32 529.128 154.32C522.248 154.32 516.328 156 511.368 159.36C506.568 162.56 502.888 166.96 500.328 172.56C497.768 178.16 496.488 184.56 496.488 191.76V192.48ZM703.984 309.6C702.224 309.6 700.864 309.04 699.904 307.92C698.944 306.96 698.464 305.68 698.464 304.08V248.4C694.464 253.52 689.264 257.84 682.864 261.36C676.624 264.72 668.864 266.4 659.584 266.4C650.784 266.4 643.184 264.88 636.784 261.84C630.384 258.64 625.104 254.48 620.944 249.36C616.944 244.08 613.904 238.08 611.824 231.36C609.904 224.48 608.784 217.28 608.464 209.76C608.304 207.2 608.224 204.48 608.224 201.6C608.224 198.72 608.304 196 608.464 193.44C608.784 185.76 609.904 178.56 611.824 171.84C613.904 165.12 616.944 159.12 620.944 153.84C625.104 148.56 630.384 144.4 636.784 141.36C643.184 138.32 650.784 136.8 659.584 136.8C669.184 136.8 677.184 138.56 683.584 142.08C689.984 145.6 695.104 150 698.944 155.28V144.72C698.944 143.12 699.424 141.84 700.384 140.88C701.504 139.76 702.864 139.2 704.464 139.2H715.504C717.104 139.2 718.384 139.76 719.344 140.88C720.464 141.84 721.024 143.12 721.024 144.72V304.08C721.024 305.68 720.464 306.96 719.344 307.92C718.384 309.04 717.104 309.6 715.504 309.6H703.984ZM664.624 246.96C672.304 246.96 678.544 245.2 683.344 241.68C688.304 238.16 691.984 233.68 694.384 228.24C696.944 222.8 698.304 217.28 698.464 211.68C698.624 208.96 698.704 205.84 698.704 202.32C698.704 198.8 698.624 195.76 698.464 193.2C698.304 187.28 697.024 181.52 694.624 175.92C692.224 170.16 688.544 165.44 683.584 161.76C678.784 158.08 672.464 156.24 664.624 156.24C656.464 156.24 649.984 158.08 645.184 161.76C640.384 165.28 636.944 170 634.864 175.92C632.784 181.68 631.584 187.92 631.264 194.64C631.104 199.28 631.104 203.92 631.264 208.56C631.584 215.28 632.784 221.6 634.864 227.52C636.944 233.28 640.384 238 645.184 241.68C649.984 245.2 656.464 246.96 664.624 246.96ZM803.273 266.4C793.033 266.4 784.313 264.16 777.113 259.68C770.073 255.04 764.713 248.64 761.033 240.48C757.353 232.32 755.513 222.96 755.513 212.4V144.72C755.513 143.12 755.993 141.84 756.953 140.88C758.073 139.76 759.433 139.2 761.033 139.2H773.033C774.633 139.2 775.913 139.76 776.873 140.88C777.993 141.84 778.553 143.12 778.553 144.72V211.2C778.553 235.04 788.953 246.96 809.753 246.96C819.673 246.96 827.593 243.84 833.513 237.6C839.593 231.2 842.633 222.4 842.633 211.2V144.72C842.633 143.12 843.113 141.84 844.073 140.88C845.193 139.76 846.553 139.2 848.153 139.2H859.913C861.673 139.2 863.033 139.76 863.993 140.88C864.953 141.84 865.433 143.12 865.433 144.72V258.48C865.433 260.08 864.953 261.44 863.993 262.56C863.033 263.52 861.673 264 859.913 264H848.873C847.273 264 845.913 263.52 844.793 262.56C843.833 261.44 843.353 260.08 843.353 258.48V247.92C839.033 253.52 833.753 258 827.513 261.36C821.433 264.72 813.353 266.4 803.273 266.4ZM906.608 264C905.008 264 903.648 263.52 902.528 262.56C901.568 261.44 901.088 260.08 901.088 258.48V144.72C901.088 143.12 901.568 141.84 902.528 140.88C903.648 139.76 905.008 139.2 906.608 139.2H918.128C919.728 139.2 921.008 139.76 921.968 140.88C922.928 141.84 923.408 143.12 923.408 144.72V258.48C923.408 260.08 922.928 261.44 921.968 262.56C921.008 263.52 919.728 264 918.128 264H906.608ZM904.688 115.92C903.088 115.92 901.728 115.44 900.608 114.48C899.648 113.36 899.168 112 899.168 110.4V97.44C899.168 95.84 899.648 94.56 900.608 93.6C901.728 92.48 903.088 91.92 904.688 91.92H919.808C921.408 91.92 922.688 92.48 923.648 93.6C924.768 94.56 925.328 95.84 925.328 97.44V110.4C925.328 112 924.768 113.36 923.648 114.48C922.688 115.44 921.408 115.92 919.808 115.92H904.688ZM964.733 264C963.133 264 961.773 263.52 960.653 262.56C959.693 261.44 959.213 260.08 959.213 258.48V144.72C959.213 143.12 959.693 141.84 960.653 140.88C961.773 139.76 963.133 139.2 964.733 139.2H976.013C977.613 139.2 978.893 139.76 979.853 140.88C980.973 141.84 981.533 143.12 981.533 144.72V155.28C985.693 149.84 990.893 145.44 997.133 142.08C1003.53 138.56 1011.69 136.8 1021.61 136.8C1032.01 136.8 1040.81 139.12 1048.01 143.76C1055.37 148.24 1060.89 154.56 1064.57 162.72C1068.25 170.72 1070.09 180.08 1070.09 190.8V258.48C1070.09 260.08 1069.61 261.44 1068.65 262.56C1067.69 263.52 1066.41 264 1064.81 264H1052.81C1051.21 264 1049.85 263.52 1048.73 262.56C1047.77 261.44 1047.29 260.08 1047.29 258.48V192C1047.29 180.8 1044.57 172.08 1039.13 165.84C1033.69 159.44 1025.69 156.24 1015.13 156.24C1005.21 156.24 997.213 159.44 991.133 165.84C985.213 172.08 982.253 180.8 982.253 192V258.48C982.253 260.08 981.693 261.44 980.573 262.56C979.613 263.52 978.333 264 976.733 264H964.733ZM1139.56 266.4C1131.56 266.4 1124.28 264.8 1117.72 261.6C1111.16 258.4 1105.88 254.08 1101.88 248.64C1097.88 243.2 1095.88 237.04 1095.88 230.16C1095.88 219.12 1100.36 210.32 1109.32 203.76C1118.28 197.2 1129.96 192.88 1144.36 190.8L1180.12 185.76V178.8C1180.12 171.12 1177.88 165.12 1173.4 160.8C1169.08 156.48 1161.96 154.32 1152.04 154.32C1144.84 154.32 1139 155.76 1134.52 158.64C1130.2 161.52 1127.16 165.2 1125.4 169.68C1124.44 172.08 1122.76 173.28 1120.36 173.28H1109.56C1107.8 173.28 1106.44 172.8 1105.48 171.84C1104.68 170.72 1104.28 169.44 1104.28 168C1104.28 165.6 1105.16 162.64 1106.92 159.12C1108.84 155.6 1111.72 152.16 1115.56 148.8C1119.4 145.44 1124.28 142.64 1130.2 140.4C1136.28 138 1143.64 136.8 1152.28 136.8C1161.88 136.8 1169.96 138.08 1176.52 140.64C1183.08 143.04 1188.2 146.32 1191.88 150.48C1195.72 154.64 1198.44 159.36 1200.04 164.64C1201.8 169.92 1202.68 175.28 1202.68 180.72V258.48C1202.68 260.08 1202.12 261.44 1201 262.56C1200.04 263.52 1198.76 264 1197.16 264H1186.12C1184.36 264 1183 263.52 1182.04 262.56C1181.08 261.44 1180.6 260.08 1180.6 258.48V248.16C1178.52 251.04 1175.72 253.92 1172.2 256.8C1168.68 259.52 1164.28 261.84 1159 263.76C1153.72 265.52 1147.24 266.4 1139.56 266.4ZM1144.6 248.4C1151.16 248.4 1157.16 247.04 1162.6 244.32C1168.04 241.44 1172.28 237.04 1175.32 231.12C1178.52 225.2 1180.12 217.76 1180.12 208.8V202.08L1152.28 206.16C1140.92 207.76 1132.36 210.48 1126.6 214.32C1120.84 218 1117.96 222.72 1117.96 228.48C1117.96 232.96 1119.24 236.72 1121.8 239.76C1124.52 242.64 1127.88 244.8 1131.88 246.24C1136.04 247.68 1140.28 248.4 1144.6 248.4Z" fill="#2B2233"/>
</g>
<defs>
<clipPath id="clip0_252:193">
<rect width="600" height="300" fill="white"/>
</clipPath>
</defs>
</svg>
