<svg width="600" height="300" viewBox="0 0 600 300" fill="none" xmlns="http://www.w3.org/2000/svg">
<g clip-path="url(#clip0_256:187)">
<rect width="600" height="300" fill="#FAF9FB"/>
<path d="M-549 68.1616L-528.163 70.148L-507.327 66.1752L-486.49 72.1345L-465.653 80.0802L-444.816 62.2023L-423.98 44L-403.143 76.1073H-382.306L-361.469 68.1616H-340.633L-319.796 61.8779L-298.959 68.1616L-278.122 64.1887L-257.286 51.9458L-236.449 60.2158L-215.613 70.148L-194.776 63.8644L-173.938 73.7966L-153.102 59.8915L-132.265 73.7966L-111.429 51.9458L-90.5918 49.9593L-69.7552 59.8915L-48.9183 67.8372L-28.0814 76.2695L-7.24488 84.2152H13.5917L34.4285 82.2288L55.2651 84.2152L76.1019 82.2288L96.9389 84.2152L117.776 82.2288L138.612 84.2152H159.449H181.125L201.122 91.9988H221.959H242.796H263.633H284.469H305.306H326.143L348.438 44.3243L367.816 91.9988L388.653 71.9838H409.49H430.327L451.163 91.9988H472L492.837 86.0395L513.674 91.9988H534.51H555.347H576.184H597.02L617.857 90.0124L638.694 91.9988H659.531H680.368H701.204H722.041L742.878 80.8794H763.714L784.551 72.9337L805.388 80.8794H826.225H847.061H867.898H888.735H909.572H930.408H951.245L972.082 80.8806H992.918H1013.76H1034.59H1055.43H1076.27H1097.1L1117.94 72.9348L1138.78 80.8806H1159.61L1180.45 92H1201.29H1222.12H1242.96H1263.8L1284.63 90.0136L1305.47 92H1326.31H1347.14H1367.98H1388.82L1409.65 86.0407L1430.49 92H1451.33L1472.16 71.985H1493H1507" stroke="#5C95FF" stroke-width="8" stroke-miterlimit="10" stroke-linecap="round" stroke-linejoin="round"/>
<path d="M-259 157.168L-238.163 159.237L-217.327 155.099L-196.49 161.307L-175.653 169.584L-154.816 150.961L-133.98 132L-113.143 165.445H-92.3061L-71.4694 157.168H-50.6329L-29.7958 150.623L-8.95917 157.168L11.8777 153.03L32.7142 140.277L53.5508 148.892L74.3874 159.237L95.2243 152.692L116.062 163.038L136.898 148.554L157.735 163.038L178.571 140.277L199.408 138.208L220.245 148.554L241.082 156.83L261.919 165.614L282.755 173.891H303.592L324.428 171.822L345.265 173.891L366.102 171.822L386.939 173.891L407.776 171.822L428.612 173.891H449.449H471.125L491.122 181.999H511.959H532.796H553.633H574.469H595.306H616.143L638.438 132.338L657.816 181.999L678.653 161.15H699.49H720.327L741.163 181.999H762L782.837 175.791L803.674 181.999H824.51H845.347H866.184H887.02L907.857 179.93L928.694 181.999H949.531H970.368H991.204H1012.04L1032.88 170.416H1053.71L1074.55 162.139L1095.39 170.416H1116.22H1137.06H1157.9H1178.73H1199.57H1220.41H1241.25L1262.08 170.417H1282.92H1303.76H1324.59H1345.43H1366.27H1387.1L1407.94 162.14L1428.78 170.417H1449.61L1470.45 182H1491.29H1512.12H1532.96H1553.8L1574.63 179.931L1595.47 182H1616.31H1637.14H1657.98H1678.82L1699.65 175.792L1720.49 182H1741.33L1762.16 161.151H1783H1797" stroke="#FFC227" stroke-width="8" stroke-miterlimit="10" stroke-linecap="round" stroke-linejoin="round" stroke-dasharray="10 14"/>
<path d="M-1009 226.162L-988.163 228.148L-967.327 224.175L-946.49 230.134L-925.653 238.08L-904.816 220.202L-883.979 202L-863.143 234.107H-842.306L-821.469 226.162H-800.633L-779.796 219.878L-758.959 226.162L-738.122 222.189L-717.286 209.946L-696.449 218.216L-675.613 228.148L-654.776 221.864L-633.938 231.797L-613.102 217.892L-592.265 231.797L-571.429 209.946L-550.592 207.959L-529.755 217.892L-508.918 225.837L-488.081 234.269L-467.245 242.215H-446.408L-425.572 240.229L-404.735 242.215L-383.898 240.229L-363.061 242.215L-342.224 240.229L-321.388 242.215H-300.551H-278.875L-258.878 249.999H-238.041H-217.204H-196.367H-175.531H-154.694H-133.857L-111.562 202.324L-92.1836 249.999L-71.3469 229.984H-50.51H-29.6733L-8.83679 249.999H12L32.8369 244.039L53.6737 249.999H74.5104H95.347H116.184H137.02L157.857 248.012L178.694 249.999H199.531H220.367H241.204H262.041L282.878 238.879H303.714L324.551 230.934L345.388 238.879H366.225H387.061H407.898H428.735H449.572H470.408H491.245L512.082 238.881H532.918H553.755H574.592H595.429H616.266H637.102L657.939 230.935L678.776 238.881H699.613L720.449 250H741.286H762.123H782.959H803.796L824.633 248.014L845.47 250H866.306H887.143H907.98H928.816L949.653 244.041L970.49 250H991.327L1012.16 229.985H1033H1047" stroke="#FA4C7C" stroke-width="8" stroke-miterlimit="10" stroke-linecap="round" stroke-linejoin="round" stroke-dasharray="1 8"/>
</g>
<defs>
<clipPath id="clip0_256:187">
<rect width="600" height="300" fill="white"/>
</clipPath>
</defs>
</svg>
