<svg width="600" height="300" viewBox="0 0 600 300" fill="none" xmlns="http://www.w3.org/2000/svg">
<g clip-path="url(#clip0_253:191)">
<rect width="600" height="300" fill="#FAF9FB"/>
<path d="M111.88 275.6C110.28 275.6 108.92 275.04 107.8 273.92C106.68 272.8 106.12 271.44 106.12 269.84V215.36C102.28 220.48 97.32 224.64 91.24 227.84C85.16 230.88 77.8 232.4 69.16 232.4C61 232.4 53.72 230.96 47.32 228.08C41.08 225.2 35.8 221.28 31.48 216.32C27.32 211.2 24.12 205.28 21.88 198.56C19.64 191.68 18.36 184.24 18.04 176.24C17.88 173.36 17.8 170.48 17.8 167.6C17.8 164.72 17.88 161.92 18.04 159.2C18.52 150.88 19.8 143.28 21.88 136.4C24.12 129.52 27.32 123.6 31.48 118.64C35.8 113.52 41.08 109.6 47.32 106.88C53.72 104.16 61 102.8 69.16 102.8C78.44 102.8 86.2 104.48 92.44 107.84C98.84 111.2 103.88 115.44 107.56 120.56V110.96C107.56 109.36 108.12 108 109.24 106.88C110.36 105.76 111.72 105.2 113.32 105.2H132.52C134.12 105.2 135.48 105.76 136.6 106.88C137.72 108 138.28 109.36 138.28 110.96V269.84C138.28 271.44 137.72 272.8 136.6 273.92C135.48 275.04 134.12 275.6 132.52 275.6H111.88ZM78.28 206.72C84.68 206.72 89.88 205.28 93.88 202.4C97.88 199.52 100.84 195.92 102.76 191.6C104.84 187.12 105.96 182.48 106.12 177.68C106.44 174.64 106.6 171.52 106.6 168.32C106.6 165.12 106.44 162.08 106.12 159.2C105.96 154.24 104.92 149.44 103 144.8C101.08 140 98.12 136.08 94.12 133.04C90.12 130 84.84 128.48 78.28 128.48C71.56 128.48 66.2 130 62.2 133.04C58.2 135.92 55.32 139.76 53.56 144.56C51.96 149.36 51 154.64 50.68 160.4C50.36 165.2 50.36 170 50.68 174.8C51 180.56 51.96 185.84 53.56 190.64C55.32 195.44 58.2 199.36 62.2 202.4C66.2 205.28 71.56 206.72 78.28 206.72ZM216.582 232.4C206.822 232.4 198.342 230.24 191.142 225.92C184.102 221.44 178.662 215.2 174.822 207.2C170.982 199.04 169.062 189.44 169.062 178.4V110.96C169.062 109.36 169.622 108 170.742 106.88C171.862 105.76 173.222 105.2 174.822 105.2H195.942C197.702 105.2 199.062 105.76 200.022 106.88C201.142 108 201.702 109.36 201.702 110.96V176.96C201.702 196.8 210.422 206.72 227.862 206.72C236.182 206.72 242.742 204.08 247.542 198.8C252.502 193.52 254.982 186.24 254.982 176.96V110.96C254.982 109.36 255.542 108 256.662 106.88C257.782 105.76 259.142 105.2 260.742 105.2H281.862C283.462 105.2 284.822 105.76 285.942 106.88C287.062 108 287.622 109.36 287.622 110.96V224.24C287.622 225.84 287.062 227.2 285.942 228.32C284.822 229.44 283.462 230 281.862 230H262.422C260.662 230 259.222 229.44 258.102 228.32C257.142 227.2 256.662 225.84 256.662 224.24V214.4C252.342 220 246.982 224.4 240.582 227.6C234.182 230.8 226.182 232.4 216.582 232.4ZM325.084 230C323.484 230 322.124 229.44 321.004 228.32C319.884 227.2 319.324 225.84 319.324 224.24V110.96C319.324 109.36 319.884 108 321.004 106.88C322.124 105.76 323.484 105.2 325.084 105.2H345.004C346.764 105.2 348.124 105.76 349.084 106.88C350.204 108 350.764 109.36 350.764 110.96V224.24C350.764 225.84 350.204 227.2 349.084 228.32C348.124 229.44 346.764 230 345.004 230H325.084ZM324.124 84.56C322.364 84.56 320.924 84.08 319.804 83.12C318.844 82 318.364 80.56 318.364 78.8V61.52C318.364 59.92 318.844 58.56 319.804 57.44C320.924 56.32 322.364 55.76 324.124 55.76H345.964C347.724 55.76 349.164 56.32 350.284 57.44C351.404 58.56 351.964 59.92 351.964 61.52V78.8C351.964 80.56 351.404 82 350.284 83.12C349.164 84.08 347.724 84.56 345.964 84.56H324.124ZM388.366 230C386.766 230 385.406 229.44 384.286 228.32C383.166 227.2 382.606 225.84 382.606 224.24V110.96C382.606 109.36 383.166 108 384.286 106.88C385.406 105.76 386.766 105.2 388.366 105.2H408.046C409.646 105.2 411.006 105.76 412.126 106.88C413.246 108 413.806 109.36 413.806 110.96V120.8C417.966 115.68 423.246 111.44 429.646 108.08C436.206 104.56 444.286 102.8 453.886 102.8C463.646 102.8 472.126 105.04 479.326 109.52C486.526 113.84 492.046 120 495.886 128C499.886 136 501.886 145.6 501.886 156.8V224.24C501.886 225.84 501.326 227.2 500.206 228.32C499.086 229.44 497.726 230 496.126 230H475.006C473.406 230 472.046 229.44 470.926 228.32C469.806 227.2 469.246 225.84 469.246 224.24V158.24C469.246 148.96 466.926 141.68 462.286 136.4C457.806 131.12 451.246 128.48 442.606 128.48C434.286 128.48 427.646 131.12 422.686 136.4C417.726 141.68 415.246 148.96 415.246 158.24V224.24C415.246 225.84 414.686 227.2 413.566 228.32C412.446 229.44 411.086 230 409.486 230H388.366ZM568.611 232.4C560.291 232.4 552.771 230.8 546.051 227.6C539.331 224.24 533.971 219.84 529.971 214.4C526.131 208.8 524.211 202.56 524.211 195.68C524.211 184.48 528.691 175.6 537.651 169.04C546.771 162.32 558.771 157.84 573.651 155.6L606.531 150.8V145.76C606.531 139.04 604.851 133.84 601.491 130.16C598.131 126.48 592.371 124.64 584.211 124.64C578.451 124.64 573.731 125.84 570.051 128.24C566.531 130.48 563.891 133.52 562.131 137.36C560.851 139.44 559.011 140.48 556.611 140.48H537.651C535.891 140.48 534.531 140 533.571 139.04C532.771 138.08 532.371 136.8 532.371 135.2C532.531 132.64 533.571 129.52 535.491 125.84C537.411 122.16 540.451 118.64 544.611 115.28C548.771 111.76 554.131 108.8 560.691 106.4C567.251 104 575.171 102.8 584.451 102.8C594.531 102.8 603.011 104.08 609.891 106.64C616.931 109.04 622.531 112.32 626.691 116.48C630.851 120.64 633.891 125.52 635.811 131.12C637.731 136.72 638.691 142.64 638.691 148.88V224.24C638.691 225.84 638.131 227.2 637.011 228.32C635.891 229.44 634.531 230 632.931 230H613.491C611.731 230 610.291 229.44 609.171 228.32C608.211 227.2 607.731 225.84 607.731 224.24V214.88C605.651 217.92 602.851 220.8 599.331 223.52C595.811 226.08 591.491 228.24 586.371 230C581.411 231.6 575.491 232.4 568.611 232.4ZM576.771 209.6C582.371 209.6 587.411 208.4 591.891 206C596.531 203.6 600.131 199.92 602.691 194.96C605.411 189.84 606.771 183.44 606.771 175.76V170.72L582.771 174.56C573.331 176 566.291 178.32 561.651 181.52C557.011 184.72 554.691 188.64 554.691 193.28C554.691 196.8 555.731 199.84 557.811 202.4C560.051 204.8 562.851 206.64 566.211 207.92C569.571 209.04 573.091 209.6 576.771 209.6Z" fill="#2BA185" fill-opacity="0.1"/>
<path d="M111.88 305.6C110.28 305.6 108.92 305.04 107.8 303.92C106.68 302.8 106.12 301.44 106.12 299.84V245.36C102.28 250.48 97.32 254.64 91.24 257.84C85.16 260.88 77.8 262.4 69.16 262.4C61 262.4 53.72 260.96 47.32 258.08C41.08 255.2 35.8 251.28 31.48 246.32C27.32 241.2 24.12 235.28 21.88 228.56C19.64 221.68 18.36 214.24 18.04 206.24C17.88 203.36 17.8 200.48 17.8 197.6C17.8 194.72 17.88 191.92 18.04 189.2C18.52 180.88 19.8 173.28 21.88 166.4C24.12 159.52 27.32 153.6 31.48 148.64C35.8 143.52 41.08 139.6 47.32 136.88C53.72 134.16 61 132.8 69.16 132.8C78.44 132.8 86.2 134.48 92.44 137.84C98.84 141.2 103.88 145.44 107.56 150.56V140.96C107.56 139.36 108.12 138 109.24 136.88C110.36 135.76 111.72 135.2 113.32 135.2H132.52C134.12 135.2 135.48 135.76 136.6 136.88C137.72 138 138.28 139.36 138.28 140.96V299.84C138.28 301.44 137.72 302.8 136.6 303.92C135.48 305.04 134.12 305.6 132.52 305.6H111.88ZM78.28 236.72C84.68 236.72 89.88 235.28 93.88 232.4C97.88 229.52 100.84 225.92 102.76 221.6C104.84 217.12 105.96 212.48 106.12 207.68C106.44 204.64 106.6 201.52 106.6 198.32C106.6 195.12 106.44 192.08 106.12 189.2C105.96 184.24 104.92 179.44 103 174.8C101.08 170 98.12 166.08 94.12 163.04C90.12 160 84.84 158.48 78.28 158.48C71.56 158.48 66.2 160 62.2 163.04C58.2 165.92 55.32 169.76 53.56 174.56C51.96 179.36 51 184.64 50.68 190.4C50.36 195.2 50.36 200 50.68 204.8C51 210.56 51.96 215.84 53.56 220.64C55.32 225.44 58.2 229.36 62.2 232.4C66.2 235.28 71.56 236.72 78.28 236.72ZM216.582 262.4C206.822 262.4 198.342 260.24 191.142 255.92C184.102 251.44 178.662 245.2 174.822 237.2C170.982 229.04 169.062 219.44 169.062 208.4V140.96C169.062 139.36 169.622 138 170.742 136.88C171.862 135.76 173.222 135.2 174.822 135.2H195.942C197.702 135.2 199.062 135.76 200.022 136.88C201.142 138 201.702 139.36 201.702 140.96V206.96C201.702 226.8 210.422 236.72 227.862 236.72C236.182 236.72 242.742 234.08 247.542 228.8C252.502 223.52 254.982 216.24 254.982 206.96V140.96C254.982 139.36 255.542 138 256.662 136.88C257.782 135.76 259.142 135.2 260.742 135.2H281.862C283.462 135.2 284.822 135.76 285.942 136.88C287.062 138 287.622 139.36 287.622 140.96V254.24C287.622 255.84 287.062 257.2 285.942 258.32C284.822 259.44 283.462 260 281.862 260H262.422C260.662 260 259.222 259.44 258.102 258.32C257.142 257.2 256.662 255.84 256.662 254.24V244.4C252.342 250 246.982 254.4 240.582 257.6C234.182 260.8 226.182 262.4 216.582 262.4ZM325.084 260C323.484 260 322.124 259.44 321.004 258.32C319.884 257.2 319.324 255.84 319.324 254.24V140.96C319.324 139.36 319.884 138 321.004 136.88C322.124 135.76 323.484 135.2 325.084 135.2H345.004C346.764 135.2 348.124 135.76 349.084 136.88C350.204 138 350.764 139.36 350.764 140.96V254.24C350.764 255.84 350.204 257.2 349.084 258.32C348.124 259.44 346.764 260 345.004 260H325.084ZM324.124 114.56C322.364 114.56 320.924 114.08 319.804 113.12C318.844 112 318.364 110.56 318.364 108.8V91.52C318.364 89.92 318.844 88.56 319.804 87.44C320.924 86.32 322.364 85.76 324.124 85.76H345.964C347.724 85.76 349.164 86.32 350.284 87.44C351.404 88.56 351.964 89.92 351.964 91.52V108.8C351.964 110.56 351.404 112 350.284 113.12C349.164 114.08 347.724 114.56 345.964 114.56H324.124ZM388.366 260C386.766 260 385.406 259.44 384.286 258.32C383.166 257.2 382.606 255.84 382.606 254.24V140.96C382.606 139.36 383.166 138 384.286 136.88C385.406 135.76 386.766 135.2 388.366 135.2H408.046C409.646 135.2 411.006 135.76 412.126 136.88C413.246 138 413.806 139.36 413.806 140.96V150.8C417.966 145.68 423.246 141.44 429.646 138.08C436.206 134.56 444.286 132.8 453.886 132.8C463.646 132.8 472.126 135.04 479.326 139.52C486.526 143.84 492.046 150 495.886 158C499.886 166 501.886 175.6 501.886 186.8V254.24C501.886 255.84 501.326 257.2 500.206 258.32C499.086 259.44 497.726 260 496.126 260H475.006C473.406 260 472.046 259.44 470.926 258.32C469.806 257.2 469.246 255.84 469.246 254.24V188.24C469.246 178.96 466.926 171.68 462.286 166.4C457.806 161.12 451.246 158.48 442.606 158.48C434.286 158.48 427.646 161.12 422.686 166.4C417.726 171.68 415.246 178.96 415.246 188.24V254.24C415.246 255.84 414.686 257.2 413.566 258.32C412.446 259.44 411.086 260 409.486 260H388.366ZM568.611 262.4C560.291 262.4 552.771 260.8 546.051 257.6C539.331 254.24 533.971 249.84 529.971 244.4C526.131 238.8 524.211 232.56 524.211 225.68C524.211 214.48 528.691 205.6 537.651 199.04C546.771 192.32 558.771 187.84 573.651 185.6L606.531 180.8V175.76C606.531 169.04 604.851 163.84 601.491 160.16C598.131 156.48 592.371 154.64 584.211 154.64C578.451 154.64 573.731 155.84 570.051 158.24C566.531 160.48 563.891 163.52 562.131 167.36C560.851 169.44 559.011 170.48 556.611 170.48H537.651C535.891 170.48 534.531 170 533.571 169.04C532.771 168.08 532.371 166.8 532.371 165.2C532.531 162.64 533.571 159.52 535.491 155.84C537.411 152.16 540.451 148.64 544.611 145.28C548.771 141.76 554.131 138.8 560.691 136.4C567.251 134 575.171 132.8 584.451 132.8C594.531 132.8 603.011 134.08 609.891 136.64C616.931 139.04 622.531 142.32 626.691 146.48C630.851 150.64 633.891 155.52 635.811 161.12C637.731 166.72 638.691 172.64 638.691 178.88V254.24C638.691 255.84 638.131 257.2 637.011 258.32C635.891 259.44 634.531 260 632.931 260H613.491C611.731 260 610.291 259.44 609.171 258.32C608.211 257.2 607.731 255.84 607.731 254.24V244.88C605.651 247.92 602.851 250.8 599.331 253.52C595.811 256.08 591.491 258.24 586.371 260C581.411 261.6 575.491 262.4 568.611 262.4ZM576.771 239.6C582.371 239.6 587.411 238.4 591.891 236C596.531 233.6 600.131 229.92 602.691 224.96C605.411 219.84 606.771 213.44 606.771 205.76V200.72L582.771 204.56C573.331 206 566.291 208.32 561.651 211.52C557.011 214.72 554.691 218.64 554.691 223.28C554.691 226.8 555.731 229.84 557.811 232.4C560.051 234.8 562.851 236.64 566.211 237.92C569.571 239.04 573.091 239.6 576.771 239.6Z" fill="#2BA185" fill-opacity="0.5"/>
</g>
<defs>
<clipPath id="clip0_253:191">
<rect width="600" height="300" fill="white"/>
</clipPath>
</defs>
</svg>
