<svg width="600" height="300" viewBox="0 0 600 300" fill="none" xmlns="http://www.w3.org/2000/svg">
<g clip-path="url(#clip0_256:189)">
<rect width="600" height="300" fill="#FAF9FB"/>
<path d="M-549 68.1616L-528.163 70.148L-507.327 66.1752L-486.49 72.1345L-465.653 80.0802L-444.816 62.2023L-423.98 44L-403.143 76.1073H-382.306L-361.469 68.1616H-340.633L-319.796 61.8779L-298.959 68.1616L-278.122 64.1887L-257.286 51.9458L-236.449 60.2158L-215.613 70.148L-194.776 63.8644L-173.938 73.7966L-153.102 59.8915L-132.265 73.7966L-111.429 51.9458L-90.5918 49.9593L-69.7552 59.8915L-48.9183 67.8372L-28.0814 76.2695L-7.24488 84.2152H13.5917L34.4285 82.2288L55.2651 84.2152L76.1019 82.2288L96.9389 84.2152L117.776 82.2288L138.612 84.2152H159.449H181.125L201.122 91.9988H221.959H242.796H263.633H284.469H305.306H326.143L348.438 44.3243L367.816 91.9988L388.653 71.9838H409.49H430.327L451.163 91.9988H472L492.837 86.0395L513.674 91.9988H534.51H555.347H576.184H597.02L617.857 90.0124L638.694 91.9988H659.531H680.368H701.204H722.041L742.878 80.8794H763.714L784.551 72.9337L805.388 80.8794H826.225H847.061H867.898H888.735H909.572H930.408H951.245L972.082 80.8806H992.918H1013.76H1034.59H1055.43H1076.27H1097.1L1117.94 72.9348L1138.78 80.8806H1159.61L1180.45 92H1201.29H1222.12H1242.96H1263.8L1284.63 90.0136L1305.47 92H1326.31H1347.14H1367.98H1388.82L1409.65 86.0407L1430.49 92H1451.33L1472.16 71.985H1493H1507" stroke="#5C95FF" stroke-width="8" stroke-miterlimit="10" stroke-linecap="round" stroke-linejoin="round"/>
<path d="M-249 157.168L-228.163 159.237L-207.327 155.099L-186.49 161.307L-165.653 169.584L-144.816 150.961L-123.98 132L-103.143 165.445H-82.3061L-61.4694 157.168H-40.6329L-19.7958 150.623L1.04083 157.168L21.8777 153.03L42.7142 140.277L63.5508 148.892L84.3874 159.237L105.224 152.692L126.062 163.038L146.898 148.554L167.735 163.038L188.571 140.277L209.408 138.208L230.245 148.554L251.082 156.83L271.919 165.614L292.755 173.891H313.592L334.428 171.822L355.265 173.891L376.102 171.822L396.939 173.891L417.776 171.822L438.612 173.891H459.449H481.125L501.122 181.999H521.959H542.796H563.633H584.469H605.306H626.143L648.438 132.338L667.816 181.999L688.653 161.15H709.49H730.327L751.163 181.999H772L792.837 175.791L813.674 181.999H834.51H855.347H876.184H897.02L917.857 179.93L938.694 181.999H959.531H980.368H1001.2H1022.04L1042.88 170.416H1063.71L1084.55 162.139L1105.39 170.416H1126.22H1147.06H1167.9H1188.73H1209.57H1230.41H1251.25L1272.08 170.417H1292.92H1313.76H1334.59H1355.43H1376.27H1397.1L1417.94 162.14L1438.78 170.417H1459.61L1480.45 182H1501.29H1522.12H1542.96H1563.8L1584.63 179.931L1605.47 182H1626.31H1647.14H1667.98H1688.82L1709.65 175.792L1730.49 182H1751.33L1772.16 161.151H1793H1807" stroke="#FFC227" stroke-width="8" stroke-miterlimit="10" stroke-linecap="round" stroke-linejoin="round"/>
<path d="M-1009 226.162L-988.163 228.148L-967.327 224.175L-946.49 230.134L-925.653 238.08L-904.816 220.202L-883.98 202L-863.143 234.107H-842.306L-821.469 226.162H-800.633L-779.796 219.878L-758.959 226.162L-738.122 222.189L-717.286 209.946L-696.449 218.216L-675.613 228.148L-654.776 221.864L-633.938 231.797L-613.102 217.892L-592.265 231.797L-571.429 209.946L-550.592 207.959L-529.755 217.892L-508.918 225.837L-488.081 234.269L-467.245 242.215H-446.408L-425.572 240.229L-404.735 242.215L-383.898 240.229L-363.061 242.215L-342.224 240.229L-321.388 242.215H-300.551H-278.875L-258.878 249.999H-238.041H-217.204H-196.367H-175.531H-154.694H-133.857L-111.562 202.324L-92.1836 249.999L-71.3469 229.984H-50.51H-29.6733L-8.83677 249.999H12L32.8369 244.039L53.6737 249.999H74.5104H95.347H116.184H137.02L157.857 248.012L178.694 249.999H199.531H220.368H241.204H262.041L282.878 238.879H303.714L324.551 230.934L345.388 238.879H366.225H387.061H407.898H428.735H449.572H470.408H491.245L512.082 238.881H532.918H553.756H574.592H595.429H616.266H637.102L657.939 230.935L678.776 238.881H699.613L720.449 250H741.286H762.123H782.959H803.796L824.633 248.014L845.47 250H866.306H887.143H907.98H928.816L949.653 244.041L970.49 250H991.327L1012.16 229.985H1033H1047" stroke="#FA4C7C" stroke-width="8" stroke-miterlimit="10" stroke-linecap="round" stroke-linejoin="round"/>
</g>
<defs>
<clipPath id="clip0_256:189">
<rect width="600" height="300" fill="white"/>
</clipPath>
</defs>
</svg>
