<?xml version="1.0" encoding="UTF-8" standalone="no"?>
<!-- Created with Inkscape (http://www.inkscape.org/) -->

<svg
   xmlns:dc="http://purl.org/dc/elements/1.1/"
   xmlns:cc="http://creativecommons.org/ns#"
   xmlns:rdf="http://www.w3.org/1999/02/22-rdf-syntax-ns#"
   xmlns:svg="http://www.w3.org/2000/svg"
   xmlns="http://www.w3.org/2000/svg"
   xmlns:sodipodi="http://sodipodi.sourceforge.net/DTD/sodipodi-0.dtd"
   xmlns:inkscape="http://www.inkscape.org/namespaces/inkscape"
   version="1.1"
   id="svg895"
   width="100"
   height="100"
   viewBox="0 0 100 100"
   sodipodi:docname="santry-glyph.svg"
   inkscape:version="0.92.2 5c3e80d, 2017-08-06">
  <metadata
     id="metadata901">
    <rdf:RDF>
      <cc:Work
         rdf:about="">
        <dc:format>image/svg+xml</dc:format>
        <dc:type
           rdf:resource="http://purl.org/dc/dcmitype/StillImage" />
        <dc:title></dc:title>
      </cc:Work>
    </rdf:RDF>
  </metadata>
  <defs
     id="defs899" />
  <sodipodi:namedview
     pagecolor="#ffffff"
     bordercolor="#666666"
     borderopacity="1"
     objecttolerance="10"
     gridtolerance="10"
     guidetolerance="10"
     inkscape:pageopacity="0"
     inkscape:pageshadow="2"
     inkscape:window-width="1862"
     inkscape:window-height="1321"
     id="namedview897"
     showgrid="false"
     inkscape:zoom="6.8291391"
     inkscape:cx="80.273762"
     inkscape:cy="46.031976"
     inkscape:window-x="0"
     inkscape:window-y="0"
     inkscape:window-maximized="0"
     inkscape:current-layer="svg895"
     inkscape:snap-page="true"
     inkscape:snap-grids="true"
     inkscape:snap-to-guides="true"
     units="px" />
  <path
     style="fill:#e6e6e6;fill-opacity:1;stroke:none;stroke-width:0.46367642px;stroke-linecap:butt;stroke-linejoin:miter;stroke-opacity:1"
     d="m 15.690123,56.001634 -3.034054,2.729477 -4.481187,3.666429 c -4.158564,2.551101 -5.29425,5.157611 -7.468643,8.419204 -1.08760102,2.58889 -0.741728,6.20297 2.463584,7.839099 3.598781,1.326718 6.263754,0.715916 10.029419,0.715916 l 11.94983,0.271575 c 0,0 3.097127,-0.175547 5.401617,-0.94372 3.2647,-0.192054 6.819794,0.672145 6.819794,0.672145 l 1.35794,-1.90112 -0.81476,-8.147629 -0.27159,-7.061235 -3.259042,-4.888587 -2.172695,-3.530618 h -0.814763 l 5.97491,-3.259042 2.98746,1.629498 4.88857,4.34539 1.08635,3.259089 0.54317,2.987421 -0.54317,5.160162 v 4.073814 l 1.08635,4.888587 0.81476,2.98742 c 0,0 -2.57043,1.646006 -0.94091,1.646006 1.62952,0 8.57434,-1.625093 12.07597,-2.076668 3.72268,-0.48009 7.33286,-0.655685 9.77714,-0.92726 2.44428,-0.271576 1.35794,-2.987467 1.62952,-5.160162 0.27159,-2.172695 0,-7.876007 -2.44428,-11.13505 -2.44429,-3.259043 -5.16016,-4.888587 -6.2465,-7.061282 -1.08635,-2.172695 -4.07381,-10.591899 -6.2465,-13.850941 -2.1727,-3.259042 -4.07381,-6.518086 -4.07381,-6.518086 0,0 3.53063,-3.530617 5.43174,-6.789659 1.90111,-3.259043 4.34539,-4.073815 5.70333,-5.160162 1.35793,-1.086348 2.98745,-2.987467 2.98745,-2.987467 0,0 3.53063,2.172695 5.43175,3.802239 1.9011,1.629498 4.88856,4.073768 6.51808,6.78966 1.62953,2.715892 3.40449,6.7732 5.03401,9.21747 1.62953,2.444316 3.92837,7.077742 5.01472,10.879981 1.08634,3.802193 2.17269,9.777128 2.17269,11.678247 0,1.90112 0.27159,4.616965 0,7.876008 -0.27158,3.259042 -3.53063,3.802239 -3.53063,3.802239 0,0 -5.27265,-0.159088 -7.17376,0.112488 -1.90111,0.271575 -0.60342,1.887441 -0.60342,1.887441 0,0 -0.83561,1.781723 0.71272,2.61277 0.93965,0.504341 3.29313,0.365331 5.34457,0.467896 5.43174,0.271575 13.89189,0.175548 13.89189,0.175548 0,0 1.023277,-0.367603 1.023277,-2.811873 0,-2.44427 -0.1125,-8.770346 -0.927267,-11.214616 -0.81476,-2.444271 -4.88856,-14.857723 -5.70332,-17.84519 -0.81477,-2.987467 -1.27839,-5.368678 -2.42782,-7.365825 -1.62952,-1.901073 -2.50735,-3.49765 -3.05052,-5.39877 -0.54318,-1.901119 -5.3056,-9.903293 -9.3794,-14.248683 -4.07381,-4.345389 -5.43277,-5.328615 -10.95951,-7.286257 -4.31965,-1.530039 -13.72197,1.198835 -17.52419,2.82838 -3.80221,1.629498 -4.29596,6.902147 -4.29596,8.803267 0,1.901119 0.87783,17.236151 0.87783,17.236151 0,0 3.53063,6.78966 5.16015,8.962354 1.62952,2.172695 6.78968,10.863476 7.33285,13.03617 0.54317,2.172695 0,6.518085 0,6.518085 0,0 -1.35793,1.357969 -3.53063,1.357969 -2.1727,0 -2.98745,-1.629544 -2.98745,-1.629544 0,0 -0.78465,-5.080595 -1.05623,-7.25329 -0.27159,-2.172696 -3.01758,-7.684 -3.83234,-9.585119 -0.81477,-1.901074 -5.97492,-7.604432 -9.50555,-8.419205 -1.64754,-0.380168 -3.965436,-0.06032 -5.855199,0.531281 -1.43533,0.449349 -3.814894,0.14717 -4.77438,1.388247 -0.484398,0.626566 0.251712,2.361921 -0.08846,3.333834 -1.90111,5.431737 1.755665,15.387287 1.755665,15.387287 0,0 2.987457,4.345389 -0.271585,6.518084 -3.259047,2.172695 -15.79704,0.884231 -17.924745,-0.543197 -1.308512,-0.877831 2.468752,-3.69768 2.468752,-3.69768 0,0 1.990449,-4.131079 3.824347,-5.92036 2.030078,-1.98064 4.298794,-6.133975 2.940861,-6.948747 -1.357936,-0.814772 -2.570427,1.072716 -4.298796,1.072716 z"
     id="path905"
     inkscape:connector-curvature="0"
     sodipodi:nodetypes="ccccccccccccccccccccccccssscssccsccsssssccccsscssccsssssccscsccccssscsscscc" />
</svg>
