<?xml version="1.0" encoding="utf-8"?>
<!-- Generator: Adobe Illustrator 18.1.1, SVG Export Plug-In . SVG Version: 6.00 Build 0)  -->
<!DOCTYPE svg PUBLIC "-//W3C//DTD SVG 1.1//EN" "http://www.w3.org/Graphics/SVG/1.1/DTD/svg11.dtd">
<svg version="1.1" id="Layer_1" xmlns="http://www.w3.org/2000/svg" xmlns:xlink="http://www.w3.org/1999/xlink" x="0px" y="0px"
	 viewBox="587.1 192.4 1385 1233.5" enable-background="new 587.1 192.4 1385 1233.5" xml:space="preserve">
<path d="M1954.8,1361.6c23-40.5,23-87.6,0-127.8l-564.4-977.8c-23-40.5-64.3-63.5-110.6-63.5c-46.3,0-87.6,24.1-110.6,63.5
	L986.4,572.5l46,26.7c135.4,78.2,248.6,190.6,326.8,326.8c70.1,120.5,110.6,254.9,117.9,393.2h-127.8
	c-8.4-115-42.4-228.2-101.2-329.7c-66.4-116.9-162.9-213.6-279-280.8l-46-26.7L752.9,978.6l46,26.7
	c113.2,65.4,192.4,185.1,208.9,314H715c-11,0-15.7-6.5-18.3-10.2c-1.8-3.7-5.5-12,0-21.2l81.8-140.9c-27.7-23-58.8-41.3-93.1-53.3
	l-81,140.9c-23,40.5-23,87.6,0,127.8c23,40.3,64.3,63.5,110.6,63.5h402.4v-53.3c0-93.1-24.8-185.1-70.8-266.1
	c-37.6-65.4-89.4-121.6-150.1-165.8l64.3-110.6c80,55.2,147.2,127.8,196.1,212.5c58,100.4,88.4,214.4,88.4,329.7v53.3h340.7v-53.1
	c0-174.9-46-348-134.4-499.9c-78.2-137.3-188.8-253.1-319.5-338.8L1262,309.3c5.5-9.2,13.9-10.2,18.3-10.2s12.8,1,18.3,10.2
	l564.4,977.8c5.5,9.2,1.8,17.5,0,21.2c-1.8,3.7-7.3,10.2-18.3,10.2h-132.5c1.8,35.8,1.8,70.8,0,106.7h132.5
	C1890.5,1425.9,1931.8,1402.1,1954.8,1361.6z"/>
</svg>
