<?xml version="1.0" encoding="utf-8"?>
<!-- Generator: Adobe Illustrator 18.1.1, SVG Export Plug-In . SVG Version: 6.00 Build 0)  -->
<!DOCTYPE svg PUBLIC "-//W3C//DTD SVG 1.1//EN" "http://www.w3.org/Graphics/SVG/1.1/DTD/svg11.dtd">
<svg version="1.1" id="Layer_1" xmlns="http://www.w3.org/2000/svg" xmlns:xlink="http://www.w3.org/1999/xlink" x="0px" y="0px"
	 viewBox="0 0 792 612" enable-background="new 0 0 792 612" xml:space="preserve">
<path d="M654.1,520.8c8.8-15.5,8.8-33.5,0-48.9l-215.9-374c-8.8-15.5-24.6-24.3-42.3-24.3s-33.5,9.2-42.3,24.3L283.7,219l17.6,10.2
	c51.8,29.9,95.1,72.9,125,125c26.8,46.1,42.3,97.5,45.1,150.4h-48.9c-3.2-44-16.2-87.3-38.7-126.1c-25.4-44.7-62.3-81.7-106.7-107.4
	l-17.6-10.2l-65.1,113.4l17.6,10.2c43.3,25,73.6,70.8,79.9,120.1h-112c-4.2,0-6-2.5-7-3.9c-0.7-1.4-2.1-4.6,0-8.1l31.3-53.9
	c-10.6-8.8-22.5-15.8-35.6-20.4l-31,53.9c-8.8,15.5-8.8,33.5,0,48.9s24.6,24.3,42.3,24.3h153.9V525c0-35.6-9.5-70.8-27.1-101.8
	c-14.4-25-34.2-46.5-57.4-63.4l24.6-42.3c30.6,21.1,56.3,48.9,75,81.3c22.2,38.4,33.8,82,33.8,126.1v20.4h130.3V525
	c0-66.9-17.6-133.1-51.4-191.2c-29.9-52.5-72.2-96.8-122.2-129.6l49.7-85.9c2.1-3.5,5.3-3.9,7-3.9s4.9,0.4,7,3.9l215.9,374
	c2.1,3.5,0.7,6.7,0,8.1c-0.7,1.4-2.8,3.9-7,3.9h-50.7c0.7,13.7,0.7,27.1,0,40.8h50.7C629.5,545.4,645.3,536.3,654.1,520.8z"/>
</svg>
