<svg xmlns="http://www.w3.org/2000/svg" viewBox="0 0 414.84 347.98"><g data-name="Action Required Final"><path fill="#c8c1db" d="M286.25 163.79h-6.65l2.19 3.71-48.32.41 2.44-4.12h-7.92l-.71 6.38 59.42-.62-.45-5.76z"/><path fill="#f4824e" d="M257.77 126.84l-21.86 36.95h43.69l-21.83-36.95z"/><path fill="#be6243" d="M281.79 167.5l-2.19-3.71h-43.69l-2.44 4.12 48.32-.41z"/><path fill="#c8c1db" d="M207.93 64.27l-14.15-18.42h-4.02l-18.5 22.41-38.19-60.59-16.71 30.1 7.35 3.4 10.59-19.83 33.88 53.33h5.97l17.32-20.8 10.42 13.86 6.04-3.46z"/><path d="M94 80.94s2.21 13.94 11.35 20.2l-5.68.29s-10.39-4.53-11.93-19zm147.08-40.48l5.52-26.56a51.56 51.56 0 0121.69-.9l3.85 27.33z" fill="#f4824e"/><path d="M296.65 92.06a40.69 40.69 0 00-1.38-6.3c.15 1.11.28 2.26.35 3.47l-29-.49a8.6 8.6 0 00-2.72-6.44l19.54-15.21c-4.55-3.63-10.64-6.22-18.77-6.35-1.53 0-3 0-4.4.16l-.23 24.87a.37.37 0 01-.37.37.38.38 0 01-.37-.38l.23-24.8a34 34 0 00-22.13 10.72l18.93 15.21a.37.37 0 01.06.52.37.37 0 01-.3.14.34.34 0 01-.23-.08l-19-15.23a44.17 44.17 0 00-9.81 19.43z" fill="none"/><path d="M321 106.3c-2.34-39.36-35.45-55.5-35.29-55.54l-40.81-.29C234.82 51.63 221.54 62 221.54 62l-3.47-1c-3.85 14.25-20.31 14.34-20.31 14.34l3.85 11.94c-4.81 6.06-6 18-6 18zm-88-37.18a.38.38 0 01.47-.59l3.92 3.15A34 34 0 01259.54 61v-3.56a.37.37 0 01.37-.37.38.38 0 01.37.38v3.49c1.41-.11 2.87-.18 4.4-.16 8.13.13 14.22 2.72 18.77 6.35l1.4-1.09s8.35 5.08 10.41 19.76a40.69 40.69 0 011.38 6.3l-69.56-.39a44.17 44.17 0 019.81-19.43z" fill="#c8c1db"/><path d="M252.11 83.5L237.4 71.68c-.18.18-.34.37-.5.56l14.72 11.83c.16-.2.32-.39.49-.57z" fill="#f4824e"/><path d="M233.48 68.53a.38.38 0 00-.47.59l3.89 3.12c.16-.19.32-.38.5-.56z" fill="#be6243"/><path d="M259.68 86.14a.37.37 0 00.37-.37l.23-24.87-.75.06-.23 24.8a.38.38 0 00.38.38z" fill="#f4824e"/><path d="M260.32 57.41A.38.38 0 00260 57a.37.37 0 00-.37.37v3.56l.75-.06z" fill="#be6243"/><path d="M266.64 88.74l29 .49c-.07-1.21-.2-2.36-.35-3.47-1.61-5.43-5-13.22-11.81-18.67L263.92 82.3a8.6 8.6 0 012.72 6.44z" fill="#f4824e"/><path d="M295.27 85.76C293.21 71.08 284.86 66 284.86 66l-1.4 1.09c6.83 5.45 10.2 13.24 11.81 18.67z" fill="#be6243"/><path fill="#f4824e" d="M44.49 170.36l18.1.39 11.03-13.1.9-19.13-10.91-13.09-19.12.26-10.27 13.47-.38 17.33 10.65 13.87zm40.3-23.88c2-20 21-22.83 30.29-20 8.47 2.57 16.17 10.14 15 23.61-.93 10.89-10.39 21.56-25.15 20.54a22.06 22.06 0 01-20.14-24.15z"/><path d="M313.51 123.25c3-.41 5.81 17.67 5.9 23.26.2 11.36-1.76 21.14-4.38 21.44s-5.85-9.84-6.16-20.41c-.35-11.37 1.66-23.87 4.64-24.29z" fill="#c8c1db"/><path d="M284.71 190.49s-.64 5.65-4.1 17.72c-.52 1.81-1.21 3.81-2 5.9l5.67 5.61-9.61 3.81c-4.08 9.08-8.43 17.27-8.43 17.27l21.95-1.15s5.26-4.49 12.7-17.84 10.63-31.32 10.63-31.32zm-71.58 12.87a5 5 0 003.37 1.25c2.6 0 4.33-2.12 8.28-2.12 4.33 0 5.15 2 7.94 1.88s3.69-1.4 5.81-1.77a14 14 0 00-1.1-2.49c-1.87-3.29-6.9-7.15-14.68-5.9a12.11 12.11 0 00-10.3 14.06 12.87 12.87 0 003.12 6.74 23.85 23.85 0 01-2.44-11.65z" fill="none"/><path d="M215.79 174.71L214 189.34l-18.74 1.92s.51 28.11 19.64 47.88 54.53 19.15 65.6 14.55c19.23-8 40.05-26.36 43-77.31zm21.93 41.5c-4.33 6.64-15.06 7.22-20.16 1.64a14.57 14.57 0 01-2-2.84 12.87 12.87 0 01-3.12-6.74 12.11 12.11 0 0110.3-14.06c7.78-1.25 12.81 2.61 14.68 5.9a14 14 0 011.1 2.49 7.78 7.78 0 011.26-.11 17.32 17.32 0 01-2.06 13.72zm50.46 23.44l-21.95 1.15s4.35-8.19 8.43-17.27l-7.63 3 6.26-17.71 5.31 5.26c.8-2.09 1.49-4.09 2-5.9 3.46-12.07 4.1-17.72 4.1-17.72h26.8s-3.18 18-10.63 31.32-12.69 17.87-12.69 17.87z" fill="#c8c1db"/><path d="M278.6 214.11c-1.15 3-2.53 6.29-3.94 9.42l9.61-3.81z" fill="#f4824e"/><path d="M273.29 208.85L267 226.56l7.63-3c1.41-3.13 2.79-6.37 3.94-9.42z" fill="#be6243"/><path d="M231.66 218.69c5.8-2 9.11-9.37 6.87-16.09-2.12.37-2.91 1.61-5.81 1.77s-3.61-1.88-7.94-1.88c-3.95 0-5.68 2.12-8.28 2.12a5 5 0 01-3.37-1.25 23.85 23.85 0 002.44 11.64c4.16 4.62 11.32 5.34 16.09 3.69z" fill="#f4824e"/><path d="M238.53 202.6c2.24 6.72-1.07 14.08-6.87 16.09-4.77 1.65-11.93.93-16.09-3.68a14.57 14.57 0 002 2.84c5.1 5.58 15.83 5 20.16-1.64a17.32 17.32 0 002.07-13.72 7.78 7.78 0 00-1.27.11z" fill="#be6243"/><path fill="#f4824e" d="M160.44 170.15l-20.02-27.14 20.86-29.91 18.99 29.33-19.83 27.72z"/><path d="M159.36 152.73a1.87 1.87 0 012.08-2.18 1.73 1.73 0 011.41 2 2 2 0 01-2 1.8 1.78 1.78 0 01-1.49-1.62zm-54.01 4.6a1.77 1.77 0 012-1.76c.87.14 1.3.87 1.26 2a1.73 1.73 0 01-1.95 1.71 1.68 1.68 0 01-1.31-1.95zm-52.63-5.71l-.39-18.38 3.04-.05-.92 18.29-1.73.14zm53.28.92l1.78-.1.53-18.29h-2.99l.68 18.39zm54.01-4.93l-.25-20.15 3.17-.05-.91 20.22-2.01-.02zM52 156a1.62 1.62 0 012-1.8c.72.14 1.29.65 1.2 1.85a1.66 1.66 0 01-1.73 1.57A1.63 1.63 0 0152 156zM2.81 187.4a.5.5 0 010-1l207.63-.77.53-12.28-201.23.77a.51.51 0 01-.5-.5.5.5 0 01.5-.5l201.75-.77a.48.48 0 01.36.15.47.47 0 01.14.37l-.57 13.28a.5.5 0 01-.5.48l-208.11.77z" fill="#3f2b56"/><path d="M211.5 173.35h-.13l-23.81-6.14-21.56.09a.5.5 0 01-.5-.5.49.49 0 01.49-.5l21.66-.11h.13l23.87 6.16a.5.5 0 01-.12 1zm-85.96-5.84a.5.5 0 01-.5-.5.49.49 0 01.49-.5l34.18-.18a.5.5 0 010 1l-34.17.18zm-58.33.3a.5.5 0 01-.5-.5.49.49 0 01.49-.5l27-.14a.5.5 0 110 1l-26.95.14zm-66.71.34a.5.5 0 010-1l43.41-.22a.49.49 0 01.5.49.5.5 0 01-.49.51l-43.42.22z" fill="#3f2b56"/><path d="M170.39 173.38a.38.38 0 01-.39-.38l-.58-6.23a.36.36 0 01.34-.4.38.38 0 01.41.33l.58 6.23a.38.38 0 01-.34.41zm-24.16-1.51a.37.37 0 01-.37-.34l-.26-2.95a.38.38 0 01.34-.41.39.39 0 01.41.35l.26 2.95a.38.38 0 01-.35.4zm-22.52 1.69a.38.38 0 01-.38-.38V168a.38.38 0 01.38-.37.37.37 0 01.37.37v5.15a.37.37 0 01-.37.41zm-22.62-.34a.38.38 0 01-.38-.37v-2.31a.38.38 0 01.38-.38.37.37 0 01.37.38v2.31a.37.37 0 01-.37.37zm-42.35.52a.38.38 0 01-.38-.38v-4.17a.38.38 0 11.75 0v4.17a.38.38 0 01-.37.38zm17.9 0a.38.38 0 01-.38-.38v-6.1a.38.38 0 01.38-.38.37.37 0 01.37.38v6.1a.37.37 0 01-.37.38zm-35.71 0a.38.38 0 01-.38-.38v-5.92a.38.38 0 01.75 0v5.92a.38.38 0 01-.37.38zm-17.04.2a.37.37 0 01-.37-.37l-.1-4.18a.37.37 0 01.37-.38.38.38 0 01.38.36l.1 4.18a.39.39 0 01-.37.39zM38 179l-.08.05a3.27 3.27 0 01.19 1.83 3.57 3.57 0 01-1.61 2.32 3.52 3.52 0 01-4.65-.74 3.44 3.44 0 01.69-4.49 4 4 0 012.46-.81 3.64 3.64 0 01.57 0 3.17 3.17 0 011.19.41.27.27 0 00.08-.07.8.8 0 00.2-.21v-.05a.83.83 0 00.08-.12.61.61 0 00.07-.14 3.83 3.83 0 00-1.55-.56 4.8 4.8 0 00-3.6.92 4.17 4.17 0 00-.82 5.52 4.11 4.11 0 003.32 1.61 4.4 4.4 0 004.32-3.47 4.11 4.11 0 00-.34-2.51c-.17.16-.35.32-.52.51z" fill="#3f2b56"/><path d="M34.05 182.92H34.69v-4.76h-.31l-.35.12H34v4.56zM67.34 184a2.9 2.9 0 00-.14-.48v-.22a3.25 3.25 0 01-1 .17 3.27 3.27 0 01-.55-6.44 3.23 3.23 0 012.73.28 3.59 3.59 0 011.32 2.58 3.26 3.26 0 01-.89 2.4 1.31 1.31 0 00-.12.11 4.31 4.31 0 00.26.47 1.71 1.71 0 00.05.13 3.45 3.45 0 00.28-.26 4 4 0 001.09-3 4.23 4.23 0 00-1.64-3.11 3.93 3.93 0 00-3.35-.4 4.19 4.19 0 00-3 4.59 3.77 3.77 0 005 3.12z" fill="#3f2b56"/><path d="M68 179.33l-.24-.35-.06-.09-4.3 3a.37.37 0 00-.09.52.38.38 0 00.31.16.33.33 0 00.21-.07l4.28-3a1.18 1.18 0 00-.11-.17zm31.82 5.05h-.61a4.13 4.13 0 01-2.74-1.6 3.54 3.54 0 01-.71-2.68 4 4 0 011.66-2.86 4.78 4.78 0 013.66-.53 3.68 3.68 0 012.93 3.76 4.42 4.42 0 01-1.6 3 4 4 0 01-2.59.91zm-3.32-4.21a2.8 2.8 0 00.57 2.12 3.41 3.41 0 002.24 1.3 3.36 3.36 0 002.63-.7 3.7 3.7 0 001.33-2.52 3 3 0 00-2.37-3 4 4 0 00-3.06.42 3.25 3.25 0 00-1.34 2.35z" fill="#3f2b56"/><path d="M101.84 183.24l-2.84-4.6a2.29 2.29 0 01-.52.41h-.09l2.84 4.55a.37.37 0 00.32.18.36.36 0 00.2-.06.36.36 0 00.09-.48zm36.49-5.53a3.68 3.68 0 00-2.48-1.57 4.76 4.76 0 00-3 .66l.36.51a.59.59 0 01.06.14 4 4 0 012.48-.57 3 3 0 012 1.25 3.27 3.27 0 01.46 2.53 3.57 3.57 0 01-3.79 2.64 3.3 3.3 0 01-2.89-3.11 3.51 3.51 0 01.31-1.17 7.57 7.57 0 01-.6-.53 4.13 4.13 0 00-.45 1.65 4 4 0 003.56 3.91h.36a4.36 4.36 0 004.23-3.24 4 4 0 00-.61-3.1z" fill="#3f2b56"/><path d="M132.8 183.38a.38.38 0 01-.25-.1.38.38 0 010-.53l4.9-5.48a.38.38 0 01.56.5l-4.91 5.48a.34.34 0 01-.3.13zm42.04-4.19a3.45 3.45 0 00-4.27-2.57 3.83 3.83 0 00-2.45 1.77l-.06.12.63.41.06-.13a3.1 3.1 0 011.95-1.43 2.73 2.73 0 013.42 2 3.09 3.09 0 01-4.62 3.31 2.43 2.43 0 01-1.2-1.44 2.88 2.88 0 010-1.37c-.14-.08-.29-.17-.44-.24l-.22-.1a3.55 3.55 0 000 1.91 3.12 3.12 0 001.55 1.91 4.24 4.24 0 002 .52 3.58 3.58 0 001-.14 4 4 0 002.65-4.53z" fill="#3f2b56"/><path d="M172.08 183.76a.38.38 0 01-.35-.23l-2.41-5.92a.39.39 0 01.21-.49.38.38 0 01.49.21l2.4 5.92a.36.36 0 01-.2.48.35.35 0 01-.14.03zm21.58-79.48h-1c-6 27.75-5.53 62-5.53 62.45a.51.51 0 00.5.49.5.5 0 00.49-.51c0-.47-.49-34.8 5.54-62.43zm8.87-25.82a.51.51 0 00-.68.19c-.74 1.32-1.47 2.69-2.16 4.07a90.06 90.06 0 00-6.78 20.33h1a88.58 88.58 0 016.65-19.9c.69-1.37 1.41-2.72 2.14-4a.5.5 0 00-.17-.69zm93.12 162.68c-9 8.24-17.18 10.89-17.29 10.92-20.61 5.3-45.9-.52-46.07-.55-36.41-15.23-42-53.45-42.87-63h-1c.85 9.69 6.55 48.44 43.56 63.91a131.77 131.77 0 0026.6 2.82 82.2 82.2 0 0020.06-2.24c.12 0 8.39-2.71 17.49-11zM234.22 49.29c-3.21.86-9 3.06-15.73 8.64a.51.51 0 00-.06.71.49.49 0 00.7.06 41.43 41.43 0 0115.45-8.46c-.13-.31-.25-.63-.36-.95zm83.06 46.82c-5.92-24.51-20.95-42-40.21-46.76h-.11l-40.1-.57h-.06c0 .33.08.67.13 1l39.95.58c18.87 4.7 33.6 21.89 39.43 46 5.51 22.77 3.29 75.76 3.26 76.3-.52 23.38-4.17 40.19-11.48 52.9a65.92 65.92 0 01-9.86 13.11l.57.84A66.34 66.34 0 00309 226c7.4-12.87 11.09-29.83 11.62-53.36-.03-.5 2.2-53.64-3.34-76.53z" fill="#3f2b56"/><path d="M189.74 173a.38.38 0 01-.35-.25l-2.12-6a.38.38 0 01.23-.48.38.38 0 01.48.23l2.11 6a.38.38 0 01-.22.48zm42.35 79v13.48h45.82l.58-12.9c-20.98 5.36-46.4-.58-46.4-.58z" fill="#3f2b56"/><path d="M236.26 288.6l.76-26.41a.5.5 0 10-1 0l-.75 26.26a8.21 8.21 0 00.99.15zm7.94 50.17a6.68 6.68 0 011 0l-.29-16.77a.45.45 0 000-.2l-9-19.53.3-10.36c-.34 0-.67 0-1 .05l-.29 10.39a.45.45 0 000 .23l9 19.54zm.03 2.02l.07 4a.5.5 0 00.5.49.5.5 0 00.49-.51l-.07-3.95zm38.19-17l-7.66-20.41.5-36.3c-.33 0-.66 0-1 .05l-.5 36.33a.57.57 0 000 .18l7.66 20.41-1 17.6a.5.5 0 00.47.53.5.5 0 00.5-.47l1-17.71a.39.39 0 00.03-.21z" fill="#3f2b56"/><path d="M274.22 297.93l-35.32 3.73c.06.24.1.49.16.74l35.24-3.72a.39.39 0 00.34-.42.4.4 0 00-.42-.33zm-31.87-18.45v-.46c0-.15 0-.19-.05-.28H236a.37.37 0 00-.37.37.38.38 0 00.37.38h6.32zm32.25-.74h-29.5c0 .24-.09.5-.13.75h29.63a.37.37 0 00.37-.38.36.36 0 00-.37-.37zm-7.84 44.47v-.4l-20.14-1c0 .25.05.51.09.76l20.05 1c-.02-.12-.01-.24 0-.36zm15.24.39l-12.5-.65c0 .25-.09.5-.12.75l12.59.64a.38.38 0 00.38-.36.37.37 0 00-.35-.38zm29.28-204.46a1 1 0 00-.28 0c.12.19.23.38.35.56a8.76 8.76 0 01.63.84c2 2.31 4 13.42 4 22.93 0 13.5-2.17 22-3.73 22.18-1.13 0-4.48-3.79-5-20.66-.45-14.06 1.1-20.2 2.43-22.87-.18-.37-.39-.72-.58-1.07-1.62 2.79-3.32 9.3-2.85 24 .5 15.95 3.6 21.63 6 21.63h.16c3.56-.37 4.62-15.48 4.62-23.18s-1.9-24.27-5.75-24.36z" fill="#3f2b56"/><path d="M311.28 119.14c3.85.09 5.66 16.66 5.66 24.37s-1.06 22.81-4.62 23.18l19-1.22a155.38 155.38 0 00.52-28.88c-1.29-14.5-4-19.51-4-19.51zm49.59-101.32l-.06-3.68a.51.51 0 00-.51-.49.5.5 0 00-.49.51l.06 3.52a8.59 8.59 0 001 .14zm-.94 3.26l.46 26.48a6.78 6.78 0 001 .19L360.93 21c-.34 0-.67 0-1 .08zm1.78 44.66l-.27-15.19-1 .24.26 15.05 9.66 51.16-36.77 2.59c.18.32.36.64.51 1L371 118a.5.5 0 00.46-.59zM400.34 61l-1-40.42a.48.48 0 00-.51-.49.5.5 0 00-.49.51l1 40.52 14.45 65.6-19.27 22a9.46 9.46 0 00.74.68l19.45-22.26a.53.53 0 00.11-.44z" fill="#3f2b56"/><path d="M392.4 151.19l-4 4.56-58.71 5.07-1.78-37.75a.59.59 0 01-.33-.11 7.6 7.6 0 01-.71-.68l1.85 39.1a.49.49 0 00.5.48l59.42-5.14a.54.54 0 00.34-.16l4.16-4.77q-.32-.31-.74-.6z" fill="#3f2b56"/><path d="M345.53 149.11h.12v-26.54q-.37 0-.75.12v26.38zm-.63 3.21V160a.38.38 0 00.75 0v-7.74c-.25 0-.5.02-.75.06zm19.66 6.37a.37.37 0 01-.37-.32l-6.18-40a.37.37 0 01.74-.11l6.18 40a.38.38 0 01-.32.43zm22.63-6.6l-15.53-34 13.52 4.43a6.2 6.2 0 00.14-.75l-14.24-4.66a.37.37 0 00-.4.11.37.37 0 00-.06.4l16 34.95c.16-.17.38-.33.57-.48zm23.99-21.85l-23-7.54c-.07.23-.14.45-.2.68l23 7.53a.39.39 0 00.48-.24.38.38 0 00-.28-.43zm-10.61-33l-32.2 6.53a.38.38 0 00-.29.44.36.36 0 00.36.3h.08L400.78 98q-.09-.41-.21-.76zm7.43-1.12a.37.37 0 00-.44-.29l-4.18.84c0 .25.06.5.11.75l4.21-.86a.37.37 0 00.3-.44zm-4.43-19.89a.37.37 0 00-.48-.22l-34.34 12.56c.08.24.16.48.25.71l34.35-12.57a.37.37 0 00.22-.48zm-35.72-11.29l-6.67.43a.38.38 0 00-.35.4.37.37 0 00.38.35l6.58-.43c.04-.25.05-.5.06-.75zm3.15-.21l.06.75 25-1.64c0-.25.07-.51.11-.76zm28.15-29.65l-33.44 3c0 .24.08.49.11.74l33.4-3a.38.38 0 10-.07-.75zM267.72 232A130.21 130.21 0 00280 189.69a3.65 3.65 0 00-.67-.74 129.28 129.28 0 01-12.26 42.68c.23.12.44.25.65.37z" fill="#3f2b56"/><path d="M310.16 187.63a.37.37 0 00-.29-.14h-28.48a5.22 5.22 0 00.28.75h27.74c-.84 3.95-7.45 33-22.61 47.58l-21.86 1.29c.36-.58.95-1.59 1.68-3a.52.52 0 01-.2-.28h-.48c-1.2 2.25-2 3.46-2 3.51a.37.37 0 000 .39.37.37 0 00.32.19l22.74-1.36a.43.43 0 00.24-.1c8.6-8.21 14.4-21 17.76-30.23a140.36 140.36 0 005.26-18.29.38.38 0 00-.1-.31zm-71.73 16.91c-2.13-10.66-9.65-12.74-15.59-12.62a13.23 13.23 0 00-9.18 4.43 13.46 13.46 0 00-3 10.61c.84 8 6.92 14 14 14h.57a14.93 14.93 0 004.15-.79c-.07-.25-.16-.49-.23-.73a14 14 0 01-3.95.77c-6.89.34-12.94-5.54-13.76-13.34a12.21 12.21 0 0111.47-14.21c5.65-.11 12.8 1.87 14.83 12a14.2 14.2 0 01-2.92 10.69 12.87 12.87 0 01-2.92 2.7 7.16 7.16 0 00.48.61 13.53 13.53 0 003-2.85 15 15 0 003.05-11.27z" fill="#3f2b56"/><path d="M220.39 206.38l-9.38.17a.37.37 0 00-.37.38.38.38 0 00.37.37l9.54-.17a6.74 6.74 0 00-.16-.75zm1.79.72l13.35-.23v-.75l-13.22.23c-.05.25-.1.5-.13.75zm59.32 27.39a.26.26 0 01-.25-.24.26.26 0 01.25-.26l7.55-.2a.25.25 0 01.25.24.24.24 0 01-.24.26l-7.55.2zm10.42-3.62h-15.29a.25.25 0 01-.25-.25.25.25 0 01.25-.25h15.29a.25.25 0 01.25.25.26.26 0 01-.25.25zm3.25-4.68h-8.11a.25.25 0 01-.25-.25.25.25 0 01.25-.25h8.11a.25.25 0 01.25.25.25.25 0 01-.25.25zm2.83-4.77h-10.21a.25.25 0 010-.5H298a.25.25 0 010 .5zm2.72-5.52l-10.16-.19a.26.26 0 01-.25-.26.26.26 0 01.25-.24l10.16.19a.25.25 0 01.25.25.25.25 0 01-.25.25zm-14.21-5.46a.24.24 0 01-.25-.24.26.26 0 01.24-.26l16.7-.35a.24.24 0 01.26.24.26.26 0 01-.25.26l-16.69.35zm18.89-6.3h-10.23a.25.25 0 01-.25-.25.25.25 0 01.25-.25h10.23a.25.25 0 01.25.25.25.25 0 01-.25.25zm1.97-6.2h-10.72a.25.25 0 010-.5h10.72a.25.25 0 010 .5zm1.36-4.94h-11.05a.25.25 0 01-.25-.25.25.25 0 01.25-.25h11.05a.25.25 0 01.25.25.25.25 0 01-.25.25zm-15.54-22.08l-85.09.55a.5.5 0 00-.5.5.51.51 0 00.5.5l85.25-.55c-.04-.34-.09-.67-.16-1zm14.23-.09l-10.22.06c.05.34.11.67.19 1l10.13-.07c-.02-.33-.05-.66-.1-.99zm12.71-.09l-10.17.07c0 .18.06.37.1.55s.08.3.13.45l9.95-.07a.5.5 0 000-1zm-9.28-4.74h-27.94a.5.5 0 01-.5-.5.5.5 0 01.5-.5h27.94a.5.5 0 01.5.5.5.5 0 01-.5.5zM238 165h-28.28c-.05.33-.08.66-.12 1H238a.5.5 0 00.5-.5.5.5 0 00-.5-.5zm19.79-9.93l-.81-17.42 3.56-.15-1.11 17.62-1.64-.05zm-.94 3.93a1.66 1.66 0 012-1.67 1.51 1.51 0 011.24 1.64 1.62 1.62 0 01-1.67 1.68 1.69 1.69 0 01-1.57-1.65zm-44.19-46.2a.52.52 0 00-.4-.2h-14.68a5.63 5.63 0 00-.09 1h14.14c-.8 3.22-4.37 18.18-5 28.42-.66 11.43-.61 29.37-.61 29.55a.5.5 0 00.5.5.49.49 0 00.49-.5c0-.18-.05-18.09.61-29.5s5.05-28.67 5.09-28.84a.51.51 0 00-.05-.43zm-20.88 27.45a146.08 146.08 0 013.71-25.06c-.18-.16-.33-.33-.5-.5l-.06-.06h-.13l-.22.08a146.18 146.18 0 00-3.8 25.48 165.75 165.75 0 00.55 27.65.5.5 0 00.56.43.5.5 0 00.43-.56 164.16 164.16 0 01-.54-27.46z" fill="#3f2b56"/><path d="M202.36 115.85a4.55 4.55 0 00-.74-.11c-1.07 5.37-3.35 17.62-3.78 26.58-.58 11.72 0 27 0 27.11a.36.36 0 00.37.36.38.38 0 00.36-.39c0-.15-.57-15.36 0-27 .43-8.97 2.73-21.21 3.79-26.55zm12.3-13.37l-21.18-.23a.5.5 0 100 1l21.29.23c-.03-.33-.07-.67-.11-1zm101.12 1.13l-97-1.08c-.05.33-.09.66-.12 1l97.24 1.08c-.06-.33-.09-.67-.12-1zm-92.12-28.79l.49.26.25.11a16.06 16.06 0 001.26-3.62.5.5 0 00-.42-.57.48.48 0 00-.57.41 14.81 14.81 0 01-1.15 3.33zm-1.48 2.27a16.2 16.2 0 01-8.06 6.15 13.86 13.86 0 01-9.1.08L198.47 70s-1.63-3.73 2.05-8.81a.51.51 0 00-.11-.7.5.5 0 00-.7.12c-4 5.54-2.22 9.63-2.14 9.82l6.64 13.47a.45.45 0 00.25.24 13.2 13.2 0 005 .89 14.69 14.69 0 005-.88 17.08 17.08 0 008.38-6.3c-.24-.23-.44-.5-.66-.76zm2.02-14.34a.45.45 0 01-.29-.1l-5.39-3.93a.49.49 0 01-.11-.7.51.51 0 01.7-.11l5.39 3.93a.5.5 0 01.1.7.48.48 0 01-.4.21z" fill="#3f2b56"/><path d="M218.81 58.81a.52.52 0 01-.29-.09l-4.24-3.09a.51.51 0 01-.11-.7.5.5 0 01.7-.11l4.24 3.09a.5.5 0 01-.3.9zM152.3 33.05c18.08 29.72 18.16 29.73 18.59 29.7a.39.39 0 00.39-.22c.26-.33 4.56-4.93 9.4-10.09a6 6 0 00-.74-.68c-4.88 5.21-7.91 8.46-9 9.7C168 57 146.69 21.92 135.27 3.06a.48.48 0 00-.44-.24l-2.83.07a6.63 6.63 0 00-.05 1l2.64-.06c1.18 1.98 9.41 15.6 17.71 29.22z" fill="#3f2b56"/><path d="M210.55 59.83l-15.62-20.68a.48.48 0 00-.41-.19h-2.34a.52.52 0 00-.36.16l-8.77 9.32a6.34 6.34 0 00.17 1.29L192.4 40h1.88l15.35 20.32a5.52 5.52 0 01-2 3.59 4.75 4.75 0 01-3.66 1l-11.72-14.4a.54.54 0 00-.39-.19.59.59 0 00-.38.18l-18.82 22.03h-3L134.43 17.6a.47.47 0 00-.44-.22.49.49 0 00-.43.26l-13 24.87a.49.49 0 00.21.67.5.5 0 00.67-.21L134 18.87l35 54.43a.5.5 0 00.42.23h3.47a.49.49 0 00.38-.18l18.57-21.77 11.46 14.06a.56.56 0 00.26.17 5.59 5.59 0 004.67-1.14 6.46 6.46 0 002.41-4.52.53.53 0 00-.09-.32zM129.71 3.71l-18.48 36.36a.49.49 0 00.22.67.51.51 0 00.67-.22l18.23-35.87a5.38 5.38 0 00-.64-.94z" fill="#3f2b56"/><path d="M201.89 63.11l1.81 2.22a5.13 5.13 0 004.23-1.06 6 6 0 002.22-4.14s1.69 1.49-.92 4.81c-1.73 2.22-5.63 4.34-7.34 2.8s0-4.63 0-4.63zm59.45-3.54a35.39 35.39 0 019.78 1.73c.12-.3.24-.61.34-.92a36.77 36.77 0 00-10.09-1.77 32.19 32.19 0 00-21 6.23 7.69 7.69 0 00.45.91 31.21 31.21 0 0120.52-6.18zm12.95 1.87a8.88 8.88 0 00-.71.79C289.34 69 293 86.51 293.5 89.88L225.8 89c.72-2.68 4.1-13.73 12.8-21.51a4.21 4.21 0 00-.69-.71c-10.12 9.06-13.19 22.4-13.24 22.6a.53.53 0 00.1.42.49.49 0 00.39.19l68.92.9a.48.48 0 00.37-.17.47.47 0 00.13-.39c-.03-.25-2.67-21.1-20.29-28.89z" fill="#3f2b56"/><path d="M251.83 89.84s1.54-6.22 7.79-6.51 7.13 6.54 7.13 6.54z" fill="#3f2b56"/><path d="M259.62 87.87a.5.5 0 01-.23-.94l22.23-11.74a.49.49 0 01.66.18.49.49 0 01-.14.67s-4.09 2.9-3.73 7.83a.5.5 0 01-.46.54.52.52 0 01-.54-.47 9.58 9.58 0 011.86-6.38l-19.41 10.25a.53.53 0 01-.24.06z" fill="#3f2b56"/><path d="M278.68 76.51a7.17 7.17 0 01-5.68-2.2.52.52 0 01.07-.71.5.5 0 01.7.08c2.37 2.88 7.91 1.48 8 1.46a.5.5 0 01.25 1 14.09 14.09 0 01-3.34.37zM236.8 48.76l40.15 1.07.45-10.91-40.81-.13.21 9.97z" fill="#3f2b56"/><path d="M263.92 32.88a.38.38 0 01-.24-.09l-6.55-5.49-6.32 5.11a.39.39 0 01-.31.08.41.41 0 01-.26-.2 11.91 11.91 0 01-.11-11.29.35.35 0 01.25-.18.39.39 0 01.31.08l6.45 5.41 7.32-5.92a.33.33 0 01.33-.07.35.35 0 01.25.22c3 7.83-.68 12-.84 12.2a.38.38 0 01-.28.14zm-6.2-6.06l6.14 5.18c.71-1 2.77-4.68.66-10.65zm-7.16-5a11.52 11.52 0 00.14 9.73l5.84-4.72z" fill="#fff"/><path d="M250.57 32.5h-.14a.38.38 0 01-.2-.5c2.58-6.14-.07-10.52-.1-10.56a.37.37 0 11.63-.4c.12.19 2.9 4.73.16 11.26a.38.38 0 01-.35.2z" fill="#fff"/><path d="M240.31 20.68a.46.46 0 01-.28-.08L217.44 5.2a.5.5 0 01.56-.83l22.59 15.4a.5.5 0 01.13.7.49.49 0 01-.41.21zm-.64 5.32l-16.87-1.72a.52.52 0 01-.45-.55.51.51 0 01.55-.45L239.71 25a.5.5 0 010 1zm-17.15 11.82l-5.26 2.31a.5.5 0 00.2 1 .45.45 0 00.2 0l5.3-2.33c-.13-.39-.28-.68-.44-.98zm16.7-6.82a.5.5 0 00-.65-.26l-12.95 5.7c.11.31.22.63.35.94l13-5.72a.49.49 0 00.25-.66zm47.63-22.53l-13.44 8.34a.5.5 0 00.27.92.48.48 0 00.26-.07l13.56-8.42a8 8 0 00-.65-.77zm5.86-3.05a.49.49 0 00-.69-.16l-3.83 2.37v.12a5.53 5.53 0 00.31.86l4-2.5a.5.5 0 00.21-.69zM302 20.84l-14 1.55v1.01l14.13-1.56a.5.5 0 10-.11-1zm-16.49 1.82l-11.38 1.26a.5.5 0 00.06 1h.05l11.33-1.26c-.01-.33-.02-.66-.06-1zm.36 15.61a.51.51 0 01-.31-.11l-10-7.7a.5.5 0 11.61-.79l10 7.7a.5.5 0 01-.3.9z" fill="#f4824e"/><path d="M126.89 74.88c-1.84-2.86-7.42-9.72-19.56-11.68-21.82-3.54-27.63 7.5-27.87 8-.57 1.08-.53 4.95-.49 5.72.32 6.53 3.23 18 19.08 21.64a30.64 30.64 0 006.9.82 25.27 25.27 0 005.3-.56c-.07-.33-.17-.65-.27-1a27 27 0 01-11.71-.26c-7.48-1.71-12.78-5.42-15.75-11a23.89 23.89 0 01-2.22-14.9c0-.11 5.72-10.85 26.81-7.43 11.75 1.9 17.11 8.49 18.88 11.23 1.91 3 2.43 5.6 2.09 6.88-.23.57-4.53 10.76-14.88 14.6.2.29.41.57.63.83 10.83-4.2 15.17-14.97 15.25-15.13.52-1.86-.35-4.89-2.19-7.76z" fill="#3f2b56"/><path d="M108.4 56.28c-26.09-2.71-34 7.41-35 9.34s-2 8.66-.1 11.84c1.35 2.22 6 6.48 8.59 8.82-3.58-7.23-2.12-14.83-2-14.89 0 0 5.64-11.21 27.34-7.7 16.65 2.7 22.43 14.92 21.37 18.77A29.53 29.53 0 01118 95.12c7.63-.62 15-6.48 15.7-7.56a39.71 39.71 0 003.18-8.47c.3-1.83-6.24-20.5-28.48-22.81z" fill="#3f2b56"/><path d="M111.55 45.56A49.3 49.3 0 0087 47.05a.49.49 0 00-.22.18L73.44 65.58a.5.5 0 00.81.59l13.2-18.23a48.23 48.23 0 0123.87-1.41 5.47 5.47 0 00.23-.97zm25.63 15.3c-.63-.73-1.27-1.42-1.91-2.09a11.11 11.11 0 00-.27 1.13c.45.48.89 1 1.34 1.47l-.39 17.33a.52.52 0 00.49.51.49.49 0 00.5-.49l.39-17.52a.54.54 0 00-.15-.34zm-5.1-5.13a44.42 44.42 0 00-13.07-8 8.07 8.07 0 00-.33.94 43.63 43.63 0 0113.19 8.2 4.57 4.57 0 00.21-1.14z" fill="#3f2b56"/><path d="M122.2 50.15h-.06a.51.51 0 01-.44-.56l.58-5.32a15.23 15.23 0 00-14.88-2.59l-1.62 3.7a.5.5 0 11-.91-.4l1.7-3.88a.49.49 0 01.25-.26 16.23 16.23 0 0116.31 2.84.48.48 0 01.18.43l-.62 5.59a.5.5 0 01-.49.45zm2.98-15.37l-7.5-3.5c-.13.21-.27.42-.41.63l7.59 3.55a.45.45 0 00.16 0 .37.37 0 00.34-.22.36.36 0 00-.18-.46zm4.67-8.64l-5.73-6.41-.43.65 5.6 6.26a.38.38 0 00.28.12.38.38 0 00.25-.09.38.38 0 00.03-.53zm-1.12-14.52l-.43.59-.05.07 3.59 6c.17-.21.33-.43.49-.64zm11.34 1.92L136 18.16l.39.56h.08l4-4.49c-.17-.23-.29-.45-.4-.69zm6.49 8.46a.38.38 0 00-.53 0l-4.44 5.11c.06.09.11.18.17.26a.5.5 0 01.37.14l4.41-5.06a.38.38 0 00.02-.45zm3.82 10.54l-4 4.73a.39.39 0 000 .53.4.4 0 00.25.09.37.37 0 00.28-.14l3.89-4.54c-.15-.21-.29-.44-.42-.67zm2.88 4.34l-2.85 4.38.44.7 2.81-4.32c-.14-.25-.28-.5-.4-.76zm6.35 10.48l-3.69 4.87a.38.38 0 00.07.53.39.39 0 00.23.07.38.38 0 00.3-.15l3.49-4.6c-.13-.24-.26-.48-.4-.72zm.69 11.82a.37.37 0 01-.3-.18.38.38 0 01.06-.53l5.62-4.43a.37.37 0 01.52.06.38.38 0 01-.06.53l-5.61 4.43a.4.4 0 01-.23.12zm8.5 2.73l-2.54 6.59a.37.37 0 00.21.48.35.35 0 00.14 0 .38.38 0 00.35-.24l2.32-6zm8.39 6.3l-3.42-6.61a7.7 7.7 0 00-.54.6l3.3 6.35a.36.36 0 00.33.21.47.47 0 00.17 0 .37.37 0 00.16-.55zm4.74-12.02l-.49.6 2.44 3.21a.37.37 0 00.3.15.37.37 0 00.3-.6zm7.34-4.33l-2.81-4.1a.48.48 0 01-.3.15l-.31.28 2.93 4.29c.16-.21.32-.42.49-.62zM199.29 49l-4.39 5.68a.38.38 0 00.06.53.39.39 0 00.23.07.35.35 0 00.3-.14l4.35-5.63a6.64 6.64 0 00-.55-.51zm4.43 5l-.09-.09-5.49 4.64a.37.37 0 000 .53.35.35 0 00.28.13.38.38 0 00.25-.09l5.49-4.65c-.16-.19-.3-.35-.44-.47zM65.86 169.46L47 169.09a.47.47 0 01-.38-.19L35.9 155.48a.46.46 0 01-.11-.32v-16a.46.46 0 01.11-.32l12.15-15.24a.54.54 0 01.39-.19l16.87-.18a.63.63 0 01.4.19l10.89 13.65a.55.55 0 01.11.33l-.91 20a.55.55 0 01-.11.3l-9.44 11.61a.49.49 0 01-.39.15zm-18.62-1.36l18.39.35 9.18-11.3.89-19.6-10.62-13.28-16.39.18-11.9 14.92V155zm63.67 2.36a24.75 24.75 0 01-13-3.81c-10.13-6.17-12.14-19.07-10.41-24.56a23.41 23.41 0 0128-16.19c10.5 2.67 19.9 14.69 17.17 28.34-1.19 5.94-6 11.4-12.42 14.23a23.22 23.22 0 01-9.34 1.99zm-1.07-44.25c-10.27 0-18.6 7.52-21.32 16.2-1.64 5.2.29 17.46 10 23.36a22.59 22.59 0 0021.36 1.75c6.08-2.66 10.72-8 11.82-13.49 2.62-13.06-6.37-24.57-16.41-27.13a21.93 21.93 0 00-5.45-.69zM88 142.25zm75.67 27.95a.54.54 0 01-.42-.21l-19.78-26.86a.53.53 0 010-.61l20.69-29.21a.55.55 0 01.43-.22.52.52 0 01.43.24l18.5 28.49a.5.5 0 010 .58L164.1 170a.51.51 0 01-.42.22zm-19.14-27.38l19.13 26 18.8-26.7-17.9-27.55zm139.73 23.92l-23.61-40.17a.52.52 0 00-.45-.25.47.47 0 00-.45.26l-21.31 37.06v.18l.09.17.07.12.37.19h.09c.14 0 0 0 0 0h.1l21-36.52 22.7 38.62h-42.79a4.59 4.59 0 00-.22 1h44a.54.54 0 00.46-.26.53.53 0 00-.05-.4zM214.9 54.85c-1.27-1.13-3.33-1.45-5.61-1a.71.71 0 000 .14v.88c2.05-.46 3.9-.23 5 .72 2.22 1.94 1.34 7.56-1.79 11.33-2.22 2.68-6.44 5.45-10.65 4.57a10.16 10.16 0 00.26 1.09 8.76 8.76 0 001.35.1c4 0 7.72-2.59 9.81-5.12 3.46-4.22 4.26-10.39 1.63-12.71z" fill="#3f2b56"/></g></svg>