<?xml version="1.0" encoding="utf-8"?>
<!-- Generator: Adobe Illustrator 23.1.1, SVG Export Plug-In . SVG Version: 6.00 Build 0)  -->
<svg version="1.1" id="Layer_1" xmlns="http://www.w3.org/2000/svg" xmlns:xlink="http://www.w3.org/1999/xlink" x="0px" y="0px"
	 viewBox="0 0 1160 280" style="enable-background:new 0 0 1160 280;" xml:space="preserve">
<style type="text/css">
	.st0{opacity:0.84;fill:url(#SVGID_1_);enable-background:new    ;}
	.st1{opacity:0.37;fill:url(#SVGID_2_);enable-background:new    ;}
	.st2{opacity:0.5;fill:url(#SVGID_3_);enable-background:new    ;}
	.st3{fill:#FFFFFF;}
</style>
<g>
	
		<linearGradient id="SVGID_1_" gradientUnits="userSpaceOnUse" x1="604.8466" y1="-1368.1091" x2="112.8466" y2="-851.1092" gradientTransform="matrix(1 0 0 1 0 1482)">
		<stop  offset="0" style="stop-color:#09080B"/>
		<stop  offset="1" style="stop-color:#4A3E56"/>
	</linearGradient>
	<path class="st0" d="M1160,0H0v280h1160V0z"/>
	
		<linearGradient id="SVGID_2_" gradientUnits="userSpaceOnUse" x1="0" y1="-1342" x2="1160" y2="-1342" gradientTransform="matrix(1 0 0 1 0 1482)">
		<stop  offset="0" style="stop-color:#6C5FC7"/>
		<stop  offset="0.1605" style="stop-color:#785EC0"/>
		<stop  offset="0.4471" style="stop-color:#965CAC"/>
		<stop  offset="0.8237" style="stop-color:#C7588C"/>
		<stop  offset="1" style="stop-color:#E1567C"/>
	</linearGradient>
	<path class="st1" d="M1160,266.5c-68.9,2.5-138.9-2.4-192.9-15c-46.3-10.8-95.4-25.9-124.3-63.6C830.7,172,823,153.1,810,138.1
		c-28.4-33-76-41.3-119.5-41.1c-67.2,0.4-133.6,16.2-200.8,17.3c-26.6,0.4-54.4-1.8-77.3-15.2C376.4,78,361,35.2,337.8,0H0v280h1160
		V266.5z"/>
	
		<linearGradient id="SVGID_3_" gradientUnits="userSpaceOnUse" x1="0" y1="-1342" x2="1160" y2="-1342" gradientTransform="matrix(1 0 0 1 0 1482)">
		<stop  offset="0" style="stop-color:#6C5FC7"/>
		<stop  offset="0.4908" style="stop-color:#A75AA1"/>
		<stop  offset="1" style="stop-color:#E1567C"/>
	</linearGradient>
	<path class="st2" d="M1160,260.7c-130.6,15.7-240.9,15.3-315.9-2.1c-40.1-9.3-82.6-22.4-107.5-55.1c-10.4-13.7-17.1-30-28.4-43
		c-24.6-28.5-65.7-35.8-103.4-35.5c-58.2,0.3-115.6,14-173.7,15c-23,0.4-47-1.5-66.9-13.2c-42.6-25-51.8-84.9-90.7-115.3
		c-5.9-4.6-12.2-8.3-18.9-11.5H0v280h1160V260.7z"/>
	<path class="st3" d="M220.7,78.9c-0.6,0-1.2-0.4-1.4-1l-1.8-4.9l-4.9-1.8c-0.6-0.2-1-0.8-1-1.4s0.4-1.2,1-1.4l4.9-1.8l1.8-4.9
		c0.2-0.6,0.8-1,1.4-1l0,0c0.6,0,1.2,0.4,1.4,1l1.8,4.9l4.9,1.8c0.6,0.2,1,0.8,1,1.4s-0.4,1.2-1,1.4l-4.9,1.8l-1.8,4.9
		C221.9,78.5,221.4,78.9,220.7,78.9L220.7,78.9z M214.6,69.8l3.8,1.4c0.4,0.2,0.7,0.5,0.9,0.9l1.4,3.8l1.4-3.8
		c0.2-0.4,0.5-0.7,0.9-0.9l3.8-1.4l-3.8-1.4c-0.4-0.2-0.7-0.5-0.9-0.9l-1.4-3.8l-1.4,3.8c-0.2,0.4-0.5,0.7-0.9,0.9L214.6,69.8z
		 M221.2,62.4L221.2,62.4L221.2,62.4z"/>
	<path class="st3" d="M328.2,239.4c-0.6,0-1.2-0.4-1.4-1l-1.1-3l-3-1.1c-0.6-0.2-1-0.8-1-1.4c0-0.6,0.4-1.2,1-1.4l3-1.1l1.1-3
		c0.2-0.6,0.8-1,1.4-1l0,0c0.6,0,1.2,0.4,1.4,1l1.1,3l3,1.1c0.6,0.2,1,0.8,1,1.4c0,0.6-0.4,1.2-1,1.4l-3,1.1l-1.1,3
		C329.4,239,328.9,239.4,328.2,239.4L328.2,239.4z M324.6,232.8l2,0.7c0.4,0.1,0.7,0.5,0.9,0.9l0.7,2l0.7-2c0.2-0.4,0.5-0.7,0.9-0.9
		l2-0.7l-2-0.7c-0.4-0.1-0.7-0.5-0.9-0.9l-0.7-2l-0.7,2c-0.1,0.4-0.5,0.7-0.9,0.9L324.6,232.8z M325.9,235.4L325.9,235.4
		L325.9,235.4z M330.5,235.4L330.5,235.4L330.5,235.4z M325.6,235.1L325.6,235.1L325.6,235.1z M330.8,235.1L330.8,235.1L330.8,235.1
		z M325.6,230.5L325.6,230.5L325.6,230.5z M330.8,230.5L330.8,230.5L330.8,230.5z M325.9,230.2L325.9,230.2L325.9,230.2z
		 M330.5,230.2L330.5,230.2L330.5,230.2z M328.7,227.9L328.7,227.9L328.7,227.9L328.7,227.9z"/>
	<path class="st3" d="M837.7,109.9c-0.6,0-1.2-0.4-1.4-1l-1.5-4.1l-4.1-1.5c-0.6-0.2-1-0.8-1-1.4s0.4-1.2,1-1.4l4.1-1.5l1.5-4.1
		c0.2-0.6,0.8-1,1.4-1s1.2,0.4,1.4,1l1.5,4.1l4.1,1.5c0.6,0.2,1,0.8,1,1.4s-0.4,1.2-1,1.4l-4.1,1.5l-1.5,4.1
		C838.9,109.5,838.4,109.9,837.7,109.9z M832.6,101.8l3.1,1.1c0.4,0.2,0.7,0.5,0.9,0.9l1.1,3.1l1.1-3.1c0.2-0.4,0.5-0.7,0.9-0.9
		l3.1-1.1l-3.1-1.1c-0.4-0.2-0.7-0.5-0.9-0.9l-1.1-3.1l-1.1,3.1c-0.2,0.4-0.5,0.7-0.9,0.9L832.6,101.8z M838.2,95.4L838.2,95.4
		L838.2,95.4z"/>
	<path class="st3" d="M1016.7,76.9c-0.6,0-1.2-0.4-1.4-1l-1.5-4.1l-4.1-1.5c-0.6-0.2-1-0.8-1-1.4s0.4-1.2,1-1.4l4.1-1.5l1.5-4.1
		c0.2-0.6,0.8-1,1.4-1c0.6,0,1.2,0.4,1.4,1l1.5,4.1l4.1,1.5c0.6,0.2,1,0.8,1,1.4s-0.4,1.2-1,1.4l-4.1,1.5l-1.5,4.1
		C1017.9,76.5,1017.4,76.9,1016.7,76.9z M1011.6,68.8l3.1,1.1c0.4,0.2,0.7,0.5,0.9,0.9l1.1,3.1l1.1-3.1c0.2-0.4,0.5-0.7,0.9-0.9
		l3.1-1.1l-3.1-1.1c-0.4-0.2-0.7-0.5-0.9-0.9l-1.1-3.1l-1.1,3.1c-0.2,0.4-0.5,0.7-0.9,0.9L1011.6,68.8z M1023.1,69.3L1023.1,69.3
		L1023.1,69.3z M1023.1,68.3L1023.1,68.3L1023.1,68.3z"/>
	<circle class="st3" cx="140.2" cy="109.3" r="2.5"/>
	<circle class="st3" cx="1075.2" cy="172.3" r="2.5"/>
	<circle class="st3" cx="973.2" cy="127.3" r="2.5"/>
	<circle class="st3" cx="800.2" cy="37.3" r="2.5"/>
	<circle class="st3" cx="24.2" cy="242.3" r="2.5"/>
	<circle class="st3" cx="407.2" cy="63.3" r="2.5"/>
	<circle class="st3" cx="328.2" cy="37.3" r="2.5"/>
	<path class="st3" d="M199.2,56.6h-4c-0.3,0-0.5-0.2-0.5-0.5s0.2-0.5,0.5-0.5h4c0.3,0,0.5,0.2,0.5,0.5S199.5,56.6,199.2,56.6z"/>
	<path class="st3" d="M197.1,58.8c-0.3,0-0.5-0.2-0.5-0.5v-4c0-0.3,0.2-0.5,0.5-0.5s0.5,0.2,0.5,0.5v4
		C197.6,58.6,197.4,58.8,197.1,58.8z"/>
	<path class="st3" d="M210.2,182.8h-6c-0.3,0-0.5-0.2-0.5-0.5s0.2-0.5,0.5-0.5h6c0.3,0,0.5,0.2,0.5,0.5S210.5,182.8,210.2,182.8z"/>
	<path class="st3" d="M207.2,185.8c-0.3,0-0.5-0.2-0.5-0.5v-6c0-0.3,0.2-0.5,0.5-0.5s0.5,0.2,0.5,0.5v6
		C207.7,185.6,207.5,185.8,207.2,185.8z"/>
	<path class="st3" d="M537.2,56.8h-6c-0.3,0-0.5-0.2-0.5-0.5s0.2-0.5,0.5-0.5h6c0.3,0,0.5,0.2,0.5,0.5S537.5,56.8,537.2,56.8z"/>
	<path class="st3" d="M534.2,59.8c-0.3,0-0.5-0.2-0.5-0.5v-6c0-0.3,0.2-0.5,0.5-0.5s0.5,0.2,0.5,0.5v6
		C534.7,59.6,534.5,59.8,534.2,59.8z"/>
	<path class="st3" d="M973.2,189.8h-6c-0.3,0-0.5-0.2-0.5-0.5s0.2-0.5,0.5-0.5h6c0.3,0,0.5,0.2,0.5,0.5S973.5,189.8,973.2,189.8z"/>
	<path class="st3" d="M970.2,192.8c-0.3,0-0.5-0.2-0.5-0.5v-6c0-0.3,0.2-0.5,0.5-0.5s0.5,0.2,0.5,0.5v6
		C970.7,192.6,970.5,192.8,970.2,192.8z"/>
	<circle class="st3" cx="847.2" cy="236.4" r="1.5"/>
</g>
</svg>
