<svg xmlns="http://www.w3.org/2000/svg" xmlns:xlink="http://www.w3.org/1999/xlink" viewBox="0 0 950 950">
    <defs>
        <style>
            .a {
                fill: #241c2c;
            }
            .b {
                fill: #342c3e;
            }
            .c {
                fill: #463e52;
            }
            .d {
                fill: #f58159;
            }
            .e,
            .p {
                fill: #e03e2f;
            }
            .e {
                opacity: 0.2;
            }
            .f {
                fill: url("#a");
            }
            .g {
                fill: url("#b");
            }
            .h,
            .l {
                fill: #16111c;
            }
            .h {
                opacity: 0.7;
            }
            .i {
                fill: #777088;
            }
            .j {
                fill: #9990ab;
            }
            .k {
                fill: #dbd3e9;
            }
            .m {
                fill: #564f64;
            }
            .n {
                fill: #b9b2d0;
            }
            .o {
                fill: #f9a66d;
            }
            .q {
                fill: #f36e4f;
            }
            .r {
                fill: #ec5e44;
            }
        </style>
        <linearGradient id="a" x1="800.06" y1="263.36" x2="800.06" y2="149.59" gradientUnits="userSpaceOnUse"><stop offset="0" stop-color="#f58159"/><stop offset="1" stop-color="#e03e2f"/></linearGradient>
        <linearGradient id="b" x1="799.4" y1="319.53" x2="799.4" y2="232.74" gradientUnits="userSpaceOnUse"><stop offset="0" stop-color="#f58159"/><stop offset="0.06" stop-color="#f37954"/><stop offset="0.28" stop-color="#ea5f44"/><stop offset="0.5" stop-color="#e54d38"/><stop offset="0.74" stop-color="#e14231"/><stop offset="1" stop-color="#e03e2f"/></linearGradient>
    </defs>
    <title>Breadcrumbs</title><path class="a" d="M129.18,352.64V926.16l26.45,11.74V364.37Z"/><polygon class="b" points="754.85 597.36 155.63 937.9 155.63 399.23 754.85 58.7 754.85 597.36"/><path class="c" d="M155.63,364.37V937.9L754.85,597.36V23.84ZM746.91,592.78L163.57,924.14V403.82L746.91,72.45V592.78Z"/><path class="b" d="M209.57,345.16c3.29-1.9,6-.36,6,3.44a13.18,13.18,0,0,1-6,10.33c-3.29,1.9-6,.36-6-3.44A13.19,13.19,0,0,1,209.57,345.16Z"/><path class="b" d="M193.52,354.43c3.29-1.9,6-.36,6,3.44a13.19,13.19,0,0,1-6,10.33c-3.29,1.9-6,.36-6-3.44A13.19,13.19,0,0,1,193.52,354.43Z"/><path class="b" d="M177.48,363.69c3.29-1.9,6-.36,6,3.44a13.18,13.18,0,0,1-6,10.33c-3.29,1.9-6,.36-6-3.44A13.19,13.19,0,0,1,177.48,363.69Z"/><path
        class="a"
        d="M825,479a10.83,10.83,0,0,0-9.8,0l-28.63,16.52L756.69,478.3c2-3.28.8-7.08-3.76-9.71-6.31-3.64-16.54-3.64-22.86,0s-6.31,9.55,0,13.2c4.55,2.63,11.13,3.33,16.82,2.17l29.84,17.23L621.26,590.89,591,573.45c1.45-3.12.12-6.57-4.11-9-6.31-3.64-16.54-3.64-22.86,0s-6.31,9.55,0,13.2c4.85,2.8,12,3.43,17.94,1.92l29.44,17L421.14,706.35l-29.73-17.16c2-3.28.8-7.08-3.76-9.71-6.31-3.64-16.54-3.64-22.86,0s-6.31,9.55,0,13.2c4.55,2.63,11.13,3.33,16.82,2.17L411.34,712l-32.66,18.84c-2.71,1.56-2.71,4.09,0,5.66a10.82,10.82,0,0,0,9.8,0L825,484.67C827.67,483.11,827.67,480.57,825,479ZM365.67,744a10.83,10.83,0,0,0-9.79,0c-2.7,1.56-2.7,4.09,0,5.66a10.82,10.82,0,0,0,9.8,0C368.37,748.11,368.37,745.58,365.67,744Zm-21.25,12.27a9,9,0,0,0-8.13,0c-2.25,1.3-2.25,3.4,0,4.7a9,9,0,0,0,8.13,0C346.66,759.69,346.66,757.58,344.42,756.29ZM324.83,767.6a7.15,7.15,0,0,0-6.47,0c-1.79,1-1.79,2.7,0,3.74a7.15,7.15,0,0,0,6.47,0C326.61,770.3,326.61,768.63,324.83,767.6ZM306.9,777.95a5.32,5.32,0,0,0-4.81,0c-1.33.77-1.33,2,0,2.78a5.31,5.31,0,0,0,4.81,0C308.23,780,308.23,778.72,306.9,777.95Zm541-312.19a10.83,10.83,0,0,0-9.8,0c-2.7,1.56-2.7,4.09,0,5.66a10.82,10.82,0,0,0,9.8,0C850.63,469.85,850.63,467.32,847.92,465.76Zm19.59-11.31a9,9,0,0,0-8.13,0c-2.25,1.3-2.25,3.4,0,4.7a9,9,0,0,0,8.13,0C869.76,457.85,869.76,455.74,867.51,454.45Zm17.93-10.35a7.15,7.15,0,0,0-6.47,0c-1.79,1-1.79,2.7,0,3.74a7.15,7.15,0,0,0,6.47,0C887.23,446.8,887.23,445.13,885.44,444.1Zm16.27-9.39a5.32,5.32,0,0,0-4.81,0c-1.33.77-1.33,2,0,2.78a5.31,5.31,0,0,0,4.81,0C903,436.71,903,435.47,901.71,434.7Z"/><path class="d" d="M86,722.42c3.19,1.84,3.19,4.82,0,6.66a12.76,12.76,0,0,1-11.54,0c-3.19-1.84-3.19-4.82,0-6.66A12.76,12.76,0,0,1,86,722.42Z"/><path class="d" d="M98.58,697.92c3,1.71,3,4.48,0,6.2a11.86,11.86,0,0,1-10.73,0c-3-1.71-3-4.48,0-6.2A11.86,11.86,0,0,1,98.58,697.92Z"/><path class="d" d="M138.31,679.35c3.59,2.07,3.59,5.43,0,7.51a14.37,14.37,0,0,1-13,0c-3.59-2.07-3.59-5.43,0-7.51A14.37,14.37,0,0,1,138.31,679.35Z"/><path class="d" d="M209.5,657.14c3.74,2.16,3.74,5.66,0,7.83a15,15,0,0,1-13.55,0c-3.74-2.16-3.74-5.66,0-7.83A15,15,0,0,1,209.5,657.14Z"/><path class="d" d="M52.11,729.09a1.22,1.22,0,0,1,0,2.3,4.41,4.41,0,0,1-4,0,1.22,1.22,0,0,1,0-2.3A4.41,4.41,0,0,1,52.11,729.09Z"/><path class="d" d="M112.35,708.17a1.22,1.22,0,0,1,0,2.3,4.41,4.41,0,0,1-4,0,1.22,1.22,0,0,1,0-2.3A4.41,4.41,0,0,1,112.35,708.17Z"/><path class="d" d="M171.83,660.89a1.22,1.22,0,0,1,0,2.3,4.41,4.41,0,0,1-4,0,1.22,1.22,0,0,1,0-2.3A4.41,4.41,0,0,1,171.83,660.89Z"/><path class="d" d="M236,639.21a1.22,1.22,0,0,1,0,2.3,4.41,4.41,0,0,1-4,0,1.22,1.22,0,0,1,0-2.3A4.41,4.41,0,0,1,236,639.21Z"/><path class="d" d="M264.62,605.55c3.63,2.09,3.63,5.49,0,7.58a14.51,14.51,0,0,1-13.13,0c-3.63-2.09-3.63-5.49,0-7.58A14.51,14.51,0,0,1,264.62,605.55Z"/><path class="d" d="M310.17,596.86c3.4,2,3.4,5.15,0,7.11a13.61,13.61,0,0,1-12.31,0c-3.4-2-3.4-5.15,0-7.11A13.61,13.61,0,0,1,310.17,596.86Z"/><path class="d" d="M317.64,585.44c1.67,1,1.67,2.52,0,3.48a6.67,6.67,0,0,1-6,0c-1.67-1-1.67-2.52,0-3.48A6.67,6.67,0,0,1,317.64,585.44Z"/><path class="d" d="M323.95,567.12c3.95,2.28,3.95,6,0,8.25a15.8,15.8,0,0,1-14.29,0c-3.95-2.28-3.95-6,0-8.25A15.8,15.8,0,0,1,323.95,567.12Z"/><path class="d" d="M359.88,575.27c3.19,1.84,3.19,4.83,0,6.67a12.77,12.77,0,0,1-11.56,0c-3.19-1.84-3.19-4.83,0-6.67A12.77,12.77,0,0,1,359.88,575.27Z"/><path class="d" d="M388.61,556.25c3.74,2.16,3.74,5.66,0,7.83a15,15,0,0,1-13.55,0c-3.74-2.16-3.74-5.66,0-7.83A15,15,0,0,1,388.61,556.25Z"/><path class="d" d="M414,533.14c3.9,2.25,3.9,5.9,0,8.15a15.6,15.6,0,0,1-14.12,0c-3.9-2.25-3.9-5.9,0-8.15A15.6,15.6,0,0,1,414,533.14Z"/><path class="d" d="M432.34,517.94c2.2,1.27,2.2,3.32,0,4.59a8.79,8.79,0,0,1-8,0c-2.2-1.27-2.2-3.32,0-4.59A8.79,8.79,0,0,1,432.34,517.94Z"/><path class="d" d="M425.95,503.55c3.51,2,3.51,5.31,0,7.33a14,14,0,0,1-12.69,0c-3.51-2-3.51-5.31,0-7.33A14,14,0,0,1,425.95,503.55Z"/><path class="d" d="M474,503.4c3.74,2.16,3.74,5.66,0,7.83a15,15,0,0,1-13.55,0c-3.74-2.16-3.74-5.66,0-7.83A15,15,0,0,1,474,503.4Z"/><path class="d" d="M529.42,462.49c3.93,2.27,3.93,5.95,0,8.22a15.73,15.73,0,0,1-14.23,0c-3.93-2.27-3.93-5.95,0-8.22A15.73,15.73,0,0,1,529.42,462.49Z"/><path class="d" d="M495.73,465.09a1.22,1.22,0,0,1,0,2.3,4.41,4.41,0,0,1-4,0,1.22,1.22,0,0,1,0-2.3A4.41,4.41,0,0,1,495.73,465.09Z"/><path class="d" d="M544.22,427.27c3,1.71,3,4.48,0,6.2a11.86,11.86,0,0,1-10.73,0c-3-1.71-3-4.48,0-6.2A11.86,11.86,0,0,1,544.22,427.27Z"/><path class="d" d="M592.55,422.74c3.77,2.18,3.77,5.71,0,7.89a15.1,15.1,0,0,1-13.66,0c-3.77-2.18-3.77-5.71,0-7.89A15.1,15.1,0,0,1,592.55,422.74Z"/><path class="d" d="M613.77,395.79c3,1.71,3,4.48,0,6.2A11.86,11.86,0,0,1,603,402c-3-1.71-3-4.48,0-6.2A11.86,11.86,0,0,1,613.77,395.79Z"/><path class="d" d="M645.36,392.95c2.53,1.46,2.53,3.83,0,5.3a10.14,10.14,0,0,1-9.17,0c-2.53-1.46-2.53-3.83,0-5.3A10.14,10.14,0,0,1,645.36,392.95Z"/><path class="d" d="M658,369.08a1.22,1.22,0,0,1,0,2.3,4.41,4.41,0,0,1-4,0,1.22,1.22,0,0,1,0-2.3A4.41,4.41,0,0,1,658,369.08Z"/><path class="d" d="M683,369.68c2.5,1.44,2.5,3.78,0,5.22a10,10,0,0,1-9,0c-2.5-1.44-2.5-3.78,0-5.22A10,10,0,0,1,683,369.68Z"/><path class="d" d="M684.9,358.06c1.71,1,1.71,2.59,0,3.58a6.86,6.86,0,0,1-6.21,0c-1.71-1-1.71-2.59,0-3.58A6.86,6.86,0,0,1,684.9,358.06Z"/><path class="d" d="M707.22,362.26c3.63,2.09,3.63,5.49,0,7.58a14.51,14.51,0,0,1-13.13,0c-3.63-2.09-3.63-5.49,0-7.58A14.51,14.51,0,0,1,707.22,362.26Z"/><path class="d" d="M752,339c3.19,1.84,3.19,4.82,0,6.66a12.76,12.76,0,0,1-11.54,0c-3.19-1.84-3.19-4.82,0-6.66A12.76,12.76,0,0,1,752,339Z"/><path class="d" d="M764.59,314.46c3,1.71,3,4.48,0,6.2a11.86,11.86,0,0,1-10.73,0c-3-1.71-3-4.48,0-6.2A11.86,11.86,0,0,1,764.59,314.46Z"/><path class="d" d="M804.33,295.88c3.59,2.07,3.59,5.43,0,7.51a14.37,14.37,0,0,1-13,0c-3.59-2.07-3.59-5.43,0-7.51A14.37,14.37,0,0,1,804.33,295.88Z"/><path class="d" d="M718.13,345.63a1.22,1.22,0,0,1,0,2.3,4.41,4.41,0,0,1-4,0,1.22,1.22,0,0,1,0-2.3A4.41,4.41,0,0,1,718.13,345.63Z"/><path class="d" d="M778.37,324.71a1.22,1.22,0,0,1,0,2.3,4.41,4.41,0,0,1-4,0,1.22,1.22,0,0,1,0-2.3A4.41,4.41,0,0,1,778.37,324.71Z"/><path class="d" d="M837.85,277.43a1.22,1.22,0,0,1,0,2.3,4.41,4.41,0,0,1-4,0,1.22,1.22,0,0,1,0-2.3A4.41,4.41,0,0,1,837.85,277.43Z"/><path class="e" d="M846.56,284.19c-26-15-68.27-15-94.32,0s-26,39.42,0,54.45,68.27,15,94.32,0S872.61,299.22,846.56,284.19Z"/><path class="e" d="M842.14,286.74c-23.61-13.63-61.88-13.63-85.49,0s-23.61,35.73,0,49.35,61.88,13.63,85.49,0S865.75,300.37,842.14,286.74Z"/><path class="e" d="M837.73,289.29c-21.17-12.22-55.48-12.22-76.65,0s-21.17,32,0,44.25,55.48,12.22,76.65,0S858.89,301.51,837.73,289.29Z"/><path
        class="f"
        d="M820.7,262.49c-8.38-12.91-13.79-16.43-21.65-14.81,5.92,8.76-5,15.06-7.56,5.49-3.75-14.09-15.46-21.24-24.74-22.12,21.7,26.86-9.71,35-25,24.22-11.74-8.27-10.16-21.51-6.88-29.54,14.71-35.93,55.29-42.8,58.6-72.35,17.85,9.6,16.21,38.95,24.54,47.66,9.75,10.2,22.92,1.83,14.08-7.92,14.46,6.24,29.78,22.11,34.68,43.45C873.77,266.82,831.11,278.53,820.7,262.49Z"/><path
        class="g"
        d="M866.86,236.74c6.74,30.12-35.77,41.76-46.16,25.76-8.38-12.91-13.79-16.43-21.65-14.81,5.92,8.76-5,15.06-7.56,5.49-3.75-14.09-15.46-21.24-24.74-22.12,21.7,26.86-9.71,35-25,24.22-11.33-8-10.26-20.6-7.21-28.69a76,76,0,0,0-4.95,28.15,69.77,69.77,0,1,0,139.53,0A71.27,71.27,0,0,0,866.86,236.74Z"/><path
        class="h"
        d="M706.1,397.65l-21.57-12.45,9.57-5.52L649.63,354l-9.57,5.52-11.9-6.87c-5.68-3.28-14.91-3.28-20.59,0l-77.94,45c-5.68,3.28-5.68,8.61,0,11.89l11.9,6.87-11.22,6.48,44.47,25.67L586,442.08l21.57,12.45c5.68,3.28,14.91,3.28,20.59,0l77.94-45C711.77,406.26,711.77,400.92,706.1,397.65Zm-167.65,6.79a0.9,0.9,0,0,1,0-1.7l77.94-45a3.3,3.3,0,0,1,2.94,0l11.9,6.87L580,394.18l-29.67,17.13Zm158.82,0-77.94,45a3.3,3.3,0,0,1-2.94,0L594.83,437l29.67-17.13,51.21-29.57,21.57,12.45A0.9,0.9,0,0,1,697.28,404.44Z"/><path
        class="i"
        d="M607.57,332.43l-77.94,45c-5.68,3.28-5.68,8.61,0,11.89l77.94,45c5.68,3.28,14.91,3.28,20.59,0l77.94-45c5.68-3.28,5.68-8.61,0-11.89l-77.94-45C622.48,329.16,613.25,329.16,607.57,332.43Zm89.71,50.09a0.9,0.9,0,0,1,0,1.7l-77.94,45a3.3,3.3,0,0,1-2.94,0l-77.94-45a0.9,0.9,0,0,1,0-1.7l77.94-45a3.3,3.3,0,0,1,2.94,0Z"/><path class="c" d="M540.76,396.07l44.47,25.67,8.95-5.34-44.47-25.67Zm98.65-57.13L630.59,344l44.47,25.67,8.82-5.09Z"/><path class="a" d="M706.1,389.32l-77.94,45a21.05,21.05,0,0,1-10.29,2.46v11.55a21.05,21.05,0,0,0,10.29-2.46l77.94-45c2.84-1.64,4.26-3.79,4.26-5.94V383.38C710.36,385.53,708.94,387.68,706.1,389.32Z"/><path class="c" d="M697.28,382.53l-77.94-45a3,3,0,0,0-1.47-.35v11.55a3,3,0,0,1,1.47.35l69.41,40.07h0l8.53-4.92A0.9,0.9,0,0,0,697.28,382.53Z"/><path class="a" d="M617.86,337.18a3,3,0,0,0-1.47.35l-77.94,45a0.9,0.9,0,0,0,0,1.7l8.53,4.92,69.41-40.07a3,3,0,0,1,1.47-.35V337.18Z"/><polygon class="j" points="674.55 271.55 624.84 357.66 595.01 340.44 575.12 374.89 624.84 403.59 694.44 283.04 674.55 271.55"/><rect class="k" x="550.79" y="332.75" width="39.77" height="33.22" transform="translate(-17.21 668.9) rotate(-60)"/><rect class="k" x="585.59" y="289.69" width="99.43" height="33.22" transform="translate(52.39 703.35) rotate(-60)"/><path class="c" d="M617.86,436.78a21.05,21.05,0,0,1-10.29-2.46l-77.94-45c-2.84-1.64-4.26-3.79-4.26-5.94v11.55c0,2.15,1.42,4.3,4.26,5.94l77.94,45a21.05,21.05,0,0,0,10.29,2.46V436.78Z"/><path class="l" d="M554.05,517.83L419.91,439.48c-12.74-7.36-22.61-.84-35.2,6.78-7.76,4.7-18.53,15.55-10.95,19.86l134.14,78.35c12.74,7.36,26.59,4.22,39.26-3.25C553.62,537.42,563.95,524.44,554.05,517.83Z"/><path class="i" d="M552.32,519C540,483.38,514.5,449.1,485,432.1c-31.41-18.13-63-11.26-81.88-1.39-11.73,6.13-22.1,17.07-28.29,33.15l136.45,78.78s10.93,6.12,29.89-4.75C556,529.43,552.32,519,552.32,519Z"/><path class="c" d="M515.48,482.53c-25.85-33.74-60.23-55.45-87.43-55.07l-14.34,7.42c27.67-.38,61.06,21,87.11,55.79Z"/><path class="m" d="M444.07,455.76c-29.46-17-54.94-12.15-67.27,9.21l134.55,77.68C499,507,473.52,472.76,444.07,455.76Z"/><path class="b" d="M453.55,478c2.25,1.3,4.48,2.72,6.68,4.24a99.8,99.8,0,0,0-16.16-11.78c-22.13-12.77-41.55-10.69-52.64,2.95l8,4.62C411.76,466.17,431.41,465.24,453.55,478Z"/><path class="k" d="M514.46,481l-9.23-30.43-5.35,5.11c-22.27-27-50-43-72.23-41.7l-5.35-11.28-9.23,19.78,23.44,10.21-5.27-11.11c20.13-.83,44.89,13.47,65,37.54l-5.27,5Z"/><polygon class="n" points="514.46 480.98 525.73 474.47 516.5 444.04 505.23 450.55 514.46 480.98"/><polygon class="n" points="422.31 402.67 427.66 413.95 438.93 407.44 433.59 396.16 422.31 402.67"/><path class="n" d="M510,447.77c-22.07-26.22-49.2-41.65-71.09-40.33L427.66,414c22.27-1.34,50,14.65,72.23,41.7l5.35-5.11Z"/><path class="j" d="M446.56,423.54a49,49,0,0,0-15.3-2l5.27,11.11,11.27-6.51-1.24-2.61h0Z"/><path class="h" d="M404.49,577.58l-49.59,28.63c-3.82,2.2-10.49,1.93-14.9-.62l-47.45-27.4c-4.41-2.55-4.89-6.4-1.07-8.6L341.07,541c3.82-2.2,10.49-1.93,14.9.62L403.42,569C407.83,571.53,408.31,575.38,404.49,577.58Z"/><path class="k" d="M400.76,520.05l-48.69,28.11c-2.26,1.3-6.2,1.14-8.8-.36l-47.43-27.38c-2.61-1.5-2.89-3.78-.63-5.08l48.69-28.11c2.26-1.3,6.2-1.14,8.8.36L400.13,515C402.73,516.47,403,518.75,400.76,520.05Z"/><path class="j" d="M402.27,517.6a2.52,2.52,0,0,1-1.51,2.45l-48.69,28.11A8,8,0,0,1,348,549V594.1a13.49,13.49,0,0,0,6.92-1.47L404.49,564c1.82-1.05,2.64-2.48,2.54-4h0L402.3,517.6h0Z"/><path class="n" d="M348,549a10.12,10.12,0,0,1-4.71-1.22l-47.43-27.38a3.63,3.63,0,0,1-2.13-2.82h0l-4.8,42.05h0c-0.05,1.72,1.14,3.54,3.6,5L340,592a17.16,17.16,0,0,0,8,2.09V549Z"/><path class="b" d="M352.66,533l-30.89-17.83,6-3.44,31.55,5.17,0.09-.05L339.11,505.2l6-3.46L376,519.57,370.13,523l-31.68-5.09-0.09.05,20.25,11.69Z"/><path class="h" d="M316.23,628.54l-49.59,28.63c-3.82,2.2-10.49,1.93-14.9-.62l-47.45-27.4c-4.41-2.55-4.89-6.4-1.07-8.6l49.59-28.63c3.82-2.2,10.49-1.93,14.9.62l47.45,27.4C319.56,622.49,320,626.34,316.23,628.54Z"/><path class="o" d="M312.5,571L263.8,599.12c-2.26,1.3-6.2,1.14-8.8-.36l-47.43-27.38c-2.61-1.5-2.89-3.78-.63-5.08l48.69-28.11c2.26-1.3,6.2-1.14,8.8.36l47.43,27.38C314.47,567.43,314.75,569.71,312.5,571Z"/><polygon class="d" points="291.24 559.3 243.52 586.85 228.2 578 275.91 550.45 291.24 559.3"/><path class="p" d="M314,568.56A2.52,2.52,0,0,1,312.5,571L263.8,599.12a8,8,0,0,1-4.09.86v45.08a13.49,13.49,0,0,0,6.92-1.47L316.23,615c1.82-1.05,2.64-2.48,2.54-4h0L314,568.56h0Z"/><path class="q" d="M259.71,600a10.12,10.12,0,0,1-4.71-1.22l-47.43-27.38a3.63,3.63,0,0,1-2.13-2.82h0l-4.8,42.05h0c-0.05,1.72,1.14,3.54,3.6,5L251.73,643a17.16,17.16,0,0,0,8,2.09V600Z"/><path
        class="p"
        d="M236.25,564.25l-5.07-2.93,5.38-3.11,5.07,2.93Zm-1.68,4.28,6-3.44L261.09,577a10.87,10.87,0,0,0,11.12-.1c3.71-2.14,3.62-4.48.31-6.39l-20.65-11.92,6-3.44,20.83,12c6.93,4,6.13,8.84-.93,12.92s-15.4,4.51-22.33.51ZM245,559.18L240,556.25l5.38-3.11,5.07,2.93Z"/><path
        class="o"
        d="M279.44,479.75a0.79,0.79,0,0,1,.23.26,0.86,0.86,0,0,0-.14-0.21Zm-15.94-8.49L241.07,484.2a3.32,3.32,0,0,0-1.5,2.6v27.58l-13.62,7.87c-1.34.77-2,3-1.06,3.58l14.87,8.58c-0.95-.55-0.28-2.8,1.06-3.58L254.43,523V495.39a3.32,3.32,0,0,1,1.5-2.6l22.43-12.95a1.06,1.06,0,0,1,1-.11c-1.14-.72-14.58-8.42-14.84-8.57A1,1,0,0,0,263.49,471.25Z"/><polygon class="o" points="294.56 500.32 279.86 491.88 279.86 508.28 294.56 500.32"/><path class="d" d="M254.8,494L240,485.43a3,3,0,0,0-.39,1.37v27.58L254.43,523Z"/><path class="r" d="M279.86,508.28V480.71a0.92,0.92,0,0,0-1.5-.87l-22.43,12.95a3.32,3.32,0,0,0-1.5,2.6V523l-13.62,7.87c-1.34.77-2,3-1.06,3.58l26.34,15.21c0.59,0.34,1.54-.21,2.13-1.23l26.34-45.62c0.95-1.64.28-3.12-1.06-2.35Z"/><path class="h" d="M228,679.5l-49.59,28.63c-3.82,2.2-10.49,1.93-14.9-.62L116,680.12c-4.41-2.55-4.89-6.4-1.07-8.6l49.59-28.63c3.82-2.2,10.49-1.93,14.9.62l47.45,27.4C231.3,673.44,231.78,677.29,228,679.5Z"/><path class="k" d="M224.23,622l-48.69,28.11c-2.26,1.3-6.2,1.14-8.8-.36l-47.43-27.38c-2.61-1.5-2.89-3.78-.63-5.08l48.69-28.11c2.26-1.3,6.2-1.14,8.8.36l47.43,27.38C226.21,618.39,226.49,620.67,224.23,622Z"/><path class="j" d="M225.74,619.52a2.52,2.52,0,0,1-1.51,2.45l-48.69,28.11a8,8,0,0,1-4.09.86V696a13.49,13.49,0,0,0,6.92-1.47L228,665.91c1.82-1.05,2.64-2.48,2.54-4h0l-4.76-42.44h0Z"/><path class="n" d="M171.45,650.94a10.12,10.12,0,0,1-4.71-1.22l-47.43-27.38a3.63,3.63,0,0,1-2.13-2.82h0l-4.8,42.05h0c-0.05,1.72,1.14,3.54,3.6,5l47.45,27.4a17.16,17.16,0,0,0,8,2.09V650.94Z"/><path class="b" d="M180,633.31l-30.89-17.83,19.59-11.31,5.52,3.18-13.63,7.87,8.16,4.71,12.4-7.16,5.25,3L174,623l12,6.9Z"/><path class="m" d="M129.18,352.64L728.4,12.1l26.45,11.74L155.63,364.37Z"/></svg>
