<svg xmlns="http://www.w3.org/2000/svg" viewBox="0 0 950 950"><defs><linearGradient id="a" x1="800.06" y1="263.36" x2="800.06" y2="149.59" gradientUnits="userSpaceOnUse"><stop offset="0" stop-color="#f58159"/><stop offset="1" stop-color="#e03e2f"/></linearGradient><linearGradient id="b" x1="799.4" y1="319.53" x2="799.4" y2="232.74" gradientUnits="userSpaceOnUse"><stop offset="0" stop-color="#f58159"/><stop offset=".06" stop-color="#f37954"/><stop offset=".28" stop-color="#ea5f44"/><stop offset=".5" stop-color="#e54d38"/><stop offset=".74" stop-color="#e14231"/><stop offset="1" stop-color="#e03e2f"/></linearGradient><style>.a{fill:#241c2c}.b{fill:#342c3e}.c{fill:#463e52}.d{fill:#f58159}.e,.p{fill:#e03e2f}.e{opacity:.2}.h{fill:#16111c;opacity:.7}.i{fill:#777088}.j{fill:#9990ab}.k{fill:#dbd3e9}.m{fill:#564f64}.n{fill:#b9b2d0}.o{fill:#f9a66d}</style></defs><path class="a" d="M129.18 352.64v573.52l26.45 11.74V364.37z"/><path class="b" d="M754.85 597.36L155.63 937.9V399.23L754.85 58.7v538.66z"/><path class="c" d="M155.63 364.37V937.9l599.22-340.54V23.84zm591.28 228.41L163.57 924.14V403.82L746.91 72.45v520.33z"/><path class="b" d="M209.57 345.16c3.29-1.9 6-.36 6 3.44a13.18 13.18 0 01-6 10.33c-3.29 1.9-6 .36-6-3.44a13.19 13.19 0 016-10.33zM193.52 354.43c3.29-1.9 6-.36 6 3.44a13.19 13.19 0 01-6 10.33c-3.29 1.9-6 .36-6-3.44a13.19 13.19 0 016-10.33zM177.48 363.69c3.29-1.9 6-.36 6 3.44a13.18 13.18 0 01-6 10.33c-3.29 1.9-6 .36-6-3.44a13.19 13.19 0 016-10.33z"/><path class="a" d="M825 479a10.83 10.83 0 00-9.8 0l-28.63 16.52-29.88-17.22c2-3.28.8-7.08-3.76-9.71-6.31-3.64-16.54-3.64-22.86 0s-6.31 9.55 0 13.2c4.55 2.63 11.13 3.33 16.82 2.17l29.84 17.23-155.47 89.7L591 573.45c1.45-3.12.12-6.57-4.11-9-6.31-3.64-16.54-3.64-22.86 0s-6.31 9.55 0 13.2c4.85 2.8 12 3.43 17.94 1.92l29.44 17-190.27 109.78-29.73-17.16c2-3.28.8-7.08-3.76-9.71-6.31-3.64-16.54-3.64-22.86 0s-6.31 9.55 0 13.2c4.55 2.63 11.13 3.33 16.82 2.17L411.34 712l-32.66 18.84c-2.71 1.56-2.71 4.09 0 5.66a10.82 10.82 0 009.8 0L825 484.67c2.67-1.56 2.67-4.1 0-5.67zM365.67 744a10.83 10.83 0 00-9.79 0c-2.7 1.56-2.7 4.09 0 5.66a10.82 10.82 0 009.8 0c2.69-1.55 2.69-4.08-.01-5.66zm-21.25 12.27a9 9 0 00-8.13 0c-2.25 1.3-2.25 3.4 0 4.7a9 9 0 008.13 0c2.24-1.28 2.24-3.39 0-4.68zm-19.59 11.33a7.15 7.15 0 00-6.47 0c-1.79 1-1.79 2.7 0 3.74a7.15 7.15 0 006.47 0c1.78-1.04 1.78-2.71 0-3.74zm-17.93 10.35a5.32 5.32 0 00-4.81 0c-1.33.77-1.33 2 0 2.78a5.31 5.31 0 004.81 0c1.33-.73 1.33-2.01 0-2.78zm541-312.19a10.83 10.83 0 00-9.8 0c-2.7 1.56-2.7 4.09 0 5.66a10.82 10.82 0 009.8 0c2.73-1.57 2.73-4.1.02-5.66zm19.59-11.31a9 9 0 00-8.13 0c-2.25 1.3-2.25 3.4 0 4.7a9 9 0 008.13 0c2.27-1.3 2.27-3.41.02-4.7zm17.93-10.35a7.15 7.15 0 00-6.47 0c-1.79 1-1.79 2.7 0 3.74a7.15 7.15 0 006.47 0c1.81-1.04 1.81-2.71.02-3.74zm16.27-9.39a5.32 5.32 0 00-4.81 0c-1.33.77-1.33 2 0 2.78a5.31 5.31 0 004.81 0c1.31-.78 1.31-2.02.02-2.79z"/><path class="d" d="M86 722.42c3.19 1.84 3.19 4.82 0 6.66a12.76 12.76 0 01-11.54 0c-3.19-1.84-3.19-4.82 0-6.66a12.76 12.76 0 0111.54 0zM98.58 697.92c3 1.71 3 4.48 0 6.2a11.86 11.86 0 01-10.73 0c-3-1.71-3-4.48 0-6.2a11.86 11.86 0 0110.73 0zM138.31 679.35c3.59 2.07 3.59 5.43 0 7.51a14.37 14.37 0 01-13 0c-3.59-2.07-3.59-5.43 0-7.51a14.37 14.37 0 0113 0zM209.5 657.14c3.74 2.16 3.74 5.66 0 7.83a15 15 0 01-13.55 0c-3.74-2.16-3.74-5.66 0-7.83a15 15 0 0113.55 0zM52.11 729.09a1.22 1.22 0 010 2.3 4.41 4.41 0 01-4 0 1.22 1.22 0 010-2.3 4.41 4.41 0 014 0zM112.35 708.17a1.22 1.22 0 010 2.3 4.41 4.41 0 01-4 0 1.22 1.22 0 010-2.3 4.41 4.41 0 014 0zM171.83 660.89a1.22 1.22 0 010 2.3 4.41 4.41 0 01-4 0 1.22 1.22 0 010-2.3 4.41 4.41 0 014 0zM236 639.21a1.22 1.22 0 010 2.3 4.41 4.41 0 01-4 0 1.22 1.22 0 010-2.3 4.41 4.41 0 014 0zM264.62 605.55c3.63 2.09 3.63 5.49 0 7.58a14.51 14.51 0 01-13.13 0c-3.63-2.09-3.63-5.49 0-7.58a14.51 14.51 0 0113.13 0zM310.17 596.86c3.4 2 3.4 5.15 0 7.11a13.61 13.61 0 01-12.31 0c-3.4-2-3.4-5.15 0-7.11a13.61 13.61 0 0112.31 0zM317.64 585.44c1.67 1 1.67 2.52 0 3.48a6.67 6.67 0 01-6 0c-1.67-1-1.67-2.52 0-3.48a6.67 6.67 0 016 0zM323.95 567.12c3.95 2.28 3.95 6 0 8.25a15.8 15.8 0 01-14.29 0c-3.95-2.28-3.95-6 0-8.25a15.8 15.8 0 0114.29 0zM359.88 575.27c3.19 1.84 3.19 4.83 0 6.67a12.77 12.77 0 01-11.56 0c-3.19-1.84-3.19-4.83 0-6.67a12.77 12.77 0 0111.56 0zM388.61 556.25c3.74 2.16 3.74 5.66 0 7.83a15 15 0 01-13.55 0c-3.74-2.16-3.74-5.66 0-7.83a15 15 0 0113.55 0zM414 533.14c3.9 2.25 3.9 5.9 0 8.15a15.6 15.6 0 01-14.12 0c-3.9-2.25-3.9-5.9 0-8.15a15.6 15.6 0 0114.12 0zM432.34 517.94c2.2 1.27 2.2 3.32 0 4.59a8.79 8.79 0 01-8 0c-2.2-1.27-2.2-3.32 0-4.59a8.79 8.79 0 018 0zM425.95 503.55c3.51 2 3.51 5.31 0 7.33a14 14 0 01-12.69 0c-3.51-2-3.51-5.31 0-7.33a14 14 0 0112.69 0zM474 503.4c3.74 2.16 3.74 5.66 0 7.83a15 15 0 01-13.55 0c-3.74-2.16-3.74-5.66 0-7.83a15 15 0 0113.55 0zM529.42 462.49c3.93 2.27 3.93 5.95 0 8.22a15.73 15.73 0 01-14.23 0c-3.93-2.27-3.93-5.95 0-8.22a15.73 15.73 0 0114.23 0zM495.73 465.09a1.22 1.22 0 010 2.3 4.41 4.41 0 01-4 0 1.22 1.22 0 010-2.3 4.41 4.41 0 014 0zM544.22 427.27c3 1.71 3 4.48 0 6.2a11.86 11.86 0 01-10.73 0c-3-1.71-3-4.48 0-6.2a11.86 11.86 0 0110.73 0zM592.55 422.74c3.77 2.18 3.77 5.71 0 7.89a15.1 15.1 0 01-13.66 0c-3.77-2.18-3.77-5.71 0-7.89a15.1 15.1 0 0113.66 0zM613.77 395.79c3 1.71 3 4.48 0 6.2A11.86 11.86 0 01603 402c-3-1.71-3-4.48 0-6.2a11.86 11.86 0 0110.77-.01zM645.36 392.95c2.53 1.46 2.53 3.83 0 5.3a10.14 10.14 0 01-9.17 0c-2.53-1.46-2.53-3.83 0-5.3a10.14 10.14 0 019.17 0zM658 369.08a1.22 1.22 0 010 2.3 4.41 4.41 0 01-4 0 1.22 1.22 0 010-2.3 4.41 4.41 0 014 0zM683 369.68c2.5 1.44 2.5 3.78 0 5.22a10 10 0 01-9 0c-2.5-1.44-2.5-3.78 0-5.22a10 10 0 019 0zM684.9 358.06c1.71 1 1.71 2.59 0 3.58a6.86 6.86 0 01-6.21 0c-1.71-1-1.71-2.59 0-3.58a6.86 6.86 0 016.21 0zM707.22 362.26c3.63 2.09 3.63 5.49 0 7.58a14.51 14.51 0 01-13.13 0c-3.63-2.09-3.63-5.49 0-7.58a14.51 14.51 0 0113.13 0zM752 339c3.19 1.84 3.19 4.82 0 6.66a12.76 12.76 0 01-11.54 0c-3.19-1.84-3.19-4.82 0-6.66a12.76 12.76 0 0111.54 0zM764.59 314.46c3 1.71 3 4.48 0 6.2a11.86 11.86 0 01-10.73 0c-3-1.71-3-4.48 0-6.2a11.86 11.86 0 0110.73 0zM804.33 295.88c3.59 2.07 3.59 5.43 0 7.51a14.37 14.37 0 01-13 0c-3.59-2.07-3.59-5.43 0-7.51a14.37 14.37 0 0113 0zM718.13 345.63a1.22 1.22 0 010 2.3 4.41 4.41 0 01-4 0 1.22 1.22 0 010-2.3 4.41 4.41 0 014 0zM778.37 324.71a1.22 1.22 0 010 2.3 4.41 4.41 0 01-4 0 1.22 1.22 0 010-2.3 4.41 4.41 0 014 0zM837.85 277.43a1.22 1.22 0 010 2.3 4.41 4.41 0 01-4 0 1.22 1.22 0 010-2.3 4.41 4.41 0 014 0z"/><path class="e" d="M846.56 284.19c-26-15-68.27-15-94.32 0s-26 39.42 0 54.45 68.27 15 94.32 0 26.05-39.42 0-54.45z"/><path class="e" d="M842.14 286.74c-23.61-13.63-61.88-13.63-85.49 0s-23.61 35.73 0 49.35 61.88 13.63 85.49 0 23.61-35.72 0-49.35z"/><path class="e" d="M837.73 289.29c-21.17-12.22-55.48-12.22-76.65 0s-21.17 32 0 44.25 55.48 12.22 76.65 0 21.16-32.03 0-44.25z"/><path d="M820.7 262.49c-8.38-12.91-13.79-16.43-21.65-14.81 5.92 8.76-5 15.06-7.56 5.49-3.75-14.09-15.46-21.24-24.74-22.12 21.7 26.86-9.71 35-25 24.22-11.74-8.27-10.16-21.51-6.88-29.54 14.71-35.93 55.29-42.8 58.6-72.35 17.85 9.6 16.21 38.95 24.54 47.66 9.75 10.2 22.92 1.83 14.08-7.92 14.46 6.24 29.78 22.11 34.68 43.45 7 30.25-35.66 41.96-46.07 25.92z" fill="url(#a)"/><path d="M866.86 236.74c6.74 30.12-35.77 41.76-46.16 25.76-8.38-12.91-13.79-16.43-21.65-14.81 5.92 8.76-5 15.06-7.56 5.49-3.75-14.09-15.46-21.24-24.74-22.12 21.7 26.86-9.71 35-25 24.22-11.33-8-10.26-20.6-7.21-28.69a76 76 0 00-4.95 28.15 69.77 69.77 0 10139.53 0 71.27 71.27 0 00-2.26-18z" fill="url(#b)"/><path class="h" d="M706.1 397.65l-21.57-12.45 9.57-5.52L649.63 354l-9.57 5.52-11.9-6.87c-5.68-3.28-14.91-3.28-20.59 0l-77.94 45c-5.68 3.28-5.68 8.61 0 11.89l11.9 6.87-11.22 6.48 44.47 25.67 11.22-6.48 21.57 12.45c5.68 3.28 14.91 3.28 20.59 0l77.94-45c5.67-3.27 5.67-8.61 0-11.88zm-167.65 6.79a.9.9 0 010-1.7l77.94-45a3.3 3.3 0 012.94 0l11.9 6.87L580 394.18l-29.67 17.13zm158.82 0l-77.94 45a3.3 3.3 0 01-2.94 0L594.83 437l29.67-17.13 51.21-29.57 21.57 12.45a.9.9 0 010 1.69z"/><path class="i" d="M607.57 332.43l-77.94 45c-5.68 3.28-5.68 8.61 0 11.89l77.94 45c5.68 3.28 14.91 3.28 20.59 0l77.94-45c5.68-3.28 5.68-8.61 0-11.89l-77.94-45c-5.68-3.27-14.91-3.27-20.59 0zm89.71 50.09a.9.9 0 010 1.7l-77.94 45a3.3 3.3 0 01-2.94 0l-77.94-45a.9.9 0 010-1.7l77.94-45a3.3 3.3 0 012.94 0z"/><path class="c" d="M540.76 396.07l44.47 25.67 8.95-5.34-44.47-25.67zm98.65-57.13l-8.82 5.06 44.47 25.67 8.82-5.09z"/><path class="a" d="M706.1 389.32l-77.94 45a21.05 21.05 0 01-10.29 2.46v11.55a21.05 21.05 0 0010.29-2.46l77.94-45c2.84-1.64 4.26-3.79 4.26-5.94v-11.55c0 2.15-1.42 4.3-4.26 5.94z"/><path class="c" d="M697.28 382.53l-77.94-45a3 3 0 00-1.47-.35v11.55a3 3 0 011.47.35l69.41 40.07 8.53-4.92a.9.9 0 000-1.7z"/><path class="a" d="M617.86 337.18a3 3 0 00-1.47.35l-77.94 45a.9.9 0 000 1.7l8.53 4.92 69.41-40.07a3 3 0 011.47-.35v-11.55z"/><path class="j" d="M674.55 271.55l-49.71 86.11-29.83-17.22-19.89 34.45 49.72 28.7 69.6-120.55-19.89-11.49z"/><path class="k" d="M546.355 358.277l19.885-34.442 28.77 16.61-19.886 34.442zM596.064 341.06l49.715-86.11 28.77 16.61-49.716 86.11z"/><path class="c" d="M617.86 436.78a21.05 21.05 0 01-10.29-2.46l-77.94-45c-2.84-1.64-4.26-3.79-4.26-5.94v11.55c0 2.15 1.42 4.3 4.26 5.94l77.94 45a21.05 21.05 0 0010.29 2.46v-11.55z"/><path d="M554.05 517.83l-134.14-78.35c-12.74-7.36-22.61-.84-35.2 6.78-7.76 4.7-18.53 15.55-10.95 19.86l134.14 78.35c12.74 7.36 26.59 4.22 39.26-3.25 6.46-3.8 16.79-16.78 6.89-23.39z" fill="#16111c"/><path class="i" d="M552.32 519C540 483.38 514.5 449.1 485 432.1c-31.41-18.13-63-11.26-81.88-1.39-11.73 6.13-22.1 17.07-28.29 33.15l136.45 78.78s10.93 6.12 29.89-4.75C556 529.43 552.32 519 552.32 519z"/><path class="c" d="M515.48 482.53c-25.85-33.74-60.23-55.45-87.43-55.07l-14.34 7.42c27.67-.38 61.06 21 87.11 55.79z"/><path class="m" d="M444.07 455.76c-29.46-17-54.94-12.15-67.27 9.21l134.55 77.68C499 507 473.52 472.76 444.07 455.76z"/><path class="b" d="M453.55 478c2.25 1.3 4.48 2.72 6.68 4.24a99.8 99.8 0 00-16.16-11.78c-22.13-12.77-41.55-10.69-52.64 2.95l8 4.62c12.33-11.86 31.98-12.79 54.12-.03z"/><path class="k" d="M514.46 481l-9.23-30.43-5.35 5.11c-22.27-27-50-43-72.23-41.7l-5.35-11.28-9.23 19.78 23.44 10.21-5.27-11.11c20.13-.83 44.89 13.47 65 37.54l-5.27 5z"/><path class="n" d="M514.46 480.98l11.27-6.51-9.23-30.43-11.27 6.51 9.23 30.43zM422.31 402.67l5.35 11.28 11.27-6.51-5.34-11.28-11.28 6.51z"/><path class="n" d="M510 447.77c-22.07-26.22-49.2-41.65-71.09-40.33L427.66 414c22.27-1.34 50 14.65 72.23 41.7l5.35-5.11z"/><path class="j" d="M446.56 423.54a49 49 0 00-15.3-2l5.27 11.11 11.27-6.51-1.24-2.61z"/><path class="h" d="M404.49 577.58l-49.59 28.63c-3.82 2.2-10.49 1.93-14.9-.62l-47.45-27.4c-4.41-2.55-4.89-6.4-1.07-8.6L341.07 541c3.82-2.2 10.49-1.93 14.9.62L403.42 569c4.41 2.53 4.89 6.38 1.07 8.58z"/><path class="k" d="M400.76 520.05l-48.69 28.11c-2.26 1.3-6.2 1.14-8.8-.36l-47.43-27.38c-2.61-1.5-2.89-3.78-.63-5.08l48.69-28.11c2.26-1.3 6.2-1.14 8.8.36L400.13 515c2.6 1.47 2.87 3.75.63 5.05z"/><path class="j" d="M402.27 517.6a2.52 2.52 0 01-1.51 2.45l-48.69 28.11a8 8 0 01-4.07.84v45.1a13.49 13.49 0 006.92-1.47L404.49 564c1.82-1.05 2.64-2.48 2.54-4l-4.73-42.4z"/><path class="n" d="M348 549a10.12 10.12 0 01-4.71-1.22l-47.43-27.38a3.63 3.63 0 01-2.13-2.82l-4.8 42.05c-.05 1.72 1.14 3.54 3.6 5L340 592a17.16 17.16 0 008 2.09V549z"/><path class="b" d="M352.66 533l-30.89-17.83 6-3.44 31.55 5.17.09-.05-20.3-11.65 6-3.46L376 519.57l-5.87 3.43-31.68-5.09-.09.05 20.25 11.69z"/><path class="h" d="M316.23 628.54l-49.59 28.63c-3.82 2.2-10.49 1.93-14.9-.62l-47.45-27.4c-4.41-2.55-4.89-6.4-1.07-8.6l49.59-28.63c3.82-2.2 10.49-1.93 14.9.62l47.45 27.4c4.4 2.55 4.84 6.4 1.07 8.6z"/><path class="o" d="M312.5 571l-48.7 28.12c-2.26 1.3-6.2 1.14-8.8-.36l-47.43-27.38c-2.61-1.5-2.89-3.78-.63-5.08l48.69-28.11c2.26-1.3 6.2-1.14 8.8.36l47.43 27.38c2.61 1.5 2.89 3.78.64 5.07z"/><path class="d" d="M291.24 559.3l-47.72 27.55L228.2 578l47.71-27.55 15.33 8.85z"/><path class="p" d="M314 568.56a2.52 2.52 0 01-1.5 2.44l-48.7 28.12a8 8 0 01-4.09.86v45.08a13.49 13.49 0 006.92-1.47l49.6-28.59c1.82-1.05 2.64-2.48 2.54-4L314 568.56z"/><path d="M259.71 600a10.12 10.12 0 01-4.71-1.22l-47.43-27.38a3.63 3.63 0 01-2.13-2.82l-4.8 42.05c-.05 1.72 1.14 3.54 3.6 5L251.73 643a17.16 17.16 0 008 2.09V600z" fill="#f36e4f"/><path class="p" d="M236.25 564.25l-5.07-2.93 5.38-3.11 5.07 2.93zm-1.68 4.28l6-3.44L261.09 577a10.87 10.87 0 0011.12-.1c3.71-2.14 3.62-4.48.31-6.39l-20.65-11.92 6-3.44 20.83 12c6.93 4 6.13 8.84-.93 12.92s-15.4 4.51-22.33.51zm10.43-9.35l-5-2.93 5.38-3.11 5.07 2.93z"/><path class="o" d="M279.44 479.75a.79.79 0 01.23.26.86.86 0 00-.14-.21zm-15.94-8.49l-22.43 12.94a3.32 3.32 0 00-1.5 2.6v27.58l-13.62 7.87c-1.34.77-2 3-1.06 3.58l14.87 8.58c-.95-.55-.28-2.8 1.06-3.58l13.61-7.83v-27.61a3.32 3.32 0 011.5-2.6l22.43-12.95a1.06 1.06 0 011-.11c-1.14-.72-14.58-8.42-14.84-8.57a1 1 0 00-1.03.09zM294.56 500.32l-14.7-8.44v16.4l14.7-7.96z"/><path class="d" d="M254.8 494l-14.8-8.57a3 3 0 00-.39 1.37v27.58l14.82 8.62z"/><path d="M279.86 508.28v-27.57a.92.92 0 00-1.5-.87l-22.43 12.95a3.32 3.32 0 00-1.5 2.6V523l-13.62 7.87c-1.34.77-2 3-1.06 3.58l26.34 15.21c.59.34 1.54-.21 2.13-1.23l26.34-45.62c.95-1.64.28-3.12-1.06-2.35z" fill="#ec5e44"/><path class="h" d="M228 679.5l-49.59 28.63c-3.82 2.2-10.49 1.93-14.9-.62L116 680.12c-4.41-2.55-4.89-6.4-1.07-8.6l49.59-28.63c3.82-2.2 10.49-1.93 14.9.62l47.45 27.4c4.43 2.53 4.91 6.38 1.13 8.59z"/><path class="k" d="M224.23 622l-48.69 28.11c-2.26 1.3-6.2 1.14-8.8-.36l-47.43-27.38c-2.61-1.5-2.89-3.78-.63-5.08l48.69-28.11c2.26-1.3 6.2-1.14 8.8.36l47.43 27.38c2.61 1.47 2.89 3.75.63 5.08z"/><path class="j" d="M225.74 619.52a2.52 2.52 0 01-1.51 2.45l-48.69 28.11a8 8 0 01-4.09.86V696a13.49 13.49 0 006.92-1.47L228 665.91c1.82-1.05 2.64-2.48 2.54-4l-4.76-42.44z"/><path class="n" d="M171.45 650.94a10.12 10.12 0 01-4.71-1.22l-47.43-27.38a3.63 3.63 0 01-2.13-2.82l-4.8 42.05c-.05 1.72 1.14 3.54 3.6 5l47.45 27.4a17.16 17.16 0 008 2.09v-45.12z"/><path class="b" d="M180 633.31l-30.89-17.83 19.59-11.31 5.52 3.18-13.63 7.87 8.16 4.71 12.4-7.16 5.25 3L174 623l12 6.9z"/><path class="m" d="M129.18 352.64L728.4 12.1l26.45 11.74-599.22 340.53z"/></svg>