<svg version="1.1" id="Layer_1" xmlns="http://www.w3.org/2000/svg" x="0" y="0" viewBox="0 0 950 950" xml:space="preserve"><style>.st2{fill:#c4bfdc}.st3{fill:#fff}.st4{fill:#e3a36f}.st5{fill:#c03f33}.st6{fill:#d5d0e5}</style><g id="Abstract_screenshot"><path d="M159.4 352.6L760.8 5.4c6.4-3.7 12.2-4.3 16.8-2.3.9.4 23.1 13.2 23.8 13.6 4.7 3.3 7.5 9.9 7.5 18.9v512.9c0 18.4-12 40.3-26.8 48.9L180.8 944.6c-6.2 3.6-12 4.2-16.5 2.4s-23.4-13.3-24.1-13.8c-4.7-3.3-7.5-9.8-7.5-18.8V401.5c-.1-18.5 12-40.4 26.7-48.9z" fill="#343040"/><path d="M782.1 597.4c14.8-8.5 26.8-30.4 26.8-48.9V35.6c0-18.4-12-26.5-26.8-18L180.8 364.9c-14.8 8.5-26.8 30.4-26.8 48.9v512.9c0 18.4 12 26.5 26.8 18l601.3-347.3z" fill="#504a5d"/><path class="st2" d="M814 45l-.1-.1.1.1c.1 0 0 0 0 0zM166.7 406.4v512.9c0 5.2 1.6 9 4.1 10.9s18.8 10.7 21.6 12.5c.1.1.2.1.3.2-3-1.7-4.8-5.7-4.8-11.3v-513c0-10.4 6.3-22.4 14-26.9L803.3 44.5c2.9-1.7 5.6-2.1 7.8-1.3 0 0-20.7-12.1-21.3-12.3-2.2-.6-4.8-.2-7.7 1.4L180.8 379.5c-7.8 4.5-14.1 16.5-14.1 26.9z"/><path class="st3" d="M817.3 568.1V55.2c0-10.3-6.3-15.1-14-10.6L201.9 391.8c-7.8 4.5-14 16.5-14 26.9v512.9c0 10.3 6.3 15.1 14 10.6L803.3 595c7.8-4.6 14-16.6 14-26.9z"/><path class="st4" d="M590.1 564.6l-28.7 16.6v19l28.7-16.6v-19zm-28.7 47.1v19l35.9-20.7v-19l-35.9 20.7zm0 49.6l21.5-12.4v-19l-21.5 12.4v19z"/><path class="st5" d="M623.8 545.1L595 561.7v19l28.7-16.6.1-19zm-21.6 43v19l35.9-20.7v-19l-35.9 20.7zM587.8 646l46.2-26.6v-19L587.8 627v19z"/><path class="st4" d="M727.7 485.1L684.6 510v19l43.1-24.9v-19zm-43.1 55.5v19l31-17.9v-19l-31 17.9zm0 49.5l31-17.9v-19l-31 17.9v19z"/><path class="st5" d="M766.2 462.9l-33.5 19.4v19l33.5-19.4v-19zm-45.7 56.9v19l60-34.6v-19l-60 34.6zm0 49.6l55.9-32.3v-19l-55.9 32.3v19z"/><path class="st2" d="M805.9 362V148.9l5.3-3v221.4L519 536v-8.3z"/><path class="st6" d="M552.4 319.2l-7.6 4.4v20.1l7.6-4.4v-20.1zM594.3 379.9l7.6-4.4v-20.1l-7.6 4.4v20.1zM544.8 473.1l7.6-4.3v-20.2l-7.6 4.4v20.1zM594.3 327.4l-7.6 4.4v20.1l7.6-4.4v-20.1zM579.1 421l7.6-4.4v-20.1l-7.6 4.4V421z"/><path class="st5" d="M622.4 311.2l-22.8 13.2v20.1l22.8-13.2v-20.1zm-15.2 41.1v20.1l30.4-17.5v-20.1l-30.4 17.5zM592 413.5l38-21.9v-20.1l-38 21.9v20.1z"/><path class="st4" d="M581.4 334.8L551 352.4v20.1l30.4-17.5v-20.2zM551 384.7v20.1l38-21.9v-20.1l-38 21.9zm0 52.5l22.8-13.2v-20.1L551 417.1v20.1z"/><path class="st2" d="M293.5 391.4l7.9-25.6-61 35.2-7.9 25.6 61-35.2zM426 293.8l-22.5 13v21.1l22.5-13v-21.1zm-29.1 27.3l-6.6 3.8v10.5l6.6-3.8v-10.5zM207.7 440.9l6.6-3.8v-10.5l-6.6 3.8v10.5zm26-36.1l-6.6 3.8-7.9 25.6 6.6-3.8 7.9-25.6zM459 274.7l-6.6 3.8v21.1l6.6-3.8v-21.1zm6.6-3.8V292l19.8-11.4v-21.1l-19.8 11.4zm-81.9 68.4v-21.1l-62.5 36.1-7.9 25.6 70.4-40.6zm-77 44.4l7.9-25.6-6.5 3.8-7.9 25.6 6.5-3.8zM445.8 292.8l-13.2 7.6v10.5l13.2-7.6v-10.5z"/><path d="M247.4 562.7v20.1l22.8-13.2v-20.1l-22.8 13.2zm-10.6-26.2v20.1l45.6-26.3v-20.1l-45.6 26.3zm22.8-25.4V491l-22.8 13.2v20.1l22.8-13.2zm142-134.4v20.1l38-21.9v-20.1l-38 21.9zm-129.9 95.1v-20.1L226.1 478v20.1l45.6-26.3zm3.8 74.7v20.1l15.2-8.8v-20.1l-15.2 8.8zm-38.7 119.4V686l45.6-26.3v-20.1l-45.6 26.3z" fill="#de9166"/><path d="M247.4 647.6l7.6-4.4V623l-7.6 4.4v20.2zm29.6-199v20.1l7.6-4.4v-20.1l-7.6 4.4zm-50.9 276l15.2-8.8v-20.1l-15.2 8.8v20.1z" fill="#d87f5a"/><path class="st4" d="M287.7 527.3l91.1-52.6v-20.1l-91.1 52.6v20.1zm8.3 7.4v20.1l30.4-17.5v-20.1L296 534.7zm-8.3 122l60.8-35.1v-20.1l-60.8 35.1v20.1zm2.2-215.6v20.1l106.3-61.4v-20.1l-106.3 61.4zm-25 67l15.2-8.8v-20.1l-15.2 8.8v20.1z"/><path fill="#cd5e47" d="M487.2 483.3L205.4 646v-33.2l281.8-162.6z"/><path class="st3" d="M271 601.6l32.2-18.6v-20.1L271 581.5zM258 609.1l7.7-4.4v-20.2L258 589v20.1zM369.2 524.8l-60.7 35.1V580l60.7-35.1z"/><path class="st2" d="M489.4 612.6V257.2c3-.5 5.2 2.5 5.2 7.6v353L202.4 786.5v-8.3l287-165.6zM718.2 113.3l67.3-38.9c1.9-1.3 4.4-1.6 6.6-1 .6.2 10.4 5.8 11 6.3 2.7 2.3 4.4 6.9 4.4 13.2 0 11.7-6 24.6-13.3 28.8l-67.3 38.9c-1.8 1.2-4.1 1.6-6.2 1.1-2.2-.6-8.8-4.8-10.2-5.6-3.4-1.9-5.6-6.9-5.6-14 0-11.7 5.9-24.6 13.3-28.8zM489.4 659v-29.8l5.2-3.1v38.2L202.4 833v-8.3z"/><path class="st2" d="M619.1 170.5l67.3-38.9c1.9-1.3 4.4-1.6 6.6-1 .6.2 10.4 5.8 11 6.3 2.7 2.3 4.4 7 4.4 13.2 0 11.7-6 24.6-13.3 28.9l-67.3 38.8c-1.8 1.2-4.1 1.6-6.2 1.1-2.2-.6-8.8-4.8-10.2-5.6-3.4-1.9-5.6-6.9-5.6-14 0-11.7 5.9-24.6 13.3-28.8zM489.4 705.5v-29.9l5.2-3v38.2L202.4 879.5v-8.3z"/><path class="st2" d="M519.9 227.7l67.3-38.9c1.9-1.3 4.4-1.6 6.6-1 .7.2 10.4 5.8 11 6.3 2.7 2.3 4.4 6.9 4.4 13.2 0 11.7-6 24.6-13.3 28.9l-67.3 38.9c-1.8 1.2-4.1 1.6-6.2 1.1-2.2-.6-8.8-4.8-10.2-5.6-3.4-1.9-5.6-6.9-5.6-14 0-11.7 6-24.6 13.3-28.9z"/><path class="st3" d="M528.7 275.1l67.3-38.9c7.3-4.2 13.3-17.2 13.3-28.9s-6-17.7-13.3-13.5l-67.3 38.9c-7.3 4.2-13.3 17.2-13.3 28.9s5.9 17.7 13.3 13.5zM627.8 217.9l67.3-38.9c7.3-4.2 13.3-17.2 13.3-28.9s-6-17.7-13.3-13.5l-67.3 38.9c-7.3 4.2-13.3 17.2-13.3 28.9s6 17.7 13.3 13.5zM726.9 160.6l67.3-38.9c7.3-4.2 13.3-17.2 13.3-28.8 0-11.7-6-17.7-13.3-13.5l-67.3 38.8c-7.3 4.2-13.3 17.2-13.3 28.8 0 11.8 6 17.9 13.3 13.6z"/><path class="st2" d="M489.4 752v-29.9l5.2-3v38.2l-285 164.5c-2.3 1.3-5.2.5-6.6-1.8-.4-.7-.6-1.5-.6-2.4l287-165.6zM805.9 568.5V377.3l5.2-3v195.3c0 2.6-1.4 5-3.6 6.3L519 742.5v-8.3l286.9-165.7z"/></g></svg>