<svg version="1.1" xmlns="http://www.w3.org/2000/svg" xmlns:xlink="http://www.w3.org/1999/xlink" x="0px" y="0px" viewBox="0 0 290 195" style="enable-background:new 0 0 290 195;" xml:space="preserve"> <style type="text/css"> .st0{fill:#3E2C73;} .st1{fill:#C1B2DD;} .st2{fill:none;stroke:#3E2C73;stroke-width:0.75;} .st3{fill:#5A4A79;} .st4{fill:#FF7738;} .st5{fill:#FFFFFF;} .st6{fill:none;stroke:#FF7738;stroke-width:1.5;} .st7{fill:#EDE7F5;} </style> <g id="background"> <path class="st0" d="M0,1h42v193H0V1z"/> <path class="st1" d="M43,0.7L287,0c1.7,0,3,1.3,3,3v29.3L43,33V0.7z"/> <path class="st2" d="M54.4,45c0,0.3,0.3,0.6,0.6,0.6h220c0.3,0,0.6-0.3,0.6-0.6v-4c0-0.3-0.3-0.6-0.6-0.6H55 c-0.3,0-0.6,0.3-0.6,0.6V45z"/> <path class="st1" d="M53,104c0-1.1,0.9-2,2-2h156c1.1,0,2,0.9,2,2v6H53V104z"/> <path class="st3" d="M54,13c0-0.6,0.4-1,1-1h16c0.6,0,1,0.4,1,1s-0.4,1-1,1H55C54.4,14,54,13.6,54,13z"/> <path class="st3" d="M78,13c0-0.6,0.4-1,1-1h16c0.6,0,1,0.4,1,1s-0.4,1-1,1H79C78.4,14,78,13.6,78,13z"/> <path class="st1" d="M17,24.5c0-0.3,0.2-0.5,0.5-0.5h18c0.3,0,0.5,0.2,0.5,0.5S35.8,25,35.5,25h-18C17.2,25,17,24.8,17,24.5z"/> <path class="st1" d="M17,13c0-0.6,0.4-1,1-1h17c0.6,0,1,0.4,1,1s-0.4,1-1,1H18C17.4,14,17,13.6,17,13z"/> <path class="st1" d="M17,30.5c0-0.3,0.2-0.5,0.5-0.5h18c0.3,0,0.5,0.2,0.5,0.5S35.8,31,35.5,31h-18C17.2,31,17,30.8,17,30.5z"/> <path class="st1" d="M17,36.5c0-0.3,0.2-0.5,0.5-0.5h18c0.3,0,0.5,0.2,0.5,0.5S35.8,37,35.5,37h-18C17.2,37,17,36.8,17,36.5z"/> <path class="st1" d="M17,42.5c0-0.3,0.2-0.5,0.5-0.5h18c0.3,0,0.5,0.2,0.5,0.5S35.8,43,35.5,43h-18C17.2,43,17,42.8,17,42.5z"/> <path class="st1" d="M17,48.5c0-0.3,0.2-0.5,0.5-0.5h18c0.3,0,0.5,0.2,0.5,0.5S35.8,49,35.5,49h-18C17.2,49,17,48.8,17,48.5z"/> <path class="st1" d="M17,54.5c0-0.3,0.2-0.5,0.5-0.5h18c0.3,0,0.5,0.2,0.5,0.5S35.8,55,35.5,55h-18C17.2,55,17,54.8,17,54.5z"/> <path class="st1" d="M17,64.5c0-0.3,0.2-0.5,0.5-0.5h18c0.3,0,0.5,0.2,0.5,0.5S35.8,65,35.5,65h-18C17.2,65,17,64.8,17,64.5z"/> <path class="st1" d="M17,70.5c0-0.3,0.2-0.5,0.5-0.5h18c0.3,0,0.5,0.2,0.5,0.5S35.8,71,35.5,71h-18C17.2,71,17,70.8,17,70.5z"/> <path class="st1" d="M17,76.5c0-0.3,0.2-0.5,0.5-0.5h18c0.3,0,0.5,0.2,0.5,0.5S35.8,77,35.5,77h-18C17.2,77,17,76.8,17,76.5z"/> <path class="st1" d="M17,87.5c0-0.3,0.2-0.5,0.5-0.5h18c0.3,0,0.5,0.2,0.5,0.5S35.8,88,35.5,88h-18C17.2,88,17,87.8,17,87.5z"/> <path class="st4" d="M62,116.5c0-0.3-0.2-0.5-0.5-0.5h-1c-0.3,0-0.5,0.2-0.5,0.5s0.2,0.5,0.5,0.5h1C61.8,117,62,116.8,62,116.5z"/> <path class="st4" d="M62,122.5c0-0.3-0.2-0.5-0.5-0.5h-1c-0.3,0-0.5,0.2-0.5,0.5s0.2,0.5,0.5,0.5h1C61.8,123,62,122.8,62,122.5z"/> <path class="st4" d="M62,128.5c0-0.3-0.2-0.5-0.5-0.5h-1c-0.3,0-0.5,0.2-0.5,0.5s0.2,0.5,0.5,0.5h1C61.8,129,62,128.8,62,128.5z"/> <path class="st4" d="M62,134.5c0-0.3-0.2-0.5-0.5-0.5h-1c-0.3,0-0.5,0.2-0.5,0.5s0.2,0.5,0.5,0.5h1C61.8,135,62,134.8,62,134.5z"/> <path class="st4" d="M62,140.5c0-0.3-0.2-0.5-0.5-0.5h-1c-0.3,0-0.5,0.2-0.5,0.5s0.2,0.5,0.5,0.5h1C61.8,141,62,140.8,62,140.5z"/> <path class="st4" d="M62,146.5c0-0.3-0.2-0.5-0.5-0.5h-1c-0.3,0-0.5,0.2-0.5,0.5s0.2,0.5,0.5,0.5h1C61.8,147,62,146.8,62,146.5z"/> <path class="st4" d="M62,152.5c0-0.3-0.2-0.5-0.5-0.5h-1c-0.3,0-0.5,0.2-0.5,0.5s0.2,0.5,0.5,0.5h1C61.8,153,62,152.8,62,152.5z"/> <path class="st4" d="M62,158.5c0-0.3-0.2-0.5-0.5-0.5h-1c-0.3,0-0.5,0.2-0.5,0.5s0.2,0.5,0.5,0.5h1C61.8,159,62,158.8,62,158.5z"/> <path class="st4" d="M62,164.5c0-0.3-0.2-0.5-0.5-0.5h-1c-0.3,0-0.5,0.2-0.5,0.5s0.2,0.5,0.5,0.5h1C61.8,165,62,164.8,62,164.5z"/> <path class="st4" d="M62,170.5c0-0.3-0.2-0.5-0.5-0.5h-1c-0.3,0-0.5,0.2-0.5,0.5s0.2,0.5,0.5,0.5h1C61.8,171,62,170.8,62,170.5z"/> <path class="st0" d="M126,116.5c0-0.3,0.2-0.5,0.5-0.5h9c0.3,0,0.5,0.2,0.5,0.5s-0.2,0.5-0.5,0.5h-9C126.2,117,126,116.8,126,116.5 z"/> <path class="st0" d="M126,122.5c0-0.3,0.2-0.5,0.5-0.5h9c0.3,0,0.5,0.2,0.5,0.5s-0.2,0.5-0.5,0.5h-9C126.2,123,126,122.8,126,122.5 z"/> <path class="st0" d="M126,128.5c0-0.3,0.2-0.5,0.5-0.5h9c0.3,0,0.5,0.2,0.5,0.5s-0.2,0.5-0.5,0.5h-9C126.2,129,126,128.8,126,128.5 z"/> <path class="st0" d="M126,134.5c0-0.3,0.2-0.5,0.5-0.5h9c0.3,0,0.5,0.2,0.5,0.5s-0.2,0.5-0.5,0.5h-9C126.2,135,126,134.8,126,134.5 z"/> <path class="st0" d="M126,140.5c0-0.3,0.2-0.5,0.5-0.5h9c0.3,0,0.5,0.2,0.5,0.5s-0.2,0.5-0.5,0.5h-9C126.2,141,126,140.8,126,140.5 z"/> <path class="st0" d="M126,146.5c0-0.3,0.2-0.5,0.5-0.5h9c0.3,0,0.5,0.2,0.5,0.5s-0.2,0.5-0.5,0.5h-9C126.2,147,126,146.8,126,146.5 z"/> <path class="st0" d="M126,152.5c0-0.3,0.2-0.5,0.5-0.5h9c0.3,0,0.5,0.2,0.5,0.5s-0.2,0.5-0.5,0.5h-9C126.2,153,126,152.8,126,152.5 z"/> <path class="st0" d="M126,158.5c0-0.3,0.2-0.5,0.5-0.5h9c0.3,0,0.5,0.2,0.5,0.5s-0.2,0.5-0.5,0.5h-9C126.2,159,126,158.8,126,158.5 z"/> <path class="st0" d="M126,164.5c0-0.3,0.2-0.5,0.5-0.5h9c0.3,0,0.5,0.2,0.5,0.5s-0.2,0.5-0.5,0.5h-9C126.2,165,126,164.8,126,164.5 z"/> <path class="st0" d="M126,170.5c0-0.3,0.2-0.5,0.5-0.5h9c0.3,0,0.5,0.2,0.5,0.5s-0.2,0.5-0.5,0.5h-9C126.2,171,126,170.8,126,170.5 z"/> <path class="st0" d="M144,116.5c0-0.3,0.2-0.5,0.5-0.5h9c0.3,0,0.5,0.2,0.5,0.5s-0.2,0.5-0.5,0.5h-9C144.2,117,144,116.8,144,116.5 z"/> <path class="st0" d="M144,122.5c0-0.3,0.2-0.5,0.5-0.5h9c0.3,0,0.5,0.2,0.5,0.5s-0.2,0.5-0.5,0.5h-9C144.2,123,144,122.8,144,122.5 z"/> <path class="st0" d="M144,128.5c0-0.3,0.2-0.5,0.5-0.5h9c0.3,0,0.5,0.2,0.5,0.5s-0.2,0.5-0.5,0.5h-9C144.2,129,144,128.8,144,128.5 z"/> <path class="st0" d="M144,134.5c0-0.3,0.2-0.5,0.5-0.5h9c0.3,0,0.5,0.2,0.5,0.5s-0.2,0.5-0.5,0.5h-9C144.2,135,144,134.8,144,134.5 z"/> <path class="st0" d="M144,140.5c0-0.3,0.2-0.5,0.5-0.5h9c0.3,0,0.5,0.2,0.5,0.5s-0.2,0.5-0.5,0.5h-9C144.2,141,144,140.8,144,140.5 z"/> <path class="st0" d="M144,146.5c0-0.3,0.2-0.5,0.5-0.5h9c0.3,0,0.5,0.2,0.5,0.5s-0.2,0.5-0.5,0.5h-9C144.2,147,144,146.8,144,146.5 z"/> <path class="st0" d="M144,152.5c0-0.3,0.2-0.5,0.5-0.5h9c0.3,0,0.5,0.2,0.5,0.5s-0.2,0.5-0.5,0.5h-9C144.2,153,144,152.8,144,152.5 z"/> <path class="st0" d="M144,158.5c0-0.3,0.2-0.5,0.5-0.5h9c0.3,0,0.5,0.2,0.5,0.5s-0.2,0.5-0.5,0.5h-9C144.2,159,144,158.8,144,158.5 z"/> <path class="st0" d="M144,164.5c0-0.3,0.2-0.5,0.5-0.5h9c0.3,0,0.5,0.2,0.5,0.5s-0.2,0.5-0.5,0.5h-9C144.2,165,144,164.8,144,164.5 z"/> <path class="st0" d="M144,170.5c0-0.3,0.2-0.5,0.5-0.5h9c0.3,0,0.5,0.2,0.5,0.5s-0.2,0.5-0.5,0.5h-9C144.2,171,144,170.8,144,170.5 z"/> <path class="st0" d="M162,116.5c0-0.3,0.2-0.5,0.5-0.5h9c0.3,0,0.5,0.2,0.5,0.5s-0.2,0.5-0.5,0.5h-9C162.2,117,162,116.8,162,116.5 z"/> <path class="st0" d="M162,122.5c0-0.3,0.2-0.5,0.5-0.5h9c0.3,0,0.5,0.2,0.5,0.5s-0.2,0.5-0.5,0.5h-9C162.2,123,162,122.8,162,122.5 z"/> <path class="st0" d="M162,128.5c0-0.3,0.2-0.5,0.5-0.5h9c0.3,0,0.5,0.2,0.5,0.5s-0.2,0.5-0.5,0.5h-9C162.2,129,162,128.8,162,128.5 z"/> <path class="st0" d="M162,134.5c0-0.3,0.2-0.5,0.5-0.5h9c0.3,0,0.5,0.2,0.5,0.5s-0.2,0.5-0.5,0.5h-9C162.2,135,162,134.8,162,134.5 z"/> <path class="st0" d="M162,140.5c0-0.3,0.2-0.5,0.5-0.5h9c0.3,0,0.5,0.2,0.5,0.5s-0.2,0.5-0.5,0.5h-9C162.2,141,162,140.8,162,140.5 z"/> <path class="st0" d="M162,146.5c0-0.3,0.2-0.5,0.5-0.5h9c0.3,0,0.5,0.2,0.5,0.5s-0.2,0.5-0.5,0.5h-9C162.2,147,162,146.8,162,146.5 z"/> <path class="st0" d="M162,152.5c0-0.3,0.2-0.5,0.5-0.5h9c0.3,0,0.5,0.2,0.5,0.5s-0.2,0.5-0.5,0.5h-9C162.2,153,162,152.8,162,152.5 z"/> <path class="st0" d="M162,158.5c0-0.3,0.2-0.5,0.5-0.5h9c0.3,0,0.5,0.2,0.5,0.5s-0.2,0.5-0.5,0.5h-9C162.2,159,162,158.8,162,158.5 z"/> <path class="st0" d="M162,164.5c0-0.3,0.2-0.5,0.5-0.5h9c0.3,0,0.5,0.2,0.5,0.5s-0.2,0.5-0.5,0.5h-9C162.2,165,162,164.8,162,164.5 z"/> <path class="st0" d="M162,170.5c0-0.3,0.2-0.5,0.5-0.5h9c0.3,0,0.5,0.2,0.5,0.5s-0.2,0.5-0.5,0.5h-9C162.2,171,162,170.8,162,170.5 z"/> <path class="st0" d="M180,116.5c0-0.3,0.2-0.5,0.5-0.5h9c0.3,0,0.5,0.2,0.5,0.5s-0.2,0.5-0.5,0.5h-9C180.2,117,180,116.8,180,116.5 z"/> <path class="st0" d="M180,122.5c0-0.3,0.2-0.5,0.5-0.5h9c0.3,0,0.5,0.2,0.5,0.5s-0.2,0.5-0.5,0.5h-9C180.2,123,180,122.8,180,122.5 z"/> <path class="st0" d="M180,128.5c0-0.3,0.2-0.5,0.5-0.5h9c0.3,0,0.5,0.2,0.5,0.5s-0.2,0.5-0.5,0.5h-9C180.2,129,180,128.8,180,128.5 z"/> <path class="st0" d="M180,134.5c0-0.3,0.2-0.5,0.5-0.5h9c0.3,0,0.5,0.2,0.5,0.5s-0.2,0.5-0.5,0.5h-9C180.2,135,180,134.8,180,134.5 z"/> <path class="st0" d="M180,140.5c0-0.3,0.2-0.5,0.5-0.5h9c0.3,0,0.5,0.2,0.5,0.5s-0.2,0.5-0.5,0.5h-9C180.2,141,180,140.8,180,140.5 z"/> <path class="st0" d="M180,146.5c0-0.3,0.2-0.5,0.5-0.5h9c0.3,0,0.5,0.2,0.5,0.5s-0.2,0.5-0.5,0.5h-9C180.2,147,180,146.8,180,146.5 z"/> <path class="st0" d="M180,152.5c0-0.3,0.2-0.5,0.5-0.5h9c0.3,0,0.5,0.2,0.5,0.5s-0.2,0.5-0.5,0.5h-9C180.2,153,180,152.8,180,152.5 z"/> <path class="st0" d="M180,158.5c0-0.3,0.2-0.5,0.5-0.5h9c0.3,0,0.5,0.2,0.5,0.5s-0.2,0.5-0.5,0.5h-9C180.2,159,180,158.8,180,158.5 z"/> <path class="st0" d="M180,164.5c0-0.3,0.2-0.5,0.5-0.5h9c0.3,0,0.5,0.2,0.5,0.5s-0.2,0.5-0.5,0.5h-9C180.2,165,180,164.8,180,164.5 z"/> <path class="st0" d="M180,170.5c0-0.3,0.2-0.5,0.5-0.5h9c0.3,0,0.5,0.2,0.5,0.5s-0.2,0.5-0.5,0.5h-9C180.2,171,180,170.8,180,170.5 z"/> <path class="st0" d="M198,116.5c0-0.3,0.2-0.5,0.5-0.5h8c0.3,0,0.5,0.2,0.5,0.5s-0.2,0.5-0.5,0.5h-8C198.2,117,198,116.8,198,116.5 z"/> <path class="st0" d="M198,122.5c0-0.3,0.2-0.5,0.5-0.5h8c0.3,0,0.5,0.2,0.5,0.5s-0.2,0.5-0.5,0.5h-8C198.2,123,198,122.8,198,122.5 z"/> <path class="st0" d="M198,128.5c0-0.3,0.2-0.5,0.5-0.5h8c0.3,0,0.5,0.2,0.5,0.5s-0.2,0.5-0.5,0.5h-8C198.2,129,198,128.8,198,128.5 z"/> <path class="st0" d="M198,134.5c0-0.3,0.2-0.5,0.5-0.5h8c0.3,0,0.5,0.2,0.5,0.5s-0.2,0.5-0.5,0.5h-8C198.2,135,198,134.8,198,134.5 z"/> <path class="st0" d="M198,140.5c0-0.3,0.2-0.5,0.5-0.5h8c0.3,0,0.5,0.2,0.5,0.5s-0.2,0.5-0.5,0.5h-8C198.2,141,198,140.8,198,140.5 z"/> <path class="st0" d="M198,146.5c0-0.3,0.2-0.5,0.5-0.5h8c0.3,0,0.5,0.2,0.5,0.5s-0.2,0.5-0.5,0.5h-8C198.2,147,198,146.8,198,146.5 z"/> <path class="st0" d="M198,152.5c0-0.3,0.2-0.5,0.5-0.5h8c0.3,0,0.5,0.2,0.5,0.5s-0.2,0.5-0.5,0.5h-8C198.2,153,198,152.8,198,152.5 z"/> <path class="st0" d="M198,158.5c0-0.3,0.2-0.5,0.5-0.5h8c0.3,0,0.5,0.2,0.5,0.5s-0.2,0.5-0.5,0.5h-8C198.2,159,198,158.8,198,158.5 z"/> <path class="st0" d="M198,164.5c0-0.3,0.2-0.5,0.5-0.5h8c0.3,0,0.5,0.2,0.5,0.5s-0.2,0.5-0.5,0.5h-8C198.2,165,198,164.8,198,164.5 z"/> <path class="st0" d="M198,170.5c0-0.3,0.2-0.5,0.5-0.5h8c0.3,0,0.5,0.2,0.5,0.5s-0.2,0.5-0.5,0.5h-8C198.2,171,198,170.8,198,170.5 z"/> <path class="st1" d="M13,24.5c0-0.3-0.2-0.5-0.5-0.5h-2c-0.3,0-0.5,0.2-0.5,0.5s0.2,0.5,0.5,0.5h2C12.8,25,13,24.8,13,24.5z"/> <path class="st1" d="M13,30.5c0-0.3-0.2-0.5-0.5-0.5h-2c-0.3,0-0.5,0.2-0.5,0.5s0.2,0.5,0.5,0.5h2C12.8,31,13,30.8,13,30.5z"/> <path class="st1" d="M13,36.5c0-0.3-0.2-0.5-0.5-0.5h-2c-0.3,0-0.5,0.2-0.5,0.5s0.2,0.5,0.5,0.5h2C12.8,37,13,36.8,13,36.5z"/> <path class="st1" d="M13,42.5c0-0.3-0.2-0.5-0.5-0.5h-2c-0.3,0-0.5,0.2-0.5,0.5s0.2,0.5,0.5,0.5h2C12.8,43,13,42.8,13,42.5z"/> <path class="st1" d="M13,48.5c0-0.3-0.2-0.5-0.5-0.5h-2c-0.3,0-0.5,0.2-0.5,0.5s0.2,0.5,0.5,0.5h2C12.8,49,13,48.8,13,48.5z"/> <path class="st1" d="M13,54.5c0-0.3-0.2-0.5-0.5-0.5h-2c-0.3,0-0.5,0.2-0.5,0.5s0.2,0.5,0.5,0.5h2C12.8,55,13,54.8,13,54.5z"/> <path class="st1" d="M13,64.5c0-0.3-0.2-0.5-0.5-0.5h-2c-0.3,0-0.5,0.2-0.5,0.5s0.2,0.5,0.5,0.5h2C12.8,65,13,64.8,13,64.5z"/> <path class="st1" d="M13,70.5c0-0.3-0.2-0.5-0.5-0.5h-2c-0.3,0-0.5,0.2-0.5,0.5s0.2,0.5,0.5,0.5h2C12.8,71,13,70.8,13,70.5z"/> <path class="st1" d="M13,76.5c0-0.3-0.2-0.5-0.5-0.5h-2c-0.3,0-0.5,0.2-0.5,0.5s0.2,0.5,0.5,0.5h2C12.8,77,13,76.8,13,76.5z"/> <path class="st1" d="M13,87.5c0-0.3-0.2-0.5-0.5-0.5h-2c-0.3,0-0.5,0.2-0.5,0.5s0.2,0.5,0.5,0.5h2C12.8,88,13,87.8,13,87.5z"/> <path class="st5" d="M9,10h4c0.6,0,1,0.4,1,1v4c0,0.6-0.4,1-1,1H9c-0.6,0-1-0.4-1-1v-4C8,10.4,8.4,10,9,10z"/> <path class="st3" d="M55.5,24h62c0.8,0,1.5,0.7,1.5,1.5l0,0c0,0.8-0.7,1.5-1.5,1.5h-62c-0.8,0-1.5-0.7-1.5-1.5l0,0 C54,24.7,54.7,24,55.5,24z"/> <path class="st5" d="M266,12h8c0.6,0,1,0.4,1,1v6c0,0.6-0.4,1-1,1h-8c-0.6,0-1-0.4-1-1v-6C265,12.4,265.4,12,266,12z"/> <path class="st0" d="M271.1,17.9C271.1,17.9,271.1,17.9,271.1,17.9l-1.1-0.6l-1,0.5c0,0-0.1,0-0.1,0s-0.1,0-0.1,0 c0,0-0.1,0-0.1-0.1c0,0,0-0.1,0-0.1l0.2-1.1l-0.8-0.8c0,0,0-0.1-0.1-0.1c0,0,0-0.1,0-0.1c0,0,0-0.1,0.1-0.1c0,0,0.1,0,0.1,0 l1.2-0.2l0.5-1.1c0,0,0-0.1,0.1-0.1c0,0,0.1,0,0.1,0s0.1,0,0.1,0c0,0,0.1,0,0.1,0.1l0.5,1.1l1.2,0.2c0,0,0.1,0,0.1,0 c0,0,0,0.1,0.1,0.1c0,0,0,0.1,0,0.1c0,0,0,0.1-0.1,0.1l-0.8,0.8l0.2,1.1c0,0,0,0.1,0,0.1c0,0,0,0.1-0.1,0.1 C271.2,17.9,271.2,17.9,271.1,17.9L271.1,17.9z"/> <path class="st2" d="M3.7,189.4L3,2l282,2.4l4,189.6L3.7,189.4z"/> <path class="st6" d="M287,191.8V2H1.7L1,192L287,191.8z"/> <path class="st2" d="M54.4,105c0-0.9,0.7-1.6,1.6-1.6h156c0.9,0,1.6,0.7,1.6,1.6v71c0,0.9-0.7,1.6-1.6,1.6H56 c-0.9,0-1.6-0.7-1.6-1.6V105z"/> </g> <g id="tagfills"> <path class="st0" d="M223.1,104.8c0-0.8,0.7-1.5,1.5-1.5h14.9v2.9h-14.9C223.7,106.3,223.1,105.6,223.1,104.8z"/> <rect x="239.4" y="103.3" class="st1" width="12.6" height="2.9"/> <rect x="252.1" y="103.3" class="st7" width="5.9" height="2.9"/> <path class="st0" d="M223.1,115.1c0-0.8,0.7-1.5,1.5-1.5h24.6v2.9h-24.6C223.7,116.5,223.1,115.9,223.1,115.1z"/> <rect x="249.1" y="113.6" class="st1" width="13.4" height="2.9"/> <rect x="262.5" y="113.6" class="st7" width="5.2" height="2.9"/> <path class="st0" d="M223.1,125.3c0-0.8,0.7-1.5,1.5-1.5h24.6v2.9h-24.6C223.7,126.8,223.1,126.1,223.1,125.3z"/> <rect x="249.1" y="123.9" class="st1" width="6.7" height="2.9"/> <rect x="255.8" y="123.9" class="st7" width="6.7" height="2.9"/> <path class="st0" d="M223.1,135.6c0-0.8,0.7-1.5,1.5-1.5h24.6v2.9h-24.6C223.7,137.1,223.1,136.4,223.1,135.6z"/> <rect x="249.1" y="134.1" class="st1" width="13.4" height="2.9"/> <rect x="262.5" y="134.1" class="st7" width="5.2" height="2.9"/> <path class="st0" d="M223.1,145.9c0-0.8,0.7-1.5,1.5-1.5h7.5v2.9h-7.5C223.7,147.3,223.1,146.7,223.1,145.9z"/> <rect x="232" y="144.4" class="st1" width="6.7" height="2.9"/> <rect x="238.7" y="144.4" class="st7" width="23.8" height="2.9"/> </g> <g id="tagoutlines"> <path class="st2" d="M224.5,103.7h49.9c0.6,0,1.1,0.5,1.1,1.1v0c0,0.6-0.5,1.1-1.1,1.1h-49.9c-0.6,0-1.1-0.5-1.1-1.1v0 C223.5,104.2,223.9,103.7,224.5,103.7z"/> <path class="st2" d="M224.5,114h49.9c0.6,0,1.1,0.5,1.1,1.1v0c0,0.6-0.5,1.1-1.1,1.1h-49.9c-0.6,0-1.1-0.5-1.1-1.1v0 C223.5,114.5,223.9,114,224.5,114z"/> <path class="st2" d="M224.5,124.2h49.9c0.6,0,1.1,0.5,1.1,1.1v0c0,0.6-0.5,1.1-1.1,1.1h-49.9c-0.6,0-1.1-0.5-1.1-1.1v0 C223.5,124.7,223.9,124.2,224.5,124.2z"/> <path class="st2" d="M224.5,134.5h49.9c0.6,0,1.1,0.5,1.1,1.1v0c0,0.6-0.5,1.1-1.1,1.1h-49.9c-0.6,0-1.1-0.5-1.1-1.1v0 C223.5,135,223.9,134.5,224.5,134.5z"/> <path class="st2" d="M223.5,145.9c0-0.6,0.5-1.1,1.1-1.1h49.9c0.6,0,1.1,0.5,1.1,1.1s-0.5,1.1-1.1,1.1h-49.9 C223.9,147,223.5,146.5,223.5,145.9z"/> </g> <g id="results"> <path fill="#3E2C73"> <animate repeatCount="indefinite" attributeName="d" dur="6s" values="M66,170.5c0-0.3,0.2-0.5,0.5-0.5h45c0.3,0,0.5,0.2,0.5,0.5s-0.2,0.5-0.5,0.5h-45C66.2,171,66,170.8,66,170.5z; M66,170.5c0-0.3,0.2-0.5,0.5-0.5h35.1c0.3,0,0.5,0.2,0.5,0.5s-0.2,0.5-0.5,0.5H66.5	C66.2,171,66,170.8,66,170.5z; M66,170.5c0-0.3,0.2-0.5,0.5-0.5h45c0.3,0,0.5,0.2,0.5,0.5s-0.2,0.5-0.5,0.5h-45C66.2,171,66,170.8,66,170.5z;"/> </path> <path fill="#3E2C73"> <animate repeatCount="indefinite" attributeName="d" dur="6s" values="M66,164.5c0-0.3,0.2-0.5,0.5-0.5h34c0.3,0,0.5,0.2,0.5,0.5s-0.2,0.5-0.5,0.5h-34C66.2,165,66,164.8,66,164.5z; M66,164.5c0-0.3,0.2-0.5,0.5-0.5h51.4c0.3,0,0.5,0.2,0.5,0.5s-0.2,0.5-0.5,0.5H66.5	C66.2,165,66,164.8,66,164.5z; M66,164.5c0-0.3,0.2-0.5,0.5-0.5h34c0.3,0,0.5,0.2,0.5,0.5s-0.2,0.5-0.5,0.5h-34C66.2,165,66,164.8,66,164.5z;"/> </path> <path fill="#3E2C73"> <animate repeatCount="indefinite" attributeName="d" dur="6s" values="M66,158.5c0-0.3,0.2-0.5,0.5-0.5h48c0.3,0,0.5,0.2,0.5,0.5s-0.2,0.5-0.5,0.5h-48C66.2,159,66,158.8,66,158.5z; M66,158.5c0-0.3,0.2-0.5,0.5-0.5h29.8c0.3,0,0.5,0.2,0.5,0.5s-0.2,0.5-0.5,0.5H66.5	C66.2,159,66,158.8,66,158.5z; M66,158.5c0-0.3,0.2-0.5,0.5-0.5h48c0.3,0,0.5,0.2,0.5,0.5s-0.2,0.5-0.5,0.5h-48C66.2,159,66,158.8,66,158.5z;"/> </path> <path fill="#3E2C73"> <animate repeatCount="indefinite" attributeName="d" dur="6s" values="M66,152.5c0-0.3,0.2-0.5,0.5-0.5h29c0.3,0,0.5,0.2,0.5,0.5s-0.2,0.5-0.5,0.5h-29C66.2,153,66,152.8,66,152.5z; M66,152.5c0-0.3,0.2-0.5,0.5-0.5H112c0.3,0,0.5,0.2,0.5,0.5s-0.2,0.5-0.5,0.5H66.5C66.2,153,66,152.8,66,152.5	z; M66,152.5c0-0.3,0.2-0.5,0.5-0.5h29c0.3,0,0.5,0.2,0.5,0.5s-0.2,0.5-0.5,0.5h-29C66.2,153,66,152.8,66,152.5z;"/> </path> <path fill="#3E2C73"> <animate repeatCount="indefinite" attributeName="d" dur="6s" values="M66,146.5c0-0.3,0.2-0.5,0.5-0.5h42c0.3,0,0.5,0.2,0.5,0.5s-0.2,0.5-0.5,0.5h-42C66.2,147,66,146.8,66,146.5z; M66,146.5c0-0.3,0.2-0.5,0.5-0.5h50.2c0.3,0,0.5,0.2,0.5,0.5s-0.2,0.5-0.5,0.5H66.5	C66.2,147,66,146.8,66,146.5z; M66,146.5c0-0.3,0.2-0.5,0.5-0.5h42c0.3,0,0.5,0.2,0.5,0.5s-0.2,0.5-0.5,0.5h-42C66.2,147,66,146.8,66,146.5z;"/> </path> <path fill="#3E2C73"> <animate repeatCount="indefinite" attributeName="d" dur="6s" values="M66,140.5c0-0.3,0.2-0.5,0.5-0.5h48c0.3,0,0.5,0.2,0.5,0.5s-0.2,0.5-0.5,0.5h-48C66.2,141,66,140.8,66,140.5z; M66,140.5c0-0.3,0.2-0.5,0.5-0.5h29.2c0.3,0,0.5,0.2,0.5,0.5S96,141,95.8,141H66.5C66.2,141,66,140.8,66,140.5	z; M66,140.5c0-0.3,0.2-0.5,0.5-0.5h48c0.3,0,0.5,0.2,0.5,0.5s-0.2,0.5-0.5,0.5h-48C66.2,141,66,140.8,66,140.5z;"/> </path> <path fill="#3E2C73"> <animate repeatCount="indefinite" attributeName="d" dur="6s" values="M66,134.5c0-0.3,0.2-0.5,0.5-0.5h36c0.3,0,0.5,0.2,0.5,0.5s-0.2,0.5-0.5,0.5h-36C66.2,135,66,134.8,66,134.5z; M66,134.5c0-0.3,0.2-0.5,0.5-0.5h50.2c0.3,0,0.5,0.2,0.5,0.5s-0.2,0.5-0.5,0.5H66.5	C66.2,135,66,134.8,66,134.5z; M66,134.5c0-0.3,0.2-0.5,0.5-0.5h36c0.3,0,0.5,0.2,0.5,0.5s-0.2,0.5-0.5,0.5h-36C66.2,135,66,134.8,66,134.5z;"/> </path> <path fill="#3E2C73"> <animate repeatCount="indefinite" attributeName="d" dur="6s" values="M66,128.5c0-0.3,0.2-0.5,0.5-0.5h45c0.3,0,0.5,0.2,0.5,0.5s-0.2,0.5-0.5,0.5h-45C66.2,129,66,128.8,66,128.5z; M66,128.5c0-0.3,0.2-0.5,0.5-0.5h38.4c0.3,0,0.5,0.2,0.5,0.5s-0.2,0.5-0.5,0.5H66.5	C66.2,129,66,128.8,66,128.5z; M66,128.5c0-0.3,0.2-0.5,0.5-0.5h45c0.3,0,0.5,0.2,0.5,0.5s-0.2,0.5-0.5,0.5h-45C66.2,129,66,128.8,66,128.5z;"/> </path> <path fill="#3E2C73"> <animate repeatCount="indefinite" attributeName="d" dur="6s" values="M66,122.5c0-0.3,0.2-0.5,0.5-0.5h50c0.3,0,0.5,0.2,0.5,0.5s-0.2,0.5-0.5,0.5h-50C66.2,123,66,122.8,66,122.5z; M66,122.5c0-0.3,0.2-0.5,0.5-0.5h31.2c0.3,0,0.5,0.2,0.5,0.5S98,123,97.7,123H66.5C66.2,123,66,122.8,66,122.5	z; M66,122.5c0-0.3,0.2-0.5,0.5-0.5h50c0.3,0,0.5,0.2,0.5,0.5s-0.2,0.5-0.5,0.5h-50C66.2,123,66,122.8,66,122.5z;"/> </path> <path fill="#3E2C73"> <animate repeatCount="indefinite" attributeName="d" dur="6s" values="M66,116.5c0-0.3,0.2-0.5,0.5-0.5h40c0.3,0,0.5,0.2,0.5,0.5s-0.2,0.5-0.5,0.5h-40C66.2,117,66,116.8,66,116.5z; M66,116.5c0-0.3,0.2-0.5,0.5-0.5h45.2c0.3,0,0.5,0.2,0.5,0.5s-0.2,0.5-0.5,0.5H66.5	C66.2,117,66,116.8,66,116.5z; M66,116.5c0-0.3,0.2-0.5,0.5-0.5h40c0.3,0,0.5,0.2,0.5,0.5s-0.2,0.5-0.5,0.5h-40C66.2,117,66,116.8,66,116.5z;"/> </path> </g> <path fill="#E1567C"> <animate repeatCount="indefinite" attributeName="d" dur="6s" values="M57.8,87.3l-3,0.7c-0.5,0.1-0.8,0.5-0.8,1v6h222V81.1c0-0.7-0.8-1.2-1.4-0.9l-3.4,1.6c-0.1,0-0.1,0-0.2,0.1 l-4,1c-0.2,0.1-0.4,0-0.6,0l-4-1.7c-0.1,0-0.2-0.1-0.4-0.1l-4.2-0.2l-3.9,0.1c-0.3,0-0.6-0.1-0.8-0.4l-3.8-5.2 c-0.2-0.3-0.5-0.4-0.8-0.4l-3.9,0.1l-4.4,0l-3.8,0.2c-0.4,0-0.7-0.2-0.9-0.5l-4-7.2c-0.1-0.2-0.2-0.3-0.4-0.4l-3.8-1.9 c-0.3-0.1-0.4-0.4-0.5-0.6l-3.2-12.3c-0.3-1-1.8-1-2,0.1L218,73c-0.1,0.4-0.3,0.7-0.7,0.8l-3.7,1.3c-0.1,0-0.3,0.1-0.4,0.1 l-3.7-0.3c-0.3,0-0.6,0.1-0.8,0.3l-3.6,4.3c-0.3,0.3-0.7,0.4-1.1,0.3l-3.5-1.3c-0.2-0.1-0.3-0.1-0.5,0l-4,0.7 c-0.1,0-0.2,0.1-0.3,0.1l-4.3,2.4l-4.2,2c-0.1,0.1-0.2,0.1-0.4,0.1l-4.1,0.2c-0.1,0-0.1,0-0.2,0l-3.7-0.5c-0.4-0.1-0.7-0.3-0.8-0.7 l-4.3-16l-3.1-7.3c-0.4-0.9-1.7-0.8-1.9,0.2L165,81.2c-0.1,0.7-0.9,1.1-1.5,0.7l-2.9-1.7c-0.2-0.1-0.4-0.2-0.7-0.1l-4.1,0.6 l-4.4,0.3l-4.2,0.1c-0.2,0-0.3,0-0.5-0.1l-3.7-1.8c-0.3-0.2-0.7-0.1-1,0.1l-3.8,2.5c-0.1,0.1-0.2,0.1-0.3,0.1l-4,1 c-0.2,0-0.4,0-0.5,0l-4.1-1.2c-0.1,0-0.2,0-0.2,0l-4.2-0.2c-0.1,0-0.1,0-0.2,0l-3.4,0.6c-0.5,0.1-1-0.2-1.1-0.7l-3-11.2 c-0.3-1-1.6-1-1.9,0l-3.5,12c-0.1,0.4-0.5,0.7-0.9,0.7l-3.6,0.1c-0.1,0-0.2,0-0.2,0l-4.2-0.9c-0.1,0-0.2,0-0.3,0l-4.3,0.2L94,81.6 c-0.1,0-0.1,0-0.2,0l-4-1.2c-0.2-0.1-0.4-0.1-0.6,0l-4,1.5c0,0-0.1,0-0.1,0l-4.4,0.9l-4.3,0.8c-0.1,0-0.1,0-0.2,0l-4.1-0.2 c-0.1,0-0.3,0-0.4-0.1l-4.2-2.1c-0.1,0-0.1,0-0.2-0.1l-6-1.8c-0.6-0.2-1.1,0.2-1.3,0.8l-1.4,6.4C58.5,86.9,58.2,87.2,57.8,87.3z; M57.8,82.4l-3,0.1c-0.5,0-0.8,0.1-0.8,0.2V95h222V81.4c0-0.1-0.8-0.2-1.4-0.1l-3.4,0.3c-0.1,0-0.1,0-0.2,0 l-4,0.2c-0.2,0-0.4,0-0.6,0l-4-0.3c-0.1,0-0.2,0-0.4,0l-4.2,0l-3.9,0c-0.3,0-0.6,0-0.8-0.1l-3.8-0.8c-0.2,0-0.5-0.1-0.8-0.1l-3.9,0 l-4.4,0l-3.8,0c-0.4,0-0.7,0-0.9-0.1l-4-1.2c-0.1,0-0.2-0.1-0.4-0.1l-3.8-0.3c-0.3,0-0.4-0.1-0.5-0.1l-3.2-2c-0.3-0.2-1.8-0.2-2,0 L218,80c-0.1,0.1-0.3,0.1-0.7,0.1l-3.7,0.2c-0.1,0-0.3,0-0.4,0l-3.7,0c-0.3,0-0.6,0-0.8,0.1l-3.6,0.7c-0.3,0.1-0.7,0.1-1.1,0 l-3.5-0.2c-0.2,0-0.3,0-0.5,0l-4,0.1c-0.1,0-0.2,0-0.3,0l-4.3,0.4l-4.2,0.3c-0.1,0-0.2,0-0.4,0l-4.1,0c-0.1,0-0.1,0-0.2,0l-3.7-0.1 c-0.4,0-0.7-0.1-0.8-0.1l-4.3-2.6l-3.1-1.2c-0.4-0.1-1.7-0.1-1.9,0l-3.6,3.5c-0.1,0.1-0.9,0.2-1.5,0.1l-2.9-0.3c-0.2,0-0.4,0-0.7,0 l-4.1,0.1l-4.4,0.1l-4.2,0c-0.2,0-0.3,0-0.5,0l-3.7-0.3c-0.3,0-0.7,0-1,0l-3.8,0.4c-0.1,0-0.2,0-0.3,0l-4,0.2c-0.2,0-0.4,0-0.5,0 l-4.1-0.2c-0.1,0-0.2,0-0.2,0l-4.2,0c-0.1,0-0.1,0-0.2,0l-3.4,0.1c-0.5,0-1,0-1.1-0.1l-3-1.8c-0.3-0.2-1.6-0.2-1.9,0l-3.5,1.9 c-0.1,0.1-0.5,0.1-0.9,0.1l-3.6,0c-0.1,0-0.2,0-0.2,0l-4.2-0.2c-0.1,0-0.2,0-0.3,0l-4.3,0L94,81.4c-0.1,0-0.1,0-0.2,0l-4-0.2 c-0.2,0-0.4,0-0.6,0l-4,0.2c0,0-0.1,0-0.1,0l-4.4,0.2l-4.3,0.1c-0.1,0-0.1,0-0.2,0l-4.1,0c-0.1,0-0.3,0-0.4,0l-4.2-0.3 c-0.1,0-0.1,0-0.2,0l-6-0.3c-0.6,0-1.1,0-1.3,0.1l-1.4,1C58.5,82.3,58.2,82.3,57.8,82.4z; M57.8,87.3l-3,0.7c-0.5,0.1-0.8,0.5-0.8,1v6h222V81.1c0-0.7-0.8-1.2-1.4-0.9l-3.4,1.6c-0.1,0-0.1,0-0.2,0.1 l-4,1c-0.2,0.1-0.4,0-0.6,0l-4-1.7c-0.1,0-0.2-0.1-0.4-0.1l-4.2-0.2l-3.9,0.1c-0.3,0-0.6-0.1-0.8-0.4l-3.8-5.2 c-0.2-0.3-0.5-0.4-0.8-0.4l-3.9,0.1l-4.4,0l-3.8,0.2c-0.4,0-0.7-0.2-0.9-0.5l-4-7.2c-0.1-0.2-0.2-0.3-0.4-0.4l-3.8-1.9 c-0.3-0.1-0.4-0.4-0.5-0.6l-3.2-12.3c-0.3-1-1.8-1-2,0.1L218,73c-0.1,0.4-0.3,0.7-0.7,0.8l-3.7,1.3c-0.1,0-0.3,0.1-0.4,0.1 l-3.7-0.3c-0.3,0-0.6,0.1-0.8,0.3l-3.6,4.3c-0.3,0.3-0.7,0.4-1.1,0.3l-3.5-1.3c-0.2-0.1-0.3-0.1-0.5,0l-4,0.7 c-0.1,0-0.2,0.1-0.3,0.1l-4.3,2.4l-4.2,2c-0.1,0.1-0.2,0.1-0.4,0.1l-4.1,0.2c-0.1,0-0.1,0-0.2,0l-3.7-0.5c-0.4-0.1-0.7-0.3-0.8-0.7 l-4.3-16l-3.1-7.3c-0.4-0.9-1.7-0.8-1.9,0.2L165,81.2c-0.1,0.7-0.9,1.1-1.5,0.7l-2.9-1.7c-0.2-0.1-0.4-0.2-0.7-0.1l-4.1,0.6 l-4.4,0.3l-4.2,0.1c-0.2,0-0.3,0-0.5-0.1l-3.7-1.8c-0.3-0.2-0.7-0.1-1,0.1l-3.8,2.5c-0.1,0.1-0.2,0.1-0.3,0.1l-4,1 c-0.2,0-0.4,0-0.5,0l-4.1-1.2c-0.1,0-0.2,0-0.2,0l-4.2-0.2c-0.1,0-0.1,0-0.2,0l-3.4,0.6c-0.5,0.1-1-0.2-1.1-0.7l-3-11.2 c-0.3-1-1.6-1-1.9,0l-3.5,12c-0.1,0.4-0.5,0.7-0.9,0.7l-3.6,0.1c-0.1,0-0.2,0-0.2,0l-4.2-0.9c-0.1,0-0.2,0-0.3,0l-4.3,0.2L94,81.6 c-0.1,0-0.1,0-0.2,0l-4-1.2c-0.2-0.1-0.4-0.1-0.6,0l-4,1.5c0,0-0.1,0-0.1,0l-4.4,0.9l-4.3,0.8c-0.1,0-0.1,0-0.2,0l-4.1-0.2 c-0.1,0-0.3,0-0.4-0.1l-4.2-2.1c-0.1,0-0.1,0-0.2-0.1l-6-1.8c-0.6-0.2-1.1,0.2-1.3,0.8l-1.4,6.4C58.5,86.9,58.2,87.2,57.8,87.3z;" /> </path> </svg>
