<svg width="342" height="143" fill="none" xmlns="http://www.w3.org/2000/svg"><path fill="#C1B2DD" d="M1 30h340v19H1z"/><path d="M1.665 24.522L1.128 3.056a1.99 1.99 0 012.005-2.041l334.86 2.434a2.01 2.01 0 011.993 1.946l.648 20.67a1.989 1.989 0 01-2 2.055L3.664 26.48a2.01 2.01 0 01-1.999-1.958z" stroke="#FF7738" stroke-width="1.5"/><path d="M339.073 139.937l-.064-134.808a1.996 1.996 0 00-2.003-1.996l-332.19.993a2.004 2.004 0 00-1.998 1.992l-.765 132.617a1.996 1.996 0 001.99 2.008l333.019 1.199a2.005 2.005 0 002.011-2.005z" stroke="#3E2C73" stroke-width=".75"/><rect x="33" y="13" width="57" height="2" rx="1" fill="#3E2C73"/><rect x="96" y="13" width="19" height="2" rx="1" fill="#3E2C73"/><rect x="120" y="13" width="71" height="2" rx="1" fill="#FF7738"/><rect x="33" y="39" width="87" height="2" rx="1" fill="#5A4A79"/><rect x="33" y="60" width="75" height="2" rx="1" fill="#3E2C73"/><rect x="33" y="71" width="164" height="2" rx="1" fill="#3E2C73"/><rect x="33" y="82" width="187" height="2" rx="1" fill="#3E2C73"/><rect x="33" y="93" width="63" height="2" rx="1" fill="#3E2C73"/><rect x="33" y="104" width="120" height="2" rx="1" fill="#3E2C73"/><rect x="33" y="115" width="41" height="2" rx="1" fill="#3E2C73"/><rect x="33" y="126" width="98" height="2" rx="1" fill="#3E2C73"/><rect x="12" y="60" width="10" height="2" rx="1" fill="#C1B2DD"/><rect x="12" y="39" width="10" height="2" rx="1" fill="#5A4A79"/><rect x="12" y="71" width="10" height="2" rx="1" fill="#C1B2DD"/><rect x="12" y="82" width="10" height="2" rx="1" fill="#C1B2DD"/><rect x="12" y="93" width="10" height="2" rx="1" fill="#C1B2DD"/><rect x="12" y="104" width="10" height="2" rx="1" fill="#C1B2DD"/><rect x="12" y="115" width="10" height="2" rx="1" fill="#C1B2DD"/><rect x="12" y="126" width="10" height="2" rx="1" fill="#C1B2DD"/><path d="M19.608 15.325l3.117 3.117a.886.886 0 010 1.283.886.886 0 01-1.283 0l-3.117-3.117c-.642.367-1.375.642-2.2.642A4.108 4.108 0 0112 13.125 4.108 4.108 0 0116.125 9a4.108 4.108 0 014.125 4.125c0 .825-.275 1.558-.642 2.2zm-3.483.092a2.27 2.27 0 002.292-2.292 2.27 2.27 0 00-2.292-2.292 2.27 2.27 0 00-2.292 2.292 2.27 2.27 0 002.292 2.292z" fill="#3E2C73"/></svg>