<svg width="359" height="194" fill="none" xmlns="http://www.w3.org/2000/svg"><path d="M218.984 116.13l-.89-111.146a2 2 0 00-2-1.984H7.124a2 2 0 00-2 1.98L4.02 116.972a2 2 0 002.008 2.02l210.964-.846a2 2 0 001.992-2.016z" fill="#fff"/><path fill="#EDE7F5" d="M0 39h224v57H0z"/><rect x="191" y="12" width="18" height="18" rx="2" fill="#C1B2DD"/><rect x="18" y="16" width="105" height="3" rx="1.5" fill="#3E2C73"/><rect x="18" y="23" width="65" height="3" rx="1.5" fill="#C1B2DD"/><rect x="18" y="106" width="30" height="2" rx="1" fill="#C1B2DD"/><rect x="53" y="106" width="70" height="2" rx="1" fill="#C1B2DD"/><path d="M214.709 87.493l4.291.866V94H4V81.192l4.758 1.902 4.29.935 4.291-1.559 4.29-.138 4.292.138 4.29-5.023 4.29.139 4.292.034 4.29.174 4.29-6.651 4.291-1.871L55.956 55l4.29 21.235 4.292 1.281 4.29-.277 4.29 4.296 4.291-1.351 4.291.623 4.29 2.079 4.291 1.697 4.291.139 4.29-.52 4.291-13.822 4.291-8.66 4.291 22.032 4.29-2.183 4.291.52 4.291.277 4.29.07 4.291-1.767 4.291 2.39 4.29.9 4.291-1.108 4.291-.173 4.29.589 3.993-12.886 4.589 13.37 4.29.07 4.291-.831 4.29.138 4.291-.277 4.291-1.108 4.29 1.385 4.291.797 4.291.658 4.29-.173 4.291-1.836 6.925-1.767 1.656 6.686z" fill="#3E2C73"/><path d="M218.984 116.13l-.89-111.146a2 2 0 00-2-1.984H7.124a2 2 0 00-2 1.98L4.02 116.972a2 2 0 002.008 2.02l210.964-.846a2 2 0 001.992-2.016z" stroke="#3E2C73" stroke-width=".75"/><path d="M2.994 116.263L2.017 3.017a2 2 0 012-2.017h214.445a2 2 0 012 1.99l.529 115.975a2 2 0 01-2.026 2.009L4.968 118.246a2 2 0 01-1.974-1.983z" stroke="#FF7738" stroke-width="1.5"/><path d="M353.984 150.13l-.89-111.146a2 2 0 00-2-1.984h-208.97a2 2 0 00-2 1.98l-1.104 111.992a2 2 0 002.008 2.02l210.964-.846a2 2 0 001.992-2.016z" fill="#fff"/><path fill="#EDE7F5" d="M135 73h224v57H135z"/><rect x="326" y="46" width="18" height="18" rx="2" fill="#5A4A79"/><rect x="153" y="50" width="105" height="3" rx="1.5" fill="#3E2C73"/><rect x="153" y="57" width="65" height="3" rx="1.5" fill="#C1B2DD"/><rect x="153" y="140" width="30" height="2" rx="1" fill="#C1B2DD"/><rect x="188" y="140" width="70" height="2" rx="1" fill="#C1B2DD"/><path d="M143.291 125.164l-4.291.377V128h215v-5.583l-4.758.829-4.291.408-4.29-.68-4.291-.06-4.291.06-4.29-2.189-4.291.06-4.291.015-4.29.076-4.291-2.899-4.291-.816-4.29-6.221-4.291 9.256-4.291.559-4.29-.121-4.291 1.872-4.29-.588-4.291.271-4.291.906-4.29.74-4.291.061-4.291-.227-4.29-6.025-4.291-3.775-4.291 9.604-4.29-.951-4.291.226-4.291.121-4.29.03-4.291-.77-4.291 1.042-4.29.392-4.291-.483-4.291-.075-4.29.256-3.993-5.617-4.589 5.829-4.29.03-4.291-.362-4.29.06-4.291-.121-4.291-.483-4.29.604-4.291.347-4.291.287-4.29-.075-4.291-.801-6.925-.77-1.656 2.915z" fill="#3E2C73"/><path d="M353.984 150.13l-.89-111.146a2 2 0 00-2-1.984h-208.97a2 2 0 00-2 1.98l-1.104 111.992a2 2 0 002.008 2.02l210.964-.846a2 2 0 001.992-2.016z" stroke="#3E2C73" stroke-width=".75"/><path d="M137.994 150.263l-.977-113.246a2 2 0 012-2.017h214.445a2 2 0 012 1.99l.529 115.975a2 2 0 01-2.026 2.009l-213.997-2.728a2 2 0 01-1.974-1.983z" stroke="#FF7738" stroke-width="1.5"/><path d="M255.984 188.13l-.89-111.146a2 2 0 00-2-1.984H44.124a2 2 0 00-2 1.98L41.02 188.972a2 2 0 002.008 2.02l210.964-.846a2 2 0 001.992-2.016z" fill="#fff"/><path fill="#EDE7F5" d="M37 111h224v57H37z"/><rect x="228" y="84" width="18" height="18" rx="2" fill="#FF7738"/><rect x="55" y="88" width="105" height="3" rx="1.5" fill="#3E2C73"/><rect x="55" y="95" width="65" height="3" rx="1.5" fill="#C1B2DD"/><rect x="55" y="178" width="30" height="2" rx="1" fill="#C1B2DD"/><rect x="90" y="178" width="70" height="2" rx="1" fill="#C1B2DD"/><path d="M45.29 159.493l-4.29.866V166h215v-12.808l-4.758 1.902-4.291.935-4.29-1.559-4.291-.138-4.291.138-4.29-5.023-4.291.139-4.291.034-4.29.174-4.291-6.651-4.291-1.871-4.29-14.272-4.291 21.235-4.291 1.281-4.29-.277-4.291 4.296-4.29-1.351-4.291.623-4.291 2.079-4.29 1.697-4.291.139-4.291-.52-4.29-13.822-4.291-8.66-4.291 22.032-4.29-2.183-4.291.52-4.291.277-4.29.069-4.291-1.766-4.291 2.39-4.29.901-4.291-1.109-4.291-.173-4.29.589-3.993-12.887-4.589 13.372-4.29.069-4.29-.831-4.291.138-4.291-.277-4.29-1.108-4.291 1.385-4.291.797-4.29.658-4.291-.173-4.291-1.836-6.925-1.767-1.656 6.686z" fill="#3E2C73"/><path d="M255.984 188.13l-.89-111.146a2 2 0 00-2-1.984H44.124a2 2 0 00-2 1.98L41.02 188.972a2 2 0 002.008 2.02l210.964-.846a2 2 0 001.992-2.016z" stroke="#3E2C73" stroke-width=".75"/><path d="M39.994 188.263l-.977-113.246a2 2 0 012-2.017h214.445a2 2 0 012 1.99l.529 115.975a2 2 0 01-2.026 2.009l-213.997-2.728a2 2 0 01-1.974-1.983z" stroke="#FF7738" stroke-width="1.5"/><rect x="189.375" y="10.375" width="17.25" height="17.25" rx="1.625" stroke="#3E2C73" stroke-width=".75"/><rect x="324.375" y="44.375" width="17.25" height="17.25" rx="1.625" stroke="#3E2C73" stroke-width=".75"/><rect x="226.375" y="82.375" width="17.25" height="17.25" rx="1.625" stroke="#3E2C73" stroke-width=".75"/></svg>