<svg width="290" height="195" fill="none" xmlns="http://www.w3.org/2000/svg"><path d="M0 1h42v193H0V1z" fill="#3E2C73"/><path d="M43 .702L286.991.01a3 3 0 013.009 3v29.289L43 33V.702z" fill="#C1B2DD"/><path d="M223.077 104.8c0-.81.657-1.467 1.467-1.467h14.892v2.934h-14.892c-.81 0-1.467-.657-1.467-1.467z" fill="#3E2C73"/><path fill="#C1B2DD" d="M252.077 103.333h-12.641v2.933h12.641z"/><path fill="#EDE7F5" d="M252.077 103.333h5.949v2.933h-5.949z"/><path d="M223.077 115.067c0-.81.657-1.467 1.467-1.467h24.559v2.933h-24.559c-.81 0-1.467-.656-1.467-1.466z" fill="#3E2C73"/><path fill="#C1B2DD" d="M262.487 113.6h-13.385v2.933h13.385z"/><path fill="#EDE7F5" d="M262.487 113.6h5.205v2.933h-5.205z"/><path d="M223.077 125.333c0-.81.657-1.466 1.467-1.466h24.559v2.933h-24.559c-.81 0-1.467-.657-1.467-1.467z" fill="#3E2C73"/><path fill="#C1B2DD" d="M255.795 123.867h-6.692v2.933h6.692z"/><path fill="#EDE7F5" d="M255.795 123.867h6.692v2.933h-6.692z"/><path d="M223.077 135.6c0-.81.657-1.467 1.467-1.467h24.559v2.934h-24.559c-.81 0-1.467-.657-1.467-1.467z" fill="#3E2C73"/><path fill="#C1B2DD" d="M262.487 134.133h-13.385v2.933h13.385z"/><path fill="#EDE7F5" d="M262.487 134.133h5.205v2.933h-5.205z"/><path d="M223.077 145.867c0-.81.657-1.467 1.467-1.467H232v2.933h-7.456c-.81 0-1.467-.656-1.467-1.466z" fill="#3E2C73"/><path fill="#C1B2DD" d="M238.692 144.4H232v2.933h6.692z"/><path fill="#EDE7F5" d="M238.692 144.4h23.795v2.933h-23.795z"/><path d="M54.375 45c0 .345.28.625.625.625h220c.345 0 .625-.28.625-.625v-4a.625.625 0 00-.625-.625H55a.625.625 0 00-.625.625v4z" stroke="#3E2C73" stroke-width=".75"/><path d="M57.813 87.304l-3.042.716a1 1 0 00-.771.974V95h222V81.134a1 1 0 00-1.423-.906l-3.405 1.589a.97.97 0 01-.176.063l-4.013 1.02a.997.997 0 01-.636-.048l-3.951-1.675a1.005 1.005 0 00-.353-.079l-4.247-.16-3.899.147a1 1 0 01-.845-.409l-3.803-5.196a1 1 0 00-.845-.408l-3.899.147-4.43.041-3.809.18a1.001 1.001 0 01-.923-.515l-3.981-7.203a.996.996 0 00-.421-.407l-3.755-1.91a1 1 0 01-.515-.642l-3.157-12.259c-.269-1.043-1.77-.982-1.954.08l-3.537 20.427a1 1 0 01-.656.773l-3.678 1.283a1 1 0 01-.404.053l-3.717-.28a1 1 0 00-.835.346l-3.649 4.264a1 1 0 01-1.105.288l-3.528-1.296a1 1 0 00-.512-.048l-3.995.678c-.114.02-.224.058-.325.115l-4.278 2.419-4.249 1.962a.996.996 0 01-.381.091l-4.142.156a1 1 0 01-.177-.009l-3.686-.52a1.001 1.001 0 01-.827-.734l-4.26-16.017-3.088-7.275c-.391-.921-1.742-.761-1.907.226l-3.625 21.723a1 1 0 01-1.497.695l-2.871-1.705a1.001 1.001 0 00-.651-.13l-4.082.577-4.43.334-4.193.079a1.002 1.002 0 01-.452-.099l-3.709-1.782a1 1 0 00-.978.063l-3.817 2.481a1.001 1.001 0 01-.307.133l-4 .98a1.002 1.002 0 01-.527-.014l-4.051-1.221a.986.986 0 00-.241-.042l-4.204-.198a1 1 0 00-.205.012l-3.436.55a1 1 0 01-1.125-.73l-2.974-11.201c-.259-.978-1.64-.996-1.925-.025l-3.523 11.98a.999.999 0 01-.94.717l-3.576.068a.995.995 0 01-.239-.025l-4.185-.946a.995.995 0 00-.258-.024l-4.3.162-4.321-.326a1 1 0 01-.213-.04l-4.002-1.206a1 1 0 00-.641.022l-4.045 1.524a.988.988 0 01-.14.042l-4.359.944-4.32.774a1.006 1.006 0 01-.223.014l-4.107-.193a.998.998 0 01-.4-.105L67.37 81.27a1 1 0 00-.161-.064L61.18 79.41a1 1 0 00-1.264.751l-1.354 6.377a1 1 0 01-.749.766z" fill="#E1567C"/><path d="M53 104a2 2 0 012-2h156a2 2 0 012 2v6H53v-6z" fill="#C1B2DD"/><path d="M54 13a1 1 0 011-1h16a1 1 0 110 2H55a1 1 0 01-1-1zm24 0a1 1 0 011-1h16a1 1 0 110 2H79a1 1 0 01-1-1z" fill="#5A4A79"/><path d="M17 24.5a.5.5 0 01.5-.5h18a.5.5 0 010 1h-18a.5.5 0 01-.5-.5zM17 13a1 1 0 011-1h17a1 1 0 110 2H18a1 1 0 01-1-1zm0 17.5a.5.5 0 01.5-.5h18a.5.5 0 010 1h-18a.5.5 0 01-.5-.5zm0 6a.5.5 0 01.5-.5h18a.5.5 0 010 1h-18a.5.5 0 01-.5-.5zm0 6a.5.5 0 01.5-.5h18a.5.5 0 010 1h-18a.5.5 0 01-.5-.5zm0 6a.5.5 0 01.5-.5h18a.5.5 0 010 1h-18a.5.5 0 01-.5-.5zm0 6a.5.5 0 01.5-.5h18a.5.5 0 010 1h-18a.5.5 0 01-.5-.5zm0 10a.5.5 0 01.5-.5h18a.5.5 0 010 1h-18a.5.5 0 01-.5-.5zm0 6a.5.5 0 01.5-.5h18a.5.5 0 010 1h-18a.5.5 0 01-.5-.5zm0 6a.5.5 0 01.5-.5h18a.5.5 0 010 1h-18a.5.5 0 01-.5-.5zm0 11a.5.5 0 01.5-.5h18a.5.5 0 010 1h-18a.5.5 0 01-.5-.5z" fill="#C1B2DD"/><path d="M66 116.5a.5.5 0 01.5-.5h40a.5.5 0 010 1h-40a.5.5 0 01-.5-.5zm0 6a.5.5 0 01.5-.5h50a.5.5 0 010 1h-50a.5.5 0 01-.5-.5zm0 6a.5.5 0 01.5-.5h45a.5.5 0 010 1h-45a.5.5 0 01-.5-.5zm0 6a.5.5 0 01.5-.5h36a.5.5 0 010 1h-36a.5.5 0 01-.5-.5zm0 6a.5.5 0 01.5-.5h48a.5.5 0 010 1h-48a.5.5 0 01-.5-.5zm0 6a.5.5 0 01.5-.5h42a.5.5 0 010 1h-42a.5.5 0 01-.5-.5zm0 6a.5.5 0 01.5-.5h29a.5.5 0 010 1h-29a.5.5 0 01-.5-.5zm0 6a.5.5 0 01.5-.5h48a.5.5 0 010 1h-48a.5.5 0 01-.5-.5zm0 6a.5.5 0 01.5-.5h34a.5.5 0 010 1h-34a.5.5 0 01-.5-.5zm0 6a.5.5 0 01.5-.5h45a.5.5 0 010 1h-45a.5.5 0 01-.5-.5z" fill="#3E2C73"/><path d="M62 116.5a.5.5 0 00-.5-.5h-1a.5.5 0 000 1h1a.5.5 0 00.5-.5zm0 6a.5.5 0 00-.5-.5h-1a.5.5 0 000 1h1a.5.5 0 00.5-.5zm0 6a.5.5 0 00-.5-.5h-1a.5.5 0 000 1h1a.5.5 0 00.5-.5zm0 6a.5.5 0 00-.5-.5h-1a.5.5 0 000 1h1a.5.5 0 00.5-.5zm0 6a.5.5 0 00-.5-.5h-1a.5.5 0 000 1h1a.5.5 0 00.5-.5zm0 6a.5.5 0 00-.5-.5h-1a.5.5 0 000 1h1a.5.5 0 00.5-.5zm0 6a.5.5 0 00-.5-.5h-1a.5.5 0 000 1h1a.5.5 0 00.5-.5zm0 6a.5.5 0 00-.5-.5h-1a.5.5 0 000 1h1a.5.5 0 00.5-.5zm0 6a.5.5 0 00-.5-.5h-1a.5.5 0 000 1h1a.5.5 0 00.5-.5zm0 6a.5.5 0 00-.5-.5h-1a.5.5 0 000 1h1a.5.5 0 00.5-.5z" fill="#FF7738"/><path d="M126 116.5a.5.5 0 01.5-.5h9a.5.5 0 010 1h-9a.5.5 0 01-.5-.5zm0 6a.5.5 0 01.5-.5h9a.5.5 0 010 1h-9a.5.5 0 01-.5-.5zm0 6a.5.5 0 01.5-.5h9a.5.5 0 010 1h-9a.5.5 0 01-.5-.5zm0 6a.5.5 0 01.5-.5h9a.5.5 0 010 1h-9a.5.5 0 01-.5-.5zm0 6a.5.5 0 01.5-.5h9a.5.5 0 010 1h-9a.5.5 0 01-.5-.5zm0 6a.5.5 0 01.5-.5h9a.5.5 0 010 1h-9a.5.5 0 01-.5-.5zm0 6a.5.5 0 01.5-.5h9a.5.5 0 010 1h-9a.5.5 0 01-.5-.5zm0 6a.5.5 0 01.5-.5h9a.5.5 0 010 1h-9a.5.5 0 01-.5-.5zm0 6a.5.5 0 01.5-.5h9a.5.5 0 010 1h-9a.5.5 0 01-.5-.5zm0 6a.5.5 0 01.5-.5h9a.5.5 0 010 1h-9a.5.5 0 01-.5-.5zm18-54a.5.5 0 01.5-.5h9a.5.5 0 010 1h-9a.5.5 0 01-.5-.5zm0 6a.5.5 0 01.5-.5h9a.5.5 0 010 1h-9a.5.5 0 01-.5-.5zm0 6a.5.5 0 01.5-.5h9a.5.5 0 010 1h-9a.5.5 0 01-.5-.5zm0 6a.5.5 0 01.5-.5h9a.5.5 0 010 1h-9a.5.5 0 01-.5-.5zm0 6a.5.5 0 01.5-.5h9a.5.5 0 010 1h-9a.5.5 0 01-.5-.5zm0 6a.5.5 0 01.5-.5h9a.5.5 0 010 1h-9a.5.5 0 01-.5-.5zm0 6a.5.5 0 01.5-.5h9a.5.5 0 010 1h-9a.5.5 0 01-.5-.5zm0 6a.5.5 0 01.5-.5h9a.5.5 0 010 1h-9a.5.5 0 01-.5-.5zm0 6a.5.5 0 01.5-.5h9a.5.5 0 010 1h-9a.5.5 0 01-.5-.5zm0 6a.5.5 0 01.5-.5h9a.5.5 0 010 1h-9a.5.5 0 01-.5-.5zm18-54a.5.5 0 01.5-.5h9a.5.5 0 010 1h-9a.5.5 0 01-.5-.5zm0 6a.5.5 0 01.5-.5h9a.5.5 0 010 1h-9a.5.5 0 01-.5-.5zm0 6a.5.5 0 01.5-.5h9a.5.5 0 010 1h-9a.5.5 0 01-.5-.5zm0 6a.5.5 0 01.5-.5h9a.5.5 0 010 1h-9a.5.5 0 01-.5-.5zm0 6a.5.5 0 01.5-.5h9a.5.5 0 010 1h-9a.5.5 0 01-.5-.5zm0 6a.5.5 0 01.5-.5h9a.5.5 0 010 1h-9a.5.5 0 01-.5-.5zm0 6a.5.5 0 01.5-.5h9a.5.5 0 010 1h-9a.5.5 0 01-.5-.5zm0 6a.5.5 0 01.5-.5h9a.5.5 0 010 1h-9a.5.5 0 01-.5-.5zm0 6a.5.5 0 01.5-.5h9a.5.5 0 010 1h-9a.5.5 0 01-.5-.5zm0 6a.5.5 0 01.5-.5h9a.5.5 0 010 1h-9a.5.5 0 01-.5-.5zm18-54a.5.5 0 01.5-.5h9a.5.5 0 010 1h-9a.5.5 0 01-.5-.5zm0 6a.5.5 0 01.5-.5h9a.5.5 0 010 1h-9a.5.5 0 01-.5-.5zm0 6a.5.5 0 01.5-.5h9a.5.5 0 010 1h-9a.5.5 0 01-.5-.5zm0 6a.5.5 0 01.5-.5h9a.5.5 0 010 1h-9a.5.5 0 01-.5-.5zm0 6a.5.5 0 01.5-.5h9a.5.5 0 010 1h-9a.5.5 0 01-.5-.5zm0 6a.5.5 0 01.5-.5h9a.5.5 0 010 1h-9a.5.5 0 01-.5-.5zm0 6a.5.5 0 01.5-.5h9a.5.5 0 010 1h-9a.5.5 0 01-.5-.5zm0 6a.5.5 0 01.5-.5h9a.5.5 0 010 1h-9a.5.5 0 01-.5-.5zm0 6a.5.5 0 01.5-.5h9a.5.5 0 010 1h-9a.5.5 0 01-.5-.5zm0 6a.5.5 0 01.5-.5h9a.5.5 0 010 1h-9a.5.5 0 01-.5-.5zm18-54a.5.5 0 01.5-.5h8a.5.5 0 010 1h-8a.5.5 0 01-.5-.5zm0 6a.5.5 0 01.5-.5h8a.5.5 0 010 1h-8a.5.5 0 01-.5-.5zm0 6a.5.5 0 01.5-.5h8a.5.5 0 010 1h-8a.5.5 0 01-.5-.5zm0 6a.5.5 0 01.5-.5h8a.5.5 0 010 1h-8a.5.5 0 01-.5-.5zm0 6a.5.5 0 01.5-.5h8a.5.5 0 010 1h-8a.5.5 0 01-.5-.5zm0 6a.5.5 0 01.5-.5h8a.5.5 0 010 1h-8a.5.5 0 01-.5-.5zm0 6a.5.5 0 01.5-.5h8a.5.5 0 010 1h-8a.5.5 0 01-.5-.5zm0 6a.5.5 0 01.5-.5h8a.5.5 0 010 1h-8a.5.5 0 01-.5-.5zm0 6a.5.5 0 01.5-.5h8a.5.5 0 010 1h-8a.5.5 0 01-.5-.5zm0 6a.5.5 0 01.5-.5h8a.5.5 0 010 1h-8a.5.5 0 01-.5-.5z" fill="#3E2C73"/><path d="M13 24.5a.5.5 0 00-.5-.5h-2a.5.5 0 000 1h2a.5.5 0 00.5-.5zm0 6a.5.5 0 00-.5-.5h-2a.5.5 0 000 1h2a.5.5 0 00.5-.5zm0 6a.5.5 0 00-.5-.5h-2a.5.5 0 000 1h2a.5.5 0 00.5-.5zm0 6a.5.5 0 00-.5-.5h-2a.5.5 0 000 1h2a.5.5 0 00.5-.5zm0 6a.5.5 0 00-.5-.5h-2a.5.5 0 000 1h2a.5.5 0 00.5-.5zm0 6a.5.5 0 00-.5-.5h-2a.5.5 0 000 1h2a.5.5 0 00.5-.5zm0 10a.5.5 0 00-.5-.5h-2a.5.5 0 000 1h2a.5.5 0 00.5-.5zm0 6a.5.5 0 00-.5-.5h-2a.5.5 0 000 1h2a.5.5 0 00.5-.5zm0 6a.5.5 0 00-.5-.5h-2a.5.5 0 000 1h2a.5.5 0 00.5-.5zm0 11a.5.5 0 00-.5-.5h-2a.5.5 0 000 1h2a.5.5 0 00.5-.5z" fill="#C1B2DD"/><rect x="8" y="10" width="6" height="6" rx="1" fill="#fff"/><rect x="54" y="24" width="65" height="3" rx="1.5" fill="#5A4A79"/><rect x="265" y="12" width="10" height="8" rx="1" fill="#fff"/><path d="M271.118 17.907a.183.183 0 01-.088-.022l-1.03-.54-1.03.54a.193.193 0 01-.197 0 .191.191 0 01-.075-.185l.197-1.148-.835-.825a.185.185 0 01-.047-.192.187.187 0 01.152-.127l1.153-.158.515-1.053a.192.192 0 01.263-.07.21.21 0 01.072.07l.515 1.053 1.152.168a.187.187 0 01.105.32l-.835.812.198 1.148a.192.192 0 01-.075.184.198.198 0 01-.11.025z" fill="#3E2C73"/><path d="M3.703 189.422L3 2l282.029 2.442L289 194 3.703 189.422z" stroke="#3E2C73" stroke-width=".75"/><path d="M287 191.789V2H1.714L1 192l286-.211z" stroke="#FF7738" stroke-width="1.5"/><path d="M54.375 105c0-.897.727-1.625 1.625-1.625h156c.897 0 1.625.728 1.625 1.625v71c0 .897-.728 1.625-1.625 1.625H56A1.625 1.625 0 0154.375 176v-71z" stroke="#3E2C73" stroke-width=".75"/><rect x="223.452" y="103.708" width="52.045" height="2.183" rx="1.092" stroke="#3E2C73" stroke-width=".75"/><rect x="223.452" y="113.975" width="52.045" height="2.183" rx="1.092" stroke="#3E2C73" stroke-width=".75"/><rect x="223.452" y="124.242" width="52.045" height="2.183" rx="1.092" stroke="#3E2C73" stroke-width=".75"/><rect x="223.452" y="134.508" width="52.045" height="2.183" rx="1.092" stroke="#3E2C73" stroke-width=".75"/><path d="M223.452 145.867c0-.603.489-1.092 1.092-1.092h49.861a1.092 1.092 0 010 2.183h-49.861a1.092 1.092 0 01-1.092-1.091z" stroke="#3E2C73" stroke-width=".75"/></svg>