<svg width="468" height="73" fill="none" xmlns="http://www.w3.org/2000/svg"><rect x="433" y="34" width="34" height="3" rx="1.5" fill="#5A4A79"/><path d="M467 41L1 43" stroke="#C1B2DD" stroke-width="1.5" stroke-dasharray="4 2"/><rect x="433" y="17" width="34" height="3" rx="1.5" fill="#5A4A79"/><path d="M467 24L1 26" stroke="#C1B2DD" stroke-width="1.5" stroke-dasharray="4 2"/><rect x="433" width="34" height="3" rx="1.5" fill="#5A4A79"/><path d="M467 7L1 9" stroke="#C1B2DD" stroke-width="1.5" stroke-dasharray="4 2"/><circle cx="232.5" cy="32.5" r="14" fill="#FF7738" stroke="#FF7738"/><path d="M467 64.145l-6.052-.024-5.749.659a2.005 2.005 0 01-.602-.023l-5.387-1.025a1.995 1.995 0 00-.732-.003l-4.521.823a2 2 0 01-1.911-.707l-4.406-5.427a2 2 0 00-2.241-.618l-4.711 1.726-4.755 2.238a1.999 1.999 0 01-2.291-.422l-5.058-5.247-5.346-4.913a2 2 0 00-1.653-.504l-4.931.747a2.01 2.01 0 01-.349.022l-5.876-.145-6.052.062-6.052-.743-6.052.062-5.862-.444a1.988 1.988 0 01-.374-.064l-5.347-1.456a2 2 0 01-.9-.527l-5.393-5.483a1.992 1.992 0 00-.649-.44l-4.185-1.765a2 2 0 00-2.422.706l-4.064 5.877a2 2 0 01-2.671.58L346.11 45.1a1.977 1.977 0 01-.28-.203l-5.709-4.923a1.998 1.998 0 00-.466-.3l-4.538-2.1a2 2 0 00-2.246.394l-4.896 4.843c-.113.112-.239.21-.375.292l-5.648 3.398c-.132.08-.273.143-.419.19l-5.636 1.811c-.13.042-.264.07-.4.085l-5.667.603c-.12.013-.241.015-.362.005l-5.614-.425a2.005 2.005 0 00-.51.027l-4.508.821a2 2 0 01-2.02-.855l-4.607-6.882a2 2 0 00-1.985-.861l-4.782.783-5.735 1.62a2 2 0 00-.589.276l-5.482 3.77a2.002 2.002 0 01-.649.292l-5.38 1.343c-.213.053-.433.071-.652.053l-5.721-.48-5.398-.884a2 2 0 00-1.243.197l-4.602 2.384a2 2 0 01-1.744.046l-4.76-2.153a2.01 2.01 0 01-.7-.527l-5.631-6.626a1.937 1.937 0 01-.227-.329l-3.757-6.804c-.841-1.524-3.092-1.32-3.647.33l-3.107 9.246c-.562 1.67-2.853 1.851-3.669.288l-1.534-2.937c-.839-1.609-3.215-1.358-3.7.39l-4.567 16.458a2.002 2.002 0 01-.461.826l-5.007 5.389a1.998 1.998 0 01-1.752.618l-4.7-.683a1.998 1.998 0 00-.626.008l-5.5.946a2.005 2.005 0 01-.482.024l-5.81-.417-5.796-.759a1.991 1.991 0 00-.511 0l-5.549.703a2 2 0 01-.495.001l-5.508-.676a1.995 1.995 0 00-.59.015l-5.533.974c-.15.026-.302.036-.453.028l-5.824-.31-4.956-.061a2.002 2.002 0 01-1.675-.945l-3.985-6.419a2 2 0 00-3.257-.2l-3.984 4.95a2.001 2.001 0 01-.734.568l-5.236 2.368a2 2 0 01-.8.177l-5.633.07-6.052.049-6.052-.136-6.052-.508-5.797-.818a1.995 1.995 0 00-.511-.007l-5.796.676-6.052.298-6.052.111-5.209-.64a2 2 0 01-1.354-.782L74.81 57.41a2 2 0 00-2.778-.412l-4.46 3.259-5.47 3.839c-.376.264-.832.39-1.291.358l-5.197-.372a2.009 2.009 0 01-.288-.042l-5.91-1.307-5.762-1.19a2 2 0 00-.584-.034l-5.757.519-6.052.458-6.052-.285-6.052-.31-5.802.416a2.003 2.003 0 01-.497-.027l-4.833-.87A2 2 0 016.6 60.357L1 49.468" stroke="#3E2C73" stroke-width="1.5" stroke-miterlimit="10" stroke-linejoin="bevel"/><path d="M465 71L1 72" stroke="#3E2C73" stroke-width=".75"/><path d="M1 70l466 2" stroke="#FF7738" stroke-width="1.5"/><circle cx="232.5" cy="32.5" r="2.75" fill="#fff" stroke="#3E2C73" stroke-width="1.5"/></svg>