<svg width="288" height="158" fill="none" xmlns="http://www.w3.org/2000/svg"><path d="M218.983 109.18l-.888-104.197a2 2 0 00-2-1.983H7.123a2 2 0 00-2 1.979L4.02 109.971a2 2 0 002.008 2.021l210.961-.795a2 2 0 001.993-2.017z" fill="#fff"/><path fill="#EDE7F5" d="M0 34h224v52H0z"/><rect x="192" y="12" width="16" height="16" rx="8" fill="#C1B2DD"/><rect x="40" y="18" width="105" height="3" rx="1.5" fill="#3E2C73"/><rect x="18" y="99" width="30" height="2" rx="1" fill="#C1B2DD"/><rect x="53" y="99" width="70" height="2" rx="1" fill="#C1B2DD"/><path d="M218.983 109.295l-.888-104.429a2 2 0 00-2-1.983H7.123a2 2 0 00-2 1.98L4.02 110.087a2 2 0 002.008 2.021l210.962-.797a2 2 0 001.992-2.017z" stroke="#3E2C73" stroke-width=".75"/><path d="M2.993 109.425L2.018 3.018a2 2 0 012-2.018h214.445a2 2 0 012 1.99l.527 108.976a2 2 0 01-2.024 2.01l-213.997-2.57a2 2 0 01-1.976-1.981z" stroke="#FF7738" stroke-width="1.5"/><rect x="17" y="13" width="14" height="14" rx="2" fill="#5A4A79"/><rect x="15.375" y="11.375" width="13.25" height="13.25" rx="1.625" stroke="#3E2C73" stroke-width=".75"/><rect x="190.375" y="11.375" width="15.25" height="15.25" rx="7.625" stroke="#3E2C73" stroke-width=".75"/><path fill="#3E2C73" d="M67 78h8v10h-8z"/><path fill="#3E2C73" d="M67 78h8v10h-8zM80 75h8v13h-8z"/><path fill="#3E2C73" d="M80 75h8v13h-8zM93 78h8v10h-8z"/><path fill="#3E2C73" d="M93 78h8v10h-8zM28 80h8v8h-8z"/><path fill="#3E2C73" d="M28 80h8v8h-8zM41 78h8v10h-8z"/><path fill="#3E2C73" d="M41 78h8v10h-8zM54 75h8v13h-8z"/><path fill="#3E2C73" d="M54 75h8v13h-8zM106 84h8v4h-8z"/><path fill="#3E2C73" d="M106 84h8v4h-8zM119 82h8v6h-8z"/><path fill="#3E2C73" d="M119 82h8v6h-8zM15 84h8v4h-8z"/><path fill="#3E2C73" d="M15 84h8v4h-8zM132 80h8v8h-8z"/><path fill="#3E2C73" d="M132 80h8v8h-8zM145 82h8v6h-8z"/><path fill="#3E2C73" d="M145 82h8v6h-8zM158 80h8v8h-8z"/><path fill="#3E2C73" d="M158 80h8v8h-8zM171 82h8v6h-8z"/><path fill="#3E2C73" d="M171 82h8v6h-8zM184 80h8v8h-8z"/><path fill="#3E2C73" d="M184 80h8v8h-8zM197 84h8v4h-8z"/><path fill="#3E2C73" d="M197 84h8v4h-8z"/><rect x="181" y="12" width="16" height="16" rx="8" fill="#EDE7F5"/><rect x="179.375" y="11.375" width="15.25" height="15.25" rx="7.625" stroke="#3E2C73" stroke-width=".75"/><path d="M282.983 152.18l-.888-104.197a2 2 0 00-2-1.983H71.123a2 2 0 00-2 1.979L68.02 152.971a2 2 0 002.008 2.021l210.961-.795a2 2 0 001.993-2.017z" fill="#fff"/><path fill="#EDE7F5" d="M64 77h224v52H64z"/><rect x="256" y="55" width="16" height="16" rx="8" fill="#C1B2DD"/><rect x="104" y="61" width="105" height="3" rx="1.5" fill="#3E2C73"/><rect x="82" y="142" width="30" height="2" rx="1" fill="#C1B2DD"/><rect x="117" y="142" width="70" height="2" rx="1" fill="#C1B2DD"/><path d="M282.983 152.295l-.888-104.429a2 2 0 00-2-1.983H71.123a2 2 0 00-2 1.98L68.02 153.087a2 2 0 002.008 2.021l210.962-.797a2 2 0 001.992-2.017z" stroke="#3E2C73" stroke-width=".75"/><path d="M66.993 152.425l-.974-106.407a2 2 0 012-2.018h214.444a2 2 0 012 1.99l.527 108.976a2 2 0 01-2.024 2.01l-213.997-2.57a2 2 0 01-1.976-1.981z" stroke="#FF7738" stroke-width="1.5"/><rect x="81" y="56" width="14" height="14" rx="2" fill="#FF7738"/><rect x="79.375" y="54.375" width="13.25" height="13.25" rx="1.625" stroke="#3E2C73" stroke-width=".75"/><rect x="254.375" y="54.375" width="15.25" height="15.25" rx="7.625" stroke="#3E2C73" stroke-width=".75"/><path fill="#3E2C73" d="M132 99h8v32h-8z"/><path fill="#3E2C73" d="M132 99h8v32h-8zM145 84h8v47h-8z"/><path fill="#3E2C73" d="M145 84h8v47h-8zM158 99h8v32h-8z"/><path fill="#3E2C73" d="M158 99h8v32h-8zM93 123h8v8h-8z"/><path fill="#3E2C73" d="M93 123h8v8h-8zM106 110h8v21h-8z"/><path fill="#3E2C73" d="M106 110h8v21h-8zM119 113h8v18h-8z"/><path fill="#3E2C73" d="M119 113h8v18h-8zM171 110h8v21h-8z"/><path fill="#3E2C73" d="M171 110h8v21h-8zM184 86h8v45h-8z"/><path fill="#3E2C73" d="M184 86h8v45h-8zM80 116h8v15h-8z"/><path fill="#3E2C73" d="M80 116h8v15h-8zM197 113h8v18h-8z"/><path fill="#3E2C73" d="M197 113h8v18h-8zM210 105h8v26h-8z"/><path fill="#3E2C73" d="M210 105h8v26h-8zM223 123h8v8h-8z"/><path fill="#3E2C73" d="M223 123h8v8h-8zM236 111h8v20h-8z"/><path fill="#3E2C73" d="M236 111h8v20h-8zM249 107h8v24h-8z"/><path fill="#3E2C73" d="M249 107h8v24h-8zM262 127h8v4h-8z"/><path fill="#3E2C73" d="M262 127h8v4h-8z"/></svg>