<svg width="291" height="144" fill="none" xmlns="http://www.w3.org/2000/svg"><path d="M82 103.035L291 103v6.965L82 110v-6.965zM82 117.035L291 117v6.965L82 124v-6.965zM82 89.035L291 89v6.965L82 96v-6.965zM82 75.035L291 75v6.965L82 82v-6.965zM82 60.035L291 60v6.965L82 67v-6.965zM82 46.035L291 46v6.965L82 53v-6.965zM82 32.035L291 32v6.965L82 39v-6.965zM82 18.035L291 18v6.965L82 25v-6.965z" fill="#EDE7F5"/><rect x="10" y="21" width="45" height="2" rx="1" fill="#5A4A79"/><rect x="21" y="35" width="17" height="2" rx="1" fill="#5A4A79"/><rect x="21" y="42" width="35" height="2" rx="1" fill="#5A4A79"/><rect x="21" y="49" width="43" height="2" rx="1" fill="#5A4A79"/><rect x="21" y="56" width="30" height="2" rx="1" fill="#5A4A79"/><rect x="21" y="63" width="43" height="2" rx="1" fill="#5A4A79"/><rect x="21" y="28" width="39" height="2" rx="1" fill="#5A4A79"/><rect x="21" y="70" width="34" height="2" rx="1" fill="#5A4A79"/><rect x="33" y="84" width="19" height="2" rx="1" fill="#5A4A79"/><rect x="33" y="91" width="35" height="2" rx="1" fill="#5A4A79"/><rect x="33" y="98" width="39" height="2" rx="1" fill="#5A4A79"/><rect x="33" y="105" width="30" height="2" rx="1" fill="#5A4A79"/><rect x="33" y="112" width="43" height="2" rx="1" fill="#5A4A79"/><rect x="33" y="119" width="30" height="2" rx="1" fill="#5A4A79"/><rect x="21" y="77" width="39" height="2" rx="1" fill="#5A4A79"/><path d="M289 134l-1-124H1.717L1 133.05l288 .95z" stroke="#FF7738" stroke-width="1.5"/><path fill="#5A4A79" d="M82 18h8v7h-8zM90 25h16v7H90z"/><path fill="#FF7738" d="M106 32h33v7h-33zM160 60h42v7h-42z"/><path fill="#5A4A79" d="M139 39h7v7h-7zM146 46h2v7h-2zM148 53h12v7h-12zM202 68h10v7h-10zM212 75h4v7h-4zM216 82h20v7h-20zM236 89h2v7h-2zM238 96h2v7h-2zM240 103h26v7h-26zM266 110h5v7h-5zM271 117h14v7h-14z"/><path d="M3.702 130.885L3 12l283.523.242L287 132 3.702 130.885zM81.375 12v119" stroke="#3E2C73" stroke-width=".75"/><circle cx="179.5" cy="3.5" r="3.5" fill="#3E2C73"/><circle cx="179.5" cy="140.5" r="3.5" fill="#3E2C73"/><path stroke="#3E2C73" d="M179.5 4v137"/></svg>