<svg version="1.1" xmlns="http://www.w3.org/2000/svg" xmlns:xlink="http://www.w3.org/1999/xlink" x="0px" y="0px" viewBox="0 0 290 195" style="enable-background:new 0 0 290 195;" xml:space="preserve"> <style type="text/css"> .st0{fill:#C1B2DD;} .st1{fill:#3E2C73;} .st2{fill:#EDE7F5;} .st3{fill:none;stroke:#3E2C73;stroke-width:0.75;} .st4{fill:#5A4A79;} .st5{fill:#FF7738;} .st6{fill:#FFFFFF;} .st7{fill:none;stroke:#FF7738;stroke-width:1.5;} .chart_large {fill:#E1567C;} .chart_small {fill:none;stroke:#E1567C;stroke-width:0.75;stroke-linecap:round;stroke-linejoin:bevel;stroke-miterlimit:10;stroke-dasharray: 100;animation: drawline infinite 8s ease-in-out;} @keyframes drawline {from {stroke-dashoffset: 200;}to {stroke-dashoffset: 0;}} </style> <g id="background"> <path class="st0" d="M224,40h19c0.6,0,1,0.4,1,1l0,0c0,0.6-0.4,1-1,1h-19c-0.6,0-1-0.4-1-1l0,0C223,40.4,223.4,40,224,40z"/> <path class="st1" d="M0,1h42v193H0V1z"/> <path class="st0" d="M43,0.7L287,0c1.7,0,3,1.3,3,3v29.3L43,33V0.7z"/> <path class="st1" d="M223.1,136.5c0-0.8,0.7-1.5,1.5-1.5h14.9v2.9h-14.9C223.7,137.9,223.1,137.3,223.1,136.5z"/> <rect x="239.4" y="135" class="st0" width="12.6" height="2.9"/> <rect x="252.1" y="135" class="st2" width="5.9" height="2.9"/> <path class="st1" d="M223.1,146.7c0-0.8,0.7-1.5,1.5-1.5h24.6v2.9h-24.6C223.7,148.2,223.1,147.5,223.1,146.7z"/> <rect x="249.1" y="145.3" class="st0" width="13.4" height="2.9"/> <rect x="262.5" y="145.3" class="st2" width="5.2" height="2.9"/> <path class="st1" d="M223.1,157c0-0.8,0.7-1.5,1.5-1.5h24.6v2.9h-24.6C223.7,158.5,223.1,157.8,223.1,157z"/> <rect x="249.1" y="155.5" class="st0" width="6.7" height="2.9"/> <rect x="255.8" y="155.5" class="st2" width="6.7" height="2.9"/> <path class="st3" d="M54.4,45c0,0.3,0.3,0.6,0.6,0.6h158c0.3,0,0.6-0.3,0.6-0.6v-4c0-0.3-0.3-0.6-0.6-0.6H55 c-0.3,0-0.6,0.3-0.6,0.6V45z"/> <path class="st0" d="M53,98c0-1.1,0.9-2,2-2h156c1.1,0,2,0.9,2,2v6H53V98z"/> <path class="st4" d="M54,13c0-0.6,0.4-1,1-1h16c0.6,0,1,0.4,1,1s-0.4,1-1,1H55C54.4,14,54,13.6,54,13z"/> <path class="st4" d="M78,13c0-0.6,0.4-1,1-1h16c0.6,0,1,0.4,1,1s-0.4,1-1,1H79C78.4,14,78,13.6,78,13z"/> <path class="st0" d="M17,24.5c0-0.3,0.2-0.5,0.5-0.5h18c0.3,0,0.5,0.2,0.5,0.5S35.8,25,35.5,25h-18C17.2,25,17,24.8,17,24.5z"/> <path class="st0" d="M17,13c0-0.6,0.4-1,1-1h17c0.6,0,1,0.4,1,1s-0.4,1-1,1H18C17.4,14,17,13.6,17,13z"/> <path class="st0" d="M17,30.5c0-0.3,0.2-0.5,0.5-0.5h18c0.3,0,0.5,0.2,0.5,0.5S35.8,31,35.5,31h-18C17.2,31,17,30.8,17,30.5z"/> <path class="st0" d="M17,36.5c0-0.3,0.2-0.5,0.5-0.5h18c0.3,0,0.5,0.2,0.5,0.5S35.8,37,35.5,37h-18C17.2,37,17,36.8,17,36.5z"/> <path class="st0" d="M17,42.5c0-0.3,0.2-0.5,0.5-0.5h18c0.3,0,0.5,0.2,0.5,0.5S35.8,43,35.5,43h-18C17.2,43,17,42.8,17,42.5z"/> <path class="st0" d="M17,48.5c0-0.3,0.2-0.5,0.5-0.5h18c0.3,0,0.5,0.2,0.5,0.5S35.8,49,35.5,49h-18C17.2,49,17,48.8,17,48.5z"/> <path class="st0" d="M17,54.5c0-0.3,0.2-0.5,0.5-0.5h18c0.3,0,0.5,0.2,0.5,0.5S35.8,55,35.5,55h-18C17.2,55,17,54.8,17,54.5z"/> <path class="st0" d="M17,64.5c0-0.3,0.2-0.5,0.5-0.5h18c0.3,0,0.5,0.2,0.5,0.5S35.8,65,35.5,65h-18C17.2,65,17,64.8,17,64.5z"/> <path class="st0" d="M17,70.5c0-0.3,0.2-0.5,0.5-0.5h18c0.3,0,0.5,0.2,0.5,0.5S35.8,71,35.5,71h-18C17.2,71,17,70.8,17,70.5z"/> <path class="st0" d="M17,76.5c0-0.3,0.2-0.5,0.5-0.5h18c0.3,0,0.5,0.2,0.5,0.5S35.8,77,35.5,77h-18C17.2,77,17,76.8,17,76.5z"/> <path class="st0" d="M17,87.5c0-0.3,0.2-0.5,0.5-0.5h18c0.3,0,0.5,0.2,0.5,0.5S35.8,88,35.5,88h-18C17.2,88,17,87.8,17,87.5z"/> <path class="st5" d="M62,110.5c0-0.3-0.2-0.5-0.5-0.5h-1c-0.3,0-0.5,0.2-0.5,0.5s0.2,0.5,0.5,0.5h1C61.8,111,62,110.8,62,110.5z"/> <path class="st5" d="M62,116.5c0-0.3-0.2-0.5-0.5-0.5h-1c-0.3,0-0.5,0.2-0.5,0.5s0.2,0.5,0.5,0.5h1C61.8,117,62,116.8,62,116.5z"/> <path class="st5" d="M62,122.5c0-0.3-0.2-0.5-0.5-0.5h-1c-0.3,0-0.5,0.2-0.5,0.5s0.2,0.5,0.5,0.5h1C61.8,123,62,122.8,62,122.5z"/> <path class="st5" d="M62,128.5c0-0.3-0.2-0.5-0.5-0.5h-1c-0.3,0-0.5,0.2-0.5,0.5s0.2,0.5,0.5,0.5h1C61.8,129,62,128.8,62,128.5z"/> <path class="st5" d="M62,134.5c0-0.3-0.2-0.5-0.5-0.5h-1c-0.3,0-0.5,0.2-0.5,0.5s0.2,0.5,0.5,0.5h1C61.8,135,62,134.8,62,134.5z"/> <path class="st1" d="M126,110.5c0-0.3,0.2-0.5,0.5-0.5h9c0.3,0,0.5,0.2,0.5,0.5s-0.2,0.5-0.5,0.5h-9 C126.2,111,126,110.8,126,110.5z"/> <path class="st1" d="M126,116.5c0-0.3,0.2-0.5,0.5-0.5h9c0.3,0,0.5,0.2,0.5,0.5s-0.2,0.5-0.5,0.5h-9 C126.2,117,126,116.8,126,116.5z"/> <path class="st1" d="M126,122.5c0-0.3,0.2-0.5,0.5-0.5h9c0.3,0,0.5,0.2,0.5,0.5s-0.2,0.5-0.5,0.5h-9 C126.2,123,126,122.8,126,122.5z"/> <path class="st1" d="M126,128.5c0-0.3,0.2-0.5,0.5-0.5h9c0.3,0,0.5,0.2,0.5,0.5s-0.2,0.5-0.5,0.5h-9 C126.2,129,126,128.8,126,128.5z"/> <path class="st1" d="M126,134.5c0-0.3,0.2-0.5,0.5-0.5h9c0.3,0,0.5,0.2,0.5,0.5s-0.2,0.5-0.5,0.5h-9 C126.2,135,126,134.8,126,134.5z"/> <path class="st1" d="M144,110.5c0-0.3,0.2-0.5,0.5-0.5h9c0.3,0,0.5,0.2,0.5,0.5s-0.2,0.5-0.5,0.5h-9 C144.2,111,144,110.8,144,110.5z"/> <path class="st1" d="M144,116.5c0-0.3,0.2-0.5,0.5-0.5h9c0.3,0,0.5,0.2,0.5,0.5s-0.2,0.5-0.5,0.5h-9 C144.2,117,144,116.8,144,116.5z"/> <path class="st1" d="M144,122.5c0-0.3,0.2-0.5,0.5-0.5h9c0.3,0,0.5,0.2,0.5,0.5s-0.2,0.5-0.5,0.5h-9 C144.2,123,144,122.8,144,122.5z"/> <path class="st1" d="M144,128.5c0-0.3,0.2-0.5,0.5-0.5h9c0.3,0,0.5,0.2,0.5,0.5s-0.2,0.5-0.5,0.5h-9 C144.2,129,144,128.8,144,128.5z"/> <path class="st1" d="M144,134.5c0-0.3,0.2-0.5,0.5-0.5h9c0.3,0,0.5,0.2,0.5,0.5s-0.2,0.5-0.5,0.5h-9 C144.2,135,144,134.8,144,134.5z"/> <path class="st1" d="M162,110.5c0-0.3,0.2-0.5,0.5-0.5h9c0.3,0,0.5,0.2,0.5,0.5s-0.2,0.5-0.5,0.5h-9 C162.2,111,162,110.8,162,110.5z"/> <path class="st1" d="M162,116.5c0-0.3,0.2-0.5,0.5-0.5h9c0.3,0,0.5,0.2,0.5,0.5s-0.2,0.5-0.5,0.5h-9 C162.2,117,162,116.8,162,116.5z"/> <path class="st1" d="M162,122.5c0-0.3,0.2-0.5,0.5-0.5h9c0.3,0,0.5,0.2,0.5,0.5s-0.2,0.5-0.5,0.5h-9 C162.2,123,162,122.8,162,122.5z"/> <path class="st1" d="M162,128.5c0-0.3,0.2-0.5,0.5-0.5h9c0.3,0,0.5,0.2,0.5,0.5s-0.2,0.5-0.5,0.5h-9 C162.2,129,162,128.8,162,128.5z"/> <path class="st1" d="M162,134.5c0-0.3,0.2-0.5,0.5-0.5h9c0.3,0,0.5,0.2,0.5,0.5s-0.2,0.5-0.5,0.5h-9 C162.2,135,162,134.8,162,134.5z"/> <path class="st1" d="M180,110.5c0-0.3,0.2-0.5,0.5-0.5h9c0.3,0,0.5,0.2,0.5,0.5s-0.2,0.5-0.5,0.5h-9 C180.2,111,180,110.8,180,110.5z"/> <path class="st1" d="M180,116.5c0-0.3,0.2-0.5,0.5-0.5h9c0.3,0,0.5,0.2,0.5,0.5s-0.2,0.5-0.5,0.5h-9 C180.2,117,180,116.8,180,116.5z"/> <path class="st1" d="M180,122.5c0-0.3,0.2-0.5,0.5-0.5h9c0.3,0,0.5,0.2,0.5,0.5s-0.2,0.5-0.5,0.5h-9 C180.2,123,180,122.8,180,122.5z"/> <path class="st1" d="M180,128.5c0-0.3,0.2-0.5,0.5-0.5h9c0.3,0,0.5,0.2,0.5,0.5s-0.2,0.5-0.5,0.5h-9 C180.2,129,180,128.8,180,128.5z"/> <path class="st1" d="M180,134.5c0-0.3,0.2-0.5,0.5-0.5h9c0.3,0,0.5,0.2,0.5,0.5s-0.2,0.5-0.5,0.5h-9 C180.2,135,180,134.8,180,134.5z"/> <path class="st1" d="M198,110.5c0-0.3,0.2-0.5,0.5-0.5h8c0.3,0,0.5,0.2,0.5,0.5s-0.2,0.5-0.5,0.5h-8 C198.2,111,198,110.8,198,110.5z"/> <path class="st1" d="M198,116.5c0-0.3,0.2-0.5,0.5-0.5h8c0.3,0,0.5,0.2,0.5,0.5s-0.2,0.5-0.5,0.5h-8 C198.2,117,198,116.8,198,116.5z"/> <path class="st1" d="M198,122.5c0-0.3,0.2-0.5,0.5-0.5h8c0.3,0,0.5,0.2,0.5,0.5s-0.2,0.5-0.5,0.5h-8 C198.2,123,198,122.8,198,122.5z"/> <path class="st1" d="M198,128.5c0-0.3,0.2-0.5,0.5-0.5h8c0.3,0,0.5,0.2,0.5,0.5s-0.2,0.5-0.5,0.5h-8 C198.2,129,198,128.8,198,128.5z"/> <path class="st1" d="M198,134.5c0-0.3,0.2-0.5,0.5-0.5h8c0.3,0,0.5,0.2,0.5,0.5s-0.2,0.5-0.5,0.5h-8 C198.2,135,198,134.8,198,134.5z"/> <path class="st0" d="M13,24.5c0-0.3-0.2-0.5-0.5-0.5h-2c-0.3,0-0.5,0.2-0.5,0.5s0.2,0.5,0.5,0.5h2C12.8,25,13,24.8,13,24.5z"/> <path class="st0" d="M13,30.5c0-0.3-0.2-0.5-0.5-0.5h-2c-0.3,0-0.5,0.2-0.5,0.5s0.2,0.5,0.5,0.5h2C12.8,31,13,30.8,13,30.5z"/> <path class="st0" d="M13,36.5c0-0.3-0.2-0.5-0.5-0.5h-2c-0.3,0-0.5,0.2-0.5,0.5s0.2,0.5,0.5,0.5h2C12.8,37,13,36.8,13,36.5z"/> <path class="st0" d="M13,42.5c0-0.3-0.2-0.5-0.5-0.5h-2c-0.3,0-0.5,0.2-0.5,0.5s0.2,0.5,0.5,0.5h2C12.8,43,13,42.8,13,42.5z"/> <path class="st0" d="M13,48.5c0-0.3-0.2-0.5-0.5-0.5h-2c-0.3,0-0.5,0.2-0.5,0.5s0.2,0.5,0.5,0.5h2C12.8,49,13,48.8,13,48.5z"/> <path class="st0" d="M13,54.5c0-0.3-0.2-0.5-0.5-0.5h-2c-0.3,0-0.5,0.2-0.5,0.5s0.2,0.5,0.5,0.5h2C12.8,55,13,54.8,13,54.5z"/> <path class="st0" d="M13,64.5c0-0.3-0.2-0.5-0.5-0.5h-2c-0.3,0-0.5,0.2-0.5,0.5s0.2,0.5,0.5,0.5h2C12.8,65,13,64.8,13,64.5z"/> <path class="st0" d="M13,70.5c0-0.3-0.2-0.5-0.5-0.5h-2c-0.3,0-0.5,0.2-0.5,0.5s0.2,0.5,0.5,0.5h2C12.8,71,13,70.8,13,70.5z"/> <path class="st0" d="M13,76.5c0-0.3-0.2-0.5-0.5-0.5h-2c-0.3,0-0.5,0.2-0.5,0.5s0.2,0.5,0.5,0.5h2C12.8,77,13,76.8,13,76.5z"/> <path class="st0" d="M13,87.5c0-0.3-0.2-0.5-0.5-0.5h-2c-0.3,0-0.5,0.2-0.5,0.5s0.2,0.5,0.5,0.5h2C12.8,88,13,87.8,13,87.5z"/> <path class="st6" d="M9,10h4c0.6,0,1,0.4,1,1v4c0,0.6-0.4,1-1,1H9c-0.6,0-1-0.4-1-1v-4C8,10.4,8.4,10,9,10z"/> <path class="st4" d="M55.5,24h62c0.8,0,1.5,0.7,1.5,1.5l0,0c0,0.8-0.7,1.5-1.5,1.5h-62c-0.8,0-1.5-0.7-1.5-1.5l0,0	C54,24.7,54.7,24,55.5,24z"/> <path class="st1" d="M224.5,45h18c0.8,0,1.5,0.7,1.5,1.5l0,0c0,0.8-0.7,1.5-1.5,1.5h-18c-0.8,0-1.5-0.7-1.5-1.5l0,0	C223,45.7,223.7,45,224.5,45z"/> <path class="st0" d="M224,57h19c0.6,0,1,0.4,1,1l0,0c0,0.6-0.4,1-1,1h-19c-0.6,0-1-0.4-1-1l0,0C223,57.4,223.4,57,224,57z"/> <path class="st1" d="M224.5,62h18c0.8,0,1.5,0.7,1.5,1.5l0,0c0,0.8-0.7,1.5-1.5,1.5h-18c-0.8,0-1.5-0.7-1.5-1.5l0,0	C223,62.7,223.7,62,224.5,62z"/> <path class="st0" d="M256,40h19c0.6,0,1,0.4,1,1l0,0c0,0.6-0.4,1-1,1h-19c-0.6,0-1-0.4-1-1l0,0C255,40.4,255.4,40,256,40z"/> <path class="st1" d="M256.5,45h18c0.8,0,1.5,0.7,1.5,1.5l0,0c0,0.8-0.7,1.5-1.5,1.5h-18c-0.8,0-1.5-0.7-1.5-1.5l0,0	C255,45.7,255.7,45,256.5,45z"/> <path class="st0" d="M256,57h19c0.6,0,1,0.4,1,1l0,0c0,0.6-0.4,1-1,1h-19c-0.6,0-1-0.4-1-1l0,0C255,57.4,255.4,57,256,57z"/> <path class="st1" d="M256.5,62h18c0.8,0,1.5,0.7,1.5,1.5l0,0c0,0.8-0.7,1.5-1.5,1.5h-18c-0.8,0-1.5-0.7-1.5-1.5l0,0	C255,62.7,255.7,62,256.5,62z"/> <path class="st6" d="M266,12h8c0.6,0,1,0.4,1,1v6c0,0.6-0.4,1-1,1h-8c-0.6,0-1-0.4-1-1v-6C265,12.4,265.4,12,266,12z"/> <path class="st1" d="M271.1,17.9L271.1,17.9l-1.1-0.6l-1,0.5h-0.1h-0.1c0,0-0.1,0-0.1-0.1v-0.1l0.2-1.1l-0.8-0.8	c0,0,0-0.1-0.1-0.1v-0.1c0,0,0-0.1,0.1-0.1h0.1l1.2-0.2l0.5-1.1c0,0,0-0.1,0.1-0.1h0.1h0.1c0,0,0.1,0,0.1,0.1l0.5,1.1l1.2,0.2h0.1	c0,0,0,0.1,0.1,0.1v0.1c0,0,0,0.1-0.1,0.1l-0.8,0.8l0.2,1.1v0.1c0,0,0,0.1-0.1,0.1C271.2,17.9,271.2,17.9,271.1,17.9L271.1,17.9z"/> <path class="st3" d="M3.7,189.4L3,2l282,2.4l4,189.6L3.7,189.4z"/> <path class="st7" d="M287,191.8V2H1.7L1,192L287,191.8z"/> <path class="st3" d="M54.4,99c0-0.9,0.7-1.6,1.6-1.6h156c0.9,0,1.6,0.7,1.6,1.6v40c0,0.9-0.7,1.6-1.6,1.6H56 c-0.9,0-1.6-0.7-1.6-1.6V99z"/> <path class="st0" d="M53,148c0-1.1,0.9-2,2-2h156c1.1,0,2,0.9,2,2v6H53V148z"/> <path class="st5" d="M62,160.5c0-0.3-0.2-0.5-0.5-0.5h-1c-0.3,0-0.5,0.2-0.5,0.5s0.2,0.5,0.5,0.5h1C61.8,161,62,160.8,62,160.5z"	/> <path class="st5" d="M62,166.5c0-0.3-0.2-0.5-0.5-0.5h-1c-0.3,0-0.5,0.2-0.5,0.5s0.2,0.5,0.5,0.5h1C61.8,167,62,166.8,62,166.5z"/> <path class="st5" d="M62,172.5c0-0.3-0.2-0.5-0.5-0.5h-1c-0.3,0-0.5,0.2-0.5,0.5s0.2,0.5,0.5,0.5h1C61.8,173,62,172.8,62,172.5z"/> <path class="st1" d="M126,160.5c0-0.3,0.2-0.5,0.5-0.5h9c0.3,0,0.5,0.2,0.5,0.5s-0.2,0.5-0.5,0.5h-9 C126.2,161,126,160.8,126,160.5z"/> <path class="st1" d="M126,166.5c0-0.3,0.2-0.5,0.5-0.5h9c0.3,0,0.5,0.2,0.5,0.5s-0.2,0.5-0.5,0.5h-9	C126.2,167,126,166.8,126,166.5z"/> <path class="st1" d="M126,172.5c0-0.3,0.2-0.5,0.5-0.5h9c0.3,0,0.5,0.2,0.5,0.5s-0.2,0.5-0.5,0.5h-9	C126.2,173,126,172.8,126,172.5z"/> <path class="st1" d="M144,160.5c0-0.3,0.2-0.5,0.5-0.5h9c0.3,0,0.5,0.2,0.5,0.5s-0.2,0.5-0.5,0.5h-9	C144.2,161,144,160.8,144,160.5z"/> <path class="st1" d="M144,166.5c0-0.3,0.2-0.5,0.5-0.5h9c0.3,0,0.5,0.2,0.5,0.5s-0.2,0.5-0.5,0.5h-9	C144.2,167,144,166.8,144,166.5z"/> <path class="st1" d="M144,172.5c0-0.3,0.2-0.5,0.5-0.5h9c0.3,0,0.5,0.2,0.5,0.5s-0.2,0.5-0.5,0.5h-9	C144.2,173,144,172.8,144,172.5z"/> <path class="st1" d="M162,160.5c0-0.3,0.2-0.5,0.5-0.5h9c0.3,0,0.5,0.2,0.5,0.5s-0.2,0.5-0.5,0.5h-9	C162.2,161,162,160.8,162,160.5z"/> <path class="st1" d="M162,166.5c0-0.3,0.2-0.5,0.5-0.5h9c0.3,0,0.5,0.2,0.5,0.5s-0.2,0.5-0.5,0.5h-9	C162.2,167,162,166.8,162,166.5z"/> <path class="st1" d="M162,172.5c0-0.3,0.2-0.5,0.5-0.5h9c0.3,0,0.5,0.2,0.5,0.5s-0.2,0.5-0.5,0.5h-9	C162.2,173,162,172.8,162,172.5z"/> <path class="st1" d="M180,160.5c0-0.3,0.2-0.5,0.5-0.5h9c0.3,0,0.5,0.2,0.5,0.5s-0.2,0.5-0.5,0.5h-9	C180.2,161,180,160.8,180,160.5z"/> <path class="st1" d="M180,166.5c0-0.3,0.2-0.5,0.5-0.5h9c0.3,0,0.5,0.2,0.5,0.5s-0.2,0.5-0.5,0.5h-9	C180.2,167,180,166.8,180,166.5z"/> <path class="st1" d="M180,172.5c0-0.3,0.2-0.5,0.5-0.5h9c0.3,0,0.5,0.2,0.5,0.5s-0.2,0.5-0.5,0.5h-9	C180.2,173,180,172.8,180,172.5z"/> <path class="st1" d="M198,160.5c0-0.3,0.2-0.5,0.5-0.5h8c0.3,0,0.5,0.2,0.5,0.5s-0.2,0.5-0.5,0.5h-8	C198.2,161,198,160.8,198,160.5z"/> <path class="st1" d="M198,166.5c0-0.3,0.2-0.5,0.5-0.5h8c0.3,0,0.5,0.2,0.5,0.5s-0.2,0.5-0.5,0.5h-8	C198.2,167,198,166.8,198,166.5z"/> <path class="st1" d="M198,172.5c0-0.3,0.2-0.5,0.5-0.5h8c0.3,0,0.5,0.2,0.5,0.5s-0.2,0.5-0.5,0.5h-8	C198.2,173,198,172.8,198,172.5z"/> <path class="st3" d="M54.4,149c0-0.9,0.7-1.6,1.6-1.6h156c0.9,0,1.6,0.7,1.6,1.6v29c0,0.9-0.7,1.6-1.6,1.6H56	c-0.9,0-1.6-0.7-1.6-1.6V149z"/> <path class="st3" d="M224.5,135.4h49.9c0.6,0,1.1,0.5,1.1,1.1l0,0c0,0.6-0.5,1.1-1.1,1.1h-49.9c-0.6,0-1.1-0.5-1.1-1.1l0,0	C223.5,135.9,223.9,135.4,224.5,135.4z"/> <path class="st3" d="M224.5,145.6h49.9c0.6,0,1.1,0.5,1.1,1.1l0,0c0,0.6-0.5,1.1-1.1,1.1h-49.9c-0.6,0-1.1-0.5-1.1-1.1l0,0	C223.5,146.1,223.9,145.6,224.5,145.6z"/> <path class="st3" d="M224.5,155.9h49.9c0.6,0,1.1,0.5,1.1,1.1l0,0c0,0.6-0.5,1.1-1.1,1.1h-49.9c-0.6,0-1.1-0.5-1.1-1.1l0,0	C223.5,156.4,223.9,155.9,224.5,155.9z"/> </g> <path class="chart_large"> <animate repeatCount="indefinite" attributeName="d" dur="8s" values="M211.4,83.5l1.8,0.4c0.5,0.1,0.8,0.5,0.8,1V89H54v-9.6c0-0.7,0.8-1.2,1.4-0.9l1.3,0.6c0.5,0.2,1.1,0,1.3-0.4 l2.6-4.8c0.1-0.2,0.3-0.4,0.5-0.4l2.7-1.1c0.1,0,0.2-0.1,0.4-0.1l3-0.1l2.7,0.1c0.3,0,0.6-0.1,0.8-0.4l2.6-3.5 c0.2-0.3,0.5-0.4,0.8-0.4l2.7,0.1H80l2.6,0.1c0.4,0,0.7-0.2,0.9-0.5l2.7-5c0.1-0.2,0.2-0.3,0.4-0.4l2.7-1.4 c0.2-0.1,0.3-0.2,0.4-0.4l1.6-2.9c0.5-0.8,1.7-0.6,1.9,0.3l2.6,15.2c0.1,0.4,0.3,0.7,0.7,0.8l2.5,0.9c0.1,0,0.2,0.1,0.3,0.2 l2.2,1.7c0.5,0.4,1.1,0.3,1.5-0.2l2-3.1c0.3-0.5,1.1-0.6,1.5-0.2l0.4,0.4c0.5,0.5,1.4,0.3,1.7-0.4l1.7-5.8c0.3-0.8,1.4-1,1.8-0.2 l2.6,4.7c0.1,0.2,0.3,0.3,0.5,0.4l2.6,1.2c0.2,0.1,0.4,0.3,0.5,0.5l2.9,6.4c0.2,0.4,0.6,0.6,1,0.6l1.8-0.3 c0.4-0.1,0.7-0.3,0.8-0.7l3-11.4l1.9-4.4c0.4-0.9,1.7-0.8,1.9,0.2l2.4,14.4c0.1,0.7,0.9,1.1,1.5,0.7l1.6-1 c0.2-0.1,0.4-0.2,0.7-0.1l2.8,0.4l3.2,0.2l3,0.1c0.2,0,0.3,0,0.5-0.1l2.5-1.2c0.3-0.2,0.7-0.1,1,0.1l2.6,1.7 c0.1,0.1,0.2,0.1,0.3,0.1l2.8,0.7c0.2,0,0.4,0,0.5,0l2.8-0.9c0.1,0,0.2,0,0.2,0l3-0.1c0.1,0,0.1,0,0.2,0l2.2,0.4 c0.5,0.1,1-0.2,1.1-0.7l1.8-6.9c0.3-1,1.6-1,1.9,0l2.2,7.5c0.1,0.4,0.5,0.7,0.9,0.7h2.3c0.1,0,0.2,0,0.2,0l2.9-0.7 c0.1,0,0.2,0,0.3,0l3.1,0.1l3.1-0.2c0.1,0,0.1,0,0.2,0l2.8-0.8c0.2-0.1,0.4-0.1,0.6,0l2.8,1.1h0.1l3.1,0.7l3.1,0.6 c0.1,0,0.1,0,0.2,0l2.9-0.1c0.1,0,0.3,0,0.4-0.1l2.9-1.5c0.1,0,0.1,0,0.2-0.1l4-1.2c0.6-0.2,1.1,0.2,1.3,0.8l0.9,4.1 C210.8,83.1,211,83.4,211.4,83.5z; M211.4,88.9l1.8,0c0.5,0,0.8,0,0.8,0V89H54v-0.2c0,0,0.8,0,1.4,0l1.3,0c0.5,0,1.1,0,1.3,0l2.6-0.1c0.1,0,0.3,0,0.5,0l2.7,0 c0.1,0,0.2,0,0.4,0l3,0l2.7,0c0.3,0,0.6,0,0.8,0l2.6-0.1c0.2,0,0.5,0,0.8,0l2.7,0H80l2.6,0c0.4,0,0.7,0,0.9,0l2.7-0.1 c0.1,0,0.2,0,0.4,0l2.7,0c0.2,0,0.3,0,0.4,0l1.6-0.1c0.5,0,1.7,0,1.9,0l2.6,0.4c0.1,0,0.3,0,0.7,0l2.5,0c0.1,0,0.2,0,0.3,0l2.2,0 c0.5,0,1.1,0,1.5,0l2-0.1c0.3,0,1.1,0,1.5,0l0.4,0c0.5,0,1.4,0,1.7,0l1.7-0.1c0.3,0,1.4,0,1.8,0l2.6,0.1c0.1,0,0.3,0,0.5,0l2.6,0 c0.2,0,0.4,0,0.5,0l2.9,0.2c0.2,0,0.6,0,1,0l1.8,0c0.4,0,0.7,0,0.8,0l3-0.3l1.9-0.1c0.4,0,1.7,0,1.9,0l2.4,0.4c0.1,0,0.9,0,1.5,0 l1.6,0c0.2,0,0.4,0,0.7,0l2.8,0l3.2,0l3,0c0.2,0,0.3,0,0.5,0l2.5,0c0.3,0,0.7,0,1,0l2.6,0c0.1,0,0.2,0,0.3,0l2.8,0 c0.2,0,0.4,0,0.5,0l2.8,0c0.1,0,0.2,0,0.2,0l3,0c0.1,0,0.1,0,0.2,0l2.2,0c0.5,0,1,0,1.1,0l1.8-0.2c0.3,0,1.6,0,1.9,0l2.2,0.2 c0.1,0,0.5,0,0.9,0h2.3c0.1,0,0.2,0,0.2,0l2.9,0c0.1,0,0.2,0,0.3,0l3.1,0l3.1,0c0.1,0,0.1,0,0.2,0l2.8,0c0.2,0,0.4,0,0.6,0l2.8,0 h0.1l3.1,0l3.1,0c0.1,0,0.1,0,0.2,0l2.9,0c0.1,0,0.3,0,0.4,0l2.9,0c0.1,0,0.1,0,0.2,0l4,0c0.6,0,1.1,0,1.3,0l0.9,0.1 C210.8,88.9,211,88.9,211.4,88.9z; M211.4,83.5l1.8,0.4c0.5,0.1,0.8,0.5,0.8,1V89H54v-9.6c0-0.7,0.8-1.2,1.4-0.9l1.3,0.6c0.5,0.2,1.1,0,1.3-0.4 l2.6-4.8c0.1-0.2,0.3-0.4,0.5-0.4l2.7-1.1c0.1,0,0.2-0.1,0.4-0.1l3-0.1l2.7,0.1c0.3,0,0.6-0.1,0.8-0.4l2.6-3.5 c0.2-0.3,0.5-0.4,0.8-0.4l2.7,0.1H80l2.6,0.1c0.4,0,0.7-0.2,0.9-0.5l2.7-5c0.1-0.2,0.2-0.3,0.4-0.4l2.7-1.4 c0.2-0.1,0.3-0.2,0.4-0.4l1.6-2.9c0.5-0.8,1.7-0.6,1.9,0.3l2.6,15.2c0.1,0.4,0.3,0.7,0.7,0.8l2.5,0.9c0.1,0,0.2,0.1,0.3,0.2 l2.2,1.7c0.5,0.4,1.1,0.3,1.5-0.2l2-3.1c0.3-0.5,1.1-0.6,1.5-0.2l0.4,0.4c0.5,0.5,1.4,0.3,1.7-0.4l1.7-5.8c0.3-0.8,1.4-1,1.8-0.2 l2.6,4.7c0.1,0.2,0.3,0.3,0.5,0.4l2.6,1.2c0.2,0.1,0.4,0.3,0.5,0.5l2.9,6.4c0.2,0.4,0.6,0.6,1,0.6l1.8-0.3 c0.4-0.1,0.7-0.3,0.8-0.7l3-11.4l1.9-4.4c0.4-0.9,1.7-0.8,1.9,0.2l2.4,14.4c0.1,0.7,0.9,1.1,1.5,0.7l1.6-1 c0.2-0.1,0.4-0.2,0.7-0.1l2.8,0.4l3.2,0.2l3,0.1c0.2,0,0.3,0,0.5-0.1l2.5-1.2c0.3-0.2,0.7-0.1,1,0.1l2.6,1.7 c0.1,0.1,0.2,0.1,0.3,0.1l2.8,0.7c0.2,0,0.4,0,0.5,0l2.8-0.9c0.1,0,0.2,0,0.2,0l3-0.1c0.1,0,0.1,0,0.2,0l2.2,0.4 c0.5,0.1,1-0.2,1.1-0.7l1.8-6.9c0.3-1,1.6-1,1.9,0l2.2,7.5c0.1,0.4,0.5,0.7,0.9,0.7h2.3c0.1,0,0.2,0,0.2,0l2.9-0.7 c0.1,0,0.2,0,0.3,0l3.1,0.1l3.1-0.2c0.1,0,0.1,0,0.2,0l2.8-0.8c0.2-0.1,0.4-0.1,0.6,0l2.8,1.1h0.1l3.1,0.7l3.1,0.6 c0.1,0,0.1,0,0.2,0l2.9-0.1c0.1,0,0.3,0,0.4-0.1l2.9-1.5c0.1,0,0.1,0,0.2-0.1l4-1.2c0.6-0.2,1.1,0.2,1.3,0.8l0.9,4.1 C210.8,83.1,211,83.4,211.4,83.5z; "/> </path> <path class="chart_small" d="M223,79l2.6,1.1l2.5,1.3c0.1,0,0.2,0.1,0.3,0.1l2.2,0.3c0.2,0,0.3,0,0.5,0l1.8-0.6c0.4-0.1,0.8,0,1,0.3l1.9,2 c0.2,0.2,0.5,0.3,0.8,0.3l2-0.1c0.1,0,0.2,0,0.4,0l1.9,0.6c0.4,0.1,0.6,0.4,0.7,0.8l1.7,9c0.2,1,1.7,1.1,1.9,0.1l1.4-4.7 c0.1-0.3,0.3-0.5,0.5-0.6L249,88c0.2-0.1,0.3-0.2,0.4-0.4l2.2-3.5c0.2-0.3,0.5-0.5,0.9-0.5l2.1,0.1h2.6l2.1,0.1 c0.3,0,0.6-0.1,0.8-0.4l2-2.5c0.2-0.2,0.5-0.4,0.8-0.4l2.1,0.1l2.5-0.1c0.1,0,0.2,0,0.3-0.1l2.2-0.8c0.2-0.1,0.4-0.1,0.6,0 l2.3,0.5c0.1,0,0.1,0,0.2,0.1l2.8,1.2"/> <path class="chart_small" d="M223,107l2.6-0.3l2.6-0.4l2.6-0.1c0.1,0,0.1,0,0.2,0l2.3,0.2c0.1,0,0.3,0,0.4,0l2.3-0.7 c0.1,0,0.2-0.1,0.3-0.1l2.5,0.1l2.1-0.2c0.3,0,0.6-0.2,0.8-0.5l1.7-2.7c0.3-0.6,1.1-0.6,1.6-0.2l1.5,1.6c0.2,0.2,0.4,0.3,0.6,0.3 l2.1,0.3c0.1,0,0.2,0.1,0.3,0.1l2.3,1.2c0.1,0.1,0.3,0.1,0.5,0.1h2.4h2.6h2.4c0.1,0,0.3,0,0.4,0.1l2.3,0.9c0.1,0,0.2,0.1,0.4,0.1 h2.4h2.6l2.5,0.3c0.1,0,0.1,0,0.2,0l2.5-0.2l2.9-0.4"/> <path class="chart_small" d="M223,120l2.6,0.1l2.6,0.1h2.6h2.6l2.6,0.1h2.6h2.5c0.1,0,0.2,0,0.2,0l2.3,0.6c0.1,0,0.3,0,0.4,0l2.3-0.4	c0.1,0,0.1,0,0.2,0l2.6-0.1l2.6-0.2h2.6h2.6h2.6l2.6-0.2h2.6h2.6l2.6-0.1h2.6l2.9,0.1"/> <g id="line_a" class="line_a"> <path class="st1" d="M66,110.5c0-0.3,0.2-0.5,0.5-0.5h40c0.3,0,0.5,0.2,0.5,0.5s-0.2,0.5-0.5,0.5h-40C66.2,111,66,110.8,66,110.5z"/> <path class="st1" d="M66,122.5c0-0.3,0.2-0.5,0.5-0.5h45c0.3,0,0.5,0.2,0.5,0.5s-0.2,0.5-0.5,0.5h-45C66.2,123,66,122.8,66,122.5z"/> <path class="st1" d="M66,134.5c0-0.3,0.2-0.5,0.5-0.5h48c0.3,0,0.5,0.2,0.5,0.5s-0.2,0.5-0.5,0.5h-48C66.2,135,66,134.8,66,134.5z"/> <path class="st1" d="M66,166.5c0-0.3,0.2-0.5,0.5-0.5h50c0.3,0,0.5,0.2,0.5,0.5s-0.2,0.5-0.5,0.5h-50C66.2,167,66,166.8,66,166.5z"/> </g> <g id="line_b" class="line_b"> <path class="st1" d="M66,116.5c0-0.3,0.2-0.5,0.5-0.5h50c0.3,0,0.5,0.2,0.5,0.5s-0.2,0.5-0.5,0.5h-50C66.2,117,66,116.8,66,116.5z"/> <path class="st1" d="M66,128.5c0-0.3,0.2-0.5,0.5-0.5h36c0.3,0,0.5,0.2,0.5,0.5s-0.2,0.5-0.5,0.5h-36C66.2,129,66,128.8,66,128.5z"/> <path class="st1" d="M66,160.5c0-0.3,0.2-0.5,0.5-0.5h40c0.3,0,0.5,0.2,0.5,0.5s-0.2,0.5-0.5,0.5h-40C66.2,161,66,160.8,66,160.5z"/> <path class="st1" d="M66,172.5c0-0.3,0.2-0.5,0.5-0.5h45c0.3,0,0.5,0.2,0.5,0.5s-0.2,0.5-0.5,0.5h-45C66.2,173,66,172.8,66,172.5z"/> </g> </svg>
