<svg width="290" height="195" fill="none" xmlns="http://www.w3.org/2000/svg"><rect x="223" y="40" width="21" height="2" rx="1" fill="#C1B2DD"/><path d="M0 1h42v193H0V1z" fill="#3E2C73"/><path d="M43 .702L286.991.01a3 3 0 013.009 3v29.289L43 33V.702z" fill="#C1B2DD"/><path d="M223.077 136.467c0-.81.657-1.467 1.467-1.467h14.892v2.933h-14.892c-.81 0-1.467-.656-1.467-1.466z" fill="#3E2C73"/><path fill="#C1B2DD" d="M252.077 135h-12.641v2.933h12.641z"/><path fill="#EDE7F5" d="M252.077 135h5.949v2.933h-5.949z"/><path d="M223.077 146.733c0-.81.657-1.466 1.467-1.466h24.559v2.933h-24.559c-.81 0-1.467-.657-1.467-1.467z" fill="#3E2C73"/><path fill="#C1B2DD" d="M262.487 145.267h-13.385v2.933h13.385z"/><path fill="#EDE7F5" d="M262.487 145.267h5.205v2.933h-5.205z"/><path d="M223.077 157c0-.81.657-1.467 1.467-1.467h24.559v2.934h-24.559c-.81 0-1.467-.657-1.467-1.467z" fill="#3E2C73"/><path fill="#C1B2DD" d="M255.795 155.533h-6.692v2.933h6.692z"/><path fill="#EDE7F5" d="M255.795 155.533h6.692v2.933h-6.692z"/><path d="M54.375 45c0 .345.28.625.625.625h158c.345 0 .625-.28.625-.625v-4a.625.625 0 00-.625-.625H55a.625.625 0 00-.625.625v4z" stroke="#3E2C73" stroke-width=".75"/><path d="M211.424 83.473l1.806.427a1 1 0 01.77.973V89H54v-9.594a1 1 0 011.424-.905l1.26.59a1 1 0 001.305-.431l2.607-4.84a1 1 0 01.489-.445l2.701-1.15c.112-.047.232-.074.354-.079l3.009-.113 2.66.1a1 1 0 00.846-.41l2.566-3.518a1 1 0 01.846-.41l2.66.1 3.194.03 2.57.122a1 1 0 00.924-.516l2.744-4.984a1 1 0 01.421-.408l2.65-1.354a1 1 0 00.418-.402l1.638-2.923c.46-.822 1.698-.61 1.858.319l2.613 15.154a1 1 0 00.656.774l2.478.867c.105.037.204.091.292.16l2.199 1.748a1 1 0 001.461-.238l1.988-3.06a1 1 0 011.542-.166l.443.44a1 1 0 001.662-.424l1.729-5.77c.254-.847 1.401-.972 1.831-.2l2.611 4.685a.999.999 0 00.453.42l2.564 1.189c.216.1.389.273.488.49l2.936 6.386a1 1 0 001.049.573l1.799-.256c.398-.056.724-.345.827-.734l3.023-11.408 1.851-4.376c.39-.923 1.743-.763 1.907.225l2.388 14.363a1 1 0 001.498.695l1.632-.972a1 1 0 01.652-.131l2.844.403 3.193.242 2.955.056a1 1 0 00.453-.1l2.47-1.19a1 1 0 01.981.062l2.578 1.683a.998.998 0 00.307.133l2.762.68c.174.042.357.037.529-.014l2.812-.852a.99.99 0 01.242-.041l2.966-.14a.993.993 0 01.206.011l2.196.353a1 1 0 001.126-.731l1.822-6.89c.259-.979 1.642-.997 1.927-.025l2.199 7.508a1 1 0 00.941.719l2.337.044a.998.998 0 00.24-.025l2.947-.669a.994.994 0 01.259-.024l3.062.116 3.083-.233c.073-.006.145-.02.215-.04l2.762-.836c.211-.064.437-.057.644.021l2.806 1.062c.046.017.093.031.141.042l3.121.679 3.082.553a.997.997 0 00.224.015l2.868-.135a1 1 0 00.401-.105l2.926-1.467a.993.993 0 01.162-.064l4.029-1.204a1 1 0 011.265.75l.877 4.147a1 1 0 00.748.766z" fill="#E1567C"/><path d="M223 79l2.636 1.09 2.492 1.263c.095.048.197.08.302.096l2.241.34a1 1 0 00.463-.038l1.809-.596a1 1 0 011.036.26l1.876 1.963a1 1 0 00.79.307l1.982-.134c.123-.008.247.007.366.043l1.886.59c.351.11.614.403.684.764l1.731 8.96c.2 1.031 1.653 1.096 1.943.086l1.357-4.718c.08-.28.28-.512.546-.633l1.94-.885c.18-.082.332-.216.436-.384l2.168-3.515a1 1 0 01.894-.474l2.05.087 2.635.022 2.141.072a1 1 0 00.808-.366l2.009-2.46c.198-.241.497-.377.809-.366l2.14.072 2.47-.083a.997.997 0 00.321-.065l2.198-.835a.999.999 0 01.577-.04l2.257.514c.056.013.111.03.164.053L276 81.178M223 107l2.636-.344 2.635-.422 2.56-.123a.95.95 0 01.151.005l2.347.244a.999.999 0 00.417-.046l2.269-.749c.108-.036.221-.053.335-.051l2.464.053 2.14-.211a.999.999 0 00.755-.474l1.681-2.746a1 1 0 011.592-.151l1.497 1.644a.997.997 0 00.597.317l2.116.304c.109.016.215.05.313.1l2.266 1.16c.145.074.306.112.469.11l2.388-.032 2.635-.007 2.444-.026a.98.98 0 01.371.067l2.278.88a.98.98 0 00.371.067l2.443-.026 2.636.028 2.54.305c.064.008.128.009.191.005l2.54-.183 2.923-.386M223 120l2.636.057 2.635.071 2.636.021 2.636-.046 2.635.145 2.636-.009 2.51.041c.083.002.166.013.246.035l2.296.625a.99.99 0 00.443.019l2.334-.427a.917.917 0 01.156-.016l2.557-.062 2.636-.224 2.636.005 2.635.002 2.636.004 2.636-.17 2.635.005 2.636-.005 2.636-.052 2.635.031 2.923.065" stroke="#E1567C" stroke-width=".75" stroke-miterlimit="10" stroke-linecap="round" stroke-linejoin="bevel"/><path d="M53 98a2 2 0 012-2h156a2 2 0 012 2v6H53v-6z" fill="#C1B2DD"/><path d="M54 13a1 1 0 011-1h16a1 1 0 110 2H55a1 1 0 01-1-1zM78 13a1 1 0 011-1h16a1 1 0 110 2H79a1 1 0 01-1-1z" fill="#5A4A79"/><path d="M17 24.5a.5.5 0 01.5-.5h18a.5.5 0 010 1h-18a.5.5 0 01-.5-.5zM17 13a1 1 0 011-1h17a1 1 0 110 2H18a1 1 0 01-1-1zM17 30.5a.5.5 0 01.5-.5h18a.5.5 0 010 1h-18a.5.5 0 01-.5-.5zM17 36.5a.5.5 0 01.5-.5h18a.5.5 0 010 1h-18a.5.5 0 01-.5-.5zM17 42.5a.5.5 0 01.5-.5h18a.5.5 0 010 1h-18a.5.5 0 01-.5-.5zM17 48.5a.5.5 0 01.5-.5h18a.5.5 0 010 1h-18a.5.5 0 01-.5-.5zM17 54.5a.5.5 0 01.5-.5h18a.5.5 0 010 1h-18a.5.5 0 01-.5-.5zM17 64.5a.5.5 0 01.5-.5h18a.5.5 0 010 1h-18a.5.5 0 01-.5-.5zM17 70.5a.5.5 0 01.5-.5h18a.5.5 0 010 1h-18a.5.5 0 01-.5-.5zM17 76.5a.5.5 0 01.5-.5h18a.5.5 0 010 1h-18a.5.5 0 01-.5-.5zM17 87.5a.5.5 0 01.5-.5h18a.5.5 0 010 1h-18a.5.5 0 01-.5-.5z" fill="#C1B2DD"/><path d="M66 110.5a.5.5 0 01.5-.5h40a.5.5 0 010 1h-40a.5.5 0 01-.5-.5zM66 116.5a.5.5 0 01.5-.5h50a.5.5 0 010 1h-50a.5.5 0 01-.5-.5zM66 122.5a.5.5 0 01.5-.5h45a.5.5 0 010 1h-45a.5.5 0 01-.5-.5zM66 128.5a.5.5 0 01.5-.5h36a.5.5 0 010 1h-36a.5.5 0 01-.5-.5zM66 134.5a.5.5 0 01.5-.5h48a.5.5 0 010 1h-48a.5.5 0 01-.5-.5z" fill="#3E2C73"/><path d="M62 110.5a.5.5 0 00-.5-.5h-1a.5.5 0 000 1h1a.5.5 0 00.5-.5zM62 116.5a.5.5 0 00-.5-.5h-1a.5.5 0 000 1h1a.5.5 0 00.5-.5zM62 122.5a.5.5 0 00-.5-.5h-1a.5.5 0 000 1h1a.5.5 0 00.5-.5zM62 128.5a.5.5 0 00-.5-.5h-1a.5.5 0 000 1h1a.5.5 0 00.5-.5zM62 134.5a.5.5 0 00-.5-.5h-1a.5.5 0 000 1h1a.5.5 0 00.5-.5z" fill="#FF7738"/><path d="M126 110.5a.5.5 0 01.5-.5h9a.5.5 0 010 1h-9a.5.5 0 01-.5-.5zM126 116.5a.5.5 0 01.5-.5h9a.5.5 0 010 1h-9a.5.5 0 01-.5-.5zM126 122.5a.5.5 0 01.5-.5h9a.5.5 0 010 1h-9a.5.5 0 01-.5-.5zM126 128.5a.5.5 0 01.5-.5h9a.5.5 0 010 1h-9a.5.5 0 01-.5-.5zM126 134.5a.5.5 0 01.5-.5h9a.5.5 0 010 1h-9a.5.5 0 01-.5-.5zM144 110.5a.5.5 0 01.5-.5h9a.5.5 0 010 1h-9a.5.5 0 01-.5-.5zM144 116.5a.5.5 0 01.5-.5h9a.5.5 0 010 1h-9a.5.5 0 01-.5-.5zM144 122.5a.5.5 0 01.5-.5h9a.5.5 0 010 1h-9a.5.5 0 01-.5-.5zM144 128.5a.5.5 0 01.5-.5h9a.5.5 0 010 1h-9a.5.5 0 01-.5-.5zM144 134.5a.5.5 0 01.5-.5h9a.5.5 0 010 1h-9a.5.5 0 01-.5-.5zM162 110.5a.5.5 0 01.5-.5h9a.5.5 0 010 1h-9a.5.5 0 01-.5-.5zM162 116.5a.5.5 0 01.5-.5h9a.5.5 0 010 1h-9a.5.5 0 01-.5-.5zM162 122.5a.5.5 0 01.5-.5h9a.5.5 0 010 1h-9a.5.5 0 01-.5-.5zM162 128.5a.5.5 0 01.5-.5h9a.5.5 0 010 1h-9a.5.5 0 01-.5-.5zM162 134.5a.5.5 0 01.5-.5h9a.5.5 0 010 1h-9a.5.5 0 01-.5-.5zM180 110.5a.5.5 0 01.5-.5h9a.5.5 0 010 1h-9a.5.5 0 01-.5-.5zM180 116.5a.5.5 0 01.5-.5h9a.5.5 0 010 1h-9a.5.5 0 01-.5-.5zM180 122.5a.5.5 0 01.5-.5h9a.5.5 0 010 1h-9a.5.5 0 01-.5-.5zM180 128.5a.5.5 0 01.5-.5h9a.5.5 0 010 1h-9a.5.5 0 01-.5-.5zM180 134.5a.5.5 0 01.5-.5h9a.5.5 0 010 1h-9a.5.5 0 01-.5-.5zM198 110.5a.5.5 0 01.5-.5h8a.5.5 0 010 1h-8a.5.5 0 01-.5-.5zM198 116.5a.5.5 0 01.5-.5h8a.5.5 0 010 1h-8a.5.5 0 01-.5-.5zM198 122.5a.5.5 0 01.5-.5h8a.5.5 0 010 1h-8a.5.5 0 01-.5-.5zM198 128.5a.5.5 0 01.5-.5h8a.5.5 0 010 1h-8a.5.5 0 01-.5-.5zM198 134.5a.5.5 0 01.5-.5h8a.5.5 0 010 1h-8a.5.5 0 01-.5-.5z" fill="#3E2C73"/><path d="M13 24.5a.5.5 0 00-.5-.5h-2a.5.5 0 000 1h2a.5.5 0 00.5-.5zM13 30.5a.5.5 0 00-.5-.5h-2a.5.5 0 000 1h2a.5.5 0 00.5-.5zM13 36.5a.5.5 0 00-.5-.5h-2a.5.5 0 000 1h2a.5.5 0 00.5-.5zM13 42.5a.5.5 0 00-.5-.5h-2a.5.5 0 000 1h2a.5.5 0 00.5-.5zM13 48.5a.5.5 0 00-.5-.5h-2a.5.5 0 000 1h2a.5.5 0 00.5-.5zM13 54.5a.5.5 0 00-.5-.5h-2a.5.5 0 000 1h2a.5.5 0 00.5-.5zM13 64.5a.5.5 0 00-.5-.5h-2a.5.5 0 000 1h2a.5.5 0 00.5-.5zM13 70.5a.5.5 0 00-.5-.5h-2a.5.5 0 000 1h2a.5.5 0 00.5-.5zM13 76.5a.5.5 0 00-.5-.5h-2a.5.5 0 000 1h2a.5.5 0 00.5-.5zM13 87.5a.5.5 0 00-.5-.5h-2a.5.5 0 000 1h2a.5.5 0 00.5-.5z" fill="#C1B2DD"/><rect x="8" y="10" width="6" height="6" rx="1" fill="#fff"/><rect x="54" y="24" width="65" height="3" rx="1.5" fill="#5A4A79"/><rect x="223" y="45" width="21" height="3" rx="1.5" fill="#3E2C73"/><rect x="223" y="57" width="21" height="2" rx="1" fill="#C1B2DD"/><rect x="223" y="62" width="21" height="3" rx="1.5" fill="#3E2C73"/><rect x="255" y="40" width="21" height="2" rx="1" fill="#C1B2DD"/><rect x="255" y="45" width="21" height="3" rx="1.5" fill="#3E2C73"/><rect x="255" y="57" width="21" height="2" rx="1" fill="#C1B2DD"/><rect x="255" y="62" width="21" height="3" rx="1.5" fill="#3E2C73"/><rect x="265" y="12" width="10" height="8" rx="1" fill="#fff"/><path d="M271.118 17.907a.183.183 0 01-.088-.022l-1.03-.54-1.03.54a.193.193 0 01-.197 0 .191.191 0 01-.075-.185l.197-1.148-.835-.825a.185.185 0 01-.047-.192.187.187 0 01.152-.127l1.153-.158.515-1.053a.192.192 0 01.263-.07c.03.018.054.041.072.07l.515 1.053 1.152.168a.187.187 0 01.105.32l-.835.812.198 1.148a.192.192 0 01-.075.184.198.198 0 01-.11.025z" fill="#3E2C73"/><path d="M3.703 189.422L3 2l282.029 2.442L289 194 3.703 189.422z" stroke="#3E2C73" stroke-width=".75"/><path d="M287 191.789V2H1.714L1 192l286-.211z" stroke="#FF7738" stroke-width="1.5"/><path d="M54.375 99c0-.897.727-1.625 1.625-1.625h156c.897 0 1.625.728 1.625 1.625v40c0 .897-.728 1.625-1.625 1.625H56A1.625 1.625 0 0154.375 139V99z" stroke="#3E2C73" stroke-width=".75"/><path d="M53 148a2 2 0 012-2h156a2 2 0 012 2v6H53v-6z" fill="#C1B2DD"/><path d="M66 160.5a.5.5 0 01.5-.5h40a.5.5 0 010 1h-40a.5.5 0 01-.5-.5zM66 166.5a.5.5 0 01.5-.5h50a.5.5 0 010 1h-50a.5.5 0 01-.5-.5zM66 172.5a.5.5 0 01.5-.5h45a.5.5 0 010 1h-45a.5.5 0 01-.5-.5z" fill="#3E2C73"/><path d="M62 160.5a.5.5 0 00-.5-.5h-1a.5.5 0 000 1h1a.5.5 0 00.5-.5zM62 166.5a.5.5 0 00-.5-.5h-1a.5.5 0 000 1h1a.5.5 0 00.5-.5zM62 172.5a.5.5 0 00-.5-.5h-1a.5.5 0 000 1h1a.5.5 0 00.5-.5z" fill="#FF7738"/><path d="M126 160.5a.5.5 0 01.5-.5h9a.5.5 0 010 1h-9a.5.5 0 01-.5-.5zM126 166.5a.5.5 0 01.5-.5h9a.5.5 0 010 1h-9a.5.5 0 01-.5-.5zM126 172.5a.5.5 0 01.5-.5h9a.5.5 0 010 1h-9a.5.5 0 01-.5-.5zM144 160.5a.5.5 0 01.5-.5h9a.5.5 0 010 1h-9a.5.5 0 01-.5-.5zM144 166.5a.5.5 0 01.5-.5h9a.5.5 0 010 1h-9a.5.5 0 01-.5-.5zM144 172.5a.5.5 0 01.5-.5h9a.5.5 0 010 1h-9a.5.5 0 01-.5-.5zM162 160.5a.5.5 0 01.5-.5h9a.5.5 0 010 1h-9a.5.5 0 01-.5-.5zM162 166.5a.5.5 0 01.5-.5h9a.5.5 0 010 1h-9a.5.5 0 01-.5-.5zM162 172.5a.5.5 0 01.5-.5h9a.5.5 0 010 1h-9a.5.5 0 01-.5-.5zM180 160.5a.5.5 0 01.5-.5h9a.5.5 0 010 1h-9a.5.5 0 01-.5-.5zM180 166.5a.5.5 0 01.5-.5h9a.5.5 0 010 1h-9a.5.5 0 01-.5-.5zM180 172.5a.5.5 0 01.5-.5h9a.5.5 0 010 1h-9a.5.5 0 01-.5-.5zM198 160.5a.5.5 0 01.5-.5h8a.5.5 0 010 1h-8a.5.5 0 01-.5-.5zM198 166.5a.5.5 0 01.5-.5h8a.5.5 0 010 1h-8a.5.5 0 01-.5-.5zM198 172.5a.5.5 0 01.5-.5h8a.5.5 0 010 1h-8a.5.5 0 01-.5-.5z" fill="#3E2C73"/><path d="M54.375 149c0-.897.727-1.625 1.625-1.625h156c.897 0 1.625.728 1.625 1.625v29c0 .897-.728 1.625-1.625 1.625H56A1.625 1.625 0 0154.375 178v-29z" stroke="#3E2C73" stroke-width=".75"/><rect x="223.452" y="135.375" width="52.045" height="2.183" rx="1.092" stroke="#3E2C73" stroke-width=".75"/><rect x="223.452" y="145.642" width="52.045" height="2.183" rx="1.092" stroke="#3E2C73" stroke-width=".75"/><rect x="223.452" y="155.908" width="52.045" height="2.183" rx="1.092" stroke="#3E2C73" stroke-width=".75"/></svg>