<svg viewBox="0 0 285.02 148.24" xmlns="http://www.w3.org/2000/svg"><path d="M124.09 53.33c-15.66-6.67-21-5.13-23.88-6.67-5.65-3.09 2.83-5.39 14.63-5.39s25.67.77 39.79.25 25.41 1.54 25.93 6.93c.68 7.18-40.82 11.55-56.47 4.88z" fill="#ece7f4"/><path d="M284.42 74.09c-1.8-3.34-13.09-1.54-13.09-1.54-11.55 1-34.14-9-64.95-11.81S135 73 101.63 61.35c-22.87-8-52.56-9.82-74.31-4.62-15.58 3.72-15.08 14-13.58 17.33 7 15.54 35.17 16.21 58.72 15.25-4.23-2.58-11-8-9.14-15.64 2.63-10.91 23.29-10.2 36.77-4.23 4.39 1.94 13.58 7.58 16.17 14.44 1.67 4.42 1.22 16.73-6.55 24.25-8.5 8.22-24.93 11.56-36.87 13.57-14.87 2.51-37.06-6.39-46.78-6.54-5.2-.08-4.37 4.31-4.23 6.93.54 10.51 21.56 16.17 51.34 12.58s33.62 1.28 70.58 10.52 59.81-4.88 85.74-11.55 24.9-9.58 29.52-22.72c2.5-7.12-8-10.38-20.41-12.32-21.85-3.42-47.65 14.54-67.28 4.14-7.79-4.12-9.63-29.26 15.4-32.34 16.65-2.05 54.28 15.75 74.08 18.32s25.41-11.29 23.62-14.63z" fill="#ece7f4"/><path d="M174.33 70a1.42 1.42 0 01-2-1.54 1.53 1.53 0 112 1.54z" fill="#c8c1db"/><path d="M167.79 67.29c1.09-.84 2 .25 2.15.77a1.5 1.5 0 01-2.76 1.15 1.81 1.81 0 01.61-1.92z" fill="#f4824e"/><path d="M63.7 89.71c-.29-.32-2.23-3.22-4-5.91l-1.09.65a21.23 21.23 0 00-2-3.51l.65-.87-.52-.82c-.9-1.41-1.42-2-2-1.28s-8 10.53-8.47 11.62a1.42 1.42 0 001 2c.58 0 14.76.13 16 .13s.94-1.43.43-2.01z" fill="#c8c1db"/><path d="M82.73 76.82l1.15 1.73 5.81-1.09-1.67-.45.29-1.35z" fill="#f4824e"/><path d="M58.5 28.43l-1.63-1.83 4.62-4.42 5.39 1.25-.2-5.49 2.51.1-.1 7.02 4.14.1-.87 3.27-5.58-.38-.19-1.83-5.01-.68zM56.7 47.94l-1.08-20.28-1.83.29v20.21zM49.94 50.76l10.01-.19v2.21l-9.92.39zM44.64 60.87l-.38 3.08 20.6-.19-.49-3.18zM5.18 88.21l9.24-.1.19-5.77 3 .09 2.51 13 13.38 4.42 42.16.39v3.56l16 .1s-6.44 8.56-16.26 8.56H32.13L17.21 101.3l.09-6.84-5 5.68-7.12-.09zM80.32 89.59l3.79-10 3.78-.65s5.59 9 5.87 9.44.39.86-.28 1-12.23 1.5-12.48 1.55c-1 .16-1-.57-.68-1.34zM132.49 83.3l-2.69 6.22 5.13.52.32-3.66.58-.26.58 1.6h1.54l-.9-3.52-.71-.07 10.14-9.56 13.22 7.76.32-1.41-13.6-9.04zM133.68 99.95l.38-1.92 2.51.09 19.44 9.72 17.71-7.41 3.56-.1-21.56 9.92z" fill="#c8c1db"/><path d="M141.28 116.03l3.18-2.22 27.63-.19 12.89-13.09h3.85l-15.88 15.5zM213.57 85.42l16.65-3.57 5.39-14.34-1.44-3.08h7.61l-.39 4.14-3.47-.1-6.25 15.69-18.77 2.99z" fill="#c8c1db"/><path d="M203.14 52.94h62.51s4.87-39.14 4.87-40.55 6.81-3.72 8-4.36 1.16-3.21 1.28-4.5S279.79 2 277.2 2c-3.21 0-8.6 0-11 1-1 .43-3.21 9.37-4.24 13.09s-3.85 18.1-5.51 20.66c-1.46 2.25-4.11 3-9.89 2.09s-13.6-3.5-22.71-1.32c-11.06 2.66-15.19 7.08-20.71 15.42zM112.66 92.6l5.2-.06 12.39 3.66 6.86-.39.13 1.28a51.15 51.15 0 00-6 .2c-.9.25 1 3.72 1 3.72a73.66 73.66 0 00-9.05.13 56 56 0 00-9.18 2.31 33 33 0 01-1-5.33c-.28-2.69-.35-5.52-.35-5.52zM118.05 120.65l8.79 8.27 14.51-9.69a14.27 14.27 0 01-1-2.82c-.19-1.09 3.21-3.66 3.21-3.66l-.83-1.15-3.28 3.53z" fill="#f4824e"/><path d="M277.78.58a57.12 57.12 0 00-6.1 0c-1.67.13-2.57.9-5 5.9s-6.54 22.46-8.47 26.44-8.47 5.14-13.86 3.73S218.93 31 206.48 51h61.35s4.36-37.73 4.75-39.66 1.41-2.95 3.33-4 4.37-1.54 5-2.18.64-2.57.64-3.72c0-.35-.75-.58-1.84-.73M236.76 65.68l-.25 7.16h3.34V67.9M239.85 61.35V51.02h-2.57l-.43 12.09" fill="none" stroke="#3f2b56" stroke-linecap="round" stroke-linejoin="round"/><path d="M238.18 61.35h3.14v1.99h-3.14zM241.32 63.34h.9v2.05h-4.27v-2.05zM238.18 65.39h3.14v1.95h-3.14zM235.1 64.17l1.66 1.51 1.19-1.41-2.34-2.47-2.92 2.44 1.77 2.82-4.78 13.54-16.13 4.04" fill="none" stroke="#3f2b56" stroke-linecap="round" stroke-linejoin="round"/><path d="M212.93 86.17l18.06-3.23 5.66-13.92" fill="none" stroke="#3f2b56" stroke-linecap="round" stroke-linejoin="round"/><path d="M164.58 66.55c.19-.58.48-1.73 1.83-1.73h52.74c1.35 0 2 .56 1.4 2.18s-12 30-12.38 31a2.77 2.77 0 01-2.68 2h-48.23a1.72 1.72 0 01-1.73-2.41c.47-1.59 8.85-30.46 9.05-31.04zM145 112.17l25.89.58 15-12.7h2.14l-15.43 14.53-30.13 1s-.91-.38-.24-1.54a5.92 5.92 0 012.77-1.87z" fill="none" stroke="#3f2b56" stroke-linecap="round" stroke-linejoin="round"/><path d="M141.24 117.18l-13.91 9.58-8.72-8 20.8-4.86a27 27 0 013.65-3.9l2 2.21M132.76 99.63c-2.38.05-8.75.19-10.73.42a41.49 41.49 0 00-7.17 2.11s-1.35-6.69-.91-10.73c0 0 5.43-.1 6.4 0s11.93 4.24 11.93 4.24l5.59-.87.67 2.5 18.1 9.15 16.5-6.4" fill="none" stroke="#3f2b56" stroke-linecap="round" stroke-linejoin="round"/><path d="M175.84 100.05L156 108.9s-22.14-10-23-10.49-.68-1.3.33-1.44a42.46 42.46 0 015.25.33" fill="none" stroke="#3f2b56" stroke-linecap="round" stroke-linejoin="round"/><path d="M219.15 64.82h-52.74c-1.35 0-1.64 1.15-1.83 1.73-.05.15-.64 2.16-1.49 5.08l55.5.36c1.07-2.69 1.82-4.6 2-5 .54-1.61-.09-2.17-1.44-2.17zm-48.94 3.87a1.67 1.67 0 01-1.59 1.07 1.21 1.21 0 01-1.06-1.22 1.64 1.64 0 011.78-1.61c.97.07 1.09 1.26.87 1.76zm5.44-.18a1.56 1.56 0 01-1.9 1 1.26 1.26 0 01-.73-1.47 1.59 1.59 0 011.73-1.25c.74.14 1.09.85.9 1.72zm5.36.1a1.41 1.41 0 01-1.65 1 1.21 1.21 0 01-.9-1.45 1.51 1.51 0 011.7-1.3 1.21 1.21 0 01.84 1.75z" fill="#3f2b56"/><path d="M168.59 67.7l.74 1.22M168.3 68.92l1.41-1.22M173.66 68.22H175M179.91 67.48l-.25 1.44M178.98 68.12h1.58M167.91 74.63l-5.77 20.54h41.26M161.43 87.73l1.54-5.65M181 97.86l8.67.13M162.84 92.66h2.23M163.73 89.5h1.91M164.6 86.41h2.03M165.52 83.13h1.82M166.47 79.75h1.83M167.26 76.97H169" fill="none" stroke="#3f2b56" stroke-linecap="round" stroke-linejoin="round" stroke-width=".5"/><path d="M166.47 92.15l5.49-8.47 2.11 7.06 8.7-15.46v15.78l4.2-7.25.97 3.02 5.77-10.21.51 12.2 3.15-4.56.64 6.67 8.34-15.33.45 7.83-1.28-3.98-7.64 13.79-1.35-5.39-3.14 4.05-.45-12-5.33 9.3-.83-3.46-4.3 7.63-1.09-13.28-7.64 12.77-2.05-7.12z" fill="#f4824e"/><path d="M160.21 81.55l-13.83-8.33-10.49 9.91 1.54.22 1.06 3.06-1.25.93-1.35-2.44-1.3.76.72 4.95-1.53.34-.73-4.43-.62 4.48-1.64-.19.34-3.9-1.88 2.74-.96-.67 3.46-6.4 14.49-12.08 14.37 9.66" fill="none" stroke="#3f2b56" stroke-linecap="round" stroke-linejoin="round"/><path d="M119.46 114l-.16.05h-.07s.06 0 0 0h-.34a.73.73 0 01-.08-.09v-.07a.65.65 0 010-.13v-.22-.08a.25.25 0 010-.07s0-.1.07-.14v-.06l.11-.11.11-.06H119.51l.1.06.07.08.06.11V113.44s0-.06 0 0V113.65c0 .05 0-.07 0 0a.64.64 0 000 .07.14.14 0 000 .06s0 .1-.08.14v.06l-.13.12-.11.07a.26.26 0 00-.09.34.25.25 0 00.35.09 1.38 1.38 0 00.73-1.23 1.23 1.23 0 00-.63-1 1 1 0 00-.58-.11 1.16 1.16 0 00-.64.3 1.32 1.32 0 00-.36 1.44 1.17 1.17 0 00.52.62 1.09 1.09 0 00.9 0 .25.25 0 00.17-.31c-.06-.26-.2-.38-.33-.31zM121.89 109.71a1.39 1.39 0 01-.78-2.25 1.2 1.2 0 011.58-.06 1.44 1.44 0 01.51.7v.09s0 .07 0 0v.15a1 1 0 01-.06.33 1.27 1.27 0 01-1.29 1c-.32 0-.32.48 0 .5a1.74 1.74 0 001.7-1.15 1.71 1.71 0 00.13-.92 1.69 1.69 0 00-.54-1 1.75 1.75 0 00-2.18-.27 1.87 1.87 0 00.89 3.31.25.25 0 00.25-.25.26.26 0 00-.21-.18zM109.91 89.18l-.15.08c-.05 0 0 0 0 0h-.08s.07 0 0 0h-.13s.06 0 0 0h-.2l-.06-.06h-.05a.75.75 0 01-.24-.2v-.06-.14-.07c0-.01 0 0 0 0v-.19-.16a.71.71 0 01.08-.15c0-.05 0 0 0 0v-.06a.69.69 0 01.13-.11h.06a.42.42 0 01.12 0h.06a.24.24 0 01.12 0h.24l.09.06a.6.6 0 01.08.08v.1s0-.05 0 0a.14.14 0 000 .06V88.57s0 .1 0 0v.14a.3.3 0 010 .08v.06l-.13.14-.08.07a.25.25 0 00.25.43 1.67 1.67 0 00.57-.64 1.28 1.28 0 00.12-.72 1.21 1.21 0 00-.79-.93 1.17 1.17 0 00-1.27.38 1.27 1.27 0 00-.35.78 1.29 1.29 0 00.18.74 1.16 1.16 0 00.65.54 1 1 0 00.89-.15.26.26 0 00.09-.34.25.25 0 00-.2.03zM115.36 85.91h-.2c-.03 0 .07 0 0 0h-.25s0 .05 0 0a.41.41 0 010-.09v-.38a.14.14 0 010-.06l.06-.11v-.06c0-.06.07-.09.1-.09h.07l.11-.06s-.05 0 0 0H115.55l.09.05.06.08s0-.06 0 0v.3s0-.06 0 0a.19.19 0 010 .07.25.25 0 010 .07l-.08.13-.06.07-.13.13-.1.07a.25.25 0 10.25.43 1.42 1.42 0 00.75-1.23 1 1 0 00-.73-.9 1.21 1.21 0 00-1.24.54 1.25 1.25 0 000 1.24 1 1 0 00.51.45 1 1 0 00.76-.1.26.26 0 00.09-.35.25.25 0 00-.36-.2zM111.4 80.11a2.63 2.63 0 01-1-2 2.19 2.19 0 011.21-2 2.14 2.14 0 012.68.69 2.43 2.43 0 010 3.11 2.3 2.3 0 01-3 .15c-.25-.19-.5.24-.25.44a2.76 2.76 0 10.93-5.07 2.69 2.69 0 00-1.97 2.16 3.13 3.13 0 001.09 2.88c.21.2.57-.16.31-.36zM3.9 72.51a2 2 0 01-2.21 1A1.49 1.49 0 011 73a1.92 1.92 0 01-.5-1.18 2.14 2.14 0 01.36-1.3 2.29 2.29 0 011.14-.8 1.56 1.56 0 011.8.63 1.92 1.92 0 01.11 2.16c-.18.27.25.52.43.25a2.4 2.4 0 000-2.48 2.12 2.12 0 00-2.21-1.11A2.8 2.8 0 00.67 70 2.54 2.54 0 000 71.46a2.33 2.33 0 001.26 2.39 2.25 2.25 0 001.46.15 2.87 2.87 0 001.61-1.23c.19-.27-.24-.52-.43-.26zM5.24 65.11a.41.41 0 01-.11.07H4.49l-.11-.07a.34.34 0 01-.08-.09v-.11-.12c0-.02 0-.07 0 0v-.12c0-.05 0 0 0 0v-.12a.19.19 0 010-.07 1 1 0 01.08-.14h.06l.11-.34H5.13s.06 0 0 0h.07l.09.08v.26a.19.19 0 010 .07s0-.07 0 0v.15c0 .05 0 0 0 0v.07c0 .07 0 0 0 0v.07a.35.35 0 000 .08l-.07.06a.28.28 0 00-.09.35.27.27 0 00.35.09 1.22 1.22 0 00.52-.4 1.12 1.12 0 000-.7 1.06 1.06 0 00-.44-.54 1.33 1.33 0 00-.7-.18 1.44 1.44 0 00-.71.18 1.16 1.16 0 00-.47.6 1.08 1.08 0 00.42 1.23 1.3 1.3 0 001.45.08.27.27 0 00.08-.35.26.26 0 00-.39-.09zM13.84 65.47a.9.9 0 01-.37 0h-.28a.55.55 0 01-.24-.19l-.06-.06-.1-.17v-.09a1.06 1.06 0 010-.19v-.13a1.34 1.34 0 010-.2v-.18-.06l.09-.18.1-.14a1.32 1.32 0 01.7-.41h.56l.13.12v.06l.09.15a.3.3 0 000 .08.75.75 0 01.05.16v.08c0 .02 0 .1 0 0a1.09 1.09 0 010 .18 1.16 1.16 0 01-.19.67 1.36 1.36 0 01-.24.24 1.17 1.17 0 01-.41.19c-.31.09-.18.58.13.49a1.62 1.62 0 001.2-1.4 1.71 1.71 0 00-.47-1.49 1.44 1.44 0 00-1.79.19 1.69 1.69 0 00-.49 1.8 1.56 1.56 0 00.62.81A1.41 1.41 0 0014 66a.25.25 0 00-.16-.53zM11.08 61.36a3.6 3.6 0 01-2.86-2.21 2.58 2.58 0 01.73-3c2.15-1.63 5.67.2 5.45 2.92a2.56 2.56 0 01-.86 1.76 3.21 3.21 0 01-2.46.58c-.32 0-.32.46 0 .5a3.8 3.8 0 002.57-.53 2.93 2.93 0 001.13-1.62 3.66 3.66 0 00-1.47-3.91 4 4 0 00-4.18-.4 3 3 0 00-1.52 3.46 4.07 4.07 0 003.47 3c.32-.01.32-.51 0-.55zM36.61 80.49a.73.73 0 01-.26-1.36.68.68 0 011 .36.75.75 0 01-.74 1zM36.46 72.65c-.74.27-1.23-1-.43-1.36 1.04-.51 1.39 1 .43 1.36zM36.62 65.84c-.87.61-1.52-.6-.95-1.15.77-.69 1.79.56.95 1.15zM36.8 88a.78.78 0 01-.43-1.49c1.08-.36 1.4 1.19.43 1.49zM36.49 95.81a.65.65 0 01-.49-1.18c.83-.63 1.52.98.49 1.18zM36.75 102.48c-.66.45-1.4-.57-.68-1.11s1.4.63.68 1.11zM36.91 109a.64.64 0 01-.57-1.14.64.64 0 11.57 1.14zM74.18 108.53a.68.68 0 01-.86-1c.68-.73 1.58.52.86 1zM73.86 101.28a.63.63 0 11-.78-1 .63.63 0 11.78 1zM73.84 94.27c-.87.3-1.2-1-.65-1.35 1.03-.73 1.69 1 .65 1.35zM74 86.19a.7.7 0 01-.81-1.19.7.7 0 11.81 1.19zM74.35 78.81a.66.66 0 01-1-.88c.73-1.05 1.84.27 1 .88zM74.42 72.52a.72.72 0 11-.59-1.32.72.72 0 11.59 1.32zM74.8 65.78c-.79.62-1.47-.53-.85-1 .82-.69 1.67.36.85 1z" fill="#3f2b56"/><g stroke="#3f2b56" stroke-linecap="round" stroke-linejoin="round"><path d="M11.72 98.83H6.65V75.28h5.07l7.06 9.3v6.74zM11.72 75.28v23.55M84.05 64.37a18.28 18.28 0 00-6.42-1.61" fill="none"/><path d="M77.63 111V62.76H33.35L18.78 73v28.18L33.35 111h44.28s21.11-3 21.11-24c0-11.06-5.73-17.49-11.37-20.9M33.35 62.76v48.26" fill="none"/><path d="M78.81 102.26h12.71M81.94 65.63a21.55 21.55 0 0110.35 7.22l-1.45 1.21a28.44 28.44 0 00-9.48-6zM272.93 38.19a101 101 0 0111.84-.95M225.6 43a182.2 182.2 0 0036.77-3l2.51-.48M8.58 37.16s12.06-4.11 33.88 1.28 36.71 6.16 63.4.26 50.55-4.66 73.35-.26a264.4 264.4 0 0042.42 4.5M87.57 117.23a97 97 0 0119.57 2.27M12.72 118.65a54.52 54.52 0 0022.8 4.16c15-.33 30-5.13 48.11-5.48M7.81 116.16a21.83 21.83 0 002.6 1.5M233.85 126q2.07-.15 4.2-.24M212.84 128.92c5.92-1.14 11.89-2.14 18.15-2.73M101.51 124.08c1.17.17 2.37.37 3.58.61 21.75 4.23 30 12.83 58.78 11.81 17.29-.62 31.33-4 45.36-6.86M68.39 127.77s11.21-5.49 28.34-4.21M228.2 57.11c9.49.35 17.69-.11 23.2-1.21" fill="none" stroke-width=".5"/><path d="M108.29 44.62a106.41 106.41 0 0126.32-4.12c20-.26 37.22 7.44 59.55 12.32a199.07 199.07 0 0029.39 4.06M100.4 47.05c1.66-.57 3.61-1.2 5.79-1.84M94.57 49.22s1.1-.47 3.06-1.18" fill="none" stroke-width=".5"/><path d="M45.41 62.76l2.18-10.46 16.43-.77 1.93 11.23zM51.19 52.13v-4.19h9.75v3.59zM54.65 47.94V25.61l5.26-5.39 7.96-.9v6.03l-6.61-1.03-3.4 2.96-1.16 20.66zM67.87 17.39v9.89l5 .12A20.28 20.28 0 0073 17z" fill="none"/><path d="M73 17a19.58 19.58 0 00-.9 5.13 14.25 14.25 0 00.77 5.26" fill="none"/><path d="M48.59 90.61H63.7c1.11 0 1.69-.53.72-1.92-1.15-1.67-6.73-10-7.17-10.59-.62-.87-.86-1-1.63.1s-7.08 9.48-7.71 10.44-1.05 1.97.68 1.97z" fill="none" stroke-width=".75"/><path d="M58.21 76.08s7.35 10.66 8.23 12c1.4 2.07 1 4.53-1.73 4.53H47.05c-.77 0-3.08-1-1.35-3.9s8.42-11.6 9.1-12.56 2.11-1.85 3.41-.07z" fill="none" stroke-width=".5"/><path d="M81.36 89.75l4.19-11.31 2.65-.49 6.64 10.02zM87.05 78.16l-.22 10.86" fill="none" stroke-width=".75"/><path d="M82.42 86.89l4.52-.66a4.07 4.07 0 011.64 2.56" fill="none" stroke-width=".75"/><path d="M90.37 88.56a8.67 8.67 0 00-3.32-5l-3.42.44" fill="none" stroke-width=".75"/><path d="M92.29 88.3a15.5 15.5 0 00-5.24-7.51l-2.5.36M86.25 89.1l-1.47 12.34h1.47M89.03 88.73l-1.46 12.71h1.46" fill="none" stroke-width=".75"/><path d="M82.47 86.71l.45-1.23-1.44-.49-.55 1.45z" fill="#3f2b56" stroke-width=".75"/><path d="M80.93 86.44l-2.53-1.78 5.45-1.68" fill="none" stroke-width=".75"/><path d="M94.44 80.99h1.6v1.43l-1.6.11z" fill="#3f2b56" stroke-width=".75"/><path d="M96.04 82.42v3.66l-4.51-3.1" fill="none" stroke-width=".75"/><path d="M91.02 82.22l3.23-.46M93.51 81.86l-.13-2.73 1.57-.15.13 2.62M84.33 78.26l6.75-1.19-2.27-.48.19-1.76s-3.87.64-6 1.25z" fill="none" stroke-width=".5"/></g></svg>