<svg data-name="Layer 1" xmlns="http://www.w3.org/2000/svg" viewBox="0 0 1091.4 1091.4"><defs><linearGradient id="b" x1="14.57" y1="22.33" x2="14.57" y2="-29.77" gradientTransform="matrix(1 0 0 -1 0 780)" gradientUnits="userSpaceOnUse"><stop offset="0" stop-color="#332c3e"/><stop offset="1" stop-color="#15101c"/></linearGradient><linearGradient id="c" x1="635.2" y1="436.08" x2="864.4" y2="436.08" gradientTransform="matrix(1 0 0 -1 0 780)" gradientUnits="userSpaceOnUse"><stop offset="0" stop-color="#564f64"/><stop offset="1" stop-color="#241c2c"/></linearGradient><radialGradient id="a" cx="775.18" cy="726.97" r="370.56" gradientTransform="matrix(.87 .5 0 -.5 96.09 467.39)" gradientUnits="userSpaceOnUse"><stop offset="0" stop-color="#b9b2d0"/><stop offset="1" stop-color="#dbd3e9" stop-opacity="0"/></radialGradient></defs><path d="M274.8 627.07l214.7 124 9.4-5.5-214.8-124zm121.7-71L612 680.27l9.6-5.4L406 550.67zm-245.2 141.2L367 821.87l9.3-5.4-215.6-124.6zm-121.8 71.4l214.8 124 9.4-5.4-214.7-124zM520 485.47l214.8 124 9.4-5.4-214.7-124zm122.6-70.7l214.8 124 9.4-5.5-214.7-124z" fill="#d9d2e8"/><path d="M1091.4 673.37l-641.8-370.5v-163.8h204.8l437 166v368.3" fill="url(#a)"/><path d="M778.2 493.07c-15.6 9-41 9-56.5 0s-15.5-23.6 0-32.6 41-9 56.7 0 15.5 23.5-.2 32.5zm-43.5-25.2c-8.4 5-8.5 13 0 17.7s22 5 30.6 0 8.5-13 0-17.7-22-5-30.5 0z" fill="#f36e4f"/><path d="M543.6 603.37l213-123-13-7.4-213 122.8c-15.3-5.5-35.8-4.3-49.2 3.4s-15.4 19.6-6 28.5l-190 109.8c-15.5-5.5-36-4.3-49.4 3.4s-15.4 19.5-6 28.4l-90 52 12.8 7.5 90.2-52c15.4 5.3 36 4.2 49.4-3.5s15.3-19.6 5.8-28.5l190.2-110c15.4 5.6 36 4.5 49.4-3.3s15.3-19.6 5.8-28.4zm-264.2 162.7c-8.4 5-22.2 5-30.6 0s-8.4-12.8 0-17.7 22.3-5 30.7 0 8.4 12.8 0 17.7zM525 624.37c-8.6 5-22.4 5-30.8 0s-8.4-12.7 0-17.6 22.3-5 30.8 0 8.3 12.7 0 17.6z" fill="#6a61a7"/><path d="M525 624.37c-8.6 5-22.4 5-30.8 0s-8.4-12.7 0-17.6 22.3-5 30.8 0 8.3 12.7 0 17.6zm-245.6 141.7c-8.4 5-22.2 5-30.6 0s-8.4-12.8 0-17.7 22.3-5 30.7 0 8.4 12.8 0 17.7z" fill="#fff"/><path d="M29.2 757.67l-21 12.2a16 16 0 000 28l21 12z" fill="url(#b)"/><path d="M8 769.87a16 16 0 00-7.2 19l27-15.7-.2.2 1.6-1v-14.6z" fill="#b8b1cf"/><path d="M866.6 544.07v-11l-613 354.2-214.9-124.2 828-478v-11l-839.9 485a4.69 4.69 0 00-1.53 6.47 4.76 4.76 0 001.53 1.53L251 896.77a4.7 4.7 0 004.7 0l7.4-4L867 544.07z" fill="#d9d2e8"/><path d="M263 892.67l-233.8-135c-11.2 6.4-20.4 22.4-20.4 35.4a22.14 22.14 0 00.6 5.5l200.2 115.5a16.4 16.4 0 0016.4 0z" fill="#c8c1df"/><path d="M132.3 864.37c0-13 9.2-29 20.5-35.4l-13-7.5c-11.2 6.5-20.4 22.3-20.4 35.4a22.4 22.4 0 00.7 5.4l13 7.4a22.24 22.24 0 01-.7-5.5z" fill="#545087"/><path d="M263 892.67l-9.3-5.4c-7.2 4.2-13.6 12.2-17.2 20.8z" fill="#988faa"/><path d="M866.6 544.07v-267.8a16.6 16.6 0 00-8.4-14.4L658 146.07a16.59 16.59 0 00-25 14.4v248.6z" fill="url(#c)"/><path d="M866.6 274.27L633 409.07l233.6 135v-270" fill="#c8c1df"/><path d="M866.6 533.07l-9.4 5.5 9.4 5.4zm0-259l-233.6 135 9.4 5.4 224.2-129.4z" fill="#b8b1cf"/><path d="M866.6 398.07H762l-126 72.4 126 72.6h104.6v-145" fill="#c8c1df"/><path d="M762 543.07l-126-72.6v-101l230.6 12L762 543.27" fill="#eb5e44"/><path d="M866.6 381.57L762 442.07v101l104.6-60.4v-101" fill="#cd483b"/><path d="M700 406.37v41.7l-2-1.2v-41.8l-17-9.8v41.8l36 21v-42l-17-9.7" fill="#f38058"/><path d="M769.3 602.07l-33.7-19.5a18.41 18.41 0 00-9.3-2H702a18.15 18.15 0 00-9 2l-56.7 32.8h-24.7v14.3l-56.8 32.7c-5 3-4.8 7.5 0 10.3l33.8 19.4a18.37 18.37 0 009 2H622a18.15 18.15 0 009-2l138.2-79.8c5-2.8 5-7.4 0-10.2zM524 743.77l-34-19.5a18.32 18.32 0 00-9.2-2.2h-24.2a18.15 18.15 0 00-9 2l-56.8 33H366l.2 14.2-56.8 32.8c-5 2.8-5 7.4 0 10.3l33.8 19.5a18.37 18.37 0 009 2h24.6a18.15 18.15 0 009-2l138.2-79.8c4.8-3 4.8-7.5 0-10.3z" fill="#dbd3e7"/><path d="M318.2 576.07L179 656.67a18.29 18.29 0 00-6.3 6.6L191.3 677c1.6-2.8 149-92 150.5-91.2-1.6-1-15.7-9-17.2-10s-4-1-6.4.6zm23.7 9.5a.2.2 0 00.2.2.36.36 0 01-.3-.2z" fill="#8882db"/><path d="M193 674.07l-20.3-11a18 18 0 00-2.6 8.8v38.8c0 2.8 1 4.8 2.7 5.7l17.4 10zm-2 52.7z" fill="#514d82"/><path d="M335.6 586.27l-139.2 80.3c-5 2.8-9 9.7-9 15.4v38.6c0 5.7 4 8 9 5l57.2-33 12.4 7.5 12.4-21.4 57.2-33c5-2.8 9-9.7 9-15.4v-38.8c0-5.6-4-8-9-5z" fill="#6a61a7"/><path d="M223.4 679.67a2 2 0 00-1-.3 7 7 0 001.6-4.2c0-1.7-.7-2.5-1.3-2.8-1-.6-2.2-.4-3.8.5a10 10 0 00-4.8 7.6v.8l2.6-1v-.2a5.61 5.61 0 012.6-4.5c.7-.3 1.2-.5 1.5-.3s.3.5.3 1c0 2.2-2 3.6-3 4.2l-.7.4v3l1.8-1c1-.6 1.6-.8 2-.6s.4.7.4 1.6a5.6 5.6 0 01-3 4.7c-.8.5-1.4.6-1.8.4s-.8-1-1-2.4v-1l-2.7 2.2v.2c.2 2 1 3.3 2 3.8a2.77 2.77 0 001.2.3 5.88 5.88 0 002.8-1 10 10 0 005-8c.2-2-.4-2.8-1-3zm13-11.2a3.42 3.42 0 00-3.6.3 7.87 7.87 0 00-2.3 2v-5l-2.7 1.5v18.5l2.5-1.5v-.7a4 4 0 003-.6 12 12 0 005-10c0-2.3-.6-4-2-4.6zm-4 12a1.71 1.71 0 01-1.5.3 1 1 0 01-.5-1v-4a5.49 5.49 0 012.5-4.2 2.71 2.71 0 011.3-.4 1 1 0 01.5.2c.5.3.8 1.3.8 2.8 0 3-1 5.3-3 6.4zM248.2 661a3.49 3.49 0 00-2.8.4c-3 1.8-5 5.8-5 10 0 2.3.6 4 1.8 4.6a2.79 2.79 0 001.3.3 4.82 4.82 0 002.4-.7 9 9 0 002.4-2.2v.4l2.5-1.5v-18.2l-2.8 1.5zm0 8a5.3 5.3 0 01-2.6 4c-.5.2-1.2.5-1.7.2a3.35 3.35 0 01-1-2.8c0-3 1-5.2 3-6.4a2.11 2.11 0 011.2-.3.9.9 0 01.4 0 1.39 1.39 0 01.6 1.4zm12.3-16.6c0-1 .2-1.3 1-1.6l2-1.3v-3l-3 1.8a5 5 0 00-2.7 4.7v1.6l-3.4 2v3l3.4-2v10.8l2.7-1.6v-11l4-2v-3l-4 2.3zm16.2-5.4a3.69 3.69 0 00-3.8.3 9.16 9.16 0 00-2.3 2l.5-3.5 5.8-3.3v-3l-8 4.6-1.5 10h2.5v-.4a7.5 7.5 0 013-3.6c1-.4 1.5-.5 2-.3s.6 1 .6 2a6.5 6.5 0 01-3 5.6 2.2 2.2 0 01-2 .3 2 2 0 01-1-1.5v-.7l-2.6 2.4v.3a3.59 3.59 0 002 2.6 3.06 3.06 0 001.2.2 5.64 5.64 0 002.8-1 11 11 0 005.3-9c0-2.4-1-3.4-1.6-3.8zm13.4-7.8a3.69 3.69 0 00-3.6.4 9.16 9.16 0 00-2.3 2l.6-3.5 6-3.3v-3l-8.2 4.7-1.5 10 2.4-.2v-.3a7.43 7.43 0 013-3.7c1-.5 1.6-.6 2-.4a2.35 2.35 0 01.7 2 6.49 6.49 0 01-3 5.5 2 2 0 01-2 .4 2 2 0 01-1-1.6v-.8l-2.5 2.4v.3a3.62 3.62 0 002 2.5 3.08 3.08 0 001.2.3 5.64 5.64 0 002.8-.8 11 11 0 005.3-9.3c0-2.3-1-3.3-1.7-3.7zm13.5-15l-3.5 2-6.6 15v2.8l7.5-4.4v4l2.6-1.7v-4l1.8-1v-3l-1.8 1zm-2.6 12.5l-4.2 2.4 4-9.2zm16.3-13c-1-.6-2.5-.4-4 .5a9.67 9.67 0 00-3.2 3c.6-3.2 2-5.3 3.4-6a1.68 1.68 0 011.5-.4c.2 0 .4.5.6 1.2l.2.8 2.4-2v-.4a3.3 3.3 0 00-1.7-2.5 3.79 3.79 0 00-3.5.4c-3.5 2-6 7.2-6 12.6 0 3 .8 5 2.3 6a3.06 3.06 0 001.6.3 5.69 5.69 0 002.6-.8 10.79 10.79 0 005.3-9c0-2.4-1-3.3-1.7-3.8zm-4.2 10a2 2 0 01-2 .4 2.31 2.31 0 01-.7-2 7 7 0 013.2-5.2 3 3 0 011.5-.5 1.06 1.06 0 01.5 0 2.65 2.65 0 01.7 2 6.2 6.2 0 01-3 5.5z" fill="#fff"/><path d="M866.6 357.27L762 296.87l-126 72.5 126 72.7 104.6-60.5v-24.3" fill="#f26e4e"/><path d="M806.7 322.67L681 395.27l36 21 126-72.7zM700 406.37l-2-1.3 125.7-72.6 2 1.2z" fill="#f69364"/><path d="M563.6 434.47l-139 80.3a18.24 18.24 0 00-6.5 6.7l17.5 10s150.2-88.5 151.8-87.6c-1.6-1-15.7-9-17.2-10s-3.8-1-6.4.6zm23.7 9.4l.3.2a.36.36 0 01-.3-.2z" fill="#8882db"/><path d="M437.6 532.47l-19.5-11a18 18 0 00-2.5 8.7v39c0 2.7 1 4.7 2.7 5.6l17.4 10zm-1.3 52.6z" fill="#514d82"/><path d="M581 444.57l-139 80.3c-5 2.8-9 9.7-9 15.4v38.8c0 5.6 4 8 9 5l57-33 12.4 7 12.4-21.3 57.2-33c5-3 9-9.7 9-15.4v-38.8c0-5.6-4-8-9-5z" fill="#6a61a7"/><path d="M468 530.87a3.78 3.78 0 00-4 .3c-2.6 1.7-5.5 6-5.5 12.2 0 3.4.7 5.6 2.2 6.5a3 3 0 001.5.3 5 5 0 002.5-.7c1.3-.8 5.6-4 5.6-12.3 0-4-1.2-5.6-2.3-6.2zm-6.7 11.3c0-4 1.2-7 3.3-8.2a2.24 2.24 0 011-.3 1.06 1.06 0 01.5 0 1.68 1.68 0 011 1l-5.7 8v-.4zm2.8 4.6a1.7 1.7 0 01-1.3.2 2 2 0 01-1-1l5.8-8.3v.6c0 4.2-1.2 7.4-3.3 8.6zm17.4-23.5a3.78 3.78 0 00-3.8.3c-2.8 1.6-5.7 6-5.7 12 0 3.6.6 5.7 2 6.6a3.06 3.06 0 001.6.3 5.06 5.06 0 002.5-.8c1.4-.8 5.8-4 5.8-12.3 0-4-1.3-5.5-2.3-6zm-6.7 11.4c0-4 1.2-7 3.4-8.3a2.3 2.3 0 011.2-.3.76.76 0 01.3 0 1.68 1.68 0 011 1l-5.8 8.2v-.6zm3 4.4a1.71 1.71 0 01-1.6.3 2 2 0 01-.8-1l5.7-8.2v.5c0 4-1.3 7.3-3.4 8.5zm17.5-25.3l-3.5 2-6.6 15v2.8l7.6-4.3v3.8l2.7-1.5v-4l1.8-1v-3l-1.7 1zm-2.6 12.5l-4 2.4 4-9.3zm14.5-14.5a3.47 3.47 0 00-2.8.5c-3 1.7-5 5.8-5 9.8 0 2.4.7 4 2 4.7a2.8 2.8 0 001.2.4 4.79 4.79 0 002.4-1 8.82 8.82 0 002.5-2v.3l2.5-1.4v-18.6l-3 1.6zm0 8a5.24 5.24 0 01-2.5 4c-.5.3-1.2.6-1.7.3s-1-1.4-1-3a6.69 6.69 0 013.2-6.2 2.14 2.14 0 011-.4 1.06 1.06 0 01.5 0 1.39 1.39 0 01.6 1.4zM522 504c-.7-.4-2-.7-4 .4a12.48 12.48 0 00-5.2 10c0 3 1 4 2 4.7a3.1 3.1 0 001.4.3 5.06 5.06 0 002.5-.8 11.61 11.61 0 004.8-6l.2-.7-2.3-.4-.2.7a6.86 6.86 0 01-3 4 2 2 0 01-1.8.2 2.42 2.42 0 01-.8-2l8.2-5v-.7c0-3-1-4-1.8-4.6zm-6.3 7.5a6.6 6.6 0 013-4.4 3 3 0 011.2-.5 1.06 1.06 0 01.5 0 2 2 0 01.7 1.8zm17.3-16c0-1 .2-1.3 1-1.7l2-1.2v-3l-3 1.8a5 5 0 00-2.7 4.8v1.6l-3.3 2v3l3.4-2v10.3l2.8-1.6v-11l4-2.2v-3l-4 2.4zm16-7c-.8-.4-2-.7-4 .4a12 12 0 00-5.3 10c0 3 1 4 2 4.6a3.09 3.09 0 001.3.3 5 5 0 002.6-.8 11.61 11.61 0 004.8-6l.2-.6-2.4-.4-.2.6a6.86 6.86 0 01-3 4 2 2 0 01-1.8.2 2.42 2.42 0 01-.8-2l8.3-4.8v-.8c0-3-1-4.2-1.8-4.6zm-6.4 7.5a6.6 6.6 0 013-4.4 3 3 0 011.2-.5 1.06 1.06 0 01.5 0 2 2 0 01.8 1.8zm21.4-10.9c0-3-1-4.2-2-4.6a3.62 3.62 0 00-3.8.4 12 12 0 00-5.3 10c0 3 1 4 1.8 4.5a3 3 0 001.5.4 5.06 5.06 0 002.5-.8 11.61 11.61 0 004.8-6.2l.2-.6-2.3-.4-.2.6a6.86 6.86 0 01-3 4 2 2 0 01-1.8.2 2.42 2.42 0 01-.8-2l8.2-4.8zm-8.2 3a6.57 6.57 0 013-4.6 2.89 2.89 0 011.2-.4 1.06 1.06 0 01.5 0 2 2 0 01.7 1.8z" fill="#fff"/><path d="M813.5 514.07l53 30v-267.8a16.58 16.58 0 00-8.2-14.4l-18-10.5-152.6 88 125.8 72.7z" style="isolation:isolate" fill="#16111c" opacity=".1"/></svg>