<svg width="345" height="280" viewBox="0 0 345 280" fill="none" xmlns="http://www.w3.org/2000/svg">
<path d="M340.829 38.6674C335.725 35.3843 328.797 32.466 328.797 32.466L320.412 16.4154C305.464 6.56618 283.224 0 283.224 0C171.66 4.37742 125.722 19.3337 125.722 19.3337C119.888 21.8872 112.961 26.6294 112.961 26.6294C112.961 26.6294 94.62 70.6275 90 188.201C90 188.201 95.2328 190.951 98.8473 192.607L98.6438 195.708C127.098 199.958 184.127 207.057 246.885 206.918C246.885 206.918 250.445 210.737 252.234 213.521L253.449 225.438C249.729 228.1 245.987 230.737 242.26 233.333C242.263 233.331 242.266 233.329 242.268 233.328V248.364L242.511 248.298C255.637 249.757 264.387 250 264.387 250C298.901 240.516 341.193 226.654 341.193 226.654C341.68 217.899 342.409 193.337 342.409 193.337C343.867 191.148 344.596 189.202 344.596 189.202C346.541 93.142 340.829 38.6674 340.829 38.6674Z" fill="#D4D1F6"/>
<path d="M98.6438 195.708C127.098 199.958 184.126 207.057 246.885 206.918C246.885 206.918 250.445 210.737 252.234 213.521L253.449 225.438C249.729 228.1 245.987 230.737 242.26 233.333C242.263 233.331 242.266 233.329 242.268 233.328V248.364L242.511 248.298C255.637 249.757 264.387 250 264.387 250C298.901 240.516 341.193 226.654 341.193 226.654C341.68 217.899 342.409 193.337 342.409 193.337C343.867 191.148 344.596 189.202 344.596 189.202C346.541 93.142 340.829 38.6674 340.829 38.6674C335.725 35.3843 328.798 32.466 328.798 32.466L320.412 16.4154C305.464 6.56618 283.224 0 283.224 0C279.578 3.28304 275.932 8.39008 275.932 8.39008C275.932 8.39008 256.244 87.7979 255.151 202.216C255.151 202.216 197.448 201.224 149.512 196.692C107.446 192.715 90 188.2 90 188.2C90 188.2 95.2328 190.951 98.8473 192.607L98.6438 195.708Z" fill="#9C84FD"/>
<path d="M250.899 201.979C222.474 201.283 194.058 200.081 165.699 197.959C151.523 196.868 137.362 195.526 123.255 193.726C116.202 192.822 109.159 191.828 102.149 190.62C98.6428 190.02 95.1449 189.371 91.664 188.616L90.3595 188.324L89.7075 188.171L89.1926 188.045C89.0712 188.028 88.9633 188.001 89.0119 187.859L89.0274 187.529L89.1582 184.821L89.4144 179.513L89.927 168.896C90.0776 165.356 90.3742 161.825 90.5907 158.288L91.2967 147.682L92.1909 137.09C93.3581 122.966 94.971 108.878 96.9139 94.837C98.8688 80.7985 101.274 66.8117 104.438 52.9845C106.027 46.0734 107.8 39.2001 109.939 32.4281C110.197 31.5791 110.48 30.7372 110.773 29.8978C111.055 29.0557 111.349 28.2167 111.667 27.3837L111.904 26.7569L112.088 26.2968C112.146 26.2146 112.29 26.229 112.386 26.1907L112.585 26.1428L113.884 25.8361L116.485 25.2415C119.956 24.4636 123.434 23.7283 126.921 23.0307C154.808 17.4284 183.029 13.6101 211.349 11.0268L221.981 10.1885C223.753 10.0557 225.524 9.89615 227.298 9.78511L232.622 9.47116C236.171 9.27072 239.719 9.03285 243.269 8.86322L253.927 8.4576C255.704 8.39589 257.48 8.30932 259.257 8.26793L264.589 8.18439L275.413 8.01485L275.745 8.00965C275.816 8.04017 276.057 7.93395 275.987 8.07675L275.831 8.72278L275.656 9.45302L275.356 10.7454L274.771 13.3338C274.39 15.0618 274.005 16.789 273.652 18.5237C272.913 21.9857 272.239 25.4615 271.56 28.9361C268.88 42.8422 266.637 56.8321 264.699 70.8611L263.963 76.1209L263.299 81.3904C262.867 84.9046 262.39 88.4135 261.994 91.932C261.236 98.9726 260.385 106.004 259.777 113.06C257.1 141.258 255.547 169.564 255.174 197.886C255.104 201.404 254.939 201.707 254.743 201.705C254.546 201.703 254.393 201.397 254.463 197.877C254.836 169.535 256.39 141.21 259.069 112.993C259.678 105.932 260.529 98.8956 261.288 91.85C261.684 88.3289 262.161 84.8174 262.593 81.3007L263.258 76.0274L263.995 70.7637C265.934 56.724 268.179 42.7234 270.862 28.8028C271.542 25.3244 272.216 21.8449 272.956 18.3779C273.309 16.6413 273.695 14.9109 274.077 13.1798L274.664 10.5856L274.964 9.28962L275.099 8.72817L275.097 8.72855L264.603 8.89299L259.276 8.97643C257.5 9.01773 255.726 9.1042 253.951 9.16591L243.304 9.57115C239.756 9.7406 236.211 9.97837 232.665 10.1786L227.347 10.4923C225.574 10.6032 223.805 10.7627 222.034 10.8954L211.412 11.7329C183.118 14.3139 154.918 18.1295 127.062 23.7255C123.58 24.4224 120.106 25.1567 116.642 25.9331L114.048 26.5261L112.754 26.8314L112.628 26.8618L112.566 27.019L112.332 27.6346C112.019 28.4573 111.727 29.2899 111.446 30.1276C111.155 30.9613 110.874 31.7984 110.616 32.6442C108.487 39.3868 106.718 46.2455 105.132 53.1424C101.974 66.9427 99.5712 80.9126 97.6185 94.936C95.6776 108.962 94.0662 123.037 92.8998 137.152L92.0062 147.736L91.3005 158.334C91.0843 161.868 90.7878 165.398 90.6373 168.936L90.125 179.546L89.8688 184.851L89.7434 187.449V187.451L89.8752 187.482L90.5203 187.634L91.8164 187.923C95.2802 188.675 98.7712 189.323 102.27 189.921C109.266 191.127 116.301 192.12 123.345 193.023C137.437 194.821 151.587 196.163 165.753 197.253C194.093 199.373 222.503 200.575 250.915 201.271C254.445 201.349 254.746 201.508 254.743 201.705C254.74 201.9 254.431 202.058 250.899 201.979Z" fill="#181225"/>
<path d="M253 225.67C220.952 248.518 187.305 269.585 175.131 277.097C172.094 278.973 170.391 280 170.391 280C170.391 280 74.4168 265.409 4.61617 238.97C4.61617 238.97 1.8162 235.228 0 227.602L4.03915 220.589C4.03915 220.589 41.2712 208.062 79.3356 193C79.3356 193 157.082 207.44 246.445 207.242C246.445 207.242 250.001 211.041 251.789 213.812L253 225.67Z" fill="#D4D1F6"/>
<path d="M251.793 213C228.223 231.151 169 268.107 169 268.107L170.878 280C170.878 280 213.172 253.902 253 225.001L251.793 213Z" fill="#9C84FD"/>
<path d="M175 277.064C171.966 278.961 170.264 280 170.264 280C170.264 280 74.3613 265.241 4.61273 238.498C4.61273 238.498 1.81484 234.713 0 227C74.2384 256.127 168.383 268.111 168.383 268.111L175 277.064Z" fill="#9C84FD"/>
<path d="M178 275C178.003 274.999 219.398 263.233 242 254.495V233C215.753 251.245 190.234 267.389 178 275Z" fill="#181225"/>
<path d="M251.806 213.2C250.235 214.414 248.841 215.493 247.568 216.476C246.282 217.436 245.119 218.304 244.026 219.12C241.845 220.76 239.905 222.142 237.798 223.653C233.58 226.667 228.634 230.104 219.24 236.379C209.922 242.598 198.902 249.799 186.989 257.424C184.008 259.325 180.975 261.259 177.903 263.218C176.363 264.192 174.814 265.173 173.258 266.158C172.478 266.65 171.697 267.143 170.913 267.637L169.736 268.377L169.146 268.747L168.744 268.999C168.647 269.006 168.488 268.971 168.436 268.968L168.264 268.945C160.916 267.946 153.475 266.788 146.044 265.547C116.315 260.617 86.855 254.069 65.2443 248.343C62.8447 247.684 59.3217 246.83 55.2944 245.666C51.2666 244.505 46.6817 243.232 42.1225 241.881C37.5818 240.467 33.0443 239.054 29.054 237.811C25.0992 236.462 21.6876 235.297 19.3544 234.501C16.7155 233.574 14.7756 232.941 13.2399 232.345C11.7129 231.751 10.5464 231.297 9.39866 230.85C7.1413 229.957 4.96033 229.093 0.236572 227.224C0.0868008 227.164 -0.0185635 227.104 0.00273768 227.087C0.0217668 227.072 0.135463 227.099 0.266489 227.145C5.42167 228.975 7.62677 229.757 9.8154 230.534C10.926 230.937 12.0324 231.339 13.5153 231.878C15.0039 232.422 16.9036 233.018 19.55 233.913C23.2875 235.139 28.0273 236.858 33.3901 238.447C36.0615 239.272 38.8653 240.139 41.7354 241.026C44.6041 241.918 47.5759 242.705 50.5285 243.561C53.4894 244.387 56.4351 245.273 59.3443 246.032C62.2527 246.794 65.0952 247.539 67.8052 248.249C73.2145 249.713 78.1489 250.816 81.9879 251.773C83.3466 252.103 84.7239 252.438 86.1185 252.777C87.5182 253.094 88.9352 253.415 90.3686 253.739C93.2351 254.387 96.1667 255.05 99.1537 255.726C105.148 256.982 111.351 258.355 117.738 259.579C130.496 262.114 143.9 264.508 157.348 266.584C160.709 267.109 164.075 267.599 167.433 268.064L168.564 268.216L169.529 267.611L171.687 266.254C173.123 265.347 174.555 264.443 175.984 263.541C181.681 259.907 187.314 256.314 192.817 252.803C203.8 245.746 214.211 238.932 223.528 232.688C228.263 229.488 230.495 227.979 232.737 226.464C234.977 224.961 237.202 223.44 241.896 220.182C244.219 218.541 245.679 217.509 247.079 216.52C248.443 215.532 249.747 214.588 251.756 213.134C251.886 213.039 251.996 212.98 252 213.006C252.004 213.029 251.92 213.113 251.806 213.2Z" fill="#181225"/>
<path d="M20.4471 221.999C44.0005 229.92 68.2114 235.758 92.5409 240.731C98.6353 241.928 104.727 243.142 110.849 244.19C116.955 245.324 123.091 246.283 129.224 247.265C132.286 247.779 135.361 248.214 138.436 248.646L147.658 249.958C150.732 250.393 153.819 250.736 156.898 251.129L166.023 252.259L181.729 242.47L197.489 232.533C202.73 229.202 207.961 225.853 213.169 222.472L220.948 217.35L224.806 214.743C225.451 214.311 226.084 213.865 226.717 213.418L227.65 212.761H227.65L226.488 212.783L224.155 212.798L219.489 212.772C216.38 212.718 213.272 212.65 210.165 212.532C207.057 212.447 203.954 212.261 200.848 212.13L191.539 211.579C179.132 210.763 166.752 209.591 154.394 208.241L145.129 207.197L135.877 206.035C129.705 205.299 123.558 204.367 117.397 203.535C111.244 202.655 105.104 201.681 98.9566 200.758L80.6526 197.738L20.4329 220.966C18.3193 221.781 18.0813 221.701 18.0131 221.516C17.9448 221.33 18.0723 221.11 20.1854 220.295L80.5785 197L99.0663 200.051C105.21 200.973 111.347 201.947 117.497 202.826C123.654 203.658 129.797 204.589 135.966 205.325L145.212 206.486L154.471 207.53C166.821 208.878 179.191 210.049 191.586 210.865L200.885 211.415C203.986 211.545 207.087 211.731 210.19 211.816C213.292 211.934 216.396 212.002 219.499 212.056L224.153 212.082L226.479 212.067L230 211.979L227.122 214.006C226.486 214.455 225.85 214.904 225.204 215.336L221.34 217.947L213.553 223.074C208.342 226.458 203.109 229.808 197.866 233.139L182.103 243.079L166.183 253L156.812 251.84C153.73 251.447 150.641 251.104 147.564 250.668L138.335 249.355C135.258 248.922 132.181 248.487 129.116 247.973C122.979 246.99 116.838 246.03 110.726 244.895C104.599 243.846 98.5021 242.632 92.4024 241.434C68.0477 236.454 43.8254 230.616 20.2176 222.677C18.0748 221.928 17.9449 221.699 18.0131 221.516C18.0828 221.329 18.3131 221.254 20.4471 221.999Z" fill="#181225"/>
<path d="M179.974 240.723C156.447 239.076 132.992 236.35 109.724 232.483C86.4727 228.547 63.3514 223.697 40.6718 217.161C35.0938 215.515 34.9522 215.248 35.0068 215.087C35.0698 214.898 35.293 214.876 40.859 216.518C63.5006 223.044 86.6054 227.891 109.834 231.823C133.08 235.686 156.514 238.41 180.02 240.055C185.81 240.475 186.011 240.639 186 240.824C185.988 241.008 185.77 241.142 179.974 240.723Z" fill="#181225"/>
<path d="M194.073 231.749C170.93 230.235 147.837 227.89 124.87 224.606C101.923 221.233 79.0511 217.088 56.6119 211.06C51.0949 209.53 50.9546 209.25 51.0062 209.091C51.0682 208.896 51.2819 208.884 56.7851 210.41C79.1805 216.426 102.038 220.57 124.964 223.94C147.912 227.22 170.988 229.564 194.116 231.077C199.813 231.467 200.01 231.632 200 231.818C199.989 232.003 199.774 232.139 194.073 231.749Z" fill="#181225"/>
<path d="M208.094 222.914C184.983 222.215 161.925 220.235 139.008 217.273C133.272 216.576 127.558 215.721 121.837 214.916C116.129 214.032 110.417 213.169 104.725 212.185C93.335 210.257 81.9791 208.13 70.6857 205.702C65.1232 204.493 64.9622 204.268 65.0042 204.101C65.0499 203.918 65.2739 203.856 70.8288 205.064C82.1087 207.489 93.4571 209.615 104.838 211.541C110.525 212.524 116.233 213.386 121.937 214.27C127.653 215.075 133.362 215.929 139.094 216.625C161.993 219.584 185.03 221.563 208.114 222.261C213.801 222.444 214.004 222.597 214 222.777C213.996 222.957 213.788 223.097 208.094 222.914Z" fill="#181225"/>
<path d="M90.8451 201.531C86.3709 203.797 81.8261 205.922 77.2519 207.981C72.6835 210.054 68.074 212.037 63.4555 213.998C54.209 217.899 44.8995 221.655 35.5311 225.27C33.2218 226.159 33.0818 226.053 33.0162 225.889C32.9498 225.723 32.9805 225.561 35.2875 224.673C44.6485 221.061 53.9534 217.307 63.1918 213.409C67.8063 211.45 72.4114 209.468 76.9735 207.399C81.5416 205.343 86.0791 203.221 90.5402 200.961C92.739 199.849 92.8885 199.935 92.9747 200.092C93.0607 200.248 93.0509 200.415 90.8451 201.531Z" fill="#181225"/>
<path d="M105.982 203.694C97.4888 208.793 88.7339 213.383 79.956 217.913C71.1703 222.429 62.3212 226.81 53.4329 231.108C51.2415 232.165 51.0979 232.063 51.0213 231.894C50.9442 231.724 50.9618 231.551 53.1516 230.496C62.0346 226.2 70.8806 221.82 79.6599 217.308C88.4301 212.783 97.1819 208.194 105.645 203.111C107.721 201.846 107.874 201.929 107.969 202.088C108.065 202.248 108.067 202.423 105.982 203.694Z" fill="#181225"/>
<path d="M177.951 211.873C169.335 217.846 160.514 223.505 151.594 228.989C142.672 234.473 133.646 239.778 124.518 244.903C122.267 246.161 122.11 246.069 122.025 245.908C121.938 245.744 121.952 245.575 124.201 244.318C133.318 239.199 142.339 233.896 151.253 228.418C160.166 222.938 168.977 217.285 177.58 211.321C179.701 209.855 179.862 209.925 179.965 210.076C180.069 210.228 180.076 210.404 177.951 211.873Z" fill="#181225"/>
<path d="M199.895 213.873C182.202 225.844 164.065 237.157 145.561 247.848C143.276 249.157 143.115 249.07 143.027 248.914C142.936 248.754 142.949 248.587 145.23 247.279C163.717 236.598 181.846 225.291 199.522 213.33C201.7 211.857 201.862 211.925 201.966 212.074C202.069 212.224 202.074 212.398 199.895 213.873Z" fill="#181225"/>
<path d="M156.681 209.455C145.109 217.98 133.014 225.733 120.779 233.237C119.268 234.156 119.133 234.055 119.037 233.894C118.941 233.731 118.919 233.571 120.428 232.654C132.647 225.159 144.736 217.409 156.278 208.906C157.695 207.855 157.838 207.938 157.951 208.089C158.063 208.24 158.103 208.4 156.681 209.455Z" fill="#181225"/>
<path d="M138.59 207.388C126.434 215.192 114.141 222.767 101.787 230.238C100.264 231.156 100.131 231.056 100.036 230.893C99.9417 230.73 99.9204 230.566 101.443 229.648C113.792 222.18 126.082 214.607 138.229 206.808C139.725 205.847 139.86 205.942 139.96 206.102C140.06 206.261 140.087 206.426 138.59 207.388Z" fill="#181225"/>
<path d="M121.663 205.34C115.835 209.114 109.846 212.607 103.848 216.085C97.8446 219.552 91.8052 222.956 85.7441 226.322C84.2498 227.151 84.1223 227.051 84.0334 226.892C83.9443 226.733 83.9264 226.576 85.4195 225.748C91.4772 222.384 97.5143 218.981 103.513 215.516C109.505 212.042 115.494 208.549 121.296 204.791C122.718 203.856 122.853 203.944 122.957 204.094C123.06 204.244 123.093 204.399 121.663 205.34Z" fill="#181225"/>
<path d="M246.805 207.181C234.277 215.638 233.155 216.507 215.077 228.165C206.105 233.935 195.533 240.673 184.1 247.806C181.237 249.582 178.325 251.389 175.375 253.219C173.895 254.126 172.406 255.039 170.909 255.957C170.16 256.415 169.409 256.875 168.656 257.335L168.091 257.681L167.809 257.854C167.752 257.882 167.636 257.975 167.544 258L167.26 257.966L165.936 257.807C158.875 256.932 151.716 255.928 144.567 254.852C115.969 250.557 87.5868 244.862 66.7725 239.741C64.4567 239.166 61.0846 238.329 57.1852 237.361C53.3053 236.317 48.901 235.133 44.4998 233.949C40.1298 232.658 35.7629 231.368 31.9225 230.233C28.0901 229.074 24.8315 227.923 22.5874 227.199C20.0527 226.346 18.202 225.723 16.7033 225.218C15.2386 224.66 14.1192 224.233 13.017 223.813C10.8522 222.974 8.75751 222.162 4.22627 220.405C4.08251 220.349 3.9818 220.291 4.00276 220.275C4.02144 220.26 4.13077 220.285 4.25661 220.328C9.20518 222.042 11.3239 222.775 13.4231 223.502C14.4897 223.88 15.5514 224.257 16.974 224.761C18.4219 225.226 20.2358 225.809 22.7812 226.626C26.3655 227.785 30.9388 229.323 36.0976 230.775C38.6677 231.531 41.3648 232.324 44.1258 233.135C46.9067 233.88 49.7519 234.642 52.5978 235.404C63.9781 238.468 75.4885 241.085 82.897 242.723C88.1306 243.897 93.6781 245.005 99.4299 246.199C105.2 247.305 111.175 248.503 117.322 249.574C129.604 251.786 142.502 253.869 155.437 255.67C158.67 256.128 161.908 256.553 165.137 256.958L167.394 257.234L169.384 256.018C170.765 255.175 172.142 254.333 173.516 253.494C179.001 250.122 184.408 246.765 189.677 243.461C200.214 236.855 210.208 230.486 219.196 224.715C228.339 218.859 227.838 219.18 237.018 213.301C241.598 210.356 242.771 209.631 246.759 207.112C246.889 207.03 246.997 206.982 247 207.007C247.003 207.029 246.918 207.104 246.805 207.181Z" fill="#181225"/>
<path d="M255.412 202.061C255.412 202.061 197.618 201.066 149.607 196.519C107.473 192.529 90 188 90 188C90 188 95.2411 190.76 98.8613 192.421L98.6575 195.532C127.157 199.796 184.276 206.918 247.134 206.778C247.134 206.778 250.699 210.609 252.491 213.403L253.708 225.358C249.982 228.029 246.235 230.675 242.502 233.279C242.504 233.277 242.507 233.275 242.51 233.273V248.359L242.753 248.292C255.899 249.756 264.663 250 264.663 250C264.663 250 265.637 221.268 266.367 206.295C266.367 206.295 309.335 200.106 342.809 193.153C344.27 190.957 345 189.005 345 189.005C317.369 195.836 255.412 202.061 255.412 202.061Z" fill="#181225"/>
<path d="M234.119 165.563C237.176 162.224 240.275 158.337 241.808 156.374C242.451 155.55 242.829 154.553 242.903 153.511C247.395 89.8597 256.387 40.9464 257.945 32.7815C258.094 31.9986 257.938 31.1961 257.507 30.5259C256.447 28.8758 254.317 25.6302 252.506 23.3035C251.836 22.4434 250.797 21.9648 249.709 22.002C238.567 22.3826 174.337 24.97 126.685 35.3805C125.867 35.5595 125.121 35.9609 124.511 36.5366C123.257 37.7199 120.945 40.0047 118.526 42.914C117.995 43.5535 117.606 44.2994 117.399 45.1053C115.481 52.5506 105.289 94.1841 102.011 150.024C101.956 150.954 102.109 151.883 102.464 152.744C103.04 154.144 104.118 156.61 105.853 160.047C106.184 160.703 106.819 161.149 107.549 161.226C112.946 161.8 136.414 164.215 161.354 165.609C191.409 167.289 223.288 167.021 231.078 166.923C232.238 166.908 233.335 166.419 234.119 165.563Z" fill="#9C84FD"/>
<path d="M248.416 177.998C222.665 177.775 196.914 177.271 171.184 176.045C158.32 175.408 145.472 174.508 132.64 173.413C119.808 172.316 106.993 171.039 94.2041 169.494L93.5262 169.41L93.2361 169.374C93.1638 169.341 92.9882 169.396 93.0006 169.291L93.0449 168.691L93.1346 167.477L93.3126 165.067L93.6685 160.246L94.3803 150.605C94.9614 144.186 95.4874 137.762 96.1221 131.348C96.8117 124.939 97.4031 118.52 98.2223 112.126C98.6172 108.927 98.9737 105.724 99.4001 102.529L100.716 92.95C102.566 80.1919 104.704 67.4695 107.415 54.8593C108.794 48.5604 110.262 42.2763 112.076 36.0793C112.535 34.5318 112.996 32.9847 113.507 31.4506L113.898 30.3012L114.098 29.7275L114.21 29.4276L114.314 29.1464C114.34 29.0418 114.491 29.0798 114.573 29.0396L117.003 28.5108C120.154 27.837 123.311 27.1997 126.471 26.581C151.759 21.6609 177.272 17.9241 202.903 15.343L212.521 14.4401C215.728 14.1406 218.943 13.9436 222.153 13.6903C228.571 13.1476 235.009 12.9011 241.439 12.5325C244.657 12.391 247.877 12.3282 251.096 12.2221C254.315 12.1217 257.534 12.0116 260.755 12.0363L270.418 12.0063L271.022 12.0044L271.501 12.0029L271.802 12.0019C271.891 12.0115 272.054 11.9589 271.982 12.1014L271.678 13.661L271.226 16.0328L270.344 20.7818C268.043 33.4564 265.945 46.1691 264.024 58.9076C262.097 71.6454 260.341 84.4098 258.815 97.2018C255.698 122.776 253.43 148.462 252.401 174.202C252.261 177.399 252.09 177.67 251.894 177.664C251.698 177.657 251.552 177.375 251.692 174.175C252.723 148.409 254.992 122.706 258.111 97.1166C259.638 84.3171 261.395 71.546 263.322 58.8016C265.245 46.0563 267.344 33.3375 269.646 20.654L270.529 15.9009L270.982 13.5261L271.097 12.9323L271.126 12.7839C271.139 12.7169 271.142 12.7005 271.14 12.7137L270.411 12.7163L260.762 12.7463C257.545 12.7216 254.33 12.8316 251.115 12.932C247.9 13.0379 244.684 13.1006 241.471 13.2419C235.048 13.6101 228.617 13.8561 222.205 14.3984C218.998 14.6514 215.786 14.8482 212.583 15.1475L202.974 16.0495C177.367 18.6281 151.871 22.3624 126.607 27.2778C123.45 27.8958 120.297 28.5325 117.152 29.205L114.865 29.702L114.567 30.537L114.18 31.6749C113.673 33.1974 113.214 34.7375 112.757 36.2783C110.95 42.4504 109.485 48.7232 108.109 55.0096C105.402 67.5973 103.267 80.3054 101.418 93.0507L100.103 102.621C99.6773 105.813 99.3212 109.014 98.9266 112.21C98.108 118.599 97.5171 125.014 96.8279 131.417C96.1938 137.827 95.6681 144.247 95.0873 150.662L94.3758 160.298L94.0201 165.116L93.8423 167.525L93.754 168.721C93.7509 168.725 93.754 168.722 93.7707 168.725L94.2908 168.789C107.066 170.332 119.877 171.609 132.7 172.705C145.524 173.8 158.366 174.699 171.219 175.336C196.931 176.561 222.679 177.065 248.422 177.288C251.62 177.31 251.895 177.467 251.894 177.664C251.893 177.859 251.616 178.02 248.416 177.998Z" fill="#181225"/>
<path d="M176 188.807L176.114 185C176.114 185 209.485 186.803 228 186.803L227.781 191C227.781 191 203.419 190.694 176 188.807Z" fill="#181225"/>
<path d="M235.053 189.575C235.786 189.466 236.517 189.471 237.249 189.449C238.379 189.424 239.486 189.4 240.539 189.377C241.072 189.371 241.59 189.366 242.101 189.361C242.107 189.359 242.105 189.355 242.105 189.355L242.103 189.353L242.113 189.182L242.161 188.473L242.202 187.883L242.222 187.631L242.227 187.624C241.389 187.596 240.514 187.566 239.593 187.535C238.305 187.478 236.468 187.435 235.205 187.3C235.168 187.297 235.142 187.275 235.149 187.253C235.153 187.234 235.177 187.221 235.206 187.219C236.463 187.102 238.311 187.084 239.597 187.046C240.118 187.035 240.619 187.024 241.107 187.013C241.754 187.009 242.381 187.004 243 187C242.967 187.53 242.936 188.05 242.904 188.571L242.86 189.191L242.829 189.611L242.806 189.918L242.801 189.995C242.783 190.005 242.744 189.997 242.717 189.999L242.538 189.996C241.994 189.984 241.445 189.972 240.88 189.96C240.413 189.944 239.935 189.927 239.44 189.91C238.719 189.88 237.988 189.85 237.245 189.82C236.514 189.785 235.782 189.778 235.052 189.657C235.014 189.65 234.992 189.627 235.002 189.605C235.009 189.589 235.029 189.578 235.053 189.575Z" fill="#181225"/>
</svg>
