<svg version="1.1" id="Layer_1" xmlns="http://www.w3.org/2000/svg" x="0" y="0" viewBox="0 0 1724 834.4" style="enable-background:new 0 0 1724 834.4" xml:space="preserve">
  <style>
    .st0{fill:#f177ad}.st1{fill:#ef2079}.st2{fill:#f260a0}.st3{fill:#f177ae}.st4{fill:#f14a93}.st6{fill:#f48abb}.st7{fill:#f8fcfb}.st8{fill:#f7fbfa}.st9{fill:#fafdfc}.st10{fill:#68737e}
  </style>
  <path class="st0" d="M23.1 283.2c9.9-29.8 23.8-57.7 40.3-84.3a421.9 421.9 0 0 1 69.6-85.1c41.6-39.2 89-69.2 143-88.7 35.5-12.8 72.1-20.3 109.9-22.4C445.6-.6 504 5.9 560.5 26.2c30.3 10.8 58.8 25.2 85.7 43 1 .6 1.8 1.4 2.8 2.1-1.1 2.8-3.8 2.3-5.9 2.8-41.8 10-83.6 20-125.4 29.9-3.8.9-4.8 2.1-3.8 6.1 8.1 33.6 16 67.2 23.8 100.8 3.2 13.6 7.2 26.9 9.2 40.8-9.8-7.2-19.6-14.3-30.2-20.3-37.8-21.5-78.2-29.9-121.4-23.7-30.7 4.4-59.5 14.9-86.4 30.3-29 16.7-53 38.7-70.7 67.4-10.5 17.1-17.9 35.6-23.3 54.8L175 377c-27.6 11.8-55.3 23.6-82.9 35.6-10.9 4.7-11 5.1-15.6-5.5-9.7-22.2-19.1-44.6-28.7-66.9-8.1-19-16.5-38-24.7-57zm271.6-176c-8.9.1-15.7 5.1-23.3 7.9-3.8 1.4-4.1 3.1-2.4 6.6 6.2 12.8 12.1 25.8 18.1 38.8 3.6 7.9 3.6 7.9 11.7 4 6-2.9 12.4-5 16.8-10.3 10.7-12.9 5.2-35.8-10.4-44.1-3.4-1.8-7.1-2.5-10.5-2.9zm-18.6 59.1c-.1-8.7-6.1-20.5-13.7-26.7-10-8.2-19.9-8.7-30.1-1.5-8.7 6.2-11.5 16.7-7.2 28 2.6 6.9 6.8 13 12.6 17.7 7.3 6 15.7 7.7 24.5 3.6 8.8-4.2 13.9-11 13.9-21.1zm84.9-52.7c.3-4.8-2.5-7.1-7.2-5.7l-7.2 2.1c-9.1 2.8-8.9 2.7-11.9-6.4-1.1-3.2-.1-3.9 2.7-4.7 6.2-1.7 12.4-3.8 18.6-5.6 4.1-1.2 1.5-3.6 1.1-5.5-.4-1.9-.3-4.7-3.8-3.6-10.3 3.2-20.6 6.3-31 9.4-1.6.5-2.6.9-1.9 3.1 5 16.3 9.9 32.7 14.8 49.1.5 1.8 1.2 2.3 3.2 1.7a1587 1587 0 0 1 31-9.4c3.1-.9 2.7-2.6 1.6-4.4-1.1-1.8.4-6.2-4.3-4.7-4 1.2-8 2.3-11.9 3.5-10.8 3.2-10.6 3.1-13.7-7.6-.9-3.1.2-4.1 2.8-4.9 5-1.4 9.9-2.8 14.8-4.4 1-.1 2.5 0 2.3-2zm-126.8 86.1c-.2-1.8-.1-4.3-1.1-6.7-2.8-6.6-3.1-6.7-8.2-1.8-1.5 1.5-4.9 2.4-2.6 5.8 3.2 4.8 1.2 8.8-2.4 12.4-3.8 3.7-8.4 4.6-12.7 1.7-6.8-4.4-12.4-10-16.1-17.3-2.4-4.7-1.2-9.1 2.7-12.6 4.4-3.9 7.6-4.4 12.6-1.3 1.7 1.1 2.7 1.3 4.1-.3 1.2-1.4 2.6-2.6 4-3.7 2.5-2 1.9-3.1-.6-4.7-8.6-5.6-17.2-4.9-25.6 2.1-8.4 7-11.1 17.1-6.8 26.4 4 8.7 10.4 15.5 18.6 20.2 14.5 8.5 33.7-2.6 34.1-20.2z"/>
  <path class="st1" d="M861.2 271.8c23.7-23.6 47.4-47.3 71.1-70.9 11.1-11 22.4-21.9 33.5-32.8 45.6 0 91.2.1 136.8 0 5.1 0 6.4 1.3 6.4 6.4-.2 47.3-.1 94.5 0 141.8-5.1 6.1-11.4 11.1-17 16.8-26.6 26.6-53.1 53.3-79.7 79.9-1.5 1.3-3.1 2.5-4.5 3.9-47.5 47.4-94.9 94.9-142.3 142.3-1.3 1.3-2.4 2.7-3.6 4.1-38.3 38.2-76.5 76.5-114.8 114.7-14 14-28 28-42.6 41.3-1.3 1.2-2.3 2.9-4.3 3.2-.1-2.3-.2-4.7-.2-7V587.1c0-6.9 0-6.9-7.1-6.9H551c13.6-11.3 25.7-24 38.3-36.2 19.4-18.7 38.4-37.9 57.4-56.9 22.2-22.2 44.4-44.5 66.6-66.8.8-.7 1.6-1.3 2.3-2l142.9-142.9 2.7-3.6zM880 450.1c2.2-2 4.2-4.2 6.5-6.1 2.3-1.9 2.6-3.6 1.2-6.4-4.1-7.9-4-7.9 2.3-14.1l1.1-1.1c6.6-6.6 6.6-6.6 15-2.6 1.4.7 2.8 2 4.4.2 2.3-2.5 4.7-4.9 7.2-7.6-17.5-7.9-34.7-15.5-51.6-23.4-4.4-2.1-5.4 1.7-7.7 3.5-1.8 1.4-3.3 2.8-1.8 5.8 4.6 9.2 8.9 18.5 13 27.9 3.5 8 8 15.5 10.4 23.9-2.5 1.4-3.3-1.2-4.3-2.4-2-2.2-3.4-2.6-5.5-.1-2.4 2.8-5.1 5.2-7.7 7.8-8.5 8.5-8.5 8.5-16.7-.4-1.6-1.8-1.7-2.7.1-4.3 3.8-3.5 7.1-7.5 11-10.9 2.4-2.2 1.8-3.3-.1-5.5-2.9-3.5-5-3.3-7.6.2-1.3 1.7-2.9 3.2-4.5 4.7-7.7 7.7-7.6 7.6-15-.2-2-2.1-1.3-3.1.3-4.7 4.5-4.4 8.8-9.2 13.5-13.3 3.3-2.9.8-4.1-.9-5.7-1.6-1.5-2.6-4.4-5.7-1.1-7 7.6-14.3 14.9-21.7 22.1-2.1 2-1.9 3 .1 4.9 9.7 9.4 19.2 19 28.8 28.5 2.8 2.8 5.6 7.5 8.7 7.7 3.2.2 5.9-4.8 8.6-7.6 6.2-6.7 13.3-12.3 18.6-19.7zm-93.6 94.6c-7.7-2.4-14.9-4.7-22.1-6.9-1.5-.5-3-.5-2.6-3.1 1.3-9.6-1.8-15.5-9.4-19.4-6.3-3.2-13.2-1.9-19.9 4.4-5 4.7-9.6 9.7-14.5 14.4-1.8 1.8-1.9 2.8 0 4.7 12.5 12.4 24.8 25 37 37.4l9-8.4c-3.8-3.7-7.5-7-10.9-10.7-1.2-1.3-4.7-2.3-2.5-4.9 2.1-2.6 3.7-6.4 8.8-4.2 5 2.2 10.4 3.4 15.6 5.1 1.8.6 3.4.7 4.8-1 2-2.7 4.3-4.8 6.7-7.4zm125.3-197.5c-10-.1-19.7 7.6-23.3 17.8-3.5 9.8 3.1 19.1 13.6 19.2 4.1 0 7.8-1.2 11.5-3 3.6-1.7 7.1-3.6 10.9-4.9 4.9-1.7 9.2 1.5 8.7 6.2-.7 6.6-9.4 11.7-15.4 8.9-1-.4-1.9-1.9-3.1-.7-2.4 2.3-6.5 4.4-6.4 7.2.1 3.3 4.6 4.3 7.8 5 1.9.4 4.1.5 5.9 0 10.2-2.5 17.6-8.5 21.1-18.5 3.6-10.5-4.6-20.4-15.7-19.3-5.5.5-10.1 3.2-14.9 5.5-2.7 1.3-5.3 2.7-8.4 2.8-4 0-5.8-2.1-5.6-5.9.3-6.5 7.1-11 13.2-8.7.9.3 1.7 1.6 2.7.8 2.7-2.2 6.6-4.4 6.9-7.5.3-2.6-4.1-3.7-6.9-4.5-1.1-.4-2.3-.4-2.6-.4zm50.1-15.1c-1.4-1.2-3.1-3.2-5.2-4.5-2-1.3-2.7 1.3-3.8 2.2-1.9 1.6-3.5 3.6-5.2 5.3-7.7 7.7-7.6 7.6-14.9-.2-2-2.1-1.3-3.1.3-4.7 4.3-4.2 8.3-8.7 12.8-12.6 2.9-2.6 2.7-4.1-.1-6.5-2.3-2-3.5-3.7-6.5-.4-6.7 7.4-13.8 14.4-20.9 21.4-2 1.9-2.1 2.8-.1 4.9 11.8 11.5 23.5 23.1 35 34.9 2.1 2.1 3.1 1.9 5.1-.1 7.2-7.4 14.5-14.7 21.9-21.9 1.7-1.6 2.7-3 0-4.4-2.1-1.1-2.9-6.3-6.8-2.1-4.5 4.9-9.4 9.4-14 14.2-1.5 1.5-2.7 1.9-3.9 0-2.3-3.5-7.5-4.7-7.5-9.9 0-.6 1.1-1.2 1.7-1.8 3.5-3.6 7-7.1 10.5-10.7.6-.5 1.6-1 1.6-3.1zM750.9 499.9c13 13.1 25.5 25.6 37.8 38.2 2 2 3 1.5 4.7-.2 7.1-7.3 14.3-14.4 21.5-21.6 1.4-1.4 4-2.7.7-4.7-2.2-1.3-3.2-6.5-7.2-1.9-2.5 2.9-5.4 5.4-8.1 8.2-8.1 8.1-8.1 8.1-16-.4-1.7-1.8-2-2.9 0-4.8 3.7-3.6 7-7.5 10.8-11 2.1-1.9 1.8-2.9.1-5-3.2-3.9-5.5-3.8-8.3.2-1.1 1.6-2.7 2.9-4.1 4.3-7.8 7.8-7.8 7.8-15.2-.5-1.5-1.7-1.4-2.5.1-3.9 4.8-4.6 9.3-9.6 14.2-14 3.3-3 .3-4.1-1.2-5.7-1.4-1.6-2.5-3.8-5.3-.9-8 8-16.4 15.9-24.5 23.7zm39.6-39.1c-2.1 2.2-3.9 4.4-6 6.3-1.7 1.5-1.4 2.5.1 4 12 11.8 23.9 23.6 35.8 35.5 1.4 1.4 2.4 2 4 .3 7.2-7.4 14.6-14.6 21.9-21.9 3.6-3.6-1.3-4.1-2.3-6-1-1.8-2.4-2.8-4.5-.5-3.9 4.3-8.3 8.2-12.2 12.5-2.3 2.5-3.7 2.7-6.2.1-9-9.3-18.3-18.4-27.6-27.5-1-1.1-2-1.9-3-2.8z"/>
  <path class="st2" d="M1520 59.3c18.7 9.9 36 21.9 52.5 35.1 33.4 26.8 61.4 58.4 84.1 94.7 27.6 44.1 45.8 92.1 57.4 142.6 5.1 22.1 8.2 44.4 9.4 67 2.9 53.7-5 105.7-23.1 156.2-18.4 51.3-45.8 97.2-82 137.9-1.6 1.9-3 4-5.2 5.3-2.1-.3-4.1-.9-6.3-1-14-.6-28.1-1.3-42.1-2.2-18.8-1.2-37.5-2.6-56.3-3.7-13.9-.8-27.7-1.3-41.6-2.1-8.1-.5-8.5-1.4-7.8-9.2 1.2-13.2 2.2-26.4 2.9-39.6.9-14.2.9-28.5 2.3-42.7.6-6.3.4-12.6 1-18.8.7-8.2 1-16.5 1.5-24.7 1.7-2.2 3.4-4.5 5.1-6.7 29.1-37.5 43.9-80 44.9-127.3.4-20.1-2.3-39.7-7.8-59.1-11.2-39.8-32.4-73.2-63.1-100.7-13.2-11.8-28.1-21.1-43.3-29.9 8.2-1.3 16.4-2.5 24.6-3.8l55.6-8.4c18.4-2.7 36.7-5.4 55.1-7.9 2.9-.4 3.9-1 3.4-4.4-2.6-16.5-4.8-33.1-7.2-49.7-2.5-17.4-5.1-34.8-7.6-52.2-2.1-14.9-4.3-29.8-6.4-44.7zm69 394.4c6.8-3 12.7-5.7 18.6-8.3l1.8-.9c1.7-.8 2.7-.9 3.9 1.2 4.7 7.5 11.1 10.2 19.6 8.3 7.7-1.8 11.1-7.6 12.1-14.8 1-6.9 1.1-13.9 1.9-20.8.4-3.5-.7-4.5-4.2-4.7-14.4-.8-28.9-1.8-43.3-2.8-8.8-.7-8.7-.8-9.4 7.8-.2 2.6.6 3.5 3.3 3.5 3.7 0 7.3.2 11 .6 6.8.7 6.6.7 5.8 7.3-.3 2.6-2 3.2-3.8 4-4.7 2.1-9.4 4.3-14.2 6-2.5.9-3.3 2.3-3.5 4.7-.4 5.3-.5 10.7-2.5 15.7-1.5 3.6-.6 6 3.1 7.4 5.2 2.1 6.9 5.4 4.2 10.8-1.3 2.6-1.9 5.7-2.3 8.7-.5 3.6-2.4 4.5-5.7 4.7-7.8.5-7.8.7-9.9 8.6l-.9 3.3c3.1.7 5.8-.4 8.6-.7 15.7-1.4 31.4-3.2 47.2-4.3 5.2-.4 4.6-4.2 5.8-7.1 1.2-2.8.3-4.5-2.3-6-3.8-2.3-7.3-5.2-11-7.8-10.9-8.1-22-15.9-33.9-24.4zM1554.9 284c-.1 11.8 7.9 22 19.6 23.3 13.3 1.5 23.8-4.8 32.2-14.5 5.9-6.9 6.7-15 2.8-23.3-3.9-8.3-10.2-13.6-19.7-13.7-13.1-.1-23.2 6-31.1 16.1-2.7 3.5-3.8 7.7-3.8 12.1zm79.1 47.7c-.6-7.3-4.8-16.1-7.4-25.3-.5-2-2-1.4-3.2-1-16.1 5.2-32.2 10.4-48.4 15.5-2.1.7-2.5 1.4-2 3.5 2.1 8.6 2 8.6 10.1 6 2.4-.7 4.9-1.2 7.1-2.2 3.5-1.5 5.2-1.1 6.1 3.1.9 4.3 2.4 8.6 4.9 12.5 4.8 7.4 11.7 10.1 19.7 7.7 8.3-2.6 13.1-8.9 13.1-19.8zm5.3 30.2c-17.6 2.2-34.3 4.3-50.9 6.2-1.8.2-2.2.9-2 2.6 1.3 10.7 2.6 21.4 4 32.1.6 4.6 4.1 1.9 6.2 2.3 2.3.4 3.1-.7 2.7-3.3-.8-5.1-1.1-10.2-1.8-15.3-1.1-7.5-1.2-7.5 6.1-8.5 1.8-.2 3.6-.6 5.4-.8 1.9-.3 3 .1 3.2 2.5.4 4.6 1.7 9.2 1.7 13.8 0 4.7 1.4 5.9 6.1 4.9 3-.6 3.5-1.6 3.1-4.1-.4-2.8-.8-5.6-1-8.4-.9-10.2-.9-10.1 9.1-11.4 2.1-.3 2.9-.1 3.2 2.2.7 6.6 1.7 13.2 2.6 19.7.3 1.9-.1 4.5 3.2 3.2 2.3-.9 6.9 1.3 6.1-4.4-1.5-10-2.7-20.1-3.8-30.1-.5-2.9-1.5-3.9-3.2-3.2zm-36.6 213.4c-.3-1.4-1.6-1.7-2.5-2.2-14.1-8.5-28.3-16.8-42.3-25.4-2.5-1.5-3.5-1.3-4.9 1.1-5.3 9-10.7 18-16.2 26.9-.7 1.1-1.6 1.9-.1 3.3 4.4 3.8 6.3 3.7 9.2-1.2 2-3.3 3.9-6.5 5.9-9.8 4.7-7.8 4.5-7.6 12.6-3 4.1 2.4 6 4.2 2.2 8.5-2.4 2.7-3.7 6.3-5.8 9.3-2.5 3.5-2.2 5.5 1.9 7.5 2.7 1.3 3.9 1.5 5.2-1.5 1.2-2.7 3.1-5.1 4.6-7.7 5.4-9.1 5.6-9.1 14.2-2.5 1.7 1.3 1.9 2.1.8 3.9-3.5 5.5-6.6 11.1-10.2 16.5-1.6 2.4-1.7 3.9 1.1 4.9 2.3.8 4.3 4.9 7 0 5-9 10.6-17.7 15.9-26.5.7-.7 1.1-1.4 1.4-2.1zm24.2-52.6c-1.3-2.4-4.1-2.3-6.2-3.5-1.5-.8-2.4.1-3 1.6-1.3 3.2-2.8 6.4-4.1 9.6-1.1 2.8-2.3 3.3-5.2 2-11.9-5.4-24-10.4-36-15.8-2.9-1.3-4.2-1.1-5 2-.3 1.3-.9 2.5-1.6 3.6-2.1 3-.5 4.1 2.2 5.3 9 3.8 18 7.7 26.9 11.7 4 1.8 10 2.3 11.4 6 1.1 2.8-2.6 7.4-4.2 11.3-.1.2-.1.3-.2.5-2.3 3.2-.1 4.3 2.5 5.3 2.3.8 4.3 2.9 6-1.3 4.8-11.8 10.2-23.4 15.3-35.1.5-1.1.8-2.1 1.2-3.2z"/>
  <path class="st3" d="M1466.7 554.1c-.5 8.2-.8 16.5-1.5 24.7-.6 6.3-.4 12.5-1 18.8-1.3 14.2-1.4 28.4-2.3 42.7-.8 13.2-1.7 26.4-2.9 39.6-.7 7.8-.3 8.8 7.8 9.2 13.9.8 27.7 1.3 41.6 2.1 18.8 1.1 37.5 2.6 56.3 3.7 14 .9 28 1.6 42.1 2.2 2.2.1 4.2.7 6.3 1-11.2 13.9-24.6 25.7-38.2 37.2a412.21 412.21 0 0 1-93.3 59.9 399.32 399.32 0 0 1-102.4 31.9c-27.3 4.7-54.8 6.7-82.4 5.7-56-1.9-110-12.5-161.4-35.6-43.5-19.6-82.2-46.1-116.9-78.9-7-6.6-14.1-13.2-20.5-20.3 0-48 .1-96-.1-144 0-4.8 1.3-6.1 6.1-6.1 45.3.2 90.6.1 136 .1 7.4 6.9 14.8 13.8 22.1 20.8 16.4 15.9 34.7 29 55.3 38.8 37.9 18.1 77.8 23.8 119.3 17.6 35-5.2 66.7-18.4 95.2-39.4 12.8-9.2 24.1-20.1 34.8-31.7zm-389.6 67.1c-.2 1.4-.2 2.1-.4 2.7-4.1 10.7-8.3 21.4-12.3 32.1-.8 2.2-3 4.4.3 7 2.9 2.3 5.1 3.1 8.2.7 2.1-1.6 4.6-2.7 6.9-4 8.2-4.6 16.4-9.1 24.6-13.7-6.5 8.4-13.7 15.9-20.4 23.8-5.6 6.5-5.8 3.9.8 10.4 2.6 2.6 4.2 1.8 6.3-.7 8.9-10.6 17.9-21 26.9-31.5 6.8-7.9 6.6-7.7-.8-14.7-3.1-2.9-5.1-2.6-8.5-.6-10.5 6.3-21.2 12.3-32.9 19 4.2-11 8-20.8 11.9-30.6 4.1-10.5 4-10.4-5-17.4-2.4-1.9-3.3-1.4-5.1.6-10.3 12.2-20.5 24.5-31.3 36.2-4.7 5.1.4 5.9 2.3 8.2 2.3 2.8 4.2 2.7 6.6-.4 6.7-9 14.1-17.7 21.9-27.1zm271.3 142.6c-4.1-6.6-7.8-12.9-11.7-18.9-1.6-2.4-1.8-3.8.8-5.6 2.8-2.1 4.9-4.8 5.6-8.5 2.3-12.1-4.2-20.8-16.5-21.4-6.9-.3-13.9.8-20.9.9-4 0-5 1.6-4.7 5.4 1.2 15.2 2.2 30.5 3.2 45.8.2 3.1-.1 6 4.7 5.6 7.4-.7 7.4-.5 7-6.2-.2-3.3-.7-6.6-.7-9.9 0-1.9-1.5-4.9 1.9-5.2 3-.3 6.5-2 8.7 2.2 2.5 4.8 5.6 9.4 8.4 14.1 1 1.6 1.8 3.1 4.2 2.8 3-.6 6.1-.7 10-1.1zm-78.5.5c10.5 0 17.7-5 19.6-14.8 2.2-11.6 3.7-23.3 5.5-35 .2-1.2.8-3.2-.7-3.6-3-.9-6.3-1.8-9.2-1.4-2.1.3-1.6 3.6-1.9 5.6-1.8 10.8-3.3 21.7-5.2 32.5-.8 4.5-3.3 7.5-8.4 7.5-7.8.1-11.6-3.6-10.7-11.4 1.4-11 3.1-22.1 5-33 .6-3.7-.5-5.4-4.1-5.4-3.1 0-7.2-2.7-7.8 3.8-.9 9.8-2.1 19.6-4.3 29.1-3.8 16.4 7.6 26.3 22.2 26.1zm-50.4-12c11.8 0 18.7-7.3 17.4-16.6-.8-5.9-4.6-10.1-9.2-13.7-3.6-2.9-7.8-5.2-10.4-9.2-2-3.2-1-7.1 2.2-8.3 4.8-1.9 14.8.9 14.2 8.6-.1 1-.5 2.3.6 2.7 3.1.9 6.4 4 9.2 2.5 2.6-1.4 1.5-5.4.9-8.3-.6-2.6-1.9-4.9-3.6-7-5.7-6.7-18.1-10.2-26.4-7.3-8.4 2.8-12.1 12-7.9 19.8 1.7 3.3 4.1 6 6.9 8.4 3.4 2.7 6.9 5.2 9.9 8.3 3.7 3.8 2.2 9.5-2.5 10.8-6.3 1.7-14-3.8-14.1-10.3 0-1.1.8-2.6-.7-3.1-3.2-1-6.8-4.2-9.6-2.4-2.5 1.6-1.7 5.8-.6 8.9.7 2 1.7 4 2.9 5.7 5.8 7.2 13.8 9.9 20.8 10.5zm-29.5-71.4c-.3-2.9-4.6-2.6-7-4.6-1.9-1.5-3.3-.5-4.7.8-11.8 10.8-23.6 21.5-35.3 32.3-7.1 6.5-6.8 7.1 2.3 10.6 4.2 1.7 5.1-2.4 6.9-4.1 2.8-2.8 4.9-3.7 8.5-1.3 3.1 2.2 6.7 3.8 10.2 5.2 3 1.2 3.3 2.9 2.7 5.8-1.8 8.3-1.6 8.1 5.7 12 3.4 1.8 4.2.7 4.5-2.5 1-8.9 2.1-17.8 3.2-26.7.9-8.6 1.9-17.3 3-27.5zm207.9 67.9c.3-4.9-2.7-7.4-7.3-6-3.2 1-6.4 1.8-9.5 2.8-10.7 3.4-10.7 3.5-13.6-7.4l-.3-.9c-.6-2.4.1-3.6 2.6-4.3 5-1.2 9.9-2.9 14.8-4.2 2.1-.6 2.7-1.6 2.3-3.9-.8-4.3-2.3-6.3-6.9-4-2.2 1.1-4.8 1.4-7.1 2.1-9.5 2.8-9.4 2.8-11.9-6.9-.8-2.9.1-3.6 2.7-4.3 5.9-1.5 11.7-3.7 17.7-5.1 3.6-.8 3.6-2.6 2.6-5.3-.9-2.3-.8-5.2-5.1-3.8-9.6 3.2-19.4 5.8-29.1 8.5-2.4.7-3.2 1.8-2.5 4.2 4.7 15.7 9.4 31.4 14.1 47.2.7 2.6 1.9 3.3 4.5 2.5 9.7-3 19.4-5.9 29-8.8 1.3-.3 2.9-.4 3-2.4zM1132 644.7c-1.6 0-1.9 1.3-2.5 2.2-9.3 13.8-18.5 27.6-27.9 41.4-1.4 2-1.1 3.1.8 4.3 8.7 5.8 17.5 11.6 26.1 17.6 3.6 2.5 4.2-.8 5.6-2.5 1.5-1.8 2.4-3.4-.5-5.1-3.3-1.9-6.4-4.2-9.6-6.3-9.9-6.6-9.8-6.6-2.8-16.4 1.5-2.1 2.5-2.5 4.6-1 4.2 3 8.6 5.6 12.8 8.7 2.3 1.7 3.3 1.2 5-1 2.8-3.5 2.6-5.6-1.5-7.6-2.2-1.1-4.1-2.8-6.2-4.2-8.4-5.6-8.4-5.5-2.2-13.9 1.5-2 2.7-2.4 4.8-.8 5.1 3.7 10.6 6.9 15.6 10.7 2.8 2.1 4 1.1 5.2-1.4 1.1-2.1 4.1-3.8.2-6.3-8.7-5.6-17.2-11.5-25.7-17.2-.4-.3-1.1-.8-1.8-1.2z"/>
  <path class="st4" d="M1520 59.3c2.1 14.9 4.3 29.9 6.4 44.8 2.5 17.4 5.1 34.8 7.6 52.2 2.4 16.6 4.6 33.2 7.2 49.7.5 3.3-.5 4-3.4 4.4-18.4 2.6-36.8 5.2-55.1 7.9-18.5 2.7-37 5.6-55.6 8.4-8.2 1.2-16.4 2.5-24.6 3.8-.8-.3-1.6-.5-2.3-.9-35.9-17.8-73.6-26.1-113.8-22.4-23.6 2.2-46 8.3-67.4 18.2-24.7 11.4-45.9 27.8-65.2 46.8-14.9 14.7-29.9 29.4-44.9 44.1 0-47.3-.1-94.5 0-141.8 0-5.1-1.3-6.4-6.4-6.4-45.6.2-91.2.1-136.8 0 16.5-16.2 32.7-32.7 49.4-48.6 21.1-20.1 43.7-38.3 68.1-54.3 46.5-30.6 96.9-51.1 151.9-60.1 33.8-5.6 67.8-6.3 101.9-3 47.4 4.6 93 16.4 136.9 34.6 16 6.4 31.5 13.5 46.1 22.6zm-320.3 77.2a38.5 38.5 0 0 0-6-18.8c-6.2-9.6-15.9-13.4-27.2-10.6-5.1 1.3-10.1 3.3-15.2 4.6-2.9.7-3.1 1.9-2.3 4.5 5.1 15.7 10.1 31.5 15.1 47.2.7 2.1 1.5 2.8 3.9 1.9 4.9-1.8 10.1-2.9 15.1-4.8 10.2-3.6 16.5-12.6 16.6-24zm168.1-47.2c-3.2 0-8.4 1.9-12.6 6.1-8.7 8.9-10.8 20-9.3 31.7 1.3 10.9 9 18 20 19.8 9.8 1.6 19.3-3.7 24-13.2 3.2-6.4 4.4-13.3 4.3-20.3-.1-14.2-9.9-24-26.4-24.1zM1240 96.6c-.2-6.7-.9-7.2-7.3-5.9-8.9 1.9-17.9 3.8-26.8 5.3-3.1.5-4.1 1.2-3.4 4.7 3.4 15.7 6.5 31.5 9.4 47.3.6 3.4 2 3.8 5 3.1 9.7-2.1 19.5-4 29.3-5.9 2.4-.5 4.3-.8 3-4-1-2.4.5-6.5-4.8-5.2-6.1 1.5-12.3 2.6-18.5 3.8-1.8.4-4 .7-4-2.1.1-4.2-4-8.2-.6-12.5.3-.4 1.3-.2 1.9-.3 4.7-1 9.4-2.2 14.2-2.8 3.6-.5 3.6-2.1 3.2-5.1-.5-4-2.2-5-5.9-3.9-2.7.8-5.5 1.3-8.3 1.8-9 1.8-8.8 1.7-10.6-7-.6-3.2.1-4.5 3.4-5 6.1-1 12.1-2.4 18.1-3.6 1.6-.2 3.6-.2 2.7-2.7zm30.8-10.6c-6.5.5-12 1-17.4 1.3-1.9.1-3 .5-2.8 2.9 1.6 16.9 3 33.7 4.4 50.6.1 1.1-.1 2.8 1.5 2.7 3.3-.1 6.8 0 9.7-1.2 1.7-.7.2-4 .2-6.1 0-.3-.1-.7-.1-1-.3-3.9-2-8.9-.3-11.5 1.4-2.1 7.1-1.2 10.8-1.7 7.4-1 14-3.6 17-11.1 2.7-6.6 1.6-13.2-3-18.7-5.6-6.5-13.2-7-20-6.2zm136.5 11.4c.8 6.4 1.3 12.4 2.3 18.2 2.2 12.7 3.9 25.3-3 37.2-.3.6-.5 1.2-.6 1.9 0 .6 0 1.6.4 1.8 3 1.2 6.1 3 9.3 3.2 2.2.2 2.2-3.3 2.9-5.1 2.7-7.8 5.4-15.2 12.6-20.7 7.7-5.9 14.4-13.2 21.7-20-2.2-.9-4-1.3-5.5-2.2-4.5-2.5-7.7-1.3-11 2.6-4.3 5-9.3 9.3-14.8 14.7-.6-8.1-1.1-15.3-1.8-22.5-.2-2.2.3-4.8-2.7-5.8-3.2-1.1-6.3-2.1-9.8-3.3zm-83.9 43.8v-.1c4.3.2 8.7.2 12.9.8 4.9.7 4.2-2.4 4.5-5.4.4-3.4-.9-4.3-4.1-4.3-5.5 0-11-.6-16.4-.6-3.5 0-3.9-1.4-3.8-4.6.7-12.8 1-25.6 1.6-38.4.1-3.1-.5-4.8-4-4.4-1.3.2-2.7 0-4-.1-2.7-.4-3.7.6-3.8 3.5-.5 16.4-1.2 32.9-2 49.3-.1 2.6.6 3.6 3.3 3.6 5.1.2 10.4.5 15.8.7z"/>
  <path d="M550.9 580.1h141.9c7.1 0 7.1 0 7.1 6.9v128.4c0 2.3.1 4.7.2 7-11.9 12.1-25.5 22.3-39.1 32.3-37.2 27.5-77.7 48.7-122 62.5-24.3 7.5-49.1 12.5-74.4 15.1-19.4 2-38.9 2.4-58.3 1.5-26.4-1.2-52.5-5.1-78.2-11-38.4-8.9-75.4-21.8-110.5-39.9-17.8-9.2-35.2-19.2-51-31.7 19.9-2.8 39.7-5.5 59.6-8.4 26.4-3.8 52.8-7.9 79.2-11.7 8.5-1.2 8.5-.9 7.6-9.7-.1-1.5-.3-3-.5-4.4-2.8-19-5.7-38-8.5-57-2.5-17.4-5.2-34.7-7.4-52.1-.9-6.7-3.2-13.1-2.4-20 10.2 6.5 20.2 13.3 31.2 18.4 21.9 10.2 44.7 17.1 68.8 19.9 25.6 3 50.6 1.1 75.4-5.2 30.1-7.4 57-21.5 81.3-40.9zM468 733.9c1 .1 2 .3 2.7-.8.9-1.7.2-3.3.1-5 0-1 .6-2.2-.8-2.8-1.7-.6-3.4-.2-5 0-1.7-.2-3.4 0-4.9.8-1.4.1-2.7.1-4.1.2-1.7-.2-3.4 0-4.9.8-1.6 0-3.1-.2-3-2.4.3-3.8-1.9-7.4-.5-11.2.1-.4 1.5-.3 2.3-.4 4.4-.4 8.8-.7 13.3-1.1 9.1-.9 9.7-1.4 8.9-8.2-.2-1.7-.2-2.3-2.6-2-10.9 1.4-21.9 2.3-32.8 3.3-2.2.2-3.1 1-2.6 3 1.4 4.9 1.4 10 2 15.1 1.4 11.7 2.7 23.5 4 35.2.2 2 .6 3 3 2.7 10.8-1.1 21.5-2.1 32.3-3.1.9-.1 1.7-.2 1.7-1.3 0-2.5.6-5.3-.2-7.4-.9-2.1-3.5.4-5.3-.3-.4-.2-1 .1-1.5.2-1.7-.2-3.4 0-4.9.8-1.4.1-2.7.1-4.1.2-1.7-.2-3.4 0-4.9.8-1.7-.6-3.9 1-5.3-1 .2-1.7 0-3.4-.8-4.9-.1-1.4-.1-2.7-.2-4.1v-5c5.9-.6 12-1.3 18.1-2.1zm34.3 17.3c4.7.2 9.4-1 13.7-3.2 7.8-3.9 11.1-9.5 10-17.2-.9-6.6-6.5-11.1-14.7-12.8-5.7-1.2-11.7-.1-17.3-1.9-2.2-.7-3.7-2-4.2-4.4-.5-2.5.3-4.6 2.3-6.2 4.7-3.8 11-3.3 14.9 1.3.5.6.9 1.6 1.8 1.5 3.4-.5 7.6-.8 9.6-3.2 1.2-1.5-1.7-4.9-3.8-6.9-5.7-5.4-15.4-6.4-24.3-2.3-8.6 3.9-13 10.4-12.1 17.5.9 7 6 11.2 15.5 13.1 5.1 1 10.3.1 15.4 1.6 5 1.4 7.3 6 4.7 9.8-3.7 5.6-14.5 5.6-18-.1-1.1-1.8-1.9-2.4-3.8-1.7-1.7.6-3.5 1.1-5.3 1.5-3.5.6-3.1 2.4-1.7 4.8 3.7 6.7 9.7 9 17.3 8.8zm-88.6-36.6c5.4.2 10 .3 14.7.7 5.1.4 1.9-3.5 2.7-5.2.8-1.7 1.3-3.8-2.2-4.1-13.2-.8-26.5-1.9-39.7-2.9-2.6-.2-3.3.8-3.6 3.2-.8 6.3-.9 6.3 5.2 6.7 2.2.1 4.3.3 6.5.2 3.6-.2 5 1 4.7 4.8-1.1 12.4-1.4 24.9-2.9 37.2-.8 6.6 3.3 5.2 6.8 5.9 4.4.9 5-1.3 5.2-5.1.6-13.8 1.7-27.5 2.6-41.4zm150.9 13c-.7-1.5-1.2-2.9-1.9-4.2-5.3-11.4-10.6-22.8-16-34.2-1.3-2.7-1.1-4.1 1.9-5.1 3.4-1.2 6.6-3 10-4.4 3.2-1.3 1.4-3.3.4-4.7-1-1.5-.4-5.5-4.2-3.7-12.5 5.7-24.9 11.6-37.4 17.4-.8.4-1.7.6-1.6 2.1.6 5.1 3.7 6.9 8.5 4.7 2.1-1 4.4-1.6 6.3-2.9 3.5-2.4 4.7-.6 6 2.4 5.3 11.6 10.9 23.1 16.1 34.7 1.4 3.2 2.9 3.6 5.7 2.1 1.4-.8 3-1.5 4.5-2.2.8-.6 2-.8 1.7-2z" style="fill:#0a1b2a"/>
  <path class="st2" d="M294.2 588.1c-.8 6.9 1.5 13.3 2.4 20 2.2 17.4 4.9 34.7 7.4 52.1 2.8 19 5.6 38 8.5 57 .2 1.5.4 3 .5 4.4.9 8.7.8 8.4-7.6 9.7-26.4 3.8-52.8 7.8-79.2 11.7-19.8 2.9-39.7 5.6-59.6 8.4-13.1-8.6-24.9-18.8-36.3-29.5-43.8-41.3-75.8-90.5-97.8-146.3C18 538.3 7.5 500 2.7 460.2c-7.2-60.3.1-118.9 19.8-176.2.1-.3.4-.5.6-.8 8.3 19 16.6 38 24.8 57.1 9.6 22.3 19 44.6 28.7 66.9 4.6 10.6 4.8 10.2 15.6 5.5 27.6-12 55.2-23.8 82.9-35.6 13.3-5.7 26.6-11.2 39.9-16.8-.2 1.3-.4 2.6-.7 3.9-6.6 28-9.3 56.4-5 85 6.7 44.2 26 82.2 56.9 114.4 8.6 8.9 18.3 16.7 28 24.5zm-175.9-89.2c5.6 5.6 11.8 5.9 17.9 2.1 6.4-3.9 7.3-10.4 6-17.1-1.4-7-3.3-13.9-4.9-20.9-.5-2.2-1.2-3.1-3.7-2.4-16.4 4.3-32.8 8.4-49.2 12.5-1.4.4-2.6.6-2 2.6 2.6 8.4 3.5 17.2 7.2 25.3 3.4 7.3 8.5 10.5 15.1 10 7.2-.7 12.1-4.2 13.6-12.1zM178.1 667c12.4 0 26.2-10 29.9-20.8 1.5-4.3 2-8.6 1-13.2-2.2-9.5-9.6-15.7-14.9-23.3-1.2-1.7-2.3.2-3.2.9-13.3 10.2-26.6 20.4-40 30.5-1.9 1.4-1.7 2.3-.4 3.9 3.1 3.9 6 7.9 9.2 11.8 5 6.4 11.4 10.1 18.4 10.2zM100 537.1c-.4 3.4.8 6.9 2.2 10.2 5.1 12.2 14 16.1 26.5 11.9 9.1-3.1 18.2-6.3 27.3-9.4 6.9-2.4 6.9-2.4 4.3-9.4-.1-.2-.1-.3-.2-.5-.7-2.7-1.8-3.5-4.9-2.3a898.8 898.8 0 0 1-31.4 11c-6.7 2.2-11.4.2-13.4-5.5-2.2-6.2.1-10.7 6.9-13.1 10.3-3.7 20.6-7.4 31-10.8 3.3-1.1 4.3-2.4 2.7-5.6-.6-1.2-.9-2.5-1.3-3.7-.7-2.4-1.9-3.1-4.4-2.2-11.1 4-22.3 7.6-33.4 11.8-7.9 2.8-11.9 9-11.9 17.6zm73.7 37.3c-.4.2-.9.4-1.3.7-15 8.1-30 16.3-45 24.4-2.1 1.1-1.8 2.1-.8 3.9 4.9 8.8 9.7 17.7 14.4 26.7 1.9 3.7 3.7 1.2 5.5.3 1.9-1 4.7-1.3 2.6-4.8-2.9-4.8-5.3-9.9-8.2-14.8-1.7-2.8-2.2-4.4 1.5-6.3 11.5-5.8 22.7-12.4 34.1-18.4 3.1-1.6 3.8-3.1 1.7-5.9-1-1.3-1.6-2.9-2.4-4.3-.5-.7-.7-1.9-2.1-1.5zm-53.3 13.4c.3-.1.6-.3.9-.4 15.9-7 31.8-14 47.8-20.9 1.7-.7 1.7-1.6 1-3.1-.8-1.5-1.6-3-2-4.5-.8-3.7-2.7-3.5-5.6-2.2-14.5 6.5-29.1 12.9-43.7 19.1-3.1 1.3-4.1 2.7-2.4 5.7.9 1.6 1.6 3.3 2.3 5 .4.7.6 1.6 1.7 1.3z"/>
  <path class="st6" d="M861.2 271.8c-.9 1.1-1.8 2.4-2.9 3.4-47.6 47.7-95.3 95.3-142.9 142.9-.7.7-1.5 1.3-2.3 2-2.7-3-5.3-6-8-8.8-27.4-28.8-54.6-57.8-82.4-86.2-24.7-25.2-48.8-51-76-73.5-2-13.8-6-27.2-9.2-40.8-7.8-33.6-15.8-67.2-23.8-100.8-.9-3.9 0-5.2 3.8-6.1 41.8-9.8 83.6-19.8 125.4-29.9 2.1-.5 4.8 0 5.9-2.8 20.8 13.3 40.2 28.5 57.6 45.8 52 51.4 103.3 103.2 154.8 154.8zm-127.7 40.9-1.1-.8c2.7-10.9 5.1-22 8.3-32.8 1.6-5.3.1-8.6-3.5-12.1-2.6-2.5-3.9-2.2-6.2.2-10.7 10.8-21.5 21.3-32.3 32-4.7 4.6-4.4 4.4.1 9.5 2.9 3.3 4.6 2.7 7.2-.2 6.7-7.5 13.8-14.7 20.7-22 .5.4.9.8 1.4 1.2-2.7 11.1-5 22.4-8.4 33.3-1.7 5.7-.5 9.2 3.8 12.8 2.3 1.9 3.3 2.1 5.5-.1 10.9-11 21.7-22.1 33-32.7 3.5-3.3 4-5.2.4-8.6-3-2.9-4.7-3.9-8-.3-6.7 7.1-13.9 13.7-20.9 20.6zm-80.7-50c2.8 2.6 5.1 4.6 7.1 6.8 1.6 1.7 2.8 1.5 4.7.6 8.5-4.2 8.6-4.1 15.3 2.6l1.4 1.4c6 6 5.9 5.9 2.3 13.4-.8 1.6-2.8 3.1-.7 5.3 2.3 2.4 4.3 5 6.9 8.1 8.6-18.7 16.6-36 24.6-53.3 1.8-3.9-2.2-4.6-3.7-6.6-1.1-1.6-2.3-3.4-5.3-2.1-17 7.9-34.3 15.6-52.6 23.8zm-15.7-55.1c4.5.1 9.4-3.2 12.9-8.8 4.1-6.5 3.5-13.1-.5-19.2-4.9-7.4-12.1-12.8-18-19.3-1.9-2.2-2.9 0-3.9 1-11.6 11.5-23.1 23-34.8 34.4-2.4 2.3-2.3 3.5 0 5.7 5.5 5.2 5.4 5.3 10.9.1.8-.8 1.7-1.6 2.5-2.5 6.3-6.3 6.3-6.3 12.4-.1 4.5 4.5 9.3 8.4 18.5 8.7zm14.7 53.2c1.8-2 3.6-3.7 5-5.7 1.2-1.8-1-2.5-1.9-3.5-3.9-4.1-7.7-8.3-11.8-12.1-2.3-2.1-2.1-3.3 0-5.4 9.2-8.9 18.1-18.1 27.4-26.9 2.8-2.7 3.1-4.5.1-6.9-.9-.7-1.8-1.5-2.5-2.5-1.6-2.1-2.9-2.1-4.8-.2-11.9 11.9-23.8 23.8-35.7 35.5-1.6 1.5-1.6 2.5 0 4 7.3 7.3 14.6 14.6 21.8 21.9.6.5 1.3 1 2.4 1.8zM1140 548.1c-45.3 0-90.7.1-136-.1-4.8 0-6.1 1.3-6.1 6.1.2 48 .1 96 .1 144-7.6-7.4-15.3-14.7-22.9-22.2-36.8-36.6-73.5-73.3-110.3-110-.9-.9-2-1.8-2.9-2.7 1.2-1.4 2.3-2.8 3.6-4.1 47.4-47.5 94.9-94.9 142.3-142.3 1.4-1.4 3-2.6 4.5-3.9 5.3 5.5 10.5 11 15.7 16.6 27.9 29.9 55.2 60.3 83.8 89.6 9.5 9.7 18.8 19.4 28.2 29z"/>
  <path class="st7" d="M294.7 107.2c3.4.3 7.1 1 10.5 2.9 15.6 8.3 21.1 31.2 10.4 44.1-4.4 5.3-10.9 7.4-16.8 10.3-8.1 3.9-8.1 3.9-11.7-4-6-12.9-11.9-25.9-18.1-38.8-1.7-3.5-1.5-5.2 2.4-6.6 7.6-2.7 14.4-7.7 23.3-7.9zm-1.3 9.6c-3.9.1-6.9 1.5-9.9 2.9-1.5.7-1.9 1.4-1.1 3 4.8 10 9.5 20.1 14.1 30.2.7 1.5 1.3 1.8 3 1.3 8.8-2.8 12.6-9.6 10-18.6a38.1 38.1 0 0 0-4.8-10.9c-2.6-4.3-6.1-7.8-11.3-7.9zm-17.3 49.5c.1 10.1-5.1 16.9-13.9 21.1-8.9 4.2-17.2 2.4-24.5-3.6a41.5 41.5 0 0 1-12.6-17.7c-4.3-11.3-1.4-21.8 7.2-28 10.2-7.2 20-6.8 30.1 1.5 7.6 6.2 13.6 18 13.7 26.7zM234 154.2c-.1 8 9.2 21.7 16.6 24.6 7.9 3 16.1-3.3 14.6-11.7-1.6-9.4-6.9-16.9-14.9-22-7.1-4.7-16.2.7-16.3 9.1z"/>
  <path class="st8" d="M361 113.6c.2 2-1.4 1.8-2.3 2.1-4.9 1.5-9.9 3-14.8 4.4-2.7.7-3.7 1.8-2.8 4.9 3.1 10.8 3 10.8 13.7 7.6 4-1.2 8-2.3 11.9-3.5 4.7-1.4 3.2 2.9 4.3 4.7 1.1 1.8 1.5 3.5-1.6 4.4-10.4 3-20.7 6.1-31 9.4-1.9.6-2.6.1-3.2-1.7-4.9-16.4-9.8-32.8-14.8-49.1-.7-2.2.3-2.6 1.9-3.1 10.3-3.1 20.6-6.3 31-9.4 3.5-1.1 3.4 1.7 3.8 3.6.4 1.9 3 4.3-1.1 5.5-6.2 1.8-12.4 3.9-18.6 5.6-2.8.7-3.8 1.4-2.7 4.7 3.1 9.2 2.8 9.2 11.9 6.4l7.2-2.1c4.7-1.4 7.6.9 7.2 5.6z"/>
  <path class="st7" d="M234.2 199.7c-.4 17.7-19.5 28.8-34.3 20.2a45.44 45.44 0 0 1-18.6-20.2c-4.3-9.2-1.6-19.3 6.8-26.4 8.4-7.1 17-7.7 25.6-2.1 2.4 1.6 3.1 2.7.6 4.7-1.4 1.1-2.9 2.3-4 3.7-1.4 1.6-2.4 1.4-4.1.3-4.9-3.1-8.1-2.6-12.6 1.3-3.9 3.5-5.1 7.9-2.7 12.6 3.7 7.3 9.4 12.9 16.1 17.3 4.4 2.8 9 2 12.7-1.7 3.6-3.5 5.6-7.5 2.4-12.4-2.3-3.4 1-4.3 2.6-5.8 5.1-4.9 5.5-4.7 8.2 1.8 1.2 2.3 1.1 4.8 1.3 6.7z"/>
  <path class="st8" d="M786.4 544.7c-2.5 2.6-4.7 4.8-6.7 7.2-1.5 1.8-3 1.6-4.8 1-5.2-1.7-10.6-2.9-15.6-5.1-5-2.2-6.7 1.6-8.8 4.2-2.2 2.6 1.3 3.6 2.5 4.9 3.4 3.7 7.1 7 10.9 10.7l-9 8.4c-12.2-12.3-24.5-24.9-37-37.4-1.9-1.9-1.8-2.9 0-4.7 4.9-4.7 9.5-9.7 14.5-14.4 6.7-6.2 13.6-7.6 19.9-4.4 7.6 3.9 10.7 9.8 9.4 19.4-.4 2.7 1.1 2.7 2.6 3.1 7.3 2.4 14.5 4.7 22.1 7.1zm-41.6-19.8c-4.8-.1-6.9 2-9.1 4.1-5.5 5.4-5.5 5.4-.2 10.7 7.9 7.9 8.3 7.8 15-1.3 2-2.7 2.4-5.5.8-8.4-1.8-3-4.3-5-6.5-5.1zm166.9-177.7c.3 0 1.5 0 2.6.3 2.9.8 7.2 1.9 6.9 4.5-.3 3.1-4.2 5.3-6.9 7.5-.9.8-1.8-.5-2.7-.8a9.88 9.88 0 0 0-13.2 8.7c-.2 3.8 1.6 5.9 5.6 5.9 3.1 0 5.7-1.5 8.4-2.8 4.8-2.3 9.4-4.9 14.9-5.5 11.1-1.1 19.3 8.8 15.7 19.3-3.5 10.1-10.9 16-21.1 18.5-1.9.5-4 .4-5.9 0-3.2-.7-7.7-1.7-7.8-5-.1-2.8 4-4.9 6.4-7.2 1.2-1.2 2.1.3 3.1.7 6 2.7 14.7-2.3 15.4-8.9.5-4.7-3.8-7.9-8.7-6.2-3.7 1.3-7.3 3.2-10.9 4.9-3.6 1.8-7.3 3-11.5 3-10.4-.1-17.1-9.4-13.6-19.2 3.6-10.1 13.3-17.9 23.3-17.7zm-31.6 103c-2.4-8.4-7-16-10.5-24-4.1-9.4-8.4-18.7-13-27.9-1.5-3 0-4.4 1.8-5.8 2.2-1.7 3.2-5.5 7.7-3.5 17 7.9 34.1 15.5 51.6 23.4-2.6 2.7-5 5.1-7.2 7.6-1.6 1.8-3 .5-4.4-.2-8.5-3.9-8.5-4-15 2.6l-1.1 1.1c-6.2 6.2-6.4 6.3-2.3 14.1 1.4 2.8 1.1 4.5-1.2 6.4-2.2 1.9-4.3 4.1-6.4 6.2-.1-.1 0 0 0 0zm-10.8-48.5c3.7 7.2 6.8 13.3 9.9 19.2l10.1-9.5c-6.4-3.1-12.5-6.1-20-9.7z"/>
  <path class="st7" d="M880 450.1c-5.3 7.3-12.4 13-18.6 19.5-2.7 2.9-5.4 7.9-8.6 7.6-3-.2-5.8-4.9-8.7-7.7-9.6-9.5-19.1-19.1-28.8-28.5-2-1.9-2.2-2.8-.1-4.9 7.4-7.2 14.7-14.5 21.7-22.1 3-3.3 4.1-.3 5.7 1.1 1.7 1.6 4.2 2.8.9 5.7-4.8 4.2-9 8.9-13.5 13.3-1.7 1.6-2.3 2.6-.3 4.7 7.4 7.8 7.3 7.9 15 .2 1.5-1.5 3.2-3 4.5-4.7 2.6-3.4 4.7-3.7 7.6-.2 1.8 2.2 2.5 3.3.1 5.5-3.8 3.4-7.2 7.4-11 10.9-1.8 1.7-1.7 2.5-.1 4.3 8.3 8.9 8.2 9 16.7.4 2.6-2.6 5.4-5 7.7-7.8 2.1-2.5 3.5-2.1 5.5.1 1 1.4 1.8 4 4.3 2.6.1.1 0 0 0 0zm81.8-118c0 2-1 2.5-1.7 3.2-3.5 3.6-7 7.1-10.5 10.7-.6.6-1.7 1.2-1.7 1.8 0 5.1 5.2 6.4 7.5 9.9 1.2 1.9 2.5 1.5 3.9 0 4.6-4.8 9.5-9.3 14-14.2 3.9-4.2 4.7 1 6.8 2.1 2.7 1.4 1.6 2.8 0 4.4-7.4 7.2-14.7 14.5-21.9 21.9-1.9 2-3 2.2-5.1.1-11.6-11.7-23.2-23.4-35-34.9-2.1-2-1.9-2.9.1-4.9 7.1-7 14.2-14 20.9-21.4 2.9-3.3 4.2-1.6 6.5.4 2.8 2.4 3 3.9.1 6.5-4.5 3.9-8.5 8.4-12.8 12.6-1.6 1.6-2.3 2.6-.3 4.7 7.4 7.8 7.3 7.9 14.9.2 1.8-1.8 3.4-3.7 5.2-5.3 1.1-1 1.8-3.5 3.8-2.2 2.2 1.3 3.9 3.2 5.3 4.4z"/>
  <path class="st8" d="M750.9 499.9c8.1-7.8 16.5-15.7 24.5-23.8 2.8-2.9 3.9-.6 5.3.9 1.5 1.6 4.5 2.7 1.2 5.7-4.9 4.5-9.4 9.4-14.2 14-1.5 1.5-1.6 2.3-.1 3.9 7.4 8.3 7.4 8.3 15.2.5 1.4-1.4 3-2.7 4.1-4.3 2.8-4 5.1-4 8.3-.2 1.7 2.1 2 3-.1 5-3.8 3.5-7.1 7.5-10.8 11-2 1.9-1.7 3 0 4.8 7.9 8.4 7.9 8.5 16 .4 2.7-2.7 5.6-5.3 8.1-8.2 3.9-4.5 5 .7 7.2 1.9 3.3 2 .7 3.4-.7 4.7-7.2 7.2-14.4 14.3-21.5 21.6-1.7 1.7-2.8 2.2-4.7.2-12.3-12.5-24.8-25-37.8-38.1zm39.6-39.1c1 .9 2 1.8 2.9 2.7 9.2 9.1 18.5 18.2 27.6 27.5 2.5 2.6 3.9 2.4 6.2-.1 3.9-4.3 8.3-8.1 12.2-12.5 2.1-2.3 3.5-1.3 4.5.5 1 1.9 5.9 2.4 2.3 6-7.3 7.3-14.6 14.5-21.9 21.9-1.7 1.7-2.6 1.1-4-.3-11.9-11.9-23.8-23.7-35.8-35.5-1.5-1.5-1.8-2.4-.1-4 2.2-1.9 4-4 6.1-6.2z"/>
  <path class="st7" d="m1589 453.7 34 24.2c3.7 2.6 7.2 5.4 11 7.8 2.6 1.6 3.5 3.2 2.3 6-1.3 2.9-.6 6.7-5.8 7.1-15.7 1.1-31.4 3-47.2 4.3-2.8.2-5.5 1.4-8.6.7.3-1.2.6-2.3.9-3.3 2-7.9 2-8 9.9-8.6 3.3-.2 5.2-1.1 5.7-4.7.4-2.9 1-6 2.3-8.7 2.6-5.4.9-8.7-4.2-10.8-3.6-1.5-4.5-3.8-3.1-7.4 2-5 2.1-10.4 2.5-15.7.2-2.4 1-3.8 3.5-4.7 4.8-1.7 9.5-3.9 14.2-6 1.8-.8 3.5-1.4 3.8-4 .7-6.6.9-6.6-5.8-7.3a100 100 0 0 0-11-.6c-2.6 0-3.5-.9-3.3-3.5.6-8.5.6-8.4 9.4-7.8 14.4 1.1 28.9 2.1 43.3 2.8 3.5.2 4.6 1.2 4.2 4.7-.8 6.9-.9 13.9-1.9 20.8-1 7.2-4.4 13.1-12.1 14.8-8.5 1.9-14.9-.7-19.6-8.3-1.3-2-2.3-2-3.9-1.2l-1.8.9c-5.9 2.9-11.8 5.5-18.7 8.5zm38-29.5c-6.7-.2-6.6-.2-7.2 6.4-.1.8-.3 1.6-.4 2.5-.4 5.7 2.9 9.7 8.1 10 4.7.3 7.9-2.9 8.6-8.5 1.1-10.2 1.1-10.2-9.1-10.4zm-6.6 65.4c.1-.3.3-.7.4-1-5.7-3.7-11.4-7.3-17.4-11.1-1.1 4.1-1.9 7.5-3 10.8-.7 2.2.2 2.7 2.1 2.6 6-.6 12-.9 17.9-1.3zM1554.9 284c0-4.4 1.1-8.6 3.8-12.1 7.9-10.1 18-16.2 31.1-16.1 9.4.1 15.8 5.4 19.7 13.7 3.9 8.3 3.1 16.4-2.8 23.3-8.3 9.7-18.9 16-32.2 14.5-11.6-1.3-19.6-11.5-19.6-23.3zm10 1.5c0 6.9 5.5 12.4 11.9 11.4 8.5-1.4 16.1-5.3 22-11.8 3.4-3.7 4.1-8.2 1.4-12.8-2.6-4.6-6.6-6.3-11.7-5.4-7.8 1.3-14.2 5.3-19.9 10.5-2.4 2.1-4 5-3.7 8.1zm69.1 46.2c0 11-4.8 17.2-13.1 19.7-8.1 2.4-14.9-.3-19.7-7.7-2.5-3.8-4-8.1-4.9-12.5-.9-4.2-2.6-4.6-6.1-3.1-2.3 1-4.8 1.4-7.1 2.2-8.1 2.5-8 2.5-10.1-6-.5-2.1-.1-2.8 2-3.5 16.1-5.1 32.2-10.3 48.4-15.5 1.2-.4 2.7-1 3.2 1 2.6 9.3 6.8 18.1 7.4 25.4zm-9.9-.2c.3-2.1-.8-4.4-1.5-6.7-1.9-6.2-2-6.2-8.2-4.2-11.5 3.6-11.4 3.6-6.7 14.9 1.7 4.1 4.5 5.9 9 5 4.8-1.1 7.4-4 7.4-9zm15.2 30.4c1.8-.6 2.7.3 3 3.2 1.1 10.1 2.3 20.1 3.8 30.1.8 5.8-3.7 3.5-6.1 4.4-3.2 1.3-2.9-1.3-3.2-3.2-.8-6.6-1.9-13.1-2.6-19.7-.3-2.3-1.1-2.5-3.2-2.2-10 1.3-10 1.2-9.1 11.4.3 2.8.6 5.6 1 8.4.4 2.5-.2 3.5-3.1 4.1-4.7 1-6.1-.2-6.1-4.9 0-4.6-1.3-9.2-1.7-13.8-.2-2.4-1.3-2.8-3.2-2.5-1.8.3-3.6.6-5.4.8-7.2 1-7.1.9-6.1 8.5.7 5.1 1 10.3 1.8 15.3.4 2.5-.4 3.6-2.7 3.3-2.2-.3-5.7 2.3-6.2-2.3-1.4-10.7-2.6-21.4-4-32.1-.2-1.7.3-2.4 2-2.6 16.8-2 33.4-4.1 51.1-6.2zm-36.6 213.4c-.4.7-.7 1.5-1.1 2.2-5.3 8.8-10.8 17.5-15.9 26.5-2.7 4.9-4.8.8-7 0-2.8-1-2.7-2.5-1.1-4.9 3.6-5.4 6.7-11.1 10.2-16.5 1.2-1.8.9-2.7-.8-3.9-8.6-6.5-8.7-6.6-14.2 2.5-1.5 2.6-3.4 5-4.6 7.7-1.3 3-2.5 2.7-5.2 1.5-4.1-2-4.4-4-1.9-7.5 2.1-3 3.4-6.5 5.8-9.3 3.7-4.3 1.9-6.1-2.2-8.5-8.1-4.6-8-4.8-12.6 3-2 3.3-3.9 6.5-5.9 9.8-2.9 4.8-4.9 5-9.2 1.2-1.6-1.4-.6-2.2.1-3.3 5.4-8.9 10.9-17.9 16.2-26.9 1.4-2.4 2.4-2.7 4.9-1.1 14 8.6 28.2 17 42.3 25.4.7.4 1.9.6 2.2 2.1zm24.2-52.6c-.4 1.1-.7 2.1-1.1 3-5.1 11.7-10.5 23.3-15.3 35.1-1.7 4.2-3.8 2.2-6 1.3-2.6-.9-4.7-2.1-2.5-5.3.1-.1.1-.3.2-.5 1.6-3.8 5.3-8.4 4.2-11.3-1.4-3.7-7.4-4.2-11.4-6-8.9-4-17.9-7.9-26.9-11.7-2.7-1.1-4.3-2.3-2.2-5.3.7-1.1 1.3-2.4 1.6-3.6.8-3 2.1-3.3 5-2 11.9 5.4 24 10.4 36 15.8 2.9 1.3 4.1.8 5.2-2 1.2-3.2 2.8-6.4 4.1-9.6.6-1.5 1.4-2.4 3-1.6 2.1 1.4 4.9 1.4 6.1 3.7z"/>
  <path class="st9" d="M1077.1 621.2c-7.8 9.4-15.1 18.1-22.1 27.1-2.4 3.1-4.3 3.2-6.6.4-1.9-2.3-7-3.1-2.3-8.2 10.8-11.7 21-24 31.3-36.2 1.7-2.1 2.7-2.5 5.1-.6 9.1 7.1 9.1 6.9 5 17.4-3.8 9.8-7.6 19.6-11.9 30.6 11.7-6.7 22.4-12.7 32.9-19 3.3-2 5.4-2.2 8.5.6 7.5 7 7.6 6.7.8 14.7-9 10.5-18 20.9-26.9 31.5-2.1 2.5-3.7 3.2-6.3.7-6.6-6.5-6.4-3.9-.8-10.4 6.8-7.9 13.9-15.4 20.4-23.8-8.2 4.6-16.4 9.1-24.6 13.7-2.3 1.3-4.8 2.4-6.9 4-3.1 2.4-5.3 1.6-8.2-.7-3.3-2.6-1.1-4.8-.3-7 4-10.7 8.2-21.4 12.3-32.1.3-.6.3-1.3.6-2.7zm271.3 142.6c-3.9.3-7 .5-10.1.9-2.4.3-3.2-1.2-4.2-2.8-2.8-4.7-5.9-9.3-8.4-14.1-2.2-4.2-5.7-2.6-8.7-2.2-3.4.4-1.9 3.4-1.9 5.2 0 3.3.5 6.6.7 9.9.4 5.7.4 5.5-7 6.2-4.8.5-4.5-2.5-4.7-5.6-1-15.3-2-30.5-3.2-45.8-.3-3.8.7-5.4 4.7-5.4 7-.1 14-1.2 20.9-.9 12.4.5 18.8 9.3 16.5 21.4-.7 3.7-2.8 6.5-5.6 8.5-2.6 1.8-2.3 3.3-.8 5.6 4 6.3 7.7 12.5 11.8 19.1zm-27.5-44.8c-8.3.3-8.3.3-7.7 8.1.9 9.7 2.5 10.7 12.7 8 3-.8 5-2.6 5.7-5.6.8-3.2.2-6.2-2.3-8.7-2.4-2.4-5.4-1.7-8.4-1.8zm-51 45.3c-14.6.2-26-9.7-22.2-26.1 2.2-9.5 3.4-19.3 4.3-29.1.6-6.5 4.6-3.8 7.8-3.8 3.6 0 4.7 1.7 4.1 5.4-1.9 11-3.6 22-5 33-1 7.8 2.8 11.5 10.7 11.4 5.1 0 7.7-3 8.4-7.5 1.8-10.8 3.4-21.7 5.2-32.5.3-2-.2-5.3 1.9-5.6 3-.4 6.2.5 9.2 1.4 1.5.4.9 2.4.7 3.6-1.7 11.7-3.3 23.4-5.5 35-1.9 9.8-9.1 14.8-19.6 14.8zm-50.4-12c-7-.6-15-3.2-20.6-10.7-1.3-1.7-2.2-3.7-2.9-5.7-1.1-3-1.9-7.3.6-8.9 2.8-1.8 6.4 1.4 9.6 2.4 1.4.5.6 2 .7 3.1.2 6.5 7.9 12 14.1 10.3 4.7-1.3 6.2-7 2.5-10.8-3-3.1-6.5-5.6-9.9-8.3-2.9-2.3-5.2-5.1-6.9-8.4-4.1-7.8-.4-16.9 7.9-19.8 8.3-2.8 20.7.6 26.4 7.3 1.7 2.1 3.1 4.4 3.6 7 .6 2.9 1.8 6.9-.9 8.3-2.8 1.5-6.1-1.6-9.2-2.5-1.1-.3-.7-1.7-.6-2.7.5-7.7-9.5-10.5-14.2-8.6-3.2 1.3-4.2 5.2-2.2 8.3 2.6 4 6.7 6.4 10.4 9.2 4.6 3.6 8.3 7.8 9.2 13.7 1.1 9.5-5.9 16.8-17.6 16.8zm-29.5-71.4c-1.2 10.2-2.2 18.9-3.2 27.7-1 8.9-2.2 17.8-3.2 26.7-.4 3.2-1.2 4.3-4.5 2.5-7.2-3.9-7.4-3.7-5.7-12 .6-2.9.3-4.6-2.7-5.8-3.5-1.4-7.1-3-10.2-5.2-3.6-2.5-5.7-1.5-8.5 1.3-1.8 1.8-2.7 5.8-6.9 4.1-9.1-3.6-9.3-4.1-2.3-10.6 11.7-10.8 23.5-21.6 35.3-32.3 1.5-1.3 2.8-2.4 4.7-.8 2.6 1.8 6.9 1.5 7.2 4.4zm-27.7 24.3c4.6 2.4 7.7 4 10.7 5.6 1.6.8 2.7 1 3-1.4.7-5.9 1.7-11.9 2.8-19.1-3.6 3.4-6.2 6-8.8 8.4-2.4 2.1-4.8 4-7.7 6.5zm235.6 43.6c-.1 2-1.7 2.1-3.2 2.5-9.7 2.9-19.4 5.8-29 8.8-2.6.8-3.8.1-4.5-2.5-4.6-15.7-9.3-31.5-14.1-47.2-.7-2.4.1-3.6 2.5-4.2 9.7-2.7 19.5-5.4 29.1-8.5 4.3-1.4 4.2 1.5 5.1 3.8 1.1 2.7 1 4.5-2.6 5.3-6 1.4-11.7 3.5-17.7 5.1-2.6.7-3.5 1.4-2.7 4.3 2.5 9.8 2.4 9.8 11.9 6.9 2.4-.7 5-1 7.1-2.1 4.6-2.3 6.1-.3 6.9 4 .4 2.3-.1 3.3-2.3 3.9-5 1.4-9.8 3-14.8 4.2-2.6.6-3.3 1.9-2.6 4.3l.3.9c2.9 10.8 2.9 10.8 13.6 7.4 3.2-1 6.4-1.9 9.5-2.8 4.9-1.5 7.9.9 7.5 5.9zM1132 644.7c.6.4 1.3.8 2 1.3 8.6 5.8 17 11.7 25.7 17.2 4 2.5.9 4.2-.2 6.3-1.3 2.5-2.5 3.5-5.2 1.4-5.1-3.8-10.5-7.1-15.6-10.7-2.1-1.5-3.3-1.2-4.8.8-6.2 8.3-6.3 8.3 2.2 13.9 2.1 1.4 4 3.1 6.2 4.2 4 2 4.3 4.1 1.5 7.6-1.8 2.2-2.7 2.7-5 1-4.1-3.1-8.6-5.7-12.8-8.7-2.1-1.5-3.1-1.1-4.6 1-7 9.9-7.1 9.8 2.8 16.4 3.2 2.1 6.2 4.5 9.6 6.3 2.9 1.6 2 3.3.5 5.1-1.4 1.7-2 5-5.6 2.5-8.6-6-17.3-11.8-26.1-17.6-1.9-1.3-2.2-2.3-.8-4.3 9.4-13.8 18.6-27.6 27.9-41.4.4-1 .7-2.3 2.3-2.3z"/>
  <path class="st7" d="M1199.7 136.5c-.1 11.3-6.4 20.4-16.6 24.1-4.9 1.8-10.2 2.9-15.1 4.8-2.4.9-3.2.2-3.9-1.9-5-15.8-10-31.5-15.1-47.2-.8-2.6-.5-3.8 2.3-4.5 5.1-1.3 10.1-3.3 15.2-4.6 11.2-2.8 21 .9 27.2 10.6 3.8 5.8 5.6 12.6 6 18.7zm-11.6 1.5c-.2-3.9-1.6-8.8-4-13.5-4.3-8.7-11.7-11.1-20.4-6.7-1.2.6-1.7.9-1.2 2.5 3.5 10.4 6.8 20.8 10.1 31.2.4 1.4.7 2.5 2.7 1.9 7.4-2 12.8-4.8 12.8-15.4zm179.7-48.7c16.4.2 26.3 10 26.5 24.2.1 7-1.2 13.9-4.3 20.3-4.7 9.5-14.3 14.8-24 13.2-11-1.8-18.7-8.9-20-19.8-1.4-11.8.7-22.8 9.3-31.7 4.1-4.4 9.3-6.2 12.5-6.2zm-10.9 34c.1 1.2.2 2.6.4 3.9 1.1 6 4.4 9.5 9.4 10.1 5.9.7 9.7-1.4 12.2-7.3 2.9-6.8 4.5-13.9 3.2-21.4-.9-5.3-4.1-8.8-8.9-9.4-5.1-.7-9.1 1.1-11.7 5.7-3.2 5.7-3.8 12-4.6 18.4z"/>
  <path class="st8" d="M1240 96.6c.9 2.5-1.1 2.6-2.7 2.9-6 1.2-12 2.6-18.1 3.6-3.3.5-4 1.8-3.4 5 1.8 8.7 1.6 8.8 10.6 7 2.8-.5 5.6-1 8.3-1.8 3.7-1.1 5.3-.1 5.9 3.9.4 3 .4 4.6-3.2 5.1-4.8.6-9.4 1.8-14.2 2.8-.7.1-1.6-.1-1.9.3-3.4 4.3.7 8.3.6 12.5-.1 2.8 2.1 2.4 4 2.1 6.2-1.2 12.4-2.3 18.5-3.8 5.3-1.3 3.8 2.8 4.8 5.2 1.3 3.2-.6 3.5-3 4-9.8 1.9-19.6 3.8-29.3 5.9-3 .7-4.4.3-5-3.1-2.9-15.8-6-31.6-9.4-47.3-.8-3.5.2-4.2 3.4-4.7 9-1.6 17.9-3.5 26.8-5.3 6.4-1.5 7.1-1.1 7.3 5.7z"/>
  <path class="st7" d="M1270.8 86c6.8-.7 14.4-.3 19.9 6.3 4.6 5.5 5.7 12.1 3 18.7-3 7.5-9.6 10.1-17 11.1-3.8.5-9.5-.4-10.8 1.7-1.7 2.6 0 7.6.3 11.5 0 .3.2.7.1 1 0 2.1 1.5 5.3-.2 6.1-2.9 1.2-6.4 1.1-9.7 1.2-1.5.1-1.4-1.6-1.5-2.7-1.5-16.9-2.9-33.7-4.4-50.6-.2-2.4.9-2.8 2.8-2.9 5.5-.5 11-.9 17.5-1.4zm-1.6 27.4c2.8-.4 5.6-.6 8.3-1.2 3.5-.7 5.4-2.9 5.6-6.6.2-3.6-.3-7.1-3.8-9.1-5.1-3-10.6-1.5-15.4 0-2.5.7-.2 5.3-.2 8.1 0 1.3.4 2.7.2 4-.4 4.1 1.4 5.5 5.3 4.8zm138.1-16c3.5 1.1 6.6 2.2 9.7 3.1 3 .9 2.5 3.6 2.7 5.8.7 7.2 1.2 14.4 1.8 22.5 5.4-5.4 10.4-9.7 14.8-14.7 3.3-3.8 6.5-5.1 11-2.6 1.5.9 3.3 1.3 5.5 2.2-7.3 6.9-14 14.2-21.7 20-7.2 5.5-9.9 12.9-12.6 20.7-.6 1.8-.6 5.3-2.9 5.1-3.2-.2-6.2-2-9.3-3.2-.3-.1-.4-1.2-.4-1.8 0-.6.2-1.3.6-1.9 6.9-11.9 5.2-24.5 3-37.2-.9-5.6-1.4-11.6-2.2-18z"/>
  <path class="st8" d="M1323.4 141.2c-5.3-.2-10.6-.6-15.9-.7-2.6 0-3.4-1-3.3-3.6.8-16.4 1.5-32.9 2-49.3.1-2.9 1.1-3.9 3.8-3.5 1.3.2 2.7.3 4 .1 3.5-.4 4.2 1.3 4 4.4-.6 12.8-.9 25.6-1.6 38.4-.2 3.1.3 4.6 3.8 4.6 5.5 0 11 .7 16.4.6 3.3 0 4.5.9 4.1 4.3-.3 3 .4 6.1-4.5 5.4-4.3-.6-8.6-.6-12.9-.8l.1.1z"/>
  <path class="st7" d="M502.3 751.2c-7.6.2-13.5-2.2-17.4-8.8-1.4-2.4-1.7-4.2 1.7-4.8 1.8-.3 3.6-.8 5.3-1.5 1.9-.7 2.8-.1 3.8 1.7 3.5 5.7 14.3 5.6 18 .1 2.5-3.8.3-8.4-4.7-9.8-5-1.4-10.3-.5-15.4-1.6-9.5-1.9-14.6-6.1-15.5-13.1-1-7.2 3.5-13.6 12.1-17.5 8.9-4.1 18.7-3.1 24.3 2.3 2.1 2 5 5.4 3.8 6.9-2 2.5-6.1 2.7-9.6 3.2-.9.1-1.2-.9-1.8-1.5-3.9-4.6-10.2-5.1-14.9-1.3-2 1.6-2.8 3.6-2.3 6.2.5 2.4 2 3.7 4.2 4.4 5.6 1.8 11.6.7 17.3 1.9 8.2 1.7 13.8 6.2 14.7 12.8 1.1 7.6-2.2 13.2-10 17.2-4.3 2.2-8.9 3.4-13.6 3.2z"/>
  <path class="st9" d="M450.8 750.1c1.4 2.1 3.6.5 5.3 1 1.7-.1 3.4.4 4.9-.8 1.4-.1 2.7-.1 4.1-.2 1.7-.1 3.4.4 4.9-.8.5-.1 1.1-.4 1.5-.2 1.8.7 4.4-1.8 5.3.3.9 2.1.3 4.9.2 7.4 0 1.1-.8 1.2-1.7 1.3-10.8 1-21.5 2-32.3 3.1-2.3.2-2.7-.7-3-2.7-1.2-11.8-2.5-23.5-4-35.2-.6-5-.6-10.1-2-15.1-.6-2 .3-2.9 2.6-3 11-.9 21.9-1.9 32.8-3.3 2.3-.3 2.4.3 2.6 2 .7 6.7.2 7.3-8.9 8.2-4.4.4-8.8.7-13.3 1.1-.8.1-2.2 0-2.3.4-1.4 3.8.8 7.4.5 11.2-.1 2.1 1.4 2.4 3 2.4 1.7-.1 3.4.4 4.9-.8 1.4-.1 2.7-.1 4.1-.2 1.7-.1 3.4.4 4.9-.8 1.7-.3 3.3-.6 5 0 0 1 0 2 .8 2.8.2 1.7.8 3.4-.1 5-1 0-1.9 0-2.7.8-6.1.7-12.2 1.5-18.3 2.2a4.2 4.2 0 0 0 0 5c.1 1.4.1 2.7.2 4.1.3 1.6-.2 3.3 1 4.8zm-37.1-35.5c-.9 13.9-2 27.6-2.6 41.3-.2 3.8-.8 6-5.2 5.1-3.4-.7-7.6.7-6.8-5.9 1.5-12.3 1.9-24.8 2.9-37.2.3-3.9-1.1-5.1-4.7-4.8-2.1.1-4.3 0-6.5-.2-6.1-.4-6-.4-5.2-6.7.3-2.4 1-3.4 3.6-3.2 13.2 1.1 26.4 2.1 39.7 2.9 3.4.2 3 2.4 2.2 4.1-.8 1.7 2.3 5.6-2.7 5.2-4.7-.3-9.3-.4-14.7-.6z"/>
  <path class="st7" d="M564.6 727.6c.2 1.3-.9 1.4-1.8 1.8-1.5.7-3 1.4-4.5 2.2-2.8 1.6-4.3 1.2-5.7-2.1-5.2-11.7-10.8-23.1-16.1-34.7-1.4-3-2.6-4.8-6-2.4-1.9 1.3-4.2 1.9-6.3 2.9-4.8 2.3-7.9.5-8.5-4.7-.2-1.5.8-1.7 1.6-2.1 12.4-5.9 24.9-11.7 37.4-17.4 3.8-1.7 3.2 2.2 4.2 3.7 1 1.4 2.8 3.4-.4 4.7-3.4 1.4-6.5 3.2-10 4.4-3 1.1-3.2 2.5-1.9 5.1 5.5 11.3 10.7 22.8 16 34.2.8 1.5 1.4 2.9 2 4.4z"/>
  <path class="st8" d="M465 725.4c-1.5 1.2-3.3.7-4.9.8 1.5-.9 3.1-1 4.9-.8zm-9 1c-1.5 1.2-3.3.7-4.9.8 1.5-.9 3.1-1 4.9-.8zm-6.2 14.7a4.2 4.2 0 0 1 0-5c-.1 1.7-.1 3.4 0 5zm1 9c-1.2-1.5-.7-3.3-.8-4.9.8 1.5.9 3.2.8 4.9zm19.2-.7c-1.5 1.2-3.3.7-4.9.8 1.5-.9 3.1-1 4.9-.8zm-9 1c-1.5 1.2-3.3.7-4.9.8 1.5-.9 3.1-1 4.9-.8zm9.8-22.3c-.8-.8-.8-1.8-.8-2.8 1.3.7.8 1.8.8 2.8zm-2.8 5.8c.7-.8 1.7-.8 2.7-.8-.7 1.1-1.7 1-2.7.8zm-349.7-235c-1.4 7.9-6.3 11.4-13.6 12-6.6.6-11.8-2.7-15.1-10-3.7-8-4.6-16.9-7.2-25.3-.6-2 .5-2.2 2-2.6 16.4-4.1 32.9-8.3 49.2-12.5 2.5-.6 3.2.2 3.7 2.4 1.6 7 3.5 13.9 4.9 20.9 1.4 6.8.5 13.2-6 17.1-6.1 3.9-12.4 3.6-17.9-2zm-6.9-6.6c.1-5.2-2.8-13.4-4.4-12.8-4.3 1.6-11 .1-12.5 4.8-2 6.3 4.3 14.8 9 14.9 4.6.1 7.8-2.7 7.9-6.9zm21.6-7.7c-2.2-2.7.9-8.9-4.7-10.3-4.1-1-11.3 2.9-11.2 4.7.3 7.2 4.3 13.2 8.7 13.3 4.4 0 7.2-2.6 7.2-7.7zM178.1 667c-7-.1-13.4-3.8-18.5-10.1-3.1-3.9-6-7.9-9.2-11.8-1.3-1.6-1.4-2.5.4-3.9 13.4-10.1 26.6-20.4 40-30.5.9-.7 2-2.6 3.2-.9 5.3 7.5 12.6 13.7 14.9 23.3 1.1 4.6.5 8.8-1 13.2-3.7 10.7-17.4 20.7-29.8 20.7zm-1.1-10.7c5-.1 11.4-3.6 17.1-9.3 7.2-7.3 7.4-13.8.8-21.4-1.4-1.6-2.5-1.7-4.1-.5-8.5 6.6-17.1 13.2-25.6 19.8-1 .8-1.7 1.3-1.2 2.7 1.8 4.6 8.1 8.8 13 8.7zm-77-119.2c0-8.5 4-14.7 11.9-17.7 11-4.1 22.3-7.8 33.4-11.8 2.5-.9 3.7-.2 4.4 2.2.4 1.3.7 2.6 1.3 3.7 1.6 3.2.6 4.5-2.7 5.6-10.4 3.4-20.7 7.1-31 10.8-6.8 2.4-9.1 7-6.9 13.1 2 5.7 6.8 7.8 13.4 5.5 10.5-3.5 21-7.1 31.4-11 3.1-1.2 4.2-.4 4.9 2.3 0 .2.1.3.2.5 2.7 7 2.7 7-4.3 9.4-9.1 3.2-18.2 6.4-27.3 9.4-12.5 4.2-21.4.2-26.5-11.9-1.5-3.3-2.6-6.8-2.2-10.1zm73.7 37.3c1.4-.5 1.7.7 2.1 1.5.8 1.4 1.5 3 2.4 4.3 2.1 2.8 1.4 4.3-1.7 5.9-11.5 6-22.6 12.5-34.1 18.4-3.8 1.9-3.2 3.4-1.5 6.3 2.9 4.8 5.3 10 8.2 14.8 2.1 3.5-.7 3.8-2.6 4.8-1.8 1-3.6 3.4-5.5-.3-4.6-9-9.5-17.9-14.4-26.7-1-1.8-1.3-2.7.8-3.9 15-8.1 30-16.3 45-24.4.4-.2.8-.5 1.3-.7zm-53.3 13.4c-1.1.3-1.3-.6-1.7-1.4-.8-1.7-1.4-3.4-2.3-5-1.7-3-.7-4.4 2.4-5.7 14.6-6.2 29.2-12.6 43.7-19.1 2.9-1.3 4.8-1.5 5.6 2.2.4 1.6 1.2 3.1 2 4.5s.7 2.3-1 3.1c-15.9 6.9-31.9 13.9-47.8 20.9-.3.2-.6.4-.9.5z"/>
  <path class="st7" d="M733.5 312.7c7-6.8 14.2-13.5 20.8-20.6 3.4-3.6 5-2.6 8 .3 3.6 3.5 3.1 5.4-.4 8.6-11.2 10.6-22.1 21.7-33 32.7-2.1 2.2-3.2 2-5.5.1-4.3-3.6-5.5-7.1-3.8-12.8 3.3-10.9 5.6-22.2 8.4-33.3-.5-.4-.9-.8-1.4-1.2-6.9 7.3-13.9 14.5-20.7 22-2.6 2.9-4.3 3.5-7.2.2-4.5-5.1-4.8-4.9-.1-9.5 10.8-10.7 21.6-21.2 32.3-32 2.3-2.4 3.6-2.7 6.2-.2 3.6 3.6 5.1 6.8 3.5 12.1-3.2 10.8-5.6 21.8-8.3 32.8.5.2.8.5 1.2.8zm-80.7-50c18.3-8.2 35.5-15.9 52.7-23.8 3-1.4 4.1.5 5.3 2.1 1.5 2 5.5 2.7 3.7 6.6-8 17.3-15.9 34.6-24.6 53.3-2.6-3.1-4.7-5.7-6.9-8.1-2.1-2.2-.1-3.7.7-5.3 3.6-7.5 3.6-7.5-2.3-13.4l-1.4-1.4c-6.7-6.8-6.8-6.8-15.3-2.6-1.9.9-3.2 1.2-4.7-.6-2.1-2.2-4.4-4.1-7.2-6.8zm38.9 8.7c3.2-6.4 6.2-12.5 9.8-19.6-7.2 3.6-13.5 6.1-19.3 9.8 3.2 3.4 6.2 6.4 9.5 9.8zm-54.6-63.8c-9.2-.3-14-4.3-18.6-8.8-6.1-6.1-6.2-6.1-12.4.1-.8.8-1.6 1.7-2.5 2.5-5.5 5.3-5.4 5.1-10.9-.1-2.3-2.2-2.4-3.4 0-5.7 11.7-11.4 23.2-22.9 34.8-34.4 1-1 2-3.2 3.9-1 5.9 6.6 13.1 11.9 18 19.3 4.1 6.1 4.6 12.7.5 19.2-3.4 5.7-8.3 9-12.8 8.9zm-4-10.5c3.7-.6 6.2-2.7 7.8-5.7 1.7-3 1.5-6.1-.7-8.8-2.1-2.5-4.5-4.8-6.7-7.3-1.3-1.5-2.3-1.3-3.6.1-3 3.1-6.1 6.1-9.2 9-1.4 1.3-1.4 2.3 0 3.6 2.4 2.2 4.7 4.7 7.1 6.9 1.5 1.4 3.4 2 5.3 2.2z"/>
  <path class="st8" d="M651.8 260.8c-1.1-.8-1.8-1.3-2.3-1.8-7.3-7.3-14.5-14.7-21.8-21.9-1.5-1.5-1.5-2.5 0-4 12-11.8 23.9-23.7 35.7-35.5 1.8-1.8 3.2-1.9 4.8.2.7.9 1.5 1.8 2.5 2.5 3 2.4 2.7 4.2-.1 6.9-9.3 8.8-18.2 18-27.4 26.9-2.2 2.1-2.3 3.3 0 5.4 4.1 3.8 8 8 11.8 12.1.9 1 3.1 1.7 1.9 3.5-1.4 2-3.3 3.8-5.1 5.7z"/>
  <path class="st10" d="M352.9 427.7c-.2 7.4-.1 16.5 2.2 25.5 3.2 12.7 10.5 19.7 23 21.6 6.5 1 13 0 19-2.7 8.1-3.7 11.4-10.9 12.5-19.1.5-3.5 1.8-3.9 4.7-3.8 7.5.1 15 .2 22.5 0 2.8-.1 3.3.9 3 3.5-3.6 27.3-23.5 45.3-51.2 46.6-19.5 1-37.1-2.9-50.4-18.5-9.1-10.6-13.6-23.2-15-36.8-1.7-16.6-1.9-33.1 2.6-49.5 8.5-31 33.3-45.8 63.6-43.1 13.8 1.2 26.3 5.7 36.1 15.9 8.5 8.8 12.6 19.7 14.4 31.6.3 2.2-.1 3.3-2.8 3.3-8-.1-16-.1-24 0-2.4 0-2.9-1-3.3-3.2-2.8-16.6-9.8-22.7-26.3-23.6-13.6-.7-23.7 6.8-28 20.8-.6 2.1-1.1 4.2-1.6 6.3-1.4 7.7-1 15.6-1 25.2zm108.1-2.5c0-22.3.1-44.7-.1-67 0-4.3 1.2-5.3 5.3-5.1 7.1.3 14.3.2 21.5 0 2.6-.1 3.4.8 3.4 3.4-.1 45.8-.1 91.7 0 137.5 0 2.7-.9 3.4-3.5 3.3-7.5-.1-15-.2-22.5 0-3.3.1-4.2-1-4.2-4.2.1-22.6.1-45.3.1-67.9z"/>
  <path class="st0" d="M293.4 116.8c5.2.1 8.7 3.6 11.4 7.9 2.1 3.4 3.7 7.1 4.8 10.9 2.6 9-1.2 15.8-10 18.6-1.7.5-2.3.2-3-1.3-4.6-10.1-9.3-20.1-14.1-30.2-.8-1.6-.4-2.3 1.1-3 2.9-1.4 5.9-2.8 9.8-2.9zM234 154.2c.1-8.3 9.2-13.7 16.3-9.1 7.9 5.1 13.2 12.6 14.9 22 1.5 8.4-6.8 14.7-14.6 11.7-7.4-2.9-16.7-16.6-16.6-24.6z"/>
  <path class="st10" d="M1310.6 424.8c0-22.3.1-44.6-.1-67 0-3.7.9-4.8 4.7-4.7 14 .2 28 0 42 .1 32.8.3 59.4 24.7 62.8 57.4 1.9 18.4 1.5 36.7-7.4 53.5-11.1 20.8-29 31.7-52.2 33-15.1.8-30.3.1-45.5.3-3.7.1-4.4-1.3-4.4-4.6.2-22.7.1-45.4.1-68zm29.5.3c0 14.6.1 29.3-.1 43.9 0 3.2.8 4.5 4.2 4.2 4-.3 8 0 12-.1 15-.2 26.2-7.9 30.7-22.3 5.4-17.1 5.3-34.4 0-51.5-3.8-12.4-12.5-19.5-25.5-21.5-5.7-.9-11.3-.2-16.9-.7-3.5-.3-4.6.9-4.5 4.5.2 14.6.1 29 .1 43.5zm-166.2-.3c-.7-14.8 1.2-29.1 7.9-42.6 9.5-19.1 25.4-29.2 46.2-30.8 18.3-1.5 35.5 2.3 49 16.2 8.4 8.7 12.4 19.4 14.1 31.2.4 2.7-.5 3.5-3.1 3.4-7.7-.1-15.3-.1-23 0-2.5 0-3.6-.8-3.9-3.3-2.4-19.7-13.8-22.8-26.8-23.3-14.5-.6-24.7 7.5-28 23.1-3.8 18.2-4 36.8.4 54.9 4.6 19.3 25.3 27.7 42.7 18 7.4-4.1 10.5-10.9 11.5-18.8.4-3 1.2-3.9 4.2-3.8 7.3.2 14.7.3 22 0 3.9-.2 4.3 1.4 4 4.7a50.7 50.7 0 0 1-42.3 44.3c-13.3 2.2-26.5 2.3-39.2-3-16.4-6.7-26-19.4-31.5-35.8-4-11.1-4.7-22.7-4.2-34.4z"/>
  <path class="st1" d="M744.8 524.9c2.2.1 4.8 2.1 6.4 5.1 1.6 2.9 1.2 5.6-.8 8.4-6.7 9.1-7.1 9.2-15 1.3-5.3-5.3-5.3-5.3.2-10.7 2.2-2.1 4.4-4.2 9.2-4.1zm124.5-123.2c7.4 3.6 13.5 6.6 20 9.8-3.5 3.3-6.7 6.2-10.1 9.5-3-6-6.1-12-9.9-19.3z"/>
  <path class="st2" d="M1627 424.2c10.2.3 10.2.3 9.1 10.4-.6 5.5-3.9 8.7-8.6 8.5-5.2-.3-8.5-4.3-8.1-10 .1-.8.3-1.6.4-2.5.6-6.6.6-6.6 7.2-6.4zm-6.6 65.4-17.8 1.2c-1.9.1-2.8-.4-2.1-2.6 1.1-3.3 1.9-6.7 3-10.8 5.9 3.8 11.6 7.5 17.4 11.1-.2.4-.4.7-.5 1.1zm-55.5-204.1c-.3-3.2 1.3-6 3.6-8.1 5.6-5.2 12.1-9.2 19.9-10.5 5.1-.9 9.1.9 11.7 5.4 2.7 4.6 2.1 9.1-1.4 12.8a37.63 37.63 0 0 1-22 11.8c-6.4 1-11.9-4.4-11.8-11.4zm59.2 46c0 5-2.6 7.9-7.4 8.9-4.4.9-7.2-.9-9-5-4.7-11.2-4.8-11.2 6.7-14.9 6.2-2 6.3-2 8.2 4.2.7 2.4 1.8 4.7 1.5 6.8z"/>
  <path class="st3" d="M1320.9 719c2.9.1 6-.6 8.5 1.9s3.1 5.5 2.3 8.7c-.7 3-2.7 4.8-5.7 5.6-10.2 2.7-11.9 1.7-12.7-8-.7-7.9-.7-7.9 7.6-8.2zm-158.6-13.8c2.9-2.5 5.4-4.4 7.7-6.6 2.7-2.4 5.2-4.9 8.8-8.4-1.1 7.2-2 13.1-2.8 19.1-.3 2.4-1.4 2.2-3 1.4-3.1-1.5-6.2-3.1-10.7-5.5z"/>
  <path class="st4" d="M1188.1 138c0 10.6-5.4 13.4-12.7 15.4-1.9.5-2.2-.6-2.7-1.9-3.3-10.4-6.7-20.8-10.1-31.2-.5-1.6 0-1.9 1.2-2.5 8.6-4.3 16-1.9 20.4 6.7 2.3 4.7 3.7 9.6 3.9 13.5zm168.8-14.7c.8-6.4 1.4-12.7 4.6-18.3 2.6-4.6 6.6-6.4 11.7-5.7 4.8.6 8 4 8.9 9.4 1.3 7.5-.3 14.6-3.2 21.4-2.5 5.8-6.3 7.9-12.2 7.3-5-.6-8.3-4.1-9.4-10.1-.2-1.5-.3-2.8-.4-4zm-87.7-9.9c-3.9.7-5.7-.7-5.2-4.8.1-1.3-.2-2.6-.2-4 0-2.8-2.3-7.4.2-8.1 4.8-1.4 10.4-3 15.4 0 3.4 2.1 3.9 5.5 3.8 9.1-.2 3.7-2.1 5.9-5.6 6.6-2.8.6-5.7.8-8.4 1.2z"/>
  <path class="st2" d="M111.4 492.3c0 4.2-3.3 7-7.9 6.9-4.7-.1-10.9-8.7-9-14.9 1.4-4.6 8.2-3.1 12.5-4.8 1.6-.6 4.4 7.6 4.4 12.8zm21.6-7.7c0 5.1-2.8 7.8-7.2 7.7-4.4-.1-8.3-6.1-8.7-13.3-.1-1.9 7.1-5.7 11.2-4.7 5.6 1.4 2.5 7.6 4.7 10.3zm44 171.7c-5 .1-11.2-4.2-13-8.6-.6-1.5.1-2 1.2-2.7 8.6-6.6 17.1-13.2 25.6-19.8 1.6-1.2 2.7-1.1 4.1.5 6.6 7.6 6.5 14.1-.8 21.4-5.6 5.7-12.1 9.2-17.1 9.2z"/>
  <path class="st6" d="M691.7 271.4c-3.3-3.4-6.3-6.4-9.5-9.8 5.8-3.7 12.1-6.2 19.3-9.8l-9.8 19.6zm-58.6-74.3c-1.9-.2-3.8-.8-5.3-2.2-2.4-2.3-4.7-4.7-7.1-6.9-1.4-1.3-1.4-2.3 0-3.6 3.1-2.9 6.2-5.9 9.2-9 1.3-1.3 2.3-1.6 3.6-.1 2.2 2.5 4.6 4.8 6.7 7.3 2.2 2.7 2.4 5.8.7 8.8-1.7 3-4.1 5.1-7.8 5.7z"/>
</svg>
