<svg version="1.1" id="Layer_1" xmlns="http://www.w3.org/2000/svg" x="0" y="0" viewBox="0 0 229 195" xml:space="preserve"><style>.st0{fill:#fff}.st1{fill:#e1557a}.st2{fill:#2f1d4a}.st3{fill:#f58452}.st5{fill:#ebb432}</style><path class="st0" d="M162.9 120.2l54.2-2.4-.6 45.2-.5 10.7h-54l.9-53.5z"/><path class="st0" d="M163.2 139l19.2-18.7-1.8-.7-1.8.7-.6-1.6-16.1 15.1 1.2 1.6-.1 3.6zm44.3-20.1h1.9l.4-1.7 1.5.2.2-1.7 16.3 16.3-2.5 1.1-1.4 1.9-16.4-16.1z"/><path class="st1" d="M168.9 171.3h-.2c-.3-.1-.4-.4-.3-.6l10.9-28.1c.1-.2.3-.3.5-.3s.4.1.5.4l4.8 15.6 9.9-28.1c.1-.2.3-.3.5-.3s.4.1.5.3l6.8 19.8 14-19c.2-.2.5-.3.7-.1.2.2.3.5.1.7L203 151.3c-.1.1-.3.2-.5.2s-.3-.2-.4-.3l-6.6-19.3-10 28.1c-.1.2-.3.3-.5.3s-.4-.1-.5-.4l-4.8-15.7-10.3 26.8c-.1.2-.3.3-.5.3z"/><path class="st1" d="M195.4 132.2c.8 0 1.4-.6 1.4-1.4 0-.8-.6-1.4-1.4-1.4-.8 0-1.4.6-1.4 1.4 0 .8.6 1.4 1.4 1.4z"/><path class="st1" d="M195.4 132.7c-1.1 0-1.9-.9-1.9-1.9 0-1.1.9-1.9 1.9-1.9s1.9.9 1.9 1.9c.1 1.1-.8 1.9-1.9 1.9zm0-2.9c-.5 0-.9.4-.9.9s.4.9.9.9.9-.4.9-.9-.3-.9-.9-.9zm-10.1 31.4c.5 0 1-.6 1-1.4 0-.8-.4-1.4-1-1.4-.5 0-1 .6-1 1.4 0 .7.5 1.4 1 1.4z"/><path class="st1" d="M185.3 161.7c-.8 0-1.5-.9-1.5-1.9s.6-1.9 1.5-1.9 1.5.9 1.5 1.9-.7 1.9-1.5 1.9zm0-2.9c-.2 0-.5.4-.5.9s.3.9.5.9.5-.4.5-.9-.3-.9-.5-.9z"/><path class="st2" d="M173.7 132.7c-.3 0-.5-.2-.5-.5s.2-.5.5-.5l39.6-2.9c.2 0 .5.2.5.5s-.2.5-.5.5l-39.6 2.9c.1 0 0 0 0 0zm0 6.8c-.3 0-.5-.2-.5-.5s.2-.5.5-.5l38.6-1c.3 0 .5.2.5.5s-.2.5-.5.5l-38.6 1zm1 7.7c-.3 0-.5-.2-.5-.5s.2-.5.5-.5l37.6-1c.3 0 .5.2.5.5s-.2.5-.5.5l-37.6 1zm-1 8.7c-.3 0-.5-.2-.5-.5s.2-.5.5-.5l39.6-1c.3 0 .5.2.5.5s-.2.5-.5.5l-39.6 1zm38.6 8.7h-38.6c-.3 0-.5-.2-.5-.5s.2-.5.5-.5h38.6c.3 0 .5.2.5.5s-.2.5-.5.5zm-49.1-25.1h-.2c-.2-.1-.3-.3-.3-.5l.2-3.4-1.1-1.4c-.2-.2-.1-.5.1-.7l7.2-6.7c.2-.2.5-.2.7 0 .2.2.2.5 0 .7l-6.9 6.4.9 1.2c.1.1.1.2.1.3l-.1 2.3 17.8-17.3-.9-.3-1.7.6h-.4l-.3-.3-.3-.8-6.5 6.1c-.2.2-.5.2-.7 0-.2-.2-.2-.5 0-.7l7-6.6c.1-.1.3-.2.5-.1.2 0 .3.2.4.3l.4 1.1 1.4-.5h.4l1.8.7c.2.1.3.2.3.4s0 .3-.1.5l-19.2 18.7c-.3-.1-.4 0-.5 0zm60.7-3.9c-.1 0-.3-.1-.4-.1l-16.3-16.2c-.1-.1-.2-.4-.1-.5.1-.2.3-.3.5-.3h1.5l.3-1.3c.1-.3.3-.4.6-.4l1 .2.2-1.2c0-.2.2-.3.3-.4.2-.1.4 0 .5.1l16.3 16.3c.1.1.2.3.1.4 0 .2-.1.3-.3.4l-2.4 1.1-1.3 1.8c-.2 0-.4.1-.5.1zm-15.2-16.2l15.1 14.9 1.1-1.4.2-.2 1.8-.8-15-15-.1.7c0 .1-.1.3-.2.3-.1.1-.2.1-.4.1l-1-.2-.3 1.2c-.1.2-.3.4-.5.4h-.7z"/><path class="st2" d="M219.8 177.1h-14.5c-2.5 0-5.9-.1-9.4-.3-4.2-.2-8.6-.3-12.5-.3-7.3 0-18.2.6-18.3.6-.1 0-.3-.1-.4-.2-.1-.1-.1-.3-.1-.4l2.4-16.7v-4.9c0-.3.2-.5.5-.5s.5.2.5.5v5l-2.3 16.1c2.4-.1 11.4-.6 17.7-.6 4 0 8.6.2 12.6.3 3.5.1 6.8.3 9.3.3h14c.2-2.2 1-11.9 1.1-17.1.1-2.7.1-11 .1-19v-7.8c0-.3.2-.5.5-.5s.5.2.5.5v7.8c0 8 0 16.3-.1 19-.2 5.9-1.2 17.5-1.2 17.6 0 .4-.2.6-.4.6zM167 152c-.3 0-.5-.2-.5-.5v-16.4c0-.3.2-.5.5-.5s.5.2.5.5v16.4c0 .3-.2.5-.5.5zm0-22.2c-.3 0-.5-.2-.5-.5v-5.5c0-.3.2-.5.5-.5l5.8-.3c.3 0 .5.2.5.5s-.2.5-.5.5l-5.3.3v5c0 .3-.2.5-.5.5zm12.5-6.7c-.3 0-.5-.2-.5-.5s.2-.5.5-.5l30.9-1c.3 0 .5.2.5.5s-.2.5-.5.5l-30.9 1zM221 125c-.3 0-.5-.2-.5-.5v-3.3l-4.3.2c-.3 0-.5-.2-.5-.5s.2-.5.5-.5l4.8-.2c.1 0 .3 0 .4.1.1.1.2.2.2.4v3.9c-.1.2-.3.4-.6.4z"/><path class="st0" d="M0 43l2.1 114.3 58.7-2.3 1-116.4L0 43z"/><path class="st1" d="M17.5 136.6c-.2 0-.4-.1-.5-.3l-4.9-12.1c-.1-.3 0-.5.3-.7.3-.1.5 0 .7.3l4.4 10.9 10.8-31.2c.1-.2.3-.3.5-.3s.4.1.5.3l3.9 10 2.1-9.5c0-.2.2-.4.5-.4l2.1-.1 2.5-9.1c.1-.2.3-.4.5-.4.2-.1.4.1.5.4l5.9 20 2.7-.3 4.7-10.3c.1-.3.4-.4.7-.2.3.1.4.4.2.7l-4.8 10.6c-.1.2-.2.3-.4.3l-3.4.3c-.2 0-.5-.1-.5-.4L41 96.4l-2.1 7.7c-.1.2-.2.4-.4.4l-2.1.1-2.4 10.7c0 .2-.2.4-.4.4s-.4-.1-.5-.3l-4-10.3L18 136.3c-.1.1-.3.3-.5.3z"/><path class="st3" d="M15.6 115.4c-.2 0-.4-.1-.5-.3l-3-8.2c-.1-.3 0-.5.3-.6.3-.1.5 0 .6.3l2.6 7 2.8-7.3c.1-.2.2-.3.4-.3l1.8-.2 3.7-9.9c.1-.2.3-.3.5-.3s.4.2.5.4l.7 2 5.4-11.8c.1-.2.3-.3.5-.3s.4.1.4.3l3.3 9.3 7-16.6c.1-.2.2-.3.5-.3.2 0 .4.1.5.3l3.2 8.4.9-2c.1-.2.3-.3.5-.3s.4.1.5.3l3.8 9.1 3.2-5.7c.1-.2.4-.3.7-.2.2.1.3.4.2.7L52.8 96c-.1.2-.3.3-.5.3s-.4-.1-.4-.3l-3.7-9-1 2c-.1.2-.3.3-.5.3s-.4-.1-.4-.3L43 80.5l-7 16.7c-.1.2-.3.3-.5.3s-.4-.1-.5-.3l-3.3-9.4-5.5 11.9c-.1.2-.3.3-.5.3s-.4-.2-.4-.4l-.6-2.1-3.3 8.8c-.1.2-.2.3-.4.3l-1.8.2L16 115c0 .2-.2.4-.4.4z"/><path class="st2" d="M9.3 159.8l-5.4-.8c-.3 0-.5-.3-.4-.5l.6-6.1-1.4-87.7c0-.3.2-.5.5-.5s.5.2.5.5L5 152.5l-.5 5.6 4.9.6 54.5-1.6L65.1 42 3.4 47.2l.2 13.4c0 .3-.2.5-.5.5s-.5-.2-.5-.5l-.2-13.9c0-.3.2-.5.5-.5L65.6 41c.1 0 .3 0 .4.1.1.1.2.2.2.4l-1.3 116.2c0 .3-.2.5-.5.5l-55.1 1.6z"/><path class="st2" d="M7.4 154.6c-.3 0-.7-.1-1-.3-.4-.3-.7-.7-.8-1.2-.1-.5 0-1 .3-1.4.3-.4.7-.7 1.1-.8.4-.1.9 0 1.3.3s.7.7.8 1.2c.1.5 0 1-.3 1.4-.3.4-.7.7-1.1.8h-.3zm-.1-2.6h-.1c-.2 0-.4.1-.5.3-.1.2-.2.4-.1.6 0 .2.2.4.4.6.2.1.4.2.5.1.2 0 .4-.1.5-.3.1-.2.2-.4.1-.6 0-.2-.2-.4-.4-.6-.1-.1-.2-.1-.4-.1z"/><path class="st2" d="M8.4 155.9c-.4 0-.7-.1-1-.3-.8-.5-1.1-1.3-1.1-1.4-.1-.3.1-.5.4-.6.3-.1.5.1.6.4 0 0 .2.6.6.8.3.2.6.2 1 0 1-.3 1.3-1.4 1.2-2.2-.1-.8-.7-1.6-1.8-1.5-.3 0-.5-.2-.5-.5s.2-.5.5-.5c1.7-.2 2.7 1.1 2.9 2.3.3 1.3-.3 2.9-1.8 3.3-.5.1-.8.2-1 .2zm49.7-2.7c-.8 0-1.6-.6-1.8-1.5-.1-.5 0-1 .3-1.4.3-.4.7-.7 1.1-.8.5-.1.9 0 1.3.3s.6.7.7 1.2c.2 1-.4 1.9-1.4 2.1 0 .1-.1.1-.2.1zm.2-.5zm-.2-2.2H58c-.2 0-.4.1-.5.3-.1.2-.2.4-.1.6.1.5.5.8.9.7.4-.1.7-.5.6-1 0-.2-.2-.4-.3-.5-.2 0-.4-.1-.5-.1z"/><path class="st2" d="M58.6 154c-.4 0-.7-.1-1-.3-.8-.5-1.1-1.3-1.1-1.4-.1-.3.1-.5.4-.6.3-.1.5.1.6.4 0 0 .2.6.6.8.3.2.6.2 1 0 1-.3 1.3-1.4 1.2-2.2-.1-.8-.7-1.6-1.8-1.5-.3 0-.5-.2-.5-.5s.2-.5.5-.5c1.7-.2 2.7 1.1 2.9 2.3.3 1.3-.3 2.9-1.8 3.3-.5.1-.8.2-1 .2zM59 49.1c-.8 0-1.6-.6-1.8-1.5-.1-.5 0-1 .3-1.4.3-.4.7-.7 1.1-.8.9-.2 1.9.5 2.1 1.5.1.5 0 1-.3 1.4-.3.4-.7.7-1.1.8H59zm0-2.7h-.1c-.2 0-.4.1-.5.3-.1.2-.2.4-.1.6.1.5.5.8.9.7.2 0 .4-.1.5-.3.1-.2.2-.4.1-.6-.1-.4-.4-.7-.8-.7z"/><path class="st2" d="M59.5 49.7c-1.3 0-1.9-.9-2.1-1.4-.1-.3.1-.5.3-.6.3-.1.5.1.6.3.1.2.4 1 1.7.7 1-.2 1.2-1 1.2-1.5-.1-.7-.7-1.3-1.9-1.3-.3 0-.5-.2-.5-.5s.2-.5.5-.5c1.7-.1 2.8 1 2.9 2.1.2 1-.4 2.3-1.9 2.6-.3.1-.5.1-.8.1zM8.3 53.3c-.8 0-1.6-.6-1.8-1.5-.2-1 .4-1.9 1.4-2.1.9-.2 1.9.5 2.1 1.5.2 1-.4 1.9-1.4 2.1h-.3zm0-2.6h-.1c-.4.1-.7.5-.6 1 .1.5.5.8.9.7.4-.1.7-.5.6-1-.1-.4-.5-.7-.8-.7z"/><path class="st2" d="M9.4 54.6c-.4 0-.7-.1-1-.3-.8-.5-1.1-1.3-1.1-1.4-.1-.3.1-.5.4-.6.3-.1.5.1.6.4 0 0 .2.6.6.8.3.1.6.2 1 0 1-.3 1.3-1.4 1.2-2.2-.1-.8-.7-1.6-1.8-1.5-.3 0-.5-.2-.5-.5s.2-.5.5-.5c1.7-.1 2.7 1.1 2.9 2.3.3 1.3-.3 2.9-1.8 3.3-.5.1-.8.2-1 .2zm3.1 88.7c-.1 0-.3 0-.3-.1-.1-.1-.2-.2-.2-.4V56.3c0-.3.2-.5.5-.5l43.4-3.2c.1 0 .3 0 .4.1s.2.2.2.4l-1.3 88c0 .3-.2.5-.5.5l-42.2 1.7c.1 0 .1 0 0 0zm.5-86.6v85.6l41.1-1.8 1.3-87L13 56.7z"/><path class="st2" d="M12.5 61.3c-.3 0-.5-.2-.5-.5s.2-.5.5-.5l43.4-2.9c.3 0 .5.2.5.5s-.2.5-.5.5l-43.4 2.9c.1 0 .1 0 0 0zm0 8.7c-.3 0-.5-.2-.5-.5s.2-.5.5-.5L56 67.1c.3 0 .5.2.5.5s-.2.5-.5.5L12.5 70c.1 0 .1 0 0 0zm0 7.7c-.3 0-.5-.2-.5-.5s.2-.5.5-.5l43.4-2.9c.3 0 .5.2.5.5s-.2.5-.5.5l-43.4 2.9c.1 0 .1 0 0 0zm0 8.7c-.3 0-.5-.2-.5-.5s.2-.5.5-.5l43.4-2.9c.3 0 .5.2.5.5s-.2.5-.5.5l-43.4 2.9c.1 0 .1 0 0 0zm0 8.7c-.3 0-.5-.2-.5-.5s.2-.5.5-.5l43.4-2.9c.3 0 .5.2.5.5s-.2.5-.5.5l-43.4 2.9c.1 0 .1 0 0 0zm0 7.7c-.3 0-.5-.2-.5-.5s.2-.5.5-.5L56 99.9c.3 0 .5.2.5.5s-.2.5-.5.5l-43.5 1.9c.1 0 .1 0 0 0zm0 9.7c-.3 0-.5-.2-.5-.5s.2-.5.5-.5l42.5-2.9c.3 0 .5.2.5.5s-.2.5-.5.5l-42.5 2.9c.1 0 .1 0 0 0zm0 8.6c-.3 0-.5-.2-.5-.5s.2-.5.5-.5l42.5-1.9c.3 0 .5.2.5.5s-.2.5-.5.5l-42.5 1.9c.1 0 .1 0 0 0zm0 10.7c-.3 0-.5-.2-.5-.5s.2-.5.5-.5l42.5-1.9c.3 0 .5.2.5.5s-.2.5-.5.5l-42.5 1.9c.1 0 .1 0 0 0zm4.9 22.2c-.1 0-.2 0-.3-.1-.2-.2-.2-.5 0-.7l2.4-2.4-3.3-2.6c-.2-.2-.3-.5-.1-.7.2-.2.5-.3.7-.1l3.4 2.7c1.9-1.7 4.1-3.3 5.3-2.8 1.9.9 2.1 2.9 2.1 3 0 .2-.1.4-.3.5l-4.5 2.3c-.2.1-.4.1-.5-.1l-2-1.6c-.8.8-1.7 1.6-2.5 2.4-.2.1-.3.2-.4.2zm3.6-3.3l1.7 1.3 3.9-2c-.1-.5-.5-1.4-1.5-1.8-.6-.2-2.3.9-4.1 2.5zm17.6 2.3c-.2 0-.4-.2-.5-.4l-1.4-5.4-1.7.1-.9 3.6c0 .2-.2.3-.4.4-.2 0-.4 0-.5-.1l-2.1-2.3-2.8 3.9c-.2.2-.5.3-.7.1s-.3-.5-.1-.7l3.1-4.4c.1-.1.2-.2.4-.2.1 0 .3.1.4.2l1.9 2.1.8-3c.1-.2.2-.4.5-.4l2.5-.2c.2 0 .5.1.5.4l1.5 5.8c.1.3-.1.5-.4.6 0-.1-.1-.1-.1-.1z"/><path class="st2" d="M36.7 151.1c-.2 0-.5-.2-.5-.4 0-.3.2-.5.4-.6l7.7-1c.3 0 .5.2.6.4 0 .3-.2.5-.4.6l-7.8 1zm8.7.9c-.1 0-.2 0-.2-.1-.2-.1-.3-.4-.2-.7l2.7-4.8c.1-.2.3-.3.4-.3.2 0 .4.1.4.3l2.2 4c.1.2 0 .5-.2.7-.2.1-.5 0-.7-.2l-1.7-3.2-2.2 4c-.2.2-.4.3-.5.3z"/><path class="st0" d="M184.7 19.1l-2.1 7.2s-.2-1.7-.5-3.4c-.2-1.7 0-5.5 0-5.5l-1.8-.2-1.9-.2s-1.6 3-1.6 4.7c0 1.8.8 7.9.8 7.9l-3-4.7-1.6 1s1.7 5.8 2.4 6.9c.8 1.1 4 3.4 4 3.4L177.6 62l-23.9 1.7-6.2-6.6-17.5 8.2s-1.4.6-3.5 2.1c0 0 4.4-9.8 14.3-17.3l-5.3-5.6c1.3-.4 2.1-.6 2.1-.6l1.5-1.9c.5-.5.5-1.3.1-1.8l-4.2-6.5 4.5-10.7 4.7-5.3L146 15l1.4 1.4s.7-2.9.5-4.5c-.2-1.6-1.9-3.7-1.9-3.7l-1 2.3-3.1-2.3-3.9.6-1.1 1.4-2.1.4-1.1 1.4-1.4.6-.5 1.4 3.1 7.9-3.1 9c-.5-1.3-1-2.6-1.6-3.5-1.2-2-7.9-8.6-10.2-10.9-.5-.5-1.2-.7-1.8-.5l-6.6 2.1-4 16.9-2.6-.2-3.9 10.1c-.2.5-.2 1.2.2 1.7l1.1 1.6s1.9.1 4.7.2l-25.9 58.8c-.9 2.1.5 4.4 2.7 4.5l6.9.5 5.4-2c-.1 1.4 0 2.3 0 2.3l16.1 1 2.3-.9-2.5 69.4-.2 6.7c2-.1 4.7 0 7.4.9l-.3 1.7c1.8.3 4 .8 6.5 1.8 2-.7 5.3-1.7 9.1-2.3 0-.4 0-.9-.4-1.3-.7-.8-6.9-5.5-6.9-5.5l.2-1.6 9.5-67.1.5-.3c.6 0 1.1-.1 1.6-.3l.3-.2 38.4-20.4c1.7-.9 2-3.1.7-4.4l-8.3-8.7-14.3 6.9c.5-3.4 1.9-9.5 7-14.6l-6.3-6.7 23.7-.4c1.2 0 2.2-1 2.3-2.2l2.6-34.4 1.8-9.8-2.3-.7zm-64.5 162.8l-.3 1.4-1.1-1.4-2-70.7 2.8-1.1c-.1 2.1 0 3.5 0 3.5l14 .8-13.4 67.5z"/><path d="M143.9 11.4l-1.7-.8-2.6.5 1 5.3 4.6-2.7 1 1.4-.9-4.6-1.4.9z" fill="#e7e1ec"/><path class="st0" d="M112.8 11.4l32.9 94.1h55.1l2.6-79.5-4.9 1.8-5-27.7L126 4.4l-13.2 7z"/><path class="st1" d="M185.9 90.1l-5.3-6.1-7.5 6.1s-21.9 6.6-22.5 6.9c0 0-.2 0-.4-.1l3.3 4.6h44.9l.8-21.9-10.7 10.5h-2.6z"/><path class="st0" d="M191.7 60.5l-1.6 8.4-6.5 5.6-6.5-.6-3.7 4.1-14.9-31.9-7 9.6-8-14.6-12-23.8h-5.2V63l24 33.8c.2.1.4.1.4.1.6-.2 22.5-6.9 22.5-6.9l7.5-6.1L186 90h2.7l10.7-10.5 1.1-28.9-8.8 9.9z"/><path class="st5" d="M158.6 46.3l7.8 16.6 11.2-.8 1.1-16.4-2.4.2-3.5 6.3-5.5-12.7-7.2 2.1-3.4 3.5-4.7-15.8-4.7 2.9-3.9 9 8 14.7 7.2-9.6z"/><path class="st5" d="M190.4 56.3l-5.5-11-1.7.1-1.4 18.2c-.1 1.2-1.1 2.1-2.3 2.2l-11.8.2 5.6 12.1L177 74l6.5.6L190 69l1.6-8.4 8.8-10 .3-6.9-10.3 12.6z"/><path class="st2" d="M144.4 66.9c-.3 0-.5-.2-.5-.5s.2-.5.5-.5l35.3-.5c1-.1 1.7-.8 1.8-1.7l2.6-34.4 1.7-9.3-.7-.2-2 6.8c-.1.2-.3.4-.5.4s-.4-.2-.4-.5c0 0-.2-1.7-.5-3.3-.2-1.4-.1-4 0-5.1l-2.9-.3c-.4.8-1.4 2.9-1.4 4.2 0 1.7.8 7.7.8 7.8 0 .2-.1.5-.3.5-.2.1-.5 0-.6-.2l-2.8-4.3-.9.5c.7 2.3 1.8 5.7 2.3 6.3.6.8 3 2.6 3.9 3.2.1.1.2.3.2.4l-2 26c0 .2-.2.4-.5.5l-34.8 2.4c-.3 0-.5-.2-.5-.5s.2-.5.5-.5l34.4-2.4 1.8-25.2c-.8-.6-3.2-2.3-3.9-3.3-.8-1.1-2.4-6.4-2.5-7-.1-.2 0-.4.2-.6l1.6-1c.2-.1.5-.1.7.2l1.9 2.9c-.2-1.9-.5-4.7-.5-5.8 0-1.9 1.6-4.8 1.7-5 .1-.2.3-.3.5-.3l3.7.4c.3 0 .5.3.4.5 0 0-.3 3.8 0 5.4.1.3.1.7.2 1l1.5-4.9c.1-.3.3-.4.6-.3l1.6.4c.3.1.4.3.4.6l-1.8 9.8-2.6 34.3c-.1 1.5-1.2 2.6-2.8 2.7l-35.4.4z"/><path d="M173.1 81.3l-14.2 7.8c.1-7.5 4.9-12.8 7.2-15l-7.5-7.9-14.3.2c-2.3-.8-1.6-1.8-1.6-1.8l13.4-.9-5.1-5.4-19.6 8.5c3-7.9 10.3-13.3 12.9-15.5l-7-7.4c-.6.2-8.5 2.6-14.6 3.6-3.6.6-8.9.6-13.5.5l-26.8 61.5c-.8 2 .5 4.2 2.7 4.3l52.4 3c1.8.1 3.4-.3 5-1.1l36.9-20.9c2.2-1.2 2.7-4.2.9-5.9l-7.2-7.6z" fill="#b39ed3"/><path class="st3" d="M113.7 19.7l9.1-3s7.9 7.7 9 9.9 2.6 6.4 2.6 6.4l1.7-1s5.3 8.8 5 9.6l-3.7 2.3s-8.2 2.5-14.7 3.6-20.7.4-20.7.4l3.8-11.5 3.4.4 4.5-17.1z"/><path class="st2" d="M121.4 51.1l-.8-3.4c-2.5.2-5.6.3-8.7.3l-25.5 58.2 3.9.2v5.3l5.4-2c.1-3.7.6-11.7 3-20.6 3.3-12.3 10-26.8 22.7-38z"/><path class="st2" d="M90.4 112.3c-.1 0-.2 0-.3-.1-.1-.1-.2-.2-.2-.4V107l-3.4-.2c-.2 0-.3-.1-.4-.2-.1-.1-.1-.3 0-.5l25.5-58.2c.1-.2.3-.3.5-.3 3.5 0 6.4-.1 8.6-.3.2 0 .5.1.5.4l.8 3.4c0 .2 0 .4-.2.5-13.6 11.8-19.8 27.1-22.5 37.8-2.5 9.4-2.9 17.4-3 20.5 0 .2-.1.4-.3.5l-5.4 2c-.1-.1-.1-.1-.2-.1zm-3.1-6.5l3.2.2c.3 0 .5.2.5.5v4.6l4.4-1.6c.1-3.3.6-11.2 3-20.4 2.8-10.8 8.9-26.1 22.6-38.2l-.6-2.6c-2.1.2-4.8.3-8 .3l-25.1 57.2zm40.2-49.9c-.2 0-.4-.2-.5-.4l-2-8.5c-.1-.3.1-.5.4-.6.3-.1.5.1.6.4l2 8.5c.1.3-.1.5-.4.6h-.1zm4.4 18.4c-.2 0-.4-.2-.5-.4l-2-8.5c-.1-.3.1-.5.4-.6.3-.1.5.1.6.4l2 8.5c.1.3-.1.5-.4.6h-.1zm2.8 12.1c-.2 0-.4-.2-.5-.4l-2.2-9.5c-.1-.3.1-.5.4-.6.3-.1.5.1.6.4l2.2 9.5c.1.3-.1.5-.4.6h-.1zm2.4 28.8h-.3l-17.2-1.1c-.3 0-.5-.3-.5-.5 0-.3.2-.5.5-.5l17.2 1.1c.9.1 1.9-.3 2.5-1.1.6-.7.9-1.7.7-2.7l-3.4-14.2c-.1-.3.1-.5.4-.6.3-.1.5.1.6.4l3.4 14.2c.3 1.3 0 2.5-.9 3.5-.7.9-1.8 1.5-3 1.5zm-25.2-1.6l-16.1-1c-.3 0-.5-.3-.5-.5 0-.3.3-.5.5-.5l16.1 1c.3 0 .5.3.5.5 0 .3-.2.5-.5.5z"/><path class="st2" d="M90.4 112.3l-6.9-.5c-1.2 0-2.3-.7-2.9-1.7-.7-1.1-.8-2.4-.3-3.5l1.2-2.7c.1-.3.4-.4.7-.3.3.1.4.4.3.7l-1.2 2.7c-.4.8-.3 1.8.2 2.6s1.2 1.2 2.1 1.2l6.9.5c.3 0 .5.3.5.5-.1.3-.3.5-.6.5zm-7.1-10.7h-.2c-.3-.1-.4-.4-.3-.7l3.7-8.4c.1-.3.4-.4.7-.3.3.1.4.4.3.7l-3.7 8.4c-.1.2-.3.3-.5.3zm4.6-10.5h-.2c-.3-.1-.4-.4-.3-.7l18.8-42.6c.1-.3.4-.4.7-.3.3.1.4.4.3.7L88.4 90.8c-.1.2-.3.3-.5.3zm50.9 23.6c-.2 0-.4-.1-.4-.3-.1-.2 0-.5.2-.7L177 93.3c.6-.3 1-.9 1.2-1.6.1-.7-.1-1.5-.6-2l-8.3-8.7c-.2-.2-.2-.5 0-.7.2-.2.5-.2.7 0l8.3 8.7c.7.8 1 1.8.9 2.9-.2 1-.8 1.9-1.7 2.4l-38.4 20.4h-.3zm23.5-41.2c-.1 0-.3-.1-.4-.2l-6.4-6.7c-.2-.2-.2-.5 0-.7.2-.2.5-.2.7 0l6.4 6.7c.2.2.2.5 0 .7 0 .1-.2.2-.3.2zm-8.7-9.2c-.1 0-.3-.1-.4-.2l-6.2-6.6c-.2-.2-.2-.5 0-.7.2-.2.5-.2.7 0l6.2 6.6c.2.2.2.5 0 .7 0 .2-.2.2-.3.2zm-13-13.7c-.1 0-.3-.1-.4-.2l-5.3-5.6c-.2-.2-.2-.5 0-.7s.5-.2.7 0l5.3 5.6c.2.2.2.5 0 .7-.1.1-.2.2-.3.2z"/><path class="st2" d="M155.3 88c-.2 0-.4-.1-.5-.3-.1-.2 0-.5.2-.7l14.3-6.9c.2-.1.5 0 .7.2.1.2 0 .5-.2.7l-14.3 7h-.2z"/><path class="st2" d="M162.3 72.9l-27.5 13s-9.4 6.8-10 22.5l9.8.5-2.1-10.6 22.8-10.9c.4-3.2 1.9-9.3 7-14.5z"/><path class="st2" d="M134.6 109.4l-9.9-.5c-.3 0-.5-.2-.5-.5.6-15.8 10.1-22.8 10.2-22.9l27.6-13c.2-.1.5 0 .6.2.1.2.1.5-.1.6-5.3 5.3-6.6 11.7-6.9 14.2 0 .2-.1.3-.3.4l-22.4 10.7 2.1 10.2c0 .2 0 .3-.1.4 0 .2-.1.2-.3.2zm-9.3-1.5l8.7.5-2-10c0-.2.1-.5.3-.5l22.5-10.8c.3-2.4 1.5-7.7 5.4-12.6L135 86.4s-8.9 6.6-9.7 21.5zm-5.7 6.2c-.3 0-.5-.2-.5-.5 0-.1-.1-1.4 0-3.6 0-.3.3-.5.5-.5.3 0 .5.2.5.5-.1 2.1 0 3.4 0 3.5 0 .3-.2.6-.5.6zm10.3-48.3c-.2 0-.4-.1-.5-.3-.1-.3 0-.5.2-.7l17.5-8.1c.3-.1.5 0 .7.2.1.3 0 .5-.2.7l-17.5 8.1c-.1.1-.1.1-.2.1z"/><path class="st2" d="M126.4 67.9c-.2 0-.3-.1-.4-.2-.2-.2-.1-.5.1-.7 2.1-1.5 3.5-2.1 3.6-2.1.3-.1.5 0 .7.3.1.3 0 .5-.3.7 0 0-1.4.6-3.4 2h-.3zm-30.6 44.7c-.3 0-.5-.2-.5-.5v-2.3c0-.3.2-.5.5-.5s.5.2.5.5v2.3c0 .3-.2.5-.5.5zm15.8-64c-4.9 0-9.3-.2-9.6-.2-.2 0-.3-.1-.4-.2l-1.1-1.6c-.4-.7-.5-1.5-.2-2.2l3.9-10c.1-.2.3-.3.5-.3l15.6 1.6 13.2-4c.2-.1.4 0 .6.2l5.3 8.1c.5.7.4 1.7-.1 2.4l-1.5 1.9-.2.2c-.1 0-8.3 2.5-14.8 3.6-2.9.4-7.3.5-11.2.5zm-9.3-1.2c1.9.1 14.4.6 20.3-.4s13.4-3.2 14.5-3.5l1.4-1.8c.3-.4.3-.9.1-1.3l-5-7.8-13 3.9h-.2L105 35.1l-3.8 9.7c-.2.4-.1.8.1 1.2l1 1.4zm36.6-5.4z"/><path class="st2" d="M132.1 32.9c-.2 0-.4-.1-.5-.4-.5-1.7-1.3-4-2.1-5.3-1.2-1.8-7.9-8.5-10.2-10.7-.4-.4-.9-.5-1.3-.3l-6.4 2-.9 4.1c-.1.3-.3.4-.6.4-.3-.1-.4-.3-.4-.6l1-4.3c0-.2.2-.3.3-.4l6.6-2.1c.8-.3 1.7 0 2.3.6 2.5 2.4 9.1 9 10.4 10.8 1.1 1.7 2 4.7 2.3 5.6.1.3-.1.5-.3.6h-.2zm-24.8 2.4h-.1c-.3-.1-.4-.3-.4-.6l2.2-9.5c.1-.3.3-.4.6-.4.3.1.4.3.4.6l-2.2 9.5c-.1.2-.3.4-.5.4zm19.4 38.6s-6.6 4.3-10.9 14.4c-2.6 6.1-4 14.3-4 24.9l7.8-3c.2-3.3.6-8.3 2.1-13.3 1.3-4.4 4.3-10.1 7.2-12.9l-2.2-10.1z"/><path class="st2" d="M111.8 113.7c-.1 0-.2 0-.3-.1-.1-.1-.2-.2-.2-.4-.1-10.2 1.3-18.7 4-25.1 4.4-10.2 10.8-14.5 11.1-14.6.1-.1.3-.1.5 0s.3.2.3.4l2.3 10.1c0 .2 0 .4-.1.5-2.7 2.5-5.7 8-7.1 12.7-1.2 3.9-1.9 8.3-2.1 13.2 0 .2-.1.4-.3.4l-7.8 3c-.1-.1-.2-.1-.3-.1zm14.6-39c-1.7 1.3-6.6 5.6-10.1 13.8-2.6 6.1-3.9 14.2-3.9 24l6.8-2.7c.2-4.8 1-9.3 2.1-13.1 1.2-4.1 4-9.8 7.2-12.9l-2.1-9.1z"/><path class="st2" d="M101.1 107.1s.8-13.6 5.3-25.5c4.1-10.7 12.1-21.6 21.2-26.2l13-5.3c-9.8 7.5-14.3 17.3-14.3 17.3-3.5 2.4-8.8 6.9-12.8 14.3-6.2 11.4-6.6 25.8-6.6 25.8l-5.8-.4z"/><path class="st2" d="M107 108s-.1 0 0 0l-5.9-.4c-.3 0-.5-.3-.5-.5 0-.1.8-13.8 5.3-25.6 4.5-11.7 12.9-22.1 21.4-26.5l13.1-5.3c.2-.1.5 0 .6.2.1.2.1.5-.1.6-9.6 7.4-14.1 17-14.1 17.1 0 .1-.1.2-.2.2-3.6 2.5-8.8 6.9-12.6 14.1-6 11.1-6.5 25.4-6.5 25.5 0 .1-.1.3-.2.4-.1.1-.2.2-.3.2zm-5.4-1.4l4.9.3c.1-2.7 1.1-15.4 6.6-25.5 3.9-7.3 9.1-11.8 12.9-14.4.5-1.1 4.3-8.6 11.8-15.3l-10 4c-8.3 4.2-16.5 14.4-20.9 25.9-4 10.6-5.1 22.5-5.3 25zm26.2 87.9c-.1 0-.2 0-.2-.1-9.7-4.8-15.4-3-15.5-3-.3.1-.5-.1-.6-.3-.1-.3.1-.5.3-.6.2-.1 6.2-1.9 16.2 3.1.2.1.3.4.2.7-.1.1-.2.2-.4.2z"/><path class="st2" d="M124.9 193.2c-.2 0-.4-.1-.5-.3-.1-.3.1-.5.3-.6 2.8-1 10.2-3.2 17.3-2.7.3 0 .5.3.5.5 0 .3-.3.5-.5.5-6.9-.5-14.2 1.7-17 2.6h-.1zm-5-9.4c-.2 0-.3-.1-.4-.2l-1.1-1.4c-.2-.2-.1-.5.1-.7.2-.2.5-.1.7.1l1.1 1.4c.2.2.1.5-.1.7-.1.1-.2.1-.3.1z"/><path class="st2" d="M118.9 182.4c-.3 0-.5-.2-.5-.5l-2.1-70.7c0-.3.2-.5.5-.5s.5.2.5.5l2.1 70.7c0 .2-.3.5-.5.5zm-.2 7.3h-.2c-4.6-1.5-9.8-.6-9.8-.6-.3.1-.5-.1-.6-.4-.1-.3.1-.5.4-.6.2 0 5.4-1 10.3.6.3.1.4.4.3.6 0 .3-.2.4-.4.4zM104.6 45.6h-.1c-.3-.1-.4-.4-.3-.6l2.4-7.9c.1-.3.4-.4.6-.3.3.1.4.4.3.6l-2.4 7.9c-.1.1-.3.3-.5.3zm4.7.7h-.1c-.3-.1-.4-.3-.4-.6l2-8.6c.1-.3.3-.4.6-.4.3.1.4.3.4.6l-2 8.6c-.1.3-.3.4-.5.4zm5 0s-.1 0 0 0c-.3 0-.5-.3-.5-.6l1.2-8.6c0-.3.3-.5.6-.4.3 0 .5.3.4.6l-1.2 8.6c-.1.2-.3.4-.5.4zm4.6 0c-.1 0-.1 0 0 0-.3 0-.5-.3-.5-.5l.5-7.9c0-.3.2-.5.5-.5s.5.3.5.5l-.5 7.9c-.1.3-.3.5-.5.5zm9.7-1.7c-.2 0-.4-.1-.5-.4l-2-7.2c-.1-.3.1-.5.4-.6.3-.1.5.1.6.4l2 7.2c.1.3-.1.5-.4.6h-.1zm4-1.1c-.2 0-.4-.1-.5-.3l-2.8-7.2c-.1-.3 0-.5.3-.6.3-.1.5 0 .6.3l2.8 7.2c.1.3 0 .5-.3.6h-.1zm3.9-1.3c-.2 0-.3-.1-.4-.3l-4.1-7.5c-.1-.2 0-.5.2-.7.2-.1.5 0 .7.2l4.1 7.5c.1.2 0 .5-.2.7-.1.1-.2.1-.3.1zm7.7 24.7c-.3 0-.5-.2-.5-.5s.2-.5.5-.5l35.3-.5c.9 0 1.7-.8 1.8-1.7l2.6-34.4 1.7-9.3-.7-.2-2 6.8c-.1.2-.3.4-.5.4s-.4-.2-.5-.4l-.5-3.4c-.2-1.4-.1-4 0-5.1l-2.9-.3c-.4.8-1.4 2.9-1.4 4.2 0 1.7.8 7.7.8 7.8 0 .2-.1.5-.3.5-.2.1-.5 0-.6-.2l-2.8-4.3-.9.5c.7 2.3 1.8 5.7 2.3 6.3.6.8 3 2.6 3.9 3.2.1.1.2.3.2.4l-1.8 25.9c0 .2-.2.4-.5.5L142.6 65c-.3 0-.5-.2-.5-.5s.2-.5.5-.5l34.4-2.4 1.8-25.2c-.8-.6-3.2-2.3-3.9-3.3-.8-1.1-2.3-6.4-2.5-7-.1-.2 0-.4.2-.6l1.6-1c.2-.1.5-.1.7.2l1.9 2.9c-.2-1.9-.5-4.7-.5-5.8 0-1.9 1.6-4.8 1.7-5 .1-.2.3-.3.5-.3l3.5.5c.3 0 .5.3.4.5 0 0-.3 3.8 0 5.4l.1 1.1 1.5-5c.1-.3.3-.4.6-.3l1.6.4c.3.1.4.3.4.6l-1.8 9.8-2.6 34.3c-.1 1.5-1.3 2.7-2.8 2.7l-35.2.4z"/><path class="st2" d="M179.7 26.3c-.2 0-.5-.2-.5-.4s-.5-3.7-.5-4.6c0-.9 1-3.7 1.1-4.1.1-.3.4-.4.6-.3s.4.4.3.6c-.4 1.1-1 3.2-1 3.7 0 .7.4 3.5.5 4.5 0 .3-.2.6-.5.6zm-45 7.9h-.2c-.3-.1-.4-.4-.3-.7l4.5-10.7s0-.1.1-.1l4.7-5.3 1.6-2.3-.6-.8-4.2 2.4c-.1.1-.3.1-.5 0-.1-.1-.3-.2-.3-.4l-1-5.3c0-.3.1-.5.4-.6l2.6-.5h.3l1.5.7.4-.2-2.3-1.7-3.4.5-1.8 2.5c-.2.2-.5.3-.7.1-.2-.2-.3-.5-.1-.7l1.9-2.7c.1-.1.2-.2.3-.2l3.9-.6c.1 0 .3 0 .4.1L145 10c.1.1.2.3.2.4 0 .2-.1.3-.2.4l-1.3.8c-.1.1-.3.1-.5 0l-1.6-.7-2 .4.8 4.2 4-2.3c.2-.1.5-.1.7.1l1.1 1.4c.1.2.1.4 0 .6l-1.8 2.6-4.6 5.3-4.5 10.7c-.2.2-.4.3-.6.3z"/><path class="st2" d="M131.6 31.1h-.2c-.3-.1-.4-.4-.3-.6l3.1-8.8-3.1-7.7v-.4l.5-1.3c0-.1.1-.2.3-.3l1.3-.6 1-1.3c.1-.1.2-.2.3-.2l2.1-.4c.3-.1.5.1.6.4.1.3-.1.5-.4.6l-1.9.3-1 1.2-.2.2-1.2.5-.4.9 3.1 7.7v.3l-3.1 9c-.1.4-.3.5-.5.5zM147 16.8c-.1 0-.3-.1-.4-.1l-1.3-1.3c-.2-.2-.2-.5 0-.7s.5-.2.7 0l.6.6c.2-1 .4-2.5.3-3.4-.1-.9-.7-2-1.2-2.8l-.6 1.4c-.1.3-.4.4-.7.3-.3-.1-.4-.4-.3-.7l1-2.3c.1-.2.2-.3.4-.3s.4.1.5.2c.1.1 1.6 2.3 1.8 4 .2 1.7-.4 4.6-.5 4.7 0 .2-.2.3-.3.4.1 0 0 0 0 0zm-5.7-1.1c-.2 0-.5-.2-.5-.4l-.6-4.6c0-.3.2-.5.4-.6.3 0 .5.2.6.4l.6 4.6c.1.3-.1.5-.5.6.1 0 .1 0 0 0z"/><path class="st2" d="M147.4 12.3c-.2 0-.5-.2-.5-.4 0-.3.1-.5.4-.6l3.1-.5c.3 0 .5.1.6.4 0 .3-.1.5-.4.6l-3.2.5c.1 0 .1 0 0 0zm-29.5 4.1c-.2 0-.4-.1-.5-.3l-1.1-3c-.1-.2 0-.5.2-.6l10.7-5.6c.1 0 .1-.1.2-.1l41.8-2.5c.3 0 .5.2.5.5s-.2.5-.5.5l-41.7 2.5-10.3 5.3.9 2.6c.1.3 0 .5-.3.6.2 0 .1.1.1.1zm87.1 93l-54.4-1c-.3 0-.5-.2-.5-.5s.2-.5.5-.5l53.9 1V89.5c0-.3.2-26.9 1-34.2.7-6.9 1.1-31.3 1.1-33.5L194.3 3.7l-19.8 1.2c-.3 0-.5-.2-.5-.5s.2-.5.5-.5l20.1-1.2c.2 0 .3.1.4.2l12.6 18.4c.1.1.1.2.1.3 0 .3-.4 26.5-1.1 33.7-.8 7.3-1 33.8-1 34.1v19.4c0 .1-.1.3-.1.4-.3.2-.4.2-.5.2z"/><path class="st2" d="M197.5 24.8c-.1 0-.2 0-.3-.1-.1-.1-.2-.2-.2-.3l-3-21.1c0-.3.2-.5.4-.6.3 0 .5.2.6.4l2.9 20.5 9-2.5c.3-.1.5.1.6.3.1.3-.1.5-.3.6l-9.5 2.7c-.1.1-.1.1-.2.1zm-73.2-3.5c-.3 0-.5-.2-.5-.5l-.2-5.4c0-.1 0-.3.1-.4.1-.1.2-.2.4-.2 0 0 3.2-.1 8-.3.3 0 .5.2.5.5s-.2.5-.5.5c-3.7.2-6.4.3-7.5.3l.1 4.9c.1.4-.1.6-.4.6zm15.5-6c-.3 0-.5-.2-.5-.5s.2-.5.5-.5h1.5c.3 0 .5.2.5.5s-.2.5-.5.5h-1.5z"/><path class="st2" d="M147.4 15c-.3 0-.5-.2-.5-.5s.2-.5.5-.5c17.7-.8 40.9-1.8 48.4-2.2.3 0 .5.2.5.5s-.2.5-.5.5c-7.5.4-30.6 1.4-48.4 2.2.1 0 0 0 0 0zm18.9 85.1c-.3 0-.5-.2-.5-.5s.2-.5.5-.5L196 99c0-4.5.4-38.8.8-45.3.2-4.4.8-19.1 1.2-29.6 0-.3.2-.5.5-.5s.5.2.5.5c-.4 10.5-1 25.3-1.2 29.7-.4 7-.8 45.4-.8 45.8 0 .3-.2.5-.5.5h-30.2z"/><path class="st2" d="M187 89.2h-2.1c-.1 0-.3-.1-.4-.2l-5-5.8-4.2 3.6c-.2.2-.5.2-.7-.1-.2-.2-.2-.5.1-.7l4.6-3.9c.2-.2.5-.2.7.1l5.2 6h1.6l9.6-9.8c.2-.2.5-.2.7 0 .2.2.2.5 0 .7l-9.8 9.9c0 .1-.2.2-.3.2zm-15.2-11c-.2 0-.4-.1-.5-.3l-5.6-11.6c-.1-.2 0-.5.2-.7.2-.1.5 0 .7.2l5.2 10.9 4.1-4.5c.1-.1.2-.2.4-.2l6.2.3 4.7-4 2.1-8.8c0-.1.1-.2.1-.2l7.6-8.5c.2-.2.5-.2.7 0 .2.2.2.5 0 .7l-7.5 8.4-2.1 8.9c0 .1-.1.2-.2.3l-5 4.3c-.1.1-.2.1-.3.1l-6.2-.3-4.4 4.9c.1 0 0 .1-.2.1zm-7.1-14.7c-.2 0-.4-.1-.5-.3l-7-14.7-2.1.1-5.4 7.4c-.1.1-.3.2-.4.2-.2 0-.3-.1-.4-.3l-13.1-25.6c-.1-.2 0-.5.2-.7.2-.1.5 0 .7.2l12.7 24.9 5.1-7c.1-.1.2-.2.4-.2l2.7-.1c.2 0 .4.1.5.3l7.2 15c.1.2 0 .5-.2.7-.2.1-.3.1-.4.1zm-31.1-38.1c-.2 0-.4-.1-.4-.3l-5-9.7c-.1-.2 0-.5.2-.7.2-.1.5 0 .7.2l5 9.7c.1.2 0 .5-.2.7-.2.1-.3.1-.3.1z"/><path class="st2" d="M188 56.8c-.2 0-.4-.1-.4-.3l-4.9-9c-.1-.2 0-.5.2-.7.2-.1.5 0 .7.2l4.5 8.3 9.3-12.7c.2-.2.5-.3.7-.1.2.2.3.5.1.7l-9.8 13.3c-.1.3-.2.3-.4.3zm-15.9-6.9h-2.2c-.2 0-.4-.1-.4-.3l-5.8-10.7-3 .8-4 3.8c-.1.1-.2.1-.3.1l-1.7.1c-.2 0-.4-.1-.5-.3l-4.8-14.5-3.5 3.6-3.9 7.9c-.1.2-.4.3-.7.2-.2-.1-.3-.4-.2-.7l4-7.9.1-.1 4.1-4.3c.1-.1.3-.2.5-.1.2 0 .3.2.4.3l5 15 1.1-.1 4-3.8c.1-.1.1-.1.2-.1l3.5-.9c.2-.1.5 0 .6.2l5.9 10.8h1.6l2.5-5.1c.1-.2.3-.3.4-.3l4-.1c.3 0 .5.2.5.5s-.2.5-.5.5l-3.7.1-2.5 5.1c-.3.2-.5.3-.7.3zm-60.5 132.3c-.3 0-.5-.2-.5-.5l2.5-69.4c0-.3.2-.5.5-.5s.5.2.5.5l-2.5 69.4c0 .2-.2.5-.5.5z"/><path class="st2" d="M111.4 188.9c-.3 0-.5-.2-.5-.5l.2-6.7c0-.3.2-.5.5-.5s.5.2.5.5l-.2 6.7c0 .2-.2.5-.5.5zm22.5 2.1c-.3 0-.5-.2-.5-.5 0-.4-.1-.7-.3-1-.5-.5-4.4-3.5-6.8-5.4-.1-.1-.2-.3-.2-.5l.2-1.6c0-.3.3-.5.6-.4.3 0 .5.3.4.6l-.2 1.3c1.3 1 6.1 4.7 6.8 5.4.5.6.5 1.2.5 1.6 0 .3-.2.5-.5.5z"/><path class="st2" d="M126.9 182.6c-.1 0-.1 0 0 0-.3 0-.5-.3-.5-.6l9.5-67.5c0-.3.3-.5.6-.4.3 0 .5.3.4.6l-9.5 67.5c-.1.2-.3.4-.5.4zm-8.5 8.8h-.1c-.3-.1-.4-.3-.4-.6l1.8-9c.1-.3.3-.4.6-.4.3.1.4.3.4.6l-1.8 9c-.1.2-.3.4-.5.4z"/><path class="st2" d="M120.2 182.4c-.4-.1-.5-.3-.5-.6l13.5-67.4c.1-.3.3-.4.6-.4.3.1.4.3.4.6L120.7 182c0 .2-.2.4-.5.4z"/></svg>
