<svg version="1.1" id="Layer_1" xmlns="http://www.w3.org/2000/svg" x="0" y="0" viewBox="0 0 208 170" xml:space="preserve"><style>.st0{fill:#fff}.st3{fill:#b39ed3}.st4{fill:#2f1d4a}.st5{fill:#e7e1ec}</style><path class="st0" d="M1.5 8.8L76.6 0l-2.4 77.4L0 82.2 1.5 8.8z"/><path d="M5.1 85l20.2-1.7 32-.5 20.3-2.2V69.7l1.8-26.6v-3.2l-2.9-4.5-13 28.1-4.1-7.2-4.6 9-9.4-21.7-16.2 30.2-6-11.9-5 10.6L5.4 40l-.7 20.5.4 24.5z" fill="#ebb432"/><path d="M76.4 29.7L63.1 54.4l-8.4-15.2-3.9 6.9L44.1 31 30 58.1l-5.3-13.4-4.1-9.7-4.7 11-4.6 10.3 6.5 16.2 5-10.7 6 12 16.4-30.4 9.4 21.8 4.6-9 4.1 7.3 13.1-28.2 3 4.5V24.3l-3 5.4z" fill="#e1557a"/><path class="st3" d="M64.8 37.7l-2.7-4.6-3.1 6.5L46.5 14l-9.9 21.5-3.6-8.3-7.8 17.2 5.3 13.5 14-27.2L51.2 46l3.9-6.9 8.3 15.2 13.2-24.8-3.9-8.1-7.9 16.3zM4.7 25.2v14.5L11.2 56l4.7-10.1L4.7 25.2z"/><path class="st4" d="M5.1 85.5c-.1 0-.2 0-.3-.1-.1-.1-.2-.2-.2-.4l-.4-24.4.8-21.3V12.6c0-.3.2-.5.4-.5l9.7-1.2c.3 0 .5.2.6.4 0 .3-.2.5-.4.6l-9.2 1.2v26.2l-.9 21.3.4 23.9 19.7-1.7 32-.5 19.8-2.1V69.7l1.8-26.6V4.3L40.2 8.9c-.3 0-.5-.2-.6-.4 0-.3.2-.5.4-.6l39.3-4.7c.1 0 .3 0 .4.1.1.1.2.2.2.4v39.4l-1.8 26.6v10.9c0 .3-.2.5-.4.5l-20.3 2.2-32 .5-20.3 1.7c.1 0 0 0 0 0z"/><path class="st4" d="M19.6 10.8c-.3 0-.5-.2-.5-.4 0-.3.2-.5.4-.5L37.2 8c.3 0 .5.2.5.4 0 .3-.2.5-.4.5l-17.7 1.9c.1 0 0 0 0 0z"/><path d="M11.6 16.6c.3-.8.1-1.7-.6-2-.7-.3-1.5.1-1.9.9-.3.8-.1 1.7.6 2 .7.3 1.5-.1 1.9-.9z"/><path d="M10.1 18.1c-.2 0-.5 0-.7-.1-.5-.2-.8-.6-1-1.1-.2-.5-.1-1 .1-1.5s.6-.9 1-1.1c.5-.2 1-.3 1.5-.1.5.2.8.6 1 1.1.2.5.1 1-.1 1.5s-.6.9-1 1.1c-.2.2-.5.2-.8.2zm.4-3.1c-.1 0-.3 0-.4.1-.2.1-.5.3-.6.6-.1.3-.1.6-.1.8.1.2.2.4.4.5.2.1.4.1.7 0 .2-.1.5-.3.6-.6.1-.3.1-.6.1-.8-.1-.2-.2-.4-.4-.5-.2-.1-.3-.1-.3-.1zm65.2-5.8c.3-.8.1-1.7-.6-2-.7-.3-1.5.1-1.9.9-.3.8-.1 1.7.6 2 .7.3 1.6-.1 1.9-.9z"/><path d="M74.3 10.7c-.2 0-.5 0-.7-.1-.5-.2-.8-.6-1-1.1-.2-.5-.1-1 .1-1.5s.6-.9 1-1.1c.5-.2 1-.3 1.5-.1.5.2.8.6 1 1.1.2.5.1 1-.1 1.5s-.6.9-1 1.1c-.2.1-.5.2-.8.2zm.3-3.1c-.1 0-.3 0-.4.1-.2.1-.4.3-.5.6-.1.3-.1.6-.1.8.1.2.2.4.4.5.2.1.4.1.7 0 .3-.1.5-.4.6-.6.1-.3.1-.6.1-.8-.1-.2-.2-.4-.4-.5-.2-.1-.3-.1-.4-.1z"/><path class="st4" d="M26.9 74.3c-.2 0-.4-.1-.4-.3l-5.6-11.4-4.6 9.9c-.1.2-.3.3-.5.3s-.4-.1-.4-.3L4.2 41.9c-.1-.3 0-.5.3-.6.3-.1.5 0 .6.3L15.9 71l4.5-9.8c.1-.2.3-.3.4-.3.2 0 .4.1.4.3L27 72.7l16.1-30c.1-.2.3-.3.5-.3s.4.1.4.3l8.7 20.7 4.2-7.6c.1-.2.2-.3.4-.3s.3.1.4.2l3.9 6 12.8-27.5c.1-.2.3-.3.5-.3s.4.1.5.3l4.5 10c.1.3 0 .5-.3.7-.3.1-.5 0-.7-.3l-4.1-9-12.6 27.5c-.1.2-.2.3-.4.3s-.4-.1-.5-.2l-4-6L53 65c-.1.2-.3.3-.5.3s-.4-.1-.4-.3l-8.7-20.7-16 29.7c-.1.2-.3.3-.5.3z"/><path class="st4" d="M28.6 59.3s-.1 0 0 0c-.2 0-.4-.1-.5-.3l-9-21.7-8.4 19c-.1.3-.4.4-.7.3-.3-.1-.4-.4-.3-.7l8.8-20c.1-.2.3-.3.5-.3s.4.1.5.3l9 21.8 13.2-27c.1-.2.3-.3.4-.3.2 0 .4.1.4.3L50 45.4l2.9-5.1c.1-.2.3-.3.4-.3.2 0 .3.1.4.2l8.1 14 17.1-34.9c.1-.2.4-.4.7-.2.2.1.4.4.2.7L62.3 55.6c-.1.2-.2.3-.4.3s-.4-.1-.4-.2l-8.2-14.1-2.9 5.2c-.1.2-.3.3-.5.3s-.4-.1-.4-.3L42.2 32 29 59.1c-.1.1-.3.2-.4.2z"/><path class="st4" d="M22.4 45.3h-.2c-.2-.1-.4-.4-.2-.7L29.8 28c.1-.2.3-.3.4-.3.2 0 .4.1.5.3l3.7 7.1 9.5-20.3c.1-.2.3-.3.4-.3.2 0 .4.1.5.3L57.5 39l2.4-4.3c.1-.2.2-.3.4-.3s.3.1.4.2l1.2 1.9 8.2-15c.1-.2.3-.2.4-.3.2 0 .4.1.4.3l4.2 8c.1.2 0 .5-.2.7-.2.1-.5 0-.7-.2l-3.8-7.1-8.1 14.9c-.1.2-.2.3-.4.3s-.3-.1-.4-.2L60.4 36 58 40.4c-.1.2-.2.2-.4.3-.2 0-.4-.1-.4-.3L44.3 16.1l-9.5 20.3c-.1.2-.3.3-.4.3-.2 0-.4-.1-.5-.3l-3.7-7.1L22.9 45c-.1.2-.3.3-.5.3zM14 47.2c-.2 0-.4-.1-.5-.3L4.2 27.3c-.1-.2 0-.5.2-.7.3-.1.5 0 .7.2l9.3 19.6c.1.2 0 .5-.2.7 0 .1-.1.1-.2.1zm43 29.9c-.2 0-.5-.2-.5-.4 0-.3.2-.5.4-.6l14.9-1.9c.3 0 .5.2.6.4 0 .3-.2.5-.4.6l-15 1.9z"/><path class="st0" d="M134.5 93.3l-1 14.6 2.3-.8 3.5 1.2.8-15-2 .9-1.1-1.8-1.1 1.8-1.4-.9zm-66.6 23.5l21.8-18.9-2.7-1-2.2.1v-2.7l-19.4 17.3 1.8.7-.4 1.7h1.8l-.7 2.8z"/><path class="st0" d="M67.9 98.5l74.1-.4-.7 71.9-74-1.8.6-69.7z"/><path class="st4" d="M120.5 158.4l7.4.1v-6.7h-7.4v6.6z"/><path class="st4" d="M127.9 159l-7.4-.1c-.3 0-.5-.2-.5-.5v-6.6c0-.3.2-.5.5-.5h7.4c.3 0 .5.2.5.5v6.7c0 .1-.1.3-.1.4-.2.1-.3.1-.4.1zm-6.9-1.1l6.4.1v-5.7H121v5.6z"/><path class="st3" d="M127.9 133.8v-8.6l-7.4.1v8.3l7.4.2z"/><path class="st5" d="M120.5 133.6v18.2h7.4v-18l-7.4-.2zm-6.1-2.1l.4-14.4h-7.1l-.2 14.4h6.9z"/><path class="st3" d="M107.3 140.3l-.2 18 6.5.1.5-18h-6.8z"/><path class="st4" d="M114.4 131.5h-6.9l-.2 8.7h6.7l.4-8.7z"/><path class="st4" d="M114.1 140.8h-6.7c-.1 0-.3-.1-.4-.1s-.1-.2-.1-.4l.2-8.7c0-.3.2-.5.5-.5h6.9c.1 0 .3.1.4.2.1.1.1.2.1.4l-.3 8.7c-.2.1-.4.4-.6.4zm-6.3-1h5.7l.3-7.7H108l-.2 7.7z"/><path class="st3" d="M94.6 157.8l6.9.3v-25.4h-6.9v25.1z"/><path class="st4" d="M101.4 126.5h-6.9v6.3h6.9v-6.3z"/><path class="st4" d="M101.4 133.3h-6.9c-.3 0-.5-.2-.5-.5v-6.3c0-.3.2-.5.5-.5h6.9c.3 0 .5.2.5.5v6.3c0 .2-.2.5-.5.5zm-6.3-1h5.9V127h-5.9v5.3zm-12.9 25.6V143l7.4.2.1 14.7h-7.5z"/><path class="st4" d="M89.7 158.4h-7.5c-.3 0-.5-.2-.5-.5V143c0-.1.1-.3.2-.4.1-.1.2-.1.4-.1l7.4.2c.3 0 .5.2.5.5l.1 14.7c0 .1-.1.3-.1.4s-.4.1-.5.1zm-7-1h6.5l-.1-13.7-6.4-.2v13.9z"/><path class="st3" d="M89.6 143.2l-7.4-.2v6.5h7.5l-.1-6.3z"/><path class="st4" d="M70.1 107.9c-.3 0-.5-.2-.5-.5l.1-6.5c0-.3.2-.5.5-.5h7.4c.3 0 .5.2.5.5s-.2.5-.5.5h-6.9l-.1 6c0 .3-.3.5-.5.5zm28-6.5H85.9c-.3 0-.5-.2-.5-.5s.2-.5.5-.5H98c.3 0 .5.2.5.5s-.1.5-.4.5zm36.4 0h-32.7c-.3 0-.5-.2-.5-.5s.2-.5.5-.5h32.7c.3 0 .5.2.5.5s-.2.5-.5.5zm10.7 66.3l-74.4-1.4c-.3 0-.5-.2-.5-.5l-.8-18.6.2-13.2c0-.3.3-.5.5-.5.3 0 .5.2.5.5l-.2 13.1.7 18.1 73.4 1.4-.2-35.4c0-.2.7-17.1.8-29.9h-5.1c-.3 0-.5-.2-.5-.5s.2-.5.5-.5h5.6c.3 0 .5.2.5.5 0 12.9-.8 30.3-.8 30.4l.2 35.9c0 .1-.1.3-.1.4-.1.1-.2.2-.3.2zm-75.1-38.3c-.3 0-.5-.2-.5-.5v-14c0-.3.2-.5.5-.5s.5.2.5.5v14c0 .3-.3.5-.5.5z"/><path class="st4" d="M139.4 108.9h-.2l-3.3-1.2-2.2.8c-.2.1-.3 0-.5-.1-.1-.1-.2-.3-.2-.4l.2-2.9c0-.3.2-.5.5-.5s.5.2.5.5l-.1 2.2 1.6-.6h.3l2.8 1 .7-13.5-1.2.6c-.2.1-.5 0-.6-.2l-.7-1.1-.7 1.1c-.1.1-.2.2-.3.2-.1 0-.3 0-.4-.1l-.6-.4-.5 8.4c0 .3-.3.5-.5.5-.3 0-.5-.3-.5-.5l.6-9.2c0-.2.1-.3.3-.4.2-.1.4-.1.5 0l.9.6.8-1.3c.2-.3.7-.3.8 0l.9 1.4 1.6-.7c.2-.1.3-.1.5 0 .1.1.2.3.2.4l-.8 15c0 .2-.1.3-.2.4 0-.1-.1 0-.2 0zm-71.5 8.4c-.1 0-.2 0-.3-.1-.2-.1-.3-.3-.2-.5l.5-2.1h-1.1c-.2 0-.3-.1-.4-.2-.1-.1-.1-.3-.1-.4l.3-1.3-1.4-.6c-.2-.1-.3-.2-.3-.4s0-.3.2-.5L84.4 94c.1-.1.4-.2.5-.1.2.1.3.3.3.5v2.1l1.6-.1h.2l2.7 1c.2.1.3.2.3.4s0 .4-.2.5L68 117.2c.1 0 0 .1-.1.1zm-.5-3.7h1.1c.2 0 .3.1.4.2s.1.3.1.4l-.3 1.2 20-17.4-1.8-.6-2 .1c-.1 0-.3 0-.4-.1-.1-.1-.2-.2-.2-.4v-1.5l-18 16 1 .4c.2.1.3.3.3.6l-.2 1.1zm69 45.7l-58.9-.9c-.3 0-.5-.2-.5-.5l.4-45.8c0-.3.2-.5.5-.5s.5.2.5.5l-.4 45.3 58.3.9c.3 0 .5.2.5.5.1.3-.2.5-.4.5z"/><path class="st4" d="M82.2 158.4c-.3 0-.5-.2-.5-.5V143c0-.1.1-.3.2-.4.1-.1.2-.1.4-.1l7.4.2c.3 0 .5.2.5.5l.1 14.7c0 .3-.2.5-.5.5s-.5-.2-.5-.5l-.1-14.2-6.4-.2v14.4c-.1.2-.3.5-.6.5zm19.6 0c-.3 0-.5-.2-.5-.5v-31.3h-6.5v31c0 .3-.2.5-.5.5s-.5-.2-.5-.5v-31.5c0-.3.2-.5.5-.5h7.5c.3 0 .5.2.5.5v31.8c0 .2-.2.5-.5.5zm12 0c-.3 0-.5-.2-.5-.5l1.1-40.6h-5.9l-.5 40.5c0 .3-.2.5-.5.5s-.5-.2-.5-.5l.5-41c0-.3.2-.5.5-.5h6.9c.1 0 .3.1.4.2s.1.2.1.4l-1.1 41.1c0 .1-.3.4-.5.4zm14.2.9c-.3 0-.5-.2-.5-.5v-33.1l-6.5.1v33c0 .3-.2.5-.5.5s-.5-.2-.5-.5v-33.5c0-.3.2-.5.5-.5l7.5-.1c.1 0 .3.1.4.1.1.1.1.2.1.4v33.6c0 .3-.3.5-.5.5z"/><path class="st4" d="M113.8 158.4l-6.4-.1c-.1 0-.3-.1-.4-.2-.1-.1-.1-.2-.1-.4l.5-41c0-.3.2-.5.5-.5h6.9c.1 0 .3.1.4.2s.1.2.1.4l-1.1 41.1c.1.2-.2.5-.4.5zm-5.9-1.1l5.4.1 1.1-40.1h-5.9l-.6 40zm20.1 2l-7.5-.1c-.3 0-.5-.2-.5-.5v-33.5c0-.3.2-.5.5-.5l7.5-.1c.1 0 .3.1.4.1.1.1.1.2.1.4v33.6c0 .1-.1.3-.1.4-.2.1-.3.2-.4.2zm-7-1.1l6.5.1v-32.6l-6.5.1v32.4z"/><path class="st4" d="M128 134.1h-7.5c-.3 0-.5-.2-.5-.5s.2-.5.5-.5h7.5c.3 0 .5.2.5.5s-.3.5-.5.5zm0 18.7h-7.5c-.3 0-.5-.2-.5-.5s.2-.5.5-.5h7.5c.3 0 .5.2.5.5s-.3.5-.5.5zm-14-20.6h-6.5c-.3 0-.5-.2-.5-.5s.2-.5.5-.5h6.5c.3 0 .5.2.5.5s-.3.5-.5.5zm0 8.4h-6.5c-.3 0-.5-.2-.5-.5s.2-.5.5-.5h6.5c.3 0 .5.2.5.5s-.3.5-.5.5zm-12.2-7.5h-7.5c-.3 0-.5-.2-.5-.5s.2-.5.5-.5h7.5c.3 0 .5.2.5.5s-.2.5-.5.5zM89.7 150h-7.5c-.3 0-.5-.2-.5-.5s.2-.5.5-.5h7.5c.3 0 .5.2.5.5s-.3.5-.5.5zm-12.2 3.7h-2.8c-.3 0-.5-.2-.5-.5s.2-.5.5-.5h2.8c.3 0 .5.2.5.5s-.2.5-.5.5zm0-10.3h-2.8c-.3 0-.5-.2-.5-.5s.2-.5.5-.5h2.8c.3 0 .5.2.5.5s-.2.5-.5.5zm0-9.3h-2.8c-.3 0-.5-.2-.5-.5s.2-.5.5-.5h2.8c.3 0 .5.2.5.5s-.2.5-.5.5zm0-9.4h-2.8c-.3 0-.5-.2-.5-.5s.2-.5.5-.5h2.8c.3 0 .5.2.5.5s-.2.5-.5.5z"/><path class="st0" d="M106.1 18l99.4-8.6v64.2l-99.9 3.1.5-58.7z"/><path class="st5" d="M147.2 41.8s-2.2 3.8-2.1 4.8c.1 1 1 4.5 1 4.5l5.5 3.9-.6 5.5 1.2 7 2 .7s5.3-7 5.6-8.3c.3-1.3 1.5-7.7 1.5-7.7l-3.8-3.6 3.1.4 3-2.2.7-1.7-3.8-1.1.4-1.8s6.6 1.3 6.9 2.4c.3 1.1.9 5.8.9 5.8l1.6 1.6 2.5-2.7-.4-2.2 2.8-2.4s2.8 2.7 5.5 2.7v-4.3s2.4-1.8 3.5-2.7c1.1-.9 2.2-4.3 2.2-4.3s-.9-2.2-.8-2.7c.2-.5 2.9-2 4.8-1.6l5.9-4.9s-3.5-3.4-8.7-4.2c-5.2-.9-13.6-.2-17 .2-3.5.4-9.8 2-9.8 2l-5.9 3.5.2-3.9s-3.4 1.7-3.9 2.5c-.6.8-1.6 1.8-1.6 1.8l-.5 2.5 3.5.7s-2.4 1.3-3.1 1.7c-.7.4-2.3 2.8-2.3 2.8l-2-1.1L144 37l.5 3 3.2-1s1.5-1.5 3.2-1.4c1.7.1 3.1 1 3.1 1l-.2 1.2-3.1 2.2h-3.2v-.2z"/><path class="st3" d="M116.7 39.9l1.7-.7 1.8 1.4s-.8 2.4-.2 3.8c.6 1.4 2.3 3.2 2.3 3.2l5.2 3.6-3.2 3.5-.7 3.1s1.8 1.7 2.5 2c.7.3 2.5 2.4 2.5 2.4l.3 7.3.7 2.4s4.5-7.6 5.3-10c.8-2.4 2.3-6.3 2.3-6.3s-3.4-2.3-4.3-2.7c-.9-.5-1.4-2.1-1.4-2.1l-2.5-1.1-2-2.1.4-1 2.7.6 1.6 2.1s.8-1.7.8-2.5c0-.9-.9-1.8-.9-1.8s4.2-2.7 4.6-4.2c.5-1.4.6-5.6.6-5.6l-1.4-4.5-3.9 1.4s.6 3.3.1 3.8-3.2 1.4-3.2 1.4-.4-1.8-.3-2.8c.1-1.1.2-2.7.2-2.7s-3.5.3-4.1.4c-.5.1-6.6.4-6.6.4l-2.8 4.2 1.9 3.1z"/><path class="st5" d="M136.4 26.2l3.4 3.8-.2 6.2 1.8.2s3.5-5.2 4-6c.5-.9.4-3.4.4-3.4s-1.4-3.4-1.8-3.6c-.4-.2-4.5-.1-4.5-.1l-3.1 2.9z"/><path class="st3" d="M172.8 64.8s1.1-4 1.5-5.2c.4-1.1 3-4 3-4l4.8-1.5s1.4 2.5 2.1 2.6c.7.1 4.8.2 4.8.2s1 4 .4 5.5-1.9 3.8-1.9 3.8h-3.2s-3.3-2.6-4.7-2.5c-1.4.3-6.8 1.1-6.8 1.1z"/><path class="st5" d="M183.1 51.1l1.3-3.5 3.8 2 2.4 2.2v2.3l-1.9.9-3.9-3.6-1.7-.3zm20.4-.5L204 32l-5.6.7-.4 18 5.5-.1z"/><path class="st4" d="M197.7 67l5.4-.1.2-8.3-5.5.4-.1 8z"/><path class="st3" d="M198 50.8l-.2 8.2 5.5-.4.2-7.9-5.5.1z"/><path class="st4" d="M109.3 79.8c-.1 0-.2 0-.3-.1-.1-.1-.2-.2-.2-.4l-.5-22.8c0-.3.2-.5.5-.5s.5.2.5.5l.4 22.3 97.1-3.9-.6-24.9.6-21.2V12.1l-97.1 9v9.6l-.2 6.7c0 .3-.2.5-.5.5s-.5-.2-.5-.5l.2-6.6v-10c0-.3.2-.5.5-.5l98.1-9.1c.1 0 .3 0 .4.1.1.1.2.2.2.4V29l-.6 21.2.6 25.3c0 .3-.2.5-.5.5l-98.1 3.8z"/><path class="st4" d="M108.6 51.6c-.3 0-.5-.2-.5-.5v-1.3l.2-8.6c0-.3.2-.5.5-.5s.5.2.5.5l-.2 9.8c0 .4-.2.6-.5.6zm89.1 15.9c-.1 0-.3-.1-.4-.1-.1-.1-.1-.2-.1-.4l.8-43.6c0-.3.2-.5.4-.5l5.6-.6c.1 0 .3 0 .4.1.1.1.2.2.2.4l-.9 44.2c0 .3-.2.5-.5.5h-5.5zm1.3-43.7l-.7 42.7 4.4-.1.9-43.1-4.6.5z"/><path class="st4" d="M198.3 33.2c-.2 0-.5-.2-.5-.4 0-.3.2-.5.4-.6l5.6-.7c.3 0 .5.2.6.4 0 .3-.2.5-.4.6l-5.7.7c.1 0 .1 0 0 0zm-.2 10c-.3 0-.5-.2-.5-.5s.2-.5.5-.5l5.6-.2c.3 0 .5.2.5.5s-.2.5-.5.5l-5.6.2zm-.1 8.1c-.3 0-.5-.2-.5-.5s.2-.5.5-.5l5.5-.2c.3 0 .5.2.5.5s-.2.5-.5.5l-5.5.2zm-.2 8.1c-.3 0-.5-.2-.5-.5s.2-.5.5-.5l5.5-.4c.3 0 .5.2.5.5s-.2.5-.5.5l-5.5.4zm-14.4 5.9c-.2 0-.3-.1-.4-.2 0 0-1.7-2.1-3.4-2.2-1.7-.1-2.6-.1-2.9-.1l-2.7 1.1h-.3l-1.7-.3c-.1 0-.3-.1-.3-.2-.1-.1-.1-.3-.1-.4.1-.5 1.4-5.1 2.4-6.3.9-1.1 3.1-3 3.2-3 .1 0 .1-.1.2-.1l3.4-1c.2 0 .3 0 .4.1.1.1.2.3.2.4 0 .9.2 2.3.6 2.5.5.2 1.8-.5 2.6-1 .1-.1.3-.1.4-.1l2.1.6c.1 0 .2.1.3.2.1.1 1.4 2.1 1.4 4.4-.1 2.2-1.1 4.8-1.2 4.9-.1.2-.2.3-.4.3l-3.8.4c.1 0 .1 0 0 0zm-6.8-3.4s.8 0 3 .1c1.8.1 3.5 1.8 4 2.3l3.3-.3c.3-.7.9-2.7 1-4.3 0-1.6-.8-3.2-1.1-3.7l-1.7-.5c-.6.4-2.3 1.4-3.3 1-.9-.4-1.2-1.9-1.2-2.8l-2.7.8c-.4.4-2.2 1.9-3 2.9-.6.8-1.6 3.8-2 5.4l1 .2 2.6-1.1h.1zm12.1-7.4c-.1 0-.3-.1-.4-.2l-3-3.3-2.6-.9c-.2-.1-.4-.4-.3-.6l.9-3.4c0-.1.1-.3.3-.3.1-.1.3-.1.4 0 .5.2 4.4 1.9 5.4 2.6 1 .8 1.1 4 1.1 5 0 .2-.1.4-.3.5l-1.3.6h-.2zm-5.2-5.1l2.2.8c.1 0 .2.1.2.1l2.9 3.2.7-.3c0-1.7-.3-3.6-.7-3.9-.6-.5-3.2-1.6-4.6-2.2l-.7 2.3zm-29.9 18.2h-.2l-2.8-1c-.1-.1-.3-.2-.3-.3 0-.1-1-3.5-.9-5.1.1-1.5.6-5.1.7-5.8l-.8-2c-.5-.1-1.6-.5-3.3-1.5-2.4-1.5-3-3.7-3-3.8-.3-3.7 3.2-7.8 3.3-8 .1-.1.2-.2.3-.2l1.8-.2c.1 0 .2 0 .3.1 1.6 1 3.3 1.8 3.7 1.6.5-.2 1.5-1.2 2-1.7l-.2-1.1c-1.9-.9-4.6-1-5.2-1l-3.6 2.3c-.1 0-.2.1-.2.1l-2.1.1c-.2 0-.4-.2-.5-.4l-.6-2.5c0-.2 0-.3.1-.5l2-2.1c.2-.2.4-.2.6-.1l1.2.8 1.1-1.9c.1-.1.2-.2.3-.2 0 0 1.3-.4 2.6-1.1.4-.3.7-.6.9-.8l-1 .2h-.2l-1.6-.2c-.1 0-.3-.1-.3-.2-.1-.1-.1-.2-.1-.4l.5-2.5c0-.1.1-.2.1-.2.1-.1 1.5-1.8 2.5-2.5s2.5-.7 2.6-.7c.2 0 .3.1.4.2l1.1 1.8c.9-.7 2.7-2.2 4.6-3 2.5-1.1 11.4-2.8 11.8-2.9.6 0 12.9-.4 16.4.3 3.5.7 8.4 3.7 8.6 3.8.1.1.2.2.2.4s-.1.3-.2.4l-6.3 5.4c-.1.1-.2.1-.3.1-3 0-5.4 1.1-5.6 2.1-.2.9.6 2.3.9 2.7.1.1.1.3.1.5l-1.5 3.4c-.4 1-2.9 2.4-3.9 3 .3 1 .5 2.3.5 2.4v.1l-.3 2.4c0 .3-.2.5-.5.4-.1 0-2.2-.1-3.7-1.1-1.1-.7-1.9-1.7-2.3-2.1-.7.3-1.5 1.3-2 2.1l.3 2.3c0 .2-.1.4-.2.5l-1.4 1c-.2.2-.5.1-.7-.1l-2.4-2.8c-.1-.1-.1-.1-.1-.2-.2-1.1-.8-4-1.3-4.7-.3-.4-2.7-1.1-5-1.5l-.2 1.1 3.1.9c.2.1.4.3.4.5 0 .3 0 1.8-.8 2.3-.4.3-1.9 1.6-2.5 2.1-.1.1-.2.1-.4.1-.9-.1-2.1-.2-2.6-.1.5.6 1.7 1.8 2.8 2.7.1.1.2.2.2.4 0 .1.2 3.6-.1 5.3-.3 1.7-5.7 9.5-6.3 10.4-.1.1-.3.2-.5.2zm-2.3-1.9l2.1.8c2.3-3.3 5.8-8.6 6-9.7.2-1.4.1-4.1.1-4.9-3.5-2.9-3.2-3.5-3.1-3.8.1-.3.4-.8 3.7-.4.5-.4 1.9-1.7 2.4-2 .2-.1.3-.6.4-1.1l-3.1-1c-.2-.1-.4-.3-.3-.6l.3-2c0-.1.1-.3.2-.3s.2-.1.4-.1c1.6.3 5.6 1.1 6.2 2 .6 1 1.3 4.2 1.4 4.9l2 2.3.8-.6-.3-2.2c0-.1 0-.2.1-.3.2-.3 1.5-2.6 3-2.8.2 0 .4.1.5.2 0 0 1 1.3 2.2 2.2.9.6 2.1.8 2.7.9l.2-1.9c0-.3-.3-1.7-.6-2.5-.1-.2 0-.5.2-.6 1.4-.8 3.6-2.2 3.8-2.8l1.3-3.2c-.4-.6-1.2-2-.9-3.3.4-1.8 3.6-2.8 6.4-2.8l5.6-4.8c-1.4-.8-5-2.8-7.6-3.3-3.3-.7-16-.3-16.1-.3 0 0-9.1 1.8-11.5 2.8-2.3 1-4.8 3.3-4.8 3.3-.1.1-.3.1-.4.1-.1 0-.3-.1-.4-.2l-1.2-2.1c-.4 0-1.2.1-1.7.5-.7.4-1.7 1.6-2.2 2.2l-.3 1.9 1 .1 1.7-.4c.1 0 .3 0 .4.1.1.1.2.2.2.4 0 .1 0 1.4-1.6 2.4-1.1.6-2.2 1-2.6 1.1l-1.3 2.2c-.1.1-.2.2-.3.2-.1 0-.3 0-.4-.1l-1.3-.8-1.5 1.6.4 1.9 1.5-.1 3.6-2.3c.1 0 .2-.1.3-.1.1 0 3.7-.1 6.1 1.2.1.1.2.2.3.4l.2 1.6c0 .1 0 .3-.1.4-.2.2-1.5 1.7-2.5 2.1-.9.4-3.3-.9-4.4-1.6l-1.4.2c-.6.7-3.2 4.2-3 7 0 0 .5 1.8 2.5 3.1 2.1 1.3 3.1 1.4 3.1 1.4.2 0 .4.1.4.3l.9 2.4v.3s-.6 4.3-.7 5.8c.1 1.4.8 3.9 1 4.7zM128.4 73c-.1 0-.1 0 0 0-.3 0-.4-.2-.5-.4 0-.1-.6-2.8-.7-4.7-.1-1.6.1-4.1.2-4.8-.4-.5-.8-1-1-1.1-.2-.1-1.1-.3-1.8-.5-.1 0-.2-.1-.2-.1l-2.4-2.5c-.1-.1-.2-.3-.1-.4 0-.1.5-3.2.7-4 .1-.7 2-1.8 3.8-2.7-1.5-.7-4.4-2-4.9-2.3-.7-.4-2.5-2.7-2.8-3.2 0-.1-.1-.1-.1-.2l-.8-2.8V43l1.1-3.5c0-.2-.2-.7-.7-.9-.4-.2-1.9.6-3 1.4-.1.1-.2.1-.4.1-.1 0-.3-.1-.3-.2l-1.1-1.5c-.1-.1-.1-.2-.1-.3 0-.3.2-2.5.8-3.6.6-1 3-3.1 3.1-3.2.1-.1.2-.1.3-.1.3 0 2.9-.3 4-.1.6.1 1.8-.4 2.4-.8.1-.1.2-.1.3-.1l3.2.1c.1 0 .3.1.4.2.1.1.1.3.1.4 0 0-.3 2.2-.4 3.3-.1.7.1 1.7.3 2.2l2.1-1.1c.1-.4.1-1.9-.2-3.4 0-.2.1-.5.3-.5.5-.2 2.9-1.2 4-.8 1 .5 1.9 4.3 2.3 6.5v.2c-.1.7-.6 4.2-2 5-1 .5-2.8 2.3-3.5 2.9 1.2 3 1.1 3.3 1 3.5-.1.1-.2.2-.4.3-.4.1-.7-.2-1.3-.9-.3-.3-.9-1-1.2-1.1-.5.1-1.7-.1-2.3-.2l-.7 1.4 3.4 2.9 1.3.4c.2 0 .3.2.4.3l.6 1.8 4.3 2.6c.2.1.3.4.2.6-.1.3-3.1 8.2-3.9 9.5-.8 1.3-3.6 6.5-3.6 6.6.1 0-.1.1-.2.1zm-1.6-11.9c.2.1.6.3 1.5 1.6.1.1.1.2.1.3 0 0-.3 3-.2 4.8 0 1 .2 2.2.4 3.1.9-1.6 2.4-4.4 2.9-5.4.6-1 2.5-6 3.6-8.9l-4.1-2.5c-.1-.1-.2-.2-.2-.3l-.5-1.7-1.2-.3c-.1 0-.1-.1-.2-.1l-3.8-3.2c-.2-.1-.2-.4-.1-.6l1-2.1c.1-.2.3-.3.5-.3.5.1 1.9.3 2.4.2.5-.1 1 .3 1.5.9-.2-.5-.4-1.1-.7-1.7-.1-.2 0-.4.1-.5.1-.1 2.6-2.6 3.9-3.3.7-.4 1.3-2.6 1.5-4.1-.5-2.5-1.3-5.4-1.7-5.7-.4-.1-1.7.2-2.8.6.6 3.6-.1 3.9-.3 4l-2.8 1.4c-.1.1-.3.1-.4 0l-.3-.3c0-.1-.6-1.9-.5-3.2.1-.8.2-2.1.3-2.8l-2.5-.1c-.5.3-2 1.1-3.1.9-.8-.2-2.7 0-3.5.1-.7.6-2.3 2.1-2.8 2.8-.4.7-.6 2.2-.7 3l.7 1c.9-.6 2.5-1.6 3.5-1.2 1.3.5 1.4 1.8 1.4 1.8v.2l-1.1 3.5.7 2.6c.8 1.1 2.1 2.6 2.5 2.8.5.3 4 1.9 5.8 2.7.2.1.3.3.3.4s-.1.4-.3.5c-1.8.9-4 2.2-4.2 2.6-.2.6-.5 2.6-.6 3.6l2.2 2.2c.5.3 1.4.6 1.8.7zm13.9-25l-1.8-.3c-.2 0-.4-.2-.4-.5l-.2-4.1-3.2-3.1c-.1-.1-.1-.2-.1-.3l-.4-1.8c0-.2 0-.4.2-.5.3-.2 2.7-2.3 4.1-2.2 1.3.1 4.4.4 4.5.5.2 0 .4.2.4.3l1.4 4.4v.3c-.1.1-1.5 3.6-1.8 4.5-.4.9-2 2.4-2.2 2.5-.2.3-.3.3-.5.3zm-1.2-1.2l1.1.2c.5-.5 1.5-1.5 1.8-2l1.8-4.2-1.2-4c-.8-.1-3.1-.4-4.2-.4-.7-.1-2.2 1-3.2 1.8l.3 1.3 3.3 3.2c.1.1.1.2.1.3l.2 3.8zm-26.3-7.6c-.6 0-1.2-.3-1.7-.8-.4-.5-.5-1.2-.3-1.8.2-.7.8-1.3 1.5-1.4 1.2-.2 1.8.4 2.2 1 .6.8.4 2-.4 2.7-.4.1-.8.3-1.3.3zm-.3-3.2c-.4.1-.7.5-.8.8-.1.3-.1.7.1.9.4.5 1 .8 1.6.3.4-.4.5-1 .2-1.3-.3-.6-.6-.8-1.1-.7z"/><path class="st4" d="M115.2 28.6c-1.4 0-2.3-1-2.6-1.6-.1-.2 0-.5.2-.7.2-.1.5 0 .7.2.1.2 1 1.7 2.8.9 1.1-.5 1.4-1.6 1.2-2.4-.1-.8-.7-1.7-1.9-1.8-.3 0-.5-.3-.4-.6 0-.3.3-.5.6-.4 1.4.2 2.5 1.2 2.7 2.6.2 1.2-.3 2.8-1.8 3.5-.6.2-1.1.3-1.5.3zm85.3-10.1c-.8 0-1.5-.5-1.8-1-.3-.6-.4-1.3-.1-1.9.3-.7.9-1.1 1.7-1.3.6-.1 1.1 0 1.5.3.6.4.8 1.2.8 1.4.1 1-.3 1.9-1.2 2.3-.3.1-.6.2-.9.2zm-1-1.6c.2.2.7.8 1.5.4.6-.3.7-.8.6-1.2 0-.1-.1-.5-.4-.8-.2-.1-.4-.2-.7-.1-.5.1-.8.3-1 .7-.1.4-.1.8 0 1z"/><path class="st4" d="M202.6 19.7c-1.3 0-2.2-.9-2.5-1.5-.1-.2 0-.5.2-.7.2-.1.5 0 .7.2.1.1.8 1.4 2.5.8 1-.4 1.3-1.4 1.3-2.1 0-.7-.4-1.6-1.3-1.9-.3-.1-.4-.4-.3-.6.1-.3.4-.4.6-.3 1.2.4 1.9 1.5 2 2.8 0 1.4-.7 2.6-2 3-.4.2-.8.3-1.2.3z"/></svg>
