<svg xmlns="http://www.w3.org/2000/svg" viewBox="0 0 80 80"><path d="M79 72a7.3 7.3 0 0 0 0-7.5L46.4 8A7.2 7.2 0 0 0 40 4.4 7.3 7.3 0 0 0 33.6 8L23.1 26.3l2.6 1.6a51.4 51.4 0 0 1 18.9 18.9 50.4 50.4 0 0 1 6.8 22.7H44a44.3 44.3 0 0 0-5.8-19A43.8 43.8 0 0 0 22 34.2l-2.7-1.5-9.8 17 2.6 1.6a24.9 24.9 0 0 1 12.1 18.2h-17a1.2 1.2 0 0 1-1-.6 1.2 1.2 0 0 1 0-1.3l4.8-8a17.7 17.7 0 0 0-5.4-3.2L1 64.6A7.3 7.3 0 0 0 1 72a7.3 7.3 0 0 0 6.4 3.7h23.2v-3.2a31.3 31.3 0 0 0-4-15.3 31.3 31.3 0 0 0-8.7-9.6l3.7-6.4a38 38 0 0 1 11.3 12.3 38.1 38.1 0 0 1 5.1 19v3h19.7v-3a57.5 57.5 0 0 0-7.8-28.8A57.5 57.5 0 0 0 31.5 24l7.5-13a1.2 1.2 0 0 1 1-.6 1.2 1.2 0 0 1 1 .6l32.7 56.5a1.2 1.2 0 0 1 0 1.2 1.1 1.1 0 0 1-1 .6H65v6.2h7.7a7.1 7.1 0 0 0 6.3-3.7z"/></svg>
