<svg width="227" height="157" viewBox="0 0 227 157" fill="none" xmlns="http://www.w3.org/2000/svg">
<g clip-path="url(#clip0_1_1067)">
<path d="M11.4691 141.774L60.5616 154.51L215.336 153.791L227 2.95174L130.056 0L0 34.9631L11.4691 141.774Z" fill="#DCA8E5"/>
<path d="M41.198 124.083L39.8816 125.809C37.3556 126.571 35.0329 126.145 35.0329 126.145C34.4789 125.835 33.6505 124.875 33.6505 124.875L35.3837 117.715L35.3277 113.521L35.2414 107.229L38.0825 105.645C38.0825 105.645 38.9465 108.606 39.7393 111.525C40.4 113.958 41.0049 116.365 41.0252 117.025C41.0608 118.477 41.198 124.083 41.198 124.083Z" fill="#EF8019" stroke="#181225" stroke-linecap="round" stroke-linejoin="round"/>
<path d="M27.0839 127.541C26.8552 128.094 25.8946 128.597 25.8946 128.597C23.328 128.871 21.356 127.815 21.356 127.815C20.9748 127.582 20.5326 127.17 20.2633 126.911C20.1159 126.769 20.0651 126.556 20.121 126.358C20.3853 125.429 21.1426 122.758 21.2188 122.417C21.2391 122.316 21.2849 121.316 21.3357 119.848C21.4984 115.253 21.7474 106.112 21.7474 106.112L24.4665 106.65C24.4665 106.65 25.7219 113.115 26.5503 117.492C26.9519 119.604 27.2518 121.234 27.267 121.412C27.3127 121.96 27.3127 126.993 27.0839 127.541Z" fill="#EF8019" stroke="#181225" stroke-linecap="round" stroke-linejoin="round"/>
<path d="M24.4665 106.65C24.4665 106.65 25.7219 113.115 26.5503 117.492L21.3357 119.848C21.4984 115.253 21.7474 106.112 21.7474 106.112L24.4665 106.65Z" fill="#181225" stroke="#181225" stroke-linecap="round" stroke-linejoin="round"/>
<path d="M39.7393 111.525L35.3277 113.521L35.2413 107.229L38.0824 105.645C38.0824 105.645 38.9465 108.606 39.7393 111.525Z" fill="#181225" stroke="#181225" stroke-linecap="round" stroke-linejoin="round"/>
<path d="M169.713 153.118C167.426 155.403 161.23 158.323 150.09 155.728C138.863 153.118 121.857 148.213 121.857 148.213L117.059 150.828L62.7679 134.924L64.8416 115.542C64.8416 115.542 58.519 113.795 54.1583 111.073L53.7211 104.868L68.44 91.2493L89.151 87.4409L139.95 90.381L140.286 107.94C145.638 108.925 160.168 111.835 162.628 112.49C165.159 113.166 166.45 114.425 166.999 115.573C167.167 115.903 167.263 116.228 167.314 116.522C167.533 117.827 171.675 145.71 171.787 147.015C171.894 148.325 171.624 151.209 169.713 153.118Z" fill="#FEB91A" stroke="#181225" stroke-linecap="round" stroke-linejoin="round"/>
<path d="M118.477 117.502L117.059 150.828L62.7679 134.924L64.8416 115.542C64.8416 115.542 87.1892 121.966 110.411 119.569L118.477 117.502Z" fill="#D37D00" stroke="#181225" stroke-linecap="round" stroke-linejoin="round"/>
<path d="M53.7217 104.866C53.7217 104.866 61.3639 109.561 72.6903 111.401C94.8204 114.995 109.864 113.361 109.864 113.361L122.946 96.6969L68.4387 91.251" stroke="#181225" stroke-linecap="round" stroke-linejoin="round"/>
<path d="M169.713 153.118C167.797 155.033 163.141 157.389 155.147 156.577H155.142C153.587 156.424 151.904 156.15 150.09 155.729C138.863 153.118 121.857 148.213 121.857 148.213L123.803 115.07C123.803 115.07 139.213 117.888 148.316 119.625C150.918 120.122 152.972 120.442 154.639 120.635C158.801 121.118 160.529 120.808 162.257 120.523C164.661 120.132 168.041 118.264 166.999 115.572C167.167 115.903 167.263 116.228 167.314 116.522C167.533 117.827 171.675 145.71 171.787 147.015C171.894 148.325 171.624 151.209 169.713 153.118Z" fill="#FEB91A" stroke="#181225" stroke-linecap="round" stroke-linejoin="round"/>
<path d="M62.036 98.7848C61.1059 97.5306 31.836 61.8634 30.3672 60.01C30.3672 60.01 30.3316 59.9541 30.2553 59.883C28.822 58.2175 27.4142 59.3752 26.9874 60.01C26.8247 60.2537 23.5262 65.7176 19.4653 72.4509C19.4653 72.4509 22.2759 74.4058 24.7816 78.5088L16.7767 76.9093C14.3574 80.9259 11.8569 85.0796 9.70195 88.6595C9.70195 88.6595 12.6447 90.2032 14.1033 94.489L7.14547 92.8996C5.10741 96.2815 3.76563 98.5157 3.76563 98.5157C3.76563 98.5157 3.16585 99.8766 3.44036 100.907C3.70973 101.943 4.69064 102.654 5.29037 102.761C5.8901 102.867 24.0447 106.579 24.0447 106.579L25.0866 106.757L31.3228 107.829L38.2603 106.767L41.6808 106.239L53.6246 104.411L56.9942 103.893L61.1619 103.253C62.1987 103.035 62.6816 102.152 62.7985 101.507C62.9103 100.882 62.9611 100.039 62.036 98.7848ZM30.5349 72.4509V64.4226L33.1501 74.3498C32.3091 73.7078 31.4438 73.0724 30.5349 72.4509Z" fill="#A836B5" stroke="#181225" stroke-linecap="round" stroke-linejoin="round"/>
<path d="M156.966 129.643C156.707 134.98 155.091 137.798 155.381 141.373C155.711 145.456 157.114 145.608 156.773 150.234C156.489 154.114 155.223 156.434 155.147 156.577H155.142C153.587 156.424 151.904 156.15 150.09 155.729C138.863 153.118 121.857 148.213 121.857 148.213L123.803 115.07C123.803 115.07 139.213 117.888 148.316 119.625C150.918 120.122 152.972 120.442 154.639 120.635C154.639 120.635 157.231 124.306 156.966 129.643Z" fill="#D37D00" stroke="#181225" stroke-linecap="round" stroke-linejoin="round"/>
<path d="M39.2239 144.936L39.9564 125.712L39.8817 125.811C37.3547 126.572 35.0339 126.146 35.0339 126.146L31.1584 149.951C31.1584 149.951 30.8474 150.541 35.347 150.643C42.9972 150.816 49.6089 149.398 49.6089 149.398C49.6089 149.398 42.7549 146.423 39.2239 144.936Z" fill="#F6F6F8" stroke="#181225" stroke-linecap="round" stroke-linejoin="round"/>
<path d="M66.8137 30.2708C66.8846 29.9598 67.1129 29.7131 67.417 29.6163C71.4491 28.3328 99.9674 19.8446 135.146 24.5608C135.146 24.5608 136.773 24.7799 137.403 26.2477C138.032 27.7156 143.857 45.4346 143.647 50.2051C143.437 54.9755 139.372 66.5219 135.881 73.6906C134.937 75.6302 134.156 76.9011 133.467 77.0456C130.611 77.6447 121.38 79.0282 104.294 78.828C87.5474 78.6319 70.3984 75.9447 66.2009 75.1584C66.2009 75.1584 65.3614 75.106 65.0466 73.2712C64.7347 71.4537 62.8265 47.772 66.8137 30.2708Z" fill="#FEB91A" stroke="#181225" stroke-linecap="round" stroke-linejoin="round"/>
<path d="M133.922 25.8481C134.769 25.9847 135.424 26.6506 135.553 27.4978C136.028 30.6162 137.014 39.0843 136.704 49.1464C136.335 61.136 134.833 69.3517 134.159 73.586C134.003 74.5686 133.239 75.3421 132.259 75.515C127.081 76.4273 113.919 77.926 96.3641 77.1836C81.1181 76.5389 69.3713 74.6295 66.7954 74.1361C66.5302 74.0853 66.3231 73.8847 66.2625 73.6218C65.8063 71.6406 63.9518 63.0215 63.8709 53.4811C63.7861 43.4872 66.8931 32.4821 67.4012 30.751C67.4445 30.6035 67.5572 30.4892 67.7045 30.4445C69.4776 29.9072 81.243 26.4947 99.4104 24.7984C115.733 23.2743 129.597 25.1502 133.922 25.8481Z" stroke="#181225" stroke-linecap="round" stroke-linejoin="round"/>
<path d="M126.659 95.3177L139.953 90.3797" stroke="#181225" stroke-linecap="round" stroke-linejoin="round"/>
<path d="M95.3684 120.029L94.2753 138.185L112.055 142.66L113.764 118.709" stroke="#181225" stroke-linecap="round" stroke-linejoin="round"/>
<path d="M61.7057 109.098C61.7057 109.098 60.9942 110.769 60.7045 110.804C60.4046 110.84 59.3779 110.236 59.3779 110.236C59.3779 110.236 57.0552 110.769 56.2827 110.987C55.505 111.21 55.0273 110.987 54.697 110.236C54.5547 109.916 54.0668 108.6 53.5534 107.209C53.2128 106.275 52.8571 105.3 52.5877 104.569L58.4987 103.66L60.3233 103.38C62.4529 105.599 61.7057 109.098 61.7057 109.098Z" fill="#EF8019" stroke="#181225" stroke-linecap="round" stroke-linejoin="round"/>
<path d="M80.3467 81.1853C80.3467 81.1853 87.9649 81.5786 91.0579 81.8595C91.0579 81.8595 94.0384 83.208 96.1754 84.3317C96.1754 84.3317 96.4003 87.4219 96.344 90.5121C96.344 90.5121 91.339 91.4111 89.3145 91.7482C89.3145 91.7482 83.5222 91.4111 78.7984 90.6807C78.7984 90.6807 78.8021 86.1297 80.3467 81.1853Z" fill="#D37D00" stroke="#181225" stroke-linecap="round" stroke-linejoin="round"/>
<path d="M81.7789 82.3091L89.3145 82.8147L88.1898 90.3998C88.1898 90.3998 82.3413 89.9503 80.6542 89.6694C80.6542 89.6694 79.8669 85.4555 81.7789 82.3091Z" fill="#93DE00" stroke="#181225" stroke-linecap="round" stroke-linejoin="round"/>
<path d="M62.0361 98.7848C61.1059 97.5306 31.8361 61.8634 30.3672 60.01C30.3672 60.01 30.3317 59.9541 30.2554 59.883C30.047 59.6748 29.5591 59.3042 28.8526 59.5377C27.765 59.9033 27.6989 61.4877 27.6989 61.4877L26.8095 73.8625L26.4486 78.8388L25.5592 91.2493L24.5783 103.517C24.5783 103.517 24.0954 105.731 25.0866 106.757L31.3227 107.829L38.2603 106.767L41.6807 106.239L53.6245 104.411L56.9942 103.893L61.1619 103.253C62.1987 103.035 62.6815 102.152 62.7984 101.507C62.9103 100.882 62.9611 100.039 62.0361 98.7848ZM30.535 72.4509V64.4226L33.1501 74.3498C32.3091 73.7078 31.4438 73.0724 30.535 72.4509Z" fill="#C678D6" stroke="#181225" stroke-linecap="round" stroke-linejoin="round"/>
<path d="M91.0579 81.8596C91.0579 81.8596 90.1018 86.8039 89.3145 91.7482" stroke="#181225" stroke-linecap="round" stroke-linejoin="round"/>
<path d="M81.2165 87.0848L82.9599 84.6688L82.6787 88.04L84.422 85.7925L84.7032 88.658L87.1213 83.5451L87.29 86.7477L88.246 85.343" stroke="#181225" stroke-linecap="round" stroke-linejoin="round"/>
<path d="M60.5774 84.6683L56.2471 84.5565C56.2471 84.5565 55.2764 84.5464 55.4034 82.9265C55.5102 81.5809 56.5267 81.6367 56.5267 81.6367L56.5572 81.6469L60.7452 82.9265C60.7452 82.9265 61.3093 83.4902 60.5774 84.6683Z" fill="#D37D00" stroke="#181225" stroke-linecap="round" stroke-linejoin="round"/>
<path d="M57.1721 83.1804C57.0349 84.4753 56.2471 84.5565 56.2471 84.5565C56.2471 84.5565 55.2764 84.5464 55.4034 82.9265C55.5102 81.5809 56.5267 81.6367 56.5267 81.6367C56.5267 81.6367 56.5368 81.6418 56.5572 81.6469C56.6944 81.7079 57.2991 82.0277 57.1721 83.1804Z" fill="#181225" stroke="#181225" stroke-linecap="round" stroke-linejoin="round"/>
<path d="M60.9324 83.788L64.5444 84.3358C64.5444 84.3358 66.0537 89.8768 66.6504 94.8566" stroke="#181225" stroke-linecap="round" stroke-linejoin="round"/>
<path d="M66.7753 95.3926C67.2197 95.2892 67.524 94.9655 67.4551 94.6695C67.3861 94.3735 66.9699 94.2173 66.5255 94.3207C66.0811 94.4241 65.7767 94.7478 65.8457 95.0438C65.9147 95.3398 66.3309 95.496 66.7753 95.3926Z" fill="#181225"/>
<path d="M96.3681 136.81C96.5313 136.737 96.5762 136.482 96.4684 136.241C96.3606 136 96.1409 135.864 95.9776 135.937C95.8144 136.009 95.7695 136.264 95.8773 136.505C95.9851 136.746 96.2049 136.882 96.3681 136.81Z" fill="#181225" stroke="#181225" stroke-linecap="round" stroke-linejoin="round"/>
<path d="M109.966 140.341C110.137 140.289 110.214 140.043 110.137 139.79C110.061 139.537 109.86 139.374 109.689 139.426C109.518 139.478 109.441 139.724 109.518 139.977C109.594 140.23 109.795 140.393 109.966 140.341Z" fill="#181225" stroke="#181225" stroke-linecap="round" stroke-linejoin="round"/>
<path d="M118.477 102.39C113.762 101.392 114.938 96.4913 116.114 94.9642C117.29 93.437 120.112 90.794 124.168 91.7482C126.699 92.3434 127.468 95.6865 125.697 98.547C124.204 100.957 120.851 102.893 118.477 102.39Z" stroke="#181225" stroke-linecap="round" stroke-linejoin="round"/>
<path d="M190.516 75.8124C189.204 76.9905 142.629 112.429 139.584 114.745C139.579 114.755 139.574 114.76 139.564 114.765C139.523 114.79 139.493 114.816 139.472 114.836C139.442 114.856 139.427 114.866 139.427 114.866C139.427 114.866 138.263 115.836 136.423 115.821C135.066 115.806 133.18 115.156 131.996 113.734C127.488 108.306 130.192 104.995 130.192 104.995C130.192 104.995 130.207 104.975 130.233 104.939L168.544 52.007C168.544 52.007 169.129 51.1286 171.126 50.7325C172.93 50.377 179.781 49.7677 186.495 57.4455C193.621 65.5956 191.873 74.5937 190.516 75.8124Z" fill="#FEB91A" stroke="#181225" stroke-linecap="round" stroke-linejoin="round"/>
<path d="M161.823 61.2932C161.823 61.2932 162.792 59.5924 166.24 59.8516C169.688 60.1109 174.286 62.667 177.956 67.0752C181.627 71.4833 182.842 75.8134 182.85 78.5217C182.86 81.8927 181.343 82.904 181.343 82.904" stroke="#181225" stroke-linecap="round" stroke-linejoin="round"/>
<path d="M190.516 75.8124C189.204 76.9905 142.629 112.429 139.584 114.745C139.579 114.755 139.574 114.76 139.564 114.765C139.523 114.79 139.493 114.816 139.472 114.836C139.442 114.856 139.427 114.867 139.427 114.867C139.427 114.867 138.263 115.836 136.423 115.821C135.244 115.806 133.668 115.318 132.499 114.257C132.952 113.917 133.46 113.785 133.968 113.572C134.847 113.206 136.616 112.231 137.114 110.327L140.301 110.535C140.077 108.697 141.399 107.686 142.049 107.483C143.361 107.082 143.818 107.016 144.301 105.589C144.784 104.162 145.673 104.909 145.673 104.909C145.673 104.909 146.054 102.38 148.545 101.466C151.035 100.547 154.659 93.8287 154.659 93.8287C154.659 93.8287 160.849 85.1659 160.112 88.3903C159.909 89.2637 160.336 90.5891 162.12 89.0556C164.402 87.0954 166.913 80.875 169.21 78.8337C172.895 75.5635 172.605 76.7975 176.234 74.746C178.119 73.6797 178.684 71.8719 179.294 70.1911L179.629 69.3228C180.127 68.1244 180.788 67.0835 182.185 66.5807C185.169 65.5093 186.104 65.2808 186.968 62.5641C187.303 61.5232 187.913 61.5384 188.538 61.9547L189.22 61.2946C193.082 68.2158 191.659 74.7866 190.516 75.8124Z" fill="#D37D00" stroke="#181225" stroke-linecap="round" stroke-linejoin="round"/>
<path d="M126.743 113.571L123.804 115.069" stroke="#181225" stroke-linecap="round" stroke-linejoin="round"/>
<path d="M152.87 117.437L159.877 118.841L165.233 115.069C165.233 115.069 162.199 102.446 161.918 101.435C161.637 100.425 161.131 99.807 160.176 99.5824C159.22 99.3578 156.748 98.9648 156.748 98.9648C156.748 98.9648 154.387 98.9648 153.882 102.165C153.376 105.365 152.87 117.437 152.87 117.437Z" fill="#FEB91A" stroke="#181225" stroke-linecap="round" stroke-linejoin="round"/>
<path d="M161.472 100.434C161.472 100.434 160.589 99.4165 159.586 100.467C158.736 101.358 158.708 102.727 158.771 104.018C158.879 106.24 159.877 118.841 159.877 118.841" stroke="#181225" stroke-linecap="round" stroke-linejoin="round"/>
<path d="M161.339 102.378C161.355 101.765 161.015 101.259 160.58 101.248C160.145 101.236 159.78 101.723 159.763 102.336C159.747 102.948 160.086 103.454 160.521 103.466C160.956 103.477 161.322 102.99 161.339 102.378Z" stroke="#181225" stroke-linecap="round" stroke-linejoin="round"/>
<path d="M140.525 112.373C140.469 113.81 139.879 114.496 139.584 114.745C139.579 114.755 139.574 114.76 139.564 114.765C139.523 114.801 139.493 114.821 139.472 114.836C139.442 114.856 139.427 114.866 139.427 114.866C139.427 114.866 138.263 115.836 136.423 115.821C135.066 115.806 133.18 115.156 131.996 113.734C127.488 108.306 130.192 104.995 130.192 104.995C130.192 104.995 130.207 104.975 130.233 104.939C130.563 104.533 132.799 102.116 137.175 105.452C139.498 107.219 140.596 110.55 140.525 112.373Z" fill="#181225" stroke="#181225" stroke-linecap="round" stroke-linejoin="round"/>
<path d="M136.865 112.841L129.353 120.153L129.201 120.31C129.191 120.32 129.181 120.325 129.181 120.325L129.175 120.33C129.13 120.366 128.855 120.564 128.413 120.62C127.915 120.681 127.214 120.569 126.395 119.848C124.433 118.116 124.601 115.958 125.231 115.329L125.282 115.278C125.287 115.273 125.298 115.263 125.308 115.253C126.253 114.278 132.174 107.752 132.174 107.752C132.174 107.752 132.718 107.036 133.719 107.087C134.41 107.123 135.508 107.544 136.235 108.58C136.692 109.23 136.962 109.814 137.114 110.327L137.119 110.332C137.587 111.932 136.865 112.841 136.865 112.841Z" fill="#FEB91A" stroke="#181225" stroke-linecap="round" stroke-linejoin="round"/>
<path d="M129.353 120.153C129.292 120.234 129.231 120.285 129.201 120.31C129.191 120.32 129.181 120.325 129.181 120.325L129.175 120.33C129.079 120.402 127.94 121.209 126.395 119.848C124.433 118.116 124.601 115.958 125.231 115.329C125.231 115.329 125.247 115.308 125.282 115.278C125.287 115.273 125.298 115.263 125.308 115.253C125.531 115.08 126.243 114.694 127.615 115.542C129.389 116.634 129.582 118.005 129.668 118.848C129.74 119.538 129.526 119.95 129.353 120.153Z" fill="#181225" stroke="#181225" stroke-linecap="round" stroke-linejoin="round"/>
<path d="M133.969 99.7754C133.969 99.7754 135.809 96.2691 140.971 99.1306C145.893 101.859 146.983 108.528 146.108 109.781" stroke="#181225" stroke-linecap="round" stroke-linejoin="round"/>
<path d="M145.906 105.591L148.324 103.712" stroke="#181225" stroke-linecap="round" stroke-linejoin="round"/>
<path d="M144.723 102.891L146.043 101.769" stroke="#181225" stroke-linecap="round" stroke-linejoin="round"/>
<path d="M143.214 100.877L144.602 99.6103" stroke="#181225" stroke-linecap="round" stroke-linejoin="round"/>
<path d="M141.278 99.3089L142.622 98.0068" stroke="#181225" stroke-linecap="round" stroke-linejoin="round"/>
<path d="M139.373 98.4008L141.95 95.3177" stroke="#181225" stroke-linecap="round" stroke-linejoin="round"/>
<path d="M137.553 98.0156L138.69 96.7019" stroke="#181225" stroke-linecap="round" stroke-linejoin="round"/>
<path d="M136.207 98.139L137.22 96.7319" stroke="#181225" stroke-linecap="round" stroke-linejoin="round"/>
<path d="M146.332 107.596L147.783 106.567" stroke="#181225" stroke-linecap="round" stroke-linejoin="round"/>
<path d="M25.8924 128.595C23.3274 128.87 21.3578 127.817 21.3578 127.817L15.4207 151.482C15.4207 151.482 15.4461 152.88 19.6459 153.592C23.6447 154.271 25.9837 152.989 25.9837 152.989C25.9837 152.989 24.8688 149.908 23.6987 147.57L25.8924 128.595Z" fill="#F6F6F8" stroke="#181225" stroke-linecap="round" stroke-linejoin="round"/>
<path d="M41.6808 106.239L38.2603 106.767C36.0901 93.7882 28.8831 89.8376 28.8831 89.8376L29.2745 84.2671C29.2745 84.2671 38.2247 89.2485 41.6808 106.239Z" fill="#181225" stroke="#181225" stroke-linecap="round" stroke-linejoin="round"/>
<path d="M25.5586 91.251L9.69992 88.6581C9.69992 88.6581 12.6456 90.2009 14.1041 94.489L7.29282 92.9306L25.1672 97.023L27.6966 103.33L33.3782 102.671C31.8206 94.4325 25.5586 91.251 25.5586 91.251Z" fill="#181225" stroke="#181225" stroke-linecap="round" stroke-linejoin="round"/>
<path d="M59.3474 99.6582L30.535 64.4227L33.1502 74.3499C48.9159 86.3855 52.9925 101.601 53.6246 104.411L56.9943 103.893L55.5661 100.1L59.3474 99.6582Z" fill="#181225" stroke="#181225" stroke-linecap="round" stroke-linejoin="round"/>
<path d="M12.5959 113.762C12.5959 113.762 13.3976 111.712 13.8496 111.907C14.7688 112.305 15.2348 112.737 15.2348 112.737C15.2348 112.737 14.1616 115.642 16.7233 118.963C16.7233 118.963 16.4659 120.678 16.2479 121.059C16.0299 121.44 14.2856 121.059 14.2856 121.059C14.2856 121.059 7.25412 125.138 6.00047 125.712C4.74683 126.287 4.20174 124 4.41978 122.638C4.63781 121.277 17.6106 88.3295 17.8831 87.8394C18.1556 87.3493 18.5372 87.2948 18.8098 87.4037C19.0823 87.5126 19.3549 87.9483 19.1913 88.8196C19.0277 89.6909 12.5959 113.762 12.5959 113.762Z" fill="#EF8019" stroke="#181225" stroke-linecap="round" stroke-linejoin="round"/>
<path d="M12.5959 113.762L10.1976 115.178" stroke="#181225" stroke-linecap="round" stroke-linejoin="round"/>
<path d="M42.9971 105.301C41.6407 105.839 37.3547 107.342 37.3547 107.342L36.7662 111.907L35.8315 114.19C32.266 114.57 28.6313 114.467 28.6313 114.467L16.7232 118.963C14.1616 115.643 15.2347 112.737 15.2347 112.737L24.2004 107.204C24.2004 107.204 23.4389 104.195 23.3696 103.538C23.3004 102.881 24.7543 100.356 24.6851 99.6641C24.6159 98.9724 23.9235 96.5168 23.9235 96.5168C23.9235 96.5168 25.7928 95.6176 26.3121 96.2055C26.8314 96.7935 28.3545 99.4911 28.3545 100.01C28.3545 100.529 27.6967 103.33 27.6967 103.33L28.2506 104.783C28.2506 104.783 42.3395 102.742 42.8241 102.708C43.3088 102.673 43.3088 102.811 43.3434 103.192C43.378 103.572 43.3804 105.15 42.9971 105.301Z" fill="#F6F6F8" stroke="#181225" stroke-linecap="round" stroke-linejoin="round"/>
<path d="M37.3546 107.342L34.5507 108.034" stroke="#181225" stroke-linecap="round" stroke-linejoin="round"/>
<path d="M37.0321 109.844L35.07 110.628" stroke="#181225" stroke-linecap="round" stroke-linejoin="round"/>
<path d="M36.7662 111.907L35.243 112.703" stroke="#181225" stroke-linecap="round" stroke-linejoin="round"/>
<path d="M26.8079 73.8617L19.4638 72.4532C19.4645 72.4538 22.2771 74.4071 24.781 78.508L16.7773 76.9101L26.4501 78.8413C42.1051 88.0864 44.1854 101.418 44.1854 101.418L48.5013 100.918C41.848 80.5122 26.8079 73.8617 26.8079 73.8617Z" fill="#181225" stroke="#181225" stroke-linecap="round" stroke-linejoin="round"/>
<path d="M22.7066 65.9263L28.3985 67.8671L27.6967 62.3157L32.6394 61.4887C32.6394 61.4887 29.3218 57.5979 28.0095 57.8927C26.6448 58.1992 22.7066 65.9263 22.7066 65.9263Z" fill="#EF8019" stroke="#181225" stroke-linecap="round" stroke-linejoin="round"/>
<path d="M24.5899 62.467L25.8195 62.8719L25.47 66.8686" stroke="#181225" stroke-linecap="round" stroke-linejoin="round"/>
<path d="M111.737 90.7161C109.638 91.0157 101.08 91.9144 99.2244 92.0312C96.4341 92.209 93.4965 92.2497 93.4101 91.8128C93.2271 90.9039 103.748 83.4546 103.936 82.7184C103.987 82.5254 104.083 82.1293 104.2 81.6418C104.419 80.743 104.714 79.5548 104.886 78.8338C106.675 78.849 108.378 78.849 109.994 78.8338C109.969 79.3416 109.938 80.0829 109.923 80.7837C109.908 81.3321 109.903 81.8551 109.918 82.2259C109.928 82.3578 109.943 82.4848 109.979 82.6067L112.042 90.2489C112.098 90.4673 111.961 90.6856 111.737 90.7161Z" fill="#FEB91A" stroke="#181225" stroke-linecap="round" stroke-linejoin="round"/>
<path d="M89.6631 109.335L95.3216 109.651V107.724H89.8527L89.6631 109.335Z" fill="#D37D00" stroke="#181225" stroke-linecap="round" stroke-linejoin="round"/>
<path d="M90.0424 105.198L90.0108 105.987L95.7642 106.114L95.7326 104.282L90.0424 105.198Z" fill="#D37D00" stroke="#181225" stroke-linecap="round" stroke-linejoin="round"/>
<path d="M97.1551 104.124L97.0919 105.829L103.288 105.577L103.446 103.05L97.1551 104.124Z" fill="#D37D00" stroke="#181225" stroke-linecap="round" stroke-linejoin="round"/>
<path d="M105.058 102.639L105.027 105.545L110.559 105.324L110.654 101.818L105.058 102.639Z" fill="#D37D00" stroke="#181225" stroke-linecap="round" stroke-linejoin="round"/>
<path d="M96.9655 107.567L103.446 107.219L103.288 109.967L96.8074 109.619L96.9655 107.567Z" fill="#D37D00" stroke="#181225" stroke-linecap="round" stroke-linejoin="round"/>
<path d="M104.963 107.156L104.837 109.999L110.085 110.03L110.401 106.966L104.963 107.156Z" fill="#D37D00" stroke="#181225" stroke-linecap="round" stroke-linejoin="round"/>
<path d="M90.0108 103.05L90.6746 103.871L95.6378 103.176L94.152 101.25L90.0108 103.05Z" fill="#D37D00" stroke="#181225" stroke-linecap="round" stroke-linejoin="round"/>
<path d="M95.5429 100.713L97.0603 102.766L103.161 101.692L102.814 98.9758L99.779 98.502L95.5429 100.713Z" fill="#D37D00" stroke="#181225" stroke-linecap="round" stroke-linejoin="round"/>
<path d="M89.5366 101.976L97.3765 98.0914L86.4702 96.4174L85.2057 100.839L89.5366 101.976Z" fill="#93DE00" stroke="#181225" stroke-linecap="round" stroke-linejoin="round"/>
<path d="M85.624 99.3767L87.9244 97.6492L87.0076 100.045L88.9359 98.9441L88.246 100.808L91.7811 98.7231L90.5165 100.634L93.8215 99.8529" stroke="#181225" stroke-linecap="round" stroke-linejoin="round"/>
<path d="M80.7926 97.9323C81.7466 97.985 82.7022 98.0385 82.7022 98.0385L83.0126 98.6051L84.3521 98.3756L84.904 96.0819L81.7724 95.6441L78.3741 96.7795L80.1405 96.8626L80.7926 97.9323Z" fill="#D37D00" stroke="#181225" stroke-linecap="round" stroke-linejoin="round"/>
<path d="M61.7056 109.1C61.7056 109.1 62.4514 105.601 60.324 103.381L61.1619 103.253C61.4211 103.199 61.6425 103.104 61.8355 102.98C61.9174 102.923 67.9556 100.909 67.9556 100.909C67.9556 100.909 75.3544 95.7901 75.8136 95.8597C76.3723 95.9444 78.3742 96.7796 78.3742 96.7796L80.1406 96.8627L80.7927 97.9323C81.7467 97.985 82.7022 98.0386 82.7022 98.0386L83.8022 100.045C84.1564 100.085 84.4295 100.115 84.5457 100.127C84.5457 100.127 86.6863 102.677 86.9333 102.896C86.9333 102.896 88.8544 103.288 89.1289 103.38C89.1289 103.38 89.2661 104.486 88.9916 104.925C88.7172 105.364 86.6314 105.693 86.6314 105.693C86.0825 105.391 83.4205 103.38 83.4205 103.38H80.5114L77.4103 105.775C77.4103 105.775 80.8318 106.43 81.6092 106.707C81.9934 106.845 84.4359 108.243 84.5731 108.846C84.7546 109.644 83.9465 111.175 83.727 111.175C83.5074 111.175 80.731 109.614 80.2644 109.559C79.7979 109.504 74.7207 109.422 74.5012 109.312C74.2816 109.202 71.5098 107.42 71.5098 107.42L61.7056 109.1Z" fill="#F6F6F8" stroke="#181225" stroke-linecap="round" stroke-linejoin="round"/>
<path d="M80.3467 99.6606C80.3467 99.6606 82.5673 99.9089 83.8021 100.045" stroke="#181225" stroke-linecap="round" stroke-linejoin="round"/>
<path d="M78.8943 97.831C78.9454 97.831 79.8684 97.8813 80.7926 97.9323" stroke="#181225" stroke-linecap="round" stroke-linejoin="round"/>
<path d="M77.1982 96.7243L78.3742 96.7796" stroke="#181225" stroke-linecap="round" stroke-linejoin="round"/>
<path d="M71.8755 98.2498L70.3009 96.4174L66.1484 98.502L68.4572 100.564C69.1634 100.078 70.5174 99.153 71.8755 98.2498Z" fill="#D37D00" stroke="#181225" stroke-linecap="round" stroke-linejoin="round"/>
<path d="M64.7766 99.4313L62.8252 100.52C62.8807 100.903 62.8483 101.228 62.7984 101.507C62.7647 101.693 62.6962 101.899 62.5968 102.103L63.1432 102.525C64.2437 102.151 65.7978 101.63 66.8402 101.282L64.7766 99.4313Z" fill="#D37D00" stroke="#181225" stroke-linecap="round" stroke-linejoin="round"/>
<path d="M133.922 25.8481C134.769 25.9847 135.424 26.6506 135.553 27.4978C136.028 30.6162 137.014 39.0843 136.704 49.1464C136.335 61.136 134.833 69.3517 134.159 73.586C134.003 74.5686 133.239 75.3421 132.259 75.5149C127.081 76.4273 113.919 77.926 96.3641 77.1836C81.1181 76.5389 69.3713 74.6295 66.7954 74.1361C66.5302 74.0853 66.3231 73.8847 66.2625 73.6218C65.8063 71.6406 63.9518 63.0215 63.8709 53.4811C63.7861 43.4872 66.8931 32.4821 67.4012 30.751C67.4445 30.6035 67.5572 30.4892 67.7045 30.4445C69.4776 29.9072 81.243 26.4947 99.4104 24.7984C115.733 23.2743 129.597 25.1502 133.922 25.8481Z" fill="#181225" stroke="#181225" stroke-linecap="round" stroke-linejoin="round"/>
<path d="M112.277 48.8518L112.547 44.4975L111.217 44.5037L111.144 44.5996C111.037 45.9506 110.938 47.3697 110.848 48.8549L112.277 48.8518Z" fill="#FF45A9"/>
<path d="M116.183 27.208C115.203 27.2427 114.237 27.281 113.29 27.3217C113.13 28.1772 112.92 29.3793 112.685 30.915L112.878 30.9513C113.781 30.9185 114.702 30.8872 115.639 30.8576L116.183 27.208Z" fill="#FF45A9"/>
<path d="M112.763 58.0715L113 53.3507C112.197 53.3549 111.401 53.3587 110.614 53.3623C110.548 54.8854 110.494 56.4656 110.452 58.1013C111.212 58.0921 111.983 58.0822 112.763 58.0715Z" fill="#FF45A9"/>
<path d="M111.932 71.2812C111.428 71.2877 110.925 71.2939 110.424 71.2997C110.445 72.3277 110.471 73.3704 110.503 74.4273L110.509 74.4334C110.965 74.4277 111.425 74.4218 111.892 74.4152L111.932 71.2812Z" fill="#FF45A9"/>
<path d="M114.803 67.3127C117.407 67.2453 119.795 67.1701 121.875 67.0975L122.016 62.9552C119.7 63.0243 117.329 63.0826 114.97 63.1315L114.803 67.3127Z" fill="#FF45A9"/>
<path d="M111.937 58.0827L111.775 63.1924C113.044 63.1701 114.326 63.1453 115.611 63.1178V58.0295C114.368 58.0492 113.14 58.0669 111.937 58.0827Z" fill="#FF45A9"/>
<path d="M123.935 71.0358L124.01 67.0199C122.995 67.0582 121.88 67.0982 120.675 67.1385L120.521 71.1278C121.687 71.1001 122.828 71.0695 123.935 71.0358Z" fill="#FF45A9"/>
<path d="M112.277 48.8518L111.956 53.356C112.646 53.3526 113.339 53.3491 114.038 53.3453L114.035 53.3275L114.445 48.8743L114.433 48.8471L112.277 48.8518Z" fill="#FF45A9"/>
<path d="M119.351 44.4655L129.224 44.4189C129.344 42.5599 129.484 40.8606 129.63 39.315C127.557 39.3172 124.182 39.329 119.84 39.3755L119.351 44.4655Z" fill="#FF45A9"/>
<path d="M115.727 39.4269C117.647 39.3996 119.427 39.3789 121.05 39.3632L121.461 35.3907C119.626 35.4164 117.827 35.4488 116.076 35.4861L115.727 39.4269Z" fill="#FF45A9"/>
<path d="M115.201 30.8714L114.859 35.5131C115.497 35.4985 116.14 35.4844 116.791 35.4712L117.229 30.8099C116.546 30.8295 115.868 30.8499 115.201 30.8714Z" fill="#FF45A9"/>
<path d="M131.45 27.0406C131.45 27.0406 131.142 28.1839 130.736 30.6019C130.525 31.8347 130.292 33.3981 130.06 35.3214V35.3268C129.91 36.5209 129.765 37.8465 129.63 39.315C129.484 40.8606 129.344 42.5599 129.224 44.4189C129.13 45.7966 129.052 47.2623 128.985 48.8159C128.917 50.218 128.865 51.686 128.823 53.2306C128.781 54.6724 128.755 56.1741 128.739 57.7411C128.724 59.3354 128.718 60.9894 128.734 62.7133C128.739 64.0458 128.755 65.4157 128.781 66.8229C128.807 68.132 128.844 69.4727 128.885 70.8508C128.917 71.8813 128.953 72.9329 128.995 74.0055C122.54 74.2322 116.133 74.3599 110.503 74.4273C100.267 74.5595 92.8982 74.4931 92.8982 74.4931C92.7978 73.4416 92.7107 72.4069 92.637 71.3894C92.5296 70.0651 92.4358 68.764 92.3551 67.5043C92.2746 66.0898 92.2073 64.7172 92.1468 63.3869C92.0795 61.5932 92.0324 59.8661 92.0121 58.212C91.992 56.539 91.9987 54.9396 92.0189 53.4081C92.0458 51.8273 92.093 50.3208 92.1535 48.8952C92.2275 47.3714 92.3149 45.935 92.4224 44.5923C92.5498 42.912 92.7107 41.3696 92.8782 39.9645C93.0387 38.6161 93.2058 37.3923 93.386 36.2873C93.666 34.5314 93.9522 33.0859 94.2111 31.9357C94.7345 29.611 95.144 28.4959 95.144 28.4959C95.144 28.4959 103.034 27.7642 113.29 27.3204C118.992 27.0744 125.338 26.9229 131.45 27.0406Z" stroke="#93DE00" stroke-linecap="round" stroke-linejoin="round"/>
<path d="M131.45 27.0406C131.45 27.0406 131.142 28.1839 130.736 30.6019C114.58 30.6174 99.7946 31.5381 94.2112 31.9356C94.7346 29.6109 95.144 28.4958 95.144 28.4958C95.144 28.4958 114.273 26.7176 131.45 27.0406Z" stroke="#93DE00" stroke-linecap="round" stroke-linejoin="round"/>
<path d="M130.06 35.3268C129.91 36.5209 129.765 37.8465 129.63 39.315C124.365 39.3204 110.313 39.3891 92.8782 39.9644C93.0388 38.616 93.2059 37.3922 93.3861 36.2872C98.103 36.0501 113.506 35.3341 130.06 35.3268Z" stroke="#93DE00" stroke-linecap="round" stroke-linejoin="round"/>
<path d="M129.224 44.4189C129.13 45.7966 129.052 47.2623 128.985 48.8159L92.1536 48.8951C92.2275 47.3713 92.3149 45.9349 92.4224 44.5922L129.224 44.4189Z" stroke="#93DE00" stroke-linecap="round" stroke-linejoin="round"/>
<path d="M128.823 53.2306C128.781 54.6724 128.755 56.1741 128.739 57.7411C113.302 58.1915 96.5555 58.2128 92.0122 58.212C91.9921 56.539 91.9988 54.9396 92.019 53.4081C96.758 53.4107 114.487 53.3848 128.823 53.2306Z" stroke="#93DE00" stroke-linecap="round" stroke-linejoin="round"/>
<path d="M128.781 66.8229C123.96 67.042 107.553 67.7056 92.3551 67.5043C92.2746 66.0898 92.2074 64.7172 92.1468 63.3869C98.2903 63.3704 115.858 63.2729 128.734 62.7133C128.739 64.0458 128.755 65.4157 128.781 66.8229Z" stroke="#93DE00" stroke-linecap="round" stroke-linejoin="round"/>
<path d="M128.995 74.0054C110.67 74.6573 92.8983 74.493 92.8983 74.493C92.7979 73.4415 92.7108 72.4069 92.6371 71.3893C99.436 71.3963 117.833 71.3595 128.885 70.8507C128.917 71.8813 128.953 72.9328 128.995 74.0054Z" stroke="#93DE00" stroke-linecap="round" stroke-linejoin="round"/>
<path d="M96.1269 30.6437L98.5673 29.4643L100.663 30.6494L102.488 29.3918L105.837 30.0253" stroke="#93DE00" stroke-linecap="round" stroke-linejoin="round"/>
<path d="M95.3681 34.5333L98.0076 33.3885L100.05 34.6033L103.092 33.2735L105.481 34.6048L108.705 33.091" stroke="#93DE00" stroke-linecap="round" stroke-linejoin="round"/>
<path d="M94.7965 38.5675L96.9447 37.4226L99.4338 38.6892L102.488 37.6024L105.304 37.6666" fill="#181225"/>
<path d="M94.7965 38.5675L96.9447 37.4226L99.4338 38.6892L102.488 37.6024L105.304 37.6666" stroke="#181225" stroke-linecap="round" stroke-linejoin="round"/>
<path d="M94.4142 43.0936L97.3207 41.7028L99.4955 42.9832" stroke="#93DE00" stroke-linecap="round" stroke-linejoin="round"/>
<path d="M101.943 42.9285L103.873 41.8339L105.837 41.8339L107.833 43.0198L109.918 42.0088" stroke="#93DE00" stroke-linecap="round" stroke-linejoin="round"/>
<path d="M94.4779 47.5761L96.442 46.2469L96.8192 47.6563L101.396 46.2572L105.007 47.7876" fill="#181225"/>
<path d="M94.4779 47.5761L96.442 46.2469L96.8192 47.6563L101.396 46.2572L105.007 47.7876" stroke="#181225" stroke-linecap="round" stroke-linejoin="round"/>
<path d="M93.7109 52.2385L95.3681 50.4062L99.3721 52.0888L100.111 50.3485L104.172 52.3476" stroke="#93DE00" stroke-linecap="round" stroke-linejoin="round"/>
<path d="M93.5827 56.6151L96.6935 55.2645L96.8192 56.7837L99.8652 56.9516L103.152 55.1615L105.363 56.7184" stroke="#93DE00" stroke-linecap="round" stroke-linejoin="round"/>
<path d="M93.5827 61.8187L95.8112 60.151L98.0699 62.0599L101.579 61.1762" fill="#181225"/>
<path d="M93.5827 61.8187L95.8112 60.151L98.0699 62.0599L101.579 61.1762" stroke="#181225" stroke-linecap="round" stroke-linejoin="round"/>
<path d="M94.0949 66.0501L96.5678 65.1042L97.9453 66.2618L100.847 64.782L101.091 66.2125" stroke="#93DE00" stroke-linecap="round" stroke-linejoin="round"/>
<path d="M94.1588 70.1193L94.9237 68.7161L98.7534 70.4053L101.943 68.9286L103.212 70.3964L104.828 68.9776" fill="#181225"/>
<path d="M94.1588 70.1193L94.9237 68.7161L98.7534 70.4053L101.943 68.9286L103.212 70.3964L104.828 68.9776" stroke="#181225" stroke-linecap="round" stroke-linejoin="round"/>
<path d="M94.0949 73.2523L97.3207 72.603L100.234 73.4891" stroke="#93DE00" stroke-linecap="round" stroke-linejoin="round"/>
<path d="M131.45 27.0406C131.45 27.0406 131.142 28.1839 130.736 30.6019C130.525 31.8347 130.292 33.3981 130.06 35.3214V35.3268C129.91 36.5209 129.765 37.8465 129.63 39.315C129.484 40.8606 129.344 42.5599 129.224 44.4189C129.13 45.7966 129.052 47.2623 128.985 48.8159C128.917 50.218 128.865 51.686 128.823 53.2306C128.781 54.6724 128.755 56.1741 128.739 57.7411C128.724 59.3354 128.718 60.9894 128.734 62.7133C128.739 64.0458 128.755 65.4157 128.781 66.8229C128.807 68.132 128.844 69.4727 128.885 70.8508C128.917 71.8813 128.953 72.9329 128.995 74.0055C122.54 74.2322 116.133 74.3599 110.503 74.4273C109.722 48.9818 112.365 32.2751 113.29 27.3204C118.992 27.0744 125.338 26.9229 131.45 27.0406Z" stroke="#93DE00" stroke-linecap="round" stroke-linejoin="round"/>
<path d="M129.133 45.886C129.162 45.3877 129.192 44.8961 129.224 44.4189" stroke="#93DE00" stroke-miterlimit="10"/>
<path d="M129.63 39.315C129.671 38.8643 129.714 38.4316 129.757 38.0074" stroke="#93DE00" stroke-miterlimit="10"/>
<path d="M68.1981 55.5684L66.3139 55.5982" stroke="#93DE00" stroke-linecap="round" stroke-linejoin="round"/>
<path d="M68.1863 57.6977H66.9059" stroke="#93DE00" stroke-linecap="round" stroke-linejoin="round"/>
<path d="M68.238 59.7677H66.3139" stroke="#93DE00" stroke-linecap="round" stroke-linejoin="round"/>
<path d="M68.3487 62.1043L67.0539 62.0447" stroke="#93DE00" stroke-linecap="round" stroke-linejoin="round"/>
<path d="M68.5238 64.5165L66.5803 64.3808" stroke="#93DE00" stroke-linecap="round" stroke-linejoin="round"/>
<path d="M68.7413 66.7561L67.2018 66.5986" stroke="#93DE00" stroke-linecap="round" stroke-linejoin="round"/>
<path d="M69.0007 68.9099L67.2906 68.7277" stroke="#93DE00" stroke-linecap="round" stroke-linejoin="round"/>
<path d="M67.8211 34.5108L70.0048 34.1078" stroke="#93DE00" stroke-linecap="round" stroke-linejoin="round"/>
<path d="M68.2923 35.948L69.6015 35.7295" stroke="#93DE00" stroke-linecap="round" stroke-linejoin="round"/>
<path d="M67.2754 37.8065L69.2246 37.5072" stroke="#93DE00" stroke-linecap="round" stroke-linejoin="round"/>
<path d="M67.6722 39.4172L68.9129 39.2527" stroke="#93DE00" stroke-linecap="round" stroke-linejoin="round"/>
<path d="M66.7794 41.0745L68.6807 40.8171" stroke="#93DE00" stroke-linecap="round" stroke-linejoin="round"/>
<path d="M67.2754 42.8369L68.457 42.7295" stroke="#93DE00" stroke-linecap="round" stroke-linejoin="round"/>
<path d="M66.3329 44.8441L68.305 44.57" stroke="#93DE00" stroke-linecap="round" stroke-linejoin="round"/>
<path d="M66.9778 46.5539L68.2168 46.43" stroke="#93DE00" stroke-linecap="round" stroke-linejoin="round"/>
<path d="M68.1981 47.3839L71.2789 40.3847L73.469 45.5347L74.6255 42.0892L76.2512 47.3839L81.5038 33.0066L84.3106 41.0524L88.7882 35.6106" stroke="#FF45A9" stroke-linecap="round" stroke-linejoin="round"/>
<path d="M68.3699 43.6896L69.9383 47.8334L75.723 36.3451L79.1982 43.2558L81.1028 39.4172L85.0124 46.5539L89.5233 40.6184" stroke="#93DE00" stroke-linecap="round" stroke-linejoin="round"/>
<path d="M68.8822 67.9754C68.8822 67.9754 69.4108 65.1286 70.4337 64.9953C71.6822 64.8326 71.7095 70.104 73.1137 70.2557C75.1221 70.4726 76.0247 58.3788 78.1417 58.433C80.2587 58.4873 81.6701 70.7983 83.7328 71.0153C85.7955 71.2322 86.1755 64.2903 88.781 64.3445" stroke="#93DE00" stroke-linecap="round" stroke-linejoin="round"/>
<path d="M68.6009 65.3723C68.6009 65.3723 68.8548 54.71 70.4304 54.6241C72.2367 54.5256 71.9739 66.5021 73.5503 66.6006C74.7388 66.6748 74.4697 61.224 76.4404 61.3178C78.5095 61.4162 77.9561 71.2098 79.856 71.7521C81.7558 72.2944 81.2444 64.6908 83.2058 64.2709C84.5851 63.9756 84.0383 66.3852 85.2092 66.0756C86.3258 65.7803 86.3258 62.4991 88.7659 61.9104" stroke="#FF45A9" stroke-linecap="round" stroke-linejoin="round"/>
<path d="M69.1883 70.2557C69.1883 70.2557 70.0385 68.3277 71.7131 68.3098C73.3683 68.2922 74.6416 70.6331 76.4242 70.7012C78.2067 70.7692 81.348 67.7984 84.7427 68.9099C87.3334 69.7581 88.7882 71.7798 88.7882 71.7798" stroke="#93DE00" stroke-linecap="round" stroke-linejoin="round"/>
<path d="M118.477 102.39C113.762 101.392 114.938 96.4913 116.114 94.9642C117.29 93.437 120.112 90.794 124.168 91.7482C126.699 92.3434 127.468 95.6865 125.697 98.547C124.204 100.957 120.851 102.893 118.477 102.39Z" fill="#D37D00" stroke="#181225" stroke-linecap="round" stroke-linejoin="round"/>
<path d="M125.697 98.5471C124.204 100.957 120.851 102.893 118.477 102.391L120.861 103.187C120.861 103.187 123.74 103.352 124.932 101.073L126.202 97.5507C126.065 97.8858 125.899 98.2198 125.697 98.5471Z" fill="#FEB91A" stroke="#181225" stroke-linecap="round" stroke-linejoin="round"/>
<path d="M126.374 97.074L126.398 97.0081L126.397 97.0077C126.39 97.0298 126.381 97.052 126.374 97.074Z" fill="#FEB91A" stroke="#181225" stroke-linecap="round" stroke-linejoin="round"/>
<path d="M131.264 112.78C131.183 112.988 131.071 113.176 130.929 113.348C130.243 114.171 128.982 114.242 128.403 113.993C127.31 113.526 126.66 113.409 126.66 113.409L120.86 103.187C120.86 103.187 122.904 103.304 124.261 101.979C124.515 101.73 124.743 101.435 124.932 101.075L130.715 110.21C131.407 111.124 131.544 112.048 131.264 112.78Z" fill="#D37D00" stroke="#181225" stroke-linecap="round" stroke-linejoin="round"/>
<path d="M124.168 91.7482C123.98 91.7039 123.797 91.675 123.614 91.6457C123.614 91.6457 122.839 93.3333 123.321 95.0326C123.804 96.7319 123.056 98.1049 123.056 98.1049L123.056 98.1147C122.321 97.8937 121.314 97.9873 120.419 98.6399C118.781 99.8346 118.988 101.508 119.76 101.98C120.034 102.148 120.297 102.248 120.538 102.304C121.798 101.995 123.104 101.269 124.169 100.324C124.773 99.7885 125.301 99.1854 125.697 98.5471C127.468 95.6866 126.699 92.3434 124.168 91.7482Z" fill="#181225"/>
<path d="M159.645 99.4704C158.522 99.2469 156.748 98.9626 156.748 98.9626C156.748 98.9626 154.389 98.9626 153.881 102.167C153.764 102.893 153.653 104.086 153.541 105.488C153.459 106.503 153.383 107.631 153.317 108.778L153.292 108.768L148.977 107.595C148.977 107.595 149.256 106.051 149.114 104.198C149.068 103.568 148.972 102.903 148.794 102.253C148.484 101.09 147.93 99.968 146.974 99.1707C146.974 99.1707 146.867 98.8813 146.786 98.4039V98.3988C146.639 97.5509 146.583 96.1189 147.381 94.7123C148.382 92.9452 150.034 92.5238 150.71 92.6862L157.246 94.5752C157.312 94.5904 157.378 94.6107 157.444 94.6311C158.735 95.0526 159.762 96.5201 159.645 99.4704Z" fill="#FEB91A" stroke="#181225" stroke-linecap="round" stroke-linejoin="round"/>
<path d="M83.4204 103.38H80.5113L77.4102 105.775C77.4102 105.775 80.8317 106.43 81.6091 106.707C81.9933 106.844 84.4359 108.243 84.5731 108.846C84.5731 108.846 85.9907 108.518 86.406 107.515C86.8215 106.512 86.6314 105.693 86.6314 105.693C86.0825 105.391 83.4204 103.38 83.4204 103.38Z" fill="#D37D00" stroke="#181225" stroke-linecap="round" stroke-linejoin="round"/>
<path d="M153.583 93.5167C153.583 93.5167 157.021 88.6246 159.052 86.0223C160.321 84.3959 160.811 84.1949 161.472 84.6786C162.118 85.1518 161.629 86.4997 162.473 86.4529C163.539 86.3938 173.293 69.4459 173.869 73.0899C174.342 76.0857 178.841 71.1185 179.867 66.3871C180.893 61.6557 183.406 65.3911 184.997 61.8134C186.568 58.2828 184.716 55.5998 184.716 55.5998C184.716 55.5998 189.173 60.4039 190.612 64.3428C190.612 64.3428 187.839 59.8443 186.97 62.5637C186.102 65.2831 185.169 65.5113 182.186 66.5806C178.591 67.8688 179.867 72.6957 176.236 74.7459C172.606 76.7962 172.894 75.5636 169.212 78.8334C166.913 80.8741 164.4 87.0943 162.118 89.0553C160.334 90.5886 159.91 89.262 160.111 88.3881C160.849 85.1676 154.657 93.8269 154.657 93.8269L153.583 93.5167Z" fill="#181325"/>
<path d="M139.275 107.939C139.275 107.939 140.396 106.424 142.048 106.192C143.42 105.999 144.441 104.189 143.908 101.769C143.908 101.769 145.244 103.487 145.675 104.907C145.675 104.907 144.785 104.165 144.302 105.591C143.82 107.018 143.361 107.082 142.048 107.485C141.4 107.685 140.078 108.699 140.302 110.536C140.302 110.536 139.836 108.819 139.275 107.939Z" fill="#181325"/>
<path d="M109.994 78.8338C109.969 79.3416 109.938 80.0829 109.923 80.7837L104.2 81.6418C104.419 80.743 104.714 79.5548 104.886 78.8338C106.675 78.849 108.378 78.849 109.994 78.8338Z" fill="#181225" stroke="#181225" stroke-linecap="round" stroke-linejoin="round"/>
<path d="M58.4987 103.66L53.5534 107.209C53.2128 106.275 52.8571 105.3 52.5877 104.569L58.4987 103.66Z" fill="#181225" stroke="#181225" stroke-linecap="round" stroke-linejoin="round"/>
<path d="M153.784 102.891C153.784 102.891 154.307 104.48 155.38 104.134C156.452 103.787 156.983 102.914 158.752 103.19L158.87 105.591C158.87 105.591 158.529 104.453 157.061 104.404C155.593 104.355 154.639 105.941 153.551 105.38C153.551 105.38 153.687 103.616 153.784 102.891Z" fill="#181225"/>
<path d="M161.823 61.2932C161.823 61.2932 162.792 59.5924 166.24 59.8516C169.688 60.1109 174.286 62.667 177.956 67.0752C181.627 71.4833 182.842 75.8134 182.85 78.5217C182.86 81.8927 181.343 82.904 181.343 82.904" stroke="#181225" stroke-linecap="round" stroke-linejoin="round"/>
<path d="M136.867 109.767C136.681 111.552 135.61 111.523 134.353 112.213C133.371 112.752 132.535 112.89 131.61 114.633C130.206 117.277 129.07 116.924 129.07 116.924C129.07 116.924 129.493 117.614 129.581 118.231C129.581 118.231 130.348 118.231 131.624 115.4C132.229 114.057 133.092 113.937 133.969 113.571C134.847 113.205 136.615 112.229 137.114 110.327L136.867 109.767Z" fill="#181225"/>
<path d="M137.119 110.332L137.114 110.327C136.616 112.231 134.847 113.206 133.968 113.572C133.094 113.937 132.23 114.059 131.625 115.4C130.349 118.228 129.582 118.228 129.582 118.228L129.581 118.231C129.625 118.456 129.65 118.665 129.668 118.848C129.74 119.538 129.526 119.95 129.353 120.153L136.865 112.841C136.865 112.841 137.587 111.932 137.119 110.332Z" fill="#D37D00" stroke="#181225" stroke-linecap="round" stroke-linejoin="round"/>
<path d="M144.999 103.367L145.673 104.909C145.673 104.909 146.054 102.38 148.545 101.466C148.545 101.466 148.121 100.477 147.82 100.092C147.82 100.092 147.706 101.161 146.6 102.33C145.798 103.178 144.999 103.367 144.999 103.367Z" fill="#181225"/>
<path d="M153.541 105.488C153.459 106.503 153.383 107.631 153.317 108.778L153.292 108.768L148.977 107.595C148.977 107.595 149.256 106.051 149.114 104.198C149.068 103.568 148.972 102.903 148.794 102.253C148.484 101.09 147.93 99.968 146.974 99.1707C146.974 99.1707 146.867 98.8813 146.786 98.404C146.786 98.404 147.355 98.6985 148.86 98.6579C150.369 98.6172 151.752 99.8055 151.752 99.8055L153.541 105.488Z" fill="#D37D00" stroke="#181225" stroke-linecap="round" stroke-linejoin="round"/>
<path d="M146.772 96.8593C146.772 96.8593 147.209 98.2587 149.104 98.139C150.999 98.0193 152.398 98.139 152.398 98.139C152.398 98.139 151.954 99.0726 151.753 99.8045C151.753 99.8045 150.367 98.6169 148.861 98.6579C147.355 98.6989 146.786 98.4008 146.786 98.4008L146.772 96.8593Z" fill="#181225"/>
<path d="M159.645 99.4704C158.522 99.2469 156.748 98.9626 156.748 98.9626C156.748 98.9626 154.389 98.9626 153.881 102.167C153.683 103.421 153.485 106.051 153.317 108.778C153.317 108.778 153.307 108.773 153.292 108.768C152.997 108.656 150.191 107.402 151.411 101.171C152.26 96.8349 154.913 94.0065 157.246 94.5752C157.312 94.5904 157.378 94.6107 157.444 94.6311C158.735 95.0526 159.762 96.5201 159.645 99.4704Z" fill="#181225" stroke="#181225" stroke-linecap="round" stroke-linejoin="round"/>
<path d="M158.87 105.592C158.87 105.592 158.529 104.453 157.061 104.404C155.593 104.355 154.639 105.941 153.551 105.38L153.55 105.381C153.176 110.132 152.87 117.437 152.87 117.437L159.877 118.841C159.877 118.84 159.15 109.661 158.87 105.592Z" fill="#D37D00" stroke="#181225" stroke-linecap="round" stroke-linejoin="round"/>
<path d="M68.2497 54.0553C68.2497 54.0553 67.7725 61.7432 69.4359 71.847C69.4359 71.847 78.1121 73.3395 88.7659 73.806" stroke="#93DE00" stroke-linecap="round" stroke-linejoin="round"/>
<path d="M70.2623 33.2077C70.2623 33.2077 68.0119 40.3039 68.2076 48.9413L88.7659 47.6381" stroke="#93DE00" stroke-linecap="round" stroke-linejoin="round"/>
<path d="M152.91 21.8027C157.009 21.6464 157.55 25.5495 156.875 27.148C156.325 28.4506 154.668 30.0552 152.018 29.319C150.152 28.8008 149.108 26.9967 149.237 25.3545C149.378 23.5578 150.553 21.8926 152.91 21.8027Z" fill="#F6F6F8"/>
<path d="M152.475 39.7726L151.49 35.623L153.637 39.0341L157.157 37.9088L154.305 40.1242L155.537 44.3794L153.074 40.7221L149.448 42.0232L152.475 39.7726Z" fill="#F6F6F8"/>
<path d="M171.517 27.7106C171.517 27.7106 173.031 27.4996 173.312 28.9414C173.594 30.3832 172.327 31.1731 170.952 30.5844C169.591 30.0018 170.145 27.7457 171.517 27.7106Z" fill="#F6F6F8"/>
<path d="M182.146 18.3901L181.346 21.6716L177.816 22.2964L181.246 22.9746L181.284 27.2236L182.347 23.0055L186.087 22.7328L182.36 22.0147L182.146 18.3901Z" fill="#F6F6F8"/>
<path d="M167.082 40.7924L163.457 41.2144" stroke="#F6F6F8" stroke-linecap="round" stroke-linejoin="round"/>
<path d="M165.71 38.6473L165.006 43.5002" stroke="#F6F6F8" stroke-linecap="round" stroke-linejoin="round"/>
<path d="M209.988 29.9964L209.214 34.0405" stroke="#F6F6F8" stroke-linecap="round" stroke-linejoin="round"/>
<path d="M208.228 31.3679L211.009 32.4932" stroke="#F6F6F8" stroke-linecap="round" stroke-linejoin="round"/>
<path d="M199.253 25.8468C201.545 26.1225 202.201 28.1333 201.905 29.6916C201.652 31.0284 200.08 32.5845 197.916 31.9306C196.206 31.4141 195.381 29.8 195.734 28.222C196.141 26.401 197.924 25.687 199.253 25.8468Z" fill="#F6F6F8"/>
<path d="M184.259 43.0431C185.403 43.4657 185.813 44.506 185.385 45.5047C184.968 46.4785 183.772 46.6919 182.918 46.2857C182.411 46.0447 181.76 45.2493 182.049 44.1405C182.348 42.9968 183.524 42.7717 184.259 43.0431Z" fill="#F6F6F8"/>
<path d="M199.499 43.9574C200.254 43.9435 200.449 44.5351 200.308 45.0977C200.167 45.6604 199.291 45.8198 198.901 45.4344C198.498 45.0354 198.568 43.9745 199.499 43.9574Z" fill="#F6F6F8"/>
<path d="M210.094 38.6121C211.069 39.027 211.342 40.0582 211.149 40.6583C210.931 41.3354 210.346 42.049 209.195 41.8083C207.915 41.5408 207.793 40.4152 208.017 39.5886C208.285 38.5991 209.487 38.3538 210.094 38.6121Z" fill="#F6F6F8"/>
<path d="M203.054 54.5776C203.758 54.6128 204.089 55.1255 203.948 55.6882C203.808 56.2508 203.389 56.5158 202.931 56.4103C202.712 56.3598 202.128 56.1428 202.155 55.501C202.183 54.833 202.687 54.5592 203.054 54.5776Z" fill="#F6F6F8"/>
<path d="M168.448 16.8507C168.519 14.4242 171.099 14.1039 172.13 14.6435C173.22 15.2138 173.782 16.3081 173.407 17.7336C173.161 18.6655 172.216 19.5356 170.778 19.341C169.471 19.1643 168.415 18.0058 168.448 16.8507Z" fill="#F6F6F8"/>
<path d="M195.905 31.7783C195.905 31.7783 192.475 33.6635 192.174 33.1065C191.683 32.1944 195.703 29.208 198.491 27.4323C201.28 25.6567 205.536 23.8294 205.833 24.3443C206.155 24.9013 202.681 27.4507 202.681 27.4507" stroke="#F6F6F8" stroke-linecap="round" stroke-linejoin="round"/>
<path d="M200.48 72.6132L201.614 68.2101L201.702 72.8312L204.669 73.616L201.571 73.7467L200.48 78.0191L200.393 73.6595L197.295 72.9184L200.48 72.6132Z" fill="#F6F6F8"/>
<path d="M154.639 120.634C154.639 120.634 157.231 124.306 156.968 129.644C156.706 134.981 155.089 137.798 155.38 141.374C155.712 145.453 157.114 145.61 156.773 150.237C156.478 154.243 155.14 156.582 155.14 156.582C155.14 156.582 157.342 157.041 160.111 156.681C160.111 156.681 159.573 151.685 158.338 144.437C156.373 132.902 161.472 129.383 160.567 120.772C160.567 120.772 157.362 121.01 154.639 120.634Z" fill="#181325"/>
<path d="M123.625 102.47C123.625 102.47 123.643 105.351 125.504 106.966C127.365 108.582 127.896 108.988 128.534 111.175C129.172 113.363 130.494 113.732 130.494 113.732C130.494 113.732 131.128 113.418 131.262 112.781C131.262 112.781 129.013 111.017 127.843 108.498C126.674 105.979 124.259 101.976 124.259 101.976C124.259 101.976 124.066 102.227 123.625 102.47Z" fill="#181225"/>
<path d="M131.264 112.78H131.259C131.259 112.78 129.013 111.018 127.844 108.499C126.695 106.021 124.337 102.101 124.261 101.979C124.515 101.73 124.744 101.435 124.932 101.075L130.715 110.21C131.407 111.124 131.544 112.048 131.264 112.78Z" fill="#FEB91A" stroke="#181225" stroke-linecap="round" stroke-linejoin="round"/>
</g>
<defs>
<clipPath id="clip0_1_1067">
<rect width="227" height="157" fill="white"/>
</clipPath>
</defs>
</svg>
