<svg xmlns="http://www.w3.org/2000/svg" fill="none" viewBox="0 0 80 80">
    <path fill="#0091BD" d="M18 28.4h5.4v23h-5.3v-2.3a8.8 8.8 0 0 1-7 3C4.2 52.2 0 46.4 0 40c0-7.5 5.1-12.1 11.2-12.1a8.4 8.4 0 0 1 6.9 3.3v-2.7l-.1-.1ZM5.6 40.1c0 4 2.5 7.3 6.4 7.3 3.4 0 6.5-2.4 6.5-7.2 0-5-3-7.5-6.5-7.5-3.9 0-6.4 3.3-6.4 7.4Zm24.3-11.7h5.4v2.1c.6-.8 1.4-1.4 2.2-2a6 6 0 0 1 3.3-.7 8 8 0 0 1 4.3 1l-2.2 5c-.9-.6-1.9-.9-2.9-.8a4.3 4.3 0 0 0-3.4 1.3c-1.4 1.5-1.4 3.7-1.4 5.3v11.9h-5.4v-23l.1-.1Zm18.6 0h5.3v2.2a7 7 0 0 1 5.7-2.8 6.8 6.8 0 0 1 6 3.4 8.1 8.1 0 0 1 6.9-3.4 7.4 7.4 0 0 1 6.5 3.7c.9 1.8 1.3 3.8 1.2 5.8v14.2h-5.4V38.8a10 10 0 0 0-.5-4 3 3 0 0 0-3-2 4 4 0 0 0-3.2 1.6c-1 1.3-1 3.3-1 5.3v11.8h-5.5V38.8a10 10 0 0 0-.5-4 3 3 0 0 0-3-2 4 4 0 0 0-3.2 1.6c-1 1.3-1 3.3-1 5.3v11.8h-5.3V28.4Z"/>
</svg>
