<svg xmlns="http://www.w3.org/2000/svg" fill="none" viewBox="0 0 80 80">
  <rect width="58" height="78" x="11" y="1" stroke="currentColor" stroke-width="2" rx="2"/>
  <path fill="currentColor" fill-rule="evenodd" d="M48.7 32a1.3 1.3 0 0 1 1 .6 1.3 1.3 0 0 1 0 1.3l-.6 1-.8 1.5-.8 1.5a14.1 14.1 0 0 1 6.4 9.8l.1.6H26A14.1 14.1 0 0 1 32.6 38l-.9-1.5-1.4-2.5a1.3 1.3 0 0 1 2.2-1.3l.6 1 .9 1.5.8 1.5v.1a13.2 13.2 0 0 1 5.2-1c1.8 0 3.5.4 5 1h.1l.1-.1.9-1.5.8-1.4a904.7 904.7 0 0 1 1-1.4 1.3 1.3 0 0 1 .8-.3ZM34.4 42c-.6-.4-1.4-.2-1.8.5-.5.7-.4 1.6.1 2 .6.3 1.4 0 1.9-.6.4-.7.4-1.6-.2-2Zm13 .5c-.4-.7-1.2-1-1.8-.6-.5.4-.6 1.3-.2 2 .5.7 1.3 1 1.9.5.5-.3.6-1.2.2-1.9Z" clip-rule="evenodd"/>
</svg>
