<svg xmlns="http://www.w3.org/2000/svg" fill="none" viewBox="0 0 80 80">
  <path fill="#9C0000" d="M18.1 52 17 66.7H-.5L2 48l16.1 4Zm61.4 14.7H62.1L61 51.8l16-3.7 2.5 18.6Z"/>
  <path fill="#B50808" d="m21.8 36.4-3.7 13-15.5-3.8 6.2-16.1 13 6.9Zm54.6 9.2L61 49.4l-3.7-13 13-6.9 6.2 16.1Z"/>
  <path fill="#C61818" d="m32.5 27-10 7L10 27h.2l13-10.5L32.5 27ZM69 27l-12.5 7-9.9-7L56 16.5 69 27Z"/>
  <path fill="#CE3129" fill-rule="evenodd" d="m26.2 14.6 9.3 11.2h8.6l8.1-11.2-8-2.4h-9l-9 2.4Z" clip-rule="evenodd"/>
</svg>
