<svg xmlns="http://www.w3.org/2000/svg" fill="none" viewBox="0 0 80 80">
  <path fill="#4285F4" d="M75.3 40.8c0-3-.3-5.1-.8-7.4H40.7v13.4h19.9c-.4 3.3-2.6 8.3-7.4 11.7v.4l10.6 8.3h.8a35.2 35.2 0 0 0 10.7-26.4Z"/>
  <path fill="#34A853" d="M40.7 76c9.7 0 17.9-3.2 23.9-8.7l-11.4-8.8c-3 2.1-7.1 3.6-12.5 3.6-9.5 0-17.6-6.3-20.5-15h-.4l-11 8.7-.2.4A36 36 0 0 0 40.7 76Z"/>
  <path fill="#FBBC05" d="M20.2 47.1a22.2 22.2 0 0 1 0-14.2v-.5L8.9 23.7l-.3.1a36 36 0 0 0 0 32.4l11.6-9Z"/>
  <path fill="#EB4335" d="M40.7 18a20 20 0 0 1 14 5.3l10.1-10A36 36 0 0 0 8.6 23.9l11.6 9c3-8.6 11-14.9 20.5-14.9Z"/>
</svg>
