<svg xmlns="http://www.w3.org/2000/svg" viewBox="0 0 80 80"><path d="m79.8 45.3-4.4-13.8-8.9-27.3a1.5 1.5 0 0 0-2.9 0l-8.9 27.3H25.3L16.4 4.2a1.5 1.5 0 0 0-2-1 1.5 1.5 0 0 0-1 1L4.7 31.5.2 45.3a3 3 0 0 0 1 3.4L40 76.8l38.7-28.1a3 3 0 0 0 1.2-3.4" fill="#fc6d26"/><path d="m40 76.8 14.7-45.3H25.3z" fill="#e24329"/><path d="M40 76.8 25.3 31.5H4.7z" fill="#fc6d26"/><path d="M4.6 31.5.2 45.3a3 3 0 0 0 1 3.4L40 76.8z" fill="#fca326"/><path d="M4.6 31.5h20.7L16.4 4.2a1.5 1.5 0 0 0-3 0z" fill="#e24329"/><path d="m40 76.8 14.7-45.3h20.7z" fill="#fc6d26"/><path d="m75.4 31.5 4.4 13.8a3 3 0 0 1-1 3.4L40 76.8l35.4-45.3z" fill="#fca326"/><path d="M75.4 31.5H54.7l8.9-27.3a1.5 1.5 0 0 1 3 0l8.8 27.3z" fill="#e24329"/></svg>
