<svg data-name="Logos" xmlns="http://www.w3.org/2000/svg" viewBox="0 0 80 80"><path d="M.8 28s-2-1.4.3-3.3L6.7 20a2.3 2.3 0 0 1 3.2-.2l50.3 38V76s0 2.9-3.7 2.5z" fill="#2489ca"/><path d="M13.7 39.8.7 51.6s-1.3 1 0 2.7l6 5.5s1.5 1.5 3.6-.2l13.8-10.4z" fill="#1070b3"/><path d="m36.5 39.9 23.7-18.2-.1-18.1s-1-4-4.4-2L24 30.6z" fill="#0877b9"/><path d="M56.4 78.5a3.3 3.3 0 0 0 3 1L78 70.5c2.4-1.6 2-3.7 2-3.7V12.4A3.6 3.6 0 0 0 77.5 9l-16-7.7c-3.5-2.2-5.8.4-5.8.4s3-2.1 4.4 1.9v72a3.3 3.3 0 0 1-.3 1.5c-.5.8-1.4 1.6-3.6 1.3z" fill="#3c99d4"/></svg>
