<svg viewBox="0 0 80 80" xmlns="http://www.w3.org/2000/svg">
<circle cx="68.7077" cy="14.6098" r="7.9485" fill="#000080"/>
<path fill-rule="evenodd" clip-rule="evenodd" d="M40.4441 12.3996C33.2861 12.3348 26.384 15.0119 21.169 19.8653C15.9551 24.7177 12.828 31.3718 12.4257 38.4438C12.0234 45.5158 14.3758 52.4756 19.0038 57.8784C23.6329 63.2825 30.185 66.715 37.3043 67.4524C44.4237 68.1898 51.5513 66.1738 57.2073 61.8306C62.862 57.4883 66.6092 51.1559 67.683 44.1526C68.1551 41.0734 71.034 38.9599 74.1133 39.432C77.1925 39.9041 79.306 42.7831 78.8339 45.8623C77.3176 55.7518 72.0291 64.6725 64.0781 70.7781C56.128 76.8829 46.1243 79.7076 36.142 78.6736C26.1595 77.6397 16.9528 72.825 10.4361 65.2175C3.91866 57.6089 0.594456 47.7917 1.16271 37.8032C1.73085 27.8147 6.14703 18.4348 13.4834 11.6071C20.8187 4.78036 30.5105 1.02796 40.5462 1.1188C43.6613 1.14699 46.1637 3.69514 46.1355 6.81024C46.1073 9.92534 43.5592 12.4278 40.4441 12.3996Z" fill="#000080"/>
<path fill-rule="evenodd" clip-rule="evenodd" d="M61.6124 20.2599C61.8175 20.075 61.8338 19.7589 61.6489 19.5538C61.464 19.3487 61.1479 19.3323 60.9428 19.5172L55.5906 24.3423L50.4809 28.9488C48.2378 27.0772 45.3511 25.9511 42.2013 25.9511C35.0594 25.9511 29.2697 31.7408 29.2697 38.8828C29.2697 46.0247 35.0594 51.8144 42.2013 51.8144C49.3433 51.8144 55.133 46.0247 55.133 38.8828C55.133 35.2522 53.6368 31.971 51.2274 29.6222L56.2602 25.085L61.6124 20.2599Z" fill="#000080"/>
</svg>
