<svg xmlns="http://www.w3.org/2000/svg" fill="none" viewBox="0 0 80 80">
  <path fill="currentColor" d="M34 74.1c.1-.7.8-1.2 1.5-1.1l4.5.3V76a42 42 0 0 1-5-.3c-.7-.1-1.1-.8-1-1.6Zm12 0c.1.8-.3 1.5-1 1.6a42 42 0 0 1-5 .3v-2.7l4.5-.3c.7 0 1.4.4 1.5 1.1Zm-28.3-7.6c.5-.5 1.4-.6 2-.1a32 32 0 0 0 7.6 4.4c.7.3 1.1 1 .8 1.8-.2.7-1 1-1.7.8-3-1.3-6-3-8.5-5-.6-.4-.7-1.3-.2-1.9Zm44.6 0c.5.6.4 1.5-.2 2a36 36 0 0 1-8.5 4.9c-.7.2-1.5-.1-1.7-.8-.3-.7 0-1.5.8-1.8 2.7-1.1 5.3-2.6 7.7-4.4.5-.5 1.4-.4 1.9.1ZM6.8 52.1a2 2 0 0 1 2.6 1.2c1.1 2.5 2.6 4.9 4.2 7 .5.6.4 1.5-.1 2-.6.5-1.5.4-2-.2a36 36 0 0 1-5-9.1c-.1-.4 0-.8.4-1Zm65.8-.2c.7.2 1 1 .8 1.7-1.3 3-3 6-5 8.5-.4.6-1.3.7-1.9.2-.5-.5-.6-1.4-.1-2a32 32 0 0 0 4.4-7.6c.3-.7 1-1.1 1.8-.8ZM4 40c0-1.7.1-3.3.3-5 .1-.7.8-1.1 1.6-1 .7.1 1.2.8 1.1 1.5a33.6 33.6 0 0 0 0 9c0 .7-.4 1.4-1.1 1.5-.8.1-1.5-.3-1.6-1a42 42 0 0 1-.3-5Zm72 0a42 42 0 0 1-.3 5c-.1.7-.8 1.1-1.6 1-.7-.1-1.2-.8-1.1-1.5a33.6 33.6 0 0 0 0-9c0-.7.4-1.4 1.1-1.5.8-.1 1.5.3 1.6 1 .2 1.7.3 3.3.3 5ZM13.5 17.7c.5.5.6 1.4.1 2a32 32 0 0 0-4.4 7.6c-.3.7-1 1.1-1.8.8-.7-.2-1-1-.8-1.7 1.3-3 3-6 5-8.5.4-.6 1.3-.7 1.9-.2Zm53 0c.6-.5 1.5-.4 2 .2a36 36 0 0 1 4.9 8.5c.2.7-.1 1.5-.8 1.7-.7.3-1.5 0-1.8-.8a33.3 33.3 0 0 0-4.4-7.7c-.5-.5-.4-1.4.1-1.9ZM28.1 7.4c.3.7 0 1.5-.8 1.8a33.3 33.3 0 0 0-7.7 4.4c-.5.5-1.4.4-1.9-.1-.5-.6-.4-1.5.2-2a36 36 0 0 1 8.5-4.9c.7-.2 1.5.1 1.7.8Zm23.8 0c.2-.7 1-1 1.7-.8 3 1.3 6 3 8.5 5 .6.4.7 1.3.2 1.9-.5.5-1.4.6-2 .1a32 32 0 0 0-7.6-4.4c-.7-.3-1.1-1-.8-1.8ZM40 4c1.7 0 3.3.1 5 .3.7.1 1.1.8 1 1.6-.1.7-.8 1.2-1.5 1.1a33.6 33.6 0 0 0-9 0c-.7 0-1.4-.4-1.5-1.1-.1-.8.3-1.5 1-1.6a42 42 0 0 1 5-.3Zm.5 45.8a4 4 0 1 1 0 8 4 4 0 0 1 0-8ZM44.8 23c3.5 0 6.4 2.9 6.4 6.4v3.7c0 3.6-2.9 6.4-6.4 6.4-1.3 0-2.3 1-2.3 2.3a2 2 0 1 1-4 0c0-3.5 2.8-6.3 6.3-6.3 1.3 0 2.4-1 2.4-2.4v-3.7c0-1.3-1-2.4-2.4-2.4h-7.5a2.3 2.3 0 0 0-2.3 2.4 2 2 0 1 1-4 0c0-3.5 2.8-6.4 6.3-6.4h7.5Z" />
</svg>
