<svg xmlns="http://www.w3.org/2000/svg" fill="none" viewBox="0 0 80 80">
  <path fill="currentColor" d="M14.2 28.6c0-5.6-2.9-10.3-8.2-14.2h12.4a17.8 17.8 0 0 1 0 28.4c4 1.7 6.3 5.8 6.3 11.6v11.2H13.5V54.4c0-5.6-2.7-9.5-7.5-11.6 5.3-4 8.2-8.6 8.2-14.2Zm24.3 0c0-5.6-2.9-10.3-8.2-14.2h12.4a17.8 17.8 0 0 1 0 28.4c4 1.7 6.3 5.8 6.3 11.6v11.2H37.8V54.4c0-5.6-2.7-9.5-7.5-11.6 5.3-4 8.2-8.6 8.2-14.2Zm24.3 0c0-5.6-2.9-10.3-8.2-14.2H67a17.8 17.8 0 0 1 0 28.4c4 1.7 6.3 5.8 6.3 11.6v11.2H62.1V54.4c0-5.6-2.7-9.5-7.5-11.6 5.3-4 8.2-8.6 8.2-14.2Z"/>
</svg>
