<svg xmlns="http://www.w3.org/2000/svg" width="80" height="80" fill="none">
  <path fill="#000" d="M40 0a40 40 0 1 1 0 80 40 40 0 0 1 0-80Z"/>
  <path fill="#fff" d="M17.697 14.788a1.94 1.94 0 0 1 3.733.97v.097l-2.666 9.842a1.952 1.952 0 0 1-3.782-.97v-.048l2.666-9.843v-.048h.049Zm34.085 1.842a1.959 1.959 0 0 1 3.782 1.018v.049l-2.134 7.758-.145-.146a20.776 20.776 0 0 0-3.297-2.036l1.794-6.594v-.049ZM33.067 4.752c1.26-.243 2.472-.437 3.733-.534a1.94 1.94 0 0 1 0 .873l-2.667 9.89a1.952 1.952 0 1 1-3.782-.969v-.048l2.425-9.212h.29Zm27.636 8.194.485-1.94.29.146a39.492 39.492 0 0 1 3.055 2.618l-.048.194a1.952 1.952 0 0 1-3.782-.97v-.049ZM44.848 8l.97-3.49.243.048c1.212.194 2.375.484 3.539.824l-.97 3.636v.049a1.952 1.952 0 1 1-3.782-.97V8Zm-8.145 52.897a1.94 1.94 0 0 1 3.636-.34v.291l.146.485.048.291v.049c.005.08.005.161 0 .242l-.048.049-2.667 9.842v.049a1.952 1.952 0 1 1-3.782-.97v-.097l2.667-9.843v-.048Zm-16.242-11.2c.042-.084.09-.165.145-.242.97.824 2.085 1.6 3.394 2.278l-2.424 8.922v.048a1.952 1.952 0 0 1-3.782-.97v-.097l2.667-9.842v-.097Zm-8.582-10.23a1.952 1.952 0 1 1 3.782.97v.096l-2.667 9.843a1.952 1.952 0 1 1-3.782-.97v-.048l2.667-9.843v-.048Zm59.54-2.28a1.958 1.958 0 1 1 3.781 1.02v.047l-2.667 9.843v.048a1.952 1.952 0 0 1-3.782-.97v-.096l2.667-9.843v-.048ZM4.314 35.83c.485-4.606 1.94-9.066 4.17-13.09l.485.048a1.94 1.94 0 0 1 1.357 2.376l-2.666 9.89a1.94 1.94 0 0 1-3.394.776h.048Zm60.412-11.684a1.94 1.94 0 0 1 3.734.97v.096l-2.667 9.842a1.952 1.952 0 1 1-3.782-.97v-.048l2.667-9.842v-.049h.048ZM25.842 65.697a1.952 1.952 0 0 1 3.782.97v.048l-1.94 7.079-.242-.097a35.884 35.884 0 0 1-3.393-1.455l1.793-6.545Z"/>
  <path fill="#fff" fill-rule="evenodd" d="M38.449 22.642c-11.637 0-20.703 7.322-20.703 16.437 0 8.582 8.339 14.06 21.236 13.818 1.115 0 1.454.727 1.794 1.697.29.824.97 4.654 1.697 8.242l.388 1.988.097.485c.63 3.442 1.309 6.885 1.794 10.327A36.17 36.17 0 0 0 66.666 64.05l-6.06-22.691c-1.552-5.48-3.298-10.522-8-14.206a22.498 22.498 0 0 0-14.158-4.51Zm2.472 6.594a2.521 2.521 0 1 1 .698 4.995 2.521 2.521 0 0 1-.698-4.995Z" clip-rule="evenodd"/>
</svg>
