<svg data-name="Logos" xmlns="http://www.w3.org/2000/svg" viewBox="0 0 80 80"><path d="M70.4 34.8a9.4 9.4 0 1 0-9.3-9.3 9.4 9.4 0 0 0 9.3 9.3zm0-16a6.6 6.6 0 1 1-6.6 6.6 6.6 6.6 0 0 1 6.6-6.6zM21.2 30.4z" fill="#555ba4"/><path d="M77.4 37.9H63.8v-1.4a3.2 3.2 0 0 0-3.2-3.2h-13v-4a9.4 9.4 0 1 0 0-16.6V.7L.2 8.9v62.8l47.4 7.6V67.6h6.1a10.1 10.1 0 0 0 9.3-6.1h7.6a9.6 9.6 0 0 0 9.6-9.7V40.6a2.8 2.8 0 0 0-2.8-2.7zM47.6 26V16a6.6 6.6 0 1 1 0 10zm-12.3 4-8.6.3v24.6h-5.5V30.5l-7.6.2v-4.2l21.7-1zM61 57.5a7.3 7.3 0 0 1-7.4 7.3h-6V36.1h13a.5.5 0 0 1 .4.4zm16.3-5.6a6.9 6.9 0 0 1-6.9 6.8h-6.8a10.2 10.2 0 0 0 .1-1.2V40.6h13.6z" fill="#555ba4"/></svg>
