<svg data-name="Logos" xmlns="http://www.w3.org/2000/svg" viewBox="0 0 80 80"><path d="M34.32 36.49c.48-2 .92-3.84 1.35-5.67Q37 25 38.39 19.23c0-.16.1-.3.13-.46a1.24 1.24 0 0 1 1.27-1.07h2.61c.87 0 1.1.36 1.33 1.31.44 1.82.86 3.63 1.28 5.45q1.37 5.84 2.74 11.67a5 5 0 0 0 .2.62c.31-1.2.59-2.23.86-3.27q1.83-7.11 3.65-14.2c.06-.21.12-.41.19-.61a1.31 1.31 0 0 1 1.35-1h2.45c.66 0 .83.23.76.91a4.87 4.87 0 0 1-.2.92q-3.15 10.15-6.31 20.26a4 4 0 0 1-.15.45c-.33.94-.63 1.17-1.62 1.18H46.8c-1.08 0-1.36-.23-1.63-1.32-.41-1.68-.83-3.37-1.23-5l-2.73-11.48c0-.15-.1-.3-.21-.6-.42 1.75-.81 3.36-1.19 5l-2.86 12c-.29 1.23-.58 1.45-1.85 1.46h-2c-.95 0-1.26-.22-1.55-1.14-.57-1.78-1.11-3.57-1.65-5.35q-2.36-7.77-4.71-15.54c-.53-1.73 0-1.72 1.21-1.67h1.74c1 0 1.36.25 1.63 1.26.41 1.49.77 3 1.15 4.51l3.15 12.38c.06.1.13.26.25.59z" fill="#273140"/><path d="M40.35 65a59.76 59.76 0 0 1-29.12-7.31A57.86 57.86 0 0 1 .55 50.11c-.17-.11-.4-.31-.47-.51a1.22 1.22 0 0 1 0-.8.57.57 0 0 1 .75-.26 2.5 2.5 0 0 1 .64.3 77.34 77.34 0 0 0 15.75 6.8 78.28 78.28 0 0 0 12 2.7 87.27 87.27 0 0 0 9.83.84 75.18 75.18 0 0 0 11.81-.66 78.54 78.54 0 0 0 20-5.38 3.45 3.45 0 0 1 1.06-.22 1 1 0 0 1 1 .62 1 1 0 0 1-.19 1.17 4.12 4.12 0 0 1-.77.67 48.14 48.14 0 0 1-11.54 5.94 58.8 58.8 0 0 1-10.57 2.79c-2 .33-4.07.52-6.11.71-1.37.12-2.69.18-3.39.18z" fill="#fe9902"/><path d="M18.11 28.12a36.64 36.64 0 0 0-.21-3.74c-.33-2-1.14-3.19-3.87-3.56A14.78 14.78 0 0 0 6.63 22a8 8 0 0 1-1 .36c-.47.12-.73-.06-.75-.54v-2.05a1.12 1.12 0 0 1 .84-1A33 33 0 0 1 9 17.6a15.85 15.85 0 0 1 7.89-.12 6.69 6.69 0 0 1 5.33 5.94 18.33 18.33 0 0 1 .18 2.67v6.57c0 1 .06 2.05.14 3.07a7.39 7.39 0 0 0 .9 2.68c.53 1.08.47 1.31-.55 2l-1.05.69c-.93.6-1.32.57-2-.32a19.47 19.47 0 0 1-1.19-1.85 5.64 5.64 0 0 1-.29-.55c-.58.52-1.09 1.06-1.67 1.51A9.67 9.67 0 0 1 8 41.64 6.3 6.3 0 0 1 3.28 36a8.49 8.49 0 0 1 .22-3.21 7.21 7.21 0 0 1 5.26-5 14 14 0 0 1 6.11-.25c1.03.17 2.06.38 3.24.58zm0 3a18.12 18.12 0 0 0-6.59-.49 3.76 3.76 0 0 0-3.59 3.49A6 6 0 0 0 8 35.79a3.1 3.1 0 0 0 2.7 2.61 7.41 7.41 0 0 0 3.87-.47 5 5 0 0 0 3.2-3.16 9.33 9.33 0 0 0 .32-3.62zM67 42.06a15.81 15.81 0 0 1-5.74-1c-2.38-.88-2.16-1.29-2.13-3.35 0-.76.37-1 1.11-.73 1 .32 1.91.73 2.9 1a13.11 13.11 0 0 0 6.1.26 5.73 5.73 0 0 0 1.53-.6 2.84 2.84 0 0 0-.08-5 24.74 24.74 0 0 0-2.94-1.12c-1.16-.4-2.36-.72-3.52-1.14a7.08 7.08 0 0 1-4.17-3.53 6.34 6.34 0 0 1 2.72-8.43 9.5 9.5 0 0 1 4.27-1.3 15.42 15.42 0 0 1 6 .74l.38.12c2.22.85 2 1.45 1.92 3.41 0 .53-.36.73-.88.6-.36-.1-.69-.27-1-.4a12.33 12.33 0 0 0-6.9-.7 4.65 4.65 0 0 0-1.25.44 2.68 2.68 0 0 0-.22 4.68 14.53 14.53 0 0 0 2.73 1.21c1.28.46 2.61.81 3.89 1.28a12 12 0 0 1 2.21 1c3.4 2.05 3.41 6.51 1.62 9a8.12 8.12 0 0 1-4.47 3.06 12.63 12.63 0 0 1-4.08.5z" fill="#273140"/><path d="M65 50a5.75 5.75 0 0 1 .74-.74 12.45 12.45 0 0 1 4.93-2 18.28 18.28 0 0 1 7.22 0c.35.07.7.2 1 .3a1.39 1.39 0 0 1 1.11 1.5 16.33 16.33 0 0 1-1.47 7 14.09 14.09 0 0 1-3.58 5.23c-.35.31-.7.58-1.2.35-.25-.4 0-.76.09-1.12.55-1.53 1.15-3 1.67-4.59a12.41 12.41 0 0 0 .74-3.62c0-1.33-.32-1.78-1.66-2a20.09 20.09 0 0 0-5-.1c-1.23.08-2.46.26-3.69.39-.34-.02-.72.02-.9-.6z" fill="#fe9902"/></svg>