<svg xmlns="http://www.w3.org/2000/svg" viewBox="0 0 80 80"><title>logos</title><rect width="80" height="80" style="fill:#1f293a"/><path d="M14.71,67.22H8V33.57a9,9,0,0,1,2.61-6.71,10.11,10.11,0,0,1,6.78-2.65H27.94A9.21,9.21,0,0,1,35.05,27a9.55,9.55,0,0,1,2.32,6.73V46.42a9.19,9.19,0,0,1-2.73,7,9.75,9.75,0,0,1-6.73,2.42H14.71ZM28.17,49.11a3.12,3.12,0,0,0,1.91-.62,2.82,2.82,0,0,0,.62-2.1v-13a2.91,2.91,0,0,0-.6-1.85,3.11,3.11,0,0,0-2.16-.62H17.34a2.33,2.33,0,0,0-2.63,2.65V49.1ZM65.3,12.78H72V46.46a9,9,0,0,1-2.6,6.7,10.14,10.14,0,0,1-6.78,2.66H52.07A9.26,9.26,0,0,1,45,53a9.6,9.6,0,0,1-2.32-6.73V33.62a9.19,9.19,0,0,1,2.74-7,9.75,9.75,0,0,1,6.73-2.42H65.3ZM51.84,30.9a3.1,3.1,0,0,0-1.91.62,2.83,2.83,0,0,0-.62,2.1v13a3,3,0,0,0,.59,1.86,3.18,3.18,0,0,0,2.17.62h10.6a2.37,2.37,0,0,0,2.65-2.69V30.9Z" style="fill:#42bd00"/></svg>