<svg xmlns="http://www.w3.org/2000/svg" viewBox="0 0 80 80"><defs><style>.b{fill:#fff}</style></defs><path fill="#512bd4" d="M-.02.07h80v80h-80z"/><path class="b" d="M14.24 51.18a2 2 0 01-1.44-.57 1.83 1.83 0 01-.6-1.37 1.89 1.89 0 01.6-1.4 2 2 0 011.44-.58 2.06 2.06 0 011.46.58 1.89 1.89 0 01.6 1.4 1.83 1.83 0 01-.6 1.37 2 2 0 01-1.46.57zM36.85 50.86h-3.68l-9.68-15.28a6.78 6.78 0 01-.61-1.2h-.08a23.06 23.06 0 01.11 2.85v13.63h-3.25V30.07h3.91L32.93 45c.4.62.65 1 .77 1.27a19.52 19.52 0 01-.14-2.79V30.07h3.24zM52.69 50.86H41.31V30.07h10.93V33h-7.57v5.88h7v2.92h-7V48h8zM68.87 33H63v17.86h-3.32V33h-5.82v-2.93h15z"/></svg>