<svg xmlns="http://www.w3.org/2000/svg" xmlns:xlink="http://www.w3.org/1999/xlink" viewBox="0 0 80 80"><defs><linearGradient id="a" x1="37.9" y1="449.8" x2="21.4" y2="433.3" gradientTransform="matrix(1 0 0 -1 0 466)" gradientUnits="userSpaceOnUse"><stop offset=".2" stop-color="#0052cc"/><stop offset="1" stop-color="#2684ff"/></linearGradient><linearGradient id="b" x1="42.3" y1="402.4" x2="58.7" y2="418.8" xlink:href="#a"/></defs><path d="M78 38 43 3l-3-3-26 26L2 38a3 3 0 0 0 0 4l24 24 14 14 26-26 12-12a3 3 0 0 0 0-4zM40 52 28 40l12-12 12 12z" fill="#2684ff"/><path d="M40 28a20 20 0 0 1 0-28L14 26l14 14z" fill="url(#a)"/><path d="M52 40 40 52a20 20 0 0 1 0 28l26-26z" fill="url(#b)"/></svg>
