<svg version="1.1" id="Layer_1" xmlns="http://www.w3.org/2000/svg" xmlns:xlink="http://www.w3.org/1999/xlink" x="0px" y="0px"
	 width="100%" viewBox="0 0 252 245" enable-background="new 0 0 252 245" xml:space="preserve">
<path fill="#D97757" opacity="1.000000" stroke="none" 
	d="
M125.000000,246.000000 
	C83.333336,246.000000 42.166672,246.000000 1.000005,246.000000 
	C1.000004,164.333344 1.000004,82.666679 1.000002,1.000016 
	C84.999992,1.000011 168.999985,1.000011 252.999969,1.000005 
	C252.999985,82.666649 252.999985,164.333298 253.000000,245.999969 
	C210.500000,246.000000 168.000000,246.000000 125.000000,246.000000 
M115.898064,140.858536 
	C116.037109,141.008377 116.176147,141.158218 116.043083,141.922714 
	C106.879112,153.760483 97.623848,165.530106 88.671043,177.525482 
	C87.596870,178.964706 87.216415,182.428940 88.169373,183.558990 
	C90.132286,185.886703 92.899956,185.220337 95.006119,182.792969 
	C99.468597,177.649872 104.221840,172.739044 108.416878,167.388763 
	C114.230942,159.973618 119.641235,152.241867 125.224419,144.645691 
	C124.954132,151.786728 123.878990,158.587555 122.577629,165.344803 
	C121.257668,172.198593 119.685669,179.003479 118.279251,185.841141 
	C117.404610,190.093384 119.919708,195.019623 123.186234,195.631332 
	C126.592079,196.269135 129.490204,192.715302 129.957230,187.516464 
	C130.999008,175.919571 132.086441,164.326630 133.209854,152.737381 
	C133.323364,151.566528 133.809341,150.431778 134.398056,148.266815 
	C136.058029,151.016342 137.088165,152.867218 138.253540,154.628586 
	C144.216660,163.641342 150.226898,172.622894 156.193253,181.633499 
	C158.088898,184.496368 160.502304,185.538406 163.874466,184.376495 
	C167.870651,182.999588 166.649170,179.949860 166.137512,177.307037 
	C165.803848,175.583618 165.022934,173.848694 164.066269,172.360733 
	C159.569077,165.365860 154.941742,158.454636 150.864700,151.082169 
	C151.028473,150.933624 151.192230,150.785065 151.966919,150.916046 
	C160.638840,157.920837 169.259109,164.991852 178.048523,171.845993 
	C179.137955,172.695541 181.126526,172.392105 182.698456,172.622940 
	C182.718704,170.775497 183.147507,168.800888 182.624985,167.122406 
	C182.233810,165.865891 180.640549,164.965363 179.542038,163.950134 
	C170.740494,155.815750 161.919678,147.702164 153.134567,139.550110 
	C152.150223,138.636688 151.351486,137.523224 149.802551,135.736389 
	C151.901276,136.027451 152.883469,136.083755 153.826294,136.306595 
	C165.313965,139.021729 176.794769,141.765976 188.279938,144.491791 
	C191.689041,145.300888 199.012238,142.577576 198.426910,140.561996 
	C197.576080,137.632111 195.144348,134.927704 192.802017,132.758591 
	C191.543854,131.593475 189.082657,131.485291 187.133377,131.351791 
	C179.833252,130.851822 172.520004,130.545044 165.212418,130.151947 
	C160.790009,129.914062 156.368988,129.650589 151.947342,129.398590 
	C153.609711,127.878883 155.306778,127.373970 157.030258,126.986511 
	C169.195679,124.251610 181.355423,121.489418 193.542755,118.855240 
	C196.974548,118.113510 198.715500,115.612968 198.007507,112.846855 
	C197.573288,111.150406 194.577484,109.936775 192.530472,108.906860 
	C191.651672,108.464714 190.244064,108.949692 189.105896,109.166573 
	C179.633591,110.971481 170.170532,112.824814 160.698471,114.630989 
	C158.888351,114.976158 157.050934,115.178085 153.785782,115.657646 
	C156.561050,111.081818 158.284912,107.685905 160.518967,104.667641 
	C165.666412,97.713379 171.391342,91.163185 176.192978,83.987968 
	C178.093140,81.148537 179.711990,76.574860 178.758392,73.680550 
	C176.490860,66.798103 170.907486,65.919434 165.751358,71.223732 
	C160.310898,76.820534 155.386063,82.922516 150.301010,88.859505 
	C146.536865,93.254280 142.876862,97.738258 138.767365,101.837036 
	C138.628769,101.726990 138.490189,101.616943 138.355560,100.684135 
	C140.489548,89.065552 142.689850,77.458603 144.730713,65.823685 
	C145.817825,59.626091 143.917297,55.355072 140.135162,54.769489 
	C136.712097,54.239506 133.052139,58.411133 132.319153,64.164864 
	C131.667465,69.280380 131.458115,74.450592 130.952087,79.586670 
	C130.082260,88.415009 129.133499,97.235573 128.094925,107.244255 
	C120.010429,89.967461 112.407730,73.930504 105.029045,57.791130 
	C103.366035,54.153610 100.941658,52.521290 97.073769,52.084507 
	C93.299103,51.658245 91.776917,54.077732 90.004021,56.548935 
	C86.738724,61.100410 89.047661,65.188194 91.201027,69.059883 
	C97.105789,79.676476 103.259430,90.154488 109.282242,100.705811 
	C109.966011,101.903694 110.444016,103.219048 111.017433,104.479927 
	C108.992668,104.126312 107.659821,103.254967 106.392693,102.296715 
	C96.962227,95.165039 87.590393,87.954773 78.101837,80.901451 
	C74.052040,77.891029 70.260262,78.320343 67.580597,81.689644 
	C65.438889,84.382538 66.170906,89.014427 69.268913,91.925224 
	C70.111809,92.717194 71.099228,93.364876 72.060440,94.019920 
	C84.027916,102.175323 96.008301,110.311798 107.968407,118.477974 
	C109.375084,119.438423 110.680702,120.546883 113.037834,122.359161 
	C110.714394,122.540428 109.785873,122.743187 108.882492,122.662941 
	C100.926765,121.956116 92.983353,121.097054 85.020782,120.484734 
	C76.721268,119.846504 68.408684,119.309288 60.091663,119.029701 
	C58.551506,118.977921 56.085335,120.022453 55.642357,121.174568 
	C55.193699,122.341461 56.291714,125.002594 57.481468,125.703445 
	C59.634365,126.971642 62.333458,127.759056 64.849358,127.890862 
	C79.317810,128.648819 93.799973,129.142807 108.275543,129.771027 
	C109.454430,129.822189 110.618759,130.208496 113.139046,130.704727 
	C110.473862,132.387665 109.013268,133.402298 107.469528,134.268829 
	C100.648361,138.097610 93.720016,141.743393 86.994743,145.732391 
	C82.136269,148.614136 77.321648,151.665237 72.936661,155.198303 
	C71.390785,156.443848 70.287979,159.529053 70.681877,161.420486 
	C70.927856,162.601700 74.378815,163.834610 76.338066,163.753387 
	C78.658089,163.657257 81.137405,162.515579 83.171707,161.231476 
	C94.010437,154.389664 104.731522,147.361511 115.898064,140.858536 
z"/>
<path fill="#F9F7F2" opacity="1.000000" stroke="none" 
	d="
M139.170471,102.182495 
	C142.876862,97.738258 146.536865,93.254280 150.301010,88.859505 
	C155.386063,82.922516 160.310898,76.820534 165.751358,71.223732 
	C170.907486,65.919434 176.490860,66.798103 178.758392,73.680550 
	C179.711990,76.574860 178.093140,81.148537 176.192978,83.987968 
	C171.391342,91.163185 165.666412,97.713379 160.518967,104.667641 
	C158.284912,107.685905 156.561050,111.081818 153.785782,115.657646 
	C157.050934,115.178085 158.888351,114.976158 160.698471,114.630989 
	C170.170532,112.824814 179.633591,110.971481 189.105896,109.166573 
	C190.244064,108.949692 191.651672,108.464714 192.530472,108.906860 
	C194.577484,109.936775 197.573288,111.150406 198.007507,112.846855 
	C198.715500,115.612968 196.974548,118.113510 193.542755,118.855240 
	C181.355423,121.489418 169.195679,124.251610 157.030258,126.986511 
	C155.306778,127.373970 153.609711,127.878883 151.947342,129.398590 
	C156.368988,129.650589 160.790009,129.914062 165.212418,130.151947 
	C172.520004,130.545044 179.833252,130.851822 187.133377,131.351791 
	C189.082657,131.485291 191.543854,131.593475 192.802017,132.758591 
	C195.144348,134.927704 197.576080,137.632111 198.426910,140.561996 
	C199.012238,142.577576 191.689041,145.300888 188.279938,144.491791 
	C176.794769,141.765976 165.313965,139.021729 153.826294,136.306595 
	C152.883469,136.083755 151.901276,136.027451 149.802551,135.736389 
	C151.351486,137.523224 152.150223,138.636688 153.134567,139.550110 
	C161.919678,147.702164 170.740494,155.815750 179.542038,163.950134 
	C180.640549,164.965363 182.233810,165.865891 182.624985,167.122406 
	C183.147507,168.800888 182.718704,170.775497 182.698456,172.622955 
	C181.126526,172.392105 179.137955,172.695541 178.048523,171.845993 
	C169.259109,164.991852 160.638840,157.920837 151.466217,150.569061 
	C150.763962,150.652573 150.562408,151.083069 150.360855,151.513565 
	C154.941742,158.454636 159.569077,165.365860 164.066269,172.360733 
	C165.022934,173.848694 165.803848,175.583618 166.137512,177.307037 
	C166.649170,179.949860 167.870651,182.999588 163.874466,184.376495 
	C160.502304,185.538406 158.088898,184.496368 156.193253,181.633499 
	C150.226898,172.622894 144.216660,163.641342 138.253540,154.628586 
	C137.088165,152.867218 136.058029,151.016342 134.398056,148.266815 
	C133.809341,150.431778 133.323364,151.566528 133.209854,152.737381 
	C132.086441,164.326630 130.999008,175.919571 129.957230,187.516464 
	C129.490204,192.715302 126.592079,196.269135 123.186234,195.631332 
	C119.919708,195.019623 117.404610,190.093384 118.279251,185.841141 
	C119.685669,179.003479 121.257668,172.198593 122.577629,165.344803 
	C123.878990,158.587555 124.954132,151.786728 125.224419,144.645691 
	C119.641235,152.241867 114.230942,159.973618 108.416878,167.388763 
	C104.221840,172.739044 99.468597,177.649872 95.006119,182.792969 
	C92.899956,185.220337 90.132286,185.886703 88.169373,183.558990 
	C87.216415,182.428940 87.596870,178.964706 88.671043,177.525482 
	C97.623848,165.530106 106.879112,153.760483 116.390045,141.440643 
	C116.322441,140.771667 115.907883,140.584763 115.493317,140.397842 
	C104.731522,147.361511 94.010437,154.389664 83.171707,161.231476 
	C81.137405,162.515579 78.658089,163.657257 76.338066,163.753387 
	C74.378815,163.834610 70.927856,162.601700 70.681877,161.420486 
	C70.287979,159.529053 71.390785,156.443848 72.936661,155.198303 
	C77.321648,151.665237 82.136269,148.614136 86.994743,145.732391 
	C93.720016,141.743393 100.648361,138.097610 107.469528,134.268829 
	C109.013268,133.402298 110.473862,132.387665 113.139046,130.704727 
	C110.618759,130.208496 109.454430,129.822189 108.275543,129.771027 
	C93.799973,129.142807 79.317810,128.648819 64.849358,127.890862 
	C62.333458,127.759056 59.634365,126.971642 57.481468,125.703445 
	C56.291714,125.002594 55.193699,122.341461 55.642357,121.174568 
	C56.085335,120.022453 58.551506,118.977921 60.091663,119.029701 
	C68.408684,119.309288 76.721268,119.846504 85.020782,120.484734 
	C92.983353,121.097054 100.926765,121.956116 108.882492,122.662941 
	C109.785873,122.743187 110.714394,122.540428 113.037834,122.359161 
	C110.680702,120.546883 109.375084,119.438423 107.968407,118.477974 
	C96.008301,110.311798 84.027916,102.175323 72.060440,94.019920 
	C71.099228,93.364876 70.111809,92.717194 69.268913,91.925224 
	C66.170906,89.014427 65.438889,84.382538 67.580597,81.689644 
	C70.260262,78.320343 74.052040,77.891029 78.101837,80.901451 
	C87.590393,87.954773 96.962227,95.165039 106.392693,102.296715 
	C107.659821,103.254967 108.992668,104.126312 111.017433,104.479927 
	C110.444016,103.219048 109.966011,101.903694 109.282242,100.705811 
	C103.259430,90.154488 97.105789,79.676476 91.201027,69.059883 
	C89.047661,65.188194 86.738724,61.100410 90.004021,56.548935 
	C91.776917,54.077732 93.299103,51.658245 97.073769,52.084507 
	C100.941658,52.521290 103.366035,54.153610 105.029045,57.791130 
	C112.407730,73.930504 120.010429,89.967461 128.094925,107.244255 
	C129.133499,97.235573 130.082260,88.415009 130.952087,79.586670 
	C131.458115,74.450592 131.667465,69.280380 132.319153,64.164864 
	C133.052139,58.411133 136.712097,54.239506 140.135162,54.769489 
	C143.917297,55.355072 145.817825,59.626091 144.730713,65.823685 
	C142.689850,77.458603 140.489548,89.065552 138.298462,101.284760 
	C138.551071,101.984421 138.860764,102.083458 139.170471,102.182495 
z"/>
<path fill="#D97757" opacity="1.000000" stroke="none" 
	d="
M138.968918,102.009766 
	C138.860764,102.083458 138.551071,101.984421 138.296478,101.696136 
	C138.490189,101.616943 138.628769,101.726990 138.968918,102.009766 
z"/>
<path fill="#D97757" opacity="1.000000" stroke="none" 
	d="
M115.695694,140.628189 
	C115.907883,140.584763 116.322441,140.771667 116.526093,141.133331 
	C116.176147,141.158218 116.037109,141.008377 115.695694,140.628189 
z"/>
<path fill="#D97757" opacity="1.000000" stroke="none" 
	d="
M150.612778,151.297867 
	C150.562408,151.083069 150.763962,150.652573 151.160767,150.429291 
	C151.192230,150.785065 151.028473,150.933624 150.612778,151.297867 
z"/>
</svg>