<svg xmlns="http://www.w3.org/2000/svg" viewBox="0 0 80 80"><path d="M68.3 68.5a40 40 0 0 1-56.6-56.6z" fill="#6d429c"/><path d="M68.3 68.5a40 40 0 0 0-56.6-56.6z" fill="#5c2d91"/><path d="M32.7 30.5v-6.7h2.6v22.7h-3a.4.4 0 0 1-.4-.2L20.4 28.4l-.7-1.3-.1-.2a1.9 1.9 0 0 0 0 .2V46.5H17V23.7h3.1a.5.5 0 0 1 .5.3l9 14 3 5a.1.1 0 0 0 .2 0v-.3l-.1-3.1v-8.9a.7.7 0 0 1 0-.2zm8.5 8.6V23.7h11.6v2.4H44v7.6h8.2V36H44V44h9.4v2.5H41.3v-7.4zM56 59h-5.3v.6a2.2 2.2 0 0 0 2.3 2 3.9 3.9 0 0 0 2.4-.9v1l-.2.2a3.5 3.5 0 0 1-1.6.6 7.1 7.1 0 0 1-1.6 0 2.8 2.8 0 0 1-2-1.5 4.7 4.7 0 0 1-.1-4.2 3.2 3.2 0 0 1 3.3-2 2.7 2.7 0 0 1 2.4 1.5 4.2 4.2 0 0 1 .4 1.8v.9zm-5.3-1h4a2.3 2.3 0 0 0-.3-1.4 1.6 1.6 0 0 0-1-.7 2.2 2.2 0 0 0-2.7 2.1zM34 61v1l-.3.2a6.5 6.5 0 0 1-3.1.4 4.5 4.5 0 0 1-2.9-1.2 4.6 4.6 0 0 1-1.3-2.2 6 6 0 0 1 .3-4.3 5 5 0 0 1 4.7-3 6.7 6.7 0 0 1 2.3.3l.3.1v1.2h-.3a4.9 4.9 0 0 0-3.1-.5 3.8 3.8 0 0 0-3 2.8 4.8 4.8 0 0 0 .6 4.3 3.3 3.3 0 0 0 2.7 1.5 5.3 5.3 0 0 0 3-.6zm8.8-2.4a4 4 0 0 1-1 2.8 3.3 3.3 0 0 1-2.3 1.2 3.6 3.6 0 0 1-2.6-.7 3.5 3.5 0 0 1-1.4-2.2 4.7 4.7 0 0 1 .3-2.8 3.4 3.4 0 0 1 3-2.1 4 4 0 0 1 1.7.1 3.3 3.3 0 0 1 2.2 2.7 7.3 7.3 0 0 1 .1 1zm-1.2.2v-.5a3 3 0 0 0-.8-2 2.4 2.4 0 0 0-3.6.6 3.6 3.6 0 0 0-.2 3.2 2.4 2.4 0 0 0 3 1.4 2 2 0 0 0 1.2-1 3.3 3.3 0 0 0 .4-1.7zm4.4 3.7h-1.2V55h1.2v1.3a2.3 2.3 0 0 1 1.5-1.4 2 2 0 0 1 1.2 0v1.2h-.3a1.6 1.6 0 0 0-1.9.5 3.4 3.4 0 0 0-.5 1.9V62zM12.3 45a1.8 1.8 0 1 1-3.6 0 1.8 1.8 0 1 1 3.6 0zM62 26h-6.6v-2.4h15.8v2.4h-6.6v20.4H62z" style="fill:#fefefe"/></svg>
