<svg width="80" height="80" fill="none" xmlns="http://www.w3.org/2000/svg"><path d="M74 55.875V19.958L42.977 2v13.776l12.155 7.037a.688.688 0 0 1 0 1.18l-14.45 8.363a1.353 1.353 0 0 1-1.361 0l-14.45-8.363a.683.683 0 0 1-.247-.93.684.684 0 0 1 .246-.25l12.155-7.037V2L6 19.958v35.917l11.899-6.888V34.914a.69.69 0 0 1 .68-.676c.12 0 .236.03.34.087l14.45 8.365a1.366 1.366 0 0 1 .68 1.183v16.725a.686.686 0 0 1-1.014.594l-12.158-7.046-11.901 6.888L40.001 79l31.026-17.958-11.902-6.896-12.155 7.038a.685.685 0 0 1-1.02-.594V43.87a1.362 1.362 0 0 1 .684-1.18l14.453-8.365a.682.682 0 0 1 1.02.592v14.07L74 55.875Z" fill="#4C4C4C"/><path d="m40 79 31.022-17.946-11.9-6.89-12.154 7.032a.684.684 0 0 1-1.02-.593V43.895a1.36 1.36 0 0 1 .684-1.179l14.451-8.36a.682.682 0 0 1 1.02.592v14.06L74 55.891V20L40 39.668V79Z" fill="#000"/><path d="M42.977 2v13.908l12.155 7.105a.69.69 0 0 1 .334.595.7.7 0 0 1-.334.596l-14.45 8.445a1.349 1.349 0 0 1-1.361 0l-14.45-8.442a.687.687 0 0 1-.337-.596.698.698 0 0 1 .336-.596l12.155-7.105V2L6 20.13 40.001 40 74 20.13 42.977 2Z" fill="gray"/><path d="m33.037 61.204-12.16-7.04-11.901 6.883L40 79V39.668L6 20v35.891l11.898-6.883V34.945a.688.688 0 0 1 1.02-.588l14.45 8.359a1.365 1.365 0 0 1 .68 1.182V60.61a.686.686 0 0 1-.673.677.682.682 0 0 1-.338-.084Z" fill="#4C4C4C"/></svg>