<svg xmlns="http://www.w3.org/2000/svg" fill="none" viewBox="0 0 80 80">
    <path fill="#623697" d="M40 .2a40 40 0 0 1 28.3 68.3 40 40 0 0 1-56.6-56.6A40 40 0 0 1 40 .2Z"/>
    <path fill="#FEFEFE" d="M32.7 30.5v-6.7h2.6v22.7h-3a.4.4 0 0 1-.4-.2L20.4 28.4l-.7-1.3-.1-.2v.2l.1 2.6v16.8H17V23.8h3.1a.5.5 0 0 1 .5.2l9 14 3 5a.1.1 0 0 0 .2 0v-.3l-.1-3.1v-9.1Zm8.6 8.6V23.7h11.5v2.4H44v7.6h8.2V36H44v8h9.4v2.5H41.3v-7.4Zm-29 6a1.8 1.8 0 1 1-3.5 0 1.8 1.8 0 1 1 3.5 0ZM62 26h-6.6v-2.3h15.8V26h-6.6v20.4H62V26.1Z"/>
    <path fill="#F2F2F2" d="M11 51.8v3.5h3.3v.5h-3.2V60h-.6v-8.7h4v.5h-3.4Zm8.4 2.5a1 1 0 0 0-.6-.2 1.5 1.5 0 0 0-1.3.8A4 4 0 0 0 17 57v3h-.6v-6.3h.6v1.4c.1-.4.3-.8.7-1.1.3-.3.7-.4 1-.4l.7.1v.6Zm5.2 5.7v-1.3c-.2.4-.5.8-.8 1a2 2 0 0 1-1.3.4 2 2 0 0 1-1.4-.5 1.7 1.7 0 0 1-.5-1.2c0-1.1.7-1.8 2.1-2l2-.3c0-1.4-.5-2-1.6-2a3 3 0 0 0-2 .8v-.7a3 3 0 0 1 1-.5l1-.2a1.9 1.9 0 0 1 1.5.6c.4.5.6 1.1.5 1.8V60h-.5ZM23 56.9a3 3 0 0 0-1.4.4 1.3 1.3 0 0 0 1 2.3A2 2 0 0 0 24 59a2 2 0 0 0 .6-1.7v-.7L23 57ZM35.2 60v-3.8c0-.6 0-1.1-.4-1.6a1.4 1.4 0 0 0-1.1-.5 1.6 1.6 0 0 0-1.3.6 3 3 0 0 0-.5 1.6V60h-.6v-3.8c0-1.4-.5-2-1.6-2a1.6 1.6 0 0 0-1.2.6c-.4.5-.5 1-.5 1.6V60h-.6v-6.2h.6v1a2 2 0 0 1 2-1.3 2 2 0 0 1 1.8 1.4c.1-.4.4-.7.8-1a2 2 0 0 1 1.2-.3c1.3 0 2 .8 2 2.5V60h-.6Zm3-3.1c-.1.7.1 1.4.5 2a2 2 0 0 0 1.7.7c.7 0 1.4-.3 2-.8v.6a3.6 3.6 0 0 1-3.3.5c-.4-.1-.7-.4-1-.7-.5-.7-.7-1.6-.7-2.5 0-.8.3-1.6.8-2.3a2.5 2.5 0 0 1 2-.9 2.1 2.1 0 0 1 1.8.8c.5.7.7 1.5.6 2.3v.2h-4.5Zm4-.5c0-.6-.3-1.2-.6-1.7a1.6 1.6 0 0 0-1.3-.7 2 2 0 0 0-1.4.6c-.5.5-.7 1-.8 1.7h4Zm7.7 3.6h-.5L48 55.3l-.1-.5-.1.5-1.5 4.7h-.5l-2-6.2h.7l1.4 5 .1.5.1-.5 1.6-5h.4l1.4 5 .1.5.1-.5 1.5-5h.6L49.9 60Zm6 .1a2.7 2.7 0 0 1-2.2-.9 3.9 3.9 0 0 1 0-4.7 2.9 2.9 0 0 1 2.2-1 2.6 2.6 0 0 1 2.1 1c.6.6.9 1.5.8 2.4 0 .8-.2 1.7-.8 2.3a2.7 2.7 0 0 1-2.1 1Zm0-6a2.3 2.3 0 0 0-1.8.8 3 3 0 0 0-.6 2c0 .8.2 1.5.6 2a2.2 2.2 0 0 0 1.8.8 2.2 2.2 0 0 0 1.7-.7 3.8 3.8 0 0 0 0-4.1 2.1 2.1 0 0 0-1.7-.9v.1Zm7.8.2a1 1 0 0 0-.7-.2 1.5 1.5 0 0 0-1.3.8 4 4 0 0 0-.5 2.1v3h-.5v-6.3h.6v1.4c0-.4.3-.8.7-1.1.3-.3.7-.4 1-.4l.7.1v.6Zm5 5.7-3-3v3h-.5v-9.3h.5v6l2.9-3h.7l-3 3 3.2 3.3h-.8Z"/>
</svg>
