<svg xmlns="http://www.w3.org/2000/svg" xmlns:xlink="http://www.w3.org/1999/xlink" width="110.421" height="109.846" version="1.0"><defs><linearGradient id="a"><stop offset="0" stop-color="#ffe052"/><stop offset="1" stop-color="#ffc331"/></linearGradient><linearGradient gradientUnits="userSpaceOnUse" y2="168.101" x2="147.777" y1="111.921" x1="89.137" id="d" xlink:href="#a"/><linearGradient id="b"><stop offset="0" stop-color="#387eb8"/><stop offset="1" stop-color="#366994"/></linearGradient><linearGradient gradientUnits="userSpaceOnUse" y2="131.853" x2="110.149" y1="77.07" x1="55.549" id="c" xlink:href="#b"/></defs><g color="#000"><path style="marker:none" d="M99.75 67.469c-28.032 0-26.281 12.156-26.281 12.156l.031 12.594h26.75V96H62.875s-17.938-2.034-17.938 26.25 15.657 27.281 15.657 27.281h9.343v-13.125s-.503-15.656 15.407-15.656h26.531s14.906.241 14.906-14.406V82.125s2.263-14.656-27.031-14.656zM85 75.938c2.661 0 4.813 2.15 4.813 4.812S87.66 85.563 85 85.563s-4.813-2.152-4.813-4.813S82.34 75.937 85 75.937z" fill="url(#c)" overflow="visible" transform="translate(-44.938 -67.469)"/><path d="M100.546 177.315c28.032 0 26.281-12.156 26.281-12.156l-.03-12.594h-26.75v-3.781h37.374s17.938 2.034 17.938-26.25c0-28.285-15.657-27.282-15.657-27.282h-9.343v13.125s.503 15.657-15.407 15.657h-26.53s-14.907-.241-14.907 14.406v24.219s-2.263 14.656 27.031 14.656zm14.75-8.469c-2.661 0-4.812-2.151-4.812-4.812s2.15-4.813 4.812-4.813 4.813 2.151 4.813 4.813a4.808 4.808 0 0 1-4.813 4.812z" style="marker:none" fill="url(#d)" overflow="visible" transform="translate(-44.938 -67.469)"/></g></svg>