<svg viewBox="0 0 80 80" xmlns="http://www.w3.org/2000/svg"><path d="M42 .51a4.04 4.04 0 0 0-3.9 0L5.92 18.6A3.7 3.7 0 0 0 4 21.87v36.25c0 1.34.76 2.6 1.91 3.27l32.2 18.09c1.22.67 2.67.67 3.9 0L74.2 61.39a3.7 3.7 0 0 0 1.91-3.27V21.87c0-1.34-.76-2.6-1.91-3.27L42 .5Z" fill="url(#a)"/><path d="M74.27 18.6 41.93.52c-.3-.15-.69-.3-1-.38L4.7 60.5a4 4 0 0 0 1.07.9L38.1 79.47c.91.52 1.98.67 2.98.37l34.03-60.58c-.23-.3-.54-.52-.85-.67Z" fill="url(#b)"/><path d="M74.28 61.4a4.25 4.25 0 0 0 1.9-2.4L40.79.08a3.97 3.97 0 0 0-2.75.44L5.91 18.52 40.55 80c.46-.08 1-.23 1.46-.45l32.27-18.16Z" fill="url(#c)"/><linearGradient id="a" x1="53.17" y1="13.98" x2="25.31" y2="72.37" gradientUnits="userSpaceOnUse"><stop stop-color="#3F873F"/><stop offset=".33" stop-color="#3F8B3D"/><stop offset=".64" stop-color="#3E9638"/><stop offset=".93" stop-color="#3DA92E"/><stop offset="1" stop-color="#3DAE2B"/></linearGradient><linearGradient id="b" x1="35.16" y1="44.23" x2="115.26" y2="-16.58" gradientUnits="userSpaceOnUse"><stop offset=".14" stop-color="#3F873F"/><stop offset=".4" stop-color="#52A044"/><stop offset=".71" stop-color="#64B749"/><stop offset=".91" stop-color="#6ABF4B"/></linearGradient><linearGradient id="c" x1="2.82" y1="39.98" x2="77.31" y2="39.98" gradientUnits="userSpaceOnUse"><stop offset=".09" stop-color="#6ABF4B"/><stop offset=".29" stop-color="#64B749"/><stop offset=".6" stop-color="#52A044"/><stop offset=".86" stop-color="#3F873F"/></linearGradient></svg>
