<svg xmlns="http://www.w3.org/2000/svg" fill="none" viewBox="0 0 80 80">
  <path fill="#E01E5A" d="M21.4603 48.33c0 3.708-2.9968 6.705-6.7048 6.705-3.708 0-6.7047-2.997-6.7047-6.705 0-3.7078 2.9967-6.7045 6.705-6.7045H21.46l.0003 6.7045Zm3.3524 0c0-3.7078 2.9968-6.7045 6.7048-6.7045 3.708 0 6.7047 2.9967 6.7047 6.7047V65.092c0 3.708-2.9967 6.705-6.7049 6.705-3.7076 0-6.7046-2.997-6.7046-6.705V48.33Z"/>
  <path fill="#36C5F0" d="M31.5175 21.4095c-3.708 0-6.705-2.9967-6.705-6.7047 0-3.708 2.9972-6.7048 6.705-6.7048s6.7047 2.9968 6.7047 6.7048v6.7049l-6.7047-.0002Zm0 3.4032c3.708 0 6.7047 2.9968 6.7047 6.7048 0 3.708-2.9967 6.7047-6.7049 6.7047H14.705c-3.7083 0-6.705-2.9967-6.705-6.7049 0-3.7076 2.9968-6.7046 6.7048-6.7046h16.8127Z"/>
  <path fill="#2EB67D" d="M58.3875 31.5175c0-3.708 2.9968-6.705 6.7045-6.705 3.7078 0 6.705 2.997 6.705 6.705s-2.997 6.7047-6.705 6.7047h-6.7045v-6.7047Zm-3.3525 0c0 3.708-2.997 6.7047-6.705 6.7047-3.7077 0-6.7045-2.9967-6.7045-6.7049V14.705C41.6255 10.9967 44.6223 8 48.33 8c3.7078 0 6.7048 2.9968 6.7048 6.7048l.0002 16.8127Z"/>
  <path fill="#ECB22E" d="M48.33 58.3875c3.708 0 6.705 2.9967 6.705 6.7045 0 3.7077-2.997 6.705-6.705 6.705-3.7077 0-6.7045-2.997-6.7045-6.705v-6.7045H48.33Zm0-3.3525c-3.7077 0-6.7045-2.997-6.7045-6.705 0-3.7078 2.9968-6.7045 6.7048-6.7045h16.8125c3.708 0 6.705 2.9967 6.705 6.7047 0 3.708-2.997 6.7048-6.705 6.7048H48.33Z"/>
</svg>
