<svg xmlns="http://www.w3.org/2000/svg" viewBox="0 0 80 80"><path d="M61.5 80h-43A18.4 18.4 0 0 1 0 61.6V18.5A18.4 18.4 0 0 1 18.4 0h43.1A18.4 18.4 0 0 1 80 18.5v43A18.4 18.4 0 0 1 61.5 80zM23 30.3a4.7 4.7 0 0 0 4.2-2 6.2 6.2 0 0 0 1.5-4.6 6 6 0 0 0-4.4 2.5 5.4 5.4 0 0 0-1.3 4zm-4.7.4c-3.3 0-6.8 3-6.8 8.7s4.2 13.1 7.5 13.1c1.1 0 2.9-1.2 4.7-1.2s3 1.2 4.6 1.2c3.6 0 6.3-7.7 6.3-7.7a6.4 6.4 0 0 1-3.8-5.9 6.3 6.3 0 0 1 3-5.4 6.3 6.3 0 0 0-5.5-3c-2.3 0-4 1.4-5 1.4-1.2 0-2.8-1.2-5-1.2zM46.5 52a6.9 6.9 0 0 0 2.3-1.3l-1.4-2.1a1.4 1.4 0 0 0-.3-.3.5.5 0 0 0-.3-.1.7.7 0 0 0-.3 0l-.4.3a2.9 2.9 0 0 1-.5.2 2 2 0 0 1-.7 0 1.5 1.5 0 0 1-1.2-.4 2 2 0 0 1-.4-1.4V37h5v-3.3h-5v-5.9H41a1.1 1.1 0 0 0-.7.2 1 1 0 0 0-.3.6l-1 5.1-3 .5V36a1 1 0 0 0 .3.7 1 1 0 0 0 .6.2h1.9v10.4a5.3 5.3 0 0 0 1.3 3.8 5 5 0 0 0 3.7 1.4 8.4 8.4 0 0 0 2.7-.4zm22-18.5H65a1.3 1.3 0 0 0-.8.2 1.2 1.2 0 0 0-.4.6l-3.7 10a15.7 15.7 0 0 0-.6 1.7l-.3 1.7a33.7 33.7 0 0 0-1-3.4l-3.5-10a1.1 1.1 0 0 0-.5-.6 1.4 1.4 0 0 0-.8-.2h-3.7L57 52.2h4z" fill="#9386a0" fill-rule="evenodd"/></svg>
