<svg xmlns="http://www.w3.org/2000/svg" viewBox="0 0 80 80"><path d="M75.61 21.77A40 40 0 0140 80h-2v-.16l16.42-28.27A18.48 18.48 0 0056.14 31l19.33-9.11z" fill="#b0ccfc"/><path d="M75.61 21.77l-.14.08-32.53-.13A19 19 0 0040 21.5a18.49 18.49 0 00-15.9 9L6.54 18.34l-.12-.08a40 40 0 0169.19 3.51z" fill="#275aaf"/><path d="M75.47 21.85L56.14 31a18.54 18.54 0 00-13.2-9.23z" fill="#a7bee6"/><path d="M56.14 31A18.52 18.52 0 0140 58.49h-.25a18.49 18.49 0 01.25-37 19 19 0 012.94.23A18.54 18.54 0 0156.14 31zm-1.79 9A14.36 14.36 0 1040 54.35 14.36 14.36 0 0054.35 40z" fill="#fff"/><path d="M54.42 51.57L38 79.79l1.78-21.3H40a18.38 18.38 0 0014.41-6.93z" fill="#3375e6"/><path d="M40 25.64A14.36 14.36 0 1125.64 40 14.36 14.36 0 0140 25.64z" fill="#377eef"/><path d="M39.75 58.48L38 79.79V80A40 40 0 016.42 18.26l.12.08 16.2 28.34a18.49 18.49 0 0017.01 11.8z" fill="#548ded"/><path d="M6.54 18.34L24.1 30.53a18.57 18.57 0 00-1.36 16.15z" fill="#20498d"/></svg>