<svg id="afbaab25-824e-4a19-a0f7-f9834c608507" data-name="Logos" xmlns="http://www.w3.org/2000/svg" viewBox="0 0 80 80"><title>logos</title><path d="M76.42,28.11a30,30,0,0,0-8.86-8.74C60.31,14.59,50.79,12,40.75,12a55.49,55.49,0,0,0-9.87.87,33,33,0,0,0-6.78-5A26.37,26.37,0,0,0,0,7.65s10.15,8.62,8.5,16.18a23,23,0,0,0-7,16.11,23.08,23.08,0,0,0,7,16.23C10.16,63.73,0,72.35,0,72.35a26.37,26.37,0,0,0,24.09-.16,32.65,32.65,0,0,0,6.78-5,55.49,55.49,0,0,0,9.87.87c10,0,19.56-2.63,26.81-7.41a30,30,0,0,0,8.86-8.74,21.58,21.58,0,0,0,0-23.78ZM40.86,60.6A47,47,0,0,1,28.62,59l-2.76,2.66a25.23,25.23,0,0,1-5.08,3.78,19.94,19.94,0,0,1-7.18,2c.13-.24.25-.49.39-.73q4.14-7.63,2.23-13.71C11.71,49.5,9,45,9,40,9,28.6,23.26,19.38,40.86,19.38S72.72,28.6,72.72,40,58.46,60.6,40.86,60.6Z" style="fill:#db2323;fill-rule:evenodd"/><polygon points="70.12 32.13 70.12 32.13 70.12 32.13 70.12 32.13" style="fill:#db2323;fill-rule:evenodd"/><path d="M25.58,44.89a4.76,4.76,0,1,1,4.68-4.76A4.72,4.72,0,0,1,25.58,44.89Zm15.08,0a4.76,4.76,0,1,1,4.69-4.76A4.72,4.72,0,0,1,40.66,44.89Zm15.08,0a4.76,4.76,0,1,1,4.69-4.76A4.72,4.72,0,0,1,55.74,44.89Z" style="fill:#db2323"/></svg>