<svg xmlns="http://www.w3.org/2000/svg" viewBox="0 0 80 80"><defs><style>.a{fill:#f90;fill-rule:evenodd}</style></defs><path class="a" d="M49.66 52.11c-4.66 3.43-11.39 5.25-17.19 5.25a31.13 31.13 0 0 1-21-8c-.43-.39 0-.93.48-.62a42.34 42.34 0 0 0 21 5.57A41.88 41.88 0 0 0 49 51c.79-.33 1.45.52.68 1.09"/><path class="a" d="M51.59 49.9c-.59-.76-3.92-.36-5.42-.18-.46.05-.53-.34-.12-.63 2.66-1.87 7-1.33 7.53-.7s-.13 5-2.63 7.08c-.38.32-.75.15-.58-.27.56-1.4 1.82-4.54 1.22-5.3"/><path d="M46.27 35.89v-1.82a.44.44 0 0 1 .44-.46h8.16a.44.44 0 0 1 .47.43v1.59a2.53 2.53 0 0 1-.61 1.14l-4.22 6a8.9 8.9 0 0 1 4.64 1 .8.8 0 0 1 .43.7v1.94c0 .27-.29.58-.6.42a9.31 9.31 0 0 0-8.59 0c-.29.15-.58-.15-.58-.42V44.6a2.17 2.17 0 0 1 .3-1.25l4.92-7h-4.29a.46.46 0 0 1-.47-.43M16.59 47.23h-2.48a.45.45 0 0 1-.44-.42V34.1a.45.45 0 0 1 .47-.45h2.31a.46.46 0 0 1 .45.42v1.66h.1a3.4 3.4 0 0 1 6.47 0 3.66 3.66 0 0 1 6.29-1c.78 1.07.62 2.62.62 4v8a.48.48 0 0 1-.48.46h-2.52a.49.49 0 0 1-.45-.46V40a15.87 15.87 0 0 0-.07-2.39 1.28 1.28 0 0 0-1.45-1.09 1.63 1.63 0 0 0-1.48 1A7.42 7.42 0 0 0 23.7 40v6.73a.48.48 0 0 1-.48.46h-2.47a.49.49 0 0 1-.45-.46V40c0-1.42.23-3.51-1.53-3.51S17 38.57 17 40v6.73a.47.47 0 0 1-.46.46m45.81-13.81c3.65 0 5.65 3.15 5.65 7.16s-2.2 7-5.66 7-5.6-3.23-5.6-7.13 2-7 5.58-7m0 2.59c-1.83 0-1.94 2.49-1.94 4s0 4.87 1.92 4.87 2-2.68 2-4.31a11.86 11.86 0 0 0-.3-3.36 1.55 1.55 0 0 0-1.59-1.2m10.36 11.23h-2.46a.49.49 0 0 1-.45-.46V34.06a.45.45 0 0 1 .48-.41h2.29a.45.45 0 0 1 .44.35v1.94c.69-1.73 1.66-2.56 3.37-2.56a3.21 3.21 0 0 1 2.89 1.5c.65 1 .65 2.72.65 4v8a.48.48 0 0 1-.48.4H77a.48.48 0 0 1-.44-.4V40c0-1.39.16-3.43-1.55-3.43a1.6 1.6 0 0 0-1.43 1 5.49 5.49 0 0 0-.36 2.43v6.8a.49.49 0 0 1-.49.46m-32.95-6.1a4.79 4.79 0 0 1-.46 2.63 2 2 0 0 1-1.71 1.12c-1 0-1.51-.72-1.51-1.79 0-2.11 1.89-2.5 3.68-2.5v.54m2.5 6a.51.51 0 0 1-.58 0 5.74 5.74 0 0 1-1.42-1.65 4.93 4.93 0 0 1-4.09 1.8A3.51 3.51 0 0 1 32.48 44a3.35 3.35 0 0 1 0-.55 4.19 4.19 0 0 1 2.64-4.05 16.39 16.39 0 0 1 4.65-.86v-.24a3.14 3.14 0 0 0-.3-1.79 1.62 1.62 0 0 0-1.39-.65 1.88 1.88 0 0 0-2 1.49.52.52 0 0 1-.43.45l-2.4-.26a.44.44 0 0 1-.37-.5c.55-2.91 3.19-3.78 5.54-3.78a5.56 5.56 0 0 1 3.73 1.23c1.2 1.12 1.09 2.62 1.09 4.26v3.87a3.38 3.38 0 0 0 .93 2.29.47.47 0 0 1 0 .66c-.5.42-1.4 1.2-1.9 1.64M7.33 41.16a4.89 4.89 0 0 1-.47 2.63 2 2 0 0 1-1.71 1.12c-1 0-1.51-.72-1.51-1.79 0-2.11 1.9-2.5 3.69-2.5v.54m2.49 6a.51.51 0 0 1-.58 0 6.07 6.07 0 0 1-1.42-1.65 4.9 4.9 0 0 1-4.08 1.8A3.53 3.53 0 0 1 0 43.55a4.19 4.19 0 0 1 2.64-4 16.4 16.4 0 0 1 4.66-.86v-.33a3.21 3.21 0 0 0-.3-1.83 1.62 1.62 0 0 0-1.39-.65 1.88 1.88 0 0 0-2 1.49.52.52 0 0 1-.42.45l-2.38-.26a.44.44 0 0 1-.37-.5C1 34.13 3.63 33.31 6 33.31a5.56 5.56 0 0 1 3.73 1.23c1.21 1.12 1.09 2.62 1.09 4.26v3.81a3.38 3.38 0 0 0 .93 2.29.47.47 0 0 1 0 .66c-.51.42-1.41 1.2-1.9 1.64" style="fill-rule:evenodd"/></svg>