<svg xmlns="http://www.w3.org/2000/svg" fill="none" viewBox="0 0 80 80">
  <path fill="#D9D9D9" d="M15.7 23.5v22.7h2.7V26.7l.9 1.7 11.5 17.9h3.3V23.5h-2.7l.1 19.3L19.6 24l-.4-.7h-3.5ZM8.5 43.2c-1.3.6-1.3 2.5-.1 3.1 1 .8 2.7-.2 2.6-1.5.1-1.2-1.4-2.3-2.5-1.6ZM40 23.4v22.8h12v-2.4h-9.4v-8H51v-2.4h-8.2V26h8.8v-2.4H40Zm14.1.1v2.3h6.6v20.4h2.7V29.9c0-1.4-.2-2.7 0-4H70v-2.4H54.1ZM26.7 52.7c-2.6 2.2-2.6 7 .4 9 1.6 1 3.8.8 5.5 0v-1c-1.6.8-4 1-5.4-.5-1.8-2-1.4-5.8 1-7.1a5 5 0 0 1 4.5.1V52c-2-.7-4.4-.7-6 .7Zm10.8 1.7c-1.2.2-2.4.8-2.9 1.9-.8 1.5-.7 3.7.5 5a3.7 3.7 0 0 0 5.1.1c1.6-1.4 1.7-4 .5-5.7-.7-1-2-1.3-3.2-1.3Zm5.9.3v7.5h1.2V58a3 3 0 0 1 1-2.2c.5-.4 1.2-.1 1.7-.1v-1.2c-1.1-.3-2 .4-2.6 1.3v-1.2h-1.3Zm5.3 1.4c-1 1.8-.9 4.6 1 5.8 1.3.8 3 .5 4.4-.2v-1.2c-1 .7-2.5 1.2-3.6.5-.8-.4-1-1.4-1.2-2.2h5.4c0-1.2-.1-2.5-1-3.4-1.3-1.5-4-1-5 .7Z"/>
  <path fill="#623697" d="M36.7 55.8c1-.5 2.5-.3 3.1.8.7 1.2.7 2.7 0 3.9-1 1.4-3.5 1-4.1-.5-.7-1.4-.4-3.4 1-4.2Zm14.4-.2c.6-.1 1.3 0 1.7.5.5.4.5 1 .6 1.6h-4c0-1 .7-1.9 1.7-2.1Z"/>
  <path fill="#623697" fill-rule="evenodd" d="M41.3 0A40.4 40.4 0 0 1 80 38.5V41a40.3 40.3 0 0 1-39.3 39h-1.4A40 40 0 0 1 0 41.8v-3.1A40 40 0 0 1 38.2 0h3.1Zm-8.6 52c-2-.7-4.4-.7-6 .7-2.6 2.2-2.6 7 .4 9 1.6 1 3.8.8 5.5 0v-1c-1.6.8-4 1-5.4-.5-1.8-2-1.4-5.8 1-7.1a5 5 0 0 1 4.5.1V52Zm4.8 2.4c-1.2.2-2.4.8-2.9 1.9-.8 1.5-.7 3.7.5 5a3.7 3.7 0 0 0 5.1.1c1.6-1.4 1.7-4 .5-5.7-.7-1-2-1.3-3.2-1.3Zm16.3 1c-1.4-1.5-4.2-1-5.1.7-1 1.8-.9 4.6 1 5.8 1.3.8 3 .5 4.4-.2v-1.2c-1 .7-2.5 1.2-3.6.5-.8-.4-1-1.4-1.2-2.2h5.4c0-1.2-.1-2.5-1-3.4Zm-6.5-.8c-1.1-.3-2 .4-2.6 1.3v-1.2h-1.3v7.5h1.2V58a3 3 0 0 1 1-2.2c.5-.4 1.2-.1 1.7-.1v-1.2ZM11 44.8c.1-1.2-1.4-2.3-2.5-1.6-1.3.6-1.3 2.5-.1 3.1 1 .8 2.7-.2 2.6-1.5Zm4.7-21.3v22.7h2.7V26.7l.9 1.7 11.5 17.9h3.3V23.5h-2.7l.1 19.3c-4-6.5-8.2-13-12.3-19.4h-3.5Zm24.3 0v22.7h12v-2.4h-9.4v-8H51v-2.4h-8.2V26h8.8v-2.4H40Zm30 0H54.1v2.3h6.6v20.4h2.7V29.9c0-1.4-.2-2.7 0-4H70v-2.4Z" clip-rule="evenodd"/>
</svg>
