<svg xmlns="http://www.w3.org/2000/svg" fill="none" viewBox="0 0 80 80">
  <path fill="url(#logo-edge-a)" d="M65.8 55.6 63 56.8a27 27 0 0 1-9 1.6c-11.8 0-22.1-8.1-22.1-18.6A7.8 7.8 0 0 1 36 33c-10.7.4-13.4 11.6-13.4 18.1 0 18.5 17 20.4 20.6 20.4 2.3-.1 4.6-.5 6.8-1.2h.3c7-2.5 12.8-7.1 16.7-13.3a1 1 0 0 0-.1-1.2 1 1 0 0 0-.6-.3 1 1 0 0 0-.6.1Z"/>
  <path fill="url(#logo-edge-b)" d="M65.8 55.6 63 56.8a27 27 0 0 1-9 1.6c-11.8 0-22.1-8.1-22.1-18.6A7.8 7.8 0 0 1 36 33c-10.7.4-13.4 11.6-13.4 18.1 0 18.5 17 20.4 20.6 20.4 2.3-.1 4.6-.5 6.8-1.2h.3c7-2.5 12.8-7.1 16.7-13.3a1 1 0 0 0-.1-1.2 1 1 0 0 0-.6-.3 1 1 0 0 0-.6.1Z" opacity=".3"/>
  <path fill="url(#logo-edge-c)" d="M34.4 68.3A20.2 20.2 0 0 1 36.1 33 8 8 0 0 1 48 39.9s6.1-20-20-20A21 21 0 0 0 8 39.6a32.4 32.4 0 0 0 19.4 30 32 32 0 0 0 22.7.9 18.9 18.9 0 0 1-15.6-2h-.1Z"/>
  <path fill="url(#logo-edge-d)" d="M34.4 68.3A20.2 20.2 0 0 1 36.1 33 8 8 0 0 1 48 39.9s6.1-20-20-20A21 21 0 0 0 8 39.6a32.4 32.4 0 0 0 19.4 30 32 32 0 0 0 22.7.9 18.9 18.9 0 0 1-15.6-2h-.1Z" opacity=".4"/>
  <path fill="url(#logo-edge-e)" d="M46 45.2c-.1.3-.7.6-.7 1.4a2.3 2.3 0 0 0 1.1 1.8c3.6 2.5 10.4 2.2 10.4 2.2A15.3 15.3 0 0 0 72 35.3c0-3.9-1-7.6-2.8-11A32 32 0 0 0 40 8 32 32 0 0 0 8 39.5C8.1 30.4 17.2 23 28 23c3.6 0 7.2 1 10.5 2.5a18 18 0 0 1 7.7 7.3 16 16 0 0 1 1.8 7.4 9 9 0 0 1-2 5Z"/>
  <path fill="url(#logo-edge-f)" d="M46 45.2c-.1.3-.7.6-.7 1.4a2.3 2.3 0 0 0 1.1 1.8c3.6 2.5 10.4 2.2 10.4 2.2A15.3 15.3 0 0 0 72 35.3c0-3.9-1-7.6-2.8-11A32 32 0 0 0 40 8 32 32 0 0 0 8 39.5C8.1 30.4 17.2 23 28 23c3.6 0 7.2 1 10.5 2.5a18 18 0 0 1 7.7 7.3 16 16 0 0 1 1.8 7.4 9 9 0 0 1-2 5Z"/>
  <defs>
    <radialGradient id="logo-edge-b" cx="0" cy="0" r="1" gradientTransform="matrix(23.8 0 0 22.6 47.5 53.2)" gradientUnits="userSpaceOnUse">
      <stop offset=".7" stop-opacity="0"/>
      <stop offset=".9" stop-opacity=".5"/>
      <stop offset="1"/>
    </radialGradient>
    <radialGradient id="logo-edge-d" cx="0" cy="0" r="1" gradientTransform="matrix(5.4 -35.4 28.6 4.3 25.9 58.2)" gradientUnits="userSpaceOnUse">
      <stop offset=".8" stop-opacity="0"/>
      <stop offset=".9" stop-opacity=".5"/>
      <stop offset="1"/>
    </radialGradient>
    <radialGradient id="logo-edge-e" cx="0" cy="0" r="1" gradientTransform="rotate(92 -1 16.2) scale(50.6 107.9)" gradientUnits="userSpaceOnUse">
      <stop stop-color="#35C1F1"/>
      <stop offset=".1" stop-color="#34C1ED"/>
      <stop offset=".2" stop-color="#2FC2DF"/>
      <stop offset=".3" stop-color="#2BC3D2"/>
      <stop offset=".7" stop-color="#36C752"/>
    </radialGradient>
    <radialGradient id="logo-edge-f" cx="0" cy="0" r="1" gradientTransform="matrix(6.8 23.4 -19 5.5 70 26.9)" gradientUnits="userSpaceOnUse">
      <stop stop-color="#66EB6E"/>
      <stop offset="1" stop-color="#66EB6E" stop-opacity="0"/>
    </radialGradient>
    <linearGradient id="logo-edge-a" x1="22.7" x2="67.2" y1="52.2" y2="52.2" gradientUnits="userSpaceOnUse">
      <stop stop-color="#0C59A4"/>
      <stop offset="1" stop-color="#114A8B"/>
    </linearGradient>
    <linearGradient id="logo-edge-c" x1="46.2" x2="18.4" y1="32.9" y2="63.2" gradientUnits="userSpaceOnUse">
      <stop stop-color="#1B9DE2"/>
      <stop offset=".2" stop-color="#1595DF"/>
      <stop offset=".7" stop-color="#0680D7"/>
      <stop offset="1" stop-color="#0078D4"/>
    </linearGradient>
  </defs>
</svg>
