<svg data-name="Logos" xmlns="http://www.w3.org/2000/svg" viewBox="0 0 80 80"><path d="M1.1 31.2A1.5 1.5 0 0 1 1 30 40 40 0 0 1 49.6 1.3c1 .2 2.1.6 3.2 1a1.6 1.6 0 0 1 .9 2l-2 5a1.5 1.5 0 0 1-2 1 31.4 31.4 0 0 0-10-1.8 31 31 0 0 0-19.8 7A31.6 31.6 0 0 0 9.3 32a1.5 1.5 0 0 1-1.8 1L2 32a1.5 1.5 0 0 1-1-.7zM79 44a1.5 1.5 0 0 0-1-.6l-5.5-.5a1.5 1.5 0 0 0-1.6 1.3A31.4 31.4 0 0 1 35.4 71a30.9 30.9 0 0 1-7-1.7 1.5 1.5 0 0 0-2 .8l-2 5.2a1.5 1.5 0 0 0 .8 2 40 40 0 0 0 54-32.3 1.5 1.5 0 0 0-.3-1zm-30.3 7.4v-5.5a1.5 1.5 0 0 0-1.5-1.5H2.3a1.5 1.5 0 0 0-1.5 1.4v5.6a1.5 1.5 0 0 0 1.5 1.5h44.8a1.5 1.5 0 0 0 1.5-1.5zM31.5 25.8v5.5a1.5 1.5 0 0 0 1.5 1.5h44.8a1.5 1.5 0 0 0 1.5-1.5v-5.5a1.5 1.5 0 0 0-1.5-1.5H33a1.5 1.5 0 0 0-1.5 1.5zM64.2 7.5a4.5 4.5 0 1 0 4.5 4.5 4.5 4.5 0 0 0-4.5-4.5zm-50 54.7a4.5 4.5 0 1 0 4.6 4.5 4.5 4.5 0 0 0-4.5-4.5z" fill="#12424a" data-name="Logos"/></svg>
