<svg xmlns="http://www.w3.org/2000/svg" viewBox="0 0 80 80"><path fill="#46a4da" d="M0 0h80v80H0z"/><path d="M58.7 70.5a14 14 0 0 0 7-1.5 7.5 7.5 0 0 0 3.8-4.6c1.2-4.3-.8-8.2-5.2-9.8a4.3 4.3 0 0 1-3-3 9 9 0 0 0-6.8-6.5 9.7 9.7 0 0 0-11.3 4.5 2.6 2.6 0 0 1-2.6 1.4 4.8 4.8 0 0 0-4.5 2.6c-.8 1.2-1.3 1.3-2.5.7-5.6-2.7-9-7-9.5-13.5-.8-12 10.9-18.9 19.8-16.3 6.8 2 12 7.9 11.7 14.8a7.3 7.3 0 0 0 .2 2.3 2.2 2.2 0 0 0 1 1.3 13.5 13.5 0 0 1 7 7l.4.9a3.3 3.3 0 0 0 3.2 1.6c1 0 1-1.2 1.2-1.9l.3-.7a30 30 0 0 0 1.4-14.2A30.7 30.7 0 0 0 37.1 9.3a30.5 30.5 0 0 0-17.9 53c6.3 6 14 8 22.3 8.4 3.2.2 6.4 0 9.6 0z" fill="#fff"/></svg>
