<svg xmlns="http://www.w3.org/2000/svg" viewBox="0 0 80 80"><path fill="#4d4d4d" fill-rule="evenodd" d="M0 66.7h17.4L18.6 52 2.5 48 0 66.7zm3.1-21 15.5 3.7 3.7-13-13-6.9-6.2 16.1zM10.5 27 23 34l9.9-6.9-9.3-10.5-13 10.5zM80 66.7H62.6l-1.2-14.9 16.1-3.7L80 66.7zm-3.1-21-15.5 3.7-3.7-13 13-6.9 6.2 16.2zM69.5 27 57 34 47 27l9.3-10.5 13 10.5zM26.7 14.6 36 25.8h8.7l8-11.2-8-2.4h-9l-9 2.4z"/><path fill="#9c0000" fill-rule="evenodd" d="M0 66.7h17.4L18.6 52 2.5 48 0 66.7z"/><path fill="#b50808" fill-rule="evenodd" d="m3.1 45.6 15.5 3.8 3.7-13-13-6.9-6.2 16.1z"/><path fill="#c61818" fill-rule="evenodd" d="M10.5 27 23 34 33 27l-9.3-10.5-13 10.5z"/><path fill="#9c0000" fill-rule="evenodd" d="M80 66.7H62.6l-1.2-14.9 16.1-3.7L80 66.7z"/><path fill="#b50808" fill-rule="evenodd" d="m76.9 45.6-15.5 3.8-3.7-13 13-6.9 6.2 16.1z"/><path fill="#c61818" fill-rule="evenodd" d="M69.5 27 57 34 47.1 27l9.3-10.5 13 10.5z"/><path fill="#ce3129" fill-rule="evenodd" d="M26.7 14.6 36 25.8h8.6l8.1-11.2-8-2.4h-9l-9 2.4z"/></svg>
