<svg xmlns="http://www.w3.org/2000/svg" viewBox="0 0 80 80"><defs><radialGradient id="b" cx="248.33" cy="283.74" r=".15" gradientTransform="matrix(198.69 0 0 -188.75 -49291.34 53612.39)" gradientUnits="userSpaceOnUse"><stop offset=".72" stop-opacity="0"/><stop offset=".95" stop-opacity=".53"/><stop offset="1"/></radialGradient><radialGradient id="d" cx="252.64" cy="282.89" r=".15" gradientTransform="matrix(44.76 -295.4 -238.65 -36.16 56225.88 84921.96)" gradientUnits="userSpaceOnUse"><stop offset=".76" stop-opacity="0"/><stop offset=".95" stop-opacity=".5"/><stop offset="1"/></radialGradient><radialGradient id="e" cx="250.35" cy="280.66" r=".15" gradientTransform="matrix(-16.87 421.68 898.09 35.92 -247825.47 -115636.65)" gradientUnits="userSpaceOnUse"><stop offset="0" stop-color="#35c1f1"/><stop offset=".11" stop-color="#34c1ed"/><stop offset=".23" stop-color="#2fc2df"/><stop offset=".31" stop-color="#2bc3d2"/><stop offset=".67" stop-color="#36c752"/></radialGradient><radialGradient id="f" cx="248.46" cy="277.64" r=".15" gradientTransform="matrix(56.78 194.66 158.3 -46.17 -57980.43 -35522.94)" gradientUnits="userSpaceOnUse"><stop offset="0" stop-color="#66eb6e"/><stop offset="1" stop-color="#66eb6e" stop-opacity="0"/></radialGradient><linearGradient id="a" x1="18.35" y1="426.68" x2="74.06" y2="426.68" gradientTransform="matrix(1 0 0 -1 0 482)" gradientUnits="userSpaceOnUse"><stop offset="0" stop-color="#0c59a4"/><stop offset="1" stop-color="#114a8b"/></linearGradient><linearGradient id="c" x1="47.75" y1="450.83" x2="12.94" y2="412.92" gradientTransform="matrix(1 0 0 -1 0 482)" gradientUnits="userSpaceOnUse"><stop offset="0" stop-color="#1b9de2"/><stop offset=".16" stop-color="#1595df"/><stop offset=".67" stop-color="#0680d7"/><stop offset="1" stop-color="#0078d4"/></linearGradient></defs><path d="M72.2 59.54A29.42 29.42 0 0168.91 61a32.08 32.08 0 01-11.22 2C42.91 63 30 52.86 30 39.8a9.81 9.81 0 015.13-8.53c-13.37.56-16.81 14.5-16.81 22.66 0 23.09 21.28 25.43 25.86 25.43a33.21 33.21 0 008.44-1.43l.41-.13a40.21 40.21 0 0020.84-16.5 1.29 1.29 0 00.18-.79 1.2 1.2 0 00-.33-.74 1.3 1.3 0 00-.72-.38 1.26 1.26 0 00-.8.15z" fill="url(#a)"/><path d="M72.2 59.54A29.42 29.42 0 0168.91 61a32.08 32.08 0 01-11.22 2C42.91 63 30 52.86 30 39.8a9.81 9.81 0 015.13-8.53c-13.37.56-16.81 14.5-16.81 22.66 0 23.09 21.28 25.43 25.86 25.43a33.21 33.21 0 008.44-1.43l.41-.13a40.21 40.21 0 0020.84-16.5 1.29 1.29 0 00.18-.79 1.2 1.2 0 00-.33-.74 1.3 1.3 0 00-.72-.38 1.26 1.26 0 00-.8.15z" style="isolation:isolate" opacity=".35" fill="url(#b)"/><path d="M33 75.44a24.84 24.84 0 01-7.11-6.67 25.23 25.23 0 019.23-37.5A10.47 10.47 0 0140 30a10.1 10.1 0 018 4.06 9.93 9.93 0 012 5.83C50 39.85 57.67 15 25 15 11.29 15 0 28 0 39.44A40.53 40.53 0 003.82 57a40 40 0 0048.86 21 23.62 23.62 0 01-19.61-2.5z" fill="url(#c)"/><path d="M33 75.44a24.84 24.84 0 01-7.11-6.67 25.23 25.23 0 019.23-37.5A10.47 10.47 0 0140 30a10.1 10.1 0 018 4.06 9.93 9.93 0 012 5.83C50 39.85 57.67 15 25 15 11.29 15 0 28 0 39.44A40.53 40.53 0 003.82 57a40 40 0 0048.86 21 23.62 23.62 0 01-19.61-2.5z" style="isolation:isolate" opacity=".41" fill="url(#d)"/><path d="M47.6 46.51c-.25.33-1 .78-1 1.77a2.91 2.91 0 001.4 2.26c4.5 3.13 13 2.71 13 2.71a18.53 18.53 0 009.46-2.61A19.18 19.18 0 0080 34.12a27.58 27.58 0 00-3.55-13.72C69.83 7.45 55.54 0 40 0A40 40 0 000 39.43C.15 28 11.5 18.79 25 18.79a30.25 30.25 0 0113.12 3.15 22.65 22.65 0 019.64 9.13A20.1 20.1 0 0150 40.29a11.28 11.28 0 01-2.44 6.22z" fill="url(#e)"/><path d="M47.6 46.51c-.25.33-1 .78-1 1.77a2.91 2.91 0 001.4 2.26c4.5 3.13 13 2.71 13 2.71a18.53 18.53 0 009.46-2.61A19.18 19.18 0 0080 34.12a27.58 27.58 0 00-3.55-13.72C69.83 7.45 55.54 0 40 0A40 40 0 000 39.43C.15 28 11.5 18.79 25 18.79a30.25 30.25 0 0113.12 3.15 22.65 22.65 0 019.64 9.13A20.1 20.1 0 0150 40.29a11.28 11.28 0 01-2.44 6.22z" fill="url(#f)"/></svg>