<svg xmlns="http://www.w3.org/2000/svg" viewBox="0 0 80 80"><path d="M40.6 34a3 3 0 0 1 2.3-1.3A3.1 3.1 0 0 1 42 35a2.4 2.4 0 0 1-2.1 1 2.8 2.8 0 0 1 .6-2zm-.5 3c.5 0 1.4-.8 2.5-.8a3.2 3.2 0 0 1 2.8 1.5 3.2 3.2 0 0 0-1.5 2.8 3.2 3.2 0 0 0 2 3s-1.4 3.8-3.2 3.8c-.9 0-1.5-.5-2.4-.5s-1.8.6-2.4.6c-1.6 0-3.7-3.7-3.7-6.7s1.7-4.4 3.4-4.4c1.1 0 2 .6 2.5.6z" fill-rule="evenodd" fill="#9386a0"/><path d="M67.6 80H12.4a3 3 0 0 1-3-3V3a3 3 0 0 1 3-3h55.2a3 3 0 0 1 3 3v74a3 3 0 0 1-3 3zm0-2.3a.8.8 0 0 0 .8-.7V3a.8.8 0 0 0-.8-.8H12.4a.8.8 0 0 0-.8.8v74a.8.8 0 0 0 .8.8z" fill="#9386a0"/></svg>
