<svg width="32" height="32" viewBox="0 0 32 32" fill="none" xmlns="http://www.w3.org/2000/svg">
<path d="M32 0H0V32H32V0Z" fill="#0052CC"/>
<path d="M16.1199 15.96C18.4837 15.96 20.3999 14.0438 20.3999 11.68C20.3999 9.31624 18.4837 7.40002 16.1199 7.40002C13.7561 7.40002 11.8398 9.31624 11.8398 11.68C11.8398 14.0438 13.7561 15.96 16.1199 15.96Z" fill="url(#paint0_linear)"/>
<path d="M15.7599 24.44C12.9599 22.64 10.64 20.24 8.99996 17.36C8.87996 17.12 8.95996 16.84 9.19996 16.72C9.19996 16.72 9.1999 16.72 9.2399 16.72L12.4799 15.12C12.7199 15 13 15.08 13.12 15.32C14.76 18.08 17.1999 20.24 20.0799 21.6C18.9999 22.68 17.8399 23.64 16.5599 24.44C16.2799 24.6 15.9599 24.6 15.7599 24.44Z" fill="url(#paint1_linear)"/>
<path d="M16.4799 24.44C19.2799 22.64 21.5999 20.24 23.2399 17.36C23.3599 17.12 23.2799 16.84 23.0399 16.72C23.0399 16.72 23.0399 16.72 22.9999 16.72L19.7599 15.12C19.5199 15 19.24 15.08 19.12 15.32C17.48 18.08 15.0799 20.24 12.1599 21.6C13.2399 22.68 14.3999 23.64 15.6799 24.44C15.9599 24.6 16.2799 24.6 16.4799 24.44Z" fill="white"/>
<defs>
<linearGradient id="paint0_linear" x1="16.119" y1="8.83634" x2="16.119" y2="17.6205" gradientUnits="userSpaceOnUse">
<stop stop-color="white"/>
<stop offset="0.82" stop-color="white" stop-opacity="0.4"/>
</linearGradient>
<linearGradient id="paint1_linear" x1="13.4833" y1="17.3748" x2="16.4257" y2="23.533" gradientUnits="userSpaceOnUse">
<stop stop-color="white"/>
<stop offset="0.62" stop-color="white" stop-opacity="0.35"/>
</linearGradient>
</defs>
</svg>
