<svg id="f11fde63-b6e8-44ff-982c-cd6ab03b8be7" data-name="Logos" xmlns="http://www.w3.org/2000/svg" viewBox="0 0 80 80"><title>logos</title><g id="b1512154-f1dd-4997-8215-b7fcc0f8ec3e" data-name="Logos"><path d="M1.13,31.18A1.51,1.51,0,0,1,1,30,40,40,0,0,1,49.63,1.27c1,.27,2.09.59,3.12.94a1.55,1.55,0,0,1,.93,2h0l-2,5.17a1.51,1.51,0,0,1-1.9.86A31.44,31.44,0,0,0,39.64,8.49a31,31,0,0,0-19.7,7A31.61,31.61,0,0,0,9.27,32a1.47,1.47,0,0,1-1.78,1.08h0l-5.4-1.2A1.5,1.5,0,0,1,1.13,31.18ZM78.92,44a1.49,1.49,0,0,0-1-.57l-5.5-.56a1.51,1.51,0,0,0-1.65,1.3A31.41,31.41,0,0,1,35.41,71.05a30.87,30.87,0,0,1-7-1.77,1.49,1.49,0,0,0-1.92.86l-2.13,5.11a1.5,1.5,0,0,0,.8,2l.06,0A39.95,39.95,0,0,0,79.2,45,1.47,1.47,0,0,0,78.91,44ZM48.65,51.37V45.86a1.5,1.5,0,0,0-1.51-1.5H2.33A1.5,1.5,0,0,0,.81,45.84v5.55a1.5,1.5,0,0,0,1.51,1.5h44.8a1.51,1.51,0,0,0,1.52-1.49ZM31.41,25.79v5.53a1.52,1.52,0,0,0,1.51,1.51h44.8a1.51,1.51,0,0,0,1.49-1.51V25.79a1.51,1.51,0,0,0-1.5-1.51H32.9a1.51,1.51,0,0,0-1.5,1.51ZM64.15,7.49A4.53,4.53,0,1,0,68.68,12h0a4.53,4.53,0,0,0-4.51-4.52ZM14.27,62.17A4.53,4.53,0,1,0,18.8,66.7h0a4.52,4.52,0,0,0-4.52-4.52Z" style="fill:#12424a"/></g></svg>