<svg xmlns="http://www.w3.org/2000/svg" viewBox="0 0 80 80"><circle cx="40" cy="40" r="40" fill="#249df1"/><path d="m37.6 23 10-1.3-9.8 22a11 11 0 0 0 5-1.8 21 21 0 0 0 4.6-3.9 26.6 26.6 0 0 0 3.6-5.2 23.8 23.8 0 0 0 2.2-5.6 13.2 13.2 0 0 0 .3-3.3 5.1 5.1 0 0 0-.8-2.8 5.5 5.5 0 0 0-2.4-2 11 11 0 0 0-4.3-.6 20 20 0 0 0-6.4 1 20.6 20.6 0 0 0-5.8 3 20 20 0 0 0-4.6 5 20.6 20.6 0 0 0-2.9 7 12.2 12.2 0 0 0-.4 2 6.8 6.8 0 0 0 0 1.2 2.6 2.6 0 0 0 .2.7 5.3 5.3 0 0 1 .1.5q-3.3 0-4.9-1.3-1.5-1.4-.8-4.7a15 15 0 0 1 3.6-6.7 29.9 29.9 0 0 1 6.7-5.6 36 36 0 0 1 8.5-3.8 30 30 0 0 1 9-1.4 16.7 16.7 0 0 1 6.4 1 10.2 10.2 0 0 1 4 3 8.6 8.6 0 0 1 1.9 4.1 13 13 0 0 1-.3 5 20 20 0 0 1-2.7 6.2 25 25 0 0 1-5 5.7 26 26 0 0 1-7 4.1 22.2 22.2 0 0 1-8.4 1.6h-.3L28.4 65H19z" fill="#fff"/></svg>
