<svg data-name="Logos" xmlns="http://www.w3.org/2000/svg" viewBox="0 0 80 80"><path d="m34.3 36.5 1.4-5.7 2.7-11.6.1-.4a1.2 1.2 0 0 1 1.3-1.1h2.6c.9 0 1.1.4 1.3 1.3l1.3 5.5L47.8 36a5 5 0 0 0 .2.6l.8-3.2 3.7-14.2c0-.2 0-.4.2-.6a1.3 1.3 0 0 1 1.3-1h2.5c.6 0 .8.2.7.9a4.9 4.9 0 0 1-.2.9l-6.3 20.3a4 4 0 0 1-.1.4c-.4 1-.7 1.2-1.7 1.2h-2.1c-1 0-1.4-.2-1.6-1.3l-1.3-5-2.7-11.5-.2-.6-1.2 5L37 40c-.3 1.2-.6 1.4-1.9 1.4h-2c-1 0-1.3-.2-1.6-1L30 35l-4.7-15.6c-.5-1.7 0-1.7 1.2-1.7h1.7c1 0 1.4.3 1.7 1.3l1.1 4.5L34.1 36l.2.6z" fill="#273140"/><path d="M40.4 65a59.8 59.8 0 0 1-29.2-7.3A57.9 57.9 0 0 1 .6 50l-.5-.5a1.2 1.2 0 0 1 0-.8.6.6 0 0 1 .7-.3 2.5 2.5 0 0 1 .7.3 77.3 77.3 0 0 0 15.7 6.8 78.3 78.3 0 0 0 12 2.7 87.3 87.3 0 0 0 9.8.9 75.2 75.2 0 0 0 11.9-.7 78.5 78.5 0 0 0 20-5.4 3.5 3.5 0 0 1 1-.2 1 1 0 0 1 1 .6 1 1 0 0 1-.2 1.2 4.1 4.1 0 0 1-.7.7 48.1 48.1 0 0 1-11.6 6A58.8 58.8 0 0 1 50 64l-6.2.7-3.3.2z" fill="#fe9902"/><path d="M18.1 28.1a36.6 36.6 0 0 0-.2-3.7c-.3-2-1.1-3.2-3.9-3.6A14.8 14.8 0 0 0 6.6 22a8 8 0 0 1-1 .4c-.4 0-.7-.1-.7-.6v-2a1.1 1.1 0 0 1 .8-1A33 33 0 0 1 9 17.6a15.8 15.8 0 0 1 7.9-.1 6.7 6.7 0 0 1 5.3 6 18.3 18.3 0 0 1 .2 2.6v6.6l.1 3a7.4 7.4 0 0 0 1 2.7c.5 1 .4 1.3-.6 2l-1 .7c-1 .6-1.4.6-2-.3a19.5 19.5 0 0 1-1.3-1.9 5.6 5.6 0 0 1-.2-.5l-1.7 1.5A9.7 9.7 0 0 1 8 41.6 6.3 6.3 0 0 1 3.3 36a8.5 8.5 0 0 1 .2-3.2 7.2 7.2 0 0 1 5.3-5 14 14 0 0 1 6-.3l3.3.6zm0 3a18.1 18.1 0 0 0-6.6-.5A3.8 3.8 0 0 0 8 34.1a6 6 0 0 0 .1 1.7 3.1 3.1 0 0 0 2.7 2.6 7.4 7.4 0 0 0 3.9-.5 5 5 0 0 0 3.2-3.1A9.3 9.3 0 0 0 18 31zm48.9 11a15.8 15.8 0 0 1-5.7-1c-2.4-1-2.2-1.3-2.2-3.4 0-.8.4-1 1.1-.7l3 1a13.1 13.1 0 0 0 6 .2 5.7 5.7 0 0 0 1.6-.6 2.8 2.8 0 0 0-.1-5 24.7 24.7 0 0 0-3-1c-1.1-.5-2.3-.8-3.5-1.2a7 7 0 0 1-4.1-3.5 6.3 6.3 0 0 1 2.7-8.5 9.5 9.5 0 0 1 4.3-1.3 15.4 15.4 0 0 1 6 .8h.3c2.2 1 2 1.5 2 3.5 0 .5-.4.7-1 .6l-1-.4a12.3 12.3 0 0 0-6.8-.7 4.7 4.7 0 0 0-1.3.4 2.7 2.7 0 0 0-.2 4.7 14.5 14.5 0 0 0 2.7 1.2l4 1.3a12 12 0 0 1 2.1 1c3.4 2 3.4 6.5 1.6 9a8.1 8.1 0 0 1-4.4 3 12.6 12.6 0 0 1-4.1.6z" fill="#273140"/><path d="M65 50a5.8 5.8 0 0 1 .7-.7 12.4 12.4 0 0 1 5-2 18.3 18.3 0 0 1 7.2 0l1 .3A1.4 1.4 0 0 1 80 49a16.3 16.3 0 0 1-1.5 7 14 14 0 0 1-3.6 5.2c-.3.3-.7.6-1.2.3-.2-.4 0-.7.1-1 .6-1.6 1.2-3 1.7-4.7a12.4 12.4 0 0 0 .7-3.6c0-1.3-.3-1.8-1.6-2a20 20 0 0 0-5 0l-3.7.3c-.3 0-.7 0-.9-.6z" fill="#fe9902"/></svg>
