<svg xmlns="http://www.w3.org/2000/svg" fill="none" viewBox="0 0 80 80">
  <path fill="url(#logo-jira-server-a)" d="M69.2 8H38.4a13.9 13.9 0 0 0 13.9 13.9H58v5.4a14 14 0 0 0 13.8 14V10.6c0-1.5-1.2-2.7-2.6-2.7Z"/>
  <path fill="url(#logo-jira-server-b)" d="M54 23.3H23.2c0 7.7 6.2 13.9 13.9 13.9h5.6v5.5a14 14 0 0 0 14 13.8V26c0-1.5-1.3-2.7-2.7-2.7Z"/>
  <path fill="url(#logo-jira-server-c)" d="M38.7 38.6H8c0 7.7 6.2 13.9 13.9 13.9h5.7V58c0 7.6 6.2 13.8 13.8 13.8V41.3c0-1.5-1.2-2.7-2.7-2.7Z"/>
  <defs>
    <linearGradient id="logo-jira-server-a" x1="79.6" x2="55.3" y1="16.7" y2="41.4" gradientUnits="userSpaceOnUse">
      <stop offset=".2" stop-color="#344563"/>
      <stop offset="1" stop-color="#7A869A"/>
    </linearGradient>
    <linearGradient id="logo-jira-server-b" x1="64.4" x2="40.1" y1="32" y2="56.7" gradientUnits="userSpaceOnUse">
      <stop offset=".2" stop-color="#344563"/>
      <stop offset="1" stop-color="#7A869A"/>
    </linearGradient>
    <linearGradient id="logo-jira-server-c" x1="49.2" x2="24.8" y1="47.3" y2="72" gradientUnits="userSpaceOnUse">
      <stop offset=".2" stop-color="#344563"/>
      <stop offset="1" stop-color="#7A869A"/>
    </linearGradient>
  </defs>
</svg>
