<svg xmlns="http://www.w3.org/2000/svg" viewBox="0 0 80 80"><defs><style>.b{fill:#fff}</style></defs><path fill="#8892bf" d="M0 0h80v80H0z"/><path class="b" d="M13.73 29.41h9.49q4.19 0 6.06 2.39t1.24 6.45a12.38 12.38 0 01-1.1 3.67 10.74 10.74 0 01-2.27 3.24 7.92 7.92 0 01-3.79 2.33 17.46 17.46 0 01-4.18.49h-4.25l-1.34 6.7H8.66l5.07-25.27m4.14 4L15.75 44a3 3 0 00.42 0h.5a18.55 18.55 0 005.67-.67c1.51-.49 2.52-2.21 3-5.14.43-2.47 0-3.89-1.27-4.27a16.34 16.34 0 00-4.71-.53 7.88 7.88 0 01-.82 0h-.74M36.13 22.68H41l-1.38 6.73H44a8.82 8.82 0 015.39 1.48c1.2.94 1.56 2.72 1.06 5.36L48.1 48h-5l2.27-11.21a3.17 3.17 0 00-.22-2.5 3 3 0 00-2.44-.74h-3.93L35.91 48H31l5.1-25.3M55.72 29.41h9.49q4.19 0 6.06 2.39t1.24 6.45a12.38 12.38 0 01-1.1 3.67 10.74 10.74 0 01-2.27 3.24 7.92 7.92 0 01-3.79 2.33 17.46 17.46 0 01-4.18.49h-4.25l-1.34 6.7h-4.93l5.07-25.27m4.14 4L57.74 44a3 3 0 00.42 0h.5a18.55 18.55 0 005.67-.67c1.51-.49 2.52-2.21 3-5.14.43-2.47 0-3.89-1.27-4.27a16.25 16.25 0 00-4.71-.53 7.88 7.88 0 01-.82 0h-.74"/></svg>