<svg id="e04103ba-7803-4ae2-af55-3545ed529401" data-name="Logos" xmlns="http://www.w3.org/2000/svg" xmlns:xlink="http://www.w3.org/1999/xlink" viewBox="0 0 80 80"><defs><linearGradient id="f7f3624b-d886-4c3b-ab4c-0163ca4dc99d" x1="7.69" y1="16.76" x2="72.64" y2="63.48" gradientUnits="userSpaceOnUse"><stop offset="0" stop-color="#e7538e"/><stop offset="1" stop-color="#a73e97"/></linearGradient></defs><title>logos</title><circle cx="40" cy="40" r="40" style="fill:url(#f7f3624b-d886-4c3b-ab4c-0163ca4dc99d)"/><circle cx="40" cy="40" r="32.14" style="fill:#0a2032"/><path d="M51.27,48.17c0,3.83-3,5.61-6.92,5.61a10.72,10.72,0,0,1-5.7-1.5V48.36a9.45,9.45,0,0,0,5.61,2.06c1.87,0,3.08-.66,3.08-2.06s-1.12-2.06-3.45-2.62c-3.83-.84-5.42-2.43-5.42-5.6,0-3.74,2.8-5.61,6.54-5.61a10.11,10.11,0,0,1,5.32,1.4v3.74a8.66,8.66,0,0,0-5.14-1.87c-1.77,0-2.71.84-2.71,2.06s.75,1.87,2.9,2.43C49.49,43.31,51.27,44.81,51.27,48.17Z" style="fill:#fff"/><path d="M40.23,35a5.58,5.58,0,0,0-2.37,3.46H35.74V53.68H31.63V38.46h-2.9V35h2.9V31.54c0-4.57,2.52-6.82,6.26-6.82a6.37,6.37,0,0,1,3.64.94v3.73a5.61,5.61,0,0,0-3.17-1c-1.69,0-2.71.84-2.71,3.08V35h4.59" style="fill:#fff"/></svg>