<svg xmlns="http://www.w3.org/2000/svg" viewBox="0 0 80 80"><path d="M75.61 21.77A40 40 0 0 1 40 80h-2v-.16l16.42-28.27A18.48 18.48 0 0 0 56.14 31l19.33-9.11z" fill="#ffcd40"/><path d="m75.61 21.77-.14.08-32.53-.13A19 19 0 0 0 40 21.5a18.49 18.49 0 0 0-15.9 9L6.54 18.34l-.12-.08a40 40 0 0 1 69.19 3.51z" fill="#db4437"/><path d="M75.47 21.85 56.14 31a18.54 18.54 0 0 0-13.2-9.23z" fill="#edb732"/><path d="M56.14 31A18.52 18.52 0 0 1 40 58.49h-.25a18.49 18.49 0 0 1 .25-37 19 19 0 0 1 2.94.23A18.54 18.54 0 0 1 56.14 31zm-1.79 9A14.36 14.36 0 1 0 40 54.35 14.36 14.36 0 0 0 54.35 40z" fill="#fff"/><path d="M54.42 51.57 38 79.79l1.78-21.3H40a18.38 18.38 0 0 0 14.41-6.93z" fill="#108949"/><path d="M40 25.64A14.36 14.36 0 1 1 25.64 40 14.36 14.36 0 0 1 40 25.64z" fill="#4285f4"/><path d="M39.75 58.48 38 79.79V80A40 40 0 0 1 6.42 18.26l.12.08 16.2 28.34a18.49 18.49 0 0 0 17.01 11.8z" fill="#0f9d58"/><path d="M6.54 18.34 24.1 30.53a18.57 18.57 0 0 0-1.36 16.15z" fill="#c63932"/></svg>