<svg id="a75a49dd-5497-4f06-bec3-3ce53278484b" data-name="Logos" xmlns="http://www.w3.org/2000/svg" viewBox="0 0 80 80"><title>logos</title><path d="M70.43,34.81a9.37,9.37,0,1,0-9.37-9.36A9.37,9.37,0,0,0,70.43,34.81Zm0-16a6.62,6.62,0,1,1-6.62,6.62A6.62,6.62,0,0,1,70.43,18.83Z" style="fill:#555ba4"/><polygon points="21.25 30.45 21.25 30.46 21.25 30.46 21.25 30.45" style="fill:#555ba4"/><path d="M77.42,37.89H63.81V36.53a3.21,3.21,0,0,0-3.2-3.21h-13v-4a9.36,9.36,0,1,0,0-16.6V.68L.24,8.9V71.67l47.37,7.65V67.57h6.12A10.1,10.1,0,0,0,63,61.48h7.56a9.64,9.64,0,0,0,9.62-9.63V40.64A2.75,2.75,0,0,0,77.42,37.89ZM47.61,26V16a6.62,6.62,0,1,1,0,10ZM35.28,30l-8.56.27V54.89H21.25V30.46l-7.65.24V26.47l21.68-1ZM61.06,57.48a7.34,7.34,0,0,1-7.33,7.34H47.61V36.07h13a.45.45,0,0,1,.45.46Zm16.36-5.63a6.88,6.88,0,0,1-6.87,6.88H63.74a10.24,10.24,0,0,0,.07-1.25V40.64H77.42Z" style="fill:#555ba4"/></svg>