<svg id="Layer_1" data-name="Layer 1" xmlns="http://www.w3.org/2000/svg" xmlns:xlink="http://www.w3.org/1999/xlink" viewBox="0 0 500 500"><defs><style>.cls-1{fill:none;}.cls-2{fill:#fff;}.cls-3{clip-path:url(#clip-path);}.cls-4{fill:#ccc;}.cls-5{fill:gray;}.cls-6{fill:#4d4d4d;}</style><clipPath id="clip-path"><rect class="cls-1" x="95" y="95" width="310" height="310"/></clipPath></defs><rect class="cls-2" width="500" height="500"/><g id="U_Cube_Black"><g class="cls-3"><g class="cls-3"><path class="cls-4" d="M378.42,307.46V173.24L262.18,106.12v51.49l45.55,26.29a2.57,2.57,0,0,1,0,4.41l-54.14,31.26a5.1,5.1,0,0,1-5.1,0l-54.13-31.26a2.56,2.56,0,0,1,0-4.41l45.54-26.29V106.12L123.65,173.24V307.46l44.58-25.74v-52.6a2.56,2.56,0,0,1,3.82-2.19l54.14,31.25a5.1,5.1,0,0,1,2.55,4.42v62.51a2.56,2.56,0,0,1-3.8,2.22L179.38,301l-44.59,25.74L251,393.88l116.24-67.12L322.69,301l-45.55,26.3a2.56,2.56,0,0,1-3.81-2.21V262.6a5.09,5.09,0,0,1,2.55-4.42L330,226.93a2.57,2.57,0,0,1,3.83,2.2v52.59Z"/><path d="M251,393.88l116.24-67.11L322.69,301l-45.55,26.3a2.56,2.56,0,0,1-3.81-2.21V262.6a5.09,5.09,0,0,1,2.55-4.42L330,226.93a2.57,2.57,0,0,1,3.83,2.2v52.59l44.58,25.74V173.23L251,246.78Z"/><path class="cls-5" d="M262.18,106.12v51.49l45.55,26.29a2.57,2.57,0,0,1,0,4.41l-54.14,31.26a5.1,5.1,0,0,1-5.1,0l-54.13-31.26a2.56,2.56,0,0,1,0-4.41l45.54-26.29V106.12L123.65,173.24,251,246.78l127.39-73.54Z"/><path class="cls-6" d="M224.94,327.33,179.38,301l-44.59,25.75L251,393.88V246.78L123.65,173.24V307.46l44.58-25.74v-52.6a2.56,2.56,0,0,1,3.82-2.19l54.14,31.25a5.1,5.1,0,0,1,2.55,4.42v62.51a2.56,2.56,0,0,1-3.8,2.22"/></g></g></g></svg>