<svg xmlns="http://www.w3.org/2000/svg" fill="none" viewBox="0 0 80 80">
  <path fill="#5059C9" d="M53.5 32.4h17.7a3 3 0 0 1 3 3v16.2c0 6.1-5 11.1-11 11.1H63a11 11 0 0 1-11.1-11.1V34a1.6 1.6 0 0 1 1.5-1.6Zm12-3.2a7.2 7.2 0 1 0 0-14.3 7.2 7.2 0 0 0 0 14.3Z"/>
  <path fill="#7B83EB" d="M43.2 29.2a10.4 10.4 0 1 0 0-20.7 10.4 10.4 0 0 0 0 20.7ZM57 32.4H27.8a3 3 0 0 0-3 3V54a18 18 0 0 0 17.6 18.4A18 18 0 0 0 59.9 54V35.5a3 3 0 0 0-2.9-3Z"/>
  <path fill="#000" d="M44 32.4v25.8a3 3 0 0 1-3 3H26.4a19 19 0 0 1-1.4-7.3V35.5a3 3 0 0 1 2.9-3H44Z" opacity=".1"/>
  <path fill="#000" d="M42.4 32.4v27.4c0 .4 0 .7-.2 1a3 3 0 0 1-2.7 1.9H27a20.7 20.7 0 0 1-1.3-3.2c-.6-1.8-.8-3.7-.8-5.6V35.5a3 3 0 0 1 2.9-3h14.6Z" opacity=".2"/>
  <path fill="#000" d="M42.4 32.4v24.2a3 3 0 0 1-3 3H25.8c-.6-2-.8-3.8-.8-5.7V35.5a3 3 0 0 1 2.9-3h14.6Z" opacity=".2"/>
  <path fill="#000" d="M40.8 32.4v24.2a3 3 0 0 1-3 3h-12c-.6-2-.8-3.8-.8-5.7V35.5a3 3 0 0 1 2.9-3h13Z" opacity=".2"/>
  <path fill="#000" d="M44 24.2v5h-1.6l-1.6-.3a10.4 10.4 0 0 1-7.7-7.6h8a3 3 0 0 1 2.9 2.9Z" opacity=".1"/>
  <path fill="#000" d="M42.4 25.8v3.4l-1.6-.3a10.4 10.4 0 0 1-7.2-6h5.9a3 3 0 0 1 2.9 2.9Z" opacity=".2"/>
  <path fill="#000" d="M42.4 25.8v3.4l-1.6-.3a10.4 10.4 0 0 1-7.2-6h5.9a3 3 0 0 1 2.9 2.9Z" opacity=".2"/>
  <path fill="#000" d="M40.8 25.8v3.1a10.4 10.4 0 0 1-7.2-6H38a3 3 0 0 1 2.9 2.9Z" opacity=".2"/>
  <path fill="url(#logo-msteams-a)" d="M8.6 22.8H38a3 3 0 0 1 2.9 3V55a3 3 0 0 1-3 3H8.7a3 3 0 0 1-2.9-3V25.8a3 3 0 0 1 3-3Z"/>
  <path fill="#fff" d="M31 34h-6v15.9h-3.7v-16h-5.8v-3H31v3Z"/>
  <defs>
    <linearGradient id="logo-msteams-a" x1="615" x2="2903.8" y1="-205.5" y2="3758.5" gradientUnits="userSpaceOnUse">
      <stop stop-color="#5A62C3"/>
      <stop offset=".5" stop-color="#4D55BD"/>
      <stop offset="1" stop-color="#3940AB"/>
    </linearGradient>
  </defs>
</svg>
