<svg xmlns="http://www.w3.org/2000/svg" fill="none" viewBox="0 0 80 80">
  <path fill="#fff" d="M40 58a18 18 0 1 0 0-36 18 18 0 0 0 0 36Z"/>
  <path fill="url(#logo-chrome-a)" d="M40 22h31.2a36 36 0 0 0-62.4 0l15.6 27A18 18 0 0 1 40 22Z"/>
  <path fill="#1A73E8" d="M40 54.2a14.2 14.2 0 1 0 0-28.4 14.2 14.2 0 0 0 0 28.4Z"/>
  <path fill="url(#logo-chrome-b)" d="M55.6 49 40 76a36 36 0 0 0 31.2-54H40a18 18 0 0 1 15.6 27Z"/>
  <path fill="url(#logo-chrome-c)" d="M24.4 49 8.8 22A36 36 0 0 0 40 76l15.6-27a18 18 0 0 1-31.2 0Z"/>
  <defs>
    <linearGradient id="logo-chrome-a" x1="8.8" x2="71.2" y1="26.5" y2="26.5" gradientUnits="userSpaceOnUse">
      <stop stop-color="#D93025"/>
      <stop offset="1" stop-color="#EA4335"/>
    </linearGradient>
    <linearGradient id="logo-chrome-b" x1="35.1" x2="66.3" y1="75.5" y2="21.5" gradientUnits="userSpaceOnUse">
      <stop stop-color="#FCC934"/>
      <stop offset="1" stop-color="#FBBC04"/>
    </linearGradient>
    <linearGradient id="logo-chrome-c" x1="43.9" x2="12.7" y1="73.8" y2="19.8" gradientUnits="userSpaceOnUse">
      <stop stop-color="#1E8E3E"/>
      <stop offset="1" stop-color="#34A853"/>
    </linearGradient>
  </defs>
</svg>
