<svg xmlns="http://www.w3.org/2000/svg" fill="none" viewBox="0 0 80 80">
  <path fill="#EB5424" d="M67.3 40c.8 0 1.5.6 1.4 1.4-1.6 15.8-18 28.5-25.2 33.4-.9.6-2-.1-1.9-1.1l1.2-11A27.1 27.1 0 0 1 65 40.5l2.2-.3Zm-54.8 0 2.4.4a27.1 27.1 0 0 1 22.3 22.4l1.2 11a1 1 0 0 1-1.7 1C29.5 70 12.8 57.2 11.3 41.2a1 1 0 0 1 1.2-1.2ZM43.6 5c8.8.7 17 3.6 21.6 5.4a6 6 0 0 1 3.6 5.5v17.6c0 1-.9 1.9-2 1.7l-1.7-.3a27.1 27.1 0 0 1-22.3-22.4l-1-5.5c-.1-1.1.8-2 1.8-2Zm-7.2 0c1 0 2 .9 1.8 2l-1 5.5a27.1 27.1 0 0 1-21.8 22.3l-.5.1-1.8.3c-1 .1-2-.6-2-1.7V16a6 6 0 0 1 3.7-5.5A74.6 74.6 0 0 1 36.4 5Z"/>
</svg>
