<svg xmlns="http://www.w3.org/2000/svg" fill="none" viewBox="0 0 80 80">
  <path fill="url(#logo-opera-a)" d="M40.4 4a36 36 0 0 0-1.7 72h1.7a36 36 0 0 0 24-9.2 26 26 0 0 1-35.8-6.5c-4-4.7-6.5-11.7-6.7-19.4v-1.7c.2-7.8 2.7-14.8 6.7-19.5a26 26 0 0 1 35.8-6.5C58 7.3 49.4 4 40.6 4h-.2Z"/>
  <path fill="url(#logo-opera-b)" d="M28.6 19.7c3.3-3.9 7.6-6.2 12.2-6.2 10.5 0 19 11.9 19 26.5s-8.5 26.5-19 26.5c-4.6 0-8.9-2.3-12.2-6.2a26 26 0 0 0 35.8 6.6 36 36 0 0 0 0-53.7A26 26 0 0 0 50 8.8a27 27 0 0 0-21.4 11"/>
  <defs>
    <linearGradient id="logo-opera-a" x1="34.6" x2="34.6" y1="5.1" y2="74.9" gradientUnits="userSpaceOnUse">
      <stop stop-color="#FF1B2D"/>
      <stop offset=".3" stop-color="#FF1B2D"/>
      <stop offset=".6" stop-color="#FF1B2D"/>
      <stop offset="1" stop-color="#A70014"/>
    </linearGradient>
    <linearGradient id="logo-opera-b" x1="52.7" x2="52.7" y1="9.2" y2="71" gradientUnits="userSpaceOnUse">
      <stop stop-color="#9C0000"/>
      <stop offset=".7" stop-color="#FF4B4B"/>
      <stop offset="1" stop-color="#FF4B4B"/>
    </linearGradient>
  </defs>
</svg>
