<svg xmlns="http://www.w3.org/2000/svg" viewBox="0 0 80 80"><path d="M70.5 27.2C58 34.8 59.7 52.7 72.7 58.7l-2 5.1A45.5 45.5 0 0 1 62.5 76a14.8 14.8 0 0 1-2.9 2.4 8.4 8.4 0 0 1-7.2 1.2 36.6 36.6 0 0 1-4-1.3 16.8 16.8 0 0 0-13.9 0 32.1 32.1 0 0 1-3.7 1.3 8.2 8.2 0 0 1-8-1.8 37.6 37.6 0 0 1-4.6-4.7A49.7 49.7 0 0 1 7.8 49.3a30 30 0 0 1 2.4-18.9 19.6 19.6 0 0 1 13.9-10.7 17.1 17.1 0 0 1 9.8 1l3.9 1.4a7.3 7.3 0 0 0 5.6 0 63.8 63.8 0 0 1 6.3-2.2c7.5-2 14-.1 19.5 5.4a8.8 8.8 0 0 1 .9 1.1 8 8 0 0 1 .4.8zM56.2 0a18.3 18.3 0 0 1-6.6 15.2 12 12 0 0 1-9.7 3.3C38.6 10.2 46.7.3 56.2 0z"/></svg>
