<svg xmlns="http://www.w3.org/2000/svg" fill="none" viewBox="0 0 80 80">
  <path fill="currentColor" d="M34.8.3A40 40 0 0 0 .4 33.4 40 40 0 0 0 4 57.1a35 35 0 0 0 7 10.5 39.7 39.7 0 0 0 29 12.3c3.2.1 6.5-.2 9.6-1a41.4 41.4 0 0 0 16-8c2.3-2.1 4.4-4.5 6.3-7A40 40 0 0 0 44.7.3a58 58 0 0 0-10 0ZM34 30l6 19.2L46 30l5.8-19.4c.1-.1 3.5 11 15 48.6l.2.7h-1.3c-1 0-1.4 0-1.4-.2l-.8-2.8c-1-5-3.2-9.8-6.6-13.8a12 12 0 0 0-2.2-1.4c-1.2-.6-1.2-.6-3.2-.6s-2 0-3 .5A15 15 0 0 0 44 46c-1.2 2-2.4 4.2-3.4 6.4-.7 1.4-.8 1.6-1 1.3-1-2.4-2.2-4.7-3.5-7-1.3-2-3-3.8-5.1-5-.9-.4-1.9-.6-2.8-.5-1.7-.1-3.4.4-4.7 1.5-3 2.2-5.6 7.5-8 16.8l-.2.7H14c-1 0-1.4 0-1.3-.2l7.6-25A622 622 0 0 1 28 10.5L34 30Z"/>
</svg>
