<svg xmlns="http://www.w3.org/2000/svg" viewBox="0 0 80 80"><defs><linearGradient id="a" x1="40" y1="-515.97" x2="40" y2="-442.9" gradientTransform="matrix(1 0 0 -1 0 -418)" gradientUnits="userSpaceOnUse"><stop offset="0" stop-color="#fff100"/><stop offset="1" stop-color="#f05a28"/></linearGradient></defs><path d="M76.69 35.29a28.77 28.77 0 0 0-.8-4.6 29.2 29.2 0 0 0-2.07-5.52A30.68 30.68 0 0 0 70 19.28q-1-1.14-2.1-2.25a11.61 11.61 0 0 0-1.36-8.35 12.31 12.31 0 0 0-8.06 2.07c-.17-.07-.34-.15-.51-.21-.73-.31-1.49-.58-2.26-.82s-1.57-.47-2.38-.66-1.63-.36-2.47-.49l-.44-.06A14.92 14.92 0 0 0 43.1 0 15.93 15.93 0 0 0 36 9.15s0 .12-.06.32l-1 .29c-.47.14-.92.31-1.38.47s-.91.36-1.37.56a26.5 26.5 0 0 0-2.68 1.31c-.86.48-1.69 1-2.51 1.58l-.21-.1a20.78 20.78 0 0 0-15.79.65 22.77 22.77 0 0 0 4.11 15.44c-.2.55-.38 1.1-.55 1.66a37.38 37.38 0 0 0-1.36 6.2c0 .3-.08.61-.11.92A20.6 20.6 0 0 0 3.15 50c6.42 7.38 13.9 7.84 13.9 7.84a33.61 33.61 0 0 0 3.29 4.82c.51.63 1.06 1.24 1.62 1.83a17.3 17.3 0 0 0 .33 12.26 19.87 19.87 0 0 0 12.83-3.91c.71.25 1.43.46 2.16.65a33 33 0 0 0 6.69 1H46.81c3.37 4.8 9.29 5.48 9.29 5.48 4.21-4.44 4.45-8.84 4.45-9.8v-.38a24.58 24.58 0 0 0 2.52-2 26.44 26.44 0 0 0 4.39-5.13l.33-.53a11.8 11.8 0 0 0 8.13-3 12.45 12.45 0 0 0-4.21-7.85l-.06-.05-.11-.07c0-.3 0-.59.07-.89v-4.05l-.05-.41-.06-.41c-.08-.55-.19-1.09-.31-1.63A20.47 20.47 0 0 0 64.64 33a20.18 20.18 0 0 0-10.73-4.9 20.89 20.89 0 0 0-2.84-.16h-.71L50 28h-.39a13.66 13.66 0 0 0-1.43.2 16.25 16.25 0 0 0-5.24 2 15.52 15.52 0 0 0-7.63 12.4v1.14a2.62 2.62 0 0 0 0 .28V44.88a12.5 12.5 0 0 0 .42 2.24A12 12 0 0 0 37.69 51a12.21 12.21 0 0 0 2.84 2.73 11.65 11.65 0 0 0 3.26 1.54 11.2 11.2 0 0 0 3.23.46h1.52l.38-.07.36-.07.69-.2a9 9 0 0 0 1.26-.53 9.7 9.7 0 0 0 1.1-.66l.28-.22a.82.82 0 0 0-.9-1.36l-.26.14a6.74 6.74 0 0 1-1 .39 10.53 10.53 0 0 1-1 .26l-.55.07h-1.71a8.86 8.86 0 0 1-2.41-.71 8.58 8.58 0 0 1-2.23-1.46 8.49 8.49 0 0 1-2.69-4.92 7.32 7.32 0 0 1-.09-1.48v-.78c0-.27.07-.54.11-.8a10.6 10.6 0 0 1 4.4-6.83 9.55 9.55 0 0 1 1.49-.85 10.58 10.58 0 0 1 1.63-.59 10.93 10.93 0 0 1 1.71-.3h1.79a12 12 0 0 1 1.88.29 13.33 13.33 0 0 1 3.57 1.35 13.1 13.1 0 0 1 5.34 5.54 12.84 12.84 0 0 1 1.21 3.73c.05.33.09.65.11 1v.5a2.09 2.09 0 0 1 0 .25v1.27c0 .36-.06.72-.1 1.08s-.11.7-.17 1.06-.14.69-.23 1a14.7 14.7 0 0 1-.66 2 17.35 17.35 0 0 1-2.08 3.77 17.07 17.07 0 0 1-6.64 5.44 16.71 16.71 0 0 1-4.13 1.1 15.81 15.81 0 0 1-2.16.22h-1.1l-1.16-.06a21.83 21.83 0 0 1-4.55-.82 22.5 22.5 0 0 1-11.33-7.57 23.21 23.21 0 0 1-2.48-3.83 22.84 22.84 0 0 1-1.63-4.22 21.68 21.68 0 0 1-.74-4.44v-2.21c0-.75.09-1.5.19-2.26s.23-1.52.38-2.28.34-1.51.55-2.24a28.76 28.76 0 0 1 1.58-4.25 23.21 23.21 0 0 1 4.85-7 19.57 19.57 0 0 1 1.53-1.36c.53-.42 1.08-.82 1.65-1.19a18.85 18.85 0 0 1 1.74-1c.3-.17.61-.3.91-.45l.46-.21.47-.19a18.1 18.1 0 0 1 1.91-.69l.49-.15c.16-.05.33-.08.49-.14l1-.25.5-.11.5-.1.51-.1h.5l.5-.08c.19 0 .38 0 .57-.08l.57-.07h4.35a25.75 25.75 0 0 1 3.76.42 26.43 26.43 0 0 1 6.82 2.27 27.33 27.33 0 0 1 5.57 3.64c.11.08.2.17.3.25l.3.26c.2.17.38.36.57.53s.37.35.55.53.37.36.53.54a28.54 28.54 0 0 1 1.89 2.21 27.93 27.93 0 0 1 2.81 4.39l.14.26c0 .09.08.18.13.27s.17.34.25.52.16.34.23.5.14.34.21.5c.28.67.53 1.3.73 1.89.33.95.58 1.82.77 2.58a.64.64 0 0 0 1.25-.14c-.06-1.11-.08-2.05-.17-3.14Z" fill="url(#a)"/></svg>