<svg xmlns="http://www.w3.org/2000/svg" fill="none" viewBox="0 0 80 80">
  <path fill="currentColor" d="M71.5 60.7a1 1 0 1 1-2 0 1 1 0 0 1 2 0Zm.5 0a1.5 1.5 0 1 0-1.5 1.4 1.4 1.4 0 0 0 1.5-1.5m-1.7.2h.2l.4.6h.3l-.3-.6a.4.4 0 0 0 .3-.4c0-.4-.3-.5-.6-.5H70v1.5h.3v-.6m0-.3v-.3h.2l.3.1c0 .2 0 .2-.2.2h-.3Zm-8-7.5 1.7 5h-3.6l1.8-5Zm-2-1.9-4.2 10.5h3l.6-1.8h5l.5 1.8h3.3l-4.2-10.5h-4Zm-8.4 10.5h3V51.1h-3v10.5ZM31.2 51.1l-2.6 8.3-2.3-8.4h-3.2l3.4 10.6h4.3l3.4-10.5h-3Zm12 2.2h1.3c2 0 3 .9 3 3 0 2.2-1 3-3 3h-1.2l-.1-6Zm-3-2.2v10.5h4.9c2.6 0 3.4-.4 4.3-1.4.7-.7 1-2.1 1-3.7.1-1.3-.2-2.6-.9-3.8-1-1.5-2.7-1.7-5-1.7l-4.3.1Zm-28.2 0v10.4h3v-8h2.3a2.3 2.3 0 0 1 1.7.7c.5.5.7 1.3.7 2.8v4.6h3v-5.9c0-4-2.8-4.7-5.3-4.7H12Zm23.5 0v10.4h3V51h-3Z"/>
  <path fill="#77B900" d="M20 30a16 16 0 0 1 11.5-6.2v-2.1c-8.5.7-15.8 7.9-15.8 7.9s4.2 12 15.8 13.1v-2.2C22.9 39.5 20 30 20 30Zm11.5 6.2v2c-6.5-1.1-8.3-7.9-8.3-7.9a14 14 0 0 1 8.3-4v2.2c-2.7-.4-4.8 2.3-4.8 2.3s1.2 4.2 4.9 5.4m0-18.3v3.8h.7c9.6-.5 16 7.8 16 7.8s-7.3 8.8-14.9 8.8c-.6 0-1.3 0-1.9-.2v2.3l1.6.2c7.1 0 12.1-3.6 17-7.8.8.6 4.2 2.2 4.9 3-6.5 4.2-14 6.7-21.8 7-.5 0-1.1 0-1.7-.2V46h26.7V17.9H31.6Zm0 8.4v-2.5h.7c7-.3 11.5 6 11.5 6s-5 6.7-10.2 6.7c-.7 0-1.4 0-2-.3v-7.7c2.7.3 3.2 1.5 4.8 4.2l3.6-3a9.6 9.6 0 0 0-7-3.5h-1.4Z"/>
</svg>
