<svg xmlns="http://www.w3.org/2000/svg" fill="none" viewBox="0 0 80 80">
  <path fill="#5FA04E" d="M37.1 1.9c1.8-1 4.3-1 6 0L72 18.5a6 6 0 0 1 3 5.3V57a6 6 0 0 1-3 5.2L43.2 79c-1 .3-2 .6-3 .6-1.2 0-2.2-.3-3.1-.8L27.5 73c-1.4-.8-.7-1-.3-1.2 2-.7 2.3-.8 4.3-2l.8.1 7.3 4.4c.3.2.7.2.9 0l28.8-16.6c.2-.2.4-.4.4-.8V23.7c0-.3-.2-.6-.4-.8L40.5 6.4c-.3-.2-.7-.2-.9 0L10.8 22.9c-.2.2-.4.5-.4.8V57c0 .3.2.6.4.8l8 4.5c4.2 2.2 6.8-.3 6.8-2.9V26.6c0-.4.4-.9.9-.9h3.7c.4 0 .8.4.8.9v32.7c0 5.7-3 9-8.5 9-1.6 0-3 0-6.6-1.8l-7.6-4.3a6 6 0 0 1-3-5.2V23.8a6 6 0 0 1 3-5.3L37.1 2Z"/>
  <path fill="#5FA04E" d="M48 24.7c9.2 0 13.8 3.2 14.3 10.1 0 .2 0 .4-.2.6-.1.2-.3.3-.6.3h-3.8a.8.8 0 0 1-.8-.6c-.8-4-3-5.3-9-5.3-6.6 0-7.4 2.3-7.4 4 0 2.2 1 2.8 9.9 4 8.8 1.1 13 2.8 13 9 0 6.3-5.2 9.9-14.3 9.9-12.7 0-15.2-5.8-15.2-10.7 0-.4.3-.8.8-.8h3.8c.4 0 .8.3.8.7.5 3.8 2.2 5.7 9.8 5.7 6.1 0 8.7-1.4 8.7-4.6 0-2-.7-3.3-10.2-4.2C39.8 42 35 40.3 35 34c0-5.8 4.9-9.3 13-9.3Z"/>
</svg>
