<svg xmlns="http://www.w3.org/2000/svg" xmlns:xlink="http://www.w3.org/1999/xlink" viewBox="0 0 80 80"><defs><linearGradient id="a" x1="8.09" y1="271.48" x2="73.27" y2="241.77" gradientTransform="translate(0 -208.95)" gradientUnits="userSpaceOnUse"><stop offset="0" stop-color="#905cfb"/><stop offset=".16" stop-color="#6677f8"/><stop offset=".38" stop-color="#3596f5"/><stop offset=".54" stop-color="#17a9f3"/><stop offset=".63" stop-color="#0cb0f2"/></linearGradient><linearGradient id="b" x1="34.64" y1="241.09" x2="1.21" y2="211.56" gradientTransform="translate(0 -208.95)" gradientUnits="userSpaceOnUse"><stop offset="0" stop-color="#905cfb"/><stop offset=".07" stop-color="#a554e6"/><stop offset=".25" stop-color="#d641b5"/><stop offset=".39" stop-color="#f43597"/><stop offset=".47" stop-color="#ff318c"/></linearGradient><linearGradient id="c" x1="5.7" y1="276" x2="84.62" y2="226.27" xlink:href="#a"/></defs><path d="M76.48 54.27l-15-14.41S72.7 28 75.68 25A11.48 11.48 0 0078 22 14.62 14.62 0 0056.59 2.94a16.63 16.63 0 00-2.18 1.83c-.34.46-15.88 14.63-29.37 27l25.26 16-26.52 29.81a12.51 12.51 0 01-4.92 2.18 2.41 2.41 0 00.92-.12c5.22-.8 50.22-8.34 52.35-8.8a9.69 9.69 0 006.52-4.46 9.33 9.33 0 00-2.17-12.11z" fill="url(#a)"/><path d="M52.47 34.83a11.62 11.62 0 00-4.34-7.43c-2.4-1.83-20.92-21-23-23.2a14.5 14.5 0 00-12.44-4 14.63 14.63 0 00-6.51 26.29c3 2.28 26.29 18.29 27.77 19.43a11.4 11.4 0 008.81 2.29 11.87 11.87 0 009.71-13.38z" fill="url(#b)"/><path d="M26.29 77.47c.12 0 26.64-29.83 26.64-29.83L26.18 30.72C16.69 39.4 7.89 47.29 5.83 49.24a18.14 18.14 0 00-3.43 4.22 17.61 17.61 0 006.4 24.12c3.43 1.95 11.2 4.35 17.49-.11z" fill="url(#c)"/><path d="M15.32 15.28H64.7v49.38H15.32z"/><path fill="#fff" d="M19.89 55.41h18.52v3.09H19.89zM27.21 34.15L19.44 21.8h5.25l4.81 8.12 5.02-8.12h5.15l-7.89 12.23v8.23h-4.57v-8.11zM47.56 25.92h-6.29V21.8H58.3v4.12h-6.29v16.34h-4.45V25.92z"/></svg>