<svg xmlns="http://www.w3.org/2000/svg" fill="none" viewBox="0 0 80 80">
  <path fill="#9FEAF9" d="M30.2 19.5c-9.4-1.7-16.8 0-19.8 5.2C8.2 28.5 8.8 33.6 12 39a1 1 0 1 0 1.7-1c-2.8-4.8-3.3-9.2-1.5-12.3 2.4-4.3 9-6 17.8-4.3a1 1 0 1 0 .3-2Zm14-8.8a4.6 4.6 0 1 1 .4-1.9c7.7 4 13 17.5 13 33A60.6 60.6 0 0 1 54.9 60a1 1 0 0 1-1.7-.9c1.6-5.1 2.5-11 2.5-17.3 0-14.6-4.9-27.3-11.6-31ZM11 54.2h.3a4.6 4.6 0 1 1-2.2.5c-.7-8.6 8.3-20.2 22-28a60.3 60.3 0 0 1 17.2-6.9 1 1 0 1 1 .4 1.9 58.3 58.3 0 0 0-16.6 6.6C19.2 35.7 10.7 46.5 11 54.2ZM64.6 61a4 4 0 0 1-.6-2.2 4.6 4.6 0 1 1 1.9 3.7c-7.4 4.3-21.4 2.1-34.7-5.5a60.4 60.4 0 0 1-14.4-11.4 1 1 0 0 1 1.5-1.3c3.6 4 8.4 7.9 13.9 11 12.5 7.2 25.6 9.4 32.4 5.7m-.3-16.5a1 1 0 0 1-1.5-1.3c5.7-6.7 7.6-13.2 5.2-17.5-1.8-3-5.8-4.8-11.3-4.9a1 1 0 1 1 0-1.9c6.1 0 10.8 2 13 5.8 2.9 5.2.7 12.5-5.4 19.8Zm-38.7 17a1 1 0 0 1 1.8-.7c3 8.3 7.7 13.3 12.6 13.3 3.6 0 7-2.6 9.8-7.2a1 1 0 1 1 1.7 1C48.4 73 44.4 76 40 76c-5.9 0-11.2-5.5-14.4-14.5Zm45.7-2.7a2.7 2.7 0 1 0-5.4 0 2.7 2.7 0 0 0 5.4 0m-59.9 2.7a2.7 2.7 0 1 0 0-5.4 2.7 2.7 0 0 0 0 5.4ZM40 11.3A2.7 2.7 0 1 0 40 6a2.7 2.7 0 0 0 0 5.4Zm.7 33.8a3.3 3.3 0 1 1-1.4-6.5 3.3 3.3 0 0 1 1.4 6.5"/>
</svg>
