<svg xmlns="http://www.w3.org/2000/svg" xmlns:xlink="http://www.w3.org/1999/xlink" viewBox="0 0 398.2 399"><clipPath id="g"><circle cx="199.1" cy="199.7" r="199.1"/></clipPath><linearGradient id="h" x1="-355.842" x2="-355.639" y1="-453.538" y2="-555.346" gradientTransform="matrix(1.0985 -.7522 -.8781 -1.2823 302.543 -830.126)" gradientUnits="userSpaceOnUse"><stop offset=".008" stop-color="#e20082" stop-opacity=".1"/><stop offset="1" stop-color="#e20082"/></linearGradient><radialGradient id="i" cx="-229.532" cy="1625.329" r="455.713" gradientTransform="matrix(-.7104 .7038 .948 .9568 -1397.608 -1420.79)" gradientUnits="userSpaceOnUse"><stop offset=".076" stop-color="#f37021"/><stop offset=".091" stop-color="#f5821f"/><stop offset=".116" stop-color="#f99d1c"/><stop offset=".171" stop-color="#f6852e"/><stop offset=".287" stop-color="#f2584f"/><stop offset=".398" stop-color="#ef3569"/><stop offset=".503" stop-color="#ec1c7c"/><stop offset=".598" stop-color="#eb0d87"/><stop offset=".675" stop-color="#ea088b"/></radialGradient><linearGradient id="a"><stop offset="0" stop-color="#f99d1c" stop-opacity=".2"/><stop offset=".554" stop-color="#f99d1c"/><stop offset="1" stop-color="#f99d1c" stop-opacity=".15"/></linearGradient><linearGradient xlink:href="#a" id="k" x1="-433.138" x2="-432.881" y1="-143.725" y2="-272.518" gradientTransform="rotate(-34.401 -945.54 -979.21)scale(1.3314 -2.1257)" gradientUnits="userSpaceOnUse"/><linearGradient id="l" x1="-446.509" x2="-446.253" y1="-351.442" y2="-480.235" gradientTransform="matrix(1.0985 -.7522 -.8803 -1.2855 277.801 -866.266)" gradientUnits="userSpaceOnUse"><stop offset=".503" stop-color="#e20082"/><stop offset="1" stop-color="#fff" stop-opacity="0"/></linearGradient><linearGradient id="m" x1="-498.244" x2="-498.034" y1="-302.684" y2="-407.99" gradientTransform="matrix(1.0985 -.7522 -.8803 -1.2855 277.801 -866.266)" gradientUnits="userSpaceOnUse"><stop offset=".076" stop-color="#e20082" stop-opacity=".1"/><stop offset="1" stop-color="#e20082"/></linearGradient><linearGradient id="o" x1="-458.655" x2="-458.452" y1="-379.025" y2="-481.137" gradientTransform="matrix(1.0985 -.7522 -.8803 -1.2855 277.801 -866.266)" gradientUnits="userSpaceOnUse"><stop offset=".037" stop-color="#e20082" stop-opacity=".1"/><stop offset="1" stop-color="#e20082"/></linearGradient><linearGradient id="p" x1="-526.684" x2="-526.428" y1="-43.814" y2="-171.974" gradientTransform="rotate(145.598 320.106 -237.904)scale(-1.3314 2.1373)" gradientUnits="userSpaceOnUse"><stop offset="0" stop-color="#f99d1c" stop-opacity=".2"/><stop offset=".453" stop-color="#f99d1c"/><stop offset="1" stop-color="#f99d1c" stop-opacity=".15"/></linearGradient><linearGradient id="b"><stop offset="0" stop-color="#e20082"/><stop offset=".772" stop-color="#e20082" stop-opacity=".1"/></linearGradient><linearGradient xlink:href="#b" id="q" x1="-461.128" x2="-460.872" y1="-319.857" y2="-448.016" gradientTransform="matrix(1.0985 -.7522 -.8743 -1.2767 300.434 -833.243)" gradientUnits="userSpaceOnUse"/><linearGradient id="r" x1="-452.492" x2="-452.237" y1="-580.93" y2="-709.089" gradientTransform="matrix(1.0985 -.7522 -.8743 -1.2767 300.434 -833.243)" gradientUnits="userSpaceOnUse"><stop offset=".213" stop-color="#e20082" stop-opacity=".1"/><stop offset="1" stop-color="#e20082"/></linearGradient><linearGradient xlink:href="#b" id="s" x1="-547.464" x2="-547.209" y1="-266.685" y2="-394.844" gradientTransform="matrix(1.0985 -.7522 -.8743 -1.2767 300.434 -833.243)" gradientUnits="userSpaceOnUse"/><linearGradient id="c"><stop offset="0" stop-color="#f99d1c" stop-opacity="0"/><stop offset="1" stop-color="#f99d1c"/></linearGradient><linearGradient xlink:href="#c" id="u" x1="-482.817" x2="-482.521" y1="-639.484" y2="-787.846" gradientTransform="rotate(145.598 280.146 -366.957)scale(-1.3314 1.4894)" gradientUnits="userSpaceOnUse"/><linearGradient xlink:href="#a" id="v" x1="-548.686" x2="-548.43" y1="-442.464" y2="-570.623" gradientTransform="rotate(145.598 271.968 -393.405)scale(-1.3314 2.1373)" gradientUnits="userSpaceOnUse"/><linearGradient xlink:href="#a" id="w" x1="-519.944" x2="-519.689" y1="-430.937" y2="-559.097" gradientTransform="rotate(145.598 271.968 -393.405)scale(-1.3314 2.1373)" gradientUnits="userSpaceOnUse"/><linearGradient id="x" x1="-582.342" x2="-582.087" y1="-568.985" y2="-697.145" gradientTransform="matrix(1.0985 -.7522 -.8743 -1.2767 300.434 -833.243)" gradientUnits="userSpaceOnUse"><stop offset=".228" stop-color="#e20082" stop-opacity=".1"/><stop offset="1" stop-color="#e20082"/></linearGradient><linearGradient id="y" x1="-650.452" x2="-650.197" y1="-478.136" y2="-606.295" gradientTransform="rotate(145.598 240.152 -496.174)scale(-1.3314 1.4972)" gradientUnits="userSpaceOnUse"><stop offset="0" stop-color="#f99d1c"/><stop offset="1" stop-color="#f99d1c" stop-opacity="0"/></linearGradient><linearGradient id="e"><stop offset="0" stop-color="#f99d1c" stop-opacity=".2"/><stop offset=".442" stop-color="#f99d1c"/><stop offset="1" stop-color="#f99d1c" stop-opacity=".15"/></linearGradient><linearGradient xlink:href="#e" id="A" x1="-585.411" x2="-585.156" y1="-242.231" y2="-370.39" gradientTransform="rotate(145.598 271.492 -394.93)scale(-1.3314 2.1358)" gradientUnits="userSpaceOnUse"/><linearGradient xlink:href="#e" id="B" x1="-345.913" x2="-345.658" y1="-334.04" y2="-462.199" gradientTransform="rotate(145.598 271.492 -394.93)scale(-1.3314 2.1358)" gradientUnits="userSpaceOnUse"/><linearGradient id="C" x1="-614.204" x2="-613.949" y1="-253.766" y2="-381.925" gradientTransform="rotate(145.598 271.492 -394.93)scale(-1.3314 2.1358)" gradientUnits="userSpaceOnUse"><stop offset="0" stop-color="#f99d1c" stop-opacity=".2"/><stop offset=".442" stop-color="#f99d1c"/><stop offset="1" stop-color="#f99d1c" stop-opacity=".15"/></linearGradient><linearGradient id="D" x1="-643.268" x2="-643.013" y1="-553.066" y2="-681.225" gradientTransform="rotate(145.598 255.635 -446.16)scale(-1.3314 1.564)" gradientUnits="userSpaceOnUse"><stop offset="0" stop-color="#e20082"/><stop offset=".767" stop-color="#e20082" stop-opacity=".1"/></linearGradient><linearGradient xlink:href="#c" id="E" x1="-657.497" x2="-657.204" y1="-576.582" y2="-723.731" gradientTransform="matrix(1.0985 -.7522 -.8419 -1.2294 213.77 -959.79)" gradientUnits="userSpaceOnUse"/><linearGradient id="f"><stop offset=".343" stop-color="#e20082" stop-opacity=".1"/><stop offset="1" stop-color="#e20082"/></linearGradient><linearGradient xlink:href="#f" id="F" x1="-387.885" x2="-387.591" y1="-602.131" y2="-749.28" gradientTransform="rotate(145.6 254.82 -448.723)scale(-1.3314 1.5604)" gradientUnits="userSpaceOnUse"/><linearGradient xlink:href="#f" id="G" x1="-641.934" x2="-641.641" y1="-605.911" y2="-753.06" gradientTransform="rotate(145.6 254.82 -448.723)scale(-1.3314 1.5604)" gradientUnits="userSpaceOnUse"/><g clip-path="url(#g)"><path fill="url(#h)" fill-rule="evenodd" d="m426.8 134.9-51 34.9L262.3 4l50.9-34.9z" clip-rule="evenodd" opacity=".4"/><circle cx="199.1" cy="199.1" r="199.1" fill="url(#i)"/><g fill-rule="evenodd" clip-rule="evenodd"><path fill="url(#k)" d="m265 80.7-51 34.9L58.7-111.1l51-34.9z" opacity=".444"/><path fill="url(#l)" d="m235.7 69.4-51 34.9L71-61.9l50.9-34.9z" opacity=".2"/><path fill="url(#m)" d="M116.8 17.8 65.9 52.7-47.9-113.4 3-148.3z" opacity=".2"/><path fill="url(#o)" d="m223.5 80.5-50.9 34.8L58.8-50.8l50.9-35z" opacity=".2"/><path fill="url(#p)" d="m105.8 68.6-51 34.9-156.1-228 50.9-34.9z" opacity=".444"/><path fill="url(#q)" d="m212.1 69.4-51 34.8-113-165 50.9-35z" opacity=".2"/><path fill="url(#r)" d="m449.8 396.2-50.9 34.9L285.8 266l51-34.9z" opacity=".2"/><path fill="url(#s)" d="m70.8 66.4-51 34.9-113-165.1 50.9-34.9z" opacity=".2"/><path fill="url(#u)" d="m462.4 486-51 34.9L302.6 362l51-34.9z" opacity=".444"/><path fill="url(#v)" d="m387.3 531.6-51 34.9-156.1-228 51-34.9z" opacity=".444"/><path fill="url(#w)" d="m405 489.7-51 34.9-156.1-228.1 50.9-34.9z" opacity=".444"/><path fill="url(#x)" d="m296.8 478.7-51 34.8-113-165.1 50.9-34.9z" opacity=".2"/><path fill="url(#y)" d="m-17.2 180.7-51 34.8-109.3-159.7 50.9-34.8z" opacity=".444"/><path fill="url(#A)" d="M103 203.1 52.1 238l-156-227.8 51-34.9z" opacity=".444"/><path fill="url(#B)" d="m477 184.8-51 34.8L270-8.2l50.9-34.9z" opacity=".444"/><path fill="url(#C)" d="m85.4 245.1-51 34.9-156-227.9 51-34.8z" opacity=".444"/><path fill="url(#D)" d="m136.4 388-51 34.9L-28.9 256l51-34.8z" opacity=".2"/><path fill="url(#E)" d="m126.4 406.9-50.9 34.9-108.9-158.9 51-34.9z" opacity=".444"/><path fill="url(#F)" d="m471.7 275.9-51 34.9-114-166.4 51-34.9z" opacity=".4"/><path fill="url(#G)" d="m195.9 471.9-51 34.9L31 340.3l51-34.9z" opacity=".4"/></g></g><g fill="#fff"><path d="M77.5 211.6c0 2-.4 3.9-1.3 5.7-.8 1.7-2.1 3.2-3.7 4.5-1.7 1.2-3.6 2.2-5.6 2.8-2.3.7-4.7 1.1-7.1 1-2.8 0-5.6-.4-8.2-1.2-2.7-1-5.2-2.3-7.3-4.2l4-6.6c1.6 1.4 3.3 2.6 5.2 3.6 1.5.7 3.1 1.1 4.7 1.2 1.7.1 3.4-.5 4.8-1.6 1.2-1 1.9-2.6 1.8-4.2q0-1.05-.3-2.1c-.3-1.05-.7-1.4-1.2-2-.7-.8-1.6-1.6-2.4-2.2-1-.8-2.3-1.8-4-3-1.2-.8-2.5-1.7-3.7-2.7-1.2-.9-2.2-1.9-3.2-3s-1.7-2.2-2.3-3.6-.9-2.9-.9-4.5c0-1.8.4-3.7 1.2-5.3s1.9-3 3.3-4.1c1.5-1.2 3.2-2.1 5.1-2.6 2.1-.7 4.2-1 6.4-.9 2.4 0 4.7.3 7.1 1 2.2.7 4.3 1.6 6.3 2.8l-3.7 5.9c-2.2-1.7-5-2.6-7.8-2.6-1.5-.1-3 .4-4.2 1.3-1.1.7-1.7 2-1.7 3.2s.5 2.5 1.4 3.4c1.6 1.5 3.2 2.9 5 4.2 2.4 1.7 4.3 3.3 5.9 4.6 1.3 1.1 2.6 2.3 3.7 3.7.8 1.1 1.5 2.2 1.9 3.5.7 1.3.8 2.7.8 4M118.9 200.6c0-5.2-1-9.2-3.1-12.2-1.8-2.8-5.1-4.6-8.5-4.4-3.6-.1-7 1.7-9 4.7-2.2 3.2-3.3 7.4-3.3 12.8 0 5.2 1.1 9.4 3.2 12.4 2 2.9 5.3 4.6 8.9 4.5 2 .1 4-.5 5.6-1.7 1.5-1.2 2.7-2.7 3.6-4.4.9-1.8 1.6-3.8 1.9-5.8.5-2 .7-4 .7-5.9m13.1-.5c.1 3.5-.5 6.9-1.7 10.2-1.1 3-2.7 5.7-4.7 8.1-4 4.7-9.9 7.3-16.1 7.3-1.3 0-2.7-.1-4.1-.4-1.2-.2-2.4-.7-3.5-1.2-1.2-.7-2.3-1.4-3.3-2.3-1.2-1.1-2.4-2.2-3.4-3.5V248H83v-70.2h12l.1 6.8c1.9-2.5 4.3-4.6 7.2-6 2.7-1.3 5.8-2 8.9-1.9 2.9 0 5.7.6 8.4 1.7 2.5 1.2 4.7 2.7 6.6 4.8 1.9 2.2 3.3 4.7 4.2 7.4 1.1 3 1.6 6.3 1.6 9.5M137.4 155.8h12.3v68.7h-12.3zM190.2 224.5v-6.2c-2.1 2.4-4.6 4.3-7.4 5.7-2.7 1.2-5.7 1.8-8.7 1.7-3.2.1-6.5-.7-9.3-2.2-2.5-1.5-4.5-3.7-5.5-6.5-.3-.7-.6-1.4-.7-2.2-.2-.7-.2-1.6-.4-2.6-.1-1-.2-2.1-.2-3.3-.1-1.2-.1-2.7-.1-4.6v-26.7h12.4v26.8c0 1.8.1 3.7.3 5.4.2 1.2.6 2.3 1.2 3.4 1.4 2.7 4 3.9 7.6 3.9 4.7 0 7.8-1.9 9.6-5.8q.6-1.65.9-3.3c.2-1.7.3-3.5.2-5.2v-25.2h12.6v46.9zM243.5 224.5v-26.7c0-1.8-.1-3.7-.3-5.4q-.3-1.8-1.2-3.3c-1.4-2.6-4-3.9-7.6-3.9-2.1-.1-4.2.4-5.9 1.4s-3 2.5-3.7 4.2c-.4 1.1-.7 2.2-.9 3.4-.2 1.7-.2 3.4-.2 5.1v25.2h-12.5v-46.8h12.4v6.2c2-2.3 4.5-4.3 7.3-5.7 2.7-1.2 5.7-1.8 8.7-1.7 3.2-.1 6.5.7 9.3 2.3 2.5 1.5 4.4 3.7 5.5 6.5.2.7.5 1.4.7 2.1.2.8.3 1.7.5 2.5.2 1.1.2 2.2.2 3.3 0 1.2.1 2.8.1 4.7v26.6zM295.5 225.4l-18.7-25.8v24.9h-12.5v-68.7h12.5v40.3h1.4l16.6-19.1 9.3 4-15.9 17 18.8 23.4zM319.1 223.3V215l29-14.3-29-14.1v-8.5l37.4 18.8v7.7zM322.7 166c2.3 0 4.2 1.8 4.2 4.2s-1.8 4.2-4.2 4.2c-2.3 0-4.2-1.8-4.2-4.2v-.1c0-2.1 1.8-4.1 4.2-4.1m0 .7c-2-.1-3.7 1.4-3.7 3.4-.1 2 1.4 3.7 3.4 3.7 2 .1 3.7-1.4 3.7-3.4v-.2c.1-1.9-1.4-3.5-3.4-3.5m-.8 6h-.7V168c.4-.1.9-.1 1.3-.1q.75 0 1.5.3c.3.2.4.6.4 1 0 .6-.4 1-.9 1.2.4.1.7.4.8 1.2 0 .4.2.7.3 1.2h-.7c-.2-.4-.2-.7-.3-1.2 0-.5-.4-.8-.9-.8h-.6zm0-2.7h.5c.6 0 1.2-.2 1.2-.8 0-.4-.3-.8-1.2-.8h-.5z"/></g></svg>