<svg xmlns="http://www.w3.org/2000/svg" fill="none" viewBox="0 0 80 80">
  <path fill="currentColor" d="M49.2 34.2c-3.8 2.2-3.3 7.6.6 9.4l-.6 1.5a13 13 0 0 1-2.4 3.7l-1 .7a2.5 2.5 0 0 1-2 .4 11 11 0 0 1-1.3-.4 5 5 0 0 0-4.1 0l-1.1.4a2.5 2.5 0 0 1-2.4-.6c-.6-.4-1-.9-1.4-1.4a15 15 0 0 1-3.2-7.1 9 9 0 0 1 .8-5.7 5.9 5.9 0 0 1 4.1-3.2c1-.2 2 0 3 .3l1.2.4a2.2 2.2 0 0 0 1.6 0l2-.6a5.7 5.7 0 0 1 6 2l.2.2ZM44.9 26a5.5 5.5 0 0 1-2 4.6 3.6 3.6 0 0 1-3 1C39.7 29 42 26 45 26Z"/>
  <rect width="58" height="78" x="11" y="1" stroke="currentColor" stroke-width="2" rx="2"/>
</svg>
