<svg xmlns="http://www.w3.org/2000/svg" viewBox="0 0 80 80"><defs><style>.b{fill:#fff}</style></defs><circle cx="40" cy="40" r="40" fill="#de4815"/><path class="b" d="M29.76 19.32L33.52 26A15.08 15.08 0 0143 24.85c6.58 1.34 11.13 6.15 12.38 12.88.06.35.46.91.72.91 2.31.07 4.63 0 7 0a22.82 22.82 0 00-6.35-14.55 1.63 1.63 0 00-1.3-.33 7.55 7.55 0 01-9.06-5.15 2 2 0 00-1.13-1.11 22.89 22.89 0 00-15.5 1.82zM31.18 52.74C27 49.48 24.61 45.31 24.61 40s2.39-9.48 6.58-12.7l-3.93-6.54A22.77 22.77 0 0018 33.24a2.09 2.09 0 00.38 1.67 7.33 7.33 0 010 10.15 1.58 1.58 0 00-.38 1.82 22.66 22.66 0 005.28 9c1.22 1.24 2.58 2.33 4 3.56zM63.14 41.4h-6.42c-.91 0-1.27.21-1.42 1.19a15.47 15.47 0 01-13.12 12.77 17 17 0 01-8.7-1.27l-3.7 6.64a22.87 22.87 0 0015.68 1.75 1.83 1.83 0 001-1.1 7.44 7.44 0 018.8-5.13 1.7 1.7 0 001.91-.63 23.32 23.32 0 005.97-14.22z"/><path class="b" d="M18.33 40A5.28 5.28 0 0013 34.67 5.35 5.35 0 007.66 40a5.41 5.41 0 005.41 5.44A5.35 5.35 0 0018.33 40zM53.51 21.94a5.36 5.36 0 10-5.24-5.42 5.25 5.25 0 005.24 5.42zM53.56 68.77a5.27 5.27 0 005.38-5.28 5.34 5.34 0 10-10.67-.07 5.21 5.21 0 005.29 5.35z"/></svg>