<svg xmlns="http://www.w3.org/2000/svg" viewBox="0 0 80 80"><defs><linearGradient id="a" x1="-48.23" y1="-18.35" x2="-47.96" y2="-18.35" gradientTransform="matrix(0 -300 -300 0 -5466.17 -14389.05)" gradientUnits="userSpaceOnUse"><stop offset="0" stop-color="#ff780b"/><stop offset="1" stop-color="#ffa322"/></linearGradient><style>.b{fill:#fff}</style></defs><path d="M62.44 80H17.56A17.56 17.56 0 010 62.44V17.56A17.56 17.56 0 0117.56 0h44.88A17.56 17.56 0 0180 17.56v44.88A17.56 17.56 0 0162.44 80z" fill="url(#a)"/><path class="b" d="M31 69.71l-.29-.09c-8.26-2.33-12.15-11.51-9.9-19a16.75 16.75 0 017-9.08c2.23-1.52 4.54-2.92 6.77-4.43a16.66 16.66 0 006.79-8.72c1.47-4.55 1-8.82-2.27-12.47a14.06 14.06 0 00-12.9-4.68c-6.5.84-11.36 4.28-14.88 9.71a7.8 7.8 0 00-.38.7 10.8 10.8 0 014.67-1.76A6.66 6.66 0 0123 25.07a8.35 8.35 0 01-1.67 6.83c-1.6 2.14-3.36 4.16-5.11 6.18-4 4.68-6.1 10-5.23 16.21a17.13 17.13 0 007.74 12.24c3.68 2.48 7.9 3.2 12.27 3.18M42 36.06a24.31 24.31 0 017 1.09 36.39 36.39 0 019.17 4.13 12.21 12.21 0 008.76 1.65 8 8 0 001.78-.54.85.85 0 00.44-.6 14.21 14.21 0 000-2.26 14.51 14.51 0 00-2.47-7 13.44 13.44 0 00-7.1-5.15 1 1 0 01-.78-.87 14.18 14.18 0 00-.55-1.93 8.12 8.12 0 00-2-3.23c-.19.23-.35.4-.48.59a11.23 11.23 0 00-1.92 6.6 1.64 1.64 0 01-.85 1.55c-1.51 1-3 2.09-4.55 2.93-2.11 1.12-4.32 2-6.48 3"/><path class="b" d="M50.19 64.8a18.29 18.29 0 001.05-6.21 15.53 15.53 0 00-16-15.85 11.34 11.34 0 00-10.66 7.15c5.87-6.2 15.41-4.34 19 1.25A12 12 0 0145.12 62c-1.32 3.87-4.17 6.26-7.91 7.72 7 0 13.94-.12 21.06-.76-1.73-3.43-4.81-3.92-8.08-4.17"/><path class="b" d="M69.34 50.25a3.4 3.4 0 00-1.65-2.76 8 8 0 00-3.87-1.1 17.53 17.53 0 01-7-2c-1.87-1-3.66-2.22-5.57-3.15a27.22 27.22 0 00-9.59-2.5 16.5 16.5 0 00-6.7.69 7.11 7.11 0 00-.75.33 2 2 0 00.76.11 19.53 19.53 0 017.5 1.21A21.31 21.31 0 0153.64 51a1.33 1.33 0 001 .81 23.16 23.16 0 003.52.2 11.57 11.57 0 004.21-1.4 8.49 8.49 0 015-.82c.61.09 1.21.25 1.94.42"/><path class="b" d="M31 69.71c-4.38 0-8.59-.7-12.27-3.18A17.12 17.12 0 0111 54.28c-.87-6.23 1.2-11.53 5.23-16.21 1.74-2 3.51-4 5.11-6.17A8.38 8.38 0 0023 25.06a6.68 6.68 0 00-7.35-5.13 11 11 0 00-4.67 1.76c.12-.23.23-.48.37-.7 3.53-5.43 8.38-8.87 14.88-9.7A14 14 0 0139.09 16c3.26 3.65 3.74 7.92 2.28 12.48a16.61 16.61 0 01-6.8 8.71c-2.22 1.52-4.54 2.92-6.76 4.44a16.77 16.77 0 00-7 9.07c-2.25 7.45 1.63 16.63 9.89 19l.3.09M42 36.06c2.16-1 4.37-1.92 6.47-3A53.47 53.47 0 0053 30.09a1.64 1.64 0 00.74-1.53A11.21 11.21 0 0155.65 22c.13-.19.29-.37.47-.59a7.93 7.93 0 012 3.22 14.6 14.6 0 01.55 1.93 1 1 0 00.77.88 13.42 13.42 0 017.1 5.14 14.42 14.42 0 012.48 7 15.36 15.36 0 010 2.25.84.84 0 01-.44.61 8.57 8.57 0 01-1.79.53 12.2 12.2 0 01-8.75-1.65 36.29 36.29 0 00-9.18-4.13A24.13 24.13 0 0042 36.06"/><path class="b" d="M50.19 64.8c3.27.25 6.35.74 8.09 4.17-7.13.64-14.08.74-21.07.76C41 68.27 43.8 65.88 45.12 62a12 12 0 00-1.45-10.86c-3.63-5.59-13.17-7.46-19-1.26A11.08 11.08 0 0127.21 46a11.34 11.34 0 018.08-3.26 15.53 15.53 0 0116 15.85 18.56 18.56 0 01-1.06 6.21"/><path class="b" d="M69.34 50.25c-.73-.16-1.33-.33-1.94-.43a8.48 8.48 0 00-5 .82A11.7 11.7 0 0158.16 52a23.09 23.09 0 01-3.52-.2 1.35 1.35 0 01-1-.81 21.35 21.35 0 00-11.21-10 19.7 19.7 0 00-7.49-1.21 1.94 1.94 0 01-.76-.11 8 8 0 01.74-.33 16.54 16.54 0 016.71-.69 27.38 27.38 0 019.58 2.5c1.92.93 3.71 2.12 5.58 3.15a17.32 17.32 0 007 2 8 8 0 013.88 1.1 3.35 3.35 0 011.65 2.77M33.5 49.62a8.52 8.52 0 108.5 8.52 8.54 8.54 0 00-8.5-8.52zm-.06 12.44a3.93 3.93 0 114-3.88 3.88 3.88 0 01-4 3.88z"/></svg>