<svg xmlns="http://www.w3.org/2000/svg" viewBox="0 0 80 80"><path d="M40 0c22.092 0 40 17.909 40 40 0 22.092-17.908 40-40 40C17.909 80 0 62.092 0 40 0 17.909 17.909 0 40 0Z"/><path fill="#fff" d="M17.653 14.771a1.953 1.953 0 0 1 3.77 1.018l-.012.047-2.656 9.844-.013.047a1.953 1.953 0 0 1-3.77-1.017l.012-.048 2.656-9.843.013-.048ZM51.783 16.632a1.953 1.953 0 0 1 3.77 1.018l-.012.047-2.087 7.734-.172-.129a21.865 21.865 0 0 0-3.297-2.009l1.785-6.614.013-.047ZM33.078 4.729a35.916 35.916 0 0 1 3.713-.525c.065.29.061.592-.01.88l-.012.048-2.656 9.844-.013.047a1.953 1.953 0 0 1-3.77-1.018l.012-.047 2.476-9.178.26-.051ZM60.712 12.938l.521-1.934.231.17a36.12 36.12 0 0 1 3.076 2.572l-.057.21-.013.047a1.953 1.953 0 0 1-3.77-1.018l.012-.047ZM44.837 8.016l.942-3.491.278.046a35.72 35.72 0 0 1 3.543.788l-.992 3.675-.013.047a1.953 1.953 0 0 1-3.77-1.018l.012-.047ZM36.721 60.902a1.954 1.954 0 0 1 3.606-.344l.058.286.092.46.063.318-.008.075c-.009.074-.022.148-.04.222l-.013.048-2.656 9.843-.013.047a1.953 1.953 0 0 1-3.77-1.017l.012-.047 2.656-9.844.013-.047ZM20.47 49.74c.034-.107.075-.209.123-.306a17.66 17.66 0 0 0 3.383 2.306l-2.409 8.925-.013.047a1.953 1.953 0 0 1-3.77-1.017l.012-.048 2.656-9.843.019-.065ZM11.878 39.444a1.953 1.953 0 0 1 3.77 1.017l-.012.048-2.657 9.844-.013.047a1.953 1.953 0 0 1-3.77-1.018l.012-.047 2.656-9.844.014-.047ZM71.437 37.209a1.953 1.953 0 0 1 3.77 1.017l-.012.047-2.656 9.844-.013.047a1.953 1.953 0 0 1-3.77-1.017l.012-.047 2.656-9.844.013-.047ZM4.303 35.821a35.688 35.688 0 0 1 4.171-13.087 1.953 1.953 0 0 1 1.85 2.415l-.012.047-2.656 9.844-.013.047a1.953 1.953 0 0 1-3.34.734ZM64.71 24.132a1.953 1.953 0 0 1 3.77 1.017l-.013.047-2.656 9.844-.013.047a1.953 1.953 0 0 1-3.77-1.017l.012-.048 2.656-9.843.013-.047ZM25.842 65.668a1.954 1.954 0 0 1 3.77 1.017l-.012.047-1.9 7.045-.266-.098a35.7 35.7 0 0 1-3.362-1.455l1.757-6.51.013-.046Z"/><path fill="#fff" fill-rule="evenodd" d="M38.438 22.642c-11.632 0-20.68 7.323-20.68 16.43 0 8.6 8.325 14.091 21.232 13.816 1.097-.023 1.414.714 1.771 1.708.3.834 1.026 4.662 1.704 8.24v.003l.379 1.992.099.517c.652 3.414 1.307 6.84 1.813 10.278 8.428-1.115 16.22-5.277 21.93-11.556l-6.09-22.713c-1.518-5.486-3.292-10.54-7.987-14.212-3.778-2.954-8.577-4.503-14.172-4.503Zm2.5 6.577a2.5 2.5 0 1 1 0 5 2.5 2.5 0 0 1 0-5Z" clip-rule="evenodd"/></svg>
