<svg xmlns="http://www.w3.org/2000/svg" viewBox="0 0 80 80"><rect width="80" height="80" rx="8"/><path d="m16.8 40 9 6.1a6.5 6.5 0 0 1 .8.7 1.4 1.4 0 0 1 .5 1v3.4a.8.8 0 0 1-.9.9h-.1a1.1 1.1 0 0 1-.3-.1l-14-9.5a4.1 4.1 0 0 1-.9-.7 1.4 1.4 0 0 1-.3-1v-1.6a1.4 1.4 0 0 1 .3-1 4.1 4.1 0 0 1 1-.7l14-9.4a1.1 1.1 0 0 1 .2-.1h.1a.8.8 0 0 1 .9.8v3.4a1.4 1.4 0 0 1-.5 1 6.5 6.5 0 0 1-.8.7zM44 23.8a2.5 2.5 0 0 1 .6-.8 1.6 1.6 0 0 1 1.2-.4h3a.9.9 0 0 1 .8.9 1 1 0 0 1 0 .3L36 56.3a2.5 2.5 0 0 1-.6.8 1.6 1.6 0 0 1-1.2.4h-2.8a.8.8 0 0 1-.7-.3.9.9 0 0 1-.2-.6 1 1 0 0 1 0-.3zM54.2 34a6.5 6.5 0 0 1-.9-.7 1.4 1.4 0 0 1-.4-1v-3.4a.8.8 0 0 1 .8-.9h.2a1.3 1.3 0 0 1 .3.1l14 9.5a4.1 4.1 0 0 1 .8.7 1.4 1.4 0 0 1 .3 1V41a1.4 1.4 0 0 1-.3 1 4.1 4.1 0 0 1-.8.7l-14 9.3a1.3 1.3 0 0 1-.3.1h-.2a.8.8 0 0 1-.8-.8v-3.4a1.4 1.4 0 0 1 .4-1 6.5 6.5 0 0 1 .9-.8l9-6z" fill="#fff"/></svg>
