<svg xmlns="http://www.w3.org/2000/svg" viewBox="0 0 80 80"><defs><style>.b{fill:#9386a0}</style></defs><path d="M40.57 33.94a2.86 2.86 0 012.11-1.2 3 3 0 01-.7 2.2 2.26 2.26 0 01-2 1 2.58 2.58 0 01.59-2zm-.48 2.74c.46 0 1.3-.64 2.4-.64a3 3 0 012.64 1.37A3 3 0 0043.67 40a3.05 3.05 0 001.81 2.79s-1.26 3.63-3 3.63c-.79 0-1.4-.54-2.23-.54s-1.68.56-2.23.56c-1.56 0-3.53-3.44-3.53-6.21s1.67-4.16 3.23-4.16c1.05.01 1.84.61 2.37.61z" fill-rule="evenodd" fill="#9386a0"/><path class="b" d="M54.18 80H25.82a5 5 0 01-5-5V5a5 5 0 015-5h28.36a5 5 0 015 5v70a5 5 0 01-5 5zM31.54 1.67h-5.72A3.34 3.34 0 0022.48 5v70a3.34 3.34 0 003.34 3.34h28.36A3.34 3.34 0 0057.52 75V5a3.34 3.34 0 00-3.34-3.34h-5.72v1.58a1.67 1.67 0 01-1.67 1.67H33.21a1.67 1.67 0 01-1.67-1.67z"/><path class="b" d="M38.1 1.67h2.33v.68H38.1zM41.23 1.67h.68v.68h-.68z"/></svg>