<svg viewBox="0 0 81 80" fill="none" xmlns="http://www.w3.org/2000/svg">
<g clip-path="url(#clip0)">
<path d="M80.3948 20C80.3948 8.95184 71.443 0 60.3948 0H20.3948C15.2795 0 10.1561 1.95063 6.2548 5.85998C-1.5558 13.6706 -1.5558 26.3294 6.2548 34.14L13.3774 41.2626C5.79345 44.1117 0.394829 51.4286 0.394829 60C0.394829 71.0482 9.34667 80 20.3948 80H60.3948C65.5102 80 70.6336 78.0494 74.5349 74.14C82.3455 66.3294 82.3455 53.6706 74.5349 45.86L67.4122 38.7374C74.9962 35.8964 80.3948 28.5795 80.3948 20ZM11.7425 68.6605C9.42761 66.3456 8.15687 63.278 8.15687 60.0081C8.15687 56.7382 9.42761 53.6625 11.7425 51.3557C13.9359 49.1623 16.8092 47.9077 19.8849 47.7782L44.3527 72.2461H20.3948C17.1249 72.238 14.0573 70.9672 11.7425 68.6605ZM69.0472 51.3476C71.362 53.6625 72.6328 56.7301 72.6328 60C72.6328 63.2699 71.362 66.3456 69.0472 68.6524C66.7323 70.9672 63.6648 72.238 60.3948 72.238C57.1249 72.238 54.0492 70.9672 51.7425 68.6524L11.7425 28.6605C9.42761 26.3456 8.15687 23.278 8.15687 20.0081C8.15687 16.7382 9.42761 13.6625 11.7425 11.3557C14.0573 9.04087 17.1249 7.77013 20.3948 7.77013C23.6648 7.77013 26.7404 9.04087 29.0472 11.3557L69.0472 51.3476ZM69.0472 28.6605C66.8538 30.8539 63.9804 32.1085 60.9047 32.238L36.4369 7.76204H60.3948C63.6648 7.76204 66.7404 9.03278 69.0472 11.3476C71.362 13.6625 72.6328 16.7301 72.6328 20C72.6328 23.2699 71.362 26.3456 69.0472 28.6605Z" fill="#58B1E4"/>
</g>
<defs>
<clipPath id="clip0">
<rect width="80" height="80" fill="white" transform="translate(0.394829)"/>
</clipPath>
</defs>
</svg>
