<svg viewBox="0 0 80 80" xmlns="http://www.w3.org/2000/svg"> <rect width="100%" height="100%" fill="#2D2D2D"/> <path d="M41.5292 8.41186C40.5501 7.87622 39.3878 7.87622 38.4091 8.41186L12.6544 22.8795C11.6756 23.4154 11.125 24.4274 11.125 25.4993V54.4936C11.125 55.5655 11.7367 56.5774 12.6544 57.1134L38.4091 71.581C39.3878 72.1166 40.5501 72.1166 41.5292 71.581L67.2835 57.1134C68.2626 56.5774 68.8129 55.5655 68.8129 54.4936V25.4993C68.8129 24.4274 68.2012 23.4154 67.2835 22.8795L41.5292 8.41186Z" fill="url(#paint0_linear_11_2098)"/> <path d="M67.3448 22.8796L41.4679 8.41201C41.2233 8.29295 40.9173 8.17388 40.6727 8.1145L11.6758 56.3991C11.9204 56.6966 12.2264 56.9348 12.5321 57.1135L38.4092 71.5811C39.1434 71.9977 39.9997 72.1168 40.7949 71.8786L68.0179 23.4156C67.8343 23.1775 67.5897 22.9987 67.3448 22.8796Z" fill="url(#paint1_linear_11_2098)"/> <path d="M67.3459 57.1129C68.08 56.696 68.6306 55.9816 68.8752 55.2075L40.551 8.0542C39.8172 7.93513 39.0217 7.99451 38.3489 8.4114L12.6553 22.8193L40.3675 71.9971C40.7346 71.9374 41.163 71.8183 41.5301 71.6399L67.3459 57.1129Z" fill="url(#paint2_linear_11_2098)"/> <linearGradient id="paint0_linear_11_2098" x1="50.4581" y1="19.1869" x2="28.174" y2="65.8969" gradientUnits="userSpaceOnUse"> <stop stop-color="#3F873F"/> <stop offset="0.3296" stop-color="#3F8B3D"/> <stop offset="0.6367" stop-color="#3E9638"/> <stop offset="0.9341" stop-color="#3DA92E"/> <stop offset="1" stop-color="#3DAE2B"/> </linearGradient> <linearGradient id="paint1_linear_11_2098" x1="36.0549" y1="43.3822" x2="100.132" y2="-5.26394" gradientUnits="userSpaceOnUse"> <stop offset="0.1376" stop-color="#3F873F"/> <stop offset="0.4016" stop-color="#52A044"/> <stop offset="0.7129" stop-color="#64B749"/> <stop offset="0.9081" stop-color="#6ABF4B"/> </linearGradient> <linearGradient id="paint2_linear_11_2098" x1="10.1817" y1="39.9865" x2="69.7766" y2="39.9865" gradientUnits="userSpaceOnUse"> <stop offset="0.0919165" stop-color="#6ABF4B"/> <stop offset="0.2871" stop-color="#64B749"/> <stop offset="0.5984" stop-color="#52A044"/> <stop offset="0.8624" stop-color="#3F873F"/> </linearGradient> </svg>
