<svg xmlns="http://www.w3.org/2000/svg" viewBox="0 0 80 80"><defs><linearGradient id="a" x1="82.08" y1="431.18" x2="42.32" y2="400.16" gradientTransform="matrix(1 0 0 -1 0 466)" gradientUnits="userSpaceOnUse"><stop offset=".18" stop-color="#0052cc"/><stop offset="1" stop-color="#2684ff"/></linearGradient></defs><path fill="none" d="M31.69 51.77h16.72l4.04-23.57H27.24l4.45 23.57z"/><path d="M2.6 4A2.57 2.57 0 000 6.56 3.4 3.4 0 000 7l10.91 66.06A3.49 3.49 0 0014.32 76h52.2a2.58 2.58 0 002.57-2.15L80 7a2.57 2.57 0 00-2.12-2.94 2.28 2.28 0 00-.45 0zm45.81 47.77H31.75L27.24 28.2h25.21z" fill="#2684ff"/><path d="M76.51 28.2H52.45l-4 23.57h-16.7L12.08 75.12a3.48 3.48 0 002.24.85h52.22a2.56 2.56 0 002.56-2.15z" fill="url(#a)"/></svg>