<svg xmlns="http://www.w3.org/2000/svg" viewBox="0 0 80 80"><title>logos</title><path d="M47.62,3.57a38.59,38.59,0,1,1-13.5-.31l0,.08L21.47,9.85s-.85,1,6.32,1.84v.41a31.74,31.74,0,1,0,25.89.66V11.69h0c7-.85,6.17-1.83,6.17-1.83Z" style="fill:#77add3"/><path d="M59.38,31c0-1.52-5.7-2.28-5.7-2.28v-16a31.76,31.76,0,0,1,3.76,55.18h0l-.61-9L55.72,42.62c3.11-.8,3.66-1.67,3.66-1.67Z" style="fill:#4a81ae"/><path d="M59.85,9.85s.84,1-6.17,1.83c-.71.08-1.5.17-2.38.25-5.18.49-10.64.65-10.64.65s-5.45-.16-10.63-.65c-.82-.08-1.56-.15-2.24-.24-7.17-.85-6.32-1.84-6.32-1.84L34.16,3.34,40.66,0l7,3.57Z" style="fill:#717166"/><path d="M55.72,42.62c-2.66.68-7.18,1.31-14.82,1.31h-.32c-8,0-12.54-.68-15.15-1.4C22.61,41.76,22.09,41,22.09,41V31c0,.71,1.24,1.59,4.88,2.63,0,0,4.53,1.14,13.61,1.2h.32c9.07-.06,13.6-1.2,13.6-1.2,3.64-1,4.88-1.92,4.88-2.63V41S58.83,41.82,55.72,42.62Z" style="fill:#f2e5ce"/><path d="M57.44,67.93h0a31.78,31.78,0,0,1-33.52.84L24.43,60a43.52,43.52,0,0,0,16.15,2.93A40.5,40.5,0,0,0,56.83,59Z" style="fill:#bf6f36"/><path d="M55.72,42.62,56.83,59a40.5,40.5,0,0,1-16.25,3.94A43.52,43.52,0,0,1,24.43,60l1-17.43c2.61.72,7.19,1.4,15.15,1.4h.32C48.54,43.93,53.06,43.3,55.72,42.62Z" style="fill:#cf8039"/><path d="M35,15.56a5.62,5.62,0,0,1,0,11.18,5.62,5.62,0,0,1,0-11.19Z" style="fill:#ffc65a"/><path d="M35.51,15.53a5.62,5.62,0,1,1,0,11.24,5.12,5.12,0,0,1-.56,0,5.62,5.62,0,0,0,0-11.18h0A5,5,0,0,1,35.51,15.53Z" style="fill:#daba6b"/><path d="M27.79,11.69c.68.09,1.42.16,2.24.24,5.18.49,10.63.65,10.63.65s5.46-.16,10.64-.65c.88-.08,1.67-.17,2.38-.25h0v17s5.7.76,5.7,2.28c0,.71-1.24,1.59-4.88,2.63,0,0-4.53,1.14-13.6,1.2h-.32C31.5,34.78,27,33.64,27,33.64c-3.64-1-4.88-1.92-4.88-2.63,0-1.52,5.7-2.28,5.7-2.28v-17Zm13.34,9.46a5.61,5.61,0,0,0-5.62-5.62,5,5,0,0,0-.55,0,5.62,5.62,0,0,0,0,11.19,5.12,5.12,0,0,0,.56,0A5.62,5.62,0,0,0,41.13,21.15Z" style="fill:#fefdf0"/><path d="M22.09,31V41s.52.81,3.34,1.58L24.43,60l-.51,8.82A31.75,31.75,0,0,1,27.79,12.1V28.73S22.09,29.49,22.09,31Z" style="fill:#4a81ae"/></svg>