<svg xmlns="http://www.w3.org/2000/svg" viewBox="0 0 80 80"><path d="M-.26 47.79c.32-.79.64-1.57 1-2.35q2.82-7 5.63-14a.26.26 0 01.29-.2H11a.25.25 0 01.27.17q3.59 8.1 7.18 16.19l.07.19h-4.25a.22.22 0 01-.25-.16l-1.21-2.94a.25.25 0 00-.28-.18h-7a.24.24 0 00-.27.18c-.35 1-.72 1.92-1.07 2.88a.29.29 0 01-.33.22H-.26zm9.11-12.57l-2.42 6.41h5.08zM79.74 48.91l-.17-.15-4.89-4.89a.42.42 0 01-.14-.35v-8.33h-8.33a.44.44 0 01-.34-.14L60.82 30h18.92zM60.66 49.11v-7.3a.49.49 0 01.16-.38l5-5a1.13 1.13 0 00.12-.18h.07v7.45h7.47l-.19.2c-1.7 1.7-3.4 3.39-5.09 5.09l-.06.08zM24.55 37.55v10.26h-4.1V31.28h3.4a.37.37 0 01.3.15l5 5.82.18.21a1.19 1.19 0 01.08-.16l5.09-5.88a.36.36 0 01.22-.13h3.47v16.52h-4.08V37.55l-.25.28-4 4.69a.66.66 0 01-.93 0q-2-2.34-4-4.7c-.08-.08-.15-.17-.22-.25zM41.38 47.81V31.28h7.71a9.58 9.58 0 015 1.36 7.49 7.49 0 013.57 5.43 9.08 9.08 0 01-.4 4.65 7.08 7.08 0 01-4 4.19 10.73 10.73 0 01-4.1.87h-7.65zm4.13-3h2.81a8.7 8.7 0 001.44-.16 4.42 4.42 0 003.4-2.79 6.19 6.19 0 00.38-2.89 5.29 5.29 0 00-.81-2.56 4.61 4.61 0 00-3.67-2c-1.16-.09-2.34 0-3.51 0z"/></svg>