<svg xmlns="http://www.w3.org/2000/svg" viewBox="0 0 80 80"><path fill="#9c8da9" d="M79.56 40 65.65 50.62l-.95-7.07-16.46-2.35 1.2-1.2-1.19-1.19 16.45-2.35.95-7.08L79.56 40z"/><path fill="#b5aabe" d="m67.98 12.03-2.33 17.35-5.68-4.33-14.56 10.92-1.38-1.37 10.93-14.56-4.34-5.68 17.36-2.33z"/><path fill="#857e90" d="m65.65 50.62 2.33 17.36-17.36-2.33 4.34-5.68-10.93-14.56 1.38-1.38 14.56 10.93 5.68-4.34z"/><path fill="#837492" d="m65.65 29.38-.95 7.08-16.45 2.35h-.01l-2.83-2.84 14.56-10.92 5.68 4.33zm-.95 14.17.95 7.07-5.68 4.34-14.56-10.93 2.83-2.83 16.46 2.35z"/><path fill="#a2f0ab" d="m50.62 14.36 4.34 5.68L44.03 34.6l-2.83-2.83 2.34-16.46 7.08-.95z"/><path fill="#494754" d="m44.03 45.41 10.93 14.56-4.34 5.68-7.08-.95-2.34-16.46 2.83-2.83z"/><path fill="#635e6c" d="M50.62 65.65 40 79.57 29.38 65.65l7.08-.95 2.34-16.46 1.2 1.2 1.2-1.2 2.34 16.46 7.08.95z"/><path fill="#b5f6bd" d="m40 .44 10.62 13.92-7.08.95-2.34 16.46-1.2-1.2-1.2 1.2-2.34-16.46-7.08-.95L40 .44z"/><path fill="#3c3647" d="m49.44 40-1.2 1.2-2.83 2.83-1.38 1.38-2.83 2.83-1.2 1.2-1.2-1.2-2.83-2.83-1.38-1.38-2.83-2.83-1.2-1.2 1.19-1.19h.01l2.83-2.84 1.38-1.37 2.83-2.83 1.2-1.2 1.2 1.2 2.83 2.83 1.38 1.37 2.83 2.84h.01L49.44 40z"/><path fill="#494754" d="M38.8 48.24 36.46 64.7l-7.08.95-4.34-5.68 10.93-14.56 2.83 2.83z"/><path fill="#a2f0ab" d="m36.46 15.31 2.34 16.46-2.83 2.83-10.93-14.56 4.34-5.68 7.08.95z"/><path fill="#7d8c8a" d="M35.97 45.41 25.04 59.97l4.34 5.68-17.36 2.33 2.33-17.36 5.68 4.34 14.56-10.93 1.38 1.38z"/><path fill="#a3dda8" d="M25.04 20.04 35.97 34.6l-1.38 1.37-14.56-10.92-5.68 4.33-2.33-17.35 17.36 2.33-4.34 5.68z"/><path fill="#7ea186" d="m34.59 35.97-2.83 2.84h-.01L15.3 36.46l-.95-7.08 5.68-4.33 14.56 10.92zm0 8.06L20.03 54.96l-5.68-4.34.95-7.07 16.46-2.35 2.83 2.83z"/><path fill="#98b89d" d="M31.76 41.2 15.3 43.55l-.95 7.07L.43 40l13.92-10.62.95 7.08 16.45 2.35L30.56 40l1.2 1.2z"/></svg>