<svg xmlns="http://www.w3.org/2000/svg" viewBox="10 10 60 60"><defs><linearGradient id="a" x1="71.61" y1="36.15" x2="41.78" y2="59.43" gradientUnits="userSpaceOnUse"><stop offset=".18" stop-color="#344563"/><stop offset="1" stop-color="#7a869a"/></linearGradient></defs><path fill="none" d="M33.81 48.88h12.55l3.03-17.68H30.47l3.34 17.68z"/><path d="M12 13.06a1.92 1.92 0 00-1.9 2.23l8.14 49.56A2.62 2.62 0 0020.78 67H60a1.93 1.93 0 001.9-1.62L70 15.3a1.92 1.92 0 00-1.9-2.23zm34.36 35.82H33.81L30.47 31.2h18.92z" fill="#7a869a"/><path d="M67.44 31.2h-18l-3 17.68H33.81L19.1 66.4a2.61 2.61 0 001.68.63H60a1.93 1.93 0 001.9-1.62z" fill="url(#a)"/></svg>