<svg xmlns="http://www.w3.org/2000/svg" viewBox="0 0 80 80"><path d="M80 34.34c-.33.64-.66 1.28-1 1.93-1.74 3.6-3.47 7.21-5.23 10.82a8.72 8.72 0 01-2.22 3.09 5 5 0 01-3 1 4.3 4.3 0 01-1.71-.18 1.75 1.75 0 01-1.12-2.57.14.14 0 000-.06c.33-.7.32-.69 1.08-.6a5.83 5.83 0 001.18.05 1.86 1.86 0 001.65-1.41.57.57 0 000-.26Q68.5 40.57 67.35 35c-.07-.34-.18-.67-.27-1a12 12 0 012.92-.23 4.75 4.75 0 011 .17 1.2 1.2 0 011 1.15c.11 1.53.23 3.07.29 4.61v3.26a78 78 0 012.88-8.8c.08-.21.2-.22.38-.22H80zM0 45.3c.18-.58.37-1.16.54-1.74.12-.37.22-.73.31-1.07.71.18 1.38.39 2.06.5A9.55 9.55 0 004.6 43c.3 0 .61-.09.7-.44s-.15-.58-.43-.72-.71-.31-1.06-.46-.55-.21-.82-.33a3.09 3.09 0 01-1.87-4 4.47 4.47 0 014-3.32 9 9 0 013.47.19l.2.06a1.66 1.66 0 011.21 2.5v.06a3.31 3.31 0 01-.51.91c-.3.26-.64-.09-1-.15a6.26 6.26 0 00-2.36-.17c-.29 0-.56.13-.63.47a.57.57 0 00.41.63c.46.22.94.38 1.4.6a11 11 0 011.45.74 2.62 2.62 0 011.14 2.9 4.57 4.57 0 01-3.73 3.7 9.82 9.82 0 01-5.86-.56L0 45.5zM11.85 34h3.34l.31 1.57.5-.57a4.52 4.52 0 013.66-1.29 3.32 3.32 0 012.76 2.57 8.9 8.9 0 01.13 4 9.37 9.37 0 01-1.17 3.39 5 5 0 01-4.85 2.58 2.32 2.32 0 01-1.7-.94l-.78 5.55h-4.6zm6.25 5c0-.21 0-.49-.08-.77a1.15 1.15 0 00-1.88-.81.63.63 0 00-.23.38c-.23 1.59-.46 3.18-.67 4.77-.09.6.07.75.69.73H16a1.72 1.72 0 001.48-1.23A9.25 9.25 0 0018.1 39zM51.05 43.63a2.21 2.21 0 01-1.49 2.44 4.12 4.12 0 01-2.64.1A2 2 0 0145.46 44c0-.89.18-1.77.29-2.66s.23-1.84.32-2.76a1 1 0 00-.52-1 1.17 1.17 0 00-1.22.12.56.56 0 00-.23.35c-.31 2.17-.6 4.35-.9 6.53l-.21 1.49h-4.61c.56-4 1.13-8.07 1.69-12.13h2.59c.78 0 .78 0 .87.77 0 .34.09.68.12.86.27-.22.61-.47.92-.74a4.47 4.47 0 013.63-1.08 2.89 2.89 0 012.55 2.61 9.81 9.81 0 01-.1 3c-.15 1.07-.31 2.13-.44 3.2-.09.79.07.98.84 1.07z"/><path d="M65.94 43.63a2.17 2.17 0 01-.71 1.95 3.82 3.82 0 01-3.88.41 2.13 2.13 0 01-1-2.1c0-.82.16-1.62.27-2.43.34-2.5.7-5 1.05-7.5.22-1.54.45-3.09.66-4.64.05-.4 0-.81.09-1.21 0-.1.12-.26.2-.27a9 9 0 013.4 0c.78.19 1 .54 1 1.34-.23 1.66-.47 3.32-.7 5q-.54 3.72-1.06 7.46c0 .31-.1.63-.13.94-.13.77-.03.95.81 1.05zM57.93 37c-.16 1.07-.3 2.08-.44 3.1-.09.6-.17 1.19-.26 1.79-.11.75.12 1 .88 1h.94c0 .54 0 1.1-.09 1.66 0 .25-.05.5 0 .75a.41.41 0 01-.33.46 8.67 8.67 0 01-4.07.47 2.15 2.15 0 01-2-2.16 14.77 14.77 0 01.23-3.18c.19-1.29.37-2.58.56-3.91h-1.52c.08-.59.15-1.15.24-1.7 0-.29 0-.66.18-.84a1.29 1.29 0 01.82-.24 1.41 1.41 0 001.42-1.28 14.54 14.54 0 01.61-1.83c0-.1.17-.23.26-.23H58.79l-.42 3h2.08L60 37zM27.68 34l.31 1.6.26-.29a4.5 4.5 0 013.53-1.6 1 1 0 011.08 1.07 5.83 5.83 0 01-.26 1.36 4.4 4.4 0 01-.33.82c-.16.35-.35.7-.54 1.08l-.82-.21a4.15 4.15 0 00-2.21.07.47.47 0 00-.38.44c-.32 2.38-.65 4.76-1 7.14-.09.66-.08.66-.76.66h-3.92L24.33 34zM32.22 46.05c.08-.65.17-1.28.26-1.92.37-2.66.76-5.33 1.12-8a2.86 2.86 0 01.81-1.89A2.29 2.29 0 0137 33.9a2.26 2.26 0 011.22 2.31c-.44 3.19-.89 6.39-1.33 9.58 0 .16 0 .31-.26.31h-4.25zM36.38 32.12h-.39a1.51 1.51 0 01-1.56-1.7 2.4 2.4 0 012.47-2.58 3.64 3.64 0 01.74 0A1.77 1.77 0 0139.16 30a2.46 2.46 0 01-2.78 2.12z"/><path d="M18.1 39a9.25 9.25 0 01-.59 3.06A1.72 1.72 0 0116 43.29h-.1c-.62 0-.78-.13-.69-.73.21-1.59.44-3.18.67-4.77a.63.63 0 01.23-.38 1.15 1.15 0 011.88.81c.08.29.09.57.11.78z" fill="#fff"/></svg>