<svg xmlns="http://www.w3.org/2000/svg" viewBox="0 0 80 80"><path fill="#512bd4" d="M0 0h80v80H0z"/><path d="M14.2 51.2a2 2 0 0 1-1.4-.6 1.8 1.8 0 0 1-.6-1.4 1.9 1.9 0 0 1 .6-1.4 2 2 0 0 1 1.4-.5 2 2 0 0 1 1.5.5 1.9 1.9 0 0 1 .6 1.4 1.8 1.8 0 0 1-.6 1.4 2 2 0 0 1-1.5.6zm22.6-.3h-3.6l-9.7-15.3a6.8 6.8 0 0 1-.6-1.2h-.1a23 23 0 0 1 .1 2.8V51h-3.2V30h3.9L32.9 45l.8 1.3a19.5 19.5 0 0 1-.1-2.8V30h3.2zm15.9 0H41.3V30h11V33h-7.6v5.9h7v2.9h-7V48h8zM68.9 33H63v17.9h-3.3V33h-5.8v-3h15z" style="fill:#fff"/></svg>
