<svg xmlns="http://www.w3.org/2000/svg" xmlns:xlink="http://www.w3.org/1999/xlink" viewBox="0 0 80 80"><defs><linearGradient id="a" x1="8.09" y1="271.48" x2="73.27" y2="241.77" gradientTransform="translate(0 -208.95)" gradientUnits="userSpaceOnUse"><stop offset="0" stop-color="#905cfb"/><stop offset="0.16" stop-color="#6677f8"/><stop offset="0.38" stop-color="#3596f5"/><stop offset="0.54" stop-color="#17a9f3"/><stop offset="0.63" stop-color="#0cb0f2"/></linearGradient><linearGradient id="b" x1="34.64" y1="241.09" x2="1.21" y2="211.56" gradientTransform="translate(0 -208.95)" gradientUnits="userSpaceOnUse"><stop offset="0" stop-color="#905cfb"/><stop offset="0.07" stop-color="#a554e6"/><stop offset="0.25" stop-color="#d641b5"/><stop offset="0.39" stop-color="#f43597"/><stop offset="0.47" stop-color="#ff318c"/></linearGradient><linearGradient id="c" x1="5.7" y1="276" x2="84.62" y2="226.27" xlink:href="#a"/></defs><title>logos</title><path d="M76.48,54.27l-15-14.41S72.7,28,75.68,25A11.48,11.48,0,0,0,78,22,14.62,14.62,0,0,0,56.59,2.94a16.63,16.63,0,0,0-2.18,1.83c-.34.46-15.88,14.63-29.37,27l25.26,16L23.78,77.58a12.51,12.51,0,0,1-4.92,2.18,2.41,2.41,0,0,0,.92-.12C25,78.84,70,71.3,72.13,70.84a9.69,9.69,0,0,0,6.52-4.46A9.33,9.33,0,0,0,76.48,54.27Z" style="fill:url(#a)"/><path d="M52.47,34.83a11.62,11.62,0,0,0-4.34-7.43c-2.4-1.83-20.92-21-23-23.2A14.5,14.5,0,0,0,12.69.2,14.63,14.63,0,0,0,6.18,26.49c3,2.28,26.29,18.29,27.77,19.43a11.4,11.4,0,0,0,8.81,2.29A11.87,11.87,0,0,0,52.47,34.83Z" style="fill:url(#b)"/><path d="M26.29,77.47c.12,0,26.64-29.83,26.64-29.83L26.18,30.72C16.69,39.4,7.89,47.29,5.83,49.24A18.14,18.14,0,0,0,2.4,53.46,17.61,17.61,0,0,0,8.8,77.58C12.23,79.53,20,81.93,26.29,77.47Z" style="fill:url(#c)"/><rect x="15.32" y="15.28" width="49.38" height="49.38"/><rect x="19.89" y="55.41" width="18.52" height="3.09" style="fill:#fff"/><polygon points="27.21 34.15 19.44 21.8 24.69 21.8 29.5 29.92 34.52 21.8 39.67 21.8 31.78 34.03 31.78 42.26 27.21 42.26 27.21 34.15" style="fill:#fff"/><polygon points="47.56 25.92 41.27 25.92 41.27 21.8 58.3 21.8 58.3 25.92 52.01 25.92 52.01 42.26 47.56 42.26 47.56 25.92" style="fill:#fff"/></svg>