<svg viewBox="0 0 80 80" xmlns="http://www.w3.org/2000/svg"> <path d="M42.0052 0.514739C40.7814 -0.154815 39.3285 -0.154815 38.1051 0.514739L5.91169 18.5993C4.68826 19.2692 4 20.5341 4 21.874V58.1169C4 59.4568 4.7646 60.7217 5.91169 61.3916L38.1051 79.4761C39.3285 80.1457 40.7814 80.1457 42.0052 79.4761L74.1982 61.3916C75.422 60.7217 76.1099 59.4568 76.1099 58.1169V21.874C76.1099 20.5341 75.3453 19.2692 74.1982 18.5993L42.0052 0.514739Z" fill="url(#paint0_linear_70_3825)"/> <path d="M74.2748 18.5996L41.9287 0.515077C41.6229 0.366244 41.2404 0.217412 40.9347 0.143188L4.68848 60.4989C4.99424 60.8708 5.37673 61.1685 5.75883 61.3919L38.1053 79.4765C39.023 79.9972 40.0933 80.146 41.0873 79.8484L75.1161 19.2696C74.8867 18.9719 74.5809 18.7485 74.2748 18.5996Z" fill="url(#paint1_linear_70_3825)"/> <path d="M74.2763 61.3911C75.194 60.87 75.8823 59.977 76.188 59.0094L40.7828 0.06775C39.8655 -0.0810828 38.8711 -0.00686164 38.0301 0.514246L5.91309 18.5242L40.5533 79.9964C41.0122 79.9218 41.5478 79.7729 42.0066 79.5499L74.2763 61.3911Z" fill="url(#paint2_linear_70_3825)"/> <linearGradient id="paint0_linear_70_3825" x1="53.1664" y1="13.9835" x2="25.3113" y2="72.371" gradientUnits="userSpaceOnUse"> <stop stop-color="#3F873F"/> <stop offset="0.3296" stop-color="#3F8B3D"/> <stop offset="0.6367" stop-color="#3E9638"/> <stop offset="0.9341" stop-color="#3DA92E"/> <stop offset="1" stop-color="#3DAE2B"/> </linearGradient> <linearGradient id="paint1_linear_70_3825" x1="35.1624" y1="44.2279" x2="115.259" y2="-16.5799" gradientUnits="userSpaceOnUse"> <stop offset="0.1376" stop-color="#3F873F"/> <stop offset="0.4016" stop-color="#52A044"/> <stop offset="0.7129" stop-color="#64B749"/> <stop offset="0.9081" stop-color="#6ABF4B"/> </linearGradient> <linearGradient id="paint2_linear_70_3825" x1="2.82113" y1="39.9832" x2="77.3147" y2="39.9832" gradientUnits="userSpaceOnUse"> <stop offset="0.0919165" stop-color="#6ABF4B"/> <stop offset="0.2871" stop-color="#64B749"/> <stop offset="0.5984" stop-color="#52A044"/> <stop offset="0.8624" stop-color="#3F873F"/> </linearGradient> </svg>
