<svg xmlns="http://www.w3.org/2000/svg" viewBox="0 0 80 80"><defs><style>.b{fill:#9386a0}</style></defs><path d="M40.6 34a2.9 2.9 0 0 1 2-1.3A3 3 0 0 1 42 35a2.3 2.3 0 0 1-2 1 2.6 2.6 0 0 1 .6-2zm-.5 2.7c.5 0 1.3-.7 2.4-.7a3 3 0 0 1 2.6 1.4 3 3 0 0 0-1.4 2.6 3 3 0 0 0 1.8 2.8s-1.3 3.6-3 3.6c-.8 0-1.4-.5-2.2-.5s-1.7.5-2.3.5c-1.5 0-3.5-3.4-3.5-6.2s1.7-4.1 3.2-4.1c1 0 1.9.6 2.4.6z" fill-rule="evenodd" fill="#9386a0"/><path class="b" d="M54.2 80H25.8a5 5 0 0 1-5-5V5a5 5 0 0 1 5-5h28.4a5 5 0 0 1 5 5v70a5 5 0 0 1-5 5zM31.5 1.7h-5.7A3.3 3.3 0 0 0 22.5 5v70a3.3 3.3 0 0 0 3.3 3.3h28.4a3.3 3.3 0 0 0 3.3-3.3V5a3.3 3.3 0 0 0-3.3-3.3h-5.7v1.5A1.7 1.7 0 0 1 46.8 5H33.2a1.7 1.7 0 0 1-1.7-1.7z"/><path class="b" d="M38.1 1.7h2.3v.7h-2.3zm3.1 0h.7v.7h-.7z"/></svg>
