<svg xmlns="http://www.w3.org/2000/svg" viewBox="0 0 80 80"><path fill="#4d4d4d" fill-rule="evenodd" d="M0 66.73h17.36l1.25-14.88-16.13-3.72L0 66.73zm3.1-21.08 15.51 3.72 3.72-13.03L9.3 29.52 3.1 45.65zm7.44-18.61 12.41 6.82 9.92-6.82-9.3-10.54-13.03 10.54zM80 66.73H62.64L61.4 51.85l16.12-3.72L80 66.73zm-3.1-21.08-15.5 3.72-3.73-13.03 13.03-6.82 6.2 16.13zm-7.44-18.61-12.41 6.82-9.92-6.82 9.31-10.54 13.02 10.54zm-42.79-12.4 9.3 11.16h8.68l8.06-11.16-8.06-2.48h-8.9l-9.08 2.48z"/><path fill="#9c0000" fill-rule="evenodd" d="M0 66.73h17.36l1.25-14.88-16.13-3.72L0 66.73z"/><path fill="#b50808" fill-rule="evenodd" d="m3.1 45.65 15.51 3.72 3.72-13.03L9.3 29.52 3.1 45.65z"/><path fill="#c61818" fill-rule="evenodd" d="m10.54 27.04 12.41 6.82 9.92-6.82-9.3-10.54-13.03 10.54z"/><path fill="#9c0000" fill-rule="evenodd" d="M80 66.73H62.64L61.4 51.85l16.12-3.72L80 66.73z"/><path fill="#b50808" fill-rule="evenodd" d="m76.9 45.65-15.5 3.72-3.73-13.03 13.03-6.82 6.2 16.13z"/><path fill="#c61818" fill-rule="evenodd" d="m69.46 27.04-12.41 6.82-9.92-6.82 9.31-10.54 13.02 10.54z"/><path fill="#ce3129" fill-rule="evenodd" d="m26.67 14.64 9.3 11.16h8.68l8.06-11.16-8.06-2.48h-8.9l-9.08 2.48z"/></svg>