<svg xmlns="http://www.w3.org/2000/svg" fill="none" viewBox="0 0 80 80">
  <path fill="#DE4815" d="M40.3 80a40 40 0 1 0 0-80 40 40 0 0 0 0 80Z"/>
  <path fill="#fff" d="M53.9 68.8h-.1Zm0-10.6a5.3 5.3 0 1 1 0 10.6 5.2 5.2 0 0 1-5.3-5.3 5.3 5.3 0 0 1 5.3-5.3Z"/>
  <path fill="#fff" d="M63.5 41.4a23.3 23.3 0 0 1-6 14.2 1.7 1.7 0 0 1-2 .6 7.4 7.4 0 0 0-8.7 5.2 1.8 1.8 0 0 1-1 1.1 23 23 0 0 1-15.7-1.8l3.7-6.6a15.5 15.5 0 0 0 21.8-11.5c0-1 .5-1.2 1.4-1.2h6.5Zm-32-14.1a15.6 15.6 0 0 0 0 25.4l-4 6.7-4-3.5a22.7 22.7 0 0 1-5.2-9 1.6 1.6 0 0 1 .4-1.8 7.3 7.3 0 0 0 0-10.2 2 2 0 0 1-.4-1.7c1.5-5 4.7-9.5 9.2-12.4l4 6.5Z"/>
  <path fill="#fff" d="M13.3 34.7a5.3 5.3 0 0 1 5.3 5.3 5.3 5.3 0 0 1-5.2 5.4A5.4 5.4 0 0 1 8 40a5.3 5.3 0 0 1 5.3-5.3ZM30 19.2c4.9-2.4 10.3-3 15.6-1.8a2 2 0 0 1 1 1.1 7.5 7.5 0 0 0 9.2 5.2 1.6 1.6 0 0 1 1.3.3c3.8 4 6 9.2 6.3 14.7h-7c-.3 0-.7-.6-.7-1a15.5 15.5 0 0 0-12.4-12.8 15 15 0 0 0-9.5 1.1L30 19.3v-.1Z"/>
  <path fill="#fff" d="M52 11.6A5.4 5.4 0 1 1 53.8 22v-.1a5.3 5.3 0 0 1-4.3-8.4c.6-.9 1.5-1.5 2.5-2Z"/>
</svg>
