<svg id="b6f7989c-0fd1-4d72-beda-f53233e47099" data-name="Logos" xmlns="http://www.w3.org/2000/svg" viewBox="0 0 80 80"><title>logos</title><path d="M.76,28s-1.95-1.41.39-3.28L6.6,19.88a2.32,2.32,0,0,1,3.21-.22L60.08,57.73V76s0,2.86-3.71,2.55Z" style="fill:#2489ca"/><path d="M13.72,39.79.76,51.57s-1.33,1,0,2.76l6,5.47s1.43,1.54,3.54-.21L24.05,49.18Z" style="fill:#1070b3"/><path d="M36.47,39.89,60.23,21.74,60.08,3.59s-1-4-4.4-1.9L24.05,30.47Z" style="fill:#0877b9"/><path d="M56.37,78.55a3.29,3.29,0,0,0,3.06,1L78,70.37c2.37-1.61,2-3.62,2-3.62V12.26A3.63,3.63,0,0,0,77.53,9L61.48,1.3c-3.51-2.17-5.8.39-5.8.39s3-2.13,4.4,1.9V75.64a3.25,3.25,0,0,1-.32,1.42c-.42.86-1.34,1.65-3.54,1.32Z" style="fill:#3c99d4"/></svg>