<svg width="128" height="138" viewBox="0 0 128 138" fill="none" xmlns="http://www.w3.org/2000/svg">
<path fill-rule="evenodd" clip-rule="evenodd" d="M128 4C128 1.79086 126.209 0 124 0H4C1.79086 0 0 1.79086 0 4V134C0 136.209 1.79086 138 4 138H124C126.209 138 128 136.209 128 134V4ZM54.4422 48.6447C57.2822 51.6645 60.8323 53.1745 65.0923 53.1745C69.2509 53.1745 72.6995 51.6645 75.438 48.6447C78.278 45.6248 79.6981 41.9039 79.6981 37.482C79.6981 33.06 78.278 29.3391 75.438 26.3193C72.6995 23.2994 69.2509 21.7895 65.0923 21.7895C60.8323 21.7895 57.2822 23.2994 54.4422 26.3193C51.7037 29.3391 50.3344 33.06 50.3344 37.482C50.3344 41.9039 51.7037 45.6248 54.4422 48.6447ZM77.6076 72.7421C75.6036 68.7607 72.4189 66.2765 68.0536 65.2896C64.0851 64.3924 60.4664 65.1179 57.1974 67.4662C53.9283 69.8145 51.8616 73.1514 50.9972 77.4767C50.1961 81.4856 50.7225 85.0779 52.5765 88.2536C53.6445 90.0023 55.0096 91.4425 56.6717 92.5744C58.724 93.9719 59.9127 96.6468 58.432 98.6399C56.5071 101.231 54.1218 103.57 51.2761 105.657C49.7123 106.737 48.7617 108.121 48.4244 109.808C48.066 111.602 48.4939 113.353 49.7079 115.06C50.901 116.874 52.4896 118.005 54.4738 118.453C56.458 118.902 58.3524 118.503 60.1568 117.257C70.2045 110.046 76.4511 100.322 78.8967 88.0844C80.1406 81.8601 79.7109 76.746 77.6076 72.7421Z" fill="#007BFF"/>
</svg>
