<svg xmlns="http://www.w3.org/2000/svg" viewBox="0 0 80 80"><circle cx="40" cy="40" r="40" fill="#249df1"/><path d="m37.61 23 10-1.32-9.77 22a11.06 11.06 0 0 0 5-1.75 21.09 21.09 0 0 0 4.56-3.9 26.61 26.61 0 0 0 3.59-5.21 23.77 23.77 0 0 0 2.18-5.65 13.21 13.21 0 0 0 .37-3.3 5.11 5.11 0 0 0-.83-2.77 5.5 5.5 0 0 0-2.41-1.92 11 11 0 0 0-4.3-.67 19.92 19.92 0 0 0-6.37 1 20.64 20.64 0 0 0-5.81 3.07 20 20 0 0 0-4.66 5 20.55 20.55 0 0 0-2.84 6.83 12.17 12.17 0 0 0-.39 2 6.81 6.81 0 0 0 0 1.25 2.56 2.56 0 0 0 .13.76 5.34 5.34 0 0 1 .16.53q-3.36 0-4.92-1.35-1.55-1.36-.76-4.72a15.08 15.08 0 0 1 3.6-6.67 29.88 29.88 0 0 1 6.67-5.58 36 36 0 0 1 8.45-3.83 30.08 30.08 0 0 1 9-1.42 16.7 16.7 0 0 1 6.44 1.09 10.15 10.15 0 0 1 4.06 2.87 8.56 8.56 0 0 1 1.81 4.16 13 13 0 0 1-.23 4.95 20 20 0 0 1-2.74 6.24 25 25 0 0 1-5.05 5.68 26 26 0 0 1-7 4.13 22.19 22.19 0 0 1-8.35 1.58h-.33L28.44 65h-9.51z" fill="#fff"/></svg>