<svg width="32" height="32" fill="none" xmlns="http://www.w3.org/2000/svg"><path d="M32 0H0v32h32V0Z" fill="#0052CC"/><path d="M16.1 16a4.3 4.3 0 1 0 0-8.6 4.3 4.3 0 0 0 0 8.6Z" fill="url(#a)"/><path d="M15.8 24.4a20.5 20.5 0 0 1-6.8-7c-.1-.3 0-.6.2-.7l3.3-1.6c.2-.1.5 0 .6.2 1.7 2.8 4.1 5 7 6.3-1.1 1-2.3 2-3.5 2.8-.3.2-.6.2-.8 0Z" fill="url(#b)"/><path d="M16.5 24.4c2.8-1.8 5.1-4.2 6.7-7 .2-.3 0-.6-.2-.7l-3.2-1.6a.5.5 0 0 0-.7.2c-1.6 2.8-4 5-7 6.3 1.1 1 2.3 2 3.6 2.8.3.2.6.2.8 0Z" fill="#fff"/><defs><linearGradient id="a" x1="16.1" y1="8.8" x2="16.1" y2="17.6" gradientUnits="userSpaceOnUse"><stop stop-color="#fff"/><stop offset=".8" stop-color="#fff" stop-opacity=".4"/></linearGradient><linearGradient id="b" x1="13.5" y1="17.4" x2="16.4" y2="23.5" gradientUnits="userSpaceOnUse"><stop stop-color="#fff"/><stop offset=".6" stop-color="#fff" stop-opacity=".3"/></linearGradient></defs></svg>
