<svg xmlns="http://www.w3.org/2000/svg" fill="none" viewBox="0 0 80 80">
    <path fill="currentColor" d="m-.3 47.8 1-2.4 5.7-14a.3.3 0 0 1 .3-.2H11a.3.3 0 0 1 .3.2l7.1 16.2.1.2h-4.2a.2.2 0 0 1-.3-.2l-1.2-3a.3.3 0 0 0-.3 0h-7a.2.2 0 0 0-.2 0l-1.1 3a.3.3 0 0 1-.3.2H-.3Zm9.1-12.6-2.4 6.4h5.1l-2.7-6.4Zm71 13.7-.2-.1-5-5v-8.6h-8.4a.4.4 0 0 1-.3-.2l-5-5h18.8l.1 18.9Zm-19.1.2v-7.3a.5.5 0 0 1 .1-.4l5-5 .1-.1h.1v7.4h7.5l-.2.2-5.1 5v.2h-7.5ZM24.5 37.5v10.3h-4V31.3h3.3a.4.4 0 0 1 .3.1l5 5.9.2.2.1-.2 5.1-5.9.2-.1h3.5v16.5h-4V37.5l-.3.3-4 4.7a.7.7 0 0 1-1 0l-4-4.7-.2-.2-.2-.1Zm16.9 10.3V31.3H49c1.8 0 3.5.4 5 1.3a7.5 7.5 0 0 1 3.6 5.5 9 9 0 0 1-.4 4.6 7 7 0 0 1-4 4.2c-1.3.6-2.7.9-4.1.9h-7.7Zm4.1-3h2.8c.5 0 1 0 1.5-.2a4.4 4.4 0 0 0 3.4-2.7c.3-1 .4-2 .3-3a4.6 4.6 0 0 0-4.4-4.5h-3.6v10.4Z"/>
</svg>
