<svg xmlns="http://www.w3.org/2000/svg" viewBox="0 0 80 80"><path d="M79.4 67.6a1.4 1.4 0 0 1-1.3 1.4 1.4 1.4 0 1 1 1.3-1.4zm.6 0a2 2 0 1 0-2 1.9 1.8 1.8 0 0 0 2-2m-2.3.3h.3l.5.8h.5l-.5-.9a.5.5 0 0 0 .5-.5c0-.5-.4-.6-.9-.6h-.8v2h.4v-.9m0-.3v-.5h.3c.2 0 .4 0 .4.2s0 .3-.3.3h-.4M67 57.4l2.4 6.5h-4.9zm-2.6-2.6-5.6 14h4l.8-2.4h6.6l.8 2.4h4.3l-5.6-14zm-11.2 14h4v-14h-4zm-27.6-14-3.4 11.1-3.1-11.2h-4.3l4.5 14.1h5.8l4.5-14zm16 3h1.8c2.5 0 4 1.1 4 4s-1.5 4-4 4h-1.7zm-4-3v14h6.5c3.5 0 4.6-.5 5.8-1.8.9-1 1.4-2.9 1.4-5A8.4 8.4 0 0 0 50 57c-1.4-2-3.6-2.3-6.7-2.3zM0 54.7v14h4V58.1h3.1a3 3 0 0 1 2.3.8c.6.7.9 1.8.9 3.8v6.1h3.9V61c0-5.5-3.6-6.3-7-6.3zm31.3 0v14h4v-14z"/><path d="M10.7 26.7A21.4 21.4 0 0 1 26 18.4v-2.8c-11.3 1-21 10.5-21 10.5s5.5 16 21 17.5v-2.9c-11.4-1.4-15.3-14-15.3-14zM26 34.9v2.7c-8.6-1.5-11-10.5-11-10.5a18.7 18.7 0 0 1 11-5.4v3c-3.6-.5-6.4 3-6.4 3s1.6 5.6 6.5 7.2m0-24.3v5h1C39.9 15 48.3 26 48.3 26s-9.6 11.7-19.7 11.7a15.1 15.1 0 0 1-2.6-.2v3.1a16.8 16.8 0 0 0 2.2.2c9.4 0 16.1-4.8 22.7-10.4 1 .8 5.5 3 6.4 3.9a56.5 56.5 0 0 1-29 9.4c-.7 0-1.5 0-2.3-.2V48h35.6V10.5zm0 11.1v-3.3l1-.1c9.2-.3 15.3 8 15.3 8s-6.6 9.1-13.6 9.1a8.4 8.4 0 0 1-2.7-.4V24.7c3.6.4 4.3 2 6.5 5.6l4.8-4a12.8 12.8 0 0 0-9.5-4.7l-1.8.1" fill="#77b900"/></svg>
