<svg xmlns="http://www.w3.org/2000/svg" viewBox="0 0 80 80"><path d="M18.06 28.45h5.38v23h-5.38v-2.4a8.81 8.81 0 01-6.9 3.11C4.06 52.19 0 46.27 0 40c0-7.51 5.14-12.11 11.23-12.11a8.37 8.37 0 016.83 3.28v-2.72zM5.51 40.08c0 4 2.51 7.34 6.4 7.34 3.38 0 6.53-2.46 6.53-7.27 0-5-3.12-7.44-6.53-7.44-3.91-.03-6.4 3.29-6.4 7.37zm24.33-11.63h5.37v2.06a9.9 9.9 0 012.24-1.93 6.08 6.08 0 013.28-.77A8 8 0 0145 28.89l-2.2 4.87A4.76 4.76 0 0040 33a4.25 4.25 0 00-3.35 1.25c-1.49 1.59-1.49 3.79-1.49 5.31v11.89H29.8v-23zm18.53 0h5.38v2.13a7 7 0 015.68-2.74 6.75 6.75 0 016 3.38 8.13 8.13 0 016.83-3.38 7.36 7.36 0 016.56 3.62A11.37 11.37 0 0180 37.28v14.24h-5.38V38.83c0-2.57-.27-3.62-.51-4.09a3 3 0 00-3.07-2 4 4 0 00-3.18 1.69c-1 1.32-1 3.28-1 5.24v11.85h-5.43V38.83c0-2.57-.27-3.62-.51-4.09a3.05 3.05 0 00-3.08-2 4 4 0 00-3.18 1.69c-.94 1.32-1 3.28-1 5.24v11.85h-5.29z" fill="#0091bd"/></svg>