<svg xmlns="http://www.w3.org/2000/svg" fill="none" viewBox="0 0 80 80">
  <path fill="#000" d="m39.7 79 31-18-11.9-6.8-12 7a.7.7 0 0 1-1-.6V43.9a1.4 1.4 0 0 1 .5-1.2l14.5-8.3a.7.7 0 0 1 1 .5V49l12 7V20l-34 19.7V79Z"/>
  <path fill="gray" d="M42.7 2v14l12 7a.7.7 0 0 1 .4.6.7.7 0 0 1-.4.6l-14.4 8.4a1.3 1.3 0 0 1-1.4 0l-14.2-8.4a.7.7 0 0 1-.4-.6.7.7 0 0 1 .4-.6l12-7V2l-31 18.1 34 19.9 34-19.9L42.7 2Z"/>
  <path fill="#4C4C4C" d="m32.7 61.2-12-7-12 6.8 31 18V39.7L5.7 20v35.9l12-6.9V35a.7.7 0 0 1 1-.6L33 42.7a1.4 1.4 0 0 1 .6 1.3v16.7a.7.7 0 0 1-.6.7l-.4-.1v-.1Z"/>
</svg>
