<svg xmlns="http://www.w3.org/2000/svg" id="Layer_1" data-name="Layer 1" viewBox="494.46 424.53 1019.08 1151.02"><defs><style>.cls-1{fill:#4c4c4c;}.cls-2{fill:gray;}</style></defs><path class="cls-1" d="M1513.54,1229.86V693l-465-268.44V630.46l182.19,105.18c6.59,3.65,6.76,14,0,17.64l-216.55,125a20.34,20.34,0,0,1-20.4,0l-216.53-125c-6.61-3.62-6.8-14,0-17.66L959.41,630.45V424.53L494.46,693v536.89l178.34-103V916.51c-.13-7.53,8.74-12.83,15.29-8.78l216.54,125a20.38,20.38,0,0,1,10.2,17.68v250c.17,7.49-8.66,12.86-15.21,8.87L717.39,1204.11l-178.34,103,465,268.44,465-268.44-178.34-103L1108.43,1309.3c-6.46,3.88-15.49-1.14-15.26-8.84v-250a20.36,20.36,0,0,1,10.22-17.67l216.52-125c6.44-3.92,15.53,1.11,15.29,8.82v210.34Z"/><path d="M1004,1575.52l465-268.44-178.34-103L1108.43,1309.3c-6.46,3.88-15.49-1.14-15.26-8.84v-250a20.39,20.39,0,0,1,10.21-17.67l216.53-125c6.44-3.92,15.53,1.11,15.29,8.82v210.34l178.34,103V693L1004,987.15Z"/><path class="cls-2" d="M1048.58,424.53V630.46l182.19,105.18c6.59,3.65,6.76,14,0,17.64l-216.55,125a20.34,20.34,0,0,1-20.4,0l-216.53-125c-6.61-3.62-6.8-14,0-17.66L959.41,630.46V424.53L494.46,693,1004,987.15,1513.54,693Z"/><path class="cls-1" d="M899.62,1309.33,717.39,1204.11l-178.34,103,465,268.44V987.15L494.46,693v536.89l178.34-103V916.51c-.13-7.53,8.74-12.83,15.29-8.78l216.54,125a20.38,20.38,0,0,1,10.2,17.68v250C915,1308,906.17,1313.32,899.62,1309.33Z"/></svg>