<svg xmlns="http://www.w3.org/2000/svg" fill="none" viewBox="0 0 80 80">
  <path fill="currentColor" d="M10.1 76c0-.5 15-18.7 15.3-18.6l15 6.3c13.6 5.8 14.6 6.2 15 5.6 1.3-2.3 2.5-4.7 3.5-7.2l.9-2.2-1.4-.8a30.6 30.6 0 0 1-12-13.3l2.3 2.3c3.4 4 11.2 10.4 11.7 9.5.6-1 1-4.2 1-7.9 0-4.3-.8-8.6-2.2-12.8l-1-2.7L54 33l-5.3-1.7c-1.8-.6-.6-.6 2.1 0 3.2.8 6.5 1.4 8.6 1.7 1.8.2 2.1-.2 2.3-2.2a36.9 36.9 0 0 0-4-14.5 3 3 0 0 0-1.3-.9 70 70 0 0 0-24-3.2c-2.6.3-5.2.9-6 1.4-.2.1 1.5.6 4.2 1.1 2.6.5 4.4 1 4 1l-8.6-1c-7.5-1-8.3-1.2-8.9-.7a10.5 10.5 0 0 0-3.2 5.4c-.4 1.7-.5 1.8.4 3.4 1.2 2.5 3.6 4.5 9 7.2 1.5.7 3 1.5 4.5 2.5a34 34 0 0 1-4.8-1.8l-4.7-2-7 1.9a171 171 0 0 1-7.3 2v-24A4.5 4.5 0 0 1 8.5 4h63A4.5 4.5 0 0 1 76 8.5v63a4.5 4.5 0 0 1-4.5 4.5H10.1Z"/>
</svg>
