<svg xmlns="http://www.w3.org/2000/svg" fill="none" viewBox="0 0 80 80">
  <path fill="url(#logo-opsgenie-a)" d="M40.5 40a16 16 0 1 0 0-32 16 16 0 0 0 0 32Z"/>
  <path fill="url(#logo-opsgenie-b)" d="M39.1 71.6a77 77 0 0 1-25.5-27.1 1.8 1.8 0 0 1 1-1.8l12.1-6a1.8 1.8 0 0 1 2.4.8A59.8 59.8 0 0 0 55 60.9c-4 4-8.4 7.6-13.2 10.7a2.6 2.6 0 0 1-2.7 0Z"/>
  <path fill="#2684FF" d="M41.8 71.6a77 77 0 0 0 25.5-27.1 1.8 1.8 0 0 0-1-1.8l-12-6a1.8 1.8 0 0 0-2.4.8 59.7 59.7 0 0 1-26 23.4c4 4 8.5 7.6 13.2 10.7a2.6 2.6 0 0 0 2.7 0"/>
  <defs>
    <linearGradient id="logo-opsgenie-a" x1="56.4" x2="56.4" y1="8" y2="39.9" gradientUnits="userSpaceOnUse">
      <stop stop-color="#2684FF"/>
      <stop offset=".8" stop-color="#0052CC"/>
    </linearGradient>
    <linearGradient id="logo-opsgenie-b" x1="50.1" x2="70" y1="11.5" y2="37.5" gradientUnits="userSpaceOnUse">
      <stop stop-color="#2684FF"/>
      <stop offset=".6" stop-color="#0052CC"/>
    </linearGradient>
  </defs>
</svg>
