<svg xmlns="http://www.w3.org/2000/svg" fill="none" viewBox="0 0 80 80">
  <path class="light" fill="#fff" fill-rule="evenodd" d="M41.86.01a40.04 40.04 0 0 1-3.72 79.98A40.04 40.04 0 0 1 41.86.01Zm9.37 48.21a59.25 59.25 0 0 1-7.05-.89 25.43 25.43 0 0 1-4.14-1.07.5.5 0 0 0-.55.18.46.46 0 0 0 0 .55 14.2 14.2 0 0 0 3.73 2.5c-1.18.99-2 3.2-2.31 4.37a13.14 13.14 0 0 0 12.52 16.56c4.3.07 9.44-1.78 13.46-5.93a36.39 36.39 0 1 0-53.82-.04.58.58 0 0 0 .99-.54c-4.83-18.82 5.6-39.14 17.24-45.56 4.32-2.4 8.52-3.31 12.3-1.78 5.79 2.36 9.1 6.22 16.27 9.5 7.17 3.27 7.93 8.69 5.95 14.18-2 5.52-8.44 8.28-14.6 7.97ZM38.67 19.1c-2.33.18-3.87 3.09-4.07 4.94-.2 1.88.72 4.97 3.78 4.92 3.59-.08 4.66-3.15 4.28-6.12-.3-2.23-2-3.9-3.97-3.74h-.02Z" clip-rule="evenodd"/>
  <path class="dark" fill="#000" d="M38.67 19.1c-2.33.18-3.87 3.09-4.07 4.94-.2 1.88.72 4.97 3.78 4.92 3.59-.08 4.66-3.15 4.28-6.12-.3-2.23-2-3.9-3.97-3.74h-.02Z"/>
  <path class="dark" fill="#000" d="M51.23 48.22a59.23 59.23 0 0 1-7.05-.89 25.43 25.43 0 0 1-4.14-1.07.5.5 0 0 0-.55.18.46.46 0 0 0 0 .55 14.2 14.2 0 0 0 3.73 2.5c-1.18.99-2 3.2-2.31 4.37a13.13 13.13 0 0 0 12.52 16.56c4.3.07 9.44-1.78 13.46-5.93a36.39 36.39 0 1 0-53.82-.04.58.58 0 0 0 .99-.54c-4.83-18.82 5.6-39.14 17.24-45.56 4.32-2.4 8.52-3.31 12.3-1.78 5.79 2.36 9.1 6.22 16.27 9.5 7.17 3.27 7.93 8.69 5.95 14.18-2 5.52-8.44 8.28-14.6 7.97Z"/>
</svg>
