<svg xmlns="http://www.w3.org/2000/svg" fill="none" viewBox="0 0 80 80">
  <path fill="currentColor" d="M70.5 27.2C58 34.8 59.7 52.7 72.7 58.7l-2 5.1c-2 4.5-4.8 8.6-8.2 12.2-.9 1-1.8 1.7-2.9 2.4a8.4 8.4 0 0 1-7.2 1.2l-4-1.3a16.8 16.8 0 0 0-13.9 0c-1.2.5-2.4 1-3.7 1.3a8.2 8.2 0 0 1-8-1.8 49.7 49.7 0 0 1-15-28.5 30 30 0 0 1 2.4-18.9 19.6 19.6 0 0 1 13.9-10.7c3.3-.6 6.7-.3 9.8 1l3.9 1.4a7.3 7.3 0 0 0 5.6 0 67 67 0 0 1 6.3-2.2 19 19 0 0 1 20.4 6.5l.4.8ZM56.2 0a18.3 18.3 0 0 1-6.6 15.2 12 12 0 0 1-9.7 3.3C38.6 10.2 46.7.3 56.2 0Z"/>
</svg>
