<svg xmlns="http://www.w3.org/2000/svg" fill="none" viewBox="0 0 80 80">
  <path fill="#2684FF" d="M6.8 8a2.3 2.3 0 0 0-2.2 2.6l9.6 58.6a3 3 0 0 0 3 2.6h46.3a2.3 2.3 0 0 0 2.3-2l9.6-59.2A2.3 2.3 0 0 0 73.2 8H6.8Zm40.7 42.3H32.7l-4-20.9H51l-3.5 21Z"/>
  <path fill="url(#logo-bitbucket-a)" d="M72.3 29.4H51l-3.6 20.9H32.7L15.2 71a3 3 0 0 0 2 .7h46.3a2.3 2.3 0 0 0 2.2-1.9l6.6-40.4Z"/>
  <defs>
    <linearGradient id="logo-bitbucket-a" x1="6215.3" x2="3753.6" y1="614.1" y2="4109.4" gradientUnits="userSpaceOnUse">
      <stop offset=".2" stop-color="#0052CC"/>
      <stop offset="1" stop-color="#2684FF"/>
    </linearGradient>
  </defs>
</svg>
