<svg xmlns="http://www.w3.org/2000/svg" viewBox="0 0 80 80"><path d="m79.85 45.29-4.48-13.77L66.5 4.2a1.53 1.53 0 0 0-2.9 0l-8.87 27.3H25.27L16.4 4.2a1.54 1.54 0 0 0-1.94-1 1.51 1.51 0 0 0-1 1L4.64 31.5.16 45.29a3 3 0 0 0 1.1 3.41L40 76.85 78.73 48.7a3 3 0 0 0 1.12-3.41" fill="#fc6d26"/><path d="M40 76.83 54.73 31.5H25.28z" fill="#e24329"/><path d="M40 76.83 25.27 31.5H4.65z" fill="#fc6d26"/><path d="M4.63 31.51.15 45.29a3.06 3.06 0 0 0 1.1 3.41L40 76.85z" fill="#fca326"/><path d="M4.64 31.51h20.64L16.4 4.21a1.54 1.54 0 0 0-2.91 0z" fill="#e24329"/><path d="M40 76.83 54.73 31.5h20.65z" fill="#fc6d26"/><path d="m75.37 31.51 4.48 13.78a3.05 3.05 0 0 1-1.11 3.41L40 76.83l35.36-45.32z" fill="#fca326"/><path d="M75.38 31.51H54.74l8.86-27.3a1.53 1.53 0 0 1 2.91 0l8.87 27.3z" fill="#e24329"/></svg>