<svg xmlns="http://www.w3.org/2000/svg" viewBox="0 0 80 80"><path d="M26.8 0a7.3 7.3 0 0 0 0 14.6H34V7.3A7.3 7.3 0 0 0 26.8 0m0 19.5H7.3a7.3 7.3 0 0 0 0 14.7h19.5a7.3 7.3 0 0 0 0-14.7" fill="#36c5f0"/><path d="M73 26.8a7.3 7.3 0 1 0-14.6 0v7.3h7.3a7.3 7.3 0 0 0 7.3-7.3m-19.5 0V7.3a7.3 7.3 0 1 0-14.6 0v19.5a7.3 7.3 0 1 0 14.6 0" fill="#2eb67d"/><path d="M46.2 73.2a7.3 7.3 0 0 0 0-14.6H39v7.3a7.3 7.3 0 0 0 7.3 7.3m0-19.5h19.5a7.3 7.3 0 0 0 0-14.7H46.2a7.3 7.3 0 0 0 0 14.7" fill="#ecb22e"/><path d="M0 46.4a7.3 7.3 0 0 0 7.3 7.3 7.3 7.3 0 0 0 7.3-7.4V39H7.3A7.3 7.3 0 0 0 0 46.4m19.5 0v19.5a7.3 7.3 0 1 0 14.6 0V46.3a7.3 7.3 0 0 0-7.3-7.3 7.3 7.3 0 0 0-7.3 7.3" fill="#e01e5a"/></svg>
