<svg xmlns="http://www.w3.org/2000/svg" fill="none" viewBox="0 0 80 80">
  <path fill="#5865F2" d="M67.7 14.7c-5.2-2.4-10.7-4-16.4-5-.8 1.4-1.6 2.8-2.2 4.2-6-.9-12.2-.9-18.3 0l-2-4.2c-5.8 1-11.3 2.6-16.6 5A66.6 66.6 0 0 0 .4 60.1c6 4.6 13 8 20.2 10.2 1.6-2.2 3.1-4.5 4.3-7a43 43 0 0 1-6.7-3.2l1.6-1.3a47.5 47.5 0 0 0 40.4 0l1.7 1.3a43.2 43.2 0 0 1-6.8 3.3c1.2 2.4 2.7 4.7 4.4 6.9 7.2-2.2 14-5.6 20.1-10a66.6 66.6 0 0 0-11.9-45.6ZM26.7 51c-3.8 0-7.2-3.6-7.2-8s3.2-8 7.2-8 7.3 3.6 7.3 8-3.1 8-7.2 8h-.1Zm26.6 0c-4 0-7.2-3.6-7.2-8s3.1-8 7.2-8c4 0 7.2 3.6 7.1 8-.1 4.4-3.1 8-7.2 8Z"/>
</svg>
