<svg xmlns="http://www.w3.org/2000/svg" viewBox="0 0 80 80"><path d="M60 25v12.67H48.14v41.45a37.17 37.17 0 01-14.6.3v-1.93-53.45a35.08 35.08 0 01.76-7.73C36.79 5.67 46.66.35 57 4a23.86 23.86 0 019.49 6l-6.27 7.78c-3.22-2.18-6.46-2.94-9.63-1.18S48.12 21.68 48 25z" fill="#333"/><path d="M40 0a40 40 0 018.33.87c-7.92.89-14.1 6.57-16 15a36.11 36.11 0 00-.86 8.13v1.22A161.88 161.88 0 015 20.59 40 40 0 0140 0z" fill="#ee6e2a"/><path d="M31.47 25.25v14.88C12.34 41.65.8 48 .8 48A40.05 40.05 0 015 20.59a161.88 161.88 0 0026.47 4.66z" fill="#ffe256"/><path d="M31.43 64.55v14.51A40.07 40.07 0 012.65 54.32s17.23 1.88 28.78 2.22z" fill="#0997e0"/><path d="M31.44 40.13v16.41c-11.56-.34-28.79-2.22-28.79-2.22A38.65 38.65 0 01.8 48s11.54-6.35 30.64-7.87z" fill="#48d2f8"/></svg>