<svg xmlns="http://www.w3.org/2000/svg" viewBox="0 0 80 80"><path d="M61.53 80h-43.1A18.43 18.43 0 010 61.57v-43.1A18.43 18.43 0 0118.43 0h43.1A18.43 18.43 0 0180 18.47v43.1A18.43 18.43 0 0161.53 80zM22.92 30.28a4.73 4.73 0 004.22-2 6.22 6.22 0 001.46-4.61 6 6 0 00-4.44 2.51 5.42 5.42 0 00-1.24 4.1zm-4.69.39c-3.29 0-6.81 3-6.81 8.75s4.15 13.09 7.44 13.09c1.15 0 2.91-1.18 4.69-1.18s3 1.14 4.68 1.14c3.61 0 6.27-7.65 6.27-7.65a6.42 6.42 0 01-3.81-5.88 6.26 6.26 0 013.06-5.46 6.29 6.29 0 00-5.54-2.89c-2.32 0-4.09 1.34-5.05 1.34-1.16 0-2.78-1.26-4.93-1.26zM46.5 52.08a6.86 6.86 0 002.25-1.24l-1.35-2.18a1.35 1.35 0 00-.27-.3.54.54 0 00-.33-.1.7.7 0 00-.32.1l-.38.21a2.88 2.88 0 01-.49.21 2 2 0 01-.7.1 1.47 1.47 0 01-1.16-.49 2 2 0 01-.44-1.39V36.92h4.91v-3.2h-4.91v-5.87H41a1.11 1.11 0 00-.67.2.94.94 0 00-.33.57l-1 5.08-3 .5V36a.91.91 0 00.27.71.91.91 0 00.62.23h1.89v10.4a5.29 5.29 0 001.31 3.79 5 5 0 003.73 1.37 8.38 8.38 0 002.68-.42zm22-18.52H65a1.27 1.27 0 00-.78.24 1.19 1.19 0 00-.46.6l-3.69 10a15.68 15.68 0 00-.53 1.7c-.14.56-.27 1.12-.38 1.68-.11-.56-.23-1.12-.37-1.68s-.31-1.12-.52-1.7l-3.6-10a1.14 1.14 0 00-.46-.6 1.38 1.38 0 00-.83-.24h-3.72l7.41 18.65h4.07z" fill="#9386a0" fill-rule="evenodd"/></svg>