<svg xmlns="http://www.w3.org/2000/svg" fill="none" viewBox="0 0 80 80">
  <path fill="#34A853" d="M79.5 61.4V61a39.8 39.8 0 0 0-18.3-27.4l2.4-4.2 2.3-4a2163.6 2163.6 0 0 0 2-3.7 3.7 3.7 0 0 0-4.4-4.6 3.6 3.6 0 0 0-2.2 1.7l-1.7 2.9-2.4 4-2.4 4.2-.2.5-.4-.2a39.8 39.8 0 0 0-28.7.1 566.2 566.2 0 0 0-2.7-4.5l-2.3-4-1.7-3a3.6 3.6 0 1 0-6.4 3.7l1.7 2.9 2.4 4 2.4 4.2A40.2 40.2 0 0 0 .2 63.2h79.5l-.2-1.8Z"/>
  <path fill="#202124" d="M60.6 52.2c1.6-1 1.9-3.5.6-5.5-1.3-2-3.7-2.7-5.3-1.6-1.6 1-1.8 3.5-.5 5.5s3.7 2.7 5.2 1.6Zm-36-1.6c1.3-2 1-4.5-.5-5.5-1.6-1-4-.3-5.2 1.6-1.4 2-1.1 4.4.5 5.5 1.6 1 4 .3 5.2-1.6Z"/>
</svg>
