<svg xmlns="http://www.w3.org/2000/svg" viewBox="0 0 80 80"><path d="M44.31 42.63a.78.78 0 1 1 .78-.78.78.78 0 0 1-.78.78m-8.62 0a.78.78 0 1 1 .78-.78.78.78 0 0 1-.78.78m8.9-4.7 1.56-2.7a.33.33 0 1 0-.56-.33L44 37.64a9.78 9.78 0 0 0-8 0l-1.59-2.74a.33.33 0 1 0-.56.33l1.56 2.7a9.2 9.2 0 0 0-4.78 7.37h18.74a9.2 9.2 0 0 0-4.78-7.37" fill="#9386a0"/><path d="M63.26 80H16.74a2.81 2.81 0 0 1-2.81-2.81V2.81A2.81 2.81 0 0 1 16.74 0h46.52a2.81 2.81 0 0 1 2.81 2.81v74.38A2.81 2.81 0 0 1 63.26 80zm0-2.25a.56.56 0 0 0 .56-.56V2.81a.56.56 0 0 0-.56-.56H16.74a.56.56 0 0 0-.56.56v74.38a.56.56 0 0 0 .56.56zm-48.2-38.16a.41.41 0 1 0 .41.41.41.41 0 0 0-.41-.41z" fill-rule="evenodd" fill="#9386a0"/></svg>