<svg xmlns="http://www.w3.org/2000/svg" fill="none" viewBox="0 0 80 80">
  <path fill="#034EA2" d="M5 42.4v.9c0 .4-.3.7-1 .7a1 1 0 0 1-1.2-1v-1h-3v.9c0 2.5 2 3.3 4.1 3.3 2.2 0 3.8-.7 4-2.6v-1.9c-.5-2.4-4.8-3-5.2-4.4v-.6a1 1 0 0 1 1-.8 1 1 0 0 1 1.1 1v.7h3v-.8c0-2.5-2.3-2.9-4-2.9-2 0-3.6.7-4 2.6a4 4 0 0 0 0 1.5c.6 2.3 4.6 3 5.2 4.5m7-8.2L9.9 45.7h3l1.6-10.4 1.6 10.4h3l-2-11.5H12Zm17.3 0L27.9 43h-.2l-1.4-8.7h-4.6l-.2 11.4h2.9V35.4l2 10.3h2.9l2-10.3v10.3h2.9L34 34.3h-4.7Zm13 8.2v.9a1 1 0 0 1-1.2.7 1 1 0 0 1-1.1-1V42h-3v.9c0 2.5 2 3.3 4 3.3 2.2 0 3.8-.7 4-2.6.2-.7.2-1.3 0-2-.4-2.3-4.7-3-5-4.3v-.7a1 1 0 0 1 1-.7 1 1 0 0 1 1 1v.7h2.8v-.8c0-2.5-2.2-2.9-3.8-2.9-2 0-3.7.7-4 2.5a4 4 0 0 0 0 1.6c.5 2.3 4.5 3 5.1 4.5m9.7 1.5a1 1 0 0 0 1.1-.8v-8.9h3v9c-.3 2.1-2 2.8-4 2.8-2.2 0-3.9-.7-4-2.8v-9h2.8v8.9a1 1 0 0 0 1.1.8m14-9.7.2 9-2.7-9H59v11.3h2.8l-.1-9.2 2.9 9.2h4V34.2h-2.8Zm10 9.6a1 1 0 0 0 1-.8V41h-1v-1.7h4v3.9c-.2 2-2 2.8-4 2.8s-3.9-.8-4-2.8v-6.5c.2-2.1 2-2.8 4-2.8s3.7.7 4 2.8V38h-3v-1.1a1.2 1.2 0 0 0-2.2 0V43a1 1 0 0 0 1.1.8"/>
</svg>
