<svg xmlns="http://www.w3.org/2000/svg" fill="none" viewBox="0 0 80 80">
  <path fill="#2489CA" d="M8.4 30.4s-1.6-1.1.2-2.6l4.5-3.8a1.8 1.8 0 0 1 2.6-.2l40.2 30.4v14.6s0 2.3-3 2L8.4 30.4Z"/>
  <path fill="#1070B3" d="M18.7 39.8 8.3 49.3s-1 .8 0 2.1l4.8 4.4s1.2 1.2 2.9-.1l11-8.3-8.3-7.6Z"/>
  <path fill="#0877B9" d="m37 40 18.9-14.6V10.9s-.9-3.2-3.6-1.6L26.9 32.5l10 7.4Z"/>
  <path fill="#3C99D4" d="M52.9 70.8a2.6 2.6 0 0 0 2.4.8L70 64.4c2-1.3 1.6-3 1.6-3V18a2.9 2.9 0 0 0-2-2.7L57 9c-2.8-1.7-4.6.4-4.6.4s2.4-1.7 3.5 1.5v57.6c0 .4 0 .8-.2 1.2-.4.6-1.1 1.3-2.9 1l.2.1Z"/>
</svg>
