<svg viewBox="0 0 80 80" xmlns="http://www.w3.org/2000/svg">
<rect width="100%" height="100%" fill="#6D32D6"/>
<path d="M30.0319 37.952C30.5245 37.952 30.8325 38.4854 30.5861 38.912L29.0343 41.6C28.788 42.0266 28.172 42.0266 27.9258 41.6L26.3739 38.912C26.1275 38.4854 26.4355 37.952 26.9281 37.952H30.0319Z" fill="white"/>
<path d="M18.048 26.3739C18.4746 26.1275 19.008 26.4355 19.008 26.9281V30.0319C19.008 30.5245 18.4746 30.8325 18.048 30.5861L15.36 29.0343C14.9334 28.788 14.9334 28.172 15.36 27.9258L18.048 26.3739Z" fill="white"/>
<path d="M37.952 26.9281C37.952 26.4355 38.4854 26.1275 38.912 26.3739L41.6 27.9258C42.0266 28.172 42.0266 28.788 41.6 29.0343L38.912 30.5861C38.4854 30.8325 37.952 30.5245 37.952 30.0319V26.9281Z" fill="white"/>
<path d="M27.9258 15.36C28.172 14.9334 28.788 14.9334 29.0343 15.36L30.5861 18.048C30.8325 18.4746 30.5245 19.008 30.0319 19.008H26.9281C26.4355 19.008 26.1275 18.4746 26.3739 18.048L27.9258 15.36Z" fill="white"/>
<path fill-rule="evenodd" clip-rule="evenodd" d="M40 8C57.6731 8 72 22.3269 72 40C72 57.6731 57.6731 72 40 72C22.3269 72 8 57.6731 8 40V20.544H8.00275C8.13744 13.6781 13.6781 8.13732 20.544 8.00263V8H40ZM48.96 32.576H49.7516C52.4249 32.576 54.592 34.7431 54.592 37.4164C54.592 46.9022 46.9022 54.592 37.4164 54.592C34.7431 54.592 32.576 52.4249 32.576 49.7516V48.96H24.384V49.7516C24.384 56.9492 30.2188 62.784 37.4164 62.784C51.4266 62.784 62.784 51.4264 62.784 37.4164C62.784 30.2188 56.9492 24.384 49.7516 24.384H48.96V32.576ZM24.384 24.384H11.84V32.576H24.384V45.12H32.576V32.576H45.12V24.384H32.576V11.84H24.384V24.384Z" fill="white"/>
</svg>
