<svg xmlns="http://www.w3.org/2000/svg" viewBox="0 0 80 80"><path d="M37.57 69.6h1.42c5.16 0 17.25-.5 29.15-6.67 8.21-4.41 5.46-9.59 3.71-12.23-.58-.77-1.19-1.49-1.8-2.18a42.14 42.14 0 00-19.54-12 2.69 2.69 0 00-2-1.39 6 6 0 01-.15.76c-1.74-.46-3.52-.78-3.52-.78.1-.29.15-.5.15-.5a18.23 18.23 0 00-.93-8.75 11 11 0 00-7.94-6.65 33.22 33.22 0 01.97 5.79c.13 3.26-3.22 5.66-3.22 5.66a21.7 21.7 0 00-4.87 5.5 44.31 44.31 0 00-10.65 4.2h-.06a36.21 36.21 0 00-12 10.33c-1.71 2.58-4.38 7.6 3.18 11.93L10 63a63.15 63.15 0 0027.57 6.6zM80 57.19a18.39 18.39 0 01-4.11 5.26C64.69 72.72 46.71 73.3 40.57 73.3h-1.15c-6.13 0-24.12-.58-35.31-10.85A18.39 18.39 0 010 57.19s1.54-25.76 20-42.13c0 0 8.1-8 19.93-8.36H40c11.88.36 20 8.36 20 8.36 18.46 16.37 20 42.13 20 42.13z" fill="#bce1ed"/><path d="M71.86 50.72c1.75 2.64 4.5 7.82-3.71 12.23-11.9 6.17-24 6.67-29.15 6.67h-1.42c1.08-.17 12.6-2.21 18.68-6.25 5.38-3.56 6.42-6.28 8.12-9.26 1.38-2.42 2.84-5.21 5.68-5.55.61.67 1.22 1.44 1.8 2.16z" fill="#7a5"/><path d="M43.91 44.92a5.91 5.91 0 01-3.21 3.18c-.71.27-1.73.73-3.14-1.9s.36-5.82.36-5.82 2.22-3.63 1.85-5.39-1.11-1.38-1.11-1.38 1.31 2.3-2.19 6a29.23 29.23 0 00-3.83 4.72s-3.52 6.2 2.43 10.67c0 0 4.44 3.08 7.6 0 2.5-2.45.6-6 .78-7.9a9.11 9.11 0 01.46-2.18zM29 36.16a21.7 21.7 0 014.84-5.46s3.35-2.4 3.22-5.66a33.22 33.22 0 00-.91-5.84 11 11 0 017.94 6.65 18.23 18.23 0 01.93 8.75s0 .21-.15.5a6.89 6.89 0 01-.29.77 5.26 5.26 0 00-.49 2.24c.06.56.79 1.51 2.21.85a4.46 4.46 0 002.09-3.08 6 6 0 00.15-.76 2.69 2.69 0 012 1.39A4.43 4.43 0 0150.4 40a21.81 21.81 0 01-1.21 2.5 5 5 0 00.27 4.69A19.83 19.83 0 0151.3 50a4.37 4.37 0 01.62 2c-.06.88-.13 4.82-9.55 6.78l-1.64.22c-11.33 1.53-14.3-6.2-14.3-6.2a9.32 9.32 0 01-.6-1.78 18.41 18.41 0 01.36-8.42A25.69 25.69 0 0129 36.16z" fill="#ef8533"/><path d="M48.42 35.88A4.46 4.46 0 0146.33 39c-1.42.66-2.15-.29-2.21-.85a5.26 5.26 0 01.49-2.24 6.89 6.89 0 00.29-.77s1.78.28 3.52.74z" fill="#7bb85e"/><path d="M40.43 52c-1.3.88-1.68-.52-2.49-1.36s-.87-2.18-1.1-2.35-.51.44-.44-.37a2.09 2.09 0 00-.28-1.33s-1.52 3.7-.12 6.15 4 .26 4 .26a12.54 12.54 0 001.32-1.27s.68-.73-.89.27zm-2.87-5.8C39 48.83 40 48.37 40.7 48.1a5.91 5.91 0 003.21-3.18 9.11 9.11 0 00-.46 2.2c-.18 1.9 1.72 5.45-.78 7.9-3.16 3.08-7.6 0-7.6 0-5.95-4.49-2.43-10.65-2.43-10.65a29.23 29.23 0 013.83-4.72c3.5-3.74 2.19-6 2.19-6s.74-.38 1.11 1.38-1.85 5.39-1.85 5.39-1.83 3.03-.36 5.78z" fill="#fffe55"/><path d="M41.36 51.77A12.54 12.54 0 0140 53s-2.73 2.2-4.09-.3.17-6.13.17-6.13a2.09 2.09 0 01.28 1.33c-.07.81.2.22.44.37s.28 1.53 1.1 2.35 1.23 2.28 2.53 1.38c1.57-1 .93-.23.93-.23z" fill="#ffffc6"/><path d="M28.22 58.69c-7.11-3.86-2.4-7.64-2.4-7.64a9.32 9.32 0 00.6 1.78s3 7.73 14.3 6.2l1.64-.25c9.42-2 9.49-5.9 9.55-6.78a4.37 4.37 0 00-.62-2s6.35 4.7-1.18 8.68c0 0-3.82 2.17-11.12 2.3-7.31-.12-10.77-2.29-10.77-2.29z" fill="#6b7636"/><path d="M18.38 40.36A44.31 44.31 0 0129 36.16a25.69 25.69 0 00-2.84 6.47 18.41 18.41 0 00-.36 8.42s-4.71 3.78 2.4 7.64c0 0 3.46 2.17 10.78 2.3 7.3-.13 11.12-2.3 11.12-2.3 7.53-4 1.18-8.68 1.18-8.68a19.83 19.83 0 00-1.84-2.82 5 5 0 01-.27-4.69A21.81 21.81 0 0050.4 40a4.43 4.43 0 00.12-3.49 42.14 42.14 0 0119.54 12c-2.84.34-4.3 3.13-5.68 5.55-1.7 3-2.74 5.7-8.12 9.26-6.08 4-17.6 6.08-18.68 6.25A63.15 63.15 0 0110 63l-.53-.3s.58-.34-.39-1.2c-4.67-4.24 9.23-19.92 9.23-19.92 1.54-1.73.37-1.34.07-1.22z" fill="#7bb85e"/><path d="M18.38 40.36c.3-.12 1.47-.51-.06 1.17 0 0-13.9 15.68-9.23 19.92 1 .86.39 1.2.39 1.2-7.56-4.33-4.89-9.35-3.18-11.93a36.21 36.21 0 0112-10.33z" fill="#7a5"/></svg>