<svg xmlns="http://www.w3.org/2000/svg" fill="none" viewBox="0 0 80 80">
  <path fill="url(#logo-ruby-a)" fill-rule="evenodd" d="M18.6 76 72 72.4l4.1-53.8-16.2 33L18.6 76Z" clip-rule="evenodd"/>
  <path fill="url(#logo-ruby-b)" fill-rule="evenodd" d="m55 57.2 17.1 15.1-4.6-31.6L55 57.2Z" clip-rule="evenodd"/>
  <path fill="url(#logo-ruby-c)" fill-rule="evenodd" d="m18.8 76 53.4-3.7-33.6-2.6-19.8 6.2Z" clip-rule="evenodd"/>
  <path fill="url(#logo-ruby-d)" fill-rule="evenodd" d="m8.8 52.4 10 23.5 8.5-27.5-18.5 4Z" clip-rule="evenodd"/>
  <path fill="url(#logo-ruby-e)" fill-rule="evenodd" d="M25.2 47.7 55 57.3 47.3 27 25.2 47.7Z" clip-rule="evenodd"/>
  <path fill="url(#logo-ruby-f)" fill-rule="evenodd" d="m47.7 29.2 26.7-1.8-21-17-5.7 18.8Z" clip-rule="evenodd"/>
  <path fill="url(#logo-ruby-g)" fill-rule="evenodd" d="M44.6 4.2h20l-12.3 6.9-7.7-7Z" clip-rule="evenodd"/>
  <path fill="url(#logo-ruby-h)" fill-rule="evenodd" d="M5 41 4 61.6l5-9.4L5 41Z" clip-rule="evenodd"/>
  <path fill="#fff" fill-rule="evenodd" d="m4.6 40.7 4.2 11.9L27 48.5l20.8-19.3 5.9-18.7L44.4 4 28.7 9.9 14 23.8c-.4.1-6.4 11.5-9.3 16.9Z" clip-rule="evenodd"/>
  <path fill="url(#logo-ruby-i)" fill-rule="evenodd" d="M19.4 19.3C30 8.7 43.9 2.4 49.2 7.8c5.3 5.3-.3 18.3-11 29C27.4 47.4 13.8 54 8.4 48.7c-5.3-5.4.2-18.7 11-29.4Z" clip-rule="evenodd"/>
  <path fill="url(#logo-ruby-j)" fill-rule="evenodd" d="m18.9 76 8.3-27.7 27.7 9a61 61 0 0 1-36 18.6Z" clip-rule="evenodd"/>
  <path fill="url(#logo-ruby-k)" fill-rule="evenodd" d="m47.9 29.1 7 28.1a78.5 78.5 0 0 0 19.6-29.8L47.9 29Z" clip-rule="evenodd"/>
  <path fill="url(#logo-ruby-l)" fill-rule="evenodd" d="M74.4 27.5c2.9-8.6 3.5-20.9-9.9-23.2l-11 6 21 17.2Z" clip-rule="evenodd"/>
  <path fill="#AA3E35" fill-rule="evenodd" d="M4 61.5c.3 14.1 10.5 14.4 14.9 14.4l-10-23.4-5 9Z" clip-rule="evenodd"/>
  <path fill="url(#logo-ruby-m)" fill-rule="evenodd" d="m47.9 29.2 19.6 12c.4.2 5.6-8.7 6.8-13.8l-26.4 1.8Z" clip-rule="evenodd"/>
  <path fill="url(#logo-ruby-n)" fill-rule="evenodd" d="m27.2 48.3 11.1 21.5a72 72 0 0 0 16.5-12.6l-27.6-8.9Z" clip-rule="evenodd"/>
  <path fill="url(#logo-ruby-o)" fill-rule="evenodd" d="M8.8 52.5 7.2 71.3c3 4 7 4.4 11.4 4.1-3.1-7.7-9.3-23.2-9.8-22.9Z" clip-rule="evenodd"/>
  <path fill="url(#logo-ruby-p)" fill-rule="evenodd" d="m53.4 10.4 22.2 3.1c-1.2-5-4.8-8.2-11-9.2l-11.2 6.1Z" clip-rule="evenodd"/>
  <defs>
    <linearGradient id="logo-ruby-a" x1="67.4" x2="52.1" y1="82.5" y2="55.6" gradientUnits="userSpaceOnUse">
      <stop stop-color="#F68F71"/>
      <stop offset=".4" stop-color="#DC5242"/>
      <stop offset="1" stop-color="#A72C32"/>
      <stop offset="1" stop-color="#A72C32"/>
    </linearGradient>
    <linearGradient id="logo-ruby-b" x1="74.9" x2="55.3" y1="60" y2="46.8" gradientUnits="userSpaceOnUse">
      <stop stop-color="#9B3F34"/>
      <stop offset="1" stop-color="#A23E36"/>
      <stop offset="1" stop-color="#A23E36"/>
    </linearGradient>
    <linearGradient id="logo-ruby-c" x1="59.2" x2="39.6" y1="83.4" y2="70.2" gradientUnits="userSpaceOnUse">
      <stop stop-color="#9B3F34"/>
      <stop offset="1" stop-color="#A23E36"/>
      <stop offset="1" stop-color="#A23E36"/>
    </linearGradient>
    <linearGradient id="logo-ruby-d" x1="18" x2="21.1" y1="50.4" y2="70.2" gradientUnits="userSpaceOnUse">
      <stop stop-color="#fff"/>
      <stop offset=".2" stop-color="#E28B6F"/>
      <stop offset=".5" stop-color="#DA6144"/>
      <stop offset="1" stop-color="#A60003"/>
      <stop offset="1" stop-color="#A60003"/>
    </linearGradient>
    <linearGradient id="logo-ruby-e" x1="39" x2="40.1" y1="31.9" y2="52.1" gradientUnits="userSpaceOnUse">
      <stop stop-color="#fff"/>
      <stop offset=".2" stop-color="#E08A6D"/>
      <stop offset=".6" stop-color="#C14435"/>
      <stop offset="1" stop-color="#B13430"/>
      <stop offset="1" stop-color="#B13430"/>
    </linearGradient>
    <linearGradient id="logo-ruby-f" x1="57.5" x2="60.9" y1="13.3" y2="27.8" gradientUnits="userSpaceOnUse">
      <stop stop-color="#fff"/>
      <stop offset=".2" stop-color="#DF8063"/>
      <stop offset=".4" stop-color="#C94D37"/>
      <stop offset="1" stop-color="#B13430"/>
      <stop offset="1" stop-color="#B13430"/>
    </linearGradient>
    <linearGradient id="logo-ruby-g" x1="47.3" x2="61.8" y1="8.2" y2="1" gradientUnits="userSpaceOnUse">
      <stop stop-color="#fff"/>
      <stop offset=".5" stop-color="#C94838"/>
      <stop offset="1" stop-color="#C12D2F"/>
      <stop offset="1" stop-color="#C12D2F"/>
    </linearGradient>
    <linearGradient id="logo-ruby-h" x1="5.4" x2="6.5" y1="45.4" y2="57.3" gradientUnits="userSpaceOnUse">
      <stop stop-color="#fff"/>
      <stop offset=".3" stop-color="#DA6548"/>
      <stop offset="1" stop-color="#C14433"/>
      <stop offset="1" stop-color="#C14433"/>
    </linearGradient>
    <linearGradient id="logo-ruby-i" x1="-2.8" x2="53.1" y1="60.5" y2="3" gradientUnits="userSpaceOnUse">
      <stop stop-color="#BD0012"/>
      <stop offset=".1" stop-color="#fff"/>
      <stop offset=".2" stop-color="#fff"/>
      <stop offset=".3" stop-color="#C95841"/>
      <stop offset=".3" stop-color="#983734"/>
      <stop offset=".5" stop-color="#AE4231"/>
      <stop offset=".7" stop-color="#B93E2F"/>
      <stop offset="1" stop-color="#DE4E2B"/>
      <stop offset="1" stop-color="#DE4E2B"/>
    </linearGradient>
    <linearGradient id="logo-ruby-j" x1="40" x2="23.2" y1="66.3" y2="62.2" gradientUnits="userSpaceOnUse">
      <stop stop-color="#9F3633"/>
      <stop offset=".5" stop-color="#A73532"/>
      <stop offset="1" stop-color="#B13439"/>
      <stop offset="1" stop-color="#B13439"/>
    </linearGradient>
    <linearGradient id="logo-ruby-k" x1="69" x2="54" y1="46.1" y2="32.7" gradientUnits="userSpaceOnUse">
      <stop stop-color="#923C36"/>
      <stop offset="1" stop-color="#AA3531"/>
      <stop offset="1" stop-color="#AA3531"/>
    </linearGradient>
    <linearGradient id="logo-ruby-l" x1="74.5" x2="67" y1="21.5" y2="13.5" gradientUnits="userSpaceOnUse">
      <stop stop-color="#8D3E36"/>
      <stop offset="1" stop-color="#AA3E37"/>
      <stop offset="1" stop-color="#AA3E37"/>
    </linearGradient>
    <linearGradient id="logo-ruby-o" x1="13.6" x2="7.6" y1="75.9" y2="55.3" gradientUnits="userSpaceOnUse">
      <stop stop-color="#994939"/>
      <stop offset=".4" stop-color="#AA3A36"/>
      <stop offset="1" stop-color="#B83936"/>
      <stop offset="1" stop-color="#B83936"/>
    </linearGradient>
    <linearGradient id="logo-ruby-p" x1="60.3" x2="73.9" y1="7.6" y2="13.6" gradientUnits="userSpaceOnUse">
      <stop stop-color="#B9392F"/>
      <stop offset=".4" stop-color="#A23A36"/>
      <stop offset="1" stop-color="#8D463A"/>
      <stop offset="1" stop-color="#8D463A"/>
    </linearGradient>
    <radialGradient id="logo-ruby-m" cx="0" cy="0" r="1" gradientTransform="matrix(18.3 0 0 18.3 56.3 33)" gradientUnits="userSpaceOnUse">
      <stop stop-color="#B13430"/>
      <stop offset="1" stop-color="#923934"/>
      <stop offset="1" stop-color="#923934"/>
    </radialGradient>
    <radialGradient id="logo-ruby-n" cx="0" cy="0" r="1" gradientTransform="matrix(24.4 0 0 24.4 31 57.1)" gradientUnits="userSpaceOnUse">
      <stop stop-color="#AE3531"/>
      <stop offset="1" stop-color="#953A36"/>
      <stop offset="1" stop-color="#953A36"/>
    </radialGradient>
  </defs>
</svg>
