<svg width="48" height="48" fill="none" xmlns="http://www.w3.org/2000/svg"><path clip-rule="evenodd" d="M10 1a9 9 0 019 9 9 9 0 01-9 9 9 9 0 01-9-9 9 9 0 019-9zM23 19a6 6 0 110 12 6 6 0 010-12zM23 35a6 6 0 110 12 6 6 0 010-12z" stroke="#2088FF" stroke-width="2" stroke-linecap="round" stroke-linejoin="round"/><path clip-rule="evenodd" d="M41 35a6 6 0 110 12 6 6 0 010-12z" stroke="#79B8FF" stroke-width="2" stroke-linecap="round" stroke-linejoin="round"/><path d="M25.037 23.607l-3.07 3.065-1.49-1.485" stroke="#2088FF" stroke-width="2" stroke-linecap="round" stroke-linejoin="round"/><path clip-rule="evenodd" d="M41 19a6 6 0 110 12 6 6 0 010-12z" stroke="#2088FF" stroke-width="2" stroke-linecap="round" stroke-linejoin="round"/><path d="M43.036 23.607l-3.069 3.065-1.49-1.485M7 6.812a1 1 0 011.533-.846l5.113 3.22a1 1 0 01-.006 1.697l-5.113 3.17A1 1 0 017 13.203V6.813zM9 19v15c0 3.866 3.177 7 7 7h1" stroke="#2088FF" stroke-width="2" stroke-linecap="round" stroke-linejoin="round"/><path d="M16.949 26a1 1 0 100-2v2zM8 19.035A6.965 6.965 0 0014.965 26v-2A4.965 4.965 0 0110 19.035H8zM14.965 26h1.984v-2h-1.984v2z" fill="#2088FF"/><path d="M29.055 25h5.944" stroke="#2088FF" stroke-width="2" stroke-linecap="round" stroke-linejoin="round"/><path fill-rule="evenodd" clip-rule="evenodd" d="M21 40a1 1 0 11-.001 2.001A1 1 0 0121 40zM25 40a1 1 0 11-.001 2.001A1 1 0 0125 40z" fill="#79B8FF"/><path d="M34.005 41.007l-1.013.033" stroke="#79B8FF" stroke-width="2" stroke-linecap="round"/></svg>