<svg xmlns="http://www.w3.org/2000/svg" fill="none" viewBox="0 0 80 80">
  <path fill="currentColor" d="M45 16a5.6 5.6 0 0 0-9.6 0l-7.9 13.6a38.6 38.6 0 0 1 21.3 32h-5.5c-1-11.7-8-22.1-18.6-27.3L17.4 47a19 19 0 0 1 11.1 14.6H15.7a.8.8 0 0 1-.8-1v-.4l3.6-6c-1.2-1-2.5-1.7-4-2.3L11 58a5.4 5.4 0 0 0 4.7 8.2h17.5c.6-8.2-3-16-9.7-20.8l2.8-4.8c8.4 5.7 13 15.5 12.4 25.6h14.8c.7-15.4-6.8-30-19.7-38.2l5.6-9.6c.2-.5.8-.6 1.2-.3.7.3 24.4 41.7 24.8 42.2.3.5.1 1-.3 1.3l-.5.1H59v4.6h5.8c3 0 5.5-2.4 5.5-5.5 0-1-.2-2-.7-2.8L45 16.1Z"/>
</svg>
