<svg xmlns="http://www.w3.org/2000/svg" viewBox="0 0 80 80"><title>logos</title><path d="M39.08,14.36A38.65,38.65,0,0,1,57.4,18.74,55.77,55.77,0,0,1,72.5,30.29a62.75,62.75,0,0,1,7.39,9.41.47.47,0,0,1,0,.59A63.43,63.43,0,0,1,65.79,55.86a46.89,46.89,0,0,1-14.57,8A35.79,35.79,0,0,1,38,65.6a38.63,38.63,0,0,1-16.17-4.72,57,57,0,0,1-15-11.8A63.21,63.21,0,0,1,.09,40.26a.41.41,0,0,1,0-.52A62.68,62.68,0,0,1,16.59,22.38a44.22,44.22,0,0,1,13.86-6.72A34.25,34.25,0,0,1,39.08,14.36ZM4.52,40l.22.34A59.81,59.81,0,0,0,15.35,51.86a44,44,0,0,0,14.54,8.33A31.75,31.75,0,0,0,47.41,61a40,40,0,0,0,13.72-6.38A58.09,58.09,0,0,0,73,43.39c.88-1.09,1.71-2.23,2.55-3.35l-.29-.44A60.43,60.43,0,0,0,69.84,33,53,53,0,0,0,56.77,22.72a34.76,34.76,0,0,0-15.91-4.53,33.36,33.36,0,0,0-15.12,3.27,49.66,49.66,0,0,0-13.88,9.85A58.9,58.9,0,0,0,4.52,40Z" style="fill:#349966"/><path d="M38.37,21.46h3.27l.18,3.06,2.43.48,1.34-2.76,3,1.24-1,2.91,2,1.38,2.27-2,2.32,2.32-2,2.26,1.38,2.06,2.91-1,1.25,3L55,35.76l.48,2.42,3.06.19v3.27l-3,.19L55,44.24l2.77,1.35-1.25,3-2.91-1-1.37,2.06,2,2.27-2.33,2.31-2.25-2-2.06,1.38,1,2.91-3,1.25L44.25,55l-2.43.49-.18,3H38.37l-.19-3L35.76,55l-1.35,2.77-3-1.25,1-2.91-2.06-1.38-2.25,2-2.32-2.3,2-2.27-1.37-2-2.91,1-1.25-3L25,44.25l-.48-2.43-3.06-.19V38.38l3.06-.2L25,35.76l-2.76-1.35,1.25-3,2.91,1,1.37-2.06-2-2.25,2.32-2.32,2.26,2,2-1.37-1-2.91,3-1.25L35.76,25l2.42-.47ZM40,50.37A10.37,10.37,0,1,0,29.64,40,10.34,10.34,0,0,0,40,50.37Z" style="fill:#026699"/><path d="M40,46.28A6.28,6.28,0,1,1,46.28,40,6.28,6.28,0,0,1,40,46.28Z" style="fill:#900"/></svg>