<svg xmlns="http://www.w3.org/2000/svg" viewBox="0 0 80 80"><defs><style>.a{fill:#9386a0}</style></defs><path class="a" d="M40 80.6c-1 0-2 0-3-.11l.22-3a37.6 37.6 0 0011-.82l.66 2.9A40.41 40.41 0 0140 80.6zm-8.86-1A39.69 39.69 0 0120 75.27l1.49-2.58a36.3 36.3 0 0010.27 4zm23.5-1.78l-1.09-2.77a37 37 0 009.55-5.52l1.9 2.33a39.85 39.85 0 01-10.36 5.97zM15.1 71.91A40.27 40.27 0 017 63.18l2.44-1.68A37 37 0 0017 69.58zm54.23-4.12l-2.18-2a36.87 36.87 0 006.22-9.11L76.05 58a39.92 39.92 0 01-6.72 9.79zM4 58A39.91 39.91 0 01.45 46.64l2.94-.45a37 37 0 003.27 10.53zm74.26-5.64l-2.85-.87A36.84 36.84 0 0077 40.6v-.16h3v.16a40 40 0 01-1.76 11.78zM0 40.68v-.08a40.2 40.2 0 011.74-11.71l2.84.87A37.34 37.34 0 003 40.6zm76.6-5.75a37.07 37.07 0 00-3.29-10.53L76 23.1a39.44 39.44 0 013.55 11.38zm-70-10.32l-2.69-1.29a40.22 40.22 0 016.7-9.86l2.18 2a37.45 37.45 0 00-6.2 9.15zm63.93-5A37 37 0 0063 11.57l1.85-2.33a40 40 0 018.15 8.7zm-53.69-7.9L15 9.39a39.84 39.84 0 0110.3-6l1.09 2.77a36.73 36.73 0 00-9.55 5.55zm41.57-3.25a36.82 36.82 0 00-10.28-4l.65-2.91a40.13 40.13 0 0111.11 4.33zM31.65 4.52L31 1.62A40.19 40.19 0 0142.87.7l-.22 3a37 37 0 00-11 .82zM33.66 36.16a5.73 5.73 0 01.45-1.87 5.44 5.44 0 011.2-1.74 5.86 5.86 0 012-1.29 7.17 7.17 0 012.77-.5 7.55 7.55 0 012.51.4 6.6 6.6 0 012 1.1 5 5 0 011.32 1.66 4.76 4.76 0 01.44 2.08 4.61 4.61 0 01-.35 2 5.8 5.8 0 01-1 1.41 11.24 11.24 0 01-1.22 1.17c-.43.36-.84.73-1.22 1.11a5.61 5.61 0 00-.94 1.25 3.29 3.29 0 00-.37 1.62V45a.73.73 0 01-.22.52.74.74 0 01-.53.23h-1a.7.7 0 01-.52-.23.69.69 0 01-.22-.52v-.58a4.58 4.58 0 01.37-1.93 6 6 0 01.94-1.49 12.24 12.24 0 011.22-1.17 16.44 16.44 0 001.22-1.11 5.89 5.89 0 00.94-1.21 2.87 2.87 0 00.38-1.51 2.44 2.44 0 00-.32-1.24 2.91 2.91 0 00-.85-.9 4.12 4.12 0 00-1.2-.55 5.08 5.08 0 00-1.4-.19 4.21 4.21 0 00-2.47.72 3.8 3.8 0 00-1.41 2.32.67.67 0 01-.28.46.78.78 0 01-.44.15h-1.19a.64.64 0 01-.45-.18.47.47 0 01-.16-.43zm7.89 13.53a.75.75 0 01-.74.74h-1.58a.75.75 0 01-.75-.74v-1.58a.75.75 0 01.75-.75h1.58a.75.75 0 01.74.75z"/></svg>