<svg xmlns="http://www.w3.org/2000/svg" viewBox="0 0 80 80"><defs><style>.a{fill:#9386a0}</style></defs><path class="a" d="M44.1 42.6a.8.8 0 1 1 .8-.7.8.8 0 0 1-.8.7m-8.6 0a.8.8 0 1 1 .8-.7.8.8 0 0 1-.8.7m8.9-4.7 1.6-2.7a.3.3 0 1 0-.6-.3L44 37.6a9.8 9.8 0 0 0-8 0L34.2 35a.3.3 0 1 0-.6.3l1.6 2.7a9.2 9.2 0 0 0-4.8 7.4h18.8a9.2 9.2 0 0 0-4.8-7.4"/><path class="a" d="M54.3 2.2a2.6 2.6 0 0 1 2.6 2.5v70.6a2.6 2.6 0 0 1-2.6 2.6h-29a2.6 2.6 0 0 1-2.6-2.6V4.8a2.6 2.6 0 0 1 2.6-2.6zM25 5.8a1.2 1.2 0 1 0-1.2-1.2A1.2 1.2 0 0 0 25 5.8zm34-1A4.7 4.7 0 0 0 54.3 0h-29a4.7 4.7 0 0 0-4.7 4.7v70.6a4.7 4.7 0 0 0 4.7 4.7h29a4.7 4.7 0 0 0 4.7-4.7V39.5h.4V29H59V24h.4v-5.2H59z"/></svg>
