<svg xmlns="http://www.w3.org/2000/svg" viewBox="0 0 80 80"><defs><style>.a{fill:#292929}.b{fill:#fff}.d{fill:#fac424}</style></defs><path class="a" d="m65.2 54.6.6.1a2.9 2.9 0 0 1 2.4 2.3 21.6 21.6 0 0 1 .4 2.1 5.1 5.1 0 0 0 1.6 3l2.3 2a8.8 8.8 0 0 1 1.1 1 2.2 2.2 0 0 1 0 3 9 9 0 0 1-1.6 1.6l-4.2 2.8a62.2 62.2 0 0 0-7.5 5.8 7.5 7.5 0 0 1-9 .3 4.6 4.6 0 0 1-1.8-2.8.6.6 0 0 0-.3-.3 20.4 20.4 0 0 0-6-1.8 27.2 27.2 0 0 0-7.6 0l-1.7.5a.6.6 0 0 0-.5.5A6.8 6.8 0 0 1 29 79a7.9 7.9 0 0 1-4.5-.1 27.1 27.1 0 0 1-3.3-1 35.3 35.3 0 0 0-6-1.8l-6.4-1.6a4.6 4.6 0 0 1-.9-.4 3 3 0 0 1-1.6-3.4 11.9 11.9 0 0 1 .4-1.3A10.8 10.8 0 0 0 7 65a29.2 29.2 0 0 1-.1-3.3 2.8 2.8 0 0 1 2.4-3l2.6-.6a4 4 0 0 0 2.8-2 14.3 14.3 0 0 1 1.4-2 1.9 1.9 0 0 0 .5-1.5 19.6 19.6 0 0 1 3.2-11.2l5.9-8.6a25 25 0 0 0 3.7-7.6 18.3 18.3 0 0 0 .5-6 74.7 74.7 0 0 1 0-9.1A10.8 10.8 0 0 1 37.5.6 11 11 0 0 1 47 1.8a10.4 10.4 0 0 1 4.4 6.6 23.8 23.8 0 0 1 .5 5.4l.2 7a13.6 13.6 0 0 0 2 6.3 63.7 63.7 0 0 0 3.7 5.5 73.1 73.1 0 0 1 5.8 9.2 20.3 20.3 0 0 1 2 5.6 15.4 15.4 0 0 1-.4 6.7l-.1.5z"/><path class="a" d="M32 23.7h-.1v.1l2 2a5 5 0 0 0 5.1 1.8 9.4 9.4 0 0 0 4-2l3-2.1a1.7 1.7 0 0 0 .5-.8 4.2 4.2 0 0 0 .2-1.1A1.4 1.4 0 0 0 46 20a8.6 8.6 0 0 0-.8-.3l-5.4-2a5 5 0 0 0-4 .1 23 23 0 0 0-3.2 2 5.6 5.6 0 0 0-1.2 1.4 3 3 0 0 0-.3 1c0 .3 0 .5.3.6l1.9 1a8 8 0 0 0 4.9 1 9.7 9.7 0 0 0 4-1.5l2.5-1.8a.7.7 0 0 1 1 0l-.3.3-1.6 1a16 16 0 0 1-3.8 2 7.5 7.5 0 0 1-5.5 0c-.9-.3-1.6-.8-2.4-1.2z"/><path class="b" d="M62.4 52.8h.1a8.3 8.3 0 0 0-3.2-1l-2.2-.2a11.2 11.2 0 0 0 .6-7.2c-.7-2.2-3.1-5.8-4.1-5.9a11.8 11.8 0 0 1 3.3 6 9.7 9.7 0 0 1-1 7l-.2.1H55v-.5c0-1.2-.1-2.4-.3-3.5a25.4 25.4 0 0 0-2.3-7.2 13.8 13.8 0 0 0-1.8-3 2.2 2.2 0 0 1-.4-.6 21 21 0 0 0-.8-2.8 32.6 32.6 0 0 1-2.5-8.3l-.5-2-1.7 1.1-2.2 1.7a8.3 8.3 0 0 1-4 1.7 5 5 0 0 1-4.8-2c-.3-.6-.8-1-1.3-1.5a2.5 2.5 0 0 0-.3-.3l-.8 4.4a21.3 21.3 0 0 1-1.7 5.2 18.7 18.7 0 0 0-1.7 4 .6.6 0 0 1-.1.2 17.7 17.7 0 0 0-1 1.5A30.3 30.3 0 0 0 23 50.9l-.2 1.6a10.8 10.8 0 0 1-.6-7.1 13.1 13.1 0 0 1 3.1-6.4h-.1a9 9 0 0 0-1 1 14.3 14.3 0 0 0-2.8 11.5 7.7 7.7 0 0 0 1.9 4 18.1 18.1 0 0 0 1.8 1.8l4 3.1A14.1 14.1 0 0 1 31 62a2.5 2.5 0 0 1-.1 3.6 14.8 14.8 0 0 1-1.3 1 7 7 0 0 0 2.1 1.4 17.6 17.6 0 0 0 11.1 1 13.4 13.4 0 0 0 7.7-5 .6.6 0 0 0 0-.3l.2-3.4.2-3.2a2.5 2.5 0 0 1 2.2-2.4.4.4 0 0 0 .2-.3 2 2 0 0 1 1.3-1.5 9 9 0 0 1 2-.4 15.4 15.4 0 0 1 5.8.4z"/><path class="a" d="M7.8 65.9a17.4 17.4 0 0 1-.2 2c-.1.9-.4 1.8-.7 2.7a2.3 2.3 0 0 0 1.3 2.9 6 6 0 0 0 1.2.5l6.3 1.6a32.9 32.9 0 0 1 6 1.8 17.5 17.5 0 0 0 4 1.1 6.4 6.4 0 0 0 3.5-.2 6.4 6.4 0 0 0 3.4-3.4 2.7 2.7 0 0 0 .2-.6 5.6 5.6 0 0 0-1.3-4.7l-2.3-2.9-7.3-10.5a12.3 12.3 0 0 0-1.4-1.6 2.5 2.5 0 0 0-1.4-.8 3 3 0 0 0-2.9 1.5l-.8 1.5a4.2 4.2 0 0 1-2.8 2l-3.1.8a2.3 2.3 0 0 0-1.8 2 7.2 7.2 0 0 0 0 1.3l.1 3zm45.4-10.7a1.5 1.5 0 0 0-1.4 1 4.8 4.8 0 0 0-.5 2l-.1 4.6a29.2 29.2 0 0 1-.9 7.5 11.8 11.8 0 0 0-.4 4.5 4.5 4.5 0 0 0 2.2 3.7 7 7 0 0 0 7.8-.7 67.3 67.3 0 0 1 8.7-6.5c1.3-.9 2.6-1.7 3.8-2.7 1.6-1.2 1.4-2 .4-3.1a27 27 0 0 0-2.3-2.3 6.8 6.8 0 0 1-2.4-3.5l-.3-2a2.7 2.7 0 0 0-2-2.3 11.5 11.5 0 0 0-2-.2.4.4 0 0 0-.5.3c-.4.7-.7 1.4-1.2 2a7.5 7.5 0 0 1-4.8 3.4 2.7 2.7 0 0 1-3.3-1.6 8.9 8.9 0 0 1-.6-2l-.2-2.1z"/><path class="b" d="m43.8 18.8 1.2.5a.3.3 0 0 0 .4-.1l1-1.6a4.4 4.4 0 0 0 .5-3.3 3.5 3.5 0 0 0-2.5-2.8 3.3 3.3 0 0 0-3.4 1 6 6 0 0 0-1.4 4.6.3.3 0 0 0 .1.2l1.4.5a3 3 0 0 1 .5-3 1.8 1.8 0 0 1 3.3.5 3 3 0 0 1-1.1 3.5zM35 17.6l.6-.2a.4.4 0 0 0 .1-.3 6.2 6.2 0 0 0-1-4.2 1.8 1.8 0 0 0-1.5-.8 2 2 0 0 0-2.2 1.7 6.2 6.2 0 0 0 1 5.2 3 3 0 0 0 .3.3l.7-.5a2.4 2.4 0 0 1-1-1.2 3 3 0 0 1 .2-2.7 1.1 1.1 0 0 1 1.9-.2 2.8 2.8 0 0 1 .7 1.1 11 11 0 0 1 .2 1.8z"/><path d="m7.8 65.9-.2-3a7.2 7.2 0 0 1 0-1.3 2.3 2.3 0 0 1 1.9-2l3-.7a4.2 4.2 0 0 0 2.8-2.1l.9-1.5a3 3 0 0 1 3-1.4 2.5 2.5 0 0 1 1.3.7 12.3 12.3 0 0 1 1.4 1.6l7.3 10.6 2.3 2.8a5.6 5.6 0 0 1 1.3 4.7 2.7 2.7 0 0 1-.2.6 6.4 6.4 0 0 1-3.4 3.5 6.4 6.4 0 0 1-3.4.2 17.5 17.5 0 0 1-4-1.2 32.9 32.9 0 0 0-6-1.8c-2.2-.4-4.3-1-6.4-1.6a6 6 0 0 1-1.2-.5 2.3 2.3 0 0 1-1.3-2.8c.3-1 .6-1.9.7-2.8a17.4 17.4 0 0 0 .2-2zm45.4-10.7c0 .7 0 1.5.2 2.2a8.9 8.9 0 0 0 .6 1.8 2.7 2.7 0 0 0 3.4 1.7 7.5 7.5 0 0 0 4.8-3.3l1.2-2.1a.4.4 0 0 1 .4-.3 11.5 11.5 0 0 1 2 .2 2.7 2.7 0 0 1 2 2.3l.4 2a6.8 6.8 0 0 0 2.3 3.5 27 27 0 0 1 2.3 2.2c1 1 1.2 2-.4 3.1a38 38 0 0 1-3.8 2.7 67.3 67.3 0 0 0-8.7 6.6 7 7 0 0 1-7.8.7 4.5 4.5 0 0 1-2.2-3.7 11.8 11.8 0 0 1 .4-4.6 29.2 29.2 0 0 0 .9-7.5l.1-4.5a4.8 4.8 0 0 1 .5-2 1.5 1.5 0 0 1 1.4-1z" style="fill:#fbc524"/><path class="d" d="m32 23.7 2.4 1.3a7.5 7.5 0 0 0 5.5 0 16 16 0 0 0 3.8-2l1.6-1.1.3-.2a.7.7 0 0 0-1 0l-2.5 1.7a9.7 9.7 0 0 1-4 1.5 8 8 0 0 1-5-1l-1.8-1c-.2 0-.4-.3-.3-.5a3 3 0 0 1 .3-1 5.6 5.6 0 0 1 1.2-1.4 23 23 0 0 1 3.1-2 5 5 0 0 1 4-.2l5.5 2a8.6 8.6 0 0 1 .8.4 1.4 1.4 0 0 1 .9 1.4 4.2 4.2 0 0 1-.3 1.2 1.7 1.7 0 0 1-.5.7l-3 2.2a9.4 9.4 0 0 1-4 2 5 5 0 0 1-5.2-1.8c-.5-.7-1.2-1.4-1.9-2zm6-5.3 1 .5a1.5 1.5 0 0 0 .4 0v-.4c-.4-.3-.8-.3-1.4-.1zm-1.5 0a1 1 0 0 0-1 .2 1 1 0 0 0 0 .3h.3l.8-.5zM32 23.8h-.1.1z"/><path d="M38 18.4c.5-.2 1-.2 1.3.1l.1.4a1.5 1.5 0 0 1-.3 0l-1.1-.5z" fill="#363228"/><path d="m36.6 18.4-.8.5h-.3a1 1 0 0 1 0-.3 1 1 0 0 1 1-.2z" fill="#322f28"/></svg>
