<svg xmlns="http://www.w3.org/2000/svg" viewBox="0 0 80 80"><path d="m80 34.3-1 2L73.8 47a8.7 8.7 0 0 1-2.3 3 5 5 0 0 1-3 1 4.3 4.3 0 0 1-1.7-.1 1.8 1.8 0 0 1-1-2.6c.3-.7.2-.7 1-.6a5.8 5.8 0 0 0 1.2 0 1.9 1.9 0 0 0 1.6-1.4.6.6 0 0 0 0-.2L67.3 35l-.2-1a12 12 0 0 1 2.9-.2 4.8 4.8 0 0 1 1 .1 1.2 1.2 0 0 1 1 1.2l.3 4.6V43a78 78 0 0 1 2.9-8.8c0-.3.2-.3.3-.3H80zm-80 11 .5-1.7.4-1.1 2 .5a9.6 9.6 0 0 0 1.7 0c.3 0 .6 0 .7-.4s-.1-.6-.4-.8l-1-.4-1-.3a3 3 0 0 1-1.8-4 4.5 4.5 0 0 1 4-3.4 9 9 0 0 1 3.5.2h.2a1.7 1.7 0 0 1 1.2 2.6 3.3 3.3 0 0 1-.5 1c-.3.2-.6-.1-1-.2a6.3 6.3 0 0 0-2.4-.2c-.3 0-.5.2-.6.5a.6.6 0 0 0 .4.6l1.4.6a11 11 0 0 1 1.5.8 2.6 2.6 0 0 1 1.1 2.9 4.6 4.6 0 0 1-3.7 3.7 9.8 9.8 0 0 1-5.9-.6l-.3-.1zM11.8 34h3.4l.3 1.6.5-.6a4.5 4.5 0 0 1 3.7-1.3 3.3 3.3 0 0 1 2.7 2.6 8.9 8.9 0 0 1 .2 4 9.4 9.4 0 0 1-1.2 3.4 5 5 0 0 1-4.9 2.5 2.3 2.3 0 0 1-1.7-.9l-.7 5.6H9.5zm6.3 5v-.8a1.1 1.1 0 0 0-2-.8.6.6 0 0 0-.2.4l-.7 4.8c0 .6.1.7.7.7h.1a1.7 1.7 0 0 0 1.5-1.2A9.3 9.3 0 0 0 18 39zm33 4.6a2.2 2.2 0 0 1-1.5 2.5 4.1 4.1 0 0 1-2.7 0 2 2 0 0 1-1.4-2.1l.3-2.7.3-2.7a1 1 0 0 0-.6-1 1.2 1.2 0 0 0-1.2.1.6.6 0 0 0-.2.3l-.9 6.6L43 46h-4.6L40 33.9h2.6c.7 0 .7 0 .8.8l.1.9 1-.8a4.5 4.5 0 0 1 3.6-1 2.9 2.9 0 0 1 2.5 2.6 9.8 9.8 0 0 1 0 3l-.5 3.2c0 .8 0 1 .8 1z"/><path d="M66 43.6a2.2 2.2 0 0 1-.8 2 3.8 3.8 0 0 1-3.8.4 2.1 2.1 0 0 1-1-2.1l.2-2.4 1-7.5.7-4.7.1-1.2.2-.3a9 9 0 0 1 3.4 0c.8.2 1 .6 1 1.4l-.7 5-1 7.4-.2 1c-.1.7 0 1 .8 1zM58 37l-.5 3.1-.3 1.8c0 .7.2 1 1 1h.9l-.1 1.7v.7a.4.4 0 0 1-.4.5 8.7 8.7 0 0 1-4 .4 2.1 2.1 0 0 1-2-2.1 14.8 14.8 0 0 1 .2-3.2l.6-4h-1.6l.3-1.6.1-.9a1.3 1.3 0 0 1 .9-.2 1.4 1.4 0 0 0 1.4-1.3 14.5 14.5 0 0 1 .6-1.8l.3-.2h3.4l-.4 3h2L60 37zm-30.3-3 .3 1.6.2-.3a4.5 4.5 0 0 1 3.6-1.6 1 1 0 0 1 1 1 5.8 5.8 0 0 1-.2 1.4 4.4 4.4 0 0 1-.3.9l-.6 1-.8-.2a4.2 4.2 0 0 0-2.2.1.5.5 0 0 0-.4.4l-1 7.2c0 .6 0 .6-.7.6h-4L24.3 34zm4.5 12 .3-1.9 1.1-8a2.9 2.9 0 0 1 .8-1.9A2.3 2.3 0 0 1 37 34a2.3 2.3 0 0 1 1.2 2.3L37 45.8c0 .2 0 .3-.3.3h-4.2zm4.2-13.9H36a1.5 1.5 0 0 1-1.6-1.7 2.4 2.4 0 0 1 2.5-2.6 3.6 3.6 0 0 1 .7 0 1.8 1.8 0 0 1 1.6 2.2 2.5 2.5 0 0 1-2.8 2.1z"/><path d="M18.1 39a9.3 9.3 0 0 1-.6 3 1.7 1.7 0 0 1-1.5 1.3h-.1c-.6 0-.8-.1-.7-.7l.7-4.8a.6.6 0 0 1 .2-.4 1.1 1.1 0 0 1 1.9.8l.1.8z" fill="#fff"/></svg>
