<svg xmlns="http://www.w3.org/2000/svg" viewBox="0 0 80 80"><path d="M6.75 80c0-.5 16.74-20.81 17.09-20.74.2.05 7.66 3.21 16.58 7 15.22 6.54 16.23 6.93 16.64 6.38A65 65 0 0061 64.52l1-2.41-1.62-.89a34 34 0 01-7.78-6.46c-1.93-2.19-5.4-7.48-5.4-8.23 0-.24 1.1.87 2.45 2.48 3.72 4.52 12.45 11.59 13 10.58.65-1.19 1.07-4.72 1.05-8.8a43.47 43.47 0 00-2.39-14.22l-1-3-4.76-1.49-5.82-1.83c-2.05-.65-.77-.62 2.24.06 3.59.8 7.24 1.48 9.5 1.76 2 .25 2.43-.14 2.65-2.35.27-2.83-1.56-10.63-3.39-14.51a4 4 0 00-2.54-2.56C53.34 10.41 38 8.31 31.53 9c-2.81.29-5.7 1-6.6 1.56-.25.17 1.56.63 4.68 1.21 2.8.51 4.84 1 4.54 1s-4.71-.42-9.79-1.07c-8.21-1.06-9.14-1.16-9.72-.73A11.7 11.7 0 0011 16.92c-.44 1.93-.45 2 .42 3.83 1.4 2.87 4 5 10 8a38.29 38.29 0 015 2.75 43.77 43.77 0 01-5.34-2l-5.19-2.14-7.65 2.1C4.06 30.63.17 31.63 0 31.63V5a5 5 0 015-5h70a5 5 0 015 5v70a5 5 0 01-5 5z"/></svg>