<svg xmlns="http://www.w3.org/2000/svg" id="Layer_1" data-name="Layer 1" viewBox="123.61 106.13 254.79 287.75"><defs><style>.cls-1{fill:#4c4c4c;}.cls-2{fill:gray;}</style></defs><path class="cls-1" d="M378.38,307.46V173.24L262.15,106.13v51.48l45.54,26.3a2.57,2.57,0,0,1,0,4.41l-54.14,31.25a5.08,5.08,0,0,1-5.1,0l-54.14-31.25a2.56,2.56,0,0,1,0-4.41l45.54-26.3V106.13L123.61,173.24V307.46l44.58-25.74V229.13a2.57,2.57,0,0,1,3.82-2.2l54.14,31.26a5.11,5.11,0,0,1,2.55,4.42v62.5a2.56,2.56,0,0,1-3.8,2.22L179.35,301l-44.59,25.74L251,393.88l116.24-67.11L322.65,301l-45.54,26.3a2.57,2.57,0,0,1-3.82-2.22V262.6a5.08,5.08,0,0,1,2.56-4.41L330,226.93a2.56,2.56,0,0,1,3.82,2.21v52.58Z"/><path d="M251,393.88l116.24-67.11L322.65,301l-45.54,26.3a2.57,2.57,0,0,1-3.82-2.22V262.6a5.08,5.08,0,0,1,2.56-4.41L330,226.93a2.56,2.56,0,0,1,3.82,2.21v52.58l44.58,25.74V173.24L251,246.79Z"/><path class="cls-2" d="M262.15,106.13v51.48l45.54,26.3a2.57,2.57,0,0,1,0,4.41l-54.14,31.26a5.1,5.1,0,0,1-5.1,0l-54.14-31.25a2.56,2.56,0,0,1,0-4.41l45.54-26.3V106.13L123.61,173.24,251,246.79l127.38-73.55Z"/><path class="cls-1" d="M224.91,327.33,179.35,301l-44.59,25.74L251,393.88V246.79L123.61,173.24V307.46l44.58-25.74V229.13a2.57,2.57,0,0,1,3.82-2.2l54.14,31.26a5.11,5.11,0,0,1,2.55,4.42v62.5A2.56,2.56,0,0,1,224.91,327.33Z"/></svg>