<svg xmlns="http://www.w3.org/2000/svg" viewBox="0 0 80 80"><defs><mask id="a" x="5.49" y="35.32" width="3.94" height="9.35" maskUnits="userSpaceOnUse"><path fill="#fff" fill-rule="evenodd" d="M5.49 35.32h3.94v9.35H5.49v-9.35z"/></mask><mask id="b" x="72.61" y="41.43" width="3.29" height="3.25" maskUnits="userSpaceOnUse"><path fill="#fff" fill-rule="evenodd" d="M72.61 41.43h3.29v3.25h-3.29v-3.25z"/></mask></defs><path fill="#1d1c39" d="M0 0h80v80H0z"/><g mask="url(#a)"><path d="M8.58 38.81a.75.75 0 00.85-.8.77.77 0 00-.83-.8H7.37v-.9a.94.94 0 10-1.88 0v6.21c0 1.49.6 2.15 2 2.15a2.7 2.7 0 001.46-.36.7.7 0 00.33-.62c0-.4-.27-.85-.66-.85a.51.51 0 00-.17 0h-.07a.94.94 0 01-.44.11c-.25 0-.52-.08-.52-.74v-3.4z" fill="#fff" fill-rule="evenodd"/></g><path d="M12.92 38.56a2.21 2.21 0 01.7-.13 1.83 1.83 0 011.6 1l-3.5 1.25a1.76 1.76 0 011.2-2.12M16.68 42a.87.87 0 00-.54.19 3.55 3.55 0 01-1.15.67 3 3 0 01-1 .18 2 2 0 01-1.84-1.15l4.32-1.55a.84.84 0 00.63-1.12 3.41 3.41 0 00-3.24-2.31 4.48 4.48 0 00-1.49.27 3.71 3.71 0 00-2.28 2.07 4 4 0 000 2.88 3.56 3.56 0 003.43 2.51 5.18 5.18 0 00.94-.1 7.22 7.22 0 00.83-.23 6.1 6.1 0 001.9-1.09.74.74 0 00.19-.65.76.76 0 00-.74-.59M23.92 40.83a2 2 0 01-2 2.18 2 2 0 01-2-2.16 2 2 0 012-2.2 2 2 0 012 2.18m1-3.85a.91.91 0 00-1 .93 3 3 0 00-2.34-1A3.55 3.55 0 0018 40.83a3.52 3.52 0 003.58 3.84A3 3 0 0024 43.61v.14a.86.86 0 00.92.92.85.85 0 00.9-.92v-5.84a.86.86 0 00-.9-.93M35.69 37a2.49 2.49 0 00-2.37 1.33A2.52 2.52 0 0030.93 37a2.56 2.56 0 00-2 .86A.88.88 0 0028 37a.91.91 0 00-1 1v5.8a.83.83 0 00.93.92.86.86 0 001-.92v-3.51c0-1.15.52-1.73 1.54-1.73s1.41.55 1.41 1.89v3.28a.84.84 0 00.94.94.86.86 0 001-.94v-3.24c0-1.3.51-1.93 1.55-1.93s1.41.58 1.41 1.93v3.24a.84.84 0 00.94.94.86.86 0 001-.94v-3.24c0-2.33-1-3.51-3-3.51M50.1 37a1 1 0 00-.94.79l-1.6 4.47L46 37.79c-.17-.48-.39-.81-.89-.81s-.74.29-.92.81l-1.58 4.45L41 37.77a1 1 0 00-.94-.79.83.83 0 00-.81.87 1.39 1.39 0 00.14.57l2.15 5.43c.21.49.47.82 1.06.82a1.06 1.06 0 001-.83l1.46-3.91 1.41 3.91a1.07 1.07 0 001.06.83 1.13 1.13 0 001.08-.83l2.14-5.44a1.33 1.33 0 00.13-.55.82.82 0 00-.78-.85M54.93 43.2c-1.25 0-2-.91-2-2.37a2 2 0 114.05 0c0 1.44-.8 2.37-2 2.37m0-6.2A3.65 3.65 0 0051 40.83a3.66 3.66 0 003.92 3.84 3.64 3.64 0 003.92-3.84A3.64 3.64 0 0054.93 37M63.43 37a2.49 2.49 0 00-1.89.85.94.94 0 00-.94-.85.92.92 0 00-.94.93v5.84a.94.94 0 001.88 0V41c0-1.67.46-2.39 1.55-2.39a1.59 1.59 0 01.38.05 1 1 0 00.28 0 .74.74 0 00.75-.82c0-.53-.42-.87-1.07-.87M68.83 40.85l2-2.11a1.37 1.37 0 00.55-.92.82.82 0 00-.85-.84 1.33 1.33 0 00-.91.57l-2.49 2.53v-3.83a.94.94 0 00-1.87 0v7.5a.94.94 0 001.87 0v-2.28L69.67 44l.13.13a1.26 1.26 0 00.89.52.83.83 0 00.83-.82 1.15 1.15 0 00-.45-.79z" fill="#fff" fill-rule="evenodd"/><g mask="url(#b)"><path d="M74.26 41.43a1.63 1.63 0 101.64 1.62 1.64 1.64 0 00-1.64-1.62" fill="#ff22b1" fill-rule="evenodd"/></g></svg>