<svg xmlns="http://www.w3.org/2000/svg" viewBox="0 0 80 80"><path d="M40.6 34a3 3 0 012.25-1.27 3.13 3.13 0 01-.74 2.27 2.39 2.39 0 01-2.13 1 2.76 2.76 0 01.62-2zm-.5 2.91c.48 0 1.38-.68 2.55-.68a3.18 3.18 0 012.8 1.46 3.18 3.18 0 00-1.54 2.77 3.23 3.23 0 001.92 3s-1.34 3.87-3.16 3.87c-.84 0-1.49-.57-2.37-.57s-1.79.59-2.37.59c-1.66 0-3.76-3.66-3.76-6.61s1.77-4.43 3.44-4.43c1.09-.06 1.93.58 2.49.58z" fill-rule="evenodd" fill="#9386a0"/><path d="M67.62 80H12.38a3 3 0 01-3-3V3a3 3 0 013-3h55.24a3 3 0 013 3v74a3 3 0 01-3 3zm0-2.25a.76.76 0 00.75-.75V3a.75.75 0 00-.75-.75H12.38a.75.75 0 00-.75.75v74a.76.76 0 00.75.75z" fill="#9386a0"/></svg>