<svg xmlns="http://www.w3.org/2000/svg" viewBox="0 0 80 80"><title>logos</title><path d="M37.57,69.6s0,0,0,0c.52,0,1,0,1.42,0,5.16,0,17.25-.5,29.15-6.67,8.21-4.41,5.46-9.59,3.71-12.23-.58-.77-1.19-1.49-1.8-2.18a42.14,42.14,0,0,0-19.54-12,2.69,2.69,0,0,0-2-1.39,6,6,0,0,1-.15.76c-1.74-.46-3.52-.78-3.52-.78.1-.29.15-.5.15-.5a18.23,18.23,0,0,0-.93-8.75,11,11,0,0,0-7.94-6.65A33.22,33.22,0,0,1,37.09,25c.13,3.26-3.22,5.66-3.22,5.66A21.7,21.7,0,0,0,29,36.16a44.31,44.31,0,0,0-10.65,4.2l-.06,0a36.21,36.21,0,0,0-12,10.33c-1.71,2.58-4.38,7.6,3.18,11.93L10,63A63.15,63.15,0,0,0,37.57,69.6ZM80,57.19a18.39,18.39,0,0,1-4.11,5.26C64.69,72.72,46.71,73.3,40.57,73.3H39.42c-6.13,0-24.12-.58-35.31-10.85A18.39,18.39,0,0,1,0,57.19S1.54,31.43,20,15.06c0,0,8.1-8,19.93-8.36H40C51.88,7.06,60,15.06,60,15.06,78.46,31.43,80,57.19,80,57.19Z" style="fill:#bce1ed"/><path d="M71.86,50.72c1.75,2.64,4.5,7.82-3.71,12.23-11.9,6.17-24,6.67-29.15,6.67-.43,0-.9,0-1.42,0,1.08-.17,12.6-2.21,18.68-6.25,5.38-3.56,6.42-6.28,8.12-9.26,1.38-2.42,2.84-5.21,5.68-5.55C70.67,49.23,71.28,50,71.86,50.72Z" style="fill:#7a5"/><path d="M43.91,44.92A5.91,5.91,0,0,1,40.7,48.1c-.71.27-1.73.73-3.14-1.9s.36-5.82.36-5.82,2.22-3.63,1.85-5.39-1.11-1.38-1.11-1.38,1.31,2.3-2.19,6a29.23,29.23,0,0,0-3.83,4.72S29.12,50.53,35.07,55c0,0,4.44,3.08,7.6,0,2.5-2.45.6-6,.78-7.9A9.11,9.11,0,0,1,43.91,44.92ZM29,36.16a21.7,21.7,0,0,1,4.84-5.46s3.35-2.4,3.22-5.66a33.22,33.22,0,0,0-.91-5.84,11,11,0,0,1,7.94,6.65,18.23,18.23,0,0,1,.93,8.75s0,.21-.15.5a6.89,6.89,0,0,1-.29.77,5.26,5.26,0,0,0-.49,2.24c.06.56.79,1.51,2.21.85a4.46,4.46,0,0,0,2.09-3.08,6,6,0,0,0,.15-.76,2.69,2.69,0,0,1,2,1.39A4.43,4.43,0,0,1,50.4,40a21.81,21.81,0,0,1-1.21,2.5,5,5,0,0,0,.27,4.69A19.83,19.83,0,0,1,51.3,50a4.37,4.37,0,0,1,.62,2c-.06.88-.13,4.82-9.55,6.78L40.73,59c-11.33,1.53-14.3-6.2-14.3-6.2a9.32,9.32,0,0,1-.6-1.78,18.41,18.41,0,0,1,.36-8.42A25.69,25.69,0,0,1,29,36.16Z" style="fill:#ef8533"/><path d="M48.42,35.88A4.46,4.46,0,0,1,46.33,39c-1.42.66-2.15-.29-2.21-.85a5.26,5.26,0,0,1,.49-2.24,6.89,6.89,0,0,0,.29-.77S46.68,35.42,48.42,35.88Z" style="fill:#7bb85e"/><path d="M40.43,52c-1.3.88-1.68-.52-2.49-1.36s-.87-2.18-1.1-2.35-.51.44-.44-.37a2.09,2.09,0,0,0-.28-1.33S34.6,50.29,36,52.74,40,53,40,53a12.54,12.54,0,0,0,1.32-1.27S42,51,40.43,52ZM37.56,46.2C39,48.83,40,48.37,40.7,48.1a5.91,5.91,0,0,0,3.21-3.18,9.11,9.11,0,0,0-.46,2.2c-.18,1.9,1.72,5.45-.78,7.9-3.16,3.08-7.6,0-7.6,0-5.95-4.49-2.43-10.65-2.43-10.65a29.23,29.23,0,0,1,3.83-4.72c3.5-3.74,2.19-6,2.19-6s.74-.38,1.11,1.38-1.85,5.39-1.85,5.39S36.09,43.45,37.56,46.2Z" style="fill:#fffe55"/><path d="M41.36,51.77A12.54,12.54,0,0,1,40,53s-2.73,2.2-4.09-.3.17-6.13.17-6.13a2.09,2.09,0,0,1,.28,1.33c-.07.81.2.22.44.37s.28,1.53,1.1,2.35S39.13,52.9,40.43,52C42,51,41.36,51.77,41.36,51.77Z" style="fill:#ffffc6"/><path d="M28.22,58.69c-7.11-3.86-2.4-7.64-2.4-7.64h0a9.32,9.32,0,0,0,.6,1.78s3,7.73,14.3,6.2l1.64-.25c9.42-2,9.49-5.9,9.55-6.78a4.37,4.37,0,0,0-.62-2s6.35,4.7-1.18,8.68c0,0-3.82,2.17-11.12,2.3C31.68,60.86,28.22,58.69,28.22,58.69Z" style="fill:#6b7636"/><path d="M18.38,40.36A44.31,44.31,0,0,1,29,36.16a25.69,25.69,0,0,0-2.84,6.47,18.41,18.41,0,0,0-.36,8.42h0s-4.71,3.78,2.4,7.64c0,0,3.46,2.17,10.78,2.3,7.3-.13,11.12-2.3,11.12-2.3,7.53-4,1.18-8.68,1.18-8.68a19.83,19.83,0,0,0-1.84-2.82,5,5,0,0,1-.27-4.69A21.81,21.81,0,0,0,50.4,40a4.43,4.43,0,0,0,.12-3.49,42.14,42.14,0,0,1,19.54,12c-2.84.34-4.3,3.13-5.68,5.55-1.7,3-2.74,5.7-8.12,9.26-6.08,4-17.6,6.08-18.68,6.25,0,0,0,0,0,0A63.15,63.15,0,0,1,10,63l-.53-.3s.58-.34-.39-1.2c-4.67-4.24,9.23-19.92,9.23-19.92C19.85,39.85,18.68,40.24,18.38,40.36Z" style="fill:#7bb85e"/><path d="M18.38,40.36c.3-.12,1.47-.51-.06,1.17,0,0-13.9,15.68-9.23,19.92,1,.86.39,1.2.39,1.2C1.92,58.32,4.59,53.3,6.3,50.72a36.21,36.21,0,0,1,12-10.33Z" style="fill:#7a5"/></svg>