<svg xmlns="http://www.w3.org/2000/svg" fill="none" viewBox="0 0 80 80">
  <path fill="#F9AF4A" d="M4 40c0 19.8 16.2 36 36 36s36-16.2 36-36S59.8 4 40 4 4 20.2 4 40Z"/>
  <path fill="#444" d="m57.8 40.7-11 5.2-.1 1.8 8.4-2.5-4.1 5-.4 1.7-5.2 2.1-.5 1.5 2.3-1-6.1 7-.6 5.5v5.2h-1v-5l-.4-5.8-6.1-6.8 2.3.9-.5-1.5-5.2-2.1-.4-1.6-4.1-5 8.4 2.4-.2-1.8-11-5.2 2.6-4-5.2-7L34 36.2l.3-2-4.1-6.4.5-1.1-2-7.6 7.6 7.6.5-4.2-2.3-6 3 .8 2.8-7.5 2.7 7.5 3-.9-2.3 6.1.5 4.2L52 19l-2 7.6.5 1-4.1 6.5.4 2L61 29.7l-5.3 7 2 4Z"/>
</svg>
