<svg xmlns="http://www.w3.org/2000/svg" fill="none" viewBox="0 0 80 80">
  <path fill="url(#logo-firefox-a)" d="M75.2 27c-1.7-4-5-8.3-7.6-9.6A39.4 39.4 0 0 1 71.4 29C67.1 18.2 59.8 14 54 4.5l-1-1.4-.3-.8A7.3 7.3 0 0 1 52 .7h-.1a27.8 27.8 0 0 0-13 21 19 19 0 0 0-10.5 4.1l-1-.7c-.9-3-.9-6.3 0-9.3a28.1 28.1 0 0 0-9.2 7c-1.5-1.9-1.4-8.1-1.4-9.5l-1.2.7a28 28 0 0 0-7.3 7.4 32 32 0 0 0-5 11.6l-.1.2A80.4 80.4 0 0 0 2 41v.2a38 38 0 0 0 75.5 6.4l.2-1.5c.8-6.4-.1-13-2.5-19Z"/>
  <path fill="url(#logo-firefox-b)" d="M75.2 27c-1.7-4-5-8.3-7.6-9.6a42 42 0 0 1 3.8 11.5A32.7 32.7 0 0 1 39 73 38.3 38.3 0 0 1 2.4 42c-.6-2.7 0-4.1.2-6.3-.3 1.7-.5 3.4-.6 5.2v.2a38 38 0 0 0 75.5 6.4l.2-1.4A39 39 0 0 0 75.2 27Z"/>
  <path fill="url(#logo-firefox-c)" d="M75.2 27c-1.7-4-5-8.3-7.6-9.6a42 42 0 0 1 3.8 11.5A32.7 32.7 0 0 1 39 73 38.3 38.3 0 0 1 2.4 42c-.6-2.7 0-4.1.2-6.3-.3 1.7-.5 3.4-.6 5.2v.2a38 38 0 0 0 75.5 6.4l.2-1.4A39 39 0 0 0 75.2 27Z"/>
  <path fill="url(#logo-firefox-d)" d="m56.7 31.5.3.1c-1-1.7-2.2-3.2-3.6-4.6A19.2 19.2 0 0 1 51.8.7a27.8 27.8 0 0 0-13 21H40a19.2 19.2 0 0 1 16.7 9.7Z"/>
  <path fill="url(#logo-firefox-e)" d="M40 33.8c0 1-3.3 4.2-4.5 4.2C24.7 38 23 44.6 23 44.6A16 16 0 0 0 32 57l.6.3 1.2.5c1.5.5 3.2.9 4.9 1 18.9.8 22.6-22.7 8.9-29.5a13 13 0 0 1 9.2 2.2A19.2 19.2 0 0 0 40 21.8h-1.3a19 19 0 0 0-10.5 4l2.6 2.6c2.6 2.5 9.2 5.1 9.2 5.4Z"/>
  <path fill="url(#logo-firefox-f)" d="M40 33.8c0 1-3.3 4.2-4.5 4.2C24.7 38 23 44.6 23 44.6A16 16 0 0 0 32 57l.6.3 1.2.5c1.5.5 3.2.9 4.9 1 18.9.8 22.6-22.7 8.9-29.5a13 13 0 0 1 9.2 2.2A19.2 19.2 0 0 0 40 21.8h-1.3a19 19 0 0 0-10.5 4l2.6 2.6c2.6 2.5 9.2 5.1 9.2 5.4Z"/>
  <path fill="url(#logo-firefox-g)" d="m26.5 24.6.8.5c-.9-3-.9-6.3 0-9.3a28.1 28.1 0 0 0-9.2 7c.1 0 5.7 0 8.4 1.8Z"/>
  <path fill="url(#logo-firefox-h)" d="M2.4 42a38.3 38.3 0 0 0 36.4 31 32.6 32.6 0 0 0 32.6-44v-.1a25.8 25.8 0 0 1-10.1 23.2c-13.7 11.1-26.7 6.7-29.4 5l-.5-.4c-8-3.8-11.3-11-10.6-17.2a9.8 9.8 0 0 1-9-5.7 14.3 14.3 0 0 1 14-.6 19 19 0 0 0 14.3.6c0-.3-6.7-3-9.2-5.5l-2.6-2.5-1-.7-.8-.5a18.6 18.6 0 0 0-8.5-1.7c-1.5-2-1.4-8.2-1.3-9.6l-1.3.7a28 28 0 0 0-7.2 7.4A32 32 0 0 0 3 33s-1.4 6-.7 9Z"/>
  <path fill="url(#logo-firefox-i)" d="M53.4 27a26 26 0 0 1 3.6 4.6l.5.5c8.6 8 4.1 19.2 3.8 20 7-5.8 11.5-14.3 10.1-23.1C67.1 18.2 59.8 14 54 4.5l-1-1.4-.3-.8A7.3 7.3 0 0 1 52 .7h-.1c-1.5.7-10.2 14.5 1.6 26.3Z"/>
  <path fill="url(#logo-firefox-j)" d="m57.5 32-.5-.4-.3-.2a13 13 0 0 0-9.1-2.2c13.6 6.8 10 30.4-9 29.5a16.8 16.8 0 0 1-6.7-1.8c2.7 1.8 15.7 6.2 29.4-4.9.3-.8 4.8-12-3.8-20Z"/>
  <path fill="url(#logo-firefox-k)" d="M23 44.6S24.6 38 35.4 38c1.2 0 4.5-3.2 4.6-4.2 0-1-6.9 3-14.3-.6a14.3 14.3 0 0 0-14 .6 9.8 9.8 0 0 0 9 5.7c-.7 6.2 2.6 13.4 10.6 17.2l.5.3a16 16 0 0 1-9-12.4Z"/>
  <path fill="url(#logo-firefox-l)" d="M75.2 27c-1.7-4-5-8.3-7.6-9.6A39.4 39.4 0 0 1 71.4 29C67.1 18.2 59.8 14 54 4.5l-1-1.4-.3-.8A7.3 7.3 0 0 1 52 .7h-.1a27.8 27.8 0 0 0-13 21H40a19.2 19.2 0 0 1 16.7 9.7 13 13 0 0 0-9.1-2.2c13.6 6.9 10 30.4-9 29.5a16.8 16.8 0 0 1-6.6-1.8l-.6-.2.5.2a16 16 0 0 1-9-12.4S24.8 38 35.6 38c1.2 0 4.5-3.3 4.6-4.3 0-.3-6.6-2.9-9.2-5.4l-2.6-2.5-1-.8c-.9-3-.9-6.2 0-9.3a28 28 0 0 0-9.2 7.1c-1.5-2-1.4-8.2-1.4-9.5l-1.2.7a28.6 28.6 0 0 0-7.3 7.4 32 32 0 0 0-5 11.5l-.1.3a58.1 58.1 0 0 0-1 7.7v.2a38 38 0 0 0 75.5 6.4l.1-1.5a39 39 0 0 0-2.5-19Z"/>
  <defs>
    <radialGradient id="logo-firefox-b" cx="0" cy="0" r="1" gradientTransform="matrix(79 0 0 80.4 67.3 18.2)" gradientUnits="userSpaceOnUse">
      <stop offset=".1" stop-color="#FFBD4F"/>
      <stop offset=".3" stop-color="#FF980E"/>
      <stop offset=".5" stop-color="#FF3750"/>
      <stop offset=".8" stop-color="#EB0878"/>
      <stop offset=".9" stop-color="#E50080"/>
    </radialGradient>
    <radialGradient id="logo-firefox-c" cx="0" cy="0" r="1" gradientTransform="matrix(81 0 0 80.4 37.4 41.6)" gradientUnits="userSpaceOnUse">
      <stop offset=".3" stop-color="#960E18"/>
      <stop offset=".3" stop-color="#B11927" stop-opacity=".7"/>
      <stop offset=".4" stop-color="#DB293D" stop-opacity=".3"/>
      <stop offset=".5" stop-color="#F5334B" stop-opacity=".1"/>
      <stop offset=".5" stop-color="#FF3750" stop-opacity="0"/>
    </radialGradient>
    <radialGradient id="logo-firefox-d" cx="0" cy="0" r="1" gradientTransform="matrix(26 0 0 44.1 48.2 -2.4)" gradientUnits="userSpaceOnUse">
      <stop offset=".1" stop-color="#FFF44F"/>
      <stop offset=".5" stop-color="#FF980E"/>
    </radialGradient>
    <radialGradient id="logo-firefox-e" cx="0" cy="0" r="1" gradientTransform="matrix(33.5 0 0 36.7 29.5 61.7)" gradientUnits="userSpaceOnUse">
      <stop offset=".3" stop-color="#3A8EE6"/>
      <stop offset=".7" stop-color="#9059FF"/>
      <stop offset="1" stop-color="#C139E6"/>
    </radialGradient>
    <radialGradient id="logo-firefox-f" cx="0" cy="0" r="1" gradientTransform="matrix(18.8 0 0 23 37 34.1)" gradientUnits="userSpaceOnUse">
      <stop offset=".2" stop-color="#9059FF" stop-opacity="0"/>
      <stop offset="1" stop-color="#6E008B" stop-opacity=".6"/>
    </radialGradient>
    <radialGradient id="logo-firefox-g" cx="0" cy="0" r="1" gradientTransform="matrix(27 0 0 27 36.7 6.5)" gradientUnits="userSpaceOnUse">
      <stop offset=".1" stop-color="#FFE226"/>
      <stop offset=".8" stop-color="#FF7139"/>
    </radialGradient>
    <radialGradient id="logo-firefox-h" cx="0" cy="0" r="1" gradientTransform="matrix(128 0 0 107.5 59.4 -10.5)" gradientUnits="userSpaceOnUse">
      <stop offset=".1" stop-color="#FFF44F"/>
      <stop offset=".5" stop-color="#FF980E"/>
      <stop offset=".7" stop-color="#FF3647"/>
      <stop offset=".9" stop-color="#E31587"/>
    </radialGradient>
    <radialGradient id="logo-firefox-i" cx="0" cy="0" r="1" gradientTransform="matrix(8.8 83.4 -84 8.9 49.7 -10)" gradientUnits="userSpaceOnUse">
      <stop stop-color="#FFF44F"/>
      <stop offset=".3" stop-color="#FF980E"/>
      <stop offset=".6" stop-color="#FF3647"/>
      <stop offset=".7" stop-color="#E31587"/>
    </radialGradient>
    <radialGradient id="logo-firefox-j" cx="0" cy="0" r="1" gradientTransform="matrix(72.7 0 0 71.4 38 15.7)" gradientUnits="userSpaceOnUse">
      <stop offset=".1" stop-color="#FFF44F"/>
      <stop offset=".5" stop-color="#FF980E"/>
      <stop offset=".7" stop-color="#FF3647"/>
      <stop offset=".9" stop-color="#E31587"/>
    </radialGradient>
    <radialGradient id="logo-firefox-k" cx="0" cy="0" r="1" gradientTransform="matrix(89.3 0 0 79.9 56.5 20.8)" gradientUnits="userSpaceOnUse">
      <stop offset=".1" stop-color="#FFF44F"/>
      <stop offset=".6" stop-color="#FF980E"/>
    </radialGradient>
    <linearGradient id="logo-firefox-a" x1="68.7" x2="5.5" y1="10.6" y2="71.8" gradientUnits="userSpaceOnUse">
      <stop offset=".1" stop-color="#FFF44F"/>
      <stop offset=".4" stop-color="#FF980E"/>
      <stop offset=".5" stop-color="#FF3647"/>
      <stop offset=".7" stop-color="#E31587"/>
    </linearGradient>
    <linearGradient id="logo-firefox-l" x1="65" x2="16.2" y1="15.5" y2="67.4" gradientUnits="userSpaceOnUse">
      <stop offset=".2" stop-color="#FFF44F" stop-opacity=".8"/>
      <stop offset=".6" stop-color="#FFF44F" stop-opacity="0"/>
    </linearGradient>
  </defs>
</svg>
