<svg xmlns="http://www.w3.org/2000/svg" xmlns:xlink="http://www.w3.org/1999/xlink" viewBox="0 0 80 80"><defs><linearGradient id="a" x1="82.08" y1="431.18" x2="42.32" y2="400.16" gradientTransform="matrix(1, 0, 0, -1, 0, 466)" gradientUnits="userSpaceOnUse"><stop offset="0.18" stop-color="#0052cc"/><stop offset="1" stop-color="#2684ff"/></linearGradient></defs><title>logos</title><polygon points="31.69 51.77 48.41 51.77 52.45 28.2 27.24 28.2 31.69 51.77" style="fill:none"/><path d="M2.6,4A2.57,2.57,0,0,0,0,6.56,3.4,3.4,0,0,0,0,7L10.91,73.06A3.49,3.49,0,0,0,14.32,76h52.2a2.58,2.58,0,0,0,2.57-2.15L80,7a2.57,2.57,0,0,0-2.12-2.94,2.28,2.28,0,0,0-.45,0ZM48.41,51.77H31.75L27.24,28.2H52.45Z" style="fill:#2684ff"/><path d="M76.51,28.2H52.45l-4,23.57H31.75L12.08,75.12a3.48,3.48,0,0,0,2.24.85H66.54a2.56,2.56,0,0,0,2.56-2.15Z" style="fill:url(#a)"/></svg>