<svg xmlns="http://www.w3.org/2000/svg" fill="none" viewBox="0 0 80 80">
  <path fill="currentColor" d="M71.9 22.4A36.6 36.6 0 0 0 40 4a36.7 36.7 0 0 0-10.7 72 2 2 0 0 0 1-.5 1.8 1.8 0 0 0 .6-1.4v-6.8l-1.1.1c-.9.2-1.8.3-2.7.2l-3.3-.3a7.4 7.4 0 0 1-3.2-1.5 6 6 0 0 1-2.1-2.9l-.6-1.2-1.5-2.4a5.6 5.6 0 0 0-2-1.8l-.4-.3-.6-.5-.5-.7c0-.2 0-.4.3-.5a3 3 0 0 1 1.4-.2h1a7 7 0 0 1 2.3 1.3 7 7 0 0 1 2.3 2.5 8.6 8.6 0 0 0 2.8 3c.9.5 2 .9 3 1a12.7 12.7 0 0 0 5-1 8 8 0 0 1 2.3-5c-1.7-.1-3.3-.5-4.9-.9-1.6-.4-3-1-4.5-1.8S21 52.5 20 51.2c-1.1-1.5-2-3.2-2.5-5-.7-2.4-1-4.8-1-7.2a14 14 0 0 1 3.7-9.9c-1.1-3-1-6.2.5-9.7.9-.4 2.3-.1 4 .6 1.4.5 2.8 1.1 4 1.9 1 .4 1.5.9 2 1.3a34.2 34.2 0 0 1 18.5 0l1.9-1.2c1.4-.9 2.8-1.6 4.4-2.2 1.2-.5 2.5-.7 3.8-.4 1.5 3.5 1.6 6.8.4 9.7a14 14 0 0 1 3.8 9.9c0 2.4-.3 4.8-1 7.2a13.4 13.4 0 0 1-6.4 8.3c-1.4.8-3 1.4-4.6 1.8l-4.9 1c1.8 1.3 2.6 3.5 2.6 6.6v10.2a1.8 1.8 0 0 0 .7 1.4 2.1 2.1 0 0 0 1.8.3 36.4 36.4 0 0 0 25.1-34.9 36 36 0 0 0-5-18.5Z"/>
</svg>
