<svg xmlns="http://www.w3.org/2000/svg" viewBox="0 0 80 80"><path d="M69.61 80H10.26A10.26 10.26 0 010 69.74V10.39A10.26 10.26 0 0110.26.13h59.35a10.26 10.26 0 0110.26 10.26v59.35A10.31 10.31 0 0169.61 80z" fill="#1d1c39"/><path d="M39.36 35.2c2.22 0 3.49-1.2 3.49-3.28a3.17 3.17 0 00-3.42-3.29h-5v-3.69a3.83 3.83 0 10-7.64 0v25.62c0 6.17 2.48 8.92 8 8.92a10.55 10.55 0 006-1.54 3 3 0 001.34-2.55c0-1.68-1.08-3.49-2.69-3.49a2.29 2.29 0 00-.67.14c-.06.06-.2.06-.26.13a4 4 0 01-1.82.47c-1 0-2.14-.34-2.14-3.08V35.2z" fill="#fff"/><path d="M55.73 46a6.71 6.71 0 106.7 6.71 6.73 6.73 0 00-6.7-6.71z" fill="#ff22b1"/></svg>