<svg width="84" height="90" viewBox="0 0 84 90" fill="none" xmlns="http://www.w3.org/2000/svg">
<path d="M83.9198 39.6659C83.8215 38.1142 83.5267 36.3685 83.0354 34.5259C82.544 32.5862 81.7579 30.5496 80.677 28.319C79.596 26.1853 78.122 23.8578 76.255 21.7241C75.5671 20.8513 74.781 19.9784 73.8966 19.2026C75.174 14.1595 72.3243 9.79526 72.3243 9.79526C67.411 9.50431 64.2664 11.25 63.0872 12.1228C62.8907 12.0259 62.6942 11.9289 62.4976 11.9289C61.7115 11.6379 60.8271 11.25 59.9427 11.056C59.0583 10.8621 58.1739 10.5711 57.1912 10.2802C56.3068 10.0862 55.3242 9.89224 54.3415 9.69828C54.145 9.69828 54.0467 9.60129 53.8502 9.60129C51.6883 2.8125 45.5958 0 45.5958 0C38.7171 4.26724 37.4396 10.2802 37.4396 10.2802C37.4396 10.2802 37.4396 10.3772 37.3413 10.6681C36.9483 10.7651 36.5552 10.8621 36.1621 10.9591C35.6708 11.153 35.0812 11.347 34.5899 11.444C34.0985 11.6379 33.5089 11.8319 33.0176 12.0259C32.0349 12.4138 30.954 12.9957 29.9713 13.4806C28.9887 14.0625 28.006 14.6444 27.1216 15.2263C27.0233 15.1293 26.9251 15.1293 26.9251 15.1293C17.3932 11.5409 8.94227 15.8082 8.94227 15.8082C8.2544 25.8944 12.7747 32.1983 13.6591 33.3621C13.4625 33.944 13.266 34.6228 13.0695 35.2047C12.3816 37.4353 11.8903 39.7629 11.4972 42.1875C11.4972 42.4784 11.3989 42.8664 11.3989 43.2543C2.6532 47.5216 0 56.25 0 56.25C7.37 64.5905 15.8209 65.0754 15.8209 65.0754C16.9019 67.0151 18.1793 68.7608 19.5551 70.5065C20.1447 71.1853 20.7343 71.8642 21.4221 72.5431C18.7689 80.1078 21.8152 86.3147 21.8152 86.3147C29.9713 86.6056 35.376 82.8233 36.4569 81.9504C37.2431 82.2414 38.1275 82.4353 38.9136 82.6293C41.3703 83.3082 44.0235 83.5991 46.5784 83.7931C47.168 83.7931 47.8559 83.7931 48.5438 83.7931H48.8386H49.0351H49.4282H49.8212C53.6536 89.2241 60.434 90 60.434 90C65.2491 84.9569 65.5439 80.0108 65.5439 78.944C65.5439 78.944 65.5439 78.944 65.5439 78.847C65.5439 78.75 65.5439 78.653 65.5439 78.653C65.5439 78.556 65.5439 78.459 65.5439 78.459C66.5266 77.7802 67.5092 77.0043 68.3936 76.2284C70.359 74.4827 72.0295 72.5431 73.4052 70.4095C73.5035 70.2155 73.7 70.0215 73.7983 69.8276C79.203 70.1185 83.0354 66.5302 83.0354 66.5302C82.151 60.9052 78.9082 58.1897 78.2203 57.7047C78.2203 57.7047 78.2203 57.7047 78.122 57.7047C78.0238 57.7047 78.0238 57.7047 78.0238 57.7047C78.0238 57.7047 77.9255 57.7047 77.9255 57.6078C77.9255 57.3168 78.0238 56.9289 78.0238 56.6379C78.0238 56.056 78.122 55.4741 78.122 54.7953V54.3103V54.1164V54.0194C78.122 53.8254 78.122 53.9224 78.122 53.8254V53.4375V52.9526C78.122 52.7586 78.122 52.6616 78.122 52.4677C78.122 52.2737 78.122 52.1767 78.0238 51.9828L77.9255 51.4978L77.8272 51.0129C77.729 50.431 77.6307 49.7522 77.4342 49.1703C76.8446 46.7457 75.9602 44.5151 74.6827 42.3815C73.4052 40.3448 71.833 38.5022 70.0642 36.9504C68.2954 35.3987 66.33 34.1379 64.2664 33.2651C62.2028 32.3922 60.041 31.7134 57.8791 31.5194C56.7982 31.4224 55.7172 31.3254 54.6363 31.3254H54.2432H54.145C54.145 31.3254 53.9484 31.3254 54.0467 31.3254H53.8502H53.4571C53.3588 31.3254 53.1623 31.3254 53.064 31.3254C52.4744 31.3254 51.9831 31.4224 51.3935 31.5194C49.2316 31.9073 47.168 32.6832 45.3992 33.75C43.6304 34.8168 42.0581 36.1746 40.7807 37.6293C39.5032 39.0841 38.5205 40.8297 37.8327 42.4785C37.1448 44.2241 36.7517 45.9698 36.6535 47.7155C36.6535 48.1034 36.6535 48.5884 36.6535 48.9763C36.6535 49.0733 36.6535 49.1703 36.6535 49.2672V49.6552C36.6535 49.8491 36.6535 50.0431 36.6535 50.2371C36.7517 51.1099 36.85 51.9828 37.1448 52.7586C37.6361 54.4073 38.324 55.8621 39.3067 57.0259C40.1911 58.2866 41.3703 59.2565 42.5495 60.1293C43.7287 60.9052 45.0061 61.4871 46.2836 61.875C47.5611 62.2629 48.7403 62.3599 49.9195 62.3599C50.116 62.3599 50.2143 62.3599 50.3126 62.3599C50.4108 62.3599 50.5091 62.3599 50.5091 62.3599H50.7056C50.8039 62.3599 50.9022 62.3599 51.0987 62.3599H51.1969H51.2952C51.3935 62.3599 51.4918 62.3599 51.4918 62.3599C51.6883 62.3599 51.7866 62.2629 51.8848 62.2629C51.9831 62.2629 52.1796 62.1659 52.2779 62.1659C52.5727 62.069 52.7692 62.069 53.064 61.972C53.5554 61.778 54.0467 61.5841 54.538 61.3901C55.0294 61.1961 55.4224 60.9052 55.8155 60.6142C55.9138 60.5172 56.012 60.4203 56.1103 60.4203C56.5034 60.1293 56.6016 59.5474 56.3068 59.1595C56.012 58.7715 55.5207 58.7716 55.1276 58.9655C55.0294 58.9655 54.9311 59.0625 54.8328 59.1595C54.538 59.3534 54.145 59.4504 53.7519 59.5474C53.3588 59.6444 52.9658 59.7414 52.5727 59.8384C52.3762 59.8384 52.1796 59.9353 51.9831 59.9353C51.8848 59.9353 51.7866 59.9353 51.6883 59.9353C51.59 59.9353 51.4918 59.9353 51.3935 59.9353C51.2952 59.9353 51.197 59.9353 51.0987 59.9353C51.0004 59.9353 50.8039 59.9353 50.7056 59.9353C50.7056 59.9353 50.6073 59.9353 50.7056 59.9353H50.6074C50.5091 59.9353 50.5091 59.9353 50.4108 59.9353C50.3125 59.9353 50.2143 59.9353 50.116 59.9353C49.2316 59.8384 48.249 59.5474 47.3646 59.1595C46.4802 58.7715 45.5957 58.1897 44.8096 57.5108C44.0235 56.8319 43.3356 55.9591 42.8443 55.0862C42.3529 54.1164 41.9599 53.1465 41.7633 51.9828C41.6651 51.4009 41.6651 50.9159 41.6651 50.334C41.6651 50.1401 41.6651 50.0431 41.6651 49.8491V49.7522V49.6552C41.6651 49.5582 41.6651 49.4612 41.6651 49.4612C41.6651 49.1703 41.7633 48.8793 41.7633 48.5884C42.1564 46.1638 43.4339 43.8362 45.3009 42.0905C45.7923 41.7026 46.2836 41.2177 46.7749 40.9267C47.2663 40.5388 47.8559 40.2478 48.4455 39.9569C49.0351 39.6659 49.6247 39.472 50.3126 39.278C50.9022 39.084 51.59 38.9871 52.2779 38.9871C52.5727 38.9871 52.9658 38.9871 53.2606 38.9871C53.3588 38.9871 53.4571 38.9871 53.4571 38.9871H53.7519H53.9484C54.0467 38.9871 53.9484 38.9871 53.9484 38.9871H54.0467H54.3415C55.0294 39.084 55.8155 39.181 56.5034 39.278C57.8791 39.569 59.2548 40.0539 60.5323 40.8297C63.0872 42.1875 65.2491 44.4181 66.6248 47.0366C67.3127 48.3944 67.804 49.7522 68.0006 51.2069C68.0988 51.5948 68.0988 51.9828 68.0988 52.2737V52.5647V52.8556C68.0988 52.9526 68.0988 53.0496 68.0988 53.1466C68.0988 53.2435 68.0988 53.3405 68.0988 53.4375V53.6315V53.9224C68.0988 54.1164 68.0988 54.4073 68.0988 54.6013C68.0988 54.9892 68.0006 55.3772 68.0006 55.7651C67.9023 56.153 67.9023 56.5409 67.804 56.9289C67.7058 57.3168 67.6075 57.7047 67.5092 58.0927C67.3127 58.8685 67.0179 59.6444 66.7231 60.4203C66.1335 61.875 65.3474 63.3297 64.3647 64.6875C62.3994 67.306 59.7462 69.4397 56.7982 70.7974C55.3242 71.4763 53.7519 71.9612 52.0814 72.2522C51.2952 72.3491 50.4108 72.4461 49.6247 72.4461H49.4282H49.3299H49.0351H48.642H48.4455C48.5438 72.4461 48.4455 72.4461 48.4455 72.4461H48.3472C47.9542 72.4461 47.4628 72.4461 47.0698 72.3491C45.301 72.2522 43.5321 71.9612 41.8616 71.4763C40.1911 70.9914 38.5205 70.3125 36.9483 69.5366C33.8037 67.8879 31.0523 65.6573 28.8904 62.9418C27.8095 61.584 26.8268 60.1293 26.0407 58.6746C25.2545 57.1228 24.6649 55.5711 24.1736 53.9224C23.6823 52.2737 23.4857 50.625 23.2892 48.9763V48.6853V48.5884V48.3944V48.2974V48.0065V47.9095V47.8125V47.6185V47.2306V47.1336V46.9397C23.2892 46.7457 23.2892 46.5517 23.2892 46.3578C23.2892 45.4849 23.3875 44.709 23.4857 43.8362C23.584 42.9634 23.7805 42.0905 23.8788 41.3147C24.0753 40.4418 24.2719 39.6659 24.4684 38.7931C24.9597 37.1444 25.5493 35.4957 26.2372 34.0409C27.6129 31.0345 29.48 28.319 31.7401 26.1853C32.3297 25.6034 32.9193 25.1185 33.5089 24.6336C34.0985 24.1487 34.6881 23.7608 35.376 23.2759C35.9656 22.8879 36.6535 22.5 37.3413 22.1121C37.6361 21.9181 38.0292 21.8211 38.324 21.6272C38.5205 21.5302 38.7171 21.4332 38.8153 21.4332C39.0119 21.3362 39.2084 21.2392 39.3067 21.2392C39.9945 20.9483 40.7807 20.6573 41.4685 20.4634C41.6651 20.3664 41.8616 20.3664 42.0581 20.2694C42.2547 20.1724 42.4512 20.1724 42.6478 20.0754C43.0408 19.9784 43.4339 19.8815 43.7287 19.7845C43.9252 19.7845 44.1217 19.6875 44.3183 19.6875C44.5148 19.6875 44.7113 19.5905 44.9079 19.5905C45.1044 19.5905 45.3009 19.4935 45.4975 19.4935H45.7923H46.0871C46.2836 19.4935 46.4802 19.3966 46.6767 19.3966C46.8732 19.3966 47.0698 19.3966 47.3646 19.2996C47.5611 19.2996 47.8559 19.2026 48.0524 19.2026C48.1507 19.2026 48.3472 19.2026 48.4455 19.2026H48.7403H48.8386H49.0351C49.2316 19.2026 49.4282 19.2026 49.7229 19.2026H50.0178C50.0178 19.2026 50.116 19.2026 50.0178 19.2026H50.116H50.2143C50.4108 19.2026 50.6074 19.2026 50.8039 19.2026C51.4918 19.2026 52.2779 19.2026 52.9658 19.2026C54.4398 19.2996 55.8155 19.3965 57.2895 19.6875C60.041 20.1724 62.6942 21.0453 65.0526 22.209C67.411 23.3728 69.5728 24.7306 71.4399 26.2823C71.5382 26.3793 71.6364 26.4763 71.7347 26.5733C71.833 26.6703 71.9312 26.7672 72.0295 26.8642C72.226 27.0582 72.4226 27.2522 72.7174 27.4461C72.9139 27.6401 73.1104 27.834 73.307 28.028C73.5035 28.222 73.7 28.4159 73.8966 28.6099C74.6827 29.3858 75.3706 30.2586 76.0584 31.1315C77.3359 32.7802 78.4168 34.5259 79.3012 36.0776C79.3995 36.1746 79.3995 36.2715 79.4978 36.3685C79.596 36.4655 79.596 36.5625 79.6943 36.6595C79.7926 36.8535 79.8908 37.0474 79.9891 37.2414C80.0874 37.4353 80.1856 37.6293 80.2839 37.8233C80.3822 38.0172 80.4804 38.2112 80.4804 38.4052C80.7752 39.181 81.07 39.8599 81.2666 40.5388C81.6596 41.6056 81.9544 42.5754 82.151 43.4483C82.2492 43.7392 82.544 44.0302 82.9371 43.9332C83.3302 43.9332 83.625 43.6422 83.625 43.2543C84.1163 41.9935 84.018 40.9267 83.9198 39.6659Z" fill="url(#paint0_linear)"/>
<defs>
<linearGradient id="paint0_linear" x1="42.0691" y1="110.29" x2="42.0691" y2="27.956" gradientUnits="userSpaceOnUse">
<stop stop-color="#FFF100"/>
<stop offset="1" stop-color="#F05A28"/>
</linearGradient>
</defs>
</svg>
