<svg viewBox="0 0 80 80" xmlns="http://www.w3.org/2000/svg">
<rect width="100%" height="100%" fill="#E60012"/>
<path d="M14.64 51.92L16.88 54.96H17.76V50.48H16.88V53.44L14.64 50.48H13.76V54.96H14.64V51.92ZM32.8 50.48V51.44H34.24V54.96H35.2V51.44H36.64V50.48H32.8ZM36.24 65.68H38.16V57.2H36.24V65.68ZM26.48 51.92L28.72 54.96H29.6V50.48H28.72V53.44L26.4 50.48H25.52V54.96H26.4V51.92H26.48ZM30.72 63.36L28.96 57.2H27.44L25.6 63.36L24 57.28H22.16L24.56 65.76H26.56L28.16 60.16L29.76 65.76H31.84L34.24 57.28H32.4L30.72 63.36ZM17.28 60.56C16.08 60.32 15.28 60.16 15.28 59.6C15.28 58.96 16.16 58.72 17.36 58.72C18.48 58.72 19.52 59.12 19.92 59.28L20.56 57.84C20.16 57.68 18.8 57.2 17.28 57.2C15.44 57.2 13.52 58.08 13.52 59.76C13.52 61.12 14.48 61.76 16.88 62.24C18.56 62.56 19.52 62.72 19.52 63.44C19.52 63.84 19.2 64.56 17.28 64.56C15.76 64.56 14.64 64 14.24 63.76L13.44 65.2C13.84 65.44 15.28 66.08 17.12 66.08C19.84 66.08 21.2 65.12 21.2 63.36C21.2 62.24 20.8 61.12 17.28 60.56ZM22.16 50.48H21.2V54.96H22.16V50.48ZM51.04 54.96V50.48H50.16V53.44L47.92 50.48H47.04V54.96H47.92V51.92L50.16 54.96H51.04ZM43.36 54.08H40.8V53.04H43.2V52.24H40.8V51.28H43.36V50.48H39.84V54.96H43.36V54.08ZM67.2 64.64H67.6V65.68H67.84V64.64H68.24V64.4H67.2V64.64ZM64.32 50.32C63.04 50.32 61.92 51.36 61.92 52.72C61.92 54 62.96 55.12 64.32 55.12C65.68 55.12 66.72 54.08 66.72 52.72C66.72 51.36 65.6 50.32 64.32 50.32ZM64.32 54.08C63.52 54.08 62.96 53.44 62.96 52.72C62.96 51.92 63.6 51.36 64.32 51.36C65.12 51.36 65.68 52 65.68 52.72C65.68 53.44 65.04 54.08 64.32 54.08ZM69.52 64.4L69.2 65.36L68.88 64.4H68.56V65.68H68.8V64.72L69.12 65.68H69.36L69.68 64.72V65.68H69.92V64.4H69.52ZM64.64 60.56H60.72V57.2H58.96V65.68H60.72V62.32H64.64V65.68H66.4V57.2H64.64V60.56ZM40.24 59.04H42.96V65.68H44.8V59.04H47.44V57.28H40.24V59.04ZM53.28 58.8C54.24 58.8 55.12 59.28 55.6 60.08L56.96 58.88C56.08 57.6 54.72 56.88 53.2 56.88C50.72 56.88 48.72 58.88 48.72 61.36C48.72 63.84 50.72 65.84 53.2 65.84C54.72 65.84 56.08 65.12 56.96 63.84L55.6 62.64C55.12 63.44 54.24 63.92 53.28 63.92C51.76 63.92 50.56 62.72 50.56 61.28C50.56 60 51.76 58.8 53.28 58.8ZM56.72 50.48H54.88V54.96H56.72C58 54.96 59.04 53.92 59.04 52.72C59.04 51.44 58 50.48 56.72 50.48ZM56.72 54H55.76V51.36H56.72C57.44 51.36 58 51.92 58 52.64C58.08 53.44 57.44 54 56.72 54Z" fill="white"/>
<path d="M25.44 14H18.8C14.48 14 11.04 17.44 11.04 21.76V36.48C11.04 40.8 14.48 44.24 18.8 44.24H25.44C25.6 44.24 25.68 44.16 25.68 44V14.24C25.68 14.08 25.6 14 25.44 14ZM23.28 41.84H18.88C17.44 41.84 16.16 41.28 15.12 40.32C14.08 39.28 13.6 38 13.6 36.56V21.76C13.6 20.32 14.16 19.04 15.12 18C16.16 16.96 17.44 16.48 18.88 16.48H23.28V41.84ZM18.64 20.24C20.24 20.24 21.52 21.52 21.52 23.12C21.52 24.72 20.24 26 18.64 26C17.04 26 15.76 24.72 15.76 23.12C15.84 21.52 17.12 20.24 18.64 20.24ZM33.6 14H28.96C28.88 14 28.8 14.08 28.8 14.16V44C28.8 44.16 28.88 44.24 29.04 44.24H33.6C37.92 44.24 41.36 40.8 41.36 36.48V21.76C41.36 17.52 37.84 14 33.6 14ZM34.72 33.68C33.04 33.68 31.68 32.32 31.68 30.64C31.68 28.96 33.04 27.6 34.72 27.6C36.4 27.6 37.76 28.96 37.76 30.64C37.76 32.32 36.4 33.68 34.72 33.68Z" fill="white"/>
<path d="M46.4 44.24V39.04C46.96 38.56 48.96 36.88 51.12 35.04C53.04 33.36 54.96 31.68 56.96 30.08C58.48 28.88 61.28 26.64 61.36 24.4C61.44 21.84 59.6 20.16 56.88 20.16C55.28 20.16 53.36 21.04 52.16 22.08C50.96 23.12 49.52 24.32 49.52 24.32L45.28 19.68C48.88 15.6 52.8 13.52 56.88 13.52C65.52 13.28 72.08 22.96 65.52 30.56C63.12 33.2 60.4 35.68 57.6 37.84H68.96V44.16H46.4V44.24Z" fill="white"/>
</svg>
