<svg xmlns="http://www.w3.org/2000/svg" viewBox="0 0 80 80"><defs><style>.a{fill:#292929}.b{fill:#fff}.c{fill:#fbc524}.d{fill:#fac424}</style></defs><path class="a" d="M65.16 54.6l.68.1a2.88 2.88 0 012.38 2.3 21.64 21.64 0 01.41 2.13 5.13 5.13 0 001.61 2.92c.76.68 1.55 1.34 2.31 2a8.79 8.79 0 011.06 1.14 2.19 2.19 0 010 3 9.09 9.09 0 01-1.66 1.5c-1.38 1-2.79 1.88-4.2 2.81a62.16 62.16 0 00-7.48 5.75 7.51 7.51 0 01-9 .31 4.64 4.64 0 01-1.78-2.75.58.58 0 00-.29-.36 20.38 20.38 0 00-6-1.73 27.18 27.18 0 00-7.59.07c-.59.09-1.16.28-1.74.42a.62.62 0 00-.45.45 6.78 6.78 0 01-4.39 4.42 7.9 7.9 0 01-4.54-.08 27.12 27.12 0 01-3.3-1.09 35.26 35.26 0 00-6-1.72c-2.16-.47-4.28-1.08-6.42-1.64a4.6 4.6 0 01-.82-.35 2.91 2.91 0 01-1.64-3.42 11.88 11.88 0 01.37-1.33A10.81 10.81 0 007 65.08a29.22 29.22 0 01-.1-3.24 2.82 2.82 0 012.36-3c.88-.26 1.79-.45 2.69-.64a4 4 0 002.8-2 14.3 14.3 0 011.39-2.06 1.88 1.88 0 00.47-1.39 19.58 19.58 0 013.19-11.22c1.9-2.92 3.87-5.79 5.86-8.64a24.93 24.93 0 003.75-7.55 18.26 18.26 0 00.49-6.07 74.68 74.68 0 010-9.1A10.78 10.78 0 0137.46.59a11 11 0 019.59 1.19 10.45 10.45 0 014.42 6.63A23.79 23.79 0 0152 13.8c0 2.33.12 4.66.21 7a13.6 13.6 0 002 6.27 63.72 63.72 0 003.66 5.53 73.13 73.13 0 015.81 9.24 20.3 20.3 0 012 5.55 15.39 15.39 0 01-.37 6.68c-.06.16-.1.33-.15.53z"/><path class="a" d="M32 23.74h-.1l.05.06c.64.68 1.32 1.33 1.9 2.06A5 5 0 0039 27.62a9.36 9.36 0 004-2c1-.74 2-1.42 3-2.16a1.71 1.71 0 00.54-.73 4.24 4.24 0 00.21-1.18 1.38 1.38 0 00-.81-1.41 8.58 8.58 0 00-.82-.37c-1.81-.67-3.63-1.35-5.45-2a5 5 0 00-4.06.18 23 23 0 00-3.09 2 5.59 5.59 0 00-1.2 1.36 3 3 0 00-.34 1.07c0 .23.08.4.31.52.63.34 1.24.7 1.87 1a7.93 7.93 0 004.93 1 9.72 9.72 0 004-1.5c.86-.56 1.68-1.17 2.51-1.77a.71.71 0 011 0l-.29.23-1.65 1.04a16 16 0 01-3.75 2 7.47 7.47 0 01-5.54 0c-.82-.3-1.6-.75-2.37-1.16z"/><path class="b" d="M62.4 52.83h.14l-.08-.1a8.3 8.3 0 00-3.16-.92c-.73-.09-1.46-.13-2.24-.2a11.21 11.21 0 00.6-7.2c-.61-2.17-3.1-5.83-4.09-5.87a11.76 11.76 0 013.35 5.9 9.72 9.72 0 01-1 7c0 .08-.13.19-.2.2h-.83v-.5c-.08-1.19-.09-2.4-.25-3.58a25.42 25.42 0 00-2.29-7.15 13.81 13.81 0 00-1.89-3 2.24 2.24 0 01-.34-.65 21.09 21.09 0 00-.83-2.76 32.65 32.65 0 01-2.53-8.26c-.12-.68-.26-1.35-.41-2.13-.63.42-1.21.78-1.76 1.19-.73.54-1.41 1.16-2.15 1.69a8.26 8.26 0 01-4 1.66 5 5 0 01-4.79-2c-.39-.53-.87-1-1.31-1.48a2.51 2.51 0 00-.31-.26c-.28 1.48-.52 2.92-.82 4.35A21.31 21.31 0 0129.54 34a18.74 18.74 0 00-1.73 4 .62.62 0 01-.14.23 17.72 17.72 0 00-1.05 1.45 30.3 30.3 0 00-3.55 11.19c-.07.54-.08 1.08-.12 1.62a10.84 10.84 0 01-.66-7.09 13.13 13.13 0 013.15-6.4c-.08 0-.14 0-.17.06a9.06 9.06 0 00-.91.95 14.31 14.31 0 00-2.85 11.46 7.67 7.67 0 001.85 4 18.15 18.15 0 001.88 1.84c1.31 1.06 2.69 2 4 3.1A14.11 14.11 0 0131 61.94a2.54 2.54 0 01-.13 3.59 14.79 14.79 0 01-1.23 1 7 7 0 002.11 1.4 17.63 17.63 0 0011.08.91 13.37 13.37 0 007.62-4.9.59.59 0 00.13-.37c.06-1.11.09-2.23.15-3.35s.09-2.12.19-3.18a2.52 2.52 0 012.18-2.45.42.42 0 00.22-.28 1.92 1.92 0 011.28-1.48 9 9 0 011.91-.41 15.4 15.4 0 015.89.41z"/><path class="a" d="M7.8 65.86a17.35 17.35 0 01-.16 2c-.18.93-.46 1.85-.71 2.77a2.31 2.31 0 001.26 2.85 6 6 0 001.18.52c2.11.55 4.21 1.15 6.34 1.58a32.89 32.89 0 016.08 1.79 17.48 17.48 0 004 1.17 6.36 6.36 0 003.38-.2 6.4 6.4 0 003.4-3.42 2.72 2.72 0 00.2-.63 5.58 5.58 0 00-1.23-4.69c-.8-.94-1.64-1.85-2.34-2.86-2.46-3.49-4.85-7-7.29-10.52a12.31 12.31 0 00-1.37-1.6 2.53 2.53 0 00-1.4-.77 2.93 2.93 0 00-2.94 1.41c-.31.49-.56 1-.85 1.51a4.2 4.2 0 01-2.77 2.07c-1 .25-2.08.49-3.12.76a2.29 2.29 0 00-1.78 2 7.15 7.15 0 00-.06 1.31c.04 1 .12 1.97.18 2.95zM53.16 55.16a1.51 1.51 0 00-1.34 1 4.83 4.83 0 00-.48 2.07c-.06 1.52-.12 3-.14 4.57a29.19 29.19 0 01-.87 7.5 11.8 11.8 0 00-.47 4.51 4.49 4.49 0 002.28 3.73 6.94 6.94 0 007.73-.71 67.33 67.33 0 018.73-6.57c1.31-.83 2.61-1.71 3.83-2.66 1.52-1.18 1.32-2.09.38-3.12a27 27 0 00-2.31-2.28 6.84 6.84 0 01-2.36-3.54c-.16-.66-.26-1.33-.39-2a2.7 2.7 0 00-2-2.27 11.52 11.52 0 00-2-.16.42.42 0 00-.43.26c-.39.7-.77 1.42-1.22 2.09a7.53 7.53 0 01-4.76 3.36A2.71 2.71 0 0154 59.25a8.86 8.86 0 01-.57-1.88c-.14-.71-.18-1.45-.27-2.21z"/><path class="b" d="M43.78 18.84c.44.16.85.3 1.26.47a.26.26 0 00.39-.12c.32-.52.67-1 1-1.56a4.41 4.41 0 00.43-3.28 3.54 3.54 0 00-2.46-2.86 3.27 3.27 0 00-3.42 1 6 6 0 00-1.35 4.65.25.25 0 00.1.16l1.4.5a3 3 0 01.46-3 1.83 1.83 0 013.27.54 3 3 0 01-1.08 3.5zM35.1 17.64c.13-.06.36-.14.57-.25a.41.41 0 00.18-.25 6.16 6.16 0 00-1.11-4.25 1.82 1.82 0 00-1.46-.81 2 2 0 00-2.16 1.69 6.16 6.16 0 001 5.25 3 3 0 00.29.33l.69-.5a2.42 2.42 0 01-1-1.22 3 3 0 01.17-2.69 1.15 1.15 0 011.88-.28 2.76 2.76 0 01.73 1.17 11 11 0 01.22 1.81z"/><path class="c" d="M7.8 65.86c-.06-1-.14-2-.18-2.93a7.15 7.15 0 01.06-1.31 2.29 2.29 0 011.78-2c1-.27 2.08-.51 3.12-.76a4.2 4.2 0 002.77-2.07c.29-.5.54-1 .85-1.51a2.93 2.93 0 012.94-1.41 2.53 2.53 0 011.4.77 12.31 12.31 0 011.37 1.6c2.44 3.5 4.83 7 7.29 10.52.7 1 1.54 1.92 2.34 2.86a5.58 5.58 0 011.23 4.69 2.72 2.72 0 01-.2.63 6.4 6.4 0 01-3.4 3.42 6.36 6.36 0 01-3.38.2 17.48 17.48 0 01-4-1.17 32.89 32.89 0 00-6.08-1.79c-2.13-.43-4.23-1-6.34-1.58a6 6 0 01-1.18-.48 2.31 2.31 0 01-1.26-2.85c.25-.92.53-1.84.71-2.77a17.35 17.35 0 00.16-2.06zM53.16 55.16c.09.76.13 1.5.27 2.21a8.86 8.86 0 00.57 1.88 2.71 2.71 0 003.41 1.69 7.53 7.53 0 004.76-3.36c.45-.67.83-1.39 1.22-2.09a.42.42 0 01.43-.26 11.52 11.52 0 012 .16 2.7 2.7 0 012 2.27c.13.67.23 1.34.39 2a6.84 6.84 0 002.29 3.54 27 27 0 012.31 2.23c.94 1 1.14 1.94-.38 3.12-1.22 1-2.52 1.83-3.83 2.66a67.33 67.33 0 00-8.73 6.57 6.94 6.94 0 01-7.73.71 4.49 4.49 0 01-2.28-3.73 11.8 11.8 0 01.47-4.51 29.19 29.19 0 00.87-7.5c0-1.52.08-3 .14-4.57a4.83 4.83 0 01.48-2.07 1.51 1.51 0 011.34-.95z"/><path class="d" d="M32 23.74c.8.41 1.58.86 2.4 1.22a7.47 7.47 0 005.54 0 16 16 0 003.75-2l1.62-1.06.29-.23a.71.71 0 00-1 0c-.83.6-1.65 1.21-2.51 1.77a9.72 9.72 0 01-4 1.5 7.93 7.93 0 01-4.93-1c-.63-.34-1.24-.7-1.87-1-.23-.12-.36-.29-.31-.52a3 3 0 01.34-1.07 5.59 5.59 0 011.2-1.36 23 23 0 013.09-2 5 5 0 014.06-.18c1.82.66 3.64 1.34 5.45 2a8.58 8.58 0 01.82.37 1.38 1.38 0 01.81 1.41 4.24 4.24 0 01-.21 1.18 1.71 1.71 0 01-.54.73c-1 .74-2 1.42-3 2.16a9.36 9.36 0 01-4 2 5 5 0 01-5.17-1.76c-.58-.73-1.26-1.38-1.9-2.06zm6-5.38c.42.22.74.4 1.07.55a1.48 1.48 0 00.37 0c0-.14 0-.31-.13-.4-.31-.35-.74-.29-1.31-.15zm-1.46 0a1 1 0 00-1.09.21 1 1 0 000 .35c.11 0 .25.05.34 0 .21-.15.49-.34.78-.55z"/><path class="d" d="M31.92 23.8l-.05-.06H32z"/><path d="M38 18.36c.54-.14 1-.2 1.31.17.09.09.09.26.13.4a1.48 1.48 0 01-.37 0c-.3-.17-.62-.35-1.07-.57z" fill="#363228"/><path d="M36.57 18.37c-.29.21-.53.4-.78.56-.09.05-.23 0-.34 0a1 1 0 010-.35 1 1 0 011.12-.21z" fill="#322f28"/></svg>