<svg xmlns="http://www.w3.org/2000/svg" viewBox="0 0 80 80"><path d="M26 47.5a15.1 15.1 0 0 0 1 5.3 14.9 14.9 0 0 0 2.4 4.1 15.4 15.4 0 0 0 3.7 3.1 22.1 22.1 0 0 0 4.5 2.2 27.6 27.6 0 0 0 5 1.2 31 31 0 0 0 5 .5 33.3 33.3 0 0 0 6-.5A42.6 42.6 0 0 0 59 62a47.4 47.4 0 0 0 5.3-2l5.3-2.7v16.9a61.6 61.6 0 0 1-6 2.5 62.3 62.3 0 0 1-6 1.8 47.4 47.4 0 0 1-6.2 1.1 62.6 62.6 0 0 1-6.5.4 36 36 0 0 1-8.7-1 34.1 34.1 0 0 1-7.8-3 33 33 0 0 1-6.8-4.7 30.1 30.1 0 0 1-5.3-6.3 30.7 30.7 0 0 1-3.4-7.6 31.5 31.5 0 0 1-1.1-8.7 32.3 32.3 0 0 1 1.3-9.4 29.9 29.9 0 0 1 10-14.8 32.6 32.6 0 0 1 8.3-4.8 17.4 17.4 0 0 0-3.9 6 25.8 25.8 0 0 0-1.7 6.8h28.4a29 29 0 0 0-.8-7.6 12.6 12.6 0 0 0-2.9-5.3 11.8 11.8 0 0 0-5-3.2 22.7 22.7 0 0 0-7.5-1 35.4 35.4 0 0 0-10.3 1.5 43.5 43.5 0 0 0-9.8 4.2 47.8 47.8 0 0 0-8.6 6.5 40.7 40.7 0 0 0-6.5 8A47 47 0 0 1 5 26a40.8 40.8 0 0 1 4-8.7 38.7 38.7 0 0 1 5.8-7.1 34.5 34.5 0 0 1 7.4-5.5A37.3 37.3 0 0 1 30.9 1a44.8 44.8 0 0 1 10-1.1 35 35 0 0 1 6.1.6A42.3 42.3 0 0 1 53 2a35.8 35.8 0 0 1 10.3 5.5 35 35 0 0 1 7.6 8.2A36.6 36.6 0 0 1 75.6 26a41.4 41.4 0 0 1 1.6 11.6v9.9z" fill="#0078d7"/></svg>
