<svg xmlns="http://www.w3.org/2000/svg" viewBox="0 0 80 80"><path d="M47.62 3.57a38.59 38.59 0 11-13.5-.31v.08L21.47 9.85s-.85 1 6.32 1.84v.41a31.74 31.74 0 1025.89.66v-1.07c7-.85 6.17-1.83 6.17-1.83z" fill="#77add3"/><path d="M59.38 31c0-1.52-5.7-2.28-5.7-2.28v-16a31.76 31.76 0 013.76 55.18l-.61-9-1.11-16.28c3.11-.8 3.66-1.67 3.66-1.67z" fill="#4a81ae"/><path d="M59.85 9.85s.84 1-6.17 1.83c-.71.08-1.5.17-2.38.25-5.18.49-10.64.65-10.64.65s-5.45-.16-10.63-.65c-.82-.08-1.56-.15-2.24-.24-7.17-.85-6.32-1.84-6.32-1.84l12.69-6.51L40.66 0l7 3.57z" fill="#717166"/><path d="M55.72 42.62c-2.66.68-7.18 1.31-14.82 1.31h-.32c-8 0-12.54-.68-15.15-1.4-2.82-.77-3.34-1.53-3.34-1.53V31c0 .71 1.24 1.59 4.88 2.63 0 0 4.53 1.14 13.61 1.2h.32c9.07-.06 13.6-1.2 13.6-1.2 3.64-1 4.88-1.92 4.88-2.63v10s-.55.82-3.66 1.62z" fill="#f2e5ce"/><path d="M57.44 67.93a31.78 31.78 0 01-33.52.84l.51-8.77a43.52 43.52 0 0016.15 2.93A40.5 40.5 0 0056.83 59z" fill="#bf6f36"/><path d="M55.72 42.62L56.83 59a40.5 40.5 0 01-16.25 3.94A43.52 43.52 0 0124.43 60l1-17.43c2.61.72 7.19 1.4 15.15 1.4h.32c7.64-.04 12.16-.67 14.82-1.35z" fill="#cf8039"/><path d="M35 15.56a5.62 5.62 0 010 11.18 5.62 5.62 0 010-11.19z" fill="#ffc65a"/><path d="M35.51 15.53a5.62 5.62 0 110 11.24 5.12 5.12 0 01-.56 0 5.62 5.62 0 000-11.18 5 5 0 01.56-.06z" fill="#daba6b"/><path d="M27.79 11.69c.68.09 1.42.16 2.24.24 5.18.49 10.63.65 10.63.65s5.46-.16 10.64-.65c.88-.08 1.67-.17 2.38-.25v17s5.7.76 5.7 2.28c0 .71-1.24 1.59-4.88 2.63 0 0-4.53 1.14-13.6 1.2h-.32C31.5 34.78 27 33.64 27 33.64c-3.64-1-4.88-1.92-4.88-2.63 0-1.52 5.7-2.28 5.7-2.28v-17zm13.34 9.46a5.61 5.61 0 00-5.62-5.62 5 5 0 00-.55 0 5.62 5.62 0 000 11.19 5.12 5.12 0 00.56 0 5.62 5.62 0 005.61-5.57z" fill="#fefdf0"/><path d="M22.09 31v10s.52.81 3.34 1.58l-1 17.42-.51 8.82a31.75 31.75 0 013.87-56.72v16.63s-5.7.76-5.7 2.27z" fill="#4a81ae"/></svg>