<svg xmlns="http://www.w3.org/2000/svg" viewBox="0 0 80 80"><defs><style>.a{fill:#034ea2}</style></defs><path class="a" d="M5.31 42.43a1.42 1.42 0 010 .84c-.09.39-.35.77-1.11.77a1 1 0 01-1.15-1V41.9H0v.88c0 2.55 2 3.32 4.16 3.32s3.76-.7 4-2.61a5.79 5.79 0 000-1.87c-.46-2.4-4.8-3.11-5.16-4.45a1.35 1.35 0 010-.6.94.94 0 011-.77 1 1 0 011.06 1v.71H8v-.8c0-2.49-2.24-2.88-3.86-2.88-2 0-3.69.67-4 2.54a4 4 0 000 1.54c.5 2.33 4.56 3 5.15 4.49M12.24 34.22l-2.12 11.44h3.09l1.57-10.38h.06l1.52 10.38h3.08l-2.11-11.44zm17.28 0L28.11 43H28l-1.41-8.74H22l-.25 11.44h2.86l.07-10.28h.06l1.91 10.28h2.9l1.92-10.28h.06l.07 10.28h2.86l-.25-11.44zM42.48 42.41a1.42 1.42 0 010 .84 1 1 0 01-1.11.77 1 1 0 01-1.15-1v-1.14h-3.05v.88c0 2.55 2 3.32 4.16 3.32s3.77-.7 4-2.61a5.57 5.57 0 000-1.88c-.48-2.39-4.82-3.11-5.15-4.44a1.57 1.57 0 010-.61 1 1 0 011-.76 1 1 0 011.06 1v.71h2.85v-.8c0-2.5-2.24-2.88-3.85-2.88-2 0-3.7.67-4 2.53a4.06 4.06 0 000 1.55c.5 2.33 4.56 3 5.15 4.49M52.08 43.94a1 1 0 001.1-.82 3.1 3.1 0 000-.44v-8.46h2.9v8.95c-.2 2.13-1.89 2.83-4 2.83s-3.79-.7-4-2.83v-8.95H51v8.46a2.1 2.1 0 000 .44 1 1 0 001.1.82m14-9.72l.16 9h-.06l-2.64-9h-4.28v11.31h2.81l-.15-9.28H62l2.82 9.28h4.07V34.22zm9.87 9.6A1.08 1.08 0 0077.1 43a3 3 0 000-.43V40.9H76v-1.67h4v3.82c-.19 2.08-2 2.83-4 2.83s-3.83-.75-4-2.83a5.91 5.91 0 010-.75v-4.81-.75c.26-2.14 2-2.83 4-2.83s3.8.68 4 2.82a6.59 6.59 0 010 .76v.38h-2.9v-.64a2.44 2.44 0 000-.44 1.2 1.2 0 00-2.28 0 2.31 2.31 0 000 .54v5.23a2.9 2.9 0 000 .43 1.06 1.06 0 001.17.83"/></svg>