<svg id="bacd525c-874a-4097-90c0-bff95d8a037e" data-name="Logos" xmlns="http://www.w3.org/2000/svg" viewBox="0 0 80 80"><title>logos</title><path d="M79.22,40.65a1.41,1.41,0,0,1-.55,1.51,24.57,24.57,0,0,1-3.08,2q-24.89,12.51-49.83,25c-6.1,3.06-12.17,6.18-18.28,9.22-4.15,2.07-5.57,1.29-5.64-3.29-.11-7.22,0-14.45-.07-21.66a6,6,0,0,1,3-5.69c11-7.16,22.8-11.89,36-13A93,93,0,0,1,75,38.29a27.55,27.55,0,0,1,3.43,1.42,1.45,1.45,0,0,1,.8.94Z" style="fill:#3c56fb"/><path d="M2.31.72C16.05,7.44,29.31,14,43,21a1,1,0,0,1,.33,1.59C38.25,28.49,32.26,31.22,25.9,33c-7.16,2-14.47,2.66-21.71-.3C2.25,31.89.73,31.17.74,28.86c0-8.52,0-17,.11-25.57C.86,2.65.75-.08,2.31.72Z" style="fill:#44aaae"/></svg>