<svg xmlns="http://www.w3.org/2000/svg" fill="none" viewBox="0 0 80 80">
  <path fill="currentColor" fill-rule="evenodd" d="M79.3102 56.3968c-1.5997 1.9996-5.3991 3.3994-5.3991 3.3994L45.416 69.9944v-7.4987l20.9964-7.4987c2.3996-.8999 2.7995-1.9997.7999-2.6995-2.5863-.593-5.2866-.4545-7.7987.3999L45.416 57.6965v-7.9986l.7999-.2c3.1552-.9991 6.4052-1.6693 9.6983-1.9996 6.1134-.6494 12.2947.0677 18.0969 2.0996 6.199 1.9997 6.7989 4.7992 5.2991 6.7989Z" clip-rule="evenodd"/>
  <path fill="currentColor" fill-rule="evenodd" d="M48.1157 43.4996V24.2029c0-2.1996-.3999-4.2993-2.4996-4.8992-1.5997-.4999-2.6995.9999-2.6995 3.2995v48.2917l-12.9978-4.1993V9.10547c6.0924 1.30953 12.102 2.97883 17.9969 4.99913 10.9982 3.6994 14.7975 8.4986 14.7975 18.9968 0 10.3982-6.3989 14.3975-14.5975 10.3982ZM6.0229 61.6965c-6.298928-1.7997-7.39874-5.4991-4.49924-7.6987 2.24403-1.4369 4.66344-2.5794 7.19877-3.3994l18.69677-6.5989v7.5987l-13.4977 4.6992c-2.2996.8998-2.6995 1.9997-.7998 2.6995 2.5858.5983 5.2876.4598 7.7986-.3999l6.4989-2.2996v6.6989l-1.2997.1999c-6.7221 1.1228-13.6157.6083-20.0966-1.4997Z" clip-rule="evenodd"/>
</svg>
