<svg xmlns="http://www.w3.org/2000/svg" fill="none" viewBox="0 0 80 80">
  <path fill="#4FB58B" d="m66 42.3 4.3.4c.3 0 .6.2.8.4v.1a1.2 1.2 0 0 1 .3 1c-1 7.4-4.5 14.3-10 19.5A31.1 31.1 0 0 1 29 69.9h-.2a1.1 1.1 0 0 1-.6-.7.8.8 0 0 1 0-.9l1.6-4.2a1.2 1.2 0 0 1 1.5-.6 24.5 24.5 0 0 0 25.5-4.9c4.3-4 7.2-9.4 8-15.3a1.2 1.2 0 0 1 1.1-1ZM20 57.8h.2c2 0 3.5 1.6 3.6 3.6a3.6 3.6 0 1 1-3.7-3.6Zm-9.2-14.3H46a1.2 1.2 0 0 1 1.2 1.2v4.5a1.2 1.2 0 0 1-1.2 1.2H10.8a1.2 1.2 0 0 1-1.2-1.2v-4.5a1.2 1.2 0 0 1 1.1-1.2ZM50.5 9.8a1.2 1.2 0 0 1 .7.6v1l-1.5 4a1.2 1.2 0 0 1-1.5.8 24.4 24.4 0 0 0-32 17.5 1.2 1.2 0 0 1-1.1.9h-.3l-4.2-1a1.2 1.2 0 0 1-.7-.6 1.2 1.2 0 0 1-.2-1 32.2 32.2 0 0 1 10.7-17 31.1 31.1 0 0 1 30.1-5.2ZM35 27.5h35.3a1.2 1.2 0 0 1 1.2 1.1v4.5a1.2 1.2 0 0 1-1.1 1.2H34.8a1.2 1.2 0 0 1-1.2-1.2v-4.4a1.2 1.2 0 0 1 1.1-1.2ZM59.4 14h.1c2 0 3.6 1.6 3.6 3.6a3.6 3.6 0 1 1-3.7-3.6Z"/>
</svg>
