<svg xmlns="http://www.w3.org/2000/svg" fill="none" viewBox="0 0 80 80">
  <path fill="#E60012" d="M0 0h80v80H0z"/>
  <path fill="#fff" d="M41.9 47.4h5.5c5 0 9.2-4 9.2-9.2V20.7c0-5-4.1-9.2-9.2-9.2h-5.6s-.2.1-.2.3v35.4c0 .1.1.2.3.2m6.8-19.8a3.6 3.6 0 1 1 0 7.3 3.6 3.6 0 0 1 0-7.3Zm-11-16H30a9 9 0 0 0-9.2 9.1v17.5c0 5.1 4.1 9.2 9.2 9.2h7.8c.2 0 .3 0 .3-.2V11.8c0-.2-.1-.3-.3-.3m-2.6 33H30a6.3 6.3 0 0 1-6.3-6.3V20.7a6.3 6.3 0 0 1 6.3-6.3h5v30.2Zm-8.8-22.2a3.4 3.4 0 1 0 6.7 0 3.4 3.4 0 0 0-6.7 0ZM13 54.4l2.2 3h.9V53h-1v3L13 53h-1v4.5h1v-3ZM35 53h-3.8v1h1.4v3.5h1V54H35v-1Zm-.3 15.3h1.9v-8.5h-1.9v8.5Zm-9.8-13.8 2.2 3h.9V53h-1v3l-2.2-3H24v4.5h1v-3ZM29 65.8l-1.8-6.1h-1.5L24 65.8l-1.6-6.1h-1.8l2.4 8.5h2l1.6-5.6 1.5 5.6h2l2.5-8.5h-1.8L29 65.8ZM15.7 63c-1.3-.2-2-.4-2-1s.8-.9 2-.9a7 7 0 0 1 2.6.6l.6-1.5c-.4-.1-1.8-.6-3.3-.6-1.8 0-3.7.9-3.7 2.5 0 1.4 1 2 3.3 2.5 1.7.3 2.7.4 2.7 1.2 0 .4-.4 1-2.3 1a6 6 0 0 1-3-.7l-.8 1.4c.4.2 1.8 1 3.7 1 2.7 0 4-1 4-2.8 0-1-.3-2-3.8-2.7m4.8-10h-1v4.4h1V53Zm29 4.4V53h-1v3l-2.2-3h-.9v4.5h1v-3l2.2 3h.9Zm-7.8-.8h-2.6v-1h2.4v-.9h-2.4v-1h2.6V53h-3.5v4.5h3.5v-.8Zm23.9 10.6h.4v1h.2v-1h.4v-.3h-1v.3Zm-2.9-14.4a2.4 2.4 0 0 0 0 4.8 2.4 2.4 0 0 0 0-4.8Zm0 3.8a1.4 1.4 0 1 1 0-2.8c.8 0 1.4.6 1.4 1.4 0 .8-.6 1.4-1.4 1.4ZM68 66.9l-.3 1-.3-1H67v1.3h.2v-1l.4 1h.2l.3-1v1h.2v-1.3H68Zm-5-3.8h-4v-3.4h-1.7v8.5h1.8v-3.4h4v3.4h1.7v-8.5H63v3.4Zm-24.4-1.6h2.7v6.7h1.8v-6.7h2.7v-1.8h-7.2v1.8Zm13-.2c1 0 2 .6 2.4 1.4l1.4-1.2a4.5 4.5 0 1 0 0 5L54 65.3c-.5.8-1.4 1.3-2.3 1.3A2.7 2.7 0 0 1 49 64c0-1.5 1.2-2.7 2.7-2.7M55 53h-1.8v4.5H55c1.3 0 2.3-1 2.3-2.2 0-1.2-1-2.3-2.3-2.3m0 3.6h-1V54h1c.8 0 1.4.6 1.4 1.3 0 .7-.6 1.3-1.3 1.3Z"/>
</svg>
