<svg xmlns="http://www.w3.org/2000/svg" fill="none" viewBox="0 0 80 80">
  <path fill="currentColor" d="m43.5 8.5-1.3 16.2a16.5 16.5 0 0 0-4.3 0l-.7-7.8a.4.4 0 0 1 .4-.5h1.3l-.6-7.9c0-.3.2-.5.4-.5h4.4c.2 0 .4.2.4.5Zm-11 .8c-.1-.3-.3-.4-.6-.3l-4 1.5c-.3 0-.4.3-.3.6l3.3 7.2-1.2.5c-.3 0-.4.3-.3.5l3.4 7.2a15 15 0 0 1 4-1.5L32.5 9.3Zm-10 4.5L31.8 27a17 17 0 0 0-3.3 2.7L23 24.3a.4.4 0 0 1 0-.6l1-.9-5.5-5.7a.4.4 0 0 1 0-.6l3.3-2.8h.6Zm-8 7.7c-.2-.2-.4-.1-.6.1l-2.1 3.8c-.2.2 0 .5.1.6l7.3 3.4-.7 1.1c-.1.3 0 .5.2.6l7.2 3.3a15 15 0 0 1 2-3.7l-13.4-9.2ZM9.2 31.7c0-.2.3-.4.5-.3l15.8 4c-.4 1.4-.7 2.9-.7 4.3L17 39a.4.4 0 0 1-.3-.5l.2-1.3-8-.7c-.2 0-.4-.3-.3-.5l.7-4.3Zm-.6 10.6c-.2 0-.4.3-.3.5l.7 4.3c0 .3.3.4.5.4l7.8-2 .2 1.3c0 .2.3.4.5.3l7.6-2c-.4-1.4-.7-2.8-.8-4.2L8.6 42.3Zm2.6 11.3c-.2-.2 0-.5.1-.6L26 46a15 15 0 0 0 2.2 3.7l-6.4 4.6c-.2.1-.5 0-.6-.1l-.7-1.2-6.6 4.5c-.2.2-.4.1-.6-.1l-2.2-3.8Zm17.8-3L17.5 62v.7l3.4 2.7c.2.2.5.2.6 0l4.6-6.5 1 .8c.3.2.6.2.7 0l4.5-6.6a16 16 0 0 1-3.3-2.6ZM26.7 69c-.2 0-.3-.3-.2-.5l6.8-14.8c1.2.6 2.6 1.1 4 1.4l-2 7.6c0 .2-.4.4-.6.3l-1.2-.5-2.2 7.7c0 .3-.3.4-.5.3L26.7 69Zm11.7-13.7L37 71.6c0 .2.1.4.4.4h4.3c.3 0 .5-.2.4-.4l-.6-8h1.3a.4.4 0 0 0 .5-.4l-.8-7.9a14.6 14.6 0 0 1-4.2 0M54 11.6c0-.3 0-.5-.3-.6l-4-1.5c-.3 0-.5 0-.6.3L47 17.5l-1.3-.5c-.2 0-.5 0-.5.3l-2 7.7c1.4.2 2.7.7 4 1.3L54 11.5Zm8.9 6.4L51.6 29.5c-1-1-2.1-2-3.3-2.7l4.5-6.5c.1-.2.4-.2.6 0l1 .8 4.6-6.5c.2-.2.5-.3.6 0l3.4 2.7c.2.2.2.4 0 .6Zm6.2 9.1c.2 0 .3-.4.2-.6l-2.2-3.7a.4.4 0 0 0-.6-.2L60 27.1l-.7-1.2c0-.2-.4-.3-.6-.1l-6.4 4.6c.9 1 1.6 2.3 2.2 3.6l14.7-7Zm2.3 6 .8 4.2c0 .3-.2.5-.4.5l-16.2 1.5c-.1-1.4-.4-2.8-.8-4.1l7.6-2.1c.2-.1.5 0 .5.3l.2 1.3 7.8-2c.2 0 .4 0 .5.3Zm-.7 15.7c.2 0 .5-.1.5-.4L72 44c0-.2 0-.4-.3-.5l-8-.7.2-1.3c0-.3 0-.5-.3-.5l-8-.7c0 1.5-.2 2.9-.6 4.2l15.8 4.1Zm-4.2 9.7c-.1.2-.4.3-.6.2l-13.4-9.3a15 15 0 0 0 2-3.7l7.2 3.3c.3.1.3.4.2.6l-.7 1.2 7.3 3.4c.2 0 .3.4.1.6l-2.1 3.7Zm-18-5.4L58 66.3c.1.2.4.3.6.1l3.3-2.8c.2-.1.2-.4 0-.6l-5.6-5.7 1-.8c.3-.2.3-.5 0-.6l-5.6-5.6c-.9 1-2 2-3.2 2.8Zm0 18c-.3.1-.5 0-.6-.2L43.7 55c1.4-.3 2.7-.9 4-1.5l3.4 7c0 .3 0 .6-.2.7l-1.3.4 3.3 7.3c.1.2 0 .5-.2.5L48.6 71Z"/>
</svg>
