<svg data-name="Logos" xmlns="http://www.w3.org/2000/svg" viewBox="0 0 80 80"><path d="M1.13 31.18A1.51 1.51 0 011 30 40 40 0 0149.63 1.27c1 .27 2.09.59 3.12.94a1.55 1.55 0 01.93 2l-2 5.17a1.51 1.51 0 01-1.9.86 31.44 31.44 0 00-10.14-1.75 31 31 0 00-19.7 7A31.61 31.61 0 009.27 32a1.47 1.47 0 01-1.78 1.08l-5.4-1.2a1.5 1.5 0 01-.96-.7zM78.92 44a1.49 1.49 0 00-1-.57l-5.5-.56a1.51 1.51 0 00-1.65 1.3 31.41 31.41 0 01-35.36 26.88 30.87 30.87 0 01-7-1.77 1.49 1.49 0 00-1.92.86l-2.13 5.11a1.5 1.5 0 00.8 2h.06A39.95 39.95 0 0079.2 45a1.47 1.47 0 00-.29-1zm-30.27 7.37v-5.51a1.5 1.5 0 00-1.51-1.5H2.33a1.5 1.5 0 00-1.52 1.48v5.55a1.5 1.5 0 001.51 1.5h44.8a1.51 1.51 0 001.52-1.49zM31.41 25.79v5.53a1.52 1.52 0 001.51 1.51h44.8a1.51 1.51 0 001.49-1.51v-5.53a1.51 1.51 0 00-1.5-1.51H32.9a1.51 1.51 0 00-1.5 1.51zm32.74-18.3A4.53 4.53 0 1068.68 12a4.53 4.53 0 00-4.51-4.52zM14.27 62.17a4.53 4.53 0 104.53 4.53 4.52 4.52 0 00-4.52-4.52z" fill="#12424a" data-name="Logos"/></svg>