<svg xmlns="http://www.w3.org/2000/svg" fill="none" viewBox="0 0 80 80">
  <path fill="#000" d="M74.8 43a33.9 33.9 0 0 1-34.5 33.2A34 34 0 0 1 5.7 43 33.9 33.9 0 0 1 40.3 9.7 34 34 0 0 1 74.8 43Z" opacity=".5"/>
  <path fill="url(#logo-safari-a)" stroke="#CDCDCD" stroke-linecap="round" stroke-linejoin="round" stroke-width=".2" d="M76 40a35.8 35.8 0 1 1-71.6 0 35.8 35.8 0 0 1 71.7 0Z"/>
  <path fill="url(#logo-safari-b)" d="M73.3 40a33 33 0 1 1-66 0 33 33 0 0 1 66 0Z"/>
  <path fill="#F4F2F3" d="M40.3 8.7a.5.5 0 0 0-.5.5v5.6a.5.5 0 0 0 1 0V9.2a.5.5 0 0 0-.5-.5ZM37 9a.5.5 0 0 0-.5.6l.2 2.3a.5.5 0 0 0 .6.4.5.5 0 0 0 .4-.5l-.2-2.3A.5.5 0 0 0 37 9Zm6.3 0a.5.5 0 0 0-.4.5l-.2 2.3a.5.5 0 0 0 .4.5.5.5 0 0 0 .5-.4l.3-2.3a.5.5 0 0 0-.5-.6Zm-9.5.5h-.1a.5.5 0 0 0-.4.6l1.2 5.4a.5.5 0 0 0 .9 0v-.2l-1.2-5.4a.5.5 0 0 0-.4-.4Zm12.8 0a.5.5 0 0 0-.5.4L45 15.2a.5.5 0 0 0 .4.6.5.5 0 0 0 .6-.4l1-5.4a.5.5 0 0 0-.3-.6h-.1Zm-16 .9h-.1a.5.5 0 0 0-.3.6l.8 2a.5.5 0 0 0 .9-.3l-.7-2.2a.5.5 0 0 0-.4-.3Zm19 0a.5.5 0 0 0-.4.3l-.7 2.2a.5.5 0 1 0 .9.4l.7-2.3a.5.5 0 0 0-.3-.6h-.2Zm-22 1a.5.5 0 0 0-.4.7l2.2 5.1a.5.5 0 0 0 .7.3.5.5 0 0 0 .2-.7l-2.2-5a.5.5 0 0 0-.5-.3Zm25.1 0a.5.5 0 0 0-.5.3L50 16.8a.5.5 0 0 0 .9.4l2.3-5a.5.5 0 0 0-.5-.7ZM24.9 13h-.3a.5.5 0 0 0-.2.7l1.2 2a.5.5 0 0 0 .8-.5l-1.1-2a.5.5 0 0 0-.4-.2Zm30.7 0a.5.5 0 0 0-.4.2l-1.1 2a.5.5 0 0 0 .8.5l1.2-2a.5.5 0 0 0-.2-.6l-.3-.1Zm-33.5 1.7H22a.5.5 0 0 0-.1.8l3.2 4.4a.5.5 0 0 0 1-.3l-.2-.2-3.2-4.5a.5.5 0 0 0-.5-.2Zm36.3 0a.5.5 0 0 0-.4.2l-3.3 4.5a.5.5 0 0 0 .1.6.5.5 0 0 0 .7 0l3.3-4.5a.5.5 0 0 0-.1-.7l-.3-.1Zm-38.7 2-.4.2a.5.5 0 0 0 0 .7l1.6 1.7a.5.5 0 0 0 .8 0 .5.5 0 0 0-.1-.6L20 16.8l-.3-.1Zm41.1 0a.4.4 0 0 0-.3.2l-1.6 1.7a.5.5 0 0 0 0 .7.5.5 0 0 0 .7 0l1.6-1.7a.5.5 0 0 0-.4-.8ZM17.3 19c-.1 0-.2 0-.3.2a.5.5 0 0 0 0 .7l4.1 3.7a.5.5 0 0 0 .7-.7L17.6 19a.5.5 0 0 0-.3-.2Zm45.9 0a.5.5 0 0 0-.3.2l-4.2 3.7a.5.5 0 0 0 .7.7l4.1-3.7a.5.5 0 0 0 0-.7l-.3-.2Zm-47.8 2.5a.5.5 0 0 0-.4.2.5.5 0 0 0 0 .6v.1l2 1.4a.5.5 0 0 0 .6-.1.5.5 0 0 0 0-.7l-2-1.4h-.2Zm49.8 0-.3.1L63 23a.5.5 0 0 0-.1.7.5.5 0 0 0 .7 0l1.9-1.3a.5.5 0 0 0-.1-.8h-.2Zm-51.7 2.7a.5.5 0 0 0-.3.3.5.5 0 0 0 .1.6l4.8 2.8a.5.5 0 0 0 .7-.7l-.2-.1-4.8-2.8h-.3Zm53.5 0h-.3L62 27a.5.5 0 0 0-.2.6.5.5 0 0 0 .7.2l4.8-2.8a.5.5 0 0 0-.2-.9Zm-54.8 3a.5.5 0 0 0-.5.2.5.5 0 0 0 .2.6l2.2 1a.5.5 0 1 0 .4-1l-2.2-.8h-.1Zm56.2 0h-.2L66 28a.5.5 0 0 0-.3.6.5.5 0 0 0 .6.2l2.2-1a.5.5 0 0 0 .2-.6.5.5 0 0 0-.4-.3ZM10.9 30a.5.5 0 0 0-.4.3.5.5 0 0 0 .3.6l5.3 1.8a.5.5 0 0 0 .3-1L11 30h-.2Zm58.7 0h-.2l-5.3 1.7a.5.5 0 0 0 0 1 .5.5 0 0 0 .3 0l5.3-1.8a.5.5 0 0 0 .3-.6.5.5 0 0 0-.4-.3Zm-59.5 3.1a.5.5 0 0 0-.4.4.5.5 0 0 0 .3.6l2.3.5a.5.5 0 1 0 .2-1l-2.3-.4Zm60.3 0h-.1l-2.3.5a.5.5 0 0 0-.3.6.5.5 0 0 0 .5.4l2.3-.5a.5.5 0 0 0-.1-1ZM9.6 36.3a.5.5 0 0 0-.4.8l.4.2 5.5.6a.5.5 0 0 0 .5-.5.5.5 0 0 0-.4-.5l-5.5-.6h-.1Zm61.4 0h-.1l-5.6.6a.5.5 0 0 0-.4.6.5.5 0 0 0 .5.4l5.6-.6a.5.5 0 0 0 .4-.5.5.5 0 0 0-.4-.4ZM9.5 39.5a.5.5 0 0 0 0 1h2.3a.5.5 0 1 0 0-1H9.5Zm59.2 0a.5.5 0 0 0 0 1H71a.5.5 0 1 0 0-1h-2.3Zm-53.5 2.7H15l-5.5.5a.5.5 0 0 0-.1 1h.2l5.5-.6a.5.5 0 0 0 .4-.5.5.5 0 0 0-.4-.4Zm50.1 0a.5.5 0 0 0-.4.4.5.5 0 0 0 .4.5l5.6.6a.5.5 0 1 0 0-1l-5.5-.5Zm-52.9 3.3-2.4.4a.5.5 0 0 0-.3.6.5.5 0 0 0 .5.4l2.3-.5a.5.5 0 0 0-.1-1Zm55.7 0a.5.5 0 0 0-.4.7.5.5 0 0 0 .3.2l2.3.5a.5.5 0 1 0 .2-1l-2.3-.4H68Zm-51.8 1.9H16L10.8 49a.5.5 0 0 0 .3.9l5.3-1.8a.5.5 0 0 0-.1-.9Zm48 0a.5.5 0 0 0-.2.9l5.3 1.7a.5.5 0 0 0 .6-.3.5.5 0 0 0-.3-.6l-5.3-1.7h-.1Zm-50 3.7H14l-2.2 1a.5.5 0 1 0 .4 1l2.2-1a.5.5 0 0 0 .2-.7.5.5 0 0 0-.4-.3Zm52 0a.5.5 0 0 0-.5.3.5.5 0 0 0 .3.6l2.1 1a.5.5 0 0 0 .4-1l-2.1-.9h-.2Zm-47.9 1-.3.1-4.8 2.8a.5.5 0 0 0 .5.9l4.8-2.8a.5.5 0 0 0 0-.8l-.2-.1Zm43.7 0a.5.5 0 0 0-.3.9h.1l4.8 2.9a.5.5 0 0 0 .7-.2.5.5 0 0 0-.2-.7l-4.8-2.8H62Zm-44.9 4.1-.3.1-1.8 1.4a.5.5 0 0 0 .5.8l2-1.4a.5.5 0 0 0 0-.6.5.5 0 0 0-.4-.3Zm46 0a.5.5 0 0 0-.3.2.5.5 0 0 0 0 .7l2 1.4a.5.5 0 0 0 .7-.6l-.2-.2-1.9-1.3-.2-.1Zm-41.7.2a.5.5 0 0 0-.4.1l-4 3.8a.5.5 0 0 0 .6.7l4-3.7a.5.5 0 0 0 0-.7c0-.1 0-.2-.2-.2Zm37.5 0c-.1 0-.2 0-.3.2a.5.5 0 0 0 0 .7l4.1 3.7a.5.5 0 1 0 .6-.7l-4-3.8H59ZM25.4 60a.5.5 0 0 0-.4.2l-3.3 4.5a.5.5 0 1 0 .8.5l3.3-4.5a.5.5 0 0 0-.4-.7Zm29.7 0h-.3a.5.5 0 0 0-.1.7l3.3 4.5a.5.5 0 0 0 .6.1.5.5 0 0 0 .1-.6l-3.2-4.5a.5.5 0 0 0-.4-.2Zm-33.9.7a.4.4 0 0 0-.3.1l-1.6 1.8a.5.5 0 0 0 .7.6l1.6-1.7a.5.5 0 0 0 0-.7.5.5 0 0 0-.4 0v-.1Zm38.1 0a.5.5 0 0 0-.3.1.5.5 0 0 0 0 .7l1.5 1.7a.5.5 0 0 0 .7 0 .5.5 0 0 0 0-.6l-1.5-1.8-.3-.1Zm-29.3 2a.5.5 0 0 0-.5.2l-2.2 5a.5.5 0 1 0 .9.5l2.2-5a.5.5 0 0 0-.4-.8Zm20.5 0h-.2a.5.5 0 0 0-.2.6l2.3 5a.5.5 0 1 0 .9-.3L51 63a.5.5 0 0 0-.4-.4ZM26 64.1a.5.5 0 0 0-.4.2l-1.2 2a.5.5 0 0 0 .9.5l1.1-2a.5.5 0 0 0-.1-.6l-.3-.1Zm28.5 0h-.3a.5.5 0 0 0-.1.7l1.1 2a.5.5 0 0 0 1-.3l-.1-.2-1.2-2a.5.5 0 0 0-.4-.3v.1Zm-19.5 0a.5.5 0 0 0-.5.5L33.4 70a.5.5 0 0 0 1 .2l1-5.4a.5.5 0 0 0-.3-.6Zm10.5 0h-.1a.5.5 0 0 0-.4.6l1.2 5.5a.5.5 0 0 0 .8.1.5.5 0 0 0 .1-.3L46 64.6a.5.5 0 0 0-.5-.3Zm-5.2.6a.5.5 0 0 0-.5.5v5.5a.5.5 0 0 0 1 0v-5.5a.5.5 0 0 0-.5-.5Zm-8.9 1.8a.5.5 0 0 0-.4.3l-.7 2.3a.5.5 0 0 0 .7.5.5.5 0 0 0 .2-.2l.7-2.3a.5.5 0 0 0-.5-.6Zm17.7 0h-.2a.5.5 0 0 0-.3.6l.7 2.2a.5.5 0 1 0 1-.3l-.8-2.2a.5.5 0 0 0-.4-.3Zm-11.9 1.2a.5.5 0 0 0-.4.5l-.2 2.3a.5.5 0 0 0 .4.5.5.5 0 0 0 .5-.4l.3-2.3a.5.5 0 0 0-.5-.6Zm6 0a.5.5 0 0 0-.5.6l.2 2.3a.5.5 0 1 0 1-.1l-.2-2.3a.5.5 0 0 0-.5-.5Z"/>
  <path fill="#000" d="M62.8 20.8 36.5 36 19.8 62.3l24.4-18 18.6-23.5Z" opacity=".4"/>
  <path fill="#FF5150" d="m44 44-7.5-8 26.8-18L44 44Z"/>
  <path fill="#F1F1F1" d="m44 44-7.5-8-19.3 26L44 44Z"/>
  <path fill="#000" d="M17.2 62 44 44l19.3-26-46 44Z" opacity=".2"/>
  <defs>
    <radialGradient id="logo-safari-b" cx="0" cy="0" r="1" gradientTransform="matrix(35.8 0 0 35.8 40 35.6)" gradientUnits="userSpaceOnUse">
      <stop stop-color="#06C2E7"/>
      <stop offset=".3" stop-color="#0DB8EC"/>
      <stop offset=".5" stop-color="#12AEF1"/>
      <stop offset=".8" stop-color="#1F86F9"/>
      <stop offset="1" stop-color="#107DDD"/>
    </radialGradient>
    <linearGradient id="logo-safari-a" x1="41.4" x2="41.4" y1="74.8" y2="2.9" gradientUnits="userSpaceOnUse">
      <stop stop-color="#BDBDBD"/>
      <stop offset="1" stop-color="#fff"/>
    </linearGradient>
  </defs>
</svg>
