<svg xmlns="http://www.w3.org/2000/svg" fill="none" viewBox="0 0 80 80">
  <path fill="#5A1BA9" d="M30.5 35a48 48 0 0 1 14.3-2.6c4.6 0 7.5 1.9 9 3.4 3.3 3.3 3.3 7.5 3.3 8v22.8h-7.6V44c0-1.8-.9-3.9-4.8-3.9-7.7 0-16.4 3.9-16.4 4l-5.4 2.4v-33h7.6V35Zm1 24-8.6 7.6V51.4l8.6 7.6Zm25.6-45.6a22 22 0 0 1-5.7 12.3h-7.6c3-3.9 4.9-8 5.7-12.3h7.6Z"/>
  <path fill="#5A1BA9" fill-rule="evenodd" d="M67.4 2c3.7 0 6.8 3 6.8 6.8v62.4c0 3.7-3 6.8-6.8 6.8H12.6c-3.7 0-6.8-3-6.8-6.8V8.8c0-3.7 3-6.8 6.8-6.8h54.8ZM12.6 5.8a3 3 0 0 0-3 3v62.4a3 3 0 0 0 3 3h54.8a3 3 0 0 0 3-3V8.8a3 3 0 0 0-3-3H12.6Z" clip-rule="evenodd"/>
</svg>
