<svg xmlns="http://www.w3.org/2000/svg" viewBox="0 0 80 80"><path d="m-.3 47.8 1-2.4 5.7-14a.3.3 0 0 1 .3-.2H11a.3.3 0 0 1 .3.2l7.1 16.2.1.2h-4.2a.2.2 0 0 1-.3-.2l-1.2-3a.3.3 0 0 0-.3 0h-7a.2.2 0 0 0-.2 0l-1.1 3a.3.3 0 0 1-.3.2H-.3zm9.1-12.6-2.4 6.4h5.1zm71 13.7-.2-.1-5-5a.4.4 0 0 1 0-.3v-8.3h-8.4a.4.4 0 0 1-.3-.2l-5-5h18.8zm-19.1.2v-7.3a.5.5 0 0 1 .1-.4l5-5a1.1 1.1 0 0 0 .1-.1h.1v7.4h7.5l-.2.2-5.1 5v.2zM24.5 37.5v10.3h-4V31.3h3.3a.4.4 0 0 1 .3.1l5 5.9.2.2a1.2 1.2 0 0 1 .1-.2l5.1-5.9a.4.4 0 0 1 .2-.1h3.5v16.5h-4V37.5l-.3.3-4 4.7a.7.7 0 0 1-1 0l-4-4.7-.2-.2zm16.9 10.3V31.3H49a9.6 9.6 0 0 1 5 1.3 7.5 7.5 0 0 1 3.6 5.5 9 9 0 0 1-.4 4.6 7 7 0 0 1-4 4.2 10.7 10.7 0 0 1-4.1.9h-7.7zm4.1-3h2.8a8.7 8.7 0 0 0 1.5-.2 4.4 4.4 0 0 0 3.4-2.7 6.2 6.2 0 0 0 .3-3 5.3 5.3 0 0 0-.8-2.5 4.6 4.6 0 0 0-3.6-2h-3.6z"/></svg>
