<svg xmlns="http://www.w3.org/2000/svg" fill="none" viewBox="0 0 80 80">
  <path fill="currentColor" d="M22.7 33.4c0 1 .1 1.8.3 2.4l.8 1.9c.2.2.2.4.2.6 0 .3-.1.5-.5.8l-1.7 1.1c-.2.2-.4.2-.6.2-.3 0-.6-.1-.8-.3a8 8 0 0 1-1-1.3l-.8-1.5a9.7 9.7 0 0 1-7.8 3.6c-2.2 0-4-.6-5.2-1.9-1.3-1.3-2-3-2-5A7 7 0 0 1 6 28.5c1.6-1.4 3.8-2 6.5-2a20.9 20.9 0 0 1 5.8.7v-1.9c0-2-.4-3.4-1.2-4.2-.9-.8-2.3-1.2-4.3-1.2-1 0-1.9 0-2.9.3a21 21 0 0 0-3.7 1.3h-.5c-.3 0-.5-.2-.5-.8v-1.3c0-.4 0-.7.2-.9 0-.2.3-.4.7-.5 1-.5 2-1 3.3-1.2a16 16 0 0 1 4.1-.5c3.2 0 5.5.7 7 2.1 1.4 1.4 2.1 3.6 2.1 6.5v8.5Zm-10.7 4c.9 0 1.7-.1 2.7-.4 1-.3 1.8-1 2.5-1.7.4-.5.7-1 .9-1.7.2-.6.3-1.4.3-2.3v-1.1a22.1 22.1 0 0 0-5-.6c-1.7 0-3 .3-3.9 1-.8.8-1.3 1.8-1.3 3 0 1.3.4 2.2 1 2.9a4 4 0 0 0 2.8 1Zm21.2 2.9c-.5 0-.8 0-1-.3-.2-.1-.4-.5-.6-1l-6.2-20.4-.2-1c0-.5.2-.7.6-.7h2.6c.5 0 .8 0 1 .3.2.1.4.5.5 1l4.5 17.5 4.1-17.5c.1-.5.3-.9.5-1 .2-.2.6-.3 1-.3h2.2c.5 0 .8 0 1 .3.2.1.4.5.5 1L48 35.9l4.6-17.7c.1-.5.3-.9.5-1 .2-.2.5-.3 1-.3h2.5c.4 0 .6.2.6.7v.4l-.2.6L50.5 39c-.1.6-.3 1-.5 1-.2.2-.6.3-1 .3h-2.3c-.5 0-.8 0-1-.2-.3-.2-.5-.6-.6-1l-4-17.1L37 39c-.1.5-.3.9-.5 1-.2.2-.6.3-1 .3h-2.3ZM67 41a17.5 17.5 0 0 1-7.1-1.5c-.5-.3-.7-.5-.8-.8L59 38v-1.3c0-.6.2-.9.6-.9l.5.1.6.3a14.3 14.3 0 0 0 6 1.2c1.7 0 3-.3 4-.8C71.4 36 72 35 72 34c0-.8-.2-1.4-.7-1.9-.5-.5-1.4-1-2.7-1.4l-3.8-1.2a8 8 0 0 1-4.2-2.6 6.3 6.3 0 0 1 1.3-9c.8-.6 1.7-1 2.7-1.3a11.5 11.5 0 0 1 5.1-.4 29 29 0 0 1 3.2.7l1.1.5c.4.2.7.4.8.7.2.2.3.5.3.8v1.3c0 .5-.2.8-.6.8-.3 0-.6 0-1-.3a12 12 0 0 0-5.1-1c-1.5 0-2.7.2-3.5.7-.8.5-1.3 1.3-1.3 2.4 0 .7.3 1.3.8 1.8.6.5 1.5 1 3 1.5l3.7 1.2a8 8 0 0 1 4 2.5 6 6 0 0 1 1.3 3.7 7 7 0 0 1-.7 3c-.5 1-1.1 1.8-2 2.4-.7.6-1.7 1.1-2.9 1.5-1.1.3-2.4.5-3.7.5Z"/>
  <path fill="#F90" d="M72 53.8A58.1 58.1 0 0 1 .7 48.7c-.7-.7 0-1.7 1-1.2a79.1 79.1 0 0 0 69.2 4.3c1.4-.6 2.7 1 1.3 2Zm3.7-4c-1.1-1.5-7.4-.8-10.2-.4-.8 0-1-.7-.2-1.2 5-3.5 13.1-2.5 14-1.3 1 1.2-.2 9.3-4.8 13.2-.8.6-1.4.3-1.1-.5 1-2.6 3.4-8.5 2.3-9.9Z"/>
</svg>
