<svg xmlns="http://www.w3.org/2000/svg" viewBox="0 0 80 80"><title>logos</title><circle cx="40" cy="40" r="40" style="fill:#249df1"/><path d="M37.61,23l10-1.32-9.77,22h0a11.06,11.06,0,0,0,5-1.75h0a21.09,21.09,0,0,0,4.56-3.9h0a26.61,26.61,0,0,0,3.59-5.21h0a23.77,23.77,0,0,0,2.18-5.65h0a13.21,13.21,0,0,0,.37-3.3h0a5.11,5.11,0,0,0-.83-2.77h0a5.5,5.5,0,0,0-2.41-1.92h0A11,11,0,0,0,46,18.51h0a19.92,19.92,0,0,0-6.37,1h0a20.64,20.64,0,0,0-5.81,3.07h0a20,20,0,0,0-4.66,5h0a20.55,20.55,0,0,0-2.84,6.83h0a12.17,12.17,0,0,0-.39,2h0a6.81,6.81,0,0,0,0,1.25h0a2.56,2.56,0,0,0,.13.76h0a5.34,5.34,0,0,1,.16.53h0q-3.36,0-4.92-1.35h0q-1.55-1.36-.76-4.72h0a15.08,15.08,0,0,1,3.6-6.67h0a29.88,29.88,0,0,1,6.67-5.58h0a36,36,0,0,1,8.45-3.83h0a30.08,30.08,0,0,1,9-1.42h0a16.7,16.7,0,0,1,6.44,1.09h0a10.15,10.15,0,0,1,4.06,2.87h0a8.56,8.56,0,0,1,1.81,4.16h0a13,13,0,0,1-.23,4.95h0a20,20,0,0,1-2.74,6.24h0a25,25,0,0,1-5.05,5.68h0a26,26,0,0,1-7,4.13h0a22.19,22.19,0,0,1-8.35,1.58h-.33L28.44,65H18.93Z" style="fill:#fff"/></svg>