<svg xmlns="http://www.w3.org/2000/svg" viewBox="0 0 80 80"><path d="M34.8.27a41.45 41.45 0 00-14.47 4.79A40.15 40.15 0 00.37 33.6a59.09 59.09 0 00-.18 11.3 40 40 0 003.67 12.4 37.16 37.16 0 007.25 10.43 39.77 39.77 0 0019.15 11.08A31.83 31.83 0 0040 79.9a31.75 31.75 0 009.69-1.09 41.54 41.54 0 0016-8A51.8 51.8 0 0072 64.1a40.07 40.07 0 00-9.84-57.45A39.56 39.56 0 0044.85.25 58.15 58.15 0 0034.8.27zM34 30c3.19 10.59 5.89 19.25 6 19.25s2.78-8.66 6-19.25 5.85-19.33 5.9-19.45 3.51 11.11 15 48.78l.21.7h-1.33c-.91 0-1.34-.07-1.39-.22S64 58.45 63.64 57c-1.78-6.56-4.19-11.6-6.64-13.78a12.12 12.12 0 00-2.16-1.44c-1.23-.6-1.28-.62-3.25-.62s-2 0-3.09.58A15 15 0 0044.16 46a61 61 0 00-3.48 6.44c-.65 1.41-.75 1.56-.88 1.24a74.65 74.65 0 00-3.57-6.93 14.49 14.49 0 00-5.17-5.12 4.65 4.65 0 00-2.75-.43 6.45 6.45 0 00-4.68 1.49c-3.1 2.22-5.62 7.52-8 16.81l-.19.72h-1.36c-1 0-1.33-.05-1.28-.22s3.48-11.36 7.62-25S28 10.41 28.06 10.52 30.79 19.4 34 30z"/></svg>