<svg xmlns="http://www.w3.org/2000/svg" viewBox="0 0 80 80"><defs><style>.a{fill:#9386a0;fill-rule:evenodd}</style></defs><path class="a" d="M40.6 34a3 3 0 012.25-1.27 3.13 3.13 0 01-.74 2.27 2.39 2.39 0 01-2.13 1 2.76 2.76 0 01.62-2zm-.5 2.91c.48 0 1.38-.68 2.55-.68a3.18 3.18 0 012.8 1.46 3.18 3.18 0 00-1.54 2.77 3.23 3.23 0 001.92 3s-1.34 3.87-3.16 3.87c-.84 0-1.49-.57-2.37-.57s-1.79.59-2.37.59c-1.66 0-3.76-3.66-3.76-6.61s1.77-4.43 3.44-4.43c1.09-.06 1.93.58 2.49.58z"/><path class="a" d="M26.89 64.41a9.11 9.11 0 01-9.1-9.1V24.68a9.11 9.11 0 019.1-9.1H51a9.11 9.11 0 019.1 9.1v30.63a9.11 9.11 0 01-9.1 9.1zm-5.55-.5a10.2 10.2 0 01-4.69-8.6V24.68a10.24 10.24 0 014.51-8.49A10.52 10.52 0 0025 12c1-2.52 1.16-8.2 1.78-9.53S28.47.27 32.35.15l2.51-.08C37.6 0 40.33 0 43.07.07l2.5.08c3.89.12 4.92.91 5.58 2.32S51.9 9.48 53 12a10.52 10.52 0 003.76 4.16 10.24 10.24 0 014.51 8.49v1h1a1.14 1.14 0 011.14 1.14v6.55a1.14 1.14 0 01-1.14 1.14h-1v20.83a10.24 10.24 0 01-4.71 8.62 9.93 9.93 0 00-3.67 5.42 42.69 42.69 0 00-1.13 7.52 3 3 0 01-.76 1.34c-.47.38-1.2 1.59-8.92 1.79H35.8c-7.72-.2-8.45-1.41-8.92-1.79a3 3 0 01-.71-1.36A42.69 42.69 0 0025 69.33a9.93 9.93 0 00-3.67-5.42"/></svg>