<svg xmlns="http://www.w3.org/2000/svg" viewBox="0 0 80 80"><defs><style>.a{fill:#1f1f1f;fill-rule:evenodd}</style></defs><path class="a" d="M79.29 56.38c-1.56 2-5.39 3.38-5.39 3.38L45.42 70v-7.55l21-7.47c2.37-.85 2.74-2.06.81-2.69a14.25 14.25 0 00-7.81.4l-14 4.92v-7.83l.8-.27a48 48 0 019.71-2.06A41.48 41.48 0 0174 49.61c6.16 1.94 6.85 4.8 5.29 6.77z"/><path class="a" d="M48.13 43.54v-19.3c0-2.26-.42-4.35-2.55-4.94-1.62-.52-2.64 1-2.64 3.26v48.31l-13-4.13V9.13a157.82 157.82 0 0118 4.92c11 3.79 14.77 8.5 14.77 19.13-.07 10.35-6.46 14.28-14.58 10.36zM6 61.66c-6.31-1.78-7.36-5.48-4.48-7.61a31.1 31.1 0 017.18-3.46L27.38 44v7.57l-13.44 4.77c-2.38.85-2.74 2-.81 2.69a14.21 14.21 0 007.8-.4l6.45-2.35v6.78l-1.28.22A42.39 42.39 0 016 61.66z"/></svg>