<svg xmlns="http://www.w3.org/2000/svg" viewBox="0 0 80 80"><path d="M78.52 32.76C81 49.42 76.15 62.3 67.24 70.39l-12.62-9.83a20.74 20.74 0 008.19-12.37H40.92V32.76z" fill="#4286f5"/><path d="M67.68 10.33l-11.5 11.36a22.05 22.05 0 00-15.33-6 24 24 0 00-22.7 16.58L5.08 22.09a40 40 0 0162.6-11.76z" fill="#ea4235"/><path d="M54.62 60.56l12.62 9.83C60.36 76.64 51.05 80 40.85 80A40 40 0 015.08 57.91l13.07-10.14a24 24 0 0022.7 16.57c5.71 0 10.27-1.34 13.77-3.78z" fill="#34a853"/><path d="M5.08 22.09l13.07 10.15a24.74 24.74 0 000 15.53L5.08 57.91a40 40 0 010-35.82z" fill="#fbbc05"/></svg>