<svg xmlns="http://www.w3.org/2000/svg" viewBox="0 0 80 80"><path d="M79.81 41.91a36.7 36.7 0 00-4.48-17.56C87.66-3.31 62.25.8 60.75.8a65.56 65.56 0 00-14.94 4.86c-17.2-.2-32.14 9-37 28 9-10.09 15.32-14.2 19.06-15.7-.79.71-1.57 1.46-2.36 2.21a110.93 110.93 0 00-14.95 18.34C7.39 44.12 3.84 49 2 55.33-8.12 92 23.64 76.63 28.13 74a35.46 35.46 0 0016.07 3.7 36.14 36.14 0 0034-23.91H59.15c-9 14.2-30.27 7.84-31-7.48H79.7a35 35 0 00.3-4.48zm-6.72-35.5c3.1 2.09 5.6 5.23 1.3 16.44A33.64 33.64 0 0056.83 8.28c3.33-1.61 11.58-4.86 16.44-1.87zM6.94 74.05c-2.54-2.58-3-9 2.61-20.55a35.41 35.41 0 0015.7 19.06c-3.62 2-13.08 6.35-18.31 1.23zm20.93-37.37c.28-8.22 7.47-14.95 16.44-14.95s16.07 6.73 16.44 15H27.87z" fill="#1ebbee"/></svg>