<svg xmlns="http://www.w3.org/2000/svg" viewBox="0 0 80 80"><defs><style>.a{fill:#9386a0}</style></defs><path class="a" d="M44.11 42.63a.78.78 0 11.78-.78.78.78 0 01-.78.78m-8.62 0a.78.78 0 11.78-.78.77.77 0 01-.78.78m8.9-4.7l1.61-2.7a.33.33 0 10-.56-.33l-1.58 2.74a9.78 9.78 0 00-8 0l-1.65-2.74a.33.33 0 10-.56.33l1.56 2.7a9.2 9.2 0 00-4.78 7.37h18.74a9.2 9.2 0 00-4.78-7.37"/><path class="a" d="M54.29 2.18a2.57 2.57 0 012.57 2.57v70.54a2.57 2.57 0 01-2.57 2.57h-29a2.57 2.57 0 01-2.56-2.57V4.75a2.57 2.57 0 012.57-2.57zM25 5.81a1.23 1.23 0 10-1.23-1.23A1.22 1.22 0 0025 5.81zm34-1.06A4.71 4.71 0 0054.29 0h-29a4.7 4.7 0 00-4.7 4.71v70.58A4.7 4.7 0 0025.3 80h29a4.71 4.71 0 004.7-4.71v-35.8h.4V29.13H59v-5.19h.4V18.7H59z"/></svg>