<svg xmlns="http://www.w3.org/2000/svg" viewBox="0 0 80 80"><title>logos</title><path d="M26.76,0a7.32,7.32,0,0,0,0,14.64h7.31V7.32A7.31,7.31,0,0,0,26.76,0" style="fill:#36c5f0"/><path d="M26.76,19.52H7.29a7.32,7.32,0,0,0,0,14.63H26.76a7.32,7.32,0,0,0,0-14.63" style="fill:#36c5f0"/><path d="M73,26.83a7.31,7.31,0,1,0-14.61,0v7.32h7.31A7.3,7.3,0,0,0,73,26.83" style="fill:#2eb67d"/><path d="M53.54,26.83V7.32a7.3,7.3,0,1,0-14.6,0V26.83a7.3,7.3,0,1,0,14.6,0" style="fill:#2eb67d"/><path d="M46.24,73.18a7.32,7.32,0,0,0,0-14.63h-7.3v7.32a7.3,7.3,0,0,0,7.3,7.31" style="fill:#ecb22e"/><path d="M46.24,53.67H65.72a7.32,7.32,0,0,0,0-14.64H46.24a7.32,7.32,0,0,0,0,14.64h0" style="fill:#ecb22e"/><path d="M0,46.35a7.32,7.32,0,0,0,7.31,7.32h0a7.32,7.32,0,0,0,7.3-7.32V39H7.29A7.31,7.31,0,0,0,0,46.35" style="fill:#e01e5a"/><path d="M19.46,46.35V65.87a7.31,7.31,0,1,0,14.61,0V46.35A7.32,7.32,0,0,0,26.76,39h0a7.31,7.31,0,0,0-7.3,7.32" style="fill:#e01e5a"/></svg>