<svg xmlns="http://www.w3.org/2000/svg" viewBox="0 -15.4 127.1 127.1"><path d="M107.7 8a105.2 105.2 0 0 0-26.2-8A72 72 0 0 0 78 6.8a97.7 97.7 0 0 0-29.1 0A72.4 72.4 0 0 0 45.6 0a105.9 105.9 0 0 0-26.2 8A106 106 0 0 0 .5 80.3a105.7 105.7 0 0 0 32.2 16.2 77.7 77.7 0 0 0 6.9-11.2 68.4 68.4 0 0 1-10.8-5.1l2.6-2a75.6 75.6 0 0 0 64.3 0l2.7 2a68.7 68.7 0 0 1-10.9 5.2 77 77 0 0 0 7 11 105.3 105.3 0 0 0 32.1-16A106 106 0 0 0 107.7 8ZM42.4 65.8C36.3 65.7 31 60 31 53s5-12.7 11.4-12.7S54 46 54 53s-5 12.7-11.4 12.7Zm42.3 0c-6.3 0-11.5-5.7-11.5-12.7s5-12.7 11.5-12.7S96.2 46 96 53s-5 12.7-11.4 12.7Z" fill="#5865f2"/></svg>
