<svg xmlns="http://www.w3.org/2000/svg" viewBox="0 0 80 80"><path d="M70.49 27.19C58 34.77 59.67 52.7 72.74 58.72c-.68 1.7-1.29 3.44-2.06 5.11A45.48 45.48 0 0 1 62.5 76a14.76 14.76 0 0 1-2.9 2.39 8.36 8.36 0 0 1-7.2 1.2 36.6 36.6 0 0 1-3.92-1.27 16.77 16.77 0 0 0-13.93 0 32.11 32.11 0 0 1-3.73 1.27 8.17 8.17 0 0 1-8.06-1.78 37.62 37.62 0 0 1-4.6-4.76A49.7 49.7 0 0 1 7.78 49.32c-1-6.53-.64-12.92 2.46-18.9a19.55 19.55 0 0 1 13.83-10.76 17.14 17.14 0 0 1 9.85 1.07c1.29.48 2.6.91 3.88 1.41a7.32 7.32 0 0 0 5.59-.05 63.75 63.75 0 0 1 6.27-2.19c7.55-2 14.05-.15 19.51 5.41a8.83 8.83 0 0 1 .9 1.12 8.09 8.09 0 0 1 .42.76zM56.17 0a18.3 18.3 0 0 1-6.53 15.16 12 12 0 0 1-9.73 3.33C38.58 10.16 46.68.3 56.17 0z"/></svg>