<svg xmlns="http://www.w3.org/2000/svg" viewBox="0 0 80 80"><defs><linearGradient id="a" x1="82.1" y1="431.2" x2="42.3" y2="400.2" gradientTransform="matrix(1 0 0 -1 0 466)" gradientUnits="userSpaceOnUse"><stop offset=".2" stop-color="#0052cc"/><stop offset="1" stop-color="#2684ff"/></linearGradient></defs><path fill="none" d="M31.7 51.8h16.7l4-23.6H27.2l4.5 23.6z"/><path d="M2.6 4A2.6 2.6 0 0 0 0 6.6 3.4 3.4 0 0 0 0 7l11 66a3.5 3.5 0 0 0 3.3 3h52.2a2.6 2.6 0 0 0 2.6-2.1L80 7a2.6 2.6 0 0 0-2.1-3 2.3 2.3 0 0 0-.5 0zm45.8 47.8H31.8l-4.6-23.6h25.3z" fill="#2684ff"/><path d="M76.5 28.2h-24l-4 23.6H31.8L12 75a3.5 3.5 0 0 0 2.2.9h52.2a2.6 2.6 0 0 0 2.6-2.2z" fill="url(#a)"/></svg>
