<svg xmlns="http://www.w3.org/2000/svg" xmlns:xlink="http://www.w3.org/1999/xlink" viewBox="0 0 80 80"><defs><mask id="a" x="0.05" y="0" width="79.95" height="80" maskUnits="userSpaceOnUse"><polygon points="0.05 80 80 80 80 0 0.05 0 0.05 80" style="fill:#fff;fill-rule:evenodd"/></mask><mask id="b" x="0" y="0" width="80" height="80" maskUnits="userSpaceOnUse"><polygon points="0.05 80 80 80 80 0 0.05 0 0.05 80" style="fill:#fff;fill-rule:evenodd"/></mask></defs><title>logos</title><path d="M29.41,18.33,38.34,33.8a6.38,6.38,0,0,1,4.37.39l4.7-8.13L39.56,12.47,29.31,18.39h0l.1-.06" style="fill:#de752c;fill-rule:evenodd"/><path d="M15.94,38.34H33.81a6.64,6.64,0,0,1,.63-1.55,6.43,6.43,0,0,1,1.89-2l-4.7-8.13H15.94V38.44h0v-.1" style="fill:#de752c;fill-rule:evenodd"/><path d="M45.55,43.2a6.19,6.19,0,0,1-1.88,2l4.7,8.13H64.06V41.66H46.19a6.05,6.05,0,0,1-.64,1.54" style="fill:#de752c;fill-rule:evenodd"/><path d="M44.53,35.46a6.44,6.44,0,0,1,1.86,4h9.38l7.85-13.59L53.46,20,44.53,35.46" style="fill:#de752c;fill-rule:evenodd"/><path d="M26.53,60l8.94-15.48a6.43,6.43,0,0,1-1.85-4h-9.4L16.37,54.14l10.25,5.92L26.53,60" style="fill:#de752c;fill-rule:evenodd"/><g style="mask:url(#a)"><path d="M50.6,61.66,41.67,46.19a6.35,6.35,0,0,1-4.38-.38l-4.7,8.13,7.85,13.59,10.24-5.92-.08,0" style="fill:#de752c;fill-rule:evenodd"/></g><g style="mask:url(#b)"><path d="M40,0A40,40,0,1,0,80,40,40,40,0,0,0,40,0Zm0,8.1A31.9,31.9,0,1,1,8.1,40,31.9,31.9,0,0,1,40,8.1Z" style="fill:#517a9e;fill-rule:evenodd"/></g></svg>