<svg xmlns="http://www.w3.org/2000/svg" fill="none" viewBox="0 0 80 80">
  <path fill="#B3E9E7" fill-rule="evenodd" d="M38.2 20a14.3 14.3 0 0 0-12.4 11.6c-.1.2-.1.3-.5.2l-3 .3a11 11 0 0 0-7.2 6h-.7a9.4 9.4 0 0 0-6.6 0A11.2 11.2 0 0 0 5 58.3a11 11 0 0 0 4 1.6c1.5.3 60.4.3 61.7 0a9.9 9.9 0 0 0 6-3.2c2-1.8 2.8-4 3.1-7A11.3 11.3 0 0 0 72 38c-1.7-.5-3.4-.6-5.2-.2h-.4l-.2-1A11.6 11.6 0 0 0 51.7 27a23.8 23.8 0 0 0-4.2-4.4c-2.7-2-6.3-2.9-9.4-2.5V20Z" clip-rule="evenodd"/>
  <path fill="#13A19C" fill-rule="evenodd" d="M48.6 36.2a10 10 0 0 0-5 2.6c-1 1-1.3 1.6-1.8 2.6a8 8 0 0 0-1 3.9 9 9 0 0 0 2.3 6.2c.4.4.5.6.4.6a19 19 0 0 0-6.4 3.2c-.2.2-.2.2-1-.2l-3-1.2.5-.7c.5-.7 1-1.8 1.4-2.7a8.4 8.4 0 0 0-2.5-8.3 7.7 7.7 0 0 0-8.7-1c-1 .4-1.2.6-2 1.5-1 1-1.8 2.2-2.2 3.5-.4 1.2-.4 3 0 4.1.3 1 1 2.4 1.6 3l.4.6-1 .4c-2 .6-3.7 1.6-5 2.9-.6.6-1 1-1.3 1.7a6 6 0 0 0-.4 1c0 .2 26 0 26 0s26 .2 26 0a7 7 0 0 0-.5-2c-1.2-2.3-4-4.4-7.5-5.5l-1-.3.5-.8a9 9 0 0 0 2-6c0-2.5-1-5-3-6.7-2-2-5-3-8-2.4h.2Z" clip-rule="evenodd"/>
</svg>
