<svg xmlns="http://www.w3.org/2000/svg" viewBox="0 0 80 80"><title>logos</title><polygon points="0 66.73 17.36 66.73 18.61 51.85 2.48 48.13 0 66.73" style="fill:#4d4d4d;fill-rule:evenodd"/><polygon points="3.1 45.65 18.61 49.37 22.33 36.34 9.3 29.52 3.1 45.65" style="fill:#4d4d4d;fill-rule:evenodd"/><polygon points="10.54 27.04 22.95 33.86 32.87 27.04 23.57 16.5 10.54 27.04" style="fill:#4d4d4d;fill-rule:evenodd"/><polygon points="80 66.73 62.64 66.73 61.4 51.85 77.52 48.13 80 66.73" style="fill:#4d4d4d;fill-rule:evenodd"/><polygon points="76.9 45.65 61.4 49.37 57.67 36.34 70.7 29.52 76.9 45.65" style="fill:#4d4d4d;fill-rule:evenodd"/><polygon points="69.46 27.04 57.05 33.86 47.13 27.04 56.44 16.5 69.46 27.04" style="fill:#4d4d4d;fill-rule:evenodd"/><polygon points="26.67 14.64 35.97 25.8 44.65 25.8 52.71 14.64 44.65 12.16 35.75 12.16 26.67 14.64" style="fill:#4d4d4d;fill-rule:evenodd"/><polygon points="0 66.73 17.36 66.73 18.61 51.85 2.48 48.13 0 66.73" style="fill:#9c0000;fill-rule:evenodd"/><polygon points="3.1 45.65 18.61 49.37 22.33 36.34 9.3 29.52 3.1 45.65" style="fill:#b50808;fill-rule:evenodd"/><polygon points="10.54 27.04 22.95 33.86 32.87 27.04 23.57 16.5 10.54 27.04" style="fill:#c61818;fill-rule:evenodd"/><polygon points="80 66.73 62.64 66.73 61.4 51.85 77.52 48.13 80 66.73" style="fill:#9c0000;fill-rule:evenodd"/><polygon points="76.9 45.65 61.4 49.37 57.67 36.34 70.7 29.52 76.9 45.65" style="fill:#b50808;fill-rule:evenodd"/><polygon points="69.46 27.04 57.05 33.86 47.13 27.04 56.44 16.5 69.46 27.04" style="fill:#c61818;fill-rule:evenodd"/><polygon points="26.67 14.64 35.97 25.8 44.65 25.8 52.71 14.64 44.65 12.16 35.75 12.16 26.67 14.64" style="fill:#ce3129;fill-rule:evenodd"/></svg>