<svg xmlns="http://www.w3.org/2000/svg" viewBox="0 0 80 80"><defs><style>.c,.d{fill:#5f5bbc}.c{fill-rule:evenodd}</style></defs><text transform="translate(26.51 54.71)" style="isolation:isolate" fill="#5f5bbc" font-size="41.67" font-family="Helvetica">Z</text><path class="c" d="M49.84 72.22H6.14V6.41h8A8.59 8.59 0 0114 4.79a8.49 8.49 0 01.25-2H5.32a3.08 3.08 0 00-3 3.09v66.89a3.08 3.08 0 003 3.09h45a8.31 8.31 0 01-.5-2.84 7.16 7.16 0 01.02-.8zM74.72 2.76h-45a8.24 8.24 0 01.09 3.63H74V72.2h-8.74v.8a8.31 8.31 0 01-.5 2.84h9.92a3.05 3.05 0 003-3.09V5.85a3.05 3.05 0 00-2.96-3.09z"/><ellipse class="d" cx="21.48" cy="5.52" rx="5.49" ry="5.52"/><ellipse class="d" cx="57.15" cy="74.48" rx="5.49" ry="5.52"/></svg>
