<svg xmlns="http://www.w3.org/2000/svg" viewBox="0 0 80 80"><path d="M6.8 80c0-.5 16.7-20.8 17-20.7l16.6 7c15.2 6.5 16.3 6.9 16.7 6.3a65 65 0 0 0 3.9-8l1-2.5-1.6-.9a34 34 0 0 1-7.8-6.4c-2-2.2-5.4-7.5-5.4-8.3 0-.2 1.1.9 2.5 2.5 3.7 4.5 12.4 11.6 13 10.6.6-1.2 1-4.7 1-8.8a43.5 43.5 0 0 0-2.4-14.2l-1-3-4.7-1.5-5.9-1.9c-2-.6-.7-.6 2.3.1 3.6.8 7.2 1.5 9.5 1.8 2 .2 2.4-.2 2.6-2.4a41 41 0 0 0-3.4-14.5 4 4 0 0 0-2.5-2.6A77.8 77.8 0 0 0 31.5 9c-2.8.3-5.7 1-6.6 1.6-.2.1 1.6.6 4.7 1.2 2.8.5 4.8 1 4.5 1l-9.7-1.1c-8.3-1-9.2-1.2-9.8-.7a11.7 11.7 0 0 0-3.6 6c-.4 1.9-.5 2 .4 3.8 1.4 2.8 4 5 10 8a38.3 38.3 0 0 1 5 2.7 43.8 43.8 0 0 1-5.3-2l-5.2-2.1-7.7 2A190 190 0 0 1 0 31.7V5a5 5 0 0 1 5-5h70a5 5 0 0 1 5 5v70a5 5 0 0 1-5 5z"/></svg>
