<svg viewBox="0 0 80 80" xmlns="http://www.w3.org/2000/svg"><rect width="100%" height="100%" fill="black"/><path d="M40 33.6638C49.6559 40.9963 66.015 59.0087 61.0673 64.1096C55.4015 69.0511 48.0598 72 40 72C31.9401 72 24.5187 69.0511 18.9327 64.1096C13.9052 59.0087 30.3441 40.9963 39.9202 33.7435C39.9202 33.6638 40 33.6638 40 33.6638ZM56.6783 12.7024C51.8105 9.75342 46.4638 8 40 8C33.5362 8 28.1895 9.75342 23.3217 12.7024C23.2419 12.7024 23.2419 12.7821 23.2419 12.8618C23.2419 12.9415 23.3217 12.9415 23.4015 12.9415C29.6259 11.5866 39.0424 16.9265 39.9202 17.4844H40.0798C40.9576 16.9265 50.3741 11.5866 56.5985 12.9415C56.6783 12.9415 56.7581 12.9415 56.7581 12.8618C56.7581 12.7821 56.7581 12.7024 56.6783 12.7024ZM17.5761 17.1656C17.4963 17.1656 17.4963 17.2453 17.4165 17.2453C11.591 23.0635 8 31.1133 8 39.9601C8 47.2129 10.4738 53.9875 14.5436 59.3275C14.5436 59.4072 14.6234 59.4072 14.7032 59.4072C14.783 59.4072 14.783 59.3275 14.7032 59.2478C12.2294 51.6762 24.7581 33.4247 31.2219 25.7733L31.3017 25.6936C31.3017 25.6139 31.3017 25.6139 31.2219 25.6139C21.4065 15.8904 18.1347 16.9265 17.5761 17.1656ZM48.7781 25.5342L48.6983 25.6139C48.6983 25.6139 48.6982 25.6936 48.7781 25.6936C55.2419 33.345 67.6908 51.5965 65.2968 59.1681V59.3275C65.3766 59.3275 65.4564 59.3275 65.4564 59.2478C69.5262 53.9078 72 47.1333 72 39.8804C72 31.0336 68.409 22.9838 62.5037 17.1656C62.4239 17.0859 62.4239 17.0859 62.3441 17.0859C61.8653 16.9265 58.5935 15.8904 48.7781 25.5342Z" fill="white"/></svg>
