<svg xmlns="http://www.w3.org/2000/svg" fill="none" viewBox="0 0 80 80">
    <path fill="currentColor" d="M72 0H8a8 8 0 0 0-8 8v64a8 8 0 0 0 8 8h64a8 8 0 0 0 8-8V8a8 8 0 0 0-8-8Z"/>
    <path fill="#fff" d="m16.8 40 9 6.1.8.7a1.4 1.4 0 0 1 .5 1v3.4a.8.8 0 0 1-.9.9h-.1l-.3-.1-14-9.5-.9-.7c-.2-.3-.3-.6-.3-1v-1.6c0-.4 0-.7.3-1l1-.7 14-9.4.2-.1h.1a.8.8 0 0 1 .9.8v3.4a1.4 1.4 0 0 1-.5 1l-.8.7-9 6.1ZM44 23.8c.1-.3.3-.6.6-.8a1.6 1.6 0 0 1 1.2-.4h3a.9.9 0 0 1 .8.9v.3L36 56.3c-.1.3-.3.6-.6.8a1.6 1.6 0 0 1-1.2.4h-2.8a.8.8 0 0 1-.7-.3.9.9 0 0 1-.2-.6v-.3L44 23.8ZM54.2 34l-.9-.7a1.4 1.4 0 0 1-.4-1v-3.4a.8.8 0 0 1 .8-.9h.2l.3.1 14 9.5.8.7c.2.3.3.6.3 1V41c0 .4 0 .7-.3 1l-.8.7-14 9.3-.3.1h-.2a.8.8 0 0 1-.8-.8v-3.4a1.4 1.4 0 0 1 .4-1l.9-.8 9-6-9-6.1Z"/>
</svg>
