<svg xmlns="http://www.w3.org/2000/svg" viewBox="0 0 80 80"><path d="M79 71.91a7.32 7.32 0 000-7.38L46.4 8A7.22 7.22 0 0040 4.37 7.33 7.33 0 0033.62 8L23.06 26.33l2.66 1.54A51.42 51.42 0 0144.6 46.75a50.41 50.41 0 016.81 22.72H44a44.34 44.34 0 00-5.84-19A43.76 43.76 0 0022.07 34.2l-2.66-1.54-9.83 17.13 2.65 1.54A24.9 24.9 0 0124.3 69.47H7.39a1.2 1.2 0 01-1.06-.59 1.21 1.21 0 010-1.23l4.73-8.14a17.67 17.67 0 00-5.38-3.08L1 64.57A7.34 7.34 0 001 72a7.25 7.25 0 006.39 3.67h23.24v-3.12a31.32 31.32 0 00-4.09-15.38 31.26 31.26 0 00-8.67-9.57l3.71-6.39a38 38 0 0111.33 12.28 38.1 38.1 0 015.1 19v3.08h19.68v-3.02a57.52 57.52 0 00-7.76-28.88A57.48 57.48 0 0031.47 24.1l7.51-13a1.18 1.18 0 011.02-.57 1.16 1.16 0 011.05.59L73.7 67.61a1.2 1.2 0 010 1.22 1.13 1.13 0 01-1.06.59H65c.1 2.07.1 4.09 0 6.16h7.65A7.1 7.1 0 0079 71.91z"/></svg>