<svg viewBox="0 0 80 80" xmlns="http://www.w3.org/2000/svg">
<rect width="100%" height="100%" fill="white"/>
<path d="M9.30565 49.202C13.2622 62.386 25.4991 72 39.9794 72C57.6637 72 71.9999 57.673 71.9999 40C71.9999 22.327 57.6637 8 39.9794 8C23.0105 8 9.12454 21.193 8.02783 37.874C10.1032 41.351 10.9087 43.502 9.30365 49.202H9.30565Z" fill="url(#paint0_linear_2427_555)"/>
<path d="M38.3294 31.985L38.3324 32.143L30.4973 43.518C29.2285 43.46 27.9557 43.683 26.7469 44.18C26.2207 44.3937 25.7183 44.6619 25.248 44.98L8.0419 37.893C8.0419 37.893 7.64365 44.439 9.30271 49.317L21.4665 54.333C22.0669 57.061 23.9481 59.453 26.7119 60.603C28.8862 61.5059 31.3303 61.5094 33.5072 60.6128C35.6841 59.7162 37.416 57.9928 38.3224 55.821C38.8059 54.6642 39.0392 53.4183 39.0068 52.165L50.207 44.16L50.4822 44.165C57.1915 44.165 62.645 38.699 62.645 31.985C62.645 25.271 57.2015 19.825 50.4822 19.811C43.7759 19.811 38.3194 25.271 38.3194 31.985H38.3294ZM36.4482 55.035C34.9932 58.535 30.9786 60.182 27.4894 58.729C25.941 58.0787 24.686 56.8821 23.9631 55.367L27.9227 57.007C28.5343 57.2615 29.1902 57.393 29.8527 57.394C30.5153 57.3951 31.1716 57.2657 31.784 57.0132C32.3965 56.7607 32.9532 56.39 33.4223 55.9224C33.8914 55.4548 34.2637 54.8995 34.5179 54.288C35.0327 53.0526 35.0358 51.6634 34.5264 50.4257C34.017 49.188 33.0368 48.203 31.8012 47.687L27.6985 45.992C29.2775 45.392 31.0727 45.372 32.7518 46.069C34.4529 46.772 35.7537 48.096 36.4502 49.789C37.1466 51.482 37.1426 53.349 36.4402 55.035M50.4932 40.1C48.3433 40.0942 46.2833 39.2371 44.7645 37.7165C43.2457 36.1958 42.3918 34.1356 42.39 31.987C42.3923 29.8388 43.2464 27.7791 44.7652 26.2589C46.2839 24.7387 48.3436 23.8819 50.4932 23.876C52.6431 23.8813 54.7033 24.7379 56.2225 26.2582C57.7417 27.7785 58.596 29.8385 58.5984 31.987C58.5965 34.1359 57.7424 36.1965 56.2232 37.7172C54.7039 39.2379 52.6434 40.0947 50.4932 40.1ZM44.4213 31.974C44.4199 30.3597 45.06 28.8109 46.2008 27.6681C47.3416 26.5252 48.8898 25.8817 50.5052 25.879C53.8623 25.879 56.5931 28.609 56.5931 31.974C56.5939 33.5887 55.953 35.1376 54.8114 36.2801C53.6698 37.4227 52.1209 38.0654 50.5052 38.067C48.89 38.0647 47.3419 37.4216 46.2009 36.2791C45.0599 35.1366 44.4205 33.5882 44.4213 31.974Z" fill="white"/>
<linearGradient id="paint0_linear_2427_555" x1="3206.63" y1="8" x2="3206.63" y2="6408" gradientUnits="userSpaceOnUse">
<stop stop-color="#111D2E"/>
<stop offset="0.212" stop-color="#051839"/>
<stop offset="0.407" stop-color="#0A1B48"/>
<stop offset="0.581" stop-color="#132E62"/>
<stop offset="0.738" stop-color="#144B7E"/>
<stop offset="0.873" stop-color="#136497"/>
<stop offset="1" stop-color="#1387B8"/>
</linearGradient>
</svg>
