<svg xmlns="http://www.w3.org/2000/svg" viewBox="0 0 80 80"><title>logos</title><path d="M79,71.91a7.32,7.32,0,0,0,0-7.38L46.4,8A7.22,7.22,0,0,0,40,4.37,7.33,7.33,0,0,0,33.62,8L23.06,26.33l2.66,1.54A51.42,51.42,0,0,1,44.6,46.75a50.41,50.41,0,0,1,6.81,22.72H44a44.34,44.34,0,0,0-5.84-19A43.76,43.76,0,0,0,22.07,34.2l-2.66-1.54L9.58,49.79l2.65,1.54A24.9,24.9,0,0,1,24.3,69.47H7.39a1.2,1.2,0,0,1-1.06-.59,1.21,1.21,0,0,1,0-1.23l4.73-8.14a17.67,17.67,0,0,0-5.38-3.08L1,64.57A7.34,7.34,0,0,0,1,72a7.25,7.25,0,0,0,6.39,3.67H30.63V72.55a31.32,31.32,0,0,0-4.09-15.38,31.26,31.26,0,0,0-8.67-9.57l3.71-6.39A38,38,0,0,1,32.91,53.49a38.1,38.1,0,0,1,5.1,19v3.08H57.69V72.55a57.52,57.52,0,0,0-7.76-28.88A57.48,57.48,0,0,0,31.47,24.1l7.51-13A1.18,1.18,0,0,1,40,10.53a1.16,1.16,0,0,1,1.05.59L73.7,67.61a1.2,1.2,0,0,1,0,1.22,1.13,1.13,0,0,1-1.06.59H65c.1,2.07.1,4.09,0,6.16h7.65A7.1,7.1,0,0,0,79,71.91Z"/></svg>