<svg xmlns="http://www.w3.org/2000/svg" viewBox="0 0 80 80"><defs><linearGradient id="b" x1="52.12" y1="-20.93" x2="52.33" y2="-20.93" gradientTransform="scale(-115.3 115.3) rotate(63.888 8.938 -52.387)" gradientUnits="userSpaceOnUse"><stop offset=".3" stop-color="#3e863d"/><stop offset=".5" stop-color="#55934f"/><stop offset=".8" stop-color="#5aad45"/></linearGradient><linearGradient id="d" x1="49.97" y1="-18.11" x2="50.11" y2="-18.11" gradientTransform="scale(177.06 -177.06) rotate(36.459 -2.07 -84.87)" gradientUnits="userSpaceOnUse"><stop offset=".57" stop-color="#3e863d"/><stop offset=".72" stop-color="#619857"/><stop offset="1" stop-color="#76ac64"/></linearGradient><linearGradient id="f" x1="49.6" y1="-18.86" x2="49.72" y2="-18.86" gradientTransform="matrix(129.89 0 0 -129.89 -6420.6 -2412.71)" gradientUnits="userSpaceOnUse"><stop offset=".16" stop-color="#6bbf47"/><stop offset=".38" stop-color="#79b461"/><stop offset=".47" stop-color="#75ac64"/><stop offset=".7" stop-color="#659e5a"/><stop offset=".9" stop-color="#3e863d"/></linearGradient><clipPath id="a"><path class="a" d="M29.07 27.61L21.45 32a.91.91 0 00-.46.8v8.8a.92.92 0 00.46.8l7.62 4.4a.94.94 0 00.92 0l7.62-4.4a.93.93 0 00.45-.8v-8.8a.91.91 0 00-.46-.8L30 27.61a1 1 0 00-.93 0"/></clipPath><clipPath id="c"><path class="a" d="M21.18 42.17a1.05 1.05 0 00.27.24L28 46.18l1.09.63a1 1 0 00.53.12h.18l8-14.71a.92.92 0 00-.2-.22l-5-2.88-2.6-1.51a1.17 1.17 0 00-.24-.09z"/></clipPath><clipPath id="e"><path class="a" d="M29.43 27.49a1.18 1.18 0 00-.36.12L21.47 32l8.19 14.92a1.17 1.17 0 00.33-.11l7.62-4.4a1 1 0 00.44-.63L29.7 27.51h-.26"/></clipPath><style>.a{fill:none}.b{fill:#689f63}</style></defs><path class="b" d="M39.54 65.29a1.57 1.57 0 01-.76-.2l-2.41-1.43c-.36-.2-.18-.27-.06-.31a5.19 5.19 0 001.09-.5.19.19 0 01.18 0L39.43 64a.22.22 0 00.22 0l7.23-4.17a.25.25 0 00.12-.23v-8.34a.24.24 0 00-.11-.2l-7.23-4.17a.22.22 0 00-.22 0l-7.22 4.17a.23.23 0 00-.11.2v8.33a.23.23 0 00.11.2l2 1.14c1.07.54 1.73-.1 1.73-.73V52a.21.21 0 01.21-.21H37a.21.21 0 01.21.21v8.2a2 2 0 01-2.14 2.26 3 3 0 01-1.62-.46l-1.9-1.09a1.53 1.53 0 01-.76-1.32v-8.33a1.52 1.52 0 01.76-1.32l7.23-4.17a1.58 1.58 0 011.52 0l7.22 4.17a1.53 1.53 0 01.76 1.32v8.34a1.51 1.51 0 01-.76 1.31l-7.22 4.17a1.45 1.45 0 01-.76.21"/><path class="b" d="M41.77 59.55c-3.16 0-3.82-1.46-3.82-2.67a.21.21 0 01.21-.21h.93a.21.21 0 01.21.18c.14.95.56 1.43 2.47 1.43 1.52 0 2.17-.35 2.17-1.15 0-.47-.18-.82-2.55-1.05-2-.19-3.2-.63-3.2-2.21s1.23-2.33 3.29-2.33c2.31 0 3.46.81 3.6 2.53a.18.18 0 010 .16.24.24 0 01-.16.07h-.94a.21.21 0 01-.2-.16c-.22-1-.77-1.32-2.26-1.32-1.66 0-1.85.58-1.85 1s.23.68 2.47 1 3.27.71 3.27 2.27-1.31 2.47-3.6 2.47m8.8-8.84h.24a.21.21 0 00.24-.22c0-.21-.15-.21-.23-.21h-.25zm-.34-.72h.53c.19 0 .55 0 .55.41a.35.35 0 01-.29.38c.21 0 .23.16.25.36a1.47 1.47 0 00.09.41h-.34c0-.07-.05-.47-.05-.49S51 51 50.84 51h-.27v.62h-.3zm-.65.78A1.17 1.17 0 0050.79 52a1.17 1.17 0 100-2.34 1.16 1.16 0 00-1.16 1.16m2.56 0a1.39 1.39 0 11-1.39-1.39 1.39 1.39 0 011.39 1.39"/><path d="M17.17 32.67a.93.93 0 00-.46-.8l-7.66-4.41a.81.81 0 00-.42-.12h-.08a.82.82 0 00-.43.12L.46 31.87a.93.93 0 00-.46.8v11.87a.44.44 0 00.23.4.43.43 0 00.46 0l4.55-2.61a.92.92 0 00.46-.8V36a.94.94 0 01.46-.8l1.94-1.11a.9.9 0 01.47-.13.87.87 0 01.46.13L11 35.18a.93.93 0 01.47.8v5.55a.92.92 0 00.46.8l4.55 2.61a.46.46 0 00.69-.4zm36.14 6.18a.23.23 0 01-.11.2l-2.63 1.52a.24.24 0 01-.23 0l-2.64-1.52a.23.23 0 01-.11-.2v-3a.23.23 0 01.11-.2l2.63-1.52a.25.25 0 01.24 0l2.63 1.52a.23.23 0 01.11.2zm.69-22.5a.46.46 0 00-.68.41v11.75a.33.33 0 01-.17.28.31.31 0 01-.32 0l-1.92-1.1a.89.89 0 00-.92 0l-7.66 4.42a.92.92 0 00-.47.8v8.85a.93.93 0 00.47.8L50 47a.89.89 0 00.92 0l7.67-4.43a.93.93 0 00.46-.8v-22a.91.91 0 00-.48-.81zm25.54 19.38a.93.93 0 00.46-.8v-2.14a.93.93 0 00-.46-.8l-7.61-4.42a.91.91 0 00-.93 0L63.34 32a.93.93 0 00-.47.8v8.84a.93.93 0 00.47.81L71 46.78a.92.92 0 00.91 0l4.61-2.56a.46.46 0 00.23-.4.47.47 0 00-.23-.4L68.76 39a.48.48 0 01-.23-.4v-2.78a.45.45 0 01.23-.4l2.4-1.42a.43.43 0 01.46 0L74 35.42a.47.47 0 01.23.4V38a.46.46 0 00.23.4.43.43 0 00.46 0z" fill-rule="evenodd" fill="#333"/><path d="M71.35 35.32a.19.19 0 01.18 0l1.47.85a.19.19 0 01.09.15V38a.19.19 0 01-.09.15l-1.47.85a.19.19 0 01-.18 0l-1.47-.85a.16.16 0 01-.09-.15v-1.7a.16.16 0 01.09-.15z" fill-rule="evenodd" fill="#689f63"/><g clip-path="url(#a)"><path d="M45.76 31.26L24.29 20.74l-11 22.46 21.47 10.52z" fill="url(#b)"/></g><g clip-path="url(#c)"><path d="M11.89 34.38l15.16 20.51L47.1 40.08 31.94 19.56z" fill="url(#d)"/></g><g clip-path="url(#e)"><path d="M21.47 27.49v19.43h16.58V27.49z" fill="url(#f)"/></g></svg>