<svg xmlns="http://www.w3.org/2000/svg" fill="none" viewBox="0 0 80 80">
  <path fill="#DE752C" d="M37.6 45.2c1.2.6 2.5.7 3.8.4l8.1 14h.1l-9.2 5.2-7-12.2 4.2-7.4Zm-3.4-4.7c.2 1.3.8 2.6 1.7 3.5l-8 14-9.1-5.3 7-12.3h8.4Zm27.4 1V52h-14l-4.2-7.3c.6-.4 1.1-1 1.5-1.5V43l.5-1.4h16.2Zm-.5-14.2-7 12.2h-8.4a5.8 5.8 0 0 0-1.6-3.4V36l8-14 9 5.3Zm-28.6.7 4.3 7.2c-.7.5-1.3 1.1-1.8 1.8a6 6 0 0 0-.4 1.5H18.4V27.9h14.1Zm14.2-.5-4.3 7.3a5.8 5.8 0 0 0-3.8-.4l-8.1-13.8h-.1l9.2-5.4 7 12.3Z"/>
  <path fill="#517A9E" fill-rule="evenodd" d="M40 4a36 36 0 1 0 0 72 36 36 0 0 0 0-72Zm0 7.3a28.7 28.7 0 1 1 0 57.4 28.7 28.7 0 0 1 0-57.4Z" clip-rule="evenodd"/>
</svg>
