<svg xmlns="http://www.w3.org/2000/svg" viewBox="0 0 80 80"><defs><mask id="a" x=".1" y="0" width="80" height="80" maskUnits="userSpaceOnUse"><path fill="#fff" fill-rule="evenodd" d="M0 80h80V0H0v80z"/></mask><mask id="b" x="0" y="0" width="80" height="80" maskUnits="userSpaceOnUse"><path fill="#fff" fill-rule="evenodd" d="M0 80h80V0H0v80z"/></mask></defs><path d="m29.4 18.3 9 15.5a6.4 6.4 0 0 1 4.3.4l4.7-8.1-7.8-13.6-10.3 5.9h.1M16 38.3h18a6.6 6.6 0 0 1 .5-1.6 6.4 6.4 0 0 1 2-2l-4.8-8.1H16v11.7m29.6 4.8a6.2 6.2 0 0 1-1.8 2l4.7 8.1H64V41.7H46a6 6 0 0 1-.6 1.5m-1-7.7a6.4 6.4 0 0 1 1.9 4h9.4l7.8-13.6L53.5 20l-9 15.5M26.5 60l9-15.5a6.4 6.4 0 0 1-1.9-4h-9.4l-7.8 13.6 10.2 6V60" fill="#de752c" fill-rule="evenodd"/><g mask="url(#a)"><path d="m50.6 61.7-9-15.5a6.3 6.3 0 0 1-4.3-.4L32.6 54l7.8 13.6 10.3-5.9h-.1" fill="#de752c" fill-rule="evenodd"/></g><g mask="url(#b)"><path d="M40 0a40 40 0 1 0 40 40A40 40 0 0 0 40 0zm0 8.1A31.9 31.9 0 1 1 8.1 40 31.9 31.9 0 0 1 40 8.1z" fill="#517a9e" fill-rule="evenodd"/></g></svg>
