<svg xmlns="http://www.w3.org/2000/svg" viewBox="0 0 80 80"><path d="M40 80C17.7 79.72 0 62.37 0 40A39.67 39.67 0 0140 0a39.67 39.67 0 0140 40c0 22.31-17.62 39.68-40 40zm6.59-40.78a7.53 7.53 0 002.49 4.12c2.35 2.17 5.34 3 8.32 3.88 2.3.66 4.6 1.32 6.87 2.07a4.75 4.75 0 013.12 3.34 13.7 13.7 0 01.45 6.07c-.17 1.2-.3 2.39-.47 3.7.25-.12.39-.15.44-.23a19.79 19.79 0 003.35-7.58c.67-3.94-.89-6.56-4.73-7.74a49.88 49.88 0 00-6.22-1.21 25.33 25.33 0 01-11.43-4.49c-.66-.48-1.27-1.1-2.16-1.89zm-13.4.19c-.75.65-1.45 1.37-2.25 1.95a26.29 26.29 0 01-12.84 4.5 15.14 15.14 0 00-6.5 1.89 5.65 5.65 0 00-2.87 5.09c0 3 1.31 5.59 2.71 8.14.26.48.6.93.91 1.39a1.22 1.22 0 00.23-.83c-.12-2.33-.43-4.68-.33-7a5.49 5.49 0 014.13-5.52c2.08-.61 4.15-1.22 6.23-1.8 2.79-.78 5.56-1.62 7.88-3.48a7 7 0 002.73-4.29zm22 20.5l.2-.46c-1.67-.91-3.31-1.9-5-2.71a19.42 19.42 0 00-9.26-2.2 35 35 0 00-13.83 3.9c-1 .51-2 1.1-3 1.65l.11.37C34.59 57 44.83 55 55.18 60zM36.12 8.59l-.2-.39c-1.4.66-2.87 1.21-4.19 2a9.67 9.67 0 00-5.06 9.12c.14 4.07 1.8 7.61 4 11 .09.13.28.2.66.45-.18-.6-.28-1-.39-1.31-1.15-3.69-2.11-7.4-1.49-11.34a11.85 11.85 0 015.45-8.76zm11.74 23.66c3.56-1.13 7.47-10.09 5.84-13.37a21.84 21.84 0 01-4.37 10 8.61 8.61 0 00-2.48-6.19A9.59 9.59 0 0041 20.06c5.11 2.46 6.72 6.94 6.86 12.19zM40.7 64.78l-.3-.35a40.83 40.83 0 01-15.92 7.43c1.9.94 3.56 2.24 5.92 1.28a21 21 0 008.13-5.58c.78-.88 1.47-1.85 2.17-2.78zm16.11 7a43.75 43.75 0 01-15.58-7.22 2.19 2.19 0 00.35 1 20.6 20.6 0 008.7 7.21c2.46 1.23 4.44.39 6.53-.94zm-20.28-50.6c-2.59 1.42-4.53 6-4.25 8.52.38 3.62 4.26 8.46 7.4 9-5.18-5.07-6.8-10.7-3.15-17.52zM42 15.86a19.91 19.91 0 00-1.1-3 1.67 1.67 0 00-2.83-.26 5.45 5.45 0 00-.22 6.24c.8.95 2 1.1 2.66.11A18.38 18.38 0 0042 15.86zM18.27 59.09c4.09-4.91 9.56-5.05 15.27-4.56a.54.54 0 00-.28-.31c-3.47-1.1-7-1.71-10.57-.58a6.12 6.12 0 00-4.42 5.45zm24-50.77c4.75 1.92 9.16 4 11.58 8.82.93-4.72-6.41-10.34-11.59-8.82zm-1.45 2.59c-1.32-2-.37-3.47.33-5.06a2.7 2.7 0 00-.88-3.16 12.7 12.7 0 01-.44 1.89 13.16 13.16 0 01-1 1.71c-1.13 2.03-.57 3.71 1.98 4.62z" fill="#f99500"/></svg>