<svg xmlns="http://www.w3.org/2000/svg" viewBox="0 0 80 80"><path fill="#8892bf" d="M0 0h80v80H0z"/><path d="M13.73 29.41h9.49q4.19 0 6.06 2.39t1.24 6.45a12.38 12.38 0 0 1-1.1 3.67 10.74 10.74 0 0 1-2.27 3.24 7.92 7.92 0 0 1-3.79 2.33 17.46 17.46 0 0 1-4.18.49h-4.25l-1.34 6.7H8.66l5.07-25.27m4.14 4L15.75 44a3 3 0 0 0 .42 0h.5a18.55 18.55 0 0 0 5.67-.67c1.51-.49 2.52-2.21 3-5.14.43-2.47 0-3.89-1.27-4.27a16.34 16.34 0 0 0-4.71-.53 7.88 7.88 0 0 1-.82 0h-.74m18.33-10.71H41l-1.38 6.73H44a8.82 8.82 0 0 1 5.39 1.48c1.2.94 1.56 2.72 1.06 5.36L48.1 48h-5l2.27-11.21a3.17 3.17 0 0 0-.22-2.5 3 3 0 0 0-2.44-.74h-3.93L35.91 48H31l5.1-25.3m19.62 6.71h9.49q4.19 0 6.06 2.39t1.24 6.45a12.38 12.38 0 0 1-1.1 3.67 10.74 10.74 0 0 1-2.27 3.24 7.92 7.92 0 0 1-3.79 2.33 17.46 17.46 0 0 1-4.18.49h-4.25l-1.34 6.7h-4.93l5.07-25.27m4.14 4L57.74 44a3 3 0 0 0 .42 0h.5a18.55 18.55 0 0 0 5.67-.67c1.51-.49 2.52-2.21 3-5.14.43-2.47 0-3.89-1.27-4.27a16.25 16.25 0 0 0-4.71-.53 7.88 7.88 0 0 1-.82 0h-.74" style="fill:#fff"/></svg>