<svg xmlns="http://www.w3.org/2000/svg" viewBox="0 0 80 80"><defs><linearGradient id="a" x1="113.95" y1="71.47" x2="113.95" y2="21.4" gradientTransform="matrix(1.55 0 0 -1.55 -143.12 111.98)" gradientUnits="userSpaceOnUse"><stop offset="0" stop-color="#ff1b2d"/><stop offset=".3" stop-color="#ff1b2d"/><stop offset=".61" stop-color="#ff1b2d"/><stop offset="1" stop-color="#a70014"/></linearGradient><linearGradient id="b" x1="126.92" y1="68.52" x2="126.92" y2="24.24" gradientTransform="matrix(1.55 0 0 -1.55 -143.12 111.98)" gradientUnits="userSpaceOnUse"><stop offset="0" stop-color="#9c0000"/><stop offset=".7" stop-color="#ff4b4b"/><stop offset="1" stop-color="#ff4b4b"/></linearGradient></defs><path d="M40 0a40 40 0 00-1.9 80H40a39.92 39.92 0 0026.66-10.18 28.86 28.86 0 01-16 4.9c-9.53 0-18.05-4.73-23.79-12.18-4.43-5.22-7.29-12.94-7.48-21.6v-1.89c.19-8.65 3.05-16.37 7.47-21.59C32.57 10 41.1 5.29 50.63 5.29a28.86 28.86 0 0116 4.9A39.85 39.85 0 0040.14 0H40z" fill="url(#a)"/><path d="M26.83 17.46c3.68-4.33 8.42-6.94 13.6-6.94 11.64 0 21.08 13.22 21.08 29.48s-9.44 29.48-21.08 29.48c-5.18 0-9.92-2.61-13.59-6.94C32.58 70 41.1 74.72 50.63 74.72a28.86 28.86 0 0016-4.9 40 40 0 000-59.64 28.8 28.8 0 00-16-4.9c-9.53 0-18.05 4.72-23.79 12.18" fill="url(#b)"/></svg>