<svg xmlns="http://www.w3.org/2000/svg" viewBox="0 0 80 80"><title>logos</title><path d="M78.52,32.76C81,49.42,76.15,62.3,67.24,70.39L54.62,60.56a20.74,20.74,0,0,0,8.19-12.37H40.92V32.76Z" style="fill:#4286f5"/><path d="M67.68,10.33,56.18,21.69a22.05,22.05,0,0,0-15.33-6,24,24,0,0,0-22.7,16.58L5.08,22.09a40,40,0,0,1,62.6-11.76Z" style="fill:#ea4235"/><path d="M54.62,60.56l12.62,9.83C60.36,76.64,51.05,80,40.85,80A40,40,0,0,1,5.08,57.91L18.15,47.77a24,24,0,0,0,22.7,16.57C46.56,64.34,51.12,63,54.62,60.56Z" style="fill:#34a853"/><path d="M5.08,22.09,18.15,32.24a24.74,24.74,0,0,0,0,15.53L5.08,57.91a40,40,0,0,1,0-35.82Z" style="fill:#fbbc05"/></svg>