<svg xmlns="http://www.w3.org/2000/svg" viewBox="0 0 20 20">
  <rect width="100%" height="100%" fill="#fff"/>
  <path d="M10 1.75a8.25 8.25 0 1 1 0 16.5 8.25 8.25 0 0 1 0-16.5Z"/>
  <path fill="#fff" d="M5.4 4.8a.4.4 0 0 1 .77.2v.02l-.55 2.03a.4.4 0 0 1-.78-.2v-.01l.55-2.03V4.8ZM12.43 5.18a.4.4 0 0 1 .78.21v.01L12.77 7l-.03-.03c-.21-.16-.44-.3-.68-.42l.37-1.36v-.01ZM8.57 2.73c.26-.05.51-.09.77-.11a.4.4 0 0 1 0 .18l-.55 2.04a.4.4 0 0 1-.78-.2v-.01l.5-1.9h.06ZM14.27 4.42l.1-.4.06.03c.22.17.43.35.63.54l-.01.04a.4.4 0 0 1-.78-.2v-.01ZM11 3.4l.2-.72.05.01c.25.04.49.1.73.17l-.2.75v.01a.4.4 0 0 1-.78-.2V3.4ZM9.32 14.31a.4.4 0 0 1 .75-.07v.06l.03.1.01.06v.01a.4.4 0 0 1 0 .05l-.01.01-.55 2.03v.01a.4.4 0 0 1-.78-.2v-.02l.55-2.03ZM5.97 12a.4.4 0 0 1 .03-.05c.2.17.43.33.7.47l-.5 1.84v.01a.4.4 0 0 1-.78-.2v-.02l.55-2.03v-.01ZM4.2 9.89a.4.4 0 0 1 .78.2v.02l-.55 2.03a.4.4 0 0 1-.78-.2v-.01L4.2 9.9v-.01ZM16.48 9.42a.4.4 0 0 1 .78.21v.01l-.55 2.03v.01a.4.4 0 0 1-.78-.2v-.02l.55-2.03ZM2.64 9.14c.1-.95.4-1.87.86-2.7l.1.01a.4.4 0 0 1 .28.49l-.55 2.04a.4.4 0 0 1-.7.16ZM15.1 6.73a.4.4 0 0 1 .77.2v.02l-.55 2.03a.4.4 0 0 1-.78-.2v-.01l.55-2.03v-.01ZM7.08 15.3a.4.4 0 0 1 .78.2v.01l-.4 1.46-.05-.02a7.4 7.4 0 0 1-.7-.3l.37-1.35Z"/>
  <path fill="#fff" fill-rule="evenodd" d="M9.68 6.42c-2.4 0-4.27 1.51-4.27 3.39 0 1.77 1.72 2.9 4.38 2.85.23 0 .3.15.37.35.06.17.2.96.35 1.7l.08.41.02.1c.13.71.27 1.42.37 2.13a7.46 7.46 0 0 0 4.52-2.39l-1.25-4.68c-.32-1.13-.68-2.17-1.65-2.93a4.64 4.64 0 0 0-2.92-.93Zm.51 1.36a.52.52 0 1 1 0 1.03.52.52 0 0 1 0-1.03Z" clip-rule="evenodd"/>
</svg>
