<svg xmlns="http://www.w3.org/2000/svg" fill="none" viewBox="0 0 80 80">
  <path fill="#E60012" d="M0 0h80v80H0z"/>
  <path fill="#fff" d="M14.8 48.4c-5.4 0-9-3.8-9-8.4 0-4.6 3.7-8.4 9-8.4h50.4c5.3 0 9 3.8 9 8.4 0 4.6-3.6 8.4-9 8.4H14.8Zm0-14.7C10.6 33.7 8 36.5 8 40s2.6 6.4 6.8 6.3h50.4c4.2 0 6.8-2.8 6.8-6.3s-2.6-6.3-6.8-6.3H14.8Zm53.1 3c.4 0 .6 0 .6.3 0 .2-.1.3-.3.4l.3.6H68l-.2-.6h-.2v.6h-.3v-1.4h.5Zm0-.6a1.2 1.2 0 1 0 0 2.4 1.2 1.2 0 0 0 0-2.4Zm1 1.2a1 1 0 1 1-2 0 1 1 0 0 1 2 0Zm-1.2 0h.2c.1 0 .2-.1.2-.3 0-.1 0-.2-.3-.2h-.1v.4Zm-27.5 3.2.1-1c.2-.3.5-.5.9-.5.3 0 .6.2.8.5l.1 1h-2Zm2 1.6v.3c0 1-.7 1.2-1 1.2-.4 0-1-.2-1-1.2v-1h4.4c0-1.7-1.5-3-3.5-3s-3.5 1.3-3.5 3c0 1.5 1.6 2.9 3.5 2.9 1.6 0 3-1 3.4-2.2h-2.4Zm7.4-3.7c1 0 2.7.6 2.7 2.7v2.8H50v-3.4c0-.5-.4-1-1-1-.7 0-1.2.5-1.2 1v3.4h-2.3v-5.2h2.3v.5c.5-.4 1.1-.7 2-.8Zm-19.3 0c.9 0 2.7.6 2.7 2.7v2.8h-2.4v-3.4c0-.5-.4-1-1-1-.7 0-1.2.5-1.2 1v3.4H26v-5.2h2.4v.5a3 3 0 0 1 1.9-.8ZM57.4 36h2.4v8h-2.4v-.4c-.9.6-1.9.6-2.7.2-.2 0-1.6-.7-1.6-2.6 0-1.4 1.3-2.9 3-2.7.6 0 1 .2 1.3.4V36Zm0 5.3v-1c0-.8-.5-1-.9-1s-1 .2-1 1l.1 1v1c0 .7.5 1 1 1 .3 0 .9-.3.9-1v-1Zm7.6 0v1c0 1-.5 1.3-1 1.3-.4 0-1-.4-1-1.2v-2.2c0-.9.6-1.2 1-1.2.5 0 1 .3 1 1.2v1Zm-1-3c-1.9 0-3.4 1.3-3.4 3 0 1.6 1.5 3 3.4 3 2 0 3.5-1.4 3.5-3 0-1.7-1.5-3-3.5-3Zm-41.7-.7V36h2.4v1.6h-2.4Zm0 6.3v-5.2h2.4v5.2h-2.4Zm12 0v-5.2H33v-.8h1.3v-1h2.4v1h1.2v.8h-1.2v5.2h-2.4Zm-21.7 0V36h2.5l3.4 5.5V36H21v8h-2.5l-3.4-5.6V44h-2.5Z"/>
</svg>
