<svg xmlns="http://www.w3.org/2000/svg" viewBox="0 0 129.87 131.19"><title>InsightFinder_Icon</title><g id="Layer_2" data-name="Layer 2"><g id="Brand_Guidelines" data-name="Brand Guidelines"><path d="M101.53,50.67c-.27.16-.67.36-1,.5-.54.24-1.07.5-1.61.75l-.67.32a24.72,24.72,0,0,1-4.88,1.68,51.45,51.45,0,0,1-14.51,1.32l-2.51-.12-3.5-3.82a2.22,2.22,0,0,0-1.06-.68A2.8,2.8,0,0,0,68.29,52l-3.47,7.36-.15-.79c-.81-4.19-1.57-8.14-2.28-12.12L61.8,43.4c-1.16-5.89-2.35-12-3.7-17.94a4,4,0,0,0-3.24-3.19,4.19,4.19,0,0,0-4.81,3.18L47.11,39.23c-.9,4.51-1.81,9.14-2.71,13.77-.47,2.35-.89,4.78-1.29,7.14-.17,1-.35,2-.54,3.1L38.23,46l-.15-.36A2.76,2.76,0,0,0,36.66,44a2.54,2.54,0,0,0-1.91-.37,3.43,3.43,0,0,0-2.23,1.64l-5.07,9.51-12.65,1A1.86,1.86,0,0,0,13,57.57a1.91,1.91,0,0,0,1.71,2h0L29,60.72a2.92,2.92,0,0,0,2.55-1.3l.14-.22v-.26l2.13-3.68,5.94,27a3.81,3.81,0,0,0,3,3,4.06,4.06,0,0,0,2.8-.58,3.34,3.34,0,0,0,1.57-2.34l.34-1.37c1-4.25,2-8.26,2.82-12.4,1.13-4.52,2-9.22,2.95-13.81.53-2.68,1.07-5.42,1.61-8.2.16.61.32,1.21.5,1.82C57,54.66,58.92,61.85,60.65,69A2.54,2.54,0,0,0,62.33,71a3,3,0,0,0,2.28,0,2.87,2.87,0,0,0,1.57-1.62l5.09-11.59,1.5,1.71a2.51,2.51,0,0,0,2.08,1q1.8,0,3.6,0c1.23,0,2.46,0,3.69-.11s2.55-.14,3.73-.25,2.55-.27,3.73-.45,2.51-.44,3.67-.71,2.46-.64,3.58-1a26.83,26.83,0,0,0,3.93-1.66l1.91-1,.75-.38q.56-.27,1.11-.57l.58-.33a14,14,0,0,0,1.59-1l.48-.33V52.3" fill="#ff5142"/><path d="M14.64,17.3A54.35,54.35,0,1,0,54.38,0,54.16,54.16,0,0,0,14.64,17.3ZM84.53,95.14c9.59,9.84,19,19.84,28.85,29.45,2.33,2.28,4.79,4.6,7.71,5.84s6.46,1.06,8-1.19c1.13-1.65,1-4.08,0-6.2-1.44-3.36-4.21-5.83-6.88-8.37-3.18-3-6.51-5.94-9.87-8.79C105.14,99.73,98,93.43,90.9,87.18M6.2,54.38a48.18,48.18,0,1,1,48.18,48.18A48.24,48.24,0,0,1,6.2,54.38Z" fill="#021923"/></g></g></svg>