<svg xmlns="http://www.w3.org/2000/svg" viewBox="0 0 80 80"><path d="M34.8.3A41.5 41.5 0 0 0 20.3 5a40.1 40.1 0 0 0-20 28.5 59 59 0 0 0-.1 11.3 40 40 0 0 0 3.7 12.4A37.2 37.2 0 0 0 11 67.7a39.8 39.8 0 0 0 19.2 11.1A31.8 31.8 0 0 0 40 80a31.8 31.8 0 0 0 9.7-1 41.5 41.5 0 0 0 16-8A51.8 51.8 0 0 0 72 64a40 40 0 0 0-9.8-57.5A39.6 39.6 0 0 0 44.8.3a58.1 58.1 0 0 0-10 0zM34 30l6 19.3L46 30l5.9-19.4c.1-.1 3.5 11 15 48.7l.2.7h-1.3c-1 0-1.4 0-1.4-.2l-.8-2.8A30.6 30.6 0 0 0 57 43.2a12.1 12.1 0 0 0-2.2-1.4c-1.2-.6-1.2-.6-3.2-.6s-2 0-3.1.5a15 15 0 0 0-4.3 4.3 61 61 0 0 0-3.5 6.4c-.7 1.4-.8 1.6-.9 1.3a74.7 74.7 0 0 0-3.6-7 14.5 14.5 0 0 0-5.1-5 4.7 4.7 0 0 0-2.8-.5 6.5 6.5 0 0 0-4.7 1.5c-3 2.2-5.6 7.5-8 16.8l-.2.7h-1.3c-1 0-1.4 0-1.3-.2l7.6-25c4.1-13.6 7.6-24.6 7.7-24.5L34 30z"/></svg>
