<svg xmlns="http://www.w3.org/2000/svg" fill="none" viewBox="0 0 80 80">
  <g clip-path="url(#logo-php-a)">
    <mask id="logo-php-b" width="78" height="42" x="1" y="19" maskUnits="userSpaceOnUse" style="mask-type:luminance">
      <path fill="#fff" d="M1.1 40c0 11.3 17.4 20.4 38.9 20.4S78.9 51.3 78.9 40c0-11.3-17.4-20.4-38.9-20.4S1.1 28.7 1.1 40Z"/>
    </mask>
    <g mask="url(#logo-php-b)">
      <path fill="url(#logo-php-c)" d="M1.1 40c0 11.3 17.4 20.4 38.9 20.4S78.9 51.3 78.9 40c0-11.3-17.4-20.4-38.9-20.4S1.1 28.7 1.1 40Z"/>
    </g>
    <mask id="logo-php-d" width="82" height="46" x="-1" y="17" maskUnits="userSpaceOnUse" style="mask-type:luminance">
      <path fill="#fff" d="M-.5 17.2h81v45.6h-81V17.2Z"/>
    </mask>
    <g mask="url(#logo-php-d)">
      <path fill="#777BB3" d="M40 59c20.6 0 37.4-8.5 37.4-19S60.6 21 40 21C19.4 21 2.6 29.6 2.6 40S19.4 59 40 59Z"/>
    </g>
    <mask id="logo-php-e" width="82" height="46" x="-1" y="17" maskUnits="userSpaceOnUse" style="mask-type:luminance">
      <path fill="#fff" d="M-.5 17.2h81v45.6h-81V17.2Z"/>
    </mask>
    <g mask="url(#logo-php-e)">
      <path fill="#000" d="M22.2 42.3c1.7 0 3-.3 3.8-.9.8-.6 1.4-1.6 1.6-3.1.3-1.4.2-2.4-.3-2.9-.4-.5-1.5-.8-3-.8h-2.8L20 42.3h2.2ZM13.4 52a.4.4 0 0 1-.4-.5L17 31c0-.2.2-.4.4-.4h8.5c2.7 0 4.8.8 6 2.2 1.3 1.5 1.7 3.5 1.2 6a9.6 9.6 0 0 1-3 5.3 9 9 0 0 1-3 1.9c-1.2.3-2.6.5-4.4.5h-3.5l-1 5.1c0 .2-.2.4-.4.4h-4.4Z"/>
      <path fill="#fff" d="M21.9 35h2.4c1.8 0 2.5.4 2.7.7.4.4.5 1.3.2 2.5a4.4 4.4 0 0 1-1.4 2.9c-.8.5-2 .8-3.6.8h-1.6l1.3-6.9Zm4-4.9h-8.5a1 1 0 0 0-.9.7l-4 20.5a.8.8 0 0 0 .9 1h4.4c.4 0 .8-.3.9-.7l.9-4.8h3.1c1.8 0 3.3-.1 4.5-.5 1.2-.4 2.3-1 3.2-2a10 10 0 0 0 3-5.5c.6-2.7.2-4.8-1.2-6.4-1.3-1.5-3.4-2.3-6.3-2.3Zm-6.4 12.7h2.7c1.8 0 3.2-.4 4-1 1-.7 1.5-1.9 1.9-3.4.2-1.6.1-2.6-.5-3.3-.5-.6-1.6-1-3.3-1h-3.1l-1.7 8.7ZM26 31c2.6 0 4.5.6 5.7 2 1.2 1.3 1.5 3.2 1 5.7a9.2 9.2 0 0 1-2.7 5c-1 .8-2 1.4-3 1.8a16 16 0 0 1-4.2.5H19l-1 5.5h-4.5l4-20.5H26Z"/>
      <path fill="#000" d="M43.3 46.4a.4.4 0 0 1-.4-.5l1.8-9c.1-1 0-1.5-.2-1.8-.1-.1-.5-.4-1.9-.4h-3.2L37.2 46c0 .2-.2.3-.4.3h-4.4a.4.4 0 0 1-.4-.5l4-20.5c0-.2.2-.3.4-.3h4.4a.4.4 0 0 1 .4.5l-1 5h3.5c2.6 0 4.4.4 5.4 1.3 1 1 1.4 2.6 1 4.6L48.2 46c0 .2-.2.3-.4.3h-4.5Z"/>
      <path fill="#fff" d="M40.8 24.7h-4.4c-.4 0-.8.3-.9.6l-4 20.5a.8.8 0 0 0 .9 1h4.4c.4 0 .8-.2.8-.6l2.2-11h2.8c1.4 0 1.6.2 1.6.2.1 0 .2.5 0 1.4l-1.7 9a.8.8 0 0 0 .8 1h4.5c.4 0 .8-.2.8-.6l1.9-9.6c.4-2.2 0-3.9-1.1-5-1.1-1-3-1.5-5.7-1.5h-3l1-4.4a.8.8 0 0 0-.9-1Zm0 .8-1 5.5h3.9c2.5 0 4.2.4 5.1 1.3 1 .8 1.2 2.2.9 4.2L47.8 46h-4.5l1.8-9c.2-1.1.1-1.8-.2-2.2-.4-.3-1.1-.5-2.3-.5h-3.5L36.8 46h-4.4l4-20.5h4.4Z"/>
      <path fill="#000" d="M57 42.3c1.8 0 3-.3 3.9-.9.7-.6 1.3-1.6 1.6-3.1.2-1.4.1-2.4-.3-2.9-.5-.5-1.5-.8-3.1-.8h-2.7l-1.5 7.7H57ZM48.3 52a.4.4 0 0 1-.4-.5l4-20.5c0-.2.2-.4.4-.4h8.6c2.7 0 4.7.8 6 2.2 1.2 1.5 1.6 3.5 1.1 6a9.6 9.6 0 0 1-3 5.3c-.8.9-1.9 1.5-3 1.9-1.2.3-2.6.5-4.3.5H54l-1 5.1c0 .2-.2.4-.4.4h-4.5Z"/>
      <path fill="#fff" d="M56.7 35h2.4c1.9 0 2.5.4 2.8.7.3.4.4 1.3.2 2.5a5 5 0 0 1-1.5 2.9c-.7.5-2 .8-3.5.8h-1.7l1.3-6.9Zm4-4.9h-8.5c-.4 0-.7.3-.8.7l-4 20.5a.8.8 0 0 0 .8 1h4.5c.4 0 .7-.3.8-.7l1-4.8h3c1.8 0 3.3-.1 4.5-.5a10 10 0 0 0 6.3-7.4c.6-2.8.1-5-1.2-6.5-1.4-1.5-3.5-2.3-6.3-2.3Zm-6.3 12.7H57c1.8 0 3.1-.4 4-1 .9-.7 1.5-1.9 1.8-3.4.3-1.6.2-2.6-.4-3.3-.6-.6-1.7-1-3.4-1h-3l-1.7 8.7ZM60.8 31c2.6 0 4.5.6 5.6 2 1.2 1.3 1.6 3.2 1.1 5.7a9.2 9.2 0 0 1-2.8 5c-.9.8-1.9 1.4-3 1.8-1 .3-2.4.5-4.1.5h-3.9l-1 5.5h-4.5l4-20.5h8.6Z"/>
    </g>
  </g>
  <defs>
    <radialGradient id="logo-php-c" cx="0" cy="0" r="1" gradientTransform="matrix(51 0 0 51 24.5 26.7)" gradientUnits="userSpaceOnUse">
      <stop stop-color="#AEB2D5"/>
      <stop offset=".3" stop-color="#AEB2D5"/>
      <stop offset=".8" stop-color="#484C89"/>
      <stop offset="1" stop-color="#484C89"/>
    </radialGradient>
  </defs>
</svg>
