<svg xmlns="http://www.w3.org/2000/svg" xmlns:xlink="http://www.w3.org/1999/xlink" viewBox="0 0 80 80"><defs><linearGradient id="a" x1="37.88" y1="449.8" x2="21.37" y2="433.28" gradientTransform="matrix(1 0 0 -1 0 466)" gradientUnits="userSpaceOnUse"><stop offset=".18" stop-color="#0052cc"/><stop offset="1" stop-color="#2684ff"/></linearGradient><linearGradient id="b" x1="42.26" y1="402.35" x2="58.74" y2="418.83" xlink:href="#a"/></defs><path d="M77.76 37.76L43.34 3.34 40 0 14.09 25.91 2.24 37.76a3.16 3.16 0 000 4.48l23.67 23.67L40 80l25.91-25.91.4-.4 11.45-11.45a3.16 3.16 0 000-4.48zM40 51.83L28.17 40 40 28.17 51.83 40z" fill="#2684ff"/><path d="M40 28.17A19.91 19.91 0 0139.92.1L14 26l14.12 14.05z" fill="url(#a)"/><path d="M51.86 40L40 51.83A19.91 19.91 0 0140 80l26-25.95z" fill="url(#b)"/></svg>