<svg width="85" height="80" viewBox="0 0 85 80" fill="none" xmlns="http://www.w3.org/2000/svg">
<path d="M75.6902 45.429C74.3754 54.0043 69.7886 61.7472 62.8819 67.0509C55.9751 72.3546 47.2787 74.8119 38.5974 73.9127C29.916 73.0135 21.9163 68.827 16.2584 62.2219C10.6006 55.6169 7.71897 47.1004 8.21166 38.44C8.70434 29.7796 12.5335 21.6402 18.9044 15.711C25.2753 9.78176 33.6989 6.51799 42.4269 6.59698" stroke="#000080" stroke-width="11.4534" stroke-linecap="round"/>
<mask id="path-2-inside-1" fill="white">
<path d="M55.9435 41.7783C55.2868 45.0014 53.4021 47.8456 50.6854 49.7133C47.9687 51.581 44.6314 52.3269 41.3745 51.7944C38.1176 51.2618 35.1944 49.4923 33.2191 46.8574C31.2438 44.2225 30.37 40.9274 30.7813 37.664C31.1926 34.4007 32.8569 31.4232 35.4247 29.3569C37.9925 27.2906 41.2639 26.2963 44.5518 26.5828C47.8398 26.8693 50.8883 28.4144 53.0572 30.8936C55.2261 33.3727 56.3465 36.5929 56.1831 39.8778"/>
</mask>
<path d="M55.9435 41.7783C55.2868 45.0014 53.4021 47.8456 50.6854 49.7133C47.9687 51.581 44.6314 52.3269 41.3745 51.7944C38.1176 51.2618 35.1944 49.4923 33.2191 46.8574C31.2438 44.2225 30.37 40.9274 30.7813 37.664C31.1926 34.4007 32.8569 31.4232 35.4247 29.3569C37.9925 27.2906 41.2639 26.2963 44.5518 26.5828C47.8398 26.8693 50.8883 28.4144 53.0572 30.8936C55.2261 33.3727 56.3465 36.5929 56.1831 39.8778" fill="#000080"/>
<path d="M41.3745 51.7944L41.66 50.0485L41.3745 51.7944ZM30.7813 37.664L32.5365 37.8852L30.7813 37.664ZM44.5518 26.5828L44.3982 28.3452L44.3982 28.3452L44.5518 26.5828ZM54.2101 41.4251C53.6451 44.1981 52.0233 46.6467 49.6832 48.2555L51.6876 51.1711C54.781 49.0444 56.9285 45.8048 57.677 42.1315L54.2101 41.4251ZM49.6832 48.2555C47.343 49.8644 44.4671 50.5075 41.66 50.0485L41.089 53.5402C44.7958 54.1463 48.5945 53.2976 51.6876 51.1711L49.6832 48.2555ZM41.66 50.0485C38.8529 49.5895 36.3351 48.0647 34.6346 45.7963L31.8037 47.9185C34.0537 50.9199 37.3822 52.9341 41.089 53.5402L41.66 50.0485ZM34.6346 45.7963C32.9342 43.5281 32.1827 40.6926 32.5365 37.8852L29.0261 37.4429C28.5574 41.1621 29.5535 44.917 31.8037 47.9185L34.6346 45.7963ZM32.5365 37.8852C32.8903 35.0778 34.3223 32.5147 36.5337 30.7351L34.3156 27.9787C31.3915 30.3317 29.4949 33.7237 29.0261 37.4429L32.5365 37.8852ZM36.5337 30.7351C38.7454 28.9553 41.5643 28.0982 44.3982 28.3452L44.7054 24.8204C40.9635 24.4943 37.2395 25.6258 34.3156 27.9787L36.5337 30.7351ZM44.3982 28.3452C47.2321 28.5921 49.8583 29.9238 51.7258 32.0584L54.3886 29.7287C51.9184 26.9051 48.4474 25.1465 44.7054 24.8204L44.3982 28.3452ZM51.7258 32.0584C53.5931 34.1928 54.5568 36.964 54.4162 39.7899L57.9499 39.9657C58.1362 36.2218 56.8591 32.5526 54.3886 29.7287L51.7258 32.0584Z" fill="#000080" mask="url(#path-2-inside-1)"/>
<mask id="path-4-inside-2" fill="white">
<path d="M77.6528 16.6173C77.2587 18.5512 76.1279 20.2577 74.4979 21.3783C72.8679 22.4989 70.8655 22.9465 68.9113 22.627C66.9572 22.3075 65.2033 21.2457 64.0181 19.6648C62.8329 18.0839 62.3087 16.1068 62.5554 14.1488C62.8022 12.1908 63.8008 10.4043 65.3414 9.16449C66.8821 7.9247 68.845 7.32811 70.8177 7.50003C72.7905 7.67196 74.6196 8.59902 75.921 10.0865C77.2223 11.574 77.8945 13.5061 77.7965 15.477"/>
</mask>
<path d="M77.6528 16.6173C77.2587 18.5512 76.1279 20.2577 74.4979 21.3783C72.8679 22.4989 70.8655 22.9465 68.9113 22.627C66.9572 22.3075 65.2033 21.2457 64.0181 19.6648C62.8329 18.0839 62.3087 16.1068 62.5554 14.1488C62.8022 12.1908 63.8008 10.4043 65.3414 9.16449C66.8821 7.9247 68.845 7.32811 70.8177 7.50003C72.7905 7.67196 74.6196 8.59902 75.921 10.0865C77.2223 11.574 77.8945 13.5061 77.7965 15.477" fill="#000080"/>
<path d="M68.9113 22.627L68.6259 24.3728L68.6259 24.3728L68.9113 22.627ZM62.5554 14.1488L64.3106 14.37L64.3106 14.37L62.5554 14.1488ZM70.8177 7.50003L70.9713 5.73767L70.9713 5.73767L70.8177 7.50003ZM75.9193 16.2641C75.617 17.7479 74.749 19.0589 73.4957 19.9206L75.5001 22.8361C77.5067 21.4565 78.9004 19.3545 79.3862 16.9705L75.9193 16.2641ZM73.4957 19.9206C72.2421 20.7824 70.7012 21.1271 69.1968 20.8811L68.6259 24.3728C71.0298 24.7659 73.4936 24.2155 75.5001 22.8361L73.4957 19.9206ZM69.1968 20.8811C67.6925 20.6352 66.344 19.8181 65.4336 18.6037L62.6027 20.7259C64.0626 22.6734 66.2218 23.9798 68.6259 24.3728L69.1968 20.8811ZM65.4336 18.6037C64.5233 17.3894 64.1213 15.872 64.3106 14.37L60.8003 13.9276C60.496 16.3415 61.1426 18.7783 62.6027 20.7259L65.4336 18.6037ZM64.3106 14.37C64.4999 12.8679 65.2661 11.4958 66.4505 10.5427L64.2324 7.78627C62.3354 9.31279 61.1045 11.5137 60.8003 13.9276L64.3106 14.37ZM66.4505 10.5427C67.6351 9.58948 69.1454 9.13004 70.6641 9.2624L70.9713 5.73767C68.5446 5.52618 66.1292 6.25991 64.2324 7.78627L66.4505 10.5427ZM70.6641 9.2624C72.1829 9.39475 73.5896 10.1084 74.5895 11.2513L77.2524 8.92168C75.6497 7.08968 73.3981 5.94917 70.9713 5.73767L70.6641 9.2624ZM74.5895 11.2513C75.5893 12.3941 76.1048 13.8772 76.0296 15.3891L79.5633 15.5649C79.6842 13.135 78.8553 10.7539 77.2524 8.92168L74.5895 11.2513Z" fill="#000080" mask="url(#path-4-inside-2)"/>
<path d="M48.7192 32.5296C60.9536 21.9827 61.0482 21.8957 61.0482 21.8957Z" fill="#000080"/>
<path d="M48.7192 32.5296C60.9536 21.9827 61.0482 21.8957 61.0482 21.8957" stroke="#000080" stroke-width="1.40418" stroke-linecap="round"/>
</svg>
