<svg xmlns="http://www.w3.org/2000/svg" fill="none" viewBox="0 0 80 80">
  <rect width="42" height="78" x="19" y="1" stroke="currentColor" stroke-width="2" rx="5"/>
  <path fill="currentColor" fill-rule="evenodd" d="M48.7 31.8a1.3 1.3 0 0 1 1 .7 1.3 1.3 0 0 1 0 1.3l-.6 1-.8 1.4-.8 1.5a14.1 14.1 0 0 1 6.4 9.8l.1.7H26a14.1 14.1 0 0 1 6.6-10.5l-.9-1.5-1.4-2.4a1.3 1.3 0 0 1 2.2-1.3l.6 1L34 35l.8 1.5v.2a13.4 13.4 0 0 1 5.2-1c1.8 0 3.5.3 5 1h.1l.1-.2.9-1.5.8-1.4a904.7 904.7 0 0 1 1-1.4 1.3 1.3 0 0 1 .8-.3Zm-14.3 10c-.6-.4-1.4-.1-1.8.6-.5.7-.4 1.5.1 1.9.6.4 1.4.1 1.9-.6.4-.7.4-1.5-.2-2Zm13 .6c-.4-.7-1.2-1-1.8-.6-.5.4-.6 1.2-.2 2 .5.6 1.3.9 1.9.5.5-.4.6-1.3.2-2Z" clip-rule="evenodd"/>
</svg>
