<svg xmlns="http://www.w3.org/2000/svg" viewBox="0 0 80 80"><rect width="80.02" height="80.02" rx="8"/><path d="m16.81 40.05 9 6.08a6.48 6.48 0 0 1 .84.72 1.43 1.43 0 0 1 .44 1v3.4a.82.82 0 0 1-.84.84h-.18a1.11 1.11 0 0 1-.26-.1l-14-9.44a4.1 4.1 0 0 1-.86-.7 1.44 1.44 0 0 1-.3-1v-1.64a1.44 1.44 0 0 1 .3-1 4.1 4.1 0 0 1 .86-.7l14-9.44a1.11 1.11 0 0 1 .26-.1h.18a.82.82 0 0 1 .84.84v3.4a1.43 1.43 0 0 1-.44 1 6.48 6.48 0 0 1-.84.72zM44 23.81a2.54 2.54 0 0 1 .6-.82 1.64 1.64 0 0 1 1.16-.38h3a.89.89 0 0 1 .88.88 1 1 0 0 1-.08.36L36 56.21a2.54 2.54 0 0 1-.56.8 1.63 1.63 0 0 1-1.2.4h-2.87a.85.85 0 0 1-.62-.26.87.87 0 0 1-.26-.62 1 1 0 0 1 .08-.36zM54.17 34a6.48 6.48 0 0 1-.84-.72 1.39 1.39 0 0 1-.44-1v-3.4a.82.82 0 0 1 .84-.84h.18a1.3 1.3 0 0 1 .26.1l14 9.44a4.1 4.1 0 0 1 .86.7 1.44 1.44 0 0 1 .3 1v1.68a1.44 1.44 0 0 1-.3 1 4.1 4.1 0 0 1-.86.7l-14 9.34a1.3 1.3 0 0 1-.26.1h-.18a.82.82 0 0 1-.84-.84v-3.4a1.39 1.39 0 0 1 .44-1 6.48 6.48 0 0 1 .84-.72l9-6.08z" fill="#fff"/></svg>