<svg data-name="Logos" xmlns="http://www.w3.org/2000/svg" viewBox="0 0 80 80"><path d="M76.42 28.11a30 30 0 00-8.86-8.74C60.31 14.59 50.79 12 40.75 12a55.49 55.49 0 00-9.87.87 33 33 0 00-6.78-5A26.37 26.37 0 000 7.65s10.15 8.62 8.5 16.18a23 23 0 00-7 16.11 23.08 23.08 0 007 16.23C10.16 63.73 0 72.35 0 72.35a26.37 26.37 0 0024.09-.16 32.65 32.65 0 006.78-5 55.49 55.49 0 009.87.87c10 0 19.56-2.63 26.81-7.41a30 30 0 008.86-8.74 21.58 21.58 0 000-23.78zM40.86 60.6A47 47 0 0128.62 59l-2.76 2.66a25.23 25.23 0 01-5.08 3.78 19.94 19.94 0 01-7.18 2c.13-.24.25-.49.39-.73q4.14-7.63 2.23-13.71C11.71 49.5 9 45 9 40c0-11.4 14.26-20.62 31.86-20.62S72.72 28.6 72.72 40 58.46 60.6 40.86 60.6zM70.12 32.13z" fill="#db2323" fill-rule="evenodd"/><path d="M25.58 44.89a4.76 4.76 0 114.68-4.76 4.72 4.72 0 01-4.68 4.76zm15.08 0a4.76 4.76 0 114.69-4.76 4.72 4.72 0 01-4.69 4.76zm15.08 0a4.76 4.76 0 114.69-4.76 4.72 4.72 0 01-4.69 4.76z" fill="#db2323"/></svg>