<svg xmlns="http://www.w3.org/2000/svg" xmlns:xlink="http://www.w3.org/1999/xlink" width="110.4211" height="109.8461" version="1.0"> <defs> <linearGradient id="a"> <stop offset="0" stop-color="#ffe052"/> <stop offset="1" stop-color="#ffc331"/> </linearGradient> <linearGradient gradientUnits="userSpaceOnUse" y2="168.1012" x2="147.77737" y1="111.92053" x1="89.13675" id="d" xlink:href="#a"/> <linearGradient id="b"> <stop offset="0" stop-color="#387eb8"/> <stop offset="1" stop-color="#366994"/> </linearGradient> <linearGradient gradientUnits="userSpaceOnUse" y2="131.85291" x2="110.14919" y1="77.07027" x1="55.54918" id="c" xlink:href="#b"/> </defs> <g color="#000"> <path style="marker:none" d="M99.75 67.46875c-28.03173 0-26.28125 12.15625-26.28125 12.15625L73.5 92.21875h26.75V96H62.875s-17.9375-2.03428-17.9375 26.25c0 28.28427 15.65625 27.28125 15.65625 27.28125h9.34375v-13.125S69.43385 120.75 85.34375 120.75H111.875s14.90625.24096 14.90625-14.40625V82.125S129.04443 67.46875 99.75 67.46875zM85 75.9375c2.66143 0 4.8125 2.15107 4.8125 4.8125S87.66143 85.5625 85 85.5625s-4.8125-2.15107-4.8125-4.8125S82.33857 75.9375 85 75.9375z" fill="url(#c)" overflow="visible" transform="translate(-44.9375 -67.46875)"/> <path d="M100.5461 177.31485c28.03174 0 26.28125-12.15625 26.28125-12.15625l-.03125-12.59375h-26.75v-3.78125h37.375s17.9375 2.03427 17.9375-26.25001c.00001-28.28427-15.65625-27.28125-15.65625-27.28125h-9.34375v13.125s.50366 15.65625-15.40625 15.65625H88.4211s-14.90625-.24096-14.90625 14.40626v24.21875s-2.26318 14.65625 27.03125 14.65625zm14.75-8.46875c-2.66143 0-4.8125-2.15107-4.8125-4.8125s2.15107-4.8125 4.8125-4.8125 4.8125 2.15107 4.8125 4.8125c.00001 2.66143-2.15107 4.8125-4.8125 4.8125z" style="marker:none" fill="url(#d)" overflow="visible" transform="translate(-44.9375 -67.46875)"/> </g></svg>
