<svg xmlns="http://www.w3.org/2000/svg" viewBox="0 0 80 80"><path d="M74.6 20A39.8 39.8 0 0 0 60.1 5.5 39 39 0 0 0 40 0a39 39 0 0 0-20 5.4A39.9 39.9 0 0 0 5.3 20 39.2 39.2 0 0 0 0 40a38.9 38.9 0 0 0 7.6 23.6 39.2 39.2 0 0 0 19.7 14.5 2.4 2.4 0 0 0 2.1-.4 2 2 0 0 0 .7-1.6v-7.4l-1.2.2a15.8 15.8 0 0 1-2.9.2 22.1 22.1 0 0 1-3.6-.4 8 8 0 0 1-3.5-1.6 6.6 6.6 0 0 1-2.3-3.1l-.6-1.3a12.9 12.9 0 0 0-1.6-2.6 6.1 6.1 0 0 0-2.3-2l-.3-.3a4.5 4.5 0 0 1-.7-.6 3 3 0 0 1-.5-.7q-.1-.4.3-.6a3.3 3.3 0 0 1 1.5-.2l1 .1a7.7 7.7 0 0 1 2.6 1.3 8.4 8.4 0 0 1 2.5 2.7 9.3 9.3 0 0 0 3 3.2 6.2 6.2 0 0 0 3.3 1.1 15 15 0 0 0 3-.2 10.4 10.4 0 0 0 2.4-.8 8.5 8.5 0 0 1 2.5-5.4 35.5 35.5 0 0 1-5.3-1 21.4 21.4 0 0 1-4.9-2 14 14 0 0 1-4.2-3.4 16.7 16.7 0 0 1-2.7-5.5 25.7 25.7 0 0 1-1.1-7.8 15.2 15.2 0 0 1 4-10.7q-1.8-4.8.5-10.6c1-.4 2.5-.1 4.4.7a31.8 31.8 0 0 1 4.4 2c1 .5 1.6 1 2.2 1.4a37.7 37.7 0 0 1 20 0l2-1.3a27.8 27.8 0 0 1 4.8-2.3 6.7 6.7 0 0 1 4.2-.5q2.3 5.8.4 10.6A15.2 15.2 0 0 1 65.5 38a26.4 26.4 0 0 1-1 7.8 16.2 16.2 0 0 1-2.8 5.5 14.6 14.6 0 0 1-4.2 3.5 21.2 21.2 0 0 1-5 2 35.5 35.5 0 0 1-5.3 1Q50 60 50 65.1v11a2 2 0 0 0 .7 1.5 2.3 2.3 0 0 0 2 .4 39.2 39.2 0 0 0 19.7-14.5A38.9 38.9 0 0 0 80 40.1 39 39 0 0 0 74.6 20z"/></svg>
