<svg xmlns="http://www.w3.org/2000/svg" viewBox="0 0 80 80"><path d="M39 14.4a38.6 38.6 0 0 1 18.4 4.3 55.8 55.8 0 0 1 15.1 11.6 62.8 62.8 0 0 1 7.4 9.4.5.5 0 0 1 0 .6 63.4 63.4 0 0 1-14.1 15.6 46.9 46.9 0 0 1-14.6 8A35.8 35.8 0 0 1 38 65.6a38.6 38.6 0 0 1-16.2-4.7A57 57 0 0 1 6.8 49a63.2 63.2 0 0 1-6.7-8.8.4.4 0 0 1 0-.6 62.7 62.7 0 0 1 16.5-17.3 44.2 44.2 0 0 1 13.8-6.7 34.3 34.3 0 0 1 8.7-1.3zM4.6 40l.2.3A59.8 59.8 0 0 0 15.3 52 44 44 0 0 0 30 60.2a31.8 31.8 0 0 0 17.5.8 40 40 0 0 0 13.7-6.4A58 58 0 0 0 73 43.4l2.5-3.4-.2-.4a60.4 60.4 0 0 0-5.5-6.6 53 53 0 0 0-13-10.3 34.8 34.8 0 0 0-16-4.5 33.4 33.4 0 0 0-15 3.3 49.7 49.7 0 0 0-14 9.8A58.9 58.9 0 0 0 4.6 40z" fill="#349966"/><path d="M38.4 21.5h3.2l.2 3 2.5.5 1.3-2.8 3 1.3-1 2.9 2 1.4 2.3-2 2.3 2.3-2 2.2 1.4 2.1 2.9-1 1.2 3-2.7 1.4.5 2.4 3 .2v3.2l-3 .2-.5 2.4 2.8 1.4-1.3 3-2.9-1-1.4 2 2 2.3-2.3 2.3-2.2-2-2.1 1.4 1 3-3 1.2-1.4-2.8-2.4.5-.2 3h-3.2l-.2-3-2.4-.5-1.4 2.8-3-1.3 1-2.9-2-1.4-2.3 2-2.3-2.3 2-2.2-1.4-2-2.9 1-1.3-3 2.8-1.5-.5-2.4-3-.2v-3.2l3-.2.5-2.4-2.8-1.4 1.3-3 2.9 1 1.4-2-2-2.3 2.3-2.3 2.3 2 2-1.4-1-2.9 3-1.3 1.4 2.8 2.4-.5zM40 50.4A10.4 10.4 0 1 0 29.6 40 10.3 10.3 0 0 0 40 50.4z" fill="#026699"/><path d="M40 46.3a6.3 6.3 0 1 1 6.3-6.3 6.3 6.3 0 0 1-6.3 6.3z" fill="#900"/></svg>
