<svg data-name="Logos" xmlns="http://www.w3.org/2000/svg" viewBox="0 0 80 80"><path d="M.76 28s-1.95-1.41.39-3.28l5.45-4.84a2.32 2.32 0 013.21-.22l50.27 38.07V76s0 2.86-3.71 2.55z" fill="#2489ca"/><path d="M13.72 39.79L.76 51.57s-1.33 1 0 2.76l6 5.47s1.43 1.54 3.54-.21l13.75-10.41z" fill="#1070b3"/><path d="M36.47 39.89l23.76-18.15-.15-18.15s-1-4-4.4-1.9L24.05 30.47z" fill="#0877b9"/><path d="M56.37 78.55a3.29 3.29 0 003.06 1L78 70.37c2.37-1.61 2-3.62 2-3.62V12.26A3.63 3.63 0 0077.53 9L61.48 1.3c-3.51-2.17-5.8.39-5.8.39s3-2.13 4.4 1.9v72.05a3.25 3.25 0 01-.32 1.42c-.42.86-1.34 1.65-3.54 1.32z" fill="#3c99d4"/></svg>