<svg xmlns="http://www.w3.org/2000/svg" fill="none" viewBox="0 0 80 80">
  <path fill="url(#logo-chromium-a)" d="m40 40 15.6 9L40 76a36 36 0 0 0 31.2-54H40v18Z"/>
  <path fill="url(#logo-chromium-b)" d="M40 4A36 36 0 0 0 8.8 22l15.6 27L40 40V22h31.2A36 36 0 0 0 40 4Z"/>
  <path fill="url(#logo-chromium-c)" d="M4 40a36 36 0 0 0 36 36l15.6-27L40 40l-15.6 9L8.8 22C5.8 27.3 4 33.4 4 40"/>
  <path fill="#fff" d="M58 40a18 18 0 1 1-36 0 18 18 0 0 1 36 0Z"/>
  <path fill="url(#logo-chromium-d)" d="M54.6 40a14.6 14.6 0 1 1-29.2 0 14.6 14.6 0 0 1 29.2 0Z"/>
  <defs>
    <linearGradient id="logo-chromium-a" x1="58.1" x2="58" y1="21.9" y2="76" gradientUnits="userSpaceOnUse">
      <stop stop-color="#AFCCFB"/>
      <stop offset="1" stop-color="#8BB5F8"/>
    </linearGradient>
    <linearGradient id="logo-chromium-b" x1="34.8" x2="37.8" y1="4.5" y2="52.9" gradientUnits="userSpaceOnUse">
      <stop stop-color="#1972E7"/>
      <stop offset="1" stop-color="#1969D5"/>
    </linearGradient>
    <linearGradient id="logo-chromium-c" x1="29.8" x2="29.8" y1="22" y2="76" gradientUnits="userSpaceOnUse">
      <stop stop-color="#659CF6"/>
      <stop offset="1" stop-color="#4285F4"/>
    </linearGradient>
    <linearGradient id="logo-chromium-d" x1="39.9" x2="40" y1="25.4" y2="54.6" gradientUnits="userSpaceOnUse">
      <stop stop-color="#3680F0"/>
      <stop offset="1" stop-color="#2678EC"/>
    </linearGradient>
  </defs>
</svg>
