<svg xmlns="http://www.w3.org/2000/svg" viewBox="0 0 80 80"><title>logos</title><path d="M48.38,0A12,12,0,0,1,46.1,2.91c-1.92,1.55-4.38,1.73-6.75,1.55h-.18A14.23,14.23,0,0,0,25,18.67V25l-.28.27c-3.55,3.1-4.92,7.48-4.92,12A29.87,29.87,0,0,0,24.5,52.39H15.57a5.46,5.46,0,0,1-5.47-3.92h-5v.64C5.09,55.21,10,58,15.39,58H26.78L24.41,66.6a9.09,9.09,0,0,0,.46,6.75,5.85,5.85,0,0,0,3.91,3.1,6.27,6.27,0,0,0,3.65-.28l.73-.27.36.64.55.82a6.61,6.61,0,0,0,10.57,0l.55-.82.36-.64.73.27a5.89,5.89,0,0,0,3.55.28,6.13,6.13,0,0,0,3.92-3.1,9.12,9.12,0,0,0,.37-6.75L51.75,58H63.14c5.37,0,10.29-2.74,10.29-8.84v-.55h-5.1a5.45,5.45,0,0,1-5.47,3.92H53.93a29.78,29.78,0,0,0,4.74-15.13c0-4.64-1.36-8.93-4.92-12l-.09-.1,6.93-4.46c-1.1-3.1-5.84-7.2-8.39-8.57A8.73,8.73,0,0,0,50.84,10l-.37-.37.18-.45c1-2.65-.73-6.66-2.27-9.21" style="fill:#54476e;fill-rule:evenodd"/><path d="M49.29,58l2.55,9.29c2,7.38-5.11,9.85-7.75,3.56.46,9.38-10.11,9.38-9.66,0-2.55,6.29-9.84,3.82-7.83-3.56L29.15,58h1.36a5.91,5.91,0,0,1,6.11,4.65h5.19A5.85,5.85,0,0,1,47.92,58ZM40.45,12.48a4.28,4.28,0,1,1-4.29,4.28A4.27,4.27,0,0,1,40.45,12.48ZM51.2,26.15c3.28,2.27,5.29,5.83,5.29,11.2a25.61,25.61,0,0,1-3.65,12.49,6.9,6.9,0,0,0-2.46-.55c-.64-.09-1.18-.73-2.28-.73s-1.73.64-2.37.73c-1.27.18-2.09.09-2.64.64a3.37,3.37,0,0,0-.73,1.64c0,.27-.09.64-.09,1v1a6.1,6.1,0,0,0-2.46,2.74l-.55.91-.54-.91a7.68,7.68,0,0,0-2.46-2.83v-1a3.11,3.11,0,0,0-.1-1,2.71,2.71,0,0,0-.72-1.64c-.55-.55-1.37-.46-2.65-.64-.63-.09-1.18-.73-2.37-.73s-1.64.64-2.27.73a6.79,6.79,0,0,0-2.46.55A26.61,26.61,0,0,1,22,37.26c0-5.28,2-8.93,5.29-11.21l3-1.91c.73-.45.82-1-.36-.91l-2.74.27V18.58A12,12,0,0,1,39.17,6.64S46.64,7,48.1,3.73c1.37,2.64.64,4.83-.73,6.1a6.36,6.36,0,0,1,2.74,3C47.37,16.76,47.28,22.87,51.2,26.15Z" style="fill:#af6bd6;fill-rule:evenodd"/><path d="M25.69,49.84A26.61,26.61,0,0,1,22,37.35c0-5.28,2-8.93,5.29-11.2l3-1.92c.73-.45.82-1-.36-.91l-2.74.27V18.67a12,12,0,0,1,5.47-10c-4.37,5.1-1.82,13.58,2.55,15.76C24.59,31,27.87,40.27,32.7,49.2c-.64-.09-1.18-.64-2.28-.64s-1.64.64-2.27.73a6.79,6.79,0,0,0-2.46.55M48.1,3.91c1.37,2.64.64,4.83-.73,6.11a7.15,7.15,0,0,0-1.73-.55c-.18,0-.27-.27,0-.46A5.43,5.43,0,0,0,48.1,3.91Zm-8.47,74c-2.65.19-5.38-2.09-5.2-7-2.55,6.29-9.84,3.82-7.83-3.56L29.15,58h1.36a5.91,5.91,0,0,1,6.11,4.65h5.1v.09C39.26,67.79,39.63,72.53,39.63,77.9Z" style="fill:#8c55b7;fill-rule:evenodd"/><path d="M39.26,29.61c6,0,10.94,4.55,10.94,12.3a17.23,17.23,0,0,1-1.46,6.74,2,2,0,0,0-.73-.09c-1.18,0-1.73.64-2.37.73-1.27.18-2.09.09-2.64.64a3.29,3.29,0,0,0-.73,1.64c0,.27-.09.64-.09,1v1a6.1,6.1,0,0,0-2.46,2.74l-.55.91-.55-.91a7.51,7.51,0,0,0-2.46-2.83v-1a3.44,3.44,0,0,0-.09-1,2.66,2.66,0,0,0-.73-1.64c-.54-.55-1.36-.46-2.64-.64-.64-.09-1.18-.73-2.37-.73a1.4,1.4,0,0,0-.64.09,17.22,17.22,0,0,1-1.45-6.74c.09-7.66,4.92-12.21,11-12.21" style="fill:#fff;fill-rule:evenodd"/><path d="M55.12,16.67a21.47,21.47,0,0,0-3.83-2.74,9.61,9.61,0,0,0-1.37,5.29,8.07,8.07,0,0,0,1.55,4.56L58,20a24.53,24.53,0,0,0-2.91-3.28" style="fill:#ffb03f"/><path d="M50.11,21a7.47,7.47,0,0,0,1.36,2.83L58,20a25.91,25.91,0,0,1-7.92,1" style="fill:#ed9140"/><path d="M56.58,19.13A16.11,16.11,0,0,0,52,15.3a3.32,3.32,0,0,0-.64,1.64Z" style="fill:#ffce92"/><path d="M41.81,13.93a1.37,1.37,0,1,1-1.36,1.37,1.24,1.24,0,0,1,1.36-1.37" style="fill:#fff;fill-rule:evenodd"/><path d="M31.15,50.75a1,1,0,0,0-.73-.27.82.82,0,0,0-.63.27.8.8,0,0,0-.28.64v4.37a.81.81,0,0,0,.28.64,1,1,0,0,0,.63.27.82.82,0,0,0,.64-.27.84.84,0,0,0,.27-.64V51.39a.51.51,0,0,0-.18-.64m-3.55,0h0a1.15,1.15,0,0,0-.82.36,1.17,1.17,0,0,0-.37.73c0,.28-.09.55-.09.82v2.46a1.32,1.32,0,0,0,1.1,1.1h.09a.76.76,0,0,0,.54-.28.79.79,0,0,0,.28-.63V51.57a.81.81,0,0,0-.28-.64A.69.69,0,0,0,27.6,50.75Zm6.56.45a1.14,1.14,0,0,0-.73-.36h-.09a.82.82,0,0,0-.55.27.85.85,0,0,0-.27.64v3.92a.84.84,0,0,0,.27.64c.09.18.28.18.46.27h.09a1.14,1.14,0,0,0,.73-.36,2.51,2.51,0,0,0,.45-.82c0-.28.1-.55.1-.82V52.94a2.28,2.28,0,0,0-.1-.82A1.25,1.25,0,0,0,34.16,51.2Z" style="fill:#ed9140"/><path d="M31.52,53.85a1.3,1.3,0,0,1-1,.73c-.36,0-.72-.28-1-.82V51.39a.8.8,0,0,1,.28-.64.93.93,0,0,1,.63-.27,1,1,0,0,1,.73.27.83.83,0,0,1,.28.64v2.18Zm-3.19-.46a1.16,1.16,0,0,1-1,.64,1.4,1.4,0,0,1-1.1-.82v-.55a2.58,2.58,0,0,1,.09-.82,1.17,1.17,0,0,1,.37-.73,1.11,1.11,0,0,1,.73-.36h.09a.78.78,0,0,1,.54.27.81.81,0,0,1,.28.64Zm5.83-2.19a1.14,1.14,0,0,0-.73-.36h-.09a.82.82,0,0,0-.55.27.85.85,0,0,0-.27.64V53.3c.27.46.64.82,1,.82a1.25,1.25,0,0,0,1-.73v-.55a2.58,2.58,0,0,0-.09-.82A.86.86,0,0,0,34.16,51.2Z" style="fill:#ffb03f"/><path d="M47.28,50.75a1,1,0,0,1,.73-.27.84.84,0,0,1,.64.27.82.82,0,0,1,.27.64v4.37a.84.84,0,0,1-.27.64,1,1,0,0,1-.64.27.85.85,0,0,1-.64-.27.57.57,0,0,1-.36-.55V51.48c0-.37.09-.64.27-.73m3.65,0a1.19,1.19,0,0,1,.82.36,1.16,1.16,0,0,1,.36.73c0,.28.09.55.09.82v2.46a1.11,1.11,0,0,1-.36.73,1.15,1.15,0,0,1-.73.37H51a.77.77,0,0,1-.55-.28.82.82,0,0,1-.27-.63V51.57a.84.84,0,0,1,.27-.64C50.47,50.84,50.65,50.75,50.93,50.75Zm-6.66.45a1.16,1.16,0,0,1,.73-.36h.09a.78.78,0,0,1,.55.27.85.85,0,0,1,.27.64v3.92a.84.84,0,0,1-.27.64c-.09.18-.27.18-.45.27h-.1a1.11,1.11,0,0,1-.72-.36,2.36,2.36,0,0,1-.46-.82c0-.28-.09-.55-.09-.82V52.94a2.52,2.52,0,0,1,.09-.82A1.25,1.25,0,0,1,44.27,51.2Z" style="fill:#ed9140"/><path d="M47,53.85a1.29,1.29,0,0,0,1,.73c.37,0,.73-.28,1-.82V51.39a.82.82,0,0,0-.27-.64,1,1,0,0,0-.64-.27,1.06,1.06,0,0,0-.73.27.82.82,0,0,0-.27.64v2.18Zm3.1-.46a1.14,1.14,0,0,0,1,.64,1.39,1.39,0,0,0,1.09-.82v-.55a2.58,2.58,0,0,0-.09-.82A1.27,1.27,0,0,0,51,50.75h-.09a.78.78,0,0,0-.55.27.84.84,0,0,0-.27.64ZM44.27,51.2a1.16,1.16,0,0,1,.73-.36h.09a.78.78,0,0,1,.55.27.85.85,0,0,1,.27.64V53.3c-.27.46-.63.82-1,.82a1.27,1.27,0,0,1-1-.73v-.55A2.58,2.58,0,0,1,44,52,.86.86,0,0,1,44.27,51.2Z" style="fill:#ffb03f"/><circle cx="40.9" cy="16.49" r="4.92" style="fill:#af6bd6"/><circle cx="40.54" cy="16.58" r="3.55" style="fill:#54476e"/><circle cx="41.72" cy="15.21" r="1.18" style="fill:#fff"/></svg>