<svg xmlns="http://www.w3.org/2000/svg" fill="none" viewBox="0 0 80 80">
  <path fill="#46A4DA" d="M.3 0h80v80H.3V0Z"/>
  <path fill="#fff" d="M59 70.5a14 14 0 0 0 7-1.5 7.5 7.5 0 0 0 3.8-4.6c1.2-4.3-.8-8.2-5.2-9.8a4.3 4.3 0 0 1-3-3 9 9 0 0 0-6.8-6.5 9.7 9.7 0 0 0-11.3 4.5 2.6 2.6 0 0 1-2.6 1.4 4.8 4.8 0 0 0-4.5 2.6c-.8 1.2-1.3 1.3-2.5.7a15.8 15.8 0 0 1 10.3-29.8c6.8 2 12 7.9 11.7 14.8a6 6 0 0 0 .2 2.3c.1.5.5 1 1 1.3 3 1.4 5.6 3.9 7 7l.4.9a3.3 3.3 0 0 0 3.2 1.6c1 0 1-1.2 1.2-1.9l.3-.7a30.7 30.7 0 1 0-58.7-2.4c1.4 5.7 4.6 11 9 14.9 6.3 6 14 8 22.3 8.4 3.2.2 6.4 0 9.6 0l7.6-.2Z"/>
</svg>
