<svg xmlns="http://www.w3.org/2000/svg" viewBox="0 0 80 80"><path d="M74.63 20A39.76 39.76 0 0060.08 5.46 39.09 39.09 0 0040 .1a39.09 39.09 0 00-20.08 5.36A39.87 39.87 0 005.36 20 39.18 39.18 0 000 40.09a38.86 38.86 0 007.63 23.52 39.19 39.19 0 0019.71 14.45 2.35 2.35 0 002.09-.36 2 2 0 00.67-1.56v-2.82-4.63l-1.2.21a15.81 15.81 0 01-2.89.18 22.12 22.12 0 01-3.62-.37 8 8 0 01-3.49-1.56A6.59 6.59 0 0116.56 64L16 62.75a12.87 12.87 0 00-1.6-2.65 6.14 6.14 0 00-2.27-2l-.36-.26a4.46 4.46 0 01-.68-.63 3 3 0 01-.47-.73q-.15-.36.27-.6a3.31 3.31 0 011.51-.23l1 .15a7.69 7.69 0 012.6 1.27 8.43 8.43 0 012.53 2.71 9.26 9.26 0 002.9 3.22 6.2 6.2 0 003.41 1.12 15 15 0 003-.26 10.39 10.39 0 002.34-.79 8.48 8.48 0 012.56-5.36 35.45 35.45 0 01-5.34-.94 21.44 21.44 0 01-4.9-2 14.08 14.08 0 01-4.19-3.49 16.74 16.74 0 01-2.73-5.47 25.74 25.74 0 01-1.1-7.81 15.2 15.2 0 014.11-10.73q-1.92-4.74.37-10.62c1-.32 2.5-.08 4.48.7a31.82 31.82 0 014.35 2c.92.56 1.65 1 2.21 1.41a37.71 37.71 0 0120 0l2-1.25a27.81 27.81 0 014.79-2.29 6.73 6.73 0 014.21-.56q2.34 5.88.42 10.62A15.2 15.2 0 0165.52 38a26.36 26.36 0 01-1.07 7.84 16.19 16.19 0 01-2.76 5.47 14.56 14.56 0 01-4.22 3.46 21.19 21.19 0 01-4.89 2 35.45 35.45 0 01-5.34.94Q50 60.09 50 65.15v11a2.07 2.07 0 00.65 1.57 2.29 2.29 0 002.06.36 39.19 39.19 0 0019.66-14.47A38.86 38.86 0 0080 40.09 39.09 39.09 0 0074.63 20z"/></svg>