<svg xmlns="http://www.w3.org/2000/svg" viewBox="0 0 80 80"><defs><style>.a{fill:#1f1f1f;fill-rule:evenodd}</style></defs><path class="a" d="M79.3 56.4c-1.6 2-5.4 3.4-5.4 3.4L45.4 70v-7.5l21-7.5c2.4-.9 2.8-2 .8-2.7a14.3 14.3 0 0 0-7.8.4l-14 5v-8l.8-.2a48 48 0 0 1 9.7-2A41.5 41.5 0 0 1 74 49.6c6.2 2 6.8 4.8 5.3 6.8z"/><path class="a" d="M48.1 43.5V24.2c0-2.2-.4-4.3-2.5-4.9-1.6-.5-2.7 1-2.7 3.3v48.3l-13-4.2V9.1a157.8 157.8 0 0 1 18 5c11 3.7 14.8 8.5 14.8 19 0 10.4-6.4 14.4-14.6 10.4zM6 61.7c-6.3-1.8-7.4-5.5-4.5-7.7a31.1 31.1 0 0 1 7.2-3.4L27.4 44v7.6l-13.5 4.7c-2.3.9-2.7 2-.8 2.7a14.2 14.2 0 0 0 7.8-.4l6.5-2.3V63l-1.3.2A42.4 42.4 0 0 1 6 61.7z"/></svg>
