<svg xmlns="http://www.w3.org/2000/svg" fill="none" viewBox="0 0 80 80">
    <path fill="currentColor" fill-rule="evenodd" d="M61.5 80h-43A18.4 18.4 0 0 1 0 61.6V18.5A18.4 18.4 0 0 1 18.4 0h43.1A18.4 18.4 0 0 1 80 18.5v43A18.4 18.4 0 0 1 61.5 80ZM23 30.3a4.7 4.7 0 0 0 4.2-2 6.2 6.2 0 0 0 1.5-4.6 6 6 0 0 0-4.4 2.5 5.4 5.4 0 0 0-1.3 4v.1Zm-4.7.4c-3.3 0-6.8 3-6.8 8.7 0 5.7 4.2 13.1 7.5 13.1 1.1 0 2.9-1.2 4.7-1.2 1.8 0 3 1.2 4.6 1.2 3.6 0 6.3-7.7 6.3-7.7a6.4 6.4 0 0 1-.8-11.3 6.3 6.3 0 0 0-5.5-3c-2.3 0-4 1.4-5 1.4-1.2 0-2.8-1.2-5-1.2ZM46.5 52c.8-.3 1.6-.7 2.3-1.3l-1.4-2.1-.3-.3-.3-.1h-.3l-.4.3-.5.2a2 2 0 0 1-.7 0 1.5 1.5 0 0 1-1.2-.4 2 2 0 0 1-.4-1.4V37h5v-3.3h-5v-5.9H41c-.2 0-.5 0-.7.2a1 1 0 0 0-.3.6l-1 5.1-3 .5V36c0 .3.1.5.3.7l.6.2h1.9v10.4c0 1.4.4 2.8 1.3 3.8a5 5 0 0 0 3.7 1.4 8 8 0 0 0 2.7-.4V52Zm22-18.5H65c-.3 0-.6 0-.8.2l-.4.6-3.7 10-.6 1.7-.3 1.7-1-3.4-3.5-10c0-.3-.3-.5-.5-.6l-.8-.2h-3.7L57 52.2h4l7.5-18.7Z" clip-rule="evenodd"/>
</svg>
