<svg id="bef6bfb6-89f3-49ef-ae40-167eb3f795db" data-name="Logos" xmlns="http://www.w3.org/2000/svg" xmlns:xlink="http://www.w3.org/1999/xlink" viewBox="0 0 80 80"><defs><linearGradient id="a4660f13-7e5e-4d12-a2a6-953325d5a471" x1="39.5" y1="-646" x2="39.5" y2="-726" gradientTransform="matrix(1, 0, 0, -1, 0, -646)" gradientUnits="userSpaceOnUse"><stop offset="0" stop-color="#606acb"/><stop offset="1" stop-color="#2a349a"/></linearGradient><linearGradient id="f32a8ab1-5f49-42db-b3e5-9d6fe1bc8929" x1="26.97" y1="-707.4" x2="26.97" y2="-664.4" gradientTransform="matrix(1, 0, 0, -1, 0, -646)" gradientUnits="userSpaceOnUse"><stop offset="0" stop-color="#fff" stop-opacity="0.85"/><stop offset="1" stop-color="#fff"/></linearGradient><linearGradient id="a37d695e-d635-4c9a-ae45-05d27bb2368a" x1="31.19" y1="-707.4" x2="31.19" y2="-664.4" xlink:href="#f32a8ab1-5f49-42db-b3e5-9d6fe1bc8929"/><linearGradient id="aba6bdec-3832-44c0-a2c7-76875c62fee1" x1="35.21" y1="-707.4" x2="35.21" y2="-664.4" xlink:href="#f32a8ab1-5f49-42db-b3e5-9d6fe1bc8929"/><linearGradient id="f158b496-11fa-4ee5-af3b-2c188d915dc1" x1="41.98" y1="-707.4" x2="41.98" y2="-664.4" xlink:href="#f32a8ab1-5f49-42db-b3e5-9d6fe1bc8929"/></defs><rect x="-0.5" width="80" height="80" rx="14.4" style="fill:url(#a4660f13-7e5e-4d12-a2a6-953325d5a471)"/><path d="M18.17,43.53l17.6,17.6A21.53,21.53,0,0,1,18.17,43.53Z" style="fill:url(#f32a8ab1-5f49-42db-b3e5-9d6fe1bc8929)"/><path d="M17.9,38.75,40.55,61.4a21.29,21.29,0,0,0,3.93-.58l-26-26A21.16,21.16,0,0,0,17.9,38.75Z" style="fill:url(#a37d695e-d635-4c9a-ae45-05d27bb2368a)"/><path d="M19.6,31.44,47.86,59.7a22.54,22.54,0,0,0,3-1.56L21.15,28.48A21.34,21.34,0,0,0,19.6,31.44Z" style="fill:url(#aba6bdec-3832-44c0-a2c7-76875c62fee1)"/><path d="M23.07,25.89A21.51,21.51,0,1,1,53.41,56.23Z" style="fill:url(#f158b496-11fa-4ee5-af3b-2c188d915dc1)"/></svg>