<svg xmlns="http://www.w3.org/2000/svg" viewBox="0 0 80 80"><defs><style>.a{fill:#9386a0;fill-rule:evenodd}</style></defs><path class="a" d="M40.6 34a3 3 0 0 1 2.3-1.3A3.1 3.1 0 0 1 42 35a2.4 2.4 0 0 1-2.1 1 2.8 2.8 0 0 1 .6-2zm-.5 3c.5 0 1.4-.8 2.5-.8a3.2 3.2 0 0 1 2.8 1.5 3.2 3.2 0 0 0-1.5 2.8 3.2 3.2 0 0 0 2 3s-1.4 3.8-3.2 3.8c-.9 0-1.5-.5-2.4-.5s-1.8.6-2.4.6c-1.6 0-3.7-3.7-3.7-6.7s1.7-4.4 3.4-4.4c1.1 0 2 .6 2.5.6z"/><path class="a" d="M26.9 64.4a9.1 9.1 0 0 1-9.1-9V24.6a9.1 9.1 0 0 1 9-9.1H51a9.1 9.1 0 0 1 9.1 9v30.7a9.1 9.1 0 0 1-9.1 9.1zm-5.6-.5a10.2 10.2 0 0 1-4.7-8.6V24.7a10.2 10.2 0 0 1 4.6-8.5A10.5 10.5 0 0 0 25 12c1-2.5 1.2-8.2 1.8-9.5S28.5.3 32.4 0h13.2c3.9.2 4.9 1 5.5 2.4s.8 7 1.9 9.5a10.5 10.5 0 0 0 3.8 4.2 10.2 10.2 0 0 1 4.5 8.5v1h1a1.1 1.1 0 0 1 1.1 1v6.6a1.1 1.1 0 0 1-1.1 1.2h-1v20.8a10.2 10.2 0 0 1-4.7 8.6 10 10 0 0 0-3.7 5.4 42.7 42.7 0 0 0-1.1 7.6 3 3 0 0 1-.8 1.3c-.5.4-1.2 1.6-9 1.8h-6.2c-7.7-.2-8.4-1.4-9-1.8a3 3 0 0 1-.6-1.4 42.7 42.7 0 0 0-1.2-7.5 10 10 0 0 0-3.7-5.4"/></svg>
