<svg xmlns="http://www.w3.org/2000/svg" fill="none" viewBox="0 0 80 80">
  <path fill="url(#logo-cloudflare-worker-b)" d="M20.6 5 30 22l-8.7 15.5a5 5 0 0 0 0 5L30 58l-9.4 17a10 10 0 0 1-4.3-4l-15-26a10 10 0 0 1 0-10l15-26c1-1.8 2.5-3.2 4.3-4Z"/>
  <path fill="url(#logo-cloudflare-worker-c)" d="M21.3 37.6a5 5 0 0 0 0 4.8L30 58l-9.4 17a10 10 0 0 1-4.3-4l-15-26c-1.2-2 5.5-4.5 20-7.4Z" opacity=".7"/>
  <path fill="url(#logo-cloudflare-worker-d)" d="M21.5 6.7 30 22l-1.4 2.4L21 11.8c-2.1-3.5-5.4-1.7-9.5 5.4l.6-1 4.1-7.3c1-1.7 2.5-3 4.2-4l1 1.8Z" opacity=".5"/>
  <path fill="url(#logo-cloudflare-worker-e)" d="m63.7 9 15 26c1.7 3 1.7 7 0 10l-15 26a10 10 0 0 1-8.7 5H40l18.7-33.6a5 5 0 0 0 0-4.8L40 3.9h15a10 10 0 0 1 8.7 5Z"/>
  <path fill="url(#logo-cloudflare-worker-f)" d="M54.2 76H39.4l18-33.7a5.2 5.2 0 0 0 0-5L39.3 4h3.4l18.8 33.3a5.2 5.2 0 0 1 0 5.2l-12 21.1C45.8 70 47.4 74.1 54.1 76Z"/>
  <path fill="url(#logo-cloudflare-worker-g)" d="M25 76c-1.5 0-3-.3-4.4-1L39 41.7a4 4 0 0 0 0-3.4L20.6 5A10 10 0 0 1 25 4h15l18.7 33.6a5 5 0 0 1 0 4.8L40 76.1H25Z"/>
  <path fill="url(#logo-cloudflare-worker-h)" d="M57.3 38.3 38.3 4H40l18.7 33.7a5 5 0 0 1 0 4.8L40 76.1h-1.7l19-34.4c.6-1 .6-2.3 0-3.4Z" opacity=".6"/>
  <path fill="url(#logo-cloudflare-worker-i)" d="M39 38.3 20.7 5l1.9-.8 18 33.4a5 5 0 0 1 0 4.8L22.3 75.7l-1.6-.6L39 41.7a4 4 0 0 0 0-3.4Z" opacity=".6"/>
  <defs>
    <linearGradient id="logo-cloudflare-worker-b" x1="1499.7" x2="-1572.4" y1="7012.2" y2="2071.6" gradientUnits="userSpaceOnUse">
      <stop stop-color="#EB6F07"/>
      <stop offset="1" stop-color="#FAB743"/>
    </linearGradient>
    <linearGradient id="logo-cloudflare-worker-c" x1="2333.6" x2="751.9" y1="3173.8" y2="1547" gradientUnits="userSpaceOnUse">
      <stop stop-color="#D96504"/>
      <stop offset="1" stop-color="#D96504" stop-opacity="0"/>
    </linearGradient>
    <linearGradient id="logo-cloudflare-worker-d" x1="785.5" x2="1622.9" y1="174.1" y2="1519.3" gradientUnits="userSpaceOnUse">
      <stop stop-color="#EB6F07"/>
      <stop offset="1" stop-color="#EB720A" stop-opacity="0"/>
    </linearGradient>
    <linearGradient id="logo-cloudflare-worker-e" x1="2040.2" x2="-710.6" y1="7217" y2="1485.1" gradientUnits="userSpaceOnUse">
      <stop stop-color="#EE6F05"/>
      <stop offset="1" stop-color="#FAB743"/>
    </linearGradient>
    <linearGradient id="logo-cloudflare-worker-f" x1="-719.9" x2="3684.3" y1="7218.9" y2="6101.1" gradientUnits="userSpaceOnUse">
      <stop stop-color="#D96504" stop-opacity=".8"/>
      <stop offset=".5" stop-color="#D96504" stop-opacity=".2"/>
      <stop offset="1" stop-color="#D96504" stop-opacity="0"/>
    </linearGradient>
    <linearGradient id="logo-cloudflare-worker-g" x1="1956.1" x2="-850.8" y1="7217" y2="1557" gradientUnits="userSpaceOnUse">
      <stop stop-color="#FFA95F"/>
      <stop offset="1" stop-color="#FFEBC8"/>
    </linearGradient>
    <linearGradient id="logo-cloudflare-worker-h" x1="208.5" x2="2549.3" y1="83.3" y2="451.3" gradientUnits="userSpaceOnUse">
      <stop stop-color="#fff" stop-opacity=".5"/>
      <stop offset="1" stop-color="#fff" stop-opacity=".1"/>
    </linearGradient>
    <linearGradient id="logo-cloudflare-worker-i" x1="-262.1" x2="1924.1" y1="7448.1" y2="4957.1" gradientUnits="userSpaceOnUse">
      <stop stop-color="#fff" stop-opacity=".5"/>
      <stop offset="1" stop-color="#fff" stop-opacity=".1"/>
    </linearGradient>
  </defs>
</svg>
