<svg width="80" height="80" fill="none" xmlns="http://www.w3.org/2000/svg"><path d="M74 55.9v-36L43 2v13.8l12.1 7a.7.7 0 0 1 0 1.2l-14.4 8.4a1.4 1.4 0 0 1-1.4 0L25 24a.7.7 0 0 1-.3-1 .7.7 0 0 1 .3-.2l12.1-7V2L6 20v35.9l11.9-7V35a.7.7 0 0 1 .7-.7l.3.1 14.5 8.4a1.4 1.4 0 0 1 .6 1.2v16.7a.7.7 0 0 1-1 .6l-12.1-7-12 6.8L40 79l31-18-11.9-6.9-12.1 7a.7.7 0 0 1-1-.5V43.9a1.4 1.4 0 0 1 .6-1.2l14.5-8.4a.7.7 0 0 1 1 .6v14L74 56Z" fill="#4C4C4C"/><path d="m40 79 31-18-11.9-6.8-12.1 7a.7.7 0 0 1-1-.6V43.9a1.4 1.4 0 0 1 .6-1.2l14.5-8.3a.7.7 0 0 1 1 .5V49L74 56V20L40 39.7V79Z" fill="#000"/><path d="M43 2v14L55 23a.7.7 0 0 1 .4.6.7.7 0 0 1-.4.6l-14.4 8.4a1.3 1.3 0 0 1-1.4 0L25 24.2a.7.7 0 0 1-.4-.6.7.7 0 0 1 .4-.6L37 16V2L6 20.1 40 40l34-19.9L43 2Z" fill="gray"/><path d="m33 61.2-12.1-7-12 6.8L40 79V39.7L6 20v35.9L17.9 49V35a.7.7 0 0 1 1-.6l14.5 8.3A1.4 1.4 0 0 1 34 44v16.7a.7.7 0 0 1-.6.7.7.7 0 0 1-.4-.1Z" fill="#4C4C4C"/></svg>
