<svg xmlns="http://www.w3.org/2000/svg" viewBox="0 0 80 80"><defs><radialGradient id="b" cx="250.26" cy="-18.9" r=".21" gradientTransform="matrix(384 0 0 -390.47 -96031.91 -7361.99)" gradientUnits="userSpaceOnUse"><stop offset=".13" stop-color="#ffbd4f"/><stop offset=".28" stop-color="#ff980e"/><stop offset=".47" stop-color="#ff3750"/><stop offset=".78" stop-color="#eb0878"/><stop offset=".86" stop-color="#e50080"/></radialGradient><radialGradient id="c" cx="250.31" cy="-19.09" r=".21" gradientTransform="matrix(393.6 0 0 -390.47 -98484.62 -7412.36)" gradientUnits="userSpaceOnUse"><stop offset=".3" stop-color="#960e18"/><stop offset=".35" stop-color="#b11927" stop-opacity=".74"/><stop offset=".43" stop-color="#db293d" stop-opacity=".34"/><stop offset=".5" stop-color="#f5334b" stop-opacity=".09"/><stop offset=".53" stop-color="#ff3750" stop-opacity="0"/></radialGradient><radialGradient id="d" cx="247.08" cy="-19.49" r=".23" gradientTransform="matrix(115.24 0 0 -195.64 -28425.06 -3816.14)" gradientUnits="userSpaceOnUse"><stop offset=".13" stop-color="#fff44f"/><stop offset=".53" stop-color="#ff980e"/></radialGradient><radialGradient id="e" cx="249.27" cy="-19.12" r=".16" gradientTransform="matrix(213.48 0 0 -233.98 -53184.79 -4411.51)" gradientUnits="userSpaceOnUse"><stop offset=".35" stop-color="#3a8ee6"/><stop offset=".67" stop-color="#9059ff"/><stop offset="1" stop-color="#c139e6"/></radialGradient><radialGradient id="f" cx="249.12" cy="-19" r=".1" gradientTransform="matrix(192.13 0 0 -233.98 -47826.37 -4411.51)" gradientUnits="userSpaceOnUse"><stop offset=".21" stop-color="#9059ff" stop-opacity="0"/><stop offset=".97" stop-color="#6e008b" stop-opacity=".6"/></radialGradient><radialGradient id="g" cx="245.35" cy="-19.16" r=".47" gradientTransform="matrix(58.52 0 0 -58.73 -14321.24 -1119.3)" gradientUnits="userSpaceOnUse"><stop offset=".1" stop-color="#ffe226"/><stop offset=".79" stop-color="#ff7139"/></radialGradient><radialGradient id="h" cx="250.54" cy="-19.02" r=".29" gradientTransform="matrix(450.15 0 0 -377.88 -112720.75 -7198.65)" gradientUnits="userSpaceOnUse"><stop offset=".11" stop-color="#fff44f"/><stop offset=".46" stop-color="#ff980e"/><stop offset=".72" stop-color="#ff3647"/><stop offset=".9" stop-color="#e31587"/></radialGradient><radialGradient id="i" cx="251.78" cy="-22.32" r=".56" gradientTransform="matrix(16.08 151.87 153.03 -15.96 -583.08 -38604.9)" gradientUnits="userSpaceOnUse"><stop offset="0" stop-color="#fff44f"/><stop offset=".3" stop-color="#ff980e"/><stop offset=".57" stop-color="#ff3647"/><stop offset=".74" stop-color="#e31587"/></radialGradient><radialGradient id="j" cx="248.86" cy="-18.66" r=".38" gradientTransform="matrix(195.14 0 0 -191.71 -48524.55 -3561.95)" gradientUnits="userSpaceOnUse"><stop offset=".14" stop-color="#fff44f"/><stop offset=".48" stop-color="#ff980e"/><stop offset=".66" stop-color="#ff3647"/><stop offset=".9" stop-color="#e31587"/></radialGradient><radialGradient id="k" cx="249.48" cy="-18.52" r=".51" gradientTransform="matrix(178.59 0 0 -159.77 -44497.81 -2938.38)" gradientUnits="userSpaceOnUse"><stop offset=".09" stop-color="#fff44f"/><stop offset=".63" stop-color="#ff980e"/></radialGradient><linearGradient id="a" x1="250.59" y1="-19.22" x2="250.46" y2="-19.35" gradientTransform="matrix(480 0 0 -496 -120213.92 -9522.97)" gradientUnits="userSpaceOnUse"><stop offset=".05" stop-color="#fff44f"/><stop offset=".37" stop-color="#ff980e"/><stop offset=".53" stop-color="#ff3647"/><stop offset=".7" stop-color="#e31587"/></linearGradient><linearGradient id="l" x1="250.58" y1="-19.23" x2="250.48" y2="-19.34" gradientTransform="matrix(480 0 0 -496 -120212.91 -9522.97)" gradientUnits="userSpaceOnUse"><stop offset=".17" stop-color="#fff44f" stop-opacity=".8"/><stop offset=".6" stop-color="#fff44f" stop-opacity="0"/></linearGradient></defs><path d="M75.92 26.83c-1.68-4-5.1-8.43-7.77-9.81a40.13 40.13 0 013.92 11.77.28.28 0 000 .06C67.69 17.92 60.26 13.52 54.19 3.93l-.91-1.49c-.15-.26-.29-.53-.43-.8a7.42 7.42 0 01-.58-1.53.08.08 0 00-.08-.1h-.12V0c-9.73 5.7-13 16.25-13.34 21.53a19.42 19.42 0 00-10.67 4.11c-.32-.27-.66-.52-1-.76a17.9 17.9 0 01-.06-9.46 28.68 28.68 0 00-9.33 7.21c-1.54-1.95-1.43-8.37-1.34-9.71a7.31 7.31 0 00-1.3.69 28.48 28.48 0 00-3.78 3.24 34 34 0 00-3.62 4.34 32.66 32.66 0 00-5.2 11.75l-.06.25c-.07.34-.33 2.05-.38 2.42a.28.28 0 010 .09 36.87 36.87 0 00-.7 5.3v.2a38.76 38.76 0 0077 6.56c.07-.49.12-1 .18-1.49a39.85 39.85 0 00-2.55-19.44zM31.24 57.17l.54.26zm40.84-28.31z" fill="url(#a)"/><path d="M75.92 26.83c-1.68-4-5.1-8.43-7.77-9.81a40.13 40.13 0 013.92 11.77v.07A35.09 35.09 0 0170.88 55c-4.45 9.53-15.2 19.3-32 18.83-18.19-.52-34.21-14-37.2-31.69-.55-2.78 0-4.2.27-6.46a29.44 29.44 0 00-.63 5.35v.19a38.76 38.76 0 0077 6.56c.07-.49.12-1 .18-1.49a39.85 39.85 0 00-2.58-19.46z" fill="url(#b)"/><path d="M75.92 26.83c-1.68-4-5.1-8.43-7.77-9.81a40.13 40.13 0 013.92 11.77v.07A35.09 35.09 0 0170.88 55c-4.45 9.53-15.2 19.3-32 18.83-18.19-.52-34.21-14-37.2-31.69-.55-2.78 0-4.2.27-6.46a29.44 29.44 0 00-.63 5.35v.19a38.76 38.76 0 0077 6.56c.07-.49.12-1 .18-1.49a39.85 39.85 0 00-2.58-19.46z" fill="url(#c)"/><path d="M57.08 31.39l.25.17a21.6 21.6 0 00-3.6-4.69C41.68 14.82 50.57.75 52.07 0c-9.73 5.7-13 16.25-13.34 21.53.45 0 .9-.07 1.36-.07a19.53 19.53 0 0117 9.92z" fill="url(#d)"/><path d="M40.12 33.79c-.06 1-3.47 4.29-4.66 4.29-11 0-12.81 6.67-12.81 6.67.49 5.61 4.4 10.24 9.13 12.68l.66.32c.37.16.75.32 1.13.46a17.12 17.12 0 005 1c19.32.91 23.06-23.09 9.12-30.06a13.33 13.33 0 019.34 2.27 19.53 19.53 0 00-17-9.92c-.46 0-.91 0-1.36.07A19.42 19.42 0 0028 25.68c.59.5 1.26 1.17 2.66 2.55 2.63 2.59 9.38 5.28 9.39 5.59z" fill="url(#e)"/><path d="M40.12 33.79c-.06 1-3.47 4.29-4.66 4.29-11 0-12.81 6.67-12.81 6.67.49 5.61 4.4 10.24 9.13 12.68l.66.32c.37.16.75.32 1.13.46a17.12 17.12 0 005 1c19.32.91 23.06-23.09 9.12-30.06a13.33 13.33 0 019.34 2.27 19.53 19.53 0 00-17-9.92c-.46 0-.91 0-1.36.07A19.42 19.42 0 0028 25.68c.59.5 1.26 1.17 2.66 2.55 2.63 2.59 9.38 5.28 9.39 5.59z" fill="url(#f)"/><path d="M26.26 24.36l.81.53a17.9 17.9 0 01-.07-9.47 28.68 28.68 0 00-9.33 7.21c.18 0 5.81-.11 8.63 1.73z" fill="url(#g)"/><path d="M1.65 42.16c3 17.68 19 31.17 37.2 31.69 16.83.47 27.58-9.3 32-18.83a35.09 35.09 0 001.2-26.16v-.07a.28.28 0 000 .06c1.37 9-3.19 17.67-10.33 23.56v.05c-13.91 11.32-27.23 6.83-29.92 5l-.57-.28c-8.1-3.89-11.45-11.28-10.73-17.61a10 10 0 01-9.18-5.78 14.63 14.63 0 0114.25-.57 19.29 19.29 0 0014.55.57c0-.31-6.76-3-9.39-5.59-1.4-1.38-2.07-2.05-2.66-2.55-.32-.27-.66-.52-1-.76l-.81-.53c-2.82-1.84-8.45-1.74-8.63-1.73-1.54-1.95-1.43-8.37-1.34-9.71a7.31 7.31 0 00-1.3.69 28.48 28.48 0 00-3.78 3.24 34 34 0 00-3.62 4.34 32.66 32.66 0 00-5.2 11.75c0 .08-1.4 6.1-.72 9.22z" fill="url(#h)"/><path d="M53.73 26.87a21.6 21.6 0 013.6 4.69 7.41 7.41 0 01.58.48c8.78 8.1 4.18 19.55 3.84 20.36 7.14-5.88 11.7-14.57 10.33-23.55-4.39-10.93-11.82-15.33-17.89-24.92l-.91-1.49c-.15-.26-.29-.53-.43-.8a7.42 7.42 0 01-.58-1.53.08.08 0 00-.08-.1h-.12c-1.5.72-10.39 14.79 1.66 26.84z" fill="url(#i)"/><path d="M57.91 32a7.41 7.41 0 00-.58-.48l-.25-.17a13.34 13.34 0 00-9.34-2.27c13.94 7 10.2 31-9.12 30.06a17.12 17.12 0 01-5-1c-.38-.14-.76-.3-1.13-.46-.22-.1-.44-.2-.66-.32 2.69 1.84 16 6.33 29.92-5v-.06c.34-.81 4.94-12.26-3.84-20.36z" fill="url(#j)"/><path d="M22.65 44.75s1.79-6.67 12.81-6.67c1.2 0 4.6-3.32 4.66-4.29s-7 3-14.55-.57a14.63 14.63 0 00-14.25.57 10 10 0 009.18 5.78c-.72 6.33 2.63 13.72 10.74 17.6l.54.26c-4.73-2.43-8.64-7.07-9.13-12.68z" fill="url(#k)"/><path d="M75.92 26.83c-1.68-4-5.1-8.43-7.77-9.81a40.13 40.13 0 013.92 11.77.28.28 0 000 .06C67.69 17.92 60.26 13.52 54.19 3.93l-.91-1.49c-.15-.26-.29-.53-.43-.8a7.42 7.42 0 01-.58-1.53.08.08 0 00-.08-.1h-.12V0c-9.73 5.7-13 16.25-13.34 21.53.45 0 .9-.07 1.36-.07a19.55 19.55 0 0117 9.92 13.34 13.34 0 00-9.34-2.27c13.94 7 10.2 31-9.12 30.06a17.12 17.12 0 01-5-1c-.38-.14-.76-.3-1.13-.46-.22-.1-.44-.2-.66-.32l-.57-.28.54.26c-4.73-2.44-8.64-7.07-9.13-12.68 0 0 1.79-6.67 12.81-6.67 1.19 0 4.6-3.32 4.66-4.29 0-.31-6.76-3-9.39-5.59-1.4-1.38-2.07-2.05-2.66-2.55-.32-.27-.66-.52-1-.76a17.9 17.9 0 01-.1-9.47 28.58 28.58 0 00-9.33 7.21c-1.54-1.95-1.43-8.37-1.34-9.71a7.31 7.31 0 00-1.3.69 29.21 29.21 0 00-3.79 3.24 34.77 34.77 0 00-3.61 4.34 32.66 32.66 0 00-5.2 11.75l-.06.25c-.07.34-.4 2.08-.44 2.45a46.59 46.59 0 00-.58 5.41v.19a38.76 38.76 0 0077 6.56c.07-.49.12-1 .18-1.49a39.85 39.85 0 00-2.61-19.42zm-3.84 2z" fill="url(#l)"/></svg>