<svg xmlns="http://www.w3.org/2000/svg" viewBox="0 0 80 80"><path d="M71.79 19.55a8.22 8.22 0 00-8 6.18H52.41a8.14 8.14 0 00-8.14 8.13 4.07 4.07 0 01-4.06 4.07h-1.64a8.19 8.19 0 00-15.88 0h-6.54a8.21 8.21 0 100 4.07h6.54a8.2 8.2 0 0015.87.07h1.65a4.07 4.07 0 014.07 4.07 8.14 8.14 0 008.13 8.13h2.67a8.21 8.21 0 100-4.06h-2.67a4.08 4.08 0 01-4.07-4.07A8.11 8.11 0 0045.53 40a8.11 8.11 0 002.81-6.14 4.07 4.07 0 014.07-4.06h11.44a8.2 8.2 0 107.94-10.25zM8.22 44.1a4.14 4.14 0 114.14-4.1 4.14 4.14 0 01-4.14 4.1zm22.42 0a4.14 4.14 0 114.14-4.1 4.14 4.14 0 01-4.14 4.1zm32.38 4a4.15 4.15 0 11-4.15 4.15A4.15 4.15 0 0163 48.09zm8.77-16.2a4.14 4.14 0 114.14-4.14 4.15 4.15 0 01-4.14 4.14z" fill="#ff6d5a"/></svg>