<svg xmlns="http://www.w3.org/2000/svg" fill="none" viewBox="0 0 80 80">
  <path fill="#E60012" d="M80 0H0v80h80V0Z"/>
  <path fill="#fff" d="M43.4 47.45h5.525c5.0875 0 9.2125-4.125 9.2125-9.2125v-17.5c0-5.0875-4.125-9.2125-9.2125-9.2125h-5.5625c-.125 0-.2375.1-.2375.2375v35.425c0 .15.1125.2625.2625.2625m6.8375-19.8c2 0 3.6375 1.625 3.6375 3.6375s-1.625 3.6375-3.6375 3.6375-3.6375-1.625-3.6375-3.6375 1.625-3.6375 3.6375-3.6375ZM39.2625 11.525h-7.85c-5.0875 0-9.2125 4.125-9.2125 9.2125v17.5c0 5.0875 4.125 9.2125 9.2125 9.2125h7.85c.15 0 .2625-.1125.2625-.2625V11.8c0-.15-.1125-.2625-.2625-.2625m-2.6375 33.025H31.4c-1.6875 0-3.275-.6625-4.4625-1.85-1.1875-1.1875-1.85-2.775-1.85-4.4625v-17.5c0-1.6875.6625-3.275 1.85-4.4625 1.1875-1.1875 2.775-1.85 4.4625-1.85h5.225v30.125Zm-8.8375-22.25c0 1.8625 1.5125 3.375 3.375 3.375s3.375-1.5125 3.375-3.375-1.5125-3.375-3.375-3.375-3.375 1.5125-3.375 3.375ZM14.6 54.4125l2.225 3h.8875V52.925H16.8v2.95l-2.2125-2.95h-.9v4.4875H14.6v-3Zm21.9-1.4875h-3.8v.95h1.4375v3.5375H35.1V53.875h1.4v-.95Zm-.275 15.2375h1.8875V59.7H36.225v8.4625ZM26.3875 54.4l2.225 3H29.5v-4.4875h-.9125v2.95l-2.2125-2.95h-.9V57.4h.9125v-3Zm4.25 11.4375L28.85 59.7h-1.5l-1.7875 6.1125-1.625-6.1125H22.1l2.4 8.4625h2.0375l1.575-5.575 1.5625 5.575h2.0375L34.125 59.7h-1.8375L30.65 65.8375h-.0125ZM17.2 63.025c-1.225-.2-2.0125-.425-2.0125-1 0-.6625.875-.9125 2.0625-.9125 1.1 0 2.2.4125 2.5875.5875l.6-1.4625c-.425-.175-1.775-.65-3.275-.65-1.825 0-3.775.8875-3.775 2.55 0 1.3375.95 2.025 3.375 2.4375 1.7125.3 2.65.4625 2.625 1.1875-.0125.4-.325 1.0875-2.2625 1.0875-1.55 0-2.65-.5625-3.025-.7875l-.8 1.45c.425.225 1.8625.9 3.7.9 2.6875 0 4.1125-.9375 4.1125-2.7 0-1.025-.35-2.0875-3.925-2.675m4.8875-10.1h-1v4.4875h1v-4.4875Zm28.9125 4.4875v-4.4875h-.9125v2.95l-2.2125-2.95h-.9v4.4875h.9125v-3l2.225 3h.8875ZM43.25 56.6h-2.575v-1.05h2.3875v-.8125H40.675v-.9625h2.575v-.825h-3.4875v4.4875H43.25V56.6Zm23.875 10.575h.3875v1.0125h.25V67.175h.375v-.2375H67.125v.2375ZM64.2375 52.8c-1.3125 0-2.3875 1.075-2.3875 2.4s1.075 2.4 2.3875 2.4c1.3125 0 2.3875-1.075 2.3875-2.4s-1.075-2.4-2.3875-2.4Zm0 3.7875c-.775 0-1.4-.625-1.4-1.4 0-.775.625-1.4 1.4-1.4.775 0 1.3875.625 1.3875 1.4 0 .775-.625 1.4-1.3875 1.4Zm5.175 10.35-.3125.925-.3125-.925h-.35V68.2h.225v-.9625l.325.95H69.2l.325-.9625v.9625h.225V66.925h-.35l.0125.0125Zm-4.875-3.8625h-3.95v-3.3375h-1.75V68.2h1.75v-3.375h3.95V68.2h1.75v-8.4625h-1.75v3.3375ZM40.15 61.5375h2.7V68.2h1.825v-6.6625h2.6375v-1.8h-7.175v1.8h.0125ZM53.2 61.35c.95 0 1.85.5125 2.325 1.3125l1.375-1.2a4.5046 4.5046 0 0 0-3.75-2c-2.4875 0-4.5125 2.025-4.5125 4.5125 0 2.4875 2.025 4.5125 4.5125 4.5125 1.5125 0 2.9125-.75 3.75-2l-1.375-1.2c-.475.8-1.3625 1.3125-2.325 1.3125-1.475 0-2.6875-1.1875-2.6875-2.6375 0-1.45 1.2-2.6375 2.6875-2.6375m3.4375-8.3875h-1.85v4.4875h1.85c1.275 0 2.3125-1.0125 2.3125-2.2375 0-1.225-1.0375-2.2375-2.3125-2.2375m.05 3.5375h-.975v-2.6h.975c.7125 0 1.3.5875 1.3 1.3s-.5875 1.3-1.3 1.3Z"/>
</svg>
