<svg viewBox="0 0 80 80" fill="none" xmlns="http://www.w3.org/2000/svg">
<path d="M40 80C62.0914 80 80 62.0914 80 40C80 17.9086 62.0914 0 40 0C17.9086 0 0 17.9086 0 40C0 62.0914 17.9086 80 40 80Z" fill="#F2F2F2"/>
<path d="M46.8 57.35L33.925 33.6C33.775 33.325 33.6 32.95 33.3875 32.45C33.175 31.95 32.9625 31.4375 32.75 30.9C32.5375 30.3625 32.35 29.8375 32.175 29.325C32.0155 28.9159 31.8778 28.4987 31.7625 28.075H31.625C31.6875 29.125 31.7625 30.3875 31.8375 31.825C31.9125 33.2625 31.95 34.8125 31.95 36.3625V57.35H27.0375V22.25H33.425L46.25 45.825C46.5 46.25 46.7375 46.7125 46.975 47.225C47.2125 47.7375 47.45 48.25 47.675 48.775C47.9 49.3 48.1 49.7875 48.275 50.2375C48.4324 50.6049 48.5701 50.9804 48.6875 51.3625H48.825C48.825 50.975 48.75 50.4625 48.7125 49.8125C48.675 49.1625 48.6125 48.4875 48.575 47.7625C48.5375 47.0375 48.4875 46.3125 48.4625 45.5875C48.4375 44.8625 48.4625 44.2 48.4625 43.625V22.25H53.375V57.35H46.8Z" fill="#282828"/>
</svg>
