<svg xmlns="http://www.w3.org/2000/svg" viewBox="0 0 80 80"><defs><clipPath id="a"><path fill="none" d="M0 0h80v80H0z"/></clipPath></defs><g clip-path="url(#a)"><path fill="#fff" d="M0 0h80v80H0z"/><path fill="#e02853" d="M-86.86-46.02H94.78V89.9H-86.86z"/><path d="M53.77 55.72a21.63 21.63 0 01-11.7 2.92C31.82 58.64 24.3 51 24.3 40.08s7.6-18.56 17.85-18.56c6.07 0 11.53 2.65 16 7.51l5.73-11.4a31.11 31.11 0 00-21.64-8.49c-17 0-29.9 13.26-29.9 30.85s13 31 29.73 31a28.62 28.62 0 0014.18-3.18 20.48 20.48 0 005.54-4.24l-4.6-10.27s-2.53 1.88-3.42 2.42z" fill="#fff" fill-rule="evenodd"/></g></svg>