<svg data-name="Logos" xmlns="http://www.w3.org/2000/svg" viewBox="0 0 80 80"><defs><linearGradient id="a" x1="7.69" y1="16.76" x2="72.64" y2="63.48" gradientUnits="userSpaceOnUse"><stop offset="0" stop-color="#e7538e"/><stop offset="1" stop-color="#a73e97"/></linearGradient></defs><circle cx="40" cy="40" r="40" fill="url(#a)"/><circle cx="40" cy="40" r="32.14" fill="#0a2032"/><path d="M51.27 48.17c0 3.83-3 5.61-6.92 5.61a10.72 10.72 0 01-5.7-1.5v-3.92a9.45 9.45 0 005.61 2.06c1.87 0 3.08-.66 3.08-2.06s-1.12-2.06-3.45-2.62c-3.83-.84-5.42-2.43-5.42-5.6 0-3.74 2.8-5.61 6.54-5.61a10.11 10.11 0 015.32 1.4v3.74a8.66 8.66 0 00-5.14-1.87c-1.77 0-2.71.84-2.71 2.06s.75 1.87 2.9 2.43c4.11 1.02 5.89 2.52 5.89 5.88z" fill="#fff"/><path d="M40.23 35a5.58 5.58 0 00-2.37 3.46h-2.12v15.22h-4.11V38.46h-2.9V35h2.9v-3.46c0-4.57 2.52-6.82 6.26-6.82a6.37 6.37 0 013.64.94v3.73a5.61 5.61 0 00-3.17-1c-1.69 0-2.71.84-2.71 3.08V35h4.59" fill="#fff"/></svg>