<svg xmlns="http://www.w3.org/2000/svg" fill="none" viewBox="0 0 80 80">
  <path fill="url(#logo-python-a)" d="M39.8 4.2c-18.3 0-17.2 8-17.2 8v8.1h17.5v2.5H15.7S4 21.5 4 39.9c0 18.5 10.2 17.8 10.2 17.8h6v-8.5S20 39 30.4 39h17.4s9.7 0 9.7-9.5V13.7S59 4.2 39.8 4.2ZM30 9.7a3.2 3.2 0 1 1 0 6.3 3.2 3.2 0 0 1 0-6.3Z"/>
  <path fill="url(#logo-python-b)" d="M40.2 75.8c18.3 0 17.2-8 17.2-8v-8.1H39.9v-2.5h24.4S76 58.5 76 40.1c0-18.5-10.2-17.8-10.2-17.8h-6v8.5S60 41 49.6 41H32.3s-9.7 0-9.7 9.4v15.9s-1.4 9.5 17.6 9.5Zm9.7-5.6a3.1 3.1 0 1 1 0-6.2 3.1 3.1 0 0 1 0 6.2Z"/>
  <defs>
    <linearGradient id="logo-python-a" x1="10.9" x2="46.5" y1="10.5" y2="46.2" gradientUnits="userSpaceOnUse">
      <stop stop-color="#387EB8"/>
      <stop offset="1" stop-color="#366994"/>
    </linearGradient>
    <linearGradient id="logo-python-b" x1="32.8" x2="71" y1="33.2" y2="69.8" gradientUnits="userSpaceOnUse">
      <stop stop-color="#FFE052"/>
      <stop offset="1" stop-color="#FFC331"/>
    </linearGradient>
  </defs>
</svg>
