<svg xmlns="http://www.w3.org/2000/svg" viewBox="0 0 80 80"><defs><style>.a{fill:#007db8}</style></defs><path class="a" d="M40 4.32a35.7 35.7 0 1025.22 10.46A35.55 35.55 0 0040 4.32M40 0A40 40 0 110 40 40 40 0 0140 0"/><path class="a" d="M21.08 39.68A3.45 3.45 0 0017.35 36H16v7.32h1.3a3.44 3.44 0 003.77-3.66m23.84 2.63l-9.87 7.77L26 43a8.73 8.73 0 01-8 5.28h-7.77v-17.2H18a8.65 8.65 0 018 5.31l9-7.09 3.34 2.63-8.27 6.5 1.59 1.25 8.34-6.5 3.35 2.62-8.27 6.51 1.59 1.25 8.27-6.51v-6h6v12.21h6v5h-12zm19.59.95h6v5h-12V31.08h6z"/></svg>