<svg xmlns="http://www.w3.org/2000/svg" xmlns:xlink="http://www.w3.org/1999/xlink" viewBox="0 0 80 80"><defs><linearGradient id="a" x1="37.88" y1="449.8" x2="21.37" y2="433.28" gradientTransform="matrix(1, 0, 0, -1, 0, 466)" gradientUnits="userSpaceOnUse"><stop offset="0.18" stop-color="#0052cc"/><stop offset="1" stop-color="#2684ff"/></linearGradient><linearGradient id="b" x1="42.26" y1="402.35" x2="58.74" y2="418.83" xlink:href="#a"/></defs><title>logos</title><path d="M77.76,37.76,43.34,3.34,40,0h0L14.09,25.91h0L2.24,37.76a3.16,3.16,0,0,0,0,4.48L25.91,65.91,40,80,65.91,54.09l.4-.4L77.76,42.24A3.16,3.16,0,0,0,77.76,37.76ZM40,51.83,28.17,40,40,28.17,51.83,40Z" style="fill:#2684ff"/><path d="M40,28.17A19.91,19.91,0,0,1,39.92.1L14,26,28.12,40.05Z" style="fill:url(#a)"/><path d="M51.86,40,40,51.83A19.91,19.91,0,0,1,40,80h0L66,54.05Z" style="fill:url(#b)"/></svg>