<svg xmlns="http://www.w3.org/2000/svg" viewBox="0 0 80 80"><path d="M26.76 0a7.32 7.32 0 0 0 0 14.64h7.31V7.32A7.31 7.31 0 0 0 26.76 0m0 19.52H7.29a7.32 7.32 0 0 0 0 14.63h19.47a7.32 7.32 0 0 0 0-14.63" fill="#36c5f0"/><path d="M73 26.83a7.31 7.31 0 1 0-14.61 0v7.32h7.31a7.3 7.3 0 0 0 7.3-7.32m-19.46 0V7.32a7.3 7.3 0 1 0-14.6 0v19.51a7.3 7.3 0 1 0 14.6 0" fill="#2eb67d"/><path d="M46.24 73.18a7.32 7.32 0 0 0 0-14.63h-7.3v7.32a7.3 7.3 0 0 0 7.3 7.31m0-19.51h19.48a7.32 7.32 0 0 0 0-14.64H46.24a7.32 7.32 0 0 0 0 14.64" fill="#ecb22e"/><path d="M0 46.35a7.32 7.32 0 0 0 7.31 7.32 7.32 7.32 0 0 0 7.3-7.32V39H7.29A7.31 7.31 0 0 0 0 46.35m19.46 0v19.52a7.31 7.31 0 1 0 14.61 0V46.35A7.32 7.32 0 0 0 26.76 39a7.31 7.31 0 0 0-7.3 7.32" fill="#e01e5a"/></svg>