<svg xmlns="http://www.w3.org/2000/svg" fill="none" viewBox="0 0 80 80">
  <path fill="#E01E5A" d="M21.5 48.3a6.7 6.7 0 1 1-6.7-6.7h6.7v6.7Zm3.3 0a6.7 6.7 0 1 1 13.4 0v16.8a6.7 6.7 0 1 1-13.4 0V48.3Z"/>
  <path fill="#36C5F0" d="M31.5 21.4a6.7 6.7 0 1 1 6.7-6.7v6.7h-6.7Zm0 3.4a6.7 6.7 0 1 1 0 13.4H14.7a6.7 6.7 0 1 1 0-13.4h16.8Z"/>
  <path fill="#2EB67D" d="M58.4 31.5a6.7 6.7 0 1 1 6.7 6.7h-6.7v-6.7Zm-3.4 0a6.7 6.7 0 1 1-13.4 0V14.7a6.7 6.7 0 1 1 13.4 0v16.8Z"/>
  <path fill="#ECB22E" d="M48.3 58.4a6.7 6.7 0 1 1-6.7 6.7v-6.7h6.7Zm0-3.4a6.7 6.7 0 1 1 0-13.4h16.8a6.7 6.7 0 1 1 0 13.4H48.3Z"/>
</svg>
