<svg xmlns="http://www.w3.org/2000/svg" viewBox="0 0 80 80"><title>logos</title><polygon points="79.56 40 65.65 50.62 64.7 43.55 48.24 41.2 49.44 40 48.25 38.81 64.7 36.46 65.65 29.38 79.56 40" style="fill:#9c8da9"/><polygon points="67.98 12.03 65.65 29.38 59.97 25.05 45.41 35.97 44.03 34.6 54.96 20.04 50.62 14.36 67.98 12.03" style="fill:#b5aabe"/><polygon points="65.65 50.62 67.98 67.98 50.62 65.65 54.96 59.97 44.03 45.41 45.41 44.03 59.97 54.96 65.65 50.62" style="fill:#857e90"/><polygon points="65.65 29.38 64.7 36.46 48.25 38.81 48.24 38.81 45.41 35.97 59.97 25.05 65.65 29.38" style="fill:#837492"/><polygon points="64.7 43.55 65.65 50.62 59.97 54.96 45.41 44.03 48.24 41.2 64.7 43.55" style="fill:#837492"/><polygon points="50.62 14.36 54.96 20.04 44.03 34.6 41.2 31.77 43.54 15.31 50.62 14.36" style="fill:#a2f0ab"/><polygon points="44.03 45.41 54.96 59.97 50.62 65.65 43.54 64.7 41.2 48.24 44.03 45.41" style="fill:#494754"/><polygon points="50.62 65.65 40 79.57 29.38 65.65 36.46 64.7 38.8 48.24 40 49.44 41.2 48.24 43.54 64.7 50.62 65.65" style="fill:#635e6c"/><polygon points="40 0.44 50.62 14.36 43.54 15.31 41.2 31.77 40 30.57 38.8 31.77 36.46 15.31 29.38 14.36 40 0.44" style="fill:#b5f6bd"/><polygon points="49.44 40 48.24 41.2 45.41 44.03 44.03 45.41 41.2 48.24 40 49.44 38.8 48.24 35.97 45.41 34.59 44.03 31.76 41.2 30.56 40 31.75 38.81 31.76 38.81 34.59 35.97 35.97 34.6 38.8 31.77 40 30.57 41.2 31.77 44.03 34.6 45.41 35.97 48.24 38.81 48.25 38.81 49.44 40" style="fill:#3c3647"/><polygon points="38.8 48.24 36.46 64.7 29.38 65.65 25.04 59.97 35.97 45.41 38.8 48.24" style="fill:#494754"/><polygon points="36.46 15.31 38.8 31.77 35.97 34.6 25.04 20.04 29.38 14.36 36.46 15.31" style="fill:#a2f0ab"/><polygon points="35.97 45.41 25.04 59.97 29.38 65.65 12.02 67.98 14.35 50.62 20.03 54.96 34.59 44.03 35.97 45.41" style="fill:#7d8c8a"/><polygon points="25.04 20.04 35.97 34.6 34.59 35.97 20.03 25.05 14.35 29.38 12.02 12.03 29.38 14.36 25.04 20.04" style="fill:#a3dda8"/><polygon points="34.59 35.97 31.76 38.81 31.75 38.81 15.3 36.46 14.35 29.38 20.03 25.05 34.59 35.97" style="fill:#7ea186"/><polygon points="34.59 44.03 20.03 54.96 14.35 50.62 15.3 43.55 31.76 41.2 34.59 44.03" style="fill:#7ea186"/><polygon points="31.76 41.2 15.3 43.55 14.35 50.62 0.43 40 14.35 29.38 15.3 36.46 31.75 38.81 30.56 40 31.76 41.2" style="fill:#98b89d"/></svg>