<svg xmlns="http://www.w3.org/2000/svg" xmlns:xlink="http://www.w3.org/1999/xlink" viewBox="0 0 80 80"><defs><linearGradient id="a" x1="-16658.36" y1="3723.34" x2="-16611.91" y2="3723.34" gradientTransform="translate(-2752.51 -12456.01) rotate(-90) scale(0.75)" gradientUnits="userSpaceOnUse"><stop offset="0" stop-color="#ffb900"/><stop offset="0.04" stop-color="#fead13"/><stop offset="0.18" stop-color="#fc8b48"/><stop offset="0.29" stop-color="#fa726f"/><stop offset="0.38" stop-color="#f96386"/><stop offset="0.44" stop-color="#f95d8f"/><stop offset="1" stop-color="#f95353"/></linearGradient><linearGradient id="b" x1="-16940.76" y1="3590.36" x2="-16894.3" y2="3590.36" gradientTransform="matrix(-0.53, 0.53, 0.53, 0.53, -10858.58, 7127.33)" xlink:href="#a"/><linearGradient id="c" x1="-16898.09" y1="3547.7" x2="-16851.64" y2="3547.7" gradientTransform="translate(10893.33 7127.33) rotate(45) scale(0.75)" xlink:href="#a"/></defs><title>logos</title><path d="M40,2.92A17.42,17.42,0,1,1,22.58,20.34,17.42,17.42,0,0,1,40,2.92Z" style="fill:url(#a)"/><path d="M5.05,71.85a17.42,17.42,0,1,0,0-24.64A17.43,17.43,0,0,0,5.05,71.85Z" style="fill:url(#b)"/><path d="M75,71.85a17.42,17.42,0,1,1,0-24.64A17.43,17.43,0,0,1,75,71.85Z" style="fill:url(#c)"/></svg>