<svg xmlns="http://www.w3.org/2000/svg" viewBox="0 0 80 80"><path d="M44.3 42.6a.8.8 0 1 1 .8-.7.8.8 0 0 1-.8.7m-8.6 0a.8.8 0 1 1 .8-.7.8.8 0 0 1-.8.7m8.9-4.7 1.6-2.7a.3.3 0 1 0-.6-.3L44 37.6a9.8 9.8 0 0 0-8 0L34.4 35a.3.3 0 1 0-.6.3l1.6 2.7a9.2 9.2 0 0 0-4.8 7.4h18.8a9.2 9.2 0 0 0-4.8-7.4" fill="#9386a0"/><path d="M63.3 80H16.7a2.8 2.8 0 0 1-2.8-2.8V2.8A2.8 2.8 0 0 1 16.7 0h46.6A2.8 2.8 0 0 1 66 2.8v74.4a2.8 2.8 0 0 1-2.8 2.8zm0-2.3a.6.6 0 0 0 .5-.5V2.8a.6.6 0 0 0-.5-.5H16.7a.6.6 0 0 0-.5.5v74.4a.6.6 0 0 0 .5.5zM15 39.6a.4.4 0 1 0 .4.4.4.4 0 0 0-.4-.4z" fill-rule="evenodd" fill="#9386a0"/></svg>
