<svg xmlns="http://www.w3.org/2000/svg" viewBox="0 0 80 80"><defs><style>.b{fill:#fff}</style></defs><circle cx="40" cy="40" r="40" fill="#de4815"/><path class="b" d="m29.8 19.3 3.7 6.7a15 15 0 0 1 9.5-1.1 15.5 15.5 0 0 1 12.4 12.8c0 .4.4 1 .7 1h7A22.8 22.8 0 0 0 56.8 24a1.6 1.6 0 0 0-1.3-.3 7.5 7.5 0 0 1-9.1-5.2 2 2 0 0 0-1.1-1.1 22.9 22.9 0 0 0-15.5 1.8zm1.4 33.4a15.6 15.6 0 0 1 0-25.4l-4-6.5A22.8 22.8 0 0 0 18 33.2a2 2 0 0 0 .4 1.7 7.3 7.3 0 0 1 0 10.2 1.6 1.6 0 0 0-.4 1.8 22.7 22.7 0 0 0 5.3 9c1.2 1.2 2.6 2.3 4 3.5zm32-11.3h-6.5c-.9 0-1.3.2-1.4 1.2a15.5 15.5 0 0 1-13.1 12.8 17 17 0 0 1-8.7-1.3l-3.7 6.6a22.9 22.9 0 0 0 15.7 1.8 1.8 1.8 0 0 0 1-1.1 7.4 7.4 0 0 1 8.8-5.2 1.7 1.7 0 0 0 1.9-.6 23.3 23.3 0 0 0 6-14.2z"/><path class="b" d="M18.3 40a5.3 5.3 0 0 0-5.3-5.3A5.3 5.3 0 0 0 7.7 40a5.4 5.4 0 0 0 5.4 5.4 5.3 5.3 0 0 0 5.2-5.4zm35.2-18a5.4 5.4 0 1 0-5.2-5.5 5.3 5.3 0 0 0 5.2 5.4zm0 46.8a5.3 5.3 0 0 0 5.4-5.3 5.3 5.3 0 1 0-10.6 0 5.2 5.2 0 0 0 5.3 5.3z"/></svg>
