<?xml version="1.0" encoding="utf-8"?>
<!-- Generator: Adobe Illustrator 23.0.4, SVG Export Plug-In . SVG Version: 6.00 Build 0)  -->
<svg version="1.1" id="teamwork-pill-slate" xmlns="http://www.w3.org/2000/svg" xmlns:xlink="http://www.w3.org/1999/xlink"
	 x="0px" y="0px" viewBox="0 0 119.1 119.1" style="enable-background:new 0 0 119.1 119.1;" xml:space="preserve">
<style type="text/css">
	.st0{fill:#1D1C39;}
	.st1{fill:#FFFFFF;}
	.st2{fill:#FF22B1;}
</style>
<g id="PillShortform">
	<path id="guide_48_" class="st0" d="M103.9,119.1H15.4c-8.4,0-15.3-6.8-15.3-15.3V15.3c0-8.4,6.8-15.3,15.3-15.3h88.5
		c8.4,0,15.3,6.8,15.3,15.3v88.5C119.1,112.3,112.3,119.1,103.9,119.1z"/>
	<g>
		<path class="st1" d="M58.8,52.3c3.3,0,5.2-1.8,5.2-4.9c0-2.9-2-4.9-5.1-4.9h-7.5v-5.5c0-4-2.9-6.1-5.7-6.1c-2.8,0-5.7,2.1-5.7,6.1
			v38.2c0,9.2,3.7,13.3,11.9,13.3c4.4,0,7-1.1,8.9-2.3c1.4-0.8,2-2.5,2-3.8c0-2.5-1.6-5.2-4-5.2c-0.3,0-0.7,0.1-1,0.2
			c-0.1,0.1-0.3,0.1-0.4,0.2c-0.6,0.3-1.5,0.7-2.7,0.7c-1.5,0-3.2-0.5-3.2-4.6V52.3H58.8z"/>
	</g>
	<path class="st2" d="M83.2,68.4c-5.5,0-10,4.5-10,10c0,5.5,4.5,10,10,10c5.5,0,10-4.5,10-10C93.2,72.8,88.7,68.4,83.2,68.4z"/>
</g>
</svg>
