<svg xmlns="http://www.w3.org/2000/svg" fill="none" viewBox="0 0 80 80">
  <path fill="#292929" d="M62.7 53.2h.6a2.6 2.6 0 0 1 2.1 2.1l.4 1.9c.1 1 .6 2 1.4 2.7l2.1 1.8 1 1a2 2 0 0 1 0 2.6c-.4.6-1 1-1.5 1.5l-3.7 2.5a56 56 0 0 0-6.8 5.2 6.8 6.8 0 0 1-8.1.3 4.1 4.1 0 0 1-1.6-2.6l-.3-.2c-1.7-.8-3.5-1.4-5.4-1.6-2.3-.4-4.6-.4-6.8 0l-1.6.4a.5.5 0 0 0-.4.5 6.1 6.1 0 0 1-4 3.8c-1.3.4-2.7.4-4 0l-3-1c-1.8-.7-3.6-1.2-5.4-1.6l-5.8-1.4-.8-.4a2.7 2.7 0 0 1-1.4-3l.3-1.2a9 9 0 0 0 .3-4l-.1-3a2.5 2.5 0 0 1 2.2-2.7l2.3-.5a3.6 3.6 0 0 0 2.5-1.8l1.3-1.8a1.7 1.7 0 0 0 .4-1.4c0-3.5 1-7 3-10l5.2-7.8c1.5-2 2.7-4.4 3.4-6.8.4-1.8.6-3.6.4-5.4V13a9.7 9.7 0 0 1 6.9-8.6 10 10 0 0 1 8.5 1c2 1.5 3.5 3.6 4 6 .3 1.6.5 3.3.4 4.9l.2 6.3c.1 2 .8 4 1.8 5.7 1 1.7 2.2 3.3 3.4 5a76 76 0 0 1 5.2 8.2 23 23 0 0 1 1.8 5c.3 2 .2 4.1-.4 6.1v.5Z"/>
  <path fill="#292929" d="M34 25.3h-.1v.1l1.8 1.8a4.5 4.5 0 0 0 4.6 1.6c1.3-.3 2.5-.9 3.6-1.8l2.7-1.9.4-.7.2-1a1.3 1.3 0 0 0-.6-1.4l-.7-.3-5-1.8a4.5 4.5 0 0 0-3.5.1c-1 .5-2 1.1-2.9 1.8a5 5 0 0 0-1 1.3c-.2.2-.3.6-.3.9 0 .2 0 .4.2.5l1.7 1c1.4.7 3 1 4.5.8 1.2-.2 2.5-.6 3.6-1.3l2.2-1.7a.6.6 0 0 1 1 0l-.4.3-1.4 1c-1 .7-2.2 1.3-3.4 1.7-1.6.6-3.4.6-5 0l-2.1-1H34Z"/>
  <path fill="#fff" d="M58.7 51.5h.1a7 7 0 0 0-2.9-.9l-2-.2c1-2 1.1-4.3.6-6.4-.6-2-2.8-5.3-3.7-5.4 1.5 1.5 2.5 3.4 3 5.5.5 2 .2 4.3-1 6.3h-.7V50a22.9 22.9 0 0 0-4.3-12.9 19 19 0 0 0-.8-2.5c-1-2.4-1.8-4.9-2.2-7.5l-.5-1.8-1.5 1-2 1.5a7 7 0 0 1-3.6 1.6 4.5 4.5 0 0 1-4.3-1.8 4 4 0 0 0-1.2-1.4l-.3-.3-.7 4c-.3 1.6-.8 3.2-1.5 4.7a16.8 16.8 0 0 0-1.6 3.8l-1 1.3a30.2 30.2 0 0 0-3.4 10.1l-.1 1.5c-1-2-1.1-4.3-.6-6.4.4-2.2 1.4-4.2 2.8-5.8l-1 .9a12.9 12.9 0 0 0-2.5 10.4 7 7 0 0 0 1.7 3.6l1.6 1.6 3.6 2.8c.7.4 1.2.9 1.8 1.4a2.3 2.3 0 0 1-.1 3.3l-1.2.9c.5.5 1.2 1 1.9 1.2 3.1 1.4 6.6 1.7 10 1a12 12 0 0 0 7-4.6v-.3l.1-3 .2-2.9a2.3 2.3 0 0 1 2-2.2.4.4 0 0 0 .1-.2 1.8 1.8 0 0 1 1.2-1.4l1.8-.3a13 13 0 0 1 5.2.3Z"/>
  <path fill="#292929" d="M11 63.3a15.7 15.7 0 0 1-.8 4.3 2 2 0 0 0 1.2 2.6l1 .4 5.8 1.5c1.8.3 3.6.9 5.4 1.6 1.1.5 2.3.8 3.6 1 1 .2 2.1.2 3.1-.2a5.8 5.8 0 0 0 3.3-3.6 5 5 0 0 0-1.2-4.2l-2-2.6-6.7-9.5-1.2-1.4c-.3-.4-.8-.7-1.3-.8a2.7 2.7 0 0 0-2.6 1.4L18 55a3.8 3.8 0 0 1-2.5 1.8l-2.8.8a2 2 0 0 0-1.6 1.8v3.9Zm41-9.6a1.4 1.4 0 0 0-1.3.9 4 4 0 0 0-.5 1.8v4.1a26 26 0 0 1-.9 6.8 9 9 0 0 0-.3 4 4 4 0 0 0 2 3.4 6.3 6.3 0 0 0 7-.7c2.4-2.1 5-4 7.8-5.8 1.2-.8 2.4-1.5 3.4-2.4 1.5-1.1 1.3-1.8.4-2.8l-2-2.1a5.5 5.5 0 0 1-2.2-3.2L65 56a2.4 2.4 0 0 0-1.8-2 10.4 10.4 0 0 0-2.1-.2.4.4 0 0 0-.2.3l-1 1.8a6.8 6.8 0 0 1-4.4 3 2.4 2.4 0 0 1-3-1.4 8 8 0 0 1-.5-1.8l-.2-2Z"/>
  <path fill="#fff" d="m44.6 20.9 1 .5a.3.3 0 0 0 .4-.1l1-1.5c.5-.9.6-2 .4-3a3.2 3.2 0 0 0-2.3-2.5 3 3 0 0 0-3 1 5.4 5.4 0 0 0-1.3 4l.1.3 1.3.4a2.7 2.7 0 0 1 .4-2.7 1.6 1.6 0 0 1 3 .4 2.7 2.7 0 0 1-1 3.2Zm-8-1 .6-.3a.4.4 0 0 0 .1-.2 5 5 0 0 0-.9-3.8 1.6 1.6 0 0 0-1.3-.7 1.8 1.8 0 0 0-2 1.5 5.6 5.6 0 0 0 .9 4.7l.2.3.7-.5c-.4-.2-.8-.6-1-1a2.7 2.7 0 0 1 .3-2.5 1 1 0 0 1 1.7-.2c.3.3.5.6.6 1l.2 1.6Z"/>
  <path fill="#FBC524" d="m11 63.3-.1-2.7v-1.1a2 2 0 0 1 1.7-1.8l2.7-.7a3.8 3.8 0 0 0 2.5-1.9l.8-1.3a2.7 2.7 0 0 1 2.7-1.3c.4.1.9.3 1.2.7l1.2 1.4 6.6 9.5 2 2.6a5 5 0 0 1 1.3 4.2l-.2.5a5.8 5.8 0 0 1-3 3.2c-1 .3-2.1.4-3.2.2-1.2-.2-2.4-.6-3.6-1.1a24 24 0 0 0-5.4-1.6 59.9 59.9 0 0 1-6.8-2 2 2 0 0 1-1.2-2.4c.3-1 .6-1.8.7-2.6l.1-1.8Zm41-9.6.1 2 .5 1.6a2.4 2.4 0 0 0 3.1 1.5 6.8 6.8 0 0 0 4.3-3l1.1-1.8a.4.4 0 0 1 .4-.3c.6 0 1.2 0 1.8.2a2.4 2.4 0 0 1 1.8 2l.3 1.8a6.4 6.4 0 0 0 2.1 3.2l2 2c1 .9 1.2 1.8-.3 2.8-1 .9-2.2 1.7-3.4 2.4a60.6 60.6 0 0 0-7.8 6 6.3 6.3 0 0 1-7 .6 4 4 0 0 1-2-3.4c-.2-1.3 0-2.8.3-4.1.6-2.2.8-4.5.8-6.8l.1-4c0-.6.2-1.2.5-1.8a1.4 1.4 0 0 1 1.2-1Z"/>
  <path fill="#FAC424" d="m34 25.3 2.2 1.2c1.6.6 3.3.6 5 0 1.1-.5 2.3-1 3.3-1.8l1.5-1 .2-.2a.6.6 0 0 0-.9 0L43.1 25a7.6 7.6 0 0 1-8.1.5l-1.6-.9c-.2 0-.4-.3-.3-.5l.3-.9a5 5 0 0 1 1-1.2l2.8-1.8a4.5 4.5 0 0 1 3.6-.2l5 1.8.7.4a1.3 1.3 0 0 1 .8 1.2l-.2 1.1a1 1 0 0 1-.5.6l-2.7 2c-1 .9-2.3 1.5-3.6 1.8a4.5 4.5 0 0 1-4.7-1.6c-.4-.6-1-1.3-1.7-1.8l.1-.2Zm5.4-4.8.9.5h.4v-.4c-.4-.2-.8-.2-1.3 0Zm-1.3 0a.9.9 0 0 0-1 .2v.3h.3l.7-.5Z"/>
  <path fill="#363228" d="M39.6 20.5c.4-.1.9-.1 1.1.1l.1.4h-.2l-1-.5Z"/>
  <path fill="#322F28" d="m40.7 20.5-.7.5h-.3v-.3a.9.9 0 0 1 1-.2Z"/>
</svg>
