<svg data-name="Logos" xmlns="http://www.w3.org/2000/svg" viewBox="0 0 80 80"><path d="M65.21 56.74l-6.65-4.39L53 61.61l-6.45-1.88-5.67 8.67.29 2.73 30.88-5.7-1.79-19.29zm-28.8-8.32l5-.68a12.38 12.38 0 002.32.74 7.31 7.31 0 005.8-.53 10 10 0 002.34-2.08l20.3-3.68 2.07 25.06-34.82 6.27zm37.7-9l-2 .38L68.26 0 2.67 7.6l8.08 65.58 7.68-1.12a17.56 17.56 0 00-3.2-3.29c-2.26-1.88-1.46-5.07-.12-7.08C16.87 58.28 26 54 25.45 48.52c-.19-2-.5-4.56-2.34-6.32a5.83 5.83 0 00.06 1.43A7.22 7.22 0 0122 41.36 10.11 10.11 0 0121 40a5.05 5.05 0 00-.24 1.68A10.34 10.34 0 0120 39a4.3 4.3 0 00-.45 1.59 10.14 10.14 0 01-.62-3.53A16.74 16.74 0 0117.79 29c2 1.4 6.41 1.06 8.13-1.47.57-.83 1-3.12-.29-7.63a67.77 67.77 0 00-3.55-8.83l-.09.07c.41 1.31 1.25 4.07 1.57 5.41 1 4.05 1.23 5.47.78 7.34-.34 1.63-1.34 2.7-3.69 3.89s-5.51-1.71-5.7-1.87c-2.3-1.84-4.08-4.82-4.28-6.27s.92-2.55 1.48-3.84a14.31 14.31 0 00-1.71.64 20.65 20.65 0 012.4-2.08 14 14 0 001.46-1.08h-1.52A27.87 27.87 0 0115.63 12c-1.06-.05-2.08 0-2.08 0s3.12-1.4 5.59-2.42c1.69-.7 3.35-.49 4.28.85a7.38 7.38 0 005.22 3.32A22.32 22.32 0 0132.92 12a6.71 6.71 0 013.29-2.3 3.33 3.33 0 00-.91 1.7 23.84 23.84 0 012.2-1.52 7.5 7.5 0 00-.86 1.42l.09.15a20.47 20.47 0 012.66-1.31s-.41.52-.89 1.19c.92 0 2.79 0 3.51.12 4.28.09 5.17-4.57 6.81-5.16 2.06-.73 3-1.18 6.49 2.27 3 3 5.35 8.24 4.19 9.43-1 1-2.91-.38-5-3.05a11.53 11.53 0 01-2.39-5.2A5.07 5.07 0 0050.41 7a9.33 9.33 0 01.76 3.2c0 .82.1 3.88 1.42 5.6-.13.25-.19 1.24-.34 1.43-1.52-1.85-4.8-3.17-5.34-3.56 1.81 1.49 6 4.89 7.57 8.16 1.51 3.08.62 5.91 1.38 6.65.22.2 3.25 4 3.84 5.88a11.38 11.38 0 01-1.27 8.94l-3.72.58a4.89 4.89 0 01-1.4-.51 9.27 9.27 0 00.81-1.91l-.21-.36a15.66 15.66 0 01-4.71 4.14 7.93 7.93 0 01-6.12.52 34.88 34.88 0 01-9.76-5.21s0 .64.16.78a35.21 35.21 0 006.23 5.2l-5.34.58 2.53 19.62c-1.12.16-1.3.24-2.52.42A13.21 13.21 0 0029 59.38a10.15 10.15 0 00-7.37-1l-.17.19A9.53 9.53 0 0127.64 60c2.17 1.38 3.93 4.93 4.57 7.07.83 2.74 1.4 5.67-.82 8.77-1.59 2.2-6.21 3.42-9.95.79a6.1 6.1 0 004.17 3.16c2.69.36 5.25-.1 7-1.91 1.5-1.55 2.3-4.78 2.09-8.18l2.38-.35.92 6.12 39.38-4.74zm-24-16.59c-.11.25-.29.42 0 1.23v.1l.11.25a4.89 4.89 0 001.84 2.32 5 5 0 01.69-.08 3.12 3.12 0 011.63.27 3.23 3.23 0 000-.74c-.06-1.22.24-3.27-2.09-4.36a2.4 2.4 0 00-2.52.23h.2c.62.22.2.43.09.69m6.52 11.29a8.52 8.52 0 00-2.74 0 13.27 13.27 0 00-4.42 1.24 1.39 1.39 0 00.16 2.19c1.7 1.28 3.19 2.13 4.77 1.92 1-.13 1.82-1.66 2.42-3.05.41-.95.41-2-.19-2.32M39.77 24.3c.54-.51-2.68-1.19-5.18.52a3.45 3.45 0 00-.13 5.48 3.31 3.31 0 00.45.34 16.56 16.56 0 011.78-.7 16.75 16.75 0 012.87-.67 3.07 3.07 0 00.7-2.48c-.15-1.8-1.51-1.52-.49-2.49" fill="#632ca6" fill-rule="evenodd"/></svg>