<svg xmlns="http://www.w3.org/2000/svg" viewBox="0 0 80 80"><defs><mask id="a" x=".05" y="0" width="79.95" height="80" maskUnits="userSpaceOnUse"><path fill="#fff" fill-rule="evenodd" d="M.05 80H80V0H.05v80z"/></mask><mask id="b" x="0" y="0" width="80" height="80" maskUnits="userSpaceOnUse"><path fill="#fff" fill-rule="evenodd" d="M.05 80H80V0H.05v80z"/></mask></defs><path d="M29.41 18.33l8.93 15.47a6.38 6.38 0 014.37.39l4.7-8.13-7.85-13.59-10.25 5.92.1-.06M15.94 38.34h17.87a6.64 6.64 0 01.63-1.55 6.43 6.43 0 011.89-2l-4.7-8.13H15.94v11.78-.1M45.55 43.2a6.19 6.19 0 01-1.88 2l4.7 8.13h15.69V41.66H46.19a6.05 6.05 0 01-.64 1.54M44.53 35.46a6.44 6.44 0 011.86 4h9.38l7.85-13.59L53.46 20l-8.93 15.46M26.53 60l8.94-15.48a6.43 6.43 0 01-1.85-4h-9.4l-7.85 13.62 10.25 5.92-.09-.06" fill="#de752c" fill-rule="evenodd"/><g mask="url(#a)"><path d="M50.6 61.66l-8.93-15.47a6.35 6.35 0 01-4.38-.38l-4.7 8.13 7.85 13.59 10.24-5.92h-.08" fill="#de752c" fill-rule="evenodd"/></g><g mask="url(#b)"><path d="M40 0a40 40 0 1040 40A40 40 0 0040 0zm0 8.1A31.9 31.9 0 118.1 40 31.9 31.9 0 0140 8.1z" fill="#517a9e" fill-rule="evenodd"/></g></svg>