<svg viewBox="0 0 167 151" xmlns="http://www.w3.org/2000/svg" fill-rule="evenodd" clip-rule="evenodd" stroke-linejoin="round" stroke-miterlimit="2"><path d="M116.8 20.6H136a31 31 0 0 1 31 31v67.6a31 31 0 0 1-31 31h-1.5c-8.8-1.4-12.6-4-15.6-6.2l-24.4-20.1a3.5 3.5 0 0 0-4.4 0l-7.9 6.5L59.8 112a3.4 3.4 0 0 0-4.3 0l-31 27.3c-6.3 5.1-10.5 4.2-13.1 3.9a31 31 0 0 1-11.4-24V51.6a31 31 0 0 1 31-31h19.2l-.7 2-.2.6-.9 3.9v.7l-.5 3.8v4.2l.3 1.7.3 1.5.3 1.3.4 1.5 1.1 3 .4 1 1.9 4 .7 1.3 2.2 3.8.8 1.3 3.1 4.6.5.6 4 5.2 1.3 1.6 4.6 5.4.9 1 3.8 4 1.5 1.6 2.5 2.5-.5.4-.4.3a30.3 30.3 0 0 0-2.3 2.5 20.9 20.9 0 0 0-2.4 3.4l-.5 1.2a11.1 11.1 0 0 0-.7 3.3v1c0 1.3.3 2.7.8 4a11 11 0 0 0 2.2 3.4 11.3 11.3 0 0 0 2.3 2l2.3 1c1.8.6 3.7.8 5.5.6a12.3 12.3 0 0 0 4.5-1.3 11.6 11.6 0 0 0 1.8-1.1 11 11 0 0 0 3.4-4.7c.6-1.4.9-2.9.9-4.4v-.8a11.3 11.3 0 0 0-.8-3.1 12.7 12.7 0 0 0-2-3.4l-.7-1a29.8 29.8 0 0 0-2.7-2.7l-.6-.6 1.1-1.1 4.9-5.1 1.7-1.8 2.6-3 1.7-2 2.4-3 1.6-2 2.5-3.2 1.2-1.7 1.7-2.6 1.5-2.2 2.7-4.7 1.5-3.1V47l1.2-2.9v-.1l1.4-4 .1-.6.6-3.2v-.8l.1-.5v-4.2l-.2-1.4-.6-4a1.5 1.5 0 0 0 0-.1l-.9-3-.3-.8-.3-.9zm9.1 84.3c-4 0-7.3 3.4-7.3 7.4s3.3 7.3 7.3 7.3 7.3-3.3 7.4-7.3c0-4-3.4-7.3-7.4-7.4z" fill="url(#a)"/><path d="m72.5 147.6-1.3 1a6.8 6.8 0 0 1-4.3 1.6H31a30.9 30.9 0 0 1-19.5-7c2.6.3 6.8 1.2 13-3.9L55.5 112a3.4 3.4 0 0 1 4.3 0l22.4 18.4 8-6.5a3.5 3.5 0 0 1 4.3 0l24.4 20c3 2.3 6.8 5 15.6 6.3h-16.3a7 7 0 0 1-4-1.3l-.2-.2-1.3-1a2.4 2.4 0 0 0-.3-.4 21845.3 21845.3 0 0 0-18.7-15.5 2 2 0 0 0-2.6 0s0 .1-18.4 15.5l-.2.3zm53.4-42.7c-4 0-7.3 3.4-7.3 7.4s3.3 7.3 7.3 7.3 7.3-3.3 7.4-7.3c0-4-3.4-7.3-7.4-7.4zM78.5 82.7 76 80.2l-1.5-1.5-3.8-4-1-1.1-4.5-5.4-1.3-1.6-4-5.2-.5-.6-3-4.6-1-1.3-2.1-3.8-.7-1.3-2-4-.3-1-1-3-.5-1.5-.3-1.3-.3-1.5L48 36l-.1-1v-3.2l.4-4 .1-.6.9-3.9.2-.6.6-2 .3-.4 1-2.3.7-1.3 1-1.6 1-1.5.7-1 .8-1 .9-.9.8-.8L59 8.2 60.5 7l.1-.1 1.6-1.1 1.3-.8 2.4-1.3h.1l3.5-1.5.3-.1 3.1-1 1.3-.2 1.7-.4 1.2-.1L79 .2H80l2.4-.2H85.7l2.6.3 3.5.5h.4l3.3.9 1 .3 1.2.4 1.3.5 1 .4 1.6.8 1 .5 1.8 1 .7.4 2.4 1.8.7.6 1.7 1.5v.1l1.5 1.5.5.6 1.6 2.2.4.6 1.3 2.2.4.8.8 1.7.7 2 .3.7.8 3v.1l.7 4 .1 1.4.1 1.8v2.9l-.1.8-.6 3.2-.1.6-1.3 4a1.2 1.2 0 0 1 0 .1l-1.2 2.9-1.6 3.2-2.7 4.7-1.5 2.2-1.7 2.6-1.2 1.7-2.5 3.2-1.6 2-2.4 3-1.7 2-2.6 3-1.7 1.8-4.9 5-1.1 1.2.6.6a29.7 29.7 0 0 1 3.4 3.7 17.3 17.3 0 0 1 2 3.4c.4 1 .6 2 .7 3v.9c0 1.5-.2 3-.8 4.4a11 11 0 0 1-3.4 4.7c-.6.4-1.2.8-1.8 1a12.3 12.3 0 0 1-4.5 1.4 13 13 0 0 1-5.5-.6 12 12 0 0 1-2.3-1 11.3 11.3 0 0 1-2.3-2 11 11 0 0 1-2.2-3.4 11.5 11.5 0 0 1-.8-4v-1a11.1 11.1 0 0 1 1.2-4.5 16.8 16.8 0 0 1 2.4-3.4 30.3 30.3 0 0 1 2.3-2.5l.4-.3.5-.4z" fill="#24175b"/><path d="m71.2 148.7 20-16.9a2 2 0 0 1 2.5 0l20.3 16.9a7 7 0 0 0 4.3 1.5H66.9a6.8 6.8 0 0 0 4.3-1.5zm12.4-60h.2l.2.1.1.1a23.6 23.6 0 0 1 2.9 3.3 7.8 7.8 0 0 1 .5 1l.3 1v.6a3.5 3.5 0 0 1-1.7 2.7 4.7 4.7 0 0 1-2 .7h-1.4a5 5 0 0 1-1-.2 4.2 4.2 0 0 1-.7-.4l-.5-.4a3.4 3.4 0 0 1-1.2-2 5 5 0 0 1 0-.3v-1.1l.4-1 .7-1.1a17.5 17.5 0 0 1 2.4-2.7l.2-.2.4-.2h.2zM82.3 7h.1v68.4l-.1-.3A191.3 191.3 0 0 1 76 62.4a136.3 136.3 0 0 1-4.3-10.7 84.4 84.4 0 0 1-2.6-8.8 47 47 0 0 1-1.1-7.2 35 35 0 0 1 0-3.1A61 61 0 0 1 69 22.3a34.6 34.6 0 0 1 2.7-7.3c1.3-2.5 3.1-4.7 5.5-6.3a11.4 11.4 0 0 1 5-1.7zm9 .1 4.5 1.3a28.2 28.2 0 0 1 6.1 3.1 24.4 24.4 0 0 1 6.5 6.6 24.6 24.6 0 0 1 2.6 4.8 28.6 28.6 0 0 1 1.7 8 32.2 32.2 0 0 1 .1 4 22.3 22.3 0 0 1-.8 4.4 34.3 34.3 0 0 1-1.2 3.4 49.4 49.4 0 0 1-2 4.1c-1.4 3-3.2 5.8-5.1 8.6a133.1 133.1 0 0 1-7.5 9.7 185.5 185.5 0 0 1-9 10c2.1-4 4.1-8 6-12.1a150 150 0 0 0 2.8-7 108.8 108.8 0 0 0 2.7-7.7 76.3 76.3 0 0 0 1.5-6 48.9 48.9 0 0 0 1-9.6 62.2 62.2 0 0 0 0-2.7c-.3-3.6-.8-7.2-1.9-10.7a31.3 31.3 0 0 0-1.4-3.9c-1.4-2.9-3.3-5.6-5.8-7.6l-.9-.7z" fill="#fff"/><defs><radialGradient id="a" cx="0" cy="0" r="1" gradientUnits="userSpaceOnUse" gradientTransform="translate(88.7 84.8) scale(120.977)"><stop offset="0" stop-color="#ba7bf0"/><stop offset=".5" stop-color="#996bec"/><stop offset="1" stop-color="#5046e4"/></radialGradient></defs></svg>
