<svg xmlns="http://www.w3.org/2000/svg" fill="none" viewBox="0 0 80 80">
  <path fill="#249DF1" d="M40 76a36 36 0 1 0 0-72 36 36 0 0 0 0 72Z"/>
  <path fill="#fff" d="m37.8 24.7 9-1.2L38 43.3a9 9 0 0 0 4.5-1.6c1.6-1 3-2.1 4.2-3.5a24 24 0 0 0 5.2-9.7l.3-3a4.6 4.6 0 0 0-3-4.3 18 18 0 0 0-22 16.7l.3.7v.4c-1.9 0-3.4-.4-4.3-1.2-1-.8-1.2-2.2-.7-4.2a13 13 0 0 1 3.2-6 27 27 0 0 1 6-5 32.4 32.4 0 0 1 15.8-4.7c2-.1 3.9.2 5.7.9a8 8 0 0 1 3.6 2.7c1 1 1.5 2.3 1.7 3.7.2 1.5.2 3-.2 4.5a18 18 0 0 1-2.5 5.5A22.5 22.5 0 0 1 45 44.1a20 20 0 0 1-7.5 1.4h-.3l-7.6 17H21l16.7-37.8Z"/>
</svg>
