<svg xmlns="http://www.w3.org/2000/svg" fill="none" viewBox="0 0 80 80">
    <path fill="#F90" d="M11.5 49.4c-.5-.4 0-1 .5-.7A42.3 42.3 0 0 0 49 51c.8-.3 1.4.5.7 1l-.5.4a31.1 31.1 0 0 1-37.7-3ZM46 49c2.7-1.9 7-1.3 7.6-.7.5.6-.2 5-2.6 7-.4.4-.8.2-.6-.2.5-1.4 1.8-4.5 1.2-5.3-.6-.8-4-.4-5.4-.2-.5 0-.6-.3-.2-.6Z"/>
    <path fill="currentColor" fill-rule="evenodd" d="M46.3 35.9V34a.4.4 0 0 1 .4-.5H55a.4.4 0 0 1 .4.4v1.6c0 .5-.3.8-.6 1.2l-4.2 6c1.6-.1 3.2.2 4.6 1a.8.8 0 0 1 .5.7v2c0 .2-.3.5-.6.3a9.3 9.3 0 0 0-8.6 0c-.3.2-.6-.1-.6-.4v-1.8c0-.4 0-.9.3-1.3l5-7h-4.4a.5.5 0 0 1-.4-.4M16.6 47.2H14a.4.4 0 0 1-.4-.4V34.1a.4.4 0 0 1 .4-.5h2.3a.5.5 0 0 1 .5.5v1.6h.1a3.4 3.4 0 0 1 6.5 0 3.7 3.7 0 0 1 6.3-1c.7 1.1.6 2.6.6 4v8a.5.5 0 0 1-.5.5h-2.5a.5.5 0 0 1-.5-.5v-9.1a1.3 1.3 0 0 0-1.5-1 1.6 1.6 0 0 0-1.5 1c-.2.7-.3 1.6-.2 2.4v6.7a.5.5 0 0 1-.5.5h-2.5a.5.5 0 0 1-.4-.5V40c0-1.4.2-3.5-1.5-3.5-1.8 0-1.8 2-1.8 3.5v6.7a.5.5 0 0 1-.5.5m45.8-13.8c3.7 0 5.7 3.1 5.7 7.1 0 4-2.2 7-5.7 7-3.4 0-5.6-3.2-5.6-7 0-4 2-7 5.6-7m0 2.5c-1.8 0-2 2.5-2 4s0 4.9 2 4.9 2-2.7 2-4.3c0-1.2 0-2.3-.3-3.4a1.6 1.6 0 0 0-1.6-1.2m10.4 11.2h-2.5a.5.5 0 0 1-.4-.4V34a.4.4 0 0 1 .4-.5h2.3a.5.5 0 0 1 .5.4v2c.7-1.8 1.6-2.6 3.3-2.6a3.2 3.2 0 0 1 3 1.5c.6 1 .6 2.7.6 4v8a.5.5 0 0 1-.5.4H77a.5.5 0 0 1-.4-.4V40c0-1.4.1-3.4-1.6-3.4a1.6 1.6 0 0 0-1.4 1c-.3.7-.4 1.6-.4 2.4v6.8a.5.5 0 0 1-.5.5m-33-6.1a4 4 0 0 1-.4 2.6 2 2 0 0 1-1.7 1.1c-1 0-1.5-.7-1.5-1.8 0-2 1.9-2.5 3.7-2.5v.6Zm2.6 6a.5.5 0 0 1-.6 0c-.6-.5-1-1-1.4-1.7a5 5 0 0 1-4.1 1.8 3.5 3.5 0 0 1-3.7-3.8 4.2 4.2 0 0 1 2.6-4.1c1.5-.5 3-.8 4.7-.9v-.2c0-.6 0-1.2-.3-1.8A1.6 1.6 0 0 0 38 36a1.9 1.9 0 0 0-2 1.5.5.5 0 0 1-.5.4l-2.4-.3a.4.4 0 0 1-.3-.5c.5-2.9 3.2-3.7 5.5-3.7 1.4-.1 2.7.3 3.7 1.2 1.2 1.1 1.1 2.6 1.1 4.3v3.8c0 .9.4 1.7 1 2.3a.5.5 0 0 1 0 .7l-2 1.6m-34.9-6c.1.9 0 1.8-.4 2.6a2 2 0 0 1-1.8 1c-1 0-1.5-.7-1.5-1.8 0-2 2-2.5 3.7-2.5v.6Zm2.5 6a.5.5 0 0 1-.6 0 6 6 0 0 1-1.4-1.7 4.9 4.9 0 0 1-4 1.8A3.5 3.5 0 0 1 0 43.5a4.2 4.2 0 0 1 2.6-4 15 15 0 0 1 4.7-.8v-.3c0-.7 0-1.3-.3-1.9a1.6 1.6 0 0 0-1.4-.6 1.9 1.9 0 0 0-2 1.5.5.5 0 0 1-.4.4l-2.4-.2a.4.4 0 0 1-.4-.5c.6-3 3.2-3.8 5.6-3.8 1.4 0 2.7.4 3.7 1.2 1.2 1.2 1.1 2.7 1.1 4.3v3.8c0 .9.4 1.7 1 2.3a.5.5 0 0 1 0 .7l-2 1.6" clip-rule="evenodd"/>
</svg>
