<svg xmlns="http://www.w3.org/2000/svg" viewBox="0 0 80 80"><path d="M79.44 67.59A1.37 1.37 0 0178.07 69a1.43 1.43 0 111.37-1.43zm.56 0a1.94 1.94 0 10-1.93 1.86A1.83 1.83 0 0080 67.59m-2.26.16H78l.48.84H79l-.53-.88a.48.48 0 00.5-.52c0-.46-.32-.61-.86-.61h-.81v2h.44v-.84m0-.34v-.49h.31c.17 0 .4 0 .4.22s-.12.27-.31.27h-.4M67 57.33l2.41 6.6h-4.9zm-2.58-2.57l-5.59 14.08h3.92l.88-2.49h6.58l.79 2.49h4.27L69.7 54.76zM53.23 68.85h4v-14.1h-4zm-27.65-14.1l-3.33 11.17-3.18-11.17h-4.3l4.55 14.1h5.74l4.58-14.1zm16.1 3.07h1.71c2.48 0 4.09 1.12 4.09 4s-1.61 4-4.09 4h-1.71zm-4-3.07v14.1h6.45c3.44 0 4.57-.57 5.78-1.86.86-.9 1.41-2.87 1.41-5a8.42 8.42 0 00-1.28-4.85c-1.48-2-3.6-2.36-6.78-2.36zM0 54.73v14.12h4V58.13h3.13a2.93 2.93 0 012.26.79c.63.67.89 1.75.89 3.73v6.2h3.89v-7.8c0-5.57-3.55-6.32-7-6.32zm31.32 0v14.1h4V54.75z"/><path d="M10.7 26.69a21.42 21.42 0 0115.35-8.34V15.6c-11.32.91-21.13 10.51-21.13 10.51s5.55 16.06 21.13 17.53v-2.91C14.62 39.29 10.7 26.69 10.7 26.69zm15.35 8.24v2.67c-8.64-1.54-11-10.52-11-10.52a18.7 18.7 0 0111-5.35v2.93c-3.62-.43-6.44 2.95-6.44 2.95s1.58 5.68 6.45 7.32m0-24.38v5h1c12.88-.44 21.27 10.56 21.27 10.56s-9.64 11.72-19.69 11.72a15.12 15.12 0 01-2.59-.23v3.13a16.8 16.8 0 002.16.14c9.35 0 16.1-4.77 22.65-10.42 1.08.87 5.52 3 6.44 3.9-6.23 5.21-20.73 9.41-28.95 9.41-.79 0-1.55 0-2.3-.12V48h35.52V10.55zm0 11.18v-3.38c.33 0 .66 0 1-.05 9.26-.3 15.34 8 15.34 8s-6.56 9.12-13.6 9.12a8.42 8.42 0 01-2.74-.44V24.66c3.61.44 4.33 2 6.5 5.64l4.82-4.06a12.76 12.76 0 00-9.45-4.62c-.64 0-1.26.05-1.87.11" fill="#77b900"/></svg>