<svg xmlns="http://www.w3.org/2000/svg" viewBox="0 0 80 80"><title>logos</title><path d="M80,34.34c-.33.64-.66,1.28-1,1.93-1.74,3.6-3.47,7.21-5.23,10.82a8.72,8.72,0,0,1-2.22,3.09,5,5,0,0,1-3,1A4.3,4.3,0,0,1,66.84,51a1.75,1.75,0,0,1-1.12-2.57.14.14,0,0,0,0-.06c.33-.7.32-.69,1.08-.6a5.83,5.83,0,0,0,1.18.05,1.86,1.86,0,0,0,1.65-1.41.57.57,0,0,0,0-.26Q68.5,40.57,67.35,35c-.07-.34-.18-.67-.27-1A12,12,0,0,1,70,33.77a4.75,4.75,0,0,1,1,.17,1.2,1.2,0,0,1,1,1.15c.11,1.53.23,3.07.29,4.61,0,1.16,0,2.33,0,3.44,0,0,0-.09,0-.18a78,78,0,0,1,2.88-8.8c.08-.21.2-.22.38-.22H80Z"/><path d="M0,45.3c.18-.58.37-1.16.54-1.74.12-.37.22-.73.31-1.07.71.18,1.38.39,2.06.5A9.55,9.55,0,0,0,4.6,43c.3,0,.61-.09.7-.44s-.15-.58-.43-.72-.71-.31-1.06-.46-.55-.21-.82-.33a3.09,3.09,0,0,1-1.87-4,4.47,4.47,0,0,1,4-3.32,9,9,0,0,1,3.47.19l.2.06A1.66,1.66,0,0,1,10,36.48l0,.06a3.31,3.31,0,0,1-.51.91c-.3.26-.64-.09-1-.15a6.26,6.26,0,0,0-2.36-.17c-.29,0-.56.13-.63.47a.57.57,0,0,0,.41.63c.46.22.94.38,1.4.6a11,11,0,0,1,1.45.74,2.62,2.62,0,0,1,1.14,2.9,4.57,4.57,0,0,1-3.73,3.7,9.82,9.82,0,0,1-5.86-.56L0,45.5Z"/><path d="M11.85,34l.15,0h3.19l.31,1.57L16,35a4.52,4.52,0,0,1,3.66-1.29,3.32,3.32,0,0,1,2.76,2.57,8.9,8.9,0,0,1,.13,4,9.37,9.37,0,0,1-1.17,3.39,5,5,0,0,1-4.85,2.58,2.32,2.32,0,0,1-1.7-.94l-.78,5.55H9.45Zm6.25,5c0-.21,0-.49-.08-.77a1.15,1.15,0,0,0-1.88-.81.63.63,0,0,0-.23.38c-.23,1.59-.46,3.18-.67,4.77-.09.6.07.75.69.73H16a1.72,1.72,0,0,0,1.48-1.23A9.25,9.25,0,0,0,18.1,39Z"/><path d="M51.05,43.63a2.21,2.21,0,0,1-1.49,2.44,4.12,4.12,0,0,1-2.64.1A2,2,0,0,1,45.46,44c0-.89.18-1.77.29-2.66s.23-1.84.32-2.76a1,1,0,0,0-.52-1,1.17,1.17,0,0,0-1.22.12.56.56,0,0,0-.23.35c-.31,2.17-.6,4.35-.9,6.53-.07.49-.14,1-.21,1.49H38.38c.56-4,1.13-8.07,1.69-12.13h2.59c.78,0,.78,0,.87.77,0,.34.09.68.12.86.27-.22.61-.47.92-.74a4.47,4.47,0,0,1,3.63-1.08,2.89,2.89,0,0,1,2.55,2.61,9.81,9.81,0,0,1-.1,3c-.15,1.07-.31,2.13-.44,3.2C50.12,43.35,50.28,43.54,51.05,43.63Z"/><path d="M65.94,43.63a2.17,2.17,0,0,1-.71,1.95,3.82,3.82,0,0,1-3.88.41,2.13,2.13,0,0,1-1-2.1c0-.82.16-1.62.27-2.43.34-2.5.7-5,1.05-7.5.22-1.54.45-3.09.66-4.64.05-.4,0-.81.09-1.21,0-.1.12-.26.2-.27a9,9,0,0,1,3.4,0c.78.19,1,.54,1,1.34-.23,1.66-.47,3.32-.7,5q-.54,3.72-1.06,7.46c0,.31-.1.63-.13.94C65,43.35,65.1,43.53,65.94,43.63Z"/><path d="M57.93,37c-.16,1.07-.3,2.08-.44,3.1-.09.6-.17,1.19-.26,1.79-.11.75.12,1,.88,1h.94c0,.54,0,1.1-.09,1.66,0,.25-.05.5,0,.75a.41.41,0,0,1-.33.46,8.67,8.67,0,0,1-4.07.47,2.15,2.15,0,0,1-2-2.16,14.77,14.77,0,0,1,.23-3.18c.19-1.29.37-2.58.56-3.91H51.83c.08-.59.15-1.15.24-1.7,0-.29,0-.66.18-.84a1.29,1.29,0,0,1,.82-.24,1.41,1.41,0,0,0,1.42-1.28,14.54,14.54,0,0,1,.61-1.83c0-.1.17-.23.26-.23h3.3l.13,0-.42,3h2.08L60,37Z"/><path d="M27.68,34l.31,1.6.26-.29a4.5,4.5,0,0,1,3.53-1.6,1,1,0,0,1,1.08,1.07,5.83,5.83,0,0,1-.26,1.36,4.4,4.4,0,0,1-.33.82c-.16.35-.35.7-.54,1.08l-.82-.21a4.15,4.15,0,0,0-2.21.07.47.47,0,0,0-.38.44c-.32,2.38-.65,4.76-1,7.14-.09.66-.08.66-.76.66H22.64L24.33,34Z"/><path d="M32.22,46.05c.08-.65.17-1.28.26-1.92.37-2.66.76-5.33,1.12-8a2.86,2.86,0,0,1,.81-1.89A2.29,2.29,0,0,1,37,33.9a2.26,2.26,0,0,1,1.22,2.31c-.44,3.19-.89,6.39-1.33,9.58,0,.16,0,.31-.26.31H32.38Z"/><path d="M36.38,32.12l-.39,0a1.51,1.51,0,0,1-1.56-1.7,2.4,2.4,0,0,1,2.47-2.58,3.64,3.64,0,0,1,.74,0A1.77,1.77,0,0,1,39.16,30,2.46,2.46,0,0,1,36.38,32.12Z"/><path d="M18.1,39a9.25,9.25,0,0,1-.59,3.06A1.72,1.72,0,0,1,16,43.29h-.1c-.62,0-.78-.13-.69-.73.21-1.59.44-3.18.67-4.77a.63.63,0,0,1,.23-.38,1.15,1.15,0,0,1,1.88.81C18.07,38.51,18.08,38.79,18.1,39Z" style="fill:#fff"/></svg>