<svg id="logo-perforce-icon-reg" xmlns="http://www.w3.org/2000/svg" viewBox="0 0 176.53 144.22">
    <g>
      <path d="M122.2,50.37l-16.76,9.68,4.24,2.45c5.01,2.89,5.55,7.69,5.55,9.62s-.54,6.73-5.55,9.62l-75.84,43.79c-5.01,2.89-9.44.96-11.11,0-1.67-.96-5.55-3.83-5.55-9.62V28.32c0-5.79,3.88-8.66,5.55-9.62,1.67-.96,6.09-2.89,11.11,0l20.09,11.6,17.17-9.91L42.42,3.83C33.56-1.28,22.99-1.28,14.14,3.83,5.29,8.95,0,18.1,0,28.32v87.58c0,10.22,5.29,19.38,14.14,24.49,4.43,2.56,9.28,3.83,14.14,3.83s9.71-1.28,14.14-3.83l75.84-43.79c8.85-5.11,14.14-14.27,14.14-24.49,0-8.6-3.75-16.43-10.2-21.74Z" fill="#4c00ff"/>
      <path d="M54.33,93.86l16.76-9.68-4.24-2.45c-5.01-2.89-5.55-7.69-5.55-9.62s.54-6.73,5.55-9.62l75.84-43.79c5.01-2.89,9.44-.96,11.11,0,1.67.96,5.55,3.83,5.55,9.62v87.58c0,5.79-3.88,8.66-5.55,9.62-1.67.96-6.09,2.89-11.11,0l-20.09-11.6-17.17,9.91,28.68,16.56c8.85,5.11,19.43,5.11,28.28,0,8.85-5.11,14.14-14.27,14.14-24.49V28.32c0-10.22-5.29-19.38-14.14-24.49-4.43-2.56-9.28-3.83-14.14-3.83s-9.71,1.28-14.14,3.83L58.27,47.62c-8.85,5.11-14.14,14.27-14.14,24.49,0,8.6,3.75,16.43,10.2,21.74Z" fill="#4c00ff"/>
    </g>
</svg>