<svg xmlns="http://www.w3.org/2000/svg" viewBox="0 0 80 80"><defs><style>.b{fill:#9feaf9}</style></defs><path fill="#2f3241" d="M0 0h80v80H0z"/><path class="b" d="M30.61 19.54c-9-1.71-16.19.08-19 5.2-2.12 3.82-1.51 8.88 1.48 14.3a.9.9 0 0 0 1.26.35 1 1 0 0 0 .35-1.31c-2.7-4.88-3.26-9.25-1.52-12.38 2.37-4.25 8.74-5.85 17.1-4.27a.92.92 0 0 0 1.07-.77 1 1 0 0 0-.74-1.12zM17.75 45.62a58.07 58.07 0 0 0 13.82 11.32C44.68 64.8 58.64 66.9 65.51 62a1 1 0 0 0 .25-1.34.91.91 0 0 0-1.29-.25c-6.16 4.36-19.42 2.36-32-5.16a56.57 56.57 0 0 1-13.37-11 .9.9 0 0 0-1.31-.06 1 1 0 0 0-.06 1.36z"/><path class="b" d="M63.32 44.45c5.92-7.26 8-14.55 5.14-19.66C66.37 21 62 19 56.07 19a1 1 0 0 0-.94.95 1 1 0 0 0 .92 1c5.28.07 9.09 1.78 10.81 4.86 2.36 4.24.51 10.75-5 17.46a1 1 0 0 0 .14 1.29.92.92 0 0 0 1.31-.11zM48.11 19.86a56.61 56.61 0 0 0-16.52 6.79C18.06 34.76 9.23 46.72 10.46 55.39a.92.92 0 0 0 1 .81 1 1 0 0 0 .78-1.09c-1.09-7.7 7.28-19 20.23-26.79a55 55 0 0 1 16-6.58 1 1 0 0 0 .71-1.14.93.93 0 0 0-1.1-.74z"/><path class="b" d="M26.18 61.4c3.1 9 8.16 14.49 13.85 14.49 4.15 0 8-2.94 11-8.11a1 1 0 0 0-.32-1.32.91.91 0 0 0-1.27.33C46.74 71.44 43.43 74 40 74c-4.7 0-9.21-5-12.07-13.25a.92.92 0 0 0-1.19-.58 1 1 0 0 0-.56 1.23zm28.27-1.75a62.57 62.57 0 0 0 2.46-17.83c0-15.93-5.37-29.67-13-33.2a.9.9 0 0 0-1.22.49 1 1 0 0 0 .47 1.27c6.84 3.14 11.9 16.18 11.9 31.44a60.64 60.64 0 0 1-2.38 17.25 1 1 0 0 0 .61 1.21.92.92 0 0 0 1.16-.63zm17.45-.94a4.44 4.44 0 1 0-4.43 4.6 4.52 4.52 0 0 0 4.43-4.6zm-1.85 0A2.59 2.59 0 1 1 67.47 56a2.63 2.63 0 0 1 2.58 2.68zm-57.52 4.6a4.61 4.61 0 0 0 0-9.21 4.61 4.61 0 0 0 0 9.21zm0-1.92a2.68 2.68 0 1 1 2.59-2.68 2.63 2.63 0 0 1-2.59 2.68z"/><path class="b" d="M40 13.32a4.53 4.53 0 0 0 4.44-4.61 4.44 4.44 0 1 0-8.87 0A4.52 4.52 0 0 0 40 13.32zm0-1.93a2.63 2.63 0 0 1-2.58-2.68 2.58 2.58 0 1 1 5.16 0A2.63 2.63 0 0 1 40 11.39zm.71 33.69a3.22 3.22 0 0 1-3.82-2.56 3.33 3.33 0 0 1 2.46-4 3.21 3.21 0 0 1 3.82 2.55 3.34 3.34 0 0 1-2.46 4z"/></svg>