<svg xmlns="http://www.w3.org/2000/svg" width="600" height="600" fill="none" viewBox="0 0 600 600"><path fill="#fff" d="m509.4 199.54-42.51 42.5-.23.24 42.75-42.75a7.43 7.43 0 0 0-.01 0ZM481.8 399.89l.24-.25-52.16 52.16.26-.26 51.66-51.65Z"/><path fill="#fff" fill-rule="evenodd" d="m302.01 10.53.04-.03L312.53 0h59.89c-.41.35-.8.71-1.19 1.09l-1.7 1.71a19.95 19.95 0 0 0 28.19 28.22l1.7-1.7A19.94 19.94 0 0 0 398.25 0h87.15c-.8.59-1.55 1.24-2.26 1.95l-113.6 113.74a19.97 19.97 0 0 0-.14 28.33 19.97 19.97 0 0 0 28.32-.1L511.32 30.17A19.98 19.98 0 0 0 509.07 0H600v170.51l-37.56 37.56a19.96 19.96 0 0 0 0 28.22 19.96 19.96 0 0 0 28.22 0l9.34-9.33v111.17l-23.88 23.88a19.93 19.93 0 0 0 0 28.22 19.95 19.95 0 0 0 23.88 3.3V600H394.57l.24-.24a19.94 19.94 0 0 0-14.08-34.18 19.97 19.97 0 0 0-14.14 5.95l-4.28 4.28a19.96 19.96 0 0 0-3.04 24.19h-193.9l.85-.85A19.96 19.96 0 0 0 138 570.93L108.93 600H0v-17.06a19.97 19.97 0 0 0 22.54-3.82l.86-.85A19.95 19.95 0 0 0 0 546.34V316.01L101.23 214.8a19.95 19.95 0 1 0-28.22-28.23L0 259.56v-85.29l.31.32a19.96 19.96 0 0 0 28.22 0l85.52-85.52a19.96 19.96 0 0 0-28.22-28.23L.3 146.37l-.31.31V0h256.15L183.6 72.66a19.95 19.95 0 0 0 28.23 28.17L302 10.55l.02-.02Zm-95.7 136.5a19.96 19.96 0 0 0-32.56-6.47l-19.5 19.5a19.96 19.96 0 0 0 28.23 28.21l19.5-19.49a19.95 19.95 0 0 0 4.32-21.75ZM1.96 391.34c1 2.42 2.47 4.62 4.33 6.48v-.01a19.96 19.96 0 0 0 28.22 0l1.71-1.7a19.96 19.96 0 0 0-28.22-28.23L6.3 369.6a19.96 19.96 0 0 0-4.33 21.75Zm.86 112.04a19.96 19.96 0 0 0 32.55 6.47L149.12 396.1a19.96 19.96 0 0 0-28.23-28.23L7.15 481.63a19.96 19.96 0 0 0-4.32 21.75Zm141.08 11.75a19.97 19.97 0 0 0 34.07 14.11l63.75-63.74a19.96 19.96 0 0 0-28.23-28.22l-63.75 63.74a19.96 19.96 0 0 0-5.84 14.11Zm145.35-33.44c-2.43 1-4.63 2.48-6.48 4.33l-41.91 41.9a19.96 19.96 0 1 0 28.22 28.22l41.91-41.9a19.96 19.96 0 0 0-21.74-32.55Zm-10.61-43.13a19.96 19.96 0 0 0 34.07 14.11l20.52-20.53a19.95 19.95 0 1 0-28.22-28.22l-20.53 20.52a19.96 19.96 0 0 0-5.84 14.12ZM541.96 206a19.96 19.96 0 0 0-32.43-6.6c.17-.17.33-.36.49-.54l.2-.23a19.93 19.93 0 0 1-28.14-28.14l-.2.18c-.23.2-.47.41-.7.64a19.96 19.96 0 0 0-28.22-28.22l-47.9 47.89a19.98 19.98 0 0 0-.04 28.27 19.95 19.95 0 0 0 28.27-.05l5.14-5.14a19.96 19.96 0 0 1 28.46 27.98l-65.24 65.24a19.96 19.96 0 0 0 28.23 28.22l107.76-107.76a19.96 19.96 0 0 0 4.32-21.74ZM354.21 26.55c-5.25-.03-10.3 2.01-14.06 5.68L232.53 140a19.93 19.93 0 1 0 27.96 28.42l-17.39 17.41-.16.18 12.87-12.88a19.95 19.95 0 0 1 28.18 28.23l-12.86 12.87a19.94 19.94 0 0 0 28.35 28.05l47.84-47.9a19.94 19.94 0 0 0-28.19-28.22 20.02 20.02 0 0 0 2.69-3.36 19.93 19.93 0 0 1-27.5-27.58c-1.13.73-2.19 1.57-3.15 2.5l5.78-5.78a.72.72 0 0 1 .07-.08l47.84-47.9.04-.03.03-.04 23.41-23.44a19.95 19.95 0 0 0-14.13-33.9Zm34.47 341.87a19.96 19.96 0 0 0-34.07-14.11l-1.7 1.71a19.96 19.96 0 0 0 28.22 28.22l1.7-1.7a19.96 19.96 0 0 0 5.85-14.12Zm-152.14 8.5a19.95 19.95 0 0 0 32.55 6.47l113.75-113.74a19.96 19.96 0 0 0-28.23-28.22L240.87 355.17a19.95 19.95 0 0 0-4.33 21.75Zm15.27-100.93a19.96 19.96 0 0 0-32.55-6.47c.2-.2.4-.43.59-.65l.22-.25a19.93 19.93 0 0 1-28.14-28.13l-.25.22c-.22.19-.44.38-.65.59a19.96 19.96 0 0 0-28.22-28.22L55.04 320.84a19.95 19.95 0 1 0 28.23 28.22l65-65a19.96 19.96 0 1 1 28.22 28.22l-5.13 5.13a19.96 19.96 0 1 0 28.22 28.22l47.9-47.89a19.95 19.95 0 0 0 4.33-21.75Zm284.11 13.33-189 189a19.95 19.95 0 0 0 28.22 28.22l55-55a19.96 19.96 0 0 1 27.96 28.48l-33.36 33.36a19.96 19.96 0 1 0 28.23 28.22l103.48-103.48a19.97 19.97 0 1 0-28.22-28.23l-17.96 17.97a19.96 19.96 0 0 1-28.47-27.97l82.35-82.35a19.94 19.94 0 0 0-6.48-32.55 19.96 19.96 0 0 0-21.75 4.33Z" clip-rule="evenodd"/></svg>
