<svg xmlns="http://www.w3.org/2000/svg" width="600" height="600" fill="none"><path fill="#fff" d="M191.48 445.4c-9.97 0-17.89-2.76-23.37-8.37-13.46-13.73-10.56-43.37 7.92-81.33 36.18-74 120.93-159.87 189.06-191.36 31.09-14.39 54.85-15.58 66.8-3.36 13.46 13.73 10.56 43.36-8 81.25-36.1 74-120.92 159.88-188.97 191.43-16.9 7.79-31.62 11.75-43.44 11.75ZM365.42 165l.32.73c-67.85 31.42-152.28 116.97-188.32 190.7-18.22 37.3-21.19 66.27-8.25 79.54 11.48 11.68 34.59 10.43 65.08-3.7 67.8-31.42 152.29-116.97 188.33-190.7 18.22-37.3 21.19-66.27 8.25-79.54-11.55-11.75-34.66-10.43-65.09 3.7l-.33-.73Z"/><path fill="#fff" d="M184.29 447.39c-11.62 0-20.66-3.37-26.54-10.04-13.73-15.64-8.71-47.92 13.8-88.58C213.99 272.07 306 187.11 376.57 159.4c31.03-12.15 54.33-11.68 65.68 1.25 13.73 15.65 8.65 47.93-13.86 88.59-42.45 76.7-134.4 161.65-204.96 189.31-14.98 5.88-28.19 8.85-39.14 8.85Zm231.36-295.26c-10.7 0-23.7 2.9-38.55 8.71-70.3 27.6-161.92 112.22-204.17 188.66-22.18 40.06-27.33 71.68-14.06 86.86 10.9 12.41 33.6 12.68 63.97.8 70.3-27.6 161.92-112.22 204.23-188.66 22.18-40.06 27.26-71.75 14-86.87-5.55-6.33-14.2-9.5-25.42-9.5Z"/><path fill="#fff" d="M177.75 448.9c-13.73 0-24.16-4.02-30.43-12.07-13.86-17.76-6.47-52.81 20.4-96.05 48.98-79.07 148-162.31 220.73-185.61 30.7-9.84 53.47-7.73 64.16 5.94 13.93 17.82 6.47 52.8-20.33 96.1-48.98 79.02-147.99 162.32-220.73 185.62-12.74 4.03-24.1 6.08-33.8 6.08Zm244.5-298.29c-9.57 0-20.8 1.98-33.34 6-72.47 23.24-171.09 106.22-219.94 184.97-26.4 42.7-33.86 77.1-20.4 94.32 10.24 13.14 32.48 15.05 62.52 5.42 72.4-23.17 171.1-106.15 219.87-184.9 26.47-42.7 33.93-77.1 20.47-94.32-5.94-7.66-15.98-11.49-29.18-11.49Z"/><path fill="#fff" d="M171.61 450.1c-16.17 0-27.92-4.96-34.65-14.66-13.93-20.2-3.9-57.95 27.59-103.7 55.64-80.93 161.59-161.66 236.05-180 30.7-7.6 52.28-3.84 62.38 10.82 13.92 20.13 3.9 57.95-27.53 103.63-55.71 81-161.59 161.73-236.05 180.08-10.36 2.57-19.6 3.82-27.79 3.82ZM428.4 149.42c-8.06 0-17.23 1.26-27.4 3.77-74.2 18.28-179.67 98.75-235.19 179.4-31.09 45.23-41.12 82.32-27.59 101.93 9.77 14.12 30.76 17.69 60.8 10.3C273.2 426.52 378.68 346 434.2 265.33c31.02-45.15 41.12-82.32 27.52-101.92-6.4-9.31-17.75-14-33.33-14Z"/><path fill="#fff" d="M166.8 450.69c-19.28 0-33.01-6-40.14-17.76-13.8-22.77-.86-63.3 35.51-111.22 62.51-82.38 175.06-159.81 250.9-172.62l.13.8-.13-.8c30.04-5.08 50.83.46 60.2 15.91 13.8 22.84.86 63.37-35.51 111.3-62.51 82.3-174.99 159.73-250.83 172.54a118.83 118.83 0 0 1-20.14 1.85Zm266.4-301.86c-6.68.05-13.34.65-19.93 1.78-75.45 12.74-187.53 89.9-249.84 172.02-35.45 46.67-48.72 87.66-35.45 109.51 9.04 14.92 29.3 20.2 58.68 15.25 75.52-12.8 187.6-89.97 249.91-172.02 35.45-46.74 48.65-87.66 35.45-109.58-6.87-11.22-20.07-16.96-38.81-16.96Z"/><path fill="#fff" d="M163.36 451.02c-23.3 0-39.4-7.4-46.86-21.65-13.2-25.35 3.3-69.7 44.22-118.75 69.44-83.3 188.33-156.44 264.96-163.18 29.24-2.5 49.24 4.76 57.76 21.13 13.27 25.34-3.23 69.77-44.16 118.81-69.44 83.24-188.32 156.44-264.96 163.11-3.83.33-7.46.53-10.96.53Zm262.39-302.78v.79c-76.3 6.6-194.73 79.54-263.9 162.58-40.47 48.51-56.9 92.28-43.97 117.1 8.25 15.77 27.73 22.77 56.3 20.26 76.31-6.66 194.67-79.6 263.91-162.58 40.53-48.51 56.97-92.28 44.03-117.1-8.25-15.77-27.72-22.77-56.3-20.26l-.07-.8Z"/><path fill="#fff" d="M161.65 451.08h-.07c-28.32 0-47.33-9.17-54.99-26.53-12.54-28.52 7.46-75.65 53.6-126.14 76.44-83.57 201.2-151.5 278.17-151.5h.06c28.32 0 47.33 9.18 54.99 26.47 12.54 28.59-7.53 75.72-53.67 126.15-76.37 83.57-201.2 151.55-278.1 151.55Zm276.7-302.65c-76.57 0-200.86 67.73-277.03 151.03-45.68 49.97-65.62 96.5-53.34 124.5 7.4 16.7 25.94 25.6 53.6 25.6h.07c76.57 0 200.8-67.78 276.97-151.02 45.74-50.04 65.68-96.57 53.34-124.5-7.33-16.76-25.88-25.6-53.54-25.6h-.06Z"/><path fill="#fff" d="M161.71 451.08c-4.44 0-8.73-.2-12.87-.59-27.33-2.57-45.28-13.73-51.88-32.15-11.49-32.01 12.34-81.78 63.83-133.14 83.43-83.23 213.67-145.02 290.37-137.7 27.33 2.58 45.22 13.74 51.88 32.16 11.49 32.01-12.4 81.78-63.83 133.14-78.94 78.74-199.8 138.28-277.5 138.28Zm276.51-302.65c-77.36 0-197.7 59.34-276.38 137.9-51.02 50.89-74.72 100.07-63.43 131.49 6.4 17.82 23.9 28.58 50.56 31.15 76.3 7.26 206.02-54.32 289.19-137.3 51.02-50.89 74.72-100.07 63.43-131.55-6.4-17.83-23.9-28.58-50.63-31.1a131.95 131.95 0 0 0-12.74-.59Z"/><path fill="#fff" d="M163.96 451.22a140.88 140.88 0 0 1-27.73-2.58c-26.27-5.28-43.04-18.41-48.51-38.09-9.9-35.77 18.02-87.99 74.72-139.6 90.43-82.25 225.62-136.84 301.33-121.66 26.27 5.28 43.04 18.48 48.45 38.15 9.97 35.78-18.02 88-74.72 139.61C357.3 400 241.85 451.22 163.96 451.22ZM435.98 148.3c-77.56 0-192.55 51.03-272.49 123.77-56.24 51.22-84.03 102.84-74.26 138.09 5.28 19.08 21.59 31.88 47.27 36.96a138.81 138.81 0 0 0 27.52 2.58c77.5 0 192.48-51.03 272.49-123.83 56.24-51.16 84.03-102.78 74.26-138.03-5.28-19.08-21.65-31.88-47.26-37.03a139.92 139.92 0 0 0-27.53-2.5Z"/><path fill="#fff" d="M168.64 451.61c-16.57 0-31.75-1.98-44.88-6.14-25.15-8.05-40.6-23.43-44.7-44.49-7.72-39.8 24.56-94.13 86.35-145.28 97.23-80.53 236.64-126.8 310.83-103.17 25.15 7.98 40.6 23.36 44.7 44.49 7.71 39.8-24.56 94.12-86.35 145.28-80.07 66.28-188.65 109.31-265.95 109.31Zm262.59-303.77c-76.9 0-185.1 42.97-264.83 109.05-61.4 50.76-93.47 104.55-85.81 143.76 3.96 20.53 19.07 35.52 43.63 43.37 73.73 23.5 212.48-22.7 309.38-102.9 61.32-50.83 93.4-104.57 85.81-143.77-3.96-20.53-19.07-35.52-43.63-43.37-13.07-4.16-28.12-6.14-44.55-6.14Z"/><path fill="#fff" d="M176.23 452.74c-24.75 0-46.86-3.83-64.55-11.89-24.1-10.95-38.1-28.78-40.6-51.55-4.75-43.9 32.08-99.94 98.62-149.9 103.83-77.96 246.8-114.86 318.62-82.25 24.03 10.89 38.09 28.71 40.53 51.55 4.82 43.9-32.01 99.94-98.55 149.84-78.22 58.75-178.55 94.2-254.07 94.2Zm247.4-305.96c-75.05 0-175.05 35.32-253 93.87-66.15 49.57-102.78 105.08-98.03 148.52 2.44 22.18 16.17 39.6 39.67 50.3 71.36 32.4 213.6-4.43 317.1-82.12 66.08-49.64 102.72-105.15 97.96-148.52-2.37-22.24-16.1-39.6-39.6-50.3-17.62-7.98-39.54-11.75-64.1-11.75Z"/><path fill="#fff" d="M186.8 454.71c-34.46 0-64.63-6.46-86.8-20.06-22.19-13.6-35.32-34.59-35.92-59.34-1.05-48.06 40.53-105.29 111.23-153.08C285.6 147.58 431.29 121.17 500 163.3c22.9 14.06 35.31 34.58 35.84 59.4 1.12 48-40.46 105.22-111.22 153.08-74.66 50.5-165.62 78.95-237.84 78.95Zm226.34-309.97c-71.88 0-162.45 28.38-236.97 78.75C105.87 271 64.55 327.78 65.6 375.24c.6 24.3 12.74 44.36 35.18 58.09 68.26 41.85 213.15 15.45 322.99-58.82 70.3-47.59 111.62-104.29 110.56-151.82-.53-24.22-12.67-44.29-35.11-58.08-22.45-13.8-51.95-19.87-86.08-19.87Z"/><path fill="#fff" d="M200.13 458.02c-45.55 0-85.09-10.1-111.23-31.16-21.78-17.5-32.34-41.12-30.5-68.25 3.44-51.89 49.84-109.65 124.1-154.47 116.38-70.36 263.78-85.21 328.6-33.07 21.78 17.56 32.27 41.13 30.5 68.32-3.5 51.89-49.91 109.64-124.1 154.47-69.45 41.98-149.98 64.16-217.37 64.16Zm199.74-316.58c-67.13 0-147.33 22.1-216.58 63.96-73.8 44.62-119.93 101.92-123.37 153.34-1.78 26.6 8.58 49.77 29.9 66.93 64.36 51.82 210.97 36.9 326.88-33.13 73.8-44.56 119.94-101.92 123.37-153.28 1.79-26.6-8.58-49.77-29.96-67-25.88-20.79-65.09-30.82-110.24-30.82Z"/><path fill="#fff" d="M215.7 463.03c-57.82 0-107.98-15.11-137.16-45.61-20.6-21.45-28.91-48.58-24.16-78.48 8.78-55.25 59.94-112.75 136.77-153.74 122.12-65.15 270.3-67.26 330.31-4.62 20.53 21.45 28.91 48.58 24.16 78.49-8.84 55.24-59.94 112.74-136.84 153.73-62.64 33.4-132.15 50.23-193.07 50.23Zm168.66-326.61c-60.73 0-129.97 16.77-192.48 50.1-76.44 40.8-127.27 97.9-135.98 152.68-4.69 29.37 3.5 56.04 23.7 77.16 59.6 62.12 206.94 59.94 328.46-4.95C484.5 370.62 535.32 313.6 544.1 258.8c4.69-29.37-3.56-56.1-23.76-77.16-28.91-30.24-78.62-45.22-135.98-45.22Z"/><path fill="#fff" d="M232.47 470.03c-70.82 0-132.41-21.85-163.43-63.9-19.21-25.94-24.9-57.1-16.5-90.1 14.78-57.89 70.49-114.13 148.98-150.5 127.26-59.01 275.12-47.2 329.45 26.27 19.2 26 24.88 57.16 16.43 90.17-14.78 57.82-70.43 114.13-148.91 150.5-54.53 25.28-112.88 37.56-166.02 37.56ZM367.6 129.49c-52.93 0-111.09 12.21-165.48 37.43C124.09 203.09 68.7 259 54.05 316.42c-8.32 32.55-2.7 63.24 16.17 88.85 54 72.94 200.94 84.5 327.6 25.81 78.1-36.17 133.48-92.08 148.13-149.5 8.32-32.55 2.7-63.24-16.24-88.86-30.76-41.58-91.82-63.23-162.12-63.23Z"/><path fill="#fff" d="M249.3 479.2c-84.1 0-157.5-30.62-188.78-86.07-17.56-31.22-20-67-7.06-103.37 21.19-59.47 80.99-113.54 160-144.56 132.02-51.82 278.23-25.02 325.95 59.67 17.63 31.22 20.07 66.93 7.13 103.37-21.18 59.47-80.99 113.47-160 144.5-45.62 17.88-92.94 26.47-137.24 26.47Zm101.46-358.89c-44.16 0-91.29 8.52-136.7 26.34C135.37 177.55 75.9 231.21 54.9 290.3c-12.8 35.9-10.37 71.22 7 102.05 47.32 84.1 192.74 110.56 324.03 59 78.62-30.88 138.16-84.55 159.15-143.63 12.8-35.97 10.36-71.29-7-102.11-30.95-54.92-103.83-85.29-187.33-85.29Z"/><path fill="#fff" d="M264.88 490.69c-97.03 0-182.12-41.85-211.62-112.55-15.58-37.29-14.06-78.08 4.42-118.09 27.6-59.8 90.96-110.5 169.51-135.71 136.05-43.63 279.35-.8 319.55 95.45 15.58 37.3 14 78.15-4.42 118.09-27.6 59.8-90.96 110.56-169.51 135.71a354.2 354.2 0 0 1-107.93 17.1Zm70.3-381.86a353.21 353.21 0 0 0-107.53 16.96C149.5 150.88 86.46 201.31 59.07 260.71c-18.29 39.54-19.8 79.94-4.43 116.84 29.25 70.1 113.8 111.62 210.18 111.62a353.34 353.34 0 0 0 107.53-17.03c78.08-25.02 141.12-75.45 168.58-134.86 18.29-39.6 19.8-80 4.36-116.9-29.24-70.1-113.73-111.55-210.1-111.55Z"/><path fill="#fff" d="M278.22 504.62c-109.45 0-205.36-55.91-230.97-143.3-12.94-44.3-6.6-90.64 18.42-134.07 34.32-59.67 98.81-104.89 176.97-124.17 139.34-34.39 278.42 25.55 310.04 133.6 13 44.3 6.6 90.64-18.35 134.07-34.32 59.67-98.88 104.89-177.04 124.17a331.77 331.77 0 0 1-79.07 9.7ZM321.78 94.9a329.46 329.46 0 0 0-78.75 9.64C165.28 123.74 101.11 168.7 67 227.97c-24.76 43.1-31.1 89.05-18.22 132.88C74.12 447.6 169.43 503.03 278.15 503.1a329.54 329.54 0 0 0 78.81-9.64c77.76-19.2 141.92-64.16 176.05-123.5 24.75-43.04 31.1-88.98 18.22-132.88C525.82 150.41 430.57 94.9 321.78 94.9Z"/><path fill="#fff" d="M288.71 520.86c-121.39 0-226.54-73-245.88-178.36-9.5-51.49 2.97-105.09 35.05-150.9 40-57.16 106.34-97.3 182.05-110.1 141.86-24.03 275.13 54.06 297.24 174 9.5 51.42-2.97 105.02-35.05 150.9-40 57.16-106.4 97.3-182.12 110.1a309.31 309.31 0 0 1-51.29 4.36Zm22.58-442.2c-17.12 0-34.21 1.44-51.1 4.3-75.31 12.73-141.32 52.67-181.06 109.5-31.88 45.55-44.22 98.68-34.85 149.78 19.27 104.55 123.83 177.03 244.43 177.1a306.16 306.16 0 0 0 51.03-4.36c75.31-12.74 141.32-52.6 181.13-109.44 31.81-45.55 44.22-98.75 34.78-149.78C536.38 151.21 431.9 78.66 311.3 78.66Z"/><path fill="#fff" d="M296.04 539.34C163.23 539.34 50.88 446 39.99 321.7 28.44 189.82 135.7 72.26 279.08 59.7c69.44-6.07 136.9 13.14 189.9 54s85.42 98.62 91.03 162.52c5.61 63.9-16.24 126.4-61.39 175.91-45.15 49.5-108.25 80-177.7 86.08-8.38.79-16.7 1.12-24.88 1.12Zm8.19-479.16c-8.32 0-16.64.33-25.02 1.06C136.69 73.7 30.02 190.54 41.5 321.56c10.83 123.44 122.51 216.25 254.53 216.25 8.19 0 16.44-.4 24.75-1.12 69.05-6 131.82-36.44 176.71-85.61 44.89-49.18 66.54-111.23 61-174.73-5.55-63.5-37.7-120.8-90.44-161.46-46.34-35.71-103.77-54.72-163.84-54.72Z"/><path fill="#fff" d="M300 560C156.1 560 39 442.9 39 299S156.1 38 300 38s261 117.1 261 261-117.1 261-261 261Zm0-520.48C156.9 39.52 40.52 155.89 40.52 299c0 143.1 116.37 259.42 259.48 259.42 143.1 0 259.42-116.38 259.42-259.42S443.04 39.52 300 39.52Z"/></svg>
