<svg width="600" height="600" fill="none" xmlns="http://www.w3.org/2000/svg"><path fill-rule="evenodd" clip-rule="evenodd" d="M600 0H0v600h600V0ZM282.389 582.399c45.431-4.797 88.151-65.536 120.257-113.731 24.509-36.617 42.645-66.138 63.493-100.072a10358.48 10358.48 0 0 1 20.209-32.8l1.36-2.167c30.689-48.896 69.719-111.084 54.446-149.293-15.152-38.696-86.07-53.392-144.921-60.148-58.423-7.022-105.395-6.614-156.312 1.3-51.184 7.485-106.314 22.475-138.342 59.333-31.68 36.938-40.258 95.744-30.405 149.322 10.2 53.658 38.565 101.66 77.084 151.662 38.6 49.655 87.434 100.962 133.131 96.594Z" fill="#fff"/></svg>