<svg width="600" height="600" viewBox="0 0 600 600" fill="none" xmlns="http://www.w3.org/2000/svg">
<g clip-path="url(#clip0)">
<path fill-rule="evenodd" clip-rule="evenodd" d="M-28 -58H711V678H-28V-58ZM158.09 336.807C170.055 336.813 181.528 341.57 189.989 350.032C198.449 358.494 203.205 369.968 203.212 381.935C203.238 422.605 213.622 462.599 233.384 498.144C185.149 481.883 144.487 448.609 118.999 404.543C115.027 397.681 112.933 389.893 112.928 381.963C112.923 374.034 115.007 366.243 118.97 359.376C122.934 352.509 128.636 346.807 135.504 342.845C142.371 338.882 150.161 336.8 158.09 336.807ZM134.893 395.391C147.231 416.818 163.641 435.625 183.198 450.751L196.924 461.391L192.693 444.543C187.546 424.072 184.94 403.044 184.934 381.935C184.919 377.195 183.662 372.541 181.286 368.439C178.924 364.382 175.538 361.015 171.468 358.675C167.397 356.335 162.784 355.103 158.09 355.103C153.377 355.106 148.749 356.349 144.67 358.709C140.591 361.069 137.206 364.461 134.854 368.545C132.503 372.629 131.268 377.261 131.275 381.973C131.282 386.686 132.53 391.314 134.893 395.391ZM232.826 307.222C213.005 287.398 186.122 276.259 158.091 276.255C139.535 276.254 121.306 281.139 105.236 290.418C89.1667 299.698 75.8229 313.044 66.5461 329.117C57.2693 345.19 52.3865 363.421 52.3888 381.98C52.3911 400.538 57.2782 418.768 66.5589 434.839C90.213 475.787 124.21 509.8 165.145 533.471C206.08 557.141 252.516 569.639 299.8 569.711C331.495 569.653 362.938 564.082 392.724 553.247C355.579 542.523 322.922 520.023 299.669 489.132C276.415 458.242 263.823 420.633 263.789 381.967C263.785 353.931 252.647 327.046 232.826 307.222ZM174.294 517.63C136.141 495.565 104.453 463.861 82.4048 425.695H82.4208C75.715 414.084 71.7698 401.085 70.8905 387.705C70.0112 374.325 72.2215 360.922 77.3502 348.532C82.479 336.143 90.3887 325.1 100.468 316.258C110.546 307.415 122.524 301.01 135.474 297.538C148.424 294.065 161.999 293.619 175.149 296.234C188.299 298.848 200.671 304.453 211.309 312.615C221.946 320.777 230.564 331.277 236.494 343.303C242.425 355.329 245.51 368.558 245.511 381.967C245.537 416.457 254.611 450.338 271.828 480.223C285.227 503.468 303.272 523.702 324.837 539.663L337.507 549.079L321.773 550.455C314.486 551.095 307.095 551.423 299.8 551.423C255.727 551.349 212.447 539.696 174.294 517.63ZM158.091 306.551C178.089 306.553 197.268 314.499 211.409 328.642C225.55 342.785 233.495 361.966 233.497 381.967C233.521 418.562 243.15 454.509 261.422 486.215C272.962 506.261 287.788 524.225 305.28 539.359C303.445 539.396 301.619 539.418 299.801 539.423C257.833 539.351 216.621 528.254 180.291 507.241C143.962 486.229 113.789 456.039 92.7958 419.695C86.1729 408.23 82.6847 395.224 82.6818 381.983C82.6789 368.743 86.1614 355.735 92.7794 344.267C99.3972 332.8 108.917 323.277 120.382 316.656C131.847 310.035 144.852 306.55 158.091 306.551ZM108.642 410.551C123.351 436.005 142.982 458.275 166.39 476.06C189.797 493.844 216.512 506.788 244.976 514.135L259.862 517.983L251.511 505.063C249.455 501.863 247.455 498.615 245.568 495.343C225.703 460.859 215.235 421.764 215.212 381.967C215.212 373.202 213.196 364.555 209.32 356.695C205.444 348.834 199.812 341.971 192.859 336.636C185.906 331.302 177.819 327.639 169.224 325.93C160.628 324.222 151.755 324.515 143.291 326.786C134.827 329.057 126.999 333.245 120.413 339.026C113.826 344.807 108.658 352.027 105.309 360.126C101.959 368.224 100.517 376.985 101.095 385.731C101.673 394.476 104.255 402.971 108.642 410.559V410.551ZM22.2966 376.088L22.2964 376.09C22.2666 376.567 22.2367 377.047 22.2367 377.527C22.2237 377.92 22.2575 378.333 22.2913 378.745V378.745V378.746V378.747C22.32 379.096 22.3487 379.445 22.3487 379.783V381.991V384.183C22.3487 384.428 22.346 384.674 22.3433 384.921C22.338 385.417 22.3327 385.913 22.3487 386.398C22.3727 387.127 22.4127 387.847 22.4526 388.583C22.4579 388.679 22.4629 388.777 22.4677 388.874C22.4772 389.07 22.4861 389.267 22.4949 389.464L22.4953 389.47C22.5067 389.724 22.518 389.977 22.5309 390.227C22.541 390.42 22.552 390.611 22.5646 390.799C22.61 391.472 22.6626 392.095 22.7224 392.804L22.7225 392.806L22.7327 392.927C22.7657 393.319 22.7967 393.727 22.8277 394.126C22.8403 394.288 22.8528 394.448 22.8656 394.605L22.8828 394.813L22.8967 394.976C22.9033 395.051 22.9099 395.125 22.9166 395.199C22.9523 395.587 22.998 395.958 23.0453 396.342C23.056 396.429 23.0668 396.517 23.0776 396.605C23.0923 396.727 23.1071 396.85 23.1215 396.977C23.1334 397.08 23.1451 397.186 23.1566 397.295L23.1637 397.362L23.1644 397.37L23.1663 397.388L23.1664 397.39C23.244 398.125 23.3282 398.923 23.4125 399.583C23.4589 399.945 23.5118 400.287 23.5668 400.642C23.6163 400.961 23.6673 401.291 23.7165 401.655L23.759 401.969C23.8506 402.65 23.9476 403.369 24.0445 403.951C24.1565 404.623 24.2604 405.215 24.4044 405.959C24.4815 406.357 24.5609 406.808 24.6376 407.244L24.6381 407.247L24.6909 407.546C24.7386 407.816 24.7849 408.074 24.8284 408.303C24.9022 408.69 24.9786 409.037 25.0607 409.411C25.1211 409.685 25.1845 409.974 25.2523 410.303C25.4123 411.079 25.5963 411.967 25.7483 412.631C25.9003 413.295 26.0682 413.951 26.2362 414.607C26.4202 415.383 26.6041 416.134 26.8121 416.935C26.8338 417.017 26.8558 417.1 26.8781 417.183C26.9086 417.297 26.9395 417.41 26.9708 417.524C27.0162 417.688 27.0623 417.852 27.1088 418.016C27.1877 418.294 27.2679 418.571 27.3481 418.847L27.3959 419.015C27.424 419.115 27.4521 419.215 27.4804 419.316C27.5249 419.475 27.5696 419.636 27.6145 419.797L27.6172 419.808C27.7455 420.269 27.8759 420.738 28.012 421.207C28.0593 421.364 28.1075 421.521 28.1564 421.678C28.1794 421.752 28.2026 421.826 28.2258 421.899L28.2675 422.031L28.3047 422.148L28.3743 422.366L28.43 422.54L28.4318 422.546L28.4337 422.551C28.4933 422.738 28.553 422.924 28.6119 423.111C28.7495 423.546 28.8848 423.971 29.0216 424.401C29.1312 424.744 29.2419 425.091 29.3558 425.446C29.5637 426.071 29.7957 426.695 30.0197 427.319C30.2676 428.055 30.5316 428.855 30.8196 429.655C31.0515 430.263 31.2995 430.871 31.5395 431.479C31.8354 432.263 32.1314 433.015 32.4514 433.815C32.7233 434.423 32.9952 435.023 33.2512 435.631C33.3357 435.828 33.4197 436.024 33.5037 436.218C33.5962 436.432 33.6887 436.646 33.782 436.861L33.8054 436.915L33.9564 437.263L34.0919 437.576C34.1418 437.691 34.1923 437.808 34.2432 437.927C34.4202 438.369 34.6234 438.803 34.827 439.238C34.8994 439.393 34.9717 439.547 35.043 439.703C35.1418 439.913 35.24 440.124 35.3381 440.335L35.3549 440.371C35.6086 440.915 35.8617 441.459 36.1229 441.999C36.1797 442.115 36.2376 442.232 36.2961 442.348C36.4047 442.563 36.5156 442.778 36.6266 442.992L36.6307 443L36.6312 443.001L36.6318 443.002L36.7608 443.252L36.8364 443.399L36.8722 443.469L36.9305 443.583C36.9601 443.642 36.9895 443.7 37.0187 443.759C37.377 444.507 37.7753 445.256 38.1735 446.004L38.1747 446.007L38.176 446.009L38.1773 446.012L38.1786 446.015C38.3892 446.409 38.6108 446.803 38.8311 447.195L38.8365 447.205L38.8821 447.286L39.0016 447.499C39.0502 447.586 39.0985 447.672 39.1465 447.759L39.3359 448.105L39.3384 448.109L39.3399 448.112C39.6917 448.756 40.0453 449.403 40.4103 450.039C63.3831 489.832 95.191 523.815 133.379 549.364C171.567 574.913 215.114 591.344 260.659 597.391C306.204 603.437 352.529 598.936 396.058 584.236C439.588 569.535 479.159 545.029 511.716 512.607C507.866 514.633 503.938 516.5 499.934 518.207L499.526 518.391C498.379 518.871 497.227 519.337 496.07 519.791L495.27 520.111C494.166 520.543 493.054 520.943 491.943 521.343L490.951 521.703C489.855 522.087 488.759 522.447 487.655 522.807L486.591 523.151C485.495 523.503 484.384 523.831 483.28 524.151L482.2 524.463C481.08 524.783 479.96 525.079 478.832 525.375L477.776 525.639C476.633 525.911 475.489 526.183 474.337 526.439L473.337 526.655C472.185 526.911 470.969 527.159 469.786 527.383L468.898 527.551C467.666 527.775 466.434 527.991 465.194 528.191L464.49 528.295C463.186 528.495 461.875 528.687 460.563 528.855L460.171 528.895C454.201 529.64 448.19 530.017 442.173 530.023C402.926 530.023 365.287 514.43 337.535 486.674C309.784 458.919 294.193 421.275 294.193 382.023V381.831C294.118 358.022 287.834 334.644 275.963 314.006C271.597 306.446 266.508 299.327 260.765 292.75L260.445 292.367C259.621 291.431 258.781 290.518 257.934 289.599L257.462 289.078C256.656 288.23 255.843 287.39 255.022 286.558C254.949 286.483 254.877 286.407 254.805 286.332L254.804 286.33L254.797 286.323L254.79 286.316C254.655 286.174 254.52 286.032 254.382 285.894C254.039 285.559 253.697 285.231 253.354 284.904C252.897 284.468 252.439 284.032 251.982 283.574C251.71 283.286 251.454 283.022 251.182 282.775C250.513 282.133 249.812 281.51 249.107 280.884L249.107 280.883L248.823 280.63C248.699 280.519 248.576 280.407 248.454 280.295C248.268 280.124 248.083 279.955 247.895 279.79C247.143 279.127 246.399 278.487 245.599 277.838C245.434 277.702 245.272 277.563 245.11 277.423C245.054 277.374 244.998 277.326 244.941 277.277C244.88 277.225 244.818 277.172 244.756 277.12C244.673 277.049 244.589 276.98 244.503 276.91C243.767 276.303 243.048 275.711 242.248 275.118C242.16 275.051 242.075 274.983 241.99 274.916C241.924 274.864 241.86 274.811 241.795 274.759L241.649 274.641L241.646 274.638C241.553 274.563 241.459 274.487 241.365 274.412C241.253 274.321 241.14 274.232 241.024 274.143C240.403 273.665 239.766 273.2 239.13 272.736L238.8 272.494C238.681 272.405 238.562 272.316 238.443 272.226C238.114 271.977 237.783 271.727 237.448 271.487C236.96 271.135 236.464 270.795 235.966 270.454L235.965 270.453C235.737 270.297 235.509 270.141 235.281 269.983C235.147 269.89 235.013 269.796 234.879 269.703C234.517 269.45 234.153 269.196 233.785 268.95C233.287 268.615 232.782 268.292 232.277 267.97L231.988 267.785C231.891 267.723 231.794 267.661 231.697 267.598C231.618 267.547 231.542 267.497 231.466 267.447L231.286 267.329L231.282 267.326C230.896 267.071 230.519 266.823 230.033 266.526C229.637 266.285 229.216 266.034 228.808 265.79L228.557 265.64L228.332 265.505L228.195 265.424L228.034 265.327C227.838 265.209 227.644 265.09 227.45 264.971L227.448 264.97L227.447 264.969L227.446 264.969L227.445 264.968C227.022 264.71 226.602 264.453 226.17 264.207C210.704 255.276 193.632 249.48 175.926 247.149C158.221 244.817 140.23 245.997 122.98 250.62C105.731 255.243 89.5607 263.218 75.3933 274.092C61.2259 284.965 49.3386 298.523 40.4103 313.991C39.6504 315.303 38.9225 316.622 38.2106 317.95C37.9702 318.353 37.7614 318.762 37.5543 319.167C37.5065 319.26 37.4587 319.353 37.4107 319.446C37.2944 319.673 37.1776 319.898 37.0607 320.124L37.0556 320.134C36.7402 320.742 36.4252 321.35 36.1229 321.967C35.9246 322.341 35.7453 322.719 35.5667 323.096L35.5665 323.097L35.5663 323.097L35.5662 323.097L35.566 323.098C35.4854 323.268 35.405 323.438 35.323 323.607C35.2465 323.766 35.1696 323.926 35.0928 324.085C34.7841 324.725 34.4753 325.366 34.1871 326.006C34.0272 326.353 33.8815 326.699 33.7358 327.046C33.6629 327.22 33.59 327.393 33.5152 327.567L33.3857 327.861C33.0533 328.617 32.7229 329.369 32.4114 330.126C32.3527 330.268 32.2952 330.41 32.2385 330.553C32.1438 330.791 32.0513 331.031 31.9587 331.271L31.9585 331.272L31.9583 331.272C31.8649 331.515 31.7714 331.757 31.6755 331.999C31.5645 332.284 31.4455 332.58 31.3271 332.875L31.3246 332.881C31.1285 333.37 30.9338 333.855 30.7796 334.278C30.6825 334.545 30.5952 334.804 30.5077 335.063C30.3716 335.467 30.2349 335.872 30.0596 336.311C29.7717 337.031 29.4838 337.823 29.2598 338.487C29.0432 339.129 28.864 339.703 28.6426 340.413L28.6199 340.487C28.5969 340.56 28.5736 340.635 28.55 340.71L28.4906 340.899L28.3914 341.214L28.3134 341.461L28.2856 341.549C28.1553 341.961 28.0276 342.366 27.916 342.726C27.7079 343.398 27.54 344.023 27.332 344.767L27.2744 344.972C27.2515 345.053 27.2284 345.135 27.2053 345.216L27.1115 345.546L27.1049 345.569C26.9679 346.049 26.8314 346.528 26.7081 346.991C26.5763 347.485 26.4558 347.983 26.3363 348.477L26.2719 348.743L26.2158 348.973L26.1722 349.151C26.1481 349.248 26.124 349.345 26.0997 349.442L26.0135 349.786L26.0053 349.819L25.9127 350.189C25.8679 350.369 25.8232 350.549 25.7792 350.73C25.7334 350.918 25.6883 351.106 25.6443 351.294C25.5182 351.835 25.4056 352.376 25.293 352.916C25.2556 353.096 25.2182 353.275 25.1803 353.454C25.0283 354.174 24.8683 354.919 24.7244 355.622C24.687 355.805 24.6523 355.987 24.619 356.169C24.5741 356.414 24.5318 356.66 24.489 356.909C24.4415 357.185 24.3934 357.464 24.3405 357.751C24.3142 357.892 24.2877 358.035 24.2611 358.178L24.2604 358.182C24.1494 358.778 24.0372 359.382 23.9405 359.975C23.8445 360.563 23.7589 361.162 23.6752 361.746L23.64 361.992L23.6125 362.183C23.5778 362.423 23.5422 362.662 23.5066 362.9C23.4355 363.376 23.3646 363.852 23.3006 364.343C23.247 364.753 23.2034 365.169 23.16 365.583L23.1597 365.586C23.1254 365.913 23.0913 366.238 23.0526 366.559L23.0366 366.69C22.954 367.373 22.8723 368.05 22.8046 368.726C22.7967 368.806 22.7891 368.885 22.7818 368.964L22.7739 369.052C22.7663 369.137 22.759 369.221 22.752 369.305C22.746 369.378 22.7402 369.45 22.7344 369.522C22.7212 369.689 22.7086 369.856 22.6959 370.025L22.6951 370.034L22.6946 370.042C22.6815 370.215 22.6683 370.39 22.6541 370.569C22.646 370.671 22.6376 370.774 22.6287 370.879C22.6104 371.093 22.5909 371.308 22.5714 371.523L22.5699 371.539L22.5686 371.553C22.5423 371.842 22.5161 372.131 22.4931 372.416C22.4741 372.653 22.4574 372.887 22.4447 373.119C22.4047 373.847 22.3727 374.567 22.3407 375.303C22.335 375.434 22.3279 375.567 22.3203 375.699C22.3127 375.828 22.3047 375.958 22.2966 376.088ZM159.139 543.851C116.38 519.121 80.8701 483.586 56.1682 440.807C47.1393 425.169 41.8286 407.665 40.6467 389.646C39.4649 371.628 42.4437 353.579 49.3527 336.896C56.2617 320.213 66.9156 305.344 80.4901 293.439C94.0646 281.533 110.196 272.91 127.636 268.238C145.076 263.565 163.356 262.968 181.064 266.493C198.771 270.018 215.431 277.569 229.753 288.564C244.075 299.558 255.676 313.701 263.659 329.897C271.641 346.093 275.791 363.909 275.787 381.967C275.789 421.129 289.611 459.035 314.817 489.004C340.024 518.973 374.998 539.083 413.577 545.791L432.942 549.183L414.985 557.183C378.714 573.284 339.483 581.638 299.8 581.711C250.406 581.637 201.899 568.581 159.139 543.851ZM158.09 367.135C160.689 367.125 163.244 367.81 165.489 369.119C167.728 370.385 169.587 372.228 170.873 374.455C172.202 376.736 172.909 379.327 172.92 381.967C172.923 398.048 174.369 414.097 177.24 429.919C164.659 418.052 153.88 404.409 145.244 389.423C143.934 387.171 143.241 384.613 143.234 382.007C143.227 379.402 143.906 376.84 145.204 374.581C146.501 372.321 148.371 370.443 150.625 369.136C152.879 367.829 155.437 367.139 158.042 367.135H158.09ZM319.992 95.5341C313.785 92.4755 306.959 90.8854 300.04 90.8866C249.123 90.8995 199.957 109.472 161.746 143.127C202.436 143.772 242.29 154.786 277.539 175.127C283.535 178.579 290.245 180.605 297.15 181.049C304.055 181.494 310.969 180.344 317.359 177.689C323.748 175.035 329.442 170.946 333.999 165.739C338.556 160.532 341.855 154.347 343.641 147.662C345.427 140.976 345.651 133.97 344.297 127.184C342.943 120.397 340.047 114.014 335.833 108.526C331.618 103.038 326.198 98.5927 319.992 95.5341ZM286.697 159.295C268.398 148.726 248.867 140.453 228.545 134.663L211.867 129.895L227.961 123.335C250.849 113.972 275.343 109.165 300.072 109.183C304.778 109.189 309.4 110.434 313.473 112.791C317.546 115.149 320.928 118.537 323.278 122.615C325.628 126.693 326.865 131.317 326.863 136.024C326.861 140.731 325.622 145.354 323.269 149.431C319.717 155.578 313.874 160.068 307.02 161.917C300.166 163.765 292.858 162.823 286.697 159.295ZM312.918 128.591C314.215 130.851 314.897 133.41 314.897 136.015C314.897 138.62 314.215 141.18 312.918 143.439C310.959 146.831 307.738 149.309 303.958 150.333C300.178 151.356 296.147 150.842 292.745 148.903C278.799 140.849 264.158 134.065 248.999 128.631C265.56 123.681 282.755 121.172 300.04 121.183C302.648 121.179 305.211 121.861 307.471 123.161C309.732 124.462 311.611 126.334 312.918 128.591ZM300.039 30.3028C252.721 30.3242 206.237 42.7741 165.241 66.4068C134.514 84.0356 107.589 107.585 86.0244 135.692C64.4595 163.799 48.6836 195.905 39.6097 230.151C37.53 237.887 35.7943 245.727 34.4104 253.607C62.2696 226.778 98.0924 209.732 136.481 205.037C174.869 200.342 213.744 208.252 247.246 227.575C261.289 235.68 277.008 240.445 293.187 241.502C309.366 242.559 325.571 239.879 340.549 233.67C355.527 227.461 368.876 217.889 379.563 205.695C390.25 193.501 397.989 179.011 402.181 163.347C406.373 147.683 406.905 131.264 403.738 115.361C400.57 99.4576 393.786 84.4965 383.912 71.6349C374.038 58.7733 361.338 48.356 346.794 41.1889C332.25 34.0218 316.253 30.2971 300.039 30.3028ZM169.435 185.707C138.813 183.945 108.204 189.391 80.0684 201.607L65.6223 207.911L72.2694 193.607C93.9658 146.828 129.631 107.927 174.352 82.2628C212.576 60.2231 255.918 48.6117 300.039 48.5908C313.442 48.5933 326.665 51.6785 338.685 57.6078C350.705 63.5371 361.201 72.1517 369.361 82.7855C377.521 93.4193 383.126 105.788 385.744 118.934C388.362 132.08 387.921 145.653 384.457 158.602C380.993 171.551 374.597 183.529 365.765 193.612C356.933 203.694 345.901 211.61 333.522 216.748C321.143 221.885 307.748 224.107 294.373 223.24C280.999 222.374 268.002 218.443 256.389 211.751C229.839 196.389 200.057 187.469 169.435 185.707ZM10.3506 222.335C27.4338 158.553 65.0844 102.191 117.462 61.9924C169.84 21.7939 234.018 0.00546265 300.04 0.00687408C322.773 -0.00391388 345.145 5.68525 365.112 16.5541C385.078 27.423 402.002 43.1247 414.335 62.2234C426.668 81.3221 434.017 103.208 435.709 125.881C437.402 148.553 433.384 171.288 424.024 192.007C422.173 196.098 420.118 200.111 417.857 204.047C416.577 206.271 415.217 208.447 413.857 210.591C413.745 210.759 413.635 210.931 413.525 211.103C413.415 211.275 413.305 211.447 413.193 211.615C413.079 211.788 412.959 211.96 412.839 212.131C412.778 212.217 412.717 212.303 412.657 212.388L412.655 212.391L412.654 212.392L412.654 212.392C412.44 212.693 412.228 212.993 412.033 213.295C411.673 213.855 411.129 214.623 410.658 215.279C410.304 215.77 409.91 216.298 409.52 216.82L409.309 217.102L409.13 217.343C409.03 217.475 408.931 217.608 408.832 217.742C408.764 217.834 408.697 217.926 408.63 218.018L408.627 218.022C408.425 218.297 408.224 218.572 408.018 218.839C397.112 233.001 383.524 244.878 368.031 253.791L367.879 253.879C349.86 264.25 329.704 270.355 308.959 271.727C305.991 271.919 303.016 272.023 300.04 272.023H300.038C298.551 272.023 297.056 272.023 295.569 271.943L294.009 271.871C293.685 271.855 293.361 271.84 293.035 271.826L293.033 271.826L293.027 271.826L293.025 271.825L293.023 271.825L293.022 271.825C292.387 271.797 291.75 271.769 291.113 271.727L289.09 271.559C288.965 271.549 288.84 271.539 288.715 271.529L288.49 271.512L288.486 271.512C287.887 271.465 287.289 271.419 286.69 271.359C286.241 271.317 285.792 271.262 285.34 271.206C285.1 271.176 284.86 271.147 284.618 271.119C284.488 271.104 284.351 271.089 284.209 271.073L283.936 271.043L283.934 271.043C283.386 270.984 282.792 270.919 282.275 270.847C282.011 270.81 281.759 270.773 281.512 270.737L281.242 270.697L280.898 270.646C280.777 270.628 280.656 270.611 280.535 270.593C280.417 270.576 280.299 270.559 280.179 270.543C279.483 270.447 278.643 270.327 277.875 270.199C277.401 270.12 276.966 270.038 276.535 269.956C276.413 269.933 276.292 269.91 276.171 269.888L276.07 269.869C275.958 269.848 275.845 269.827 275.731 269.807C275.542 269.773 275.349 269.739 275.153 269.704C274.61 269.609 274.048 269.511 273.508 269.399C272.966 269.287 272.416 269.167 271.87 269.047C271.674 269.004 271.478 268.961 271.284 268.919C271.013 268.86 270.75 268.805 270.49 268.752C270.044 268.659 269.609 268.569 269.164 268.463C268.46 268.295 267.685 268.095 266.941 267.903C266.597 267.814 266.276 267.736 265.961 267.659C265.594 267.569 265.235 267.482 264.861 267.383C264.365 267.252 263.848 267.1 263.332 266.949L263.329 266.948L263.328 266.948L263.147 266.894C263.001 266.852 262.855 266.809 262.709 266.767C262.525 266.714 262.343 266.663 262.162 266.613C262.068 266.587 261.974 266.561 261.88 266.535L261.879 266.535C261.448 266.416 261.023 266.299 260.597 266.167C260.109 266.015 259.594 265.848 259.081 265.682L259.077 265.681L259.067 265.677L259.063 265.676L259.059 265.675L258.923 265.63C258.757 265.577 258.593 265.523 258.43 265.471L256.374 264.815C255.662 264.575 254.966 264.311 254.262 264.063C253.558 263.815 252.878 263.575 252.191 263.319C251.769 263.162 251.353 262.996 250.938 262.83C250.806 262.777 250.674 262.725 250.542 262.672C250.412 262.621 250.281 262.57 250.151 262.519C249.72 262.351 249.272 262.181 248.828 262.011L248.809 262.004L248.767 261.988L248.681 261.955L248.673 261.952L248.427 261.858C248.305 261.812 248.184 261.765 248.063 261.719C247.562 261.527 247.078 261.309 246.592 261.09L246.591 261.09L246.588 261.089L246.586 261.087L246.387 260.998L246.282 260.951C246.204 260.916 246.126 260.881 246.047 260.847C245.779 260.729 245.504 260.612 245.228 260.494C244.812 260.317 244.392 260.138 243.984 259.951C243.304 259.639 242.68 259.343 242.032 259.031C241.74 258.89 241.43 258.746 241.115 258.6C240.73 258.422 240.338 258.239 239.96 258.055C239.553 257.856 239.19 257.665 238.831 257.477C238.584 257.347 238.338 257.217 238.08 257.087C237.449 256.767 236.689 256.383 236.001 256.015C235.596 255.798 235.255 255.607 234.921 255.419L234.917 255.417L234.915 255.416C234.78 255.34 234.645 255.264 234.508 255.188C234.41 255.134 234.311 255.079 234.209 255.023C233.894 254.851 233.514 254.638 233.122 254.419C232.876 254.281 232.625 254.141 232.381 254.005C232.274 253.946 232.168 253.888 232.065 253.831C229.258 252.231 226.394 250.679 223.498 249.255C207.542 241.393 190.302 236.466 172.601 234.711C167.802 234.242 162.957 234.002 158.067 233.991C132.101 234.036 106.601 240.896 84.1161 253.884C61.6308 266.873 42.9472 285.535 29.932 308.007C29.1321 309.391 28.3322 310.791 27.6042 312.199C27.4555 312.473 27.3148 312.75 27.1744 313.027L27.1729 313.03L27.1718 313.032L27.0616 313.249C27.0179 313.335 26.9739 313.42 26.9296 313.506C26.9093 313.545 26.8889 313.584 26.8684 313.623L26.7303 313.888C26.2872 314.737 25.8408 315.593 25.4206 316.455C25.1406 317.023 24.8687 317.599 24.6207 318.175C24.4367 318.561 24.256 318.949 24.0748 319.337L24.0721 319.343C23.9319 319.644 23.7914 319.945 23.649 320.247C23.5976 320.355 23.5458 320.464 23.4938 320.573L23.4378 320.69L23.4048 320.759C23.1249 321.375 22.8609 321.999 22.605 322.623C22.245 323.423 21.8771 324.279 21.5331 325.111C21.4182 325.385 21.3075 325.659 21.1968 325.933L21.1923 325.944L21.1917 325.945L21.1912 325.947L21.1906 325.948L21.1901 325.949C21.1227 326.116 21.0553 326.283 20.987 326.45C20.9044 326.651 20.8204 326.853 20.7332 327.055C20.4133 327.855 20.0853 328.695 19.7734 329.519C19.692 329.73 19.6129 329.941 19.535 330.153C19.455 330.37 19.3762 330.588 19.2972 330.806L19.2963 330.809C19.2109 331.045 19.1252 331.281 19.0375 331.519C18.7495 332.319 18.4536 333.119 18.1736 333.967C17.9431 334.643 17.7205 335.318 17.4979 335.994L17.4937 336.007C17.4069 336.27 17.321 336.533 17.2349 336.797L17.1104 337.18L17.1012 337.208C17.0419 337.391 16.9821 337.575 16.9216 337.76L16.8297 338.041C16.7849 338.178 16.7397 338.316 16.6938 338.455C16.6199 338.699 16.5461 338.944 16.4726 339.188C16.3391 339.633 16.2068 340.078 16.0779 340.527L15.9888 340.836L15.988 340.839L15.9877 340.84L15.9842 340.852C15.7998 341.492 15.5804 342.254 15.39 342.975C15.198 343.671 15.014 344.367 14.838 345.071C14.662 345.775 14.4221 346.711 14.2301 347.535C14.0621 348.239 13.8942 348.935 13.7422 349.639C13.5582 350.439 13.3822 351.295 13.2142 352.127C13.0703 352.831 12.9263 353.535 12.7903 354.239C12.6616 354.883 12.5432 355.573 12.4269 356.252L12.4267 356.253L12.4261 356.256L12.387 356.484L12.3423 356.743C12.2224 357.447 12.1024 358.151 11.9904 358.855C11.8544 359.703 11.7344 360.543 11.6144 361.391C11.5184 362.087 11.4225 362.791 11.3345 363.487C11.3083 363.689 11.2834 363.89 11.2595 364.091C11.2346 364.3 11.2107 364.509 11.1873 364.718C11.1607 364.955 11.1348 365.193 11.1088 365.43L11.1063 365.454L11.1057 365.459C11.0835 365.663 11.0612 365.867 11.0385 366.071C10.9666 366.759 10.8865 367.447 10.8226 368.135C10.769 368.73 10.7225 369.322 10.6759 369.915L10.6744 369.934L10.6724 369.959L10.6706 369.984C10.6495 370.252 10.6284 370.521 10.6066 370.791L10.6021 370.853L10.5901 371.016L10.5784 371.172L10.5584 371.436L10.558 371.439C10.5239 371.89 10.4896 372.342 10.4626 372.791C10.4117 373.529 10.381 374.272 10.3505 375.013L10.3475 375.083C10.3406 375.25 10.3337 375.417 10.3266 375.583C10.3266 375.967 10.3024 376.351 10.2781 376.735C10.263 376.975 10.2479 377.215 10.2386 377.455V377.703C-3.45001 326.813 -3.41132 273.205 10.3506 222.335ZM30.4279 275.447C55.5187 245.356 90.4292 225.095 129.001 218.237C167.572 211.38 207.326 218.368 241.248 237.967C256.885 246.992 274.388 252.299 292.403 253.476C310.419 254.654 328.464 251.67 345.142 244.757C361.82 237.844 376.684 227.186 388.585 213.607C400.486 200.029 409.103 183.895 413.772 166.453C418.44 149.01 419.034 130.728 415.507 113.019C411.98 95.3111 404.427 78.6515 393.432 64.3296C382.438 50.0078 368.296 38.4075 352.102 30.4264C335.907 22.4452 318.094 18.2971 300.04 18.3029C238.034 18.2958 177.759 38.7563 128.567 76.5098C79.3759 114.263 44.0181 167.199 27.9802 227.103C24.1222 241.501 21.3916 256.177 19.8134 270.999L17.7496 290.591L30.4279 275.447ZM300.04 60.5907C258.035 60.6156 216.774 71.6723 180.384 92.6547C142.348 114.459 111.086 146.364 90.0598 184.839C111.922 177.24 134.906 173.37 158.051 173.391C194.678 173.414 230.655 183.07 262.373 201.391C272.393 207.157 283.605 210.541 295.141 211.283C306.678 212.025 318.23 210.105 328.906 205.67C339.582 201.236 349.096 194.406 356.713 185.708C364.33 177.011 369.845 166.678 372.833 155.509C375.821 144.34 376.201 132.634 373.945 121.294C371.689 109.955 366.856 99.2859 359.821 90.1118C352.785 80.9377 343.735 73.5041 333.369 68.3854C323.004 63.2666 311.6 60.5997 300.04 60.5907ZM158.107 155.079C154.347 155.079 150.54 155.175 146.788 155.367L131.406 156.135L142.149 145.175C162.742 124.186 187.311 107.514 214.421 96.1318C241.531 84.7501 270.638 78.8875 300.04 78.8867C308.808 78.8674 317.462 80.867 325.333 84.7306C333.204 88.5942 340.08 94.2181 345.428 101.167C350.776 108.115 354.453 116.202 356.175 124.8C357.896 133.398 357.615 142.277 355.353 150.75C353.092 159.222 348.911 167.06 343.134 173.656C337.357 180.252 330.139 185.43 322.04 188.788C313.94 192.146 305.177 193.594 296.428 193.02C287.679 192.446 279.179 189.866 271.588 185.479C237.08 165.569 197.945 155.085 158.107 155.079ZM336.363 381.975C336.368 363.417 341.255 345.186 350.533 329.113C359.811 313.041 373.153 299.692 389.22 290.407C414.096 276.052 435.129 255.889 450.522 231.639C465.915 207.39 475.211 179.774 477.616 151.151C479.23 131.752 477.696 112.22 473.073 93.3109C533.912 144.359 569.708 220.295 569.708 300.007C569.689 347.337 557.24 393.833 533.609 434.839C521.972 454.994 504.012 470.745 482.513 479.651C461.013 488.557 437.177 490.119 414.699 484.095C392.222 478.072 372.36 464.799 358.194 446.335C344.027 427.871 336.348 405.249 336.347 381.975H336.363ZM366.359 425.679C374.031 438.973 385.069 450.013 398.361 457.686C411.654 465.36 426.732 469.398 442.08 469.394C457.428 469.39 472.504 465.344 485.793 457.663C499.081 449.982 510.113 438.937 517.779 425.639C541.669 384.255 553.261 336.913 551.193 289.171C549.126 241.429 533.486 195.267 506.108 156.103L497.061 143.207L495.214 158.871C491.702 189.296 481.112 218.475 464.293 244.069C447.474 269.664 424.894 290.961 398.362 306.255C378.288 317.851 363.641 336.946 357.64 359.341C351.64 381.737 354.779 405.598 366.367 425.679H366.359ZM306.082 381.975C306.082 405.848 312.366 429.301 324.301 449.975L324.372 449.943C336.303 470.614 353.463 487.781 374.128 499.719C394.793 511.657 418.236 517.945 442.1 517.953C465.965 517.96 489.411 511.686 510.083 499.761C530.756 487.835 547.926 470.679 559.869 450.015V449.943C586.14 404.34 599.978 352.638 600 300.007C600 161.551 505.748 44.7192 378.013 10.2871C379.381 11.1351 380.733 12.0151 382.077 12.9031L382.613 13.2711L382.897 13.463L383.201 13.6677C384.116 14.2846 385.03 14.9001 385.932 15.5591L386.812 16.2071C387.78 16.9111 388.748 17.6151 389.7 18.3431L390.724 19.1431C391.62 19.8311 392.515 20.5351 393.387 21.2471L394.483 22.1511C394.648 22.2875 394.813 22.4241 394.98 22.561L394.98 22.5617C395.662 23.1239 396.352 23.6924 396.995 24.2711L398.107 25.2472C398.917 25.9618 399.717 26.6818 400.506 27.4071L401.61 28.4471C402.394 29.1831 403.162 29.9191 403.922 30.6712L405.01 31.7511C405.183 31.9265 405.357 32.1005 405.53 32.2743C406.108 32.8541 406.683 33.4317 407.25 34.0472L407.369 34.175L407.581 34.3998L407.594 34.4133C407.83 34.6642 408.066 34.9139 408.297 35.1671C409.033 35.9672 409.761 36.7671 410.473 37.5672L411.481 38.7032C412.201 39.5192 412.905 40.3432 413.601 41.1832C413.846 41.4467 414.091 41.7524 414.332 42.0536C414.406 42.1457 414.48 42.2373 414.553 42.3272C415.256 43.1832 415.944 44.0472 416.632 44.9272C416.758 45.0918 416.888 45.2549 417.017 45.4186C417.183 45.6285 417.35 45.8393 417.512 46.0552C418.104 46.8237 418.684 47.6097 419.262 48.3933L419.264 48.3952L419.568 48.8072C419.848 49.1672 420.112 49.5192 420.368 49.8872C421.072 50.8712 421.76 51.8712 422.448 52.8712L423.095 53.8152C423.847 54.9432 424.583 56.0872 425.303 57.2312C425.431 57.4392 425.567 57.6472 425.703 57.8552C426.559 59.2312 427.407 60.6152 428.207 62.0312C439.905 82.3813 446.612 105.215 447.779 128.66C448.946 152.105 444.538 175.492 434.918 196.903C432.899 201.386 430.656 205.765 428.199 210.023C426.695 212.663 425.079 215.255 423.399 217.791L423.111 218.239C422.59 219.022 422.051 219.788 421.514 220.552L421.481 220.598L421.452 220.64C421.368 220.76 421.284 220.879 421.2 220.999C420.92 221.423 420.648 221.823 420.352 222.223C419.798 223.028 419.202 223.824 418.61 224.614L418.607 224.618L418.606 224.619L418.606 224.619C418.496 224.766 418.386 224.912 418.277 225.059C418.168 225.204 418.06 225.35 417.952 225.495L417.504 226.103C405.668 241.526 390.912 254.468 374.078 264.191C358.246 273.334 344.423 285.578 333.435 300.191C330.111 304.595 327.061 309.198 324.301 313.975C312.366 334.65 306.082 358.102 306.082 381.975ZM575.564 241.303C590.08 309.419 578.837 380.499 544.007 440.807C536.391 454.41 526.149 466.364 513.875 475.975C501.602 485.586 487.542 492.664 472.511 496.797C457.481 500.929 441.779 502.035 426.318 500.049C410.857 498.063 395.944 493.025 382.445 485.229C368.946 477.432 357.13 467.031 347.684 454.63C338.237 442.229 331.347 428.074 327.414 412.988C323.481 397.903 322.583 382.186 324.773 366.75C326.963 351.314 332.197 336.467 340.17 323.071C350.497 305.187 365.347 290.335 383.229 280.007C417.119 260.445 443.023 229.552 456.379 192.767C469.735 155.982 469.687 115.664 456.243 78.9112L449.532 60.4632L465.41 72.0072C521.801 112.87 561.047 173.187 575.564 241.303ZM404.362 316.647C430.197 301.756 452.529 281.484 469.847 257.207C487.164 232.929 499.061 205.213 504.733 175.935C526.966 212.597 538.942 254.56 539.409 297.435C539.876 340.311 528.817 382.525 507.388 419.663C501.606 429.684 493.597 438.24 483.98 444.67C474.362 451.1 463.395 455.231 451.926 456.743C440.457 458.255 428.793 457.108 417.838 453.391C406.884 449.673 396.931 443.485 388.75 435.305C380.569 427.125 374.379 417.172 370.659 406.216C366.94 395.261 365.79 383.597 367.3 372.126C368.809 360.655 372.937 349.685 379.363 340.065C385.79 330.444 394.343 322.432 404.362 316.647ZM392.627 410.543C397.635 419.233 404.843 426.45 413.526 431.468C422.209 436.486 432.061 439.128 442.089 439.128C452.117 439.128 461.969 436.486 470.652 431.468C479.335 426.45 486.543 419.233 491.55 410.543C506.221 385.073 515.679 356.938 519.374 327.777C523.068 298.616 520.924 269.011 513.067 240.687L508.948 225.911L501.949 239.559C500.117 243.127 498.365 246.343 496.59 249.399C476.669 283.912 448.014 312.572 413.505 332.495C404.837 337.487 397.643 344.682 392.651 353.351C387.609 362.037 384.953 371.903 384.953 381.947C384.953 391.991 387.609 401.857 392.651 410.543H392.627ZM419.512 342.88C412.675 346.817 406.999 352.491 403.058 359.328L403.042 359.352C400.077 364.482 398.152 370.145 397.375 376.02C396.599 381.894 396.987 387.864 398.518 393.588C400.048 399.312 402.691 404.679 406.295 409.381C409.9 414.084 414.395 418.031 419.524 420.996C424.653 423.961 430.316 425.887 436.19 426.663C442.063 427.44 448.032 427.052 453.755 425.521C459.479 423.99 464.845 421.347 469.547 417.742C474.249 414.138 478.195 409.642 481.16 404.512C506.555 360.406 515.044 308.568 505.045 258.663C484.165 293.558 454.724 322.545 419.512 342.88ZM428.672 405.231C424.593 402.873 421.208 399.482 418.856 395.4C416.492 391.32 415.24 386.691 415.224 381.976C415.257 377.242 416.516 372.597 418.88 368.496C421.214 364.43 424.599 361.067 428.679 358.76C446.931 348.202 463.82 335.445 478.968 320.776L491.446 308.696L489.087 325.904C485.757 350.394 477.685 373.999 465.322 395.4C462.97 399.482 459.585 402.873 455.506 405.231C451.428 407.588 446.8 408.83 442.089 408.83C437.378 408.83 432.75 407.588 428.672 405.231ZM434.654 369.135C448.562 361.089 461.727 351.82 473.993 341.439C469.994 358.255 463.57 374.4 454.923 389.367C453.629 391.627 451.762 393.507 449.51 394.815C447.258 396.123 444.701 396.814 442.096 396.818C439.492 396.822 436.933 396.139 434.676 394.838C432.42 393.537 430.547 391.663 429.246 389.407C427.919 387.134 427.223 384.548 427.231 381.916C427.24 379.284 427.952 376.703 429.294 374.439C430.569 372.219 432.421 370.386 434.654 369.135ZM330.099 285.167L331.235 283.863L331.333 283.759C332.009 283.046 332.65 282.369 333.299 281.575C333.45 281.414 333.601 281.251 333.75 281.089C333.973 280.849 334.194 280.609 334.419 280.375C334.595 280.175 334.771 279.983 334.955 279.791L334.283 279.943L332.395 280.367L329.755 280.943L327.812 281.319C326.94 281.487 326.068 281.647 325.188 281.799L323.22 282.127L320.581 282.519C320.362 282.548 320.144 282.578 319.926 282.609C319.49 282.669 319.055 282.73 318.613 282.783L315.925 283.095C315.285 283.167 314.645 283.239 313.997 283.295C313.061 283.383 312.126 283.455 311.19 283.527L309.374 283.663C308.334 283.727 307.302 283.775 306.262 283.815L304.727 283.887C303.183 283.967 301.631 283.967 300.079 283.967C298.527 283.967 296.976 283.935 295.424 283.887L293.88 283.815C292.848 283.775 291.816 283.727 290.784 283.663L288.953 283.527C288.017 283.455 287.081 283.383 286.153 283.295C285.505 283.239 284.857 283.167 284.209 283.095C283.321 282.999 282.426 282.895 281.538 282.783C280.874 282.703 280.218 282.607 279.554 282.519L276.938 282.127L274.947 281.799L272.347 281.327L270.379 280.943L267.763 280.375L265.852 279.943L265.204 279.791L265.692 280.319C266.132 280.783 266.564 281.255 267.004 281.735C267.612 282.391 268.219 283.063 268.811 283.735C269.251 284.231 269.691 284.735 270.123 285.239C270.699 285.903 271.275 286.575 271.835 287.255C272.267 287.767 272.691 288.287 273.115 288.815C273.667 289.495 274.211 290.183 274.755 290.871L275.986 292.471C276.52 293.175 277.053 293.887 277.586 294.607C277.778 294.883 277.984 295.158 278.191 295.436C278.38 295.691 278.571 295.947 278.754 296.207C279.139 296.749 279.516 297.296 279.893 297.844C280.033 298.048 280.173 298.251 280.314 298.455C280.452 298.671 280.592 298.882 280.732 299.09C280.951 299.415 281.171 299.733 281.386 300.055C281.922 300.879 282.45 301.711 282.985 302.551L283.881 303.959C284.617 305.151 285.329 306.343 286.033 307.551L286.257 307.927L286.473 308.319C287.172 309.535 287.849 310.759 288.505 311.991C288.748 312.386 288.959 312.791 289.169 313.194C289.214 313.281 289.259 313.368 289.305 313.455C289.417 313.674 289.531 313.894 289.644 314.114C289.989 314.783 290.335 315.454 290.672 316.135C290.944 316.695 291.208 317.255 291.472 317.823C291.864 318.655 292.28 319.535 292.664 320.335C292.944 320.927 293.2 321.527 293.464 322.127C293.758 322.785 294.047 323.458 294.326 324.11C294.397 324.274 294.467 324.437 294.536 324.599C294.792 325.215 295.04 325.823 295.288 326.439C295.474 326.901 295.659 327.37 295.84 327.834C295.986 328.204 296.13 328.571 296.272 328.927C296.512 329.543 296.744 330.167 296.968 330.791C297.28 331.631 297.576 332.471 297.872 333.319L297.872 333.32C298.088 333.936 298.304 334.551 298.511 335.175C298.732 335.92 298.965 336.666 299.2 337.417L299.311 337.775C299.503 338.383 299.695 338.991 299.879 339.599C299.943 339.823 300.023 340.047 300.087 340.279C300.123 340.148 300.163 340.022 300.204 339.893C300.218 339.849 300.233 339.804 300.247 339.759L300.258 339.722C300.487 338.964 300.739 338.132 300.959 337.447C301.034 337.215 301.103 336.991 301.172 336.767C301.311 336.319 301.45 335.871 301.631 335.359C301.903 334.591 302.191 333.751 302.431 333.063C302.671 332.375 302.887 331.775 303.167 331.007C303.447 330.239 303.759 329.391 304.031 328.719C304.157 328.405 304.272 328.115 304.39 327.816C304.525 327.474 304.664 327.121 304.831 326.711C304.95 326.417 305.081 326.106 305.211 325.797C305.42 325.3 305.626 324.81 305.774 324.415C306.014 323.775 306.294 323.135 306.574 322.503C306.823 321.959 307.072 321.389 307.324 320.813C307.42 320.593 307.517 320.372 307.614 320.151C307.801 319.711 308.006 319.276 308.212 318.839C308.279 318.695 308.347 318.551 308.414 318.407C308.798 317.543 309.19 316.743 309.598 315.943C309.714 315.71 309.834 315.478 309.954 315.246C310.074 315.014 310.194 314.782 310.31 314.551C310.487 314.214 310.664 313.878 310.84 313.543C311.833 311.652 312.819 309.775 313.885 307.927C314.509 306.863 315.157 305.799 315.813 304.727L316.181 304.111C316.402 303.752 316.649 303.373 316.888 303.007C317.134 302.63 317.37 302.267 317.557 301.959C317.925 301.351 318.301 300.751 318.725 300.143C318.949 299.821 319.145 299.53 319.35 299.225C319.532 298.953 319.723 298.67 319.949 298.343C320.429 297.647 320.908 296.951 321.396 296.263C321.603 295.97 321.823 295.673 322.045 295.372C322.218 295.137 322.393 294.901 322.564 294.663C323.076 293.935 323.612 293.207 324.164 292.487C324.543 291.991 324.927 291.495 325.316 290.999C325.892 290.255 326.476 289.511 327.068 288.783L328.211 287.391C328.835 286.639 329.467 285.903 330.099 285.167Z" fill="white"/>
</g>
<defs>
<clipPath id="clip0">
<rect width="600" height="600" fill="white"/>
</clipPath>
</defs>
</svg>
