<svg xmlns="http://www.w3.org/2000/svg" width="600" height="600" fill="none" viewBox="0 0 600 600"><path fill="#fff" d="M398.41 361.51a13.95 13.95 0 1 0-27.9-.1 13.95 13.95 0 0 0 27.9.1ZM268.32 413.09a13.84 13.84 0 1 0 0-27.68 13.84 13.84 0 0 0 0 27.68ZM210.19 300.45a13.68 13.68 0 1 0-27.35 0 13.68 13.68 0 0 0 27.35 0ZM254.64 201.6a13.68 13.68 0 1 0 27.35 0 13.68 13.68 0 0 0-27.35 0ZM384.52 253.17a13.84 13.84 0 1 0 0-27.67 13.84 13.84 0 0 0 0 27.67ZM438.77 332.74a12.27 12.27 0 1 0-24.54 0 12.27 12.27 0 0 0 24.54 0ZM426.5 363.03a12.26 12.26 0 1 0-12.2 12.21 12.21 12.21 0 0 0 12.2-12.2ZM395.1 401.6a12.27 12.27 0 1 0 .11-24.52 12.27 12.27 0 0 0-.1 24.53ZM357.79 410.1a12.27 12.27 0 1 0 24.53.1 12.27 12.27 0 0 0-24.53-.1Z"/><path fill="#fff" d="M352.81 423.99a12.23 12.23 0 0 0-12.21-12.26c-.82-.09-1.65-.09-2.47 0a13.9 13.9 0 0 0-2.83-26.21 15.37 15.37 0 0 0 4.72-11.06 15.73 15.73 0 0 0-9.9-14.31c2.32-3 3.55-6.7 3.5-10.48 0-1.58-.23-3.15-.68-4.67a16.4 16.4 0 0 0 8.23 2.78 15.2 15.2 0 0 0-4.08 10.48A15.72 15.72 0 0 0 352.8 374a13.84 13.84 0 1 0 9.12-3.36 15.41 15.41 0 0 0-7.34-27.57 17.92 17.92 0 0 0 3.1-4.3 15.41 15.41 0 0 0 28.5-1.57 13.94 13.94 0 1 0 0-9.7 15.36 15.36 0 0 0-28.03-3.09 17.66 17.66 0 0 0-5.25-6.97 16.93 16.93 0 0 0 13.48-7.29 15.36 15.36 0 0 0 25.89-3.04 13.79 13.79 0 0 0 25.84-6.18 12.26 12.26 0 1 0 0-1 13.79 13.79 0 0 0-25.84-6.13 15.36 15.36 0 0 0-13.9-8.86 15.74 15.74 0 0 0-12 5.77 16.98 16.98 0 0 0-13.57-7.29 17.03 17.03 0 0 0 5.24-7.13 15.3 15.3 0 0 0 28.3-3.14 13.84 13.84 0 1 0 0-9.23 15.31 15.31 0 0 0-28.5-1.62 16.45 16.45 0 0 0-3.26-4.56 15.3 15.3 0 0 0 7.24-27.62 13.9 13.9 0 1 0-8.6-3h-.47a15.42 15.42 0 0 0-15.41 15.73 15.2 15.2 0 0 0 4.09 10.49 17.3 17.3 0 0 0-8.6 3.04 16.72 16.72 0 0 0-2.83-15.41 15.35 15.35 0 0 0 10.01-14.37 15.1 15.1 0 0 0-4.93-11.16 13.73 13.73 0 1 0-12.26-3.98 15.36 15.36 0 0 0-13.52 15.14c.02 3.02.91 5.97 2.56 8.5a17 17 0 0 0-11.32 11 16.88 16.88 0 0 0-5.24-7.8 15.36 15.36 0 0 0 5.77-27.84 13.74 13.74 0 1 0-8.39-2.57 15.36 15.36 0 0 0-15.36 15.36 15.2 15.2 0 0 0 5.24 11.37c-1.98.25-3.9.87-5.66 1.84.23-1.05.35-2.12.37-3.2a15.36 15.36 0 0 0-15.36-15.36 15.15 15.15 0 0 0-9.17 3.15c.46-1.4.7-2.87.73-4.35a13.68 13.68 0 1 0-13.89 13.36c2.8-.02 5.51-.88 7.81-2.46a15.16 15.16 0 0 0-1.05 5.24 15.36 15.36 0 0 0 15.36 15.36c2.3-.04 4.55-.57 6.6-1.57-.4 1.4-.6 2.84-.62 4.3.02 1.78.34 3.55.94 5.24a16.93 16.93 0 0 0-9.96-3.3c-1.97.02-3.91.37-5.76 1.04a15.2 15.2 0 0 0-22.8-12.68c.05-.66.05-1.33 0-2a13.73 13.73 0 1 0-7.7 12.27c-.22 1-.32 2.02-.32 3.04a15.36 15.36 0 0 0 15.35 15.3c1.4-.02 2.8-.23 4.15-.62v.57a16.92 16.92 0 0 0 6.86 13.58c-3.2 0-6.33.94-9.01 2.67.05-.64.05-1.3 0-1.94a15.36 15.36 0 0 0-15.36-15.3 15.73 15.73 0 0 0-9.6 3.4c.45-1.28.68-2.62.69-3.98a13.8 13.8 0 1 0-5.56 10.96 15.25 15.25 0 0 0 22.07 18.24 14 14 0 0 0 0 5.87 15.04 15.04 0 0 0-7.6-2.1 15.36 15.36 0 0 0-15.36 15.36c.03 1.64.33 3.27.9 4.82a13.79 13.79 0 1 0 5.6 11.06 13.34 13.34 0 0 0-.63-3.88 15.31 15.31 0 0 0 25-11.9c.06-.62.06-1.26 0-1.88a17.14 17.14 0 0 0 8.91 2.67 16.82 16.82 0 0 0-6.86 13.52v.48a15.41 15.41 0 0 0-19.5 14.83c.02.97.13 1.93.31 2.88a13.05 13.05 0 0 0-5.87-1.36 13.8 13.8 0 1 0 13.74 13.73v-1.83a15.26 15.26 0 0 0 22.74-12.74c1.83.67 3.77 1.03 5.72 1.05 3.47 0 6.86-1.08 9.7-3.1a15.99 15.99 0 0 0 0 9.02c-2.01-.93-4.2-1.41-6.4-1.41a15.72 15.72 0 0 0-15.41 15.46c0 1.78.31 3.55.89 5.24a13.42 13.42 0 0 0-7.97-2.57 13.84 13.84 0 1 0 13.84 13.84 13.35 13.35 0 0 0-.68-4.09c2.6 1.9 5.74 2.94 8.96 2.94a15.4 15.4 0 0 0 15.41-15.41c.08-1 .08-2 0-3a15.7 15.7 0 0 0 5.24 1.69 15.36 15.36 0 0 0-.66 21.91 15.73 15.73 0 0 0 10.3 4.92 13.69 13.69 0 0 0-5.23 10.9 13.83 13.83 0 1 0 14.57-13.73 15.72 15.72 0 0 0-5.77-27.83 16.5 16.5 0 0 0 5.24-7.18 17.08 17.08 0 0 0 11.12 10.48 15.42 15.42 0 0 0 10.9 23.64 13.9 13.9 0 0 0 10.12 23.38c1.02-.02 2.04-.14 3.04-.37a12.21 12.21 0 1 0 17.24 11.16l-.42.11Z"/><path fill="#fff" d="M320.84 430.07a12.27 12.27 0 1 0-24.53 0 12.27 12.27 0 0 0 24.53 0ZM288.34 428.29a12.27 12.27 0 1 0-24.53-.52 12.27 12.27 0 0 0 24.53.52ZM257.31 417.8a12.22 12.22 0 1 0-24.44 0 12.22 12.22 0 0 0 24.44 0ZM217.63 412.56a12.21 12.21 0 1 0 .1-24.42 12.21 12.21 0 0 0-.1 24.42ZM195.35 388.87a12.1 12.1 0 1 0 0-24.2 12.1 12.1 0 0 0 0 24.2ZM179.63 360.15a12.11 12.11 0 1 0 0-24.22 12.11 12.11 0 0 0 0 24.22ZM171.45 328.7a12.1 12.1 0 1 0 0-24.2 12.1 12.1 0 0 0 0 24.2ZM171.45 296.25a12.11 12.11 0 1 0 0-24.22 12.11 12.11 0 0 0 0 24.22ZM179.63 264.65a12.06 12.06 0 1 0 0-24.11 12.06 12.06 0 0 0 0 24.1ZM195.35 236.08a12.05 12.05 0 1 0 0-24.1 12.05 12.05 0 0 0 0 24.1ZM205.57 200.33a12.06 12.06 0 1 0 24.13 0 12.06 12.06 0 0 0-24.13 0ZM233.1 182.88a12.06 12.06 0 1 0 24.1.1 12.06 12.06 0 0 0-24.1-.1ZM276.07 184.92a12.1 12.1 0 1 0 0-24.21 12.1 12.1 0 0 0 0 24.21ZM308.57 182.88a12.1 12.1 0 1 0 0-24.21 12.1 12.1 0 0 0 0 24.21ZM328.7 176.7a12.1 12.1 0 1 0 24.2 0 12.1 12.1 0 0 0-24.2 0ZM357.95 190.74a12.11 12.11 0 1 0 24.22 0 12.11 12.11 0 0 0-24.22 0ZM407.32 211.5a12.22 12.22 0 1 0-24.44.32 12.22 12.22 0 0 0 24.44-.32ZM414.3 250.08a12.21 12.21 0 1 0 0-24.43 12.21 12.21 0 0 0 0 24.43ZM426.24 280.37a12.26 12.26 0 1 0 .1-24.52 12.26 12.26 0 0 0-.1 24.52ZM466.92 300.45a10.48 10.48 0 1 0-20.97 0 10.48 10.48 0 0 0 20.97 0ZM463.51 332.84a10.48 10.48 0 1 0-20.96 0 10.48 10.48 0 0 0 20.96 0ZM442.86 374.4a10.48 10.48 0 1 0 0-20.96 10.48 10.48 0 0 0 0 20.97ZM437.15 392.07a10.49 10.49 0 1 0-20.98 0 10.49 10.49 0 0 0 20.98 0ZM404.75 426.87a10.48 10.48 0 1 0 0-20.96 10.48 10.48 0 0 0 0 20.96ZM388.98 435.42a10.48 10.48 0 1 0-20.97 0 10.48 10.48 0 0 0 20.97 0ZM348.62 459.27a10.48 10.48 0 1 0 0-20.96 10.48 10.48 0 0 0 0 20.96ZM316.75 466.08a10.48 10.48 0 1 0 0-20.97 10.48 10.48 0 0 0 0 20.97ZM284.15 466.08a10.48 10.48 0 1 0 0-20.97 10.48 10.48 0 0 0 0 20.97ZM252.28 459.27a10.48 10.48 0 1 0 0-20.97 10.48 10.48 0 0 0 0 20.97ZM222.5 445.95a10.48 10.48 0 1 0 0-20.96 10.48 10.48 0 0 0 0 20.96ZM196.14 426.82a10.48 10.48 0 1 0 0-20.97 10.48 10.48 0 0 0 0 20.97ZM174.34 381.53a10.48 10.48 0 1 0 0 20.96 10.48 10.48 0 0 0 0-20.96ZM168.52 363.82a10.48 10.48 0 1 0-20.97 0 10.48 10.48 0 0 0 20.97 0ZM147.97 343.27a10.43 10.43 0 1 0 0-20.86 10.43 10.43 0 0 0 0 20.86ZM144.56 310.88a10.43 10.43 0 1 0 0-20.86 10.43 10.43 0 0 0 0 20.86ZM147.97 278.43a10.43 10.43 0 1 0 0-20.86 10.43 10.43 0 0 0 0 20.86ZM147.55 237.03a10.49 10.49 0 1 0 20.98 0 10.49 10.49 0 0 0-20.98 0ZM174.34 219.26a10.48 10.48 0 1 0 0-20.97 10.48 10.48 0 0 0 0 20.97ZM196.14 174.13a10.49 10.49 0 1 0 0 20.97 10.49 10.49 0 0 0 0-20.97ZM222.5 175.86a10.43 10.43 0 1 0 0-20.86 10.43 10.43 0 0 0 0 20.86ZM241.8 152.16a10.48 10.48 0 1 0 20.96 0 10.48 10.48 0 0 0-20.97 0ZM273.66 145.25a10.48 10.48 0 1 0 20.97 0 10.48 10.48 0 0 0-20.97 0ZM306.27 145.25a10.48 10.48 0 1 0 20.96 0 10.48 10.48 0 0 0-20.96 0ZM338.08 152.16a10.48 10.48 0 1 0 20.97 0 10.48 10.48 0 0 0-20.97 0ZM367.85 165.43a10.48 10.48 0 1 0 20.97 0 10.48 10.48 0 0 0-20.97 0ZM394.22 184.56a10.49 10.49 0 1 0 20.97 0 10.49 10.49 0 0 0-20.97 0ZM416.02 208.82a10.48 10.48 0 1 0 20.97 0 10.48 10.48 0 0 0-20.97 0ZM453.45 237.03a10.48 10.48 0 1 0-20.97 0 10.48 10.48 0 0 0 20.97 0ZM452.92 278.59a10.48 10.48 0 1 0 0-20.97 10.48 10.48 0 0 0 0 20.97ZM482.28 309.36a8.91 8.91 0 1 0 0-17.82 8.91 8.91 0 0 0 0 17.82ZM479.4 341.9a9.02 9.02 0 1 0 0-18.02 9.02 9.02 0 0 0 0 18.03ZM479.7 364.34a9.02 9.02 0 1 0-18.02 0 9.02 9.02 0 0 0 18.03 0ZM465.56 393.7a9.02 9.02 0 1 0-18.05 0 9.02 9.02 0 0 0 18.05 0ZM437.4 429.13a9.01 9.01 0 1 0 0-18.03 9.01 9.01 0 0 0 0 18.03ZM413.82 451.61a9.01 9.01 0 1 0 0-18.03 9.01 9.01 0 0 0 0 18.03ZM386.62 469.6a9 9 0 1 0 0-18.03 9 9 0 0 0 0 18.02ZM356.64 482.43a9.02 9.02 0 1 0 0-18.04 9.02 9.02 0 0 0 0 18.04ZM324.82 489.61a8.96 8.96 0 1 0 .11-17.9 8.96 8.96 0 0 0-.1 17.9ZM292.27 491.19a8.9 8.9 0 1 0 0-17.8 8.9 8.9 0 0 0 0 17.8ZM259.98 486.68a8.96 8.96 0 1 0 0-17.93 8.96 8.96 0 0 0 0 17.93ZM228.95 476.56a8.91 8.91 0 1 0 0-17.82 8.91 8.91 0 0 0 0 17.82ZM209.2 452.24a8.96 8.96 0 1 0-17.92-.1 8.96 8.96 0 0 0 17.91.1ZM174.76 440.82a8.91 8.91 0 1 0 0-17.83 8.91 8.91 0 0 0 0 17.83ZM144.4 407.32a8.92 8.92 0 1 0 17.84.1 8.92 8.92 0 0 0-17.83-.1ZM136.54 370.63a8.86 8.86 0 1 0-.3 17.71 8.86 8.86 0 0 0 .3-17.7ZM125.12 357.69a8.86 8.86 0 1 0 0-17.73 8.86 8.86 0 0 0 0 17.73ZM119.3 325.6a8.86 8.86 0 1 0 0-17.71 8.86 8.86 0 0 0 0 17.72ZM119.3 292.9a8.8 8.8 0 1 0 0-17.62 8.8 8.8 0 0 0 0 17.62ZM116.31 252.07a8.8 8.8 0 1 0 17.6 0 8.8 8.8 0 0 0-17.6 0ZM127.8 221.51a8.8 8.8 0 1 0 17.6 0 8.8 8.8 0 0 0-17.6 0ZM153.27 184.72a8.8 8.8 0 1 0 0 17.6 8.8 8.8 0 0 0 0-17.6ZM174.76 177.74a8.8 8.8 0 1 0 .52-17.6 8.8 8.8 0 0 0-.52 17.6ZM200.23 157.46a8.8 8.8 0 1 0 0-17.6 8.8 8.8 0 0 0 0 17.6ZM229.1 124.28a8.8 8.8 0 1 0 0 17.6 8.8 8.8 0 0 0 0-17.6ZM259.98 114.32a8.81 8.81 0 1 0-.1 17.63 8.81 8.81 0 0 0 .1-17.63ZM292.27 109.97a8.8 8.8 0 1 0 0 17.62 8.8 8.8 0 0 0 0-17.62ZM324.82 111.33a8.86 8.86 0 1 0 .53 17.72 8.86 8.86 0 0 0-.53-17.72ZM356.64 118.62a8.85 8.85 0 1 0-.21 17.7 8.85 8.85 0 0 0 .2-17.7ZM386.62 131.4a8.85 8.85 0 1 0 0 17.7 8.85 8.85 0 0 0 0-17.7ZM413.82 149.39a8.85 8.85 0 1 0 0 17.7 8.85 8.85 0 0 0 0-17.7ZM428.55 180.78a8.85 8.85 0 1 0 17.7 0 8.85 8.85 0 0 0-17.7 0ZM447.63 207.15a8.96 8.96 0 1 0 5.5-8.24 8.93 8.93 0 0 0-5.5 8.24ZM470.7 227.59a8.96 8.96 0 1 0 0 17.91 8.96 8.96 0 0 0 0-17.91ZM470.22 267.95a8.97 8.97 0 1 0 17.9 1.37 8.97 8.97 0 0 0-17.9-1.37ZM508.27 293.06a7.4 7.4 0 1 0-.1 14.79 7.4 7.4 0 0 0 .1-14.8ZM513.1 332.94a7.39 7.39 0 1 0-14.78-.1 7.39 7.39 0 0 0 14.78.1ZM498.1 357.32a7.33 7.33 0 1 0 0 14.67 7.33 7.33 0 0 0 0-14.67ZM485.63 402.13a7.34 7.34 0 1 0 0-14.67 7.34 7.34 0 0 0 0 14.67ZM468.6 429.97a7.4 7.4 0 1 0 .1-14.8 7.4 7.4 0 0 0-.1 14.8ZM447.42 454.76a7.33 7.33 0 1 0-.1-14.66 7.33 7.33 0 0 0 .1 14.66ZM429.97 468.6a7.4 7.4 0 1 0-14.8-.1 7.4 7.4 0 0 0 14.8.1ZM402.08 485.63a7.34 7.34 0 1 0-14.68 0 7.34 7.34 0 0 0 14.68 0ZM364.66 505.44a7.34 7.34 0 1 0 0-14.67 7.34 7.34 0 0 0 0 14.67ZM340.28 505.7a7.34 7.34 0 1 0-14.68.11 7.34 7.34 0 0 0 14.68-.1ZM307.73 508.27a7.4 7.4 0 1 0-14.78-.1 7.4 7.4 0 0 0 14.78.1ZM275.29 505.7a7.4 7.4 0 1 0-14.79 0 7.4 7.4 0 0 0 14.79 0ZM236.19 505.4a7.29 7.29 0 1 0 0-14.58 7.29 7.29 0 0 0 0 14.57ZM206.05 492.92a7.29 7.29 0 1 0 0-14.57 7.29 7.29 0 0 0 0 14.57ZM178.27 475.88a7.3 7.3 0 1 0 0-14.58 7.3 7.3 0 0 0 0 14.58ZM153.48 454.7a7.29 7.29 0 1 0 0-14.57 7.29 7.29 0 0 0 0 14.58ZM132.25 429.8a7.23 7.23 0 1 0 .1-14.45 7.23 7.23 0 0 0-.1 14.46ZM115.21 401.98a7.18 7.18 0 1 0 0-14.37 7.18 7.18 0 0 0 0 14.37ZM109.97 364.66a7.24 7.24 0 1 0-14.48 0 7.24 7.24 0 0 0 14.48 0ZM95.14 340.13a7.18 7.18 0 1 0-.1-14.36 7.18 7.18 0 0 0 .1 14.36ZM99.8 300.45a7.23 7.23 0 1 0-14.41-1.23 7.23 7.23 0 0 0 14.41 1.23ZM95.14 260.56a7.23 7.23 0 1 0 6.63 4.43 7.16 7.16 0 0 0-6.63-4.43ZM95.56 236.19a7.24 7.24 0 1 0 14.46.31 7.24 7.24 0 0 0-14.46-.31ZM108.08 206.05a7.13 7.13 0 1 0 14.26 0 7.13 7.13 0 0 0-14.26 0ZM132.25 185.4a7.13 7.13 0 1 0 0-14.26 7.13 7.13 0 0 0 0 14.26ZM153.47 160.6a7.13 7.13 0 1 0 0-14.26 7.13 7.13 0 0 0 0 14.26ZM178.27 139.43a7.18 7.18 0 1 0 .1-14.36 7.18 7.18 0 0 0-.1 14.36ZM206.05 122.34a7.13 7.13 0 1 0 0-14.27 7.13 7.13 0 0 0 0 14.27ZM236.19 109.97a7.25 7.25 0 0 0 5.5-12.53 7.23 7.23 0 1 0-5.5 12.53ZM267.9 102.32a7.18 7.18 0 1 0-.32-14.35 7.18 7.18 0 0 0 .32 14.35ZM300.45 99.8a7.24 7.24 0 1 0-.01-14.47 7.24 7.24 0 0 0 0 14.47ZM332.94 102.32a7.18 7.18 0 1 0 0-14.36 7.18 7.18 0 0 0 0 14.36ZM364.65 109.97a7.24 7.24 0 1 0 1.23-14.44 7.24 7.24 0 0 0-1.23 14.44ZM387.62 115.21a7.18 7.18 0 1 0 14.36 0 7.18 7.18 0 0 0-14.37 0ZM422.63 139.48a7.23 7.23 0 1 0 0-14.46 7.23 7.23 0 0 0 0 14.46ZM447.42 146.19a7.28 7.28 0 1 0-.42 14.55 7.28 7.28 0 0 0 .42-14.55ZM468.6 170.98a7.29 7.29 0 1 0 0 14.58 7.29 7.29 0 0 0 0-14.58ZM478.34 206.05a7.28 7.28 0 1 0 14.57.1 7.28 7.28 0 0 0-14.57-.1ZM498.1 229.11a7.3 7.3 0 1 0 .01 14.58 7.3 7.3 0 0 0 0-14.58ZM498.37 267.9a7.4 7.4 0 1 0 14.78.1 7.4 7.4 0 0 0-14.78-.1ZM534.27 294.73a5.72 5.72 0 1 0-1.1 11.38 5.72 5.72 0 0 0 1.1-11.38ZM531.97 327.28a5.71 5.71 0 1 0 0 11.42 5.71 5.71 0 0 0 0-11.42ZM519.5 364.87a5.72 5.72 0 1 0 11.43.1 5.72 5.72 0 0 0-11.44-.1ZM514.04 389.87a5.71 5.71 0 1 0 1.1 11.37 5.71 5.71 0 0 0-1.1-11.37ZM498.74 418.64a5.71 5.71 0 1 0 0 11.43 5.71 5.71 0 0 0 0-11.43ZM479.55 445.06a5.71 5.71 0 1 0 1.1 11.37 5.71 5.71 0 0 0-1.1-11.37ZM456.9 468.5a5.72 5.72 0 1 0-.1 11.43 5.72 5.72 0 0 0 .1-11.44ZM431.17 488.62a5.71 5.71 0 1 0 1.1 11.38 5.71 5.71 0 0 0-1.1-11.38ZM408.63 510.58a5.71 5.71 0 1 0-11.42 0 5.71 5.71 0 0 0 11.42 0ZM378.39 522.64a5.72 5.72 0 1 0-11.38-1.1 5.72 5.72 0 0 0 11.38 1.1ZM341.02 525.05a5.71 5.71 0 1 0 1.09 11.37 5.71 5.71 0 0 0-1.1-11.37ZM308.57 528.45a5.71 5.71 0 1 0 1.1 11.38 5.71 5.71 0 0 0-1.1-11.38ZM275.97 527.3a5.71 5.71 0 1 0 1.1 11.38 5.71 5.71 0 0 0-1.1-11.38ZM249.55 527.3a5.72 5.72 0 1 0-11.43.22 5.72 5.72 0 0 0 11.43-.22ZM218.63 517.4a5.71 5.71 0 1 0-11.43 0 5.71 5.71 0 0 0 11.43 0ZM183.5 508.64a5.71 5.71 0 1 0 .01-11.42 5.71 5.71 0 0 0 0 11.42ZM162.07 484.69a5.61 5.61 0 1 0-11.23 0 5.61 5.61 0 0 0 11.23 0ZM137.86 462.88a5.66 5.66 0 1 0-11.31-.1 5.66 5.66 0 0 0 11.3.1ZM111.23 443.49a5.61 5.61 0 1 0 0-11.22 5.61 5.61 0 0 0 0 11.22ZM93.98 404.6a5.61 5.61 0 1 0 0 11.22 5.61 5.61 0 0 0 0-11.22ZM80.67 374.88a5.55 5.55 0 1 0 5.56 5.24 5.24 5.24 0 0 0-5.56-5.24ZM71.7 354.6a5.56 5.56 0 1 0 0-11.12 5.56 5.56 0 0 0 0 11.11ZM72.7 316.75a5.56 5.56 0 1 0-11.1 0 5.56 5.56 0 0 0 11.1 0ZM67.15 289.65a5.56 5.56 0 1 0-.43-11.12 5.56 5.56 0 0 0 .43 11.12ZM71.7 257.36a5.56 5.56 0 1 0 0-11.1 5.56 5.56 0 0 0 0 11.1ZM80.67 226.02a5.56 5.56 0 1 0 .1-11.12 5.56 5.56 0 0 0-.1 11.12ZM88.43 190.64a5.56 5.56 0 1 0 11.11 0 5.56 5.56 0 0 0-11.11 0ZM111.23 168.52a5.54 5.54 0 0 0 4-9.47 5.56 5.56 0 1 0-4 9.47ZM132.25 143.52a5.55 5.55 0 1 0-5.56-5.5 5.25 5.25 0 0 0 5.56 5.5ZM156.46 121.71a5.56 5.56 0 1 0 0-11.11 5.56 5.56 0 0 0 0 11.11ZM183.51 103.31a5.56 5.56 0 1 0 0-11.1 5.56 5.56 0 0 0 0 11.1ZM212.81 89.16a5.56 5.56 0 1 0 .63-11.1 5.56 5.56 0 0 0-.63 11.1ZM243.84 79.1a5.56 5.56 0 1 0 .1-11.12 5.56 5.56 0 0 0-.1 11.12ZM275.97 73.44a5.56 5.56 0 1 0 0-11.12 5.56 5.56 0 0 0 0 11.12ZM308.57 72.28a5.56 5.56 0 1 0 .63-11.1 5.56 5.56 0 0 0-.63 11.1ZM341.02 75.7a5.55 5.55 0 1 0 .63-11.1 5.55 5.55 0 0 0-.63 11.1ZM372.68 83.6a5.56 5.56 0 1 0 0-11.1 5.56 5.56 0 0 0 0 11.1ZM402.92 95.87a5.6 5.6 0 1 0 0-11.22 5.6 5.6 0 0 0 0 11.22ZM431.17 112.17a5.6 5.6 0 1 0 0-11.21 5.6 5.6 0 0 0 0 11.21ZM456.9 132.3a5.66 5.66 0 1 0 .11-11.32 5.66 5.66 0 0 0-.1 11.32ZM473.94 150.12a5.61 5.61 0 1 0 11.23 0 5.61 5.61 0 0 0-11.23 0ZM498.74 181.94a5.67 5.67 0 1 0 .07-11.34 5.67 5.67 0 0 0-.07 11.34ZM508.43 205.31a5.6 5.6 0 1 0 11.22 0 5.6 5.6 0 0 0-11.22 0ZM530.92 235.98a5.71 5.71 0 1 0-11.42 0 5.71 5.71 0 0 0 11.42 0ZM526.3 267.9a5.7 5.7 0 1 0 11.36-1.09 5.7 5.7 0 0 0-11.36 1.09ZM560.27 296.41a4.03 4.03 0 1 0 0 8.07 4.03 4.03 0 0 0 0-8.07ZM558.17 328.96a4.03 4.03 0 1 0 0 8.07 4.03 4.03 0 0 0 0-8.07ZM552.1 369.11a4.09 4.09 0 1 0 0-8.17 4.09 4.09 0 0 0 0 8.17ZM541.98 391.96a4.14 4.14 0 1 0 0 8.29 4.14 4.14 0 0 0 0-8.29ZM528.09 429.7a4.09 4.09 0 1 0 0-8.17 4.09 4.09 0 0 0 0 8.17ZM510.63 449.25a4.14 4.14 0 1 0 4.1 4.1 4.09 4.09 0 0 0-4.1-4.1ZM489.82 474.2a4.1 4.1 0 1 0 0 8.19 4.1 4.1 0 0 0 0-8.19ZM466.03 496.43a4.08 4.08 0 1 0 .1 8.17 4.08 4.08 0 0 0-.1-8.17ZM439.66 523.9a4.09 4.09 0 1 0 0-8.18 4.09 4.09 0 0 0 0 8.17ZM411.04 531.39a4.14 4.14 0 0 0-2.89 7.03 4.07 4.07 0 0 0 2.9 1.2 4.14 4.14 0 0 0 4.13-4.09 4.19 4.19 0 0 0-4.14-4.14ZM380.7 543.6a4.1 4.1 0 1 0 .1 8.19 4.1 4.1 0 0 0-.1-8.19ZM349.09 551.62a4.04 4.04 0 1 0 0 8.08 4.04 4.04 0 0 0 0-8.08ZM316.75 555.71a4.04 4.04 0 1 0 0 8.08 4.04 4.04 0 0 0 0-8.08ZM284.1 555.71a4.03 4.03 0 1 0 0 8.07 4.03 4.03 0 0 0 0-8.07ZM251.75 551.62a4.03 4.03 0 1 0 0 8.07 4.03 4.03 0 0 0 0-8.07ZM220.15 543.6a4.04 4.04 0 1 0 0 8.08 4.04 4.04 0 0 0 0-8.08ZM189.8 531.5a4.04 4.04 0 1 0 0 8.08 4.04 4.04 0 0 0 0-8.09ZM161.23 515.77a4.03 4.03 0 1 0 0 8.07 4.03 4.03 0 0 0 0-8.07ZM138.8 500.62a3.98 3.98 0 1 0-7.96 0 3.98 3.98 0 0 0 7.96 0ZM115 478.3a4 4 0 1 0-7.98 0 4 4 0 0 0 7.98 0ZM90.21 449.25a3.98 3.98 0 1 0 0 7.97 3.98 3.98 0 0 0 0-7.97ZM72.76 429.6a3.98 3.98 0 1 0 0-7.97 3.98 3.98 0 0 0 0 7.97ZM58.86 400.04a3.98 3.98 0 1 0 0-7.97 3.98 3.98 0 0 0 0 7.97ZM48.75 369a3.98 3.98 0 1 0 0-7.96 3.98 3.98 0 0 0 0 7.97ZM46.55 333a3.88 3.88 0 1 0-7.76 0 3.88 3.88 0 0 0 7.76 0ZM36.75 300.45a3.88 3.88 0 1 0 7.76 0 3.88 3.88 0 0 0-7.76 0ZM42.67 271.78a3.93 3.93 0 0 0 2.74-6.68 3.88 3.88 0 1 0-5.49 5.5 3.93 3.93 0 0 0 2.75 1.18ZM48.75 239.6a3.88 3.88 0 1 0 0-7.76 3.88 3.88 0 0 0 0 7.75ZM58.86 208.67a3.88 3.88 0 1 0 0-7.76 3.88 3.88 0 0 0 0 7.76ZM68.88 175.28a3.88 3.88 0 1 0 7.76 0 3.88 3.88 0 0 0-7.76 0ZM90.2 151.59a3.88 3.88 0 1 0 0-7.76 3.88 3.88 0 0 0 0 7.76ZM111.02 126.48a3.93 3.93 0 0 0 2.74-6.67 3.89 3.89 0 1 0-5.49 5.5 3.93 3.93 0 0 0 2.75 1.17ZM134.76 104.15a3.93 3.93 0 0 0 2.75-6.67 3.88 3.88 0 1 0-5.5 5.5 3.93 3.93 0 0 0 2.75 1.17ZM161.23 84.97a3.93 3.93 0 0 0 2.75-6.68 3.89 3.89 0 0 0-5.5 0 3.93 3.93 0 0 0-1.18 2.75 3.98 3.98 0 0 0 3.93 3.93ZM189.8 69.24a3.87 3.87 0 1 0 0-7.74 3.87 3.87 0 0 0 0 7.74ZM220.15 57.24a3.93 3.93 0 0 0 2.74-6.67 3.88 3.88 0 0 0-6.62 2.74 3.93 3.93 0 0 0 3.88 3.93ZM251.75 49.12a3.88 3.88 0 1 0 0-7.76 3.88 3.88 0 0 0 0 7.76ZM284.1 45.03a3.93 3.93 0 0 0 3.92-3.88 3.98 3.98 0 0 0-3.93-3.93 3.93 3.93 0 0 0-2.74 6.67 3.88 3.88 0 0 0 2.74 1.14ZM316.75 45.08a3.99 3.99 0 1 0 0-7.97 3.99 3.99 0 0 0 0 7.97ZM349.09 49.17a3.98 3.98 0 1 0 .1-7.96 3.98 3.98 0 0 0-.1 7.96ZM380.7 57.3a3.98 3.98 0 1 0 0-7.98 3.98 3.98 0 0 0 0 7.97ZM411.04 69.3a3.98 3.98 0 1 0-3.93-3.94 3.93 3.93 0 0 0 3.93 3.94ZM439.66 85.02a3.98 3.98 0 1 0 0-7.96 3.98 3.98 0 0 0 0 7.96ZM466.03 104.2a3.98 3.98 0 1 0 .1-7.96 3.98 3.98 0 0 0-.1 7.97ZM489.82 126.59a4.04 4.04 0 1 0 0-8.09 4.04 4.04 0 0 0 0 8.09ZM510.63 151.75a4.03 4.03 0 1 0 0-8.07 4.03 4.03 0 0 0 0 8.06ZM527.88 179.32a4.03 4.03 0 1 0 0-8.07 4.03 4.03 0 0 0 0 8.07ZM541.98 208.83a4.04 4.04 0 1 0 0-8.08 4.04 4.04 0 0 0 0 8.08ZM552.1 239.86a4.04 4.04 0 1 0-.01-8.09 4.04 4.04 0 0 0 0 8.09ZM554.09 267.85a4.05 4.05 0 0 0 5.66 4.14 4.03 4.03 0 0 0 2.36-4.14 4.03 4.03 0 1 0-8.02 0ZM586.22 297.98a2.47 2.47 0 1 0 .72 4.89 2.47 2.47 0 0 0-.72-4.89ZM584.38 330.53a2.46 2.46 0 1 0 0 4.92 2.46 2.46 0 0 0 0-4.92ZM578.83 362.72a2.47 2.47 0 1 0-.1 4.93 2.47 2.47 0 0 0 .1-4.93ZM569.8 394a2.46 2.46 0 1 0 0 4.93 2.46 2.46 0 0 0 0-4.92ZM556.92 424.1a2.46 2.46 0 1 0 0 4.92 2.46 2.46 0 0 0 0-4.92ZM540.88 452.5a2.46 2.46 0 1 0-.1 4.92 2.46 2.46 0 0 0 .1-4.92ZM521.7 478.92a2.41 2.41 0 0 0-1.75 4.15 2.46 2.46 0 0 0 2.68.54 2.42 2.42 0 0 0 1.47-2.28 2.35 2.35 0 0 0-2.4-2.4ZM499.63 502.93a2.46 2.46 0 1 0 0 4.93 2.46 2.46 0 0 0 0-4.93ZM474.94 524.31a2.46 2.46 0 1 0 .72 4.88 2.46 2.46 0 0 0-.72-4.88ZM448 542.71a2.46 2.46 0 1 0 0 4.92 2.46 2.46 0 0 0 0-4.92ZM419.17 557.96a2.49 2.49 0 0 0-2.6 1.42 2.46 2.46 0 1 0 2.6-1.42ZM388.77 569.81a2.47 2.47 0 0 0-1.8 4.2 2.47 2.47 0 1 0 1.8-4.2ZM357.16 578.1a2.46 2.46 0 1 0 0 4.92 2.46 2.46 0 0 0 0-4.93ZM324.87 582.76a2.36 2.36 0 0 0-2.4 2.4 2.41 2.41 0 0 0 4.15 1.75 2.46 2.46 0 0 0 .53-2.68 2.42 2.42 0 0 0-2.28-1.47ZM292.27 583.65a2.46 2.46 0 1 0 0 4.93 2.46 2.46 0 0 0 0-4.93ZM259.77 580.87a2.46 2.46 0 1 0-.1 4.92 2.46 2.46 0 0 0 .1-4.92ZM227.75 574.48a2.36 2.36 0 1 0 .1 4.71 2.36 2.36 0 0 0-.1-4.72ZM196.72 564.57a2.41 2.41 0 0 0-2.18 3.31 2.35 2.35 0 0 0 2.18 1.46 2.42 2.42 0 0 0 2.4-2.36 2.46 2.46 0 0 0-2.4-2.41ZM167.05 555.55a2.36 2.36 0 1 0 0-4.71 2.36 2.36 0 0 0 0 4.71ZM139.11 538.73a2.36 2.36 0 1 0 0-4.72 2.36 2.36 0 0 0 0 4.72ZM113.27 518.76a2.36 2.36 0 1 0 0-4.72 2.36 2.36 0 0 0 0 4.72ZM92.25 493.7a2.41 2.41 0 1 0-4.77-.7 2.41 2.41 0 0 0 4.77.7ZM69.2 470.8a2.36 2.36 0 1 0 0-4.72 2.36 2.36 0 0 0 0 4.72ZM51.58 438.77a2.31 2.31 0 1 0 0 4.62 2.31 2.31 0 0 0 0-4.62ZM37.17 409.37a2.3 2.3 0 1 0 0 4.6 2.3 2.3 0 0 0 0-4.6ZM26.21 378.65a2.31 2.31 0 1 0 0 4.62 2.31 2.31 0 0 0 0-4.62ZM18.82 346.83a2.3 2.3 0 1 0 0 4.61 2.3 2.3 0 0 0 0-4.6ZM17.4 316.75a2.3 2.3 0 1 0-4.6 0 2.3 2.3 0 0 0 4.6 0ZM15.1 286.4a2.3 2.3 0 1 0 0-4.6 2.3 2.3 0 0 0 0 4.6ZM18.82 249.4a2.3 2.3 0 1 0 0 4.61 2.3 2.3 0 0 0 0-4.61ZM26.21 222.14a2.26 2.26 0 0 0 2.6-2.23 2.25 2.25 0 0 0-2.6-2.23 2.25 2.25 0 1 0 0 4.46ZM37.17 191.42a2.25 2.25 0 0 0 .96-4.4 2.25 2.25 0 0 0-2.33 3.64c.35.41.83.68 1.37.76ZM51.58 162.12a2.25 2.25 0 1 0-2.25-2.25 2.2 2.2 0 0 0 2.25 2.25ZM69.2 134.76a2.25 2.25 0 1 0-2.21-2.2 2.2 2.2 0 0 0 2.2 2.2ZM89.9 109.4a2.26 2.26 0 1 0-.7-4.47 2.26 2.26 0 0 0 .7 4.46ZM113.27 86.65a2.26 2.26 0 1 0 0-4.46 2.25 2.25 0 1 0 0 4.46ZM139.11 66.62a2.25 2.25 0 1 0 0-4.45 2.25 2.25 0 1 0 0 4.45ZM167.05 49.9a2.26 2.26 0 1 0 0-4.45 2.26 2.26 0 1 0 0 4.45ZM196.72 36.33a2.25 2.25 0 1 0-2.2-2.2 2.2 2.2 0 0 0 2.2 2.2ZM227.75 26.26a2.25 2.25 0 1 0 0-4.5 2.25 2.25 0 0 0 0 4.5ZM259.77 19.87a2.3 2.3 0 1 0 0-4.61 2.25 2.25 0 0 0-2.3 2.3 2.3 2.3 0 0 0 2.3 2.3ZM292.27 17.04a2.3 2.3 0 1 0 0-4.62 2.3 2.3 0 0 0 0 4.62ZM324.87 17.98a2.3 2.3 0 1 0 0-4.61 2.3 2.3 0 0 0 0 4.61ZM357.16 22.65a2.3 2.3 0 0 0 2.3-2.3 2.26 2.26 0 0 0-2.3-2.32 2.3 2.3 0 1 0 0 4.62ZM388.77 30.93a2.3 2.3 0 1 0 0-4.62 2.3 2.3 0 0 0 0 4.62ZM419.17 42.77a2.3 2.3 0 1 0 0-4.6 2.3 2.3 0 0 0 0 4.6ZM448 57.97a2.25 2.25 0 0 0 2.3-2.3 2.3 2.3 0 1 0-2.3 2.3ZM474.94 76.48a2.4 2.4 0 0 0 2.41-2.36 2.47 2.47 0 0 0-2.41-2.26 2.41 2.41 0 0 0-2.36 2.42 2.36 2.36 0 0 0 2.36 2.2ZM499.63 98.07a2.41 2.41 0 0 0 2.35-2.4 2.36 2.36 0 0 0-2.36-2.37 2.41 2.41 0 0 0-2.4 2.36 2.47 2.47 0 0 0 2.4 2.41ZM521.7 121.87a2.36 2.36 0 1 0 0-4.72 2.36 2.36 0 0 0 0 4.72ZM540.88 148.29a2.35 2.35 0 0 0 2.36-2.36 2.42 2.42 0 0 0-2.36-2.41 2.46 2.46 0 0 0-2.41 2.4 2.41 2.41 0 0 0 2.4 2.37ZM556.91 176.7a2.36 2.36 0 1 0 0-4.73 2.36 2.36 0 0 0 0 4.72ZM569.6 206.73a2.36 2.36 0 1 0 0-4.72 2.36 2.36 0 0 0 0 4.72ZM578.83 238.07a2.36 2.36 0 1 0 0-4.71 2.36 2.36 0 0 0 0 4.71ZM584.38 270.3a2.46 2.46 0 1 0 0-4.91 2.46 2.46 0 0 0 0 4.92ZM596.96 396a.73.73 0 0 0-.94.84.79.79 0 0 0 .78.79.78.78 0 0 0 .73-.49c.04-.1.06-.2.06-.3a.79.79 0 0 0-.63-.84ZM585.27 428.03a.79.79 0 1 0 0-1.58.79.79 0 0 0 0 1.58ZM570.44 455.54a.79.79 0 1 0 0 1.58.79.79 0 0 0 0-1.58ZM552.67 482.9a.79.79 0 1 0 0 1.58.79.79 0 0 0 0-1.58ZM532.12 508.27a.79.79 0 0 0-.15 1.56.79.79 0 1 0 .15-1.56ZM509.06 531.34a.78.78 0 0 0-.79.78.79.79 0 1 0 .79-.78ZM483.7 551.88a.78.78 0 0 0-.78.94.78.78 0 0 0 1.07.58.8.8 0 0 0 .49-.73.79.79 0 0 0-.79-.79ZM456.33 571.23a.79.79 0 1 0 0-1.58.79.79 0 0 0 0 1.58ZM427.24 584.49a.78.78 0 0 0-.79.78.79.79 0 1 0 .79-.78ZM396.84 596.02a.73.73 0 0 0-.57.21.73.73 0 0 0-.21.57.8.8 0 0 0 .78.79.8.8 0 0 0 .79-.79.79.79 0 0 0-.79-.78ZM204.1 596.02a.8.8 0 0 0-.77.47.8.8 0 0 0-.06.31.84.84 0 0 0 .84.79.78.78 0 0 0 .72-.49.79.79 0 0 0-.73-1.09ZM173.6 584.49a.79.79 0 1 0 .79.78.73.73 0 0 0-.48-.74.73.73 0 0 0-.3-.04ZM144.57 571.23a.79.79 0 1 0 0-1.58.79.79 0 0 0 0 1.58ZM117.15 551.94a.74.74 0 0 0-.73.73.74.74 0 1 0 .73-.73ZM91.78 531.39a.73.73 0 0 0-.68.73.68.68 0 0 0 .68.74.73.73 0 0 0 .52-1.26.73.73 0 0 0-.52-.21ZM68.72 508.33a.73.73 0 0 0-.74.73.79.79 0 0 0 .74.73.73.73 0 1 0 0-1.46ZM48.17 484.43a.73.73 0 1 0 0-1.47.73.73 0 0 0 0 1.47ZM30.4 455.6a.68.68 0 0 0-.68.73.74.74 0 0 0 .68.73.73.73 0 1 0 0-1.46ZM15.62 426.5a.73.73 0 1 0 0 1.47.73.73 0 0 0 0-1.46ZM3.88 397.42a.63.63 0 1 0 0-1.26.63.63 0 0 0 0 1.26ZM3.88 204.74a.63.63 0 1 0 0-1.26.63.63 0 0 0 0 1.26ZM15.62 174.28a.68.68 0 0 0 .63-.68.63.63 0 0 0-.63-.63.64.64 0 0 0-.48.17.63.63 0 0 0-.2.46.68.68 0 0 0 .68.68ZM30.4 145.25a.68.68 0 0 0 .69-.63.68.68 0 0 0-.69-.68.61.61 0 0 0-.46.2.63.63 0 0 0-.16.48.63.63 0 0 0 .62.63ZM48.17 117.83a.68.68 0 0 0 .68-.68.68.68 0 0 0-.68-.63.69.69 0 0 0-.63.63.68.68 0 0 0 .63.68ZM68.72 92.46a.68.68 0 0 0 .68-.68.68.68 0 0 0-.92-.58.63.63 0 0 0-.39.58.63.63 0 0 0 .63.68ZM91.78 69.4a.68.68 0 0 0 .63-.93.63.63 0 0 0-.63-.38.63.63 0 0 0-.63.63.68.68 0 0 0 .63.68ZM117.15 48.8a.63.63 0 1 0 0-1.26.63.63 0 0 0 0 1.26ZM144.56 31.09a.68.68 0 0 0 .69-.69.63.63 0 0 0-.69-.47.63.63 0 0 0-.68.63.68.68 0 0 0 .69.53ZM173.6 16.25a.68.68 0 0 0 .68-.63.68.68 0 0 0-.93-.63.63.63 0 0 0-.38.63.63.63 0 0 0 .63.63ZM204.1 4.56a.68.68 0 0 0 .64-.83.68.68 0 0 0-.63-.69.68.68 0 0 0-.68.69.67.67 0 0 0 .13.58.68.68 0 0 0 .55.25ZM396.84 4.56a.63.63 0 0 0 .6-.54c.02-.1 0-.2-.02-.3a.63.63 0 0 0-.58-.47.68.68 0 0 0-.68.68.68.68 0 0 0 .68.63ZM427.24 16.3a.68.68 0 0 0 .73-.68.74.74 0 0 0-1.25-.52.73.73 0 0 0-.16.8.69.69 0 0 0 .68.4ZM456.33 31.14a.73.73 0 0 0 .73-.74.73.73 0 0 0-.73-.47.68.68 0 0 0-.73.68.73.73 0 0 0 .73.53ZM483.7 48.9a.73.73 0 1 0 0-1.46.73.73 0 0 0 0 1.47ZM509.06 69.45a.73.73 0 0 0 .73-.73.78.78 0 0 0-.73-.73.73.73 0 0 0-.52 1.25c.14.14.33.21.52.21ZM532.12 92.52a.73.73 0 0 0 .74-.74.68.68 0 0 0-.46-.64.68.68 0 0 0-.28-.04.73.73 0 0 0-.73.68.73.73 0 0 0 .73.74ZM552.67 117.89a.73.73 0 0 0 .73-.74.73.73 0 1 0-.73.73ZM570.44 145.25a.79.79 0 1 0 0-1.58.79.79 0 0 0 0 1.58ZM585.53 174.39a.79.79 0 1 0-.78-.79.73.73 0 0 0 .47.75c.1.03.2.05.31.04ZM596.96 204.9a.79.79 0 1 0 0-1.58.79.79 0 0 0 0 1.58Z"/></svg>
