<svg xmlns="http://www.w3.org/2000/svg" width="600" height="600" fill="none" viewBox="0 0 600 600"><g clip-path="url(#a)"><path fill="#fff" fill-rule="evenodd" d="M600 0H0v600h600V0Zm-23.16 286.76c2.12 17.46.54 35.17-4.65 51.97-14.93 48.98-56.77 73.17-106.4 74.68-10.67.33-21.38.02-32.07-.29-18.42-.53-36.75-1.06-54.58 1.73-23 3.6-44.83 11.86-66.47 20.05-4.86 1.84-9.72 3.67-14.57 5.45-51.25 19.33-102.93 30.95-156.47 13.7C94.55 438.78 52.97 397.67 41.3 355c-11.67-42.66-2.18-92.1 28.9-124.56 12.8-12.98 28.05-20.1 43.54-27.33 7.89-3.69 15.84-7.4 23.55-11.93 20.17-12.2 33.44-31.4 46.66-50.53 7.2-10.41 14.38-20.8 22.64-30.03a110.08 110.08 0 0 1 32.27-24.64 13.22 13.22 0 0 1 4.95-3.58c108.67-42.22 228.05 25.1 293.55 111.99 19.2 25.22 33.54 54.5 38.66 85.2a10.84 10.84 0 0 1 .82 7.16Z" clip-rule="evenodd"/></g><defs><clipPath id="a"><path fill="#fff" d="M0 0h600v600H0z"/></clipPath></defs></svg>
