<svg xmlns="http://www.w3.org/2000/svg" width="600" height="600" fill="none"><path fill="#fff" d="M563.84 336.19c0 35.64-21.4 35.64-21.4 71.35 0 2.24.05 4.37.24 6.36a266.42 266.42 0 0 0 25.22-113.48v-.19c-5.3-8.86-10.61-17.79-10.61-35.52 0-9.92 1.68-17.1 4.06-23.03-1.38-6.24-3-12.36-4.81-18.42-6.18 11.37-14.1 19.85-14.1 41.58 0 35.7 21.4 35.7 21.4 71.35Z"/><path fill="#fff" d="M509.91 264.84c0 35.7 21.41 35.7 21.41 71.35 0 35.64-21.41 35.64-21.41 71.35 0 21.03 7.43 29.65 13.55 40.57 2.68-4.12 5.3-8.3 7.74-12.55-3.56-6.92-6.43-15.16-6.43-28.21 0-35.64 21.4-35.64 21.4-71.29 0-35.64-21.4-35.7-21.4-71.35 0-35.64 20.85-35.76 21.35-70.1a267.32 267.32 0 0 0-34.9-58.74c4.62 22.66 20.1 27.28 20.1 57.62 0 35.7-21.41 35.7-21.41 71.35Z"/><path fill="#fff" d="M498.8 193.49c0 35.7-21.41 35.7-21.41 71.35 0 35.64 21.4 35.7 21.4 71.35 0 35.64-21.4 35.64-21.4 71.35 0 35.7 21.4 35.64 21.4 71.35v1a251.6 251.6 0 0 0 13.37-15.99c-4.87-21.72-19.85-26.65-19.85-56.55 0-35.64 21.4-35.64 21.4-71.29 0-35.64-21.4-35.7-21.4-71.35 0-35.64 21.4-35.7 21.4-71.35 0-35.64-21.4-35.64-21.4-71.34 0-2.69.18-5.19.37-7.5-4-4.11-8.05-8.17-12.36-12.04a62.69 62.69 0 0 0-2.87 19.66c-.06 35.7 21.35 35.7 21.35 71.35Z"/><path fill="#fff" d="M466.28 193.49c0 35.7-21.41 35.7-21.41 71.35 0 35.64 21.4 35.7 21.4 71.35 0 35.64-21.4 35.64-21.4 71.35 0 35.7 21.4 35.64 21.4 71.35 0 21.9-8.1 30.4-14.35 41.94a260.93 260.93 0 0 0 25.47-19.9c2.18-5.75 3.74-12.68 3.74-22.23 0-35.64-21.4-35.64-21.4-71.35 0-35.7 21.4-35.64 21.4-71.29 0-35.64-21.4-35.7-21.4-71.35 0-35.64 21.4-35.7 21.4-71.35 0-35.64-21.4-35.64-21.4-71.34 0-14.42 3.49-22.98 7.67-30.47-3.3-2.68-6.74-5.24-10.18-7.8-5.86 9.93-12.36 18.79-12.36 38.39 0 35.7 21.42 35.7 21.42 71.35Z"/><path fill="#fff" d="M433.75 193.49c0 35.7-21.4 35.7-21.4 71.35 0 35.64 21.4 35.7 21.4 71.35 0 35.64-21.4 35.64-21.4 71.35 0 35.7 21.4 35.64 21.4 71.35 0 33.14-18.47 35.51-21.03 64.3a290.5 290.5 0 0 0 16.1-8.06c4.87-21.66 19.79-26.6 19.79-56.43 0-35.64-21.41-35.64-21.41-71.35 0-35.7 21.4-35.64 21.4-71.29 0-35.64-21.4-35.7-21.4-71.35 0-35.64 21.4-35.7 21.4-71.35 0-35.64-21.4-35.64-21.4-71.34 0-25.1 10.61-32.53 16.85-47.13-4-2.56-8.05-5.06-12.23-7.37-5.3 20.23-19.48 25.6-19.48 54.62 0 35.7 21.41 35.7 21.41 71.35Z"/><path fill="#fff" d="M401.23 193.49c0 35.7-21.35 35.7-21.35 71.35 0 35.64 21.35 35.7 21.35 71.35s-21.35 35.64-21.35 71.35 21.35 35.64 21.35 71.34c0 35.71-21.35 35.65-21.35 71.3 0 1.99.06 3.86.19 5.67a239.7 239.7 0 0 0 14.67-5.12v-.68c0-35.65 21.35-35.65 21.35-71.35s-21.35-35.64-21.35-71.35 21.35-35.64 21.35-71.29c0-35.64-21.35-35.7-21.35-71.35s21.35-35.7 21.35-71.35c0-35.64-21.35-35.64-21.35-71.34 0-32.59 17.85-35.46 20.91-62.99a247.73 247.73 0 0 0-14.48-6.37c-.75 33.77-21.29 34.52-21.29 69.48s21.35 35.7 21.35 71.35Z"/><path fill="#fff" d="M347.36 122.14c0 35.7 21.41 35.7 21.41 71.35 0 35.64-21.4 35.7-21.4 71.35 0 35.64 21.4 35.7 21.4 71.35 0 35.64-21.4 35.64-21.4 71.35 0 35.7 21.4 35.64 21.4 71.35s-21.4 35.64-21.4 71.28a69.84 69.84 0 0 0 1.18 13.36 345.2 345.2 0 0 0 14.42-3.06 74.35 74.35 0 0 1-.75-10.42c0-35.65 21.4-35.65 21.4-71.35 0-35.7-21.4-35.64-21.4-71.35 0-35.7 21.4-35.64 21.4-71.29 0-35.64-21.4-35.7-21.4-71.35 0-35.64 21.4-35.7 21.4-71.35 0-35.64-21.4-35.64-21.4-71.34s21.4-35.65 21.4-71.35c0-1.56-.12-3.06-.18-4.5a308.74 308.74 0 0 0-15.3-4.55 69.29 69.29 0 0 1 .63 9.23c0 35.65-21.4 35.65-21.4 71.29Z"/><path fill="#fff" d="M314.84 122.14c0 35.7 21.4 35.7 21.4 71.35 0 35.64-21.4 35.7-21.4 71.35 0 35.64 21.4 35.7 21.4 71.35s-21.4 35.64-21.4 71.35 21.4 35.64 21.4 71.34c0 35.71-21.4 35.65-21.4 71.3a66.23 66.23 0 0 0 2.06 17.16c4.9-.3 9.78-.73 14.6-1.31a64.38 64.38 0 0 1-1.8-15.98c0-35.65 21.4-35.65 21.4-71.35s-21.4-35.64-21.4-71.35 21.4-35.64 21.4-71.29c0-35.64-21.4-35.7-21.4-71.35s21.4-35.7 21.4-71.35c0-35.64-21.4-35.64-21.4-71.34 0-35.71 21.4-35.65 21.4-71.35a66.95 66.95 0 0 0-1.18-13.05 317.06 317.06 0 0 0-15.42-2.43 66.21 66.21 0 0 1 1.75 15.66c0 35.65-21.41 35.65-21.41 71.29Z"/><path fill="#fff" d="M297.17 550.05c0-35.65 21.41-35.65 21.41-71.35s-21.4-35.64-21.4-71.35 21.4-35.64 21.4-71.29c0-35.64-21.4-35.7-21.4-71.35s21.4-35.7 21.4-71.35c0-35.64-21.4-35.64-21.4-71.34 0-35.71 21.4-35.65 21.4-71.35a63.74 63.74 0 0 0-2.12-17.17c-5-.31-9.99-.5-15.04-.5a64.62 64.62 0 0 1 2.3 17.85c0 35.65-21.4 35.65-21.4 71.29 0 35.64 21.4 35.7 21.4 71.35 0 35.64-21.4 35.7-21.4 71.35 0 35.64 21.4 35.7 21.4 71.35s-21.4 35.64-21.4 71.35 21.4 35.64 21.4 71.34c0 35.71-21.4 35.65-21.4 71.3a63.88 63.88 0 0 0 2.12 17.22c5 .25 9.99.44 15.04.5a64.92 64.92 0 0 1-2.3-17.85Z"/><path fill="#fff" d="M286.06 478.7c0-35.65-21.4-35.65-21.4-71.35s21.4-35.64 21.4-71.29c0-35.64-21.4-35.7-21.4-71.35 0-35.64 21.4-35.7 21.4-71.35s-21.4-35.64-21.4-71.34 21.4-35.65 21.4-71.35a65.98 65.98 0 0 0-2.06-17.1c-4.93.24-9.8.68-14.6 1.24a65.36 65.36 0 0 1 1.8 16.04c0 35.65-21.4 35.65-21.4 71.29 0 35.64 21.4 35.7 21.4 71.35s-21.4 35.7-21.4 71.35 21.4 35.7 21.4 71.35c0 35.64-21.4 35.64-21.4 71.35 0 35.7 21.4 35.64 21.4 71.35 0 35.7-21.4 35.64-21.4 71.28a72.3 72.3 0 0 0 1.18 13.11c5.12.94 10.24 1.75 15.42 2.37a65.22 65.22 0 0 1-1.75-15.6c0-35.65 21.41-35.65 21.41-71.35Z"/><path fill="#fff" d="M253.54 478.7c0-35.65-21.41-35.65-21.41-71.35s21.4-35.64 21.4-71.29c0-35.64-21.4-35.7-21.4-71.35s21.4-35.7 21.4-71.35c0-35.64-21.4-35.64-21.4-71.34 0-35.71 21.4-35.65 21.4-71.35a69.2 69.2 0 0 0-1.18-13.3c-4.87.87-9.67 1.87-14.42 3.06.53 3.45.78 6.93.75 10.42 0 35.65-21.4 35.65-21.4 71.29 0 35.64 21.4 35.7 21.4 71.35 0 35.64-21.4 35.7-21.4 71.35 0 35.64 21.4 35.7 21.4 71.35s-21.4 35.64-21.4 71.35 21.4 35.64 21.4 71.34c0 35.71-21.4 35.65-21.4 71.3 0 1.62.12 3.05.18 4.55a252.46 252.46 0 0 0 15.3 4.5 68.51 68.51 0 0 1-.63-9.18c0-35.65 21.4-35.65 21.4-71.35Z"/><path fill="#fff" d="M199.67 407.35c0-35.64 21.41-35.64 21.41-71.29 0-35.64-21.41-35.7-21.41-71.35 0-35.64 21.41-35.7 21.41-71.35 0-35.64-21.41-35.64-21.41-71.35s21.41-35.64 21.41-71.34c0-2-.13-3.81-.25-5.62a290.3 290.3 0 0 0-14.67 5.05v.75c0 35.65-21.35 35.65-21.35 71.29s21.35 35.7 21.35 71.35c0 35.64-21.35 35.7-21.35 71.35 0 35.64 21.35 35.7 21.35 71.35 0 35.64-21.35 35.64-21.35 71.35 0 35.7 21.35 35.64 21.35 71.35 0 32.58-17.85 35.45-20.91 62.98a298.37 298.37 0 0 0 14.48 6.37c.75-33.77 21.35-34.52 21.35-69.54s-21.41-35.65-21.41-71.35Z"/><path fill="#fff" d="M167.15 407.35c0-35.65 21.4-35.64 21.4-71.29 0-35.64-21.4-35.7-21.4-71.35s21.4-35.7 21.4-71.35c0-35.64-21.4-35.64-21.4-71.34 0-33.15 18.47-35.52 21.03-64.36a323.79 323.79 0 0 0-16.1 8.11c-4.87 21.6-19.8 26.6-19.8 56.37 0 35.7 21.42 35.7 21.42 71.35 0 35.64-21.41 35.7-21.41 71.35 0 35.64 21.41 35.7 21.41 71.35s-21.41 35.64-21.41 71.35 21.41 35.64 21.41 71.34c0 25.04-10.61 32.53-16.85 47.13 4 2.56 8.05 5.06 12.23 7.37 5.3-20.23 19.48-25.66 19.48-54.68 0-35.65-21.41-35.65-21.41-71.35Z"/><path fill="#fff" d="M134.62 407.35c0-35.64 21.41-35.64 21.41-71.29 0-35.64-21.4-35.7-21.4-71.35 0-35.64 21.4-35.7 21.4-71.35s-21.4-35.64-21.4-71.34c0-21.98 8.1-30.4 14.35-41.95a270.34 270.34 0 0 0-25.47 19.85c-2.18 5.8-3.74 12.73-3.74 22.22 0 35.7 21.4 35.7 21.4 71.35 0 35.64-21.4 35.7-21.4 71.35s21.4 35.7 21.4 71.35c0 35.64-21.4 35.64-21.4 71.35 0 35.7 21.4 35.64 21.4 71.35 0 14.41-3.49 22.97-7.67 30.46 3.3 2.62 6.74 5.24 10.24 7.74 5.8-9.93 12.3-18.73 12.3-38.4 0-35.64-21.42-35.64-21.42-71.34Z"/><path fill="#fff" d="M102.1 407.35c0-35.64 21.41-35.64 21.41-71.29 0-35.64-21.4-35.7-21.4-71.35 0-35.64 21.4-35.7 21.4-71.35s-21.4-35.64-21.4-71.34v-1.07A271.4 271.4 0 0 0 88.73 137c4.87 21.72 19.86 26.65 19.86 56.49 0 35.7-21.42 35.7-21.42 71.35s21.41 35.7 21.41 71.35c0 35.64-21.4 35.64-21.4 71.35 0 35.7 21.4 35.64 21.4 71.35 0 2.68-.18 5.11-.37 7.49 4 4.12 8.05 8.17 12.36 12.04 1.75-5.3 2.87-11.54 2.87-19.72.06-35.65-21.35-35.65-21.35-71.35Z"/><path fill="#fff" d="M90.99 336.06c0-35.7-21.41-35.7-21.41-71.35 0-35.64 21.41-35.7 21.41-71.35 0-21.03-7.43-29.7-13.54-40.57-2.69 4.12-5.31 8.24-7.75 12.48 3.56 7 6.43 15.24 6.43 28.22 0 35.7-21.4 35.7-21.4 71.35s21.4 35.7 21.4 71.35c0 35.64-20.85 35.7-21.35 70.1a266.92 266.92 0 0 0 34.9 58.68c-4.62-22.66-20.1-27.22-20.1-57.62 0-35.64 21.41-35.64 21.41-71.29Z"/><path fill="#fff" d="M37.12 264.71c0-35.7 21.35-35.7 21.35-71.35 0-2.24-.06-4.37-.25-6.36A266.17 266.17 0 0 0 33 300.42v.19c5.3 8.92 10.61 17.85 10.61 35.58 0 9.92-1.68 17.04-4.05 23.03a265.92 265.92 0 0 0 4.8 18.41c6.18-11.36 14.1-19.85 14.1-41.57 0-35.7-21.34-35.7-21.34-71.35Z"/></svg>
