<svg width="600" height="600" fill="none" xmlns="http://www.w3.org/2000/svg"><path fill-rule="evenodd" clip-rule="evenodd" d="M303.5 551C442.952 551 556 437.952 556 298.5S442.952 46 303.5 46 51 159.048 51 298.5 164.048 551 303.5 551Zm0 1C443.504 552 557 438.504 557 298.5 557 158.496 443.504 45 303.5 45 163.496 45 50 158.496 50 298.5 50 438.504 163.496 552 303.5 552Z" fill="#fff"/><path fill-rule="evenodd" clip-rule="evenodd" d="M0 133.462V82.378l46.59-46.591 25.543 25.542L0 133.462Zm0 105.573V187.95l99.376-99.376 25.543 25.542L0 239.035Zm0 105.573v-51.084L152.164 141.36l25.542 25.542L0 344.608Zm0 105.575v-51.085l204.951-204.951 25.542 25.542L0 450.183Zm0 105.572v-51.084l257.737-257.737 25.542 25.542L0 555.755ZM61.33 600H10.244l300.279-300.279 25.543 25.542L61.329 600Zm105.572 0h-51.084L363.31 352.508l25.542 25.542L166.902 600Zm105.574 0h-51.084l194.705-194.706 25.543 25.542L272.476 600Zm105.574 0h-51.084l141.919-141.919 25.542 25.542L378.05 600Zm105.573 0h-51.085l89.132-89.132 25.543 25.542-63.59 63.59Zm105.574 0h-51.085l36.346-36.345L600 589.197 589.197 600ZM10.804 0l8.542 8.542L0 27.888V0h10.804Z" fill="#fff" fill-opacity=".5"/></svg>