<svg xmlns="http://www.w3.org/2000/svg" width="600" height="600" fill="none"><path fill="#fff" d="M323.06 301.72a23.32 23.32 0 0 1-23.03 20.72h-.7a22.63 22.63 0 0 1-6.92-1.1 23.09 23.09 0 0 1-16.1-19.62h-.24V53c-4.62.4-9.23.98-13.74 1.62v244.5h.12a36.72 36.72 0 0 0 13.62 28.57 36.19 36.19 0 0 0 16.34 7.62c2.27.47 4.6.7 6.92.7h.7a34.35 34.35 0 0 0 6.92-.7 36.25 36.25 0 0 0 16.28-7.62 36.71 36.71 0 0 0 13.62-28.57h.12V54.62c-4.5-.64-9.12-1.22-13.74-1.62v248.72h-.17Z"/><path fill="#fff" d="M383.26 300.85a82.94 82.94 0 0 1-16.22 47.8 82.6 82.6 0 0 1-43.8 30.53 80.22 80.22 0 0 1-16.29 3.06c-2.3.17-4.61.29-6.92.29h-.7c-2.36 0-4.67-.12-6.92-.3a80.08 80.08 0 0 1-16.34-3.05 85.64 85.64 0 0 1-13.73-5.31 84.27 84.27 0 0 1-30.08-25.23 82.94 82.94 0 0 1-16.22-47.79h-.11V66.33a233.9 233.9 0 0 0-13.74 5.37V300h.17a96.46 96.46 0 0 0 29.9 69.14A101.72 101.72 0 0 0 246 380.16a98.06 98.06 0 0 0 16.34 8.66 91.07 91.07 0 0 0 13.73 4.5 89.3 89.3 0 0 0 16.34 2.54c2.25.17 4.56.29 6.93.29h.69c2.3 0 4.62-.12 6.92-.29a89.4 89.4 0 0 0 16.28-2.54 91.07 91.07 0 0 0 13.74-4.5 98.1 98.1 0 0 0 16.33-8.66 101.79 101.79 0 0 0 13.74-11.03 96.44 96.44 0 0 0 29.9-69.14h.17V71.7c-4.5-1.96-9.06-3.7-13.73-5.37v234.52h-.12Z"/><path fill="#fff" d="M353.19 300.85a53.45 53.45 0 0 1-29.96 46.24 53.3 53.3 0 0 1-16.28 4.9 55.7 55.7 0 0 1-6.92.46h-.7a54.4 54.4 0 0 1-6.92-.46 53.16 53.16 0 0 1-16.34-4.9 52.18 52.18 0 0 1-13.73-9.64 52.81 52.81 0 0 1-16.22-36.6H246V57.67a265.61 265.61 0 0 0-13.74 3.47v237.98h.12a67.42 67.42 0 0 0 29.96 55.7 61.54 61.54 0 0 0 13.73 6.99 66.77 66.77 0 0 0 16.34 3.86 67.66 67.66 0 0 0 6.92.4h.7c2.3 0 4.62-.17 6.92-.4a66.42 66.42 0 0 0 16.28-3.86 61.56 61.56 0 0 0 13.74-6.99 67.42 67.42 0 0 0 29.96-55.7h.11V61.14a265.61 265.61 0 0 0-13.74-3.46v243.17h-.11Z"/><path fill="#fff" d="M413.33 300.85a113.3 113.3 0 0 1-46.3 89.7 105.86 105.86 0 0 1-13.73 8.66 108.69 108.69 0 0 1-16.33 7.15 107.14 107.14 0 0 1-13.74 3.81 116.5 116.5 0 0 1-16.28 2.2c-2.3.11-4.62.23-6.92.23h-.7c-2.36 0-4.67-.12-6.92-.23a116.09 116.09 0 0 1-16.34-2.2 107.15 107.15 0 0 1-13.74-3.8A108.69 108.69 0 0 1 246 399.2a105.93 105.93 0 0 1-13.74-8.66 113.7 113.7 0 0 1-30.07-32.9 112.5 112.5 0 0 1-16.22-56.8h-.12V79.44c-4.61 2.42-9.23 4.9-13.73 7.62V298.2h.17v.98a126.47 126.47 0 0 0 13.56 57.08 126.36 126.36 0 0 0 30.08 38.62A123.41 123.41 0 0 0 232.26 407a125.43 125.43 0 0 0 30.07 13.68 119.37 119.37 0 0 0 13.74 3.35 125.08 125.08 0 0 0 16.34 1.96c2.25.17 4.56.23 6.92.23h.7c2.3 0 4.61-.06 6.92-.23 5.46-.3 10.9-.95 16.28-1.96a119.35 119.35 0 0 0 13.74-3.35 126.47 126.47 0 0 0 46.4-25.8 126.38 126.38 0 0 0 30.08-38.62A126.47 126.47 0 0 0 427 299.18v-.98h.17V87.06c-4.5-2.72-9.06-5.2-13.73-7.62v221.41h-.12Z"/><path fill="#fff" d="M503.55 300.85a203.29 203.29 0 0 1-16.22 78.04 202.89 202.89 0 0 1-30.07 49.4 213.34 213.34 0 0 1-13.74 15.13 205.38 205.38 0 0 1-16.33 14.55c-4.45 3.58-9 6.98-13.74 10.16a221.84 221.84 0 0 1-16.34 9.92 189.04 189.04 0 0 1-13.73 6.76 175.08 175.08 0 0 1-16.34 6.52 197.55 197.55 0 0 1-30.07 7.97 174.44 174.44 0 0 1-13.74 2.07c-4.67.52-10.8 1.04-16.28 1.21-2.3.06-4.61.18-6.92.18h-.7c-2.36 0-4.67-.12-6.92-.18a188.94 188.94 0 0 1-16.34-1.2c-5.36-.64-9.23-1.22-13.73-2.09-5.55-.98-10.97-2.25-16.34-3.69s-9.23-2.65-13.74-4.27a181.6 181.6 0 0 1-16.33-6.52 218.9 218.9 0 0 1-13.74-6.76c-5.6-3.06-11.02-6.4-16.33-9.92-5.31-3.53-9.3-6.58-13.74-10.16a215.99 215.99 0 0 1-16.34-14.55 213.56 213.56 0 0 1-13.73-15.12 205.2 205.2 0 0 1-30.02-49.41 202.26 202.26 0 0 1-16.22-78.04h-.11V158.86a237.93 237.93 0 0 0-13.74 22.28V298.2h.17v1.04a215.13 215.13 0 0 0 29.9 109.78 213.06 213.06 0 0 0 13.74 20.6 215.37 215.37 0 0 0 16.28 19.23 219.28 219.28 0 0 0 30.07 26.32 236.97 236.97 0 0 0 13.74 9.18 228 228 0 0 0 30.07 15.41c4.67 1.96 10.8 4.21 16.33 6.06A253.24 253.24 0 0 0 246 509.8c4.68 1.21 10.8 2.48 16.34 3.4 4.5.81 9.12 1.45 13.73 1.97 4.62.52 10.8.92 16.34 1.1 2.25.05 4.56.17 6.92.17h.7c2.3 0 4.62-.12 6.92-.18 5.49-.17 10.91-.51 16.28-1.1 5.37-.57 9.24-1.15 13.74-1.95 5.54-.93 10.97-2.08 16.33-3.4a220.65 220.65 0 0 0 30.07-10.04c5.32-2.26 9.24-4.11 13.74-6.36a195.92 195.92 0 0 0 16.34-9.06c5.3-3.3 9.3-5.95 13.74-9.18 5.65-4.1 11.08-8.49 16.33-13.1a202 202 0 0 0 13.74-13.22 214.87 214.87 0 0 0 30.07-39.83 218.88 218.88 0 0 0 16.28-34.23 215.99 215.99 0 0 0 13.56-75.55v-1.04h.18V181.14a237.87 237.87 0 0 0-13.74-22.28v142h-.06Z"/><path fill="#fff" d="M533.56 300.85a233.6 233.6 0 0 1-29.95 112.67 233.29 233.29 0 0 1-16.28 25.11c-4.33 5.83-8.95 11.37-13.74 16.74s-10.62 11.25-16.33 16.45a258.5 258.5 0 0 1-13.74 11.49 250.55 250.55 0 0 1-16.34 11.66 256.18 256.18 0 0 1-13.73 8.37 252.78 252.78 0 0 1-16.34 8.25 222.62 222.62 0 0 1-13.73 5.77 255.12 255.12 0 0 1-16.34 5.6 267.15 267.15 0 0 1-13.74 3.64 226.75 226.75 0 0 1-46.35 6c-2.3.11-4.61.17-6.92.17h-.7c-2.38 0-4.7-.06-6.92-.17-5.54-.12-10.97-.4-16.34-.98s-9.23-1.04-13.73-1.8a243.13 243.13 0 0 1-30.07-6.87 226.87 226.87 0 0 1-16.34-5.59c-5.37-2.08-9.24-3.7-13.74-5.77a271.01 271.01 0 0 1-16.34-8.25 205.03 205.03 0 0 1-13.73-8.37 227.22 227.22 0 0 1-16.34-11.66c-5.3-4.16-9.29-7.5-13.74-11.49a230.28 230.28 0 0 1-16.27-16.45 211.86 211.86 0 0 1-13.74-16.74 225.54 225.54 0 0 1-16.33-25.1 228.69 228.69 0 0 1-13.74-28.93 232.1 232.1 0 0 1-16.22-83.75h-.12V218.2a247.5 247.5 0 0 0 0 161.96v-.4a240.37 240.37 0 0 0 16.34 37.17v.29A230.82 230.82 0 0 0 95.7 439.5v-.3a230.74 230.74 0 0 0 16.33 21.08v.28a237.75 237.75 0 0 0 13.74 14.78v-.29c5.2 5.14 10.62 10.1 16.27 14.78v.23c4.45 3.7 9.07 7.16 13.74 10.5v-.23a257.51 257.51 0 0 0 16.34 10.8v.17c4.5 2.71 9.12 5.2 13.73 7.62v-.17c5.37 2.77 10.8 5.42 16.34 7.79v.12c4.5 1.96 9.12 3.75 13.74 5.42v-.17a223.5 223.5 0 0 0 16.33 5.2v.1a266.47 266.47 0 0 0 13.74 3.47v-.11a214.7 214.7 0 0 0 16.34 3.06v.11c4.5.7 9.12 1.21 13.73 1.62 5.37.52 10.85.8 16.34.98 2.25.05 4.56.17 6.92.17h.7l6.92-.17c5.49-.18 10.91-.46 16.28-.98 4.62-.4 9.23-.93 13.74-1.62v-.12c5.54-.8 10.96-1.84 16.33-3.06v.12a266.21 266.21 0 0 0 13.74-3.46v-.12a223.5 223.5 0 0 0 16.34-5.2v.18a219.47 219.47 0 0 0 13.73-5.43v-.11a248.21 248.21 0 0 0 16.34-7.8v.18c4.67-2.42 9.23-4.9 13.74-7.62v-.17a258.09 258.09 0 0 0 16.33-10.8v.23c4.67-3.34 9.3-6.8 13.74-10.5v-.23a263.66 263.66 0 0 0 16.33-14.78v.3c4.74-4.74 9.35-9.65 13.74-14.79v-.28a240.51 240.51 0 0 0 16.28-21.07v.29a230.68 230.68 0 0 0 13.73-22.28v-.3a240.36 240.36 0 0 0 16.34-37.16v.4a247.51 247.51 0 0 0 0-161.96v82.65h-.12Z"/><path fill="#fff" d="M473.48 300.85a172.7 172.7 0 0 1-16.22 71.58 171.21 171.21 0 0 1-30.08 44.61 186.27 186.27 0 0 1-13.73 13.28 172.8 172.8 0 0 1-16.34 12.58 174.21 174.21 0 0 1-13.73 8.37 152.23 152.23 0 0 1-16.34 7.91 156.3 156.3 0 0 1-13.74 5.08 165.64 165.64 0 0 1-16.33 4.44c-4.5.99-9.06 1.8-13.74 2.37-4.68.58-10.8 1.21-16.28 1.44-2.3.12-4.61.18-6.92.18h-.7c-2.38 0-4.69-.06-6.92-.18-5.54-.23-10.97-.69-16.34-1.44-5.36-.75-9.23-1.38-13.73-2.37a169.88 169.88 0 0 1-16.34-4.44 161.71 161.71 0 0 1-13.74-5.08 157.79 157.79 0 0 1-16.33-7.9 174.21 174.21 0 0 1-13.74-8.38 172.8 172.8 0 0 1-16.33-12.58 186.49 186.49 0 0 1-13.74-13.28 171.23 171.23 0 0 1-30.07-44.61 173.6 173.6 0 0 1-16.22-71.58h-.06V123.07c-4.8 4.68-9.35 9.64-13.74 14.72v161.33h.12c0-.23.05-.46.05-.7 0-.22-.05.53-.05.76a184.98 184.98 0 0 0 13.62 69.84 188.58 188.58 0 0 0 16.28 31.46 188.3 188.3 0 0 0 30.07 35.84 201.6 201.6 0 0 0 13.74 11.55 186.1 186.1 0 0 0 16.33 11.25 200 200 0 0 0 30.07 14.72 183.06 183.06 0 0 0 13.74 4.68c4.68 1.38 10.8 3 16.34 4.1 4.5.92 9.12 1.61 13.73 2.19 4.62.57 10.8 1.15 16.34 1.32 2.23.12 4.54.18 6.92.18h.7c2.3 0 4.62-.06 6.92-.18a168.59 168.59 0 0 0 16.28-1.32c5.37-.7 9.24-1.27 13.74-2.2a169.04 169.04 0 0 0 16.33-4.1 179.79 179.79 0 0 0 30.07-11.9c5.32-2.64 9.3-4.78 13.74-7.49a186.1 186.1 0 0 0 16.34-11.25 201.34 201.34 0 0 0 13.73-11.55 199.84 199.84 0 0 0 16.34-17.2 189.11 189.11 0 0 0 13.74-18.64 193.32 193.32 0 0 0 16.33-31.46 186.1 186.1 0 0 0 13.57-69.84c0-.23-.06-.46-.06-.75s.06.46.06.7h.17V137.78a255.38 255.38 0 0 0-13.74-14.72v177.78h-.11Z"/><path fill="#fff" d="M443.4 300.85a143.26 143.26 0 0 1-16.22 64.6 143.73 143.73 0 0 1-30.07 39.18 142.57 142.57 0 0 1-60.14 33.13 131.64 131.64 0 0 1-13.74 2.95 137.4 137.4 0 0 1-16.28 1.73c-2.3.12-4.62.17-6.92.17h-.7c-2.38 0-4.7-.05-6.92-.17a137.1 137.1 0 0 1-16.34-1.73 134.97 134.97 0 0 1-13.73-2.94 143.03 143.03 0 0 1-60.15-33.14 143.03 143.03 0 0 1-46.3-103.78h-.1v-203c-4.68 3.35-9.3 6.75-13.75 10.45v190.82h.18v.06a156.94 156.94 0 0 0 13.56 63.78 159.53 159.53 0 0 0 16.34 28.28 170 170 0 0 0 13.73 16.45 159.18 159.18 0 0 0 16.34 14.84 163.66 163.66 0 0 0 13.74 9.7 165.59 165.59 0 0 0 16.33 9c4.45 2.08 9.06 4.04 13.74 5.71a167.14 167.14 0 0 0 16.33 4.9c4.5 1.1 9.07 2.03 13.74 2.72 4.68.7 10.8 1.27 16.34 1.56 2.25.06 4.56.17 6.92.17h.7c2.3 0 4.61-.11 6.92-.17a187.2 187.2 0 0 0 16.28-1.56c5.31-.75 9.23-1.61 13.74-2.71a167.14 167.14 0 0 0 16.33-4.9c4.68-1.68 9.3-3.64 13.74-5.72a165.57 165.57 0 0 0 16.33-9 154.67 154.67 0 0 0 13.74-9.7 159.18 159.18 0 0 0 16.34-14.84 169.84 169.84 0 0 0 13.73-16.45 159.47 159.47 0 0 0 16.34-28.28 156.01 156.01 0 0 0 13.56-63.78v-.06h.18V108.3a239.2 239.2 0 0 0-13.74-10.45v203h-.12Z"/><path fill="#fff" d="M306.55 53H292.8v244.9h13.74V53Z"/></svg>
