<svg xmlns="http://www.w3.org/2000/svg" width="600" height="600" fill="none" viewBox="0 0 600 600"><path fill="#fff" d="M117.55 117.59a256.86 256.86 0 0 0-48.03 66.56L184.16 69.52a257.53 257.53 0 0 0-66.6 48.08Zm299.22 413.82a257.29 257.29 0 0 0 114.65-114.64L416.78 531.4Zm-299.22-48.08a259.2 259.2 0 0 0 66.57 48.12L69.48 416.81a259.14 259.14 0 0 0 48.07 66.52Zm365.79-365.78a257.48 257.48 0 0 0-66.56-48.04l114.64 114.65a257.54 257.54 0 0 0-48.08-66.61ZM53.42 376.85 224.08 547.5a250.1 250.1 0 0 0 27.71 6.87L46.5 349.1a251.14 251.14 0 0 0 6.92 27.76Zm500.97-27.71L349.1 554.42a263.1 263.1 0 0 0 27.71-6.95L547.47 376.8c2.8-9.09 5.12-18.32 6.92-27.66ZM224.09 53.42 53.41 224.08a263.45 263.45 0 0 0-6.92 27.75L251.8 46.54a262.52 262.52 0 0 0-27.72 6.88Zm323.38 170.7L376.81 53.46a251.1 251.1 0 0 0-27.75-6.92l205.29 205.29a250.15 250.15 0 0 0-6.88-27.71Zm10.59 55.25L321.52 42.83a262 262 0 0 0-42.14.04L42.82 279.41a266.54 266.54 0 0 0 0 42.1l236.54 236.54a262.13 262.13 0 0 0 42.15.05l236.54-236.55a257.66 257.66 0 0 0 0-42.18Zm-257.6 278.94L42.63 300.46 300.47 42.61l257.85 257.85-257.85 257.85Z"/><path fill="#fff" d="M534.4 300.46 300.47 66.52 66.49 300.51l233.94 233.93L534.4 300.46ZM300.43 513.61 87.28 300.46 300.43 87.32l213.14 213.14-213.15 213.15Z"/><path fill="#fff" d="M489.7 300.5 300.43 111.23 111.19 300.46l189.28 189.28L489.7 300.5ZM300.47 468.9 132.03 300.46l168.44-168.44L468.9 300.46 300.47 468.9Z"/><path fill="#fff" d="M445 300.46 300.47 155.93 155.94 300.46 300.47 445 445 300.46ZM300.43 424.2l-123.7-123.7 123.74-123.73 123.7 123.7L300.41 424.2Z"/><path fill="#fff" d="m400.25 300.46-99.82-99.82-99.83 99.82 99.83 99.83 99.82-99.83Zm-99.78 79.04-79.04-79.04 79-78.99 79.03 79.03-79 79Z"/><path fill="#fff" d="m355.59 300.46-55.12-55.12-55.12 55.12 55.12 55.12 55.12-55.12Zm-55.16 34.33-34.3-34.29 34.34-34.32 34.28 34.28-34.32 34.33Z"/></svg>
