<svg xmlns="http://www.w3.org/2000/svg" width="600" height="600" fill="none" viewBox="0 0 600 600"><path fill="#fff" d="M285.15 29.44c5-.25 10.07-.44 15.07-.44 4.94 0 9.75.19 14.56.44l256.66 268 .03 1.42.03 1.42c0 6.34-.32 12.54-.76 18.75L300.03 36.28 29.7 318.84c-.38-6.15-.7-12.29-.7-18.56l.03-1.55.03-1.55L285.15 29.44ZM480.63 502.6H119.87a261.27 261.27 0 0 1-15.9-15.45h392.56a261.27 261.27 0 0 1-15.9 15.45ZM569.28 266.21 345.94 32.93c9.17 1.59 18.26 3.64 27.23 6.14L564.4 238.79c2.09 9 3.67 18.18 4.88 27.42ZM432.06 537.24H168.44A279.03 279.03 0 0 1 144 521.8h312.5a278.67 278.67 0 0 1-24.44 15.45ZM36.16 238.54 226.96 39.2c8.96-2.53 18.05-4.6 27.22-6.21L31.22 266.02c1.19-9.23 2.84-18.4 4.94-27.48ZM81.88 139.56l48.06-50.21a272.75 272.75 0 0 1 54.02-34.07L50.28 194.91a271.55 271.55 0 0 1 31.6-55.35ZM389.38 556.37a270.31 270.31 0 0 1-178.32 0h178.32ZM550.29 195.1 416.36 55.15a274.07 274.07 0 0 1 53.7 33.82L518.94 140a271.62 271.62 0 0 1 31.35 55.09Z"/><path fill="#fff" d="M32.67 344.67c1.08 6.2 2.28 12.35 3.74 18.43L299.9 87.51l264.12 275.72a249.78 249.78 0 0 0 3.73-18.43L299.9 65.22 32.67 344.67ZM87.32 468.03h425.86a293.76 293.76 0 0 0 11.4-15.45H75.92a293.88 293.88 0 0 0 11.4 15.45Z"/><path fill="#fff" d="M48.7 401.54a270.68 270.68 0 0 1-5.96-16.09l257.1-269L557.7 385.52a270 270 0 0 1-5.96 16.08l-251.9-262.86-251.15 262.8ZM536.42 433.4H64.02a275.1 275.1 0 0 1-8.1-15.46h488.67a239.43 239.43 0 0 1-8.17 15.45Z"/><path fill="#fff" fill-rule="evenodd" d="m299.52 270.14 57.75 59.4H243.61l55.91-59.4Zm21.22 44.01L299.7 292.5l-20.39 21.66h41.42Z" clip-rule="evenodd"/><path fill="#fff" fill-rule="evenodd" d="m299.65 218.91 139.7 145.27H161.28L299.65 218.9Zm103.4 129.82L299.72 241.26l-102.4 107.47h205.75Z" clip-rule="evenodd"/><path fill="#fff" fill-rule="evenodd" d="M79.09 398.75h442.39L299.7 167.68 79.1 398.75Zm406.16-15.39H115.2l184.59-193.33 185.47 193.33Z" clip-rule="evenodd"/></svg>
