<svg xmlns="http://www.w3.org/2000/svg" width="600" height="600" fill="none" viewBox="0 0 600 600"><path fill="#fff" d="m388.6 141.99 51.64-55.22a23.83 23.83 0 0 0 6.3-16.26c0-6.1-2.27-11.95-6.3-16.26a20.84 20.84 0 0 0-15.22-6.74c-5.7 0-11.18 2.43-15.21 6.74.23-.25.44-.5.66-.77l.22-.26a20.69 20.69 0 0 1-14.9 5.78 20.85 20.85 0 0 1-14.57-6.72 23.76 23.76 0 0 1-6.28-15.56 23.94 23.94 0 0 1 5.4-15.94 98.61 98.61 0 0 1-.95.94c2-2.14 3.57-4.67 4.65-7.46A24.39 24.39 0 0 0 385.06 0h-46.21l-106.1 113.4a23.83 23.83 0 0 0-6.3 16.26c0 6.1 2.27 11.95 6.3 16.26a20.84 20.84 0 0 0 15.22 6.74c5.7 0 11.18-2.43 15.22-6.74l18.43-19.7h.02l51.62-55.2a21.5 21.5 0 0 1 6.98-5.04 20.33 20.33 0 0 1 16.53-.05c2.62 1.15 5 2.85 7 5 2.01 2.14 3.6 4.68 4.69 7.48a24.4 24.4 0 0 1-.04 17.67c-1.1 2.8-2.7 5.33-4.71 7.46l-5.54 5.9a23.14 23.14 0 0 0-4.72 7.47 24.38 24.38 0 0 0-.05 17.66 23.18 23.18 0 0 0 4.68 7.5c2 2.14 4.38 3.84 7 5a20.33 20.33 0 0 0 16.53-.04 21.51 21.51 0 0 0 6.99-5.04ZM274.3 0 78.74 209.01a21.5 21.5 0 0 1-6.98 4.99 20.32 20.32 0 0 1-16.47 0 21.5 21.5 0 0 1-6.98-4.99c-2-2.13-3.58-4.67-4.67-7.46a24.39 24.39 0 0 1 0-17.6 23.17 23.17 0 0 1 4.67-7.46l59.03-63.1c2-2.13 3.58-4.67 4.66-7.46a24.39 24.39 0 0 0 0-17.6 23.18 23.18 0 0 0-4.66-7.46c-2-2.14-4.37-3.83-6.98-4.98a20.32 20.32 0 0 0-16.47 0 21.48 21.48 0 0 0-6.98 4.98l-35.97 38.45a20.83 20.83 0 0 1-15.2 6.65 20.85 20.85 0 0 1-15.16-6.75 23.83 23.83 0 0 1-6.3-16.2 23.85 23.85 0 0 1 6.23-16.25L91.7 0h60.86l-.03.03-19.36 20.72c-2 2.13-3.59 4.67-4.67 7.46a24.39 24.39 0 0 0 0 17.6 23.16 23.16 0 0 0 4.67 7.46c2 2.14 4.37 3.83 6.98 4.99a20.32 20.32 0 0 0 16.47 0 21.48 21.48 0 0 0 6.98-4.99L213.44 0h60.85ZM600 116.62a20.1 20.1 0 0 0-3.66-.33c-5.7 0-11.18 2.42-15.21 6.73.3-.33.59-.68.86-1.03a20.68 20.68 0 0 1-14.9 5.77 20.85 20.85 0 0 1-14.55-6.73 23.76 23.76 0 0 1-6.27-15.55 23.94 23.94 0 0 1 5.4-15.92l-.26.24c-.24.23-.48.45-.71.7a23.83 23.83 0 0 0 6.3-16.26c0-6.1-2.27-11.95-6.3-16.26a20.84 20.84 0 0 0-15.22-6.74c-5.7 0-11.18 2.42-15.21 6.74l-51.64 55.2c-2 2.13-3.58 4.66-4.67 7.45a24.39 24.39 0 0 0 0 17.6 23.15 23.15 0 0 0 4.67 7.47c2 2.13 4.37 3.83 6.98 4.98a20.31 20.31 0 0 0 16.47 0 21.48 21.48 0 0 0 6.98-4.98l5.52-5.92a21.5 21.5 0 0 1 6.99-5.04 20.33 20.33 0 0 1 16.52-.04c2.62 1.16 5 2.86 7 5 2.01 2.14 3.6 4.7 4.68 7.5a24.37 24.37 0 0 1-.04 17.66 23.18 23.18 0 0 1-4.52 7.25l-.02.02-70.25 75.1a23.82 23.82 0 0 0-6.3 16.25c0 6.1 2.26 11.95 6.3 16.26a20.84 20.84 0 0 0 15.21 6.74c5.7 0 11.18-2.42 15.22-6.74L600 167.9v-51.28ZM600 236.9 405.92 444.36a23.83 23.83 0 0 0-6.3 16.26c0 6.1 2.27 11.95 6.3 16.27a20.84 20.84 0 0 0 15.22 6.73c5.7 0 11.18-2.42 15.21-6.73l59.01-63.1c2-2.13 4.37-3.83 6.99-4.98a20.32 20.32 0 0 1 16.46 0 21.47 21.47 0 0 1 6.98 4.98c2 2.14 3.59 4.67 4.67 7.46a24.39 24.39 0 0 1 0 17.6 23.18 23.18 0 0 1-4.67 7.47l-35.95 38.44c-2 2.14-3.58 4.67-4.66 7.47a24.39 24.39 0 0 0 0 17.6 23.17 23.17 0 0 0 4.66 7.46c2 2.13 4.37 3.83 6.98 4.98a20.31 20.31 0 0 0 16.47 0 21.48 21.48 0 0 0 6.98-4.98L600 432.06V367l-17.96 19.2a20.84 20.84 0 0 1-15.21 6.73c-5.7 0-11.18-2.42-15.22-6.74a23.83 23.83 0 0 1-6.3-16.26c0-6.1 2.27-11.95 6.3-16.26l48.39-51.7V236.9ZM195.76 600l15.34-16.39c2-2.13 3.58-4.67 4.66-7.46a24.37 24.37 0 0 0 0-17.6 23.15 23.15 0 0 0-4.66-7.46c-2-2.14-4.37-3.84-6.98-5a20.32 20.32 0 0 0-16.47 0 21.49 21.49 0 0 0-6.98 5L134.9 600h60.86ZM0 427.26l28.95-30.96a23.84 23.84 0 0 0 6.3-16.27c0-6.1-2.26-11.95-6.3-16.27-2-2.14-4.37-3.83-6.98-4.99a20.3 20.3 0 0 0-16.47 0 21.3 21.3 0 0 0-5.5 3.55v64.94ZM0 335.3a20.69 20.69 0 0 0 10.06 2.67c2.83 0 5.63-.6 8.24-1.75a21.48 21.48 0 0 0 6.98-4.99l45.18-48.3a23.86 23.86 0 0 0 6.3-16.25c0-6.1-2.27-11.95-6.3-16.27a20.85 20.85 0 0 0-15.22-6.74c-5.7 0-11.19 2.43-15.22 6.74L0 293.21v42.1ZM84.29 467.27l-22.13 23.66c-2 2.13-3.58 4.67-4.66 7.46a24.38 24.38 0 0 0 0 17.6 23.17 23.17 0 0 0 4.66 7.46c2 2.14 4.37 3.83 6.98 4.99a20.33 20.33 0 0 0 16.47 0 21.48 21.48 0 0 0 6.98-4.99l22.13-23.65a23.82 23.82 0 0 0 6.3-16.26c0-6.1-2.27-11.95-6.3-16.27a20.84 20.84 0 0 0-15.22-6.73c-5.7 0-11.18 2.42-15.21 6.73ZM65.8 378.97a23.15 23.15 0 0 0 4.66 7.46c2 2.14 4.37 3.83 6.98 4.99a20.32 20.32 0 0 0 16.47 0 21.47 21.47 0 0 0 6.98-4.99l22.13-23.65a23.83 23.83 0 0 0 6.3-16.26c0-6.1-2.27-11.95-6.3-16.26a20.84 20.84 0 0 0-15.21-6.74c-5.71 0-11.18 2.42-15.22 6.74L70.46 353.9c-2 2.13-3.58 4.67-4.66 7.46a24.37 24.37 0 0 0 0 17.6ZM101.75 273.5a23.15 23.15 0 0 0 4.67 7.46c2 2.14 4.36 3.83 6.98 4.99a20.31 20.31 0 0 0 16.46 0 21.47 21.47 0 0 0 6.98-4.99L159 257.31a23.83 23.83 0 0 0 6.3-16.26c0-6.1-2.27-11.95-6.3-16.26a20.84 20.84 0 0 0-15.22-6.74c-5.7 0-11.18 2.42-15.21 6.74l-22.14 23.65c-2 2.13-3.59 4.67-4.67 7.46a24.37 24.37 0 0 0 0 17.6ZM168.2 377.56l-.9 1a23.82 23.82 0 0 0-6.31 16.26c0 6.1 2.26 11.95 6.3 16.26a20.84 20.84 0 0 0 15.22 6.74c5.7 0 11.17-2.43 15.21-6.74l.91-.98c4-4.32 6.25-10.16 6.23-16.24a23.82 23.82 0 0 0-6.3-16.2 20.85 20.85 0 0 0-15.16-6.75 20.83 20.83 0 0 0-15.2 6.65ZM195.44 208.77a20.83 20.83 0 0 0 15.19-6.66l1.83-1.97c2-2.14 3.58-4.67 4.66-7.46a24.39 24.39 0 0 0 0-17.6 23.18 23.18 0 0 0-4.66-7.47c-2-2.13-4.37-3.82-6.98-4.98a20.32 20.32 0 0 0-16.47 0 21.49 21.49 0 0 0-6.98 4.99l-1.85 1.97a23.85 23.85 0 0 0-6.22 16.24 23.82 23.82 0 0 0 6.31 16.2 20.85 20.85 0 0 0 15.17 6.74ZM176.45 323.77a23.13 23.13 0 0 0 4.67 7.47c2 2.13 4.37 3.83 6.98 4.98a20.3 20.3 0 0 0 16.47 0 21.49 21.49 0 0 0 6.97-4.99L334.2 200.15a23.83 23.83 0 0 0 6.3-16.26c0-6.1-2.26-11.95-6.3-16.26a20.84 20.84 0 0 0-15.21-6.74c-5.7 0-11.18 2.42-15.22 6.74L181.12 298.7c-2 2.14-3.59 4.67-4.67 7.46a24.37 24.37 0 0 0 0 17.6ZM427.61 342.59a20.83 20.83 0 0 0 15.2-6.65l1.84-1.98a23.83 23.83 0 0 0 6.3-16.26c0-6.1-2.26-11.95-6.3-16.26a20.84 20.84 0 0 0-15.2-6.74c-5.72 0-11.19 2.43-15.22 6.74l-1.85 1.96a23.85 23.85 0 0 0-6.23 16.24 23.83 23.83 0 0 0 6.3 16.2 20.85 20.85 0 0 0 15.16 6.75ZM306.8 341.68c5.7 0 11.17-2.42 15.2-6.74l122.65-131.1a23.83 23.83 0 0 0 6.3-16.25c0-6.1-2.26-11.95-6.3-16.27a20.84 20.84 0 0 0-15.2-6.73c-5.72 0-11.19 2.42-15.22 6.73l-122.65 131.1a23.83 23.83 0 0 0-6.3 16.26c0 6.1 2.26 11.95 6.3 16.26a20.84 20.84 0 0 0 15.21 6.74ZM297.16 404.5a23.15 23.15 0 0 0-4.67-7.46c-2-2.14-4.37-3.83-6.98-4.99a20.3 20.3 0 0 0-16.47 0 21.49 21.49 0 0 0-6.98 5l-68.72 73.45c-2 2.14-3.59 4.67-4.67 7.46a24.38 24.38 0 0 0 0 17.6 23.18 23.18 0 0 0 4.67 7.47 21.5 21.5 0 0 0 6.98 4.98 20.32 20.32 0 0 0 16.46 0 21.49 21.49 0 0 0 6.98-4.98l68.73-73.46c2-2.14 3.59-4.68 4.67-7.46a24.37 24.37 0 0 0 0-17.6ZM343.75 448.18a21.51 21.51 0 0 0-6.99 5.04l-45.18 48.3a23.83 23.83 0 0 0-6.3 16.26c0 6.1 2.26 11.95 6.3 16.26a20.84 20.84 0 0 0 15.21 6.74c5.7 0 11.18-2.43 15.22-6.74l45.18-48.28a23.16 23.16 0 0 0 4.72-7.46 24.4 24.4 0 0 0 .05-17.67 23.2 23.2 0 0 0-4.68-7.49c-2-2.14-4.38-3.84-7-5a20.33 20.33 0 0 0-16.53.04ZM333.94 407.33a23.17 23.17 0 0 0 4.67 7.46c2 2.13 4.37 3.83 6.98 4.99a20.32 20.32 0 0 0 16.47 0 21.47 21.47 0 0 0 6.98-5l22.13-23.66c2-2.14 3.58-4.67 4.66-7.46a24.37 24.37 0 0 0 0-17.6 23.16 23.16 0 0 0-4.66-7.47 21.5 21.5 0 0 0-6.98-4.98 20.32 20.32 0 0 0-16.47 0 21.49 21.49 0 0 0-6.98 4.98l-22.13 23.67c-2 2.14-3.58 4.67-4.67 7.46a24.37 24.37 0 0 0 0 17.6ZM442.35 545.05c-5.7 0-11.18 2.42-15.21 6.74l-4.63 4.92a23.85 23.85 0 0 0-6.22 16.25 23.84 23.84 0 0 0 6.3 16.2 20.85 20.85 0 0 0 15.17 6.74 20.83 20.83 0 0 0 15.2-6.66l4.6-4.93a23.83 23.83 0 0 0 6.3-16.26c0-6.1-2.26-11.95-6.3-16.26a20.84 20.84 0 0 0-15.2-6.74Z"/></svg>
