<svg width="600" height="600" viewBox="0 0 600 600" fill="none" xmlns="http://www.w3.org/2000/svg">
<g clip-path="url(#clip0)">
<path d="M125.798 66.1313C124.837 66.136 123.911 65.7678 123.215 65.1041L100.179 43.5035C99.8174 43.1643 99.5257 42.7571 99.321 42.3052C99.1164 41.8533 99.0027 41.3654 98.9866 40.8696C98.9705 40.3738 99.0522 39.8796 99.227 39.4153C99.4019 38.9511 99.6664 38.5258 100.006 38.1637C100.345 37.8017 100.752 37.5101 101.204 37.3054C101.656 37.1008 102.144 36.9871 102.64 36.971C103.135 36.9549 103.63 37.0366 104.094 37.2114C104.558 37.3863 104.983 37.6508 105.345 37.99L128.381 59.6058C128.743 59.9442 129.035 60.3509 129.24 60.8025C129.444 61.2542 129.558 61.7418 129.573 62.2373C129.588 62.7329 129.506 63.2266 129.33 63.6901C129.154 64.1535 128.888 64.5776 128.547 64.938C128.197 65.3168 127.772 65.6186 127.298 65.8241C126.825 66.0295 126.314 66.1341 125.798 66.1313Z" fill="white" stroke="white" stroke-width="7"/>
<path d="M103.472 66.8412C102.736 66.8401 102.017 66.624 101.402 66.2193C100.787 65.8146 100.304 65.239 100.012 64.5634C99.7196 63.8877 99.6314 63.1415 99.7578 62.4163C99.8842 61.6912 100.22 61.0188 100.723 60.4819L122.324 37.4311C122.664 37.0691 123.072 36.7776 123.525 36.5734C123.978 36.3691 124.467 36.256 124.963 36.2406C125.46 36.2252 125.954 36.3077 126.419 36.4834C126.884 36.6592 127.309 36.9248 127.671 37.265C128.033 37.6052 128.325 38.0133 128.529 38.4662C128.733 38.919 128.846 39.4077 128.862 39.9042C128.877 40.4008 128.795 40.8955 128.619 41.3601C128.443 41.8248 128.178 42.2503 127.837 42.6123L106.222 65.6479C105.87 66.0246 105.444 66.3249 104.971 66.5302C104.498 66.7355 103.988 66.8414 103.472 66.8412Z" fill="white" stroke="white" stroke-width="7"/>
<path d="M152.263 397.648C151.304 397.642 150.382 397.276 149.68 396.621L126.645 374.99C125.914 374.305 125.485 373.358 125.452 372.356C125.419 371.355 125.786 370.382 126.471 369.65C127.156 368.919 128.103 368.49 129.105 368.458C130.106 368.425 131.08 368.792 131.811 369.477L154.846 391.077C155.413 391.592 155.81 392.268 155.984 393.014C156.158 393.76 156.101 394.541 155.821 395.254C155.541 395.967 155.051 396.577 154.415 397.005C153.78 397.433 153.029 397.657 152.263 397.648Z" fill="white" stroke="white" stroke-width="7"/>
<path d="M129.938 398.313C129.199 398.319 128.474 398.106 127.855 397.703C127.236 397.3 126.749 396.723 126.456 396.044C126.162 395.366 126.076 394.616 126.206 393.888C126.336 393.161 126.678 392.488 127.189 391.953L148.804 368.948C149.502 368.272 150.432 367.89 151.404 367.883C152.375 367.875 153.311 368.242 154.019 368.907C154.727 369.572 155.151 370.484 155.204 371.454C155.257 372.423 154.934 373.376 154.303 374.114L132.702 397.15C132.346 397.523 131.916 397.818 131.441 398.019C130.965 398.219 130.454 398.319 129.938 398.313Z" fill="white" stroke="white" stroke-width="7"/>
<path d="M409.401 183.152C408.444 183.156 407.524 182.788 406.833 182.125L383.828 160.494C383.097 159.809 382.668 158.862 382.635 157.86C382.603 156.859 382.969 155.886 383.654 155.154C384.339 154.423 385.287 153.994 386.288 153.962C387.29 153.929 388.263 154.296 388.994 154.981L412.045 176.596C412.769 177.284 413.193 178.23 413.224 179.228C413.255 180.227 412.891 181.197 412.211 181.929C411.855 182.319 411.421 182.63 410.937 182.841C410.453 183.052 409.929 183.158 409.401 183.152Z" fill="white" stroke="white" stroke-width="7"/>
<path d="M387.091 183.817C386.356 183.812 385.639 183.594 385.026 183.189C384.413 182.784 383.931 182.21 383.639 181.537C383.346 180.863 383.255 180.119 383.377 179.395C383.499 178.671 383.829 177.998 384.326 177.458L405.942 154.452C406.281 154.09 406.688 153.798 407.14 153.594C407.592 153.389 408.08 153.275 408.576 153.259C409.072 153.243 409.566 153.325 410.03 153.5C410.494 153.675 410.92 153.939 411.282 154.278C411.644 154.618 411.935 155.025 412.14 155.477C412.345 155.929 412.458 156.416 412.475 156.912C412.491 157.408 412.409 157.902 412.234 158.367C412.059 158.831 411.795 159.256 411.455 159.618L389.87 182.624C389.513 183.003 389.083 183.304 388.604 183.509C388.126 183.715 387.611 183.819 387.091 183.817Z" fill="white" stroke="white" stroke-width="7"/>
<path d="M521.74 439.596C520.782 439.598 519.859 439.236 519.157 438.584L496.122 416.968C495.734 416.636 495.417 416.229 495.191 415.771C494.965 415.313 494.834 414.814 494.806 414.304C494.778 413.794 494.854 413.284 495.029 412.804C495.204 412.324 495.475 411.885 495.825 411.513C496.174 411.14 496.596 410.843 497.064 410.638C497.532 410.434 498.036 410.326 498.547 410.322C499.058 410.318 499.564 410.418 500.035 410.615C500.506 410.812 500.932 411.103 501.288 411.469L524.308 433.07C524.671 433.409 524.962 433.815 525.167 434.267C525.372 434.718 525.485 435.206 525.5 435.702C525.516 436.197 525.433 436.691 525.257 437.154C525.081 437.618 524.815 438.042 524.474 438.402C524.126 438.779 523.703 439.08 523.232 439.285C522.762 439.491 522.254 439.596 521.74 439.596Z" fill="white" stroke="white" stroke-width="7"/>
<path d="M499.415 440.321C498.453 440.325 497.527 439.957 496.832 439.294C496.469 438.955 496.177 438.548 495.973 438.097C495.768 437.645 495.655 437.158 495.64 436.662C495.624 436.166 495.707 435.673 495.883 435.209C496.059 434.746 496.325 434.322 496.665 433.961L518.266 410.926C518.951 410.195 519.898 409.766 520.9 409.733C521.901 409.7 522.875 410.067 523.606 410.752C524.337 411.437 524.766 412.384 524.798 413.386C524.831 414.387 524.464 415.361 523.779 416.092L502.164 439.127C501.813 439.506 501.388 439.808 500.915 440.014C500.441 440.219 499.93 440.324 499.415 440.321Z" fill="white" stroke="white" stroke-width="7"/>
<path d="M249.497 128.184C248.834 128.187 248.183 128.014 247.609 127.682C247.036 127.351 246.561 126.872 246.234 126.296C245.904 125.721 245.73 125.07 245.73 124.408C245.73 123.745 245.904 123.094 246.234 122.52L277.955 67.6268C278.285 67.0488 278.763 66.5684 279.338 66.2341C279.914 65.8999 280.567 65.7237 281.233 65.7235C281.895 65.7249 282.544 65.9 283.117 66.2314C283.69 66.5627 284.165 67.0387 284.496 67.6117L316.217 122.474C316.553 123.047 316.732 123.699 316.734 124.363C316.737 125.027 316.564 125.679 316.232 126.255C315.901 126.83 315.423 127.308 314.847 127.639C314.271 127.969 313.618 128.142 312.954 128.139H249.587L249.497 128.184ZM281.112 77.0525L256.037 120.631H306.323L293.74 98.8646L281.112 77.0525Z" fill="white" stroke="white" stroke-width="7"/>
<path d="M197.051 463.523C196.389 463.521 195.738 463.346 195.165 463.014C194.592 462.682 194.117 462.205 193.786 461.631C193.456 461.057 193.282 460.407 193.282 459.744C193.283 459.082 193.457 458.432 193.788 457.858L225.419 402.965C225.75 402.389 226.227 401.911 226.803 401.579C227.379 401.248 228.032 401.074 228.697 401.077C229.357 401.075 230.006 401.248 230.579 401.576C231.152 401.905 231.628 402.379 231.959 402.95L247.88 430.397L263.741 457.813C264.076 458.387 264.253 459.039 264.256 459.703C264.258 460.368 264.085 461.021 263.754 461.597C263.423 462.173 262.946 462.652 262.371 462.985C261.795 463.318 261.143 463.493 260.478 463.492H197.111L197.051 463.523ZM228.697 412.406L203.592 455.97H253.877L241.294 434.203L228.697 412.406Z" fill="white" stroke="white" stroke-width="7"/>
<path d="M378.843 566.511C378.18 566.512 377.528 566.338 376.953 566.007C376.378 565.677 375.9 565.2 375.567 564.626C375.235 564.051 375.06 563.4 375.06 562.736C375.059 562.073 375.234 561.421 375.566 560.846L407.287 505.938C407.618 505.365 408.093 504.889 408.666 504.558C409.238 504.227 409.888 504.051 410.55 504.05C411.213 504.05 411.866 504.225 412.441 504.556C413.016 504.888 413.494 505.364 413.827 505.938L445.549 560.801C445.88 561.374 446.054 562.025 446.055 562.687C446.055 563.349 445.881 564 445.551 564.574C445.22 565.148 444.744 565.624 444.171 565.956C443.598 566.288 442.948 566.464 442.286 566.465H378.919L378.843 566.511ZM410.489 515.379L385.339 558.943H435.609L423.102 537.146L410.489 515.379Z" fill="white" stroke="white" stroke-width="7"/>
<path d="M522.797 359.039C521.795 359.037 520.835 358.641 520.123 357.936L475.215 313.149C474.747 312.68 474.411 312.097 474.24 311.457C474.069 310.817 474.069 310.144 474.24 309.504C474.412 308.864 474.748 308.281 475.216 307.813C475.684 307.344 476.267 307.007 476.907 306.835L538.099 290.4C538.739 290.226 539.415 290.224 540.057 290.394C540.698 290.565 541.284 290.901 541.754 291.37C542.225 291.839 542.563 292.423 542.735 293.064C542.908 293.706 542.908 294.381 542.736 295.022L526.362 356.244C526.194 356.885 525.86 357.47 525.393 357.94C524.926 358.41 524.343 358.747 523.703 358.918C523.407 358.996 523.103 359.037 522.797 359.039ZM485.185 312.424L520.758 347.967L527.328 323.632L533.824 299.327L485.185 312.424Z" fill="white" stroke="white" stroke-width="7"/>
<path d="M1.66303 3.62539C1.1679 3.62479 0.67783 3.52565 0.221397 3.33374C-0.235039 3.14183 -0.648697 2.861 -0.995495 2.5076L-45.813 -42.2646C-46.2808 -42.7334 -46.617 -43.3169 -46.7881 -43.9566C-46.9592 -44.5963 -46.959 -45.2698 -46.7876 -45.9094C-46.6162 -46.5491 -46.2796 -47.1324 -45.8116 -47.6009C-45.3437 -48.0694 -44.7607 -48.4066 -44.1212 -48.5787L17.0705 -65.0284C17.7113 -65.2024 18.3867 -65.2044 19.0285 -65.0342C19.6703 -64.8639 20.2559 -64.5275 20.7262 -64.0587C21.1965 -63.5899 21.5349 -63.0054 21.7072 -62.3642C21.8796 -61.7229 21.8798 -61.0475 21.7078 -60.4061L13.5207 -29.8329L5.34874 0.770477C5.176 1.41112 4.83815 1.99519 4.36898 2.46437C3.8998 2.93354 3.31572 3.27138 2.67509 3.44412C2.34821 3.55293 2.00735 3.61398 1.66303 3.62539ZM-35.8435 -42.9897L-0.255348 -7.44683L6.19463 -31.7362L12.6899 -56.0407L-35.8435 -42.9897Z" fill="white" stroke="white" stroke-width="7"/>
<path d="M-19.9984 665.103C-20.9993 665.098 -21.9588 664.703 -22.672 664.001L-67.5047 619.213C-67.9724 618.744 -68.3087 618.161 -68.4797 617.521C-68.6508 616.881 -68.6506 616.208 -68.4792 615.568C-68.3079 614.929 -67.9713 614.345 -67.5033 613.877C-67.0353 613.408 -66.4523 613.071 -65.8129 612.899L-4.62118 596.449C-3.98037 596.275 -3.30498 596.273 -2.66315 596.444C-2.02132 596.614 -1.43574 596.95 -0.965439 597.419C-0.495132 597.888 -0.156746 598.472 0.0155945 599.114C0.187935 599.755 0.188133 600.43 0.0161743 601.072L-16.358 662.294C-16.5252 662.935 -16.8594 663.52 -17.3264 663.989C-17.7934 664.459 -18.3766 664.796 -19.0166 664.967C-19.3362 665.057 -19.6665 665.102 -19.9984 665.103ZM-57.5352 618.503L-21.9621 654.031L-15.4668 629.742L-8.9715 605.437L-57.5352 618.503Z" fill="white" stroke="white" stroke-width="7"/>
<path d="M535.576 23.0358C535.08 23.0378 534.588 22.9415 534.129 22.7524C533.67 22.5634 533.252 22.2853 532.901 21.9342C532.55 21.5831 532.272 21.1661 532.083 20.707C531.894 20.2479 531.798 19.756 531.8 19.2595V-44.1074C531.801 -44.7696 531.977 -45.4199 532.309 -45.9929C532.641 -46.5659 533.117 -47.0415 533.691 -47.3721C534.265 -47.7026 534.916 -47.8764 535.578 -47.8761C536.24 -47.8758 536.891 -47.7013 537.464 -47.3702L592.281 -15.7094C592.856 -15.3779 593.332 -14.9012 593.664 -14.3272C593.995 -13.7531 594.169 -13.1019 594.169 -12.4391C594.169 -11.7762 593.995 -11.125 593.664 -10.551C593.332 -9.97693 592.856 -9.50022 592.281 -9.16877L537.419 22.5524C536.855 22.8659 536.221 23.0322 535.576 23.0358ZM539.307 -37.5668V12.7189L561.059 0.136116L582.841 -12.4617L539.307 -37.5668Z" fill="white" stroke="white" stroke-width="7"/>
<path d="M-39.9522 339.598C-40.614 339.598 -41.2645 339.426 -41.8403 339.1C-42.4123 338.768 -42.8874 338.292 -43.2187 337.72C-43.5499 337.147 -43.7257 336.498 -43.7285 335.837V272.47C-43.7283 271.806 -43.5538 271.154 -43.2224 270.579C-42.8911 270.004 -42.4145 269.526 -41.8403 269.192C-41.2673 268.858 -40.6157 268.682 -39.9522 268.682C-39.2887 268.682 -38.6371 268.858 -38.064 269.192L16.7684 300.823C17.3425 301.156 17.8191 301.634 18.1504 302.21C18.4818 302.785 18.6563 303.437 18.6565 304.101C18.6598 304.763 18.4867 305.415 18.1548 305.988C17.823 306.562 17.3444 307.036 16.7684 307.364L-10.6629 323.239L-38.0942 339.1C-38.6604 339.423 -39.3003 339.595 -39.9522 339.598ZM-36.2061 278.996V329.281L-14.4393 316.699L7.32753 304.101L-36.2061 278.996Z" fill="white" stroke="white" stroke-width="7"/>
<path d="M326.504 295.899C321.004 295.896 315.629 294.262 311.058 291.205C306.487 288.147 302.925 283.803 300.822 278.721C298.72 273.639 298.171 268.048 299.246 262.655C300.321 257.262 302.97 252.308 306.86 248.42C310.75 244.533 315.705 241.886 321.099 240.814C326.493 239.742 332.084 240.294 337.164 242.399C342.245 244.504 346.587 248.069 349.642 252.641C352.697 257.214 354.328 262.59 354.328 268.09C354.32 275.465 351.385 282.536 346.168 287.75C340.952 292.964 333.879 295.895 326.504 295.899ZM326.504 247.833C322.498 247.836 318.583 249.027 315.254 251.254C311.925 253.482 309.331 256.647 307.8 260.348C306.269 264.05 305.87 268.122 306.654 272.051C307.437 275.979 309.367 279.587 312.201 282.418C315.034 285.25 318.644 287.177 322.573 287.958C326.501 288.738 330.574 288.336 334.274 286.802C337.974 285.269 341.137 282.673 343.362 279.342C345.587 276.011 346.775 272.095 346.775 268.09C346.771 262.716 344.633 257.564 340.832 253.765C337.031 249.967 331.877 247.833 326.504 247.833Z" fill="white" stroke="white" stroke-width="7"/>
<path d="M205.056 27.658C199.551 27.6609 194.17 26.0313 189.592 22.9751C185.014 19.9189 181.445 15.5735 179.337 10.4887C177.23 5.40391 176.677 -0.191824 177.75 -5.59056C178.824 -10.9893 181.474 -15.9485 185.366 -19.8406C189.258 -23.7328 194.217 -26.3831 199.616 -27.4562C205.015 -28.5293 210.611 -27.977 215.695 -25.8692C220.78 -23.7614 225.126 -20.1928 228.182 -15.6148C231.238 -11.0369 232.868 -5.65532 232.865 -0.150961C232.857 7.22197 229.924 14.2906 224.711 19.5041C219.497 24.7175 212.429 27.65 205.056 27.658ZM205.056 -20.4223C201.046 -20.4253 197.125 -19.239 193.789 -17.0133C190.454 -14.7877 187.853 -11.6228 186.317 -7.91895C184.78 -4.21511 184.376 -0.138737 185.157 3.79452C185.937 7.72777 187.867 11.3412 190.701 14.1777C193.536 17.0142 197.148 18.9464 201.08 19.7298C205.013 20.5132 209.09 20.1126 212.795 18.5788C216.5 17.0449 219.666 14.4467 221.895 11.1128C224.123 7.77883 225.312 3.85898 225.312 -0.150961C225.308 -5.52342 223.173 -10.6749 219.376 -14.4752C215.578 -18.2755 210.428 -20.4143 205.056 -20.4223Z" fill="white" stroke="white" stroke-width="7"/>
<path d="M164.951 307.922C164.455 307.924 163.963 307.828 163.504 307.639C163.045 307.45 162.627 307.172 162.276 306.821C161.925 306.47 161.647 306.053 161.458 305.594C161.269 305.135 161.173 304.643 161.175 304.146C161.249 301.438 160.779 298.743 159.794 296.22C158.809 293.697 157.328 291.397 155.439 289.456C153.55 287.514 151.291 285.971 148.796 284.918C146.301 283.864 143.62 283.321 140.911 283.321C138.202 283.321 135.521 283.864 133.026 284.918C130.53 285.971 128.272 287.514 126.383 289.456C124.494 291.397 123.013 293.697 122.028 296.22C121.043 298.743 120.573 301.438 120.647 304.146C120.647 305.148 120.249 306.108 119.541 306.816C118.833 307.525 117.872 307.922 116.871 307.922C115.869 307.922 114.909 307.525 114.201 306.816C113.492 306.108 113.094 305.148 113.094 304.146C113.008 300.439 113.664 296.751 115.023 293.301C116.382 289.85 118.417 286.706 121.008 284.054C123.6 281.401 126.696 279.293 130.114 277.854C133.531 276.415 137.202 275.674 140.911 275.674C144.619 275.674 148.29 276.415 151.708 277.854C155.126 279.293 158.222 281.401 160.813 284.054C163.405 286.706 165.44 289.85 166.799 293.301C168.158 296.751 168.814 300.439 168.727 304.146C168.727 305.148 168.33 306.108 167.621 306.816C166.913 307.525 165.953 307.922 164.951 307.922Z" fill="white" stroke="white" stroke-width="7"/>
<path d="M469.929 152.111C462.581 152.111 455.535 149.192 450.339 143.997C445.144 138.802 442.225 131.755 442.225 124.408C442.225 117.06 445.144 110.014 450.339 104.819C455.535 99.6233 462.581 96.7046 469.929 96.7046C470.93 96.7046 471.891 97.1024 472.599 97.8106C473.307 98.5188 473.705 99.4794 473.705 100.481C473.705 101.482 473.307 102.443 472.599 103.151C471.891 103.859 470.93 104.257 469.929 104.257C464.584 104.257 459.459 106.38 455.68 110.159C451.901 113.938 449.778 119.064 449.778 124.408C449.778 129.752 451.901 134.877 455.68 138.656C459.459 142.435 464.584 144.558 469.929 144.558C470.93 144.558 471.891 144.956 472.599 145.664C473.307 146.373 473.705 147.333 473.705 148.335C473.705 149.336 473.307 150.297 472.599 151.005C471.891 151.713 470.93 152.111 469.929 152.111Z" fill="white" stroke="white" stroke-width="7"/>
<path d="M620.317 511.603C614.817 511.597 609.441 509.961 604.87 506.901C600.299 503.841 596.738 499.496 594.636 494.413C592.534 489.33 591.985 483.738 593.06 478.343C594.134 472.949 596.784 467.994 600.673 464.104C604.562 460.215 609.517 457.566 614.912 456.491C620.306 455.416 625.898 455.965 630.981 458.067C636.064 460.169 640.41 463.731 643.47 468.302C646.529 472.873 648.166 478.248 648.172 483.749C648.174 487.407 647.454 491.03 646.055 494.41C644.656 497.791 642.605 500.862 640.018 503.449C637.431 506.036 634.359 508.088 630.979 509.487C627.599 510.886 623.976 511.605 620.317 511.603ZM620.317 463.523C616.307 463.529 612.389 464.724 609.059 466.957C605.728 469.19 603.135 472.361 601.606 476.068C600.078 479.775 599.683 483.852 600.473 487.784C601.262 491.715 603.199 495.324 606.04 498.155C608.881 500.985 612.497 502.909 616.432 503.684C620.366 504.458 624.442 504.048 628.143 502.506C631.845 500.964 635.006 498.359 637.227 495.02C639.447 491.681 640.628 487.759 640.619 483.749C640.603 478.376 638.456 473.229 634.65 469.438C630.844 465.646 625.69 463.519 620.317 463.523Z" fill="white" stroke="white" stroke-width="7"/>
<path d="M625.68 152.096H577.856C576.855 152.096 575.894 151.698 575.186 150.99C574.478 150.282 574.08 149.321 574.08 148.32V100.496C574.08 99.4945 574.478 98.534 575.186 97.8258C575.894 97.1176 576.855 96.7197 577.856 96.7197H625.68C626.681 96.7197 627.642 97.1176 628.35 97.8258C629.058 98.534 629.456 99.4945 629.456 100.496V148.32C629.456 149.321 629.058 150.282 628.35 150.99C627.642 151.698 626.681 152.096 625.68 152.096ZM581.633 144.543H621.903V104.272H581.708L581.633 144.543Z" fill="white" stroke="white" stroke-width="7"/>
<path d="M85.0603 176.008H37.2519C36.2504 176.008 35.2899 175.61 34.5817 174.901C33.8735 174.193 33.4756 173.233 33.4756 172.231V124.408C33.4756 123.406 33.8735 122.446 34.5817 121.737C35.2899 121.029 36.2504 120.631 37.2519 120.631H85.0603C86.0619 120.631 87.0224 121.029 87.7306 121.737C88.4388 122.446 88.8367 123.406 88.8367 124.408V172.231C88.8367 173.233 88.4388 174.193 87.7306 174.901C87.0224 175.61 86.0619 176.008 85.0603 176.008ZM41.0283 168.455H81.284V128.184H41.0283V168.455Z" fill="white" stroke="white" stroke-width="7"/>
<path d="M82.6576 481.256H34.8945C33.893 481.256 32.9324 480.858 32.2242 480.15C31.516 479.442 31.1182 478.481 31.1182 477.48V429.671C31.1182 428.67 31.516 427.709 32.2242 427.001C32.9324 426.293 33.893 425.895 34.8945 425.895H82.7029C83.1994 425.893 83.6913 425.989 84.1504 426.178C84.6095 426.367 85.0266 426.646 85.3776 426.997C85.7287 427.348 86.0068 427.765 86.1958 428.224C86.3849 428.683 86.4812 429.175 86.4792 429.671V477.48C86.4813 477.98 86.3835 478.476 86.1916 478.938C85.9997 479.4 85.7176 479.819 85.3617 480.171C85.0058 480.522 84.5833 480.8 84.119 480.986C83.6547 481.172 83.1578 481.264 82.6576 481.256ZM38.6255 473.703H78.8812V433.448H38.6255V473.703Z" fill="white" stroke="white" stroke-width="7"/>
<path d="M310.809 386.803C303.649 386.803 300.537 381.032 298.045 376.41C295.326 371.38 293.423 368.284 288.846 368.284C287.844 368.284 286.884 367.886 286.175 367.177C285.467 366.469 285.069 365.509 285.069 364.507C285.069 363.506 285.467 362.545 286.175 361.837C286.884 361.129 287.844 360.731 288.846 360.731C298.166 360.731 301.942 367.725 304.691 372.815C307.153 377.347 308.392 379.25 310.809 379.25C311.81 379.25 312.771 379.648 313.479 380.356C314.187 381.064 314.585 382.025 314.585 383.026C314.585 384.028 314.187 384.988 313.479 385.697C312.771 386.405 311.81 386.803 310.809 386.803Z" fill="white" stroke="white" stroke-width="7"/>
<path d="M354.72 386.803C347.56 386.803 344.448 381.032 341.956 376.41C339.161 371.229 337.424 368.284 332.772 368.284C331.77 368.284 330.81 367.886 330.102 367.177C329.393 366.469 328.996 365.509 328.996 364.507C328.996 363.506 329.393 362.545 330.102 361.837C330.81 361.129 331.77 360.731 332.772 360.731C342.077 360.731 345.853 367.725 348.602 372.815C351.064 377.347 352.318 379.25 354.72 379.25C355.722 379.25 356.682 379.648 357.39 380.356C358.098 381.064 358.496 382.025 358.496 383.026C358.496 384.028 358.098 384.988 357.39 385.697C356.682 386.405 355.722 386.803 354.72 386.803Z" fill="white" stroke="white" stroke-width="7"/>
<path d="M310.809 386.803C309.807 386.803 308.847 386.405 308.139 385.697C307.43 384.988 307.032 384.028 307.032 383.026C307.032 382.025 307.43 381.064 308.139 380.356C308.847 379.648 309.807 379.25 310.809 379.25C313.211 379.25 314.464 377.392 316.851 372.815C319.6 367.725 323.376 360.731 332.696 360.731C333.698 360.731 334.658 361.129 335.367 361.837C336.075 362.545 336.473 363.506 336.473 364.507C336.473 365.509 336.075 366.469 335.367 367.177C334.658 367.886 333.698 368.284 332.696 368.284C328.165 368.284 326.216 371.38 323.497 376.41C321.065 381.032 317.954 386.803 310.809 386.803Z" fill="white" stroke="white" stroke-width="7"/>
<path d="M354.72 386.803C353.718 386.803 352.758 386.405 352.049 385.697C351.341 384.988 350.943 384.028 350.943 383.026C350.943 382.025 351.341 381.064 352.049 380.356C352.758 379.648 353.718 379.25 354.72 379.25C357.121 379.25 358.375 377.392 360.762 372.815C363.511 367.725 367.287 360.731 376.607 360.731C377.609 360.731 378.569 361.129 379.278 361.837C379.986 362.545 380.384 363.506 380.384 364.507C380.384 365.509 379.986 366.469 379.278 367.177C378.569 367.886 377.609 368.284 376.607 368.284C372.076 368.284 370.127 371.38 367.408 376.41C364.991 381.032 361.88 386.803 354.72 386.803Z" fill="white" stroke="white" stroke-width="7"/>
<path d="M495.789 234.51C488.629 234.51 485.517 228.74 483.025 224.118C480.23 218.937 478.418 216.006 473.826 216.006C472.824 216.006 471.864 215.608 471.155 214.9C470.447 214.192 470.049 213.231 470.049 212.23C470.049 211.228 470.447 210.268 471.155 209.56C471.864 208.851 472.824 208.453 473.826 208.453C483.146 208.453 486.922 215.432 489.671 220.538C492.133 225.069 493.372 226.973 495.789 226.973C496.79 226.973 497.751 227.37 498.459 228.079C499.167 228.787 499.565 229.747 499.565 230.749C499.565 231.751 499.167 232.711 498.459 233.419C497.751 234.127 496.79 234.525 495.789 234.525V234.51Z" fill="white" stroke="white" stroke-width="7"/>
<path d="M539.7 234.511C532.555 234.511 529.443 228.755 526.936 224.118C524.141 218.937 522.329 216.007 517.752 216.007C516.75 216.007 515.79 215.609 515.082 214.9C514.373 214.192 513.976 213.232 513.976 212.23C513.976 211.229 514.373 210.268 515.082 209.56C515.79 208.852 516.75 208.454 517.752 208.454C527.057 208.454 530.833 215.433 533.582 220.538C536.045 225.07 537.298 226.973 539.7 226.973C540.702 226.973 541.662 227.371 542.37 228.079C543.078 228.787 543.476 229.748 543.476 230.749C543.476 231.751 543.078 232.711 542.37 233.42C541.662 234.128 540.702 234.526 539.7 234.526V234.511Z" fill="white" stroke="white" stroke-width="7"/>
<path d="M495.789 234.511C494.787 234.511 493.827 234.113 493.118 233.404C492.41 232.696 492.012 231.736 492.012 230.734C492.012 229.733 492.41 228.772 493.118 228.064C493.827 227.356 494.787 226.958 495.789 226.958C498.19 226.958 499.444 225.1 501.906 220.523C504.656 215.432 508.432 208.439 517.752 208.439C518.753 208.439 519.714 208.837 520.422 209.545C521.13 210.253 521.528 211.214 521.528 212.215C521.528 213.217 521.13 214.177 520.422 214.885C519.714 215.594 518.753 215.991 517.752 215.991C513.22 215.991 511.272 219.012 508.553 224.103C506.06 228.77 502.949 234.511 495.789 234.511Z" fill="white" stroke="white" stroke-width="7"/>
<path d="M539.7 234.511C538.698 234.511 537.738 234.113 537.029 233.404C536.321 232.696 535.923 231.736 535.923 230.734C535.923 229.733 536.321 228.772 537.029 228.064C537.738 227.356 538.698 226.958 539.7 226.958C542.117 226.958 543.355 225.1 545.817 220.523C548.566 215.432 552.343 208.439 561.663 208.439C562.664 208.439 563.625 208.837 564.333 209.545C565.041 210.253 565.439 211.214 565.439 212.215C565.439 213.217 565.041 214.177 564.333 214.885C563.625 215.594 562.664 215.991 561.663 215.991C557.131 215.991 555.258 218.922 552.464 224.103C549.986 228.77 546.86 234.511 539.7 234.511Z" fill="white" stroke="white" stroke-width="7"/>
<path d="M161.281 216.021C160.279 216.021 159.319 215.624 158.61 214.915C157.902 214.207 157.504 213.247 157.504 212.245C157.504 202.925 164.483 199.149 169.589 196.4C174.12 193.937 176.008 192.684 176.008 190.282C176.008 189.28 176.406 188.32 177.114 187.612C177.823 186.903 178.783 186.506 179.785 186.506C180.786 186.506 181.747 186.903 182.455 187.612C183.163 188.32 183.561 189.28 183.561 190.282C183.561 197.442 177.806 200.554 173.169 203.046C167.988 205.84 165.057 207.653 165.057 212.245C165.057 212.741 164.959 213.232 164.77 213.69C164.58 214.148 164.302 214.565 163.951 214.915C163.6 215.266 163.184 215.544 162.726 215.734C162.268 215.924 161.777 216.021 161.281 216.021Z" fill="white" stroke="white" stroke-width="7"/>
<path d="M161.281 172.095C160.279 172.095 159.319 171.697 158.61 170.989C157.902 170.281 157.504 169.32 157.504 168.319C157.504 158.999 164.483 155.238 169.589 152.488C174.12 150.026 176.008 148.772 176.008 146.446C176.008 145.445 176.406 144.484 177.114 143.776C177.823 143.068 178.783 142.67 179.785 142.67C180.786 142.67 181.747 143.068 182.455 143.776C183.163 144.484 183.561 145.445 183.561 146.446C183.561 153.591 177.806 156.703 173.169 159.21C167.988 162.005 165.057 163.817 165.057 168.394C165.037 169.383 164.631 170.324 163.925 171.016C163.219 171.708 162.269 172.095 161.281 172.095Z" fill="white" stroke="white" stroke-width="7"/>
<path d="M179.785 194.058C178.783 194.058 177.823 193.661 177.114 192.952C176.406 192.244 176.008 191.284 176.008 190.282C176.008 187.865 174.15 186.627 169.589 184.164C164.483 181.415 157.504 177.639 157.504 168.319C157.504 167.317 157.902 166.357 158.61 165.649C159.319 164.94 160.279 164.543 161.281 164.543C162.282 164.543 163.243 164.94 163.951 165.649C164.659 166.357 165.057 167.317 165.057 168.319C165.057 172.851 168.078 174.799 173.169 177.518C177.806 180.01 183.561 183.122 183.561 190.282C183.563 190.779 183.467 191.271 183.278 191.73C183.089 192.189 182.811 192.606 182.459 192.957C182.108 193.308 181.691 193.586 181.232 193.775C180.773 193.964 180.281 194.06 179.785 194.058Z" fill="white" stroke="white" stroke-width="7"/>
<path d="M179.785 150.147C178.783 150.147 177.823 149.749 177.115 149.041C176.407 148.333 176.009 147.372 176.009 146.371C176.009 143.954 174.151 142.715 169.589 140.253C164.483 137.504 157.505 133.728 157.505 124.408C157.505 123.406 157.903 122.446 158.611 121.737C159.319 121.029 160.279 120.631 161.281 120.631C162.283 120.631 163.243 121.029 163.951 121.737C164.659 122.446 165.057 123.406 165.057 124.408C165.057 128.939 168.078 130.888 173.169 133.607C177.806 136.099 183.561 139.211 183.561 146.371C183.563 146.867 183.467 147.359 183.278 147.818C183.089 148.277 182.811 148.695 182.46 149.046C182.109 149.397 181.692 149.675 181.233 149.864C180.773 150.053 180.282 150.149 179.785 150.147Z" fill="white" stroke="white" stroke-width="7"/>
<path d="M526.271 582.976C525.269 582.976 524.309 582.578 523.601 581.87C522.893 581.161 522.495 580.201 522.495 579.199C522.495 569.879 529.488 566.103 534.579 563.354C539.111 560.892 541.014 559.638 541.014 557.236C541.014 556.74 541.111 556.249 541.301 555.791C541.491 555.333 541.769 554.917 542.12 554.566C542.471 554.215 542.887 553.937 543.345 553.747C543.803 553.558 544.294 553.46 544.79 553.46C545.286 553.46 545.777 553.558 546.235 553.747C546.693 553.937 547.11 554.215 547.46 554.566C547.811 554.917 548.089 555.333 548.279 555.791C548.469 556.249 548.566 556.74 548.566 557.236C548.566 564.381 542.796 567.493 538.174 570C533.129 572.719 530.047 574.532 530.047 579.199C530.047 580.201 529.649 581.161 528.941 581.87C528.233 582.578 527.273 582.976 526.271 582.976Z" fill="white" stroke="white" stroke-width="7"/>
<path d="M526.271 539.049C525.269 539.049 524.309 538.651 523.601 537.943C522.893 537.235 522.495 536.275 522.495 535.273C522.495 525.953 529.488 522.192 534.579 519.443C539.111 516.965 541.014 515.727 541.014 513.325C541.014 512.829 541.111 512.338 541.301 511.88C541.491 511.422 541.769 511.005 542.12 510.655C542.471 510.304 542.887 510.026 543.345 509.836C543.803 509.646 544.294 509.549 544.79 509.549C545.286 509.549 545.777 509.646 546.235 509.836C546.693 510.026 547.11 510.304 547.46 510.655C547.811 511.005 548.089 511.422 548.279 511.88C548.469 512.338 548.566 512.829 548.566 513.325C548.566 520.47 542.796 523.581 538.174 526.089C532.978 528.883 530.047 530.621 530.047 535.273C530.047 535.769 529.95 536.26 529.76 536.718C529.57 537.176 529.292 537.593 528.941 537.943C528.591 538.294 528.174 538.572 527.716 538.762C527.258 538.952 526.767 539.049 526.271 539.049Z" fill="white" stroke="white" stroke-width="7"/>
<path d="M544.79 561.013C543.789 561.013 542.828 560.615 542.12 559.906C541.412 559.198 541.014 558.238 541.014 557.236C541.014 554.819 539.156 553.581 534.579 551.194C529.488 548.445 522.495 544.669 522.495 535.349C522.495 534.347 522.893 533.387 523.601 532.678C524.309 531.97 525.269 531.572 526.271 531.572C527.273 531.572 528.233 531.97 528.941 532.678C529.649 533.387 530.047 534.347 530.047 535.349C530.047 539.88 533.068 541.829 538.174 544.548C542.796 547.04 548.566 550.152 548.566 557.312C548.547 558.3 548.14 559.241 547.434 559.933C546.728 560.625 545.779 561.013 544.79 561.013Z" fill="white" stroke="white" stroke-width="7"/>
<path d="M544.79 517.101C543.789 517.101 542.828 516.703 542.12 515.995C541.412 515.287 541.014 514.326 541.014 513.325C541.014 510.908 539.156 509.669 534.579 507.207C529.489 504.458 522.495 500.682 522.495 491.362C522.495 490.36 522.893 489.4 523.601 488.692C524.309 487.983 525.27 487.585 526.271 487.585C527.273 487.585 528.233 487.983 528.942 488.692C529.65 489.4 530.048 490.36 530.048 491.362C530.048 495.893 533.069 497.842 538.174 500.561C542.796 503.053 548.567 506.165 548.567 513.325C548.567 513.821 548.469 514.312 548.279 514.77C548.089 515.228 547.811 515.645 547.461 515.995C547.11 516.346 546.694 516.624 546.236 516.814C545.777 517.004 545.286 517.101 544.79 517.101Z" fill="white" stroke="white" stroke-width="7"/>
<path d="M73.4133 617.567C72.4118 617.567 71.4512 617.169 70.743 616.461C70.0348 615.752 69.637 614.792 69.637 613.79C69.637 604.486 76.6156 600.709 81.7212 597.96C86.2528 595.498 88.141 594.244 88.141 591.842C88.141 590.841 88.5389 589.88 89.2471 589.172C89.9553 588.464 90.9158 588.066 91.9173 588.066C92.9189 588.066 93.8794 588.464 94.5876 589.172C95.2958 589.88 95.6937 590.841 95.6937 591.842C95.6937 598.987 89.9385 602.099 85.3012 604.606C80.1201 607.401 77.1896 609.214 77.1896 613.79C77.1896 614.792 76.7918 615.752 76.0836 616.461C75.3754 617.169 74.4148 617.567 73.4133 617.567Z" fill="white" stroke="white" stroke-width="7"/>
<path d="M73.4134 573.656C72.915 573.656 72.4214 573.557 71.9613 573.365C71.5011 573.174 71.0835 572.893 70.7324 572.539C70.3814 572.185 70.1038 571.765 69.9158 571.303C69.7278 570.842 69.6331 570.347 69.6371 569.849C69.6371 560.529 76.6157 556.768 81.7214 554.019C86.253 551.541 88.1411 550.303 88.1411 547.901C88.1411 546.899 88.539 545.939 89.2472 545.231C89.9554 544.523 90.9159 544.125 91.9175 544.125C92.919 544.125 93.8795 544.523 94.5877 545.231C95.2959 545.939 95.6938 546.899 95.6938 547.901C95.6938 555.046 89.9387 558.158 85.3013 560.665C80.1202 563.459 77.1898 565.197 77.1898 569.849C77.1937 570.347 77.099 570.842 76.911 571.303C76.723 571.765 76.4455 572.185 76.0944 572.539C75.7434 572.893 75.3257 573.174 74.8656 573.365C74.4054 573.557 73.9119 573.656 73.4134 573.656Z" fill="white" stroke="white" stroke-width="7"/>
<path d="M91.9173 595.619C90.9158 595.619 89.9553 595.221 89.2471 594.513C88.5389 593.804 88.141 592.844 88.141 591.842C88.141 589.426 86.283 588.187 81.7212 585.725C76.6156 582.96 69.637 579.199 69.637 569.879C69.637 568.878 70.0348 567.917 70.743 567.209C71.4512 566.501 72.4118 566.103 73.4133 566.103C74.4148 566.103 75.3754 566.501 76.0836 567.209C76.7918 567.917 77.1896 568.878 77.1896 569.879C77.1896 574.411 80.2107 576.359 85.3012 579.078C89.9385 581.571 95.6937 584.682 95.6937 591.842C95.6937 592.844 95.2958 593.804 94.5876 594.513C93.8794 595.221 92.9189 595.619 91.9173 595.619Z" fill="white" stroke="white" stroke-width="7"/>
<path d="M91.9173 551.723C90.9158 551.723 89.9553 551.325 89.2471 550.617C88.5389 549.908 88.141 548.948 88.141 547.946C88.141 545.529 86.283 544.291 81.7212 541.829C76.6156 539.064 69.637 535.303 69.637 525.983C69.637 524.982 70.0348 524.021 70.743 523.313C71.4512 522.605 72.4118 522.207 73.4133 522.207C74.4148 522.207 75.3754 522.605 76.0836 523.313C76.7918 524.021 77.1896 524.982 77.1896 525.983C77.1896 530.515 80.2107 532.463 85.3012 535.182C89.9385 537.675 95.6937 540.786 95.6937 547.946C95.6937 548.442 95.596 548.933 95.4062 549.391C95.2164 549.85 94.9383 550.266 94.5876 550.617C94.2369 550.967 93.8206 551.245 93.3625 551.435C92.9043 551.625 92.4132 551.723 91.9173 551.723Z" fill="white" stroke="white" stroke-width="7"/>
<path d="M417.604 436.076H363.421C362.419 436.076 361.459 435.678 360.751 434.97C360.042 434.262 359.645 433.301 359.645 432.3C359.645 431.298 360.042 430.338 360.751 429.63C361.459 428.921 362.419 428.523 363.421 428.523H417.604C418.605 428.523 419.566 428.921 420.274 429.63C420.982 430.338 421.38 431.298 421.38 432.3C421.38 433.301 420.982 434.262 420.274 434.97C419.566 435.678 418.605 436.076 417.604 436.076Z" fill="white" stroke="white" stroke-width="7"/>
<path d="M421.591 27.6581H367.469C366.467 27.6581 365.507 27.2603 364.798 26.5521C364.09 25.8439 363.692 24.8833 363.692 23.8818C363.692 22.8803 364.09 21.9197 364.798 21.2115C365.507 20.5033 366.467 20.1055 367.469 20.1055H421.591C422.593 20.1055 423.553 20.5033 424.261 21.2115C424.97 21.9197 425.367 22.8803 425.367 23.8818C425.367 24.8833 424.97 25.8439 424.261 26.5521C423.553 27.2603 422.593 27.6581 421.591 27.6581Z" fill="white" stroke="white" stroke-width="7"/>
<path d="M185.949 608.262C184.948 608.259 183.988 607.863 183.275 607.159C182.924 606.808 182.644 606.392 182.454 605.933C182.264 605.474 182.166 604.982 182.166 604.485C182.166 603.989 182.264 603.497 182.454 603.038C182.644 602.579 182.924 602.163 183.275 601.812L221.582 563.505C221.93 563.144 222.346 562.855 222.807 562.657C223.267 562.458 223.763 562.353 224.264 562.348C224.766 562.343 225.263 562.438 225.727 562.627C226.192 562.817 226.614 563.096 226.969 563.45C227.324 563.804 227.605 564.226 227.795 564.69C227.986 565.153 228.082 565.65 228.078 566.152C228.075 566.653 227.971 567.149 227.774 567.61C227.577 568.071 227.29 568.488 226.93 568.837L188.562 607.159C187.868 607.854 186.93 608.249 185.949 608.262Z" fill="white" stroke="white" stroke-width="7"/>
<g opacity="0.3">
<path opacity="0.3" d="M282.622 145.389L315.567 88.2155L348.602 145.344L282.622 145.389ZM315.567 91.2365L285.266 143.879H346.019L315.567 91.2365Z" fill="white" stroke="white" stroke-width="7"/>
<path opacity="0.3" d="M230.207 480.728L263.152 423.554L296.217 480.728H230.207ZM263.167 426.575L232.775 479.217H293.529L263.167 426.575Z" fill="white" stroke="white" stroke-width="7"/>
<path opacity="0.3" d="M412 583.671L444.945 526.497L477.98 583.625L412 583.671ZM444.945 529.518L414.613 582.16H475.367L444.945 529.518Z" fill="white" stroke="white" stroke-width="7"/>
<path opacity="0.3" d="M557.54 376.894L510.849 330.263L574.564 313.149L557.54 376.894ZM513.734 331.049L556.724 373.978L572.404 315.279L513.734 331.049Z" fill="white" stroke="white" stroke-width="7"/>
<path opacity="0.3" d="M36.5561 21.5253L-10.1345 -25.1502L53.5949 -42.2797L36.5561 21.5253ZM-7.2494 -24.3194L35.7706 18.5042L51.5104 -40.1347L-7.2494 -24.3194Z" fill="white" stroke="white" stroke-width="7"/>
<path opacity="0.3" d="M569.276 40.7846V-25.1956L626.435 7.74918L569.276 40.7846ZM570.787 -22.5823V38.1713L623.384 7.74918L570.787 -22.5823Z" fill="white" stroke="white" stroke-width="7"/>
<path opacity="0.3" d="M-6.2373 357.317V291.337L50.9364 324.282L-6.2373 357.317ZM-4.72677 293.95V354.704L47.87 324.282L-4.72677 293.95Z" fill="white" stroke="white" stroke-width="7"/>
<path opacity="0.3" d="M360.974 313.058C356.067 313.061 351.27 311.609 347.189 308.885C343.107 306.16 339.926 302.287 338.047 297.754C336.168 293.221 335.675 288.233 336.632 283.42C337.588 278.608 339.951 274.187 343.421 270.717C346.89 267.247 351.311 264.885 356.124 263.928C360.937 262.972 365.925 263.464 370.458 265.343C374.99 267.222 378.864 270.404 381.588 274.485C384.312 278.566 385.765 283.364 385.762 288.27C385.754 294.842 383.14 301.142 378.493 305.789C373.846 310.436 367.546 313.05 360.974 313.058ZM360.974 264.978C356.367 264.975 351.862 266.339 348.029 268.896C344.197 271.454 341.209 275.091 339.444 279.346C337.679 283.602 337.215 288.286 338.112 292.805C339.009 297.325 341.226 301.476 344.483 304.735C347.74 307.994 351.891 310.214 356.409 311.114C360.928 312.014 365.612 311.554 369.869 309.791C374.126 308.029 377.765 305.043 380.325 301.213C382.885 297.382 384.251 292.878 384.251 288.27C384.247 282.097 381.794 276.177 377.43 271.81C373.066 267.443 367.148 264.986 360.974 264.978Z" fill="white" stroke="white" stroke-width="7"/>
<path opacity="0.3" d="M239.527 44.8177C234.62 44.8207 229.824 43.3686 225.743 40.645C221.662 37.9215 218.48 34.0488 216.601 29.5169C214.721 24.985 214.228 19.9975 215.183 15.1852C216.139 10.3729 218.5 5.95203 221.968 2.48177C225.436 -0.988503 229.855 -3.35226 234.667 -4.31051C239.479 -5.26876 244.467 -4.77846 249 -2.90163C253.533 -1.0248 257.407 2.15425 260.133 6.2334C262.859 10.3126 264.314 15.1086 264.314 20.0148C264.306 26.5879 261.693 32.8897 257.046 37.5389C252.4 42.1882 246.1 44.8057 239.527 44.8177ZM239.527 -3.26257C234.919 -3.26555 230.413 -1.90163 226.58 0.656625C222.748 3.21488 219.76 6.85251 217.995 11.1093C216.23 15.366 215.768 20.0506 216.666 24.5703C217.564 29.09 219.783 33.2417 223.041 36.5001C226.3 39.7585 230.451 41.9772 234.971 42.8755C239.491 43.7737 244.175 43.3112 248.432 41.5464C252.689 39.7815 256.326 36.7938 258.885 32.961C261.443 29.1283 262.807 24.6229 262.804 20.0148C262.792 13.8449 260.336 7.93119 255.973 3.56844C251.61 -0.79431 245.696 -3.25059 239.527 -3.26257Z" fill="white" stroke="white" stroke-width="7"/>
<path opacity="0.3" d="M200.162 324.327H198.652C198.731 321.219 198.187 318.127 197.053 315.233C195.918 312.339 194.216 309.701 192.046 307.475C189.875 305.249 187.282 303.48 184.417 302.272C181.553 301.064 178.476 300.441 175.367 300.441C172.258 300.441 169.181 301.064 166.316 302.272C163.452 303.48 160.858 305.249 158.688 307.475C156.518 309.701 154.816 312.339 153.681 315.233C152.547 318.127 152.003 321.219 152.082 324.327H150.572C150.49 321.019 151.071 317.729 152.28 314.649C153.49 311.569 155.303 308.763 157.614 306.394C159.924 304.026 162.685 302.144 165.734 300.859C168.783 299.574 172.058 298.912 175.367 298.912C178.676 298.912 181.951 299.574 185 300.859C188.049 302.144 190.81 304.026 193.12 306.394C195.431 308.763 197.244 311.569 198.454 314.649C199.663 317.729 200.244 321.019 200.162 324.327Z" fill="white" stroke="white" stroke-width="7"/>
<path opacity="0.3" d="M504.354 169.271C497.808 169.271 491.53 166.67 486.901 162.041C482.272 157.413 479.672 151.135 479.672 144.588C479.672 138.042 482.272 131.764 486.901 127.136C491.53 122.507 497.808 119.906 504.354 119.906V121.417C498.208 121.417 492.314 123.858 487.969 128.204C483.623 132.549 481.182 138.443 481.182 144.588C481.182 150.734 483.623 156.628 487.969 160.973C492.314 165.319 498.208 167.76 504.354 167.76V169.271Z" fill="white" stroke="white" stroke-width="7"/>
<path opacity="0.3" d="M120.286 193.152H70.9668V143.879H120.286V193.152ZM72.4773 191.642H118.775V145.389H72.4773V191.642Z" fill="white" stroke="white" stroke-width="7"/>
<path opacity="0.3" d="M117.883 498.416H68.5645V449.097H117.883V498.416ZM70.075 496.905H116.373V450.608H70.075V496.905Z" fill="white" stroke="white" stroke-width="7"/>
<g opacity="0.3">
<path opacity="0.3" d="M345.265 403.962C339.917 403.962 337.5 399.431 335.159 395.156C332.591 390.383 329.933 385.443 323.317 385.443V383.933C330.869 383.933 333.89 389.522 336.488 394.431C338.815 398.736 340.824 402.452 345.265 402.452V403.962Z" fill="white" stroke="white" stroke-width="7"/>
<path opacity="0.3" d="M389.191 403.962C383.828 403.962 381.411 399.431 379.085 395.156C376.502 390.383 373.844 385.443 367.228 385.443V383.933C374.78 383.933 377.801 389.522 380.414 394.431C382.726 398.736 384.735 402.452 389.191 402.452V403.962Z" fill="white" stroke="white" stroke-width="7"/>
<path opacity="0.3" d="M345.264 403.962V402.452C349.72 402.452 351.729 398.736 354.056 394.431C356.699 389.522 359.72 383.933 367.227 383.933V385.443C360.611 385.443 357.953 390.383 355.385 395.156C353.044 399.476 350.596 403.962 345.264 403.962Z" fill="white" stroke="white" stroke-width="7"/>
<path opacity="0.3" d="M389.191 403.962V402.452C393.632 402.452 395.641 398.736 397.967 394.431C400.61 389.522 403.631 383.933 411.139 383.933V385.443C404.523 385.443 401.864 390.383 399.296 395.156C396.955 399.476 394.538 403.962 389.191 403.962Z" fill="white" stroke="white" stroke-width="7"/>
</g>
<g opacity="0.3">
<path opacity="0.3" d="M530.26 251.685C524.897 251.685 522.481 247.154 520.154 242.879C517.571 238.106 514.913 233.181 508.297 233.181V231.671C515.849 231.671 518.87 237.245 521.468 242.154C523.795 246.459 525.804 250.175 530.26 250.175V251.685Z" fill="white" stroke="white" stroke-width="7"/>
<path opacity="0.3" d="M574.156 251.685C568.793 251.685 566.377 247.154 564.05 242.879C561.467 238.106 558.809 233.181 552.193 233.181V231.671C559.745 231.671 562.766 237.245 565.38 242.154C567.691 246.459 569.7 250.175 574.156 250.175V251.685Z" fill="white" stroke="white" stroke-width="7"/>
<path opacity="0.3" d="M530.26 251.685V250.175C534.701 250.175 536.71 246.459 539.036 242.154C541.679 237.245 544.7 231.671 552.208 231.671V233.181C545.592 233.181 542.933 238.106 540.365 242.879C538.024 247.214 535.607 251.685 530.26 251.685Z" fill="white" stroke="white" stroke-width="7"/>
<path opacity="0.3" d="M574.156 251.685V250.175C578.597 250.175 580.606 246.459 582.932 242.154C585.591 237.245 588.597 231.671 596.104 231.671V233.181C589.503 233.181 586.829 238.106 584.261 242.879C581.935 247.214 579.518 251.685 574.156 251.685Z" fill="white" stroke="white" stroke-width="7"/>
</g>
<g opacity="0.3">
<path opacity="0.3" d="M331.156 2.70403H329.646C329.646 -4.84863 335.219 -7.8697 340.144 -10.4678C344.434 -12.794 348.15 -14.803 348.15 -19.244H349.66C349.66 -13.8967 345.128 -11.4799 340.854 -9.13856C336.08 -6.57065 331.156 -3.897 331.156 2.70403Z" fill="white" stroke="white" stroke-width="7"/>
</g>
<g opacity="0.3">
<path opacity="0.3" d="M196.522 232.426H195.011C195.011 224.873 200.585 221.852 205.509 219.239C209.799 216.913 213.515 214.919 213.515 210.463H215.026C215.026 215.81 210.494 218.227 206.219 220.568C201.431 223.136 196.522 225.81 196.522 232.426Z" fill="white" stroke="white" stroke-width="7"/>
<path opacity="0.3" d="M196.522 188.5H195.011C195.011 180.947 200.585 177.926 205.494 175.328C209.799 173.002 213.515 170.993 213.515 166.552H215.026C215.026 171.899 210.494 174.316 206.219 176.657C201.431 179.225 196.522 181.884 196.522 188.5Z" fill="white" stroke="white" stroke-width="7"/>
<path opacity="0.3" d="M215.011 210.463H213.501C213.501 205.931 209.785 204.013 205.495 201.687C200.57 199.028 194.997 196.022 194.997 188.5H196.507C196.507 195.116 201.431 197.774 206.205 200.357C210.54 202.699 215.011 205.116 215.011 210.463Z" fill="white" stroke="white" stroke-width="7"/>
<path opacity="0.3" d="M215.011 166.537H213.501C213.501 162.08 209.785 160.071 205.495 157.76C200.571 155.102 194.997 152.096 194.997 144.573H196.507C196.507 151.19 201.432 153.848 206.205 156.431C210.54 158.772 215.011 161.189 215.011 166.537Z" fill="white" stroke="white" stroke-width="7"/>
</g>
<g opacity="0.3">
<path opacity="0.3" d="M561.497 599.365H559.987C559.987 591.812 565.56 588.791 570.56 586.193C574.85 583.867 578.566 581.858 578.566 577.417H580.077C580.077 582.764 575.545 585.181 571.27 587.522C566.421 590.09 561.497 592.764 561.497 599.365Z" fill="white" stroke="white" stroke-width="7"/>
<path opacity="0.3" d="M561.497 555.454H559.987C559.987 547.901 565.56 544.88 570.56 542.282C574.85 539.956 578.566 537.947 578.566 533.506H580.077C580.077 538.853 575.545 541.27 571.27 543.611C566.421 546.179 561.497 548.838 561.497 555.454Z" fill="white" stroke="white" stroke-width="7"/>
<path opacity="0.3" d="M580.001 577.402H578.491C578.491 572.946 574.775 570.937 570.485 568.626C565.561 565.967 559.911 562.961 559.911 555.439H561.422C561.422 562.055 566.346 564.713 571.12 567.296C575.53 569.653 580.001 572.054 580.001 577.402Z" fill="white" stroke="white" stroke-width="7"/>
<path opacity="0.3" d="M580.002 533.506H578.492C578.492 529.05 574.776 527.041 570.486 524.729C565.561 522.071 559.912 519.065 559.912 511.542H561.423C561.423 518.159 566.347 520.817 571.12 523.4C575.531 525.726 580.002 528.143 580.002 533.506Z" fill="white" stroke="white" stroke-width="7"/>
</g>
<g opacity="0.3">
<path opacity="0.3" d="M108.624 590.06H107.113C107.113 582.507 112.702 579.486 117.611 576.888C121.917 574.562 125.632 572.553 125.632 568.112H127.143C127.143 573.459 122.611 575.876 118.337 578.218C113.563 580.785 108.624 583.444 108.624 590.06Z" fill="white" stroke="white" stroke-width="7"/>
<path opacity="0.3" d="M127.143 612.023H125.632C125.632 607.567 121.917 605.558 117.611 603.247C112.687 600.589 107.113 597.583 107.113 590.06H108.624C108.624 596.676 113.563 599.335 118.337 601.918C122.657 604.244 127.143 606.676 127.143 612.023Z" fill="white" stroke="white" stroke-width="7"/>
<path opacity="0.3" d="M127.144 568.112H125.633C125.633 563.58 121.917 561.647 117.612 559.336C112.703 556.677 107.114 553.656 107.114 546.149H108.625C108.625 552.765 113.564 555.424 118.337 558.007C122.657 560.333 127.144 562.75 127.144 568.112Z" fill="white" stroke="white" stroke-width="7"/>
</g>
<path opacity="0.3" d="M452.074 451.725H397.891V453.236H452.074V451.725Z" fill="white" stroke="white" stroke-width="7"/>
<path opacity="0.3" d="M456.123 43.3073H401.94V44.8178H456.123V43.3073Z" fill="white" stroke="white" stroke-width="7"/>
<path opacity="0.3" d="M258.155 585.826L219.842 624.139L220.91 625.207L259.223 586.894L258.155 585.826Z" fill="white" stroke="white" stroke-width="7"/>
</g>
<path d="M319.071 565.816C316.766 565.822 314.499 565.226 312.494 564.088C310.489 562.949 308.816 561.307 307.641 559.323C306.465 557.34 305.827 555.084 305.791 552.779C305.754 550.474 306.32 548.199 307.432 546.179C308.544 544.159 310.164 542.465 312.131 541.263C314.099 540.061 316.346 539.394 318.651 539.327C320.955 539.26 323.237 539.795 325.272 540.88C327.306 541.965 329.022 543.563 330.249 545.514C331.178 546.988 331.807 548.63 332.101 550.347C332.395 552.064 332.347 553.822 331.962 555.521C331.576 557.22 330.859 558.826 329.853 560.247C328.846 561.669 327.569 562.879 326.095 563.807C323.99 565.125 321.555 565.821 319.071 565.816ZM319.026 546.874C317.957 546.877 316.91 547.181 316.005 547.75C315.055 548.351 314.304 549.219 313.847 550.246C313.39 551.273 313.247 552.412 313.436 553.52C313.625 554.628 314.137 555.655 314.909 556.472C315.681 557.29 316.677 557.86 317.772 558.112C318.868 558.358 320.013 558.273 321.06 557.869C322.108 557.465 323.013 556.759 323.659 555.841C324.306 554.922 324.666 553.833 324.694 552.71C324.721 551.587 324.415 550.481 323.815 549.532C323.418 548.9 322.901 548.353 322.291 547.923C321.682 547.492 320.993 547.187 320.265 547.025C319.859 546.927 319.443 546.876 319.026 546.874Z" fill="white" stroke="white" stroke-width="7"/>
<path d="M244.466 305.37C243.45 305.375 242.436 305.263 241.445 305.037C238.453 304.358 235.789 302.661 233.907 300.237C232.025 297.813 231.042 294.812 231.126 291.744C231.209 288.677 232.354 285.733 234.364 283.415C236.375 281.097 239.127 279.547 242.152 279.031C245.177 278.515 248.287 279.063 250.953 280.583C253.618 282.103 255.675 284.501 256.771 287.367C257.867 290.233 257.935 293.39 256.964 296.301C255.993 299.212 254.043 301.696 251.445 303.33C249.356 304.651 246.938 305.357 244.466 305.37ZM244.421 286.427C243.352 286.431 242.305 286.734 241.4 287.304C240.603 287.801 239.941 288.488 239.474 289.304C239.007 290.119 238.749 291.037 238.723 291.976C238.697 292.916 238.904 293.847 239.325 294.687C239.746 295.527 240.368 296.249 241.137 296.79C241.905 297.331 242.795 297.674 243.728 297.787C244.661 297.901 245.607 297.782 246.482 297.441C247.358 297.1 248.136 296.547 248.746 295.833C249.356 295.118 249.78 294.264 249.98 293.346C250.147 292.617 250.169 291.862 250.044 291.124C249.919 290.387 249.649 289.681 249.25 289.048C248.852 288.415 248.332 287.867 247.721 287.436C247.11 287.004 246.42 286.697 245.69 286.533C245.272 286.453 244.847 286.418 244.421 286.427Z" fill="white" stroke="white" stroke-width="7"/>
<path d="M0.257784 87.4601C-2.93974 87.4703 -6.03332 86.325 -8.45328 84.235C-10.8732 82.145 -12.4567 79.2511 -12.912 76.0861C-13.3672 72.9212 -12.6638 69.6983 -10.9311 67.0109C-9.19835 64.3235 -6.55306 62.3526 -3.48232 61.4611C-0.411571 60.5696 2.87789 60.8175 5.78033 62.1592C8.68277 63.5009 11.0028 65.846 12.3131 68.7627C13.6235 71.6794 13.836 74.9713 12.9114 78.0323C11.9869 81.0933 9.98763 83.7172 7.28176 85.4209C5.17954 86.7493 2.74455 87.4562 0.257784 87.4601ZM0.152035 68.518C-1.23937 68.5333 -2.57701 69.0576 -3.6083 69.9918C-4.63959 70.9259 -5.29316 72.2054 -5.4456 73.5885C-5.59804 74.9716 -5.2388 76.3627 -4.43571 77.499C-3.63263 78.6354 -2.44128 79.4384 -1.08661 79.7564C0.383008 80.0903 1.92507 79.8297 3.20332 79.0313C4.15318 78.4304 4.90399 77.5619 5.36118 76.5351C5.81837 75.5084 5.96148 74.3692 5.77251 73.2613C5.58355 72.1533 5.07094 71.126 4.29925 70.3089C3.52756 69.4917 2.53133 68.9211 1.436 68.6691C1.01572 68.5668 0.584562 68.5161 0.152035 68.518Z" fill="white" stroke="white" stroke-width="7"/>
<path d="M521.044 82.7471C518.803 82.7474 516.597 82.1796 514.635 81.0965C512.672 80.0135 511.016 78.4506 509.821 76.5539C508.425 74.3366 507.717 71.7549 507.788 69.1355C507.859 66.516 508.705 63.9764 510.22 61.8379C511.734 59.6994 513.849 58.0581 516.296 57.1216C518.743 56.1851 521.414 55.9955 523.969 56.5767C526.524 57.1579 528.849 58.4838 530.651 60.3868C532.452 62.2897 533.649 64.6842 534.089 67.2674C534.53 69.8505 534.194 72.5063 533.125 74.8987C532.056 77.2911 530.302 79.3128 528.083 80.7079C525.976 82.0383 523.536 82.7453 521.044 82.7471ZM521.014 63.8201C520.135 63.8224 519.269 64.0285 518.483 64.4224C517.698 64.8162 517.014 65.3869 516.487 66.0896C515.959 66.7924 515.602 67.608 515.443 68.4723C515.284 69.3365 515.328 70.2259 515.571 71.0704C515.814 71.9149 516.249 72.6915 516.843 73.3391C517.437 73.9866 518.174 74.4875 518.994 74.8024C519.814 75.1172 520.697 75.2373 521.572 75.1533C522.446 75.0693 523.29 74.7835 524.035 74.3183C524.671 73.9243 525.221 73.4073 525.654 72.7978C526.087 72.1882 526.395 71.4984 526.558 70.7686C526.725 70.0395 526.747 69.2845 526.622 68.547C526.497 67.8095 526.227 67.104 525.828 66.471C525.43 65.838 524.91 65.2899 524.299 64.8583C523.688 64.4268 522.998 64.1201 522.268 63.9561C521.856 63.8671 521.436 63.8216 521.014 63.8201Z" fill="white" stroke="white" stroke-width="7"/>
</g>
<defs>
<clipPath id="clip0">
<rect width="600" height="600" fill="white"/>
</clipPath>
</defs>
</svg>
