<svg xmlns="http://www.w3.org/2000/svg" id="art" width="475.734" height="288.708"><defs><clipPath id="clippath"><circle cx="247.508" cy="150.841" r="50.26" style="stroke-width:0;fill:none"/></clipPath><style>.cls-4,.cls-5,.cls-6,.cls-7,.cls-8{stroke-width:0}.cls-12,.cls-13{fill:none}.cls-12{stroke-linecap:round;stroke-linejoin:round;stroke:#2f1d4a}.cls-13{stroke:#2f1d4a;stroke-miterlimit:10}.cls-12,.cls-13{stroke-width:.5491px}.cls-4{fill:#feb919}.cls-5{fill:#2f1d4a}.cls-6{fill:#c678d6}.cls-7{fill:#fff}.cls-8{fill:#d37d01}</style></defs><path id="Pink_Shape" d="m55.225 226.417 329.716 47.996 68.865-77.212-57.387-173.205L88.614 55.298l-61.56 66.778z" data-name="Pink Shape" style="stroke-width:0;fill:#fca9cb"/><path id="Sparkle" d="m365.616 64.93 5.93-18.124-3.745 18.17 11.363 1.781-12.183.814-6.054 13.93 3.606-14.502-12.213-3.023zm-24.301 163.544-.694 7.999-1.908-8.003-6.289-1.219 6.017-1.489.528-10.773 1.947 10.332 5.886-.384zM117.554 134.17l.052 11.85-2.714-11.38-11.851 2.61 11.694-5.43-1.462-13.626 3.394 13.104 10.807-1.096z" class="cls-7"/><path id="Shine" d="m195.584 173.299-14.068 9.053 15.296-4.524-13.784 10.933 16.85-7.356m97.52-3.872 8.153 5.096-5.387-8.202 20.043 9.463-18.053-13.927m.57-31.709 28.004-8.48-29.022 4.407 6.15-3.9-7.795-.72 32.14-8.756-34.088 4.035 10.112-5.723-12.363 1.712m-21.659-19.16 12.481-17.412-7.858 19.183 5.624-3.775-1.926 6.395 3.544-1.849-.81 4.907M250.776 95.3l3.371-18.583.777 18.902 2.211-5.632.767 5.95m-42.358 9.881L203.229 87.96l8.903 19.458-6.93-7.677 4.158 9.596-4.478-3.732 1.76 6.877m-13.258 22.952-26.63-1.01 25.22 7.041-33.493 2.83 32.788 3.593m124.373-49.493 13.865-9.545m-38.296 26.533 18.662-13.017m-43.183-3.912 14.238-43.13m-35.106 39.192.558-41.315m-8.733 42.187-5.723-23.309m-19.905 9.126-11.183-24.634m20.666 44.793L215.2 88.211m13.978 9.785-12.694-36.21m111.139 100.791 17.11 6.761m-40.52-15.732 18.508 7.033m39.886-21.242 21.326-2.203m-49.816 5.145 15.923-1.645m-45.917 4.742 23.759-2.454m-141.731-37.037-16.337-12.436m32.029 24.851-9.799-7.928m-37.16-10.767-10.637-5.724m32.804 17.653-13.602-7.32m35.418 18.942-14.666-7.775m-19.798 4.364-7.834-2.325m39.165 11.61-25.614-7.589m-13.16 38.321-9.134 1.142m25.533-3.192-10.348 1.293m28.439-3.803-12.291 1.784m-41.856 18.364-7.183 1.986m30.563-8.453-17.099 4.729m48.403-13.471-24.606 6.89m4.607 6.654-24.459 9.491m45.586-17.667-13.101 5.062m143.29 1.774 23.098 12.441m-42.973-23.095 12.295 6.57" style="fill:none;stroke-linecap:round;stroke-linejoin:round;stroke:#fff;stroke-width:1.328px"/><g id="Crystal_Ball" data-name="Crystal Ball"><ellipse cx="247.711" cy="186.786" class="cls-8" rx="40.209" ry="5.658"/><path d="m287.914 186.94-2.466 9.32-8.222 2.17-18.12-.279-4.138-13.31 29.92 1.286z" class="cls-8"/><path d="m201.253 217.4-.78-.549s-4.744 2.833-4.37 7.404c5.867 2.616 15.79-.157 15.79-.157s.297-4.961-4.024-9.698c1.87-7.854 15.859-13.839 19.308-13.963s-18.047-4.772-18.047-4.772-10.824 6.152-10.264 17.606c6.716 4.897 6.963 7.772 6.963 7.772s-3.555.452-4.503-.092c-.815-.467-.247-3.013-.073-3.55Z" class="cls-4"/><path d="M234.542 200.51s10.884 3.408 11.245 24.148c2.455.972 4.586-.243 4.586-.243s-2.18-17.39 11.095-24.054c-12.118-2.788-26.926.15-26.926.15Z" class="cls-8"/><path d="M197.532 220.319c-.197-.025-1.706 2.284-1.14 4.216 1.107.527 2.961 1.074 4.177 1.024-2.548-1.499-2.41-5.097-3.037-5.24m1.441-6.882c1.7 1.458 5.728 3.668 7.317 7.77.445-1.89-1.719-6.353-4.029-7.81-2.74-1.73-3.425-.285-3.288.04m7.371-15.838s-.777 2.01 2.08 3.617c1.688.95 6.48 2.836 9.603 2.66 2.168-.98 8.84-3.589 8.84-3.589l-18.428-4.38zm35.202 9.41s2.211 1.093 5.488 1.164c2.01.044 4.33-.084 7.234-1.247 1.741-1.622 4.87-5.814 4.87-5.814l-20.68 1.727z" class="cls-5"/><path d="m201.458 217.4-.78-.549s-4.744 2.833-4.37 7.404c5.867 2.616 15.79-.157 15.79-.157s.298-4.961-4.024-9.698c1.87-7.854 15.86-13.839 19.308-13.963s-18.046-4.772-18.046-4.772-10.824 6.152-10.265 17.606c6.716 4.897 6.963 7.772 6.963 7.772s-3.555.452-4.502-.092c-.815-.467-.247-3.013-.074-3.55Z" class="cls-13"/><path d="m292.41 217.36.781-.55s4.744 2.833 4.37 7.404c-5.867 2.616-15.79-.157-15.79-.157s-.298-4.96 4.024-9.698c-1.87-7.854-15.86-13.838-19.308-13.963s18.046-4.772 18.046-4.772 10.824 6.153 10.265 17.607c-6.716 4.896-6.963 7.772-6.963 7.772s3.554.452 4.502-.092c.815-.468.247-3.013.074-3.551Z" class="cls-4"/><path d="M296.282 220.18c.198-.025 1.707 2.284 1.14 4.216-1.106.527-2.96 1.074-4.176 1.024 2.547-1.499 2.41-5.097 3.036-5.24m-1.446-6.743c-1.701 1.458-5.728 3.668-7.317 7.77-.445-1.89 1.718-6.353 4.028-7.81 2.74-1.73 3.426-.285 3.289.04m-7.057-15.326s-.47 1.719-3.326 3.327c-1.689.95-5.359 2.836-8.482 2.66-2.167-.98-9.03-3.81-9.03-3.81l18.429-4.381z" class="cls-5"/><path d="m292.35 217.4.781-.549s4.744 2.833 4.37 7.404c-5.868 2.616-15.79-.157-15.79-.157s-.298-4.961 4.023-9.698c-1.87-7.854-15.859-13.839-19.308-13.963s18.047-4.772 18.047-4.772 10.824 6.152 10.265 17.606c-6.716 4.897-6.963 7.772-6.963 7.772s3.554.452 4.502-.092c.815-.467.247-3.013.073-3.55Z" class="cls-13"/><path d="M285.475 196.111c0 3-17.28 5.43-38.594 5.43s-38.609-2.431-38.609-5.43 17.294-5.43 38.609-5.43 38.594 2.43 38.594 5.43" class="cls-8"/><path d="m207.5 186.584.775 9.554 10.01 2.293 18.12-.28 4.139-13.31-29.92 1.286z" class="cls-8"/><path d="M234.542 200.51s10.842 3.45 11.203 24.19c2.455.971 4.628-.285 4.628-.285s-2.18-17.39 11.096-24.054c-12.12-2.788-26.927.15-26.927.15Z" class="cls-13"/><path d="M207.501 186.786c0-3.125 18.003-5.658 40.21-5.658s40.236 2.466 40.107 6.123" class="cls-12"/><circle cx="247.508" cy="150.841" r="50.26" style="fill:#a834b5;stroke-width:0"/><path d="m246.688 121.978-28.417 44a1.348 1.348 0 0 0 1.132 2.079h54.848a1.348 1.348 0 0 0 1.155-2.042l-26.43-44a1.348 1.348 0 0 0-2.288-.037" class="cls-7"/><path d="m246.512 155.607-.795-21.939h4.292l-1.271 21.94zm-.052 2.7h2.304v3.429h-2.304z" class="cls-5"/><g style="clip-path:url(#clippath)"><path d="M295.312 137.503s.098 4.898-4.692 8.269c-3.06 2.153-27.345 8.66-28.178 15.5-.342 2.806 8.565-2.56 11.595-1.13 1.947.92-3.647 3.3-2.432 4.888 1.274 1.666 3.745-.236 4.114 1.274 1.176 4.8-29.614 9.6-33.17 22.996-1.307 4.92 23.416-9.253 24.236-5.812s-13.455 6.368-11.816 9.974 15.166 4.914 15.166 4.914l18.846-13.602 12.618-23.926-3.113-24.745zm-11.327-21.811s-10.871 4.656-10.485 7.288c.252 1.716 7.949-1.983 8.606-1.49s-3.15 1.898-2.57 2.819c.685 1.085 4.127-1.829 4.354.458s-15.838 8.927-14.41 11.468c1.427 2.54 12.662-5.192 13.483-3.549s-2.167 2.868-.23 3.708c2.21.957 8.655-5.756 10.778-3.848s-.034-5.114-.034-5.114l-7.2-9.67zm-74.908 66.853s1.577 2.347 4.655 2.933c4.07.773 23.19-12.688 26.09-11.188s-15.395 9.021-11.993 11.294c2.116 1.414 3.573.83 5.386 1.167 4.32.803-10.675 6.233-4.875 10.243 1.749 1.21-19.084-5.749-19.084-5.749zm59.19-74.798c-2.261 1.043-10.568 5.89-8.006 7.142 3.317 1.621 8.023-5.332 11.887-3.552 1.835.846-2.782 2.623-1.055 3.24 2.245.803 7.219-3.298 7.47-3.179s-6.92-4.984-6.92-4.984-.867.176-3.376 1.333m-65.311 53.463c2.678-2.922 6.402-7.762 8.372-6.676s-2.727 4.234-2.922 4.42c-3.171 3.012-3.856 4.695-2.736 4.91 1.548.298 4.276-2.245 5.098-.913.706 1.144-3.328 4.047-4.997 5.1s-4.16 4.102-4.16 4.102l-1.777-4.292-1.183-6.672s1.626 2.942 4.304.02m28.715-54.789c-1.894.663-8.382 4.162-8.07 5.02.312.86 6.249-1.677 7.85-2.34 2.39-.992 8.31-2.737 8.154-3.596-.156-.858-4.883-.152-7.934.916" class="cls-6"/><path d="M222.069 108.51s-10.389 7.234-5.618 8.235 17.755-3.829 23.316-6.156c2.847-1.192 10.4-2.852 10.554-.928s-3.425 3.953-8.168 5.468c-4.874 1.557-6.557 2.92-5.403 3.228s3.635-.067 3.558.857-4.744 3.36-16.01 5.533c-8.208 1.585-17.908 5.134-18.213 7.064-.305 1.931 6.33-1.167 7.193-.162 1.241 1.445-7.342 5.488-8.891 6.532-2.743 1.848-2.402 2.527-2.36 2.907.103.923 1.651.664 1.651 1.579s-6.637 3.065-6.637 6.927.204-14.734.204-14.734l10.263-20.425z" class="cls-6"/></g><circle cx="247.508" cy="150.841" r="50.26" style="fill:none;stroke-width:.664px;stroke:#2f1d4a;stroke-miterlimit:10"/><path d="M247.737 192.432c-21.866 0-39.646-2.454-40.215-5.512l.745 9.17v.012l.002.02h.002c.107 2.986 17.355 7.812 38.604 7.812 23.455 0 38.035-4.764 38.569-7.698l2.382-8.99c-1.723 2.905-19.007 5.186-40.09 5.186Z" class="cls-4"/><path d="M247.737 192.432c-21.866 0-39.646-2.454-40.215-5.512l.745 9.17v.012l.002.02h.002c.107 2.986 17.355 7.812 38.604 7.812 23.455 0 38.035-4.764 38.569-7.698l2.382-8.99c-4.514 3.186-19.007 5.186-40.09 5.186Z" class="cls-12"/><path d="m258.89 196.186-2.174 1.313a.569.569 0 0 0 .112 1.026l3.423 1.157c.443.15.526.74.141 1.007l-2.48 1.717c-.494.342-.189 1.117.406 1.03l6.504-.463 7.366-1.265-2.121-1.584a.57.57 0 0 1 .05-.945l.897-.532a.569.569 0 0 0-.085-1.02l-2.495-.963a.57.57 0 0 1-.208-.922l1.814-1.913a.57.57 0 0 0-.26-.939l-3.785-1.05a.6.6 0 0 0-.202-.018l-9 .79a.569.569 0 0 0-.264 1.041l2.38 1.572a.57.57 0 0 1-.02.961Z" class="cls-5"/></g></svg>