<svg width="99" height="112" viewBox="0 0 99 112" fill="none" xmlns="http://www.w3.org/2000/svg">
<g clip-path="url(#clip0_147_15832)">
<path d="M96.76 28.4706L87.6167 23.0294L87.497 23.0969L49.8891 1.14197L1.8399 29.1705L49.1797 56.1235L96.76 28.4706ZM77.5553 29.1073L49.2743 45.3044L21.6411 28.467L49.1482 13.3847L59.253 7.42944V19.079L77.5553 29.1073Z" fill="white"/>
<path d="M11.1328 78.1336L21.7342 71.862L49.219 88.8341L78.3828 72.297L86.9279 78.2582L49.2821 100.405L11.1328 78.1336Z" fill="white"/>
<path opacity="0.35" d="M11.1112 45.5164L11.0962 78.1942L21.0168 72.2502L21.1294 51.4005L11.1112 45.5164Z" fill="#B19CD1"/>
<path opacity="0.35" d="M21.6867 71.878C22.7645 71.2291 39.132 61.9977 39.132 61.9977V73.2914L31.3029 77.8886L21.6867 71.878Z" fill="#B19CD1"/>
<path opacity="0.35" d="M21.7028 28.4989L31.114 34.0034L39.1481 29.7383L39.0535 18.6107L21.7028 28.4989Z" fill="#B19CD1"/>
<path d="M11.1112 78.1472L11.3695 45.8186L39.1833 61.9105L39.1005 83.3195L49.2783 89.6199V56.053L1.84975 29.1921L1.82808 84.4623L49.1896 111.19L49.2211 100.371L11.1112 78.1472Z" fill="#B19CD1"/>
<path d="M77.5964 29.1682L67.6293 34.7358L59.2962 30.3162L59.2463 19.1246L77.5964 29.1682Z" fill="#B19CD1"/>
<path d="M67.76 78.7961C68.1896 78.5087 77.2762 72.9107 77.2762 72.9107L59.2474 62.0929L59.1528 73.5764L67.76 78.7961Z" fill="#B19CD1"/>
<path d="M77.6439 51.3521C78.0735 51.0647 86.9965 45.9921 86.9965 45.9921L86.978 78.2727L77.6912 72.8481L77.6439 51.3521Z" fill="#B19CD1"/>
<path opacity="0.35" d="M49.2837 13.2166L59.185 7.49776L59.3767 39.5132L49.2856 45.2965L49.2837 13.2166Z" fill="#B19CD1"/>
<path d="M49.2623 45.2254L49.1034 13.355L39.1298 7.5155L39.0845 39.4105L49.2623 45.2254Z" fill="#B19CD1"/>
<path opacity="0.35" d="M49.2686 89.552L49.3396 56.0506L96.0224 29.0991L96.5195 84.3519L49.3475 111.348L49.2844 100.34L86.9787 78.4804L86.9967 45.9928L59.2474 62.0533L59.271 83.6205L49.2686 89.552Z" fill="#B19CD1"/>
<path d="M30.8524 56.1924L21.119 61.4701L21.0874 72.0995L39.768 61.4069L30.8524 56.1924Z" fill="white"/>
<path d="M69.1132 56.359L59.2211 62.079L77.3184 72.9377L78.3116 72.2892L78.4534 62.0237L69.1132 56.359Z" fill="white"/>
<path d="M2.45433 77.9328C2.36864 77.9328 2.29932 77.8632 2.29932 77.7772V28.5777C2.29932 28.5223 2.32868 28.4709 2.37651 28.4432L8.78448 24.7168C8.85805 24.6738 8.95311 24.6985 8.99642 24.7734C9.03942 24.8477 9.01397 24.9428 8.94012 24.9859L2.60935 28.6674V77.7772C2.60935 77.8632 2.54002 77.9328 2.45433 77.9328Z" fill="#2F1D4A"/>
<path d="M37.3221 103.671C37.2963 103.671 37.27 103.665 37.2461 103.651L2.37834 83.9899C2.32961 83.9626 2.29932 83.9106 2.29932 83.8544V80.1027C2.29932 80.0167 2.36864 79.9471 2.45433 79.9471C2.54002 79.9471 2.60935 80.0167 2.60935 80.1027V83.7633L37.398 103.38C37.4725 103.422 37.4992 103.517 37.4571 103.592C37.4286 103.643 37.3762 103.671 37.3221 103.671Z" fill="#2F1D4A"/>
<path d="M49.9111 110.77C49.8851 110.77 49.8588 110.763 49.8351 110.75L39.824 105.105C39.7495 105.063 39.7228 104.968 39.7649 104.893C39.8067 104.818 39.9015 104.791 39.976 104.834L49.9108 110.436L91.0043 87.1257C91.0785 87.0835 91.1732 87.1093 91.2156 87.1847C91.2577 87.2594 91.2314 87.3545 91.1569 87.3967L49.9874 110.75C49.9638 110.763 49.9375 110.77 49.9111 110.77Z" fill="#2F1D4A"/>
<path d="M93.4159 86.0921C93.3621 86.0921 93.3094 86.0639 93.2809 86.0132C93.2389 85.9384 93.2652 85.8433 93.3397 85.8011L96.9311 83.7639L96.6577 28.6675L84.195 21.3417C84.1212 21.2982 84.0963 21.2028 84.1397 21.1287C84.1832 21.0544 84.2774 21.0298 84.3519 21.0731L96.8908 28.4437C96.938 28.4715 96.9671 28.5222 96.9674 28.5772L97.2414 83.8536C97.2417 83.9101 97.2115 83.962 97.1627 83.99L93.4923 86.0721C93.4681 86.0858 93.442 86.0921 93.4159 86.0921Z" fill="#2F1D4A"/>
<path d="M81.9499 19.997C81.9232 19.997 81.8963 19.9902 81.8715 19.9757L77.7027 17.5252C77.6288 17.4818 77.604 17.3864 77.6473 17.3123C77.6909 17.238 77.7854 17.2132 77.8596 17.2567L82.0283 19.7072C82.1022 19.7506 82.127 19.846 82.0837 19.9201C82.0546 19.9695 82.0029 19.997 81.9499 19.997Z" fill="#2F1D4A"/>
<path d="M75.7704 16.3649C75.7437 16.3649 75.7168 16.3581 75.692 16.3436L68.8259 12.3079C68.752 12.2644 68.7272 12.169 68.7705 12.0949C68.8135 12.0204 68.9085 11.9962 68.9827 12.0393L75.8488 16.0751C75.9227 16.1185 75.9475 16.2139 75.9042 16.2881C75.8754 16.3374 75.8233 16.3649 75.7704 16.3649Z" fill="#2F1D4A"/>
<path d="M65.8642 10.5417C65.8376 10.5417 65.8106 10.5349 65.7858 10.5204L49.8874 1.17492L47.5022 2.56202C47.4286 2.6047 47.3333 2.58009 47.2903 2.50537C47.2473 2.43108 47.2727 2.33602 47.3466 2.29287L49.8099 0.860359C49.8583 0.832425 49.9177 0.832425 49.9661 0.86067L65.9426 10.252C66.0165 10.2954 66.0413 10.3908 65.998 10.4649C65.9689 10.5143 65.9172 10.5417 65.8642 10.5417Z" fill="#2F1D4A"/>
<path d="M11.2484 23.6199C11.1951 23.6199 11.1431 23.5921 11.1143 23.5423C11.0713 23.468 11.0967 23.3729 11.1706 23.3298L45.537 3.34545C45.6102 3.30262 45.7056 3.32723 45.7489 3.4021C45.7919 3.47639 45.7664 3.57145 45.6926 3.6146L11.3262 23.5989C11.3017 23.6132 11.2751 23.6199 11.2484 23.6199Z" fill="#2F1D4A"/>
<path d="M34.3399 46.7734C34.3138 46.7734 34.2878 46.767 34.2639 46.7533L2.37839 28.7136C2.30361 28.6713 2.27726 28.5766 2.31936 28.5016C2.36115 28.4263 2.45683 28.4005 2.5304 28.4426L34.4159 46.4823C34.4907 46.5246 34.517 46.6194 34.4749 46.6941C34.4465 46.7448 34.3937 46.7734 34.3399 46.7734Z" fill="#2F1D4A"/>
<path d="M49.9114 55.5832C49.8851 55.5832 49.8591 55.5766 49.8354 55.5632L37.4933 48.5803C37.4185 48.5381 37.3922 48.4433 37.4343 48.3686C37.4766 48.2932 37.5714 48.2671 37.6453 48.3093L49.9108 55.2487L96.5988 28.443C96.6717 28.4005 96.7674 28.4257 96.8101 28.5007C96.8528 28.5753 96.827 28.6704 96.7526 28.7131L49.9884 55.5625C49.9647 55.5762 49.9381 55.5832 49.9114 55.5832Z" fill="#2F1D4A"/>
<path d="M39.7204 82.9474C39.6348 82.9474 39.5654 82.8778 39.5654 82.7919V77.5166C39.5654 77.4306 39.6348 77.3611 39.7204 77.3611C39.8061 77.3611 39.8755 77.4306 39.8755 77.5166V82.7919C39.8755 82.8778 39.8061 82.9474 39.7204 82.9474Z" fill="#2F1D4A"/>
<path d="M39.7204 75.3942C39.6347 75.3942 39.5653 75.3246 39.5653 75.2386V61.4321L18.9384 49.2655C18.8645 49.222 18.8397 49.1266 18.8833 49.0528C18.9266 48.9781 19.0223 48.9544 19.0952 48.9975L39.7988 61.2092C39.8463 61.2371 39.8754 61.2882 39.8754 61.3432V75.2387C39.8754 75.3246 39.8061 75.3942 39.7204 75.3942Z" fill="#2F1D4A"/>
<path d="M22.7876 84.1121C22.7612 84.1121 22.7343 84.1054 22.7101 84.0911L11.645 77.6685C11.5968 77.6408 11.5675 77.5895 11.5675 77.5339V44.8297C11.5675 44.7738 11.5971 44.7225 11.6456 44.6948C11.6941 44.6672 11.7531 44.6672 11.8009 44.6957L15.1156 46.6506C15.1895 46.694 15.2143 46.7894 15.1707 46.8633C15.1274 46.938 15.0317 46.962 14.9587 46.9185L11.8775 45.1016V77.4443L22.8651 83.822C22.9393 83.8648 22.9647 83.9602 22.9217 84.0343C22.8929 84.0842 22.8409 84.1121 22.7876 84.1121Z" fill="#2F1D4A"/>
<path d="M49.9115 99.8563C49.8846 99.8563 49.8579 99.8493 49.834 99.8353L25.7434 85.8517C25.6692 85.8089 25.6438 85.7135 25.6868 85.6394C25.7298 85.5653 25.8255 85.5394 25.8984 85.5826L49.9115 99.5212L70.0686 87.8242C70.1415 87.7808 70.2372 87.8066 70.2802 87.881C70.3232 87.9552 70.2977 88.0505 70.2236 88.0934L49.989 99.8353C49.9651 99.8493 49.9384 99.8563 49.9115 99.8563Z" fill="#2F1D4A"/>
<path d="M73.9653 85.8984C73.912 85.8984 73.8599 85.8705 73.8311 85.8206C73.7881 85.7465 73.8136 85.6511 73.8878 85.6083L87.4824 77.7192C87.4824 67.2346 87.4579 47.8642 87.368 45.5066C86.6641 45.9334 83.8438 47.6012 72.2849 54.3695C72.2111 54.413 72.116 54.3878 72.073 54.3136C72.0297 54.2395 72.0548 54.1441 72.1287 54.101C84.5217 46.8438 87.2769 45.211 87.4059 45.1189C87.4504 45.0743 87.5039 45.0743 87.5612 45.098C87.7032 45.1569 87.7413 45.1727 87.7755 61.5459C87.7925 69.681 87.7925 77.8088 87.7925 77.8088C87.7925 77.8644 87.7631 77.9158 87.715 77.9434L74.0428 85.8774C74.0186 85.8917 73.9916 85.8984 73.9653 85.8984Z" fill="#2F1D4A"/>
<path d="M59.865 65.6824C59.7793 65.6824 59.71 65.6129 59.71 65.5269V61.4562C59.71 61.4009 59.7394 61.3495 59.7869 61.3219C59.7869 61.3219 63.1306 59.367 67.4916 56.8149C67.5649 56.7712 67.6603 56.7964 67.7036 56.8708C67.7469 56.9449 67.7217 57.0403 67.6479 57.0835C63.6729 59.4099 60.5429 61.2399 60.0201 61.5455V65.5269C60.0201 65.6129 59.9507 65.6824 59.865 65.6824Z" fill="#2F1D4A"/>
<path d="M59.865 83.1857C59.7793 83.1857 59.71 83.1161 59.71 83.0301V67.9313C59.71 67.8453 59.7793 67.7758 59.865 67.7758C59.9507 67.7758 60.0201 67.8453 60.0201 67.9313V83.0301C60.0201 83.1161 59.9507 83.1857 59.865 83.1857Z" fill="#2F1D4A"/>
<path d="M49.9108 89.0947C49.883 89.0947 49.8554 89.0871 49.8306 89.0722L21.6049 71.9556C21.5583 71.9274 21.5298 71.8767 21.5301 71.822L21.604 50.7769C21.6043 50.6909 21.6782 50.6116 21.7596 50.6219C21.8453 50.6222 21.9143 50.6921 21.914 50.7781L21.8405 71.7351L49.9124 88.7584L78.1562 72.2227V50.6824C78.1562 50.5964 78.2256 50.5269 78.3113 50.5269C78.397 50.5269 78.4663 50.5964 78.4663 50.6824V72.312C78.4663 72.3673 78.4369 72.4183 78.3894 72.4463L49.989 89.0735C49.9648 89.0877 49.9378 89.0947 49.9108 89.0947Z" fill="#2F1D4A"/>
<path d="M37.4628 19.456C37.4096 19.456 37.3575 19.4282 37.3287 19.3785C37.2857 19.3041 37.3112 19.209 37.385 19.1659L39.6418 17.8529C39.7151 17.8101 39.8105 17.8348 39.8538 17.9094C39.8968 17.9838 39.8713 18.0789 39.7975 18.1221L37.5407 19.435C37.5161 19.4493 37.4895 19.456 37.4628 19.456Z" fill="#2F1D4A"/>
<path d="M49.9108 44.7635C49.8845 44.7635 49.8585 44.7568 49.8349 44.7435L21.4414 28.7132C21.393 28.6859 21.3627 28.6346 21.3624 28.5788C21.3621 28.5229 21.3915 28.4713 21.4396 28.4432L35.9438 20.0042C36.0173 19.9612 36.1124 19.9862 36.1557 20.0606C36.1987 20.1351 36.1733 20.2301 36.0994 20.2733L21.8299 28.5758L49.9108 44.4297L77.9937 28.5785L67.4303 22.6801C67.3555 22.6383 67.3285 22.5435 67.3703 22.4685C67.4118 22.3931 67.5065 22.3664 67.581 22.4082L78.3866 28.4419C78.4357 28.4694 78.4663 28.5211 78.4663 28.5775C78.4663 28.6337 78.4363 28.6858 78.3872 28.7133L49.9868 44.7435C49.9632 44.7569 49.9372 44.7635 49.9108 44.7635Z" fill="#2F1D4A"/>
<path d="M64.5838 21.0974C64.5584 21.0974 64.5329 21.0912 64.509 21.0781L60.0451 18.617C59.9703 18.5757 59.9428 18.4812 59.9839 18.4059C60.0254 18.3302 60.1193 18.3037 60.1947 18.3445L64.6586 20.8056C64.7334 20.8469 64.7609 20.9414 64.7198 21.0168C64.6916 21.0682 64.6383 21.0974 64.5838 21.0974Z" fill="#2F1D4A"/>
<path d="M49.8994 12.8997C49.873 12.8997 49.8461 12.893 49.8219 12.8787L39.7172 7.01443C39.643 6.97144 39.6175 6.87638 39.6605 6.80194C39.7035 6.72765 39.7992 6.7023 39.8722 6.74529L49.9769 12.6096C50.0511 12.6526 50.0765 12.7477 50.0335 12.8221C50.0047 12.8719 49.9527 12.8997 49.8994 12.8997Z" fill="#2F1D4A"/>
<path d="M21.9164 61.3363C21.8622 61.3363 21.8095 61.3077 21.781 61.257C21.7392 61.182 21.7659 61.0872 21.8404 61.045L30.7522 56.0273C30.8276 55.9857 30.9214 56.0118 30.9635 56.0869C31.0053 56.1619 30.9786 56.2567 30.9042 56.2989L21.9923 61.3165C21.9681 61.3299 21.9421 61.3363 21.9164 61.3363Z" fill="#2F1D4A"/>
<path d="M11.7225 77.6888C11.6689 77.6888 11.6169 77.6609 11.5881 77.6108C11.5454 77.5363 11.5711 77.4413 11.6453 77.3984L30.869 66.2996C30.942 66.2567 31.0376 66.282 31.0806 66.357C31.1233 66.4314 31.0976 66.5265 31.0234 66.5693L11.7997 77.6682C11.7755 77.6822 11.7489 77.6888 11.7225 77.6888Z" fill="#2F1D4A"/>
<path d="M32.7992 65.5201C32.7456 65.5201 32.6936 65.4922 32.6648 65.442C32.6221 65.3676 32.6478 65.2725 32.722 65.2297L39.619 61.2476C39.6922 61.2051 39.7876 61.2303 39.8306 61.3051C39.8733 61.3795 39.8476 61.4746 39.7734 61.5174L32.8764 65.4994C32.8522 65.5134 32.8255 65.5201 32.7992 65.5201Z" fill="#2F1D4A"/>
<path d="M31.3016 77.7671C31.2483 77.7671 31.1963 77.7392 31.1675 77.6893C31.1245 77.6152 31.1499 77.5201 31.2241 77.477L38.9564 72.9861C39.0287 72.9433 39.1247 72.9679 39.168 73.0429C39.211 73.117 39.1855 73.2121 39.1114 73.2552L31.3791 77.7461C31.3549 77.7604 31.3282 77.7671 31.3016 77.7671Z" fill="#2F1D4A"/>
<path d="M68.3415 78.2873C68.3145 78.2873 68.287 78.2804 68.2621 78.2655L59.8105 73.2254C59.7369 73.1816 59.7127 73.0859 59.7566 73.0121C59.8005 72.9383 59.8956 72.914 59.9692 72.9581L68.4208 77.9982C68.4944 78.0419 68.5186 78.1376 68.4747 78.2114C68.4456 78.2603 68.3942 78.2873 68.3415 78.2873Z" fill="#2F1D4A"/>
<path d="M78.1852 62.0035C78.1579 62.0035 78.1303 61.9962 78.1052 61.9813L69.636 56.8729C69.5628 56.8285 69.5388 56.7331 69.5831 56.6593C69.6273 56.5855 69.7229 56.563 69.7959 56.6061L78.2651 61.7146C78.3383 61.759 78.362 61.8544 78.3181 61.9282C78.289 61.9768 78.2375 62.0035 78.1852 62.0035Z" fill="#2F1D4A"/>
<path d="M49.911 89.0214C49.8253 89.0214 49.756 88.9519 49.756 88.8659V55.4277C49.756 55.3418 49.8253 55.2722 49.911 55.2722C49.9967 55.2722 50.066 55.3418 50.066 55.4277V88.8659C50.066 88.9519 49.9967 89.0214 49.911 89.0214Z" fill="#2F1D4A"/>
<path d="M49.911 44.5426C49.8253 44.5426 49.756 44.4731 49.756 44.3871V34.9284C49.756 34.8424 49.8253 34.7728 49.911 34.7728C49.9967 34.7728 50.066 34.8424 50.066 34.9284V44.3871C50.066 44.4731 49.9967 44.5426 49.911 44.5426Z" fill="#2F1D4A"/>
<path d="M49.911 31.9994C49.8253 31.9994 49.756 31.9299 49.756 31.8439V12.7521C49.756 12.6961 49.786 12.6444 49.8347 12.6168L59.8728 6.91453C59.9461 6.87216 60.0414 6.89814 60.0841 6.97317C60.1262 7.04805 60.0999 7.14283 60.0254 7.1852L50.066 12.8428V31.8439C50.066 31.9299 49.9967 31.9994 49.911 31.9994Z" fill="#2F1D4A"/>
<path d="M87.6072 77.9411C87.5806 77.9411 87.5536 77.9341 87.5288 77.9199L73.4358 69.6459C73.3619 69.6025 73.3371 69.5071 73.3804 69.4329C73.4234 69.3588 73.5184 69.3342 73.5926 69.3774L87.6856 77.6513C87.7595 77.6947 87.7844 77.7901 87.741 77.8643C87.7123 77.9135 87.6602 77.9411 87.6072 77.9411Z" fill="#2F1D4A"/>
<path d="M71.6387 68.5656C71.6121 68.5656 71.5851 68.5586 71.5603 68.5443L59.8201 61.6517C59.7462 61.6083 59.7213 61.5129 59.7647 61.4387C59.808 61.3646 59.9024 61.34 59.9769 61.3832L71.7172 68.2758C71.791 68.3192 71.8159 68.4146 71.7726 68.4887C71.7438 68.5379 71.6917 68.5656 71.6387 68.5656Z" fill="#2F1D4A"/>
<path d="M59.9736 39.0933C59.8879 39.0933 59.8186 39.0238 59.8186 38.9379L59.795 7.06174C59.795 6.97576 59.8643 6.90604 59.95 6.90604C60.0357 6.90604 60.105 6.9756 60.105 7.06143L60.1286 38.9376C60.1286 39.0236 60.0593 39.0933 59.9736 39.0933Z" fill="#2F1D4A"/>
<path d="M39.7204 38.9746C39.6348 38.9746 39.5654 38.905 39.5654 38.819V6.93096C39.5654 6.84498 39.6348 6.77542 39.7204 6.77542C39.8061 6.77542 39.8755 6.84498 39.8755 6.93096V38.819C39.8755 38.905 39.8061 38.9746 39.7204 38.9746Z" fill="#2F1D4A"/>
<path d="M49.911 110.689C49.8253 110.689 49.756 110.619 49.756 110.533V99.7484C49.756 99.6625 49.8253 99.5929 49.911 99.5929C49.9967 99.5929 50.066 99.6625 50.066 99.7484V110.533C50.066 110.619 49.9967 110.689 49.911 110.689Z" fill="#2F1D4A"/>
<path d="M31.0652 34.0873C31.011 34.0873 30.958 34.0585 30.9295 34.0073C30.8881 33.9323 30.915 33.8376 30.9898 33.7959L39.6443 28.9716C39.7184 28.9298 39.8135 28.9567 39.8553 29.032C39.8968 29.107 39.8698 29.2017 39.7951 29.2435L31.1406 34.0677C31.1167 34.0811 31.0909 34.0873 31.0652 34.0873Z" fill="#2F1D4A"/>
<path d="M68.3796 34.2297C68.3548 34.2297 68.3297 34.2238 68.3066 34.2114L59.8965 29.6994C59.8208 29.6588 59.7923 29.5646 59.8326 29.4888C59.8734 29.4127 59.9682 29.3848 60.0424 29.425L68.4526 33.937C68.5282 33.9776 68.5567 34.0717 68.5165 34.1475C68.4883 34.2 68.4347 34.2297 68.3796 34.2297Z" fill="#2F1D4A"/>
<path d="M51.6505 77.8875L51.3709 78.3292L50.8468 77.6764L50.5583 77.3306L45.2633 70.9574L44.1242 70.4028L44.2234 69.8492C44.2234 69.8492 44.7622 68.8737 44.8209 68.7662C44.8794 68.6619 45.0249 68.5961 45.1791 68.6871C45.3299 68.781 46.3088 69.3533 46.4789 69.4769C46.6488 69.6036 46.6389 69.7213 46.583 69.9071C46.5271 70.0928 46.3312 70.5383 46.3312 70.5383L48.1362 73.0282L48.7077 73.8223L50.9141 76.8704L51.6505 77.8875Z" fill="#FFE4B7"/>
<path d="M51.0057 76.8969L50.7261 77.3385L50.202 76.6857L49.9135 76.3399L50.2692 75.8797L51.0057 76.8969Z" fill="#F6B969"/>
<path d="M51.6506 78.0425C51.6028 78.0425 51.5556 78.0203 51.5253 77.9783L48.5842 73.9146C48.534 73.845 48.5491 73.7478 48.6185 73.6974C48.6875 73.6473 48.7847 73.6621 48.8349 73.7317L51.776 77.7955C51.8262 77.865 51.8111 77.9623 51.7417 78.0127C51.7142 78.0327 51.6824 78.0425 51.6506 78.0425Z" fill="#2F1D4A"/>
<path d="M50.8463 77.8332C50.8021 77.8332 50.7579 77.8141 50.7273 77.7773L45.1659 71.0834L44.0556 70.5414C43.9932 70.511 43.9584 70.4427 43.9709 70.374L44.0705 69.8214C44.0735 69.8047 44.0792 69.7883 44.0874 69.7734C44.0874 69.7734 44.6281 68.7971 44.6869 68.6917C44.7393 68.5978 44.8289 68.5285 44.9324 68.5012C45.0408 68.4723 45.1562 68.4918 45.2588 68.5544C45.2973 68.5781 45.389 68.6324 45.5068 68.7023C45.9785 68.9821 46.4493 69.2628 46.5716 69.3527C46.829 69.5417 46.7896 69.7613 46.7321 69.9524C46.6891 70.0967 46.5698 70.378 46.5092 70.518L48.2604 72.938C48.3106 73.0076 48.2955 73.1048 48.2262 73.1552C48.1571 73.2056 48.0602 73.1908 48.0097 73.1209L46.2061 70.6286C46.1734 70.5836 46.1674 70.5247 46.1898 70.474C46.1919 70.4697 46.3833 70.0368 46.4353 69.8627C46.4859 69.6936 46.4738 69.6665 46.3884 69.6036C46.2682 69.5152 45.6702 69.1607 45.349 68.9699C45.2294 68.8992 45.1365 68.8442 45.0977 68.8202C45.0662 68.801 45.0363 68.7949 45.0115 68.8019C44.9888 68.8077 44.9688 68.8235 44.9576 68.8436C44.904 68.9393 44.4523 69.7555 44.3711 69.9023L44.2969 70.3133L45.3315 70.8185C45.3512 70.8279 45.3687 70.8416 45.3826 70.8586L50.9653 77.578C51.0201 77.644 51.0113 77.7421 50.9456 77.7971C50.9165 77.8214 50.8814 77.8332 50.8463 77.8332Z" fill="#2F1D4A"/>
<path d="M44.9577 70.9638C44.9395 70.9638 44.921 70.9605 44.9029 70.9538C44.8226 70.9234 44.7824 70.8335 44.8127 70.7533L44.948 70.3946L44.1529 69.9872C44.0766 69.948 44.0463 69.8544 44.0854 69.7779C44.1245 69.7013 44.2177 69.6715 44.294 69.7101L45.2126 70.1807C45.2829 70.2168 45.3149 70.3001 45.2871 70.3742L45.1027 70.8633C45.0791 70.9256 45.0204 70.9638 44.9577 70.9638Z" fill="#2F1D4A"/>
<path d="M45.9975 70.1541H45.996L45.3278 70.148C45.253 70.1474 45.1895 70.0933 45.1767 70.0192L45.1092 69.6331C45.0956 69.5559 45.1416 69.4806 45.2164 69.4575L46.1762 69.1634C46.2594 69.1388 46.3448 69.185 46.3699 69.2667C46.3948 69.349 46.3487 69.4359 46.267 69.4611L45.4383 69.7148L45.4598 69.8381L45.999 69.843C46.0844 69.8439 46.1534 69.9141 46.1525 70C46.1516 70.0854 46.0826 70.1541 45.9975 70.1541Z" fill="#2F1D4A"/>
<path d="M45.1416 70.4751C45.1152 70.4751 45.0886 70.4684 45.0644 70.4545C44.9902 70.4116 44.9644 70.3165 45.0071 70.2421L45.1667 69.9636L45.154 69.8916L44.4552 69.3949C44.3852 69.3451 44.3689 69.2481 44.4183 69.178C44.4682 69.1078 44.5651 69.0923 44.6344 69.1409L45.3853 69.6747C45.4186 69.6984 45.4413 69.7345 45.4483 69.7749L45.4816 69.9654C45.4879 70.0012 45.4816 70.038 45.4634 70.0696L45.276 70.3971C45.2472 70.4472 45.1952 70.4751 45.1416 70.4751Z" fill="#2F1D4A"/>
<path d="M45.6605 69.6393C45.6248 69.6393 45.589 69.6272 45.56 69.6023L44.7216 68.8863C44.6565 68.8307 44.6486 68.7322 44.7041 68.6669C44.7595 68.6013 44.8579 68.594 44.9227 68.6493L45.761 69.3653C45.8261 69.4209 45.834 69.5194 45.7786 69.5847C45.748 69.6208 45.7044 69.6393 45.6605 69.6393Z" fill="#2F1D4A"/>
<path opacity="0.5" d="M51.3696 92.7739C52.3643 92.5321 53.1247 92.1456 53.068 91.9107C53.0113 91.6758 52.1589 91.6814 51.1642 91.9232C50.1694 92.165 49.409 92.5515 49.4657 92.7864C49.5225 93.0213 50.3748 93.0157 51.3696 92.7739Z" fill="#B19CD1"/>
<path d="M52.1327 84.0472L50.7965 87.4444L52.7065 91.8654C52.7065 91.8654 49.9598 92.7813 49.7656 92.5174C49.4846 92.1354 51.2998 90.9266 51.2998 90.9266L49.8349 87.4286L51.5474 83.6498L52.1327 84.0472Z" fill="#FFE4B7"/>
<path d="M52.0833 83.6127L51.4564 85.8922L50.7391 85.4809L51.5532 83.6972L52.0833 83.6127Z" fill="#F6B969"/>
<path d="M49.9213 92.7712C49.8063 92.7712 49.7218 92.7542 49.6761 92.7165C49.5855 92.6424 49.5401 92.5379 49.5477 92.4218C49.5798 91.9366 50.6682 91.196 51.0824 90.9311L49.6909 87.5032C49.6742 87.4625 49.6758 87.4169 49.6945 87.3774L51.5489 83.4941C51.5859 83.4164 51.6791 83.3842 51.7557 83.4209C51.8329 83.4579 51.8656 83.5509 51.8287 83.6284L50.004 87.4497L51.4185 90.9348C51.4472 91.0053 51.4209 91.086 51.3564 91.1259C50.6482 91.5636 49.8738 92.1915 49.8571 92.4425C49.8559 92.4574 49.858 92.464 49.8723 92.4756C50.0539 92.5375 51.3407 92.1769 52.4812 91.7908L50.6225 87.5229C50.6058 87.4849 50.6052 87.4421 50.6204 87.4035L52.0119 83.8717C52.0431 83.7918 52.1336 83.7523 52.2129 83.7842C52.2925 83.8158 52.3316 83.9061 52.3001 83.9859L50.9322 87.4576L52.8327 91.8212C52.8499 91.861 52.8499 91.9063 52.8327 91.9461C52.8151 91.9859 52.7821 92.0166 52.7412 92.0305C51.7061 92.3881 50.4687 92.7712 49.9213 92.7712Z" fill="#2F1D4A"/>
<path opacity="0.5" d="M57.3411 93.3115C58.2068 92.7637 58.8045 92.1539 58.676 91.9494C58.5475 91.745 57.7415 92.0233 56.8757 92.5711C56.01 93.1189 55.4123 93.7287 55.5408 93.9332C55.6693 94.1376 56.4753 93.8593 57.3411 93.3115Z" fill="#B19CD1"/>
<path d="M55.2875 84.7973L55.1021 88.4448L58.3187 92.0226C58.3187 92.0226 56.0071 93.7704 55.7393 93.5825C55.3514 93.3106 56.687 91.5836 56.687 91.5836L54.1858 88.7378L54.6064 84.6082L55.2875 84.7973Z" fill="#FFE4B7"/>
<path d="M55.1028 84.4007L55.234 86.7618L54.4234 86.6018L54.6273 84.6506L55.1028 84.4007Z" fill="#F6B969"/>
<path d="M55.7841 93.8104C55.7586 93.8104 55.7365 93.8068 55.7177 93.7998C55.6081 93.7585 55.5318 93.6737 55.5022 93.5616C55.3783 93.0914 56.174 92.0409 56.4822 91.6572L54.0728 88.8544C54.0443 88.8213 54.031 88.7776 54.0365 88.7342L54.5584 84.4596C54.569 84.3742 54.6471 84.3128 54.731 84.3241C54.8161 84.3344 54.8766 84.4122 54.866 84.4972L54.3526 88.7035L56.8022 91.553C56.8516 91.6104 56.8525 91.6955 56.804 91.7538C56.2721 92.3957 55.7377 93.239 55.8019 93.4821C55.8058 93.4967 55.8098 93.5021 55.8267 93.5088C56.019 93.5057 57.1232 92.7554 58.0814 92.0239L54.9621 88.5744C54.9342 88.5437 54.92 88.5033 54.9221 88.462L55.1171 84.6695C55.1213 84.5838 55.181 84.5103 55.2797 84.5222C55.3654 84.5265 55.4311 84.5997 55.4265 84.6853L55.2348 88.4134L58.4241 91.9401C58.4532 91.9723 58.4677 92.0151 58.4638 92.0582C58.4599 92.1017 58.4384 92.1412 58.4038 92.1679C57.4162 92.9313 56.191 93.8101 55.7841 93.8104Z" fill="#2F1D4A"/>
<path d="M61.0097 83.62C60.9471 83.5015 60.4007 82.4543 59.6791 81.0705L59.3699 80.4776C57.8695 77.6003 55.8581 73.7423 55.6688 73.3844C55.3698 72.819 55.0283 72.8559 54.6804 73.2223C54.5524 73.3571 53.6022 74.3341 52.4448 75.5262C52.5081 75.8346 52.575 76.1996 52.6347 76.606L51.4845 76.5159C51.121 76.8906 50.7537 77.2697 50.3988 77.6364L49.9388 78.112C49.739 78.3188 49.5458 78.5189 49.3626 78.709C49.4001 78.8843 49.4361 79.0882 49.4678 79.3066L48.8003 79.2754C48.2557 79.8435 47.7983 80.3443 47.7646 80.3944C47.6178 80.6131 47.685 80.7511 47.8012 80.8342C47.8424 80.8637 48.7433 81.5037 49.8968 82.3206L50.7563 82.3515C50.7151 82.5118 50.6693 82.6719 50.6185 82.8314C51.305 83.3172 52.0321 83.8308 52.6945 84.2973L53.5629 84.6435L53.4912 84.8574C54.3591 85.4662 54.9894 85.9031 55.0441 85.9268C55.2315 86.0081 55.4754 86.0595 55.7307 85.996C55.8995 85.954 57.8566 85.3242 59.2862 84.8578L60.1836 84.5635C60.4724 84.4681 60.6795 84.3986 60.7568 84.3707C61.1812 84.2172 61.2041 83.9875 61.0097 83.62Z" fill="#B29DD2"/>
<path d="M51.7697 78.6201C51.8693 79.6654 51.6717 81.6536 51.4014 82.5815L52.2636 83.1865C52.4501 82.4396 52.7471 80.4783 52.851 79.535L51.7697 78.6201Z" fill="#8274A7"/>
<path d="M54.6946 83.8514L53.5373 84.6388L52.7387 84.328C52.9133 83.6599 53.3298 81.5 53.5056 80.2037L54.6206 81.2097L54.6946 83.8514Z" fill="#8274A7"/>
<path d="M53.477 80.2322L53.4625 80.3223L54.6278 81.3482L54.4589 74.1591L53.1935 75.5116C53.378 76.4608 53.5772 77.8534 53.5324 79.3231C53.5232 79.625 53.5039 79.9295 53.477 80.2322Z" fill="#8274A7"/>
<path d="M54.6724 83.3955L54.7193 84.9091L53.1537 83.9402L54.6724 83.3955Z" fill="#8274A7"/>
<path d="M51.4841 76.5162C51.5759 77.0047 51.7594 78.8337 51.7594 78.8337L52.81 79.7574C52.8138 79.6814 52.8169 79.6054 52.8192 79.5295C52.8515 78.4681 52.7582 77.4485 52.6343 76.6063L51.4841 76.5162Z" fill="#8274A7"/>
<path d="M50.1478 80.6809C50.1758 80.0081 50.1246 79.3691 50.0475 78.8762L50.3889 78.513L50.961 77.8944L51.0697 79.1143C51.1066 80.0982 51.0441 81.2295 50.7557 82.3517L49.8963 82.3209C49.9966 81.9771 50.0632 81.6176 50.1037 81.2585C50.1037 81.2585 50.1435 80.8038 50.1478 80.6809Z" fill="#8274A7"/>
<path d="M48.7999 79.2753L48.9238 80.0715L48.4868 80.5364L49.4708 81.2267C49.5321 80.9126 49.5636 80.605 49.5559 80.3085C49.5464 79.9457 49.5128 79.6056 49.4686 79.3021L48.7999 79.2753Z" fill="#8274A7"/>
<path d="M55.3815 82.1745C55.2983 82.1745 55.2296 82.1083 55.2265 82.0245L55.0449 76.7893C55.0418 76.7033 55.109 76.6313 55.1944 76.6283C55.2786 76.6228 55.3519 76.6927 55.3549 76.7783L55.5365 82.0135C55.5396 82.0995 55.4724 82.1715 55.387 82.1745H55.3815Z" fill="#2F1D4A"/>
<path d="M55.1747 76.2203C55.0914 76.2203 55.0227 76.154 55.0197 76.0702L54.9352 73.6372C54.9322 73.5512 54.9994 73.4792 55.0848 73.4762C55.165 73.471 55.2419 73.5405 55.2452 73.6262L55.3297 76.0592C55.3328 76.1452 55.2656 76.2172 55.1802 76.2203H55.1747Z" fill="#2F1D4A"/>
<path d="M49.8958 82.4764C49.8643 82.4764 49.8328 82.4667 49.8065 82.4479C48.6527 81.631 47.7513 80.9906 47.7102 80.9612C47.4928 80.8053 47.4646 80.5611 47.6354 80.3077C47.6835 80.2354 48.1949 79.6816 48.6875 79.1679C48.7284 79.1251 48.7895 79.1092 48.8458 79.1275C48.9021 79.1451 48.9433 79.1934 48.9524 79.2517L49.0762 80.0476C49.0835 80.095 49.0687 80.1433 49.036 80.1783L48.722 80.5124L49.3587 80.959C49.3917 80.7311 49.4057 80.5149 49.4002 80.3131C49.3866 79.7958 49.3227 79.2672 49.2097 78.7419C49.1988 78.6912 49.214 78.6383 49.25 78.601L49.8265 78.0041C49.8864 77.9424 49.9845 77.9409 50.0457 78.0004C50.1071 78.0603 50.1086 78.1587 50.0493 78.2203L49.5301 78.758C49.6363 79.2751 49.6969 79.7952 49.7102 80.3049C49.7181 80.5984 49.6884 80.9189 49.6221 81.257C49.6121 81.3086 49.5767 81.3515 49.5283 81.3712C49.4801 81.391 49.4244 81.3849 49.3814 81.3545L48.3975 80.6643C48.3605 80.6382 48.3366 80.5975 48.3321 80.5525C48.3272 80.5075 48.3424 80.4629 48.3733 80.4301L48.7581 80.0202L48.6945 79.6104C48.2515 80.0774 47.9261 80.4361 47.8906 80.4838C47.7889 80.6351 47.8473 80.677 47.89 80.7077C47.9291 80.7356 48.739 81.311 49.8041 82.0653C49.8677 81.8074 49.9164 81.531 49.9491 81.2408C49.9591 81.1555 50.036 81.0947 50.1208 81.1038C50.2058 81.1136 50.267 81.1907 50.2573 81.2761C50.2134 81.6649 50.1417 82.031 50.0445 82.3646C50.0305 82.4126 49.9942 82.4511 49.947 82.4675C49.9303 82.4736 49.913 82.4764 49.8958 82.4764Z" fill="#2F1D4A"/>
<path d="M50.1475 80.8363H50.1411C50.0555 80.8326 49.9892 80.76 49.9925 80.6743C50.0167 80.0911 49.9816 79.461 49.8938 78.9006C49.8865 78.8529 49.9013 78.8046 49.9344 78.7696L50.2759 78.4063C50.3343 78.3437 50.4327 78.3404 50.4948 78.3999C50.5572 78.4589 50.5599 78.5573 50.5012 78.6196L50.2117 78.9279C50.2941 79.4887 50.3261 80.1102 50.3025 80.6871C50.2989 80.771 50.2302 80.8363 50.1475 80.8363Z" fill="#2F1D4A"/>
<path d="M51.0711 79.2908C50.9867 79.2908 50.9173 79.2227 50.9161 79.1377C50.9098 78.723 50.8858 78.4317 50.8635 78.2349L50.4756 78.6468C50.4172 78.7094 50.3191 78.7124 50.2567 78.6532C50.1943 78.5942 50.1916 78.4958 50.2503 78.4335L50.8592 77.7861C50.9004 77.7421 50.9625 77.7254 51.0203 77.7451C51.0772 77.7637 51.1184 77.8141 51.1256 77.8739L51.1332 77.9241C51.1577 78.0793 51.2152 78.4429 51.2261 79.1328C51.2273 79.2188 51.1592 79.2893 51.0735 79.2908L51.0711 79.2908Z" fill="#2F1D4A"/>
<path d="M52.694 84.4528C52.6631 84.4528 52.6319 84.4437 52.605 84.4245C51.9425 83.9579 51.2153 83.4442 50.5286 82.9581C50.4732 82.9193 50.4496 82.8485 50.4702 82.7838C50.8159 81.6996 50.9655 80.4668 50.9149 79.1195C50.9119 79.0338 50.9785 78.9615 51.0642 78.9582C51.1472 78.963 51.2216 79.0223 51.225 79.1079C51.2749 80.4464 51.132 81.6774 50.7996 82.7695C51.4587 83.2355 52.1505 83.7243 52.783 84.17C52.8533 84.2195 52.8702 84.3164 52.8209 84.3866C52.7906 84.4297 52.7427 84.4528 52.694 84.4528Z" fill="#2F1D4A"/>
<path d="M52.7551 84.4393C52.7421 84.4393 52.729 84.4377 52.7157 84.4341C52.6331 84.4125 52.5834 84.3274 52.6052 84.2442C52.7963 83.513 53.06 82.378 53.2301 81.1243C53.2416 81.039 53.3222 80.9761 53.4045 80.9913C53.4893 81.0028 53.5486 81.0812 53.5371 81.1662C53.3651 82.4355 53.0984 83.5835 52.9049 84.3232C52.8868 84.3931 52.8238 84.4393 52.7551 84.4393Z" fill="#2F1D4A"/>
<path d="M54.6355 81.5189C54.5516 81.5189 54.4826 81.4517 54.4805 81.367L54.3206 74.5576L53.3684 75.5756C53.5455 76.507 53.7393 77.8929 53.6951 79.3432C53.6863 79.6333 53.6675 79.9422 53.6391 80.2615C53.6315 80.3472 53.5534 80.4055 53.4707 80.4024C53.3857 80.3949 53.3227 80.3192 53.3303 80.2335C53.3581 79.9206 53.3766 79.6178 53.3851 79.3337C53.4299 77.871 53.227 76.4723 53.049 75.5567C53.0396 75.5075 53.0541 75.4571 53.0884 75.4206L54.3536 74.0679C54.3966 74.022 54.4626 74.0065 54.522 74.029C54.5807 74.0515 54.6201 74.1074 54.6216 74.1706L54.7905 81.3597C54.7926 81.4457 54.7248 81.5168 54.6391 81.5189H54.6355Z" fill="#2F1D4A"/>
<path d="M52.2639 83.3416C52.2324 83.3416 52.2015 83.3322 52.1752 83.3137L51.3129 82.7089C51.2627 82.6733 51.2378 82.6117 51.2496 82.5512C51.7201 80.1458 51.6017 78.7806 51.6005 78.7672C51.5578 78.0023 51.4676 77.3331 51.3847 76.8415L50.5097 77.7447C50.4503 77.8058 50.3522 77.8079 50.2905 77.7477C50.229 77.6879 50.2278 77.5895 50.2874 77.5278L51.3731 76.4074C51.4134 76.3658 51.4731 76.35 51.5291 76.367C51.5845 76.3837 51.6259 76.4299 51.6366 76.487C51.7322 76.9958 51.857 77.8003 51.9097 78.7439C51.9145 78.7943 52.0311 80.1194 51.573 82.5117L52.1673 82.9285C52.3659 82.0992 52.5079 81.3057 52.5891 80.5672C52.5982 80.4818 52.6745 80.4207 52.7602 80.4295C52.8452 80.439 52.9067 80.5158 52.8973 80.6012C52.8074 81.4187 52.6448 82.3012 52.4144 83.2238C52.402 83.2736 52.366 83.314 52.3182 83.332C52.3006 83.3383 52.282 83.3416 52.2639 83.3416Z" fill="#2F1D4A"/>
<path d="M49.4689 79.4628C49.4665 79.4628 49.4641 79.4628 49.4616 79.4625L48.7925 79.4312C48.7072 79.4273 48.6408 79.3547 48.6451 79.2687C48.649 79.183 48.7183 79.1119 48.8071 79.1207L49.4762 79.152C49.5616 79.156 49.6279 79.2286 49.6236 79.3146C49.62 79.3978 49.5512 79.4628 49.4689 79.4628Z" fill="#2F1D4A"/>
<path d="M52.6347 76.762C52.6305 76.762 52.6266 76.762 52.6223 76.7614L51.4721 76.6712C51.3867 76.6645 51.3232 76.5898 51.3298 76.5041C51.3368 76.4184 51.4119 76.351 51.4963 76.3613L52.6466 76.4515C52.7319 76.4582 52.7955 76.533 52.7889 76.6186C52.7825 76.7 52.7147 76.762 52.6347 76.762Z" fill="#2F1D4A"/>
<path d="M55.4984 85.5451C55.4152 85.5451 55.3465 85.4788 55.3434 85.395L55.3007 84.1677C55.2977 84.0817 55.3649 84.0097 55.4503 84.0067C55.5336 84.0067 55.6077 84.0711 55.6108 84.1568L55.6534 85.3841C55.6565 85.47 55.5893 85.542 55.5039 85.5451H55.4984Z" fill="#2F1D4A"/>
<path d="M55.439 83.8379C55.3557 83.8379 55.287 83.7717 55.284 83.6878L55.2555 82.8646C55.2528 82.7786 55.3197 82.7066 55.4051 82.7035C55.4911 82.6975 55.5625 82.7679 55.5656 82.8536L55.594 83.6769C55.5968 83.7629 55.5299 83.8348 55.4445 83.8379H55.439Z" fill="#2F1D4A"/>
<path d="M54.7176 84.9804C54.6337 84.9804 54.5647 84.9133 54.5626 84.8285L54.4815 81.3347C54.4796 81.2487 54.5471 81.1776 54.6328 81.1755C54.7252 81.1828 54.7894 81.2414 54.7915 81.3274L54.8726 84.8212C54.8744 84.9072 54.8069 84.9783 54.7212 84.9804H54.7176Z" fill="#2F1D4A"/>
<path d="M54.7186 85.0646C54.6874 85.0646 54.6562 85.0551 54.6299 85.0366L54.0447 84.6259C53.9744 84.5764 53.9572 84.4795 54.0062 84.4093C54.0556 84.3382 54.1525 84.3221 54.2221 84.3707L54.5563 84.6056L54.5506 84.3565C54.5488 84.2705 54.6163 84.1994 54.702 84.1973C54.7889 84.1918 54.8588 84.2635 54.8606 84.3492L54.8736 84.9054C54.8748 84.9641 54.8433 85.0184 54.7919 85.046C54.7689 85.0585 54.7437 85.0646 54.7186 85.0646Z" fill="#2F1D4A"/>
<path d="M55.4954 86.1801C55.2892 86.1801 55.1102 86.1254 54.9819 86.0698C54.9474 86.0549 54.895 86.0322 53.4018 84.985C53.3451 84.9452 53.3215 84.8732 53.3436 84.8079L53.4154 84.594C53.4429 84.5129 53.5307 84.4695 53.6115 84.4962C53.6927 84.5235 53.7363 84.6116 53.7091 84.6931L53.6745 84.7966C54.7769 85.5695 55.0654 85.7627 55.1105 85.787C55.2431 85.8444 55.4581 85.904 55.6927 85.8453C55.8484 85.8064 57.7261 85.2031 59.2375 84.7101C59.3186 84.6839 59.4064 84.7283 59.4328 84.81C59.4591 84.8917 59.4146 84.9792 59.3332 85.006C57.9644 85.4525 55.9455 86.1026 55.7675 86.1473C55.6731 86.1707 55.5816 86.1801 55.4954 86.1801Z" fill="#2F1D4A"/>
<path d="M60.183 84.7196C60.1179 84.7196 60.0574 84.6783 60.0359 84.6127C60.0089 84.531 60.0531 84.4432 60.1346 84.4164C60.4213 84.3216 60.6269 84.2527 60.7035 84.2248C60.8494 84.1722 60.9363 84.112 60.9614 84.0461C60.989 83.9744 60.9599 83.859 60.8724 83.6934C60.8116 83.5786 60.2966 82.5913 59.6075 81.2704L59.5412 81.1431C59.5015 81.0672 59.5309 80.973 59.6069 80.9332C59.6816 80.8943 59.7761 80.9229 59.8161 80.9991L59.8824 81.1261C60.5709 82.4461 61.0856 83.4327 61.1461 83.5476C61.2375 83.7207 61.3323 83.9465 61.2509 84.1582C61.1906 84.3141 61.0462 84.4316 60.8088 84.5176C60.731 84.5455 60.5224 84.6157 60.2315 84.7117C60.2154 84.7172 60.199 84.7196 60.183 84.7196Z" fill="#2F1D4A"/>
<path d="M59.3695 80.6333C59.3138 80.6333 59.2599 80.6029 59.232 80.5498L58.3985 78.9515C57.0758 76.4146 55.6873 73.7519 55.5314 73.4576C55.4533 73.3099 55.33 73.1298 55.1868 73.11C55.0473 73.0897 54.8968 73.2191 54.7923 73.3297C54.706 73.4205 54.2467 73.8935 53.6022 74.557L52.6127 75.5759C52.8074 76.5468 53.0209 77.9967 52.9739 79.5342C52.9718 79.6108 52.9688 79.6882 52.9645 79.7654C52.96 79.8511 52.8843 79.9222 52.8016 79.9125C52.7162 79.9082 52.6506 79.835 52.6551 79.749C52.6587 79.6743 52.6617 79.5999 52.6639 79.5251C52.7114 77.974 52.4883 76.5116 52.2927 75.5577C52.2821 75.5073 52.2975 75.4547 52.3332 75.4179L53.3802 74.3398C54.0233 73.6779 54.4816 73.2058 54.5677 73.1153C54.7929 72.8777 55.0151 72.7717 55.2289 72.8021C55.4484 72.8321 55.6425 73.0038 55.805 73.3118C55.961 73.6062 57.35 76.2698 58.6734 78.8073L59.5069 80.4059C59.5466 80.4818 59.5172 80.576 59.4413 80.6158C59.4186 80.6276 59.3937 80.6333 59.3695 80.6333Z" fill="#2F1D4A"/>
<path d="M57.2067 80.2768L61.1028 81.3088L60.5763 83.9663L59.8811 83.7819L59.1814 85.9568L59.7612 86.0297L60.0628 85.7857L61.344 85.873L61.4807 84.6125L61.935 80.8635L57.1712 79.5651" fill="#FFE4B7"/>
<path d="M59.7616 86.1894C59.755 86.1894 59.7483 86.1888 59.742 86.1882L59.1622 86.1153C59.1149 86.1093 59.0728 86.0825 59.0474 86.0424C59.022 86.002 59.0156 85.9528 59.0302 85.9072L59.7298 83.7324C59.7553 83.6531 59.8343 83.6057 59.9188 83.6261L60.4749 83.7598L60.9191 81.4224L57.1872 80.3595C57.1025 80.3352 57.0534 80.2467 57.0773 80.1617C57.1012 80.0767 57.1881 80.0277 57.2744 80.0514L61.1467 81.1545C61.2261 81.1772 61.2751 81.2572 61.2597 81.3386L60.7568 83.9843C60.7486 84.0271 60.7235 84.0648 60.6868 84.0885C60.6502 84.1122 60.6054 84.1201 60.563 84.1097L59.9877 83.9718L59.3925 85.8219L59.7144 85.8623L59.9629 85.6609C59.9941 85.6354 60.0326 85.6214 60.0741 85.6259L61.2024 85.7025L61.3223 84.5949L61.7604 80.9823L57.1926 79.7714C57.1076 79.7489 57.057 79.6614 57.0794 79.5757C57.1015 79.4904 57.1863 79.4387 57.2744 79.4621L61.9763 80.7085C62.0532 80.7289 62.1032 80.8033 62.0938 80.8826L61.6393 84.6317L61.5031 85.8899C61.4937 85.975 61.4289 86.0412 61.3335 86.0321L60.1146 85.9492L59.8618 86.1539C59.833 86.177 59.7979 86.1894 59.7616 86.1894Z" fill="#2F1D4A"/>
<path opacity="0.5" d="M36.2404 51.5634C36.294 50.7176 36.189 50.0226 36.0059 50.0109C35.8229 49.9992 35.6311 50.6754 35.5775 51.5211C35.5239 52.3669 35.6289 53.062 35.812 53.0736C35.9951 53.0853 36.1869 52.4091 36.2404 51.5634Z" fill="#B19CD1"/>
<path d="M27.8529 53.6265L35.9046 50.3277L36.069 51.6738L35.7016 52.6492C35.7016 52.6492 35.2346 52.6137 34.9484 51.695C33.816 51.9687 27.9971 53.9913 27.9971 53.9913" fill="#ECE8F0"/>
<path d="M27.9976 54.1084C27.9491 54.1084 27.904 54.078 27.8873 54.0297C27.8664 53.9686 27.8985 53.9018 27.9594 53.8808C28.1974 53.7985 33.7951 51.8609 34.9199 51.5891C34.9796 51.5733 35.0413 51.6097 35.0589 51.6696C35.2735 52.3996 35.5272 52.5527 35.6211 52.5627C36.0426 51.7537 35.9009 50.8041 35.8297 50.465L27.8976 53.7347C27.8386 53.7593 27.7702 53.7307 27.7457 53.6709C27.7211 53.6114 27.7496 53.543 27.8092 53.5184L35.8673 50.1968C35.8978 50.1841 35.9324 50.1853 35.9623 50.1995C35.992 50.2141 36.0144 50.2405 36.0235 50.2725C36.0393 50.3275 36.4023 51.6301 35.801 52.7213C35.7919 52.7377 35.7795 52.7514 35.764 52.762C35.7023 52.8036 35.6036 52.8076 35.5064 52.7727C35.3289 52.7085 35.078 52.4935 34.8685 51.8434C33.5372 52.1976 28.092 54.0826 28.0357 54.102C28.023 54.1063 28.0103 54.1084 27.9976 54.1084Z" fill="#2F1D4A"/>
<path opacity="0.5" d="M36.348 56.4101C36.4405 55.5677 36.3676 54.8685 36.1853 54.8484C36.003 54.8282 35.7802 55.4948 35.6877 56.3371C35.5953 57.1795 35.6681 57.8787 35.8505 57.8988C36.0328 57.919 36.2556 57.2524 36.348 56.4101Z" fill="#B19CD1"/>
<path d="M27.4707 54.6973L36.1535 55.1955L35.9052 57.2408L35.6936 57.5134C35.6936 57.5134 35.0811 57.3609 34.9397 56.1634C33.8001 55.9216 27.4444 55.0889 27.4444 55.0889" fill="#ECE8F0"/>
<path d="M35.6998 57.6333C35.5863 57.6333 35.4183 57.5813 35.2569 57.4328C35.0704 57.2614 34.8491 56.9218 34.8251 56.2678C33.4924 56.0083 27.4916 55.2136 27.4298 55.2054C27.366 55.1969 27.3208 55.1383 27.3293 55.0742C27.3378 55.0101 27.3926 54.9645 27.4601 54.9733C27.7199 55.0077 33.8327 55.8173 34.9638 56.0572C35.0174 56.0688 35.0559 56.1159 35.0562 56.1709C35.0607 56.8033 35.2533 57.1123 35.4144 57.2605C35.507 57.3456 35.5957 57.382 35.6547 57.3942C35.9257 56.8984 35.9415 55.7401 35.9396 55.3834L27.4632 54.8144C27.399 54.8102 27.3505 54.7546 27.3548 54.6899C27.3587 54.6258 27.4099 54.5723 27.4789 54.5811L36.0629 55.1571C36.1228 55.1611 36.17 55.2103 36.1716 55.2707C36.1734 55.3403 36.2127 56.9804 35.8149 57.5804C35.7949 57.6105 35.7625 57.6293 35.7271 57.6324C35.7183 57.633 35.7092 57.6333 35.6998 57.6333Z" fill="#2F1D4A"/>
<path d="M21.9621 56.2437L29.5899 57.688C29.6825 57.7056 29.7799 57.5795 29.7691 57.4569L29.0791 49.6521C29.0611 49.4488 28.9074 49.3176 28.7983 49.4164L21.7915 55.7638C21.6171 55.9218 21.7172 56.1973 21.9621 56.2437Z" fill="white"/>
<path d="M22.316 56.6608L29.7018 57.9411C29.7918 57.9567 29.8867 57.8309 29.8762 57.7105L29.2136 50.048C29.1964 49.8485 29.0472 49.7229 28.9412 49.8224L22.152 56.1936C21.9836 56.3517 22.0798 56.6198 22.316 56.6608Z" fill="#EBB432"/>
<path d="M29.7128 58.1C29.7001 58.1 29.687 58.0988 29.6746 58.0963L21.7816 56.6117C21.629 56.5829 21.5094 56.4768 21.4697 56.3356C21.4334 56.2068 21.4718 56.0752 21.5724 55.9838L28.7927 49.4174C28.8602 49.3558 28.951 49.3381 29.0358 49.3713C29.1509 49.4162 29.2344 49.5453 29.2487 49.6999L29.9792 57.7622C29.9883 57.8618 29.9483 57.9657 29.8751 58.0331C29.8275 58.0766 29.77 58.1 29.7128 58.1ZM21.8324 56.3402L29.6967 57.8196C29.7015 57.8108 29.7061 57.7983 29.7049 57.7874L28.9743 49.7252C28.971 49.6897 28.9601 49.6632 28.9501 49.6471L21.7571 56.1886C21.7346 56.2089 21.7271 56.2332 21.7346 56.2609C21.7434 56.2918 21.7737 56.3289 21.8324 56.3402Z" fill="#2F1D4A"/>
<path d="M27.7819 55.2393L25.4923 56.6818L25.1159 56.009L27.5877 54.8527L27.7819 55.2393Z" fill="#2F1D4A"/>
<path d="M28.4025 54.3668C28.5711 54.2608 28.796 54.3087 28.9062 54.4718C29.0159 54.6342 28.9723 54.8522 28.8076 54.9606C28.6409 55.0703 28.4128 55.0271 28.2993 54.8623C28.1852 54.6966 28.2321 54.4739 28.4025 54.3668Z" fill="#2F1D4A"/>
<path d="M24.812 52.5612L25.4671 47.4283L24.5076 47.5726L24.5704 47.2175L25.1988 47.0014L24.4551 46.3577L24.7053 46.0956L25.4356 46.575L25.3121 45.6414L25.6566 45.4941L25.9608 46.5181L26.4971 46.1423L26.7868 46.4963L26.2887 46.8719L25.2637 52.2157" fill="#ECE8F0"/>
<path d="M24.8116 52.6781C24.8068 52.6781 24.8019 52.6778 24.7968 52.6772C24.7329 52.669 24.6878 52.6104 24.696 52.5463L25.3314 47.5669L24.5243 47.6885C24.488 47.6942 24.4495 47.6815 24.4235 47.6544C24.3974 47.6274 24.3856 47.5894 24.3923 47.5524L24.4552 47.1969C24.4625 47.155 24.4922 47.1204 24.5321 47.1067L24.9681 46.9566L24.3783 46.4463C24.3541 46.4253 24.3396 46.3952 24.3381 46.363C24.3365 46.3312 24.3483 46.2999 24.3704 46.2768L24.6205 46.0149C24.6599 45.9739 24.7217 45.9666 24.7686 45.9979L25.2863 46.3375L25.1961 45.6567C25.1891 45.6045 25.2179 45.5544 25.266 45.5337L25.6105 45.3864C25.6411 45.373 25.6759 45.3739 25.7059 45.3879C25.7359 45.4022 25.7586 45.4286 25.768 45.4605L26.0259 46.3294L26.4301 46.0462C26.4791 46.0122 26.5479 46.0201 26.5869 46.0681L26.8767 46.4223C26.8967 46.4469 26.9061 46.4788 26.9021 46.5104C26.8985 46.542 26.8818 46.5708 26.8564 46.59L26.3941 46.9384L25.3777 52.238C25.3659 52.3012 25.306 52.3443 25.2412 52.3307C25.1779 52.3185 25.1367 52.2572 25.1488 52.1937L26.1737 46.8498C26.1791 46.8212 26.1949 46.7957 26.2182 46.7784L26.6191 46.4764L26.475 46.3002L26.0269 46.614C25.9963 46.6353 25.9563 46.6405 25.9218 46.6286C25.8864 46.6162 25.8591 46.5873 25.8485 46.5515L25.5818 45.6529L25.4389 45.7142L25.5509 46.5597C25.557 46.6053 25.5361 46.6499 25.4973 46.6742C25.4589 46.6985 25.4098 46.6985 25.3714 46.673L24.722 46.2468L24.6239 46.3495L25.2745 46.9127C25.306 46.9403 25.3205 46.9826 25.3126 47.0236C25.3048 47.0646 25.2754 47.0986 25.236 47.112L24.6726 47.3058L24.6502 47.4331L25.4494 47.3128C25.4849 47.3064 25.5221 47.3191 25.5482 47.345C25.5745 47.3705 25.5869 47.4069 25.5824 47.4434L24.9272 52.5762C24.9196 52.6351 24.8694 52.6781 24.8116 52.6781Z" fill="#2F1D4A"/>
<path d="M25.6725 57.33L28.6576 61.5499L27.7433 61.8756L27.9653 62.1593L28.6211 62.0533L28.2667 62.9724L28.6104 63.0855L29.0299 62.3177L29.3588 63.1998L29.7319 63.1672L29.5201 62.12L30.1696 62.1984L30.2592 61.7492L29.6436 61.653L26.2332 57.4216" fill="#ECE8F0"/>
<path d="M29.3593 63.3168C29.3109 63.3168 29.2673 63.2867 29.25 63.2409L29.0105 62.5978L28.7132 63.1418C28.6863 63.1914 28.6266 63.2144 28.5745 63.1968L28.2309 63.0835C28.2003 63.0735 28.1755 63.0513 28.1619 63.0224C28.1482 62.9933 28.147 62.9602 28.1585 62.9301L28.4395 62.2013L27.9841 62.2748C27.9433 62.2839 27.9003 62.2651 27.8739 62.2317L27.652 61.9479C27.629 61.9181 27.6214 61.8793 27.6317 61.8431C27.6423 61.807 27.6692 61.7781 27.7047 61.7653L28.4737 61.4913L25.5781 57.3978C25.5409 57.3449 25.5533 57.272 25.6057 57.2347C25.6583 57.1973 25.731 57.2094 25.7682 57.2623L28.7532 61.4822C28.7744 61.5123 28.7804 61.5503 28.7692 61.5852C28.7583 61.6201 28.7317 61.6481 28.6972 61.6602L27.9357 61.9315L28.0151 62.033L28.603 61.9379C28.6433 61.9288 28.6857 61.9473 28.712 61.9798C28.7384 62.0123 28.7453 62.0564 28.7302 62.0956L28.4202 62.8997L28.5552 62.9441L28.9282 62.2615C28.9503 62.2214 28.9908 62.1968 29.039 62.201C29.0844 62.2044 29.1238 62.2339 29.1398 62.2767L29.4374 63.0757L29.5921 63.062L29.4066 62.1434C29.399 62.1063 29.4096 62.0683 29.435 62.0407C29.4602 62.013 29.4968 61.9982 29.5346 62.0039L30.0769 62.0695L30.1214 61.8462L29.6264 61.7688C29.5976 61.7642 29.5719 61.749 29.5537 61.7266L26.1431 57.4951C26.1025 57.445 26.1101 57.3712 26.1603 57.3308C26.21 57.2898 26.2836 57.298 26.3241 57.3481L29.7066 61.5443L30.2776 61.6336C30.3091 61.6388 30.3373 61.6564 30.3554 61.6825C30.3736 61.7087 30.3803 61.7412 30.3742 61.7725L30.2846 62.2218C30.2724 62.2813 30.2143 62.3232 30.1562 62.3147L29.6669 62.2555L29.8465 63.1438C29.8531 63.1766 29.8456 63.2106 29.8259 63.237C29.8059 63.2637 29.7756 63.2808 29.7426 63.2838L29.3696 63.3166C29.366 63.3169 29.3626 63.3168 29.3593 63.3168Z" fill="#2F1D4A"/>
<path opacity="0.5" d="M68.1191 21.7952L65.1515 23.3137L64.7968 22.685L67.4451 21.4037L68.1191 21.7952Z" fill="#B19CD1"/>
<path opacity="0.5" d="M64.2171 18.9365L73.9121 23.7292L72.6352 24.2749L63.4605 19.3635L64.2171 18.9365Z" fill="#B19CD1"/>
<path d="M75.0809 19.5741L78.1318 25.3718L77.6731 25.7337L78.0469 26.002L78.6035 25.5009L80.2401 25.1607L79.6204 24.427L79.0062 24.5566L79.1991 24.0173L78.8428 23.9483L78.5451 24.4735L75.3395 19.0993" fill="#ECE8F0"/>
<path d="M78.0377 26.2034C78.0062 26.2034 77.9747 26.1938 77.9474 26.1743L77.5735 25.9061C77.5339 25.8777 77.5099 25.8321 77.5087 25.7831C77.5075 25.7342 77.5296 25.6875 77.5681 25.6573L77.925 25.3757L74.9343 19.6926C74.8944 19.6167 74.9234 19.5226 74.9991 19.4824C75.0742 19.4427 75.1684 19.4713 75.2086 19.5474L78.2596 25.3452C78.2944 25.4115 78.2771 25.4936 78.2181 25.54L77.922 25.7737L78.0267 25.8487L78.4906 25.4311C78.5109 25.4128 78.536 25.4002 78.5626 25.3945L79.9438 25.1074L79.5527 24.6443L79.0286 24.7547C78.9735 24.7664 78.9169 24.747 78.8799 24.7048C78.843 24.6623 78.8318 24.603 78.8509 24.55L78.9829 24.1815L78.9132 24.1679L78.6704 24.5963C78.6432 24.6445 78.5926 24.6744 78.5375 24.675C78.4727 24.6774 78.4309 24.6469 78.4028 24.5993L75.1974 19.225C75.1532 19.1514 75.1771 19.0558 75.2507 19.0116C75.3234 18.9679 75.4191 18.9914 75.4632 19.0652L78.5323 24.2109L78.6989 23.9173C78.7318 23.8595 78.7985 23.8291 78.863 23.8415L79.2193 23.9105C79.2638 23.919 79.3023 23.9466 79.3247 23.9862C79.347 24.0257 79.351 24.073 79.3358 24.1157L79.2365 24.3931L79.5793 24.3208C79.6344 24.3085 79.6925 24.3288 79.7295 24.3724L80.3492 25.1061C80.3843 25.148 80.3952 25.2054 80.3774 25.2572C80.3595 25.3091 80.3159 25.3477 80.2623 25.3589L78.6664 25.6907L78.1411 26.1635C78.1118 26.19 78.0749 26.2034 78.0377 26.2034Z" fill="#2F1D4A"/>
<path d="M79.1663 25.1733C79.0976 25.1733 79.0346 25.1272 79.0164 25.0573C78.9946 24.9742 79.044 24.8892 79.1269 24.8674L79.8166 24.6856C79.8981 24.664 79.9844 24.7134 80.0059 24.7965C80.0277 24.8795 79.9783 24.9646 79.8954 24.9863L79.2057 25.1682C79.1927 25.1716 79.1793 25.1733 79.1663 25.1733Z" fill="#2F1D4A"/>
<path d="M68.8388 20.3142L63.8725 22.4182L63.5765 27.8295C63.5765 27.8295 62.4057 27.8333 62.0095 28.2698C61.8949 28.396 61.9408 28.6012 61.9408 28.6012L64.4812 29.3186L64.7896 22.8796L69.1656 20.8129" fill="#ECE8F0"/>
<path d="M64.4811 29.4741C64.4669 29.4741 64.4524 29.4721 64.4384 29.468L61.8852 28.7322C61.8283 28.7158 61.7856 28.6684 61.7753 28.61C61.7705 28.5831 61.7335 28.3423 61.8952 28.1647C62.2503 27.7738 63.0796 27.694 63.4284 27.6779L63.6791 22.4522C63.6818 22.3927 63.7185 22.34 63.7729 22.3166L68.8406 20.1477C68.9196 20.114 69.0104 20.1507 69.044 20.2297C69.0776 20.3087 69.041 20.4001 68.9623 20.4338L63.9839 22.5644L63.7311 27.8368C63.7272 27.9194 63.6594 27.9846 63.577 27.9849C63.27 27.9861 62.4111 28.0586 62.1244 28.3745C62.1005 28.4003 62.0889 28.4342 62.0832 28.4656L64.3358 29.1148L64.64 22.9367C64.6427 22.8805 64.6755 22.8302 64.7257 22.8051L69.0119 20.6691C69.0879 20.6309 69.1815 20.6619 69.2199 20.7391C69.2578 20.8161 69.2266 20.9095 69.15 20.9476L64.9452 23.0432L64.6358 29.3261C64.6337 29.3736 64.6098 29.4174 64.5713 29.445C64.5447 29.4641 64.5132 29.4741 64.4811 29.4741Z" fill="#2F1D4A"/>
<path d="M70.3354 20.6566L67.0168 24.6299L69.6219 29.3477C69.6219 29.3477 68.6588 30.0156 68.5782 30.6005C68.5549 30.7696 68.7085 30.9127 68.7085 30.9127L71.2076 30.0619L67.9698 24.6784L70.8862 20.8822" fill="#ECE8F0"/>
<path d="M68.6878 31.0604C68.647 31.0604 68.607 31.0441 68.5773 31.0139C68.5583 30.9944 68.3917 30.817 68.4247 30.579C68.4974 30.0518 69.1432 29.512 69.4193 29.3031L66.8734 24.7622C66.8419 24.7062 66.848 24.6365 66.8888 24.5868L70.2546 20.5022C70.3097 20.4361 70.4075 20.4267 70.4729 20.4816C70.5389 20.5363 70.5483 20.6344 70.4938 20.7006L67.1958 24.7028L69.7572 29.2712C69.7966 29.3412 69.7762 29.4296 69.7102 29.4753C69.458 29.6506 68.7901 30.1981 68.7317 30.6216C68.7269 30.6566 68.7363 30.691 68.7496 30.7202L70.9752 29.9755L67.8779 24.809C67.8455 24.7551 67.8489 24.6869 67.8861 24.6363L70.6894 20.8341C70.7412 20.7651 70.8384 20.7507 70.9062 20.8016C70.9752 20.8526 70.9897 20.95 70.9389 21.0191L68.197 24.7377L71.3406 29.9814C71.3648 30.0218 71.3694 30.0712 71.353 30.1155C71.3367 30.1597 71.3012 30.1942 71.2568 30.2091L68.7369 31.0522C68.7208 31.0577 68.7042 31.0604 68.6878 31.0604Z" fill="#2F1D4A"/>
<path d="M65.6461 12.0936L76.3502 17.5056L76.9897 15.5655C77.0346 15.4294 76.9703 15.2804 76.8399 15.2181L66.5913 10.3202C66.4372 10.2465 66.2541 10.3222 66.1992 10.4823L65.6461 12.0936Z" fill="white"/>
<path d="M66.4918 10.6425L76.6771 15.5235L73.8376 24.1615L63.9143 18.9424L66.4918 10.6425Z" fill="white"/>
<path d="M73.8377 24.317C73.8129 24.317 73.7884 24.3111 73.7657 24.2992L63.8423 19.0802C63.776 19.0452 63.7442 18.9679 63.7663 18.8961L66.3437 10.5962C66.3571 10.5532 66.3885 10.5179 66.4297 10.5C66.4715 10.4819 66.5181 10.4827 66.5587 10.5021L76.7439 15.3831C76.8142 15.4168 76.8487 15.4977 76.8242 15.5722L73.9849 24.2102C73.9706 24.2535 73.9382 24.2884 73.8959 24.3056C73.8771 24.3132 73.8574 24.317 73.8377 24.317ZM64.1009 18.8648L73.7478 23.9385L76.4872 15.6047L66.5865 10.8603L64.1009 18.8648Z" fill="#2F1D4A"/>
<path d="M65.7934 12.6056L75.9544 17.5186L76.6173 15.5472L66.5132 10.6794L65.7934 12.6056Z" fill="#2F1D4A"/>
<path d="M67.2918 11.9761C67.4002 11.7416 67.3297 11.4778 67.1343 11.3869C66.9389 11.2959 66.6926 11.4122 66.5842 11.6466C66.4758 11.881 66.5463 12.1448 66.7417 12.2358C66.937 12.3268 67.1833 12.2105 67.2918 11.9761Z" fill="#E0557A"/>
<path d="M68.4184 12.5007C68.5268 12.2663 68.4563 12.0025 68.2609 11.9115C68.0656 11.8205 67.8193 11.9368 67.7108 12.1712C67.6024 12.4057 67.6729 12.6695 67.8683 12.7604C68.0637 12.8514 68.31 12.7351 68.4184 12.5007Z" fill="#EAB332"/>
<path d="M69.5451 13.0259C69.6535 12.7914 69.583 12.5276 69.3876 12.4367C69.1922 12.3457 68.9459 12.462 68.8375 12.6964C68.7291 12.9308 68.7996 13.1946 68.995 13.2856C69.1904 13.3766 69.4367 13.2603 69.5451 13.0259Z" fill="#F48352"/>
<path d="M68.0458 16.5239C68.0306 16.5272 68.0149 16.5276 67.9995 16.525L65.9923 15.9019C65.9118 15.8793 65.8648 15.7955 65.8873 15.7148C65.8878 15.7128 65.8884 15.7109 65.889 15.709C65.9136 15.6271 65.9997 15.5807 66.0813 15.6053L68.0883 16.2191C68.1698 16.2438 68.2161 16.3302 68.1916 16.4121C68.1719 16.4768 68.1133 16.5218 68.0458 16.5239Z" fill="#2F1D4A"/>
<path d="M68.6786 15.649C68.6476 15.6495 68.6172 15.6404 68.5915 15.6231L66.8384 14.495C66.7667 14.4486 66.7459 14.3528 66.7921 14.2808C66.7925 14.2802 66.7929 14.2796 66.7933 14.279C66.8379 14.2081 66.9313 14.1868 67.0021 14.2316C67.0032 14.2323 67.0043 14.233 67.0054 14.2338L68.7586 15.365C68.8297 15.4124 68.849 15.5086 68.8018 15.5799C68.7743 15.6215 68.7284 15.6472 68.6786 15.649Z" fill="#2F1D4A"/>
<path d="M68.7349 17.3672C68.6756 17.3672 68.619 17.3328 68.5935 17.2749C68.5587 17.1965 68.5938 17.1046 68.6719 17.0695C68.6759 17.0677 69.0828 16.8825 69.289 16.5518C69.4933 16.2242 69.4443 15.76 69.4437 15.7553C69.4343 15.67 69.4954 15.5931 69.5805 15.5834C69.6644 15.5749 69.7422 15.6352 69.7519 15.7207C69.7543 15.7441 69.813 16.2984 69.5517 16.717C69.2944 17.1298 68.8178 17.3449 68.7976 17.3539C68.7773 17.363 68.7561 17.3672 68.7349 17.3672Z" fill="#2F1D4A"/>
</g>
<defs>
<clipPath id="clip0_147_15832">
<rect width="99" height="112" fill="white"/>
</clipPath>
</defs>
</svg>
