<svg xmlns="http://www.w3.org/2000/svg" width="24" height="36" fill="none"><path fill="#fff" d="m7.91 24.64 3.97-2.41 5.38 2.81-.07 5.52-9.28-5.92Z"/><path fill="#B19CD1" d="m0 2.37 3.9 1.92.04 22.63L.02 24.8 0 2.37ZM15.81 19.58 20 17.19l-.03 18.62-16.05-8.86 3.99-2.3 7.87 4.4.03-9.47ZM7.74 6.66l8.04 4.39-3.9 2.42-4.11-2.27-.03-4.54Z"/><path fill="#B19CD1" d="m3.94 4.26 3.81-2.1v13.59L3.94 18V4.26ZM19.97 35.8l3.96-2.34.07-22.57L3.95 22.36l.01 4.55 15.99-9.3.02 18.2Z" opacity=".35"/><path fill="#fff" d="m.09 20.23 3.86 2.09 19.32-11.35L7.8 2.2l.03 4.52 8.03 4.3L.1 20.23ZM0 2.36 3.88 0l3.85 2.13-3.82 2.15L0 2.36Z"/></svg>
