<svg xmlns="http://www.w3.org/2000/svg" width="24" height="28" fill="none"><path fill="#fff" d="M24 6.89 21.69 5.5l-.03.02L12.15 0 0 7.06l11.97 6.8L24 6.88Zm-4.86.16L12 11.13 5.01 6.88l6.95-3.8 2.56-1.5v2.94l4.62 2.53ZM2.35 19.4l2.68-1.58 6.95 4.28 7.37-4.17 2.16 1.5L12 25.01 2.35 19.4Z"/><path fill="#B19CD1" d="M2.35 11.18v8.23l2.5-1.5.03-5.25-2.53-1.48ZM5.03 6.9 7.4 8.27l2.04-1.07-.03-2.8-4.38 2.48Z" opacity=".35"/><path fill="#B19CD1" d="m2.35 19.4.06-8.14 7.03 4.05-.02 5.4L12 22.29v-8.45L0 7.07v13.92l11.97 6.74.01-2.73-9.63-5.6ZM16.67 19.57c.1-.08 2.4-1.49 2.4-1.49l-4.55-2.72-.03 2.89 2.18 1.32ZM19.17 12.65c.1-.07 2.36-1.35 2.36-1.35v8.13l-2.35-1.36-.01-5.42Z"/><path fill="#B19CD1" d="m12 3.04 2.5-1.44.05 8.07L12 11.13V3.04Z" opacity=".35"/><path fill="#B19CD1" d="m12 11.1-.05-8.02L9.43 1.6l-.01 8.03 2.57 1.47Z"/><path fill="#B19CD1" d="m12 22.28.01-8.45 11.8-6.79.13 13.93-11.93 6.8-.01-2.78 9.53-5.5V11.3l-7.01 4.05v5.43L12 22.28Z" opacity=".35"/><path fill="#fff" d="M7.34 13.87 4.88 15.2l-.01 2.68 4.72-2.7-2.25-1.3ZM17.01 13.91l-2.5 1.44 4.58 2.74.25-.16.03-2.59-2.36-1.43Z"/></svg>
