<svg width="97" height="96" viewBox="0 0 97 96" fill="none" xmlns="http://www.w3.org/2000/svg">
<g clip-path="url(#clip0_147_15830)">
<path opacity="0.35" d="M93.4979 41.3601L93.3704 56.2286L26.5707 96.3484L25.1717 34.4293L39.0232 42.0887L39.6826 74.1834L93.4979 41.3601Z" fill="#B19CD1"/>
<path d="M13.6281 89.7264L26.7562 96.3482L25.7381 34.4744L52.6239 49.5349L66.0304 41.4352L11.2656 11.4511L13.6281 89.7264Z" fill="#B19CD1"/>
<path d="M23.365 3.34321L11.1101 11.4455L66.0354 41.4375L39.574 56.7527V72.3118L93.3645 40.2129L23.365 3.34321Z" fill="white"/>
<path d="M69.1752 56.2064C69.101 56.2064 69.028 56.1689 68.9866 56.1011C68.9231 55.9977 68.9559 55.8628 69.0604 55.7999L94.4589 40.4796C94.5621 40.4166 94.6989 40.4492 94.7623 40.553C94.8258 40.6564 94.793 40.7912 94.6885 40.8541L69.29 56.1745C69.2542 56.1961 69.2145 56.2064 69.1752 56.2064Z" fill="#2F1D4A"/>
<path d="M40.8119 73.2734C40.7756 73.2734 40.7389 73.2644 40.7057 73.2464C40.6367 73.2091 40.593 73.1377 40.5909 73.0593L40.3375 62.6213C40.3345 62.5006 40.4312 62.4 40.5534 62.397H40.5585C40.6781 62.397 40.7765 62.4916 40.7795 62.611L41.0238 72.6698L66.0964 57.5464C66.1996 57.4834 66.336 57.5158 66.3999 57.6198C66.4633 57.7231 66.4305 57.858 66.3261 57.9209L40.9267 73.2413C40.8913 73.2627 40.8516 73.2734 40.8119 73.2734Z" fill="#2F1D4A"/>
<path d="M40.5165 60.6438C40.3965 60.6438 40.2985 60.5492 40.2955 60.4298L39.8479 41.2636C39.8453 41.1425 39.9416 41.0421 40.0638 41.0393C40.179 41.0522 40.2869 41.1327 40.2899 41.2534L40.7375 60.4195C40.7401 60.5407 40.6439 60.6408 40.5217 60.6438H40.5165Z" fill="#2F1D4A"/>
<path d="M40.4571 56.8245C40.3829 56.8245 40.3099 56.7871 40.2685 56.7192C40.205 56.6159 40.2379 56.481 40.3423 56.4181L66.4651 40.6611L52.0389 32.748C51.9322 32.6894 51.8934 32.5561 51.9525 32.4501C52.0117 32.3444 52.1459 32.3061 52.253 32.3645L67.0124 40.4603C67.0815 40.4982 67.1247 40.5695 67.1264 40.6476C67.1281 40.7257 67.0875 40.7987 67.0202 40.8394L40.572 56.7926C40.5361 56.8142 40.4964 56.8245 40.4571 56.8245Z" fill="#2F1D4A"/>
<path d="M50.6257 31.9411C50.5895 31.9411 50.5528 31.9323 50.5187 31.9137L12.3648 10.9852L12.578 17.918C12.5815 18.0389 12.4856 18.1399 12.3639 18.1438C12.2215 18.1427 12.1403 18.0524 12.136 17.9312L11.9111 10.6136C11.909 10.5348 11.9491 10.461 12.0169 10.4199C12.0842 10.3788 12.1693 10.3771 12.2392 10.4152L50.7327 31.5301C50.8393 31.5888 50.8782 31.7221 50.8191 31.8281C50.7789 31.9002 50.7034 31.9411 50.6257 31.9411Z" fill="#2F1D4A"/>
<path d="M14.164 76.8628C14.0449 76.8628 13.9469 76.7691 13.943 76.6505L12.2056 20.0806C12.2022 19.9597 12.298 19.8587 12.4197 19.8548C12.5613 19.8612 12.6433 19.9464 12.6476 20.0674L14.385 76.6368C14.3884 76.758 14.2926 76.859 14.1709 76.8628H14.164Z" fill="#2F1D4A"/>
<path d="M27.6535 95.877C27.619 95.877 27.5841 95.8688 27.5521 95.8526L14.4363 89.1383C14.3651 89.1019 14.3194 89.0296 14.3168 88.9504L14.072 80.9853C14.0686 80.8642 14.1644 80.7632 14.2861 80.7593C14.429 80.7644 14.5101 80.8509 14.514 80.9717L14.7549 88.8079L27.6445 95.4066L48.2496 82.9785C48.3528 82.9151 48.4892 82.9477 48.5531 83.0517C48.6165 83.1552 48.5837 83.2901 48.4793 83.3526L27.7684 95.8449C27.7334 95.8663 27.6933 95.877 27.6535 95.877Z" fill="#2F1D4A"/>
<path d="M51.255 81.6406C51.1808 81.6406 51.1078 81.6033 51.0664 81.5353C51.0029 81.4317 51.0357 81.2973 51.1402 81.2344L88.5145 58.6906C88.6177 58.6276 88.7541 58.66 88.8179 58.764C88.8814 58.8674 88.8486 59.0022 88.7441 59.0651L51.3698 81.6085C51.334 81.6303 51.2943 81.6406 51.255 81.6406Z" fill="#2F1D4A"/>
<path d="M91.3607 57.4494C91.2865 57.4494 91.2135 57.412 91.1721 57.3441C91.1086 57.2407 91.1414 57.1059 91.2459 57.043L94.3813 55.2532V40.7584L77.0402 31.3377C76.9332 31.2797 76.8939 31.1465 76.9526 31.0404C77.0113 30.9338 77.1456 30.8948 77.2526 30.9533L94.7422 40.4371C94.8138 40.4761 94.8583 40.5512 94.8233 40.6323V55.3803C94.6524 55.4557 94.6123 55.5255 94.5471 55.5646L91.4755 57.4175C91.4397 57.4391 91.4 57.4494 91.3607 57.4494Z" fill="#2F1D4A"/>
<path d="M73.7709 29.5337C73.7351 29.5337 73.6984 29.5252 73.6647 29.5068L24.9857 3.11033L12.2468 10.7944C12.1427 10.8564 12.0064 10.8245 11.9433 10.721C11.8799 10.6176 11.9127 10.4827 12.0171 10.4198L24.8649 2.67006C24.9322 2.62916 25.016 2.62706 25.0859 2.66515L73.8771 29.1223C73.9841 29.1803 74.0234 29.3135 73.9647 29.4196C73.9246 29.4926 73.8491 29.5337 73.7709 29.5337Z" fill="#2F1D4A"/>
<path d="M53.517 48.9472C53.4803 48.9472 53.4436 48.9382 53.4095 48.9194L26.4942 34.0288L26.6902 42.1246C26.6932 42.2458 26.5966 42.3462 26.4744 42.3491C26.3518 42.3598 26.2512 42.2565 26.2482 42.1353L26.0432 33.6557C26.0415 33.5769 26.082 33.5033 26.1498 33.4627C26.2184 33.422 26.303 33.4207 26.3717 33.459L53.6245 48.5367C53.7311 48.5956 53.7695 48.7291 53.71 48.8348C53.6694 48.9068 53.5943 48.9472 53.517 48.9472Z" fill="#2F1D4A"/>
<path d="M27.6745 95.7111C27.5545 95.7111 27.4561 95.6161 27.4535 95.4971L26.3217 46.3285C26.3191 46.2075 26.4158 46.1072 26.5376 46.1044C26.6744 46.1136 26.7612 46.1975 26.7637 46.3187L27.8955 95.4868C27.8981 95.608 27.8014 95.7082 27.6796 95.7111L27.6745 95.7111Z" fill="#2F1D4A"/>
<path d="M11.8107 65.5329L12.44 51.8701L1.52229 54.2531C1.33679 54.3357 1.24034 54.5304 1.2974 54.7071L5.77922 68.5852C5.84663 68.7939 6.09844 68.8932 6.31877 68.798L11.8107 65.5329Z" fill="white"/>
<path d="M17.5089 51.9633L16.8358 52.7557L16.4223 54.457L17.9831 55.5017L20.0587 61.2482L21.3206 61.0336L18.1779 51.5479L17.5089 51.9633Z" fill="#ECE8F0"/>
<path d="M18.2558 57.1647L17.67 55.6484L16.0859 54.7197L16.0712 54.5898C16.0648 54.5328 15.9309 53.1765 17.2941 51.6832L17.6851 52.0342C16.7036 53.1091 16.5961 54.0729 16.5918 54.4089L18.0965 55.291L18.7478 56.9776L18.2558 57.1647Z" fill="#2F1D4A"/>
<path d="M7.32936 63.4729L20.8179 66.7091L21.9848 65.1016L22.4049 65.6179L22.0113 66.9526L23.5317 67.8309L23.3195 69.2048L22.0303 68.9753L22.6778 70.1192L22.1832 70.4698L20.5249 68.1085L11.5607 65.12L8.13769 63.9914L7.32936 63.4729Z" fill="#ECE8F0"/>
<path d="M23.7931 67.8501C23.7994 67.7511 23.7495 67.6568 23.6637 67.6057L22.3217 66.8082L22.6584 65.6732C22.6779 65.5916 22.6591 65.5057 22.6072 65.4396L22.1928 64.9185C22.1424 64.8524 22.0623 64.8152 21.9789 64.8194C21.8973 64.8218 21.821 64.8603 21.771 64.9244L20.6682 66.4478L12.3145 64.2054C12.1732 64.2211 12.0716 64.3474 12.0874 64.4874C12.0876 64.4889 12.0878 64.4904 12.0879 64.4918C12.1066 64.6349 12.2369 64.7372 12.3817 64.7221L20.851 66.9677C20.9214 66.9591 20.9851 66.9222 21.0271 66.8656L21.9948 65.5309L22.1105 65.6751L21.758 66.8822C21.7253 66.9965 21.7748 67.1183 21.8783 67.1782L23.242 67.9667L23.0992 68.9017L22.0595 68.7165C21.959 68.6982 21.8565 68.7371 21.794 68.8173C21.7381 68.9008 21.7302 69.0072 21.7733 69.0978L22.3093 70.0404L22.2205 70.1019L20.7145 67.9606C20.6624 67.8845 20.5729 67.842 20.4804 67.8496L8.83201 64.2288C8.68588 64.2383 8.5752 64.3636 8.58484 64.5085C8.59448 64.6534 8.7208 64.7632 8.86692 64.7537L20.3671 68.3846L21.9399 70.6195C21.9789 70.6785 22.0407 70.719 22.1107 70.7312C22.1782 70.7411 22.247 70.7256 22.3035 70.6877L22.8034 70.3375C22.9128 70.2607 22.9463 70.1146 22.8812 69.9985L22.5041 69.3286L23.247 69.4662C23.392 69.4888 23.5283 69.3916 23.5528 69.2482L23.765 67.8742L23.7931 67.8501Z" fill="#2F1D4A"/>
<path d="M23.6843 68.5421C23.6941 68.4247 23.6217 68.3158 23.5089 68.2787L22.0387 67.7905C21.8966 67.7456 21.7447 67.8234 21.6994 67.9643C21.6541 68.1052 21.7325 68.256 21.8746 68.3009L23.3396 68.7887C23.4787 68.8317 23.6269 68.7566 23.6733 68.6197L23.6843 68.5421Z" fill="#2F1D4A"/>
<path d="M13.1673 53.045L13.0777 52.3472L4.77923 54.0191L1.77426 54.6242L6.14107 68.007L8.21727 66.9501L14.5295 63.7354L13.2821 53.9444L13.1673 53.045Z" fill="white"/>
<path d="M6.99923 53.5673L22.0583 54.3134L23.3445 55.8287L23.724 55.2824L23.2297 53.9811L24.6787 52.9912L24.3623 51.6372L23.0943 51.9628L23.6527 50.7735L23.1327 50.4611L21.6594 53.1919H12.4155H9.58218L6.99923 53.5673Z" fill="#ECE8F0"/>
<path d="M19.8802 60.9058L20.1991 61.7854L13.9771 59.2768L14.1236 60.2453L15.0223 60.6383L21.1404 63.3731C21.3627 63.4722 21.6239 63.3738 21.7237 63.1533C21.7645 63.0633 21.7734 62.9622 21.749 62.8665L21.21 60.708L19.8802 60.9058Z" fill="#ECE8F0"/>
<path d="M13.5045 55.6968L19.7379 57.4031L17.5436 51.6085L16.2091 50.4024L17.0282 48.6945L18.3812 47.6934L18.9721 48.1499L18.8744 49.7438L21.6422 58.6157C21.7126 58.8501 21.5781 59.0967 21.3417 59.1665C21.2514 59.1932 21.1548 59.1908 21.0659 59.1597L14.422 56.777L13.6197 56.4592L13.5045 55.6968Z" fill="#ECE8F0"/>
<path d="M7.06848 65.609C7.40868 65.7415 7.57616 66.1225 7.4425 66.4599C7.30884 66.7973 6.92474 66.9634 6.58453 66.8308C6.24433 66.6983 6.07685 66.3174 6.21052 65.98C6.22311 65.9482 6.23814 65.9175 6.25555 65.888C6.40482 65.5911 6.76611 65.4671 7.06848 65.609Z" fill="#E0557A"/>
<path d="M6.5246 63.7356C6.86396 63.8702 7.02901 64.2522 6.89327 64.5888C6.75749 64.9253 6.37233 65.089 6.03296 64.9544C5.6936 64.8197 5.52855 64.4378 5.66429 64.1012C5.67622 64.0716 5.69032 64.0429 5.70646 64.0153C5.8555 63.7152 6.22068 63.5903 6.5246 63.7356Z" fill="#EAB332"/>
<path d="M5.9009 61.8218C6.24027 61.9565 6.40531 62.3384 6.26957 62.675C6.13379 63.0116 5.74863 63.1752 5.40927 63.0406C5.0699 62.906 4.90486 62.524 5.0406 62.1874C5.05253 62.1579 5.06663 62.1291 5.08276 62.1016C5.2318 61.8014 5.59698 61.6766 5.9009 61.8218Z" fill="#F48352"/>
<path d="M13.3628 52.3048L13.4688 53.0054C13.4844 53.1464 13.3832 53.2739 13.2413 53.292C13.1076 53.3183 12.9777 53.232 12.9512 53.0993C12.9491 53.0887 12.9477 53.078 12.947 53.0672L12.8831 52.6447L2.14719 54.8109L6.32646 67.6211L14.276 63.5729L13.0515 53.9681C13.0357 53.8262 13.1358 53.6974 13.2782 53.6763C13.4188 53.6552 13.5499 53.7512 13.5711 53.8906C13.5717 53.8941 13.5721 53.8976 13.5725 53.9012L14.8199 63.6921C14.8349 63.8007 14.7782 63.9067 14.6792 63.9553L6.29588 68.2261C6.23099 68.2669 6.15179 68.2787 6.07771 68.2586C6.00796 68.2272 5.95474 68.1683 5.93096 68.0961L1.50987 54.7056C1.48402 54.6348 1.49162 54.5563 1.53065 54.4918C1.56809 54.4263 1.63377 54.3816 1.70882 54.3704L13.0122 52.0935C13.0831 52.0784 13.1571 52.0942 13.2153 52.137C13.2882 52.1669 13.3428 52.2291 13.3628 52.3048Z" fill="#2F1D4A"/>
<path d="M10.9636 61.0211C10.9797 61.1338 10.9216 61.2441 10.8192 61.2954C10.6887 61.3583 10.5316 61.3043 10.4682 61.1749C10.4673 61.1729 10.4663 61.171 10.4654 61.169L9.85324 59.8959C9.79171 59.7656 9.84594 59.6104 9.97554 59.5458C10.1056 59.4853 10.2606 59.5397 10.3233 59.6679L10.9415 60.9454L10.9636 61.0211Z" fill="#2F1D4A"/>
<path d="M9.25674 60.0581L9.51549 61.7684C9.53701 61.9106 9.43818 62.0433 9.29471 62.0646C9.15124 62.086 9.01753 61.9879 8.99601 61.8457L8.73726 60.1354C8.71574 59.9931 8.81457 59.8605 8.95804 59.8392C9.10151 59.8178 9.23522 59.9158 9.25674 60.0581Z" fill="#2F1D4A"/>
<path d="M9.7304 58.0264C9.81363 58.1443 9.78481 58.3067 9.66605 58.3892L8.61215 59.1216C8.49334 59.2041 8.32958 59.1755 8.24635 59.0578C8.16312 58.94 8.19194 58.7775 8.3107 58.695L9.36461 57.9626C9.48341 57.8801 9.64718 57.9087 9.7304 58.0264Z" fill="#2F1D4A"/>
<path d="M24.9392 52.9527C24.9531 53.051 24.9105 53.1488 24.8288 53.2062L23.5516 54.102L23.9739 55.2086C23.9996 55.2884 23.9874 55.3755 23.9407 55.4453L23.5672 55.996C23.522 56.0657 23.445 56.1087 23.3615 56.1109C23.2799 56.1146 23.2009 56.0819 23.1462 56.0218L21.9304 54.5855L6.98944 53.8482C6.84738 53.8432 6.73635 53.7248 6.74148 53.584C6.74152 53.5825 6.74161 53.581 6.74165 53.5795C6.74926 53.4354 6.87151 53.3237 7.01698 53.3279L22.0729 54.0534C22.1438 54.0566 22.2101 54.0887 22.2563 54.142L23.323 55.4002L23.4274 55.2477L22.9838 54.0706C22.9425 53.959 22.9826 53.8339 23.0812 53.7664L24.3808 52.8777L24.167 51.9561L23.1445 52.2188C23.0456 52.2446 22.9405 52.2135 22.8721 52.1382C22.81 52.0592 22.794 51.9537 22.83 51.86L23.2926 50.88L23.1993 50.8253L21.861 53.0735C21.8148 53.1534 21.7288 53.2024 21.636 53.1919H12.393C12.2465 53.3353 12.1266 53.2187 12.1252 53.0735C12.1238 52.9282 12.2413 52.8093 12.3878 52.7536H21.4823L22.8801 50.3303C22.9144 50.2685 22.9729 50.2235 23.0419 50.2061C23.1084 50.1912 23.1782 50.2015 23.2375 50.235L23.7627 50.5466C23.8775 50.615 23.9221 50.7582 23.866 50.8789L23.5411 51.5751L24.2715 51.3822C24.4143 51.3487 24.5576 51.4354 24.593 51.5766L24.9094 52.9307L24.9392 52.9527Z" fill="#2F1D4A"/>
<path d="M24.7773 52.2709C24.7961 52.3873 24.7321 52.5013 24.6225 52.5467L23.1938 53.1439C23.0555 53.1993 22.898 53.1332 22.8421 52.996C22.7861 52.8589 22.8529 52.7027 22.9912 52.6473L24.4147 52.0509C24.5501 51.9975 24.7037 52.0613 24.7604 52.1944L24.7773 52.2709Z" fill="#2F1D4A"/>
<path d="M1.77337 54.6241L6.14018 68.0069L8.21638 66.95L4.77834 54.019L1.77337 54.6241ZM7.06811 65.6091C7.40832 65.7416 7.57579 66.1225 7.44213 66.4599C7.30847 66.7973 6.92437 66.9634 6.58416 66.8309C6.24396 66.6983 6.07649 66.3174 6.21015 65.98C6.22274 65.9482 6.23777 65.9175 6.25519 65.888C6.40445 65.5911 6.76574 65.4671 7.06811 65.6091ZM6.52445 63.7357C6.86382 63.8704 7.02886 64.2523 6.89312 64.5889C6.75734 64.9255 6.37218 65.0891 6.03282 64.9545C5.69345 64.8199 5.52841 64.4379 5.66414 64.1013C5.67608 64.0718 5.69018 64.043 5.70631 64.0155C5.85535 63.7153 6.22053 63.5905 6.52445 63.7357ZM5.9003 61.8217C6.23967 61.9564 6.40471 62.3383 6.26898 62.6749C6.13319 63.0114 5.74804 63.1751 5.40867 63.0405C5.0693 62.9059 4.90426 62.5239 5.04 62.1873C5.05193 62.1577 5.06603 62.129 5.08217 62.1014C5.23121 61.8013 5.59639 61.6764 5.9003 61.8217Z" fill="#2F1D4A"/>
<path d="M20.459 61.7471C20.4797 61.8895 20.38 62.0215 20.2365 62.042C20.1914 62.0485 20.1453 62.0431 20.103 62.0266L13.8809 59.5179C13.7474 59.4646 13.682 59.3146 13.7345 59.1816C13.7902 59.0481 13.9431 58.9833 14.0789 59.0355L19.7721 61.3489L19.1321 59.611C19.0846 59.4721 19.1597 59.3213 19.2998 59.2742C19.4361 59.2284 19.5844 59.2975 19.6359 59.4307L20.4707 61.719L20.459 61.7471Z" fill="#2F1D4A"/>
<path d="M22.0198 62.8685C22.0774 63.2527 21.8099 63.6104 21.4226 63.6675C21.2905 63.6869 21.1556 63.669 21.0334 63.6158L14.9036 60.9091C14.7701 60.8504 14.7097 60.6955 14.7689 60.563C14.8281 60.4305 14.9843 60.3707 15.1179 60.4294L21.2477 63.1361C21.3101 63.1644 21.3834 63.1535 21.4347 63.1083C21.4881 63.0635 21.5122 62.993 21.4973 62.9252L20.5396 59.1223C20.5038 58.9822 20.5892 58.8398 20.7305 58.8042C20.8718 58.7687 21.0154 58.8534 21.0513 58.9935L22.0089 62.7964L22.0198 62.8685Z" fill="#2F1D4A"/>
<path d="M19.9975 57.3644C20.0179 57.5068 19.9181 57.6387 19.7745 57.659C19.7375 57.6642 19.6997 57.6615 19.6638 57.6511L13.4355 55.944C13.2923 55.9217 13.1944 55.7884 13.2169 55.6462C13.2394 55.5041 13.3738 55.407 13.5171 55.4294C13.5361 55.4323 13.5546 55.4373 13.5724 55.4443L19.2953 57.0053L18.1843 54.2261C18.1313 54.0922 18.1978 53.941 18.3328 53.8885C18.3335 53.8882 18.3342 53.8879 18.335 53.8877C18.4659 53.8329 18.6169 53.8937 18.6721 54.0236C18.6733 54.0263 18.6744 54.0291 18.6754 54.0319L19.9622 57.3064L19.9975 57.3644Z" fill="#2F1D4A"/>
<path d="M19.3436 48.3385C19.3328 48.8125 19.2668 49.2836 19.147 49.7425L19.8806 52.0986C19.9227 52.2332 19.8469 52.3762 19.7111 52.418C19.7094 52.4186 19.7077 52.419 19.706 52.4195C19.5741 52.4636 19.4311 52.3933 19.3866 52.2624C19.3854 52.2588 19.3843 52.2552 19.3832 52.2516L18.6292 49.8302C18.6096 49.7884 18.6025 49.7419 18.6089 49.6962C18.7187 49.2774 18.7873 48.8492 18.8138 48.4173C18.7336 48.2317 18.6215 48.0613 18.4827 47.9135C18.0053 48.2689 16.6823 49.3191 16.4777 50.5295L17.6582 51.5917C17.6903 51.618 17.7139 51.6529 17.7265 51.6922L18.2319 52.8917C18.2849 53.0256 18.2184 53.1768 18.0835 53.2293C18.0828 53.2296 18.082 53.2299 18.0813 53.2302C17.9471 53.2831 17.795 53.2187 17.7408 53.0859L17.2803 51.9377L16.0489 50.8198C15.9874 50.7641 15.9555 50.6832 15.9627 50.6008C16.1483 48.8086 18.3105 47.4071 18.4029 47.3512C18.5073 47.2842 18.6448 47.2989 18.7323 47.3865C19.0121 47.649 19.222 47.976 19.3436 48.3385Z" fill="#2F1D4A"/>
<path d="M21.9168 58.6431C21.9505 58.8684 21.8721 59.096 21.7064 59.2538C21.5125 59.44 21.2278 59.4988 20.975 59.4047L14.3312 57.022C14.1949 56.973 14.1245 56.8236 14.1739 56.6884C14.1741 56.688 14.1742 56.6876 14.1744 56.6872C14.2214 56.5541 14.3683 56.4841 14.5024 56.5308C14.5039 56.5313 14.5053 56.5318 14.5068 56.5324L21.1558 58.9143C21.2178 58.9455 21.2928 58.9344 21.3428 58.8864C21.3943 58.8413 21.4129 58.7698 21.3898 58.7056L20.0262 54.3258C19.9862 54.1885 20.0629 54.0444 20.1999 53.9998C20.3348 53.9553 20.4805 54.0276 20.5254 54.1613C20.5266 54.1649 20.5277 54.1685 20.5287 54.1721L21.8939 58.5622L21.9168 58.6431Z" fill="#2F1D4A"/>
<path opacity="0.5" d="M60.5804 67.3297C61.7425 66.3265 62.3828 65.1695 62.0107 64.7455C61.6385 64.3215 60.3947 64.791 59.2327 65.7942C58.0706 66.7974 57.4303 67.9543 57.8024 68.3784C58.1746 68.8024 59.4184 68.3329 60.5804 67.3297Z" fill="#B19CD1"/>
<path opacity="0.5" d="M73.0943 63.121C73.4509 62.9369 73.6732 62.6602 73.5907 62.503C73.5082 62.3458 73.1522 62.3676 72.7955 62.5517C72.4389 62.7358 72.2166 63.0125 72.2991 63.1697C72.3816 63.3269 72.7376 63.3051 73.0943 63.121Z" fill="#B19CD1"/>
<path d="M77.8419 83.0495L77.536 82.456L78.2486 82.1359L78.4247 82.0582L89.9164 76.965L91.433 76.1332L91.7617 76.517L90.7074 77.4201L92.8463 77.3021L92.8995 77.8418L90.9166 78.2452L92.7725 78.8719L92.6612 79.3888L90.3422 78.8428L90.7158 80.1601L90.2729 80.3089L89.3956 78.9271L87.0543 79.7624L85.7884 80.2115L78.5143 82.8087L77.8419 83.0495Z" fill="#FFE4B7"/>
<path d="M78.8866 81.8165L82.0687 80.5361L82.5828 81.4806L79.4813 82.517L78.8866 81.8165Z" fill="#F6B969"/>
<path d="M77.5154 82.6096L77.5698 81.9453L78.3457 82.0446L78.5367 82.0703L78.2149 82.7554L77.5154 82.6096Z" fill="#F6B969"/>
<path d="M77.8818 83.2513C77.7911 83.2513 77.7061 83.1956 77.6737 83.1062C77.6327 82.9923 77.6923 82.8669 77.8071 82.8258L85.7143 80.0065C85.8274 79.9667 85.9556 80.0245 85.997 80.1388C86.038 80.2527 85.9784 80.3781 85.8636 80.4192L77.9564 83.2384C77.9318 83.247 77.9068 83.2513 77.8818 83.2513Z" fill="#2F1D4A"/>
<path d="M78.2476 82.3565C78.1634 82.3565 78.0827 82.3081 78.046 82.2268C77.9959 82.1163 78.046 81.9866 78.1574 81.9374L89.8246 76.7646L91.3275 75.9423C91.4204 75.8922 91.5356 75.9127 91.6033 75.9928L91.9292 76.3768C92.0069 76.4688 91.9961 76.6054 91.9046 76.6837L91.3443 77.1649L92.8344 77.0827C92.9569 77.0724 93.0549 77.1632 93.0661 77.2796L93.1205 77.8207C93.1322 77.9324 93.0562 78.0347 92.9452 78.0574L91.7587 78.2979L92.8455 78.6635C92.9521 78.6995 93.0143 78.8087 92.9906 78.9174L92.8774 79.437C92.8649 79.4948 92.8295 79.5449 92.7795 79.5761C92.7289 79.6074 92.6681 79.6168 92.6107 79.604L90.6567 79.1434L90.9277 80.1001C90.9593 80.2118 90.8975 80.3291 90.7862 80.3668L90.3459 80.5157C90.2496 80.547 90.1426 80.5106 90.0878 80.4254L89.3018 79.193L87.1302 79.9674C87.0162 80.0072 86.8889 79.9494 86.8475 79.8351C86.8065 79.7212 86.866 79.5958 86.9809 79.5547L89.3191 78.7209C89.4166 78.6871 89.5249 78.7234 89.5806 78.8099L90.3684 80.0449L90.4456 80.0187L90.1297 78.9032C90.1085 78.8287 90.1288 78.7482 90.1832 78.6922C90.2372 78.637 90.3174 78.6134 90.3934 78.631L92.4933 79.1258L92.5171 79.0158L90.844 78.4533C90.7495 78.4216 90.6882 78.3309 90.6942 78.232C90.7003 78.1331 90.7728 78.0509 90.8703 78.0308L92.6612 77.6674L92.6474 77.5317L90.7219 77.6378C90.627 77.6481 90.5406 77.5882 90.5048 77.5013C90.4694 77.4144 90.4936 77.3147 90.5652 77.2535L91.4505 76.4936L91.3819 76.4127L90.0213 77.1563L78.3377 82.3372C78.3084 82.3505 78.2778 82.3565 78.2476 82.3565Z" fill="#2F1D4A"/>
<path d="M68.067 77.5155L66.0143 75.407L58.4378 68.1128C58.4378 68.1128 61.1796 65.0544 61.6066 65.2392C62.2248 65.5069 60.8415 68.2648 60.8415 68.2648L66.3091 74.4132L68.3306 76.803L68.067 77.5155Z" fill="#FFE4B7"/>
<path d="M67.0785 76.2724L65.0265 74.1631L65.3217 73.1695L67.3424 75.56L67.0785 76.2724Z" fill="#F6B969"/>
<path d="M68.2026 77.6701C68.1473 77.6701 68.0917 77.6496 68.0489 77.6085L58.2904 68.238C58.2058 68.1567 58.2002 68.0244 58.2775 67.9367C59.5176 66.5232 61.0857 64.8546 61.5756 64.9338C61.7397 64.9603 61.8704 65.0558 61.9434 65.2031C62.2529 65.8276 61.4034 67.5446 61.0913 68.1357L68.6346 76.5935C68.7158 76.6842 68.7072 76.8225 68.6156 76.9026C68.525 76.9831 68.3847 76.9749 68.304 76.8837L60.6584 68.3121C60.597 68.2432 60.5854 68.1439 60.6298 68.0629C61.1931 67.0279 61.7042 65.7141 61.5466 65.3961C61.5371 65.3772 61.5298 65.3704 61.5039 65.3661C61.235 65.4243 59.8874 66.7838 58.7487 68.0681L68.3561 77.2934C68.4438 77.3777 68.4464 77.5164 68.3613 77.6033C68.3177 77.6478 68.2605 77.6701 68.2026 77.6701Z" fill="#2F1D4A"/>
<path d="M71.1077 76.4035L71.6107 73.5154L73.0704 63.1439C73.0704 63.1439 77.1781 63.5313 77.2799 63.9823C77.4273 64.6351 74.3665 65.1572 74.3665 65.1572L72.5935 73.1643L71.8431 76.1936L71.1077 76.4035Z" fill="#FFE4B7"/>
<path d="M71.3422 75.7962L71.8452 72.9081L72.828 72.557L72.0776 75.5863L71.3422 75.7962Z" fill="#F6B969"/>
<path d="M71.241 76.6931C71.2306 76.6931 71.2207 76.6922 71.2104 76.6909C71.0895 76.6742 71.0049 76.5638 71.0217 76.4439L72.8821 63.0997C72.898 62.9846 72.9969 62.9037 73.1195 62.9114C75.0014 63.0685 77.2904 63.3467 77.511 63.7765C77.586 63.9237 77.5856 64.0851 77.5088 64.2302C77.1833 64.8466 75.285 65.1814 74.6198 65.2807L72.1936 76.3129C72.1677 76.4315 72.052 76.5073 71.9307 76.4803C71.8116 76.4546 71.7361 76.3377 71.762 76.2196L74.2206 65.0389C74.2404 64.949 74.3142 64.8809 74.4062 64.8685C75.5811 64.7084 76.9516 64.3407 77.1173 64.0269C77.1273 64.0081 77.1285 63.9983 77.1164 63.9751C76.9105 63.7941 75.0083 63.5188 73.2912 63.366L71.4594 76.5039C71.4443 76.6135 71.3493 76.6931 71.241 76.6931Z" fill="#2F1D4A"/>
<path d="M62.1284 83.6287C62.3021 83.7065 63.8291 84.4001 65.8464 85.3168L66.7108 85.7096C70.9054 87.6159 76.5293 90.1724 77.054 90.4072C77.8829 90.7781 78.2358 90.4413 78.3091 89.7319C78.3361 89.471 78.557 87.5599 78.8243 85.2299C78.4845 84.941 78.0916 84.5922 77.6707 84.1913L79.0456 83.2959C79.1291 82.5637 79.2134 81.8235 79.2943 81.1076L79.3989 80.1795C79.4442 79.7761 79.4878 79.3859 79.529 79.0155C79.3342 78.8528 79.1162 78.6568 78.8904 78.441L79.67 77.8978C79.7895 76.7934 79.8693 75.8395 79.8636 75.7544C79.8389 75.3837 79.643 75.2881 79.4398 75.2961C79.3676 75.299 77.7954 75.3661 75.7845 75.4547L74.7889 76.1644C74.6959 75.9502 74.6082 75.7321 74.5267 75.5105C73.3302 75.5637 72.0638 75.621 70.9114 75.6748L69.6313 76.041L69.5261 75.7407C68.0181 75.814 66.9277 75.8729 66.8454 75.8938C66.5633 75.9655 66.2438 76.1194 66.0113 76.4112C65.8576 76.604 64.1997 79.0002 62.9942 80.7575L62.2388 81.8623C61.9963 82.2186 61.8233 82.4755 61.7606 82.5735C61.4158 83.1118 61.5896 83.3876 62.1284 83.6287Z" fill="#B29DD2"/>
<path d="M76.8933 81.1995C75.8715 80.1213 74.3644 77.7353 73.8617 76.4675L72.3636 76.5401C72.8031 77.5336 74.1749 79.9757 74.8786 81.1166L76.8933 81.1995Z" fill="#8274A7"/>
<path d="M69.0444 77.9036L69.6637 76.0244L70.8342 75.6792C71.2188 76.5747 72.6286 79.3415 73.5584 80.9378L71.4264 80.7823L69.0444 77.9036Z" fill="#8274A7"/>
<path d="M73.5662 80.8819L73.5042 80.7689L71.2981 80.635L77.7435 88.4975L77.993 85.8952C76.9592 84.9975 75.5229 83.6186 74.2947 81.9426C74.0424 81.5984 73.7992 81.2424 73.5662 80.8819Z" fill="#8274A7"/>
<path d="M69.466 78.3924L68.0962 76.7468L70.7038 76.4708L69.466 78.3924Z" fill="#8274A7"/>
<path d="M79.0454 83.2963C78.517 82.8316 76.7186 80.9529 76.7186 80.9529L74.7308 80.8334C74.7927 80.9214 74.8554 81.0087 74.9188 81.0953C75.8058 82.3056 76.7982 83.3607 77.6705 84.1917L79.0454 83.2963Z" fill="#8274A7"/>
<path d="M76.9279 77.4994C77.4817 78.2731 78.0954 78.9407 78.6112 79.423L78.5424 80.1232L78.4358 81.3077L77.2519 80.0429C76.3542 78.9787 75.4404 77.6643 74.789 76.1644L75.7845 75.4546C75.9705 75.9244 76.2083 76.3826 76.475 76.8177C76.475 76.8177 76.8257 77.3588 76.9279 77.4994Z" fill="#8274A7"/>
<path d="M79.6702 77.8977L78.8378 77.118L78.9258 76.2218L77.2162 76.3047C77.4204 76.7077 77.6525 77.0777 77.9192 77.4013C78.2455 77.7972 78.5793 78.147 78.8931 78.4469L79.6702 77.8977Z" fill="#8274A7"/>
<path d="M74.6248 86.4338C74.5613 86.4338 74.4987 86.4068 74.4547 86.3546L69.6946 80.6796C69.6169 80.5868 69.6294 80.4485 69.7235 80.371C69.8167 80.2944 69.9562 80.3068 70.0347 80.3997L74.7948 86.0746C74.8725 86.1675 74.86 86.3057 74.7659 86.3832C74.7249 86.417 74.6748 86.4338 74.6248 86.4338Z" fill="#2F1D4A"/>
<path d="M77.4903 89.8501C77.4269 89.8501 77.3643 89.8231 77.3203 89.7709L75.1081 87.1335C75.0304 87.0407 75.0429 86.9024 75.137 86.8249C75.2302 86.7487 75.3692 86.7607 75.4482 86.8536L77.6604 89.4909C77.7381 89.5838 77.7256 89.722 77.6315 89.7995C77.5904 89.8333 77.5404 89.8501 77.4903 89.8501Z" fill="#2F1D4A"/>
<path d="M79.3996 80.3989C79.3914 80.3989 79.3832 80.3984 79.3746 80.3976C79.2533 80.3843 79.1661 80.2756 79.1795 80.1553L79.2965 79.107C78.7259 78.6216 78.2053 78.095 77.7482 77.5403C77.4849 77.2209 77.2393 76.8382 77.0192 76.4033C76.9855 76.3369 76.9877 76.2586 77.0256 76.1944C77.0632 76.1302 77.1309 76.0895 77.2056 76.0861L78.9149 76.003C78.9814 75.997 79.0418 76.0244 79.0858 76.0706C79.1298 76.1169 79.1519 76.1798 79.1458 76.2432L79.0681 77.0325L79.4971 77.4341C79.59 76.53 79.6448 75.848 79.6435 75.7646C79.6258 75.509 79.5248 75.5112 79.4492 75.5154C79.3797 75.5176 77.967 75.5779 76.1105 75.6597C76.2625 76.0017 76.4481 76.3519 76.6639 76.7037C76.7274 76.8073 76.6945 76.9418 76.5901 77.0047C76.486 77.0676 76.3497 77.0355 76.2866 76.9315C75.997 76.4597 75.7592 75.9897 75.5787 75.5347C75.5528 75.4687 75.5606 75.3947 75.5995 75.3352C75.6383 75.2757 75.7035 75.2389 75.7747 75.2359C77.787 75.1468 79.3603 75.0796 79.4324 75.0771C79.811 75.0655 80.0561 75.3095 80.0846 75.7397C80.0929 75.8626 79.9983 76.9224 79.89 77.9211C79.8809 78.0038 79.8257 78.0744 79.7467 78.1031C79.6699 78.133 79.5797 78.1146 79.5188 78.0568L78.6862 77.2773C78.6361 77.2311 78.6111 77.1643 78.6175 77.0967L78.681 76.4528L77.5756 76.5067C77.737 76.7897 77.9092 77.0431 78.0901 77.2627C78.5541 77.8252 79.0863 78.3586 79.6716 78.8474C79.7277 78.8945 79.7571 78.9664 79.7489 79.0392L79.619 80.2039C79.6064 80.3157 79.5106 80.3989 79.3996 80.3989Z" fill="#2F1D4A"/>
<path d="M78.543 80.3424C78.5357 80.3424 78.5284 80.342 78.521 80.3415C78.3997 80.3296 78.3108 80.2225 78.3225 80.1018L78.3807 79.5085C77.7997 78.9542 77.2222 78.2898 76.7479 77.6263C76.6771 77.5279 76.7004 77.3909 76.8001 77.3211C76.8989 77.2513 77.0375 77.274 77.1079 77.3729C77.5878 78.0428 78.1757 78.7145 78.7628 79.2641C78.8124 79.3104 78.8379 79.3771 78.8314 79.4448L78.7628 80.1447C78.7515 80.2577 78.6553 80.3424 78.543 80.3424Z" fill="#2F1D4A"/>
<path d="M78.4253 81.5373C78.3674 81.5373 78.3109 81.5146 78.2686 81.4726L78.2172 81.4238C78.0683 81.2856 77.6733 80.9179 77.0591 80.1568C76.9832 80.0622 76.9983 79.9243 77.0937 79.8486C77.1899 79.7741 77.3285 79.7891 77.4044 79.8828C77.7726 80.3395 78.0528 80.6435 78.25 80.8434L78.3277 80.0484C78.3398 79.9282 78.4525 79.8468 78.5695 79.8515C78.6907 79.8635 78.7797 79.9706 78.768 80.0913L78.6454 81.3395C78.6368 81.4239 78.5802 81.4958 78.4995 81.5245C78.4754 81.533 78.4503 81.5373 78.4253 81.5373Z" fill="#2F1D4A"/>
<path d="M77.252 80.2624C77.189 80.2624 77.1264 80.2359 77.0824 80.1837C75.8617 78.7363 74.9514 77.2407 74.3756 75.7364C73.2274 75.7878 72.0223 75.8426 70.9216 75.8935C70.8059 75.9072 70.6963 75.8058 70.6907 75.6851C70.6846 75.5639 70.7791 75.4616 70.9009 75.456C72.0533 75.4025 73.3202 75.3452 74.5167 75.2917C74.6091 75.2745 74.701 75.3452 74.7343 75.4355C75.2885 76.9423 76.1928 78.4457 77.4217 79.9028C77.4998 79.9953 77.4873 80.1335 77.3936 80.2114C77.3526 80.2457 77.3021 80.2624 77.252 80.2624Z" fill="#2F1D4A"/>
<path d="M72.8769 80.0025C72.8009 80.0025 72.7267 79.9631 72.6857 79.8929C71.7762 78.3326 71.0774 76.8215 70.651 75.8292C70.603 75.7175 70.6553 75.5891 70.7675 75.5416C70.8802 75.4941 71.0097 75.5463 71.0576 75.6572C71.4793 76.6388 72.1699 78.1323 73.0681 79.6738C73.1294 79.7787 73.0931 79.9126 72.9874 79.973C72.9529 79.9931 72.9145 80.0025 72.8769 80.0025Z" fill="#2F1D4A"/>
<path d="M77.7205 88.7064C77.6549 88.7064 77.5919 88.6777 77.5491 88.6255L71.1039 80.7631C71.0267 80.6694 71.0413 80.5311 71.1359 80.455C71.2304 80.3783 71.3698 80.3929 71.4466 80.4866L77.5517 87.9338L77.7395 85.9758C76.7295 85.0914 75.3055 83.7156 74.093 82.0611C73.8448 81.7225 73.5975 81.3621 73.3575 80.9896C73.2915 80.8878 73.3216 80.7521 73.4244 80.687C73.5267 80.6215 73.664 80.6506 73.7296 80.7534C73.9652 81.1185 74.2078 81.4721 74.4504 81.8034C75.6733 83.472 77.1184 84.8543 78.1155 85.7202C78.169 85.7665 78.1966 85.8358 78.1901 85.9056L77.9406 88.5078C77.932 88.5964 77.8703 88.6713 77.7844 88.697C77.7632 88.7034 77.7416 88.7064 77.7205 88.7064Z" fill="#2F1D4A"/>
<path d="M79.0455 83.5151C78.9924 83.5151 78.9398 83.4962 78.8988 83.4599C78.3472 82.9744 77.5055 82.1851 76.6275 81.1813C76.5787 81.1299 75.2942 79.7545 73.729 76.6934L72.6961 76.743C73.1934 77.8385 73.7239 78.8449 74.2755 79.7391C74.339 79.8423 74.3061 79.9771 74.2021 80.0405C74.0998 80.103 73.963 80.0717 73.8982 79.9677C73.2879 78.978 72.7035 77.8543 72.1609 76.6279C72.1315 76.5616 72.1371 76.4858 72.1756 76.4242C72.2135 76.363 72.28 76.3245 72.3525 76.321L73.8507 76.2487C73.9327 76.2371 74.0195 76.2919 74.0592 76.369C75.6209 79.4562 76.9425 80.8739 76.9559 80.8881C77.6677 81.7018 78.3523 82.3701 78.8741 82.847L79.0748 81.0833C79.0886 80.9631 79.1983 80.8775 79.3191 80.8899C79.4404 80.9035 79.5276 81.0118 79.5142 81.1321L79.2652 83.3209C79.2557 83.4022 79.2017 83.4716 79.1244 83.5007C79.099 83.5105 79.0723 83.5151 79.0455 83.5151Z" fill="#2F1D4A"/>
<path d="M78.8883 78.6612C78.8188 78.6612 78.7506 78.6287 78.7074 78.5679C78.637 78.469 78.6612 78.3324 78.7614 78.2626L79.5431 77.7181C79.6424 77.6488 79.7805 77.6723 79.8509 77.7716C79.9212 77.8705 79.897 78.0071 79.7969 78.0769L79.0152 78.6214C78.9768 78.6483 78.9323 78.6612 78.8883 78.6612Z" fill="#2F1D4A"/>
<path d="M77.6707 84.4102C77.5991 84.4102 77.5282 84.3755 77.4859 84.3113C77.419 84.2102 77.4475 84.0741 77.5494 84.0078L78.9242 83.1127C79.0261 83.0459 79.1629 83.0737 79.2302 83.1756C79.2972 83.2767 79.2687 83.4128 79.1668 83.4791L77.792 84.3742C77.7544 84.3986 77.7126 84.4102 77.6707 84.4102Z" fill="#2F1D4A"/>
<path d="M67.9164 78.4355C67.8529 78.4355 67.7903 78.4085 67.7463 78.3563L66.6305 77.0263C66.5528 76.9334 66.5653 76.7951 66.6594 76.7176C66.7527 76.641 66.8921 76.653 66.9707 76.7463L68.0864 78.0763C68.1641 78.1692 68.1516 78.3074 68.0575 78.3849C68.0165 78.4187 67.9664 78.4355 67.9164 78.4355Z" fill="#2F1D4A"/>
<path d="M69.1008 79.8482C69.0373 79.8482 68.9747 79.8213 68.9307 79.769L68.1818 78.8765C68.1041 78.7836 68.1166 78.6454 68.2107 78.5679C68.3039 78.4917 68.4434 78.5032 68.5219 78.5966L69.2708 79.4887C69.3485 79.582 69.336 79.7202 69.2419 79.7977C69.2009 79.8315 69.1508 79.8482 69.1008 79.8482Z" fill="#2F1D4A"/>
<path d="M71.3029 80.881C71.2386 80.881 71.1752 80.8532 71.1316 80.8001L68.0005 76.9783C67.9232 76.8841 67.9379 76.7462 68.0324 76.6701C68.127 76.5939 68.2664 76.6076 68.3432 76.7018L71.4743 80.5236C71.5516 80.6177 71.5369 80.7556 71.4423 80.8318C71.4013 80.8647 71.3521 80.881 71.3029 80.881Z" fill="#2F1D4A"/>
<path d="M68.5953 77.5742C68.5314 77.5742 68.4675 77.5464 68.4239 77.4933L67.9254 76.8855C67.8728 76.8213 67.8611 76.7335 67.8948 76.6581C67.9289 76.5824 68.0027 76.5323 68.086 76.5284L69.1034 76.4788C69.2199 76.4616 69.3287 76.5661 69.3347 76.6868C69.3407 76.8075 69.2471 76.9103 69.125 76.9162L68.5436 76.9449L68.7667 77.2167C68.844 77.3105 68.8293 77.4487 68.7348 77.5249C68.6937 77.5579 68.6445 77.5742 68.5953 77.5742Z" fill="#2F1D4A"/>
<path d="M62.9937 80.9768C62.9505 80.9768 62.9073 80.9644 62.8694 80.9387C62.7684 80.8706 62.7425 80.7345 62.8111 80.6344C63.942 78.9859 65.6707 76.4847 65.8373 76.2754C66.1287 75.9102 66.5163 75.751 66.79 75.6816C66.8366 75.6697 66.9238 75.6474 69.5149 75.5219C69.6086 75.5087 69.7027 75.5767 69.7346 75.6688L69.8399 75.9693C69.8796 76.0835 69.8188 76.2086 69.7035 76.2484C69.5874 76.2869 69.4623 76.2278 69.4221 76.1131L69.3712 75.9676C67.3585 76.066 66.9519 76.0977 66.8906 76.1084C66.6916 76.1589 66.3985 76.2783 66.184 76.5472C66.0437 76.7235 64.4523 79.0214 63.1763 80.8809C63.1336 80.9434 63.064 80.9768 62.9937 80.9768Z" fill="#2F1D4A"/>
<path d="M65.8462 85.5363C65.8151 85.5363 65.7841 85.5299 65.7543 85.5161C63.7376 84.5997 62.2109 83.9061 62.0374 83.8283C61.7841 83.7153 61.4806 83.5457 61.3882 83.2392C61.32 83.0136 61.3809 82.7572 61.5738 82.4558C61.6368 82.3574 61.8108 82.0988 62.0555 81.7397C62.1245 81.6395 62.2623 81.613 62.3624 81.681C62.4634 81.7487 62.4901 81.8848 62.4215 81.9854C62.1811 82.3385 62.0089 82.5937 61.9472 82.6908C61.8284 82.8758 61.7831 83.0183 61.8116 83.1138C61.8431 83.2173 61.9761 83.3201 62.2191 83.4288C62.3931 83.5072 63.9206 84.2006 65.9381 85.118C66.0491 85.1681 66.0978 85.2982 66.0469 85.4082C66.0098 85.4887 65.93 85.5363 65.8462 85.5363Z" fill="#2F1D4A"/>
<path d="M77.6461 90.7782C77.4467 90.7782 77.2184 90.7208 76.9633 90.607C76.4639 90.3835 71.3515 88.0595 67.2436 86.1923L66.6195 85.9085C66.5086 85.8584 66.4598 85.7283 66.5107 85.6182C66.5616 85.5078 66.6933 85.4599 66.8034 85.5104L67.4275 85.7938C71.535 87.661 76.6469 89.9845 77.1454 90.2072C77.3617 90.3043 77.6573 90.3981 77.836 90.2962C78.0057 90.1994 78.0674 89.9238 78.0898 89.7097C78.1106 89.5094 78.2448 88.3425 78.4265 86.7608L78.5923 85.3203C77.5274 84.4068 76.0249 82.9762 74.7407 81.2237C74.6764 81.136 74.6129 81.0474 74.55 80.9579C74.4805 80.8586 74.5055 80.7221 74.6057 80.6527C74.7058 80.5846 74.8435 80.6082 74.9134 80.7079C74.9738 80.7948 75.0356 80.8809 75.0982 80.9661C76.3935 82.7336 77.9181 84.1697 78.9687 85.0636C79.0244 85.1111 79.0528 85.1826 79.0446 85.2549L78.8655 86.8105C78.6842 88.3896 78.55 89.5548 78.5293 89.7548C78.4818 90.2141 78.3229 90.524 78.0566 90.676C77.9375 90.744 77.8002 90.7782 77.6461 90.7782Z" fill="#2F1D4A"/>
<path d="M69.4307 83.0162L57.4167 82.7769L57.0333 81.1729L56.4447 81.2825L56.5313 82.7834L54.6019 84.047L54.5681 86.2663L56.18 85.1643L55.4832 86.7088L55.7863 86.6693L57.5337 84.2389L69.271 83.7045" fill="#FFE4B7"/>
<path d="M54.3661 86.3981C54.3327 86.3981 54.2993 86.3901 54.2688 86.3738C54.2008 86.3379 54.159 86.2673 54.1602 86.1907L54.1918 84.1305C54.1929 84.0582 54.23 83.9912 54.2908 83.9514L55.9828 82.8431L55.91 81.5748C55.9037 81.4648 55.9807 81.3672 56.09 81.347L56.6113 81.2503C56.7272 81.2288 56.8397 81.3014 56.8669 81.4151L57.1841 82.7418L68.2184 82.9616C68.3322 82.964 68.4227 83.0573 68.4203 83.1698C68.4179 83.2823 68.3121 83.376 68.2104 83.37L57.0281 83.1473C56.9274 83.1453 56.8407 83.076 56.8175 82.9787L56.5081 81.6849L56.3307 81.718L56.4002 82.9287C56.4047 83.0065 56.3671 83.0809 56.3015 83.1238L54.6022 84.2367L54.578 85.801L57.0074 84.14L57.1246 84.1009L68.0564 83.6029C68.0592 83.6025 68.0624 83.6025 68.0656 83.6025C68.175 83.6025 68.2663 83.6879 68.2711 83.7976C68.2764 83.91 68.1887 84.0054 68.0749 84.0105L57.1979 84.5063L54.4832 86.3622C54.4478 86.3861 54.4071 86.3981 54.3661 86.3981Z" fill="#2F1D4A"/>
<path d="M55.7389 86.9794C55.722 86.9794 55.7048 86.9777 55.6879 86.9734L55.1894 86.8566C55.1268 86.842 55.0737 86.8009 55.044 86.744C55.0142 86.6871 55.0112 86.6203 55.0357 86.5608L55.5002 85.4276C55.5455 85.3155 55.6746 85.2607 55.7881 85.3074C55.9012 85.3527 55.9556 85.4807 55.9094 85.5929L55.542 86.4888L55.6418 86.5124L57.2142 84.2205C57.2833 84.1199 57.4214 84.0955 57.5211 84.1627C57.6221 84.2308 57.648 84.3669 57.5793 84.4671L55.9214 86.8835C55.8799 86.9443 55.811 86.9794 55.7389 86.9794Z" fill="#2E1D4A"/>
<path d="M56.0079 83.9009L54.3027 85.2269L54.5755 85.5719L56.2807 84.2459L56.0079 83.9009Z" fill="#2E1D4A"/>
<path opacity="0.5" d="M55.919 25.2628C56.0263 24.8915 55.2271 24.3386 54.134 24.0279C53.0409 23.7172 52.0678 23.7663 51.9604 24.1376C51.8531 24.509 52.6523 25.0619 53.7454 25.3726C54.8385 25.6833 55.8116 25.6342 55.919 25.2628Z" fill="#B19CD1"/>
<path d="M67.7162 17.896C67.2648 17.8782 66.5844 17.0364 66.5844 17.0364C66.5844 17.0364 61.2086 18.4137 60.8304 18.4934C60.4519 18.5698 60.2406 18.3865 60.1371 18.1642C60.087 18.0512 59.5619 16.9745 59.0533 15.9311C58.5494 14.9044 58.065 13.9071 58.065 13.9071L58.5297 13.8723L59.7763 15.8323L60.8773 17.5629L67.394 15.3896C67.394 15.3896 67.6204 15.8636 67.7554 16.4544C67.9096 17.1158 67.9556 17.9021 67.7162 17.896Z" fill="#ECE8F0"/>
<path d="M55.3623 12.9406L55.1221 24.8578C55.1221 24.8578 53.6421 24.7344 52.4339 23.8624C52.4339 23.8624 53.0881 23.3537 53.8887 23.3952L54.5309 13.102L55.3623 12.9406Z" fill="#ECE8F0"/>
<path d="M60.061 16.2441L59.3968 16.5593C58.8928 15.5326 58.0275 13.8377 58.0275 13.8377L58.4922 13.8029L60.061 16.2441Z" fill="#B19CD1"/>
<path d="M55.369 13.7321L55.1215 16.7075L54.4241 17.0343L54.634 14.0847L55.369 13.7321Z" fill="#B19CD1"/>
<path d="M60.8765 17.759C60.8105 17.759 60.747 17.7261 60.7103 17.6683L58.3635 13.9771C58.3056 13.8861 58.3332 13.7661 58.4248 13.7087C58.5172 13.6515 58.6375 13.6783 58.6958 13.7695L60.9602 17.3312L64.7448 16.0691C64.8467 16.0354 64.9589 16.0896 64.9934 16.1915C65.028 16.2934 64.9727 16.4038 64.87 16.4381L60.939 17.749C60.9183 17.7558 60.8972 17.759 60.8765 17.759Z" fill="#2F1D4A"/>
<path d="M60.6655 18.7055C60.35 18.7055 60.0936 18.5416 59.9602 18.2441C59.8622 18.0256 57.9095 14.0332 57.8897 13.993C57.8422 13.8962 57.8832 13.7798 57.9808 13.7329C58.0757 13.6863 58.1949 13.7258 58.2428 13.823C58.3235 13.9878 60.2184 17.8616 60.319 18.0859C60.4062 18.2794 60.5607 18.3503 60.7908 18.3027C61.1594 18.2268 66.4828 16.8636 66.5363 16.8499C66.6114 16.8308 66.69 16.8567 66.7387 16.9164C66.9787 17.2131 67.4056 17.6251 67.665 17.6919C67.7086 17.5335 67.6948 17.0603 67.5666 16.498C67.4833 16.1344 67.3616 15.8141 67.286 15.6327L66.1538 16.0102C66.0511 16.0438 65.9397 15.9897 65.9052 15.8878C65.8707 15.7859 65.9259 15.6755 66.0287 15.6412L67.3309 15.207C67.4259 15.1757 67.5273 15.2187 67.5705 15.3071C67.58 15.3272 67.8109 15.8071 67.949 16.412C67.996 16.6181 68.217 17.6617 67.9516 17.9798C67.8895 18.0538 67.807 18.0904 67.7103 18.0902C67.2683 18.0746 66.7344 17.5128 66.5142 17.2577C65.6967 17.4668 61.221 18.6116 60.8705 18.6838C60.8002 18.6983 60.7316 18.7055 60.6655 18.7055Z" fill="#2F1D4A"/>
<path d="M55.1211 25.0528C55.1155 25.0528 55.1099 25.0526 55.1043 25.0522C55.0417 25.0468 53.5547 24.9122 52.3172 24.0192C52.2671 23.9833 52.2373 23.9264 52.236 23.8651C52.2351 23.8041 52.2632 23.7461 52.3116 23.7085C52.3387 23.6877 52.9331 23.2346 53.7062 23.1988L54.3381 13.8963C54.3459 13.7894 54.4318 13.7083 54.5475 13.7152C54.6553 13.7222 54.7374 13.8151 54.73 13.9224L54.0856 23.4064C54.0783 23.5122 54.0079 23.5972 53.8802 23.5877C53.4382 23.564 53.0311 23.7348 52.7898 23.8666C53.6177 24.3822 54.5268 24.5734 55.0443 24.6365V14.6886C55.0724 14.5812 55.1505 14.4923 55.2696 14.4968C55.3784 14.4983 55.4647 14.5867 55.4863 14.6942V24.861C55.3167 24.9149 55.2934 24.9663 55.2528 25.0025C55.2165 25.035 55.1695 25.0528 55.1211 25.0528Z" fill="#2F1D4A"/>
<path d="M53.6251 3.0463L50.9187 13.6881C50.8858 13.8173 51.0562 13.9655 51.231 13.9607L62.3597 13.6524C62.6496 13.6444 62.849 13.4385 62.7183 13.2762L54.3205 2.84637C54.1114 2.58678 53.712 2.70465 53.6251 3.0463Z" fill="white"/>
<path d="M53.0023 3.50984L50.5494 13.8242C50.5195 13.9498 50.6898 14.0944 50.8614 14.0899L61.7859 13.8082C62.0703 13.8008 62.2614 13.601 62.1295 13.4429L53.6791 3.31815C53.4694 3.06698 53.0808 3.17994 53.0023 3.50984Z" fill="#EBB432"/>
<path d="M50.7656 14.2309C50.627 14.2309 50.4893 14.166 50.403 14.0594C50.3331 13.9732 50.3072 13.8681 50.3318 13.7711L53.118 2.75992C53.172 2.54715 53.3317 2.38751 53.5354 2.34319C53.7249 2.30208 53.9053 2.368 54.0266 2.51761L62.7168 13.2675C62.7984 13.3689 62.8148 13.4988 62.7608 13.6149C62.687 13.7734 62.4966 13.8803 62.2761 13.8869L50.7794 14.2306C50.7746 14.2309 50.7703 14.2309 50.7656 14.2309ZM50.7224 13.8272C50.7345 13.8349 50.7479 13.8407 50.7674 13.8415L62.264 13.4978C62.3154 13.4963 62.3534 13.483 62.3775 13.4702L53.7202 2.76115C53.693 2.72736 53.6567 2.71491 53.6196 2.7235C53.5747 2.73314 53.5195 2.77272 53.4988 2.85447L50.7224 13.8272Z" fill="#2F1D4A"/>
<path d="M54.4973 10.3002L53.6344 6.57479L54.7137 6.38385L55.1071 10.22L54.4973 10.3002Z" fill="#2F1D4A"/>
<path d="M55.3778 11.5334C55.441 11.8075 55.2714 12.0857 55.0008 12.1574C54.7315 12.2287 54.4594 12.0694 54.3911 11.7993C54.322 11.526 54.4868 11.2414 54.7612 11.1661C55.0369 11.0905 55.3138 11.2561 55.3778 11.5334Z" fill="#2F1D4A"/>
<path d="M58.875 8.53596L62.0421 10.3529L60.5305 13.296L59.9286 12.9768L58.5206 15.3813L59.199 15.6182L59.6255 15.4062L61.1438 15.842L61.6364 14.3788L63.1592 10.0391L57.9515 7.34371" fill="#ECE8F0"/>
<path d="M61.1438 16.0367C61.1257 16.0367 61.1076 16.0341 61.0895 16.029L59.6447 15.6142L59.2869 15.7921C59.2394 15.8158 59.1837 15.819 59.1337 15.8017L58.4551 15.565C58.3999 15.5458 58.3563 15.5032 58.336 15.4488C58.3161 15.3942 58.3213 15.3339 58.3507 15.2836L59.7586 12.8791C59.8113 12.7886 59.9274 12.756 60.0207 12.8052L60.4463 13.0308L61.7813 10.4315L58.7089 8.73297C58.6139 8.68076 58.5803 8.56219 58.6329 8.46821C58.6856 8.37423 58.8056 8.34109 58.8997 8.39308L62.1374 10.1828C62.2298 10.2338 62.2647 10.3479 62.2168 10.4412L60.7052 13.3844C60.6815 13.4309 60.6396 13.4659 60.5891 13.4818C60.5395 13.4976 60.4842 13.492 60.438 13.4677L60.0029 13.2372L58.809 15.2758L59.1854 15.407L59.5372 15.2322C59.5812 15.2101 59.6321 15.2063 59.6797 15.2191L61.0173 15.6031L61.4503 14.3172L62.9174 10.1352L57.7386 7.51219C57.6423 7.46318 57.6039 7.3461 57.6531 7.25019C57.7023 7.1545 57.8223 7.11728 57.9173 7.16541L63.2484 9.86569C63.3356 9.91 63.3766 10.0112 63.3443 10.1031L61.3298 15.9036C61.3026 15.9847 61.2263 16.0367 61.1438 16.0367Z" fill="#2F1D4A"/>
<path d="M51.3881 8.76897L48.4922 12.0024L45.9281 9.89454L46.3742 9.38208L44.3174 7.49247L43.9356 8.09703L44.0506 8.55615L43.289 9.92974L44.6205 10.7272L48.556 13.152L51.4361 9.54514" fill="#ECE8F0"/>
<path d="M48.579 13.495C48.5432 13.495 48.5073 13.4856 48.4754 13.4657L43.2103 10.2447C43.1201 10.1908 43.089 10.0758 43.1399 9.98438L43.8646 8.67751L43.7679 8.29247C43.7549 8.24109 43.7636 8.18674 43.7921 8.14198L44.1741 7.53734C44.2052 7.48833 44.2565 7.45537 44.3144 7.44787C44.3718 7.43845 44.4305 7.45857 44.4737 7.49797L46.5304 9.38767C46.6081 9.45894 46.6146 9.57817 46.5455 9.65755L46.2304 10.0197L48.4944 11.881L51.2642 8.78793C51.3363 8.70745 51.4606 8.70039 51.5414 8.77166C51.6225 8.84316 51.6298 8.96602 51.5578 9.0465L48.6619 12.2802C48.5911 12.3591 48.4711 12.3677 48.39 12.3007L45.826 10.1927C45.7854 10.1593 45.76 10.1111 45.7556 10.0591C45.7513 10.0069 45.7682 9.95532 45.8027 9.91574L46.1247 9.54547L44.3809 7.9432L44.1689 8.27857L44.2639 8.65743C44.2759 8.70517 44.2695 8.75544 44.2453 8.79827L43.5745 10.0082L44.7447 10.7092L48.5336 13.0434L51.3052 9.57265C51.3721 9.48853 51.4968 9.47463 51.5806 9.54095C51.6656 9.60771 51.6798 9.73014 51.6125 9.81448L48.7326 13.4212C48.6942 13.4696 48.6373 13.495 48.579 13.495Z" fill="#2F1D4A"/>
<path d="M45.0396 10.3306C44.9969 10.3306 44.9538 10.3169 44.9175 10.2884L44.2411 9.75549C44.194 9.71823 44.1668 9.66173 44.1668 9.60225C44.1673 9.54254 44.1953 9.48626 44.2428 9.44966L45.2705 8.65604C45.3551 8.58968 45.4786 8.60467 45.5459 8.68984C45.6124 8.77479 45.5968 8.89704 45.5114 8.96292L44.6805 9.60461L45.0102 9.86424L45.3085 9.50169C45.3771 9.41845 45.4997 9.40578 45.5848 9.47408C45.6685 9.54193 45.681 9.66458 45.6124 9.74782L45.1915 10.2591C45.1527 10.3062 45.0967 10.3306 45.0396 10.3306Z" fill="#2F1D4A"/>
</g>
<defs>
<clipPath id="clip0_147_15830">
<rect width="97" height="96" fill="white"/>
</clipPath>
</defs>
</svg>
