<svg width="93" height="121" viewBox="0 0 93 121" fill="none" xmlns="http://www.w3.org/2000/svg">
<g clip-path="url(#clip0_147_15831)">
<g clip-path="url(#clip1_147_15831)">
<path d="M24.733 89.6802L35.9566 82.8531L51.1594 90.8296L50.9764 106.506L24.733 89.6802Z" fill="white"/>
<path d="M2.38982 26.4799L13.4116 31.9353L13.4971 96.1778L2.41065 90.1215L2.38982 26.4799Z" fill="#B19CD1"/>
<path d="M47.0713 75.3199L58.9045 68.5554L58.8313 121.4L13.4609 96.2518L24.7304 89.7155L46.9765 102.197L47.0713 75.3199Z" fill="#B19CD1"/>
<path d="M24.255 38.6726L46.9909 51.115L35.9595 57.9869L24.3263 51.5486L24.255 38.6726Z" fill="#B19CD1"/>
<path opacity="0.35" d="M13.4972 31.8483L24.291 25.9028V64.4562L13.4972 70.8448V31.8483Z" fill="#B19CD1"/>
<path opacity="0.35" d="M58.8249 121.384L70.0269 114.716L70.2192 50.6625L13.5335 83.2161L13.5701 96.1411L58.7575 69.7372L58.8249 121.384Z" fill="#B19CD1"/>
<path d="M2.612 77.178L13.5338 83.1051L68.1655 50.8853L24.3847 25.998L24.4749 38.8288L47.1835 51.0512L2.612 77.178Z" fill="white"/>
<path d="M2.36858 26.4634L13.3269 19.7609L24.2305 25.7987L13.4184 31.9104L2.36858 26.4634Z" fill="white"/>
<path d="M5.84282 91.1483C5.81332 91.1483 5.78378 91.1413 5.75604 91.126L3.06321 89.6323C3.00593 89.6004 2.97009 89.5394 2.97009 89.4731L2.9838 67.9523C2.9838 67.8519 3.06425 67.7707 3.1637 67.7707C3.26314 67.7707 3.34359 67.8523 3.34359 67.9523L3.32989 89.3657L5.9296 90.8076C6.01638 90.8558 6.04837 90.9664 6.00059 91.0544C5.96756 91.1143 5.90607 91.1483 5.84282 91.1483Z" fill="#2F1D4A"/>
<path d="M37.056 108.46C37.0265 108.46 36.9969 108.453 36.9692 108.438L8.0407 92.3928C7.95392 92.3445 7.92193 92.2339 7.96971 92.1459C8.01749 92.058 8.12712 92.0264 8.21426 92.0743L37.1428 108.119C37.2295 108.168 37.2615 108.278 37.2137 108.366C37.1811 108.426 37.1192 108.46 37.056 108.46Z" fill="#2F1D4A"/>
<path d="M59.5979 120.964C59.568 120.964 59.5381 120.956 59.5111 120.941L40.4583 110.374C40.3715 110.325 40.3395 110.215 40.3873 110.127C40.4351 110.039 40.5443 110.007 40.6318 110.055L59.594 120.573L64.5457 117.585C64.6307 117.533 64.7418 117.562 64.7923 117.648C64.8436 117.734 64.8155 117.845 64.7305 117.897L59.6902 120.938C59.6618 120.955 59.6298 120.964 59.5979 120.964Z" fill="#2F1D4A"/>
<path d="M67.0831 116.447C67.022 116.447 66.9622 116.415 66.9289 116.358C66.8776 116.272 66.9057 116.161 66.9907 116.109L70.5387 113.969L70.5331 62.3021C70.5331 62.2017 70.6136 62.1205 70.713 62.1205C70.8125 62.1205 70.8929 62.2017 70.8929 62.3021L70.8985 114.071C70.8985 114.135 70.8651 114.194 70.811 114.227L67.1755 116.421C67.1463 116.438 67.1147 116.447 67.0831 116.447Z" fill="#2F1D4A"/>
<path d="M70.7126 59.1047C70.6131 59.1047 70.5327 59.0235 70.5327 58.9232L70.5317 50.2238L64.5354 46.9285C64.4482 46.8807 64.4159 46.7704 64.4633 46.6822C64.5107 46.5941 64.6207 46.5619 64.7075 46.6097L70.7976 49.9566C70.8553 49.9884 70.8914 50.0496 70.8914 50.116L70.8925 58.9232C70.8925 59.0236 70.812 59.1047 70.7126 59.1047Z" fill="#2F1D4A"/>
<path d="M3.16607 64.6445C3.06663 64.6445 2.98618 64.563 2.98618 64.463L3.01043 25.6304C3.01043 25.5668 3.04345 25.5077 3.09757 25.4749L14.0161 18.8549C14.0709 18.8217 14.1383 18.8203 14.1949 18.8511L60.9072 44.5214C60.9943 44.5692 61.0266 44.6795 60.9792 44.7677C60.9314 44.856 60.8221 44.8882 60.735 44.8402L14.113 19.2198L3.37018 25.7334L3.34593 64.463C3.34593 64.5633 3.26552 64.6445 3.16607 64.6445Z" fill="#2F1D4A"/>
<path d="M26.5353 63.0203C26.4734 63.0203 26.413 62.988 26.3796 62.9299C26.3297 62.8433 26.3589 62.7324 26.445 62.6816L47.432 50.3634L25.7454 38.6407C25.6579 38.5933 25.6249 38.4832 25.672 38.3949C25.7191 38.3061 25.8283 38.2736 25.9155 38.3204L47.886 50.1967C47.9433 50.2279 47.9798 50.2878 47.9809 50.3536C47.982 50.4194 47.9479 50.4807 47.8913 50.5137L26.6256 62.9958C26.5971 63.0125 26.5662 63.0203 26.5353 63.0203Z" fill="#2F1D4A"/>
<path d="M3.23243 76.6975C3.17058 76.6975 3.11017 76.6652 3.07678 76.6071C3.02688 76.5206 3.05606 76.4096 3.14212 76.3589L23.6615 64.3149C23.7465 64.2645 23.8572 64.2932 23.9075 64.3808C23.9574 64.4674 23.9282 64.5783 23.8421 64.6291L3.32273 76.673C3.29427 76.6897 3.26337 76.6975 3.23243 76.6975Z" fill="#2F1D4A"/>
<path d="M59.5979 120.905C59.4984 120.905 59.418 120.824 59.418 120.723V89.1677C59.418 89.0673 59.4984 88.9861 59.5979 88.9861C59.6973 88.9861 59.7778 89.0673 59.7778 89.1677V120.723C59.7778 120.824 59.6973 120.905 59.5979 120.905Z" fill="#2F1D4A"/>
<path d="M26.9192 88.2985C26.8574 88.2985 26.797 88.2662 26.7636 88.2081C26.7137 88.1212 26.7432 88.0102 26.8289 87.9598L59.5078 68.8529C59.564 68.8203 59.6326 68.8206 59.6881 68.8525C59.7436 68.8851 59.778 68.9451 59.778 69.01V85.6779C59.778 85.7782 59.6976 85.8594 59.5981 85.8594C59.4987 85.8594 59.4182 85.7782 59.4182 85.6779V69.3249L27.0095 88.274C26.981 88.2907 26.9502 88.2985 26.9192 88.2985Z" fill="#2F1D4A"/>
<path d="M14.1547 95.762C14.0929 95.762 14.0325 95.7297 13.9991 95.6716C13.9492 95.5847 13.9787 95.4737 14.0644 95.4233L22.6742 90.3891C22.7595 90.3388 22.8698 90.3675 22.9201 90.4551C22.97 90.542 22.9405 90.6529 22.8548 90.7033L14.245 95.7375C14.2166 95.7542 14.1857 95.762 14.1547 95.762Z" fill="#2F1D4A"/>
<path d="M44.2186 65.4848C44.1561 65.4848 44.0952 65.4519 44.0619 65.3926C44.0131 65.3054 44.0436 65.1948 44.1301 65.1451L70.403 50.1294C70.488 50.0801 70.5987 50.1103 70.6482 50.1979C70.6971 50.2853 70.6665 50.3959 70.5801 50.4454L44.3071 65.4614C44.2794 65.4774 44.2488 65.4848 44.2186 65.4848Z" fill="#2F1D4A"/>
<path d="M14.1813 82.6524C14.1188 82.6524 14.058 82.6194 14.0246 82.5602C13.9758 82.473 14.0064 82.3623 14.0928 82.3127L41.0185 66.9236C41.1036 66.8746 41.2142 66.9045 41.2638 66.9924C41.3126 67.0796 41.2821 67.1903 41.1956 67.2399L14.2699 82.629C14.2421 82.645 14.2115 82.6524 14.1813 82.6524Z" fill="#2F1D4A"/>
<path d="M24.9939 63.01C24.8945 63.01 24.814 62.9288 24.814 62.8285L24.8323 25.0465C24.8323 24.9461 24.9127 24.8649 25.0122 24.8649C25.1116 24.8649 25.1921 24.9463 25.1921 25.0467L25.1738 62.8285C25.1738 62.9288 25.0934 63.01 24.9939 63.01Z" fill="#2F1D4A"/>
<path d="M47.6576 101.663C47.6278 101.663 47.5976 101.656 47.5705 101.64L26.9826 90.1384C26.8958 90.0898 26.8642 89.9791 26.9123 89.8916C26.9601 89.8036 27.0697 89.7728 27.1569 89.8206L47.4777 101.173L47.4806 75.9341C47.4806 75.8337 47.561 75.7525 47.6604 75.7525C47.7599 75.7525 47.8403 75.8337 47.8403 75.9341L47.8375 101.482C47.8375 101.546 47.8038 101.605 47.749 101.638C47.7209 101.655 47.6893 101.663 47.6576 101.663Z" fill="#2F1D4A"/>
<path d="M14.145 70.2992C14.0455 70.2992 13.9651 70.2177 13.9651 70.1177L13.9925 41.0865C13.9925 40.9863 14.0729 40.9051 14.1724 40.9051C14.2718 40.9053 14.3523 40.9865 14.3523 41.0868L14.3249 70.1177C14.3249 70.218 14.2444 70.2992 14.145 70.2992Z" fill="#2F1D4A"/>
<path d="M14.1756 38.277C14.0762 38.2768 13.9957 38.1956 13.9957 38.0952L14.002 31.2718L3.56386 26.1658C3.47427 26.1222 3.43703 26.0135 3.48024 25.9233C3.52381 25.833 3.63132 25.7954 3.72058 25.8392L14.2603 30.9949C14.3225 31.0252 14.3618 31.0887 14.3618 31.1584L14.3555 38.0956C14.3555 38.1958 14.2751 38.277 14.1756 38.277Z" fill="#2F1D4A"/>
<path d="M14.145 31.3214C14.0817 31.3214 14.0203 31.2876 13.9876 31.2278C13.9395 31.14 13.9711 31.0296 14.0579 30.981L24.943 24.9062C25.0301 24.8578 25.1397 24.8895 25.1875 24.9771C25.2357 25.0649 25.204 25.1753 25.1173 25.2239L14.2321 31.2987C14.2044 31.3142 14.1745 31.3214 14.145 31.3214Z" fill="#2F1D4A"/>
<path d="M35.554 56.9545C35.5245 56.9545 35.4947 56.9475 35.4672 56.9322L30.3831 54.1071C30.2959 54.0587 30.2643 53.9484 30.3121 53.8605C30.3606 53.7722 30.4702 53.741 30.5566 53.789L35.6408 56.6137C35.728 56.6623 35.7596 56.7726 35.7118 56.8606C35.6788 56.9205 35.6173 56.9545 35.554 56.9545Z" fill="#2F1D4A"/>
<path d="M28.8538 53.2317C28.8243 53.2317 28.7945 53.2244 28.7671 53.2092L26.0465 51.6976C25.9594 51.6492 25.9277 51.5389 25.9755 51.451C26.024 51.3627 26.1336 51.3315 26.2201 51.3795L28.9406 52.8911C29.0278 52.9395 29.0594 53.0498 29.0116 53.1377C28.9786 53.1978 28.9171 53.2317 28.8538 53.2317Z" fill="#2F1D4A"/>
<path d="M47.1999 88.3482C47.1711 88.3482 47.142 88.3411 47.1149 88.3266L37.6672 83.2023C37.5797 83.1548 37.5467 83.0449 37.5938 82.9566C37.6409 82.8679 37.7504 82.8356 37.8373 82.8824L47.285 88.0067C47.3725 88.0542 47.4055 88.1642 47.3584 88.2525C47.3261 88.3135 47.2639 88.3482 47.1999 88.3482Z" fill="#2F1D4A"/>
<path d="M14.2654 82.5976C14.2369 82.5976 14.2085 82.5908 14.1818 82.5767L3.12132 76.7041C3.03314 76.6573 2.99939 76.5478 3.04577 76.4591C3.09214 76.3697 3.20105 76.3364 3.28855 76.3829L14.349 82.2554C14.4372 82.3022 14.4709 82.4118 14.4246 82.5004C14.3922 82.5625 14.33 82.5976 14.2654 82.5976Z" fill="#2F1D4A"/>
<path d="M14.145 95.7156C14.0455 95.7156 13.9651 95.6344 13.9651 95.534V82.3411C13.9651 82.2407 14.0455 82.1595 14.145 82.1595C14.2444 82.1595 14.3249 82.2407 14.3249 82.3411V95.534C14.3249 95.6344 14.2444 95.7156 14.145 95.7156Z" fill="#2F1D4A"/>
<path opacity="0.5" d="M11.818 24.7467C13 24.6279 13.9357 24.304 13.908 24.0233C13.8803 23.7425 12.8997 23.6112 11.7177 23.7299C10.5358 23.8487 9.60006 24.1726 9.62776 24.4534C9.65545 24.7341 10.6361 24.8655 11.818 24.7467Z" fill="#B19CD1"/>
<path opacity="0.5" d="M15.2504 26.7311C16.5158 26.5857 17.5131 26.2147 17.4778 25.9025C17.4426 25.5902 16.3883 25.455 15.1228 25.6004C13.8574 25.7458 12.8601 26.1167 12.8953 26.429C12.9306 26.7412 13.9849 26.8765 15.2504 26.7311Z" fill="#B19CD1"/>
<path d="M15.4658 14.8793L15.7208 17.2936L16.9078 25.8857C16.9078 25.8857 13.6045 26.5006 13.4235 26.1642C13.1615 25.6771 15.4408 24.573 15.4408 24.573L15.0302 17.7943L14.9372 15.2119L15.4658 14.8793Z" fill="#FFE4B7"/>
<path d="M15.5555 16.0238L15.8105 18.4381L15.1199 18.9388L15.0269 16.3564L15.5555 16.0238Z" fill="#F6B969"/>
<path d="M13.883 26.501C13.5815 26.501 13.3675 26.4655 13.2888 26.3799C13.1967 26.2794 13.1612 26.151 13.1883 26.0182C13.3046 25.4536 14.716 24.7603 15.2146 24.5315L14.6355 15.1953C14.6292 15.0953 14.7048 15.009 14.8038 15.0028C14.9149 14.996 14.9887 15.0728 14.9946 15.1727L15.5814 24.6345C15.586 24.7106 15.5435 24.7815 15.4742 24.8122C14.5906 25.2038 13.5997 25.8046 13.5407 26.0922C13.5372 26.1094 13.5383 26.1173 13.553 26.1331C13.7536 26.231 15.3056 26.0228 16.6847 25.7581L15.1675 14.8782C15.1538 14.7789 15.2223 14.687 15.3207 14.6731C15.4156 14.659 15.5098 14.7282 15.5238 14.8275L17.0649 25.8783C17.0782 25.9739 17.015 26.0635 16.9212 26.0819C15.8537 26.2925 14.6124 26.501 13.883 26.501Z" fill="#2F1D4A"/>
<path d="M12.0578 12.9062L12.3128 15.3205L13.4998 23.9126C13.4998 23.9126 10.1965 24.5275 10.0155 24.1911C9.75346 23.704 12.0327 22.5999 12.0327 22.5999L11.6222 15.8212L11.5292 13.2388L12.0578 12.9062Z" fill="#FFE4B7"/>
<path d="M12.0829 14.1432L12.3378 16.5575L11.6473 17.0582L11.5542 14.4758L12.0829 14.1432Z" fill="#F6B969"/>
<path d="M10.4751 24.5283C10.1736 24.5283 9.95965 24.4928 9.88093 24.4072C9.78886 24.3068 9.75302 24.1783 9.78044 24.0455C9.89672 23.4809 11.3082 22.7876 11.8067 22.5588L11.2277 13.2227C11.2213 13.1226 11.2969 13.0363 11.396 13.0301C11.5035 13.0274 11.5808 13.1001 11.5868 13.2L12.1736 22.6618C12.1781 22.7379 12.1356 22.8088 12.0664 22.8395C11.1824 23.2311 10.1919 23.8319 10.1329 24.1193C10.1293 24.1367 10.1304 24.1444 10.1452 24.1604C10.3451 24.2587 11.8981 24.0501 13.2768 23.7854L11.7597 12.9055C11.7459 12.8062 11.8145 12.7143 11.9129 12.7004C12.0081 12.6846 12.1019 12.7555 12.116 12.8548L13.657 23.9057C13.6704 24.0012 13.6071 24.0908 13.5133 24.1092C12.4459 24.3198 11.2045 24.5283 10.4751 24.5283Z" fill="#2F1D4A"/>
<path d="M22.6395 13.6732C22.5556 13.5415 21.8227 12.3767 20.8545 10.8376L20.4397 10.1782C18.4266 6.97785 15.7279 2.68662 15.4745 2.28884C15.0741 1.66037 14.6827 1.73674 14.3158 2.19693C14.1808 2.36626 13.1762 3.59572 11.9529 5.09556C12.0559 5.4482 12.1685 5.86627 12.2768 6.33311L10.9379 6.34074C10.5538 6.81226 10.1656 7.28905 9.7906 7.75041L9.30459 8.34864C9.09346 8.60875 8.88939 8.8604 8.69579 9.09948C8.75612 9.29968 8.81743 9.53339 8.87525 9.78428L8.10026 9.81325C7.52527 10.5274 7.0447 11.1547 7.01059 11.2163C6.86189 11.485 6.95295 11.639 7.09529 11.7243C7.1458 11.7546 8.2495 12.4109 9.6624 13.2484L10.6593 13.2003C10.6271 13.3908 10.5896 13.5815 10.5463 13.772C11.3872 14.27 12.2776 14.7964 13.0886 15.2742L14.1264 15.5921L14.0641 15.8478C15.1266 16.4711 15.8977 16.9177 15.9632 16.94C16.1879 17.0163 16.4748 17.0521 16.7639 16.9533C16.9551 16.888 19.1576 15.9639 20.7658 15.2815L21.7752 14.8514C22.1 14.7122 22.3329 14.6111 22.4195 14.5711C22.8954 14.3511 22.8998 14.0817 22.6395 13.6732Z" fill="#B29DD2"/>
<path d="M11.472 8.76038C11.6881 9.96659 11.6516 12.2987 11.4285 13.4046L12.484 14.024C12.6276 13.1369 12.7817 10.8263 12.8108 9.71883L11.472 8.76038Z" fill="#8274A7"/>
<path d="M15.359 14.5595L14.0967 15.5886L13.1432 15.3052C13.2806 14.5109 13.5536 11.9577 13.6317 10.4325L15.0183 11.4938L15.359 14.5595Z" fill="#8274A7"/>
<path d="M13.602 10.4686L13.5939 10.5749L15.0406 11.6542L14.1511 3.30802L12.8183 5.00508C13.1233 6.09124 13.4882 7.69171 13.5783 9.40569C13.5969 9.75774 13.604 10.1139 13.602 10.4686Z" fill="#8274A7"/>
<path d="M15.2894 14.0317L15.4898 15.7878L13.5858 14.8138L15.2894 14.0317Z" fill="#8274A7"/>
<path d="M10.9381 6.3408C11.0914 6.90002 11.4803 9.00974 11.4803 9.00974L12.7845 9.98156C12.7815 9.89274 12.7777 9.80399 12.773 9.71549C12.7079 8.47768 12.5015 7.30074 12.277 6.33318L10.9381 6.3408Z" fill="#8274A7"/>
<path d="M9.79523 11.3161C9.76263 10.5307 9.64178 9.79237 9.50502 9.22654L9.86474 8.7707L10.4666 7.99512L10.7101 9.40353C10.8478 10.5445 10.8848 11.8666 10.6596 13.2003L9.66275 13.2485C9.74558 12.8388 9.78782 12.414 9.80005 11.9924C9.80005 11.9924 9.80224 11.4595 9.79523 11.3161Z" fill="#8274A7"/>
<path d="M8.10059 9.81347L8.32075 10.7275L7.86032 11.3111L9.06487 12.0178C9.10542 11.6464 9.11222 11.2855 9.07462 10.9414C9.0286 10.5203 8.9569 10.1279 8.87655 9.77923L8.10059 9.81347Z" fill="#8274A7"/>
<path d="M15.9769 12.5427C15.8873 12.5427 15.8097 12.4748 15.7988 12.3826L15.0831 6.3102C15.0711 6.21055 15.1417 6.12032 15.2405 6.1084C15.3315 6.09599 15.4281 6.16745 15.44 6.26727L16.1558 12.3396C16.1677 12.4393 16.0971 12.5295 15.9984 12.5414C15.9914 12.5423 15.9843 12.5427 15.9769 12.5427Z" fill="#2F1D4A"/>
<path d="M15.1628 5.63649C15.0732 5.63649 14.9956 5.56877 14.9847 5.47639L14.652 2.65449C14.64 2.55485 14.7106 2.46461 14.809 2.4527C14.9067 2.43959 14.997 2.51156 15.009 2.61157L15.3417 5.43346C15.3536 5.53311 15.283 5.62334 15.1846 5.63526C15.1773 5.63613 15.1702 5.63649 15.1628 5.63649Z" fill="#2F1D4A"/>
<path d="M9.66244 13.4298C9.63081 13.4298 9.59919 13.4215 9.57145 13.4048C8.15793 12.5672 7.05394 11.9107 7.00336 11.8802C6.73704 11.7207 6.6808 11.4394 6.85332 11.1276C6.90251 11.0388 7.44043 10.3443 7.9608 9.69854C8.00365 9.64516 8.07219 9.62086 8.13998 9.63593C8.20672 9.65118 8.2591 9.70315 8.27526 9.77015L8.4952 10.6842C8.50819 10.7388 8.49556 10.7962 8.46113 10.8402L8.13051 11.2592L8.90946 11.7165C8.92562 11.4475 8.92105 11.1943 8.8954 10.9608C8.83006 10.3631 8.70496 9.75453 8.52366 9.1522C8.50642 9.09421 8.51841 9.03146 8.55633 8.98466L9.16524 8.23341C9.22813 8.15574 9.34161 8.14441 9.41821 8.20806C9.49517 8.27154 9.5064 8.38607 9.4435 8.46356L8.8954 9.13964C9.0686 9.73311 9.18877 10.3319 9.25307 10.9211C9.2903 11.2608 9.28681 11.6363 9.24324 12.0372C9.23655 12.0983 9.19967 12.1518 9.14556 12.1794C9.09076 12.2074 9.02643 12.2055 8.97408 12.1743L7.76961 11.4675C7.72427 11.4411 7.69265 11.3961 7.68318 11.3441C7.67336 11.2924 7.68671 11.2388 7.71902 11.1975L8.1245 10.6835L8.01135 10.2129C7.54405 10.7993 7.20218 11.2486 7.16562 11.3076C7.06301 11.4936 7.13472 11.5367 7.18671 11.5681C7.23485 11.5966 8.22672 12.1867 9.53133 12.9601C9.58051 12.653 9.61005 12.3268 9.61951 11.9871C9.62268 11.8867 9.70946 11.814 9.80466 11.8107C9.90375 11.8137 9.98211 11.8972 9.97931 11.9974C9.96632 12.4525 9.91886 12.8855 9.83877 13.2845C9.82719 13.3419 9.78887 13.3901 9.73583 13.4141C9.7123 13.4247 9.68737 13.4298 9.66244 13.4298Z" fill="#2F1D4A"/>
<path d="M9.79539 11.4975C9.69947 11.4975 9.6197 11.4211 9.61549 11.3236C9.58739 10.6434 9.48618 9.91396 9.33053 9.26926C9.31719 9.21483 9.32981 9.1572 9.36428 9.11322L9.72372 8.65735C9.78592 8.57898 9.89976 8.56638 9.97669 8.62844C10.0543 8.69086 10.0674 8.80503 10.0055 8.88358L9.70051 9.27013C9.84982 9.91538 9.94715 10.6354 9.97528 11.3083C9.97913 11.4085 9.90221 11.4931 9.80276 11.4973C9.80031 11.4975 9.79783 11.4975 9.79539 11.4975Z" fill="#2F1D4A"/>
<path d="M10.7131 9.61001C10.6217 9.61001 10.5437 9.54014 10.5346 9.44635C10.4872 8.96494 10.4317 8.62807 10.3863 8.40111L9.97771 8.91832C9.91622 8.99723 9.80238 9.00965 9.7251 8.94722C9.64745 8.88462 9.63443 8.77045 9.69664 8.69209L10.3382 7.87947C10.3814 7.82467 10.4514 7.79951 10.5206 7.816C10.5884 7.8323 10.6407 7.88673 10.6548 7.95573L10.6688 8.01459C10.712 8.19296 10.8139 8.61071 10.8923 9.41054C10.9021 9.51037 10.8301 9.59919 10.7314 9.60914C10.725 9.60968 10.7191 9.61001 10.7131 9.61001Z" fill="#2F1D4A"/>
<path d="M13.0887 15.4559C13.0578 15.4559 13.0265 15.4479 12.998 15.431C12.1871 14.9532 11.296 14.4268 10.4552 13.9287C10.3874 13.8886 10.3533 13.8088 10.3709 13.7315C10.6657 12.4366 10.7195 10.9878 10.5315 9.42554C10.5195 9.32589 10.5898 9.23547 10.6882 9.22324C10.7844 9.21172 10.8765 9.28192 10.8884 9.38156C11.0753 10.9339 11.0289 12.38 10.7503 13.6824C11.5574 14.1603 12.4049 14.6612 13.1793 15.1175C13.265 15.1681 13.2942 15.2793 13.2439 15.3658C13.2105 15.4236 13.1505 15.4559 13.0887 15.4559Z" fill="#2F1D4A"/>
<path d="M13.1587 15.4341C13.1481 15.4341 13.138 15.4333 13.1274 15.4315C13.0294 15.4143 12.964 15.3201 12.9813 15.2214C13.1317 14.3517 13.3267 13.0054 13.4022 11.531C13.4071 11.431 13.4795 11.3547 13.5909 11.359C13.6903 11.3643 13.7666 11.4496 13.7613 11.5498C13.685 13.0424 13.4876 14.4042 13.3354 15.2838C13.3203 15.3721 13.2444 15.4341 13.1587 15.4341Z" fill="#2F1D4A"/>
<path d="M15.0511 11.8526C14.9604 11.8526 14.8824 11.7837 14.8726 11.6906L14.0301 3.7852L13.0273 5.062C13.3221 6.12888 13.6801 7.7222 13.7686 9.41283C13.7865 9.75308 13.7946 10.1143 13.7925 10.4864C13.7918 10.5868 13.7113 10.6674 13.6116 10.6669C13.5121 10.6664 13.432 10.5845 13.4327 10.4843C13.4348 10.1192 13.4271 9.76532 13.4095 9.43215C13.3199 7.72714 12.9503 6.11962 12.6559 5.07137C12.6404 5.01516 12.6523 4.95488 12.6882 4.90913L14.0209 3.2121C14.0659 3.15448 14.1414 3.13018 14.2117 3.15041C14.2819 3.17096 14.3329 3.23215 14.3406 3.30539L15.2303 11.6516C15.2408 11.7514 15.1695 11.8409 15.0707 11.8516C15.0641 11.8523 15.0578 11.8526 15.0511 11.8526Z" fill="#2F1D4A"/>
<path d="M12.4843 14.2051C12.453 14.2051 12.4217 14.1968 12.394 14.1804L11.3385 13.5611C11.2766 13.5251 11.2422 13.4556 11.2499 13.3841C11.5616 10.5403 11.2931 8.96361 11.2903 8.94799C11.1674 8.06359 10.9984 7.29368 10.855 6.72911L9.93022 7.86532C9.86697 7.94281 9.75313 7.95414 9.67689 7.8903C9.60029 7.82682 9.58906 7.71229 9.65196 7.6348L10.7998 6.22502C10.8424 6.17287 10.9109 6.14861 10.9759 6.16277C11.0416 6.17697 11.0943 6.22679 11.1118 6.29205C11.2717 6.87557 11.4941 7.80006 11.6456 8.89087C11.6561 8.94868 11.9186 10.479 11.6203 13.3064L12.3476 13.7334C12.4973 12.7495 12.5848 11.8128 12.6076 10.945C12.6104 10.845 12.6839 10.7745 12.7924 10.7683C12.8915 10.7709 12.9699 10.8544 12.9674 10.9546C12.9421 11.9151 12.8392 12.9575 12.6617 14.0527C12.6522 14.1118 12.6146 14.1622 12.5612 14.1877C12.5366 14.1992 12.5106 14.2051 12.4843 14.2051Z" fill="#2F1D4A"/>
<path d="M8.10053 9.99495C8.00425 9.99495 7.92448 9.918 7.92063 9.82014C7.91711 9.71995 7.99443 9.63574 8.09384 9.632L8.8707 9.60291C8.9754 9.59725 9.0534 9.67757 9.05729 9.77758C9.06082 9.87777 8.9835 9.96198 8.88409 9.96572L8.10722 9.9948C8.1051 9.99499 8.10265 9.99495 8.10053 9.99495Z" fill="#2F1D4A"/>
<path d="M10.9384 6.52247C10.8396 6.52247 10.7592 6.44178 10.7585 6.34195C10.7577 6.24159 10.8379 6.15984 10.9373 6.15934L12.276 6.15171H12.277C12.3758 6.15171 12.4562 6.2324 12.4569 6.33222C12.4576 6.43259 12.3775 6.51433 12.2781 6.51484L10.9394 6.52247H10.9384Z" fill="#2F1D4A"/>
<path d="M16.437 16.4522C16.3474 16.4522 16.2698 16.3843 16.2589 16.2921L16.0913 14.8685C16.0793 14.7688 16.15 14.6786 16.2487 14.6667C16.3397 14.6554 16.4363 14.7257 16.4483 14.8256L16.6159 16.2492C16.6278 16.3488 16.5572 16.4391 16.4585 16.451C16.4514 16.4518 16.4444 16.4522 16.437 16.4522Z" fill="#2F1D4A"/>
<path d="M16.2039 14.4724C16.1143 14.4724 16.0367 14.4045 16.0258 14.3123L15.9134 13.3573C15.9014 13.2576 15.972 13.1674 16.0708 13.1555C16.1621 13.1429 16.2584 13.2143 16.2704 13.3143L16.3828 14.2693C16.3947 14.369 16.3241 14.4592 16.2254 14.4711C16.2184 14.472 16.2113 14.4724 16.2039 14.4724Z" fill="#2F1D4A"/>
<path d="M15.4803 15.8714C15.3896 15.8714 15.3116 15.8022 15.3018 15.7091L14.8703 11.6528C14.8598 11.5532 14.9311 11.4636 15.0299 11.453C15.1289 11.4443 15.2175 11.5142 15.228 11.6141L15.6595 15.6705C15.67 15.7701 15.5987 15.8596 15.5 15.8703C15.4933 15.871 15.487 15.8714 15.4803 15.8714Z" fill="#2F1D4A"/>
<path d="M15.4899 15.9693C15.4586 15.9693 15.4274 15.9611 15.3996 15.9446L14.6828 15.5242C14.5967 15.4738 14.5676 15.3627 14.6175 15.276C14.6674 15.1889 14.7781 15.16 14.8634 15.2104L15.2731 15.4504L15.2422 15.1616C15.2317 15.0618 15.303 14.9722 15.4018 14.9616C15.5001 14.952 15.5894 15.0228 15.5999 15.1226L15.6688 15.7682C15.6762 15.8363 15.6449 15.9027 15.588 15.94C15.5581 15.9595 15.524 15.9693 15.4899 15.9693Z" fill="#2F1D4A"/>
<path d="M16.3953 17.1952C16.2038 17.1952 16.0345 17.1556 15.9058 17.112C15.8679 17.0991 15.7983 17.0751 13.9737 16.0045C13.9045 15.9641 13.8701 15.8824 13.8894 15.8041L13.9519 15.5485C13.9758 15.4513 14.0703 15.3917 14.1698 15.4157C14.2661 15.4396 14.3251 15.538 14.3012 15.6354L14.2709 15.7589C15.7424 16.6217 15.9901 16.7542 16.0277 16.7705C16.1862 16.8239 16.4399 16.8721 16.7062 16.7811C16.8808 16.7215 18.9946 15.8361 20.6962 15.1141C20.7872 15.0759 20.8934 15.1187 20.9316 15.211C20.9703 15.3036 20.9271 15.41 20.8354 15.4488C19.3266 16.0889 17.0291 17.0542 16.8214 17.1251C16.6732 17.1758 16.5288 17.1952 16.3953 17.1952Z" fill="#2F1D4A"/>
<path d="M21.7761 15.033C21.7062 15.033 21.6398 14.9915 21.6106 14.9224C21.5716 14.8302 21.6145 14.7236 21.7058 14.6842C22.028 14.5461 22.2596 14.4456 22.3453 14.4061C22.5087 14.3305 22.6032 14.252 22.6264 14.1727C22.6513 14.0869 22.6063 13.9555 22.489 13.7714C22.405 13.6397 21.6721 12.4746 20.7034 10.9348C20.65 10.8501 20.6749 10.738 20.7589 10.6843C20.8425 10.6297 20.9536 10.6554 21.007 10.7402C21.975 12.2789 22.7079 13.4432 22.7919 13.575C22.9141 13.7674 23.0452 14.0207 22.9714 14.2748C22.9169 14.4622 22.7613 14.6131 22.495 14.7362C22.4078 14.7764 22.1735 14.8784 21.8464 15.0184C21.8235 15.0284 21.7997 15.033 21.7761 15.033Z" fill="#2F1D4A"/>
<path d="M20.4404 10.3596C20.381 10.3596 20.3227 10.3298 20.2886 10.2754L19.0107 8.24426C17.2855 5.50127 15.5262 2.70436 15.3235 2.38699C15.2192 2.22282 15.0593 2.02545 14.8917 2.01641C14.7399 2.01075 14.567 2.17172 14.4563 2.31059C14.3629 2.42795 13.8513 3.05493 13.1387 3.92837L12.1528 5.13673C12.4719 6.24668 12.8587 7.91218 12.9529 9.70565C12.9574 9.79538 12.9617 9.88507 12.9648 9.9748C12.9683 10.075 12.8907 10.1592 12.7913 10.1628C12.6946 10.1711 12.6086 10.0879 12.605 9.98794C12.6019 9.89999 12.5983 9.81241 12.5938 9.72464C12.4986 7.91606 12.0991 6.23694 11.7811 5.14668C11.7642 5.08905 11.7769 5.02644 11.8149 4.98L12.8608 3.69753C13.572 2.82587 14.0825 2.20016 14.176 2.08294C14.4142 1.78488 14.6566 1.63807 14.911 1.65386C15.1675 1.6677 15.4082 1.84836 15.6264 2.19057C15.8288 2.50795 17.5888 5.30573 19.3147 8.04962L20.5922 10.0807C20.6456 10.1655 20.6207 10.2775 20.5367 10.3312C20.5068 10.3506 20.4734 10.3596 20.4404 10.3596Z" fill="#2F1D4A"/>
<path d="M17.7569 14.1193L18.3734 15.3125L20.397 14.6316L20.1202 13.5199C20.1202 13.5199 23.3933 12.4361 23.6826 12.2811C23.9719 12.1261 24.0649 11.9349 23.5276 11.6585C23.2189 11.4961 21.2815 10.5563 19.736 9.80504C19.3822 9.63259 19.0485 9.47227 18.7618 9.33006L17.7606 8.84906C17.6055 8.97866 17.3671 9.04769 17.0185 9.01577L19.7421 10.6674L21.7229 11.8669L21.768 11.8942L18.1825 13.1259L17.7569 14.1193Z" fill="#FFE4B7"/>
<path d="M18.3722 15.5256C18.2946 15.5256 18.2208 15.4826 18.1835 15.4099L17.5686 14.2198C17.5388 14.1626 17.5363 14.0948 17.5619 14.0354L17.9878 13.0395C18.0113 12.9836 18.0577 12.9407 18.1146 12.9212L22.1177 11.5474C22.2294 11.5091 22.3499 11.5691 22.3879 11.6816C22.4255 11.794 22.3661 11.916 22.2547 11.9542L18.3413 13.2973L17.993 14.1118L18.4772 15.0489L20.1441 14.49L19.9157 13.573C19.8886 13.4636 19.9497 13.3517 20.0558 13.3164C21.3144 12.8997 23.3853 12.1987 23.5839 12.0914C23.6397 12.0613 23.6714 12.038 23.6886 12.0226C23.6615 11.9925 23.5937 11.9336 23.4317 11.8492C23.0115 11.6302 19.6799 10.0149 18.669 9.5252C18.5629 9.47378 18.5183 9.34542 18.5693 9.23847C18.6202 9.13102 18.7481 9.08636 18.8532 9.1376C19.8658 9.62822 23.2019 11.2456 23.6271 11.4673C23.8597 11.5887 24.1271 11.7616 24.1288 12.0249C24.1306 12.2836 23.8702 12.424 23.7848 12.4703C23.5196 12.6137 21.1219 13.4148 20.377 13.6624L20.6054 14.5789C20.6324 14.6879 20.5716 14.7996 20.4659 14.8351L18.4393 15.5145C18.4171 15.522 18.3947 15.5256 18.3722 15.5256Z" fill="#2F1D4A"/>
<path d="M21.7229 12.0829C21.6857 12.0829 21.6481 12.073 21.6137 12.0522L16.9069 9.20125C16.806 9.14024 16.7733 9.00817 16.8338 8.90638C16.8945 8.8046 17.0242 8.77144 17.1261 8.83281L21.8329 11.6838C21.9338 11.7448 21.9664 11.8769 21.906 11.9787C21.8659 12.0457 21.7953 12.0829 21.7229 12.0829Z" fill="#2F1D4A"/>
<path d="M10.7434 6.08361L5.91007 4.35997L9.97011 2.89223L10.6831 3.571L13.0356 4.58283L13.2799 4.12499L14.5998 4.46372L14.422 3.15038L10.5168 1.37038L3.91484 4.24442C3.52364 4.44251 3.65406 5.0367 4.09154 5.04956L10.2652 6.6973L10.7434 6.08361Z" fill="#FFE4B7"/>
<path d="M10.5318 3.68151C10.5819 3.7094 10.6444 3.71256 10.6994 3.68449L11.7382 3.15686L12.3849 3.40157L12.4848 3.98636C12.4968 4.05619 12.5472 4.11302 12.616 4.13103L13.1639 4.27745C13.2599 4.3029 13.3584 4.24516 13.384 4.14842C13.4097 4.05136 13.3532 3.95353 13.2561 3.9263L12.8198 3.80991L12.7218 3.23711C12.7108 3.17349 12.6668 3.12189 12.6076 3.09789L11.7907 2.78882C11.7437 2.77121 11.6912 2.77401 11.6466 2.79696L10.5377 3.3605C10.449 3.40549 10.413 3.51465 10.4581 3.60409C10.4748 3.63812 10.501 3.66441 10.5318 3.68151Z" fill="#2F1D4A"/>
<path d="M13.5458 4.37407C13.5772 4.39153 13.614 4.39985 13.6523 4.39567C13.751 4.3846 13.8222 4.29461 13.8116 4.19515L13.6497 2.71873C13.6384 2.61891 13.5494 2.54755 13.451 2.55801C13.3523 2.56908 13.2811 2.65907 13.2918 2.75853L13.4536 4.23495C13.4605 4.29585 13.4965 4.34668 13.5458 4.37407Z" fill="#2F1D4A"/>
<path d="M7.88484 6.03733L10.2037 6.75742L10.7004 6.13425C10.3466 5.9618 8.34905 5.21124 8.34905 5.21124C8.25449 5.35225 7.96263 5.87359 7.88484 6.03733Z" fill="#F6B969"/>
<path d="M3.73563 5.04275C3.81594 5.08742 3.90783 5.11385 4.00598 5.11781L9.54494 6.77914C9.64421 6.78618 9.72991 6.71076 9.73718 6.61072C9.74384 6.51035 9.6699 6.42388 9.57031 6.41669L4.02584 4.75515C3.88325 4.75032 3.81212 4.65206 3.79352 4.56196C3.77474 4.47216 3.7991 4.35411 3.92341 4.29249L10.4768 1.51842L14.1952 3.2589L14.3146 4.20922L13.2563 3.92627C13.1765 3.90495 13.0925 3.94123 13.0526 4.01422L12.8832 4.32448L10.6908 3.35604L9.99893 2.67259C9.95183 2.64641 9.89571 2.64271 9.84566 2.66308L5.77173 4.09614C5.69488 4.12668 5.64875 4.20671 5.6598 4.28936C5.67113 4.37219 5.73762 4.43632 5.81904 4.44515L10.6476 6.21748C10.7464 6.2283 10.8351 6.15618 10.8456 6.05629C10.8563 5.95657 10.7851 5.8672 10.6858 5.85649L6.58008 4.16227L9.89974 3.03202L10.5319 3.68148L12.8895 4.72356C12.9745 4.76111 13.0741 4.72704 13.1191 4.64476L13.2999 4.31369L14.4805 4.62904C14.5384 4.64425 14.6 4.62991 14.645 4.59014C14.6899 4.55038 14.7126 4.4905 14.7052 4.43055L14.5399 3.11539C14.5318 3.05461 14.4968 2.99825 14.4397 2.97501L10.5546 1.15318C10.5049 1.12878 10.4468 1.12881 10.3972 1.15347L3.76521 3.96639C3.51353 4.0908 3.38361 4.36028 3.44154 4.63706C3.47892 4.81619 3.58761 4.96043 3.73563 5.04275Z" fill="#2F1D4A"/>
<path opacity="0.5" d="M21.6114 63.9381L22.5272 63.5333C22.7213 63.4474 22.8206 63.228 22.7577 63.0237L20.4503 55.5299C20.3333 55.1501 19.8075 55.1316 19.6647 55.5023L15.7124 65.7631C15.5781 66.1116 15.928 66.4502 16.2674 66.3002L18.6631 65.2413" fill="#B19CD1"/>
<path opacity="0.5" d="M21.8683 71.564C21.9756 71.2265 21.2241 70.6815 20.1898 70.3466C19.1556 70.0118 18.2302 70.0139 18.123 70.3514C18.0157 70.6889 18.7671 71.2339 19.8014 71.5688C20.8356 71.9036 21.761 71.9015 21.8683 71.564Z" fill="#B19CD1"/>
<path opacity="0.5" d="M25.7835 69.6436C25.8908 69.3061 25.1393 68.761 24.1051 68.4262C23.0708 68.0913 22.1454 68.0935 22.0382 68.431C21.9309 68.7685 22.6824 69.3135 23.7166 69.6484C24.7508 69.9832 25.6762 69.9811 25.7835 69.6436Z" fill="#B19CD1"/>
<path d="M21.9045 57.1061L27.7195 60.0281L27.6491 60.969L27.9564 60.9085L28.2209 60.3022L29.0324 60.4444L29.3738 59.879L28.8423 59.5707L29.4218 59.3506L29.3511 59.0723L28.0397 59.4288L21.5244 56.725L21.9045 57.1061Z" fill="#ECE8F0"/>
<path d="M27.7168 60.9876C27.6732 60.9876 27.6304 60.9716 27.5973 60.9418C27.5552 60.9042 27.533 60.8489 27.5373 60.7925L27.5987 59.9733L21.892 57.1055C21.8747 57.097 21.8589 57.0856 21.8452 57.0718L21.4651 56.691C21.4043 56.6299 21.3944 56.5342 21.4419 56.4619C21.4896 56.3892 21.5803 56.3608 21.6604 56.3941L28.1191 59.0747L29.3721 58.7343C29.4184 58.7215 29.4676 58.7279 29.5094 58.7527C29.5509 58.7772 29.5811 58.8172 29.593 58.8644L29.6637 59.1424C29.6865 59.2321 29.6387 59.3247 29.5526 59.3573L29.3299 59.4421L29.5309 59.5584C29.573 59.5829 29.6036 59.6233 29.6156 59.6708C29.6275 59.7183 29.6201 59.7687 29.5948 59.8102L29.2533 60.3758C29.215 60.4396 29.1433 60.4754 29.0689 60.4602L28.3964 60.3425L28.1887 60.8183C28.1648 60.873 28.1163 60.912 28.0584 60.9233L27.7513 60.984C27.7401 60.9864 27.7284 60.9876 27.7168 60.9876ZM23.9829 57.7509L27.8672 59.7028C27.9329 59.7354 27.9719 59.8052 27.9666 59.8787L27.9171 60.5397L28.1237 60.0663C28.1571 59.99 28.2361 59.9439 28.3194 59.9606L29.0098 60.0815L29.1914 59.7804L28.8201 59.5652C28.7596 59.5301 28.7249 59.4631 28.7305 59.3932C28.7343 59.3428 28.7589 59.2974 28.7965 59.2666L28.1539 59.4411C28.1159 59.4517 28.0752 59.4489 28.0387 59.434L23.9829 57.7509Z" fill="#2F1D4A"/>
<path d="M18.5525 58.727L14.4887 64.368L15.0132 65.2208L14.6938 65.3162L14.1491 64.8754L13.4526 65.412L12.8552 65.0479L13.2066 64.4933L12.5527 64.573L12.4839 64.2754L13.8948 63.9614L18.7256 58.179L18.5525 58.727Z" fill="#ECE8F0"/>
<path d="M25.0995 69.1578C25.2059 68.8599 24.2403 68.3466 24.2403 68.3466C24.2403 68.3466 25.6611 66.0137 25.8116 65.7894C25.9601 65.5639 25.8963 65.378 25.7791 65.2517C25.7189 65.1891 23.1226 62.3403 23.1226 62.3403L22.9787 62.6328L25.1957 65.5724L22.8947 68.7526C22.8947 68.7526 23.3084 69.0704 23.731 69.2242C24.1781 69.3869 25.0409 69.3148 25.0995 69.1578Z" fill="#ECE8F0"/>
<path d="M21.394 71.1393C21.5209 70.7839 20.3686 70.1712 20.3686 70.1712C20.3686 70.1712 22.0642 67.3872 22.2439 67.1194C22.421 66.8503 22.345 66.6285 22.2051 66.4778C22.1332 66.4031 21.4634 65.6547 20.8141 64.9295C20.1764 64.2133 19.5553 63.5216 19.5553 63.5216L19.3835 63.8707L20.5123 65.4584L21.5088 66.8606L19.2486 70.4591C19.2486 70.4591 19.2564 71.035 19.7609 71.2186C20.2944 71.4129 21.324 71.3267 21.394 71.1393Z" fill="#ECE8F0"/>
<path d="M24.5433 69.4798C24.2678 69.4798 23.9765 69.433 23.7885 69.3649C23.3585 69.2082 22.8314 68.9241 22.8089 68.9121C22.7632 68.8872 22.7302 68.8436 22.7186 68.7926C22.707 68.7411 22.7179 68.6876 22.7488 68.6451L24.9705 65.5744L22.8353 62.7424C22.7938 62.6874 22.7868 62.6137 22.817 62.552L22.9607 62.2594C22.987 62.2055 23.038 62.1686 23.0966 62.1601C23.156 62.1534 23.2143 62.1729 23.2544 62.2168C24.1472 63.1966 25.8502 65.0652 25.9075 65.1247C26.1123 65.3456 26.1313 65.6308 25.9606 65.8896C25.8366 66.0747 24.8166 67.746 24.4919 68.2791C24.8939 68.5128 25.3889 68.8801 25.2681 69.2192L25.267 69.2213C25.1974 69.4093 24.8823 69.4798 24.5433 69.4798ZM23.1631 68.6879C23.3525 68.7837 23.655 68.9301 23.9108 69.0231C24.2611 69.1511 24.7474 69.1249 24.9125 69.0731C24.8384 68.9447 24.5056 68.6929 24.1557 68.5067C24.1118 68.4833 24.0794 68.4425 24.0661 68.394C24.0531 68.3458 24.0605 68.294 24.0865 68.2511C24.1444 68.1557 25.5112 65.9123 25.662 65.6872C25.7407 65.568 25.7364 65.4715 25.6472 65.3755C25.6036 65.3304 24.2614 63.8584 23.4927 63.0147L25.338 65.4623C25.3865 65.5262 25.3872 65.6144 25.3401 65.6794L23.1631 68.6879Z" fill="#2F1D4A"/>
<path d="M20.8383 71.4654C20.5101 71.4654 20.144 71.4012 19.9008 71.3129C19.3766 71.1218 18.8159 70.6955 18.7923 70.6774C18.7146 70.6182 18.6978 70.5069 18.7547 70.427L21.2873 66.8603L19.2371 63.9765C19.1985 63.9219 19.1925 63.8499 19.222 63.7896L19.3938 63.4403C19.4205 63.3868 19.4715 63.3495 19.5305 63.3414C19.5892 63.3332 19.6486 63.3545 19.6883 63.3992C19.6883 63.3992 20.3098 64.0914 20.9479 64.8077L21.1303 65.0113C21.691 65.6379 22.2711 66.2858 22.334 66.351C22.5698 66.6042 22.5905 66.9202 22.3937 67.2195C22.2423 67.445 20.9858 69.5047 20.6208 70.1036C21.048 70.3497 21.7051 70.8033 21.5631 71.2008C21.5628 71.2016 21.5624 71.2023 21.5621 71.2033C21.4911 71.3934 21.1858 71.4654 20.8383 71.4654ZM19.1521 70.4906C19.3439 70.6239 19.6985 70.853 20.0231 70.971C20.4613 71.1317 21.0568 71.1246 21.2198 71.0569C21.1738 70.9125 20.7427 70.5753 20.2845 70.3316C20.2406 70.3082 20.2083 70.2674 20.1949 70.2189C20.182 70.1707 20.1893 70.1189 20.2153 70.076C20.2845 69.9621 21.9152 67.2854 22.0947 67.0173C22.1977 66.8606 22.1914 66.7283 22.074 66.6017C22.0087 66.534 21.4777 65.9411 20.8632 65.2549L20.6805 65.0506C20.2508 64.568 19.8285 64.0967 19.599 63.8403L19.5927 63.8534L21.6548 66.7546C21.6998 66.8177 21.6998 66.9028 21.6548 66.9659L19.1521 70.4906Z" fill="#2F1D4A"/>
<path d="M20.76 52.9598L25.0185 60.9025C25.0836 61.0239 25.0048 61.2296 24.8742 61.2795L16.9022 64.3261C16.7033 64.4021 16.5437 64.2434 16.6136 64.036L20.3283 53.0146C20.4047 52.788 20.6518 52.758 20.76 52.9598Z" fill="white"/>
<path d="M21.1566 53.2821L25.4151 61.2247C25.4801 61.3461 25.4014 61.5518 25.2707 61.6017L17.2988 64.6483C17.0998 64.7244 16.9403 64.5656 17.0102 64.3582L20.7249 53.3368C20.8013 53.1102 21.0483 53.0802 21.1566 53.2821Z" fill="#EBB432"/>
<path d="M16.6656 64.6826C16.576 64.6826 16.4917 64.6503 16.4281 64.5883C16.3318 64.4939 16.3016 64.3482 16.349 64.2074L20.1662 52.8573C20.2171 52.7052 20.3384 52.603 20.4824 52.5902C20.6209 52.5762 20.754 52.6535 20.8267 52.7879L25.2788 60.9825C25.3273 61.0711 25.3322 61.1846 25.2922 61.2932C25.2514 61.4052 25.172 61.4903 25.0743 61.5276L16.8058 64.6564C16.759 64.6741 16.7116 64.6826 16.6656 64.6826ZM20.5112 52.9314C20.5091 52.9319 20.4969 52.9397 20.4874 52.9674L16.6702 64.3177L24.9549 61.207C24.9668 61.1992 24.983 61.1591 24.9795 61.1421L20.5295 52.9525C20.5207 52.9367 20.513 52.9319 20.5112 52.9314Z" fill="#2F1D4A"/>
<path d="M21.2473 59.4997L21.028 56.1936L20.3298 56.3518L20.8263 59.6073L21.2473 59.4997Z" fill="#2F1D4A"/>
<path d="M21.3194 61.3668C21.5221 61.3548 21.6733 61.1198 21.6571 60.842C21.6409 60.5643 21.4634 60.3489 21.2607 60.3609C21.058 60.373 20.9068 60.6079 20.923 60.8857C20.9392 61.1634 21.1167 61.3789 21.3194 61.3668Z" fill="#2F1D4A"/>
<path d="M13.3093 65.4845C13.2752 65.4845 13.2408 65.4753 13.2102 65.4565L12.6126 65.0923C12.5686 65.0654 12.537 65.0218 12.5254 64.971C12.5135 64.9203 12.5226 64.8668 12.5504 64.8228L12.6835 64.6132L12.432 64.6441C12.3318 64.6547 12.2447 64.5916 12.2226 64.4959L12.1541 64.1984C12.1428 64.1484 12.1516 64.0955 12.1787 64.0515C12.2061 64.0079 12.2497 63.9771 12.2995 63.9661L13.647 63.6664L18.436 57.934C18.4947 57.8634 18.5952 57.8446 18.6746 57.8893C18.7547 57.934 18.7923 58.0294 18.7645 58.1173L18.5913 58.6652C18.585 58.6847 18.5758 58.7032 18.5639 58.7198L14.5756 64.2558L15.0324 64.9984C15.0636 65.0494 15.0696 65.1126 15.0485 65.1689C15.0274 65.2253 14.9811 65.2682 14.9241 65.2852L14.6047 65.3806C14.545 65.3987 14.4796 65.3856 14.4305 65.3463L14.0028 65.0001L13.4256 65.4448C13.3911 65.4711 13.3504 65.4845 13.3093 65.4845ZM12.9787 64.8643L13.2967 65.0579L13.8898 64.6011C13.9597 64.5476 14.0567 64.5483 14.1255 64.604L14.5514 64.9487L14.1825 64.349C14.1413 64.2823 14.1445 64.1972 14.1902 64.1337L16.9044 60.3662L13.8975 63.9653C13.8704 63.9979 13.8336 64.0202 13.7924 64.0295L13.1017 64.183C13.1519 64.1937 13.1972 64.2242 13.2254 64.2696C13.2647 64.333 13.2644 64.4135 13.2247 64.4767L12.9787 64.8643Z" fill="#2F1D4A"/>
<path d="M78.8406 63.029L81.6031 76.4733L85.4737 75.6517C85.6344 75.6106 85.7397 75.4537 85.7192 75.2857L84.105 62.0899C84.0807 61.8914 83.8928 61.7581 83.7023 61.8043L78.8406 63.029Z" fill="white"/>
<path opacity="0.5" d="M61.5862 70.2372C62.1205 70.2372 62.5536 69.2793 62.5536 68.0977C62.5536 66.9161 62.1205 65.9582 61.5862 65.9582C61.052 65.9582 60.6189 66.9161 60.6189 68.0977C60.6189 69.2793 61.052 70.2372 61.5862 70.2372Z" fill="#B19CD1"/>
<path opacity="0.5" d="M62.7387 78.9661C63.273 78.9661 63.7061 78.0082 63.7061 76.8266C63.7061 75.645 63.273 74.6871 62.7387 74.6871C62.2045 74.6871 61.7714 75.645 61.7714 76.8266C61.7714 78.0082 62.2045 78.9661 62.7387 78.9661Z" fill="#B19CD1"/>
<path d="M79.0606 63.2172L64.6436 58.043L64.4729 58.7272L66.4918 59.6278L65.939 61.685L67.7617 61.6024L68.2037 60.7295L78.0294 63.7279" fill="#ECE8F0"/>
<path d="M77.9916 63.8221C77.9751 63.8221 77.9578 63.8196 77.941 63.8146L68.3113 60.9695L67.9371 61.7086C67.9076 61.7667 67.8496 61.8043 67.785 61.8071L65.9625 61.8898C65.9059 61.8979 65.85 61.8674 65.8139 61.822C65.778 61.777 65.7657 61.717 65.7808 61.661L66.2931 59.7542L64.4154 58.9166C64.3353 58.8808 64.2924 58.7921 64.3139 58.7063L64.4846 58.0223C64.4969 57.9726 64.5296 57.9304 64.5746 57.9063C64.6196 57.8818 64.673 57.8779 64.72 57.896L79.1919 63.1894C79.2853 63.2235 79.3338 63.3278 79.2997 63.4217C79.266 63.5164 79.1624 63.5653 79.0696 63.5306L64.7847 58.3056L64.6997 58.6464L66.5798 59.4854C66.661 59.5216 66.7039 59.6123 66.6807 59.6989L66.1927 61.5159L67.6645 61.4493L68.0587 60.6705C68.0981 60.5925 68.1863 60.5549 68.2695 60.579L78.0423 63.4664C78.1375 63.4944 78.1923 63.5951 78.1642 63.6915C78.1413 63.7706 78.0696 63.8221 77.9916 63.8221Z" fill="#2F1D4A"/>
<path d="M67.4646 61.1865H67.4593L66.881 61.1691C66.8269 61.1673 66.7763 61.1411 66.7432 61.0978C66.7102 61.0542 66.6986 60.9981 66.7113 60.9449L66.9305 60.0307C66.946 59.9665 66.9945 59.9162 67.057 59.8984L67.9431 59.6484C68.0387 59.6201 68.1382 59.6779 68.1649 59.7743C68.1916 59.8708 68.1357 59.9711 68.0401 59.9981L67.2555 60.2194L67.1132 60.8127L67.357 60.8201L67.5285 60.4882C67.5697 60.4087 67.6624 60.3722 67.7457 60.4002L68.2762 60.5811C68.3704 60.613 68.421 60.7162 68.389 60.8112C68.3574 60.9059 68.2576 60.9573 68.161 60.925L67.7762 60.7938L67.6241 61.0889C67.5932 61.1488 67.5313 61.1865 67.4646 61.1865Z" fill="#2F1D4A"/>
<path d="M74.0051 68.56L62.8084 68.0183C62.8084 68.0183 62.3073 66.7437 61.6693 66.498C61.4848 66.427 61.2527 66.6573 61.2527 66.6573L61.5895 69.6403L74.2386 69.0708" fill="#ECE8F0"/>
<path d="M74.353 71.9487L62.4034 75.3805L62.5111 78.5199L62.8188 78.5645C62.8188 78.5645 63.835 78.2411 63.7876 76.4876C65.4334 75.7589 74.5153 72.5353 74.5153 72.5353" fill="#ECE8F0"/>
<path d="M80.3835 76.5997L90.3521 81.749L91.0729 82.7236L91.4162 82.5469L90.925 81.4791L92.6851 82.1463L92.803 81.7549L91.2345 80.8788L92.8508 80.6174L92.7746 80.1917L90.6682 80.197L91.1553 78.9549L90.7627 78.7354L89.7864 80.1777L80.8906 76.1543L80.3835 76.5997Z" fill="#ECE8F0"/>
<path d="M91.0732 82.9053C91.0181 82.9053 90.964 82.8798 90.9292 82.8322L90.2331 81.8914L80.302 76.7615C80.2134 76.7157 80.1783 76.6062 80.2236 76.5171C80.2693 76.4274 80.3786 76.3926 80.4657 76.438L90.4341 81.5871C90.4588 81.5999 90.4798 81.618 90.4964 81.6403L91.1267 82.4925L91.1805 82.4645L90.7623 81.5556C90.7314 81.4886 90.7437 81.4095 90.7936 81.3556C90.8428 81.3013 90.9201 81.2836 90.9886 81.3091L92.569 81.9085L92.5891 81.8425L91.1478 81.0375C91.0807 80.9999 91.0445 80.9237 91.0578 80.8475C91.0708 80.7712 91.1306 80.7117 91.2065 80.6992L92.6414 80.4673L92.6246 80.3737L90.6689 80.3787C90.6095 80.3787 90.5533 80.3489 90.5199 80.2992C90.4862 80.2496 90.4792 80.1865 90.5013 80.1304L90.9299 79.0364L90.8193 78.9744L89.9353 80.2801C89.8857 80.3528 89.7916 80.3797 89.7132 80.3432L80.8175 76.32C80.7268 76.2792 80.6861 76.1718 80.7268 76.0803C80.7672 75.9888 80.874 75.9477 80.9643 75.9888L89.7231 79.9499L90.6144 78.6328C90.6671 78.5551 90.7697 78.5317 90.8502 78.5764L91.2427 78.7959C91.3217 78.8403 91.3561 78.9367 91.3228 79.0215L90.9335 80.0148L92.7746 80.0102H92.775C92.8621 80.0102 92.9366 80.0729 92.9521 80.1594L93.0283 80.585C93.0367 80.6329 93.0259 80.6825 92.9981 80.7222C92.97 80.7619 92.9275 80.7889 92.8797 80.7967L91.7782 80.9747L92.8906 81.596C92.9647 81.6375 93.0002 81.7258 92.9756 81.8077L92.8576 82.1992C92.8432 82.247 92.8094 82.2871 92.7648 82.3091C92.7202 82.3314 92.6685 82.3339 92.6221 82.3162L91.2736 81.8048L91.5797 82.4701C91.6205 82.5587 91.5846 82.6641 91.4985 82.7084L91.1552 82.8853C91.1292 82.8988 91.101 82.9053 91.0732 82.9053Z" fill="#2F1D4A"/>
<path d="M83.7703 62.1327L85.2593 75.2677L75.043 77.8007L74.0468 64.7165L83.7703 62.1327Z" fill="white"/>
<path d="M75.043 77.982C75.0054 77.982 74.9685 77.9703 74.9376 77.9476C74.8947 77.9164 74.8677 77.8675 74.8638 77.8143L73.8677 64.7302C73.861 64.643 73.9172 64.5632 74.0012 64.5409L83.7247 61.9571C83.7749 61.944 83.8287 61.9532 83.8719 61.9826C83.9151 62.0124 83.9432 62.0596 83.9492 62.1121L85.4383 75.2468C85.4485 75.3376 85.3901 75.422 85.3023 75.4437L75.0858 77.9767C75.0718 77.9803 75.0574 77.982 75.043 77.982ZM74.2377 64.8533L75.206 77.5731L85.0627 75.1291L83.6154 62.3617L74.2377 64.8533Z" fill="#2F1D4A"/>
<path d="M78.3273 65.0703C78.3378 65.0555 78.3509 65.0427 78.3661 65.0327L80.5692 63.9783C80.6557 63.9339 80.7614 63.9686 80.8054 64.0559C80.8064 64.058 80.8075 64.0602 80.8085 64.0623C80.8515 64.1522 80.8142 64.2602 80.7252 64.3037L78.5295 65.366C78.4405 65.4094 78.3334 65.3719 78.2903 65.282C78.2564 65.2107 78.2714 65.1256 78.3273 65.0703Z" fill="#2F1D4A"/>
<path d="M78.4505 66.2154C78.4766 66.1904 78.5097 66.1741 78.5452 66.1687L80.9262 65.7497C81.0238 65.7327 81.1165 65.7987 81.1334 65.8972C81.1335 65.898 81.1337 65.8988 81.1338 65.8997C81.1511 65.996 81.0879 66.0883 80.9924 66.1058C80.9909 66.1061 80.9894 66.1064 80.9878 66.1066L78.6043 66.523C78.5065 66.5386 78.4147 66.4712 78.3993 66.3726C78.3903 66.3149 78.4093 66.2564 78.4505 66.2154Z" fill="#2F1D4A"/>
<path d="M77.4411 66.7692C77.3083 66.7692 77.1709 66.7153 77.0437 66.6096C76.8343 66.4359 76.6607 66.1213 76.7342 65.8557C76.7795 65.6912 76.9144 65.5805 77.1038 65.5529C77.4569 65.5004 77.809 65.81 77.9056 66.1192C77.9843 66.3706 77.8901 66.5997 77.66 66.7164C77.5904 66.7518 77.5163 66.7692 77.4411 66.7692ZM77.18 65.9107C77.1716 65.9107 77.1632 65.9111 77.1554 65.9125C77.0897 65.9221 77.0834 65.944 77.0806 65.9532C77.0581 66.0348 77.1368 66.2171 77.2721 66.3295C77.322 66.3706 77.4179 66.433 77.4983 66.3923C77.5598 66.3611 77.5918 66.3228 77.5623 66.2281C77.5121 66.0668 77.3195 65.9107 77.18 65.9107Z" fill="#2F1D4A"/>
<path d="M81.4165 62.6559L82.8591 75.7866L85.1999 75.2232L83.748 62.1771L81.4165 62.6559Z" fill="#2F1D4A"/>
<path d="M61.5896 69.8213C61.4986 69.8213 61.4213 69.7525 61.4108 69.6603L61.0742 66.6776C61.0678 66.6219 61.0875 66.5666 61.1269 66.5276C61.1592 66.4957 61.4498 66.2173 61.7337 66.3279C62.3331 66.5584 62.7853 67.5031 62.9311 67.8418L74.0144 68.3783C74.1135 68.3829 74.1901 68.468 74.1851 68.5684C74.1806 68.6684 74.1099 68.7545 73.9968 68.7407L62.8001 68.1989C62.7298 68.1957 62.6676 68.151 62.6416 68.0846C62.5102 67.7506 62.0675 66.8449 61.6054 66.6669C61.5784 66.6552 61.5078 66.6871 61.4428 66.7335L61.7495 69.4506L74.2308 68.8893C74.2336 68.8889 74.2364 68.8889 74.2389 68.8889C74.3349 68.8889 74.4143 68.9648 74.4185 69.0623C74.423 69.1627 74.3461 69.2474 74.247 69.2517L61.5977 69.8208C61.5949 69.8212 61.5921 69.8213 61.5896 69.8213Z" fill="#2F1D4A"/>
<path d="M62.8182 78.7462C62.8097 78.7462 62.8009 78.7455 62.7925 78.7444L62.4847 78.6997C62.3986 78.687 62.3336 78.6139 62.3305 78.5263L62.223 75.3873C62.2202 75.3036 62.2739 75.2291 62.3537 75.2064L74.3031 71.7744C74.399 71.7453 74.4977 71.8028 74.5251 71.8992C74.5525 71.9957 74.497 72.0961 74.4014 72.1234L62.5876 75.5167L62.685 78.3618L62.797 78.3782C62.9597 78.3058 63.6456 77.915 63.6069 76.493C63.6052 76.4192 63.6477 76.3515 63.7144 76.3217C65.3479 75.5986 74.0838 72.4957 74.4548 72.3642C74.5493 72.3301 74.6516 72.3808 74.6843 72.4752C74.7173 72.5698 74.6681 72.6734 74.5743 72.7067C74.4854 72.7383 65.8465 75.8065 63.9685 76.6068C63.9681 78.3682 62.9179 78.7232 62.8722 78.7378C62.8547 78.7434 62.8364 78.7462 62.8182 78.7462Z" fill="#2F1D4A"/>
<path d="M82.956 63.7533C83.2526 63.7157 83.4677 63.4822 83.4366 63.2319C83.4054 62.9816 83.1397 62.8092 82.8431 62.8468C82.5466 62.8844 82.3314 63.1178 82.3626 63.3681C82.3937 63.6185 82.6594 63.7909 82.956 63.7533Z" fill="#E0557A"/>
<path d="M83.1366 65.1966C83.4332 65.159 83.6483 64.9256 83.6172 64.6752C83.586 64.4249 83.3203 64.2525 83.0237 64.2901C82.7271 64.3277 82.512 64.5611 82.5431 64.8114C82.5743 65.0618 82.84 65.2342 83.1366 65.1966Z" fill="#EAB332"/>
<path d="M83.3154 66.6399C83.612 66.6023 83.8271 66.3689 83.796 66.1185C83.7648 65.8682 83.4991 65.6958 83.2025 65.7334C82.9059 65.771 82.6908 66.0044 82.7219 66.2548C82.7531 66.5051 83.0188 66.6775 83.3154 66.6399Z" fill="#F48352"/>
</g>
</g>
<defs>
<clipPath id="clip0_147_15831">
<rect width="93" height="121" fill="white"/>
</clipPath>
<clipPath id="clip1_147_15831">
<rect width="93.3631" height="122.369" fill="white"/>
</clipPath>
</defs>
</svg>
