<svg width="40" height="40" viewBox="0 0 40 40" fill="none" xmlns="http://www.w3.org/2000/svg">
<linearGradient id="icon-power-features-gradient" gradientUnits="userSpaceOnUse">
<stop id="icon-power-features-stop-1" offset="0%"/>
<stop id="icon-power-features-stop-2" offset="100%"/>
</linearGradient>
<path d="M16 8C9.373 8 4 13.373 4 20C4 26.627 9.373 32 16 32H24C30.627 32 36 26.627 36 20C36 13.373 30.627 8 24 8H16ZM16 4H24C32.837 4 40 11.163 40 20C40 28.837 32.837 36 24 36H16C7.163 36 0 28.837 0 20C0 11.163 7.163 4 16 4ZM24.282 9.047L21.895 16.04C21.8235 16.2506 21.8314 16.48 21.9172 16.6852C22.003 16.8903 22.1609 17.0571 22.361 17.154L27.014 19.43C27.1459 19.4936 27.2605 19.5881 27.3481 19.7054C27.4358 19.8228 27.4938 19.9595 27.5174 20.104C27.5409 20.2486 27.5293 20.3967 27.4834 20.5357C27.4376 20.6748 27.3589 20.8008 27.254 20.903L16.48 31.425C16.3921 31.5104 16.2742 31.5578 16.1517 31.5571C16.0292 31.5563 15.9118 31.5075 15.825 31.421C15.7647 31.3611 15.7224 31.2855 15.703 31.2028C15.6835 31.12 15.6877 31.0335 15.715 30.953L18.104 23.954C18.1754 23.7432 18.1672 23.5136 18.081 23.3084C17.9948 23.1032 17.8365 22.9366 17.636 22.84L12.986 20.57C12.8539 20.5064 12.7391 20.4119 12.6514 20.2945C12.5636 20.1771 12.5055 20.0402 12.4819 19.8955C12.4584 19.7509 12.4701 19.6026 12.5161 19.4634C12.562 19.3242 12.6409 19.1982 12.746 19.096L23.517 8.575C23.6049 8.4896 23.7228 8.44216 23.8453 8.44291C23.9679 8.44366 24.0852 8.49254 24.172 8.579C24.2323 8.63889 24.2746 8.71451 24.294 8.79725C24.3135 8.87998 24.3093 8.96652 24.282 9.047V9.047Z" fill="currentColor" />
</svg>
