<?xml version="1.0" encoding="UTF-8"?>
<svg width="22px" height="22px" viewBox="0 0 22 22" version="1.1" xmlns="http://www.w3.org/2000/svg" xmlns:xlink="http://www.w3.org/1999/xlink">
	<path d="M4,0 L18,0 C20.209139,0 22,1.790861 22,4 L22,18 C22,20.209139 20.209139,22 18,22 L4,22 C1.790861,22 0,20.209139 0,18 L0,4 C0,1.790861 1.790861,0 4,0 Z M4,2 C2.8954305,2 2,2.8954305 2,4 L2,18 C2,19.1045695 2.8954305,20 4,20 L18,20 C19.1045695,20 20,19.1045695 20,18 L20,4 C20,2.8954305 19.1045695,2 18,2 L4,2 Z M6,5 L8,5 C8.55228475,5 9,5.44771525 9,6 L9,8 C9,8.55228475 8.55228475,9 8,9 L6,9 C5.44771525,9 5,8.55228475 5,8 L5,6 C5,5.44771525 5.44771525,5 6,5 Z M6,13 L8,13 C8.55228475,13 9,13.4477153 9,14 L9,16 C9,16.5522847 8.55228475,17 8,17 L6,17 C5.44771525,17 5,16.5522847 5,16 L5,14 C5,13.4477153 5.44771525,13 6,13 Z M14,5 L16,5 C16.5522847,5 17,5.44771525 17,6 L17,8 C17,8.55228475 16.5522847,9 16,9 L14,9 C13.4477153,9 13,8.55228475 13,8 L13,6 C13,5.44771525 13.4477153,5 14,5 Z M14,13 L16,13 C16.5522847,13 17,13.4477153 17,14 L17,16 C17,16.5522847 16.5522847,17 16,17 L14,17 C13.4477153,17 13,16.5522847 13,16 L13,14 C13,13.4477153 13.4477153,13 14,13 Z" fill="currentColor" fill-rule="nonzero">
	</path>
</svg>
