<svg width="22" height="22" xmlns="http://www.w3.org/2000/svg"><path d="M10.709 17.212c-.403.197-.817.396-1.244.596a2.139 2.139 0 0 1-2.411-.413l-2.399-2.374a2.086 2.086 0 0 1-.413-2.394c.203-.421.405-.83.604-1.227a2.144 2.144 0 0 1-.238-.064l-3.882-1.28a1.049 1.049 0 0 1-.415-1.741l2.362-2.338a2.138 2.138 0 0 1 2.172-.508l2.49.822c.099.033.194.072.283.118.978-1.547 1.89-2.74 2.738-3.58C14.032-.81 18.99-.515 20.866 1.343c1.876 1.858 1.458 7.474-1.502 10.404-.863.854-2.067 1.762-3.61 2.722.043.085.082.175.113.27l.83 2.464a2.087 2.087 0 0 1-.513 2.151l-2.361 2.338a1.064 1.064 0 0 1-1.758-.41l-1.294-3.844a2.09 2.09 0 0 1-.062-.226zm1.8-.907l-.099.097a.522.522 0 0 0-.128.538l1.022 3.036 1.754-1.737a.522.522 0 0 0 .129-.538l-.813-2.412c-.583.332-1.205.671-1.866 1.016zM6.792 7.774l-2.451-.81a.535.535 0 0 0-.543.128L2.044 8.829 5.111 9.84c.19.062.401.013.543-.127l.131-.13c.343-.64.679-1.244 1.008-1.81zm4.69-3.83C9.88 5.53 7.922 8.666 5.677 13.308a.522.522 0 0 0 .103.598L8.18 16.28c.158.158.4.199.603.104 4.64-2.181 7.806-4.119 9.455-5.752 2.244-2.222 2.803-6.886 1.501-8.175-1.529-1.514-5.538-1.205-8.257 1.487zm-9.326 11.51a.8.8 0 0 1 1.079-.32.784.784 0 0 1 .323 1.068c-.9 1.653-.861 2.454-.521 2.79.34.337 1.15.376 2.82-.515a.8.8 0 0 1 1.078.32.784.784 0 0 1-.323 1.068c-2.233 1.19-3.69 1.244-4.701.243-1.012-1.002-.958-2.444.245-4.654zm10.639-6.122a2.87 2.87 0 0 1 0-4.088 2.94 2.94 0 0 1 4.128 0 2.87 2.87 0 0 1 0 4.088 2.94 2.94 0 0 1-4.128 0zm1.126-1.115a1.336 1.336 0 0 0 1.876 0 1.304 1.304 0 0 0 0-1.858 1.336 1.336 0 0 0-1.876 0 1.304 1.304 0 0 0 0 1.858z" fill="currentColor" fill-rule="nonzero"/></svg>
