<?xml version="1.0" encoding="UTF-8"?>
<svg width="24px" height="24px" viewBox="0 0 24 24" version="1.1" xmlns="http://www.w3.org/2000/svg" xmlns:xlink="http://www.w3.org/1999/xlink">
    <!-- Generator: Sketch 48.2 (47327) - http://www.bohemiancoding.com/sketch -->
    <title>icon-trash</title>
    <desc>Created with Sketch.</desc>
    <defs></defs>
    <g id="Icons" stroke="none" stroke-width="1" fill="none" fill-rule="evenodd">
        <g id="icon-trash" fill="currentColor">
            <g id="Trash-Icon-Dark">
                <path d="M6.44444444,8.8817842e-14 L17.5555556,8.8817842e-14 L6.44444444,8.8817842e-14 Z M22,6 L22,19.2 C22,21.8509668 20.0101544,24 17.5555556,24 L6.44444444,24 C3.98984556,24 2,21.8509668 2,19.2 L2,6 L4,6 L4,19.5 C4,20.8807119 5.03009485,22 6.30078125,22 L17.8046875,22 C19.0753739,22 20.1054687,20.8807119 20.1054687,19.5 L20.1054687,6 L22,6 Z" id="Combined-Shape" fill-rule="nonzero"></path>
                <rect id="Rectangle-54" fill-rule="evenodd" x="0" y="4" width="24" height="2" rx="1"></rect>
                <path d="M15.2985325,2 L8.70146755,2 L7.92368977,4 L16.0763102,4 L15.2985325,2 Z M8.70146755,0 L15.2985325,0 C16.1233598,0 16.8635862,0.506364581 17.1625418,1.27510748 L19,6 L5,6 L6.8374582,1.27510748 C7.13641377,0.506364581 7.87664025,0 8.70146755,0 Z" id="Rectangle-55" fill-rule="nonzero"></path>
                <rect id="Rectangle-52" fill-rule="evenodd" x="6" y="8" width="2" height="12" rx="1"></rect>
                <rect id="Rectangle-52" fill-rule="evenodd" x="11" y="8" width="2" height="12" rx="1"></rect>
                <rect id="Rectangle-52" fill-rule="evenodd" x="16" y="8" width="2" height="12" rx="1"></rect>
            </g>
        </g>
    </g>
</svg>
