<svg viewBox="0 0 32 32">
  <g id="icon-bitbucket" stroke="none" fill="currentColor">
    <path d="M29.3673282,3.54600696 C29.1643282,3.25881969 28.9163282,3.01697779 28.6383282,2.80234309 C28.0283282,2.32369765 27.3413282,1.98209596 26.6283282,1.69188567 C25.1123282,1.07619649 23.5313282,0.713433625 21.9273282,0.453453575 C19.9693282,0.138051422 17.9953282,0.0120920953 15.9213282,0 C14.0673282,0.0161227938 12.1243282,0.134020723 10.1963282,0.437330781 C8.8273282,0.653980823 7.4753282,0.947214135 6.1613282,1.39562934 C5.2923282,1.6949087 4.4513282,2.04961016 3.6843282,2.56856258 C3.3193282,2.81443519 2.9833282,3.09356106 2.7083282,3.44423182 C2.3643282,3.8855933 2.2173282,4.37733851 2.3063282,4.93458257 C2.4793282,6.03496325 2.6393282,7.1363516 2.8193282,8.2316939 C3.0833282,9.8550577 3.3563282,11.4784215 3.6303282,13.0967469 C3.9363282,14.8974615 4.2503282,16.6971683 4.5483282,18.4978828 C4.6183282,18.9170755 4.7943282,19.2727846 5.0743282,19.5760947 C5.2533282,19.7705759 5.4443282,19.955988 5.6483282,20.123262 C6.3783282,20.71779 7.2103282,21.1410134 8.0803282,21.4876534 C10.1623282,22.3240233 12.3393282,22.7019013 14.5653282,22.8258453 C16.1813282,22.916536 17.7953282,22.8590986 19.4033282,22.6374101 C20.7723282,22.4509903 22.1123282,22.154734 23.4143282,21.6821346 C24.3793282,21.3304562 25.3053282,20.9011868 26.1393282,20.2895283 C26.4943282,20.0275329 26.8223282,19.7383303 27.0843282,19.3816135 C27.2653282,19.1417869 27.3893282,18.8737455 27.4383282,18.5704354 C27.8353282,16.2114692 28.2473282,13.8555259 28.6343282,11.495552 C28.9963282,9.30688271 29.3353282,7.11619811 29.6923282,4.92752885 C29.7763282,4.4216762 29.6613282,3.9651996 29.3673282,3.54600696 Z M15.969603,19.9999718 C13.2170114,19.9907986 10.990853,17.7399243 11.0000283,14.9742042 C11.0069097,12.2107773 13.2456842,9.98971597 16.0108919,10.0000358 C18.7921563,10.009209 21.0102863,12.2486168 20.9999641,15.03039 C20.9873481,17.7800571 18.730223,20.009145 15.969603,19.9999718 Z M24.6813282,4.42772224 C24.5573282,4.56778901 24.4073282,4.69173299 24.2453282,4.78746208 C23.7953282,5.05751888 23.2943282,5.199601 22.7913282,5.33261404 C21.8393282,5.57747897 20.8683282,5.71855342 19.8953282,5.82133623 C18.6143282,5.95837998 17.3303282,6.00574068 16.1043282,6.01077906 C14.6143282,6.00271766 13.1903282,5.94225718 11.7723282,5.7709525 C10.7083282,5.64096248 9.6483282,5.47771919 8.6263282,5.13309447 C8.3233282,5.02829631 8.0283282,4.89528326 7.7433282,4.74917044 C7.5973282,4.67661787 7.4683282,4.56275064 7.3573282,4.44283736 C7.1603282,4.22618732 7.1613282,3.98938379 7.3623282,3.77474909 C7.4793282,3.64878977 7.6223282,3.54096858 7.7693282,3.45632392 C8.1933282,3.20843596 8.6593282,3.06433849 9.1283282,2.94039452 C10.1113282,2.68242982 11.1133282,2.53530932 12.1223282,2.42748814 C13.7743282,2.25618346 15.4303282,2.20479205 17.0893282,2.25416811 C18.6133282,2.29951346 20.1343282,2.41338069 21.6393282,2.68847586 C22.3453282,2.81645054 23.0463282,2.96457871 23.7143282,3.23765853 C23.9503282,3.33439529 24.1773282,3.45632392 24.3973282,3.58631394 C24.5063282,3.65080512 24.6053282,3.75157258 24.6853282,3.85435539 C24.8273282,4.03775217 24.8333282,4.25440221 24.6813282,4.42772224 Z M26.3453282,22.9356818 C26.3543282,23.0243572 26.3413282,23.1200863 26.3243282,23.2087617 C26.0193282,24.8250717 25.7103282,26.4383588 25.4133282,28.0566842 C25.3123282,28.5998208 25.0693282,29.0542821 24.6893282,29.4442521 C24.2673282,29.8795676 23.7713282,30.2020235 23.2413282,30.4751033 C22.2623282,30.9769252 21.2233282,31.2923274 20.1563282,31.5140158 C18.7793282,31.8022107 17.3853282,31.9311931 16.5933282,31.9241394 C14.1833282,31.9180933 12.4093282,31.7246198 10.6763282,31.2207825 C9.8743282,30.9890173 9.0993282,30.6877226 8.3763282,30.2604686 C7.9973282,30.0367648 7.6443282,29.7788001 7.3343282,29.4654133 C6.9463282,29.0704049 6.6943282,28.6129206 6.5933282,28.0586996 C6.2973282,26.4423895 5.9843282,24.8270871 5.6783282,23.2117847 C5.6623282,23.130163 5.6573282,23.0475337 5.6593282,22.9649044 C5.6783282,22.5678806 6.0293282,22.3633227 6.3833282,22.538658 C6.4193282,22.5598192 6.4553282,22.5799727 6.4883282,22.6021415 C7.6623282,23.461688 8.9723282,24.0360625 10.3463282,24.4723856 C11.6083282,24.8754555 12.9023282,25.118305 14.2193282,25.236203 C15.7393282,25.3752621 17.2503282,25.3410011 18.7593282,25.1253588 C20.7593282,24.8432099 22.6693282,24.2678277 24.4463282,23.2843372 C24.8003282,23.0888484 25.1323282,22.8510372 25.4713282,22.6333794 C25.5273282,22.5981108 25.5793282,22.5567962 25.6383282,22.5285813 C25.9783282,22.3764224 26.3123282,22.5668729 26.3453282,22.9356818 Z M15.9817618,17.9999831 C14.3302068,17.9944792 12.9945118,16.6439546 13.000017,14.9845225 C13.0041458,13.3264664 14.3474105,11.9938296 16.0065351,12.0000215 C17.6752938,12.0055254 19.0061718,13.3491701 18.9999785,15.018234 C18.9924088,16.6680343 17.6381338,18.005487 15.9817618,17.9999831 Z" />
  </g>
</svg>
