<svg width="24" height="24" fill="none" xmlns="http://www.w3.org/2000/svg">
	<path d="M12 4a1 1 0 0 1-1-1V1a1 1 0 1 1 2 0v2a1 1 0 0 1-1 1zM0 8a1 1 0 0 1 1-1h2a1 1 0 0 1 0 2H1a1 1 0 0 1-1-1zM17 12a1 1 0 1 0 0 2h1v1a1 1 0 1 0 2 0v-1h1a1 1 0 1 0 0-2h-1v-1a1 1 0 1 0-2 0v1h-1zM4.226 1.313a1 1 0 0 0-1.452 1.374l1.5 1.586a1 1 0 1 0 1.452-1.374l-1.5-1.586zM21.187 1.274a1 1 0 0 1 .04 1.413l-1.5 1.586a1 1 0 0 1-1.454-1.374l1.5-1.586a1 1 0 0 1 1.414-.04z" fill="currentColor" />
	<path fill-rule="evenodd" clip-rule="evenodd" d="M9.582 5c-2.15 0-4.029 1.478-4.464 3.575l-1.942 8.54A3.001 3.001 0 0 0 1 20v4h22v-4a3 3 0 0 0-3-3h-7v-2.17a3.001 3.001 0 1 0-2 0V17H5.253l1.82-8.002.002-.01C7.308 7.849 8.345 7 9.582 7h4.836c.56 0 1.082.175 1.506.474a1 1 0 1 0 1.152-1.635A4.609 4.609 0 0 0 14.418 5H9.582zM3 20a1 1 0 0 1 1-1h16a1 1 0 0 1 1 1v2H3v-2zm9-7a1 1 0 1 0 0-2 1 1 0 0 0 0 2z" fill="currentColor" />
</svg>
