<svg width="13" height="13" viewBox="0 0 13 13" fill="none" xmlns="http://www.w3.org/2000/svg">
<path fill-rule="evenodd" clip-rule="evenodd" d="M1.94733 3.91522V9.6023C1.94733 10.7444 2.82297 11.6703 3.90313 11.6703H8.79265C9.87282 11.6703 10.7485 10.7444 10.7485 9.6023V3.91522H9.91486V9.73169C9.91486 10.3266 9.46156 10.8088 8.90239 10.8088H3.84002C3.28084 10.8088 2.82754 10.3266 2.82754 9.73169V3.91522H1.94733Z" fill="currentColor"/>
<rect x="1.06778" y="3.05371" width="10.5614" height="0.861678" rx="0.430839" fill="currentColor"/>
<path fill-rule="evenodd" clip-rule="evenodd" d="M7.80001 1.3302H4.89692C4.53395 1.3302 4.20821 1.54836 4.07665 1.87957L3.26807 3.91523H9.42886L8.62028 1.87957C8.48872 1.54836 8.16298 1.3302 7.80001 1.3302ZM4.89723 2.19195H7.80032L8.14258 3.05362H4.55496L4.89723 2.19195Z" fill="currentColor"/>
<rect x="3.70779" y="4.77673" width="0.880108" height="5.17007" rx="0.440054" fill="currentColor"/>
<rect x="5.90857" y="4.77673" width="0.880119" height="5.17007" rx="0.44006" fill="currentColor"/>
<rect x="8.10883" y="4.77673" width="0.880112" height="5.17007" rx="0.440056" fill="currentColor"/>
</svg>
