<?xml version="1.0" encoding="UTF-8"?>
<svg width="24px" height="24px" viewBox="0 0 24 24" version="1.1" xmlns="http://www.w3.org/2000/svg" xmlns:xlink="http://www.w3.org/1999/xlink">
	<path d="M23.699284,21.8588501 C24.1000944,21.1444353 24.1000944,20.2916812 23.699284,19.5772664 L13.9198258,2.14083943 C13.5190154,1.42642463 12.8013401,1.0000476 11.9997194,1.0000476 C11.1984927,1.0000476 10.4808175,1.42642463 10.0804012,2.14083943 L6.92042311,7.77420903 L7.72283211,8.25007987 C10.0662132,9.63955783 12.0241542,11.6566336 13.3850178,14.0830475 C14.5902078,16.2315658 15.2909362,18.638101 15.4332101,21.0949415 L13.2202796,21.0953472 C13.0803704,19.0352686 12.4836871,17.0210327 11.4731877,15.2189711 C10.3066206,13.1398252 8.62770984,11.4107872 6.61695802,10.2184732 L5.81573135,9.7434137 L2.86108485,15.0128821 L3.66309974,15.4883472 C5.62577008,16.6518575 7.00042754,18.7934792 7.28458122,21.0949415 L2.22026116,21.0949415 C2.03621155,21.0953472 1.94241325,20.9768866 1.9030022,20.9067027 C1.86359114,20.8361132 1.81117445,20.693717 1.90260809,20.5298195 L3.31549427,18.0117203 C2.83625589,17.5938627 2.29120105,17.2766155 1.70988805,17.0644412 L0.300154749,19.5772664 C-0.10026153,20.2916812 -0.10026153,21.1444353 0.300548859,21.8588501 C0.701359249,22.5732649 1.41903449,23.0000476 2.22026116,23.0000476 L9.19207609,23.0000476 L9.19286431,22.0483059 C9.19444076,20.3898575 8.76722496,18.7504763 7.95851019,17.3078534 C7.30468086,16.143126 6.41872043,15.1362109 5.36565714,14.3556691 L6.47547234,12.377945 C7.85880023,13.3621417 9.02221446,14.659123 9.87034028,16.1715241 C10.8737456,17.9610095 11.4034302,19.9922842 11.4018537,22.0466832 L11.4010655,23.0000476 L17.3103585,23.0000476 L17.3111467,22.0483059 C17.3139055,18.9293843 16.5107083,15.8457575 14.9878653,13.1304944 C13.6199077,10.6919099 11.7120187,8.62168916 9.43681872,7.09792881 L11.6832486,3.09339249 C11.7746823,2.92949495 11.9208973,2.90474804 11.9997194,2.90474804 C12.0789356,2.90474804 12.2251506,2.92908926 12.3169783,3.09298681 L22.0968307,20.5302252 C22.1886584,20.693717 22.1362417,20.8361132 22.0968307,20.906297 C22.0574196,20.9768866 21.9636213,21.0949415 21.7795717,21.0949415 L19.4819074,21.0953472 C19.5106775,21.7314644 19.5142245,22.3671759 19.4842721,23.0000476 L21.7795717,23.0000476 C22.5807984,23.0000476 23.2980795,22.5732649 23.699284,21.8588501" fill="currentColor">
	</path>
</svg>
