<?xml version="1.0" encoding="UTF-8"?>
<svg width="22px" height="22px" viewBox="0 0 22 22" version="1.1" xmlns="http://www.w3.org/2000/svg" xmlns:xlink="http://www.w3.org/1999/xlink">
	<path d="M16.0510204,19 L16.0510204,7.09302326 C16.0510204,6.52789467 16.5033042,6.06976744 17.0612245,6.06976744 C17.6191448,6.06976744 18.0714286,6.52789467 18.0714286,7.09302326 L18.0714286,19 L18.9897959,19 C19.5477162,19 20,18.5418728 20,17.9767442 L20,4.02325581 C20,3.45812723 19.5477162,3 18.9897959,3 L3.01020408,3 C2.45228377,3 2,3.45812723 2,4.02325581 L2,17.9767442 C2,18.5418728 2.45228377,19 3.01020408,19 L3.92857143,19 L3.92857143,13.2325581 C3.92857143,12.6674296 4.3808552,12.2093023 4.93877551,12.2093023 C5.49669582,12.2093023 5.94897959,12.6674296 5.94897959,13.2325581 L5.94897959,19 L7.96938776,19 L7.96938776,13.2325581 C7.96938776,12.6674296 8.42167153,12.2093023 8.97959184,12.2093023 C9.53751215,12.2093023 9.98979592,12.6674296 9.98979592,13.2325581 L9.98979592,19 L12.0102041,19 L12.0102041,11.1860465 C12.0102041,10.6209179 12.4624879,10.1627907 13.0204082,10.1627907 C13.5783285,10.1627907 14.0306122,10.6209179 14.0306122,11.1860465 L14.0306122,19 L16.0510204,19 Z M3.025,1 L18.975,1 C20.6456614,1 22,2.36801882 22,4.05555556 L22,17.9444444 C22,19.6319812 20.6456614,21 18.975,21 L3.025,21 C1.35433863,21 0,19.6319812 0,17.9444444 L0,4.05555556 C0,2.36801882 1.35433863,1 3.025,1 Z" id="Combined-Shape" fill="currentColor">
	</path>
</svg>
