<svg width="24" height="24" xmlns="http://www.w3.org/2000/svg"><g fill="currentColor" fill-rule="nonzero"><path d="M10.103 4.641a5.241 5.241 0 0 1 5.242 5.241v2.8a5.237 5.237 0 0 1-5.241 5.241 5.237 5.237 0 0 1-5.242-5.241v-2.8a5.241 5.241 0 0 1 5.241-5.241zm0 2a3.241 3.241 0 0 0-3.241 3.241v2.8c0 .937.398 1.78 1.033 2.373a3.241 3.241 0 0 0 5.45-2.373v-2.8a3.241 3.241 0 0 0-3.242-3.241z"/><path d="M16.103 10.686c.137-.093.204-.179.324-.291.598-.561.97-1.343.97-2.207V5.094C17.396 3.385 15.944 2 14.154 2c-1.193 0-2.2.64-3.018 1.92-.515-.119-1.231-.113-2.086.008C9.595 1.664 11.688 0 14.155 0c2.875 0 5.241 2.26 5.241 5.094v3.094c0 1.964-1.136 3.652-2.79 4.503-.19.098-.342.18-.546.256.028-.123.043-.208.043-.256.007-.454.007-1.122 0-2.005z"/><path d="M20.436 12.753c-.66-.12-1.907-.28-3.727-.477l.215-1.988c1.866.201 3.15.366 3.871.498 1.555.284 2.978 1.687 3.297 3.444l.016.178v2.152c0 1.47-.835 2.533-2.316 3.026l-.154.051h-.644c-.033-.4-.065-.74-.095-1.023-.03-.284-.125-.609-.284-.977h.688c.586-.227.805-.544.805-1.077v-2.053c-.198-.895-.952-1.622-1.672-1.754z"/><path d="M13.306 14.245l2.65.455a4.912 4.912 0 0 1 4.25 4.868v1.043a3.5 3.5 0 0 1-3.5 3.5H3.5a3.5 3.5 0 0 1-3.5-3.5v-1.043A4.912 4.912 0 0 1 4.25 14.7l2.433-.29.008 1.977-2.171.295A2.912 2.912 0 0 0 2 19.568v1.043a1.5 1.5 0 0 0 1.5 1.5h13.207a1.5 1.5 0 0 0 1.5-1.5v-1.043a2.912 2.912 0 0 0-2.52-2.886l-2.387-.336.006-2.1z"/></g></svg>
