<svg width="24" height="24" xmlns="http://www.w3.org/2000/svg"><g fill="currentColor" fill-rule="evenodd"><path d="M10 2v20h4V2h-4zm0-2h4a2 2 0 0 1 2 2v20a2 2 0 0 1-2 2h-4a2 2 0 0 1-2-2V2a2 2 0 0 1 2-2z" fill-rule="nonzero"/><rect y="11" width="4" height="2" rx="1"/><rect x="6" y="11" width="4" height="2" rx="1"/><rect x="14" y="11" width="8" height="2" rx="1"/><path d="M18.341 14.747a1 1 0 0 0 1.318 1.506l4-3.5a1 1 0 0 0 0-1.506l-4-3.5a1 1 0 1 0-1.318 1.506L21.481 12l-3.14 2.747z" fill-rule="nonzero"/></g></svg>
