<svg viewBox="0 0 20 26">
  <g stroke="none" stroke-width="1" fill="none" fill-rule="evenodd">
    <g id="icon-clipboard" fill="currentColor">
      <g transform="translate(-4.000000, 0.000000)">
        <path d="M6,4 L6,24 L22,24 L22,4 L6,4 Z M9,2 L9,4 L20,4 L20,2 L22,2 C23.1045695,2 24,2.8954305 24,4 L24,24 C24,25.1045695 23.1045695,26 22,26 L6,26 C4.8954305,26 4,25.1045695 4,24 L4,4 C4,2.8954305 4.8954305,2 6,2 L9,2 Z" fill-rule="nonzero"></path>
        <path d="M10,2 L10,4 L18,4 L18,2 L10,2 Z M10,0 L18,0 C19.1045695,-2.02906125e-16 20,0.8954305 20,2 L20,4 C20,5.1045695 19.1045695,6 18,6 L10,6 C8.8954305,6 8,5.1045695 8,4 L8,2 C8,0.8954305 8.8954305,2.02906125e-16 10,0 Z" fill-rule="nonzero"></path>
        <rect x="8" y="8" width="12" height="2" rx="1"></rect>
        <rect x="8" y="12" width="12" height="2" rx="1"></rect>
        <rect x="8" y="16" width="12" height="2" rx="1"></rect>
      </g>
    </g>
  </g>
</svg>