<svg width="24" height="24" xmlns="http://www.w3.org/2000/svg"><path d="M11.611 18.227c-.399.197-.81.396-1.232.596a2.104 2.104 0 0 1-2.39-.413l-2.376-2.376a2.104 2.104 0 0 1-.41-2.396c.202-.421.401-.83.599-1.228a2.107 2.107 0 0 1-.236-.064L1.72 11.064a1.052 1.052 0 0 1-.412-1.742l2.34-2.34a2.104 2.104 0 0 1 2.153-.508l2.467.822c.098.033.192.073.281.119.968-1.549 1.873-2.743 2.713-3.584C14.904.19 19.816.484 21.675 2.344c1.86 1.86 1.446 7.48-1.487 10.413-.856.855-2.048 1.763-3.578 2.724.044.086.081.176.113.27l.822 2.467c.252.756.055 1.59-.508 2.153l-2.34 2.34a1.052 1.052 0 0 1-1.742-.411l-1.282-3.847a2.108 2.108 0 0 1-.062-.226zm1.783-.908l-.097.097c-.14.141-.19.35-.127.539l1.013 3.038 1.738-1.738c.141-.14.19-.35.127-.538l-.805-2.415c-.578.333-1.194.672-1.849 1.017zM7.731 8.781l-2.429-.81a.526.526 0 0 0-.538.127L3.026 9.836l3.039 1.013a.526.526 0 0 0 .538-.127l.13-.13c.34-.641.672-1.245.998-1.811zm4.647-3.834C10.79 6.534 8.85 9.674 6.626 14.32a.526.526 0 0 0 .103.6l2.376 2.376a.526.526 0 0 0 .598.103c4.599-2.183 7.735-4.122 9.369-5.757C21.296 9.417 21.85 4.75 20.56 3.46c-1.516-1.516-5.489-1.207-8.182 1.487zm-9.24 11.52a.789.789 0 1 1 1.389.749c-.892 1.655-.854 2.457-.517 2.793.337.337 1.139.376 2.794-.516a.789.789 0 1 1 .748 1.39c-2.212 1.19-3.656 1.244-4.658.242-1.002-1.002-.948-2.446.244-4.658zm10.541-6.127a2.893 2.893 0 1 1 4.091-4.091 2.893 2.893 0 0 1-4.09 4.09zm1.116-1.116a1.315 1.315 0 1 0 1.86-1.86 1.315 1.315 0 0 0-1.86 1.86z" fill="currentColor" fill-rule="nonzero"/></svg>
