<?xml version="1.0" encoding="UTF-8"?>
<svg width="311px" height="311px" viewBox="0 0 311 311" version="1.1" xmlns="http://www.w3.org/2000/svg" xmlns:xlink="http://www.w3.org/1999/xlink">
    <g transform="translate(155.050000, 155.450000) scale(-1, 1) rotate(-180.000000) translate(-155.050000, -155.450000) translate(0.000000, 0.500000)">
        <path d="M138,294.5 L138,278.5 L132.8,276.6 C129.9,275.5 116.7,270.3 103.5,265.1 C80.8,256.2 46,242.6 35.8,238.7 C31.6,237.1 29.8,235.1 15.6,216.5 L0,196.1 L0,151.9 L0,107.7 L13.9,105 C21.5,103.6 28.5,102.4 29.4,102.4 C30.8,102.4 31,107.1 31,152.4 C31,183.4 31.4,202.4 32,202.4 C33.3,202.4 233.4,240.5 233.8,240.8 C233.9,241 231.7,242.7 228.8,244.7 C225.9,246.7 212,256.7 197.9,267.1 C157,297.1 140.6,309 139.3,309.8 C138.3,310.4 138,307 138,294.5 Z" fill="currentColor"></path>
        <path d="M275.7,247.8 C257.1,244.4 240.3,241.3 238.4,241 L235,240.3 L235,156.9 L235,73.4 L232.6,73.4 C231.3,73.4 222.4,74.5 212.9,75.9 C190.7,79 81.1,94.4 53.5,98.3 C42,99.9 32.4,101.1 32.3,101 C32.1,100.8 46.4,83.7 78.1,46.3 C80.6,43.3 90.4,31.8 99.9,20.6 L117,0.3 L117,19.9 C117,35.2 117.3,39.5 118.3,39.1 C118.9,38.8 145.4,29.9 177.1,19.3 L234.6,0 L251,13.5 C260,20.9 273.2,31.8 280.4,37.7 C287.6,43.7 295.8,50.4 298.5,52.6 C301.3,54.8 305,57.9 306.8,59.5 L310.1,62.4 L310,158.1 C310,210.7 309.9,253.8 309.7,253.9 C309.6,254 294.3,251.2 275.7,247.8 Z" fill="currentColor"></path>
    </g>
</svg>
