<svg viewBox="0 0 24 24">
  <g fill="currentColor" transform="translate(0, -1)">
    <path d="M4.28571429,10.7857143 C3.81232736,10.7857143 3.42857143,11.1694702 3.42857143,11.6428571 L3.42857143,20.2142857 C3.42857143,20.6876726 3.81232736,21.0714286 4.28571429,21.0714286 L19.7142857,21.0714286 C20.1876726,21.0714286 20.5714286,20.6876726 20.5714286,20.2142857 L20.5714286,11.6428571 C20.5714286,11.1694702 20.1876726,10.7857143 19.7142857,10.7857143 L4.28571429,10.7857143 Z M4.28571429,9.07142857 L19.7142857,9.07142857 C21.1344465,9.07142857 22.2857143,10.2226964 22.2857143,11.6428571 L22.2857143,20.2142857 C22.2857143,21.6344465 21.1344465,22.7857143 19.7142857,22.7857143 L4.28571429,22.7857143 C2.8655535,22.7857143 1.71428571,21.6344465 1.71428571,20.2142857 L1.71428571,11.6428571 C1.71428571,10.2226964 2.8655535,9.07142857 4.28571429,9.07142857 Z" />
    <path d="M17.1428571,9.07142857 L15.4285714,9.07142857 L15.4285714,7.46428571 C15.4285714,5.51156463 13.8935477,3.92857143 12,3.92857143 C10.1064523,3.92857143 8.57142857,5.51156463 8.57142857,7.46428571 L8.57142857,9.07142857 L6.85714286,9.07142857 L6.85714286,7.57142857 C6.85714286,4.61276027 9.15967843,2.21428571 12,2.21428571 C14.8403216,2.21428571 17.1428571,4.61276027 17.1428571,7.57142857 L17.1428571,9.07142857 Z" />
  </g>
</svg>
