<svg width="24" height="24" fill="none" xmlns="http://www.w3.org/2000/svg">
	<path d="M12 4a1 1 0 0 1-1-1V1a1 1 0 1 1 2 0v2a1 1 0 0 1-1 1zM4.226 1.313a1 1 0 0 0-1.452 1.374l1.5 1.586a1 1 0 1 0 1.452-1.374l-1.5-1.586zM1 7a1 1 0 0 0 0 2h2a1 1 0 0 0 0-2H1zM20 8a1 1 0 0 1 1-1h2a1 1 0 1 1 0 2h-2a1 1 0 0 1-1-1zM21.227 2.687a1 1 0 0 0-1.454-1.374l-1.5 1.586a1 1 0 0 0 1.454 1.374l1.5-1.586z" fill="currentColor" />
	<path fill-rule="evenodd" clip-rule="evenodd" d="M3.416 17.057l1.906-8.895A4 4 0 0 1 9.234 5h5.532a4 4 0 0 1 3.911 3.162l1.907 8.895A3.001 3.001 0 0 1 23 20v4H1v-4a3.001 3.001 0 0 1 2.416-2.943zM7.278 8.58A2 2 0 0 1 9.234 7h5.532a2 2 0 0 1 1.956 1.58L18.526 17H13v-2.17a3.001 3.001 0 1 0-2 0V17H5.474l1.804-8.42zM4 19a1 1 0 0 0-1 1v2h18v-2a1 1 0 0 0-1-1H4zm9-7a1 1 0 1 1-2 0 1 1 0 0 1 2 0z" fill="currentColor" />
</svg>
