<svg width="24" height="24" viewBox="0 0 24 24" fill="none" xmlns="http://www.w3.org/2000/svg">
<path fill-rule="evenodd" clip-rule="evenodd" d="M22.8125 7.33926C22.8125 8.46926 22.3425 9.49926 21.5825 10.2293L21.8125 10.6393C22.3625 11.5793 22.0425 12.7793 21.1025 13.3293L17.6625 15.3293C16.7225 15.8793 15.5225 15.5593 14.9725 14.6193L14.7325 14.1993L7.91252 18.1593C6.97252 18.7093 5.83252 18.4993 5.37252 17.6993L3.05252 13.7093C2.58252 12.9093 2.97252 11.8193 3.91252 11.2693L10.7325 7.30926L10.5325 6.95926C9.98252 6.01926 10.3025 4.81926 11.2425 4.26926L14.6825 2.26926C15.6225 1.71926 16.8225 2.03926 17.3725 2.97926L17.6625 3.47926C18.0225 3.37926 18.4025 3.31926 18.7925 3.31926C21.0125 3.31926 22.8125 5.11926 22.8125 7.33926ZM7.27252 17.0693L14.0825 13.1193L14.1025 13.1093L11.3625 8.38926L11.3425 8.39926L4.53252 12.3493C4.29252 12.4893 4.19252 12.7593 4.31252 12.9593L6.63252 16.9493C6.75252 17.1493 7.04252 17.2093 7.27252 17.0693ZM16.9325 14.0493L20.3725 12.0493C20.6025 11.9193 20.6825 11.6193 20.5325 11.3793L16.0925 3.71926C15.9625 3.47926 15.6525 3.39926 15.4225 3.53926L11.9825 5.53926C11.7425 5.66926 11.6625 5.97926 11.8025 6.20926L16.2625 13.8693C16.3925 14.1093 16.6925 14.1893 16.9325 14.0493ZM18.3725 4.69926L20.8825 9.01926C21.2525 8.55926 21.4725 7.96926 21.4725 7.34926C21.4725 5.86926 20.2725 4.66926 18.7925 4.66926C18.6525 4.66926 18.5125 4.67926 18.3725 4.69926ZM2.0925 4.05924C2.0525 4.14924 1.9925 4.20924 1.9025 4.23924L0.2025 4.86924C-0.0675 4.96924 -0.0675 5.34924 0.2025 5.44924L1.9025 6.07924C1.9825 6.10924 2.0525 6.17924 2.0825 6.25924L2.7125 7.95924C2.8125 8.22924 3.1925 8.22924 3.2925 7.95924L3.9225 6.25924C3.9525 6.17924 4.0225 6.10924 4.1025 6.07924L5.8025 5.44924C6.0725 5.34924 6.0725 4.96924 5.8025 4.86924L4.1025 4.23924C4.0225 4.20924 3.9525 4.13924 3.9225 4.05924L3.2925 2.35924C3.1925 2.08924 2.8125 2.08924 2.7125 2.35924L2.0925 4.05924ZM3.0025 4.51924C2.8725 4.79924 2.6425 5.02924 2.3625 5.15924C2.6425 5.28924 2.8725 5.51924 3.0025 5.80924C3.1325 5.52924 3.3625 5.29924 3.6525 5.15924C3.3725 5.02924 3.1425 4.79924 3.0025 4.51924ZM12.9625 16.4289C13.2925 16.2089 13.7225 16.3089 13.9325 16.6489L17.3925 21.8289C17.6025 22.1789 17.5125 22.6389 17.1925 22.8689C16.8625 23.0989 16.4325 22.9989 16.2125 22.6489L13.1325 18.0989L11.6725 19.0889L8.72248 22.8689C8.54248 23.2389 8.11248 23.3789 7.77248 23.1789C7.43248 22.9889 7.29248 22.5289 7.48248 22.1689L10.2825 18.2489C10.3425 18.1389 10.4225 18.0389 10.5225 17.9689L12.9625 16.4289Z" fill="currentColor"/>
</svg>
