<svg viewBox="0 0 24 24">
  <g fill="currentColor" transform="translate(0, 2)">
    <path d="M8,15.9620708 L8,15.5 C8,14.6715729 8.67157288,14 9.5,14 L14.5,14 C15.3284271,14 16,14.6715729 16,15.5 L16,18.5 C16,19.3284271 15.3284271,20 14.5,20 L9.5,20 C8.67157288,20 8,19.3284271 8,18.5 L8,17.9857815 C5.74896172,17.7302697 4,15.8193808 4,13.5 L4,12.5 L6,12.5 L6,13.5 C6,14.7124547 6.8580279,15.7245062 8,15.9620708 Z M10,18 L14,18 L14,16 L10,16 L10,18 Z M20,7 L21,7 C22.6568542,7 24,8.34314575 24,10 L24,12 C24,13.6568542 22.6568542,15 21,15 L18,15 L18,4 C18,2.8954305 17.1045695,2 16,2 L8,2 C6.8954305,2 6,2.8954305 6,4 L6,15 L3,15 C1.34314575,15 0,13.6568542 0,12 L0,10 C-2.22044605e-16,8.34314575 1.34314575,7 3,7 L4,7 L4,4.5 C4,2.01471863 6.01471863,8.8817842e-16 8.5,0 L15.5,0 C17.9852814,-8.8817842e-16 20,2.01471863 20,4.5 L20,7 Z M20,13 L21,13 C21.5522847,13 22,12.5522847 22,12 L22,10 C22,9.44771525 21.5522847,9 21,9 L20,9 L20,13 Z M4,9 L3,9 C2.44771525,9 2,9.44771525 2,10 L2,12 C2,12.5522847 2.44771525,13 3,13 L4,13 L4,9 Z" />
  </g>
</svg>
