<?xml version="1.0" encoding="UTF-8"?>
<svg width="22px" height="22px" viewBox="0 0 22 22" version="1.1" xmlns="http://www.w3.org/2000/svg" xmlns:xlink="http://www.w3.org/1999/xlink">
	<path d="M12.588066,11.9166667 C12.271074,12.4646513 11.6785922,12.8333333 11,12.8333333 C9.98747796,12.8333333 9.16666667,12.012522 9.16666667,11 C9.16666667,10.7182557 9.23022092,10.4513553 9.34377529,10.2128529 L7.18665385,6.47660899 C6.92251767,6.0191117 7.07926782,5.43411218 7.53676511,5.169976 C7.9942624,4.90583981 8.57926192,5.06258996 8.8433981,5.52008725 L10.949151,9.16735822 C10.9660446,9.16689818 10.9829953,9.16666667 11,9.16666667 C11.6785922,9.16666667 12.271074,9.53534874 12.588066,10.0833333 L17.4166667,10.0833333 C17.9229277,10.0833333 18.3333333,10.493739 18.3333333,11 C18.3333333,11.506261 17.9229277,11.9166667 17.4166667,11.9166667 L12.588066,11.9166667 Z M11,22 C4.92486775,22 0,17.0751322 0,11 C0,4.92486775 4.92486775,0 11,0 C17.0751322,0 22,4.92486775 22,11 C22,17.0751322 17.0751322,22 11,22 Z M11,20.1666667 C16.0626102,20.1666667 20.1666667,16.0626102 20.1666667,11 C20.1666667,5.93738979 16.0626102,1.83333333 11,1.83333333 C5.93738979,1.83333333 1.83333333,5.93738979 1.83333333,11 C1.83333333,16.0626102 5.93738979,20.1666667 11,20.1666667 Z" fill="currentColor">
	</path>
</svg>
