<svg viewBox="0 0 24 24">
  <g fill="currentColor">
    <path
      d="M11.9952835,4 L3.51000214,8.48528137 L11.9952835,12.9705627 L20.4805649,8.48528137 L11.9952835,4 Z M12.9299314,2.23182769 L21.4152128,6.71710906 C22.8356823,7.46796281 22.8356823,9.50259994 21.4152128,10.2534537 L12.9299314,14.7387351 C12.3451674,15.0478386 11.6453996,15.0478386 11.0606356,14.7387351 L2.57535425,10.2534537 C1.15488477,9.50259994 1.15488477,7.46796281 2.57535425,6.71710906 L11.0606356,2.23182769 C11.6453996,1.9227241 12.3451674,1.9227241 12.9299314,2.23182769 Z"
      id="Rectangle-82"
    />
    <path
      d="M2.96574643,12.1150818 C2.47701959,11.8578571 1.87230643,12.0455267 1.61508178,12.5342536 C1.35785713,13.0229804 1.54552673,13.6276936 2.03425357,13.8849182 L11.5342536,18.8849182 C11.8257941,19.0383606 12.1742059,19.0383606 12.4657464,18.8849182 L21.9657464,13.8849182 C22.4544733,13.6276936 22.6421429,13.0229804 22.3849182,12.5342536 C22.1276936,12.0455267 21.5229804,11.8578571 21.0342536,12.1150818 L12,16.8699521 L2.96574643,12.1150818 Z"
      id="Line-15"
    />
    <path
      d="M2.96574643,16.1150818 C2.47701959,15.8578571 1.87230643,16.0455267 1.61508178,16.5342536 C1.35785713,17.0229804 1.54552673,17.6276936 2.03425357,17.8849182 L11.5342536,22.8849182 C11.8257941,23.0383606 12.1742059,23.0383606 12.4657464,22.8849182 L21.9657464,17.8849182 C22.4544733,17.6276936 22.6421429,17.0229804 22.3849182,16.5342536 C22.1276936,16.0455267 21.5229804,15.8578571 21.0342536,16.1150818 L12,20.8699521 L2.96574643,16.1150818 Z"
      id="Line-15"
    />
  </g>
</svg>
