<?xml version="1.0" encoding="UTF-8" standalone="no"?>
<svg xmlns="http://www.w3.org/2000/svg" viewBox="0 0 62.421586 56.130333" version="1.1">
  <defs>
    <linearGradient id="a" x1="64.010002" y1="30.27" x2="32.990002" y2="54.48" gradientUnits="userSpaceOnUse">
      <stop offset="0.18" stop-color="#1e1a23" />
      <stop offset="1" stop-opacity="0" stop-color="#0f0c11" />
    </linearGradient>
  </defs>
  <g fill-rule="nonzero" fill="none" transform="translate(0.02579294,-6.2598337)">
      <polygon points="40.9,25.12 21.23,25.12 24.7,43.51 37.75,43.51 " style="fill:none" />
      <path
         d="M 2,6.26 A 2,2 0 0 0 0,8.58 l 8.49,51.54 a 2.72,2.72 0 0 0 2.66,2.27 h 40.73 a 2,2 0 0 0 2,-1.68 L 62.37,8.59 a 2,2 0 0 0 -2,-2.32 z m 35.75,37.25 h -13 L 21.23,25.12 H 40.9 Z"
         fill="currentColor" />
      <path
         d="M 59.67,25.12 H 40.9 l -3.15,18.39 h -13 L 9.4,61.73 a 2.71,2.71 0 0 0 1.75,0.66 h 40.74 a 2,2 0 0 0 2,-1.68 z"
         style="fill:url(#a)" />
  </g>
</svg>
