<?xml version="1.0" encoding="UTF-8"?>
<svg width="22px" height="22px" viewBox="0 0 22 22" version="1.1" xmlns="http://www.w3.org/2000/svg" xmlns:xlink="http://www.w3.org/1999/xlink">
	<path d="M11,22 C4.92486775,22 0,17.0751322 0,11 C0,4.92486775 4.92486775,0 11,0 C17.0751322,0 22,4.92486775 22,11 C22,17.0751322 17.0751322,22 11,22 Z M11,20.1666667 C16.0626102,20.1666667 20.1666667,16.0626102 20.1666667,11 C20.1666667,5.93738979 16.0626102,1.83333333 11,1.83333333 C5.93738979,1.83333333 1.83333333,5.93738979 1.83333333,11 C1.83333333,16.0626102 5.93738979,20.1666667 11,20.1666667 Z M13.0188522,14.0141852 C13.3792079,14.3697748 13.3830714,14.9501632 13.0274818,15.3105189 C12.6718921,15.6708745 12.0915037,15.6747381 11.7311481,15.3191484 L8.06448139,11.7009762 C7.70410344,11.3453646 7.70026495,10.7649323 8.05590814,10.4045854 L11.7225748,6.68942432 C12.078196,6.32909977 12.6585847,6.32528694 13.0189093,6.68090813 C13.3792338,7.03652933 13.3830466,7.61691804 13.0274254,7.97724259 L10.0047242,11.0399213 L13.0188522,14.0141852 Z" fill="currentColor" fill-rule="nonzero">
	</path>
</svg>
