<?xml version="1.0" encoding="UTF-8"?>
<svg width="24px" height="24px" viewBox="0 0 24 24" version="1.1" xmlns="http://www.w3.org/2000/svg" xmlns:xlink="http://www.w3.org/1999/xlink">
	<g id="icon-circle-close" fill="currentColor" fill-rule="nonzero">
		<path d="M10.5857864,12 L7.75735931,9.17157288 C7.36683502,8.78104858 7.36683502,8.1478836 7.75735931,7.75735931 C8.1478836,7.36683502 8.78104858,7.36683502 9.17157288,7.75735931 L12,10.5857864 L14.8284271,7.75735931 C15.2189514,7.36683502 15.8521164,7.36683502 16.2426407,7.75735931 C16.633165,8.1478836 16.633165,8.78104858 16.2426407,9.17157288 L13.4142136,12 L16.2426407,14.8284271 C16.633165,15.2189514 16.633165,15.8521164 16.2426407,16.2426407 C15.8521164,16.633165 15.2189514,16.633165 14.8284271,16.2426407 L12,13.4142136 L9.17157288,16.2426407 C8.78104858,16.633165 8.1478836,16.633165 7.75735931,16.2426407 C7.36683502,15.8521164 7.36683502,15.2189514 7.75735931,14.8284271 L10.5857864,12 Z M3.51471863,20.4852814 C-1.17157288,15.7989899 -1.17157288,8.20101013 3.51471863,3.51471863 C8.20101013,-1.17157288 15.7989899,-1.17157288 20.4852814,3.51471863 C25.1715729,8.20101013 25.1715729,15.7989899 20.4852814,20.4852814 C15.7989899,25.1715729 8.20101013,25.1715729 3.51471863,20.4852814 Z M4.92893219,19.0710678 C8.83417511,22.9763107 15.1658249,22.9763107 19.0710678,19.0710678 C22.9763107,15.1658249 22.9763107,8.83417511 19.0710678,4.92893219 C15.1658249,1.02368927 8.83417511,1.02368927 4.92893219,4.92893219 C1.02368927,8.83417511 1.02368927,15.1658249 4.92893219,19.0710678 Z">
		</path>
	</g>
</svg>
