<?xml version="1.0" encoding="UTF-8"?>
<svg width="24px" height="24px" viewBox="0 0 24 24" version="1.1" xmlns="http://www.w3.org/2000/svg" xmlns:xlink="http://www.w3.org/1999/xlink">
	<g id="icon-circle-check" fill="currentColor" fill-rule="nonzero">
		<path d="M12,24 C5.372583,24 0,18.627417 0,12 C0,5.372583 5.372583,0 12,0 C18.627417,0 24,5.372583 24,12 C24,18.627417 18.627417,24 12,24 Z M12,22 C17.5228475,22 22,17.5228475 22,12 C22,6.4771525 17.5228475,2 12,2 C6.4771525,2 2,6.4771525 2,12 C2,17.5228475 6.4771525,22 12,22 Z M10.25,14.6691198 L16.5428932,8.37622655 C16.9334175,7.98570226 17.5665825,7.98570226 17.9571068,8.37622655 C18.3476311,8.76675084 18.3476311,9.39991582 17.9571068,9.79044011 L10.9571068,16.7904401 C10.5665825,17.1809644 9.93341751,17.1809644 9.54289322,16.7904401 L6.12624857,13.3737955 C5.73572428,12.9832712 5.73572428,12.3501062 6.12624857,11.9595819 C6.51677286,11.5690576 7.14993784,11.5690576 7.54046213,11.9595819 L10.25,14.6691198 Z">
		</path>
	</g>
</svg>
