<?xml version="1.0" encoding="UTF-8"?>
<svg width="24px" height="24px" viewBox="0 0 24 24" version="1.1" xmlns="http://www.w3.org/2000/svg" xmlns:xlink="http://www.w3.org/1999/xlink">
    <path d="M4,4 C2.8954305,4 2,4.8954305 2,6 L2,18 C2,19.1045695 2.8954305,20 4,20 L20,20 C21.1045695,20 22,19.1045695 22,18 L22,6 C22,4.8954305 21.1045695,4 20,4 L4,4 Z M4,2 L20,2 C22.209139,2 24,3.790861 24,6 L24,18 C24,20.209139 22.209139,22 20,22 L4,22 C1.790861,22 2.705415e-16,20.209139 0,18 L0,6 C-2.705415e-16,3.790861 1.790861,2 4,2 Z M7,8 C7,7.44771525 7.44771525,7 8,7 C8.55228475,7 9,7.44771525 9,8 C9,8.55228475 8.55228475,9 8,9 L8,15 C8.55228475,15 9,15.4477153 9,16 C9,16.5522847 8.55228475,17 8,17 C7.44771525,17 7,16.5522847 7,16 C7,16.5522847 6.55228475,17 6,17 C5.44771525,17 5,16.5522847 5,16 C5,15.4477153 5.44771525,15 6,15 L6,9 C5.44771525,9 5,8.55228475 5,8 C5,7.44771525 5.44771525,7 6,7 C6.55228475,7 7,7.44771525 7,8 Z" fill="currentColor"></path>
</svg>
