<svg width="22" height="22" fill="none" xmlns="http://www.w3.org/2000/svg"><g clip-path="url(#clip0)" fill-rule="evenodd" clip-rule="evenodd" fill="currentColor"><path d="M11.037.205a1 1 0 0 1 1.173-.03c1.402.963 2.407 2.192 2.702 3.578.308 1.444-.199 2.848-1.4 3.976a1 1 0 0 1-1.37-1.458c.776-.728.954-1.448.814-2.101a1.423 1.423 0 0 0-.006-.028c-.065.36-.183.73-.391 1.058-.364.571-.962.944-1.74.944-.732 0-1.348-.344-1.803-.708a.847.847 0 0 0 .515.654 1 1 0 1 1-.826 1.82 2.845 2.845 0 0 1-1.641-2.037c-.192-.93.05-1.955.674-2.96a1 1 0 0 1 1.707.012 4.506 4.506 0 0 0 .527.677c.375.393.68.542.847.542.036 0 .044 0 .046-.002.002-.003 0-.007.006-.016.055-.085.127-.292.147-.663.039-.728-.144-1.632-.319-2.135a1 1 0 0 1 .338-1.123z"/><path d="M3.092 6.02A2 2 0 0 1 4.835 5H5.5a1 1 0 0 1 0 2h-.665L3.71 9h14.58l-1.125-2H16.5a1 1 0 1 1 0-2h.665a2 2 0 0 1 1.743 1.02l1.964 3.49A1 1 0 0 1 21 10v2.616a2 2 0 0 1-.513 1.338l-.387.43V15h.9a1 1 0 0 1 1 1v1a1 1 0 0 1-1 1h-.9c0 1.361-.934 2.408-2.133 2.815a1.5 1.5 0 0 1-2.882.185h-8.17a1.5 1.5 0 0 1-2.888-.216C2.87 20.356 1.982 19.328 1.982 18H1a1 1 0 0 1-1-1v-1a1 1 0 0 1 1-1h.982v-.591l-.41-.417a2 2 0 0 1-.572-1.4V10a1 1 0 0 1 .128-.49l1.964-3.49zM16.85 19H5.232c-.805 0-1.25-.555-1.25-1v-3H6a1 1 0 1 0 2 0h2a1 1 0 1 0 2 0h2a1 1 0 1 0 2 0h2.1v3c0 .445-.446 1-1.25 1zM19 11H3v1.591l.401.409h15.254l.345-.384V11z"/></g><defs><clipPath id="clip0"><path fill="currentColor" d="M0 0h22v22H0z"/></clipPath></defs></svg>