<svg viewBox="0 0 24 24">
  <g fill="currentColor">
    <path
      d="M5.14285714,5.14285714 C4.19608329,5.14285714 3.42857143,5.910369 3.42857143,6.85714286 L3.42857143,15.4285714 C3.42857143,16.3753453 4.19608329,17.1428571 5.14285714,17.1428571 L18.8571429,17.1428571 C19.8039167,17.1428571 20.5714286,16.3753453 20.5714286,15.4285714 L20.5714286,6.85714286 C20.5714286,5.910369 19.8039167,5.14285714 18.8571429,5.14285714 L5.14285714,5.14285714 Z M5.14285714,3.42857143 L18.8571429,3.42857143 C20.7506906,3.42857143 22.2857143,4.96359514 22.2857143,6.85714286 L22.2857143,15.4285714 C22.2857143,17.3221191 20.7506906,18.8571429 18.8571429,18.8571429 L5.14285714,18.8571429 C3.24930943,18.8571429 1.71428571,17.3221191 1.71428571,15.4285714 L1.71428571,6.85714286 C1.71428571,4.96359514 3.24930943,3.42857143 5.14285714,3.42857143 Z"
      fillRule="nonzero"
    />
    <circle cx="12" cy="11.1428571" r="1" />
    <circle cx="15.4285714" cy="11.1428571" r="1" />
    <circle cx="8.57142857" cy="11.1428571" r="1" />
    <path d="M0,17.1428571 L24,17.1428571 L24,17.8571429 C24,18.4094276 23.5522847,18.8571429 23,18.8571429 L1,18.8571429 C0.44771525,18.8571429 6.76353751e-17,18.4094276 0,17.8571429 L0,17.1428571 Z" />
  </g>
</svg>
