<svg xmlns="http://www.w3.org/2000/svg" viewBox="1 0 16 16">
<title>icon-edit-2</title>
<path fill-rule="nonzero" d="M15.6466 3.55257L13.706 1.65265C13.063 1.02307 12.0204 1.02307 11.3773 1.65265L4.62357 8.26493L3.12681 13.9102L8.89282 12.4448L15.6466 5.83248C16.2896 5.2029 16.2896 4.18215 15.6466 3.55257ZM12.1537 2.41314C12.368 2.20328 12.7155 2.20328 12.9299 2.41314L14.8705 4.31306C15.0848 4.52292 15.0848 4.86317 14.8705 5.07303L8.32797 11.4785L4.65869 12.411L5.61117 8.81859L12.1537 2.41314Z" fill="currentColor"/>
<path fill-rule="nonzero" d="M10.6063 2.85193L14.4209 6.58658L13.4968 7.49131L9.68224 3.75665L10.6063 2.85193Z" fill="currentColor"/>
<path fill-rule="nonzero" d="M5.98663 7.37585L9.80118 11.1105L8.8771 12.0152L5.06255 8.28058L5.98663 7.37585Z" fill="currentColor"/>
<path fill-rule="nonzero" d="M4.51883 10.4631L6.46202 12.3656L5.112 12.8533L4.2064 11.9667L4.51883 10.4631Z" fill="currentColor"/>
</svg>
