<?xml version="1.0" encoding="UTF-8"?>
<svg width="24px" height="24px" viewBox="0 0 24 24" version="1.1" xmlns="http://www.w3.org/2000/svg" xmlns:xlink="http://www.w3.org/1999/xlink">
    <path d="M8.66645279,14.0183332 C8.77596639,14.0062192 8.88725691,14 9,14 L19,14 C20.6568542,14 22,15.3431458 22,17 C22,18.6568542 20.6568542,20 19,20 L9,20 C8.88725691,20 8.77596639,19.9937808 8.66645279,19.9816668 C7.95880306,20.6149395 7.02436938,21 6,21 C3.790861,21 2,19.209139 2,17 C2,14.790861 3.790861,13 6,13 C7.02436938,13 7.95880306,13.3850605 8.66645279,14.0183332 Z M6,15 C4.8954305,15 4,15.8954305 4,17 C4,18.1045695 4.8954305,19 6,19 C7.1045695,19 8,18.1045695 8,17 C8,15.8954305 7.1045695,15 6,15 Z M9.87398251,16 C9.956247,16.3196199 10,16.6547004 10,17 C10,17.3452996 9.956247,17.6803801 9.87398251,18 L19,18 C19.5522847,18 20,17.5522847 20,17 C20,16.4477153 19.5522847,16 19,16 L9.87398251,16 Z M15.3335472,4.01833324 C16.0411969,3.3850605 16.9756306,3 18,3 C20.209139,3 22,4.790861 22,7 C22,9.209139 20.209139,11 18,11 C16.9756306,11 16.0411969,10.6149395 15.3335472,9.98166676 C15.2240336,9.9937808 15.1127431,10 15,10 L5,10 C3.34314575,10 2,8.65685425 2,7 C2,5.34314575 3.34314575,4 5,4 L15,4 C15.1127431,4 15.2240336,4.0062192 15.3335472,4.01833324 Z M14,6 L4.98755508,6 C4.44214347,6 4,6.44771525 4,7 C4,7.55228475 4.44214347,8 4.98755508,8 L14,8 C13.9187593,7.68038008 13.8755508,7.34529957 13.8755508,7 C13.8755508,6.65470043 13.9187593,6.31961992 14,6 Z M18,5 C16.8954305,5 16,5.8954305 16,7 C16,8.1045695 16.8954305,9 18,9 C19.1045695,9 20,8.1045695 20,7 C20,5.8954305 19.1045695,5 18,5 Z" fill="currentColor" fill-rule="nonzero"></path>
</svg>
