<svg width="24" height="24" xmlns="http://www.w3.org/2000/svg"><path d="M11.651 18.464c-.38.187-.77.376-1.171.566a2 2 0 0 1-2.272-.392l-2.26-2.26a2 2 0 0 1-.389-2.277c.192-.4.381-.79.57-1.168a2.003 2.003 0 0 1-.225-.06l-3.657-1.22a1 1 0 0 1-.39-1.655L4.08 7.774a2 2 0 0 1 2.047-.484l2.345.782c.093.031.182.069.267.113.92-1.473 1.78-2.608 2.579-3.407 3.462-3.462 8.132-3.182 9.9-1.414 1.767 1.768 1.373 7.111-1.415 9.9-.813.812-1.946 1.676-3.401 2.589.042.082.077.167.107.257l.782 2.345a2 2 0 0 1-.483 2.046l-2.225 2.225a1 1 0 0 1-1.655-.39l-1.22-3.657a2.004 2.004 0 0 1-.058-.215zm1.695-.864l-.092.093a.5.5 0 0 0-.121.511l.963 2.89 1.652-1.653a.5.5 0 0 0 .121-.512l-.765-2.296c-.55.317-1.136.64-1.758.967zM7.962 9.483l-2.309-.77a.5.5 0 0 0-.511.121l-1.653 1.653 2.889.963a.5.5 0 0 0 .512-.121l.123-.124c.323-.61.64-1.183.95-1.722zm4.418-3.644c-1.51 1.509-3.353 4.493-5.468 8.91a.5.5 0 0 0 .097.569l2.26 2.259a.5.5 0 0 0 .567.098c4.373-2.075 7.354-3.919 8.908-5.472 2.114-2.114 2.64-6.552 1.414-7.778-1.44-1.441-5.218-1.147-7.778 1.414zM3.595 16.79a.75.75 0 0 1 1.32.711c-.847 1.573-.81 2.336-.49 2.656.32.32 1.082.357 2.656-.49a.75.75 0 0 1 .711 1.32c-2.103 1.132-3.475 1.183-4.428.23-.953-.952-.902-2.325.231-4.427zm10.022-5.826a2.75 2.75 0 1 1 3.89-3.889 2.75 2.75 0 0 1-3.89 3.89zm1.06-1.06a1.25 1.25 0 1 0 1.768-1.768 1.25 1.25 0 0 0-1.767 1.768z" fill="currentColor" fill-rule="nonzero"/></svg>
