<?xml version="1.0" encoding="iso-8859-1"?>
<svg version="1.1" xmlns="http://www.w3.org/2000/svg" xmlns:xlink="http://www.w3.org/1999/xlink" x="0px" y="0px"
	 viewBox="0 0 384.97 384.97" style="enable-background:new 0 0 384.97 384.97;" xml:space="preserve">
<path stroke="currentColor" stroke-width="20" fill="currentColor" d="M372.939,264.667c-6.641,0-12.03,5.39-12.03,12.03v84.212H24.061v-84.212c0-6.641-5.39-12.03-12.03-12.03
    S0,270.056,0,276.697v96.242c0,6.641,5.39,12.03,12.03,12.03h360.909c6.641,0,12.03-5.39,12.03-12.03v-96.242
    C384.97,270.056,379.58,264.667,372.939,264.667z"/>
<path stroke="currentColor" stroke-width="10" fill="currentColor" d="M183.703,285.202c4.68,4.632,12.512,4.68,17.191,0l84.2-83.009c4.752-4.704,4.74-12.319,0-17.011
    c-4.74-4.704-12.439-4.704-17.179,0l-63.46,62.558V12.03c0-6.641-5.438-12.03-12.151-12.03s-12.151,5.39-12.151,12.03v235.71
    l-63.46-62.558c-4.752-4.704-12.439-4.704-17.179,0c-4.752,4.704-4.752,12.319,0,17.011L183.703,285.202z"/>
</svg>
