<svg viewBox="0 0 15 15">
  <g stroke="currentColor" fill="none" stroke-linecap="round" stroke-linejoin="round">
    <path d="M8.5,2.5 L8.5,9.4263505 C8.5,10.0193107 8.04696369,10.5 7.50296986,10.5 L1.49703014,10.5 C0.946385598,10.5 0.5,10.0176792 0.5,9.42982483 L0.5,1.57017517 C0.5,0.979133744 0.951117887,0.5 1.50458289,0.5 L6.50189865,0.5 L8.5,2.5 Z" />
    <path d="M2.5,3.5 L4.5,3.5" />
    <path d="M2.5,5.5 L6.5,5.5" />
    <path d="M2.5,7.5 L6.5,7.5" />
    <path d="M8.5,4.5 L12.5018986,4.5 L14.5,6.5 L14.5,6.64285714 L14.5,13.4263505 C14.5,14.0193107 14.0469637,14.5 13.5029699,14.5 L7.49703014,14.5 C6.9463856,14.5 6.5,14.0176792 6.5,13.4298248 L6.5,10.5" />
    <polygon points="6.5 0.5 6.5 2.5 8.5 2.5" fill="currentColor" />
    <polygon points="12.5 4.5 12.5 6.5 14.5 6.5" fill="currentColor" />
    <path d="M8.5,7.5 L10.5,7.5" />
    <path d="M8.5,9.5 L12.5,9.5" />
    <path d="M8.5,11.5 L12.5,11.5" />
    <path
      d="M9.5,4.5 C9.5,5.5940124 9.5,7.26067906 9.5,9.5 C9.5,10.4968262 8.46142578,11.5 7.46332443,11.5 C7.02050712,11.5 6.69939897,11.5 6.5,11.5"
      opacity=".4"
    />
  </g>
</svg>
