<svg xmlns="http://www.w3.org/2000/svg" xml:space="preserve" id="artwork" x="0" y="0" style="enable-background:new 0 0 152 136" version="1.1" viewBox="0 0 152 136"><style>.st0{fill:#ad6caa}.st1{fill:#241c2a}.st2{fill:#8e4991}.st3{fill:#efe4ef}.st4{fill:#af6cad}</style><path d="m68.8 52.8 30.8 22.5 44.3.7c.2 0 .5.1.7.2 1.2.8 5.6 3.9 6 4.4.4.5.6.9 1.1 1.6h-5.1c1.1.8 2.3 1 2.3 1.2.1.2-.5 1.9-.5 1.9s-1.4.3-2.9.2c-1.5-.1-3.4-1.5-4.7-2.2-1.3-.7-3.8.3-5.4.4-1.1.1-1.7-.5-2-.8 0 0-.2-.3-.4-.7-.8.2-1.7.4-2.5.6l-31.1-2.1c-.5 0-1.1-.2-1.5-.6L67.3 54.6c-.5-.4-.6-1.2-.1-1.7.4-.5 1.1-.5 1.6-.1z" class="st0"/><path d="M146 85.9h-.5c-1.2 0-2.6-.9-3.7-1.6-.4-.2-.8-.5-1.1-.6-.8-.4-2.2-.1-3.4.2-.6.1-1.3.3-1.8.3-1.2.1-2-.6-2.3-1 0 0-.2-.2-.3-.5-.8.2-1.5.3-2.3.5h-.1l-31.1-2.1c-.6 0-1.2-.3-1.7-.7L67.1 54.9c-.3-.3-.5-.6-.5-1.1 0-.4.1-.8.4-1.1.5-.6 1.4-.6 2-.2L99.7 75l44.2.7c.3 0 .6.1.9.3 2.1 1.5 5.6 4 6.1 4.5.4.5.7.9 1.1 1.6.1.1.1.2 0 .3-.1.1-.2.2-.3.2h-4c.3.1.6.3.8.3.4.2.7.3.7.5 0 .1.1.3-.5 2.1 0 .1-.1.2-.2.2 0 0-1.2.2-2.5.2zm-6.3-3c.5 0 .9.1 1.3.3.3.2.7.4 1.1.7 1.1.7 2.4 1.5 3.4 1.5 1.2 0 2.3-.1 2.7-.2.2-.6.4-1.3.4-1.5-.1 0-.2-.1-.4-.1-.5-.2-1.2-.5-1.9-1-.1-.1-.2-.2-.1-.3 0-.1.2-.2.3-.2h4.6c-.3-.5-.5-.8-.8-1.1-.3-.3-2.6-2-6-4.4-.2-.1-.3-.2-.5-.2l-44.3-.7c-.1 0-.1 0-.2-.1L68.6 53c-.4-.3-.9-.2-1.2.1-.2.2-.3.4-.2.7 0 .2.1.5.3.6L98.1 80c.4.3.8.5 1.3.5l31.1 2.1c.8-.2 1.6-.4 2.5-.6.1 0 .3.1.3.2.1.3.3.6.3.6.3.4.8.8 1.8.7.5 0 1.1-.2 1.7-.3.9-.2 1.8-.3 2.6-.3z" class="st1"/><path d="M146.6 82.5c-.1 0-.1 0-.2-.1-.2-.2-.8-.6-1-.8-.4-.5-.8-.9-1.1-1.2-.4-.5-.7-.9-1.1-1-.7-.2-2.6-.6-2.6-.6-.2 0-.3-.2-.2-.4 0-.2.2-.3.4-.2.1 0 1.9.4 2.6.6.5.2.9.6 1.4 1.2.3.3.6.7 1 1.2.2.2.7.6.9.8.1.1.2.3.1.4 0 .1-.1.1-.2.1z" class="st1"/><path d="M47.9 91c-2.1-27.3 7.4-47.8 7.4-47.8l-9-11.8-7.1 54.4 4.9-1.2-.5 6.2 4.3.2zM66.3 86.8l-2.7-7c.4-13 4.3-20.1 4.3-20.1l3.9 4.8s-3.4 8.8-2.3 22.2l-3.2.1z" class="st2"/><path d="M62.5 77.2s.8-1.5.2-3.6c-.6-2.1-2.5-2.9-3.9-2.2s-1.5 2.5-1.2 3.7c.7 2.3 2.6 3 2.6 3l2.3-.9zM34.7 29.1h.9L33.7 34l3.1 2 1-7.6s-.7-1.9.1-3.3c1.6-2.9 5-5.7 8-2 0 0 6-2.8 6.4-4.2.4-1.4 2.2-7.6-1.1-13S40.6.4 39.3.9s-5.7 4.1-6.4 5-2 5.4-2 5.4.8-.9 3.5-1.5c0 0-3 1.4-3.5 4.3 0 0-4.9 1.3-5.8 5.5-.9 4.4 1.4 6.4 3.9 7.9 1.7 1.1 4.3 1.4 5.7 1.6" class="st1"/><path d="M42.6 136h-5.1v-1.2l-1.2-21.5-1.1-19.8 1.7-.3 3.1 23.3 2.3 16.8c.2.9.2 1.8.3 2.7zM66.8 129.3l-.9 6.7h-5.4c.8-4.5 1.4-7.5 1.4-7.5l-.8-6.2-.2-1.6c.9.2 1.4.3 1.6.3.5 0 1.5 0 2.7-.1h.3l1.3 6c.1.8.1 1.6 0 2.4zM62.4 106.3c-.4.5-.6.8-.8 1-.4.6-.7 4.8-.7 4.8l-1.2-.3-2.9-22.6 1.9-.4 3.7 17.5z" class="st2"/><path d="M63.6 79.8c.4-13 4.3-20.1 4.3-20.1l3.9 4.8s-3.4 8.8-2.3 22.2l18-3.7c2.3-.5 3.3-3.2 1.9-5.1l-6.9-8.7c-1.9 1.4-3.4 3.6-3.4 3.6l4.2 5.2-8.6 1.7c-.1-11.2 3.8-15.4 3.8-15.4l-13-16.4s-4.7 9.9-6.5 23.5c1.4-.6 3.2.2 3.8 2.2.6 2.1-.2 3.6-.2 3.6l1 2.6" class="st0"/><path d="M42.1 21.5c-1.5 9.1-9 66.8-9 66.8s-.9 5.1 1.5 5.4h.2l8.8-1.8.5-7.3-4.9 1.2 7.1-54.4 9 11.8S45.8 63.7 47.9 91l15.9-3.2v-.7l-3.4-9s-1.1-.4-2-1.6c-.1 2-.2 4-.2 6.1l-5.4 1.3C52.6 62.5 61.5 43 61.5 43L45.9 23.2c-1.2-1.6-2.6-2-3.8-1.7z" class="st0"/><path d="M82.5 69.2c-1.9 1.4-3.4 3.6-3.4 3.6l4.2 5.2-8.6 1.7c0-4.5.6-7.9 1.3-10.4l6.5-.1zM58.4 76.4c-.1 2-.2 4-.2 6.1l-5.4 1.3C52.6 70 56.3 56.9 59 49.4l6.5-1.6s-4.7 9.9-6.6 23.5c-1.4.7-1.6 2.6-1.2 3.7.2.6.4 1.1.7 1.4" class="st2"/><path d="m4.3 91.8 13.5.9-1.2 7-1 5.8c-.2 1.1.5 2.2 1.5 2.5 8.5 2.6 43.5 13.1 45.4 13.2 2.2.1 11.1-1.1 12.3-2 1.3-.9 5.2-4.5 6.5-5.9 1.3-1.4 1.5-1.8 1.3-2.3-.2-.5-1.8-.8-2.4-.5-.8.3-2.5 2-3.4 2.6-.9.5-2.9 1.4-2.9 1.4l3.5-6.6c.1-.3.1-.6 0-.9l-2.3-3.4c.5-.9.8-1.7.9-1.8.1-.3-1.1-1.7-1.7-2.9-.5-1.2-.3-2.4-.3-2.4l-1.3-.5s-1.6.7-1.9 2c-.3 1.2.5 3.1.5 3.1l-1.5 2.6-3.1-8.3c-1.4.1-2.1.7-2.1.7.2 1.1.9 6.1.3 7-.6.9-3 3.8-3.4 4.4-.4.6-.7 4.8-.7 4.8l-39.7-8.7.6-8.7.1-1.8 1.7.1 10.9.7c-2.4-.3-1.5-5.4-1.5-5.4s.2-1.7.6-4.6c1.8-13.8 7.2-54.7 8.4-62.2-1.7.4-3.3 2-4.2 3.7-.8 1.4-.1 3.3-.1 3.3l-1 7.6-3.1-2 1.9-4.9h-.9L1.3 86.3c-1.3 2.3.2 5.3 3 5.5z" class="st2"/><path d="m69.9 103.5 1.5-2.6s-.6-1.5-.5-2.7l-4.5-11.4-3.8-9.6-2.2.9 3.4 9 6.1 16.4zM75.5 118.6c.7-.5 1.6-1.3 2.5-2.2l3.2 8.2s-.1.8-1.2 1.2c-1 .4-1.8-.1-1.8-.1l-2.7-7.1zM76.7 113.1l-2.6 1.3 1.8-3.4.8 2.1z" class="st3"/><path d="M17.1 107.9c8.5 2.6 43.5 13.1 45.4 13.2 2.2.1 11.1-1.1 12.3-2 1.3-.9 5.2-4.5 6.5-5.9 1.3-1.4 1.5-1.8 1.3-2.3-.2-.5-1.8-.8-2.4-.5-.8.3-2.5 2-3.4 2.6-.9.5-2.9 1.4-2.9 1.4l3.5-6.6c.1-.3.1-.6 0-.9l-2.3-3.4c.5-.9.8-1.7.9-1.8.1-.3-1.1-1.7-1.7-2.9-.5-1.2-.3-2.4-.3-2.4l-1.3-.5s-1.6.7-1.9 2c-.3 1.2.5 3.1.5 3.1l-1.5 2.6-3.1-8.3c-1.4.1-2.1.7-2.1.7.2 1.1.9 6.1.3 7-.6.9-3 3.8-3.4 4.4-.4.6-.7 4.8-.7 4.8l-39.7-8.7.6-8.7-5.3 4.9-1 5.8c0 1 .7 2.1 1.7 2.4z" class="st0"/><path d="M61 112.4c-.1 0-.1 0 0 0l-39.8-8.7c-.1 0-.2-.2-.2-.3l2.9-38.5c0-.2.1-.3.3-.3.2 0 .3.2.3.3l-2.8 38.2 39.1 8.5c.1-1.1.3-4 .7-4.6.2-.3.9-1.1 1.5-2 .7-.9 1.5-1.9 1.8-2.4.5-.7-.1-5.1-.4-6.8 0-.1 0-.2.1-.3 0 0 .8-.7 2.3-.7.1 0 .2.1.3.2l2.9 7.7 1.1-1.9c-.2-.5-.7-2-.4-3.1.3-1.3 2-2.1 2.1-2.2h.2l1.3.5c.1.1.2.2.2.3 0 0-.2 1.1.3 2.3.3.6.7 1.3 1.1 1.8.5.8.7 1 .6 1.3-.1.3-2.3 4.6-3.3 6.4-.1.1-.3.2-.4.1-.1-.1-.2-.3-.1-.4 1.2-2.3 3-5.7 3.2-6.2-.1-.2-.3-.5-.5-.9-.4-.6-.8-1.2-1.1-1.9-.4-1-.4-1.9-.4-2.4L73 96c-.4.2-1.4.8-1.6 1.7-.2 1.1.5 2.9.5 2.9v.3l-1.5 2.6c-.1.1-.2.2-.3.1-.1 0-.2-.1-.3-.2l-3-8.1c-.8.1-1.3.4-1.6.5.2 1.1 1 6 .3 7-.3.5-1.1 1.4-1.8 2.4-.7.9-1.3 1.7-1.5 2-.2.4-.5 3-.6 4.7 0 .1 0 .2-.1.2-.4.3-.5.3-.5.3z" class="st1"/><path d="M68.4 105.9c-.1 0-.1 0-.2-.1s-.2-.3-.1-.4l1.5-2.1c.1-.1.3-.2.4-.1.1.1.2.3.1.4l-1.5 2.1c0 .1-.1.2-.2.2z" class="st1"/><path d="M62.7 121.4h-.2c-1.9-.1-35.3-10.1-45.5-13.2-1.2-.4-2-1.6-1.7-2.8l6.9-39.8c0-.2.2-.3.3-.2.2 0 .3.2.2.3l-6.9 39.8c-.2 1 .4 1.9 1.3 2.2 21 6.3 43.9 13.1 45.3 13.2 2.3.1 11-1.1 12.2-1.9 1.2-.8 5.1-4.4 6.4-5.9 1.3-1.4 1.4-1.6 1.3-2 0 0-.1-.1-.3-.2-.5-.2-1.4-.3-1.7-.1-.4.2-1.1.8-1.8 1.4-.6.5-1.1.9-1.5 1.2-.9.5-2.8 1.4-2.9 1.5-.1.1-.3 0-.3-.1-.1-.1-.1-.2 0-.3l3.5-6.6c.1-.2.1-.4 0-.5L75 104c-.1-.1-.1-.3.1-.4.1-.1.3-.1.4.1l2.3 3.4c.2.4.3.8.1 1.2l-3.1 5.8c.6-.3 1.5-.7 2-1 .4-.2.9-.7 1.4-1.1.8-.7 1.5-1.3 2-1.5.5-.2 1.5-.1 2.2.1.3.1.5.3.6.5.3.7-.1 1.2-1.4 2.6-1.3 1.5-5.3 5.1-6.5 6-1.4.6-9.9 1.7-12.4 1.7zM52.8 84.1c-.1 0-.1 0-.2-.1s-.1-.1-.1-.2c-.2-21.2 8.7-40.9 8.8-41.1.1-.2.2-.2.4-.1s.2.2.1.4-8.8 19.5-8.7 40.4l4.8-1.1c0-1.9.1-3.9.2-5.8 0-.2.1-.3.3-.3.2 0 .3.2.3.3-.2 2-.2 4.1-.2 6 0 .1-.1.3-.2.3l-5.5 1.3z" class="st1"/><path d="M69.4 87c-.1 0-.1 0-.2-.1s-.1-.1-.1-.2c-1-12.3 1.8-20.9 2.2-22.1l-3.5-4.3c-.7 1.5-3.1 7.2-3.9 16.4 0 .2-.2.3-.3.3-.2 0-.3-.2-.3-.3.9-10.9 4.1-16.9 4.1-17 0-.1.1-.1.2-.2.1 0 .2 0 .3.1l3.9 4.8c.1.1.1.2 0 .3 0 .1-3.3 8.8-2.3 21.7l17.7-3.6c1-.2 1.8-.9 2.1-1.8.3-1 .2-2-.5-2.8l-6.7-8.4c-1.4 1.1-2.6 2.6-2.9 3.2l4.1 5c.1.1.1.2 0 .3s-.1.2-.2.2l-8.6 1.7c-.1 0-.2 0-.2-.1-.1-.1-.1-.1-.1-.2-.1-10 2.9-14.4 3.7-15.4L65.5 48.4c-.9 2.1-4.7 11.1-6.3 23 0 .2-.2.3-.3.3-.2 0-.3-.2-.3-.3 1.9-13.6 6.5-23.5 6.6-23.6 0-.1.1-.2.2-.2s.2 0 .3.1l13 16.4c0 .1.1.1.1.2s0 .1-.1.2c0 0-3.7 4.2-3.7 14.8l7.7-1.5-3.8-4.8c-.1-.1-.1-.2 0-.4.1-.1 1.5-2.2 3.4-3.7.1-.1.3-.1.4.1l6.9 8.7c.8 1 1 2.2.5 3.4-.4 1.1-1.4 2-2.6 2.2L69.4 87c.1 0 .1 0 0 0z" class="st1"/><path d="M34.8 94h-.2c-.5-.1-.9-.3-1.3-.7-1.1-1.5-.6-4.9-.5-5 .1-.6 7.5-57.8 9-66.8 0-.2.2-.3.3-.2.2 0 .3.2.2.3-1.5 9-9 66.2-9 66.8 0 0-.5 3.3.4 4.6.2.3.5.5.8.5h.2l8.5-1.7.5-6.6-4.5 1.1c-.1 0-.2 0-.3-.1-.1-.1-.1-.2-.1-.3L46 31.4c0-.1.1-.2.2-.3.1 0 .2 0 .3.1l9 11.8c.1.1.1.2 0 .3-.1.2-9.4 20.6-7.4 47.3l15.3-3.1V87c0-.2.1-.3.3-.3.2 0 .3.1.3.3v.7c0 .2-.1.3-.2.3L48 91.3c-.1 0-.2 0-.3-.1 0 0 0-.1-.1-.1-2-25.8 6.5-45.8 7.4-47.8l-8.5-11.1-6.9 53.3 4.5-1.1c.1 0 .2 0 .3.1.1.1.1.2.1.3l-.5 7.3c0 .1-.1.2-.2.3l-9 1.6c.1 0 0 0 0 0zM17.8 92.9l-13.6-.8C2.9 92 1.7 91.2 1 90c-.6-1.2-.6-2.7.1-3.8l32.4-55.6c.1-.1.3-.2.4-.1s.2.3.1.4L1.6 86.4c-.6 1-.6 2.2-.1 3.3.5 1 1.6 1.7 2.7 1.8l13.5.9c.2 0 .3.2.3.3.1.1-.1.2-.2.2z" class="st1"/><path d="M34.8 94h-.2L22 93.2c-.2 0-.3-.2-.3-.3 0-.2.1-.3.3-.3l12.8.8 8.5-1.7.1-.9c0-.2.1-.3.3-.3.2 0 .3.2.3.3l-.1 1.1c0 .1-.1.2-.2.3L34.8 94c.1 0 0 0 0 0zM47.9 91.3l-2.9-.1c-.2 0-.3-.2-.3-.3s.1-.3.3-.3l2.8.1 15.6-3.2V87c0-.2.1-.3.3-.3.2 0 .3.1.3.3v.7c0 .2-.1.3-.2.3l-15.9 3.3zM66.3 87.1c-.2 0-.3-.1-.3-.3 0-.2.1-.3.3-.3l3.1-.2 18-3.7c1-.2 1.8-.9 2.1-1.8.3-1 .2-2-.5-2.8l-6.8-8.5h-4.1c-.2 0-.3-.1-.3-.3 0-.2.1-.3.3-.3h4.2c.1 0 .2 0 .2.1l6.9 8.7c.8 1 1 2.2.5 3.4-.4 1.1-1.4 2-2.6 2.2l-18 3.7-3 .1zM76.1 69.6c-.1 0-.1 0 0 0-.2-.1-.3-.2-.3-.4.9-2.9 1.9-4.4 2.3-5l-12.7-16-6.4 1.5c-.1 0-.2 0-.3-.1s-.1-.2-.1-.3c1.2-3.5 2.2-5.8 2.5-6.4l-14-17.6c-.1-.1-.1-.3 0-.4.1-.1.3-.1.4 0l14.1 17.8c.1.1.1.2 0 .3 0 0-1 2.3-2.4 6l6-1.4c.1 0 .2 0 .3.1l13 16.4c0 .1.1.1.1.2s0 .1-.1.2c0 0-1.3 1.5-2.4 4.9.2.1.1.2 0 .2zM79.2 126.4c-.7 0-1.1-.2-1.1-.3-.1 0-.1-.1-.1-.2l-2.7-7.2c-.1-.2 0-.3.2-.4.2-.1.3 0 .4.2l2.7 7.1c.2.1.8.3 1.5 0s.9-.7 1-.9l-3.2-8.1c-.1-.2 0-.3.2-.4.2-.1.3 0 .4.2l3.2 8.2v.2s-.2 1-1.4 1.4c-.5.1-.8.2-1.1.2zM76.7 113.4c-.1 0-.2-.1-.3-.2l-.8-2.1c-.1-.2 0-.3.2-.4.2-.1.3 0 .4.2l.8 2.1c.1.2 0 .3-.2.4h-.1z" class="st1"/><path d="M69.9 103.8c-.1 0-.2-.1-.3-.2l-9.5-25.5c-.1-.2 0-.3.2-.4l2.2-.9h.2c.1 0 .1.1.2.2l7.6 19.3c.1.2 0 .3-.2.4-.2.1-.3 0-.4-.2l-7.5-19-1.6.7 9.4 25.2c.1.2 0 .3-.2.4h-.1z" class="st1"/><path d="M60.4 78.4h-.1c-.1 0-2-.8-2.8-3.2-.4-1.1-.3-3.2 1.3-4 .7-.4 1.6-.4 2.3 0 .9.4 1.6 1.3 2 2.4.6 2.2-.2 3.8-.2 3.8 0 .1-.1.1-.2.1l-2.2.9c-.1-.1-.1 0-.1 0zm-.5-7c-.3 0-.6.1-.9.2-1.3.6-1.3 2.4-1 3.3.6 1.8 2 2.6 2.4 2.8l2-.8c.2-.3.6-1.6.1-3.3-.3-1-.9-1.7-1.6-2-.4-.1-.7-.2-1-.2zm2.6 5.8zM36.8 36.3h-.2l-3.1-2c-.1-.1-.2-.2-.1-.4l1.8-4.5c-1.2-.1-4.3-.3-6.4-1.6-2.6-1.6-5-3.8-4-8 .9-3.9 4.9-5.4 5.8-5.7.3-1.4 1.2-2.5 2-3.2-1.1.4-1.5.9-1.5.9-.1.1-.2.1-.4.1-.1-.1-.2-.2-.1-.3.1-.2 1.4-4.6 2.1-5.5.8-1 5.3-4.5 6.5-5.1 1.4-.6 8.9-.4 12.2 5.1 3.2 5.3 1.7 11.4 1.1 13.2-.4 1.4-5.9 4.1-6.5 4.3-.1.1-.3 0-.4-.1-.9-1.2-2-1.7-3.1-1.7-1.8.1-3.5 2-4.4 3.6-.7 1.3-.1 3-.1 3v.1l-1 7.6c0 .1-.1.2-.2.2.1 0 .1 0 0 0zm-2.7-2.5 2.5 1.6.9-7c-.1-.4-.6-2.1.1-3.4 1-1.8 2.9-3.8 4.9-3.9 1.2-.1 2.4.5 3.4 1.7 2.3-1.1 5.8-3 6-3.9.5-1.7 2-7.7-1.1-12.7C47.7 1 40.7.8 39.4 1.3c-1.2.5-5.7 4-6.3 4.9-.4.6-1.2 3-1.7 4.5.6-.3 1.5-.7 2.8-1 .1 0 .3.1.3.2s0 .3-.2.4c0 0-2.8 1.4-3.3 4 0 .1-.1.2-.2.2 0 0-4.7 1.3-5.6 5.3-.9 4.1 1.5 6 3.8 7.4 2.3 1.5 6.5 1.5 6.5 1.5.1 0 .2.1.2.1.1.1.1.2 0 .3l-1.6 4.7z" class="st1"/><path d="M41.4 4.5h-.1c-1-.4-2-.5-3.3-.3-.2 0-.3-.1-.3-.2 0-.2.1-.3.2-.3 1.3-.2 2.5-.1 3.6.3.2.1.2.2.2.4 0 0-.1.1-.3.1zM45.5 17c-.1 0-.2 0-.2-.1-.1-.1-.1-.3 0-.4 1.3-1.1 2-2 1.9-2.7-.2-1.4-.7-5.2-3.6-7.8-.1-.1-.1-.3 0-.4.1-.1.3-.1.4 0 3.2 2.7 3.7 6.7 3.8 8.1.1.9-.6 2-2.1 3.2 0 0-.1.1-.2.1zM41.6 21.3c-.2 0-.3-.1-.3-.3 0 0-.1-1.6-.8-3.1-.5-1.2-3.3-3.5-7.6-3.5-.2 0-.3-.1-.3-.3 0-.2.1-.3.3-.3 4.4 0 7.5 2.3 8.2 3.9.7 1.6.8 3.2.8 3.3 0 .2-.1.3-.3.3zM30.2 23.2c-.1 0-.1 0-.2-.1s-.2-.3-.1-.4c1.3-1.8 3.3-2.9 5.8-3.2 1.7-.2 3.1.2 3.9.5.2.1.2.2.2.4-.1.2-.2.2-.4.2-.8-.3-2.1-.7-3.6-.5-2.4.3-4.2 1.3-5.4 3 0 .1-.1.1-.2.1z" class="st4"/><path d="M32.9 24c-.1 0-.2 0-.2-.1-.1-.1-.1-.3 0-.4 2.3-2 4.8-2.1 6.1-1.9.2 0 .3.2.3.3 0 .2-.2.3-.3.3-1.2-.1-3.5-.1-5.6 1.8h-.3zM33.4 26.6c-.1 0-.1 0-.2-.1s-.1-.3 0-.4c1.1-1.2 2.3-1.7 2.4-1.7.2-.1.3 0 .4.2.1.2 0 .3-.2.4 0 0-1.2.4-2.1 1.5-.1.1-.2.1-.3.1zM47.6 18.5c-.1 0-.2-.1-.3-.2-.1-.2 0-.3.2-.4.6-.3 2.5-1.1 2.7-1.9 1.7-5.9-3.7-11.1-3.7-11.1-.1-.1-.1-.3 0-.4.1-.1.3-.1.4 0 .1.1 5.7 5.4 3.9 11.7-.2.7-1.1 1.4-3 2.3h-.2z" class="st4"/><path d="M44.1 84.9h-4.8c-.2 0-.3-.1-.3-.3s.1-.3.3-.3h4.8c.2 0 .3.1.3.3s-.1.3-.3.3zM38.8 107.6c-.1 0-.3-.1-.3-.3l-1.8-13.7-1.1.2.7 12.8c0 .2-.1.3-.3.3-.2 0-.3-.1-.3-.3l-.7-13c0-.1.1-.3.2-.3l1.7-.3h.2c.1 0 .1.1.1.2l1.9 14c0 .2-.1.3-.3.4zM36.7 113.7l1.1 21.1v1.2h-.6c0-.6 0-1 .1-1.2l-1.1-21.1c0-.2.1-.3.3-.3 0 0 .1.1.2.3zM42.9 136h-.6c0-.9-.1-1.8-.2-2.6l-2.2-16.5c0-.2.1-.3.3-.3.2 0 .3.1.3.3l2.2 16.5c.1.8.1 1.7.2 2.6zM61.4 122.6l.8 5.9v.1c-.2 1-.7 3.7-1.4 7.4h-.6c.5-2.7 1-5.2 1.4-7.5l-.8-5.8c0-.2.1-.3.3-.3.2-.1.3.1.3.2zM67.1 129.4l-.9 6.6h-.6l1-6.7c.1-.8.1-1.5-.1-2.3l-1.3-6c0-.2.1-.3.2-.3.2 0 .3.1.3.2l1.3 6c.2.8.2 1.6.1 2.5zM59.7 112.1c-.1 0-.3-.1-.3-.3l-2.9-22.6c0-.2.1-.3.2-.3l1.9-.4c.2 0 .3.1.4.2l3.2 15.3c0 .2-.1.3-.2.4-.2 0-.3-.1-.4-.2l-3.2-15-1.3.3 2.9 22.3c.1.2 0 .3-.3.3.1 0 .1 0 0 0zM76.3 121c-.2 0-.3-.1-.3-.3 0-.2.1-.3.3-.3 1.7-.2 2.7-1.2 2.7-1.2.1-.1.3-.1.4 0 .1.1.1.3 0 .4-.1.1-1.2 1.2-3.1 1.4zM68.4 105.6l1-3.4.5 1.3zM73.3 107.3l2.4-3-.5-.8zM70.8 101.9l.5-.9s-.2-.4-.3-1l-.2 1.9zM76.3 112.1l-1.5 1 1.1-2zM78 116.5c-.9.8-1.8 1.6-2.5 2.2l.2.4s1.9-1.2 2.5-2.1l-.2-.5z" class="st1"/><path d="m36.9 93.3-1.6.3.1 1.9 1.8-.4zM56.8 89.2l.3 1.9 2-.3-.4-2z" class="st1"/><path d="M43 15.1h-.1c-.2-.1-.2-.2-.2-.4.4-1 .4-1.9.2-2.9-.7-2.7-1.7-3.8-1.7-3.8-.1-.1-.1-.3 0-.4.1-.1.3-.1.4 0 0 0 1.1 1.2 1.8 4 .3 1 .2 2.1-.2 3.2 0 .2-.1.3-.2.3zM41 14c-.2 0-.3-.1-.3-.3 0-.6-.1-1.2-.3-1.7-.1-.2 0-.3.2-.4.2-.1.3 0 .4.2.2.6.3 1.2.3 1.9 0 .2-.1.3-.3.3zM37.7 17.3c-.1 0-.1 0 0 0-.8-.2-1.9-.4-3.1-.2-.2 0-.3-.1-.3-.3 0-.2.1-.3.3-.3 1.3-.2 2.5 0 3.3.2.2 0 .3.2.2.4-.2.1-.3.2-.4.2z" class="st4"/><path d="m17.8 92.6.9-5.5-1.9 5.5zM80.3 125.8c0-.2-.2-.3-.4-.2-.2 0-.3.2-.2.4 0 .1.9 4 1.2 10h.6c-.2-6.1-1.1-10.1-1.2-10.2z" class="st1"/></svg>
