<svg xmlns="http://www.w3.org/2000/svg" width="174" height="141" fill="none"><g clip-path="url(#a)"><path fill="#DCA8E5" d="m0 17.41 115.04 7.81L109.62 127l-99.5 4.13L0 17.4Z"/><path fill="#DCA8E5" d="M54.82 138.06h43.33l-3.07-13.6 3.42-5.62-1.24-5.39-4.3 1.77-2.86-12.24H49.25l-4.6 35.2 10.17-.12Z"/><path fill="#B29DD2" d="m141.7 58.45-2.94 5.83 1.95.97 2.11-6-1.12-.8Z"/><path fill="#DCA8E5" d="m151.15 16.35 6.34-5.74 6.2-.3-.68 2.9 3.08.12-.77 3.17h3.04l-1.14 3.7 3.89.66-2.13 3.35 2.66 1.09-1 3.48 2.76 2.57-2.17 2.34 2.27 1.13-1.77 2.86 1.54 1.49-4.58 3.73-4.9 2.51s-7.7-8.9-9.64-16.9c-1.94-8-3-12.16-3-12.16ZM49.08 19.11l-4.83-2.63-2.41-.76S29.04 17 28.1 17.54c-.94.53-3.18 2.66-3.18 2.66l27.9 16.16s8.08.97 17.47 1.9l-6.7-6.77L49.08 19.1Z"/><path fill="#EBB432" d="M98.92 39.54c1.39-2.17.3-4.71 0-6.36-.29-1.65-6.9-11.56-10.34-14.57-3.44-3-6.27-3.37-10.1-4.19a38.32 38.32 0 0 0-5.96-.7l-.33-.9-2.53-10.9c-7.28-2.24-17.07-.87-17.07-.87l-7.92 15.56-.42-.13 4.83 2.63 14.51 12.37 6.7 6.79c12.7 1.28 27.83 2.52 28.63 1.27Z"/><path fill="#F6F6F8" d="m127.98 103.24.48-.58-21.98-58.46-90.84-5.56 21.15 63.15 1.6 1.15 89.6.3Z"/><path fill="#EBB432" d="M127.8 126.02h7.07l-2.46 13.4-8.03.97 3.42-14.37Zm-7.74-61.68s-.91 3.47 2.77 5.58l17.88-12.33-3-6.1-17.65 12.84Z"/><path fill="#DCA8E5" d="m94.5 103.24 35.83 12.15-2.53 10.63h7.07l2.32-12.58a1.58 1.58 0 0 0-1.2-1.83l-36.68-8.37h-4.8Zm29.64-31.48 21.92 18.75c.7.6 1.77.13 1.82-.8l1.78-35.62-6.84 5.17-.57 1.63.57 20.34-15.9-12-1.47-1.11-3.1 2.14 1.79 1.5Zm-6.67-9.66 2.72 2.05-2.5 2.1-1.16-1 .94-3.15Z"/><path fill="#B39ED3" d="m151.15 16.35 3.76-3.32s.82 13.18 2.08 17.06c1.26 3.89 9.28 13.9 9.28 13.9l-9.04 4.39-14.4 10.88s-4.62-2.12-5.12-7.77l3.37-3.5-2.32-1.21.89-2.33.63-2.12 12.78-6.77s-1.83-12.54-1.91-19.2Z"/><path fill="#B39ED3" d="M136.95 42.02s-.95-3.82 3.05-8.4l9.94 3.59-10.54 5.58-2.45-.77Z"/><path fill="#AD6CAA" d="m74.03 77.95-4-.95 19.95-37.46 3.14.38-19.09 38.03Zm-1.97 3.93-10.6 21.14-3.76 8.03-1.8 13.4-1.1-.29v1.86l.02 12.04-33.98.38c.14-1.22.53-4.9.96-6.06.26-.65 4.83-9.74 4.83-9.74l-4.12-.12 7.22-10.64c.29-.43 1.2.45 1.54 0l5.44-10.9.88 1.73 2.42.23-3.22 9.47 14.12 1.5 1.42-3.65 3.85-7.23L68.07 80.7l3.99 1.17Z"/><path fill="#E1557A" d="M71.7 49.77s4.57-2.78 5.54-1.4c.97 1.4-5.67 5.22-5.67 5.22l.13-3.82Z"/><path fill="#EBB432" d="m52.59 1.05 15.19 1.77 2.68 16.61 3.25-.29-1.05-4.32s10.9 1.92 14.93 4.51c4.02 2.6 8.23 14.3 8.51 16.23.29 1.92-.47 4.32-2.1 4.42-1.63.1-18-2.6-23.73-4.61-5.74-2.02-10.72-7.2-10.72-7.2L44.87 16.79 52.6 1.06Z"/><path fill="#DCA8E5" d="m21.12 24.65 40.44 5.63-4.88-3.84-13.5-9.03s-16.83 1.87-17.5 1.97c-.67.1-4.56 5.27-4.56 5.27Zm-6.06 13.27 3.7 9.98s-5.33-.19-5.9-2.2c-.58-2.02 2.2-7.78 2.2-7.78Z"/><path fill="#E1557A" d="M25.71 34.95c-1.15.88-3.1.24-4.36-1.42-1.26-1.65-1.36-3.71-.2-4.6 1.14-.87 3.1-.24 4.36 1.42 1.26 1.66 1.35 3.72.2 4.6Z"/><path fill="#EBB432" d="M37.67 35.96c-1.14.88-3.1.25-4.36-1.41-1.26-1.66-1.35-3.72-.2-4.6 1.14-.88 3.1-.24 4.36 1.42 1.26 1.66 1.35 3.71.2 4.6Z"/><path fill="#F58452" d="M49.41 37.2c-1.14.89-3.1.25-4.36-1.4-1.26-1.67-1.35-3.72-.2-4.6 1.14-.88 3.1-.25 4.36 1.41 1.26 1.66 1.35 3.72.2 4.6Z"/><path fill="#DCA8E5" d="m46.59 137.9 2.83-15.95 2.13-8.98 5.93-1.02-1.58 12.5-1.1-.29.02 13.9-8.23-.15Zm76.24-67.98c-3.68-2.11-2.77-5.58-2.77-5.58l-48.1 38.71h2.86l48.01-33.13Z"/><path fill="#DCA8E5" d="M131 41.48 81.42 79.7 24.92 66.33l.63 1.88 57.37 16.87 40.2-29.16s1.15 2.41 2.2 1.89c.64-.32 1.97-2 2.93-3.3l2.32 4.35 4.84-2.5a.68.68 0 0 0 .3-.9l-.63-1.37 5.37-5.32a.78.78 0 0 0-.19-1.28l-1.5-.71 1.1-3.24a.7.7 0 0 0-.46-.75c-1.73-.6-7.17-2.35-8.4-1.31Z"/><path stroke="#3F2B56" stroke-linecap="round" stroke-linejoin="round" stroke-width="1.33" d="M22.52 22.8 26 19.02a5.54 5.54 0 0 1 3.35-1.73l11.82-1.53a4.89 4.89 0 0 1 3.7 1.03c5 4.01 20.08 16.03 23.03 17.78 3.55 2.1 23.9 5.66 27.45 5.47 3.55-.19 5.23-4.31 2.8-9-2.42-4.68-7.47-12-11.2-14.05-3.74-2.07-10.15-2.95-14.45-3.32"/><path stroke="#3F2B56" stroke-linecap="round" stroke-linejoin="round" stroke-width="1.33" d="M52.59 1.05s6.54 5.58 14 6.19c4.52.37 3.75-3 3.75-3l4.48 19.43"/><path fill="#3F2B56" stroke="#3F2B56" stroke-linecap="round" stroke-linejoin="round" stroke-width="1.33" d="M47.05 12.36s9.28 7.77 26.57 6.1l.82 3.59.38 1.62S68.65 27.72 50 20.88a1687.4 1687.4 0 0 1-5.14-4.1l2.18-4.42Z"/><path stroke="#3F2B56" stroke-linecap="round" stroke-linejoin="round" stroke-width="1.33" d="m70.33 4.24-.67-2.31-1-.31c-6.54-1.88-16.07-.57-16.07-.57L44.87 16.8m26.7 31.12v13.52M53.9 44.5l13.33 7.77m-15.8-1.86 13.32 6.37m50.76 11.24-1.96-5.15M14.07 39.98s-1.35 2.86-1.22 4.9c.14 2.05 3.94 2.6 3.94 2.6m111.45 7.03c.63-.85 1.1-1.53 1.1-1.53l3.06 1.7m2.68-.59-2.85-6.11 2.8 1.75m3.73-2.95-5.57-2.22"/><path stroke="#3F2B56" stroke-linecap="round" stroke-linejoin="round" stroke-width="1.33" d="M131 41.48 81.42 79.7 24.92 66.33l.63 1.88 57.37 16.87 40.2-29.16s1.15 2.41 2.2 1.89c.64-.32 1.97-2 2.93-3.3l2.32 4.35 4.84-2.5a.68.68 0 0 0 .3-.9l-.63-1.37 5.37-5.32a.78.78 0 0 0-.19-1.28l-1.5-.71 1.1-3.24a.7.7 0 0 0-.46-.75c-1.73-.6-7.17-2.35-8.4-1.31Zm-57 7.2s2.74-1.7 3.24-.3c.72 2.02-5.68 5.2-5.68 5.2m-19.04 67.53c-.63-.6-.5-1.81.5-2.2.9-.33 1.84.6 1.78 1.27-.13 1.44-1.64 1.52-2.28.93ZM35.2 103.8l-3.93 8.07m7.4-5.95-1.96 6.02m-6.98-.07 21.7 1.63s-3.88 6.04-5.27 10.95c0 0-9.02-1.63-23.64-1.94l7.2-10.64Z"/><path stroke="#3F2B56" stroke-linecap="round" stroke-linejoin="round" stroke-width="1.33" d="m26.63 122.64-4.82 9.74c-.97 1.93-.97 6.06-.97 6.06m27.68-13.25-1.93 12.71m8.21 1.52v-13.4m-5.55-23.04-1.42 8.54m15.4-8.46 9.17 8.46 7.1.43 1.79 8.69 1.37-9.95 7.85-6.22v-1.23m0 1.23 7.99 34.95m-3.42-14.96 3.42-5.62-1.24-5.39-4.3 1.77m1.54-11.98 35.83 12.15-5.95 25"/><path stroke="#3F2B56" stroke-linecap="round" stroke-linejoin="round" stroke-width="1.33" d="m99.3 103.24 36.69 8.37a1.58 1.58 0 0 1 1.2 1.83l-4.78 25.98m-45.34-27.07L85 122.02l.97 12.15m3.16-13.67 1.93 14.5m-14.18-13.95v12.57m-7.85-3.73-.55 7.19M66.7 110l.41 9.12-2.75 4.83m-1.38-6.35-2.61 3.87-1.52 13.4m13.56-23.35-.89 10.36m-2.39-17.13 4.15 4.04 6.7.4 4.42-2.96m45.06-49.46-57.5 46.28h2.87L140.7 57.6m-12.91 68.43h7.07m-7.68 2.56h7.21m-5.68 3.13-.62 2.93m3.57-4.04-1.55 8.24"/><path stroke="#3F2B56" stroke-linecap="round" stroke-linejoin="round" stroke-width="1.33" d="m139.4 42.8 13.66-7.24c-1.83-7.57-1.92-19.21-1.92-19.21l6.33-5.58c2.44-.92 6.25-.54 6.25-.54l-.84 2.99h3.35l-.91 3.28h3.2l-1.37 3.9 3.96.46-2.29 3.29 2.82 1.15-1.14 3.36 2.9 2.6-2.29 2.37 2.29 1.22-1.9 2.6 1.9 1.84-4.5 3.52c-4.88 2.14-11.67 5.57-11.67 5.57l-14.4 10.88c-5.28-3.42-5.12-7.77-5.12-7.77"/><path stroke="#3F2B56" stroke-linecap="round" stroke-linejoin="round" stroke-width="1.33" d="M157.47 10.77s-1.14 10.1.91 16.2c2.06 6.13 9.83 16.14 9.83 16.14"/><path stroke="#3F2B56" stroke-linecap="round" stroke-linejoin="round" stroke-width="1.33" d="m158.77 19.4 2.81.47-2.13 2.3 2.6.83-1.65 2.22m1.95 4.05h2.05l-1.03 2.22m-8.46-18.46s.32 9.3 1.58 15.33c1.26 6.03 9.78 15.64 9.78 15.64"/><path stroke="#3F2B56" stroke-linecap="round" stroke-linejoin="round" stroke-width="1.33" d="M157.23 48.38v-4.3c0-.61.28-1.18.75-1.56l4.37-3.4m-25.4 2.9s-.93-4.03 3.05-8.4l9.94 3.59m-5.29 4.81v27.42m-2.96-11-2.93 5.84 1.95.97 2.11-6-1.12-.8Zm-18.86 11.48c-3.68-2.11-2.77-5.58-2.77-5.58m2.77-2.24s-1.47 4.2 2.85 5.86m-.23-5.06 2.94-2.01m-2.54 4.03 9.9-6.59"/><path fill="#3F2B56" d="M89.97 39.54c-7.4-1.02-19.41-3.4-22.06-4.97-1.07-.63-3.72-2.61-6.91-5.06l-48.55-5.92c-.88-.1-1.58.75-1.3 1.6l4.7 14.07h.01L87.5 44.2l2.49-4.66Zm-64.26-4.59c-1.15.88-3.1.24-4.36-1.42-1.26-1.65-1.35-3.71-.2-4.6 1.14-.87 3.1-.24 4.36 1.42 1.26 1.66 1.35 3.72.2 4.6Zm11.96 1.01c-1.14.88-3.1.25-4.36-1.41-1.26-1.66-1.35-3.72-.2-4.6 1.14-.88 3.1-.24 4.36 1.42 1.26 1.66 1.35 3.72.2 4.6Zm11.75 1.25c-1.15.88-3.1.24-4.37-1.42-1.26-1.66-1.35-3.71-.2-4.6 1.14-.87 3.1-.24 4.36 1.42 1.26 1.66 1.35 3.72.2 4.6Zm43.7 2.71-2.27 4.52 16.14 1.1-3.72-9.8a2.06 2.06 0 0 0-1.64-1.29l-2.42-.29c.5 3.26-1.12 5.74-3.85 5.88-.47.02-1.25-.02-2.25-.12Z"/><path stroke="#3F2B56" stroke-linecap="round" stroke-linejoin="round" stroke-width="1.33" d="M91.66 39.76h0"/><path fill="#AD6CAA" stroke="#3F2B56" stroke-linecap="round" stroke-linejoin="round" stroke-width="1.33" d="m74.03 77.95 19.09-38.03a77.97 77.97 0 0 1-3.14-.38L70.03 77l4 .95Z"/><path stroke="#3F2B56" stroke-linecap="round" stroke-linejoin="round" stroke-width="1.33" d="m68.06 80.71-15.73 29.55c-.16.29-.27.6-.35.91l-2.73 11.51 6.65 1.78 1.8-13.41c.07-.5.22-1 .44-1.45l13.92-27.72-4-1.17Zm56.08-8.95 21.92 18.75c.7.6 1.77.13 1.82-.8l1.78-35.62m-33.13 11.16 1.16 1m-.22-4.15 2.72 2.05"/><path stroke="#3F2B56" stroke-linecap="round" stroke-linejoin="round" stroke-width="1.33" d="m142.25 60.88.57 20.35-15.9-12"/><path stroke="#3F2B56" stroke-linecap="round" stroke-linejoin="round" d="m153.1 46.43 1.4.13-1.44-2.26s-.87.37-1.43 1.96l-1.7-.22s.58-2 2.41-3.08l-.87-1.38s-2.33 1.34-3.01 4.28l-2.15-.23 3.71-6.19.8 1.05"/><path stroke="#3F2B56" stroke-linecap="round" stroke-linejoin="round" stroke-width="1.33" d="m60.57 2.5 4.65.23 1.4 2.33m-5.15 97.96 66.08.22a.91.91 0 0 0 .85-1.24l-9.9-26.1m-7.25-19.13-4.26-11.22-3.72-9.81a2.06 2.06 0 0 0-1.64-1.29l-2.42-.29c.5 3.26-1.12 5.73-3.85 5.88-3.55.19-23.9-3.37-27.45-5.47-1.07-.63-3.72-2.61-6.91-5.06l-48.55-5.92c-.88-.1-1.58.75-1.3 1.6l4.7 14.07h.01L36.8 101.8a1.69 1.69 0 0 0 1.6 1.15l17.78.06"/></g><defs><clipPath id="a"><path fill="#fff" d="M0 0h174v141H0z"/></clipPath></defs></svg>
