<svg xmlns="http://www.w3.org/2000/svg" width="220" height="134" fill="none"><g clip-path="url(#a)"><path fill="#DCA8E5" d="M7.257 24.931 197.081.001l22.193 120.45-119.276 13.467L0 120.424l7.257-95.493Z"/><path fill="#AD6CAA" d="M162.431 15.39s4.664 27.502 5.685 33.828c1.02 6.326 4.694 17.449 4.694 17.449l4.591 8.367s18.265 27.856 28.367 38.162c0 0-46.734-5.204-70.917.408l-11.409 4.403-6.173 4.764S101.791 101.36 98.832 95.85c-2.96-5.51-10.816-15.714-12.653-23.367-1.837-7.653-9.898-57.244-9.898-57.244s34.285 5.408 42.142 5.714c7.857.307 44.008-5.564 44.008-5.564Z"/><path fill="#F6F6F8" d="M135.002 62.423v2.296s3.244.842 6.489 0l.24-9.372s-3.305-1.442-6.729 0v4.566"/><path fill="#F58452" d="m132.53 62.65 4.395-.694c.3-.962 0-2.043 0-2.043l-4.567.278.172 2.46ZM153.032 112.642l1.639-.598 1.386 2.187-4.382 1.017 1.357-2.606ZM119.14 60.994s-.199 1.603.3 3.725l11.205-1.952-1.111-1.112h-3.203v-1.011l-7.191.35Z"/><path fill="#F6F6F8" d="M74.735 38.733 77.19 20.35l1.294 8.862-1.129 9.928-2.619-.407ZM70.512 68.679l1.032 3.514.648-2.096 1.51.023 2.744-23.49-2.744.428-3.19 21.62ZM70.225 74.32l1.438-.612-.217 4.264 1.356.12-4.247 36.01-3.678 5.043-.725-1.121 6.073-43.705ZM168.592 50.644l8.067.88 8.189.895 11.251 1.229 6.98-31.197-36.59-3.384-1.032 16.183 3.135 15.394ZM165.171 100.411l1.812.042-1.107-21.467-.4-7.773-35.52 5.88 1.893 5.613 5.76 17.067 25.247.584 2.315.054ZM72.69 36.973l1.52-6.653-33.227-5.64-2.267 7.733-9.107 31.133 36.533 2.214 3.645-16.023 2.902-12.764Z"/><path fill="#DCA8E5" d="M19.203 106.607s21.643-17.605 33.738-41.57l13.202.723 8.066-35.44-2.017-.575 4.301-14.356.73 6.565-6.711 46.725-2.597 1.44 1.983 4.857-4.042 30.283-1.18 8.843-45.473-7.495ZM120.693 79.551l10.22 8.47-.245-3.15-6.781-6.393 4.807-12.977h3.665v-9.013s-4.627-.06-8.051 1.983l-.181 1.923 2.205.163-2.205.134 2.205-.047v1.011l2.602.093v.628l1.712.39-4.843 1.076-5.11 15.71Z"/><path fill="#F58452" d="m163.505 112.503 1.335-.31 2.143 4.469-4.123.562.645-4.721Z"/><path fill="#DCA8E5" d="m166.172 84.727-7.549 37.52-4.332 2.657 1.251 1.155 3.476-.745 1.963 4.018 3.544-.281-.354-3.305 2.812 1.853.979-1.192-5.713-4.637 3.151-23.252 1.116-7.112-.344-6.68Z"/><path fill="#F58452" d="m146.782 117.298-4.03.387.086-3.431 5.834-1.004-1.89 4.048ZM159.483 117.802l-4.827.735-.335-3.429 5.686-1.053-.524 3.747Z"/><path fill="#DCA8E5" d="m142.752 114.272-2.353.476 8.698-14.709h-2.515l-1.398 2.101-9.158 14.361a1.128 1.128 0 0 0 1.059 1.729l5.667-.545v-3.413ZM158.333 100.253l-6.657 14.994 2.419-.561.561 3.851-6.774 1.03a1.128 1.128 0 0 1-1.162-1.652l8.534-15.775 1.106-1.888 1.973.001Z"/><path fill="#E1557A" d="m140.901 75.281-6.193-5.534s2.35-5.028 9.448-1.495l2.267 3.34 3.536-2.512s3.965.734 5.26 3.831l-14.318 2.37Z"/><path fill="#DCA8E5" d="M185.658 87.266V52.507l-.721-.145-1.422 1.286v3.16l-.782 26.307M172.979 51.123V66.95l1.895 3.468.136-19.074-2.031-.221ZM165.876 37.524l15.4 13.657 14.242-9.86 3.941-2.69-.665 2.972-17.711 13.737-14.1-12.161-1.107-5.655Z"/><path fill="#EBB432" d="m45.755 25.439 4.075-7.788s4.433-1.086 6.79-1.301l1.665 5.305s10.734-1.567 13.267-.607c6.038 2.287-2.81 8.344-2.81 8.344l-22.987-3.953ZM36.425 39.618l-4.553-2.273s4.736-7.881 8.212-9.62l-3.66 11.893Z"/><path fill="#DCA8E5" d="M42.303 64.315v20.447h3.299L44.04 64.421l-1.737-.106ZM78.482 29.212s6.407 38.546 7.894 44.674c1.486 6.129 30.893 48.885 30.893 48.885l-47.065-7.704-.123-1.928-1.796 1.614 10.197-85.541Z"/><path fill="#DCA8E5" d="m67.915 70.12 2.596-1.441 1.033 3.514.648-2.096 1.51.023.507-2.304 5.316-3.842-4.451-6.182.41-2.943 6.958 8.351.162 1.813-6.111 6.072-1.233 7.224-3.814-.337.217-4.264-2 .695-1.748-4.283ZM53.813 65.013l1.144 19.743 3.33.006-2.513-19.63-1.962-.12ZM72.706 53.941l-2.919-4.204 1.27-1.33 2.02 2.752-.37 2.782Z"/><path fill="#EBB432" d="m54.778 84.758.65 10.344 4.077.052-1.219-10.392-3.508-.004ZM43.812 84.768l1.79-.006.794 10.344-4.134.006.317-10.344h1.233Z"/><path fill="#DCA8E5" d="m35.389 43.789 21.074 15.154 13.774-15.258.856-3.477 3.117-1.475 3.145.407 1.716 2.757-.663 5.409-2.21 1.455.248-2.131-4.337.676L56.925 63.2 37.577 48.047l-2.802-2.16.614-2.098Z"/><path fill="#E1557A" d="M44.727 30.034c-.711.83-1.825 1.042-2.488.474-.663-.568-.623-1.702.088-2.532.712-.83 1.826-1.042 2.489-.474.662.568.623 1.702-.089 2.532Z"/><path fill="#EBB432" d="M50.26 30.774c-.712.83-1.826 1.042-2.489.474-.663-.568-.623-1.702.088-2.532.712-.83 1.826-1.042 2.489-.474.663.568.623 1.702-.089 2.532Z"/><path fill="#F58452" d="M55.902 31.855c-.712.83-1.825 1.042-2.488.474-.663-.568-.623-1.701.088-2.531.712-.83 1.826-1.042 2.488-.474.663.568.623 1.701-.088 2.531Z"/><path fill="#E1557A" d="M170.745 23.89c-.564.86-1.624 1.162-2.368.674-.744-.488-.89-1.58-.326-2.44.564-.86 1.624-1.162 2.368-.675.744.488.89 1.58.326 2.44Z"/><path fill="#EBB432" d="M175.731 24.264c-.564.86-1.624 1.162-2.368.675-.744-.488-.89-1.58-.326-2.44.563-.86 1.624-1.163 2.368-.675.743.487.889 1.58.326 2.44Z"/><path fill="#F58452" d="M180.855 24.672c-.564.86-1.624 1.162-2.368.674-.744-.488-.89-1.58-.326-2.44.564-.86 1.624-1.162 2.368-.675.743.488.89 1.58.326 2.44Z"/><path fill="#E1557A" d="M135.675 80.333c-.494.616-1.474.65-2.189.077-.714-.573-.893-1.538-.399-2.154.494-.616 1.474-.65 2.189-.077.715.573.894 1.538.399 2.154Z"/><path fill="#EBB432" d="M140.622 79.674c-.495.616-1.475.65-2.189.077-.715-.574-.894-1.538-.4-2.154.495-.616 1.475-.65 2.189-.077.715.574.894 1.538.4 2.154Z"/><path fill="#F58452" d="M145.698 78.836c-.495.616-1.475.65-2.189.078-.715-.574-.894-1.538-.399-2.154.494-.616 1.474-.65 2.189-.077.714.573.893 1.537.399 2.153Z"/><path stroke="#3F2B56" stroke-linecap="round" stroke-linejoin="round" stroke-width="1.333" d="M117.269 122.771S91.114 87.031 87.053 75.01c-4.062-12.022-10.56-59.62-10.56-59.62s35.415 5.441 41.751 5.604c6.336.162 44.187-5.605 44.187-5.605 3.737 30.135 10.235 51.01 10.235 51.01 12.671 23.881 33.303 47.112 33.303 47.112M76.493 15.39l-1.403 3.86M123.442 117.897l11.535-4.386"/><path stroke="#3F2B56" stroke-linecap="round" stroke-linejoin="round" stroke-width="1.333" d="m208.893 116.435-2.924-2.924-27.702-2.222M8.913 108.069l7.148-.65M72.754 104.804a843.34 843.34 0 0 0 16.427-1.075s-.04-4.389.272-4.575c.31-.187 2.612 3.663 2.612 3.663s1.12-3.676 1.617-3.67c.498.007 1.186 4.126 1.186 4.126 1.724-.145 3.436-.297 5.13-.456M47.23 105.943c5.318-.182 10.208-.375 16.243-.665M39.292 86.138C29.22 97.834 18.66 106.607 18.66 106.607s7.486-.06 18.848-.367M79.745 15.883l.782-4.698M160.197 15.726v-4.1"/><path fill="#3F2B56" stroke="#3F2B56" stroke-linecap="round" stroke-linejoin="round" stroke-width="1.333" d="m120.11 122.247-.868-8.736 2.903.279-1.359 8.394-.676.063ZM208.894 116.435l.329-7.587 1.944.216-2.273 7.371ZM8.913 108.069l-1.655-6.892 2.445-.096-.79 6.988Z"/><path stroke="#3F2B56" stroke-linecap="round" stroke-linejoin="round" stroke-width="1.333" d="m44.04 64.42 2.356 30.686 1.507 19.627-2.694.68h-6.333c.107-.907.2-2.293.867-3.28.946-1.413 2.56-2.32 2.56-2.32V67.17"/><path fill="#B39ED3" stroke="#3F2B56" stroke-linecap="round" stroke-linejoin="round" stroke-width="1.333" d="m47.903 114.733-2.694.68h-6.333c.107-.907.2-2.293.867-3.28.946-1.413 2.56-2.32 2.56-2.32V95.106h4.093l1.507 19.627ZM65.007 111.623c-.206-.355-.433-.633-.677-.757-1.16-.573-2.893-1.546-2.893-1.546L59.61 95.106h-4.053l1.146 19.627s4.129.5 7.803.642l.501-3.752Z"/><path stroke="#3F2B56" stroke-linecap="round" stroke-linejoin="round" stroke-width="1.333" d="M65.007 111.623c-.207-.355-.433-.633-.677-.757-1.16-.573-2.894-1.546-2.894-1.546L59.61 95.106l-3.836-29.974-1.962-.12 1.745 30.094 1.146 19.627s4.129.501 7.803.642l.5-3.752Z"/><path stroke="#3F2B56" stroke-linecap="round" stroke-linejoin="round" stroke-width="1.333" d="M61.666 119.581s-.986-1.437-.688-2.377c.23-.722 2.778 1.274 3.59 2.377 0 0 4.585-6.558 5.513-6.442.929.116-.986 6.442-.986 6.442s3.023-3.368 3.659-3.222c.636.146-.525 4.092-.525 4.092M73.701 70.097l2.745-23.467"/><path stroke="#3F2B56" stroke-linecap="round" stroke-linejoin="round" stroke-width="1.333" d="m69.986 74.32-5.96 44.647c.06.061.117.12.17.178h.681c.673-.944 2.335-3.233 3.639-4.701l4.286-36.658M73.624 47.058 70.76 68.526M77.354 39.14l1.129-9.928-1.294-8.862-2.454 18.383M42.303 84.762h3.299M54.957 84.762h3.33M162.856 100.357l-25.247-.584-5.76-17.067-1.893-5.613 35.52-5.88.4 7.773 1.107 21.467-1.812-.042M130.913 88.02l-10.22-8.469 5.11-15.71"/><path stroke="#3F2B56" stroke-linecap="round" stroke-linejoin="round" stroke-width="1.333" d="m130.436 84.727-6.549-6.249 4.806-12.978h3.665v-9.012s-4.626-.06-8.051 1.983l-.18 1.923"/><path stroke="#3F2B56" stroke-linecap="round" stroke-linejoin="round" stroke-width="1.333" d="m127.483 63.448-8.042 1.271s-.841-1.742-.301-3.725l4.987-.303M132.358 60.19l4.567-.277s.3 1.081 0 2.043l-4.395.694"/><path stroke="#3F2B56" stroke-linecap="round" stroke-linejoin="round" stroke-width="1.333" d="M135.002 62.423v2.296s3.244.842 6.489 0l.24-9.372s-3.305-1.442-6.729 0v4.566M132.358 60.514l-3.424-.36v2.222l1.712.39M124.127 60.691l2.205-.134.198 1.098h2.403M128.632 56.89l.302 3.263M130.646 56.584v3.57M138.985 73.886l-4.277-4.138s1.101-4.332 8.898-2.215l4.863 6.353M146.423 71.213l3.536-2.133s3.974-.514 5.26 3.83M145.82 91.117l3.466-1.059M144.473 87.266h4.428M152.077 86.304v3.273M143.414 90.058s-.771 1.251 0 2.695M166.172 84.727l-7.549 37.52-4.332 2.657 1.251 1.155 3.476-.745 1.963 4.018 3.544-.281-.354-3.305 2.812 1.853.979-1.192-5.713-4.637 3.151-23.252M162.765 129.19l-.966-3.805"/><path fill="#3F2B56" d="m165.476 71.213-35.52 5.88 1.893 5.613 34.027-3.72-.4-7.773Zm-29.8 9.12c-.495.616-1.475.65-2.19.077-.714-.574-.893-1.538-.399-2.154.495-.616 1.475-.65 2.189-.077.715.573.894 1.537.4 2.154Zm4.946-.66c-.494.617-1.474.651-2.189.078-.715-.574-.893-1.538-.399-2.154.494-.616 1.474-.65 2.189-.077.715.573.893 1.538.399 2.154Zm5.076-.837c-.494.616-1.474.65-2.189.078-.714-.574-.893-1.538-.399-2.154.494-.616 1.474-.65 2.189-.078.715.574.894 1.538.399 2.154Z"/><path stroke="#3F2B56" stroke-linecap="round" stroke-linejoin="round" stroke-width="1.333" d="m149.097 100.039-8.698 14.709 6.117-1.237"/><path stroke="#3F2B56" stroke-linecap="round" stroke-linejoin="round" stroke-width="1.333" d="m145.184 102.14-9.158 14.361a1.128 1.128 0 0 0 1.059 1.729l9.984-.96M158.333 100.253l-6.657 14.995 8.764-2.034M163.505 112.503l3.234-.751 3.412-2.788c4.202 1.082 6.865 6.991 6.865 6.991s-1.498 1.082-2.247 1.082c-.749 0-3.412-1.041-3.412-1.041l-6.406.975"/><path stroke="#3F2B56" stroke-linecap="round" stroke-linejoin="round" stroke-width="1.333" d="m155.254 102.14-8.534 15.775a1.128 1.128 0 0 0 1.162 1.652l11.601-1.764"/><path fill="#E1557A" stroke="#3F2B56" stroke-linecap="round" stroke-linejoin="round" stroke-width="1.333" d="M166.238 111.869c-.514-.85-1.297-1.543-2.134-2.095l-.599 2.729 2.733-.634ZM161.389 108.427c-.771-.287-1.308-.42-1.308-.42l-2.829 3.496-2.58.541s1.143.818 1.386 2.187l4.382-1.017.949-4.787Z"/><path fill="#E1557A" stroke="#3F2B56" stroke-linecap="round" stroke-linejoin="round" stroke-width="1.333" d="M174.769 117.037c.749 0 2.247-1.082 2.247-1.082s-2.663-5.909-6.866-6.991l-3.412 2.788-1.898.441s1.874 1.522 2.143 4.469l4.374-.666s2.663 1.041 3.412 1.041Z"/><path stroke="#3F2B56" stroke-linecap="round" stroke-linejoin="round" stroke-width="1.333" d="m154.095 114.686.577 3.848M142.753 114.272v3.413M69.787 49.737 66.142 65.76 29.61 63.546l9.107-31.133 2.267-7.733 33.226 5.64-1.52 6.653M36.99 30.23s-4.25 4.86-5.118 7.115c0 0 1.475 1.128 2.56 1.388"/><path stroke="#3F2B56" stroke-linecap="round" stroke-linejoin="round" stroke-width="1.333" d="M68.105 29.284s7.145-3.825 5.236-7.121c-2.56-4.422-25.438 1.822-25.438 1.822"/><path stroke="#3F2B56" stroke-linecap="round" stroke-linejoin="round" stroke-width="1.333" d="M48.232 20.87c.382-1.209 1.031-2.992 1.598-3.219.868-.347 6.791-1.301 6.791-1.301s1.359 2.37 1.665 5.305M73.341 22.163c-1.378-2.38-8.64-1.67-15.055-.508"/><path fill="#3F2B56" stroke="#3F2B56" stroke-linecap="round" stroke-linejoin="round" stroke-width="1.333" d="M58.286 21.655a137.991 137.991 0 0 0-10.383 2.33s4.007-2.875 10.123-3.877c.112.49.204 1.008.26 1.547Z"/><path stroke="#3F2B56" stroke-linecap="round" stroke-linejoin="round" stroke-width="1.333" d="m45.288 45.887 8.602 2.838M47.7 41.559l7.45 5.037M58.699 46.313s.213 3.122-2.413 4.896"/><path stroke="#3F2B56" stroke-linecap="round" stroke-linejoin="round" stroke-width="1.333" d="m35.389 43.789 21.074 15.154 13.773-15.258.856-3.477 3.117-1.475 3.146.407 1.716 2.757-.663 5.409-2.211 1.455.249-2.131-4.337.676L56.925 63.2 37.577 48.047M68.092 70.178l2.667-1.652 1.096 5.12-2.107.673-1.656-4.141ZM72.213 70.12l-.767 7.666h3.599l1.401-7.318-4.233-.348ZM71.663 75.616h3.797M71.947 72.736l4.03.182M72.706 53.941l-1.65-2.332M73.946 68.007l5.763-4.165-4.527-6.4"/><path stroke="#3F2B56" stroke-linecap="round" stroke-linejoin="round" stroke-width="1.333" d="m77.222 56.45 5.008 6.395a1.763 1.763 0 0 1-.183 2.373l-5.6 5.25M71.947 49.717l1.13 1.442"/><path fill="#3F2B56" d="m40.983 24.68-2.267 7.733 33.973 4.56 1.52-6.653-33.227-5.64Zm3.744 5.354c-.712.83-1.826 1.042-2.488.474-.663-.568-.624-1.702.088-2.532.712-.83 1.826-1.042 2.488-.474.663.568.623 1.702-.088 2.532Zm5.533.74c-.712.83-1.826 1.042-2.489.474-.663-.568-.623-1.702.088-2.532.712-.83 1.826-1.042 2.489-.474.663.568.623 1.702-.088 2.532Zm5.642 1.081c-.712.83-1.826 1.042-2.489.474-.662-.568-.622-1.701.089-2.531.711-.83 1.825-1.042 2.488-.474.663.568.623 1.701-.088 2.531Z"/><path stroke="#3F2B56" stroke-linecap="round" stroke-linejoin="round" stroke-width="1.333" d="m45.288 78.309 6.138-10.612M184.849 52.419l11.25 1.229 6.98-31.197-36.59-3.384M168.593 50.644l8.066.88M178.439 34.613l.318 4.018M183.092 34.401l9.412-2.01M183.516 37.362l9.729-.317"/><path stroke="#3F2B56" stroke-linecap="round" stroke-linejoin="round" stroke-width="1.333" d="M198.794 41.603 181.083 55.34l-14.101-12.161"/><path stroke="#3F2B56" stroke-linecap="round" stroke-linejoin="round" stroke-width="1.333" d="m165.876 37.524 15.4 13.657 14.242-9.86M183.515 56.808l-.782 26.307M185.658 54.706v32.56M175.011 51.344l-.136 19.074-1.896-3.468V51.123"/><path fill="#3F2B56" d="M170.745 23.89c-.564.86-1.624 1.162-2.368.674-.744-.488-.89-1.58-.326-2.44.564-.86 1.624-1.162 2.368-.675.744.488.89 1.58.326 2.44Zm4.985.374c-.564.86-1.624 1.162-2.368.675-.743-.488-.89-1.58-.326-2.44.564-.86 1.624-1.163 2.368-.675.744.487.89 1.58.326 2.44Zm5.124.408c-.564.86-1.624 1.162-2.367.674-.744-.488-.891-1.58-.327-2.44.564-.86 1.624-1.162 2.368-.675.744.488.89 1.58.326 2.44Zm-14.365-5.605-.613 7.614 35.63 2.8 1.573-7.03-36.59-3.384Z"/><path stroke="#3F2B56" stroke-linecap="round" stroke-linejoin="round" stroke-width="1.333" d="M141.732 55.347s.004 1.779-3.977 1.543M166.489 19.067l-1.184 15.334"/></g><defs><clipPath id="a"><path fill="#fff" d="M0 0h219.274v133.92H0z"/></clipPath></defs></svg>
