<svg xmlns="http://www.w3.org/2000/svg" width="174" height="141" fill="none"><g clip-path="url(#a)"><path fill="#DCA8E5" d="m0 17.413 115.041 7.807L109.616 127l-99.487 4.127L0 17.412Z"/><path fill="#DCA8E5" d="M54.823 138.062H98.15l-3.073-13.606 3.42-5.615-1.24-5.389-4.29 1.769-2.869-12.243H49.245l-4.594 35.198 10.172-.114Z"/><path fill="#B29DD2" d="m141.695 58.447-2.938 5.831 1.953.974 2.112-5.994-1.127-.81Z"/><path fill="#DCA8E5" d="m151.145 16.35 6.347-5.738 6.205-.304-.689 2.908 3.077.113-.766 3.175h3.039l-1.139 3.697 3.891.66-2.128 3.353 2.661 1.083-1.009 3.484 2.762 2.569-2.171 2.342 2.271 1.126-1.767 2.865 1.544 1.487-4.582 3.728-4.902 2.514s-7.694-8.903-9.635-16.899c-1.942-7.996-3.009-12.162-3.009-12.162ZM49.078 19.111l-4.832-2.633-2.41-.76s-12.789 1.289-13.733 1.82c-.944.53-3.182 2.66-3.182 2.66l27.908 16.161s8.071.966 17.457 1.91l-6.692-6.784L49.078 19.11Z"/><path fill="#EBB432" d="M98.92 39.543c1.388-2.168.291-4.715 0-6.365-.29-1.65-6.9-11.56-10.339-14.567-3.439-3.007-6.268-3.37-10.103-4.191-2.036-.436-4.289-.622-5.955-.7l-.33-.902-2.533-10.89c-7.282-2.251-17.07-.873-17.07-.873l-7.92 15.556-.424-.133 4.832 2.633 14.516 12.374 6.692 6.785c12.71 1.28 27.837 2.52 28.635 1.273Z"/><path fill="#F6F6F8" d="m127.984 103.244.48-.587-21.984-58.453-90.838-5.566 21.15 63.153 1.593 1.15 89.599.303Z"/><path fill="#EBB432" d="M127.796 126.024h7.075l-2.465 13.4-8.025.967 3.415-14.367ZM120.056 64.336s-.907 3.47 2.778 5.586l17.875-12.335-3-6.102-17.653 12.85Z"/><path fill="#DCA8E5" d="m94.503 103.244 35.822 12.142-2.529 10.638h7.075l2.315-12.583a1.581 1.581 0 0 0-1.2-1.828l-36.678-8.369h-4.805ZM124.136 71.756l21.92 18.751c.699.598 1.778.131 1.824-.789l1.781-35.626-6.84 5.166-.573 1.627.573 20.347-15.901-12-1.473-1.113-3.102 2.14 1.791 1.497ZM117.469 62.1l2.723 2.054-2.502 2.087-1.157-.99.936-3.151Z"/><path fill="#B39ED3" d="m151.145 16.35 3.764-3.322s.818 13.18 2.08 17.064c1.263 3.885 9.277 13.906 9.277 13.906l-9.039 4.38-14.406 10.88s-4.607-2.115-5.112-7.773l3.372-3.488-2.325-1.22.894-2.327.627-2.123 12.781-6.77s-1.829-12.534-1.913-19.206Z"/><path fill="#B39ED3" d="M136.95 42.021s-.947-3.818 3.046-8.408l9.944 3.596-10.543 5.584-2.447-.772Z"/><path fill="#AD6CAA" d="m74.032 77.948-3.998-.946 19.942-37.459 3.14.38-19.084 38.025ZM72.056 81.884 61.468 103.02l-3.77 8.029-1.799 13.407-1.099-.292v1.859l.024 12.039-33.981.381c.133-1.223.523-4.898.958-6.061.254-.654 4.828-9.737 4.828-9.737l-4.116-.121 7.213-10.646c.29-.429 1.207.448 1.545 0l5.436-10.899.881 1.732 2.426.23-3.224 9.469 14.123 1.491 1.413-3.645 3.85-7.23 11.889-22.32 3.991 1.178Z"/><path fill="#E1557A" d="M71.702 49.768s4.565-2.78 5.535-1.39c.971 1.39-5.672 5.207-5.672 5.207l.137-3.817Z"/><path fill="#EBB432" d="M52.59 1.055 67.78 2.82l2.679 16.61 3.253-.288-1.052-4.32s10.908 1.92 14.927 4.512c4.019 2.592 8.23 14.305 8.516 16.226.287 1.92-.478 4.32-2.105 4.416-1.627.096-17.99-2.592-23.73-4.608-5.742-2.017-10.717-7.201-10.717-7.201L44.873 16.789 52.59 1.055Z"/><path fill="#DCA8E5" d="m21.124 24.649 40.435 5.629-4.88-3.84-13.492-9.025s-16.835 1.867-17.504 1.963c-.67.096-4.559 5.273-4.559 5.273ZM15.058 37.92l3.696 9.984s-5.322-.19-5.897-2.206c-.574-2.017 2.201-7.777 2.201-7.777Z"/><path fill="#E1557A" d="M25.712 34.95c-1.148.879-3.101.245-4.363-1.415-1.262-1.66-1.354-3.717-.206-4.596 1.148-.879 3.101-.245 4.363 1.415 1.262 1.66 1.354 3.718.206 4.596Z"/><path fill="#EBB432" d="M37.673 35.964c-1.148.878-3.101.245-4.363-1.415-1.262-1.66-1.354-3.718-.206-4.597 1.148-.878 3.101-.245 4.363 1.415 1.262 1.66 1.354 3.718.206 4.597Z"/><path fill="#F58452" d="M49.414 37.209c-1.148.879-3.101.245-4.363-1.415-1.262-1.66-1.354-3.717-.206-4.596 1.148-.879 3.102-.245 4.363 1.415 1.262 1.66 1.354 3.717.206 4.596Z"/><path fill="#DCA8E5" d="m46.589 137.905 2.83-15.957 2.135-8.975 5.93-1.024-1.586 12.507-1.099-.292.024 13.898-8.234-.157ZM122.833 69.922c-3.685-2.116-2.778-5.586-2.778-5.586l-48.102 38.719h2.864l48.016-33.133Z"/><path fill="#DCA8E5" d="M130.992 41.48 81.428 79.697 24.92 66.328l.629 1.879L82.921 85.08l40.195-29.158s1.157 2.41 2.207 1.884c.632-.317 1.964-2.005 2.922-3.296l2.324 4.349 4.843-2.508a.681.681 0 0 0 .303-.892l-.637-1.367 5.372-5.323a.778.778 0 0 0-.186-1.283l-1.508-.71 1.11-3.24a.703.703 0 0 0-.468-.743c-1.727-.595-7.172-2.35-8.406-1.314Z"/><path stroke="#3F2B56" stroke-linecap="round" stroke-linejoin="round" stroke-width="1.333" d="m22.517 22.796 3.492-3.773a5.542 5.542 0 0 1 3.353-1.733l11.817-1.534a4.89 4.89 0 0 1 3.694 1.033c5.013 4.014 20.084 16.032 23.033 17.777 3.55 2.1 23.909 5.66 27.458 5.473 3.549-.188 5.23-4.311 2.802-8.997-2.429-4.685-7.472-11.995-11.207-14.056-3.736-2.062-10.154-2.946-14.45-3.32"/><path stroke="#3F2B56" stroke-linecap="round" stroke-linejoin="round" stroke-width="1.333" d="M52.59 1.055S59.13 6.631 66.599 7.24c4.513.368 3.736-2.999 3.736-2.999l4.483 19.426"/><path fill="#3F2B56" stroke="#3F2B56" stroke-linecap="round" stroke-linejoin="round" stroke-width="1.333" d="M47.045 12.361s9.284 7.77 26.572 6.1l.827 3.585.374 1.62s-6.164 4.058-24.812-2.784a1687.407 1687.407 0 0 1-5.132-4.093l2.171-4.428Z"/><path stroke="#3F2B56" stroke-linecap="round" stroke-linejoin="round" stroke-width="1.333" d="m70.335 4.241-.674-2.312-1.007-.312C62.116-.257 52.59 1.055 52.59 1.055L44.874 16.79M71.564 47.912v13.522M53.904 44.492l13.322 7.772M51.426 50.399l13.322 6.372M115.511 68.014l-1.956-5.156M14.074 39.98s-1.358 2.862-1.222 4.906c.136 2.043 3.938 2.588 3.938 2.588M128.244 54.51c.631-.851 1.1-1.53 1.1-1.53l3.061 1.693M135.078 54.092l-2.848-6.112 2.798 1.755M138.756 46.776l-5.564-2.218"/><path stroke="#3F2B56" stroke-linecap="round" stroke-linejoin="round" stroke-width="1.333" d="M130.992 41.48 81.428 79.697 24.92 66.328l.629 1.879L82.921 85.08l40.195-29.158s1.157 2.41 2.207 1.884c.632-.317 1.964-2.005 2.922-3.296l2.324 4.349 4.843-2.508a.681.681 0 0 0 .303-.892l-.637-1.367 5.372-5.323a.778.778 0 0 0-.186-1.283l-1.508-.71 1.11-3.24a.703.703 0 0 0-.468-.743c-1.727-.595-7.172-2.35-8.406-1.314ZM73.999 48.689s2.743-1.704 3.239-.31c.719 2.02-5.674 5.206-5.674 5.206M52.524 121.109c-.631-.592-.503-1.811.505-2.196.884-.338 1.827.592 1.767 1.267-.126 1.435-1.64 1.52-2.272.929ZM35.2 103.811l-3.93 8.067M38.668 105.932l-1.958 6.017M29.725 111.878l21.7 1.635s-3.872 6.042-5.266 10.943c0 0-9.023-1.627-23.642-1.937l7.208-10.641Z"/><path stroke="#3F2B56" stroke-linecap="round" stroke-linejoin="round" stroke-width="1.333" d="M26.627 122.645s-3.858 7.799-4.821 9.733c-.964 1.935-.964 6.065-.964 6.065M48.516 125.195l-1.927 12.71M54.8 139.424v-13.4M49.245 102.978l-1.417 8.54M63.225 103.055l9.172 8.463 7.099.431 1.79 8.687 1.376-9.947 7.849-6.217v-1.228M90.51 104.472l7.986 34.952M95.077 124.456l3.42-5.615-1.24-5.389-4.29 1.769M94.503 103.244l35.822 12.142-5.945 25.005"/><path stroke="#3F2B56" stroke-linecap="round" stroke-linejoin="round" stroke-width="1.333" d="m99.309 103.244 36.678 8.369a1.58 1.58 0 0 1 1.2 1.828l-4.781 25.983M87.068 112.347l-2.065 9.67.964 12.157M89.134 120.498l1.927 14.505M76.88 121.05v12.572M69.031 129.892l-.55 7.184M66.691 109.998l.413 9.118-2.753 4.835M62.973 117.596l-2.616 3.869-1.514 13.4M72.397 111.518l-.887 10.361M69.123 104.753l4.151 4.032 6.697.403 4.419-2.957M129.453 56.771l-57.5 46.284h2.864l65.892-45.468M127.796 126.024h7.075M127.188 128.583h7.212M128.725 131.705l-.62 2.937M131.668 130.601l-1.549 8.238"/><path stroke="#3F2B56" stroke-linecap="round" stroke-linejoin="round" stroke-width="1.333" d="m139.398 42.793 13.661-7.236c-1.829-7.565-1.914-19.207-1.914-19.207l6.325-5.581c2.438-.918 6.249-.536 6.249-.536l-.839 2.982h3.353l-.914 3.288h3.2l-1.371 3.9 3.962.459-2.286 3.287 2.82 1.147-1.143 3.365 2.896 2.6-2.287 2.37 2.287 1.223-1.905 2.6 1.905 1.835-4.496 3.517c-4.877 2.141-11.673 5.572-11.673 5.572l-14.407 10.88c-5.267-3.42-5.112-7.773-5.112-7.773"/><path stroke="#3F2B56" stroke-linecap="round" stroke-linejoin="round" stroke-width="1.333" d="M157.47 10.769s-1.143 10.093.914 16.21c2.058 6.117 9.823 16.135 9.823 16.135"/><path stroke="#3F2B56" stroke-linecap="round" stroke-linejoin="round" stroke-width="1.333" d="m158.766 19.409 2.819.459-2.134 2.294 2.591.84-1.638 2.218M162.347 29.273h2.057l-1.029 2.217M154.91 13.028s.319 9.293 1.58 15.328c1.261 6.036 9.777 15.642 9.777 15.642"/><path stroke="#3F2B56" stroke-linecap="round" stroke-linejoin="round" stroke-width="1.333" d="M157.228 48.378v-4.303c0-.606.279-1.18.756-1.552l4.363-3.407M136.949 42.021s-.931-4.027 3.046-8.408l9.944 3.596M144.653 42.021v27.417M141.695 58.447l-2.938 5.831 1.953.974 2.112-5.994-1.127-.81ZM122.834 69.922c-3.685-2.116-2.778-5.586-2.778-5.586M122.834 62.1s-1.473 4.195 2.847 5.857M125.447 62.901l2.946-2.016M125.849 64.916l9.91-6.584"/><path fill="#3F2B56" d="M89.975 39.543c-7.398-1.028-19.419-3.41-22.069-4.977-1.066-.631-3.72-2.607-6.906-5.06l-48.554-5.914c-.88-.109-1.58.75-1.303 1.599l4.707 14.072h.012l71.632 4.941 2.481-4.66ZM25.712 34.95c-1.148.879-3.101.245-4.363-1.415-1.262-1.66-1.354-3.717-.206-4.596 1.148-.878 3.101-.245 4.363 1.415 1.262 1.66 1.354 3.718.206 4.596Zm11.961 1.014c-1.148.878-3.101.245-4.363-1.415-1.262-1.66-1.354-3.718-.206-4.596 1.148-.88 3.101-.246 4.363 1.414 1.262 1.66 1.354 3.718.206 4.597Zm11.742 1.245c-1.148.879-3.102.245-4.364-1.415-1.261-1.66-1.354-3.717-.206-4.596 1.148-.879 3.102-.245 4.364 1.415 1.261 1.66 1.354 3.718.206 4.596ZM93.116 39.924l-2.264 4.512 16.137 1.113-3.717-9.81a2.055 2.055 0 0 0-1.642-1.284l-2.42-.294c.497 3.262-1.118 5.734-3.846 5.878-.474.025-1.255-.019-2.25-.115h.002Z"/><path stroke="#3F2B56" stroke-linecap="round" stroke-linejoin="round" stroke-width="1.333" d="M91.655 39.763h.002"/><path fill="#AD6CAA" stroke="#3F2B56" stroke-linecap="round" stroke-linejoin="round" stroke-width="1.333" d="m74.032 77.948 19.085-38.024a77.97 77.97 0 0 1-3.141-.38L70.034 77.001l3.998.946Z"/><path stroke="#3F2B56" stroke-linecap="round" stroke-linejoin="round" stroke-width="1.333" d="M68.06 80.71 52.328 110.26c-.154.288-.27.595-.345.913l-2.738 11.511 6.654 1.772 1.799-13.408c.068-.505.219-.995.447-1.45l13.91-27.715-3.995-1.175ZM124.136 71.756l21.92 18.751c.699.598 1.777.131 1.823-.789l1.782-35.626M116.532 65.252l1.157.989M117.469 62.1l2.722 2.054"/><path stroke="#3F2B56" stroke-linecap="round" stroke-linejoin="round" stroke-width="1.333" d="m142.248 60.885.573 20.347-15.901-12"/><path stroke="#3F2B56" stroke-linecap="round" stroke-linejoin="round" d="m153.105 46.431 1.393.127-1.439-2.26s-.87.374-1.429 1.964l-1.709-.218s.59-1.996 2.424-3.087l-.87-1.372s-2.331 1.34-3.015 4.271l-2.154-.23 3.716-6.186.8 1.053"/><path stroke="#3F2B56" stroke-linecap="round" stroke-linejoin="round" stroke-width="1.333" d="m60.573 2.497 4.648.233 1.394 2.332M61.468 103.02l66.077.224a.914.914 0 0 0 .856-1.247l-9.898-26.095M111.246 56.771l-4.257-11.222-3.717-9.81a2.055 2.055 0 0 0-1.642-1.284l-2.42-.294c.497 3.262-1.118 5.733-3.846 5.878-3.549.187-23.909-3.374-27.458-5.473-1.066-.631-3.72-2.607-6.906-5.06l-48.554-5.914c-.88-.109-1.58.75-1.303 1.599l4.707 14.072h.012l20.93 62.528a1.69 1.69 0 0 0 1.592 1.15l17.782.061"/></g><defs><clipPath id="a"><path fill="#fff" d="M0 0h174v141H0z"/></clipPath></defs></svg>
