<svg xmlns="http://www.w3.org/2000/svg" width="220" height="134" fill="none"><g clip-path="url(#a)"><path fill="#DCA8E5" d="M7.26 24.93 197.08 0l22.2 120.45L100 133.92 0 120.42l7.26-95.49Z"/><path fill="#AD6CAA" d="M162.43 15.39s4.67 27.5 5.69 33.83c1.02 6.32 4.69 17.45 4.69 17.45l4.6 8.36s18.26 27.86 28.36 38.17c0 0-46.74-5.2-70.92.4l-11.4 4.4-6.18 4.77s-15.48-21.41-18.44-26.92c-2.96-5.51-10.81-15.71-12.65-23.37-1.84-7.65-9.9-57.24-9.9-57.24s34.29 5.4 42.14 5.71c7.86.31 44.01-5.56 44.01-5.56Z"/><path fill="#F6F6F8" d="M135 62.42v2.3s3.25.84 6.5 0l.23-9.37s-3.3-1.44-6.73 0v4.56"/><path fill="#F58452" d="m132.53 62.65 4.4-.7c.3-.96 0-2.04 0-2.04l-4.57.28.17 2.46Zm20.5 50 1.64-.6 1.39 2.18-4.38 1.02 1.35-2.6Zm-33.89-51.66s-.2 1.6.3 3.73l11.2-1.95-1.1-1.12h-3.2v-1l-7.2.34Z"/><path fill="#F6F6F8" d="m74.73 38.73 2.46-18.38 1.3 8.86-1.14 9.93-2.61-.4Zm-4.22 29.95 1.03 3.51.65-2.1 1.51.03 2.75-23.49-2.75.43-3.19 21.62Zm-.29 5.64 1.44-.61-.21 4.26 1.35.12-4.25 36.01-3.67 5.05-.73-1.13 6.07-43.7Zm98.37-23.68 8.07.88 8.19.9 11.25 1.23 6.98-31.2-36.6-3.38-1.02 16.18 3.13 15.4Zm-3.42 49.77 1.81.04-1.1-21.46-.4-7.78-35.52 5.88 1.89 5.62 5.76 17.06 25.25.59 2.31.05ZM72.7 36.97l1.52-6.65-33.23-5.64-2.26 7.73-9.11 31.14 36.53 2.21 3.65-16.02 2.9-12.77Z"/><path fill="#DCA8E5" d="M19.2 106.6S40.85 89 52.94 65.05l13.2.72 8.07-35.44-2.02-.57 4.3-14.36.73 6.56-6.7 46.73-2.6 1.44 1.98 4.86-4.04 30.28-1.18 8.84-45.48-7.5Zm101.5-27.05 10.21 8.47-.24-3.15-6.78-6.4 4.8-12.97h3.67V56.5s-4.63-.06-8.05 1.98l-.18 1.92 2.2.17-2.2.13 2.2-.05v1.01l2.6.1v.63l1.72.39-4.85 1.07-5.1 15.71Z"/><path fill="#F58452" d="m163.5 112.5 1.34-.3 2.14 4.46-4.12.56.65-4.72Z"/><path fill="#DCA8E5" d="m166.17 84.73-7.55 37.52-4.33 2.65 1.25 1.16 3.48-.75 1.96 4.02 3.55-.28-.36-3.3 2.81 1.85.98-1.2-5.71-4.63 3.15-23.25 1.12-7.11-.35-6.68Z"/><path fill="#F58452" d="m146.78 117.3-4.03.39.09-3.44 5.83-1-1.89 4.05Zm12.7.5-4.82.74-.34-3.43 5.69-1.05-.53 3.74Z"/><path fill="#DCA8E5" d="m142.75 114.27-2.35.48 8.7-14.71h-2.52l-1.4 2.1-9.15 14.36a1.13 1.13 0 0 0 1.06 1.73l5.66-.55v-3.4Zm15.58-14.02-6.65 15 2.41-.56.57 3.85-6.78 1.03a1.13 1.13 0 0 1-1.16-1.66l8.53-15.77 1.11-1.89h1.97Z"/><path fill="#E1557A" d="m140.9 75.28-6.2-5.53s2.36-5.03 9.46-1.5l2.26 3.34 3.54-2.51s3.96.73 5.26 3.83l-14.32 2.37Z"/><path fill="#DCA8E5" d="M185.66 87.27V52.5l-.72-.15-1.43 1.29v3.16l-.78 26.3m-9.75-31.99v15.83l1.9 3.47.13-19.08-2.03-.22Zm-7.1-13.6 15.4 13.66 14.24-9.86 3.94-2.69-.67 2.97-17.7 13.74-14.1-12.16-1.11-5.66Z"/><path fill="#EBB432" d="m45.76 25.44 4.07-7.79s4.43-1.08 6.79-1.3l1.67 5.3s10.73-1.56 13.26-.6c6.04 2.29-2.8 8.34-2.8 8.34l-23-3.95Zm-9.34 14.18-4.55-2.27s4.74-7.89 8.21-9.63l-3.66 11.9Z"/><path fill="#DCA8E5" d="M42.3 64.31v20.45h3.3l-1.56-20.34-1.74-.1Zm36.18-35.1s6.4 38.55 7.9 44.68c1.48 6.12 30.89 48.88 30.89 48.88l-47.07-7.7-.12-1.93-1.8 1.61 10.2-85.54Z"/><path fill="#DCA8E5" d="m67.92 70.12 2.6-1.44 1.02 3.51.65-2.1 1.51.03.5-2.3 5.33-3.85-4.46-6.18.41-2.94 6.96 8.35.16 1.81-6.1 6.07-1.24 7.23-3.81-.34.21-4.26-2 .7-1.74-4.29Zm-14.1-5.1 1.14 19.74h3.33l-2.52-19.63-1.96-.12ZM72.7 53.93l-2.92-4.2 1.27-1.33 2.02 2.75-.37 2.78Z"/><path fill="#EBB432" d="m54.78 84.76.65 10.34 4.07.05-1.21-10.39h-3.51Zm-10.97 0h1.8l.79 10.35h-4.14l.32-10.34h1.23Z"/><path fill="#DCA8E5" d="m35.39 43.79 21.07 15.15L70.24 43.7l.85-3.48 3.12-1.48 3.15.41 1.71 2.76-.66 5.4-2.21 1.46.25-2.13-4.34.68L56.92 63.2 37.58 48.05l-2.8-2.16.6-2.1Z"/><path fill="#E1557A" d="M44.73 30.03c-.71.83-1.83 1.05-2.5.48-.65-.57-.61-1.7.1-2.53.7-.83 1.82-1.05 2.49-.48.66.57.62 1.7-.1 2.53Z"/><path fill="#EBB432" d="M50.26 30.77c-.71.83-1.83 1.05-2.49.48-.66-.57-.62-1.7.09-2.53.71-.83 1.83-1.05 2.49-.48.66.57.62 1.7-.1 2.53Z"/><path fill="#F58452" d="M55.9 31.86c-.71.83-1.82 1.04-2.49.47-.66-.57-.62-1.7.1-2.53.7-.83 1.82-1.04 2.48-.48.66.57.62 1.7-.09 2.54Z"/><path fill="#E1557A" d="M170.75 23.89c-.57.86-1.63 1.16-2.37.67-.75-.48-.9-1.58-.33-2.44.57-.86 1.63-1.16 2.37-.67.74.49.89 1.58.33 2.44Z"/><path fill="#EBB432" d="M175.73 24.26c-.56.86-1.62 1.17-2.37.68-.74-.49-.89-1.58-.32-2.44.56-.86 1.62-1.16 2.37-.68.74.5.88 1.58.32 2.44Z"/><path fill="#F58452" d="M180.85 24.67c-.56.86-1.62 1.16-2.36.68-.75-.5-.9-1.58-.33-2.44.57-.86 1.63-1.17 2.37-.68.74.49.89 1.58.32 2.44Z"/><path fill="#E1557A" d="M135.68 80.33c-.5.62-1.48.65-2.2.08-.7-.57-.89-1.54-.4-2.15.5-.62 1.48-.65 2.2-.08.71.57.89 1.54.4 2.15Z"/><path fill="#EBB432" d="M140.62 79.67c-.5.62-1.47.65-2.19.08-.71-.57-.9-1.54-.4-2.15.5-.62 1.48-.65 2.2-.08.7.57.89 1.54.4 2.15Z"/><path fill="#F58452" d="M145.7 78.84c-.5.61-1.48.65-2.2.07-.7-.57-.88-1.53-.39-2.15.5-.62 1.47-.65 2.19-.08.71.58.9 1.54.4 2.16Z"/><path stroke="#3F2B56" stroke-linecap="round" stroke-linejoin="round" stroke-width="1.33" d="M117.27 122.77S91.1 87.03 87.05 75.01C83 62.99 76.5 15.39 76.5 15.39s35.42 5.44 41.75 5.6c6.34.17 44.2-5.6 44.2-5.6 3.73 30.13 10.23 51 10.23 51 12.67 23.89 33.3 47.12 33.3 47.12M76.49 15.4l-1.4 3.86m48.35 98.65 11.54-4.39"/><path stroke="#3F2B56" stroke-linecap="round" stroke-linejoin="round" stroke-width="1.33" d="m208.9 116.44-2.93-2.93-27.7-2.22M8.9 108.07l7.15-.65m56.7-2.62a843.34 843.34 0 0 0 16.42-1.07s-.04-4.39.27-4.58c.31-.18 2.62 3.67 2.62 3.67s1.12-3.68 1.61-3.67c.5 0 1.19 4.12 1.19 4.12 1.72-.14 3.43-.3 5.13-.45m-52.77 3.12c5.32-.18 10.2-.37 16.24-.66M39.3 86.14c-10.07 11.7-20.63 20.47-20.63 20.47s7.49-.06 18.85-.37m42.24-90.36.78-4.7m79.67 4.55v-4.1"/><path fill="#3F2B56" stroke="#3F2B56" stroke-linecap="round" stroke-linejoin="round" stroke-width="1.33" d="m120.11 122.25-.87-8.74 2.9.28-1.35 8.4-.68.06Zm88.78-5.81.33-7.6 1.95.22-2.28 7.37ZM8.91 108.06l-1.65-6.9 2.44-.09-.79 6.99Z"/><path stroke="#3F2B56" stroke-linecap="round" stroke-linejoin="round" stroke-width="1.33" d="m44.04 64.42 2.36 30.69 1.5 19.62-2.7.68h-6.32c.1-.9.2-2.29.86-3.28.95-1.41 2.56-2.32 2.56-2.32V67.17"/><path fill="#B39ED3" stroke="#3F2B56" stroke-linecap="round" stroke-linejoin="round" stroke-width="1.33" d="m47.9 114.73-2.7.68h-6.32c.1-.9.2-2.29.86-3.28.95-1.41 2.56-2.32 2.56-2.32v-14.7h4.1l1.5 19.62Zm17.1-3.1a1.9 1.9 0 0 0-.67-.76 79.14 79.14 0 0 1-2.9-1.55l-1.82-14.21h-4.05l1.14 19.62s4.13.5 7.8.64l.5-3.75Z"/><path stroke="#3F2B56" stroke-linecap="round" stroke-linejoin="round" stroke-width="1.33" d="M65 111.62a1.9 1.9 0 0 0-.67-.75 79.55 79.55 0 0 1-2.9-1.55l-1.82-14.21-3.84-29.98-1.96-.12 1.75 30.1 1.14 19.62s4.13.5 7.8.64l.5-3.75Z"/><path stroke="#3F2B56" stroke-linecap="round" stroke-linejoin="round" stroke-width="1.33" d="M61.67 119.58s-.99-1.44-.7-2.38c.24-.72 2.79 1.28 3.6 2.38 0 0 4.58-6.56 5.51-6.44.93.12-.98 6.44-.98 6.44s3.02-3.37 3.65-3.22c.64.15-.52 4.1-.52 4.1M73.7 70.1l2.75-23.47"/><path stroke="#3F2B56" stroke-linecap="round" stroke-linejoin="round" stroke-width="1.33" d="m69.99 74.32-5.96 44.65.17.17h.68c.67-.94 2.33-3.23 3.64-4.7L72.8 77.8m.82-30.73-2.86 21.47m6.6-29.39 1.12-9.93-1.3-8.86-2.44 18.38M42.3 84.76h3.3m9.36 0h3.33m104.57 15.6-25.25-.59-5.76-17.06-1.9-5.62 35.53-5.88.4 7.78 1.1 21.46-1.8-.04M130.9 88.02l-10.22-8.47 5.11-15.7"/><path stroke="#3F2B56" stroke-linecap="round" stroke-linejoin="round" stroke-width="1.33" d="m130.44 84.73-6.55-6.25 4.8-12.98h3.67v-9.01s-4.63-.06-8.05 1.98l-.18 1.92"/><path stroke="#3F2B56" stroke-linecap="round" stroke-linejoin="round" stroke-width="1.33" d="m127.48 63.45-8.04 1.27s-.84-1.74-.3-3.73l4.99-.3m8.23-.5 4.56-.28s.3 1.08 0 2.05l-4.39.69"/><path stroke="#3F2B56" stroke-linecap="round" stroke-linejoin="round" stroke-width="1.33" d="M135 62.42v2.3s3.25.84 6.5 0l.23-9.37s-3.3-1.44-6.73 0v4.56m-2.64.6-3.43-.36v2.23l1.72.39m-6.52-2.08 2.2-.13.2 1.1h2.4m-.3-4.77.3 3.26m1.72-3.57v3.57m8.34 13.74-4.28-4.14s1.1-4.33 8.9-2.22l4.86 6.36m-2.05-2.68 3.54-2.13s3.97-.51 5.26 3.83m-9.4 18.2 3.47-1.05m-4.82-2.8h4.43m3.18-.96v3.28m-8.67.48s-.77 1.25 0 2.7m22.76-8.03-7.55 37.52-4.33 2.65 1.25 1.16 3.48-.75 1.96 4.02 3.55-.28-.36-3.3 2.81 1.85.98-1.2-5.71-4.63 3.15-23.25m-2.64 30.67-.96-3.8"/><path fill="#3F2B56" d="m165.48 71.21-35.52 5.88 1.89 5.62 34.03-3.72-.4-7.78Zm-29.8 9.12c-.5.62-1.48.65-2.2.08-.7-.57-.89-1.54-.4-2.15.5-.62 1.48-.65 2.2-.08.71.57.89 1.54.4 2.15Zm4.94-.66c-.5.62-1.47.65-2.19.08-.71-.57-.89-1.54-.4-2.15.5-.62 1.48-.65 2.2-.08.7.57.89 1.54.4 2.15Zm5.08-.83c-.5.61-1.48.65-2.2.07-.7-.57-.88-1.53-.39-2.15.5-.62 1.47-.65 2.19-.08.71.58.9 1.54.4 2.16Z"/><path stroke="#3F2B56" stroke-linecap="round" stroke-linejoin="round" stroke-width="1.33" d="m149.1 100.04-8.7 14.7 6.12-1.23"/><path stroke="#3F2B56" stroke-linecap="round" stroke-linejoin="round" stroke-width="1.33" d="m145.18 102.14-9.15 14.36a1.13 1.13 0 0 0 1.06 1.73l9.98-.96m11.26-17.02-6.65 15 8.76-2.04m3.06-.7 3.24-.76 3.41-2.79c4.2 1.09 6.87 7 6.87 7s-1.5 1.08-2.25 1.08-3.41-1.04-3.41-1.04l-6.4.97"/><path stroke="#3F2B56" stroke-linecap="round" stroke-linejoin="round" stroke-width="1.33" d="m155.25 102.14-8.53 15.78a1.13 1.13 0 0 0 1.16 1.65l11.6-1.77"/><path fill="#E1557A" stroke="#3F2B56" stroke-linecap="round" stroke-linejoin="round" stroke-width="1.33" d="M166.24 111.87a6.87 6.87 0 0 0-2.14-2.1l-.6 2.73 2.74-.63Zm-4.85-3.44c-.77-.29-1.3-.42-1.3-.42l-2.84 3.5-2.58.53s1.15.82 1.39 2.2l4.38-1.03.95-4.78Z"/><path fill="#E1557A" stroke="#3F2B56" stroke-linecap="round" stroke-linejoin="round" stroke-width="1.33" d="M174.77 117.04c.75 0 2.25-1.09 2.25-1.09s-2.67-5.9-6.87-6.99l-3.41 2.8-1.9.43s1.87 1.53 2.14 4.47l4.38-.66s2.66 1.04 3.4 1.04Z"/><path stroke="#3F2B56" stroke-linecap="round" stroke-linejoin="round" stroke-width="1.33" d="m154.1 114.69.57 3.84m-11.92-4.26v3.42M69.8 49.73l-3.65 16.02-36.53-2.21 9.1-31.14 2.27-7.73 33.23 5.64-1.52 6.65m-35.7-6.74s-4.25 4.86-5.12 7.12c0 0 1.48 1.12 2.56 1.38"/><path stroke="#3F2B56" stroke-linecap="round" stroke-linejoin="round" stroke-width="1.33" d="M68.1 29.28s7.15-3.82 5.24-7.12c-2.56-4.42-25.44 1.82-25.44 1.82"/><path stroke="#3F2B56" stroke-linecap="round" stroke-linejoin="round" stroke-width="1.33" d="M48.23 20.87c.38-1.2 1.03-3 1.6-3.22.87-.35 6.8-1.3 6.8-1.3s1.35 2.37 1.66 5.3m15.05.51c-1.38-2.38-8.64-1.67-15.05-.5"/><path fill="#3F2B56" stroke="#3F2B56" stroke-linecap="round" stroke-linejoin="round" stroke-width="1.33" d="M58.29 21.66a138 138 0 0 0-10.39 2.33s4.01-2.88 10.13-3.88c.1.49.2 1 .26 1.55Z"/><path stroke="#3F2B56" stroke-linecap="round" stroke-linejoin="round" stroke-width="1.33" d="m45.29 45.89 8.6 2.83m-6.19-7.16 7.45 5.04m3.55-.29s.21 3.13-2.41 4.9"/><path stroke="#3F2B56" stroke-linecap="round" stroke-linejoin="round" stroke-width="1.33" d="m35.39 43.79 21.07 15.15L70.24 43.7l.85-3.48 3.12-1.48 3.15.41 1.71 2.76-.66 5.4-2.21 1.46.25-2.13-4.34.68L56.92 63.2 37.58 48.05m30.51 22.13 2.67-1.65 1.1 5.12-2.11.67-1.66-4.14Zm4.12-.06-.76 7.67h3.6l1.4-7.32-4.24-.35Zm-.55 5.5h3.8m-3.51-2.88 4.03.18M72.7 53.94l-1.65-2.33M73.95 68l5.76-4.17-4.53-6.4"/><path stroke="#3F2B56" stroke-linecap="round" stroke-linejoin="round" stroke-width="1.33" d="m77.22 56.45 5.01 6.4a1.76 1.76 0 0 1-.18 2.37l-5.6 5.25m-4.5-20.75 1.13 1.44"/><path fill="#3F2B56" d="m40.98 24.68-2.26 7.73 33.97 4.56 1.52-6.65-33.23-5.64Zm3.75 5.35c-.72.83-1.83 1.05-2.5.48-.65-.57-.61-1.7.1-2.53.7-.83 1.82-1.05 2.48-.48.67.57.63 1.7-.08 2.53Zm5.53.74c-.71.83-1.83 1.05-2.49.48-.66-.57-.62-1.7.09-2.53.71-.83 1.83-1.05 2.49-.48.66.57.62 1.7-.09 2.53Zm5.64 1.08c-.71.83-1.82 1.05-2.49.48-.66-.57-.62-1.7.1-2.53.7-.83 1.82-1.04 2.48-.48.66.57.62 1.7-.09 2.53Z"/><path stroke="#3F2B56" stroke-linecap="round" stroke-linejoin="round" stroke-width="1.33" d="m45.29 78.3 6.14-10.6m133.42-15.28 11.25 1.23 6.98-31.2-36.6-3.38m2.11 31.57 8.07.88m1.78-16.9.32 4.01m4.33-4.23 9.41-2m-8.98 4.96 9.72-.31"/><path stroke="#3F2B56" stroke-linecap="round" stroke-linejoin="round" stroke-width="1.33" d="m198.8 41.6-17.72 13.74-14.1-12.16"/><path stroke="#3F2B56" stroke-linecap="round" stroke-linejoin="round" stroke-width="1.33" d="m165.88 37.52 15.4 13.66 14.24-9.86m-12 15.49-.79 26.3m2.93-28.4v32.56M175 51.34l-.13 19.08-1.9-3.47V51.12"/><path fill="#3F2B56" d="M170.75 23.89c-.57.86-1.63 1.16-2.37.67-.75-.48-.9-1.58-.33-2.44.57-.86 1.63-1.16 2.37-.67.74.49.89 1.58.33 2.44Zm4.98.37c-.56.86-1.62 1.17-2.37.68-.74-.49-.89-1.58-.32-2.44.56-.86 1.62-1.16 2.36-.68.75.5.9 1.58.33 2.44Zm5.12.41c-.56.86-1.62 1.16-2.36.68-.75-.5-.9-1.58-.33-2.44.56-.86 1.62-1.17 2.37-.68.74.49.89 1.58.32 2.44Zm-14.36-5.6-.61 7.61 35.63 2.8 1.57-7.03-36.6-3.38Z"/><path stroke="#3F2B56" stroke-linecap="round" stroke-linejoin="round" stroke-width="1.33" d="M141.73 55.35s0 1.78-3.97 1.54m28.73-37.82L165.3 34.4"/></g><defs><clipPath id="a"><path fill="#fff" d="M0 0h219.27v133.92H0z"/></clipPath></defs></svg>
