<svg xmlns="http://www.w3.org/2000/svg" xml:space="preserve" id="artwork" x="0" y="0" style="enable-background:new 0 0 503.8 137" version="1.1" viewBox="0 0 503.8 137"><style>.st5{fill:#ecb532}.st6,.st7,.st8{fill:#ecb532;stroke:#241c2a;stroke-width:1.2315;stroke-miterlimit:10}.st7,.st8{stroke-width:.8535}.st8{stroke-width:.574}</style><path id="path1354_00000060733856725594700090000014922069114286697150_" d="M210.4 40c2.4 5.6 9.6 2.4 12.4-2.4 1.6-2.8-1.9-8.9-8.4-7.6-6 1.2-5 7.7-4 10z" class="st5"/><path id="path1308_00000027598041444420052300000009781389906471942840_" d="m212.8 37.2-4.9-8.5 8.6 5.2 8.5-6.3-5.2 8.8 4.3 7.4-8.3-3.8-7.4 5.4 4.4-8.2z" class="st6"/><path id="path1354_00000129172527248087049180000012469052716489563563_" d="M93.9 72c2.4 5.6 9.6 2.4 12.4-2.4 1.6-2.8-1.9-8.9-8.4-7.6-6 1.2-5 7.7-4 10z" class="st5"/><path id="path1308_00000176731140235491083400000015611136898858217897_" d="m98.1 71.6-9.7-1.9 9.5-3 .9-10.6 3.2 9.7 8.4 1.7-8.4 3.7-.9 9.1-3-8.7z" class="st6"/><path id="path1354_00000031199570079352426920000009667391879155708824_" d="M159.9 105.3c3.4 2.5 6.6-1.9 6.6-5.8 0-2.3-4.3-4.7-7.7-1.6-3.2 2.8-.3 6.3 1.1 7.4z" class="st5"/><path id="path1308_00000109712108518195746710000012816888015187906999_" d="m160.3 102.7-5.9-3.4 6.9.1 2.9-6.8v7.1l5.1 2.9-6.3.6-2.6 5.8-.1-6.3z" class="st7"/><path id="path1354_00000123420359248429556810000015310881173662963594_" d="M27.2 85c-3.2 2.7.4 6.8 4.1 7.7 2.2.5 5.5-3.1 3.3-7.1-2-3.7-6.1-1.7-7.4-.6z" class="st5"/><path id="path1308_00000018223261582881702120000017182539352320432052_" d="m29.6 86 4.6-5-1.7 6.7 5.9 4.4-6.9-1.6-4 4.3.8-6.3-5.1-3.8 6.4 1.3z" class="st7"/><path id="path1354_00000160887529098658026950000012027693219014720437_" d="M223 112.5c-2.8.3-2.4 3.9-.6 5.8 1 1.1 4.2.4 4.5-2.7.3-2.8-2.8-3.2-3.9-3.1z" class="st5"/><path id="path1308_00000136413107260489120090000008401200177222708098_" d="m223.9 114 4.5-1-3.5 3.1 1.6 4.7-3.2-3.5-3.9.9 2.8-3.2-1.4-4.1 3.1 3.1z" class="st8"/><path id="path1308_00000065068692011164462800000018237052881053061047_" d="m111.1 123.8 4.5-1-3.5 3.1 1.6 4.7-3.2-3.5-3.9.9 2.8-3.2-1.4-4.1 3.1 3.1z" class="st8"/></svg>
