<svg xmlns="http://www.w3.org/2000/svg" viewBox="0 0 272 129">
  <defs>
    <style>
      .cls-12,.cls-15,.cls-2,.cls-4,.cls-5,.cls-6,.cls-7{stroke-width:0}.cls-2{fill:#efe4ef}.cls-4{fill:#8e4991}.cls-16{stroke:#af6cad;stroke-width:.2px}.cls-16,.cls-17,.cls-18{fill:none;stroke-linecap:round;stroke-linejoin:round}.cls-5{fill:#ebb432}.cls-17{stroke-width:.3px}.cls-17,.cls-18,.cls-19{stroke:#241c2a}.cls-19,.cls-6{fill:#ecb532}.cls-7{fill:#ad6caa}.cls-18,.cls-19{stroke-width:.6px}.cls-12{fill:#e1557a}.cls-19{stroke-miterlimit:10}.cls-15{fill:#241c2a}
    </style>
  </defs>
  <path id="background" d="M265.7 129 24.1 129 37.5 40.5 250.4 6.1 265.7 129z" style="fill:#f7b2b2;stroke-width:0"/>
  <g id="subject">
    <path d="M212.1 129c-.1-2.5-.2-4-.2-4l1.6-28.9-1.2-.2-3.8 28.1c-.1.8-.2 1.6-.2 2.4v2.7s3.8 0 3.8 0ZM192.5 129h4c-.9-4.8-1.6-8.5-1.6-8.5l.7-5.5c-.6.2-1 .2-1.1.2-.4 0-1.2 0-2.1-.1l-.9 4.2c-.1.5-.1 1.1 0 1.7l1.1 7.9Z" class="cls-4"/>
    <path d="M173.4,77.6c0,1.2-1.1,2.2-2.3,2.3l-94.8,5.6c-1.9.1-3.5-1.3-3.7-3.2l-4.9-63.5-.7-8.9c-.2-2.4,1.7-4.6,4.1-4.7L175.9,1.1c1.6,0,2.9,1.3,2.8,2.9l-.7,9.4-4.7,64.3Z" style="fill:#f6f6f8;stroke-width:0"/>
    <path d="M72.4,12.1c-.4-2.1,1.3-3,1.9-3.2s2.7-.3,3.5,1.5-.3,3.6-2.4,3.9-2.9-1.2-3.1-2.2Z" class="cls-12"/>
    <path d="M86.1,8c1.8-.1,3.2,1.6,3,3.1s-1.3,2.8-3.1,2.8-2.9-1.3-3.1-2.7,1.3-3.1,3.1-3.2Z" class="cls-5"/>
    <path d="M94.1,10.9c-.2-2.3,1.7-3.5,2.9-3.6s3.6.7,3.6,3-1.1,2.8-3.2,3-3.1-1-3.2-2.4Z" class="cls-7"/>
    <path d="m174.5 62.4-1.1 15.3c0 1.2-1.1 2.2-2.3 2.3l-94.8 5.6c-1.9.1-3.5-1.3-3.7-3.2l-3.7-47.7M68.7 32.3l-1-13.5-.7-8.9c-.2-2.4 1.7-4.6 4.1-4.7L175.9 1.1c1.6 0 2.9 1.3 2.8 2.9l-.7 9.4-3.2 44.9" class="cls-18"/>
    <path d="M72.1 12.2c-.4-2.3 1.4-3.4 2.1-3.6s3-.3 3.9 1.7-.3 3.9-2.6 4.3-3.2-1.3-3.4-2.4ZM74 13 76.3 10M73.8 10.3 76 12.8M86.1 8c1.8-.1 3.2 1.6 3 3.1s-1.3 2.8-3.1 2.8-2.9-1.3-3.1-2.7 1.3-3.1 3.1-3.2ZM84.6 11 87.8 10.8M94.1 10.9c-.2-2.3 1.7-3.5 2.9-3.6s3.6.7 3.6 3-1.1 2.8-3.2 3-3.1-1-3.2-2.4ZM95.7 10.4 99.3 10.1M97.5 8.7 97.5 12" class="cls-18"/>
    <path d="M178.1,13.3l.7-9.4c.1-1.6-1.2-3-2.8-2.9l-104.8,4.2c-2.5,0-4.3,2.2-4.1,4.7l.7,8.9,110.4-5.5ZM75.5,14.5c-2.1.3-3.2-1.3-3.4-2.4-.4-2.3,1.4-3.4,2.1-3.6,1-.3,3-.3,3.9,1.7.6,1.2-.3,3.9-2.6,4.3ZM89.1,11.1c-.2,1.4-1.3,2.8-3.1,2.8s-2.9-1.3-3.1-2.7c-.1-1.5,1.3-3.1,3.1-3.2,1.8-.1,3.2,1.6,3,3.1ZM97.4,13.3c-1.9.2-3.1-1-3.2-2.4-.2-2.3,1.7-3.5,2.9-3.6,1.5-.2,3.6.7,3.6,3,0,1.2-1.1,2.8-3.2,3Z" class="cls-15"/>
    <path d="M67.7,18.8l-.7-8.9c-.2-2.4,1.7-4.6,4.1-4.7L175.9,1.1c1.6,0,2.9,1.3,2.8,2.9l-.7,9.4-110.4,5.5Z" class="cls-18"/>
    <path d="M123.6 49.1 123.6 49.1 123.6 49.1 123.6 49.1z" class="cls-17"/>
    <path d="M123.6,49.1l8.6-26.4c-2.7-.9-5.6-1.4-8.6-1.4s-5.9.5-8.6,1.4l8.6,26.4h0Z" style="fill:#df5128;stroke-width:0"/>
    <path d="M101.2,32.8c-3.3,4.6-5.3,10.2-5.3,16.3h27.8l-22.5-16.3Z" style="fill:#c83852;stroke-width:0"/>
    <path d="M123.6,49.1h27.8c0-6.1-2-11.7-5.3-16.3l-22.5,16.3h0Z" style="fill:#d38f07;stroke-width:0"/>
    <path d="M123.6,49.1l-22.5,16.3c3.4,4.7,8.3,8.3,13.9,10.1l8.6-26.4h0Z" class="cls-4"/>
    <path d="M132.2,75.6c5.6-1.8,10.5-5.4,13.9-10.1l-22.5-16.3,8.6,26.4Z" style="fill:#79628c;stroke-width:0"/>
    <path d="M123.6 49.1 123.6 49.1 123.6 49.1 123.6 49.1zM123.6 49.1 123.6 49.1 123.6 49.1 123.6 49.1zM123.6 49.1 123.6 49.1 123.6 49.1 123.6 49.1z" class="cls-17"/>
    <path d="M146.1,32.8c-3.4-4.7-8.3-8.3-13.9-10.1l-8.6,26.4,22.5-16.3Z" class="cls-5"/>
    <path d="M123.6,49.1h0l22.5,16.3c3.3-4.6,5.3-10.2,5.3-16.3h-27.8Z" style="stroke-width:0;fill:#b39ed3"/>
    <path d="M123.6,49.1l-8.6,26.4c2.7.9,5.6,1.4,8.6,1.4s5.9-.5,8.6-1.4l-8.6-26.4h0Z" class="cls-7"/>
    <path d="M95.9,49.1c0,6.1,2,11.7,5.3,16.3l22.5-16.3h-27.8Z" class="cls-12"/>
    <path d="M123.6,49.1l-8.6-26.4c-5.6,1.8-10.5,5.4-13.9,10.1l22.5,16.3h0Z" style="fill:#f58452;stroke-width:0"/>
    <circle cx="123.6" cy="49.1" r="27.8" class="cls-18"/>
    <path d="M93.9 49.1 153.4 49.1M147.7 31.6 99.5 66.7M114.4 77.5 132.9 20.8M114.4 20.8 132.9 77.5M147.7 66.7 99.5 31.6M98.9 36.5 97.1 35.6M150.2 62.7 148.4 61.8M97.2 40.6 95.3 39.9M152 58.4 150.1 57.7M96.2 44.8 94.2 44.5M153.1 53.8 151.1 53.5M96.2 53.5 94.2 53.8M153.1 44.5 151.1 44.8M97.2 57.7 95.3 58.4M152 39.9 150.1 40.6M98.9 61.8 97.1 62.7M150.2 35.6 148.4 36.5M104 68.8 102.6 70.2M144.7 28.1 143.3 29.5M107.3 71.6 106.1 73.2M141.2 25 140 26.7M111 73.9 110.1 75.7M137.2 22.6 136.3 24.4M119.3 76.6 119 78.6M128.3 19.7 128 21.7M123.6 76.9 123.6 78.9" class="cls-18"/>
    <path d="M123.6 19.3 123.6 21.4" class="cls-17"/>
    <path d="M128 76.6 128.3 78.6M119 19.7 119.3 21.7M136.3 73.9 137.2 75.7M110.1 22.6 111 24.4M140 71.6 141.2 73.2M106.1 25 107.3 26.7M143.3 68.8 144.7 70.2M102.6 28.1 104 29.5" class="cls-18"/>
    <path d="M190.9,67.3l-24.8-10.2-16.6-26.3c0-.1-.2-.3-.4-.3-.9-.4-4.4-1.9-4.8-2-.4,0-1.7,0-2.2,0,1.1,1,2.1,2,3,3.1-.9-.4-1.7-1.1-1.8-1.1-.2,0-1,1-1,1,0,0,.3.9.9,1.8.6.9,2.2,1.5,3,2,.9.5,1.2,2.4,1.7,3.4.3.7.9.9,1.2.9,0,0,.2,0,.6,0,.2.6.4,1.1.6,1.7l12.6,17.9c.2.3.5.6.9.7l26.5,9c.4.2.9,0,1.1-.6s-.1-.8-.5-1Z" class="cls-7"/>
    <path d="M190.9,67.3l-24.8-10.2-16.6-26.3c0-.1-.2-.3-.4-.3-.9-.4-4.4-1.9-4.8-2-.4,0-1.7,0-2.2,0,1.1,1,2.1,2,3,3.1-.9-.4-1.7-1.1-1.8-1.1-.2,0-1,1-1,1,0,0,.3.9.9,1.8.6.9,2.2,1.5,3,2,.9.5,1.2,2.4,1.7,3.4.3.7.9.9,1.2.9,0,0,.2,0,.6,0,.2.6.4,1.1.6,1.7l12.6,17.9c.2.3.5.6.9.7l26.5,9c.4.2.9,0,1.1-.6s-.1-.8-.5-1Z" class="cls-18"/>
    <path d="M149.1,33.5s-.9-1-1.3-1.3-1.1-.3-2.2-.5-.4-.1-.6-.2" class="cls-18"/>
    <path d="M123.6,20.8l-2.1-9.3c-.2-1.1.6-2.1,1.7-2.1h0c1.1,0,1.9.9,1.7,2l-1.3,9.5Z" class="cls-12"/>
    <path d="M123.6,20.8l-2.1-9.3c-.2-1.1.6-2.1,1.7-2.1h0c1.1,0,1.9.9,1.7,2l-1.3,9.5Z" class="cls-18"/>
    <path d="M204.7 94.2c1.5-19.1-5.2-33.5-5.2-33.5l6.3-8.3 5 38.2-3.4-.8.3 4.3-3 .2ZM191.7 91.3l1.9-4.9c-.3-9.1-3-14.1-3-14.1l-2.7 3.3s2.4 6.2 1.6 15.6h2.2Z" class="cls-4"/>
    <path d="M194.4 84.5s-.6-1.1-.2-2.5 1.7-2 2.7-1.5 1.1 1.8.8 2.6c-.5 1.6-1.9 2.1-1.9 2.1l-1.5-.6ZM213.9 50.8c-.4 0-.7 0-.7 0l1.4 3.4-2.2 1.4-.7-5.3s.5-1.3 0-2.3c-1.2-2-3.5-4-5.6-1.4 0 0-4.2-2-4.5-2.9s-1.5-5.3.8-9.1c2.3-3.8 7.4-3.9 8.3-3.5s4 2.8 4.5 3.5 1.4 3.8 1.4 3.8c0 0-.5-.6-2.4-1 0 0 2.1 1 2.4 3 0 0 3.4.9 4.1 3.9s-1 4.3-2.7 5.4-3.1 1-4 1.1" class="cls-15"/>
    <path d="M194.5,104.9c.2.3.4.6.5.7.3.4.5,3.4.5,3.4l.8-.2,2-15.9-1.3-.3-2.6,12.2Z" class="cls-4"/>
    <path d="M193.7,86.4c-.3-9.1-3-14.1-3-14.1l-2.7,3.3s2.4,6.2,1.6,15.6l-12.7-2.6c-1.6-.3-2.3-2.3-1.3-3.6l4.8-6.1h0c1.3,1,2.4,2.5,2.4,2.5l-2.9,3.6,6,1.2c0-7.8-2.6-10.8-2.6-10.8h0s9.1-11.5,9.1-11.5c0,0,3.3,6.9,4.6,16.5-1-.5-2.3.1-2.7,1.6s.2,2.5.2,2.5l-.7,1.9" class="cls-7"/>
    <path d="M208.7,45.4c1.1,6.4,6.3,46.9,6.3,46.9,0,0,.6,3.6-1.1,3.8h-.2s0,0,0,0l-6.2-1.3-.4-5.1,3.4.8-5-38.2-6.3,8.3s6.7,14.4,5.2,33.5h0s-11.1-2.3-11.1-2.3c0-.2,0-.3,0-.5l2.4-6.3s.8-.3,1.4-1.1c.1,1.4.2,2.8.2,4.2l3.8.9c.2-15-6.1-28.7-6.1-28.7l10.9-13.8c.9-1.1,1.8-1.4,2.7-1.2Z" class="cls-7"/>
    <path d="M180.4 78.9c1.3 1 2.4 2.5 2.4 2.5l-2.9 3.6 6 1.2c0-3.2-.4-5.6-.9-7.3h-4.5ZM197.3 84c.1 1.4.2 2.8.2 4.2l3.8.9c.1-9.7-2.5-18.9-4.3-24.1l-4.6-1.1s3.3 6.9 4.6 16.5c1 .5 1.1 1.8.8 2.6s-.3.7-.5 1" class="cls-4"/>
    <path d="M235.3,94.7l-9.5.6.8,4.9.7,4.1c.1.8-.3,1.5-1.1,1.8-6,1.8-30.5,9.2-31.8,9.2-1.5,0-7.8-.8-8.7-1.4-.9-.6-3.6-3.2-4.5-4.2-.9-1-1.1-1.2-.9-1.6s1.3-.5,1.7-.4c.6.2,1.7,1.4,2.4,1.8.6.4,2,1,2,1l-2.5-4.7c-.1-.2,0-.4,0-.6l1.6-2.4c-.3-.7-.6-1.2-.6-1.2,0-.2.8-1.2,1.2-2,.4-.9.2-1.7.2-1.7l.9-.4s1.1.5,1.3,1.4c.2.9-.3,2.2-.3,2.2l1,1.8,2.2-5.8c.9,0,1.5.5,1.5.5-.1.8-.7,4.3-.2,4.9.4.6,2.1,2.6,2.4,3.1.3.4.5,3.4.5,3.4l27.9-6.1-.5-6.1v-1.3c0,0-1.3,0-1.3,0l-7.6.5c1.7-.2,1.1-3.8,1.1-3.8,0,0-.2-1.2-.4-3.2-1.3-9.7-5-38.4-5.9-43.7,1.2.3,2.3,1.4,3,2.6.6,1,0,2.3,0,2.3l.7,5.3,2.2-1.4-1.4-3.4s.3,0,.7,0l23.4,40.2c1,1.6-.1,3.7-2,3.8Z" class="cls-4"/>
    <path d="m189.3 103-1-1.8s.4-1.1.4-1.9l3.2-8 2.7-6.8 1.5.6-2.4 6.3-4.3 11.5ZM185.3 113.6c-.5-.4-1.1-.9-1.7-1.5l-2.3 5.8s0 .6.9.9 1.3 0 1.3 0l1.9-5.1ZM184.5 109.7c.7.4 1.8.9 1.8.9l-1.3-2.4-.6 1.5Z" class="cls-2"/>
    <path d="M226.3,106.1c-6,1.8-30.5,9.2-31.8,9.2-1.5,0-7.8-.8-8.7-1.4-.9-.6-3.6-3.2-4.5-4.2-.9-1-1.1-1.2-.9-1.6s1.3-.5,1.7-.4c.6.2,1.7,1.4,2.4,1.8.6.4,2,1,2,1l-2.5-4.7c-.1-.2,0-.4,0-.6l1.6-2.4c-.3-.7-.6-1.2-.6-1.2,0-.2.8-1.2,1.2-2,.4-.9.2-1.7.2-1.7l.9-.4s1.1.5,1.3,1.4c.2.9-.3,2.2-.3,2.2l1,1.8,2.2-5.8c.9,0,1.5.5,1.5.5-.1.8-.7,4.3-.2,4.9.4.6,2.1,2.6,2.4,3.1.3.4.5,3.4.5,3.4l27.9-6.1-.5-6.1,3.7,3.4.7,4.1c.1.8-.3,1.5-1.1,1.8Z" class="cls-7"/>
    <path d="m221.4 75.9 2 27-27.9 6.1s-.2-2.9-.5-3.4-1.9-2.5-2.4-3.1 0-4.2.2-4.9c0 0-.5-.4-1.5-.5l-2.2 5.8-1-1.8s.5-1.3.3-2.2-1.3-1.4-1.3-1.4l-.9.4s.1.9-.2 1.7-1.2 1.8-1.2 2 2.3 4.4 2.3 4.4M189.3 103 190.3 104.4" class="cls-18"/>
    <path d="m185.5 103-1.6 2.4c-.1.2-.1.4 0 .6l2.5 4.7s-1.4-.6-2-1-1.8-1.6-2.4-1.8-1.5 0-1.7.4 0 .6.9 1.6 3.6 3.5 4.5 4.2 7.1 1.4 8.7 1.4 25.8-7.4 31.8-9.2 1.2-1 1.1-1.8l-4.8-27.9M197.3 84c.1 1.4.2 2.8.2 4.2l3.8.9c.2-15-6.1-28.7-6.1-28.7" class="cls-18"/>
    <path d="M193.5,84.1c-.6-7.7-2.9-11.8-2.9-11.8l-2.7,3.3s2.4,6.2,1.6,15.6l-12.7-2.6c-1.6-.3-2.3-2.3-1.3-3.6l4.8-6.1h0c1.3,1,2.4,2.5,2.4,2.5l-2.9,3.6,6,1.2c0-7.8-2.6-10.8-2.6-10.8h0s9.1-11.5,9.1-11.5c0,0,3.3,6.9,4.6,16.5" class="cls-18"/>
    <path d="M208.7 45.4c1.1 6.4 6.3 46.9 6.3 46.9 0 0 .6 3.6-1.1 3.8h-.2s0 0 0 0l-6.2-1.3-.4-5.1 3.4.8-5-38.2-6.3 8.3s6.7 14.4 5.2 33.5h0s-11.1-2.3-11.1-2.3c0-.2 0-.3 0-.5M214.6 51.9l22.8 39c1 1.6-.1 3.7-2 3.8l-9.5.6" class="cls-18"/>
    <path d="M207.6 94.1 207.7 94.8 213.9 96.1 213.9 96.1 214 96.1 222.8 95.5M193.6 91.5c0 .2 0 .3 0 .5l11.1 2.3h2M183.4 79h-3s-4.8 6-4.8 6c-1 1.3-.3 3.2 1.3 3.6l12.7 2.6h2.2M205 48l-9.9 12.5s.8 1.7 1.8 4.6l-4.6-1.1-9.1 11.5h0s1 1 1.7 3.5M183.6 112.1l-2.3 5.8s0 .6.9.9 1.3 0 1.3 0l1.9-5.1M185 108.3 184.5 109.7" class="cls-18"/>
    <path d="M189.1 98 194.4 84.5 195.9 85.1 189.3 103" class="cls-18"/>
    <path d="M194.4 84.5s-.6-1.1-.2-2.5 1.7-2 2.7-1.5 1.1 1.8.8 2.6c-.5 1.6-1.9 2.1-1.9 2.1l-1.5-.6ZM206.1 46.6s-4.2-2-4.5-2.9-1.5-5.3.8-9.1c2.3-3.8 7.4-3.9 8.3-3.5s4 2.8 4.5 3.5 1.4 3.8 1.4 3.8c0 0-.5-.6-2.4-1 0 0 2.1 1 2.4 3 0 0 3.4.9 4.1 3.9s-1 4.3-2.7 5.4-4.7 1.1-4.7 1.1l1.4 3.4-2.2 1.4-.7-5.3s.5-1.3 0-2.3c-1.2-2-3.5-4-5.6-1.4Z" class="cls-18"/>
    <path d="M209.2 33.3c.8-.3 1.6-.3 2.4-.2M206.3 42.1c-.8-.6-1.5-1.4-1.4-2.1.2-1.2.5-3.8 2.6-5.6M209.1 45.1s0-1.1.6-2.2 2.5-2.6 5.5-2.6M210.5 44.6c.6-.2 1.5-.5 2.7-.3 1.7.2 3 .9 3.9 2.2M211.1 45.7c.9-.1 2.6 0 4.1 1.3M213.2 47.7s.9.3 1.6 1.1" class="cls-16"/>
    <path d="M205.6,33.7s-3.9,3.7-2.7,8,1,1,2,1.5" class="cls-16"/>
    <path d="M207.3 89.7 210.7 89.7M213 105.2 213.5 96 212.4 95.8 211 105.6M212.1 129c-.1-2.5-.2-4-.2-4l.8-14.8M210.1 112.3l-1.6 11.6c-.1.8-.2 1.6-.2 2.4v2.7M192.5 129l-1.1-7.9c0-.6 0-1.1 0-1.7l.9-4.2M195.4 116.4l-.5 4.1s.7 3.7 1.6 8.5M194.8 103.4 197.1 92.7 198.4 93 196.4 108.8M182.7 114.1s.8.8 2 .9" class="cls-18"/>
    <path d="M190.3 104.4 189.6 102.1 189.3 103 190.3 104.4zM186.9 105.6 185.1 103.5 185.5 103 186.9 105.6zM188.6 101.8l-.4-.6s.1-.3.2-.7l.2 1.3ZM184.8 109 185.8 109.7 185 108.3 184.8 109zM183.6 112.1c.6.6 1.3 1.1 1.7 1.5v.3c-.1 0-1.4-.8-1.9-1.5l.2-.4ZM212.4 95.8 213.5 96 213.5 97.3 212.2 97.1 212.4 95.8zM198.4 93 198.2 94.2 196.8 94 197.1 92.7 198.4 93z" class="cls-15"/>
    <path d="M208.1 40.7c-.2-.6-.4-1.3-.2-2.1.5-2 1.2-2.7 1.2-2.7M209.5 40c0-.4 0-.8.2-1.3M211.9 42.3c.5-.1 1.3-.3 2.2-.2" class="cls-16"/>
    <path d="M225.8 95.3 225.1 91.5 226.5 95.3 225.8 95.3z" class="cls-15"/>
    <path d="M182.1,118.7s-1,4.2-1,10.3" class="cls-18"/>
    <path d="M113.2 129 110.4 83.5 108 83.6 108.4 129 113.2 129zM138.2 129 138.2 81.9 135.7 82 133.1 129 138.2 129z" class="cls-15"/>
    <path d="M113.2 129 110.4 83.5 108 83.6 108.4 129 113.2 129zM138.2 129 138.2 81.9 135.7 82 133.1 129 138.2 129z" class="cls-18"/>
  </g>
  <g id="stars">
    <path id="path1308" d="M256,40.2l-5.7-1.1,5.6-1.8.5-6.2,1.9,5.7,4.9,1-4.9,2.2-.5,5.4-1.8-5.1Z" class="cls-19"/>
    <path id="path1354" d="M43.7,10.3c-2.6,2.2.3,5.5,3.3,6.2,1.8.4,4.4-2.5,2.7-5.7-1.6-3-4.9-1.4-6-.5h0Z" class="cls-6"/>
    <path id="path1308-2" d="M45.6,11.2l3.8-4-1.4,5.4,4.8,3.5-5.5-1.3-3.3,3.5.7-5.1-4.1-3.1,5.1,1.1Z" class="cls-19" data-name="path1308"/>
    <path id="path1308-3" d="M7.3,92.5l4.1-.9-3.2,2.9,1.5,4.3-3-3.3-3.6.8,2.6-2.9-1.3-3.7,2.8,2.9Z" class="cls-19" data-name="path1308"/>
    <path id="path1354-2" d="M82,116c3.1,2.3,6.1-1.8,6.1-5.3,0-2.1-3.9-4.3-7.1-1.5-2.9,2.6-.3,5.9,1,6.8h0Z" class="cls-6" data-name="path1354"/>
    <path id="path1308-4" d="M82.4,113.7l-5.5-3.1h6.4c0,0,2.7-6.2,2.7-6.2v6.5s4.7,2.7,4.7,2.7l-5.8.6-2.4,5.4v-5.9Z" class="cls-19" data-name="path1308"/>
  </g>
</svg>
