<svg xmlns="http://www.w3.org/2000/svg" viewBox="0 0 400 166">
  <defs>
    <style>
      .cls-12,.cls-15,.cls-4,.cls-5,.cls-6,.cls-7{stroke-width:0}.cls-4{fill:#8e4991}.cls-16{stroke:#af6cad;stroke-width:.2px}.cls-16,.cls-17,.cls-18{fill:none;stroke-linecap:round;stroke-linejoin:round}.cls-5{fill:#ebb432}.cls-17{stroke-width:.3px}.cls-17,.cls-18,.cls-19{stroke:#241c2a}.cls-19,.cls-6{fill:#ecb532}.cls-7{fill:#ad6caa}.cls-18,.cls-19{stroke-width:.6px}.cls-12{fill:#e1557a}.cls-19{stroke-miterlimit:10}.cls-15{fill:#241c2a}
    </style>
  </defs>
  <path id="background" d="M353 166H58L74.4 58l260-42L353 166z" style="fill:#f7b2b2;stroke-width:0"/>
  <g id="subject">
    <path d="M299.8 166c-.1-3-.2-4.9-.2-4.9l1.9-35.3-1.4-.3-4.6 34.3c-.1 1-.2 1.9-.2 2.9v3.3h4.6Zm-24 0h4.8c-1.1-5.9-2-10.3-2-10.3l.9-6.7c-.7.2-1.2.3-1.4.3-.5 0-1.4 0-2.5-.2l-1.1 5.2c-.1.7-.2 1.4 0 2l1.4 9.7Z" class="cls-4"/>
    <path d="M252.5 103.3c-.1 1.5-1.3 2.7-2.8 2.8L133.9 113c-2.3.1-4.3-1.6-4.5-3.9l-6-77.5-.8-10.9c-.2-3 2.1-5.6 5.1-5.7l127.9-5.1c2 0 3.6 1.6 3.4 3.5l-.8 11.4-5.7 78.5Z" style="fill:#f6f6f8;stroke-width:0"/>
    <path d="M128.9 23.4c-.5-2.9 1.7-4.1 2.6-4.3s3.6-.4 4.7 2c.7 1.5-.4 4.8-3.2 5.2-2.6.4-3.9-1.6-4.1-2.9Z" class="cls-12"/>
    <path d="M145.9 18.2c2.2-.1 3.9 1.9 3.7 3.8s-1.6 3.4-3.7 3.4-3.6-1.6-3.7-3.3 1.6-3.8 3.8-3.9Z" class="cls-5"/>
    <path d="M155.7 21.9c-.3-2.8 2-4.3 3.6-4.4s4.3.9 4.3 3.7-1.3 3.4-4 3.7-3.8-1.3-3.9-2.9Z" class="cls-7"/>
    <path d="m253.9 84.6-1.3 18.7c-.1 1.5-1.3 2.7-2.8 2.8L134 113c-2.3.1-4.3-1.6-4.5-3.9L125 50.8m-.3-2.9-1.3-16.4-.8-10.9c-.2-3 2.1-5.6 5.1-5.7l127.9-5.1c2 0 3.6 1.6 3.4 3.5l-.8 11.4-4 54.8" class="cls-18"/>
    <path d="M128.9 23.4c-.5-2.9 1.7-4.1 2.6-4.3s3.6-.4 4.7 2c.7 1.5-.4 4.8-3.2 5.2-2.6.4-3.9-1.6-4.1-2.9Zm2.2 1 2.9-3.7m-3.1.4 2.7 3m12.3-5.9c2.2-.1 3.9 1.9 3.7 3.8s-1.6 3.4-3.7 3.4-3.6-1.6-3.7-3.3 1.6-3.8 3.8-3.9Zm-1.8 3.9 3.9-.2m7.7 0c-.3-2.8 2-4.3 3.6-4.4s4.3.9 4.3 3.7-1.3 3.4-4 3.7-3.8-1.3-3.9-2.9Zm2-.7 4.4-.4m-2.2-1.6v4" class="cls-18"/>
    <path d="m258.2 24.8.8-11.4c.1-2-1.5-3.6-3.4-3.5L127.7 15c-3 .1-5.3 2.7-5.1 5.7l.8 10.9 134.7-6.7ZM133 26.2c-2.6.4-3.9-1.6-4.1-2.9-.5-2.9 1.7-4.1 2.6-4.3 1.2-.3 3.6-.4 4.7 2 .7 1.5-.4 4.8-3.2 5.2Zm16.6-4.1c-.2 1.8-1.6 3.4-3.7 3.4s-3.6-1.6-3.7-3.3c-.2-1.8 1.6-3.8 3.8-3.9 2.2-.1 3.9 1.9 3.7 3.8Zm10.1 2.7c-2.3.2-3.8-1.3-3.9-2.9-.3-2.8 2-4.3 3.6-4.4 1.9-.2 4.3.9 4.3 3.7 0 1.5-1.3 3.4-4 3.7Z" class="cls-15"/>
    <path d="m123.5 31.5-.8-10.9c-.2-3 2.1-5.6 5.1-5.7l127.9-5.1c2 0 3.6 1.6 3.4 3.5l-.8 11.4-134.7 6.7Z" class="cls-18"/>
    <path d="M191.8 68.5h0z" class="cls-17"/>
    <path d="m191.8 68.5 10.5-32.3c-3.3-1.1-6.8-1.7-10.5-1.7s-7.2.6-10.5 1.7l10.5 32.3Z" style="fill:#df5128;stroke-width:0"/>
    <path d="M164.3 48.6c-4.1 5.6-6.5 12.5-6.5 19.9h33.9l-27.4-19.9Z" style="fill:#c83852;stroke-width:0"/>
    <path d="M191.8 68.5h33.9c0-7.4-2.4-14.3-6.5-19.9l-27.4 19.9Z" style="fill:#d38f07;stroke-width:0"/>
    <path d="m191.8 68.5-27.4 19.9c4.2 5.7 10.1 10.1 17 12.3l10.5-32.3Z" class="cls-4"/>
    <path d="M202.2 100.8c6.9-2.2 12.8-6.6 17-12.3l-27.4-19.9 10.5 32.3Z" style="fill:#79628c;stroke-width:0"/>
    <path d="M191.8 68.5h0zm0 0h0zm0 0h0z" class="cls-17"/>
    <path d="M219.2 48.6c-4.2-5.7-10.1-10.1-17-12.3l-10.5 32.3 27.4-19.9Z" class="cls-5"/>
    <path d="m191.8 68.5 27.4 19.9c4.1-5.6 6.5-12.5 6.5-19.9h-33.9Z" style="stroke-width:0;fill:#b39ed3"/>
    <path d="m191.8 68.5-10.5 32.3c3.3 1.1 6.8 1.7 10.5 1.7s7.2-.6 10.5-1.7l-10.5-32.3Z" class="cls-7"/>
    <path d="M157.9 68.5c0 7.4 2.4 14.3 6.5 19.9l27.4-19.9h-33.9Z" class="cls-12"/>
    <path d="m191.8 68.5-10.5-32.3c-6.9 2.2-12.8 6.6-17 12.3l27.4 19.9Z" style="fill:#f58452;stroke-width:0"/>
    <circle cx="191.8" cy="68.5" r="33.9" class="cls-18"/>
    <path d="M155.4 68.5h72.7m-6.9-21.4-58.9 42.8m18.2 13.2L203 33.9m-22.5 0 22.5 69.2m18.2-13.2-58.9-42.8m-.8 6-2.2-1.1m64.9 33-2.2-1.1M159.5 58l-2.3-.7m69.2 22.4L224 79m-65.7-15.8-2.5-.4m71.9 11.4-2.5-.4m-66.9 0-2.5.4m71.9-11.4-2.4.4M159.5 79l-2.3.7m69.2-22.4-2.4.7m-62.5 25.9-2.2 1.1m64.9-33-2.2 1.1m-54.2 39.4-1.8 1.7m51.5-51.4-1.8 1.7m-43.9 51.4-1.4 2m42.7-58.8-1.4 2m-35.3 57.6-1.2 2.2m33.1-64.8-1.1 2.2M186.5 102l-.4 2.4m11.3-71.8-.3 2.4m-5.3 67.4v2.5" class="cls-18"/>
    <path d="M191.8 32.1v2.5" class="cls-17"/>
    <path d="m197.1 102 .3 2.4m-11.3-71.8.4 2.4m20.6 63.7 1.2 2.2m-33.1-64.8 1.2 2.2m35.3 57.6 1.4 2m-42.7-58.8 1.4 2m43.9 51.4 1.8 1.7M166 42.8l1.8 1.7" class="cls-18"/>
    <path d="m273.8 90.6-30.2-12.5L223.4 46c-.1-.2-.3-.3-.5-.4-1.2-.5-5.3-2.3-5.9-2.4h-2.7c1.3 1.2 2.6 2.5 3.7 3.8-1.1-.5-2.1-1.3-2.2-1.3-.2 0-1.2 1.2-1.2 1.2s.4 1.1 1.1 2.2c.7 1.1 2.7 1.8 3.7 2.5 1 .6 1.5 2.9 2.1 4.1.4.8 1.1 1 1.5 1.1h.7c.3.7.5 1.4.7 2.1l15.4 21.8c.3.4.7.7 1.1.8l32.3 11c.5.2 1.2-.1 1.3-.7s-.1-1-.6-1.2Z" class="cls-7"/>
    <path d="m273.8 90.6-30.2-12.5L223.4 46c-.1-.2-.3-.3-.5-.4-1.2-.5-5.3-2.3-5.9-2.4h-2.7c1.3 1.2 2.6 2.5 3.7 3.8-1.1-.5-2.1-1.3-2.2-1.3-.2 0-1.2 1.2-1.2 1.2s.4 1.1 1.1 2.2c.7 1.1 2.7 1.8 3.7 2.5 1 .6 1.5 2.9 2.1 4.1.4.8 1.1 1 1.5 1.1h.7c.3.7.5 1.4.7 2.1l15.4 21.8c.3.4.7.7 1.1.8l32.3 11c.5.2 1.2-.1 1.3-.7s-.1-1-.6-1.2Z" class="cls-18"/>
    <path d="M222.9 49.4s-1.1-1.2-1.6-1.6-1.3-.3-2.7-.6-.5-.1-.7-.2" class="cls-18"/>
    <path d="m191.8 33.9-2.6-11.4c-.3-1.3.7-2.6 2-2.6s2.3 1.1 2.1 2.4l-1.6 11.6Z" class="cls-12"/>
    <path d="m191.8 33.9-2.6-11.4c-.3-1.3.7-2.6 2-2.6h0c1.3 0 2.3 1.1 2.1 2.4l-1.6 11.6Z" class="cls-18"/>
    <path d="M290.7 123.6c1.8-23.4-6.4-40.9-6.4-40.9l7.7-10.1 6 46.6-4.2-1 .4 5.3-3.6.2Zm-15.8-3.7 2.3-6c-.4-11.2-3.7-17.2-3.7-17.2l-3.3 4.1s2.9 7.5 2 19h2.7Z" class="cls-4"/>
    <path d="M278.2 111.7s-.7-1.3-.2-3.1 2.1-2.5 3.3-1.9 1.3 2.2 1 3.1c-.6 2-2.3 2.6-2.3 2.6l-1.9-.8ZM302 70.5h-.8l1.7 4.2-2.7 1.7-.8-6.5s.6-1.6 0-2.8c-1.4-2.5-4.3-4.9-6.9-1.7 0 0-5.1-2.4-5.5-3.6s-1.9-6.5.9-11.1 9.1-4.7 10.2-4.3 4.9 3.5 5.5 4.3 1.7 4.7 1.7 4.7-.7-.8-3-1.3c0 0 2.5 1.2 3 3.7 0 0 4.2 1.1 5 4.7s-1.2 5.3-3.3 6.6-3.7 1.2-4.9 1.3" class="cls-15"/>
    <path d="M278.3 136.6c.3.4.5.7.6.9.3.5.6 4.1.6 4.1l1-.2L283 122l-1.6-.3-3.1 14.9Z" class="cls-4"/>
    <path d="M277.3 114c-.4-11.2-3.7-17.2-3.7-17.2l-3.3 4.1s2.9 7.5 2 19l-15.5-3.1c-2-.4-2.9-2.8-1.6-4.4l5.9-7.4c1.6 1.2 2.9 3.1 2.9 3.1l-3.6 4.4 7.3 1.4c0-9.6-3.2-13.2-3.2-13.2l11.2-14.1s4 8.4 5.6 20.2c-1.2-.6-2.8.1-3.3 1.9s.2 3.1.2 3.1l-.9 2.3" class="cls-7"/>
    <path d="M295.6 64c1.3 7.8 7.7 57.2 7.7 57.2s.7 4.4-1.3 4.6h-.2l-7.5-1.5-.5-6.2 4.2 1-6-46.6-7.7 10.1s8.2 17.6 6.4 40.9-13.6-2.8-13.6-2.8v-.6l2.9-7.7s.9-.3 1.7-1.4c.1 1.7.2 3.4.2 5.2l4.6 1.1c.2-18.3-7.5-35.1-7.5-35.1l13.4-16.8c1.1-1.3 2.2-1.7 3.2-1.5Z" class="cls-7"/>
    <path d="M261.1 104.9c1.6 1.2 2.9 3.1 2.9 3.1l-3.6 4.4 7.3 1.4c0-3.9-.5-6.8-1.1-8.9h-5.5Zm20.6 6.1c.1 1.7.2 3.4.2 5.2l4.6 1.1c.1-11.9-3-23-5.3-29.4l-5.6-1.3s4 8.5 5.6 20.2c1.2.6 1.3 2.2 1 3.1s-.4.9-.6 1.2" class="cls-4"/>
    <path d="m328.1 124.2-11.6.7 1 6 .9 5c.2.9-.4 1.9-1.3 2.1-7.3 2.2-37.2 11.2-38.9 11.3-1.8 0-9.5-.9-10.6-1.7-1.1-.8-4.4-3.9-5.5-5.1-1.1-1.2-1.3-1.5-1.2-2s1.5-.6 2-.4c.7.3 2.1 1.8 2.9 2.2.8.5 2.4 1.2 2.4 1.2l-3-5.7c-.1-.2-.1-.5 0-.7l2-2.9c-.4-.8-.7-1.4-.7-1.5 0-.2 1-1.4 1.4-2.5.5-1 .3-2.1.3-2.1l1.1-.5s1.4.6 1.6 1.7c.2 1-.4 2.7-.4 2.7l1.3 2.2 2.7-7.1c1.2 0 1.8.6 1.8.6-.2.9-.8 5.3-.3 6 .5.8 2.5 3.2 2.9 3.8.3.5.6 4.1.6 4.1l34-7.4-.6-7.5v-1.5h-1.6l-9.3.6c2-.3 1.3-4.6 1.3-4.6s-.2-1.5-.5-3.9c-1.6-11.9-6.1-46.8-7.2-53.3 1.5.3 2.8 1.7 3.6 3.2.7 1.2 0 2.8 0 2.8l.8 6.5 2.7-1.7-1.7-4.2h.8l28.6 49c1.2 2-.2 4.5-2.5 4.7Z" class="cls-4"/>
    <path d="m271.9 134.2-1.3-2.2s.5-1.3.4-2.3l3.9-9.8 3.3-8.3 1.9.8-2.9 7.7-5.3 14.1Zm-4.9 13c-.6-.5-1.3-1.1-2.1-1.9l-2.8 7.1s.1.7 1 1 1.6 0 1.6 0l2.3-6.2Zm-1-4.7c.8.5 2.2 1.1 2.2 1.1l-1.5-2.9-.7 1.8Z" style="fill:#efe4ef;stroke-width:0"/>
    <path d="M317 138c-7.3 2.2-37.2 11.2-38.9 11.3-1.8 0-9.5-.9-10.6-1.7-1.1-.8-4.4-3.9-5.5-5.1-1.1-1.2-1.3-1.5-1.2-2s1.5-.6 2-.4c.7.3 2.1 1.8 2.9 2.2.8.5 2.4 1.2 2.4 1.2l-3-5.7c-.1-.2-.1-.5 0-.7l2-2.9c-.4-.8-.7-1.4-.7-1.5 0-.2 1-1.4 1.4-2.5.5-1 .3-2.1.3-2.1l1.1-.5s1.4.6 1.6 1.7c.2 1-.4 2.7-.4 2.7l1.3 2.2 2.7-7.1c1.2 0 1.8.6 1.8.6-.2.9-.8 5.3-.3 6 .5.8 2.5 3.2 2.9 3.8.3.5.6 4.1.6 4.1l34-7.4-.6-7.5 4.5 4.2.9 5c.2.9-.4 1.9-1.3 2.1Z" class="cls-7"/>
    <path d="m311.1 101.2 2.4 33-34 7.4s-.2-3.6-.6-4.1-2.4-3-2.9-3.8.1-5.1.3-6c0 0-.6-.5-1.8-.6l-2.7 7.1-1.3-2.2s.6-1.6.4-2.7-1.6-1.7-1.6-1.7l-1.1.5s.2 1-.3 2.1-1.5 2.3-1.4 2.5 2.8 5.4 2.8 5.4m2.6-3.9 1.2 1.8" class="cls-18"/>
    <path d="m267.3 134.2-2 2.9c-.1.2-.2.5 0 .7l3 5.7s-1.7-.8-2.4-1.2-2.2-1.9-2.9-2.2-1.9 0-2 .4 0 .8 1.2 2 4.4 4.3 5.5 5.1 8.7 1.7 10.6 1.7 31.5-9.1 38.9-11.3 1.5-1.2 1.3-2.1l-5.9-34.1m-30.9 9.2c.1 1.7.2 3.4.2 5.2l4.6 1.1c.2-18.3-7.5-35.1-7.5-35.1" class="cls-18"/>
    <path d="M277.1 111.2c-.7-9.4-3.5-14.5-3.5-14.5l-3.3 4.1s2.9 7.5 2 19l-15.5-3.1c-2-.4-2.9-2.8-1.6-4.4l5.9-7.4h0c1.6 1.2 2.9 3.1 2.9 3.1l-3.6 4.4 7.3 1.4c0-9.6-3.2-13.2-3.2-13.2h0l11.2-14.1s4 8.4 5.6 20.2" class="cls-18"/>
    <path d="M295.6 64c1.3 7.8 7.7 57.2 7.7 57.2s.7 4.4-1.3 4.6h-.2s0 0 0 0l-7.5-1.5-.5-6.2 4.2 1-6-46.6-7.7 10.1s8.2 17.6 6.4 40.9h0l-13.6-2.8v-.6m25.7-48.3 27.8 47.6c1.2 2-.2 4.5-2.5 4.7l-11.6.7" class="cls-18"/>
    <path d="m294.3 123.4.1.9 7.5 1.5h.2l10.8-.7m-35.8-4.9v.6l13.6 2.8h2.5m-28.5-18.7h-3.6l-5.9 7.4c-1.3 1.6-.4 4 1.6 4.4l15.5 3.1h2.7m16.1-52.7L279 82.3s1 2.1 2.2 5.6l-5.6-1.3-11.2 14.1h0s1.2 1.3 2.1 4.3m-1.6 40.3-2.8 7.1s.1.7 1 1 1.6 0 1.6 0l2.3-6.2m-.3-6.5-.7 1.8" class="cls-18"/>
    <path d="m271.6 128.2 6.6-16.5 1.8.7-8.1 21.8" class="cls-18"/>
    <path d="M278.2 111.7s-.7-1.3-.2-3.1 2.1-2.5 3.3-1.9 1.3 2.2 1 3.1c-.6 2-2.3 2.6-2.3 2.6l-1.9-.8Zm14.2-46.3s-5.1-2.4-5.5-3.6-1.9-6.5.9-11.1 9.1-4.7 10.2-4.3 4.9 3.5 5.5 4.3 1.7 4.7 1.7 4.7-.7-.8-3-1.3c0 0 2.5 1.2 3 3.7 0 0 4.2 1.1 5 4.7s-1.2 5.3-3.3 6.6-5.7 1.3-5.7 1.3l1.7 4.2-2.7 1.7-.8-6.5s.6-1.6 0-2.8c-1.4-2.5-4.3-4.9-6.9-1.7Z" class="cls-18"/>
    <path d="M296.2 49.2c1-.4 2-.4 2.9-.3m-6.4 11c-1-.8-1.8-1.7-1.7-2.5.2-1.5.6-4.6 3.2-6.8m1.9 13s0-1.4.7-2.7 3-3.2 6.8-3.2m-5.8 5.3c.8-.3 1.9-.6 3.2-.4 2.1.2 3.7 1.1 4.8 2.7m-7.3-1c1.1-.1 3.1 0 5 1.6m-2.4.8s1.1.4 1.9 1.4" class="cls-16"/>
    <path d="M291.8 49.6s-4.8 4.5-3.2 9.8 1.3 1.3 2.4 1.8" class="cls-16"/>
    <path d="M293.9 118.1h4.1m2.9 18.8.6-11.1-1.4-.3-1.6 11.9m1.3 28.6c-.1-3-.2-4.9-.2-4.9l1-18.1m-3.2 2.6-1.9 14.1c-.1 1-.2 1.9-.2 2.9v3.3m-19.5.1-1.4-9.7v-2l1.1-5.2m3.8 1.5-.6 5s.9 4.5 2 10.3m-2.1-31.1 2.8-13.1 1.6.3-2.5 19.4m-16.6 6.4s.9.9 2.5 1.1" class="cls-18"/>
    <path d="m273.1 136-.8-2.8-.4 1 1.2 1.8zm-4.1 1.4-2.2-2.5.5-.7 1.7 3.2zm2.1-4.6-.5-.8s.1-.3.3-.8l.2 1.6Zm-4.7 8.8 1.3.9-1-1.8-.3.9zm-1.5 3.7c.8.7 1.6 1.4 2.1 1.9v.4c-.1 0-1.7-1-2.3-1.8l.2-.5Zm35.2-19.8 1.4.3-.1 1.5-1.5-.3.2-1.5zM283 122l-.2 1.6-1.7-.3.3-1.6 1.6.3z" class="cls-15"/>
    <path d="M294.9 58.3c-.3-.7-.4-1.6-.2-2.6.6-2.4 1.5-3.3 1.5-3.3m.4 4.9c0-.5 0-1 .2-1.6m2.6 4.4c.6-.2 1.6-.4 2.7-.2" class="cls-16"/>
    <path d="m316.5 124.9-.9-4.7 1.7 4.7h-.8z" class="cls-15"/>
    <path d="M263.2 153.4s-1.2 5.1-1.2 12.6v3.5" class="cls-18"/>
    <path d="m179 166-3.4-55.5-3 .1.5 55.4h5.9zm30.6 0-.1-57.6-3 .2-3.2 57.4h6.3z" class="cls-15"/>
    <path d="m179 166-3.4-55.5-3 .1.5 55.4h5.9zm30.6 0-.1-57.6-3 .2-3.2 57.4h6.3z" class="cls-18"/>
  </g>
  <g id="stars">
    <path id="path1308" d="m349.7 57.7-7-1.4 6.9-2.2.7-7.6 2.3 7 6 1.2-6 2.7-.6 6.6-2.2-6.3Z" class="cls-19"/>
    <path id="path1354" d="M81.9 21.2c-3.2 2.7.4 6.7 4.1 7.6 2.2.5 5.4-3 3.3-7-2-3.7-6-1.7-7.3-.6Z" class="cls-6"/>
    <path id="path1308-2" d="m84.2 22.2 4.6-4.9-1.7 6.6 5.8 4.3-6.8-1.6-4 4.3.8-6.2-5-3.8 6.2 1.3Z" class="cls-19" data-name="path1308"/>
    <path id="path1308-3" d="m35.1 121.5 5.1-1.2-3.9 3.5 1.8 5.3-3.6-4-4.4 1 3.2-3.6-1.6-4.6 3.4 3.5Z" class="cls-19" data-name="path1308"/>
    <path id="path1354-2" d="M128.7 150.2c3.8 2.8 7.4-2.2 7.4-6.5 0-2.6-4.8-5.3-8.7-1.8-3.6 3.2-.3 7.2 1.2 8.3Z" class="cls-6" data-name="path1354"/>
    <path id="path1308-4" d="m129.2 147.4-6.7-3.8h7.8c0 .1 3.3-7.5 3.3-7.5v8l5.8 3.3-7.1.7-2.9 6.6-.2-7.3Z" class="cls-19" data-name="path1308"/>
  </g>
</svg>
