<svg xmlns="http://www.w3.org/2000/svg" viewBox="0 0 414.8 348"><g data-name="Action Required Final"><path fill="#c8c1db" d="M286.3 163.8h-6.7l2.2 3.7-48.3.4 2.4-4.1h-8l-.6 6.4 59.4-.7-.4-5.7z"/><path fill="#f4824e" d="m257.8 126.8-21.9 37h43.7l-21.8-37z"/><path fill="#be6243" d="m281.8 167.5-2.2-3.7h-43.7l-2.4 4.1 48.3-.4z"/><path fill="#c8c1db" d="m208 64.3-14.2-18.5h-4l-18.5 22.5L133 7.7l-16.7 30 7.3 3.5 10.6-19.9 33.9 53.4h6l17.3-20.8 10.4 13.8 6-3.4z"/><path d="M94 81s2.2 13.9 11.3 20.1l-5.6.3s-10.4-4.5-12-19zm147-40.5 5.6-26.6a51.6 51.6 0 0 1 21.7-.9l3.8 27.3z" fill="#f4824e"/><path d="M296.6 92a40.7 40.7 0 0 0-1.3-6.2l.3 3.4-29-.5a8.6 8.6 0 0 0-2.7-6.4l19.5-15.2a30 30 0 0 0-18.7-6.4c-1.6 0-3 0-4.4.2l-.3 24.9a.4.4 0 0 1-.3.3.4.4 0 0 1-.4-.3l.2-24.8a34 34 0 0 0-22.1 10.7l19 15.2a.4.4 0 0 1 0 .5.4.4 0 0 1-.3.2.3.3 0 0 1-.2-.1l-19-15.3a44.2 44.2 0 0 0-9.8 19.5z" fill="none"/><path d="M321 106.3c-2.3-39.4-35.5-55.5-35.3-55.5l-40.8-.3c-10 1.1-23.4 11.5-23.4 11.5l-3.4-1c-3.9 14.3-20.3 14.3-20.3 14.3l3.8 12c-4.8 6-6 18-6 18zm-88-37.2a.4.4 0 0 1 .5-.6l3.9 3.2A34 34 0 0 1 259.5 61v-3.6a.4.4 0 0 1 .4-.3.4.4 0 0 1 .4.3V61l4.4-.1a30 30 0 0 1 18.8 6.3l1.3-1s8.4 5 10.5 19.7a40.7 40.7 0 0 1 1.3 6.3l-69.5-.4a44.2 44.2 0 0 1 9.8-19.4z" fill="#c8c1db"/><path d="m252.1 83.5-14.7-11.8-.5.5 14.7 11.9.5-.6z" fill="#f4824e"/><path d="M233.5 68.5a.4.4 0 0 0-.5.6l3.9 3.1.5-.5z" fill="#be6243"/><path d="M259.7 86.1a.4.4 0 0 0 .4-.3l.2-24.9h-.8l-.2 24.9a.4.4 0 0 0 .4.3z" fill="#f4824e"/><path d="M260.3 57.4a.4.4 0 0 0-.3-.4.4.4 0 0 0-.4.4v3.5h.8z" fill="#be6243"/><path d="m266.6 88.7 29 .5c0-1.2-.2-2.3-.3-3.4-1.6-5.5-5-13.3-11.8-18.7l-19.6 15.2a8.6 8.6 0 0 1 2.7 6.4z" fill="#f4824e"/><path d="M295.3 85.8C293.3 71 284.9 66 284.9 66l-1.4 1a37.5 37.5 0 0 1 11.8 18.8z" fill="#be6243"/><path fill="#f4824e" d="m44.5 170.4 18 .4 11.1-13.2 1-19-11-13.2-19.1.3-10.3 13.5-.4 17.3 10.7 13.9zm40.3-24c2-20 21-22.7 30.3-20 8.4 2.7 16.1 10.2 15 23.7a22.9 22.9 0 0 1-25.2 20.5 22 22 0 0 1-20.1-24.1z"/><path d="M313.5 123.3c3-.5 5.8 17.6 6 23.2.1 11.4-1.9 21.1-4.5 21.4s-5.8-9.8-6.1-20.4c-.4-11.3 1.6-23.8 4.6-24.3z" fill="#c8c1db"/><path d="M284.7 190.5s-.6 5.6-4 17.7a78 78 0 0 1-2 6l5.6 5.5-9.6 3.8c-4.1 9.1-8.5 17.3-8.5 17.3l22-1.1s5.2-4.5 12.7-17.9 10.6-31.3 10.6-31.3zm-71.6 12.9a5 5 0 0 0 3.4 1.2c2.6 0 4.3-2.1 8.3-2.1 4.3 0 5.1 2 8 1.9s3.6-1.4 5.7-1.8a14 14 0 0 0-1-2.5c-2-3.3-7-7.1-14.7-5.9a12.1 12.1 0 0 0-10.4 14 12.9 12.9 0 0 0 3.2 6.8 23.9 23.9 0 0 1-2.5-11.6z" fill="none"/><path d="m215.8 174.7-1.8 14.6-18.7 2s.5 28 19.6 47.8 54.5 19.2 65.6 14.6c19.2-8 40-26.4 43-77.3zm22 41.5c-4.4 6.7-15.1 7.2-20.2 1.7a14.6 14.6 0 0 1-2-2.9 12.9 12.9 0 0 1-3.2-6.7 12.1 12.1 0 0 1 10.3-14c7.8-1.3 12.9 2.5 14.7 5.8a14 14 0 0 1 1.1 2.5 7.8 7.8 0 0 1 1.3-.1 17.3 17.3 0 0 1-2 13.7zm50.4 23.5-22 1.1s4.4-8.2 8.5-17.3l-7.7 3 6.3-17.7 5.3 5.3c.8-2.1 1.5-4.1 2-6 3.5-12 4.1-17.6 4.1-17.6h26.8s-3.2 18-10.6 31.3-12.7 17.8-12.7 17.8z" fill="#c8c1db"/><path d="M278.6 214.1c-1.1 3-2.5 6.3-4 9.4l9.7-3.8z" fill="#f4824e"/><path d="m273.3 208.8-6.3 17.8 7.6-3 4-9.5z" fill="#be6243"/><path d="M231.7 218.7c5.8-2 9-9.4 6.8-16.1-2 .4-2.9 1.6-5.8 1.8s-3.6-2-8-2c-3.9 0-5.6 2.2-8.2 2.2a5 5 0 0 1-3.4-1.2 23.9 23.9 0 0 0 2.5 11.6c4.1 4.6 11.3 5.3 16 3.7z" fill="#f4824e"/><path d="M238.5 202.6c2.3 6.7-1 14-6.8 16-4.8 1.7-12 1-16.1-3.6a14.6 14.6 0 0 0 2 2.8c5 5.6 15.8 5 20.1-1.6a17.3 17.3 0 0 0 2.1-13.7 7.8 7.8 0 0 0-1.3.1z" fill="#be6243"/><path fill="#f4824e" d="m160.4 170.2-20-27.2 20.9-29.9 19 29.3-19.9 27.8z"/><path d="M159.4 152.7a1.9 1.9 0 0 1 2-2.1 1.7 1.7 0 0 1 1.5 2 2 2 0 0 1-2 1.7 1.8 1.8 0 0 1-1.5-1.6zm-54 4.6a1.8 1.8 0 0 1 2-1.7c.8.1 1.3.8 1.2 2a1.7 1.7 0 0 1-2 1.7 1.7 1.7 0 0 1-1.2-2zm-52.7-5.7-.4-18.4h3l-.8 18.3-1.8.1zm53.3 1 1.8-.2.5-18.3h-3l.7 18.4zm54-5-.2-20.1h3.1l-.9 20.1h-2zM52 156a1.6 1.6 0 0 1 2-1.8c.7.1 1.3.7 1.2 1.9a1.7 1.7 0 0 1-1.7 1.5A1.6 1.6 0 0 1 52 156zM2.8 187.4a.5.5 0 0 1 0-1l207.6-.8.6-12.2-201.3.7a.5.5 0 0 1-.5-.5.5.5 0 0 1 .5-.5l201.8-.7a.5.5 0 0 1 .4.1.5.5 0 0 1 0 .4l-.5 13.2a.5.5 0 0 1-.5.5l-208 .8z" fill="#3f2b56"/><path d="M211.5 173.3h-.1l-23.8-6H166a.5.5 0 0 1-.5-.5.5.5 0 0 1 .5-.5l21.7-.1 24 6.2a.5.5 0 0 1-.2 1zm-86-5.8a.5.5 0 0 1-.5-.5.5.5 0 0 1 .5-.5l34.2-.2a.5.5 0 0 1 0 1l-34.2.2zm-58.3.3a.5.5 0 0 1-.5-.5.5.5 0 0 1 .5-.5l27-.1a.5.5 0 1 1 0 1l-27 .1zm-66.7.3a.5.5 0 0 1 0-1l43.4-.2a.5.5 0 0 1 .5.5.5.5 0 0 1-.5.5l-43.4.3z" fill="#3f2b56"/><path d="M170.4 173.4a.4.4 0 0 1-.4-.4l-.6-6.2a.4.4 0 0 1 .4-.4.4.4 0 0 1 .4.3l.5 6.2a.4.4 0 0 1-.3.4zm-24.2-1.5a.4.4 0 0 1-.3-.4l-.3-3a.4.4 0 0 1 .3-.3.4.4 0 0 1 .4.3l.3 3a.4.4 0 0 1-.3.4zm-22.5 1.7a.4.4 0 0 1-.4-.4V168a.4.4 0 0 1 .4-.4.4.4 0 0 1 .4.4v5.2a.4.4 0 0 1-.4.4zm-22.6-.4a.4.4 0 0 1-.4-.3v-2.4a.4.4 0 0 1 .4-.3.4.4 0 0 1 .4.3v2.3a.4.4 0 0 1-.4.4zm-42.4.5a.4.4 0 0 1-.3-.3v-4.2a.4.4 0 1 1 .7 0v4.2a.4.4 0 0 1-.4.3zm18 0a.4.4 0 0 1-.4-.3v-6.1a.4.4 0 0 1 .3-.4.4.4 0 0 1 .4.4v6a.4.4 0 0 1-.4.4zm-35.8 0a.4.4 0 0 1-.4-.3v-6a.4.4 0 0 1 .8 0v6a.4.4 0 0 1-.4.3zm-17 .2a.4.4 0 0 1-.4-.3v-4.2a.4.4 0 0 1 .3-.4.4.4 0 0 1 .4.4v4.1a.4.4 0 0 1-.3.4zM38 179a3.3 3.3 0 0 1 .1 1.9 3.6 3.6 0 0 1-1.6 2.3 3.5 3.5 0 0 1-4.7-.7 3.4 3.4 0 0 1 .7-4.5 4 4 0 0 1 2.5-.8 3.6 3.6 0 0 1 .6 0 3.2 3.2 0 0 1 1.2.4.3.3 0 0 0 0-.1.8.8 0 0 0 .2-.2.8.8 0 0 0 .1-.2.6.6 0 0 0 0-.1 3.8 3.8 0 0 0-1.5-.6 4.8 4.8 0 0 0-3.6 1 4.2 4.2 0 0 0-.8 5.5 4.1 4.1 0 0 0 3.3 1.6A4.4 4.4 0 0 0 39 181a4.1 4.1 0 0 0-.4-2.5l-.5.5z" fill="#3f2b56"/><path d="M34 183h.7v-4.8H34v4.6zm33.3 1a2.9 2.9 0 0 0-.1-.5v-.2a3.3 3.3 0 0 1-1 .2 3.3 3.3 0 0 1-.6-6.5 3.2 3.2 0 0 1 2.8.3 3.6 3.6 0 0 1 1.3 2.6 3.3 3.3 0 0 1-.9 2.4 1.3 1.3 0 0 0-.1.1 4.3 4.3 0 0 0 .2.5 1.7 1.7 0 0 0 .1.1 3.5 3.5 0 0 0 .3-.3 4 4 0 0 0 1-3 4.2 4.2 0 0 0-1.6-3 4 4 0 0 0-3.3-.5 4.2 4.2 0 0 0-3 4.6 3.8 3.8 0 0 0 5 3.1z" fill="#3f2b56"/><path d="m68 179.3-.2-.3-.1-.1-4.3 3a.4.4 0 0 0 0 .5.4.4 0 0 0 .2.2.3.3 0 0 0 .2-.1l4.3-3a1.2 1.2 0 0 0-.1-.2zm31.8 5h-.6a4.1 4.1 0 0 1-2.7-1.5 3.5 3.5 0 0 1-.7-2.7 4 4 0 0 1 1.6-2.9 4.8 4.8 0 0 1 3.7-.5 3.7 3.7 0 0 1 3 3.8 4.4 4.4 0 0 1-1.7 3 4 4 0 0 1-2.6.9zm-3.3-4.1a2.8 2.8 0 0 0 .6 2 3.4 3.4 0 0 0 2.2 1.4 3.4 3.4 0 0 0 2.6-.7 3.7 3.7 0 0 0 1.4-2.5 3 3 0 0 0-2.4-3 4 4 0 0 0-3 .4 3.3 3.3 0 0 0-1.4 2.3z" fill="#3f2b56"/><path d="m101.8 183.2-2.8-4.6a2.3 2.3 0 0 1-.5.5h-.1l2.8 4.5a.4.4 0 0 0 .4.2.4.4 0 0 0 .2 0 .4.4 0 0 0 0-.6zm36.5-5.5a3.7 3.7 0 0 0-2.4-1.6 4.8 4.8 0 0 0-3 .7l.3.5a.6.6 0 0 1 0 .1 4 4 0 0 1 2.6-.5 3 3 0 0 1 2 1.2 3.3 3.3 0 0 1 .4 2.6 3.6 3.6 0 0 1-3.8 2.6 3.3 3.3 0 0 1-2.9-3.1 3.5 3.5 0 0 1 .3-1.2 7.6 7.6 0 0 1-.6-.5 4.1 4.1 0 0 0-.4 1.6 4 4 0 0 0 3.6 4h.3a4.4 4.4 0 0 0 4.2-3.3 4 4 0 0 0-.6-3z" fill="#3f2b56"/><path d="M132.8 183.4a.4.4 0 0 1-.3-.1.4.4 0 0 1 0-.6l5-5.4a.4.4 0 0 1 .5.5l-4.9 5.4a.3.3 0 0 1-.3.2zm42-4.2a3.5 3.5 0 0 0-4.2-2.6 3.8 3.8 0 0 0-2.5 1.8v.1l.6.4v-.1a3.1 3.1 0 0 1 2-1.4 2.7 2.7 0 0 1 3.4 2 3 3 0 0 1-4.6 3.3 2.4 2.4 0 0 1-1.2-1.5 2.9 2.9 0 0 1 0-1.3l-.4-.3h-.3a3.5 3.5 0 0 0 0 1.8 3.1 3.1 0 0 0 1.6 2 4.2 4.2 0 0 0 2 .5 3.6 3.6 0 0 0 1-.2 4 4 0 0 0 2.6-4.5z" fill="#3f2b56"/><path d="M172 183.8a.4.4 0 0 1-.3-.3l-2.4-5.9a.4.4 0 0 1 .2-.5.4.4 0 0 1 .5.2l2.4 6a.4.4 0 0 1-.2.4.3.3 0 0 1-.1 0zm21.7-79.5h-1c-6 27.7-5.6 62-5.6 62.4a.5.5 0 0 0 .5.5.5.5 0 0 0 .5-.5c0-.5-.5-34.8 5.6-62.4zm8.8-25.8a.5.5 0 0 0-.6.1l-2.2 4.1a90 90 0 0 0-6.8 20.3h1a88.6 88.6 0 0 1 6.7-19.9l2.1-4a.5.5 0 0 0-.2-.6zM295.7 241a52 52 0 0 1-17.3 11c-20.6 5.3-46-.6-46.1-.6-36.4-15.2-42-53.4-42.9-63h-1c.9 9.7 6.6 48.4 43.6 64a131.8 131.8 0 0 0 26.6 2.7 82.2 82.2 0 0 0 20-2.2c.2 0 8.4-2.7 17.5-11zM234.2 49.3c-3.2.8-9 3-15.7 8.6a.5.5 0 0 0 0 .7.5.5 0 0 0 .6.1 41.4 41.4 0 0 1 15.5-8.5l-.4-1zm83 46.8c-5.8-24.5-20.9-42-40.1-46.8h-.1l-40.1-.5h-.1l.1 1 40 .6c18.9 4.7 33.6 21.8 39.4 46 5.5 22.7 3.3 75.7 3.3 76.3-.6 23.3-4.2 40.1-11.5 52.9a66 66 0 0 1-9.9 13l.6 1A66.3 66.3 0 0 0 309 226c7.4-12.9 11-29.8 11.6-53.4 0-.5 2.2-53.6-3.3-76.5z" fill="#3f2b56"/><path d="M189.7 173a.4.4 0 0 1-.3-.3l-2.1-6a.4.4 0 0 1 .2-.4.4.4 0 0 1 .5.2l2 6a.4.4 0 0 1-.1.5zm42.4 79v13.5h45.8l.6-13c-21 5.4-46.4-.5-46.4-.5z" fill="#3f2b56"/><path d="m236.3 288.6.7-26.4a.5.5 0 1 0-1 0l-.7 26.3a8.2 8.2 0 0 0 1 .1zm7.9 50.2a6.7 6.7 0 0 1 1 0l-.3-16.8a.5.5 0 0 0 0-.2l-9-19.5.3-10.4h-1l-.3 10.5a.5.5 0 0 0 0 .2l9 19.5zm0 2 .1 4a.5.5 0 0 0 .5.5.5.5 0 0 0 .5-.5v-4zm38.2-17-7.6-20.4.5-36.3h-1l-.5 36.4a.6.6 0 0 0 0 .1l7.6 20.4-1 17.7a.5.5 0 0 0 .5.5.5.5 0 0 0 .5-.5l1-17.7a.4.4 0 0 0 0-.2z" fill="#3f2b56"/><path d="m274.2 298-35.3 3.7.2.7 35.2-3.7a.4.4 0 0 0 .3-.4.4.4 0 0 0-.4-.4zm-31.8-18.5v-.5l-.1-.3H236a.4.4 0 0 0-.4.4.4.4 0 0 0 .4.4h6.3zm32.2-.8h-29.5l-.1.8h29.6a.4.4 0 0 0 .4-.4.4.4 0 0 0-.4-.4zm-7.8 44.5v-.4l-20.2-1 .1.8 20 1v-.4zm15.2.4-12.5-.7-.1.8 12.6.6a.4.4 0 0 0 .4-.3.4.4 0 0 0-.4-.4zm29.3-204.5a1 1 0 0 0-.3 0l.4.6a8.8 8.8 0 0 1 .6.8c2 2.4 4 13.5 4 23 0 13.5-2.2 22-3.7 22.2-1.2 0-4.5-3.8-5-20.7-.5-14 1-20.2 2.4-22.9l-.6-1c-1.6 2.7-3.3 9.3-2.8 24 .5 15.9 3.6 21.6 6 21.6h.1c3.6-.4 4.6-15.5 4.6-23.2s-1.9-24.3-5.7-24.4z" fill="#3f2b56"/><path d="M311.3 119.1c3.8.1 5.6 16.7 5.6 24.4s-1 22.8-4.6 23.2l19-1.2a155.4 155.4 0 0 0 .5-29c-1.3-14.4-4-19.4-4-19.4zm49.6-101.3v-3.7a.5.5 0 0 0-.6-.4.5.5 0 0 0-.5.5v3.5a8.6 8.6 0 0 0 1 .1zm-1 3.3.5 26.5a6.8 6.8 0 0 0 1 .2l-.5-26.8h-1zm1.8 44.6-.3-15.1-1 .2.3 15 9.7 51.2-36.8 2.6.5 1L371 118a.5.5 0 0 0 .5-.6zm38.6-4.7-1-40.4a.5.5 0 0 0-.5-.5.5.5 0 0 0-.5.5l1 40.5 14.5 65.6-19.3 22a9.5 9.5 0 0 0 .8.7l19.4-22.3a.5.5 0 0 0 .1-.4z" fill="#3f2b56"/><path d="m392.4 151.2-4 4.6-58.7 5-1.8-37.7a.6.6 0 0 1-.3-.1 7.6 7.6 0 0 1-.7-.7l1.8 39a.5.5 0 0 0 .5.6l59.4-5.2a.5.5 0 0 0 .4-.1l4.1-4.8-.7-.6z" fill="#3f2b56"/><path d="M345.5 149.1h.1v-26.5h-.7v26.5zm-.6 3.2v7.7a.4.4 0 0 0 .8 0v-7.7h-.8zm19.7 6.4a.4.4 0 0 1-.4-.3l-6.2-40a.4.4 0 0 1 .7-.1l6.2 40a.4.4 0 0 1-.3.4zm22.6-6.6-15.5-34 13.5 4.4a6.2 6.2 0 0 0 .1-.7l-14.2-4.7a.4.4 0 0 0-.4.1.4.4 0 0 0 0 .4l16 35c0-.2.3-.4.5-.5zm24-21.9-23-7.5-.2.7 23 7.5a.4.4 0 0 0 .5-.2.4.4 0 0 0-.3-.5zm-10.6-33-32.2 6.6a.4.4 0 0 0-.3.4.4.4 0 0 0 .3.3h.1l32.3-6.5-.2-.8zm7.4-1a.4.4 0 0 0-.4-.4l-4.2.9v.7l4.3-.8a.4.4 0 0 0 .3-.5zm-4.4-20a.4.4 0 0 0-.5-.2l-34.4 12.6.3.7 34.4-12.6a.4.4 0 0 0 .2-.5zM367.8 65l-6.6.5a.4.4 0 0 0-.4.4.4.4 0 0 0 .4.3l6.6-.4v-.8zm3.2-.2v.8l25-1.7.2-.7zm28.1-29.6-33.4 3 .1.7 33.4-3a.4.4 0 1 0 0-.7zM267.8 232a130.2 130.2 0 0 0 12.3-42.3 3.6 3.6 0 0 0-.7-.7 129.3 129.3 0 0 1-12.2 42.6l.6.4z" fill="#3f2b56"/><path d="M310.2 187.6a.4.4 0 0 0-.3-.1h-28.5a5.2 5.2 0 0 0 .3.7h27.7c-.8 4-7.4 33-22.6 47.6l-21.9 1.3 1.7-3a.5.5 0 0 1-.2-.3h-.5l-2 3.5a.4.4 0 0 0 0 .4.4.4 0 0 0 .4.2l22.7-1.3a.4.4 0 0 0 .2-.1c8.6-8.3 14.4-21 17.8-30.3a140.4 140.4 0 0 0 5.3-18.3.4.4 0 0 0-.1-.3zm-71.8 17c-2.1-10.7-9.6-12.8-15.6-12.7a13.2 13.2 0 0 0-9.1 4.4 13.5 13.5 0 0 0-3 10.7c.8 8 6.9 14 14 14h.5a15 15 0 0 0 4.2-.8c0-.3-.2-.5-.3-.8a14 14 0 0 1-3.9.8c-6.9.4-13-5.5-13.8-13.3a12.2 12.2 0 0 1 11.5-14.2c5.7-.1 12.8 1.8 14.8 12a14.2 14.2 0 0 1-2.9 10.7 12.9 12.9 0 0 1-2.9 2.6 7.2 7.2 0 0 0 .5.7 13.5 13.5 0 0 0 3-2.9 15 15 0 0 0 3-11.3z" fill="#3f2b56"/><path d="m220.4 206.4-9.4.1a.4.4 0 0 0-.4.4.4.4 0 0 0 .4.4l9.5-.2a6.7 6.7 0 0 0-.1-.7zm1.8.7 13.3-.2v-.8l-13.2.3-.1.7zm59.3 27.4a.3.3 0 0 1-.3-.2.3.3 0 0 1 .3-.3l7.5-.2a.3.3 0 0 1 .3.2.2.2 0 0 1-.2.3l-7.6.2zm10.4-3.6h-15.3a.3.3 0 0 1-.2-.3.3.3 0 0 1 .2-.2H292a.3.3 0 0 1 .3.2.3.3 0 0 1-.3.3zm3.3-4.7H287a.3.3 0 0 1-.3-.3.3.3 0 0 1 .3-.2h8a.3.3 0 0 1 .3.2.3.3 0 0 1-.2.3zm2.8-4.8h-10.2a.3.3 0 0 1 0-.5H298a.3.3 0 0 1 0 .5zm2.7-5.5-10.1-.2a.3.3 0 0 1-.3-.3.3.3 0 0 1 .3-.2l10.1.2a.3.3 0 0 1 .3.2.3.3 0 0 1-.3.3zm-14.2-5.5a.2.2 0 0 1-.2-.2.3.3 0 0 1 .2-.3l16.7-.3a.2.2 0 0 1 .3.2.3.3 0 0 1-.3.3l-16.7.3zm18.9-6.3h-10.2a.3.3 0 0 1-.3-.2.3.3 0 0 1 .3-.3h10.2a.3.3 0 0 1 .3.3.3.3 0 0 1-.3.2zm2-6.2h-10.7a.3.3 0 0 1 0-.5h10.7a.3.3 0 0 1 0 .5zm1.3-4.9h-11a.3.3 0 0 1-.3-.3.3.3 0 0 1 .3-.2h11a.3.3 0 0 1 .3.2.3.3 0 0 1-.3.3zm-15.5-22-85.1.5a.5.5 0 0 0-.5.5.5.5 0 0 0 .5.5l85.3-.6-.2-1zm14.2-.2h-10.2l.2 1h10.1v-1zm12.7 0H310v.6l.2.4h10a.5.5 0 0 0 0-1zM311 166h-28a.5.5 0 0 1-.5-.5.5.5 0 0 1 .5-.5h28a.5.5 0 0 1 .5.5.5.5 0 0 1-.5.5zm-72.9-1h-28.3l-.1 1H238a.5.5 0 0 0 .5-.5.5.5 0 0 0-.5-.5zm19.8-10-.8-17.4 3.5-.1-1 17.6h-1.7zm-1 4a1.7 1.7 0 0 1 2-1.7 1.5 1.5 0 0 1 1.3 1.7 1.6 1.6 0 0 1-1.7 1.6 1.7 1.7 0 0 1-1.5-1.6zm-44.1-46.2a.5.5 0 0 0-.4-.2h-14.7a5.6 5.6 0 0 0-.1 1h14.1c-.8 3.2-4.3 18.2-5 28.4-.6 11.4-.6 29.4-.6 29.6a.5.5 0 0 0 .5.5.5.5 0 0 0 .5-.5c0-.2 0-18.1.6-29.5s5-28.7 5.1-28.9a.5.5 0 0 0 0-.4zm-21 27.4a146 146 0 0 1 3.8-25l-.5-.5h-.4a146.2 146.2 0 0 0-3.8 25.5 165.8 165.8 0 0 0 .5 27.6.5.5 0 0 0 .6.5.5.5 0 0 0 .4-.6 164.2 164.2 0 0 1-.5-27.4z" fill="#3f2b56"/><path d="M202.4 115.8a4.5 4.5 0 0 0-.8 0c-1 5.3-3.3 17.6-3.8 26.5-.5 11.7 0 27 0 27.1a.4.4 0 0 0 .4.4.4.4 0 0 0 .4-.4c0-.1-.6-15.4 0-27 .4-9 2.7-21.2 3.8-26.5zm12.3-13.3-21.2-.3a.5.5 0 1 0 0 1l21.3.3-.1-1zm101 1.1-97-1v1l97.2 1-.1-1zm-92-28.8.5.3h.2a16 16 0 0 0 1.3-3.5.5.5 0 0 0-.5-.6.5.5 0 0 0-.5.4 14.8 14.8 0 0 1-1.2 3.3zm-1.5 2.3a16.2 16.2 0 0 1-8 6.1 13.9 13.9 0 0 1-9.2.1L198.5 70s-1.7-3.7 2-8.8a.5.5 0 0 0 0-.7.5.5 0 0 0-.8.1c-4 5.5-2.2 9.6-2.1 9.8l6.6 13.5a.5.5 0 0 0 .3.2 13.2 13.2 0 0 0 5 1 14.7 14.7 0 0 0 5-1 17 17 0 0 0 8.3-6.3l-.6-.7zm2-14.4a.5.5 0 0 1-.3 0l-5.4-4a.5.5 0 0 1 0-.7.5.5 0 0 1 .6 0l5.4 3.8a.5.5 0 0 1 .1.7.5.5 0 0 1-.4.2z" fill="#3f2b56"/><path d="M218.8 58.8a.5.5 0 0 1-.3 0l-4.2-3.2a.5.5 0 0 1-.1-.7.5.5 0 0 1 .7 0l4.2 3a.5.5 0 0 1-.3 1zM152.3 33c18 29.8 18.2 29.8 18.6 29.7a.4.4 0 0 0 .4-.2l9.4-10a6 6 0 0 0-.8-.7l-9 9.7A5606 5606 0 0 1 135.3 3a.5.5 0 0 0-.5-.3H132a6.6 6.6 0 0 0 0 1h2.6l17.7 29.3z" fill="#3f2b56"/><path d="m210.6 59.8-15.7-20.6a.5.5 0 0 0-.4-.2h-2.3a.5.5 0 0 0-.4.1l-8.8 9.3a6.3 6.3 0 0 0 .2 1.3l9.2-9.7h1.9l15.3 20.3a5.5 5.5 0 0 1-2 3.6 4.8 4.8 0 0 1-3.6 1l-11.8-14.4a.5.5 0 0 0-.3-.2.6.6 0 0 0-.4.2l-18.8 22h-3l-35.3-54.9a.5.5 0 0 0-.4-.2.5.5 0 0 0-.4.2l-13 25a.5.5 0 0 0 .2.6.5.5 0 0 0 .6-.2L134 18.9l35 54.4a.5.5 0 0 0 .4.2h3.5a.5.5 0 0 0 .4-.1l18.5-21.8 11.5 14a.6.6 0 0 0 .3.2 5.6 5.6 0 0 0 4.6-1.1 6.5 6.5 0 0 0 2.4-4.6.5.5 0 0 0 0-.3zm-80.9-56L111.2 40a.5.5 0 0 0 .3.6.5.5 0 0 0 .6-.2l18.3-35.8a5.4 5.4 0 0 0-.7-1z" fill="#3f2b56"/><path d="m201.9 63.1 1.8 2.2a5.1 5.1 0 0 0 4.2-1 6 6 0 0 0 2.2-4.2s1.7 1.5-.9 4.8c-1.7 2.3-5.6 4.4-7.3 2.8s0-4.6 0-4.6zm59.4-3.5a35.4 35.4 0 0 1 9.8 1.7l.4-1a36.8 36.8 0 0 0-10.1-1.7 32.2 32.2 0 0 0-21 6.2 7.7 7.7 0 0 0 .4 1 31.2 31.2 0 0 1 20.5-6.2zm13 1.8a8.9 8.9 0 0 0-.7.8C289.3 69 293 86.5 293.5 90l-67.7-.9c.7-2.7 4.1-13.7 12.8-21.5a4.2 4.2 0 0 0-.7-.7c-10.1 9-13.2 22.4-13.2 22.6a.5.5 0 0 0 0 .4.5.5 0 0 0 .5.2l68.9.9a.5.5 0 0 0 .3-.2.5.5 0 0 0 .2-.4c0-.2-2.7-21-20.3-28.9z" fill="#3f2b56"/><path d="M251.8 89.8s1.6-6.2 7.8-6.5 7.1 6.6 7.1 6.6z" fill="#3f2b56"/><path d="M259.6 87.9a.5.5 0 0 1-.2-1l22.2-11.7a.5.5 0 0 1 .7.2.5.5 0 0 1-.2.6s-4 3-3.7 7.9a.5.5 0 0 1-.4.5.5.5 0 0 1-.6-.5 9.6 9.6 0 0 1 1.9-6.3l-19.4 10.2a.5.5 0 0 1-.3 0z" fill="#3f2b56"/><path d="M278.7 76.5a7.2 7.2 0 0 1-5.7-2.2.5.5 0 0 1 0-.7.5.5 0 0 1 .8 0c2.3 3 7.9 1.6 8 1.5a.5.5 0 0 1 .2 1 14 14 0 0 1-3.3.4zm-41.9-27.7 40.1 1 .5-10.9-40.8-.1.2 10z" fill="#3f2b56"/><path d="M264 32.9a.4.4 0 0 1-.3-.1l-6.6-5.5-6.3 5.1a.4.4 0 0 1-.3 0 .4.4 0 0 1-.3-.1 12 12 0 0 1 0-11.3.3.3 0 0 1 .2-.2.4.4 0 0 1 .3.1l6.4 5.4 7.4-6a.3.3 0 0 1 .3 0 .3.3 0 0 1 .2.2c3 7.9-.6 12-.8 12.2a.4.4 0 0 1-.3.2zm-6.3-6L264 32c.7-1 2.7-4.7.6-10.7zm-7.1-5a11.5 11.5 0 0 0 .1 9.7l5.8-4.8z" fill="#fff"/><path d="M250.6 32.5h-.2a.4.4 0 0 1-.2-.5 12 12 0 0 0 0-10.6.4.4 0 1 1 .6-.4c0 .2 2.9 4.8.1 11.3a.4.4 0 0 1-.3.2z" fill="#fff"/><path d="M240.3 20.7a.5.5 0 0 1-.3-.1L217.4 5.2a.5.5 0 0 1 .6-.8l22.6 15.4a.5.5 0 0 1 .1.7.5.5 0 0 1-.4.2zm-.6 5.3-16.9-1.7a.5.5 0 0 1-.5-.6.5.5 0 0 1 .6-.4l16.8 1.7a.5.5 0 0 1 0 1zm-17.2 11.8-5.2 2.3a.5.5 0 0 0 .2 1 .5.5 0 0 0 .2 0l5.3-2.3a6 6 0 0 0-.5-1zm16.7-6.8a.5.5 0 0 0-.6-.3l-13 5.7.4 1 13-5.7a.5.5 0 0 0 .2-.7zM287 8.5l-13.5 8.3a.5.5 0 0 0 .3 1 .5.5 0 0 0 .2-.1l13.6-8.5a8 8 0 0 0-.7-.7zm5.8-3a.5.5 0 0 0-.7-.2l-3.8 2.3v.1a5.5 5.5 0 0 0 .3 1l4-2.6a.5.5 0 0 0 .2-.7zm9.3 15.3-14 1.6v1l14.1-1.6a.5.5 0 1 0 0-1zm-16.5 1.9-11.4 1.2a.5.5 0 0 0 0 1h.1l11.4-1.2v-1zm.4 15.6a.5.5 0 0 1-.3-.1l-10-7.7a.5.5 0 1 1 .6-.8l10 7.7a.5.5 0 0 1-.3.9z" fill="#f4824e"/><path d="M126.9 74.9a27.7 27.7 0 0 0-19.6-11.7c-21.8-3.5-27.6 7.5-27.8 8-.6 1-.6 5-.5 5.7.3 6.5 3.2 18 19 21.7a30.6 30.6 0 0 0 7 .8 25.3 25.3 0 0 0 5.3-.6l-.3-1a27 27 0 0 1-11.7-.2 22.4 22.4 0 0 1-15.8-11 23.9 23.9 0 0 1-2.2-15s5.7-10.8 26.8-7.4A26.7 26.7 0 0 1 126 75.5c1.9 3 2.4 5.6 2 6.8A28 28 0 0 1 113.3 97l.6.9c10.9-4.2 15.2-15 15.3-15.2.5-1.8-.4-4.9-2.2-7.7z" fill="#3f2b56"/><path d="M108.4 56.3c-26-2.7-34 7.4-35 9.3s-2 8.7-.1 11.9c1.4 2.2 6 6.4 8.6 8.8a24.4 24.4 0 0 1-2-15s5.6-11.1 27.3-7.6c16.7 2.7 22.5 15 21.4 18.8A29.5 29.5 0 0 1 118 95c7.6-.6 15-6.5 15.7-7.5a39.7 39.7 0 0 0 3.2-8.5c.3-1.8-6.3-20.5-28.5-22.8z" fill="#3f2b56"/><path d="M111.5 45.6A49.3 49.3 0 0 0 87 47a.5.5 0 0 0-.2.2L73.4 65.6a.5.5 0 0 0 .8.6l13.2-18.3a48.2 48.2 0 0 1 24-1.4 5.5 5.5 0 0 0 .2-1zm25.7 15.3c-.6-.8-1.3-1.5-2-2.1a11.1 11.1 0 0 0-.2 1.1l1.3 1.5-.4 17.3a.5.5 0 0 0 .5.5.5.5 0 0 0 .5-.5l.4-17.5a.5.5 0 0 0-.1-.3zm-5.1-5.2a44.4 44.4 0 0 0-13-8 8 8 0 0 0-.4 1 43.6 43.6 0 0 1 13.2 8.2 4.6 4.6 0 0 0 .2-1.2z" fill="#3f2b56"/><path d="M122.2 50.1a.5.5 0 0 1-.5-.5l.6-5.3a15.2 15.2 0 0 0-14.9-2.6l-1.6 3.7a.5.5 0 1 1-1-.4l1.8-3.9a.5.5 0 0 1 .2-.3 16.2 16.2 0 0 1 16.3 2.9.5.5 0 0 1 .2.4l-.6 5.6a.5.5 0 0 1-.5.4zm3-15.3-7.5-3.5-.4.6 7.6 3.6a.5.5 0 0 0 .1 0 .4.4 0 0 0 .4-.3.4.4 0 0 0-.2-.4zm4.7-8.7-5.8-6.4-.4.7 5.6 6.2a.4.4 0 0 0 .3.2.4.4 0 0 0 .2-.1.4.4 0 0 0 0-.6zm-1.2-14.5-.4.6 3.5 6c.2-.1.4-.3.5-.6zm11.4 2-4.1 4.6.4.5 4-4.5-.3-.7zm6.5 8.4a.4.4 0 0 0-.6 0l-4.4 5.1.2.3a.5.5 0 0 1 .3.1l4.4-5a.4.4 0 0 0 0-.5zm3.8 10.5-4 4.8a.4.4 0 0 0 0 .5.4.4 0 0 0 .2 0 .4.4 0 0 0 .3 0l3.9-4.6-.4-.7zm2.9 4.4-2.9 4.4.4.7 2.9-4.4-.4-.7zm6.3 10.5-3.7 4.8a.4.4 0 0 0 0 .6.4.4 0 0 0 .3 0 .4.4 0 0 0 .3-.1L160 48l-.4-.7zm.7 11.8a.4.4 0 0 1-.3-.2.4.4 0 0 1 0-.5l5.7-4.5a.4.4 0 0 1 .5.1.4.4 0 0 1 0 .5l-5.7 4.5a.4.4 0 0 1-.2 0zm8.5 2.7-2.5 6.6a.4.4 0 0 0 .2.5.3.3 0 0 0 .1 0 .4.4 0 0 0 .4-.3l2.3-6zm8.4 6.3-3.4-6.6a7.7 7.7 0 0 0-.6.6l3.3 6.3a.4.4 0 0 0 .4.3.5.5 0 0 0 .1 0 .4.4 0 0 0 .2-.6zm4.7-12-.5.6L184 60a.4.4 0 0 0 .3.1.4.4 0 0 0 .3-.6zm7.4-4.3-2.8-4.1a.5.5 0 0 1-.3.1l-.3.3 2.9 4.3.5-.6zm10-2.9-4.4 5.7a.4.4 0 0 0 0 .5.4.4 0 0 0 .3 0 .3.3 0 0 0 .3 0l4.3-5.7a6.6 6.6 0 0 0-.5-.5zm4.4 5-5.6 4.5a.4.4 0 0 0 0 .6.3.3 0 0 0 .3.1.4.4 0 0 0 .3 0l5.5-4.7-.5-.5zM66 169.5 47 169a.5.5 0 0 1-.4-.2L36 155.5a.5.5 0 0 1-.1-.3v-16a.5.5 0 0 1 .1-.4l12.2-15.2a.5.5 0 0 1 .3-.2l17-.2a.6.6 0 0 1 .3.2l10.9 13.7a.6.6 0 0 1 .1.3l-.9 20a.6.6 0 0 1-.1.3l-9.4 11.6a.5.5 0 0 1-.4.2zM47.2 168l18.4.3 9.2-11.3.9-19.6-10.6-13.2-16.4.1-12 15V155zm63.7 2.4a24.8 24.8 0 0 1-13-3.8A23.9 23.9 0 0 1 87.5 142a23.4 23.4 0 0 1 28-16.2 24.7 24.7 0 0 1 17.2 28.3 21 21 0 0 1-12.5 14.3 23.2 23.2 0 0 1-9.3 2zm-1-44.3a23 23 0 0 0-21.4 16.2c-1.6 5.2.3 17.5 10 23.4a22.6 22.6 0 0 0 21.4 1.7c6-2.6 10.7-8 11.8-13.5 2.6-13-6.4-24.5-16.4-27.1a22 22 0 0 0-5.5-.7zm-21.9 16zm75.7 28a.5.5 0 0 1-.4-.2L143.5 143a.5.5 0 0 1 0-.6l20.7-29.2a.6.6 0 0 1 .4-.2.5.5 0 0 1 .4.2l18.5 28.5a.5.5 0 0 1 0 .6L164.1 170a.5.5 0 0 1-.4.2zm-19.2-27.4 19.2 26 18.8-26.7-18-27.5zm139.8 24-23.7-40.2a.5.5 0 0 0-.4-.3.5.5 0 0 0-.5.3l-21.3 37v.2l.1.2.1.1.4.2c.2 0 0 0 0 0h.2l21-36.5 22.7 38.6H240a4.6 4.6 0 0 0-.3 1h44a.5.5 0 0 0 .5-.3.5.5 0 0 0 0-.4zm-69.4-112c-1.3-1-3.3-1.4-5.6-1a.7.7 0 0 0 0 .2v.9c2-.5 3.9-.3 5 .7 2.2 2 1.3 7.5-1.8 11.3-2.2 2.7-6.4 5.5-10.7 4.6a10.2 10.2 0 0 0 .3 1 8.8 8.8 0 0 0 1.4.2c4 0 7.7-2.6 9.8-5.1 3.4-4.3 4.2-10.4 1.6-12.7z" fill="#3f2b56"/></g></svg>
