<svg width="794" height="362" fill="none" xmlns="http://www.w3.org/2000/svg"><path d="M646.9 8.5H9.9c-2 0-3.5 1.5-3.5 3.5v281c0 2 1.5 3.5 3.5 3.5h637c1.9 0 3.5-1.6 3.5-3.5V12c0-2-1.6-3.5-3.5-3.5Z" fill="#fff" stroke="#C6BECF"/><path d="M70.9 129h556M70.9 108h556M70.9 87h556M70.9 234h556M70.9 213h556M70.9 192h556M70.9 171h556M70.9 150h556M70.9 66h556" stroke="#C6BECF" stroke-width=".5" stroke-miterlimit="10"/><path d="M100.4 255v5" stroke="#9585A3" stroke-miterlimit="10"/><path d="m92.9 272.7-.1.2h-1V266l-2 1.5s-.2.1-.2 0h-.3l-.2-.4-.1-.2.1-.3 2.6-2h1.1v8.1Zm7.7-5a46 46 0 0 1-.2 3.4c0 .4-.3.8-.5 1l-1 .8-1.3.2c-.6 0-1 0-1.4-.3-.4-.1-.7-.4-1-.6a3 3 0 0 1-.5-1 45.5 45.5 0 0 1 0-4.6c.1-.5.3-.9.6-1.2.2-.3.5-.5 1-.7l1.3-.2c.5 0 1 0 1.3.2l1 .7.5 1c.2.5.2 1 .2 1.4Zm-5 2.1c0 .8.2 1.3.5 1.7.4.3.9.5 1.5.5s1-.2 1.4-.5c.3-.4.5-1 .5-1.7a45.5 45.5 0 0 0 0-2c0-.8-.2-1.3-.5-1.7-.3-.4-.8-.6-1.4-.6-.6 0-1.1.2-1.5.6-.3.4-.4 1-.5 1.7a46 46 0 0 0 0 2Zm9.9-5.9.2-.2.3-.1H106.6V264l-4 9.7c0 .1 0 .2-.2.3H101.5v-.2l4-9.8Zm5.7 8.8-.1.2h-1V266l-2 1.5h-.5l-.3-.4v-.5l2.7-2h1.1v8.1Z" fill="#9585A3"/><path d="M151.2 255v5" stroke="#9585A3" stroke-miterlimit="10"/><path d="m142.9 272.7-.1.2h-1V266l-2 1.5h-.5l-.3-.4v-.5l2.7-2h1.1v8.1Zm7.7-5a46 46 0 0 1-.2 3.4c-.1.4-.3.8-.6 1-.2.3-.5.6-.9.8l-1.4.2c-.5 0-1 0-1.3-.3-.4-.1-.7-.4-1-.6a3 3 0 0 1-.5-1 45.5 45.5 0 0 1 0-4.6l.5-1.2 1-.7 1.3-.2c.6 0 1 0 1.4.2l1 .7.5 1 .2 1.4Zm-5 2.1c0 .8.2 1.3.5 1.7.3.3.8.5 1.4.5.7 0 1.1-.2 1.5-.5.3-.4.5-1 .5-1.7a45.5 45.5 0 0 0 0-2c0-.8-.2-1.3-.5-1.7-.4-.4-.8-.6-1.5-.6-.6 0-1 .2-1.4.6-.3.4-.5 1-.5 1.7a46 46 0 0 0 0 2Zm9.9-5.9.1-.2.4-.1H156.6V264l-4 9.7-.2.3H151.5v-.2l4-9.8Zm5.7 4.7.5-.7.2-.9c0-.4-.2-.7-.4-1-.2-.3-.6-.5-1.2-.5a2 2 0 0 0-.7.2c-.2 0-.4.2-.5.3l-.3.5-.2.5-.1.2-.2.1h-.7l-.1-.3c0-.3 0-.6.2-.9l.5-.8 1-.6c.3-.2.7-.2 1.1-.2.5 0 .9 0 1.2.2l.8.5.5.8c.2.3.2.7.2 1v.7l-.3.6-.3.6-.5.5-2.7 2.5h3.7l.2.1V272.9H157.5l-.1-.2v-.7l.2-.2 3.6-3.2Z" fill="#9585A3"/><path d="M202 255v5" stroke="#9585A3" stroke-miterlimit="10"/><path d="m193.6 272.7-.1.2h-1V266l-2 1.5h-.5l-.3-.4v-.5l2.7-2h1.1v8.1Zm7.7-5a46 46 0 0 1-.2 3.4c-.1.4-.3.8-.6 1-.2.3-.5.6-.9.8l-1.4.2c-.5 0-1 0-1.3-.3-.4-.1-.7-.4-1-.6a3 3 0 0 1-.5-1 45.5 45.5 0 0 1 0-4.6l.5-1.2 1-.7 1.3-.2c.6 0 1 0 1.4.2l1 .7.5 1 .2 1.4Zm-5 2.1c0 .8.2 1.3.5 1.7.3.3.8.5 1.4.5.7 0 1.1-.2 1.5-.5.3-.4.5-1 .5-1.7a45.5 45.5 0 0 0 0-2c0-.8-.2-1.3-.5-1.7-.4-.4-.8-.6-1.5-.6-.6 0-1 .2-1.4.6-.3.4-.5 1-.5 1.7a46 46 0 0 0 0 2Zm9.9-5.9.1-.2.4-.1H207.3V264l-4 9.7-.2.3H202.2v-.2l4-9.8Zm3 7 .2.4.4.4.5.2a3.7 3.7 0 0 0 1.7 0l.6-.3a1.4 1.4 0 0 0 .5-1.1l-.1-.6a1 1 0 0 0-.4-.5l-.6-.2h-1.7l-.3-.2v-.8l.1-.2 2.2-2.3h-3.5l-.2-.1V264.7l.2-.1h5v1l-.1.1-2.2 2.3 1.1.2a2.3 2.3 0 0 1 1.6 2.3c0 .4 0 .8-.2 1.1l-.6.8-1 .5-1.1.2c-.6 0-1 0-1.4-.2l-1-.5-.6-.7a2 2 0 0 1-.2-.7l.1-.2.2-.1h.8v.3Z" fill="#9585A3"/><path d="M253 255v5" stroke="#9585A3" stroke-miterlimit="10"/><path d="m244.7 272.7-.1.2h-1V266l-2 1.5h-.5l-.3-.4v-.5l2.7-2h1.1v8.1Zm7.7-5a46 46 0 0 1-.2 3.4l-.5 1-1 .8-1.4.2c-.5 0-1 0-1.3-.3-.4-.1-.7-.4-1-.6a3 3 0 0 1-.5-1 45.5 45.5 0 0 1 0-4.6l.5-1.2 1-.7 1.3-.2c.6 0 1 0 1.4.2l1 .7.5 1 .2 1.4Zm-5 2.1c0 .8.2 1.3.5 1.7.3.3.8.5 1.4.5.7 0 1.1-.2 1.5-.5.3-.4.5-1 .5-1.7a45.5 45.5 0 0 0 0-2c0-.8-.2-1.3-.5-1.7-.4-.4-.8-.6-1.5-.6-.6 0-1 .2-1.4.6-.3.4-.5 1-.5 1.7a46 46 0 0 0 0 2Zm9.9-5.9s0-.2.2-.2l.3-.1H258.4V264l-4 9.7-.2.3H253.3v-.2l4-9.8Zm5.5 9h-.2V271h-4.1v-.8a.6.6 0 0 1 0-.4l3.9-5 .2-.1.2-.1h.8v5.3h1l.3.1.1.2v.7l-.3.1h-1v1.7l-.1.2h-.8Zm-.3-3v-3.4L260 270h2.6Z" fill="#9585A3"/><path d="M303.8 255v5" stroke="#9585A3" stroke-miterlimit="10"/><path d="M295.3 272.7v.2h-1l-.1-.2V266l-2 1.5s-.1.1-.2 0h-.2l-.3-.4v-.5l2.6-2h1.1l.1.3v7.8Zm7.8-5a46 46 0 0 1-.2 3.4c-.1.4-.3.8-.6 1-.2.3-.5.6-1 .8l-1.3.2c-.5 0-1 0-1.4-.3l-.9-.6a3 3 0 0 1-.6-1 45.5 45.5 0 0 1 0-4.6l.6-1.2 1-.7 1.3-.2c.5 0 1 0 1.4.2l1 .7.5 1 .2 1.4Zm-5 2.1c0 .8.2 1.3.5 1.7.3.3.8.5 1.4.5.6 0 1.1-.2 1.4-.5.4-.4.5-1 .5-1.7a45.5 45.5 0 0 0 0-2c0-.8-.1-1.3-.5-1.7-.3-.4-.8-.6-1.4-.6-.6 0-1 .2-1.4.6-.3.4-.5 1-.5 1.7a46 46 0 0 0 0 2Zm9.8-5.9.2-.2.4-.1h.5l.1.2v.1l-4 9.7-.2.3H304l-.1-.2 4-9.8Zm3 6.9c.2.4.4.7.7.9.4.2.8.3 1.3.3h.7l.6-.4.4-.6.2-.7a1.7 1.7 0 0 0-.6-1.3l-.6-.4a2.5 2.5 0 0 0-1.5 0 2 2 0 0 0-.4.3l-.3.2H310.3l-.1-.2.3-4 .1-.2.3-.1h4.4l.1.3v.7h-3.8l-.2 2.1.6-.1.9-.1c.4 0 .8 0 1.1.2a2.7 2.7 0 0 1 2 2.6l-.3 1.2a2.7 2.7 0 0 1-1.7 1.4l-1.1.2a4 4 0 0 1-1.2-.2c-.3 0-.7-.2-1-.4l-.6-.8a2 2 0 0 1-.3-.9l.1-.2H310.8l.2.2Z" fill="#9585A3"/><path d="M354.7 255v5" stroke="#9585A3" stroke-miterlimit="10"/><path d="M346.4 272.7v.2h-1l-.1-.2V266l-2 1.5s-.1.1-.2 0h-.2l-.3-.4v-.5l2.6-2h1.1l.1.3v7.8Zm7.8-5a46 46 0 0 1-.2 3.4c-.2.4-.3.8-.6 1-.2.3-.6.6-1 .8l-1.3.2c-.5 0-1 0-1.4-.3l-.9-.6a3 3 0 0 1-.6-1 45.5 45.5 0 0 1 0-4.6l.6-1.2c.2-.3.6-.5 1-.7l1.3-.2c.5 0 1 0 1.4.2l1 .7.5 1 .2 1.4Zm-5 2.1c0 .8.2 1.3.5 1.7.3.3.8.5 1.4.5.6 0 1.1-.2 1.4-.5.3-.4.5-1 .5-1.7a45.5 45.5 0 0 0 0-2c0-.8-.2-1.3-.5-1.7-.3-.4-.8-.6-1.4-.6-.6 0-1.1.2-1.4.6-.3.4-.5 1-.5 1.7a46 46 0 0 0 0 2Zm9.8-5.9.2-.2.4-.1h.5l.1.2v.1l-4 9.7-.2.3h-.9l-.1-.2 4-9.8Zm4.1 3.5h.4a3.3 3.3 0 0 1 2.3.8c.2.2.5.5.6.9.2.3.2.7.2 1.1 0 .4 0 .8-.2 1.2l-.6.9a3 3 0 0 1-1 .6l-1.3.2c-.4 0-.8 0-1.2-.2l-1-.6a2.8 2.8 0 0 1-.6-3.3 5.1 5.1 0 0 1 .6-1l2.2-3.2.1-.1.3-.1h.8v.4l-1.6 2.4Zm-1.5 2.8.1.7a1.9 1.9 0 0 0 1.8 1.1l.9-.1.6-.4.4-.6a1.7 1.7 0 0 0 0-1.4 1.7 1.7 0 0 0-1-1 2 2 0 0 0-.9-.1c-.3 0-.5 0-.8.2a1.8 1.8 0 0 0-1.1 1.6Z" fill="#9585A3"/><path d="M405.5 255v5" stroke="#9585A3" stroke-miterlimit="10"/><path d="M397.4 272.7v.2h-1V266l-2 1.5h-.5l-.3-.4v-.5l2.6-2h1.2v8.1Zm7.8-5a46 46 0 0 1-.2 3.4c-.1.4-.3.8-.6 1-.2.3-.5.6-.9.8l-1.4.2c-.5 0-1 0-1.3-.3-.4-.1-.7-.4-1-.6a3 3 0 0 1-.5-1 45.5 45.5 0 0 1 0-4.6l.5-1.2 1-.7 1.3-.2c.6 0 1 0 1.4.2l1 .7.5 1 .2 1.4Zm-5 2.1c0 .8.2 1.3.5 1.7.3.3.8.5 1.4.5.7 0 1.1-.2 1.5-.5.3-.4.5-1 .5-1.7a45.5 45.5 0 0 0 0-2c0-.8-.2-1.3-.5-1.7-.4-.4-.8-.6-1.5-.6-.6 0-1 .2-1.4.6-.3.4-.5 1-.5 1.7a46 46 0 0 0 0 2Zm9.9-5.9.1-.2.4-.1H411.2V264l-4 9.7-.2.3H406.1v-.2l4-9.8Zm7 .7h.2l.1.3v.7l-.1.2-2.7 6.9-.1.2h-1V272.6l2.6-7H412l-.1-.3V264.7l.3-.1h4.9Z" fill="#9585A3"/><path d="M456.4 255v5" stroke="#9585A3" stroke-miterlimit="10"/><path d="M447.8 272.7v.2h-1l-.1-.2V266l-2 1.5s0 .1-.2 0h-.2l-.3-.4v-.5l2.6-2h1.1l.1.3v7.8Zm7.8-5a46 46 0 0 1-.2 3.4c-.1.4-.3.8-.6 1-.2.3-.5.6-1 .8l-1.3.2c-.5 0-1 0-1.3-.3-.4-.1-.7-.4-1-.6a3 3 0 0 1-.5-1 45.5 45.5 0 0 1 0-4.6c0-.5.3-.9.5-1.2l1-.7 1.3-.2c.6 0 1 0 1.4.2l1 .7.5 1 .2 1.4Zm-5 2.1c0 .8.2 1.3.5 1.7.3.3.8.5 1.4.5.7 0 1.1-.2 1.4-.5.4-.4.5-1 .6-1.7a45.5 45.5 0 0 0 0-2c0-.8-.2-1.3-.6-1.7-.3-.4-.7-.6-1.4-.6-.6 0-1 .2-1.4.6-.3.4-.5 1-.5 1.7a46 46 0 0 0 0 2Zm9.9-5.9.1-.2.4-.1H461.6V264l-4 9.7-.2.3H456.5v-.2l4-9.8Zm1.9 6.7c0-.4 0-.8.3-1.1l.8-1c-.3-.1-.5-.4-.7-.7l-.2-1a2.1 2.1 0 0 1 .8-1.6c.2-.3.5-.4.9-.5a3.2 3.2 0 0 1 2.2 0c.3 0 .6.2.9.5l.6.7a2 2 0 0 1 0 2l-.8.7c.4.2.7.5.9.9.2.3.3.7.3 1 0 .4 0 .8-.2 1l-.7.9a3.1 3.1 0 0 1-2.1.7c-.5 0-.9 0-1.2-.2l-1-.5c-.3-.3-.5-.5-.6-.8-.2-.3-.2-.7-.2-1Zm1.1 0 .1.6.4.4.6.3.8.1h.7l.6-.4.4-.4a1.2 1.2 0 0 0 0-1.2l-.4-.4-.6-.3-.7-.1a2.3 2.3 0 0 0-1.4.4l-.4.4v.6Zm.2-3.8c0 .2 0 .4.2.5 0 .2.2.3.3.4l.5.3H466l.6-.3a1.2 1.2 0 0 0 .4-.9v-.5l-.4-.4-.6-.3H464.7l-.5.3-.3.4-.2.5Z" fill="#9585A3"/><path d="M507.2 255v5" stroke="#9585A3" stroke-miterlimit="10"/><path d="m498.8 272.7-.1.2h-1V266l-2 1.5h-.5l-.3-.4v-.2l.1-.3 2.6-2h1.1v8.1Zm7.7-5a46 46 0 0 1-.2 3.4l-.5 1-1 .8-1.3.2c-.6 0-1 0-1.4-.3-.4-.1-.7-.4-1-.6a3 3 0 0 1-.5-1 45.5 45.5 0 0 1 0-4.6c.1-.5.3-.9.6-1.2.2-.3.5-.5.9-.7l1.4-.2c.5 0 1 0 1.3.2l1 .7.5 1 .2 1.4Zm-5 2.1c0 .8.2 1.3.5 1.7.4.3.8.5 1.5.5.6 0 1-.2 1.4-.5.3-.4.5-1 .5-1.7a45.5 45.5 0 0 0 0-2c0-.8-.2-1.3-.5-1.7-.3-.4-.8-.6-1.4-.6-.7 0-1.1.2-1.5.6-.3.4-.5 1-.5 1.7a46 46 0 0 0 0 2Zm9.9-5.9s0-.2.2-.2l.3-.1H512.5V264l-4 9.7c0 .1 0 .2-.2.3H507.4v-.2l4-9.8Zm5.2 6.2H516.3c-.4 0-.7 0-1-.2a2.8 2.8 0 0 1-1.6-1.4c-.3-.3-.4-.8-.4-1.2a2.6 2.6 0 0 1 .9-2 3.1 3.1 0 0 1 2.1-.8c.5 0 .9 0 1.3.2a2.7 2.7 0 0 1 1.5 1.5c.2.3.2.7.2 1v.7a4.1 4.1 0 0 1-.6 1.1l-.3.5-2.2 3.2-.1.2H515l-.1-.2v-.1l1.7-2.5Zm1.6-2.8a1.7 1.7 0 0 0-.5-1.3l-.6-.3-.8-.2c-.3 0-.5 0-.7.2-.3 0-.5.2-.6.3l-.4.6-.1.7v.7l.5.6a2 2 0 0 0 1.3.4h.8l.6-.4.4-.6.1-.7Z" fill="#9585A3"/><path d="M558 255v5" stroke="#9585A3" stroke-miterlimit="10"/><path d="m546.8 272.7-.1.2h-1V266l-2 1.5s-.2.1-.2 0h-.3l-.3-.4v-.2l.1-.3 2.6-2h1.1v8.1Zm7.7-5a46 46 0 0 1-.2 3.4l-.5 1-1 .8-1.3.2c-.6 0-1 0-1.4-.3-.4-.1-.7-.4-1-.6a3 3 0 0 1-.5-1 45.5 45.5 0 0 1 0-4.6c.1-.5.3-.9.6-1.2.2-.3.5-.5.9-.7l1.4-.2c.5 0 1 0 1.3.2l1 .7.5 1c.2.5.2 1 .2 1.4Zm-5 2.1c0 .8.2 1.3.5 1.7.4.3.8.5 1.5.5.6 0 1-.2 1.4-.5.3-.4.5-1 .5-1.7a45.5 45.5 0 0 0 0-2c0-.8-.2-1.3-.5-1.7-.3-.4-.8-.6-1.4-.6-.7 0-1.1.2-1.5.6-.3.4-.5 1-.5 1.7a46 46 0 0 0 0 2Zm9.9-5.9s0-.2.2-.2l.3-.1H560.5V264l-4 9.7c0 .1 0 .2-.2.3H555.4v-.2l4-9.8Zm5.6 8.8v.2h-1l-.1-.2V266l-2 1.5s0 .1-.2 0h-.2l-.3-.4v-.5l2.6-2h1.1l.1.3v7.8Zm7.8-5a46 46 0 0 1-.2 3.4c-.1.4-.3.8-.6 1-.2.3-.5.6-1 .8l-1.3.2c-.5 0-1 0-1.3-.3-.4-.1-.7-.4-1-.6a3 3 0 0 1-.5-1 45.5 45.5 0 0 1 0-4.6c0-.5.3-.9.5-1.2l1-.7 1.3-.2c.6 0 1 0 1.4.2l1 .7.5 1 .2 1.4Zm-5 2.1c0 .8.2 1.3.5 1.7.3.3.8.5 1.4.5.7 0 1.1-.2 1.5-.5.3-.4.5-1 .5-1.7a45.5 45.5 0 0 0 0-2c0-.8-.2-1.3-.5-1.7-.4-.4-.8-.6-1.5-.6-.6 0-1 .2-1.4.6-.3.4-.5 1-.5 1.7a46 46 0 0 0 0 2Z" fill="#9585A3"/><path d="M609 255v5" stroke="#9585A3" stroke-miterlimit="10"/><path d="m599 272.7-.2.2H598l-.1-.2V266l-2 1.5s-.1.1-.2 0h-.2l-.3-.4s-.1-.2 0-.2v-.3l2.6-2h1.1l.1.3v7.8Zm7.7-5a46 46 0 0 1-.2 3.4l-.6 1c-.2.3-.6.6-1 .8l-1.3.2c-.5 0-1 0-1.4-.3l-1-.6a3 3 0 0 1-.5-1 45.5 45.5 0 0 1 0-4.6c.2-.5.3-.9.6-1.2.2-.3.6-.5 1-.7l1.3-.2c.5 0 1 0 1.4.2.3.2.7.4.9.7.3.3.4.7.6 1l.2 1.4Zm-5 2.1c0 .8.1 1.3.5 1.7.3.3.8.5 1.4.5.6 0 1-.2 1.4-.5.3-.4.5-1 .5-1.7a45.5 45.5 0 0 0 0-2c0-.8-.2-1.3-.5-1.7-.3-.4-.8-.6-1.4-.6-.6 0-1.1.2-1.4.6-.4.4-.5 1-.5 1.7a46 46 0 0 0 0 2Zm9.8-5.9.2-.2.3-.1H612.6l.1.2v.1l-4 9.7-.2.3h-1v-.2l4-9.8Zm5.7 8.8-.1.2h-1V266l-2 1.5s-.2.1-.2 0h-.3l-.3-.4v-.2l.1-.3 2.6-2h1.1v8.1Zm5 0v.2h-1l-.1-.2V266l-2 1.5s-.1.1-.2 0h-.2l-.3-.4v-.5l2.6-2h1.1l.1.3v7.8Z" fill="#9585A3"/><path d="m618.2 109.7 8.7-.2V255h-556V61.7l8.7 1.6 8.6 3.7 8.7-1.5 8.7 1 8.7 1L123 66l8.7-1.8 8.7 4.2 8.7 4.5 8.6 1.5 8.4-8.9 9 17.6 8.7-10.9 8.7 2.5 8.7-.3 8.7-1 8.7 32.6 8.6 2.9 8.7 1.7 8.7 40.4 8.7-.1 8.7-.3 7.8 61.3L279.4 79l8.7-10.5 8.6.2 8.7 1.1 8.7-3.6 8.7 2.5 8.7-2.6 8.7 2.7 8.7 1.5 8.7-3.6 8.6 3 8.7 45 8.7-30 8.7 16 8.9-4.7 8.5-19 8.7 24 8.7 9.2 8.6-10.6 8.7 3.4 8.7 1.7 8.7-5.1 8.7-14 8.7-5.8 8.7-3.3 8.7 30.4 8.6-3.7 8.7 1.6 8.7-2.2 8.7-6.6 8.7-11.4 8.7.2 8.7-.2 8.7 6 8.6 12.2 11.9-36.2 5.5 19.2 8.7 16.8 8.7 5.6 8.7 1.5Z" fill="#444674"/><path d="M643.9 212.5h-572" stroke="#F55459" stroke-width="1.5" stroke-dasharray="4 4"/><path d="M642.9 129h-572" stroke="#FFC227" stroke-width="1.5" stroke-dasharray="4 4"/><path d="M626.9 85.5h-555" stroke="#33BF9E" stroke-width="1.5" stroke-dasharray="4 4"/><path d="M70.9 255h556" stroke="#9585A3" stroke-miterlimit="10" stroke-linecap="round"/><path d="M784.9 166.5h-438c-2 0-3.5 1.5-3.5 3.5v179c0 2 1.5 3.5 3.5 3.5h438c1.9 0 3.5-1.6 3.5-3.5V170c0-2-1.6-3.5-3.5-3.5Z" fill="#fff" stroke="#C6BECF"/><path d="M361.9 192a4 4 0 1 0 0-8 4 4 0 0 0 0 8Z" fill="#F55459"/><path d="M376.3 187a31 31 0 0 0 0 2.7c0 1 .3 1.6.8 2.2.6.5 1.3.8 2.2.8.5 0 1 0 1.3-.2.4-.1.7-.3.9-.5l.5-.7c.2-.2.2-.5.3-.8 0 0 0-.2.2-.2l.2-.1h1l.1.3c0 .4 0 .8-.3 1.2-.1.4-.4.8-.8 1.2l-1.3.9a5 5 0 0 1-2 .3 4.4 4.4 0 0 1-3.3-1.2 4 4 0 0 1-1-1.3l-.3-1.8V187c0-.7.2-1.2.4-1.8.2-.5.5-1 .9-1.3.4-.4.8-.7 1.4-1 .5-.2 1.1-.3 1.8-.3a5 5 0 0 1 2 .4 4.1 4.1 0 0 1 2.2 2l.3 1.2-.1.3h-1.2c-.1 0-.2-.1-.2-.3 0-.2-.1-.5-.3-.7a2 2 0 0 0-.5-.8c-.2-.2-.5-.3-.9-.4-.3-.2-.8-.2-1.3-.2-1 0-1.6.2-2.2.8-.5.5-.7 1.3-.8 2.1Zm13.7-1.3h.3v1.2l-.3.1h-1c-1.2 0-1.8.7-1.8 1.9v4.7l-.1.3h-1.2l-.2-.3V186c0-.1 0-.2.2-.3l.3-.1H387v.9c.3-.3.6-.6.9-.7.3-.2.6-.2 1.1-.2h.9Zm3.2 7.9v.3h-1.3l-.1-.3V186l.1-.3.3-.1H393.1l.1.4v7.5Zm.2-9.6-.1.3-.3.1h-1l-.2-.1-.2-.3v-1s0-.2.2-.3h1.5l.1.4v.9Zm4.4 7.2v.6l.3.4.4.3.7.1h.8l.3.1.1.3V194H399c-1 0-1.6-.2-2-.6-.4-.5-.6-1.2-.6-2.1V187h-1.5l-.2-.4v-.5c0-.1 0-.2.2-.3l.3-.1h1.2v-2.9l.4-.2h.6c.1 0 .2 0 .3.2l.1.3v2.6h2.4v1.2l-.3.1h-2v4.2Zm5.7 2.4-.1.3h-1.2l-.2-.3V186c0-.1 0-.2.2-.3l.3-.1H403.4l.1.4v7.5Zm.2-9.6s0 .2-.2.3l-.3.1h-.9l-.3-.1-.1-.3v-1l.1-.3h1.5l.2.4v.9Zm3.3 6.4c0 .4.1.8.3 1 .1.4.3.6.5.8l.7.4.8.2c.5 0 1-.1 1.3-.3.3-.2.6-.5.8-1l.3-.3.3-.1h.4l.3.1.2.3-.3.9c-.1.3-.4.5-.7.8a4 4 0 0 1-2.6 1 4 4 0 0 1-1.6-.3 3.5 3.5 0 0 1-1.9-2c-.2-.4-.3-1-.3-1.4a27 27 0 0 1 0-1.3l.3-1.5.8-1.1c.3-.4.7-.6 1.1-.8a4 4 0 0 1 1.6-.3 4 4 0 0 1 2.6 1c.3.2.6.5.7.8l.3.8c0 .1 0 .2-.2.3 0 .1-.1.2-.3.2h-.4l-.3-.1-.3-.4a2 2 0 0 0-.8-1 2.8 2.8 0 0 0-2.1 0 2 2 0 0 0-.7.3 2.6 2.6 0 0 0-.8 1.9v1Zm7.2 1.5a2.3 2.3 0 0 1 1-2l1-.5a8 8 0 0 1 1.3-.3l2.2-.4v-.2c0-.5-.2-1-.5-1.2a2 2 0 0 0-1.3-.4c-.5 0-.9 0-1.1.2l-.6.6-.2.2h-1.1c-.1-.1-.2-.2-.1-.4 0-.2 0-.4.2-.7.2-.2.4-.5.7-.6a4 4 0 0 1 2.2-.7c.4 0 .9 0 1.3.2.4.1.8.4 1 .6.3.3.6.6.7 1 .2.4.3.9.3 1.4v4.9l-.1.3h-1.2l-.2-.3v-.7c0 .2-.2.4-.4.5l-.7.4a4 4 0 0 1-1.6.3l-1.2-.1a3 3 0 0 1-.9-.5l-.5-.7-.2-1Zm3 .9c.3 0 .7 0 1-.2l.8-.5.5-.7c.2-.3.2-.7.2-1v-.4l-1.9.3-1.6.5c-.4.2-.6.6-.6 1l.1.3.3.3.4.3h.7Zm7.8.8s0 .2-.2.3h-1.2V182.8l.3-.2h.6c.2 0 .3 0 .3.2.1 0 .2.1.2.3v10.5Zm9.9-11a4.5 4.5 0 0 1 3 1l.8 1 .3 1-.1.2h-1.2c-.1 0-.2-.1-.2-.3l-.3-.4a2.7 2.7 0 0 0-1.2-.9l-1.1-.1a3.3 3.3 0 0 0-1.6.4l-.5.5-.2.7c0 .3 0 .5.2.7l.6.6 1 .4a43.5 43.5 0 0 0 3 1c.5.1.8.3 1.1.6.3.2.5.5.6.8l.2 1c0 .6-.1 1-.3 1.4a3 3 0 0 1-.9 1l-1.4.7a6 6 0 0 1-3.4 0l-1.4-.7-.9-1c-.2-.3-.3-.7-.3-1v-.3h1.3l.2.3.3.5a2.7 2.7 0 0 0 1.3.8l1.2.2 1-.1 1-.4c.2-.2.4-.3.5-.6.2-.2.3-.4.3-.7 0-.3-.1-.5-.3-.7l-.7-.6-1.2-.4a36.5 36.5 0 0 0-3-1l-.9-.6-.5-.9-.1-1a2.9 2.9 0 0 1 1-2.1l1.1-.7c.5-.2 1-.3 1.7-.3Zm8.4 8.6.1.6.2.4.4.3.7.1h.8l.3.1.2.3v.6s0 .2-.2.3h-1.3c-.9 0-1.6-.2-2-.6-.4-.5-.6-1.2-.6-2.1V187h-1.5l-.1-.4v-.5l.1-.3.3-.1h1.2V183l.1-.3.3-.2h.6c.1 0 .2 0 .3.2l.1.3v2.6h2.4l.1.4v.5l-.1.3-.3.1h-2v4.2Zm3.7.7a2.3 2.3 0 0 1 1-2l1-.5a8 8 0 0 1 1.3-.3l2.2-.4v-.2c0-.5-.2-1-.5-1.2a2 2 0 0 0-1.3-.4c-.5 0-.9 0-1.1.2l-.6.6-.2.2h-1.1l-.2-.4.3-.7c.2-.2.4-.5.7-.6a4 4 0 0 1 2.2-.7c.4 0 .9 0 1.3.2.4.1.7.4 1 .6.3.3.6.6.7 1 .2.4.3.9.3 1.4v4.9l-.1.3h-1.2l-.2-.3v-.7c0 .2-.2.4-.4.5l-.7.4a4 4 0 0 1-1.6.3l-1.2-.1a3 3 0 0 1-.9-.5l-.5-.7-.2-1Zm3 .9c.3 0 .7 0 1-.2l.8-.5.5-.7c.2-.3.2-.7.2-1v-.4l-1.9.3-1.6.5c-.4.2-.6.6-.6 1l.1.3.3.3.4.3h.7Zm8.4-1.6v.6l.3.4.4.3.6.1h.9l.3.1.1.3v.6l-.1.3h-1.3c-1 0-1.6-.2-2-.6-.5-.5-.7-1.2-.7-2.1V187H455.5l-.2-.4v-.5c0-.1 0-.2.2-.3l.3-.1h1.1V183c0-.2 0-.3.2-.3l.3-.2h.6s.2 0 .3.2l.1.3v2.6h2.3l.2.4v.5c0 .1 0 .2-.2.3l-.3.1h-2v4.2Zm4.1-5.1c0-.1 0-.2.2-.3l.3-.1H463.9l.1.4v4.2c0 .8.2 1.5.5 1.9.4.4 1 .6 1.7.6a2 2 0 0 0 1.5-.6c.4-.4.6-1 .6-1.9v-4.2c0-.1 0-.2.2-.3l.3-.1h.8l.2.4v7.5s0 .2-.2.3h-1.1l-.2-.3v-.5l-.8.7a3 3 0 0 1-1.6.3c-.5 0-1 0-1.4-.2l-1-.7c-.3-.3-.6-.7-.7-1.1l-.3-1.5V186Zm14.4 5.6c0-.2 0-.4-.2-.5 0-.2-.2-.3-.5-.4l-.8-.2-1.2-.3c-.9-.2-1.5-.5-1.9-1a2.3 2.3 0 0 1 .3-3c.3-.3.6-.5 1-.6l1.3-.2c.6 0 1 0 1.4.2.4 0 .7.2 1 .4l.6.6.2.6-.1.3-.3.1h-.8l-.2-.2-.6-.4c-.3-.2-.7-.2-1.2-.2-.4 0-.8 0-1.2.3-.3.1-.4.4-.4.7l.1.5.4.3.8.3 1.2.2 1.2.4.8.6c.2.2.4.4.4.7l.2.8-.3 1-.6.7-1 .5c-.5.2-1 .2-1.5.2a4.6 4.6 0 0 1-2.4-.6l-.7-.6-.2-.6v-.4h1.2l.2.1c.2.3.5.4.8.6l1.1.2a3 3 0 0 0 1.3-.3l.4-.4c.2-.1.2-.3.2-.4Z" fill="#2B1D38"/><path d="M361.9 254a4 4 0 1 0 0-8 4 4 0 0 0 0 8Z" fill="#FFC227"/><path d="m380.5 247.3.4.1.1.3 1.8 6.4 1.6-8.9.2-.3.3-.1H385.8l.1.3v.2l-2 9.8-.2.7-.6.2h-.6c-.3 0-.4 0-.6-.2l-.2-.7-1.5-5.3-1.5 5.3-.2.7-.6.2h-.6c-.3 0-.5 0-.6-.2l-.2-.7-2-9.8v-.2l.1-.2.3-.1H375.8l.2.4 1.6 8.9 1.8-6.4.1-.3.4-.1h.6Zm6.2 6.6a2.3 2.3 0 0 1 1-2l1-.5a8 8 0 0 1 1.3-.3l2.3-.4v-.2c0-.5-.2-1-.6-1.2a2 2 0 0 0-1.3-.4c-.5 0-.8 0-1 .2l-.7.6-.2.2h-1.1l-.1-.4.3-.7.6-.6a4 4 0 0 1 2.2-.7c.5 0 1 0 1.3.2.4.1.8.4 1 .6.4.3.6.6.8 1l.2 1.4v4.9l-.1.3h-1.2l-.1-.3v-.7l-.5.5-.7.4a4 4 0 0 1-1.6.3l-1.1-.1a3 3 0 0 1-1-.5l-.5-.7-.2-1Zm3 .9c.4 0 .7 0 1-.2.4-.1.6-.3.9-.5l.5-.7.2-1v-.4l-2 .3-1.5.5c-.4.2-.6.6-.6 1v.3l.3.3.5.3h.7Zm10.6-7.1h.3l.1.4v.5l-.1.3-.3.1h-1c-1.2 0-1.8.7-1.8 1.9v4.7l-.1.3h-1.2l-.1-.3v-7.8l.4-.1H397.4l.1.4v.5c.2-.3.5-.6.8-.7.3-.2.7-.2 1.2-.2h.8Zm9.2 7.9-.1.3h-1.2l-.2-.3v-4.3c0-.8-.1-1.4-.5-1.8-.4-.4-1-.6-1.7-.6s-1.2.2-1.6.6c-.4.4-.6 1-.6 1.8v4.3s0 .2-.2.3h-1.2v-8.1l.3-.1H403.4l.2.4v.5c.2-.3.5-.5.9-.7.4-.3.9-.4 1.5-.4.5 0 1 0 1.4.3.5.1.8.4 1.1.7.3.3.6.6.7 1 .2.5.3 1 .3 1.6v4.5Zm3.8 0-.1.3H412l-.2-.3V248c0-.1 0-.2.2-.3l.3-.1H413.2v7.9Zm.1-9.6v.3l-.4.1h-.9l-.3-.1-.1-.3v-1l.1-.3h1.5l.1.4v.9Zm9.7 9.6-.1.3h-1.2l-.2-.3v-4.3c0-.8-.2-1.4-.6-1.8-.4-.4-1-.6-1.6-.6-.7 0-1.2.2-1.6.6-.5.4-.7 1-.7 1.8v4.6h-1.3l-.1-.3V248l.1-.3.3-.1H417l.1.4v.5c.2-.3.5-.5 1-.7.3-.3.9-.4 1.5-.4.5 0 1 0 1.4.3.4.1.8.4 1.1.7.3.3.6.6.7 1 .2.5.3 1 .3 1.6v4.5Zm2-4.3c0-.6 0-1.1.2-1.6a3.6 3.6 0 0 1 2-2l1.3-.2a3 3 0 0 1 1.6.4l1 .7v-.8l.4-.1h.8l.2.4v7.8c0 1-.3 2-1 2.6-.6.7-1.5 1-2.8 1a5 5 0 0 1-1.6-.2l-1.2-.6c-.3-.2-.5-.5-.6-.8a2 2 0 0 1-.2-.8v-.3l.4-.1h.8l.2.4.1.3.4.3.6.3 1 .1h1l.7-.4.5-.7c.2-.2.2-.6.2-1v-1c-.2.3-.5.6-.9.8-.4.2-1 .3-1.6.3-.5 0-1 0-1.4-.2a3.5 3.5 0 0 1-1.9-2 4.9 4.9 0 0 1-.3-2v-.6Zm6 0c0-.8-.2-1.4-.7-1.8-.4-.4-1-.6-1.6-.6-.7 0-1.3.2-1.7.7-.4.4-.6 1-.6 1.8v.9c0 .7.2 1.3.6 1.8.4.4 1 .7 1.7.7s1.2-.2 1.6-.7c.5-.4.7-1 .7-1.7a9.3 9.3 0 0 0 0-1.2Zm11.4-6.7a4.5 4.5 0 0 1 3 1l.8 1 .3 1-.1.2h-1.2c-.1 0-.2-.1-.2-.3l-.3-.4a2.7 2.7 0 0 0-1.2-.9l-1.1-.1a3.3 3.3 0 0 0-1.6.4l-.5.5-.2.7c0 .3 0 .5.2.7l.6.6 1 .4a43.5 43.5 0 0 0 3 1c.5.1.8.3 1.1.6.3.2.5.5.6.8l.2 1c0 .6-.1 1-.3 1.4a3 3 0 0 1-1 1c-.3.3-.7.5-1.3.7a6 6 0 0 1-3.4 0l-1.4-.7c-.4-.3-.7-.6-.9-1-.2-.3-.3-.7-.3-1v-.3h1.3l.2.3.3.5a2.7 2.7 0 0 0 1.3.8l1.2.2 1-.1 1-.4c.2-.2.4-.3.5-.6.2-.2.3-.4.3-.7 0-.3-.1-.5-.3-.7l-.7-.6-1.2-.4a36.5 36.5 0 0 0-3-1l-.9-.6-.5-.9-.1-1a2.9 2.9 0 0 1 1-2.1c.2-.3.6-.5 1.1-.7.5-.2 1-.3 1.7-.3Zm8.4 8.6v.6l.3.4.4.3.7.1h.8l.3.1.2.3v.6s0 .2-.2.3h-1.3c-.9 0-1.6-.2-2-.6-.4-.5-.6-1.2-.6-2.1V249H448l-.1-.4v-.5l.1-.3.3-.1h1.2V245l.1-.3.3-.2h.6c.1 0 .2 0 .3.2l.1.3v2.6h2.4l.1.4v.5l-.1.3-.3.1h-2v4.2Zm3.7.7a2.4 2.4 0 0 1 1-2l1-.5a8 8 0 0 1 1.3-.3l2.2-.4v-.2c0-.5-.2-1-.5-1.2a2 2 0 0 0-1.4-.4c-.4 0-.8 0-1 .2l-.6.6-.2.2h-1.1l-.2-.4.3-.7c.2-.2.4-.5.7-.6a4 4 0 0 1 2.1-.7c.5 0 1 0 1.4.2.4.1.7.4 1 .6.3.3.6.6.7 1 .2.4.3.9.3 1.4v4.9s0 .2-.2.3h-1.2v-1l-.5.5-.7.4a4 4 0 0 1-1.6.3l-1.2-.1a3 3 0 0 1-.9-.5l-.5-.7c-.2-.3-.2-.6-.2-1Zm3 .9c.3 0 .7 0 1-.2l.8-.5.5-.7c.2-.3.2-.7.2-1v-.4l-1.9.3-1.6.5c-.4.2-.6.6-.6 1l.1.3.3.3.4.3h.7Zm8.4-1.6v.6l.2.4.4.3.7.1h.9l.3.1.1.3v.6l-.1.3h-1.3c-1 0-1.6-.2-2-.6-.5-.5-.7-1.2-.7-2.1V249H463v-1.2l.4-.1h1.1V245c0-.2 0-.3.2-.3 0-.1.1-.2.3-.2h.6s.2 0 .3.2v2.9h2.4l.2.4v.5c0 .1 0 .2-.2.3l-.3.1h-2v4.2Zm4.1-5.1c0-.1 0-.2.2-.3l.3-.1H471.5l.1.4v4.2c0 .8.2 1.5.5 1.9.4.4 1 .6 1.7.6a2 2 0 0 0 1.5-.6c.4-.4.6-1 .6-1.9v-4.2l.1-.3.3-.1H477.2l.2.4v7.5s0 .2-.2.3H476v-.8l-1 .7a3 3 0 0 1-1.5.3c-.5 0-1 0-1.4-.2l-1-.7c-.3-.3-.6-.7-.7-1.1l-.3-1.5V248Zm14.4 5.6c0-.2 0-.4-.2-.5 0-.2-.2-.3-.5-.4l-.8-.2-1.2-.3c-.9-.2-1.5-.5-1.9-1a2.3 2.3 0 0 1 .3-3c.3-.3.6-.5 1-.6l1.3-.2c.6 0 1 0 1.4.2.4 0 .7.2 1 .4l.6.6.2.6-.1.3-.3.1h-.8l-.2-.2-.6-.4c-.3-.2-.7-.2-1.2-.2s-.9 0-1.2.3c-.3.1-.4.4-.4.7l.1.5.4.3.8.3 1.2.2 1.2.4.8.6.4.7.2.8-.3 1-.6.7-1 .5c-.5.2-1 .2-1.5.2a4.6 4.6 0 0 1-2.4-.6l-.7-.6-.2-.6v-.4h1.2l.2.1.7.6 1.2.2a3 3 0 0 0 1.3-.3l.4-.4.2-.4Z" fill="#2B1D38"/><path d="M361.9 316a4 4 0 1 0 0-8 4 4 0 0 0 0 8Z" fill="#33BF9E"/><path d="M379.5 306.8c.6 0 1 0 1.5.2.5.1.9.3 1.2.6.4.2.7.6.9 1 .2.4.3 1 .3 1.5a3 3 0 0 1-2.3 3.1l2.4 4.3v.4H382c0-.2-.1-.3-.2-.3l-2.3-4.1h-2.7v4c0 .2 0 .3-.2.4h-1.2l-.2-.3v-10.4c0-.1 0-.2.2-.3l.3-.1h3.8Zm-2.7 5.2h2.7a3 3 0 0 0 1.7-.4c.5-.3.7-.8.7-1.5s-.2-1.2-.7-1.4c-.4-.3-1-.5-1.7-.5h-2.7v3.8Zm8.2 1a4.2 4.2 0 0 1 1.1-2.5l1.1-.7c.4-.2 1-.3 1.5-.3l1.5.3c.5.2.8.4 1.2.8.3.3.5.8.7 1.3.2.5.3 1 .3 1.7v.4c0 .1 0 .2-.2.3l-.3.1h-5.5v.1c0 .7.3 1.3.7 1.7.4.4 1 .6 1.6.6.5 0 1-.1 1.3-.3l.7-.5.2-.2h1.1l.1.4-.3.6-.6.7a4 4 0 0 1-1 .4 5 5 0 0 1-1.5.2c-.6 0-1 0-1.5-.2l-1.1-.8a4 4 0 0 1-.8-1.2c-.1-.4-.3-.9-.3-1.4V313Zm1.4 0h4.5a2 2 0 0 0-.6-1.5c-.4-.4-1-.6-1.6-.6a2.3 2.3 0 0 0-1.6.6 2 2 0 0 0-.5.6l-.2 1Zm12.6 2.7c0-.2 0-.4-.2-.5 0-.2-.2-.3-.5-.4l-.8-.2-1.2-.3c-.9-.2-1.5-.5-1.8-1a2.3 2.3 0 0 1 1.2-3.6l1.4-.2c.5 0 1 0 1.3.2l1 .4.6.6.2.6v.3l-.4.1h-.8l-.2-.2c-.1-.2-.4-.3-.6-.4-.3-.2-.7-.2-1.1-.2-.5 0-1 0-1.2.3-.3.1-.5.4-.5.7l.1.5.4.3.8.3a203.4 203.4 0 0 0 2.4.6l.8.6c.2.2.4.4.4.7l.2.8-.3 1-.6.7-1 .5c-.5.2-1 .2-1.5.2a4.6 4.6 0 0 1-2.4-.6l-.7-.6-.2-.6.1-.4H395l.3.1c.1.3.4.4.7.6l1.1.2a3 3 0 0 0 1.3-.3l.5-.4.1-.4Zm6.8-6.2c.6 0 1 0 1.5.3.5.1.9.4 1.2.7l.7 1.1a4.5 4.5 0 0 1 .4 1.8v1.2c0 .5-.2 1-.4 1.4a3.3 3.3 0 0 1-1.9 1.9c-.4.2-1 .2-1.5.2-.6 0-1.1 0-1.6-.2-.4-.2-.8-.4-1.1-.8l-.8-1a4.7 4.7 0 0 1-.3-1.8V313c0-.6.1-1 .3-1.5l.8-1.1c.3-.3.7-.6 1.1-.7a4 4 0 0 1 1.6-.3Zm2.3 5a5.8 5.8 0 0 0-.2-2.2c0-.3-.2-.6-.4-.8a2 2 0 0 0-.7-.4c-.3-.2-.6-.2-1-.2s-.7 0-1 .2a2 2 0 0 0-1.1 1.2l-.3.8a6.2 6.2 0 0 0 .3 2.3c0 .3.2.5.4.7l.7.5 1 .2c.4 0 .7 0 1-.2a2 2 0 0 0 1.1-1.2l.2-1Zm5 3c0 .2 0 .3-.2.4h-1.2V306.7h1.2l.2.4v10.4Zm5.4.5-.4-.1-.1-.3-3.2-7.4v-.4l.3-.1h1c0 .2.1.3.2.3l2.4 5.9 2.5-5.9.2-.2.3-.1H422.6l.1.3v.2l-3.2 7.4-.1.3H418.5Zm5.2-5a4.2 4.2 0 0 1 1.1-2.5l1.1-.7 1.5-.3c.6 0 1 .1 1.5.3.5.2.9.4 1.2.8.3.3.6.8.7 1.3.2.5.3 1 .3 1.7v.4l-.1.3-.3.1h-5.5v.1c0 .7.2 1.3.6 1.7.4.4 1 .6 1.6.6.6 0 1-.1 1.3-.3l.7-.5.2-.2h1.1c.1.2.2.3.1.4 0 .2 0 .4-.2.6l-.7.7a4 4 0 0 1-1 .4 5 5 0 0 1-1.5.2c-.5 0-1 0-1.4-.2-.5-.2-.8-.5-1.2-.8a4 4 0 0 1-1-2.6V313Zm1.5 0h4.4a2 2 0 0 0-.6-1.5c-.4-.4-1-.6-1.6-.6a2.3 2.3 0 0 0-1.6.6 2 2 0 0 0-.5.6l-.1 1Zm11-3.5a3 3 0 0 1 1.6.4l1 .7v-3.9h1.3V318h-1.2l-.2-.3v-.5l-.9.7c-.4.2-.9.3-1.6.3-.5 0-1 0-1.4-.2-.4-.2-.8-.5-1-.8-.4-.3-.7-.7-.8-1.2a4.9 4.9 0 0 1-.4-2v-.6c0-.6.2-1.1.4-1.6a3.6 3.6 0 0 1 1.8-2l1.4-.2Zm2.5 5a9.5 9.5 0 0 0 0-1.3c0-.7-.2-1.3-.7-1.7-.4-.4-1-.6-1.6-.6-.7 0-1.3.2-1.7.7-.4.4-.6 1-.6 1.8v.9c0 .7.2 1.3.6 1.8.4.4 1 .7 1.7.7s1.2-.2 1.6-.6c.5-.4.7-1 .7-1.7Zm11.4-7.9a4.5 4.5 0 0 1 3 1l.8 1 .3 1-.1.2h-1.2s-.2-.1-.2-.3l-.3-.4a2 2 0 0 0-.5-.5l-.8-.4-1-.1a3.3 3.3 0 0 0-1.6.4l-.5.5-.2.7c0 .3 0 .5.2.7l.6.6 1 .4a44.2 44.2 0 0 0 3 1c.5.1.9.3 1.1.6.3.2.5.5.6.8l.2 1c0 .6-.1 1-.3 1.4a3 3 0 0 1-.9 1l-1.4.7a6 6 0 0 1-3.4 0l-1.4-.7-.9-1c-.2-.3-.3-.7-.3-1v-.3h1.3l.2.3.3.5a2.8 2.8 0 0 0 1.3.8l1.2.2 1-.1 1-.4c.2-.2.4-.3.5-.6.2-.2.3-.4.3-.7 0-.3-.1-.5-.3-.7l-.7-.6-1.2-.4a36 36 0 0 0-3-1l-.9-.6-.5-.9-.1-1a2.9 2.9 0 0 1 1-2.1l1.1-.7c.5-.2 1-.3 1.7-.3Zm8.5 8.6v.6l.2.4.4.3.7.1h.8l.3.1.2.3v.6s0 .2-.2.3h-1.3c-.9 0-1.6-.2-2-.6-.4-.5-.6-1.2-.6-2.1V311h-1.5l-.1-.4v-.5l.1-.3.3-.1h1.2V307l.1-.4h1.2l.2.4v2.6h2.3l.1.4v.5l-.1.3-.3.1h-2v4.2Zm3.6.7a2.3 2.3 0 0 1 1-2l1-.5a8 8 0 0 1 1.3-.3l2.2-.4v-.2c0-.5-.2-1-.5-1.2a2 2 0 0 0-1.3-.4c-.5 0-.9 0-1.1.2l-.6.6-.2.2h-1.1c-.1-.1-.2-.2-.1-.4 0-.2 0-.4.2-.7l.7-.6a4 4 0 0 1 2.2-.7c.4 0 .9 0 1.3.2.4.1.8.4 1 .6.3.3.6.6.7 1 .2.4.3.9.3 1.4v4.9l-.1.3h-1.2l-.2-.3v-.7c0 .2-.2.4-.4.5l-.7.4a4 4 0 0 1-1.6.3l-1.2-.1a3 3 0 0 1-.9-.5l-.5-.7-.2-1Zm3 .9c.3 0 .7 0 1-.2l.8-.5.5-.7c.2-.3.2-.6.2-1v-.4l-1.9.3-1.6.5c-.4.2-.6.6-.6 1l.1.3.3.3.4.3h.7Zm8.4-1.6v.6l.3.4.4.3.6.1h.9l.3.1.1.3v.6l-.1.3h-1.3c-1 0-1.6-.2-2-.6-.4-.5-.7-1.2-.7-2.1V311H470.7l-.2-.4v-.5c0-.1 0-.2.2-.3l.3-.1h1.1V307c0-.2 0-.3.2-.4h1.2l.1.4v2.6h2.3l.2.4v.5c0 .1 0 .2-.2.3l-.3.1h-2v4.2Zm4.1-5.1c0-.1 0-.2.2-.3l.3-.1H479l.1.4v4.2c0 .8.2 1.5.6 1.9.3.4.9.6 1.6.6a2 2 0 0 0 1.6-.6c.3-.4.5-1 .5-1.9v-4.2c0-.1 0-.2.2-.3l.3-.1H484.9V318h-1.2l-.2-.3v-.5l-.8.7a3 3 0 0 1-1.6.3c-.5 0-1 0-1.4-.2l-1-.7c-.3-.3-.6-.7-.7-1.1l-.3-1.5V310Zm14.4 5.6c0-.2 0-.4-.2-.5 0-.2-.2-.3-.5-.4l-.8-.2-1.2-.3c-.9-.2-1.5-.5-1.8-1-.4-.3-.6-.8-.6-1.4a2.2 2.2 0 0 1 .8-1.7l1-.5 1.3-.2c.6 0 1 0 1.4.2l1 .4.6.6.2.6-.1.3-.3.1h-.8l-.2-.2c-.1-.2-.4-.3-.6-.4-.3-.2-.7-.2-1.2-.2-.4 0-.8 0-1.2.3-.3.1-.4.4-.4.7l.1.5.4.3.8.3a203.4 203.4 0 0 0 2.4.6l.8.6c.2.2.4.4.4.7l.2.8-.3 1-.6.7-1 .5c-.5.2-1 .2-1.5.2a4.6 4.6 0 0 1-2.4-.6l-.7-.6-.2-.6v-.4h1.2l.3.1c.1.3.4.4.7.6l1.1.2a3 3 0 0 0 1.3-.3l.5-.4.1-.4Z" fill="#2B1D38"/><path d="M770.9 177.5h-54c-2 0-3.5 1.5-3.5 3.5v32c0 2 1.5 3.5 3.5 3.5h54c1.9 0 3.5-1.6 3.5-3.5v-32c0-2-1.6-3.5-3.5-3.5ZM770.9 239.5h-54c-2 0-3.5 1.5-3.5 3.5v32c0 2 1.5 3.5 3.5 3.5h54c1.9 0 3.5-1.6 3.5-3.5v-32c0-2-1.6-3.5-3.5-3.5ZM770.9 301.5h-54c-2 0-3.5 1.5-3.5 3.5v32c0 2 1.5 3.5 3.5 3.5h54c1.9 0 3.5-1.6 3.5-3.5v-32c0-2-1.6-3.5-3.5-3.5Z" fill="#fff" stroke="#C6BECF"/><path d="M342.9 228.5h446M342.9 290.5h446" stroke="#C6BECF"/><path d="M704.9 177h-97v40h97v-40Z" fill="#fff"/><path d="M676.6 193c.2 0 .4 0 .5.2l5.7 5.9 5.7-6c.3-.2.8-.2 1.2 0 .3.4.3 1 0 1.3l-6.3 6.4c-.3.3-.8.3-1.1 0l-6.2-6.4a.9.9 0 0 1 0-1.2l.5-.2Z" fill="#2B1D38"/><path d="M611.9 177.5h89v-1h-89v1Zm92.5 3.5v32h1v-32h-1Zm-3.5 35.5h-89v1h89v-1Zm-92.5-3.5v-32h-1v32h1Zm3.5 3.5c-2 0-3.5-1.6-3.5-3.5h-1c0 2.5 2 4.5 4.5 4.5v-1Zm92.5-3.5c0 2-1.6 3.5-3.5 3.5v1c2.4 0 4.5-2 4.5-4.5h-1Zm-3.5-35.5c1.9 0 3.5 1.5 3.5 3.5h1c0-2.5-2-4.5-4.5-4.5v1Zm-89-1c-2.5 0-4.5 2-4.5 4.5h1c0-2 1.5-3.5 3.5-3.5v-1Z" fill="#C6BECF"/><path d="M704.9 239h-97v40h97v-40Z" fill="#fff"/><path d="M676.6 255c.2 0 .4 0 .5.2l5.7 5.9 5.7-6c.3-.2.8-.2 1.2 0 .3.4.3 1 0 1.3l-6.3 6.4c-.3.3-.8.3-1.1 0l-6.2-6.4a.9.9 0 0 1 0-1.2l.5-.2Z" fill="#2B1D38"/><path d="M611.9 239.5h89v-1h-89v1Zm92.5 3.5v32h1v-32h-1Zm-3.5 35.5h-89v1h89v-1Zm-92.5-3.5v-32h-1v32h1Zm3.5 3.5c-2 0-3.5-1.6-3.5-3.5h-1c0 2.5 2 4.5 4.5 4.5v-1Zm92.5-3.5c0 2-1.6 3.5-3.5 3.5v1c2.4 0 4.5-2 4.5-4.5h-1Zm-3.5-35.5c1.9 0 3.5 1.5 3.5 3.5h1c0-2.5-2-4.5-4.5-4.5v1Zm-89-1c-2.5 0-4.5 2-4.5 4.5h1c0-2 1.5-3.5 3.5-3.5v-1Z" fill="#C6BECF"/><path d="M704.9 301h-97v40h97v-40Z" fill="#fff"/><path d="M676.6 317c.2 0 .4 0 .5.2l5.7 5.9 5.7-6c.3-.2.8-.2 1.2 0 .3.4.3 1 0 1.3l-6.3 6.4c-.3.3-.8.3-1.1 0l-6.2-6.4a.9.9 0 0 1 0-1.2l.5-.2Z" fill="#2B1D38"/><path d="M611.9 301.5h89v-1h-89v1Zm92.5 3.5v32h1v-32h-1Zm-3.5 35.5h-89v1h89v-1Zm-92.5-3.5v-32h-1v32h1Zm3.5 3.5c-2 0-3.5-1.6-3.5-3.5h-1c0 2.5 2 4.5 4.5 4.5v-1Zm92.5-3.5c0 2-1.6 3.5-3.5 3.5v1c2.4 0 4.5-2 4.5-4.5h-1Zm-3.5-35.5c1.9 0 3.5 1.5 3.5 3.5h1c0-2.5-2-4.5-4.5-4.5v1Zm-89-1c-2.5 0-4.5 2-4.5 4.5h1c0-2 1.5-3.5 3.5-3.5v-1Z" fill="#C6BECF"/><path d="m617.8 327-.2-.1-.1-.2v-.2l4-10.4c0-.2.2-.3.5-.3h1c.3 0 .5.1.6.3l4 10.4v.2l-.1.2h-1.3l-.2-.2-.9-2.3H620l-.9 2.3-.1.2h-1.1Zm6.9-4-2.2-5.6-2.1 5.7h4.3Zm8.5 4.1c-1.2 0-2-.4-2.6-1.2v.7c0 .1 0 .2-.2.3h-1.2l-.1-.3v-10.9H630.6v4c.7-.8 1.6-1.2 2.7-1.2 1 0 2 .4 2.5 1.1.6.7.9 1.6.9 2.7a5.9 5.9 0 0 1 0 1c0 1.1-.3 2-1 2.8-.5.7-1.3 1-2.4 1Zm-.4-1.3c.8 0 1.4-.2 1.7-.7.3-.4.5-1 .6-1.8v-.5c0-2-.8-3-2.3-3a2 2 0 0 0-1.6.7c-.4.5-.6 1-.6 1.6V323.4c0 .7.2 1.2.6 1.7.4.5 1 .7 1.6.7Zm9.2 1.3c-1.2 0-2-.3-2.7-1-.7-.6-1-1.5-1-2.6v-1.4c0-1 .3-2 1-2.6.6-.7 1.5-1 2.7-1 1.2 0 2 .3 2.7 1 .7.7 1 1.5 1 2.6a9.2 9.2 0 0 1 0 1.4c0 1.1-.3 2-1 2.6-.6.7-1.5 1-2.7 1Zm0-1.2a2 2 0 0 0 1.6-.6c.4-.5.6-1 .6-1.9a7.3 7.3 0 0 0 0-1.2c0-.8-.2-1.4-.6-1.8a2 2 0 0 0-1.6-.7 2 2 0 0 0-1.6.7c-.4.4-.6 1-.6 1.8v1.2c0 .8.2 1.4.6 1.9.4.4 1 .6 1.6.6Zm8.4 1c-.3 0-.5 0-.6-.3l-3-7.4v-.2a.3.3 0 0 1 .3-.3h.8c.2 0 .3 0 .4.2l2.4 6.3 2.5-6.3.3-.2h1l.2.3v.2l-3 7.4c-.2.2-.4.4-.6.4h-.7Zm9 .2c-1.1 0-2-.3-2.7-1-.6-.6-1-1.6-1-2.8v-1c0-1.2.4-2 1-2.8.7-.7 1.6-1 2.6-1 1.2 0 2.2.4 2.8 1.1.7.8 1 1.8 1 3v.3l-.1.3-.3.1h-5.5v.2c0 .7.2 1.2.6 1.7.4.5 1 .8 1.5.8a2.2 2.2 0 0 0 2-1l.2-.2h1.3v.3c0 .2-.1.5-.4.8-.3.4-.7.6-1.2.9-.5.2-1.2.3-1.8.3Zm2.2-4.9c0-.8-.2-1.4-.7-1.8a2 2 0 0 0-1.6-.7 2 2 0 0 0-1.6.7c-.3.4-.5 1-.5 1.8h4.4ZM619 264l-.3-.1-.1-.3v-10.7l.3-.1h4.4c1.2 0 2 .2 2.6.8.6.5.9 1.2.9 2.1a2.5 2.5 0 0 1-1.4 2.4 3 3 0 0 1 1.6 2.6c0 .6-.2 1.2-.4 1.7-.3.5-.7.8-1.2 1.1a4 4 0 0 1-2 .5H619Zm4-6.5c.7 0 1.3-.2 1.6-.5.4-.3.5-.7.5-1.3 0-.5-.1-1-.5-1.2-.3-.3-.8-.4-1.5-.4h-3v3.4h3Zm.2 5.2c.7 0 1.2-.2 1.6-.6.4-.3.6-.8.6-1.4 0-.6-.2-1-.6-1.4-.4-.3-.9-.5-1.6-.5h-3v3.9h3Zm9.2 1.4c-1.1 0-2-.3-2.7-1-.6-.7-1-1.6-1-2.8v-1c0-1.2.4-2.1 1-2.8.7-.7 1.6-1 2.6-1 1.2 0 2.2.4 2.8 1.1.7.8 1 1.8 1 3v.3l-.1.3-.3.1h-5.5v.1c0 .7.2 1.3.6 1.8.4.5 1 .7 1.5.7a2.2 2.2 0 0 0 2-.9l.2-.2h1.3v.3c0 .2-.1.5-.4.8l-1.2.9c-.5.2-1.2.3-1.8.3Zm2.2-5c0-.7-.2-1.3-.7-1.7a2 2 0 0 0-1.6-.8 2 2 0 0 0-1.6.8c-.3.4-.5 1-.5 1.7h4.4Zm3.8 4.9-.3-.1V252.7l.3-.1h.7l.3.1V264h-1Zm6.9.1c-1.2 0-2.1-.3-2.7-1-.7-.6-1-1.5-1-2.6V259c0-1 .3-2 1-2.6.6-.7 1.5-1 2.7-1 1.2 0 2 .3 2.7 1 .7.7 1 1.5 1 2.6a9.2 9.2 0 0 1 0 1.4c0 1-.3 2-1 2.6-.6.7-1.5 1-2.7 1Zm0-1.2a2 2 0 0 0 1.6-.7c.4-.4.6-1 .6-1.8a7.2 7.2 0 0 0 0-1.2c0-.8-.2-1.4-.6-1.8a2 2 0 0 0-1.6-.7 2 2 0 0 0-1.6.7c-.4.4-.6 1-.6 1.8v1.2c0 .8.2 1.4.6 1.8.4.5 1 .7 1.6.7Zm7.8 1h-.4l-.2-.3-2.2-7.5v-.4h1.2l.2.2 1.8 6 1.9-6 .1-.1.3-.2h.6s.2 0 .3.2l.1.2 2 6 1.7-6v-.3h1.3l.1.3v.1l-2.3 7.5-.2.3H658.5c-.3 0-.5 0-.6-.3l-1.8-5.8-1.9 5.8c0 .2-.2.4-.5.4h-.6ZM619 203l-.3-.1-.1-.3V192l.3-.1h4.4c1.2 0 2 .3 2.6.8.6.5.9 1.3.9 2.1a2.5 2.5 0 0 1-1.4 2.4 3 3 0 0 1 1.6 2.7c0 .5-.2 1-.4 1.6-.3.5-.7.9-1.2 1.2a4 4 0 0 1-2 .4H619Zm4-6.5c.7 0 1.3-.1 1.6-.4.4-.4.5-.8.5-1.3 0-.6-.1-1-.5-1.3-.3-.3-.8-.4-1.5-.4h-3v3.4h3Zm.2 5.2c.7 0 1.2-.2 1.6-.6.4-.3.6-.8.6-1.3 0-.6-.2-1.1-.6-1.5-.4-.3-.9-.5-1.6-.5h-3v3.9h3Zm9.2 1.4c-1.1 0-2-.3-2.7-1-.6-.6-1-1.6-1-2.8v-1c0-1.2.4-2 1-2.8.7-.7 1.6-1 2.6-1 1.2 0 2.2.4 2.8 1.1.7.8 1 1.8 1 3v.3l-.1.3-.3.1h-5.5v.2c0 .7.2 1.2.6 1.7.4.5 1 .8 1.5.8a2.2 2.2 0 0 0 2-1l.2-.2h1.3v.3c0 .2-.1.5-.4.8-.3.4-.7.6-1.2.9-.5.2-1.2.3-1.8.3Zm2.2-4.9c0-.8-.2-1.4-.7-1.8a2 2 0 0 0-1.6-.7 2 2 0 0 0-1.6.7c-.3.4-.5 1-.5 1.8h4.4Zm3.8 4.8-.3-.1V191.7h1.3V203h-1Zm6.9.1c-1.2 0-2.1-.3-2.7-1-.7-.6-1-1.5-1-2.6v-1.4c0-1 .3-2 1-2.6.6-.7 1.5-1 2.7-1 1.2 0 2 .3 2.7 1 .7.7 1 1.5 1 2.6a9.2 9.2 0 0 1 0 1.4c0 1.1-.3 2-1 2.7-.6.6-1.5 1-2.7 1Zm0-1.2a2 2 0 0 0 1.6-.6c.4-.5.6-1 .6-1.9a7.3 7.3 0 0 0 0-1.2c0-.8-.2-1.4-.6-1.8a2 2 0 0 0-1.6-.7 2 2 0 0 0-1.6.7c-.4.4-.6 1-.6 1.8v1.2c0 .8.2 1.4.6 1.9.4.4 1 .6 1.6.6Zm7.8 1h-.4l-.2-.3-2.2-7.4v-.4l.3-.1H651.5l.2.2 1.8 6 1.9-5.9.1-.2.3-.1H656.7l.1.3 2 6 1.7-6v-.2l.4-.1H661.8l.1.3v.2l-2.3 7.4-.2.3H658.5c-.3 0-.5 0-.6-.3l-1.8-5.7-1.9 5.7c0 .2-.2.4-.5.4h-.6ZM736.4 203l-.2-.1-.1-.3v-.2l2.5-3.4-.9.1a4 4 0 0 1-2-.5c-.6-.4-1-.8-1.3-1.4-.3-.5-.5-1.1-.5-1.8 0-.6.2-1.2.5-1.8.3-.6.7-1 1.3-1.4.6-.4 1.4-.6 2.2-.6 1 0 1.6.2 2.3.6.6.3 1 .8 1.3 1.3.4.6.5 1.2.5 1.9 0 .6 0 1-.3 1.5l-.8 1.5-3.1 4.3-.3.2h-1.1Zm1.5-5.2c.5 0 1 0 1.3-.3a2.3 2.3 0 0 0 1.2-2.1c0-.5 0-.9-.3-1.3-.2-.3-.5-.6-1-.8-.3-.2-.7-.3-1.2-.3-.4 0-.8 0-1.2.3-.4.2-.7.5-.9.8-.2.4-.3.8-.3 1.3s.1 1 .3 1.3a2.4 2.4 0 0 0 2.1 1.1Zm9.6 5.3c-.8 0-1.5-.1-2.1-.4-.6-.3-1-.7-1.4-1.1a3 3 0 0 1-.5-1.5l.1-.3h1.1c.2 0 .4 0 .4.3.2.6.5 1 .9 1.3.4.2 1 .4 1.5.4.7 0 1.3-.2 1.7-.7.5-.4.8-1 .8-1.8 0-.7-.3-1.2-.8-1.6-.4-.5-1-.7-1.7-.7-.4 0-.7 0-1 .2a3 3 0 0 0-.7.4 3 3 0 0 1-.3.2H744.1v-.3l.4-5.3.1-.3.3-.1H750.8v1.2l-.3.1H746l-.3 3.2c.6-.4 1.3-.6 2-.6.8 0 1.4.2 2 .5.6.3 1 .7 1.4 1.2.4.6.6 1.2.6 2 0 .7-.2 1.4-.6 2-.3.6-.8 1-1.4 1.3-.6.3-1.3.4-2.1.4Zm7.9-5.7c-.7 0-1.3-.2-1.7-.5-.4-.4-.6-1-.6-1.6a13.1 13.1 0 0 1 0-1.4c0-.7.2-1.2.6-1.6.4-.4 1-.6 1.7-.6s1.3.2 1.6.6c.4.4.7.9.7 1.6a20.8 20.8 0 0 1 0 1.4c0 .7-.3 1.2-.7 1.6-.4.3-1 .5-1.6.5ZM754 203l-.2-.1-.1-.2v-.2l8-10.4.2-.3h1.1v.5l-7.9 10.4-.2.2H754Zm1.4-6.6c.4 0 .6-.1.8-.3.2-.3.3-.5.3-.8a19.5 19.5 0 0 0 0-1.4c0-.3-.1-.6-.3-.8-.2-.2-.4-.3-.8-.3s-.7 0-.9.3l-.3.8a11.5 11.5 0 0 0 0 1.4c0 .3.2.6.3.8.2.2.5.3.9.3Zm6 6.7c-.7 0-1.3-.2-1.7-.6-.4-.4-.6-1-.6-1.6a13.1 13.1 0 0 1 0-1.4c0-.7.2-1.2.6-1.6.4-.4 1-.6 1.7-.6s1.2.2 1.6.6c.4.4.6 1 .7 1.6a16.5 16.5 0 0 1 0 1.4c0 .7-.3 1.2-.7 1.6-.4.4-1 .6-1.6.6Zm0-1c.3 0 .6-.2.8-.4.2-.2.3-.5.3-.8a19.5 19.5 0 0 0 0-1.4c0-.3-.1-.6-.3-.8-.2-.2-.5-.3-.8-.3-.4 0-.7 0-.9.3-.1.2-.3.5-.3.8a11.5 11.5 0 0 0 0 1.4c0 .3.2.6.3.8.2.2.5.3.9.3ZM737.7 265l-.2-.1-.1-.3v-.2l2.5-3.4-.9.1a4 4 0 0 1-2-.5c-.6-.4-1-.8-1.3-1.4-.3-.5-.5-1.1-.5-1.8 0-.6.2-1.2.5-1.8.3-.6.7-1 1.3-1.4.6-.4 1.4-.6 2.2-.6 1 0 1.6.2 2.3.6.6.3 1 .8 1.3 1.3.4.6.5 1.2.5 1.9 0 .6 0 1-.3 1.5l-.8 1.5-3.1 4.3-.3.2h-1.2Zm1.5-5.2c.5 0 .9 0 1.3-.3a2.3 2.3 0 0 0 1.2-2.1c0-.5 0-.9-.3-1.3-.2-.3-.5-.6-1-.8-.3-.2-.7-.3-1.2-.3-.4 0-.8 0-1.2.3-.4.2-.7.5-.9.8-.2.4-.3.8-.3 1.3s.1 1 .3 1.3a2.4 2.4 0 0 0 2.1 1.1Zm7.3 5.2-.3-.1v-.4l4-9.3h-5.3l-.3-.1v-1.2l.3-.1H751.8v1.6l-4 9.2-.2.3h-1.1Zm8.9-5.6c-.7 0-1.3-.2-1.7-.5-.4-.4-.6-1-.6-1.6a13.1 13.1 0 0 1 0-1.4c0-.7.2-1.2.6-1.6.4-.4 1-.6 1.7-.6s1.3.2 1.6.6c.4.4.7.9.7 1.6a20.8 20.8 0 0 1 0 1.4c0 .7-.3 1.2-.7 1.6-.4.3-1 .5-1.6.5ZM754 265l-.2-.1-.1-.2v-.2l8-10.4.2-.3h1.1v.5l-7.9 10.4-.2.2H754Zm1.4-6.6c.4 0 .6-.1.8-.3.2-.3.3-.5.3-.8a19.5 19.5 0 0 0 0-1.4c0-.3-.1-.6-.3-.8-.2-.2-.4-.3-.8-.3s-.7 0-.9.3l-.3.8a11.5 11.5 0 0 0 0 1.4c0 .3.2.6.3.8.2.2.5.3.9.3Zm6 6.7c-.7 0-1.3-.2-1.7-.6-.4-.4-.6-1-.6-1.6a13.1 13.1 0 0 1 0-1.4c0-.7.2-1.2.6-1.6.4-.4 1-.6 1.7-.6s1.2.2 1.6.6c.4.4.6 1 .7 1.6a16.5 16.5 0 0 1 0 1.4c0 .7-.3 1.2-.7 1.6-.4.4-1 .6-1.6.6Zm0-1c.3 0 .6-.2.8-.4.2-.2.3-.5.3-.8a19.5 19.5 0 0 0 0-1.4c0-.3-.1-.6-.3-.8-.2-.2-.5-.3-.8-.3-.4 0-.7 0-.9.3-.1.2-.3.5-.3.8a11.5 11.5 0 0 0 0 1.4c0 .3.2.6.3.8.2.2.5.3.9.3ZM735.7 326.7l-.2-.1-.1-.3v-.2l2.5-3.4-.8.1a4 4 0 0 1-2-.5c-.6-.4-1-.8-1.4-1.4-.3-.6-.5-1.2-.5-1.8 0-.6.2-1.2.5-1.8.3-.6.8-1 1.4-1.4.6-.4 1.3-.6 2.2-.6.8 0 1.6.2 2.2.5.6.4 1 .9 1.4 1.4.3.6.4 1.2.4 1.9 0 .5 0 1-.3 1.5l-.8 1.4-3.1 4.4-.2.2h-1.2Zm1.6-5.2c.4 0 .8 0 1.2-.3a2.3 2.3 0 0 0 1.3-2.1c0-.5-.2-1-.4-1.3-.2-.4-.5-.6-.9-.8l-1.2-.3c-.5 0-.9 0-1.3.3l-.9.8c-.2.4-.3.8-.3 1.3s.1.9.3 1.3a2.4 2.4 0 0 0 2.2 1.1Zm10 5.3c-1 0-1.7-.1-2.3-.4-.6-.2-1.1-.6-1.5-1.2a3 3 0 0 1-.5-1.7 3 3 0 0 1 1.7-2.8c-.4-.2-.7-.6-1-1-.2-.4-.3-.8-.3-1.4 0-1 .4-1.6 1-2.2.7-.5 1.7-.8 2.8-.8 1.1 0 2 .3 2.7.8.7.6 1 1.3 1 2.2 0 .6 0 1-.3 1.4-.2.4-.5.7-1 1a3 3 0 0 1 1.7 2.8 3 3 0 0 1-.4 1.7c-.4.6-.9 1-1.5 1.2-.6.3-1.4.4-2.2.4Zm0-6.7c.5 0 1-.2 1.5-.5s.7-.7.7-1.2c0-.6-.2-1-.7-1.3-.4-.3-1-.5-1.6-.5-.7 0-1.2.1-1.6.5-.5.3-.7.7-.7 1.3 0 .5.2 1 .7 1.2.4.4 1 .5 1.6.5Zm0 5.4a3 3 0 0 0 1.8-.5c.5-.4.7-1 .7-1.5 0-.7-.2-1.2-.7-1.6a3 3 0 0 0-1.9-.5 3 3 0 0 0-1.9.6c-.5.3-.7.8-.7 1.5 0 .6.2 1 .7 1.5a3 3 0 0 0 2 .6Zm8-4.4c-.6 0-1.2-.2-1.6-.6-.4-.3-.6-.8-.6-1.5a13.1 13.1 0 0 1 0-1.4c0-.7.2-1.2.6-1.6.4-.4 1-.6 1.7-.6s1.3.2 1.6.6c.4.4.7.9.7 1.6a20.8 20.8 0 0 1 0 1.4c0 .7-.3 1.2-.7 1.5-.4.4-1 .6-1.6.6Zm-1.3 5.6-.2-.1-.1-.3v-.1l8-10.4.2-.3h1.1v.5l-7.9 10.4-.2.2H754Zm1.4-6.6c.4 0 .6-.1.8-.3.2-.3.3-.5.3-.9a19.5 19.5 0 0 0 0-1.3c0-.3-.1-.6-.3-.8-.2-.2-.4-.4-.8-.4s-.7.2-.9.4l-.3.8a11.5 11.5 0 0 0 0 1.3c0 .4.2.7.3.9.2.2.5.3.9.3Zm6 6.7c-.7 0-1.3-.2-1.7-.6-.4-.4-.6-1-.6-1.6a13.1 13.1 0 0 1 0-1.4c0-.7.2-1.2.6-1.6.4-.4 1-.6 1.7-.6s1.2.2 1.6.6c.4.4.6.9.7 1.6a16.5 16.5 0 0 1 0 1.4c0 .7-.3 1.2-.7 1.6-.4.4-1 .6-1.6.6Zm0-1c.3 0 .6-.2.8-.4.2-.3.3-.5.3-.8a19.5 19.5 0 0 0 0-1.4c0-.3-.1-.6-.3-.8-.2-.2-.5-.3-.8-.3-.4 0-.7 0-.9.3-.1.2-.3.5-.3.8a11.5 11.5 0 0 0 0 1.4c0 .3.2.5.3.8.2.2.5.3.9.3Z" fill="#2B1D38"/><path d="M376.4 335.8c-1 0-1.8-.3-2.4-.8-.6-.6-.9-1.4-.9-2.4a32.3 32.3 0 0 1 0-2.2c0-1 .3-1.8.9-2.3.6-.6 1.4-1 2.4-1a4 4 0 0 1 1.9.5c.4.2.8.6 1 1 .3.4.5.8.5 1.3v.2H378.8c-.2 0-.3 0-.3-.3-.1-.6-.4-1-.7-1.2-.4-.3-.9-.4-1.5-.4-1.3 0-2 .8-2.1 2.3a29.7 29.7 0 0 0 0 2c0 1.5.8 2.3 2.1 2.3.6 0 1.1-.1 1.5-.3.3-.3.6-.7.7-1.3l.1-.2.2-.1h.8l.1.2a2.7 2.7 0 0 1-1.5 2.4 4 4 0 0 1-1.9.3Zm5.1 0-.2-.2v-6l.2-.1h.8v.8c.4-.6 1-.8 1.7-.8h.7V330.5l-.2.1h-.7c-.4 0-.8.1-1 .4-.3.2-.4.6-.4 1v3.7l-.3.1h-.6Zm6 0c-.4 0-.8 0-1.1-.2a2 2 0 0 1-.8-.7c-.2-.2-.3-.5-.3-.9 0-.5.2-1 .6-1.3.5-.3 1-.5 1.8-.6l1.8-.3v-.3c0-.9-.5-1.3-1.4-1.3a1.5 1.5 0 0 0-1.4.8v.1H385.7l-.1-.2c0-.2 0-.4.3-.6.1-.3.4-.5.8-.7a3 3 0 0 1 1.3-.2c.9 0 1.5.2 2 .6.3.4.5 1 .5 1.5v4.1l-.3.1h-.7v-.8a2 2 0 0 1-.9.7l-1.2.2Zm.2-.9c.5 0 1-.1 1.3-.5.3-.3.5-.8.5-1.4v-.4l-1.4.2c-.6.1-1 .2-1.3.4-.3.2-.4.4-.4.7 0 .4.1.6.4.8l1 .2Zm6.8 1c-.6 0-1-.2-1.4-.3-.4-.2-.7-.4-.9-.7-.2-.2-.2-.4-.2-.5v-.2h1l.6.6 1 .2c.3 0 .7-.1 1-.3.2-.2.3-.4.3-.7 0-.2 0-.3-.2-.4 0-.2-.2-.3-.5-.4a9 9 0 0 0-1.2-.3 3 3 0 0 1-1.4-.6c-.3-.3-.5-.7-.5-1.1 0-.4.1-.6.3-1l.8-.6c.3-.2.8-.2 1.2-.2.6 0 1 0 1.3.2l.9.6.2.6v.1l-.2.1h-.5l-.3-.1-.3-.3-.4-.3h-.7c-.3 0-.6 0-.8.2-.3.1-.4.4-.4.6 0 .2 0 .3.2.4 0 .2.2.3.5.4l1 .3c.8.1 1.4.4 1.7.7.3.3.5.6.5 1.1 0 .3-.1.7-.3 1a2 2 0 0 1-1 .6c-.3.2-.8.2-1.3.2Zm4.2-.2h-.2v-8.4l.2-.1h.8l.1.3v2.8a2.3 2.3 0 0 1 2-1c.8 0 1.4.3 1.8.8.4.5.6 1.1.6 2v3.5l-.2.1h-.8l-.1-.3v-3.3c0-.6-.2-1-.4-1.3-.3-.3-.7-.5-1.2-.5s-1 .2-1.2.5c-.3.3-.5.8-.5 1.3v3.5l-.3.1h-.6Zm10.4 0h-.2V327.3h5.3l.1.2v.7H410v2.9h4V332.1h-4v3.5l-.3.1h-.6Zm6.7 0h-.2v-6.1l.2-.1h.8v.8c.4-.6 1-.8 1.7-.8h.7V330.5l-.2.1h-.7c-.4 0-.8.1-1 .4-.3.2-.4.6-.4 1v3.7l-.3.1h-.6Zm6.7.1c-.8 0-1.5-.2-2-.7-.5-.5-.7-1.2-.8-2.1v-.8c0-.9.3-1.6.8-2 .5-.6 1.2-.8 2-.8.9 0 1.6.2 2 .8.5.6.8 1.3.8 2.3v.2l-.1.2h-4.4v.2c0 .5.2 1 .5 1.3.3.4.7.5 1.2.5a1.7 1.7 0 0 0 1.4-.6l.2-.2h.9l.1.2-.3.6c-.2.3-.6.5-1 .7l-1.3.2Zm1.6-3.7c0-.6-.1-1-.4-1.3-.3-.4-.7-.6-1.2-.6s-1 .2-1.2.6a2 2 0 0 0-.5 1.3h3.3Zm5.1 3.7c-.8 0-1.5-.2-2-.7-.5-.5-.7-1.2-.8-2.1v-.8c0-.9.4-1.6.8-2 .5-.6 1.2-.8 2-.8.9 0 1.6.2 2 .8.5.6.8 1.3.8 2.3v.4H427.5v.2c0 .5.1 1 .4 1.3.3.4.7.5 1.2.5a1.7 1.7 0 0 0 1.4-.6l.2-.2h.9l.1.2c0 .2 0 .4-.3.6-.2.3-.5.5-1 .7l-1.3.2Zm1.7-3.7c0-.6-.2-1-.5-1.3-.3-.4-.7-.6-1.2-.6s-1 .2-1.2.6a2 2 0 0 0-.4 1.3h3.3Zm5.9 3.6h-.2V327.3h3.2c.8 0 1.6.1 2 .6.6.4.9 1 .9 1.8 0 .6-.2 1.1-.5 1.5-.3.4-.7.7-1.3.8l1.9 3.2V335.6l-.2.1H441.7l-.2-.3-1.7-3h-2.1v3.2l-.3.1h-.6Zm2.9-4.4c1.2 0 1.8-.5 1.8-1.5s-.6-1.5-1.8-1.5h-2v3h2Zm6.3 4.5c-.4 0-.8 0-1.1-.2a2 2 0 0 1-.8-.7c-.2-.2-.3-.5-.3-.9 0-.5.2-1 .6-1.3.5-.3 1-.5 1.8-.6l1.8-.3v-.3c0-.9-.5-1.3-1.4-1.3a1.5 1.5 0 0 0-1.4.8v.1H444.2l-.1-.2.3-.6c.1-.3.4-.5.8-.7a3 3 0 0 1 1.3-.2c.9 0 1.5.2 2 .6.3.4.5 1 .5 1.5v4.1l-.3.1h-.7v-.8a2 2 0 0 1-.8.7l-1.3.2Zm.2-.9c.5 0 1-.1 1.3-.5.3-.3.5-.8.5-1.4v-.4l-1.4.2c-.6.1-1 .2-1.3.4-.3.2-.4.4-.4.7 0 .4.1.6.4.8l1 .2Zm7 .8c-1.2 0-1.9-.7-1.9-2.1v-3.2h-1.1V329.6l.2-.1h1v-2.2l.2-.1h.8v2.3h1.7l.1.2v.7h-1.8v3.1c0 .4.1.7.3 1l.6.2h.8l.1.1.1.2V335.6l-.2.1h-.9Zm4.8.1c-.8 0-1.5-.2-2-.7-.5-.5-.8-1.2-.8-2.1v-.8c0-.9.3-1.6.8-2 .5-.6 1.2-.8 2-.8.9 0 1.5.2 2 .8.5.6.8 1.3.8 2.3v.2l-.1.2h-4.4v.2c0 .5.2 1 .5 1.3.3.4.7.5 1.2.5a1.7 1.7 0 0 0 1.4-.6l.1-.2h1v.2c0 .2 0 .4-.2.6l-1 .7-1.3.2Zm1.6-3.7c0-.6-.1-1-.4-1.3-.3-.4-.7-.6-1.2-.6s-1 .2-1.2.6a2 2 0 0 0-.5 1.3h3.3Zm7.7 3.6c-1.3 0-1.9-.7-1.9-2.1v-3.2h-1.1V329.6l.2-.1h1v-2.2l.2-.1h.7l.1.3v2h1.7l.1.2v.7h-1.8v3.1l.2 1 .7.2h.7l.2.1.1.2V335.6l-.3.1h-.8Zm2.6 0h-.3v-8.4l.3-.1h.7l.1.3v2.8a2.3 2.3 0 0 1 2-1c.8 0 1.4.3 1.8.8.4.5.6 1.1.6 2v3.5l-.2.1h-.8l-.1-.3v-3.3c0-.6-.1-1-.4-1.3-.3-.3-.7-.5-1.2-.5s-1 .2-1.2.5c-.3.3-.5.8-.5 1.3v3.5l-.2.1h-.6Zm8.7.1c-.4 0-.7 0-1-.2a2 2 0 0 1-.9-.7c-.2-.2-.3-.5-.3-.9 0-.5.3-1 .7-1.3.4-.3 1-.5 1.8-.6l1.7-.3v-.3c0-.9-.4-1.3-1.4-1.3a1.5 1.5 0 0 0-1.3.8l-.1.1H476.9v-.2c0-.2 0-.4.2-.6l.8-.7a3 3 0 0 1 1.4-.2c.8 0 1.5.2 1.9.6.4.4.6 1 .6 1.5v4l-.1.1-.2.1h-.8v-.8a2 2 0 0 1-.8.7l-1.3.2Zm.3-.9c.5 0 1-.1 1.2-.5.4-.3.5-.8.5-1.4v-.4l-1.3.2c-.6.1-1 .2-1.3.4-.3.2-.5.4-.5.7 0 .4.2.6.4.8l1 .2Zm7 .8c-1.3 0-2-.7-2-2.1v-3.2h-1.1V329.6l.2-.1h1v-2.2l.3-.1h.7l.1.3v2h1.7V330.5H485v3.1c0 .4 0 .7.2 1l.7.2h.7l.2.1v.8l-.2.1h-.8Zm7.3 0c-1.2 0-1.8-.7-1.8-2.1v-3.2h-1.2V329.6l.2-.1h1v-2.2l.2-.1h.8v2.3H494.2l.1.2v.7h-1.7v3.1c0 .4 0 .7.2 1l.6.2h.8l.2.1v.8l-.2.1h-.9Zm2.6 0h-.2l-.1-.3v-5.8l.3-.1h.7l.1.3v.5c.3-.6.9-.8 1.7-.8h.7V330.5l-.2.1h-.8c-.4 0-.7.1-1 .4-.2.2-.3.6-.3 1v3.5l-.1.2-.2.1h-.6Zm4.4-7.4h-.2V327.1l.2-.1h1V328.3l-.2.1h-.8Zm.1 7.4h-.2v-6.1l.2-.1h.8V335.7l-.2.1h-.6Zm5.2 2.7c-.6 0-1.2-.2-1.6-.4-.4-.2-.6-.4-.8-.7l-.3-.8v-.2H503.9l.2.2c0 .2.2.5.4.6.3.2.6.3 1 .3.7 0 1-.1 1.4-.4.2-.2.4-.6.4-1.3v-.8c-.2.3-.5.5-.8.6-.3.2-.7.3-1.1.3-.9 0-1.5-.3-2-.8-.4-.6-.6-1.3-.6-2.1v-.7c0-.8.2-1.5.7-2 .4-.6 1-.8 1.9-.8.8 0 1.5.3 2 .9v-.7l.2-.1h.8v6.1c0 1.8-.9 2.8-2.8 2.8Zm0-3.6c.5 0 1-.2 1.2-.5.3-.4.5-.8.5-1.3a4.7 4.7 0 0 0 0-.9c0-.4-.2-.9-.5-1.2-.2-.4-.7-.6-1.2-.6-.6 0-1 .2-1.2.6-.3.3-.4.8-.5 1.3v.7c0 .5.2 1 .5 1.4.2.3.6.5 1.2.5Zm7.2 3.6c-.7 0-1.2-.2-1.6-.4-.4-.2-.7-.4-.9-.7l-.2-.8v-.2h1l.1.2.5.6c.2.2.6.3 1 .3.6 0 1-.1 1.3-.4.3-.2.4-.6.4-1.3v-.8c-.2.3-.4.5-.7.6-.4.2-.7.3-1.2.3-.8 0-1.5-.3-1.9-.8-.4-.6-.6-1.3-.7-2.1v-.7c0-.8.3-1.5.7-2 .4-.6 1-.8 2-.8.8 0 1.4.3 1.9.9v-.7l.3-.1h.7l.1.3v5.8c0 1.8-1 2.8-2.8 2.8Zm0-3.6c.5 0 1-.2 1.2-.5.3-.4.4-.8.4-1.3a4.7 4.7 0 0 0 0-.9c0-.4-.1-.9-.4-1.2-.3-.4-.7-.6-1.2-.6-.6 0-1 .2-1.3.6-.2.3-.4.8-.4 1.3v.7c0 .5.2 1 .4 1.4.3.3.7.5 1.3.5Zm7 1c-.7 0-1.4-.2-1.9-.7-.5-.5-.8-1.2-.8-2.1v-.8c0-.9.3-1.6.8-2 .5-.6 1.2-.8 2-.8.9 0 1.5.2 2 .8.5.6.8 1.3.8 2.3v.2l-.1.2H518v.2c0 .5.2 1 .5 1.3.3.4.7.5 1.2.5a1.7 1.7 0 0 0 1.4-.6l.2-.2H522.3l.1.2-.3.6-1 .7-1.3.2Zm1.7-3.7c0-.6-.1-1-.4-1.3-.3-.4-.7-.6-1.2-.6s-1 .2-1.2.6a2 2 0 0 0-.5 1.3h3.3Zm2.9 3.6h-.2l-.1-.3v-5.8l.3-.1h.7l.1.3v.5c.3-.6.9-.8 1.7-.8h.7V330.5l-.2.1h-.8c-.4 0-.7.1-1 .4-.2.2-.3.6-.3 1v3.5l-.1.2-.2.1h-.6Zm6.4.1c-.5 0-1 0-1.4-.2-.4-.2-.7-.4-.9-.7l-.2-.5v-.2h1l.6.6 1 .2c.3 0 .7-.1 1-.3.2-.2.3-.4.3-.7l-.1-.4c-.1-.2-.3-.3-.6-.4a9 9 0 0 0-1.1-.3 3 3 0 0 1-1.5-.6c-.3-.3-.5-.7-.5-1.1 0-.4.1-.6.3-1l.8-.6c.3-.2.8-.2 1.3-.2s.9 0 1.3.2l.8.6c.2.2.2.4.2.6v.1l-.2.1h-.5l-.3-.1c0-.2-.2-.3-.3-.3l-.4-.3h-.6c-.4 0-.7 0-1 .2l-.2.6v.4l.6.4 1.1.3c.8.1 1.3.4 1.6.7.3.3.5.6.5 1.1 0 .3-.1.7-.3 1a2 2 0 0 1-.9.6c-.4.2-.8.2-1.4.2Zm7.2 0-.2-.2v-6l.2-.1h.7l.1.3v.5c.4-.6 1-.8 1.7-.8h.7V330.5l-.2.1h-.7c-.5 0-.8.1-1 .4-.3.2-.4.6-.4 1v3.5l-.1.2-.2.1h-.6Zm6.7 0c-.9 0-1.5-.2-2-.7-.5-.5-.8-1.2-.8-2.1v-.8c0-.9.3-1.6.8-2 .5-.6 1.1-.8 2-.8.8 0 1.5.2 2 .8.5.6.7 1.3.7 2.3v.4h-4.4v.2c0 .5.2 1 .5 1.3.3.4.7.5 1.1.5a1.7 1.7 0 0 0 1.5-.6l.1-.2h1v.2c0 .2 0 .4-.3.6-.2.3-.5.5-.9.7l-1.3.2Zm1.6-3.7c0-.6-.2-1-.5-1.3-.3-.4-.7-.6-1.2-.6s-.9.2-1.2.6a2 2 0 0 0-.4 1.3h3.3Zm4.7 3.7c-.5 0-1 0-1.4-.2-.4-.2-.6-.4-.8-.7l-.3-.5v-.2h1l.6.6 1 .2c.4 0 .7-.1 1-.3.2-.2.3-.4.3-.7l-.1-.4c-.1-.2-.3-.3-.6-.4a9 9 0 0 0-1.1-.3 3 3 0 0 1-1.5-.6c-.3-.3-.4-.7-.4-1.1 0-.4 0-.6.2-1l.8-.6c.4-.2.8-.2 1.3-.2s1 0 1.3.2l.8.6.3.6-.1.1-.2.1h-.5l-.2-.1-.4-.3-.4-.3h-.6c-.4 0-.7 0-1 .2l-.2.6.1.4c0 .2.3.3.5.4l1.1.3c.8.1 1.3.4 1.6.7.3.3.5.6.5 1.1 0 .3-.1.7-.3 1a2 2 0 0 1-.9.6c-.4.2-.8.2-1.4.2Zm6.5 0c-.8 0-1.5-.2-2-.7-.5-.5-.7-1.2-.8-2v-1c0-.8.3-1.5.8-2s1.2-.7 2-.7c1 0 1.6.2 2 .7.6.5.8 1.2.9 2a7 7 0 0 1 0 1c0 .8-.3 1.5-.8 2s-1.2.7-2 .7Zm0-.9c.5 0 1-.2 1.2-.5.3-.3.5-.8.5-1.4a5.6 5.6 0 0 0 0-.9c0-.6-.2-1-.5-1.3-.3-.4-.7-.5-1.2-.5s-.9.1-1.2.5a2 2 0 0 0-.4 1.3v.9c0 .6.1 1.1.4 1.4.3.3.7.5 1.2.5Zm4.7.8h-.2l-.1-.3v-8.1l.3-.1h.7l.1.3v8.1l-.3.1h-.5Zm4.8 0c-.2 0-.4 0-.5-.3l-2.2-5.6a.2.2 0 0 1 .2-.3h.6c.1 0 .2 0 .3.2l1.8 4.7 1.9-4.7c0-.2.1-.2.2-.2h.8V329.8l-2.2 5.6c0 .2-.2.3-.4.3h-.5Zm6.7.1c-.8 0-1.5-.2-2-.7-.5-.5-.7-1.2-.8-2.1v-.8c0-.9.4-1.6.8-2 .5-.6 1.2-.8 2-.8.9 0 1.6.2 2 .8.6.6.8 1.3.8 2.3v.4H572v.2c0 .5.2 1 .4 1.3.3.4.7.5 1.2.5a1.7 1.7 0 0 0 1.4-.6l.2-.2h1v.2c0 .2 0 .4-.3.6-.2.3-.5.5-1 .7l-1.3.2Zm1.7-3.7c0-.6-.2-1-.5-1.3-.3-.4-.7-.6-1.2-.6s-.9.2-1.2.6a2 2 0 0 0-.4 1.3h3.3Zm4.8 3.7c-.8 0-1.4-.2-1.9-.8-.4-.5-.6-1.2-.6-2v-.8c0-.8.2-1.5.6-2 .5-.6 1-.8 2-.8.7 0 1.4.2 1.9.8V327.3l.2-.1h.8v8.4l-.2.1h-.7l-.1-.3v-.5c-.5.6-1.1 1-2 1Zm.3-1c.5 0 1-.1 1.2-.5.3-.3.4-.8.5-1.3a5.8 5.8 0 0 0 0-1 2 2 0 0 0-.5-1.1c-.3-.4-.7-.6-1.2-.6-.6 0-1 .2-1.3.6-.2.3-.4.8-.4 1.3v.4c0 1.5.5 2.3 1.7 2.3ZM377.4 274.6c-1 0-1.8-.3-2.4-.9-.6-.5-.9-1.3-.9-2.3a32.3 32.3 0 0 1 0-2.2c0-1 .3-1.8.9-2.4.6-.5 1.4-.8 2.4-.8a4 4 0 0 1 1.9.3c.4.3.8.6 1 1 .3.4.5.9.5 1.3v.2H379.8c-.2 0-.3 0-.3-.2-.1-.6-.4-1-.7-1.2-.4-.3-.9-.4-1.5-.4-1.3 0-2 .7-2.1 2.3a29.7 29.7 0 0 0 0 2c0 1.5.8 2.3 2.1 2.3.6 0 1.1-.1 1.5-.4.3-.2.6-.6.7-1.3l.1-.2h1l.1.2a2.7 2.7 0 0 1-1.5 2.3 4 4 0 0 1-1.9.4Zm5.1-.1h-.2v-6.2h1v.8c.4-.6 1-.9 1.7-.9h.5l.2.1V269.2H384.8c-.4 0-.8.2-1 .5-.3.2-.4.5-.4 1v3.7H382.4Zm6 .1c-.4 0-.8 0-1.1-.2a2 2 0 0 1-.8-.7c-.2-.3-.3-.6-.3-1s.2-.9.6-1.2c.5-.4 1-.6 1.8-.7l1.8-.2v-.4c0-.8-.5-1.2-1.4-1.2a1.5 1.5 0 0 0-1.4.7v.2H386.7l-.1-.2c0-.2 0-.4.3-.7.1-.2.4-.4.8-.6a3 3 0 0 1 1.3-.3c.9 0 1.5.2 2 .7.3.4.5.9.5 1.5v4.1h-1v-.7a2 2 0 0 1-.9.6c-.3.2-.7.3-1.2.3Zm.2-.9c.5 0 1-.2 1.3-.5.3-.3.5-.8.5-1.5v-.3l-1.4.2c-.6 0-1 .2-1.3.4-.3.2-.4.4-.4.7 0 .3.1.6.4.8l1 .2Zm6.8.9c-.6 0-1 0-1.4-.3-.4-.1-.7-.4-.9-.6-.2-.2-.2-.4-.2-.6v-.1l.2-.1h.6l.2.1.6.5c.2.2.5.2 1 .2.3 0 .7 0 1-.2.2-.2.3-.4.3-.7 0-.2 0-.3-.2-.5l-.5-.3a9 9 0 0 0-1.2-.3 3 3 0 0 1-1.4-.7c-.3-.3-.5-.6-.5-1s.1-.7.3-1l.8-.6c.3-.2.8-.3 1.2-.3.6 0 1 .1 1.3.3.4.1.7.3.9.6l.2.5v.2h-1l-.3-.4-.4-.2-.7-.1c-.3 0-.6 0-.8.3-.3.1-.4.3-.4.6 0 .2 0 .3.2.4l.5.3 1 .3c.8.2 1.4.4 1.7.7.3.3.5.7.5 1.2l-.3.9a2 2 0 0 1-1 .7l-1.3.2Zm4.2-.1h-.2V266h1l.1.2v2.8a2.3 2.3 0 0 1 2-.9c.8 0 1.4.3 1.8.8.4.5.6 1.1.6 2v3.5h-1l-.1-.2V271c0-.6-.2-1-.4-1.3-.3-.4-.7-.5-1.2-.5s-1 .2-1.2.5c-.3.3-.5.7-.5 1.3v3.5H399.6Zm10.4 0h-.2V266.1l.2-.1h5.1l.1.3v.7H411v2.8h3.8l.2.1V271h-4v3.5H410Zm6.7 0h-.2v-6.2h1v.8c.4-.6 1-.9 1.7-.9h.5l.2.1V269.2H419.1c-.4 0-.8.2-1 .5-.3.2-.4.5-.4 1v3.7H416.7Zm6.7.1c-.8 0-1.5-.3-2-.8s-.7-1.2-.8-2v-.8c0-1 .3-1.6.8-2.1s1.2-.8 2-.8c.9 0 1.6.3 2 .9.5.5.8 1.3.8 2.3v.2l-.1.2h-4.4v.1c0 .6.2 1 .5 1.4.3.3.7.5 1.2.5a1.7 1.7 0 0 0 1.4-.7l.2-.1h.9l.1.2-.3.6c-.2.2-.6.5-1 .6-.3.2-.8.3-1.3.3Zm1.6-3.7c0-.6-.1-1-.4-1.4-.3-.3-.7-.5-1.2-.5s-1 .2-1.2.5a2 2 0 0 0-.5 1.4h3.3Zm5.1 3.7c-.8 0-1.5-.3-2-.8s-.7-1.2-.8-2v-.8c0-1 .4-1.6.8-2.1.5-.5 1.2-.8 2-.8.9 0 1.6.3 2 .9.5.5.8 1.3.8 2.3v.4H428.5v.1c0 .6.1 1 .4 1.4.3.3.7.5 1.2.5a1.7 1.7 0 0 0 1.4-.7l.2-.1h.9l.1.2c0 .1 0 .3-.3.6-.2.2-.5.5-1 .6-.3.2-.8.3-1.3.3Zm1.7-3.7c0-.6-.2-1-.5-1.4-.3-.3-.7-.5-1.2-.5s-1 .2-1.2.5a2 2 0 0 0-.4 1.4h3.3Zm5.9 3.6h-.2V266.1l.2-.1h3c.8 0 1.6.2 2 .6.6.5.9 1 .9 1.9 0 .6-.2 1.1-.5 1.5-.3.4-.7.7-1.3.8l1.9 3.2V274.4h-1.1l-.2-.2-1.7-3h-2.1v3.2H437.7Zm2.9-4.4c1.2 0 1.8-.5 1.8-1.5s-.6-1.5-1.8-1.5h-2v3h2Zm6.3 4.5c-.4 0-.8 0-1.1-.2a2 2 0 0 1-.8-.7c-.2-.3-.3-.6-.3-1s.2-.9.6-1.2c.5-.4 1-.6 1.8-.7l1.8-.2v-.4c0-.8-.5-1.2-1.4-1.2a1.5 1.5 0 0 0-1.4.7v.2H445.2l-.1-.2.3-.7c.1-.2.4-.4.8-.6a3 3 0 0 1 1.3-.3c.9 0 1.5.2 2 .7.3.4.5.9.5 1.5v4.1h-1v-.7a2 2 0 0 1-.8.6c-.4.2-.8.3-1.3.3Zm.2-.9c.5 0 1-.2 1.3-.5.3-.3.5-.8.5-1.5v-.3l-1.4.2c-.6 0-1 .2-1.3.4-.3.2-.4.4-.4.7 0 .3.1.6.4.8l1 .2Zm7 .8c-1.2 0-1.9-.7-1.9-2.1v-3.2h-1.1V268.2h1.2V266h1v2.2h1.5l.2.1.1.2V269.1l-.3.1h-1.5v3c0 .5.1.8.3 1 0 .2.3.3.6.3h.9l.1.3V274.4h-1.1Zm4.8.1c-.8 0-1.5-.3-2-.8s-.8-1.2-.8-2v-.8c0-1 .3-1.6.8-2.1s1.2-.8 2-.8c.9 0 1.5.3 2 .9.5.5.8 1.3.8 2.3v.2l-.1.2h-4.4v.1c0 .6.2 1 .5 1.4.3.3.7.5 1.2.5a1.7 1.7 0 0 0 1.4-.7l.1-.1h1v.2l-.2.6c-.3.2-.6.5-1 .6-.4.2-.8.3-1.3.3Zm1.6-3.7c0-.6-.1-1-.4-1.4-.3-.3-.7-.5-1.2-.5s-1 .2-1.2.5a2 2 0 0 0-.5 1.4h3.3Zm7.7 3.6c-1.3 0-1.9-.7-1.9-2.1v-3.2h-1.1V268.2h1.2V266h.9l.1.2v2h1.5l.2.1.1.2V269.1l-.3.1h-1.5v3l.2 1c.2.2.4.3.7.3H469.3l.1.3V274.4h-1.1Zm2.6 0h-.3V266H471.6l.1.2v2.8a2.3 2.3 0 0 1 2-.9c.8 0 1.4.3 1.8.8.4.5.6 1.1.6 2v3.5h-1l-.1-.2V271c0-.6-.1-1-.4-1.3-.3-.4-.7-.5-1.2-.5s-1 .2-1.2.5c-.3.3-.5.7-.5 1.3v3.5h-.8Zm8.7.1c-.4 0-.7 0-1-.2a2 2 0 0 1-.9-.7c-.2-.3-.3-.6-.3-1s.3-.9.7-1.2c.4-.4 1-.6 1.8-.7l1.7-.2v-.4c0-.8-.4-1.2-1.4-1.2a1.5 1.5 0 0 0-1.3.7l-.1.2H477.9v-.2c0-.2 0-.4.2-.7l.8-.6a3 3 0 0 1 1.4-.3c.8 0 1.5.2 1.9.7.4.4.6.9.6 1.5v4l-.1.1h-1v-.7a2 2 0 0 1-.8.6c-.3.2-.8.3-1.3.3Zm.3-.9c.5 0 1-.2 1.2-.5.4-.3.5-.8.5-1.5v-.3l-1.3.2c-.6 0-1 .2-1.3.4-.3.2-.5.4-.5.7 0 .3.2.6.4.8l1 .2Zm7 .8c-1.3 0-2-.7-2-2.1v-3.2h-1.1V268.2h1.2V266h1l.1.2v2h1.5l.2.1v.8l-.2.1H486v3c0 .5 0 .8.2 1 .1.2.4.3.7.3H487.9V274.5h-1Zm7.3 0c-1.2 0-1.8-.7-1.8-2.1v-3.2h-1.2V268.2h1.2V266h1v2.2h1.6l.1.1.1.2V269.1l-.2.1h-1.5v3c0 .5 0 .8.2 1 .1.2.3.3.6.3h1V274.5h-1.1Zm2.6 0h-.2l-.1-.3v-5.9h1l.1.2v.6c.3-.6.9-.9 1.7-.9h.5l.2.1V269.2h-1c-.4 0-.7.2-1 .5-.2.2-.3.5-.3 1v3.5l-.1.2h-.8Zm4.4-7.4h-.2v-1.2h1.2V267h-1Zm.1 7.4h-.2v-6.2h1V274.4h-.8Zm5.2 2.6c-.6 0-1.2 0-1.6-.3-.4-.2-.6-.5-.8-.8-.2-.2-.3-.5-.3-.7v-.2l.3-.1h.7l.2.3c0 .2.2.4.4.6.3.2.6.3 1 .3.7 0 1-.1 1.4-.4.2-.2.4-.7.4-1.3v-.8l-.8.6c-.3.2-.7.2-1.1.2-.9 0-1.5-.2-2-.8-.4-.5-.6-1.2-.6-2v-.7c0-.8.2-1.5.7-2 .4-.6 1-.9 1.9-.9.8 0 1.5.3 2 1v-.8h1V274.4c0 1.8-.9 2.7-2.8 2.7Zm0-3.5c.5 0 1-.2 1.2-.6.3-.3.5-.8.5-1.3a4.7 4.7 0 0 0 0-.8c0-.5-.2-1-.5-1.3-.2-.3-.7-.5-1.2-.5-.6 0-1 .2-1.2.5-.3.4-.4.8-.5 1.4v.6c0 .6.2 1 .5 1.4.2.4.6.6 1.2.6Zm7.2 3.5c-.7 0-1.2 0-1.6-.3-.4-.2-.7-.5-.9-.8l-.2-.7v-.2l.2-.1h.8l.1.3.5.6c.2.2.6.3 1 .3.6 0 1-.1 1.3-.4.3-.2.4-.7.4-1.3v-.8l-.7.6c-.4.2-.7.2-1.2.2-.8 0-1.5-.2-1.9-.8-.4-.5-.6-1.2-.7-2v-.7c0-.8.3-1.5.7-2 .4-.6 1-.9 2-.9.8 0 1.4.3 1.9 1v-.8h1l.1.2v5.9c0 1.8-1 2.7-2.8 2.7Zm0-3.5c.5 0 1-.2 1.2-.6.3-.3.4-.8.4-1.3a4.7 4.7 0 0 0 0-.8c0-.5-.1-1-.4-1.3-.3-.3-.7-.5-1.2-.5-.6 0-1 .2-1.3.5-.2.4-.4.8-.4 1.4v.6c0 .6.2 1 .4 1.4.3.4.7.6 1.3.6Zm7 1c-.7 0-1.4-.3-1.9-.8s-.8-1.2-.8-2v-.8c0-1 .3-1.6.8-2.1s1.2-.8 2-.8c.9 0 1.5.3 2 .9.5.5.8 1.3.8 2.3v.2l-.1.2H519v.1c0 .6.2 1 .5 1.4.3.3.7.5 1.2.5a1.7 1.7 0 0 0 1.4-.7l.2-.1H523.3l.1.2-.3.6c-.3.2-.6.5-1 .6-.4.2-.8.3-1.3.3Zm1.7-3.7c0-.6-.1-1-.4-1.4-.3-.3-.7-.5-1.2-.5s-1 .2-1.2.5a2 2 0 0 0-.5 1.4h3.3Zm2.9 3.6h-.2l-.1-.3v-5.9h1l.1.2v.6c.3-.6.9-.9 1.7-.9h.5l.2.1V269.2h-1c-.4 0-.7.2-1 .5-.2.2-.3.5-.3 1v3.5l-.1.2h-.8Zm6.4.1c-.5 0-1 0-1.4-.3-.4-.1-.7-.4-.9-.6l-.2-.6v-.1l.2-.1h.6l.2.1.6.5c.3.2.6.2 1 .2.3 0 .7 0 1-.2.2-.2.3-.4.3-.7l-.1-.5-.6-.3a9 9 0 0 0-1.1-.3 3 3 0 0 1-1.5-.7c-.3-.3-.5-.6-.5-1s.1-.7.3-1l.8-.6c.3-.2.8-.3 1.3-.3s.9.1 1.3.3c.3.1.6.3.8.6.2.2.2.4.2.5v.2h-1c0-.2-.2-.3-.3-.4l-.4-.2-.6-.1c-.4 0-.7 0-1 .3l-.2.6v.4l.6.3 1.1.3c.8.2 1.3.4 1.6.7.3.3.5.7.5 1.2l-.3.9a2 2 0 0 1-.9.7l-1.4.2Zm8.3-.1h-.2l-.2-.3-1.7-5.6V268.3h1v.1l1.4 4.6 1.4-4.5.1-.2H542.7l.1.2 1.4 4.5 1.4-4.6.2-.2h.6l.2.1V268.6l-1.7 5.6-.1.2h-.8c-.2 0-.3 0-.3-.2l-1.4-4.3-1.4 4.3c-.1.2-.2.3-.4.3h-.5Zm9.5.1c-.4 0-.7 0-1-.2a2 2 0 0 1-.9-.7c-.2-.3-.3-.6-.3-1s.3-.9.7-1.2c.4-.4 1-.6 1.8-.7l1.7-.2v-.4c0-.8-.4-1.2-1.4-1.2a1.5 1.5 0 0 0-1.3.7l-.1.2H547.8v-.2c0-.2 0-.4.2-.7l.8-.6a3 3 0 0 1 1.4-.3c.9 0 1.5.2 1.9.7.4.4.6.9.6 1.5v4l-.1.1h-1v-.7a2 2 0 0 1-.8.6c-.3.2-.8.3-1.3.3Zm.3-.9c.5 0 1-.2 1.2-.5.4-.3.5-.8.5-1.5v-.3l-1.3.2c-.6 0-1 .2-1.3.4-.3.2-.5.4-.5.7 0 .3.2.6.4.8l1 .2Zm4.9.8h-.2l-.1-.3v-5.9h1l.1.2v.6c.3-.6.9-.9 1.7-.9h.5l.2.1V269.2h-1c-.4 0-.7.2-1 .5-.2.2-.3.5-.3 1v3.5l-.1.2h-.8Zm4.5 0h-.2v-6.2h1v.7l.9-.6c.3-.2.7-.3 1.2-.3.7 0 1.3.3 1.8.8.4.5.6 1.1.6 2v3.5H563.3V271c0-.6-.2-1-.5-1.3-.2-.4-.6-.5-1.1-.5-.5 0-1 .2-1.2.5-.3.3-.5.7-.5 1.3v3.5H559.1Zm7.2-7.4h-.2v-1.2h1.2V267h-1Zm.1 7.4h-.2v-6.2h1V274.4h-.8Zm3 0h-.3v-6.2h1v.7l.9-.6c.3-.2.7-.3 1.2-.3.7 0 1.3.3 1.8.8.4.5.6 1.1.6 2v3.5H573.5V271c0-.6-.2-1-.5-1.3-.2-.4-.6-.5-1.2-.5-.5 0-.9.2-1.2.5-.3.3-.4.7-.4 1.3v3.5H569.3Zm9.5 2.6c-.7 0-1.2 0-1.6-.3-.4-.2-.7-.5-.9-.8l-.2-.7v-.2l.2-.1h.8l.1.3.5.6c.2.2.6.3 1 .3.6 0 1-.1 1.3-.4.3-.2.4-.7.4-1.3v-.8l-.7.6c-.4.2-.7.2-1.2.2-.8 0-1.5-.2-1.9-.8-.4-.5-.6-1.2-.7-2v-.7c0-.8.3-1.5.7-2 .4-.6 1-.9 2-.9.8 0 1.4.3 1.9 1v-.8h1l.1.2v5.9c0 1.8-1 2.7-2.8 2.7Zm0-3.5c.5 0 1-.2 1.2-.6.3-.3.4-.8.4-1.3a4.7 4.7 0 0 0 0-.8c0-.5-.1-1-.4-1.3-.3-.3-.7-.5-1.2-.5-.6 0-1 .2-1.3.5-.2.4-.4.8-.4 1.4v.6c0 .6.2 1 .4 1.4.3.4.7.6 1.3.6ZM378.6 213.1c-1.1 0-2-.3-2.5-.9-.5-.5-.8-1.3-.9-2.3a32.3 32.3 0 0 1 0-2.2c0-1 .4-1.8 1-2.4.5-.5 1.3-.8 2.4-.8a4 4 0 0 1 1.8.3c.5.3.9.6 1.1 1 .3.4.4.9.4 1.3v.2H381c-.1 0-.2 0-.3-.2-.1-.6-.4-1-.7-1.2-.4-.3-.8-.4-1.4-.4-1.4 0-2.1.7-2.2 2.3a29.7 29.7 0 0 0 0 2c0 1.5.8 2.3 2.2 2.3.6 0 1-.1 1.4-.4.3-.2.6-.6.7-1.3l.1-.2H382v.2a2.7 2.7 0 0 1-1.5 2.3 4 4 0 0 1-1.8.4Zm5-.1h-.1l-.1-.3v-5.9h1l.1.2v.6c.3-.6.9-.9 1.7-.9h.4l.2.1.1.2v.7h-1c-.4 0-.7.2-1 .5-.2.2-.4.5-.4 1v3.7h-.8Zm6 .1c-.4 0-.8 0-1.1-.2a2 2 0 0 1-.8-.7c-.2-.3-.3-.6-.3-1s.2-.9.7-1.2c.4-.3 1-.6 1.7-.7l1.8-.2v-.4c0-.8-.5-1.2-1.4-1.2a1.5 1.5 0 0 0-1.4.7v.2H387.8v-.2c0-.2 0-.4.2-.7l.8-.6a3 3 0 0 1 1.3-.3c1 0 1.6.2 2 .7.3.4.5.9.5 1.5v4.1h-1v-.7a2 2 0 0 1-.8.6c-.4.2-.8.3-1.3.3Zm.2-.9c.6 0 1-.2 1.3-.5.3-.3.5-.8.5-1.5v-.3l-1.4.2c-.5 0-1 .2-1.3.4-.2.2-.4.4-.4.7 0 .3.1.6.4.8l1 .2Zm6.8.9c-.5 0-1 0-1.4-.3-.4-.1-.6-.4-.8-.6l-.3-.6v-.1l.3-.1h.5l.2.1.6.5c.3.2.6.2 1 .2s.7 0 1-.2c.2-.2.3-.4.3-.7l-.1-.5-.6-.3a9 9 0 0 0-1.1-.3 3 3 0 0 1-1.5-.7c-.3-.3-.4-.6-.4-1s0-.7.2-1l.8-.6c.4-.2.8-.3 1.3-.3s1 .1 1.3.3c.3.1.6.3.8.6l.3.5-.1.2h-1c0-.2-.2-.3-.3-.4l-.4-.2-.6-.1c-.4 0-.7 0-1 .3l-.2.6.1.4.5.3 1.1.3c.8.2 1.3.4 1.6.7.3.3.5.7.5 1.2l-.3.9a2 2 0 0 1-.9.7l-1.4.2Zm4.3-.1h-.2l-.1-.3v-8.2H401.8v3a2.3 2.3 0 0 1 2-.9c.8 0 1.4.3 1.8.8.5.5.7 1.1.7 2v3.3l-.1.2h-1v-3.5c0-.6-.2-1-.5-1.3-.3-.3-.7-.5-1.2-.5s-.9.2-1.2.5c-.3.3-.4.7-.4 1.3v3.3l-.1.2h-.8Zm10.4 0h-.2l-.1-.3v-8l.3-.1H416.4v1h-4.2v2.8h3.7l.2.1.1.2v.7h-4v3.3l-.1.2h-.8Zm6.7 0h-.2l-.1-.3v-5.9h1l.1.2v.6c.3-.6.9-.9 1.7-.9h.4l.2.1.1.2v.7h-1c-.4 0-.7.2-1 .5-.2.2-.4.5-.4 1v3.7h-.8Zm6.6.1c-.8 0-1.5-.3-2-.8-.4-.5-.7-1.2-.8-2v-.8c0-1 .4-1.6.9-2.1.4-.5 1.1-.8 2-.8.8 0 1.5.3 2 .9.5.5.7 1.3.7 2.3v.4H423v.1c0 .6.2 1 .4 1.4.3.3.7.5 1.2.5a1.7 1.7 0 0 0 1.4-.7l.2-.1h1v.2c0 .1 0 .3-.3.6-.2.2-.5.5-1 .6-.3.2-.8.3-1.3.3Zm1.7-3.7c0-.6-.2-1-.5-1.4-.3-.3-.7-.5-1.2-.5s-.9.2-1.2.5a2 2 0 0 0-.4 1.4h3.3Zm5 3.7c-.8 0-1.4-.3-2-.8-.4-.5-.7-1.2-.7-2v-.8c0-1 .3-1.6.8-2.1s1.1-.8 2-.8c.8 0 1.5.3 2 .9.5.5.7 1.3.7 2.3v.4H429.6v.1c0 .6.2 1 .5 1.4.3.3.6.5 1.1.5a1.7 1.7 0 0 0 1.5-.7l.1-.1h1v.2c0 .1 0 .3-.3.6-.2.2-.5.5-1 .6-.3.2-.8.3-1.3.3Zm1.7-3.7c0-.6-.2-1-.5-1.4-.3-.3-.7-.5-1.2-.5s-.9.2-1.2.5a2 2 0 0 0-.4 1.4h3.3Zm6 3.6h-.3V204.6l.2-.1h3c.9 0 1.6.2 2.1.6.5.5.8 1 .8 1.9 0 .6-.2 1.1-.5 1.5-.3.4-.7.7-1.2.8l1.8 3.2V213h-1.1l-.1-.2-1.8-3h-2v3l-.2.2h-.8Zm2.8-4.4c1.2 0 1.8-.5 1.8-1.5s-.6-1.5-1.8-1.5h-2v3h2Zm6.3 4.5c-.4 0-.8 0-1-.2a2 2 0 0 1-.9-.7c-.2-.3-.3-.6-.3-1s.2-.9.7-1.2c.4-.3 1-.6 1.7-.7l1.8-.2v-.4c0-.8-.4-1.2-1.4-1.2a1.5 1.5 0 0 0-1.3.7l-.1.2H446.4v-.2c0-.2 0-.4.2-.7l.8-.6a3 3 0 0 1 1.3-.3c1 0 1.6.2 2 .7.4.4.6.9.6 1.5v4l-.1.1h-1v-.7a2 2 0 0 1-.8.6c-.4.2-.8.3-1.3.3Zm.3-.9c.5 0 .9-.2 1.2-.5.4-.3.5-.8.5-1.5v-.3l-1.4.2c-.5 0-1 .2-1.2.4-.3.2-.5.4-.5.7 0 .3.2.6.4.8l1 .2Zm7 .8c-1.3 0-2-.7-2-2.1v-3.2h-1.1V206.7h1.2v-2.3h1v2.2h1.6l.2.1v.8l-.2.1h-1.5v3c0 .5 0 .8.2 1 .1.2.3.3.7.3H456.4V213h-1Zm4.7.1c-.8 0-1.5-.3-2-.8s-.7-1.2-.8-2v-.8c0-1 .4-1.6.8-2.1.5-.5 1.2-.8 2-.8.9 0 1.6.3 2 .9.5.5.8 1.3.8 2.3v.4H458.4v.1c0 .6.1 1 .4 1.4.3.3.7.5 1.2.5a1.7 1.7 0 0 0 1.4-.7l.2-.1h1v.2c0 .1 0 .3-.3.6-.2.2-.5.5-1 .6-.3.2-.8.3-1.3.3Zm1.7-3.7c0-.6-.2-1-.5-1.4-.3-.3-.7-.5-1.2-.5s-1 .2-1.2.5a2 2 0 0 0-.4 1.4h3.3Zm7.6 3.6c-1.2 0-1.9-.7-1.9-2.1v-3.2h-1.1V206.7h1.2v-2.3h1v2.2h1.6l.1.1.1.2V207.6l-.2.1h-1.5v3c0 .5 0 .8.2 1 .1.2.3.3.6.3h1V213h-1.1Zm2.6 0h-.2v-8.5h1v3a2.3 2.3 0 0 1 2-.9c.8 0 1.4.3 1.8.8.5.5.7 1.1.7 2v3.3l-.1.2h-1v-3.5c0-.6-.2-1-.5-1.3-.3-.3-.7-.5-1.2-.5s-.9.2-1.2.5c-.3.3-.4.7-.4 1.3v3.3l-.1.2h-.8Zm8.7.1c-.3 0-.7 0-1-.2a2 2 0 0 1-.8-.7c-.2-.3-.3-.6-.3-1s.2-.9.6-1.2c.5-.3 1-.6 1.8-.7l1.8-.2v-.4c0-.8-.5-1.2-1.4-1.2a1.5 1.5 0 0 0-1.4.7v.2h-.9l-.1-.2c0-.2 0-.4.2-.7l.9-.6a3 3 0 0 1 1.3-.3c.9 0 1.5.2 2 .7.3.4.5.9.5 1.5v4.1h-1l-.1-.2v-.5a2 2 0 0 1-.8.6c-.3.2-.7.3-1.3.3Zm.3-.9c.5 0 1-.2 1.3-.5.3-.3.5-.8.5-1.5v-.3l-1.4.2c-.6 0-1 .2-1.3.4-.3.2-.4.4-.4.7 0 .3.1.6.4.8l.9.2Zm7 .8c-1.3 0-1.9-.7-1.9-2.1v-3.2H485l-.1-.3V206.8h1.3v-2.3h.9l.1.2v2h1.5l.2.1v.8l-.2.1h-1.5v3l.2 1c.2.2.4.3.7.3H489l.1.3V212.9H488Zm7.4 0c-1.3 0-2-.7-2-2.1v-3.2h-1.1V206.7h1.2v-2.3h1l.1.2v2h1.5l.2.1v.8l-.2.1h-1.5v3c0 .5 0 .8.2 1 .1.2.4.3.7.3H496.4V213h-1Zm2.5 0h-.2v-6.2h1v.8c.4-.6 1-.9 1.7-.9h.5l.2.1V207.7H500.2c-.5 0-.8.2-1 .5-.3.2-.4.5-.4 1v3.5l-.1.2h-.8Zm4.5-7.4h-.2l-.1-.3V204.4h1.2l.1.3v.8h-1Zm0 7.4h-.1l-.1-.3v-5.9h1l.1.2v5.9h-.8Zm5.3 2.6c-.7 0-1.2 0-1.6-.3-.4-.2-.7-.5-.9-.8-.2-.2-.2-.5-.3-.7l.1-.2.2-.1h.8v.3l.6.6c.2.2.5.3 1 .3.6 0 1-.1 1.3-.4.3-.2.4-.7.4-1.3v-.8l-.8.6c-.3.2-.7.2-1.1.2-.9 0-1.5-.2-2-.8-.3-.5-.6-1.2-.6-2v-.7c0-.8.3-1.5.7-2 .4-.6 1-.9 1.9-.9.8 0 1.5.3 2 1v-.8h1v6c0 1.9-.9 2.8-2.7 2.8Zm0-3.5c.5 0 .9-.2 1.2-.6.2-.3.4-.8.4-1.3a4.7 4.7 0 0 0 0-.8c0-.5-.2-1-.4-1.3-.3-.3-.7-.5-1.3-.5-.5 0-1 .2-1.2.5-.3.4-.4.8-.4 1.4v.6c0 .6.1 1 .4 1.4.2.4.7.6 1.2.6Zm7.1 3.5c-.6 0-1.2 0-1.6-.3-.4-.2-.7-.5-.8-.8-.2-.2-.3-.5-.3-.7v-.2l.3-.1h.7l.2.3c0 .2.2.4.4.6.2.2.6.3 1 .3.6 0 1-.1 1.4-.4.2-.2.4-.7.4-1.3v-.8l-.8.6c-.3.2-.7.2-1.2.2-.8 0-1.4-.2-1.9-.8-.4-.5-.6-1.2-.6-2v-.7c0-.8.2-1.5.7-2 .4-.6 1-.9 1.8-.9.9 0 1.5.3 2 1v-.8h1l.1.2v5.8c0 1.9-1 2.8-2.8 2.8Zm0-3.5c.5 0 1-.2 1.2-.6.3-.3.5-.8.5-1.3a4.7 4.7 0 0 0 0-.8c0-.5-.2-1-.5-1.3-.2-.3-.7-.5-1.2-.5-.6 0-1 .2-1.2.5-.3.4-.4.8-.5 1.4v.6c0 .6.2 1 .5 1.4.2.4.6.6 1.2.6Zm7.1 1c-.8 0-1.5-.3-2-.8s-.7-1.2-.8-2v-.8c0-1 .4-1.6.8-2.1.5-.5 1.2-.8 2-.8.9 0 1.6.3 2 .9.6.5.8 1.3.8 2.3v.4H520.2v.1c0 .6.1 1 .4 1.4.3.3.7.5 1.2.5a1.7 1.7 0 0 0 1.4-.7l.2-.1h1v.2c0 .1 0 .3-.3.6-.2.2-.5.5-1 .6-.3.2-.8.3-1.3.3Zm1.7-3.7c0-.6-.2-1-.5-1.4-.3-.3-.7-.5-1.2-.5s-.9.2-1.2.5a2 2 0 0 0-.4 1.4h3.3Zm2.8 3.6h-.2v-6.2h1v.8c.4-.6 1-.9 1.7-.9h.5l.2.1V207.7H528.7c-.5 0-.8.2-1 .5-.3.2-.4.5-.4 1v3.5l-.1.2h-.8Zm6.4.1c-.5 0-1 0-1.4-.3l-.8-.6-.3-.6v-.1l.3-.1h.5l.2.1.7.5c.2.2.5.2.9.2s.7 0 1-.2c.2-.2.4-.4.4-.7 0-.2 0-.3-.2-.5l-.6-.3a9 9 0 0 0-1.1-.3 3 3 0 0 1-1.5-.7c-.3-.3-.4-.6-.4-1s0-.7.2-1l.8-.6c.4-.2.8-.3 1.3-.3s1 .1 1.3.3c.4.1.6.3.8.6l.3.5-.1.2H534.2l-.4-.4-.4-.2-.6-.1c-.4 0-.7 0-.9.3-.2.1-.3.3-.3.6l.1.4.5.3 1.1.3c.8.2 1.3.4 1.6.7.4.3.5.7.5 1.2 0 .3 0 .6-.3.9a2 2 0 0 1-.9.7l-1.4.2Zm9.5 0c-.9 0-1.6-.2-2-.7a3 3 0 0 1-.8-2v-1c0-.9.3-1.6.8-2 .4-.5 1.1-.8 2-.8.5 0 1 .1 1.4.3l1 .8.2 1v.1h-1l-.1-.2c-.1-.3-.3-.6-.6-.8l-1-.2c-.4 0-.8.1-1.1.4-.3.3-.5.8-.5 1.4v.9c0 .6.2 1 .5 1.4.3.3.7.5 1.2.5.4 0 .7-.1 1-.3.2-.2.4-.4.5-.8l.1-.2h1v.2c0 .3 0 .6-.3 1l-.9.7c-.4.2-.8.3-1.4.3Zm4.3-.1h-.2v-6.2h1v.8c.4-.6 1-.9 1.8-.9h.4l.2.1.1.2v.7h-1c-.4 0-.8.2-1 .5-.3.2-.4.5-.4 1v3.7H546.5Zm4.5-7.4h-.2v-1.2h1.2V205.5h-1Zm.1 7.4h-.2v-6.2h1V213h-.8Zm5 0c-1.2 0-1.8-.7-1.8-2.1v-3.2h-1.2V206.7h1.2v-2.3h1v2.2h1.6l.2.1v.8l-.2.1h-1.5v3c0 .5 0 .8.2 1 .1.2.4.3.7.3H557.3V213h-1Zm2.5-7.4h-.2v-1.2h1.2V205.5h-1Zm.1 7.4h-.2v-6.2h1V213h-.8Zm5.1.1c-.8 0-1.5-.2-2-.7a3 3 0 0 1-.7-2v-1c0-.9.3-1.6.7-2 .5-.5 1.2-.8 2-.8.6 0 1.1.1 1.5.3.4.2.7.5.9.8.2.3.3.6.3 1v.1h-1l-.1-.2-.6-.8-1-.2c-.4 0-.8.1-1.1.4-.3.3-.5.8-.5 1.4v.9c0 .6.2 1 .5 1.4.3.3.7.5 1.2.5l.9-.3.6-.8v-.2h1.1v.2l-.3 1-.9.7c-.4.2-.9.3-1.5.3Zm5.9 0c-.4 0-.8 0-1.1-.2a2 2 0 0 1-.8-.7c-.2-.3-.3-.6-.3-1s.2-.9.7-1.2c.4-.3 1-.6 1.7-.7l1.8-.2v-.4c0-.8-.5-1.2-1.4-1.2a1.5 1.5 0 0 0-1.4.7v.2H568v-.2c0-.2 0-.4.2-.7l.8-.6a3 3 0 0 1 1.3-.3c1 0 1.6.2 2 .7.3.4.5.9.5 1.5v4.1h-1v-.7a2 2 0 0 1-.8.6c-.4.2-.8.3-1.3.3Zm.2-.9c.6 0 1-.2 1.3-.5.3-.3.5-.8.5-1.5v-.3l-1.4.2c-.5 0-1 .2-1.3.4-.2.2-.4.4-.4.7 0 .3.1.6.4.8l1 .2Zm5 .8h-.2l-.1-.3v-8.2h1l.1.2v8.2h-.8ZM34.4 67.5h-.2V67l1.7-2.3h-.6c-.5 0-1-.1-1.4-.3l-1-1-.2-1.2c0-.5 0-.9.3-1.3.2-.4.5-.7 1-1a3 3 0 0 1 1.4-.3 3 3 0 0 1 1.6.3l1 1 .2 1.3c0 .4 0 .7-.2 1l-.6 1-2 3-.2.1h-.8Zm1-3.6c.3 0 .6 0 .9-.2a1.6 1.6 0 0 0 .8-1.4c0-.4 0-.7-.2-.9-.1-.3-.4-.5-.6-.6l-.9-.2c-.3 0-.6 0-.8.2-.3.1-.5.3-.6.6-.2.2-.2.5-.2.9 0 .3 0 .6.2.8a1.6 1.6 0 0 0 1.4.8Zm6.9 3.7c-.6 0-1.1-.1-1.5-.3-.5-.2-.8-.4-1-.8-.3-.3-.4-.8-.4-1.2 0-.5 0-.8.3-1.2.2-.3.5-.5.9-.7l-.7-.7a2 2 0 0 1-.2-1c0-.6.2-1.1.7-1.5a3 3 0 0 1 1.9-.5 3 3 0 0 1 1.8.5c.5.4.8.9.8 1.5 0 .4-.1.7-.3 1-.1.3-.4.5-.6.7l.8.7c.2.4.3.7.3 1.2 0 .4 0 .9-.3 1.2-.3.4-.6.6-1 .8l-1.5.3Zm0-4.6c.4 0 .8-.1 1-.4.4-.2.5-.5.5-.8a1 1 0 0 0-.4-1l-1.1-.2c-.5 0-.9 0-1.2.3a1 1 0 0 0-.4.9c0 .3.1.6.4.9.3.2.7.3 1.2.3Zm0 3.7c.5 0 1-.1 1.3-.4.3-.2.5-.6.5-1 0-.5-.2-.8-.5-1-.4-.3-.8-.4-1.3-.4-.6 0-1 0-1.3.3-.4.3-.5.6-.5 1 0 .5.1.9.5 1.1.3.3.7.4 1.3.4Zm4.3.8h-.1l-.1-.3v-.9l.2-.1h1l.1.2v1h-1.1Zm5 0c-.5 0-1 0-1.4-.2l-1-.8a2 2 0 0 1-.3-1v-.2h.8c.2 0 .3 0 .3.2.1.4.3.7.6.9.3.2.7.3 1 .3.5 0 1-.2 1.3-.5.3-.3.5-.7.5-1.2s-.2-.9-.5-1.2c-.4-.3-.8-.4-1.3-.4H51l-.5.4-.2.1h-1v-.2l.3-3.6.1-.2.2-.1h4V60.8H50.6l-.2 2.2c.4-.3.8-.4 1.4-.4.5 0 1 .1 1.3.3.4.2.8.5 1 .9.2.3.4.8.4 1.3s-.2 1-.4 1.4c-.2.4-.6.7-1 .9-.4.2-1 .3-1.5.3Zm5.5-3.9c-.5 0-.9 0-1.2-.3-.2-.3-.4-.6-.4-1a8.6 8.6 0 0 1 0-1c0-.5.2-.9.4-1.2.3-.2.7-.4 1.2-.4s.9.2 1.1.4c.3.3.4.7.5 1.1a15.2 15.2 0 0 1 0 1c0 .5-.2.8-.5 1-.3.3-.6.4-1.1.4Zm-1 3.9H56V67l5.4-7.1.2-.2h.7V60.1L57 67.3l-.2.1h-.5Zm1-4.5.6-.3.2-.5a14.7 14.7 0 0 0 0-1l-.2-.5c-.2-.2-.4-.2-.6-.2-.3 0-.5 0-.6.2a1 1 0 0 0-.2.6 7.5 7.5 0 0 0 0 .9c0 .2 0 .4.2.5.1.2.3.3.6.3Zm4 4.5c-.4 0-.8 0-1-.3-.3-.3-.5-.7-.5-1.1a8.6 8.6 0 0 1 0-1c0-.5.2-.8.4-1.1.3-.3.7-.4 1.2-.4s.9.1 1.1.4c.3.3.5.6.5 1a12 12 0 0 1 0 1c0 .5-.2.9-.5 1.2-.3.2-.6.3-1.1.3Zm0-.7c.4 0 .5 0 .7-.2l.2-.6a14.7 14.7 0 0 0 0-.9l-.2-.6-.6-.2c-.3 0-.5 0-.6.2a1 1 0 0 0-.2.6 7.5 7.5 0 0 0 0 1l.2.5.6.2ZM34 88.7l-.1-.2v-.2l1.7-2.3H35c-.5 0-1 0-1.4-.3a2.5 2.5 0 0 1-1.2-2.2c0-.4 0-.8.3-1.2.2-.4.5-.8 1-1a3 3 0 0 1 1.4-.4 3 3 0 0 1 1.6.4c.4.2.7.5 1 1l.2 1.2c0 .4 0 .8-.2 1-.1.4-.3.7-.6 1l-2 3-.2.2H34Zm1.1-3.5c.4 0 .6 0 .9-.2a1.6 1.6 0 0 0 .9-1.5l-.3-.9c-.1-.2-.3-.4-.6-.5-.3-.2-.5-.2-.9-.2-.3 0-.5 0-.8.2-.3.1-.5.3-.6.5-.2.3-.2.6-.2 1 0 .2 0 .5.2.8a1.6 1.6 0 0 0 1.4.8Zm6.9 3.6c-.6 0-1.1 0-1.5-.2a2.1 2.1 0 0 1-1.4-2c0-.5.1-.9.3-1.2.2-.3.5-.6.9-.8-.3-.1-.5-.4-.7-.6a2 2 0 0 1-.2-1c0-.6.2-1.2.7-1.5a3 3 0 0 1 1.9-.6 3 3 0 0 1 1.9.6c.4.3.7.9.7 1.5 0 .4-.1.7-.3 1-.1.2-.3.5-.6.6l.8.8c.3.3.4.7.4 1.1 0 .5-.2.9-.4 1.3-.2.3-.6.6-1 .8-.5.2-1 .2-1.5.2Zm0-4.6c.4 0 .8 0 1-.3.4-.2.5-.5.5-.9a1 1 0 0 0-.4-.9c-.3-.2-.7-.3-1.1-.3-.5 0-.9.1-1.2.3a1 1 0 0 0-.4 1c0 .3.1.6.4.8.3.2.7.3 1.2.3Zm0 3.8c.5 0 1-.2 1.3-.4.3-.3.5-.6.5-1 0-.5-.2-.9-.5-1.1-.4-.3-.8-.4-1.3-.4s-1 .1-1.3.4c-.4.2-.5.6-.5 1 0 .5.1.8.5 1 .3.3.8.5 1.3.5Zm4.4.7h-.2l-.1-.2v-1h1.2l.1.2v1h-1Zm5 .1c-.9 0-1.6-.2-2-.8-.5-.5-.7-1.3-.7-2.2a29 29 0 0 1 0-1.9c0-.9.2-1.6.7-2.1.4-.6 1.1-.9 2-.9 1 0 1.7.3 2.2.9.4.5.6 1.2.7 2.1a29.2 29.2 0 0 1 0 2c0 .8-.3 1.6-.7 2.1-.5.6-1.2.8-2.1.8Zm0-.9c.6 0 1-.2 1.3-.6.3-.3.4-.8.5-1.5a30.5 30.5 0 0 0 0-1.8c0-.7-.2-1.2-.5-1.6-.3-.4-.7-.5-1.2-.5-.6 0-1 .1-1.3.5-.3.4-.4 1-.4 1.6v1.8c0 .7.1 1.2.4 1.5.3.4.7.6 1.3.6Zm5.7-3c-.5 0-.9-.1-1.2-.4-.2-.2-.4-.6-.4-1a8.6 8.6 0 0 1 0-1c0-.5.2-.9.4-1.1.3-.3.7-.4 1.2-.4s.9.1 1.1.4c.3.2.4.6.5 1a15.2 15.2 0 0 1 0 1c0 .5-.2.9-.5 1.1-.3.3-.6.4-1.1.4Zm-1 3.8H56V88.4l5.4-7.2.2-.1h.7v.2L57 88.6l-.2.2h-.5Zm1-4.5c.2 0 .4 0 .6-.2l.2-.6a14.7 14.7 0 0 0 0-.9l-.2-.6-.6-.2c-.3 0-.5 0-.6.2a1 1 0 0 0-.2.6 7.5 7.5 0 0 0 0 1c0 .1 0 .3.2.5l.6.2Zm4 4.6c-.4 0-.8-.1-1-.4-.3-.3-.5-.6-.5-1a8.6 8.6 0 0 1 0-1c0-.5.2-.9.4-1.2.3-.2.7-.4 1.2-.4s.9.2 1.1.4c.3.3.5.7.5 1.1a12 12 0 0 1 0 1c0 .5-.2.8-.5 1.1-.3.3-.6.4-1.1.4Zm0-.7c.4 0 .5-.1.7-.3l.2-.5a14.7 14.7 0 0 0 0-1l-.2-.5c-.1-.2-.3-.2-.6-.2s-.5 0-.6.2a1 1 0 0 0-.2.6 7.5 7.5 0 0 0 0 .9l.2.5c.1.2.3.3.6.3ZM36.3 110h-.1v-.4l1.6-2.3h-.6c-.5 0-1-.1-1.3-.3l-1-1-.3-1.2c0-.5.1-.9.3-1.3l1-1a3 3 0 0 1 1.5-.3 3 3 0 0 1 1.5.3c.4.3.8.6 1 1 .2.4.3.8.3 1.3 0 .4 0 .7-.2 1l-.6 1-2.1 3-.2.1h-.8Zm1.1-3.6c.3 0 .6 0 .9-.2a1.6 1.6 0 0 0 .8-1.4c0-.4 0-.7-.2-.9l-.6-.6-.9-.2c-.3 0-.6 0-.8.2-.3.1-.5.3-.7.6l-.2.9c0 .3 0 .6.2.8a1.6 1.6 0 0 0 1.5.8Zm5 3.6h-.2v-.3l2.7-6.5H41.1V102.4l.2-.1H46v1.1l-2.7 6.3-.1.2h-.8Zm4.2 0h-.1l-.1-.3v-.9l.2-.1h1l.1.2v1h-1.1Zm5 0c-.5 0-1 0-1.4-.2l-1-.8a2 2 0 0 1-.3-1v-.2h.8c.2 0 .3 0 .3.2.1.4.3.7.6.9.3.2.7.3 1 .3.5 0 1-.2 1.3-.5.3-.3.5-.7.5-1.2s-.2-.9-.5-1.2c-.4-.3-.8-.4-1.3-.4H51a2 2 0 0 0-.5.4l-.2.1h-1v-.2l.3-3.6.1-.2.2-.1h4V103.3H50.6l-.2 2.2c.4-.3.8-.4 1.4-.4.5 0 1 .1 1.3.3.4.2.8.5 1 .9.2.3.4.8.4 1.3s-.2 1-.4 1.4c-.2.4-.6.7-1 .9-.4.2-1 .3-1.5.3Zm5.5-3.9c-.5 0-.9 0-1.2-.3-.2-.3-.4-.6-.4-1a8.6 8.6 0 0 1 0-1c0-.5.2-.9.4-1.2.3-.2.7-.4 1.2-.4s.9.2 1.1.4c.3.3.4.7.5 1.1a15.1 15.1 0 0 1 0 1c0 .5-.2.8-.5 1-.3.3-.6.4-1.1.4Zm-1 3.9H56v-.4l5.4-7.1.2-.2h.7V102.6l-5.4 7.2-.2.1h-.5Zm1-4.5.6-.3.2-.5a14.7 14.7 0 0 0 0-1l-.2-.5c-.2-.2-.4-.2-.6-.2-.3 0-.5 0-.6.2a1 1 0 0 0-.2.6 7.5 7.5 0 0 0 0 .9c0 .2 0 .4.2.5.1.2.3.3.6.3Zm4 4.5c-.4 0-.8 0-1-.3-.3-.3-.5-.7-.5-1.1a8.6 8.6 0 0 1 0-1c0-.5.2-.8.4-1.1.3-.3.7-.4 1.2-.4s.9.1 1.1.4c.3.3.5.6.5 1a12 12 0 0 1 0 1c0 .5-.2.9-.5 1.2-.3.2-.6.3-1.1.3Zm0-.7c.4 0 .5 0 .7-.2l.2-.6a14.7 14.7 0 0 0 0-.9l-.2-.6-.6-.2c-.3 0-.5 0-.6.2a1 1 0 0 0-.2.6 7.5 7.5 0 0 0 0 1l.2.5.6.2ZM36 131.2H36v-.4l1.7-2.3H37c-.6 0-1 0-1.4-.3a2.6 2.6 0 0 1-1.2-2.2c0-.4 0-.8.2-1.2.3-.4.6-.8 1-1a3 3 0 0 1 1.5-.4 3 3 0 0 1 1.5.4c.5.2.8.5 1 1 .2.3.3.8.3 1.2 0 .4 0 .8-.2 1-.1.4-.3.7-.6 1l-2.1 3-.2.2H36Zm1.1-3.5c.3 0 .6 0 .9-.2a1.6 1.6 0 0 0 .8-1.5c0-.3 0-.6-.2-.9l-.6-.5c-.3-.2-.6-.2-.9-.2-.3 0-.6 0-.8.2-.3.1-.5.3-.6.5-.2.3-.3.6-.3 1l.3.8a1.6 1.6 0 0 0 1.4.8Zm5 3.5h-.2V130.9l2.7-6.4H40.8V123.5h4.9v1L43 131l-.1.2H42Zm4.3 0h-.2l-.1-.2v-1h1.2l.1.2v1h-1Zm5 .1c-.9 0-1.6-.2-2-.8-.5-.5-.7-1.3-.7-2.2a29 29 0 0 1 0-1.9c0-.9.2-1.6.7-2.1.4-.6 1.1-.9 2-.9 1 0 1.7.3 2.2.9.4.5.6 1.2.7 2.1a29.3 29.3 0 0 1 0 2c0 .8-.3 1.6-.7 2.1-.5.6-1.2.8-2.1.8Zm0-.9c.6 0 1-.2 1.3-.6.3-.3.4-.8.5-1.5a30.4 30.4 0 0 0 0-1.8c0-.7-.2-1.2-.5-1.6-.3-.4-.7-.5-1.2-.5-.6 0-1 .1-1.3.5-.3.4-.4 1-.4 1.6v1.8c0 .7.1 1.2.4 1.5.3.4.7.6 1.3.6Zm5.7-3c-.5 0-.9-.1-1.2-.4-.2-.2-.4-.6-.4-1a8.6 8.6 0 0 1 0-1c0-.5.2-.9.4-1.1.3-.3.7-.4 1.2-.4s.9.1 1.1.4c.3.2.4.6.5 1a15.1 15.1 0 0 1 0 1c0 .5-.2.9-.5 1.1-.3.3-.6.4-1.1.4Zm-1 3.8H56V130.9l5.4-7.2.2-.1h.7v.2L57 131l-.2.2h-.5Zm1-4.5c.2 0 .4 0 .6-.2l.2-.6a14.7 14.7 0 0 0 0-.9l-.2-.6-.6-.2c-.3 0-.5 0-.6.2a1 1 0 0 0-.2.6 7.5 7.5 0 0 0 0 1c0 .1 0 .3.2.5l.6.2Zm4 4.6c-.4 0-.8-.1-1-.4-.3-.3-.5-.6-.5-1a8.6 8.6 0 0 1 0-1c0-.5.2-.9.4-1.2.3-.2.7-.4 1.2-.4s.9.2 1.1.4c.3.3.5.7.5 1.1a12 12 0 0 1 0 1c0 .5-.2.8-.5 1.1-.3.3-.6.4-1.1.4Zm0-.7c.4 0 .5-.1.7-.3l.2-.5a14.7 14.7 0 0 0 0-1l-.2-.5c-.1-.2-.3-.2-.6-.2s-.5 0-.6.2a1 1 0 0 0-.2.6 7.5 7.5 0 0 0 0 .9l.2.5c.1.2.3.3.6.3ZM34.7 152.5h-.1v-.4l1.6-2.3h-.6c-.5 0-1-.1-1.3-.3l-1-1-.3-1.2c0-.5.1-.9.3-1.3l1-1a3 3 0 0 1 1.5-.3 3 3 0 0 1 1.5.3c.4.3.8.6 1 1 .2.4.3.8.3 1.3 0 .4 0 .7-.2 1l-.6 1-2.1 3-.2.1h-.8Zm1.1-3.6c.3 0 .6 0 .8-.2a1.6 1.6 0 0 0 1-1.4c0-.4-.2-.7-.3-.9-.2-.3-.4-.5-.7-.6l-.8-.2c-.3 0-.6 0-.8.2-.3.1-.5.3-.7.6l-.2.9c0 .3 0 .6.2.8a1.6 1.6 0 0 0 1.5.8Zm6.6 3.7c-.6 0-1-.1-1.5-.4a2.5 2.5 0 0 1-1.3-2.2c0-.4 0-.8.2-1.1l.5-1 2.1-2.9.2-.2h.9v.4l-1.6 2.2h.7c.5 0 1 0 1.4.3.4.2.7.5.9 1a2.7 2.7 0 0 1 0 2.6c-.2.4-.5.7-1 1a3 3 0 0 1-1.5.3Zm0-1 .9-.1.6-.6c.2-.3.3-.6.3-1l-.3-.9-.6-.6a2 2 0 0 0-1.7 0l-.7.6c-.2.3-.2.6-.2 1 0 .3 0 .6.2.9l.6.6.9.2Zm4.2.9h-.1l-.1-.3v-.9l.2-.1h1l.1.2v1h-1.1Zm5 0c-.5 0-1 0-1.4-.2l-1-.8a2 2 0 0 1-.3-1v-.2h.8c.2 0 .3 0 .3.2.1.4.3.7.6.9.3.2.7.3 1 .3.5 0 1-.2 1.3-.5.3-.3.5-.7.5-1.2s-.2-.9-.5-1.2c-.4-.3-.8-.4-1.3-.4H51a2 2 0 0 0-.5.4l-.2.1h-1v-.2l.3-3.6.1-.2.2-.1h4V145.8H50.6l-.2 2.2c.4-.3.8-.4 1.4-.4.5 0 1 .1 1.3.3.4.2.8.5 1 .9.2.3.4.8.4 1.3s-.2 1-.4 1.4c-.2.4-.6.7-1 .9-.4.2-1 .3-1.5.3Zm5.5-3.9c-.5 0-.9 0-1.2-.3-.2-.3-.4-.6-.4-1a8.6 8.6 0 0 1 0-1c0-.5.2-.9.4-1.2.3-.2.7-.4 1.2-.4s.9.2 1.1.4c.3.3.4.7.5 1.1a15.1 15.1 0 0 1 0 1c0 .5-.2.8-.5 1-.3.3-.6.4-1.1.4Zm-1 3.9H56v-.4l5.4-7.1.2-.2h.7V145.1l-5.4 7.2-.2.1h-.5Zm1-4.5.6-.3.2-.5a14.7 14.7 0 0 0 0-1l-.2-.5c-.2-.2-.4-.2-.6-.2-.3 0-.5 0-.6.2a1 1 0 0 0-.2.6 7.5 7.5 0 0 0 0 .9c0 .2 0 .4.2.5.1.2.3.3.6.3Zm4 4.5c-.4 0-.8 0-1-.3-.3-.3-.5-.7-.5-1.1a8.6 8.6 0 0 1 0-1c0-.5.2-.8.4-1.1.3-.3.7-.4 1.2-.4s.9.1 1.1.4c.3.3.5.6.5 1a12 12 0 0 1 0 1c0 .5-.2.9-.5 1.2-.3.2-.6.3-1.1.3Zm0-.7c.4 0 .5 0 .7-.2l.2-.6a14.7 14.7 0 0 0 0-.9l-.2-.6-.6-.2c-.3 0-.5 0-.6.2a1 1 0 0 0-.2.6 7.5 7.5 0 0 0 0 1l.2.5.6.2ZM34.4 173.7h-.1v-.4L36 171h-.6c-.6 0-1 0-1.4-.3a2.6 2.6 0 0 1-1.2-2.2c0-.4 0-.8.2-1.2.3-.4.6-.8 1-1a3 3 0 0 1 1.5-.4 3 3 0 0 1 1.5.4c.5.2.8.5 1 1 .2.3.3.8.3 1.2 0 .4 0 .8-.2 1-.1.4-.3.7-.6 1l-2.1 3-.2.2h-.8Zm1.1-3.5c.3 0 .6 0 .9-.2a1.6 1.6 0 0 0 .8-1.5c0-.3 0-.6-.2-.9l-.6-.5c-.3-.2-.6-.2-.9-.2-.3 0-.6 0-.8.2l-.7.5-.2 1 .2.8a1.6 1.6 0 0 0 1.5.8Zm6.6 3.6c-.6 0-1 0-1.5-.3a2.5 2.5 0 0 1-1.3-2.3c0-.4 0-.8.2-1.1l.5-1 2.1-2.8v-.1l.2-.1h.9V166.4l-1.6 2.3.7-.1c.5 0 1 .1 1.4.3l1 1c.1.4.3.8.3 1.3s-.2.9-.4 1.3-.5.7-1 1a3 3 0 0 1-1.5.3Zm0-.9c.3 0 .6 0 .9-.2.3-.1.5-.3.6-.6.2-.2.3-.5.3-1 0-.3-.1-.6-.3-.8-.1-.3-.3-.5-.6-.6a2 2 0 0 0-1.7 0c-.3.1-.5.3-.7.6-.2.2-.2.5-.2.9s0 .7.2 1l.6.5 1 .2Zm4.3.8h-.2l-.1-.2v-1h1.2l.1.2v1h-1Zm5 .1c-.9 0-1.6-.2-2-.8-.5-.5-.7-1.3-.7-2.2a29 29 0 0 1 0-1.9c0-.9.2-1.6.7-2.1.4-.6 1.1-.9 2-.9 1 0 1.7.3 2.2.9.4.5.6 1.2.7 2.1a29.3 29.3 0 0 1 0 2c0 .8-.3 1.6-.7 2.1-.5.6-1.2.8-2.1.8Zm0-.9c.6 0 1-.2 1.3-.6.3-.3.4-.8.5-1.5a30.4 30.4 0 0 0 0-1.8c0-.7-.2-1.2-.5-1.6-.3-.4-.7-.5-1.2-.5-.6 0-1 .1-1.3.5-.3.4-.4 1-.4 1.6v1.8c0 .7.1 1.2.4 1.5.3.4.7.6 1.3.6Zm5.7-3c-.5 0-.9-.1-1.2-.4-.2-.2-.4-.6-.4-1a8.6 8.6 0 0 1 0-1c0-.5.2-.9.4-1.1.3-.3.7-.4 1.2-.4s.9.1 1.1.4c.3.2.4.6.5 1a15.1 15.1 0 0 1 0 1c0 .5-.2.9-.5 1.1-.3.3-.6.4-1.1.4Zm-1 3.8H56V173.4l5.4-7.2.2-.1h.7v.2l-5.4 7.2-.2.2h-.5Zm1-4.5c.2 0 .4 0 .6-.2l.2-.6a14.7 14.7 0 0 0 0-.9l-.2-.6-.6-.2c-.3 0-.5 0-.6.2a1 1 0 0 0-.2.6 7.5 7.5 0 0 0 0 1c0 .1 0 .3.2.5l.6.2Zm4 4.6c-.4 0-.8-.1-1-.4-.3-.3-.5-.6-.5-1a8.6 8.6 0 0 1 0-1c0-.5.2-.9.4-1.2.3-.2.7-.4 1.2-.4s.9.2 1.1.4c.3.3.5.7.5 1.1a12 12 0 0 1 0 1c0 .5-.2.8-.5 1.1-.3.3-.6.4-1.1.4Zm0-.7c.4 0 .5-.1.7-.3l.2-.5a14.7 14.7 0 0 0 0-1l-.2-.5c-.1-.2-.3-.2-.6-.2s-.5 0-.6.2a1 1 0 0 0-.2.6 7.5 7.5 0 0 0 0 .9l.2.5c.1.2.3.3.6.3ZM34.8 195h-.1l-.1-.3v-.1l1.7-2.3h-.6c-.5 0-1-.1-1.4-.3-.3-.3-.7-.6-.9-1l-.3-1.2c0-.5.1-.9.3-1.3.2-.4.6-.7 1-1a3 3 0 0 1 1.5-.3 3 3 0 0 1 1.5.3c.4.3.8.6 1 1 .2.4.3.8.3 1.3 0 .4 0 .7-.2 1l-.6 1-2.1 3-.2.1h-.8Zm1-3.6c.4 0 .7 0 1-.2a1.6 1.6 0 0 0 .8-1.4c0-.4 0-.7-.2-.9-.2-.3-.4-.5-.7-.6l-.8-.2c-.3 0-.6 0-.9.2l-.6.6-.2.9c0 .3 0 .6.2.8a1.6 1.6 0 0 0 1.5.8Zm6.6 3.7c-.5 0-1-.1-1.4-.3l-1-.8a2 2 0 0 1-.3-1v-.2h.8c.2 0 .3 0 .3.2.1.4.3.7.6.9.3.2.6.3 1 .3.5 0 1-.2 1.3-.5.3-.3.4-.7.4-1.2s-.1-.9-.4-1.2c-.4-.3-.8-.4-1.3-.4h-.6a2 2 0 0 0-.5.4l-.2.1h-1v-.2l.3-3.6v-.2l.3-.1h4V188.3H41.4l-.2 2.2c.4-.3.8-.4 1.4-.4.5 0 1 .1 1.3.3.4.2.7.5 1 .9.2.3.3.8.3 1.3s0 1-.3 1.4c-.3.4-.6.7-1 .9-.4.2-1 .3-1.5.3Zm4.2-.1h-.1l-.1-.3v-.9l.2-.1h1l.1.2v1h-1.1Zm5 0c-.5 0-1 0-1.4-.2l-1-.8a2 2 0 0 1-.3-1v-.2h.8c.2 0 .3 0 .3.2.1.4.3.7.6.9.3.2.7.3 1 .3.5 0 1-.2 1.3-.5.3-.3.5-.7.5-1.2s-.2-.9-.5-1.2c-.4-.3-.8-.4-1.3-.4H51a2 2 0 0 0-.5.4l-.2.1h-1v-.2l.3-3.6.1-.2.2-.1h4V188.3H50.6l-.2 2.2c.4-.3.8-.4 1.4-.4.5 0 1 .1 1.3.3.4.2.8.5 1 .9.2.3.4.8.4 1.3s-.2 1-.4 1.4c-.2.4-.6.7-1 .9-.4.2-1 .3-1.5.3Zm5.5-3.9c-.5 0-.9 0-1.2-.3-.2-.3-.4-.6-.4-1a8.6 8.6 0 0 1 0-1c0-.5.2-.9.4-1.2.3-.2.7-.4 1.2-.4s.9.2 1.1.4c.3.3.4.7.5 1.1a15.1 15.1 0 0 1 0 1c0 .5-.2.8-.5 1-.3.3-.6.4-1.1.4Zm-1 3.9H56v-.4l5.4-7.1.2-.2h.7V187.6l-5.4 7.2-.2.1h-.5Zm1-4.5.6-.3.2-.5a14.7 14.7 0 0 0 0-1l-.2-.5c-.2-.2-.4-.2-.6-.2-.3 0-.5 0-.6.2a1 1 0 0 0-.2.6 7.5 7.5 0 0 0 0 .9c0 .2 0 .4.2.5.1.2.3.3.6.3Zm4 4.5c-.4 0-.8 0-1-.3-.3-.3-.5-.7-.5-1.1a8.6 8.6 0 0 1 0-1c0-.5.2-.8.4-1.1.3-.3.7-.4 1.2-.4s.9.1 1.1.4c.3.3.5.6.5 1a12 12 0 0 1 0 1c0 .5-.2.9-.5 1.2-.3.2-.6.3-1.1.3Zm0-.7c.4 0 .5 0 .7-.2l.2-.6a14.7 14.7 0 0 0 0-.9l-.2-.6-.6-.2c-.3 0-.5 0-.6.2a1 1 0 0 0-.2.6 7.5 7.5 0 0 0 0 1l.2.5.6.2ZM34.5 216.2h-.1v-.4l1.6-2.3h-.6c-.5 0-1 0-1.3-.3a2.6 2.6 0 0 1-1.2-2.2c0-.4 0-.8.2-1.2.2-.4.6-.8 1-1a3 3 0 0 1 1.5-.4 3 3 0 0 1 1.5.4c.4.2.8.5 1 1 .2.3.3.8.3 1.2 0 .4 0 .8-.2 1l-.6 1-2.1 3-.2.2h-.8Zm1.1-3.5c.3 0 .6 0 .8-.2a1.6 1.6 0 0 0 .9-1.5c0-.3 0-.6-.2-.9l-.7-.5c-.2-.2-.5-.2-.8-.2-.3 0-.6 0-.8.2l-.7.5-.2 1c0 .2 0 .5.2.8a1.6 1.6 0 0 0 1.5.8Zm6.5 3.6c-.5 0-1 0-1.4-.3l-1-.7a2 2 0 0 1-.3-1v-.2h.8c.2 0 .3 0 .3.2.1.3.3.6.6.8.3.2.7.3 1 .3.5 0 1-.1 1.3-.4.3-.3.5-.7.5-1.3 0-.5-.2-.8-.5-1.1-.4-.3-.8-.5-1.3-.5l-.6.1a2 2 0 0 0-.5.3l-.2.2h-1v-.2l.3-3.7.1-.2h4.2v.8H41.1l-.2 2.2c.4-.2.8-.3 1.4-.3.5 0 1 0 1.3.3.4.2.8.4 1 .8.2.4.4.8.4 1.3 0 .6-.2 1-.4 1.4-.2.4-.6.7-1 1l-1.5.2Zm4.3 0-.2-.1-.1-.2v-1h1.2l.1.2v1h-1Zm5 0c-.9 0-1.6-.2-2-.8-.5-.5-.7-1.3-.7-2.2a29 29 0 0 1 0-1.9c0-.9.2-1.6.7-2.1.4-.6 1.1-.9 2-.9 1 0 1.7.3 2.2.9.4.5.6 1.2.7 2.1a29.3 29.3 0 0 1 0 2c0 .8-.3 1.6-.7 2.1-.5.6-1.2.8-2.1.8Zm0-.9c.6 0 1-.2 1.3-.6.3-.3.4-.8.5-1.5a30.4 30.4 0 0 0 0-1.8c0-.7-.2-1.2-.5-1.6-.3-.4-.7-.5-1.2-.5-.6 0-1 .1-1.3.5-.3.4-.4 1-.4 1.6v1.8c0 .7.1 1.2.4 1.5.3.4.7.6 1.3.6Zm5.7-3c-.5 0-.9-.1-1.2-.4-.2-.2-.4-.6-.4-1a8.6 8.6 0 0 1 0-1c0-.5.2-.9.4-1.1.3-.3.7-.4 1.2-.4s.9.1 1.1.4c.3.2.4.6.5 1a15.1 15.1 0 0 1 0 1c0 .5-.2.9-.5 1.1-.3.3-.6.4-1.1.4Zm-1 3.8H56V215.9l5.4-7.2.2-.1h.7v.2L57 216l-.2.2h-.5Zm1-4.5c.2 0 .4 0 .6-.2l.2-.6a14.7 14.7 0 0 0 0-.9l-.2-.6-.6-.2c-.3 0-.5 0-.6.2a1 1 0 0 0-.2.6 7.5 7.5 0 0 0 0 1c0 .1 0 .3.2.5l.6.2Zm4 4.6c-.4 0-.8-.1-1-.4-.3-.3-.5-.6-.5-1a8.6 8.6 0 0 1 0-1c0-.5.2-.9.4-1.2.3-.2.7-.4 1.2-.4s.9.2 1.1.4c.3.3.5.7.5 1.1a12 12 0 0 1 0 1c0 .5-.2.8-.5 1.1-.3.3-.6.4-1.1.4Zm0-.7c.4 0 .5-.1.7-.3l.2-.5a14.7 14.7 0 0 0 0-1l-.2-.5c-.1-.2-.3-.2-.6-.2s-.5 0-.6.2a1 1 0 0 0-.2.6 7.5 7.5 0 0 0 0 .9l.2.5c.1.2.3.3.6.3ZM34.7 237.5h-.1v-.4l1.7-2.3h-.6c-.6 0-1-.1-1.4-.3l-1-1-.3-1.2c0-.5.1-.9.3-1.3l1-1a3 3 0 0 1 1.5-.3 3 3 0 0 1 1.5.3c.5.3.8.6 1 1 .2.4.3.8.3 1.3 0 .4 0 .7-.2 1l-.6 1-2.1 3-.2.1h-.8Zm1.1-3.6c.3 0 .6 0 .9-.2a1.6 1.6 0 0 0 .8-1.4c0-.4 0-.7-.2-.9l-.6-.6-.9-.2c-.3 0-.6 0-.8.2-.3.1-.5.3-.6.6-.2.2-.3.5-.3.9 0 .3.1.6.3.8a1.6 1.6 0 0 0 1.4.8Zm7.6 3.6h-.2V235.5H39.3v-1l3.3-4.6.2-.2h1.2l.1.2v4.7h1.2V235.7h-1.2v1.8h-.8Zm-.2-2.8V231l-2.7 3.8h2.7Zm3.4 2.8h-.1l-.1-.3v-.9l.2-.1h1l.1.2v1h-1.1Zm5 0c-.5 0-1 0-1.4-.2l-1-.8a2 2 0 0 1-.3-1v-.2h.8c.2 0 .3 0 .3.2.1.4.3.7.6.9.3.2.7.3 1 .3.5 0 1-.2 1.3-.5.3-.3.5-.7.5-1.2s-.2-.9-.5-1.2c-.4-.3-.8-.4-1.3-.4H51a2 2 0 0 0-.5.4l-.2.1h-1v-.2l.3-3.6.1-.2.2-.1h4V230.8H50.6l-.2 2.2c.4-.3.8-.4 1.4-.4.5 0 1 .1 1.3.3.4.2.8.5 1 .9.2.3.4.8.4 1.3s-.2 1-.4 1.4c-.2.4-.6.7-1 .9-.4.2-1 .3-1.5.3Zm5.5-3.9c-.5 0-.9 0-1.2-.3-.2-.3-.4-.6-.4-1a8.6 8.6 0 0 1 0-1c0-.5.2-.9.4-1.2.3-.2.7-.4 1.2-.4s.9.2 1.1.4c.3.3.4.7.5 1.1a15.1 15.1 0 0 1 0 1c0 .5-.2.8-.5 1-.3.3-.6.4-1.1.4Zm-1 3.9H56v-.4l5.4-7.1.2-.2h.7V230.1l-5.4 7.2-.2.1h-.5Zm1-4.5.6-.3.2-.5a14.7 14.7 0 0 0 0-1l-.2-.5c-.2-.2-.4-.2-.6-.2-.3 0-.5 0-.6.2a1 1 0 0 0-.2.6 7.5 7.5 0 0 0 0 .9c0 .2 0 .4.2.5.1.2.3.3.6.3Zm4 4.5c-.4 0-.8 0-1-.3-.3-.3-.5-.7-.5-1.1a8.6 8.6 0 0 1 0-1c0-.5.2-.8.4-1.1.3-.3.7-.4 1.2-.4s.9.1 1.1.4c.3.3.5.6.5 1a12 12 0 0 1 0 1c0 .5-.2.9-.5 1.2-.3.2-.6.3-1.1.3Zm0-.7c.4 0 .5 0 .7-.2l.2-.6a14.7 14.7 0 0 0 0-.9l-.2-.6-.6-.2c-.3 0-.5 0-.6.2a1 1 0 0 0-.2.6 7.5 7.5 0 0 0 0 1l.2.5.6.2ZM34.5 258.7h-.2v-.4L36 256h-.6c-.6 0-1 0-1.4-.3a2.6 2.6 0 0 1-1.2-2.2c0-.4 0-.8.3-1.2.2-.4.5-.8 1-1a3 3 0 0 1 1.4-.4 3 3 0 0 1 1.5.4c.5.2.8.5 1 1 .2.3.3.8.3 1.2 0 .4 0 .8-.2 1-.1.4-.3.7-.6 1l-2.1 3-.2.2h-.7Zm1-3.5c.3 0 .6 0 .9-.2a1.6 1.6 0 0 0 .8-1.5c0-.3 0-.6-.2-.9l-.6-.5c-.3-.2-.6-.2-.9-.2-.3 0-.6 0-.8.2-.3.1-.5.3-.6.5-.2.3-.3.6-.3 1l.3.8a1.6 1.6 0 0 0 1.4.8Zm7.6 3.5h-.2v-1.8H39v-1l3.4-4.7.1-.1H43.8l.1.2v4.6h1l.2.1v.8h-1.2v1.9H43Zm-.2-2.7v-3.8l-2.7 3.8H43Zm3.5 2.7h-.2l-.1-.2v-1h1.2l.1.2v1h-1Zm5 .1c-.9 0-1.6-.2-2-.8-.5-.5-.7-1.3-.7-2.2a29 29 0 0 1 0-1.9c0-.9.2-1.6.7-2.1.4-.6 1.1-.9 2-.9 1 0 1.7.3 2.2.9.4.5.6 1.2.7 2.1a29.3 29.3 0 0 1 0 2c0 .8-.3 1.6-.7 2.1-.5.6-1.2.8-2.1.8Zm0-.9c.6 0 1-.2 1.3-.6.3-.3.4-.8.5-1.5a30.4 30.4 0 0 0 0-1.8c0-.7-.2-1.2-.5-1.6-.3-.4-.7-.5-1.2-.5-.6 0-1 .1-1.3.5-.3.4-.4 1-.4 1.6v1.8c0 .7.1 1.2.4 1.5.3.4.7.6 1.3.6Zm5.7-3c-.5 0-.9-.1-1.2-.4-.2-.2-.4-.6-.4-1a8.6 8.6 0 0 1 0-1c0-.5.2-.9.4-1.1.3-.3.7-.4 1.2-.4s.9.1 1.1.4c.3.2.4.6.5 1a15.1 15.1 0 0 1 0 1c0 .5-.2.9-.5 1.1-.3.3-.6.4-1.1.4Zm-1 3.8H56V258.4l5.4-7.2.2-.1h.7v.2l-5.4 7.2-.2.2h-.5Zm1-4.5c.2 0 .4 0 .6-.2l.2-.6a14.7 14.7 0 0 0 0-.9l-.2-.6-.6-.2c-.3 0-.5 0-.6.2a1 1 0 0 0-.2.6 7.5 7.5 0 0 0 0 1c0 .1 0 .3.2.5l.6.2Zm4 4.6c-.4 0-.8-.1-1-.4-.3-.3-.5-.6-.5-1a8.6 8.6 0 0 1 0-1c0-.5.2-.9.4-1.2.3-.2.7-.4 1.2-.4s.9.2 1.1.4c.3.3.5.7.5 1.1a12 12 0 0 1 0 1c0 .5-.2.8-.5 1.1-.3.3-.6.4-1.1.4Zm0-.7c.4 0 .5-.1.7-.3l.2-.5a14.7 14.7 0 0 0 0-1l-.2-.5c-.1-.2-.3-.2-.6-.2s-.5 0-.6.2a1 1 0 0 0-.2.6 7.5 7.5 0 0 0 0 .9l.2.5c.1.2.3.3.6.3Z" fill="#9386A0"/><path d="M476.5 45a6.6 6.6 0 0 1-6.5-6.5 4.9 4.9 0 0 1 2.2-4.3.8.8 0 0 1 .7 0l.3.4a6 6 0 0 1 4-5.3.7.7 0 0 1 .6 0 .7.7 0 0 1 .4.7v.3c0 1.3 0 2.5.2 3.8a3.7 3.7 0 0 1 2.3-1.7.7.7 0 0 1 .7.1.8.8 0 0 1 .3.6c0 1 .3 2 .7 2.8a5.8 5.8 0 0 1 .2 5.1 6.6 6.6 0 0 1-6 4Zm-4.5-8.6c-.3.6-.5 1.3-.6 2a5 5 0 1 0 10.2 0c0-.6-.2-1.3-.6-1.8a8 8 0 0 1-.7-2.4 2 2 0 0 0-.8 2 .7.7 0 0 1-.9.8.7.7 0 0 1-.4-.3c-1.4-1.5-1.5-3.3-1.5-5.5-2 1.2-2.2 3.5-2.1 5.8v1.2a.7.7 0 0 1-.9.6l-.3-.1a4.6 4.6 0 0 1-1.4-2.3Z" fill="#F55459"/><path d="M540.3 44.4h-11.7a2.1 2.1 0 0 1-2.2-2c0-.5.2-.8.3-1.1l6-10.3a2.1 2.1 0 0 1 2.7-.8c.4.1.6.4.8.7l6 10.4a2 2 0 0 1-1.9 3.1Zm-5.9-13a.6.6 0 0 0-.5.3L528.1 42l-.1.3a.6.6 0 0 0 .6.6h12a.6.6 0 0 0 .3-.7V42l-6-10.3c0-.1 0-.2-.2-.2l-.3-.1Z" fill="#FFC227"/><path d="M534.4 39.5a.7.7 0 0 1-.7-.7V35a.7.7 0 1 1 1.5 0v3.7a.7.7 0 0 1-.2.5.7.7 0 0 1-.6.2ZM534.4 41.7a.8.8 0 1 0 0-1.5.8.8 0 0 0 0 1.5Z" fill="#FFC227"/><path d="M591.4 41.2a.8.8 0 0 1-.5-.3l-2.5-2.7a.8.8 0 0 1 .1-1 .7.7 0 0 1 .8-.2l.3.2 1.7 2 4-5.7a.8.8 0 0 1 1.1.8l-4.4 6.6a.8.8 0 0 1-.6.3Z" fill="#33BF9E"/><path d="M592.4 45.2a8 8 0 1 1 0-16 8 8 0 0 1 0 16Zm0-14.5a6.5 6.5 0 1 0 0 13 6.5 6.5 0 0 0 0-13Z" fill="#33BF9E"/><path d="M33.7 43c-1.4 0-2.5-.4-3.2-1.1a4.7 4.7 0 0 1-1.2-3.2 43 43 0 0 1 0-2.9c0-1.3.5-2.4 1.2-3.1.7-.8 1.8-1.2 3.2-1.2 1 0 1.8.2 2.5.5.6.3 1.1.8 1.5 1.3.3.6.5 1.1.5 1.8v.2l-.3.1H37c-.2 0-.3-.1-.4-.4-.2-.8-.5-1.3-1-1.7-.4-.3-1-.4-1.9-.4-1.8 0-2.7 1-2.8 3a39.5 39.5 0 0 0 0 2.7c0 2 1 3 2.8 3 .8 0 1.5-.1 2-.4.4-.4.7-1 1-1.7v-.3h1.4l.1.2a3.6 3.6 0 0 1-2 3.1c-.7.3-1.5.5-2.5.5Zm6.8-.1-.2-.1-.1-.3V34.6h1.3l.2.3v.7c.4-.7 1.1-1 2.2-1H44.8v1.2l-.3.1h-1c-.5 0-1 .2-1.3.5-.3.4-.5.8-.5 1.4v4.7l-.1.3h-1.1Zm8 .1c-.6 0-1 0-1.5-.3-.5-.2-.8-.5-1-.9-.3-.3-.5-.8-.5-1.2 0-.7.3-1.3.9-1.7.6-.5 1.4-.8 2.4-1l2.3-.3v-.4c0-1.1-.6-1.7-1.8-1.7a2 2 0 0 0-1.9 1v.2l-.3.1H46.2l-.1-.3.3-1 1.1-.8c.5-.2 1-.3 1.8-.3 1.2 0 2 .3 2.6.8.5.6.7 1.3.7 2.1v5.5h-1.3l-.1-.3v-.7l-1 .9c-.5.2-1 .3-1.8.3Zm.3-1.2c.7 0 1.2-.2 1.7-.7.4-.4.6-1 .6-2v-.4l-1.8.3c-.8.1-1.3.3-1.7.5-.4.3-.6.6-.6 1s.2.7.5 1c.4.2.8.3 1.3.3Zm9 1.2c-.7 0-1.3-.1-1.9-.3l-1.1-.9-.4-.7.1-.3h1.3l.8.8c.3.2.7.2 1.2.2.6 0 1 0 1.4-.3.3-.2.5-.5.5-.9 0-.2 0-.5-.2-.6-.1-.2-.4-.3-.7-.4a12 12 0 0 0-1.6-.5c-1-.2-1.6-.5-2-.8a2 2 0 0 1-.5-1.5c0-.4 0-.8.3-1.2.3-.4.6-.7 1-.9.5-.2 1.1-.3 1.7-.3.7 0 1.3 0 1.8.3.5.2.8.5 1 .8.3.3.4.6.4.8v.2l-.3.1h-.7c-.1 0-.2 0-.3-.2L59 36l-.5-.3-.9-.2c-.5 0-.9.2-1.1.4a1 1 0 0 0-.5.8l.2.6.7.4 1.5.4c1 .2 1.7.5 2.1 1 .4.3.6.8.6 1.5 0 .4 0 .8-.4 1.2-.2.4-.6.7-1.1.9-.5.2-1.2.3-1.9.3Zm5.7-.1-.3-.1V31.6l.3-.1h.8l.2.1.2.3v3.7a3.1 3.1 0 0 1 2.6-1.2c1 0 1.8.3 2.4 1 .6.6.8 1.5.8 2.6v4.8H69V38c0-.8-.3-1.4-.7-1.8-.3-.4-.8-.6-1.5-.6s-1.2.2-1.7.6c-.3.4-.5 1-.5 1.8v4.4s0 .2-.2.3h-1Zm13.9 0-.3-.1-.1-.3V31.8l.4-.1h6.8V33l-.3.1h-5.4v3.8h5.3l.1.4V38h-5.3v4.4l-.2.3h-1Zm8.9 0-.3-.1-.1-.3v-7.6l.1-.3h1.3v1c.5-.7 1.3-1 2.3-1H90.5l.1.3V35.8l-.3.1h-1c-.6 0-1 .2-1.4.5-.3.4-.5.8-.5 1.4v5h-1.1Zm8.8.1c-1 0-2-.3-2.6-1-.6-.7-1-1.6-1-2.8v-1.1c0-1.1.4-2 1-2.7.7-.7 1.6-1 2.6-1 1.2 0 2.1.4 2.8 1.1.6.8 1 1.8 1 3v.3c0 .1 0 .2-.2.3H93v.2c0 .7.2 1.3.6 1.8.4.5.9.7 1.5.7a2.2 2.2 0 0 0 2-.9l.1-.2h1.3l.1.2c0 .3-.1.6-.4.9l-1.2.9c-.6.2-1.2.3-1.9.3Zm2.2-5c0-.7-.2-1.3-.6-1.8a2 2 0 0 0-1.6-.7 2 2 0 0 0-1.6.7c-.4.5-.5 1.1-.5 1.8h4.3Zm6.8 5c-1.1 0-2-.3-2.6-1-.7-.7-1-1.6-1.1-2.8v-1.1c0-1.1.4-2 1-2.7.7-.7 1.6-1 2.7-1 1.2 0 2 .4 2.7 1.1.7.8 1 1.8 1 3v.3l-.1.3h-5.8v.2c0 .7.3 1.3.6 1.8.4.5 1 .7 1.6.7a2.2 2.2 0 0 0 1.9-.9l.2-.2h1.3v.2c0 .3 0 .6-.4.9-.2.3-.7.6-1.2.9-.5.2-1.1.3-1.8.3Zm2.2-5c0-.7-.2-1.3-.6-1.8a2 2 0 0 0-1.6-.7 2 2 0 0 0-1.6.7c-.4.5-.6 1.1-.6 1.8h4.4Zm11.2 5c-1 0-1.7-.1-2.3-.4-.7-.3-1.2-.6-1.5-1-.4-.6-.5-1-.6-1.6l.1-.2.3-.1h.8c.2 0 .3.1.4.3.1.5.4.9.8 1.2.5.3 1.1.5 2 .5.8 0 1.5-.2 2-.5.4-.3.6-.8.6-1.3 0-.4 0-.7-.3-1l-1-.5-1.9-.7c-.8-.2-1.5-.4-2-.7a2.8 2.8 0 0 1-1.5-2.5c0-.6.2-1 .5-1.5s.8-.9 1.4-1.1a5 5 0 0 1 2-.4c1 0 1.6.1 2.2.4.6.3 1 .7 1.4 1.1.3.5.5 1 .5 1.4l-.1.2-.3.1h-.8c-.2 0-.4 0-.4-.3 0-.4-.3-.8-.8-1.1-.4-.3-1-.4-1.6-.4a3 3 0 0 0-1.7.4c-.5.2-.7.7-.7 1.2 0 .4.1.7.3.9l1 .6 1.7.6 2.2.8c.5.2.9.6 1.1 1 .3.3.4.8.4 1.4 0 1-.4 1.8-1.1 2.4-.8.5-1.8.8-3.1.8Zm9.4 0c-1 0-2-.3-2.6-1-.7-.7-1-1.6-1-2.8l-.1-.5V38c0-1.1.5-2 1.1-2.7.7-.7 1.5-1 2.6-1 1.2 0 2.1.4 2.8 1.1.6.8 1 1.8 1 3v.3c0 .1 0 .2-.2.3h-5.8v.2c0 .7.3 1.3.7 1.8.4.5.9.7 1.5.7a2.2 2.2 0 0 0 2-.9l.1-.2h1.3l.1.2c0 .3-.1.6-.4.9l-1.3.9c-.5.2-1 .3-1.8.3Zm2.2-5c0-.7-.2-1.3-.6-1.8a2 2 0 0 0-1.6-.7 2 2 0 0 0-1.6.7c-.4.5-.6 1.1-.6 1.8h4.4Zm6.3 5c-.7 0-1.3-.1-1.9-.3-.5-.3-.8-.6-1-.9-.3-.3-.5-.5-.5-.7 0-.1 0-.2.2-.3h1.2l.9.8c.3.2.6.2 1.2.2.5 0 1 0 1.3-.3.3-.2.5-.5.5-.9 0-.2 0-.5-.2-.6-.1-.2-.4-.3-.7-.4a12 12 0 0 0-1.6-.5c-.9-.2-1.6-.5-2-.8a2 2 0 0 1-.5-1.5c0-.4 0-.8.3-1.2.3-.4.6-.7 1-.9.5-.2 1.1-.3 1.8-.3.6 0 1.2 0 1.7.3.5.2.8.5 1 .8.3.3.4.6.4.8v.2l-.3.1h-.7c-.1 0-.2 0-.3-.2l-.5-.4-.5-.3-.8-.2c-.6 0-1 .2-1.2.4a1 1 0 0 0-.4.8l.1.6.7.4 1.5.4c1 .2 1.7.5 2.1 1 .4.3.7.8.7 1.5 0 .4-.2.8-.4 1.2-.3.4-.7.7-1.2.9-.5.2-1.2.3-1.9.3Zm8.2 0c-.8 0-1.4-.1-1.9-.3-.5-.3-.9-.6-1.1-.9-.3-.3-.4-.5-.4-.7l.1-.3h1.3c.2.4.5.6.8.8.3.2.7.2 1.2.2.6 0 1 0 1.4-.3.3-.2.5-.5.5-.9 0-.2 0-.5-.2-.6l-.8-.4a12 12 0 0 0-1.5-.5c-1-.2-1.6-.5-2-.8a2 2 0 0 1-.6-1.5c0-.4.1-.8.4-1.2.2-.4.6-.7 1-.9.5-.2 1-.3 1.7-.3s1.3 0 1.8.3c.4.2.8.5 1 .8.3.3.4.6.4.8l-.1.2-.3.1h-.6c-.2 0-.3 0-.3-.2l-.5-.4-.5-.3-.9-.2c-.5 0-.9.2-1.2.4a1 1 0 0 0-.4.8c0 .2 0 .4.2.6.1.1.3.3.7.4l1.4.4c1 .2 1.8.5 2.2 1 .4.3.6.8.6 1.5 0 .4-.1.8-.4 1.2-.3.4-.6.7-1.2.9-.5.2-1 .3-1.8.3Zm5.5-10-.3-.1v-1.4l.3-.1h1.3l.1.3v1l-.1.2H149Zm.1 9.9-.2-.1-.1-.3V34.6H150.4v8.2h-1.1Zm7 .1c-1.2 0-2.1-.3-2.8-1-.6-.6-1-1.5-1-2.6V38c0-1 .4-2 1-2.6.7-.7 1.6-1 2.8-1 1.1 0 2 .3 2.7 1 .6.6 1 1.5 1 2.6a9.2 9.2 0 0 1 0 1.4c0 1-.4 2-1 2.6-.7.7-1.6 1-2.7 1Zm0-1.2a2 2 0 0 0 1.5-.7c.4-.4.6-1 .7-1.8a7.3 7.3 0 0 0 0-1.2c0-.8-.3-1.4-.7-1.9a2 2 0 0 0-1.5-.6 2 2 0 0 0-1.6.6c-.4.5-.7 1-.7 1.9v1.2c0 .8.3 1.4.7 1.8.3.5.9.7 1.6.7Zm6.1 1h-.3v-8.2h1.3l.1.3v.7l1.1-1 1.6-.2c1 0 1.8.3 2.4 1 .6.6.8 1.5.8 2.6v4.8H167.8l-.1-.3V38c0-.8-.2-1.4-.6-1.8-.3-.4-.8-.6-1.5-.6a2 2 0 0 0-1.6.6c-.4.4-.6 1-.6 1.8v4.4l-.1.3h-1.1Zm13.8 0h-.2l-.1-.3V31.8l.3-.1h4c1.2 0 2.1.2 2.8.8.7.6 1 1.4 1 2.5 0 .8-.1 1.5-.6 2a3 3 0 0 1-1.6 1.1l2.4 4.3v.4h-1.4l-.2-.4-2.4-4h-2.8v4.4H176ZM180 37c1.6 0 2.4-.7 2.4-2s-.8-2-2.4-2h-2.7v4h2.7Zm8.4 6c-.6 0-1 0-1.5-.3-.4-.2-.8-.5-1-.9-.3-.3-.5-.8-.5-1.2 0-.7.3-1.3 1-1.7.5-.5 1.3-.8 2.3-1l2.4-.3v-.4c0-1.1-.7-1.7-2-1.7a2 2 0 0 0-1.7 1l-.2.2-.2.1H186.1v-.3c0-.3 0-.6.3-1l1-.8c.5-.2 1.1-.3 1.8-.3 1.2 0 2 .3 2.6.8.5.6.8 1.3.8 2.1v5.2l-.1.3h-1.3l-.1-.3v-.7l-1 .9c-.5.2-1 .3-1.7.3Zm.3-1.2c.7 0 1.3-.2 1.7-.7.4-.4.7-1 .7-2v-.4l-1.9.3c-.8.1-1.3.3-1.7.5-.4.3-.6.6-.6 1s.2.7.5 1c.4.2.8.3 1.3.3Zm9.3 1c-1.6 0-2.5-.9-2.5-2.8v-4.2H194l-.1-.4v-.8h1.6v-2.7l.1-.3.3-.1h.7l.3.1.1.3v2.6h2l.2.1.2.3v.5c0 .2 0 .2-.2.3l-.2.1h-2V40c0 .6 0 1 .3 1.2.2.3.4.4.9.4h1l.2.2.1.2v.6l-.1.3h-1.3Zm6.4.2c-1.1 0-2-.3-2.7-1-.6-.7-1-1.6-1-2.8v-1.1c0-1.1.4-2 1-2.7.7-.7 1.6-1 2.7-1s2 .4 2.7 1.1c.7.8 1 1.8 1 3v.3l-.1.3h-5.8v.2c0 .7.2 1.3.6 1.8.4.5 1 .7 1.6.7a2.2 2.2 0 0 0 1.9-.9l.2-.2h1.3v.2c0 .3 0 .6-.4.9l-1.2.9c-.5.2-1.1.3-1.8.3Zm2.2-5c0-.7-.2-1.3-.6-1.8a2 2 0 0 0-1.6-.7 2 2 0 0 0-1.6.7c-.4.5-.6 1.1-.6 1.8h4.4Z" fill="#000"/><path d="M221.3 45.9a8 8 0 1 1 0-16 8 8 0 0 1 0 16Zm0-14.5a6.5 6.5 0 1 0 0 13 6.5 6.5 0 0 0 0-13Z" fill="#9585A3"/><path d="M218.7 36c0-.3 0-.6.3-1 .2-.3.5-.6 1-.9a3 3 0 0 1 1.4-.3c.5 0 1 0 1.4.3.4.2.7.4.9.8a2 2 0 0 1 .1 1.8 30.8 30.8 0 0 1-1.8 2v.2l-.1.4c-.1.3-.3.5-.7.5-.2 0-.3 0-.5-.2l-.1-.5a2 2 0 0 1 .5-1.4l.6-.5.5-.5.2-.3.2-.5a1 1 0 0 0-.4-.7c-.2-.2-.5-.3-.8-.3-.4 0-.7.1-.9.3l-.4.9c-.2.4-.4.6-.7.6-.2 0-.4 0-.5-.2a.7.7 0 0 1-.2-.5Zm2.6 6-.6-.3a.8.8 0 0 1-.2-.6c0-.2 0-.4.2-.5.2-.2.3-.3.6-.3.2 0 .4.1.5.3.2.1.3.3.3.5 0 .3-.1.5-.3.6-.1.2-.3.2-.5.2Z" fill="#9585A3"/><path d="M605.9 42.3h-.3v-.5l2.2-3-.8.1c-.6 0-1.2-.2-1.7-.5a3.2 3.2 0 0 1-1.6-2.8c0-.5.1-1 .4-1.5.3-.5.7-1 1.2-1.3.5-.3 1.2-.4 2-.4.7 0 1.3.1 1.8.4.6.3 1 .7 1.3 1.2.2.5.4 1 .4 1.6 0 .5-.1 1-.3 1.4l-.7 1.2L607 42l-.2.2h-1Zm1.3-4.5c.4 0 .8-.1 1-.3.4-.2.7-.4.9-.7.2-.4.3-.7.3-1.1a2 2 0 0 0-.3-1.2 2.2 2.2 0 0 0-1.9-1c-.4 0-.7.1-1 .3a2 2 0 0 0-.8.7c-.2.4-.3.7-.3 1.2 0 .4 0 .7.3 1a2 2 0 0 0 1.8 1Zm8.3 4.6c-.7 0-1.3-.1-1.8-.3a3 3 0 0 1-1.2-1c-.3-.5-.4-.9-.4-1.4v-.2h1c.2 0 .3 0 .4.3.1.5.4.8.8 1 .3.3.8.4 1.2.4.7 0 1.2-.1 1.6-.5.4-.4.6-1 .6-1.6 0-.6-.2-1.1-.6-1.5-.4-.3-1-.5-1.6-.5a2 2 0 0 0-.8.1c-.2 0-.4.2-.6.4l-.3.2h-1.2v-.3l.4-4.7v-.2l.3-.1h5.1l.1.3v.8h-4.3l-.3 2.8c.5-.3 1.1-.4 1.8-.4s1.2 0 1.7.3c.6.3 1 .7 1.3 1.1.3.5.4 1 .4 1.7s-.1 1.3-.4 1.8a3 3 0 0 1-1.3 1.1c-.5.3-1.2.4-1.9.4Zm7-5a2 2 0 0 1-1.5-.5 2 2 0 0 1-.5-1.3 11.2 11.2 0 0 1 0-1.3c0-.6.2-1 .5-1.4.3-.3.8-.5 1.5-.5.6 0 1 .2 1.4.5.4.4.6.8.6 1.4a18.7 18.7 0 0 1 0 1.3c0 .6-.2 1-.6 1.3a2 2 0 0 1-1.4.5Zm-1.2 4.9h-.2l-.1-.3V42l7-9.1.2-.3H629v.4l-6.9 9.1-.2.2h-.7Zm1.2-5.8c.3 0 .5 0 .7-.3.2-.2.2-.4.3-.7a17.8 17.8 0 0 0 0-1.1c0-.3-.1-.6-.3-.8-.2-.2-.4-.3-.7-.3-.4 0-.6.1-.8.3l-.2.8a9.8 9.8 0 0 0 0 1.1c0 .3 0 .6.2.8l.8.2Zm5.2 5.9a2 2 0 0 1-1.4-.5 2 2 0 0 1-.6-1.4 11.2 11.2 0 0 1 0-1.3c0-.6.2-1 .5-1.3a2 2 0 0 1 1.5-.6 2 2 0 0 1 2 1.9 14.8 14.8 0 0 1 0 1.3c0 .6-.2 1-.6 1.4a2 2 0 0 1-1.4.5Zm0-1c.3 0 .6 0 .7-.2.2-.2.3-.5.3-.8a17.8 17.8 0 0 0 0-1.1c0-.3-.1-.6-.3-.7-.1-.2-.4-.3-.7-.3-.3 0-.6 0-.7.3-.2.1-.3.4-.3.7a9.8 9.8 0 0 0 0 1.1c0 .3.1.6.3.8.1.2.4.3.7.3ZM545.7 42.3h-.2l-.1-.3v-.5c0-.2.1-.4.4-.6l3-3 1.4-1.4c.3-.4.4-.8.4-1.2 0-.6-.1-1-.5-1.3-.3-.3-.7-.5-1.3-.5-.5 0-1 .2-1.3.5-.3.3-.5.8-.6 1.3l-.1.3h-1.2v-.2a3.2 3.2 0 0 1 1.5-2.6c.4-.3 1-.5 1.7-.5 1 0 1.9.3 2.4.9.6.5.8 1.2.8 2a3 3 0 0 1-.4 1.6c-.3.5-.8 1-1.4 1.5l-2.7 2.8H552.1l.1.3v.8h-6.5Zm8.5 0h-.2l-.1-.3v-1.3h1.5l.1.3v1.2h-1.3Zm6.3.1c-.7 0-1.3-.1-1.8-.3a3 3 0 0 1-1.2-1c-.2-.5-.4-.9-.4-1.4v-.2h1c.2 0 .3 0 .4.3.1.5.4.8.8 1 .3.3.8.4 1.2.4.7 0 1.2-.1 1.6-.5.4-.4.6-1 .6-1.6 0-.6-.2-1.1-.6-1.5-.4-.3-1-.5-1.6-.5a2 2 0 0 0-.8.1c-.2 0-.4.2-.6.4l-.3.2h-1.2v-.3l.4-4.7v-.2l.3-.1h5.1l.1.3v.8h-4.3l-.3 2.8c.5-.3 1.1-.4 1.8-.4s1.2 0 1.7.3c.6.3 1 .7 1.3 1.1.3.5.4 1 .4 1.7s-.1 1.3-.4 1.8a3 3 0 0 1-1.3 1.1c-.5.3-1.2.4-1.9.4Zm7-5a2 2 0 0 1-1.5-.5 2 2 0 0 1-.5-1.3 11.2 11.2 0 0 1 0-1.3c0-.6.2-1 .5-1.4.4-.3.8-.5 1.5-.5.6 0 1 .2 1.4.5.4.4.6.8.6 1.4a18.7 18.7 0 0 1 0 1.3c0 .6-.2 1-.6 1.3a2 2 0 0 1-1.4.5Zm-1.2 4.9h-.2l-.1-.3V42l7-9.1.2-.3H574v.4l-6.9 9.1-.2.2h-.7Zm1.2-5.8c.3 0 .6 0 .7-.3.2-.2.3-.4.3-.7a17.8 17.8 0 0 0 0-1.1c0-.3-.1-.6-.3-.8-.2-.2-.4-.3-.7-.3-.4 0-.6.1-.8.3l-.2.8a9.8 9.8 0 0 0 0 1.1l.2.8.8.2Zm5.2 5.9a2 2 0 0 1-1.4-.5 2 2 0 0 1-.6-1.4 11.2 11.2 0 0 1 0-1.3c0-.6.2-1 .6-1.3a2 2 0 0 1 1.4-.6 2 2 0 0 1 2 1.9 14.8 14.8 0 0 1 0 1.3c0 .6-.2 1-.5 1.4a2 2 0 0 1-1.5.5Zm0-1c.3 0 .6 0 .7-.2.2-.2.3-.5.3-.8a17.8 17.8 0 0 0 0-1.1c0-.3 0-.6-.2-.7-.2-.2-.5-.3-.8-.3-.3 0-.6 0-.7.3-.2.1-.3.4-.3.7a9.8 9.8 0 0 0 0 1.1c0 .3.1.6.3.8.1.2.4.3.7.3ZM488.2 42.3h-.2l-.1-.3v-.5l.3-.6 3-3a9 9 0 0 0 1.5-1.4c.3-.4.4-.8.4-1.2 0-.6-.1-1-.5-1.3-.3-.3-.7-.5-1.3-.5-.5 0-1 .2-1.3.5-.3.3-.5.8-.6 1.3l-.1.3H488v-.2c0-.5 0-1 .3-1.5a3 3 0 0 1 1.1-1.1c.5-.3 1.1-.5 1.8-.5 1 0 1.9.3 2.4.9.5.5.8 1.2.8 2a3 3 0 0 1-.4 1.6 7 7 0 0 1-1.4 1.5l-2.7 2.8H494.6l.1.3v.8h-6.5Zm8.5 0h-.3v-1.6h1.5l.1.3v1.2h-1.3Zm6.3.1c-.7 0-1.3-.1-1.8-.3a3 3 0 0 1-1.2-1c-.3-.5-.4-.9-.4-1.4v-.2h1c.2 0 .3 0 .4.3.1.5.4.8.8 1 .3.3.8.4 1.2.4.7 0 1.2-.1 1.6-.5.4-.4.6-1 .6-1.6 0-.6-.2-1.1-.6-1.5-.4-.3-1-.5-1.6-.5a2 2 0 0 0-.8.1c-.2 0-.4.2-.6.4l-.3.2h-1.2v-.3l.4-4.7v-.2l.3-.1h5.1l.1.3v.8h-4.3l-.3 2.8c.5-.3 1.1-.4 1.8-.4s1.2 0 1.7.3c.6.3 1 .7 1.3 1.1.3.5.4 1 .4 1.7s-.1 1.3-.4 1.8a3 3 0 0 1-1.3 1.1c-.5.3-1.2.4-1.9.4Zm7-5a2 2 0 0 1-1.5-.5 2 2 0 0 1-.5-1.3 11.2 11.2 0 0 1 0-1.3c0-.6.2-1 .5-1.4.3-.3.8-.5 1.5-.5.6 0 1 .2 1.4.5.4.4.6.8.6 1.4a18.7 18.7 0 0 1 0 1.3c0 .6-.2 1-.6 1.3a2 2 0 0 1-1.4.5Zm-1.2 4.9h-.2l-.1-.3V42l7-9.1.2-.3H516.6v.4l-6.9 9.1-.2.2h-.7Zm1.2-5.8c.3 0 .5 0 .7-.3.2-.2.3-.4.3-.7a17.8 17.8 0 0 0 0-1.1c0-.3-.1-.6-.3-.8-.2-.2-.4-.3-.7-.3-.4 0-.6.1-.8.3l-.2.8a9.8 9.8 0 0 0 0 1.1c0 .3 0 .6.2.8l.8.2Zm5.2 5.9a2 2 0 0 1-1.4-.5 2 2 0 0 1-.6-1.4 11.2 11.2 0 0 1 0-1.3c0-.6.2-1 .5-1.3a2 2 0 0 1 1.5-.6 2 2 0 0 1 2 1.9 14.8 14.8 0 0 1 0 1.3c0 .6-.2 1-.6 1.4a2 2 0 0 1-1.4.5Zm0-1c.3 0 .6 0 .7-.2.2-.2.3-.5.3-.8a17.8 17.8 0 0 0 0-1.1c0-.3 0-.6-.3-.7-.1-.2-.4-.3-.7-.3-.3 0-.6 0-.7.3-.2.1-.3.4-.3.7a9.8 9.8 0 0 0 0 1.1c0 .3.1.6.3.8.1.2.4.3.7.3Z" fill="#2B1D38"/></svg>
