<svg xmlns="http://www.w3.org/2000/svg" width="795.4192" height="159.5164" viewBox="0 0 795.4192 159.5164">
  <defs>
    <style>
      .cls-1 {
        fill: #f58452;
      }

      .cls-2 {
        fill: #ebb432;
      }

      .cls-3 {
        fill: #fca9cb;
      }

      .cls-4 {
        fill: #ce8d1b;
      }

      .cls-5 {
        fill: #ad6caa;
      }

      .cls-6 {
        fill: #e1557a;
      }
    </style>
  </defs>
  <g id="bg">
    <polygon class="cls-3" points="795.4192 0 795.4192 159.5164 30.8218 159.5164 0 62.7251 687.2725 1.0815 795.4192 0"/>
  </g>
  <g id="stroke">
    <g>
      <g>
        <polygon class="cls-2" points="299.6725 73.0976 268.4992 145.1369 134.133 134.4651 119.966 129.4229 146.2244 64.0609 291.5561 67.5953 299.6725 73.0976"/>
        <polygon class="cls-4" points="268.4992 145.1369 134.133 134.4651 119.966 129.4229 260.2359 139.6737 268.4992 145.1369"/>
        <path class="cls-6" d="m235.0722,148.7792l-6.5735-2.3326,4.4531-1.6964s-13.2534-1.8025-14.3136-2.2266-9.3304-5.6194-14.6316-7.1037c-5.3013-1.4844-12.8293-1.6964-12.8293-1.6964,0,0,14.2076-4.2411,16.8582-6.7857,5.4757-5.2565,7.634-9.9665,7.634-9.9665,0-6.2556-6.0435-15.2678-8.6942-16.01-2.6507-.7422-9.9665,4.135-11.5569,5.5134-1.5905,1.3784-13.1473,16.7522-13.1473,16.7522-1.0603-8.164-7.4218-21.8415-9.5425-22.7957-2.1204-.9542-9.0121,2.0145-10.9207,3.1808-1.9084,1.1663-5.9375,9.0123-6.2555,10.4966-.318,1.4844,1.9085,8.164,3.9231,10.8147,2.0144,2.6506,9.7544,6.7857,9.7544,6.7857-2.0145,1.6964-15.798,7.4219-15.798,7.4219l3.7109,9.0123s8.9062-6.6797,10.4967-8.2701c1.5904-1.5904,4.7712-4.9833,4.7712-4.9833,5.0892,2.8627,10.9207,1.6964,10.9207,1.6964,0,0,1.2722,1.6964,3.0746,3.6049,1.8025,1.9085,10.6027,10.6026,10.6027,10.6026l7.422-4.135-6.4676-5.3014s7.8459,1.3784,8.5881,1.6964,8.9062,6.6797,11.1328,7.2098c2.2266.5301,12.0871,2.7567,12.0871,2.7567l-2.5446-3.2868,7.8459-.9543Zm-70.4015-30.4296l1.0602-9.7545s7.1075,13.1753,9.2397,20.9651c0,0-4.4686-3.7888-10.2999-11.2106Zm21.4173,15.1618l-3.1866-2.3425s8.6999-10.1686,10.8205-12.5542c2.1204-2.3856,7.3157-7.2628,7.3157-7.2628l3.2695,11.875s-12.7059,7.952-18.2192,10.2846Z"/>
        <path class="cls-6" d="m191.1772,111.5907c-3.8793,4.9491-8.9062,11.6362-8.9062,11.6362-.235-1.8093-.7303-3.8893-1.3822-6.0416,0,0,1.468-3.8465,1.8007-4.5119s-.4437-6.1002-.6655-7.2093-.1109-8.3185,0-8.9839,4.8802-6.2111,5.2129-6.7657,4.3256-18.4115,4.6583-19.6316,3.5229-4.8234,3.5229-4.8234l9.4604.2299s-6.3937,16.2394-6.9157,18.125c-.522,1.8855-1.5202,8.3185-1.6311,9.2058s-4.32,5.102-5.1547,5.9893c0,0-.7237,3.0752-.8498,3.8737s.8498,8.9077.8498,8.9077Z"/>
        <polygon class="cls-2" points="484.1179 93.8537 477.8419 139.5855 413.0184 152.4015 270.8294 139.7618 289.04 97.6818 293.622 87.0883 320.8007 83.5539 484.1179 93.8537"/>
        <path class="cls-6" d="m294.8382,152.3968s7.3022-4.3226,8.719-4.5406,8.0651,1.7438,8.719,1.7438,2.1798-.5449,2.1798-.5449c0,0,4.3595-13.6234,4.9044-14.3864s7.4112-5.9943,7.4112-5.9943c0,0,10.1358.5449,11.1167.5449s2.8337,5.6674,2.9427,6.3213,0,10.4442,0,10.4442l-10.7898-.8452-.8719-8.1821s-5.9943,13.9504-6.3213,15.0403-5.4494,2.9427-6.1033,3.1606-6.5393.327-6.5393.327l-1.3079-2.9427-6.1033,2.1798-.6539-3.0517-7.3022.726Z"/>
        <polygon class="cls-4" points="484.1179 93.8537 414.5262 108.4221 289.04 97.6818 293.622 87.0883 320.8007 83.5539 484.1179 93.8537"/>
        <path class="cls-6" d="m440.1497,147.033s2.6935-7.3508,4.5463-9.5306c1.8528-2.1798,7.8471-6.2123,8.937-6.6482l13.9504-1.7438c1.0899,1.4168,2.7247,10.5522,2.7247,10.5522,0,0,3.3786,3.2892,4.1415,3.1802s16.8931-1.4168,18.2009-.9809,6.3213,4.5775,6.3213,4.5775l-7.4112-.218,1.7438,1.7438s-11.1167-1.5258-12.7515-1.4168-10.8988,2.0708-11.7707,1.9618-5.5584-2.9427-5.8853-3.4876-2.1798-8.61-2.6157-10.1358c-.109-.3815-.5109-.8515-1.0694-1.3351,0,0-4.9249,3.7328-5.6878,4.8227s-2.9732,6.6026-2.9732,6.6026"/>
        <path class="cls-5" d="m349.1026,72.0044s2.2221,3.3667,3.0974,5.9255l-4.4441,4.3094,9.4942.404s-.2693-8.4842-5.1848-15.083l14.2077-19.1904s8.0443,15.9341,8.17,35.2849l7.6649.5026s-1.0052-24.1257-11.3089-42.0943l14.6761-20.0609c1.1511-1.5734,3.6039-1.16,4.1757.7037l20.5405,66.9509c.638,2.0797-.9998,4.1556-3.1709,4.019l-13.478-.8483s.2513-4.6492-.377-8.2932l7.0367.5026-14.7016-52.398-7.1623,10.178s10.3037,21.8639,10.3037,49.6336l-19.2252-1.7592s1.7592-16.0838-4.9005-29.2775l-5.6545,7.0367s4.5236,8.4189,4.0209,21.7382l-20.1013-1.4959c-2.911-.2166-4.372-3.6214-2.5234-5.8805l8.8445-10.808Z"/>
        <path class="cls-5" d="m477.0414,29.1316l-.6527-3.0023-9.5636,3.527-.0961-1.3079,7.5712-7.049-2.0886-1.8275-9.9209,7.4406-3.0024.5222.5223-8.6155-3.1329-.3916c-.9138,4.1772-2.2191,11.8789-2.2191,11.8789l-51.6174,35.3925.7629,2.4865,54.7706-29.0025,9.0071-1.9581,6.9186,1.8276,1.1748-2.6108-8.3519-2.7319,9.9182-4.5782Z"/>
        <polygon class="cls-5" points="386.0071 92.2095 386.5789 106.0348 391.1113 106.4228 388.642 92.4506 386.0071 92.2095"/>
        <polygon class="cls-5" points="360.7958 90.1888 357.9083 103.5805 362.0837 103.9379 362.8828 90.1888 360.7958 90.1888"/>
        <path class="cls-5" d="m316.8934,20.364s-.2513-4.2721-.2513-5.6543-.3769-5.0261-.3769-5.0261l-3.2669-.5026-.5026,8.0417-2.8438-.7936h0l-7.8365-6.6198-1.7481,1.7228,6.1549,6.4857-.3238.8562-9.5112-2.174-.7047,2.1141,9.0926,3.0309-.5909,1.5632-7.0141,1.67.6264,2.1141,6.7766-.895,7.2943,1.48,43.9768,34.6788,1.375-1.8574-40.3258-40.2349Z"/>
        <polygon class="cls-6" points="448.3562 59.5995 454.1497 59.6719 450.6012 68 448.3562 59.5995"/>
        <polygon class="cls-1" points="474.3544 60.9755 472.6888 55.6165 477.3235 53.7336 479.0616 58.9478 474.3544 60.9755"/>
        <polygon class="cls-6" points="491.7348 45.7676 499.4111 45.0435 501.3664 53.2991 507.884 52.2129 507.6668 58.0063 512.3015 58.1512 511.0704 48.3023 503.3941 48.954 501.8009 40.9156 492.2417 41.495 491.7348 45.7676"/>
        <path class="cls-2" d="m502.6699,72.3451c-.2173,2.0277,1.6982,2.2814,2.4622,2.245.7688-.0367,2.1114-.2093,2.1726-2.0332.0308-.9162-.9505-2.1218-2.1726-2.167s-2.3536.9414-2.4622,1.9553Z"/>
        <polygon class="cls-6" points="500.1072 91.099 505.2117 90.7587 506.3785 95.134 501.0795 96.5439 500.1072 91.099"/>
        <polygon class="cls-1" points="522.0324 47.9292 525.1437 53.131 532.7276 49.5821 522.0324 47.9292"/>
        <path class="cls-2" d="m514.7402,25.7609c0,.1945.1945,4.0836.1945,4.0836l-4.667.4861-.632-4.5212,5.1045-.0486Z"/>
        <polygon class="cls-1" points="499.1835 18.3715 494.8568 21.8231 492.0857 10.9821 499.1835 18.3715"/>
        <polygon class="cls-1" points="411.392 26.375 413.3987 32.5862 419.9921 27.9039 416.7432 22.8394 411.392 26.375"/>
        <polygon class="cls-6" points="399.8297 17.5838 406.3275 17.4883 403.4608 12.5193 399.8297 17.5838"/>
        <path class="cls-6" d="m236.995,34.2655c-1.8923.9135-1.727,2.828-.8235,3.9117.8536,1.0239,2.8743,1.3494,3.9705-.0735,1.5294-1.9852-1.0147-4.8675-3.147-3.8381Z"/>
        <polygon class="cls-1" points="260.8254 46.7161 270.656 44.6961 271.0151 36.7508 278.8706 38.3219 280.0826 41.5988 273.6187 40.3868 273.2147 48.1077 262.4862 50.1277 260.8254 46.7161"/>
        <path class="cls-6" d="m301.5395,43.2597l3.232-.3142-.1796,4.2644,2.9178-.3142.6733,7.9902,5.8804-.4489,1.3018,6.9129-3.0973,1.6609-1.1671-5.656-5.1173,1.1222s-.7631-8.1249-.9427-8.1249-3.2769.5836-3.2769.5836l-.2244-7.676Z"/>
        <polygon class="cls-2" points="288.0728 33.3393 289.4644 44.1575 293.9533 35.449 288.0728 33.3393"/>
        <path class="cls-2" d="m326.2045,15.881c.2067,2.8013,4.1297,2.4479,4.3771.5748.1779-1.347-.3534-2.5093-1.7095-2.7824-1.3075-.2633-2.7998.4149-2.6676,2.2076Z"/>
        <polygon class="cls-1" points="333.8893 23.2112 338.8556 18.9445 341.0433 20.5488 344.0331 16.1734 346.2207 17.0485 348.2626 12.9649 351.2401 14.6673 347.7568 20.6481 345.1316 19.1167 341.7043 24.3671 339.3708 21.8877 336.9644 25.1692 333.8893 23.2112"/>
        <polygon class="cls-1" points="242.5977 25.2085 241.2709 22.2997 246.6801 19.5441 248.211 23.1673 242.5977 25.2085"/>
        <polygon class="cls-6" points="257.7026 7.371 259.0804 17.475 263.7242 11.0962 257.7026 7.371"/>
        <polygon class="cls-6" points="282.5544 11.4813 289.7496 9.1339 290.6172 14.0839 287.5043 15.1045 282.5544 11.4813"/>
        <polygon class="cls-1" points="274.0833 24.1368 268.1128 16.7374 276.1756 20.3606 274.0833 24.1368"/>
        <polygon class="cls-2" points="264.7958 27.9131 258.9784 28.1172 259.0804 31.4852 264.5917 31.6893 264.7958 27.9131"/>
        <polygon class="cls-2" points="466.7716 67.8233 463.7243 72.5211 465.3749 74.5526 461.9468 79.5044 464.4861 81.2819 468.8031 74.4256 467.5334 72.3942 470.5806 67.9503 465.3749 59.8243 463.2165 61.9828 466.7716 67.8233"/>
        <path class="cls-6" d="m167.5997,130.7995s-9.6965-.3048-11.3742-.1649c-1.6774.1399-11.4662,4.6747-11.4668,4.675,0,0-17.2996,2.3903-18.6109,2.1623-.6578-.1144-4.0691-1.2327-7.4576-2.3479,4.0854-.7884,13.9197-1.2012,13.9197-1.2012l1.525.5428,10.6237.8439-10.6237-.8439-14.1722-5.0445,2.1539-5.361s-9.3991,1.1813-12.4738,2.1355c-3.0747.9543-7.1038,2.5446-7.634,3.6049,0,0,.1061,6.5736,1.4844,11.981,0,0,2.8628.4241,5.3014.7422s10.1785,2.8627,11.7689,3.3929c1.5904.5301,4.5591,1.5904,6.5736,1.8025,2.0145.212,6.5736-.2121,8.9062-.7422,2.3327-.5301,8.8003-4.029,10.3906-4.6651,1.5905-.6362,7.4326-2.125,7.4326-2.125l-.4348-1.0558,6.1648-2.6423h.0005c3.9503-1.7379,8.5359-3.8559,9.6327-4.7796,0,0-.6534-.3491-1.6301-.9094Z"/>
        <polyline class="cls-4" points="289.04 97.6818 282.7802 140.8242 270.8294 139.7618 289.04 97.6818"/>
      </g>
      <g>
        <path d="m229.7708,153.5202c-.0361,0-.0732-.0039-.1104-.0122-.0986-.0225-9.8887-2.2334-12.0928-2.7578-1.5068-.3589-5.0586-2.8569-8.877-5.6064-1.0498-.7559-2.1357-1.5376-2.3379-1.6309-.1299-.0557-.8701-.2676-4.9033-1.0166-.2715-.0508-.4502-.3115-.3994-.583.0498-.272.3086-.4526.583-.4004,4.5762.8506,4.9678,1.0186,5.1152,1.0815.2686.1152.9688.6162,2.5273,1.7383,2.6494,1.9082,7.084,5.1016,8.5244,5.4448,1.7002.4043,7.9375,1.8179,10.7227,2.4478l-1.6924-2.1855c-.1104-.1421-.1348-.3325-.0654-.4985.0684-.166.2217-.2822.4004-.3042l5.7363-.6973-4.5703-1.6216c-.1973-.0698-.3301-.2559-.333-.4653-.002-.2095.126-.3984.3223-.4731l2.626-1.0005c-3.8066-.5293-11.627-1.644-12.4941-1.9912-.2881-.1152-.918-.4697-2.1006-1.1387-3.001-1.6973-8.5859-4.8574-12.4805-5.9478-5.1787-1.4502-12.6338-1.6763-12.708-1.6782-.2461-.0073-.4502-.1914-.4824-.4346-.0312-.2437.1182-.4741.3535-.5444.1406-.042,14.1211-4.2349,16.6543-6.6675,4.9209-4.7231,7.1416-9.0273,7.4795-9.7178-.0703-6.146-5.9258-14.7441-8.3281-15.4165-2.2207-.6235-9.1836,3.7549-11.0947,5.4102-1.2266,1.0625-9.0889,11.3716-13.0752,16.6743-.1211.1631-.3301.2368-.5264.1831-.1973-.0518-.3428-.2173-.3691-.4189-1.0898-8.3901-7.4482-21.5923-9.251-22.4038-1.7627-.792-8.2461,1.8013-10.4551,3.1514-1.7578,1.0747-5.7363,8.814-6.0273,10.1748-.2734,1.2793,1.8516,7.8008,3.832,10.4077,1.9248,2.5327,9.5156,6.606,9.5918,6.647.1465.0781.2441.2236.2617.3887s-.0479.3276-.1748.4346c-1.8623,1.5679-13.0117,6.2808-15.4688,7.3091l3.2754,7.9541c1.9199-1.4473,8.5986-6.5068,9.9268-7.835,1.5674-1.5664,4.7285-4.938,4.7598-4.9717.1582-.1689.4082-.208.6104-.0938,4.8594,2.7329,10.5205,1.6528,10.5781,1.6416.1875-.0356.3828.0371.498.1904.0117.0166,1.2783,1.6982,3.0371,3.5615,1.5996,1.6938,8.8379,8.856,10.3252,10.3262l6.4512-3.5942-5.8994-4.8354c-.2129-.1753-.2441-.4902-.0693-.7036.1738-.2134.4893-.2446.7041-.0698l6.4678,5.3013c.1279.105.1953.2666.1807.4312-.0146.165-.1104.312-.2549.3926l-7.4219,4.1348c-.1943.1074-.4365.0747-.5947-.0815-.0879-.0869-8.8271-8.7217-10.6152-10.6147-1.4219-1.5059-2.5049-2.8643-2.9238-3.4043-1.2725.1992-6.124.7427-10.6074-1.6167-.7988.8491-3.208,3.4038-4.5186,4.7134-1.5967,1.5972-10.1846,8.043-10.5498,8.3164-.1221.0933-.2812.1235-.4326.082-.1484-.041-.2705-.1484-.3291-.2915l-3.7109-9.0122c-.1055-.2549.0156-.5464.2705-.6523,4.2998-1.7861,12.4102-5.2988,15.04-6.9097-1.9883-1.104-7.4922-4.2822-9.2041-6.5332-2.1113-2.7798-4.3721-9.5444-4.0137-11.2222.3525-1.6416,4.4326-9.5645,6.4844-10.8188,1.8291-1.1177,8.958-4.3052,11.3867-3.21,2.376,1.0693,8.2012,13.8657,9.6494,22.0054,2.5664-3.3999,11.1104-14.6733,12.5078-15.8838,1.3291-1.1519,8.9727-6.4717,12.0186-5.6172,2.9941.8384,9.0596,10.2114,9.0596,16.4917,0,.0718-.0156.1431-.0459.2085-.0889.1958-2.2607,4.8569-7.7412,10.1187-2.0107,1.9302-10.1221,4.7046-14.4043,6.0767,2.6914.1958,6.8311.6304,10.1631,1.5635,4.0117,1.123,9.666,4.3218,12.7031,6.0405.9727.5503,1.7412.9849,1.9795,1.0801.7314.2925,9.0947,1.502,14.1953,2.1953.2266.0308.4033.2114.4297.4385.0254.2271-.1055.4429-.3193.5244l-3.1826,1.2129,5.293,1.8779c.2188.0776.3555.2954.3301.5259-.0254.231-.2061.4136-.4365.4419l-6.9727.8477,2.0059,2.5903c.1289.167.1396.397.0264.5747-.0928.146-.2539.2314-.4219.2314Zm-43.6826-19.5088c-.1045,0-.209-.0332-.2959-.0972l-3.1865-2.3423c-.1123-.0825-.1846-.2075-.2012-.3457-.0156-.1382.0264-.2764.1172-.3823.0869-.1016,8.7266-10.1997,10.8262-12.561,1.2793-1.4395,3.6465-3.7573,5.4062-5.4482.2002-.1904.5166-.186.707.0142.1914.1987.1855.5156-.0137.7065-1.748,1.6787-4.0947,3.9771-5.3516,5.3916-1.8516,2.082-8.8174,10.2139-10.4648,12.1382l2.5225,1.854c5.0449-2.2051,15.6104-8.7212,17.5723-9.9395l-3.1709-11.5151c-.0732-.2661.083-.5415.3496-.6147.2705-.0718.541.083.6152.3491l3.2695,11.875c.0586.2129-.0303.4395-.2168.5566-.5205.3257-12.8037,8-18.2891,10.3213-.0635.0264-.1289.0396-.1953.0396Zm-11.1172-3.9512c-.1152,0-.2305-.04-.3232-.1187-.0449-.0381-4.5742-3.9067-10.3711-11.2827-.0801-.103-.1172-.2334-.1035-.3633l1.0605-9.7544c.0234-.2173.1865-.3945.4014-.4365.2197-.0439.4326.0615.5361.2534.0713.1323,7.1592,13.3149,9.2822,21.0703.0576.2114-.0293.4355-.2139.5537-.082.0522-.1758.0781-.2686.0781Zm-9.7812-11.8594c3.8135,4.8354,7.0498,8.1172,8.7734,9.7583-2.0068-6.0923-6.1934-14.3813-7.9121-17.6836l-.8613,7.9253Z"/>
        <path d="m183.3304,137.0861c-.2578,0-.4766-.1987-.4971-.4604l-1.0039-12.6372c-6.8184,3.4248-8.915,10.9531-8.9365,11.0312-.0713.2671-.3467.4248-.6123.353-.2666-.0718-.4248-.3462-.3525-.6128.0928-.3472,2.377-8.54,10.1396-11.9902.1465-.0659.3174-.0566.459.0273.1396.083.2295.2285.2422.3901l1.0605,13.3594c.0225.2754-.1836.5161-.458.5381-.0137.001-.0273.0015-.041.0015Z"/>
        <path d="m201.0374,111.8517c-.1484,0-.2969-.0664-.3955-.1934-1.6211-2.0898-5.4678-4.7451-5.5068-4.7715-.2275-.1562-.2852-.4678-.1289-.6953.1572-.2275.4678-.2842.6953-.1289.1631.1118,4.0137,2.769,5.7314,4.9824.1689.2183.1289.5322-.0889.7017-.0908.0708-.1992.105-.3066.105Z"/>
        <path d="m204.307,125.8395c-.2764,0-.5-.2236-.5-.5v-2.1128c0-.2764.2236-.5.5-.5s.5.2236.5.5v2.1128c0,.2764-.2236.5-.5.5Z"/>
        <path d="m165.7308,109.0954c-.1475,0-.2939-.0654-.3926-.1909l-3.9229-4.9834c-.1709-.2168-.1338-.5312.083-.7021.2158-.1699.5303-.1348.7021.084l3.9229,4.9834c.1709.2168.1338.5312-.083.7021-.0918.0718-.2012.1069-.3096.1069Z"/>
        <path d="m169.2298,132.2091c-.2021,0-.3936-.124-.4688-.3247-.0967-.2588.0352-.5469.2939-.6436l5.7412-2.1489c.2559-.0947.5469.0347.6436.293.0967.2588-.0352.5469-.2939.6436l-5.7412,2.1489c-.0576.0215-.1162.0317-.1748.0317Z"/>
        <g>
          <path d="m186.9203,134.5485c-.2754,0-.5049-.2236-.5049-.5s.2188-.5.4951-.5h.0098c.2764,0,.5.2236.5.5s-.2236.5-.5.5Z"/>
          <g>
            <polygon points="189.5743 133.8452 186.9006 134.0483 189.2445 135.5969 189.5743 133.8452"/>
            <path d="m189.2445,136.0968c-.0967,0-.1924-.0278-.2754-.083l-2.3438-1.5483c-.1787-.1177-.2627-.3359-.209-.5425.0537-.207.2334-.3569.4463-.373l2.6738-.2031c.1553-.0098.3066.0493.4102.165.1045.1157.1484.2734.1191.4263l-.3301,1.7515c-.0312.1646-.1426.3022-.2959.3677-.0635.0264-.1289.0396-.1953.0396Zm-.8496-1.6606l.498.3286.0693-.3716-.5674.043Z"/>
          </g>
        </g>
        <path d="m134.1351,134.9655c-.0557,0-.1123-.0093-.168-.0288l-14.1719-5.0444c-.1279-.0459-.2324-.1416-.2881-.2656s-.0586-.2656-.0078-.3921l2.1533-5.3608c.1025-.2563.3926-.3794.6504-.2773.2559.103.3809.394.2773.6504l-1.959,4.8779,13.6816,4.8696c.2598.0928.3955.3789.3027.6387-.0723.2051-.2656.3325-.4707.3325Z"/>
        <path d="m144.7591,135.8092c-.0938,0-.1865-.0259-.2676-.0781-.1445-.0913-.2324-.2505-.2324-.4214q0-.4019,5.4053-2.7441c5.3896-2.335,6.2402-2.4062,6.5195-2.4292,1.0381-.0874,4.959-.0103,8.0684.0688.2764.0073.4941.2368.4873.5127-.0068.2764-.2539.5015-.5127.4873-4.3604-.1108-7.1865-.1357-7.959-.0728-1.2959.1084-8.7334,3.4316-11.2959,4.6299-.0674.0312-.1406.0469-.2129.0469Z"/>
        <path d="m128.4486,148.2746c-.5176,0-.9814-.0181-1.3643-.0586-1.8516-.1943-4.4189-1.0625-6.1182-1.6362l-.5605-.189c-.9326-.3105-9.1816-3.0459-11.6758-3.3716-2.4424-.3184-5.3096-.7432-5.3096-.7432-.1992-.0298-.3613-.1758-.4111-.3711-1.3779-5.4014-1.499-12.0303-1.5-12.0967-.001-.0801.0166-.1597.0527-.2314.7871-1.5732,6.7461-3.4907,7.9326-3.8589,2.1846-.6772,7.4531-1.46,10.3994-1.8662.2646-.0405.5254.1519.5635.4268.0381.2734-.1533.5259-.4268.5635-2.916.4023-8.124,1.1748-10.2393,1.8311-3.6074,1.1196-6.7207,2.5215-7.2793,3.2622.0254.9648.2197,6.6147,1.3857,11.4004.8213.1201,3.0244.4399,4.9609.6924,2.5879.3374,10.9219,3.1006,11.8633,3.4146l.5645.1895c1.6572.5601,4.1621,1.4067,5.9033,1.5898,1.9941.2114,6.5537-.2349,8.7422-.7329,1.5098-.3423,4.9453-2.0396,7.4541-3.2783,1.2969-.6406,2.3213-1.147,2.8623-1.3633,1.3262-.5303,5.4277-1.6104,6.9375-2.0015l-.2158-.5244c-.1045-.2529.0137-.5425.2646-.6499l6.165-2.6426c4.4111-1.9404,7.4922-3.4238,8.8799-4.2705-.2559-.1426-.5703-.3198-.9287-.5254-.2393-.1372-.3223-.4429-.1846-.6826.1377-.2412.4443-.3223.6826-.1846.9658.5547,1.6133.9004,1.6162.9023.1465.0781.2441.2236.2617.3887s-.0479.3281-.1748.4346c-.9307.7837-4.2119,2.417-9.7539,4.8545l-5.7158,2.4507.2461.5996c.0557.1343.0498.2852-.0146.415-.0654.1294-.1836.2241-.3242.2598-.0576.0151-5.8281,1.4878-7.3701,2.105-.5039.2017-1.5635.7251-2.791,1.3311-2.6953,1.3315-6.0498,2.9883-7.6748,3.3574-1.8926.4302-5.3506.8101-7.7051.8101Z"/>
        <path d="m126.3812,137.9821c-.1416,0-.249-.0054-.3193-.0176-.6748-.1172-3.6104-1.0762-8.0137-2.5254-3.0605-1.0073-6.2256-2.0493-6.7617-2.1514-1.1689-.2227-7.3203-1.0137-7.3818-1.0215-.2744-.0352-.4678-.2861-.4326-.5596.0342-.2744.2861-.4653.5596-.4326.2549.0327,6.2441.8032,7.4424,1.0312.5596.1064,2.9756.896,6.8877,2.1841,3.3838,1.1138,7.2188,2.3765,7.8721,2.4897.9121.1616,11.7998-1.2446,18.457-2.1646.2646-.043.5254.1523.5635.4268.0381.2734-.1533.5259-.4268.5635-1.6865.2334-15.8379,2.1772-18.4463,2.1772Z"/>
        <path d="m182.2708,123.7267c-.1055,0-.21-.0327-.3008-.1006-.2207-.1655-.2646-.479-.0986-.6997.0498-.0664,4.9639-6.6011,8.7842-11.4814-.207-1.7378-.9463-8.0498-.8223-8.8403.1279-.8071.8271-3.7837.8574-3.9102.0195-.0854.0625-.1641.1221-.228.126-.1343.3291-.3438.583-.6064,2.8369-2.9321,4.3311-4.6523,4.4424-5.1128.0957-.772,1.1006-7.3101,1.6436-9.2661.4678-1.6919,5.4463-14.396,6.6699-17.5093l-8.5117-.207c-1.2129,1.3862-3.0518,3.6763-3.2617,4.4492-.1094.4014-.6602,2.7993-1.2969,5.5757-2.4463,10.6631-3.2129,13.8438-3.416,14.1821-.1279.2129-.6387.8394-1.6055,2.021-1.1816,1.4434-3.3809,4.1304-3.5508,4.604-.1025.6313-.1914,7.7852.0049,8.769.0127.0625,1.1201,6.5376.623,7.5312-.0674.1343-.2354.5166-.6572,1.5771-.1025.2563-.3936.3823-.6494.2793-.2568-.1021-.3818-.3926-.2803-.6494.3545-.8896.5811-1.4307.6924-1.6543.2031-.6123-.418-5.4399-.709-6.8872-.2373-1.1865-.1123-8.5049-.0029-9.1641.0742-.4453.8818-1.5283,3.7559-5.0391.7002-.8564,1.4248-1.7417,1.5215-1.9019.2412-.5654,2.1553-8.9077,3.2988-13.8916.666-2.9023,1.1914-5.1943,1.3066-5.6152.3525-1.2944,3.2959-4.645,3.6309-5.0229.0977-.1104.2451-.1694.3857-.1685l9.46.23c.1641.0039.3145.0874.4053.2236.0898.1362.1084.3076.0479.4595-.0635.1621-6.3896,16.2363-6.8984,18.0752-.499,1.8037-1.4961,8.1724-1.6162,9.1338-.085.6797-1.3184,2.1641-4.7139,5.6738-.1953.2021-.3594.3721-.4814.5-.1387.5938-.7051,3.0269-.8115,3.7056-.0723.4971.3848,4.8896.8516,8.77.0166.1313-.0205.2637-.1025.3682-3.8311,4.8882-8.8496,11.561-8.9004,11.6279-.0977.1309-.248.1997-.3994.1997Z"/>
        <path d="m260.2406,140.2667c-.0117,0-.0244-.0005-.0371-.0015l-50.249-3.7061c-.2754-.02-.4814-.2598-.4619-.5352.0205-.2759.2529-.4849.5361-.4619l49.8945,3.6797,31.1738-71.8457c.1104-.2534.4014-.3706.6582-.2593.2529.1099.3691.4043.2598.6577l-31.3154,72.1714c-.0801.1836-.2607.3008-.459.3008Z"/>
        <path d="m152.6908,132.3346c-.0127,0-.0254-.0005-.0381-.0015l-32.7266-2.4136c-.2754-.02-.4814-.2598-.4619-.5352.0205-.2764.2529-.4863.5361-.4619l32.7266,2.4136c.2754.02.4814.2598.4619.5352-.0195.2632-.2393.4634-.498.4634Z"/>
        <path d="m268.5023,145.6398c-.0938,0-.1885-.0259-.2725-.0811l-8.2617-5.373c-.2314-.1504-.2969-.46-.1465-.6914.1514-.2319.4629-.2969.6914-.1465l8.2617,5.373c.2314.1504.2969.46.1465.6914-.0957.1475-.2559.2275-.4189.2275Z"/>
        <path d="m296.0609,87.2682c-.2471,0-.4619-.1836-.4951-.4355-.0352-.2739.1582-.5249.4316-.5601l24.7422-3.2158,15.915.9946c.2754.0176.4854.2549.4678.5303-.0166.2749-.2246.478-.5303.4678l-15.8193-.998-24.6465,3.2124c-.0215.0029-.0439.0044-.0654.0044Z"/>
        <path d="m414.5228,108.9269c-.0146,0-.0283-.0005-.043-.002l-125.4854-10.7422c-.2744-.0234-.4785-.2656-.4551-.5405.0234-.2754.2734-.4824.541-.4556l125.4121,10.7358,69.5254-14.5576c.2637-.0566.5361.1157.5918.3867.0566.2705-.1162.5352-.3867.5918l-69.5977,14.5728c-.0342.0073-.0684.0107-.1025.0107Z"/>
        <path d="m321.8001,100.9894c-.2637,0-.4834-.2051-.499-.4707l-.9961-16.937c-.0166-.2754.1943-.5122.4697-.5283.2656-.0107.5117.1943.5283.4697l.9961,16.937c.0166.2754-.1943.5122-.4697.5283-.0098.0005-.0195.001-.0293.001Z"/>
        <path d="m413.015,152.8966c-.0059,0-.0117,0-.0176-.0005-.2754-.0093-.4912-.2407-.4824-.5166l1.5078-43.9697c.0098-.2754.2744-.4902.5176-.4824.2754.0093.4912.2407.4824.5166l-1.5078,43.9697c-.0098.27-.2314.4829-.5.4829Z"/>
        <path d="m318.9408,154.8239c-.1963,0-.3828-.1167-.4619-.3096-.1055-.2554.0166-.5479.2715-.6528,3.3525-1.3804,3.6104-1.9844,3.6191-2.0093.3311-1.1025,6.0947-14.5215,6.3408-15.0918.0889-.2085.3086-.3296.5332-.2974.2256.0342.3984.2153.4229.4414l.8281,7.7695,9.8428.771c.0391-3.7656.0703-9.3569.001-9.8232-.1436-.8574-1.8154-5.5571-2.5234-5.9155-.2764,0-.4629-.2173-.4629-.4932,0-.2764.2598-.4937.5361-.4937,1.627,0,3.4248,6.6714,3.4365,6.7388.1104.6641.0254,8.8901.0068,10.5322-.002.1387-.0605.27-.1621.3638-.1025.0928-.2432.1392-.377.1294l-10.79-.8452c-.2402-.019-.4326-.2061-.458-.4453l-.6699-6.2808c-2.1543,5.0298-5.3232,12.4824-5.5479,13.229-.0938.3135-.3145,1.0469-4.1953,2.645-.0625.0254-.127.0376-.1904.0376Z"/>
        <path d="m310.2054,155.9855c-.1973,0-.377-.1162-.457-.2969l-1.1191-2.519-5.667,2.0234c-.1357.0483-.2852.0361-.4111-.0337-.126-.0703-.2158-.1914-.2461-.332l-.5605-2.6147-6.8564.6816c-.2383.0171-.4521-.1187-.5254-.3418-.0723-.2227.0195-.4668.2207-.5859.7559-.4478,7.4277-4.3779,8.8975-4.6045.9453-.1421,3.5146.4639,6.5273,1.2144.9697.2417,2.0674.5156,2.2715.5239.3574,0,1.1973-.2417,1.7773-.436.8799-2.7485,4.3525-13.5234,4.8965-14.2861.5605-.7847,6.3584-5.2202,7.5156-6.1016.0947-.0718.2041-.1079.3291-.1016.001,0,4.2871.2305,7.5537.3916.2764.0137.4883.2485.4746.5239-.0127.2754-.248.4868-.5234.4751-2.8682-.1416-6.5215-.3364-7.374-.3818-3.2617,2.4878-6.8408,5.3267-7.1611,5.7754-.4023.6294-3.1797,9.0742-4.835,14.2485-.0479.1484-.1621.2661-.3086.3184-.1641.0591-1.6289.5742-2.3486.5742-.2637,0-.8975-.1519-2.5088-.5532-1.9863-.4946-5.3096-1.3242-6.1338-1.1968-.7588.1167-3.8906,1.8027-6.5498,3.3208l5.0068-.4976c.2656-.0269.4854.1445.5391.3926l.5342,2.4937,5.5664-1.9878c.248-.0898.5195.0293.625.2676l1.1729,2.6396c2.7402-.0557,5.6787-.1777,6.0596-.2954.2637-.0791.5459.0635.6279.3232.084.2607-.0527.5391-.3125.6255-.6738.2251-5.2891.3271-6.6885.353h-.0088Z"/>
        <path d="m329.1693,137.4577c-.1377,0-.2754-.0566-.374-.168-.1836-.2065-.1641-.5225.042-.7061l8.7188-7.7383c.207-.1831.5225-.165.7061.042.1836.2065.1641.5225-.042.7061l-8.7188,7.7383c-.0957.0845-.2139.126-.332.126Z"/>
        <path d="m459.2123,134.0514c-.1162,0-.2324-.04-.3271-.1221-1.7441-1.5098-4.5615-2.7861-5.0674-2.6104-.2559.0835-.5479-.043-.6406-.2979-.0938-.2539.0195-.5308.2705-.6313,1.2148-.4824,4.6367,1.5244,6.0918,2.7837.209.1807.2314.4966.0508.7051-.0986.1143-.2383.1729-.3779.1729Z"/>
        <path d="m468.8587,149.0138c-.0547,0-.1006-.0024-.1377-.0073-.9746-.1221-5.8242-3.0127-6.2529-3.7266-.2129-.3545-.6973-2.2598-1.7734-6.6812-.3965-1.6245-.7383-3.0278-.8936-3.5747-.0293-.1016-.1465-.3652-.6172-.8218-1.5371,1.1777-4.7041,3.6792-5.251,4.459-.5977.855-2.3086,4.9834-2.918,6.502-.1035.2568-.3984.3823-.6494.2778-.2568-.1025-.3809-.3936-.2783-.6499.0908-.2275,2.2402-5.5796,3.0273-6.7036.7861-1.1221,5.2852-4.5479,5.7959-4.9346.1865-.1426.4502-.1343.6289.0205.6904.5981,1.0908,1.1133,1.2227,1.5757.1621.5659.5059,1.978.9033,3.6128.584,2.3945,1.4648,6.0132,1.666,6.4136.4229.5337,4.8672,3.1577,5.5137,3.2388.4248.042,3.7012-.5688,6.084-1.0142,2.4736-.4619,4.8096-.8984,5.5908-.9507,1.3037-.083,8.2891.8105,11.3838,1.2222l-.6963-.6968c-.1445-.145-.1865-.3638-.1055-.5518s.2988-.2979.4736-.3018l5.9355.1748c-1.9199-1.5361-4.2812-3.314-5.0186-3.5601-1.1699-.3682-17.0381.8682-17.9727,1.002-.833.1177-2.9395-1.7393-4.5605-3.3169-.0752-.0728-.125-.1675-.1436-.2705-.6084-3.4014-1.7344-8.6699-2.4863-10.1045l-13.5654,1.6953c-1.1221.5034-6.9082,4.3926-8.6875,6.4849-1.7734,2.0869-4.4307,9.3057-4.457,9.3784-.0947.2603-.3848.394-.6416.2974-.2598-.0947-.3926-.3818-.2979-.6411.1113-.3037,2.7461-7.46,4.6348-9.6821,1.8926-2.2266,7.8926-6.293,9.1328-6.7891.0391-.0156.0811-.0264.123-.0317l13.9512-1.7437c.1719-.021.3506.0513.458.1914,1.083,1.4082,2.5225,9.1265,2.792,10.6099,1.4365,1.3857,3.2129,2.8672,3.6523,2.9307.1035-.02,16.8496-1.4712,18.3848-.9585,1.3564.4521,5.9609,4.2363,6.4814,4.6665.165.1357.2246.3613.1494.5615-.0752.1997-.2627.3267-.4824.3237l-6.1523-.1816.8525.8535c.1523.1519.1895.3838.0947.5757-.0957.1929-.2969.2993-.5166.2734-3.0781-.4224-11.3633-1.4937-12.6494-1.4131-.7217.0479-3.1377.4995-5.4736.936-3.6689.6851-5.5918,1.0303-6.2539,1.0303Z"/>
        <path d="m388.6419,92.9508c-.0156,0-.0303-.0005-.0459-.002l-2.6348-.2412c-.2744-.0254-.4775-.2686-.4521-.5435.0254-.2759.2832-.4805.5439-.4526l2.0879.1914c-.1348-27.0732-10.1533-48.6567-10.2549-48.873-.0771-.1626-.0605-.3535.043-.5005l4.9248-6.9985c.1592-.2261.4707-.2812.6973-.1211.2256.1587.2793.4707.1211.6963l-4.7607,6.7646c1.1631,2.5928,10.2305,23.6538,10.2305,49.5801,0,.1406-.0596.2744-.1631.3691-.0928.0845-.2129.1309-.3369.1309Z"/>
        <path d="m407.2171,94.1823c-.0762,0-.1514-.0024-.2275-.0073l-13.4785-.8481c-.2744-.0171-.4824-.252-.4678-.5259.002-.0459.2412-4.6372-.3711-8.1816-.0254-.1514.0195-.3066.1221-.4204s.248-.1787.4062-.1631l6.3281.4517-14.5098-51.7134c-.0742-.2661.0801-.542.3467-.6167.2656-.0723.543.0806.6162.3462l14.7021,52.3979c.0439.1567.0088.3252-.0938.4512-.1035.1265-.2646.1938-.4229.1826l-6.4102-.4575c.4102,2.8584.3486,6.0674.3057,7.2817l12.9893.8174c.875.0522,1.6758-.3057,2.2148-.9888s.7021-1.5527.4463-2.3848l-20.54-66.9507c-.2119-.6904-.7637-1.1743-1.4756-1.2944-.71-.1201-1.3916.1558-1.8193.7393l-14.4844,19.7993c10.0967,17.8398,11.2031,41.7983,11.2139,42.0396.0059.1421-.0488.2798-.1504.3789s-.2402.1465-.3818.1411l-7.665-.5024c-.2617-.0171-.4658-.2334-.4678-.4956-.1074-16.687-6.2158-30.9692-7.7637-34.3218l-13.4922,18.2256c4.7412,6.5972,5.0518,14.7178,5.0635,15.0649.0039.1392-.0498.2739-.1484.3716s-.2158.1572-.373.144l-9.4941-.4038c-.1992-.0083-.375-.1348-.4463-.3218-.0703-.1865-.0234-.3975.1201-.5366l4.2129-4.0854c-.6709-1.7949-1.9434-3.9336-2.5693-4.939l-8.4072,10.2734c-.7471.9136-.916,2.1064-.4502,3.1919.4648,1.085,1.4463,1.7852,2.624,1.873l19.582,1.457c.3564-12.7163-3.9355-20.8823-3.9795-20.9644-.0947-.1768-.0752-.3931.0508-.5493l5.6543-7.0371c.1064-.1333.2734-.2041.4424-.1841.1689.0176.3174.1201.3936.272,5.9883,11.8623,5.2217,26.1958,4.9971,29.0503l13.1465,1.2026c.2744.0254.4775.2686.4521.5435-.0254.2754-.2686.4761-.5439.4526l-13.6426-1.248c-.1328-.0122-.2559-.0776-.3408-.1816-.085-.1035-.125-.2373-.1104-.3706.0176-.1567,1.6045-15.5254-4.5068-28.2983l-4.959,6.1729c.8037,1.6309,4.3838,9.6191,3.9287,21.6958-.0059.1353-.0654.2632-.167.3535-.1016.0913-.2344.1357-.3701.126l-20.1016-1.4956c-1.5566-.1157-2.8535-1.0415-3.4688-2.4761-.6162-1.4341-.3926-3.0117.5957-4.2197l8.8447-10.8081c.1006-.1226.2627-.187.4121-.1826.1592.0083.3047.0913.3916.2241.0928.1396,2.2676,3.4497,3.1533,6.0386.0635.1831.0146.3862-.125.521l-3.6094,3.5005,7.7764.3306c-.1582-1.9512-.9912-8.8105-5.0508-14.2607-.1309-.1768-.1318-.4189-.001-.5962l14.207-19.1904c.1045-.1392.2773-.2173.4443-.2007.1729.0146.3262.1177.4043.2725.0801.1592,7.9707,16.0024,8.2188,35.042l6.6387.4355c-.2324-3.7114-1.9482-25.1572-11.2109-41.3101-.0986-.1714-.0869-.3843.0303-.5439l14.6758-20.061c.6445-.8809,1.7148-1.3149,2.792-1.1343,1.0771.1816,1.9453.9434,2.2656,1.9873l20.54,66.9507c.3477,1.1338.1172,2.3662-.6172,3.2974-.6875.8706-1.7344,1.3745-2.835,1.3745Z"/>
        <path d="m405.5716,67.6432c-.1787,0-.3525-.0967-.4414-.2661-.1299-.2441-.0361-.5464.207-.6758l52.8027-27.96c.041-.0215.084-.0371.1279-.0469l9.0068-1.9585c.0781-.0161.1582-.0151.2344.0054l6.5088,1.7192.7725-1.7168-7.8223-2.5586c-.1953-.064-.332-.2407-.3438-.4458-.0117-.2056.1025-.397.2891-.4834l9.5537-4.4102-.4443-2.0483-9.0244,3.3281c-.1455.0542-.3105.0366-.4434-.0488-.1318-.085-.2168-.2271-.2285-.3838l-.0967-1.3081c-.0107-.1509.0469-.2993.1582-.4023l7.166-6.6714-1.3672-1.1963-9.5967,7.1973c-.0625.0474-.1367.0791-.2139.0928l-3.002.5225c-.1484.0278-.3057-.0176-.4189-.1201-.1143-.1016-.1758-.25-.166-.4028l.4941-8.1475-2.2129-.2769c-.8945,4.2002-2.1064,11.3354-2.1191,11.4097-.0225.1338-.0986.2524-.21.3291l-51.6172,35.3926c-.2285.1562-.5391.0991-.6953-.1299-.1562-.2275-.0986-.5391.1289-.6953l51.4434-35.2725c.2158-1.2642,1.3662-7.937,2.1885-11.6934.0547-.252.291-.4185.5508-.3892l3.1328.3916c.2617.0327.4521.2632.4365.5264l-.4844,7.9844,2.2607-.3936,9.8252-7.3682c.1885-.1421.4521-.1318.6289.0234l2.0889,1.8276c.1064.0933.1689.2271.1709.3687s-.0557.2773-.1592.3735l-7.3955,6.8857.0303.4067,8.9404-3.2974c.1348-.0488.2871-.0396.4131.0308.127.0698.2178.1909.248.3325l.6523,3.002c.0498.229-.0654.4619-.2783.5601l-8.7627,4.0449,7.1416,2.3359c.1348.0439.2451.1431.3018.2729.0576.1299.0576.2778-.001.4072l-1.1748,2.6108c-.0996.2227-.3428.3398-.584.2783l-6.8027-1.7969-8.8223,1.9185-52.7412,27.9277c-.0752.0396-.1553.0581-.2344.0581Z"/>
        <path d="m391.1117,106.923c-.0137,0-.0283-.0005-.043-.002l-4.5332-.3882c-.25-.0215-.4463-.2261-.457-.4775l-.5713-13.8252c-.0059-.144.0508-.2832.1553-.3828.1055-.0996.2471-.1479.3906-.1357l2.6348.2412c.2246.0205.4072.189.4463.4111l2.4697,13.9722c.0273.1528-.0186.3096-.123.4243-.0957.104-.2295.1626-.3691.1626Zm-4.0518-1.3486l3.4463.2949-2.29-12.9556-1.6855-.1543.5293,12.8149Z"/>
        <path d="m362.0833,104.4381c-.0146,0-.0283-.0005-.043-.002l-4.1748-.3574c-.1426-.0122-.2734-.0854-.3594-.2007-.085-.1157-.1172-.2622-.0859-.4028l2.8867-13.3921c.0498-.23.2539-.3945.4893-.3945h2.0869c.1377,0,.2695.0566.3633.1567.0947.1001.1436.2349.1357.3721l-.7998,13.7495c-.0078.1348-.0693.2607-.1719.3491-.0908.0791-.207.1221-.3271.1221Zm-3.5664-1.3071l3.0967.2651.7393-12.7075h-1.1533l-2.6826,12.4424Z"/>
        <path d="m355.8441,62.9562c-.1113,0-.2207-.0376-.3096-.1074l-43.8828-34.605-7.0967-1.4395-6.6934.8838c-.248.0288-.4756-.1182-.5449-.3535l-.626-2.1143c-.0391-.1318-.0225-.2739.0469-.3926.0684-.1187.1836-.2041.3164-.2358l6.7559-1.6084.3135-.8286-8.5996-2.8667c-.126-.0415-.2295-.1318-.2891-.2505s-.0693-.2559-.0273-.3818l.7051-2.1143c.082-.2441.3389-.3892.5859-.3291l9.0859,2.0771.0586-.1553-5.9385-6.2578c-.1875-.1978-.1826-.5093.0117-.7002l1.748-1.7231c.1836-.1816.4766-.1929.6729-.0259l7.7539,6.5498,2.1436.5981.4648-7.4253c.0088-.1401.0762-.27.1855-.3584.1084-.0879.251-.126.3896-.1045l3.2666.5024c.2246.0347.3975.2163.4209.4429.0156.1499.3799,3.6855.3799,5.0771,0,1.187.1914,4.5928.2402,5.4351l40.1904,40.1001c.1748.1753.1963.4521.0488.6514l-1.375,1.8574c-.0811.1089-.2021.1802-.3359.1982-.0225.0029-.0439.0044-.0664.0044Zm-51.2715-37.1587c.0332,0,.0664.0034.0996.0098l7.2949,1.48c.0762.0156.1484.0493.21.0977l43.5723,34.3594.8115-1.0962-40.0205-39.9302c-.0869-.0864-.1387-.2021-.1455-.3247-.0107-.1748-.2529-4.3022-.2529-5.6836,0-1.0791-.2402-3.6216-.3359-4.5903l-2.3428-.3608-.4688,7.4956c-.0098.1504-.0859.2886-.209.3765-.123.0874-.2773.1157-.4248.0737l-2.8438-.7935c-.0684-.019-.1328-.0532-.1875-.0996l-7.4883-6.3257-1.0742,1.0586,5.8174,6.1294c.1328.1392.1729.3418.1055.5215l-.3242.8564c-.0889.2334-.3389.3667-.5791.3101l-9.0684-2.0732-.4033,1.2095,8.6182,2.8735c.1289.043.2354.1367.293.2593.0586.123.0645.2642.0166.3916l-.5908,1.563c-.0586.1553-.1904.271-.3516.3096l-6.501,1.5479.3555,1.1982,6.3525-.8389c.0215-.0029.0439-.0044.0654-.0044Z"/>
        <path d="m450.6009,68.5001c-.0117,0-.0234-.0005-.0352-.0015-.2129-.0146-.3926-.1636-.4482-.3696l-2.2451-8.4004c-.04-.1509-.0078-.3125.0889-.436.0957-.1235.2256-.1826.4004-.1929l5.7939.0723c.167.002.3223.0874.4131.2271s.1064.3154.041.4688l-3.5488,8.3281c-.0791.1855-.2607.3042-.46.3042Zm-1.5918-8.3921l1.7002,6.3618,2.6875-6.3071-4.3877-.0547Z"/>
        <path d="m474.3548,61.4752c-.0713,0-.1426-.0151-.209-.0459-.1289-.0591-.2266-.1704-.2686-.3057l-1.666-5.3589c-.0771-.248.0488-.5137.2891-.6118l4.6348-1.8828c.1289-.0518.2715-.0488.3975.0093.126.0576.2217.165.2656.2959l1.7383,5.2144c.082.2466-.0381.5146-.2764.6172l-4.707,2.0273c-.0635.0273-.1309.041-.1982.041Zm-1.0518-5.5684l1.3643,4.3892,3.7754-1.6255-1.4248-4.2729-3.7148,1.5093Z"/>
        <path d="m512.3011,58.651c-.0049,0-.0107,0-.0156-.0005l-4.6348-.1445c-.1328-.0039-.2588-.061-.3496-.1582-.0908-.0977-.1396-.2271-.1348-.3599l.1953-5.1812-5.9131.9854c-.2617.0488-.5088-.123-.5684-.3779l-1.8555-7.832-7.2432.6831c-.1533.0186-.2998-.04-.4043-.1484-.1055-.1079-.1572-.2578-.1387-.4082l.5068-4.2729c.0283-.2402.2246-.4253.4658-.4399l9.5596-.5791c.2764-.0161.4717.1567.5205.4019l1.5059,7.5996,7.2314-.6138c.251-.0239.5059.1694.5381.436l1.2305,9.8486c.0186.145-.0283.2905-.127.3989-.0947.104-.2285.1631-.3691.1631Zm-4.1162-1.1284l3.5479.1104-1.0986-8.7915-7.1982.6108c-.2549.0303-.4834-.1514-.5322-.4009l-1.5078-7.6104-8.707.5273-.3848,3.2432,7.0605-.6655c.2402-.0303.4756.1396.5332.3823l1.8477,7.8008,6.0566-1.0093c.1484-.0229.2998.019.4121.1177.1133.0996.1748.2441.1699.394l-.1992,5.291Z"/>
        <path d="m505.0111,75.0924c-.4404,0-1.5527-.0806-2.2666-.8379-.4658-.4941-.6582-1.1548-.5713-1.9624h0c.1416-1.333,1.5225-2.4761,2.9775-2.4019,1.5176.0562,2.6924,1.5137,2.6543,2.6831-.0537,1.5884-.9453,2.4351-2.6494,2.5161-.0322.0015-.0811.0029-.1445.0029Zm.04-4.2041c-.96,0-1.8086.812-1.8838,1.5103h0c-.0547.5112.0449.894.3057,1.1704.4268.4526,1.2295.5371,1.6348.5215.9893-.0469,1.6562-.3286,1.6973-1.5508.0205-.6255-.7285-1.6143-1.6914-1.6504-.0205-.0005-.042-.001-.0625-.001Zm-2.3809,1.457h.0098-.0098Z"/>
        <path d="m501.0794,97.0441c-.0947,0-.1875-.0269-.2686-.0781-.1182-.0752-.1992-.1963-.2236-.334l-.9727-5.4448c-.0254-.1401.0107-.2837.0986-.396.0869-.1118.2188-.1812.3604-.1909l5.1045-.3403c.2432-.0103.4551.1401.5166.3701l1.167,4.375c.0342.1284.0156.2646-.0508.3794s-.1758.1987-.3037.2329l-5.2988,1.4102c-.043.0112-.0859.0166-.1289.0166Zm-.3818-5.4829l.7783,4.3599,4.29-1.1416-.9316-3.4941-4.1367.2759Z"/>
        <path d="m525.1439,53.631c-.1709,0-.3359-.0879-.4287-.2432l-3.1113-5.2017c-.0996-.1665-.0947-.3755.0137-.5361.1074-.1606.3018-.2466.4912-.2148l10.6953,1.6528c.2178.0337.3877.2056.4189.4233s-.084.4302-.2832.5234l-7.584,3.5488c-.0684.0322-.1406.0474-.2119.0474Zm-2.1357-5.0449l2.333,3.9004,5.6875-2.6611-8.0205-1.2393Z"/>
        <path d="m510.2669,30.8307c-.2461,0-.459-.1816-.4941-.4307l-.6318-4.521c-.0195-.1426.0225-.2866.1162-.3955.0938-.1094.2305-.1724.374-.1738l5.1045-.0488c.1162.0059.2598.0522.3555.145.0947.0928.1484.2212.1494.354.001.1616.1162,2.5161.1934,4.0596.0137.2651-.1826.4946-.4473.522l-4.667.4863c-.0176.002-.0352.0029-.0527.0029Zm-.0566-4.5264l.4863,3.479,3.7148-.3872c-.041-.8315-.1152-2.3403-.1504-3.1309l-4.0508.0391Z"/>
        <path d="m494.8568,22.3234c-.0537,0-.1074-.0083-.1592-.0259-.1611-.0542-.2832-.186-.3252-.3501l-2.7715-10.8413c-.0566-.2202.043-.4507.2412-.561.1982-.1113.4463-.0737.6035.0908l7.0986,7.3896c.0977.1011.1475.2388.1387.3794-.0098.1401-.0771.27-.1875.3579l-4.3271,3.4517c-.0898.0713-.2002.1089-.3115.1089Zm-1.8164-9.626l2.1094,8.2529,3.2939-2.6274-5.4033-5.6255Z"/>
        <path d="m413.3988,33.0861c-.0527,0-.1064-.0083-.1572-.0254-.1514-.0503-.2695-.1694-.3184-.3208l-2.0068-6.2109c-.0693-.2139.0127-.4473.2002-.5708l5.3516-3.5356c.1113-.0737.248-.0996.3789-.0723.1309.0278.2451.1064.3174.2192l3.249,5.0645c.1445.2246.0859.5229-.1318.6777l-6.5938,4.6821c-.085.0605-.1865.0923-.2891.0923Zm-1.4141-6.5034l1.6807,5.2012,5.6484-4.0112-2.7178-4.2368-4.6113,3.0469Z"/>
        <path d="m399.8294,18.0836c-.1855,0-.3564-.103-.4434-.2686-.0869-.167-.0732-.3696.0371-.5229l3.6318-5.0645c.0986-.1377.2646-.2212.4307-.208.1699.0083.3242.1025.4092.2495l2.8662,4.9692c.0879.1538.0889.3428.001.4971-.0869.1538-.25.2505-.4268.2529l-6.499.0952h-.0068Zm3.5859-4.6431l-2.6016,3.6284,4.6553-.0679-2.0537-3.5605Z"/>
        <path d="m238.18,39.5607c-.9316,0-1.8438-.4043-2.3926-1.063-.6279-.7534-.8975-1.7769-.7041-2.6704.1318-.6084.5322-1.4512,1.6943-2.0117h0c1.3945-.6714,2.8076.0054,3.5918.9712.9229,1.1357.9883,2.5571.1689,3.6221-.5586.7246-1.375,1.1333-2.2979,1.1509-.0205.0005-.04.001-.0605.001Zm-.2451-5.0117c-.2383,0-.4814.0508-.7217.167h-.001c-.6406.3096-1.0293.7549-1.1523,1.3228-.1289.5996.0605,1.2964.4951,1.8184.3662.439,1.0059.7012,1.667.7031.4336-.0083,1.0498-.1475,1.5234-.7617.6396-.8301.3408-1.7744-.1523-2.3813-.3936-.4844-1.0059-.8682-1.6582-.8682Zm-.9395-.2832h.0098-.0098Z"/>
        <path d="m262.4867,50.6276c-.1885,0-.3643-.1069-.4492-.2812l-1.6611-3.4116c-.0684-.1387-.0674-.3013.001-.4395.0684-.1387.1963-.2378.3477-.269l9.4492-1.9419.3418-7.5562c.0059-.146.0762-.2812.1904-.3711.1152-.0908.2617-.1245.4062-.0967l7.8555,1.5713c.1709.0342.3115.1538.3711.3169l1.2119,3.2769c.0625.1689.0293.3584-.0869.4956-.1162.1377-.2979.2031-.4736.1689l-5.9023-1.1064-.375,7.1504c-.0117.23-.1797.4224-.4062.4648l-10.7275,2.02c-.0312.0059-.0625.0088-.0928.0088Zm-.9297-3.5513l1.2119,2.4893,9.9668-1.8765.3838-7.3286c.0068-.1436.0762-.2773.1895-.3667.1133-.0889.2598-.1255.4014-.0981l5.5967,1.0493-.8086-2.1875-7.0098-1.4023-.334,7.3633c-.0098.229-.1738.4214-.3984.4673l-9.1992,1.8906Z"/>
        <path d="m312.2679,63.5109c-.0723,0-.1445-.0156-.2119-.0469-.1426-.0669-.2461-.1978-.2773-.3521l-1.0654-5.1606-4.6221,1.0142c-.1416.0312-.2852,0-.4023-.0845-.1152-.0845-.1895-.2144-.2031-.3569-.2334-2.481-.6279-6.3696-.8232-7.6108-.5898.1021-1.75.3149-2.8057.5137-.1445.0269-.292-.0103-.4062-.1016-.1143-.0918-.1816-.229-.1865-.375l-.2246-7.6758c-.0078-.2627.1895-.4868.4512-.5122l3.2324-.3145c.1533-.0146.2871.0352.3926.1343.1055.0996.1621.2397.1562.3843l-.1553,3.6841,2.3398-.252c.1348-.0142.2686.0259.3721.1113.1035.0859.1689.2095.1797.3438l.6318,7.4961,5.3857-.4111c.2471-.021.4814.1558.5293.4058l1.3018,6.9126c.04.2144-.0625.4302-.2549.5332l-3.0977,1.6611c-.0732.0396-.1553.0596-.2363.0596Zm-1.167-6.6562c.0957,0,.1904.0273.2725.0806.1123.0728.1904.1875.2168.3184l1.0322,5,2.1836-1.1714-1.1504-6.1123-5.4346.4146c-.2549.0195-.5127-.1821-.5361-.4565l-.6299-7.4805-2.4092.2598c-.1455.0151-.29-.0327-.3955-.1323-.1064-.0996-.1641-.2402-.1582-.3857l.1562-3.6904-2.1953.2139.1934,6.624c2.5898-.4844,2.7422-.4844,2.7939-.4844.5742,0,.6328-.0005,1.3887,8.0156l4.5645-1.0015c.0361-.0078.0713-.0117.1074-.0117Z"/>
        <path d="m289.4642,44.6574c-.0283,0-.0576-.0024-.0869-.0073-.2148-.0381-.3809-.2119-.4092-.4287l-1.3916-10.8179c-.0225-.1729.0469-.3447.1826-.4536.1348-.1084.3184-.1392.4824-.0811l5.8809,2.1094c.1357.0488.2432.1533.2959.2876.0527.1338.0459.2842-.0205.4121l-4.4893,8.7085c-.0869.1685-.2598.271-.4443.271Zm-.791-10.5713l1.082,8.4155,3.4922-6.7749-4.5742-1.6406Z"/>
        <path d="m328.4476,18.422c-.0303,0-.0596-.0005-.0898-.001-1.1406-.0327-2.5195-.708-2.6523-2.5034h0c-.083-1.1289.3848-1.7935.791-2.1523.625-.5498,1.5518-.7681,2.4746-.582,1.5068.3037,2.334,1.6138,2.1064,3.3379-.165,1.248-1.4609,1.9009-2.6299,1.9009Zm-1.7441-2.5776c.1045,1.4214,1.3145,1.5664,1.6836,1.5767.7676.0361,1.6104-.3579,1.6982-1.0308.0762-.5747.1006-1.9424-1.3115-2.2266-.6133-.125-1.2305.0117-1.6152.3516-.3447.3037-.498.751-.4551,1.3291h0Z"/>
        <path d="m336.9642,25.6691c-.0928,0-.1855-.0254-.2686-.0781l-3.0752-1.958c-.1338-.085-.2188-.2285-.2305-.3862-.0107-.1577.0527-.312.1729-.415l4.9668-4.2666c.1777-.1509.4346-.1602.6221-.0239l1.7705,1.2988,2.6982-3.9487c.1328-.1934.3818-.2681.5986-.1821l1.7607.7041,1.8359-3.6719c.0615-.123.1709-.2153.3027-.2549.1289-.0391.2734-.0239.3926.0444l2.9775,1.7021c.1162.0664.2002.1758.2354.3047.0342.1284.0156.2656-.0518.3809l-3.4834,5.981c-.0664.1147-.1758.1982-.3037.2319-.127.0342-.2646.0161-.3799-.0513l-2.2148-1.292-3.167,4.8521c-.084.1284-.2217.2109-.375.2246-.1465.0151-.3027-.0444-.4082-.1553l-1.9219-2.0415-2.0508,2.7969c-.0977.1328-.249.2041-.4033.2041Zm-2.2383-2.5181l2.1123,1.3447,2.1289-2.9038c.0879-.1196.2246-.1938.373-.2031.1426-.0054.293.0483.3945.1562l1.8984,2.0166,3.0791-4.7183c.1455-.2241.4404-.2925.6709-.1587l2.1934,1.2793,2.9785-5.1128-2.0811-1.1899-1.8057,3.6108c-.1162.2324-.3936.3364-.6328.2407l-1.8154-.7261-2.7637,4.0444c-.0771.1118-.1953.188-.3291.2104-.1279.0249-.2695-.0088-.3799-.0894l-1.8672-1.3696-4.1543,3.5684Z"/>
        <path d="m242.598,25.7086c-.1904,0-.3711-.1099-.4551-.2925l-1.3271-2.9087c-.1113-.2437-.0107-.5312.2285-.6528l5.4092-2.7559c.123-.063.2676-.0718.3984-.0244.1299.0474.2344.1475.2891.2749l1.5312,3.623c.0527.1265.0518.269-.0029.3945s-.1582.2231-.2871.27l-5.6133,2.0415c-.0566.0205-.1143.0303-.1709.0303Zm-.6738-3.1807l.9365,2.0527,4.6855-1.7036-1.1182-2.6436-4.5039,2.2944Z"/>
        <path d="m259.0804,17.9747c-.041,0-.082-.0049-.1221-.0151-.1982-.0498-.3457-.2148-.373-.4175l-1.3779-10.1035c-.0264-.1914.0605-.3813.2227-.4868.1631-.105.3721-.1079.5352-.0059l6.0215,3.7251c.1191.0732.2012.1924.2275.3291.0273.1362-.0039.2778-.0859.3906l-4.6436,6.3784c-.0957.1309-.2471.2056-.4043.2056Zm-.7393-9.6206l1.0664,7.8213,3.5947-4.9375-4.6611-2.8838Z"/>
        <path d="m287.5042,15.6046c-.1045,0-.209-.0332-.2949-.0967l-4.9502-3.6235c-.1514-.1108-.2285-.2969-.1992-.4819.0303-.1855.1611-.3384.3389-.397l7.1953-2.3472c.1387-.0435.2881-.0278.4131.0469.124.0747.21.1997.2344.3423l.8682,4.9497c.043.2446-.1006.4839-.3359.5615l-3.1133,1.021c-.0518.0166-.1035.0249-.1562.0249Zm-3.8672-3.9507l3.9551,2.8955,2.458-.8062-.6934-3.9551-5.7197,1.8657Z"/>
        <path d="m274.0833,24.6369c-.1504,0-.2939-.0679-.3887-.186l-5.9707-7.3994c-.1455-.1802-.1484-.436-.0068-.6191.1406-.1836.3887-.2461.6006-.1509l8.0625,3.623c.127.0571.2256.1655.2695.2983.0439.1323.0303.2778-.0371.3999l-2.0918,3.7764c-.0811.1455-.2285.2417-.3945.2559-.0146.0015-.0283.002-.043.002Zm-4.2686-6.5864l4.1914,5.1943,1.4678-2.6509-5.6592-2.5435Z"/>
        <path d="m264.5921,32.1891c-.0059,0-.0117,0-.0186-.0005l-5.5117-.2041c-.2627-.0098-.4736-.2217-.4814-.4844l-.1016-3.3677c-.0078-.2749.207-.5054.4824-.5146l5.8174-.2041c.1328-.0127.2764.0488.374.1494.0986.1001.1504.2368.1426.377l-.2041,3.7759c-.0137.2661-.2344.4731-.499.4731Zm-5.0264-1.1865l4.5537.1685.1484-2.7388-4.7744.1675.0723,2.4028Z"/>
        <path d="m464.4857,81.7819c-.1016,0-.2021-.0312-.2871-.0903l-2.5391-1.7773c-.2246-.1577-.2803-.4683-.124-.6943l3.2148-4.6436-1.4141-1.7397c-.1367-.1685-.1494-.4058-.0322-.5874l2.877-4.4341-3.3916-5.5728c-.1201-.1968-.0898-.4502.0732-.6133l2.1592-2.1582c.1074-.1069.2568-.1636.4072-.1436.1504.0161.2861.1001.3672.2275l5.2051,8.126c.1084.1689.1055.3867-.0088.5522l-2.8613,4.1738,1.0957,1.7534c.1016.1626.1016.3691-.001.5317l-4.3174,6.8564c-.0723.1157-.1895.1963-.3242.2236-.0322.0063-.0654.0098-.0986.0098Zm-1.8447-2.4019l1.7012,1.1914,3.8711-6.147-1.1035-1.7651c-.1055-.1689-.1006-.3838.0117-.5479l2.8594-4.1704-4.6914-7.3237-1.4414,1.4409,3.3506,5.5054c.1006.1641.0977.3706-.0068.5317l-2.8506,4.3926,1.4219,1.749c.1406.1729.1504.417.0234.6001l-3.1455,4.543Z"/>
        <path d="m369.6205,87.1315c-.0098,0-.0205-.0005-.0312-.001l-6.7373-.4248c-.2754-.0176-.4854-.2549-.4678-.5303.0176-.2764.2637-.4766.5303-.4678l6.7373.4248c.2754.0176.4854.2549.4678.5303-.0166.2651-.2363.4688-.499.4688Z"/>
        <path d="m393.5355,88.6403c-.0107,0-.0215-.0005-.0322-.001l-4.9863-.3149c-.2754-.0176-.4854-.2549-.4678-.5308.0166-.2754.2598-.4849.5303-.4673l4.9863.3149c.2754.0176.4854.2549.4678.5308-.0166.2646-.2363.4683-.498.4683Z"/>
        <path d="m471.558,141.3244c-.2334,0-.4424-.165-.4893-.4028-.0537-.271.1221-.5342.3936-.5879l5.9297-1.1724,6.1602-44.8418-73.5381-4.6387c-.2754-.0176-.4854-.2549-.4678-.5303.0176-.2749.2344-.481.5303-.4678l74.0752,4.6724c.1387.0088.2676.0747.3555.1826.0879.1074.1279.2466.1084.3843l-6.2812,45.7285c-.0293.2114-.1885.3813-.3984.4229l-6.2803,1.2417c-.0322.0063-.0654.0093-.0977.0093Z"/>
        <path d="m413.015,152.8966c-.0146,0-.0293-.0005-.0439-.002l-87.1338-7.7397c-.2754-.0244-.4785-.2671-.4541-.5425.0254-.2759.2832-.48.542-.4536l87.0635,7.7334,49.1309-9.7119c.2637-.0503.5342.123.5869.3936.0537.271-.1221.5342-.3936.5879l-49.2012,9.7256c-.0312.0063-.0645.0093-.0967.0093Z"/>
        <path d="m316.1634,144.2936c-.0156,0-.0303-.0005-.0449-.002l-45.335-4.0269c-.2754-.0244-.4785-.2671-.4541-.5425.0244-.2759.2773-.4854.542-.4536l45.335,4.0269c.2754.0244.4785.2671.4541.5425-.0234.2598-.2412.4556-.4971.4556Z"/>
        <path d="m184.8861,138.9972c-.0137,0-.0273-.0005-.041-.0015l-14.7764-1.1738c-.2744-.022-.4805-.2627-.458-.5381.0215-.2754.2715-.4746.5381-.459l14.7764,1.1738c.2744.022.4805.2627.458.5381-.0205.2617-.2393.4604-.4971.4604Z"/>
        <path d="m268.5023,145.6398c-.0127,0-.0264-.0005-.04-.0015l-52.7236-4.1885c-.2744-.022-.4805-.2627-.458-.5381.0215-.2754.2695-.4761.5381-.459l52.3672,4.1602,30.8682-71.3345-7.6572-5.187-145.1865-3.5273c-.2764-.0068-.4951-.2358-.4883-.5122.0078-.2759.2402-.4756.5117-.4878l145.334,3.5312c.0967.0024.1895.0322.2686.0859l8.1211,5.5015c.1992.1348.2744.3921.1787.6128l-31.1748,72.043c-.0801.1836-.2607.3013-.459.3013Z"/>
        <path d="m134.1351,134.9655c-.0557,0-.1123-.0093-.168-.0288l-14.1729-5.0444c-.1279-.0459-.2324-.1416-.2881-.2656s-.0586-.2656-.0078-.3921l24.8408-61.8257c.1025-.2563.3926-.3794.6504-.2773.2559.103.3809.394.2773.6504l-24.6465,61.3428,13.6826,4.8696c.2598.0928.3955.3789.3027.6387-.0723.2051-.2656.3325-.4707.3325Z"/>
        <path d="m118.6898,135.6242c-.2344,0-.4434-.166-.4902-.4053-.0518-.271.125-.5332.3965-.5854,4.0742-.7866,13.5898-1.1929,13.9932-1.21.2471-.0356.5078.2031.5205.4785.0107.2759-.2031.5088-.4795.5205-.0977.0044-9.8428.4199-13.8447,1.1924-.0322.0063-.0635.0093-.0957.0093Z"/>
        <g>
          <path d="m161.8078,103.6119c-.4771.2916-1.0867,1.0006-1.7377,1.9234l3.0395-.2699-1.3017-1.6535Z"/>
          <path d="m160.0697,106.0353c-.1777,0-.3438-.0947-.4336-.2505-.0967-.1689-.0869-.3789.0254-.5376.7598-1.0767,1.376-1.751,1.8857-2.062.2148-.1313.4961-.0825.6533.1177l1.3018,1.6533c.1143.144.1396.3389.0664.5073-.0723.1685-.2324.2837-.415.2998l-3.04.27c-.0146.0015-.0293.002-.0439.002Zm1.6533-1.7236c-.1553.145-.3457.3462-.5752.626l.998-.0889-.4229-.5371Z"/>
        </g>
        <g>
          <path d="m195.4183,106.4747s.9824.6749,2.1761,1.622h-3.6215l1.4455-1.622Z"/>
          <path d="m197.5941,108.5968h-3.6211c-.1973,0-.376-.1157-.4561-.2954-.0811-.1797-.0479-.3901.083-.5371l1.4453-1.6221c.167-.1895.4502-.2212.6562-.0796.041.0278,1.0107.6953,2.2031,1.6426.167.1323.2314.3555.1611.5562-.0693.2007-.2588.3354-.4717.3354Zm-2.5059-1h1.0322c-.2471-.1841-.4609-.3389-.626-.4565l-.4062.4565Z"/>
        </g>
        <g>
          <path d="m169.2298,131.709c-.3609.3039-1.0995.7371-2.0688,1.2435l.4388-2.153,1.6301.9094Z"/>
          <path d="m167.1605,133.4523c-.1064,0-.2119-.0342-.3008-.1006-.1543-.1162-.2275-.3105-.1895-.4995l.4395-2.1528c.0322-.1562.1367-.2876.2812-.3545.1445-.0659.3125-.0605.4531.0181l1.6299.9097c.1426.0801.2383.2256.2539.3892s-.0508.3242-.1768.4302c-.3711.3125-1.0781.7388-2.1592,1.3037-.0732.0381-.1523.0566-.2314.0566Zm.793-1.8833l-.0889.4321c.1611-.0913.2998-.1733.4199-.2471l-.3311-.1851Z"/>
        </g>
        <path d="m197.9632,141.8576c-.0947,0-.1904-.0269-.2754-.083l-11.875-7.8462c-.2305-.1519-.2939-.4624-.1416-.6924.1514-.2319.4609-.2949.6924-.1416l11.875,7.8462c.2305.1519.2939.4624.1416.6929-.0957.1455-.2549.2241-.417.2241Z"/>
        <path d="m186.8998,134.5485c-.2588,0-.4775-.1997-.498-.4619-.0205-.2754.1855-.5156.4609-.5366l4.2764-.3252c.2725-.0234.5156.1855.5371.4604.0205.2754-.1855.5156-.4609.5366l-4.2764.3252c-.0127.001-.0264.0015-.0391.0015Z"/>
        <g>
          <path d="m184.0148,120.9178c-1.059,1.3982-1.7438,2.3091-1.7438,2.3091-.1124-.8654-.2844-1.7927-.5045-2.7603l2.2483.4512Z"/>
          <path d="m182.2708,123.7267c-.042,0-.085-.0054-.1279-.0166-.1963-.0518-.3418-.2173-.3682-.4189-.1064-.8223-.2734-1.7354-.4951-2.7139-.0381-.1655.0107-.3384.1289-.46.1201-.1216.292-.1719.457-.1411l2.248.4512c.1689.0337.3076.1523.3691.313.0605.1611.0352.3418-.0693.479-1.0586,1.3975-1.7422,2.3076-1.7432,2.3076-.0957.1279-.2451.1997-.3994.1997Zm.1465-2.6196c.0605.2979.1162.5894.167.873.1611-.2129.3457-.4575.5508-.729l-.7178-.144Z"/>
        </g>
        <g>
          <path d="m337.8883,129.2194l-1.2646,1.1224,2.4013.2946c-.4111-.8242-.8194-1.417-1.1367-1.417Z"/>
          <path d="m339.0248,131.1364c-.0205,0-.04-.001-.0605-.0039l-2.4014-.2944c-.1953-.0239-.3584-.1597-.417-.3472-.0586-.188-.001-.3926.1455-.5229l1.2646-1.1226c.0918-.0811.21-.126.332-.126.5254,0,.9844.4907,1.584,1.6938.082.1646.0674.3613-.0391.5117-.0938.1333-.2471.2114-.4082.2114Zm-1.2412-1.1558l.3105.0381c-.0566-.0811-.1045-.1411-.1436-.1865l-.167.1484Z"/>
        </g>
        <g>
          <path d="m453.633,130.8542c-.3109.1243-1.0207.5413-1.9196,1.1243l4.3378-.4665c-1.0633-.519-2.0157-.8188-2.4182-.6578"/>
          <path d="m451.7132,132.4787c-.21,0-.3994-.1318-.4707-.3325-.0781-.2183.0049-.4609.1992-.5869.5508-.3574,1.5439-.9839,2.0049-1.1689l.001-.0005c.5283-.2109,1.4775.0166,2.8232.6729.2002.0977.3115.3159.2725.5356-.0381.2192-.2168.3867-.4385.4106l-4.3379.4668c-.0186.002-.0361.0029-.0537.0029Z"/>
        </g>
        <g>
          <polygon points="362.8828 90.1888 360.7958 90.1888 360.5613 91.2767 362.8074 91.4871 362.8828 90.1888"/>
          <path d="m362.807,91.987c-.0156,0-.0312-.0005-.0469-.002l-2.2461-.2104c-.1426-.0137-.2725-.0874-.3564-.2026-.085-.1152-.1152-.2612-.085-.4014l.2354-1.0879c.0498-.23.2529-.394.4883-.394h2.0869c.1377,0,.2695.0566.3633.1567.0947.1006.1436.2349.1357.3726l-.0762,1.2983c-.0078.1353-.0703.2617-.1738.3501-.0908.0781-.2061.1206-.3252.1206Zm-1.6387-1.1558l1.1699.1099.0146-.2524h-1.1533l-.0312.1426Z"/>
        </g>
        <g>
          <polygon points="386.0071 92.2095 388.642 92.4506 388.89 93.854 386.068 93.6822 386.0071 92.2095"/>
          <path d="m388.89,94.3541c-.0098,0-.0205-.0005-.0303-.001l-2.8223-.1719c-.2559-.0156-.459-.2222-.4697-.4785l-.0605-1.4727c-.0059-.144.0508-.2837.1553-.3828.1045-.0986.2373-.1475.3906-.1357l2.6348.2412c.2246.0205.4072.189.4463.4111l.248,1.4033c.0264.1509-.0176.3057-.1191.4199-.0947.1064-.2314.167-.373.167Zm-2.3408-1.1436l1.7383.106-.0713-.4028-1.6855-.1543.0186.4512Z"/>
        </g>
        <g>
          <polygon points="355.8442 62.4563 357.2192 60.599 356.604 59.9851 355.0571 61.8356 355.8442 62.4563"/>
          <path d="m355.8441,62.9562c-.1113,0-.2207-.0376-.3096-.1074l-.7871-.6206c-.1064-.0835-.1738-.2065-.1875-.3408-.0146-.1343.0264-.2686.1133-.3726l1.5469-1.8506c.0898-.1074.2207-.1724.3613-.1787.1377-.0059.2754.0464.376.1455l.6152.6138c.1748.1753.1963.4521.0488.6514l-1.375,1.8574c-.0811.1089-.2021.1802-.3359.1982-.0225.0029-.0439.0044-.0664.0044Z"/>
        </g>
      </g>
    </g>
  </g>
</svg>
