<svg width="793" height="361" viewBox="0 0 793 361" fill="none" xmlns="http://www.w3.org/2000/svg">
<g clip-path="url(#clip0_1586_673)">
<rect width="793" height="361" fill="white"/>
<rect x="5.5" y="5.5" width="782" height="350" rx="3.5" fill="white" stroke="#E0DCE5"/>
<path d="M31.616 50.66C30.72 50.66 29.9467 50.5 29.296 50.18C28.656 49.86 28.16 49.3747 27.808 48.724C27.4667 48.0627 27.296 47.2147 27.296 46.18V39.684C27.296 39.5667 27.328 39.476 27.392 39.412C27.456 39.3373 27.5467 39.3 27.664 39.3H28.48C28.5973 39.3 28.688 39.3373 28.752 39.412C28.8267 39.476 28.864 39.5667 28.864 39.684V46.212C28.864 47.2573 29.1093 48.0307 29.6 48.532C30.0907 49.0333 30.7627 49.284 31.616 49.284C32.4587 49.284 33.1253 49.0333 33.616 48.532C34.1173 48.0307 34.368 47.2573 34.368 46.212V39.684C34.368 39.5667 34.4 39.476 34.464 39.412C34.5387 39.3373 34.6293 39.3 34.736 39.3H35.568C35.6747 39.3 35.76 39.3373 35.824 39.412C35.8987 39.476 35.936 39.5667 35.936 39.684V46.18C35.936 47.2147 35.76 48.0627 35.408 48.724C35.0667 49.3747 34.576 49.86 33.936 50.18C33.296 50.5 32.5227 50.66 31.616 50.66ZM38.9788 50.5C38.8614 50.5 38.7708 50.468 38.7068 50.404C38.6428 50.3293 38.6108 50.2387 38.6108 50.132V39.684C38.6108 39.5667 38.6428 39.476 38.7068 39.412C38.7708 39.3373 38.8614 39.3 38.9788 39.3H42.8828C44.0881 39.3 45.0428 39.5827 45.7468 40.148C46.4508 40.7133 46.8028 41.5507 46.8028 42.66C46.8028 43.4813 46.5948 44.1533 46.1788 44.676C45.7734 45.188 45.2188 45.5453 44.5148 45.748L46.9788 50.004C47.0108 50.068 47.0268 50.1267 47.0268 50.18C47.0268 50.2653 46.9894 50.34 46.9148 50.404C46.8508 50.468 46.7761 50.5 46.6908 50.5H45.9228C45.7414 50.5 45.6081 50.452 45.5228 50.356C45.4374 50.26 45.3628 50.164 45.2987 50.068L42.9788 46.004H40.1788V50.132C40.1788 50.2387 40.1414 50.3293 40.0668 50.404C40.0028 50.468 39.9121 50.5 39.7948 50.5H38.9788ZM40.1788 44.644H42.8188C43.6188 44.644 44.2161 44.4787 44.6108 44.148C45.0054 43.8067 45.2028 43.3053 45.2028 42.644C45.2028 41.9933 45.0054 41.4973 44.6108 41.156C44.2268 40.8147 43.6294 40.644 42.8188 40.644H40.1788V44.644ZM49.4631 50.5C49.3458 50.5 49.2551 50.468 49.1911 50.404C49.1271 50.3293 49.0951 50.2387 49.0951 50.132V39.668C49.0951 39.5613 49.1271 39.476 49.1911 39.412C49.2551 39.3373 49.3458 39.3 49.4631 39.3H50.3111C50.4178 39.3 50.5031 39.3373 50.5671 39.412C50.6311 39.476 50.6631 39.5613 50.6631 39.668V49.108H55.9911C56.1085 49.108 56.1991 49.1453 56.2631 49.22C56.3271 49.284 56.3591 49.3747 56.3591 49.492V50.132C56.3591 50.2387 56.3271 50.3293 56.2631 50.404C56.1991 50.468 56.1085 50.5 55.9911 50.5H49.4631Z" fill="#2B2233"/>
<g filter="url(#filter0_i_1586_673)">
<rect x="138" y="25" width="631" height="40" rx="6" fill="white"/>
<rect x="138.5" y="25.5" width="630" height="39" rx="5.5" stroke="#E0DCE5"/>
<path d="M157.682 50C157.589 50 157.509 49.972 157.444 49.916C157.388 49.8507 157.36 49.7713 157.36 49.678V41.446H154.672C154.579 41.446 154.499 41.418 154.434 41.362C154.378 41.2967 154.35 41.2173 154.35 41.124V40.536C154.35 40.4333 154.378 40.354 154.434 40.298C154.499 40.2327 154.579 40.2 154.672 40.2H161.42C161.523 40.2 161.602 40.2327 161.658 40.298C161.723 40.354 161.756 40.4333 161.756 40.536V41.124C161.756 41.2173 161.723 41.2967 161.658 41.362C161.602 41.418 161.523 41.446 161.42 41.446H158.746V49.678C158.746 49.7713 158.713 49.8507 158.648 49.916C158.592 49.972 158.513 50 158.41 50H157.682ZM163.192 50C163.099 50 163.02 49.972 162.954 49.916C162.898 49.8507 162.87 49.7713 162.87 49.678V40.382C162.87 40.2887 162.898 40.214 162.954 40.158C163.02 40.0927 163.099 40.06 163.192 40.06H163.892C163.995 40.06 164.074 40.0927 164.13 40.158C164.186 40.214 164.214 40.2887 164.214 40.382V43.644C164.466 43.3267 164.774 43.07 165.138 42.874C165.502 42.678 165.964 42.58 166.524 42.58C167.131 42.58 167.644 42.7153 168.064 42.986C168.494 43.2473 168.816 43.616 169.03 44.092C169.254 44.5587 169.366 45.1047 169.366 45.73V49.678C169.366 49.7713 169.338 49.8507 169.282 49.916C169.226 49.972 169.147 50 169.044 50H168.344C168.251 50 168.172 49.972 168.106 49.916C168.05 49.8507 168.022 49.7713 168.022 49.678V45.8C168.022 45.1467 167.864 44.638 167.546 44.274C167.229 43.9007 166.762 43.714 166.146 43.714C165.568 43.714 165.101 43.9007 164.746 44.274C164.392 44.638 164.214 45.1467 164.214 45.8V49.678C164.214 49.7713 164.186 49.8507 164.13 49.916C164.074 49.972 163.995 50 163.892 50H163.192ZM174.286 50.14C173.324 50.14 172.559 49.846 171.99 49.258C171.42 48.6607 171.108 47.8487 171.052 46.822C171.042 46.7007 171.038 46.5467 171.038 46.36C171.038 46.164 171.042 46.0053 171.052 45.884C171.089 45.2213 171.243 44.6427 171.514 44.148C171.784 43.644 172.153 43.2567 172.62 42.986C173.096 42.7153 173.651 42.58 174.286 42.58C174.995 42.58 175.588 42.7293 176.064 43.028C176.549 43.3267 176.918 43.7513 177.17 44.302C177.422 44.8527 177.548 45.4967 177.548 46.234V46.472C177.548 46.5747 177.515 46.654 177.45 46.71C177.394 46.766 177.319 46.794 177.226 46.794H172.382C172.382 46.8033 172.382 46.822 172.382 46.85C172.382 46.878 172.382 46.9013 172.382 46.92C172.4 47.3027 172.484 47.662 172.634 47.998C172.783 48.3247 172.998 48.5907 173.278 48.796C173.558 49.0013 173.894 49.104 174.286 49.104C174.622 49.104 174.902 49.0527 175.126 48.95C175.35 48.8473 175.532 48.7353 175.672 48.614C175.812 48.4833 175.905 48.3853 175.952 48.32C176.036 48.1987 176.101 48.1287 176.148 48.11C176.194 48.082 176.269 48.068 176.372 48.068H177.044C177.137 48.068 177.212 48.096 177.268 48.152C177.333 48.1987 177.361 48.2687 177.352 48.362C177.342 48.502 177.268 48.6747 177.128 48.88C176.988 49.076 176.787 49.272 176.526 49.468C176.264 49.664 175.947 49.8273 175.574 49.958C175.2 50.0793 174.771 50.14 174.286 50.14ZM172.382 45.828H176.218V45.786C176.218 45.366 176.138 44.9927 175.98 44.666C175.83 44.3393 175.611 44.0827 175.322 43.896C175.032 43.7 174.687 43.602 174.286 43.602C173.884 43.602 173.539 43.7 173.25 43.896C172.97 44.0827 172.755 44.3393 172.606 44.666C172.456 44.9927 172.382 45.366 172.382 45.786V45.828ZM186.531 50.14C185.747 50.14 185.071 50 184.501 49.72C183.941 49.44 183.507 49.0153 183.199 48.446C182.901 47.8673 182.751 47.1253 182.751 46.22V40.536C182.751 40.4333 182.779 40.354 182.835 40.298C182.891 40.2327 182.971 40.2 183.073 40.2H183.787C183.89 40.2 183.969 40.2327 184.025 40.298C184.091 40.354 184.123 40.4333 184.123 40.536V46.248C184.123 47.1627 184.338 47.8393 184.767 48.278C185.197 48.7167 185.785 48.936 186.531 48.936C187.269 48.936 187.852 48.7167 188.281 48.278C188.72 47.8393 188.939 47.1627 188.939 46.248V40.536C188.939 40.4333 188.967 40.354 189.023 40.298C189.089 40.2327 189.168 40.2 189.261 40.2H189.989C190.083 40.2 190.157 40.2327 190.213 40.298C190.279 40.354 190.311 40.4333 190.311 40.536V46.22C190.311 47.1253 190.157 47.8673 189.849 48.446C189.551 49.0153 189.121 49.44 188.561 49.72C188.001 50 187.325 50.14 186.531 50.14ZM192.974 50C192.871 50 192.792 49.972 192.736 49.916C192.68 49.8507 192.652 49.7713 192.652 49.678V40.536C192.652 40.4333 192.68 40.354 192.736 40.298C192.792 40.2327 192.871 40.2 192.974 40.2H196.39C197.444 40.2 198.28 40.4473 198.896 40.942C199.512 41.4367 199.82 42.1693 199.82 43.14C199.82 43.8587 199.638 44.4467 199.274 44.904C198.919 45.352 198.434 45.6647 197.818 45.842L199.974 49.566C200.002 49.622 200.016 49.6733 200.016 49.72C200.016 49.7947 199.983 49.86 199.918 49.916C199.862 49.972 199.796 50 199.722 50H199.05C198.891 50 198.774 49.958 198.7 49.874C198.625 49.79 198.56 49.706 198.504 49.622L196.474 46.066H194.024V49.678C194.024 49.7713 193.991 49.8507 193.926 49.916C193.87 49.972 193.79 50 193.688 50H192.974ZM194.024 44.876H196.334C197.034 44.876 197.556 44.7313 197.902 44.442C198.247 44.1433 198.42 43.7047 198.42 43.126C198.42 42.5567 198.247 42.1227 197.902 41.824C197.566 41.5253 197.043 41.376 196.334 41.376H194.024V44.876ZM202.147 50C202.045 50 201.965 49.972 201.909 49.916C201.853 49.8507 201.825 49.7713 201.825 49.678V40.522C201.825 40.4287 201.853 40.354 201.909 40.298C201.965 40.2327 202.045 40.2 202.147 40.2H202.889C202.983 40.2 203.057 40.2327 203.113 40.298C203.169 40.354 203.197 40.4287 203.197 40.522V48.782H207.859C207.962 48.782 208.041 48.8147 208.097 48.88C208.153 48.936 208.181 49.0153 208.181 49.118V49.678C208.181 49.7713 208.153 49.8507 208.097 49.916C208.041 49.972 207.962 50 207.859 50H202.147ZM215.136 50C214.613 50 214.188 49.902 213.862 49.706C213.535 49.5007 213.297 49.216 213.148 48.852C212.998 48.4787 212.924 48.04 212.924 47.536V43.84H211.832C211.738 43.84 211.659 43.812 211.594 43.756C211.538 43.6907 211.51 43.6113 211.51 43.518V43.042C211.51 42.9487 211.538 42.874 211.594 42.818C211.659 42.7527 211.738 42.72 211.832 42.72H212.924V40.382C212.924 40.2887 212.952 40.214 213.008 40.158C213.073 40.0927 213.152 40.06 213.246 40.06H213.904C213.997 40.06 214.072 40.0927 214.128 40.158C214.193 40.214 214.226 40.2887 214.226 40.382V42.72H215.962C216.055 42.72 216.13 42.7527 216.186 42.818C216.251 42.874 216.284 42.9487 216.284 43.042V43.518C216.284 43.6113 216.251 43.6907 216.186 43.756C216.13 43.812 216.055 43.84 215.962 43.84H214.226V47.438C214.226 47.8767 214.3 48.222 214.45 48.474C214.599 48.726 214.865 48.852 215.248 48.852H216.102C216.195 48.852 216.27 48.8847 216.326 48.95C216.391 49.006 216.424 49.0807 216.424 49.174V49.678C216.424 49.7713 216.391 49.8507 216.326 49.916C216.27 49.972 216.195 50 216.102 50H215.136ZM220.745 50.14C220.035 50.14 219.443 50.0047 218.967 49.734C218.491 49.4633 218.127 49.09 217.875 48.614C217.623 48.1287 217.483 47.578 217.455 46.962C217.445 46.8033 217.441 46.6027 217.441 46.36C217.441 46.108 217.445 45.9073 217.455 45.758C217.483 45.1327 217.623 44.582 217.875 44.106C218.136 43.63 218.505 43.2567 218.981 42.986C219.457 42.7153 220.045 42.58 220.745 42.58C221.445 42.58 222.033 42.7153 222.509 42.986C222.985 43.2567 223.349 43.63 223.601 44.106C223.862 44.582 224.007 45.1327 224.035 45.758C224.044 45.9073 224.049 46.108 224.049 46.36C224.049 46.6027 224.044 46.8033 224.035 46.962C224.007 47.578 223.867 48.1287 223.615 48.614C223.363 49.09 222.999 49.4633 222.523 49.734C222.047 50.0047 221.454 50.14 220.745 50.14ZM220.745 49.062C221.323 49.062 221.785 48.88 222.131 48.516C222.476 48.1427 222.663 47.6013 222.691 46.892C222.7 46.752 222.705 46.5747 222.705 46.36C222.705 46.1453 222.7 45.968 222.691 45.828C222.663 45.1187 222.476 44.582 222.131 44.218C221.785 43.8447 221.323 43.658 220.745 43.658C220.166 43.658 219.699 43.8447 219.345 44.218C218.999 44.582 218.817 45.1187 218.799 45.828C218.789 45.968 218.785 46.1453 218.785 46.36C218.785 46.5747 218.789 46.752 218.799 46.892C218.817 47.6013 218.999 48.1427 219.345 48.516C219.699 48.88 220.166 49.062 220.745 49.062ZM229.555 50C229.462 50 229.383 49.972 229.317 49.916C229.261 49.8507 229.233 49.7713 229.233 49.678V43.042C229.233 42.9487 229.261 42.874 229.317 42.818C229.383 42.7527 229.462 42.72 229.555 42.72H230.185C230.279 42.72 230.353 42.7527 230.409 42.818C230.475 42.874 230.507 42.9487 230.507 43.042V43.532C230.722 43.2427 230.993 43.014 231.319 42.846C231.646 42.6687 232.038 42.58 232.495 42.58C233.55 42.5707 234.297 43 234.735 43.868C234.95 43.476 235.263 43.1633 235.673 42.93C236.084 42.6967 236.551 42.58 237.073 42.58C237.559 42.58 237.997 42.692 238.389 42.916C238.791 43.14 239.103 43.4807 239.327 43.938C239.561 44.386 239.677 44.9507 239.677 45.632V49.678C239.677 49.7713 239.645 49.8507 239.579 49.916C239.523 49.972 239.449 50 239.355 50H238.697C238.604 50 238.525 49.972 238.459 49.916C238.403 49.8507 238.375 49.7713 238.375 49.678V45.758C238.375 45.2353 238.301 44.8247 238.151 44.526C238.002 44.2273 237.801 44.0173 237.549 43.896C237.297 43.7747 237.022 43.714 236.723 43.714C236.481 43.714 236.233 43.7747 235.981 43.896C235.729 44.0173 235.519 44.2273 235.351 44.526C235.193 44.8247 235.113 45.2353 235.113 45.758V49.678C235.113 49.7713 235.081 49.8507 235.015 49.916C234.959 49.972 234.885 50 234.791 50H234.133C234.04 50 233.961 49.972 233.895 49.916C233.839 49.8507 233.811 49.7713 233.811 49.678V45.758C233.811 45.2353 233.732 44.8247 233.573 44.526C233.415 44.2273 233.209 44.0173 232.957 43.896C232.705 43.7747 232.439 43.714 232.159 43.714C231.917 43.714 231.669 43.7747 231.417 43.896C231.165 44.0173 230.955 44.2273 230.787 44.526C230.629 44.8247 230.549 45.2307 230.549 45.744V49.678C230.549 49.7713 230.517 49.8507 230.451 49.916C230.395 49.972 230.321 50 230.227 50H229.555ZM244.657 50.14C243.947 50.14 243.355 50.0047 242.879 49.734C242.403 49.4633 242.039 49.09 241.787 48.614C241.535 48.1287 241.395 47.578 241.367 46.962C241.357 46.8033 241.353 46.6027 241.353 46.36C241.353 46.108 241.357 45.9073 241.367 45.758C241.395 45.1327 241.535 44.582 241.787 44.106C242.048 43.63 242.417 43.2567 242.893 42.986C243.369 42.7153 243.957 42.58 244.657 42.58C245.357 42.58 245.945 42.7153 246.421 42.986C246.897 43.2567 247.261 43.63 247.513 44.106C247.774 44.582 247.919 45.1327 247.947 45.758C247.956 45.9073 247.961 46.108 247.961 46.36C247.961 46.6027 247.956 46.8033 247.947 46.962C247.919 47.578 247.779 48.1287 247.527 48.614C247.275 49.09 246.911 49.4633 246.435 49.734C245.959 50.0047 245.366 50.14 244.657 50.14ZM244.657 49.062C245.235 49.062 245.697 48.88 246.043 48.516C246.388 48.1427 246.575 47.6013 246.603 46.892C246.612 46.752 246.617 46.5747 246.617 46.36C246.617 46.1453 246.612 45.968 246.603 45.828C246.575 45.1187 246.388 44.582 246.043 44.218C245.697 43.8447 245.235 43.658 244.657 43.658C244.078 43.658 243.611 43.8447 243.257 44.218C242.911 44.582 242.729 45.1187 242.711 45.828C242.701 45.968 242.697 46.1453 242.697 46.36C242.697 46.5747 242.701 46.752 242.711 46.892C242.729 47.6013 242.911 48.1427 243.257 48.516C243.611 48.88 244.078 49.062 244.657 49.062ZM250.036 50C249.942 50 249.863 49.972 249.798 49.916C249.742 49.8507 249.714 49.7713 249.714 49.678V43.042C249.714 42.9487 249.742 42.874 249.798 42.818C249.863 42.7527 249.942 42.72 250.036 42.72H250.694C250.787 42.72 250.862 42.7527 250.918 42.818C250.983 42.874 251.016 42.9487 251.016 43.042V43.658C251.258 43.3407 251.562 43.084 251.926 42.888C252.299 42.6827 252.775 42.58 253.354 42.58C253.96 42.58 254.474 42.7153 254.894 42.986C255.323 43.2473 255.645 43.616 255.86 44.092C256.074 44.5587 256.182 45.1047 256.182 45.73V49.678C256.182 49.7713 256.154 49.8507 256.098 49.916C256.042 49.972 255.967 50 255.874 50H255.174C255.08 50 255.001 49.972 254.936 49.916C254.88 49.8507 254.852 49.7713 254.852 49.678V45.8C254.852 45.1467 254.693 44.638 254.376 44.274C254.058 43.9007 253.592 43.714 252.976 43.714C252.397 43.714 251.93 43.9007 251.576 44.274C251.23 44.638 251.058 45.1467 251.058 45.8V49.678C251.058 49.7713 251.025 49.8507 250.96 49.916C250.904 49.972 250.829 50 250.736 50H250.036ZM258.526 50C258.433 50 258.353 49.972 258.288 49.916C258.232 49.8507 258.204 49.7713 258.204 49.678V43.042C258.204 42.9487 258.232 42.874 258.288 42.818C258.353 42.7527 258.433 42.72 258.526 42.72H259.198C259.291 42.72 259.366 42.7527 259.422 42.818C259.478 42.874 259.506 42.9487 259.506 43.042V49.678C259.506 49.7713 259.478 49.8507 259.422 49.916C259.366 49.972 259.291 50 259.198 50H258.526ZM258.414 41.362C258.321 41.362 258.241 41.334 258.176 41.278C258.12 41.2127 258.092 41.1333 258.092 41.04V40.284C258.092 40.1907 258.12 40.116 258.176 40.06C258.241 39.9947 258.321 39.962 258.414 39.962H259.296C259.389 39.962 259.464 39.9947 259.52 40.06C259.585 40.116 259.618 40.1907 259.618 40.284V41.04C259.618 41.1333 259.585 41.2127 259.52 41.278C259.464 41.334 259.389 41.362 259.296 41.362H258.414ZM264.437 50C263.914 50 263.489 49.902 263.163 49.706C262.836 49.5007 262.598 49.216 262.449 48.852C262.299 48.4787 262.225 48.04 262.225 47.536V43.84H261.133C261.039 43.84 260.96 43.812 260.895 43.756C260.839 43.6907 260.811 43.6113 260.811 43.518V43.042C260.811 42.9487 260.839 42.874 260.895 42.818C260.96 42.7527 261.039 42.72 261.133 42.72H262.225V40.382C262.225 40.2887 262.253 40.214 262.309 40.158C262.374 40.0927 262.453 40.06 262.547 40.06H263.205C263.298 40.06 263.373 40.0927 263.429 40.158C263.494 40.214 263.527 40.2887 263.527 40.382V42.72H265.263C265.356 42.72 265.431 42.7527 265.487 42.818C265.552 42.874 265.585 42.9487 265.585 43.042V43.518C265.585 43.6113 265.552 43.6907 265.487 43.756C265.431 43.812 265.356 43.84 265.263 43.84H263.527V47.438C263.527 47.8767 263.601 48.222 263.751 48.474C263.9 48.726 264.166 48.852 264.549 48.852H265.403C265.496 48.852 265.571 48.8847 265.627 48.95C265.692 49.006 265.725 49.0807 265.725 49.174V49.678C265.725 49.7713 265.692 49.8507 265.627 49.916C265.571 49.972 265.496 50 265.403 50H264.437ZM270.045 50.14C269.336 50.14 268.743 50.0047 268.267 49.734C267.791 49.4633 267.427 49.09 267.175 48.614C266.923 48.1287 266.783 47.578 266.755 46.962C266.746 46.8033 266.741 46.6027 266.741 46.36C266.741 46.108 266.746 45.9073 266.755 45.758C266.783 45.1327 266.923 44.582 267.175 44.106C267.437 43.63 267.805 43.2567 268.281 42.986C268.757 42.7153 269.345 42.58 270.045 42.58C270.745 42.58 271.333 42.7153 271.809 42.986C272.285 43.2567 272.649 43.63 272.901 44.106C273.163 44.582 273.307 45.1327 273.335 45.758C273.345 45.9073 273.349 46.108 273.349 46.36C273.349 46.6027 273.345 46.8033 273.335 46.962C273.307 47.578 273.167 48.1287 272.915 48.614C272.663 49.09 272.299 49.4633 271.823 49.734C271.347 50.0047 270.755 50.14 270.045 50.14ZM270.045 49.062C270.624 49.062 271.086 48.88 271.431 48.516C271.777 48.1427 271.963 47.6013 271.991 46.892C272.001 46.752 272.005 46.5747 272.005 46.36C272.005 46.1453 272.001 45.968 271.991 45.828C271.963 45.1187 271.777 44.582 271.431 44.218C271.086 43.8447 270.624 43.658 270.045 43.658C269.467 43.658 269 43.8447 268.645 44.218C268.3 44.582 268.118 45.1187 268.099 45.828C268.09 45.968 268.085 46.1453 268.085 46.36C268.085 46.5747 268.09 46.752 268.099 46.892C268.118 47.6013 268.3 48.1427 268.645 48.516C269 48.88 269.467 49.062 270.045 49.062ZM275.424 50C275.331 50 275.252 49.972 275.186 49.916C275.13 49.8507 275.102 49.7713 275.102 49.678V43.056C275.102 42.9627 275.13 42.8833 275.186 42.818C275.252 42.7527 275.331 42.72 275.424 42.72H276.068C276.162 42.72 276.241 42.7527 276.306 42.818C276.372 42.8833 276.404 42.9627 276.404 43.056V43.672C276.591 43.3547 276.848 43.1167 277.174 42.958C277.501 42.7993 277.893 42.72 278.35 42.72H278.91C279.004 42.72 279.078 42.7527 279.134 42.818C279.19 42.874 279.218 42.9487 279.218 43.042V43.616C279.218 43.7093 279.19 43.784 279.134 43.84C279.078 43.896 279.004 43.924 278.91 43.924H278.07C277.566 43.924 277.17 44.0733 276.88 44.372C276.591 44.6613 276.446 45.058 276.446 45.562V49.678C276.446 49.7713 276.414 49.8507 276.348 49.916C276.283 49.972 276.204 50 276.11 50H275.424Z" fill="#80708F"/>
</g>
<path d="M27.76 103.3C27.6533 103.3 27.5627 103.268 27.488 103.204C27.424 103.129 27.392 103.039 27.392 102.932V92.484C27.392 92.3667 27.424 92.276 27.488 92.212C27.5627 92.1373 27.6533 92.1 27.76 92.1H28.56C28.688 92.1 28.784 92.132 28.848 92.196C28.912 92.26 28.9493 92.3133 28.96 92.356L32.352 98.82L35.76 92.356C35.7813 92.3133 35.8187 92.26 35.872 92.196C35.936 92.132 36.032 92.1 36.16 92.1H36.944C37.0613 92.1 37.152 92.1373 37.216 92.212C37.2907 92.276 37.328 92.3667 37.328 92.484V102.932C37.328 103.039 37.2907 103.129 37.216 103.204C37.152 103.268 37.0613 103.3 36.944 103.3H36.16C36.0533 103.3 35.9627 103.268 35.888 103.204C35.824 103.129 35.792 103.039 35.792 102.932V95.06L33.12 100.276C33.0773 100.383 33.0133 100.468 32.928 100.532C32.8427 100.585 32.736 100.612 32.608 100.612H32.112C31.9733 100.612 31.8613 100.585 31.776 100.532C31.7013 100.468 31.6373 100.383 31.584 100.276L28.912 95.06V102.932C28.912 103.039 28.8747 103.129 28.8 103.204C28.736 103.268 28.6507 103.3 28.544 103.3H27.76ZM43.1991 103.46C42.1005 103.46 41.2258 103.124 40.5751 102.452C39.9245 101.769 39.5671 100.841 39.5031 99.668C39.4925 99.5293 39.4871 99.3533 39.4871 99.14C39.4871 98.916 39.4925 98.7347 39.5031 98.596C39.5458 97.8387 39.7218 97.1773 40.0311 96.612C40.3405 96.036 40.7618 95.5933 41.2951 95.284C41.8391 94.9747 42.4738 94.82 43.1991 94.82C44.0098 94.82 44.6871 94.9907 45.2311 95.332C45.7858 95.6733 46.2071 96.1587 46.4951 96.788C46.7831 97.4173 46.9271 98.1533 46.9271 98.996V99.268C46.9271 99.3853 46.8898 99.476 46.8151 99.54C46.7511 99.604 46.6658 99.636 46.5591 99.636H41.0231C41.0231 99.6467 41.0231 99.668 41.0231 99.7C41.0231 99.732 41.0231 99.7587 41.0231 99.78C41.0445 100.217 41.1405 100.628 41.3111 101.012C41.4818 101.385 41.7271 101.689 42.0471 101.924C42.3671 102.159 42.7511 102.276 43.1991 102.276C43.5831 102.276 43.9031 102.217 44.1591 102.1C44.4151 101.983 44.6231 101.855 44.7831 101.716C44.9431 101.567 45.0498 101.455 45.1031 101.38C45.1991 101.241 45.2738 101.161 45.3271 101.14C45.3805 101.108 45.4658 101.092 45.5831 101.092H46.3511C46.4578 101.092 46.5431 101.124 46.6071 101.188C46.6818 101.241 46.7138 101.321 46.7031 101.428C46.6925 101.588 46.6071 101.785 46.4471 102.02C46.2871 102.244 46.0578 102.468 45.7591 102.692C45.4605 102.916 45.0978 103.103 44.6711 103.252C44.2445 103.391 43.7538 103.46 43.1991 103.46ZM41.0231 98.532H45.4071V98.484C45.4071 98.004 45.3165 97.5773 45.1351 97.204C44.9645 96.8307 44.7138 96.5373 44.3831 96.324C44.0525 96.1 43.6578 95.988 43.1991 95.988C42.7405 95.988 42.3458 96.1 42.0151 96.324C41.6951 96.5373 41.4498 96.8307 41.2791 97.204C41.1085 97.5773 41.0231 98.004 41.0231 98.484V98.532ZM52.0414 103.3C51.444 103.3 50.9587 103.188 50.5854 102.964C50.212 102.729 49.94 102.404 49.7694 101.988C49.5987 101.561 49.5134 101.06 49.5134 100.484V96.26H48.2654C48.1587 96.26 48.068 96.228 47.9934 96.164C47.9294 96.0893 47.8974 95.9987 47.8974 95.892V95.348C47.8974 95.2413 47.9294 95.156 47.9934 95.092C48.068 95.0173 48.1587 94.98 48.2654 94.98H49.5134V92.308C49.5134 92.2013 49.5454 92.116 49.6094 92.052C49.684 91.9773 49.7747 91.94 49.8814 91.94H50.6334C50.74 91.94 50.8254 91.9773 50.8894 92.052C50.964 92.116 51.0014 92.2013 51.0014 92.308V94.98H52.9854C53.092 94.98 53.1774 95.0173 53.2414 95.092C53.316 95.156 53.3534 95.2413 53.3534 95.348V95.892C53.3534 95.9987 53.316 96.0893 53.2414 96.164C53.1774 96.228 53.092 96.26 52.9854 96.26H51.0014V100.372C51.0014 100.873 51.0867 101.268 51.2574 101.556C51.428 101.844 51.732 101.988 52.1694 101.988H53.1454C53.252 101.988 53.3374 102.025 53.4014 102.1C53.476 102.164 53.5134 102.249 53.5134 102.356V102.932C53.5134 103.039 53.476 103.129 53.4014 103.204C53.3374 103.268 53.252 103.3 53.1454 103.3H52.0414ZM55.4274 103.3C55.3207 103.3 55.23 103.268 55.1554 103.204C55.0914 103.129 55.0594 103.039 55.0594 102.932V92.308C55.0594 92.2013 55.0914 92.116 55.1554 92.052C55.23 91.9773 55.3207 91.94 55.4274 91.94H56.2274C56.3447 91.94 56.4354 91.9773 56.4994 92.052C56.5634 92.116 56.5954 92.2013 56.5954 92.308V96.036C56.8834 95.6733 57.2354 95.38 57.6514 95.156C58.0674 94.932 58.5954 94.82 59.2354 94.82C59.9287 94.82 60.5154 94.9747 60.9954 95.284C61.486 95.5827 61.854 96.004 62.0994 96.548C62.3554 97.0813 62.4834 97.7053 62.4834 98.42V102.932C62.4834 103.039 62.4514 103.129 62.3874 103.204C62.3234 103.268 62.2327 103.3 62.1154 103.3H61.3154C61.2087 103.3 61.118 103.268 61.0434 103.204C60.9794 103.129 60.9474 103.039 60.9474 102.932V98.5C60.9474 97.7533 60.766 97.172 60.4034 96.756C60.0407 96.3293 59.5074 96.116 58.8034 96.116C58.142 96.116 57.6087 96.3293 57.2034 96.756C56.798 97.172 56.5954 97.7533 56.5954 98.5V102.932C56.5954 103.039 56.5634 103.129 56.4994 103.204C56.4354 103.268 56.3447 103.3 56.2274 103.3H55.4274ZM68.2014 103.46C67.3907 103.46 66.7134 103.305 66.1694 102.996C65.6254 102.687 65.2094 102.26 64.9214 101.716C64.6334 101.161 64.4734 100.532 64.4414 99.828C64.4307 99.6467 64.4254 99.4173 64.4254 99.14C64.4254 98.852 64.4307 98.6227 64.4414 98.452C64.4734 97.7373 64.6334 97.108 64.9214 96.564C65.22 96.02 65.6414 95.5933 66.1854 95.284C66.7294 94.9747 67.4014 94.82 68.2014 94.82C69.0014 94.82 69.6734 94.9747 70.2174 95.284C70.7614 95.5933 71.1774 96.02 71.4654 96.564C71.764 97.108 71.9294 97.7373 71.9614 98.452C71.972 98.6227 71.9774 98.852 71.9774 99.14C71.9774 99.4173 71.972 99.6467 71.9614 99.828C71.9294 100.532 71.7694 101.161 71.4814 101.716C71.1934 102.26 70.7774 102.687 70.2334 102.996C69.6894 103.305 69.012 103.46 68.2014 103.46ZM68.2014 102.228C68.8627 102.228 69.3907 102.02 69.7854 101.604C70.18 101.177 70.3934 100.559 70.4254 99.748C70.436 99.588 70.4414 99.3853 70.4414 99.14C70.4414 98.8947 70.436 98.692 70.4254 98.532C70.3934 97.7213 70.18 97.108 69.7854 96.692C69.3907 96.2653 68.8627 96.052 68.2014 96.052C67.54 96.052 67.0067 96.2653 66.6014 96.692C66.2067 97.108 65.9987 97.7213 65.9774 98.532C65.9667 98.692 65.9614 98.8947 65.9614 99.14C65.9614 99.3853 65.9667 99.588 65.9774 99.748C65.9987 100.559 66.2067 101.177 66.6014 101.604C67.0067 102.02 67.54 102.228 68.2014 102.228ZM77.0209 103.46C76.4342 103.46 75.9275 103.359 75.5009 103.156C75.0742 102.943 74.7222 102.66 74.4449 102.308C74.1782 101.945 73.9755 101.535 73.8369 101.076C73.7089 100.617 73.6342 100.132 73.6129 99.62C73.6022 99.4493 73.5969 99.2893 73.5969 99.14C73.5969 98.9907 73.6022 98.8307 73.6129 98.66C73.6342 98.1587 73.7089 97.6787 73.8369 97.22C73.9755 96.7613 74.1782 96.3507 74.4449 95.988C74.7222 95.6253 75.0742 95.3427 75.5009 95.14C75.9275 94.9267 76.4342 94.82 77.0209 94.82C77.6502 94.82 78.1729 94.932 78.5889 95.156C79.0049 95.38 79.3462 95.6573 79.6129 95.988V92.308C79.6129 92.2013 79.6449 92.116 79.7089 92.052C79.7835 91.9773 79.8742 91.94 79.9809 91.94H80.7489C80.8555 91.94 80.9409 91.9773 81.0049 92.052C81.0795 92.116 81.1169 92.2013 81.1169 92.308V102.932C81.1169 103.039 81.0795 103.129 81.0049 103.204C80.9409 103.268 80.8555 103.3 80.7489 103.3H80.0289C79.9115 103.3 79.8209 103.268 79.7569 103.204C79.6929 103.129 79.6609 103.039 79.6609 102.932V102.26C79.3942 102.601 79.0475 102.889 78.6209 103.124C78.1942 103.348 77.6609 103.46 77.0209 103.46ZM77.3569 102.164C77.8902 102.164 78.3169 102.041 78.6369 101.796C78.9569 101.551 79.1969 101.241 79.3569 100.868C79.5169 100.484 79.6022 100.095 79.6129 99.7C79.6235 99.5293 79.6289 99.3267 79.6289 99.092C79.6289 98.8467 79.6235 98.6387 79.6129 98.468C79.6022 98.0947 79.5115 97.7267 79.3409 97.364C79.1809 97.0013 78.9355 96.7027 78.6049 96.468C78.2849 96.2333 77.8689 96.116 77.3569 96.116C76.8129 96.116 76.3809 96.2387 76.0609 96.484C75.7409 96.7187 75.5115 97.0333 75.3729 97.428C75.2342 97.812 75.1542 98.228 75.1329 98.676C75.1222 98.9853 75.1222 99.2947 75.1329 99.604C75.1542 100.052 75.2342 100.473 75.3729 100.868C75.5115 101.252 75.7409 101.567 76.0609 101.812C76.3809 102.047 76.8129 102.164 77.3569 102.164Z" fill="#2B2233"/>
<g filter="url(#filter1_d_1586_673)">
<rect x="138" y="77.8" width="631" height="40" rx="6" fill="white"/>
<rect x="138.5" y="78.3" width="630" height="39" rx="5.5" stroke="#E0DCE5"/>
<path d="M158.774 102.94C157.953 102.94 157.253 102.786 156.674 102.478C156.105 102.17 155.666 101.736 155.358 101.176C155.059 100.616 154.891 99.958 154.854 99.202C154.845 98.7913 154.84 98.3573 154.84 97.9C154.84 97.4333 154.845 96.99 154.854 96.57C154.891 95.814 155.059 95.1607 155.358 94.61C155.666 94.0593 156.109 93.63 156.688 93.322C157.267 93.014 157.962 92.86 158.774 92.86C159.437 92.86 160.011 92.9533 160.496 93.14C160.981 93.3267 161.378 93.5647 161.686 93.854C162.003 94.134 162.237 94.428 162.386 94.736C162.545 95.044 162.629 95.3147 162.638 95.548C162.647 95.632 162.624 95.702 162.568 95.758C162.512 95.8047 162.437 95.828 162.344 95.828H161.518C161.425 95.828 161.355 95.8093 161.308 95.772C161.271 95.7347 161.233 95.6693 161.196 95.576C161.112 95.3333 160.972 95.0953 160.776 94.862C160.589 94.6287 160.333 94.4373 160.006 94.288C159.689 94.1293 159.278 94.05 158.774 94.05C158.037 94.05 157.439 94.2507 156.982 94.652C156.534 95.0533 156.291 95.716 156.254 96.64C156.226 97.4707 156.226 98.3013 156.254 99.132C156.291 100.065 156.539 100.737 156.996 101.148C157.453 101.549 158.051 101.75 158.788 101.75C159.283 101.75 159.721 101.661 160.104 101.484C160.496 101.297 160.804 101.013 161.028 100.63C161.252 100.247 161.364 99.762 161.364 99.174V98.586H159.264C159.171 98.586 159.091 98.558 159.026 98.502C158.97 98.4367 158.942 98.3527 158.942 98.25V97.802C158.942 97.6993 158.97 97.62 159.026 97.564C159.091 97.4987 159.171 97.466 159.264 97.466H162.428C162.531 97.466 162.61 97.4987 162.666 97.564C162.722 97.62 162.75 97.6993 162.75 97.802V99.146C162.75 99.9113 162.591 100.579 162.274 101.148C161.966 101.717 161.513 102.161 160.916 102.478C160.319 102.786 159.605 102.94 158.774 102.94ZM165.069 102.8C164.967 102.8 164.887 102.772 164.831 102.716C164.775 102.651 164.747 102.571 164.747 102.478V93.336C164.747 93.2333 164.775 93.154 164.831 93.098C164.887 93.0327 164.967 93 165.069 93H170.851C170.954 93 171.033 93.0327 171.089 93.098C171.145 93.154 171.173 93.2333 171.173 93.336V93.868C171.173 93.9707 171.145 94.05 171.089 94.106C171.033 94.162 170.954 94.19 170.851 94.19H166.091V97.256H170.543C170.646 97.256 170.725 97.2887 170.781 97.354C170.837 97.41 170.865 97.4893 170.865 97.592V98.11C170.865 98.2033 170.837 98.2827 170.781 98.348C170.725 98.404 170.646 98.432 170.543 98.432H166.091V101.61H170.963C171.066 101.61 171.145 101.638 171.201 101.694C171.257 101.75 171.285 101.829 171.285 101.932V102.478C171.285 102.571 171.257 102.651 171.201 102.716C171.145 102.772 171.066 102.8 170.963 102.8H165.069ZM175.702 102.8C175.608 102.8 175.529 102.772 175.464 102.716C175.408 102.651 175.38 102.571 175.38 102.478V94.246H172.692C172.598 94.246 172.519 94.218 172.454 94.162C172.398 94.0967 172.37 94.0173 172.37 93.924V93.336C172.37 93.2333 172.398 93.154 172.454 93.098C172.519 93.0327 172.598 93 172.692 93H179.44C179.542 93 179.622 93.0327 179.678 93.098C179.743 93.154 179.776 93.2333 179.776 93.336V93.924C179.776 94.0173 179.743 94.0967 179.678 94.162C179.622 94.218 179.542 94.246 179.44 94.246H176.766V102.478C176.766 102.571 176.733 102.651 176.668 102.716C176.612 102.772 176.532 102.8 176.43 102.8H175.702Z" fill="#3E3446"/>
<path d="M740.51 94.2999C740.692 94.2999 740.873 94.3932 740.964 94.4866L745.955 99.6199L750.946 94.4866C751.218 94.2066 751.672 94.2066 751.944 94.4866C752.216 94.7666 752.216 95.2332 751.944 95.5132L746.499 101.113C746.227 101.393 745.773 101.393 745.501 101.113L740.057 95.5132C739.785 95.2332 739.785 94.7666 740.057 94.4866C740.238 94.3932 740.42 94.2999 740.51 94.2999Z" fill="#2B2233"/>
</g>
<path d="M27.76 320.5C27.6427 320.5 27.552 320.468 27.488 320.404C27.424 320.329 27.392 320.239 27.392 320.132V309.684C27.392 309.567 27.424 309.476 27.488 309.412C27.552 309.337 27.6427 309.3 27.76 309.3H28.576C28.6933 309.3 28.784 309.337 28.848 309.412C28.9227 309.476 28.96 309.567 28.96 309.684V314.1H34.464V309.684C34.464 309.567 34.496 309.476 34.56 309.412C34.6347 309.337 34.7253 309.3 34.832 309.3H35.648C35.7653 309.3 35.856 309.337 35.92 309.412C35.9947 309.476 36.032 309.567 36.032 309.684V320.132C36.032 320.239 35.9947 320.329 35.92 320.404C35.856 320.468 35.7653 320.5 35.648 320.5H34.832C34.7253 320.5 34.6347 320.468 34.56 320.404C34.496 320.329 34.464 320.239 34.464 320.132V315.54H28.96V320.132C28.96 320.239 28.9227 320.329 28.848 320.404C28.784 320.468 28.6933 320.5 28.576 320.5H27.76ZM41.9023 320.66C40.8036 320.66 39.9289 320.324 39.2783 319.652C38.6276 318.969 38.2703 318.041 38.2063 316.868C38.1956 316.729 38.1903 316.553 38.1903 316.34C38.1903 316.116 38.1956 315.935 38.2063 315.796C38.2489 315.039 38.4249 314.377 38.7343 313.812C39.0436 313.236 39.4649 312.793 39.9983 312.484C40.5423 312.175 41.1769 312.02 41.9023 312.02C42.7129 312.02 43.3903 312.191 43.9343 312.532C44.4889 312.873 44.9103 313.359 45.1983 313.988C45.4863 314.617 45.6302 315.353 45.6302 316.196V316.468C45.6302 316.585 45.5929 316.676 45.5183 316.74C45.4543 316.804 45.3689 316.836 45.2623 316.836H39.7263C39.7263 316.847 39.7263 316.868 39.7263 316.9C39.7263 316.932 39.7263 316.959 39.7263 316.98C39.7476 317.417 39.8436 317.828 40.0143 318.212C40.1849 318.585 40.4303 318.889 40.7503 319.124C41.0703 319.359 41.4543 319.476 41.9023 319.476C42.2863 319.476 42.6063 319.417 42.8623 319.3C43.1183 319.183 43.3263 319.055 43.4863 318.916C43.6463 318.767 43.7529 318.655 43.8063 318.58C43.9023 318.441 43.9769 318.361 44.0303 318.34C44.0836 318.308 44.1689 318.292 44.2863 318.292H45.0543C45.1609 318.292 45.2463 318.324 45.3103 318.388C45.3849 318.441 45.4169 318.521 45.4062 318.628C45.3956 318.788 45.3103 318.985 45.1503 319.22C44.9903 319.444 44.7609 319.668 44.4623 319.892C44.1636 320.116 43.8009 320.303 43.3743 320.452C42.9476 320.591 42.4569 320.66 41.9023 320.66ZM39.7263 315.732H44.1103V315.684C44.1103 315.204 44.0196 314.777 43.8383 314.404C43.6676 314.031 43.4169 313.737 43.0863 313.524C42.7556 313.3 42.3609 313.188 41.9023 313.188C41.4436 313.188 41.0489 313.3 40.7183 313.524C40.3983 313.737 40.1529 314.031 39.9823 314.404C39.8116 314.777 39.7263 315.204 39.7263 315.684V315.732ZM49.8634 320.66C49.33 320.66 48.8447 320.553 48.4074 320.34C47.97 320.127 47.618 319.839 47.3514 319.476C47.0847 319.113 46.9514 318.703 46.9514 318.244C46.9514 317.508 47.25 316.921 47.8474 316.484C48.4447 316.047 49.2234 315.759 50.1834 315.62L52.5674 315.284V314.82C52.5674 314.308 52.418 313.908 52.1194 313.62C51.8314 313.332 51.3567 313.188 50.6954 313.188C50.2154 313.188 49.826 313.284 49.5274 313.476C49.2394 313.668 49.0367 313.913 48.9194 314.212C48.8554 314.372 48.7434 314.452 48.5834 314.452H47.8634C47.746 314.452 47.6554 314.42 47.5914 314.356C47.538 314.281 47.5114 314.196 47.5114 314.1C47.5114 313.94 47.57 313.743 47.6874 313.508C47.8154 313.273 48.0074 313.044 48.2634 312.82C48.5194 312.596 48.8447 312.409 49.2394 312.26C49.6447 312.1 50.1354 312.02 50.7114 312.02C51.3514 312.02 51.89 312.105 52.3274 312.276C52.7647 312.436 53.106 312.655 53.3514 312.932C53.6074 313.209 53.7887 313.524 53.8954 313.876C54.0127 314.228 54.0714 314.585 54.0714 314.948V320.132C54.0714 320.239 54.034 320.329 53.9594 320.404C53.8954 320.468 53.81 320.5 53.7034 320.5H52.9674C52.85 320.5 52.7594 320.468 52.6954 320.404C52.6314 320.329 52.5994 320.239 52.5994 320.132V319.444C52.4607 319.636 52.274 319.828 52.0394 320.02C51.8047 320.201 51.5114 320.356 51.1594 320.484C50.8074 320.601 50.3754 320.66 49.8634 320.66ZM50.1994 319.46C50.6367 319.46 51.0367 319.369 51.3994 319.188C51.762 318.996 52.0447 318.703 52.2474 318.308C52.4607 317.913 52.5674 317.417 52.5674 316.82V316.372L50.7114 316.644C49.954 316.751 49.3834 316.932 48.9994 317.188C48.6154 317.433 48.4234 317.748 48.4234 318.132C48.4234 318.431 48.5087 318.681 48.6794 318.884C48.8607 319.076 49.0847 319.22 49.3514 319.316C49.6287 319.412 49.9114 319.46 50.1994 319.46ZM59.4115 320.66C58.8248 320.66 58.3182 320.559 57.8915 320.356C57.4648 320.143 57.1128 319.86 56.8355 319.508C56.5688 319.145 56.3662 318.735 56.2275 318.276C56.0995 317.817 56.0248 317.332 56.0035 316.82C55.9928 316.649 55.9875 316.489 55.9875 316.34C55.9875 316.191 55.9928 316.031 56.0035 315.86C56.0248 315.359 56.0995 314.879 56.2275 314.42C56.3662 313.961 56.5688 313.551 56.8355 313.188C57.1128 312.825 57.4648 312.543 57.8915 312.34C58.3182 312.127 58.8248 312.02 59.4115 312.02C60.0408 312.02 60.5635 312.132 60.9795 312.356C61.3955 312.58 61.7368 312.857 62.0035 313.188V309.508C62.0035 309.401 62.0355 309.316 62.0995 309.252C62.1742 309.177 62.2648 309.14 62.3715 309.14H63.1395C63.2462 309.14 63.3315 309.177 63.3955 309.252C63.4702 309.316 63.5075 309.401 63.5075 309.508V320.132C63.5075 320.239 63.4702 320.329 63.3955 320.404C63.3315 320.468 63.2462 320.5 63.1395 320.5H62.4195C62.3022 320.5 62.2115 320.468 62.1475 320.404C62.0835 320.329 62.0515 320.239 62.0515 320.132V319.46C61.7848 319.801 61.4382 320.089 61.0115 320.324C60.5848 320.548 60.0515 320.66 59.4115 320.66ZM59.7475 319.364C60.2808 319.364 60.7075 319.241 61.0275 318.996C61.3475 318.751 61.5875 318.441 61.7475 318.068C61.9075 317.684 61.9928 317.295 62.0035 316.9C62.0142 316.729 62.0195 316.527 62.0195 316.292C62.0195 316.047 62.0142 315.839 62.0035 315.668C61.9928 315.295 61.9022 314.927 61.7315 314.564C61.5715 314.201 61.3262 313.903 60.9955 313.668C60.6755 313.433 60.2595 313.316 59.7475 313.316C59.2035 313.316 58.7715 313.439 58.4515 313.684C58.1315 313.919 57.9022 314.233 57.7635 314.628C57.6248 315.012 57.5448 315.428 57.5235 315.876C57.5128 316.185 57.5128 316.495 57.5235 316.804C57.5448 317.252 57.6248 317.673 57.7635 318.068C57.9022 318.452 58.1315 318.767 58.4515 319.012C58.7715 319.247 59.2035 319.364 59.7475 319.364ZM69.1991 320.66C68.1005 320.66 67.2258 320.324 66.5751 319.652C65.9245 318.969 65.5671 318.041 65.5031 316.868C65.4925 316.729 65.4871 316.553 65.4871 316.34C65.4871 316.116 65.4925 315.935 65.5031 315.796C65.5458 315.039 65.7218 314.377 66.0311 313.812C66.3405 313.236 66.7618 312.793 67.2951 312.484C67.8391 312.175 68.4738 312.02 69.1991 312.02C70.0098 312.02 70.6871 312.191 71.2311 312.532C71.7858 312.873 72.2071 313.359 72.4951 313.988C72.7831 314.617 72.9271 315.353 72.9271 316.196V316.468C72.9271 316.585 72.8898 316.676 72.8151 316.74C72.7511 316.804 72.6658 316.836 72.5591 316.836H67.0231C67.0231 316.847 67.0231 316.868 67.0231 316.9C67.0231 316.932 67.0231 316.959 67.0231 316.98C67.0445 317.417 67.1405 317.828 67.3111 318.212C67.4818 318.585 67.7271 318.889 68.0471 319.124C68.3671 319.359 68.7511 319.476 69.1991 319.476C69.5831 319.476 69.9031 319.417 70.1591 319.3C70.4151 319.183 70.6231 319.055 70.7831 318.916C70.9431 318.767 71.0498 318.655 71.1031 318.58C71.1991 318.441 71.2738 318.361 71.3271 318.34C71.3805 318.308 71.4658 318.292 71.5831 318.292H72.3511C72.4578 318.292 72.5431 318.324 72.6071 318.388C72.6818 318.441 72.7138 318.521 72.7031 318.628C72.6925 318.788 72.6071 318.985 72.4471 319.22C72.2871 319.444 72.0578 319.668 71.7591 319.892C71.4605 320.116 71.0978 320.303 70.6711 320.452C70.2445 320.591 69.7538 320.66 69.1991 320.66ZM67.0231 315.732H71.4071V315.684C71.4071 315.204 71.3165 314.777 71.1351 314.404C70.9645 314.031 70.7138 313.737 70.3831 313.524C70.0525 313.3 69.6578 313.188 69.1991 313.188C68.7405 313.188 68.3458 313.3 68.0151 313.524C67.6951 313.737 67.4498 314.031 67.2791 314.404C67.1085 314.777 67.0231 315.204 67.0231 315.684V315.732ZM75.2083 320.5C75.1016 320.5 75.0109 320.468 74.9363 320.404C74.8723 320.329 74.8403 320.239 74.8403 320.132V312.564C74.8403 312.457 74.8723 312.367 74.9363 312.292C75.0109 312.217 75.1016 312.18 75.2083 312.18H75.9443C76.0509 312.18 76.1416 312.217 76.2163 312.292C76.2909 312.367 76.3283 312.457 76.3283 312.564V313.268C76.5416 312.905 76.8349 312.633 77.2083 312.452C77.5816 312.271 78.0296 312.18 78.5523 312.18H79.1923C79.2989 312.18 79.3843 312.217 79.4483 312.292C79.5123 312.356 79.5443 312.441 79.5443 312.548V313.204C79.5443 313.311 79.5123 313.396 79.4483 313.46C79.3843 313.524 79.2989 313.556 79.1923 313.556H78.2323C77.6563 313.556 77.2029 313.727 76.8723 314.068C76.5416 314.399 76.3763 314.852 76.3763 315.428V320.132C76.3763 320.239 76.3389 320.329 76.2643 320.404C76.1896 320.468 76.0989 320.5 75.9923 320.5H75.2083ZM83.7984 320.66C83.201 320.66 82.689 320.585 82.2624 320.436C81.8357 320.287 81.489 320.105 81.2224 319.892C80.9557 319.679 80.753 319.465 80.6144 319.252C80.4864 319.039 80.417 318.868 80.4064 318.74C80.3957 318.623 80.433 318.532 80.5184 318.468C80.6037 318.404 80.689 318.372 80.7744 318.372H81.4784C81.5424 318.372 81.5904 318.383 81.6224 318.404C81.665 318.415 81.7184 318.457 81.7824 318.532C81.921 318.681 82.0757 318.831 82.2464 318.98C82.417 319.129 82.625 319.252 82.8704 319.348C83.1264 319.444 83.441 319.492 83.8144 319.492C84.3584 319.492 84.8064 319.391 85.1584 319.188C85.5104 318.975 85.6864 318.665 85.6864 318.26C85.6864 317.993 85.6117 317.78 85.4624 317.62C85.3237 317.46 85.0677 317.316 84.6944 317.188C84.3317 317.06 83.8304 316.927 83.1904 316.788C82.5504 316.639 82.0437 316.457 81.6704 316.244C81.297 316.02 81.0304 315.759 80.8704 315.46C80.7104 315.151 80.6304 314.804 80.6304 314.42C80.6304 314.025 80.7477 313.647 80.9824 313.284C81.217 312.911 81.5584 312.607 82.0064 312.372C82.465 312.137 83.0357 312.02 83.7184 312.02C84.273 312.02 84.7477 312.089 85.1424 312.228C85.537 312.367 85.8624 312.543 86.1184 312.756C86.3744 312.959 86.5664 313.161 86.6944 313.364C86.8224 313.567 86.8917 313.737 86.9024 313.876C86.913 313.983 86.881 314.073 86.8064 314.148C86.7317 314.212 86.6464 314.244 86.5504 314.244H85.8784C85.8037 314.244 85.7397 314.228 85.6864 314.196C85.6437 314.164 85.601 314.127 85.5584 314.084C85.4517 313.945 85.3237 313.807 85.1744 313.668C85.0357 313.529 84.849 313.417 84.6144 313.332C84.3904 313.236 84.0917 313.188 83.7184 313.188C83.185 313.188 82.785 313.3 82.5184 313.524C82.2517 313.748 82.1184 314.031 82.1184 314.372C82.1184 314.575 82.177 314.756 82.2944 314.916C82.4117 315.076 82.6357 315.22 82.9664 315.348C83.297 315.476 83.7877 315.615 84.4384 315.764C85.1424 315.903 85.697 316.089 86.1024 316.324C86.5077 316.559 86.7957 316.831 86.9664 317.14C87.137 317.449 87.2224 317.807 87.2224 318.212C87.2224 318.66 87.089 319.071 86.8224 319.444C86.5664 319.817 86.1824 320.116 85.6704 320.34C85.169 320.553 84.545 320.66 83.7984 320.66Z" fill="#2B2233"/>
<g filter="url(#filter2_i_1586_673)">
<rect x="138" y="295" width="309.5" height="40" rx="6" fill="white"/>
<rect x="138.5" y="295.5" width="308.5" height="39" rx="5.5" stroke="#E0DCE5"/>
<path d="M154.63 320C154.555 320 154.485 319.972 154.42 319.916C154.364 319.86 154.336 319.795 154.336 319.72C154.336 319.683 154.341 319.65 154.35 319.622C154.369 319.585 154.383 319.557 154.392 319.538L157.598 315.016L154.546 310.662C154.518 310.606 154.504 310.545 154.504 310.48C154.504 310.405 154.532 310.34 154.588 310.284C154.644 310.228 154.709 310.2 154.784 310.2H155.624C155.717 310.2 155.792 310.223 155.848 310.27C155.904 310.307 155.955 310.363 156.002 310.438L158.466 313.938L160.916 310.438C160.953 310.363 161 310.307 161.056 310.27C161.121 310.223 161.196 310.2 161.28 310.2H162.078C162.153 310.2 162.218 310.228 162.274 310.284C162.33 310.34 162.358 310.405 162.358 310.48C162.358 310.545 162.339 310.606 162.302 310.662L159.292 315.03L162.484 319.538C162.503 319.557 162.517 319.585 162.526 319.622C162.535 319.65 162.54 319.683 162.54 319.72C162.54 319.795 162.512 319.86 162.456 319.916C162.4 319.972 162.33 320 162.246 320H161.392C161.308 320 161.233 319.977 161.168 319.93C161.112 319.883 161.061 319.832 161.014 319.776L158.41 316.136L155.82 319.776C155.773 319.832 155.722 319.883 155.666 319.93C155.61 319.977 155.535 320 155.442 320H154.63ZM163.464 316.388C163.37 316.388 163.291 316.36 163.226 316.304C163.17 316.239 163.142 316.159 163.142 316.066V315.534C163.142 315.441 163.17 315.366 163.226 315.31C163.291 315.245 163.37 315.212 163.464 315.212H167.664C167.757 315.212 167.832 315.245 167.888 315.31C167.953 315.366 167.986 315.441 167.986 315.534V316.066C167.986 316.159 167.953 316.239 167.888 316.304C167.832 316.36 167.757 316.388 167.664 316.388H163.464ZM170.401 320C170.299 320 170.219 319.972 170.163 319.916C170.107 319.851 170.079 319.771 170.079 319.678V310.536C170.079 310.433 170.107 310.354 170.163 310.298C170.219 310.233 170.299 310.2 170.401 310.2H171.115C171.218 310.2 171.297 310.233 171.353 310.298C171.419 310.354 171.451 310.433 171.451 310.536V314.4H176.267V310.536C176.267 310.433 176.295 310.354 176.351 310.298C176.417 310.233 176.496 310.2 176.589 310.2H177.303C177.406 310.2 177.485 310.233 177.541 310.298C177.607 310.354 177.639 310.433 177.639 310.536V319.678C177.639 319.771 177.607 319.851 177.541 319.916C177.485 319.972 177.406 320 177.303 320H176.589C176.496 320 176.417 319.972 176.351 319.916C176.295 319.851 176.267 319.771 176.267 319.678V315.66H171.451V319.678C171.451 319.771 171.419 319.851 171.353 319.916C171.297 319.972 171.218 320 171.115 320H170.401ZM182.776 320.14C181.814 320.14 181.049 319.846 180.48 319.258C179.91 318.661 179.598 317.849 179.542 316.822C179.532 316.701 179.528 316.547 179.528 316.36C179.528 316.164 179.532 316.005 179.542 315.884C179.579 315.221 179.733 314.643 180.004 314.148C180.274 313.644 180.643 313.257 181.11 312.986C181.586 312.715 182.141 312.58 182.776 312.58C183.485 312.58 184.078 312.729 184.554 313.028C185.039 313.327 185.408 313.751 185.66 314.302C185.912 314.853 186.038 315.497 186.038 316.234V316.472C186.038 316.575 186.005 316.654 185.94 316.71C185.884 316.766 185.809 316.794 185.716 316.794H180.872C180.872 316.803 180.872 316.822 180.872 316.85C180.872 316.878 180.872 316.901 180.872 316.92C180.89 317.303 180.974 317.662 181.124 317.998C181.273 318.325 181.488 318.591 181.768 318.796C182.048 319.001 182.384 319.104 182.776 319.104C183.112 319.104 183.392 319.053 183.616 318.95C183.84 318.847 184.022 318.735 184.162 318.614C184.302 318.483 184.395 318.385 184.442 318.32C184.526 318.199 184.591 318.129 184.638 318.11C184.684 318.082 184.759 318.068 184.862 318.068H185.534C185.627 318.068 185.702 318.096 185.758 318.152C185.823 318.199 185.851 318.269 185.842 318.362C185.832 318.502 185.758 318.675 185.618 318.88C185.478 319.076 185.277 319.272 185.016 319.468C184.754 319.664 184.437 319.827 184.064 319.958C183.69 320.079 183.261 320.14 182.776 320.14ZM180.872 315.828H184.708V315.786C184.708 315.366 184.628 314.993 184.47 314.666C184.32 314.339 184.101 314.083 183.812 313.896C183.522 313.7 183.177 313.602 182.776 313.602C182.374 313.602 182.029 313.7 181.74 313.896C181.46 314.083 181.245 314.339 181.096 314.666C180.946 314.993 180.872 315.366 180.872 315.786V315.828ZM189.742 320.14C189.275 320.14 188.85 320.047 188.468 319.86C188.085 319.673 187.777 319.421 187.544 319.104C187.31 318.787 187.194 318.427 187.194 318.026C187.194 317.382 187.455 316.869 187.978 316.486C188.5 316.103 189.182 315.851 190.022 315.73L192.108 315.436V315.03C192.108 314.582 191.977 314.232 191.716 313.98C191.464 313.728 191.048 313.602 190.47 313.602C190.05 313.602 189.709 313.686 189.448 313.854C189.196 314.022 189.018 314.237 188.916 314.498C188.86 314.638 188.762 314.708 188.622 314.708H187.992C187.889 314.708 187.81 314.68 187.754 314.624C187.707 314.559 187.684 314.484 187.684 314.4C187.684 314.26 187.735 314.087 187.838 313.882C187.95 313.677 188.118 313.476 188.342 313.28C188.566 313.084 188.85 312.921 189.196 312.79C189.55 312.65 189.98 312.58 190.484 312.58C191.044 312.58 191.515 312.655 191.898 312.804C192.28 312.944 192.579 313.135 192.794 313.378C193.018 313.621 193.176 313.896 193.27 314.204C193.372 314.512 193.424 314.825 193.424 315.142V319.678C193.424 319.771 193.391 319.851 193.326 319.916C193.27 319.972 193.195 320 193.102 320H192.458C192.355 320 192.276 319.972 192.22 319.916C192.164 319.851 192.136 319.771 192.136 319.678V319.076C192.014 319.244 191.851 319.412 191.646 319.58C191.44 319.739 191.184 319.874 190.876 319.986C190.568 320.089 190.19 320.14 189.742 320.14ZM190.036 319.09C190.418 319.09 190.768 319.011 191.086 318.852C191.403 318.684 191.65 318.427 191.828 318.082C192.014 317.737 192.108 317.303 192.108 316.78V316.388L190.484 316.626C189.821 316.719 189.322 316.878 188.986 317.102C188.65 317.317 188.482 317.592 188.482 317.928C188.482 318.189 188.556 318.409 188.706 318.586C188.864 318.754 189.06 318.88 189.294 318.964C189.536 319.048 189.784 319.09 190.036 319.09ZM198.096 320.14C197.583 320.14 197.14 320.051 196.766 319.874C196.393 319.687 196.085 319.44 195.842 319.132C195.609 318.815 195.432 318.455 195.31 318.054C195.198 317.653 195.133 317.228 195.114 316.78C195.105 316.631 195.1 316.491 195.1 316.36C195.1 316.229 195.105 316.089 195.114 315.94C195.133 315.501 195.198 315.081 195.31 314.68C195.432 314.279 195.609 313.919 195.842 313.602C196.085 313.285 196.393 313.037 196.766 312.86C197.14 312.673 197.583 312.58 198.096 312.58C198.647 312.58 199.104 312.678 199.468 312.874C199.832 313.07 200.131 313.313 200.364 313.602V310.382C200.364 310.289 200.392 310.214 200.448 310.158C200.514 310.093 200.593 310.06 200.686 310.06H201.358C201.452 310.06 201.526 310.093 201.582 310.158C201.648 310.214 201.68 310.289 201.68 310.382V319.678C201.68 319.771 201.648 319.851 201.582 319.916C201.526 319.972 201.452 320 201.358 320H200.728C200.626 320 200.546 319.972 200.49 319.916C200.434 319.851 200.406 319.771 200.406 319.678V319.09C200.173 319.389 199.87 319.641 199.496 319.846C199.123 320.042 198.656 320.14 198.096 320.14ZM198.39 319.006C198.857 319.006 199.23 318.899 199.51 318.684C199.79 318.469 200 318.199 200.14 317.872C200.28 317.536 200.355 317.195 200.364 316.85C200.374 316.701 200.378 316.523 200.378 316.318C200.378 316.103 200.374 315.921 200.364 315.772C200.355 315.445 200.276 315.123 200.126 314.806C199.986 314.489 199.772 314.227 199.482 314.022C199.202 313.817 198.838 313.714 198.39 313.714C197.914 313.714 197.536 313.821 197.256 314.036C196.976 314.241 196.776 314.517 196.654 314.862C196.533 315.198 196.463 315.562 196.444 315.954C196.435 316.225 196.435 316.495 196.444 316.766C196.463 317.158 196.533 317.527 196.654 317.872C196.776 318.208 196.976 318.483 197.256 318.698C197.536 318.903 197.914 319.006 198.39 319.006ZM206.661 320.14C205.699 320.14 204.934 319.846 204.365 319.258C203.795 318.661 203.483 317.849 203.427 316.822C203.417 316.701 203.413 316.547 203.413 316.36C203.413 316.164 203.417 316.005 203.427 315.884C203.464 315.221 203.618 314.643 203.889 314.148C204.159 313.644 204.528 313.257 204.995 312.986C205.471 312.715 206.026 312.58 206.661 312.58C207.37 312.58 207.963 312.729 208.439 313.028C208.924 313.327 209.293 313.751 209.545 314.302C209.797 314.853 209.923 315.497 209.923 316.234V316.472C209.923 316.575 209.89 316.654 209.825 316.71C209.769 316.766 209.694 316.794 209.601 316.794H204.757C204.757 316.803 204.757 316.822 204.757 316.85C204.757 316.878 204.757 316.901 204.757 316.92C204.775 317.303 204.859 317.662 205.009 317.998C205.158 318.325 205.373 318.591 205.653 318.796C205.933 319.001 206.269 319.104 206.661 319.104C206.997 319.104 207.277 319.053 207.501 318.95C207.725 318.847 207.907 318.735 208.047 318.614C208.187 318.483 208.28 318.385 208.327 318.32C208.411 318.199 208.476 318.129 208.523 318.11C208.569 318.082 208.644 318.068 208.747 318.068H209.419C209.512 318.068 209.587 318.096 209.643 318.152C209.708 318.199 209.736 318.269 209.727 318.362C209.717 318.502 209.643 318.675 209.503 318.88C209.363 319.076 209.162 319.272 208.901 319.468C208.639 319.664 208.322 319.827 207.949 319.958C207.575 320.079 207.146 320.14 206.661 320.14ZM204.757 315.828H208.593V315.786C208.593 315.366 208.513 314.993 208.355 314.666C208.205 314.339 207.986 314.083 207.697 313.896C207.407 313.7 207.062 313.602 206.661 313.602C206.259 313.602 205.914 313.7 205.625 313.896C205.345 314.083 205.13 314.339 204.981 314.666C204.831 314.993 204.757 315.366 204.757 315.786V315.828ZM211.919 320C211.825 320 211.746 319.972 211.681 319.916C211.625 319.851 211.597 319.771 211.597 319.678V313.056C211.597 312.963 211.625 312.883 211.681 312.818C211.746 312.753 211.825 312.72 211.919 312.72H212.563C212.656 312.72 212.735 312.753 212.801 312.818C212.866 312.883 212.899 312.963 212.899 313.056V313.672C213.085 313.355 213.342 313.117 213.669 312.958C213.995 312.799 214.387 312.72 214.845 312.72H215.405C215.498 312.72 215.573 312.753 215.629 312.818C215.685 312.874 215.713 312.949 215.713 313.042V313.616C215.713 313.709 215.685 313.784 215.629 313.84C215.573 313.896 215.498 313.924 215.405 313.924H214.565C214.061 313.924 213.664 314.073 213.375 314.372C213.085 314.661 212.941 315.058 212.941 315.562V319.678C212.941 319.771 212.908 319.851 212.843 319.916C212.777 319.972 212.698 320 212.605 320H211.919ZM216.606 316.388C216.513 316.388 216.434 316.36 216.368 316.304C216.312 316.239 216.284 316.159 216.284 316.066V315.534C216.284 315.441 216.312 315.366 216.368 315.31C216.434 315.245 216.513 315.212 216.606 315.212H220.806C220.9 315.212 220.974 315.245 221.03 315.31C221.096 315.366 221.128 315.441 221.128 315.534V316.066C221.128 316.159 221.096 316.239 221.03 316.304C220.974 316.36 220.9 316.388 220.806 316.388H216.606ZM223.544 320C223.441 320 223.362 319.972 223.306 319.916C223.25 319.851 223.222 319.771 223.222 319.678V310.536C223.222 310.433 223.25 310.354 223.306 310.298C223.362 310.233 223.441 310.2 223.544 310.2H224.188C224.3 310.2 224.384 310.228 224.44 310.284C224.496 310.331 224.529 310.368 224.538 310.396L229.186 317.536V310.536C229.186 310.433 229.214 310.354 229.27 310.298C229.326 310.233 229.405 310.2 229.508 310.2H230.18C230.283 310.2 230.362 310.233 230.418 310.298C230.483 310.354 230.516 310.433 230.516 310.536V319.664C230.516 319.757 230.483 319.837 230.418 319.902C230.362 319.967 230.287 320 230.194 320H229.522C229.419 320 229.34 319.972 229.284 319.916C229.237 319.86 229.205 319.823 229.186 319.804L224.552 312.734V319.678C224.552 319.771 224.519 319.851 224.454 319.916C224.398 319.972 224.319 320 224.216 320H223.544ZM234.791 320.14C234.324 320.14 233.899 320.047 233.517 319.86C233.134 319.673 232.826 319.421 232.593 319.104C232.359 318.787 232.243 318.427 232.243 318.026C232.243 317.382 232.504 316.869 233.027 316.486C233.549 316.103 234.231 315.851 235.071 315.73L237.157 315.436V315.03C237.157 314.582 237.026 314.232 236.765 313.98C236.513 313.728 236.097 313.602 235.519 313.602C235.099 313.602 234.758 313.686 234.497 313.854C234.245 314.022 234.067 314.237 233.965 314.498C233.909 314.638 233.811 314.708 233.671 314.708H233.041C232.938 314.708 232.859 314.68 232.803 314.624C232.756 314.559 232.733 314.484 232.733 314.4C232.733 314.26 232.784 314.087 232.887 313.882C232.999 313.677 233.167 313.476 233.391 313.28C233.615 313.084 233.899 312.921 234.245 312.79C234.599 312.65 235.029 312.58 235.533 312.58C236.093 312.58 236.564 312.655 236.947 312.804C237.329 312.944 237.628 313.135 237.843 313.378C238.067 313.621 238.225 313.896 238.319 314.204C238.421 314.512 238.473 314.825 238.473 315.142V319.678C238.473 319.771 238.44 319.851 238.375 319.916C238.319 319.972 238.244 320 238.151 320H237.507C237.404 320 237.325 319.972 237.269 319.916C237.213 319.851 237.185 319.771 237.185 319.678V319.076C237.063 319.244 236.9 319.412 236.695 319.58C236.489 319.739 236.233 319.874 235.925 319.986C235.617 320.089 235.239 320.14 234.791 320.14ZM235.085 319.09C235.467 319.09 235.817 319.011 236.135 318.852C236.452 318.684 236.699 318.427 236.877 318.082C237.063 317.737 237.157 317.303 237.157 316.78V316.388L235.533 316.626C234.87 316.719 234.371 316.878 234.035 317.102C233.699 317.317 233.531 317.592 233.531 317.928C233.531 318.189 233.605 318.409 233.755 318.586C233.913 318.754 234.109 318.88 234.343 318.964C234.585 319.048 234.833 319.09 235.085 319.09ZM240.807 320C240.714 320 240.635 319.972 240.569 319.916C240.513 319.851 240.485 319.771 240.485 319.678V313.042C240.485 312.949 240.513 312.874 240.569 312.818C240.635 312.753 240.714 312.72 240.807 312.72H241.437C241.531 312.72 241.605 312.753 241.661 312.818C241.727 312.874 241.759 312.949 241.759 313.042V313.532C241.974 313.243 242.245 313.014 242.571 312.846C242.898 312.669 243.29 312.58 243.747 312.58C244.802 312.571 245.549 313 245.987 313.868C246.202 313.476 246.515 313.163 246.925 312.93C247.336 312.697 247.803 312.58 248.325 312.58C248.811 312.58 249.249 312.692 249.641 312.916C250.043 313.14 250.355 313.481 250.579 313.938C250.813 314.386 250.929 314.951 250.929 315.632V319.678C250.929 319.771 250.897 319.851 250.831 319.916C250.775 319.972 250.701 320 250.607 320H249.949C249.856 320 249.777 319.972 249.711 319.916C249.655 319.851 249.627 319.771 249.627 319.678V315.758C249.627 315.235 249.553 314.825 249.403 314.526C249.254 314.227 249.053 314.017 248.801 313.896C248.549 313.775 248.274 313.714 247.975 313.714C247.733 313.714 247.485 313.775 247.233 313.896C246.981 314.017 246.771 314.227 246.603 314.526C246.445 314.825 246.365 315.235 246.365 315.758V319.678C246.365 319.771 246.333 319.851 246.267 319.916C246.211 319.972 246.137 320 246.043 320H245.385C245.292 320 245.213 319.972 245.147 319.916C245.091 319.851 245.063 319.771 245.063 319.678V315.758C245.063 315.235 244.984 314.825 244.825 314.526C244.667 314.227 244.461 314.017 244.209 313.896C243.957 313.775 243.691 313.714 243.411 313.714C243.169 313.714 242.921 313.775 242.669 313.896C242.417 314.017 242.207 314.227 242.039 314.526C241.881 314.825 241.801 315.231 241.801 315.744V319.678C241.801 319.771 241.769 319.851 241.703 319.916C241.647 319.972 241.573 320 241.479 320H240.807ZM255.825 320.14C254.863 320.14 254.098 319.846 253.529 319.258C252.959 318.661 252.647 317.849 252.591 316.822C252.581 316.701 252.577 316.547 252.577 316.36C252.577 316.164 252.581 316.005 252.591 315.884C252.628 315.221 252.782 314.643 253.053 314.148C253.323 313.644 253.692 313.257 254.159 312.986C254.635 312.715 255.19 312.58 255.825 312.58C256.534 312.58 257.127 312.729 257.603 313.028C258.088 313.327 258.457 313.751 258.709 314.302C258.961 314.853 259.087 315.497 259.087 316.234V316.472C259.087 316.575 259.054 316.654 258.989 316.71C258.933 316.766 258.858 316.794 258.765 316.794H253.921C253.921 316.803 253.921 316.822 253.921 316.85C253.921 316.878 253.921 316.901 253.921 316.92C253.939 317.303 254.023 317.662 254.173 317.998C254.322 318.325 254.537 318.591 254.817 318.796C255.097 319.001 255.433 319.104 255.825 319.104C256.161 319.104 256.441 319.053 256.665 318.95C256.889 318.847 257.071 318.735 257.211 318.614C257.351 318.483 257.444 318.385 257.491 318.32C257.575 318.199 257.64 318.129 257.687 318.11C257.733 318.082 257.808 318.068 257.911 318.068H258.583C258.676 318.068 258.751 318.096 258.807 318.152C258.872 318.199 258.9 318.269 258.891 318.362C258.881 318.502 258.807 318.675 258.667 318.88C258.527 319.076 258.326 319.272 258.065 319.468C257.803 319.664 257.486 319.827 257.113 319.958C256.739 320.079 256.31 320.14 255.825 320.14ZM253.921 315.828H257.757V315.786C257.757 315.366 257.677 314.993 257.519 314.666C257.369 314.339 257.15 314.083 256.861 313.896C256.571 313.7 256.226 313.602 255.825 313.602C255.423 313.602 255.078 313.7 254.789 313.896C254.509 314.083 254.294 314.339 254.145 314.666C253.995 314.993 253.921 315.366 253.921 315.786V315.828Z" fill="#80708F"/>
</g>
<g filter="url(#filter3_i_1586_673)">
<rect x="459.5" y="295" width="309.5" height="40" rx="6" fill="white"/>
<rect x="460" y="295.5" width="308.5" height="39" rx="5.5" stroke="#E0DCE5"/>
<path d="M479.63 320C479.49 320 479.378 319.967 479.294 319.902C479.219 319.837 479.159 319.748 479.112 319.636L475.99 310.634C475.971 310.578 475.962 310.527 475.962 310.48C475.962 310.405 475.99 310.34 476.046 310.284C476.102 310.228 476.167 310.2 476.242 310.2H476.97C477.082 310.2 477.166 310.233 477.222 310.298C477.287 310.354 477.325 310.405 477.334 310.452L480.078 318.39L482.822 310.452C482.841 310.405 482.878 310.354 482.934 310.298C482.99 310.233 483.074 310.2 483.186 310.2H483.914C483.989 310.2 484.054 310.228 484.11 310.284C484.175 310.34 484.208 310.405 484.208 310.48C484.208 310.527 484.199 310.578 484.18 310.634L481.044 319.636C481.007 319.748 480.946 319.837 480.862 319.902C480.787 319.967 480.68 320 480.54 320H479.63ZM486.947 320.14C486.48 320.14 486.056 320.047 485.673 319.86C485.29 319.673 484.982 319.421 484.749 319.104C484.516 318.787 484.399 318.427 484.399 318.026C484.399 317.382 484.66 316.869 485.183 316.486C485.706 316.103 486.387 315.851 487.227 315.73L489.313 315.436V315.03C489.313 314.582 489.182 314.232 488.921 313.98C488.669 313.728 488.254 313.602 487.675 313.602C487.255 313.602 486.914 313.686 486.653 313.854C486.401 314.022 486.224 314.237 486.121 314.498C486.065 314.638 485.967 314.708 485.827 314.708H485.197C485.094 314.708 485.015 314.68 484.959 314.624C484.912 314.559 484.889 314.484 484.889 314.4C484.889 314.26 484.94 314.087 485.043 313.882C485.155 313.677 485.323 313.476 485.547 313.28C485.771 313.084 486.056 312.921 486.401 312.79C486.756 312.65 487.185 312.58 487.689 312.58C488.249 312.58 488.72 312.655 489.103 312.804C489.486 312.944 489.784 313.135 489.999 313.378C490.223 313.621 490.382 313.896 490.475 314.204C490.578 314.512 490.629 314.825 490.629 315.142V319.678C490.629 319.771 490.596 319.851 490.531 319.916C490.475 319.972 490.4 320 490.307 320H489.663C489.56 320 489.481 319.972 489.425 319.916C489.369 319.851 489.341 319.771 489.341 319.678V319.076C489.22 319.244 489.056 319.412 488.851 319.58C488.646 319.739 488.389 319.874 488.081 319.986C487.773 320.089 487.395 320.14 486.947 320.14ZM487.241 319.09C487.624 319.09 487.974 319.011 488.291 318.852C488.608 318.684 488.856 318.427 489.033 318.082C489.22 317.737 489.313 317.303 489.313 316.78V316.388L487.689 316.626C487.026 316.719 486.527 316.878 486.191 317.102C485.855 317.317 485.687 317.592 485.687 317.928C485.687 318.189 485.762 318.409 485.911 318.586C486.07 318.754 486.266 318.88 486.499 318.964C486.742 319.048 486.989 319.09 487.241 319.09ZM492.977 320C492.884 320 492.805 319.972 492.739 319.916C492.683 319.851 492.655 319.771 492.655 319.678V310.382C492.655 310.289 492.683 310.214 492.739 310.158C492.805 310.093 492.884 310.06 492.977 310.06H493.635C493.738 310.06 493.817 310.093 493.873 310.158C493.929 310.214 493.957 310.289 493.957 310.382V319.678C493.957 319.771 493.929 319.851 493.873 319.916C493.817 319.972 493.738 320 493.635 320H492.977ZM498.762 320.14C498.164 320.14 497.656 320.009 497.236 319.748C496.825 319.477 496.512 319.104 496.298 318.628C496.083 318.152 495.976 317.606 495.976 316.99V313.042C495.976 312.949 496.004 312.874 496.06 312.818C496.125 312.753 496.204 312.72 496.298 312.72H496.998C497.091 312.72 497.166 312.753 497.222 312.818C497.287 312.874 497.32 312.949 497.32 313.042V316.92C497.32 318.311 497.926 319.006 499.14 319.006C499.718 319.006 500.18 318.824 500.526 318.46C500.88 318.087 501.058 317.573 501.058 316.92V313.042C501.058 312.949 501.086 312.874 501.142 312.818C501.207 312.753 501.286 312.72 501.38 312.72H502.066C502.168 312.72 502.248 312.753 502.304 312.818C502.36 312.874 502.388 312.949 502.388 313.042V319.678C502.388 319.771 502.36 319.851 502.304 319.916C502.248 319.972 502.168 320 502.066 320H501.422C501.328 320 501.249 319.972 501.184 319.916C501.128 319.851 501.1 319.771 501.1 319.678V319.062C500.848 319.389 500.54 319.65 500.176 319.846C499.821 320.042 499.35 320.14 498.762 320.14ZM507.366 320.14C506.404 320.14 505.639 319.846 505.07 319.258C504.5 318.661 504.188 317.849 504.132 316.822C504.122 316.701 504.118 316.547 504.118 316.36C504.118 316.164 504.122 316.005 504.132 315.884C504.169 315.221 504.323 314.643 504.594 314.148C504.864 313.644 505.233 313.257 505.7 312.986C506.176 312.715 506.731 312.58 507.366 312.58C508.075 312.58 508.668 312.729 509.144 313.028C509.629 313.327 509.998 313.751 510.25 314.302C510.502 314.853 510.628 315.497 510.628 316.234V316.472C510.628 316.575 510.595 316.654 510.53 316.71C510.474 316.766 510.399 316.794 510.306 316.794H505.462C505.462 316.803 505.462 316.822 505.462 316.85C505.462 316.878 505.462 316.901 505.462 316.92C505.48 317.303 505.564 317.662 505.714 317.998C505.863 318.325 506.078 318.591 506.358 318.796C506.638 319.001 506.974 319.104 507.366 319.104C507.702 319.104 507.982 319.053 508.206 318.95C508.43 318.847 508.612 318.735 508.752 318.614C508.892 318.483 508.985 318.385 509.032 318.32C509.116 318.199 509.181 318.129 509.228 318.11C509.274 318.082 509.349 318.068 509.452 318.068H510.124C510.217 318.068 510.292 318.096 510.348 318.152C510.413 318.199 510.441 318.269 510.432 318.362C510.422 318.502 510.348 318.675 510.208 318.88C510.068 319.076 509.867 319.272 509.606 319.468C509.344 319.664 509.027 319.827 508.654 319.958C508.28 320.079 507.851 320.14 507.366 320.14ZM505.462 315.828H509.298V315.786C509.298 315.366 509.218 314.993 509.06 314.666C508.91 314.339 508.691 314.083 508.402 313.896C508.112 313.7 507.767 313.602 507.366 313.602C506.964 313.602 506.619 313.7 506.33 313.896C506.05 314.083 505.835 314.339 505.686 314.666C505.536 314.993 505.462 315.366 505.462 315.786V315.828Z" fill="#80708F"/>
</g>
<path d="M27.76 154.5C27.6427 154.5 27.552 154.468 27.488 154.404C27.424 154.329 27.392 154.239 27.392 154.132V143.684C27.392 143.567 27.424 143.476 27.488 143.412C27.552 143.337 27.6427 143.3 27.76 143.3H32.144C32.944 143.3 33.5947 143.433 34.096 143.7C34.608 143.956 34.9813 144.308 35.216 144.756C35.4613 145.204 35.584 145.705 35.584 146.26C35.584 146.697 35.5093 147.076 35.36 147.396C35.2213 147.705 35.0453 147.961 34.832 148.164C34.6187 148.356 34.4107 148.505 34.208 148.612C34.624 148.815 34.992 149.145 35.312 149.604C35.6427 150.063 35.808 150.617 35.808 151.268C35.808 151.855 35.6747 152.393 35.408 152.884C35.1413 153.375 34.7413 153.769 34.208 154.068C33.6853 154.356 33.0347 154.5 32.256 154.5H27.76ZM28.96 153.204H32.048C32.7413 153.204 33.2747 153.017 33.648 152.644C34.0213 152.271 34.208 151.812 34.208 151.268C34.208 150.703 34.0213 150.239 33.648 149.876C33.2747 149.503 32.7413 149.316 32.048 149.316H28.96V153.204ZM28.96 148.036H31.904C32.5867 148.036 33.104 147.881 33.456 147.572C33.808 147.252 33.984 146.82 33.984 146.276C33.984 145.732 33.808 145.316 33.456 145.028C33.104 144.74 32.5867 144.596 31.904 144.596H28.96V148.036ZM41.2795 154.66C40.4688 154.66 39.7915 154.505 39.2475 154.196C38.7035 153.887 38.2875 153.46 37.9995 152.916C37.7115 152.361 37.5515 151.732 37.5195 151.028C37.5088 150.847 37.5035 150.617 37.5035 150.34C37.5035 150.052 37.5088 149.823 37.5195 149.652C37.5515 148.937 37.7115 148.308 37.9995 147.764C38.2982 147.22 38.7195 146.793 39.2635 146.484C39.8075 146.175 40.4795 146.02 41.2795 146.02C42.0795 146.02 42.7515 146.175 43.2955 146.484C43.8395 146.793 44.2555 147.22 44.5435 147.764C44.8422 148.308 45.0075 148.937 45.0395 149.652C45.0502 149.823 45.0555 150.052 45.0555 150.34C45.0555 150.617 45.0502 150.847 45.0395 151.028C45.0075 151.732 44.8475 152.361 44.5595 152.916C44.2715 153.46 43.8555 153.887 43.3115 154.196C42.7675 154.505 42.0902 154.66 41.2795 154.66ZM41.2795 153.428C41.9408 153.428 42.4688 153.22 42.8635 152.804C43.2582 152.377 43.4715 151.759 43.5035 150.948C43.5142 150.788 43.5195 150.585 43.5195 150.34C43.5195 150.095 43.5142 149.892 43.5035 149.732C43.4715 148.921 43.2582 148.308 42.8635 147.892C42.4688 147.465 41.9408 147.252 41.2795 147.252C40.6182 147.252 40.0848 147.465 39.6795 147.892C39.2848 148.308 39.0768 148.921 39.0555 149.732C39.0448 149.892 39.0395 150.095 39.0395 150.34C39.0395 150.585 39.0448 150.788 39.0555 150.948C39.0768 151.759 39.2848 152.377 39.6795 152.804C40.0848 153.22 40.6182 153.428 41.2795 153.428ZM50.099 154.66C49.5123 154.66 49.0057 154.559 48.579 154.356C48.1523 154.143 47.8003 153.86 47.523 153.508C47.2563 153.145 47.0537 152.735 46.915 152.276C46.787 151.817 46.7123 151.332 46.691 150.82C46.6803 150.649 46.675 150.489 46.675 150.34C46.675 150.191 46.6803 150.031 46.691 149.86C46.7123 149.359 46.787 148.879 46.915 148.42C47.0537 147.961 47.2563 147.551 47.523 147.188C47.8003 146.825 48.1523 146.543 48.579 146.34C49.0057 146.127 49.5123 146.02 50.099 146.02C50.7283 146.02 51.251 146.132 51.667 146.356C52.083 146.58 52.4243 146.857 52.691 147.188V143.508C52.691 143.401 52.723 143.316 52.787 143.252C52.8617 143.177 52.9523 143.14 53.059 143.14H53.827C53.9337 143.14 54.019 143.177 54.083 143.252C54.1577 143.316 54.195 143.401 54.195 143.508V154.132C54.195 154.239 54.1577 154.329 54.083 154.404C54.019 154.468 53.9337 154.5 53.827 154.5H53.107C52.9897 154.5 52.899 154.468 52.835 154.404C52.771 154.329 52.739 154.239 52.739 154.132V153.46C52.4723 153.801 52.1257 154.089 51.699 154.324C51.2723 154.548 50.739 154.66 50.099 154.66ZM50.435 153.364C50.9683 153.364 51.395 153.241 51.715 152.996C52.035 152.751 52.275 152.441 52.435 152.068C52.595 151.684 52.6803 151.295 52.691 150.9C52.7017 150.729 52.707 150.527 52.707 150.292C52.707 150.047 52.7017 149.839 52.691 149.668C52.6803 149.295 52.5897 148.927 52.419 148.564C52.259 148.201 52.0137 147.903 51.683 147.668C51.363 147.433 50.947 147.316 50.435 147.316C49.891 147.316 49.459 147.439 49.139 147.684C48.819 147.919 48.5897 148.233 48.451 148.628C48.3123 149.012 48.2323 149.428 48.211 149.876C48.2003 150.185 48.2003 150.495 48.211 150.804C48.2323 151.252 48.3123 151.673 48.451 152.068C48.5897 152.452 48.819 152.767 49.139 153.012C49.459 153.247 49.891 153.364 50.435 153.364ZM58.0306 157.54C57.9453 157.54 57.8706 157.508 57.8066 157.444C57.7426 157.38 57.7106 157.305 57.7106 157.22C57.7106 157.177 57.716 157.135 57.7266 157.092C57.7373 157.049 57.7586 156.996 57.7906 156.932L59.0226 154.004L55.9666 146.788C55.9133 146.66 55.8866 146.569 55.8866 146.516C55.8866 146.42 55.9186 146.34 55.9826 146.276C56.0466 146.212 56.1266 146.18 56.2226 146.18H57.0066C57.1133 146.18 57.1986 146.207 57.2626 146.26C57.3266 146.313 57.3693 146.377 57.3906 146.452L59.8226 152.276L62.3186 146.452C62.3506 146.377 62.3933 146.313 62.4466 146.26C62.5106 146.207 62.6013 146.18 62.7186 146.18H63.4706C63.5666 146.18 63.6466 146.212 63.7106 146.276C63.7746 146.34 63.8066 146.415 63.8066 146.5C63.8066 146.553 63.78 146.649 63.7266 146.788L59.1826 157.268C59.1506 157.343 59.1026 157.407 59.0386 157.46C58.9853 157.513 58.9 157.54 58.7826 157.54H58.0306Z" fill="#2B2233"/>
<g filter="url(#filter4_i_1586_673)">
<rect x="138" y="129" width="631" height="154" rx="6" fill="white"/>
<rect x="138.5" y="129.5" width="630" height="153" rx="5.5" stroke="#E0DCE5"/>
<path d="M158.41 151.226C157.859 151.226 157.402 151.137 157.038 150.96C156.683 150.783 156.403 150.517 156.198 150.162C155.993 149.817 155.848 149.397 155.764 148.902C155.68 148.398 155.638 147.819 155.638 147.166C155.638 146.681 155.573 146.307 155.442 146.046C155.311 145.775 155.115 145.556 154.854 145.388L154.756 145.346C154.523 145.197 154.406 145.019 154.406 144.814V144.534C154.406 144.329 154.523 144.151 154.756 144.002L154.868 143.946C155.129 143.769 155.321 143.554 155.442 143.302C155.573 143.041 155.638 142.667 155.638 142.182C155.638 141.529 155.68 140.955 155.764 140.46C155.848 139.956 155.993 139.531 156.198 139.186C156.403 138.841 156.683 138.579 157.038 138.402C157.402 138.225 157.859 138.136 158.41 138.136H158.48C158.573 138.136 158.648 138.164 158.704 138.22C158.76 138.276 158.788 138.351 158.788 138.444V138.962C158.788 139.055 158.76 139.13 158.704 139.186C158.648 139.242 158.578 139.27 158.494 139.27H158.424C157.976 139.279 157.64 139.396 157.416 139.62C157.201 139.835 157.057 140.171 156.982 140.628C156.917 141.085 156.884 141.692 156.884 142.448C156.884 143.008 156.795 143.47 156.618 143.834C156.441 144.198 156.179 144.478 155.834 144.674C156.067 144.795 156.259 144.963 156.408 145.178C156.567 145.383 156.683 145.631 156.758 145.92C156.842 146.209 156.884 146.536 156.884 146.9C156.884 147.647 156.917 148.253 156.982 148.72C157.057 149.187 157.201 149.527 157.416 149.742C157.64 149.957 157.976 150.073 158.424 150.092H158.494C158.578 150.092 158.648 150.12 158.704 150.176C158.76 150.232 158.788 150.307 158.788 150.4V150.918C158.788 151.011 158.76 151.086 158.704 151.142C158.648 151.198 158.573 151.226 158.48 151.226H158.41ZM162.64 142.154C162.547 142.154 162.477 142.126 162.43 142.07C162.393 142.005 162.37 141.93 162.36 141.846L162.122 139.382C162.104 139.279 162.122 139.2 162.178 139.144C162.234 139.088 162.309 139.06 162.402 139.06H163.312C163.406 139.06 163.48 139.088 163.536 139.144C163.592 139.2 163.616 139.279 163.606 139.382L163.354 141.846C163.345 141.93 163.317 142.005 163.27 142.07C163.233 142.126 163.168 142.154 163.074 142.154H162.64ZM160.456 142.154C160.363 142.154 160.293 142.126 160.246 142.07C160.209 142.005 160.186 141.93 160.176 141.846L159.938 139.382C159.929 139.279 159.948 139.2 159.994 139.144C160.05 139.088 160.125 139.06 160.218 139.06H161.128C161.222 139.06 161.296 139.088 161.352 139.144C161.408 139.2 161.432 139.279 161.422 139.382L161.184 141.846C161.175 141.93 161.147 142.005 161.1 142.07C161.054 142.126 160.984 142.154 160.89 142.154H160.456ZM165.763 149C165.669 149 165.59 148.972 165.525 148.916C165.469 148.851 165.441 148.771 165.441 148.678V139.382C165.441 139.289 165.469 139.214 165.525 139.158C165.59 139.093 165.669 139.06 165.763 139.06H166.421C166.514 139.06 166.589 139.093 166.645 139.158C166.71 139.214 166.743 139.289 166.743 139.382V144.254L169.501 141.958C169.613 141.865 169.697 141.804 169.753 141.776C169.818 141.739 169.921 141.72 170.061 141.72H170.803C170.887 141.72 170.957 141.748 171.013 141.804C171.069 141.86 171.097 141.93 171.097 142.014C171.097 142.051 171.083 142.093 171.055 142.14C171.036 142.187 170.994 142.233 170.929 142.28L167.695 144.968L171.279 148.454C171.391 148.547 171.447 148.631 171.447 148.706C171.447 148.79 171.419 148.86 171.363 148.916C171.307 148.972 171.237 149 171.153 149H170.425C170.285 149 170.182 148.986 170.117 148.958C170.051 148.921 169.967 148.855 169.865 148.762L166.743 145.78V148.678C166.743 148.771 166.71 148.851 166.645 148.916C166.589 148.972 166.514 149 166.421 149H165.763ZM175.202 149.14C174.24 149.14 173.475 148.846 172.906 148.258C172.336 147.661 172.024 146.849 171.968 145.822C171.958 145.701 171.954 145.547 171.954 145.36C171.954 145.164 171.958 145.005 171.968 144.884C172.005 144.221 172.159 143.643 172.43 143.148C172.7 142.644 173.069 142.257 173.536 141.986C174.012 141.715 174.567 141.58 175.202 141.58C175.911 141.58 176.504 141.729 176.98 142.028C177.465 142.327 177.834 142.751 178.086 143.302C178.338 143.853 178.464 144.497 178.464 145.234V145.472C178.464 145.575 178.431 145.654 178.366 145.71C178.31 145.766 178.235 145.794 178.142 145.794H173.298C173.298 145.803 173.298 145.822 173.298 145.85C173.298 145.878 173.298 145.901 173.298 145.92C173.316 146.303 173.4 146.662 173.55 146.998C173.699 147.325 173.914 147.591 174.194 147.796C174.474 148.001 174.81 148.104 175.202 148.104C175.538 148.104 175.818 148.053 176.042 147.95C176.266 147.847 176.448 147.735 176.588 147.614C176.728 147.483 176.821 147.385 176.868 147.32C176.952 147.199 177.017 147.129 177.064 147.11C177.11 147.082 177.185 147.068 177.288 147.068H177.96C178.053 147.068 178.128 147.096 178.184 147.152C178.249 147.199 178.277 147.269 178.268 147.362C178.258 147.502 178.184 147.675 178.044 147.88C177.904 148.076 177.703 148.272 177.442 148.468C177.18 148.664 176.863 148.827 176.49 148.958C176.116 149.079 175.687 149.14 175.202 149.14ZM173.298 144.828H177.134V144.786C177.134 144.366 177.054 143.993 176.896 143.666C176.746 143.339 176.527 143.083 176.238 142.896C175.948 142.7 175.603 142.602 175.202 142.602C174.8 142.602 174.455 142.7 174.166 142.896C173.886 143.083 173.671 143.339 173.522 143.666C173.372 143.993 173.298 144.366 173.298 144.786V144.828ZM181.138 151.66C181.063 151.66 180.998 151.632 180.942 151.576C180.886 151.52 180.858 151.455 180.858 151.38C180.858 151.343 180.863 151.305 180.872 151.268C180.881 151.231 180.9 151.184 180.928 151.128L182.006 148.566L179.332 142.252C179.285 142.14 179.262 142.061 179.262 142.014C179.262 141.93 179.29 141.86 179.346 141.804C179.402 141.748 179.472 141.72 179.556 141.72H180.242C180.335 141.72 180.41 141.743 180.466 141.79C180.522 141.837 180.559 141.893 180.578 141.958L182.706 147.054L184.89 141.958C184.918 141.893 184.955 141.837 185.002 141.79C185.058 141.743 185.137 141.72 185.24 141.72H185.898C185.982 141.72 186.052 141.748 186.108 141.804C186.164 141.86 186.192 141.925 186.192 142C186.192 142.047 186.169 142.131 186.122 142.252L182.146 151.422C182.118 151.487 182.076 151.543 182.02 151.59C181.973 151.637 181.899 151.66 181.796 151.66H181.138ZM190.025 142.154C189.932 142.154 189.862 142.126 189.815 142.07C189.778 142.005 189.754 141.93 189.745 141.846L189.507 139.382C189.488 139.279 189.507 139.2 189.563 139.144C189.619 139.088 189.694 139.06 189.787 139.06H190.697C190.79 139.06 190.865 139.088 190.921 139.144C190.977 139.2 191 139.279 190.991 139.382L190.739 141.846C190.73 141.93 190.702 142.005 190.655 142.07C190.618 142.126 190.552 142.154 190.459 142.154H190.025ZM187.841 142.154C187.748 142.154 187.678 142.126 187.631 142.07C187.594 142.005 187.57 141.93 187.561 141.846L187.323 139.382C187.314 139.279 187.332 139.2 187.379 139.144C187.435 139.088 187.51 139.06 187.603 139.06H188.513C188.606 139.06 188.681 139.088 188.737 139.144C188.793 139.2 188.816 139.279 188.807 139.382L188.569 141.846C188.56 141.93 188.532 142.005 188.485 142.07C188.438 142.126 188.368 142.154 188.275 142.154H187.841ZM192.954 144.1C192.861 144.1 192.781 144.072 192.716 144.016C192.66 143.951 192.632 143.871 192.632 143.778V142.798C192.632 142.705 192.66 142.63 192.716 142.574C192.781 142.509 192.861 142.476 192.954 142.476H193.948C194.051 142.476 194.13 142.509 194.186 142.574C194.251 142.63 194.284 142.705 194.284 142.798V143.778C194.284 143.871 194.251 143.951 194.186 144.016C194.13 144.072 194.051 144.1 193.948 144.1H192.954ZM192.954 149C192.861 149 192.781 148.972 192.716 148.916C192.66 148.851 192.632 148.771 192.632 148.678V147.698C192.632 147.605 192.66 147.53 192.716 147.474C192.781 147.409 192.861 147.376 192.954 147.376H193.948C194.051 147.376 194.13 147.409 194.186 147.474C194.251 147.53 194.284 147.605 194.284 147.698V148.678C194.284 148.771 194.251 148.851 194.186 148.916C194.13 148.972 194.051 149 193.948 149H192.954ZM202.166 142.154C202.072 142.154 202.002 142.126 201.956 142.07C201.918 142.005 201.895 141.93 201.886 141.846L201.648 139.382C201.629 139.279 201.648 139.2 201.704 139.144C201.76 139.088 201.834 139.06 201.928 139.06H202.838C202.931 139.06 203.006 139.088 203.062 139.144C203.118 139.2 203.141 139.279 203.132 139.382L202.88 141.846C202.87 141.93 202.842 142.005 202.796 142.07C202.758 142.126 202.693 142.154 202.6 142.154H202.166ZM199.982 142.154C199.888 142.154 199.818 142.126 199.772 142.07C199.734 142.005 199.711 141.93 199.702 141.846L199.464 139.382C199.454 139.279 199.473 139.2 199.52 139.144C199.576 139.088 199.65 139.06 199.744 139.06H200.654C200.747 139.06 200.822 139.088 200.878 139.144C200.934 139.2 200.957 139.279 200.948 139.382L200.71 141.846C200.7 141.93 200.672 142.005 200.626 142.07C200.579 142.126 200.509 142.154 200.416 142.154H199.982ZM207.486 149C207.346 149 207.234 148.967 207.15 148.902C207.075 148.837 207.015 148.753 206.968 148.65L204.378 142.154C204.359 142.107 204.35 142.061 204.35 142.014C204.35 141.93 204.378 141.86 204.434 141.804C204.49 141.748 204.56 141.72 204.644 141.72H205.316C205.419 141.72 205.498 141.748 205.554 141.804C205.61 141.86 205.643 141.911 205.652 141.958L207.794 147.474L209.922 141.958C209.941 141.911 209.973 141.86 210.02 141.804C210.076 141.748 210.155 141.72 210.258 141.72H210.944C211.019 141.72 211.084 141.748 211.14 141.804C211.205 141.86 211.238 141.93 211.238 142.014C211.238 142.061 211.229 142.107 211.21 142.154L208.606 148.65C208.569 148.753 208.508 148.837 208.424 148.902C208.349 148.967 208.237 149 208.088 149H207.486ZM214.461 149.14C213.994 149.14 213.569 149.047 213.187 148.86C212.804 148.673 212.496 148.421 212.263 148.104C212.029 147.787 211.913 147.427 211.913 147.026C211.913 146.382 212.174 145.869 212.697 145.486C213.219 145.103 213.901 144.851 214.741 144.73L216.827 144.436V144.03C216.827 143.582 216.696 143.232 216.435 142.98C216.183 142.728 215.767 142.602 215.189 142.602C214.769 142.602 214.428 142.686 214.167 142.854C213.915 143.022 213.737 143.237 213.635 143.498C213.579 143.638 213.481 143.708 213.341 143.708H212.711C212.608 143.708 212.529 143.68 212.473 143.624C212.426 143.559 212.403 143.484 212.403 143.4C212.403 143.26 212.454 143.087 212.557 142.882C212.669 142.677 212.837 142.476 213.061 142.28C213.285 142.084 213.569 141.921 213.915 141.79C214.269 141.65 214.699 141.58 215.203 141.58C215.763 141.58 216.234 141.655 216.617 141.804C216.999 141.944 217.298 142.135 217.513 142.378C217.737 142.621 217.895 142.896 217.989 143.204C218.091 143.512 218.143 143.825 218.143 144.142V148.678C218.143 148.771 218.11 148.851 218.045 148.916C217.989 148.972 217.914 149 217.821 149H217.177C217.074 149 216.995 148.972 216.939 148.916C216.883 148.851 216.855 148.771 216.855 148.678V148.076C216.733 148.244 216.57 148.412 216.365 148.58C216.159 148.739 215.903 148.874 215.595 148.986C215.287 149.089 214.909 149.14 214.461 149.14ZM214.755 148.09C215.137 148.09 215.487 148.011 215.805 147.852C216.122 147.684 216.369 147.427 216.547 147.082C216.733 146.737 216.827 146.303 216.827 145.78V145.388L215.203 145.626C214.54 145.719 214.041 145.878 213.705 146.102C213.369 146.317 213.201 146.592 213.201 146.928C213.201 147.189 213.275 147.409 213.425 147.586C213.583 147.754 213.779 147.88 214.013 147.964C214.255 148.048 214.503 148.09 214.755 148.09ZM220.491 149C220.398 149 220.318 148.972 220.253 148.916C220.197 148.851 220.169 148.771 220.169 148.678V139.382C220.169 139.289 220.197 139.214 220.253 139.158C220.318 139.093 220.398 139.06 220.491 139.06H221.149C221.252 139.06 221.331 139.093 221.387 139.158C221.443 139.214 221.471 139.289 221.471 139.382V148.678C221.471 148.771 221.443 148.851 221.387 148.916C221.331 148.972 221.252 149 221.149 149H220.491ZM226.275 149.14C225.678 149.14 225.169 149.009 224.749 148.748C224.339 148.477 224.026 148.104 223.811 147.628C223.597 147.152 223.489 146.606 223.489 145.99V142.042C223.489 141.949 223.517 141.874 223.573 141.818C223.639 141.753 223.718 141.72 223.811 141.72H224.511C224.605 141.72 224.679 141.753 224.735 141.818C224.801 141.874 224.833 141.949 224.833 142.042V145.92C224.833 147.311 225.44 148.006 226.653 148.006C227.232 148.006 227.694 147.824 228.039 147.46C228.394 147.087 228.571 146.573 228.571 145.92V142.042C228.571 141.949 228.599 141.874 228.655 141.818C228.721 141.753 228.8 141.72 228.893 141.72H229.579C229.682 141.72 229.761 141.753 229.817 141.818C229.873 141.874 229.901 141.949 229.901 142.042V148.678C229.901 148.771 229.873 148.851 229.817 148.916C229.761 148.972 229.682 149 229.579 149H228.935C228.842 149 228.763 148.972 228.697 148.916C228.641 148.851 228.613 148.771 228.613 148.678V148.062C228.361 148.389 228.053 148.65 227.689 148.846C227.335 149.042 226.863 149.14 226.275 149.14ZM234.879 149.14C233.918 149.14 233.153 148.846 232.583 148.258C232.014 147.661 231.701 146.849 231.645 145.822C231.636 145.701 231.631 145.547 231.631 145.36C231.631 145.164 231.636 145.005 231.645 144.884C231.683 144.221 231.837 143.643 232.107 143.148C232.378 142.644 232.747 142.257 233.213 141.986C233.689 141.715 234.245 141.58 234.879 141.58C235.589 141.58 236.181 141.729 236.657 142.028C237.143 142.327 237.511 142.751 237.763 143.302C238.015 143.853 238.141 144.497 238.141 145.234V145.472C238.141 145.575 238.109 145.654 238.043 145.71C237.987 145.766 237.913 145.794 237.819 145.794H232.975C232.975 145.803 232.975 145.822 232.975 145.85C232.975 145.878 232.975 145.901 232.975 145.92C232.994 146.303 233.078 146.662 233.227 146.998C233.377 147.325 233.591 147.591 233.871 147.796C234.151 148.001 234.487 148.104 234.879 148.104C235.215 148.104 235.495 148.053 235.719 147.95C235.943 147.847 236.125 147.735 236.265 147.614C236.405 147.483 236.499 147.385 236.545 147.32C236.629 147.199 236.695 147.129 236.741 147.11C236.788 147.082 236.863 147.068 236.965 147.068H237.637C237.731 147.068 237.805 147.096 237.861 147.152C237.927 147.199 237.955 147.269 237.945 147.362C237.936 147.502 237.861 147.675 237.721 147.88C237.581 148.076 237.381 148.272 237.119 148.468C236.858 148.664 236.541 148.827 236.167 148.958C235.794 149.079 235.365 149.14 234.879 149.14ZM232.975 144.828H236.811V144.786C236.811 144.366 236.732 143.993 236.573 143.666C236.424 143.339 236.205 143.083 235.915 142.896C235.626 142.7 235.281 142.602 234.879 142.602C234.478 142.602 234.133 142.7 233.843 142.896C233.563 143.083 233.349 143.339 233.199 143.666C233.05 143.993 232.975 144.366 232.975 144.786V144.828ZM241.869 142.154C241.775 142.154 241.705 142.126 241.659 142.07C241.621 142.005 241.598 141.93 241.589 141.846L241.351 139.382C241.332 139.279 241.351 139.2 241.407 139.144C241.463 139.088 241.537 139.06 241.631 139.06H242.541C242.634 139.06 242.709 139.088 242.765 139.144C242.821 139.2 242.844 139.279 242.835 139.382L242.583 141.846C242.573 141.93 242.545 142.005 242.499 142.07C242.461 142.126 242.396 142.154 242.303 142.154H241.869ZM239.685 142.154C239.591 142.154 239.521 142.126 239.475 142.07C239.437 142.005 239.414 141.93 239.405 141.846L239.167 139.382C239.157 139.279 239.176 139.2 239.223 139.144C239.279 139.088 239.353 139.06 239.447 139.06H240.357C240.45 139.06 240.525 139.088 240.581 139.144C240.637 139.2 240.66 139.279 240.651 139.382L240.413 141.846C240.403 141.93 240.375 142.005 240.329 142.07C240.282 142.126 240.212 142.154 240.119 142.154H239.685ZM244.361 138.136C244.912 138.136 245.364 138.225 245.719 138.402C246.083 138.579 246.368 138.841 246.573 139.186C246.778 139.531 246.923 139.956 247.007 140.46C247.1 140.964 247.147 141.543 247.147 142.196C247.147 142.681 247.208 143.055 247.329 143.316C247.46 143.577 247.656 143.792 247.917 143.96L248.015 144.016C248.248 144.165 248.365 144.343 248.365 144.548V144.828C248.365 145.033 248.248 145.206 248.015 145.346L247.903 145.416C247.642 145.584 247.45 145.799 247.329 146.06C247.208 146.321 247.147 146.695 247.147 147.18C247.147 147.833 247.1 148.412 247.007 148.916C246.923 149.411 246.778 149.826 246.573 150.162C246.368 150.507 246.083 150.769 245.719 150.946C245.364 151.133 244.916 151.226 244.375 151.226H244.291C244.198 151.226 244.123 151.198 244.067 151.142C244.011 151.086 243.983 151.011 243.983 150.918V150.4C243.983 150.307 244.011 150.232 244.067 150.176C244.123 150.12 244.198 150.092 244.291 150.092H244.347C244.804 150.073 245.14 149.957 245.355 149.742C245.579 149.527 245.724 149.191 245.789 148.734C245.864 148.267 245.901 147.661 245.901 146.914C245.901 146.345 245.985 145.878 246.153 145.514C246.33 145.15 246.592 144.875 246.937 144.688C246.713 144.548 246.522 144.375 246.363 144.17C246.214 143.965 246.097 143.722 246.013 143.442C245.938 143.153 245.901 142.826 245.901 142.462C245.901 141.706 245.864 141.099 245.789 140.642C245.724 140.175 245.584 139.835 245.369 139.62C245.154 139.396 244.818 139.279 244.361 139.27H244.291C244.198 139.27 244.123 139.242 244.067 139.186C244.011 139.13 243.983 139.055 243.983 138.962V138.444C243.983 138.351 244.011 138.276 244.067 138.22C244.123 138.164 244.198 138.136 244.291 138.136H244.361Z" fill="#80708F"/>
</g>
</g>
<defs>
<filter id="filter0_i_1586_673" x="138" y="25" width="631" height="41" filterUnits="userSpaceOnUse" color-interpolation-filters="sRGB">
<feFlood flood-opacity="0" result="BackgroundImageFix"/>
<feBlend mode="normal" in="SourceGraphic" in2="BackgroundImageFix" result="shape"/>
<feColorMatrix in="SourceAlpha" type="matrix" values="0 0 0 0 0 0 0 0 0 0 0 0 0 0 0 0 0 0 127 0" result="hardAlpha"/>
<feOffset dy="1"/>
<feGaussianBlur stdDeviation="1"/>
<feComposite in2="hardAlpha" operator="arithmetic" k2="-1" k3="1"/>
<feColorMatrix type="matrix" values="0 0 0 0 0.168627 0 0 0 0 0.133333 0 0 0 0 0.2 0 0 0 0.04 0"/>
<feBlend mode="normal" in2="shape" result="effect1_innerShadow_1586_673"/>
</filter>
<filter id="filter1_d_1586_673" x="137" y="76.8" width="633" height="42" filterUnits="userSpaceOnUse" color-interpolation-filters="sRGB">
<feFlood flood-opacity="0" result="BackgroundImageFix"/>
<feColorMatrix in="SourceAlpha" type="matrix" values="0 0 0 0 0 0 0 0 0 0 0 0 0 0 0 0 0 0 127 0" result="hardAlpha"/>
<feOffset/>
<feGaussianBlur stdDeviation="0.5"/>
<feComposite in2="hardAlpha" operator="out"/>
<feColorMatrix type="matrix" values="0 0 0 0 0.168627 0 0 0 0 0.133333 0 0 0 0 0.2 0 0 0 0.04 0"/>
<feBlend mode="normal" in2="BackgroundImageFix" result="effect1_dropShadow_1586_673"/>
<feBlend mode="normal" in="SourceGraphic" in2="effect1_dropShadow_1586_673" result="shape"/>
</filter>
<filter id="filter2_i_1586_673" x="138" y="295" width="309.5" height="41" filterUnits="userSpaceOnUse" color-interpolation-filters="sRGB">
<feFlood flood-opacity="0" result="BackgroundImageFix"/>
<feBlend mode="normal" in="SourceGraphic" in2="BackgroundImageFix" result="shape"/>
<feColorMatrix in="SourceAlpha" type="matrix" values="0 0 0 0 0 0 0 0 0 0 0 0 0 0 0 0 0 0 127 0" result="hardAlpha"/>
<feOffset dy="1"/>
<feGaussianBlur stdDeviation="1"/>
<feComposite in2="hardAlpha" operator="arithmetic" k2="-1" k3="1"/>
<feColorMatrix type="matrix" values="0 0 0 0 0.168627 0 0 0 0 0.133333 0 0 0 0 0.2 0 0 0 0.04 0"/>
<feBlend mode="normal" in2="shape" result="effect1_innerShadow_1586_673"/>
</filter>
<filter id="filter3_i_1586_673" x="459.5" y="295" width="309.5" height="41" filterUnits="userSpaceOnUse" color-interpolation-filters="sRGB">
<feFlood flood-opacity="0" result="BackgroundImageFix"/>
<feBlend mode="normal" in="SourceGraphic" in2="BackgroundImageFix" result="shape"/>
<feColorMatrix in="SourceAlpha" type="matrix" values="0 0 0 0 0 0 0 0 0 0 0 0 0 0 0 0 0 0 127 0" result="hardAlpha"/>
<feOffset dy="1"/>
<feGaussianBlur stdDeviation="1"/>
<feComposite in2="hardAlpha" operator="arithmetic" k2="-1" k3="1"/>
<feColorMatrix type="matrix" values="0 0 0 0 0.168627 0 0 0 0 0.133333 0 0 0 0 0.2 0 0 0 0.04 0"/>
<feBlend mode="normal" in2="shape" result="effect1_innerShadow_1586_673"/>
</filter>
<filter id="filter4_i_1586_673" x="138" y="129" width="631" height="155" filterUnits="userSpaceOnUse" color-interpolation-filters="sRGB">
<feFlood flood-opacity="0" result="BackgroundImageFix"/>
<feBlend mode="normal" in="SourceGraphic" in2="BackgroundImageFix" result="shape"/>
<feColorMatrix in="SourceAlpha" type="matrix" values="0 0 0 0 0 0 0 0 0 0 0 0 0 0 0 0 0 0 127 0" result="hardAlpha"/>
<feOffset dy="1"/>
<feGaussianBlur stdDeviation="1"/>
<feComposite in2="hardAlpha" operator="arithmetic" k2="-1" k3="1"/>
<feColorMatrix type="matrix" values="0 0 0 0 0.168627 0 0 0 0 0.133333 0 0 0 0 0.2 0 0 0 0.04 0"/>
<feBlend mode="normal" in2="shape" result="effect1_innerShadow_1586_673"/>
</filter>
<clipPath id="clip0_1586_673">
<rect width="793" height="361" fill="white"/>
</clipPath>
</defs>
</svg>
