<svg xmlns="http://www.w3.org/2000/svg" width="792" height="174" fill="none"><path fill="#fff" d="M0 .594h792V173.18H0z"/><path fill="#fff" stroke="#E0DCE5" d="M781 5.594H11a6 6 0 0 0-6 6V162.18a6 6 0 0 0 6 6h770a6 6 0 0 0 6-6V11.594a6 6 0 0 0-6-6Z"/><path stroke="#E0DCE5" stroke-linecap="square" d="M6 58.79h780"/><path fill="#3E3446" d="M27.712 40.254c-1.013 0-1.883-.166-2.608-.496a3.856 3.856 0 0 1-1.68-1.456c-.395-.64-.613-1.435-.656-2.384a61.845 61.845 0 0 1 0-2.848c.043-.928.267-1.712.672-2.352.405-.65.97-1.142 1.696-1.472.725-.342 1.584-.512 2.576-.512.704 0 1.355.09 1.952.272a4.68 4.68 0 0 1 1.568.768c.448.33.795.736 1.04 1.216.256.47.39 1.002.4 1.6a.261.261 0 0 1-.096.24.326.326 0 0 1-.24.096h-2.16a.545.545 0 0 1-.32-.08c-.075-.064-.139-.176-.192-.336-.15-.566-.395-.95-.736-1.152-.33-.214-.741-.32-1.232-.32-.587 0-1.05.165-1.392.496-.341.32-.528.858-.56 1.616-.032.874-.032 1.77 0 2.688.032.757.219 1.301.56 1.632.341.32.805.48 1.392.48.49 0 .907-.107 1.248-.32.341-.214.581-.598.72-1.152.043-.16.101-.267.176-.32a.546.546 0 0 1 .336-.096h2.16c.096 0 .176.032.24.096a.261.261 0 0 1 .096.24 3.517 3.517 0 0 1-.4 1.616 3.64 3.64 0 0 1-1.04 1.216c-.448.33-.97.586-1.568.768a7.082 7.082 0 0 1-1.952.256Zm6.866-.16a.39.39 0 0 1-.288-.112.39.39 0 0 1-.112-.288v-10.56a.39.39 0 0 1 .112-.288.39.39 0 0 1 .288-.112h2.048a.39.39 0 0 1 .288.112.39.39 0 0 1 .112.288v3.568c.288-.33.64-.592 1.056-.784.427-.203.918-.304 1.472-.304.619 0 1.168.138 1.648.416.491.277.875.688 1.152 1.232.278.533.416 1.19.416 1.968v4.464a.39.39 0 0 1-.112.288.39.39 0 0 1-.288.112h-2.064a.426.426 0 0 1-.288-.112.39.39 0 0 1-.112-.288v-4.368c0-.502-.122-.886-.368-1.152-.234-.278-.586-.416-1.056-.416-.437 0-.789.138-1.056.416-.266.266-.4.65-.4 1.152v4.368a.39.39 0 0 1-.112.288.39.39 0 0 1-.288.112h-2.048Zm13.847.16c-1.259 0-2.262-.342-3.008-1.024-.747-.683-1.136-1.696-1.168-3.04v-.56c.032-.843.218-1.563.56-2.16a3.44 3.44 0 0 1 1.44-1.376c.618-.32 1.338-.48 2.16-.48.938 0 1.712.186 2.32.56.618.373 1.082.88 1.392 1.52.309.64.464 1.37.464 2.192v.384a.365.365 0 0 1-.128.288.37.37 0 0 1-.272.112h-5.12v.112c.01.31.064.592.16.848s.245.458.448.608c.202.15.448.224.736.224.213 0 .389-.032.528-.096.149-.075.272-.155.368-.24.096-.096.17-.176.224-.24.096-.107.17-.17.224-.192a.669.669 0 0 1 .288-.048h1.984c.106 0 .192.032.256.096.074.053.106.133.096.24-.011.181-.102.4-.272.656-.171.256-.422.512-.752.768-.32.245-.726.448-1.216.608-.491.16-1.062.24-1.712.24Zm-1.36-5.168h2.704v-.032c0-.342-.054-.64-.16-.896a1.175 1.175 0 0 0-.464-.592 1.272 1.272 0 0 0-.736-.208c-.288 0-.534.07-.736.208a1.347 1.347 0 0 0-.448.592c-.107.256-.16.554-.16.896v.032Zm10.844 5.168c-.79 0-1.488-.144-2.096-.432a3.529 3.529 0 0 1-1.456-1.248c-.352-.555-.544-1.216-.576-1.984-.011-.17-.016-.384-.016-.64 0-.267.005-.486.016-.656.032-.779.224-1.44.576-1.984a3.383 3.383 0 0 1 1.44-1.264c.618-.288 1.322-.432 2.112-.432.736 0 1.365.106 1.888.32.522.202.949.458 1.28.768.33.31.576.63.736.96.17.32.261.602.272.848a.345.345 0 0 1-.112.288.426.426 0 0 1-.288.112h-2.032a.413.413 0 0 1-.272-.08.737.737 0 0 1-.176-.24c-.128-.33-.294-.566-.496-.704-.192-.139-.443-.208-.752-.208-.427 0-.758.138-.992.416-.224.277-.347.704-.368 1.28-.011.426-.011.805 0 1.136.021.586.144 1.013.368 1.28.234.266.565.4.992.4.33 0 .592-.07.784-.208.192-.139.346-.374.464-.704a.74.74 0 0 1 .176-.24.414.414 0 0 1 .272-.08h2.032c.106 0 .202.042.288.128a.304.304 0 0 1 .112.272c-.011.181-.064.394-.16.64a3.388 3.388 0 0 1-.448.752c-.203.266-.47.517-.8.752-.32.224-.71.405-1.168.544-.459.138-.992.208-1.6.208Zm6.013-.16a.39.39 0 0 1-.288-.112.39.39 0 0 1-.112-.288v-10.56a.39.39 0 0 1 .112-.288.39.39 0 0 1 .288-.112h1.856a.37.37 0 0 1 .272.112c.085.074.128.17.128.288v5.36l2.224-2.448c.064-.075.133-.139.208-.192a.546.546 0 0 1 .32-.08h2.144c.096 0 .176.037.24.112a.303.303 0 0 1 .112.24c0 .042-.01.09-.032.144a.29.29 0 0 1-.096.128l-2.88 3.104 3.28 3.984c.086.085.128.17.128.256a.352.352 0 0 1-.112.256.346.346 0 0 1-.256.096h-2.192c-.16 0-.277-.027-.352-.08a3.715 3.715 0 0 1-.208-.192l-2.528-3.04v2.912a.365.365 0 0 1-.128.288.37.37 0 0 1-.272.112h-1.856Zm8.828-3.648a.39.39 0 0 1-.288-.112.39.39 0 0 1-.112-.288v-1.504a.39.39 0 0 1 .112-.288.39.39 0 0 1 .287-.112h5.008a.39.39 0 0 1 .288.112.39.39 0 0 1 .112.288v1.504a.39.39 0 0 1-.111.288.39.39 0 0 1-.289.112H72.75Zm7.786 3.648a.39.39 0 0 1-.288-.112.39.39 0 0 1-.112-.288v-10.4a.39.39 0 0 1 .112-.288.39.39 0 0 1 .288-.112h2.144a.39.39 0 0 1 .288.112.39.39 0 0 1 .112.288v10.4a.39.39 0 0 1-.112.288.39.39 0 0 1-.288.112h-2.144Zm5.011 0a.39.39 0 0 1-.288-.112.39.39 0 0 1-.112-.288v-7.52a.39.39 0 0 1 .112-.288.39.39 0 0 1 .288-.112h1.84a.39.39 0 0 1 .288.112.39.39 0 0 1 .112.288v.608c.277-.33.64-.608 1.088-.832.448-.224.976-.336 1.584-.336.619 0 1.163.138 1.632.416.48.277.854.688 1.12 1.232.278.533.416 1.19.416 1.968v4.464a.365.365 0 0 1-.128.288.37.37 0 0 1-.272.112h-2.016a.426.426 0 0 1-.288-.112.39.39 0 0 1-.112-.288v-4.368c0-.502-.123-.886-.368-1.152-.234-.278-.587-.416-1.056-.416-.437 0-.79.138-1.056.416-.256.266-.384.65-.384 1.152v4.368a.365.365 0 0 1-.128.288.37.37 0 0 1-.272.112h-2Zm13.29.16c-.694 0-1.286-.075-1.776-.224-.48-.16-.875-.352-1.184-.576-.299-.224-.523-.454-.672-.688-.15-.246-.23-.454-.24-.624a.323.323 0 0 1 .112-.288.382.382 0 0 1 .272-.128h1.824c.032 0 .058.005.08.016.021.01.053.032.096.064.138.074.277.17.416.288.138.106.298.202.48.288.181.085.4.128.656.128.298 0 .55-.059.752-.176a.572.572 0 0 0 .304-.528c0-.17-.048-.31-.144-.416-.096-.118-.294-.23-.592-.336-.288-.107-.726-.214-1.312-.32a6.835 6.835 0 0 1-1.456-.496c-.416-.214-.736-.486-.96-.816-.224-.342-.336-.752-.336-1.232 0-.427.138-.838.416-1.232.277-.395.682-.715 1.216-.96.533-.256 1.19-.384 1.968-.384.618 0 1.152.074 1.6.224.458.138.842.32 1.152.544.32.224.56.453.72.688.16.234.245.448.256.64a.371.371 0 0 1-.096.288.353.353 0 0 1-.256.112h-1.664a.518.518 0 0 1-.128-.016.998.998 0 0 1-.112-.064 2.003 2.003 0 0 1-.384-.256 2.318 2.318 0 0 0-.448-.288 1.425 1.425 0 0 0-.64-.128c-.288 0-.512.064-.672.192a.606.606 0 0 0-.24.496c0 .138.042.266.128.384.096.117.282.224.56.32.288.096.73.202 1.328.32.736.117 1.322.31 1.76.576.437.256.746.56.928.912.181.341.272.704.272 1.088 0 .512-.155.965-.464 1.36-.299.394-.747.704-1.344.928-.598.213-1.323.32-2.176.32Z"/><path fill="#80708F" d="M152.54 37.315c-.408 0-.796-.048-1.164-.144a3.128 3.128 0 0 1-.972-.468 2.426 2.426 0 0 1-.672-.804 2.607 2.607 0 0 1-.276-1.128c0-.072.024-.132.072-.18a.24.24 0 0 1 .192-.084h.648c.088 0 .156.028.204.084a.33.33 0 0 1 .108.192c.032.36.136.652.312.876.176.216.4.376.672.48.272.104.572.156.9.156.608 0 1.072-.2 1.392-.6.32-.4.48-.932.48-1.596v-4.26h-4.26a.303.303 0 0 1-.204-.072.303.303 0 0 1-.072-.204v-.492a.26.26 0 0 1 .072-.192.278.278 0 0 1 .204-.084h5.172c.088 0 .156.028.204.084a.254.254 0 0 1 .084.204v5.04c0 .648-.124 1.212-.372 1.692s-.6.852-1.056 1.116c-.456.256-1.012.384-1.668.384Zm6.647 0c-.4 0-.764-.08-1.092-.24a2.112 2.112 0 0 1-.792-.648c-.2-.272-.3-.58-.3-.924 0-.552.224-.992.672-1.32.448-.328 1.032-.544 1.752-.648l1.788-.252v-.348c0-.384-.112-.684-.336-.9-.216-.216-.572-.324-1.068-.324-.36 0-.652.072-.876.216a1.17 1.17 0 0 0-.456.552c-.048.12-.132.18-.252.18h-.54c-.088 0-.156-.024-.204-.072a.322.322 0 0 1-.06-.192c0-.12.044-.268.132-.444.096-.176.24-.348.432-.516.192-.168.436-.308.732-.42.304-.12.672-.18 1.104-.18.48 0 .884.064 1.212.192.328.12.584.284.768.492.192.208.328.444.408.708.088.264.132.532.132.804v3.888c0 .08-.028.148-.084.204a.26.26 0 0 1-.192.072h-.552c-.088 0-.156-.024-.204-.072a.303.303 0 0 1-.072-.204v-.516a2.345 2.345 0 0 1-.42.432 2.434 2.434 0 0 1-.66.348 3.102 3.102 0 0 1-.972.132Zm.252-.9c.328 0 .628-.068.9-.204.272-.144.484-.364.636-.66.16-.296.24-.668.24-1.116V34.1l-1.392.204c-.568.08-.996.216-1.284.408-.288.184-.432.42-.432.708 0 .224.064.412.192.564.136.144.304.252.504.324.208.072.42.108.636.108Zm4.905.78a.303.303 0 0 1-.204-.072.303.303 0 0 1-.072-.204v-5.688a.26.26 0 0 1 .072-.192.278.278 0 0 1 .204-.084h.564a.24.24 0 0 1 .192.084.24.24 0 0 1 .084.192v.528c.208-.272.468-.492.78-.66.32-.176.728-.264 1.224-.264.52 0 .96.116 1.32.348.368.224.644.54.828.948.184.4.276.868.276 1.404v3.384c0 .08-.024.148-.072.204a.26.26 0 0 1-.192.072h-.6a.303.303 0 0 1-.204-.072.303.303 0 0 1-.072-.204v-3.324c0-.56-.136-.996-.408-1.308-.272-.32-.672-.48-1.2-.48-.496 0-.896.16-1.2.48-.296.312-.444.748-.444 1.308v3.324c0 .08-.028.148-.084.204a.26.26 0 0 1-.192.072h-.6Zm12.366 0a.303.303 0 0 1-.204-.072.303.303 0 0 1-.072-.204V30.2l-1.992 1.536a.28.28 0 0 1-.204.06.254.254 0 0 1-.18-.108l-.312-.396a.32.32 0 0 1-.06-.216.303.303 0 0 1 .12-.18l2.616-2.016a.385.385 0 0 1 .156-.072.95.95 0 0 1 .156-.012h.612a.24.24 0 0 1 .192.084.26.26 0 0 1 .072.192v7.848c0 .08-.024.148-.072.204a.26.26 0 0 1-.192.072h-.636Zm5.625.12c-.552 0-1.02-.084-1.404-.252a2.512 2.512 0 0 1-.924-.72 2.992 2.992 0 0 1-.528-1.044 5.656 5.656 0 0 1-.18-1.248l-.024-.684v-.72l.024-.708c.008-.44.068-.856.18-1.248.12-.4.296-.748.528-1.044.24-.304.552-.54.936-.708.384-.176.848-.264 1.392-.264.552 0 1.016.088 1.392.264.384.168.696.404.936.708.24.296.416.644.528 1.044.12.392.184.808.192 1.248.008.224.012.46.012.708.008.24.008.48 0 .72 0 .24-.004.468-.012.684-.008.44-.072.856-.192 1.248-.112.392-.288.74-.528 1.044-.232.304-.54.544-.924.72-.376.168-.844.252-1.404.252Zm0-1.02c.624 0 1.084-.204 1.38-.612.304-.416.46-.98.468-1.692.016-.232.024-.456.024-.672v-.66c0-.224-.008-.444-.024-.66-.008-.696-.164-1.252-.468-1.668-.296-.424-.756-.636-1.38-.636-.616 0-1.076.212-1.38.636-.296.416-.452.972-.468 1.668 0 .216-.004.436-.012.66v.66c.008.216.012.44.012.672.016.712.176 1.276.48 1.692.304.408.76.612 1.368.612Zm4.442 1.8a.193.193 0 0 1-.156-.072.263.263 0 0 1-.036-.18l.276-1.716a.542.542 0 0 1 .096-.24.286.286 0 0 1 .24-.108h.804c.056 0 .1.02.132.06.04.04.06.088.06.144a.426.426 0 0 1-.048.192l-.624 1.644a.484.484 0 0 1-.132.192c-.048.056-.12.084-.216.084h-.396Zm8.929-.78c-.552 0-1.02-.084-1.404-.252a2.512 2.512 0 0 1-.924-.72 2.992 2.992 0 0 1-.528-1.044 5.656 5.656 0 0 1-.18-1.248l-.024-.684v-.72l.024-.708c.008-.44.068-.856.18-1.248.12-.4.296-.748.528-1.044.24-.304.552-.54.936-.708.384-.176.848-.264 1.392-.264.552 0 1.016.088 1.392.264.384.168.696.404.936.708.24.296.416.644.528 1.044.12.392.184.808.192 1.248.008.224.012.46.012.708.008.24.008.48 0 .72 0 .24-.004.468-.012.684-.008.44-.072.856-.192 1.248-.112.392-.288.74-.528 1.044-.232.304-.54.544-.924.72-.376.168-.844.252-1.404.252Zm0-1.02c.624 0 1.084-.204 1.38-.612.304-.416.46-.98.468-1.692.016-.232.024-.456.024-.672v-.66c0-.224-.008-.444-.024-.66-.008-.696-.164-1.252-.468-1.668-.296-.424-.756-.636-1.38-.636-.616 0-1.076.212-1.38.636-.296.416-.452.972-.468 1.668 0 .216-.004.436-.012.66v.66c.008.216.012.44.012.672.016.712.176 1.276.48 1.692.304.408.76.612 1.368.612Zm6.13.9a.244.244 0 0 1-.18-.072.322.322 0 0 1-.06-.192c0-.04.004-.072.012-.096a.587.587 0 0 0 .036-.06l1.836-2.556c-.2.048-.416.072-.648.072a3.144 3.144 0 0 1-1.2-.24 2.759 2.759 0 0 1-.9-.612 2.745 2.745 0 0 1-.564-.888 2.814 2.814 0 0 1-.192-1.032c0-.352.06-.696.18-1.032a2.85 2.85 0 0 1 .564-.912c.256-.272.572-.488.948-.648.376-.168.82-.252 1.332-.252.504 0 .944.08 1.32.24.384.152.704.364.96.636.264.264.456.564.576.9.128.336.192.684.192 1.044 0 .328-.048.628-.144.9a3.647 3.647 0 0 1-.348.732 9.801 9.801 0 0 1-.384.6l-2.304 3.228c-.032.04-.076.092-.132.156-.056.056-.14.084-.252.084h-.648ZM203 33.32c.336 0 .644-.072.924-.216.288-.152.516-.36.684-.624.168-.272.252-.596.252-.972s-.084-.696-.252-.96a1.662 1.662 0 0 0-.684-.624 1.905 1.905 0 0 0-.924-.228c-.328 0-.632.076-.912.228a1.68 1.68 0 0 0-.672.624c-.168.264-.252.584-.252.96s.084.7.252.972a1.8 1.8 0 0 0 .672.624c.28.144.584.216.912.216Zm4.737-.324a.303.303 0 0 1-.204-.072.303.303 0 0 1-.072-.204v-.84a.26.26 0 0 1 .072-.192.278.278 0 0 1 .204-.084h.852c.088 0 .156.028.204.084a.24.24 0 0 1 .084.192v.84c0 .08-.028.148-.084.204-.048.048-.116.072-.204.072h-.852Zm0 4.2a.303.303 0 0 1-.204-.072.303.303 0 0 1-.072-.204v-.84a.26.26 0 0 1 .072-.192.278.278 0 0 1 .204-.084h.852c.088 0 .156.028.204.084a.24.24 0 0 1 .084.192v.84c0 .08-.028.148-.084.204-.048.048-.116.072-.204.072h-.852Zm5.47.12c-.632 0-1.168-.108-1.608-.324-.432-.224-.764-.512-.996-.864a2.219 2.219 0 0 1-.36-1.116c-.008-.072.012-.128.06-.168a.272.272 0 0 1 .18-.06h.648a.38.38 0 0 1 .192.048c.056.032.1.1.132.204.08.296.208.54.384.732.184.184.392.32.624.408.24.08.488.12.744.12.344 0 .656-.068.936-.204.288-.144.516-.352.684-.624.168-.28.252-.616.252-1.008 0-.36-.084-.668-.252-.924a1.53 1.53 0 0 0-.672-.6 2.042 2.042 0 0 0-.948-.216c-.264 0-.48.032-.648.096-.168.064-.312.14-.432.228a4.997 4.997 0 0 1-.312.228.497.497 0 0 1-.3.096h-.624a.287.287 0 0 1-.192-.072.226.226 0 0 1-.072-.192l.384-4.008a.335.335 0 0 1 .084-.216.292.292 0 0 1 .216-.084h4.188a.24.24 0 0 1 .192.084.24.24 0 0 1 .084.192v.468a.254.254 0 0 1-.084.204.26.26 0 0 1-.192.072h-3.456l-.228 2.364c.112-.072.292-.156.54-.252.248-.104.588-.156 1.02-.156.392 0 .76.06 1.104.18.352.12.664.296.936.528.272.232.484.516.636.852.152.328.228.708.228 1.14 0 .608-.136 1.124-.408 1.548a2.576 2.576 0 0 1-1.092.972c-.456.216-.98.324-1.572.324Zm7.425 0c-.552 0-1.02-.084-1.404-.252a2.512 2.512 0 0 1-.924-.72 2.992 2.992 0 0 1-.528-1.044 5.656 5.656 0 0 1-.18-1.248l-.024-.684v-.72l.024-.708c.008-.44.068-.856.18-1.248.12-.4.296-.748.528-1.044.24-.304.552-.54.936-.708.384-.176.848-.264 1.392-.264.552 0 1.016.088 1.392.264.384.168.696.404.936.708.24.296.416.644.528 1.044.12.392.184.808.192 1.248.008.224.012.46.012.708.008.24.008.48 0 .72 0 .24-.004.468-.012.684-.008.44-.072.856-.192 1.248-.112.392-.288.74-.528 1.044-.232.304-.54.544-.924.72-.376.168-.844.252-1.404.252Zm0-1.02c.624 0 1.084-.204 1.38-.612.304-.416.46-.98.468-1.692.016-.232.024-.456.024-.672v-.66c0-.224-.008-.444-.024-.66-.008-.696-.164-1.252-.468-1.668-.296-.424-.756-.636-1.38-.636-.616 0-1.076.212-1.38.636-.296.416-.452.972-.468 1.668 0 .216-.004.436-.012.66v.66c.008.216.012.44.012.672.016.712.176 1.276.48 1.692.304.408.76.612 1.368.612Zm8.075.9c-.088 0-.156-.024-.204-.072a.303.303 0 0 1-.072-.204v-7.836c0-.088.024-.156.072-.204a.254.254 0 0 1 .204-.084h4.956c.088 0 .156.028.204.084.048.048.072.116.072.204v.456c0 .088-.024.156-.072.204-.048.048-.116.072-.204.072h-4.08v2.628h3.816c.088 0 .156.028.204.084.048.048.072.116.072.204v.444c0 .08-.024.148-.072.204-.048.048-.116.072-.204.072h-3.816v2.724h4.176c.088 0 .156.024.204.072.048.048.072.116.072.204v.468c0 .08-.024.148-.072.204-.048.048-.116.072-.204.072h-5.052Zm9.701.12c-.696 0-1.28-.104-1.752-.312-.472-.216-.836-.492-1.092-.828a1.983 1.983 0 0 1-.396-1.092.23.23 0 0 1 .072-.168.264.264 0 0 1 .192-.084h.612c.096 0 .168.024.216.072.048.048.08.104.096.168.04.192.136.384.288.576.16.184.38.34.66.468.288.12.656.18 1.104.18.688 0 1.192-.12 1.512-.36.328-.248.492-.576.492-.984 0-.28-.088-.504-.264-.672-.168-.176-.428-.332-.78-.468a16.479 16.479 0 0 0-1.368-.444 7.927 7.927 0 0 1-1.452-.552c-.384-.2-.672-.448-.864-.744-.184-.296-.276-.672-.276-1.128 0-.432.116-.816.348-1.152.232-.344.564-.616.996-.816.44-.2.972-.3 1.596-.3.496 0 .928.068 1.296.204.376.128.688.304.936.528.248.216.436.452.564.708.128.248.196.492.204.732 0 .056-.02.112-.06.168-.04.048-.104.072-.192.072h-.636a.405.405 0 0 1-.18-.048c-.056-.032-.1-.092-.132-.18-.048-.328-.232-.604-.552-.828-.32-.224-.736-.336-1.248-.336-.52 0-.944.1-1.272.3-.32.2-.48.512-.48.936 0 .272.076.5.228.684.152.176.392.332.72.468.328.136.756.28 1.284.432.64.176 1.164.364 1.572.564.408.192.708.436.9.732.2.288.3.66.3 1.116 0 .504-.132.936-.396 1.296-.264.352-.636.624-1.116.816-.472.184-1.032.276-1.68.276Zm6.783-.12a.303.303 0 0 1-.204-.072.303.303 0 0 1-.072-.204v-7.056h-2.304a.303.303 0 0 1-.204-.072.303.303 0 0 1-.072-.204v-.504c0-.088.024-.156.072-.204a.278.278 0 0 1 .204-.084h5.784c.088 0 .156.028.204.084a.254.254 0 0 1 .084.204v.504c0 .08-.028.148-.084.204-.048.048-.116.072-.204.072h-2.292v7.056c0 .08-.028.148-.084.204-.048.048-.116.072-.204.072h-.624ZM367.312 37.195a.303.303 0 0 1-.204-.072.303.303 0 0 1-.072-.204V30.2l-1.992 1.536a.28.28 0 0 1-.204.06.254.254 0 0 1-.18-.108l-.312-.396a.32.32 0 0 1-.06-.216.303.303 0 0 1 .12-.18l2.616-2.016a.385.385 0 0 1 .156-.072.95.95 0 0 1 .156-.012h.612a.24.24 0 0 1 .192.084.26.26 0 0 1 .072.192v7.848c0 .08-.024.148-.072.204a.26.26 0 0 1-.192.072h-.636Zm5.625.12c-.552 0-1.02-.084-1.404-.252a2.512 2.512 0 0 1-.924-.72 2.992 2.992 0 0 1-.528-1.044 5.656 5.656 0 0 1-.18-1.248l-.024-.684v-.72l.024-.708c.008-.44.068-.856.18-1.248.12-.4.296-.748.528-1.044.24-.304.552-.54.936-.708.384-.176.848-.264 1.392-.264.552 0 1.016.088 1.392.264.384.168.696.404.936.708.24.296.416.644.528 1.044.12.392.184.808.192 1.248.008.224.012.46.012.708.008.24.008.48 0 .72 0 .24-.004.468-.012.684-.008.44-.072.856-.192 1.248-.112.392-.288.74-.528 1.044-.232.304-.54.544-.924.72-.376.168-.844.252-1.404.252Zm0-1.02c.624 0 1.084-.204 1.38-.612.304-.416.46-.98.468-1.692.016-.232.024-.456.024-.672v-.66c0-.224-.008-.444-.024-.66-.008-.696-.164-1.252-.468-1.668-.296-.424-.756-.636-1.38-.636-.616 0-1.076.212-1.38.636-.296.416-.452.972-.468 1.668 0 .216-.004.436-.012.66v.66c.008.216.012.44.012.672.016.712.176 1.276.48 1.692.304.408.76.612 1.368.612Zm4.917-3.3a.303.303 0 0 1-.204-.072.303.303 0 0 1-.072-.204v-.84a.26.26 0 0 1 .072-.192.278.278 0 0 1 .204-.084h.852c.088 0 .156.028.204.084a.24.24 0 0 1 .084.192v.84c0 .08-.028.148-.084.204-.048.048-.116.072-.204.072h-.852Zm0 4.2a.303.303 0 0 1-.204-.072.303.303 0 0 1-.072-.204v-.84a.26.26 0 0 1 .072-.192.278.278 0 0 1 .204-.084h.852c.088 0 .156.028.204.084a.24.24 0 0 1 .084.192v.84c0 .08-.028.148-.084.204-.048.048-.116.072-.204.072h-.852Zm5.278 0a.303.303 0 0 1-.204-.072.303.303 0 0 1-.072-.204V30.2l-1.992 1.536a.28.28 0 0 1-.204.06.254.254 0 0 1-.18-.108l-.312-.396a.32.32 0 0 1-.06-.216.303.303 0 0 1 .12-.18l2.616-2.016a.385.385 0 0 1 .156-.072.95.95 0 0 1 .156-.012h.612a.24.24 0 0 1 .192.084.26.26 0 0 1 .072.192v7.848c0 .08-.024.148-.072.204a.26.26 0 0 1-.192.072h-.636Zm5.625.12c-.552 0-1.02-.084-1.404-.252a2.512 2.512 0 0 1-.924-.72 2.992 2.992 0 0 1-.528-1.044 5.656 5.656 0 0 1-.18-1.248l-.024-.684v-.72l.024-.708c.008-.44.068-.856.18-1.248.12-.4.296-.748.528-1.044.24-.304.552-.54.936-.708.384-.176.848-.264 1.392-.264.552 0 1.016.088 1.392.264.384.168.696.404.936.708.24.296.416.644.528 1.044.12.392.184.808.192 1.248.008.224.012.46.012.708.008.24.008.48 0 .72 0 .24-.004.468-.012.684-.008.44-.072.856-.192 1.248-.112.392-.288.74-.528 1.044-.232.304-.54.544-.924.72-.376.168-.844.252-1.404.252Zm0-1.02c.624 0 1.084-.204 1.38-.612.304-.416.46-.98.468-1.692.016-.232.024-.456.024-.672v-.66c0-.224-.008-.444-.024-.66-.008-.696-.164-1.252-.468-1.668-.296-.424-.756-.636-1.38-.636-.616 0-1.076.212-1.38.636-.296.416-.452.972-.468 1.668 0 .216-.004.436-.012.66v.66c.008.216.012.44.012.672.016.712.176 1.276.48 1.692.304.408.76.612 1.368.612ZM474.812 37.195a.303.303 0 0 1-.204-.072.303.303 0 0 1-.072-.204V30.2l-1.992 1.536a.28.28 0 0 1-.204.06.254.254 0 0 1-.18-.108l-.312-.396a.32.32 0 0 1-.06-.216.303.303 0 0 1 .12-.18l2.616-2.016a.385.385 0 0 1 .156-.072.95.95 0 0 1 .156-.012h.612a.24.24 0 0 1 .192.084.26.26 0 0 1 .072.192v7.848c0 .08-.024.148-.072.204a.26.26 0 0 1-.192.072h-.636Zm5.625.12c-.552 0-1.02-.084-1.404-.252a2.512 2.512 0 0 1-.924-.72 2.992 2.992 0 0 1-.528-1.044 5.656 5.656 0 0 1-.18-1.248l-.024-.684v-.72l.024-.708c.008-.44.068-.856.18-1.248.12-.4.296-.748.528-1.044.24-.304.552-.54.936-.708.384-.176.848-.264 1.392-.264.552 0 1.016.088 1.392.264.384.168.696.404.936.708.24.296.416.644.528 1.044.12.392.184.808.192 1.248.008.224.012.46.012.708.008.24.008.48 0 .72 0 .24-.004.468-.012.684-.008.44-.072.856-.192 1.248-.112.392-.288.74-.528 1.044-.232.304-.54.544-.924.72-.376.168-.844.252-1.404.252Zm0-1.02c.624 0 1.084-.204 1.38-.612.304-.416.46-.98.468-1.692.016-.232.024-.456.024-.672v-.66c0-.224-.008-.444-.024-.66-.008-.696-.164-1.252-.468-1.668-.296-.424-.756-.636-1.38-.636-.616 0-1.076.212-1.38.636-.296.416-.452.972-.468 1.668 0 .216-.004.436-.012.66v.66c.008.216.012.44.012.672.016.712.176 1.276.48 1.692.304.408.76.612 1.368.612Zm4.917-3.3a.303.303 0 0 1-.204-.072.303.303 0 0 1-.072-.204v-.84a.26.26 0 0 1 .072-.192.278.278 0 0 1 .204-.084h.852c.088 0 .156.028.204.084a.24.24 0 0 1 .084.192v.84c0 .08-.028.148-.084.204-.048.048-.116.072-.204.072h-.852Zm0 4.2a.303.303 0 0 1-.204-.072.303.303 0 0 1-.072-.204v-.84a.26.26 0 0 1 .072-.192.278.278 0 0 1 .204-.084h.852c.088 0 .156.028.204.084a.24.24 0 0 1 .084.192v.84c0 .08-.028.148-.084.204-.048.048-.116.072-.204.072h-.852Zm2.83 0a.303.303 0 0 1-.204-.072.303.303 0 0 1-.072-.204v-.384c0-.072.02-.152.06-.24a.91.91 0 0 1 .24-.288l2.544-2.544c.408-.344.728-.636.96-.876.24-.248.408-.484.504-.708.104-.224.156-.456.156-.696 0-.456-.128-.816-.384-1.08-.256-.272-.636-.408-1.14-.408-.32 0-.596.068-.828.204a1.431 1.431 0 0 0-.552.54 2.12 2.12 0 0 0-.252.768c-.016.104-.06.176-.132.216a.343.343 0 0 1-.18.06h-.624a.272.272 0 0 1-.18-.06.23.23 0 0 1-.072-.168c.008-.304.072-.608.192-.912a2.57 2.57 0 0 1 .528-.84c.24-.248.532-.448.876-.6.352-.16.76-.24 1.224-.24.632 0 1.148.116 1.548.348.408.224.708.524.9.9.192.376.288.788.288 1.236 0 .352-.06.676-.18.972-.12.288-.296.572-.528.852a6.92 6.92 0 0 1-.84.84l-2.304 2.34h3.744c.088 0 .156.024.204.072a.254.254 0 0 1 .084.204v.492c0 .08-.028.148-.084.204-.048.048-.116.072-.204.072h-5.292Zm9.983.12c-.552 0-1.02-.084-1.404-.252a2.512 2.512 0 0 1-.924-.72 2.992 2.992 0 0 1-.528-1.044 5.656 5.656 0 0 1-.18-1.248l-.024-.684v-.72l.024-.708c.008-.44.068-.856.18-1.248.12-.4.296-.748.528-1.044.24-.304.552-.54.936-.708.384-.176.848-.264 1.392-.264.552 0 1.016.088 1.392.264.384.168.696.404.936.708.24.296.416.644.528 1.044.12.392.184.808.192 1.248.008.224.012.46.012.708.008.24.008.48 0 .72 0 .24-.004.468-.012.684-.008.44-.072.856-.192 1.248-.112.392-.288.74-.528 1.044-.232.304-.54.544-.924.72-.376.168-.844.252-1.404.252Zm0-1.02c.624 0 1.084-.204 1.38-.612.304-.416.46-.98.468-1.692.016-.232.024-.456.024-.672v-.66c0-.224-.008-.444-.024-.66-.008-.696-.164-1.252-.468-1.668-.296-.424-.756-.636-1.38-.636-.616 0-1.076.212-1.38.636-.296.416-.452.972-.468 1.668 0 .216-.004.436-.012.66v.66c.008.216.012.44.012.672.016.712.176 1.276.48 1.692.304.408.76.612 1.368.612ZM582.312 37.195a.303.303 0 0 1-.204-.072.303.303 0 0 1-.072-.204V30.2l-1.992 1.536a.28.28 0 0 1-.204.06.254.254 0 0 1-.18-.108l-.312-.396a.32.32 0 0 1-.06-.216.303.303 0 0 1 .12-.18l2.616-2.016a.385.385 0 0 1 .156-.072.95.95 0 0 1 .156-.012h.612a.24.24 0 0 1 .192.084.26.26 0 0 1 .072.192v7.848c0 .08-.024.148-.072.204a.26.26 0 0 1-.192.072h-.636Zm5.625.12c-.552 0-1.02-.084-1.404-.252a2.512 2.512 0 0 1-.924-.72 2.992 2.992 0 0 1-.528-1.044 5.656 5.656 0 0 1-.18-1.248l-.024-.684v-.72l.024-.708c.008-.44.068-.856.18-1.248.12-.4.296-.748.528-1.044.24-.304.552-.54.936-.708.384-.176.848-.264 1.392-.264.552 0 1.016.088 1.392.264.384.168.696.404.936.708.24.296.416.644.528 1.044.12.392.184.808.192 1.248.008.224.012.46.012.708.008.24.008.48 0 .72 0 .24-.004.468-.012.684-.008.44-.072.856-.192 1.248-.112.392-.288.74-.528 1.044-.232.304-.54.544-.924.72-.376.168-.844.252-1.404.252Zm0-1.02c.624 0 1.084-.204 1.38-.612.304-.416.46-.98.468-1.692.016-.232.024-.456.024-.672v-.66c0-.224-.008-.444-.024-.66-.008-.696-.164-1.252-.468-1.668-.296-.424-.756-.636-1.38-.636-.616 0-1.076.212-1.38.636-.296.416-.452.972-.468 1.668 0 .216-.004.436-.012.66v.66c.008.216.012.44.012.672.016.712.176 1.276.48 1.692.304.408.76.612 1.368.612Zm4.917-3.3a.303.303 0 0 1-.204-.072.303.303 0 0 1-.072-.204v-.84a.26.26 0 0 1 .072-.192.278.278 0 0 1 .204-.084h.852c.088 0 .156.028.204.084a.24.24 0 0 1 .084.192v.84c0 .08-.028.148-.084.204-.048.048-.116.072-.204.072h-.852Zm0 4.2a.303.303 0 0 1-.204-.072.303.303 0 0 1-.072-.204v-.84a.26.26 0 0 1 .072-.192.278.278 0 0 1 .204-.084h.852c.088 0 .156.028.204.084a.24.24 0 0 1 .084.192v.84c0 .08-.028.148-.084.204-.048.048-.116.072-.204.072h-.852Zm5.542.12c-.504 0-.944-.06-1.32-.18a3.043 3.043 0 0 1-.948-.504 2.335 2.335 0 0 1-.588-.684 1.775 1.775 0 0 1-.204-.768c0-.072.024-.128.072-.168a.272.272 0 0 1 .18-.06h.588a.38.38 0 0 1 .192.048c.056.032.104.1.144.204.08.288.216.512.408.672.2.16.428.272.684.336.264.056.528.084.792.084.552 0 1-.132 1.344-.396.344-.264.516-.652.516-1.164 0-.52-.156-.892-.468-1.116-.312-.224-.744-.336-1.296-.336h-1.14a.303.303 0 0 1-.204-.072c-.048-.048-.072-.116-.072-.204v-.324a.4.4 0 0 1 .036-.18c.032-.056.064-.104.096-.144l2.328-2.544h-3.54a.303.303 0 0 1-.204-.072c-.048-.048-.072-.116-.072-.204v-.456c0-.088.024-.156.072-.204a.278.278 0 0 1 .204-.084h4.788c.088 0 .156.028.204.084a.254.254 0 0 1 .084.204v.432a.276.276 0 0 1-.048.156c-.024.04-.052.08-.084.12l-2.316 2.58.192.012c.528.016.988.112 1.38.288.4.176.708.44.924.792.224.344.336.78.336 1.308 0 .536-.132.996-.396 1.38a2.513 2.513 0 0 1-1.092.864c-.464.2-.988.3-1.572.3Zm7.435 0c-.552 0-1.02-.084-1.404-.252a2.512 2.512 0 0 1-.924-.72 2.992 2.992 0 0 1-.528-1.044 5.656 5.656 0 0 1-.18-1.248l-.024-.684v-.72l.024-.708c.008-.44.068-.856.18-1.248.12-.4.296-.748.528-1.044.24-.304.552-.54.936-.708.384-.176.848-.264 1.392-.264.552 0 1.016.088 1.392.264.384.168.696.404.936.708.24.296.416.644.528 1.044.12.392.184.808.192 1.248.008.224.012.46.012.708.008.24.008.48 0 .72 0 .24-.004.468-.012.684-.008.44-.072.856-.192 1.248-.112.392-.288.74-.528 1.044-.232.304-.54.544-.924.72-.376.168-.844.252-1.404.252Zm0-1.02c.624 0 1.084-.204 1.38-.612.304-.416.46-.98.468-1.692.016-.232.024-.456.024-.672v-.66c0-.224-.008-.444-.024-.66-.008-.696-.164-1.252-.468-1.668-.296-.424-.756-.636-1.38-.636-.616 0-1.076.212-1.38.636-.296.416-.452.972-.468 1.668 0 .216-.004.436-.012.66v.66c.008.216.012.44.012.672.016.712.176 1.276.48 1.692.304.408.76.612 1.368.612ZM689.812 37.195a.303.303 0 0 1-.204-.072.303.303 0 0 1-.072-.204V30.2l-1.992 1.536a.28.28 0 0 1-.204.06.254.254 0 0 1-.18-.108l-.312-.396a.32.32 0 0 1-.06-.216.303.303 0 0 1 .12-.18l2.616-2.016a.385.385 0 0 1 .156-.072.95.95 0 0 1 .156-.012h.612a.24.24 0 0 1 .192.084.26.26 0 0 1 .072.192v7.848c0 .08-.024.148-.072.204a.26.26 0 0 1-.192.072h-.636Zm5.625.12c-.552 0-1.02-.084-1.404-.252a2.512 2.512 0 0 1-.924-.72 2.992 2.992 0 0 1-.528-1.044 5.656 5.656 0 0 1-.18-1.248l-.024-.684v-.72l.024-.708c.008-.44.068-.856.18-1.248.12-.4.296-.748.528-1.044.24-.304.552-.54.936-.708.384-.176.848-.264 1.392-.264.552 0 1.016.088 1.392.264.384.168.696.404.936.708.24.296.416.644.528 1.044.12.392.184.808.192 1.248.008.224.012.46.012.708.008.24.008.48 0 .72 0 .24-.004.468-.012.684-.008.44-.072.856-.192 1.248-.112.392-.288.74-.528 1.044-.232.304-.54.544-.924.72-.376.168-.844.252-1.404.252Zm0-1.02c.624 0 1.084-.204 1.38-.612.304-.416.46-.98.468-1.692.016-.232.024-.456.024-.672v-.66c0-.224-.008-.444-.024-.66-.008-.696-.164-1.252-.468-1.668-.296-.424-.756-.636-1.38-.636-.616 0-1.076.212-1.38.636-.296.416-.452.972-.468 1.668 0 .216-.004.436-.012.66v.66c.008.216.012.44.012.672.016.712.176 1.276.48 1.692.304.408.76.612 1.368.612Zm4.917-3.3a.303.303 0 0 1-.204-.072.303.303 0 0 1-.072-.204v-.84a.26.26 0 0 1 .072-.192.278.278 0 0 1 .204-.084h.852c.088 0 .156.028.204.084a.24.24 0 0 1 .084.192v.84c0 .08-.028.148-.084.204-.048.048-.116.072-.204.072h-.852Zm0 4.2a.303.303 0 0 1-.204-.072.303.303 0 0 1-.072-.204v-.84a.26.26 0 0 1 .072-.192.278.278 0 0 1 .204-.084h.852c.088 0 .156.028.204.084a.24.24 0 0 1 .084.192v.84c0 .08-.028.148-.084.204-.048.048-.116.072-.204.072h-.852Zm6.778 0a.303.303 0 0 1-.204-.072.303.303 0 0 1-.072-.204v-1.728h-3.888a.303.303 0 0 1-.204-.072.303.303 0 0 1-.072-.204v-.48c0-.032.008-.08.024-.144a.909.909 0 0 1 .108-.216l3.6-5.076c.096-.136.244-.204.444-.204h.864a.24.24 0 0 1 .192.084.24.24 0 0 1 .084.192v5.076h1.08c.088 0 .156.028.204.084a.24.24 0 0 1 .084.192v.492c0 .08-.028.148-.084.204a.26.26 0 0 1-.192.072h-1.092v1.728c0 .08-.028.148-.084.204a.26.26 0 0 1-.192.072h-.6Zm-3.156-3.024h2.892v-4.116l-2.892 4.116Zm9.601 3.144c-.552 0-1.02-.084-1.404-.252a2.512 2.512 0 0 1-.924-.72 2.992 2.992 0 0 1-.528-1.044 5.656 5.656 0 0 1-.18-1.248l-.024-.684v-.72l.024-.708c.008-.44.068-.856.18-1.248.12-.4.296-.748.528-1.044.24-.304.552-.54.936-.708.384-.176.848-.264 1.392-.264.552 0 1.016.088 1.392.264.384.168.696.404.936.708.24.296.416.644.528 1.044.12.392.184.808.192 1.248.008.224.012.46.012.708.008.24.008.48 0 .72 0 .24-.004.468-.012.684-.008.44-.072.856-.192 1.248-.112.392-.288.74-.528 1.044-.232.304-.54.544-.924.72-.376.168-.844.252-1.404.252Zm0-1.02c.624 0 1.084-.204 1.38-.612.304-.416.46-.98.468-1.692.016-.232.024-.456.024-.672v-.66c0-.224-.008-.444-.024-.66-.008-.696-.164-1.252-.468-1.668-.296-.424-.756-.636-1.38-.636-.616 0-1.076.212-1.38.636-.296.416-.452.972-.468 1.668 0 .216-.004.436-.012.66v.66c.008.216.012.44.012.672.016.712.176 1.276.48 1.692.304.408.76.612 1.368.612Z"/><path stroke="#2D0055" stroke-linecap="square" stroke-opacity=".06" d="M356 6.594V167.18M463.5 6.594V167.18M571 6.594V167.18M678.5 6.594V167.18"/><g opacity=".01"><path fill="#fff" d="M726.383 19.254H675a6 6 0 0 0-6 6v13.078a6 6 0 0 0 6 6h51.383a6 6 0 0 0 6-6V25.254a6 6 0 0 0-6-6Z"/><path fill="#3E3446" d="M679.912 37.254a.303.303 0 0 1-.204-.072.303.303 0 0 1-.072-.204v-6.72l-1.992 1.536a.28.28 0 0 1-.204.06.254.254 0 0 1-.18-.108l-.312-.396a.32.32 0 0 1-.06-.216.303.303 0 0 1 .12-.18l2.616-2.016a.385.385 0 0 1 .156-.072.95.95 0 0 1 .156-.012h.612a.24.24 0 0 1 .192.084.26.26 0 0 1 .072.192v7.848c0 .08-.024.148-.072.204a.26.26 0 0 1-.192.072h-.636Zm5.625.12c-.552 0-1.02-.084-1.404-.252a2.512 2.512 0 0 1-.924-.72 2.992 2.992 0 0 1-.528-1.044 5.656 5.656 0 0 1-.18-1.248l-.024-.684v-.72l.024-.708c.008-.44.068-.856.18-1.248.12-.4.296-.748.528-1.044.24-.304.552-.54.936-.708.384-.176.848-.264 1.392-.264.552 0 1.016.088 1.392.264.384.168.696.404.936.708.24.296.416.644.528 1.044.12.392.184.808.192 1.248.008.224.012.46.012.708.008.24.008.48 0 .72 0 .24-.004.468-.012.684-.008.44-.072.856-.192 1.248-.112.392-.288.74-.528 1.044-.232.304-.54.544-.924.72-.376.168-.844.252-1.404.252Zm0-1.02c.624 0 1.084-.204 1.38-.612.304-.416.46-.98.468-1.692.016-.232.024-.456.024-.672v-.66c0-.224-.008-.444-.024-.66-.008-.696-.164-1.252-.468-1.668-.296-.424-.756-.636-1.38-.636-.616 0-1.076.212-1.38.636-.296.416-.452.972-.468 1.668 0 .216-.004.436-.012.66v.66c.008.216.012.44.012.672.016.712.176 1.276.48 1.692.304.408.76.612 1.368.612Zm4.917-3.3a.303.303 0 0 1-.204-.072.303.303 0 0 1-.072-.204v-.84a.26.26 0 0 1 .072-.192.278.278 0 0 1 .204-.084h.852c.088 0 .156.028.204.084a.24.24 0 0 1 .084.192v.84c0 .08-.028.148-.084.204-.048.048-.116.072-.204.072h-.852Zm0 4.2a.303.303 0 0 1-.204-.072.303.303 0 0 1-.072-.204v-.84a.26.26 0 0 1 .072-.192.278.278 0 0 1 .204-.084h.852c.088 0 .156.028.204.084a.24.24 0 0 1 .084.192v.84c0 .08-.028.148-.084.204-.048.048-.116.072-.204.072h-.852Zm6.778 0a.303.303 0 0 1-.204-.072.303.303 0 0 1-.072-.204V35.25h-3.888a.303.303 0 0 1-.204-.072.303.303 0 0 1-.072-.204v-.48c0-.032.008-.08.024-.144a.909.909 0 0 1 .108-.216l3.6-5.076c.096-.136.244-.204.444-.204h.864a.24.24 0 0 1 .192.084.24.24 0 0 1 .084.192v5.076h1.08c.088 0 .156.028.204.084a.24.24 0 0 1 .084.192v.492c0 .08-.028.148-.084.204a.26.26 0 0 1-.192.072h-1.092v1.728c0 .08-.028.148-.084.204a.26.26 0 0 1-.192.072h-.6Zm-3.156-3.024h2.892v-4.116l-2.892 4.116Zm9.493 3.144c-.664 0-1.228-.132-1.692-.396a2.88 2.88 0 0 1-1.068-1.056c-.24-.44-.36-.916-.36-1.428 0-.24.028-.468.084-.684.064-.224.14-.432.228-.624.096-.2.188-.376.276-.528.096-.16.18-.288.252-.384l2.28-3.18.144-.144c.056-.064.14-.096.252-.096h.636c.072 0 .128.028.168.084a.244.244 0 0 1 .072.18.395.395 0 0 1-.012.096.15.15 0 0 1-.036.06l-1.752 2.448c.096-.032.204-.052.324-.06.128-.016.248-.024.36-.024.44.008.84.088 1.2.24s.668.36.924.624c.264.256.464.556.6.9.136.336.204.696.204 1.08 0 .504-.12.976-.36 1.416-.24.44-.592.796-1.056 1.068-.456.272-1.012.408-1.668.408Zm-.012-1.02c.336 0 .648-.072.936-.216.288-.144.52-.352.696-.624.184-.28.276-.62.276-1.02 0-.408-.088-.748-.264-1.02a1.62 1.62 0 0 0-.708-.624 2.064 2.064 0 0 0-.936-.216c-.336 0-.648.072-.936.216a1.712 1.712 0 0 0-.708.624c-.176.272-.264.612-.264 1.02 0 .4.088.74.264 1.02.184.272.42.48.708.624.288.144.6.216.936.216Zm4.651-3.3a.303.303 0 0 1-.204-.072.303.303 0 0 1-.072-.204v-.84a.26.26 0 0 1 .072-.192.278.278 0 0 1 .204-.084h.852c.088 0 .156.028.204.084a.24.24 0 0 1 .084.192v.84c0 .08-.028.148-.084.204-.048.048-.116.072-.204.072h-.852Zm0 4.2a.303.303 0 0 1-.204-.072.303.303 0 0 1-.072-.204v-.84a.26.26 0 0 1 .072-.192.278.278 0 0 1 .204-.084h.852c.088 0 .156.028.204.084a.24.24 0 0 1 .084.192v.84c0 .08-.028.148-.084.204-.048.048-.116.072-.204.072h-.852Zm5.542.12c-.504 0-.944-.06-1.32-.18a3.043 3.043 0 0 1-.948-.504 2.335 2.335 0 0 1-.588-.684 1.775 1.775 0 0 1-.204-.768c0-.072.024-.128.072-.168a.272.272 0 0 1 .18-.06h.588a.38.38 0 0 1 .192.048c.056.032.104.1.144.204.08.288.216.512.408.672.2.16.428.272.684.336.264.056.528.084.792.084.552 0 1-.132 1.344-.396.344-.264.516-.652.516-1.164 0-.52-.156-.892-.468-1.116-.312-.224-.744-.336-1.296-.336h-1.14a.303.303 0 0 1-.204-.072c-.048-.048-.072-.116-.072-.204v-.324a.4.4 0 0 1 .036-.18c.032-.056.064-.104.096-.144l2.328-2.544h-3.54a.303.303 0 0 1-.204-.072c-.048-.048-.072-.116-.072-.204v-.456c0-.088.024-.156.072-.204a.278.278 0 0 1 .204-.084h4.788c.088 0 .156.028.204.084a.254.254 0 0 1 .084.204v.432a.276.276 0 0 1-.048.156c-.024.04-.052.08-.084.12l-2.316 2.58.192.012c.528.016.988.112 1.38.288.4.176.708.44.924.792.224.344.336.78.336 1.308 0 .536-.132.996-.396 1.38a2.513 2.513 0 0 1-1.092.864c-.464.2-.988.3-1.572.3Zm7.207 0c-.504 0-.944-.06-1.32-.18a3.043 3.043 0 0 1-.948-.504 2.335 2.335 0 0 1-.588-.684 1.775 1.775 0 0 1-.204-.768c0-.072.024-.128.072-.168a.272.272 0 0 1 .18-.06h.588a.38.38 0 0 1 .192.048c.056.032.104.1.144.204.08.288.216.512.408.672.2.16.428.272.684.336.264.056.528.084.792.084.552 0 1-.132 1.344-.396.344-.264.516-.652.516-1.164 0-.52-.156-.892-.468-1.116-.312-.224-.744-.336-1.296-.336h-1.14a.303.303 0 0 1-.204-.072c-.048-.048-.072-.116-.072-.204v-.324a.4.4 0 0 1 .036-.18c.032-.056.064-.104.096-.144l2.328-2.544h-3.54a.303.303 0 0 1-.204-.072c-.048-.048-.072-.116-.072-.204v-.456c0-.088.024-.156.072-.204a.278.278 0 0 1 .204-.084h4.788c.088 0 .156.028.204.084a.254.254 0 0 1 .084.204v.432a.276.276 0 0 1-.048.156c-.024.04-.052.08-.084.12l-2.316 2.58.192.012c.528.016.988.112 1.38.288.4.176.708.44.924.792.224.344.336.78.336 1.308 0 .536-.132.996-.396 1.38a2.513 2.513 0 0 1-1.092.864c-.464.2-.988.3-1.572.3Z"/></g><path stroke="#F0ECF3" stroke-linecap="square" d="M141 58.79v108.39"/><mask id="a" width="33" height="21" x="22" y="78" maskUnits="userSpaceOnUse" style="mask-type:luminance"><path fill="#fff" d="M55 78.594H22v19.594h33V78.594Z"/></mask><g mask="url(#a)"><path fill="#CF2126" d="M23.372 97.754a.324.324 0 0 1-.238-.098.303.303 0 0 1-.084-.224v-9.296c0-.094.028-.168.084-.224a.324.324 0 0 1 .238-.098h.644a.28.28 0 0 1 .224.098.28.28 0 0 1 .098.224v.616c.224-.308.523-.565.896-.77.373-.206.84-.308 1.4-.308.523 0 .966.088 1.33.266.373.177.677.42.91.728.243.308.425.658.546 1.05.121.392.187.812.196 1.26a7.67 7.67 0 0 1 0 .952c-.01.438-.075.858-.196 1.26a3.215 3.215 0 0 1-.546 1.05 2.618 2.618 0 0 1-.91.728c-.364.177-.807.266-1.33.266-.541 0-.999-.098-1.372-.294a2.97 2.97 0 0 1-.896-.756v3.248a.303.303 0 0 1-.084.224.296.296 0 0 1-.238.098h-.672ZM26.34 94.1c.485 0 .863-.103 1.134-.308.28-.215.48-.49.602-.826.121-.346.191-.714.21-1.106.01-.27.01-.542 0-.812a3.721 3.721 0 0 0-.21-1.092 1.692 1.692 0 0 0-.602-.826c-.27-.215-.649-.322-1.134-.322-.457 0-.83.107-1.12.322-.28.214-.49.49-.63.826-.13.326-.205.662-.224 1.008-.01.15-.014.326-.014.532 0 .205.005.387.014.546.01.326.084.648.224.966.15.317.369.578.658.784.29.205.653.308 1.092.308Zm5.358.994a.354.354 0 0 1-.238-.084.353.353 0 0 1-.084-.238V88.15c0-.094.028-.173.084-.238a.324.324 0 0 1 .238-.098h.644c.093 0 .172.032.238.098a.324.324 0 0 1 .098.238v.616c.187-.318.443-.556.77-.714.327-.159.718-.238 1.176-.238h.56a.28.28 0 0 1 .224.098c.056.056.084.13.084.224v.574a.303.303 0 0 1-.084.224.303.303 0 0 1-.224.084h-.84c-.504 0-.9.15-1.19.448-.29.29-.434.686-.434 1.19v4.116a.324.324 0 0 1-.098.238.353.353 0 0 1-.238.084h-.686Zm7.841.14c-.709 0-1.302-.136-1.778-.406a2.742 2.742 0 0 1-1.092-1.12 3.928 3.928 0 0 1-.42-1.652c-.009-.159-.014-.36-.014-.602 0-.252.005-.453.014-.602.029-.626.168-1.176.42-1.652.262-.476.63-.85 1.107-1.12.475-.27 1.063-.406 1.763-.406s1.288.135 1.764.406c.477.27.84.644 1.093 1.12.26.476.405 1.026.434 1.652.009.15.014.35.014.602 0 .242-.005.443-.014.602a3.928 3.928 0 0 1-.42 1.652c-.252.476-.616.85-1.092 1.12-.476.27-1.07.406-1.779.406Zm0-1.078c.58 0 1.041-.182 1.386-.546.346-.374.533-.915.56-1.624.01-.14.014-.318.014-.532 0-.215-.004-.392-.014-.532-.027-.71-.214-1.246-.56-1.61-.345-.374-.807-.56-1.386-.56-.578 0-1.045.186-1.4.56-.345.364-.527.9-.546 1.61-.009.14-.014.317-.014.532 0 .214.005.392.014.532.02.71.201 1.25.546 1.624.355.364.822.546 1.4.546Zm7.718 1.078c-.514 0-.957-.089-1.33-.266a2.686 2.686 0 0 1-.925-.742 3.527 3.527 0 0 1-.532-1.078 5.593 5.593 0 0 1-.195-1.274 6.78 6.78 0 0 1 0-.84c.018-.439.084-.859.196-1.26.12-.402.298-.76.532-1.078.242-.318.55-.565.923-.742.374-.187.817-.28 1.33-.28.551 0 1.008.098 1.373.294.364.196.662.438.896.728v-3.22c0-.094.028-.168.084-.224a.324.324 0 0 1 .237-.098h.673a.28.28 0 0 1 .224.098.28.28 0 0 1 .097.224v9.296a.324.324 0 0 1-.098.238.303.303 0 0 1-.223.084h-.63a.322.322 0 0 1-.239-.084.353.353 0 0 1-.084-.238v-.588c-.233.298-.536.55-.91.756-.373.196-.84.294-1.4.294Zm.294-1.134c.466 0 .84-.108 1.12-.322.28-.215.49-.486.63-.812.14-.336.214-.677.224-1.022.009-.15.014-.327.014-.532 0-.215-.005-.397-.014-.546a2.412 2.412 0 0 0-.239-.966 1.875 1.875 0 0 0-.644-.784c-.28-.206-.644-.308-1.092-.308-.475 0-.853.107-1.133.322-.28.205-.481.48-.602.826-.122.336-.192.7-.21 1.092-.01.27-.01.541 0 .812.018.392.088.76.21 1.106.12.336.322.611.602.826.28.205.657.308 1.133.308Z"/></g><mask id="b" width="15" height="15" x="56" y="82" maskUnits="userSpaceOnUse" style="mask-type:luminance"><path fill="#fff" d="M70.172 82.39h-14v14h14v-14Z"/></mask><g mask="url(#b)"><path fill="#CF2126" d="M62.751 95.858a5.758 5.758 0 0 1-5.748-5.758 4.27 4.27 0 0 1 1.925-3.718.646.646 0 0 1 .875.297 5.25 5.25 0 0 1 3.5-4.638.648.648 0 0 1 .603.08.638.638 0 0 1 .29.533v.271a13.188 13.188 0 0 0 .235 3.317 3.256 3.256 0 0 1 2.013-1.488.646.646 0 0 1 .577.105.656.656 0 0 1 .263.525c.014.868.236 1.72.647 2.485.368.688.572 1.451.595 2.231a5.758 5.758 0 0 1-5.775 5.758Zm-3.928-7.604a3.719 3.719 0 0 0-.517 1.846 4.436 4.436 0 1 0 8.873 0 4.024 4.024 0 0 0-.473-1.697 7 7 0 0 1-.665-2.03 1.75 1.75 0 0 0-.673 1.68.656.656 0 0 1-1.155.507c-1.182-1.382-1.313-2.94-1.33-4.882-1.75 1.129-1.882 3.132-1.83 5.118.027.335.027.672 0 1.007a.648.648 0 0 1-.747.592.674.674 0 0 1-.32-.137 3.99 3.99 0 0 1-1.163-2.004Z"/></g><mask id="c" width="74" height="21" x="22" y="127" maskUnits="userSpaceOnUse" style="mask-type:luminance"><path fill="#fff" d="M95.727 127.789H22v19.594h73.727v-19.594Z"/></mask><g mask="url(#c)"><path fill="#207964" d="M25.976 144.429c-.663 0-1.237-.126-1.722-.378a2.74 2.74 0 0 1-1.106-1.106c-.261-.485-.401-1.064-.42-1.736a8.864 8.864 0 0 1-.014-.56c0-.233.005-.42.014-.56.019-.672.159-1.246.42-1.722.261-.485.63-.854 1.106-1.106.485-.261 1.06-.392 1.722-.392.541 0 1.003.075 1.386.224.392.149.714.341.966.574.252.233.439.485.56.756.13.271.2.527.21.77a.246.246 0 0 1-.084.224.353.353 0 0 1-.238.084h-.672c-.093 0-.163-.019-.21-.056a.775.775 0 0 1-.14-.224c-.168-.457-.397-.779-.686-.966-.29-.187-.649-.28-1.078-.28-.56 0-1.017.173-1.372.518-.345.345-.532.901-.56 1.666-.01.336-.01.663 0 .98.028.775.215 1.335.56 1.68.355.336.812.504 1.372.504.43 0 .789-.093 1.078-.28.29-.187.518-.509.686-.966a.572.572 0 0 1 .14-.21c.047-.047.117-.07.21-.07h.672c.093 0 .173.028.238.084a.246.246 0 0 1 .084.224c-.01.196-.051.397-.126.602a2.335 2.335 0 0 1-.364.63c-.159.205-.36.392-.602.56a3.352 3.352 0 0 1-.882.392 4.31 4.31 0 0 1-1.148.14Zm7.5 0c-.597 0-1.105-.131-1.525-.392a2.576 2.576 0 0 1-.938-1.12c-.215-.476-.322-1.022-.322-1.638v-3.948c0-.093.028-.168.084-.224a.325.325 0 0 1 .238-.098h.7c.093 0 .168.033.224.098a.28.28 0 0 1 .098.224v3.878c0 1.391.606 2.086 1.82 2.086.578 0 1.04-.182 1.386-.546.354-.373.532-.887.532-1.54v-3.878c0-.093.028-.168.084-.224a.325.325 0 0 1 .238-.098h.686c.102 0 .182.033.238.098a.303.303 0 0 1 .084.224v6.636a.353.353 0 0 1-.084.238c-.056.056-.136.084-.238.084h-.644a.353.353 0 0 1-.238-.084.353.353 0 0 1-.084-.238v-.616c-.252.327-.56.588-.924.784-.355.196-.826.294-1.414.294Zm8.227 0c-.523 0-.971-.065-1.345-.196a3.076 3.076 0 0 1-.91-.476 2.45 2.45 0 0 1-.532-.56c-.111-.187-.172-.336-.181-.448-.01-.103.023-.182.098-.238a.372.372 0 0 1 .224-.084h.615c.056 0 .099.009.127.028.037.009.084.047.14.112.12.131.256.261.405.392.15.131.332.238.547.322.224.084.499.126.826.126.476 0 .867-.089 1.175-.266a.895.895 0 0 0 .462-.812c0-.233-.065-.42-.196-.56-.12-.14-.345-.266-.672-.378a11.329 11.329 0 0 0-1.316-.35c-.56-.131-1.003-.289-1.33-.476-.326-.196-.56-.425-.7-.686a1.952 1.952 0 0 1-.21-.91c0-.345.103-.677.309-.994.205-.327.504-.593.896-.798.4-.205.9-.308 1.498-.308.485 0 .9.061 1.245.182.346.121.63.275.855.462.224.177.392.355.504.532.111.177.172.327.181.448a.281.281 0 0 1-.084.238.334.334 0 0 1-.224.084h-.587a.32.32 0 0 1-.169-.042 1.09 1.09 0 0 1-.111-.098 2.977 2.977 0 0 0-.337-.364 1.327 1.327 0 0 0-.49-.294c-.195-.084-.457-.126-.783-.126-.467 0-.817.098-1.05.294a.928.928 0 0 0-.35.742c0 .177.05.336.154.476.102.14.298.266.587.378.29.112.72.233 1.289.364.616.121 1.1.285 1.456.49.354.205.606.443.755.714.15.271.225.583.225.938 0 .392-.117.751-.35 1.078-.224.327-.56.588-1.008.784-.44.187-.985.28-1.639.28Zm7.444-.14c-.522 0-.947-.098-1.273-.294a1.78 1.78 0 0 1-.715-.854c-.149-.373-.224-.812-.224-1.316v-3.696h-1.092a.353.353 0 0 1-.238-.084.353.353 0 0 1-.083-.238v-.476c0-.093.028-.168.084-.224a.325.325 0 0 1 .237-.098h1.092v-2.338c0-.093.029-.168.084-.224a.325.325 0 0 1 .239-.098h.657c.094 0 .169.033.224.098a.28.28 0 0 1 .098.224v2.338h1.736c.094 0 .169.033.224.098a.28.28 0 0 1 .098.224v.476a.324.324 0 0 1-.098.238.303.303 0 0 1-.224.084h-1.736v3.598c0 .439.075.784.224 1.036.15.252.416.378.799.378h.854c.093 0 .168.033.224.098a.28.28 0 0 1 .097.224v.504a.324.324 0 0 1-.098.238.303.303 0 0 1-.224.084h-.965Zm5.61.14c-.71 0-1.303-.135-1.779-.406a2.744 2.744 0 0 1-1.092-1.12 3.927 3.927 0 0 1-.42-1.652c-.01-.159-.014-.359-.014-.602 0-.252.005-.453.014-.602.028-.625.168-1.176.42-1.652.262-.476.63-.849 1.106-1.12.476-.271 1.064-.406 1.764-.406s1.288.135 1.764.406.84.644 1.092 1.12c.262.476.406 1.027.434 1.652.01.149.014.35.014.602 0 .243-.004.443-.014.602a3.927 3.927 0 0 1-.42 1.652 2.744 2.744 0 0 1-1.092 1.12c-.476.271-1.068.406-1.778.406Zm0-1.078c.578 0 1.04-.182 1.385-.546.346-.373.532-.915.56-1.624.01-.14.014-.317.014-.532 0-.215-.004-.392-.014-.532-.028-.709-.214-1.246-.56-1.61-.345-.373-.807-.56-1.386-.56-.578 0-1.045.187-1.4.56-.345.364-.527.901-.546 1.61-.01.14-.014.317-.014.532 0 .215.005.392.014.532.019.709.2 1.251.546 1.624.355.364.822.546 1.4.546Zm5.378.938a.353.353 0 0 1-.238-.084.353.353 0 0 1-.084-.238v-6.636c0-.093.028-.168.084-.224a.325.325 0 0 1 .238-.098h.63c.094 0 .168.033.224.098a.28.28 0 0 1 .098.224v.49c.215-.289.486-.518.812-.686.327-.177.719-.266 1.176-.266 1.055-.009 1.802.42 2.24 1.288.215-.392.528-.705.938-.938.411-.233.878-.35 1.4-.35.486 0 .924.112 1.316.336.402.224.714.565.938 1.022.234.448.35 1.013.35 1.694v4.046a.324.324 0 0 1-.098.238.303.303 0 0 1-.224.084h-.658a.353.353 0 0 1-.238-.084.353.353 0 0 1-.084-.238v-3.92c0-.523-.074-.933-.224-1.232-.149-.299-.35-.509-.602-.63a1.883 1.883 0 0 0-.826-.182c-.242 0-.49.061-.742.182s-.462.331-.63.63c-.158.299-.238.709-.238 1.232v3.92a.324.324 0 0 1-.098.238.303.303 0 0 1-.224.084h-.658a.353.353 0 0 1-.238-.084.353.353 0 0 1-.084-.238v-3.92c0-.523-.079-.933-.238-1.232-.158-.299-.364-.509-.616-.63a1.707 1.707 0 0 0-1.54 0c-.252.121-.462.331-.63.63-.158.299-.238.705-.238 1.218v3.934a.324.324 0 0 1-.098.238.303.303 0 0 1-.224.084h-.672Zm15.018.14c-.962 0-1.727-.294-2.296-.882-.57-.597-.882-1.409-.938-2.436a6.18 6.18 0 0 1-.014-.462c0-.196.004-.355.014-.476.037-.663.191-1.241.462-1.736a2.89 2.89 0 0 1 1.106-1.162c.476-.271 1.031-.406 1.666-.406.71 0 1.302.149 1.778.448.485.299.854.723 1.106 1.274.252.551.378 1.195.378 1.932v.238a.296.296 0 0 1-.098.238.303.303 0 0 1-.224.084h-4.844v.126c.018.383.102.742.252 1.078.15.327.364.593.644.798.28.205.616.308 1.008.308.336 0 .616-.051.84-.154.224-.103.406-.215.546-.336a2.39 2.39 0 0 0 .28-.294c.084-.121.15-.191.196-.21a.452.452 0 0 1 .224-.042h.672c.093 0 .168.028.224.084.065.047.093.117.084.21-.01.14-.084.313-.224.518-.14.196-.34.392-.602.588a3.518 3.518 0 0 1-.952.49 4.177 4.177 0 0 1-1.288.182Zm-1.904-4.312h3.836v-.042c0-.42-.08-.793-.238-1.12a1.77 1.77 0 0 0-.658-.77c-.29-.196-.635-.294-1.036-.294-.402 0-.747.098-1.036.294-.28.187-.495.443-.644.77-.15.327-.224.7-.224 1.12v.042Zm7.162 4.172a.353.353 0 0 1-.238-.084.353.353 0 0 1-.084-.238v-6.622c0-.093.028-.173.084-.238a.325.325 0 0 1 .238-.098h.644c.093 0 .172.033.238.098a.324.324 0 0 1 .098.238v.616c.186-.317.443-.555.77-.714.326-.159.718-.238 1.176-.238h.56c.093 0 .168.033.224.098a.303.303 0 0 1 .084.224v.574a.303.303 0 0 1-.084.224.303.303 0 0 1-.224.084h-.84c-.504 0-.9.149-1.19.448-.29.289-.434.686-.434 1.19v4.116a.324.324 0 0 1-.098.238.353.353 0 0 1-.238.084h-.686Zm8.072 0a.353.353 0 0 1-.238-.084.353.353 0 0 1-.084-.238v-.448c0-.084.023-.177.07-.28.046-.103.14-.215.28-.336l2.968-2.968c.476-.401.849-.742 1.12-1.022.28-.289.476-.565.588-.826.12-.261.182-.532.182-.812 0-.532-.15-.952-.448-1.26-.3-.317-.742-.476-1.33-.476-.374 0-.696.079-.966.238-.271.149-.486.359-.644.63-.15.261-.248.56-.294.896-.02.121-.07.205-.154.252a.398.398 0 0 1-.21.07h-.728a.315.315 0 0 1-.21-.07.268.268 0 0 1-.084-.196c.009-.355.084-.709.224-1.064.14-.364.345-.691.616-.98.28-.289.62-.523 1.022-.7.41-.187.886-.28 1.428-.28.737 0 1.339.135 1.806.406.476.261.826.611 1.05 1.05.224.439.336.919.336 1.442 0 .411-.07.789-.21 1.134a3.95 3.95 0 0 1-.616.994 8.095 8.095 0 0 1-.98.98l-2.688 2.73h4.368c.102 0 .182.028.238.084a.296.296 0 0 1 .098.238v.574a.324.324 0 0 1-.098.238c-.056.056-.136.084-.238.084h-6.174Z"/></g><mask id="d" width="15" height="15" x="99" y="130" maskUnits="userSpaceOnUse" style="mask-type:luminance"><path fill="#fff" d="M113.727 130.586h-14v14h14v-14Z"/></mask><g mask="url(#d)"><path fill="#207964" d="M105.143 143.282a.678.678 0 0 1-.499-.219l-3.675-4.2a.656.656 0 0 1 .057-.931.66.66 0 0 1 .932.056l3.115 3.553 6.344-9.363a.658.658 0 0 1 .875-.183.661.661 0 0 1 .184.918l-6.79 10.08a.644.644 0 0 1-.508.289h-.035Z"/></g><path fill="#2BA185" d="M155.75 84.383a2 2 0 1 0-4 0v10a2 2 0 1 0 4 0v-10ZM165.602 84.383a2 2 0 0 0-4 0v10a2 2 0 1 0 4 0v-10ZM176.352 84.383a2 2 0 0 0-4 0v10a2 2 0 1 0 4 0v-10ZM187.102 84.383a2 2 0 0 0-4 0v10a2 2 0 1 0 4 0v-10ZM197.852 84.383a2 2 0 0 0-4 0v10a2 2 0 1 0 4 0v-10ZM209.5 84.383a2 2 0 1 0-4 0v10a2 2 0 1 0 4 0v-10ZM219.352 84.383a2 2 0 0 0-4 0v10a2 2 0 1 0 4 0v-10ZM230.102 84.383a2 2 0 0 0-4 0v10a2 2 0 1 0 4 0v-10ZM240.852 84.383a2 2 0 0 0-4 0v10a2 2 0 1 0 4 0v-10ZM252.5 84.383a2 2 0 1 0-4 0v10a2 2 0 1 0 4 0v-10ZM262.352 84.383a2 2 0 0 0-4 0v10a2 2 0 1 0 4 0v-10ZM273.102 84.383a2 2 0 0 0-4 0v10a2 2 0 1 0 4 0v-10ZM283.852 84.383a2 2 0 0 0-4 0v10a2 2 0 1 0 4 0v-10ZM294.602 84.383a2 2 0 0 0-4 0v10a2 2 0 1 0 4 0v-10ZM305.352 84.383a2 2 0 0 0-4 0v10a2 2 0 1 0 4 0v-10ZM316.102 84.383a2 2 0 0 0-4 0v10a2 2 0 1 0 4 0v-10ZM326.852 84.383a2 2 0 0 0-4 0v10a2 2 0 1 0 4 0v-10ZM337.602 84.383a2 2 0 0 0-4 0v10a2 2 0 1 0 4 0v-10ZM349.25 84.383a2 2 0 1 0-4 0v10a2 2 0 1 0 4 0v-10ZM360 84.383a2 2 0 1 0-4 0v10a2 2 0 1 0 4 0v-10ZM370.75 84.383a2 2 0 1 0-4 0v10a2 2 0 1 0 4 0v-10ZM380.602 84.383a2 2 0 0 0-4 0v10a2 2 0 1 0 4 0v-10ZM392.25 84.383a2 2 0 1 0-4 0v10a2 2 0 1 0 4 0v-10ZM402.102 84.383a2 2 0 0 0-4 0v10a2 2 0 1 0 4 0v-10Z" opacity=".7"/><path fill="url(#e)" stroke="#F55459" d="M413.75 84.383a2 2 0 1 0-4 0v10a2 2 0 1 0 4 0v-10Z" opacity=".5"/><path fill="#2BA185" d="M424.5 84.383a2 2 0 1 0-4 0v10a2 2 0 1 0 4 0v-10ZM434.352 84.383a2 2 0 0 0-4 0v10a2 2 0 1 0 4 0v-10ZM445.102 84.383a2 2 0 0 0-4 0v10a2 2 0 1 0 4 0v-10ZM456.75 84.383a2 2 0 1 0-4 0v10a2 2 0 1 0 4 0v-10ZM467.5 84.383a2 2 0 1 0-4 0v10a2 2 0 1 0 4 0v-10ZM477.352 84.383a2 2 0 0 0-4 0v10a2 2 0 1 0 4 0v-10ZM488.102 84.383a2 2 0 0 0-4 0v10a2 2 0 1 0 4 0v-10ZM498.852 84.383a2 2 0 0 0-4 0v10a2 2 0 1 0 4 0v-10ZM509.602 84.383a2 2 0 0 0-4 0v10a2 2 0 1 0 4 0v-10ZM520.352 84.383a2 2 0 0 0-4 0v10a2 2 0 1 0 4 0v-10ZM531.102 84.383a2 2 0 0 0-4 0v10a2 2 0 1 0 4 0v-10ZM542.75 84.383a2 2 0 1 0-4 0v10a2 2 0 1 0 4 0v-10ZM552.602 84.383a2 2 0 0 0-4 0v10a2 2 0 1 0 4 0v-10ZM564.25 84.383a2 2 0 1 0-4 0v10a2 2 0 1 0 4 0v-10ZM574.102 84.383a2 2 0 0 0-4 0v10a2 2 0 1 0 4 0v-10ZM585.75 84.383a2 2 0 1 0-4 0v10a2 2 0 1 0 4 0v-10ZM595.602 84.383a2 2 0 0 0-4 0v10a2 2 0 1 0 4 0v-10ZM606.352 84.383a2 2 0 0 0-4 0v10a2 2 0 1 0 4 0v-10ZM617.102 84.383a2 2 0 0 0-4 0v10a2 2 0 1 0 4 0v-10ZM628.75 84.383a2 2 0 1 0-4 0v10a2 2 0 1 0 4 0v-10ZM638.602 84.383a2 2 0 0 0-4 0v10a2 2 0 1 0 4 0v-10ZM649.352 84.383a2 2 0 0 0-4 0v10a2 2 0 1 0 4 0v-10ZM661 84.383a2 2 0 1 0-4 0v10a2 2 0 1 0 4 0v-10ZM670.852 84.383a2 2 0 0 0-4 0v10a2 2 0 1 0 4 0v-10ZM681.602 84.383a2 2 0 0 0-4 0v10a2 2 0 1 0 4 0v-10ZM692.352 84.383a2 2 0 0 0-4 0v10a2 2 0 1 0 4 0v-10Z" opacity=".7"/><path fill="#F55459" d="M703.102 84.383a2 2 0 0 0-4 0v10a2 2 0 1 0 4 0v-10ZM713.852 84.383a2 2 0 0 0-4 0v10a2 2 0 1 0 4 0v-10ZM724.602 84.383a2 2 0 0 0-4 0v10a2 2 0 1 0 4 0v-10ZM735.352 84.383a2 2 0 0 0-4 0v10a2 2 0 1 0 4 0v-10ZM746.102 84.383a2 2 0 0 0-4 0v10a2 2 0 1 0 4 0v-10ZM756.852 84.383a2 2 0 0 0-4 0v10a2 2 0 1 0 4 0v-10ZM767.602 84.383a2 2 0 0 0-4 0v10a2 2 0 1 0 4 0v-10ZM779.25 84.383a2 2 0 1 0-4 0v10a2 2 0 1 0 4 0v-10Z" opacity=".7"/><path fill="#2BA185" d="M155.75 133.578a2 2 0 0 0-4 0v10a2 2 0 1 0 4 0v-10ZM165.602 133.578a2 2 0 0 0-4 0v10a2 2 0 1 0 4 0v-10ZM177.25 133.578a2 2 0 0 0-4 0v10a2 2 0 1 0 4 0v-10ZM188 133.578a2 2 0 0 0-4 0v10a2 2 0 1 0 4 0v-10ZM197.852 133.578a2 2 0 0 0-4 0v10a2 2 0 1 0 4 0v-10ZM209.5 133.578a2 2 0 0 0-4 0v10a2 2 0 1 0 4 0v-10ZM219.352 133.578a2 2 0 0 0-4 0v10a2 2 0 1 0 4 0v-10ZM231 133.578a2 2 0 0 0-4 0v10a2 2 0 1 0 4 0v-10ZM241.75 133.578a2 2 0 0 0-4 0v10a2 2 0 1 0 4 0v-10ZM251.602 133.578a2 2 0 0 0-4 0v10a2 2 0 1 0 4 0v-10ZM263.25 133.578a2 2 0 0 0-4 0v10a2 2 0 1 0 4 0v-10ZM274 133.578a2 2 0 0 0-4 0v10a2 2 0 1 0 4 0v-10ZM284.75 133.578a2 2 0 0 0-4 0v10a2 2 0 1 0 4 0v-10ZM295.5 133.578a2 2 0 0 0-4 0v10a2 2 0 1 0 4 0v-10ZM306.25 133.578a2 2 0 0 0-4 0v10a2 2 0 1 0 4 0v-10ZM317 133.578a2 2 0 0 0-4 0v10a2 2 0 1 0 4 0v-10ZM326.852 133.578a2 2 0 0 0-4 0v10a2 2 0 1 0 4 0v-10ZM337.602 133.578a2 2 0 0 0-4 0v10a2 2 0 1 0 4 0v-10ZM349.25 133.578a2 2 0 0 0-4 0v10a2 2 0 1 0 4 0v-10ZM359.102 133.578a2 2 0 0 0-4 0v10a2 2 0 1 0 4 0v-10ZM369.852 133.578a2 2 0 0 0-4 0v10a2 2 0 1 0 4 0v-10ZM381.5 133.578a2 2 0 0 0-4 0v10a2 2 0 1 0 4 0v-10ZM392.25 133.578a2 2 0 0 0-4 0v10a2 2 0 1 0 4 0v-10ZM403 133.578a2 2 0 0 0-4 0v10a2 2 0 1 0 4 0v-10ZM412.852 133.578a2 2 0 0 0-4 0v10a2 2 0 1 0 4 0v-10ZM423.602 133.578a2 2 0 0 0-4 0v10a2 2 0 1 0 4 0v-10ZM434.352 133.578a2 2 0 0 0-4 0v10a2 2 0 1 0 4 0v-10ZM446 133.578a2 2 0 0 0-4 0v10a2 2 0 1 0 4 0v-10ZM455.852 133.578a2 2 0 0 0-4 0v10a2 2 0 1 0 4 0v-10ZM466.602 133.578a2 2 0 0 0-4 0v10a2 2 0 1 0 4 0v-10ZM477.352 133.578a2 2 0 0 0-4 0v10a2 2 0 1 0 4 0v-10ZM489 133.578a2 2 0 0 0-4 0v10a2 2 0 1 0 4 0v-10ZM498.852 133.578a2 2 0 0 0-4 0v10a2 2 0 1 0 4 0v-10ZM510.5 133.578a2 2 0 0 0-4 0v10a2 2 0 1 0 4 0v-10ZM521.5 133.578a2 2 0 0 0-4 0v10a2 2 0 1 0 4 0v-10ZM532 133.578a2 2 0 0 0-4 0v10a2 2 0 1 0 4 0v-10ZM542.75 133.578a2 2 0 0 0-4 0v10a2 2 0 1 0 4 0v-10ZM553.5 133.578a2 2 0 0 0-4 0v10a2 2 0 1 0 4 0v-10ZM564.25 133.578a2 2 0 0 0-4 0v10a2 2 0 1 0 4 0v-10ZM575 133.578a2 2 0 0 0-4 0v10a2 2 0 1 0 4 0v-10ZM585.75 133.578a2 2 0 0 0-4 0v10a2 2 0 1 0 4 0v-10ZM596.5 133.578a2 2 0 0 0-4 0v10a2 2 0 1 0 4 0v-10ZM607.25 133.578a2 2 0 0 0-4 0v10a2 2 0 1 0 4 0v-10ZM617.102 133.578a2 2 0 0 0-4 0v10a2 2 0 1 0 4 0v-10ZM627.852 133.578a2 2 0 0 0-4 0v10a2 2 0 1 0 4 0v-10ZM639.5 133.578a2 2 0 0 0-4 0v10a2 2 0 1 0 4 0v-10ZM650.25 133.578a2 2 0 0 0-4 0v10a2 2 0 1 0 4 0v-10ZM660.102 133.578a2 2 0 0 0-4 0v10a2 2 0 1 0 4 0v-10ZM671.75 133.578a2 2 0 0 0-4 0v10a2 2 0 1 0 4 0v-10ZM681.602 133.578a2 2 0 0 0-4 0v10a2 2 0 1 0 4 0v-10ZM693.25 133.578a2 2 0 0 0-4 0v10a2 2 0 1 0 4 0v-10ZM703.102 133.578a2 2 0 0 0-4 0v10a2 2 0 1 0 4 0v-10ZM714.75 133.578a2 2 0 0 0-4 0v10a2 2 0 1 0 4 0v-10ZM725.5 133.578a2 2 0 0 0-4 0v10a2 2 0 1 0 4 0v-10ZM735.352 133.578a2 2 0 0 0-4 0v10a2 2 0 1 0 4 0v-10ZM746.102 133.578a2 2 0 0 0-4 0v10a2 2 0 1 0 4 0v-10ZM757.75 133.578a2 2 0 0 0-4 0v10a2 2 0 1 0 4 0v-10ZM767.602 133.578a2 2 0 0 0-4 0v10a2 2 0 1 0 4 0v-10ZM778.352 133.578a2 2 0 0 0-4 0v10a2 2 0 1 0 4 0v-10Z" opacity=".7"/><defs><linearGradient id="e" x1="3109.35" x2="785.099" y1="2188.68" y2="2040.65" gradientUnits="userSpaceOnUse"><stop stop-color="#F55459" stop-opacity=".5"/><stop offset=".167" stop-opacity="0"/><stop offset=".333" stop-opacity="0"/><stop offset=".5" stop-color="#F55459" stop-opacity=".5"/><stop offset=".667" stop-color="#F55459" stop-opacity=".5"/><stop offset=".833" stop-opacity="0"/><stop offset="1" stop-opacity="0"/></linearGradient></defs></svg>