<svg xmlns="http://www.w3.org/2000/svg" width="795.4" height="159.5"><defs><style>.cls-1{fill:#f58452}.cls-2{fill:#ebb432}.cls-4{fill:#ce8d1b}.cls-5{fill:#ad6caa}.cls-6{fill:#e1557a}</style></defs><path style="fill:#fca9cb" d="M795.4 0v159.5H30.8L0 62.7 687.3 1.1 795.4 0z" id="bg"/><g id="stroke"><path class="cls-2" d="m299.7 73.1-31.2 72-134.4-10.6-14.1-5.1 26.2-65.3 145.4 3.5 8.1 5.5z"/><path class="cls-4" d="m268.5 145.1-134.4-10.6-14.1-5.1 140.2 10.3 8.3 5.4z"/><path class="cls-6" d="m235 148.8-6.5-2.4 4.5-1.6s-13.3-1.9-14.4-2.3-9.3-5.6-14.6-7c-5.3-1.6-12.8-1.8-12.8-1.8s14.2-4.2 16.8-6.8c5.5-5.2 7.7-10 7.7-10 0-6.2-6-15.2-8.7-16-2.7-.7-10 4.2-11.6 5.6a375.8 375.8 0 0 0-13.1 16.7c-1-8.1-7.5-21.8-9.6-22.8-2-1-9 2-10.9 3.2-1.9 1.2-6 9-6.2 10.5-.4 1.5 1.9 8.2 3.9 10.8 2 2.7 9.7 6.8 9.7 6.8-2 1.7-15.8 7.4-15.8 7.4l3.7 9s9-6.6 10.5-8.2l4.8-5c5.1 2.9 11 1.7 11 1.7s1.2 1.7 3 3.6l10.6 10.6 7.4-4.1-6.4-5.3s7.8 1.3 8.6 1.7 8.9 6.6 11 7.2l12.2 2.7-2.6-3.3 7.9-1Zm-70.3-30.5 1-9.7s7.1 13.2 9.3 21c0 0-4.5-3.8-10.3-11.3Zm21.4 15.2-3.2-2.3 10.8-12.6c2.1-2.4 7.3-7.2 7.3-7.2l3.3 11.8s-12.7 8-18.2 10.3Z"/><path class="cls-6" d="m191.2 111.6-9 11.6c-.2-1.8-.7-3.9-1.3-6l1.8-4.5c.3-.6-.5-6.1-.7-7.2s0-8.4 0-9 4.9-6.2 5.2-6.8 4.4-18.4 4.7-19.6 3.5-4.8 3.5-4.8l9.5.2s-6.4 16.2-7 18.1c-.5 1.9-1.5 8.3-1.6 9.2s-4.3 5.1-5.1 6l-.9 3.9c-.2.9.9 8.9.9 8.9Z"/><path class="cls-2" d="m484.1 93.9-6.3 45.7-64.8 12.8-142.2-12.6L289 97.7l4.6-10.6 27.2-3.5 163.3 10.3z"/><path class="cls-6" d="M294.8 152.4s7.3-4.3 8.8-4.5 8 1.7 8.7 1.7 2.2-.5 2.2-.5 4.3-13.7 4.9-14.4 7.4-6 7.4-6l11 .5c1 0 3 5.7 3 6.3V146L330 145l-.8-8.1s-6 14-6.4 15-5.4 3-6 3.2-6.6.3-6.6.3l-1.3-3-6.1 2.2-.7-3-7.3.7Z"/><path class="cls-4" d="m484.1 93.9-69.6 14.5L289 97.7l4.6-10.6 27.2-3.5 163.3 10.3z"/><path class="cls-6" d="M440.1 147s2.7-7.3 4.6-9.5c1.8-2.2 7.8-6.2 9-6.6l13.9-1.8c1 1.4 2.7 10.6 2.7 10.6s3.4 3.3 4.1 3.1 17-1.4 18.3-1 6.3 4.6 6.3 4.6l-7.4-.2 1.7 1.8s-11.1-1.6-12.7-1.5-11 2.1-11.8 2-5.6-3-5.9-3.5-2.2-8.6-2.6-10.1c-.1-.4-.5-.9-1-1.3 0 0-5 3.7-5.8 4.8s-3 6.6-3 6.6"/><path class="cls-5" d="M349.1 72s2.2 3.4 3.1 6l-4.4 4.2 9.5.4s-.3-8.4-5.2-15l14.2-19.2s8 15.9 8.1 35.3l7.7.5s-1-24.2-11.3-42.1L385.5 22a2.4 2.4 0 0 1 4.2.7l20.5 67c.6 2-1 4.1-3.2 4l-13.5-.9s.3-4.6-.3-8.3l7 .5-14.7-52.4-7.2 10.2s10.3 21.9 10.3 49.7l-19.2-1.8s1.8-16-4.9-29.3l-5.6 7s4.5 8.5 4 21.8l-20.1-1.5c-3-.2-4.4-3.6-2.5-5.9L349 72Z"/><path class="cls-5" d="m477 29.1-.6-3-9.6 3.6v-1.4l7.5-7-2-1.8-10 7.4-3 .5.5-8.6-3.1-.4c-1 4.2-2.2 12-2.2 12l-51.7 35.3.8 2.5 54.8-29 9-2 6.9 1.9 1.2-2.7-8.4-2.7 10-4.6ZM386 92.2l.6 13.8 4.5.4-2.5-13.9-2.6-.3zM360.8 90.2l-2.9 13.4 4.2.3.8-13.7h-2.1zM316.9 20.4l-.3-5.7-.3-5-3.3-.5-.5 8-2.8-.8-7.9-6.6-1.7 1.7 6.1 6.5-.3.9-9.5-2.2-.7 2.1 9 3-.5 1.6-7 1.7.6 2 6.8-.8 7.3 1.5 44 34.7 1.3-1.9L317 20.4Z"/><path class="cls-6" d="m448.4 59.6 5.7.1-3.5 8.3-2.2-8.4z"/><path class="cls-1" d="m474.4 61-1.7-5.4 4.6-1.9 1.8 5.2-4.7 2.1z"/><path class="cls-6" d="m491.7 45.8 7.7-.8 2 8.3 6.5-1.1-.2 5.8 4.6.2-1.2-9.9-7.7.7-1.6-8.1-9.6.6-.5 4.3z"/><path class="cls-2" d="M502.7 72.3c-.2 2 1.7 2.3 2.4 2.3.8 0 2.1-.2 2.2-2 0-1-1-2.2-2.2-2.2s-2.3 1-2.4 2Z"/><path class="cls-6" d="m500.1 91.1 5.1-.3 1.2 4.3-5.3 1.4-1-5.4z"/><path class="cls-1" d="m522 47.9 3.1 5.2 7.6-3.5-10.7-1.7z"/><path class="cls-2" d="m514.7 25.8.2 4-4.6.5-.7-4.5h5.1Z"/><path class="cls-1" d="m499.2 18.4-4.3 3.4-2.8-10.8 7.1 7.4zM411.4 26.4l2 6.2 6.6-4.7-3.3-5.1-5.3 3.6z"/><path class="cls-6" d="m399.8 17.6 6.5-.1-2.8-5-3.7 5.1zM237 34.3c-1.9.9-1.7 2.8-.8 3.9.8 1 2.8 1.3 4-.1 1.5-2-1-4.9-3.2-3.8Z"/><path class="cls-1" d="m260.8 46.7 9.9-2 .3-7.9 7.9 1.5 1.2 3.3-6.5-1.2-.4 7.7-10.7 2-1.7-3.4z"/><path class="cls-6" d="m301.5 43.3 3.3-.4-.2 4.3 3-.3.6 8 5.9-.5 1.3 7-3.1 1.6-1.2-5.6-5.1 1s-.8-8-1-8l-3.2.5-.3-7.6Z"/><path class="cls-2" d="m288.1 33.3 1.4 10.9 4.5-8.8-5.9-2.1zM326.2 15.9c.2 2.8 4.1 2.4 4.4.6.2-1.4-.4-2.6-1.7-2.8-1.3-.3-2.8.4-2.7 2.2Z"/><path class="cls-1" d="m333.9 23.2 5-4.3 2.1 1.6 3-4.3 2.2.8 2.1-4 2.9 1.7-3.4 5.9-2.7-1.5-3.4 5.3-2.3-2.5-2.4 3.3-3.1-2zM242.6 25.2l-1.3-2.9 5.4-2.8 1.5 3.7-5.6 2z"/><path class="cls-6" d="m257.7 7.4 1.4 10.1 4.6-6.4-6-3.7zM282.6 11.5l7.1-2.4.9 5-3.1 1-4.9-3.6z"/><path class="cls-1" d="m274.1 24.1-6-7.4 8.1 3.7-2.1 3.7z"/><path class="cls-2" d="m264.8 27.9-5.8.2.1 3.4 5.5.2.2-3.8zM466.8 67.8l-3.1 4.7 1.7 2.1-3.5 4.9 2.6 1.8 4.3-6.9-1.3-2 3.1-4.4-5.2-8.2-2.2 2.2 3.6 5.8z"/><path class="cls-6" d="M167.6 130.8s-9.7-.3-11.4-.2c-1.7.2-11.4 4.7-11.4 4.7s-17.3 2.4-18.7 2.2l-7.4-2.4c4-.8 14-1.2 14-1.2l1.4.6 10.7.8-10.7-.8-14.1-5 2.1-5.4s-9.4 1.1-12.5 2.1c-3 1-7 2.5-7.6 3.6 0 0 .1 6.6 1.5 12l5.3.7c2.4.3 10.2 2.9 11.8 3.4 1.6.5 4.5 1.6 6.5 1.8 2 .2 6.6-.2 9-.7 2.3-.6 8.7-4 10.3-4.7a111 111 0 0 1 7.5-2.1l-.5-1 6.2-2.7c4-1.7 8.5-3.9 9.6-4.8l-1.6-.9Z"/><path class="cls-4" d="m289 97.7-6.2 43.1-12-1L289 97.7"/><path d="M229.8 153.5h-.1l-12.1-2.7c-1.5-.4-5-3-9-5.7l-2.2-1.6-5-1a.5.5 0 1 1 .2-1l5.1 1 2.6 1.8c2.6 2 7 5.1 8.5 5.5l10.7 2.4-1.7-2.2a.5.5 0 0 1 .4-.8l5.7-.7-4.6-1.6a.5.5 0 0 1 0-1l2.6-1a183 183 0 0 1-12.4-2c-.3 0-1-.4-2.1-1-3-1.7-8.6-5-12.5-6a64.8 64.8 0 0 0-12.7-1.7.5.5 0 0 1-.2-1c.2 0 14.2-4.2 16.7-6.6 5-4.7 7.1-9 7.5-9.7-.1-6.2-6-14.8-8.4-15.5-2.2-.6-9.1 3.8-11 5.5-1.3 1-9.1 11.3-13.1 16.6-.2.2-.4.3-.6.2a.5.5 0 0 1-.3-.4c-1.1-8.4-7.5-21.6-9.3-22.4-1.7-.8-8.2 1.8-10.4 3.1-1.8 1.1-5.8 8.9-6 10.2-.3 1.3 1.8 7.8 3.8 10.4 1.9 2.6 9.5 6.6 9.6 6.7a.5.5 0 0 1 0 .8c-1.8 1.6-13 6.3-15.4 7.3l3.3 8c1.9-1.5 8.6-6.6 9.9-7.9 1.6-1.5 4.7-5 4.7-5 .2-.1.5-.2.7 0a17.3 17.3 0 0 0 10.5 1.6c.2 0 .4 0 .5.2 0 0 1.3 1.7 3 3.5l10.4 10.4 6.4-3.6-5.9-4.9a.5.5 0 0 1 .7-.7l6.4 5.3a.5.5 0 0 1 0 .8l-7.4 4.1h-.6L186 140.4a48.3 48.3 0 0 1-2.9-3.4 18 18 0 0 1-10.6-1.6l-4.5 4.7a214.9 214.9 0 0 1-11 8.4.5.5 0 0 1-.3-.3l-3.7-9c-.1-.2 0-.5.2-.6a169 169 0 0 0 15-7 39 39 0 0 1-9.1-6.5 24.3 24.3 0 0 1-4-11.2c.3-1.6 4.4-9.6 6.4-10.8 1.9-1.1 9-4.3 11.4-3.2 2.4 1 8.2 13.8 9.7 22A310 310 0 0 1 195 106c1.3-1.2 9-6.5 12-5.6 3 .8 9 10.2 9 16.5v.2a37 37 0 0 1-7.7 10.1c-2 2-10.1 4.7-14.4 6 2.7.3 6.8.7 10.1 1.6a69 69 0 0 1 14.7 7.2c.8.3 9.1 1.5 14.2 2.2a.5.5 0 0 1 .1 1l-3.2 1.1 5.3 2a.5.5 0 0 1 0 .9l-7 .8 2 2.6a.5.5 0 0 1-.4.8ZM186 134h-.3l-3.2-2.4a.5.5 0 0 1 0-.8l10.7-12.5c1.3-1.5 3.7-3.8 5.5-5.5a.5.5 0 0 1 .6.8l-5.3 5.3-10.5 12.2 2.6 1.8c5-2.2 15.6-8.7 17.5-9.9l-3.1-11.5a.5.5 0 0 1 1-.3l3.2 11.9c0 .2 0 .4-.2.6A202 202 0 0 1 186 134Zm-11.1-4h-.4a85.1 85.1 0 0 1-10.4-11.7l1-9.8a.5.5 0 0 1 1-.1s7.1 13.3 9.3 21a.5.5 0 0 1-.5.7Zm-9.8-11.8c3.8 4.8 7 8.1 8.8 9.8-2-6.1-6.2-14.4-8-17.7l-.8 7.9Z"/><path d="M183.3 137a.5.5 0 0 1-.5-.4l-1-12.6c-6.8 3.4-8.9 11-9 11a.5.5 0 1 1-.9-.2c.1-.4 2.4-8.6 10.2-12a.5.5 0 0 1 .7.4l1 13.3a.5.5 0 0 1-.5.6ZM201 111.9l-.4-.2c-1.6-2.1-5.4-4.8-5.5-4.8a.5.5 0 0 1 .6-.8c.2 0 4 2.7 5.7 5a.5.5 0 0 1-.4.8ZM204.3 125.8a.5.5 0 0 1-.5-.5v-2a.5.5 0 1 1 1 0v2c0 .3-.2.5-.5.5ZM165.7 109.1c-.1 0-.3 0-.4-.2l-3.9-5a.5.5 0 1 1 .8-.6l4 5a.5.5 0 0 1-.5.8Z"/><path d="M169.2 132.2a.5.5 0 0 1-.2-1l5.8-2.1c.3-.1.5 0 .6.3.1.2 0 .5-.3.6l-5.7 2.2h-.2ZM187 134.5c-.4 0-.6-.2-.6-.5s.2-.5.5-.5a.5.5 0 1 1 0 1Z"/><path d="m189.6 133.8-2.7.2 2.3 1.6.4-1.8z"/><path d="M189.2 136.1h-.2l-2.4-1.6a.5.5 0 0 1 .3-1l2.6-.2.4.2c.2.1.2.3.2.4l-.4 1.8a.5.5 0 0 1-.5.4Zm-.8-1.7.5.4v-.4h-.5ZM134.1 135h-.1l-14.2-5.1a.5.5 0 0 1-.3-.7l2.2-5.3a.5.5 0 1 1 .9.3l-2 5 13.7 4.8a.5.5 0 0 1-.2 1ZM144.8 135.8h-.3a.5.5 0 0 1-.2-.5q0-.4 5.4-2.7a27 27 0 0 1 6.5-2.5l8 .1c.3 0 .5.2.5.5s-.2.5-.5.5h-8a93.3 93.3 0 0 0-11.4 4.6Z"/><path d="M128.4 148.3h-1.3c-1.9-.3-4.4-1.1-6.1-1.7l-.6-.2c-1-.3-9.2-3-11.7-3.4l-5.3-.7a.5.5 0 0 1-.4-.4 62 62 0 0 1-1.4-12.3c.7-1.6 6.7-3.5 7.9-3.9 2.2-.7 7.4-1.4 10.4-1.8.3 0 .5.1.6.4 0 .3-.2.5-.5.5a92 92 0 0 0-10.2 1.9 22 22 0 0 0-7.3 3.2c0 1 .2 6.6 1.4 11.4l5 .7c2.5.4 10.9 3.1 11.8 3.4l.6.2c1.6.6 4.1 1.4 5.9 1.6 2 .2 6.5-.2 8.7-.7 1.5-.4 5-2 7.5-3.3l2.8-1.4 7-2-.2-.5c-.1-.2 0-.5.2-.6l6.2-2.7c4.4-2 7.5-3.4 8.9-4.2l-1-.6a.5.5 0 1 1 .5-.8l1.7.9a.5.5 0 0 1 0 .8c-.9.8-4.2 2.4-9.7 4.8l-5.7 2.5.2.6a.5.5 0 0 1-.3.7l-7.4 2-2.8 1.4a51 51 0 0 1-7.6 3.4 42 42 0 0 1-7.8.8Z"/><path d="M126.4 138a137.6 137.6 0 0 1-8.3-2.5l-6.8-2.2-7.4-1a.5.5 0 1 1 .1-1l7.5 1 6.9 2.2 7.8 2.5c1 .1 11.8-1.3 18.5-2.2a.5.5 0 0 1 .1 1 338 338 0 0 1-18.4 2.2ZM182.3 123.7a.5.5 0 0 1-.4-.8l8.8-11.5c-.3-1.7-1-8-.9-8.8a104.2 104.2 0 0 1 1-4.1l.6-.6c2.8-3 4.3-4.7 4.4-5.2.1-.7 1.1-7.3 1.7-9.2.4-1.7 5.4-14.4 6.7-17.5l-8.6-.2c-1.2 1.4-3 3.6-3.2 4.4l-1.3 5.6a211.2 211.2 0 0 1-3.4 14.2l-1.6 2a52.3 52.3 0 0 0-3.6 4.6c0 .6-.2 7.8 0 8.8 0 0 1.1 6.5.6 7.5l-.6 1.6a.5.5 0 1 1-1-.4l.7-1.7a80.7 80.7 0 0 1-.7-16c.1-.4 1-1.5 3.8-5l1.5-2 3.3-13.8 1.3-5.6c.4-1.3 3.3-4.7 3.6-5 .1-.2.3-.2.4-.2l9.5.2a.5.5 0 0 1 .4.7l-6.9 18a126 126 0 0 0-1.6 9.2c0 .7-1.3 2.1-4.7 5.7l-.5.5-.8 3.7a113 113 0 0 0 .8 9.1l-9 11.6c0 .2-.2.2-.3.2ZM260.2 140.3l-50.2-3.7a.5.5 0 1 1 0-1l50 3.6L291 67.4c.1-.3.4-.4.7-.3.2.1.3.4.2.7L260.7 140c0 .1-.3.3-.5.3ZM152.7 132.3l-32.8-2.4a.5.5 0 0 1-.4-.5c0-.3.2-.5.5-.5l32.7 2.4a.5.5 0 0 1 0 1Z"/><path d="M268.5 145.6h-.3l-8.2-5.4a.5.5 0 0 1 .5-.9l8.3 5.4a.5.5 0 0 1-.3 1ZM296 87.3a.5.5 0 0 1 0-1l24.7-3.2 16 1c.2 0 .4.2.4.5s-.2.5-.5.4l-15.8-1-24.7 3.3ZM414.5 109 289 98.1a.5.5 0 0 1 0-1l125.5 10.7L484 93.4c.3 0 .6 0 .6.4 0 .2-.1.5-.4.5L414.6 109Z"/><path d="M321.8 101a.5.5 0 0 1-.5-.5l-1-17c0-.2.2-.4.5-.4.2 0 .5.1.5.4l1 17c0 .2-.2.5-.5.5ZM413 152.9a.5.5 0 0 1-.5-.5l1.5-44c0-.3.3-.5.5-.5.3 0 .5.3.5.5l-1.5 44c0 .3-.2.5-.5.5ZM319 154.8a.5.5 0 0 1-.2-1c3.3-1.3 3.6-2 3.6-2 .3-1 6-14.5 6.3-15 .1-.2.3-.4.5-.3.3 0 .4.2.5.4l.8 7.8 9.8.7v-9.8c-.1-.8-1.8-5.5-2.5-5.9-.3 0-.4-.2-.4-.5s.2-.5.5-.5c1.6 0 3.4 6.7 3.4 6.8a283.9 283.9 0 0 1-.1 10.9h-.4l-10.8-.8a.5.5 0 0 1-.5-.4l-.6-6.3-5.6 13.2c0 .4-.3 1-4.2 2.7h-.2Z"/><path d="M310.2 156a.5.5 0 0 1-.5-.3l-1-2.5-5.7 2a.5.5 0 0 1-.7-.4l-.6-2.6-6.8.7a.5.5 0 0 1-.5-.3c-.1-.3 0-.5.2-.6.7-.5 7.4-4.4 8.9-4.6 1-.2 3.5.4 6.5 1.2l2.3.5 1.8-.4a231 231 0 0 1 4.9-14.3 103.7 103.7 0 0 1 7.8-6.2l7.6.4a.5.5 0 0 1-.1 1l-7.4-.4a99.6 99.6 0 0 0-7.1 5.8 260.4 260.4 0 0 0-5.2 14.5c-.1 0-1.6.6-2.3.6l-2.5-.6c-2-.4-5.3-1.3-6.2-1.1-.7 0-3.9 1.8-6.5 3.3l5-.5c.3 0 .5.1.5.4l.6 2.5 5.5-2c.3-.1.5 0 .7.2l1.1 2.7c2.8 0 5.7-.2 6-.3.4-.1.6 0 .7.3.1.3 0 .5-.3.6-.7.3-5.3.4-6.7.4Z"/><path d="m329.2 137.5-.4-.2a.5.5 0 0 1 0-.7l8.8-7.8a.5.5 0 1 1 .6.8l-8.7 7.7-.3.2ZM459.2 134h-.3c-1.8-1.6-4.6-2.9-5-2.7-.3.1-.6 0-.7-.3-.1-.2 0-.5.2-.6 1.3-.5 4.7 1.5 6.1 2.8a.5.5 0 0 1-.3.9Z"/><path d="M468.9 149h-.2c-1-.1-5.8-3-6.2-3.7l-1.8-6.7-.9-3.6-.6-.8a46.3 46.3 0 0 0-5.3 4.5c-.6.8-2.3 5-2.9 6.5a.5.5 0 1 1-1-.4 67 67 0 0 1 3.1-6.7c.8-1.1 5.3-4.6 5.8-5h.6c.7.7 1.1 1.2 1.3 1.6l.9 3.7 1.6 6.4c.5.5 4.9 3.1 5.5 3.2l6.1-1 5.6-1c1.3 0 8.3.9 11.4 1.3l-.7-.7c-.1-.2-.2-.4-.1-.6s.3-.3.5-.3l6 .2c-2-1.5-4.4-3.3-5.1-3.6-1.2-.3-17 .9-18 1-.8.2-3-1.7-4.5-3.3l-.2-.2c-.6-3.5-1.7-8.7-2.5-10.2l-13.5 1.7c-1.2.5-7 4.4-8.7 6.5-1.8 2.1-4.5 9.3-4.5 9.4 0 .3-.4.4-.6.3a.5.5 0 0 1-.3-.6c0-.3 2.7-7.5 4.6-9.7a43 43 0 0 1 9.3-6.8l14-1.8s.3 0 .4.2a50 50 0 0 1 2.8 10.6c1.4 1.4 3.2 2.9 3.6 3 .1 0 16.9-1.5 18.4-1 1.4.4 6 4.2 6.5 4.7a.5.5 0 0 1-.3.8l-6.2-.1.9.8a.5.5 0 0 1-.5.9c-3-.5-11.3-1.5-12.6-1.5l-5.5 1a62 62 0 0 1-6.2 1ZM388.6 93l-2.6-.3a.5.5 0 0 1-.5-.5c0-.3.3-.5.6-.5l2 .2A129.4 129.4 0 0 0 378 42.5l5-7a.5.5 0 1 1 .8.6l-4.8 6.8a131 131 0 0 1 10 50h-.3Z"/><path d="M407.2 94.2h-.2l-13.5-.9a.5.5 0 0 1-.5-.5s.3-4.6-.3-8.2v-.4l.5-.2 6.3.5L385 32.8a.5.5 0 0 1 1-.3l14.7 52.4a.5.5 0 0 1-.5.6l-6.4-.4c.4 2.8.3 6 .3 7.3l13 .8c.8 0 1.6-.3 2.2-1s.7-1.6.4-2.4l-20.5-67c-.2-.6-.8-1.1-1.5-1.2-.7-.2-1.4.1-1.8.7l-14.5 19.8a108.5 108.5 0 0 1 11 42.4l-.3.2-7.7-.5a.5.5 0 0 1-.5-.5 89 89 0 0 0-7.7-34.4l-13.5 18.3c4.7 6.6 5 14.7 5 15l-.1.4c-.1.1-.2.2-.4.1l-9.5-.4a.5.5 0 0 1-.3-.8l4.2-4.1c-.6-1.8-2-4-2.5-5l-8.5 10.3a3 3 0 0 0-.4 3.2 3 3 0 0 0 2.6 1.9l19.6 1.5c.4-12.8-4-21-4-21V68l5.7-7 .5-.2.4.3a60 60 0 0 1 5 29l13.1 1.2a.5.5 0 0 1 0 1l-13.7-1.2a.5.5 0 0 1-.5-.6 60 60 0 0 0-4.5-28.3l-5 6.2a46.9 46.9 0 0 1 3.8 22c0 .2-.2.2-.4.2l-20-1.5a4 4 0 0 1-3.5-2.5 4 4 0 0 1 .6-4.2l8.8-10.8.4-.2.4.2c.1.2 2.3 3.5 3.2 6 0 .3 0 .5-.2.6l-3.6 3.5 7.8.3c-.1-2-1-8.8-5-14.2a.5.5 0 0 1 0-.6L365.9 48c0-.2.2-.2.4-.2s.3 0 .4.2c.1.2 8 16 8.2 35l6.7.5a106 106 0 0 0-11.2-41.3.5.5 0 0 1 0-.5l14.7-20c.6-1 1.7-1.4 2.8-1.2 1 .2 2 1 2.2 2l20.6 67a3.6 3.6 0 0 1-3.5 4.6Z"/><path d="M405.6 67.6a.5.5 0 0 1-.2-1L458 38.8h.2l9-2h.2l6.5 1.8.8-1.8-7.8-2.5a.5.5 0 0 1 0-1l9.5-4.4-.5-2-9 3.3a.5.5 0 0 1-.7-.4V28l7.3-6.7-1.4-1.2-9.6 7.2-.2.1-3 .5h-.4a.5.5 0 0 1-.2-.5l.5-8.1-2.2-.3c-1 4.2-2.1 11.3-2.1 11.4l-.3.3-51.6 35.4c-.2.2-.5.1-.7-.1a.5.5 0 0 1 .2-.7L454 30c.2-1.3 1.4-8 2.2-11.7 0-.2.3-.4.5-.4l3.2.4c.2 0 .4.3.4.5l-.5 8 2.3-.4 9.8-7.3c.2-.2.5-.2.6 0l2.1 1.8a.5.5 0 0 1 0 .8l-7.4 6.9v.4l9-3.3a.5.5 0 0 1 .7.3l.6 3c0 .3 0 .5-.2.6l-8.8 4 7.1 2.4a.5.5 0 0 1 .3.6l-1.1 2.7c-.1.2-.4.3-.6.2l-6.8-1.8-8.9 2-52.7 27.9h-.2ZM391.1 107l-4.6-.5a.5.5 0 0 1-.4-.4l-.6-13.9a.5.5 0 0 1 .6-.5l2.6.3c.2 0 .4.1.4.4l2.5 14a.5.5 0 0 1-.5.5Zm-4-1.4 3.4.3-2.3-13-1.7-.1.6 12.8ZM362 104.4l-4.1-.3-.4-.2c0-.1-.1-.3 0-.4l2.8-13.4c0-.2.3-.4.5-.4h2a.5.5 0 0 1 .6.5l-.8 13.8a.5.5 0 0 1-.5.4Zm-3.5-1.3 3.1.3.8-12.7h-1.2l-2.7 12.4ZM355.8 63s-.2 0-.3-.2l-43.8-34.6-7.1-1.4-6.7.9a.5.5 0 0 1-.6-.4l-.6-2a.5.5 0 0 1 .4-.7l6.7-1.6.3-.8-8.6-3a.5.5 0 0 1-.3-.5l.7-2.2c0-.2.4-.3.6-.3l9 2h.1l-5.9-6.3a.5.5 0 0 1 0-.7l1.8-1.7c.1-.2.4-.2.6 0L310 16l2.1.6.5-7.5a.5.5 0 0 1 .6-.4l3.2.5c.3 0 .4.2.5.4a77.2 77.2 0 0 1 .6 10.5l40.2 40.1c.1.2.2.5 0 .7l-1.4 1.9a.5.5 0 0 1-.4.2Zm-51.2-37.2 7.4 1.5h.2l43.5 34.4.9-1-40-40-.2-.3-.3-5.7-.3-4.6-2.3-.3-.5 7.5a.5.5 0 0 1-.6.4l-2.9-.8h-.2l-7.5-6.4-1 1 5.8 6.2c.1.1.2.3 0 .5l-.2.9c-.1.2-.4.3-.6.3l-9-2.1-.5 1.2 8.6 2.9a.5.5 0 0 1 .3.6l-.5 1.6c-.1.1-.2.3-.4.3l-6.5 1.5.4 1.2 6.3-.8ZM450.6 68.5a.5.5 0 0 1-.5-.4l-2.2-8.4v-.4l.5-.2h5.8a.5.5 0 0 1 .4.8l-3.5 8.3c-.1.2-.3.3-.5.3Zm-1.6-8.4 1.7 6.4 2.7-6.3H449ZM474.4 61.5a.5.5 0 0 1-.5-.4l-1.7-5.3c0-.3 0-.5.3-.6l4.6-2a.5.5 0 0 1 .7.4l1.7 5.2c.1.2 0 .5-.2.6l-4.7 2h-.2Zm-1.1-5.6 1.4 4.4 3.7-1.6-1.4-4.3-3.7 1.5ZM512.3 58.7l-4.6-.2a.5.5 0 0 1-.5-.5l.2-5.2-6 1a.5.5 0 0 1-.5-.4l-1.9-7.8-7.2.7c-.2 0-.3 0-.4-.2a.5.5 0 0 1-.2-.4l.5-4.3c0-.2.3-.4.5-.4l9.6-.6c.2 0 .4.2.5.4l1.5 7.6 7.2-.6c.3 0 .5.2.6.4l1.2 9.9a.5.5 0 0 1-.5.6Zm-4.1-1.2 3.5.1-1-8.8-7.3.7a.5.5 0 0 1-.5-.4l-1.5-7.7-8.7.6-.4 3.2 7-.7c.3 0 .5.2.6.4l1.8 7.8 6.1-1 .4.1.2.4-.2 5.3ZM505 75c-.4 0-1.5 0-2.3-.7-.4-.5-.6-1.2-.5-2 .1-1.3 1.5-2.5 3-2.4 1.5 0 2.6 1.5 2.6 2.7 0 1.6-1 2.4-2.6 2.5h-.2Zm0-4.1c-1 0-1.8.8-1.8 1.5 0 .5 0 .9.3 1.2.4.4 1.2.5 1.6.5 1 0 1.7-.3 1.7-1.6 0-.6-.7-1.6-1.7-1.6Zm-2.3 1.4ZM501 97a.5.5 0 0 1-.4-.4l-1-5.4a.5.5 0 0 1 .5-.6l5-.3c.3 0 .5.1.6.3l1.2 4.4a.5.5 0 0 1-.4.6l-5.3 1.4h-.1Zm-.3-5.4.8 4.3 4.3-1.1-1-3.5-4.1.3ZM525.1 53.6c-.1 0-.3 0-.4-.2l-3.1-5.2a.5.5 0 0 1 .5-.8l10.7 1.7a.5.5 0 0 1 .1 1l-7.5 3.5h-.3Zm-2-5 2.2 3.9 5.7-2.7-8-1.2ZM510.3 30.8a.5.5 0 0 1-.5-.4l-.7-4.5a.5.5 0 0 1 .5-.6h5.1l.4.1.1.4.2 4c0 .3-.1.5-.4.5l-4.7.5Zm0-4.5.4 3.5 3.7-.4-.1-3.1h-4ZM494.9 22.3h-.2a.5.5 0 0 1-.3-.4l-2.8-10.8a.5.5 0 0 1 .8-.5l7.1 7.4a.5.5 0 0 1 0 .8l-4.3 3.4-.3.1Zm-1.9-9.6 2.1 8.3 3.3-2.7-5.4-5.6ZM413.4 33h-.2a.5.5 0 0 1-.3-.3l-2-6.2c0-.2 0-.4.2-.5l5.4-3.6a.5.5 0 0 1 .7.2l3.2 5c.2.3.1.6-.1.7l-6.6 4.7h-.3Zm-1.4-6.4 1.7 5.2 5.6-4-2.7-4.3-4.6 3ZM399.8 18a.5.5 0 0 1-.4-.7l3.7-5c0-.2.2-.3.4-.3s.3.1.4.3l2.9 5a.5.5 0 0 1-.5.7h-6.5Zm3.6-4.6-2.6 3.7 4.7-.1-2-3.6ZM238.2 39.6c-1 0-1.9-.4-2.4-1.1-.6-.8-1-1.8-.7-2.7.1-.6.5-1.4 1.7-2 1.4-.7 2.8 0 3.6 1 .9 1.1 1 2.5.1 3.6a3 3 0 0 1-2.3 1.2Zm-.3-5-.7.1c-.6.3-1 .8-1.1 1.3-.2.6 0 1.3.5 1.9.3.4 1 .7 1.6.7.5 0 1-.2 1.5-.8.7-.8.4-1.8-.1-2.4-.4-.5-1-.9-1.7-.9Zm-.9-.3ZM262.5 50.6a.5.5 0 0 1-.5-.3l-1.6-3.4v-.4l.3-.3 9.5-2 .3-7.5a.5.5 0 0 1 .6-.4l7.9 1.5.3.3 1.3 3.3a.5.5 0 0 1-.6.7l-6-1.1-.3 7.1c0 .3-.2.5-.4.5l-10.7 2h-.1Zm-1-3.5 1.3 2.5 10-2 .3-7.2a.5.5 0 0 1 .6-.5l5.6 1-.8-2.1-7-1.4-.3 7.3c0 .2-.2.4-.4.5l-9.2 1.9ZM312.3 63.5a.5.5 0 0 1-.5-.4l-1-5.1-4.7 1a.5.5 0 0 1-.6-.5l-.8-7.6a238.1 238.1 0 0 0-3.2.4.5.5 0 0 1-.2-.3l-.3-7.7c0-.3.2-.5.5-.5l3.2-.4c.2 0 .3 0 .4.2l.2.4-.2 3.7 2.4-.3a.5.5 0 0 1 .5.5l.6 7.4 5.4-.4c.3 0 .5.2.6.4l1.3 7c0 .2-.1.4-.3.5l-3.1 1.7h-.2ZM311 57a.5.5 0 0 1 .5.4l1 5 2.2-1.2-1.1-6.1-5.5.4a.5.5 0 0 1-.5-.5l-.6-7.5-2.5.3a.5.5 0 0 1-.5-.5l.1-3.7-2.1.2.1 6.6 2.8-.4c.6 0 .7 0 1.4 8l4.6-1h.1ZM289.5 44.7h-.1a.5.5 0 0 1-.4-.5l-1.4-10.8a.5.5 0 0 1 .6-.5l6 2a.5.5 0 0 1 .2.8l-4.5 8.7c0 .2-.3.3-.4.3Zm-.8-10.6 1 8.4 3.5-6.8-4.5-1.6ZM328.4 18.4c-1.2 0-2.6-.7-2.7-2.5 0-1.1.4-1.8.8-2.1.6-.6 1.5-.8 2.5-.6 1.5.3 2.3 1.6 2 3.3 0 1.3-1.4 2-2.6 2Zm-1.7-2.6c.1 1.5 1.3 1.6 1.7 1.6.8 0 1.6-.3 1.7-1 0-.6 0-2-1.3-2.2-.6-.2-1.3 0-1.6.3-.4.3-.5.8-.5 1.3ZM337 25.7l-.3-.1-3-2a.5.5 0 0 1-.1-.8l5-4.2c.1-.2.4-.2.6 0l1.7 1.2 2.7-4c.2-.1.4-.2.6 0l1.8.6 1.8-3.7a.5.5 0 0 1 .7-.2l3 1.7a.5.5 0 0 1 .2.7l-3.5 6a.5.5 0 0 1-.7.2l-2.2-1.3-3.2 4.8a.5.5 0 0 1-.8.1l-1.9-2-2 2.8-.4.2Zm-2.3-2.5 2.1 1.3 2.2-3a.5.5 0 0 1 .7 0l2 2 3-4.7c.2-.2.5-.2.7-.1l2.2 1.3 3-5.1-2.1-1.2-1.8 3.6c-.1.2-.4.3-.7.2l-1.8-.7-2.7 4a.5.5 0 0 1-.8.2l-1.8-1.4-4.2 3.6ZM242.6 25.7a.5.5 0 0 1-.5-.3l-1.3-2.9c-.1-.2 0-.5.2-.6l5.5-2.8a.5.5 0 0 1 .6.2l1.6 3.7a.5.5 0 0 1-.3.6l-5.6 2-.2.1Zm-.7-3.2 1 2 4.6-1.6-1-2.7-4.6 2.3ZM259 18a.5.5 0 0 1-.4-.5l-1.4-10a.5.5 0 0 1 .8-.6l6 3.8.2.3v.4l-4.7 6.4-.4.2Zm-.7-9.6 1.1 7.8 3.6-5-4.7-2.8ZM287.5 15.6h-.3l-5-3.7a.5.5 0 0 1 .2-.9l7.2-2.3h.4l.2.3 1 5c0 .2-.2.5-.4.6l-3.1 1h-.2Zm-3.9-4 4 3 2.5-.9-.7-4-5.8 2ZM274 24.6l-.3-.1-6-7.4a.5.5 0 0 1 .6-.8l8 3.6a.5.5 0 0 1 .3.7l-2 3.8a.5.5 0 0 1-.5.2Zm-4.2-6.5 4.2 5.1 1.5-2.6-5.7-2.5ZM264.6 32.2 259 32a.5.5 0 0 1-.5-.5l-.1-3.4c0-.2.2-.5.5-.5l5.8-.2c.1 0 .3 0 .4.2l.1.3-.2 3.8c0 .3-.2.5-.5.5Zm-5-1.2 4.5.2.2-2.8-4.8.2V31ZM464.5 81.8l-.3-.1-2.5-1.8a.5.5 0 0 1-.2-.7l3.3-4.6-1.5-1.8a.5.5 0 0 1 0-.6l2.9-4.4-3.4-5.6a.5.5 0 0 1 0-.6l2.2-2.1.4-.2c.2 0 .3.1.4.3l5.2 8v.6l-2.9 4.2 1.1 1.8v.5l-4.3 6.8a.5.5 0 0 1-.4.3Zm-1.9-2.4 1.7 1.2 4-6.2-1.2-1.7a.5.5 0 0 1 0-.6L470 68l-4.7-7.3-1.5 1.5 3.4 5.5v.5l-2.9 4.4 1.5 1.7v.6l-3.2 4.6ZM369.6 87.1l-6.7-.4a.5.5 0 0 1-.5-.5c0-.3.2-.5.5-.5l6.8.4a.5.5 0 0 1 0 1ZM393.5 88.6l-5-.3a.5.5 0 0 1 0-1l5 .3a.5.5 0 0 1 0 1ZM471.6 141.3a.5.5 0 0 1-.1-1l5.9-1.1 6.2-44.9-73.6-4.6a.5.5 0 0 1-.5-.5c0-.3.3-.5.6-.5l74 4.7a.5.5 0 0 1 .5.5l-6.3 45.8c0 .2-.2.3-.4.4l-6.2 1.2h-.1ZM413 152.9l-87.2-7.7a.5.5 0 0 1-.4-.6c0-.3.3-.5.5-.4l87 7.7 49.2-9.7c.3 0 .6.1.6.4 0 .2-.1.5-.4.6l-49.2 9.7ZM316.2 144.3l-45.4-4a.5.5 0 1 1 0-1l45.4 4a.5.5 0 0 1 0 1ZM184.9 139l-14.8-1.2a.5.5 0 0 1-.5-.5c0-.3.3-.5.5-.5L185 138a.5.5 0 0 1 0 1Z"/><path d="m268.5 145.6-52.8-4.2a.5.5 0 1 1 .1-1l52.4 4.2L299 73.3l-7.7-5.2-145.2-3.5a.5.5 0 0 1-.5-.5c0-.3.3-.5.5-.5L291.6 67h.2l8.2 5.6c.2.1.2.4.1.6l-31.1 72c-.1.2-.3.3-.5.3ZM134.1 135h-.1l-14.2-5.1a.5.5 0 0 1-.3-.7l24.8-61.8a.5.5 0 1 1 1 .4L120.6 129l13.7 4.9a.5.5 0 0 1-.2 1Z"/><path d="M118.7 135.6a.5.5 0 0 1-.1-1c4-.8 13.6-1.2 14-1.2.2 0 .5.2.5.5s-.2.5-.5.5c0 0-9.8.4-13.8 1.2h-.1ZM161.8 103.6c-.5.3-1 1-1.7 2l3-.3-1.3-1.7Z"/><path d="M160 106a.5.5 0 0 1-.3-.8c.7-1 1.3-1.7 1.8-2 .3-.1.5-.1.7.1l1.3 1.7v.5l-.3.3-3 .2h-.1Zm1.7-1.7-.6.6h1l-.4-.6ZM195.4 106.5l2.2 1.6H194l1.4-1.6Z"/><path d="M197.6 108.6H194a.5.5 0 0 1-.4-.8l1.4-1.7c.2-.1.5-.2.7 0l2.2 1.6a.5.5 0 0 1-.3.9Zm-2.5-1h1l-.6-.5-.4.5ZM169.2 131.7l-2 1.3.4-2.2 1.6 1Z"/><path d="M167.2 133.5a.5.5 0 0 1-.5-.6l.4-2.2a.5.5 0 0 1 .7-.3l1.7.9a.5.5 0 0 1 0 .8 13.4 13.4 0 0 1-2.3 1.4Zm.8-2-.1.5.4-.2-.3-.2ZM198 141.9l-.3-.1-11.9-7.9a.5.5 0 1 1 .6-.8l11.8 7.8a.5.5 0 0 1-.2 1Z"/><path d="M186.9 134.5a.5.5 0 0 1 0-1l4.2-.3a.5.5 0 0 1 .1 1l-4.3.3ZM184 121l-1.7 2.2a30 30 0 0 0-.5-2.7l2.2.4Z"/><path d="M182.3 123.7h-.2a.5.5 0 0 1-.3-.4l-.5-2.7a.5.5 0 0 1 .6-.6l2.2.4a.5.5 0 0 1 .3.8l-1.7 2.3c-.1.2-.3.2-.4.2Zm.1-2.6.2.9.5-.7-.7-.2ZM337.9 129.2l-1.3 1.1 2.4.3c-.4-.8-.8-1.4-1.1-1.4Z"/><path d="m339 131.1-2.4-.3a.5.5 0 0 1-.3-.8l1.3-1.2h.3c.5 0 1 .4 1.6 1.6a.5.5 0 0 1-.5.7Zm-1.2-1.1h.3l-.1-.2-.2.2ZM453.6 130.9c-.3 0-1 .5-1.9 1l4.4-.4c-1.1-.5-2-.8-2.5-.6"/><path d="M451.7 132.5a.5.5 0 0 1-.3-1c.6-.3 1.6-1 2-1.1.6-.2 1.5 0 2.9.7a.5.5 0 0 1-.2 1l-4.3.4ZM362.9 90.2h-2.1l-.2 1.1 2.2.2.1-1.3z"/><path d="m362.8 92-2.3-.2a.5.5 0 0 1-.4-.6l.2-1.1c0-.2.3-.4.5-.4h2a.5.5 0 0 1 .6.5v1.3a.5.5 0 0 1-.6.5Zm-1.6-1.2 1.1.1v-.2h-1.1v.1ZM386 92.2l2.6.3.3 1.4-2.8-.2-.1-1.5z"/><path d="m388.9 94.4-2.9-.2a.5.5 0 0 1-.4-.5v-1.5a.5.5 0 0 1 .5-.5l2.6.3c.2 0 .4.1.4.4l.3 1.4a.5.5 0 0 1-.5.6Zm-2.4-1.2 1.8.1V93l-1.8-.1v.4ZM355.8 62.5l1.4-1.9-.6-.6-1.5 1.8.7.7z"/><path d="M355.8 63s-.2 0-.3-.2l-.8-.6a.5.5 0 0 1 0-.7l1.5-1.8a.5.5 0 0 1 .8 0l.6.5c.1.2.2.5 0 .7l-1.4 1.9a.5.5 0 0 1-.4.2Z"/></g></svg>
