<svg viewBox="0 0 793 361" fill="none" xmlns="http://www.w3.org/2000/svg"><g clip-path="url(#a)"><path d="M793 0H0v361h793V0Z" fill="#fff"/><path d="M646 7.5H9c-2 0-3.5 1.6-3.5 3.5v281c0 2 1.6 3.5 3.5 3.5h637c2 0 3.5-1.6 3.5-3.5V11c0-2-1.6-3.5-3.5-3.5Z" fill="#fff" stroke="#C6BECF"/><path d="M57 154h572M57 134h572M57 114h572M57 234h572M57 214h572M57 194h572M57 174h572M57 154h572M57 94h572" stroke="#E7E1EC" stroke-width=".5" stroke-miterlimit="10"/><path d="M57 254h572" stroke="#9386A0" stroke-miterlimit="10" stroke-linecap="round"/><path d="M33.1 46.2c-1.6 0-2.8-.5-3.7-1.3-.8-.9-1.2-2-1.3-3.6a48.4 48.4 0 0 1 0-3.2c0-1.5.5-2.7 1.3-3.6.9-.8 2.1-1.3 3.7-1.3 1 0 2 .2 2.7.6a4 4 0 0 1 2.3 3.4v.3l-.3.1h-1c-.3 0-.4-.1-.5-.4-.2-.9-.5-1.5-1-1.9-.6-.4-1.3-.5-2.2-.5-2 0-3.1 1.1-3.2 3.4a44.6 44.6 0 0 0 0 3c0 2.3 1.1 3.4 3.2 3.4.9 0 1.6-.1 2.1-.5.6-.4 1-1 1.1-1.9 0-.2.1-.3.2-.3l.3-.1h1l.2.1c.1 0 .2.1.1.2a4 4 0 0 1-2.3 3.5 6 6 0 0 1-2.7.6Zm10.7 0c-1.1 0-2-.4-2.6-1.1-.7-.8-1-1.7-1-3v-5l.1-.3.3-.2h1s.2 0 .2.2c.1 0 .2.1.2.3v5c0 1.7.7 2.6 2.3 2.6.8 0 1.4-.2 1.8-.7.4-.5.7-1.1.7-2v-5.2l.4-.2h.9c.1 0 .2 0 .3.2V45.9l-.3.1h-.9l-.3-.1v-1.1c-.4.5-.8.8-1.3 1-.5.3-1 .4-1.8.4Zm10.6 0a5 5 0 0 1-2.1-.4c-.6-.3-1-.6-1.3-1-.3-.3-.4-.6-.4-.8l.1-.3H52.1c.3.4.6.7 1 .9.3.2.7.3 1.3.3.6 0 1.1-.2 1.5-.4.4-.2.6-.6.6-1 0-.3 0-.5-.2-.7-.2-.2-.5-.4-.9-.5l-1.7-.5c-1-.2-1.8-.5-2.2-1-.5-.4-.7-1-.7-1.6 0-.5.2-1 .4-1.3.3-.5.7-.8 1.2-1 .5-.3 1.2-.4 1.9-.4.8 0 1.4 0 2 .3.5.3.9.6 1.2 1l.4.8-.1.3h-1.1l-.3-.1-.5-.5-.6-.4-1-.1a2 2 0 0 0-1.3.4c-.3.2-.5.5-.5 1 0 .2 0 .4.2.6l.8.4c.3.2.9.3 1.6.5a5 5 0 0 1 2.4 1c.5.5.7 1 .7 1.7 0 .5-.1 1-.4 1.4a3 3 0 0 1-1.3 1c-.6.3-1.3.4-2.1.4ZM64 46c-2 0-2.9-1-2.9-3.2v-4.7h-1.4l-.3-.1-.1-.3V37l.1-.3.3-.2h1.4v-3l.1-.3h1.5v3.3H65c.1 0 .2 0 .3.2l.1.3V38h-2.6v4.7c0 .6 0 1 .3 1.4.2.3.5.4 1 .4h1.1l.3.1.1.3v.7l-.1.3-.3.1H64Zm7.2.2c-1.3 0-2.4-.4-3.1-1.1a4.3 4.3 0 0 1-1.2-3v-1.6c0-1.2.5-2.2 1.2-3a4 4 0 0 1 3-1 4 4 0 0 1 3.1 1c.8.8 1.2 1.8 1.2 3a10.5 10.5 0 0 1 0 1.6c0 1.2-.4 2.2-1.2 3-.7.7-1.7 1-3 1Zm0-1.4c.7 0 1.3-.2 1.8-.7.4-.5.6-1.2.7-2.1a8.3 8.3 0 0 0 0-1.4c0-.9-.3-1.6-.7-2-.5-.5-1-.8-1.8-.8s-1.4.3-1.8.8a3 3 0 0 0-.7 2V42c0 .9.2 1.6.7 2 .4.6 1 .8 1.8.8ZM78 46l-.3-.1-.1-.3v-8.8l.4-.2h.8c.1 0 .2 0 .3.2l.1.3v.6c.6-.8 1.5-1.2 2.6-1.2 1.4 0 2.3.5 2.8 1.6.3-.5.7-.9 1.3-1.2.5-.3 1-.4 1.8-.4 1 0 1.7.3 2.4 1 .6.6.9 1.6.9 2.9v5.2l-.1.3-.3.1h-.9l-.3-.1v-5.3c0-1-.3-1.7-.7-2a2 2 0 0 0-1.5-.7 2 2 0 0 0-1.5.6c-.4.5-.6 1.1-.6 2V46l-.4.1H84l-.3-.1-.1-.3v-5c0-1-.2-1.7-.7-2a2 2 0 0 0-1.5-.7 2 2 0 0 0-1.4.6c-.4.5-.6 1.1-.6 2v5c0 .2 0 .3-.2.4l-.2.1h-1Zm20.6 0-.3-.1V33.5l.3-.1h1l.4.3 3.8 7.3 3.8-7.3.2-.2.3-.1h.9l.3.1V46l-.3.1h-1l-.2-.1-.1-.3v-8.9l-3 5.9c-.2.3-.4.4-.6.4h-.6c-.2 0-.4-.1-.5-.4l-3-5.9v8.9l-.2.3-.3.1h-.9Zm17.4.2a4 4 0 0 1-3-1.2 4.7 4.7 0 0 1-1.2-3V40.6c.1-1.3.5-2.3 1.3-3 .7-.9 1.7-1.2 2.9-1.2 1.3 0 2.4.4 3 1.2a5 5 0 0 1 1.2 3.5v.3l-.1.3h-6.5v.2c0 .8.2 1.5.7 2 .4.6 1 .8 1.7.8a2.5 2.5 0 0 0 2.1-1l.3-.2h1.4l.1.3c0 .2-.1.5-.5 1a4 4 0 0 1-1.3.9 5 5 0 0 1-2 .4Zm2.5-5.6a3 3 0 0 0-.7-2c-.4-.6-1-.8-1.8-.8s-1.4.2-1.8.8a3 3 0 0 0-.6 2h4.9ZM126 46c-1.8 0-2.8-1-2.8-3.2v-4.7h-1.4l-.3-.1-.1-.3V36.8l.4-.2h1.4v-3l.1-.3h1.5v3.3h2.3c.1 0 .2 0 .3.2l.1.3v.6l-.1.3h-2.5v4.7c0 .6 0 1 .3 1.4.2.3.5.4 1 .4h1l.4.1.1.3v.7l-.1.3-.3.1H126Zm3.8 0-.3-.1V36.8l.3-.2h.9s.2 0 .3.2l.1.3v.8c.5-.9 1.3-1.3 2.5-1.3h.7c.1 0 .2 0 .3.2l.1.3v1h-1.4a2 2 0 0 0-1.6.7 2 2 0 0 0-.5 1.5v5.3c0 .1 0 .2-.2.3l-.3.1h-.9Zm6.7-11.1-.3-.1v-1.6l.3-.1h1.2l.3.1.1.3v1l-.1.3h-1.5Zm.2 11.1-.3-.1-.1-.3v-8.8l.4-.2h.8c.2 0 .3 0 .3.2.1 0 .2.1.2.3v8.5c0 .1 0 .2-.2.3l-.3.1h-.8Zm7.7.2c-1.3 0-2.3-.4-3-1.1a4.4 4.4 0 0 1-1.2-3v-1.5c0-1.3.5-2.3 1.2-3a4 4 0 0 1 3-1.1c.9 0 1.6.1 2.2.4.6.3 1 .7 1.3 1.2.3.4.5.9.5 1.3v.3l-.4.1h-1.1l-.2-.3c-.2-.6-.5-1-.9-1.2-.3-.3-.8-.4-1.4-.4-.7 0-1.3.2-1.8.7-.4.4-.6 1.1-.7 2V42c0 1 .3 1.6.7 2 .5.5 1 .8 1.8.8.6 0 1-.2 1.4-.4.4-.3.7-.7.9-1.2 0-.2.1-.3.2-.3l.2-.1h.9l.3.1.1.3c0 .4-.2.9-.5 1.4-.3.4-.7.8-1.3 1.1-.6.3-1.3.5-2.2.5Z" fill="#2B1D38"/><path d="M47.3 253.8a46 46 0 0 1-.2 3.3c-.2.4-.3.8-.6 1-.2.4-.6.6-1 .8l-1.3.2c-.5 0-1 0-1.4-.2l-1-.7a3 3 0 0 1-.5-1 45.5 45.5 0 0 1 0-4.6c.2-.5.3-.9.6-1.2.2-.3.6-.5 1-.7l1.3-.2c.5 0 1 0 1.4.2.3.2.7.4.9.7.3.3.4.7.6 1.1l.2 1.3Zm-5 2c0 .8.2 1.3.5 1.7.3.4.8.5 1.4.5.6 0 1-.1 1.4-.5.3-.4.5-1 .5-1.7a45.5 45.5 0 0 0 0-2c0-.8-.2-1.3-.5-1.7-.3-.4-.8-.5-1.4-.5-.6 0-1.1.1-1.4.5-.3.4-.5 1-.5 1.7a46 46 0 0 0 0 2ZM39.5 238.7v.2l-.3.1h-.5l-.2-.1-.1-.2V232l-2 1.4-.2.1-.2-.1-.3-.4s-.1-.1 0-.2v-.2l2.6-2h.2l.2-.1h.5l.2.1.1.2v7.8Zm7.8-5a46 46 0 0 1-.2 3.4c-.2.4-.3.8-.6 1-.2.4-.6.6-1 .8l-1.3.2c-.5 0-1 0-1.4-.2l-1-.7a3 3 0 0 1-.5-1 45.5 45.5 0 0 1 0-4.6c.2-.5.3-.9.6-1.2.2-.3.6-.5 1-.7l1.3-.2c.5 0 1 0 1.4.2.3.2.7.4.9.7.3.3.4.7.6 1.1l.2 1.3Zm-5 2.1c0 .8.2 1.3.5 1.7.3.4.8.5 1.4.5.6 0 1-.1 1.4-.5.3-.4.5-1 .5-1.7a45.5 45.5 0 0 0 0-2c0-.8-.2-1.3-.5-1.7-.3-.4-.8-.5-1.4-.5-.6 0-1.1.1-1.4.5-.3.4-.5 1-.5 1.7a46 46 0 0 0 0 2ZM37.8 214.6l.5-.7.2-.9c0-.4-.1-.7-.4-1-.2-.3-.6-.4-1.2-.4a2 2 0 0 0-.7 0l-.5.4-.3.5-.2.5-.1.3H34.2v-.2l.1-1 .6-.8.8-.6 1.2-.2c.5 0 .9 0 1.2.2l.8.5c.3.3.4.5.5.9.2.3.2.6.2 1v.6l-.2.6-.4.6-.5.5-2.7 2.5h3.7l.2.1.1.2v.7l-.3.1h-5.2l-.2-.1-.1-.2v-.7l.3-.2 3.5-3.2Zm9.5-.8a46 46 0 0 1-.2 3.3c-.2.4-.3.8-.6 1-.2.4-.6.6-1 .8l-1.3.2c-.5 0-1 0-1.4-.2l-1-.7a3 3 0 0 1-.5-1 45.5 45.5 0 0 1 0-4.6c.2-.5.3-.9.6-1.2.2-.3.6-.5 1-.7l1.3-.2c.5 0 1 0 1.4.2.3.2.7.4.9.7.3.3.4.7.6 1.1l.2 1.3Zm-5 2c0 .8.2 1.3.5 1.7.3.4.8.5 1.4.5.6 0 1-.1 1.4-.5.3-.4.5-1 .5-1.7a45.5 45.5 0 0 0 0-2c0-.8-.2-1.3-.5-1.7-.3-.4-.8-.5-1.4-.5-.6 0-1.1.1-1.4.5-.3.4-.5 1-.5 1.7a46 46 0 0 0 0 2ZM34.9 197l.1.4.4.3.5.2a3.7 3.7 0 0 0 1.7 0l.6-.2a1.4 1.4 0 0 0 .5-1.2l-.1-.6a1 1 0 0 0-.4-.5l-.6-.2h-1.7l-.3-.2v-.8l.1-.2 2.2-2.3h-3.5l-.2-.1V190.7l.2-.1h4.8l.2.1V191.6l-.1.2L37 194l1.1.1a2.3 2.3 0 0 1 1.6 2.3c0 .4 0 .8-.2 1.1l-.6.8c-.3.3-.6.4-1 .5-.4.2-.7.2-1.1.2-.6 0-1 0-1.4-.2-.4 0-.7-.3-1-.5l-.6-.6a2 2 0 0 1-.2-.8l.1-.2h1v.2Zm12.4-3.2a46 46 0 0 1-.2 3.3c-.2.4-.3.8-.6 1-.2.4-.6.6-1 .8l-1.3.2c-.5 0-1 0-1.4-.2l-1-.7a3 3 0 0 1-.5-1 45.5 45.5 0 0 1 0-4.6c.2-.5.3-.9.6-1.2.2-.3.6-.5 1-.7l1.3-.2c.5 0 1 0 1.4.2.3.2.7.4.9.7.3.3.4.7.6 1.1l.2 1.3Zm-5 2c0 .8.2 1.3.5 1.7.3.4.8.5 1.4.5.6 0 1-.1 1.4-.5.3-.4.5-1 .5-1.7a45.5 45.5 0 0 0 0-2c0-.8-.2-1.3-.5-1.7-.3-.4-.8-.5-1.4-.5-.6 0-1.1.1-1.4.5-.3.4-.5 1-.5 1.7a46 46 0 0 0 0 2ZM37.8 179l-.2-.1V177h-4.1v-.7a.6.6 0 0 1 0-.4l3.9-5 .2-.2.2-.1h.5l.3.1v5.2h1l.3.1.1.3V176.9l-.3.1h-1v1.7l-.1.2-.3.1h-.5Zm-.3-3v-3.4l-2.6 3.3h2.6Zm9.8-2.2a46 46 0 0 1-.2 3.3c-.2.4-.3.8-.6 1-.2.4-.6.6-1 .8l-1.3.2c-.5 0-1 0-1.4-.2l-1-.7a3 3 0 0 1-.5-1 45.5 45.5 0 0 1 0-4.6c.2-.5.3-.9.6-1.2.2-.3.6-.5 1-.7l1.3-.2c.5 0 1 0 1.4.2.3.2.7.4.9.7.3.3.4.7.6 1.1l.2 1.3Zm-5 2c0 .8.2 1.3.5 1.7.3.4.8.5 1.4.5.6 0 1-.1 1.4-.5.3-.4.5-1 .5-1.7a45.5 45.5 0 0 0 0-2c0-.8-.2-1.3-.5-1.7-.3-.4-.8-.5-1.4-.5-.6 0-1.1.1-1.4.5-.3.4-.5 1-.5 1.7a46 46 0 0 0 0 2ZM35 156.8c0 .4.2.7.6 1l1.2.2h.8l.6-.4.4-.5.1-.8a1.7 1.7 0 0 0-.5-1.3l-.6-.3a2.5 2.5 0 0 0-1.5 0 2 2 0 0 0-.5.2l-.3.2-.3.1h-.8v-.3l.3-4 .1-.2.2-.1h4.3l.2.1V151.6h-3.7l-.2 2.2.5-.2 1-.1c.3 0 .7 0 1.1.2a2.7 2.7 0 0 1 1.9 2.6l-.3 1.2a2.7 2.7 0 0 1-1.6 1.4c-.4.2-.8.2-1.2.2a4 4 0 0 1-1.1-.1l-1-.5-.7-.7a2 2 0 0 1-.2-1v-.2h1l.1.2Zm12.3-3a46 46 0 0 1-.2 3.3c-.2.4-.3.8-.6 1-.2.4-.6.6-1 .8l-1.3.2c-.5 0-1 0-1.4-.2l-1-.7a3 3 0 0 1-.5-1 45.5 45.5 0 0 1 0-4.6c.2-.5.3-.9.6-1.2.2-.3.6-.5 1-.7l1.3-.2c.5 0 1 0 1.4.2.3.2.7.4.9.7.3.3.4.7.6 1.1l.2 1.3Zm-5 2c0 .8.2 1.3.5 1.7.3.4.8.5 1.4.5.6 0 1-.1 1.4-.5.3-.4.5-1 .5-1.7a45.5 45.5 0 0 0 0-2c0-.8-.2-1.3-.5-1.7-.3-.4-.8-.5-1.4-.5-.6 0-1.1.1-1.4.5-.3.4-.5 1-.5 1.7a46 46 0 0 0 0 2ZM36.4 133.4h.5a3.3 3.3 0 0 1 2.2.8c.3.2.5.5.6.9.2.3.3.7.3 1.1l-.3 1.2-.6.9a3 3 0 0 1-1 .6l-1.2.2c-.5 0-.9 0-1.3-.2-.4-.1-.7-.4-1-.6a2.8 2.8 0 0 1-.6-3.3 5.1 5.1 0 0 1 .6-1l2.2-3.2.2-.1.2-.1H38l.1.3v.1l-1.7 2.4Zm-1.5 2.8.1.7A1.9 1.9 0 0 0 37 138l.8-.1.6-.4.4-.6a1.7 1.7 0 0 0 0-1.4 1.7 1.7 0 0 0-1-1 2 2 0 0 0-.8 0H36a1.8 1.8 0 0 0-1.1 1.7Zm12.4-2.4a46 46 0 0 1-.2 3.3c-.2.4-.3.8-.6 1-.2.4-.6.6-1 .8l-1.3.2c-.5 0-1 0-1.4-.2l-1-.7a3 3 0 0 1-.5-1 45.5 45.5 0 0 1 0-4.6c.2-.5.3-.9.6-1.2.2-.3.6-.5 1-.7l1.3-.2c.5 0 1 0 1.4.2.3.2.7.4.9.7.3.3.4.7.6 1.1l.2 1.3Zm-5 2c0 .8.2 1.3.5 1.7.3.4.8.5 1.4.5.6 0 1-.1 1.4-.5.3-.4.5-1 .5-1.7a45.5 45.5 0 0 0 0-2c0-.8-.2-1.3-.5-1.7-.3-.4-.8-.5-1.4-.5-.6 0-1.1.1-1.4.5-.3.4-.5 1-.5 1.7a46 46 0 0 0 0 2ZM39.8 110.6l.2.1V111.8l-2.7 7-.2.1-.2.1h-.7l-.1-.3v-.1l2.7-7h-4.2V110.7l.3-.1h4.9Zm7.5 3.2a46 46 0 0 1-.2 3.3c-.2.4-.3.8-.6 1-.2.4-.6.6-1 .8l-1.3.2c-.5 0-1 0-1.4-.2l-1-.7a3 3 0 0 1-.5-1 45.5 45.5 0 0 1 0-4.6c.2-.5.3-.9.6-1.2.2-.3.6-.5 1-.7l1.3-.2c.5 0 1 0 1.4.2.3.2.7.4.9.7.3.3.4.7.6 1.1l.2 1.3Zm-5 2c0 .8.2 1.3.5 1.7.3.4.8.5 1.4.5.6 0 1-.1 1.4-.5.3-.4.5-1 .5-1.7a45.5 45.5 0 0 0 0-2c0-.8-.2-1.3-.5-1.7-.3-.4-.8-.5-1.4-.5-.6 0-1.1.1-1.4.5-.3.4-.5 1-.5 1.7a46 46 0 0 0 0 2ZM37.3 96.1H37L36 96a2.8 2.8 0 0 1-1.6-1.4c-.2-.4-.3-.8-.3-1.3a2.6 2.6 0 0 1 .9-2 3.1 3.1 0 0 1 2.1-.8c.5 0 .9 0 1.3.2a2.7 2.7 0 0 1 1.5 1.5c.2.3.2.7.2 1.1v.6a4.1 4.1 0 0 1-.6 1.2l-.3.4-2.2 3.3-.2.1-.2.1H35.6v-.4l1.7-2.5Zm1.6-2.8a1.7 1.7 0 0 0-.5-1.2l-.6-.4-.8-.1h-.8l-.5.5-.4.5-.2.7c0 .3 0 .5.2.7 0 .2.2.4.4.6a2 2 0 0 0 1.3.5c.3 0 .5 0 .8-.2l.6-.3.3-.6.2-.7Zm8.5.5a46 46 0 0 1-.2 3.3c-.1.4-.3.8-.6 1-.2.4-.5.6-1 .8l-1.3.2c-.5 0-1 0-1.3-.2l-1-.7a3 3 0 0 1-.5-1 45.5 45.5 0 0 1 0-4.6c0-.5.3-.9.5-1.2l1-.7 1.3-.2c.5 0 1 0 1.4.2l1 .7.5 1.1.2 1.3Zm-5 2c0 .8.2 1.3.5 1.7.3.4.8.5 1.4.5.6 0 1.1-.1 1.4-.5.4-.4.5-1 .6-1.7a45.5 45.5 0 0 0 0-2c0-.8-.2-1.3-.6-1.7-.3-.4-.8-.5-1.4-.5-.6 0-1 .1-1.4.5-.3.4-.5 1-.5 1.7a46 46 0 0 0 0 2Z" fill="#9386A0"/><path d="M101 254v5" stroke="#9585A3" stroke-miterlimit="10"/><path d="M67.7 270.1h-4.1l-.7 1.6v.2l-.4.1h-.7v-.4l3-7.6.1-.3.4-.1h.7l.4.1.2.3 2.9 7.6V271.9l-.2.1h-.5l-.3-.1-.1-.2-.7-1.6Zm-3.7-1h3.3l-1.6-4.4L64 269Zm9.6 3c-.5 0-1 0-1.2-.2l-.7-.6V274.2h-1V265.9l.3-.1H71.6l.1.3v.4l.7-.6c.3-.2.7-.3 1.2-.3a2.6 2.6 0 0 1 2.5 1.7 3.6 3.6 0 0 1 .2 1.6v.4l-.2 1.2-.6.9a2.6 2.6 0 0 1-2 .7Zm-1.9-3.7a7.6 7.6 0 0 0 0 1c0 .5.2 1 .5 1.2.4.3.8.5 1.3.5s1-.2 1.2-.5c.3-.4.5-.8.5-1.4v-.7c0-.5-.2-1-.5-1.3-.3-.4-.7-.5-1.2-.5s-1 .1-1.3.4c-.3.3-.4.7-.5 1.3Zm9.3-2.6h.2l.1.3v.4l-.1.2H80.3c-1 0-1.4.6-1.4 1.5v3.5l-.1.2-.2.1H78l-.2-.1v-6l.2-.1h.7l.1.3v.4l.6-.6.9-.1h.6Zm7.3 5.9-.1.2-.3.1h-.5l-.2-.1v-6.8l-2 1.4-.3.1-.2-.1-.3-.4v-.4l2.7-2h.1l.2-.1h.5l.3.1v8Zm1.5-2c0-.5 0-.9.3-1.2.2-.4.5-.7.9-.9-.3-.2-.6-.5-.7-.8-.2-.3-.3-.6-.3-1a2.1 2.1 0 0 1 .8-1.6c.3-.2.5-.4.9-.5a3.2 3.2 0 0 1 2.2 0c.3 0 .6.3.9.5l.6.7a2 2 0 0 1 0 2l-.8.7c.4.2.7.5.9.9.2.3.3.7.3 1.1 0 .4 0 .7-.2 1l-.6.8a3.1 3.1 0 0 1-2.2.7c-.4 0-.8 0-1.2-.2l-1-.5-.6-.8-.2-1Zm1.1 0c0 .1 0 .3.2.5l.3.4.6.3.8.1h.8l.5-.4.4-.4a1.2 1.2 0 0 0 0-1.1c0-.2-.2-.4-.4-.5l-.5-.3-.8-.1a2.3 2.3 0 0 0-1.4.4l-.3.5-.2.5Zm.3-3.9v.5l.4.4.6.3.6.1h.6l.6-.4a1.2 1.2 0 0 0 .5-.9c0-.1 0-.3-.2-.5l-.3-.4-.6-.2-.6-.1h-.6l-.6.3-.3.4-.1.5Zm12.4 5.9-.1.2-.3.1h-.5l-.2-.1v-6.8l-2 1.4-.3.1-.2-.1-.3-.4v-.4l2.7-2h.2l.1-.1h.5l.3.1v8Zm2.8-5.4.2.1.1.3v1l-.3.1h-.8l-.2-.1-.1-.2v-1.1h1.1Zm0 4.2.2.1.1.3v1l-.3.1h-.8l-.2-.1-.1-.2v-1.1h1.1Zm8-3.7a46 46 0 0 1-.2 3.3c-.1.4-.3.8-.6 1-.2.4-.5.6-1 .8l-1.3.2c-.5 0-1 0-1.3-.2l-1-.7a3 3 0 0 1-.5-1 45.5 45.5 0 0 1 0-4.6c0-.5.3-.9.5-1.2l1-.7 1.3-.2c.6 0 1 0 1.4.2l1 .7.5 1.1.2 1.3Zm-5 2c0 .8.2 1.3.5 1.7.3.4.8.5 1.4.5.7 0 1.1-.1 1.4-.5.4-.4.5-1 .6-1.7a45.5 45.5 0 0 0 0-2c0-.8-.2-1.3-.6-1.7-.3-.4-.7-.5-1.4-.5-.6 0-1 .1-1.4.5-.3.4-.5 1-.5 1.7a46 46 0 0 0 0 2Zm12.6-2a46 46 0 0 1-.2 3.3c-.1.4-.3.8-.6 1-.2.4-.5.6-1 .8l-1.3.2c-.5 0-1 0-1.3-.2l-1-.7a3 3 0 0 1-.5-1 45.5 45.5 0 0 1 0-4.6l.5-1.2 1-.7 1.3-.2c.6 0 1 0 1.4.2l1 .7.5 1.1.2 1.3Zm-5 2c0 .8.2 1.3.5 1.7.3.4.8.5 1.4.5.7 0 1.1-.1 1.5-.5.3-.4.5-1 .5-1.7a45.5 45.5 0 0 0 0-2c0-.8-.2-1.3-.5-1.7-.4-.4-.8-.5-1.5-.5-.6 0-1 .1-1.4.5-.3.4-.5 1-.5 1.7a46 46 0 0 0 0 2Zm11.9 1.3h-4.2l-.6 1.6-.1.2-.4.1H123v-.4l3-7.6.1-.3.4-.1h.7l.3.1.2.3 3 7.6V271.9l-.3.1h-.4l-.3-.1-.2-.2-.6-1.6Zm-3.8-1h3.4l-1.7-4.4-1.6 4.3Zm10.6-.4 2.4-4.7c0-.1 0-.2.2-.3l.3-.1h.5l.2.1v8.2l-.2.1h-.5l-.3-.1V266l-2 3.6-.1.3H135l-.2-.3-1.8-3.6v5.7l-.1.2-.3.1h-.4l-.3-.1v-8.2l.3-.1h.4l.3.1.2.3 2.5 4.7Z" fill="#9585A3"/><path d="M195 254v5" stroke="#9585A3" stroke-miterlimit="10"/><path d="M160.8 270.1h-4.2l-.6 1.6-.2.2-.3.1H155l-.1-.3v-.1l3-7.6s0-.2.2-.3l.3-.1h.8l.3.1.2.3 3 7.6v.1l-.1.2-.2.1h-.4l-.4-.1-.1-.2-.6-1.6Zm-3.8-1h3.3l-1.6-4.4-1.7 4.3Zm9.6 3c-.5 0-.9 0-1.2-.2l-.6-.6v2.7l-.1.2H163.8l-.1-.2v-8.1l.3-.1h.7v.7l.7-.6c.3-.2.7-.3 1.2-.3a2.6 2.6 0 0 1 2.5 1.7 3.6 3.6 0 0 1 .3 1.6v.4l-.3 1.2-.6.9a2.6 2.6 0 0 1-1.9.7Zm-1.8-3.7a7.6 7.6 0 0 0 0 1c0 .5.2 1 .5 1.2.3.3.7.5 1.2.5s1-.2 1.2-.5c.4-.4.5-.8.6-1.4v-.7c0-.5-.2-1-.6-1.3-.3-.4-.7-.5-1.2-.5s-.9.1-1.2.4c-.3.3-.5.7-.5 1.3Zm9.2-2.6h.2l.1.3V266.7h-1c-1 0-1.4.6-1.4 1.5v3.7l-.3.1h-.4l-.3-.1v-6l.3-.1H171.8l.1.3v.4l.6-.6.9-.1h.6Zm7.3 5.9-.1.2-.2.1h-.5l-.3-.1v-6.8l-2 1.4-.2.1-.3-.1-.2-.4-.1-.2.1-.2 2.6-2h.2l.2-.1h.5l.2.1v8Zm1.5-2c0-.5.1-.9.3-1.2.2-.4.5-.7.9-.9l-.7-.8c-.2-.3-.3-.6-.3-1a2.1 2.1 0 0 1 .8-1.6l1-.5a3.2 3.2 0 0 1 2.1 0c.4 0 .7.3 1 .5l.5.7a2 2 0 0 1 0 2l-.7.7c.3.2.6.5.8.9.2.3.3.7.3 1.1 0 .4 0 .7-.2 1-.1.3-.3.6-.6.8a3.1 3.1 0 0 1-2.2.7c-.4 0-.8 0-1.2-.2l-1-.5-.6-.8-.2-1Zm1.2 0v.5l.5.4c.1.1.3.3.6.3l.7.1h.8l.6-.4.4-.4a1.2 1.2 0 0 0 0-1.1l-.4-.5-.6-.3-.8-.1a2.3 2.3 0 0 0-1.3.4l-.4.5-.1.5Zm.2-3.9.1.5.4.4.5.3.6.1h.7l.5-.4a1.2 1.2 0 0 0 .5-.9l-.1-.5-.4-.4-.5-.2-.7-.1h-.6l-.5.3-.4.4-.1.5Zm12.6 1.8.5-.7.2-.9c0-.4-.1-.7-.4-1-.2-.3-.6-.4-1.1-.4a2 2 0 0 0-.8 0l-.5.4c0 .2-.2.3-.3.5l-.1.5-.2.3H193.2v-.2l.1-1 .6-.8.9-.6 1.2-.2c.4 0 .8 0 1.1.2.4.1.6.3.9.5.2.3.4.5.5.9l.1 1v.6l-.2.6-.4.6-.5.5-2.7 2.5h3.7l.2.1.1.2v.7l-.3.1h-5.2l-.2-.1-.1-.2v-.7l.3-.2 3.5-3.2Zm4.6-1.3.2.1v1.3l-.2.1h-.8l-.3-.1v-1.3h1.1Zm0 4.2.2.1v1.3l-.2.1h-.8l-.3-.1v-1.3h1.1Zm8-3.7a46 46 0 0 1-.2 3.3c-.2.4-.3.8-.6 1-.2.4-.6.6-1 .8l-1.3.2c-.5 0-1 0-1.4-.2l-1-.7a3 3 0 0 1-.5-1 45.5 45.5 0 0 1 0-4.6c.2-.5.3-.9.6-1.2.2-.3.6-.5 1-.7l1.3-.2c.5 0 1 0 1.4.2.3.2.7.4.9.7.3.3.4.7.6 1.1l.2 1.3Zm-5 2c0 .8.2 1.3.5 1.7.3.4.8.5 1.4.5.6 0 1-.1 1.4-.5.3-.4.5-1 .5-1.7a45.5 45.5 0 0 0 0-2c0-.8-.2-1.3-.5-1.7-.3-.4-.8-.5-1.4-.5-.6 0-1.1.1-1.4.5-.3.4-.5 1-.5 1.7a46 46 0 0 0 0 2Zm12.6-2a46 46 0 0 1-.2 3.3c-.2.4-.3.8-.6 1-.2.4-.6.6-1 .8l-1.3.2c-.5 0-1 0-1.4-.2-.3-.2-.7-.4-.9-.7a3 3 0 0 1-.6-1 45.5 45.5 0 0 1 0-4.6l.6-1.2c.2-.3.6-.5 1-.7l1.3-.2c.5 0 1 0 1.4.2l1 .7.5 1.1.2 1.3Zm-5 2c0 .8.2 1.3.5 1.7.3.4.8.5 1.4.5.6 0 1.1-.1 1.4-.5.3-.4.5-1 .5-1.7a45.5 45.5 0 0 0 0-2c0-.8-.2-1.3-.5-1.7-.3-.4-.8-.5-1.4-.5-.6 0-1.1.1-1.4.5-.3.4-.5 1-.5 1.7a46 46 0 0 0 0 2Zm11.9 1.3h-4.2l-.6 1.6-.2.2-.3.1H218l-.1-.3v-.1l3-7.6s0-.2.2-.3l.3-.1h.7l.4.1.2.3 3 7.6v.1l-.1.2-.2.1h-.4l-.4-.1-.1-.2-.6-1.6Zm-3.8-1h3.3l-1.6-4.4-1.7 4.3Zm10.5-.4 2.4-4.7.2-.3.4-.1h.4l.3.1v8.2l-.3.1h-.5l-.2-.1V266l-2 3.6c0 .1 0 .2-.2.3h-1l-.2-.3-1.9-3.6v5.9l-.3.1h-.5l-.2-.1-.1-.2v-8l.3-.1h.5l.3.1.2.3 2.4 4.7Z" fill="#9585A3"/><path d="M289 254v5" stroke="#9585A3" stroke-miterlimit="10"/><path d="M254.7 270.1h-4.2l-.6 1.6-.1.2-.4.1H248.8v-.4l3-7.6v-.3l.5-.1h.7l.3.1.2.3 3 7.6V271.9l-.3.1h-.4l-.4-.1v-.2l-.7-1.6Zm-3.8-1h3.4l-1.7-4.4-1.7 4.3Zm9.6 3c-.5 0-.8 0-1.1-.2l-.7-.6v2.7l-.1.2H257.7l-.1-.2v-8.1l.3-.1h.7v.7c.2-.3.5-.4.8-.6.3-.2.7-.3 1.1-.3a2.6 2.6 0 0 1 2.5 1.7 3.6 3.6 0 0 1 .3 1.6v.4l-.3 1.2-.6.9a2.6 2.6 0 0 1-1.9.7Zm-1.8-3.7a7.6 7.6 0 0 0 0 1c0 .5.2 1 .5 1.2.3.3.7.5 1.2.5.6 0 1-.2 1.3-.5.3-.4.4-.8.5-1.4v-.7c0-.5-.2-1-.5-1.3-.3-.4-.7-.5-1.3-.5-.5 0-.9.1-1.2.4-.3.3-.5.7-.5 1.3Zm9.2-2.6h.3V266.8h-1c-.9 0-1.3.6-1.3 1.5v3.5l-.1.2-.3.1h-.4l-.2-.1-.1-.2v-5.8l.3-.1h.7v.7l.6-.6 1-.1h.5Zm7.3 5.9v.2l-.3.1h-.5l-.2-.1-.1-.2V265l-2 1.4-.2.1-.2-.1-.3-.4s-.1-.1 0-.2v-.2l2.6-2h.2l.2-.1h.5l.2.1.1.2v7.8Zm1.5-2c0-.5.1-.9.3-1.2.3-.4.5-.7 1-.9-.4-.2-.6-.5-.8-.8l-.2-1a2.1 2.1 0 0 1 .8-1.6l.8-.5a3.2 3.2 0 0 1 2.3 0c.3 0 .6.3.9.5l.5.7a2 2 0 0 1 0 2l-.7.7c.4.2.6.5.9.9.2.3.3.7.3 1.1 0 .4-.1.7-.3 1-.1.3-.3.6-.6.8a3.1 3.1 0 0 1-2.1.7c-.5 0-.9 0-1.3-.2l-1-.5-.5-.8c-.2-.3-.3-.6-.3-1Zm1.2 0 .1.5.4.4.6.3.8.1h.7l.6-.4.4-.4a1.2 1.2 0 0 0 0-1.1l-.4-.5-.6-.3-.7-.1a2.3 2.3 0 0 0-1.4.4l-.4.5-.1.5Zm.2-3.9.1.5.4.4.5.3.7.1h.6l.5-.4a1.2 1.2 0 0 0 .5-.9l-.1-.5-.4-.4-.5-.2-.6-.1h-.7l-.5.3-.4.4v.5Zm9.9 4.2.1.4.4.3.5.2a3.7 3.7 0 0 0 1.7 0l.5-.2a1.4 1.4 0 0 0 .6-1.2l-.1-.6a1 1 0 0 0-.4-.5l-.6-.2H289l-.3-.2v-.8l.1-.2 2.2-2.3h-3.5l-.2-.1-.1-.2v-.5l.1-.2.2-.1h4.8l.2.1V264.6l-.1.2-2.2 2.3 1.1.1a2.3 2.3 0 0 1 1.6 2.3c0 .4 0 .8-.2 1.1l-.6.8c-.3.3-.6.4-1 .5-.4.2-.7.2-1.1.2-.6 0-1 0-1.4-.2-.4 0-.7-.3-1-.5l-.6-.6a2 2 0 0 1-.2-.8l.1-.2h1v.2Zm7.4-3.7.3.1v1.3l-.3.1h-.8l-.2-.1-.1-.2v-.8l.1-.3h1Zm0 4.2.3.1v1.3l-.3.1h-.8l-.2-.1-.1-.2v-.8l.1-.3h1Zm8-3.7a46 46 0 0 1-.2 3.3c0 .4-.3.8-.5 1-.3.4-.6.6-1 .8l-1.3.2c-.6 0-1 0-1.4-.2l-1-.7a3 3 0 0 1-.5-1 45.5 45.5 0 0 1 0-4.6c.1-.5.3-.9.6-1.2.2-.3.5-.5 1-.7l1.3-.2c.5 0 1 0 1.3.2l1 .7.5 1.1c.2.4.2.8.2 1.3Zm-5 2c0 .8.2 1.3.5 1.7.4.4.9.5 1.5.5s1-.1 1.4-.5c.3-.4.5-1 .5-1.7a45.5 45.5 0 0 0 0-2c0-.8-.2-1.3-.5-1.7-.3-.4-.8-.5-1.4-.5-.6 0-1.1.1-1.5.5-.3.4-.4 1-.5 1.7a46 46 0 0 0 0 2Zm12.6-2a46 46 0 0 1-.2 3.3c0 .4-.3.8-.5 1-.3.4-.6.6-1 .8l-1.3.2c-.5 0-1 0-1.4-.2l-1-.7a3 3 0 0 1-.5-1 45.5 45.5 0 0 1 0-4.6c.1-.5.3-.9.6-1.2.2-.3.5-.5 1-.7l1.3-.2c.5 0 1 0 1.3.2l1 .7.5 1.1c.2.4.2.8.2 1.3Zm-5 2c0 .8.2 1.3.6 1.7.3.4.8.5 1.4.5.6 0 1-.1 1.4-.5.3-.4.5-1 .5-1.7a45.5 45.5 0 0 0 0-2c0-.8-.2-1.3-.5-1.7-.3-.4-.8-.5-1.4-.5-.6 0-1.1.1-1.4.5-.4.4-.5 1-.6 1.7a46 46 0 0 0 0 2Zm12 1.3h-4.2l-.7 1.6v.2l-.4.1h-.7v-.4l3-7.6.1-.3.4-.1h.7l.4.1.2.3 2.9 7.6V271.9l-.2.1h-.5l-.3-.1-.1-.2-.7-1.6Zm-3.8-1h3.3l-1.6-4.4-1.7 4.3Zm10.5-.4 2.4-4.7.2-.3.4-.1h.4l.2.1.1.2v8l-.3.1h-.5l-.2-.1-.1-.2V266l-1.9 3.6-.2.3h-1l-.2-.3-1.9-3.6v5.9l-.3.1h-.5l-.2-.1-.1-.2v-8l.3-.1h.4l.4.1.2.3 2.4 4.7Z" fill="#9585A3"/><path d="M383 254v5" stroke="#9585A3" stroke-miterlimit="10"/><path d="M348.6 270.1h-4.2l-.6 1.6-.1.2-.4.1H342.7v-.4l3-7.6.1-.3.4-.1h.7l.3.1.2.3 3 7.6V271.9l-.3.1h-.4l-.3-.1-.2-.2-.6-1.6Zm-3.7-1h3.3l-1.7-4.4-1.6 4.3Zm9.6 3c-.5 0-1 0-1.2-.2l-.7-.6v2.7l-.1.2H351.6l-.1-.2v-8.1l.3-.1h.7v.7l.8-.6c.3-.2.7-.3 1.1-.3a2.6 2.6 0 0 1 2.5 1.7 3.6 3.6 0 0 1 .3 1.6v.4l-.3 1.2-.6.9a2.6 2.6 0 0 1-1.9.7Zm-2-3.7a7.6 7.6 0 0 0 0 1c.1.5.3 1 .6 1.2.3.3.7.5 1.2.5.6 0 1-.2 1.3-.5.3-.4.4-.8.5-1.4v-.7c0-.5-.2-1-.5-1.3-.3-.4-.7-.5-1.3-.5-.5 0-.9.1-1.2.4-.3.3-.5.7-.5 1.3Zm9.3-2.6h.3V266.8h-1c-.9 0-1.3.6-1.3 1.5v3.5l-.1.2-.3.1h-.4l-.2-.1-.1-.2v-5.8l.3-.1h.7v.7l.6-.6 1-.1h.5Zm7.3 5.9v.2l-.3.1h-.5l-.2-.1-.1-.2V265l-2 1.4-.2.1-.2-.1-.3-.4v-.4l2.6-2h.2l.2-.1h.5l.2.1.1.2v7.8Zm1.6-2c0-.5 0-.9.3-1.2.2-.4.4-.7.8-.9l-.7-.8-.2-1a2.1 2.1 0 0 1 .8-1.6l.8-.5a3.2 3.2 0 0 1 2.3 0c.3 0 .6.3.9.5l.5.7a2 2 0 0 1 0 2l-.7.7c.4.2.7.5.9.9.2.3.3.7.3 1.1 0 .4-.1.7-.3 1-.1.3-.3.6-.6.8a3.1 3.1 0 0 1-2.1.7c-.5 0-.9 0-1.2-.2l-1-.5c-.3-.2-.5-.5-.6-.8-.2-.3-.2-.6-.2-1Zm1 0 .2.5.4.4.6.3.8.1h.7l.6-.4.4-.4a1.2 1.2 0 0 0 0-1.1l-.4-.5-.6-.3-.7-.1a2.3 2.3 0 0 0-1.4.4l-.4.5-.1.5Zm.3-3.9.1.5.4.4.5.3.7.1h.6l.5-.4a1.2 1.2 0 0 0 .5-.9l-.1-.5-.4-.4-.5-.2-.6-.1h-.7l-.5.3-.4.4v.5Zm13 6.2-.2-.1-.1-.2V270h-4v-.7a.6.6 0 0 1 0-.4l3.9-5 .2-.2.2-.1h.5l.2.1.1.2v5h1l.3.1V270l-.2.1h-1v1.7l-.2.2-.2.1h-.5Zm-.3-3v-3.4l-2.6 3.3h2.6Zm4.8-2.7.3.1v1.3l-.3.1h-.8l-.2-.1-.1-.2v-1.1h1.1Zm0 4.2.3.1v1.3l-.3.1h-.8l-.2-.1-.1-.2v-1.1h1.1Zm8-3.7a46 46 0 0 1-.2 3.3l-.5 1c-.3.4-.6.6-1 .8l-1.3.2c-.6 0-1 0-1.4-.2l-1-.7a3 3 0 0 1-.5-1 45.5 45.5 0 0 1 0-4.6c.1-.5.3-.9.6-1.2.2-.3.5-.5.9-.7l1.4-.2c.5 0 1 0 1.3.2l1 .7.5 1.1c.2.4.2.8.2 1.3Zm-5 2c0 .8.2 1.3.5 1.7.4.4.8.5 1.5.5.6 0 1-.1 1.4-.5.3-.4.5-1 .5-1.7a45.5 45.5 0 0 0 0-2c0-.8-.2-1.3-.5-1.7-.3-.4-.8-.5-1.4-.5-.7 0-1.1.1-1.5.5-.3.4-.4 1-.5 1.7a46 46 0 0 0 0 2Zm12.6-2a46 46 0 0 1-.2 3.3c0 .4-.3.8-.5 1-.3.4-.6.6-1 .8l-1.3.2c-.6 0-1 0-1.4-.2l-1-.7a3 3 0 0 1-.5-1 45.5 45.5 0 0 1 0-4.6c.1-.5.3-.9.6-1.2.2-.3.5-.5 1-.7l1.3-.2c.5 0 1 0 1.3.2l1 .7.5 1.1c.2.4.2.8.2 1.3Zm-5 2c0 .8.2 1.3.5 1.7.4.4.8.5 1.5.5.6 0 1-.1 1.4-.5.3-.4.5-1 .5-1.7a45.5 45.5 0 0 0 0-2c0-.8-.2-1.3-.5-1.7-.3-.4-.8-.5-1.4-.5-.7 0-1.1.1-1.5.5-.3.4-.4 1-.5 1.7a46 46 0 0 0 0 2Zm12 1.3h-4.2l-.7 1.6v.2l-.4.1h-.7v-.4l3-7.6.1-.3.4-.1h.7l.4.1.2.3 2.9 7.6V271.9l-.2.1h-.5l-.3-.1-.1-.2-.7-1.6Zm-3.8-1h3.3l-1.6-4.4-1.7 4.3Zm10.5-.4 2.4-4.7.2-.3.3-.1h.5l.2.1.1.2v8l-.3.1h-.5l-.2-.1-.1-.2V266l-1.9 3.6-.2.3h-1l-.2-.3-1.9-3.6v5.9l-.3.1h-.5l-.2-.1-.1-.2v-8l.3-.1h.4l.4.1.2.3 2.4 4.7Z" fill="#9585A3"/><path d="M477 254v5" stroke="#9585A3" stroke-miterlimit="10"/><path d="M442.7 270.1h-4.2l-.6 1.6-.1.2-.4.1H436.8v-.4l3-7.6.1-.3.4-.1h.7l.3.1.2.3 3 7.6V271.9l-.3.1h-.4l-.3-.1-.2-.2-.6-1.6Zm-3.7-1h3.3l-1.7-4.4-1.6 4.3Zm9.5 3c-.4 0-.8 0-1.1-.2l-.7-.6v2.7l-.1.2H445.7l-.1-.2v-8.1l.3-.1h.7v.7c.2-.3.5-.4.8-.6.3-.2.7-.3 1.1-.3a2.6 2.6 0 0 1 2.5 1.7 3.6 3.6 0 0 1 .3 1.6v.4l-.3 1.2-.6.9a2.6 2.6 0 0 1-1.9.7Zm-1.8-3.7a7.6 7.6 0 0 0 0 1c0 .5.2 1 .5 1.2.3.3.7.5 1.2.5.6 0 1-.2 1.3-.5.3-.4.4-.8.5-1.4v-.7c0-.5-.2-1-.5-1.3-.3-.4-.7-.5-1.3-.5-.5 0-.9.1-1.2.4-.3.3-.5.7-.5 1.3Zm9.2-2.6h.3V266.8h-1c-.9 0-1.3.6-1.3 1.5v3.5l-.1.2-.3.1h-.4l-.2-.1-.1-.2v-5.8l.3-.1h.7v.7l.6-.6 1-.1h.5Zm7.3 5.9v.2l-.3.1h-.5l-.2-.1-.1-.2V265l-2 1.4-.2.1-.2-.1-.3-.4v-.4l2.6-2h.2l.2-.1h.5l.2.1.1.2v7.8Zm1.6-2c0-.5 0-.9.3-1.2.2-.4.4-.7.8-.9l-.7-.8-.2-1a2.1 2.1 0 0 1 .8-1.6l.8-.5a3.2 3.2 0 0 1 2.3 0c.3 0 .6.3.9.5l.5.7a2 2 0 0 1 0 2l-.7.7c.4.2.7.5.9.9.2.3.3.7.3 1.1 0 .4-.1.7-.3 1-.1.3-.3.6-.6.8a3.1 3.1 0 0 1-2.1.7c-.5 0-.9 0-1.2-.2l-1-.5c-.3-.2-.5-.5-.6-.8-.2-.3-.2-.6-.2-1Zm1 0 .2.5.4.4.6.3.8.1h.7l.6-.4.4-.4a1.2 1.2 0 0 0 0-1.1l-.4-.5-.6-.3-.7-.1a2.3 2.3 0 0 0-1.4.4l-.4.5-.1.5Zm.3-3.9.1.5.4.4.5.3.7.1h.6l.5-.4a1.2 1.2 0 0 0 .5-.9l-.1-.5-.4-.4-.5-.2-.6-.1h-.7l-.5.3-.4.4v.5Zm9.9 4c.1.4.3.7.7 1l1.2.2h.8l.6-.4.4-.5.1-.8a1.7 1.7 0 0 0-.5-1.3l-.6-.3a2.5 2.5 0 0 0-1.5 0 2 2 0 0 0-.5.2l-.3.2-.3.1h-.8v-.3l.3-4v-.2l.3-.1h4.3l.2.1V264.6h-3.7l-.2 2.2.5-.2 1-.1c.3 0 .7 0 1 .2a2.7 2.7 0 0 1 2 2.6l-.3 1.2a2.7 2.7 0 0 1-1.6 1.4c-.4.2-.8.2-1.2.2a4 4 0 0 1-1.1-.1l-1-.5-.7-.7a2 2 0 0 1-.2-1v-.2h1l.1.2Zm7.4-3.5.3.1v1.3l-.3.1h-.8l-.2-.1-.1-.2v-1.1h1.1Zm0 4.2.3.1v1.3l-.3.1h-.8l-.2-.1-.1-.2v-1.1h1.1Zm8-3.7a46 46 0 0 1-.2 3.3l-.5 1c-.3.4-.6.6-1 .8l-1.3.2c-.6 0-1 0-1.4-.2l-1-.7a3 3 0 0 1-.5-1 45.5 45.5 0 0 1 0-4.6c.1-.5.3-.9.6-1.2.2-.3.5-.5.9-.7l1.4-.2c.5 0 1 0 1.3.2l1 .7.5 1.1c.2.4.2.8.2 1.3Zm-5 2c0 .8.2 1.3.5 1.7.4.4.8.5 1.5.5.6 0 1-.1 1.4-.5.3-.4.5-1 .5-1.7a45.5 45.5 0 0 0 0-2c0-.8-.2-1.3-.5-1.7-.3-.4-.8-.5-1.4-.5-.7 0-1.1.1-1.5.5-.3.4-.4 1-.5 1.7a46 46 0 0 0 0 2Zm12.6-2a46 46 0 0 1-.2 3.3c0 .4-.3.8-.5 1-.3.4-.6.6-1 .8l-1.3.2c-.6 0-1 0-1.4-.2l-1-.7a3 3 0 0 1-.5-1 45.5 45.5 0 0 1 0-4.6c.1-.5.3-.9.6-1.2.2-.3.5-.5 1-.7l1.3-.2c.5 0 1 0 1.3.2l1 .7.5 1.1c.2.4.2.8.2 1.3Zm-5 2c0 .8.2 1.3.5 1.7.4.4.9.5 1.5.5s1-.1 1.4-.5c.3-.4.5-1 .5-1.7a45.5 45.5 0 0 0 0-2c0-.8-.2-1.3-.5-1.7-.3-.4-.8-.5-1.4-.5-.6 0-1.1.1-1.5.5-.3.4-.4 1-.5 1.7a46 46 0 0 0 0 2Zm12 1.3h-4.2l-.7 1.6v.2l-.4.1h-.7v-.4l3-7.6.1-.3.4-.1h.7l.4.1.2.3 2.9 7.6V271.9l-.2.1h-.5l-.3-.1-.1-.2-.7-1.6Zm-3.8-1h3.3l-1.6-4.4-1.7 4.3Zm10.5-.4 2.4-4.7.2-.3.3-.1h.5l.2.1.1.2v8l-.3.1h-.5l-.2-.1-.1-.2V266l-1.9 3.6-.2.3h-1l-.2-.3-1.9-3.6v5.9l-.3.1h-.5l-.2-.1-.1-.2v-8l.3-.1h.4l.4.1.2.3 2.4 4.7Z" fill="#9585A3"/><path d="M571 254v5" stroke="#9585A3" stroke-miterlimit="10"/><path d="M536.7 270.1h-4.2l-.6 1.6-.1.2-.4.1H530.8v-.4l2.9-7.6.2-.3.3-.1h.8l.3.1.2.3 3 7.6v.1l-.1.2-.2.1h-.4l-.4-.1-.1-.2-.6-1.6Zm-3.8-1h3.4l-1.7-4.4-1.7 4.3Zm9.6 3c-.5 0-.9 0-1.2-.2l-.6-.6v2.7l-.1.2H539.7l-.1-.2v-8.1l.3-.1h.7v.7c.2-.3.5-.4.8-.6.2-.2.6-.3 1.1-.3a2.6 2.6 0 0 1 2.5 1.7 3.6 3.6 0 0 1 .3 1.6v.4l-.3 1.2-.6.9a2.6 2.6 0 0 1-1.9.7Zm-1.8-3.7a7.6 7.6 0 0 0 0 1c0 .5.2 1 .5 1.2.3.3.7.5 1.2.5s1-.2 1.3-.5c.3-.4.4-.8.5-1.4v-.7c0-.5-.2-1-.5-1.3-.4-.4-.8-.5-1.3-.5s-.9.1-1.2.4c-.3.3-.5.7-.5 1.3Zm9.2-2.6h.2l.1.3V266.7h-1c-.9 0-1.4.6-1.4 1.5v3.7l-.3.1h-.4l-.3-.1v-6l.3-.1H547.7l.1.3v.4l.6-.6.9-.1h.6Zm7.3 5.9-.1.2-.2.1h-.5l-.3-.1v-6.8l-2 1.4-.2.1-.2-.1-.3-.4-.1-.2.1-.2 2.6-2h.2l.2-.1h.5l.2.1v8Zm1.5-2c0-.5.1-.9.3-1.2.2-.4.5-.7.9-.9l-.7-.8c-.2-.3-.2-.6-.2-1a2.1 2.1 0 0 1 .7-1.6l1-.5a3.2 3.2 0 0 1 2.1 0c.4 0 .7.3 1 .5l.5.7a2 2 0 0 1 0 2l-.7.7c.3.2.6.5.8.9.2.3.4.7.4 1.1 0 .4-.1.7-.3 1-.1.3-.3.6-.6.8a3.1 3.1 0 0 1-2.2.7c-.4 0-.8 0-1.2-.2l-1-.5-.6-.8-.2-1Zm1.2 0 .1.5.4.4c.2.1.3.3.6.3l.7.1h.8l.6-.4.4-.4a1.2 1.2 0 0 0 0-1.1l-.4-.5-.6-.3-.8-.1a2.3 2.3 0 0 0-1.3.4l-.4.5-.1.5Zm.2-3.9.1.5.4.4.5.3.6.1h.7l.5-.4a1.2 1.2 0 0 0 .5-.9l-.1-.5-.4-.4-.5-.2-.7-.1h-.6l-.5.3-.4.4-.1.5Zm11.4.6h.5a3.3 3.3 0 0 1 2.2.8c.3.2.5.5.6.9.2.3.3.7.3 1.1 0 .4 0 .8-.3 1.2l-.6.9a3 3 0 0 1-1 .6l-1.2.2c-.5 0-.9 0-1.3-.2l-1-.6a2.8 2.8 0 0 1-.6-3.3 5.1 5.1 0 0 1 .6-1l2.2-3.2.2-.1.2-.1H573.2v.4l-1.7 2.4Zm-1.5 2.8.1.7a1.9 1.9 0 0 0 1.9 1.1l.8-.1c.2-.1.5-.2.6-.4l.4-.6a1.7 1.7 0 0 0 0-1.4 1.7 1.7 0 0 0-1-1 2 2 0 0 0-.8 0h-.8a1.8 1.8 0 0 0-1.2 1.7Zm7.5-2.9.2.1v1.3l-.3.1h-.8l-.2-.1v-1.3h1.1Zm0 4.2.2.1v1.3l-.3.1h-.8l-.2-.1v-1.3h1.1Zm8-3.7a46 46 0 0 1-.3 3.3c0 .4-.3.8-.5 1-.3.4-.6.6-1 .8l-1.3.2c-.5 0-1 0-1.4-.2l-1-.7a3 3 0 0 1-.5-1 45.5 45.5 0 0 1 0-4.6c.2-.5.3-.9.6-1.2.2-.3.5-.5 1-.7l1.3-.2c.5 0 1 0 1.3.2l1 .7.5 1.1c.2.4.2.8.3 1.3Zm-5 2c0 .8.1 1.3.5 1.7.3.4.8.5 1.4.5.6 0 1-.1 1.4-.5.3-.4.5-1 .5-1.7a45.5 45.5 0 0 0 0-2c0-.8-.2-1.3-.5-1.7-.3-.4-.8-.5-1.4-.5-.6 0-1.1.1-1.4.5-.4.4-.5 1-.5 1.7a46 46 0 0 0 0 2Zm12.6-2a46 46 0 0 1-.2 3.3l-.6 1c-.2.4-.6.6-1 .8l-1.3.2c-.5 0-1 0-1.4-.2l-1-.7a3 3 0 0 1-.5-1 45.5 45.5 0 0 1 0-4.6c.2-.5.3-.9.6-1.2.2-.3.6-.5 1-.7l1.3-.2c.5 0 1 0 1.4.2.3.2.7.4.9.7l.6 1.1.2 1.3Zm-5 2c0 .8.1 1.3.5 1.7.3.4.8.5 1.4.5.6 0 1-.1 1.4-.5.3-.4.5-1 .5-1.7a45.5 45.5 0 0 0 0-2c0-.8-.2-1.3-.5-1.7-.3-.4-.8-.5-1.4-.5-.6 0-1.1.1-1.4.5-.4.4-.5 1-.5 1.7a46 46 0 0 0 0 2Zm11.9 1.3h-4.2l-.6 1.6-.2.2-.3.1H594.1l-.1-.3v-.1l3-7.6s0-.2.2-.3l.3-.1h.7l.4.1.2.3 3 7.6v.1l-.1.2-.2.1h-.5l-.3-.1-.1-.2-.6-1.6Zm-3.8-1h3.3l-1.6-4.4-1.7 4.3Zm10.5-.4 2.4-4.7.2-.3.4-.1h.4l.3.1v8.2l-.3.1h-.5l-.2-.1V266l-2 3.6c0 .1 0 .2-.2.3h-1l-.2-.3-1.9-3.6v5.9l-.3.1h-.5l-.2-.1-.1-.2v-8l.3-.1h.5l.3.1.2.3 2.4 4.7Z" fill="#9585A3"/><path d="M69 254h560" stroke="#9386A0" stroke-miterlimit="10" stroke-linecap="round"/><path d="M57 134.3h572" stroke="#F55459" stroke-width="1.5" stroke-dasharray="4 4"/><path d="M57 174.3h572" stroke="#FFC227" stroke-width="1.5" stroke-dasharray="4 4"/><path d="M57 233.3h572" stroke="#33BF9E" stroke-width="1.5" stroke-dasharray="4 4"/><path d="M489 42.5c0 .4.3.7.7 1 .4.3.9.4 1.4.4l1-.1.6-.4.5-.7.2-.9a2 2 0 0 0-.7-1.5 2 2 0 0 0-.7-.4 3 3 0 0 0-1.7 0l-.5.3a6 6 0 0 0-.4.3h-1.3v-.2l.3-4.7c0-.1 0-.2.2-.3l.2-.1h5l.2.1.1.3v.7l-.3.2h-4.1l-.2 2.4.6-.2a4 4 0 0 1 1-.1c.5 0 1 0 1.4.2a3.2 3.2 0 0 1 2.2 3c0 .6 0 1-.3 1.4a3.1 3.1 0 0 1-1.9 1.7c-.4.2-.9.2-1.4.2-.4 0-.9 0-1.3-.2a4 4 0 0 1-1.1-.5 3 3 0 0 1-.8-.9c-.2-.3-.3-.7-.3-1v-.3h1.2l.1.3Zm14.3-3.6a55.8 55.8 0 0 1-.2 4l-.7 1.1a3 3 0 0 1-1 .8c-.5.2-1 .3-1.6.3a4 4 0 0 1-1.6-.3 3 3 0 0 1-1.1-.8c-.3-.3-.5-.7-.7-1.2l-.2-1.5a49.3 49.3 0 0 1 .2-3.9c.2-.5.4-.9.7-1.2a3 3 0 0 1 1-.8c.5-.2 1-.3 1.7-.3.6 0 1 0 1.5.3.5.2.8.4 1.1.8.3.3.5.7.7 1.2l.2 1.5Zm-5.8 2.4c0 .9.2 1.5.6 2 .4.4 1 .6 1.7.6s1.2-.2 1.6-.6c.4-.5.6-1.1.6-2a55.3 55.3 0 0 0 0-2.4c0-.9-.2-1.5-.6-2-.4-.4-1-.6-1.6-.6-.8 0-1.3.2-1.7.7-.4.4-.6 1-.6 2a50 50 0 0 0 0 2.3Zm9.4-6.2c.6 0 1.1.2 1.5.6.3.4.5.8.5 1.4v1.1c0 .6-.2 1-.5 1.4-.4.4-.9.6-1.5.6-.7 0-1.2-.2-1.5-.6-.4-.3-.6-.8-.6-1.4v-1.1c0-.6.2-1 .6-1.4.3-.4.8-.6 1.5-.6Zm1 2-.3-.7c-.2-.2-.4-.3-.7-.3-.4 0-.6.1-.8.3l-.2.7v1.1l.2.7c.2.2.4.3.8.3.3 0 .5-.1.7-.3l.2-.7v-1.1Zm4.8 3c.6 0 1.1.1 1.5.5.3.4.5.8.5 1.4V43c0 .6-.2 1-.5 1.4-.4.4-.9.6-1.5.6-.7 0-1.2-.2-1.5-.6-.4-.3-.5-.8-.6-1.4V42c0-.6.2-1 .6-1.4.3-.4.8-.6 1.5-.6Zm1 2c0-.3-.2-.6-.3-.8-.2-.2-.4-.3-.7-.3-.4 0-.6.1-.7.3-.2.2-.3.5-.3.7v1.1c0 .3.1.5.3.7.1.2.3.3.7.3.3 0 .5-.1.7-.3l.2-.7V42Zm-1.2-6.6.2-.2.3-.1h.8a.2.2 0 0 1 0 .3v.1l-6.9 9.1-.2.2-.3.1h-.8v-.4l7-9.1ZM549 42.5c0 .4.3.7.7 1 .4.3.9.4 1.4.4l1-.1.6-.4.5-.7.2-.9a2 2 0 0 0-.7-1.5 2 2 0 0 0-.7-.4 3 3 0 0 0-1.7 0l-.5.3a6 6 0 0 0-.4.3h-1.3v-.2l.3-4.7c0-.1 0-.2.2-.3l.2-.1h5l.2.1.1.3v.7l-.3.2h-4.1l-.2 2.4.6-.2a4 4 0 0 1 1-.1c.5 0 1 0 1.4.2a3.2 3.2 0 0 1 2.2 3c0 .6 0 1-.3 1.4a3.1 3.1 0 0 1-1.9 1.7c-.4.2-.9.2-1.4.2-.4 0-.9 0-1.3-.2a4 4 0 0 1-1.1-.5 3 3 0 0 1-.8-.9c-.2-.3-.3-.7-.3-1v-.3h1.2l.1.3Zm14.3-3.6a55.8 55.8 0 0 1-.2 4l-.7 1.1a3 3 0 0 1-1 .8c-.5.2-1 .3-1.6.3a4 4 0 0 1-1.6-.3 3 3 0 0 1-1.1-.8c-.3-.3-.5-.7-.7-1.2l-.2-1.5a49.3 49.3 0 0 1 .2-3.9c.2-.5.4-.9.7-1.2a3 3 0 0 1 1-.8c.5-.2 1-.3 1.7-.3.6 0 1 0 1.5.3.5.2.8.4 1.1.8.3.3.5.7.7 1.2l.2 1.5Zm-5.8 2.4c0 .9.2 1.5.6 2 .4.4 1 .6 1.7.6s1.2-.2 1.6-.6c.4-.5.6-1.1.6-2a55.3 55.3 0 0 0 0-2.4c0-.9-.2-1.5-.6-2-.4-.4-1-.6-1.6-.6-.8 0-1.3.2-1.7.7-.4.4-.6 1-.6 2a50 50 0 0 0 0 2.3Zm9.4-6.2c.6 0 1.1.2 1.5.6.3.4.5.8.5 1.4v1.1c0 .6-.2 1-.5 1.4-.4.4-.9.6-1.5.6-.7 0-1.2-.2-1.5-.6-.4-.3-.6-.8-.6-1.4v-1.1c0-.6.2-1 .6-1.4.3-.4.8-.6 1.5-.6Zm1 2-.3-.7c-.2-.2-.4-.3-.7-.3-.4 0-.6.1-.8.3l-.2.7v1.1l.2.7c.2.2.4.3.8.3.3 0 .5-.1.7-.3l.2-.7v-1.1Zm4.8 3c.6 0 1.1.1 1.5.5.3.4.5.8.5 1.4V43c0 .6-.2 1-.5 1.4-.4.4-.9.6-1.5.6-.7 0-1.2-.2-1.5-.6-.4-.3-.5-.8-.6-1.4V42c0-.6.2-1 .6-1.4.3-.4.8-.6 1.5-.6Zm1 2c0-.3-.2-.6-.3-.8-.2-.2-.4-.3-.7-.3-.4 0-.6.1-.7.3-.2.2-.3.5-.3.7v1.1c0 .3.1.5.3.7.1.2.3.3.7.3.3 0 .5-.1.7-.3l.2-.7V42Zm-1.2-6.6.2-.2.3-.1h.8a.2.2 0 0 1 0 .3v.1l-6.9 9.1-.2.2-.3.1h-.8v-.4l7-9.1ZM614 39a55.8 55.8 0 0 1-.2 3.8c-.2.5-.4.9-.7 1.2a3 3 0 0 1-1 .8c-.5.2-1 .3-1.7.3a4 4 0 0 1-1.6-.3 3 3 0 0 1-1-.8c-.3-.3-.6-.7-.7-1.2l-.2-1.5a55.3 55.3 0 0 1 .2-3.9c.1-.5.4-.9.6-1.2a3 3 0 0 1 1.1-.8c.5-.2 1-.3 1.6-.3.7 0 1.2 0 1.6.3.5.2.8.4 1.1.8.3.3.5.7.7 1.2l.2 1.5Zm-5.8 2.3c0 .9.2 1.5.6 2 .4.4 1 .6 1.6.6.8 0 1.3-.2 1.7-.6.4-.5.6-1.1.6-2a55.3 55.3 0 0 0 0-2.4c0-.9-.2-1.5-.6-2-.4-.4-1-.6-1.7-.6s-1.2.2-1.6.7c-.4.4-.6 1-.6 2a55.8 55.8 0 0 0 0 2.3Zm9.3-6.2c.7 0 1.2.2 1.5.6.4.4.6.8.6 1.4v1.1c0 .6-.2 1-.6 1.4-.3.4-.8.6-1.5.6-.6 0-1.1-.2-1.5-.6-.3-.3-.5-.8-.5-1.4v-1.1c0-.6.2-1 .5-1.4.4-.4.9-.6 1.5-.6Zm1 2c0-.2 0-.5-.2-.7-.2-.2-.4-.3-.8-.3-.3 0-.5.1-.7.3l-.2.7v1.1c0 .3 0 .5.2.7.2.2.4.3.7.3.4 0 .6-.1.8-.3l.2-.7v-1.1Zm4.9 3c.6 0 1.1.1 1.5.5.3.4.5.8.5 1.4V43c0 .6-.2 1-.5 1.4-.4.4-.9.6-1.5.6-.7 0-1.2-.2-1.5-.6-.4-.3-.6-.8-.6-1.4V42c0-.6.2-1 .6-1.4.3-.4.8-.6 1.5-.6Zm1 2-.3-.8c-.2-.2-.4-.3-.7-.3-.4 0-.6.1-.8.3l-.2.7v1.1c0 .3 0 .5.2.7.2.2.4.3.8.3.3 0 .5-.1.7-.3l.2-.7V42Zm-1.2-6.6.2-.2.3-.1h.8a.2.2 0 0 1 0 .3v.1l-6.9 9.1-.2.2-.3.1h-.8v-.4l6.9-9.1Z" fill="#2B1D38"/><path d="M477 48a6.6 6.6 0 0 1-6.5-6.7 4.9 4.9 0 0 1 2.2-4.2.8.8 0 0 1 .7 0l.3.3a6 6 0 0 1 4-5.3.7.7 0 0 1 .7.1.7.7 0 0 1 .3.6v.3c0 1.3 0 2.6.3 3.8a3.7 3.7 0 0 1 2.3-1.7.7.7 0 0 1 .7.1.8.8 0 0 1 .3.7c0 1 .2 2 .7 2.8a5.8 5.8 0 0 1 .2 5A6.6 6.6 0 0 1 477 48Zm-4.4-8.8c-.4.7-.6 1.4-.6 2.1a5 5 0 1 0 10.1 0c0-.6-.2-1.3-.5-1.9a8 8 0 0 1-.8-2.3 2 2 0 0 0-.7 1.9.7.7 0 0 1-1 .8.7.7 0 0 1-.4-.2c-1.3-1.6-1.4-3.4-1.5-5.6-2 1.3-2.1 3.6-2 5.9V41a.7.7 0 0 1-1 .7l-.3-.2a4.6 4.6 0 0 1-1.3-2.3Z" fill="#F55459"/><mask id="b" style="mask-type:luminance" maskUnits="userSpaceOnUse" x="527" y="32" width="16" height="16"><path d="M543 32h-16v16h16V32Z" fill="#fff"/></mask><g mask="url(#b)" fill="#FFC227"><path d="M540.9 47.3H529a2.1 2.1 0 0 1-2.1-2.1c0-.4.1-.8.3-1l5.9-10.4a2.1 2.1 0 0 1 2.8-.8l.8.8 5.9 10.3a2 2 0 0 1-.8 2.9c-.3.2-.7.3-1 .3Zm-5.9-13a.6.6 0 0 0-.5.2L528.6 45v.3a.6.6 0 0 0 .5.6H541l.3-.1a.6.6 0 0 0 .3-.6l-.1-.2-5.9-10.4-.2-.2h-.3Z"/><path d="M535 42.4a.7.7 0 0 1-.8-.8V38a.7.7 0 1 1 1.5 0v3.7a.7.7 0 0 1-.2.6.7.7 0 0 1-.5.2ZM535 44.5a.8.8 0 1 0 0-1.5.8.8 0 0 0 0 1.5Z"/></g><mask id="c" style="mask-type:luminance" maskUnits="userSpaceOnUse" x="585" y="32" width="16" height="16"><path d="M601 32h-16v16h16V32Z" fill="#fff"/></mask><g mask="url(#c)" fill="#33BF9E"><path d="M592 44a.8.8 0 0 1-.6-.3l-2.4-2.6a.8.8 0 0 1 0-1.1.7.7 0 0 1 .9-.1l.2.2 1.8 2 3.9-5.8a.8.8 0 0 1 1.2.8l-4.4 6.6a.8.8 0 0 1-.6.3Z"/><path d="M593 48a8 8 0 1 1 0-16 8 8 0 0 1 0 16Zm0-14.5a6.5 6.5 0 1 0 0 13 6.5 6.5 0 0 0 0-13Z"/></g><path d="M57 253h343M451 253h93" stroke="#33BF9E" stroke-width="2"/><path d="M400 253h51M544 253h6" stroke="#FFC227" stroke-width="2"/><path d="M550 253h79" stroke="#F55459" stroke-width="2"/><path d="M57 139.6h9l8.9-.4 9-1.6 8.9-11.8 8.9-2.6 9 14.4 8.9-3.6 8.9-8.6h17.9l9 10.2 8.8 2 9 .6 9-.4 8.9 1 8.9-9 9 1 8.9 1.7 9 4.2 8.8 1.5 9-.5 9-1 8.9 3.1 8.9-2.7 9-7.1 8.9-11 9 18 8.9-11.6 8.9 9 9 6.5 8.9-1 8.9 1.1 9-.4 8.9-.8 9 .8 8.9-.8 8.9 1 9-.2 8.9-.1 8.9 3.1 9 7.5 8.9 2.8h9l8.9.1 8.9-.1 9-.5 8.9-.9 8.9.7 9 .3 8.9.1 9-.7 8.9-8 8.9 4.4 9 4.2 8.9-.4 8.9-1.4 9-1.2 8.9.5 9 .5 8.9-.3 8.9-.3 9 .4 8.9-1 8.9-11.8" stroke="#444674" stroke-width="2" stroke-miterlimit="10" stroke-linejoin="bevel"/><path d="M184.1 67.3a9.5 9.5 0 0 1-1 4.4 7.4 7.4 0 0 1-1.4 1.8l-.7.5-.2-.7.5-.5a5.1 5.1 0 0 0 1-1.7l.3-1.1a9 9 0 0 0 .3-2.7 10.2 10.2 0 0 0-.7-4 7.5 7.5 0 0 0-1-1.6 4 4 0 0 0-.4-.4l.2-.7c.2 0 .4.3.7.5l.7.7a7.7 7.7 0 0 1 1.6 3.7l.1 1.7v.1ZM174.8 62.5V64h2.6v1h-2.6v3.7l.1.6a1 1 0 0 0 .7.7h.5a4.2 4.2 0 0 0 .8 0 14.6 14.6 0 0 0 .6-.2l.2.9-.4.1a4 4 0 0 1-1 .2h-.5l-.9-.1c-.2 0-.5-.2-.6-.4a2 2 0 0 1-.5-.7l-.2-1.1V65h-1.8v-.9h1.8v-1.6h1.2ZM164.2 73.6v-9.5h1l.1.8a2.2 2.2 0 0 1 1.3-.8 2.9 2.9 0 0 1 1.9.2c.3.1.6.4.8.7l.5 1.1c.2.4.2.9.2 1.4v.1c0 .5 0 1-.2 1.4 0 .4-.3.8-.5 1.1l-.8.8-1.2.2h-.7a2.4 2.4 0 0 1-1-.5l-.2-.3v3.3h-1.2Zm4.6-6v-1l-.4-.8-.6-.6-.9-.2a2 2 0 0 0-.5 0l-.4.2-.3.3-.3.4v3.3l.2.4.4.3a1.7 1.7 0 0 0 1 .3l.8-.2.6-.6c.1-.2.3-.5.3-.8l.1-1ZM157 64.1v.7c.1-.3.3-.5.5-.6l.9-.2h.4l.4.2.2.3.2.2a1.6 1.6 0 0 1 .5-.5 1.7 1.7 0 0 1 .9-.2l.6.1c.2 0 .4.2.5.3l.3.6.1.9V71h-1v-5.1l-.1-.4-.2-.3-.2-.1a1 1 0 0 0-.4-.1 1 1 0 0 0-.3 0l-.3.2-.2.2V71h-1.1v-5.1l-.1-.4-.1-.3-.3-.1-.3-.1h-.4a.7.7 0 0 0-.5.5V71H156v-6.9h1ZM151.6 71.1c-.4 0-.9 0-1.3-.2a3 3 0 0 1-1.7-1.8c-.2-.4-.2-.8-.2-1.3v-.3c0-.5 0-1 .2-1.4.2-.5.4-.9.7-1.2a3 3 0 0 1 2.2-.9c.5 0 1 0 1.3.3.4.1.7.4 1 .7l.5 1 .1 1.4v.5h-4.9l.2 1a2.2 2.2 0 0 0 1.1 1l.9.3a2.4 2.4 0 0 0 2-1l.6.6a3 3 0 0 1-1 1c-.4.2-1 .3-1.7.3Zm-.1-6.1-.7.1c-.2 0-.4.2-.6.4l-.4.6a3 3 0 0 0-.2.8h3.7c0-.2 0-.5-.2-.7a2 2 0 0 0-.3-.6 1.6 1.6 0 0 0-1.3-.6ZM143.6 62.5V64h2.6v1h-2.6v4.3a1 1 0 0 0 .8.7h.5a4.2 4.2 0 0 0 1.1-.1h.3l.2.8-.4.1a4 4 0 0 1-1 .2h-.5l-.9-.1c-.3 0-.5-.2-.7-.4a2 2 0 0 1-.4-.7l-.2-1.1V65h-1.8v-.9h1.8v-1.6h1.2ZM135.8 62.5V64h2.6v1h-2.6v4.3a1 1 0 0 0 .8.7h.5a4.2 4.2 0 0 0 .7 0 14.6 14.6 0 0 0 .7-.2l.1.9-.3.1a4 4 0 0 1-1 .2h-.5l-.9-.1c-.3 0-.5-.2-.7-.4a2 2 0 0 1-.4-.7c-.2-.3-.2-.7-.2-1.1V65h-1.8v-.9h1.8v-1.6h1.2ZM129.7 71l-.1-.3v-.4a3.1 3.1 0 0 1-1.5.8h-.7a3 3 0 0 1-1-.1l-.7-.5-.5-.6a2 2 0 0 1-.1-.8c0-.4 0-.7.2-1 .1-.3.4-.5.6-.7a3 3 0 0 1 1-.4l1.3-.2h1.3v-.5l-.1-.6-.3-.4-.5-.3a2.2 2.2 0 0 0-1.3 0l-.5.3a1 1 0 0 0-.3.3l-.1.4h-1.2c0-.2 0-.5.2-.7l.5-.7.9-.4 1.1-.2c.4 0 .8 0 1.1.2.4 0 .7.2.9.4l.6.7.2 1v3.2a4.6 4.6 0 0 0 .2 1.4v.1h-1.2Zm-2-.9a2.2 2.2 0 0 0 1.5-.6l.3-.4v-1.4h-2.2l-.7.4a1 1 0 0 0-.3.4v.9l.3.4.4.2.6.1ZM119.4 70.2c0-.2 0-.4.2-.6.2-.2.4-.3.7-.3.3 0 .6.1.7.3l.3.6c0 .3-.1.5-.3.7l-.7.2c-.3 0-.5 0-.7-.2a1 1 0 0 1-.2-.7ZM109.6 71v-6.9h1l.1 1a3 3 0 0 1 .7-.7l.7-.3.7-.1c.4 0 .7 0 1 .2.3 0 .6.2.8.4l.5.9.1 1.1V71H114v-5.1l-.4-.5c0-.2-.3-.3-.4-.3a2.2 2.2 0 0 0-1.3 0 2 2 0 0 0-.5.2 2.3 2.3 0 0 0-.7.8V71h-1.1ZM102 64.1h3.5V70h2.2v1h-5.8v-1h2.4v-4.8h-2.4v-1Zm2.1-1.8V62a.6.6 0 0 1 .4-.3h.6l.2.1.2.2v.3l-.1.5-.6.2c-.2 0-.4 0-.5-.2a.7.7 0 0 1-.2-.5ZM93.7 67.5l.2-1.4c.1-.4.3-.8.6-1.1.2-.3.5-.6.8-.7.4-.2.7-.3 1.2-.3l.7.1a2.2 2.2 0 0 1 1.2.8V64h1.1V71c0 .4 0 .8-.2 1.2l-.6.9c-.2.2-.5.4-.9.5a3.5 3.5 0 0 1-2.5 0l-.7-.4-.5-.6.6-.7a2.9 2.9 0 0 0 .9.7l.5.2a2.2 2.2 0 0 0 1.2 0l.6-.4.3-.6.2-.8v-.6a2.5 2.5 0 0 1-.6.5l-.6.2-.7.1a2.4 2.4 0 0 1-2-1c-.3-.3-.4-.7-.6-1l-.2-1.5Zm1.2.1.1 1c0 .3.2.6.3.8l.6.5c.3.2.5.2.9.2h.5a1.7 1.7 0 0 0 1-1V66l-.2-.4-.4-.3-.4-.2-.5-.1c-.4 0-.6 0-.9.2l-.6.6-.3.8v1ZM85.8 67.5c0-.5 0-1 .2-1.4.2-.4.4-.8.7-1 .2-.4.5-.6 1-.8a3 3 0 0 1 1.2-.3 3 3 0 0 1 2.3 1c.3.3.5.7.6 1.1.2.4.3 1 .3 1.4v.1c0 .5-.1 1-.3 1.4-.1.4-.3.8-.6 1.1a2.9 2.9 0 0 1-2.3 1c-.4 0-.9 0-1.3-.2l-1-.8-.6-1-.2-1.5v-.1Zm1.2.1.1 1c0 .3.2.6.4.8.1.3.3.4.6.6l.8.2a1.7 1.7 0 0 0 1.5-.8l.4-.8v-2.1l-.4-.8-.6-.5c-.3-.2-.5-.2-.9-.2-.3 0-.6 0-.8.2-.3.1-.5.3-.6.5l-.4.8-.1 1v.1ZM78.5 61.3H82V70h2.3v1h-5.8v-1H81v-7.7h-2.4v-1ZM71.7 67.2a10 10 0 0 1 .5-3.1 8.4 8.4 0 0 1 1.2-2.3 5.7 5.7 0 0 1 1.4-1.2l.2.7a3.6 3.6 0 0 0-.8.9 6.6 6.6 0 0 0-1 2.2 9.1 9.1 0 0 0-.3 2.8v.1a11.7 11.7 0 0 0 .3 2.8 8.6 8.6 0 0 0 .8 2 5.5 5.5 0 0 0 1 1.2l-.2.7a5.2 5.2 0 0 1-1.4-1.2 7.5 7.5 0 0 1-1.2-2.3 9.5 9.5 0 0 1-.5-3.2ZM63.3 64.1v.7c.1-.3.3-.5.5-.6l.9-.2h.5l.3.2.3.3.1.2a1.6 1.6 0 0 1 .5-.5 1.7 1.7 0 0 1 .9-.2l.6.1c.2 0 .4.2.5.3l.3.6.1.9V71h-1v-5.1l-.1-.4-.2-.3-.2-.1a1 1 0 0 0-.4-.1 1 1 0 0 0-.3 0l-.3.2-.1.2-.1.3V71H65v-5.5l-.2-.3-.3-.1-.3-.1h-.4a.7.7 0 0 0-.5.5V71h-1v-6.9h1ZM59.4 71v-1c-.3.4-.5.7-.9.8-.3.2-.7.3-1.2.3l-1-.1-.7-.6c-.2-.2-.4-.5-.5-.9l-.1-1.3v-4H56v4l.1 1c0 .2.2.4.3.5.1.2.2.3.4.3l.6.1h.7l.6-.3.3-.3.2-.4v-5h1.2V71h-1ZM51.7 69.2l-.1-.4-.3-.3-.5-.3-.8-.2c-.4 0-.8-.2-1.1-.3-.3 0-.6-.2-.8-.4-.3-.1-.4-.3-.6-.5l-.2-.8.2-.8.6-.6.8-.4L50 64c.4 0 .8 0 1.2.2.3 0 .6.2.8.4a2 2 0 0 1 .8 1.6h-1.2l-.1-.5-.3-.4-.5-.2a2.4 2.4 0 0 0-1.3 0c-.2 0-.4 0-.5.2a1 1 0 0 0-.3.3v.7l.3.3.5.3.8.2c.4 0 .8.1 1 .3.4 0 .7.2 1 .4l.5.5.1.8c0 .3 0 .6-.2.8a2 2 0 0 1-.5.7l-1 .4a4.1 4.1 0 0 1-2.3 0 3 3 0 0 1-1-.6l-.5-.7a2 2 0 0 1-.2-.8h1.2c0 .2 0 .4.2.6 0 .2.2.3.4.4l.6.2a3 3 0 0 0 1.4 0l.5-.3.2-.3v-.3Z" fill="#000"/><rect x="34" y="63" width="8" height="8" rx="4" fill="#444674"/><rect x="342" y="127" width="446" height="225" rx="10" fill="#251F3D"/><rect x="342.5" y="127.5" width="445" height="224" rx="9.5" stroke="#fff" stroke-opacity=".2"/><rect x="525" y="140" width="16" height="16" rx="4" fill="#5A9FD4"/><path d="m533 141.6-1.5.1c-1.3.3-1.6.7-1.6 1.6v1.2h3.1v.4h-4.2a2 2 0 0 0-2 1.5 5.7 5.7 0 0 0 0 3.1c.3 1 .8 1.6 1.7 1.6h1v-1.4a2 2 0 0 1 2-2h3a1.5 1.5 0 0 0 1.4-.9l.1-.6v-2.9c0-.8-.7-1.4-1.5-1.6l-1.6-.1Zm-1.7 1h.3a.6.6 0 0 1 .3.6.6.6 0 0 1-.8.5.6.6 0 0 1-.4-.6.6.6 0 0 1 .6-.6Z" fill="#fff"/><path d="M536.4 144.9v1.3a2 2 0 0 1-1.9 2h-3a1.6 1.6 0 0 0-1.6 1.5v3c0 .7.8 1.2 1.6 1.5 1 .3 2 .3 3 0 .8-.3 1.5-.7 1.5-1.6v-1.1h-3v-.4h4.6c.9 0 1.2-.7 1.5-1.6.3-1 .3-1.9 0-3-.2-1-.6-1.6-1.5-1.6h-1.2Zm-1.7 7.3a.6.6 0 1 1-.4.2l.4-.2ZM599.3 156h-.2V155.3l1.2-2.9-3-7.2-.1-.3a.3.3 0 0 1 .3-.3h1.1l.1.3 2.4 5.8 2.5-5.8.2-.2.2-.1h1l.1.3v.3l-4.6 10.5-.1.2h-1.1ZM589 156h-.2l-.1-.3V144.8l.4-.1H590l.2.3v.8a3 3 0 0 1 1-1c.4-.2 1-.3 1.6-.3.6 0 1 .1 1.5.3.4.2.8.5 1 .9.3.3.5.7.7 1.2l.2 1.4a8.5 8.5 0 0 1-.2 2.5c-.2.5-.4.9-.7 1.2a3 3 0 0 1-1 .9c-.4.2-1 .3-1.5.3-.6 0-1.2-.2-1.6-.4l-1-.8v3.7l-.1.2-.3.1h-.7Zm3.4-4.1c.6 0 1-.2 1.3-.4.4-.2.6-.5.7-1 .2-.3.2-.7.3-1.2v-1l-.3-1.2a2 2 0 0 0-.7-1 2 2 0 0 0-1.3-.3c-.5 0-.9.1-1.2.4-.4.2-.6.5-.8 1l-.2 1a10.5 10.5 0 0 0 0 1.3c0 .4 0 .8.2 1.1l.8 1c.3.1.7.3 1.2.3ZM584.9 153l-.3-.1V151.2H586.3l.1.3v1.1l-.1.3-.3.1H585ZM575.3 153l-.3-.1-.1-.3V142l.1-.2.3-.2h.8s.2 0 .2.2l.1.2v3.7l1.1-.8c.4-.3 1-.4 1.6-.4.7 0 1.3.2 1.7.5.5.3.9.7 1.1 1.2.3.6.4 1.2.4 2v4.7l-.3.1h-.8l-.3-.1-.1-.3v-4.4c0-.7-.2-1.3-.6-1.7-.3-.5-.8-.7-1.6-.7-.6 0-1.1.2-1.6.7-.4.4-.6 1-.6 1.7v4.7l-.3.1h-.8ZM571.9 153c-.6 0-1.1-.1-1.5-.3a2 2 0 0 1-.8-1 4 4 0 0 1-.2-1.5V146H568l-.3-.1V144.8l.3-.1h1.3V141.8l.3-.2h.8s.2 0 .2.2l.1.2v2.7h2.3l.1.3v.6l-.1.3h-2.3v4.2c0 .5.1.9.3 1.2.2.2.5.4 1 .4h.9l.2.1c.1 0 .2.1.2.3v.5c0 .1 0 .2-.2.3l-.2.1h-1.1ZM562.1 153.2a3 3 0 0 1-2.8-1.7c-.2-.6-.4-1.2-.4-2V145l.1-.2.3-.1h1.1v4.8c0 1.6.8 2.4 2.1 2.4a2 2 0 0 0 1.6-.7c.4-.4.6-1 .6-1.7V145l.1-.2.3-.1h1.1v8.2l-.3.1h-.7l-.3-.1-.1-.3v-.7l-1 1c-.5.1-1 .3-1.7.3ZM552.5 153.2c-.5 0-1-.1-1.5-.4l-1-.8a2 2 0 0 1-.4-1.3c0-.7.3-1.3.9-1.7.6-.5 1.4-.7 2.3-.9l2.4-.3v-.5c0-.5-.1-.9-.4-1.2-.3-.3-.8-.4-1.5-.4-.4 0-.8 0-1.1.3-.3.2-.5.4-.6.7-.1.2-.2.3-.4.3h-.7l-.3-.1v-.3l.1-.6.6-.7 1-.5a4 4 0 0 1 1.5-.3c.6 0 1.1.1 1.6.3a2.5 2.5 0 0 1 1.5 1.6c.2.3.2.7.2 1v5.2l-.1.3-.3.1h-.7l-.3-.1v-1l-.6.6a3.3 3.3 0 0 1-2.2.7Zm.3-1.2c.5 0 .9-.1 1.2-.3.4-.2.7-.5.9-.9.2-.4.3-.9.3-1.5v-.4l-1.8.2c-.8.2-1.4.3-1.8.6-.3.2-.5.5-.5 1 0 .2 0 .5.2.7l.7.4.8.2Z" fill="#fff"/><path d="M370.3 303.3a14.6 14.6 0 0 1-1.7 6.8 11.5 11.5 0 0 1-2 2.7 6 6 0 0 1-1 .8l-.5-1.1.9-.8a8 8 0 0 0 1.4-2.5 14.2 14.2 0 0 0 1-5.8v-.2a15.8 15.8 0 0 0-1.1-6.1 11.4 11.4 0 0 0-1.5-2.4 6 6 0 0 0-.7-.6l.4-1.1 1 .7a12 12 0 0 1 3.5 6.8c.2.8.3 1.7.3 2.7v.1ZM725.5 281.5c.4 0 .7-.2 1-.4.3-.2.5-.5.6-.8l.4-1V276.3c0-.5.2-1 .3-1.4a3 3 0 0 1 1.3-1.6l.7-.4-.7-.4-.6-.4a3 3 0 0 1-.7-1.2l-.2-1.4v-2.9l-.3-1a2 2 0 0 0-.7-.8c-.2-.2-.6-.4-1-.4l.1-1.1a3.4 3.4 0 0 1 2.7 1.4c.4.4.6 1 .8 1.5l.2 1.6v1.7l.1 1c0 .3.2.6.3.8l1 .7 1.3.2v1.4c-.5 0-.9 0-1.2.2a2 2 0 0 0-.9.5 2 2 0 0 0-.5.8 4 4 0 0 0-.1 1.2v1.6c0 .6 0 1-.2 1.6l-.7 1.5c-.3.4-.7.8-1.1 1-.5.3-1 .5-1.7.5l-.2-1.1Z" fill="#B3ACC1"/><path d="M716.7 279.2c-.7 0-1.4-.1-2-.4a4.6 4.6 0 0 1-2.7-2.7c-.2-.6-.3-1.3-.3-2v-.4c0-.9 0-1.6.4-2.3.2-.7.6-1.3 1-1.7a4.8 4.8 0 0 1 3.4-1.5c.7 0 1.4.2 2 .4l1.4 1.1c.4.5.6 1 .8 1.7.2.6.3 1.3.3 2v.8h-7.5v.1c0 .5.1 1 .3 1.4a3.4 3.4 0 0 0 1.7 1.7c.4.2.8.3 1.3.3a3.7 3.7 0 0 0 3-1.4l1 .9c-.3.5-.8 1-1.5 1.4a5 5 0 0 1-2.6.6Zm-.2-9.5c-.4 0-.7 0-1 .2l-1 .6-.6 1c-.2.3-.3.8-.4 1.3h5.7v-.1c0-.4 0-.7-.2-1a3 3 0 0 0-.5-1 2.5 2.5 0 0 0-2-1ZM700.9 268.4v1l.8-.8c.4-.2.8-.4 1.3-.4l.8.1.6.3.3.3.3.5a2.5 2.5 0 0 1 .7-.8 2.6 2.6 0 0 1 1.3-.4c.4 0 .7 0 1 .2a2 2 0 0 1 1.3 1.4l.1 1.3v7.9h-1.7v-8.5l-.3-.4a1 1 0 0 0-.4-.3H706l-.3.3-.3.4-.1.4v8.1h-1.7v-8l-.1-.5a1 1 0 0 0-.2-.4.8.8 0 0 0-.4-.3h-1.1a1.1 1.1 0 0 0-.6.5l-.1.3v8.4h-1.8v-10.6h1.7ZM695 279l-.2-.5-.1-.7a4.9 4.9 0 0 1-2.2 1.3h-1l-1.5-.1c-.5-.2-.9-.4-1.2-.7a2.9 2.9 0 0 1-1-2.2c0-.6.2-1.1.4-1.6.2-.4.5-.8 1-1 .4-.3.9-.5 1.5-.7l2-.2h2v-.8c0-.4 0-.6-.2-.9-.1-.3-.3-.5-.5-.6l-.8-.5-1-.1-1 .1-.7.4-.5.5-.1.7H688c0-.4 0-.8.2-1.2l.9-1c.3-.3.8-.5 1.3-.7a6 6 0 0 1 3.4 0c.5.1 1 .3 1.4.6a3.2 3.2 0 0 1 1.2 2.7v4.9a7 7 0 0 0 .3 2.1v.2H695Zm-3.2-1.4a3.4 3.4 0 0 0 2.4-1l.5-.6V274H693l-1.7.1-1 .5c-.3.2-.4.4-.5.6l-.2.7c0 .3 0 .5.2.7 0 .3.2.4.4.6.1.2.4.3.6.4l1 .1ZM676 279v-10.6h1.6l.2 1.6a4.6 4.6 0 0 1 1-1.1l1-.5 1.2-.2c.6 0 1.1.1 1.5.3.5.1.9.4 1.2.7.3.3.6.8.7 1.3.2.5.3 1 .3 1.8v6.7H683v-6.7c0-.4 0-.8-.2-1.2a2 2 0 0 0-.4-.8l-.8-.4a3.4 3.4 0 0 0-2 0 3 3 0 0 0-.7.4 3.6 3.6 0 0 0-1 1.1v7.6H676ZM667.1 277.8c0-.4.2-.7.4-1 .2-.2.6-.4 1-.4.5 0 .9.2 1.1.4.3.3.4.6.4 1s-.1.7-.4 1c-.2.3-.6.4-1 .4-.5 0-.9-.1-1.1-.4-.2-.3-.4-.6-.4-1ZM658.9 268.2a8.1 8.1 0 0 1 1.9.3l-.3 1.8a8.7 8.7 0 0 0-2-.3 4 4 0 0 0-1.2.2 2.8 2.8 0 0 0-1.5 1.1 4 4 0 0 0-.5 1v6.7h-1.8v-10.6h1.7v1.5l.1.2c.4-.6 1-1 1.5-1.4.6-.3 1.3-.5 2.1-.5ZM644.6 279.2c-.7 0-1.4-.1-2-.4a4.6 4.6 0 0 1-2.6-2.7c-.3-.6-.4-1.3-.4-2v-.4c0-.9.1-1.6.4-2.3.3-.7.6-1.3 1-1.7a4.8 4.8 0 0 1 3.4-1.5c.8 0 1.4.2 2 .4.6.3 1 .7 1.4 1.1.4.5.7 1 .9 1.7l.2 2v.8h-7.5v.1c0 .5.1 1 .3 1.4a3.4 3.4 0 0 0 1.7 1.7c.4.2.8.3 1.3.3a3.7 3.7 0 0 0 3-1.4l1.1.9a5 5 0 0 1-4.2 2Zm-.2-9.5c-.4 0-.7 0-1 .2l-1 .6-.6 1c-.2.3-.3.8-.3 1.3h5.6v-.1l-.1-1a3 3 0 0 0-.6-1 2.5 2.5 0 0 0-2-1ZM627.6 273.6c0-.8.1-1.5.3-2.1.2-.7.5-1.3.9-1.7.3-.5.8-.9 1.3-1.2.5-.2 1.1-.4 1.7-.4a4 4 0 0 1 1.7.4c.5.2.9.5 1.2.9V264h1.8v15H635l-.1-1.1-1.3 1a4 4 0 0 1-1.7.3 3.7 3.7 0 0 1-3-1.5c-.4-.5-.7-1.1-.9-1.7-.2-.7-.3-1.4-.3-2.2v-.2Zm1.8.2c0 .5 0 1 .2 1.5l.5 1.2c.2.4.5.7.9.9.3.2.8.3 1.3.3.6 0 1-.2 1.5-.4a3 3 0 0 0 1-1.2v-4.9a3 3 0 0 0-1-1c-.4-.3-1-.4-1.5-.4s-1 0-1.3.3c-.4.2-.7.5-.9.8l-.5 1.3-.2 1.4v.2ZM616.2 268.4h5.4v9h3.5v1.6h-8.9v-1.6h3.6V270h-3.6v-1.6Zm3.4-2.7v-.5a1 1 0 0 1 .6-.5l.5-.1h.4l.3.3.3.3v.5c0 .3 0 .5-.2.7-.2.2-.5.3-.8.3-.4 0-.7-.1-.8-.3a1 1 0 0 1-.3-.7ZM607.5 279l-4.3-10.6h1.8l3 8 .2.7.2-.7 3-8h1.8L609 279h-1.4ZM591.4 273.6l.3-2.1a5 5 0 0 1 1-1.7 4.6 4.6 0 0 1 3.5-1.6 4.7 4.7 0 0 1 3.5 1.6c.5.5.8 1 1 1.7l.3 2.1v.2c0 .8 0 1.5-.3 2.2-.2.6-.5 1.2-1 1.7a4.4 4.4 0 0 1-3.5 1.5 4.3 4.3 0 0 1-3.5-1.5 5 5 0 0 1-1-1.7c-.2-.7-.3-1.4-.3-2.2v-.2Zm1.8.2c0 .6 0 1 .2 1.5.1.5.3 1 .6 1.3.2.3.5.6 1 .8.3.2.7.3 1.2.3a2.6 2.6 0 0 0 2.3-1.1l.5-1.3c.2-.4.2-1 .2-1.5v-.2c0-.5 0-1-.2-1.5l-.5-1.2-1-.9c-.4-.2-.8-.3-1.3-.3s-1 .1-1.3.3l-1 .9-.5 1.2-.2 1.5v.2ZM586.8 268.2a8.1 8.1 0 0 1 1.9.3l-.3 1.8a8.6 8.6 0 0 0-2-.3 4 4 0 0 0-1.1.2 2.8 2.8 0 0 0-1.6 1.1 4 4 0 0 0-.5 1v6.7h-1.8v-10.6h1.7l.1 1.5v.2c.5-.6 1-1 1.6-1.4.6-.3 1.3-.5 2-.5ZM567.9 283v-14.6h1.6l.1 1.2a3.3 3.3 0 0 1 1-.9c.3-.1.6-.3 1-.3a4.5 4.5 0 0 1 2.8.2c.6.3 1 .7 1.3 1.2.4.4.7 1 .8 1.7.2.6.3 1.3.3 2.1v.2a8 8 0 0 1-.3 2.2c-.1.6-.4 1.2-.8 1.7-.3.4-.7.8-1.3 1-.5.4-1 .5-1.7.5l-1.2-.1a3.7 3.7 0 0 1-1.4-.7 4 4 0 0 1-.4-.4v5h-1.8Zm7.1-9.4c0-.5 0-1-.2-1.4 0-.5-.3-1-.5-1.3a2.6 2.6 0 0 0-2.2-1.2 3 3 0 0 0-.8.2l-.6.3c-.2 0-.4.2-.6.4l-.4.6v5.1l.4.6.5.4a2.7 2.7 0 0 0 1.5.4c.5 0 1 0 1.3-.3.4-.2.7-.5 1-.9l.4-1.2.2-1.5v-.2Z" fill="#fff"/><path d="M547.5 277.8c0-.4.1-.7.4-1 .2-.2.5-.4 1-.4s.8.2 1 .4c.3.3.5.6.5 1s-.2.7-.4 1c-.3.3-.6.4-1 .4-.5 0-.9-.1-1.1-.4-.3-.3-.4-.6-.4-1Zm0-8.5c0-.4.1-.7.4-1 .2-.3.5-.4 1-.4s.8.1 1 .4c.3.3.5.6.5 1s-.2.7-.4 1c-.3.2-.6.3-1 .3-.5 0-.9-.1-1.1-.4-.3-.2-.4-.5-.4-1Z" fill="#B3ACC1"/><path d="m535.1 265-.2 3.7h-1.3V264h1.5v1Zm3.5 0-.2 3.7H537V264h1.5v1ZM526.8 268.2a8.2 8.2 0 0 1 1.8.3l-.2 1.8a8.7 8.7 0 0 0-2-.3 4 4 0 0 0-1.2.2 2.8 2.8 0 0 0-1.6 1.1 4 4 0 0 0-.4 1v6.7h-1.8v-10.6h1.7v1.7c.5-.6 1-1 1.6-1.4.6-.3 1.3-.5 2-.5ZM512.5 279.2c-.7 0-1.4-.1-2-.4a4.6 4.6 0 0 1-2.7-2.7c-.2-.6-.3-1.3-.3-2v-.4c0-.9.1-1.6.4-2.3.2-.7.6-1.3 1-1.7a4.8 4.8 0 0 1 3.4-1.5c.7 0 1.4.2 2 .4l1.4 1.1c.4.5.6 1 .8 1.7.2.6.3 1.3.3 2v.8h-7.5v.1c0 .5.1 1 .3 1.4a3.4 3.4 0 0 0 1.7 1.7c.4.2.8.3 1.3.3a3.7 3.7 0 0 0 3-1.4l1 .9c-.3.5-.8 1-1.5 1.4a5 5 0 0 1-2.6.6Zm-.2-9.5c-.4 0-.7 0-1 .2l-1 .6-.6 1c-.2.3-.3.8-.4 1.3h5.7v-.1c0-.4 0-.7-.2-1a3 3 0 0 0-.5-1 2.5 2.5 0 0 0-2-1ZM495.5 273.6c0-.8 0-1.5.3-2.1.2-.7.5-1.3.8-1.7a3.8 3.8 0 0 1 3-1.5 4 4 0 0 1 1.8.3c.4.2.9.5 1.2.9V264h1.8v15h-1.7v-1.1l-1.3 1a4 4 0 0 1-1.7.3 3.7 3.7 0 0 1-3-1.5l-1-1.7-.2-2.2v-.2Zm1.8.2c0 .5 0 1 .2 1.5 0 .5.2.9.5 1.2.2.4.5.7.9.9.3.2.7.3 1.2.3.6 0 1.2-.2 1.5-.4.4-.3.8-.7 1-1.2v-4.9a3 3 0 0 0-1-1c-.3-.3-.8-.4-1.4-.4-.5 0-1 0-1.3.3l-1 .8-.4 1.3c-.2.4-.2 1-.2 1.4v.2ZM484.1 268.4h5.4v9h3.4v1.6h-8.8v-1.6h3.6V270H484v-1.6Zm3.4-2.7v-.5a1 1 0 0 1 .6-.5l.4-.1h.5l.3.3.2.3.1.5c0 .3 0 .5-.2.7-.2.2-.5.3-.9.3-.3 0-.6-.1-.8-.3a1 1 0 0 1-.2-.7ZM475.4 279l-4.3-10.6h1.8l3 8 .2.7.2-.7 3-8h1.8l-4.3 10.6h-1.4ZM459.3 273.6l.3-2.1a5 5 0 0 1 1-1.7c.4-.5.9-.9 1.5-1.1a4.7 4.7 0 0 1 5.5 1.1l1 1.7.3 2.1v.2c0 .8-.1 1.5-.3 2.2l-1 1.7a4.4 4.4 0 0 1-3.5 1.5 4.3 4.3 0 0 1-3.5-1.5 5 5 0 0 1-1-1.7c-.2-.7-.3-1.4-.3-2.2v-.2Zm1.8.2c0 .6 0 1 .2 1.5l.5 1.3 1 .8c.4.2.8.3 1.3.3a2.6 2.6 0 0 0 2.2-1.1c.3-.4.5-.8.6-1.3l.2-1.5v-.2c0-.5 0-1-.2-1.5a4 4 0 0 0-.6-1.2c-.2-.4-.5-.6-1-.9-.3-.2-.7-.3-1.2-.3s-1 .1-1.3.3l-1 .9-.5 1.2-.2 1.5v.2ZM454.7 268.2a8.1 8.1 0 0 1 1.9.3l-.3 1.8a8.6 8.6 0 0 0-2-.3 4 4 0 0 0-1.2.2 2.8 2.8 0 0 0-1.5 1.1 4 4 0 0 0-.5 1v6.7h-1.8v-10.6h1.7v1.5l.1.2c.4-.6 1-1 1.5-1.4.6-.3 1.3-.5 2.1-.5ZM435.8 283v-14.6h1.6l.1 1.2a3.3 3.3 0 0 1 2-1.2 4.5 4.5 0 0 1 2.8.2c.5.3 1 .7 1.3 1.2.4.4.6 1 .8 1.7.2.6.3 1.3.3 2.1v.2a8 8 0 0 1-.3 2.2c-.2.6-.4 1.2-.8 1.7a3.8 3.8 0 0 1-3 1.5l-1.2-.1a3.7 3.7 0 0 1-1.4-.7l-.4-.4v5h-1.8Zm7-9.4-.1-1.4-.5-1.3-1-.8c-.3-.2-.7-.3-1.2-.3a3 3 0 0 0-.8 0c-.2.1-.5.2-.6.4-.3 0-.4.2-.6.4l-.4.6v5.1l.3.6.5.4a2.7 2.7 0 0 0 1.6.4c.5 0 1 0 1.3-.3.4-.2.7-.5.9-.9l.5-1.2.2-1.5v-.2ZM427 265l-.2 3.7h-1.3V264h1.5v1Zm3.5 0-.2 3.7H429V264h1.5v1Z" fill="#7EBE8E"/><path d="M419.6 282.6a3.4 3.4 0 0 1-2.8-1.5l-.7-1.5-.2-1.6v-1.6c0-1-.2-1.6-.7-2-.4-.5-1-.7-2-.7v-1.4c1 0 1.6-.2 2-.6.5-.5.7-1.2.7-2v-1.8c0-.5 0-1 .2-1.6l.7-1.4c.3-.5.7-.8 1.1-1 .5-.3 1-.5 1.7-.5l.2 1.1a2 2 0 0 0-1.1.4 2 2 0 0 0-.6.8c-.2.3-.3.6-.3 1v2.9c0 .8-.3 1.5-.6 2-.4.7-1 1.1-1.7 1.4.8.3 1.3.7 1.7 1.3.3.6.5 1.3.5 2v1.7l.1 1.2c0 .4.2.8.4 1.1.1.3.3.6.6.8l1 .4-.2 1ZM596.5 248.6c0 .6-.2 1.3-.5 2a5 5 0 0 1-1.2 1.7l-1.1-.6.6-1.5c.2-.5.2-1 .2-1.6V247h2v1.7Z" fill="#B3ACC1"/><path d="m584.6 235-.2 3.7H583V234h1.6v1ZM572.2 235.9v2.5h4v1.4h-4v5.8l.1 1a1.6 1.6 0 0 0 1 1h.8a6.7 6.7 0 0 0 1.8-.2h.4l.3 1.2-.5.3a6.3 6.3 0 0 1-1.6.3 9 9 0 0 1-.8 0c-.5 0-1 0-1.3-.2-.4-.1-.8-.4-1-.6a3 3 0 0 1-.8-1.2c-.2-.4-.2-1-.2-1.6v-5.8h-2.8v-1.4h2.8V236h1.8ZM555.9 253v-14.6h1.6l.1 1.2a3.3 3.3 0 0 1 2-1.2 4.5 4.5 0 0 1 2.8.2c.5.3 1 .7 1.3 1.2.4.4.6 1 .8 1.7.2.6.3 1.3.3 2.1v.2c0 .8 0 1.5-.3 2.2-.2.6-.4 1.2-.8 1.7-.3.4-.8.8-1.3 1-.5.4-1 .5-1.7.5l-1.2-.1a3.7 3.7 0 0 1-1.4-.7 4 4 0 0 1-.4-.4v5h-1.8Zm7.1-9.4c0-.5 0-1-.2-1.4 0-.5-.3-1-.5-1.3a2.6 2.6 0 0 0-2.2-1.2 3 3 0 0 0-.8.2l-.6.3c-.2 0-.4.2-.6.4l-.4.6v5.1c0 .2.2.4.4.6l.5.4a2.7 2.7 0 0 0 1.5.4c.5 0 1 0 1.3-.3.4-.2.7-.5.9-.9l.5-1.2.2-1.5v-.2ZM544.7 238.4v1c.3-.3.5-.6.9-.8.3-.2.8-.4 1.3-.4l.7.1.6.3.3.3.3.5a2.4 2.4 0 0 1 .7-.8 2.6 2.6 0 0 1 1.4-.4c.3 0 .7 0 1 .2l.7.5c.2.2.4.5.5.9l.2 1.3v7.9h-1.7v-8l-.1-.5-.2-.4a1 1 0 0 0-.4-.3h-1.1l-.4.3-.2.4-.2.4v8.1h-1.7v-8.5a1 1 0 0 0-.3-.4.8.8 0 0 0-.4-.3h-1a1.1 1.1 0 0 0-.7.5l-.1.3v8.4h-1.7v-10.6h1.6ZM536.5 249.2c-.7 0-1.4-.1-2-.4a4.6 4.6 0 0 1-2.6-2.7c-.3-.6-.4-1.3-.4-2v-.4c0-.9.1-1.6.4-2.3.3-.7.6-1.3 1-1.7a4.8 4.8 0 0 1 3.4-1.5c.8 0 1.4.2 2 .4.6.3 1 .7 1.4 1.1.4.5.7 1 .9 1.7l.2 2v.8h-7.5v.1c0 .5.1 1 .3 1.4a3.4 3.4 0 0 0 1.7 1.7c.4.2.8.3 1.3.3a3.7 3.7 0 0 0 3-1.4l1.1.9a5 5 0 0 1-4.2 2Zm-.2-9.5c-.4 0-.7 0-1 .2-.4.2-.7.3-1 .6l-.6 1c-.2.3-.3.8-.4 1.3h5.7v-.1a3.3 3.3 0 0 0-.7-2 2.5 2.5 0 0 0-2-1ZM524.1 235.9v2.5h4v1.4h-4v5.8c0 .4 0 .7.2 1a1.6 1.6 0 0 0 1 1h.8a6.7 6.7 0 0 0 1.8-.2h.4l.3 1.2-.6.3a6.3 6.3 0 0 1-1.5.3 9 9 0 0 1-.8 0c-.5 0-1 0-1.4-.2-.4-.1-.7-.4-1-.6a3 3 0 0 1-.7-1.2c-.2-.4-.3-1-.3-1.6v-5.8h-2.8v-1.4h2.8V236h1.8ZM512.1 235.9v2.5h4v1.4h-4v5.8c0 .4 0 .7.2 1a1.6 1.6 0 0 0 1 1h.8a6.7 6.7 0 0 0 1.8-.2h.4l.2 1.2-.5.3a6.3 6.3 0 0 1-1.5.3 9 9 0 0 1-.9 0c-.4 0-.9 0-1.3-.2-.4-.1-.7-.4-1-.6a3 3 0 0 1-.7-1.2c-.2-.4-.3-1-.3-1.6v-5.8h-2.8v-1.4h2.8V236h1.8ZM502.8 249l-.2-.5v-.7a5 5 0 0 1-1.4 1 4.7 4.7 0 0 1-1.9.4c-.5 0-1 0-1.5-.2l-1.2-.7a2.9 2.9 0 0 1-1-2.2c0-.6.2-1.1.4-1.6.2-.4.6-.8 1-1 .4-.3 1-.5 1.5-.7l2-.2h2v-.8c0-.4 0-.6-.2-.9l-.5-.7-.8-.4-1-.1-1 .1-.7.4-.5.5-.1.7h-1.8c0-.4 0-.8.3-1.2.2-.3.4-.7.8-1l1.3-.7a6 6 0 0 1 3.4 0c.6.1 1 .3 1.4.6a3.2 3.2 0 0 1 1.2 2.7v4.9a7 7 0 0 0 .4 2.1v.2h-2Zm-3.2-1.4a3.4 3.4 0 0 0 2.4-1l.5-.6V244h-1.7l-1.6.1c-.5.1-.9.3-1.1.5l-.5.6-.1.7v.7l.5.6.6.4 1 .1ZM487 247.8c0-.4 0-.7.3-1 .2-.2.6-.4 1-.4.5 0 .9.2 1.1.4.3.3.4.6.4 1s-.1.7-.4 1c-.2.3-.6.4-1 .4-.5 0-.8-.1-1-.4-.3-.3-.4-.6-.4-1ZM471.8 249v-10.6h1.6l.2 1.6a4.6 4.6 0 0 1 1-1.1l1-.5 1.2-.2c.6 0 1.1.1 1.5.3.5.1.9.4 1.2.7.3.3.6.8.7 1.3.2.5.3 1 .3 1.8v6.7h-1.8v-6.7c0-.4 0-.8-.2-1.2a2 2 0 0 0-.4-.8l-.8-.4a3.4 3.4 0 0 0-2 0 3 3 0 0 0-.7.4 3.5 3.5 0 0 0-1 1.1v7.6h-1.8ZM460 238.4h5.5v9h3.4v1.6h-8.8v-1.6h3.6V240H460v-1.6Zm3.4-2.7.1-.5a1 1 0 0 1 .6-.5l.4-.1h.5l.3.3.2.3.1.5c0 .3 0 .5-.3.7-.2.2-.4.3-.8.3-.3 0-.6-.1-.8-.3a1 1 0 0 1-.3-.7ZM447.4 243.6c0-.8.1-1.5.3-2.1.2-.7.5-1.3.9-1.7a3.8 3.8 0 0 1 3.1-1.5h1.1a3.4 3.4 0 0 1 1.8 1.3l.1-1.2h1.7v10.4c0 .7-.1 1.3-.4 1.8-.2.6-.5 1-.9 1.4a4 4 0 0 1-1.4.9 5.4 5.4 0 0 1-3.8-.1l-1-.6c-.4-.2-.7-.5-1-.9l1-1a4.4 4.4 0 0 0 1.4 1l.7.3h.8l1.1-.1 1-.5.5-1 .2-1.1v-1a4 4 0 0 1-1 .8c-.2.2-.5.3-.9.4h-1a3.7 3.7 0 0 1-3.1-1.4c-.4-.5-.7-1.1-.9-1.7-.2-.7-.3-1.4-.3-2.2v-.2Zm1.9.2.1 1.5.5 1.2c.3.4.6.7 1 .9.3.2.7.3 1.2.3l.8-.1a2.5 2.5 0 0 0 1.2-.9l.5-.6v-4.8l-.5-.6-.5-.5-.7-.3-.8-.1c-.5 0-1 0-1.3.3l-.9.8-.5 1.3-.1 1.4v.2ZM435.3 243.6c0-.7 0-1.4.3-2.1a5 5 0 0 1 1-1.7c.4-.5.9-.9 1.5-1.1a4.6 4.6 0 0 1 5.5 1.1l1 1.7.3 2.1v.2c0 .8-.1 1.5-.4 2.2-.2.6-.5 1.2-1 1.7a4.4 4.4 0 0 1-3.4 1.5 4.3 4.3 0 0 1-3.5-1.5 5 5 0 0 1-1-1.7c-.2-.7-.3-1.4-.3-2.2v-.2Zm1.8.2c0 .6 0 1 .2 1.5 0 .5.3 1 .5 1.3l1 .8c.3.2.8.3 1.3.3a2.6 2.6 0 0 0 2.2-1.1c.3-.4.5-.8.6-1.3l.2-1.5v-.2l-.2-1.5-.6-1.2c-.2-.4-.6-.6-1-.9-.3-.2-.7-.3-1.2-.3s-1 .1-1.4.3l-.9.9-.5 1.2c-.2.5-.2 1-.2 1.5v.2ZM424 234h5.4v13.4h3.5v1.6H424v-1.6h3.6v-11.8H424V234ZM416.4 235l-.2 3.7H415V234h1.5v1Z" fill="#7EBE8E"/><path d="M509.6 213.2a15.3 15.3 0 0 1 .8-4.9 13 13 0 0 1 2-3.4 8.9 8.9 0 0 1 2-2l.4 1.2a5.6 5.6 0 0 0-1.3 1.4 10.2 10.2 0 0 0-1.5 3.3 14 14 0 0 0-.6 4.4v.1a18 18 0 0 0 .5 4.3 13.5 13.5 0 0 0 1.3 3 8.5 8.5 0 0 0 1.6 1.9l-.4 1c-.3 0-.7-.3-1-.7a11.7 11.7 0 0 1-3-4.6 14.7 14.7 0 0 1-.8-4.9Z" fill="#B3ACC1"/><path d="M502.8 208.2a8.1 8.1 0 0 1 1.8.3l-.2 1.8a8.6 8.6 0 0 0-2-.3 4 4 0 0 0-1.2.2 2.8 2.8 0 0 0-1.6 1.1 4 4 0 0 0-.4 1v6.7h-1.9v-10.6h1.8v1.7c.5-.6 1-1 1.6-1.4.6-.3 1.3-.5 2-.5ZM488.3 217.7a3 3 0 0 0 1.8-.6l.6-.6.2-.8h1.7c0 .4-.1.9-.4 1.3-.2.4-.5.8-.9 1.1a4.9 4.9 0 0 1-5 .7c-.7-.3-1.2-.7-1.6-1.2-.4-.5-.7-1-.9-1.7-.2-.6-.3-1.3-.3-2v-.4c0-.7.1-1.4.3-2a5 5 0 0 1 1-1.7c.3-.5.8-.8 1.4-1.1a4.7 4.7 0 0 1 5.2.7 3.8 3.8 0 0 1 1.2 2.7H491c0-.4 0-.7-.2-1a2.4 2.4 0 0 0-1.4-1.2l-1-.2c-.5 0-1 .1-1.4.4l-1 .8-.4 1.3-.2 1.3v.4c0 .5 0 1 .2 1.4 0 .4.3.9.5 1.2.2.4.5.7.9.9.4.2.9.3 1.4.3ZM471.8 219v-10.6h1.6l.2 1.6a4.6 4.6 0 0 1 1-1.1l1-.5 1.2-.2c.6 0 1.1.1 1.5.3.5.1.9.4 1.2.7.3.3.6.8.7 1.3.2.5.3 1 .3 1.8v6.7h-1.8v-6.7c0-.4 0-.8-.2-1.2a2 2 0 0 0-.4-.8l-.8-.4a3.4 3.4 0 0 0-2 0 3 3 0 0 0-.7.4 3.5 3.5 0 0 0-1 1.1v7.6h-1.8ZM460 208.4h5.5v9h3.4v1.6h-8.8v-1.6h3.6V210H460v-1.6Zm3.4-2.7.1-.5a1 1 0 0 1 .6-.5l.4-.1h.5l.3.3.2.3.1.5c0 .3 0 .5-.3.7-.2.2-.4.3-.8.3-.3 0-.6-.1-.8-.3a1 1 0 0 1-.3-.7Z" fill="#fff"/><path d="M451 217.8c0-.4 0-.7.3-1 .2-.2.6-.4 1-.4.5 0 .9.2 1.1.4.3.3.4.6.4 1s-.1.7-.4 1c-.2.3-.6.4-1 .4-.5 0-.9-.1-1.1-.4-.3-.3-.4-.6-.4-1Z" fill="#B3ACC1"/><path d="m442.8 216.2-.1-.6-.5-.5-.8-.3-1.2-.4a13 13 0 0 1-1.7-.4c-.5-.2-.9-.4-1.2-.7-.4-.2-.7-.5-.9-.8-.2-.3-.3-.7-.3-1.2l.3-1.2.9-1c.4-.2.8-.5 1.3-.6a5.7 5.7 0 0 1 3.4 0c.5.2 1 .4 1.3.7a3.1 3.1 0 0 1 1.2 2.3h-1.8c0-.2 0-.4-.2-.6l-.5-.6-.7-.4a3.7 3.7 0 0 0-2 0c-.3 0-.6.1-.8.3l-.4.5-.2.6c0 .2 0 .4.2.5 0 .2.2.3.4.5l.7.3 1.3.3 1.7.5 1.3.6c.4.3.6.6.8 1 .2.3.3.6.3 1 0 .5-.1 1-.3 1.3a3 3 0 0 1-.9 1l-1.4.7a6.3 6.3 0 0 1-3.6 0c-.6-.3-1-.5-1.4-.9l-1-1a3 3 0 0 1-.2-1.4h1.8c0 .4.1.7.3 1l.6.6.9.3a4.5 4.5 0 0 0 2.2 0l.8-.5.3-.4v-.5ZM428.3 217.7a3 3 0 0 0 1.7-.6c.3-.1.5-.4.6-.6.2-.3.2-.5.2-.8h1.8c0 .4-.2.9-.4 1.3s-.6.8-1 1.1a4.9 4.9 0 0 1-3 1c-.7 0-1.4 0-2-.3a4.9 4.9 0 0 1-2.4-2.8l-.3-2v-.5c0-.7 0-1.4.3-2a5 5 0 0 1 .9-1.7 4.8 4.8 0 0 1 3.6-1.6 4.7 4.7 0 0 1 3 1.1 3.8 3.8 0 0 1 1.3 2.8h-1.8c0-.4 0-.7-.2-1a2.4 2.4 0 0 0-1.3-1.2l-1-.2c-.6 0-1 .1-1.5.4l-.9.8-.5 1.3-.1 1.3v.4l.1 1.4.5 1.2a2.8 2.8 0 0 0 2.3 1.2ZM412 208.4h5.4v9h3.5v1.6H412v-1.6h3.6V210H412v-1.6Zm3.4-2.7v-.5a1 1 0 0 1 .6-.5l.5-.1h.4l.3.3.3.3v.5c0 .3 0 .5-.2.7-.2.2-.5.3-.8.3-.4 0-.7-.1-.8-.3a1 1 0 0 1-.3-.7ZM406.7 208.2a8.1 8.1 0 0 1 1.8.3l-.2 1.8a8.7 8.7 0 0 0-2-.3 4 4 0 0 0-1.2.2 2.8 2.8 0 0 0-1.6 1.1 4 4 0 0 0-.4 1v6.7h-1.9v-10.6h1.8v1.7c.5-.6 1-1 1.6-1.4.6-.3 1.3-.5 2-.5ZM392 205.9v2.5h4v1.4h-4v5.8c0 .4 0 .7.2 1a1.6 1.6 0 0 0 1 1h.8a6.7 6.7 0 0 0 1.7-.2h.5l.2 1.2-.5.3a6.3 6.3 0 0 1-1.5.3 9 9 0 0 1-.9 0c-.4 0-.9 0-1.3-.2-.4-.1-.8-.4-1-.6a3 3 0 0 1-.8-1.2l-.2-1.6v-5.8h-2.8v-1.4h2.8V206h1.8ZM380.4 219.2c-.8 0-1.4-.1-2-.4a4.6 4.6 0 0 1-2.7-2.7c-.2-.6-.4-1.3-.4-2v-.4c0-.9.2-1.6.4-2.3.3-.7.7-1.3 1.1-1.7a4.8 4.8 0 0 1 3.3-1.5c.8 0 1.5.2 2 .4.6.3 1 .7 1.5 1.1.3.5.6 1 .8 1.7.2.6.3 1.3.3 2v.8H377v.1c0 .5.2 1 .3 1.4a3.4 3.4 0 0 0 1.7 1.7 3.7 3.7 0 0 0 4.3-1.2l1.1 1c-.3.5-.8 1-1.5 1.4a5 5 0 0 1-2.6.6Zm-.3-9.5c-.3 0-.7 0-1 .2l-.9.6c-.2.3-.5.6-.6 1-.2.3-.3.8-.4 1.3h5.7v-.1c0-.4 0-.7-.2-1a3 3 0 0 0-.5-1 2.5 2.5 0 0 0-2-1ZM364.5 208.4v1l1-.8c.3-.2.7-.4 1.2-.4l.7.1c.3 0 .5.2.6.3.2 0 .3.2.4.3l.2.5a2.4 2.4 0 0 1 .8-.8 2.6 2.6 0 0 1 1.3-.4c.4 0 .7 0 1 .2a2 2 0 0 1 1.2 1.4c.2.4.2.8.2 1.3v7.9h-1.7v-8.5l-.3-.4a1 1 0 0 0-.4-.3h-1.1l-.4.3-.2.4-.1.4v8.1H367v-8.5a1 1 0 0 0-.3-.4.8.8 0 0 0-.3-.3h-1.1a1.1 1.1 0 0 0-.6.5l-.2.3v8.4H363v-10.6h1.6Z" fill="#fff"/><rect x="357" y="142" width="12" height="12" rx="6" fill="#FF5F57"/><rect x="377" y="142" width="12" height="12" rx="6" fill="#FEBC2E"/><rect x="397" y="142" width="12" height="12" rx="6" fill="#28C840"/><path fill="#fff" fill-opacity=".2" d="M343 169h444v1H343z"/></g><defs><clipPath id="a"><path fill="#fff" d="M0 0h793v361H0z"/></clipPath></defs></svg>
