<svg width="793" height="361" fill="none" xmlns="http://www.w3.org/2000/svg"><g clip-path="url(#a)"><path fill="#fff" d="M0 0h793v361H0z"/><rect x="5.5" y="7.5" width="644" height="288" rx="3.5" fill="#fff" stroke="#C6BECF"/><path d="M36.2 43.2H30l-1 2.3-.1.4-.5.1h-.7l-.3-.1-.1-.3v-.2L31.9 34l.2-.4.6-.2h1c.3 0 .5 0 .6.2l.3.4 4.4 11.4v.5l-.4.1H38l-.5-.1a1 1 0 0 1-.2-.4l-1-2.3Zm-5.6-1.7h5l-2.5-6.4-2.5 6.4ZM45 46.2c-.7 0-1.3-.1-1.8-.4l-1-.8v4l-.1.3-.4.1h-.6l-.4-.1a.5.5 0 0 1-.1-.4V37.1l.1-.3.4-.2h.6c.2 0 .3 0 .4.2l.1.3v.6a3 3 0 0 1 1-.9c.5-.2 1-.3 1.8-.3a4 4 0 0 1 3.7 2.5 5.5 5.5 0 0 1 .4 2.3v.6c0 .7-.2 1.3-.4 1.8L48 45a3.9 3.9 0 0 1-2.9 1.2Zm-2.8-5.7a11.4 11.4 0 0 0 0 1.5c0 .8.3 1.5.8 2 .5.4 1 .6 1.8.6s1.4-.2 1.9-.7c.5-.5.7-1.2.8-2v-1c0-1-.3-1.6-.8-2.1s-1-.8-1.9-.8c-.7 0-1.3.2-1.8.7-.5.4-.7 1-.8 1.8Zm12.8-4c.7 0 1.3 0 1.8.4l1 .8v-4l.1-.3.4-.2h.6c.2 0 .3 0 .4.2l.1.3v11.8l-.1.4-.4.1h-.6l-.4-.1a.5.5 0 0 1-.1-.4V45l-1 .8c-.5.3-1 .4-1.8.4a3.8 3.8 0 0 1-2.8-1.2c-.4-.3-.7-.8-1-1.3a5.5 5.5 0 0 1-.3-2.4v-.6c0-.6.2-1.2.4-1.8a4 4 0 0 1 2-2.1 4 4 0 0 1 1.7-.3Zm2.8 5.6a11 11 0 0 0 0-1.4c0-.9-.3-1.5-.8-2s-1-.7-1.8-.7-1.5.3-2 .8c-.4.5-.6 1.2-.7 2v1c0 .9.3 1.6.8 2 .4.6 1 .8 1.9.8.7 0 1.3-.2 1.8-.7.5-.4.7-1 .8-1.8Zm3.9-1.7a4.7 4.7 0 0 1 1.2-2.8l1.3-.8c.4-.2 1-.3 1.6-.3.6 0 1.2 0 1.7.3.5.2 1 .5 1.3.9.4.4.7.9.9 1.4.2.6.2 1.2.2 2v.4l-.1.3-.3.2h-6.2c0 1 .2 1.5.7 2 .5.4 1 .6 1.8.6.7 0 1.1 0 1.5-.2l.8-.7.2-.2h.9l.4.1c0 .1.1.2 0 .4 0 .2 0 .4-.2.7-.2.2-.4.5-.8.7l-1.2.6-1.6.2c-.6 0-1.1-.1-1.6-.3-.5-.2-1-.5-1.3-.9l-.8-1.3c-.3-.5-.4-1-.4-1.6v-1.7Zm1.6 0h5c0-.7-.2-1.3-.7-1.7-.4-.5-1-.7-1.8-.7a2.6 2.6 0 0 0-1.8.7l-.5.7-.2 1Zm12.2 2-2.6 3.3-.2.2-.3.1h-.9l-.3-.1-.1-.3v-.3l3.4-4-3.1-4-.1-.2.1-.3.3-.2h.9c.1 0 .3 0 .3.2l.3.2 2.3 3 2.4-3 .2-.2.4-.2h.8c.1 0 .2 0 .3.2.1 0 .2.1.2.3l-.1.2-3.1 4 3.2 4v.6l-.3.1h-1l-.3-.1-.2-.2-2.5-3.2Z" fill="#2B1D38"/><g clip-path="url(#b)" fill="#9585A3"><path d="M98 48a8 8 0 1 1 0-16 8 8 0 0 1 0 16Zm0-14.5a6.5 6.5 0 1 0 0 13 6.5 6.5 0 0 0 0-13Z"/><path d="M95.3 38.2c0-.4.1-.7.4-1 .2-.4.5-.7 1-1A3 3 0 0 1 98 36c.5 0 1 .1 1.4.3.4.2.7.5.9.8a2 2 0 0 1 .1 1.9l-.4.6a32 32 0 0 1-1.4 1.3v.3l-.2.3c0 .4-.2.6-.6.6-.2 0-.3 0-.5-.2l-.2-.5c0-.3 0-.6.2-.8l.3-.6.7-.6.5-.5.2-.3.1-.4a1 1 0 0 0-.3-.7c-.2-.2-.5-.3-.8-.3-.4 0-.7 0-.9.3l-.5.9c0 .4-.3.6-.7.6-.2 0-.3-.1-.5-.3a.7.7 0 0 1-.2-.4ZM98 44l-.6-.2a.8.8 0 0 1-.3-.6c0-.3.1-.4.3-.6.1-.2.3-.2.6-.2.2 0 .4 0 .5.2.2.2.3.3.3.6l-.3.6-.5.2Z"/></g><circle cx="585" cy="39" r="4" fill="#B85586"/><path d="M593.4 41.6a1.6 1.6 0 0 1 .7-1.4c.2-.1.4-.3.7-.3l.9-.3 1.5-.2v-.2c0-.3-.1-.6-.4-.8-.2-.2-.5-.3-.9-.3-.3 0-.5 0-.7.2l-.4.4-.2.1h-.7l-.1-.2c0-.2 0-.4.2-.5l.5-.5a2.7 2.7 0 0 1 1.4-.4l1 .1.7.4.4.7c.2.3.2.6.2 1v3.5l-.3.1H597.3v-.7l-.4.3-.5.3a2.8 2.8 0 0 1-1 .2l-.9-.1a2 2 0 0 1-.6-.3l-.4-.5v-.6Zm2 .6c.3 0 .5 0 .8-.2.2 0 .4-.1.5-.3l.4-.5.1-.7v-.2l-1.3.2c-.4 0-.8.2-1 .3-.3.2-.5.4-.5.6v.3l.3.2c0 .1.1.2.3.2h.4Zm7.1 1c-.4 0-.8-.2-1-.3l-.7-.5V45H599.8V37.4l.2-.1H600.7l.1.3v.3l.7-.5c.2-.2.6-.2 1-.2a2.4 2.4 0 0 1 2.3 1.5 3.3 3.3 0 0 1 .2 1.5v.3c0 .4 0 .8-.2 1l-.5 1a2.4 2.4 0 0 1-1.8.6Zm-1.7-3.5a7.2 7.2 0 0 0 0 .8c0 .6.2 1 .5 1.2.3.3.7.5 1.1.5.5 0 .9-.2 1.2-.5.2-.3.4-.7.4-1.3v-.6c0-.5-.2-1-.4-1.2-.3-.3-.7-.5-1.2-.5-.4 0-.8.2-1.1.4-.3.3-.4.7-.5 1.2Zm7.8-2.5c.5 0 .8 0 1.1.2l.6.5v-2.4l.1-.2.2-.1H611.2l.1.3v7.4l-.3.1H610.4v-.6a2 2 0 0 1-.7.5l-1 .2c-.4 0-.7 0-1-.2-.3 0-.6-.3-.8-.5l-.5-.8a3.3 3.3 0 0 1-.3-1.5v-.3c0-.4.1-.8.3-1.1a2.4 2.4 0 0 1 1.3-1.3c.3-.2.6-.2 1-.2Zm1.7 3.4a7 7 0 0 0 0-.9c0-.5-.1-.9-.4-1.2-.3-.2-.7-.4-1.2-.4-.4 0-.8.2-1.1.5a2 2 0 0 0-.5 1.2v.6c0 .6.2 1 .5 1.3.3.3.7.5 1.1.5.5 0 .9-.2 1.2-.5.3-.2.4-.6.4-1Zm2.4-1a3 3 0 0 1 .8-1.7l.7-.5c.3-.2.7-.2 1-.2.4 0 .8 0 1 .2.4 0 .7.3.9.5l.5.9.2 1.2v.3l-.1.2h-4v.1c0 .5.2.9.4 1.2.3.2.7.4 1.1.4.4 0 .7 0 1-.2l.4-.4.2-.1h.7l.1.3-.2.4c0 .2-.2.3-.4.4l-.8.4-1 .1c-.3 0-.7 0-1-.2l-.7-.5a2.8 2.8 0 0 1-.8-1.8v-1Zm1 0h3c0-.5 0-.8-.3-1-.3-.3-.7-.5-1.2-.5a1.6 1.6 0 0 0-1 .4l-.4.5-.1.6Zm7.4 1.2-1.5 2-.1.1-.3.1h-.6l-.1-.3v-.1l2-2.5-1.9-2.4V37.4l.3-.1h.7l.1.2 1.5 1.8 1.4-1.8.2-.1.2-.1h.7v.4l-1.9 2.4 2 2.5V42.9l-.2.1h-.8l-.1-.2-1.6-2Z" fill="#2B1D38"/><path d="M70 128h556M70 107h556M70 86h556M70 233h556M70 212h556M70 191h556M70 170h556M70 149h556M70 65h556" stroke="#C6BECF" stroke-width=".5" stroke-miterlimit="10"/><path d="M42.5 252.8a46 46 0 0 1-.3 3.3c0 .4-.3.8-.5 1-.3.4-.6.6-1 .8l-1.3.2c-.5 0-1 0-1.4-.2l-1-.7a3 3 0 0 1-.5-1 45.5 45.5 0 0 1 0-4.6c.2-.5.3-.9.6-1.2.2-.3.5-.5 1-.7l1.3-.2c.5 0 1 0 1.3.2l1 .7.5 1.1c.2.4.2.8.3 1.3Zm-5 2c0 .8.1 1.3.5 1.7.3.4.8.5 1.4.5.6 0 1-.1 1.4-.5.3-.4.5-1 .5-1.7a45.5 45.5 0 0 0 0-2c0-.8-.2-1.3-.5-1.7-.3-.4-.8-.5-1.4-.5-.6 0-1.1.1-1.4.5-.4.4-.5 1-.5 1.7a46 46 0 0 0 0 2Zm7.4 1.7.2.1.1.3v1l-.3.1H44l-.2-.1-.1-.2v-1.1H45Zm4.3-1.4H49l-1.1-.1a2.8 2.8 0 0 1-1.6-1.4c-.2-.4-.3-.8-.3-1.3a2.6 2.6 0 0 1 .9-2 3.1 3.1 0 0 1 2-.8c.6 0 1 0 1.3.2a2.7 2.7 0 0 1 1.6 1.5l.2 1.1v.6a4.1 4.1 0 0 1-.6 1.2l-.4.4-2.1 3.3-.2.1-.2.1H47.5v-.4l1.7-2.5Zm1.6-2.8a1.7 1.7 0 0 0-.6-1.2c-.1-.2-.3-.3-.6-.4l-.7-.1H48l-.6.5-.4.5v1.4l.4.6a2 2 0 0 0 1.4.5c.3 0 .5 0 .7-.2.3 0 .5-.2.6-.3l.4-.6.2-.7Zm8.5.5a46 46 0 0 1-.2 3.3c-.2.4-.3.8-.6 1-.2.4-.6.6-1 .8l-1.3.2c-.5 0-1 0-1.4-.2l-1-.7a3 3 0 0 1-.5-1 45.5 45.5 0 0 1 0-4.6c.2-.5.3-.9.6-1.2.2-.3.6-.5 1-.7l1.3-.2c.5 0 1 0 1.4.2.3.2.7.4.9.7.3.3.4.7.6 1.1l.2 1.3Zm-5 2c0 .8.2 1.3.5 1.7.3.4.8.5 1.4.5.6 0 1-.1 1.4-.5.3-.4.5-1 .5-1.7a45.5 45.5 0 0 0 0-2c0-.8-.2-1.3-.5-1.7-.3-.4-.8-.5-1.4-.5-.6 0-1.1.1-1.4.5-.3.4-.5 1-.5 1.7a46 46 0 0 0 0 2ZM45 231.8a46 46 0 0 1-.2 3.3l-.5 1c-.3.4-.6.6-1 .8l-1.4.2c-.5 0-1 0-1.3-.2l-1-.7a3 3 0 0 1-.5-1 45.5 45.5 0 0 1 0-4.6l.5-1.2 1-.7 1.3-.2c.6 0 1 0 1.4.2l1 .7.5 1.1.2 1.3Zm-5 2c0 .8.2 1.3.5 1.7.3.4.8.5 1.4.5.7 0 1.1-.1 1.5-.5.3-.4.5-1 .5-1.7a45.5 45.5 0 0 0 0-2c0-.8-.2-1.3-.5-1.7-.4-.4-.8-.5-1.5-.5-.6 0-1 .1-1.4.5-.3.4-.5 1-.5 1.7a46 46 0 0 0 0 2Zm7.4 1.7.3.1v1.3l-.3.1h-.8l-.2-.1v-1.3h1Zm4.4-1.4h-.4l-1-.1a2.8 2.8 0 0 1-1.6-1.4c-.3-.4-.4-.8-.4-1.3a2.6 2.6 0 0 1 1-2 3.1 3.1 0 0 1 2-.8c.5 0 1 0 1.3.2a2.7 2.7 0 0 1 1.5 1.5c.2.3.3.7.3 1.1l-.1.6a4.1 4.1 0 0 1-.6 1.2l-.3.4-2.2 3.3-.1.1-.3.1h-.8v-.4l1.7-2.5Zm1.5-2.8a1.7 1.7 0 0 0-.5-1.2l-.6-.4-.8-.1h-.7l-.6.5-.4.5-.1.7.1.7.4.6a2 2 0 0 0 1.3.5c.3 0 .6 0 .8-.2l.6-.3.4-.6.1-.7Zm5.8 5.4v.2l-.3.1h-.5l-.2-.1-.1-.2V230l-2 1.4-.2.1-.2-.1-.3-.4v-.4l2.6-2h.2l.2-.1h.5l.2.1.1.2v7.8ZM43 210.8a46 46 0 0 1-.1 3.3c-.1.4-.3.8-.6 1-.2.4-.5.6-1 .8l-1.3.2c-.5 0-1 0-1.4-.2l-.9-.7a3 3 0 0 1-.6-1 45.5 45.5 0 0 1 0-4.6l.6-1.2 1-.7 1.3-.2c.5 0 1 0 1.4.2l1 .7.5 1.1.2 1.3Zm-5 2c.1.8.3 1.3.6 1.7.3.4.8.5 1.4.5.6 0 1.1-.1 1.4-.5.4-.4.5-1 .5-1.7a45.5 45.5 0 0 0 0-2c0-.8-.1-1.3-.5-1.7-.3-.4-.8-.5-1.4-.5-.6 0-1 .1-1.4.5-.3.4-.5 1-.5 1.7a46 46 0 0 0 0 2Zm7.5 1.7.2.1.1.3v1l-.3.1h-.8l-.2-.1-.1-.2v-1.1h1.1Zm4.3-1.4H49.5l-1.1-.1a2.8 2.8 0 0 1-1.6-1.4c-.2-.4-.3-.8-.3-1.3a2.6 2.6 0 0 1 .9-2 3.1 3.1 0 0 1 2.1-.8c.5 0 .9 0 1.3.2a2.7 2.7 0 0 1 1.5 1.5c.2.3.2.7.2 1.1v.6a4.1 4.1 0 0 1-.6 1.2l-.3.4-2.2 3.3-.2.1-.2.1H48.1v-.4l1.7-2.5Zm1.6-2.8a1.7 1.7 0 0 0-.5-1.2l-.6-.4-.8-.1h-.8l-.5.5-.4.5-.2.7c0 .3 0 .5.2.7 0 .2.2.4.4.6a2 2 0 0 0 1.3.5c.3 0 .5 0 .8-.2l.6-.3.3-.6.2-.7Zm6 1.3.5-.7.2-.9c0-.4-.1-.7-.4-1-.2-.3-.6-.4-1.2-.4a2 2 0 0 0-.7 0l-.5.4-.3.5-.2.5v.3h-1v-.2l.1-1 .6-.8.8-.6 1.2-.2c.5 0 .9 0 1.2.2l.8.5.6.9.1 1v.6l-.2.6-.4.6-.5.5-2.7 2.5h3.7l.2.1.1.2v.7l-.3.1h-5.2l-.2-.1-.1-.2v-.7l.3-.2 3.5-3.2ZM43 189.8a46 46 0 0 1-.2 3.3c0 .4-.3.8-.5 1-.3.4-.6.6-1 .8l-1.3.2c-.5 0-1 0-1.4-.2l-1-.7a3 3 0 0 1-.5-1 45.5 45.5 0 0 1 0-4.6c.2-.5.3-.9.6-1.2.2-.3.5-.5 1-.7l1.3-.2c.5 0 1 0 1.3.2l1 .7.5 1.1c.2.4.2.8.3 1.3Zm-5 2c0 .8.2 1.3.6 1.7.3.4.8.5 1.4.5.6 0 1-.1 1.4-.5.3-.4.5-1 .5-1.7a45.5 45.5 0 0 0 0-2c0-.8-.2-1.3-.5-1.7-.3-.4-.8-.5-1.4-.5-.6 0-1.1.1-1.4.5-.4.4-.5 1-.5 1.7a46 46 0 0 0 0 2Zm7.5 1.7.2.1.1.3v1l-.3.1h-.8l-.2-.1-.1-.2v-1.1h1.1Zm4.3-1.4H49.5l-1.1-.1a2.8 2.8 0 0 1-1.6-1.4c-.2-.4-.3-.8-.3-1.3a2.6 2.6 0 0 1 .9-2 3.1 3.1 0 0 1 2-.8c.6 0 1 0 1.3.2a2.7 2.7 0 0 1 1.6 1.5l.2 1.1-.1.6a4.1 4.1 0 0 1-.5 1.2l-.4.4-2.1 3.3-.2.1-.2.1H48v-.4l1.7-2.5Zm1.6-2.8a1.7 1.7 0 0 0-.6-1.2c-.1-.2-.3-.3-.6-.4l-.7-.1h-.8l-.6.5-.4.5v1.4l.4.6a2 2 0 0 0 1.4.5c.3 0 .5 0 .7-.2.3 0 .5-.2.6-.3l.4-.6.2-.7Zm3 3.7.3.4.3.3.5.2a3.7 3.7 0 0 0 1.7 0l.6-.2a1.4 1.4 0 0 0 .5-1.2l-.1-.6a1 1 0 0 0-.4-.5l-.6-.2h-1.7l-.3-.2v-.8l.1-.2 2.2-2.3H54l-.2-.1V186.7l.2-.1h4.8l.2.1V187.6l-.1.2-2.1 2.3 1 .1a2.3 2.3 0 0 1 1.7 2.3c0 .4-.1.8-.3 1.1l-.6.8c-.3.3-.6.4-1 .5-.3.2-.7.2-1.1.2-.6 0-1 0-1.4-.2-.4 0-.7-.3-1-.5l-.6-.6a2 2 0 0 1-.1-.8v-.2h1v.2ZM43 168.8a46 46 0 0 1-.3 3.3l-.5 1c-.3.4-.6.6-1 .8l-1.3.2c-.6 0-1 0-1.4-.2l-1-.7a3 3 0 0 1-.5-1 45.5 45.5 0 0 1 0-4.6c.1-.5.3-.9.6-1.2.2-.3.5-.5.9-.7l1.4-.2c.5 0 1 0 1.3.2l1 .7.5 1.1.2 1.3Zm-5 2c0 .8.1 1.3.4 1.7.4.4.8.5 1.5.5.6 0 1-.1 1.4-.5.3-.4.5-1 .5-1.7a45.5 45.5 0 0 0 0-2c0-.8-.2-1.3-.5-1.7-.3-.4-.8-.5-1.4-.5-.7 0-1.1.1-1.5.5-.3.4-.5 1-.5 1.7a46 46 0 0 0 0 2Zm7.4 1.7.2.1v1.3l-.2.1h-.8l-.3-.1v-1.3h1.1Zm4.3-1.4H49.4l-1.2-.1a2.8 2.8 0 0 1-1.6-1.4c-.2-.4-.3-.8-.3-1.3a2.6 2.6 0 0 1 1-2 3.1 3.1 0 0 1 2-.8c.5 0 1 0 1.3.2a2.7 2.7 0 0 1 1.6 1.5l.2 1.1-.1.6a4.1 4.1 0 0 1-.6 1.2l-.3.4-2.2 3.3-.1.1-.2.1H48v-.4l1.7-2.5Zm1.5-2.8a1.7 1.7 0 0 0-.5-1.2l-.6-.4-.7-.1h-.8l-.6.5-.4.5-.1.7.1.7.4.6a2 2 0 0 0 1.4.5c.2 0 .5 0 .7-.2l.6-.3.4-.6.1-.7Zm6.2 5.7-.2-.1V172H53v-.7a.6.6 0 0 1 0-.4l3.9-5 .2-.2.3-.1h.4l.3.1v5.2h1l.3.1.1.3V171.9l-.3.1h-1v1.7l-.1.2-.3.1h-.5Zm-.3-3v-3.4l-2.6 3.3h2.6ZM43 148.8a46 46 0 0 1-.3 3.3c0 .4-.3.8-.5 1-.3.4-.6.6-1 .8l-1.3.2c-.6 0-1 0-1.4-.2l-1-.7a3 3 0 0 1-.5-1 45.5 45.5 0 0 1 0-4.6c.1-.5.3-.9.6-1.2.2-.3.5-.5 1-.7l1.3-.2c.5 0 1 0 1.3.2l1 .7.5 1.1c.2.4.2.8.2 1.3Zm-5 2c0 .8.1 1.3.4 1.7.4.4.9.5 1.5.5s1-.1 1.4-.5c.3-.4.5-1 .5-1.7a45.5 45.5 0 0 0 0-2c0-.8-.2-1.3-.5-1.7-.3-.4-.8-.5-1.4-.5-.6 0-1.1.1-1.5.5-.3.4-.4 1-.5 1.7a46 46 0 0 0 0 2Zm7.4 1.7.2.1.1.3v.8l-.1.2-.2.1h-.8l-.3-.1v-1.3h1.1Zm4.3-1.4H49.4l-1.1-.1a2.8 2.8 0 0 1-1.6-1.4c-.3-.4-.3-.8-.3-1.3a2.6 2.6 0 0 1 .8-2 3.1 3.1 0 0 1 2.2-.8c.4 0 .8 0 1.2.2a2.7 2.7 0 0 1 1.6 1.5l.2 1.1-.1.6a4.1 4.1 0 0 1-.6 1.2l-.3.4-2.2 3.3v.1l-.3.1H48v-.4l1.7-2.5Zm1.5-2.8a1.7 1.7 0 0 0-.5-1.2c-.1-.2-.3-.3-.6-.4l-.7-.1h-.8l-.6.5-.4.5-.1.7.1.7.4.6a2 2 0 0 0 1.4.5c.2 0 .5 0 .7-.2.3 0 .5-.2.6-.3l.4-.6.1-.7Zm3.3 3.5c.1.4.4.7.7 1l1.2.2h.8l.6-.4.4-.5.1-.8a1.7 1.7 0 0 0-.5-1.3l-.6-.3a2.5 2.5 0 0 0-1.5 0 2 2 0 0 0-.4.2l-.4.2-.3.1h-.8v-.3l.3-4 .1-.2.2-.1h4.3l.2.1V146.6h-3.7l-.2 2.2.5-.2 1-.1c.3 0 .7 0 1.1.2a2.7 2.7 0 0 1 1.9 2.6l-.3 1.2a2.7 2.7 0 0 1-1.6 1.4c-.4.2-.8.2-1.2.2a4 4 0 0 1-1.1-.1l-1-.5-.6-.7a2 2 0 0 1-.3-1v-.2h1l.1.2ZM42.9 127.8a46 46 0 0 1-.2 3.3c-.1.4-.3.8-.6 1-.2.4-.5.6-1 .8l-1.3.2c-.5 0-1 0-1.3-.2l-1-.7a3 3 0 0 1-.5-1 45.5 45.5 0 0 1 0-4.6c0-.5.3-.9.5-1.2l1-.7 1.3-.2c.6 0 1 0 1.4.2l1 .7.5 1.1.2 1.3Zm-5 2c0 .8.2 1.3.5 1.7.3.4.8.5 1.4.5.7 0 1.1-.1 1.4-.5.4-.4.5-1 .6-1.7a45.5 45.5 0 0 0 0-2c0-.8-.2-1.3-.6-1.7-.3-.4-.7-.5-1.4-.5-.6 0-1 .1-1.4.5-.3.4-.5 1-.5 1.7a46 46 0 0 0 0 2Zm7.4 1.7.3.1v1.3l-.3.1h-.8l-.2-.1-.1-.2v-1.1h1.1Zm4.3-1.4H49.3l-1-.1a2.8 2.8 0 0 1-1.6-1.4c-.3-.4-.4-.8-.4-1.3a2.6 2.6 0 0 1 .9-2 3.1 3.1 0 0 1 2.1-.8c.5 0 .9 0 1.3.2a2.7 2.7 0 0 1 1.5 1.5c.2.3.2.7.2 1.1v.6a4.1 4.1 0 0 1-.6 1.2l-.3.4-2.2 3.3-.1.1-.3.1H48l-.1-.3v-.1l1.7-2.5Zm1.6-2.8a1.7 1.7 0 0 0-.5-1.2l-.6-.4-.8-.1h-.7l-.6.5-.4.5-.1.7v.7l.5.6a2 2 0 0 0 1.3.5c.3 0 .5 0 .8-.2l.6-.3.4-.6v-.7Zm4.8.1h.5a3.3 3.3 0 0 1 2.2.8c.3.2.5.5.6.9.2.3.3.7.3 1.1l-.3 1.2-.6.9a3 3 0 0 1-1 .6l-1.2.2c-.5 0-.9 0-1.3-.2l-1-.6a2.8 2.8 0 0 1-.6-3.3 5.1 5.1 0 0 1 .6-1l2.2-3.2.2-.1.2-.1H57.7v.4l-1.7 2.4Zm-1.5 2.8.1.7a1.9 1.9 0 0 0 1.9 1.1l.8-.1.6-.4.4-.6a1.7 1.7 0 0 0 0-1.4 1.7 1.7 0 0 0-1-1 2 2 0 0 0-.8 0h-.9a1.8 1.8 0 0 0-1 1.7ZM43.9 106.8a46 46 0 0 1-.2 3.3c-.1.4-.3.8-.6 1-.2.4-.5.6-1 .8l-1.3.2c-.5 0-1 0-1.3-.2l-1-.7a3 3 0 0 1-.5-1 45.5 45.5 0 0 1 0-4.6c0-.5.3-.9.5-1.2l1-.7 1.3-.2c.6 0 1 0 1.4.2l1 .7.5 1.1.2 1.3Zm-5 2c0 .8.2 1.3.5 1.7.3.4.8.5 1.4.5.6 0 1.1-.1 1.4-.5.4-.4.5-1 .6-1.7a45.5 45.5 0 0 0 0-2c0-.8-.2-1.3-.6-1.7-.3-.4-.8-.5-1.4-.5-.6 0-1 .1-1.4.5-.3.4-.5 1-.5 1.7a46 46 0 0 0 0 2Zm7.4 1.7.2.1.1.3v1l-.3.1h-.8l-.2-.1-.1-.2v-1.1h1.1Zm4.3-1.4H50.3l-1.1-.1a2.8 2.8 0 0 1-1.6-1.4c-.2-.4-.3-.8-.3-1.3a2.6 2.6 0 0 1 .9-2 3.1 3.1 0 0 1 2.1-.8c.5 0 .9 0 1.3.2a2.7 2.7 0 0 1 1.5 1.5c.2.3.2.7.2 1.1v.6a4.1 4.1 0 0 1-.6 1.2l-.3.4-2.2 3.3-.1.1-.3.1H49l-.1-.3v-.1l1.7-2.5Zm1.6-2.8a1.7 1.7 0 0 0-.5-1.2l-.6-.4-.8-.1h-.7l-.6.5-.4.5-.2.7c0 .3 0 .5.2.7 0 .2.2.4.4.6a2 2 0 0 0 1.3.5c.3 0 .5 0 .8-.2l.6-.3.3-.6.2-.7Zm7.2-2.7.2.1V104.8l-2.7 7-.1.1-.3.1h-.7l-.1-.3v-.1l2.7-7h-4.2V103.7l.3-.1h4.9ZM42.7 85.8a46 46 0 0 1-.2 3.3c0 .4-.3.8-.5 1-.3.4-.6.6-1 .8l-1.3.2c-.6 0-1 0-1.4-.2l-1-.7a3 3 0 0 1-.5-1 45.5 45.5 0 0 1 0-4.6c.1-.5.3-.9.6-1.2.2-.3.5-.5 1-.7l1.3-.2c.5 0 1 0 1.3.2l1 .7.5 1.1c.2.4.2.8.2 1.3Zm-5 2c0 .8.2 1.3.5 1.7.4.4.9.5 1.5.5s1-.1 1.4-.5c.3-.4.5-1 .5-1.7a45.5 45.5 0 0 0 0-2c0-.8-.2-1.3-.5-1.7-.3-.4-.8-.5-1.4-.5-.6 0-1.1.1-1.5.5-.3.4-.4 1-.5 1.7a46 46 0 0 0 0 2Zm7.5 1.7.2.1.1.3v.8l-.1.2-.2.1h-.8l-.3-.1v-1.3h1.1Zm4.3-1.4H49.2L48 88a2.8 2.8 0 0 1-1.6-1.4c-.3-.4-.3-.8-.3-1.3a2.6 2.6 0 0 1 .8-2 3.1 3.1 0 0 1 2.2-.8c.4 0 .9 0 1.2.2a2.7 2.7 0 0 1 1.6 1.5l.2 1.1-.1.6a4.1 4.1 0 0 1-.6 1.2l-.3.4-2.2 3.3v.1l-.3.1H47.8v-.4l1.7-2.5Zm1.5-2.8a1.7 1.7 0 0 0-.5-1.2c-.1-.2-.3-.3-.6-.4l-.7-.1h-.8l-.6.5-.4.5-.1.7.1.7.4.6a2 2 0 0 0 1.4.5c.2 0 .5 0 .7-.2.3 0 .5-.2.6-.3l.4-.6.1-.7Zm2.3 3.3c0-.4.1-.8.3-1.1.2-.4.5-.7.9-.9l-.7-.8c-.2-.3-.2-.6-.2-1a2.1 2.1 0 0 1 .7-1.6l1-.5a3.2 3.2 0 0 1 2.1 0c.4 0 .7.3 1 .5l.5.7a2 2 0 0 1 0 2l-.7.7c.3.2.6.5.8.9.2.3.3.7.3 1.1 0 .4 0 .7-.2 1-.1.3-.3.6-.6.8a3.1 3.1 0 0 1-2.2.7c-.4 0-.8 0-1.2-.2l-1-.5-.6-.8-.2-1Zm1.2 0 .1.6.4.4c.1.1.3.3.6.3l.7.1h.8l.6-.4.4-.4a1.2 1.2 0 0 0 0-1.1l-.4-.5-.6-.3-.8-.1a2.3 2.3 0 0 0-1.3.4l-.4.5-.1.5Zm.2-3.8.1.5.4.4.5.3.6.1h.7l.5-.4a1.2 1.2 0 0 0 .5-.9l-.1-.5-.4-.4-.5-.2-.7-.1h-.6l-.5.3-.4.4-.1.5ZM43.1 63.8A46 46 0 0 1 43 67l-.5 1c-.3.4-.6.6-1 .8l-1.3.2c-.6 0-1 0-1.4-.2l-1-.7a3 3 0 0 1-.5-1 45.5 45.5 0 0 1 0-4.6l.5-1.2 1-.7 1.4-.2c.5 0 1 0 1.3.2l1 .7.5 1.1.2 1.3Zm-5 2c0 .8.2 1.3.5 1.7.4.4.8.5 1.5.5.6 0 1-.1 1.4-.5.3-.4.5-1 .5-1.7a45.5 45.5 0 0 0 0-2c0-.8-.2-1.3-.5-1.7-.4-.4-.8-.5-1.4-.5-.7 0-1.1.1-1.5.5-.3.4-.5 1-.5 1.7a46 46 0 0 0 0 2Zm7.4 1.7.3.1V69l-.3.1h-.8l-.2-.1v-1.3h1Zm4.4-1.4h-.4l-1-.1a2.8 2.8 0 0 1-1.6-1.4c-.3-.4-.4-.8-.4-1.3a2.6 2.6 0 0 1 1-2 3.1 3.1 0 0 1 2-.8c.5 0 1 0 1.3.2a2.7 2.7 0 0 1 1.5 1.5c.2.3.3.7.3 1.1l-.1.6a4.1 4.1 0 0 1-.6 1.2l-.3.4-2.2 3.3-.1.1-.3.1h-.8v-.4l1.7-2.5Zm1.5-2.8a1.7 1.7 0 0 0-.5-1.2l-.6-.4-.8-.1h-.7l-.6.5-.4.5-.1.7.1.7.4.6a2 2 0 0 0 1.3.5c.3 0 .6 0 .8-.2l.6-.3.4-.6.1-.7Zm5.4 2.8H56.5l-1.1-.1a2.8 2.8 0 0 1-1.6-1.4c-.2-.4-.3-.8-.3-1.3a2.6 2.6 0 0 1 .9-2 3.1 3.1 0 0 1 2-.8c.6 0 1 0 1.3.2a2.7 2.7 0 0 1 1.6 1.5l.2 1.1v.6a4.1 4.1 0 0 1-.6 1.2l-.4.4-2.1 3.3-.2.1-.2.1H55v-.4l1.7-2.5Zm1.6-2.8a1.7 1.7 0 0 0-.6-1.2l-.5-.4-.8-.1h-.8l-.6.5-.3.5-.2.7c0 .3 0 .5.2.7l.3.6a2 2 0 0 0 1.4.5c.3 0 .5 0 .8-.2.2 0 .4-.2.5-.3l.4-.6.2-.7Z" fill="#9585A3"/><path d="M99.5 254v5" stroke="#9585A3" stroke-miterlimit="10"/><path d="M92 271.7v.2l-.3.1h-.5l-.2-.1-.1-.2V265l-2 1.4-.2.1-.2-.1-.3-.4v-.4l2.6-2h.2l.2-.1h.5l.2.1.1.2v7.8Zm7.8-5a46 46 0 0 1-.2 3.4c-.2.4-.3.8-.6 1-.2.4-.5.6-1 .8l-1.3.2c-.5 0-1 0-1.4-.2l-.9-.7a3 3 0 0 1-.6-1 45.5 45.5 0 0 1 0-4.6l.6-1.2 1-.7 1.3-.2c.5 0 1 0 1.4.2l1 .7.5 1.1.2 1.3Zm-5 2.1c0 .8.2 1.3.5 1.7.3.4.8.5 1.4.5.6 0 1.1-.1 1.4-.5.4-.4.5-1 .5-1.7a45.5 45.5 0 0 0 0-2c0-.8-.1-1.3-.5-1.7-.3-.4-.8-.5-1.4-.5-.6 0-1 .1-1.4.5-.3.4-.5 1-.5 1.7a46 46 0 0 0 0 2Zm9.8-5.9.2-.2.4-.1h.5l.1.2v.1l-4 9.7-.2.3-.4.1h-.5l-.1-.3 4-9.8Zm5.7 8.8-.1.2-.2.1h-.5l-.3-.1v-6.8l-2 1.4-.2.1-.3-.1-.2-.4-.1-.2.1-.2 2.6-2h.2l.2-.1h.5l.2.1v8Z" fill="#9585A3"/><path d="M150.4 254v5" stroke="#9585A3" stroke-miterlimit="10"/><path d="m142 271.7-.1.2-.2.1h-.5l-.3-.1v-6.8l-2 1.4-.2.1-.3-.1-.2-.4-.1-.2.1-.2 2.6-2h.2l.2-.1h.5l.2.1v8Zm7.7-5a46 46 0 0 1-.2 3.4c0 .4-.3.8-.5 1-.3.4-.6.6-1 .8l-1.3.2c-.5 0-1 0-1.4-.2l-1-.7a3 3 0 0 1-.5-1 45.5 45.5 0 0 1 0-4.6c.1-.5.3-.9.6-1.2.2-.3.5-.5 1-.7l1.3-.2c.5 0 1 0 1.3.2l1 .7.5 1.1c.2.4.2.8.2 1.3Zm-5 2.1c0 .8.2 1.3.6 1.7.3.4.8.5 1.4.5.6 0 1-.1 1.4-.5.3-.4.5-1 .5-1.7a45.5 45.5 0 0 0 0-2c0-.8-.2-1.3-.5-1.7-.3-.4-.8-.5-1.4-.5-.6 0-1.1.1-1.4.5-.4.4-.5 1-.6 1.7a46 46 0 0 0 0 2Zm9.9-5.9.2-.2.3-.1H155.7V263l-4 9.7c0 .1 0 .2-.2.3l-.3.1H150.6v-.3l4-9.8Zm5.7 4.7.5-.7.2-.9c0-.4-.1-.7-.4-1-.2-.3-.6-.4-1.1-.4a2 2 0 0 0-.8 0l-.5.4c0 .2-.2.3-.3.5l-.1.5-.2.3H156.7v-.2l.1-1 .6-.8.9-.6 1.2-.2c.4 0 .8 0 1.1.2.4.1.6.3.9.5.2.3.4.5.5.9l.1 1v.6l-.2.6-.4.6-.5.5-2.7 2.5h3.7l.2.1.1.2v.7l-.3.1h-5.2l-.2-.1V271l.2-.2 3.5-3.2Z" fill="#9585A3"/><path d="M201.2 254v5" stroke="#9585A3" stroke-miterlimit="10"/><path d="m192.7 271.7-.1.2-.2.1h-.5l-.3-.1v-6.8l-2 1.4-.2.1-.3-.1-.2-.4-.1-.2.1-.2 2.6-2h.2l.2-.1h.5l.2.1v8Zm7.7-5a46 46 0 0 1-.2 3.4c0 .4-.3.8-.5 1-.3.4-.6.6-1 .8l-1.3.2c-.6 0-1 0-1.4-.2l-1-.7a3 3 0 0 1-.5-1 45.5 45.5 0 0 1 0-4.6c.1-.5.3-.9.6-1.2.2-.3.5-.5 1-.7l1.3-.2c.5 0 1 0 1.3.2l1 .7.5 1.1c.2.4.2.8.2 1.3Zm-5 2.1c0 .8.2 1.3.5 1.7.4.4.9.5 1.5.5s1-.1 1.4-.5c.3-.4.5-1 .5-1.7a45.5 45.5 0 0 0 0-2c0-.8-.2-1.3-.5-1.7-.3-.4-.8-.5-1.4-.5-.6 0-1.1.1-1.5.5-.3.4-.4 1-.5 1.7a46 46 0 0 0 0 2Zm9.9-5.9.2-.2.3-.1H206.4V263l-4 9.7c0 .1 0 .2-.2.3l-.3.1H201.3v-.3l4-9.8Zm3.1 7 .2.5.3.3.6.2a3.7 3.7 0 0 0 1.6 0l.6-.2a1.4 1.4 0 0 0 .5-1.2l-.1-.6a1 1 0 0 0-.4-.5l-.6-.2h-1.7l-.2-.2-.1-.2V267.2l.2-.2 2.1-2.3H208l-.3-.1V263.7l.3-.1h4.7l.2.1.1.2v.7l-.2.2-2.1 2.3 1 .1a2.3 2.3 0 0 1 1.7 2.3c0 .4-.1.8-.3 1.1-.1.3-.3.6-.6.8-.3.3-.6.4-1 .5-.3.2-.7.2-1.1.2-.5 0-1 0-1.4-.2-.4 0-.7-.3-1-.5l-.5-.6a2 2 0 0 1-.2-.8v-.2h1l.1.2Z" fill="#9585A3"/><path d="M252 254v5" stroke="#9585A3" stroke-miterlimit="10"/><path d="m243.8 271.7-.1.2-.2.1h-.5l-.3-.1v-6.8l-2 1.4-.2.1-.2-.1-.3-.4-.1-.2.1-.2 2.6-2h.2l.2-.1h.5l.2.1v8Zm7.7-5a46 46 0 0 1-.2 3.4c0 .4-.3.8-.5 1-.3.4-.6.6-1 .8l-1.3.2c-.5 0-1 0-1.4-.2l-1-.7a3 3 0 0 1-.5-1 45.5 45.5 0 0 1 0-4.6c.1-.5.3-.9.6-1.2.2-.3.5-.5 1-.7l1.3-.2c.5 0 1 0 1.3.2l1 .7.5 1.1c.2.4.2.8.2 1.3Zm-5 2.1c0 .8.2 1.3.6 1.7.3.4.8.5 1.4.5.6 0 1-.1 1.4-.5.3-.4.5-1 .5-1.7a45.5 45.5 0 0 0 0-2c0-.8-.2-1.3-.5-1.7-.3-.4-.8-.5-1.4-.5-.6 0-1.1.1-1.4.5-.4.4-.5 1-.5 1.7a46 46 0 0 0 0 2Zm10-5.9v-.2l.4-.1H257.5l.1.2v.1l-4 9.7-.3.3-.3.1H252.4v-.3l4-9.8Zm5.5 9.1-.3-.1V270h-4l-.1-.3v-.4a.6.6 0 0 1 .1-.4l3.8-5 .2-.2.3-.1h.5l.2.1v5.2h1.1l.2.1.1.3V269.9l-.3.1h-1v1.7l-.1.2-.2.1h-.5Zm-.4-3v-3.4l-2.6 3.3h2.6Z" fill="#9585A3"/><path d="M303 254v5" stroke="#9585A3" stroke-miterlimit="10"/><path d="m294.5 271.7-.1.2-.3.1h-.5l-.2-.1v-6.8l-2 1.4-.3.1-.2-.1-.3-.4v-.4l2.7-2h.2l.1-.1h.5l.3.1v8Zm7.7-5a46 46 0 0 1-.2 3.4l-.5 1c-.3.4-.6.6-1 .8l-1.3.2c-.6 0-1 0-1.4-.2l-1-.7a3 3 0 0 1-.5-1 45.5 45.5 0 0 1 0-4.6l.5-1.2 1-.7 1.4-.2c.5 0 1 0 1.3.2l1 .7.5 1.1.2 1.3Zm-5 2.1c0 .8.2 1.3.5 1.7.4.4.8.5 1.5.5.6 0 1-.1 1.4-.5.3-.4.5-1 .5-1.7a45.5 45.5 0 0 0 0-2c0-.8-.2-1.3-.5-1.7-.4-.4-.8-.5-1.4-.5-.7 0-1.1.1-1.5.5-.3.4-.5 1-.5 1.7a46 46 0 0 0 0 2Zm9.9-5.9.2-.2.3-.1H308.2V263l-4 9.7-.2.3-.3.1H303v-.3l4-9.8Zm3 7c.1.3.3.6.7.8.3.2.7.3 1.2.3h.7c.3-.1.5-.2.6-.4l.5-.5.1-.8a1.7 1.7 0 0 0-.6-1.3c-.1-.2-.3-.3-.6-.3a2.5 2.5 0 0 0-1.4 0 2 2 0 0 0-.5.2l-.3.2-.3.1h-.8v-.3l.3-4v-.2l.3-.1h4.2l.3.1V264.6H310.8l-.2 2.2.5-.2.9-.1c.4 0 .8 0 1.2.2a2.7 2.7 0 0 1 1.8 2.6c0 .4 0 .8-.2 1.2a2.7 2.7 0 0 1-1.6 1.4c-.4.2-.8.2-1.2.2a4 4 0 0 1-1.2-.1l-1-.5-.6-.7a2 2 0 0 1-.2-1v-.2h1v.2Z" fill="#9585A3"/><path d="M353.8 254v5" stroke="#9585A3" stroke-miterlimit="10"/><path d="m345.6 271.7-.1.2-.3.1h-.5l-.2-.1v-6.8l-2 1.4-.3.1-.2-.1-.3-.4v-.4l2.7-2h.1l.2-.1h.5l.3.1v8Zm7.7-5a46 46 0 0 1-.2 3.4c-.1.4-.3.8-.6 1-.2.4-.5.6-.9.8l-1.4.2c-.5 0-1 0-1.3-.2l-1-.7a3 3 0 0 1-.5-1 45.5 45.5 0 0 1 0-4.6l.5-1.2 1-.7 1.3-.2c.6 0 1 0 1.4.2l1 .7.5 1.1.2 1.3Zm-5 2.1c0 .8.2 1.3.5 1.7.3.4.8.5 1.4.5.7 0 1.1-.1 1.5-.5.3-.4.5-1 .5-1.7a45.5 45.5 0 0 0 0-2c0-.8-.2-1.3-.5-1.7-.4-.4-.8-.5-1.5-.5-.6 0-1 .1-1.4.5-.3.4-.5 1-.5 1.7a46 46 0 0 0 0 2Zm9.9-5.9.1-.2.4-.1H359.3V263l-4 9.7-.2.3-.4.1h-.5v-.3l4-9.8Zm4 3.5h.5a3.3 3.3 0 0 1 2.2.8c.3.2.5.5.6.9.2.3.3.7.3 1.1l-.3 1.2-.6.9a3 3 0 0 1-1 .6l-1.2.2c-.5 0-.9 0-1.3-.2-.4-.1-.7-.4-1-.6a2.8 2.8 0 0 1-.6-3.3 5.1 5.1 0 0 1 .6-1l2.2-3.2.2-.1.2-.1H363.8l.1.3v.1l-1.7 2.4Zm-1.5 2.8.1.7a1.9 1.9 0 0 0 1.9 1.1l.8-.1.6-.4.4-.6a1.7 1.7 0 0 0 0-1.4 1.7 1.7 0 0 0-1-1 2 2 0 0 0-.8 0h-.9a1.8 1.8 0 0 0-1.1 1.7Z" fill="#9585A3"/><path d="M404.6 254v5" stroke="#9585A3" stroke-miterlimit="10"/><path d="m396.6 271.7-.1.2-.2.1h-.5l-.3-.1v-6.8l-2 1.4-.2.1-.3-.1-.2-.4-.1-.2.1-.2 2.6-2h.2l.2-.1h.5l.2.1v8Zm7.7-5a46 46 0 0 1-.2 3.4c0 .4-.3.8-.5 1-.3.4-.6.6-1 .8l-1.3.2c-.6 0-1 0-1.4-.2l-1-.7a3 3 0 0 1-.5-1 45.5 45.5 0 0 1 0-4.6c.1-.5.3-.9.6-1.2.2-.3.5-.5 1-.7l1.3-.2c.5 0 1 0 1.3.2l1 .7.5 1.1c.2.4.2.8.2 1.3Zm-5 2.1c0 .8.2 1.3.5 1.7.4.4.9.5 1.5.5s1-.1 1.4-.5c.3-.4.5-1 .5-1.7a45.5 45.5 0 0 0 0-2c0-.8-.2-1.3-.5-1.7-.3-.4-.8-.5-1.4-.5-.6 0-1.1.1-1.5.5-.3.4-.4 1-.5 1.7a46 46 0 0 0 0 2Zm9.9-5.9.2-.2.3-.1H410.3V263l-4 9.7c0 .1 0 .2-.2.3l-.3.1H405.2v-.3l4-9.8Zm7 .7.3.1V264.8l-2.7 7-.2.1-.2.1h-.8v-.4l2.7-7H411V263.7l.2-.1h5Z" fill="#9585A3"/><path d="M455.5 254v5" stroke="#9585A3" stroke-miterlimit="10"/><path d="m447 271.7-.1.2-.2.1h-.5l-.3-.1v-6.8l-2 1.4-.2.1-.3-.1-.3-.4v-.2l.1-.2 2.6-2h.2l.2-.1h.5l.2.1v8Zm7.7-5a46 46 0 0 1-.2 3.4l-.5 1c-.3.4-.6.6-1 .8l-1.3.2c-.6 0-1 0-1.4-.2l-1-.7a3 3 0 0 1-.5-1 45.5 45.5 0 0 1 0-4.6c.1-.5.3-.9.6-1.2.2-.3.5-.5.9-.7l1.4-.2c.5 0 1 0 1.3.2l1 .7.5 1.1c.2.4.2.8.2 1.3Zm-5 2.1c0 .8.2 1.3.5 1.7.4.4.8.5 1.5.5.6 0 1-.1 1.4-.5.3-.4.5-1 .5-1.7a45.5 45.5 0 0 0 0-2c0-.8-.2-1.3-.5-1.7-.3-.4-.8-.5-1.4-.5-.7 0-1.1.1-1.5.5-.3.4-.4 1-.5 1.7a46 46 0 0 0 0 2Zm9.9-5.9.2-.2.3-.1H460.7V263l-4 9.7c0 .1 0 .2-.2.3l-.3.1H455.6v-.3l4-9.8Zm2 6.7c0-.4 0-.8.2-1.1.2-.4.5-.7.9-.9-.3-.2-.6-.5-.7-.8-.2-.3-.3-.6-.3-1a2.1 2.1 0 0 1 .8-1.6l.9-.5a3.2 3.2 0 0 1 2.2 0c.4 0 .7.3 1 .5l.5.7a2 2 0 0 1 0 2l-.7.7c.3.2.6.5.8.9.2.3.3.7.3 1.1 0 .4 0 .7-.2 1-.1.3-.3.6-.6.8a3.1 3.1 0 0 1-2.2.7c-.4 0-.8 0-1.2-.2l-1-.5-.6-.8-.2-1Zm1 0c0 .2 0 .4.2.6l.4.4c.1.1.3.3.6.3l.7.1h.8l.6-.4.3-.4a1.2 1.2 0 0 0 0-1.1c0-.2-.2-.4-.3-.5l-.6-.3-.8-.1a2.3 2.3 0 0 0-1.3.4l-.4.5-.2.5Zm.3-3.8.1.5c0 .2.2.3.3.4l.6.3.6.1h.7l.5-.4a1.2 1.2 0 0 0 .5-.9c0-.1 0-.3-.2-.5l-.3-.4-.5-.2-.7-.1h-.6l-.6.3-.3.4-.1.5Z" fill="#9585A3"/><path d="M506.4 254v5" stroke="#9585A3" stroke-miterlimit="10"/><path d="m498 271.7-.2.2-.2.1h-.5l-.2-.1-.1-.2V265l-2 1.4-.2.1-.2-.1-.3-.4s-.1-.1 0-.2v-.2l2.6-2h.2l.2-.1h.5l.2.1.1.2v7.8Zm7.7-5a46 46 0 0 1-.2 3.4c-.2.4-.3.8-.6 1-.2.4-.6.6-1 .8l-1.3.2c-.5 0-1 0-1.4-.2-.3-.2-.7-.4-.9-.7a3 3 0 0 1-.6-1 45.5 45.5 0 0 1 0-4.6c.2-.5.3-.9.6-1.2.2-.3.6-.5 1-.7l1.3-.2c.5 0 1 0 1.4.2.3.2.7.4.9.7.3.3.4.7.6 1.1l.2 1.3Zm-5 2.1c0 .8.2 1.3.5 1.7.3.4.8.5 1.4.5.6 0 1.1-.1 1.4-.5.3-.4.5-1 .5-1.7a45.5 45.5 0 0 0 0-2c0-.8-.2-1.3-.5-1.7-.3-.4-.8-.5-1.4-.5-.6 0-1.1.1-1.4.5-.3.4-.5 1-.5 1.7a46 46 0 0 0 0 2Zm9.8-5.9.2-.2.4-.1h.5l.1.2v.1l-4 9.7-.2.3-.4.1h-.5l-.1-.3 4-9.8Zm5.3 6.2H515.5l-1.2-.1a2.8 2.8 0 0 1-1.6-1.4c-.2-.4-.3-.8-.3-1.3a2.6 2.6 0 0 1 1-2 3.1 3.1 0 0 1 2-.8c.5 0 1 0 1.3.2a2.7 2.7 0 0 1 1.6 1.5l.2 1.1-.1.6a4.1 4.1 0 0 1-.6 1.2l-.3.4-2.2 3.3-.1.1-.2.1H514v-.4l1.7-2.5Zm1.5-2.8a1.7 1.7 0 0 0-.5-1.2l-.6-.4-.7-.1h-.8l-.6.5-.4.5-.1.7.1.7.4.6a2 2 0 0 0 1.4.5c.2 0 .5 0 .7-.2l.6-.3.4-.6.1-.7Z" fill="#9585A3"/><path d="M557.2 254v5" stroke="#9585A3" stroke-miterlimit="10"/><path d="m546 271.7-.2.2-.2.1h-.5l-.2-.1-.1-.2V265l-2 1.4-.2.1-.2-.1-.3-.4s-.1-.1 0-.2v-.2l2.6-2h.2l.2-.1h.5l.2.1.1.2v7.8Zm7.7-5a46 46 0 0 1-.2 3.4c-.2.4-.3.8-.6 1-.2.4-.6.6-1 .8l-1.3.2c-.5 0-1 0-1.4-.2-.3-.2-.7-.4-.9-.7a3 3 0 0 1-.6-1 45.5 45.5 0 0 1 0-4.6c.2-.5.3-.9.6-1.2.2-.3.6-.5 1-.7l1.3-.2c.5 0 1 0 1.4.2l1 .7.5 1.1.2 1.3Zm-5 2.1c0 .8.2 1.3.5 1.7.3.4.8.5 1.4.5.6 0 1.1-.1 1.4-.5.3-.4.5-1 .5-1.7a45.5 45.5 0 0 0 0-2c0-.8-.2-1.3-.5-1.7-.3-.4-.8-.5-1.4-.5-.6 0-1.1.1-1.4.5-.3.4-.5 1-.5 1.7a46 46 0 0 0 0 2Zm9.8-5.9.2-.2.4-.1h.5l.1.2v.1l-4 9.7-.2.3-.4.1h-.5l-.1-.3 4-9.8Zm5.7 8.8-.1.2-.2.1h-.5l-.3-.1v-6.8l-2 1.4-.2.1-.3-.1-.2-.4-.1-.2.1-.2 2.6-2h.2l.2-.1h.5l.2.1v8Zm7.7-5a46 46 0 0 1-.2 3.4c0 .4-.3.8-.5 1-.3.4-.6.6-1 .8l-1.3.2c-.6 0-1 0-1.4-.2l-1-.7a3 3 0 0 1-.5-1 45.5 45.5 0 0 1 0-4.6c.1-.5.3-.9.6-1.2.2-.3.5-.5.9-.7l1.4-.2c.5 0 1 0 1.3.2l1 .7.5 1.1c.2.4.2.8.2 1.3Zm-5 2.1c0 .8.2 1.3.5 1.7.4.4.8.5 1.5.5.6 0 1-.1 1.4-.5.3-.4.5-1 .5-1.7a45.5 45.5 0 0 0 0-2c0-.8-.2-1.3-.5-1.7-.3-.4-.8-.5-1.4-.5-.7 0-1.1.1-1.5.5-.3.4-.4 1-.5 1.7a46 46 0 0 0 0 2Z" fill="#9585A3"/><path d="M608 254v5" stroke="#9585A3" stroke-miterlimit="10"/><path d="M598 271.7v.2l-.3.1h-.5l-.2-.1-.1-.2V265l-2 1.4-.2.1-.2-.1-.3-.4v-.4l2.6-2h.2l.2-.1h.5l.2.1.1.2v7.8Zm7.8-5a46 46 0 0 1-.2 3.4c-.1.4-.3.8-.6 1-.2.4-.5.6-1 .8l-1.3.2c-.5 0-1 0-1.3-.2l-1-.7a3 3 0 0 1-.5-1 45.5 45.5 0 0 1 0-4.6c0-.5.3-.9.5-1.2l1-.7 1.3-.2c.6 0 1 0 1.4.2l1 .7.5 1.1.2 1.3Zm-5 2.1c0 .8.2 1.3.5 1.7.3.4.8.5 1.4.5.7 0 1.1-.1 1.4-.5.4-.4.5-1 .6-1.7a45.5 45.5 0 0 0 0-2c0-.8-.2-1.3-.6-1.7-.3-.4-.7-.5-1.4-.5-.6 0-1 .1-1.4.5-.3.4-.5 1-.5 1.7a46 46 0 0 0 0 2Zm9.9-5.9.1-.2.4-.1H611.8V263l-4 9.7-.2.3-.4.1h-.5v-.3l4-9.8Zm5.6 8.8v.2l-.3.1h-.5l-.2-.1-.1-.2V265l-2 1.4-.2.1-.2-.1-.3-.4s-.1-.1 0-.2v-.2l2.6-2h.2l.2-.1h.5l.2.1.1.2v7.8Zm5 0v.2l-.3.1h-.5l-.2-.1v-6.8l-2 1.4-.3.1-.2-.1-.3-.4v-.2l.1-.2 2.6-2h.2l.1-.1h.5l.3.1v8Z" fill="#9585A3"/><path d="M549.6 95.3h5.4v159.2H70V90.3l5.4 3.8 5.5.4 5.4-.2 5.5.1 5.4.1 5.5-.1 5.4-.2 5.5.4 5.4.5h5.5l5.4-1.3 5.5-1.4 5.4 2.6 5.5.2h5.4l5.5-.1 5.4-.2 5.5.2 5.4.2H190l5.4-.9 5.5-2.4 5.4 3.1h5.5l5.4.2 5.5-.4 5.4.3 5.5-.3 5.4.3 5.5.1 5.4-.3 5.5.3 5.4-2.1 5.5-7.1 5.4 3.7 5.5-5.8 5.4 3.6 5.5 2.3 5.4.9 5.5-1 5.4.3 5.5.1 5.4-.5 5.5-1.3 5.4-.6 5.5-.3 5.4 3 5.5-.4 5.4.1 5.5-.2 5.4-.6 5.5-3.3h10.9l5.4 2.8 5.5 1.1 5.4-4.6 5.5.8 5.4 3.8 5.5.6 5.4.1h5.5l5.4.2h10.9l5.5-.2 5.4 1.8 5.5 2 5.4-1 5.5-.6 5.4 2.4 5.5-.4 5.4.4 5.5-.2H495l5.4.2 5.5.2 5.4-.5 5.5-.4 5.4-1.2 5.5-.6 5.4 2.6h5.5l5.4-.1h5.5Z" fill="#B85586"/><path d="M70 254h556" stroke="#9585A3" stroke-miterlimit="10" stroke-linecap="round"/><rect x="342.5" y="165.5" width="445" height="186" rx="3.5" fill="#fff" stroke="#C6BECF"/><circle cx="361" cy="187" r="4" fill="#F55459"/><path d="M379.2 209.1H375l-.6 1.6-.2.2-.3.1H373.3l-.1-.3v-.1l3-7.6s0-.2.2-.3l.3-.1h.7l.4.1.2.3 3 7.6v.1l-.1.2-.2.1h-.5l-.3-.1-.1-.2-.6-1.6Zm-3.8-1h3.3l-1.6-4.4-1.7 4.3Zm9.6 3c-.5 0-.9 0-1.2-.2l-.7-.6V213.2H382.2l-.1-.2v-8.1l.3-.1h.7v.7l.7-.6c.3-.2.7-.3 1.2-.3a2.6 2.6 0 0 1 2.5 1.7 3.6 3.6 0 0 1 .2 1.6v.4c0 .4 0 .8-.2 1.2l-.6.9a2.6 2.6 0 0 1-1.9.7Zm-1.9-3.7a7.6 7.6 0 0 0 0 1c0 .5.2 1 .6 1.2.3.3.7.5 1.2.5s1-.2 1.2-.5c.3-.4.5-.8.5-1.4v-.7c0-.5-.2-1-.5-1.3-.3-.4-.7-.5-1.2-.5s-1 .1-1.2.4c-.4.3-.5.7-.6 1.3Zm8.6-2.8c.4 0 .8.1 1.1.3l.7.6v-2.7l.1-.2.2-.1h.7l.1.3v8.1l-.3.1h-.5l-.2-.1V210.3l-.8.6-1.1.2c-.4 0-.8 0-1.1-.2l-.8-.5c-.3-.3-.5-.6-.6-1a3.6 3.6 0 0 1-.3-1.5v-.4c0-.5.1-.9.3-1.2a2.7 2.7 0 0 1 1.4-1.5l1-.2Zm1.8 3.8a7.3 7.3 0 0 0 0-1c0-.5-.2-1-.5-1.3-.3-.3-.7-.4-1.2-.4-.6 0-1 .1-1.3.5-.3.3-.4.8-.5 1.3v.7c0 .6.2 1 .5 1.4.3.3.7.5 1.3.5a1.7 1.7 0 0 0 1.7-1.7Zm2.6-1.1a3.2 3.2 0 0 1 .8-1.9l.9-.6 1-.2c.5 0 .9.1 1.2.3.4 0 .6.3.9.6.2.2.4.5.5 1 .2.3.2.7.2 1.2v.5l-.3.1h-4.1v.1c0 .5.2 1 .5 1.3.3.2.7.4 1.2.4.4 0 .7 0 1-.2l.5-.4.2-.1h.8v.2c0 .2 0 .3-.2.5 0 .2-.2.4-.4.5a3 3 0 0 1-.8.4l-1.1.1c-.4 0-.8 0-1.1-.2l-.9-.6a3 3 0 0 1-.5-.8c-.2-.4-.3-.7-.3-1.1v-1.1Zm1 0h3.5c0-.5-.2-.9-.5-1.2-.3-.3-.7-.4-1.2-.4a1.7 1.7 0 0 0-1.2.4l-.4.5-.1.7Zm8.2 1.3-1.7 2.2-.1.1-.3.1h-.7l-.1-.3v-.1l2.2-2.8-2-2.6v-.4h1l.2.2 1.6 2 1.5-2 .2-.2h1v.4l-2 2.6 2.1 2.8V210.9l-.2.1H407v-.2l-1.8-2.2Zm8.5.3v.4l.2.4.3.2h1.2l.2.2.1.2v.4l-.1.2-.2.1h-.8c-.7 0-1.2-.2-1.5-.5-.3-.4-.5-1-.5-1.6v-3.1h-.9l-.2-.1v-.8l.2-.1h1v-2.2l.3-.1H413.7l.1.3v2h1.8V205.8h-1.8v3.2Zm8.7 1.8v.2l-.3.1h-.4l-.3-.1V207.5c0-.6-.2-1-.5-1.4-.3-.3-.7-.4-1.2-.4s-1 .1-1.3.4c-.3.3-.4.8-.4 1.4v3.2l-.1.2-.2.1h-.5l-.2-.1-.1-.2v-7.9l.1-.2.2-.1h.7v3l.8-.6c.3-.2.7-.3 1.2-.3l1 .2c.3.2.6.3.8.6l.6.8.1 1.1v3.4Zm1.3-1.3a1.8 1.8 0 0 1 .8-1.4l.7-.4a6 6 0 0 1 1-.3l1.7-.2v-.2c0-.4-.1-.7-.4-1l-1-.2c-.4 0-.6 0-.8.2a2 2 0 0 0-.5.4l-.1.2H424.6l-.2-.1-.1-.2c0-.2 0-.4.2-.6l.5-.5a3 3 0 0 1 1.6-.5c.4 0 .7 0 1 .2l.8.5.5.7.2 1v3.7l-.1.2-.2.1h-.5l-.2-.1-.1-.2v-.5l-.3.4-.6.3a3 3 0 0 1-1.2.2l-.8-.1-.7-.4-.4-.5-.2-.7Zm2.3.7.7-.1.7-.4.4-.6.1-.7v-.3l-1.4.2c-.5.1-1 .2-1.2.4-.3.2-.5.4-.5.7l.1.3.2.2.3.2h.6Zm6.3-1.2v.4l.2.4.3.2h1.1l.3.2v.8l-.3.1h-.7c-.7 0-1.2-.2-1.5-.5-.3-.4-.5-1-.5-1.6v-3.1h-.9l-.2-.1-.1-.2V204.9l.3-.1h1v-2.2l.2-.1h.7l.1.3v2h1.8V205.8h-1.8v3.2Zm7.5 0v.4l.2.4.3.2h1.1l.3.2v.8l-.3.1h-.7c-.7 0-1.2-.2-1.5-.5-.4-.4-.5-1-.5-1.6v-3.1h-.9l-.2-.1-.1-.2V204.9l.3-.1h.9v-2.2l.3-.1h.7v2.3h1.8l.1.3V205.7h-1.8v3.2Zm6.3-4.1h.2l.1.3V205.7h-1c-.9 0-1.4.6-1.4 1.5v3.7l-.3.1h-.4l-.3-.1v-6l.3-.1H444l.1.3v.4l.6-.6.9-.1h.6Zm2.5 5.9-.1.2-.2.1h-.5l-.2-.1-.1-.2v-5.8l.3-.1h.7V210.8Zm.1-7.2-.1.2-.2.1H447.6l-.1-.3V202.6l.3-.1H448.7l.1.3v.7Zm1.4 4c0-.5 0-.9.2-1.2a2.7 2.7 0 0 1 1.5-1.5l1-.2c.5 0 .9.1 1.2.3l.7.6V204.9l.3-.1h.7v6.1c0 .8-.2 1.5-.7 2-.4.5-1.1.7-2 .7l-1.3-.1-.9-.5a2 2 0 0 1-.4-.5l-.2-.6v-.3H451.3l.2.3v.1l.3.3.5.2.7.1h.7l.6-.3.4-.5.2-.7v-.8l-.7.6-1.2.2c-.4 0-.7 0-1-.2-.4-.1-.6-.3-.9-.5l-.6-1a3.6 3.6 0 0 1-.2-1.5v-.4Zm4.6 0c0-.6-.2-1-.6-1.4-.3-.3-.7-.4-1.2-.4s-1 .1-1.2.5c-.3.3-.5.8-.5 1.3v.7c0 .6.2 1 .5 1.4.3.3.7.5 1.2.5s1-.2 1.3-.5c.3-.3.4-.7.5-1.3a6.6 6.6 0 0 0 0-.9Zm2.6 0c0-.5 0-.9.2-1.2a2.7 2.7 0 0 1 1.4-1.5l1-.2c.6 0 1 .1 1.3.3l.6.6v-.4l.1-.2.3-.1H462.9l.1.3v5.8c0 .8-.2 1.5-.7 2-.4.5-1.2.7-2.1.7l-1.2-.1-.9-.5a2 2 0 0 1-.5-.5l-.1-.6v-.3H458.4l.1.3.1.1.3.3.5.2.7.1h.7l.6-.3.4-.5.1-.7v-.8l-.6.6-1.2.2c-.4 0-.8 0-1-.2l-1-.5-.5-1a3.6 3.6 0 0 1-.3-1.5v-.4Zm4.5 0c0-.6-.2-1-.5-1.4-.3-.3-.7-.4-1.2-.4s-1 .1-1.3.5c-.3.3-.4.8-.5 1.3v.7c0 .6.2 1 .6 1.4.3.3.7.5 1.2.5s1-.2 1.2-.5c.3-.3.5-.7.5-1.3a6.6 6.6 0 0 0 0-.9Zm2.6-.2a3.2 3.2 0 0 1 .9-1.9l.8-.6 1-.2c.5 0 .9.1 1.2.3.4 0 .7.3 1 .6l.5 1 .2 1.2v.3l-.1.2-.3.1h-4v.1c0 .5 0 1 .4 1.3.3.2.7.4 1.2.4.4 0 .8 0 1-.2l.5-.4.2-.1h.8v.2l-.1.5-.5.5a3 3 0 0 1-.8.4l-1.1.1c-.4 0-.8 0-1-.2-.4-.1-.7-.3-1-.6a3 3 0 0 1-.5-.8l-.3-1.1v-1.1Zm1.1 0h3.4c0-.5-.2-.9-.5-1.2-.3-.3-.7-.4-1.2-.4a1.7 1.7 0 0 0-1.2.4l-.4.5v.7Zm9-2.5h.3l.1.3v.4l-.1.2H474c-1 0-1.4.6-1.4 1.5v3.5l-.1.2-.2.1h-.5l-.2-.1-.1-.2V205l.1-.2.2-.1h.7l.1.3v.4c.2-.3.3-.5.6-.6l.8-.1h.7Zm5 4.5-.1-.4a1 1 0 0 0-.4-.3l-.7-.2-.9-.2c-.6-.1-1-.3-1.3-.6a1.7 1.7 0 0 1 .9-2.8l1-.2c.4 0 .7 0 1 .2.3 0 .6.2.8.3l.4.5.2.4v.2l-.3.1H479.6l-.2-.1c0-.2-.2-.3-.4-.4a2 2 0 0 0-.9-.1c-.4 0-.7 0-.9.2-.2.1-.3.3-.3.5v.4l.4.3.6.1a162.7 162.7 0 0 0 1.8.5l.6.5.3.5v.6l-.1.7-.5.6-.8.4-1 .1a3.5 3.5 0 0 1-1.8-.5 2 2 0 0 1-.6-.4 1 1 0 0 1-.1-.5v-.2l.3-.1H476.6l.2.1.5.4.9.2a2.2 2.2 0 0 0 1-.2l.3-.3v-.3Zm6.2-1 .2.8.4.6.6.3h.6l1-.1.6-.7.1-.3H490.2v.3l-.1.6a2 2 0 0 1-.5.6 3 3 0 0 1-2 .7 3 3 0 0 1-1.2-.2 2.6 2.6 0 0 1-1.4-1.5c-.2-.3-.2-.7-.2-1a25.3 25.3 0 0 1 0-1c0-.4 0-.7.2-1l.5-1 .9-.5a3 3 0 0 1 1.2-.3 3 3 0 0 1 2 .7l.5.7.2.6-.1.2-.3.1h-.6l-.1-.3c-.2-.3-.4-.6-.7-.7a2 2 0 0 0-1.5-.1l-.6.3a2 2 0 0 0-.6 1.4v.8Zm9-3.5h.3V205.8H494.2c-1 0-1.4.6-1.4 1.5v3.5l-.1.2-.2.1h-.5l-.2-.1-.1-.2v-5.8l.3-.1h.7v.7c.2-.3.4-.5.7-.6l.8-.1h.7Zm2.5 5.9v.2l-.3.1h-.4l-.3-.1v-6l.3-.1H497.2l.1.3v5.6Zm.1-7.2v.2l-.3.1H496.2v-1.2l.2-.1H497.3l.1.3v.7Zm3.4 5.4v.4c0 .2 0 .3.2.4l.3.2h1.1l.2.2.1.2V210.9l-.3.1h-.8c-.6 0-1.2-.2-1.5-.5-.3-.4-.4-1-.4-1.6v-3.1h-1l-.1-.1-.1-.2V204.9l.3-.1h.9v-2.2l.3-.1h.7v2.3h1.8l.1.3V205.7h-1.8v3.2Zm4.2 1.8v.2l-.3.1h-.4l-.3-.1v-6l.3-.1H504.9l.1.3v5.6Zm.1-7.2v.2l-.3.1H504v-1.2l.2-.1H505l.1.3v.7Zm2.5 4.8.2.8.4.6.6.3h.5l1-.1.7-.7.1-.3H512v.3l-.1.6a2 2 0 0 1-.6.6 3 3 0 0 1-2 .7 3 3 0 0 1-1.1-.2 2.6 2.6 0 0 1-1.4-1.5c-.2-.3-.2-.7-.3-1a25.3 25.3 0 0 1 0-1c0-.4.1-.7.3-1l.5-1c.3-.2.5-.4.9-.5a3 3 0 0 1 1.1-.3 3 3 0 0 1 2 .7l.6.7.1.6v.2l-.3.1h-.6l-.1-.3c-.2-.3-.4-.6-.7-.7a2 2 0 0 0-1.6-.1l-.5.3a2 2 0 0 0-.6 1.4v.8Zm5.4 1.1a1.8 1.8 0 0 1 .8-1.4l.7-.4a6 6 0 0 1 1-.3l1.7-.2v-.2c0-.4-.1-.7-.4-1l-1-.2c-.4 0-.6 0-.8.2a2 2 0 0 0-.5.4l-.1.2h-.6l-.3-.1v-.2c0-.2 0-.4.2-.6 0-.2.3-.3.5-.5a3 3 0 0 1 1.6-.5c.3 0 .7 0 1 .2l.8.5.5.7.2 1v3.7l-.1.2-.2.1h-.5l-.2-.1-.1-.2v-.5l-.3.4-.6.3a3 3 0 0 1-1.2.2l-.8-.1-.7-.4-.4-.5-.2-.7Zm2.2.7.8-.1.6-.4c.2-.2.4-.4.4-.6l.2-.7v-.3l-1.4.2c-.5.1-1 .2-1.2.4-.3.2-.5.4-.5.7v.3l.3.2.3.2h.5Zm6 .6-.2.2-.2.1h-.4l-.3-.1V202.6l.3-.1H521l.1.3v7.9Z" fill="#9386A0"/><path d="M375.5 186a31 31 0 0 0 0 2.7c0 1 .3 1.6.8 2.2.5.5 1.2.8 2.2.8.5 0 1 0 1.3-.2l.8-.5.6-.7.2-.8.2-.2.3-.1h.7l.2.1.2.2-.3 1.2-.8 1.2-1.4.9a5 5 0 0 1-2 .4 4.4 4.4 0 0 1-3.3-1.2 4 4 0 0 1-.9-1.4 42.3 42.3 0 0 1-.4-4.6c0-.6.2-1.2.4-1.8.2-.5.5-1 1-1.3.3-.4.8-.7 1.3-1 .6-.1 1.2-.3 1.9-.3a5 5 0 0 1 2 .4 4.1 4.1 0 0 1 2.2 2.1l.3 1.2-.2.2-.2.1h-1l-.2-.3-.2-.8a2 2 0 0 0-.6-.7l-.8-.5c-.4-.2-.8-.2-1.3-.2-1 0-1.7.3-2.2.8-.5.6-.8 1.3-.8 2.2Zm13.6-1.3.3.1.1.3v.5l-.1.3-.3.2h-1c-1.2 0-1.8.6-1.8 1.8v4.7l-.1.3-.3.1h-.6l-.3-.1-.1-.3V185l.1-.3.3-.1h.6l.3.1.1.3v.5l.8-.7 1.2-.2h.8Zm3.3 7.9s0 .2-.2.3l-.3.1h-.5l-.4-.1v-8.1l.4-.1h.5l.3.1.2.3v7.5Zm.1-9.6v.3l-.4.1h-1l-.2-.1-.1-.3v-1.2l.4-.2h.9c.1 0 .2 0 .3.2l.1.3v.9Zm4.5 7.2v.6l.2.4c.1.2.2.3.4.3l.7.1h.8c.2 0 .3 0 .3.2.1 0 .2.1.2.3v.5s0 .2-.2.3l-.3.1h-1c-.9 0-1.6-.2-2-.7-.4-.5-.6-1.2-.6-2.1v-4.1h-1.2c-.1 0-.2 0-.3-.2l-.1-.3v-.5l.1-.3.3-.1h1.2V182l.1-.3.3-.2h.6c.1 0 .2 0 .3.2l.2.3v2.6h2l.3.1.1.3v.5l-.1.3-.3.2h-2v4.1Zm5.6 2.4v.3l-.4.1h-.6l-.3-.1-.1-.3V185l.1-.3.3-.1h.6l.3.1.1.3v7.5Zm.2-9.6-.1.3-.3.1h-1l-.2-.1-.2-.3v-1l.2-.2c0-.1.1-.2.3-.2h.9s.2 0 .3.2l.1.3v.9Zm3.3 6.4c0 .4.1.8.3 1 .1.4.3.6.5.8l.7.5h.8c.5 0 1 0 1.3-.2.4-.2.7-.5.9-1l.2-.3.3-.1h.5l.3.1.1.3c0 .3 0 .6-.3.9-.1.3-.3.6-.6.8a4 4 0 0 1-2.7 1 4 4 0 0 1-1.6-.3 3.5 3.5 0 0 1-1.9-2l-.2-1.4a27 27 0 0 1 0-1.3c0-.5.1-1 .3-1.4.2-.5.4-.9.7-1.2.3-.3.7-.6 1.2-.8a4 4 0 0 1 1.5-.3 4 4 0 0 1 2.7 1c.3.2.5.5.6.8l.3.8-.1.3-.3.2h-.5l-.3-.1-.2-.4a2 2 0 0 0-.9-1 2.8 2.8 0 0 0-2.1 0 2 2 0 0 0-.7.4 2.6 2.6 0 0 0-.8 1.8v1.1Zm7.2 1.5a2.3 2.3 0 0 1 1-2l1-.5a8 8 0 0 1 1.3-.3l2.3-.4v-.2c0-.5-.2-1-.6-1.2a2 2 0 0 0-1.3-.4c-.5 0-.8 0-1 .3-.3.1-.5.3-.7.6l-.2.1H414l-.1-.3c0-.3.1-.5.3-.8l.6-.6a4 4 0 0 1 2.2-.7c.5 0 1 0 1.3.2l1 .6c.4.3.6.6.8 1l.2 1.4v4.9l-.1.3-.3.1h-.6l-.3-.1-.1-.3v-.7l-.5.6-.7.3a4 4 0 0 1-1.6.4l-1.1-.2a3 3 0 0 1-1-.5l-.5-.7-.2-.9Zm3 .9c.4 0 .7 0 1-.2l.8-.5c.3-.2.5-.4.6-.7l.2-1v-.4l-2 .3-1.5.5c-.4.3-.6.6-.6 1v.3l.3.3.5.3h.7Zm7.8.8-.1.3-.3.1h-.6l-.3-.1-.1-.3v-10.8l.4-.2h.6s.2 0 .3.2l.1.3v10.5Zm10-11a4.5 4.5 0 0 1 3 1.1l.7 1 .3.8-.1.3h-1.2l-.2-.3-.3-.4a2.7 2.7 0 0 0-1.2-.9l-1-.1a3.3 3.3 0 0 0-1.6.4c-.3.1-.4.3-.6.5l-.2.7.2.7.6.6 1 .4a43.5 43.5 0 0 0 3.1 1c.4.1.8.4 1 .6.3.2.5.5.6.8.2.3.2.7.2 1.1 0 .5 0 1-.3 1.3a3 3 0 0 1-.9 1c-.3.3-.8.6-1.3.7a6 6 0 0 1-3.5 0c-.5-.2-1-.4-1.3-.7l-1-1c-.2-.3-.3-.7-.3-1l.1-.3h1.2s.2.1.2.3l.3.5a2.7 2.7 0 0 0 1.4.9l1.1.1 1-.1c.4 0 .7-.2 1-.4l.6-.6.2-.7c0-.3 0-.5-.3-.7l-.7-.6-1.2-.4a36.5 36.5 0 0 0-2.9-1c-.4-.1-.7-.3-1-.6l-.4-.8-.2-1a2.9 2.9 0 0 1 1-2.2c.3-.3.7-.5 1.2-.7.4-.2 1-.3 1.6-.3Zm8.4 8.6v.6l.2.4c.1.2.3.3.4.3l.7.1h.9c.1 0 .2 0 .3.2l.1.3v.5l-.1.3-.3.1h-1c-1 0-1.6-.2-2-.7-.5-.5-.7-1.2-.7-2.1v-4.1h-1.2s-.2 0-.3-.2v-1.1l.3-.1h1.2V182c0-.1 0-.2.2-.3 0-.1.1-.2.3-.2h.6s.2 0 .3.2v2.9h2.1l.3.1.1.3v.8l-.4.2h-2v4.1Zm3.6.7a2.3 2.3 0 0 1 1-2l1-.5a8 8 0 0 1 1.3-.3l2.3-.4v-.2c0-.5-.2-1-.6-1.2a2 2 0 0 0-1.3-.4c-.5 0-.8 0-1 .3-.3.1-.5.3-.7.6l-.2.1h-1.1l-.1-.3c0-.3.1-.5.3-.8l.6-.6a4 4 0 0 1 2.2-.7c.5 0 1 0 1.3.2l1 .6c.4.3.6.6.8 1l.2 1.4v4.9l-.1.3-.3.1h-.6l-.3-.1-.1-.3v-.7l-.5.6-.7.3a4 4 0 0 1-1.6.4l-1.1-.2a3 3 0 0 1-1-.5l-.5-.7-.2-.9Zm3 .9c.4 0 .7 0 1-.2l.8-.5c.3-.2.5-.4.6-.7l.2-1v-.4l-2 .3-1.5.5c-.4.3-.6.6-.6 1v.3l.3.3.5.3h.7Zm8.4-1.6v.6l.3.4c0 .2.2.3.4.3l.7.1h.8c.1 0 .2 0 .3.2.1 0 .2.1.2.3v.5s0 .2-.2.3l-.3.1h-1c-1 0-1.6-.2-2-.7-.4-.5-.6-1.2-.6-2.1v-4.1h-1.2c-.1 0-.2 0-.3-.2l-.1-.3v-.8l.4-.1h1.2V182l.1-.3.3-.2h.6c.1 0 .2 0 .3.2l.1.3v2.6h2l.4.1.1.3v.5l-.1.3-.3.2h-2v4.1Zm4.2-5 .1-.4.3-.1h.6l.3.1.1.3v4.2c0 .9.2 1.5.6 1.9.4.4.9.6 1.6.6a2 2 0 0 0 1.6-.6c.4-.4.6-1 .6-1.9v-4.5l.4-.1h.6l.3.1.1.3v7.5l-.1.3-.3.1h-.6l-.3-.1-.1-.3v-.5l-.9.7a3 3 0 0 1-1.5.4c-.5 0-1-.1-1.4-.3-.4-.2-.8-.4-1-.7-.4-.3-.6-.7-.8-1.1l-.2-1.5V185Zm14.3 5.5-.1-.5-.5-.4-.9-.2-1.2-.3c-.9-.2-1.5-.5-1.8-.9a2.3 2.3 0 0 1 .2-3.2l1-.5 1.4-.2c.5 0 1 0 1.3.2l1 .4.6.6.3.6c0 .1 0 .2-.2.3l-.3.2h-.7l-.3-.3-.6-.4-1.1-.2c-.5 0-1 0-1.2.3-.3.1-.5.4-.5.7 0 .2 0 .4.2.5l.4.3.7.3 1.2.2c.5.2 1 .3 1.2.5.4.1.6.3.8.5l.5.7.1.8c0 .3 0 .6-.2 1l-.7.7-1 .6-1.4.2a4.6 4.6 0 0 1-2.5-.7l-.6-.6-.3-.6.1-.3.3-.2h.8l.3.2c.2.3.4.5.7.6l1.2.2a3 3 0 0 0 1.3-.3l.4-.4.1-.4Z" fill="#2B1D38"/><circle cx="361" cy="249" r="4" fill="#FFC227"/><path d="M379.2 271.1H375l-.6 1.6-.2.2-.3.1H373.3l-.1-.3v-.1l3-7.6s0-.2.2-.3l.3-.1h.7l.4.1.2.3 3 7.6v.1l-.1.2-.2.1h-.5l-.3-.1-.1-.2-.6-1.6Zm-3.8-1h3.3l-1.6-4.4-1.7 4.3Zm9.6 3c-.5 0-.9 0-1.2-.2l-.7-.6V275.2H382.2l-.1-.2v-8.1l.3-.1h.7v.7l.7-.6c.3-.2.7-.3 1.2-.3a2.6 2.6 0 0 1 2.5 1.7 3.6 3.6 0 0 1 .2 1.6v.4c0 .4 0 .8-.2 1.2l-.6.9a2.6 2.6 0 0 1-1.9.7Zm-1.9-3.7a7.6 7.6 0 0 0 0 1c0 .5.2 1 .6 1.2.3.3.7.5 1.2.5s1-.2 1.2-.5c.3-.4.5-.8.5-1.4v-.7c0-.5-.2-1-.5-1.3-.3-.4-.7-.5-1.2-.5s-1 .1-1.2.4c-.4.3-.5.7-.6 1.3Zm8.6-2.8c.4 0 .8.1 1.1.3l.7.6v-2.7l.1-.2.2-.1h.7l.1.3v8.1l-.3.1h-.5l-.2-.1V272.3l-.8.6-1.1.2c-.4 0-.8 0-1.1-.2l-.8-.5c-.3-.3-.5-.6-.6-1a3.6 3.6 0 0 1-.3-1.5v-.4c0-.5.1-.9.3-1.2a2.7 2.7 0 0 1 1.4-1.5l1-.2Zm1.8 3.8a7.3 7.3 0 0 0 0-1c0-.5-.2-1-.5-1.3-.3-.3-.7-.4-1.2-.4-.6 0-1 .1-1.3.5-.3.3-.4.8-.5 1.3v.7c0 .6.2 1 .5 1.4.3.3.7.5 1.3.5a1.7 1.7 0 0 0 1.7-1.7Zm2.6-1.1a3.2 3.2 0 0 1 .8-1.9l.9-.6 1-.2c.5 0 .9.1 1.2.3.4 0 .6.3.9.6.2.2.4.5.5 1 .2.3.2.7.2 1.2v.5l-.3.1h-4.1v.1c0 .5.2 1 .5 1.3.3.2.7.4 1.2.4.4 0 .7 0 1-.2l.5-.4.2-.1h.8v.2c0 .2 0 .3-.2.5 0 .2-.2.4-.4.5a3 3 0 0 1-.8.4l-1.1.1c-.4 0-.8 0-1.1-.2l-.9-.6a3 3 0 0 1-.5-.8c-.2-.4-.3-.7-.3-1.1v-1.1Zm1 0h3.5c0-.5-.2-.9-.5-1.2-.3-.3-.7-.4-1.2-.4a1.7 1.7 0 0 0-1.2.4l-.4.5-.1.7Zm8.2 1.3-1.7 2.2-.1.1-.3.1h-.7l-.1-.3v-.1l2.2-2.8-2-2.6v-.4h1l.2.2 1.6 2 1.5-2 .2-.2h1v.4l-2 2.6 2.1 2.8V272.9l-.2.1H407v-.2l-1.8-2.2Zm8.5.3v.4l.2.4.3.2h1.2l.2.2.1.2v.4l-.1.2-.2.1h-.8c-.7 0-1.2-.2-1.5-.5-.3-.4-.5-1-.5-1.6v-3.1h-.9l-.2-.1v-.8l.2-.1h1v-2.2l.3-.1H413.7l.1.3v2h1.8V267.8h-1.8v3.2Zm8.7 1.8v.2l-.3.1h-.4l-.3-.1V269.5c0-.6-.2-1-.5-1.4-.3-.3-.7-.4-1.2-.4s-1 .1-1.3.4c-.3.3-.4.8-.4 1.4v3.2l-.1.2-.2.1h-.5l-.2-.1-.1-.2v-7.9l.1-.2.2-.1h.7v3l.8-.6c.3-.2.7-.3 1.2-.3l1 .2c.3.2.6.3.8.6l.6.8.1 1.1v3.4Zm1.3-1.3a1.8 1.8 0 0 1 .8-1.4l.7-.4a6 6 0 0 1 1-.3l1.7-.2v-.2c0-.4-.1-.7-.4-1l-1-.2c-.4 0-.6 0-.8.2a2 2 0 0 0-.5.4l-.1.2H424.6l-.2-.1-.1-.2c0-.2 0-.4.2-.6l.5-.5a3 3 0 0 1 1.6-.5c.4 0 .7 0 1 .2l.8.5.5.7.2 1v3.7l-.1.2-.2.1h-.5l-.2-.1-.1-.2v-.5l-.3.4-.6.3a3 3 0 0 1-1.2.2l-.8-.1-.7-.4-.4-.5-.2-.7Zm2.3.7.7-.1.7-.4.4-.6.1-.7v-.3l-1.4.2c-.5.1-1 .2-1.2.4-.3.2-.5.4-.5.7l.1.3.2.2.3.2h.6Zm6.3-1.2v.4l.2.4.3.2h1.1l.3.2v.8l-.3.1h-.7c-.7 0-1.2-.2-1.5-.5-.3-.4-.5-1-.5-1.6v-3.1h-.9l-.2-.1-.1-.2V266.9l.3-.1h1v-2.2l.2-.1h.7l.1.3v2h1.8V267.8h-1.8v3.2Zm7.5 0v.4l.2.4.3.2h1.1l.3.2v.8l-.3.1h-.7c-.7 0-1.2-.2-1.5-.5-.4-.4-.5-1-.5-1.6v-3.1h-.9l-.2-.1-.1-.2V266.9l.3-.1h.9v-2.2l.3-.1h.7v2.3h1.8l.1.3V267.7h-1.8v3.2Zm6.3-4.1h.2l.1.3V267.7h-1c-.9 0-1.4.6-1.4 1.5v3.7l-.3.1h-.4l-.3-.1v-6l.3-.1H444l.1.3v.4l.6-.6.9-.1h.6Zm2.5 5.9-.1.2-.2.1h-.5l-.2-.1-.1-.2v-5.8l.3-.1h.7V272.8Zm.1-7.2-.1.2-.2.1H447.6l-.1-.3V264.6l.3-.1H448.7l.1.3v.7Zm1.4 4c0-.5 0-.9.2-1.2a2.7 2.7 0 0 1 1.5-1.5l1-.2c.5 0 .9.1 1.2.3l.7.6V266.9l.3-.1h.7v6.1c0 .8-.2 1.5-.7 2-.4.5-1.1.7-2 .7l-1.3-.1-.9-.5a2 2 0 0 1-.4-.5l-.2-.6v-.3H451.3l.2.3v.1l.3.3.5.2.7.1h.7l.6-.3.4-.5.2-.7v-.8l-.7.6-1.2.2c-.4 0-.7 0-1-.2-.4-.1-.6-.3-.9-.5l-.6-1a3.6 3.6 0 0 1-.2-1.5v-.4Zm4.6 0c0-.6-.2-1-.6-1.4-.3-.3-.7-.4-1.2-.4s-1 .1-1.2.5c-.3.3-.5.8-.5 1.3v.7c0 .6.2 1 .5 1.4.3.3.7.5 1.2.5s1-.2 1.3-.5c.3-.3.4-.7.5-1.3a6.6 6.6 0 0 0 0-.9Zm2.6 0c0-.5 0-.9.2-1.2a2.7 2.7 0 0 1 1.4-1.5l1-.2c.6 0 1 .1 1.3.3l.6.6v-.4l.1-.2.3-.1H462.9l.1.3v5.8c0 .8-.2 1.5-.7 2-.4.5-1.2.7-2.1.7l-1.2-.1-.9-.5a2 2 0 0 1-.5-.5l-.1-.6v-.3H458.4l.1.3.1.1.3.3.5.2.7.1h.7l.6-.3.4-.5.1-.7v-.8l-.6.6-1.2.2c-.4 0-.8 0-1-.2l-1-.5-.5-1a3.6 3.6 0 0 1-.3-1.5v-.4Zm4.5 0c0-.6-.2-1-.5-1.4-.3-.3-.7-.4-1.2-.4s-1 .1-1.3.5c-.3.3-.4.8-.5 1.3v.7c0 .6.2 1 .6 1.4.3.3.7.5 1.2.5s1-.2 1.2-.5c.3-.3.5-.7.5-1.3a6.6 6.6 0 0 0 0-.9Zm2.6-.2a3.2 3.2 0 0 1 .9-1.9l.8-.6 1-.2c.5 0 .9.1 1.2.3.4 0 .7.3 1 .6l.5 1 .2 1.2v.3l-.1.2-.3.1h-4v.1c0 .5 0 1 .4 1.3.3.2.7.4 1.2.4.4 0 .8 0 1-.2l.5-.4.2-.1h.8v.2l-.1.5-.5.5a3 3 0 0 1-.8.4l-1.1.1c-.4 0-.8 0-1-.2-.4-.1-.7-.3-1-.6a3 3 0 0 1-.5-.8l-.3-1.1v-1.1Zm1.1 0h3.4c0-.5-.2-.9-.5-1.2-.3-.3-.7-.4-1.2-.4a1.7 1.7 0 0 0-1.2.4l-.4.5v.7Zm9-2.5h.3l.1.3v.4l-.1.2H474c-1 0-1.4.6-1.4 1.5v3.5l-.1.2-.2.1h-.5l-.2-.1-.1-.2V267l.1-.2.2-.1h.7l.1.3v.4c.2-.3.3-.5.6-.6l.8-.1h.7Zm5 4.5-.1-.4a1 1 0 0 0-.4-.3l-.7-.2-.9-.2c-.6-.1-1-.3-1.3-.6a1.7 1.7 0 0 1 .9-2.8l1-.2c.4 0 .7 0 1 .2.3 0 .6.2.8.3l.4.5.2.4v.2l-.3.1H479.6l-.2-.1c0-.2-.2-.3-.4-.4a2 2 0 0 0-.9-.1c-.4 0-.7 0-.9.2-.2.1-.3.3-.3.5v.4l.4.3.6.1a162.7 162.7 0 0 0 1.8.5l.6.5.3.5v.6l-.1.7-.5.6-.8.4-1 .1a3.5 3.5 0 0 1-1.8-.5 2 2 0 0 1-.6-.4 1 1 0 0 1-.1-.5v-.2l.3-.1H476.6l.2.1.5.4.9.2a2.2 2.2 0 0 0 1-.2l.3-.3v-.3Zm11-.2 1.4-4 .1-.2.3-.1H493V267.1l-1.8 5.6-.1.2-.2.1h-.4l-.3-.1v-.2l-1.5-4-1.4 4-.2.2-.2.1h-.4l-.2-.1-.1-.2-1.9-5.6v-.3h1v.2l1.4 4 1.5-4v-.1l.4-.1h.5v.2l1.5 4Zm3.2.3a1.8 1.8 0 0 1 .7-1.4l.8-.4a6 6 0 0 1 1-.3l1.6-.2v-.2c0-.4-.1-.7-.4-1l-1-.2c-.3 0-.6 0-.8.2a2 2 0 0 0-.5.4l-.1.2H494.5l-.2-.1-.1-.2c0-.2 0-.4.2-.6l.5-.5a3 3 0 0 1 1.6-.5c.4 0 .7 0 1 .2l.8.5.5.7.2 1V273l-.3.1h-.5l-.2-.1v-.7l-.4.4-.6.3a3 3 0 0 1-1.2.2l-.8-.1-.7-.4-.4-.5-.1-.7Zm2.2.7.8-.1.6-.4.4-.6.1-.7v-.3l-1.4.2c-.5.1-1 .2-1.2.4-.3.2-.4.4-.4.7v.3l.2.2.3.2h.6Zm8-5.3h.2V267.8h-1c-.9 0-1.4.6-1.4 1.5v3.7l-.3.1h-.4l-.2-.1-.1-.2v-5.8l.3-.1h.7v.7l.6-.6.9-.1h.6Zm6.8 5.9v.2l-.3.1h-.4l-.3-.1V269.5c0-.6-.2-1-.5-1.4-.3-.3-.7-.4-1.2-.4s-1 .1-1.3.4c-.3.3-.4.8-.4 1.4v3.2l-.1.2-.2.1h-.5l-.2-.1-.1-.2v-5.8l.3-.1h.7v.7l.8-.6c.3-.2.7-.3 1.1-.3l1 .2c.4.2.7.3.9.6l.5.8c.2.3.2.7.2 1.1v3.4Zm2.9 0-.1.2-.3.1h-.4l-.2-.1-.1-.2v-5.8l.3-.1h.7V272.8Zm0-7.2v.2l-.2.1H512.6l-.1-.3V264.6l.3-.1H513.7v1Zm7.3 7.2v.2l-.3.1h-.5l-.2-.1V269.5c0-.6-.2-1-.5-1.4-.3-.3-.7-.4-1.3-.4-.5 0-.9.1-1.2.4-.3.3-.4.8-.4 1.4v3.2l-.1.2-.3.1h-.4l-.2-.1-.1-.2v-5.8l.3-.1h.7v.7l.7-.6c.3-.2.7-.3 1.2-.3l1 .2c.4.2.7.3.9.6l.5.8c.2.3.2.7.2 1.1v3.4Zm1.5-3.2c0-.5 0-.9.2-1.2a2.7 2.7 0 0 1 1.4-1.5l1-.2c.6 0 1 .1 1.3.3l.6.6v-.4l.1-.2.3-.1H528l.1.3v5.8c0 .8-.2 1.5-.7 2-.4.5-1.1.7-2 .7l-1.3-.1-.9-.5a2 2 0 0 1-.5-.5l-.1-.6v-.3H523.6l.2.3v.1l.3.3.5.2.7.1h.7l.6-.3.4-.5.1-.7v-.8l-.6.6-1.2.2c-.4 0-.7 0-1-.2l-1-.5-.5-1a3.6 3.6 0 0 1-.2-1.5v-.4Zm4.5 0c0-.6-.1-1-.5-1.4-.3-.3-.7-.4-1.2-.4s-1 .1-1.2.5c-.3.3-.5.8-.5 1.3v.7c0 .6.2 1 .5 1.4.3.3.7.5 1.2.5s1-.2 1.2-.5c.4-.3.5-.7.5-1.3a6.6 6.6 0 0 0 0-.9Z" fill="#9386A0"/><path d="M379.6 246.3c.2 0 .3 0 .4.2l.2.2 1.7 6.4 1.6-8.9.2-.3.3-.1h.7l.2.1.1.3-2 10c0 .2 0 .4-.2.6l-.5.2h-.7c-.2 0-.4 0-.5-.2l-.3-.6-1.5-5.4-1.4 5.4-.3.6-.6.2h-.6c-.2 0-.4 0-.5-.2l-.3-.6-2-10 .1-.3.3-.1h.6l.3.1.2.3 1.7 8.9 1.7-6.4.2-.2c0-.2.2-.2.4-.2h.5Zm6.3 6.6a2.3 2.3 0 0 1 1-2l1-.5a8 8 0 0 1 1.3-.3l2.2-.4v-.2c0-.5-.2-1-.5-1.2a2 2 0 0 0-1.4-.4c-.4 0-.8 0-1 .3-.3.1-.5.3-.6.6l-.3.1h-1.1v-.3c0-.3 0-.5.2-.8l.7-.6a4 4 0 0 1 2.1-.7c.5 0 1 0 1.4.2l1 .6c.3.3.6.6.7 1 .2.4.3.9.3 1.4v4.9s0 .2-.2.3l-.3.1h-.6l-.3-.1v-1l-.5.6-.7.3a4 4 0 0 1-1.6.4l-1.2-.2a3 3 0 0 1-.9-.5l-.5-.7c-.2-.3-.2-.6-.2-.9Zm3 .9c.3 0 .7 0 1-.2l.8-.5.5-.7.2-1v-.4l-1.9.3-1.6.5c-.4.3-.6.6-.6 1l.1.3.3.3.4.3h.7Zm10.5-7.1.3.1.2.3v.5c0 .1 0 .2-.2.3l-.3.2h-.9c-1.2 0-1.8.6-1.8 1.8v4.7s0 .2-.2.3l-.3.1h-.6l-.3-.1-.1-.3V247l.1-.3.3-.1h.6l.3.1.2.3v.5l.7-.7 1.2-.2h.8Zm9.2 7.9v.3l-.4.1h-.6l-.3-.1-.1-.3v-4.3c0-.8-.2-1.4-.6-1.8-.4-.4-1-.6-1.7-.6-.6 0-1.2.2-1.6.6-.4.4-.6 1-.6 1.8v4.3l-.1.3-.3.1h-.6l-.3-.1-.2-.3V247c0-.1 0-.2.2-.3l.3-.1h.6l.3.1.1.3v.5c.2-.3.5-.5.9-.7.4-.3 1-.4 1.6-.4.5 0 1 .1 1.4.3.4.1.8.4 1 .7.4.3.6.7.8 1.1.2.4.2 1 .2 1.5v4.5Zm3.8 0-.1.3-.3.1h-.6l-.3-.1-.1-.3v-7.8l.4-.1h.6l.3.1.1.3v7.5Zm.2-9.6-.1.3-.4.1h-.9l-.3-.1v-1.5l.3-.2h1s.2 0 .3.2v1.2Zm9.6 9.6-.1.3-.3.1h-.6l-.3-.1-.1-.3v-4.3c0-.8-.2-1.4-.6-1.8-.4-.4-1-.6-1.7-.6s-1.2.2-1.6.6c-.4.4-.6 1-.6 1.8v4.3l-.1.3-.4.1h-.5l-.3-.1-.2-.3V247c0-.1 0-.2.2-.3l.3-.1h.5l.4.1v.8l1-.7c.4-.3 1-.4 1.6-.4.5 0 1 .1 1.4.3.4.1.7.4 1 .7.4.3.6.7.8 1.1l.2 1.5v4.5Zm2-4.3c0-.6 0-1.1.3-1.6a3.6 3.6 0 0 1 1.9-2l1.4-.2a3 3 0 0 1 1.6.4c.4.2.7.4.9.7v-.8l.4-.1h.6l.3.1.1.3v7.8c0 1.1-.3 2-1 2.6-.6.7-1.5 1-2.8 1a5 5 0 0 1-1.6-.2l-1.1-.6-.7-.8a2 2 0 0 1-.2-.8l.1-.3.3-.1h.8l.2.4.2.3.3.3.6.3 1 .1h1l.8-.4.5-.6.2-1v-1l-1 .7c-.4.3-.9.4-1.5.4-.5 0-1-.1-1.4-.3a3.5 3.5 0 0 1-2-2 4.9 4.9 0 0 1-.3-2v-.6Zm6 0c0-.8-.2-1.4-.6-1.8-.4-.4-1-.6-1.7-.6s-1.2.2-1.6.7c-.4.4-.7 1-.7 1.8v.9c0 .8.3 1.4.7 1.8.4.5 1 .7 1.6.7.7 0 1.3-.2 1.7-.6.4-.5.6-1 .7-1.8a9.3 9.3 0 0 0 0-1.1Zm11.4-6.7a4.5 4.5 0 0 1 3 1.1c.4.3.6.6.8 1l.3.8-.1.3h-1.2l-.2-.3-.3-.4a2.7 2.7 0 0 0-1.2-.9l-1-.1a3.3 3.3 0 0 0-1.7.4l-.5.5-.2.7.2.7.6.6 1 .4a43.5 43.5 0 0 0 3.1 1c.4.1.8.4 1 .6.3.2.5.5.6.8l.2 1.1c0 .5 0 1-.3 1.3a3 3 0 0 1-.9 1c-.3.3-.8.6-1.3.7a6 6 0 0 1-3.5 0c-.5-.2-1-.4-1.3-.7l-1-1c-.2-.3-.3-.7-.3-1l.1-.3h1.2s.2.1.2.3l.3.5a2.7 2.7 0 0 0 1.4.9l1.1.1 1-.1c.4 0 .7-.2 1-.4l.6-.6.2-.7c0-.3 0-.5-.3-.7l-.7-.6-1.2-.4a36.5 36.5 0 0 0-3-1c-.3-.1-.6-.3-.8-.6l-.5-.8-.2-1a2.9 2.9 0 0 1 1-2.2l1.1-.7c.5-.2 1-.3 1.7-.3Zm8.5 8.6v.6l.2.4c.1.2.3.3.4.3l.7.1h.9s.2 0 .3.2l.1.3v.5l-.1.3-.3.1h-1c-1 0-1.6-.2-2-.7-.5-.5-.7-1.2-.7-2.1v-4.1h-1.2s-.2 0-.3-.2v-1.1l.3-.1h1.2V244c0-.1 0-.2.2-.3 0-.1.1-.2.3-.2h.5c.2 0 .3 0 .4.2v2.9h2.1l.3.1.1.3v.8l-.4.2h-2v4.1Zm3.6.7a2.4 2.4 0 0 1 1-2l1-.5a8 8 0 0 1 1.3-.3l2.3-.4v-.2c0-.5-.2-1-.6-1.2a2 2 0 0 0-1.3-.4c-.5 0-.8 0-1 .3-.3.1-.5.3-.7.6l-.2.1h-1.1l-.1-.3c0-.3 0-.5.2-.8l.7-.6a4 4 0 0 1 2.2-.7c.5 0 .9 0 1.3.2l1 .6c.4.3.6.6.8 1l.2 1.4v4.9l-.1.3-.3.1h-.6l-.3-.1-.1-.3v-.7l-.5.6-.7.3a4 4 0 0 1-1.6.4l-1.2-.2a3 3 0 0 1-.8-.5c-.3-.2-.5-.4-.6-.7l-.2-.9Zm3 .9c.3 0 .7 0 1-.2l.8-.5.6-.7.2-1v-.4l-2 .3-1.5.5c-.4.3-.6.6-.6 1v.3l.3.3.5.3h.7Zm8.4-1.6v.6l.3.4c0 .2.2.3.4.3l.7.1h.8c.1 0 .2 0 .3.2l.1.3v.8l-.4.1h-1c-1 0-1.6-.2-2-.7-.4-.5-.6-1.2-.6-2.1v-4.1h-1.2c-.1 0-.2 0-.3-.2l-.1-.3v-.8l.4-.1h1.2V244l.1-.3.3-.2h.6c.1 0 .2 0 .3.2l.1.3v2.6h2l.4.1v1.1l-.3.2h-2v4.1Zm4.2-5 .1-.4.3-.1h.6l.3.1.1.3v4.2c0 .9.2 1.5.6 1.9.3.4.9.6 1.6.6a2 2 0 0 0 1.6-.6c.4-.4.6-1 .6-1.9v-4.5l.4-.1h.6l.3.1.1.3v7.5l-.1.3-.3.1h-.6l-.3-.1-.1-.3v-.5c-.3.2-.5.5-1 .7a3 3 0 0 1-1.4.4c-.5 0-1-.1-1.4-.3l-1.1-.7-.7-1.1-.2-1.5V247Zm14.3 5.5-.1-.5-.5-.4-.9-.2-1.2-.3c-.9-.2-1.5-.5-1.8-.9a2.3 2.3 0 0 1 .2-3.2l1-.5 1.4-.2c.5 0 1 0 1.3.2l1 .4.6.6.3.6c0 .1 0 .2-.2.3l-.3.2h-.7l-.3-.3-.6-.4-1.1-.2c-.5 0-1 0-1.2.3-.3.1-.5.4-.5.7 0 .2 0 .4.2.5l.4.3.7.3 1.2.2 1.2.5c.4.1.6.3.8.5l.5.7.1.8c0 .3 0 .6-.2 1l-.7.7-1 .6-1.4.2a4.6 4.6 0 0 1-2.5-.7l-.7-.6-.2-.6.1-.3.3-.2h.8l.3.2c.2.3.4.5.7.6l1.2.2a3 3 0 0 0 1.2-.3l.5-.4.1-.4Z" fill="#2B1D38"/><circle cx="361" cy="311" r="4" fill="#33BF9E"/><path d="M379.2 333.1H375l-.6 1.6-.2.2-.3.1H373.3l-.1-.3v-.1l3-7.6s0-.2.2-.3l.3-.1h.7l.4.1.2.3 3 7.6v.1l-.1.2-.2.1h-.5l-.3-.1-.1-.2-.6-1.6Zm-3.8-1h3.3l-1.6-4.4-1.7 4.3Zm9.6 3c-.5 0-.9 0-1.2-.2l-.7-.6V337.2H382.2l-.1-.2v-8.1l.3-.1h.7v.7l.7-.6c.3-.2.7-.3 1.2-.3a2.6 2.6 0 0 1 2.5 1.7 3.6 3.6 0 0 1 .2 1.6v.4c0 .4 0 .8-.2 1.2l-.6.9a2.6 2.6 0 0 1-1.9.7Zm-1.9-3.7a7.6 7.6 0 0 0 0 1c0 .5.2 1 .6 1.2.3.3.7.5 1.2.5s1-.2 1.2-.5c.3-.4.5-.8.5-1.4v-.7c0-.5-.2-1-.5-1.3-.3-.4-.7-.5-1.2-.5s-1 .1-1.2.4c-.4.3-.5.7-.6 1.3Zm8.6-2.8c.4 0 .8.1 1.1.3l.7.6v-2.7l.1-.2.2-.1h.7l.1.3v8.1l-.3.1h-.5l-.2-.1V334.3l-.8.6-1.1.2c-.4 0-.8 0-1.1-.2l-.8-.5c-.3-.3-.5-.6-.6-1a3.6 3.6 0 0 1-.3-1.5v-.4c0-.5.1-.9.3-1.2a2.7 2.7 0 0 1 1.4-1.5l1-.2Zm1.8 3.8a7.3 7.3 0 0 0 0-1c0-.5-.2-1-.5-1.3-.3-.3-.7-.4-1.2-.4-.6 0-1 .1-1.3.5-.3.3-.4.8-.5 1.3v.7c0 .6.2 1 .5 1.4.3.3.7.5 1.3.5a1.7 1.7 0 0 0 1.7-1.7Zm2.6-1.1a3.2 3.2 0 0 1 .8-1.9l.9-.6 1-.2c.5 0 .9.1 1.2.3.4 0 .6.3.9.6.2.2.4.5.5 1 .2.3.2.7.2 1.2v.5l-.3.1h-4.1v.1c0 .5.2 1 .5 1.3.3.2.7.4 1.2.4.4 0 .7 0 1-.2l.5-.4.2-.1h.8v.2c0 .2 0 .3-.2.5 0 .2-.2.4-.4.5a3 3 0 0 1-.8.4l-1.1.1c-.4 0-.8 0-1.1-.2l-.9-.6a3 3 0 0 1-.5-.8c-.2-.4-.3-.7-.3-1.1v-1.1Zm1 0h3.5c0-.5-.2-.9-.5-1.2-.3-.3-.7-.4-1.2-.4a1.7 1.7 0 0 0-1.2.4l-.4.5-.1.7Zm8.2 1.3-1.7 2.2-.1.1-.3.1h-.7l-.1-.3v-.1l2.2-2.8-2-2.6v-.4h1l.2.2 1.6 2 1.5-2 .2-.2h1v.4l-2 2.6 2.1 2.8V334.9l-.2.1H407v-.2l-1.8-2.2Zm8.5.3v.4l.2.4.3.2h1.2l.2.2.1.2v.4l-.1.2-.2.1h-.8c-.7 0-1.2-.2-1.5-.5-.3-.4-.5-1-.5-1.6v-3.1h-.9l-.2-.1v-.8l.2-.1h1v-2.2l.3-.1H413.7l.1.3v2h1.8V329.8h-1.8v3.2Zm8.7 1.8v.2l-.3.1h-.4l-.3-.1V331.5c0-.6-.2-1-.5-1.4-.3-.3-.7-.4-1.2-.4s-1 .1-1.3.4c-.3.3-.4.8-.4 1.4v3.2l-.1.2-.2.1h-.5l-.2-.1-.1-.2v-7.9l.1-.2.2-.1h.7v3l.8-.6c.3-.2.7-.3 1.2-.3l1 .2c.3.2.6.3.8.6l.6.8.1 1.1v3.4Zm1.3-1.3a1.8 1.8 0 0 1 .8-1.4l.7-.4a6 6 0 0 1 1-.3l1.7-.2v-.2c0-.4-.1-.7-.4-1l-1-.2c-.4 0-.6 0-.8.2a2 2 0 0 0-.5.4l-.1.2H424.6l-.2-.1-.1-.2c0-.2 0-.4.2-.6l.5-.5a3 3 0 0 1 1.6-.5c.4 0 .7 0 1 .2l.8.5.5.7.2 1v3.7l-.1.2-.2.1h-.5l-.2-.1-.1-.2v-.5l-.3.4-.6.3a3 3 0 0 1-1.2.2l-.8-.1-.7-.4-.4-.5-.2-.7Zm2.3.7.7-.1.7-.4.4-.6.1-.7v-.3l-1.4.2c-.5.1-1 .2-1.2.4-.3.2-.5.4-.5.7l.1.3.2.2.3.2h.6Zm6.3-1.2v.4l.2.4.3.2h1.1l.3.2v.8l-.3.1h-.7c-.7 0-1.2-.2-1.5-.5-.3-.4-.5-1-.5-1.6v-3.1h-.9l-.2-.1-.1-.2V328.9l.3-.1h1v-2.2l.2-.1h.7l.1.3v2h1.8V329.8h-1.8v3.2Zm7.5 0v.4l.2.4.3.2h1.1l.3.2v.8l-.3.1h-.7c-.7 0-1.2-.2-1.5-.5-.4-.4-.5-1-.5-1.6v-3.1h-.9l-.2-.1-.1-.2V328.9l.3-.1h.9v-2.2l.3-.1h.7v2.3h1.8l.1.3V329.7h-1.8v3.2Zm6.3-4.1h.2l.1.3V329.7h-1c-.9 0-1.4.6-1.4 1.5v3.7l-.3.1h-.4l-.3-.1v-6l.3-.1H444l.1.3v.4l.6-.6.9-.1h.6Zm2.5 5.9-.1.2-.2.1h-.5l-.2-.1-.1-.2v-5.8l.3-.1h.7V334.8Zm.1-7.2-.1.2-.2.1H447.6l-.1-.3V326.6l.3-.1H448.7l.1.3v.7Zm1.4 4c0-.5 0-.9.2-1.2a2.7 2.7 0 0 1 1.5-1.5l1-.2c.5 0 .9.1 1.2.3l.7.6V328.9l.3-.1h.7v6.1c0 .8-.2 1.5-.7 2-.4.5-1.1.7-2 .7l-1.3-.1-.9-.5a2 2 0 0 1-.4-.5l-.2-.6v-.3H451.3l.2.3v.1l.3.3.5.2.7.1h.7l.6-.3.4-.5.2-.7v-.8l-.7.6-1.2.2c-.4 0-.7 0-1-.2-.4-.1-.6-.3-.9-.5l-.6-1a3.6 3.6 0 0 1-.2-1.5v-.4Zm4.6 0c0-.6-.2-1-.6-1.4-.3-.3-.7-.4-1.2-.4s-1 .1-1.2.5c-.3.3-.5.8-.5 1.3v.7c0 .6.2 1 .5 1.4.3.3.7.5 1.2.5s1-.2 1.3-.5c.3-.3.4-.7.5-1.3a6.6 6.6 0 0 0 0-.9Zm2.6 0c0-.5 0-.9.2-1.2a2.7 2.7 0 0 1 1.4-1.5l1-.2c.6 0 1 .1 1.3.3l.6.6v-.4l.1-.2.3-.1H462.9l.1.3v5.8c0 .8-.2 1.5-.7 2-.4.5-1.2.7-2.1.7l-1.2-.1-.9-.5a2 2 0 0 1-.5-.5l-.1-.6v-.3H458.4l.1.3.1.1.3.3.5.2.7.1h.7l.6-.3.4-.5.1-.7v-.8l-.6.6-1.2.2c-.4 0-.8 0-1-.2l-1-.5-.5-1a3.6 3.6 0 0 1-.3-1.5v-.4Zm4.5 0c0-.6-.2-1-.5-1.4-.3-.3-.7-.4-1.2-.4s-1 .1-1.3.5c-.3.3-.4.8-.5 1.3v.7c0 .6.2 1 .6 1.4.3.3.7.5 1.2.5s1-.2 1.2-.5c.3-.3.5-.7.5-1.3a6.6 6.6 0 0 0 0-.9Zm2.6-.2a3.2 3.2 0 0 1 .9-1.9l.8-.6 1-.2c.5 0 .9.1 1.2.3.4 0 .7.3 1 .6l.5 1 .2 1.2v.3l-.1.2-.3.1h-4v.1c0 .5 0 1 .4 1.3.3.2.7.4 1.2.4.4 0 .8 0 1-.2l.5-.4.2-.1h.8v.2l-.1.5-.5.5a3 3 0 0 1-.8.4l-1.1.1c-.4 0-.8 0-1-.2-.4-.1-.7-.3-1-.6a3 3 0 0 1-.5-.8l-.3-1.1v-1.1Zm1.1 0h3.4c0-.5-.2-.9-.5-1.2-.3-.3-.7-.4-1.2-.4a1.7 1.7 0 0 0-1.2.4l-.4.5v.7Zm9-2.5h.3l.1.3v.4l-.1.2H474c-1 0-1.4.6-1.4 1.5v3.5l-.1.2-.2.1h-.5l-.2-.1-.1-.2V329l.1-.2.2-.1h.7l.1.3v.4c.2-.3.3-.5.6-.6l.8-.1h.7Zm5 4.5-.1-.4a1 1 0 0 0-.4-.3l-.7-.2-.9-.2c-.6-.1-1-.3-1.3-.6a1.7 1.7 0 0 1 .9-2.8l1-.2c.4 0 .7 0 1 .2.3 0 .6.2.8.3l.4.5.2.4v.2l-.3.1H479.6l-.2-.1c0-.2-.2-.3-.4-.4a2 2 0 0 0-.9-.1c-.4 0-.7 0-.9.2-.2.1-.3.3-.3.5v.4l.4.3.6.1a162.7 162.7 0 0 0 1.8.5l.6.5.3.5v.6l-.1.7-.5.6-.8.4-1 .1a3.5 3.5 0 0 1-1.8-.5 2 2 0 0 1-.6-.4 1 1 0 0 1-.1-.5v-.2l.3-.1H476.6l.2.1.5.4.9.2a2.2 2.2 0 0 0 1-.2l.3-.3v-.3Zm8.6-4.5h.2l.1.3V329.7h-1c-1 0-1.4.6-1.4 1.5v3.7l-.3.1h-.4l-.3-.1v-6l.3-.1H486l.1.3v.4l.6-.6.9-.1h.6Zm1 2.5a3.2 3.2 0 0 1 .8-1.9l.8-.6 1.1-.2 1.2.3c.3 0 .6.3.8.6.3.2.5.5.6 1l.2 1.2v.3l-.1.2-.2.1h-4.2v.1c0 .5.2 1 .5 1.3.3.2.7.4 1.2.4.4 0 .8 0 1-.2l.5-.4.2-.1h.8l.1.2c0 .2 0 .3-.2.5l-.5.5a3 3 0 0 1-.8.4l-1 .1c-.5 0-.9 0-1.2-.2-.3-.1-.6-.3-.8-.6a3 3 0 0 1-.6-.8l-.2-1.1v-1.1Zm1 0h3.4c0-.5-.2-.9-.5-1.2-.3-.3-.7-.4-1.2-.4a1.7 1.7 0 0 0-1.2.4l-.3.5-.2.7Zm9.5 2c0-.2 0-.3-.2-.4a1 1 0 0 0-.3-.3l-.7-.2-.9-.2c-.6-.1-1-.3-1.3-.6a1.7 1.7 0 0 1 .9-2.8l1-.2c.4 0 .7 0 1 .2.3 0 .6.2.8.3l.4.5.2.4-.1.2-.2.1H499.7l-.2-.1c0-.2-.2-.3-.5-.4a2 2 0 0 0-.8-.1c-.4 0-.7 0-.9.2-.2.1-.3.3-.3.5v.4l.4.3.5.1a162.7 162.7 0 0 0 1.9.5l.6.5.3.5v.6l-.1.7-.5.6-.8.4-1 .1a3.5 3.5 0 0 1-1.9-.5 2 2 0 0 1-.5-.4 1 1 0 0 1-.1-.5v-.2l.3-.1H496.7l.2.1c0 .2.3.3.5.4l.9.2a2.2 2.2 0 0 0 1-.2l.3-.3v-.3Zm5-4.7 1.2.2.9.6.5.8a3.3 3.3 0 0 1 .3 1.4v.8c0 .4-.1.8-.3 1.1a2.5 2.5 0 0 1-1.4 1.4c-.3.2-.7.2-1.1.2-.5 0-.9 0-1.2-.2l-.9-.5c-.2-.3-.4-.5-.5-.9a3.6 3.6 0 0 1-.3-1.3V331.3c0-.4.1-.7.3-1l.5-1 .9-.5a3 3 0 0 1 1.2-.2Zm1.8 3.8a4.3 4.3 0 0 0-.2-1.7c0-.2-.1-.4-.3-.5l-.5-.4-.7-.1-.8.1a1.5 1.5 0 0 0-.8.9l-.2.7a4.8 4.8 0 0 0 0 1c0 .2 0 .4.2.7 0 .2.1.3.3.5l.5.4h1.5a1.5 1.5 0 0 0 .8-1l.2-.6Zm3.7 2.3v.2l-.3.1h-.5l-.2-.1V326.6l.2-.1h.7l.1.3v7.9Zm4 .3-.2-.1-.1-.2-2.4-5.6v-.3h1l.1.2 1.9 4.4 1.8-4.4.2-.1.2-.1h.7V329.1l-2.3 5.6-.2.2-.2.1h-.4Zm4-3.7a3.2 3.2 0 0 1 .8-1.9l.9-.6 1-.2c.5 0 .9.1 1.2.3.4 0 .6.3.9.6.2.2.4.5.5 1 .2.3.2.7.2 1.2v.5l-.3.1h-4.1v.1c0 .5.2 1 .5 1.3.3.2.7.4 1.2.4.4 0 .7 0 1-.2l.5-.4.1-.1H523.5v.2c0 .2 0 .3-.2.5 0 .2-.2.4-.4.5a3 3 0 0 1-.8.4l-1.1.1c-.4 0-.8 0-1.1-.2l-.9-.6a3 3 0 0 1-.5-.8c-.2-.4-.3-.7-.3-1.1v-1.1Zm1 0h3.4c0-.5-.1-.9-.4-1.2-.3-.3-.7-.4-1.2-.4a1.7 1.7 0 0 0-1.2.4l-.4.5-.1.7Zm8.4-2.7c.5 0 .9.1 1.2.3l.7.6V326.6l.3-.1h.7v8.4l-.3.1h-.4l-.2-.1-.1-.2v-.4l-.7.6-1.2.2c-.4 0-.7 0-1-.2-.4-.1-.7-.3-.9-.5l-.6-1a3.6 3.6 0 0 1-.2-1.5v-.4c0-.5 0-.9.2-1.2a2.7 2.7 0 0 1 1.4-1.5l1.1-.2Zm1.9 3.8a7.3 7.3 0 0 0 0-1c0-.5-.2-1-.6-1.3-.3-.3-.7-.4-1.2-.4s-1 .1-1.2.5c-.3.3-.5.8-.5 1.3v.7c0 .6.2 1 .5 1.4.3.3.7.5 1.2.5s1-.2 1.2-.5c.4-.3.5-.7.6-1.2Z" fill="#9386A0"/><path d="M378.7 305.8c.5 0 1 0 1.5.2l1.2.6.8 1c.2.4.3 1 .3 1.5a3 3 0 0 1-2.3 3.2l2.4 4.2.1.1-.1.3-.3.1h-.6c-.3 0-.4 0-.5-.2l-.2-.2-2.4-4.1H376v4l-.1.4-.3.1h-.7l-.3-.1-.1-.3v-10.4l.1-.3.3-.1h3.9Zm-2.8 5.2h2.7a3 3 0 0 0 1.8-.4c.4-.3.6-.8.6-1.5s-.2-1.2-.6-1.4c-.4-.3-1-.5-1.8-.5h-2.7v3.8Zm8.2 1a4.2 4.2 0 0 1 1.1-2.5l1.1-.7 1.5-.3c.6 0 1 .1 1.5.3.5.2.9.5 1.2.8.3.4.6.8.7 1.3.2.5.3 1 .3 1.7v.4l-.1.3-.3.1h-5.5v.1c0 .8.2 1.3.6 1.7.4.4 1 .6 1.6.6.6 0 1-.1 1.3-.3l.7-.5.2-.2h1.1c.1.2.2.3.1.4 0 .2 0 .4-.2.6l-.7.7a4 4 0 0 1-1 .5 5 5 0 0 1-1.5.2c-.5 0-1-.1-1.4-.3-.5-.2-.8-.5-1.2-.8a4 4 0 0 1-.7-1.1l-.4-1.5V312Zm1.5 0h4.4a2 2 0 0 0-.6-1.5c-.4-.4-1-.6-1.6-.6a2.3 2.3 0 0 0-1.6.6 2 2 0 0 0-.5.7l-.1.8Zm12.6 2.7-.2-.5-.5-.4-.9-.2-1.2-.3c-.8-.2-1.5-.5-1.8-.9a2.3 2.3 0 0 1 1.2-3.7l1.4-.2c.5 0 1 0 1.3.2l1 .4.6.6.3.6c0 .1 0 .2-.2.3 0 .1-.1.2-.3.2h-.7l-.3-.3-.6-.4-1.1-.2c-.5 0-.9 0-1.2.3-.3.1-.5.4-.5.7 0 .2 0 .4.2.5l.4.3.7.3a203.4 203.4 0 0 0 2.5.7l.8.5.4.7.1.8c0 .3 0 .6-.2 1l-.7.7-1 .6-1.4.2a4.6 4.6 0 0 1-2.5-.7l-.6-.6-.3-.6.1-.3.4-.2h.8l.2.2c.2.3.4.5.7.6l1.2.2a3 3 0 0 0 1.3-.3l.4-.4.2-.4Zm6.7-6.2c.6 0 1.1.1 1.6.3l1.1.7.8 1.1a4.5 4.5 0 0 1 .3 1.8v1.2c0 .5-.2 1-.3 1.4a3.3 3.3 0 0 1-2 1.9 4.3 4.3 0 0 1-3 0l-1.2-.7c-.3-.3-.5-.7-.7-1.2a4.7 4.7 0 0 1-.4-1.7V312c0-.5.2-1 .4-1.5.2-.4.4-.8.7-1 .4-.4.7-.6 1.2-.8a4 4 0 0 1 1.5-.3Zm2.4 5a5.8 5.8 0 0 0-.3-2.2c0-.3-.2-.5-.4-.7a2 2 0 0 0-.7-.5l-1-.2c-.4 0-.7 0-1 .2a2 2 0 0 0-1.1 1.2l-.2.9a6.2 6.2 0 0 0 .2 2.2l.4.7.7.5 1 .2c.4 0 .7 0 1-.2a2 2 0 0 0 1.1-1.2l.3-.9Zm4.9 3-.1.4-.3.1h-.6l-.3-.1-.2-.3V306c0-.1 0-.2.2-.3l.3-.2h.6s.2 0 .3.2l.1.3v10.5Zm5.4.5-.3-.1-.2-.3-3.2-7.4v-.1l.1-.3.3-.1h.6l.3.1.2.3 2.5 5.8 2.5-5.8.1-.3.3-.1h1v.4l-3.1 7.5-.2.3-.3.1h-.6Zm5.3-5a4.2 4.2 0 0 1 1-2.5l1.2-.7a3.9 3.9 0 0 1 3 0l1.1.8c.4.4.6.8.8 1.3l.2 1.7v.4l-.1.3-.3.1h-5.5v.1c0 .8.2 1.3.6 1.7.5.4 1 .6 1.6.6.6 0 1-.1 1.3-.3l.8-.5.2-.2h1.1c0 .2.1.3 0 .4 0 .2 0 .4-.2.6-.1.3-.4.5-.6.7a4 4 0 0 1-1.1.5 5 5 0 0 1-1.5.2c-.5 0-1-.1-1.4-.3l-1.1-.8a4 4 0 0 1-1.1-2.6V312Zm1.4 0h4.5a2 2 0 0 0-.6-1.5c-.4-.4-1-.6-1.7-.6a2.3 2.3 0 0 0-1.5.6 2 2 0 0 0-.5.7l-.2.8Zm11-3.5a3 3 0 0 1 1.7.4c.4.2.7.4.9.7v-3.8l.4-.2h.6c.1 0 .2 0 .3.2l.1.3v10.5l-.1.3-.3.1h-.6l-.3-.1-.1-.3v-.5c-.2.3-.6.5-1 .7-.3.3-.9.4-1.5.4-.5 0-1-.1-1.4-.3-.4-.2-.8-.4-1.1-.8-.4-.3-.6-.7-.8-1.2a4.9 4.9 0 0 1-.4-2v-.6c0-.6.2-1.1.4-1.6a3.6 3.6 0 0 1 1.9-2l1.4-.2Zm2.6 5a9.5 9.5 0 0 0 0-1.2c0-.8-.3-1.4-.7-1.8-.4-.4-1-.6-1.7-.6s-1.2.2-1.6.7c-.4.4-.6 1-.7 1.8v.9c0 .8.3 1.4.7 1.8.4.5 1 .7 1.6.7.7 0 1.3-.2 1.7-.6.4-.4.6-1 .7-1.7Zm11.3-7.9a4.5 4.5 0 0 1 3 1.1c.4.3.6.6.8 1l.3.8v.3H452l-.2-.3-.3-.4a2 2 0 0 0-.5-.4l-.7-.4c-.3-.2-.7-.2-1-.2a3.3 3.3 0 0 0-1.6.4c-.3.1-.4.3-.6.5l-.2.7.2.7.6.6 1 .4a44.2 44.2 0 0 0 3.1 1c.4.1.8.4 1 .6.3.2.5.5.6.8.2.3.2.7.2 1.1 0 .5 0 1-.3 1.3a3 3 0 0 1-.9 1c-.3.3-.8.6-1.3.7a6 6 0 0 1-3.5 0c-.5-.2-1-.4-1.3-.7l-1-1-.3-1 .1-.3h1.2s.2.1.2.3l.3.5a2.8 2.8 0 0 0 1.4.9l1.1.1 1-.1c.4 0 .7-.2 1-.4l.6-.6.2-.7c0-.3 0-.5-.3-.7l-.7-.6-1.2-.4a36 36 0 0 0-2.9-1c-.4-.1-.7-.3-1-.6l-.4-.8-.2-1a2.9 2.9 0 0 1 1-2.2c.3-.3.7-.5 1.2-.7.4-.2 1-.3 1.6-.3Zm8.5 8.6v.6l.2.4c.1.2.3.3.4.3l.7.1h.9c.1 0 .2 0 .3.2l.1.3v.5l-.1.3-.3.1h-1c-1 0-1.6-.2-2-.7-.5-.5-.7-1.2-.7-2.1v-4.1H455s-.2 0-.3-.2v-1.1l.3-.1h1.2V306c0-.1 0-.2.2-.3 0-.1.1-.2.3-.2h.6s.2 0 .3.2v2.9h2.1l.3.1.2.3v.5c0 .1 0 .2-.2.3l-.3.2h-2v4.1Zm3.6.7a2.3 2.3 0 0 1 1-2l1-.5a8 8 0 0 1 1.3-.3l2.3-.4v-.2c0-.5-.2-1-.6-1.2a2 2 0 0 0-1.3-.4c-.5 0-.8 0-1 .3-.3.1-.5.3-.7.6l-.2.1H462l-.1-.3c0-.3.1-.5.3-.8l.6-.6a4 4 0 0 1 2.2-.7c.5 0 1 0 1.3.2l1 .6c.4.3.6.6.8 1l.2 1.4v4.9l-.1.3-.3.1h-.6l-.3-.1-.1-.3v-.7l-.5.6-.7.3a4 4 0 0 1-1.6.4l-1.1-.2a3 3 0 0 1-1-.5l-.5-.7-.2-.9Zm3 .9c.4 0 .7 0 1-.2l.8-.5c.3-.2.5-.4.6-.7l.2-1v-.4l-2 .3-1.5.5c-.4.3-.6.6-.6 1v.3l.3.3.5.3h.7Zm8.4-1.6v.6l.3.4c0 .2.2.3.4.3l.7.1h.8c.1 0 .2 0 .3.2.1 0 .2.1.2.3v.5s0 .2-.2.3l-.3.1h-1c-1 0-1.6-.2-2-.7-.4-.5-.6-1.2-.6-2.1v-4.1H470c-.1 0-.2 0-.3-.2l-.1-.3v-.8l.4-.1h1.2V306l.1-.3.3-.2h.6c.1 0 .2 0 .3.2l.1.3v2.6h2l.4.1.1.3v.5l-.1.3-.3.2h-2v4.1Zm4.2-5 .1-.4.3-.1h.6l.3.1.1.3v4.2c0 .9.2 1.5.6 1.9.4.4.9.6 1.6.6a2 2 0 0 0 1.6-.6c.4-.4.6-1 .6-1.9v-4.5l.4-.1h.6l.3.1.1.3v7.5l-.1.3-.3.1h-.6l-.3-.1-.1-.3v-.5l-.9.7a3 3 0 0 1-1.5.4c-.5 0-1-.1-1.4-.3-.4-.2-.8-.4-1-.7-.4-.3-.6-.7-.8-1.1l-.2-1.5V309Zm14.3 5.5-.1-.5-.5-.4-.9-.2-1.2-.3c-.9-.2-1.5-.5-1.8-.9-.4-.4-.5-1-.5-1.5a2.2 2.2 0 0 1 .7-1.7l1-.5 1.4-.2c.5 0 1 0 1.3.2l1 .4.6.6.3.6c0 .1 0 .2-.2.3l-.3.2h-.7l-.3-.3-.6-.4-1.1-.2c-.5 0-1 0-1.2.3-.3.1-.5.4-.5.7 0 .2 0 .4.2.5l.4.3.7.3a203.4 203.4 0 0 0 2.4.7c.4.1.6.3.8.5l.5.7.1.8c0 .3 0 .6-.2 1l-.7.7-1 .6-1.4.2a4.6 4.6 0 0 1-2.5-.7l-.6-.6-.3-.6.1-.3.3-.2h.8l.3.2c.2.3.4.5.7.6l1.2.2a3 3 0 0 0 1.3-.3l.4-.4.1-.4Z" fill="#2B1D38"/><rect x="712.5" y="176.5" width="61" height="39" rx="3.5" fill="#fff" stroke="#C6BECF"/><path d="m755.8 197.9-.3-.1-.2-.3v-.6s0-.2.2-.3h5.3l.1.3v.6l-.1.3h-5Z" fill="#2B1D38"/><rect x="712.5" y="238.5" width="61" height="39" rx="3.5" fill="#fff" stroke="#C6BECF"/><path d="m755.8 259.9-.3-.1-.2-.3v-.6s0-.2.2-.3h5.3l.1.3v.6l-.1.3h-5Z" fill="#2B1D38"/><rect x="712.5" y="300.5" width="61" height="39" rx="3.5" fill="#fff" stroke="#C6BECF"/><path d="m755.8 321.9-.3-.1-.2-.3v-.6s0-.2.2-.3h5.3l.1.3v.6l-.1.3h-5Z" fill="#2B1D38"/><path stroke="#C6BECF" d="M342 227.5h446M342 289.5h446"/><path fill="#fff" d="M607 176h97v40h-97z"/><path d="m619.6 201-.2-.1v-.4l3.9-10.3c0-.3.3-.4.5-.4h1.1c.3 0 .4.1.5.4l4 10.3v.2l-.1.2-.2.1H628l-.1-.3-1-2.2h-5.2l-.8 2.2-.2.2-.2.1h-.9Zm7-4-2.2-5.6-2.2 5.7h4.3Zm8.4 4.2c-1.1 0-2-.4-2.6-1.2v.6l-.1.3-.3.1h-.7l-.3-.1v-11.1l.3-.2h.8s.2 0 .2.2l.1.2v3.7c.7-.8 1.5-1.2 2.6-1.2s2 .4 2.5 1.1c.6.7.9 1.7 1 2.8a5.9 5.9 0 0 1 0 1c-.1 1-.4 2-1 2.7-.5.7-1.4 1-2.5 1Zm-.3-1.3c.7 0 1.3-.3 1.6-.7.4-.5.6-1.1.6-1.9v-.5c0-2-.7-3-2.2-3a2 2 0 0 0-1.7.7c-.4.5-.6 1-.6 1.7v1.2c0 .7.3 1.3.6 1.7.4.5 1 .8 1.7.8Zm9.1 1.3c-1.1 0-2-.4-2.7-1-.6-.7-1-1.6-1-2.7V196.2c0-1.1.4-2 1-2.7.7-.6 1.6-1 2.7-1 1.2 0 2.1.4 2.7 1 .7.7 1 1.6 1 2.7a9.2 9.2 0 0 1 0 1.3c0 1.1-.3 2-1 2.7-.6.6-1.5 1-2.7 1Zm0-1.3a2 2 0 0 0 1.6-.6c.4-.4.6-1 .6-1.9a7.3 7.3 0 0 0 0-1.2c0-.8-.2-1.4-.6-1.8a2 2 0 0 0-1.6-.6 2 2 0 0 0-1.6.6c-.4.4-.6 1-.6 1.8v1.2c0 .8.2 1.5.6 1.9.4.4 1 .6 1.6.6Zm8.4 1.1c-.3 0-.5-.1-.6-.4l-3-7.4v-.2a.3.3 0 0 1 .4-.3h.7c.2 0 .3 0 .4.3l2.5 6.3 2.4-6.3c0-.2.2-.3.4-.3h1v.5l-3 7.4c0 .3-.2.4-.5.4h-.7Zm9 .2c-1.1 0-2-.4-2.6-1-.7-.7-1-1.7-1.1-2.8v-1.1c0-1.2.4-2 1-2.8.7-.6 1.6-1 2.7-1 1.2 0 2 .4 2.7 1.2.7.7 1 1.7 1 3v.3l-.1.2-.3.1H659v.2c0 .7.2 1.3.6 1.8.4.4 1 .7 1.6.7a2.2 2.2 0 0 0 1.9-1l.2-.2h1.3v.3c0 .2 0 .5-.4.8-.2.4-.7.7-1.2 1-.5.1-1.1.3-1.8.3Zm2.2-5c0-.8-.2-1.3-.6-1.8a2 2 0 0 0-1.6-.7 2 2 0 0 0-1.6.7c-.4.5-.6 1-.6 1.8h4.4ZM675.7 192l.5.2 5.7 5.9 5.8-5.9c.3-.3.8-.3 1 0 .4.3.4.9 0 1.2l-6.1 6.4c-.3.3-.9.3-1.2 0l-6.2-6.4a.9.9 0 0 1 0-1.2l.5-.2Z" fill="#2B1D38"/><path d="M611 176.5h89v-1h-89v1Zm92.5 3.5v32h1v-32h-1Zm-3.5 35.5h-89v1h89v-1Zm-92.5-3.5v-32h-1v32h1Zm3.5 3.5c-2 0-3.5-1.6-3.5-3.5h-1c0 2.5 2 4.5 4.5 4.5v-1Zm92.5-3.5c0 2-1.6 3.5-3.5 3.5v1c2.5 0 4.5-2 4.5-4.5h-1Zm-3.5-35.5c2 0 3.5 1.6 3.5 3.5h1c0-2.5-2-4.5-4.5-4.5v1Zm-89-1c-2.5 0-4.5 2-4.5 4.5h1c0-2 1.6-3.5 3.5-3.5v-1Z" fill="#C6BECF"/><path fill="#fff" d="M607 238h97v40h-97z"/><path d="m619.6 263-.2-.1v-.4l3.9-10.3c0-.3.3-.4.5-.4h1.1c.3 0 .4.1.5.4l4 10.3v.2l-.1.2-.2.1H628l-.1-.3-1-2.2h-5.2l-.8 2.2-.2.2-.2.1h-.9Zm7-4-2.2-5.6-2.2 5.7h4.3Zm8.4 4.2c-1.1 0-2-.4-2.6-1.2v.6l-.1.3-.3.1h-.7l-.3-.1v-11.1l.3-.2h.8s.2 0 .2.2l.1.2v3.7c.7-.8 1.5-1.2 2.6-1.2s2 .4 2.5 1.1c.6.7.9 1.7 1 2.8a5.9 5.9 0 0 1 0 1c-.1 1-.4 2-1 2.7-.5.7-1.4 1-2.5 1Zm-.3-1.3c.7 0 1.3-.3 1.6-.7.4-.5.6-1.1.6-1.9v-.5c0-2-.7-3-2.2-3a2 2 0 0 0-1.7.7c-.4.5-.6 1-.6 1.7v1.2c0 .7.3 1.3.6 1.7.4.5 1 .8 1.7.8Zm9.1 1.3c-1.1 0-2-.4-2.7-1-.6-.7-1-1.6-1-2.7V258.2c0-1.1.4-2 1-2.7.7-.6 1.6-1 2.7-1 1.2 0 2.1.4 2.7 1 .7.7 1 1.6 1 2.7a9.2 9.2 0 0 1 0 1.3c0 1.1-.3 2-1 2.7-.6.6-1.5 1-2.7 1Zm0-1.3a2 2 0 0 0 1.6-.6c.4-.4.6-1 .6-1.9a7.3 7.3 0 0 0 0-1.2c0-.8-.2-1.4-.6-1.8a2 2 0 0 0-1.6-.6 2 2 0 0 0-1.6.6c-.4.4-.6 1-.6 1.8v1.2c0 .8.2 1.5.6 1.9.4.4 1 .6 1.6.6Zm8.4 1.1c-.3 0-.5-.1-.6-.4l-3-7.4v-.2a.3.3 0 0 1 .4-.3h.7c.2 0 .3 0 .4.3l2.5 6.3 2.4-6.3c0-.2.2-.3.4-.3h1v.5l-3 7.4c0 .3-.2.4-.5.4h-.7Zm9 .2c-1.1 0-2-.4-2.6-1-.7-.7-1-1.7-1.1-2.8v-1.1c0-1.2.4-2 1-2.8.7-.6 1.6-1 2.7-1 1.2 0 2 .4 2.7 1.2.7.7 1 1.7 1 3v.3l-.1.2-.3.1H659v.2c0 .7.2 1.3.6 1.8.4.4 1 .7 1.6.7a2.2 2.2 0 0 0 1.9-1l.2-.2h1.3v.3c0 .2 0 .5-.4.8-.2.4-.7.7-1.2 1-.5.1-1.1.3-1.8.3Zm2.2-5c0-.8-.2-1.3-.6-1.8a2 2 0 0 0-1.6-.7 2 2 0 0 0-1.6.7c-.4.5-.6 1-.6 1.8h4.4ZM675.7 254l.5.2 5.7 5.9 5.8-5.9c.3-.3.8-.3 1 0 .4.3.4.9 0 1.2l-6.1 6.4c-.3.3-.9.3-1.2 0l-6.2-6.4a.9.9 0 0 1 0-1.2l.5-.2Z" fill="#2B1D38"/><path d="M611 238.5h89v-1h-89v1Zm92.5 3.5v32h1v-32h-1Zm-3.5 35.5h-89v1h89v-1Zm-92.5-3.5v-32h-1v32h1Zm3.5 3.5c-2 0-3.5-1.6-3.5-3.5h-1c0 2.5 2 4.5 4.5 4.5v-1Zm92.5-3.5c0 2-1.6 3.5-3.5 3.5v1c2.5 0 4.5-2 4.5-4.5h-1Zm-3.5-35.5c2 0 3.5 1.6 3.5 3.5h1c0-2.5-2-4.5-4.5-4.5v1Zm-89-1c-2.5 0-4.5 2-4.5 4.5h1c0-2 1.6-3.5 3.5-3.5v-1Z" fill="#C6BECF"/><path fill="#fff" d="M607 300h97v40h-97z"/><path d="m620.8 325-.3-.1-.1-.3V314l.4-.1h4.3c1.2 0 2 .3 2.6.8.6.6.9 1.3.9 2.2a2.5 2.5 0 0 1-1.4 2.3 3 3 0 0 1 1.6 2.7c0 .6-.1 1.1-.4 1.6-.3.5-.7.9-1.2 1.2a4 4 0 0 1-2 .4h-4.4Zm4.1-6.5c.7 0 1.2-.1 1.5-.4.4-.3.6-.8.6-1.3 0-.6-.2-1-.5-1.3-.4-.3-1-.4-1.6-.4h-3v3.4h3Zm.2 5.2c.6 0 1.2-.2 1.5-.5.4-.4.6-.9.6-1.4 0-.6-.2-1-.6-1.4-.3-.4-.9-.6-1.5-.6H622v3.9h3Zm9.1 1.5c-1.1 0-2-.4-2.6-1-.7-.7-1-1.7-1.1-2.8v-1.1c0-1.2.4-2 1-2.8.7-.6 1.6-1 2.7-1 1.2 0 2 .4 2.7 1.2.7.7 1 1.7 1 3v.3l-.1.2-.3.1H632v.2c0 .7.2 1.3.6 1.8.4.4 1 .7 1.6.7a2.2 2.2 0 0 0 1.9-1l.2-.2h1.3v.3c0 .2 0 .5-.4.8-.2.4-.7.7-1.2 1-.5.1-1.1.3-1.8.3Zm2.2-5c0-.8-.2-1.3-.6-1.8a2 2 0 0 0-1.6-.7 2 2 0 0 0-1.6.7c-.4.5-.6 1-.6 1.8h4.4Zm3.8 4.8-.3-.1v-11.1l.3-.2h.8s.2 0 .2.2l.1.2V325l-.3.1h-.8Zm7 .2c-1.3 0-2.2-.4-2.8-1-.7-.7-1-1.6-1-2.7V320.2c0-1.1.4-2 1-2.7.7-.6 1.6-1 2.7-1 1.2 0 2 .4 2.7 1 .7.7 1 1.6 1 2.7a9.2 9.2 0 0 1 0 1.3c0 1.1-.3 2-1 2.7-.6.6-1.5 1-2.7 1Zm0-1.3a2 2 0 0 0 1.5-.6c.4-.4.6-1 .6-1.9a7.3 7.3 0 0 0 0-1.2c0-.8-.2-1.4-.6-1.8a2 2 0 0 0-1.6-.6 2 2 0 0 0-1.6.6c-.4.4-.6 1-.6 1.8v1.2c0 .8.2 1.5.6 1.9.4.4 1 .6 1.6.6Zm7.7 1.1-.3-.1-.2-.3-2.3-7.4v-.4l.3-.1h1l.1.3 1.8 6 1.9-6 .1-.2.3-.1H658.5l.1.3 2 6 1.7-6 .1-.2.3-.1H663.6l.1.3v.2l-2.2 7.4-.2.3-.4.1h-.6c-.3 0-.5-.1-.5-.4l-1.9-5.7-1.8 5.7c-.1.3-.3.4-.6.4h-.6ZM675.7 316l.5.2 5.7 5.9 5.8-5.9c.3-.3.8-.3 1 0 .4.3.4.9 0 1.2l-6.1 6.4c-.3.3-.9.3-1.2 0l-6.2-6.4a.9.9 0 0 1 0-1.2l.5-.2Z" fill="#2B1D38"/><path d="M611 300.5h89v-1h-89v1Zm92.5 3.5v32h1v-32h-1Zm-3.5 35.5h-89v1h89v-1Zm-92.5-3.5v-32h-1v32h1Zm3.5 3.5c-2 0-3.5-1.6-3.5-3.5h-1c0 2.5 2 4.5 4.5 4.5v-1Zm92.5-3.5c0 2-1.6 3.5-3.5 3.5v1c2.5 0 4.5-2 4.5-4.5h-1Zm-3.5-35.5c2 0 3.5 1.6 3.5 3.5h1c0-2.5-2-4.5-4.5-4.5v1Zm-89-1c-2.5 0-4.5 2-4.5 4.5h1c0-2 1.6-3.5 3.5-3.5v-1Z" fill="#C6BECF"/></g><defs><clipPath id="a"><path fill="#fff" d="M0 0h793v361H0z"/></clipPath><clipPath id="b"><path fill="#fff" transform="translate(90 32)" d="M0 0h16v16H0z"/></clipPath></defs></svg>
