<svg xmlns="http://www.w3.org/2000/svg" viewBox="0 0 1160.1 280"><defs><radialGradient id="b" cx="107.5" cy="207.9" r="29.6" gradientTransform="matrix(.97862 -.2057 .08845 .4208 -16 142)" gradientUnits="userSpaceOnUse"><stop offset=".2" stop-color="#3e2963"/><stop offset=".7" stop-color="#3e2963" stop-opacity="0"/></radialGradient><radialGradient id="c" cx="476.9" cy="21.6" r="800" gradientTransform="matrix(.88 0 0 .43 103 24)" gradientUnits="userSpaceOnUse"><stop offset=".1" stop-color="#ff8b69"/><stop offset=".7" stop-color="#ff8b69" stop-opacity="0"/></radialGradient><linearGradient id="a" x1="580" x2="580" y2="280" gradientUnits="userSpaceOnUse"><stop offset="0" stop-color="#ff9470"/><stop offset="1" stop-color="#ffe19d"/></linearGradient></defs><path fill="url(#a)" d="M0 0h1160v280H0z" data-name="Layer 5"/><g data-name="Layer 8"><path d="M379 254a2 2 0 0 1 2 0h-2zm-61 2-40-1c-35-1-73 1-107-2-9-1-20-3-26-8v-2a4 4 0 0 0 1-3c-3 0 1-2-1-2l2-2h-1a4 4 0 0 0 1-3 14 14 0 0 0 4-2l-2-1 2-1-1-1h1c0-1-3-3 0-4 1-4 4-7 8-9 2-1 5-2 7-1 6 0 14-2 20 0h8l13 1c7-1 13 1 20 1l1-1h20c-2 4 6 2 7 4 2-2 2 0 4 0h4l-1-2h2l-12-1 31 2h8l8 1a71 71 0 0 1 11 2l10 1c-6 1-14 0-21-1l2 2c1-2 2 0 5-1l3 1-1 1h2l-1-1c4 1 10-1 12 2l3 1h-15c2 3 8-1 11 2h4v1a5 5 0 0 0-2 0h5c1-1-3 1-2-1 5 0 12-1 17 1h-1c2 0 2 2 4 1-1-1 1-1 2-2 1 2 4 0 7 1h12c-2 1-3-1-6 1h-14 1l-3 1 1 1c2-2 4 0 7-1l21 1h3a5 5 0 0 0 3-2l1 1h7c-1 1 0 1 1 1h1-2l-1-1c-7 3-15 1-23 2h-13a10 10 0 0 0-5 1c-1-2-3-1-5 0l1 1s4 1 3-1l5 2 2-1-1-1h1c-1 2 2 2 3 2l40-1c-1 2-3 1-5 2a1 1 0 0 0-2 0h-14v1h1-3 1l-4-1c1 2-2 1-3 2h3c-12 2-24 0-36 1l-1 1h44v-1h1a2 2 0 0 0-1 0l8 1v-1h-1 2a16 16 0 0 0 6 0 3 3 0 0 0-1 0l1-1h-2c2-1 1-2 3-2v2l2 1h1l-25 1v1h15l1 1c1-1 2-2 3-1s-3 0-4 1h3l-3 1h14v-1l5 1c-1 1-5-2-4 1h-2v-1l-5 1a5 5 0 0 0-2 0h1-7l-3 1-3-1-2 1 5 1h3l-18 1h10l-3 1h1l-1 1v-1l-1 1v-1l-2 1-22 1h1l-2 1h7c2 1 4-1 6 1l-12 1h5-1l16 1 1-1v-1h3l3 2a389 389 0 0 1-57 1zm75-3h2-2zm-7 0v1-1zm18-1h1-1z" fill="#ffe2a4"/><path d="m331 255 1-1h-1l3-1 1 1c3 1 6-3 6 0h2v-1 1h1v1h-13zm16-1h-2zm50-3 4-1v1a33 33 0 0 0-4 0zm-8 0h2-2zm-12 1h-11a185 185 0 0 1 22-1l-11 1zm-15 0h2l-2 1zm-43 2h1-1zm10 0zm-13 0h2a5 5 0 0 1-2 0zm8-1v1-1zm-4 1h3-3zm11-2c2-3 5 0 8-1l5 1v-1l1 1a40 40 0 0 1-14 0zm58-3h-2zm-11 0h5-5zm-36 2h-1zm24-1h-2zm-45 2 7-1-7 1zm-7 0 2-1v1zm47-3a7 7 0 0 1 4-1l-4 1zm24-2 2-2c1 2 4 2 6 1l-8 1zm14-1h-2zm-30 0h4c1 0 0 0 0 0h2c-1 2-4 0-6 0 1 0-1 0 0 0zm44-2h1zm-57 3 4-1c3-1 2 2 6 1h-7a15 15 0 0 0-3 0zm47-2 2-1h-1a8 8 0 0 0 1-1h-1c1-1 3-2 6-1 1 1-3 0-4 1l2 1c-3-1-2 2-5 1zm-52 2h3zm-10 0h7-7zm-6 1-1-1h2l-1 1zm33-2h-1zm-37 1-1 1-1-1h2zm82-5s-1 0 0 0h1-1zm5 0v-1h1l-1 1zm-37 2h-2 1l-1-1 4-1v2a1 1 0 0 1-2 0zm12-1h1a3 3 0 0 1-1 0zm-4 0h1v1l-1-1zm-19 0-1 1v-1h7l-1 1-5-1zm-11 2 1-1h1l-1-1h2l-1 1h-1l-1 1zm31-3h1-1zm37-3 10-1-10 1zm-13 0h10-10zm-15 1c0-1 7 1 6-1v-1l1 1h2v1h1-10zm-63 3 1-1v2a2 2 0 0 1-1-1zm-4 0h-1zm64-5h1-1zm23-2v1h-12l12-1zm-64 3h4-4zm-30 2c0-2 2-1 4-1l-4 1zm88-6h7-7zm-14 0h-2 14a79 79 0 0 1-12 0zm-75 5h-3 3zm81-8h-1 1zm-13 0h2-2zm6 0h-2zm-63 2 3-1 2 1-2 1zm-20 2h2-2zm15-2h4-4zm-6 0c-1-1 2 0 2-2v1l3 1h-5zm-7 0h-2v-1c2 1 7-1 8 1-3 1-4-2-6 0zm42-4h1v1l-1-1zm-1 0h-1zm-5 0h3l-3 1zm-45 3h2-2zm30-2h3a11 11 0 0 1-3 0zm-11-1v1c-3 1-2-1-4-1 2-1 6 1 5-2l5 1h-4 2l-3 1h3-4zm29-3h7-7zm-37 2h1-1zm24-3 8 1a18 18 0 0 1-8-1zm-10 0c2-1 5 0 8 1l-8-1zm-22 2-1 1-1-1h2zm14-2v-1l3 1h-3zm11-1h-1zm-10 0 2-1-2 1zm18-3 4 1h-4zm-31 2h-2zm13-2h5zm-23 1h3v1l-3-1zm-6-1-1 1-2-2-2 1-2-1v-1l9 1v2l-2-1zm8-2 1 1h-1v-1zm-23 0h-5c4-2 8 0 12 0h-7zm-27-3h4-4zm-5 0h3zm-15-1h3a8 8 0 0 1-3 0zm-12-2h1-1z" fill="#ffe2a4"/><path d="M989 186a7 7 0 0 0 1 0 1 1 0 0 1-1 0zm9 1zm1 3-1-1 1 1zm0-3a4 4 0 0 0 1 0 1 1 0 0 0-1 0zm4 1h-1a1 1 0 0 0 1 0zm0 1h-1 1c1 0 0 0 0 0zm-3-5a2 2 0 0 0-1-1h-1v2-1h1-1 1a1 1 0 0 0 1 0zm3 6z" fill="#ffd39a"/><path d="M1154 132a5 5 0 0 1-1 0h-4a6 6 0 0 0-1 0 7 7 0 0 1-1 0 2 2 0 0 1-1-1h-1a9 9 0 0 1-2 1 4 4 0 0 1-1-1l-126 1v-1h-27a1 1 0 0 1-1 0h-1a1 1 0 0 0-1 0h-1c1 0 1 0 0 0a6 6 0 0 1-1 0h-3a14 14 0 0 0-2 0h-1 1-12 1a4 4 0 0 0-2 0h-29a5 5 0 0 1-4-1h-2l-7-1a1 1 0 0 1-1 1v-1l-1 1h-5a1 1 0 0 0-1 0v1l-3-1v1a2 2 0 0 0-1 0v-1s0 1 0 0h-4a2 2 0 0 1-1 0h-1l-3 1h-2v1a2 2 0 0 0-2-1h1-2l-4 1-1-1v1h-3c1 0 1 0 0 0 1 0 0 0 0 0h-6 3l2-1c-1 0 0 0 0 0h-1v-1h-5v1h-6l-1 1v-1h-4l-5 1a3 3 0 0 1 3 0h-17v1l-1-1a1 1 0 0 1 0 1h-1v-1a9 9 0 0 1-2 1h1c-4 2-8 1-12 2v-1l-3 1h-17a14 14 0 0 1-2 1h-20l-3 1 1-1h-4l-1 1 2 1h-1l5-1v1a4 4 0 0 0 2 0h10l5-1-2 1h4v-1l1 1 4-1h2-1 2-1 6l-1-1 1 1c0 1 0 0 0 0h12a38 38 0 0 0 5-1h9a3 3 0 0 1 2 0 3 3 0 0 1 1 0h-1v-1l2 1h-1 3a11 11 0 0 1-2 0 8 8 0 0 0 2-1v1h4-1 1l3-1v1l3-1-1 1a10 10 0 0 0 3-1h1l1-1v1a1 1 0 0 0-1 0v1c-1 0-1 0 0 0h-5s1 0 0 0c1 0 0 0 0 0l-1 1v-1l-2 1v-1 1h-11l1 1-9-1h-3c1 0 0 0 0 0v1h-5c-1 0 1 0 0 0h-2s2 0 1-1l-2 1-3 1a3 3 0 0 0-2 0l2 1h2l-2-1a15 15 0 0 1 4 0l-1 1h-6v1h-1l-1-1a7 7 0 0 0-1 1h-4 1-8c-1 1 1 0 1 1h-2l-1-1-1 1h1l-2-1-2 1 1-1 1 1a7 7 0 0 0-3 0h1-6c-1 1 1 0 1 1l-6 1h-20l-8 1h2l4 1h-1a10 10 0 0 1 4 1h-3a25 25 0 0 0 3 0l1 1h-6l1 1a2 2 0 0 0-1 0v-1a5 5 0 0 0-3 1l-3 1h16-2l-28 2-4 1h-1l1 1s1 0 0 0h-4l4 1c-1 0-1 1 0 0h1a1 1 0 0 1 1 1h-3l1 1h17a14 14 0 0 1 3 0l1-1v1a3 3 0 0 0-1 0l1 1h-3l1 1 3-2v1h5l-1 1c2 0 0 0 0 0a19 19 0 0 1 4 0h28l7-1a7 7 0 0 1 4 0 16 16 0 0 1 4-1v1h-2a2 2 0 0 1-1 0v1c0-1-2 0-1-1a22 22 0 0 0-3 0h2l1 1h2-4s1 0 0 0a20 20 0 0 0-2 0h-2 5a2 2 0 0 0-1 1l1-1v1h2-4l4 1h-5c2 1 4-1 6-1v1h8a17 17 0 0 1-6 1c-1 0 0 0 0 0l-7 1v-1l-4 1a28 28 0 0 0-8 1v-1l-10 1h-1l-24 1h1-10a10 10 0 0 0-5 0 5 5 0 0 1-3 0v1l-2-1a1 1 0 0 1-2 0v1a222 222 0 0 0-23 0h57s0-1 0 0c0 0 1 0 0 0a8 8 0 0 1 3 0l1-1-1 1h3l1-1h1v1l2-1-3 1h4-11v1h-1l1-1a19 19 0 0 0-3 1s1 0 0 0h-29l2 1a29 29 0 0 1-5 0h-6l4 1h-5l-5 1a5 5 0 0 0-1-1v1h1l-10 1h-2l-2 1a22 22 0 0 0-5 0h3a1 1 0 0 1 0 1h-1a5 5 0 0 1 2 1h-4l-3 1h-3l-1 1h1a2 2 0 0 1-2 1 4 4 0 0 0-2 1h-4l2 1h-1 2-1v1h1v-1l2 1h-6v1c1 0 1 0 0 0a1 1 0 0 1 2 0h-3l1 1a20 20 0 0 0 5 0c0 1 3-1 4 1l1-1 1 1a1 1 0 0 1 2 0 5 5 0 0 0-4 0 19 19 0 0 0 5 0h-1 2a9 9 0 0 0 4 0c2 1 5-1 6 1a8 8 0 0 1 4 0h6-2 7l-1 1a13 13 0 0 0 3 0l4 1v-1h1v1l5-1h1v1l9-1h1v1l14-1h11s-1 0 0 0h8l-1 1-1-1h9c0 2 3 1 3 1a2 2 0 0 1 3 0l-4 1h1a3 3 0 0 1 3 0h1-1a8 8 0 0 1 4 0 1 1 0 0 0-1 0h3-2a6 6 0 0 1 3 0s-1 0 0 0a4 4 0 0 0 1 0h7v1a9 9 0 0 1 3 0h3a9 9 0 0 1-3 0l-3 1a1 1 0 0 0-1 0 10 10 0 0 0-1 0h-16l3 1h-2 2-2c1 0 0 0 0 0l1 1v-1h1l9-1c0 1 1 1 0 0a2 2 0 0 1 2 1h4l4-1h2-1l5 1a5 5 0 0 1 1-1h3l-3-1s-1 0 0 0h4-1 2-1a3 3 0 0 0 2 0h-1 2l4 1a23 23 0 0 1 6-1v1l1-1c0 1 0 0 0 0v1a2 2 0 0 1 1 0v-1h8s-1 0 0 0h8s-1 0 0 0 7-2 6 0a8 8 0 0 0 2 0h4v1l7-1-1 1 8-1 1 1h-6l1 1 4-1v1l6-1h3v1h-1v-1a17 17 0 0 0-3 1h-1l-7 1h-9l-1-1v1l-19-1h-15l-2 1 4 1a1 1 0 0 0 0 1 15 15 0 0 1-2 0 5 5 0 0 1-1 0h-1a14 14 0 0 1-2 0h-6l1-2h-1a1 1 0 0 0-1 0 1 1 0 0 0 0 1 1 1 0 0 0 1 1h-2a4 4 0 0 0-1 0 2 2 0 0 0-1 0 1 1 0 0 0-1 0l-1 1h3a2 2 0 0 0 1 0h1a162 162 0 0 0 19 0h4v-1l1 1a4 4 0 0 0 2 1h2a3 3 0 0 1 1 0 4 4 0 0 0 2 0h3-23l1 1h-3a3 3 0 0 0-2-1 28 28 0 0 0-4 0v1h4l-1 1a27 27 0 0 0-3 0h-1a10 10 0 0 0-2 0h-5v1a12 12 0 0 1 3 0h-1a5 5 0 0 1-1 0h-1v1h-2a5 5 0 0 0-2 0l2-1h-5l1 1h-1a5 5 0 0 0-1 0l-1-1a3 3 0 0 0-1 0 2 2 0 0 0-1 0 9 9 0 0 0-1 1 1 1 0 0 1-1 0h-1v1l-4-2h-1a1 1 0 0 0 0 1 1 1 0 0 0 1 0l4 1a2 2 0 0 0-1 0 1 1 0 0 0-1 0 1 1 0 0 0 0 1h1a5 5 0 0 0 1 1 8 8 0 0 0 3-1h2l-1-1v-1h1v1h3a5 5 0 0 1 1 1l1 1v-1h3-2 4v-1h1v1h-1v1l3 1h-6l1 1h-1l3 1a4 4 0 0 0 0 1l-1 1h1-1a4 4 0 0 0-1 0 2 2 0 0 0-1 1v1l18 1h18a12 12 0 0 1 2 0 1 1 0 0 1 0 1h1-6a31 31 0 0 1-5 0 29 29 0 0 1-3 0h-11a23 23 0 0 0-6 1l-1-1h1-4v1h2v1h7v2l1-1a4 4 0 0 1 2-1 3 3 0 0 1 1 0 3 3 0 0 0 1 0 1 1 0 0 0 1 0h2a77 77 0 0 1 9 1v1a2 2 0 0 1-1 0 4 4 0 0 1-1 0 5 5 0 0 0-2-1 2 2 0 0 0-1 1h-1l1 1a16 16 0 0 0 5 0h3a18 18 0 0 1 3 0 5 5 0 0 0 2 1l2-1a3 3 0 0 1 1 0 1 1 0 0 1 1 1h-1a12 12 0 0 0-2 1h-3l3 1a59 59 0 0 0 6 0 9 9 0 0 0 1 0h2a30 30 0 0 0 4 1v1h1v-1a7 7 0 0 0 2 0l3-1a5 5 0 0 0 1 0h-1l1 1a1 1 0 0 0 0 1l-2 1h3a3 3 0 0 0 1 0l3-1h2a3 3 0 0 0 1 2 5 5 0 0 0 1 0h-4l2 1a14 14 0 0 0 4 1 15 15 0 0 1 5 1l5 1h5a25 25 0 0 0 3 1 10 10 0 0 1 4 1 29 29 0 0 0 5 0 8 8 0 0 0 3 0l28 2a1 1 0 0 0 1-1h1a3 3 0 0 1 1 0 2 2 0 0 1 0 1v1h18l2-1 14 2a26 26 0 0 0 3 0 28 28 0 0 0 3 0h5a24 24 0 0 1 4 0 6 6 0 0 1 3 0h5a19 19 0 0 0 5 1l13-2a5 5 0 0 0 1 1 35 35 0 0 0 5-1 30 30 0 0 0 5-5 13 13 0 0 0 2-2s0 0 0-1a8 8 0 0 0 0-1h25a6 6 0 0 1 5 2h12c1 0 0 0 0 0l7-1 5-1a9 9 0 0 0 2 0h9a10 10 0 0 1 2-1 3 3 0 0 1-1-2l3-1a22 22 0 0 0 6 1h7l-13-1a24 24 0 0 1-4 0c-1 0-2-1-1-2h3a2 2 0 0 0 0-2l-6-1h-1a6 6 0 0 1-1-1l6-2 1-1a14 14 0 0 1 3 0h6l-5-1h-5v-2h-1 1a16 16 0 0 0-2 0 1 1 0 0 1 0-1h4l3 1 2-1h-2l-4-1v-1a8 8 0 0 0 1 0l3 1v-1l1-1v1l1-1 4 1a8 8 0 0 0-4-1h-2l-2-1h-1l-1-1 1-1-1 1v-1a3 3 0 0 1-2 0v-1a1 1 0 0 1-2 0h-2l-1-1a1 1 0 0 0-2 0l1-1-1 1-5-2-1-1-4-1v1l-2-1h-44a2 2 0 0 0-2 0l-22-2-5-1h-9a2 2 0 0 0-1 0h-4a12 12 0 0 1-2 0v-1l-3 1a10 10 0 0 0-2-1h-8l-1-1h-3a2 2 0 0 1 1 0h-1l1-1h-1l-4-7-3-2-1-2v-1l-2-2h5l2 1h-1a14 14 0 0 0 4 1l4 1v1a22 22 0 0 1 6 0c1 2 5 1 5 3h2l-1 2 3 1h2-1l1 2h2-1l1 1h1v-1c3 0 4 2 6 1a3 3 0 0 0-1 0 19 19 0 0 0-5-3s1 0 0 0h-1a1 1 0 0 0-1 0l-1-1v-1h1a33 33 0 0 0 6 1l-4-2-2-2c-1-1-3-2-2-3l4-2 1-1h-1a1 1 0 0 1 1 0h19l2-2a3 3 0 0 0 1 0l1-2 1 1 1 1 1-1c1-2 3-1 4-1l3-1h1a2 2 0 0 0 2 0 11 11 0 0 0 2 0 6 6 0 0 1 1 0 17 17 0 0 1 2 0h2a6 6 0 0 0 2 0 4 4 0 0 0 1 0 9 9 0 0 0 3-1 3 3 0 0 0 1 1 6 6 0 0 0 2-1 6 6 0 0 1 1 0h48a1 1 0 0 1 1 0 5 5 0 0 1 2 0 21 21 0 0 1 2 0 19 19 0 0 0 2 0 7 7 0 0 0 2 0 3 3 0 0 1 1 0 9 9 0 0 1 1 0 11 11 0 0 0 2 0 3 3 0 0 0 1 0 26 26 0 0 0 3 0 24 24 0 0 0 4 0 6 6 0 0 0 2 0h7a2 2 0 0 0 1 0 3 3 0 0 1 1 0h6a9 9 0 0 1 2 0 10 10 0 0 0 2 0h2a7 7 0 0 0 1 0v-35a19 19 0 0 1-6 0zm-363 5zm29-1h-1l1-1v1zm16 0h1-1zm-2 3h1-1zm-56 5h1-1zm8 22h1-1zm-83 15h-1v-1l1 1zm6-4 1-1-1 1zm9-4h2a9 9 0 0 0-2 0zm22 11a3 3 0 0 0-1 0h1zm4 1v-1h2a5 5 0 0 0-2 1zm80 4h2-1zm290 13h2l1 1a1 1 0 0 0-1 1v-1h-2v-1zm0 0zm-191 23v1a1 1 0 0 0 0-1zm-4 0h-1a1 1 0 0 0 1 0zm-2 0v-1 1zm-2-1zm-10-1a8 8 0 0 1 2 0l2 1-7-1h3zm1-1h-1 2zm-36-11h2l-1-1h1a3 3 0 0 0 1 1h1a4 4 0 0 1 1 1 9 9 0 0 1-2 0 8 8 0 0 1-3-1zm7 1-1-1a2 2 0 0 1 1 0h1l1 1a6 6 0 0 1-2 0zm2-1h-1 1zm2 1v-1l1 1a3 3 0 0 0-1 0zm-35-9h-2 9-6zm-7 1h-1a12 12 0 0 1 2 0zm-3-2v-1h1a1 1 0 0 0 0-1v1a1 1 0 0 0 0 1l-1-1zm-8-3zm22 0v-1a1 1 0 0 0 0 1zm-2-1a2 2 0 0 0-1 0h2a2 2 0 0 0-1 0zm-2 1h-2v-1a4 4 0 0 0 1 1h1a3 3 0 0 1 1 0zm-4 2a1 1 0 0 1 1 0zm2 0zm0 0zm-1-1a2 2 0 0 0-1 0v-1h1a1 1 0 0 0 0 1 2 2 0 0 0 1 0 2 2 0 0 0-1 0zm-1-2h-1v1h-1a19 19 0 0 0-2 0h1a2 2 0 0 1 0-1 4 4 0 0 1 1 0h1zm-2 2a4 4 0 0 1 1 0v2a2 2 0 0 1-1 0 1 1 0 0 0 1-1v-1h-1zm-6 4zm1 2a2 2 0 0 0 0-1 2 2 0 0 0 0 1zm20-3a1 1 0 0 0 0-1h-4 3l1-2h-2a1 1 0 0 0 0 1 13 13 0 0 1-4-1l-2 2h-2a2 2 0 0 0 1 0v-1h-1l1-1h-1a5 5 0 0 1 1 0l2-1 3 1v-1h1a1 1 0 0 0 0 1 3 3 0 0 0 1 0h1a1 1 0 0 0 1 0 1 1 0 0 0 0-1l1-1h-2a5 5 0 0 1-2 0 24 24 0 0 0 5 0 4 4 0 0 0 2 0 10 10 0 0 0 2 0l2-1h-2a4 4 0 0 0-1-1 6 6 0 0 0-1 0h16l-1-1h1-1a2 2 0 0 0-1-1h6a19 19 0 0 0-3 0v1a1 1 0 0 0 0 1 1 1 0 0 0 1 0v-1h1v1h2v-1a1 1 0 0 1 0 1h1a3 3 0 0 1 1 0 4 4 0 0 1 1 0v6h-1l1 3-16-1h-12a1 1 0 0 0 0-1zm-6-2zm5-9h-1l-2-1h3-1zm32 0h-1c-1 0 0 0 0 0a52 52 0 0 0-6-1l-2 1h-1v1-1h-6 1l-1-1a26 26 0 0 0-3 0l19 1zm14-60zm9 57h1-1zm2 0s0-1 0 0h1-1zm-10-55zm16 56h1l1 1h-2v-1zm1 2h-1 1zm7-2h-9l-1-1h2v1h1c1-1 0 0-1-1h5v1a8 8 0 0 1 5 0h2a1 1 0 0 1 0-1h1l1 1v-1a7 7 0 0 0 3 0l1 1a1 1 0 0 1 0-1 2 2 0 0 0 2 0h1-1l-1 1h2l5 1v1h1a9 9 0 0 0-2 0h-18a10 10 0 0 0 1-2zm-12-1a1 1 0 0 1 1 0 2 2 0 0 1-1 0zm30 3zm4 0-1-1h4v1h-3v-1 1zm5-1h-1 1zm-6 0h-3 3zm-4-1a4 4 0 0 0-1-1s2 0 1 1zm-7-1s0 1 0 0zm-18 3h-1a4 4 0 0 1 1 0zm-13-60a2 2 0 0 1 1 0h-1zm-22 61h-3v-1l3 1zm-4 1v-1h1a1 1 0 0 0 0 1zm4 0h-1 1zm4-2zm-1 26v-1zm29-87h1zm0 0h-1a1 1 0 0 1 1 0zm-3-1h-1l1 1s-1 0 0 0l-1-1h1zm-6 1h1-2 1zm-7 1h2v1h-3l1-1zm-12-2a3 3 0 0 0 1 0v1s-1 0 0 0l-1-1zm-1 1h-1 1zm-1 2c1 0 0 0 0 0h-3 4zm-2 0-1 1c1-1 0 0-1-1a6 6 0 0 0 2 0zm-3 1h-1 1zm-2 1h-2 2zm-3-1h2a5 5 0 0 1-2 1v-1zm2-2h-1 1zm-3-1 1 1-1-1zm1 4-1 1 1-1zm-5 1a1 1 0 0 1-1 1c1 0 1 0 0 0l1-1zm-2 1 1-1v1h-1s0-1 0 0zm-4 1h-1 1zm-1-1-1 1 1-1zm-4 1h-1 2v1h-6l5-1zm-26 24h-1 1zm16-23a1 1 0 0 1 1 0 1 1 0 0 1-1 0zm-1 0a5 5 0 0 0-2 0h2s-1-1 0 0zm2 22a6 6 0 0 1 1 0l-3 1a11 11 0 0 1 2-1zm2-23-2 1v-1a17 17 0 0 1 2 0zm-2 0h-2 2zm-2 0h-2 2zm-7 1h-1 1-1a2 2 0 0 1 1 0zm-3 0h-1a1 1 0 0 1 1 0zm1 0h-3a8 8 0 0 1 3 0zm-15 25h-1 1zm-30 2h6-6zm11 19h2a3 3 0 0 1-2 0zm21-18-1-1 1 1zm0-1h1-1zm1 21h1-1zm5 1h2-2zm3 1a10 10 0 0 1-2 0h2s-1 0 0 0zm-1-24v1h-2a2 2 0 0 0 0-1v1l-1-1-1 1a1 1 0 0 1-1 0 2 2 0 0 1 1 0v-1h-1v1h-2 1l-1-1s1 0 0 0a4 4 0 0 0-1 0l-2 1h1l-7 1s0-1 0 0v-2 1h-4a1 1 0 0 0 1 0h-3a34 34 0 0 0-7 0h-5 5l3-1h-1l1 1c2-2 5-1 8-1l5-1 1 1h2s-1 0 0 0l-1 1-1-1v1h2l3-2h-2 6l1-1h5a7 7 0 0 1 4 0h8l-2-1h2a18 18 0 0 0 3 0 8 8 0 0 1 1 1 4 4 0 0 0-1 0l-2 1a2 2 0 0 1 1 0h-1a6 6 0 0 1-3 1h1-2a3 3 0 0 1-1 0h1l-2 1-1-1h-5l-1 1h-1l-2-1zm8 22a10 10 0 0 1 3 0 6 6 0 0 1-3 0zm13 1 1-1-1 1zm22 0 1-1a8 8 0 0 0 2 0l-3 1zm3-1h1a1 1 0 0 1-1 0zm18 2v-1h2l-2 1zm3-1 1 1-1-1zm8 1 1 1h-1a2 2 0 0 1 0-1zm-24 2h-1a1 1 0 0 1 1 0zm-22 2h-1a3 3 0 0 0-1 0 3 3 0 0 0-1 0 1 1 0 0 0-1 0h-3 1l-1-1h6a36 36 0 0 1 8 0l-1 1h1-7zm-9 3h4-4zm-15 2zm0 1h-1a2 2 0 0 1 1 0zm-19 2zm2-1h1zm18 3 1-1a2 2 0 0 0 0 1h-1zm-3 4a2 2 0 0 0 0-1h3l-2-1a3 3 0 0 0-1 0h6v-1h5a5 5 0 0 1 1 0v1h18l17 1-22-1h-9l3 1a1 1 0 0 0-1 1h-1a5 5 0 0 1-1 0v-1l-7-1 4 2h-2a6 6 0 0 0-1 0 4 4 0 0 1-2 0h-8zm33 2h-20l-16-1a7 7 0 0 1 1 0 10 10 0 0 0 2 0 1 1 0 0 0 1 0 2 2 0 0 0 1 0h5a2 2 0 0 0 2 0 5 5 0 0 0 1 0 5 5 0 0 1 2-1 3 3 0 0 0 1 1h1l1-1a5 5 0 0 0 2 1h2v-1h1a4 4 0 0 0 1 0 1 1 0 0 0 1 0v-1h5a2 2 0 0 0-1 0l-1 1h5v-1l17 1v4l-1-1a1 1 0 0 0-1 1 1 1 0 0 0-1 0l-1-1h-2a3 3 0 0 0-1 0 1 1 0 0 0 0 1l-1-1a16 16 0 0 0-2 0 3 3 0 0 1-1 0h-1a2 2 0 0 0-1 0 4 4 0 0 0-1-1zm-5 3h6a9 9 0 0 0 3 1 10 10 0 0 0 2 0 2 2 0 0 0 1 0 2 2 0 0 0 1 0 8 8 0 0 0 3 0v-1l1 1h1a4 4 0 0 1 1 0v2l-2-1a3 3 0 0 0-1 0 8 8 0 0 1-1 0h-1v1h5v2a1 1 0 0 0 2 0 25 25 0 0 1-6 0v-1h-1a5 5 0 0 1-1-1v-1a1 1 0 0 0-1 0 1 1 0 0 0 0-1h-1a2 2 0 0 1-1 1 8 8 0 0 1-2-1 8 8 0 0 0-2 0 4 4 0 0 0-1 0h-1l-12-1h3a33 33 0 0 0 5 0zm5 2a3 3 0 0 1 1 0 8 8 0 0 1 2 0v1h1-5v-1h1zm7 0h-1zm-11 0zm-2 0v1-1zm11 2zm2 0h-1zm-26-4h-1v1a2 2 0 0 1 0-1 3 3 0 0 0-2 0 6 6 0 0 0-2 1v-1h-3a28 28 0 0 1 3 0h6-1zm36 7a22 22 0 0 0-5-1 10 10 0 0 0-2 0l-1 1-1-1a18 18 0 0 0-4 0l1-1h1a1 1 0 0 0 0-1l3 1 10 2zm8 2zm4 0a2 2 0 0 1 2 0 2 2 0 0 0 2 0h1v1h-3a5 5 0 0 1-1 0 2 2 0 0 1-2-1zm8 4a11 11 0 0 0-2-1l7 1h-3l1 1-3-1zm43 3h1l2 1a4 4 0 0 0 1-1 2 2 0 0 1 1 1h-3l1 1h-2zm7 1a4 4 0 0 0 1 1 9 9 0 0 0 1 0h-2a2 2 0 0 0-1-1 2 2 0 0 0 1 0zm91-2a29 29 0 0 1-4 4 34 34 0 0 1-5 1 4 4 0 0 1-1 0l-13 1a18 18 0 0 1-5-1h-5a7 7 0 0 0-3 0 26 26 0 0 0-4 0h-5a26 26 0 0 1-3 0 25 25 0 0 1-3 0l-14-1h-1l-1 1-17-1a1 1 0 0 0 0-1 3 3 0 0 0-2-1h-3a8 8 0 0 1-1-1 2 2 0 0 1-1 0h-2a2 2 0 0 0-1-1h-3a3 3 0 0 0-2 1l1 1h-1l-1 1-16-2a7 7 0 0 1-3 0 27 27 0 0 1-5 0 12 12 0 0 0-3-1 23 23 0 0 1-4-1 51 51 0 0 1-5 0v-1h5l7 1h2v-1h-1a1 1 0 0 0 0-1 1 1 0 0 0-1 0h-1v1a2 2 0 0 1-1 0 3 3 0 0 1-1 0 1 1 0 0 1 0-1l-1-1a1 1 0 0 0-1 0 1 1 0 0 0 0 1 2 2 0 0 0-2-1v1l-1-1h-1a1 1 0 0 1 0 1 1 1 0 0 1-1 0v-1l-3-1h-1v1a1 1 0 0 0 0-1l15 1 5 1h13a13 13 0 0 1 2 0l1 1 3-1a10 10 0 0 0 2 1h9l3 1 1-1h4a6 6 0 0 0 4 0 1 1 0 0 1 1 1h3a2 2 0 0 1 2 1l5-1 3 1h2c1 0 0 0 0 0h6a16 16 0 0 0 2 0l1 1h4c1 1 4-1 5 1l1 2v-8h43a11 11 0 0 1-2 4zm-64-39-1-1 1 1zm-3 0v-2l2 1a2 2 0 0 1-1 2h-2l1-1z" fill="#ffd39a"/><path d="M1025 229zm21-4-1-1 1 1zm4 5zm-11-1h1-1v1-1zm-417-59h2a3 3 0 0 0-2 0zm8 7 2-1-2 1zm4-2-1 1 1-1zm2 1h-2 4-2zm-1-1a4 4 0 0 0 1 0h-1zm3 0a3 3 0 0 0-2 1l2-1zm-2-20h-1v1l1-1zm1 1h1-1zm0-14h2a4 4 0 0 0-2 0zm3 34h2-2zm2-21-1 1h1l1-1h-1zm0-13a23 23 0 0 1 3 0h-3zm6 13h1a1 1 0 0 0-1 0zm2 22h1-1zm10-1h1-1zm1-1h-1 2-1zm9 2a12 12 0 0 1 3 0h-3zm4-21c-3 0-1 1 0 0zm5 21h3-3zm4-18a1 1 0 0 0-1 0h1zm12 0h-1 1zm0 19h1-1zm0-25h-1 1zm2 24h3-3zm5 3h-2a2 2 0 0 0 2 0zm1 0h-1a2 2 0 0 1 1 0zm2-3h-3 3zm0 26h-1 1zm-1-44h-1 1zm5 13h-2 2zm-1 3v1a1 1 0 0 0 1-1h-1zm3-4h1-2 1zm3-12h-2 2zm2 5h-1 1zm4 0h-2a3 3 0 0 0 2 0zm4 20-1-1 1 1zm4-16a8 8 0 0 0 1 0h-1zm3 0h2-2zm4 16 1 1-1-1zm2-16-2 1h1l1-1zm0 0 1 1v-1h2-2a1 1 0 0 1-1 0zm5-20h-1 1zm3 10a2 2 0 0 1 1 0h-1zm5-6a1 1 0 0 0-2 0h2zm1-20h1l-1-1v1zm16 32h-7 7zm-8-21h1-1zm2-5h-1 1zm2 5a2 2 0 0 0-1 0h1zm1-1h1-1zm3-1h-1 1zm2 23-1-1-1 1h2zm2-6c-1 0-2 0-1 1h1v-1zm2 1h1a1 1 0 0 0-1 0zm2-12a2 2 0 0 0-2 0h2zm-1-6h1-1zm1-10h-1 1zm8 57h1c-1 0 0 0 0 0a2 2 0 0 0-1 0zm-1-45a8 8 0 0 1 1 0h-1zm4 48h3-3zm1-5h2-2zm3 5v-1l-1 1h1c1 0 3-1 0 0zm-3-54a2 2 0 0 0 1 0 1 1 0 0 0-1 0zm1 5a1 1 0 0 0 1 1 5 5 0 0 1 1 0 1 1 0 0 1 0-1h-2zm5-1-2-1h1l-3 1a9 9 0 0 0 4 0zm0 50 1-1-1 1zm2-1-1 1 1-1zm1 1h2l-1-1c1 1-2 0-1 1zm1-51a3 3 0 0 1-2 0l1 1 1-1zm1 21-2-1 2 1zm1-21h-2v1a8 8 0 0 0 2-1zm0-2h-1a2 2 0 0 1 1 0zm0 3a3 3 0 0 0 2-1 2 2 0 0 0-2 1zm0 0h2-2zm2-3h2-2zm3 52 1-1h-1v1zm-1-48 2-1s-3 0-2 1zm2-9v-1h-1l1 1zm2 54zm3 0h-1 1zm-1-47h-1s1 0 0 0zm2 1c-1 0-1 1 0 0zm2-6h-2 2zm0 6v-1l-1 1h1s1 0 0 0zm2-1h-3 3zm0 48h2-2zm3-53 3-1h-2l-1 1zm2 5h1-1zm2-7h-1zm1 6c0 1-2 0-1 1l1-1zm-1 1 3 1a5 5 0 0 0-3-1zm0-6h1-1zm1 5h1v-1l-1 1zm1-1a1 1 0 0 0 1-1l-1 1zm1 0 2 1 1-1h-3zm5 26h1-1zm3-26v1h-2l2-1zm1 28a2 2 0 0 0 1 0v-1l-1 1zm2-2a4 4 0 0 0 2-1l-2 1zm4 25h-2 2zm-1-24a2 2 0 0 0 1 0 1 1 0 0 0-1 0zm2-28h-1 1zm2 27s-1 0 0 0h-1a1 1 0 0 0 1 0zm3 25a2 2 0 0 0 1 0h-1zm8-53-1 1 1-1zm2 53v-1l-1 1h1zm10-53h-2 2zm27-5v-1a1 1 0 0 1 0 1h-1 1zm5 59h-2c1 0 1 0 0 0h1zm2 0a9 9 0 0 0-2 0h2zm46-60h1-1zm17-1h3a5 5 0 0 0-3 0zm1 1-1 1 1-1zm1 0h1-1a7 7 0 0 1 2 0l-1-1c1 0 1 0 0 0l-1 1zm3-2-1 1a9 9 0 0 0 2-1h-1zm4 0a4 4 0 0 0 2 0h-2zm5 1h-1 1zm59 59 1 1v-1h-1zm-411-20v1h1l-1-1zm32 11h2a4 4 0 0 0-2 0zm8-3 1-1a15 15 0 0 1-2 0l1 1h1s1 0 0 0h-1zm10 5h2-2zm1-4h1-1zm142-11h-1 1zm5 0zm-2 0a11 11 0 0 0 2 0h-2zm0 0a18 18 0 0 1-3 0h-1 4zm-7-28zm28 51a7 7 0 0 1 2 0h1l-1-1-3 1h1zm-20-56a4 4 0 0 1 3 0h-2 2-1 1l1 1 2-1h-1 2c-1 0-1 1 0 0l3 1a1 1 0 0 1-1 0l1-1 1 1h1l-1-1a6 6 0 0 0 2 0l1 1h-2a3 3 0 0 0 2-1h1v1a3 3 0 0 1 2 0v1h2a6 6 0 0 1 4-1h3l-1-1a2 2 0 0 1 2 0h-1c2 0 0-1-1-1a3 3 0 0 0 3 0l5-1h2a20 20 0 0 0 8-1l-3 1h-1v-1l-23 1-4 1a4 4 0 0 0-2 0l-1-1h-2l2 1-3-1-3 1h-4l1 1zm17 1h2-2zm2 0h1-1zm3 0v-1h3l-3 1zm1-2-2 1 2-1zm-1 1a3 3 0 0 0-2 0h2zm-2 0h-1a2 2 0 0 1 1 0zm-2 0a7 7 0 0 1-2 0h2zm-8 0h-1c-1 0 0 0 0 0h-1a2 2 0 0 1 2 0zm-3 0h-1 1zm-127 44h-2a6 6 0 0 1 2 0zm2-36h-3 3zm12 30v-1l-1 1a2 2 0 0 1 1 0zm7-7v-1 1l-1-1 1 1zm19-8c0-1 3 0 1-1l-1 1zm3-4h-2 2zm-2-20-1-1 3 1v-1a2 2 0 0 0 1 1l4-1s-1 0 0 0h-8v1h1zm0 13h2-2zm2 8 1 1 1-1h-2zm16 5a5 5 0 0 0 2 0 6 6 0 0 0-2 0zm7-17a8 8 0 0 0 2 0h-2zm7-3h-2 2zm2-7h1l-1-1h1l-2 1h1zm14 57h-6 6zm-7-47v-1a1 1 0 0 1-1 1h1c0-1 1 0 0 0z" fill="#ffd39a"/><path d="M790 140h-5v1h4-1l2-1zm1-7 1-1-1 1 10-1h3l-3-1c1 0 0 0 0 0a5 5 0 0 1 1 0 7 7 0 0 0 1 0h2l-2-1-1 1v-1h-1v1l-3-1-1 1h-1l1-1-2 1h1-1v1h-2a2 2 0 0 1-1-1h-1v1a6 6 0 0 1-2 0 1 1 0 0 1-1 0l3 1zm7-1c1 0-1 0 0 0zm-7 56h2-2zm3-47h1l-2-1 1 1zm1 0 1-1-1 1c0-1 0-1 0 0zm2 49v-1h2-2zm4 0h-1l3-1a18 18 0 0 0-5 1h6-3zm3-50h-1s-1 0 0 0h-1s-1 0 0 0l2 1h-1a1 1 0 0 1 1 0v-1h2a2 2 0 0 0-2 0zm2 49-1 1h1a4 4 0 0 1-1-1h1zm3-1h-2 2zm-2-48h-1 2s-1 0 0 0h-1zm3 0h-1 2s-1 0 0 0h-1zm3 19-1 1 1-1zm2 1h-2 2zm2-19h1v-1a20 20 0 0 1-3 1h3-1zm2-3a3 3 0 0 0 2 0h-2zm1-5v-1 1zm2 6a8 8 0 0 1-1-1l1 1zm2-5h-1l1 1 1-1h-1zm0 5h1-1v1h1v-1a2 2 0 0 0 1 0v1a3 3 0 0 1 1 0v-1l-1 1-1-1h-1zm2-5h-2 2zm3 5-1 1-1-1h2zm12 26v-1s1 0 0 0v1zm8-1a1 1 0 0 0-1 0 1 1 0 0 0 1 0zm2 29h-2 2zm19-5h1-1zm12 2a21 21 0 0 0 2 0 3 3 0 0 0-2 0zm8-59-1-1 1 1zm3 59h-1 1c-1 0 1 0 0 0zm7-59h2l-1-1h-2l1 1zm1-13h1l-2 1 1-1zm22 11h1-1zm22 1-1-1h2-3l2 1zm4 1v-2l-1 1 1 1zm3-1v-1h1v1l1-1a1 1 0 0 0 1 0h-3v1zm8-6h-1 1zm7 6c-2 1 0 1 0 0zm1 0h-1s1 0 0 0a6 6 0 0 0 3 0v-1a1 1 0 0 1-1 0l-1 1zm3 1 1-1v1l1-1h15c-1-1 0 0 0 0l-1-1v1l-1-1a54 54 0 0 1-9 1h-2v-1 1a14 14 0 0 0-5 1h1zm28-6h1v-1h2l-1-1-2 1h-1a2 2 0 0 1 1 1zm-4 58h1-1c1 0 1 0 0 0zm18 5a4 4 0 0 0-1 0l-1 1v1l2-1h-1l1-1zm21 0-1-1-2 1 1-1-1-1a10 10 0 0 1 2-1h-1c-3 0-4 1-5 2a5 5 0 0 0-2 0v-1l-2-1h-7l2 1 1 1 1-1 1 1h2a1 1 0 0 1 0 1h1l3 2c-1 0 0 0 0 0h4c-2 0-3 1-4-1l5-1h2zm-379-17h-2a1 1 0 0 1-1 0 3 3 0 0 1 2 1l1-1c-1 1 0 0 0 0zm127-40 1-1 1 1h3l-1-1-2 1v-1l-2 1a2 2 0 0 0-1-1l1 1zm40 6-1 1h2l-1-1zm168-9 2-1h1s1 0 0 0a1 1 0 0 0 1 0h2v-1a24 24 0 0 0-4-1h-6a2 2 0 0 0-1 3 6 6 0 0 0 5 0zm-145 62h-1a1 1 0 0 0-1 1 1 1 0 0 0 0 1 3 3 0 0 0 1 0 2 2 0 0 0 2-1 1 1 0 0 0-1-1zm-13 2a2 2 0 0 0 1 0 2 2 0 0 0 1 0v-1a1 1 0 0 0-1 0h-2a1 1 0 0 0 1 1zm-8 0v-1h-4l4 2v-1zm5 1h-3v1h2a8 8 0 0 0 1 0 2 2 0 0 0 1 0l2-1h-2a6 6 0 0 1-1 0zm9 2h-1v1h1v-1zm-11 2v1h2v-1h-2zm30 3 1-1a4 4 0 0 1 1 0 2 2 0 0 1 1 1 4 4 0 0 0 1 0 2 2 0 0 0 1 0 4 4 0 0 0 1 0h1-1l4-1a1 1 0 0 0 1 1 14 14 0 0 0 3-1h2a2 2 0 0 0 1 1h1a2 2 0 0 1 1 0l4-1h-1a6 6 0 0 0-3-1 34 34 0 0 0-3 0h-7a12 12 0 0 0-1 0 4 4 0 0 1-2 0l-1-1v1h-5v1zm20-1zm-16 0h1a1 1 0 0 1-1 0zm-6 0h1v1h-1zm-39 1a1 1 0 0 0-1 0 1 1 0 0 0-1 0 1 1 0 0 0 0 1 1 1 0 0 0 1 0 1 1 0 0 0 1 0 1 1 0 0 0 0-1zm-5 0a2 2 0 0 0-1 0 1 1 0 0 0-1 0l-3 1h4a1 1 0 0 0 1 0 2 2 0 0 0 0-1zm51 2h1a1 1 0 0 0 1-1 1 1 0 0 0-1 0v-1a1 1 0 0 0-1 1l-1-1-1 2v1a2 2 0 0 0 1 0h3l-2-1zm-69 0v1h9v-1a20 20 0 0 0-4 0h-5zm21 1a5 5 0 0 0-2-1h-7v1l10 1zm9 1a11 11 0 0 1 2 0 11 11 0 0 0 1 0 2 2 0 0 0 1 0 1 1 0 0 0 0-1 1 1 0 0 0 1 0v-1h-7a18 18 0 0 0-3 0l-2 1h2l1 1a5 5 0 0 0 1 0l-1 1h2a1 1 0 0 0 1 0h1v-1zm-1-1a2 2 0 0 0-1 0h1zm8 2h-1l-1 1h4l-2-1zm-11 1v-1h-10l-2 1h12zm11 3v-2h-1a2 2 0 0 0-1 0 1 1 0 0 1 0 1v-1h-1a66 66 0 0 0-9 0h-2l-1 1v-1a2 2 0 0 0-1-1 4 4 0 0 0-1 0l-4 1h-1v1h8l11 1h2zm-9 1-2 1h4l-1-1h-1zm11 1a3 3 0 0 0-1-1v1l-1 1h2a2 2 0 0 0 1 0 1 1 0 0 0 0-1l2-1-2 1zm-4 0h2v-1h-2v1zm37 6a23 23 0 0 0-4 0 5 5 0 0 0-3 0l-2 1h3l4 1a8 8 0 0 0 2-1h2zm11 5h-3a3 3 0 0 0-1 0v1a4 4 0 0 1 1 0 4 4 0 0 0 2 0 2 2 0 0 0 1 0v-1zm12 1v1a6 6 0 0 1 1 0 6 6 0 0 0 2 0 3 3 0 0 0 1 0l1-1h-1zm48 3a3 3 0 0 0-2 0h-2a2 2 0 0 1-1 0 6 6 0 0 1-2 0 18 18 0 0 1-2 0h-2v1h2a39 39 0 0 0 6 1 8 8 0 0 0 3-1h1-1a2 2 0 0 0 0-1zm-4 1h2a2 2 0 0 1 1 0 7 7 0 0 1-2 0 12 12 0 0 1-1 0zm39 3-4 1h7v-1a9 9 0 0 0-2 0 6 6 0 0 0-1 0zm14 2a1 1 0 0 0-1 0v1h2l-1-1z" fill="#ffd39a"/></g><g data-name="Layer 6"><path d="M1160 222c-20-1-41-1-62 1a8 8 0 0 0 0-8c-4-8-15-5-32-2s-59 19-59 19a2077 2077 0 0 0-230 48h383zm-720 58-10-5-5-1c15-3 0-14-12-15l-26-1c-54-18-118-30-191-40a98 98 0 0 0 15-7c4-3 1-10-18-2-10 3-9 2-14 1s-12 1-12 1a66 66 0 0 0 8-6c5-5 2-7-10-6s-28 12-28 12l-62-7a566 566 0 0 0-75-3v79z" fill="#685384"/><path d="M81 253s31-16 94-18 107 9 107 9-55-6-109-3c-46 2-92 12-92 12zm327 27a476 476 0 0 0-45-17c-38-12-65-13-65-13a1584 1584 0 0 0 97 30z" fill="#8066a5"/><path d="M196 218a98 98 0 0 0 15-7c4-3 1-10-18-2-10 3-9 2-14 1s-12 1-12 1a66 66 0 0 0 8-6c5-5 2-7-10-6s-28 12-28 12l-62-7" fill="#51387a"/><path d="M196 218a98 98 0 0 0 15-7c4-3 1-10-18-2-10 3-9 2-14 1s-12 1-12 1a66 66 0 0 0 8-6c5-5 2-7-10-6s-28 12-28 12l-62-7" fill="url(#b)"/><path d="M0 225c84-9 196-7 196-7a98 98 0 0 0 15-7c4-3 1-10-19-2-9 3-8 2-13 1s-12 1-12 1a66 66 0 0 0 8-6c5-5 2-7-10-6s-29 12-29 12l-62-7a567 567 0 0 0-74-3" fill="#51387a"/><path d="m973 280 5-2c53-22 132-20 132-20s-38-5-75 0a447 447 0 0 0-90 22z" fill="#8066a5"/><path d="M777 280a2121 2121 0 0 1 230-48c28-4 42-16 59-19s28-6 32 2a8 8 0 0 1 0 8c21-2 42-2 62-1v16a1225 1225 0 0 0-282 42z" fill="#51387a"/></g><path fill="url(#c)" d="M0 0h1160v280H0z" data-name="Layer 7"/><g data-name="Layer 4"><path d="M467 127a2 2 0 0 1-2 1l2-1zm-7-6h-1 1zm-2 1h-2 2zm-2-1h-3 3zm0 1h-1a4 4 0 0 1 1 0zm-1 0a2 2 0 0 1-2 0h2zm1 20h-1 1zm-2-1h-1 1zm-1 14a3 3 0 0 1-1 0h1zm-2-34h-2 2zm-2 20h1v1h-2l1-1zm0 14h-3a21 21 0 0 0 3 0zm-5-13a1 1 0 0 1-1 0h1zm-1-22h-1 1zm-9 1h-1 1zm0 1h-2zm-9-2h-2a10 10 0 0 0 2 0zm-8-1h-2 2zm-3 18a1 1 0 0 1 0 1v-1zm-10 0-1 1 1-1zm-1-18h-1 1zm0 25-1-1 1 1zm-1-25h-3 3zm-3-2-2-1 2 1zm-2-1-1 1v-1a1 1 0 0 0 1 0zm0 3h-3 3zm-2-26c1 0 0 0 0 0-2 0 0 0 0 0zm1 44h-1 1zm-4-13h-1 1zm0-3s-1 0 0 0h-1a1 1 0 0 1 1-1v1zm-3 4h-1 1zm-2 12h-1 1zm-2-5c0-1 0-1 0 0zm-3 0h-2a3 3 0 0 1 2 0zm-3-20h-1 1zm-5 16h-2 2zm-2 0h-2 2zm-4-17h-1 1zm0 16h-2s1 0 0 0h2zm-3 0c-1 0 0 0 0 0h1a1 1 0 0 0-1 0zM365 127h-2 2zm-3 20h-1 1zm-3-10h-1a1 1 0 0 0 1 0zm-3 6a1 1 0 0 1-1 0h1zm-3 21-1-1h1v1zm-7-33h-7 7zm0 21zm-1 5h-1 1zm-2-5a2 2 0 0 1-1 0h1zm-2 1c1 1-1 1 0 0 0 0 0 1 0 0zm-1 0h-1 1zm-1-22h-2 2zm-2 5c1 1-1 1-1 1v-1h1zm-3 0a1 1 0 0 1-1 0h1zm-1 11a2 2 0 0 1-1 1l1-1zm0 7h-1 1zm0 10h-1 1zm-7-58a2 2 0 0 1-1 1v-1a1 1 0 0 1 1 0zm0 46h-1a6 6 0 0 0 1 0zm-3-48h-2 2zm-1 4h-2 2zm-2-4c1 0-1 0 0 0h-1c-2 0-1 0 0 0h1zm1 53a1 1 0 0 1-1 1 2 2 0 0 1 1-1zm-1-5h-1a4 4 0 0 0 1 0zm0 2h-3 1-2a7 7 0 0 1 4 0zm-3-50h-1 1zm-1 0h-1 1zm-1 0h-2s-1 0 0 0h2zm-1 50a3 3 0 0 0-2 0h2zm-1-20h-1 1zm-1 20h-1a7 7 0 0 1 1 0zm0 2h-1a2 2 0 0 0 1 0zm-1-2a1 1 0 0 1-2 0 2 2 0 0 1 2 0zm-1-1h-1 1zm-1 3h-2 2zm-2-51v-1 1zm1 48h-2 2zm-2 9zm-1-55h-1 1zm-2 0h-1 1zm0 47v1l-1-1zm-3-1h1-1c1-1 1 0 0 0zm0 6h-2 2zm-1-6-1 1v-1s1 0 0 0h1zm0 2h-2 2zm-1-49h-2 2zm-4 53-1 1h-2l3-1zm-1-5h-1 1zm-2 7c1 0-1 0 0 0zm0-7-2 1 2-1zm0 0a4 4 0 0 1-3-1l3 1zm0 6h-1 1zm-1-5-1 1v-1h1zm-1 1-1 1a1 1 0 0 1 1-1zm-1 0h-2v-1l2 1zm-4-26h-1 1zm-1 25h-2 2zm-2-27-1 1v-1a1 1 0 0 1 1 0zm-2 2h-2 2zm-2-25h-1 1zm-1 24h-1a2 2 0 0 1 1 0zm-1 27-1 1 1-1zm-1-27-1 1a1 1 0 0 1 1-1zm-4-24h-1a2 2 0 0 1 1 0zm0-5-2 1 2-1zm-3 30h-2 2zm-1-30h-1 1zm-1 0h-1 1zm-2 57h-1 1zm-1-52h-1 1zm-1-4h-1v-1l1 1zm0 1h-1 1zm-2-2h-1c-1 0 0 0 0 0h1zm-2 2v1l-2-1h2zm-4-2h-2 2zm1 57h-2s1 1 0 0h2zm-17-57h-1c0 1 0 0 0 0a2 2 0 0 1 1 0zm-9 0h-1 1zm1 62h-1a1 1 0 0 0 0 1v-1h1zm-3-59s-1 0 0 0h-1 1zm-1-2h-1 1zm0 2a8 8 0 0 1-2 0h2zm-8-5-2 1 2-1zm0 2h-1 1zm-1-2-1-1 1 1zm-2 2a3 3 0 0 1-2 0v-1h1l1 1zm-6 0v1l-1-1h1zm-3-1-1 1 1-1zm0-2h-1zm-7 65h-2 2zm-3-68h-1 1zm-13 68h-1 1zm-15 1v1a4 4 0 0 1-3 0l3-1zm-1-1h-1 1zm-2 1h-1 1l-1-1a5 5 0 0 0 2 0 1 1 0 0 1 0 1h-1zm-1 1h-2 2zm-2-70h-2 2zm-3 70h-1a4 4 0 0 1 1 0zm-3-1h-1 1zm-1-2h-1 1zm-5-69h-1 1zm1 56v1h-2l2-1zm-6 5h-1 1zm-1 0h-1 1zm-1 4h-2s1 0 0 0h2zm-6-13h-2 1l-1 1a4 4 0 0 0-2 0h1v-1a6 6 0 0 0 3 0zm-4-52-1 1v-1h1zm-4 2-1 1v-1h1zM127 93l-2 1h1l1 1h-3a1 1 0 0 0 0-1 5 5 0 0 1 1-1 1 1 0 0 1 1 0h1zm-2 4-1-1h1v1zm-4 53v1-1zm-1 7-1-1 1 1zm-5 2h-1l-1 1v-1h1a4 4 0 0 1 1 0zm-2-13h-2 2zm-5-3a14 14 0 0 1-1 1l1-1zm-1-17v1h-1l1-1zm-1-1-1 1v-1h1zm-3-33h-2 2zm-1 0-3-1 3 1zm-1 44h-1 1zm-3-42-1 1v-1a1 1 0 0 0 1 0zm0 37a4 4 0 0 1-4-1l4 1zm-6-4h-2v-1a5 5 0 0 1 2 1zm-4-26-3-1 3 1zm-22 2v1l-1-1h1zm398 26h1-1v-1a1 1 0 0 0 0 1zm-27-11a3 3 0 0 1-3 0zm-8 2 1 1s-1 0 0 0a11 11 0 0 0-1 1v-1h-1l1-1zm-8-5-2 1 2-1zm-2 5h1-2z" fill="#ffb585" fill-rule="evenodd"/><path d="M399 114a16 16 0 0 0-4 0l-4-1-1 1a15 15 0 0 0-1-1 1 1 0 0 1-2 0h1a4 4 0 0 0 2 0 14 14 0 0 0-3 0h-1s1 0 0 0a7 7 0 0 0-4 0l-5-1a6 6 0 0 1-4-1v1h-5c0-1 2 0 1-1h-6l1-1a10 10 0 0 0-2 0h-4s1 0 0 0h-1c1 0 1 0 0 0h-36s1 0 0 0l-5-1h-2 2-8l-3-1a2 2 0 0 1-2 0h3l-1-1a2 2 0 0 1-2 0h-1l1 1a7 7 0 0 1-4 0 1 1 0 0 0 1-1l-2 1h1a4 4 0 0 1-3 0l1-1-1 1-5-1h-2l1-1a7 7 0 0 1-3 0h-3a7 7 0 0 1 3 0l3-1v1a11 11 0 0 0 1-1h14-2 1-1 2v-1h-2l-8 1h-1a2 2 0 0 1-1-1l-3 1h-5c0-1 0 0 0 0l-4-1a3 3 0 0 1-1 1h-3l3 1s1 0 0 0h-4 1-2 1a2 2 0 0 0-1 0s1 0 0 0h-1l-4-1a18 18 0 0 1-5 1v-1l-1 1v-1a1 1 0 0 1-1 0l1 1h-4v-1l-1 1v-1h-3v1h-7v-1c-1 1-6 2-5 0 0 1 0 1 0 0l-2 1a2 2 0 0 0 0-1h-4l1-1-7 1h1-8l5-1v-1l-4 1h-8l1-1v1l3-1c-1 0 0 0 0 0h-3l-3-1h4-2v-1h-11l-1-1h-4a3 3 0 0 1-1 0v3h8v1h-1v-1h-2l1 1h-4v-1a6 6 0 0 1-4 0h-2l-1 1-1-1s1 0 0 0a5 5 0 0 0-3 1l-1-1h1l-2 1-1-1h2l-2-1-4-1h-2 2a1 1 0 0 1 0-1h1l1-1h-2a3 3 0 0 1 3 0h-1l1 1 1-1h7-1 2l1 1 1-1v1h4c2-2 5 0 7-1v1a5 5 0 0 1 1 0l-1-1h1l-2-1v1l-1-1h-3 1-10a8 8 0 0 0-2 0v-1l-1 1v-1a12 12 0 0 0-2 1v-1h-5c1 0 0 0 0 0v1l-1-1c-1 0 0 0 0 0a9 9 0 0 0-2-1h6-2l3-1h-1 6a3 3 0 0 1-2-1s1 0 0 0a7 7 0 0 1-2 1h-1v-1l-1 1a1 1 0 0 0 0-1 3 3 0 0 0-1 0l-7 1h-2v1h-1v-1h-3a1 1 0 0 1-1 0 3 3 0 0 0 1-1l-2 1h1a4 4 0 0 0-1 0h-1v-1 1h-2l1-1-1 1-1-1-4 1h1-4l-1-1v1a12 12 0 0 1-2 0l-2-1a21 21 0 0 0-5-1c1 0-1 0 0 0a4 4 0 0 1-2 0s0 1 0 0h-1l-1-1v1h-1a1 1 0 0 0 1-1c-1 0-1 0 0 0a3 3 0 0 1-2 0v1l1 1a19 19 0 0 1-8-2 1 1 0 0 0 0-1c-1 3-4 0-6 1l1 2c-2-1-2 0-2 1a23 23 0 0 1-3 0l-2 1a1 1 0 0 1 0 1h-1v1l-1-1 1 1 1 1a3 3 0 0 1-1 0l1 1h-5a2 2 0 0 0 1-1l-2 1a8 8 0 0 1 5-1h-5a5 5 0 0 0-3 0h-5v-1l5-2-1-1-9 2v3l-1 3h1-1l1 1 3 7 3 2v1l1 1h-1 1l2 3h-5l-1-1 1-1a11 11 0 0 0-4-1l-4-1h1a17 17 0 0 1-6-1l-4-2-2-1v-2l-2-1-2 1 1-1-1-2h-2l-1 1c-2 0-3-3-4-1h1a16 16 0 0 0 3 2v1l2-1a1 1 0 0 0 1 1v1l-1 1a26 26 0 0 0-5-1l4 1 1 2h1c0 1 2 2 1 4l-4 1v2h-1c0 2 2 1 2 3h-4v2l2 1c1 0 1-2 3-2 1 2 6 1 7 2v-1a3 3 0 0 1 2 1v-1l6-1v-1l9-1a8 8 0 0 0 2 0l6 1v2h1l1 1 1 1h1c-1 0 0 0 0 0h-1l1 1 1 1a6 6 0 0 0-3 0l-3-2a1 1 0 0 0 1 0h-1l-4-2h-2l-1 1v2h-1 1-1c0 2 2 2 3 2h-6v-1l-4 2a7 7 0 0 1-3 1l-1 1c-2 0 0 2 0 3l1 1v1h-1l1 1a3 3 0 0 1 3 1l1 1-3-1h1v1h2v1a17 17 0 0 0 3 0l-1 1 5 2-3 1-1 1h11l3-1 7-1v1l4-1h-8l3-1h5l-1-1 4-1v1h1-1l1 1-1 1a1 1 0 0 1 1 0l-1 1a4 4 0 0 1 2 0l1-1a1 1 0 0 1-1 1s-1 0 0 0h3l-3 1 3 1 4 1-2-1h1l-1-1 2 1v-1h-2l3-1a1 1 0 0 0 2 0s-1 0 0 0a33 33 0 0 0 5 0l-1 1h1l-1 1h-3 2v3h-9l-4-1s-1 0 0 0a6 6 0 0 1-4-1h-5s-1 0 0 0l2 1h3l1 1v-1a16 16 0 0 1 2 0v1h1c-1 1 1 0 2 1v-1 1h23a6 6 0 0 1 3 0h1l-2 1v1l-5 1v-1h-3l-1 1-1-1h-1l-1 1v-1l-2 1v-1l-1 1-2-1a22 22 0 0 1-4 1 5 5 0 0 0-2 0 29 29 0 0 1-4 0l-1 1c0-1 0-1 0 0l-1-1c1 1-1 1-1 1v-1l-1 1h4-4v1h4c-1 0 0 0 0 0h2-1 3l-1 1 1-1v1h11-1 1v1l2-1h6-1v1h1a1 1 0 0 0 0-1h1a1 1 0 0 0 0 1 15 15 0 0 1-6 0h-10 1-2a4 4 0 0 1-2 0h1-3l-7-1c0 1 0 0 0 0v1h-1l-1-1-1 1-2-1h-8l3 1h7l-1 1h5l3-1h-1l1 1h-1 2s-1 0 0 0v1l1-1v1a6 6 0 0 0 1 0h1-1l3 1v-1l2 1v-1c1 0 2 0 1 1 0 0-1 0 0 0l2-1v1h1a9 9 0 0 0 2 0v-1l8 1v-1h2a4 4 0 0 1 2 1l-2 1c1-1 2-2 3-1v-1a1 1 0 0 0 1 0l1 1 3-1a28 28 0 0 0 9 0h2a4 4 0 0 1 1 0h5-1v1a12 12 0 0 1 5-1h6l-1 1h2-1 3l-1 1c2-1 4 1 5-1v1h1a3 3 0 0 0 2 0l-2-1h3l-1 1h1s-1 0 0 0l3 1-1-1a2 2 0 0 0 1 0v1l1-1 1 1h2a1 1 0 0 1 1 0h1l3-1h1v-1a2 2 0 0 0 1 1c1 0 0 0 0 0h2l3-1 1 1v-1h5-1 2-1 3c-1 0-2 2-3 1h-1v1-1l1 1h-1 5l5-1 1-1v1h4l4-1a2 2 0 0 1-2 0h4l3 1 7-1s0 1 0 0h1s-1 0 0 0a1 1 0 0 1 1 0s-1 0 0 0a9 9 0 0 1 2 0l-1-1 11-1h-1 7l1-1 1 1h10a11 11 0 0 1 1-1v1l9-1c1 1 4-1 4 1v-1h5a26 26 0 0 1 2 0h4l-2-1h1-4a3 3 0 0 0-2 0h-13 2l-4-1v1h-5 1-7v1l-1-1c0-1 0 0 0 0h-10a30 30 0 0 0-5 0l-7 1h-1s1 0 0 0a2 2 0 0 1-1-1 2 2 0 0 1-1 1h1-2l1-1-3 1a9 9 0 0 1 2 0 6 6 0 0 0-2 0h-3c0-1 1 0 0 0h-5a8 8 0 0 0-2 0h-1l-2 1 1-1a1 1 0 0 0 1 0v-1 1l4-1v1-1h3s-1 0 0 0l3-1c1 0-1 0 0 0l2 1 3-1h9l2 1c-1 0 0 0 0 0v-1h4c1 0 0 0 0 0h2-1 2l3-2a2 2 0 0 0 2 1 3 3 0 0 1-3-1h1-2 1a11 11 0 0 1-3 0h6v-1h2a7 7 0 0 0 1 0h10l-1-1h2l1 1v-1l2 1h-1l2-1-1 1-1-1a6 6 0 0 0 2 0h6l-1-1 5-1v1l2-1 9 1h6v-1h7l-2-1h-3l1-1a8 8 0 0 1-3 0h2a19 19 0 0 0-3-1c1 0 0 0 0 0h1v-1h1v1h2v-1a2 2 0 0 0 1 0 4 4 0 0 0 2-1h3-14 2v-1c8 1 16-1 25-1h3l1-1h-1v-1h4l-4-1c1 0 1-1 0 0h-1l2-1-1-1h-15a11 11 0 0 1-3 0h-1c1 0 0 0 0 0a3 3 0 0 0 1 0v-1l2-1h-1l-2 2-1-1h-4l1-1v-1a15 15 0 0 1-3 1c-8-2-17 0-25-1l-6 1a5 5 0 0 1-4 0l-3 1v-1h2a1 1 0 0 1 1 0h-1l1-1 1 1h-1a17 17 0 0 0 3 0h-2v-1h-2 3a15 15 0 0 0 2 0h2-5a2 2 0 0 0 1-1l-1 1 1-1h-3 4l-3-1h4c-2-1-4 0-5 1v-1l-7-1a13 13 0 0 1 5 0s-1 0 0 0l6-1v1l4-1h-1a21 21 0 0 0 8 0h9v-1h21v-1l8 1h1l-1-1a8 8 0 0 0 5 1 4 4 0 0 1 3 0v-1l1 1a1 1 0 0 1 1 0l1-1a174 174 0 0 0 21 0 157 157 0 0 0-17 0h-34v-1a6 6 0 0 1-3 0v1h-1l-2-1v1h-2 2l-4-1h11-1a16 16 0 0 0 3 0l-1-1 9 1h17-1a23 23 0 0 1 4 0l5-1h-3l3-1h5a4 4 0 0 0 2 0h-2l9-1 2-1h2a18 18 0 0 0 4 0l-2-1h1a4 4 0 0 1-2-1h3l3-1h2l2-1h-1a2 2 0 0 1 1-1 4 4 0 0 0 2-1h4l-2-1h1-2 1v-1h-1v1h-2l5-1 1-1h-2 2v-1zm-81 43h-1 1zm-24 1-2 1a1 1 0 0 0 0-1h2zm-61 5v-1h1l-1 1h1-1zm-94-16s0-1 0 0v-1 1zm-15-46-2-1 2 1zm151 5a7 7 0 0 1-3 0 4 4 0 0 1 3 0zm122 9v1l-1-1h1zm-6 4-2 1 1-1h1zm-9 4h-1a6 6 0 0 0 1 0zm-18-12h-1a3 3 0 0 0 1 0zm-4 0s-1 0 0 0h-2a4 4 0 0 0 2 0zm-31 39h-1 1zm-7-21c1 0 0 0 0 0 0-1 0 0 0 0zm-18 0h1-8l-5 1h-2v-1l1-1v1h1l-2-1h2a9 9 0 0 0-2 0l-2 2h1-6v1l-4-1a5 5 0 0 1-4 1h-7 1l-1 1c-2-1-5 1-7-1a3 3 0 0 0 2 0h-2a1 1 0 0 1-1 0v-1h3a4 4 0 0 0-3 0 15 15 0 0 1 7 0l-1-1 4-1v1h-1l1-1a7 7 0 0 1 1 0l-1 1 3-1v1h5v-1h4s-1 0 0 0h1a2 2 0 0 0 0 1v-1l1 1 1-1h-1v1h2v-1h2-1v1-1a4 4 0 0 0 1 1c1 0 0 0 0 0l2-1h-1l6-1h1l-1 2v-1h-3 3l1 1v-1h3a1 1 0 0 0-1 0h3a27 27 0 0 0 6 0v1a17 17 0 0 1 4-1l-4 1h-3zm12-1-5 1 5-1zm-9-19h-2a3 3 0 0 1 2 0zm-16 21h-1zm-2-25h-2 2zm0 23v-1 1zm-1 0zm0-21h-1 1zm-5-1h-1 1zm0 26h-1 1zm-1-27h-1c-1 0 0 0 0 0a7 7 0 0 1 1 0zm-2 50h-1 1zm-1 0a7 7 0 0 1-2 0h2zm-1 3-1-1s2 0 1 1zm0-3a1 1 0 0 1-1 0h1zm-2 0a1 1 0 0 1-2 0h1-1 2zm-5 1h-2 2zm-1-1h-2 1a3 3 0 0 0 1 0zm-1-23a12 12 0 0 1-3 1v-1a24 24 0 0 0 3 0zm0 24h-2 2zm-1-1h-1a1 1 0 0 1 1 0zm-1 0a13 13 0 0 1-2 0h2zm-4-49h-1 1zm0 49h-4l1 1h-2v-1h5zm-3-25-2 1 2-1zm-2 1c0 1-3 0-1 1a1 1 0 0 1 1-1zm-2 25h-1 1zm-1-1-1 1a1 1 0 0 0 0-1zm-4 2h-1 1zm-1 0s-1 0 0 0h-1a1 1 0 0 1 1 0zm-4 1h-1 1zm0 4-2-1 2 1zm-1-4v1h-2a4 4 0 0 1 2-1zm-2-52a6 6 0 0 0-2 0h2zm1 55h-1 1zm0-3h-2 2zm-3-52h-1a1 1 0 0 1 1 0zm0 53-1 1a1 1 0 0 1 1-1zm-3 1-3 1 1-1h2zm0 0h1a4 4 0 0 0-1 0zm-2 3h-1 1zm-11-59v1h-1l1-1zm0 56-1 1h-2v-1h3zm-2-55-2-1 2 1zm-1 56a2 2 0 0 1-3 0 2 2 0 0 1-2 0l2-1a27 27 0 0 1 3 1zm-1-2h-1 1zm-1 0h-2a6 6 0 0 1 2 0zm-3-57a1 1 0 0 1-1 0h1zm1 60h-1c1 0 0 0 0 0h1zm0-2v1h-1l1-1zm-2-58h-1a1 1 0 0 1 1 0zm-1 1c0 1 0 0 0 0zm-1 1h-1 1zm-1 0h-1 1zm0 59-1-1s1 0 0 0h1l-1 1h1zm-2-62s-1 1 0 0zm0 3a1 1 0 0 1-1 0 1 1 0 0 1 1-1zm-1 58v-1s0 1 0 0v1zm-1 0v-1 1zm-2-60h-1 1zm-1 56-5 1 5-1zm-1 1a2 2 0 0 1-1 0h1zm-1 0v1l-1-1zm-1 2h-1 1zm-3-2h-1 1zm-7-61a1 1 0 0 1-2 0h2zm-15 59c-1-1 0-1 2-1l-1-1h1v1l3-1 1 1v-1h2s-1 1 0 0a3 3 0 0 0 1 0 1 1 0 0 1 0 1l1-1a1 1 0 0 1 1 1h-11v1zm9-62a1 1 0 0 1-1 0h1zm-1-1c0 1 0 1 0 0zm1 9h-2a3 3 0 0 0 1 0zm-1-8-3 1a1 1 0 0 0 0-1h3zm0 59h-1 1zm-1-54a1 1 0 0 0-1 1v-1h1zm-1 1v1l-2-1h2zm-2 1h-4v-1h3c1 0 0 0 0 0l1 1zm1 51h-1 1zm-2-3h-6c-1 0 0 0 0 0h-2l8-1v1zm0 7h-1v-1l1 1zm-3-56-1 1v-1h1zm-1 54v1a13 13 0 0 1-2 0l2-1zm-4 3a30 30 0 0 1-9 0 5 5 0 0 1-1 0l1-1 7-1a2 2 0 0 1 1 1v-1l1 1a5 5 0 0 1 2 0h-1a2 2 0 0 1 2 0s-1 0 0 0l-3 1h4-4zm4-5h-1 1zm-2 1a22 22 0 0 0-3 0c-1-1 3-1 3-1v1zm-1 2h-2 2zm-6-6h-1l3-1a1 1 0 0 1 0 1c1 0 0 0 0 0l2-1h1l-1 1h2-7 1zm4 5c1 0 0 0 0 0 0 1 0 0 0 0zm0 0h-3 3zm-3-9h-2 2zm-2 0h-1c1 0 1 0 0 0l1-1v1zm1 9-5 1 4-1h1zm-5-10h-2a2 2 0 0 1-1 0v-1 1-1a10 10 0 0 1 4 0l-1 1h1s1 0 0 0h-1 2l2 1-8 1v-1l-1 1v-1l-1 1v-1h1a1 1 0 0 1-1-1h2a17 17 0 0 0 4 0zm-1 12v-1a17 17 0 0 0 2 0h3l-5 1zm1 0h-1 1zm-1-1-1 1v-1l-3-1a4 4 0 0 0 3 0h-1l2 1zm-5 0h-1a1 1 0 0 1 1 0zm-5-62-1-1 1 1zm-5 1h-4v-1a7 7 0 0 1 3 0v1a4 4 0 0 1 1 0zm-2 58-1 1 1-1zm0 3h-1 1zm-6-2-1 1 1-1zm-6-52h-1a1 1 0 0 1-1-2l2 2zm-5 40h-1a2 2 0 0 1 1 0zm-11-39-1 1v1h-1a2 2 0 0 1 0-2h2zm-1 24h-1l1-1v1zm-2-23h-1 1zm0 40h-1 1zm-7-2v-1 1z" fill="#ffb585" fill-rule="evenodd"/><path d="M271 105a6 6 0 0 0 3 0s0-1 0 0h-3l1 1-1-1s1 0 0 0zm-2 56-1 1a2 2 0 0 0-2 0h-5s-2 0-1 1a16 16 0 0 0-7 0h23l4-1a3 3 0 0 0 2 0v1h2l-2-1 3 1 3-1h3-1 1l-1-1a3 3 0 0 1-2 1l1-1h-1 1-1c-1 0 0 0 0 0l-1-1-2 1h1-2l1-1h-3v1l-1-1h-1l1 1a5 5 0 0 0-2 0v-1h1a2 2 0 0 0-2 0l-1 1v-1a2 2 0 0 1-2 0v-1h-1a5 5 0 0 1-4 0l-2 1h1l-2 1 1-1c-2 1 0 1 1 1zm16 0h-1 1zm-1 0h-2 1-1 2zm-8 0h-2 2zm-1-1h-1 1zm-1 1a2 2 0 0 1-1 0h1zm-1-1zm0 1-2-1a3 3 0 0 0 2 1zm-1 0h-2 2zm-1-1v1l-2-1h2zm128-41h-2a4 4 0 0 0 2 0zm-2 36h-2 2zm-11-30h-2a2 2 0 0 0 2 0zm-8 7h1-1c-1 0 0 0 0 0zm-17 7v1c-3 0 0 0 0-1zm0 4s-1 0 0 0h-2 2zm-3 21h3-1 1-4c1 0 0 0 0 0h-3s1 0 0 0h-1l4-1a2 2 0 0 1 1 1zm3-14h-2 1zm-3-8h-1s1 0 0 0h1zm-13-5a5 5 0 0 1-2 0 4 4 0 0 1 2 0zm-7 16-1 1 1-1zm-5 4h-1 1zm-3 7h1l-2 1 1-1zm-6-58-5 1v-1h5zm0 48c-1 0 0 0 0 0h1a1 1 0 0 0-1 0zm-4 0h-1 4-3zm-2 8h-11v1h2c0-1 0 1 0 0v1a4 4 0 0 1-1-1 5 5 0 0 0-1 0h-1l1 1h6v-1 1s-1 0 0 0h1l-1-1h2l1-1a2 2 0 0 1 1 1h1-1a5 5 0 0 1 3 0 1 1 0 0 1 1-1h-3zm-6 0v1a1 1 0 0 1-1 0l1-1zm6-55h-1l1-1v1zm-3 47h1-1zm0 0h-1c-1 0 0 0 0 0h1zm-2-49h-2 2zm-2 0-1-1h-3 5a14 14 0 0 1-4 1h3zm-3 49c1 0 0 0 0 0h-1c1 0 0 0 0 0s0 1 0 0c-1 0 0 0 0 0a2 2 0 0 1-2 0h1l1-1a1 1 0 0 0 0 1h1zm-2-49a3 3 0 0 0-1 0l1-1v1c-1 0 0 0 0 0zm-2 1h-1 1zm0 48c-1 0 0 0 0 0h-1c1 0 0 0 0 0h1zm-3 0h1l-1 1-1-1h1zm-2-19 1-1-1 1zm0-1h-2 2zm-3 19s1 0 0 0a16 16 0 0 0-2 1v-1h1-1 2zm-2 4h-2a2 2 0 0 1 2 0zm-2 4 1 1h-1v-1zm0-5-2-1 2 1zm-3 4h-1v-1l1 1zm0-5h-1l-1-1-1 1v-1a2 2 0 0 0 1 0v1a1 1 0 0 1 1 0v-1s-1 0 0 0h1v1h-1 1zm-1 5h-1 1zm-2-5-1-1v1h1zm-10-54a10 10 0 0 1-2 0h2zm-2 28v1s0-1 0 0v-1zm-6 0c0 1 0 1 0 0a1 1 0 0 1 0 1 1 1 0 0 1 0-1zm-1-28h-2 2zm-17-1a5 5 0 0 1-1 1l1-1zm-6 1v-1a7 7 0 0 0 4 1l-2-1h3-1l1-1h-11l1 1h-1 2s-1 0 0 0h3l-3 1h3l1-1v1zm2-1h-1 1zm3 5h-1 1zm-10-2a3 3 0 0 1-2 0 15 15 0 0 1 2 0zm-2-1 1 1h-2l1-1zm-6-2h1a2 2 0 0 1-2 0h1zm0 62v1-1zm-2-59h1-2 1zm-4-1-3 1 3-1zm-2 0v-1 1zm-1 61h-1l-1-1h2v1zm-1 12v-1l-1 1h1zm-5-75h-1 1zm-15 64h1s-1 0 0 0h-1s1 0 0 0zm-17-1-1 1-2-1h2-1 2zm-5-1h1l-1 1v-1zm-3 1v-1 2h-2a1 1 0 0 1 0-1h1zm-6 6-1-1 1 1zm-7-7s2 0 0 0zm-2 0a5 5 0 0 1 2 0v1l-1-1-1 1v-1zm0-1-5 2-1-1h-1v1a43 43 0 0 0-8 0l-1-1v1l-1-1h15v-1h2zm-13-10-1 1a1 1 0 0 0 1 0h-10l-1-1h-2l2-1v1a3 3 0 0 0 2 0v1l2-1a3 3 0 0 0 1 0h-1 7zm-2-4 2 1-2-1zm-2-59a1 1 0 0 0-2 0l1-1 1 1zm-2 69h2a3 3 0 0 0-3 0h1zm-2 0h-1a1 1 0 0 0 1 0h-1zm-1 3-2-1v1h2zm-6 9-1-1h2v-1h1-1l1 1-2 1zm1-26v1l-1-1h1zm-1 3-1 1-2-1v1l-4-1-1 1-1-1h-2s0-1 0 0h1a4 4 0 0 1 1 0h2l3 1 4-1zm-3 9h-1v1a4 4 0 0 0-2 0l-4-1a2 2 0 0 0-2-1l-3-2h1c3 0 8 2 10 0h-2l2-1h-1 3v1h-1 3l-4 2-1 1-1-1-1 1a1 1 0 0 0-1 0l2 1 1-1h-1 3zm1-10h-1 1zm-7 0a10 10 0 0 1-2 0h2zm-2 6h2a7 7 0 0 1-2 0zm-4-29h-1 1zm-14-29-1-1 1 1zm-2 16h-1l1-1v1zm-2-17h-2 2zm-1-1h-1 1zm-12 11h1v2l-2-1c1 0 2 0 1-1zm-17 2h1-2l-1-1h2l4-1h-3l-1-1h5l-1 1 3 2h1c1 0 2 0 1 1l1-1v1h1l1 1c1-1 2 0 2 1-2 1-3-1-6-1h-1l-1-1a4 4 0 0 1-1 0l-5 2-1-1a8 8 0 0 0 2-1l-1-1zm370 22h-2s1-1 0 0l1-1a2 2 0 0 0 1 1zm-114 38-2 1v-1h-3 5a1 1 0 0 0 0 1v-1zm-35-8v1l-2-1h2zm-151 9h1c1 0 2 0 1-1a5 5 0 0 1 5 0c1 2 0 3-1 3h-6a18 18 0 0 1-2-1v-1h1a1 1 0 0 1 1 0z" fill="#ffb585" fill-rule="evenodd"/><path d="M245 51a1 1 0 0 0 1 0h-1a1 1 0 0 0-1 0 3 3 0 0 1 1 0zm-12-1h-1 1zm-2-3 1 1-1-1zm0 3a7 7 0 0 0-1 0 2 2 0 0 0 1 0h1a1 1 0 0 0-1 0zm-5-1a3 3 0 0 0-1 0 2 2 0 0 0 1 0zm0-1zm3 5a3 3 0 0 0 2 0h1a3 3 0 0 1 1 0h-1v-1 1h-1a2 2 0 0 0-1 0 2 2 0 0 1-1 0zm-3-6h-1 1z" fill="#feb088"/><path d="M8 105a10 10 0 0 1 2 0h8a5 5 0 0 1 1 0 4 4 0 0 1 1 0h2a16 16 0 0 1 2 0 7 7 0 0 1 1 0h221a2 2 0 0 1 1 1v-1h1a2 2 0 0 0 1 1v-1h2l-1 1a11 11 0 0 1 2-1h2v1-1h2a25 25 0 0 0 3 1v-1h1v1l2-1a3 3 0 0 0-1 0h16l-1 1a8 8 0 0 0 2-1h42l6 2h13a1 1 0 0 1 1 0h1l8-1a2 2 0 0 0 1 0l4 1v-1a4 4 0 0 0 1 0v1l1-1 2 1h1a11 11 0 0 0 2-1v1a3 3 0 0 1 2 0l1-1v1l5-1h3v-1a5 5 0 0 0 2 0l-1 1h2a1 1 0 0 1-1-1 7 7 0 0 1 2 0v1l6-1h1-1 5c-1 0-1 0 0 0-1 0 0 0 0 0a4 4 0 0 1 2 0h3-1 5-5l-2 1h1s1 0 0 0l1 1h6v-1h9l1-1v1h6l7-1a6 6 0 0 1-4 0h4l3-1 5 1h1l11-1v1l1-1s-1 0 0 0a1 1 0 0 1 1 0h1a2 2 0 0 1 1 0h-1a19 19 0 0 1 2 0h-1c6-2 12-2 18-2h-1 5l2-1 4 1 2-1h1l2 1h2v-1l4 1h8a26 26 0 0 1 3-1h-1 15v-1l6 1 1-1 7 1 4-1h-1l6 1 1-1-3-1h2-7a8 8 0 0 0-3 0h-16l-6 1 3-1h-7l-6 1h-3 1-2 1-8s1 0 0 0h-1 1-25l-12 1h-1a5 5 0 0 1-3 0 4 4 0 0 1-1 0h2-7a21 21 0 0 1 3 0 16 16 0 0 0-3 0s1 0 0 0h-5 1a6 6 0 0 1-1 0h-4a1 1 0 0 1-1 0h-3 1a19 19 0 0 0-5 1h-3a3 3 0 0 0 2-1c-1 0 0 0 0 0h7s-1 0 0 0h1c-1-1 0-1 1-1-1 0-1 0 0 0h7c1 0-1-1 1-1l3 1 5-1a2 2 0 0 0 2 0h-1 14v1h3l1-1h-1 7c1 0-1 0 0 0h3-2 4c-1-2 3-1 4-2a6 6 0 0 0 3 1l-4-1 1-1-2 1h1a30 30 0 0 1-5 0h10v-1h3a13 13 0 0 0 2 0h1c1 0 0 0 0 0h4-1 9a3 3 0 0 1 3-1h-2 3l1 1 2-1h-1 3l-1 1 3-1h-3a15 15 0 0 0 4-1l-1 1 1-1 1 1 7-1h-1l8-1h28l1-1h10l-3-1h-5 1-1a3 3 0 0 0 2-1 21 21 0 0 1-6 0h4l-4-1h-1a11 11 0 0 1 3 0l-1-1a6 6 0 0 0 2 0v1h3v-1a4 4 0 0 0 2 0 9 9 0 0 0 3-1h4-22 3c12 0 26-3 40-2l5-1h2l-2-1v-1l7 1-6-1v-1l-2 1-1-1 4-1h-26a28 28 0 0 1-5 0h-1a7 7 0 0 0 2 0c-1-1-2 0-1-1l3-1h-1l-4 2-1-1h-7l2-1c-2 0 0 0 0-1a40 40 0 0 1-6 1h-40l-10 1a13 13 0 0 1-6 0 31 31 0 0 1-5 1l-1-1h4a3 3 0 0 1 1 0c1 0-1-1 1-1l1 1h-1a43 43 0 0 0 6 0h-4l-1-1h-3 11l-2-1-5 1a4 4 0 0 0 2-1h-2 1-4l5-1 1 1v-1h-5 3l4-1-9 1v-1h-11a35 35 0 0 1 8 0v-1h10s-1 0 0 0h6-1a56 56 0 0 0 13-1h14l1-1c11 1 23-1 34-1h-1 14a14 14 0 0 1 1 1l-1-1a20 20 0 0 0 7 0v1a11 11 0 0 1 5-1h3a3 3 0 0 1 2 0c1 0 0 0 0 0l34-1-27 1-1-1-16 1v-1l-1 1-4-1h-4l-1 1h-29a17 17 0 0 1-4 0h1-2 1-9 3l-5-1h15c1 0 0 0 0 0h2-1a39 39 0 0 0 4 0l-1-1h15l18 1h9l-2-1a62 62 0 0 1 7 0h8l-5-1h6l8-1a10 10 0 0 0 2 1v-1h-2l14-1h4c-1-1 2-1 3-1a45 45 0 0 0 6 0h-4a1 1 0 0 1 1-1h1a10 10 0 0 1-3-1h5l5-1h4l2-1h-2l3-1h-1a8 8 0 0 0 3-1h6l-2-1h1-3 2l-1-1h-1l1 1-4-1h9v-1h-1a2 2 0 0 1-1 0h3l-1-1a42 42 0 0 0-7 0c-1-1-5 1-5-1l-2 1-2-1a3 3 0 0 1-3 0h1a11 11 0 0 0 4 0 37 37 0 0 0-6 0h1-2a3 3 0 0 1-1 0 17 17 0 0 0-5 0c-3-1-8 1-8-1a15 15 0 0 1-6 0h-9 2-9l1-1a26 26 0 0 0-4 0l-6-1v1h-2v-1l-7 1c1-1 0 0 0 0v-1l-14 1h-2v-1l-20 1h1-17 1-12a2 2 0 0 0 2-1l1 1h-12c-1-2-6-1-5-1a5 5 0 0 1-4 0l5-1h-2a5 5 0 0 1-3 0h-1s1 0 0 0a17 17 0 0 1-5 0 2 2 0 0 0 1 0h-3 2a12 12 0 0 1-5 0h1a7 7 0 0 0-2 0h-11l1-1a18 18 0 0 1-5 0h-4a18 18 0 0 1 4 0c1-1 6 0 5-1a1 1 0 0 0 1 0h5a16 16 0 0 0 2 0h18l-4-1h2-2 3c-1 0 0 0 0 0l-2-1v1h-1l-13 1h-1a4 4 0 0 1-2-1h-5l-7 1a4 4 0 0 1-2 0h1l-7-1a8 8 0 0 1-2 1h-5l6 1h-7 1-2 1a5 5 0 0 0-2 0h1-3l-5-1a46 46 0 0 1-9 1v-1l-1 1h-1v-1a3 3 0 0 1-1 0l1 1h-6v-1l-2 1h1-16c-2 0-11 2-9 0h-1 1a16 16 0 0 0-3 0 4 4 0 0 0-1 0h-5v-1l-10 1 1-1-11 1-1-1h7v-1l-6 1-1-1-9 1h-3v-1h1v1-1a33 33 0 0 0 4 0 1 1 0 0 1 1 0h1c1 0 0 0 0 0l10-1h14l27 1 22-1h3l-6-1a1 1 0 0 0 0-1 28 28 0 0 1 3 0 10 10 0 0 1 1 0h1a29 29 0 0 1 3 0h9l-2 1 1 1h1a2 2 0 0 0 1 0 1 1 0 0 0 1-1 1 1 0 0 0-1 0 2 2 0 0 0 0-1h-1 3a8 8 0 0 0 2 0 3 3 0 0 0 1 0 1 1 0 0 0 1 0 1 1 0 0 0 0-1h1-3a4 4 0 0 0-1 0 2 2 0 0 0-1 0h-1a333 333 0 0 0-27 0h-2l-4-1v1h-1a7 7 0 0 0-4-1h-2a7 7 0 0 1-2 0 8 8 0 0 0-2 0h-5a5 5 0 0 1-1 0h28a1 1 0 0 0 1 0 2 2 0 0 0 0-1 1 1 0 0 0 0 1h6l-2-1h2a6 6 0 0 0 1 0h1a6 6 0 0 0 3 1l5-1v-1h-1l-4 1h-1l3-1h-1 6a22 22 0 0 0 3 0h7v-1h-1a23 23 0 0 1-3 0l1-1a12 12 0 0 1 2 1h1l-1-1h3a10 10 0 0 0 3 0l-2 1h7l-1-1h1a8 8 0 0 0 2 0l1 1a5 5 0 0 0 2 0 3 3 0 0 0 1 0l1-1a2 2 0 0 1 2 0h1v-1l5 2h3a1 1 0 0 0 0-1 1 1 0 0 0-1 0 2 2 0 0 0-1 0l-6-1h1a5 5 0 0 0 1 0 2 2 0 0 0 1 0 1 1 0 0 0 0-1l-1-1a10 10 0 0 0-2 0 17 17 0 0 0-3 0l-3 1h-1l1 1h-1 1-1l-4-1a11 11 0 0 1-1 0 2 2 0 0 1-1 0l-1-1v1h-4l2-1h-5v1h-2 1v-1l-4-1h10l-2-1h2l-5-1a6 6 0 0 0-1-1l1-1h1a7 7 0 0 0 2 0 2 2 0 0 0 1-1l1-1h-1l-26-1h-26l-2-1a3 3 0 0 1-1 0h-1 2l7-1a64 64 0 0 1 7 1h20a46 46 0 0 0 9-1v1h5v-1h-3v-1h-9v-2l-1 1a7 7 0 0 1-4 1 5 5 0 0 1-2 0 7 7 0 0 0-1-1 2 2 0 0 0-1 1h-3l-13-1v-1a5 5 0 0 1 2 0 9 9 0 0 1 2 0 10 10 0 0 0 2 0 4 4 0 0 0 1 0l2-1h-2a33 33 0 0 0-7-1l-5 1a35 35 0 0 1-4-1 9 9 0 0 0-2 0h-4a4 4 0 0 1-1 0 2 2 0 0 1-1 0v-1h1a24 24 0 0 0 4 0l4-1h-4l-9-1a18 18 0 0 0-2 0l-2 1-1-1h-5v-1h-2v1a14 14 0 0 0-3 0l-4 1a10 10 0 0 0-2-1h1a1 1 0 0 0-1-1 2 2 0 0 0 1 0l2-1h-4a5 5 0 0 0-1 0 4 4 0 0 0-1 0l-3 1-3-1a4 4 0 0 0-2-1 8 8 0 0 0-2 0l3-1h3-2a28 28 0 0 0-7-1 30 30 0 0 1-7-1l-6-1h-1l-7-1a53 53 0 0 0-5 0 21 21 0 0 1-5-1 58 58 0 0 0-7-1 17 17 0 0 0-4 1l-40-3v1a10 10 0 0 0-1 0 3 3 0 0 0-2 0l-1 1a6 6 0 0 1-1 0 1 1 0 0 1 0-1l1-1h-2l-25-1-2 1h-1l-20-1h-16a49 49 0 0 1-5 0h-1a12 12 0 0 1-3 0h-7a38 38 0 0 0-8-1l-18 1a10 10 0 0 0-2 0l-7 1a42 42 0 0 0-7 4 14 14 0 0 0-3 3 8 8 0 0 0 0 1h-36l-7-1-4-1h-11a2 2 0 0 1-1 1l-1-1v1H88l-1 1h-6a19 19 0 0 0-3 0s-1 0-1 0h-7a1 1 0 0 1-1 1h-5a19 19 0 0 1-3 0 3 3 0 0 1 2 3h-4a46 46 0 0 0-9 0H40l18 1a47 47 0 0 1 7-1c1 1 2 1 1 3h-4v1l9 1h1a6 6 0 0 1 1 1v1l-9 2-1 1a26 26 0 0 1-4 0h-8 6l1 1h7l-1 1h4v1a16 16 0 0 0-3 1l-1-1h-6l-3 1h2l7 1-1 1h-1v-1h-5v1h-2l-6-1a16 16 0 0 0 6 1v1l1-1 2 1h2l2 1h1l-1 1h1v1a6 6 0 0 1 3 0c1 0 0 0 0 0a2 2 0 0 1 2 1l3-1 1 1h2a3 3 0 0 0 2 1h-1 1l8 2h1c1 1 5 0 6 2v-1l2 1h64a3 3 0 0 0 3 0l31 2h10l10 1a4 4 0 0 0 1 0h6a25 25 0 0 1 2 0h6a19 19 0 0 0 2 0l9 1h8v1h-1l1 1 6 6 5 3v1h1l-1 1h1l3 3h-7l-3-1 1-1a27 27 0 0 0-6-1l-5-1a47 47 0 0 1-9-1l-7-2-3-1 1-2-4-1-3 1 1-1-1-2h-2 1-3l-1 1c-3 0-5-3-7-1a6 6 0 0 0 1 0 32 32 0 0 0 7 2l-1 1 3-1a2 2 0 0 0 1 1l1 1c-1 0 0 0 0 0l-1 1a65 65 0 0 0-8-1l5 1 2 2h1c1 1 4 2 3 4l-6 1-1 1v1h-27l-3 1a5 5 0 0 0-1 0 2 2 0 0 0-1 0l-1 3a1 1 0 0 1-1 0 3 3 0 0 1-1-1l-2-1v1l-6 1h-7a4 4 0 0 0-2 1 2 2 0 0 0-1 0 21 21 0 0 0-2 0 15 15 0 0 1-2 0h-5a11 11 0 0 0-3 0 7 7 0 0 0-2 0 16 16 0 0 0-4 1 5 5 0 0 0-1-1 12 12 0 0 0-2 1 12 12 0 0 1-2 0H67a5 5 0 0 0-1 0 18 18 0 0 1-2 0 2 2 0 0 1-1 0 11 11 0 0 1-2 0h-6a15 15 0 0 0-3 0h-1c-1 0 0 0 0 0a19 19 0 0 1-2 0 19 19 0 0 0-2 0 6 6 0 0 0-3 0h-4a50 50 0 0 0-5 0 13 13 0 0 0-3 0H21a5 5 0 0 0-1 0 5 5 0 0 1-1 0h-9a18 18 0 0 1-2 0 20 20 0 0 0-3-1l-2 1a8 8 0 0 1-1 0 18 18 0 0 0-2-1v35a38 38 0 0 1 8 1zm522-5h-1 1zm-42 1a2 2 0 0 0 1 0h1l-3 1 1-1zm-23 0-2-1s3 0 2 1zm3-3h-1 1zm80-6-2 1 2-1zm-12-21h-1 1zm120-15h2-3 1zm-9 4a3 3 0 0 1-2 0h1zm-13 4h-3a17 17 0 0 0 3 0zm-32-11a6 6 0 0 0 2 0h-2zm-5-1s-1 0 0 0h-3a11 11 0 0 0 3 0zm-116-4h-2a6 6 0 0 1 2 0zM66 35h-3l-2-1a2 2 0 0 0 2-1v1h3v1zm0 0v-1 1zm274-24a1 1 0 0 0 0 1l-1-1h1zm6 1h1a1 1 0 0 0-1 0zm3 0v1a3 3 0 0 1 0-1h-1zm3 0zm14 2a15 15 0 0 1-3 0l-1-1h-1l9 1h-4zm-2 1h1-2zm51 10h-1l1 1h-1a5 5 0 0 0-2 0h-2a7 7 0 0 1-2-1 18 18 0 0 1 4 0 16 16 0 0 1 3 0zm-8 0v1a3 3 0 0 1-1 0h-1l-1-1a12 12 0 0 1 2 0 3 3 0 0 1 1 0zm-3 1h1-1zm-4-1h-1a4 4 0 0 0 1 0zm50 9h4-14 9zm10-2 2 1a22 22 0 0 1-2 0zm5 3h-1v1h-1a1 1 0 0 0 0-1 1 1 0 0 0 1 0h1zm11 2v1-1zm-32 1h1a5 5 0 0 1-1 0zm3 0v1a2 2 0 0 0 1 0h-2a3 3 0 0 0 1-1zm3 0a5 5 0 0 0 1 0h2a3 3 0 0 1 1 0 9 9 0 0 0-1 0h-3a7 7 0 0 1-1 0zm6-3v1a1 1 0 0 1-1 0v-1zm-2 1a1 1 0 0 1-1 0h1zm0 0-1-1h1zm0 1a4 4 0 0 0 1 0 3 3 0 0 0 1 0 5 5 0 0 0 1 0l-2 1a2 2 0 0 0-1-1zm3 1h5-1a3 3 0 0 1-1 1 7 7 0 0 1-1 0h-1zm2-1a9 9 0 0 1-2 0v-2h1v2h1zm8-4h1-1zm-1-2zm-29 3a2 2 0 0 0 1 0h5l-5 1v2h2v-1a7 7 0 0 1 1 0l5 1h1l3-2h1-1l2 1h-1v1h1-1a4 4 0 0 1-1 0l-2 1-5-1v1a1 1 0 0 0-1-1 2 2 0 0 0-1 0 7 7 0 0 0-1 0h-1a2 2 0 0 0-1 0v1l-2 1 3-1a11 11 0 0 1 2 1 49 49 0 0 0-6 0h-1a9 9 0 0 0-2 0 19 19 0 0 0-4 0h-2l2 1a7 7 0 0 0 2 0 13 13 0 0 0 2 0v1h-23 2l-1 1a3 3 0 0 0 1 1h-8 5v-1a1 1 0 0 0 0-1 1 1 0 0 0-1 0 2 2 0 0 0-1 0h-4a2 2 0 0 1-1 0h-1a6 6 0 0 1-1 0 8 8 0 0 1-1 0v-4l-1-3h2l-1-2 23 1h16a1 1 0 0 0 0 1zm9 2v-1zm-6 9h1l2 1h-4l1-1zm-46 0h13l1-1v1h2v-1l6 1h-1 1l4 1-26-1zm-21 59zm-13-56h-2 2zm-2 0h-2 2zm14 55h-1 1zm-24-57h-2 2zm-1-1h1-1zm-9 2h3a4 4 0 0 1 2 0h7l2 1h-3l-1-1a2 2 0 0 1-2 0l2 1h-7v-1a16 16 0 0 1-7 0h-3a1 1 0 0 1 0 1h-1l-2-1v1a14 14 0 0 0-4 0l-2-1v1a4 4 0 0 0-2 0h-1v-1l1 1c-1-1 1-1 1-1h-3l-7-1 1-1h-3a17 17 0 0 0 3 0h26v2zm16 1a1 1 0 0 1-1 0 3 3 0 0 1 2-1l-1 1zm-43-3zm-5 0 1 1h-6v-1h4l1 1v-1zm-8 1v-1h2l-2 1zm9 0h4-4zm5 1a8 8 0 0 0 2 1l-2-1zm10 1h1a4 4 0 0 1-1 0zm27-3h1a9 9 0 0 1-1 0zm18 60a4 4 0 0 1-1 0h1zm32-61h2a4 4 0 0 1 1 0h-3zm5-1v1a1 1 0 0 0-1-1zm-5 0h-1 2-1zm-6 2zm1-26h1zm-42 87h1a1 1 0 0 1-1 0zm1 0h1zm4 1 1-1h-1 2l-2 1zm9-1h-1 2-1zm10-1a7 7 0 0 0-3 0v-1h5l-2 1zm17 1a6 6 0 0 0-2 0h2zm1 0h2-2zm1-2s1 0 0 0h4-4zm4 0 1-1c-1 1 1 0 1 1a11 11 0 0 0-2 0zm4-1a2 2 0 0 1 1 0h-1zm3-1h2-1zm5 0-3 1a9 9 0 0 1 3-1s-2 0 0 0zm-4 3h2-2zm5 0-2-1 2 1zm-2-3 2-1-2 1zm7-2a1 1 0 0 1 1 0h-1zm3 0-1 1v-1h2-1zm6-1h1-1zm1 0h2-2zm6 0h2-3v-1h8l-7 1zm37-24h2-2zm-22 23h-1a1 1 0 0 1 1 0zm2 0a10 10 0 0 0 1 0 5 5 0 0 1-2 0h1zm-3-22a10 10 0 0 1-2-1h4a19 19 0 0 1-2 1zm-4 22h3a3 3 0 0 1 1 0c-1 0-1 0 0 0a34 34 0 0 1-4 0zm3 1a12 12 0 0 0 3 0h-3zm4 0h2-2zm9-1h1-1 2a3 3 0 0 1-2 0zm4 0a2 2 0 0 1 2 0h-2zm-1 0 4-1a18 18 0 0 1-4 1zm21-25h1-1zm43-2h-8 8zm-15-20-3 1a6 6 0 0 1 3-1zm-30 19v1-1zm0 1h-1v-1l1 1zm-2-21h-1a8 8 0 0 1 1 0zm-8-1a4 4 0 0 0-1 0h1zm-3-1a19 19 0 0 1 2 0h-2c-1 0 0 0 0 0zm1 23h1c1 0 0 0 0 0h2a1 1 0 0 0 0 1v-1l2 1v-1a1 1 0 0 1 2 0 3 3 0 0 1-2 0s1 0 0 0h3v-1l2 1h-1v1l1-1a9 9 0 0 0 1 0v1l3-1a1 1 0 0 0-1 0l9-1h2l-2 1h1v1l1-1h5a2 2 0 0 0-1 0h1-1l2-1h2a68 68 0 0 0 10 1h7-7l-5 1 2-1h-2c-2 2-7 1-11 1l-8 1v-1h-4v-1 1l1-1 2 1 1-1h-4l-3 1 1 1h-16l-5 1h-12 2l-3 1a33 33 0 0 0-4 0 6 6 0 0 1-1-1v-1a8 8 0 0 0 2 0h2a4 4 0 0 1-1 0h1a12 12 0 0 1 4-1h-1a1 1 0 0 0 1 0h1v-1a5 5 0 0 1 2 0l-2 1 4-1 1 1h8v-1h5zm-11-22a19 19 0 0 1-4 0 12 12 0 0 1 4 0zm-19 0h-2 2zm-32 0v1a16 16 0 0 0-4-1h4zm-4 0h-2a2 2 0 0 1 2 0zm-26-1v1a16 16 0 0 0-2-1h2zm-4 0h-2 2zm-11-1h-2 1a2 2 0 0 1 1 0zm34-1h1a2 2 0 0 1-1 0zm32-2h1a7 7 0 0 0 1 0 6 6 0 0 0 2 0 2 2 0 0 0 1 0h4-1l1 1h-8a74 74 0 0 1-11 0l1-1h-1 9zm12-3h-5v-1l5 1zm22-2a4 4 0 0 0 1 0h-1zm1-1h1-1zm26-2zm-3 0a2 2 0 0 0 0 1h-1zm-26-2v1l-1-1h2a5 5 0 0 0-1 0zm5-4a2 2 0 0 0 0 1 1 1 0 0 1-1 0h-3l2 1a4 4 0 0 0 1 0h-8l-1 1h-6a9 9 0 0 1-1-1h-27l-24-1 32 1h13l-5-1a4 4 0 0 0 1-1 2 2 0 0 0 1 0h2a10 10 0 0 1 1 0v1l10 1-6-2h1a4 4 0 0 1 1 0 11 11 0 0 0 3 0 8 8 0 0 1 2-1 2 2 0 0 1 1 1h9a1 1 0 0 1 1 0h1zm-47-3 2 1h26l24 1a12 12 0 0 1-2 0 24 24 0 0 0-3 0 3 3 0 0 0-1 0 3 3 0 0 0-2 0h-8a4 4 0 0 0-1 0 9 9 0 0 0-3 0 11 11 0 0 1-2 0 6 6 0 0 0-1 0h-3v1l-1-1a9 9 0 0 0-2 0h-4v1h-1a8 8 0 0 0-1 0 2 2 0 0 0-2 0v1h1-8a3 3 0 0 0 1 0l1-1h-7v1l-24-1v-4h2a2 2 0 0 0 2 0v-1h1v2h4a5 5 0 0 0 1 0 2 2 0 0 0 1-1l3 1a5 5 0 0 1 2 0h2a5 5 0 0 0 1 0 8 8 0 0 0 2 0zm7-3h-9a18 18 0 0 0-4 0 19 19 0 0 0-4 0 3 3 0 0 0-1 0 5 5 0 0 0-1 0 17 17 0 0 0-4 0l-2-1v1h-1a9 9 0 0 1-1 0v-2h2a6 6 0 0 0 2 1h2v-2h-6v-1h-1a3 3 0 0 0-2 0v-1a54 54 0 0 1 8 1v1h1a3 3 0 0 1 1 0 6 6 0 0 1 1 1h1a1 1 0 0 0 0 1 2 2 0 0 0 1 1h1v-1a4 4 0 0 1 2 0 15 15 0 0 1 2 0 18 18 0 0 0 3 1 8 8 0 0 0 2-1l18 1-4 1a67 67 0 0 0-7-1zm-7-2h-1a5 5 0 0 1-1 1 15 15 0 0 1-3-1h-1 7-1zm-10 1zm16-1v1h-1zm1 1v-1l2 1zm-15-2zm-2 0a5 5 0 0 1-1 0h1zm37 4 1-1a5 5 0 0 1 1 1 7 7 0 0 0 2 0 10 10 0 0 0 3-1v1h4-13 2zm-51-7a44 44 0 0 0 7 1 19 19 0 0 0 2 0l2-1h1a37 37 0 0 0 5 1v1a1 1 0 0 1-1 0h-1a1 1 0 0 0-1 0h-3l-14-2h-1zm-12-2zm-5 0a5 5 0 0 1-3-1l-1 1a3 3 0 0 0-3 0l-2-1h4a10 10 0 0 1 3 0 3 3 0 0 1 2 1zm-13-4a20 20 0 0 0 4 0h-10 4l-1-1 3 1zm-62-4h-3a7 7 0 0 0-1 0 3 3 0 0 1-2 0 4 4 0 0 0-1 0h6l-3-1h3zm-9 0a8 8 0 0 0-2-1h-2 2V6l1 1h1a2 2 0 0 0 1 1 3 3 0 0 0-1 0zm-131 2a39 39 0 0 1 6-4l7-1a8 8 0 0 1 2 0l18-1a36 36 0 0 1 8 1h7a15 15 0 0 0 3 0 51 51 0 0 0 6 0h16l20 1h1l2-1 24 1a1 1 0 0 0 1 1 6 6 0 0 0 2 1h5a14 14 0 0 1 2 0 3 3 0 0 1 1 1h1a1 1 0 0 1 1 0h1a5 5 0 0 0 2 0 5 5 0 0 1 1 0l3 1a6 6 0 0 0 2-1h1l-2-1h1l2-1 23 2a15 15 0 0 1 4-1 57 57 0 0 1 7 1 23 23 0 0 0 5 1 47 47 0 0 1 5 1h7v1l-7-1h-1l-9-1h-2v2a4 4 0 0 1 1 0 2 2 0 0 0 0 1 2 2 0 0 0 1 0 2 2 0 0 0 1 0v-1a4 4 0 0 1 1 0h1a5 5 0 0 1 1 0 2 2 0 0 1 1 1h-1 1a2 2 0 0 0 1 1 2 2 0 0 0 1-1 4 4 0 0 1 1 0 4 4 0 0 0 2 1h1v-1l1 1a3 3 0 0 1 1-1 2 2 0 0 1 1 0 6 6 0 0 1 1 0v1l4 1h1v-1h1a1 1 0 0 0 0 1l-22-1-8-1h-12l-7-1a25 25 0 0 1-3 1l-1-1h-4a18 18 0 0 0-3 0h-11l-1-1h-5a16 16 0 0 0-2 0h-5a13 13 0 0 0-6 0 1 1 0 0 1-1 0h-5a3 3 0 0 1-2-1l-8 1-4-1h-14a14 14 0 0 0-2-1h-5c-3-1-6 1-8-1V6a1 1 0 0 0-1 0v8h-62a11 11 0 0 1 3-4zm92 39h1-1zm4 0v1a5 5 0 0 1-2 0l1-2h3l-2 1z" fill="#feb088"/><path d="M193 8h1a1 1 0 0 0-1 0zm-29 4 1 1-1-1zm-6-5h-1 1zm15 0a1 1 0 0 0 0 1 1 1 0 0 0 1 0V7h-1zm598 60 1-1-4 1a5 5 0 0 0 3 0zm-11-7h-2 2zm-6 1h2-2zm-2 0h2-5 3zm2 0a9 9 0 0 0-2 1l2-1zm-5 0a6 6 0 0 0 3 0h-3zm3 21h1c-1-1 0-1 1-1l-2 1zm-2-1a2 2 0 0 0-1 0 2 2 0 0 0 1 0zm0 14h-3a9 9 0 0 0 3 0zm-4-34h-3a5 5 0 0 0 3 0zm-2 20h1-2l-1 1 2-1zm-2 14h-3 3zm-8-13h-2a3 3 0 0 0 2 0zm-2-22h-2 2zm-15 0h-2 2zm-1 2h1-3 2zm-13-2a26 26 0 0 1-4 0h4zm-5 20c3 0 1 0 0 0zm-8-20h-4 4zm-5 18a1 1 0 0 0 1 0l-1-1v1zm-18 0h2-2zm1-19a5 5 0 0 1-2 0h2zm-2 25h2-2zm-1-25-5 1 5-1zm-7-2h2a3 3 0 0 0-2 0zm-2 0h1a3 3 0 0 1-1 0zm-3 3h4-4zm0-26h1-1zm1 44h1-1zm-7-13h3-3zm2-3v-1a3 3 0 0 0-1 0l1 1c-1 0 0 0 0 0zm-5 4h-1 2-1zm-5 12h3-3zm-1-5h1-1zm-7 0h2a7 7 0 0 0-2 0zm-5-20h1-1zm-6 16a17 17 0 0 0-2 0h2zm-4 0h-3 3zm-6-17h-2 2zm-3 17 3-1h-2l-1 1zm0 0-2-1v1h-2 2l1-1a2 2 0 0 1 1 1zm-7 20h1-1zm-5-10a3 3 0 0 1-1 0h1zm-6 6a3 3 0 0 0 2 0h-2zm-2 20h-1v1a2 2 0 0 0 1-1c-1 0-1 0 0 0zm-23-32h11-11zm12 21h-2 2zm-4 5h2-2zm-3-5a4 4 0 0 0 2 0h-2zm-1 1h-2 2zm-4 0h2a12 12 0 0 1-2 0zm-4-22h4-4zm-2 6c1 0 3 0 2-1h-2v1zm-3-1a14 14 0 0 0-1 0 2 2 0 0 0 1 0zm-2 12a4 4 0 0 0 2-1l-2 1zm1 6h-1 1zm-2 10h2-2zm-11-58a2 2 0 0 0-1 1c1 0-1 0 0 0a3 3 0 0 0 1-1zm2 46a16 16 0 0 1-3 0h3zm-7-48h-3 3zm-1 4-3 1 3-1zm-5-4h2-2zm5 54a4 4 0 0 0-2 0 2 2 0 0 0 2 0zm-2-5v-1a10 10 0 0 1-2 0l-1 1h3zm-6 1 2 1h-2l6-1a17 17 0 0 0-6 0zm0-50a3 3 0 0 0-2 0h2zm-4 0h2-2zm0 0h-3v1c-1-1 3 0 3-1zm-2 51a7 7 0 0 1 2 0v-1a3 3 0 0 1-1 0c0 1-2 0-1 1zm-1-21h2-2zm-2 20 1 1h1l1-1a16 16 0 0 0-3 0zm0 3h2a4 4 0 0 1-2 0zm0-3a5 5 0 0 0-2 1 3 3 0 0 0 2-1zm-1 0h-1 1zm-2 3h-3a8 8 0 0 0 3 0zm-5-52v1l1-1h-1zm3 48-4 1 4-1zm-3 9-1 1h1v-1zm-3-55-1 1 1-1zm-5 1h2-2zm1 47h1zm-2-1v-1 1s-1 0 0 0zm-3 6h3-3zm-1-6c1 0 1 0 0 0h2-2c1 0 0 0 0 0zm-2 1h4-4zm0-48h-2 2zm-4 53h-5v1h4l1-1zm-3-5h-2 2zm-3 7h1zm-2-7h2-2zm2 0-4-1a11 11 0 0 0 4 1zm0 6-2-1 1 1h1zm-1-5h-1 1zm-2 1a2 2 0 0 0-1 0h1zm-2-1a6 6 0 0 1-3 0v1l3-1zm-7-25h-1 1zm-4 25h4-4zm-1-27a4 4 0 0 0-1 0v1l1-1zm-3 2a8 8 0 0 0-3 0h3zm-5-25h1-1zm0 24a4 4 0 0 0-1 0 2 2 0 0 0 1 0zm-3 28 2-1-2 1zm-2-27s1 0 0 0h1l1-1a2 2 0 0 0-2 1zm-4-25a5 5 0 0 0-2 0h2zm-12 53 2-1-2 1zm-3-53v1c0-1 2 0 1-1h-1zm-14 53h3-3zm-39 5h1a3 3 0 0 1-1 0h1-1zm-6-59h1-1zm-3 0a21 21 0 0 0 2 0h-2zm-67 59-1 1 1-1zm-24 2h-4a10 10 0 0 0 4 0zm-2-1 2-1-2 1zm-2 0h1a14 14 0 0 1-2 0v1c-1 0-1 0 0 0l1-1zm-3 2 1-1a17 17 0 0 0-2 1h1zm-7-1a9 9 0 0 0-2 1l2-1zm-6 0h1-1zm-85-59a5 5 0 0 0-2-1l1 1h1zm589 20 1-1h-2l1-1c-2 1 0 1 0 2zm-45-11h-4a8 8 0 0 0 4 0zm-12 3c-2 0-1 0-1 1l2-1c-1 0-1 0 0 0a5 5 0 0 1-2-1l-1 1h2zm-14-6-3 1 3-1zm-2 5h-2 2zM491 71zm-7 0zm2 0a19 19 0 0 0-2 0h2zm1 0a36 36 0 0 1 4 0h-4zm10 28zm-40-51a14 14 0 0 1-4 0h-1l2 1h-1l5-1h-1zm28 56a8 8 0 0 1-4 0h2-2l1-1-2 1v-1h-2c1 1-1 0-1 1 0-1 1 0 0 0h-2v-1c1 0 1 0 0 0h-4a3 3 0 0 1 1 0h-4 1a13 13 0 0 0-3 1l-1-1h2a5 5 0 0 0-3 0l-1 1v-1a6 6 0 0 1-3 0v-1a3 3 0 0 1-2 0 12 12 0 0 1-6 1h-4 1a3 3 0 0 1-2 1v-1c-3 1 1 1 2 2h-1a5 5 0 0 0-3 0c-1 0-1 0 0 0l-8 1h-2a41 41 0 0 0-12 1l5-1h1v1l33-1 5-1a7 7 0 0 0 4 0c-1 1 1 0 1 1h3l-3-1h13v-1l1 1-1-1zm-25-1h-2 2zm-3 0h-1 1zm-4 0v1h-3l3-1zm-1 1h2-2zm1-1a7 7 0 0 0 3 1c0 1-3 0-2-1zm4 1h1a4 4 0 0 1-1 0zm2 0a16 16 0 0 1 3 0h-3zm12 0h1c1 0 0 0 0 0l2-1a4 4 0 0 1-3 1zm4 0h1-1zm182-44h3a11 11 0 0 1-3 0zm-3 36 4-1-4 1zm-17-30a3 3 0 0 0 2 0 4 4 0 0 1-2 0zm-10 7v1-1h1-1zm-27 8c-1 1-5 0-1 1l1-1zm-4 3 3 1v-1h-3zm2 21h1-4a3 3 0 0 0-1 0l-7 1h13v-1h-2zm1-13h-3 3zm-4-8a3 3 0 0 1-1-1h-2l3 1zm-22-5a10 10 0 0 0-3 0 13 13 0 0 0 3 0zm-11 16a14 14 0 0 0-2 1 5 5 0 0 0 2-1zm-9 4h1-1zm-4 7h-1 1l-1 1 3-1h-2zm-20-57h2l7-1-3 1h-6zm10 47h1v1a1 1 0 0 1 0-1h1-2c1 0-1 0 0 0z" fill="#feb088"/><path d="m531 96 1 1h5l1-1h-6 1-2zm-1 8a7 7 0 0 1-2 0h1l-14 1-4-1v1h4l1 1-1-1-1 1s1 0 0 0a9 9 0 0 1-1 0 12 12 0 0 0-2 0v-1l-2 1h4v1l2-1h7-1 2-1 2v-1h3a3 3 0 0 1 1 1l1-1a12 12 0 0 1 3 0 2 2 0 0 1 2 0l-4-1zm-11 1h1a3 3 0 0 1-1 0zm10-56h-3 3zm-4 47h-1l2 1h1a2 2 0 0 1-1-1h-1zm-1 0h-1s-1 0 0 0h1zm-4-49h1l-4 1 3-1zm-5-1 2 1h-5a37 37 0 0 0 7 0h-9l5-1zm-4 51h1s1 0 0 0h2v-1h-3 1a3 3 0 0 1-1 0l-1 1h-1a5 5 0 0 0 2 0zm-3-49 2-1h-2a6 6 0 0 1 1 0l-1 1zm-4 1 2-1-2 1zm2 48h1l-2-1v1h1zm-3 0h-2v-1c-1 1 1 1 2 1zm-5-20h1-1zm-3 0h3-3zm-3 19h-1 3-3 1zm-2 3a6 6 0 0 0-3 0h3zm-3 5v1l1-1h-1zm-3-6a16 16 0 0 1 3 0h-3zm-1 5a2 2 0 0 1-1-1l-1 1h2zm-1-5h-2 2v-1h-2 1v1a4 4 0 0 0-1-1 6 6 0 0 1-3 0l1 1 1-1 1 1h2zm-3 5h1a3 3 0 0 1 1 0h-2zm-4-6h1a1 1 0 0 0 1 1l-2-1zm-18-25c1 0 0 0 0 0v1h1c1 0 1-1-1-1zm-10 1a2 2 0 0 0 1 0h-1zm-4-29h3-3zm-27 5h-2c1 0 0 0 0 0h2zm-17-2h-3a7 7 0 0 0 3 0zm-11 59s0 1 0 0c1 0 0 0 0 0zm-6-59h2-2zm-9 59h-2l1 1h2l-1-1zm-2 12-1 1 2-1h-1zm-31-10h-1 2-1zm-31-1 1 1h-3 2l2-1h-2zm-6-1v2-1h1l-1-1zm-5 1v1h-1v-1s-2 0-1 1a1 1 0 0 0-2 0h5l-1-1zm-11 6h1-1zm-11-7a3 3 0 0 1 1 1c3-1 0-1-1-1zm-1 1h2-1a12 12 0 0 0-3 0v1a2 2 0 0 1 2 0v-1zm-4-1h-2l-1 1h-22l2 1v-1c0 1 2 0 1 1a110 110 0 0 1 14-1h3a28 28 0 0 0 7-1h-2zm-40 6h-2 1a6 6 0 0 1-2 0l1 1a4 4 0 0 0-2 0h5a3 3 0 0 1-2-1h1zm5-59-1 1h1v-1zm-26-4a7 7 0 0 0 3 0l1-1s-2 0-1-1l-2 1 1-1c1 2 0 2-2 2zm-29 0 1 1 3-1-1 1h1a15 15 0 0 1-3 2h1l8-2a12 12 0 0 0 3 0 1 1 0 0 0 0 1l3 1h10l-3-1-2-1h-5a1 1 0 0 1 0-1h-1l-5-2c1 0 0 0 0 0-2-1-5-2-7 0h6l-7 1c1 1-1 1-2 1zm544 17h3a5 5 0 0 1-3-1h-1c2 0 0 1 1 1zm-182 40-2 1a6 6 0 0 1-2-1h-4a3 3 0 0 1 2 1l2-1h1v1l2-1a3 3 0 0 0 1 1v-1zm-58-7h1-3 2zm-241 10-2 1-2-1-1 1a1 1 0 0 0-1 0h-2v1h4l9 1c2 0 3-1 2-3a12 12 0 0 0-7 0zm208-62h1a7 7 0 0 1 1-1 1 1 0 0 0 1 0 1 1 0 0 0 0-1h-1a7 7 0 0 0-1 0 4 4 0 0 0-2 1h-1 1a1 1 0 0 0 0 1 2 2 0 0 0 1 0zm19-2a4 4 0 0 0-1 0 4 4 0 0 0-2 0v1a2 2 0 0 0 1 0 4 4 0 0 0 1 0h2v-1a2 2 0 0 0-1 0zm11 0v1h5l-5-2v1zm-7-1h4v-1h-5a4 4 0 0 0-1 0l-3 1h5zm-14-2h3v-1h-3v1zm16-3h-2v1h2v-1zm-42-2h-1a9 9 0 0 1-2 1 3 3 0 0 1-1-1 7 7 0 0 0-1 0 4 4 0 0 0-2 0 9 9 0 0 0-2 0h-1l-5 1a2 2 0 0 0-1-1 5 5 0 0 0-1 0 30 30 0 0 0-3 0l-3 1a5 5 0 0 0-2-1h-2a1 1 0 0 1-1 0l-6 1h1a11 11 0 0 0 5 1h5l1-1 2 1h5v-1l2 1h2a8 8 0 0 1 2 0h9v-2zm-28 1h-1a1 1 0 0 0 1 0zm22 0-1-1a2 2 0 0 1 1 1zm7 0h1v-1h-1v1zm58-1a2 2 0 0 0 1 0 2 2 0 0 0 1 0 1 1 0 0 0 1-1 1 1 0 0 0-1-1h-1a1 1 0 0 0-1 1v1zm7 0a3 3 0 0 0 1 0 1 1 0 0 0 1 0 1 1 0 0 0 0-1l5-1h-6a2 2 0 0 0-1 1l-1 1zm-74-2h-1a1 1 0 0 0-1 1h1a2 2 0 0 0 1 0 2 2 0 0 0 1 0h1l1-1h1-1l1-1a2 2 0 0 0-1 0 4 4 0 0 0-1 0h-4l2 1zm99 0v-1h-12l-1 1a41 41 0 0 0 6 0h7zm-29-1a10 10 0 0 0 3 1 55 55 0 0 0 9 0h1v-2h-16zm-13-1a4 4 0 0 1-1 0h-4a4 4 0 0 0-1 0 2 2 0 0 0-1 0 1 1 0 0 0 0 1h1l9 1a36 36 0 0 0 4 0l3-1-4-1h-1a10 10 0 0 0-2 0l2-1h-2a3 3 0 0 1-1 0 3 3 0 0 0-1 0 2 2 0 0 0-1 0v1zm1 1a1 1 0 0 0 1-1 2 2 0 0 0 0 1h1-2zm-12-2h3v-1h-5l2 1zm16-1v1h15l2-1h-17zm-15-3v2h1a4 4 0 0 0 1-1 3 3 0 0 1 1 0v1h17v-1l1 1a3 3 0 0 0 1 0 8 8 0 0 0 2 1l6-1v-1h-11l-16-1h-2zm12-2h3-6l2 1 1-1zm-16 0a7 7 0 0 0 1 0l1 1v-1l1-1h-3a2 2 0 0 0-2 0l-1 2 2-1zm7 0v-1h-3v1h3zm-53-7a47 47 0 0 0 6 1 11 11 0 0 0 3-1l3-1h-10a15 15 0 0 0-3 0l-3 1zm-17-5v1h6v-1a7 7 0 0 1-2 0 8 8 0 0 0-2 0 5 5 0 0 0-1 0h-1zm-17 0 1-1a10 10 0 0 1-2 0 11 11 0 0 0-3 0 5 5 0 0 0-2 0l-2 1h2zm-68-3a6 6 0 0 0 2 0h3a5 5 0 0 1 1 0 13 13 0 0 1 3 0 36 36 0 0 1 6 0v-1h-2a81 81 0 0 0-10-1 15 15 0 0 0-4 0v1a2 2 0 0 0 1 1zm5-1h-3a5 5 0 0 1-1 0 15 15 0 0 1 2 0h2zm-56-3 6-1-10-1v1a19 19 0 0 0 3 1h1zm-20-2a2 2 0 0 0 1 0h1V4h-3v1a1 1 0 0 0 1 0z" fill="#feb088"/><path d="M666 24h-3l-2 2a4 4 0 0 0 4-2zm-3 41 1-1a6 6 0 0 0-1 1zm13 0h2v-1l-2 1zm-25 0a2 2 0 0 0-1 0 6 6 0 0 0 1 0zm0 22h4-4zm27-23zm-21 23h-2a4 4 0 0 1 2 1 1 1 0 0 1 0-1z" fill="#feb189"/><path d="M666 63h-25c1 0 3 1 1 2l5 1c-2 2 2 4 1 7 3 0 1-4 4-4-1-1-3 0-4-2l2-2a4 4 0 0 1-2-1h12v1h3a1 1 0 0 1-2-1l2-1h9zm-9 25zm28-17zm-13-8h1-1z" fill="#feb189"/><path d="m1160 17-75 2h-8l-5-1c-34-2-69-1-104 1l-36 1a257 257 0 0 0-30 1c-18-1-37-2-55-1l-24 1h-38c-18-1-37-2-55-1a504 504 0 0 0-57 4l7 3v1l6-1-1-2 3-1c10-1 20-2 30 0v2l9 1c-7 2-16 2-24 3 4 3 8 0 12 1 5 2 10-3 13 1l-2 2h1l-42 3c-1 0-2 4-3 2v-1l-2 1h-1l1-1h-2l1 1c-1 2-4 1-6 2h19c-9 3-23 1-34 4l2 1c2 1 3 1 4-1 3 2 7-1 9 2l-2 2c-3 0-6 2-7-1l-5 1 1 1c-5-1-9 3-14 1l1-1a6 6 0 0 1-3 0v1c-4 1-7 0-10 2a2 2 0 0 1-1-2h-4c4 6-6-1-6 2 3 1 8 1 9 3v-2c7 0 18-2 26-1v1l-5 1c2 0 4-1 6 1-2 3-9 0-7 3 3 2 4-1 5-2l2 3 31-1c2 1 0 3-1 3l-16 1a8 8 0 0 1 5 1v-1a201 201 0 0 1 39-1h38l2 1c1 0 5-3 7 0h-6s3 1 1 2h1c-22 1-45-2-68 2l6 2c-1 3-8 0-6 3h-8l1-1-4-1 2 1-1 1h-6c-3 1-5 5-8 2h-13c0 2-3 3-4 1-3 1-9-1-9 4l39-1h20l20-1c2 1 7 1 5 5l2-1-2-2c1-2 3-1 5-1 2 2 7 1 9 4-1-5 5-3 7-3l1 4c-2 1-6 4-8 0a14 14 0 0 1-12 1c-8 0-16 2-25 1-14 3-31-3-44 4l-2-1a1 1 0 0 1 0 1l14 1v3a8 8 0 0 1 7-4c2-1 5 2 6 0h22l20 1c4-3 10 3 14-1 2 0 2 2 2 3h-6l1 2-2 1-26-1c-4 5-8-2-11 2 9 2 17-1 25 0 5 2 10-3 13 2 1-2 6-1 3-4 4-3 4 4 9 2l-2 1c11 4 24 2 35 2 1-5-6 1-5-4 3 0 7-1 11 1h-5v3c2-1 5 2 8 0 7 8 18-3 24 5-4 3-10 0-15 0-4 2-11-2-15 1l6 3c4 9 15 1 23 3h-1l1-2 2 1c1 1 0 1-1 2l6 2c5-1 8 4 11-1l3 4c-13-1-29-3-42-1 5 3 14 0 21 4a104 104 0 0 0 22 3c4 1 12 1 16 3 6 1 12 3 17 0 21 2 43 5 63 5l-24-3 3-2-3-3c2-2 6 0 9-1s5 5 7 1c4 5 19-2 17 8l39 1 3-3c7-1 13 0 20 1s13 2 20 1c6 1 12 0 18-1l5 1a30 30 0 0 1 4 0l8-1a9 9 0 0 1 0 1l11 1a46 46 0 0 0 17 0h11l2-3h2c7-1 12 1 18 1 7 1 13 2 20 1 7 1 15-1 22-1M639 28c0-2-2-1-3-1 1 2 3 2 3 1zm13 1 1-2-1-1c-2 0-1 2 0 3zm-33 0h-3l3 2v-2zm14 5h-8v2c3-1 6 0 8-2zm15-1c-1 0-4-1-4 1l4-1z" fill="#feb189"/><path d="m692 31-4-1c-5-2-11 3-17 1-6 2-13 0-21 2a238 238 0 0 0 42-2zm8-2c-2-1-5 0-5 2h5zm-30 11c-3-3-8-1-11 0h11zm-17 10c-1-2 1-5 4-5-6-1-11 1-16 1 3 0 10 0 12 4zm-51 2h-2 2zm0 0h1a1 1 0 0 0-1 0zm18 2c0-1 0-1 0 0zM620 56l-2-1 2-1-2-1c0-2 2-2 3-2-5-3-4 4-8 3l3 1c-1 3-9-1-7 4 5 2 9-2 11-3z" fill="#feb189"/><path d="M613 54h-1a7 7 0 0 0 1 0zm-12 5h2v-2c-1-2-2 1-2 2zm-8-1c-2-1 0 1-2 2h2v-2zm49-3a5 5 0 0 0-2 1h3zm7 0h-1v1h1v-1zm-4 3 3 1v-1h-3zm-88 10 19-1c-6-1-13 0-19 1zm25-2v1a2716 2716 0 0 0 0-1zm48-3c-6 0-13-1-20 1l4 1-1 1c2 0 3-1 5 1l-1 1c1 0 2 2 3 1v-1c-3-7 10 0 10-5zm7 6h-3l3 1v-1zm-45 5 22-2-22 1v1zm-1 5h14c-3-5-10 0-14 0zm45-2c-1 0-2 3-4 1a110 110 0 0 0-24-1v2c10 0 19 2 29 0zm-15 11h2l-1-1-1 1zm21-1h2a10 10 0 0 0-2-1zm4-1-2 1a2 2 0 0 0 2-1zm65 6h-2l3 1-1-1zm12 0h-5 5zm-19 11c5 0 10 1 14-1-4-1-11-1-14 1zm25 0c6 0 12 2 17 0-4-1-11-3-17 0zm21 0c5 1 11 3 15 1h-1c-5-1-10-2-14-1zm25 2c1 3 4 1 7 1v-1c-3-2-5 0-7 0zm5 4h-2a2 2 0 0 0 2 0zm-5 0h3-3zm-38 5c3 0 5 2 7 1v-1zm-1 0h1a4 4 0 0 0-1 0zm45 1h-10c3 0 7 3 10 0zm139 12 4 1c-1-2-3-1-4-1zm0 0h-3a3 3 0 0 0 3 0zm8 1h2a4 4 0 0 0-2 0zm6 0h-4 4zm54 5 2-1c-1-1-1 1-2 1z" fill="#feb189"/></g><g data-name="Layer 9"><path d="M323 280c-12-6-40-10-73-10-32 0-60 4-72 10z" fill="#ff7f46"/><path fill="#e65b1e" d="M253 280v-22l-26-1-11-146h-66l-12 169h115z"/><path fill="#d0501b" d="m223 213-8-102h-17l8 107 17-5z"/><path fill="#a92700" d="M263 256v-4l-20-37-17-2-47 13v4l16 4 18 37 50-15z"/><path fill="#b83e26" d="m198 231-19-5v4h1l3 1 12 3 18 37 4-1-19-39z"/><ellipse cx="208.7" cy="196.8" rx="5.6" ry="8.9" fill="#fbe692"/><path fill="#d0501b" d="M214 271v9h39v-21l-39 12z"/><path fill="#ff6d2d" d="m160 280 4-166h-5l-12 166h13z"/><ellipse cx="182.4" cy="105.7" rx="50.7" ry="7.8" fill="#ff7f46"/><path fill="#e65b1e" d="M150 61h64v44h-64z"/><path fill="#fff2bd" d="M156 67h13v33h-13zm18 0h13v33h-13zm19 0h13v33h-13z"/><path fill="#a92700" d="M219 61h-74v-3l37-24 37 24v3z"/><path d="M133 104a1 1 0 0 0-1 0zm100 1a2 2 0 0 1 0 1c0 4-23 8-51 8-27 0-49-4-50-8a25 25 0 0 0 0 4c0 4 22 8 50 8s51-4 51-8v-6z" fill="#e65b1e"/><path fill="#ff6d2d" d="M132 78h3v29h-3zm6 3h3v27h-3zm7 2h3v27h-3zm84-2h3v26h-3zm-6 0h3v27h-3zm-7 2h3v27h-3zm-9 0h3v27h-3zm-7 0h2v27h-2zm-11 0h2v27h-2zm-12 0h2v27h-2zm-10 0h2v27h-2zm-11 0h3v27h-3z"/><path d="m219 72-5-1v4l17 3c-4 2-22 5-49 5s-44-3-48-5l16-3v-4l-4 1c-14 2-16 4-16 6s2 5 16 7a296 296 0 0 0 36 2 296 296 0 0 0 37-2c14-2 16-5 16-7s-2-4-16-6z" fill="#ff6d2d"/><ellipse cx="164.3" cy="155.3" rx="5.6" ry="8.9" fill="#fbe692"/><ellipse cx="158.7" cy="262.3" rx="5.6" ry="8.9" fill="#fbe692"/><path fill="#ff6d2d" d="M214 280v-9h-1l-18-37-11-2v48h30z"/></g></svg>
