<svg xmlns="http://www.w3.org/2000/svg" viewBox="0 0 950 950"><defs><linearGradient id="a" x1="800.1" y1="263.4" x2="800.1" y2="149.6" gradientUnits="userSpaceOnUse"><stop offset="0" stop-color="#f58159"/><stop offset="1" stop-color="#e03e2f"/></linearGradient><linearGradient id="b" x1="799.4" y1="319.5" x2="799.4" y2="232.7" gradientUnits="userSpaceOnUse"><stop offset="0" stop-color="#f58159"/><stop offset=".1" stop-color="#f37954"/><stop offset=".3" stop-color="#ea5f44"/><stop offset=".5" stop-color="#e54d38"/><stop offset=".7" stop-color="#e14231"/><stop offset="1" stop-color="#e03e2f"/></linearGradient><style>.a{fill:#241c2c}.b{fill:#342c3e}.c{fill:#463e52}.d{fill:#f58159}.e,.p{fill:#e03e2f}.e{opacity:.2}.h{fill:#16111c;opacity:.7}.i{fill:#777088}.j{fill:#9990ab}.k{fill:#dbd3e9}.m{fill:#564f64}.n{fill:#b9b2d0}.o{fill:#f9a66d}</style></defs><path class="a" d="M129.2 352.6v573.6l26.4 11.7V364.4z"/><path class="b" d="M754.9 597.4 155.6 937.9V399.2L755 58.7v538.7z"/><path class="c" d="M155.6 364.4v573.5L755 597.4V23.8zM747 592.8 163.6 924V403.8L746.9 72.4v520.4z"/><path class="b" d="M209.6 345.2c3.3-2 6-.4 6 3.4a13.2 13.2 0 0 1-6 10.3c-3.3 2-6 .4-6-3.4a13.2 13.2 0 0 1 6-10.3zm-16 9.2c3.2-1.9 6-.3 6 3.5a13.2 13.2 0 0 1-6 10.3c-3.4 1.9-6 .4-6-3.4a13.2 13.2 0 0 1 6-10.4zm-16.1 9.3c3.3-2 6-.4 6 3.4a13.2 13.2 0 0 1-6 10.4c-3.3 1.9-6 .3-6-3.5a13.2 13.2 0 0 1 6-10.3z"/><path class="a" d="M825 479a10.8 10.8 0 0 0-9.8 0l-28.6 16.5-30-17.2c2-3.3.9-7-3.7-9.7-6.3-3.7-16.5-3.7-22.8 0s-6.3 9.5 0 13.2a25.3 25.3 0 0 0 16.8 2.2l29.8 17.2-155.4 89.7-30.3-17.4c1.4-3.2.1-6.6-4.1-9-6.3-3.7-16.5-3.7-22.9 0s-6.3 9.5 0 13.2c4.9 2.8 12 3.4 18 1.9l29.4 17-190.3 109.8-29.7-17.2c2-3.3.8-7-3.7-9.7-6.4-3.7-16.6-3.7-23 0s-6.2 9.5 0 13.2a25.3 25.3 0 0 0 17 2.2l29.6 17.1-32.6 18.8c-2.7 1.6-2.7 4.1 0 5.7a10.8 10.8 0 0 0 9.8 0L825 484.7c2.7-1.6 2.7-4.1 0-5.7zM365.7 744a10.8 10.8 0 0 0-9.8 0c-2.7 1.6-2.7 4 0 5.7a10.8 10.8 0 0 0 9.8 0c2.7-1.6 2.7-4.1 0-5.7zm-21.3 12.3a9 9 0 0 0-8.1 0c-2.3 1.3-2.3 3.4 0 4.7a9 9 0 0 0 8.1 0c2.3-1.3 2.3-3.4 0-4.7zm-19.6 11.3a7.2 7.2 0 0 0-6.4 0c-1.8 1-1.8 2.7 0 3.7a7.2 7.2 0 0 0 6.4 0c1.8-1 1.8-2.7 0-3.7zM307 777.9a5.3 5.3 0 0 0-4.8 0c-1.3.8-1.3 2 0 2.8a5.3 5.3 0 0 0 4.8 0c1.3-.7 1.3-2 0-2.8zm541-312.1a10.8 10.8 0 0 0-9.8 0c-2.7 1.5-2.7 4 0 5.6a10.8 10.8 0 0 0 9.8 0c2.7-1.5 2.7-4 0-5.6zm19.6-11.3a9 9 0 0 0-8.1 0c-2.3 1.3-2.3 3.4 0 4.7a9 9 0 0 0 8 0c2.4-1.3 2.4-3.5.1-4.7zm18-10.4a7.2 7.2 0 0 0-6.5 0c-1.8 1-1.8 2.7 0 3.7a7.2 7.2 0 0 0 6.4 0c1.8-1 1.8-2.7 0-3.7zm16.2-9.4a5.3 5.3 0 0 0-4.8 0c-1.3.8-1.3 2 0 2.8a5.3 5.3 0 0 0 4.8 0c1.3-.8 1.3-2 0-2.8z"/><path class="d" d="M86 722.4c3.2 1.9 3.2 4.8 0 6.7a12.8 12.8 0 0 1-11.5 0c-3.2-1.9-3.2-4.8 0-6.7a12.8 12.8 0 0 1 11.5 0zM98.6 698c3 1.7 3 4.5 0 6.2a11.9 11.9 0 0 1-10.7 0c-3-1.7-3-4.5 0-6.2a11.9 11.9 0 0 1 10.7 0zm39.7-18.5c3.6 2 3.6 5.4 0 7.5a14.4 14.4 0 0 1-13 0c-3.6-2.1-3.6-5.5 0-7.5a14.4 14.4 0 0 1 13 0zm71.2-22.3c3.7 2.2 3.7 5.7 0 7.9a15 15 0 0 1-13.6 0c-3.7-2.2-3.7-5.7 0-7.9a15 15 0 0 1 13.6 0zm-157.4 72a1.2 1.2 0 0 1 0 2.3 4.4 4.4 0 0 1-4 0 1.2 1.2 0 0 1 0-2.3 4.4 4.4 0 0 1 4 0zm60.2-21a1.2 1.2 0 0 1 0 2.4 4.4 4.4 0 0 1-4 0 1.2 1.2 0 0 1 0-2.3 4.4 4.4 0 0 1 4 0zm59.5-47.2a1.2 1.2 0 0 1 0 2.3 4.4 4.4 0 0 1-4 0 1.2 1.2 0 0 1 0-2.3 4.4 4.4 0 0 1 4 0zm64.2-21.7a1.2 1.2 0 0 1 0 2.3 4.4 4.4 0 0 1-4 0 1.2 1.2 0 0 1 0-2.3 4.4 4.4 0 0 1 4 0zm28.6-33.7c3.6 2.1 3.6 5.5 0 7.6a14.5 14.5 0 0 1-13.1 0c-3.6-2-3.6-5.5 0-7.6a14.5 14.5 0 0 1 13.1 0zm45.6-8.6c3.4 2 3.4 5.1 0 7a13.6 13.6 0 0 1-12.3 0c-3.4-2-3.4-5 0-7a13.6 13.6 0 0 1 12.3 0zm7.4-11.5c1.7 1 1.7 2.6 0 3.5a6.7 6.7 0 0 1-6 0c-1.6-1-1.6-2.5 0-3.5a6.7 6.7 0 0 1 6 0zm6.3-18.3c4 2.3 4 6 0 8.3a15.8 15.8 0 0 1-14.2 0c-4-2.3-4-6 0-8.3a15.8 15.8 0 0 1 14.2 0zm36 8.2c3.2 1.8 3.2 4.8 0 6.6a12.8 12.8 0 0 1-11.6 0c-3.2-1.8-3.2-4.8 0-6.6a12.8 12.8 0 0 1 11.6 0zm28.7-19c3.7 2.1 3.7 5.6 0 7.8a15 15 0 0 1-13.5 0c-3.8-2.2-3.8-5.7 0-7.8a15 15 0 0 1 13.5 0zM414 533c3.9 2.3 3.9 6 0 8.2a15.6 15.6 0 0 1-14.1 0c-4-2.3-4-6 0-8.2a15.6 15.6 0 0 1 14.1 0zm18.3-15.2c2.2 1.3 2.2 3.4 0 4.6a8.8 8.8 0 0 1-8 0c-2.2-1.2-2.2-3.3 0-4.6a8.8 8.8 0 0 1 8 0zm-6.4-14.3c3.6 2 3.6 5.3 0 7.3a14 14 0 0 1-12.6 0c-3.6-2-3.6-5.3 0-7.3a14 14 0 0 1 12.6 0zm48.1-.2c3.7 2.2 3.7 5.7 0 7.8a15 15 0 0 1-13.6 0c-3.7-2.1-3.7-5.6 0-7.8a15 15 0 0 1 13.6 0zm55.4-41c4 2.4 4 6 0 8.3a15.7 15.7 0 0 1-14.2 0c-4-2.3-4-6 0-8.2a15.7 15.7 0 0 1 14.2 0zm-33.7 2.7a1.2 1.2 0 0 1 0 2.3 4.4 4.4 0 0 1-4 0 1.2 1.2 0 0 1 0-2.3 4.4 4.4 0 0 1 4 0zm48.5-37.8c3 1.7 3 4.4 0 6.2a11.9 11.9 0 0 1-10.7 0c-3-1.7-3-4.5 0-6.2a11.9 11.9 0 0 1 10.7 0zm48.3-4.6c3.8 2.2 3.8 5.8 0 8a15.1 15.1 0 0 1-13.6 0c-3.8-2.2-3.8-5.8 0-8a15.1 15.1 0 0 1 13.7 0zm21.3-27c3 1.8 3 4.6 0 6.3a11.9 11.9 0 0 1-10.8 0c-3-1.7-3-4.5 0-6.2a11.9 11.9 0 0 1 10.8 0zm31.6-2.8c2.5 1.5 2.5 3.9 0 5.4a10.1 10.1 0 0 1-9.2 0c-2.5-1.5-2.5-3.9 0-5.4a10.1 10.1 0 0 1 9.2 0zm12.6-23.8a1.2 1.2 0 0 1 0 2.3 4.4 4.4 0 0 1-4 0 1.2 1.2 0 0 1 0-2.3 4.4 4.4 0 0 1 4 0zm25 .6c2.5 1.4 2.5 3.8 0 5.2a10 10 0 0 1-9 0c-2.5-1.4-2.5-3.8 0-5.2a10 10 0 0 1 9 0zm1.9-11.6c1.7 1 1.7 2.5 0 3.5a6.9 6.9 0 0 1-6.2 0c-1.7-1-1.7-2.6 0-3.5a6.9 6.9 0 0 1 6.2 0zm22.3 4.2c3.6 2 3.6 5.4 0 7.5a14.5 14.5 0 0 1-13.1 0c-3.6-2-3.6-5.5 0-7.5a14.5 14.5 0 0 1 13.1 0zM752 339c3.2 1.8 3.2 4.8 0 6.7a12.8 12.8 0 0 1-11.5 0c-3.2-1.9-3.2-4.9 0-6.7a12.8 12.8 0 0 1 11.5 0zm12.6-24.5c3 1.7 3 4.4 0 6.2a11.9 11.9 0 0 1-10.7 0c-3-1.8-3-4.5 0-6.2a11.9 11.9 0 0 1 10.7 0zm39.7-18.6c3.6 2 3.6 5.4 0 7.5a14.4 14.4 0 0 1-13 0c-3.6-2-3.6-5.4 0-7.5a14.4 14.4 0 0 1 13 0zm-86.2 49.7a1.2 1.2 0 0 1 0 2.3 4.4 4.4 0 0 1-4 0 1.2 1.2 0 0 1 0-2.3 4.4 4.4 0 0 1 4 0zm60.3-20.9a1.2 1.2 0 0 1 0 2.3 4.4 4.4 0 0 1-4 0 1.2 1.2 0 0 1 0-2.3 4.4 4.4 0 0 1 4 0zm59.5-47.3a1.2 1.2 0 0 1 0 2.3 4.4 4.4 0 0 1-4 0 1.2 1.2 0 0 1 0-2.3 4.4 4.4 0 0 1 4 0z"/><path class="e" d="M846.6 284.2c-26-15-68.3-15-94.4 0s-26 39.4 0 54.4 68.3 15 94.4 0 26-39.4 0-54.4z"/><path class="e" d="M842.1 286.7c-23.6-13.6-61.8-13.6-85.5 0s-23.6 35.8 0 49.4 62 13.6 85.5 0 23.6-35.7 0-49.4z"/><path class="e" d="M837.7 289.3c-21.1-12.2-55.5-12.2-76.6 0s-21.2 32 0 44.2 55.5 12.3 76.6 0 21.2-32 0-44.2z"/><path d="M820.7 262.5c-8.4-13-13.8-16.4-21.6-14.8 5.9 8.7-5 15-7.6 5.5a29.4 29.4 0 0 0-24.7-22.1c21.7 26.8-9.8 35-25 24.2-11.8-8.3-10.2-21.5-7-29.6 14.8-35.9 55.4-42.8 58.7-72.3 17.8 9.6 16.2 39 24.5 47.6 9.8 10.2 23 1.9 14-7.9a63.8 63.8 0 0 1 34.8 43.5c7 30.2-35.7 42-46.1 25.9z" fill="url(#a)"/><path d="M866.9 236.7c6.7 30.2-35.8 41.8-46.2 25.8-8.4-13-13.8-16.4-21.6-14.8 5.9 8.8-5 15-7.6 5.5a29.4 29.4 0 0 0-24.7-22.1c21.7 26.8-9.8 35-25 24.2-11.4-8-10.3-20.6-7.3-28.7a76 76 0 0 0-5 28.1 69.8 69.8 0 1 0 139.6 0 71.3 71.3 0 0 0-2.2-18z" fill="url(#b)"/><path class="h" d="m706.1 397.6-21.6-12.4 9.6-5.5-44.5-25.7-9.5 5.5-12-6.9c-5.6-3.2-14.9-3.2-20.5 0l-78 45c-5.7 3.3-5.7 8.7 0 12l12 6.8-11.3 6.5 44.5 25.7L586 442l21.6 12.4c5.6 3.3 14.9 3.3 20.6 0l77.9-45c5.7-3.2 5.7-8.6 0-11.9zm-167.7 6.8a.9.9 0 0 1 0-1.7l78-45a3.3 3.3 0 0 1 3 0l11.8 7-51.2 29.5-29.7 17.1zm158.9 0-78 45a3.3 3.3 0 0 1-3 0L594.9 437l29.7-17.1 51.2-29.6 21.6 12.4a.9.9 0 0 1 0 1.7z"/><path class="i" d="m607.6 332.4-78 45c-5.6 3.3-5.6 8.6 0 12l78 45c5.7 3.2 14.9 3.2 20.6 0l77.9-45c5.7-3.4 5.7-8.7 0-12l-78-45c-5.6-3.2-14.8-3.2-20.5 0zm89.7 50.1a.9.9 0 0 1 0 1.7l-78 45a3.3 3.3 0 0 1-2.9 0l-78-45a.9.9 0 0 1 0-1.7l78-45a3.3 3.3 0 0 1 3 0z"/><path class="c" d="m540.8 396 44.4 25.7 9-5.3-44.5-25.7zm98.6-57-8.8 5 44.5 25.7 8.8-5.1z"/><path class="a" d="m706.1 389.3-78 45a21 21 0 0 1-10.2 2.5v11.5a21 21 0 0 0 10.3-2.4l77.9-45c2.8-1.7 4.3-3.8 4.3-6v-11.5c0 2.1-1.5 4.3-4.3 6z"/><path class="c" d="m697.3 382.5-78-45a3 3 0 0 0-1.4-.3v11.5a3 3 0 0 1 1.4.4l69.4 40 8.6-4.9a.9.9 0 0 0 0-1.7z"/><path class="a" d="M617.9 337.2a3 3 0 0 0-1.5.3l-78 45a.9.9 0 0 0 0 1.7l8.6 5 69.4-40.1a3 3 0 0 1 1.5-.4v-11.5z"/><path class="j" d="m674.5 271.6-49.7 86-29.8-17.2-19.9 34.5 49.7 28.7L694.4 283l-19.9-11.4z"/><path class="k" d="m546.4 358.3 19.8-34.5 28.8 16.6-19.9 34.5zM596 341l49.7-86.2 28.7 16.7-49.7 86z"/><path class="c" d="M617.9 436.8a21 21 0 0 1-10.3-2.5l-78-45c-2.8-1.6-4.2-3.8-4.2-6V395c0 2.2 1.4 4.3 4.2 6l78 45a21 21 0 0 0 10.3 2.4v-11.5z"/><path d="m554 517.8-134-78.3c-12.8-7.4-22.7-.9-35.3 6.8-7.8 4.7-18.5 15.5-11 19.8L508 544.5c12.7 7.3 26.6 4.2 39.3-3.3 6.4-3.8 16.7-16.8 6.8-23.4z" fill="#16111c"/><path class="i" d="M552.3 519c-12.3-35.6-37.8-69.9-67.3-86.9a84.7 84.7 0 0 0-81.9-1.4 61 61 0 0 0-28.3 33.2l136.5 78.7s11 6.2 29.9-4.7c14.8-8.5 11.1-18.9 11.1-18.9z"/><path class="c" d="M515.5 482.5c-25.9-33.7-60.2-55.4-87.4-55l-14.4 7.4c27.7-.4 61 21 87.1 55.8z"/><path class="m" d="M444 455.8c-29.4-17-54.9-12.2-67.2 9.2l134.6 77.6C499 507 473.5 472.8 444 455.8z"/><path class="b" d="m453.6 478 6.6 4.2a99.8 99.8 0 0 0-16.1-11.7c-22.2-12.8-41.6-10.7-52.7 3l8 4.5c12.4-11.8 32-12.8 54.2 0z"/><path class="k" d="m514.5 481-9.3-30.4-5.3 5c-22.3-27-50-43-72.2-41.6l-5.4-11.3-9.2 19.8 23.4 10.2-5.3-11.1c20.2-.9 45 13.4 65 37.5l-5.2 5z"/><path class="n" d="m514.5 481 11.2-6.5-9.2-30.5-11.3 6.6 9.3 30.4zm-92.2-78.3 5.4 11.3 11.2-6.6-5.3-11.2-11.3 6.5z"/><path class="n" d="M510 447.8c-22-26.3-49.2-41.7-71-40.4l-11.3 6.6c22.2-1.3 50 14.7 72.2 41.7l5.3-5.1z"/><path class="j" d="M446.6 423.5a49 49 0 0 0-15.3-2l5.2 11.2 11.3-6.6-1.2-2.6z"/><path class="h" d="m404.5 577.6-49.6 28.6c-3.8 2.2-10.5 2-14.9-.6l-47.5-27.4c-4.4-2.6-4.8-6.4-1-8.6L341 541c3.8-2.2 10.5-2 14.9.6l47.4 27.4c4.4 2.5 5 6.4 1 8.6z"/><path class="k" d="M400.8 520 352 548.3c-2.3 1.3-6.2 1.1-8.8-.4l-47.5-27.4c-2.6-1.5-2.9-3.8-.6-5l48.7-28.2c2.3-1.3 6.2-1.1 8.8.4l47.4 27.4c2.6 1.5 2.9 3.8.7 5z"/><path class="j" d="M402.3 517.6a2.5 2.5 0 0 1-1.5 2.5L352 548a8 8 0 0 1-4.1.9v45.1a13.5 13.5 0 0 0 7-1.5l49.5-28.6c1.8-1 2.6-2.5 2.5-4l-4.7-42.4z"/><path class="n" d="M348 549a10.1 10.1 0 0 1-4.7-1.2l-47.4-27.4a3.6 3.6 0 0 1-2.2-2.8l-4.8 42c0 1.7 1.2 3.6 3.6 5L340 592a17.2 17.2 0 0 0 8 2v-45z"/><path class="b" d="m352.7 533-31-17.8 6-3.5 31.6 5.2h.1l-20.3-11.7 6-3.5 30.9 17.9-5.9 3.4-31.7-5 20.2 11.6z"/><path class="h" d="m316.2 628.5-49.6 28.7c-3.8 2.2-10.5 1.9-14.9-.7l-47.4-27.4c-4.4-2.5-4.9-6.4-1-8.6l49.5-28.6c3.8-2.2 10.5-2 15 .6l47.4 27.4c4.4 2.6 4.8 6.4 1 8.6z"/><path class="o" d="m312.5 571-48.7 28.1c-2.3 1.3-6.2 1.2-8.8-.3l-47.4-27.4c-2.6-1.5-3-3.8-.7-5.1l48.7-28.1c2.3-1.3 6.2-1.2 8.8.3L312 566c2.6 1.5 2.9 3.8.6 5.1z"/><path class="d" d="m291.2 559.3-47.7 27.6-15.3-8.9 47.7-27.6 15.3 8.9z"/><path class="p" d="M314 568.6a2.5 2.5 0 0 1-1.5 2.4l-48.7 28.1a8 8 0 0 1-4 .9v45a13.5 13.5 0 0 0 6.8-1.4l49.6-28.6c1.9-1 2.7-2.5 2.6-4l-4.8-42.4z"/><path d="M259.7 600a10.1 10.1 0 0 1-4.7-1.2l-47.4-27.4a3.6 3.6 0 0 1-2.2-2.8l-4.8 42c0 1.7 1.2 3.6 3.6 5l47.5 27.4a17.2 17.2 0 0 0 8 2v-45z" fill="#f36e4f"/><path class="p" d="m236.3 564.3-5.1-3 5.4-3 5 2.8zm-1.7 4.2 6-3.4L261 577a10.9 10.9 0 0 0 11.1-.1c3.7-2.1 3.6-4.5.3-6.4l-20.6-12 6-3.3 20.8 12c7 4 6.1 8.8-1 12.9s-15.3 4.5-22.3.5zm10.4-9.3-5-3 5.4-3 5 2.9z"/><path class="o" d="M279.4 479.8a.8.8 0 0 1 .3.2.9.9 0 0 0-.2-.2zm-15.9-8.5-22.4 12.9a3.3 3.3 0 0 0-1.5 2.6v27.6l-13.7 7.9c-1.3.7-2 3-1 3.5l14.9 8.6c-1-.5-.3-2.8 1-3.6l13.6-7.8v-27.6a3.3 3.3 0 0 1 1.5-2.6l22.5-13a1 1 0 0 1 1 0l-14.9-8.6a1 1 0 0 0-1 0zm31 29L280 492v16.4l14.7-8z"/><path class="d" d="m254.8 494-14.8-8.6a3 3 0 0 0-.4 1.4v27.6l14.8 8.6z"/><path d="M279.9 508.3v-27.6a1 1 0 0 0-1.5-.9l-22.5 13a3.3 3.3 0 0 0-1.5 2.6V523l-13.6 7.9c-1.3.7-2 3-1 3.6l26.3 15.2c.6.3 1.5-.2 2.1-1.3l26.4-45.6c1-1.6.2-3.1-1.1-2.3z" fill="#ec5e44"/><path class="h" d="m228 679.5-49.6 28.6c-3.8 2.2-10.5 2-14.9-.6L116 680.1c-4.4-2.5-4.9-6.4-1-8.6l49.5-28.6c3.8-2.2 10.5-2 15 .6l47.4 27.4c4.4 2.5 4.9 6.4 1.1 8.6z"/><path class="k" d="m224.2 622-48.7 28.1c-2.2 1.3-6.2 1.1-8.8-.4l-47.4-27.3c-2.6-1.5-2.9-3.8-.6-5.1l48.7-28.1c2.2-1.3 6.2-1.2 8.8.3l47.4 27.4c2.6 1.5 2.9 3.8.6 5.1z"/><path class="j" d="M225.7 619.5a2.5 2.5 0 0 1-1.5 2.5l-48.7 28a8 8 0 0 1-4 1v45a13.5 13.5 0 0 0 6.9-1.5L228 666c1.8-1 2.6-2.5 2.5-4l-4.7-42.4z"/><path class="n" d="M171.4 651a10.1 10.1 0 0 1-4.7-1.3l-47.4-27.4a3.6 3.6 0 0 1-2.1-2.8l-4.8 42c0 1.8 1.1 3.6 3.6 5l47.4 27.5a17.2 17.2 0 0 0 8 2v-45z"/><path class="b" d="m180 633.3-30.9-17.8 19.6-11.3 5.5 3.1-13.6 8 8.2 4.6 12.4-7.1 5.2 3L174 623l12 6.9z"/><path class="m" d="M129.2 352.6 728.4 12.1l26.5 11.7-599.3 340.6z"/></svg>
