<svg xmlns="http://www.w3.org/2000/svg" id="codes_broken" width="400" height="280" data-name="codes broken"><defs><style>.cls-2{fill:#c0ed49}.cls-3{fill:#92dd00}.cls-4{fill:#f6f6f8}.cls-5{fill:#7553ff}.cls-6{fill:#181225}.cls-7{fill:#ff45a8}</style></defs><path d="M122.33 63.76c-8.4-1.7-17.81.05-24.33 5.53q-1.14.96-2.11 2.08a26 26 0 0 0-3.22 4.66A16.4 16.4 0 0 1 89.2 65.9a16.64 16.64 0 0 1 33.12-2.13" class="cls-2"/><path d="M92.67 76.4a.4.4 0 0 1-.3-.14 18 18 0 0 1-2.07-3.48 17.03 17.03 0 0 1 15.54-23.9c8.53 0 15.78 6.38 16.86 14.83a.38.38 0 0 1-.45.42c-8.7-1.76-17.91.32-24.01 5.45q-1.11.93-2.07 2.04a26 26 0 0 0-3.17 4.6.4.4 0 0 1-.3.19zm13.17-26.77a16.28 16.28 0 0 0-13.21 25.71q1.38-2.4 2.98-4.21.99-1.15 2.15-2.12c6.14-5.17 15.35-7.34 24.12-5.72a16.3 16.3 0 0 0-16.04-13.66" class="cls-6"/><path d="M112.24 63.38c1.81-3.46 2.4-6.2 2.4-6.2-2.18-3.42-6.28-3.42-6.28-3.42a41 41 0 0 1-6.12 12.7 29 29 0 0 1 10-3.08" class="cls-5"/><path d="M113.42 53.94s-1.07 4.07-2.78 6.5l3.66 1.44s1.59-2.34 1.8-5.37c0 0-1.07-1.5-2.68-2.57" class="cls-4"/><path d="m156.42 33-21.94 4.96s1.57-15.41-7.84-25.08c0 0-4.7 1.57-7.31 4.18 0 0 11.75 9.15 12.01 28.74l18.29-7.06s-4.09 15.5-19.1 28.12q-.76-.53-1.66-.97a28 28 0 0 0-4.92-1.75c5.31-22.03-1.85-35.5-1.85-35.5l-18.22 5.47C100.23 20.8 88.44 9.88 88.44 9.88c-4.29 2.25-4.93 7.3-4.93 7.3 11.58 8.57 16.62 23.04 16.62 23.04l19.5-6.22c4.51 11.13 3.22 23.85 2.25 29.68-8.28-1.55-17.48.23-23.88 5.61-8.28 6.96-10.16 21.46-10.16 21.46a35 35 0 0 0 4.33 3.28c1.95 1.28 4 2.4 5.9 3.36a86 86 0 0 0 6.55 2.88 18 18 0 0 1-.6-13.28q.01 0 .02-.02a18.05 18.05 0 0 1 32.5-3.36c.26-4.31-.04-10.9-4.07-15.12 6.76-5.06 17.74-15.83 23.95-35.5" class="cls-7"/><path d="M104.62 100.65q-.08 0-.14-.03a85 85 0 0 1-6.58-2.9 61 61 0 0 1-5.94-3.37 35 35 0 0 1-4.37-3.32.4.4 0 0 1-.12-.33c.02-.14 2-14.72 10.29-21.7 6.04-5.08 15.13-7.27 23.8-5.76 1.03-6.39 2.01-18.22-2.14-28.78l-19.18 6.12a.4.4 0 0 1-.47-.24c-.05-.14-5.14-14.46-16.48-22.87a.4.4 0 0 1-.15-.35c.03-.21.72-5.26 5.13-7.57a.4.4 0 0 1 .43.06c.11.1 11.69 10.95 15.43 24.03L122 28.28c.18-.05.36.03.44.18.07.14 7.1 13.7 1.97 35.41q2.5.68 4.63 1.68.71.34 1.48.84c12.75-10.82 17.52-23.85 18.54-27.02l-17.57 6.78a.38.38 0 0 1-.51-.35c-.13-10.01-3.35-17.21-6.03-21.49a29 29 0 0 0-5.84-6.95.37.37 0 0 1-.04-.56c2.65-2.65 7.27-4.2 7.46-4.27q.22-.07.39.1c8.45 8.67 8.14 22.07 7.98 24.85l21.45-4.85q.21-.04.36.11.14.16.08.37c-6.24 19.76-17.42 30.6-23.75 35.43 2.97 3.34 4.28 8.42 3.9 15.1a.38.38 0 0 1-.7.17 17.68 17.68 0 0 0-31.83 3.29l-.02.04a17.7 17.7 0 0 0 .58 12.98.38.38 0 0 1-.34.53M88.24 90.6a35 35 0 0 0 4.13 3.1 60 60 0 0 0 5.87 3.35q2.72 1.34 5.69 2.53a18.2 18.2 0 0 1-.26-12.72l.02-.04a18.43 18.43 0 0 1 32.54-4.41c.17-6.09-1.19-10.69-4.03-13.68a.37.37 0 0 1 .05-.55c6.13-4.6 17.29-15.17 23.61-34.68l-21.3 4.82a.38.38 0 0 1-.45-.4c.01-.16 1.41-15.18-7.57-24.61-.91.33-4.42 1.68-6.65 3.73 1.9 1.67 11.4 10.87 11.82 28.2l17.78-6.86a.38.38 0 0 1 .5.45c-.04.16-4.29 15.76-19.21 28.3a.4.4 0 0 1-.45.03c-.59-.4-1.1-.7-1.62-.94q-2.21-1.04-4.86-1.73a.37.37 0 0 1-.27-.45c4.81-19.93-.72-32.94-1.68-34.96l-17.92 5.38q-.16.03-.28-.03a.4.4 0 0 1-.18-.23c-3.32-12.1-13.6-22.37-15.14-23.87-3.38 1.92-4.29 5.73-4.46 6.67 10.42 7.82 15.58 20.5 16.43 22.74l19.17-6.1c.19-.07.39.03.46.2 4.46 11.03 3.34 23.46 2.27 29.89a.4.4 0 0 1-.44.3c-8.57-1.6-17.6.52-23.57 5.54-7.56 6.35-9.74 19.29-10 21.03" class="cls-6"/><path d="M89.58 83.35a50 50 0 0 0-1.56 6.28l-2.44-.2-3.28-.3s-1.35 6.05-1.9 8.21c-.53 2.15-5.93-10.49-5.93-10.49s-3.87 15.86-4.55 18.42C69.3 107.58 65.84 96 65.19 82a3.36 3.36 0 0 1 4.12-3.44l17.84 4.22z" class="cls-7"/><path d="M69.7 105.94h-.05c-1.57-.17-4.3-12.25-4.84-23.92a3.7 3.7 0 0 1 1.34-3.06 3.7 3.7 0 0 1 3.24-.76l20.27 4.79a.4.4 0 0 1 .28.48 50 50 0 0 0-1.55 6.23.4.4 0 0 1-.4.3l-5.4-.47a505 505 0 0 1-1.82 7.9c-.11.45-.4.52-.53.53h-.03c-1.08 0-3.57-5.17-5.64-9.93-.89 3.63-3.72 15.2-4.29 17.34-.13.5-.42.57-.58.57m-1.17-27.1c-.68 0-1.35.25-1.9.7-.72.6-1.11 1.5-1.07 2.44.55 11.85 3.04 21.3 4.05 23 .8-3.07 4.46-18.06 4.5-18.22a.37.37 0 0 1 .7-.05c1.97 4.6 4.38 9.52 5.27 10.39.57-2.32 1.84-7.99 1.85-8.05.04-.18.22-.3.4-.3l5.38.48c.22-1.18.65-3.21 1.4-5.6l-19.89-4.7a3 3 0 0 0-.69-.08" class="cls-6"/><path d="M75.65 83.13c-.1.17-.12.38-.16.53-.09.46-.15 1.04-.35 1.6a2.7 2.7 0 0 1-.88 1.27l.01.03.4.6.02.02c.2-.12.6-.51.87-.98.28-.45.41-.92.41-.92.18-.63.25-1.33-.07-1.92a1 1 0 0 0-.17-.24h-.03z" class="cls-6"/><path d="M119.51 110.88a18 18 0 0 1-14.89-10.61 78 78 0 0 1-5.1-2.18c-3.3 7.5-8.48 23.46-2.4 40z" class="cls-7"/><path d="M97.12 138.47h-.06a.4.4 0 0 1-.3-.24c-6.06-16.52-1.09-32.34 2.42-40.3a.37.37 0 0 1 .5-.18c2.12 1 3.93 1.73 5.08 2.17q.14.05.2.2a17.7 17.7 0 0 0 14.58 10.39.38.38 0 0 1 .26.6l-22.39 27.23a.4.4 0 0 1-.29.13m2.6-39.88c-3.41 7.86-8.02 22.96-2.47 38.76l21.53-26.17c-6.3-.8-11.78-4.8-14.44-10.62a78 78 0 0 1-4.63-1.97" class="cls-6"/><path d="M69.52 171.65 173.78 44.91a5.55 5.55 0 0 1 6.19-1.68l170.85 62.26a4 4 0 0 1 2.02 5.89l-97.33 155.88a6.1 6.1 0 0 1-7.94 2.18L70.9 178.4a4.42 4.42 0 0 1-1.39-6.74" class="cls-5"/><path d="M250.33 270.48q-1.52.01-2.93-.7L70.74 178.72a4.78 4.78 0 0 1-1.5-7.3l.28.23-.29-.24L173.5 44.68a5.9 5.9 0 0 1 6.6-1.8l170.86 62.26a4.36 4.36 0 0 1 2.21 6.44l-97.33 155.88a6.5 6.5 0 0 1-5.5 3.02M178.07 43.27c-1.52 0-3 .66-4 1.88L69.8 171.9a4.03 4.03 0 0 0 1.27 6.17l176.66 91.05a5.74 5.74 0 0 0 7.45-2.05l97.34-155.88a3.62 3.62 0 0 0-1.84-5.34L179.84 43.58a5 5 0 0 0-1.77-.31" class="cls-6"/><path d="M94.62 127.48c.4 3.46 1.18 7.03 2.5 10.62l17.14-20.83 1.02-7.29a18 18 0 0 1-10.66-9.71 78 78 0 0 1-5.1-2.18 62 62 0 0 0-4.9 18.18l3-.93s.4 6.02 1.2 9.63l1.1-4.73 1.64 5.78 1.33-9.51s-.52 3.45.52 11c0 0-4.18 5.43-5.31 6.64-.9.96-2.16-3.29-3.48-6.67" class="cls-6"/><path d="m252.85 264.38 85.9-137.08-172.67-67.92-92.72 113.85c-.68.83-.41 2.06.54 2.55l175.35 89.6c1.27.64 2.84.22 3.6-1" class="cls-4"/><path d="M250.52 266.05q-.74.01-1.44-.35L73.73 176.12a2.04 2.04 0 0 1-.66-3.13l92.9-114.06.25.1 173.08 68.08-86.13 137.47c-.6.95-1.6 1.47-2.65 1.47M166.2 59.83 73.65 173.46a1.3 1.3 0 0 0 .42 1.99l175.35 89.59c1.11.57 2.45.2 3.12-.86l85.65-136.7z" class="cls-6"/><path d="M139.14 92.9a18.05 18.05 0 1 1-36.1 0 18.05 18.05 0 0 1 36.1 0" class="cls-2"/><path d="M121.09 111.33a18.4 18.4 0 0 1-13.73-6.16 18.3 18.3 0 0 1-4.7-12.27c0-10.16 8.27-18.42 18.43-18.42s18.42 8.26 18.42 18.42-8.26 18.43-18.42 18.43m0-36.1A17.7 17.7 0 0 0 103.4 92.9a17.6 17.6 0 0 0 6.21 13.45 17.7 17.7 0 0 0 29.14-13.44 17.7 17.7 0 0 0-17.67-17.68M82.83 107.96l-5.51 7.26-18.96-12.64-15.05 18.71-7.01-4.99 20.58-23.4z" class="cls-6"/><path d="M124.8 81.93s.14 10.38-8.8 18c0 0 3.26 2.94 7.48 3.22 0 0 8.94-6.29 8.94-18.27 0 0-.94-.94-3.21-1.9-2.13-.9-4.42-1.05-4.42-1.05" class="cls-5"/><path d="M129.82 81.6s-.22 6.85-2.9 12.21l4.18 1.93s3.11-5.78 3-11.68z" class="cls-4"/><ellipse cx="214.79" cy="67.43" class="cls-3" rx="5.91" ry="4.89"/><path d="M214.8 72.7c-3.47 0-6.3-2.37-6.3-5.27s2.83-5.27 6.3-5.27 6.28 2.36 6.28 5.27-2.82 5.26-6.29 5.26m0-9.79c-3.06 0-5.54 2.03-5.54 4.52s2.48 4.51 5.53 4.51 5.54-2.02 5.54-4.51-2.48-4.52-5.54-4.52" class="cls-6"/><ellipse cx="198.52" cy="60.92" rx="5.91" ry="4.89" style="fill:#ffd00e"/><path d="M198.52 66.18c-3.47 0-6.29-2.36-6.29-5.26s2.82-5.27 6.29-5.27 6.28 2.36 6.28 5.27-2.82 5.26-6.28 5.26m0-9.78c-3.05 0-5.54 2.03-5.54 4.52s2.49 4.51 5.54 4.51 5.53-2.02 5.53-4.51-2.48-4.52-5.53-4.52" class="cls-6"/><ellipse cx="182.24" cy="54.41" class="cls-7" rx="5.91" ry="4.89"/><path d="M182.24 59.67c-3.46 0-6.28-2.36-6.28-5.26s2.82-5.27 6.28-5.27 6.29 2.36 6.29 5.27-2.82 5.26-6.29 5.26m0-9.78c-3.05 0-5.53 2.03-5.53 4.52s2.48 4.51 5.53 4.51 5.54-2.02 5.54-4.51-2.49-4.52-5.54-4.52" class="cls-6"/><path d="M106.52 126.68c.4-7.03 1.4-16.42 3.88-23.36.29-.81 1.21-1.2 1.99-.81 6.18 3.06 30.7 16.28 37.38 36.35.26.77-.7 1.4-1.31.85l-13.8-12.2 1.04 7.25s-8.49-9.9-13.4-14.52c0 0 1.52 4.72 2.08 7.92 0 0-7.03-5.78-11.46-9.26z" class="cls-7"/><path d="M148.99 140.29q-.43 0-.78-.3l-13.03-11.53.89 6.25a.38.38 0 0 1-.66.3c-.08-.1-7.4-8.64-12.32-13.49.5 1.66 1.29 4.46 1.66 6.58a.37.37 0 0 1-.6.35c-.08-.05-6.79-5.57-11.18-9.03l-6.16 7.5a.38.38 0 0 1-.67-.27c.39-6.8 1.38-16.4 3.9-23.45a1.83 1.83 0 0 1 2.51-1.03c28.23 13.98 35.9 31.52 37.57 36.57.17.5-.02 1.05-.47 1.35q-.3.2-.66.2m-14.33-13.16q.14 0 .25.1l13.8 12.2c.18.16.4.12.53.03.06-.04.27-.2.17-.49-2.81-8.46-9.12-16.66-18.75-24.37a107 107 0 0 0-18.44-11.76 1 1 0 0 0-.86-.03q-.44.2-.61.64c-2.36 6.58-3.36 15.44-3.79 22.1l5.67-6.9a.4.4 0 0 1 .52-.05c3.5 2.76 8.68 7 10.66 8.61-.65-3.04-1.85-6.81-1.86-6.85a.37.37 0 0 1 .61-.39c3.96 3.73 10.32 10.97 12.58 13.58l-.85-6a.37.37 0 0 1 .37-.42" class="cls-6"/><path d="M110.86 114.12c-.15.19-.23.5-.3.7-.16.68-.19 1.66.16 2.63.17.48.48.94.88 1.26.4.35.87.47 1.26.56v-.02l.11-.72v-.03c-.18-.03-.78-.17-1.11-.62-.36-.43-.48-1-.48-1-.21-.74-.18-1.55-.35-2.38l-.09-.37-.03-.01zM118.97 115.35c-.14.22-.19.58-.22.83-.09.78.13 1.93.83 2.86a4 4 0 0 0 1.99 1.39l.65.19.02-.03.14-.71v-.03c-.21-.06-.97-.2-1.5-.63-.55-.39-.86-.94-.86-.94-.45-.74-.6-1.62-.85-2.52l-.12-.4-.03-.02zM131.89 122.83c-.16.19-.2.51-.25.74-.1.71.19 1.73.8 2.52a7 7 0 0 0 2.02 1.74q.01 0 .02-.02l.36-.63.01-.02c-.17-.11-.76-.46-1.2-.9-.46-.41-.75-.89-.75-.89-.4-.66-.6-1.38-.83-2.17q-.03-.17-.1-.36l-.03-.01zM288.6 143.84l8.7-10.22s4 2.62 5.8 6.77zM184.92 94.69l26.06 11.46 3.35-4.83-26.1-11.46zM173.85 95.43l5.6-.84-1.86-11.85 14.18-2.8-1.03-5.22-19.69 3.64z" class="cls-6"/><path d="m165.64 69.21.65 7.47-7.84 1.12zM144.82 96.15l.65 7.46-7.84 1.12zM120.34 126.68l.68 7.7-8.15 1.16zM96.64 155l.7 8.11-8.31 1.21z" class="cls-3"/><path d="m270 118.25-30.49-12.93 9.09-3.91-2.8-4.86-28.74 12.5 2.52 4.86 13.36-5.75 32.16 13.73zM276.76 121.12l-4.73 3.72 15.48 6.61 5.04-3.63z" class="cls-6"/><ellipse cx="308.06" cy="128.28" class="cls-6" rx="3.24" ry="4.07" transform="rotate(-81.3 308.06 128.28)"/><path d="m185.98 142.02 6.4-1.88s-3.86-16.54 13.15-20.43l-1.7-5.88s-9.74 1.36-15.31 9.77c-5.55 8.36-2.54 18.42-2.54 18.42M203.46 136.57l4.04-5.74 10.15 11.94 18.98-7.9 5.45 19.36 16.54-4.51 1.41 6.67-23.31 6.49-5.07-18.33-15.69 6.39zM296.95 166.74v-6.01l-5.3-.41 2.56-3.77-5.62-2.74-4.2 5.95-9.38-.73 4.74 7.3-1.63 2.3h-8.86l-.91 6.21 5.26.17-3.56 5.05 5.87 3.4 5.57-8.19 10.37.35-4.08-9.6z" class="cls-6"/><ellipse cx="261.88" cy="167.39" class="cls-6" rx="3.46" ry="3"/><path d="m261.04 214.41 2.74 6.27s10.7-3 15.54-11.5 1.44-16.45 1.44-16.45l-6.14.78s5.22 14.63-13.58 20.9M265.35 198.87l-2.88 5.09-8.16-3.79-6.66 9.34-19.59-9.34-3.01-13.06-11.49-5.48 3.72-5.29 13.52 6.2 3.98 13.32 10.32 4.64 6.14-8.36zM187.07 184.88l-3.3-6.94 33.29-13.55 3.33 6.96zM92.26 178.1l18.11-23.41 11.45 5.9-3.99 5.03-5.55-2.78-10.42 12.67 6.25 3.3-4.34 5.2zM160.59 149.32l4.31-4.91 25.76 11.81-3.87 5.51zM155.59 155.7l26.2 12.32-4.83 5.95-26.11-12.93zM114.41 182.76l28.6 14.56 4.83-5.77-28.69-14.57zM160.59 186.03l6.81.17-.17 27.32h-6.38z" class="cls-6"/><ellipse cx="173.76" cy="197.01" class="cls-6" rx="3.45" ry="3.12" transform="rotate(-2.2 173.76 197.02)"/><ellipse cx="154.52" cy="204.43" class="cls-6" rx="3.45" ry="3.12" transform="rotate(-2.2 154.53 204.43)"/><path d="m175.67 216.96 13.61-20.24 9.05 22.48 8.88-13.87 13.35 28.18-6.03 3.62-8.27-17.49-9.57 14.9-8.87-23.78-6.38 9.31zM233.31 240.32l3.71-5.95 17.58 8.87-3.79 6.3z" class="cls-6"/><ellipse cx="231.54" cy="227.05" class="cls-6" rx="3.41" ry="3.02"/><ellipse cx="224.57" cy="239.33" class="cls-6" rx="3.49" ry="3.06"/><ellipse cx="103.69" cy="70.27" class="cls-5" rx="1.92" ry="1.38" transform="rotate(-15.17 103.7 70.27)"/><ellipse cx="108.54" cy="71.19" class="cls-5" rx="1.41" ry="1.03" transform="rotate(-15.17 108.54 71.19)"/><ellipse cx="132.67" cy="74.53" class="cls-5" rx="1.03" ry="1.41" transform="rotate(-42.95 132.67 74.53)"/><path d="M92.17 94.03c-1.54-1-3.02-2.1-4.33-3.28l3.47-1.47.27 1.47z" class="cls-5"/><path d="M92.17 94.4a.4.4 0 0 1-.2-.05 35 35 0 0 1-4.38-3.32.37.37 0 0 1 .1-.62l3.47-1.47q.16-.07.33.01.16.1.19.26l.86 4.76a.4.4 0 0 1-.37.44m-3.64-3.53q1.4 1.2 3.11 2.36l-.62-3.42z" class="cls-6"/><path d="M98.1 97.4h-.03a64 64 0 0 1-5.9-3.37l4.7-2 .3 1.31z" class="cls-5"/><path d="M98.1 97.77h-.03a.4.4 0 0 1-.17-.04 65 65 0 0 1-5.94-3.39.38.38 0 0 1 .06-.65l4.71-2.01a.37.37 0 0 1 .52.26l1.21 5.37a.37.37 0 0 1-.36.46m-5.14-3.67q.47.3.95.58c1.3.79 2.57 1.48 3.65 2.03l-.95-4.17z" class="cls-6"/><path d="M175.72 104.66c-3.14-2.45-8.64-6.75-14.47-11.33 0 0 .09 1.74.09 5.6 0 0-8.95-8-13.67-11.22 0 0-.1 2.26-.47 4.24 0 0-3.85-3.45-7.25-5.9l-1.53 1.84a18 18 0 0 0-1.87-4.28q.07-1.27.05-2.75.58-.97 1.36-2.09a70 70 0 0 1 7.77-9.4 2.86 2.86 0 0 1 3.98-.13c5.47 5.01 20.54 19.6 27.37 34.36.39.84-.63 1.63-1.36 1.06" class="cls-7"/><path d="M176.27 105.23q-.43 0-.78-.27l-13.84-10.83q.05 1.29.06 4.8a.37.37 0 0 1-.62.28c-.09-.08-8.32-7.43-13.08-10.8a32 32 0 0 1-.44 3.61.37.37 0 0 1-.62.21c-.04-.03-3.66-3.27-6.94-5.68l-1.3 1.58a.38.38 0 0 1-.65-.13 18 18 0 0 0-1.83-4.2.4.4 0 0 1-.06-.2c.04-.72.08-1.68.05-2.73q0-.1.06-.2.58-.97 1.37-2.11a71 71 0 0 1 7.81-9.46 3.25 3.25 0 0 1 4.5-.13c6 5.5 20.7 19.86 27.46 34.47.25.54.1 1.14-.36 1.5q-.36.3-.8.3m-15.02-12.27q.12 0 .23.08c5.83 4.58 11.33 8.88 14.47 11.33a.5.5 0 0 0 .64 0 .5.5 0 0 0 .15-.6c-6.7-14.5-21.32-28.78-27.28-34.25a2.5 2.5 0 0 0-3.46.1 70 70 0 0 0-9.02 11.34c.01.98-.02 1.87-.05 2.56a19 19 0 0 1 1.64 3.6l1.09-1.32a.4.4 0 0 1 .5-.06c2.67 1.92 5.62 4.47 6.78 5.49.28-1.75.35-3.51.35-3.53a.38.38 0 0 1 .59-.3c3.96 2.7 10.96 8.82 13.08 10.7 0-3.23-.08-4.73-.09-4.75a.4.4 0 0 1 .38-.4" class="cls-6"/><path d="M158.67 89.28c-.15.16-.28.44-.35.65-.23.63-.11 1.74.58 2.48.66.76 1.56 1.1 2.27 1.3v-.02l.15-.72v-.02a4 4 0 0 1-1.24-.54c-.47-.31-.75-.73-.75-.73-.4-.56-.43-1.24-.52-2.02q0-.17-.06-.36l-.03-.02zM145.9 84.12c-.14.15-.2.39-.28.55-.15.53-.19 1.33.16 2.1a2.3 2.3 0 0 0 1.88 1.32v-.02l.01-.73v-.02a1.4 1.4 0 0 1-.84-.4c-.3-.29-.41-.7-.41-.7-.19-.53-.16-1.14-.33-1.8a1 1 0 0 0-.11-.28l-.03-.02zM140.75 79.6c-.21.16-.43.47-.6.67-.45.67-.93 1.7-1.16 2.84-.21 1.12-.18 2.46.74 3.24l.03-.01.38-.62.02-.02c-.02 0-.2-.17-.3-.43a3 3 0 0 1-.2-.97c0-.73.19-1.41.19-1.41.23-.93.66-1.82.9-2.8q.06-.23.07-.45 0 0-.02-.03t-.05-.01M95.89 71.37a26 26 0 0 0-3.22 4.66 18 18 0 0 1-2.03-3.4s1.37.2 5.25-1.26M98.07 97.4l3.09-1.25s-.13-4.23 2.87-9.16a18 18 0 0 0 .59 13.28 86 86 0 0 1-6.55-2.88" class="cls-6"/><path d="M89.58 83.35a50 50 0 0 0-1.56 6.28l-2.44-.2a48 48 0 0 1 1.57-6.65zM80.02 111.66l-5.52-3.03.44 5.01 2.38 1.58z"/><path d="m98.09 97.4-1.15 2.2-3.9 7.42s-8.32-7.4-9.13-7.13 5.3 12.24 5.3 12.24-14.18-3.36-14.71-3.5c-.52-.13 7.1 7.03 21.23 13.97a2.2 2.2 0 0 0 3.09-1.35 114 114 0 0 0 4.07-21.67c-1.32-.56-2.99-1.29-4.8-2.18" class="cls-7"/><path d="M96.7 123.2a3 3 0 0 1-1.14-.26c-13-6.38-21.72-13.66-21.44-14.43a.4.4 0 0 1 .47-.24l13.92 3.31c-2.19-4.31-5.37-10.87-5-11.77.04-.1.18-.24.28-.27.65-.22 3.74 2.1 9.15 6.88l4.82-9.2c.1-.17.31-.25.5-.15a83 83 0 0 0 4.78 2.16c.15.06.24.22.23.38q-.14 1.53-.32 2.98a114 114 0 0 1-3.77 18.77 2.6 2.6 0 0 1-2.48 1.84m-21.1-13.92c2.3 2.1 9.44 7.66 20.3 12.99a1.84 1.84 0 0 0 2.56-1.12 113 113 0 0 0 4.03-21.34 84 84 0 0 1-4.24-1.91l-4.87 9.3a.37.37 0 0 1-.58.1c-3.44-3.05-7.31-6.25-8.55-6.91.37 1.48 2.85 6.78 5.3 11.57a.37.37 0 0 1-.43.54z" class="cls-6"/><path d="m98.09 97.4-1.15 2.2 5.64 2.94q.17-1.44.31-2.96c-1.32-.56-2.99-1.29-4.8-2.18M92.48 113.1c-.02-.16-.14-.32-.22-.45-.27-.35-.8-.7-1.4-.86a3.5 3.5 0 0 0-1.77-.02v.03l.24.68.01.03c.06-.03.45-.1.8-.05.36.03.68.15.68.15.44.15.81.41 1.35.53q.11.03.26.03l.02-.02z" class="cls-6"/><path d="M110.4 103.32a38 38 0 0 0-1.02 3.31q-.94-.8-1.74-1.7z"/><path d="M124.03 71.66a63 63 0 0 0 6.51-4.8" class="cls-7"/><path d="M124.06 71.68c.3-.06.7-.25.97-.37 1.71-.82 4.24-2.9 5.75-4.15l-.01-.02-.47-.56-.02-.01-1.73 1.4-1.42 1.07c-.94.7-1.92 1.34-2.77 2.18q-.19.17-.34.4v.03z" class="cls-6"/><path d="M126.64 72.18s2.36-1.09 5.84-3.7" class="cls-7"/><path d="M126.67 72.2c.27 0 .62-.12.87-.2 1.55-.53 3.8-2.22 5.16-3.2l-.01-.03-.44-.58-.02-.01c-.2.15-.89.66-1.54 1.1-.65.46-1.26.85-1.26.85-.84.54-1.71 1.01-2.48 1.69l-.32.31v.04z" class="cls-6"/><path d="M121.88 63.68c-.34 2.03-.64 3.23-.64 3.23" class="cls-7"/><path d="M121.84 63.68c-.14.1-.22.25-.3.36-.38.7-.47 2-.67 2.77l.03.01.7.18h.03l.32-1.62c.09-.48.22-.95.07-1.46a1 1 0 0 0-.1-.23l-.03-.01z" class="cls-6"/><path d="M123.17 67.12q.43-1.5.79-2.98" class="cls-7"/><path d="M123.2 67.13c.15-.08.24-.22.32-.31.42-.63.58-1.88.8-2.59h-.02l-.7-.18h-.03l-.39 1.48c-.1.43-.26.86-.13 1.35q.01.1.08.23z" class="cls-6"/><path d="m139.95 86.04-1.53 1.85a18 18 0 0 0-1.87-4.28q.07-1.27.05-2.75.58-.97 1.36-2.09c.2 2.25.24 4.05.24 4.05l1.74-1.45c-1.51 3.71 0 4.67 0 4.67M97.18 93.34s-4.5 1.03-5.01.7l4.7-2.02zM91.58 90.75h-3.74l3.47-1.47z"/><path d="m133.95 41.33.53-3.37" class="cls-7"/><path d="M133.98 41.33q.16-.2.22-.4c.26-.92.44-1.97.62-2.9l-.02-.02-.64-.1h-.03l-.05.42c-.1.8-.23 1.73-.25 2.55q-.01.2.08.44l.03.01z" class="cls-6"/><path d="m104.6 36.48-.72-2.37" class="cls-7"/><path d="M104.64 36.46a1 1 0 0 0 .05-.34c-.09-.7-.3-1.43-.48-2.1h-.03l-.6.18-.04.02.1.28c.21.55.42 1.2.7 1.73q.06.14.23.26h.03z" class="cls-6"/><path d="m121.71 33.13-2.08.87" class="cls-7"/><path d="M121.7 33.1a1 1 0 0 0-.32-.03c-.63.13-1.28.4-1.88.6l.01.03.25.6.02.02.25-.12c.47-.24 1.04-.49 1.49-.8a1 1 0 0 0 .2-.24v-.03z" class="cls-6"/><path d="m152.51 37.7-2.88 1.04" class="cls-7"/><path d="M152.5 37.67a1 1 0 0 0-.42-.01c-.84.18-1.74.5-2.56.75v.03l.22.6q0 .02.02.03l.34-.14c.68-.28 1.47-.58 2.1-.93a1 1 0 0 0 .32-.27v-.03z" class="cls-6"/></svg>
