<?xml version="1.0" encoding="UTF-8"?>
<svg id="codes_broken" data-name="codes broken" xmlns="http://www.w3.org/2000/svg" width="400" height="280" viewBox="0 0 400 280">
  <defs>
    <style>
      .cls-1 {
        fill: #ffd00e;
      }

      .cls-2 {
        fill: #c0ed49;
      }

      .cls-3 {
        fill: #92dd00;
      }

      .cls-4 {
        fill: #f6f6f8;
      }

      .cls-5 {
        fill: #7553ff;
      }

      .cls-6 {
        fill: #181225;
      }

      .cls-7 {
        fill: #ff45a8;
      }
    </style>
  </defs>
  <g>
    <g>
      <g>
        <path class="cls-2" d="M122.3291,63.7626c-8.4-1.7-17.81.05-24.33,5.53-.76.64-1.46,1.33-2.11,2.08-1.25,1.42-2.31,3.01-3.22,4.66-.8-1.05-1.48-2.19-2.03-3.41-.92-2.05-1.43-4.33-1.43-6.73,0-9.19,7.45-16.64,16.63-16.64,8.47,0,15.44,6.33,16.49,14.51Z"/>
        <path class="cls-6" d="M92.6692,76.4074c-.1167,0-.2271-.0542-.2983-.1475-.8169-1.0718-1.5146-2.2437-2.0737-3.4829-.9707-2.1636-1.4629-4.4795-1.4629-6.8843,0-9.3823,7.6284-17.0151,17.0049-17.0151,8.5273,0,15.7759,6.3784,16.8618,14.8369.0151.1201-.0283.2402-.1167.3223-.0884.0825-.2129.1147-.3296.0933-8.7139-1.7642-17.9165.3242-24.0146,5.4497-.7388.6221-1.4346,1.3081-2.0679,2.0386-1.1392,1.2939-2.2065,2.8394-3.1743,4.5952-.0615.1108-.1748.1836-.3008.1929-.0093.0005-.0186.001-.0278.001ZM105.8391,49.6276c-8.9629,0-16.2549,7.2964-16.2549,16.2651,0,2.2979.4697,4.5107,1.397,6.5767.4561,1.0107,1.0088,1.9751,1.646,2.873.9175-1.5947,1.9185-3.0117,2.9805-4.2173.6562-.7583,1.3804-1.4717,2.1494-2.1196,6.147-5.166,15.3481-7.3345,24.125-5.7114-1.2598-7.8276-8.0659-13.6665-16.043-13.6665Z"/>
      </g>
      <path class="cls-5" d="M112.2399,63.376c1.8119-3.4601,2.403-6.2032,2.403-6.2032-2.186-3.4156-6.2848-3.4156-6.2848-3.4156-1.795,6.0872-4.3,10.2502-6.121,12.7075,3.072-1.6347,6.4905-2.6597,10.0028-3.0886Z"/>
      <path class="cls-4" d="M113.4174,53.9384s-1.0719,4.0734-2.7745,6.5013l3.6554,1.4374s1.5869-2.3385,1.799-5.3661c0,0-1.0719-1.5007-2.6798-2.5727Z"/>
      <g>
        <path class="cls-7" d="M156.4199,32.998l-21.9418,4.9631s1.5673-15.4116-7.8364-25.0764c0,0-4.7018,1.5673-7.314,4.1794,0,0,11.7546,9.1425,12.0158,28.7334l18.2849-7.0527s-4.0868,15.4967-19.0916,28.115c-.5176-.3507-1.0621-.6821-1.6678-.9672-1.5606-.7348-3.2165-1.3094-4.9211-1.7527,5.316-22.0312-1.8478-35.4992-1.8478-35.4992l-18.223,5.4669c-3.6446-13.2921-15.4359-24.2258-15.4359-24.2258-4.2878,2.2511-4.9309,7.2892-4.9309,7.2892,11.5769,8.5756,16.6151,23.0467,16.6151,23.0467l19.5093-6.2172c4.5053,11.1276,3.2119,23.8466,2.2433,29.6773-8.2801-1.5454-17.4761.2318-23.8789,5.6149-8.28,6.96-10.16,21.46-10.16,21.46,1.31,1.18,2.79,2.28,4.33,3.28,1.95,1.28,4,2.4,5.9,3.36,2.74,1.35,5.17,2.34,6.55,2.88-1.01-2.25-1.58-4.7401-1.58-7.3701,0-2.0699.35-4.06.99-5.91,0-.01.01-.01.01-.02,2.45-7.06,9.16-12.12,17.05-12.12,6.57,0,12.3,3.52,15.46,8.76.2497-4.3172-.0522-10.8944-4.0746-15.1259,6.7522-5.056,17.7377-15.8307,23.9455-35.4886Z"/>
        <path class="cls-6" d="M104.6189,100.6477c-.0459,0-.0923-.0083-.1367-.0259-2.2812-.8926-4.4946-1.8662-6.5786-2.8926-2.3042-1.1646-4.2461-2.271-5.9404-3.3833-1.6509-1.0723-3.1235-2.188-4.375-3.3145-.0913-.0825-.1367-.2046-.1211-.3271.019-.1465,1.9946-14.7256,10.2905-21.6987,6.043-5.0811,15.1343-7.2773,23.8115-5.7646,1.0249-6.3867,2.0044-18.2222-2.1533-28.7773l-19.1768,6.1113c-.1924.0601-.4009-.0425-.4678-.2339-.0503-.144-5.1377-14.4639-16.4839-22.8691-.1089-.0806-.166-.2144-.1489-.3486.0273-.2139.7188-5.2588,5.1284-7.5737.1406-.0732.3125-.0518.4292.0571.1177.1089,11.6929,10.9551,15.439,24.0322l17.8569-5.3574c.1733-.0503.3555.0264.439.1831.0718.1353,7.0928,13.6987,1.9668,35.4067,1.6646.4531,3.2207,1.0181,4.6309,1.6821.4819.2266.958.4956,1.4814.8379,12.749-10.8218,17.521-23.8467,18.5376-27.0205l-17.5693,6.7769c-.1133.0435-.2427.0293-.3447-.0396-.1016-.0688-.1636-.1826-.165-.3057-.1333-10.0156-3.3525-17.2134-6.0293-21.4883-2.9028-4.6353-5.8125-6.9316-5.8418-6.9541-.0845-.0659-.1372-.1655-.1436-.2729-.0068-.1069.0327-.2119.1089-.2881,2.644-2.6445,7.2651-4.2051,7.4604-4.2705.1367-.0449.2866-.0093.3872.0942,8.4458,8.6812,8.1421,22.0786,7.9785,24.8608l21.4482-4.8511c.1309-.0312.2681.0132.3584.1118.0908.0986.1221.2388.0815.3667-6.2397,19.7598-17.415,30.603-23.7471,35.4258,2.9697,3.3423,4.2793,8.4185,3.8936,15.0972-.0098.1641-.125.3032-.2847.3428-.1597.0391-.3262-.0303-.4111-.1704-3.2393-5.3716-8.8989-8.5786-15.1387-8.5786-7.5229,0-14.2324,4.769-16.6958,11.8677l-.0005-.0005c-.0049.0142-.0103.0278-.0166.041-.6387,1.853-.9624,3.793-.9624,5.7666,0,2.501.5205,4.9287,1.5474,7.2168.062.1387.0342.3018-.0708.4121-.0723.0757-.1709.1162-.2715.1162ZM88.239,90.6071c1.1899,1.0552,2.5796,2.1011,4.1343,3.1108,1.6719,1.0977,3.5898,2.1899,5.8647,3.3403,1.8091.8911,3.7202,1.7427,5.689,2.5361-.8389-2.1387-1.2632-4.3853-1.2632-6.6919,0-2.0645.3403-4.0942,1.0107-6.0327h.0005c.0049-.0137.0103-.0278.0166-.041,2.5737-7.3887,9.5625-12.3511,17.3975-12.3511,6.1089,0,11.6831,2.9473,15.1362,7.9429.1704-6.0894-1.1807-10.686-4.0229-13.6758-.0737-.0776-.1108-.1831-.1016-.2896.0088-.1069.063-.2046.1489-.269,6.1294-4.5898,17.2886-15.168,23.6128-34.6777l-21.3018,4.8184c-.1167.0264-.2407-.0054-.3311-.085-.0903-.0801-.1367-.1987-.1245-.3188.0151-.1514,1.4189-15.1689-7.5664-24.6045-.9111.3296-4.4219,1.6851-6.6509,3.7285,1.9048,1.6724,11.3984,10.8682,11.8203,28.208l17.7852-6.8604c.1299-.0498.2798-.0234.3848.0708.105.0938.1484.2388.1128.375-.0415.1562-4.2896,15.7563-19.2129,28.3062-.1284.1079-.313.1167-.4517.0234-.5854-.3965-1.0991-.6948-1.6172-.938-1.4683-.6914-3.1016-1.2729-4.8555-1.7295-.1982-.0513-.3184-.252-.2705-.4507,4.8086-19.9277-.728-32.9399-1.6802-34.9604l-17.918,5.3755c-.0981.0278-.2017.0176-.2896-.0312-.0884-.0488-.1533-.1313-.1802-.229-3.3179-12.1006-13.5898-22.3716-15.1348-23.8647-3.3774,1.9209-4.2861,5.728-4.4624,6.665,10.4219,7.8242,15.583,20.5039,16.4346,22.7446l19.168-6.1089c.187-.0586.3882.0352.4614.2168,4.4604,11.0161,3.334,23.4487,2.2656,29.8794-.0166.0991-.0728.188-.1553.2456-.0825.0571-.1841.0791-.2837.0615-8.5732-1.6016-17.605.519-23.5688,5.5337-7.5562,6.3521-9.7383,19.2881-10.001,21.0273Z"/>
      </g>
      <g>
        <path class="cls-7" d="M89.5791,83.3525c-.85,2.68-1.33,4.98-1.56,6.28l-2.44-.21-3.28-.29s-1.35,6.05-1.89,8.21c-.54,2.15-5.94-10.49-5.94-10.49,0,0-3.87,15.86-4.55,18.42-.61,2.31-4.08-9.27-4.73-23.27-.11-2.23,1.94-3.95,4.12-3.44l17.84,4.22,2.43.57Z"/>
        <path class="cls-6" d="M69.7009,105.9426c-.02,0-.0381-.001-.0537-.0029-1.5645-.166-4.291-12.2505-4.8325-23.9194-.0586-1.1831.4292-2.2974,1.3389-3.0562.9072-.7568,2.0874-1.0376,3.2407-.7666l20.27,4.79c.1021.0239.189.0894.2407.1802.0513.0908.063.1987.0312.2983-.8774,2.7671-1.3467,5.0923-1.5483,6.2319-.0332.1909-.21.3242-.4014.3081l-5.3931-.4712c-.2871,1.2812-1.3574,6.0449-1.8208,7.8984-.1123.4482-.4097.519-.5322.5288-.0083.0005-.0171.001-.0259.001-1.083,0-3.5786-5.1714-5.647-9.9336-.8867,3.6289-3.7173,15.1978-4.2861,17.3394-.1313.4985-.4189.5737-.5806.5737ZM68.533,78.8474c-.6875,0-1.355.2388-1.8989.6929-.7271.6064-1.1172,1.4971-1.0703,2.4438.5498,11.8477,3.0342,21.2988,4.0459,22.9917.7974-3.061,4.4575-18.0571,4.4951-18.2119.0381-.1567.1724-.2715.3335-.2847.1587-.0176.312.0781.3755.2261,1.9697,4.6104,4.375,9.5239,5.2661,10.3936.5747-2.3213,1.8403-7.9893,1.853-8.0479.0415-.1836.2163-.3008.3994-.292l5.3784.4707c.2202-1.1816.6528-3.2129,1.3901-5.604l-19.8784-4.6982c-.2295-.0537-.4604-.0801-.6895-.0801Z"/>
      </g>
      <path class="cls-6" d="M75.6533,83.1333c-.1022.1644-.1213.3767-.1666.5228-.0847.4593-.1458,1.0487-.3447,1.6017-.1829.5442-.5601,1.0706-.881,1.2757,0,0,.005.0101.0126.0216l.3992.6073c.0076.0115.0201.0163.0201.0163.1888-.1195.5972-.5112.8712-.9747.2789-.4544.4058-.9243.4058-.9243.1794-.6301.2461-1.3256-.0703-1.9167-.0416-.0844-.0905-.1668-.1658-.2424,0,0-.0168-.0035-.0352-.0011-.0223.0029-.0426.0092-.0453.0139Z"/>
      <g>
        <path class="cls-7" d="M119.5115,110.8797c-6.6593-.5787-12.276-4.7735-14.8909-10.6113,0,0,0,.0001,0,.0002-1.1334-.4362-2.9679-1.181-5.0971-2.1835-3.3093,7.5133-8.4875,23.462-2.403,40.0139l22.3909-27.2192Z"/>
        <path class="cls-6" d="M97.1209,138.4738c-.021,0-.042-.002-.0625-.0054-.1328-.0225-.2432-.1143-.2896-.2402-6.0708-16.5137-1.0947-32.334,2.4116-40.2944.041-.0923.1172-.1646.2119-.1997.0947-.0361.1997-.0317.291.0117,2.1143.9956,3.9253,1.7314,5.0723,2.1729.0923.0356.167.1064.2075.1968,2.623,5.8555,8.21,9.8369,14.5806,10.3906.1392.0122.2598.1001.3135.228.0537.1284.0322.2764-.0562.3838l-22.3906,27.2192c-.0718.0874-.1787.1367-.2896.1367ZM99.7132,98.5881c-3.4048,7.8618-8.0117,22.9595-2.4624,38.7627l21.5288-26.1719c-6.2983-.7915-11.7749-4.8037-14.437-10.6162-1.0938-.4238-2.7251-1.0894-4.6294-1.9746Z"/>
      </g>
      <g>
        <path class="cls-5" d="M69.5206,171.6506l104.2544-126.7358c1.4963-1.8189,3.9772-2.4962,6.1902-1.6897l170.8523,62.264c2.3935.8723,3.3764,3.7271,2.0271,5.8879l-97.3326,155.8803c-1.6761,2.6842-5.1307,3.6343-7.9436,2.1845l-176.6586-91.0509c-2.5048-1.291-3.1794-4.5641-1.3892-6.7403Z"/>
        <path class="cls-6" d="M250.3269,270.4841c-.9946,0-1.9985-.2285-2.9302-.709l-176.6587-91.0508c-1.2954-.668-2.2065-1.8691-2.501-3.2964-.2939-1.4268.0684-2.8906.9941-4.0156l.2896.2383-.2896-.2383,104.2544-126.7358c1.5938-1.9385,4.25-2.6626,6.6079-1.8037l170.8525,62.2637c1.2476.4551,2.2109,1.4355,2.6431,2.6909.4321,1.2559.2769,2.6216-.4268,3.7485l-97.3325,155.8799c-1.21,1.9395-3.333,3.0283-5.5029,3.0283ZM178.0686,43.2653c-1.52,0-3.002.6694-4.0039,1.8877l-104.2544,126.7358h0c-.7808.9492-1.0864,2.1841-.8384,3.3877.248,1.2041,1.0171,2.2178,2.1099,2.7808l176.6587,91.0518c2.6191,1.3496,5.8936.4492,7.4531-2.0498l97.333-155.8809c.5825-.9336.7114-2.0659.353-3.1069-.3579-1.0405-1.1562-1.853-2.1904-2.23l-170.8525-62.2637c-.5776-.2109-1.1758-.3125-1.7681-.3125Z"/>
      </g>
      <path class="cls-6" d="M94.6172,127.4844c.3936,3.4564,1.1825,7.0211,2.5035,10.6146l17.1371-20.8326c.3603-2.5455.7076-5.0132,1.0263-7.2849-4.7585-1.6193-8.6251-5.1624-10.6635-9.7131,0,0,0,.0001,0,.0002-1.1334-.4362-2.9679-1.181-5.0971-2.1835-1.7768,4.034-4.0901,10.5016-4.9119,18.1868l3.0025-.9309s.4025,6.0224,1.2076,9.6296l1.0945-4.7265,1.6426,5.7731,1.3346-9.5117s-.5252,3.4525.517,10.999c0,0-4.1826,5.4362-5.3115,6.6437-.8989.9615-2.1542-3.2886-3.4819-6.6637Z"/>
      <g>
        <path class="cls-4" d="M252.8544,264.3835l85.8918-137.0878L166.0848,59.3805l-92.7253,113.8461c-.6748.8285-.4138,2.0683.5377,2.5544l175.3505,89.5896c1.2767.6523,2.8401.2244,3.6066-.9871Z"/>
        <path class="cls-6" d="M250.5174,266.0544c-.4854,0-.978-.1133-1.4404-.3496l-175.3501-89.5898c-.5552-.2837-.9473-.7959-1.0752-1.4058-.1284-.6099.0239-1.2363.4175-1.7192l92.8979-114.0586.2549.1001,173.082,68.0806-86.1328,137.4717c-.5981.9453-1.6089,1.4707-2.6538,1.4707ZM166.2024,59.8298l-92.5522,113.6338c-.2495.3066-.3462.7041-.2646,1.0913.0815.3867.3301.7119.6826.8921l175.3501,89.5898c1.1123.5684,2.4512.2012,3.1182-.8525l85.6523-136.7051L166.2024,59.8298Z"/>
      </g>
      <g>
        <path class="cls-2" d="M139.139,92.9025c0,9.97-8.08,18.05-18.05,18.05-4.47,0-8.57-1.63-11.71-4.32-.63-.53-1.21-1.1-1.74-1.71-2.87-3.19-4.6-7.41-4.6-12.02,0-9.97,8.08-18.05,18.05-18.05s18.05,8.08,18.05,18.05Z"/>
        <path class="cls-6" d="M121.0891,111.3274c-4.3892,0-8.6348-1.5664-11.9541-4.4102-.6367-.5352-1.2363-1.124-1.7793-1.7485-3.0239-3.3613-4.6919-7.7192-4.6919-12.2661,0-10.1597,8.2656-18.4248,18.4253-18.4248s18.4248,8.2651,18.4248,18.4248-8.2651,18.4248-18.4248,18.4248ZM121.0891,75.2277c-9.7461,0-17.6753,7.9287-17.6753,17.6748,0,4.3613,1.5996,8.541,4.5039,11.769.5215.6001,1.0933,1.1616,1.7026,1.6738,3.186,2.73,7.2583,4.2319,11.4688,4.2319,9.7461,0,17.6748-7.9287,17.6748-17.6748s-7.9287-17.6748-17.6748-17.6748Z"/>
      </g>
      <polygon class="cls-6" points="82.8323 107.9624 77.3184 115.2246 58.3558 102.5829 43.3073 121.2881 36.3 116.3005 56.8764 92.9043 82.8323 107.9624"/>
      <path class="cls-5" d="M124.7906,81.9251s.1505,10.3867-8.7815,18.0114c0,0,3.2534,2.9359,7.4752,3.2096,0,0,8.9339-6.2816,8.9339-18.2611,0,0-.9416-.9452-3.2116-1.9069-2.1281-.9016-4.416-1.053-4.416-1.053Z"/>
      <path class="cls-4" d="M129.8181,81.5944s-.2144,6.8604-2.8942,12.2201l4.1806,1.9295s3.1086-5.7885,3.0014-11.6841l-4.2878-2.4655Z"/>
      <g>
        <ellipse class="cls-3" cx="214.7936" cy="67.4278" rx="5.9102" ry="4.8909"/>
        <path class="cls-6" d="M214.7937,72.6936c-3.4658,0-6.2852-2.3623-6.2852-5.2656s2.8193-5.2661,6.2852-5.2661,6.2852,2.3623,6.2852,5.2661-2.8193,5.2656-6.2852,5.2656ZM214.7937,62.9118c-3.0522,0-5.5352,2.0259-5.5352,4.5161s2.4829,4.5156,5.5352,4.5156,5.5352-2.0259,5.5352-4.5156-2.4829-4.5161-5.5352-4.5161Z"/>
      </g>
      <g>
        <ellipse class="cls-1" cx="198.5178" cy="60.9175" rx="5.9102" ry="4.8909"/>
        <path class="cls-6" d="M198.5178,66.1833c-3.4658,0-6.2852-2.3623-6.2852-5.2656s2.8193-5.2661,6.2852-5.2661,6.2852,2.3623,6.2852,5.2661-2.8193,5.2656-6.2852,5.2656ZM198.5178,56.4016c-3.0522,0-5.5352,2.0259-5.5352,4.5161s2.4829,4.5156,5.5352,4.5156,5.5352-2.0259,5.5352-4.5156-2.4829-4.5161-5.5352-4.5161Z"/>
      </g>
      <g>
        <ellipse class="cls-7" cx="182.242" cy="54.4072" rx="5.9102" ry="4.8909"/>
        <path class="cls-6" d="M182.242,59.6731c-3.4658,0-6.2852-2.3623-6.2852-5.2656s2.8193-5.2661,6.2852-5.2661,6.2852,2.3623,6.2852,5.2661-2.8193,5.2656-6.2852,5.2656ZM182.242,49.8913c-3.0522,0-5.5352,2.0259-5.5352,4.5161s2.4829,4.5156,5.5352,4.5156,5.5352-2.0259,5.5352-4.5156-2.4829-4.5161-5.5352-4.5161Z"/>
      </g>
      <g>
        <path class="cls-7" d="M106.5177,126.675c.3984-7.0218,1.3983-16.4155,3.8776-23.3531.2907-.8135,1.2191-1.1979,1.9931-.8145,6.1775,3.0601,30.7078,16.2854,37.3782,36.3489.2587.778-.696,1.3952-1.3101.852l-13.7972-12.2041,1.0372,7.2604s-8.4862-9.9005-13.3893-14.5208c0,0,1.5086,4.7145,2.0744,7.9204,0,0-7.0324-5.7802-11.4641-9.2689l-6.4,7.7795Z"/>
        <path class="cls-6" d="M148.9895,140.2888c-.2798,0-.5571-.1011-.7817-.2998l-13.0327-11.5283.8926,6.251c.0239.165-.0645.3262-.2163.395-.1528.0669-.3311.0288-.4395-.0977-.0791-.0923-7.4102-8.6343-12.3198-13.4854.4932,1.6538,1.2842,4.4536,1.6587,6.5752.0273.1548-.0444.3101-.1802.3892-.1357.0781-.3062.0654-.4272-.0342-.0688-.0562-6.7793-5.5708-11.1694-9.0361l-6.1665,7.4956c-.104.1255-.2759.1694-.4263.1108-.1509-.0591-.2471-.2085-.2378-.3706.3862-6.8052,1.376-16.3994,3.8989-23.4575.1758-.4922.5527-.8857,1.0352-1.0806.4771-.1948,1.0161-.1729,1.4775.0562,28.2271,13.9829,35.8911,31.5234,37.5679,36.5664.1689.5093-.0205,1.0513-.4717,1.3491-.2046.1348-.4341.2017-.6616.2017ZM134.6594,127.1291c.0894,0,.1782.0322.2485.0942l13.7969,12.2041c.1846.1631.396.1235.5332.0337.0645-.0425.2671-.2031.1729-.4868-2.814-8.4639-9.123-16.6655-18.7524-24.376-7.749-6.2051-15.4746-10.2876-18.4365-11.7549-.2739-.1353-.5811-.1484-.8638-.0327-.2837.1147-.5059.3472-.6099.6372-2.354,6.5864-3.3589,15.4419-3.7866,22.0972l5.6665-6.8877c.1304-.1572.3613-.1821.5215-.0562,3.5024,2.7568,8.6851,6.9912,10.6631,8.6118-.6479-3.0449-1.8491-6.813-1.8623-6.855-.0522-.1631.0122-.3403.1572-.4316.1436-.0918.332-.0728.457.0444,3.959,3.731,10.3125,10.9702,12.5801,13.582l-.8564-5.9956c-.0225-.1558.0547-.3086.1934-.3833.0557-.0303.1167-.0449.1777-.0449Z"/>
      </g>
      <path class="cls-6" d="M110.8627,114.1185c-.1531.1883-.2301.4944-.3003.7064-.1586.6739-.1879,1.657.1613,2.6205.1621.4796.4744.9453.8741,1.2658.3936.3463.8723.4674,1.2577.5594,0,0,.0089-.0092.0109-.0228l.1046-.7192c.002-.0136-.0016-.026-.0016-.026-.1758-.0373-.7808-.1685-1.114-.6262-.3535-.4283-.4795-.9916-.4795-.9916-.2076-.7426-.1772-1.5508-.3436-2.3834-.0184-.1203-.0431-.2421-.0892-.3691-.0017-.0049-.0148-.0111-.0328-.015-.022-.0048-.0433-.0043-.0475.0012Z"/>
      <path class="cls-6" d="M118.9719,115.3477c-.1412.2266-.191.5837-.2266.833-.0807.7815.1343,1.9275.8326,2.8565.3502.4595.8137.8223,1.2827,1.086.24.1171.48.2179.7068.3058.229.0649.4437.1258.6573.1863,0,0,.0099-.0088.0126-.0223l.1426-.7126c.0027-.0135-.0016-.0262-.0016-.0262-.2122-.0598-.965-.2125-1.4969-.6333-.5544-.3867-.859-.9435-.859-.9435-.4535-.7352-.5994-1.6142-.8502-2.519-.0303-.1314-.0654-.2645-.1193-.4022-.0021-.0053-.0154-.0111-.0337-.014-.0223-.0035-.0435-.0012-.0474.0053Z"/>
      <path class="cls-6" d="M131.8895,122.8291c-.155.1914-.2085.514-.2505.7392-.0901.7135.1902,1.7284.7949,2.5192.5831.815,1.421,1.3594,2.0306,1.7438,0,0,.0112-.0059.0182-.0179l.3605-.631c.0068-.0119.0072-.0248.0072-.0248-.1722-.1077-.765-.4535-1.2034-.89-.4565-.4195-.7511-.8978-.7511-.8978-.4034-.6614-.6045-1.3818-.8215-2.1705-.0295-.1149-.0574-.2309-.1049-.3549-.0018-.0047-.0148-.011-.0327-.0154-.0219-.0054-.0431-.0054-.0474.0002Z"/>
      <path class="cls-6" d="M288.5984,143.8367l8.6973-10.2159s4.0035,2.623,5.7982,6.7646l-14.4956,3.4513Z"/>
      <polygon class="cls-6" points="184.9205 94.6898 210.9836 106.1482 214.3258 101.3164 188.2338 89.8579 184.9205 94.6898"/>
      <polygon class="cls-6" points="173.8523 95.4339 179.4513 94.5941 177.585 82.7427 191.7693 79.9432 190.7428 74.7174 171.0527 78.3568 173.8523 95.4339"/>
      <polygon class="cls-3" points="165.6403 69.2116 166.2935 76.6771 158.4549 77.7969 165.6403 69.2116"/>
      <polygon class="cls-3" points="144.8189 96.1489 145.4721 103.6143 137.6334 104.7341 144.8189 96.1489"/>
      <polygon class="cls-3" points="120.3377 126.6766 121.0168 134.3799 112.8685 135.5354 120.3377 126.6766"/>
      <polygon class="cls-3" points="96.6434 155.0014 97.3354 163.1085 89.0323 164.3246 96.6434 155.0014"/>
      <path class="cls-6" d="M269.9932,118.2492l-30.4836-12.9263,9.0901-3.9167-2.7995-4.8525-28.7419,12.5046,2.5196,4.8525,13.3583-5.7557,32.1624,13.7304c1.4212-1.0546,3.2249-2.395,4.8945-3.6364Z"/>
      <path class="cls-6" d="M276.7611,121.119c-1.5094,1.1861-3.236,2.5463-4.7314,3.7255l15.4836,6.6101,5.0391-3.6394-15.7913-6.6962Z"/>
      <ellipse class="cls-6" cx="308.0643" cy="128.2811" rx="3.2423" ry="4.0652" transform="translate(134.6287 413.3772) rotate(-81.2935)"/>
      <path class="cls-6" d="M185.9814,142.0154l6.3892-1.8729s-3.852-16.5446,13.1563-20.431l-1.7026-5.8817s-9.7307,1.3582-15.3058,9.768c-5.544,8.363-2.5371,18.4175-2.5371,18.4175Z"/>
      <polygon class="cls-6" points="203.4592 136.5653 207.4998 130.8333 217.6482 142.7671 236.6295 134.8739 242.0796 154.2311 258.6177 149.7206 260.0273 156.3923 236.7235 162.876 231.6493 144.5525 215.9568 150.9422 203.4592 136.5653"/>
      <polygon class="cls-6" points="296.9522 166.7388 296.9522 160.7309 291.6481 160.3204 294.2095 156.5515 288.5934 153.8088 284.3899 159.7588 275.0104 159.033 279.7459 166.3324 278.1209 168.6326 269.2637 168.6326 268.3494 174.8364 273.6141 175.0118 270.0473 180.0606 275.9246 183.4564 281.4854 175.2742 291.8586 175.62 287.7769 166.0165 287.7769 166.0165 296.9522 166.7388"/>
      <ellipse class="cls-6" cx="261.8844" cy="167.3918" rx="3.4611" ry="3.0039"/>
      <path class="cls-6" d="M261.0355,214.4101l2.7427,6.2691s10.7097-3.0039,15.5421-11.4933,1.4367-16.4564,1.4367-16.4564l-6.1385.7836s5.2242,14.6279-13.583,20.897Z"/>
      <polygon class="cls-6" points="265.3455 198.8679 262.4722 203.9616 254.3093 200.174 247.6484 209.5123 228.0574 200.174 225.0535 187.1134 213.5601 181.6279 217.2824 176.3384 230.8002 182.5421 234.7837 195.864 245.1015 200.5005 251.24 192.1417 265.3455 198.8679"/>
      <polygon class="cls-6" points="187.0677 184.8821 183.7706 177.9408 217.0584 164.3879 220.3854 171.3467 187.0677 184.8821"/>
      <polygon class="cls-6" points="92.2616 178.1036 110.3674 154.6878 121.8203 160.5878 117.8292 165.6202 112.2762 162.8437 101.8644 175.5114 108.1115 178.8085 103.7732 184.0144 92.2616 178.1036"/>
      <polygon class="cls-6" points="160.591 149.3242 164.8993 144.4128 190.6629 156.2175 186.7854 161.7321 160.591 149.3242"/>
      <polygon class="cls-6" points="155.5934 155.7005 181.7878 168.0222 176.9625 173.9676 150.8543 161.0428 155.5934 155.7005"/>
      <polygon class="cls-6" points="114.4062 182.7565 143.0132 197.3185 147.8385 191.5454 119.1453 176.9834 114.4062 182.7565"/>
      <polygon class="cls-6" points="160.591 186.0308 167.3981 186.2032 167.2258 213.5177 160.8495 213.5177 160.591 186.0308"/>
      <ellipse class="cls-6" cx="173.7607" cy="197.0134" rx="3.4466" ry="3.1181" transform="translate(-7.4452 6.8254) rotate(-2.2031)"/>
      <ellipse class="cls-6" cx="154.5248" cy="204.4302" rx="3.4466" ry="3.1181" transform="translate(-7.7445 6.0914) rotate(-2.2031)"/>
      <polygon class="cls-6" points="175.67 216.9643 189.2842 196.7154 198.3316 219.2046 207.2067 205.332 220.5624 233.5081 214.5308 237.1271 206.2589 219.6355 196.6945 234.5421 187.8194 210.7604 181.4431 220.0663 175.67 216.9643"/>
      <polygon class="cls-6" points="233.3149 240.3152 237.02 234.3698 254.5978 243.2449 250.8065 249.535 233.3149 240.3152"/>
      <ellipse class="cls-6" cx="231.544" cy="227.0457" rx="3.4081" ry="3.0158"/>
      <ellipse class="cls-6" cx="224.5735" cy="239.3267" rx="3.4941" ry="3.0612"/>
      <ellipse class="cls-5" cx="103.6913" cy="70.2708" rx="1.9209" ry="1.3781" transform="translate(-14.773 29.5758) rotate(-15.1665)"/>
      <ellipse class="cls-5" cx="108.5354" cy="71.1896" rx="1.414" ry="1.0317" transform="translate(-14.8446 30.8751) rotate(-15.1665)"/>
      <ellipse class="cls-5" cx="132.6726" cy="74.5303" rx="1.0317" ry="1.414" transform="translate(-15.217 110.3837) rotate(-42.9531)"/>
      <g>
        <path class="cls-5" d="M92.1691,94.0325c-1.54-1-3.02-2.1-4.33-3.28l3.47-1.47.27,1.47.59,3.28Z"/>
        <path class="cls-6" d="M92.1692,94.4074c-.0713,0-.1421-.02-.2041-.0605-1.6528-1.0732-3.1255-2.189-4.377-3.3154-.0952-.0859-.1401-.2144-.1187-.3408.021-.1265.1055-.2334.2231-.2832l3.4697-1.4702c.1055-.0439.2246-.0386.3242.0151.1001.0537.1704.1504.1909.2622l.8608,4.7515c.0264.147-.0371.2959-.1616.3789-.063.0415-.1353.0625-.2075.0625ZM88.5344,90.8654c.9282.8003,1.9697,1.5933,3.1099,2.3682l-.6196-3.4233-2.4902,1.0552Z"/>
      </g>
      <g>
        <path class="cls-5" d="M98.0991,97.3926h-.03c-1.4-.71-2.89-1.5-4.35-2.39-.52-.31-1.04-.63-1.55-.97l4.71-2.0099.3,1.3199.92,4.05Z"/>
        <path class="cls-6" d="M98.0989,97.7678h-.0298c-.0591,0-.1172-.0137-.1699-.0405-1.1997-.6094-2.7817-1.4326-4.3755-2.4043-.522-.3115-1.0479-.6348-1.5625-.9785-.1147-.0767-.1782-.2095-.1655-.3467s.0996-.2563.2266-.3101l4.71-2.0098c.1025-.0439.2192-.04.3174.0107.0991.0508.1704.1426.1953.251l1.2197,5.3701c.0254.1113-.0015.228-.0728.3169-.0713.0894-.1787.1411-.293.1411ZM92.9641,94.1013c.314.1982.6304.3906.9468.5791,1.29.7866,2.5737,1.4756,3.6484,2.0303l-.9463-4.1665-3.6489,1.5571Z"/>
      </g>
      <g>
        <path class="cls-7" d="M175.7191,104.6625c-3.14-2.45-8.64-6.75-14.47-11.33,0,0,.09,1.74.09,5.6,0,0-8.95-8.01-13.67-11.22,0,0-.09,2.2599-.47,4.24,0,0-3.85-3.45-7.25-5.91l-1.53,1.85c-.44-1.52-1.08-2.95-1.8701-4.28.04-.84.07-1.77.05-2.75.39-.65.84-1.34,1.36-2.09,1.79-2.63,4.3-5.85,7.77-9.41,1.0699-1.11,2.84-1.16,3.98-.12,5.47,5.01,20.54,19.6,27.37,34.36.39.84-.63,1.63-1.36,1.06Z"/>
        <path class="cls-6" d="M176.2674,105.2312c-.2729,0-.5459-.0913-.7793-.2734-3.0254-2.3604-8.2422-6.439-13.8345-10.8301.0264.8691.0605,2.4478.0605,4.8047,0,.1479-.0869.2822-.2222.3423-.1348.0591-.2935.0356-.4028-.063-.0859-.0767-8.3218-7.4365-13.083-10.8086-.0557.8257-.1812,2.2764-.439,3.6201-.0254.1328-.1201.2412-.2485.2847-.1284.043-.269.0137-.3696-.0762-.0376-.0332-3.6621-3.2744-6.936-5.6782l-1.3047,1.5781c-.0894.1074-.2285.1558-.3652.1284-.1362-.0283-.2456-.1294-.2842-.2627-.415-1.4346-1.0312-2.8452-1.832-4.1934-.0376-.063-.0557-.1357-.0522-.2095.0342-.7183.0708-1.6777.0493-2.7241-.0015-.0708.0171-.1401.0537-.2007.3887-.6484.8384-1.3389,1.3735-2.1108,2.1626-3.1777,4.7905-6.3608,7.8096-9.458,1.1997-1.2451,3.2192-1.3052,4.5015-.1353,6.0029,5.4985,20.6943,19.8647,27.457,34.4795.2471.5322.103,1.1367-.3594,1.5039-.2363.188-.5146.2822-.7925.2822ZM161.2488,92.9577c.0825,0,.1641.0273.2314.0801,5.8301,4.5791,11.3296,8.8794,14.4692,11.3286l.0005.0005c.2368.1851.4883.1182.6436-.0054.1499-.1191.2666-.3394.145-.6006-6.7056-14.4922-21.3135-28.7744-27.2827-34.2422-.9844-.8979-2.5356-.8506-3.4565.104-2.9902,3.0674-5.5903,6.2163-7.73,9.3608-.5024.7246-.9258,1.3726-1.2935,1.98.0166.9731-.0151,1.8638-.0469,2.5547.6821,1.1636,1.2329,2.3716,1.6426,3.6021l1.0884-1.3164c.126-.1533.3481-.1807.5088-.0649,2.6567,1.9224,5.6162,4.4717,6.7759,5.4883.2759-1.7456.3491-3.5098.3501-3.5298.0054-.1357.084-.2583.2056-.3198.1226-.0605.2666-.0518.3799.0249,3.9624,2.6948,10.9604,8.8179,13.0825,10.6938-.0117-3.2246-.0874-4.728-.0884-4.7441-.0078-.147.0713-.2847.2017-.3525.0547-.0283.1138-.042.1729-.042Z"/>
      </g>
      <path class="cls-6" d="M158.6685,89.2791c-.1509.1618-.2771.4432-.3529.6471-.2274.6305-.1053,1.742.5825,2.4868.6665.7582,1.5624,1.1041,2.2684,1.2957,0,0,.0101-.0091.0128-.0226l.1429-.7125c.0027-.0135.0009-.0253.0009-.0253-.153-.0282-.7778-.2207-1.241-.5394-.4739-.312-.7496-.7275-.7496-.7275-.4014-.5643-.4309-1.2449-.5216-2.0242-.0082-.1127-.0236-.2286-.064-.3561-.0016-.0049-.014-.0122-.0317-.0179-.0215-.0069-.0425-.0087-.0468-.004Z"/>
      <path class="cls-6" d="M145.8987,84.1242c-.1348.1446-.2081.3825-.2809.5473-.1451.5253-.1868,1.3265.165,2.0952.1681.3817.4636.7292.8062.955.3546.2237.6949.3393,1.0702.3725.0051.0003.0094-.0108.0094-.0246l.0057-.7267c-.0002-.0138-.0006-.025-.0006-.025-.0795.0102-.5652-.097-.84-.3986-.2944-.2867-.4132-.692-.4132-.692-.1881-.538-.1594-1.1465-.3344-1.7992-.0219-.0944-.051-.1904-.1068-.2924,0,0-.0155-.0089-.0338-.0121-.0222-.0039-.0432-.0036-.0469.0006Z"/>
      <path class="cls-6" d="M140.7529,79.5982c-.2179.1635-.4288.4684-.5951.6703-.457.675-.9425,1.6998-1.1632,2.8431-.2146,1.1187-.1804,2.459.7346,3.2397.0079.0055.0203.0003.0276-.0114l.3865-.6154c.0073-.0117.015-.0203.015-.0203-.0204-.0128-.1946-.1782-.3008-.4331-.1172-.2567-.1803-.6178-.1897-.9756-.0083-.7242.1808-1.4062.1808-1.4062.2341-.9328.658-1.8183.9005-2.8069.0371-.1412.0679-.2862.0753-.4453.0004-.0061-.0098-.0169-.0255-.0265-.0193-.0117-.0399-.0173-.046-.0125Z"/>
      <path class="cls-6" d="M95.889,71.3726c-1.25,1.42-2.31,3.01-3.22,4.66-.8-1.05-1.48-2.19-2.03-3.41,0,0,1.37.2,5.25-1.25Z"/>
      <path class="cls-6" d="M98.069,97.3926l3.09-1.2401s-.13-4.23,2.87-9.16c-.64,1.85-.99,3.84-.99,5.91,0,2.63.5699,5.1201,1.58,7.3701-1.38-.54-3.81-1.53-6.55-2.88Z"/>
      <path d="M89.5791,83.3525c-.85,2.68-1.33,4.98-1.56,6.28l-2.44-.21c.18-1.09.44-2.47.82-3.97.23-.9.49-1.81.75-2.67l2.43.57Z"/>
      <polygon points="80.0222 111.6636 74.499 108.6326 74.9439 113.6417 77.3184 115.2247 80.0222 111.6636"/>
      <g>
        <path class="cls-7" d="M98.09,97.4027l-1.1509,2.1998-3.89,7.42s-8.33-7.4-9.14-7.13c-.81.27,5.3,12.24,5.3,12.24,0,0-14.18-3.36-14.71-3.5-.52-.13,7.1,7.03,21.23,13.97,1.23.6,2.7-.04,3.09-1.35,1-3.34,2.71-9.93,3.76-18.71.1125-.9595.2166-1.955.3145-2.967-1.3244-.5505-2.9918-1.2809-4.8036-2.1729Z"/>
        <path class="cls-6" d="M96.7049,123.2038c-.3901,0-.7798-.0884-1.1401-.2642-12.998-6.3843-21.7256-13.6567-21.4424-14.4312.0664-.1802.2822-.2856.4673-.2397.4517.1191,10.9302,2.604,13.9185,3.312-2.1851-4.3105-5.3711-10.8701-5.0015-11.7725.041-.1016.1802-.2368.2842-.2715.6538-.2148,3.7363,2.0972,9.1484,6.8872l4.8184-9.1953c.0947-.1802.3145-.2539.498-.1626,1.519.748,3.1274,1.4756,4.7817,2.1631.1519.063.2451.2183.229.3823-.0977,1.0146-.2021,2.0132-.3149,2.9751-1.0688,8.9395-2.8228,15.5996-3.7729,18.7734-.2168.7275-.7393,1.3198-1.4336,1.625-.332.146-.686.2188-1.04.2188ZM75.5945,109.2834c2.3042,2.0933,9.4468,7.6519,20.3003,12.9829.4883.2383,1.0532.25,1.5483.0322.4922-.2163.8628-.6367,1.0166-1.1528.9434-3.1519,2.6846-9.7642,3.7466-18.6475.1025-.8691.1973-1.7686.2871-2.6836-1.4604-.6118-2.8838-1.2549-4.2402-1.9146l-4.8721,9.2969c-.0537.1021-.1509.1738-.2646.1943-.1123.0234-.23-.0117-.3164-.0884-3.439-3.0552-7.3149-6.249-8.5454-6.9175.3657,1.4824,2.8433,6.7861,5.2886,11.5767.0664.1299.0513.2871-.0391.4019-.0908.1147-.2388.1675-.3813.1333-.4849-.1147-10.0938-2.3916-13.5283-3.2139Z"/>
      </g>
      <path class="cls-6" d="M98.09,97.4027l-1.1509,2.1998,5.64,2.94c.1125-.9595.2166-1.955.3145-2.967-1.3244-.5505-2.9918-1.2809-4.8036-2.1729Z"/>
      <path class="cls-6" d="M92.4799,113.1065c-.0223-.1695-.1412-.3308-.2159-.4566-.2704-.3532-.7994-.6929-1.4062-.8554-.6154-.1682-1.2345-.1607-1.7688-.0232,0,0-.0035.0128.0011.0258l.2432.6849c.0048.0129.0085.0234.0085.0234.0533-.0269.4521-.0937.8022-.0491.3561.0386.674.1528.674.1528.4418.1531.8167.4144,1.3529.5287.0753.02.1559.0348.2559.0305,0,0,.0146-.0092.0271-.0229.0151-.0167.0261-.0389.0261-.0389Z"/>
      <path d="M110.3991,103.3226c-.38,1.05-.72,2.16-1.02,3.31-.63-.53-1.21-1.1-1.74-1.71l2.76-1.6Z"/>
      <g>
        <path class="cls-7" d="M124.0296,71.6575c2.3705-1.5195,4.5358-3.131,6.5118-4.7924"/>
        <path class="cls-6" d="M124.0592,71.6794c.3082-.0563.6925-.2491.9695-.3661,1.7134-.8191,4.2407-2.9072,5.7506-4.1508.004-.0032,0-.0144-.0089-.0249l-.4677-.5562c-.0088-.0105-.0189-.0166-.0228-.0133-.2301.1939-.9999.8342-1.7311,1.4022-.7378.5595-1.4155,1.0735-1.4155,1.0735-.9387.6972-1.9248,1.3335-2.769,2.179-.1237.1175-.2435.2412-.3491.3881-.004.0057-.0012.0203.0079.0363.0111.0196.0273.0341.0361.0323Z"/>
      </g>
      <g>
        <path class="cls-7" d="M126.6417,72.1799s2.3551-1.087,5.8336-3.6921"/>
        <path class="cls-6" d="M126.6664,72.2064c.277.0009.626-.1266.8752-.1989,1.5524-.5389,3.8038-2.228,5.1555-3.2101,0,0-.0002-.0135-.0085-.0246l-.4355-.5817c-.0083-.011-.0211-.0154-.0211-.0154-.2063.1528-.8916.6632-1.5432,1.1091-.6486.4504-1.2595.8404-1.2595.8404-.8373.5415-1.7097,1.0195-2.4755,1.6948-.1122.0927-.2216.1924-.3218.3126-.0039.0047-.0022.0191.0048.0363.0084.0209.0217.0378.0297.0376Z"/>
      </g>
      <g>
        <path class="cls-7" d="M121.8788,63.6778c-.3377,2.0342-.6362,3.2311-.6362,3.2311"/>
        <path class="cls-6" d="M121.8438,63.6773c-.1404.0961-.2213.257-.2993.3641-.3854.6966-.4788,2.0076-.6707,2.7717,0,0,.01.0063.0234.0097l.7051.1759c.0133.0033.0249.0024.0249.0024.0481-.2442.3204-1.6247.3204-1.6247.0887-.474.2203-.9476.071-1.4607-.0177-.0728-.0427-.1467-.0945-.2248,0,0-.0153-.0074-.0333-.0109-.0221-.0042-.0471-.0025-.0471-.0025Z"/>
      </g>
      <g>
        <path class="cls-7" d="M123.1721,67.1232c.2868-1.0105.5472-2.0045.7831-2.9817"/>
        <path class="cls-6" d="M123.2064,67.1278c.1427-.0743.2306-.2185.313-.3123.4163-.6266.576-1.8707.8051-2.5811,0,0-.0099-.006-.0233-.0092l-.7064-.1705c-.0133-.0032-.025-.0025-.025-.0025-.0583.2221-.3883,1.4775-.3883,1.4775-.1089.4326-.2589.8556-.1357,1.3532.014.0704.0352.1428.0823.2228,0,0,.0146.0089.0323.0143.0215.0066.0461.008.0461.008Z"/>
      </g>
    </g>
    <path d="M139.949,86.0425l-1.53,1.85c-.44-1.52-1.08-2.95-1.8701-4.28.04-.84.07-1.77.05-2.75.39-.65.84-1.34,1.36-2.09.21,2.25.24,4.05.24,4.05l1.74-1.45c-1.51,3.71.01,4.67.01,4.67Z"/>
    <path d="M97.179,93.3425s-4.5,1.03-5.0099.69l4.71-2.0099.3,1.3199Z"/>
    <polygon points="91.5791 90.7526 87.8391 90.7526 91.309 89.2825 91.5791 90.7526"/>
  </g>
  <g>
    <line class="cls-7" x1="133.9465" y1="41.3335" x2="134.4781" y2="37.9611"/>
    <path class="cls-6" d="M133.9844,41.3303c.1107-.1261.1664-.2609.2115-.3974.2686-.9239.4434-1.9692.6263-2.9088-.0106-.0051-.0165-.0079-.0271-.013l-.6312-.0995c-.0128.0017-.02.0027-.0328.0044l-.0544.4136c-.0891.8046-.2267,1.7331-.2443,2.546.001.1437.0125.2891.079.4432.0021.0048.0129.0102.0283.0135.02.0043.04.0034.0447-.002Z"/>
  </g>
  <g>
    <line class="cls-7" x1="104.603" y1="36.4807" x2="103.8771" y2="34.1075"/>
    <path class="cls-6" d="M104.6365,36.4636c.0555-.1248.058-.2334.0502-.3388-.0869-.699-.3027-1.4386-.4733-2.1136-.0115.001-.0178.0015-.0293.0025l-.6111.1869c-.0111.0062-.0172.0097-.0283.0159l.0989.2868c.2075.5512.4154,1.2012.691,1.7293.0525.0918.1152.1804.2311.2528.0037.0022.0155.0014.0306-.0026.0198-.0052.0377-.0137.0402-.019Z"/>
  </g>
  <g>
    <line class="cls-7" x1="121.7121" y1="33.126" x2="119.6347" y2="34.0003"/>
    <path class="cls-6" d="M121.6922,33.0942c-.1211-.0463-.2206-.0414-.3159-.0266-.6279.1326-1.2766.3948-1.8721.6081.0023.0113.0037.0175.006.0288l.2479.5889c.007.0105.011.0163.0181.0268l.2496-.1166c.4775-.2415,1.0453-.4898,1.4932-.7968.0773-.0578.1504-.1255.2019-.2445.0016-.0037-.0006-.0153-.0062-.03-.0072-.0191-.0173-.0362-.0225-.0382Z"/>
  </g>
  <g>
    <line class="cls-7" x1="152.5139" y1="37.6971" x2="149.6284" y2="38.7447"/>
    <path class="cls-6" d="M152.4935,37.6651c-.1504-.0407-.2819-.0292-.4098-.0077-.848.1788-1.7472.4946-2.5674.7559.001.0117.0015.0181.0026.0297l.218.6006c.0073.0105.0115.0164.0188.0269l.3489-.138c.6708-.2832,1.4611-.5794,2.1047-.9292.1119-.0654.2202-.141.3094-.2688.0028-.004.002-.016-.0027-.031-.006-.0195-.0161-.0368-.0226-.0385Z"/>
  </g>
</svg>