<svg xmlns="http://www.w3.org/2000/svg" fill="none" viewBox="0 0 1465 1465"><defs/><path fill="#FF9866" d="M911 1027l-141 65-605-294 139-60 607 289z"/><path fill="#D39BCB" d="M778 1090l-36 225-437-260-140-258 613 293z"/><path fill="#DFABD9" d="M635 854l141 237-610-292 469 55z"/><path fill="#F37533" d="M301 739l608 288 115-190-631-241-92 143z"/><path fill="#FF9866" d="M391 597l631 240 272-150-495-217-408 127z"/><path fill="#D5682B" d="M1158 1028l-418 287 36-215-2-11 134-61 119-198 142-71-230-501-18-3 12-11 19 4 354 383 11 3-159 394z"/><path fill="#D5682B" d="M580 126l193 489 165-88-341-409-19-3-10 8 12 3z"/><path fill="#D39BCB" d="M992 1036l-41 133 49-34-4-99-2-3-2 3zM1094 1071l-40 27 50-195-10 168zM1189 839l-52 202 20-13 36-87-4-102z"/><path fill="#F37533" d="M904 717l191 79 75-36-232-505h-16l-5 12-13 450z"/><path fill="#DFABD9" d="M923 697l195 73-174-444-2-4c-3-4-8-1-10 2l-9 373z"/><path fill="#D39BCB" d="M1087 691L948 335l59 327 80 29z"/><path fill="#F37533" d="M580 126l193 489-210-73V132l5-9 12 3z"/><path fill="#DFABD9" d="M586 519l134 46-124-355-3-3c-3-4-7-1-9 1l2 311z"/><path fill="#D39BCB" d="M702 514L596 210l51 290 55 14z"/><ellipse cx="458.8" cy="720.5" fill="#CABEED" rx="35.4" ry="67.8" transform="rotate(28 459 720)"/><path fill="#503886" d="M492 661s-19 19-39 56c-20 36-28 62-28 62-15-11-15-43 2-75 18-33 46-53 64-44l1 1z"/><mask id="a" width="127" height="153" x="395" y="644" mask-type="alpha" maskUnits="userSpaceOnUse"><ellipse cx="458.8" cy="720.5" fill="#CABEED" rx="35.4" ry="67.8" transform="rotate(28 459 720)"/></mask><g mask="url(#a)"><ellipse cx="469.5" cy="674.9" fill="#FEFEFF" rx="13" ry="22.5" transform="rotate(36 470 675)"/></g><ellipse fill="#CABEED" rx="37.8" ry="74.2" transform="matrix(.87615 .48203 -.44993 .89306 798 874)"/><path fill="#503886" d="M834 808s-21 21-42 61-29 69-29 69c-17-12-16-48 2-83 19-37 49-58 67-48l2 1z"/><mask id="b" width="95" height="139" x="751" y="804" mask-type="alpha" maskUnits="userSpaceOnUse"><ellipse fill="#CABEED" rx="37.8" ry="74.2" transform="matrix(.87615 .48203 -.44993 .89306 798 874)"/></mask><g mask="url(#b)"><ellipse fill="#FEFEFF" rx="14" ry="24.5" transform="matrix(.79924 .60101 -.56714 .82362 810 823)"/></g><path fill="#653A5F" d="M106 675l272 198-4 5-272-198 4-5zM205 663l148 162-4 5-148-162 4-5zM192 502l190 318-4 5-198-318 12-5zM644 992l297 116-4 7-298-116 5-7z"/><path fill="#653A5F" d="M205 663l148 162-4 5-148-162 4-5zM658 970l174-3v6l-174 6v-9zM647 942l293-92 7 5-300 94v-7z"/><ellipse cx="394.8" cy="851.5" fill="#653A5F" rx="7" ry="5.5"/><ellipse cx="636.8" cy="996.5" fill="#653A5F" rx="7" ry="7.5"/><ellipse cx="654.3" cy="975" fill="#653A5F" rx="8.5" ry="8"/><ellipse cx="636.8" cy="947.5" fill="#653A5F" rx="7" ry="5.5"/><ellipse fill="#653A5F" rx="3" ry="5.5" transform="matrix(-1 0 0 1 612 992)"/><ellipse cx="627.8" cy="970.5" fill="#653A5F" rx="7" ry="5.5"/><ellipse cx="352.3" cy="829.5" fill="#653A5F" rx="8.5" ry="7.5"/><ellipse cx="381.8" cy="827.5" fill="#653A5F" rx="7" ry="6.5"/><ellipse cx="375.3" cy="877.5" fill="#653A5F" rx="8.5" ry="7.5"/><ellipse cx="371.3" cy="850.5" fill="#653A5F" rx="4.5" ry="5.5"/><path fill="#D5682B" d="M564 923l-12-41 157-98-33 106-112 33z"/><path fill="#F37533" d="M471 842l82 42 78-52-123-57-37 67z"/><path fill="#653A5F" d="M439 896l33-55 80 42-62 41 4 18-17 4-25-11-13-39z"/><path fill="#3E223A" d="M489 924l5 18 70-18-12-43-63 43z"/><path fill="#653A5F" d="M460 970l-2-33 13 5 3 34c3 8 12 25 17 29 5 3 18 2 23 1 0 2-1 5-4 7-18 5-31-9-35-16l-11-17c-4 2-11 4-21 3-9-1-21-16-21-22-1-4 2-5 3-4 17 25 30 19 35 13z"/></svg>