<svg xmlns="http://www.w3.org/2000/svg" id="Crons_Onboarding" width="400" height="280" data-name="Crons Onboarding" viewBox="0 0 400 280"><defs><style>.cls-1{fill:#ffd00e}.cls-2{fill:#9e86ff}.cls-3{fill:#fff}.cls-4{fill:#f6f6f8}.cls-5{fill:#7553ff}.cls-6,.cls-7{fill:#181225}.cls-8{fill:#ee8019}.cls-9{fill:#ff9838}</style></defs><path d="M287.1 246.3H286l-.1 3.3-144 3.3-30-6.1H85.7l.2 7.3 39.2 12.1 195.5-7.1.4-6.9z" class="cls-9"/><path d="m125 266.6-39.2-12.1-.3-.4-.2-7.2a.4.4 0 0 1 .4-.4h26.2l30 6 143.6-3.3.1-3q0-.2.4-.3h1.1l34 6q.3 0 .3.3l-.4 7q0 .2-.4.3l-195.5 7m-38.7-12.8 38.8 12 195.1-7 .4-6.3-33.6-5.9h-.6l-.1 3q0 .4-.4.4l-144 3.3-30.1-6H86zm199.6-4.2" class="cls-6"/><path d="m333.1 38.2-9.2 3.5 8.8 3.6-11.3 6.2-.8-21.6-13.1 9 9.8-3.3 1.3 22.9 16.7-6.4-.1 12.3 9.5-10.7 3.9 17.5 4-18.3 12 15-1.3-18.5 14.6 3-8.4-11.8 13.9-6.3-17.9-4.7L378 14.8l-18.4 6.1 3.2-10.6-9.2 7.4L352.2.9 345.1 16l-8.5-9.5 1.1 12.8-17.8-6.6 15.5 17.2-12.5 1.1z" class="cls-3"/><path d="m348.6 71.5-.3-.2-3.8-16.8-9 10.1q-.2.2-.5.1l-.2-.3V52.7l-16 6.1a.4.4 0 0 1-.6-.3L317 36l-9.4 3.2a.4.4 0 0 1-.3-.7l13-9h.5l.2.3.7 21 10.2-5.5-8.2-3.4a.4.4 0 0 1 0-.7l8.6-3.2-9.6-6.8a.4.4 0 0 1 .1-.7l11.8-1-15-16.6a.4.4 0 0 1 .5-.6l17.2 6.3-1-12.2a.4.4 0 0 1 .6-.3l8.1 9.1 7-14.5.4-.2q.3 0 .3.4L354 17l8.7-7a.4.4 0 0 1 .6.4l-3 10 17.7-6q.3 0 .5.2.1.3 0 .4l-12.2 14.4 17.3 4.5a.4.4 0 0 1 0 .7l-13.4 6.1 8 11.5q.3.2.1.4l-.4.2-14-3 1.1 18a.4.4 0 0 1-.6.3l-11.5-14.4-3.8 17.5q0 .3-.4.3m-4-18.2h.2l.2.3 3.6 15.8 3.6-16.6a.4.4 0 0 1 .7-.1l11.2 14-1.2-17.3a.4.4 0 0 1 .5-.4l13.6 2.8-7.8-11a.4.4 0 0 1 .1-.6l13-5.8-16.9-4.4a.4.4 0 0 1-.2-.6L377 15.6l-17.1 5.7a.4.4 0 0 1-.5-.5l2.8-9.4-8.3 6.6h-.3l-.3-.2L352 2.3l-6.6 13.9a.4.4 0 0 1-.6 0l-7.7-8.6 1 11.6a.4.4 0 0 1-.5.4l-16.4-6 14.5 16a.4.4 0 0 1-.2.6l-11.6 1 9.4 6.7a.4.4 0 0 1 0 .6l-8.4 3.2 8 3.3a.4.4 0 0 1 0 .7l-11.3 6.2a.4.4 0 0 1-.6-.3l-.8-21-10.3 7.1 7.3-2.5a.4.4 0 0 1 .5.4l1.2 22.3 16.2-6.1h.4l.1.3v11.3l8.8-10z" class="cls-7"/><path d="m345 20.8-8 26.1q-.3 1.5 1.3 1.6l25.8-3.8c1-.2 1.4-1.3.8-2l-17.6-22.3c-.6-.8-1.9-.6-2.2.4" class="cls-1"/><path d="M338 48.9q-.7 0-1.2-.6t-.3-1.5l8.2-26.1a1.6 1.6 0 0 1 2.8-.6L365 42.4q.6.7.3 1.6-.4 1-1.3 1l-25.7 4zm8.2-28.6h-.1q-.6 0-.7.6L337.2 47q0 .5.2.8.3.5.8.3l25.8-3.8q.5 0 .7-.6l-.2-.8L347 20.6zm-1.2.5" class="cls-7"/><circle cx="350.3" cy="41.3" r="2.2" class="cls-6"/><path d="M350.3 43.8a3 3 0 0 1-2-1 2.6 2.6 0 0 1 .5-3.6 2.6 2.6 0 0 1 3.6.6q.6.8.5 1.9a3 3 0 0 1-2.6 2.1m0-4.4q-.5 0-1 .4a2 2 0 0 0-.5 2.5 2 2 0 0 0 2.6.5q.6-.5.7-1.2a2 2 0 0 0-1.5-2.1zm-1.5-2.2-2.9-8.2s1.6-.7 3.6-.6l.5 8.5z" class="cls-6"/><path d="m348.8 37.6-.4-.3-2.8-8.1q-.1-.3.2-.5s1.7-.8 3.7-.7q.3 0 .4.4l.5 8.5q0 .4-.3.4zm-2.4-8.4 2.6 7.5h.6l-.5-8q-1.9.2-2.7.5" class="cls-6"/><path d="m223.9 25.5-84.2 89.3H92.9L172.6 36z" class="cls-2"/><path d="M139.7 115.2H92.9a.4.4 0 0 1-.2-.7l79.6-78.7.2-.1 51.3-10.5a.4.4 0 0 1 .4.6L140 115zm-45.9-.8h45.7l83.3-88.3-50 10.3z" class="cls-6"/><path d="m223.9 25.5 81 89.4-4.2 5.5-61.9-67.6h-31.1L143.6 122l-3.9-7.2z" class="cls-9"/><path d="M143.6 122.3q-.3 0-.3-.2l-4-7.1.1-.4 84.2-89.3.3-.1h.3l81 89.5v.4l-4.2 5.6-.3.1-.3-.1-61.7-67.5h-30.8l-64 69zM140 115l3.6 6.4 63.7-68.8H239l61.5 67.4 3.8-5-80.5-88.8z" class="cls-6"/><path d="m92.9 114.8 6.1 6.8 44.6.4-3.9-7.2z" class="cls-8"/><path d="M143.6 122.3 99 122l-.3-.2-6-6.7a.4.4 0 0 1 .2-.7h46.8l.3.2 4 7.2a.4.4 0 0 1-.4.5m-44.4-1 43.7.3-3.4-6.4H93.8z" class="cls-7"/><path d="m290.7 117.1-4.8 132.5-144 3.3-30-6.1-4.4-122.4-.1-2.7 36.2.3 64.1-69.2h24.2l1.4 1.5z" class="cls-9"/><path d="m141.9 253.3-30.1-6-.3-.4-4.5-125.2.1-.3.3-.1 36 .3 64-69 .3-.2h24.2l.3.1 1.4 1.6 57.4 62.7v.3l-4.8 132.5q0 .3-.3.4zm-29.7-6.8 29.7 6 143.6-3.3 4.8-132-58.6-64h-23.9l-64 69-.2.1-35.8-.3v2.4z" class="cls-6"/><path d="m125 257.6-39.4-10.4a.4.4 0 0 1 0-.7H112l30 6 143.6-3.3.1-3 .2-.2h.3l35 5.9a.4.4 0 0 1 0 .7l-196 5m-36.4-10.4 36.5 9.6 192-4.9-30.7-5.2-.1 2.9q0 .3-.4.4l-144 3.3-30.1-6zm197.3 2.4" class="cls-6"/><path d="m125 266.6-.3-.4v-9a.4.4 0 0 1 .8 0v9q0 .4-.4.4" class="cls-6"/><path d="m139.7 122 2.2 130.9-30-6.1-4.5-125.1z" class="cls-8"/><path d="m141.9 253.3-30-6-.3-.4-4.5-125.2.1-.3.3-.1 32.4.3q.3 0 .3.3l2.1 131zm-29.7-6.8 29.3 6-2.1-130.2-31.6-.3z" class="cls-7"/><path d="m293 112.1-54.2-59.3h-6.9l57.5 62.9 1.3 1.4-.1 3.1 10.1.2z" class="cls-6"/><path d="m300.7 120.8-10.1-.2a.4.4 0 0 1-.4-.4l.1-3L231.6 53a.4.4 0 0 1 .3-.6h7l.2.1 61.8 67.7a.4.4 0 0 1-.2.6m-9.7-1 8.8.2-61.1-66.8h-6l58.3 63.6z" class="cls-7"/><path d="M198 133.3V78.1s-.1-8.6 7.2-15.2a21 21 0 0 1 21.2-2.8 22 22 0 0 1 11.3 17.7V133z" class="cls-5"/><path d="M198 133.7a.4.4 0 0 1-.4-.4V78.1s0-8.8 7.4-15.5c6.6-6 16.8-5.2 21.5-2.8a22 22 0 0 1 11.6 18V133q0 .4-.4.4zm20-75c-4.2 0-9 1.2-12.5 4.5a22 22 0 0 0-7.1 15v54.7l39-.2-.1-55s-.4-11.9-11.1-17.3q-3.2-1.6-8.2-1.7" class="cls-7"/><path d="M219.1 91.2q-.4-.3 0 0m-10.2 14.7.3.3zm2.4 27.2 17-.1v-.2q.7 0 .7.2h8.7v-6.2l-.1.1c-.5-1.9-.3-1.7.1-1.2v-1.9h-.1.1v-.7q-.4.1-.4-.4l.4.1V117v.1-.1l-.6-.4q.4 0 .6.2v-1q-.2.8-.3 0l.3-.3v-1.2c-.7-1.8-1.2-.2-2 .1 0-.3-.6-2.7.7-2.1.5.4-.2 2 1.2.7l.1-.4v-.8q-.3-.8 0-1.4v-2.8h-.1q-1.4 0-.5-1.5.2-.1.6.4v-3c-.1-.5 0-1.1-.7-1.2-.3-1.3.3-.7.7.1v-8c-.6.2-1.7.4-2.4.1.8-.3 2.8-3.6 1.6-.7h.8v-3q-.5 0 0-.3V77.8s-.3-12.1-11.3-17.7c-4.7-2.4-14.5-3-21 2.6h.2q0 .5-.3.8l-.2-.5c-7.2 6.6-7 15.1-7 15.1V117q.4-.8 1-.3c-.4 0-.9.7-1 .9v4.1q.2.5.7.8l-.8-.2v11.1h13.1q0-.2.2-.2m25.7-24q.4.5-.2.5zm-39 18.3h.2zm0-1.8h.4q-.1.7-.4 0m.4 2.8h.2zm12.8-3.4v-.2q.4.1 0 .2m-.6-24.6c0-.5-.5-.6-.5-.1-2-1.3 1.7-1 .5 0m.2 3v-.3zm-1-1c-1.4.3-1-1.7.2-1 1 .9-.6.3-.3 1m-.4 4c-.7.3-1-.8-.5-.5-.7-1 1.3-.6.5.5m0 3.4v-.5c0 .1.3.5 0 .5m-2-12.3c-.6-1.8.1-.5.9.4-.8-.8-.4-.5-.9-.4m.6 6.3q0-.7-.8-.9c.6-2.2.7-.4.8 1m-.2-9q.6-.4.8-1c.6.7-1 2.7-.8 1m-.6-5.4-.3-.2q.3-.1.3.2m-.4-4 .3.3q-.3 0-.3-.2m.4-.2c-1.1-.7-.1-1.7.2-.7-.5.1.5.5-.2.7m-.6-3.6.7-.8c.3.4-.7 1.3-.7.8m1.2 4.7c-.4.5.4.4 0 1-.2-.4-.8-1 0-1M209 101q-.3 0-.4-.2.3 0 .4.2m-.3-16.3q0-.2.1 0m1.7-12q-.3-.6.2-.4c.2-.5.1.2-.2.4m1.3 10q-.5.1 0 .6c-.7-.4-1-1.2 0-.6m-.2-6.6.1.3zm.7 11.9c-.5-1.3 1.4-.8.2-.7-.1.3.2.6-.2.7m0 1.2v.6c-.6 0-.3-.4 0-.6m-.2-1.3s.3 0 0 0m-.2-3.5.6-.2c.5.4 0 .5-.6.2m.9 6c-.3.6-.8.1-1.4.2.4-.2 1.2-.5 1.4-.1m1 5.5c-1.7.8.4-2.5-1-2.9 1.4-1.8.5 1.1 1 2.9m.1-11c2-.5 0-.3-.2-.9 1.9-.2 3.2 1.3 2.4 1.9-2.3.3.8-1.3-2.2-1m.3-4.7.2.1q-.1.1-.2 0m1.2 3.5c.1-.8.6-.2.4.3zm2.6 15c-1-6.7 3.8 1.9-1 2.2.4-2.9-1.2.3-.2-3.3 1.5-.2-.9 2 1.2 1.1m-.8-9q0 .2 0 0m.6-2.5q.2 0 0 0m1.7 31c.4-.5.6.2.5.8.1-.5-.6-.5-.5-.8m0-6q.3.2.5.7zm.2-.8c-.1-.2.4-.2.4-.1zm-.8-6.2c1 .8.6.6 1.4.4q-.8 1.4-1.4-.4m1.1 1.5h.2q0 .2-.2 0m-3.3-3.5c.2.2 1-.3.8 0-.6.3-1.8.4-.8 0m.1-1.4q0-.3-.4-.5c0-.7.6.1.4.5m-.3 4q.4.5.4 1.1-1-.2-.4-1m.4-1.4q.4-.3.7.1-.5.3-.7-.1m0-13c-.5-.7-1-1.9-.4-1.7.6.6.7.8.3 1.7m0-2.3q0-.1.2 0zm-.8 6.3c-1-.3-1.2 1-1.3-.2 1.1-.6 1.8-3.7 1.3.2m-2 8c.3.3 1 1 1.2.3 1 .7-1.3 1-1.2-.2m1.3 1.7-.3-.1q.4-.1.3.1m-1.5 1.9c-.1-.6 1 0 1.1.3zm.1 1.8v-.4q.3 0 0 .4m-1 3q0-1.1.8-.7.3 1.2-.8.6m.8 5.7q-.4-.1-.2-.5c.2-.3.3.3.2.5m-.6-13q.3.2 0 .2zm.2 4.5.1-.5zm-.3-6.1c0 .4.9.8.8.9-.1.6-1.3-.4-.8-1m.3-.7c.3.3 1.3.7.6.8 0-.4-.6-.7-.6-.8m1.9 1.1c-.1-1-.5-1-1.1-1.8.7-.9 2.5 1.6 1.1 1.8m0-3.5c0-.3-.2-.3.2-.1zq.2.4-.5 1.3c-.6 0 0-1 .5-1.2m.4-3.8-.5.4c-.5-.5.2-.6.5-.4m-.2 1.8c-.3-1 .9-1.5.5-.1-.4-.6-.6 1-.5.1m.6-5.3c-.3 1.5-2.2-.3-1.2-1.2.7 0 .5 1.3 1.2 1.2m-1-2.6c-.6 0-.6-.6-.9-1 .5.2 1.9.4.9 1m-.7 7.7c.8-.8.8 2-1.2 2.4-.1-.6 1-4.9 1.2-2.4m-2.7-.8c0-.6 1-.3.8-.8.3-1.2.9 1.3-.8.8m-1.8-7.6-.1-.8c.5-.2.3.6 0 .8m.3 5c.3 0 0 .2.2.5-.8.2-.5 0-.2-.6m1.5 5.2c-1.1 0-1.7-2.6-2.5-1 .7-2 2.5-1.1 2.5 1m-.2-6q0 .6-.3.8c-.1-.2-.1-.8.3-.9m.2 4c.3 0 1.6-.1.8.2-.5.5-1 .7-.8-.2m0-3.6q.4 0 .3.4zm-.5-4.2h-.2zm-.2 2.8q-.1.8-.4 1.2c-.7-.8-.3-.8.4-1.2m-.9-14.5h.5q-.2.4-.5 0m.4-1.7-.8-.1q.6-.6.8.1m-.2 9.8q0 .2-.3.2c-.7 0 .2-.7.3-.2m-.5.9-.5-.5c.4.2 1 0 .5.5m-.4 2.9c-.6 0-.4-.2-.6-.7.1-.6 1 .4.6.7m-.4 6.3-.1.8q-.1-.4.1-.8m1.9 10.4q0-.7-.2-1c.5-.6.3.7.2 1m.2 8.3v.2q-.4 0 0-.2m.8 8.7q-.2-.2-.2-.5.5.1.2.5m.1-22.3q1 0 1.2-.6c1.1.2-.7 1.4-1.2.6m.3 1.4.6-.2s-.4.9-.6.2m.6 13.8v-.3zm-.1 5.3.6-.9c.2.3-.3 1-.6 1m1.3 8.6v-.2q.1 0 0 .2m-.6-8.7c.6-.4.6.2.8.7q-.6-.3-.8-.7m1.3-13.2h.3c-.2 0-.3.3-.3 0m-.5-2.7q.2-.7.9-.3c-.1.3-.9.6-1 .3m1 1.3c.9.8 1.5 5 1 5.5-.3-2.6-1.1-4-1-5.5m1 11.7.2.1c.4.2-.4.5-.1 0m.4-8 .1.6q-.3-.3 0-.7m.7 2.4-.7.4c-.3-.6.5-.8.7-.4m-.7 17.9q.5-.3.5.2-.4.3-.5-.2m.1-1.7h.5c-.4 0-.4.4-.5 0m.6-4.8q0-.4.4-.4.1.7-.4.4m1.8-17c-.1-1.2.4 0 .8.2-.8 1-2.7-1-.8-.2m-.5 23.9q.9 0 1 .8c-.2-.4-1-.3-1-.8m.6-11.3q.3 0 .2.2zm.8-.2q-1-.1-.8-1c.5.1 1.2.5.8 1m.1-3c-.6.2-.7-.7 0-.5 0 0 .4.6 0 .4m0-.5q.4-.1.4.4-.3 0-.4-.4m.3-10.1q0-.4 0 0m.2-1.1c-.3 0-1.5-1.3-.5-.6-.4-1.9.8.7.5.6m-1.6-3q1.2-.2.4-1c-1.4-.5 1.4-.1.2 1 2.2-.4 0-1.5 1-2.4q-.3-.5 0 0c.2.7.8 2.5.2 2.9-1.1-1-2.4 2.5-1.8-.4m3 14.2c-1.6-1.3.9-1.7 1 .2-.5.2-.9-1.7-1-.2m.4 7.5v-.4q.2.3 0 .4m-.1-6.2q0 .1-.1 0m-.8-19.8c-1.3 2.2-2.7-3.1-.4-1.9 0 .8-.8 1.9.4 2m-.1 6.7c.5-.3 1.2-.2.6.3.2.9-.9.5-.6-.3m.6-1.3c.5.6.2.5 0 0q-.4-.6-.3-1.5c1 0 1 1 .3 1.5m0 4 .3-.1c.2 0-.3.4-.2.1m-.8 16.5v-.3q.2 0 0 .3m-.1-1.4c.1-.9.6-1 .6-.2q0 .7-.6.2m1 4.7q-.3.6-.7.8c-.6-.7 0-1 .7-.8m-.4-16.2q.3-.3.3-1c.6.8 0 2.6-.3 1m.2-2c-.4-1 1.2.1.8.8q-.5-.1-.8-.8m.6-.8q0 .2 0 0m0-19c.4 0 .6 1 .5 1.3-.5 0-1.6-1.2-.6-1.2m-.4-3.3q-.4 0-.4-1.2c0 .5.8 1 .4 1.2m0 5.8c-.9.5-1.5.4-1.8 2 1 3.6-3-1.5 1.7-2m-2-7.3c-.5 0-.4-.7 0-.4-.6.1.3.2 0 .4m.4 1.5c-.6.3-.9-.3-.8-.7.3 0 .5.5.8.7m-.5-2.5c.2-.2.3-.5.4 0zm-.1-12 .4.3q-.4 0-.4-.3m.1 11q-.7 0-.8.6c-.1-.5.5-1.2.8-.5m-.6 1.7v.2zm-.8 5 .2-.3c.9-.5.5 2.8-.2.4m.8 1.7c.8-1.4.6-1 1 .3-.6.2-1.7.3-1-.3m1.5 28.5c.1.3.7.6.3.9-.2 0-.5-.7-.3-1m.7 10.2c-.1.5-.8.2-.6-.2.2 0 .8-.2.6.2m.2-.8v-.3zm.2 2.7c-.2-.9.5-1.3.9-.4-.2.3-.8-.1-1 .4m1-11.8c-.5 0-.4-1.6 0-1.3-.3.4.5 1.1 0 1.3m-1-5.3c.9-.7.1 1.3.7 0 1.5-1.6 0 1.7-.8 0m2-30c0-.3-.5-.6 0-1 .8-.4 1 .7 0 1m0-4c.2-.8.2-.3.3 0zm-.4 17.6a3 3 0 0 1-.3 1.6c-.2-.3.3-1 .3-1.6m0-11.4-.2.6q-.2-.4.2-.6m-.1 2.3q0-.6.6-.8c.3.5-.4.5-.6.8m0-14.8q.6-.1.5.7-.5 0-.5-.7m.2 4.3-.2-.4c.1-.2.4.3.2.4m.1 5.9c.2.3-.5.7-.7.5q.1-.5.7-.5m-.4 38.6v-.2zm.1 9 .2-.1zm.4-9.8q-.4 0-.4-.4.6-.1.4.4m.1-25.6-.2-.8c.2-1.4.8.5.2.8m2.1-11.6c-1.1 1.8 3 2.5 0 2.8-.8-1.7-3.8-.7 0-2.8m-1-2.7c-.2-.6-.2-1.5.4-1.4-.1.3.7 1.4-.4 1.4m2.7.4c1.8 1.2-.9 1.4-1.5 2-1-.9 1.3-1 1.5-2m0-2-.3.3q-.1-.3.3-.3m3.9 12.5q0 .4-.4 0zm-.3-5.1q.1-.3.5-.5-.1.5-.5.5m.5 7.6c-.1-.1-2-.7-1-1.8.2 1.9 1.5-.3 1 1.8m1.2-2c-.7.5-.6-.3-1.3-.5q1.2-.7 1.3.6m-.7-4.7v.6c-.2.1-.3-.4 0-.6m.3-.2q-.1 0 0 0m1.3-8c.6-.8.7 1.4.1 1.7.2-.6.7-1.6-.1-1.6m1.6 39.9c.3.2.2-.2.4-.3.5.5 0 1.1-.4.3m.4-2.9.4-.2c0 .4-.3.8-.4.2m-.4 3.5-.3-.5c.1 0 .5.4.3.5m-.5-3.8q0-.5.3-.8c0 .3.2.8-.3.9m1 6.3c-.2.6-.2 1.5-1.2 1.1q1.1 0 1.2-1.1m-1.3-4.3c-.6-.3-1 .6-1.8-1 .3-.3 2.4 0 1.8 1m-.5 8.2h-.3q0 .6-.8-.4c.5-.8 2.6-.3 1 .4m.2 2q-.8 0-.8-.8c.4-.8.6.5.8.8m-1.9-8.5c-.7.7.7 0 .8.6-.7 1-3.2-1.7-.8-.6m.2 1.6-.7.5c-.8-.5 0-.6.7-.5m-1.6 2.8c-.2-.5 0-1.5.4-.8 0-.5 0 .4-.4.8m-.2 2 .2-.1q.2.4-.2 0m0-11.9.1.8c-.3 0 0-.6 0-.8m.3 3q.2 0 0 0m-.2-.9c.1-.3.5.3.6.2.6.4-.7.5-.6-.2m0-15.6q.2 0 0 .3-.3-.2 0-.3m0-5.2-.1.4q-.3-.3 0-.4m.3-1-.2.2q-.2-.2.2-.2m.8 10.4q-.5 0-.8-.2.5-.6.8.2m-.1-8.7q0 1 .3 1.4c.7 1.4-1.4-1.2-.3-1.4m.4-1.2q0-.2 0 0m.9 4.3v1.3c-.7.2 0-.9 0-1.3m-.3-8.7c.6-.8.2.5 0 0m.8-1q-.1-.9-.4-1.3c.6-.6 1.1 1.1.4 1.3m-.4-3.3q.4.6.3 1.1l-.3-1m.1 3.4q0-.2.3 0c-.1 0-.2.3-.3 0m.5 4-.3-.3q.3-.3.3.3m-.1 1.8.1.7c-.6 0-.3-.3-.1-.7m-.5 11.2-.3-.7c.4-.1.8.4.3.7m-.3 3.3.3.3c-.2 0-.7-.5-.3-.3m-.6 6h.2zm.3.1-.1.8q-.2-.3 0-.8m-.4-7.6c.5-.3.4.7.7 1-.8.4-.8-.4-.7-1m.1 9.5c.6 0 1 .9.6 1.1-.2-.6-1.2-.5-.6-1m.2-6.3c-.2-.6-.2-.4.4-.5 0 .4-.1 1-.4.5m.7 3.3q-.2.4 0 0m-.5-15.7v-.5zm0 3.8q.2-.1.2 0m.1.9c-.1.5-.3 0-.7 0-.3-.5.4-.2.7 0m-1.1 7.2c.1 0-.3.4-.1 0m0-3.3-.1-.1q.2 0 0 .1m-.2-2.4q1 .1.4.8zm-.2-10.4c.2-.2.1-.7.5-.4-.2 0-.3.6-.5.4m.5 5.8q.1.4-.5.4 0-.5.5-.4m0 13.1c-.4-.2 0 0-.5-.8.6 0 1.6.6.5.8m-.4 2-.3-.3q.3 0 .3.3m2.1 5.6-.2-.4c-.1-1.4 1.5.8.2.4m.1-2.3q.3.1.4.4c-.4.2-.6-.2-.4-.4m.4 3.4v.8q-.1-.5 0-.8m-.3.7c.4.3-.1.6-.4.4q0-.4.4-.4m-.1 1.8q-.5 0-.5-.7zm.7-3.8c-.1-.5-.3-1.9.1-1.1.2.3.3 1-.1 1.1m-.1-5c-1-.3 0-.6-.5-1.3 0-.6 1.4 1.3.5 1.2m-.4-4.2h.3c.4 0-.6.5-.3 0m.2-1.7-.1.2q-.1-.3.1-.2m-.5-.8.3-1.2q0-.2 0 0-.1.3 1 1c.3 1.3-1 0-1.3.2m0-4.4h.4q-.3.2-.4 0m1.2-3c.8.1 0 1.6-.3 2.6-.8.4.1-1.9.3-2.6m-.6-4.2c.2-.6 0-1.7.7-1.3q.4 1.2-.7 1.3m.7-8.7q.4.3 0 .6-.2 0 0-.6m0-.2v-.4c.3 0 0 .3 0 .4m-.2-13.8q-.2-.3.2-.4c.6 0 .4.7-.2.4m.3 2.9-.5.2q.2-.2.5-.2m-.2-6.2q-.7-.6.3-.7 0 .5-.3.7m0 10.2v.3q-.3-.2 0-.3m-.8 3.2c-.2-.2-.5-.9-.3-.9.5.5 1.8.3.3.9m.1-1c-.3-1-.7.5-.9-1 .6-.1 1.9.3 1 1m-3.2 4.3c.9 0 .4-.6.3-1.2.5.3 1.1 1.6-.3 1.2m-4.3 8.8c1.2-1 1.5-1.9 2.4-1.9-.2 1.8-.8 1.5-2.4 2m.9 21.2c-1 0 0-1.2.2-.6-.2 0-.3.5-.2.6m-1-.2v-.8c.3.2 0 .4 0 .8m0-6.3.1.2zm-.2-.8c0 .8 1-.5 1.2 0-.5.2-1.7.6-1.2 0m-.7 6.6c.4-.2.8 1 .3 1q-.4-.5-.3-1m-.3-2.7q.3 0 .4-.3c0 .2-.2.7-.4.3m.9 5-.3.2zm0-3-.2-.6q.7.2.2.7m-.2-4.2q.2.3 0 .2zM229 93c.6 3.8-1.3-.3-1.3-1 2.6-2.2 2-.3 1.3 1m-.4-4.1c.4-.9 1.4-.5 1 .2q-.6-.3-1-.2m1.1 13.7c0-.6-.9-1-.6-1.3.1.4 1.3 1.1.6 1.3m-2.3-13q.6-.3 1.2.1-.8.1-1.2-.1m.5 4.5c.4.6-.6 1.7 1 .6.6 4.5-.8-.3-.7.7.8 4-3.1-2.7-.3-1.3m-.5-3.2c-2.3 0-1-.4-1.4-1.6-.2-1.2 1.5 1 1.4 1.6m-1.2 10.2q-.4 0-.7-.3c-.2-1.2.8-.2.7.3m.1 9.8h-.1zm.9.9q-.3-.4 0 0m-.5 11.6c.4.6.2.3-.2.4 0 .3-.2-.4.2-.4m0-6.2q0-.5.2 0zm.2.7q.3-.2.2.2 0-.3-.2-.2m-.2-3c-.1-.4.8-.3.6.4q-.2-.4-.6-.3m1-14.9v-.2q.3 0 0 .2m.8.4c.8.3 0 1.6-.8 1.7 0-1.3.2-.4.8-1.7m.2 4.2q-.4 1-.5 0zm-.4 10.8c0 .1.3.3 0 .3q-.7-.2 0-.3m.7 4-.2-.5c.4-.2.2.2.2.4m.3.9q-.9.5-.6-.4.6 0 .6.4m-.5 3.8-.4.1c-.1-.3.3 0 .4 0m-.5 1.5.1.3c0-.2-.4-.3 0-.3m1.4 1c-.8.2 0 .4-1.2 1.5-.7-1.5.4-3.7 1.2-1.4m-.4-6.2c1 0 .6 1.2-.3 1.1-.3-.5.3-.2.3-1.1m-.5-9.2c-1.3-1-.4-1.6.4-.3 1.2-2.6 1.3.4-.4.3m.2-5.1c0-.6.6-.3.6 0zm-.3-2c-.7-3.6 2.9.7.3-1.2.6 2.3 2.6 2.7-.3 1.3m1-8.1c.3 0 1.4 1.7.9 1.6q-.8-.3-1-1.6m.3-9.2h.2q.2.5-.2 0m.7 1.9-.3-.4c-.6-.8 1 .5.3.4m0-3c-.5 0-.5.8-1.3.3-.5-.6 1.6-1 1.3-.3m-1.6 2c-1-.3-2.6-2.2-.5-1.6-.2.3 1.5 1.3.5 1.7m-.4-5.7-.7-.5c.5-.5 1-.1.7.5m-.3-10.8-.2-.4c.1.3.6.2.2.4m0 9.5-.5.8c-.1-.2.3-.9.5-.8m-2.1-.2c-.1.6-.3-.1-.2-.5.2-.5.7.6.2.5m-.8 3.3c.2-.6-.7-1 .4-1.7.9-1-.2 1.1-.4 1.7m-.6-6q-.1-.4.2-.3zm.2 14.7q0-.4-.3-.9c.7-.2.9.7.3.9m0 1.4q0 .2-.3.2c.2-.3.2-.8.3-.2m-.2-3q.3-.3.3.2zm.9 17.8q0 .3-.4.4c-1.8.6.7-1.3.4-.4m-.8 12.6c.2 1 1 .7-.2 1.2-.3-.8.2-1.1.2-1.2m.3 9.7c.3.6-1 1.3.1.8-.3 1.6-1-.8-.1-.8m0 2c-.3-.5.2-.3.3-.5.1.2 0 .7-.3.5m.7-5c-.4.3-.3-.2-.3-.5q.5 0 .3.6m.8 2-.1-.3v.2m-1.1-2.6c.6-1.4 1-2 1.5-.4-1.7.2 0 .7-1.5.4m1.5-2.8q0-.4.4-.2zm.4-10 .3.2-.3-.3m.2 10.7q.4 0 .3.3-.3 0-.3-.3m.3 6.5c-.1-.7 0-1.4.9-1.2l-1 1.2m.3.2h.7c0 .3-.4 0-.7 0m1-1.8-1.3-.3c.7-1 1.7-1.1 1.3.3m-.5-2.3c1.6-.7.8 0 1.2 1-.8-.9-.9.3-1.2-1m.5-2.8c.3 1.1.3.5.9.3 0 .8-1.8.1-1-.3m1-.6q-.3 0 0 0-.1.1 0 0m.7-17.3h-.1c0 .1-.6.6-.7 0-.4-1 1.3-1 .8 0m.4 5.8c.9.9-.8.6-1.1 0 .2-.6.2.8 1 0m-.8 7.5c-.1-.6.6 0 0 .6-.3.2-.6-.6 0-.6m.2.5c.5-1 .2.1 0 .6-.3 0 .5-.9 0-.6m.5 8.8c-1 .2-.6-1.5 0-1.5-.5.7 1.7 2.3 0 1.5m.8-2.2s-.4.2-.4-.2c.4 0 1-.2.4.2m1.1-4.2c0 .3-.3.2-.5.6-.2-.3.7-.8.5-.6m-.3 3.6q0-.3 0 0m.8 5.7c-2.8-.8 1.7-.8.1-2.6 2-.4.8 1.8-.1 2.6m2-3.8c-.5-.3-1-.7-.4-1.2q0-.4.3 0h-.1c.4.1.3.8.2 1.2m-.1-2c-.4-.2 0-.3.2-.5q.1.4-.2.5m.4 4.7.3.2q-.4.3-.3-.2m.1-1.9c-.2-.3.5-.6.7-.9q-.2.6-.7.9m.8-1v-.1m.6-7.5-.5-.5q.6 0 .5.5m-.2-.8q-.3 0 0-.3zm-.2-3 .1.4c-.2 0-.7-.3 0-.3m-.3.3.1.6c-.3 0-.2-.5-.1-.6m-1-1c-.3-1-.2-2.2-1.2-1-.6-2.8 3.2.7 1.3 1m-.7-6.2c-.9-1.3-.6-4.4 0-2.8-1 1.6 1.2 2.3 0 2.8m.4 1.2v-.5zm.1-2.7v-.6c.2.5.4 1 0 .6m.4-3.5c-.3.2-.3-1.4.2-.7 0 .3-.5.3-.2.7m.2 6.8v-.5zm1-14q-1-.1 0-1zM237 97l-.3.3q0-.4.3-.3m-.5 6.4q-.4.4-.3-.4.5 0 .3.4m-.2-5.7-.3.8.1.2q0 .3 0 0l-.1-.2q-.4-.6.3-.8m-.3-2q-1 0-1.5-1.1c.7-.3 1.6.5 1.5 1.2m.3-6.5q0-.6-.3-1c.9-.5 1 .7.3 1m1.2-12.3-.1.3zm-.2 9.8c-.7.2-.8-.4-.8-1 .7-.6.4.5.8 1m-1-2.5.5.3c-.3.9-.5.3-.6-.3m0-1.4-.3-.3q.4 0 .3.3m-.4 2.5q0-.1 0 0m-.2-6.3v.2zm-.5-4.6c-.3-.2 0 0 .4-.3zm0-1.6c0-.6-.9 0-1.2 0 0-1 0-.4-.4 0 .4-1.9 1.5-1.1 1.6 0m-2.1-1q0 .2.5.4-.8.2-.5-.5m.1.9q0 .2-.3.2c-.3 0 .2-.2.3-.2m1.1 10.6q-.7 1-1.5.2c.5 0 1.1-.4 1.5-.2m-1.4 5.1c-.5.2-.5 0-.9-.3q1-.6.9.3m-.5-10.7c0 .3.3 1 .1 1-.1-.3-.5-1-.1-1m-1 7.8q-.4-1.3.7-.5-.2.5-.8.5m0-5.8-.3-.6q.7 0 .3.6m-.2.3h-.6q.2-1.4.6 0m-.1 3.6c-.2-.1-.6-.6-.6 0-1.2-1.1.8-1.1.6 0m-1.2-14.9h-.2q.2-.2.2 0m0 1.8q0 .3-.2.2zm-.2 8.6c-.3-.4-.6-1.1 0-1.6zm-.1-9.1h-.5zm-.5 3.6c-.4.3-.3-.2 0-.4zm0-11-.3-.3q.2 0 .2.2m-.8 7.7c-.5-.7-1-.2 0-.8 1 0 .1.3 0 .8m-.8-8.3c.5.1.6 0 .3.5q-.4-.1-.3-.5m-.3 19.1q-.5 0-.3-.3.6 0 .3.3m-.3-6.1-.2.1q0-.3.1-.1m-.1.3c.8-.5 0 1.2-.2.7zm-.8-13-.4-.3q.3 0 .4.2m0 1.3q0 .3-.3.5c.1-.2-.1-.8.3-.5m.6 14.2c-.3 0-1-1-1.7-1.6 0-.4 1.7 1.1 1.7 1.6m-1.8-6h.2c0 .2-.4.1-.2 0m-.5 3.5.3.6c-.2-.2-.7-.3-.3-.6m.2-3.4q0-.3 0 0m0-.9c-.1.5-1.4 2.3-1.7 1.4.7-.3 2-2.2 1.8-1.4m-.8.2q0 .2-.2.1zm0-7.6q0 .5 0 0 0-.3 0 0m.3 3.5q0-.3.3-.4 0 .3-.3.4m-.2-6.9q-.2.4-.3 0zm-.5.2v.1m.2.3-.3-.1zm-.4 1.7c.8.1-.1-.5 1.3-.5 0 1-1.6.8-1.3.5m.3 8.2-.3.1q0-.5.3 0m-.6-.1c.4.3 0 .3-.3.6q0-.5.3-.6m-1-9 .8.2c-.3 0-.8.3-.7-.2m.6 21c-.3-.5-1-.8-1-1.5.2.8 1 1 1 1.5m-1.3 0q.3-.8-.2-1c0-.4 1 1.2.2 1m-.3-23.1c0 .3-1.2.5-1.1 0 .4 0 .7-.5 1.1 0m-1.2-.6c.3.3-.2 0-.3-.1q.2-.3.3 0m-.4 14q.2.4 0 .8c-.2-.2-.5-.9 0-.8m-.3 15.4q.4.2.1.6-.4 0-.1-.6m-.3-8.5v1zm.5 11.4c.4.2 1.3 1 0 1.4-1.6-.7-1.5-3 0-1.4m-1-4.3c-.7.2-1-.7-1.6-1 1-.4 1.1 0 1.6 1m-.6-8.5.2-.2q0 .3-.2.2m0-5c-.9.5-.6-1 0-.4.2.2-.3.2 0 .5m-.1-3.4c0 .5-.7 0-1 0 .3.1.8-.4 1 0m-.6 7.2c.2-.5-.3-.5-.5-.7.3-.6 1 1 .5.7m-.1 1.6c-.3 0 0-.4-.4-.7q.6.1.4.7m.3 3.7c.2.5 0 1.5-.6 1-.6-1 .7 0 .6-1m-1.3-21.1q.3 0 .4.2c-.1 0-.6 0-.4-.2m.5 16.6q-.2.4-.6.7c-.3-.4.4-.4.6-.7m-.6-19.2h-.5zm-.7 16.8q-.3.9-.8.1c.3 0 1.1-.6.8-.1m-.6-.5h-.2zm-.5-11.2q.1.2 0 .4c.6.7-.8-.3 0-.4m1 22.4c.8 2.5 1.6 3.2-1.3 2-.7-2 1.3.3 1.2-2m-1.4-22.7v.3zm0 22.4-.2-.2.1.2m0-4v.6c-.2-.3-.6-.6 0-.6m-.8 9.7c.5-.5 2.3-2.9.5-1.6 0-3.9 2.5 3.1-.5 1.6m-.2-14.7q.3.2.4.6-.6.2-.4-.6m0-14.1h.3q-.1.5-.3 0m.5 17.2-.1.1zm0-19.5q-.3.2-.6.1.1-.3.6-.1m-.5 17.4-.2-.5zm.3 5.3c-.2-.4-.5 0-.6-.3.4-.1 1.4.4.6.3m-.8-4.7q0-.6 0 0 .2 0 0 0m0-4.5-.4.3c-.2-.2.1-.6.5-.3m-.4-2.3q-.2-1 0-1.7c0 .7.3 1.2 0 1.7m0-9c.2 0 0 .8-.3 1 .2-.3 0-.9.3-1m-.7 15.9.3-.3q.2.5-.3.3m0-3.5q.5.4 0 .3m.2-13.1c-.1.5-.8-.4-.9-.4.3-.1.2.2.9.4m-1.4-1.3q.3 0 .5.3c-.3 0-1-.2-.5-.3m.3 11.2-.3.6c-.8-.4 0 0 .3-.6m-.1 1.4q0 .2-.1 0m-.2 8v-.2q.1 0 0 .2m0 3.4q.3.7-.1 1.4c-.5-.2-.4-1.5 0-1.4m-.5-22.4q.2.3-.1.3zm0 16-.3.1q0-.4.2 0m-.3-1.8c0-.3-.2-.8.1-.3zm-.1-12.6.2.2c-.1.3-.2-.2-.2-.3m.1 7.8h-.2zm.2 7.4v.6c-1 .2-.5-.5 0-.6m-.6-.4-.2-.4q.3 0 .2.4m-.1-.8c-.1.3-.2 0-.5.2q.1-.4.5-.2m-.3-.8c.4.2-1 .8-.5 0zm-.6-7.7V69q.2.5 0 .5m0-6.6h-.2zm-.4 5.2q.2-.3.2 0c-.4.2-.6-.2-.2 0m.3 9q0 .9-.5.4c-.2-.2.4-.3.5-.3M206 80q.3 0 .5-.4c.6.4-.2.6-.5.4m.3 7v-.4q.4.3 0 .5m-1 31.2c0-.4-.2-.6.2-.3q.3.5-.2.3m.4.7q.1.4-.4.6-.2-.7.4-.6m-.7-3.3q.2-.1.3.2zm-.4-2.8q.4 0 .5.3-.2 0-.5-.3m.4 14.9v-.3zm-.7-1.7q0 .3-.2.3zm-.3-3.8q0-.2.2-.3.1 1-.2.3m0-9.5.6.1zm-1-33c.5-.4 1.2.2 1.3.3-.3.4-1.4.6-1.4-.2m1 34v-.2zm-1.1 9.9q.4-.2.4-.7c.6.2.1 1.2-.4.7m.3 3.7-.3-.3q.4 0 .3.3m-.6-37.2c-.3-.2-.3.3-.5.3-.4-.5.2-.7.5-.3m-.4-15.7.2.2zm.4.4-.1.3zm-.2 32.6-.3.1q0-.4.3-.1m.1 4.5q0 .3-.2.2zm-.2-15.5c-.2-.3.3-.2.3-.5.7 0 .3.5-.3.5m.7 20.4v.5zm-.6 5.2v-.7c.9-.2.6.4 0 .7m.6.5.5-.3q-.1.3-.5.3m1.4-44.1q.2.5.5.3c.2 1.5-1.4.1-.5-.3m.7 2.8-.3.3q-.4-.5.3-.3m-1 5.8q.4-1.2.7-.1c0 .7-.5.7-.7.1m.6 3.6v-.2q.1 0 0 .2m-.2 3.2q-.7.1 0 0c-.3-1 0-.8 0 0m-.3-1.4v-.8c.2.3.6 1 0 .8m.6 29.5c.2.7 0 .4-.3.8zm0-24.5v-.3q.2.2 0 .3m-.4-.5c-.1-1-.5-2 .2-2.7.4 1.2 1.4 2.5-.2 2.7m1-8.8c-.1.7.5.9.3 1.5q-.7-.7-.4-1.5m.2 1.6q0 .2-.2 0zm0 18-.2.1q-.2-.2.1-.2m.3.6-.5-.4q.6-.1.5.4m-.2-17q0 .2 0 0m-.1-.5q.1-.8.5-1.8.1 1.1-.5 1.8m.3-15.3q.2-.4.6-.5 0 .6-.6.5m.6 4.1h-.3zm-.4.1q-.3 0-.2-.2zm-.2 2.5h.3q-.2.5-.3 0m.2 24.2-.1-.4q.6.2.1.4m.1.5q0 .3-.3.4 0-.3.3-.4m.4-43q-.4 0 0 0-.2 0 0 0m-.1 4q.1.3-.1.3zm0 1q0 .4-.2.5 0-.4.2-.5m0 1.6-.3.5q0-.4.3-.5m-.7-3 .1.5q-.3-.1 0-.5m.1.6q0 .2-.2.2zm0 10.6q0 .3-.3.4-.1-.8.4-.4m0 4.1-.5-.3q.3 0 .5.3m0 2.2c-.9-.4-.6.2-1 .6-1.4-.7 1.1-2.4 1-.6m-1.2-10c.2-.2-.6 0-.3-.4.6-1.4 1.6 1.3.3.4m0-6.2-.2-.4zm0 .3h-.3zm-.3 3.5q-.3.1-.6-.1zm-1 .4c1 .3.3.2 0 .6q.4 0 0 0zm.1 1.2c1-.7.4.3.5.7zM203 68l-.4-.2zm.3 1.4q-.8-.2-.8-1 .6.3.8 1m-.9-1c-.1.1-.2.4-.3 0q0-.2.3 0m-.2 3.6c-.2.1-.2-.2 0 0m.5 1c-.7-.2-.5 0-.8-.5q.5 0 .8.5m-.6.9v.3c-.1-.2-.4-.8 0-.3m-2 37.8c.2.3 3.2 1.7.7 2.9-3.4-1.1 1 .2-.7-3m.4 5.3q0-.2.2-.2zm0-8.4h-.2zm-.4-13.2.3.9q-.4-.4-.3-1m-.5-2.9q.4.4.9.6c0 .7-1-.2-.9-.6m.1.9v-.4s.2.5 0 .4m0 4.6q0 .4-.2.3zm.4 1.4c0 .5-.8.3-.8-.2q.6 0 .8.2m-.6 1.5h.2zm1.7 13.8q0 .5-.3.4 0-.3.3-.4m.5 0c.4.4-.2.5-.5.5zm.1-4.5c-.2 0-.3-.5-.3-.7.5-.2 0 .4.3.7m-.4-8.4q-.3-.5.3-.4 0 .3-.3.4m.3-16.7h-.2q0-.1.2 0m-.2-3.8q-.3 0-.4-.4.4 0 .4.4m-.8 27.3v-.6c0 .1.4.6 0 .6m0-1.2v-.5q.2.1 0 .5m-.2-35.8.2-.3c.3.2-.4.6-.2.3m-.6 6.3c.1.5-.6.8-.5.2.2-.3 1-.4.5-.2m-.3-1.6q-.2 0-.3-.3c.2 0 .6.1.3.3m-.4 11.6q-.3.2-.3 0zm-.4-4.2v.5q-.2-.4 0-.5m-.3-8.1v.2zm0 10q.2 0 0 0 0-.7 0 0m-.5 1.2c.9 0 .7 0 .3.6zm.6 29v-.3zm0-16.5q.4 0 .4.3-.3 0-.3-.3m.3-6h.2zm-.3 25.2.3.7c-.4-.1-.2-.3-.3-.7m.3 10.8v-.2zm.5-9c-.5 0-.8-.8-.3-1 0-.9.7.5.3 1m.4-1.7h.3c0 .2-.4.2-.3 0m.7.4c-.4-1.1.3-.5.8 0-.3.7-.5-.8-.8 0m.2 10.8.1-.4q.3.4 0 .4m.3 0q-.2-.5.4-.1zm.7-.3-.2-.3q.4 0 .2.3m0-3.5.1.2zm.3-11c.6 0 .6.7.5 1.2-.5-.4-1-.6-.5-1.2m0 5.3.8-.2c.7.8-1.2.7-.8.2m.2 6.8c-.4 0-.2-.6 0-.8zm-.2 0c.4 0 .2.5.5.8q-.6-.3-.5-.9m.8 2.2c1-.2.1.7.6.5.4 1-.9.2-.6-.5m.5 3c-.4-.2 0-.2.4-.2zm.3-6.3.1-.2zm-.4-34.3c-.3-.1.3-1.2.5-.8-.5.4.6.4-.5.8m.5 35.3q.3 0 .3.3-.2 0-.3-.3m.2 4.2c-.3-1 1.3.3.4-1 1.3.2.6 2-.4 1m.5-2.8c-.7-.8.8-.7 1.1-.6 0 .7-.7.9-1.1.6m1.1.1h.3zm.1-13.7.1-.3c.3-.2.1.3 0 .3m.4-5.4c-.4.4-.8-.6-1-.7q1.1-.7 1 .7m.2 6.7c0-.3-.4-1 .2-.6.2.6.8.9-.2.6m1.5-25.3c0 .9.1 1.6-.8.8-1.6 1 .2-.6.8-.8m-.6 12.4c.5.8.2 1.1 0 1.6-.3-.4 0-1.2 0-1.6m.8 21.6q0-.4.3 0-.2.4-.3 0m-.5-11q.3.2.8.2c.9-.1-1.2 1-.8-.1m1.4 9.7.3.1q-.2.5-.3-.1m.9-11.2c-1 .5-1 .5-1-.8.6-.4 1.6 0 1 .8m.5 4.9q-.1 0 0-.2zm0-1 .1.2q-.2.2 0-.2m0-9 .2.3q-.4 0-.1-.3m0-3.4c-.5-.4.8 0 .1.9 1.4.6-1.4.1-.1-1m.5 11.7q.5-.5.5.1-.4.5-.5 0" class="cls-6"/><path d="M237.7 77.8s3.2-18 23.2-19.1l-.9 74.6-22.3-.3z" class="cls-8"/><path d="m260 133.7-22.3-.3-.3-.4-.1-55.2v-.1a25 25 0 0 1 23.9-19.3v.3l-.8 74.6a.4.4 0 0 1-.4.4m-21.9-1 21.6.2.8-73.8a23.5 23.5 0 0 0-22.4 18.7z" class="cls-7"/><path d="m260 133.3 3.6-.2.7-74.2-3.4-.2z" class="cls-9"/><path d="M260 133.7a.4.4 0 0 1-.4-.4l1-74.6v-.3l.3-.1 3.4.2q.4 0 .4.4L264 133q0 .3-.4.4zm1.3-74.6-.9 73.8 2.9-.1.6-73.6z" class="cls-6"/><path d="m209.7 75.5-1.2-10.1 3.4 8.7 6.4-2.4-6 4.9.3 9.9-2.6-8.7-6.2 2.4zm11.1 46.9-3-6.4 4.6 4.4 6-3.2-4.6 5.4 2.1 5.2-3.6-3-5.2 3.3z" class="cls-4"/><circle cx="221.5" cy="87.1" r="1.4" class="cls-4"/><circle cx="227.8" cy="78.9" r="1.4" class="cls-4"/><circle cx="224.2" cy="67.1" r="2.3" class="cls-4"/><circle cx="205.9" cy="88.4" r="1.2" class="cls-4"/><circle cx="208.4" cy="126.4" r="1.2" class="cls-4"/><circle cx="231.7" cy="121.5" r="1.2" class="cls-4"/><path d="m267.6 107.8-1.7 1-17.5 10.8.2-1.3q-.1-2.5-2-3.8l15.4-9.2.2-.1-.7-.4-17-8.3a4.5 4.5 0 0 0 1.6-5l2.2 1.1 7.8 4q4.6 5.2 10.1 10.5z" class="cls-2"/><path d="M248.4 120a.4.4 0 0 1-.4-.5q.3-.6.2-1.2 0-2.2-1.9-3.5a.4.4 0 0 1 0-.6l15.1-9-17-8.4a.4.4 0 0 1-.1-.6 4 4 0 0 0 1.4-4.6.4.4 0 0 1 .6-.4l10 5v.1q5.1 5.6 10.1 10.5l1.4.7a.4.4 0 0 1 0 .6L248.6 120zm-1.2-5.5a5 5 0 0 1 1.7 4.3l18-11-.9-.3v-.1q-5.1-5-10.1-10.5l-9.3-4.7v.6a5 5 0 0 1-1.4 3.6l17.2 8.4a.4.4 0 0 1 0 .7l-.2.1z" class="cls-6"/><path d="m222.8 110.8 18 9-.3-1.5q.1-2.2 1.7-3.5l-16.4-8 14.7-10a4 4 0 0 1-2.3-4v-.6L222.6 103q2.3 1.2 2.4 4-.2 2.5-2 3.8" class="cls-2"/><path d="m240.7 120.1-18-9a.4.4 0 0 1 0-.6 4 4 0 0 0 1.9-3.5 4 4 0 0 0-2.1-3.7.4.4 0 0 1 0-.6L238 91.9q.3-.1.4 0 .3 0 .2.3v.6q.1 2.5 2 3.7a.4.4 0 0 1 .1.6l-14.1 9.6 15.8 7.7a.4.4 0 0 1 0 .7 4 4 0 0 0-1.3 4.5.4.4 0 0 1-.4.5m-17.1-9.4 16.6 8.4v-.8a5 5 0 0 1 1.3-3.4l-15.9-7.8a.4.4 0 0 1 0-.7l14.2-9.6a5 5 0 0 1-2-3.9l-14.6 10a5 5 0 0 1 2 4q0 2.5-1.6 3.8" class="cls-6"/><path d="M224.9 107c0 2.4-1.9 4.4-4 4.4s-4.1-2-4.1-4.4 1.8-4.4 4-4.4 4 2 4 4.4m17.3-18.6c-2.2 0-4 2-4 4.4s1.8 4.4 4 4.4 4-2 4-4.4-1.7-4.4-4-4.4m2.3 25.5c-2.2 0-4 2-4 4.4s1.8 4.5 4 4.5 4-2 4-4.5-1.7-4.4-4-4.4" class="cls-2"/><path d="M244.5 123.1c-2.4 0-4.4-2.1-4.4-4.8s2-4.7 4.4-4.7 4.5 2.1 4.5 4.7-2 4.8-4.5 4.8m0-8.8c-2 0-3.6 1.8-3.6 4s1.6 4 3.6 4 3.7-1.7 3.7-4-1.6-4-3.7-4m-23.7-2.5c-2.4 0-4.4-2.2-4.4-4.8s2-4.8 4.4-4.8 4.4 2.2 4.4 4.8-2 4.8-4.4 4.8m0-8.8c-2 0-3.7 1.8-3.7 4s1.7 4 3.7 4 3.7-1.8 3.7-4-1.7-4-3.7-4m21.4-5.4c-2.4 0-4.4-2.2-4.4-4.8s2-4.8 4.4-4.8 4.5 2.2 4.5 4.8-2 4.8-4.5 4.8m0-8.8c-2 0-3.6 1.8-3.6 4s1.6 4 3.6 4 3.7-1.8 3.7-4-1.6-4-3.7-4" class="cls-6"/><path d="m218.7 103.3-15.3-7.6v5.3l12.7 6.4-12.7 8.8v5.8l16-10.9a4 4 0 0 1-2.6-4.1q0-2.5 1.9-3.7" class="cls-2"/><path d="M203.4 122.4a.4.4 0 0 1-.4-.4v-5.8l.1-.3 12.3-8.4-12.2-6.2-.2-.3v-5.3a.4.4 0 0 1 .5-.3l15.3 7.5a.4.4 0 0 1 0 .7q-1.6 1.2-1.7 3.4a4 4 0 0 0 2.4 3.8.4.4 0 0 1 0 .6zm.3-6v5c4-2.9 9.5-6.5 15-10.2q-1.9-1.2-2.3-3.6v.1zm0-15.6 12.6 6.3v-.1a5 5 0 0 1 1.7-3.7l-14.3-7zm-62.2 127.4a.4.4 0 0 1 0-.7l145.2-3.6q.4 0 .4.4 0 .3-.4.3zm-.5-25.9a.4.4 0 0 1 0-.8l146.7-3q.3 0 .3.4 0 .3-.3.4zm-.4-26a.4.4 0 0 1 0-.7l148-2.4a.4.4 0 0 1 0 .7zm-.4-25.8a.4.4 0 0 1 0-.8l149.3-1.8a.4.4 0 0 1 0 .7zm123.5-26.9a.4.4 0 0 1 0-.7l26.8-.2q.3 0 .3.4t-.3.3zm-124 1.1a.4.4 0 0 1 0-.8l44.8-.4a.4.4 0 0 1 0 .8zm25.7-25.9a.4.4 0 0 1 0-.8h19a.4.4 0 0 1 0 .7zm33.4-25.6h-1.1a.4.4 0 0 1 0-.8h1a.4.4 0 0 1 0 .8" class="cls-6"/><path d="M309.4 94.3a105 105 0 0 1-16.7 14.5c-14.2 5.4-26.5-1.7-26.5-1.7q-7-7-12.6-13.3c-7.2-8-12-14.3-12-14.3 14.5-3 30.3-1.3 30.3-1.3s.4 5.9.3 9.2c4-5.1 9-11.6 14.4-17.5L275 40.8s5-4.4 8.2-6c0 0 4.8-.4 10 .4l11 13.6q1.5 2.9 2.5 5.5c2.9 6.7 4.4 11.9 4.4 11.9.2 13-1.7 28.1-1.7 28.1" class="cls-2"/><path d="M281.7 111.2a34 34 0 0 1-15.7-3.8A271 271 0 0 1 253.3 94c-7-8-11.9-14.2-12-14.3a.4.4 0 0 1 .3-.6c14.3-2.9 30.1-1.3 30.3-1.3q.3 0 .3.4s.4 4.7.4 8.1a260 260 0 0 1 13.6-16.5L274.6 41l.1-.4a50 50 0 0 1 8.5-6 42 42 0 0 1 10.2.5l11.1 13.6 2.6 5.6c2.8 6.6 4.3 11.8 4.3 11.9a227 227 0 0 1-1.7 28.4 105 105 0 0 1-16.9 14.7q-6 2.1-11.1 2m-15.3-4.4a33 33 0 0 0 26.1 1.7c.8-.6 12.5-9 16.5-14.3.2-1.4 2-15.7 1.7-28A124 124 0 0 0 304 49l-11-13.5c-4.6-.7-9-.3-9.6-.3-2.7 1.4-7 4.9-7.9 5.7L287 69.8v.3q-6.9 7.5-14.5 17.6a.4.4 0 0 1-.7-.3c.1-2.8-.2-7.6-.3-8.8-2.2-.3-16.2-1.4-29.2 1.1a307 307 0 0 0 24.1 27.1m43-12.5" class="cls-6"/><path d="m306.7 54.3-1 6.7-7.5-3.6-2.4 8.3-7-3-2.1 7.2L275 40.8s5-4.4 8.2-6c0 0 4.8-.4 10 .4l11 13.6q1.5 2.9 2.5 5.5" class="cls-5"/><path d="M286.7 70.3q-.3 0-.4-.3l-11.7-29 .1-.5a49 49 0 0 1 8.5-6s5-.5 10 .3l.2.2 11.1 13.6 2.6 5.8-1 6.7a.4.4 0 0 1-.6.3l-7-3.5-2.3 8a.4.4 0 0 1-.5.2l-6.7-3-2 6.9zm-11.3-29.4 11.2 27.8 1.8-6.2a.4.4 0 0 1 .5-.2l6.7 2.9 2.3-8a.4.4 0 0 1 .5-.2l7 3.5 1-6.1-2.5-5.4-11-13.5c-4.6-.7-9-.3-9.6-.3-2.7 1.4-7 4.9-7.9 5.7" class="cls-7"/><path d="M296.5 44s2.3 2.8 7.7 4.8l5.7-6.9s-6.7-.4-13.4 2.1" class="cls-1"/><path d="M304.2 49.2h-.1c-5.4-2-7.8-4.8-7.9-5a.4.4 0 0 1 .2-.5 37 37 0 0 1 13.6-2.2.4.4 0 0 1 .2.6l-5.7 7zm-7-5c.8.8 3 2.7 6.9 4.2l5-6.1a36 36 0 0 0-12 1.9" class="cls-7"/><path d="M307.5 32s-5-.3-7.2.6-3.8 2.6-3.8 2.6-1.3 2.8-.8 6.7c0 0 3.1-5.9 11.8-10" class="cls-1"/><path d="m295.7 42.3-.3-.4a14 14 0 0 1 .8-7c.1 0 1.7-1.6 4-2.6s7.1-.7 7.3-.7a.4.4 0 0 1 .1.7 26 26 0 0 0-11.5 9.8zm1.1-6.9c-.1.4-1 2.5-.8 5.3 1.2-1.7 4.2-5.4 10-8.4-1.6 0-4.1 0-5.5.7-2 .8-3.4 2.1-3.7 2.4" class="cls-7"/><path d="m307.5 32-1.5 2.9q-1.5 2.8-3.3 7.5a31 31 0 0 0-6.2 1.6l-.8-2.1s3.1-5.9 11.8-10" class="cls-5"/><path d="m296.5 44.4-.4-.2-.7-2.2v-.3c.1-.2 3.3-6 12-10a.4.4 0 0 1 .4.5l-1.5 2.9a89 89 0 0 0-3.5 7.7 30 30 0 0 0-6.3 1.6m-.3-2.5.5 1.7a30 30 0 0 1 5.8-1.5 89 89 0 0 1 4-9.3 26 26 0 0 0-10.3 9.1" class="cls-7"/><path d="M295.7 38.6q0-1.3.4-2.2c0-.1.2-1.2-2.1-1.5-1.4-.2-2 2.4-2.2 3.7s0 1.7 1.5 2.1 2.4-2.1 2.4-2.1" class="cls-3"/><path d="m293.6 41.2-.5-.1c-1.4-.5-2-1-1.6-2.6.2-1 .7-4.2 2.5-4q1.7.2 2.2 1t.2 1l-.4 2.2c0 .3-1 2.5-2.4 2.5m.3-6c-.5 0-1.2.5-1.7 3.4-.2 1.1 0 1.3 1.2 1.8.8.3 1.7-1.3 2-2q0-1 .3-2v-.5q-.2-.4-1.8-.7m1.8 3.4" class="cls-7"/><path d="m272.2 87.5-5.7 7.7-13-1.4c-7-8-11.9-14.3-11.9-14.3 14.5-3 30.3-1.3 30.3-1.3s.4 5.9.3 9.2" class="cls-5"/><path d="m266.5 95.6-13-1.5h-.2c-7-8-11.9-14.3-12-14.4a.4.4 0 0 1 .3-.6c14.3-2.9 30.1-1.3 30.3-1.3q.3 0 .3.4s.5 5.9.4 9.3l-.1.2-5.7 7.7zm-12.8-2.2 12.6 1.4 5.5-7.5c.1-2.9-.2-7.5-.3-8.7-2.2-.3-16.2-1.4-29.2 1.1 1.3 1.6 5.6 7 11.4 13.7m18.5-6" class="cls-7"/><path d="M297.7 34.1s-1-.9-2.3-1.1c-1.4-.3-1.4 1.9-1.4 1.9 2.3.3 2.1 1.4 2 1.5l.5-1.2z" class="cls-3"/><path d="M296.4 36.5h-.7v-.6q-.1-.4-1.8-.7l-.3-.3c0-.2 0-1.5.8-2q.4-.4 1-.3c1.4.3 2.5 1.2 2.6 1.3v.6l-1.2.9zm-2-2q1 .3 1.7.8V35h.1l1-.9q-.7-.4-2-.8l-.4.1q-.4.5-.4 1.2m-23.2 67.9h-.2s-4.2-2.5-6.6-4.4l-.1-.5s3-4.4 7.6-10.4a268 268 0 0 1 14.8-17.7l.3.2 4 10.2a123 123 0 0 1-2.4 14.3 110 110 0 0 1-17.4 8.3m-6-4.7c2 1.5 5.3 3.5 6 4 6-2 15.7-7.5 16.9-8.2 1-4 2-12.7 2.2-13.7l-3.8-9.3a270 270 0 0 0-21.4 27.2" class="cls-7"/><path d="M277.7 41.2c1.6-.8 7.4-1.6 9.2 3 2.3 5.6-1.7 9.8-6.2 10.1-1.4.1-5.6-.6-6.6-5.5s3.2-7.4 3.6-7.6" class="cls-1"/><path d="M280.4 54.7a7 7 0 0 1-6.7-5.8 7 7 0 0 1 3.9-8c1-.6 3.8-1 6.1-.2q2.5.9 3.6 3.4 1.4 3.9-.4 7a8 8 0 0 1-6.5 3.6M278 41.5c-.2.1-4.5 2.5-3.5 7.2a6 6 0 0 0 6.3 5.2 7 7 0 0 0 5.5-3.1 7 7 0 0 0 .4-6.4 5 5 0 0 0-3.1-3 8 8 0 0 0-5.6.1" class="cls-7"/><path d="M276.4 48c.6 1.4 2.6 1.2 3.3.3s.6-2.2-.3-3q-1.2-.7-2.5.3c-1.3 1-.8 1.7-.5 2.4m-16.6 41.6-.5-1.3-7.6-10.4-.6.4 7.7 10.4.6.6zm7.4-2.2-.1-1-3.5-8.8-.7.3 3.6 8.7q0 .3.4.6l.2.2m8.5 2.2-1 .7-7.7 9 .5.5 7.7-9 .4-.8zm5.7 2.1-1.2.7-9.2 9.4v.1l.5.4 9.2-9.4.5-.8z" class="cls-6"/><path d="m168.6 189.2 21.5 46.8 56-1.5 21.4-46.2-21.3-44-55.1.1z" class="cls-2"/><path d="m190.1 236.3-.3-.2-21.6-46.8v-.3l22.6-44.8.3-.2 55.1-.1q.3 0 .4.2l21.2 44v.4l-21.3 46.2-.4.2zM169 189.2l21.4 46.4 55.5-1.4 21.1-45.9-21-43.6h-54.7z" class="cls-6"/><path d="M218.2 233.3c-23.7 0-43-19.6-43-43.7s19.3-43.8 43-43.8 43 19.7 43 43.8-19.2 43.7-43 43.7m0-86.7c-23.3 0-42.3 19.3-42.3 43s19 43 42.3 43 42.3-19.3 42.3-43-19-43-42.3-43" class="cls-7"/><path d="M195.2 192.5q.5-.7.6-1.3l2.7-.6v-3.8l-2.7-.6q-.4-1.3-1.4-2.5l.9-2.7-3.1-2-1.9 2.2a7 7 0 0 0-2.7 0l-1.9-2.1-3.1 1.9.9 2.7a8 8 0 0 0-1.4 2.5l-2.7.6v3.8l2.7.6q.4 1.4 1.4 2.5l-1 2.8 3.2 1.8 1.9-2.1a7 7 0 0 0 2.7 0l1.9 2.1 3.1-1.8-.9-2.8zm-7.8-1a3.1 3.1 0 1 1 3.1-5.5 3.1 3.1 0 0 1-3.1 5.4" class="cls-4"/><path d="m192.2 198.7-.3-.1-1.7-2h-2.5l-1.7 2q-.2.2-.5 0l-3.1-1.8a.4.4 0 0 1-.2-.5l.8-2.5a8 8 0 0 1-1.2-2.3l-2.5-.5-.3-.4v-3.8q0-.3.3-.3l2.5-.6a8 8 0 0 1 1.2-2.3l-.8-2.5q0-.3.2-.5l3.1-1.8h.5l1.7 2h2.5l1.7-2h.5l3 1.8q.3.2.3.5l-.8 2.5a8 8 0 0 1 1.2 2.3l2.5.6q.3 0 .3.3v3.8q0 .3-.3.4l-2.5.5-.5 1.2-.7 1 .8 2.6q0 .3-.2.5l-3.1 1.9zm-9.2-2.4 2.6 1.6 1.7-2h3.3l1.7 2 2.6-1.6-.8-2.5v-.3l.8-1.2.6-1.2q0-.3.2-.3l2.5-.5V187l-2.5-.5-.2-.3q-.5-1.2-1.4-2.3v-.4l.8-2.5-2.6-1.5-1.7 1.9-.3.1q-1.4-.3-2.7 0l-.3-.1-1.7-2-2.6 1.6.8 2.5v.3a7 7 0 0 0-1.4 2.4q0 .3-.3.3l-2.4.5v3.2l2.4.5q.3 0 .3.3.5 1.3 1.3 2.4.2 0 .1.3zm6-4a3.5 3.5 0 0 1-3.4-2.7 3.5 3.5 0 0 1 2.4-4.3 3.5 3.5 0 0 1 4.3 2.5 3.5 3.5 0 0 1-2.4 4.3zm0-6.4a3 3 0 0 0-2.4 1.4 2.7 2.7 0 0 0 1 3.8 2.7 2.7 0 0 0 3.7-1 2.7 2.7 0 0 0-1-3.8q-.6-.3-1.4-.4" class="cls-6"/><path d="M254.5 192.2q.5-.7.6-1.3l2.8-.6v-3.8l-2.8-.6q-.5-1.5-1.4-2.5l.9-2.8-3.2-1.9-2 2.2q-1.5-.3-2.8 0l-2-2.2-3.1 2 .9 2.7a8 8 0 0 0-1.5 2.5l-2.8.6v3.8l2.8.6q.5 1.3 1.5 2.5l-1 2.7 3.3 2 1.9-2.2h2.8l2 2.1 3.2-1.9-1-2.7zm-8-1.1c-1.5-.9-2-2.8-1.2-4.3s2.8-2 4.3-1.1a3 3 0 0 1 1 4.2 3 3 0 0 1-4.1 1.2" class="cls-4"/><path d="M244.7 198.4h-.2l-3.2-2-.2-.4.8-2.5a8 8 0 0 1-1.3-2.3l-2.6-.6-.3-.3v-3.8q0-.3.3-.4l2.6-.5a8 8 0 0 1 1.3-2.3l-.8-2.6.2-.4 3.2-1.9.5.1 1.7 2h2.6l1.8-2q.2-.2.4 0l3.3 1.8q.2.1.1.4l-.8 2.6a8 8 0 0 1 1.3 2.3l2.6.5q.3 0 .3.4v3.8q0 .2-.3.3l-2.6.6a8 8 0 0 1-1.3 2.3l.8 2.5-.1.5-3.3 1.8h-.4l-1.8-2h-2.6l-1.7 2zm-2.8-2.4 2.7 1.5 1.7-1.9.4-.1a7 7 0 0 0 2.7 0l.3.1 1.7 2 2.7-1.6-.8-2.5.1-.4.8-1.1.6-1.3.2-.2 2.5-.5v-3.2l-2.5-.5-.2-.3q-.5-1.4-1.4-2.4v-.3l.7-2.5-2.7-1.6-1.7 2h-.3a7 7 0 0 0-2.7 0h-.4l-1.7-2-2.7 1.6.8 2.5v.3a7 7 0 0 0-1.4 2.4q0 .2-.3.3l-2.5.5v3.2l2.5.5.3.2q.4 1.4 1.3 2.4l.1.4zm6.1-4.1q-1 0-1.7-.5a3.5 3.5 0 0 1 .8-6.4q1.5-.3 2.6.3a3.5 3.5 0 0 1-.8 6.5zm0-6.3a3 3 0 0 0-2.3 1.4c-.8 1.3-.3 3 1 3.8q1 .5 2 .2t1.7-1.2c.7-1.4.3-3-1-3.8q-.7-.4-1.4-.4" class="cls-6"/><path d="m224.5 162.5.6-1.4 2.7-.6v-3.7l-2.7-.6q-.5-1.4-1.4-2.5l.8-2.7-3.1-2-1.9 2.2h-2.8l-1.9-2.1-3.2 1.9 1 2.7a8 8 0 0 0-1.5 2.5l-2.8.6v3.8l2.8.6q.5 1.4 1.4 2.5l-.9 2.8 3.2 1.8 1.9-2.2q1.5.3 2.8 0l1.9 2.2 3.1-2-.8-2.6zm-8-1.1c-1.4-.9-1.9-2.8-1-4.3s2.7-2 4.1-1.1c1.5.8 2 2.8 1.1 4.2s-2.7 2-4.1 1.2" class="cls-4"/><path d="M214.8 168.7h-.2l-3.1-2-.2-.4.8-2.5a8 8 0 0 1-1.3-2.3l-2.5-.5-.3-.4v-3.8q0-.2.3-.3l2.5-.6a8 8 0 0 1 1.3-2.3l-.8-2.5.1-.5 3.2-1.8h.5l1.7 2h2.6l1.7-2h.5l3.1 1.8q.3.2.2.5l-.8 2.5a8 8 0 0 1 1.2 2.3l2.6.5q.3 0 .3.4v3.7q0 .3-.3.4l-2.5.6-.6 1.1-.7 1.1.8 2.6-.2.4-3.1 1.9h-.5l-1.7-2h-2.6l-1.7 2zm-2.7-2.4 2.6 1.5 1.7-1.9.4-.1q1.2.2 2.6 0h.4l1.7 2 2.6-1.6-.8-2.4v-.4l.9-1.1.5-1.3.3-.2 2.4-.6v-3.1l-2.4-.5-.3-.3q-.4-1.3-1.3-2.4l-.1-.3.8-2.5-2.6-1.5-1.7 1.9-.4.1q-1.4-.3-2.6 0l-.4-.1-1.7-2-2.6 1.6.8 2.5v.4a7 7 0 0 0-1.4 2.4l-.3.2-2.5.5v3.2l2.5.5.3.3q.4 1.3 1.3 2.4v.3zm6-4.1q-1 0-1.7-.5a3.5 3.5 0 0 1-1.3-4.7q.8-1.3 2.1-1.7 1.5-.3 2.6.4c1.6 1 2.2 3 1.3 4.7a3 3 0 0 1-3 1.8m0-6.3-.7.1q-1 .3-1.6 1.3c-.7 1.3-.3 3 1 3.8q1 .5 2 .2t1.6-1.2c.7-1.4.3-3-1-3.8q-.6-.3-1.3-.4" class="cls-6"/><path d="M224.5 222.5q.5-.6.6-1.4l2.9-.6v-3.7l-2.9-.6q-.5-1.3-1.4-2.5l.9-2.7-3.3-1.8-2 2.2q-1.5-.3-2.9 0l-2-2.1-3.2 2 .9 2.7a8 8 0 0 0-1.5 2.5l-2.9.7v3.7l3 .6q.3 1.3 1.4 2.4l-1 2.8 3.4 1.8 2-2.2q1.5.3 2.9 0l2 2 3.2-1.9-1-2.7zm-8.2-1a3 3 0 0 1-1.1-4.2c.8-1.5 2.8-2 4.3-1.2a3 3 0 0 1 1.1 4.2 3 3 0 0 1-4.3 1.3" class="cls-4"/><path d="M214.5 228.9h-.2L211 227l-.2-.4.9-2.6q-.8-1-1.4-2.2l-2.6-.5-.3-.4v-3.7q0-.4.3-.4l2.6-.6a8 8 0 0 1 1.4-2.3l-.9-2.5q0-.3.2-.5l3.3-2 .5.1 1.8 2q1.2-.3 2.6 0l1.8-2q.2-.2.5-.2l3.3 1.9q.2 0 .1.4l-.8 2.6q.9 1 1.3 2.2l2.7.5q.2 0 .3.4v3.7q0 .3-.3.4l-2.7.6a8 8 0 0 1-1.3 2.3l.8 2.5q.1.3-.1.4l-3.3 2h-.5l-1.8-2a8 8 0 0 1-2.6 0l-1.8 2zm-2.9-2.4 2.8 1.5 1.8-2h.3q1.5.1 2.8-.1h.3l1.8 2 2.7-1.7-.8-2.4v-.4a8 8 0 0 0 1.5-2.4q0-.2.3-.2l2.5-.6v-3.1l-2.5-.5-.3-.3a7 7 0 0 0-1.4-2.3v-.4l.7-2.4-2.7-1.6-1.8 2q0 .2-.3.1h-3.1l-1.8-2-2.8 1.7.9 2.4-.1.4a8 8 0 0 0-1.4 2.4q0 .3-.3.3l-2.6.6v3.1l2.6.5.3.2a7 7 0 0 0 1.4 2.4v.4zm6.2-4.2q-.8 0-1.7-.4a3.5 3.5 0 0 1-1.3-4.8c1-1.6 3.2-2.3 4.9-1.3q1.3.7 1.6 2 .4 1.5-.3 2.7a4 4 0 0 1-3.2 1.8m.2-6.2q-1.6 0-2.5 1.4-.6 1-.3 2.1t1.3 1.6c1.3.8 3 .3 3.8-1q.6-1 .3-2.2-.4-1-1.3-1.6-.6-.3-1.3-.3" class="cls-6"/><circle cx="218.2" cy="188.9" r="3.8" class="cls-6"/><path d="M218.2 193a4.2 4.2 0 1 1 0-8.3 4.2 4.2 0 0 1 0 8.4m0-7.5a3.4 3.4 0 1 0 0 6.8 3.4 3.4 0 0 0 0-6.8" class="cls-6"/><path d="m218.1 189.7-6.6 8 3.4 2.7-13.5 4.7 3.7-13.6 2.8 3.1 9.2-6.5z" class="cls-6"/><path d="M201.4 205.5a.4.4 0 0 1-.3-.5l3.6-13.6a.4.4 0 0 1 .7-.1l2.6 2.8 8.8-6.3h.3l.3.1 1 1.6q.1.2 0 .4l-6.3 7.7 3 2.5a.4.4 0 0 1 0 .7l-13.5 4.7zm3.9-13.2-3.3 12.2 12.2-4.2-2.9-2.3a.4.4 0 0 1 0-.6l6.3-7.7-.6-1-8.9 6.3-.5-.1zm13.7-4.5 12.9-.7-.7-4.8 12.6 6.8-12.4 7 .4-4.7L219 190z" class="cls-6"/><path d="M231.4 196.4h-.2l-.2-.4.4-4.2-12.5-1.4-.3-.4v-2.2q0-.3.4-.3l12.5-.8-.7-4.4a.4.4 0 0 1 .6-.3l12.6 6.7a.4.4 0 0 1 0 .7l-12.4 7zm-12-6.8 12.4 1.5q.3 0 .4.4l-.4 3.9 11.3-6.3-11.4-6.1.6 4a.4.4 0 0 1-.4.5l-12.5.7zM204.8 165l-4.3-7.6m4.3 8-.4-.2-4.3-7.6a.4.4 0 0 1 .7-.4l4.3 7.6a.4.4 0 0 1-.3.6m31.1 54.5-4.1-7.2m4.2 7.5-.4-.1-4-7.3a.4.4 0 0 1 .6-.3l4 7.2a.4.4 0 0 1-.3.5m-41.2-45.3-7.2-4.3m7.2 4.6h-.2l-7.2-4.3a.4.4 0 1 1 .4-.6l7.2 4.2a.4.4 0 0 1-.2.7m54.2 31.5-7.2-4.2m7.3 4.5h-.3l-7.1-4.2a.4.4 0 1 1 .3-.7l7.2 4.3a.4.4 0 0 1-.2.6m-54.2-4.5-7.2 4.2m0 .3a.4.4 0 0 1-.2-.6l7.2-4.3a.4.4 0 1 1 .4.7l-7.2 4.2zm61.4-36.4-7.4 4.4m0 .3a.4.4 0 0 1-.1-.7l7.3-4.3a.4.4 0 1 1 .4.6l-7.4 4.4zm-36.9 37.4-4.1 7.2m0 .3h-.2a.4.4 0 0 1-.2-.5l4.1-7.2q.2-.3.6-.2.2.2.1.5l-4.1 7.3zm35.4-62.8-4.3 7.6m0 .4a.4.4 0 0 1-.2-.6l4.3-7.6q.2-.2.5-.1.3.2.2.5l-4.3 7.6z" class="cls-6"/><path d="m188.2 235.6-21.5-46.3 22.5-44.8 1.9-.1-22.5 44.8 21.5 46.8z" class="cls-6"/><path d="m190.1 236.3-2-.3-.2-.2-21.6-46.3v-.4l22.5-44.8.4-.2h1.9l.3.1v.4L169 189.2l21.5 46.6a.4.4 0 0 1-.4.5m-1.6-1 1 .2-21.3-46.2v-.3l22.3-44.2h-1L167 189.4zm111.3-194 .8 1.5-4.1 1.2-.8-2.1s3.1-5.9 11.8-10c-.3.4-4.8 5-7.7 9.4m-51.2 11.9h-9.8a.4.4 0 0 1 0-.8h9.8a.4.4 0 0 1 0 .8m-40.9 0h-9a.4.4 0 0 1 0-.8h9a.4.4 0 0 1 0 .8m12.4 0-.3-.4V29.5a.4.4 0 0 1 .7 0v23.3q0 .4-.4.4" class="cls-6"/><path d="M227.8 53.2a.4.4 0 0 1-.4-.4l-.2-23.3q0-.3.3-.3.4 0 .4.3l.3 23.3q0 .4-.4.4m7.6 0-.3-.4V38.3a.4.4 0 0 1 .7 0v14.5q0 .4-.4.4m-22.7 0a.4.4 0 0 1-.4-.4V37.5a.4.4 0 0 1 .7 0v15.3q0 .4-.3.4m-6.3 0a.4.4 0 0 1-.4-.4V44a.4.4 0 0 1 .8 0v8.7q0 .4-.4.4" class="cls-6"/><path d="M242.2 52.8v-7.1" class="cls-9"/><path d="m242.2 53.2-.3-.4v-7q0-.5.3-.5t.4.4v7q0 .5-.4.5m-8.9 1.1h-26.2L142.3 125l-34.8-.6-.1-2.7 36.2.3 64.1-69.2h24.2z" class="cls-6"/><path d="m142.3 125.3-34.8-.5a.4.4 0 0 1-.4-.4v-3l.3-.1 36 .3 64-69 .3-.2h24.2l.3.1 1.4 1.6a.4.4 0 0 1-.3.6h-26l-64.8 70.5zm-34.4-1.3 34.2.6L187.5 75 144 122.2l-.3.1-35.8-.3zM207 54h25.4l-.8-.8h-23.9z" class="cls-6"/><path d="M198 78.1s.3-17.8-8.4-19v75l8.4-.8z" class="cls-9"/><path d="M189.6 134.5a.4.4 0 0 1-.4-.4V59a.4.4 0 0 1 .4-.4c9 1.3 8.8 18.7 8.8 19.4v55.2q0 .3-.4.4zm.3-75v74.2l7.7-.7V78c0-.1.2-16.9-7.7-18.5m8.1 73.8" class="cls-6"/><path d="m184.5 123.7.1 10.2 5 .2v-75l-5.1.4z" class="cls-8"/><path d="m189.6 134.5-5-.2a.4.4 0 0 1-.4-.4v-10.2l-.1-64.2q0-.3.3-.4l5.1-.4.3.1.1.3v75zm-4.7-1 4.3.2V59.5l-4.4.3z" class="cls-7"/><path d="m198 133.3-8.4.8-5-.2-.1-10.2V67.3l-2.7 2.9-.1 10.7-1.9 2v53.9l7.2.1 6.9-.5z" class="cls-6"/><path d="M187 137.2h-7.2a.4.4 0 0 1-.4-.4v-54l.1-.2 1.8-1.9.1-10.5.1-.3 2.7-2.8.3-.1h.3v.4l.1 66.2 4.7.1 8.4-.8.4.3-.2.4-4 3-.3.1zm-6.8-.8h6.8l6.8-.4 3-2.2-7.2.7-5-.2a.4.4 0 0 1-.4-.4V68.3l-2 2L182 81v.2l-1.8 2zm87.4-28.6-1.7 1-3.9-3.5-.5-.5-13.2-12.2 7.8 4q4.6 5.2 10.1 10.5z" class="cls-6"/><path d="m265.9 109.3-.3-.1L248 92.9a.4.4 0 0 1 .5-.6l7.8 4q5.1 5.6 10.1 10.5l1.4.7a.4.4 0 0 1 0 .6l-1.7 1.1zm-15.4-15.1 15.4 14.2 1-.5-.9-.4v-.1q-5.1-5-10.1-10.5z" class="cls-7"/><path d="m265.5 98.5-.9 1s3.8 2.6 6 3.5c0 0 3-.8 8-3.2 4.7-2.3 9.3-5 9.3-5l.5-1s-10.7 6.3-17.2 8.3c0 0-3.3-1.9-5.7-3.6" class="cls-6"/><path d="M270.5 103.4h-.1c-2.2-1-5.8-3.4-6-3.5v-.5l.8-1.1q.3-.3.5-.1l5.5 3.5c6.5-2 17-8 17-8.1a.4.4 0 0 1 .5.5l-.5.9-.1.1s-4.7 2.8-9.4 5a53 53 0 0 1-8.2 3.3m-5.3-3.9 5.3 3.1.5-.2-5.4-3.4zM119.7 88.8a.4.4 0 0 1 0-.8l47.4-2.7q.3 0 .4.4 0 .3-.3.4zM133 75.6a.4.4 0 0 1 0-.7l47.5-3.7q.3 0 .4.3 0 .4-.4.4zm13.5-13.3a.4.4 0 0 1 0-.8l48.7-6q.3 0 .4.3 0 .4-.3.5zm13.8-13.8a.4.4 0 0 1 0-.7l50.3-8.6q.3 0 .4.3 0 .4-.3.4zm-53.5 53a.4.4 0 0 1 0-.7l47.2-1.6q.4 0 .4.4 0 .3-.3.4zm87.4-60.3a.4.4 0 0 1-.3-.6l10.9-11.5a.4.4 0 1 1 .5.5l-10.8 11.5z" class="cls-7"/><path d="M165.8 71a.4.4 0 0 1-.2-.6l12-12.6q.3-.3.5 0t0 .5l-12 12.7zm-25.6 27a.4.4 0 0 1-.3-.6l10.5-11a.4.4 0 1 1 .6.5l-10.5 11zm36.9-53.8h-.3a.4.4 0 0 1 0-.6l10.8-11a.4.4 0 0 1 .5.6l-10.7 11zm-27.9 28.4h-.2a.4.4 0 0 1 0-.6l12-12.2a.4.4 0 1 1 .4.5l-11.9 12.2zm-25.7 26.2-.3-.1v-.5L134 87.3a.4.4 0 1 1 .5.5l-10.6 10.9z" class="cls-7"/><path d="m173 46 4.1-2.1.6 1.2z" class="cls-7"/><path d="M173 46.4a.4.4 0 0 1-.1-.7l4-2.2a.4.4 0 0 1 .5.2l.6 1.3a.4.4 0 0 1-.3.5zm4-2-1.6.8 1.7-.4zm17.1-3.5.3 1.4-4.4.8z" class="cls-7"/><path d="M190 43.5a.4.4 0 0 1-.1-.7l4.1-2.3a.4.4 0 0 1 .5.3l.4 1.4v.3l-.3.2zm4-2-1.7.8 1.8-.3zM162.5 46l.3 1.7-2.5.5z" class="cls-7"/><path d="M160.3 48.5a.4.4 0 0 1-.2-.6l2.2-2.2a.4.4 0 0 1 .6.2l.3 1.8q0 .4-.3.4zm2-1.7-.9.8 1-.2zm45.6-6.8 4.8-2.5-2 2.1z" class="cls-7"/><path d="M207.9 40.4a.4.4 0 0 1-.2-.7l4.8-2.6a.4.4 0 0 1 .4.6l-2 2.1-.2.1zm2.9-1.5-.7.4h.4zm-81.2 61.5-13.9 14.4m0 .4a.4.4 0 0 1-.3-.6l14-14.4a.4.4 0 0 1 .5.5l-14 14.4zm40-41.7-11.3 11.7m0 .3a.4.4 0 0 1-.3-.6l11.3-11.7a.4.4 0 0 1 .6.5l-11.3 11.7zm39.7-41.4-12.7 13.1m0 .4a.4.4 0 0 1-.2-.6l12.7-13.2h.5q.3.3 0 .6l-12.7 13q0 .3-.3.2m16.9-2.7 13-13.7m-13 14.1h-.2a.4.4 0 0 1 0-.6l13-13.8h.5v.5l-13 13.8zM161 83.8l11-11.6m-11 12-.2-.1v-.5l11-11.6a.4.4 0 1 1 .5.5l-11 11.6zm-27.3 28.6 12.2-12.9m-12.2 13.2h-.2a.4.4 0 0 1 0-.6l12.1-12.9a.4.4 0 1 1 .6.5l-12.2 13zm-1.9 1.7 1.9-2" class="cls-7"/><path d="m131.8 115.2-.3-.1v-.5l2-2a.4.4 0 1 1 .5.4l-2 2q0 .3-.2.2m-17.6-14.3-13.7 13.9m0 .4-.3-.1v-.5l13.7-14a.4.4 0 1 1 .5.6L100.7 115zm39.4-40.5-11.2 11.4m0 .4-.3-.1a.4.4 0 0 1 0-.6l11.2-11.4a.4.4 0 1 1 .6.6L129 86.4zM167.1 47l-12 12.3m-.1.3h-.2a.4.4 0 0 1 0-.6l12-12.3a.4.4 0 1 1 .6.6l-12 12.2zm16.8-.8-.4-1.6-3.6 2.1z" class="cls-7"/><path d="M167.8 59.6a.4.4 0 0 1-.2-.7l3.7-2h.3l.2.2.4 1.6a.4.4 0 0 1-.4.4zm3.4-1.8-1.6.9 1.7-.2zm17.1-2.9-3.8 2.3 3.8-.5z" class="cls-7"/><path d="M184.5 57.6a.4.4 0 0 1-.2-.7l3.8-2.3a.4.4 0 0 1 .6.3v1.8q0 .4-.3.4zm3.4-2-1.7 1 1.8-.2zm-32 5.1-.8-1.4-3.8 2z" class="cls-7"/><path d="M151.3 61.7a.4.4 0 0 1-.1-.7l3.7-2h.5l.8 1.5a.4.4 0 0 1-.2.6zm3.6-2-1.6 1 2-.3zM162 73l3.8-2.3v2z" class="cls-7"/><path d="M162 73.4a.4.4 0 0 1-.2-.7l3.9-2.3h.3l.2.3v2q0 .4-.3.4zm3.5-2-2 1h2zm13.1.3 3.6-2-1.7 1.9z" class="cls-7"/><path d="M178.6 72a.4.4 0 0 1-.1-.6l3.5-2a.4.4 0 0 1 .5.6l-1.7 1.8-.3.1zm-29.5 2 .1-1.8-3.7 2.1z" class="cls-7"/><path d="M145.5 74.6a.4.4 0 0 1-.2-.7l3.8-2h.3q.2.1.2.4l-.1 1.7q0 .3-.3.4zm3.3-1.7-1.6.9 1.6-.2zm-13.6 2.2.3-2.4-2.5 2.5z" class="cls-7"/><path d="M133 75.6a.4.4 0 0 1-.3-.6l2.5-2.6h.5l.2.4-.3 2.3q0 .3-.3.3zm2-1.9-1 1h.9zm-9.9 14.4 3.6-2v1.8z" class="cls-7"/><path d="M125 88.5a.4.4 0 0 1-.1-.7l3.6-2h.4l.2.3V88q0 .3-.4.4zm3.3-1.8-1.6 1 1.6-.2zm12.4.5 3.7-2-.4 1.8z" class="cls-7"/><path d="M140.7 87.6a.4.4 0 0 1-.2-.7l3.7-2a.4.4 0 0 1 .6.3l-.4 1.9q0 .3-.4.3zm3.2-1.7-1.6.8h1.4zm12.5.4 4.6-2.5-.4 2.3z" class="cls-7"/><path d="M156.4 86.7a.4.4 0 0 1-.1-.7l4.6-2.5h.4l.1.4-.4 2.3q0 .2-.4.3zm4.1-2.2-2.4 1.4 2.2-.2zm-8.6 15.2 3.6-1.7-1.5 1.6z" class="cls-7"/><path d="M151.9 100a.4.4 0 0 1-.2-.7l3.7-1.6a.4.4 0 0 1 .4.6l-1.5 1.6h-.2zm2-.9-.2.1zm-13.9.9.2-2.4-4.1 2.5z" class="cls-7"/><path d="M136 100.6a.4.4 0 0 1-.1-.7l4.1-2.5a.4.4 0 0 1 .6.3l-.3 2.4q0 .3-.3.3zm3.8-2.2-2.3 1.4 2.1-.1zm-16.3 2.2v-2.2l-3.8 2.2z" class="cls-7"/><path d="M123.5 101h-3.8a.4.4 0 0 1-.2-.7l3.8-2.2a.4.4 0 0 1 .6.3v2.2q0 .4-.4.4m-2.4-.8h2v-1.1zm-12.8.9.6-2-2.1 2z" class="cls-7"/><path d="M106.8 101.5a.4.4 0 0 1-.3-.6l2-2.1a.4.4 0 0 1 .7.4l-.6 2-.3.3zm1.3-1.1-.4.3h.3zm-9.9 14.4 4.3-2v2z" class="cls-7"/><path d="M102.5 115.2h-4.3a.4.4 0 0 1-.1-.7l4.2-2a.4.4 0 0 1 .6.3v2q0 .3-.4.4m-2.6-.8h2.2v-1zm14.4.4 3.2-1.8.3 1.8z" class="cls-7"/><path d="M117.8 115.2h-3.5a.4.4 0 0 1-.2-.7l3.2-1.8h.3l.2.2.4 1.8a.4.4 0 0 1-.4.5m-2.1-.8h1.7l-.2-.8zm13.9.4 4.1-2v2z" class="cls-7"/><path d="M133.7 115.2h-4.1a.4.4 0 0 1-.2-.7l4.1-2q.3-.1.4 0 .2 0 .2.3v2q0 .3-.4.4m-2.5-.8h2.1v-1z" class="cls-7"/><path d="m141.9 252.9-56.2-6.1h26.2z" class="cls-6"/><path d="m141.9 253.3-56.3-6a.4.4 0 0 1 0-.8H112l30 6a.4.4 0 0 1 0 .8m-49.3-6 41.3 4.4-22.1-4.5z" class="cls-6"/></svg>