<svg viewBox="0 0 432 234" fill="none" xmlns="http://www.w3.org/2000/svg"><path d="M14.7.7 4.3 233.9l421.5-28.7-27.1-176.4L14.7.7Z" fill="#FCA9CB"/><path d="m220.2 204.2-26.2-19v-12.4l26.2 19v12.4Z" fill="#B39ED3" stroke="#3F2B56" stroke-linecap="round" stroke-linejoin="round"/><path d="m205.8 103.5 4-5 8.8 7.3-4 5-8.8-7.3Z" fill="#fff"/><path d="m205.8 103.5 4-5 8.8 7.3-4 5-8.8-7.3Z" stroke="#3F2B56" stroke-linecap="round" stroke-linejoin="round"/><path d="m215.1 103.8 1.5-1.8 1.7 1.4-1.4 1.8" fill="#fff"/><path d="m215.5 103.3 1.2-1.4 1.7 1.4-1.1 1.4" stroke="#3F2B56" stroke-linecap="round" stroke-linejoin="round"/><path d="m211.8 100.9 1.4-1.8 1.8 1.4-1.5 1.8" fill="#fff"/><path d="m212.2 100.4 1.1-1.4 1.8 1.5-1.2 1.3" stroke="#3F2B56" stroke-linecap="round" stroke-linejoin="round"/><path d="M200.3 88.3h-9.6v13.8h9.6V88.3Z" fill="#5E468C"/><path d="m215 95.7-21-14.9S178.2 95 178.1 95.5L159 131.9l-20.7-31.1-1 2.8 21.3 40.3 4-.3 26.8-37.5 2.4 2.2 10.4-1.3 3 1.4 2.2-2.9-5.3-5.4 3.3-2.1-1-2.8 7.5 4.9 3-4.4Zm-18.9 4-2.9-7 4.4.2 2 2.9-3.5 3.8Z" fill="#B39ED3"/><path d="m159.1 145.5-44.6-88s-.3-1-2.2-1c-1.7 0-2.3.9-2.3.9L83 92.4s3.1 1.3 5.8 4.3c2 2.2 3 5.3 3 5.3l-15.7-.4-18.6 22.3s4.5 1.4 6.9 2.6c3.2 1.7 6 3.7 7 5l-17.2.1c-.7.4-13 14.2-13 14.2l118-.3Z" fill="#5E468C"/><path d="M67.8 145.8s-24.7.4-24.8 0c-.1-.3 13.6-14.5 13.6-14.5l19.4.9-8.2 13.6ZM91.7 102.2c0-.2-15.7-.6-15.7-.6l-19.8 24.1 22.7-.2s13-23 12.8-23.3ZM116.6 60.4l-2.4-3.9h-4.4l-27 36 13.5-.8 17-30.5 3.3-.8Z" fill="#B39ED3"/><path d="M152.3 145.5h9.8l-47-87s0-.5-1.5-.5-1.7.6-1.7.6L97.2 89.8l-1 1.8v.2c1.5 1 16.3 11 24 25.2 11.5 21.7 11.5 28.6 11.5 28.6h7.9c-.2-5.7-7.6-24.4-13.8-34.6a83 83 0 0 0-19.6-22l7.8-17.9 38.3 74.4ZM91.7 102.2 79 125.5s7.2 4.2 12 10.1c4.1 5.2 4 10 4 10h9.5s0-10.9-15.2-22.8l4.1-8.1s4.2-.1 13 12.6c6 8.9 7.3 18 7.4 18.3h9s-1.2-10.5-11-25.5c-8.9-13.8-20-17.9-20-17.9ZM76 132.2c-.3.3-8 13-8.2 13.6h10.4l4.7-8.3-6.9-5.3Z" fill="#B39ED3"/><path d="M104.4 145.7c0-.4.4-10.8-15.1-22.9l4-8s14.7 6.7 20.4 30.9" stroke="#3F2B56" stroke-linecap="round" stroke-linejoin="round"/><path d="M95 145.7s1-7.9-15.8-20l12.6-23.4s13.9 6 22.5 21.7a71.4 71.4 0 0 1 8.4 21.5M131.3 145.9c-6-34-35-54.1-35-54.1l15.5-33.3" stroke="#3F2B56" stroke-linecap="round" stroke-linejoin="round"/><path d="M151.6 145.5S114.2 70.9 114 70.8c-.5 0-7.8 18.3-7.8 18.3s13.2 11.1 21.5 25a114.5 114.5 0 0 1 12 31.9M78.1 146c.1-.4 4.8-8.6 4.8-8.6l-7-5.4-8.1 13.8M75.8 132l-17.6-.3M96.4 92H83.6M79.1 126H63.8" stroke="#3F2B56" stroke-linecap="round" stroke-linejoin="round"/><path d="M60.5 120.2c0-.2 15.6-18.4 15.6-18.4l15.6.4s-3-8.3-8.6-10.1c4.3-5.4 25.5-33.4 25.5-33.4s1.6-2.6 3.7-2.5c2.6.2 3.4 2.8 3.4 2.8l46.3 86.3M184.8 101.7l7.2 6.6 10.3-1.4 3 1.4 2.2-2.6s-4.4-5-4.9-5.2c-.4-.4-6.4-.5-6.4-.5l-2.9-7M202.8 99.6c.3-.4 2.9-2.3 2.9-2.3" stroke="#3F2B56" stroke-linecap="round" stroke-linejoin="round"/><path d="m197.8 93.2 1.9 2.6-3.5 3.4" stroke="#3F2B56" stroke-linecap="round" stroke-linejoin="round"/><path d="M141.2 106.2s18 26.1 18 25.7c0-.5 17.5-34.6 17.5-34.6l16.5-15.8h1.2l20.2 14.4-2.7 4.2-15.6-9M188.4 107l-25.1 35.7" stroke="#3F2B56" stroke-linecap="round" stroke-linejoin="round"/><path d="m219.3 169-5.5-5.1v-5l5.5 4v6Z" fill="#DAC5F9"/><path d="M194 172.8H58.4v12.4H194v-12.4Z" fill="#B39ED3" stroke="#3F2B56" stroke-linecap="round" stroke-linejoin="round"/><path d="m213.3 163.5 6 5.2M219.2 162.8l-5.7-4.2M219.5 161.3V160h2.2v1.3" stroke="#3F2B56" stroke-linecap="round" stroke-linejoin="round"/><path d="m167.3 178.8 5.1-3.2 4.3 5 .5-1.1 1.7.5.1-3 6.5.2-.4 3.6 2.4-.8 1.5 1.5 3-3.7 3.6 2.7-2.2 3.6 4.6 1.5.8-3 4.7.7v3.9l2.5 1.1 2.4-2.1 3.8 2.8-2.7 2.9-22.7-.2-19.5-13Z" fill="#E1557A"/><path d="M178.9 180.3v-3.4l6.4.1v3.7M188.3 183l3.8-4.9 3.8 2.5-3.5 4.5M188.2 190.4l.2-3.2 6 .5-.1 3.4M178.8 183.7l3-2.2 3.5 3-2.5 2.2M197.6 188.4l1.3-5.8 5 1-.8 5.1M204.6 190.2l3.7-4 3.8 2.9-1.7 1.9M168.6 178l4-2.3 3.8 4.7" stroke="#3A254F" stroke-linecap="round" stroke-linejoin="round"/><path d="m189.7 204.5-26.2-19V173l26.2 19v12.4Z" fill="#B39ED3" stroke="#3F2B56" stroke-linecap="round" stroke-linejoin="round"/><path d="m140.3 183.4-3-5.5 5.4-2 2.6 4.2h2.2l.2-3.9 7.9-.5.8 3.9 4.4-2.6 3.2 5.3-1.4 1 1.4.4 1.3 2 .4-3.6h4.8l.2 6 1 .5 2.7-3.1 3.4 2.8-2.6 3.5h-24.8l-10-8.4Z" fill="#FCA9CB"/><path d="M139.5 181.7 137 178l5.7-1.7 2.5 3.7M144 185.1l3.5-2.6 4 3.8-3.3 2.3M148 179.2l-.4-2.7 8.1-.8.5 3M153.8 181.6l7-4.2 3.3 4.8-5.6 2.8M165.7 187.4V182l4.9.1v5.7M158.4 190.5l-.4-3.7 5.2-.5.4 4" stroke="#3F2B56" stroke-linecap="round" stroke-linejoin="round"/><path d="m171.5 188.6 2.8-3 3.9 3-3 3" stroke="#3A254F" stroke-linecap="round" stroke-linejoin="round"/><path d="m154.9 204.2-26.2-19v-12.4l26.2 19v12.4Z" fill="#B39ED3" stroke="#3F2B56" stroke-linecap="round" stroke-linejoin="round"/><path d="M102 181.7v-4.6l5.6-.1.3 3.3 2.6.2 3.3-4.3 4.4 2-.6 3h2.6l.3-4.6 4-.5 2.7 7.4 3-2.4 4.4 3-2.6 3.4 1.6 1.2 5.5-1.5.6 4.7-25.7-.8-12-9.4Z" fill="#fff"/><path d="M102 180.3v-3.2l5.6-.1.3 3.3 2.6.2 3.3-4.3 4.4 2-2.3 5M121.4 181.5l-1-5 4.1-.4 1.5 4.7M127.3 183.9l2.9-2.8 4.4 3-3 3.4M117.7 189.3l-2.8-3.2 4.3-2.2 5.2 5M132.8 188.8l6.3-1.6.5 4.3" stroke="#3F2B56" stroke-linecap="round" stroke-linejoin="round"/><path d="m119.8 204.2-26.2-19v-12.4l26.2 19v12.4Z" fill="#B39ED3" stroke="#3F2B56" stroke-linecap="round" stroke-linejoin="round"/><path d="m69 180.6 15.8 11.5 18.3.2-.6-1.9 3.3-2.8-4-3.5-3 2.5L95 184l-.2-4.8-5.6-.4v4.2l-2.4-2.7-3.2.3-.1-4.6H78l-.1 4.1-2.8.2-3-3.4-3.9 2.1.7 1.6Z" fill="#DAC5F9"/><path d="m69.5 181.7-1.6-2.5 4.3-2.3 2.8 3.5M77.8 181l.3-5h5.4v4.6M89.2 184v-5.2l5.6.4.2 5.1M84.7 189.8l-3-2.8 3.3-2.7 5.3 4.8M97.5 187.2l4.3-3.1 4 3.5-5 3.9" stroke="#3A254F" stroke-linecap="round" stroke-linejoin="round"/><path d="m84.6 204.2-26.2-19v-12.4l26.2 19v12.4Z" fill="#B39ED3" stroke="#3F2B56" stroke-linecap="round" stroke-linejoin="round"/><path d="M220.4 191.9H84.8v12.3h135.6V192Z" fill="#DAC5F9" stroke="#3F2B56" stroke-linecap="round" stroke-linejoin="round"/><path d="M431.3 146H.7" stroke="#3F2B56" stroke-linecap="round" stroke-linejoin="round"/><path d="m96 156 16 7.9-.5 4-12.5-4.3-3-7.6Z" fill="#B39ED3"/><path d="M74.5 107.8s-46.3 41.8-46.2 42.3c.2.4.8 4 .8 4l52.7 15 .8 3.1h4.8l.3-2.9 2.7 2.7h6l-2.1-4.8 5.5 5s6.6.2 6.5 0c0-.3-6.1-8.4-6.1-8.4l-4-7.7-53.9-8.3 36-38-3.8-2Z" fill="#B39ED3"/><path d="m74.6 107.8-46.5 42.8 1 3.6 52.8 14.9.9 3.6" stroke="#3F2B56" stroke-linecap="round" stroke-linejoin="round"/><path d="M78.5 109.9 42 147.8l55.5 8.4M100.1 163.8l11.6 4 .5-4-14.6-7.5M87.4 172.2l.8-3.7 2.4 3.5M106.6 172.6 100 164M96.3 172.4l-1.8-5.4 5.1 5.1" stroke="#3F2B56" stroke-linecap="round" stroke-linejoin="round"/><path d="M251.4 73.4v-6l7-2.5v8.5h-7Z" fill="#DAC5F9"/><path d="M241.2 73.2V71h2.2v2.2" fill="#fff"/><path d="M241.2 72.6v-1.8h2.2v1.8" stroke="#3F2B56" stroke-linecap="round" stroke-linejoin="round"/><path d="M235.2 73.2V71h2.3v2.2" fill="#fff"/><path d="M235.2 72.6v-1.8h2.3v1.8" stroke="#3F2B56" stroke-linecap="round" stroke-linejoin="round"/><path d="M229.8 75v-2.3h2.3v2.2" fill="#fff"/><path d="M229.9 74.3v-1.8h2.2v1.8" stroke="#3F2B56" stroke-linecap="round" stroke-linejoin="round"/><path d="m247 73.2.1-2.2h2.2v2.2" fill="#fff"/><path d="M247.1 72.6v-1.8h2.3v1.8" stroke="#3F2B56" stroke-linecap="round" stroke-linejoin="round"/><path d="M253 73.2V71h2.3v2.2" fill="#fff"/><path d="M253 72.6v-1.8h2.3v1.8" stroke="#3F2B56" stroke-linecap="round" stroke-linejoin="round"/><path d="M341.9 73.2V71h2.3v2.2" fill="#fff"/><path d="M342 72.6v-1.8h2.2v1.8" stroke="#3F2B56" stroke-linecap="round" stroke-linejoin="round"/><path d="M347.8 73.2V71h2.3v2.2" fill="#fff"/><path d="M347.8 72.6v-1.8h2.3v1.8" stroke="#3F2B56" stroke-linecap="round" stroke-linejoin="round"/><path d="m213.8 158.8 17.5-1 5 4.7-18.7.4-3.8-4Z" fill="#fff"/><path d="m233 162.5-4.8-3.7V75.3l4.9-2v89.2Z" fill="#DAC5F9"/><path d="M337.6 73.4V65h-79.8v8.4h-25v89.3l-14 .3v5.8h136.5V73.4h-17.7Z" fill="#fff"/><path d="M252.4 128h-5v23.7h5v-23.6Z" fill="#FCA9CB" stroke="#DAC5F9" stroke-linecap="round" stroke-linejoin="round"/><path d="M257.5 107.8h-4.9v44h5v-44Z" fill="#E1557A" stroke="#DAC5F9" stroke-linecap="round" stroke-linejoin="round"/><path d="M262.6 139h-4.9v12.7h5V139Z" fill="#FCA9CB" stroke="#DAC5F9" stroke-linecap="round" stroke-linejoin="round"/><path d="M297.4 139h-5v12.7h5V139ZM337.3 139h-5v12.7h5V139ZM267.6 132.5h-5v19.2h5v-19.2Z" fill="#E1557A" stroke="#DAC5F9" stroke-linecap="round" stroke-linejoin="round"/><path d="M292.4 132.5h-5v19.2h5v-19.2ZM302.4 125.3h-5v26.4h5v-26.4Z" fill="#FCA9CB" stroke="#DAC5F9" stroke-linecap="round" stroke-linejoin="round"/><path d="M312.4 116h-4.9v35.7h5V116Z" fill="#E1557A" stroke="#DAC5F9" stroke-linecap="round" stroke-linejoin="round"/><path d="M317.5 98.9h-5v52.8h5V99ZM327.2 107.4h-5v44.3h5v-44.3Z" fill="#FCA9CB" stroke="#DAC5F9" stroke-linecap="round" stroke-linejoin="round"/><path d="M322.3 89.9h-4.9v62.3h5V90Z" fill="#E1557A" stroke="#DAC5F9" stroke-linecap="round" stroke-linejoin="round"/><path d="M307.4 136.2h-5v15.5h5v-15.5ZM332.3 127.5h-5v24.2h5v-24.2ZM272.6 115.7h-5v36h5v-36ZM277.6 99h-5v52.7h5V99ZM282.6 104.8h-5v47h5v-47Z" fill="#FCA9CB" stroke="#DAC5F9" stroke-linecap="round" stroke-linejoin="round"/><path d="M287.5 119h-5v32.7h5v-32.6Z" fill="#E1557A" stroke="#DAC5F9" stroke-linecap="round" stroke-linejoin="round"/><path d="M343.1 78.4H242.9v5.3H343v-5.3Z" fill="#B39ED3" stroke="#DAC5F9" stroke-linecap="round" stroke-linejoin="round"/><path d="M266 157.4h-20.9v5h21v-5ZM301.8 157.4h-21v5h21v-5ZM344.8 157.4h-21v5h21v-5Z" fill="#B39ED3"/><path d="M355.7 95h-12.6v-5h12.6M355.7 147h-6.8v-5h6.8M310.3 168v-6.8h4.9v6.8M233.9 98.6h6.8v4.9h-6.8M299.8 68.5h-24.2v5h24.2v-5ZM301.7 91.5h-11.9v4.9h11.9v-5Z" stroke="#DAC5F9" stroke-linecap="round" stroke-linejoin="round"/><path d="M242.5 88.3h-2.7v65.2h2.7V88.3Z" fill="#3F2B56"/><path d="M344.7 153.5v-2.7H240v2.7h104.7Z" fill="#3F2B56"/><path d="m228.2 80.1 5-1.3M228.2 131.3l5 .6M228.2 109.3h5M228.2 88l5-.5" stroke="#fff" stroke-linecap="round" stroke-linejoin="round"/><path d="M239.5 78.8h-5.7M255.6 87v-9.2M314.7 83.7v-9.1M233.3 157v11.4M273.2 168.8v-13" stroke="#DAC5F9" stroke-linecap="round" stroke-linejoin="round"/><path d="m228.2 145.8 5 1.9" stroke="#fff" stroke-linecap="round" stroke-linejoin="round"/><path d="M338.2 73.3v-8.4h-79.8v8.4h-25v89.4h-14v6h136.5V73.3h-17.7Z" stroke="#3F2B56" stroke-linecap="round" stroke-linejoin="round"/><path d="M227.8 75.4v82.9h-14.5v5.1M233.4 162l-5.8-3.6M225.6 161.3V160h2.3v1.3" stroke="#3F2B56" stroke-linecap="round" stroke-linejoin="round"/><path d="M216.6 158.9v-2.3h2.2v2.3" fill="#fff"/><path d="M216.6 158.2v-1.7h2.2v1.7" stroke="#3F2B56" stroke-linecap="round" stroke-linejoin="round"/><path d="M222.7 158.9v-2.3h2.2v2.3" fill="#fff"/><path d="M222.7 158.2v-1.7h2.3v1.7M227.8 75.3l5.6-2M251.5 67.4l6.8-2.5M251.6 73.2v-5.7" stroke="#3F2B56" stroke-linecap="round" stroke-linejoin="round"/><path d="M335.5 73.4H327M268.3 163h7.4M343.1 106v13M348 111.8h-7.4M260.8 116.3h-8.1M277.4 104.8h-8M294.7 143.8h-24.2M337 147.4h-24.2M327.1 116H303" stroke="#DAC5F9" stroke-linecap="round" stroke-linejoin="round"/><path d="M257 123.4h-3.9v4.7h4v-4.7ZM267.2 143.1h-4v4.8h4V143ZM287 125h-4v4.8h4v-4.7ZM312 130.6h-4v4.8h4v-4.8ZM321.9 90.4h-4V95h4v-4.7ZM321.9 116.4h-4v4.7h4v-4.7ZM336.8 143.4h-4v3.6h4v-3.6Z" fill="#FCA9CB"/><path d="M302 131.7h-4v4.7h4v-4.7ZM272.1 116.2h-4v4.8h4v-4.8ZM277 138.6h-3.8v4.7h3.9v-4.7ZM277 99.6h-3.8v4.7h3.9v-4.7ZM251.9 134.1h-4v4.7h4v-4.7ZM331.8 132.4h-4v4.7h4v-4.7Z" fill="#E1557A"/></svg>
