<svg viewBox="0 0 432 234" fill="none" xmlns="http://www.w3.org/2000/svg">
<path d="M14.6974 0.650894L4.26288 233.86L425.813 205.165L398.684 28.8238L14.6974 0.650894Z" fill="#FCA9CB"/>
<path d="M220.231 204.236L194.004 185.209V172.826L220.231 191.853V204.236Z" fill="#B39ED3" stroke="#3F2B56" stroke-linecap="round" stroke-linejoin="round"/>
<path d="M205.833 103.47L209.79 98.453L218.551 105.754L214.618 110.724L205.833 103.47Z" fill="white"/>
<path d="M205.833 103.47L209.79 98.453L218.551 105.754L214.618 110.724L205.833 103.47Z" stroke="#3F2B56" stroke-linecap="round" stroke-linejoin="round"/>
<path d="M215.118 103.763L216.558 102.003L218.296 103.424L216.855 105.185" fill="white"/>
<path d="M215.54 103.276L216.654 101.915L218.391 103.337L217.278 104.697" stroke="#3F2B56" stroke-linecap="round" stroke-linejoin="round"/>
<path d="M211.777 100.883L213.217 99.1225L214.954 100.544L213.514 102.304" fill="white"/>
<path d="M212.199 100.395L213.312 99.0346L215.05 100.456L213.937 101.817" stroke="#3F2B56" stroke-linecap="round" stroke-linejoin="round"/>
<path d="M200.256 88.3397H190.725V102.096H200.256V88.3397Z" fill="#5E468C"/>
<path d="M215.081 95.7494L193.928 80.8339C193.928 80.8339 178.301 95.0468 178.166 95.4536C178.03 95.8604 159.067 131.861 159.067 131.861L138.379 100.78L137.385 103.614L158.674 143.885L162.728 143.633L189.475 106.119L191.862 108.344L202.292 106.977L205.351 108.367L207.483 105.517L202.2 100.088L205.496 97.9962L204.505 95.2068L211.963 100.088L215.081 95.7494ZM196.108 99.6256L193.213 92.6658L197.6 92.9038L199.616 95.7838L196.108 99.6256Z" fill="#B39ED3"/>
<path d="M159.107 145.495L114.544 57.4254C114.544 57.4254 114.192 56.5757 112.287 56.5757C110.571 56.5757 110.03 57.3703 110.03 57.3703L82.8806 92.4092C82.8806 92.4092 86.0288 93.7458 88.6805 96.68C90.7261 98.9435 91.6161 102.033 91.6161 102.033L76.0234 101.565L57.3554 123.906C57.3554 123.906 61.8968 125.274 64.2728 126.519C67.5009 128.21 70.3258 130.151 71.2746 131.589L54.1351 131.648C53.3774 132.026 41.1598 145.813 41.1598 145.813L159.107 145.495Z" fill="#5E468C"/>
<path d="M67.7763 145.754C67.7763 145.754 43.1436 146.246 43.0183 145.87C42.893 145.495 56.5503 131.336 56.5503 131.336L76.0337 132.193L67.7763 145.754Z" fill="#B39ED3"/>
<path d="M91.7429 102.212C91.6636 101.98 76.0234 101.565 76.0234 101.565L56.1743 125.698L78.905 125.495C78.905 125.495 91.8525 102.533 91.7429 102.212Z" fill="#B39ED3"/>
<path d="M116.567 60.4182C116.317 60.0423 114.187 56.534 114.187 56.534L109.801 56.4087L82.8807 92.4092L96.2928 91.7259L113.31 61.1699L116.567 60.4182Z" fill="#B39ED3"/>
<path d="M152.28 145.541H162.15L115.118 58.5945C115.118 58.5945 115.046 58.0042 113.568 58.0042C112.118 58.0042 111.857 58.6327 111.857 58.6327C111.857 58.6327 100.637 82.7692 97.1709 89.836L96.1711 91.6409C96.1711 91.6409 96.1923 91.6555 96.227 91.6798C96.2065 91.7129 96.1812 91.7563 96.1711 91.7664L96.2927 91.7259C97.6975 92.7113 112.487 102.723 120.129 116.991C131.737 138.665 131.699 145.572 131.699 145.572C131.699 145.572 138.845 145.552 139.588 145.552C139.397 139.872 132.047 121.151 125.757 110.96C121.899 104.71 116.876 97.8928 106.188 89.091L113.972 71.146L152.28 145.541Z" fill="#B39ED3"/>
<path d="M91.7429 102.212L78.905 125.495C78.905 125.495 86.1223 129.659 90.9107 135.627C95.0334 140.765 94.832 145.668 94.832 145.668L104.352 145.655C104.352 145.655 104.457 134.745 89.1757 122.789C90.4942 120.151 93.3395 114.669 93.3395 114.669C93.3395 114.669 97.532 114.583 106.247 127.299C112.338 136.185 113.6 145.278 113.654 145.633C114.122 145.623 122.787 145.595 122.787 145.595C122.787 145.595 121.504 135.148 111.73 120.082C102.821 106.35 91.7429 102.212 91.7429 102.212Z" fill="#B39ED3"/>
<path d="M76.0336 132.193C75.734 132.492 68.0887 145.243 67.7762 145.754C68.217 145.728 78.2256 145.725 78.2256 145.725L82.9237 137.485L76.0336 132.193Z" fill="#B39ED3"/>
<path d="M104.414 145.675C104.312 145.267 104.822 134.85 89.2993 122.799C90.2184 120.552 93.2822 114.731 93.2822 114.731C93.2822 114.731 107.988 121.472 113.707 145.675" stroke="#3F2B56" stroke-linecap="round" stroke-linejoin="round"/>
<path d="M95.0483 145.745C95.0483 145.745 95.956 137.848 79.1629 125.684C81.0691 122.144 91.8387 102.295 91.8387 102.295C91.8387 102.295 105.651 108.391 114.338 124.015C120.914 135.844 122.741 144.81 122.741 145.522" stroke="#3F2B56" stroke-linecap="round" stroke-linejoin="round"/>
<path d="M131.309 145.871C125.306 111.808 96.236 91.7854 96.236 91.7854L111.756 58.5093" stroke="#3F2B56" stroke-linecap="round" stroke-linejoin="round"/>
<path d="M151.643 145.486C151.643 145.486 114.151 70.8615 113.94 70.8275C113.434 70.7461 106.101 89.1189 106.101 89.1189C106.101 89.1189 119.346 100.204 127.55 114.181C134.269 125.629 139.822 143.993 139.573 145.984" stroke="#3F2B56" stroke-linecap="round" stroke-linejoin="round"/>
<path d="M78.1388 145.913C78.2409 145.555 82.9387 137.385 82.9387 137.385L75.9941 132.023L67.773 145.81" stroke="#3F2B56" stroke-linecap="round" stroke-linejoin="round"/>
<path d="M75.8214 132.013C75.6171 131.962 58.1732 131.717 58.1732 131.717" stroke="#3F2B56" stroke-linecap="round" stroke-linejoin="round"/>
<path d="M96.4113 92.0332C95.9549 91.9761 83.5987 92.0332 83.5987 92.0332" stroke="#3F2B56" stroke-linecap="round" stroke-linejoin="round"/>
<path d="M79.1462 125.978H63.7642" stroke="#3F2B56" stroke-linecap="round" stroke-linejoin="round"/>
<path d="M60.5412 120.173C60.5912 120.023 76.07 101.757 76.07 101.757L91.7196 102.183C91.7196 102.183 88.7475 93.9004 83.1223 92.0661C87.3958 86.7245 108.575 58.7311 108.575 58.7311C108.575 58.7311 110.17 56.1396 112.34 56.2416C114.852 56.3597 115.702 58.9803 115.702 58.9803C115.702 58.9803 161.786 144.62 161.965 145.336" stroke="#3F2B56" stroke-linecap="round" stroke-linejoin="round"/>
<path d="M184.756 101.694L191.983 108.306L202.321 106.912L205.383 108.281L207.47 105.718C207.47 105.718 203.09 100.761 202.629 100.454C202.167 100.146 196.171 99.9923 196.171 99.9923L193.307 92.9696" stroke="#3F2B56" stroke-linecap="round" stroke-linejoin="round"/>
<path d="M202.818 99.5621C203.145 99.1544 205.673 97.2787 205.673 97.2787" stroke="#3F2B56" stroke-linecap="round" stroke-linejoin="round"/>
<path d="M197.779 93.2226L199.672 95.7839L196.213 99.2359" stroke="#3F2B56" stroke-linecap="round" stroke-linejoin="round"/>
<path d="M141.173 106.167C141.173 106.167 159.231 132.315 159.231 131.882C159.231 131.448 176.726 97.3325 176.726 97.3325L193.216 81.5485L194.367 81.4438L214.567 95.8871L211.95 100.074L196.254 91.1206" stroke="#3F2B56" stroke-linecap="round" stroke-linejoin="round"/>
<path d="M188.396 107.01L163.276 142.717" stroke="#3F2B56" stroke-linecap="round" stroke-linejoin="round"/>
<path d="M219.301 168.942L213.791 163.878V158.922L219.301 162.985V168.942Z" fill="#DAC5F9"/>
<path d="M193.995 172.801H58.3968V185.184H193.995V172.801Z" fill="#B39ED3" stroke="#3F2B56" stroke-linecap="round" stroke-linejoin="round"/>
<path d="M213.28 163.454L219.247 168.66" stroke="#3F2B56" stroke-linecap="round" stroke-linejoin="round"/>
<path d="M219.183 162.776L213.545 158.613" stroke="#3F2B56" stroke-linecap="round" stroke-linejoin="round"/>
<path d="M219.468 161.339V160.003H221.713V161.339" stroke="#3F2B56" stroke-linecap="round" stroke-linejoin="round"/>
<path d="M167.267 178.773L172.415 175.646L176.696 180.505L177.178 179.495L178.91 179.976L179.006 176.945L185.549 177.186L185.116 180.794L187.521 180.024L188.965 181.515L191.995 177.763L195.604 180.457L193.439 184.113L197.961 185.605L198.827 182.622L203.542 183.344V187.192L205.995 188.299L208.353 186.182L212.154 189.02L209.459 191.859L186.751 191.715L167.267 178.773Z" fill="#E1557A"/>
<path d="M178.892 180.273L178.942 176.861L185.315 177.012L185.365 180.675" stroke="#3A254F" stroke-linecap="round" stroke-linejoin="round"/>
<path d="M188.326 182.933L192.14 178.115L195.853 180.574L192.39 185.141" stroke="#3A254F" stroke-linecap="round" stroke-linejoin="round"/>
<path d="M188.175 190.36L188.426 187.249L194.398 187.65L194.297 191.062" stroke="#3A254F" stroke-linecap="round" stroke-linejoin="round"/>
<path d="M178.791 183.736L181.852 181.478L185.265 184.438L182.806 186.747" stroke="#3A254F" stroke-linecap="round" stroke-linejoin="round"/>
<path d="M197.609 188.352L198.864 182.582L203.932 183.535L203.129 188.704" stroke="#3A254F" stroke-linecap="round" stroke-linejoin="round"/>
<path d="M204.635 190.209L208.298 186.295L212.062 189.055L210.356 190.962" stroke="#3A254F" stroke-linecap="round" stroke-linejoin="round"/>
<path d="M168.604 178.015L172.569 175.656L176.433 180.374" stroke="#3A254F" stroke-linecap="round" stroke-linejoin="round"/>
<path d="M189.689 204.482L163.462 185.455V173.072L189.689 192.099V204.482Z" fill="#B39ED3" stroke="#3F2B56" stroke-linecap="round" stroke-linejoin="round"/>
<path d="M140.312 183.381L137.315 177.916L142.692 175.977L145.336 180.12H147.54L147.716 176.241L155.561 175.712L156.443 179.591L160.762 177.034L164.024 182.323L162.576 183.324L163.987 183.67L165.258 185.673L165.698 182.147H170.547L170.723 188.053L171.692 188.582L174.425 185.497L177.775 188.317L175.218 191.755L150.449 191.843L140.312 183.381Z" fill="#FCA9CB"/>
<path d="M139.489 181.711L137.081 177.913L142.824 176.153L145.325 179.858" stroke="#3F2B56" stroke-linecap="round" stroke-linejoin="round"/>
<path d="M144.028 185.138L147.456 182.452L151.439 186.25L148.197 188.566" stroke="#3F2B56" stroke-linecap="round" stroke-linejoin="round"/>
<path d="M147.919 179.21L147.641 176.524L155.7 175.69L156.163 178.747" stroke="#3F2B56" stroke-linecap="round" stroke-linejoin="round"/>
<path d="M153.847 181.618L160.887 177.45L164.129 182.174L158.479 185.046" stroke="#3F2B56" stroke-linecap="round" stroke-linejoin="round"/>
<path d="M165.666 187.432L165.737 182.002L170.602 182.143L170.532 187.785" stroke="#3F2B56" stroke-linecap="round" stroke-linejoin="round"/>
<path d="M158.364 190.453L158.007 186.84L163.168 186.284L163.565 190.215" stroke="#3F2B56" stroke-linecap="round" stroke-linejoin="round"/>
<path d="M171.549 188.551L174.259 185.59L178.173 188.551L175.262 191.612" stroke="#3A254F" stroke-linecap="round" stroke-linejoin="round"/>
<path d="M154.901 204.236L128.674 185.209V172.826L154.901 191.853V204.236Z" fill="#B39ED3" stroke="#3F2B56" stroke-linecap="round" stroke-linejoin="round"/>
<path d="M101.956 181.735L101.986 177.098L107.6 176.955L107.887 180.337L110.478 180.481L113.789 176.163L118.179 178.178L117.625 181.207H120.207L120.482 176.595L124.513 176.091L127.19 183.496L130.199 181.057L134.589 184.152L132.002 187.545L133.646 188.66L139.051 187.247L139.749 191.947L113.986 191.066L101.956 181.735Z" fill="white"/>
<path d="M101.986 180.337V177.098L107.6 176.955L107.887 180.337L110.478 180.481L113.789 176.163L118.179 178.178L115.876 183.144" stroke="#3F2B56" stroke-linecap="round" stroke-linejoin="round"/>
<path d="M121.418 181.489L120.482 176.595L124.513 176.091L125.952 180.769" stroke="#3F2B56" stroke-linecap="round" stroke-linejoin="round"/>
<path d="M127.32 183.864L130.199 181.057L134.589 184.152L131.638 187.462" stroke="#3F2B56" stroke-linecap="round" stroke-linejoin="round"/>
<path d="M117.676 189.262L114.869 186.095L119.187 183.936L124.369 188.974" stroke="#3F2B56" stroke-linecap="round" stroke-linejoin="round"/>
<path d="M132.79 188.83L139.051 187.247L139.627 191.493" stroke="#3F2B56" stroke-linecap="round" stroke-linejoin="round"/>
<path d="M119.786 204.236L93.5591 185.209V172.826L119.786 191.853V204.236Z" fill="#B39ED3" stroke="#3F2B56" stroke-linecap="round" stroke-linejoin="round"/>
<path d="M69.014 180.635L84.784 192.132L103.067 192.321L102.502 190.436L105.757 187.649L101.8 184.094L98.7948 186.603L95.025 183.96L94.8237 179.197L89.1894 178.795V182.953L86.8127 180.321L83.555 180.606L83.488 176.045H78.0548L77.9878 180.136L75.2377 180.337L72.2193 176.917L68.3289 178.996L69.014 180.635Z" fill="#DAC5F9"/>
<path d="M69.4904 181.74L67.8905 179.152L72.2193 176.917L74.9584 180.363" stroke="#3A254F" stroke-linecap="round" stroke-linejoin="round"/>
<path d="M77.7968 180.906L78.0548 176.045H83.488L83.555 180.606" stroke="#3A254F" stroke-linecap="round" stroke-linejoin="round"/>
<path d="M89.1919 183.953L89.1894 178.795L94.8237 179.197L95.0355 184.328" stroke="#3A254F" stroke-linecap="round" stroke-linejoin="round"/>
<path d="M84.6839 189.796L81.6786 187L84.9761 184.328L90.3189 189.128" stroke="#3A254F" stroke-linecap="round" stroke-linejoin="round"/>
<path d="M97.5399 187.208L101.8 184.094L105.757 187.649L100.879 191.466" stroke="#3A254F" stroke-linecap="round" stroke-linejoin="round"/>
<path d="M84.6109 204.236L58.3838 185.209V172.826L84.6109 191.853V204.236Z" fill="#B39ED3" stroke="#3F2B56" stroke-linecap="round" stroke-linejoin="round"/>
<path d="M220.363 191.854H84.7645V204.237H220.363V191.854Z" fill="#DAC5F9" stroke="#3F2B56" stroke-linecap="round" stroke-linejoin="round"/>
<path d="M431.286 145.928H0.739685" stroke="#3F2B56" stroke-linecap="round" stroke-linejoin="round"/>
<path d="M95.9078 155.99L111.96 163.895L111.506 167.977L99.0268 163.637L95.9078 155.99Z" fill="#B39ED3"/>
<path d="M74.5474 107.84C74.5474 107.84 28.1881 149.638 28.337 150.085C28.4859 150.532 29.1135 154.152 29.1135 154.152L81.7737 169.015L82.561 172.225L87.3838 172.28L87.7447 169.345L90.3981 172.006L96.3718 172.061L94.2537 167.18L99.8034 172.113C99.8034 172.113 106.389 172.388 106.298 172.113C106.231 171.912 100.182 163.836 100.182 163.836L96.1339 156.111L42.2955 147.769L78.3851 109.864L74.5474 107.84Z" fill="#B39ED3"/>
<path d="M74.6313 107.834L28.062 150.589L29.0536 154.231L81.9282 169.059L82.7802 172.718" stroke="#3F2B56" stroke-linecap="round" stroke-linejoin="round"/>
<path d="M78.4557 109.888L42.0954 147.802L97.5579 156.224" stroke="#3F2B56" stroke-linecap="round" stroke-linejoin="round"/>
<path d="M100.099 163.785L111.684 167.82L112.189 163.729L97.6391 156.279" stroke="#3F2B56" stroke-linecap="round" stroke-linejoin="round"/>
<path d="M87.3838 172.17L88.1735 168.52L90.6173 172.006" stroke="#3F2B56" stroke-linecap="round" stroke-linejoin="round"/>
<path d="M106.564 172.62L100.104 163.895" stroke="#3F2B56" stroke-linecap="round" stroke-linejoin="round"/>
<path d="M96.3218 172.413L94.4519 166.996L99.6395 172.104" stroke="#3F2B56" stroke-linecap="round" stroke-linejoin="round"/>
<path d="M251.39 73.4477V67.3552L258.363 64.9166L258.416 73.3563L251.39 73.4477Z" fill="#DAC5F9"/>
<path d="M241.155 73.2272L241.166 70.9528L243.411 70.9632L243.4 73.2377" fill="white"/>
<path d="M241.177 72.5823L241.185 70.8243L243.43 70.8347L243.422 72.5927" stroke="#3F2B56" stroke-linecap="round" stroke-linejoin="round"/>
<path d="M235.225 73.2272L235.236 70.9528L237.481 70.9632L237.47 73.2377" fill="white"/>
<path d="M235.247 72.5823L235.255 70.8243L237.5 70.8347L237.492 72.5927" stroke="#3F2B56" stroke-linecap="round" stroke-linejoin="round"/>
<path d="M229.833 74.934L229.844 72.6595L232.089 72.67L232.078 74.9444" fill="white"/>
<path d="M229.855 74.289L229.863 72.531L232.108 72.5415L232.1 74.2995" stroke="#3F2B56" stroke-linecap="round" stroke-linejoin="round"/>
<path d="M247.085 73.2272L247.096 70.9528L249.341 70.9632L249.33 73.2377" fill="white"/>
<path d="M247.107 72.5823L247.115 70.8243L249.36 70.8347L249.352 72.5927" stroke="#3F2B56" stroke-linecap="round" stroke-linejoin="round"/>
<path d="M253.015 73.2272L253.026 70.9528L255.271 70.9632L255.26 73.2377" fill="white"/>
<path d="M253.036 72.5823L253.044 70.8243L255.289 70.8347L255.281 72.5927" stroke="#3F2B56" stroke-linecap="round" stroke-linejoin="round"/>
<path d="M341.895 73.2272L341.906 70.9528L344.151 70.9632L344.14 73.2377" fill="white"/>
<path d="M341.917 72.5823L341.925 70.8243L344.17 70.8347L344.162 72.5927" stroke="#3F2B56" stroke-linecap="round" stroke-linejoin="round"/>
<path d="M347.825 73.2272L347.836 70.9528L350.081 70.9632L350.07 73.2377" fill="white"/>
<path d="M347.846 72.5823L347.855 70.8243L350.1 70.8347L350.091 72.5927" stroke="#3F2B56" stroke-linecap="round" stroke-linejoin="round"/>
<path d="M213.754 158.831L231.319 157.83L236.282 162.462L217.615 162.904L213.754 158.831Z" fill="white"/>
<path d="M233.072 162.462L228.194 158.831V75.3113L233.072 73.2965V162.462Z" fill="#DAC5F9"/>
<path d="M337.64 73.3771V65.0107H257.772V73.3771C243.066 73.3771 232.708 73.3771 232.772 73.3771V162.725L218.716 162.974V168.752H355.275V73.3771H337.64Z" fill="white"/>
<path d="M252.36 128.058H247.428V151.728H252.36V128.058Z" fill="#FCA9CB" stroke="#DAC5F9" stroke-linecap="round" stroke-linejoin="round"/>
<path d="M257.531 107.833H252.599V151.728H257.531V107.833Z" fill="#E1557A" stroke="#DAC5F9" stroke-linecap="round" stroke-linejoin="round"/>
<path d="M262.639 138.985H257.707V151.728H262.639V138.985Z" fill="#FCA9CB" stroke="#DAC5F9" stroke-linecap="round" stroke-linejoin="round"/>
<path d="M297.378 138.985H292.446V151.728H297.378V138.985Z" fill="#E1557A" stroke="#DAC5F9" stroke-linecap="round" stroke-linejoin="round"/>
<path d="M337.288 138.985H332.356V151.728H337.288V138.985Z" fill="#E1557A" stroke="#DAC5F9" stroke-linecap="round" stroke-linejoin="round"/>
<path d="M267.624 132.514H262.692V151.728H267.624V132.514Z" fill="#E1557A" stroke="#DAC5F9" stroke-linecap="round" stroke-linejoin="round"/>
<path d="M292.397 132.514H287.465V151.728H292.397V132.514Z" fill="#FCA9CB" stroke="#DAC5F9" stroke-linecap="round" stroke-linejoin="round"/>
<path d="M302.422 125.337H297.49V151.728H302.422V125.337Z" fill="#FCA9CB" stroke="#DAC5F9" stroke-linecap="round" stroke-linejoin="round"/>
<path d="M312.448 115.99H307.516V151.728H312.448V115.99Z" fill="#E1557A" stroke="#DAC5F9" stroke-linecap="round" stroke-linejoin="round"/>
<path d="M317.492 98.9048H312.56V151.728H317.492V98.9048Z" fill="#FCA9CB" stroke="#DAC5F9" stroke-linecap="round" stroke-linejoin="round"/>
<path d="M327.199 107.387H322.267V151.728H327.199V107.387Z" fill="#FCA9CB" stroke="#DAC5F9" stroke-linecap="round" stroke-linejoin="round"/>
<path d="M322.346 89.882H317.414V152.237H322.346V89.882Z" fill="#E1557A" stroke="#DAC5F9" stroke-linecap="round" stroke-linejoin="round"/>
<path d="M307.403 136.245H302.471V151.728H307.403V136.245Z" fill="#FCA9CB" stroke="#DAC5F9" stroke-linecap="round" stroke-linejoin="round"/>
<path d="M332.307 127.476H327.375V151.728H332.307V127.476Z" fill="#FCA9CB" stroke="#DAC5F9" stroke-linecap="round" stroke-linejoin="round"/>
<path d="M272.601 115.732H267.669V151.728H272.601V115.732Z" fill="#FCA9CB" stroke="#DAC5F9" stroke-linecap="round" stroke-linejoin="round"/>
<path d="M277.582 98.9576H272.65V151.728H277.582V98.9576Z" fill="#FCA9CB" stroke="#DAC5F9" stroke-linecap="round" stroke-linejoin="round"/>
<path d="M282.563 104.752H277.631V151.728H282.563V104.752Z" fill="#FCA9CB" stroke="#DAC5F9" stroke-linecap="round" stroke-linejoin="round"/>
<path d="M287.48 119.075H282.548V151.728H287.48V119.075Z" fill="#E1557A" stroke="#DAC5F9" stroke-linecap="round" stroke-linejoin="round"/>
<path d="M343.099 78.3935H242.888V83.7367H343.099V78.3935Z" fill="#B39ED3" stroke="#DAC5F9" stroke-linecap="round" stroke-linejoin="round"/>
<path d="M266.059 157.443H245.137V162.354H266.059V157.443Z" fill="#B39ED3"/>
<path d="M301.786 157.443H280.864V162.354H301.786V157.443Z" fill="#B39ED3"/>
<path d="M344.777 157.443H323.855V162.354H344.777V157.443Z" fill="#B39ED3"/>
<path d="M355.697 94.9178H343.131V90.0067H355.697" stroke="#DAC5F9" stroke-linecap="round" stroke-linejoin="round"/>
<path d="M355.663 146.932H348.861V142.021H355.663" stroke="#DAC5F9" stroke-linecap="round" stroke-linejoin="round"/>
<path d="M310.289 168.025V161.223H315.2V168.025" stroke="#DAC5F9" stroke-linecap="round" stroke-linejoin="round"/>
<path d="M233.896 98.5849H240.698V103.496H233.896" stroke="#DAC5F9" stroke-linecap="round" stroke-linejoin="round"/>
<path d="M299.828 68.4982H275.571V73.4093H299.828V68.4982Z" stroke="#DAC5F9" stroke-linecap="round" stroke-linejoin="round"/>
<path d="M301.701 91.4639H289.811V96.375H301.701V91.4639Z" stroke="#DAC5F9" stroke-linecap="round" stroke-linejoin="round"/>
<path d="M242.484 88.2742H239.825V153.47H242.484V88.2742Z" fill="#3F2B56"/>
<path d="M344.678 153.47V150.811H239.981V153.47H344.678Z" fill="#3F2B56"/>
<path d="M228.169 80.1056L233.157 78.798" stroke="white" stroke-linecap="round" stroke-linejoin="round"/>
<path d="M228.169 131.264L233.157 131.863" stroke="white" stroke-linecap="round" stroke-linejoin="round"/>
<path d="M228.169 109.284L233.157 109.228" stroke="white" stroke-linecap="round" stroke-linejoin="round"/>
<path d="M228.169 87.935L233.157 87.5063" stroke="white" stroke-linecap="round" stroke-linejoin="round"/>
<path d="M239.49 78.8073H233.841" stroke="#DAC5F9" stroke-linecap="round" stroke-linejoin="round"/>
<path d="M255.622 86.9525V77.8039" stroke="#DAC5F9" stroke-linecap="round" stroke-linejoin="round"/>
<path d="M314.693 83.7178V74.5691" stroke="#DAC5F9" stroke-linecap="round" stroke-linejoin="round"/>
<path d="M233.339 157.034V168.372" stroke="#DAC5F9" stroke-linecap="round" stroke-linejoin="round"/>
<path d="M273.201 168.823V155.88" stroke="#DAC5F9" stroke-linecap="round" stroke-linejoin="round"/>
<path d="M228.169 145.798L233.157 147.676" stroke="white" stroke-linecap="round" stroke-linejoin="round"/>
<path d="M338.23 73.283V64.9166H258.363V73.283C243.656 73.283 233.298 73.283 233.362 73.283V162.722H219.306V168.658H355.865V73.283H338.23Z" stroke="#3F2B56" stroke-linecap="round" stroke-linejoin="round"/>
<path d="M227.838 75.4201V158.278H213.272V163.402" stroke="#3F2B56" stroke-linecap="round" stroke-linejoin="round"/>
<path d="M233.397 161.942L227.641 158.372" stroke="#3F2B56" stroke-linecap="round" stroke-linejoin="round"/>
<path d="M225.607 161.339V160.003H227.852V161.339" stroke="#3F2B56" stroke-linecap="round" stroke-linejoin="round"/>
<path d="M216.564 158.888V156.614H218.809V158.888" fill="white"/>
<path d="M216.583 158.243V156.485H218.828V158.243" stroke="#3F2B56" stroke-linecap="round" stroke-linejoin="round"/>
<path d="M222.703 158.888V156.614H224.948V158.888" fill="white"/>
<path d="M222.721 158.243V156.485H224.967V158.243" stroke="#3F2B56" stroke-linecap="round" stroke-linejoin="round"/>
<path d="M227.837 75.2758L233.362 73.283" stroke="#3F2B56" stroke-linecap="round" stroke-linejoin="round"/>
<path d="M251.541 67.4484L258.261 64.9478" stroke="#3F2B56" stroke-linecap="round" stroke-linejoin="round"/>
<path d="M251.556 73.1658L251.577 67.5384" stroke="#3F2B56" stroke-linecap="round" stroke-linejoin="round"/>
<path d="M335.536 73.3809H326.995" stroke="#DAC5F9" stroke-linecap="round" stroke-linejoin="round"/>
<path d="M268.263 163.024H275.706" stroke="#DAC5F9" stroke-linecap="round" stroke-linejoin="round"/>
<path d="M343.138 106.048V118.992" stroke="#DAC5F9" stroke-linecap="round" stroke-linejoin="round"/>
<path d="M348.076 111.847H340.633" stroke="#DAC5F9" stroke-linecap="round" stroke-linejoin="round"/>
<path d="M260.77 116.348H252.681" stroke="#DAC5F9" stroke-linecap="round" stroke-linejoin="round"/>
<path d="M277.436 104.81H269.347" stroke="#DAC5F9" stroke-linecap="round" stroke-linejoin="round"/>
<path d="M294.664 143.83H270.476" stroke="#DAC5F9" stroke-linecap="round" stroke-linejoin="round"/>
<path d="M336.972 147.355H312.783" stroke="#DAC5F9" stroke-linecap="round" stroke-linejoin="round"/>
<path d="M327.143 116.008H302.954" stroke="#DAC5F9" stroke-linecap="round" stroke-linejoin="round"/>
<path d="M257.031 123.377H253.1V128.12H257.031V123.377Z" fill="#FCA9CB"/>
<path d="M267.155 143.114H263.224V147.857H267.155V143.114Z" fill="#FCA9CB"/>
<path d="M287.006 125.059H283.076V129.802H287.006V125.059Z" fill="#FCA9CB"/>
<path d="M311.962 130.636H308.032V135.379H311.962V130.636Z" fill="#FCA9CB"/>
<path d="M321.888 90.3666H317.957V95.1096H321.888V90.3666Z" fill="#FCA9CB"/>
<path d="M321.888 116.362H317.957V121.105H321.888V116.362Z" fill="#FCA9CB"/>
<path d="M336.824 143.42H332.893V147.007H336.824V143.42Z" fill="#FCA9CB"/>
<path d="M301.92 131.676H297.989V136.419H301.92V131.676Z" fill="#E1557A"/>
<path d="M272.102 116.23H268.171V120.973H272.102V116.23Z" fill="#E1557A"/>
<path d="M277.092 138.603H273.161V143.346H277.092V138.603Z" fill="#E1557A"/>
<path d="M277.092 99.5854H273.161V104.328H277.092V99.5854Z" fill="#E1557A"/>
<path d="M251.875 134.106H247.944V138.849H251.875V134.106Z" fill="#E1557A"/>
<path d="M331.81 132.363H327.879V137.105H331.81V132.363Z" fill="#E1557A"/>
</svg>
