<svg version="1.1" xmlns="http://www.w3.org/2000/svg" xmlns:xlink="http://www.w3.org/1999/xlink" x="0px" y="0px" viewBox="0 0 359 194" style="enable-background:new 0 0 359 194;" xml:space="preserve"> <style type="text/css"> .st0{fill:#FFFFFF;} .st1{fill:#EDE7F5;} .st2{fill:#C1B2DD;} .st3{fill:#3E2C73;} .st4{fill:none;stroke:#3E2C73;stroke-width:0.75;} .st5{fill:none;stroke:#FF7738;stroke-width:1.5;} .st6{fill:#5A4A79;} .st7{fill:#FF7738;} .query { animation: fadeIn 6s ease-in infinite; transform-origin: center center; } .query2 { animation-delay: 2s; } .query1 { animation-delay: 4s; } @keyframes fadeIn { 0%, 38% { transform: translateY(0); } 40% { transform: translateY(2px) scale(0.99); } 44%, 100% { transform: translateY(0); } } </style> <g id="query3" class="query query3"> <path class="st0" d="M219,116.1L218.1,5c0-1.1-0.9-2-2-2H7.1c-1.1,0-2,0.9-2,2L4,117c0,1.1,0.9,2,2,2l211-0.8 C218.1,118.1,219,117.2,219,116.1z"/> <rect y="39" class="st1" width="224" height="57"/> <path class="st2" d="M193,12h14c1.1,0,2,0.9,2,2v14c0,1.1-0.9,2-2,2h-14c-1.1,0-2-0.9-2-2V14C191,12.9,191.9,12,193,12z"/> <path class="st3" d="M19.5,16h102c0.8,0,1.5,0.7,1.5,1.5l0,0c0,0.8-0.7,1.5-1.5,1.5h-102c-0.8,0-1.5-0.7-1.5-1.5l0,0 C18,16.7,18.7,16,19.5,16z"/> <path class="st2" d="M19.5,23h62c0.8,0,1.5,0.7,1.5,1.5l0,0c0,0.8-0.7,1.5-1.5,1.5h-62c-0.8,0-1.5-0.7-1.5-1.5l0,0 C18,23.7,18.7,23,19.5,23z"/> <path class="st2" d="M19,106h28c0.6,0,1,0.4,1,1l0,0c0,0.6-0.4,1-1,1H19c-0.6,0-1-0.4-1-1l0,0C18,106.4,18.4,106,19,106z"/> <path class="st2" d="M54,106h68c0.6,0,1,0.4,1,1l0,0c0,0.6-0.4,1-1,1H54c-0.6,0-1-0.4-1-1l0,0C53,106.4,53.4,106,54,106z"/> <path class="st3" d="M214.7,87.5l4.3,0.9V94H4V81.2l4.8,1.9L13,84l4.3-1.6l4.3-0.1l4.3,0.1l4.3-5l4.3,0.1l4.3,0l4.3,0.2l4.3-6.7 l4.3-1.9L56,55l4.3,21.2l4.3,1.3l4.3-0.3l4.3,4.3l4.3-1.4l4.3,0.6l4.3,2.1l4.3,1.7l4.3,0.1l4.3-0.5l4.3-13.8l4.3-8.7l4.3,22 l4.3-2.2l4.3,0.5l4.3,0.3l4.3,0.1l4.3-1.8l4.3,2.4l4.3,0.9l4.3-1.1l4.3-0.2l4.3,0.6l4-12.9l4.6,13.4l4.3,0.1l4.3-0.8l4.3,0.1 l4.3-0.3l4.3-1.1l4.3,1.4l4.3,0.8l4.3,0.7l4.3-0.2l4.3-1.8l6.9-1.8L214.7,87.5z"/> <path class="st4" d="M219,116.1L218.1,5c0-1.1-0.9-2-2-2H7.1c-1.1,0-2,0.9-2,2L4,117c0,1.1,0.9,2,2,2l211-0.8 C218.1,118.1,219,117.2,219,116.1z"/> <path class="st5" d="M3,116.3L2,3c0-1.1,0.9-2,2-2h214.4c1.1,0,2,0.9,2,2l0.5,116c0,1.1-0.9,2-2,2L5,118.2 C3.9,118.2,3,117.4,3,116.3z"/> <path class="st4" d="M191,10.4h14c0.9,0,1.6,0.7,1.6,1.6v14c0,0.9-0.7,1.6-1.6,1.6h-14c-0.9,0-1.6-0.7-1.6-1.6V12 C189.4,11.1,190.1,10.4,191,10.4z"/> </g> <g id="query2" class="query query2"> <path class="st0" d="M354,150.1L353.1,39c0-1.1-0.9-2-2-2h-209c-1.1,0-2,0.9-2,2L139,151c0,1.1,0.9,2,2,2l211-0.8 C353.1,152.1,354,151.2,354,150.1z"/> <rect x="135" y="73" class="st1" width="224" height="57"/> <path class="st6" d="M328,46h14c1.1,0,2,0.9,2,2v14c0,1.1-0.9,2-2,2h-14c-1.1,0-2-0.9-2-2V48C326,46.9,326.9,46,328,46z"/> <path class="st3" d="M154.5,50h102c0.8,0,1.5,0.7,1.5,1.5l0,0c0,0.8-0.7,1.5-1.5,1.5h-102c-0.8,0-1.5-0.7-1.5-1.5l0,0 C153,50.7,153.7,50,154.5,50z"/> <path class="st2" d="M189,140h68c0.6,0,1,0.4,1,1l0,0c0,0.6-0.4,1-1,1h-68c-0.6,0-1-0.4-1-1l0,0C188,140.4,188.4,140,189,140z"/> <path class="st3" d="M143.3,125.2l-4.3,0.4v2.5h215v-5.6l-4.8,0.8l-4.3,0.4l-4.3-0.7l-4.3-0.1l-4.3,0.1l-4.3-2.2l-4.3,0.1l-4.3,0 l-4.3,0.1l-4.3-2.9l-4.3-0.8L302,111l-4.3,9.3l-4.3,0.6l-4.3-0.1l-4.3,1.9l-4.3-0.6l-4.3,0.3l-4.3,0.9l-4.3,0.7l-4.3,0.1l-4.3-0.2 l-4.3-6l-4.3-3.8l-4.3,9.6l-4.3-1l-4.3,0.2l-4.3,0.1l-4.3,0l-4.3-0.8l-4.3,1l-4.3,0.4l-4.3-0.5l-4.3-0.1l-4.3,0.3l-4-5.6l-4.6,5.8 l-4.3,0l-4.3-0.4l-4.3,0.1l-4.3-0.1l-4.3-0.5l-4.3,0.6l-4.3,0.3l-4.3,0.3l-4.3-0.1l-4.3-0.8l-6.9-0.8L143.3,125.2z"/> <path class="st4" d="M354,150.1L353.1,39c0-1.1-0.9-2-2-2h-209c-1.1,0-2,0.9-2,2L139,151c0,1.1,0.9,2,2,2l211-0.8 C353.1,152.1,354,151.2,354,150.1z"/> <path class="st5" d="M138,150.3L137,37c0-1.1,0.9-2,2-2h214.4c1.1,0,2,0.9,2,2l0.5,116c0,1.1-0.9,2-2,2l-214-2.7 C138.9,152.2,138,151.4,138,150.3z"/> <path class="st4" d="M326,44.4h14c0.9,0,1.6,0.7,1.6,1.6v14c0,0.9-0.7,1.6-1.6,1.6h-14c-0.9,0-1.6-0.7-1.6-1.6V46 C324.4,45.1,325.1,44.4,326,44.4z"/> <path class="st2" d="M154,140h28c0.6,0,1,0.4,1,1l0,0c0,0.6-0.4,1-1,1h-28c-0.6,0-1-0.4-1-1l0,0C153,140.4,153.4,140,154,140z"/> <path class="st2" d="M154.5,57h62c0.8,0,1.5,0.7,1.5,1.5l0,0c0,0.8-0.7,1.5-1.5,1.5h-62c-0.8,0-1.5-0.7-1.5-1.5l0,0 C153,57.7,153.7,57,154.5,57z"/> </g> <g id="query1" class="query query1"> <path class="st0" d="M256,188.1L255.1,77c0-1.1-0.9-2-2-2h-209c-1.1,0-2,0.9-2,2L41,189c0,1.1,0.9,2,2,2l211-0.8 C255.1,190.1,256,189.2,256,188.1z"/> <rect x="37" y="111" class="st1" width="224" height="57"/> <path class="st7" d="M230,84h14c1.1,0,2,0.9,2,2v14c0,1.1-0.9,2-2,2h-14c-1.1,0-2-0.9-2-2V86C228,84.9,228.9,84,230,84z"/> <path class="st3" d="M56.5,88h102c0.8,0,1.5,0.7,1.5,1.5l0,0c0,0.8-0.7,1.5-1.5,1.5h-102c-0.8,0-1.5-0.7-1.5-1.5l0,0 C55,88.7,55.7,88,56.5,88z"/> <path class="st2" d="M56.5,95h62c0.8,0,1.5,0.7,1.5,1.5l0,0c0,0.8-0.7,1.5-1.5,1.5h-62c-0.8,0-1.5-0.7-1.5-1.5l0,0 C55,95.7,55.7,95,56.5,95z"/> <path class="st2" d="M56,178h28c0.6,0,1,0.4,1,1l0,0c0,0.6-0.4,1-1,1H56c-0.6,0-1-0.4-1-1l0,0C55,178.4,55.4,178,56,178z"/> <path class="st2" d="M91,178h68c0.6,0,1,0.4,1,1l0,0c0,0.6-0.4,1-1,1H91c-0.6,0-1-0.4-1-1l0,0C90,178.4,90.4,178,91,178z"/> <path class="st3" d="M45.3,159.5l-4.3,0.9v5.6h215v-12.8l-4.8,1.9L247,156l-4.3-1.6l-4.3-0.1l-4.3,0.1l-4.3-5l-4.3,0.1l-4.3,0 l-4.3,0.2l-4.3-6.7l-4.3-1.9L204,127l-4.3,21.2l-4.3,1.3l-4.3-0.3l-4.3,4.3l-4.3-1.4l-4.3,0.6l-4.3,2.1l-4.3,1.7l-4.3,0.1l-4.3-0.5 l-4.3-13.8l-4.3-8.7l-4.3,22l-4.3-2.2l-4.3,0.5l-4.3,0.3l-4.3,0.1l-4.3-1.8l-4.3,2.4l-4.3,0.9l-4.3-1.1l-4.3-0.2l-4.3,0.6l-4-12.9 l-4.6,13.4l-4.3,0.1l-4.3-0.8l-4.3,0.1l-4.3-0.3l-4.3-1.1l-4.3,1.4l-4.3,0.8l-4.3,0.7l-4.3-0.2l-4.3-1.8l-6.9-1.8L45.3,159.5z"/> <path class="st4" d="M256,188.1L255.1,77c0-1.1-0.9-2-2-2h-209c-1.1,0-2,0.9-2,2L41,189c0,1.1,0.9,2,2,2l211-0.8 C255.1,190.1,256,189.2,256,188.1z"/> <path class="st5" d="M40,188.3L39,75c0-1.1,0.9-2,2-2h214.4c1.1,0,2,0.9,2,2l0.5,116c0,1.1-0.9,2-2,2l-214-2.7 C40.9,190.2,40,189.4,40,188.3z"/> <path class="st4" d="M228,82.4h14c0.9,0,1.6,0.7,1.6,1.6v14c0,0.9-0.7,1.6-1.6,1.6h-14c-0.9,0-1.6-0.7-1.6-1.6V84 C226.4,83.1,227.1,82.4,228,82.4z"/> </g> </svg>
