<svg xmlns="http://www.w3.org/2000/svg" viewBox="0 0 290 195" style="enable-background:new 0 0 290 195" xml:space="preserve"><style>.st0{fill:#3E2C73;} .st1{fill:#C1B2DD;} .st2{fill:none;stroke:#3E2C73;stroke-width:0.75;} .st3{fill:#5A4A79;} .st4{fill:#FF7738;} .st5{fill:#FFFFFF;} .st6{fill:none;stroke:#FF7738;stroke-width:1.5;} .st7{fill:#EDE7F5;}</style><g id="background"><path class="st0" d="M0 1h42v193H0V1z"/><path class="st1" d="M43 .7 287 0a3 3 0 0 1 3 3v29.3L43 33V.7z"/><path class="st2" d="M54.4 45c0 .3.3.6.6.6h220c.3 0 .6-.3.6-.6v-4c0-.3-.3-.6-.6-.6H55c-.3 0-.6.3-.6.6v4z"/><path class="st1" d="M53 104c0-1.1.9-2 2-2h156a2 2 0 0 1 2 2v6H53v-6z"/><path class="st3" d="M54 13c0-.6.4-1 1-1h16c.6 0 1 .4 1 1s-.4 1-1 1H55c-.6 0-1-.4-1-1zM78 13c0-.6.4-1 1-1h16c.6 0 1 .4 1 1s-.4 1-1 1H79c-.6 0-1-.4-1-1z"/><path class="st1" d="M17 24.5c0-.3.2-.5.5-.5h18c.3 0 .5.2.5.5s-.2.5-.5.5h-18c-.3 0-.5-.2-.5-.5zM17 13c0-.6.4-1 1-1h17c.6 0 1 .4 1 1s-.4 1-1 1H18c-.6 0-1-.4-1-1zM17 30.5c0-.3.2-.5.5-.5h18c.3 0 .5.2.5.5s-.2.5-.5.5h-18c-.3 0-.5-.2-.5-.5zM17 36.5c0-.3.2-.5.5-.5h18c.3 0 .5.2.5.5s-.2.5-.5.5h-18c-.3 0-.5-.2-.5-.5zM17 42.5c0-.3.2-.5.5-.5h18c.3 0 .5.2.5.5s-.2.5-.5.5h-18c-.3 0-.5-.2-.5-.5zM17 48.5c0-.3.2-.5.5-.5h18c.3 0 .5.2.5.5s-.2.5-.5.5h-18c-.3 0-.5-.2-.5-.5zM17 54.5c0-.3.2-.5.5-.5h18c.3 0 .5.2.5.5s-.2.5-.5.5h-18c-.3 0-.5-.2-.5-.5zM17 64.5c0-.3.2-.5.5-.5h18c.3 0 .5.2.5.5s-.2.5-.5.5h-18c-.3 0-.5-.2-.5-.5zM17 70.5c0-.3.2-.5.5-.5h18c.3 0 .5.2.5.5s-.2.5-.5.5h-18c-.3 0-.5-.2-.5-.5zM17 76.5c0-.3.2-.5.5-.5h18c.3 0 .5.2.5.5s-.2.5-.5.5h-18c-.3 0-.5-.2-.5-.5zM17 87.5c0-.3.2-.5.5-.5h18c.3 0 .5.2.5.5s-.2.5-.5.5h-18c-.3 0-.5-.2-.5-.5z"/><path class="st4" d="M62 116.5c0-.3-.2-.5-.5-.5h-1c-.3 0-.5.2-.5.5s.2.5.5.5h1c.3 0 .5-.2.5-.5zM62 122.5c0-.3-.2-.5-.5-.5h-1c-.3 0-.5.2-.5.5s.2.5.5.5h1c.3 0 .5-.2.5-.5zM62 128.5c0-.3-.2-.5-.5-.5h-1c-.3 0-.5.2-.5.5s.2.5.5.5h1c.3 0 .5-.2.5-.5zM62 134.5c0-.3-.2-.5-.5-.5h-1c-.3 0-.5.2-.5.5s.2.5.5.5h1c.3 0 .5-.2.5-.5zM62 140.5c0-.3-.2-.5-.5-.5h-1c-.3 0-.5.2-.5.5s.2.5.5.5h1c.3 0 .5-.2.5-.5zM62 146.5c0-.3-.2-.5-.5-.5h-1c-.3 0-.5.2-.5.5s.2.5.5.5h1c.3 0 .5-.2.5-.5zM62 152.5c0-.3-.2-.5-.5-.5h-1c-.3 0-.5.2-.5.5s.2.5.5.5h1c.3 0 .5-.2.5-.5zM62 158.5c0-.3-.2-.5-.5-.5h-1c-.3 0-.5.2-.5.5s.2.5.5.5h1c.3 0 .5-.2.5-.5zM62 164.5c0-.3-.2-.5-.5-.5h-1c-.3 0-.5.2-.5.5s.2.5.5.5h1c.3 0 .5-.2.5-.5zM62 170.5c0-.3-.2-.5-.5-.5h-1c-.3 0-.5.2-.5.5s.2.5.5.5h1c.3 0 .5-.2.5-.5z"/><path class="st0" d="M126 116.5c0-.3.2-.5.5-.5h9c.3 0 .5.2.5.5s-.2.5-.5.5h-9c-.3 0-.5-.2-.5-.5zM126 122.5c0-.3.2-.5.5-.5h9c.3 0 .5.2.5.5s-.2.5-.5.5h-9c-.3 0-.5-.2-.5-.5zM126 128.5c0-.3.2-.5.5-.5h9c.3 0 .5.2.5.5s-.2.5-.5.5h-9c-.3 0-.5-.2-.5-.5zM126 134.5c0-.3.2-.5.5-.5h9c.3 0 .5.2.5.5s-.2.5-.5.5h-9c-.3 0-.5-.2-.5-.5zM126 140.5c0-.3.2-.5.5-.5h9c.3 0 .5.2.5.5s-.2.5-.5.5h-9c-.3 0-.5-.2-.5-.5zM126 146.5c0-.3.2-.5.5-.5h9c.3 0 .5.2.5.5s-.2.5-.5.5h-9c-.3 0-.5-.2-.5-.5zM126 152.5c0-.3.2-.5.5-.5h9c.3 0 .5.2.5.5s-.2.5-.5.5h-9c-.3 0-.5-.2-.5-.5zM126 158.5c0-.3.2-.5.5-.5h9c.3 0 .5.2.5.5s-.2.5-.5.5h-9c-.3 0-.5-.2-.5-.5zM126 164.5c0-.3.2-.5.5-.5h9c.3 0 .5.2.5.5s-.2.5-.5.5h-9c-.3 0-.5-.2-.5-.5zM126 170.5c0-.3.2-.5.5-.5h9c.3 0 .5.2.5.5s-.2.5-.5.5h-9c-.3 0-.5-.2-.5-.5zM144 116.5c0-.3.2-.5.5-.5h9c.3 0 .5.2.5.5s-.2.5-.5.5h-9c-.3 0-.5-.2-.5-.5zM144 122.5c0-.3.2-.5.5-.5h9c.3 0 .5.2.5.5s-.2.5-.5.5h-9c-.3 0-.5-.2-.5-.5zM144 128.5c0-.3.2-.5.5-.5h9c.3 0 .5.2.5.5s-.2.5-.5.5h-9c-.3 0-.5-.2-.5-.5zM144 134.5c0-.3.2-.5.5-.5h9c.3 0 .5.2.5.5s-.2.5-.5.5h-9c-.3 0-.5-.2-.5-.5zM144 140.5c0-.3.2-.5.5-.5h9c.3 0 .5.2.5.5s-.2.5-.5.5h-9c-.3 0-.5-.2-.5-.5zM144 146.5c0-.3.2-.5.5-.5h9c.3 0 .5.2.5.5s-.2.5-.5.5h-9c-.3 0-.5-.2-.5-.5zM144 152.5c0-.3.2-.5.5-.5h9c.3 0 .5.2.5.5s-.2.5-.5.5h-9c-.3 0-.5-.2-.5-.5zM144 158.5c0-.3.2-.5.5-.5h9c.3 0 .5.2.5.5s-.2.5-.5.5h-9c-.3 0-.5-.2-.5-.5zM144 164.5c0-.3.2-.5.5-.5h9c.3 0 .5.2.5.5s-.2.5-.5.5h-9c-.3 0-.5-.2-.5-.5zM144 170.5c0-.3.2-.5.5-.5h9c.3 0 .5.2.5.5s-.2.5-.5.5h-9c-.3 0-.5-.2-.5-.5zM162 116.5c0-.3.2-.5.5-.5h9c.3 0 .5.2.5.5s-.2.5-.5.5h-9c-.3 0-.5-.2-.5-.5zM162 122.5c0-.3.2-.5.5-.5h9c.3 0 .5.2.5.5s-.2.5-.5.5h-9c-.3 0-.5-.2-.5-.5zM162 128.5c0-.3.2-.5.5-.5h9c.3 0 .5.2.5.5s-.2.5-.5.5h-9c-.3 0-.5-.2-.5-.5zM162 134.5c0-.3.2-.5.5-.5h9c.3 0 .5.2.5.5s-.2.5-.5.5h-9c-.3 0-.5-.2-.5-.5zM162 140.5c0-.3.2-.5.5-.5h9c.3 0 .5.2.5.5s-.2.5-.5.5h-9c-.3 0-.5-.2-.5-.5zM162 146.5c0-.3.2-.5.5-.5h9c.3 0 .5.2.5.5s-.2.5-.5.5h-9c-.3 0-.5-.2-.5-.5zM162 152.5c0-.3.2-.5.5-.5h9c.3 0 .5.2.5.5s-.2.5-.5.5h-9c-.3 0-.5-.2-.5-.5zM162 158.5c0-.3.2-.5.5-.5h9c.3 0 .5.2.5.5s-.2.5-.5.5h-9c-.3 0-.5-.2-.5-.5zM162 164.5c0-.3.2-.5.5-.5h9c.3 0 .5.2.5.5s-.2.5-.5.5h-9c-.3 0-.5-.2-.5-.5zM162 170.5c0-.3.2-.5.5-.5h9c.3 0 .5.2.5.5s-.2.5-.5.5h-9c-.3 0-.5-.2-.5-.5zM180 116.5c0-.3.2-.5.5-.5h9c.3 0 .5.2.5.5s-.2.5-.5.5h-9c-.3 0-.5-.2-.5-.5zM180 122.5c0-.3.2-.5.5-.5h9c.3 0 .5.2.5.5s-.2.5-.5.5h-9c-.3 0-.5-.2-.5-.5zM180 128.5c0-.3.2-.5.5-.5h9c.3 0 .5.2.5.5s-.2.5-.5.5h-9c-.3 0-.5-.2-.5-.5zM180 134.5c0-.3.2-.5.5-.5h9c.3 0 .5.2.5.5s-.2.5-.5.5h-9c-.3 0-.5-.2-.5-.5zM180 140.5c0-.3.2-.5.5-.5h9c.3 0 .5.2.5.5s-.2.5-.5.5h-9c-.3 0-.5-.2-.5-.5zM180 146.5c0-.3.2-.5.5-.5h9c.3 0 .5.2.5.5s-.2.5-.5.5h-9c-.3 0-.5-.2-.5-.5zM180 152.5c0-.3.2-.5.5-.5h9c.3 0 .5.2.5.5s-.2.5-.5.5h-9c-.3 0-.5-.2-.5-.5zM180 158.5c0-.3.2-.5.5-.5h9c.3 0 .5.2.5.5s-.2.5-.5.5h-9c-.3 0-.5-.2-.5-.5zM180 164.5c0-.3.2-.5.5-.5h9c.3 0 .5.2.5.5s-.2.5-.5.5h-9c-.3 0-.5-.2-.5-.5zM180 170.5c0-.3.2-.5.5-.5h9c.3 0 .5.2.5.5s-.2.5-.5.5h-9c-.3 0-.5-.2-.5-.5zM198 116.5c0-.3.2-.5.5-.5h8c.3 0 .5.2.5.5s-.2.5-.5.5h-8c-.3 0-.5-.2-.5-.5zM198 122.5c0-.3.2-.5.5-.5h8c.3 0 .5.2.5.5s-.2.5-.5.5h-8c-.3 0-.5-.2-.5-.5zM198 128.5c0-.3.2-.5.5-.5h8c.3 0 .5.2.5.5s-.2.5-.5.5h-8c-.3 0-.5-.2-.5-.5zM198 134.5c0-.3.2-.5.5-.5h8c.3 0 .5.2.5.5s-.2.5-.5.5h-8c-.3 0-.5-.2-.5-.5zM198 140.5c0-.3.2-.5.5-.5h8c.3 0 .5.2.5.5s-.2.5-.5.5h-8c-.3 0-.5-.2-.5-.5zM198 146.5c0-.3.2-.5.5-.5h8c.3 0 .5.2.5.5s-.2.5-.5.5h-8c-.3 0-.5-.2-.5-.5zM198 152.5c0-.3.2-.5.5-.5h8c.3 0 .5.2.5.5s-.2.5-.5.5h-8c-.3 0-.5-.2-.5-.5zM198 158.5c0-.3.2-.5.5-.5h8c.3 0 .5.2.5.5s-.2.5-.5.5h-8c-.3 0-.5-.2-.5-.5zM198 164.5c0-.3.2-.5.5-.5h8c.3 0 .5.2.5.5s-.2.5-.5.5h-8c-.3 0-.5-.2-.5-.5zM198 170.5c0-.3.2-.5.5-.5h8c.3 0 .5.2.5.5s-.2.5-.5.5h-8c-.3 0-.5-.2-.5-.5z"/><path class="st1" d="M13 24.5c0-.3-.2-.5-.5-.5h-2c-.3 0-.5.2-.5.5s.2.5.5.5h2c.3 0 .5-.2.5-.5zM13 30.5c0-.3-.2-.5-.5-.5h-2c-.3 0-.5.2-.5.5s.2.5.5.5h2c.3 0 .5-.2.5-.5zM13 36.5c0-.3-.2-.5-.5-.5h-2c-.3 0-.5.2-.5.5s.2.5.5.5h2c.3 0 .5-.2.5-.5zM13 42.5c0-.3-.2-.5-.5-.5h-2c-.3 0-.5.2-.5.5s.2.5.5.5h2c.3 0 .5-.2.5-.5zM13 48.5c0-.3-.2-.5-.5-.5h-2c-.3 0-.5.2-.5.5s.2.5.5.5h2c.3 0 .5-.2.5-.5zM13 54.5c0-.3-.2-.5-.5-.5h-2c-.3 0-.5.2-.5.5s.2.5.5.5h2c.3 0 .5-.2.5-.5zM13 64.5c0-.3-.2-.5-.5-.5h-2c-.3 0-.5.2-.5.5s.2.5.5.5h2c.3 0 .5-.2.5-.5zM13 70.5c0-.3-.2-.5-.5-.5h-2c-.3 0-.5.2-.5.5s.2.5.5.5h2c.3 0 .5-.2.5-.5zM13 76.5c0-.3-.2-.5-.5-.5h-2c-.3 0-.5.2-.5.5s.2.5.5.5h2c.3 0 .5-.2.5-.5zM13 87.5c0-.3-.2-.5-.5-.5h-2c-.3 0-.5.2-.5.5s.2.5.5.5h2c.3 0 .5-.2.5-.5z"/><path class="st5" d="M9 10h4c.6 0 1 .4 1 1v4c0 .6-.4 1-1 1H9c-.6 0-1-.4-1-1v-4c0-.6.4-1 1-1z"/><path class="st3" d="M55.5 24h62c.8 0 1.5.7 1.5 1.5s-.7 1.5-1.5 1.5h-62c-.8 0-1.5-.7-1.5-1.5s.7-1.5 1.5-1.5z"/><path class="st5" d="M266 12h8c.6 0 1 .4 1 1v6c0 .6-.4 1-1 1h-8c-.6 0-1-.4-1-1v-6c0-.6.4-1 1-1z"/><path class="st0" d="m271.1 17.9-1.1-.6-1 .5h-.2l-.1-.1v-.1l.2-1.1-.8-.8-.1-.1v-.1l.1-.1h.1l1.2-.2.5-1.1.1-.1h.2l.1.1.5 1.1 1.2.2h.1l.1.1v.1l-.1.1-.8.8.2 1.1v.1l-.1.1-.3.1z"/><path class="st2" d="M3.7 189.4 3 2l282 2.4 4 189.6-285.3-4.6z"/><path class="st6" d="M287 191.8V2H1.7L1 192l286-.2z"/><path class="st2" d="M54.4 105c0-.9.7-1.6 1.6-1.6h156c.9 0 1.6.7 1.6 1.6v71c0 .9-.7 1.6-1.6 1.6H56c-.9 0-1.6-.7-1.6-1.6v-71z"/></g><g id="tagfills"><path class="st0" d="M223.1 104.8c0-.8.7-1.5 1.5-1.5h14.9v2.9h-14.9c-.9.1-1.5-.6-1.5-1.4z"/><path class="st1" d="M239.4 103.3H252v2.9h-12.6z"/><path class="st7" d="M252.1 103.3h5.9v2.9h-5.9z"/><path class="st0" d="M223.1 115.1c0-.8.7-1.5 1.5-1.5h24.6v2.9h-24.6c-.9 0-1.5-.6-1.5-1.4z"/><path class="st1" d="M249.1 113.6h13.4v2.9h-13.4z"/><path class="st7" d="M262.5 113.6h5.2v2.9h-5.2z"/><path class="st0" d="M223.1 125.3c0-.8.7-1.5 1.5-1.5h24.6v2.9h-24.6c-.9.1-1.5-.6-1.5-1.4z"/><path class="st1" d="M249.1 123.9h6.7v2.9h-6.7z"/><path class="st7" d="M255.8 123.9h6.7v2.9h-6.7z"/><path class="st0" d="M223.1 135.6c0-.8.7-1.5 1.5-1.5h24.6v2.9h-24.6c-.9.1-1.5-.6-1.5-1.4z"/><path class="st1" d="M249.1 134.1h13.4v2.9h-13.4z"/><path class="st7" d="M262.5 134.1h5.2v2.9h-5.2z"/><path class="st0" d="M223.1 145.9c0-.8.7-1.5 1.5-1.5h7.5v2.9h-7.5c-.9 0-1.5-.6-1.5-1.4z"/><path class="st1" d="M232 144.4h6.7v2.9H232z"/><path class="st7" d="M238.7 144.4h23.8v2.9h-23.8z"/></g><g id="tagoutlines"><path class="st2" d="M224.5 103.7h49.9c.6 0 1.1.5 1.1 1.1 0 .6-.5 1.1-1.1 1.1h-49.9c-.6 0-1.1-.5-1.1-1.1.1-.6.5-1.1 1.1-1.1zM224.5 114h49.9c.6 0 1.1.5 1.1 1.1 0 .6-.5 1.1-1.1 1.1h-49.9c-.6 0-1.1-.5-1.1-1.1.1-.6.5-1.1 1.1-1.1zM224.5 124.2h49.9c.6 0 1.1.5 1.1 1.1 0 .6-.5 1.1-1.1 1.1h-49.9c-.6 0-1.1-.5-1.1-1.1.1-.6.5-1.1 1.1-1.1zM224.5 134.5h49.9c.6 0 1.1.5 1.1 1.1 0 .6-.5 1.1-1.1 1.1h-49.9c-.6 0-1.1-.5-1.1-1.1.1-.6.5-1.1 1.1-1.1zM223.5 145.9c0-.6.5-1.1 1.1-1.1h49.9c.6 0 1.1.5 1.1 1.1s-.5 1.1-1.1 1.1h-49.9c-.7 0-1.1-.5-1.1-1.1z"/></g><g id="results"><path fill="#3E2C73"><animate repeatCount="indefinite" attributeName="d" dur="6s" values="M66,170.5c0-0.3,0.2-0.5,0.5-0.5h45c0.3,0,0.5,0.2,0.5,0.5s-0.2,0.5-0.5,0.5h-45C66.2,171,66,170.8,66,170.5z; M66,170.5c0-0.3,0.2-0.5,0.5-0.5h35.1c0.3,0,0.5,0.2,0.5,0.5s-0.2,0.5-0.5,0.5H66.5	C66.2,171,66,170.8,66,170.5z; M66,170.5c0-0.3,0.2-0.5,0.5-0.5h45c0.3,0,0.5,0.2,0.5,0.5s-0.2,0.5-0.5,0.5h-45C66.2,171,66,170.8,66,170.5z;"/></path><path fill="#3E2C73"><animate repeatCount="indefinite" attributeName="d" dur="6s" values="M66,164.5c0-0.3,0.2-0.5,0.5-0.5h34c0.3,0,0.5,0.2,0.5,0.5s-0.2,0.5-0.5,0.5h-34C66.2,165,66,164.8,66,164.5z; M66,164.5c0-0.3,0.2-0.5,0.5-0.5h51.4c0.3,0,0.5,0.2,0.5,0.5s-0.2,0.5-0.5,0.5H66.5	C66.2,165,66,164.8,66,164.5z; M66,164.5c0-0.3,0.2-0.5,0.5-0.5h34c0.3,0,0.5,0.2,0.5,0.5s-0.2,0.5-0.5,0.5h-34C66.2,165,66,164.8,66,164.5z;"/></path><path fill="#3E2C73"><animate repeatCount="indefinite" attributeName="d" dur="6s" values="M66,158.5c0-0.3,0.2-0.5,0.5-0.5h48c0.3,0,0.5,0.2,0.5,0.5s-0.2,0.5-0.5,0.5h-48C66.2,159,66,158.8,66,158.5z; M66,158.5c0-0.3,0.2-0.5,0.5-0.5h29.8c0.3,0,0.5,0.2,0.5,0.5s-0.2,0.5-0.5,0.5H66.5	C66.2,159,66,158.8,66,158.5z; M66,158.5c0-0.3,0.2-0.5,0.5-0.5h48c0.3,0,0.5,0.2,0.5,0.5s-0.2,0.5-0.5,0.5h-48C66.2,159,66,158.8,66,158.5z;"/></path><path fill="#3E2C73"><animate repeatCount="indefinite" attributeName="d" dur="6s" values="M66,152.5c0-0.3,0.2-0.5,0.5-0.5h29c0.3,0,0.5,0.2,0.5,0.5s-0.2,0.5-0.5,0.5h-29C66.2,153,66,152.8,66,152.5z; M66,152.5c0-0.3,0.2-0.5,0.5-0.5H112c0.3,0,0.5,0.2,0.5,0.5s-0.2,0.5-0.5,0.5H66.5C66.2,153,66,152.8,66,152.5	z; M66,152.5c0-0.3,0.2-0.5,0.5-0.5h29c0.3,0,0.5,0.2,0.5,0.5s-0.2,0.5-0.5,0.5h-29C66.2,153,66,152.8,66,152.5z;"/></path><path fill="#3E2C73"><animate repeatCount="indefinite" attributeName="d" dur="6s" values="M66,146.5c0-0.3,0.2-0.5,0.5-0.5h42c0.3,0,0.5,0.2,0.5,0.5s-0.2,0.5-0.5,0.5h-42C66.2,147,66,146.8,66,146.5z; M66,146.5c0-0.3,0.2-0.5,0.5-0.5h50.2c0.3,0,0.5,0.2,0.5,0.5s-0.2,0.5-0.5,0.5H66.5	C66.2,147,66,146.8,66,146.5z; M66,146.5c0-0.3,0.2-0.5,0.5-0.5h42c0.3,0,0.5,0.2,0.5,0.5s-0.2,0.5-0.5,0.5h-42C66.2,147,66,146.8,66,146.5z;"/></path><path fill="#3E2C73"><animate repeatCount="indefinite" attributeName="d" dur="6s" values="M66,140.5c0-0.3,0.2-0.5,0.5-0.5h48c0.3,0,0.5,0.2,0.5,0.5s-0.2,0.5-0.5,0.5h-48C66.2,141,66,140.8,66,140.5z; M66,140.5c0-0.3,0.2-0.5,0.5-0.5h29.2c0.3,0,0.5,0.2,0.5,0.5S96,141,95.8,141H66.5C66.2,141,66,140.8,66,140.5	z; M66,140.5c0-0.3,0.2-0.5,0.5-0.5h48c0.3,0,0.5,0.2,0.5,0.5s-0.2,0.5-0.5,0.5h-48C66.2,141,66,140.8,66,140.5z;"/></path><path fill="#3E2C73"><animate repeatCount="indefinite" attributeName="d" dur="6s" values="M66,134.5c0-0.3,0.2-0.5,0.5-0.5h36c0.3,0,0.5,0.2,0.5,0.5s-0.2,0.5-0.5,0.5h-36C66.2,135,66,134.8,66,134.5z; M66,134.5c0-0.3,0.2-0.5,0.5-0.5h50.2c0.3,0,0.5,0.2,0.5,0.5s-0.2,0.5-0.5,0.5H66.5	C66.2,135,66,134.8,66,134.5z; M66,134.5c0-0.3,0.2-0.5,0.5-0.5h36c0.3,0,0.5,0.2,0.5,0.5s-0.2,0.5-0.5,0.5h-36C66.2,135,66,134.8,66,134.5z;"/></path><path fill="#3E2C73"><animate repeatCount="indefinite" attributeName="d" dur="6s" values="M66,128.5c0-0.3,0.2-0.5,0.5-0.5h45c0.3,0,0.5,0.2,0.5,0.5s-0.2,0.5-0.5,0.5h-45C66.2,129,66,128.8,66,128.5z; M66,128.5c0-0.3,0.2-0.5,0.5-0.5h38.4c0.3,0,0.5,0.2,0.5,0.5s-0.2,0.5-0.5,0.5H66.5	C66.2,129,66,128.8,66,128.5z; M66,128.5c0-0.3,0.2-0.5,0.5-0.5h45c0.3,0,0.5,0.2,0.5,0.5s-0.2,0.5-0.5,0.5h-45C66.2,129,66,128.8,66,128.5z;"/></path><path fill="#3E2C73"><animate repeatCount="indefinite" attributeName="d" dur="6s" values="M66,122.5c0-0.3,0.2-0.5,0.5-0.5h50c0.3,0,0.5,0.2,0.5,0.5s-0.2,0.5-0.5,0.5h-50C66.2,123,66,122.8,66,122.5z; M66,122.5c0-0.3,0.2-0.5,0.5-0.5h31.2c0.3,0,0.5,0.2,0.5,0.5S98,123,97.7,123H66.5C66.2,123,66,122.8,66,122.5	z; M66,122.5c0-0.3,0.2-0.5,0.5-0.5h50c0.3,0,0.5,0.2,0.5,0.5s-0.2,0.5-0.5,0.5h-50C66.2,123,66,122.8,66,122.5z;"/></path><path fill="#3E2C73"><animate repeatCount="indefinite" attributeName="d" dur="6s" values="M66,116.5c0-0.3,0.2-0.5,0.5-0.5h40c0.3,0,0.5,0.2,0.5,0.5s-0.2,0.5-0.5,0.5h-40C66.2,117,66,116.8,66,116.5z; M66,116.5c0-0.3,0.2-0.5,0.5-0.5h45.2c0.3,0,0.5,0.2,0.5,0.5s-0.2,0.5-0.5,0.5H66.5	C66.2,117,66,116.8,66,116.5z; M66,116.5c0-0.3,0.2-0.5,0.5-0.5h40c0.3,0,0.5,0.2,0.5,0.5s-0.2,0.5-0.5,0.5h-40C66.2,117,66,116.8,66,116.5z;"/></path></g><path fill="#E1567C"><animate repeatCount="indefinite" attributeName="d" dur="6s" values="M57.8,87.3l-3,0.7c-0.5,0.1-0.8,0.5-0.8,1v6h222V81.1c0-0.7-0.8-1.2-1.4-0.9l-3.4,1.6c-0.1,0-0.1,0-0.2,0.1 l-4,1c-0.2,0.1-0.4,0-0.6,0l-4-1.7c-0.1,0-0.2-0.1-0.4-0.1l-4.2-0.2l-3.9,0.1c-0.3,0-0.6-0.1-0.8-0.4l-3.8-5.2 c-0.2-0.3-0.5-0.4-0.8-0.4l-3.9,0.1l-4.4,0l-3.8,0.2c-0.4,0-0.7-0.2-0.9-0.5l-4-7.2c-0.1-0.2-0.2-0.3-0.4-0.4l-3.8-1.9 c-0.3-0.1-0.4-0.4-0.5-0.6l-3.2-12.3c-0.3-1-1.8-1-2,0.1L218,73c-0.1,0.4-0.3,0.7-0.7,0.8l-3.7,1.3c-0.1,0-0.3,0.1-0.4,0.1 l-3.7-0.3c-0.3,0-0.6,0.1-0.8,0.3l-3.6,4.3c-0.3,0.3-0.7,0.4-1.1,0.3l-3.5-1.3c-0.2-0.1-0.3-0.1-0.5,0l-4,0.7 c-0.1,0-0.2,0.1-0.3,0.1l-4.3,2.4l-4.2,2c-0.1,0.1-0.2,0.1-0.4,0.1l-4.1,0.2c-0.1,0-0.1,0-0.2,0l-3.7-0.5c-0.4-0.1-0.7-0.3-0.8-0.7 l-4.3-16l-3.1-7.3c-0.4-0.9-1.7-0.8-1.9,0.2L165,81.2c-0.1,0.7-0.9,1.1-1.5,0.7l-2.9-1.7c-0.2-0.1-0.4-0.2-0.7-0.1l-4.1,0.6 l-4.4,0.3l-4.2,0.1c-0.2,0-0.3,0-0.5-0.1l-3.7-1.8c-0.3-0.2-0.7-0.1-1,0.1l-3.8,2.5c-0.1,0.1-0.2,0.1-0.3,0.1l-4,1 c-0.2,0-0.4,0-0.5,0l-4.1-1.2c-0.1,0-0.2,0-0.2,0l-4.2-0.2c-0.1,0-0.1,0-0.2,0l-3.4,0.6c-0.5,0.1-1-0.2-1.1-0.7l-3-11.2 c-0.3-1-1.6-1-1.9,0l-3.5,12c-0.1,0.4-0.5,0.7-0.9,0.7l-3.6,0.1c-0.1,0-0.2,0-0.2,0l-4.2-0.9c-0.1,0-0.2,0-0.3,0l-4.3,0.2L94,81.6 c-0.1,0-0.1,0-0.2,0l-4-1.2c-0.2-0.1-0.4-0.1-0.6,0l-4,1.5c0,0-0.1,0-0.1,0l-4.4,0.9l-4.3,0.8c-0.1,0-0.1,0-0.2,0l-4.1-0.2 c-0.1,0-0.3,0-0.4-0.1l-4.2-2.1c-0.1,0-0.1,0-0.2-0.1l-6-1.8c-0.6-0.2-1.1,0.2-1.3,0.8l-1.4,6.4C58.5,86.9,58.2,87.2,57.8,87.3z; M57.8,82.4l-3,0.1c-0.5,0-0.8,0.1-0.8,0.2V95h222V81.4c0-0.1-0.8-0.2-1.4-0.1l-3.4,0.3c-0.1,0-0.1,0-0.2,0 l-4,0.2c-0.2,0-0.4,0-0.6,0l-4-0.3c-0.1,0-0.2,0-0.4,0l-4.2,0l-3.9,0c-0.3,0-0.6,0-0.8-0.1l-3.8-0.8c-0.2,0-0.5-0.1-0.8-0.1l-3.9,0 l-4.4,0l-3.8,0c-0.4,0-0.7,0-0.9-0.1l-4-1.2c-0.1,0-0.2-0.1-0.4-0.1l-3.8-0.3c-0.3,0-0.4-0.1-0.5-0.1l-3.2-2c-0.3-0.2-1.8-0.2-2,0 L218,80c-0.1,0.1-0.3,0.1-0.7,0.1l-3.7,0.2c-0.1,0-0.3,0-0.4,0l-3.7,0c-0.3,0-0.6,0-0.8,0.1l-3.6,0.7c-0.3,0.1-0.7,0.1-1.1,0 l-3.5-0.2c-0.2,0-0.3,0-0.5,0l-4,0.1c-0.1,0-0.2,0-0.3,0l-4.3,0.4l-4.2,0.3c-0.1,0-0.2,0-0.4,0l-4.1,0c-0.1,0-0.1,0-0.2,0l-3.7-0.1 c-0.4,0-0.7-0.1-0.8-0.1l-4.3-2.6l-3.1-1.2c-0.4-0.1-1.7-0.1-1.9,0l-3.6,3.5c-0.1,0.1-0.9,0.2-1.5,0.1l-2.9-0.3c-0.2,0-0.4,0-0.7,0 l-4.1,0.1l-4.4,0.1l-4.2,0c-0.2,0-0.3,0-0.5,0l-3.7-0.3c-0.3,0-0.7,0-1,0l-3.8,0.4c-0.1,0-0.2,0-0.3,0l-4,0.2c-0.2,0-0.4,0-0.5,0 l-4.1-0.2c-0.1,0-0.2,0-0.2,0l-4.2,0c-0.1,0-0.1,0-0.2,0l-3.4,0.1c-0.5,0-1,0-1.1-0.1l-3-1.8c-0.3-0.2-1.6-0.2-1.9,0l-3.5,1.9 c-0.1,0.1-0.5,0.1-0.9,0.1l-3.6,0c-0.1,0-0.2,0-0.2,0l-4.2-0.2c-0.1,0-0.2,0-0.3,0l-4.3,0L94,81.4c-0.1,0-0.1,0-0.2,0l-4-0.2 c-0.2,0-0.4,0-0.6,0l-4,0.2c0,0-0.1,0-0.1,0l-4.4,0.2l-4.3,0.1c-0.1,0-0.1,0-0.2,0l-4.1,0c-0.1,0-0.3,0-0.4,0l-4.2-0.3 c-0.1,0-0.1,0-0.2,0l-6-0.3c-0.6,0-1.1,0-1.3,0.1l-1.4,1C58.5,82.3,58.2,82.3,57.8,82.4z; M57.8,87.3l-3,0.7c-0.5,0.1-0.8,0.5-0.8,1v6h222V81.1c0-0.7-0.8-1.2-1.4-0.9l-3.4,1.6c-0.1,0-0.1,0-0.2,0.1 l-4,1c-0.2,0.1-0.4,0-0.6,0l-4-1.7c-0.1,0-0.2-0.1-0.4-0.1l-4.2-0.2l-3.9,0.1c-0.3,0-0.6-0.1-0.8-0.4l-3.8-5.2 c-0.2-0.3-0.5-0.4-0.8-0.4l-3.9,0.1l-4.4,0l-3.8,0.2c-0.4,0-0.7-0.2-0.9-0.5l-4-7.2c-0.1-0.2-0.2-0.3-0.4-0.4l-3.8-1.9 c-0.3-0.1-0.4-0.4-0.5-0.6l-3.2-12.3c-0.3-1-1.8-1-2,0.1L218,73c-0.1,0.4-0.3,0.7-0.7,0.8l-3.7,1.3c-0.1,0-0.3,0.1-0.4,0.1 l-3.7-0.3c-0.3,0-0.6,0.1-0.8,0.3l-3.6,4.3c-0.3,0.3-0.7,0.4-1.1,0.3l-3.5-1.3c-0.2-0.1-0.3-0.1-0.5,0l-4,0.7 c-0.1,0-0.2,0.1-0.3,0.1l-4.3,2.4l-4.2,2c-0.1,0.1-0.2,0.1-0.4,0.1l-4.1,0.2c-0.1,0-0.1,0-0.2,0l-3.7-0.5c-0.4-0.1-0.7-0.3-0.8-0.7 l-4.3-16l-3.1-7.3c-0.4-0.9-1.7-0.8-1.9,0.2L165,81.2c-0.1,0.7-0.9,1.1-1.5,0.7l-2.9-1.7c-0.2-0.1-0.4-0.2-0.7-0.1l-4.1,0.6 l-4.4,0.3l-4.2,0.1c-0.2,0-0.3,0-0.5-0.1l-3.7-1.8c-0.3-0.2-0.7-0.1-1,0.1l-3.8,2.5c-0.1,0.1-0.2,0.1-0.3,0.1l-4,1 c-0.2,0-0.4,0-0.5,0l-4.1-1.2c-0.1,0-0.2,0-0.2,0l-4.2-0.2c-0.1,0-0.1,0-0.2,0l-3.4,0.6c-0.5,0.1-1-0.2-1.1-0.7l-3-11.2 c-0.3-1-1.6-1-1.9,0l-3.5,12c-0.1,0.4-0.5,0.7-0.9,0.7l-3.6,0.1c-0.1,0-0.2,0-0.2,0l-4.2-0.9c-0.1,0-0.2,0-0.3,0l-4.3,0.2L94,81.6 c-0.1,0-0.1,0-0.2,0l-4-1.2c-0.2-0.1-0.4-0.1-0.6,0l-4,1.5c0,0-0.1,0-0.1,0l-4.4,0.9l-4.3,0.8c-0.1,0-0.1,0-0.2,0l-4.1-0.2 c-0.1,0-0.3,0-0.4-0.1l-4.2-2.1c-0.1,0-0.1,0-0.2-0.1l-6-1.8c-0.6-0.2-1.1,0.2-1.3,0.8l-1.4,6.4C58.5,86.9,58.2,87.2,57.8,87.3z;"/></path></svg>
