<svg xmlns="http://www.w3.org/2000/svg" viewBox="0 0 342 143" style="enable-background:new 0 0 342 143" xml:space="preserve"><style>@keyframes resultChange{0%,49%,to{transform:scaleX(1)}50%,74%{transform:scaleX(.7)}75%,99%{transform:scaleX(1.2)}}@keyframes type2{0%,49%,to{opacity:0}50%,99%{opacity:1}}@keyframes type3{0%,74%,to{opacity:0}75%,99%{opacity:1}}.st0{fill:#c1b2dd}.st2{fill:#5a4a79}.st3{fill:#3e2c73}.type{fill:#ff7738}</style><path class="st0" d="M1 30h340v19H1z" id="highlight"/><path d="M339.1 139.9 339 5.1a2 2 0 0 0-2-2L4.8 4.1a2 2 0 0 0-2 2l-.7 132.6c0 1.1.9 2 2 2l333 1.2a2 2 0 0 0 2-2z" style="fill:none;stroke:#3e2c73;stroke-width:.75" id="border"/><g id="markers"><path class="st2" d="M13 39h8c.6 0 1 .4 1 1s-.4 1-1 1h-8c-.6 0-1-.4-1-1s.4-1 1-1z"/><path class="st0" d="M13 60h8c.6 0 1 .4 1 1s-.4 1-1 1h-8c-.6 0-1-.4-1-1s.4-1 1-1zM13 71h8c.6 0 1 .4 1 1s-.4 1-1 1h-8c-.6 0-1-.4-1-1s.4-1 1-1zM13 82h8c.6 0 1 .4 1 1s-.4 1-1 1h-8c-.6 0-1-.4-1-1s.4-1 1-1zM13 93h8c.6 0 1 .4 1 1s-.4 1-1 1h-8c-.6 0-1-.4-1-1s.4-1 1-1zM13 104h8c.6 0 1 .4 1 1s-.4 1-1 1h-8c-.6 0-1-.4-1-1s.4-1 1-1zM13 115h8c.6 0 1 .4 1 1s-.4 1-1 1h-8c-.6 0-1-.4-1-1s.4-1 1-1zM13 126h8c.6 0 1 .4 1 1s-.4 1-1 1h-8c-.6 0-1-.4-1-1s.4-1 1-1z"/></g><g id="results" style="transform-origin:10% center;animation:resultChange 4s infinite"><path class="st2" d="M34 39h85c.6 0 1 .4 1 1s-.4 1-1 1H34c-.6 0-1-.4-1-1s.4-1 1-1z"/><path class="st3" d="M34 60h73c.6 0 1 .4 1 1s-.4 1-1 1H34c-.6 0-1-.4-1-1s.4-1 1-1zM34 71h162c.6 0 1 .4 1 1s-.4 1-1 1H34c-.6 0-1-.4-1-1s.4-1 1-1zM34 82h185c.6 0 1 .4 1 1s-.4 1-1 1H34c-.6 0-1-.4-1-1s.4-1 1-1zM34 93h61c.6 0 1 .4 1 1s-.4 1-1 1H34c-.6 0-1-.4-1-1s.4-1 1-1zM34 104h118c.6 0 1 .4 1 1s-.4 1-1 1H34c-.6 0-1-.4-1-1s.4-1 1-1zM34 115h39c.6 0 1 .4 1 1s-.4 1-1 1H34c-.6 0-1-.4-1-1s.4-1 1-1zM34 126h96c.6 0 1 .4 1 1s-.4 1-1 1H34c-.6 0-1-.4-1-1s.4-1 1-1z"/></g><g id="search"><path d="M1.7 24.5 1.1 3.1c0-1.1.9-2 2-2L338 3.4c1.1 0 2 .9 2 1.9l.6 20.7c0 1.1-.9 2.1-2 2.1l-335-1.6c-1 0-1.9-.9-1.9-2z" style="fill:none;stroke:#ff7738;stroke-width:1.5"/><path class="st3" d="m19.6 15.3 3.1 3.1c.4.4.4.9 0 1.3s-.9.4-1.3 0l-3.1-3.1a4 4 0 0 1-2.2.6c-2.3 0-4.1-1.8-4.1-4.1S13.8 9 16.1 9s4.1 1.8 4.1 4.1a4 4 0 0 1-.6 2.2zm-3.5.1c1.3 0 2.3-1 2.3-2.3s-1-2.3-2.3-2.3-2.3 1-2.3 2.3 1 2.3 2.3 2.3z"/></g><path class="type type1" d="M34 13h55c.6 0 1 .4 1 1s-.4 1-1 1H34c-.6 0-1-.4-1-1s.4-1 1-1z"/></svg>
