<svg xmlns="http://www.w3.org/2000/svg" viewBox="0 0 359 194" style="enable-background:new 0 0 359 194" xml:space="preserve"><style>@keyframes fadeIn{0%,38%,44%,to{transform:translateY(0)}40%{transform:translateY(2px) scale(.99)}}.st0{fill:#fff}.st1{fill:#ede7f5}.st2{fill:#c1b2dd}.st3{fill:#3e2c73}.st4,.st5{fill:none;stroke:#3e2c73;stroke-width:.75}.st5{stroke:#ff7738;stroke-width:1.5}.query{animation:fadeIn 6s ease-in infinite;transform-origin:center center}</style><g id="query3" class="query query3"><path class="st0" d="M219 116.1 218.1 5a2 2 0 0 0-2-2H7.1a2 2 0 0 0-2 2L4 117c0 1.1.9 2 2 2l211-.8c1.1-.1 2-1 2-2.1z"/><path class="st1" d="M0 39h224v57H0z"/><path class="st2" d="M193 12h14a2 2 0 0 1 2 2v14a2 2 0 0 1-2 2h-14a2 2 0 0 1-2-2V14c0-1.1.9-2 2-2z"/><path class="st3" d="M19.5 16h102c.8 0 1.5.7 1.5 1.5s-.7 1.5-1.5 1.5h-102c-.8 0-1.5-.7-1.5-1.5s.7-1.5 1.5-1.5z"/><path class="st2" d="M19.5 23h62c.8 0 1.5.7 1.5 1.5s-.7 1.5-1.5 1.5h-62c-.8 0-1.5-.7-1.5-1.5s.7-1.5 1.5-1.5zM19 106h28c.6 0 1 .4 1 1s-.4 1-1 1H19c-.6 0-1-.4-1-1s.4-1 1-1zM54 106h68c.6 0 1 .4 1 1s-.4 1-1 1H54c-.6 0-1-.4-1-1s.4-1 1-1z"/><path class="st3" d="m214.7 87.5 4.3.9V94H4V81.2l4.8 1.9 4.2.9 4.3-1.6 4.3-.1 4.3.1 4.3-5 4.3.1h4.3l4.3.2 4.3-6.7 4.3-1.9L56 55l4.3 21.2 4.3 1.3 4.3-.3 4.3 4.3 4.3-1.4 4.3.6 4.3 2.1 4.3 1.7 4.3.1 4.3-.5 4.3-13.8 4.3-8.7 4.3 22 4.3-2.2 4.3.5 4.3.3 4.3.1 4.3-1.8 4.3 2.4 4.3.9 4.3-1.1 4.3-.2 4.3.6 4-12.9 4.6 13.4 4.3.1 4.3-.8 4.3.1 4.3-.3 4.3-1.1 4.3 1.4 4.3.8 4.3.7 4.3-.2 4.3-1.8 6.9-1.8 1.3 6.8z"/><path class="st4" d="M219 116.1 218.1 5a2 2 0 0 0-2-2H7.1a2 2 0 0 0-2 2L4 117c0 1.1.9 2 2 2l211-.8c1.1-.1 2-1 2-2.1z"/><path class="st5" d="M3 116.3 2 3c0-1.1.9-2 2-2h214.4a2 2 0 0 1 2 2l.5 116a2 2 0 0 1-2 2L5 118.2c-1.1 0-2-.8-2-1.9z"/><path class="st4" d="M191 10.4h14c.9 0 1.6.7 1.6 1.6v14c0 .9-.7 1.6-1.6 1.6h-14c-.9 0-1.6-.7-1.6-1.6V12c0-.9.7-1.6 1.6-1.6z"/></g><g id="query2" class="query" style="animation-delay:2s"><path class="st0" d="M354 150.1 353.1 39a2 2 0 0 0-2-2h-209a2 2 0 0 0-2 2L139 151c0 1.1.9 2 2 2l211-.8c1.1-.1 2-1 2-2.1z"/><path class="st1" d="M135 73h224v57H135z"/><path d="M328 46h14a2 2 0 0 1 2 2v14a2 2 0 0 1-2 2h-14a2 2 0 0 1-2-2V48c0-1.1.9-2 2-2z" style="fill:#5a4a79"/><path class="st3" d="M154.5 50h102c.8 0 1.5.7 1.5 1.5s-.7 1.5-1.5 1.5h-102c-.8 0-1.5-.7-1.5-1.5s.7-1.5 1.5-1.5z"/><path class="st2" d="M189 140h68c.6 0 1 .4 1 1s-.4 1-1 1h-68c-.6 0-1-.4-1-1s.4-1 1-1z"/><path class="st3" d="m143.3 125.2-4.3.4v2.5h215v-5.6l-4.8.8-4.3.4-4.3-.7-4.3-.1-4.3.1-4.3-2.2-4.3.1h-4.3l-4.3.1-4.3-2.9-4.3-.8-4.2-6.3-4.3 9.3-4.3.6-4.3-.1-4.3 1.9-4.3-.6-4.3.3-4.3.9-4.3.7-4.3.1-4.3-.2-4.3-6-4.3-3.8-4.3 9.6-4.3-1-4.3.2-4.3.1h-4.3l-4.3-.8-4.3 1-4.3.4-4.3-.5-4.3-.1-4.3.3-4-5.6-4.6 5.8h-4.3l-4.3-.4-4.3.1-4.3-.1-4.3-.5-4.3.6-4.3.3-4.3.3-4.3-.1-4.3-.8-6.9-.8-1.3 3.1z"/><path class="st4" d="M354 150.1 353.1 39a2 2 0 0 0-2-2h-209a2 2 0 0 0-2 2L139 151c0 1.1.9 2 2 2l211-.8c1.1-.1 2-1 2-2.1z"/><path class="st5" d="M138 150.3 137 37c0-1.1.9-2 2-2h214.4a2 2 0 0 1 2 2l.5 116a2 2 0 0 1-2 2l-214-2.7c-1-.1-1.9-.9-1.9-2z"/><path class="st4" d="M326 44.4h14c.9 0 1.6.7 1.6 1.6v14c0 .9-.7 1.6-1.6 1.6h-14c-.9 0-1.6-.7-1.6-1.6V46c0-.9.7-1.6 1.6-1.6z"/><path class="st2" d="M154 140h28c.6 0 1 .4 1 1s-.4 1-1 1h-28c-.6 0-1-.4-1-1s.4-1 1-1zM154.5 57h62c.8 0 1.5.7 1.5 1.5s-.7 1.5-1.5 1.5h-62c-.8 0-1.5-.7-1.5-1.5s.7-1.5 1.5-1.5z"/></g><g id="query1" class="query" style="animation-delay:4s"><path class="st0" d="M256 188.1 255.1 77a2 2 0 0 0-2-2h-209a2 2 0 0 0-2 2L41 189c0 1.1.9 2 2 2l211-.8c1.1-.1 2-1 2-2.1z"/><path class="st1" d="M37 111h224v57H37z"/><path d="M230 84h14a2 2 0 0 1 2 2v14a2 2 0 0 1-2 2h-14a2 2 0 0 1-2-2V86c0-1.1.9-2 2-2z" style="fill:#ff7738"/><path class="st3" d="M56.5 88h102c.8 0 1.5.7 1.5 1.5s-.7 1.5-1.5 1.5h-102c-.8 0-1.5-.7-1.5-1.5s.7-1.5 1.5-1.5z"/><path class="st2" d="M56.5 95h62c.8 0 1.5.7 1.5 1.5s-.7 1.5-1.5 1.5h-62c-.8 0-1.5-.7-1.5-1.5s.7-1.5 1.5-1.5zM56 178h28c.6 0 1 .4 1 1s-.4 1-1 1H56c-.6 0-1-.4-1-1s.4-1 1-1zM91 178h68c.6 0 1 .4 1 1s-.4 1-1 1H91c-.6 0-1-.4-1-1s.4-1 1-1z"/><path class="st3" d="m45.3 159.5-4.3.9v5.6h215v-12.8l-4.8 1.9-4.2.9-4.3-1.6-4.3-.1-4.3.1-4.3-5-4.3.1h-4.3l-4.3.2-4.3-6.7-4.3-1.9L204 127l-4.3 21.2-4.3 1.3-4.3-.3-4.3 4.3-4.3-1.4-4.3.6-4.3 2.1-4.3 1.7-4.3.1-4.3-.5-4.3-13.8-4.3-8.7-4.3 22-4.3-2.2-4.3.5-4.3.3-4.3.1-4.3-1.8-4.3 2.4-4.3.9-4.3-1.1-4.3-.2-4.3.6-4-12.9-4.6 13.4-4.3.1-4.3-.8-4.3.1-4.3-.3-4.3-1.1-4.3 1.4-4.3.8-4.3.7-4.3-.2-4.3-1.8-6.9-1.8-1.3 6.8z"/><path class="st4" d="M256 188.1 255.1 77a2 2 0 0 0-2-2h-209a2 2 0 0 0-2 2L41 189c0 1.1.9 2 2 2l211-.8c1.1-.1 2-1 2-2.1z"/><path class="st5" d="M40 188.3 39 75c0-1.1.9-2 2-2h214.4a2 2 0 0 1 2 2l.5 116a2 2 0 0 1-2 2l-214-2.7c-1-.1-1.9-.9-1.9-2z"/><path class="st4" d="M228 82.4h14c.9 0 1.6.7 1.6 1.6v14c0 .9-.7 1.6-1.6 1.6h-14c-.9 0-1.6-.7-1.6-1.6V84c0-.9.7-1.6 1.6-1.6z"/></g></svg>
