<svg xmlns="http://www.w3.org/2000/svg" viewBox="0 0 290 195" style="enable-background:new 0 0 290 195" xml:space="preserve"><style>.st0{fill:#3e2c73}.st1{fill:#c1b2dd}.st2{fill:none;stroke:#3e2c73;stroke-width:.75}.st3{fill:#5a4a79}.st4{fill:#ff7738}.st5{fill:#fff}.st7{fill:#ede7f5}</style><g id="background"><path class="st0" d="M0 1h42v193H0V1z"/><path class="st1" d="M43 .7 287 0a3 3 0 0 1 3 3v29.3L43 33V.7z"/><path class="st2" d="M54.4 45c0 .3.3.6.6.6h220c.3 0 .6-.3.6-.6v-4c0-.3-.3-.6-.6-.6H55c-.3 0-.6.3-.6.6v4z"/><path class="st1" d="M53 104c0-1.1.9-2 2-2h156a2 2 0 0 1 2 2v6H53v-6z"/><path class="st3" d="M54 13c0-.6.4-1 1-1h16c.6 0 1 .4 1 1s-.4 1-1 1H55c-.6 0-1-.4-1-1zM78 13c0-.6.4-1 1-1h16c.6 0 1 .4 1 1s-.4 1-1 1H79c-.6 0-1-.4-1-1z"/><path class="st1" d="M17 24.5c0-.3.2-.5.5-.5h18c.3 0 .5.2.5.5s-.2.5-.5.5h-18c-.3 0-.5-.2-.5-.5zM17 13c0-.6.4-1 1-1h17c.6 0 1 .4 1 1s-.4 1-1 1H18c-.6 0-1-.4-1-1zM17 30.5c0-.3.2-.5.5-.5h18c.3 0 .5.2.5.5s-.2.5-.5.5h-18c-.3 0-.5-.2-.5-.5zM17 36.5c0-.3.2-.5.5-.5h18c.3 0 .5.2.5.5s-.2.5-.5.5h-18c-.3 0-.5-.2-.5-.5zM17 42.5c0-.3.2-.5.5-.5h18c.3 0 .5.2.5.5s-.2.5-.5.5h-18c-.3 0-.5-.2-.5-.5zM17 48.5c0-.3.2-.5.5-.5h18c.3 0 .5.2.5.5s-.2.5-.5.5h-18c-.3 0-.5-.2-.5-.5zM17 54.5c0-.3.2-.5.5-.5h18c.3 0 .5.2.5.5s-.2.5-.5.5h-18c-.3 0-.5-.2-.5-.5zM17 64.5c0-.3.2-.5.5-.5h18c.3 0 .5.2.5.5s-.2.5-.5.5h-18c-.3 0-.5-.2-.5-.5zM17 70.5c0-.3.2-.5.5-.5h18c.3 0 .5.2.5.5s-.2.5-.5.5h-18c-.3 0-.5-.2-.5-.5zM17 76.5c0-.3.2-.5.5-.5h18c.3 0 .5.2.5.5s-.2.5-.5.5h-18c-.3 0-.5-.2-.5-.5zM17 87.5c0-.3.2-.5.5-.5h18c.3 0 .5.2.5.5s-.2.5-.5.5h-18c-.3 0-.5-.2-.5-.5z"/><path class="st4" d="M62 116.5c0-.3-.2-.5-.5-.5h-1c-.3 0-.5.2-.5.5s.2.5.5.5h1c.3 0 .5-.2.5-.5zM62 122.5c0-.3-.2-.5-.5-.5h-1c-.3 0-.5.2-.5.5s.2.5.5.5h1c.3 0 .5-.2.5-.5zM62 128.5c0-.3-.2-.5-.5-.5h-1c-.3 0-.5.2-.5.5s.2.5.5.5h1c.3 0 .5-.2.5-.5zM62 134.5c0-.3-.2-.5-.5-.5h-1c-.3 0-.5.2-.5.5s.2.5.5.5h1c.3 0 .5-.2.5-.5zM62 140.5c0-.3-.2-.5-.5-.5h-1c-.3 0-.5.2-.5.5s.2.5.5.5h1c.3 0 .5-.2.5-.5zM62 146.5c0-.3-.2-.5-.5-.5h-1c-.3 0-.5.2-.5.5s.2.5.5.5h1c.3 0 .5-.2.5-.5zM62 152.5c0-.3-.2-.5-.5-.5h-1c-.3 0-.5.2-.5.5s.2.5.5.5h1c.3 0 .5-.2.5-.5zM62 158.5c0-.3-.2-.5-.5-.5h-1c-.3 0-.5.2-.5.5s.2.5.5.5h1c.3 0 .5-.2.5-.5zM62 164.5c0-.3-.2-.5-.5-.5h-1c-.3 0-.5.2-.5.5s.2.5.5.5h1c.3 0 .5-.2.5-.5zM62 170.5c0-.3-.2-.5-.5-.5h-1c-.3 0-.5.2-.5.5s.2.5.5.5h1c.3 0 .5-.2.5-.5z"/><path class="st0" d="M126 116.5c0-.3.2-.5.5-.5h9c.3 0 .5.2.5.5s-.2.5-.5.5h-9c-.3 0-.5-.2-.5-.5zM126 122.5c0-.3.2-.5.5-.5h9c.3 0 .5.2.5.5s-.2.5-.5.5h-9c-.3 0-.5-.2-.5-.5zM126 128.5c0-.3.2-.5.5-.5h9c.3 0 .5.2.5.5s-.2.5-.5.5h-9c-.3 0-.5-.2-.5-.5zM126 134.5c0-.3.2-.5.5-.5h9c.3 0 .5.2.5.5s-.2.5-.5.5h-9c-.3 0-.5-.2-.5-.5zM126 140.5c0-.3.2-.5.5-.5h9c.3 0 .5.2.5.5s-.2.5-.5.5h-9c-.3 0-.5-.2-.5-.5zM126 146.5c0-.3.2-.5.5-.5h9c.3 0 .5.2.5.5s-.2.5-.5.5h-9c-.3 0-.5-.2-.5-.5zM126 152.5c0-.3.2-.5.5-.5h9c.3 0 .5.2.5.5s-.2.5-.5.5h-9c-.3 0-.5-.2-.5-.5zM126 158.5c0-.3.2-.5.5-.5h9c.3 0 .5.2.5.5s-.2.5-.5.5h-9c-.3 0-.5-.2-.5-.5zM126 164.5c0-.3.2-.5.5-.5h9c.3 0 .5.2.5.5s-.2.5-.5.5h-9c-.3 0-.5-.2-.5-.5zM126 170.5c0-.3.2-.5.5-.5h9c.3 0 .5.2.5.5s-.2.5-.5.5h-9c-.3 0-.5-.2-.5-.5zM144 116.5c0-.3.2-.5.5-.5h9c.3 0 .5.2.5.5s-.2.5-.5.5h-9c-.3 0-.5-.2-.5-.5zM144 122.5c0-.3.2-.5.5-.5h9c.3 0 .5.2.5.5s-.2.5-.5.5h-9c-.3 0-.5-.2-.5-.5zM144 128.5c0-.3.2-.5.5-.5h9c.3 0 .5.2.5.5s-.2.5-.5.5h-9c-.3 0-.5-.2-.5-.5zM144 134.5c0-.3.2-.5.5-.5h9c.3 0 .5.2.5.5s-.2.5-.5.5h-9c-.3 0-.5-.2-.5-.5zM144 140.5c0-.3.2-.5.5-.5h9c.3 0 .5.2.5.5s-.2.5-.5.5h-9c-.3 0-.5-.2-.5-.5zM144 146.5c0-.3.2-.5.5-.5h9c.3 0 .5.2.5.5s-.2.5-.5.5h-9c-.3 0-.5-.2-.5-.5zM144 152.5c0-.3.2-.5.5-.5h9c.3 0 .5.2.5.5s-.2.5-.5.5h-9c-.3 0-.5-.2-.5-.5zM144 158.5c0-.3.2-.5.5-.5h9c.3 0 .5.2.5.5s-.2.5-.5.5h-9c-.3 0-.5-.2-.5-.5zM144 164.5c0-.3.2-.5.5-.5h9c.3 0 .5.2.5.5s-.2.5-.5.5h-9c-.3 0-.5-.2-.5-.5zM144 170.5c0-.3.2-.5.5-.5h9c.3 0 .5.2.5.5s-.2.5-.5.5h-9c-.3 0-.5-.2-.5-.5zM162 116.5c0-.3.2-.5.5-.5h9c.3 0 .5.2.5.5s-.2.5-.5.5h-9c-.3 0-.5-.2-.5-.5zM162 122.5c0-.3.2-.5.5-.5h9c.3 0 .5.2.5.5s-.2.5-.5.5h-9c-.3 0-.5-.2-.5-.5zM162 128.5c0-.3.2-.5.5-.5h9c.3 0 .5.2.5.5s-.2.5-.5.5h-9c-.3 0-.5-.2-.5-.5zM162 134.5c0-.3.2-.5.5-.5h9c.3 0 .5.2.5.5s-.2.5-.5.5h-9c-.3 0-.5-.2-.5-.5zM162 140.5c0-.3.2-.5.5-.5h9c.3 0 .5.2.5.5s-.2.5-.5.5h-9c-.3 0-.5-.2-.5-.5zM162 146.5c0-.3.2-.5.5-.5h9c.3 0 .5.2.5.5s-.2.5-.5.5h-9c-.3 0-.5-.2-.5-.5zM162 152.5c0-.3.2-.5.5-.5h9c.3 0 .5.2.5.5s-.2.5-.5.5h-9c-.3 0-.5-.2-.5-.5zM162 158.5c0-.3.2-.5.5-.5h9c.3 0 .5.2.5.5s-.2.5-.5.5h-9c-.3 0-.5-.2-.5-.5zM162 164.5c0-.3.2-.5.5-.5h9c.3 0 .5.2.5.5s-.2.5-.5.5h-9c-.3 0-.5-.2-.5-.5zM162 170.5c0-.3.2-.5.5-.5h9c.3 0 .5.2.5.5s-.2.5-.5.5h-9c-.3 0-.5-.2-.5-.5zM180 116.5c0-.3.2-.5.5-.5h9c.3 0 .5.2.5.5s-.2.5-.5.5h-9c-.3 0-.5-.2-.5-.5zM180 122.5c0-.3.2-.5.5-.5h9c.3 0 .5.2.5.5s-.2.5-.5.5h-9c-.3 0-.5-.2-.5-.5zM180 128.5c0-.3.2-.5.5-.5h9c.3 0 .5.2.5.5s-.2.5-.5.5h-9c-.3 0-.5-.2-.5-.5zM180 134.5c0-.3.2-.5.5-.5h9c.3 0 .5.2.5.5s-.2.5-.5.5h-9c-.3 0-.5-.2-.5-.5zM180 140.5c0-.3.2-.5.5-.5h9c.3 0 .5.2.5.5s-.2.5-.5.5h-9c-.3 0-.5-.2-.5-.5zM180 146.5c0-.3.2-.5.5-.5h9c.3 0 .5.2.5.5s-.2.5-.5.5h-9c-.3 0-.5-.2-.5-.5zM180 152.5c0-.3.2-.5.5-.5h9c.3 0 .5.2.5.5s-.2.5-.5.5h-9c-.3 0-.5-.2-.5-.5zM180 158.5c0-.3.2-.5.5-.5h9c.3 0 .5.2.5.5s-.2.5-.5.5h-9c-.3 0-.5-.2-.5-.5zM180 164.5c0-.3.2-.5.5-.5h9c.3 0 .5.2.5.5s-.2.5-.5.5h-9c-.3 0-.5-.2-.5-.5zM180 170.5c0-.3.2-.5.5-.5h9c.3 0 .5.2.5.5s-.2.5-.5.5h-9c-.3 0-.5-.2-.5-.5zM198 116.5c0-.3.2-.5.5-.5h8c.3 0 .5.2.5.5s-.2.5-.5.5h-8c-.3 0-.5-.2-.5-.5zM198 122.5c0-.3.2-.5.5-.5h8c.3 0 .5.2.5.5s-.2.5-.5.5h-8c-.3 0-.5-.2-.5-.5zM198 128.5c0-.3.2-.5.5-.5h8c.3 0 .5.2.5.5s-.2.5-.5.5h-8c-.3 0-.5-.2-.5-.5zM198 134.5c0-.3.2-.5.5-.5h8c.3 0 .5.2.5.5s-.2.5-.5.5h-8c-.3 0-.5-.2-.5-.5zM198 140.5c0-.3.2-.5.5-.5h8c.3 0 .5.2.5.5s-.2.5-.5.5h-8c-.3 0-.5-.2-.5-.5zM198 146.5c0-.3.2-.5.5-.5h8c.3 0 .5.2.5.5s-.2.5-.5.5h-8c-.3 0-.5-.2-.5-.5zM198 152.5c0-.3.2-.5.5-.5h8c.3 0 .5.2.5.5s-.2.5-.5.5h-8c-.3 0-.5-.2-.5-.5zM198 158.5c0-.3.2-.5.5-.5h8c.3 0 .5.2.5.5s-.2.5-.5.5h-8c-.3 0-.5-.2-.5-.5zM198 164.5c0-.3.2-.5.5-.5h8c.3 0 .5.2.5.5s-.2.5-.5.5h-8c-.3 0-.5-.2-.5-.5zM198 170.5c0-.3.2-.5.5-.5h8c.3 0 .5.2.5.5s-.2.5-.5.5h-8c-.3 0-.5-.2-.5-.5z"/><path class="st1" d="M13 24.5c0-.3-.2-.5-.5-.5h-2c-.3 0-.5.2-.5.5s.2.5.5.5h2c.3 0 .5-.2.5-.5zM13 30.5c0-.3-.2-.5-.5-.5h-2c-.3 0-.5.2-.5.5s.2.5.5.5h2c.3 0 .5-.2.5-.5zM13 36.5c0-.3-.2-.5-.5-.5h-2c-.3 0-.5.2-.5.5s.2.5.5.5h2c.3 0 .5-.2.5-.5zM13 42.5c0-.3-.2-.5-.5-.5h-2c-.3 0-.5.2-.5.5s.2.5.5.5h2c.3 0 .5-.2.5-.5zM13 48.5c0-.3-.2-.5-.5-.5h-2c-.3 0-.5.2-.5.5s.2.5.5.5h2c.3 0 .5-.2.5-.5zM13 54.5c0-.3-.2-.5-.5-.5h-2c-.3 0-.5.2-.5.5s.2.5.5.5h2c.3 0 .5-.2.5-.5zM13 64.5c0-.3-.2-.5-.5-.5h-2c-.3 0-.5.2-.5.5s.2.5.5.5h2c.3 0 .5-.2.5-.5zM13 70.5c0-.3-.2-.5-.5-.5h-2c-.3 0-.5.2-.5.5s.2.5.5.5h2c.3 0 .5-.2.5-.5zM13 76.5c0-.3-.2-.5-.5-.5h-2c-.3 0-.5.2-.5.5s.2.5.5.5h2c.3 0 .5-.2.5-.5zM13 87.5c0-.3-.2-.5-.5-.5h-2c-.3 0-.5.2-.5.5s.2.5.5.5h2c.3 0 .5-.2.5-.5z"/><path class="st5" d="M9 10h4c.6 0 1 .4 1 1v4c0 .6-.4 1-1 1H9c-.6 0-1-.4-1-1v-4c0-.6.4-1 1-1z"/><path class="st3" d="M55.5 24h62c.8 0 1.5.7 1.5 1.5s-.7 1.5-1.5 1.5h-62c-.8 0-1.5-.7-1.5-1.5s.7-1.5 1.5-1.5z"/><path class="st5" d="M266 12h8c.6 0 1 .4 1 1v6c0 .6-.4 1-1 1h-8c-.6 0-1-.4-1-1v-6c0-.6.4-1 1-1z"/><path class="st0" d="m271.1 17.9-1.1-.6-1 .5h-.2l-.1-.1v-.1l.2-1.1-.8-.8-.1-.1v-.1l.1-.1h.1l1.2-.2.5-1.1.1-.1h.2l.1.1.5 1.1 1.2.2h.1l.1.1v.1l-.1.1-.8.8.2 1.1v.1l-.1.1-.3.1z"/><path class="st2" d="M3.7 189.4 3 2l282 2.4 4 189.6-285.3-4.6z"/><path d="M287 191.8V2H1.7L1 192l286-.2z" style="fill:none;stroke:#ff7738;stroke-width:1.5"/><path class="st2" d="M54.4 105c0-.9.7-1.6 1.6-1.6h156c.9 0 1.6.7 1.6 1.6v71c0 .9-.7 1.6-1.6 1.6H56c-.9 0-1.6-.7-1.6-1.6v-71z"/></g><g id="tagfills"><path class="st0" d="M223.1 104.8c0-.8.7-1.5 1.5-1.5h14.9v2.9h-14.9c-.9.1-1.5-.6-1.5-1.4z"/><path class="st1" d="M239.4 103.3H252v2.9h-12.6z"/><path class="st7" d="M252.1 103.3h5.9v2.9h-5.9z"/><path class="st0" d="M223.1 115.1c0-.8.7-1.5 1.5-1.5h24.6v2.9h-24.6c-.9 0-1.5-.6-1.5-1.4z"/><path class="st1" d="M249.1 113.6h13.4v2.9h-13.4z"/><path class="st7" d="M262.5 113.6h5.2v2.9h-5.2z"/><path class="st0" d="M223.1 125.3c0-.8.7-1.5 1.5-1.5h24.6v2.9h-24.6c-.9.1-1.5-.6-1.5-1.4z"/><path class="st1" d="M249.1 123.9h6.7v2.9h-6.7z"/><path class="st7" d="M255.8 123.9h6.7v2.9h-6.7z"/><path class="st0" d="M223.1 135.6c0-.8.7-1.5 1.5-1.5h24.6v2.9h-24.6c-.9.1-1.5-.6-1.5-1.4z"/><path class="st1" d="M249.1 134.1h13.4v2.9h-13.4z"/><path class="st7" d="M262.5 134.1h5.2v2.9h-5.2z"/><path class="st0" d="M223.1 145.9c0-.8.7-1.5 1.5-1.5h7.5v2.9h-7.5c-.9 0-1.5-.6-1.5-1.4z"/><path class="st1" d="M232 144.4h6.7v2.9H232z"/><path class="st7" d="M238.7 144.4h23.8v2.9h-23.8z"/></g><g id="tagoutlines"><path class="st2" d="M224.5 103.7h49.9c.6 0 1.1.5 1.1 1.1 0 .6-.5 1.1-1.1 1.1h-49.9c-.6 0-1.1-.5-1.1-1.1.1-.6.5-1.1 1.1-1.1zM224.5 114h49.9c.6 0 1.1.5 1.1 1.1 0 .6-.5 1.1-1.1 1.1h-49.9c-.6 0-1.1-.5-1.1-1.1.1-.6.5-1.1 1.1-1.1zM224.5 124.2h49.9c.6 0 1.1.5 1.1 1.1 0 .6-.5 1.1-1.1 1.1h-49.9c-.6 0-1.1-.5-1.1-1.1.1-.6.5-1.1 1.1-1.1zM224.5 134.5h49.9c.6 0 1.1.5 1.1 1.1 0 .6-.5 1.1-1.1 1.1h-49.9c-.6 0-1.1-.5-1.1-1.1.1-.6.5-1.1 1.1-1.1zM223.5 145.9c0-.6.5-1.1 1.1-1.1h49.9c.6 0 1.1.5 1.1 1.1s-.5 1.1-1.1 1.1h-49.9c-.7 0-1.1-.5-1.1-1.1z"/></g></svg>
