<svg xmlns="http://www.w3.org/2000/svg" viewBox="0 0 288 172" style="enable-background:new 0 0 288 172" xml:space="preserve"><style>@keyframes shiftInput1{0%,50%,60%,70%,to{transform:translateY(0)}10%,20%{transform:translateY(18px)}30%,40%{transform:translateY(36px)}}@keyframes shiftInput2{0%,30%,40%,70%,to{transform:translateY(0)}10%,20%{transform:translateY(-18px)}50%,60%{transform:translateY(18px)}}@keyframes shiftInput3{0%,10%,20%,70%,to{transform:translateY(0)}30%,40%{transform:translateY(-36px)}50%,60%{transform:translateY(-18px)}}.st2{fill:#5a4a79}.st3{fill:#fff;stroke:#3e2c73;stroke-width:.75}.st6{fill:#3e2c73}.st8{fill:#ff7738}</style><g id="background"><path style="fill:none;stroke:#3e2c73" d="M0 140.5h288"/><path d="M5 7a3 3 0 0 1 3-3h275a3 3 0 0 1 3 3v21H5V7z" style="fill:#c1b2dd"/><path class="st2" d="M30 16h44c.6 0 1 .4 1 1s-.4 1-1 1H30c-.6 0-1-.4-1-1s.4-1 1-1z"/><path d="M283.2 168.8 282 3H3.5L2 170l281.2-1.2z" style="fill:none;stroke:#3e2c73;stroke-width:.75"/><path d="M3.3 167.1 2 1h283.3l.7 170-282.7-3.9z" style="fill:none;stroke:#ff7738;stroke-width:1.5"/><path d="M187 147h39.8c.6 0 1 .4 1 1v12.4c0 .6-.4 1-1 1H187c-.6 0-1-.4-1-1V148c0-.6.4-1 1-1z" style="fill:#ede7f5"/><path class="st2" d="M201.1 153.5H214c.4 0 .8.3.8.8 0 .4-.3.8-.8.8h-12.9a.8.8 0 0 1-.8-.8c.1-.4.4-.8.8-.8z"/></g><g id="save" class="save"><path class="st6" d="M234 147h39.8c.6 0 1 .4 1 1v12.4c0 .6-.4 1-1 1H234c-.6 0-1-.4-1-1V148c0-.6.4-1 1-1z"/><path d="M248.1 153.5H261c.4 0 .8.3.8.8 0 .4-.3.8-.8.8h-12.9a.8.8 0 0 1-.8-.8c.1-.4.4-.8.8-.8z" style="fill:#fff"/></g><g id="input5" style="animation:shiftInput3 8s infinite ease-in-out"><circle class="st8" cx="17" cy="113" r="1"/><circle class="st8" cx="22" cy="113" r="1"/><circle class="st8" cx="17" cy="118" r="1"/><circle class="st8" cx="22" cy="118" r="1"/><circle class="st8" cx="17" cy="123" r="1"/><circle class="st8" cx="22" cy="123" r="1"/><path class="st3" d="M30 112.4h112c.3 0 .6.3.6.6v10c0 .3-.3.6-.6.6H30a.6.6 0 0 1-.6-.6v-10c0-.3.3-.6.6-.6z"/><path class="st6" d="M37 117h60c.6 0 1 .4 1 1s-.4 1-1 1H37c-.6 0-1-.4-1-1s.4-1 1-1z"/><path class="st3" d="M150 112.4h114c.3 0 .6.3.6.6v10c0 .3-.3.6-.6.6H150a.6.6 0 0 1-.6-.6v-10c0-.3.3-.6.6-.6z"/><path class="st6" d="M154 117h30c.6 0 1 .4 1 1s-.4 1-1 1h-30c-.6 0-1-.4-1-1s.4-1 1-1z"/></g><g id="input4" style="animation:shiftInput2 8s infinite ease-in-out"><circle class="st8" cx="17" cy="95" r="1"/><circle class="st8" cx="22" cy="95" r="1"/><circle class="st8" cx="17" cy="100" r="1"/><circle class="st8" cx="22" cy="100" r="1"/><circle class="st8" cx="17" cy="105" r="1"/><circle class="st8" cx="22" cy="105" r="1"/><path class="st3" d="M30 94.4h112c.3 0 .6.3.6.6v10c0 .3-.3.6-.6.6H30a.6.6 0 0 1-.6-.6V95c0-.3.3-.6.6-.6z"/><path class="st6" d="M37 99h38c.6 0 1 .4 1 1s-.4 1-1 1H37c-.6 0-1-.4-1-1s.4-1 1-1z"/><path class="st3" d="M150 94.4h114c.3 0 .6.3.6.6v10c0 .3-.3.6-.6.6H150a.6.6 0 0 1-.6-.6V95c0-.3.3-.6.6-.6z"/><path class="st6" d="M154 99h19c.6 0 1 .4 1 1s-.4 1-1 1h-19c-.6 0-1-.4-1-1s.4-1 1-1z"/></g><g id="input3" style="animation:shiftInput1 8s infinite ease-in-out"><circle class="st8" cx="17" cy="77" r="1"/><circle class="st8" cx="22" cy="77" r="1"/><circle class="st8" cx="17" cy="82" r="1"/><circle class="st8" cx="22" cy="82" r="1"/><circle class="st8" cx="17" cy="87" r="1"/><circle class="st8" cx="22" cy="87" r="1"/><path class="st3" d="M30 76.4h112c.3 0 .6.3.6.6v10c0 .3-.3.6-.6.6H30a.6.6 0 0 1-.6-.6V77c0-.3.3-.6.6-.6z"/><path class="st6" d="M37 81h60c.6 0 1 .4 1 1s-.4 1-1 1H37c-.6 0-1-.4-1-1s.4-1 1-1z"/><path class="st3" d="M150 76.4h114c.3 0 .6.3.6.6v10c0 .3-.3.6-.6.6H150a.6.6 0 0 1-.6-.6V77c0-.3.3-.6.6-.6z"/><path class="st6" d="M154 81h30c.6 0 1 .4 1 1s-.4 1-1 1h-30c-.6 0-1-.4-1-1s.4-1 1-1z"/></g><g id="input2" class="input2"><circle class="st8" cx="17" cy="59" r="1"/><circle class="st8" cx="22" cy="59" r="1"/><circle class="st8" cx="17" cy="64" r="1"/><circle class="st8" cx="22" cy="64" r="1"/><circle class="st8" cx="17" cy="69" r="1"/><circle class="st8" cx="22" cy="69" r="1"/><path class="st3" d="M30 58.4h112c.3 0 .6.3.6.6v10c0 .3-.3.6-.6.6H30a.6.6 0 0 1-.6-.6V59c0-.3.3-.6.6-.6z"/><path class="st6" d="M37 63h26c.6 0 1 .4 1 1s-.4 1-1 1H37c-.6 0-1-.4-1-1s.4-1 1-1z"/><path class="st3" d="M150 58.4h114c.3 0 .6.3.6.6v10c0 .3-.3.6-.6.6H150a.6.6 0 0 1-.6-.6V59c0-.3.3-.6.6-.6z"/><path class="st6" d="M154 63h12c.6 0 1 .4 1 1s-.4 1-1 1h-12c-.6 0-1-.4-1-1s.4-1 1-1z"/></g><g id="input1" class="input1"><circle class="st8" cx="17" cy="41" r="1"/><circle class="st8" cx="22" cy="41" r="1"/><circle class="st8" cx="17" cy="46" r="1"/><circle class="st8" cx="22" cy="46" r="1"/><circle class="st8" cx="17" cy="51" r="1"/><circle class="st8" cx="22" cy="51" r="1"/><path class="st3" d="M30 40.4h112c.3 0 .6.3.6.6v10c0 .3-.3.6-.6.6H30a.6.6 0 0 1-.6-.6V41c0-.3.3-.6.6-.6z"/><path class="st6" d="M37 45h60c.6 0 1 .4 1 1s-.4 1-1 1H37c-.6 0-1-.4-1-1s.4-1 1-1z"/><path class="st3" d="M150 40.4h114c.3 0 .6.3.6.6v10c0 .3-.3.6-.6.6H150a.6.6 0 0 1-.6-.6V41c0-.3.3-.6.6-.6z"/><path class="st6" d="M154 45h30c.6 0 1 .4 1 1s-.4 1-1 1h-30c-.6 0-1-.4-1-1s.4-1 1-1z"/></g></svg>
