<svg xmlns="http://www.w3.org/2000/svg" width="424" height="235" fill="none"><rect width="424" height="235" fill="url(#a)" opacity=".8" rx="2"/><rect width="152" height="17" x="236.5" y="37.5" fill="#fff" rx="1.5"/><rect width="152" height="17" x="236.5" y="37.5" stroke="#E0DCE5" rx="1.5"/><path fill="#2B2233" d="M248 50.1c-.5 0-1 0-1.2-.2a2.4 2.4 0 0 1-.8-.7v.7a.3.3 0 0 1-.3.1h-.5a.3.3 0 0 1-.2 0 .3.3 0 0 1-.1-.3v-8a.3.3 0 0 1 0-.1.3.3 0 0 1 .3-.1h.6a.2.2 0 0 1 .2 0 .3.3 0 0 1 0 .3v2.7l.8-.6c.3-.2.7-.3 1.2-.3.4 0 .8.1 1.1.3.3.1.6.3.8.6l.5 1 .1 1a5.8 5.8 0 0 1 0 .7 4.4 4.4 0 0 1-.1 1.1l-.5 1-.8.6-1.1.2Zm-.3-1c.4 0 .8 0 1-.2l.5-.7.2-1v-.7a3.2 3.2 0 0 0-.2-.9 1.4 1.4 0 0 0-.5-.7c-.2-.2-.6-.3-1-.3a1.6 1.6 0 0 0-1.5 1l-.2.8a7.7 7.7 0 0 0 0 .4v.5l.2.9c.1.3.3.5.6.7.2.2.5.2 1 .2Zm4.6.9a.3.3 0 0 1-.2 0 .3.3 0 0 1 0-.3v-5.9a.3.3 0 0 1 .2 0h.8a.3.3 0 0 1 0 .2v.6c.2-.3.4-.5.7-.6l1-.2h.5a.2.2 0 0 1 .2 0 .2.2 0 0 1 0 .2v.5a.2.2 0 0 1 0 .2.3.3 0 0 1-.2 0h-.7c-.5 0-.8.2-1 .5-.3.2-.4.6-.4 1v3.5l-.1.2a.3.3 0 0 1-.2.1h-.6Zm6.7.1a3 3 0 0 1-1.5-.3 2.4 2.4 0 0 1-1-1 3.4 3.4 0 0 1-.3-1.4 9 9 0 0 1 0-.5 8.7 8.7 0 0 1 0-.5c0-.6.1-1 .4-1.5.2-.4.5-.7 1-1 .3-.1.8-.3 1.4-.3s1.1.2 1.5.4c.4.2.8.5 1 1 .2.4.3.8.3 1.4a8.7 8.7 0 0 1 0 1c0 .5-.1 1-.3 1.4a2.4 2.4 0 0 1-1 1 3 3 0 0 1-1.5.3Zm0-.9c.5 0 1-.2 1.2-.5.3-.3.5-.8.5-1.4a7 7 0 0 0 0-.9c0-.6-.2-1-.5-1.4-.3-.3-.7-.4-1.2-.4s-.9.1-1.2.4c-.3.4-.4.8-.4 1.4a7 7 0 0 0 0 1c0 .5.1 1 .4 1.3.3.3.7.5 1.2.5Zm5.8.8a.4.4 0 0 1-.2 0 .7.7 0 0 1-.1-.3l-1.7-5.6v-.3a.3.3 0 0 1 .2 0h.7l.1.2 1.3 4.5 1.5-4.5a.5.5 0 0 1 0-.2h1a.3.3 0 0 1 0 .2l1.5 4.5 1.3-4.5a.3.3 0 0 1 .1-.2h.7a.2.2 0 0 1 .2 0 .2.2 0 0 1 0 .2v.1l-1.6 5.6a.6.6 0 0 1-.2.2l-.2.1h-.5a.5.5 0 0 1-.3 0 .4.4 0 0 1 0-.3l-1.5-4.3-1.4 4.3a.5.5 0 0 1-.1.2.4.4 0 0 1-.3.1h-.5Zm10 .1-1.1-.1a2.6 2.6 0 0 1-.8-.5 2.1 2.1 0 0 1-.5-.4 1 1 0 0 1-.1-.4v-.2a.3.3 0 0 1 .3-.1h.5l.2.1.4.4.4.2.7.1c.4 0 .8 0 1-.2a.8.8 0 0 0 .4-.7l-.1-.5-.6-.3a9.8 9.8 0 0 0-1.1-.3l-1.2-.4-.6-.6a1.7 1.7 0 0 1-.2-.8c0-.3.1-.5.3-.8.2-.3.4-.5.8-.7.3-.2.7-.3 1.3-.3.4 0 .7 0 1 .2a2.3 2.3 0 0 1 1.2.8l.1.4a.2.2 0 0 1 0 .2.3.3 0 0 1-.2.1h-.5a.3.3 0 0 1-.2 0 .9.9 0 0 1 0-.1 2.6 2.6 0 0 0-.3-.3 1.1 1.1 0 0 0-.5-.3h-.6c-.4 0-.7 0-1 .2l-.2.6v.4l.6.3 1.1.3c.5.2 1 .3 1.2.5.4.1.6.3.7.6l.2.8-.3 1a2 2 0 0 1-.9.6l-1.4.2Zm6.5 0c-.9 0-1.5-.2-2-.7-.5-.5-.8-1.2-.8-2.1a5.3 5.3 0 0 1 0-.4v-.4c0-.6.2-1 .4-1.5.2-.4.5-.8 1-1 .3-.2.8-.4 1.4-.4.6 0 1 .2 1.5.4.4.3.7.6 1 1.1.2.5.3 1 .3 1.7v.2a.3.3 0 0 1-.1.2.3.3 0 0 1-.2 0h-4.2v.2l.2.9.6.7.9.2.7-.1a2 2 0 0 0 .5-.3l.2-.3.2-.1a.4.4 0 0 1 .2 0h.7s.1.1 0 .2l-.1.4-.5.5a2.8 2.8 0 0 1-.8.5l-1.1.1Zm-1.7-3.7h3.3c0-.4 0-.7-.2-1a1.5 1.5 0 0 0-1.4-.9c-.4 0-.7.1-1 .3l-.5.6-.2 1Zm6.2 3.6a.3.3 0 0 1-.2 0 .3.3 0 0 1-.1-.3v-5.9a.3.3 0 0 1 .3 0h.7a.3.3 0 0 1 .1.2v.6c.2-.3.4-.5.7-.6l1-.2h.5a.2.2 0 0 1 .1 0 .2.2 0 0 1 .1.2v.5a.2.2 0 0 1 0 .2.3.3 0 0 1-.2 0h-.8c-.4 0-.7.2-1 .5-.2.2-.4.6-.4 1v3.7a.3.3 0 0 1-.2.1h-.6Zm3.8 0a.3.3 0 0 1-.2 0 .3.3 0 0 1 0-.3V49a.3.3 0 0 1 0-.2.3.3 0 0 1 .2-.1h1.1a.2.2 0 0 1 0 .3v1a.3.3 0 0 1-.2.1h-.9Zm3.1 0a.3.3 0 0 1-.2 0 .3.3 0 0 1 0-.3V44a.3.3 0 0 1 0-.2.3.3 0 0 1 .2 0h.6a.2.2 0 0 1 .2 0 .2.2 0 0 1 0 .2v.6l.8-.7c.3-.2.8-.3 1.3-.3s1 .2 1.3.4c.3.2.6.5.8 1 .2.3.3.8.3 1.3v3.4l-.1.2a.3.3 0 0 1-.2.1h-.6a.3.3 0 0 1-.2 0 .3.3 0 0 1 0-.3v-3.3c0-.6-.2-1-.5-1.3-.2-.3-.6-.5-1.2-.5-.5 0-.9.2-1.2.5-.3.3-.4.7-.4 1.3v3.3l-.1.2a.3.3 0 0 1-.2.1h-.6Zm8.7.1c-.4 0-.7 0-1-.2a2.1 2.1 0 0 1-.8-.7c-.2-.2-.3-.5-.3-.9 0-.5.2-1 .6-1.3.5-.3 1-.6 1.8-.7l1.8-.2v-.4c0-.3-.1-.6-.4-.9-.2-.2-.5-.3-1-.3-.4 0-.7 0-.9.2l-.5.6c0 .1 0 .2-.2.2h-.6l-.2-.1a.3.3 0 0 1 0-.2l.1-.4.4-.6.8-.4a3 3 0 0 1 1-.2l1.3.2a1.8 1.8 0 0 1 1.2 1.2l.1.8V50a.3.3 0 0 1-.3.1h-.7a.3.3 0 0 1-.1-.3v-.5a2.3 2.3 0 0 1-.4.4 2.4 2.4 0 0 1-.7.4 3.1 3.1 0 0 1-1 .1Zm.3-.9c.3 0 .6 0 .9-.2.3-.1.5-.3.6-.6.2-.3.3-.7.3-1.2V47l-1.4.2c-.6 0-1 .2-1.3.4-.3.2-.4.4-.4.7 0 .2 0 .4.2.6l.5.3.6.1Zm5 .8a.3.3 0 0 1-.3 0 .3.3 0 0 1 0-.3V44a.3.3 0 0 1 0-.2.3.3 0 0 1 .2 0h.5a.2.2 0 0 1 .2 0 .2.2 0 0 1 .1.2v.5c.2-.3.4-.5.7-.6a2 2 0 0 1 1-.3c1 0 1.6.4 2 1.1.1-.3.4-.6.7-.8l1.2-.3c.5 0 .8.1 1.2.3.3.2.6.5.8.9.2.4.3.9.3 1.5v3.4l-.1.2a.3.3 0 0 1-.2.1h-.6a.3.3 0 0 1-.2 0 .3.3 0 0 1 0-.3v-3.3l-.2-1c-.1-.3-.3-.5-.5-.6a1.6 1.6 0 0 0-.8-.2c-.2 0-.4 0-.6.2-.2 0-.4.3-.5.5-.2.3-.2.6-.2 1v3.4l-.1.2a.3.3 0 0 1-.2.1h-.6a.3.3 0 0 1-.2 0 .3.3 0 0 1 0-.3v-3.3c0-.5-.1-.8-.3-1 0-.3-.3-.5-.5-.6a1.6 1.6 0 0 0-.7-.2c-.2 0-.4 0-.6.2-.2 0-.4.3-.5.5-.2.3-.2.6-.2 1v3.4l-.1.2a.3.3 0 0 1-.2.1h-.6Zm12.8.1c-.8 0-1.5-.2-2-.7-.5-.5-.7-1.2-.8-2.1a5.3 5.3 0 0 1 0-.4v-.4c0-.6.2-1 .4-1.5.2-.4.5-.8 1-1 .4-.2.8-.4 1.4-.4.6 0 1 .2 1.5.4.4.3.7.6 1 1.1.2.5.3 1 .3 1.7v.2a.3.3 0 0 1-.1.2.3.3 0 0 1-.2 0h-4.2v.2l.3.9c0 .3.3.5.5.7l.9.2.7-.1a2 2 0 0 0 .5-.3l.2-.3.2-.1a.4.4 0 0 1 .2 0h.7l.1.2c0 .1 0 .3-.2.4l-.5.5a2.8 2.8 0 0 1-.8.5l-1.1.1Zm-1.7-3.7h3.3c0-.4 0-.7-.2-1a1.5 1.5 0 0 0-1.4-.9c-.4 0-.7.1-1 .3l-.5.6-.2 1Z"/><path fill="#71637E" d="M327 50a.3.3 0 0 1-.3 0 .3.3 0 0 1 0-.3V44a.3.3 0 0 1 0-.2.3.3 0 0 1 .2 0h.6a.2.2 0 0 1 .2 0 .2.2 0 0 1 0 .2V50a.3.3 0 0 1-.2.1h-.6Zm-.2-7.4a.3.3 0 0 1-.2 0 .3.3 0 0 1 0-.3v-.8a.3.3 0 0 1 .2-.1h1a.3.3 0 0 1 0 .3v.8a.3.3 0 0 1-.2.1h-.8Zm5 7.5-1.2-.1a2.6 2.6 0 0 1-.8-.5 2.1 2.1 0 0 1-.5-.4 1 1 0 0 1-.1-.4v-.2a.3.3 0 0 1 .2-.1h.6l.2.1.4.4.4.2.7.1c.4 0 .8 0 1-.2a.8.8 0 0 0 .4-.7l-.1-.5-.6-.3a9.8 9.8 0 0 0-1.1-.3l-1.2-.4-.6-.6a1.7 1.7 0 0 1-.2-.8c0-.3.1-.5.3-.8.2-.3.4-.5.8-.7.3-.2.7-.3 1.3-.3.4 0 .7 0 1 .2a2.3 2.3 0 0 1 1.2.8l.1.4a.2.2 0 0 1 0 .2.3.3 0 0 1-.2.1h-.5a.3.3 0 0 1-.2 0 .9.9 0 0 1 0-.1 2.6 2.6 0 0 0-.4-.3 1.1 1.1 0 0 0-.4-.3h-.6c-.4 0-.7 0-1 .2l-.2.6v.4l.6.3 1.1.3c.5.2 1 .3 1.2.5.3.1.6.3.7.6l.2.8-.3 1a2 2 0 0 1-.9.6l-1.4.2Z"/><path fill="#6C5FC7" d="M341.1 50.1c-.5 0-1 0-1.4-.3a2.4 2.4 0 0 1-1-1c-.2-.4-.3-.9-.3-1.4a7.6 7.6 0 0 1 0-.5v-.5c0-.6 0-1 .3-1.5.2-.4.6-.7 1-1a3 3 0 0 1 1.4-.3l1.2.2.9.5a2 2 0 0 1 .6 1.3.2.2 0 0 1 0 .2.3.3 0 0 1-.3.1h-.7a.7.7 0 0 1-.1-.2l-.6-.9-1-.2c-.4 0-.8.1-1.1.4-.3.3-.5.8-.5 1.5a14.7 14.7 0 0 0 0 .8c0 .7.2 1.1.5 1.4.3.3.7.5 1.1.5.4 0 .7-.1 1-.3.2-.1.4-.4.6-.8a.7.7 0 0 1 0-.2h1a.2.2 0 0 1 .1.2 1.8 1.8 0 0 1-.1.5 2 2 0 0 1-.3.6 2.3 2.3 0 0 1-.5.5 2.9 2.9 0 0 1-.8.3l-1 .1Zm4.4-.1a.3.3 0 0 1-.2 0 .3.3 0 0 1 0-.3v-8a.3.3 0 0 1 0-.1.3.3 0 0 1 .2-.1h.8a.3.3 0 0 1 .1.3v2.8l.8-.7c.3-.2.7-.3 1.2-.3s1 .2 1.3.4c.4.2.6.5.8 1 .2.3.3.8.3 1.3V50l-.3.1h-.6a.3.3 0 0 1-.2 0 .3.3 0 0 1 0-.3v-3.3c0-.6-.2-1-.4-1.3-.3-.3-.7-.5-1.2-.5s-1 .2-1.2.5c-.3.3-.5.7-.5 1.3v3.5l-.3.1h-.6Zm7.3 0a.3.3 0 0 1-.2 0 .3.3 0 0 1 0-.3v-5.9a.3.3 0 0 1 .2 0h.8a.3.3 0 0 1 0 .2v.6c.2-.3.4-.5.7-.6l1-.2h.5a.2.2 0 0 1 .2 0 .2.2 0 0 1 0 .2v.5a.2.2 0 0 1 0 .2.3.3 0 0 1-.2 0h-.7c-.4 0-.8.2-1 .5-.3.2-.4.6-.4 1v3.7a.3.3 0 0 1-.3.1h-.6Zm6.7.1a3 3 0 0 1-1.5-.3 2.4 2.4 0 0 1-1-1 3.4 3.4 0 0 1-.3-1.4 9 9 0 0 1 0-.5 8.7 8.7 0 0 1 0-.5c0-.6.2-1 .4-1.5.2-.4.5-.7 1-1 .3-.1.8-.3 1.4-.3s1.1.2 1.6.4c.4.2.7.5.9 1l.4 1.4a8.7 8.7 0 0 1 0 1c0 .5-.2 1-.4 1.4a2.4 2.4 0 0 1-1 1 3 3 0 0 1-1.5.3Zm0-.9c.5 0 1-.2 1.2-.5.3-.3.5-.8.5-1.4a7 7 0 0 0 0-.9c0-.6-.2-1-.5-1.4-.3-.3-.7-.4-1.2-.4s-.9.1-1.2.4c-.3.4-.4.8-.4 1.4a7 7 0 0 0 0 1c0 .5.2 1 .4 1.3.3.3.7.5 1.2.5Zm4.7.8a.3.3 0 0 1-.2 0 .3.3 0 0 1-.1-.3V44a.3.3 0 0 1 0-.2.3.3 0 0 1 .3 0h.5a.2.2 0 0 1 .2 0 .2.2 0 0 1 0 .2v.5c.3-.3.5-.5.8-.6a2 2 0 0 1 1-.3c.9 0 1.5.4 1.9 1.1.2-.3.4-.6.8-.8l1.2-.3c.4 0 .8.1 1.1.3.4.2.6.5.8.9.2.4.3.9.3 1.5v3.6a.3.3 0 0 1-.2.1h-.6a.3.3 0 0 1-.2 0 .3.3 0 0 1 0-.3v-3.3c0-.5-.1-.8-.3-1l-.5-.6a1.6 1.6 0 0 0-.7-.2c-.2 0-.4 0-.6.2-.3 0-.4.3-.6.5l-.2 1V50a.3.3 0 0 1-.3.1h-.5a.3.3 0 0 1-.2 0 .3.3 0 0 1-.1-.3v-3.3c0-.5 0-.8-.2-1-.1-.3-.3-.5-.5-.6a1.6 1.6 0 0 0-.7-.2c-.2 0-.4 0-.6.2-.3 0-.4.3-.6.5l-.2 1V50a.3.3 0 0 1-.3.1h-.5Zm12.8.1c-.8 0-1.5-.2-2-.7-.4-.5-.7-1.2-.7-2.1a5.3 5.3 0 0 1 0-.4v-.4c0-.6.1-1 .4-1.5.2-.4.5-.8.9-1 .4-.2.9-.4 1.4-.4.6 0 1.1.2 1.6.4.4.3.7.6.9 1.1.2.5.3 1 .3 1.7v.2a.3.3 0 0 1 0 .2.3.3 0 0 1-.3 0h-4.1v.2c0 .3 0 .6.2.9.1.3.3.5.6.7l.8.2.7-.1a2 2 0 0 0 .5-.3l.3-.3.1-.1a.4.4 0 0 1 .2 0h.8v.2l-.1.4c-.2.2-.3.4-.6.5a2.8 2.8 0 0 1-.8.5l-1 .1Zm-1.6-3.7h3.3c0-.4 0-.7-.2-1a1.5 1.5 0 0 0-1.5-.9l-.9.3c-.2.1-.4.3-.5.6l-.2 1Z"/><rect width="310" height="119" x="25" y="66" fill="#fff" rx="4"/><rect width="309" height="118" x="25.5" y="66.5" stroke="#3A115F" stroke-opacity=".1" rx="3.5"/><path fill="#2B2233" d="M38.4 88a.3.3 0 0 1-.3-.1.3.3 0 0 1 0-.3v-9.3a.3.3 0 0 1 .3-.1h3.5c1 0 1.7.2 2.3.4.7.3 1.1.8 1.5 1.3.3.6.5 1.3.5 2.1a44.4 44.4 0 0 1 0 2.2c0 .8-.2 1.6-.5 2.1a3 3 0 0 1-1.4 1.3c-.6.3-1.4.4-2.3.4h-3.6Zm1.9-1.8h1.6c.5 0 .8 0 1.1-.2.3-.2.6-.4.7-.7.2-.3.2-.7.2-1.2a19.7 19.7 0 0 0 0-2c0-.7-.2-1.3-.5-1.6-.3-.3-.9-.5-1.6-.5h-1.5v6.2Zm10.2 2c-.6 0-1-.2-1.5-.4a2.6 2.6 0 0 1-1-1.1 4 4 0 0 1-.3-1.7v-4a.3.3 0 0 1 .1-.2.3.3 0 0 1 .3 0h1.7l.1.3v3.8c0 1 .5 1.6 1.4 1.6.4 0 .8-.2 1-.4.3-.3.4-.7.4-1.2V81a.3.3 0 0 1 .1-.3.3.3 0 0 1 .3 0h1.7v6.8a.3.3 0 0 1 0 .3.3.3 0 0 1-.3.1h-1.3a.3.3 0 0 1-.3-.1.3.3 0 0 1 0-.3v-.5a2.4 2.4 0 0 1-1 .8c-.4.2-.9.2-1.4.2ZM57 88a.3.3 0 0 1-.3-.1.3.3 0 0 1 0-.3v-6.8a.3.3 0 0 1 .3 0h1.6a.3.3 0 0 1 .1.3v.5a2.4 2.4 0 0 1 .9-.6 2.8 2.8 0 0 1 1.1-.3h.6l.3.1v1.5a.3.3 0 0 1 0 .2.3.3 0 0 1-.3.1h-1.2c-.4 0-.7.1-1 .4-.2.2-.3.5-.3 1v3.6a.3.3 0 0 1-.1.3.3.3 0 0 1-.3.1H57Zm7.7.1c-.5 0-.9 0-1.3-.2a2.5 2.5 0 0 1-1-.8 1.8 1.8 0 0 1-.3-1.1c0-.7.3-1.2.8-1.6a5 5 0 0 1 2.2-.8l1.8-.2V83c0-.4-.1-.6-.3-.8-.1-.2-.4-.3-.8-.3s-.6 0-.8.2a1.3 1.3 0 0 0-.4.4.4.4 0 0 1-.3.2H62.7a.3.3 0 0 1 0-.3l.1-.5c.1-.3.3-.5.6-.7.2-.2.5-.4 1-.5l1.4-.2c.6 0 1 0 1.5.2.4.1.7.3 1 .6.2.2.4.5.5.9.2.3.2.6.2 1v4.3a.3.3 0 0 1 0 .3.3.3 0 0 1-.3.1h-1.4a.3.3 0 0 1-.2-.1.3.3 0 0 1-.1-.3v-.5a2.3 2.3 0 0 1-.5.5l-.8.4-1 .1Zm.6-1.4c.3 0 .6 0 .8-.2a1.4 1.4 0 0 0 .6-.6l.2-1v-.3l-1.3.2c-.5.1-.9.2-1.1.4l-.3.6.1.5.4.3h.6Zm8.9 1.3c-.6 0-1.1 0-1.5-.3a2 2 0 0 1-1-.9c-.2-.4-.3-.9-.3-1.5v-3h-1a.3.3 0 0 1-.3 0 .3.3 0 0 1-.1-.3v-1a.3.3 0 0 1 0-.2.3.3 0 0 1 .3 0h1.1v-2.4a.3.3 0 0 1 .1-.2.4.4 0 0 1 .3-.1H73.4l.1.3v2.3h1.8l.2.1v1.3a.3.3 0 0 1 0 .2.3.3 0 0 1-.2 0h-1.8v2.8c0 .4 0 .7.2.9.1.2.3.3.7.3h1.2a.3.3 0 0 1 .1.3v1a.3.3 0 0 1 0 .3.3.3 0 0 1-.3.1h-1.2Zm3 0a.3.3 0 0 1-.2-.1.3.3 0 0 1 0-.3v-6.8a.3.3 0 0 1 .3 0H78.9a.3.3 0 0 1 .1.3v6.6a.3.3 0 0 1 0 .2.3.3 0 0 1-.3.1h-1.4Zm0-8.4a.3.3 0 0 1-.2-.1.3.3 0 0 1-.1-.3v-1l.1-.3a.3.3 0 0 1 .2-.1h1.5a.3.3 0 0 1 .3 0 .3.3 0 0 1 0 .3v1.2a.3.3 0 0 1 0 .2.3.3 0 0 1-.3.1h-1.5Zm7 8.5c-.9 0-1.5 0-2-.3a2.8 2.8 0 0 1-1.2-1.1c-.3-.5-.5-1-.5-1.7a13.2 13.2 0 0 1 0-1.3c0-.6.2-1.2.5-1.6.3-.5.7-.9 1.2-1.1.5-.3 1.2-.4 2-.4.7 0 1.3.1 1.8.4.5.2 1 .6 1.2 1 .3.5.5 1 .5 1.7a6 6 0 0 1 0 1.3c0 .6-.2 1.2-.5 1.7-.2.4-.6.8-1.2 1-.5.3-1.1.4-1.9.4Zm0-1.5c.4 0 .7-.1 1-.4.2-.3.3-.7.3-1.3a8.4 8.4 0 0 0 0-1.1c0-.5-.1-1-.3-1.2-.3-.3-.6-.5-1-.5-.5 0-.9.2-1.1.5a2 2 0 0 0-.4 1.2 9.1 9.1 0 0 0 0 1.1c0 .6.1 1 .4 1.3.2.3.6.4 1 .4Zm5.3 1.4a.3.3 0 0 1-.2-.1.3.3 0 0 1-.1-.3v-6.8a.3.3 0 0 1 .3 0h1.7a.3.3 0 0 1 0 .3v.5a2.9 2.9 0 0 1 2.4-1c.5 0 1 .1 1.4.4.5.2.8.6 1 1 .3.5.4 1 .4 1.7v4a.3.3 0 0 1-.1.2.3.3 0 0 1-.3.1h-1.5a.3.3 0 0 1-.2-.1.3.3 0 0 1-.1-.3v-3.8c0-.5-.1-.8-.4-1.1-.2-.3-.6-.4-1-.4s-.8.1-1 .4c-.3.3-.5.6-.5 1.1v3.9a.3.3 0 0 1 0 .2.3.3 0 0 1-.3.1h-1.5Z"/><path fill="#71637E" d="M50.8 171.1a3 3 0 0 1-1.1-.2 2.1 2.1 0 0 1-.8-.6 2.5 2.5 0 0 1-.5-.9 4.7 4.7 0 0 1-.1-1V166.6l.1-1c.1-.4.3-.6.5-.9l.8-.6 1.1-.2c.5 0 .9 0 1.2.2l.8.6.4.9.2 1a15.8 15.8 0 0 1-.2 2.8c0 .3-.2.6-.4.9a2 2 0 0 1-.8.6l-1.2.2Zm0-.8c.5 0 1-.2 1.2-.6.2-.3.4-.8.4-1.4v-1.6c0-.6-.2-1-.4-1.4-.3-.4-.7-.6-1.2-.6s-.9.2-1.1.6c-.3.3-.4.8-.4 1.4v1.6c0 .6.1 1 .4 1.4.2.4.6.6 1.1.6Zm-9-17.3a.3.3 0 0 1-.2 0 .3.3 0 0 1 0-.2v-5.6l-1.7 1.3a.2.2 0 0 1-.2 0 .2.2 0 0 1-.1 0l-.3-.4a.3.3 0 0 1 0-.2.3.3 0 0 1 0-.1l2.3-1.7a.8.8 0 0 1 .2-.1h.5a.2.2 0 0 1 .2 0 .2.2 0 0 1 0 .2v6.6a.2.2 0 0 1 0 .1.2.2 0 0 1-.2.1h-.5Zm4.7.1a3 3 0 0 1-1.2-.2 2.1 2.1 0 0 1-.8-.6 2.5 2.5 0 0 1-.4-.9 4.7 4.7 0 0 1-.1-1V148.6l.1-1c.1-.4.3-.6.5-.9l.7-.6 1.2-.2c.4 0 .8 0 1.1.2l.8.6c.2.3.4.5.5.9l.1 1a15.8 15.8 0 0 1-.1 2.8l-.5.9a2 2 0 0 1-.7.6l-1.2.2Zm0-.9c.5 0 .9-.1 1.1-.5.3-.3.4-.8.4-1.4v-1.6c0-.6-.1-1-.4-1.4-.2-.4-.6-.6-1.1-.6-.5 0-1 .2-1.2.6-.2.3-.3.8-.4 1.4v1.6c0 .6.2 1 .4 1.4.3.4.7.5 1.2.5Zm6.3.9a3 3 0 0 1-1.1-.2 2.1 2.1 0 0 1-.8-.6 2.5 2.5 0 0 1-.4-.9 4.7 4.7 0 0 1-.2-1V148.6c0-.4 0-.7.2-1 0-.4.2-.6.4-.9l.8-.6 1.1-.2c.5 0 .9 0 1.2.2l.8.6.4.9.2 1a15.8 15.8 0 0 1-.2 2.8c0 .3-.2.6-.4.9a2 2 0 0 1-.8.6l-1.2.2Zm0-.9c.6 0 1-.1 1.2-.5.2-.3.4-.8.4-1.4v-1.6c0-.6-.2-1-.4-1.4-.3-.4-.6-.6-1.2-.6-.5 0-.9.2-1.1.6-.3.3-.4.8-.4 1.4v1.6c0 .6.1 1 .4 1.4.3.4.6.5 1.1.5Zm4.2.8a.3.3 0 0 1-.2 0 .3.3 0 0 1 0-.2V147.9a.2.2 0 0 1 .2-.1h.4a.2.2 0 0 1 .2 0 .2.2 0 0 1 0 .2v.4a1.6 1.6 0 0 1 .6-.5l.9-.2c.7 0 1.3.3 1.6 1 .1-.4.4-.6.7-.8a2 2 0 0 1 1-.2c.3 0 .6 0 .9.2.3.2.5.4.7.8l.2 1.2v2.9a.2.2 0 0 1 0 .1.2.2 0 0 1-.2.1h-.5a.3.3 0 0 1-.2 0 .3.3 0 0 1 0-.2V150c0-.4 0-.7-.2-1a1 1 0 0 0-.4-.4 1.3 1.3 0 0 0-.6 0h-.5a1 1 0 0 0-.5.5l-.1.9v2.8a.2.2 0 0 1-.1.1.2.2 0 0 1-.2.1h-.4a.3.3 0 0 1-.2 0 .3.3 0 0 1 0-.2V150l-.2-1a1 1 0 0 0-.5-.4h-1.1a1 1 0 0 0-.4.5l-.2.9v2.8a.2.2 0 0 1 0 .1.2.2 0 0 1-.2.1H57Zm10.4.1a3 3 0 0 1-1-.1 2.2 2.2 0 0 1-.6-.4 1.8 1.8 0 0 1-.3-.4.8.8 0 0 1-.2-.3v-.2a.3.3 0 0 1 .3 0H66.2c0 .2.2.3.3.4l.4.2h.6l.8-.1a.6.6 0 0 0 .3-.6l-.1-.4-.5-.3a8.2 8.2 0 0 0-1-.2c-.3-.1-.7-.2-.9-.4l-.5-.5-.1-.6c0-.2 0-.5.2-.7l.6-.6 1-.2 1 .1a2 2 0 0 1 1 .7v.4a.2.2 0 0 1 0 .1h-.6a.7.7 0 0 1-.2 0 2.1 2.1 0 0 0-.2-.3 1 1 0 0 0-.3-.2h-.6l-.8.1a.7.7 0 0 0-.2.6l.1.3.4.3 1 .2 1 .4.5.5.2.7c0 .2-.1.5-.3.7-.1.3-.4.5-.7.6a3 3 0 0 1-1.2.2ZM38.2 135a.3.3 0 0 1-.2 0 .3.3 0 0 1 0-.2v-.5a.8.8 0 0 1 .2-.3l2.1-2.1.8-.7c.2-.2.4-.4.4-.6l.2-.6c0-.4-.1-.7-.4-1l-1-.2-.6.1a1.1 1.1 0 0 0-.4.5 2 2 0 0 0-.3.6v.2a.3.3 0 0 1-.2 0h-.5a.2.2 0 0 1-.2 0 .2.2 0 0 1 0-.2 2.2 2.2 0 0 1 2.3-2.1c.5 0 1 0 1.3.3.3.2.6.4.7.7a2.2 2.2 0 0 1 .1 1.9l-.4.7-.7.7-2 2H42.9V134.8a.2.2 0 0 1 0 .1l-.2.1h-4.4Zm8.3.1a3 3 0 0 1-1.2-.2 2.1 2.1 0 0 1-.7-.6 2.5 2.5 0 0 1-.5-.9 4.7 4.7 0 0 1-.1-1v-1.2a69.2 69.2 0 0 1 .1-1.6c.1-.4.3-.6.5-.9l.7-.6 1.2-.2c.5 0 .8 0 1.2.2l.7.6c.2.3.4.5.5.9l.1 1a18.3 18.3 0 0 1-.1 2.8l-.5.9a2 2 0 0 1-.7.6l-1.2.2Zm0-.9c.5 0 .9-.1 1.1-.5.3-.3.4-.8.4-1.4v-1.6c0-.6-.1-1-.4-1.4-.2-.4-.6-.6-1.1-.6-.5 0-1 .2-1.2.6-.2.3-.3.8-.3 1.4v1.6c0 .6.1 1 .4 1.4.2.4.6.5 1 .5Zm6.3.9a3 3 0 0 1-1.1-.2 2.1 2.1 0 0 1-.8-.6 2.5 2.5 0 0 1-.4-.9 4.7 4.7 0 0 1-.2-1V130.6c0-.4 0-.7.2-1 0-.4.2-.6.4-.9l.8-.6 1.1-.2c.5 0 .9 0 1.2.2l.8.6.4.9.2 1a15.8 15.8 0 0 1-.2 2.8c0 .3-.2.6-.4.9a2 2 0 0 1-.8.6l-1.2.2Zm0-.9c.6 0 1-.1 1.2-.5.2-.3.4-.8.4-1.4v-1.6c0-.6-.2-1-.4-1.4-.3-.4-.6-.6-1.2-.6-.5 0-.9.2-1.1.6-.3.3-.4.8-.4 1.4v1.6c0 .6.1 1 .4 1.4.3.4.6.5 1.1.5Zm4.2.8a.3.3 0 0 1-.2 0 .3.3 0 0 1 0-.2V129.9a.2.2 0 0 1 .2-.1h.4a.2.2 0 0 1 .2 0 .2.2 0 0 1 0 .2v.4a1.6 1.6 0 0 1 .6-.5l.9-.2c.7 0 1.3.3 1.6 1 .1-.4.4-.6.7-.8a2 2 0 0 1 1-.2c.3 0 .6 0 .9.2.3.2.5.4.7.8l.2 1.2v2.9a.2.2 0 0 1 0 .1.2.2 0 0 1-.2.1h-.5a.3.3 0 0 1-.2 0 .3.3 0 0 1 0-.2V132c0-.4 0-.7-.2-1a1 1 0 0 0-.4-.4 1.3 1.3 0 0 0-.6 0h-.5a1 1 0 0 0-.5.5l-.1.9v2.8a.2.2 0 0 1-.1.1.2.2 0 0 1-.2.1h-.4a.3.3 0 0 1-.2 0 .3.3 0 0 1 0-.2V132l-.2-1a1 1 0 0 0-.5-.4h-1.1a1 1 0 0 0-.4.5l-.2.9v2.8a.2.2 0 0 1 0 .1.2.2 0 0 1-.2.1H57Zm10.4.1a3 3 0 0 1-1-.1 2.2 2.2 0 0 1-.6-.4 1.8 1.8 0 0 1-.3-.4.8.8 0 0 1-.2-.3v-.2a.3.3 0 0 1 .3 0H66.2c0 .2.2.3.3.4l.4.2h.6l.8-.1a.6.6 0 0 0 .3-.6l-.1-.4-.5-.3a8.2 8.2 0 0 0-1-.2c-.3-.1-.7-.2-.9-.4l-.5-.5-.1-.6c0-.2 0-.5.2-.7l.6-.6 1-.2 1 .1a2 2 0 0 1 1 .7v.4a.2.2 0 0 1 0 .1h-.6a.7.7 0 0 1-.2 0 2.1 2.1 0 0 0-.2-.3 1 1 0 0 0-.3-.2h-.6l-.8.1a.7.7 0 0 0-.2.6l.1.3.4.3 1 .2 1 .4.5.5.2.7c0 .2-.1.5-.3.7-.1.3-.4.5-.7.6a3 3 0 0 1-1.2.2Zm-27.1-18-1.1-.1a2.5 2.5 0 0 1-.8-.5 2 2 0 0 1-.5-.5 1.5 1.5 0 0 1-.2-.7l.1-.1H38.4a.3.3 0 0 1 .2 0l.1.1c0 .3.2.5.4.6l.5.3h.7c.5 0 .8 0 1.1-.3.3-.2.4-.5.4-1 0-.4 0-.7-.3-.9-.3-.2-.7-.3-1.1-.3h-1a.3.3 0 0 1-.1 0 .2.2 0 0 1-.1-.2v-.4a.9.9 0 0 1 .1-.1l2-2.2h-3a.3.3 0 0 1-.2 0 .2.2 0 0 1 0-.2v-.5a.2.2 0 0 1 .2-.1h4a.2.2 0 0 1 .2 0V110.7a.2.2 0 0 1 0 .1 1 1 0 0 1 0 .1l-2 2.2h.1c.5 0 .9 0 1.2.2l.8.7c.2.3.2.6.2 1a2 2 0 0 1-1.2 2l-1.3.2Zm6.2 0a3 3 0 0 1-1.2-.2 2.1 2.1 0 0 1-.8-.6 2.5 2.5 0 0 1-.4-.9 4.7 4.7 0 0 1-.1-1V112.6l.1-1c.1-.4.3-.6.5-.9l.7-.6 1.2-.2c.4 0 .8 0 1.1.2l.8.6c.2.3.4.5.5.9l.1 1a15.8 15.8 0 0 1-.1 2.8l-.5.9a2 2 0 0 1-.7.6l-1.2.2Zm0-.9c.5 0 .9-.1 1.1-.5.3-.3.4-.8.4-1.4v-1.6c0-.6-.1-1-.4-1.4-.2-.4-.6-.6-1.1-.6-.5 0-1 .2-1.2.6-.2.3-.3.8-.4 1.4v1.6c0 .6.2 1 .4 1.4.3.4.7.5 1.2.5Zm6.3.9a3 3 0 0 1-1.1-.2 2.1 2.1 0 0 1-.8-.6 2.5 2.5 0 0 1-.4-.9 4.7 4.7 0 0 1-.2-1V112.6c0-.4 0-.7.2-1 0-.4.2-.6.4-.9l.8-.6 1.1-.2c.5 0 .9 0 1.2.2l.8.6.4.9.2 1a15.8 15.8 0 0 1-.2 2.8c0 .3-.2.6-.4.9a2 2 0 0 1-.8.6l-1.2.2Zm0-.9c.6 0 1-.1 1.2-.5.2-.3.4-.8.4-1.4v-1.6c0-.6-.2-1-.4-1.4-.3-.4-.6-.6-1.2-.6-.5 0-.9.2-1.1.6-.3.3-.4.8-.4 1.4v1.6c0 .6.1 1 .4 1.4.3.4.6.5 1.1.5Zm4.2.8a.3.3 0 0 1-.2 0 .3.3 0 0 1 0-.2V111.9a.2.2 0 0 1 .2-.1h.4a.2.2 0 0 1 .2 0 .2.2 0 0 1 0 .2v.4a1.6 1.6 0 0 1 .6-.5l.9-.2c.7 0 1.3.3 1.6 1 .1-.4.4-.6.7-.7a2 2 0 0 1 1-.3c.3 0 .6 0 .9.2.3.2.5.4.7.8l.2 1.2v2.9a.2.2 0 0 1 0 .1.2.2 0 0 1-.2.1h-.5a.3.3 0 0 1-.2 0 .3.3 0 0 1 0-.2V114c0-.4 0-.7-.2-1a1 1 0 0 0-.4-.4 1.3 1.3 0 0 0-.6 0h-.5a1 1 0 0 0-.5.5l-.1.9v2.8a.2.2 0 0 1-.1.1.2.2 0 0 1-.2.1h-.4a.3.3 0 0 1-.2 0 .3.3 0 0 1 0-.2V114l-.2-1a1 1 0 0 0-.5-.4h-1.1a1 1 0 0 0-.4.5l-.2.9v2.8a.2.2 0 0 1 0 .1.2.2 0 0 1-.2.1H57Zm10.4.1a3 3 0 0 1-1-.1 2.2 2.2 0 0 1-.6-.4 1.8 1.8 0 0 1-.3-.4.8.8 0 0 1-.2-.3v-.2a.3.3 0 0 1 .3 0H66.2c0 .2.2.3.3.3l.4.3h.6l.8-.1a.6.6 0 0 0 .3-.6l-.1-.4-.5-.3a8.2 8.2 0 0 0-1-.2c-.3-.1-.7-.2-.9-.4l-.5-.5-.1-.6c0-.2 0-.5.2-.7l.6-.6 1-.2 1 .1a2 2 0 0 1 1 .7v.4a.2.2 0 0 1 0 .1h-.6a.7.7 0 0 1-.2 0 2.1 2.1 0 0 0-.2-.3 1 1 0 0 0-.3-.2h-.6l-.8.1a.7.7 0 0 0-.2.6l.1.3.4.3 1 .2 1 .4.5.5.2.7c0 .2-.1.5-.3.7-.1.3-.4.5-.7.6a3 3 0 0 1-1.2.2ZM47 100h-.2a.2.2 0 0 1 0-.2v-5.3a.2.2 0 0 1 .2-.1h2c.4 0 .7 0 1 .2.3.1.6.3.7.6.2.2.3.5.3 1s-.1.6-.3.9c-.1.2-.4.4-.7.5-.3.2-.6.2-1 .2h-1.4v2a.2.2 0 0 1 0 .2H46.8Zm.6-2.9h1.4c.4 0 .7 0 .9-.2.2-.2.3-.5.3-.8a1 1 0 0 0-.3-.8l-1-.2h-1.3v2Zm6 3c-.5 0-.8 0-1.1-.2a1.7 1.7 0 0 1-.7-.6 1.5 1.5 0 0 1-.2-.8.2.2 0 0 1 .2-.1h.5l.1.2c0 .2.1.3.3.4 0 .2.2.3.4.3a1.6 1.6 0 0 0 1 0c.3-.1.4-.3.5-.5.2-.1.2-.4.2-.6a1.1 1.1 0 0 0-.6-1 1.4 1.4 0 0 0-.6-.2H53a1.2 1.2 0 0 0-.3.2l-.2.2a.3.3 0 0 1-.2 0H52a.2.2 0 0 1-.1 0 .1.1 0 0 1 0-.1l.2-2.7a.2.2 0 0 1 0-.1.2.2 0 0 1 .2-.1H55a.2.2 0 0 1 .1 0 .2.2 0 0 1 0 .2v.3a.2.2 0 0 1 0 .1.2.2 0 0 1-.1 0h-2.3l-.2 1.7.4-.2.7-.1.7.1c.3 0 .5.2.6.4l.5.5.1.8c0 .4 0 .7-.3 1a1.7 1.7 0 0 1-.7.7 2.4 2.4 0 0 1-1 .2Zm5 0c-.4 0-.8 0-1-.2a1.7 1.7 0 0 1-.6-.5 2 2 0 0 1-.4-.7 3.8 3.8 0 0 1-.1-.8v-1.4l.1-.8.4-.7c.1-.2.3-.4.6-.5l1-.2c.3 0 .6 0 .8.2l.7.5.3.7.2.8a14.1 14.1 0 0 1-.2 2.2 2 2 0 0 1-.3.7l-.6.5-1 .2Zm0-.7c.3 0 .6-.1.8-.4l.4-1.1v-1.4c0-.4-.2-.8-.4-1-.2-.4-.5-.5-.9-.5s-.7.1-.9.4a2 2 0 0 0-.3 1.1V98c0 .4.1.8.3 1 .2.4.5.5 1 .5ZM69.7 171a.3.3 0 0 1-.1 0 .3.3 0 0 1 0-.2v-5.6l-1.7 1.3a.2.2 0 0 1-.2 0 .2.2 0 0 1-.2 0l-.2-.4a.3.3 0 0 1 0-.2.3.3 0 0 1 0-.1l2.2-1.7a.3.3 0 0 1 .1 0 .8.8 0 0 1 .2-.1h.5a.2.2 0 0 1 .1 0 .2.2 0 0 1 .1.2v6.6a.2.2 0 0 1 0 .1.2.2 0 0 1-.2.1h-.6Zm2 .8h-.1a.2.2 0 0 1 0-.2l3.4-8.3v-.1h.8v.1a.5.5 0 0 1 0 .2l-3.4 8.2a.4.4 0 0 1-.1 0l-.2.1h-.4Zm5-.8a.3.3 0 0 1-.2 0 .3.3 0 0 1 0-.2v-.5a.8.8 0 0 1 .2-.3l2.1-2.1.8-.7.4-.6.2-.6c0-.4-.1-.7-.4-1l-1-.2-.6.1a1.1 1.1 0 0 0-.5.5 2 2 0 0 0-.2.6v.2a.3.3 0 0 1-.2 0h-.6a.2.2 0 0 1-.1 0 .2.2 0 0 1 0-.2 2.2 2.2 0 0 1 .5-1.4l.8-.5 1-.2c.5 0 1 0 1.3.3.3.2.6.4.7.7a2.2 2.2 0 0 1 .1 1.9l-.4.7-.7.7-2 2H81.4l.1.2v.4a.2.2 0 0 1 0 .1l-.2.1h-4.4Zm22.4 0a.3.3 0 0 1-.2 0 .3.3 0 0 1 0-.2v-5.6l-1.7 1.3a.2.2 0 0 1-.1 0 .2.2 0 0 1-.2 0l-.3-.4a.3.3 0 0 1 0-.2.3.3 0 0 1 0-.1L99 164a.3.3 0 0 1 .1 0 .8.8 0 0 1 .1-.1h.5a.2.2 0 0 1 .2 0V171a.2.2 0 0 1-.2.1h-.5Zm2 .8a.2.2 0 0 1-.2 0 .2.2 0 0 1 0-.2l3.4-8.3.1-.1H105.2v.1a.6.6 0 0 1 0 .2l-3.4 8.2a.2.2 0 0 1-.2.1h-.4Zm7.3-.7-1-.1a2.5 2.5 0 0 1-.9-.5 2 2 0 0 1-.5-.5 1.5 1.5 0 0 1-.1-.7v-.1H106.8l.2.1c0 .3.1.5.3.6l.6.3h.6c.5 0 .9 0 1.1-.3.3-.2.5-.5.5-1 0-.4-.2-.7-.4-.9-.3-.2-.6-.3-1.1-.3h-1a.3.3 0 0 1-.1 0 .2.2 0 0 1 0-.2v-.4a.9.9 0 0 1 0-.1l2-2.2h-3a.3.3 0 0 1-.1 0 .2.2 0 0 1-.1-.2v-.5a.2.2 0 0 1 .2-.1h4.2V164.8a.9.9 0 0 1 0 .1l-2 2.2h.2c.4 0 .8 0 1.1.2.4.2.6.4.8.7.2.3.3.6.3 1 0 .5-.1 1-.4 1.2-.2.3-.5.6-.9.8l-1.3.2Zm20.7-.1a.3.3 0 0 1-.2 0 .3.3 0 0 1 0-.2v-5.6l-1.7 1.3a.2.2 0 0 1-.1 0 .2.2 0 0 1-.2 0l-.3-.4a.3.3 0 0 1 0-.2.3.3 0 0 1 0-.1l2.3-1.7a.3.3 0 0 1 .1 0 .8.8 0 0 1 .1-.1h.7V171a.2.2 0 0 1-.2.1h-.5Zm2 .8a.2.2 0 0 1-.2 0 .2.2 0 0 1 0-.2l3.4-8.3.1-.1H135.2v.1a.6.6 0 0 1 0 .2l-3.4 8.2a.2.2 0 0 1-.2.1h-.4Zm7.3-.7-1-.1a2.5 2.5 0 0 1-.9-.5 2 2 0 0 1-.5-.5 1.5 1.5 0 0 1-.1-.7v-.1H136.8l.2.1c0 .3.1.5.3.6l.6.3h.6c.5 0 .9 0 1.1-.3.3-.2.5-.5.5-1 0-.4-.2-.7-.4-.9-.3-.2-.6-.3-1.1-.3h-1a.3.3 0 0 1-.1 0 .2.2 0 0 1 0-.2v-.4a.9.9 0 0 1 0-.1l2-2.2h-3a.3.3 0 0 1-.1 0 .2.2 0 0 1-.1-.2v-.5a.2.2 0 0 1 .2-.1h4.2V164.8a.9.9 0 0 1 0 .1l-2 2.2h.2c.4 0 .8 0 1.1.2.4.2.6.4.8.7.2.3.3.6.3 1 0 .5-.1 1-.4 1.2-.2.3-.5.6-.9.8l-1.3.2Zm21.4-.1a.3.3 0 0 1-.2 0 .3.3 0 0 1 0-.2v-5.6l-1.7 1.3a.2.2 0 0 1-.2 0 .2.2 0 0 1-.1 0l-.3-.4a.3.3 0 0 1 0-.2.3.3 0 0 1 0-.1l2.2-1.7a.3.3 0 0 1 .2 0 .8.8 0 0 1 .1-.1h.7V171a.2.2 0 0 1-.2.1h-.5Zm2 .8h-.2a.2.2 0 0 1 0-.2l3.4-8.3v-.1H166v.1a.5.5 0 0 1 0 .2l-3.4 8.2-.2.1h-.4Zm7.8-.8a.3.3 0 0 1-.2 0 .3.3 0 0 1 0-.2v-1.5h-3.3a.3.3 0 0 1-.2 0 .3.3 0 0 1 0-.2v-.7l3-4.2.5-.2H170.3l.1.2v4.3h1.1V169.1a.2.2 0 0 1 0 .2.2.2 0 0 1-.2 0h-.9v1.5a.2.2 0 0 1 0 .1.2.2 0 0 1-.2.1h-.5Zm-2.7-2.5h2.5V165l-2.5 3.5Zm22.8 2.5a.3.3 0 0 1-.2 0 .3.3 0 0 1 0-.2v-5.6l-1.7 1.3a.2.2 0 0 1-.2 0 .2.2 0 0 1-.1 0l-.3-.4a.3.3 0 0 1 0-.2.2.2 0 0 1 0-.1l2.2-1.7a.3.3 0 0 1 .2 0 .8.8 0 0 1 0-.1h.6a.2.2 0 0 1 .2 0V171a.2.2 0 0 1-.2.1h-.5Zm2 .8h-.2a.2.2 0 0 1 0-.2l3.4-8.3v-.1h.8v.1a.6.6 0 0 1 0 .2l-3.4 8.2a.2.2 0 0 1-.3.1h-.4Zm7.2-.7c-.6 0-1 0-1.4-.3a2.2 2.2 0 0 1-.8-.7 1.8 1.8 0 0 1-.3-1l.2-.1h.7l.1.2.3.6.6.3a2 2 0 0 0 1.4 0l.5-.5c.2-.3.2-.6.2-.9 0-.3 0-.5-.2-.8a1.3 1.3 0 0 0-.5-.5 1.7 1.7 0 0 0-.8-.1h-.6l-.3.2-.3.2a.4.4 0 0 1-.2.1h-.6a.2.2 0 0 1-.1 0 .2.2 0 0 1 0-.2l.2-3.4.1-.1a.2.2 0 0 1 .2-.1h3.5a.2.2 0 0 1 .1 0l.1.2V164.8a.2.2 0 0 1-.2 0H198l-.2 2 .5-.2.8-.1 1 .1.7.5.5.7c.2.3.2.6.2 1s0 .9-.3 1.2c-.2.4-.5.6-1 .8a3 3 0 0 1-1.2.3Zm21-.1a.3.3 0 0 1-.2 0 .3.3 0 0 1 0-.2v-5.6l-1.7 1.3a.2.2 0 0 1-.2 0 .2.2 0 0 1-.1 0l-.3-.4a.3.3 0 0 1 0-.2.3.3 0 0 1 0-.1l2.2-1.7a.3.3 0 0 1 .2 0 .8.8 0 0 1 0-.1h.8V171a.2.2 0 0 1-.2.1h-.5Zm2 .8h-.2a.2.2 0 0 1 0-.2l3.4-8.3v-.1h.8v.1a.5.5 0 0 1 0 .2l-3.4 8.2a.3.3 0 0 1-.1 0l-.2.1h-.4Zm6.9-.7c-.6 0-1-.1-1.5-.3a2.4 2.4 0 0 1-.9-1 2.4 2.4 0 0 1-.2-1.7l.2-.5a6.2 6.2 0 0 1 .2-.4l.3-.4 1.9-2.6v-.1l.3-.1h.7v.2a.4.4 0 0 1 0 .1l-1.5 2h.3a2.5 2.5 0 0 1 2.6 1.5l.1.9c0 .4 0 .8-.3 1.2l-.9.9c-.3.2-.8.3-1.3.3Zm0-.8.7-.2c.2-.1.5-.3.6-.6.2-.2.2-.5.2-.8 0-.3 0-.6-.2-.8a1.4 1.4 0 0 0-.6-.6l-.8-.2-.7.2c-.3.1-.5.3-.6.5l-.3.9c0 .3.1.6.3.8.1.3.3.4.6.6s.5.1.7.1Zm21.3.7a.3.3 0 0 1-.2 0 .3.3 0 0 1 0-.2v-5.6l-1.7 1.3a.2.2 0 0 1-.2 0 .2.2 0 0 1-.2 0l-.2-.4a.3.3 0 0 1 0-.2.2.2 0 0 1 0-.1l2.2-1.7a.3.3 0 0 1 .1 0 .8.8 0 0 1 .2-.1h.5a.2.2 0 0 1 .1 0l.1.2V171a.2.2 0 0 1-.2.1h-.5Zm2 .8h-.2a.2.2 0 0 1 0-.2l3.4-8.3v-.1h.8v.1a.6.6 0 0 1 0 .2l-3.4 8.2a.3.3 0 0 1-.1 0 .2.2 0 0 1-.2.1h-.4Zm5.8-.8h-.2a.3.3 0 0 1 0-.2v-.1l2.5-5.8H257a.3.3 0 0 1-.2 0 .3.3 0 0 1 0-.3v-.5a.2.2 0 0 1 .2-.1h4.3V164.7a.9.9 0 0 1 0 .4l-2.5 5.8a.7.7 0 0 1-.1.1l-.2.1h-.5Zm21.1 0a.3.3 0 0 1-.1 0 .3.3 0 0 1-.1-.2v-5.6l-1.7 1.3a.2.2 0 0 1-.1 0 .2.2 0 0 1-.2 0l-.2-.4a.3.3 0 0 1 0-.2.3.3 0 0 1 0-.1l2.2-1.7a.3.3 0 0 1 .1 0 .8.8 0 0 1 .2-.1h.6V171a.2.2 0 0 1-.1.1h-.6Zm2 .8h-.1a.2.2 0 0 1 0-.2l3.4-8.3v-.1H285.1l.1.1a.5.5 0 0 1 0 .2l-3.4 8.2a.3.3 0 0 1-.1 0l-.2.1h-.4Zm7.3-.7-1-.1-.9-.5a2 2 0 0 1-.5-.6 2 2 0 0 1-.2-1c0-.3.1-.7.3-1 .2-.3.5-.5.8-.6a1.7 1.7 0 0 1-.6-.6 1.7 1.7 0 0 1-.2-1c0-.3 0-.6.3-1l.8-.6 1.3-.2c.4 0 .8 0 1.2.2l.8.7c.2.3.3.6.3 1 0 .3 0 .6-.2.9a1.7 1.7 0 0 1-.6.6 1.9 1.9 0 0 1 1 1.7c0 .4 0 .8-.3 1.1-.2.3-.5.6-.9.8l-1.4.2Zm0-.8c.4 0 .6 0 .9-.2.2 0 .4-.2.6-.4l.2-.7c0-.3 0-.5-.2-.7a1.4 1.4 0 0 0-.6-.4 2 2 0 0 0-.9-.2c-.3 0-.5 0-.8.2-.2 0-.4.2-.6.4a1 1 0 0 0-.2.7c0 .3 0 .5.2.7l.6.4.8.2Zm0-3.4.7-.1.6-.4.2-.6a1 1 0 0 0-.2-.6 1.1 1.1 0 0 0-.5-.4 1.8 1.8 0 0 0-.8-.1l-.7.1a1.2 1.2 0 0 0-.5.4 1 1 0 0 0-.2.6c0 .2 0 .4.2.6l.5.4.7.1Zm21.4 4.1a.3.3 0 0 1-.2 0 .3.3 0 0 1 0-.2v-5.6l-1.7 1.3a.2.2 0 0 1-.2 0 .2.2 0 0 1-.1 0l-.3-.4a.3.3 0 0 1 0-.2.2.2 0 0 1 0-.1l2.2-1.7a.3.3 0 0 1 .2 0 .8.8 0 0 1 0-.1h.6a.2.2 0 0 1 .2 0V171a.2.2 0 0 1-.2.1h-.5Zm2 .8h-.2a.2.2 0 0 1 0-.2l3.4-8.3v-.1h.8v.1a.6.6 0 0 1 0 .2l-3.4 8.2a.2.2 0 0 1-.3.1h-.4Zm6.2-.8h-.2a.3.3 0 0 1 0-.2v-.1l1.6-2.2h-.6a2.6 2.6 0 0 1-1-.1 2.3 2.3 0 0 1-.7-.5 2.3 2.3 0 0 1-.5-.8 2.3 2.3 0 0 1-.2-.8c0-.3 0-.6.2-.9a2.4 2.4 0 0 1 .5-.8c.2-.2.4-.4.8-.5l1-.2c.5 0 .8 0 1.2.2a2.2 2.2 0 0 1 1.2 1.3 2.4 2.4 0 0 1-.2 2.2l-.3.5-2 2.7a6 6 0 0 1 0 .1l-.3.1h-.5Zm1-3.2c.2 0 .5 0 .7-.2.3-.1.5-.3.6-.5l.2-.8c0-.4 0-.6-.2-.8-.1-.3-.3-.4-.6-.6a1.6 1.6 0 0 0-.7-.2 1.6 1.6 0 0 0-1.4.8l-.2.8.2.8a1.5 1.5 0 0 0 1.4.7Z"/><circle cx="40" cy="97" r="3" fill="#9E86FF"/><path fill="#71637E" d="M74.9 100h-.2a.2.2 0 0 1 0-.2v-5.3a.2.2 0 0 1 .2-.1h2c.4 0 .7 0 1 .2.3.1.6.3.7.6.2.2.3.5.3 1s-.1.6-.3.9c-.1.2-.4.4-.7.5-.3.2-.6.2-1 .2h-1.4v2a.2.2 0 0 1 0 .2H74.8Zm.6-2.9h1.4c.4 0 .7 0 .9-.2.2-.2.3-.5.3-.8a1 1 0 0 0-.3-.8l-1-.2h-1.3v2Zm4.8 2.9a.2.2 0 0 1-.1-.2l2-4.7h-2.7a.2.2 0 0 1-.1-.2v-.4a.2.2 0 0 1 .1-.1h3.3a.2.2 0 0 1 .2 0 .2.2 0 0 1 0 .2v.3a.7.7 0 0 1 0 .3l-2 4.6a.5.5 0 0 1-.1.1l-.1.1h-.5Zm5.3 0-1.1-.1a1.7 1.7 0 0 1-.7-.6 1.5 1.5 0 0 1-.2-.8.2.2 0 0 1 .2-.1h.5l.1.2c0 .2.1.3.3.4a1.2 1.2 0 0 0 .9.4l.6-.1.4-.5c.2-.1.2-.4.2-.6a1.1 1.1 0 0 0-.6-1 1.4 1.4 0 0 0-.6-.2H85a1.2 1.2 0 0 0-.2.2l-.3.2a.3.3 0 0 1-.2 0H84a.2.2 0 0 1-.1 0 .1.1 0 0 1 0-.1l.2-2.7a.2.2 0 0 1 0-.1.2.2 0 0 1 .2-.1h2.8a.2.2 0 0 1 .1 0 .2.2 0 0 1 0 .2v.3a.2.2 0 0 1 0 .1.2.2 0 0 1-.1 0h-2.3l-.2 1.7.4-.2.7-.1.7.1c.3 0 .5.2.6.4l.5.5.1.8c0 .4 0 .7-.3 1a1.7 1.7 0 0 1-.7.7 2.4 2.4 0 0 1-1 .2Z"/><circle cx="68" cy="97" r="3" fill="#A737B4"/><path fill="#71637E" d="M102.9 100h-.2a.2.2 0 0 1 0-.2v-5.3a.2.2 0 0 1 .2-.1h2c.4 0 .7 0 1 .2.3.1.6.3.7.6.2.2.3.5.3 1s-.1.6-.3.9c-.1.2-.4.4-.7.5-.3.2-.6.2-1 .2h-1.4v2a.2.2 0 0 1 0 .2H102.8Zm.6-2.9h1.4c.4 0 .7 0 .9-.2.2-.2.3-.5.3-.8a1 1 0 0 0-.3-.8l-1-.2h-1.3v2Zm5.8 2.9a.2.2 0 0 1-.1 0 .2.2 0 0 1 0-.2v-4.5l-1.4 1a.2.2 0 0 1-.1.1.2.2 0 0 1-.1 0l-.2-.3a.2.2 0 0 1 0-.2.2.2 0 0 1 0-.1l1.7-1.3a.3.3 0 0 1 .2 0 .6.6 0 0 1 0-.1h.5a.2.2 0 0 1 .1.2v5.2a.2.2 0 0 1 0 .2.2.2 0 0 1-.1 0h-.5Zm3.8 0h-1a1.7 1.7 0 0 1-.6-.6 2 2 0 0 1-.3-.7 3.7 3.7 0 0 1-.1-.8 44.4 44.4 0 0 1 0-.5V97a48.2 48.2 0 0 1 0-.5v-.8a2 2 0 0 1 .4-.7l.7-.5.9-.2c.4 0 .7 0 1 .2l.5.5.4.7.1.8a14.1 14.1 0 0 1-.1 2.2 2 2 0 0 1-.4.7c-.1.2-.3.4-.6.5l-1 .2Zm0-.6c.4 0 .7-.1 1-.4l.2-1.1v-1.4c0-.4 0-.8-.3-1-.2-.4-.5-.5-1-.5-.3 0-.6.1-.8.4a2 2 0 0 0-.3 1.1V98c0 .4 0 .8.3 1 .2.4.5.5.9.5Zm5 .7c-.3 0-.6 0-.9-.2a1.7 1.7 0 0 1-.6-.5 2 2 0 0 1-.3-.7 3.7 3.7 0 0 1-.2-.8 44.4 44.4 0 0 1 0-.5V97a48.2 48.2 0 0 1 0-.5c0-.3 0-.6.2-.8a2 2 0 0 1 .3-.7l.6-.5 1-.2c.3 0 .6 0 .9.2.3.1.5.3.6.5l.4.7.1.8a14.1 14.1 0 0 1-.1 2.2 2 2 0 0 1-.4.7c-.1.2-.3.4-.6.5l-1 .2Zm0-.7c.5 0 .8-.1 1-.4.2-.3.3-.7.3-1.1v-1.4c0-.4-.1-.8-.3-1-.2-.4-.5-.5-1-.5-.3 0-.6.1-.9.4a2 2 0 0 0-.3 1.1V98c0 .4.2.8.4 1 .2.4.5.5.9.5Z"/><circle cx="96" cy="97" r="3" fill="#FFD00E"/><path stroke="#E0DCE5" stroke-width=".5" d="M74 113.8h249m-249 18h249m-249 18h249"/><path stroke="#9E86FF" stroke-linecap="round" stroke-linejoin="bevel" stroke-miterlimit="10" stroke-width="1.5" d="m323 136.2-3-4.4-3-.8-3 .8h-3l-2.9-8.8-3 .8-2.6 7.2-3.3-7.2h-6l-3 8h-3l-3-.8-2.9.8h-29.8l-3-3.2-3 3.2h-2.9l-3 4.4h-11.9l-3-.8-3 .8H210l-3-2.4-3 2.4h-3l-3-8h-6l-2.9 8-2.8-19-3.1 19h-18l-2.8-3.1h-6l-3-.8-3 .8-3-.8-3 .8-3-.8-3 .8h-2.9l-3-3.2-3-3.3-3-3.2-2.9-3.9-3 .8-3 8.6-3-5.5-2.9 5.5-3-3.9-3 2.5-3-4-3-3.2-2.9 4.8-3 1.6-3-2.5-3 2.5h-2.9l-3 3.2h-3l-3-12.7"/><path stroke="#FFD00E" stroke-linecap="round" stroke-linejoin="bevel" stroke-miterlimit="10" stroke-width="1.5" d="m323 146.2-3-1.4-3-.3-3 .3h-3l-2.9-2.8-3 .3-2.6 2.2-3.3-2.2h-6l-3 2.5h-3l-3-.3-2.9.3h-29.8l-3-1-3 1h-2.9l-3 1.4h-11.9l-3-.3-3 .3H210l-3-.8-3 .8h-3l-3-2.5h-6l-2.9 2.5-2.8-6-3.1 6h-18l-2.8-1h-6l-3-.3-3 .3-3-.3-3 .3-3-.3-3 .3h-2.9l-3-1-3-1-3-1-2.9-1.3-3 .2-3 2.8-3-1.8-2.9 1.8-3-1.3-3 .8-3-1.2-3-1-2.9 1.5-3 .5-3-.8-3 .8h-2.9l-3 1h-3l-3-4"/><path stroke="#A737B4" stroke-linecap="round" stroke-linejoin="bevel" stroke-miterlimit="10" stroke-width="1.5" d="m323 140.2-3-2.1-3-.4-3 .4h-3l-2.9-4.2-3 .4-2.6 3.4-3.3-3.4h-6l-3 3.8h-3l-3-.4-2.9.4h-29.8l-3-1.5-3 1.5h-2.9l-3 2h-11.9l-3-.3-3 .4H210l-3-1.2-3 1.2h-3l-3-3.8h-6l-2.9 3.8-2.8-9-3.1 9h-18l-2.8-1.5h-6l-3-.4-3 .4-3-.4-3 .4-3-.4-3 .4h-2.9l-3-1.5-3-1.6-3-1.5-2.9-1.8-3 .3-3 4.1-3-2.6-2.9 2.6-3-1.8-3 1.2-3-2-3-1.5-2.9 2.3-3 .8-3-1.2-3 1.2h-2.9l-3 1.5h-3l-3-6"/><rect width="110" height="17" x="289.6" y="88.4" fill="#fff" rx="1.5" transform="rotate(-9.3 289.6 88.4)"/><rect width="110" height="17" x="289.6" y="88.4" stroke="#E0DCE5" rx="1.5" transform="rotate(-9.3 289.6 88.4)"/><path fill="#2B2233" d="M302.1 99.1H301a2.3 2.3 0 0 1-.9-.5 3 3 0 0 1-.6-.8 4.8 4.8 0 0 1-.3-1 5.4 5.4 0 0 1-.2-.8 4.8 4.8 0 0 1 0-1c0-.4.2-.8.3-1a2.1 2.1 0 0 1 .7-.8l1.1-.5 1.2.1.9.5-.5-2.7a.3.3 0 0 1 0-.2.3.3 0 0 1 .2-.1l.6-.1a.2.2 0 0 1 .2 0 .2.2 0 0 1 .1.2l1.3 7.8a.3.3 0 0 1 0 .3.3.3 0 0 1-.2 0l-.5.2h-.3a.3.3 0 0 1 0-.3l-.1-.5a2.5 2.5 0 0 1-.7.8c-.3.2-.7.4-1.2.4Zm.1-1c.4 0 .7-.2 1-.4l.4-.8a2.5 2.5 0 0 0 0-.9 8 8 0 0 0-.1-.9 2 2 0 0 0-.4-.8 1.6 1.6 0 0 0-.6-.5c-.3-.2-.6-.2-1-.1-.4 0-.7.2-1 .4-.1.2-.3.5-.3.8a3.2 3.2 0 0 0 0 1v.6l.4 1 .6.5c.3.2.6.2 1 .1Zm7.2-.2c-.8.2-1.5 0-2-.4-.6-.4-1-1-1.2-2a5.2 5.2 0 0 1 0-.3 5.7 5.7 0 0 1-.1-.4c-.1-.6 0-1 .1-1.5.2-.5.4-.9.8-1.2.4-.3.8-.5 1.3-.5.6-.1 1.2-.1 1.6 0 .5.3.8.6 1.1 1 .3.4.5 1 .6 1.6v.2a.3.3 0 0 1 0 .2.3.3 0 0 1-.2.1l-4 .7c0 .4.1.7.3 1l.7.6c.2 0 .5.1.8 0a1.7 1.7 0 0 0 1.3-.8l.2-.2a.4.4 0 0 1 .2 0l.5-.2a.2.2 0 0 1 .2 0l.1.2v.5a2.4 2.4 0 0 1-.5.6l-.7.5c-.3.2-.7.3-1.1.3Zm-2.2-3.3 3.2-.6a2.2 2.2 0 0 0-.3-1 1.5 1.5 0 0 0-1.6-.6c-.4 0-.6.2-.9.4a1.5 1.5 0 0 0-.4.8 2.3 2.3 0 0 0 0 1Zm8.3 2.2a.5.5 0 0 1-.3 0 .6.6 0 0 1-.2-.2l-3.1-5.1a.3.3 0 0 1 0-.1.2.2 0 0 1 .2-.3l.5-.1a.3.3 0 0 1 .2 0 .4.4 0 0 1 .2.1l2.5 4.4 1-5 .1-.1.2-.1.6-.1a.2.2 0 0 1 .2 0 .2.2 0 0 1 0 .2v.1l-1.2 5.9a.5.5 0 0 1-.1.2l-.3.1-.5.1Zm4.7-.7a.3.3 0 0 1-.2 0 .3.3 0 0 1-.1-.3l-1-5.6a.3.3 0 0 1 0-.2.3.3 0 0 1 .3-.1l.5-.1a.2.2 0 0 1 .2 0 .2.2 0 0 1 .1.2l1 5.6a.3.3 0 0 1 0 .3.3.3 0 0 1-.3 0l-.5.2Zm-1.3-7.3a.3.3 0 0 1-.2 0 .3.3 0 0 1-.1-.3l-.2-.6a.3.3 0 0 1 0-.2.3.3 0 0 1 .3-.1l.7-.2a.3.3 0 0 1 .2.1.3.3 0 0 1 .2.2v.6a.3.3 0 0 1 0 .2.3.3 0 0 1-.2.1l-.7.2Zm6.4 6.5h-1.5a2.3 2.3 0 0 1-1.1-.8c-.3-.4-.5-.9-.6-1.4a7.6 7.6 0 0 1-.1-.5 6.8 6.8 0 0 1 0-.5c-.2-.6-.1-1 0-1.5.2-.4.4-.8.8-1a3 3 0 0 1 1.4-.7h1.2l1 .4a2 2 0 0 1 .8 1.2.2.2 0 0 1 0 .2.3.3 0 0 1-.2 0l-.6.2h-.2a.7.7 0 0 1-.2-.2c-.2-.4-.4-.6-.7-.7-.2-.2-.6-.2-1-.1-.4 0-.8.3-1 .6-.2.3-.3.8-.2 1.5v.8c.2.7.5 1.1.8 1.4.3.2.8.3 1.2.2.4 0 .7-.2.9-.4.2-.2.4-.5.4-.9a.7.7 0 0 1 .1-.2l.2-.1h.6a.3.3 0 0 1 .2 0 .2.2 0 0 1 0 .1v.6a2 2 0 0 1-.2.5 2.3 2.3 0 0 1-1 1 3.7 3.7 0 0 1-1 .3Zm6.5-1c-.8.1-1.5 0-2.1-.5-.6-.4-1-1-1.1-1.9a5.2 5.2 0 0 1-.1-.4 5.7 5.7 0 0 1 0-.4v-1.5c.2-.5.5-.9.9-1.1.3-.3.8-.5 1.3-.6.6-.1 1.1 0 1.6.1.4.2.8.5 1 1 .4.4.6.9.7 1.5v.4a.3.3 0 0 1-.2.1l-4.1.7v.1c0 .3.2.6.4.9l.6.6h1c.2 0 .4 0 .6-.2a2 2 0 0 0 .4-.3l.2-.3.2-.2a.4.4 0 0 1 .1 0l.6-.2a.2.2 0 0 1 .2 0l.1.2-.1.5a2.4 2.4 0 0 1-.4.6 2.8 2.8 0 0 1-.8.5 3.5 3.5 0 0 1-1 .4Zm-2.2-3.4 3.2-.5a2.2 2.2 0 0 0-.4-1 1.5 1.5 0 0 0-1.5-.7 1.5 1.5 0 0 0-.9.4 1.5 1.5 0 0 0-.4.8 2.3 2.3 0 0 0 0 1Z"/><path fill="#71637E" d="M339.1 93a.3.3 0 0 1-.2-.1.3.3 0 0 1-.1-.2l-1-5.6a.3.3 0 0 1 .1-.2.3.3 0 0 1 .2-.1l.6-.1a.2.2 0 0 1 .2 0 .2.2 0 0 1 0 .2l1 5.6a.3.3 0 0 1 0 .2.3.3 0 0 1-.2.2h-.6Zm-1.3-7.3a.3.3 0 0 1-.2 0 .3.3 0 0 1-.1-.3l-.1-.6a.3.3 0 0 1 0-.2.3.3 0 0 1 .2-.1l.8-.2a.3.3 0 0 1 .2 0 .3.3 0 0 1 0 .3l.2.6a.3.3 0 0 1 0 .2.3.3 0 0 1-.3.1l-.7.2Zm6 6.6h-1.1a2.6 2.6 0 0 1-.9-.3 2 2 0 0 1-.5-.4 1 1 0 0 1-.2-.3V91a.3.3 0 0 1 .2-.1l.6-.1h.2l.4.3.5.2h.7a2 2 0 0 0 1-.4.8.8 0 0 0 .2-.7.7.7 0 0 0-.2-.5l-.6-.2a9.7 9.7 0 0 0-1.2-.1l-1.2-.2-.7-.5a1.7 1.7 0 0 1-.3-.7 1.6 1.6 0 0 1 .2-1c0-.2.3-.5.6-.7.3-.3.7-.4 1.2-.5h1.1a2.4 2.4 0 0 1 1.3.6l.2.4a.2.2 0 0 1 0 .2.3.3 0 0 1-.2.1h-.5a.3.3 0 0 1-.1 0 .9.9 0 0 1-.2 0 2.5 2.5 0 0 0-.3-.3 1.1 1.1 0 0 0-.4-.1h-.7c-.4 0-.7.2-.9.4a.8.8 0 0 0-.2.6l.2.4.6.3h1.1l1.3.3c.4.1.6.3.8.5l.3.8c0 .3 0 .6-.2 1a2 2 0 0 1-.7.7c-.4.2-.8.4-1.4.5Z"/><path fill="#6C5FC7" d="M350.9 91a.3.3 0 0 1-.2 0 .3.3 0 0 1-.1-.2l-1-5.6a.3.3 0 0 1 .1-.2.3.3 0 0 1 .2-.2h.5a.2.2 0 0 1 .2 0 .2.2 0 0 1 .1.2l.1.4.6-.7a2 2 0 0 1 1-.4c.9-.1 1.5.1 2 .8l.7-1a2.4 2.4 0 0 1 1.1-.4h1.2l1 .8c.2.4.4.8.5 1.4l.5 3.4a.3.3 0 0 1 0 .2.3.3 0 0 1-.2.1l-.6.1a.3.3 0 0 1-.2 0 .3.3 0 0 1 0-.2l-.6-3.3c-.1-.5-.2-.8-.4-1-.2-.3-.4-.4-.6-.5a1.6 1.6 0 0 0-.7 0l-.6.2-.5.7v1l.6 3.4a.3.3 0 0 1 0 .2.3.3 0 0 1-.3 0l-.5.2a.3.3 0 0 1-.2 0 .3.3 0 0 1-.1-.3l-.6-3.3c0-.4-.2-.8-.4-1-.1-.2-.3-.4-.6-.4a1.6 1.6 0 0 0-.7 0 1.5 1.5 0 0 0-.6.2c-.2.1-.3.3-.4.6v1l.5 3.4a.3.3 0 0 1 0 .2.3.3 0 0 1-.2.1l-.6.1Zm12-1.8a2.5 2.5 0 0 1-1.1-.1 2.1 2.1 0 0 1-1-.5 1.5 1.5 0 0 1-.4-.9c0-.5.1-1 .5-1.4.4-.4 1-.7 1.6-1l1.7-.5v-.3c0-.4-.2-.7-.5-.8-.2-.2-.6-.3-1.1-.2-.4 0-.6.2-.8.4a1.1 1.1 0 0 0-.4.6c0 .1 0 .2-.2.2l-.5.1a.3.3 0 0 1-.3 0 .3.3 0 0 1 0-.2V84c0-.2.2-.4.4-.6l.6-.5a3 3 0 0 1 1-.3h1.3a1.9 1.9 0 0 1 1.3 1c.2.2.3.4.3.7l.6 3.9a.3.3 0 0 1 0 .2.3.3 0 0 1-.2 0l-.5.2a.3.3 0 0 1-.2 0 .3.3 0 0 1-.1-.3l-.1-.5-.4.5a2.4 2.4 0 0 1-1.5.8Zm0-1a2 2 0 0 0 1-.3l.5-.8V85.7l-1.4.4c-.5.1-1 .4-1.2.6-.2.2-.3.5-.3.8 0 .2.1.4.3.5l.5.2h.7Zm7.3-.2-1.5-.1a2.4 2.4 0 0 1-1.1-.8c-.3-.4-.5-.9-.6-1.4a8.3 8.3 0 0 1 0-.5 8.3 8.3 0 0 1-.2-.5c0-.5 0-1 .2-1.5.1-.4.4-.8.7-1a3 3 0 0 1 1.4-.6h1.2c.4 0 .7.1 1 .3a2 2 0 0 1 .8 1.2.2.2 0 0 1 0 .2.3.3 0 0 1-.2.1h-.6c0 .1-.1.1-.2 0a.6.6 0 0 1-.1-.1c-.2-.4-.5-.6-.7-.7-.3-.1-.6-.2-1-.1-.5 0-.8.3-1 .6-.3.4-.4.9-.3 1.5l.1.8c.1.7.4 1.1.7 1.4.4.2.8.3 1.3.2.3 0 .6-.2.8-.4.2-.2.4-.5.5-.9a.7.7 0 0 1 0-.2h.2l.6-.2a.3.3 0 0 1 .2 0 .2.2 0 0 1 .1.3v.5a2 2 0 0 1-.2.6 2.3 2.3 0 0 1-.5.5l-.6.5a3.7 3.7 0 0 1-1 .3Zm6.6-1.1a3 3 0 0 1-1.6-.1 2.4 2.4 0 0 1-1-.8 3.4 3.4 0 0 1-.7-1.4 8.5 8.5 0 0 1 0-.5 8.9 8.9 0 0 1-.1-.5l.1-1.4c.2-.5.4-.8.8-1.1a3 3 0 0 1 1.4-.6 3 3 0 0 1 1.6 0c.4.2.8.5 1 .9.3.3.5.8.6 1.3a10.8 10.8 0 0 1 .2 1 3.4 3.4 0 0 1-.1 1.5 2.4 2.4 0 0 1-.8 1 3 3 0 0 1-1.4.7Zm-.2-1c.5 0 .9-.2 1.1-.6.2-.4.3-.8.3-1.4a6.6 6.6 0 0 0-.1-.5 6.7 6.7 0 0 0 0-.4c-.2-.6-.4-1-.8-1.3-.3-.3-.7-.4-1.2-.3-.5 0-.9.3-1.1.7-.3.3-.4.8-.3 1.4a8.1 8.1 0 0 0 .2.9c0 .6.3 1 .7 1.3.3.3.7.3 1.2.3Zm6.6 0H382a2.6 2.6 0 0 1-.8-.3 2 2 0 0 1-.6-.4 1 1 0 0 1-.2-.4.2.2 0 0 1 0-.2.3.3 0 0 1 .3-.1h.7l.4.3.5.2h.7a2 2 0 0 0 1-.4.8.8 0 0 0 .3-.8.7.7 0 0 0-.3-.4l-.6-.3a9.8 9.8 0 0 0-1.1 0l-1.2-.3c-.3-.1-.6-.3-.7-.5a1.7 1.7 0 0 1-.3-.7 1.6 1.6 0 0 1 0-.9l.7-.8 1.3-.5h1a2.4 2.4 0 0 1 1.3.7l.2.3a.2.2 0 0 1 0 .2.3.3 0 0 1-.2.1l-.5.1a.3.3 0 0 1-.1 0 1 1 0 0 1-.1 0 2.5 2.5 0 0 0-.4-.3 1.1 1.1 0 0 0-.4-.2h-.7c-.4 0-.7.2-.8.4a.8.8 0 0 0-.2.7l.2.4.5.2 1.1.1 1.3.2.8.5c.2.2.3.5.3.8l-.1 1a2 2 0 0 1-.8.8c-.3.2-.8.3-1.3.4Zm3.5-.8a.3.3 0 0 1-.2 0 .2.2 0 0 1 0-.2.8.8 0 0 1 0-.2l1.6-3-2.3-2.3a1.2 1.2 0 0 1-.1 0 .4.4 0 0 1 0-.2.2.2 0 0 1 .2-.3h.8a.5.5 0 0 1 .1 0l2 1.9 1.2-2.3v-.2h.2l.6-.2a.2.2 0 0 1 .3.2.2.2 0 0 1 0 .1.4.4 0 0 1 0 .2l-1.6 2.8 2.5 2.4a.2.2 0 0 1 0 .4l-.7.2a.3.3 0 0 1-.2 0 .9.9 0 0 1-.1-.2l-2-1.9-1.4 2.5v.1l-.3.1-.6.1Z"/><rect width="123" height="17" x="173.6" y="44.6" fill="#fff" rx="1.5" transform="rotate(10.2 173.6 44.6)"/><rect width="123" height="17" x="173.6" y="44.6" stroke="#E0DCE5" rx="1.5" transform="rotate(10.2 173.6 44.6)"/><path fill="#2B2233" d="M181.7 61.4c-.6 0-1-.2-1.3-.4l-.7-.7a2 2 0 0 1-.3-.7 1.7 1.7 0 0 1 0-.5.2.2 0 0 1 0-.2.3.3 0 0 1 .3 0l.5.1h.2v.3l.2.4c0 .2.2.3.4.5l.8.3h1c.2 0 .4-.2.6-.4.2-.2.3-.6.4-1l.1-.8-.8.5h-1.2c-.5 0-.8-.2-1.1-.4a2.3 2.3 0 0 1-.7-.8 3 3 0 0 1-.3-1 4.7 4.7 0 0 1 0-1l.2-.7c0-.4.2-.7.3-1l.6-.9 1-.5h1.1c.5.1.9.3 1.1.5l.7.8v-.5a.3.3 0 0 1 .2-.2.3.3 0 0 1 .2 0h.5l.2.1a.3.3 0 0 1 0 .3l-1 5.7c0 .5-.2 1-.5 1.3a2 2 0 0 1-1 .9h-1.7Zm.6-3.5h1c.3-.2.5-.4.6-.7l.4-.8a6.8 6.8 0 0 0 .1-.8 2.3 2.3 0 0 0 0-.9 1.6 1.6 0 0 0-.4-.7c-.2-.3-.5-.4-1-.5l-1 .1c-.2.1-.4.3-.5.6a3.2 3.2 0 0 0-.4 1 8.6 8.6 0 0 0-.1.5 3.3 3.3 0 0 0 0 1c0 .3.2.6.4.8.2.2.5.3.9.4Zm6.8 2.3c-.8-.2-1.4-.5-1.8-1.1-.4-.6-.5-1.3-.4-2.2a5.2 5.2 0 0 1 .1-.8l.7-1.4a2.5 2.5 0 0 1 1-.8c.5-.2 1-.2 1.6 0 .5 0 1 .2 1.4.6.3.3.6.7.7 1.2.2.5.2 1 0 1.7v.2l-.1.2a.3.3 0 0 1-.2 0l-4-.7h-.1v1l.5.8c.2.2.4.4.8.4a1.7 1.7 0 0 0 1.5-.4l.2-.1a.4.4 0 0 1 .2 0h.6a.2.2 0 0 1 .1.2v.2l-.2.4a2.4 2.4 0 0 1-.6.4 2.8 2.8 0 0 1-.9.2 3.5 3.5 0 0 1-1 0Zm-1-4 3.3.6a2.2 2.2 0 0 0 0-1 1.5 1.5 0 0 0-1.3-1.1 1.5 1.5 0 0 0-1 0 1.6 1.6 0 0 0-.6.6 2.3 2.3 0 0 0-.3 1Zm7.7 5.2a3 3 0 0 1-1.5-.6c-.3-.3-.6-.7-.7-1.1a3.4 3.4 0 0 1-.1-1.5 8.6 8.6 0 0 1 .2-1c0-.5.3-1 .6-1.3.3-.4.6-.6 1-.8a3 3 0 0 1 1.6 0c.6 0 1.1.2 1.5.5.3.3.6.7.7 1.1.2.5.2 1 .1 1.5a9.2 9.2 0 0 1 0 .5 9.2 9.2 0 0 1-.2.5 3.4 3.4 0 0 1-.6 1.3 2.4 2.4 0 0 1-1 .8 3 3 0 0 1-1.6.1Zm.1-1c.5.2 1 0 1.3-.2.3-.2.6-.7.7-1.2a6.7 6.7 0 0 0 .2-1c0-.5 0-1-.2-1.4-.3-.4-.6-.6-1.1-.7-.5 0-1 0-1.3.3-.3.2-.6.7-.7 1.3a8.1 8.1 0 0 0-.2.9c0 .6 0 1 .2 1.4.3.4.7.6 1.1.7Zm4.2 1.7a.3.3 0 0 1-.1-.1.3.3 0 0 1 0-.3V61a.3.3 0 0 1 .2-.2.3.3 0 0 1 .2 0l.8.1a.3.3 0 0 1 .2.1.2.2 0 0 1 0 .2v.9a.3.3 0 0 1-.2.2.3.3 0 0 1-.2 0l-.9-.1Zm3.1.5a.3.3 0 0 1-.2-.1.3.3 0 0 1 0-.2l1.4-7.9a.3.3 0 0 1 .3-.2l.6.1a.3.3 0 0 1 .2.1.3.3 0 0 1 0 .2l-1.4 7.9a.3.3 0 0 1-.1.2h-.8Zm5.1 1a3 3 0 0 1-1.4-.6c-.4-.3-.7-.6-.8-1a3.4 3.4 0 0 1-.1-1.5 9.6 9.6 0 0 1 .2-1c.1-.6.3-1 .6-1.4l1-.8a3 3 0 0 1 1.6 0c.6 0 1.1.3 1.5.6l.7 1c.2.5.2 1 .1 1.6a9.2 9.2 0 0 1 0 .5 9.2 9.2 0 0 1-.1.5 3.4 3.4 0 0 1-.7 1.3 2.4 2.4 0 0 1-1 .8 3 3 0 0 1-1.6 0Zm.2-.9c.4.1.9 0 1.2-.2.4-.3.6-.7.7-1.3a6.9 6.9 0 0 0 .2-.9c0-.6 0-1-.2-1.4-.3-.4-.6-.6-1.1-.7-.5-.1-1 0-1.3.2-.3.3-.6.7-.7 1.3a8 8 0 0 0-.2 1c0 .5 0 1 .3 1.4.2.3.6.6 1 .6ZM215 65c-.5-.1-1-.3-1.4-.6a2.3 2.3 0 0 1-.7-1.1c-.2-.5-.2-1-.1-1.5a7.5 7.5 0 0 1 .2-1c0-.6.3-1 .6-1.4.3-.4.6-.6 1-.7a3 3 0 0 1 1.6-.1c.4 0 .8.2 1.1.4l.8.6a2 2 0 0 1 .4 1.4.2.2 0 0 1-.1.2.3.3 0 0 1-.2 0h-.6l-.2-.2a.6.6 0 0 1 0-.2c-.1-.4-.3-.7-.5-.9-.2-.2-.5-.3-.9-.4-.4 0-.8 0-1.2.2-.3.3-.6.7-.7 1.4l-.2.8c0 .7 0 1.2.2 1.5.3.3.7.5 1.1.6h1c.2-.2.5-.4.7-.8a.7.7 0 0 1 .2-.1h.7a.3.3 0 0 1 .2.2.2.2 0 0 1 0 .2 1.8 1.8 0 0 1-.2.5l-.4.4c-.1.2-.3.3-.6.4a3 3 0 0 1-.8.2 3.7 3.7 0 0 1-1 0Zm5.8 1a2.5 2.5 0 0 1-1-.4 2.1 2.1 0 0 1-.7-.8 1.5 1.5 0 0 1-.1-1c0-.5.4-1 .9-1.2.5-.2 1-.3 1.8-.3h1.8V62c.1-.3 0-.6-.1-.9-.2-.3-.5-.4-1-.5h-.9a1.1 1.1 0 0 0-.5.5c-.1.1-.2.2-.3.1h-.6a.3.3 0 0 1-.1-.2.3.3 0 0 1 0-.2l.1-.4.6-.4.7-.3h1.2l1.1.4a1.8 1.8 0 0 1 1 1.4v.8l-.7 3.9a.3.3 0 0 1-.2.2.3.3 0 0 1-.2 0l-.5-.1-.2-.1a.3.3 0 0 1 0-.2v-.5a2.3 2.3 0 0 1-.4.3 2.4 2.4 0 0 1-.7.2h-1Zm.4-.8h1l.7-.6.4-1V63H222l-1.4.1c-.3.1-.5.4-.5.6v.6l.5.4.6.3Zm6.8 2c-.5-.1-.8-.3-1-.5a1.5 1.5 0 0 1-.5-.8v-1.2l.5-3-.9-.2a.3.3 0 0 1-.2-.1.3.3 0 0 1 0-.3v-.4a.3.3 0 0 1 .2-.1.3.3 0 0 1 .2 0h.9l.4-1.9a.3.3 0 0 1 0-.2.3.3 0 0 1 .3 0h.5a.2.2 0 0 1 .2.2.2.2 0 0 1 0 .2l-.3 2 1.5.2a.3.3 0 0 1 .1.2.3.3 0 0 1 0 .2v.4a.3.3 0 0 1-.1.2h-.2l-1.5-.3-.5 3v1c.1.2.3.4.6.4l.7.1a.2.2 0 0 1 .2.2.2.2 0 0 1 0 .2v.4a.3.3 0 0 1-.1.2.3.3 0 0 1-.2 0l-.8-.1Zm2.4.4a.3.3 0 0 1-.1-.1.3.3 0 0 1 0-.2l1-5.6a.3.3 0 0 1 0-.2.3.3 0 0 1 .2 0h.6a.2.2 0 0 1 .2.2.2.2 0 0 1 0 .2l-1 5.6a.3.3 0 0 1 0 .2.3.3 0 0 1-.3 0h-.6Zm1.3-7.3a.3.3 0 0 1-.2-.1.3.3 0 0 1 0-.2v-.7a.3.3 0 0 1 .2-.1.3.3 0 0 1 .2 0h.7a.3.3 0 0 1 .2.2.3.3 0 0 1 0 .2v.6a.3.3 0 0 1-.2.2.3.3 0 0 1-.2 0h-.7Zm3.8 8.3a3 3 0 0 1-1.4-.6c-.4-.3-.6-.6-.8-1a3.4 3.4 0 0 1 0-1.5 8.5 8.5 0 0 1 .1-1c.1-.6.3-1 .6-1.4l1.1-.8a3 3 0 0 1 1.6 0c.6 0 1 .3 1.4.6.4.3.6.7.8 1 .1.5.1 1 0 1.6a10.3 10.3 0 0 1-.1 1 3.4 3.4 0 0 1-.6 1.3 2.3 2.3 0 0 1-1.1.8 3 3 0 0 1-1.6 0Zm.2-.9c.5.1.9 0 1.2-.2.4-.3.6-.7.8-1.3a8.1 8.1 0 0 0 .1-.9c.1-.6 0-1-.2-1.4-.2-.4-.6-.6-1-.7-.6-.1-1 0-1.4.2-.3.3-.5.7-.7 1.3v.5a6.6 6.6 0 0 0-.1.4c-.1.6 0 1.1.2 1.5.2.3.6.5 1 .6Zm4.4 1.6a.3.3 0 0 1-.2 0 .3.3 0 0 1 0-.3l1-5.6a.3.3 0 0 1 0-.1.3.3 0 0 1 .3-.1l.5.1a.2.2 0 0 1 .2.1.2.2 0 0 1 0 .2v.5c.2-.2.5-.4.9-.5h1.2c.5 0 1 .3 1.3.6.3.3.5.6.6 1v1.5l-.6 3.3a.3.3 0 0 1 0 .2.3.3 0 0 1-.3 0h-.6a.3.3 0 0 1-.2-.2.3.3 0 0 1 0-.2l.6-3.3c0-.5 0-1-.2-1.3-.2-.4-.6-.6-1-.7-.6-.1-1 0-1.3.2-.4.3-.6.7-.7 1.3L241 69a.3.3 0 0 1-.1.2.3.3 0 0 1-.2 0h-.6Z"/><path fill="#71637E" d="M250.1 71a.3.3 0 0 1-.1 0 .3.3 0 0 1 0-.3l1-5.6a.3.3 0 0 1 .2-.2l.6.1a.2.2 0 0 1 .2.1.2.2 0 0 1 0 .2l-1 5.6a.3.3 0 0 1 0 .2.3.3 0 0 1-.3 0h-.6Zm1.3-7.2a.3.3 0 0 1-.2-.2.3.3 0 0 1 0-.2v-.6a.3.3 0 0 1 .2-.2.3.3 0 0 1 .2 0h.7a.3.3 0 0 1 .2.2.3.3 0 0 1 0 .2v.7a.3.3 0 0 1-.2.2.3.3 0 0 1-.2 0l-.7-.1Zm3.4 8.2c-.4 0-.8-.2-1-.3a2.6 2.6 0 0 1-.8-.6 2 2 0 0 1-.3-.5 1 1 0 0 1-.1-.4l.1-.2a.3.3 0 0 1 .2 0h.6l.1.2.3.4.4.3.7.3h1a.8.8 0 0 0 .5-.7.7.7 0 0 0 0-.5l-.5-.4a9.8 9.8 0 0 0-1.1-.5l-1-.6c-.3-.2-.5-.5-.5-.7a1.7 1.7 0 0 1 0-.8c0-.3.1-.6.3-.8l1-.5c.3-.1.7-.2 1.2 0 .4 0 .8.1 1 .3a2.3 2.3 0 0 1 1 1l.1.4a.2.2 0 0 1 0 .2.3.3 0 0 1-.3 0h-.5a.3.3 0 0 1-.1-.1 1 1 0 0 1 0-.1 2.7 2.7 0 0 0-.3-.4 1.1 1.1 0 0 0-.4-.3l-.6-.2h-1a.8.8 0 0 0-.4.7.7.7 0 0 0 0 .4l.5.4 1 .5 1.2.6c.3.3.5.5.5.7v.9c0 .3-.1.6-.4.8a2 2 0 0 1-1 .5h-1.4Z"/><path fill="#6C5FC7" d="M264.9 73.8a4 4 0 0 1-1.6-.6 2.5 2.5 0 0 1-1-1.3v-2l.9-4.7V65H264.2a.3.3 0 0 1 .2.1v.3l-.8 4.8c-.2.8-.1 1.4.2 1.8.3.4.8.7 1.4.8a2 2 0 0 0 1.6-.3c.4-.3.7-.8.8-1.6l.9-4.8a.3.3 0 0 1 0-.2.3.3 0 0 1 .3 0h.6a.2.2 0 0 1 .2.2v.2l-.8 4.8a4 4 0 0 1-.7 1.8 2.5 2.5 0 0 1-1.3.9c-.5.1-1.1.2-1.8 0Zm7.8 1.4c-.7 0-1.2-.3-1.6-.6-.5-.3-.8-.6-1-1a2 2 0 0 1-.2-1.1.2.2 0 0 1 .1-.2.3.3 0 0 1 .2 0h.6l.2.2a.4.4 0 0 1 .1.2c0 .2 0 .4.2.6l.5.6c.3.1.7.3 1.1.3.7.2 1.2.1 1.6 0 .3-.2.5-.5.6-1l-.1-.6-.7-.6a16.4 16.4 0 0 0-1.3-.7 8 8 0 0 1-1.3-.8c-.4-.3-.6-.6-.7-1-.2-.2-.2-.6-.1-1 0-.5.3-.8.5-1.1.3-.3.7-.5 1.2-.7h1.6l1.2.5a2.7 2.7 0 0 1 1.3 1.4v.8a.3.3 0 0 1 0 .1s-.1.1-.2 0h-.7a.4.4 0 0 1-.1-.1l-.1-.2c0-.3-.1-.6-.4-1s-.7-.4-1.2-.5l-1.3.1c-.3.1-.6.4-.6.8a1 1 0 0 0 0 .7l.7.6 1.2.7 1.4.8.8.9c.1.3.2.7 0 1.2 0 .4-.2.9-.5 1.2-.4.3-.8.5-1.3.6h-1.7Zm4 .6a.2.2 0 0 1-.1-.2.9.9 0 0 1 0-.2l4.3-7a.5.5 0 0 1 .2-.2h1l.3.2a.5.5 0 0 1 0 .2l1.6 8.2a.4.4 0 0 1 0 .1.2.2 0 0 1 0 .2.2.2 0 0 1-.3 0l-.6-.1-.2-.1a.5.5 0 0 1 0-.2l-.4-1.8-3.9-.7-1 1.6a.3.3 0 0 1 0 .1h-.8Zm2.5-2.5 3.2.6-.9-4.5-2.3 3.9Z"/><rect width="155" height="25" x="236.5" y="172.5" fill="#F0ECF3" rx="5.5"/><rect width="155" height="25" x="236.5" y="172.5" stroke="#E0DCE5" rx="5.5"/><g filter="url(#b)"><rect width="77" height="24" x="237" y="173" fill="#fff" rx="5"/><path fill="#2B2233" d="M254.7 189.1c-.7 0-1.3 0-1.8-.3-.5-.2-1-.5-1.2-.9a2 2 0 0 1-.4-1.1.2.2 0 0 1 .3-.2h1.3a.5.5 0 0 1 .1.2l.3.4.5.4 1 .1c.5 0 1 0 1.2-.2.3-.2.4-.5.4-.8a.7.7 0 0 0-.2-.6 2 2 0 0 0-.7-.4l-1.2-.3-1.5-.6c-.4-.2-.8-.4-1-.7-.2-.3-.3-.7-.3-1.2s.2-.9.4-1.3l1-.8c.6-.2 1.1-.3 1.8-.3.5 0 1 0 1.4.2l1 .5.5.8c.2.2.3.5.3.7a.3.3 0 0 1-.1.2h-1.2a.4.4 0 0 1-.3 0 .4.4 0 0 1-.1-.1c0-.3-.2-.5-.5-.7s-.6-.2-1-.2a2 2 0 0 0-1 .2c-.3.2-.5.4-.5.7l.2.6.7.4 1.1.4c.7.1 1.3.3 1.7.5l1 .7.2 1.2c0 .5-.1 1-.4 1.4-.3.3-.7.6-1.2.8-.5.2-1 .3-1.8.3Zm6.5 0a2.6 2.6 0 0 1-1.1-.2 2.2 2.2 0 0 1-.8-.7 1.6 1.6 0 0 1-.3-1c0-.5.2-1 .6-1.2a4 4 0 0 1 1.8-.7l1.7-.3v-.2c0-.3-.1-.6-.3-.8-.1-.2-.4-.3-.8-.3-.3 0-.6 0-.7.2a1 1 0 0 0-.4.5.3.3 0 0 1-.3.1h-1.2a.3.3 0 0 1 0-.2l.1-.5.5-.5.8-.5 1.2-.2 1.2.2.9.5.4.8.2.8v3.8l-.1.2a.3.3 0 0 1-.2.1h-1a.3.3 0 0 1-.2 0 .3.3 0 0 1 0-.3v-.5a2 2 0 0 1-.5.5 2.2 2.2 0 0 1-.6.3 3 3 0 0 1-1 .1Zm.4-1.1c.3 0 .5 0 .7-.2.3-.1.5-.3.6-.6l.2-1v-.2l-1.2.2c-.5.1-.8.2-1 .4-.3.1-.4.3-.4.6a.7.7 0 0 0 .1.4 1.1 1.1 0 0 0 .5.3h.5Zm5 1a.3.3 0 0 1-.3 0 .3.3 0 0 1 0-.3v-5.9a.3.3 0 0 1 .2 0h1.2a.3.3 0 0 1 0 .2v.5a2 2 0 0 1 .7-.6c.3-.2.6-.3 1-.3 1 0 1.6.4 2 1.1.1-.3.4-.6.7-.8l1.2-.3c.4 0 .8.1 1.1.3.4.2.6.5.8.9.2.4.3.9.3 1.5v3.6a.3.3 0 0 1-.3.1h-1a.3.3 0 0 1-.2 0 .3.3 0 0 1 0-.3v-3.3c0-.4 0-.7-.2-.9a1 1 0 0 0-.4-.4 1.3 1.3 0 0 0-.6-.2c-.2 0-.4 0-.5.2a1 1 0 0 0-.5.4l-.1.9v3.3l-.1.2a.3.3 0 0 1-.2.1h-1a.3.3 0 0 1-.2 0 .3.3 0 0 1 0-.3v-3.3c0-.4-.1-.7-.3-.9a1 1 0 0 0-.4-.4 1.2 1.2 0 0 0-.6-.2c-.1 0-.3 0-.5.2a1 1 0 0 0-.4.4l-.2.9v3.5a.3.3 0 0 1-.3.1h-1Zm10.8 2.3a.3.3 0 0 1-.2-.1.3.3 0 0 1-.1-.2v-8.2a.3.3 0 0 1 .3 0h1.1a.3.3 0 0 1 0 .2v.5a2.3 2.3 0 0 1 2-.9l1.1.2.8.6.5 1 .2 1a7.2 7.2 0 0 1 0 1l-.2 1a2.7 2.7 0 0 1-.5 1 2.2 2.2 0 0 1-.8.5l-1 .2c-.5 0-.9 0-1.2-.2a2.2 2.2 0 0 1-.7-.6v2.7l-.1.2a.3.3 0 0 1-.2 0h-1Zm2.7-3.5c.3 0 .6 0 .8-.2.2-.1.3-.3.4-.6l.1-.8v-.7a2.7 2.7 0 0 0-.1-.8 1.2 1.2 0 0 0-.4-.5c-.2-.2-.5-.3-.8-.3-.4 0-.6.1-.8.3l-.5.5-.1.8a8.2 8.2 0 0 0 0 .9l.1.7.5.5c.2.2.4.2.8.2Zm4.6 1.2a.3.3 0 0 1-.2 0 .3.3 0 0 1 0-.3v-8.1a.3.3 0 0 1 .2-.1h1.2a.3.3 0 0 1 .1.3v8.1a.3.3 0 0 1-.3.1h-1Zm5.6.1c-.9 0-1.6-.2-2.1-.7s-.8-1.3-.9-2.2a3.1 3.1 0 0 1 0-.3v-.3c0-.6.2-1.2.4-1.6.3-.4.6-.8 1-1a3 3 0 0 1 1.6-.4 3 3 0 0 1 1.6.4c.5.3.8.7 1 1.2.2.4.4 1 .4 1.6v.3l-.1.2a.3.3 0 0 1-.2 0h-4v.1l.1.8c.1.3.3.4.5.6l.7.2h.5a1.5 1.5 0 0 0 .6-.5l.2-.2a.5.5 0 0 1 .2 0h1a.3.3 0 0 1 .2 0v.2l-.1.5-.5.5a3 3 0 0 1-1 .5l-1.1.1Zm-1.3-3.8h2.6a2 2 0 0 0-.1-.8 1.2 1.2 0 0 0-.5-.6 1.3 1.3 0 0 0-.7-.2l-.7.2c-.2.2-.4.3-.5.6a2.1 2.1 0 0 0-.1.8Zm7.9 3.8a4 4 0 0 1-1.2-.1 2.8 2.8 0 0 1-.9-.5 2 2 0 0 1-.5-.5 1 1 0 0 1-.1-.4v-.2a.3.3 0 0 1 .3 0h.9a.3.3 0 0 1 .2 0l.3.3.4.2.6.1c.3 0 .6 0 .8-.2.2 0 .3-.3.3-.5a.6.6 0 0 0-.1-.4l-.5-.3-1-.3a4.5 4.5 0 0 1-1.2-.3 1.7 1.7 0 0 1-.6-.6 1.6 1.6 0 0 1-.3-.9l.3-.9.8-.7c.4-.2.9-.3 1.4-.3a3.4 3.4 0 0 1 2 .6l.5.5.1.4a.3.3 0 0 1 0 .2.3.3 0 0 1-.2.1h-1a.6.6 0 0 1-.1 0 10.8 10.8 0 0 0-.3-.3 1.3 1.3 0 0 0-.4-.3h-.6l-.7.1a.6.6 0 0 0-.2.5l.1.4.5.3 1 .2c.6.1 1 .3 1.3.5l.7.6.2.8c0 .4-.1.7-.4 1a2 2 0 0 1-.9.7l-1.5.2Z"/></g><path fill="#3E3446" d="M320.6 189a.2.2 0 0 1-.1 0 .2.2 0 0 1-.1-.2v-.2l3-7.7a.5.5 0 0 1 .1-.2l.3-.1h1l.2.3 3 7.7a.4.4 0 0 1 0 .2.2.2 0 0 1-.1.1.2.2 0 0 1-.2.1h-.8a.5.5 0 0 1-.1-.2l-.7-1.7h-3.9l-.7 1.7a.3.3 0 0 1 0 .1l-.3.1h-.6Zm2-3h3.2l-1.6-4.2-1.6 4.3Zm9 5.6c-.6 0-1 0-1.4-.2l-.8-.5a2 2 0 0 1-.4-.6l-.1-.5a.2.2 0 0 1 0-.2.3.3 0 0 1 .2 0h.8l.1.2.2.4.5.3c.2.2.4.2.8.2l1-.1c.2-.1.4-.3.5-.6.2-.2.2-.6.2-1v-.8a2.3 2.3 0 0 1-.7.6c-.3.2-.7.2-1.2.2-.4 0-.8 0-1.1-.2a2.3 2.3 0 0 1-.8-.6 3 3 0 0 1-.5-1 4.8 4.8 0 0 1-.2-1 9 9 0 0 1 0-.7l.2-1 .5-1c.2-.3.4-.5.8-.6.3-.2.7-.3 1.1-.3a2.4 2.4 0 0 1 2 1v-.8a.3.3 0 0 1 .2 0h.8a.3.3 0 0 1 0 .2v5.9c0 .5 0 1-.2 1.4a2 2 0 0 1-.9 1c-.4.2-1 .3-1.6.3Zm0-3.5c.3 0 .7-.1.9-.3.3-.2.4-.4.5-.7.2-.3.2-.5.2-.8a5.9 5.9 0 0 0 0-.4v-.5a2.3 2.3 0 0 0-.2-.8 1.6 1.6 0 0 0-.5-.7c-.2-.2-.6-.3-1-.3s-.7.1-1 .3a1.4 1.4 0 0 0-.4.7l-.2 1a8.4 8.4 0 0 0 0 .6c0 .3 0 .6.2 1 0 .2.2.4.5.6.2.2.5.3 1 .3Zm7.1 3.5c-.5 0-1 0-1.3-.2-.4-.1-.6-.3-.8-.5a2 2 0 0 1-.5-.6v-.5a.2.2 0 0 1 0-.2.3.3 0 0 1 .2 0h.7l.2.2.2.4.4.3c.2.2.5.2.9.2l1-.1c.2-.1.4-.3.5-.6l.2-1v-.8a2.3 2.3 0 0 1-.8.6c-.3.2-.7.2-1.1.2-.5 0-.9 0-1.2-.2a2.3 2.3 0 0 1-.8-.6 3 3 0 0 1-.4-1 4.8 4.8 0 0 1-.2-1 9 9 0 0 1 0-.7c0-.4 0-.7.2-1 0-.4.2-.7.4-1 .2-.3.5-.5.8-.6.3-.2.7-.3 1.2-.3a2.4 2.4 0 0 1 2 1v-.8a.3.3 0 0 1 .2 0h.8a.3.3 0 0 1 0 .2v5.9c0 .5 0 1-.2 1.4a2 2 0 0 1-1 1c-.3.2-.9.3-1.6.3Zm0-3.5c.4 0 .7-.1 1-.3l.5-.7.2-.8a5.9 5.9 0 0 0 0-.4v-.5a2.3 2.3 0 0 0-.2-.8 1.6 1.6 0 0 0-.5-.7c-.3-.2-.6-.3-1-.3s-.7.1-1 .3a1.4 1.4 0 0 0-.5.7l-.2 1a8.4 8.4 0 0 0 0 .6l.2 1 .5.6c.3.2.6.3 1 .3Zm5 .9a.3.3 0 0 1-.3 0 .3.3 0 0 1 0-.3v-5.9a.3.3 0 0 1 .2 0h.8a.3.3 0 0 1 0 .2v.6c.2-.3.4-.5.7-.6l1-.2h.5a.2.2 0 0 1 .2 0 .2.2 0 0 1 0 .2v.5a.2.2 0 0 1 0 .2.3.3 0 0 1-.2 0h-.7c-.5 0-.8.2-1 .5-.3.2-.4.6-.4 1v3.5l-.1.2a.3.3 0 0 1-.2.1h-.6Zm6.6.1c-.9 0-1.5-.2-2-.7-.5-.5-.8-1.2-.8-2.1a5.3 5.3 0 0 1 0-.4v-.4c0-.6.2-1 .4-1.5.2-.4.5-.8 1-1 .3-.2.8-.4 1.4-.4.6 0 1 .2 1.5.4.4.3.7.6 1 1.1.1.5.3 1 .3 1.7v.2a.3.3 0 0 1-.1.2.3.3 0 0 1-.2 0h-4.2v.2l.2.9.6.7.9.2.7-.1a2 2 0 0 0 .4-.3l.3-.3.2-.1a.4.4 0 0 1 .1 0h.8s.1.1 0 .2l-.1.4-.5.5a2.8 2.8 0 0 1-.8.5l-1.1.1Zm-1.7-3.7h3.3c0-.4 0-.7-.2-1a1.5 1.5 0 0 0-1.4-.9c-.4 0-.7.1-1 .3-.2.1-.4.3-.5.6l-.2 1Zm8.4 6.2c-.5 0-1 0-1.3-.2l-.8-.5a2 2 0 0 1-.4-.6l-.2-.5a.2.2 0 0 1 .1-.2.3.3 0 0 1 .2 0h.8v.2l.3.4.4.3c.2.2.5.2.9.2l1-.1c.2-.1.4-.3.5-.6l.2-1v-.8a2.3 2.3 0 0 1-.7.6c-.4.2-.7.2-1.2.2s-.8 0-1.2-.2a2.3 2.3 0 0 1-.8-.6 3 3 0 0 1-.4-1 4.8 4.8 0 0 1-.2-1 9 9 0 0 1 0-.7c0-.4 0-.7.2-1 0-.4.2-.7.4-1 .2-.3.5-.5.8-.6.4-.2.7-.3 1.2-.3a2.4 2.4 0 0 1 2 1v-.8a.3.3 0 0 1 .2 0h.8a.3.3 0 0 1 0 .2v5.9c0 .5 0 1-.2 1.4a2 2 0 0 1-.9 1c-.4.2-1 .3-1.7.3Zm0-3.5c.4 0 .7-.1 1-.3l.5-.7.2-.8a5.9 5.9 0 0 0 0-.4v-.5a2.3 2.3 0 0 0-.2-.8 1.6 1.6 0 0 0-.5-.7c-.3-.2-.6-.3-1-.3s-.7.1-1 .3a1.4 1.4 0 0 0-.5.7l-.1 1a8.4 8.4 0 0 0 0 .6l.1 1 .6.6c.2.2.5.3 1 .3Zm6.4 1c-.4 0-.8 0-1.1-.2a2.1 2.1 0 0 1-.8-.7c-.2-.2-.3-.5-.3-.9 0-.5.2-1 .7-1.3.4-.3 1-.6 1.7-.7l1.8-.2v-.4c0-.3 0-.6-.3-.9-.2-.2-.6-.3-1-.3s-.7 0-1 .2l-.4.6c0 .1-.1.2-.3.2h-.5l-.2-.1a.3.3 0 0 1 0-.2v-.4l.5-.6.7-.4a3 3 0 0 1 1.1-.2l1.2.2a1.8 1.8 0 0 1 1.2 1.2l.1.8v4.1a.3.3 0 0 1-.2.1h-.8a.3.3 0 0 1 0-.3v-.5a2.3 2.3 0 0 1-.5.4 2.4 2.4 0 0 1-.6.4 3.1 3.1 0 0 1-1 .1Zm.2-.9c.4 0 .7 0 1-.2l.6-.6.2-1.2v-.3l-1.4.2c-.5 0-1 .2-1.3.4-.2.2-.4.4-.4.7 0 .2 0 .4.2.6l.5.3.6.1Zm7 .8c-.4 0-.8 0-1-.3a1.5 1.5 0 0 1-.7-.7 3 3 0 0 1-.1-1.1v-3.2h-1a.3.3 0 0 1-.2 0 .3.3 0 0 1 0-.3v-.4a.3.3 0 0 1 0-.2.3.3 0 0 1 .2 0h1v-2a.3.3 0 0 1 0-.2.3.3 0 0 1 .2-.1h.6a.2.2 0 0 1 .2 0 .2.2 0 0 1 0 .3v2h1.8a.3.3 0 0 1 0 .2V183.6l-.2.1h-1.5v3.1c0 .4 0 .7.2.9 0 .2.3.3.6.3h.8a.2.2 0 0 1 .2.1.2.2 0 0 1 0 .2V188.9a.3.3 0 0 1-.2.1h-.9Zm4.8.1c-.8 0-1.5-.2-2-.7-.5-.5-.7-1.2-.8-2.1a5.3 5.3 0 0 1 0-.4v-.4c0-.6.2-1 .4-1.5.2-.4.6-.8 1-1 .4-.2.8-.4 1.4-.4.6 0 1.1.2 1.5.4.4.3.7.6 1 1.1.2.5.3 1 .3 1.7v.2a.3.3 0 0 1-.1.2.3.3 0 0 1-.2 0h-4.1v.2c0 .3 0 .6.2.9l.5.7.9.2.7-.1a2 2 0 0 0 .5-.3l.2-.3.2-.1a.4.4 0 0 1 .2 0h.7l.1.2c0 .1 0 .3-.2.4l-.5.5a2.8 2.8 0 0 1-.8.5l-1.1.1Zm-1.6-3.7h3.2c0-.4 0-.7-.2-1a1.5 1.5 0 0 0-1.4-.9c-.4 0-.7.1-.9.3l-.6.6-.1 1Zm8 3.7-1.2-.1a2.6 2.6 0 0 1-.8-.5 2.1 2.1 0 0 1-.4-.4 1 1 0 0 1-.2-.4l.1-.2a.3.3 0 0 1 .2-.1h.5a.2.2 0 0 1 .1 0l.2.1.3.4.5.2.7.1c.4 0 .7 0 1-.2a.8.8 0 0 0 .4-.7c0-.2 0-.3-.2-.5l-.6-.3a9.8 9.8 0 0 0-1-.3c-.6-.1-1-.2-1.2-.4l-.6-.6a1.7 1.7 0 0 1-.2-.8c0-.3 0-.5.3-.8.1-.3.4-.5.7-.7a3.2 3.2 0 0 1 2.4-.1 2.3 2.3 0 0 1 1.1.8l.2.4a.2.2 0 0 1 0 .2.3.3 0 0 1-.3.1h-.5a.3.3 0 0 1-.1 0 .9.9 0 0 1-.1-.1 2.6 2.6 0 0 0-.3-.3 1.1 1.1 0 0 0-.4-.3h-.7c-.4 0-.7 0-.9.2-.2.1-.3.3-.3.6l.1.4.6.3 1 .3 1.3.5c.3.1.5.3.7.6l.1.8c0 .3 0 .6-.2 1a2 2 0 0 1-1 .6l-1.3.2Z"/><defs><linearGradient id="a" x1="239.6" x2="327.5" y1="-11.7" y2="251.1" gradientUnits="userSpaceOnUse"><stop stop-color="#7B51F8"/><stop offset="1" stop-color="#F644AB"/></linearGradient><filter id="b" width="81" height="28" x="235" y="171" color-interpolation-filters="sRGB" filterUnits="userSpaceOnUse"><feFlood flood-opacity="0" result="BackgroundImageFix"/><feColorMatrix in="SourceAlpha" result="hardAlpha" values="0 0 0 0 0 0 0 0 0 0 0 0 0 0 0 0 0 0 127 0"/><feOffset/><feGaussianBlur stdDeviation="1"/><feColorMatrix values="0 0 0 0 0.168627 0 0 0 0 0.133333 0 0 0 0 0.2 0 0 0 0.32 0"/><feBlend in2="BackgroundImageFix" result="effect1_dropShadow_4032_3935"/><feBlend in="SourceGraphic" in2="effect1_dropShadow_4032_3935" result="shape"/></filter></defs></svg>