<svg xmlns="http://www.w3.org/2000/svg" viewBox="0 0 277.9887 185.4778">
  <defs>
    <style>
      .cls-1, .cls-2, .cls-3, .cls-4 {
        stroke: #3f2b56;
        stroke-linecap: round;
        stroke-linejoin: round;
      }

      .cls-1, .cls-5 {
        fill: #e1557a;
      }

      .cls-2, .cls-6 {
        fill: #ebb432;
      }

      .cls-3 {
        fill: none;
      }

      .cls-7, .cls-8 {
        mix-blend-mode: multiply;
      }

      .cls-7, .cls-8, .cls-9, .cls-10, .cls-11, .cls-12, .cls-13, .cls-5, .cls-14, .cls-15, .cls-6 {
        stroke-width: 0px;
      }

      .cls-7, .cls-4, .cls-11 {
        fill: #f58452;
      }

      .cls-8 {
        fill: #786ece;
      }

      .cls-16 {
        isolation: isolate;
      }

      .cls-9 {
        fill: #f7b2b2;
      }

      .cls-10 {
        fill: #f6f6f8;
      }

      .cls-12 {
        fill: #5e468c;
      }

      .cls-13 {
        fill: #3f2b56;
      }

      .cls-14 {
        fill: #ad6caa;
      }

      .cls-15 {
        fill: #b39ed3;
      }
    </style>
  </defs>
  <g class="cls-16">
    <g id="grouped">
      <g>
        <polygon class="cls-9" points="248.1759 10.494 277.9887 184.4562 0 184.4562 35.4224 26.1261 248.1759 10.494"/>
        <g>
          <path class="cls-11" d="m176.2327,133.2231s-17.1478,5.8946-48.8714,9.1098c0,0-16.8263,1.9291-29.3657.9646,0,0-.2143,2.1435.5359,3.0009s7.2878.8574,7.2878.8574c0,0,12.731,14.1352,16.6714,18.4342.4494.4903,1.0727.7741,1.7376.7896,2.0219.0471,6.6643.014,11.1763-1.0214,5.9965-1.376,36.9358-15.1692,36.9358-15.1692l.9986-12.6789s2.5722-.8574,2.8937-1.2861,0-3.0009,0-3.0009Z"/>
          <path class="cls-10" d="m177.6895,39.6223c-12.0427-4.6163-23.0513-3.5994-30.6995.3757-.0344-.4675-.0912-.9427-.1989-1.4344-1.916-8.7449-14.3422-10.5883-22.7165-9.9144-7.1007.5713-22.8128,6.1604-21.2727,17.5187s20.0214,9.8823,20.0214,9.8823l3.0802,10.3198,2.0214-10.769s4.1437-.8872,8.5714-2.9281c-1.3868,7.3254,2.8041,16.3755,12.8939,20.4468l-5.8716,12.032,12.9946-10.2032s13.5721,3.369,25.3405-2.8112c13.2736-6.9706,13.1621-25.8733-4.1641-32.515Z"/>
          <path class="cls-15" d="m118.203,174.7664s-1.6684-7.123,2.7594-11.8075,11.0909-3.4983,14.3743-.8342c4.4345,3.598,5.9248,9.9957,5.731,13.1838-.1794,2.9509-1.1106,7.4151-4.1909,9.1477h-10.6524s-5.5829-1.0267-8.0214-9.6898Z"/>
          <path class="cls-13" d="m144.6286,162.0382l-1.1646,12.2791-2.3923.8283c-.0023.0529-.0011.1118-.0042.163-.0533.8763-.1754,1.8868-.3979,2.9189l3.8106-1.632c.4151-.1778.6982-.5701.7362-1.0201l1.2026-14.2603c-.6103.2485-1.2056.4886-1.7905.7231Z"/>
          <path class="cls-11" d="m128.3199,163.1802c6.2631-2.38,9.6452,5.0105,10.2089,8.0168s.2508,8.847-4.1337,10.021c-2.3921.6405-7.2981-.4696-9.1429-6.6305-1.4392-4.8063-.2625-10.1419,3.0677-11.4074Z"/>
          <path class="cls-4" d="m214.8671,91.5835s5.4523-7.8597,7.2765-7.7218,4.0994,12.2032,4.0994,12.2032c-4.5947-.8072-8.7731-1.9374-12.3711-3.124l.9952-1.3574Z"/>
          <path class="cls-6" d="m140.7688,60.5081c-.5311.7198-.1207,1.7469.7601,1.9025l15.8188,2.7953c1.2912.2282,2.3905-.9435,2.0719-2.2154-1.1937-4.7667-3.6842-14.6715-4.7272-18.8185-.1897-.7545-1.1715-.9472-1.6334-.3212l-12.2903,16.6573Z"/>
          <line class="cls-3" x1="162.6093" y1="60.0287" x2="168.8981" y2="53.5474"/>
          <line class="cls-3" x1="162.6093" y1="53.2265" x2="167.9997" y2="60.8582"/>
          <polyline class="cls-3" points="183.3365 57.3287 172.4553 56.4351 180.128 47.9003 178.5237 64.1998"/>
          <path class="cls-10" d="m177.1119,30.9592l-9.1123-6.0321s-13.7305,3.2085-16.8118-5.9037S160.6891,1.4042,170.1781.6494c9.5964-.7634,14.0948,4.7889,13.1584,10.8019-1.2192,7.8289-9.4331,11.9358-9.4331,11.9358l3.2085,7.5722Z"/>
          <path class="cls-11" d="m199.9209,135.6253l-73.2156,38.6607c-.3672.1939-.7627.3136-1.1759.3548-2.1197.2114-9.2248.8097-15.8303.0996-.1756-.0189-.2965-.1284-.3498-.2634,0,0,.0045,2.2175,1.6295,4.1037,0,0,8.4504.3539,16.1156-.1704.3944-.027.7772-.1362,1.1285-.3175l72.8578-37.6005c-.0053-.1785.0203-.3859.0716-.6253.2052-.9578,1.6077-1.984,1.6077-1.984l-.0342-2.9418c-.6157.6157-2.1208,1.0262-2.805.6841-.0855-.0428-.1593-.0877-.2224-.1362"/>
          <path class="cls-13" d="m116.0288,158.4703l2.239,9.687,1.0067-2.7992-.6769-4.0494c-.8153-.8999-1.6822-1.8578-2.5687-2.8384Z"/>
          <path class="cls-11" d="m143.464,170.2272l.5492,1.5658c.0635.1811.2614.277.4429.2146l2.7521-.9464,3.0654,8.7093c.1528.4341.6159.6755,1.0593.5522l10.4577-2.908c.4502-.1252.7691-.5253.7907-.9921l.6056-13.1088,2.6186-1.3025c.3207-.1595.5198-.4905.5104-.8486l-.0708-2.6924-6.9447,3.584.8705,12.9758-7.7005,2.6881-3.2671-10.453-5.7392,2.9619Z"/>
          <line class="cls-3" x1="185.4863" y1="184.4562" x2="174.7055" y2="184.4562"/>
          <line class="cls-3" x1="124.8623" y1="46.4565" x2="128.4062" y2="39.3335"/>
          <line class="cls-3" x1="123.1121" y1="40.3923" x2="130.5238" y2="45.5902"/>
          <polyline class="cls-3" points="134.2778 37.2159 137.358 33.5581 136.8767 46.4565"/>
          <path class="cls-10" d="m177.8041,121.7083c-1.6876-3.1722-4.5314-4.5471-6.7596-5.1416.0217-.0417,4.0778-7.857-5.2075-17.3707l.7631-8.547-6.2599,4.8091s-4.5765-2.825-9.6895-2.2908c-3.5392.3698-5.1039,2.7141-5.7318,4.1222,0,0-.3815.8688-.5469,2.0914l.0054.0007c-3.8434.2274-7.7271,2.0873-11.0297,4.5315l-.0267-.036c-4.8903-2.0648-12.1714-2.3908-12.1714-2.3908l-4.8359-11.954-2.8255,12.8777c-11.0847,2.2278-18.5831,8.6938-17.8826,16.1923s6.4644,7.8149,6.4644,7.8149c-3.5648,2.4957-6.0462,5.5582-6.4182,9.0095-.4324,4.0121,2.3156,6.4281,2.3156,6.4281,0,0,.5209.5177,1.0662.8555.4419.2739,1.3583.7354,1.3583.7354,12.1807.5828,26.9695-1.1127,26.9695-1.1127,11.1555-1.1306,20.5-2.5923,27.9389-4.0128l.0012.001,10.0777,5.2888-3.8002-6.568-.0003-.0011c9.6271-2.0924,14.6541-3.8177,14.6541-3.8177,0,0,4.9431-5.1771,1.5714-11.5148Z"/>
          <g>
            <path class="cls-6" d="m113.646,43.8656c-4.5878,2.0815-4.5558,5.5367-4.5558,5.537,1.0516.7742,2.3038,1.261,3.6161,1.3497.6903.0466,1.355-.0048,1.9911-.1245-.0587-.0703-2.3938-2.9026-1.0513-6.7623Z"/>
            <path class="cls-15" d="m113.646,43.8656s3.7303,3.0164,6.8542.7268c.0175-.1844.0332-.3693.034-.5569.0082-2.003-.5124-3.8788-1.7131-5.2635-.7737,4.7113-5.1751,5.0936-5.1751,5.0936Z"/>
            <path class="cls-5" d="m113.646,43.8656c1.2607-5.0428-2.2312-6.8977-2.3069-6.9373-2.4603.8297-4.8218,2.9152-5.1367,6.058,5.1324-2.9733,7.4436.8793,7.4436.8793Z"/>
            <path class="cls-14" d="m113.646,43.8656s4.4014-.3823,5.1751-5.0936c-.9833-1.1339-2.4213-1.9394-4.4104-2.2072-.9355-.1259-2.0115.006-3.0716.3635.0757.0396,3.5676,1.8944,2.3069,6.9373Z"/>
            <path class="cls-8" d="m120.5002,44.5924c-3.1239,2.2896-6.8542-.7268-6.8542-.7268-1.3425,3.8596.9927,6.692,1.0513,6.7623,3.1634-.5952,5.5242-3.0916,5.8029-6.0355Z"/>
            <path class="cls-7" d="m113.646,43.8656s-2.3112-3.8525-7.4436-.8793c-.0219.2177-.0444.4351-.0458.6629-.0148,2.3735,1.1804,4.4627,2.9336,5.7534,0-.0004-.032-3.4555,4.5558-5.537Z"/>
          </g>
          <path class="cls-10" d="m51.1437,38.4386l16.8297-4.8804s20.7779,10.4672,29.5755-2.3412c6.4107-9.3333-1.9798-23.7574-16.0268-28.9426-12.6413-4.6663-24.4572.2946-26.3879,9.0577-2.3662,10.7401,6.0726,17.1907,6.0726,17.1907l-10.0631,9.9158Z"/>
          <path class="cls-3" d="m88.6871,18.1127l5.8451,4.1481-7.0707,1.3199s4.7138,1.6027,2.4512,6.3165-8.7676,3.285-7.542-1.3743"/>
          <line class="cls-3" x1="80.0137" y1="15.7558" x2="79.3538" y2="26.1261"/>
          <line class="cls-3" x1="84.0676" y1="18.6783" x2="74.5457" y2="23.015"/>
          <g>
            <path class="cls-8" d="m67.0582,13.3372c-3.1709-3.5156-7.1251-1.541-7.1251-1.541-.4973,2.4675.3093,4.9335,1.8641,6.7105.659-4.6301,5.261-5.1696,5.261-5.1696Z"/>
            <path class="cls-14" d="m67.0582,13.3372c-.5245,6.0784,3.3939,7.5793,3.4528,7.6016,1.9166-.6227,3.3486-2.0505,4.2868-3.9646.5321-1.0856.8186-2.3477.8364-3.6335-4.0345,3.4033-8.576-.0035-8.576-.0035Z"/>
            <path class="cls-7" d="m67.0582,13.3372c6.1834-2.1415,5.3192-6.6318,5.3192-6.6318-2.456-1.675-5.5219-1.6527-8.0173-.4464,4.3035,1.7722,2.6981,7.0782,2.6981,7.0782Z"/>
            <path class="cls-5" d="m72.3774,6.7053s.8642,4.4903-5.3192,6.6318c0,0,4.5415,3.4067,8.576.0035.0344-2.4885-.9571-5.067-3.2568-6.6353Z"/>
            <path class="cls-15" d="m67.0582,13.3372s-4.602.5394-5.261,5.1696c.9594,1.0966,2.2023,1.932,3.6038,2.34,1.9749.5749,3.6773.5576,5.11.092-.0589-.0222-3.9773-1.5232-3.4528-7.6016Z"/>
            <path class="cls-6" d="m67.0582,13.3372s1.6053-5.306-2.6981-7.0782c-2.173,1.0504-3.9149,2.9957-4.427,5.5373,0,0,3.9542-1.9747,7.1251,1.541Z"/>
          </g>
          <path class="cls-10" d="m77.6896,89.0292s-24.6387,5.1063-28.396-11.6303c-2.911-12.9669,9.3903-21.1574,21.6057-22.2913,19.0507-1.7684,24.7786,8.6563,24.7644,14.5881-.0285,11.9596-11.5962,17.5209-11.5962,17.5209v12.9897l-6.3779-11.1772Z"/>
          <path class="cls-3" d="m81.5902,64.6732s.1608-2.8938,3.0545-3.2153,4.5818,2.8308,3.0545,4.912-5.7875,3.7693-5.466,10.3607l8.6009-1.688"/>
          <line class="cls-3" x1="73.7127" y1="73.4349" x2="77.3299" y2="66.3699"/>
          <line class="cls-3" x1="72.2626" y1="67.4866" x2="78.7768" y2="72.7114"/>
          <path class="cls-6" d="m58.845,64.4498l-3.0834,17.2938c-.1357.761.5781,1.3982,1.3189,1.1773l14.5744-4.3456c.6212-.1852.8393-.9534.408-1.4374l-11.6922-13.1198c-.4894-.5492-1.3965-.2925-1.5256.4317Z"/>
          <path class="cls-3" d="m158.2342,105.706c1.6534.0543,5.2445.5467,7.5195,3.6164,3.5294,4.7623,1.4277,9.7362,1.4277,9.7362"/>
          <path class="cls-3" d="m108.0506,120.6218l-5.1524.7223,2.5762-5.1497s-3.7313.0481-4.1163-3.6096,5.0919-5.7754,7.9604-2.8877"/>
          <line class="cls-3" x1="111.8019" y1="112.2959" x2="118.2511" y2="118.9376"/>
          <line class="cls-3" x1="113.3738" y1="118.4236" x2="117.2404" y2="112.2959"/>
          <path class="cls-3" d="m139.3031,110.9147s-2.8139-2.6468-.7643-5.2088c1.7722-2.2153,5.0493-1.3993,6.1765,1.9684,1.1643,3.4785,2.3587,6.9253,4.4456,8.8943l3.9563-8.5939"/>
          <polygon class="cls-11" points="130.973 151.4082 134.8921 169.9631 132.8125 171.0612 128.2778 150.1889 130.973 151.4082"/>
          <path class="cls-13" d="m118.0271,169.5335l-.004.002-8.4773,4.4101c-.2155.1121-.2699.3458-.1965.5314,0,0,.2142.4557,4.5276.5532l4.1119-1.6644.0013-.0007c-.1005-.9561-.1569-2.3147.0369-3.8317Z"/>
          <path class="cls-13" d="m197.1012,129.7517s-7.4786,4.6019-8.7531,5.2816c-1.4368.7664-2.3365-.5098-2.3365-.5098l-12.9632,6.6756-.4745,6.0247,16.1348-7.7016s-.2505-1.691.7516-2.3173c1.0021-.6263,8.9562-4.5095,8.9562-4.5095,0,0,.2505-2.0668-1.3152-2.9437Z"/>
          <path class="cls-15" d="m247.3036,176.522c-1.2931-1.4041-16.5637-18.4029-17.2205-21.3696-1.0751-4.8569-2.9647-23.4469-2.9647-23.4471l14.3939-3.0154c2.773-.6927,2.6562-2.9888,1.5457-4.5209-.6176-.8521-5.9218-7.0071-10.8169-14.7978-4.8951-7.7908-6.6187-13.418-6.6187-13.418-4.0719-.7469-7.8055-1.7421-11.0836-2.7955-2.8873,3.71-5.6893,7.4438-8.2823,10.994,0,0,.5989.882,1.3911,2.8008l-3.7299.4296c-.4736.66-.9294,1.3018-1.3837,1.9418l-.001-.0016s-14.6631-7.0608-15.3499-9.1212c-.6868-2.0604-5.3418-22.5117-5.3418-22.5117,0,0,2.1367-3.3577,2.3657-4.6549.2289-1.2973-4.8076-7.0969-6.1049-6.639s2.0592,6.5601,2.0592,6.5601c-2.6592,1.1838-5.3715,1.9229-7.9662,2.3592l.2601,1.23s4.7419,17.3868,10.3778,26.9869c.5568.9485,1.4153,1.6734,2.4413,2.0696,3.3554,1.2957,11.4321,4.3684,15.8824,5.671l.0031-.0003c-1.3481,1.9214-2.602,3.738-3.7079,5.3748,0,0,.545.8387,1.0558,2.4117h-2.6671c-2.3509,3.5632-3.8074,5.992-3.9694,6.6171-.4492,1.7326,1.2192,1.9251,2.0535,2.0535.5352.0823,4.7886.7332,7.7693,1.1891l2.5697-.6841c.0189.3741-.0142.906,0,1.2958l.757-.3379c-1.4987.6655-2.8134,1.2712-3.1501,1.4733-.8552.5131-2.0866,1.4025-2.326,2.7708s-.3079,1.8472.3763,2.1892c.6841.3421,2.1892-.0684,2.8049-.6841l.0342,2.9418s-1.4025,1.0262-1.6077,1.984c-.2053.9578,0,1.4025.9578,1.5393-8.9935,12.2319-19.458,31.9773-19.458,31.9773,0,0-7.8549-4.8433-9.8688-3.4336-2.0139,1.4097,5.3032,9.8679,8.7267,12.6201,1.5829,1.2725,2.8211,1.8436,3.5562,1.8442.4922.0004,1.1266-.19,1.417-.3857.4034-.2719.546-.6869.546-.6869,0,0,8.2524-22.1326,19.2274-43.1837l.0002-.0016c.4274-.022.8321-.0956.9843-.2893.3763-.4789.9578-1.3341.9578-1.3341,0,0,2.0182-.0342,2.3603-.5815s1.667-5.4215,1.667-5.4215c0,0,1.097-.2668,2.829-.6898l5.7178.9231c.4836.0781.9774.0666,1.4567-.0338l3.0414-.6371s-1.0531,22.2758.4998,26.0269,11.692,20.2148,11.692,20.2148c0,0-8.3785,3.905-8.2452,5.4579.1332,1.5528,9.5172,1.3549,12.0367.6833,1.7801-.4744,5.1177-3.191,6.0494-4.3297s1.3735-2.1319,0-3.6234Z"/>
          <path class="cls-3" d="m203.9179,107.3821l3.7296-.4295"/>
          <path class="cls-12" d="m198.5078,119.0585c.4802,1.4788.9302,3.6065.8686,6.2962l-3.9038-.696,1.9794-2.9128-1.6113-2.6873h2.6671Z"/>
          <path class="cls-3" d="m204.2638,128.2342l-2.5697.6841"/>
          <path class="cls-12" d="m219.1204,125.4119c-2.5262-15.0872-2.0299-29.9538-2.0299-29.9538,0,0-3.2306,4.9654-6.3749,8.7515,0,0,3.7008,7.5427,4.2024,21.9335l4.2024-.7312Z"/>
          <path class="cls-12" d="m203.9179,107.3821s3.3348,8.339,3.7296,20.6638l2.7071-1.1103,1.0237-.1746c-.4406-10.0677-2.3311-16.3825-3.687-19.7028l-3.7734.324Z"/>
          <path class="cls-12" d="m204.2638,128.2342c-.4174-8.2621-1.6888-12.8499-1.6888-12.8499l-1.6886,2.5956s1.2328,3.6642.8077,10.9384l2.5697-.6841Z"/>
          <path class="cls-12" d="m173.1398,172.79c1.6809,3.1436,5.9769,7.8561,8.3702,9.7801,3.4235,2.7523,5.236,2.1481,3.8263,0s-5.2249-6.7513-10.6623-10.6447c0,0-1.1578-.953-1.8603-.829s.3261,1.6937.3261,1.6937Z"/>
          <path class="cls-4" d="m138.9751,130.0253c0,3.01-1.65,6.45-5.98,7.42.59-1.42.99-3.1201.89-5.0601-.05-.95-.22-1.96-.55-3.03-.04-.13-.08-.26-.13-.39-.9-2.59-2.65-4.34-4.69-5.5.07-.04.15-.08.23-.1,1.47-.52,2.82-.65,4.02-.48,2.34.32,4.14,1.75,5.27,3.53.2.31.37.66.51,1.05.27.76.43,1.64.43,2.56Z"/>
          <path class="cls-2" d="m133.3351,129.3553c-.04-.13-.08-.26-.13-.39-.9-2.59-2.65-4.34-4.69-5.5.07-.04.15-.08.23-.1,1.47-.52,2.82-.65,4.02-.48.14.19,1.55,2.2401.57,6.47Z"/>
          <path class="cls-1" d="m138.9751,130.0253c0,3.01-1.65,6.45-5.98,7.42.59-1.42.99-3.1201.89-5.0601l.02-.03c4.3-1.48,4.63-4.89,4.63-4.89h.01c.27.76.43,1.64.43,2.56Z"/>
          <path class="cls-2" d="m123.4458,117.491c1.123-2.8945,2.9891-6.8151,5.6793-9.8026l.0015-.0141-9.6071.2488c-.8812.0228-1.4047.9939-.9395,1.7427l4.8634,7.8258.0023-.0007Z"/>
        </g>
        <g>
          <path class="cls-13" d="m220.8659,92.5794c.248,0,.4629-.1841.4956-.4365l.6392-4.9775c.0352-.2739-.1587-.5244-.4326-.5596-.2725-.0278-.5239.1587-.5596.4326l-.6392,4.9775c-.0352.2739.1587.5244.4326.5596.0215.0024.043.0039.064.0039Z"/>
          <path class="cls-13" d="m247.6711,176.1834c-3.4624-3.7603-16.5386-18.6045-17.0996-21.1387-.8574-3.8731-2.2569-16.7361-2.7643-21.5505l-.1447-1.3925,13.971-2.9272c1.6172-.4038,2.2476-1.2856,2.4912-1.9546.3691-1.0132.1221-2.2637-.6616-3.3442-.1162-.1606-.395-.5054-.8042-1.0107-1.8008-2.2241-6.0181-7.4316-9.9941-13.7598-2.6113-4.1558-4.3042-7.688-5.2642-9.9194-.1094-.2539-.4058-.3682-.6572-.2617-.2534.1094-.3706.4033-.2617.6572.9746,2.2637,2.6909,5.8462,5.3364,10.0562,4.0083,6.3789,8.2515,11.6191,10.0635,13.8569.3926.4844.6606.8145.772.9683.5796.7993.7832,1.7246.5317,2.4146-.2339.6421-.8374,1.0884-1.7754,1.3232l-15.9404,3.3394-.3008.063s-.0002,0-.0002,0l-3.0413.6371c-.4219.0889-.8501.0977-1.2744.0298l-3.2808-.5298c6.8327-1.6717,18.0766-4.4387,19.6021-4.9155,1.2915-.4038,2.1772-1.1284,2.4946-2.0405.2773-.7979.1172-1.6704-.4644-2.5229-1.7412-2.5542-13.8413-9.8262-14.3555-10.1343-.2368-.1426-.5444-.0654-.686.1714-.1421.2373-.0654.5439.1714.686,3.4512,2.0688,12.7007,7.8696,14.0439,9.8403.2759.4048.5601,1.0161.3462,1.6309-.2109.6055-.8672,1.1079-1.8486,1.415-2.1338.6665-24.5415,6.1187-24.7676,6.1738-.1768.043-.3164.1787-.3643.3545-.6377,2.3447-1.4136,4.9634-1.6001,5.2759-.1621.1724-1.0933.3433-1.9536.3584-.1621.0029-.3135.0845-.4048.2188-.002.0029-.5693.8379-.9209,1.2886-.1797.1348-1.062.168-1.853.0698-.1836-.0195-.3623.0566-.4688.2056-.4097.5728-1.5977,1.2021-2.3618,1.0957-.2881-.041-.4819-.1147-.5464-.207-.0286-.0411-.0514-.122-.0521-.258-.0004-.0553.002-.1149.0098-.183.0096-.083.0248-.1785.0491-.2919.0449-.2095.187-.4489.3727-.6851.3094-.3936.7397-.7781,1.0419-1,.1299-.0957.2061-.248.2041-.4092l-.0342-2.9419c-.0024-.2012-.125-.3813-.3115-.457-.186-.0767-.3999-.0332-.542.1094-.0792.079-.1838.1519-.2972.2213-.5873.3587-1.539.5652-1.9323.368-.0532-.0264-.0991-.0532-.1382-.083-.0005-.0004-.0012-.0004-.0017-.0009-.1697-.1308-.1749-.3745.0344-1.5709.1543-.8823.8379-1.6768,2.0908-2.4282.283-.1698,1.1953-.5966,2.3173-1.1006.0095-.0037.0181-.0079.0273-.0122,1.0582-.4751,2.2974-1.0167,3.3804-1.4801.0021-.0009.0042-.0017.0063-.0027,1.3369-.5719,2.4295-1.022,2.6271-1.0714.2052-.041,4.1353-.7258,8.7159-1.522h.0004s.0002-.0001.0004-.0001c2.7249-.4736,5.6779-.9865,8.2172-1.4272.0017-.0002.0034-.0001.0051-.0004l3.0171-.5234c.0007-.0001.0012-.0007.002-.0009,2.0195-.3504,3.3718-.5849,3.4268-.5944.187-.0322.3394-.1675.3936-.3491s.0015-.3784-.1372-.5083l-8.5298-7.9966c-.0043-.004-.01-.0051-.0145-.009-.0363-.0318-.0774-.0548-.1206-.0747-.0138-.0063-.0258-.0168-.04-.0219-.0573-.0202-.1177-.0306-.1793-.0291-.0177.0004-.0341.0082-.0516.0105-.0407.0053-.0817.0088-.1213.0245-.0031.0012-.0051.0038-.0081.0051-.0184.0078-.0336.022-.0512.032-.0383.0221-.0751.0448-.1057.0753-.0043.0043-.0101.0057-.0143.0102-.0119.0127-.016.0289-.0263.0425-.0244.032-.0464.0642-.0626.101-.0106.0241-.0168.048-.0234.0732-.0089.0338-.0149.067-.0165.1024-.0013.0282.0004.0549.0038.0829.0021.0172-.0016.0339.0024.0511l1.9664,8.601c-1.2269.213-2.5342.4399-3.8589.67-.3373-1.5584-1.5449-7.4779-1.9459-14.0932-.3633-5.9858-.2344-10.3477-.1621-11.9453.0122-.2759-.2012-.5093-.4771-.522-.2705-.0063-.5093.2012-.522.4771-.0728,1.6133-.2031,6.0176.1631,12.0508.4017,6.6263,1.6033,12.5587,1.9582,14.2038-.7919.1375-1.5812.2748-2.3572.4096-2.163-13.2656-2.0085-26.3841-1.9542-28.9177,4.6166.52,7.6686.5387,8.0139.5387.1882.0344.374.0707.5635.104.0288.0049.0576.0073.0864.0073h.0005c.0636,0,.1243-.0139.1814-.0363.0182-.0071.033-.0198.0503-.0289.0374-.0201.0731-.0414.1043-.0701.0059-.0054.0139-.0074.0195-.0131.0092-.0093.0111-.0227.0194-.0326.0352-.0412.0624-.0873.0829-.1393.0078-.0197.0162-.0374.0213-.0578.0032-.0125.0108-.0225.0131-.0354.0082-.0474.0013-.0929-.0037-.1385-.0015-.0138.0048-.0269.0022-.0407-.7051-3.7407-2.561-12.458-4.5527-12.6089-1.9229-.168-6.4077,6.0361-7.7246,7.9351-.1577.2271-.1011.5386.1255.6958.2266.1587.5386.1001.6958-.1255,2.5439-3.667,5.895-7.5957,6.8188-7.5098.7875.2255,2.3635,5.2244,3.5164,11.0813-.0372-.0069-.0745-.0137-.1117-.0206-.782-.1456-1.5657-.3029-2.3505-.472-.1387-.03-.2767-.0603-.4144-.0908-.7549-.1666-1.5104-.3447-2.2657-.5327-.1703-.0425-.3402-.0851-.5089-.1282-.0184-.0047-.0365-.0095-.0549-.0142-.6848-.1752-1.3689-.3605-2.0523-.5528-.1236-.0349-.2474-.0697-.37-.1048-.158-.0453-.3154-.0908-.4718-.1366-.5848-.1707-1.1682-.349-1.7506-.5319-.041-.0129-.0826-.0258-.1234-.0386-.1735-.0549-.3469-.1097-.5178-.165-.2032-.0656-.4036-.1315-.6032-.1975-.1666-.0551-.3333-.1101-.4974-.1654-.1994-.0672-.3956-.1346-.5913-.202-.157-.0541-.3144-.1082-.469-.1624-.1974-.0693-.3914-.1385-.5848-.2078-.1473-.0527-.2951-.1055-.44-.1583-.1913-.0697-.3789-.1392-.5661-.2087-.1424-.0529-.2855-.1058-.4254-.1586-.1833-.0691-.3627-.1381-.5416-.2068-.1359-.0523-.2727-.1046-.4061-.1566-.1752-.0684-.3462-.1362-.517-.2041-.1323-.0526-.2655-.1052-.3951-.1573-.1673-.0674-.3302-.1341-.493-.2008-.1232-.0504-.2476-.1011-.368-.1511-.1651-.0685-.3253-.1361-.4854-.2037-.1121-.0474-.2258-.095-.3355-.1418-.1588-.0678-.3124-.1345-.4659-.2011-.1047-.0455-.2114-.0914-.3137-.1363-.1487-.0652-.292-.1291-.4354-.1931-.0997-.0444-.2014-.0894-.2985-.1331-.1446-.0651-.2832-.1286-.422-.192-.0864-.0394-.175-.0796-.259-.1184-.1425-.0657-.2784-.1295-.4142-.1932-.0747-.035-.1521-.0709-.2248-.1053-.1324-.0626-.2581-.1229-.3837-.1832-.0692-.0332-.1412-.0674-.2083-.0999-.1254-.0607-.2437-.1187-.3617-.1766-.0582-.0286-.1196-.0583-.176-.0862-.1181-.0583-.2283-.1136-.3383-.1688-.0504-.0253-.1041-.0518-.1528-.0764-.1055-.0532-.2027-.103-.3-.1528-.0454-.0233-.0944-.048-.1381-.0705-.1094-.0563-.2106-.1091-.3085-.1603-.0225-.0118-.0479-.0248-.0698-.0363-.0987-.0518-.188-.0992-.2742-.1452-.0187-.0099-.0406-.0215-.0588-.0312-.0953-.0509-.1818-.0977-.2603-.1404-.0037-.002-.0083-.0045-.0119-.0065-.0784-.0427-.147-.0804-.2081-.1142-.0035-.002-.0084-.0046-.0118-.0065-.1173-.065-.1977-.1105-.2472-.1388-.0306-.0175-.0519-.0298-.0557-.032-.2388-.1396-.5444-.0596-.6841.1782s-.0601.5444.1782.6841c.0749.0439,5.3654,3.1124,13.7163,5.8731l-.8628,1.1142c-.0026.0034-.0023.0081-.0049.0115-2.3148,3.0054-4.6599,6.129-6.9937,9.3249-.124.1704-.1279.4004-.0103.5752.0137.0204.4558.6959,1.0738,2.102l-3.0557.3516c-.0205.0024-.0377.0144-.0575.0192-.0237.0056-.0477.0037-.0709.0131-.0128.0051-.0211.0157-.0332.0217-.0284.014-.0526.0318-.0778.051-.0298.0226-.0571.0456-.0807.0737-.0085.0101-.0212.0156-.0289.0264-.3831.5339-.7599,1.0651-1.138,1.5968l-.9963-.4884c-.0065-.0032-.0135-.0028-.02-.0057-6.6783-3.2864-13.3368-7.0623-13.6997-8.1501-.6353-1.9053-4.7959-20.1284-5.2822-22.2622.4795-.7666,2.1084-3.4355,2.3242-4.6597.0743-.42-.1745-1.0534-.5997-1.7662,5.357-3.6869,8.269-9.7736,7.6099-16.014-.75-7.1001-5.9243-13.1509-13.8408-16.1855-10.6113-4.0674-21.5869-4.104-30.1147-.1016-5.6216,2.6387-9.6187,6.749-11.2549,11.5732-.1866.5505-.3292,1.1194-.4478,1.697-4.2339,1.9164-8.191,2.7792-8.2309,2.7878-.1973.042-.3496.1987-.3867.3965l-1.6411,8.7417-2.4902-8.3433c-.0674-.2266-.2832-.3716-.519-.3555-.1821.0146-18.0264,1.3145-19.4858-9.4512-.4038-2.9756.4102-5.749,2.4185-8.2437,4.5342-5.6309,13.6914-8.3306,18.3984-8.709,6.626-.5337,18.6479.5459,21.7046,7.9702.106.2554.3989.376.6528.272.2554-.105.377-.3975.272-.6528-3.0635-7.4404-14.1465-9.2778-22.7095-8.5864-4.873.3921-14.3667,3.2036-19.0972,9.0791-2.1875,2.7168-3.0728,5.7466-2.6309,9.0054.6606,4.8706,4.4565,8.1978,10.9771,9.6216,4.063.8867,7.9331.7832,9.1748.7173l2.9663,9.939c.0635.2124.2588.3569.479.3569.0083,0,.0171,0,.0259-.0005.2305-.0122.4229-.1807.4653-.4072l1.9609-10.4468c.9894-.2332,4.064-1.0208,7.4962-2.5082-.8784,7.1786,3.2762,15.7747,12.8564,19.87l-5.6392,11.5552c-.1025.2095-.0464.4619.1348.6079.0918.0742.2031.1113.3145.1113.1089,0,.2183-.0356.3086-.1069l12.8076-10.0562c1.442.3146,9.0952,1.7869,17.4803-.0519.0021,0,.0039.0011.006.0011.0176,0,.0352-.001.0532-.0029l4.4248-.4673c.1079-.0112.2095-.0576.2891-.1323l1.6157-1.5142c.0045-.0042.0064-.0101.0107-.0144.0096-.0096.0171-.0199.0258-.0302.0129-.0151.0217-.0317.0325-.0481.0163-.0246.0328-.0481.0444-.0748.006-.0139.0107-.0275.0155-.0419.0056-.0168.0082-.0334.012-.0507.0062-.0283.0106-.0557.0118-.0845.0007-.0173.0015-.0338.0004-.0513-.001-.0162-.0035-.0315-.006-.0477-.0047-.0292-.0136-.0568-.0236-.0851-.0046-.013-.0031-.0265-.0088-.0393-.0029-.0065-.0087-.0105-.0119-.0168-.0036-.0074-.0032-.0154-.0071-.0227-1.4629-2.6592-2.5239-5.4136-2.3423-5.8433.1392-.0259.8086.2197,2.1621,1.541,1.9551,1.9082,3.3472,4.0688,3.2959,4.5361-.1738.9834-1.7158,3.563-2.2954,4.4736-.0718.1128-.0952.2495-.0654.3794.1899.8359,4.668,20.499,5.355,22.5591.6014,1.8043,9.4211,6.3599,13.7173,8.4891l-.914,1.3907c-4.5785-1.4786-11.1776-3.9922-14.0577-5.1045-.918-.3545-1.6958-1.0137-2.1904-1.856-4.7573-8.1045-8.8809-21.8105-10.0317-25.8188-.0767-.2656-.3516-.4175-.6187-.3423-.2651.0762-.4185.353-.3423.6187,1.1587,4.0361,5.3135,17.8433,10.1304,26.0483.6084,1.0371,1.5649,1.8477,2.6924,2.2827,2.9667,1.1456,9.8605,3.7704,14.4777,5.2401.001.0003.0018.0013.0028.0016l.0765.0235c.2399.0761.4744.1496.7007.2189-1.1682,1.6707-2.2877,3.2954-3.3143,4.8152-.1123.1655-.1143.3833-.0059.5513.0084.0132.3666.5827.7655,1.6401h-1.9569c-.0771,0-.1481.0206-.2133.0518-.0209.01-.0367.025-.0561.0378-.046.0303-.0856.0654-.1193.1088-.0081.0105-.0215.015-.0288.0262-1.7144,2.5996-3.8066,5.8833-4.0356,6.7671-.167.6445-.1055,1.1934.1841,1.6313.5107.7744,1.5654.9341,2.2778,1.042l7.769,1.189c.013.002.0262.0021.0394.0031.0025.0002.0045.0017.007.0018.002,0,.0035-.0009.0054-.0009.008.0004.0159.0018.0239.0018.0435,0,.0864-.0059.1284-.0166l1.9414-.5168v.3237c-1.0539.4773-1.891.8724-2.1504,1.0281-1.5161.9097-2.354,1.9282-2.5615,3.1138-.1683.9622-.2803,1.6534.0142,2.1608l-26.1558,13.8113.1395-1.7717,15.8741-7.5773c.1982-.0947.3115-.3071.2793-.5244-.0527-.3545-.0693-1.4502.522-1.8203.7749-.4844,6.1675-3.1445,8.9106-4.4839.1523-.0742.2568-.2207.2773-.3892.0117-.0977.2695-2.4111-1.5679-3.4399-.1572-.0894-.3516-.0845-.5063.0103-.0747.0459-7.4795,4.6016-8.7261,5.2661-1.0005.5352-1.6274-.2661-1.6929-.3564-.144-.2031-.416-.272-.6377-.1562l-12.1649,6.2644.1942-2.4661c1.0293-.3545,2.4951-.9189,2.8208-1.3535.3452-.4603.2648-1.9145.122-3.1398.8242-.9718,4.6472-5.9789,1.4908-11.9109-3.1909-5.999-10.1812-5.8711-10.478-5.8569-.2759.0083-.4927.2383-.4849.5142.0078.2754.2026.4893.5137.4858.0713-.0015,6.6714-.1157,9.5664,5.3267,2.9658,5.5737-.7867,10.1455-1.4116,10.8469-.6426.2134-4.1475,1.3458-10.256,2.8015l1.3146-5.2592c.0024-.0096-.0002-.0189.0016-.0285.7964-1.9352,1.3242-3.9956,1.4554-5.9505.2324-3.4614-.7129-6.3242-2.7339-8.2788-3.049-2.9493-6.7789-2.6124-8.3496-2.2974.5283-4.6553-.3755-10.3896-6.6641-13.6055-7.1777-3.6704-15.6733.8945-21.2271,6.3926-.1991.1971-.3857.4087-.5766.6155l-9.4088.2434c-.5952.0156-1.1191.3379-1.4019.8623-.2822.5239-.2632,1.1387.0508,1.644l4.7289,7.6099c-.5817,1.5275-.9512,2.7339-1.1233,3.3381-2.6253-.3284-4.8119-.2076-5.5348-.1478l-2.2232-2.3668,1.179-1.8682,2.7103,2.7911c.0981.1011.2285.1519.3589.1519.1255,0,.251-.0469.3481-.1411.1982-.1924.2031-.5093.0107-.707l-2.879-2.9649,1.9323-3.062c.1475-.2334.0776-.542-.1562-.6895-.2314-.147-.5415-.0771-.6895.1562l-1.803,2.8572-2.8537-2.9388c-.1929-.1987-.5093-.2026-.707-.0107-.1982.1924-.2031.5093-.0107.707l3.0224,3.1125-1.1695,1.8533-6.1268-6.5225c-.1484-.1582-.3833-.2017-.5791-.1094-.1963.0938-.3101.3032-.2808.519l1.1788,8.6985-3.7169.5208,2.1504-4.2988c.0776-.1558.0684-.3403-.0234-.4878-.0913-.147-.2524-.2358-.4253-.2358h-.0034c-.1372.0142-3.2822-.0132-3.6143-3.1616-.1406-1.3354.6294-2.5386,2.0591-3.2178,1.4604-.6943,3.5889-.7354,5.0498.7349.1938.1953.5103.1963.707.002.1958-.1943.1968-.5107.002-.707-1.8057-1.8174-4.4102-1.7793-6.188-.9331-1.8032.8569-2.8086,2.4761-2.624,4.2256.2876,2.7324,2.3306,3.7505,3.835,3.9951l-2.2451,4.4883c-.083.166-.0674.3647.041.5156.0947.1313.2466.208.4062.208.0229,0,.0464-.0015.0693-.0049l4.655-.6525.2044,1.5084c-7.541,3.251-12.1528,7.8584-12.6724,12.6777-.3232,3.0024,1.0249,5.1636,1.8569,6.1846.1748.2144.4893.248.7036.0718.2139-.1748.2461-.4897.0718-.7036-.7339-.9004-1.9224-2.8047-1.6382-5.4453.4878-4.5215,5.0142-8.9004,12.4189-12.0137.2085-.0874.332-.3042.3018-.5283l-1.3594-10.0269,8.1548,8.6812c.1074.1143.2642.1719.4185.1548.1109-.0103,8.9958-.9095,13.9708,3.4265.0184.0161.0364.0325.0547.0487.1686.149.3323.3043.4912.4658.0388.0396.0754.0807.1134.121.1395.1469.2765.297.4073.4543.0539.0652.1032.1334.1552.1999.111.1412.2219.2824.3256.4319.0685.0992.1295.2035.194.3054.0805.1266.1638.2502.239.3826.0843.149.1583.3048.2344.459.0475.0958.0998.1866.1444.2853.1172.2594.2238.5256.3188.799.0395.1137.0602.2214.0959.3339.0021.0134.0078.0251.0109.0382.0896.2854.1771.5701.2434.8478.033.1389.059.2775.0869.4162.0511.2539.0933.5043.1265.7512.0225.1694.0442.3387.0588.5078.0169.1903.0236.3759.0305.5616.0073.2072.0183.4146.0138.6211-.0011.0592-.0076.1153-.0097.174-.0367.9627-.1977,1.918-.4923,2.8621-.9147,2.9421-2.822,4.8918-3.3081,5.3525-.7604.0819-1.5188.1655-2.2844.2432-.1665.019-16.9243,1.9126-29.27.9629-.2759-.0278-.5093.1787-.5361.4487-.0239.2417-.2109,2.3877.6567,3.3794.7842.8955,5.2993,1.0205,7.4414,1.0278.891.9891,5.6282,6.2469,9.9745,11.0544l2.1825,9.4435c-.0796.3592-.1457.713-.196,1.0613l-8.2427,4.288c-.3416.1779-.5237.541-.4818.9177-.0038.0261-.0147.0497-.0143.077.0015.0977.0581,2.4097,1.7812,4.4102.0903.105.2197.1675.3579.1733.0483.002,2.8389.1157,6.6416.1157.5922,0,1.2211-.0048,1.856-.0112,1.402,2.5239,3.0523,3.9643,4.377,4.7715h-8.8057c-.2764,0-.5.2236-.5.5s.2236.5.5.5h52.1265c.2764,0,.5-.2236.5-.5s-.2236-.5-.5-.5h-28.7785c1.4949-1.4288,2.2951-3.509,2.7249-5.3693l3.5775-1.5321c.5864-.251.9839-.8018,1.0376-1.4375l.3051-3.6187.8819-.3032,2.9004,8.2407c.1973.5605.729.918,1.2983.918.1211,0,.2446-.0161.3662-.0498l10.4585-2.9082c.6597-.1836,1.124-.7666,1.1558-1.4507l.5918-12.8149,2.3555-1.1714c.4932-.2456.8022-.7598.7876-1.3096l-.0626-2.3786,34.0294-17.5619c.0131.0216.017.0458.0317.067.13.1865.3021.3074.4822.3998-8.0499,11.0969-17.2178,27.9913-18.8362,31.0064-2.0303-1.2124-7.9717-4.5352-9.9634-3.1421-.2432.1699-.5366.501-.5571,1.1118-.0962,2.8994,6.4624,10.0605,9.2568,12.3076.4874.3918.9514.7199,1.3923.9966h-7.8831c-.2764,0-.5.2236-.5.5s.2236.5.5.5h10.7803c.2142,0,.3934-.1357.4647-.3247.0076-.0065.0186-.0084.0261-.0151.3047-.2764.6802-.9453-.2227-2.3208-1.4033-2.1382-5.2549-6.8145-10.7891-10.7769-.2236-.1602-.5371-.1089-.6978.1157s-.1089.5366.1157.6978c5.4141,3.8765,9.1699,8.4316,10.5352,10.5122.4395.6699.4155.9888.3867,1.0312-.1333.1362-1.2944.063-3.4814-1.6953-3.3149-2.665-8.9556-9.3511-8.8843-11.4951.0078-.2397.0942-.2998.1309-.3257,1.2007-.8418,6.1738,1.5103,9.3198,3.4497.1177.0718.2593.0923.3936.0566.1333-.0361.2456-.126.3105-.248.1039-.1961,10.4258-19.6162,19.2593-31.6949.0002,0,.0003,0,.0005,0,1.0005,0,2.1792-.6069,2.8091-1.29.087.0086.18.0156.2737.022-9.0628,17.5028-16.2469,35.6713-18.2537,40.8784-.0991.2578.0293.5469.2871.6465.0591.0225.1196.0332.1797.0332.2007,0,.3901-.1216.4668-.3203,2.0198-5.2425,9.2996-23.6525,18.4553-41.256.4509-.0578.851-.1918,1.0623-.4608.2661-.3389.6328-.8618.8335-1.1509.7773-.0337,2.1255-.1841,2.5161-.8091.3281-.5254,1.2637-3.8682,1.6475-5.27.4348-.1058,1.2968-.3159,2.445-.5961l5.6175.9072c.2378.0386.4771.0576.7163.0576.3086,0,.6172-.0322.9224-.0962l2.4105-.5051c-.1625,3.7367-.8804,22.1031.566,25.5969,1.4194,3.4297,9.728,17.0273,11.4351,19.8091-2.8145,1.3384-8.1631,4.1025-8.0244,5.7153.0176.2046.1162.5034.4873.7637.918.645,3.4346.8794,5.9893.8794,2.5332,0,5.103-.2305,6.187-.5195,1.9082-.5083,5.3247-3.2954,6.3071-4.4961.8931-1.0908,1.7017-2.4106-.019-4.2788Zm-67.3379-109.2046c-1.0801-.9155-1.8398-1.2485-2.3975-1.0547-.2534.0898-.4419.2783-.5435.5449-.4653,1.2195,1.2189,4.6426,2.0668,6.2375-.256.1083-.511.2178-.7724.3199-.1235.0482-.2471.0939-.3707.1403-.3219.1208-.6478.2364-.9769.3475-.131.0441-.2619.0903-.3929.1325-.399.129-.8033.2502-1.2117.3649-.2058.0574-.4111.1095-.6165.1625-.211.0549-.4232.1077-.6364.1587-9.2385,2.1971-17.747.1556-17.8486.1304-.1494-.0381-.3081-.0034-.4287.0923l-11.2812,8.8574,4.9165-10.0742c.061-.1245.0674-.269.0176-.3984s-.1509-.2324-.2798-.2847c-10.7324-4.3301-14.5962-14.4375-12.1309-21.707,1.5479-4.5645,5.3594-8.4673,10.7324-10.9893,8.2822-3.8892,18.9746-3.8403,29.3315.1299,7.6714,2.9409,12.4844,8.5381,13.2046,15.3569.6198,5.8666-2.1215,11.5944-7.1646,15.0742-.9484-1.3268-2.28-2.7471-3.2173-3.5415Zm50.2779,55.9304l-3.1261-5.2649,5.2271,4.9005c-.5302.092-1.2504.2169-2.101.3644Zm-12.0614,2.0942c-1.1146.1938-2.1819.3795-3.1594.5497-.5187-12.5724-3.4103-19.7485-4.0888-21.2676,2.0391-2.4844,4.0991-5.4287,5.2593-7.1353-.0419,4.2893.0577,16.0135,1.989,27.8532Zm-5.0836-29.638c.9872.1523,1.9293.2828,2.8249.3954-.9401,1.4086-3.4893,5.1546-5.9602,8.1296-.1255.1514-.1509.3623-.0645.5391.0363.0744,3.5794,7.4863,4.1308,21.2966-1.0031.1748-1.8727.3266-2.5522.4456-.696-13.9567-4.1246-20.5526-4.9848-21.998,2.2047-3.0149,4.4188-5.9641,6.606-8.8082Zm-2.6135,30.9804c-.3225.0569-.5191.0921-.5623.1008-.1902.038-1.0587.3869-2.1773.8592-.4224-10.0576-2.7739-17.4272-3.5075-19.4997l2.7108-.3118c1.308,3.291,3.0753,9.3748,3.5364,18.8516Zm-11.971-1.5872l-2.5615-.4565,1.5454-2.2754c.1094-.1606.1152-.3711.0151-.5381l-1.1573-1.9302h1.4113c.3897,1.3004.7358,3.0528.747,5.2002Zm2.5508-6.7012l.959-1.4746c.404,1.6384,1.1147,5.2815,1.3564,11.2712l-1.5217.405c.2711-5.913-.5389-9.3055-.7938-10.2015Zm3.3311,10.1587c-.3257-8.9702-1.6606-12.8384-1.7173-12.9985-.0635-.1797-.2231-.3076-.4121-.3301-.1895-.021-.374.0649-.478.2241l-1.6885,2.5957c-.0835.1279-.1035.2871-.0552.4321.0119.0347,1.1307,3.4742.8081,10.2004l-7.3037-1.1174c-.4956-.0752-1.2451-.189-1.5107-.5918-.1265-.1919-.1436-.4707-.0508-.8296.1074-.4146,1.0811-2.1582,3.4658-5.8027l1.0376,1.731-1.7993,2.6489c-.0952.1401-.1128.3188-.0474.4751.0659.1558.2065.2681.373.2979l3.9033.6958c.1436.0264.2915-.0127.4043-.105.1133-.0928.1802-.23.1836-.3755.0638-2.7849-.4042-4.9594-.9035-6.4834-.0032-.0084-.0044-.0172-.0079-.0254-.35-1.0624-.7136-1.8146-.9221-2.1919,1.2328-1.8209,2.5952-3.7867,4.0129-5.799l.7702-1.0909c.3127-.441.6286-.884.9455-1.3276.8277,2.4156,3.0055,9.6212,3.3608,19.2759-.7731.3325-1.5937.6913-2.3686,1.036l-.0002-.5441Zm-69.5187,40.9954l-.9698-4.591c1.3071,1.0969,2.2029,2.5923,2.7212,3.6662l-1.7514.9248Zm2.6364-1.3921c-.68-1.3984-1.951-3.4514-3.9125-4.6492l-.3274-1.5499c.499.27.9711.5605,1.3806.8927,1.5032,1.2198,2.7437,2.8616,3.7147,4.8547l-.8553.4517Zm1.7382-.9178c-.3445-.7042-.7256-1.3613-1.1366-1.9791,1.5369-.5416,3.4439-1.2708,5.5713-2.1175l-.1752,1.8474-4.2595,2.2492Zm5.4784-4.5143c.2508-.1009.4996-.2006.7551-.3041l-.1348,1.598-.7823.413.1619-1.7069Zm1.7939-.7266c.9286-.379,1.8803-.7712,2.8474-1.1729l.1575.9871-3.1285,1.6519.1237-1.4661Zm39.006-26.5158c.5356.498,1.5088.9561,2.686.3301,1.1499-.6138,7.1353-4.2866,8.5088-5.1309.7393.5767.8369,1.5645.8379,2.0327-1.417.6929-7.8164,3.8296-8.7354,4.4043-.9419.5889-1.0317,1.8154-1.0112,2.4375l-15.0432,7.1809.3846-4.8836,12.3724-6.371Zm-20.8604-18.3516c2.2773,2.2031,2.5791,5.291,2.4312,7.4932-.1314,1.9606-.6792,4.0307-1.5034,5.9506-.0868.2016-.1765.4006-.2686.5975-.0538.1151-.1069.2305-.1627.3442-.1221.2486-.249.492-.379.7314-.0322.0594-.0624.1206-.0951.1794-.1698.305-.3457.6019-.5272.8895-.0285.0452-.0587.0877-.0875.1324-.1527.2374-.3087.4691-.4684.693-.0542.076-.11.1492-.165.2236-.1386.1874-.2791.3701-.422.5464-.064.079-.1285.1566-.1934.2334-.1393.1649-.2807.323-.4234.4766-.0673.0724-.134.1459-.2021.2158-.1494.1535-.3009.2974-.4531.4378-.0625.0576-.1239.119-.1869.1743-.2142.1885-.4303.366-.6483.5264-.0493.0363-.0893.0807-.1212.1296-.0009.0014-.0023.0024-.0032.0038-.0103.016-.0135.0347-.0217.0517-.0167.034-.0336.0674-.0422.1041-.0013.0056-.0035.0106-.0047.0162-.0035.0172.0002.0355-.0015.0532-.0031.0343-.0068.0679-.0027.1025.0013.0111.0026.0217.0046.0327.001.0052-.0009.0101.0002.0153.0034.0154.0135.0267.0182.0414.006.0193.0065.0394.015.0582.0027.006.0093.0084.0122.0142.0049.0098.0052.0206.0107.0303l2.9341,5.0718-8.5464-4.4858c-.0201-.0104-.0419-.0106-.0626-.0181-.0325-.0121-.0638-.0234-.0986-.0285-.0333-.0048-.0649-.0029-.098-.001-.0226.0012-.0442-.0051-.067-.0007-2.7143.5184-5.4999,1.0021-8.3355,1.4579.3651-1.046.7559-2.162,1.1423-3.2627.3817-.1146.71-.3297.9168-.6449.4456-.6808.5151-1.3574.2513-2.0181.8367-1.3278,1.5475-2.5779,2.1069-3.6215.3915.7503.9966,1.1357,1.8098,1.1357.0845,0,.1714-.0044.2603-.0122.5312-.0498,1.0303-.3623,1.3696-.8574.3555-.519.478-1.1455.3271-1.6768-.1963-.6938-.6104-1.0259-.9233-1.1826-.1972-.099-.418-.1495-.6461-.1697q12.4064-2.853,12.3975-3.3884c-.0063-.2222-.1831-.4209-.3989-.4761-.3799-.0977-5.7393-2.0518-9.5356-3.4468.4205-1.1326.9626-2.8486,1.2849-4.8298,1.063-.2531,4.8542-.894,7.8025,1.9568Zm-46.0322-7.3916c-.1772-.2842-.0728-.5435-.02-.6421.0532-.0981.2124-.3276.5474-.3364l8.4969-.2198c-.4985.6151-.9684,1.2522-1.4048,1.9083-.0782-.0659-.1654-.1252-.2615-.1768-.4556-.2446-1.0225-.271-1.48-.0698-.5815.2573-.8198.6465-.9175.9277-.1289.3721-.0923.7949.1001,1.1592.1887.3575.5663.6401,1.0099.7587-.6838,1.2762-1.2592,2.5284-1.7316,3.6732l-4.3389-6.9822Zm3.7571,11.6226c.4019-1.3619,1.6446-5.196,3.802-8.9045.126-.2169.2523-.4335.3853-.6494.9269-1.5071,2.0042-2.9666,3.2455-4.1953,5.3057-5.2515,13.3623-9.6436,20.0688-6.2129,6.0547,3.096,6.6807,8.7963,6.0374,13.2582-.0034.0141-.0087.0275-.011.0421-.0007.0049.002.0093.0014.0143-.0013.0107-.0032.0208-.0038.0316-.3431,2.3104-1.0209,4.2802-1.4512,5.3682-.0498.1255-.0464.2656.0083.3882.0552.123.1577.2188.2842.2651,2.5757.9473,6.4053,2.3506,8.5586,3.1172-2.5522.6294-7.8081,1.8545-11.5693,2.7192-.1523.0352-.2793.1392-.3438.2812-.024.053-1.4888,3.2481-3.772,6.7852-.153.2365-.3065.4722-.462.7039-.082.1226-.1667.2453-.2505.3681-.1804.2635-.3615.5246-.5435.7794-.1702.2384-.3413.4766-.5178.713-.0561.0751-.1122.1495-.1683.2234-.2194.2895-.4435.576-.6715.8588-.0452.056-.0906.1143-.1357.1696-.2716.3324-.5486.6588-.8311.9763-.0321.0361-.064.0691-.0961.1047-.2414.2684-.4871.5287-.7355.7824-.0745.076-.1487.1511-.223.2249-.2454.2438-.4939.4788-.7451.7045-3.2679.4793-6.6038.9162-9.9963,1.3109l.9622-3.4554c2.4651-.6924,4.3224-2.2704,5.2454-4.5073.7745-1.877.814-4.133.1882-5.9197-.0093-.0475-.0258-.0905-.0479-.1324-.1449-.3871-.3105-.7588-.5202-1.0885-2.1973-3.4556-5.8896-4.6753-9.8804-3.2578-.0155.0055-.0343.0137-.051.0204-1.4305-.7842-3.1017-1.3795-5.012-1.7592-.2533-.0504-.4995-.0872-.7482-.1284Zm9.8768,5.6793c-.1446-.2291-.2789-.4648-.4418-.6818-.182-.2437-.3934-.4667-.5981-.6948-.1468-.163-.2843-.3322-.4425-.4872-.2274-.2231-.4801-.4279-.7313-.6341-.1717-.141-.3381-.2856-.5206-.4186-.0825-.0601-.1504-.1307-.2352-.1891.9713-.2557,1.9096-.3112,2.8043-.2167.2592.4526.8491,1.7971.6406,4.1189-.0272-.0535-.0502-.1099-.0784-.1628-.1171-.2214-.2645-.4225-.3971-.6337Zm5.2703,6.2049c-.5373,1.3024-1.6752,2.9387-4.0614,3.7723l.0463-.2826c.0014-.0085-.0016-.0163-.0007-.0247.3613-1.2131.5334-2.4417.5045-3.6805,2.2704-.8721,3.4396-2.2525,4.0311-3.3736.1071,1.1899-.0555,2.4638-.5198,3.5891Zm-3.5833-1.2592c-.0452-.4064-.1158-.8138-.2026-1.2217-.0202-.0959-.0418-.1918-.0645-.2885-.0633-.267-.1364-.5343-.2175-.8018.6218-2.7697.2501-4.6506-.1516-5.7124,1.5611.4681,2.9219,1.4899,3.9202,3.0604.1636.2574.2955.5457.4128.8457-.094.5392-.6687,2.8324-3.6968,4.1183Zm-17.3765,28.5845c.2959.327.5845.6458.8705.9617l.308.3405.6271,3.7476c-.1561.3146-.2951.6307-.4194.9486l-1.3864-5.9984Zm8.6937,13.8771c-1.2646-4.6388.0033-9.3798,2.8545-10.4637.7195-.2729,1.4256-.4069,2.1009-.4212l1.6447,7.5703-5.7715,3.0472c-.2615.1381-.541.2207-.8286.2674Zm4.7383-11.8842c-.7316.0367-1.4804.1975-2.2393.486-3.3361,1.268-4.8502,6.353-3.5028,11.5092-1.3146.1158-3.4506.2695-5.971.3293-.1107-.5523-.5901-3.3413.12-6.3633l.9108-2.5322c.4119-.8222.9349-1.6223,1.6262-2.3536,2.9653-3.1367,6.5756-3.2037,8.6599-2.899l.3962,1.8237Zm-12.7278,12.3424c-.4327.0054-.8724.0078-1.3207.0063l1.2372-.5007c.0305.2037.0583.3613.0835.4944Zm1.8916-10.6236l-.1736-1.038c.1746.1924.3416.3763.5081.5598-.1204.157-.225.3181-.3345.4783Zm-2.1202,6.4645c-.0677,1.0016-.0361,1.9005.0271,2.6339l-3.6613,1.4818c-1.2531-.0466-2.5275-.1274-3.7853-.2559l7.4195-3.8597Zm-6.2047,7.6796c-.8145-1.0167-1.1528-2.1115-1.296-2.8268,1.3095.1334,2.632.2154,3.934.2617.0067.0002.012.0056.0187.0056.0073,0,.0145-.004.0219-.0043.9164.032,1.8241.0511,2.7003.0511.5758,0,1.1354-.007,1.683-.0176.0021,0,.0038.002.0059.002.0058,0,.0118-.0024.0176-.0026,3.3699-.066,6.128-.3063,7.2729-.4203.4761-.0474.9336-.1855,1.3599-.4102l6.1074-3.2246c.0099-.0052.0156-.0146.025-.0204.0299-.0184.0543-.041.0793-.0648.0226-.0214.0453-.0412.0632-.066.0191-.0262.0315-.0549.0452-.0843.0134-.029.0272-.0564.0349-.0873.0075-.0298.0081-.0599.0099-.0911.0021-.0347.0037-.068-.0015-.1028-.0016-.0107.0019-.0208-.0004-.0316l-4.5347-20.8726c-.0586-.2705-.3267-.4443-.5947-.3828-.27.0586-.4414.3252-.3828.5947l1.9749,9.0902c-3.5012-.4069-6.8092.7379-9.1653,3.2306-.0247.0262-.0437.0544-.0681.0807-.5676-.6251-1.1816-1.3022-1.8271-2.015l-2.3035-2.5462s-.0007-.0002-.0009-.0005c-4.8423-5.3557-10.2081-11.3135-10.2081-11.3135-.0947-.1055-.23-.1655-.3716-.1655-2.9849,0-6.4761-.2778-6.9116-.6865-.3564-.4072-.4556-1.3823-.4414-2.1353,12.3887.8667,28.7856-.9854,28.9453-1.0034.7991-.081,1.5911-.1682,2.3847-.2539.0009,0,.0018.0006.0027.0006.0004,0,.0008.0004.0012.0004h.0005s.0002,0,.0002,0c.0173,0,.0352-.0009.053-.0029.2482-.0267.4889-.0551.7343-.0823.3605-.0397.7197-.0803,1.079-.121.1104-.0126.2234-.0247.3337-.0374.0018-.0002.0031-.0019.0049-.0021,3.6902-.4216,7.3141-.8942,10.8604-1.4154.0174-.0007.0347-.0014.0522-.0038.3882-.0569.7543-.1158,1.1356-.1733.591-.0891,1.1819-.178,1.7683-.2699.1237-.0194.2552-.0383.3784-.0577.0038-.0006.0064-.004.0103-.0046,3.0703-.4849,6.0797-1.0046,9.0109-1.5625l9.9246,5.2087c.0737.0386.1533.0571.2324.0571.1328,0,.2642-.0532.3608-.1538.1543-.1606.1836-.4038.0718-.5967l-3.4577-5.9763c.3214-.0709.6412-.1415.952-.2115.179-.0403.351-.0798.5264-.1196.3207-.073.6373-.1454.9461-.2172.113-.0262.2343-.0534.3457-.0794.0018-.0004.0028-.0021.0046-.0025,5.6997-1.3346,9.327-2.4346,10.6732-2.8637.0859.9136.1147,1.8345.042,2.021-.2109.2124-1.5474.7534-2.6631,1.1255-.1904.0635-.3247.2349-.3403.4351l-.9748,12.3783-21.8307,9.4329c-4.7379,1.9751-9.191,3.7608-12.1417,4.7873-.6754-.8815-1.4202-1.6664-2.2417-2.3328-.6555-.5321-1.4268-.9854-2.2747-1.3672l-.7717-3.6533c-.0571-.27-.3198-.4414-.5928-.3857-.27.0571-.4429.3223-.3857.5928l2.7764,13.1436c.0062.0293.0215.0535.0323.0803.0065.0163.0062.0337.0146.0496.0022.0042.0069.0056.0092.0097.0399.071.096.1271.1625.1705.0145.0095.0283.0165.0436.0244.0698.0362.145.062.2265.062.0002,0,.0005,0,.0007,0,.0001,0,.0001,0,.0002,0,.0002,0,.0004-.0002.0007-.0002.0336-.0001.0677-.0034.1024-.0106.0297-.0063.0529-.0236.08-.0345.0164-.0065.034-.004.0499-.0123l64.8633-34.2505c.6509.1763,1.5326.0306,2.2475-.3012l.0205,1.7866c-.1102.0891-.2529.2099-.4078.3551-.4649.4355-1.0408,1.0902-1.1854,1.7655-.0016.0073-.0018.013-.0034.0202-.0249.1177-.0466.2429-.0615.3724-.001.0084-.0036.0186-.0045.0269l-34.579,17.8457h0l-1.2537.647-3.7538,1.9373s-.0005,0-.0008.0002l-1.3865.7158-21.1335,10.9067s-.0007.0004-.0012.0006l-10.4924,5.415c-.2949.1523-.6089.2407-.9331.2627-6.8662.4692-14.4595.228-15.8398.1782Zm26.9944-3.7029c-.1632,2.829-1.2503,5.6254-3.949,6.3484-1.0571.2824-3.2963.2589-5.3535-1.338l9.3025-5.0105Zm3.3636.0543c-.02-.7782-.1219-1.6442-.288-2.5291l1.8922-.9766.0787.2242-.2646,2.7904-1.4183.491Zm17.274-11.5925l.5314,7.9235c-.0038.2247.0073.3883.0334.4989l.2289,3.4125-6.8525,2.3921-2.988-9.5582,9.0468-4.6688Zm-37.8056,17.0133l6.6671-.189c1.6829,1.5538,3.686,2.2083,5.36,2.2083.5225,0,1.0132-.063,1.4507-.1802,3.4161-.915,4.6569-4.4711,4.7101-7.8636l1.2399-.6678c.0932.7664.1313,1.4916.094,2.1086-.1221,2.0083-.7397,6.8369-3.8262,8.6782l-10.4258.0088c-.0318-.0061-2.8583-.5965-5.2698-4.1033Zm23.6716-4.3283c-.0229.2661-.1895.4971-.4351.6025l-2.9485,1.2627c.1194-.73.1842-1.3787.2195-1.8908l2.0732-.7181c.1851-.0645.3159-.2305.334-.4253l.1782-1.8796c.1546.0392.3174.0505.4791-.0046l.3677-.1264-.2681,3.1796Zm21.0972-14.3569c.0044.1626-.0869.3145-.2329.3872l-2.6187,1.3022c-.1626.0811-.2686.2432-.2769.4248l-.6055,13.1089c-.0117.2515-.1826.4658-.4248.5332l-10.4585,2.9082c-.1885.0532-.3882-.0508-.4531-.2368l-3.0654-8.709c-.0723-.2056-.2651-.334-.4717-.334-.0537,0-.1089.0088-.1626.0273l-2.6104.8975-.3553-1.0138,4.8237-2.4894,3.0898,9.8841c.04.1294.1313.2368.2524.2979.1211.0605.2622.0698.3892.0254l7.7002-2.688c.2129-.0742.3496-.2812.3345-.5059l-.2618-3.9042c.056-.2701.0744-.7246.063-1.3101.2411-1.9556.8064-5.7393,1.2208-8.3988l4.0741-2.1026.0498,1.8959Zm81.1006,18.6523c-.9023,1.103-4.1528,3.7266-5.791,4.1636-2.7319.7271-10.8379.6729-11.4092-.2358.061-.7059,3.6497-2.9515,7.8593-4.9229h2.441c.2764,0,.5-.2236.5-.5s-.2236-.5-.5-.5h-2.274c-1.2411-2.0218-10.0897-16.4756-11.5096-19.9062-1.0867-2.6256-.8784-15.4964-.5588-23.5695l1.2006-.1656c.5521,5.2191,1.874,17.2437,2.7205,21.0681.7212,3.2563,17.1753,21.4209,17.3408,21.6006,1.0918,1.1851.8765,1.8735-.0195,2.9678Z"/>
          <path class="cls-13" d="m155.1774,44.0501c-.1353-.5386-.5576-.9395-1.1021-1.0469-.5449-.1069-1.0884.104-1.4185.5508l-12.2905,16.6572c-.353.4785-.4316,1.0938-.2109,1.646.2207.5518.7017.9424,1.2866,1.0454l15.8188,2.7954c.1357.0244.272.0361.4067.0361.6362,0,1.2466-.2612,1.689-.7363.5337-.5728.7388-1.3687.5479-2.1289-1.1934-4.7666-3.6841-14.6719-4.7271-18.8188Zm3.4473,20.2661c-.3086.3315-.7417.4761-1.1899.3975l-15.8188-2.7954c-.2456-.0435-.4395-.2012-.5317-.4326-.0928-.2319-.061-.48.0869-.6807l12.2905-16.6572c.1475-.1987.3589-.1753.4204-.1636.0781.0156.2671.0767.3257.3101,1.043,4.147,3.5337,14.0513,4.7271,18.8179.1094.4365-.0034.8755-.3101,1.2041Z"/>
          <path class="cls-13" d="m153.592,48.2678l-1.8931-.2383c-.1387-.0161-.2769.0239-.3833.1123-.1064.0894-.1714.2188-.1787.3574l-.4478,8.4712c-.0225.4312.269.7974.6782.8516.0352.0044.0698.0068.104.0068.3613,0,.6685-.2529.75-.6338l1.7969-8.3257c.0298-.1372,0-.2803-.0811-.3945s-.2061-.1895-.3452-.207Z"/>
          <path class="cls-13" d="m150.9972,59.1614c-.3667-.0757-.7559.0044-1.0718.2217-.3081.2104-.5112.5269-.5718.8906-.1377.8262.3926,1.4355.9878,1.6104.105.0308.2354.0513.3784.0513.2441,0,.5254-.0586.7773-.2227.2319-.1504.5234-.4473.5981-1.0063.0957-.7188-.3867-1.3975-1.0981-1.5449Z"/>
          <path class="cls-13" d="m168.5392,53.1995l-3.0888,3.183-2.4332-3.4448c-.1587-.2251-.4697-.2793-.6968-.1196-.2256.1592-.2793.4712-.1196.6968l2.5411,3.5977-2.4918,2.5679c-.1924.1982-.1875.5146.0107.707.0972.0942.2227.1411.3481.1411.1304,0,.2607-.0508.3589-.1519l2.3611-2.4331,2.2625,3.2031c.0972.1377.2515.2114.4087.2114.0996,0,.2002-.0298.2881-.0918.2256-.1592.2793-.4712.1196-.6968l-2.3705-3.356,3.2196-3.3178c.1924-.1982.1875-.5146-.0107-.707-.1978-.1924-.5142-.188-.707.0107Z"/>
          <path class="cls-13" d="m183.8351,57.3699c.0225-.2754-.1826-.5166-.4575-.5396l-3.5972-.2949.8452-8.5864c.021-.2148-.0981-.4194-.2959-.5063-.1982-.0879-.4292-.0381-.5737.123l-7.6729,8.5352c-.127.1416-.1626.3428-.0928.519.0703.1768.2344.2983.4238.314l6.2715.5146-.6597,6.7026c-.0269.2749.1738.5195.4487.5464.0166.0015.0332.0024.0493.0024.2544,0,.4717-.1929.4971-.4512l.6611-6.7183,3.6133.2969c.2856.0186.5171-.1826.5396-.4575Zm-5.0513-.9165l-5.2827-.4341,5.98-6.6519-.6973,7.0859Z"/>
          <path class="cls-13" d="m167.8981,25.4592l8.938,5.917c.084.0557.1802.083.2759.083.1138,0,.2275-.0391.3198-.1152.1694-.1411.2266-.377.1406-.5801l-3.0308-7.1519c1.7305-.9692,8.1895-5.0249,9.2891-12.0835.4663-2.9951-.3447-5.7964-2.2837-7.8867-2.4497-2.6416-6.5034-3.8809-11.4087-3.4912-6.8374.5439-14.561,4.8496-17.9653,10.0156-1.9492,2.9575-2.4536,6.0757-1.459,9.0171,2.9717,8.7886,15.3892,6.6377,17.1841,6.2759Zm-14.8901-14.7427c3.2515-4.9331,10.6499-9.0469,17.2095-9.5688,4.5933-.3672,8.3589.7617,10.5962,3.1743,1.7271,1.8613,2.4473,4.3662,2.0288,7.0522-1.1641,7.4751-9.083,11.5254-9.1626,11.5654-.2358.1182-.3398.3994-.2368.6426l2.561,6.0439-7.7285-5.1162c-.0825-.0547-.1787-.083-.2759-.083-.0381,0-.0762.0044-.1138.0132-.1323.0308-13.3247,2.9976-16.2246-5.5771-.9048-2.6763-.4517-5.417,1.3467-8.1465Z"/>
          <path class="cls-13" d="m158.4899,17.7781c.2656.1562.5894.2363.9263.2363.2075,0,.4194-.0303.6265-.0923.4863-.1445.8706-.4707,1.083-.918.2134-.4492.23-.9829.0444-1.4277-.1948-.4678-.5957-.856-1.0713-1.0381-.4419-.1704-.9053-.1504-1.3369.0547-.8125.3867-1.2329,1.2139-1.0459,2.0576.1411.6382.4985.9653.7739,1.1274Z"/>
          <path class="cls-13" d="m166.5368,14.4085c.1318.0308.2666.0454.4009.0454.3594,0,.7158-.1064,1.0029-.3076.415-.2905.7085-.7642.7847-1.2676.0713-.4688-.0459-.9165-.3394-1.2954-.5513-.7104-1.4482-.9448-2.2339-.5811-.5933.2744-.8359.6934-.9351.9966-.1548.4727-.0835,1.0518.1909,1.5488.2456.4438.6465.7495,1.1289.8608Z"/>
          <path class="cls-13" d="m173.362,10.8748c.3555.2246.6826.2949.9526.2949.1499,0,.2827-.022.3926-.0508.4814-.127.9282-.501,1.1963-1.0005.2393-.4473.2788-.9497.1108-1.4155-.1685-.4678-.5361-.8555-.9824-1.0371-.4692-.1914-1.0269-.1812-1.4907.0288-.4326.1948-.7446.5366-.9033.9883-.2983.8491-.0068,1.73.7241,2.1919Z"/>
          <path class="cls-13" d="m132.0744,154.2019l-.6123-2.8975c-.0571-.27-.3188-.4409-.5928-.3857-.27.0571-.4429.3223-.3857.5928l.6123,2.8975c.0498.2354.2573.3965.4888.3965.0342,0,.0688-.0034.104-.0107.27-.0571.4429-.3223.3857-.5928Z"/>
          <path class="cls-13" d="m134.9306,173.3735c.42-.3069.5654-.8456.4182-1.2531-.1569-.4343-.5847-.6837-1.0912-.5956-.5062.088-.8949.6807-.8181,1.2661.1019.7765,1.0087.9352,1.4911.5826Z"/>
          <path class="cls-13" d="m124.6398,46.9041c.0713.0356.1475.0522.2222.0522.1841,0,.3608-.1016.4482-.2773l1.5248-3.0651,3.4014,2.3854c.0874.0615.1875.0908.2866.0908.1577,0,.3125-.0742.4097-.2129.1587-.2261.104-.5381-.1221-.6963l-3.5253-2.4723,1.5682-3.1522c.123-.2471.022-.5474-.2251-.6704-.2476-.123-.5474-.022-.6704.2251l-1.5009,3.0168-3.0582-2.1447c-.2271-.1587-.5381-.1035-.6963.1221-.1587.2261-.104.5381.1221.6963l3.1821,2.2316-1.5923,3.2005c-.123.2471-.022.5474.2251.6704Z"/>
          <path class="cls-13" d="m136.8581,46.9558c.0063.0005.0127.0005.019.0005.2676,0,.4893-.2119.499-.4814l.4814-12.8979c.0083-.2134-.1201-.4082-.3193-.4849-.1987-.0771-.4253-.0181-.5625.144l-3.0801,3.6577c-.1782.2114-.1509.5269.0601.7046.2129.1797.5278.1514.7046-.0601l2.144-2.5459-.4272,11.4453c-.0103.2759.2051.5078.481.5181Z"/>
          <path class="cls-13" d="m114.4777,36.0691c-1.0372-.1388-2.183.0052-3.2903.3786-.0065.002-.0123.0049-.0187.0072-1.0597.36-2.0836.9291-2.9399,1.6728-1.0474.9103-2.2692,2.4481-2.518,4.7333-.0171.063-.022.1292-.0134.1949-.0162.1949-.0396.3846-.0408.5903-.0244,3.9302,3.123,7.3418,7.0161,7.605.189.0127.3774.019.5654.019.5472,0,1.0877-.0574,1.6155-.1618.0071-.0023.0145-.0024.0216-.005,1.4459-.2899,2.7888-.9566,3.856-1.9504,1.3156-1.2242,2.1042-2.7995,2.2676-4.488,0,0,0-.0001,0-.0002.0201-.2078.0347-.4167.0356-.6276.0186-4.5005-2.3711-7.4048-6.5566-7.9683Zm5.5566,7.9644c-.0004.0914-.0109.1813-.0156.2722-1.875,1.2269-3.9614.4386-5.1331-.2206,1.3116-.4328,3.334-1.5215,4.1677-4.1628.8056,1.3716.9858,2.9508.981,4.1112Zm-5.6904-6.9731c1.8272.2459,3.0774.9416,3.9323,1.8357-.595,3.0381-2.8312,4.0325-3.986,4.3386.5592-3.2587-.8399-5.1704-1.8351-6.0857.6519-.1288,1.2967-.1688,1.8889-.0886Zm-5.4595,1.8223c.6967-.605,1.5347-1.0789,2.4037-1.4013.6184.4056,2.5062,1.9432,2.0576,5.2811-1.028-.9625-3.1606-2.2087-6.4865-.6769.3864-1.4919,1.261-2.5387,2.0252-3.2029Zm-2.228,4.7695c.0008-.1235.0175-.2355.0246-.3546,3.4726-1.8989,5.4509-.4276,6.1946.3863-2.9248,1.5132-3.8537,3.5703-4.1486,4.7632-1.2765-1.2217-2.0821-2.9396-2.0707-4.7949Zm6.0835,6.6011c-1.1466-.0773-2.2147-.4756-3.1296-1.0944.085-.6849.5726-2.7394,3.2664-4.3258-.4778,2.4676.362,4.4146.9521,5.4056-.3597.0286-.7225.0399-1.0888.0146Zm5.3101-1.832c-.8743.814-1.9602,1.3808-3.1374,1.657-.46-.6691-1.6453-2.7292-.9837-5.4114,1.097.6884,3.5361,1.8981,5.8856.8917-.2978,1.0668-.8946,2.0529-1.7645,2.8627Z"/>
          <path class="cls-13" d="m51.1437,38.9387c.0464,0,.0933-.0063.1392-.02l16.6455-4.8267c2.0815.9902,21.5327,9.7822,30.0327-2.5918,2.395-3.4873,2.9111-7.9346,1.4531-12.5225-2.3247-7.3164-9.2798-14.0571-17.7188-17.1729-7.0713-2.6094-14.5654-2.3779-20.0479.6191-3.7114,2.0283-6.1982,5.1538-7.0015,8.8008-2.0884,9.4775,4.0908,15.7788,5.8208,17.3247l-9.6743,9.5332c-.1631.1606-.1958.4111-.0801.6089.0913.1558.2573.2471.4312.2471Zm10.4141-10.0601c.103-.1016.1567-.2427.1479-.3872-.0093-.144-.0801-.2778-.1948-.3657-.082-.063-8.1553-6.396-5.8882-16.686.7402-3.3599,3.0503-6.2505,6.5044-8.1382,2.8037-1.5322,6.1675-2.3037,9.7324-2.3037,3.0898,0,6.3311.5796,9.4893,1.7456,8.1606,3.0122,14.8779,9.5034,17.1128,16.5371,1.3818,4.3501.9238,8.3794-1.3247,11.6533-8.4492,12.2983-28.7344,2.2808-28.939,2.1777-.1133-.0571-.2437-.0708-.3638-.0332l-14.9326,4.3301,8.6562-8.5298Z"/>
          <path class="cls-13" d="m84.445,32.0979c-1.1011-.4048-2.0972-1.5229-1.5908-3.4482.0703-.2666-.0894-.54-.3564-.6104-.2627-.0674-.54.0894-.6104.3564-.5576,2.1196.3105,3.9414,2.2124,4.6406.4668.1719.9805.2612,1.5122.2612,1.7495,0,3.6895-.9712,4.7515-3.1841.751-1.5645.8667-2.9893.3433-4.2339-.4019-.957-1.1104-1.6279-1.7476-2.0698l5.6646-1.0571c.1973-.0371.3535-.1885.3965-.3843.043-.1963-.0352-.3989-.1987-.5151l-5.8447-4.1484c-.2251-.1606-.5371-.1064-.6973.1182-.1597.2251-.1069.5376.1182.6973l4.8828,3.4658-5.9106,1.103c-.2231.042-.3896.2285-.4062.4551-.0166.2261.1216.4355.3359.5098.0186.0063,1.8325.6479,2.4883,2.2197.4043.9683.2944,2.1147-.3257,3.4072-1.1299,2.3525-3.4277,3.0015-5.0171,2.417Z"/>
          <path class="cls-13" d="m74.3386,22.5598c-.2515.1143-.3623.4111-.248.6621.084.1846.2656.293.4556.293.0693,0,.1396-.0142.2065-.0449l4.3965-2.0023-.2945,4.6268c-.0176.2754.1919.5132.4673.5308.0107.0005.0215.001.0322.001.2617,0,.4814-.2036.4985-.4683l.3285-5.1602,4.0934-1.8642c.2515-.1143.3623-.4111.248-.6621-.1152-.2515-.4121-.3638-.6621-.248l-3.6073,1.6428.2596-4.0789c.0176-.2754-.1919-.5132-.4673-.5308-.2734-.02-.5132.1919-.5308.4673l-.2936,4.6123-4.8827,2.2236Z"/>
          <path class="cls-13" d="m70.5953,21.4167c.0779-.0133.153-.0321.2162-.0792,1.8745-.6545,3.4063-2.0439,4.4353-4.1429.5541-1.1307.8569-2.4461.883-3.7898.004-.0287.0019-.0565.0009-.0855.0275-2.6312-1.0266-5.36-3.4713-7.027-2.291-1.5635-5.2783-1.8369-7.9893-.7329-.162.0659-.3118.1494-.4681.2236-.0405.0126-.0764.0315-.1126.0538-2.413,1.1851-4.1362,3.3273-4.6468,5.8608-.8325,4.1333,1.7778,8.4531,5.8188,9.6289,1.0376.3022,2.0317.4507,2.9707.4507.836,0,1.6232-.1284,2.3632-.3604Zm-.0711-1.0204c-.6644-.3347-3.0839-1.8633-3.0052-6.1905.8616.4744,2.3729,1.1373,4.1263,1.1373,1.0854,0,2.259-.2633,3.4182-.9785-.1166.8467-.358,1.6613-.715,2.3896-.904,1.8454-2.2094,3.0666-3.8242,3.6421Zm4.6158-7.306c-2.697,2.1317-5.5883,1.0854-6.966.3495,3.7484-1.6283,4.5685-4.202,4.7104-5.681,1.5237,1.4165,2.2278,3.3883,2.2556,5.3315Zm-3.2284-6.0805c.0659.8118-.0176,3.738-4.1785,5.5248.2311-1.5363.2964-4.558-2.2065-6.2123,2.1965-.7399,4.531-.4941,6.3851.6874Zm-7.5499-.1971c2.6847,1.2407,2.6264,4.0964,2.4007,5.5324-2.2661-1.9739-4.7712-1.6923-6.1006-1.3319.6111-1.7861,1.9359-3.284,3.7-4.2005Zm-3.976,5.3317c.7716-.3065,3.3307-1.079,5.6697.918-1.3232.4029-3.6566,1.501-4.5088,4.3029-1-1.5134-1.4621-3.3774-1.1609-5.2209Zm1.9551,6.228c.5461-3.0899,3.015-4.1111,4.1779-4.4164-.1486,3.8742,1.4807,5.8442,2.6609,6.7606-1.1077.1423-2.326.0322-3.6389-.35-1.2495-.3638-2.3383-1.0741-3.1999-1.9942Z"/>
          <path class="cls-13" d="m91.4103,59.7009c-3.1733-2.8989-9.3145-6.1338-20.5576-5.0913-8.1548.7573-15.6089,4.5117-19.4531,9.7988-2.7666,3.8047-3.6636,8.335-2.5938,13.1001,3.5684,15.8955,25.5347,12.623,28.6255,12.0771l6.2021,10.8687c.0903.1582.2578.252.4341.252.0425,0,.0854-.0054.1284-.0166.2188-.0581.3716-.2568.3716-.4834v-12.6865c1.8032-.9722,11.5698-6.7539,11.5962-17.8232.0083-3.5317-1.7686-7.2686-4.7534-9.9956Zm-7.5596,27.0649c-.1729.0835-.2832.2588-.2832.4507v11.1045l-5.4438-9.54c-.0898-.1577-.2573-.252-.4341-.252-.0337,0-.0674.0034-.1016.0103-.2417.0508-24.2017,4.8105-27.8066-11.2495-1.0195-4.541-.2026-8.6768,2.4268-12.2935,3.6802-5.0615,10.8599-8.6597,18.7373-9.3906,10.8774-1.0083,16.7666,2.0713,19.79,4.8335,4.1206,3.7642,4.4312,8.0356,4.4282,9.2554-.0273,11.4971-11.2002,17.0171-11.313,17.0713Z"/>
          <path class="cls-13" d="m90.738,74.552l-8.022,1.5742c-.0298-4.3574,2.1094-6.3018,3.8428-7.877.5894-.5356,1.146-1.042,1.5439-1.5835.8335-1.1362.8999-2.6235.1724-3.8818-.748-1.2939-2.1631-1.9932-3.6855-1.8232-2.6216.2915-3.4351,2.5376-3.4985,3.6846-.0156.2749.1943.5098.4692.5259.2734.0137.5112-.1934.5288-.4683.0063-.1011.1846-2.4785,2.6108-2.748,1.1426-.126,2.1548.3701,2.7095,1.3296.5259.9092.4824,1.9785-.1133,2.7896-.3379.4609-.835.9126-1.4102,1.4351-1.8599,1.6909-4.4077,4.0063-4.1523,9.2461.0073.145.0771.2798.1914.3691.0884.0698.1973.1064.3081.1064.0322,0,.0645-.0029.0962-.0093l8.6011-1.688c.271-.0532.4478-.3159.3945-.5869-.0532-.2715-.3169-.4487-.5869-.3945Z"/>
          <path class="cls-13" d="m76.0801,69.9075l1.6945-3.3096c.126-.2461.0288-.5474-.2168-.6729-.2451-.1265-.5469-.0288-.6729.2168l-1.601,3.127-2.7086-2.1724c-.2158-.1714-.5303-.1377-.7031.0771-.1729.2153-.1382.5303.0771.7031l2.8691,2.3012-1.5508,3.0289c-.126.2461-.0288.5474.2168.6729.0732.0376.1509.0552.2275.0552.1816,0,.3569-.0991.4453-.272l1.4573-2.8464,2.8493,2.2853c.0923.0737.2031.1099.3125.1099.1465,0,.292-.064.3906-.187.1729-.2153.1382-.5303-.0771-.7031l-3.0099-2.4141Z"/>
          <path class="cls-13" d="m60.7438,63.6858c-.355-.3984-.894-.5566-1.4072-.4102-.5132.145-.8901.5615-.9839,1.0864l-3.0835,17.2935c-.0947.5298.0889,1.0601.4902,1.418.2871.2563.6484.3916,1.02.3916.1475,0,.2969-.0215.4438-.0654l14.5747-4.3452c.4565-.1362.8066-.4917.9365-.9502.1299-.458.0181-.9438-.2988-1.2988l-11.6919-13.1196Zm11.0288,14.146c-.0176.0615-.0776.21-.2607.2646l-14.5747,4.3452c-.1816.0552-.3691.0132-.5122-.1143-.1426-.127-.2051-.3081-.1714-.4961l3.0835-17.2935c.0381-.2124.2026-.2808.272-.3003.0693-.0186.2451-.0469.3887.1133l11.6919,13.1201c.127.1421.1001.2998.083.3608Z"/>
          <path class="cls-13" d="m62.175,76.0325c.0469,0,.0947-.0054.1431-.0161.3662-.0815.603-.4507.5508-.8594l-.9292-7.1973c-.0186-.1431-.0981-.2715-.2178-.3516-.1201-.0796-.2676-.104-.4082-.0674l-1.6572.4453c-.1318.0356-.2437.1235-.3091.2437s-.0791.2617-.0371.3921l2.2134,6.9028c.0996.311.3608.5078.6514.5078Z"/>
          <path class="cls-13" d="m63.0915,76.9085c-.395-.0928-.8262.0151-1.1484.2896-.3447.2935-.5146.7266-.4795,1.2202.0444.6226.6182,1.1196,1.3057,1.1318h.0288c.3911,0,.7524-.1436,1.0195-.4058.2554-.251.396-.5815.396-.9312,0-.6226-.4512-1.147-1.1221-1.3047Z"/>
          <path class="cls-13" d="m166.841,90.2112c-.1738-.0957-.3877-.0791-.5454.0415l-5.9941,4.605c-1.1235-.6274-5.1758-2.667-9.7021-2.1875-3.8027.397-5.4771,2.937-6.1367,4.4155-.1128.252.0005.5479.2529.6602.2524.1147.5479-.001.6602-.2529.5718-1.2817,2.0244-3.4834,5.3271-3.8286,4.8735-.5054,9.3311,2.1924,9.3755,2.2197.1768.1079.4023.0972.5669-.0293l5.3555-4.1147-.6616,7.4116c-.0132.1455.0381.2891.1401.3936,5.5767,5.7139,6.2725,10.7612,5.8745,13.9897-.0342.2739.1606.5234.4351.5571.0205.0029.041.0039.0615.0039.249,0,.4644-.1855.4956-.439.4214-3.4136-.2837-8.7134-5.9902-14.6445l.7427-8.3188c.0176-.1978-.0835-.3872-.2573-.4824Z"/>
          <path class="cls-13" d="m99.2204,125.9841c.0786.0454.1646.0669.2495.0669.1729,0,.3408-.0894.4336-.25.1382-.2388.0562-.5449-.1831-.6831-1.4487-.8369-3.252-2.6548-3.6167-6.562-.6665-7.1284,6.3594-13.4199,17.4829-15.6558.1943-.0391.3472-.1895.3896-.3833l2.4795-11.3003,4.2305,10.457c.0732.1812.2456.3032.4409.312.0518.0024,5.2422.2485,9.7061,1.5498.2661.0771.543-.0757.6201-.3398.0771-.2651-.0747-.543-.3398-.6201-3.9868-1.1626-8.3979-1.4976-9.6196-1.5713l-4.7168-11.6597c-.082-.2031-.2827-.3301-.5054-.3105-.2183.0181-.3994.1768-.4463.3911l-2.7563,12.5605c-11.4644,2.3999-18.6709,9.0693-17.9614,16.6631.4048,4.333,2.46,6.3804,4.1128,7.3354Z"/>
          <path class="cls-13" d="m105.3014,138.1023c.1675.0386.3325.0576.4922.0576.3501,0,.6748-.0913.9434-.27.8691-.5781,1.2017-1.3462.9883-2.2842-.1113-.4873-.4551-.896-.9683-1.1514-.6123-.3052-1.3511-.332-1.9282-.0728-.7485.3364-1.043.8374-1.1577,1.1982-.1572.4917-.0845,1.0513.1997,1.5352.2754.4692.8237.8477,1.4307.9873Z"/>
          <path class="cls-13" d="m115.3249,135.9714c.0947.0151.1924.0225.292.0225.5039,0,1.0498-.188,1.4561-.5132.3784-.3027.6016-.6982.6284-1.1133.062-.9678-.3535-1.6636-1.2354-2.0684-.4849-.2222-1.0732-.2002-1.6143.0581-.5674.2715-.9863.7534-1.1216,1.2896-.1763.6987.0166,1.1938.2095,1.4858.291.4404.7959.7461,1.3853.8389Z"/>
          <path class="cls-13" d="m124.5134,134.3303c.1924,0,.3823-.0273.561-.083.7466-.2324,1.0996-.6787,1.2642-1.0117.228-.4619.25-1.0234.0601-1.5405-.1865-.5098-.6509-.9639-1.2119-1.1851-.4912-.1938-.9897-.186-1.4028.0239-.8989.4541-1.3286,1.1626-1.2773,2.106.0273.5059.3086.98.771,1.3013.3662.2544.8076.3892,1.2358.3892Z"/>
          <path class="cls-13" d="m133.3205,120.0515c.0239,0,.0483-.0015.0728-.0054l4.3926-.6417,1.6689,4.1441c.0786.1948.2661.313.4639.313.0625,0,.1255-.0117.187-.0361.2559-.103.3799-.3945.2769-.6509l-1.5782-3.9189,5.0245-.7339c.2734-.0396.4624-.2935.4224-.5669-.0396-.2729-.292-.4658-.5669-.4224l-5.2642.769-1.4667-3.642c-.103-.2568-.3955-.3794-.6509-.2769-.2559.103-.3799.3945-.2769.6509l1.376,3.4168-4.1528.6066c-.2734.0396-.4624.2935-.4224.5669.0361.2485.25.4277.4941.4277Z"/>
          <path class="cls-13" d="m139.6672,111.2576c.189-.2012.1797-.5176-.0215-.707-.1011-.0952-2.4575-2.356-.7163-4.5322.647-.811,1.5557-1.1797,2.5059-1.0112,1.2383.2202,2.2871,1.2769,2.8057,2.8262,1.0967,3.2754,2.3398,6.9883,4.5767,9.0991.0938.0884.2168.1362.3433.1362.0317,0,.0635-.0029.0952-.0093.1582-.0303.2915-.1353.3589-.2817l3.9561-8.5938c.1157-.251.0059-.5479-.2451-.6631-.2524-.1167-.5488-.0063-.6631.2451l-3.6494,7.9277c-1.7607-2.0151-2.8521-5.2744-3.8242-8.1777-.6367-1.9023-1.9746-3.208-3.5791-3.4932-1.3159-.2349-2.5776.2661-3.4619,1.3706-1.8486,2.3115-.2773,4.8608.812,5.8857.2007.1885.5176.1797.707-.0215Z"/>
        </g>
      </g>
    </g>
  </g>
</svg>