<svg xmlns="http://www.w3.org/2000/svg" viewBox="0 0 259.7 170.1"><defs><style>.cls-1{fill:#c8c1db}.cls-2{fill:#f4824e}.cls-4,.cls-5,.cls-7{fill:none;stroke:#3f2b56;stroke-linecap:round;stroke-linejoin:round}.cls-4{stroke-width:.5px}.cls-7{stroke-width:.75px}</style></defs><g id="Layer_2" data-name="Layer 2"><g id="Feedback_Art" data-name="Feedback Art"><path class="cls-1" d="M118.3 36.5v-5.9h1.8l3.7-5.8.3-2.2h2.2v3l-1.3 3h5.5l-.1 7.8-12.1.1z"/><path class="cls-2" d="M130.6 49.4v6.3h-2.7l-3 4.3v3.3l-2.6.1.2-5.7h-2.8l-.3-8.6 11.2.3z"/><path class="cls-1" d="M123.8 76.4V79l-2.8 5.3-3-.2.1 6.5 12-.4.4-8.3-5.4.1 1.4-3.5a12.2 12.2 0 0 0 0-2.1zM40.3 163l2.2 5.4 5-5.3.2-2.2h5l2-3.1h-17l2.6 2.5-11.4 9.8h18v-.8l-14.1.2 7.5-6.5zm-18.7-26.2 24.4-.5 2-20.2-7.4-.2 5.6 4.3zm23-6.2-9.4.3 10.2-8z"/><path class="cls-1" d="M91.6 132s-6.2 6.4-9.5 8.7-23.9 10.2-23.9 10.2l6.6-10.5h-5.2l-6.5 13.8h-3.7l2.4-13.7H40l3.4 13.6-3.1.2-8.1-13.6h-8.8l4 3.8-18.8 1.4-.6-20 13.8-2-.7-2.7-16.8 4L5.8 149l21.1-2.1 3.6 5 2.5-2.3 6.6 6h17s21.7-9 25.2-11c3.9-2.1 13.3-12.6 13.3-12.6z"/><path class="cls-2" d="m66 132.7-15.7-9.4 5.7 9.5zm-6 6.9-8-.4-.2 1.3h7.8l.4-1zm-4.8 22.8.4 5.6-6-7-2 2.1-.6 6.2 15.7-.2-7.5-6.7zm-8.8-51.2a2.9 2.9 0 0 0-2.7 2.2l5.6.2s-.5-2.6-2.9-2.4zM40 139.6l-8.3-.1.7 1.2 7.8-.1-.2-1z"/><path d="m42.6 168.4-2.2-5.4-7.5 6.5 14.1-.2.6-6.2-5 5.3zm2.2-37.8.7-7.7-10.2 8 9.5-.3zm8.3 23.6 6.5-13.8h-7.8l-2.4 13.8h3.7zm-9.6 0-3.4-13.6h-7.8l8 13.7 3.2-.2z" style="fill:#a74f43"/><path class="cls-2" d="M114.4 6.3c2.7-2.5 5.7-.4 6 2.5a3.7 3.7 0 0 1-5.7 3.5c-2.2-1.3-1.6-4.7-.3-6z"/><path class="cls-1" d="M132.2 8.7c.3 3.5-3 4.5-5.3 3a3.5 3.5 0 0 1 .6-6.3c2.3-.8 4.5 1.6 4.7 3.3z"/><path class="cls-4" d="m54.5 155.4 8.6-17.6"/><path class="cls-1" d="m76.6 51.4-.2-4.4L109 36.5l-.4 2-32 12.9zm164.7.5 15 25.6-2.6 4.4-13-27 .6-3z"/><path class="cls-5" d="M107.9 76.3v7.6L91.5 88l-2.1 8.5-15.2 1.3 2.8 17.7 15.6 1.4-.3 10.8h2.6l3.6-14.1-13-2.7-.8-3.4 14.6-2.2-.8-7.3H113l1-2.7h120.6c2.2 0 4.8-.6 4.8-4.5l.1-8.5m0-4.8.7-73.7c0-1.8-.1-3.3-3.2-3.3l-126.6 1a3.8 3.8 0 0 0-3 3.8c-.2 2.4.1 40.4.4 62.7"/><path d="m237 .5-126.6 1a3.8 3.8 0 0 0-3 3.8V17L240 17v-13c0-1.9 0-3.4-3.1-3.4zM119.1 11.8c-2.5.8-4.2-.2-4.9-2a3.5 3.5 0 0 1 1.2-3.9 3.8 3.8 0 0 1 5.7 1.6 3.5 3.5 0 0 1-2 4.3zm12.9-.9a3.6 3.6 0 0 1-5.9-1.5 3.2 3.2 0 0 1 1.9-3.8 3.4 3.4 0 0 1 4.6 1.8 3.6 3.6 0 0 1-.6 3.5zm11.7.4c-1.8 1-4.7.6-5.2-2.2a3.5 3.5 0 0 1 2.2-3.8c2.4-.9 4.5.6 4.5 3.2a3 3 0 0 1-1.5 2.8z" fill="#3f2b56"/><path class="cls-4" d="m116.2 10 3.3-3m-3 0 2.6 3m8.7-1.4h3.5m10.6-2V10m-2-1.8h4"/><path class="cls-7" d="M119.1 36v-6.4h2.1l1.8-3.2 1.6-1.7V22h2.6v3.2l-.8 2.4h5v7.1h-.8v1l-11.5.3z"/><path class="cls-7" d="M130.7 34.6h-4l.1-2 4.6-.3m0-2h-5.1v2.3h.5m-.8-2.3v-2l5.4-.7m-12.3 62v-6.3h2.1L123 80l1.6-1.7v-2.8h2.6v3.2l-.8 2.4h5v7h-.8v1.1l-11.5.3z"/><path class="cls-7" d="M130.7 88.3h-4l.1-2 4.6-.3m0-2h-5.1v2.3h.5m-.8-2.4v-2l5.4-.7m0-32.7v6.3h-2.1l-1.8 3.2-1.6 1.7v2.7h-2.6v-3.1l.8-2.5h-5v-7h.7v-1l11.6-.3z"/><path class="cls-7" d="M119.8 49.8h4l-.1 2-4.6.3m0 2h5.1v-2.3h-.5m.8 2.3v2l-5.4.7"/><path class="cls-4" d="M119 42.5h108M119.5 70.4H225m-47 8.5h19.8m-57.3 0h33m-10.9-30h48.3m-71 0h16.6m-16.3 7.3H186m-3-32.6h22.5m-65.2 0h36.3m25.2 6.9h11m-48.6 0h33.5m-57.3 0h17.4m-17.2 6.3H177"/><path class="cls-5" d="m239.8 50.6 14.9 29.8-32.8-6.4-16.9 1.8V77l7-.4-7.6 2.2.6 1.4 7.9-1.5m39.3-10.7-12.4-20.4"/><path class="cls-5" d="m206 80 .5 1.5 10-1.1-4 2.9.6 1.1 6.6-2 2.2-2.3 36.4 4.6.9-5-5.6-9.3M212 76.7l1.4 2.6m3.1 1-.1-2.3m-109-40.3-38 14.1L100 63.5m2.1.6 10.6 7.1v1.5l-6.3-2.3 6.7 5.2-.6 1.2-7.3-4.5 1.7-3"/><path class="cls-5" d="m111.4 76.2-1 1.3-9.1-4.5 3.2 5-1.2 1.2-5.5-6v-4.4L62 52l-.6-2 46-13.8M101.3 73l1.1-3.3m-29.3 68 8.3-1c2-.6 9.6-7.1 9.6-7.1h4.5a96 96 0 0 1-11.8 11.8c-6.1 4.9-28.4 14-28.4 14H41.6L23 137.8l25-17.5L66 134.2m2.3 1.7 2.6 2m-5.9 5.7-1.9 1.8"/><path class="cls-5" d="M23 137.8h47.9l-4.1 4"/><path class="cls-7" d="M31.8 131.6h30.9"/><path class="cls-5" d="m42 160-10.2 8.8H65L54.5 160m-12.9-4.6-2.4 2.3 2.9 2.3h12.4l2.8-2.2-2-2.4"/><path class="cls-4" d="m41.4 137.8 3.6 17.6m9-17.6-3.6 17.6m-18.6-17.6 9.8 17.6m.5 4.6-.9 8.8 7-8.8 7 8.8-.7-8.8"/><path class="cls-5" d="m47.8 120.3-6.4-6 13.1.4-6.7 5.6zM44.6 114.2a4 4 0 0 1 3.4-2.5c2.5-.1 3.3 2.9 3.3 2.9"/><path class="cls-4" d="m42.9 131.6 5-11.3 5 11.3"/><path class="cls-5" d="m27.6 134.5-4-12.3-13.5 3.1.2 17.9c0 .7.2.9.7 1s17.7-.9 17.7-.9"/><path class="cls-5" d="m33.3 147.6-2.4 2.6-3.8-4.8-17.4 2.4c-2 .3-2.5-.8-2.7-2s-1.3-20.2-1.3-21.2.2-1.7 1.2-2 18-3.6 19-3.7 1.3.2 1.5 1.1l1.6 10.2m177.2 38.6h7.3m-28.1 0h17.4m-202.3 0h179.8"/></g></g></svg>
