<svg xmlns="http://www.w3.org/2000/svg" viewBox="0 0 259.71 170.1"><defs><style>.cls-1{fill:#c8c1db}.cls-2{fill:#f4824e}.cls-3{fill:#a74f43}.cls-4,.cls-5,.cls-7{fill:none;stroke:#3f2b56;stroke-linecap:round;stroke-linejoin:round}.cls-4{stroke-width:.5px}.cls-7{stroke-width:.75px}</style></defs><g id="Layer_2" data-name="Layer 2"><g id="Feedback_Art" data-name="Feedback Art"><path class="cls-1" d="M118.27 36.54v-5.91l1.82-.06 3.72-5.8.31-2.19h2.2l.06 2.99-1.35 3.04 5.49-.06-.12 7.87-12.13.12z"/><path class="cls-2" d="M130.59 49.44v6.22h-2.66l-3.02 4.3v3.39l-2.65.09.27-5.77h-2.83l-.28-8.59 11.17.36z"/><path class="cls-1" d="M123.75 76.37l.07 2.62L121 84.3l-3-.19.12 6.47 12-.37.36-8.35-5.36.18s1.22-3 1.34-3.54a12.15 12.15 0 000-2.13zM40.36 162.97l2.22 5.43 5.01-5.28.21-2.26h4.93l2.11-3.11H37.82l2.56 2.57-11.34 9.78h17.93l.07-.76-14.16.2 7.48-6.57zM21.72 136.81l24.34-.55 2.1-20.13-7.5-.27 5.67 4.39zm23.06-6.23l-9.43.28 10.16-8z"/><path class="cls-1" d="M91.61 132s-6.22 6.4-9.51 8.69-23.88 10.24-23.88 10.24l6.59-10.52h-5.17l-6.54 13.78h-3.66l2.34-13.7-11.65.1 3.37 13.55-3.11.14-8.1-13.62-8.83.08 4.05 3.72-18.78 1.4-.64-19.94 13.82-2.1-.74-2.66-16.74 4.12L5.81 149l21.13-2.1 3.57 4.94 2.5-2.28 6.55 6h17.11s21.64-9.05 25.16-11C85.67 142.48 95.09 132 95.09 132z"/><path class="cls-2" d="M66 132.69l-15.73-9.42c-.1.09 5.76 9.51 5.76 9.51zM60.05 139.55l-8.05-.37-.22 1.31 7.86-.07.41-.87zM55.2 162.36l.37 5.67-5.94-7.04-2.04 2.13-.55 6.22 15.67-.21-7.51-6.77zM46.42 111.19a2.86 2.86 0 00-2.74 2.2l5.67.18s-.55-2.57-2.93-2.38zM39.88 139.59l-8.28-.09.69 1.16 7.84-.07-.25-1z"/><path class="cls-3" d="M42.58 168.4l-2.22-5.43-7.48 6.57 14.16-.2.55-6.22-5.01 5.28zM44.78 130.59l.73-7.69-10.16 7.96 9.43-.27zM53.1 154.19l6.54-13.77-7.86.07-2.34 13.7h3.66zM43.5 154.14l-3.37-13.55-7.84.07 8.09 13.62 3.12-.14z"/><path class="cls-2" d="M114.42 6.35c2.69-2.5 5.68-.41 6 2.44a3.72 3.72 0 01-5.67 3.54c-2.22-1.33-1.64-4.76-.33-5.98z"/><path class="cls-1" d="M132.17 8.74c.3 3.46-3 4.48-5.31 3a3.53 3.53 0 01.67-6.31c2.32-.79 4.47 1.57 4.64 3.31z"/><path class="cls-4" d="M54.53 155.41l8.6-17.57"/><path class="cls-1" d="M76.61 51.36l-.18-4.39L109 36.54l-.37 2.02-32.02 12.8zM241.28 51.91l15 25.62-2.56 4.39-12.99-27.08.55-2.93z"/><path class="cls-5" d="M107.87 76.3c.06 4.71.09 7.63.09 7.63L91.37 88l-2.07 8.49-15.25 1.34 2.81 17.69 15.61 1.34-.25 10.86h2.57l3.65-14.15-13-2.68-.85-3.42 14.64-2.19-.79-7.28H113l1-2.69h120.57c2.19 0 4.88-.61 4.88-4.51 0-.69 0-3.8.06-8.47M239.55 77.46c.2-24.09.63-72.26.63-73.67C240.18 2 240.06.5 237 .5s-126.61 1-126.61 1a3.77 3.77 0 00-3.05 3.78c-.17 2.4.2 40.44.43 62.73"/><path d="M237 .5c-3 0-126.61 1-126.61 1a3.77 3.77 0 00-3.05 3.78c-.06.78-.06 5.31 0 11.83l132.74-.24c.06-7.52.11-12.61.11-13.06C240.18 2 240.06.5 237 .5zM119.12 11.77c-2.55.86-4.27-.13-4.88-2a3.5 3.5 0 011.13-3.87 3.75 3.75 0 015.76 1.6 3.5 3.5 0 01-2.01 4.27zm12.88-.84a3.56 3.56 0 01-5.9-1.49 3.16 3.16 0 011.9-3.85 3.39 3.39 0 014.6 1.79 3.59 3.59 0 01-.6 3.55zm11.73.39c-1.88 1-4.73.59-5.25-2.24a3.45 3.45 0 012.21-3.82c2.44-.86 4.47.61 4.54 3.23a3 3 0 01-1.51 2.83z" fill="#3f2b56"/><path class="cls-4" d="M116.22 9.92l3.26-2.83M116.44 7.03l2.62 2.98M127.78 8.61h3.48M141.87 6.66v3.29M139.85 8.25h3.97"/><path class="cls-7" d="M119.12 35.93l.03-6.34h2.07l1.8-3.17 1.59-1.71v-2.77h2.62v3.17l-.88 2.44h5.03v7.07h-.73v1.01l-11.53.3z"/><path class="cls-7" d="M130.65 34.62l-3.9-.06.06-2.01 4.57-.21M131.38 30.26h-5.1l.04 2.32.49-.03M126.04 30.26v-2.04l5.34-.67M119.12 89.6l.03-6.34h2.07l1.8-3.17 1.59-1.71v-2.77h2.62v3.17l-.88 2.44h5.03v7.07h-.73v1.01l-11.53.3z"/><path class="cls-7" d="M130.65 88.29l-3.9-.06.06-2.01 4.57-.22M131.38 83.93h-5.1l.04 2.32.49-.03M126.04 83.93v-2.04l5.34-.67M131.38 48.46l-.03 6.34h-2.08l-1.8 3.17-1.58 1.71v2.77h-2.62v-3.17l.88-2.44h-5.03v-7.07h.73v-1.01l11.53-.3z"/><path class="cls-7" d="M119.85 49.77l3.9.06-.06 2.01-4.57.21M119.12 54.13h5.09l-.03-2.32-.49.03M124.45 54.13v2.04l-5.33.67"/><path class="cls-4" d="M119.06 42.46H227M119.48 70.39h105.57M177.97 78.93h19.88M140.53 78.93h32.93M162.6 48.82h48.3M139.85 48.82h16.65M140.16 56.24h45.86M183.09 23.55h22.45M140.28 23.55h36.35M201.76 30.48h11.1M164.19 30.48h33.54M140.4 30.48h17.45M140.65 36.82H177"/><path class="cls-5" d="M239.8 50.63l14.89 29.76-32.81-6.34-16.83 1.71v1.34l6.95-.37-7.56 2.2.61 1.34 7.81-1.46M252.16 68.06L239.8 47.7"/><path class="cls-5" d="M206.09 80.08l.42 1.47 10.02-1.16-4.07 2.9.59 1.14 6.64-1.96 2.19-2.39 36.47 4.58.85-5-5.62-9.27M212 76.73l1.37 2.53M216.53 80.39l-.18-2.39M107.49 37.73L69.48 51.81l30.46 11.72M102.04 64.11l10.52 7.1v1.47l-6.22-2.29 6.68 5.22-.64 1.18-7.32-4.48 1.74-2.93"/><path class="cls-5" d="M111.42 76.21l-1.1 1.32-9.05-4.53 3.24 5.03-1.19 1.14-5.53-5.99v-4.39L62.07 52.05l-.55-2.06 45.95-13.81M101.27 73l1.14-3.34M73.13 137.64c2.67-.25 6.93-.69 8.24-1 1.95-.49 9.63-7.07 9.63-7.07h4.52a96.06 96.06 0 01-11.83 11.83c-6.1 4.88-28.42 14-28.42 14H41.61l-18.67-17.56 24.89-17.56L66 134.15M68.31 135.89l2.57 1.95M65 143.58l-1.87 1.82"/><path class="cls-5" d="M22.94 137.84h47.94l-4.12 4.03"/><path class="cls-7" d="M31.78 131.6h30.91"/><path class="cls-5" d="M42.09 160.04l-10.31 8.78h33.18l-10.43-8.78M41.6 155.41l-2.4 2.31 2.89 2.32h12.44l2.81-2.19-2.07-2.44"/><path class="cls-4" d="M41.42 137.84l3.6 17.57M54.05 137.84l-3.6 17.57M31.78 137.84l9.83 17.57M42.09 160.04l-.85 8.78 7.03-8.78 6.87 8.78-.61-8.78"/><path class="cls-5" d="M47.83 120.28l-6.41-6.07 13.11.5-6.7 5.57z"/><path class="cls-5" d="M44.59 114.21a4 4 0 013.41-2.52c2.51-.09 3.33 2.9 3.33 2.9"/><path class="cls-4" d="M42.89 131.6l4.94-11.32 5.06 11.32"/><path class="cls-5" d="M27.64 134.53l-4.09-12.3-13.48 3.11s.25 17.2.25 17.81.18.91.73 1 17.67-.84 17.67-.84"/><path class="cls-5" d="M33.34 147.63l-2.41 2.59-3.84-4.82-17.44 2.41c-1.95.28-2.44-.76-2.69-2s-1.28-20.19-1.28-21.16.19-1.77 1.22-2.14 18.06-3.47 19-3.65 1.34.24 1.53 1.15L29 130.22M206.22 168.82h7.28M185.37 168.82h17.44M.5 168.82h179.79"/></g></g></svg>