<svg xmlns="http://www.w3.org/2000/svg" viewBox="0 0 278 185.5"><defs><style>.cls-2,.cls-3,.cls-4{stroke:#3f2b56;stroke-linecap:round;stroke-linejoin:round}.cls-5{fill:#e1557a}.cls-2,.cls-6{fill:#ebb432}.cls-3{fill:none}.cls-7,.cls-8{mix-blend-mode:multiply}.cls-10,.cls-11,.cls-12,.cls-13,.cls-14,.cls-15,.cls-5,.cls-6,.cls-7,.cls-8{stroke-width:0}.cls-11,.cls-4,.cls-7{fill:#f58452}.cls-8{fill:#786ece}.cls-10{fill:#f6f6f8}.cls-12{fill:#5e468c}.cls-13{fill:#3f2b56}.cls-14{fill:#ad6caa}.cls-15{fill:#b39ed3}</style></defs><g style="isolation:isolate"><g id="grouped"><path style="fill:#f7b2b2;stroke-width:0" d="m248.2 10.5 29.8 174H0L35.4 26.1l212.8-15.6z"/><path class="cls-11" d="M176.2 133.2s-17.1 6-48.8 9.1c0 0-16.9 2-29.4 1 0 0-.2 2.1.5 3s7.3.9 7.3.9l16.7 18.4c.4.5 1 .8 1.7.8 2 0 6.7 0 11.2-1 6-1.4 37-15.2 37-15.2l1-12.7s2.5-.8 2.8-1.3 0-3 0-3Z"/><path class="cls-10" d="M177.7 39.6c-12-4.6-23-3.6-30.7.4l-.2-1.4c-2-8.8-14.4-10.6-22.7-10-7.1.6-22.8 6.2-21.3 17.6s20 9.9 20 9.9l3.1 10.3 2-10.8s4.2-.9 8.6-3c-1.4 7.4 2.8 16.4 12.9 20.5l-5.9 12 13-10.2s13.6 3.4 25.4-2.8c13.2-7 13.1-25.8-4.2-32.5Z"/><path class="cls-15" d="M118.2 174.8s-1.7-7.2 2.8-11.8 11-3.5 14.3-.9c4.5 3.6 6 10 5.8 13.2-.2 3-1.1 7.4-4.2 9.2h-10.7s-5.6-1-8-9.7Z"/><path class="cls-13" d="m144.6 162-1.1 12.3-2.4.8v.2c0 .9-.2 1.9-.4 3l3.8-1.7c.4-.2.7-.6.7-1l1.2-14.3-1.8.7Z"/><path class="cls-11" d="M128.3 163.2c6.3-2.4 9.7 5 10.2 8s.3 8.8-4.1 10c-2.4.7-7.3-.5-9.1-6.6-1.5-4.8-.3-10.2 3-11.4Z"/><path class="cls-4" d="M214.9 91.6s5.4-7.9 7.2-7.7 4.1 12.2 4.1 12.2c-4.6-.8-8.7-2-12.3-3.2l1-1.3Z"/><path class="cls-6" d="M140.8 60.5c-.6.7-.2 1.8.7 2l15.8 2.7c1.3.2 2.4-1 2.1-2.2l-4.7-18.8a1 1 0 0 0-1.6-.3l-12.3 16.6Z"/><path class="cls-3" d="m162.6 60 6.3-6.5M162.6 53.2l5.4 7.7M183.3 57.3l-10.8-.9 7.6-8.5-1.6 16.3"/><path class="cls-10" d="m177.1 31-9.1-6s-13.7 3.1-16.8-6 9.5-17.6 19-18.4c9.6-.7 14 4.8 13.1 10.9-1.2 7.8-9.4 11.9-9.4 11.9l3.2 7.6Z"/><path class="cls-11" d="m200 135.6-73.3 38.7-1.2.3a84.2 84.2 0 0 1-16.2-.1s0 2.2 1.7 4c0 0 8.4.4 16 0l1.2-.4 72.9-37.6v-.6c.3-1 1.7-2 1.7-2v-3c-.7.7-2.2 1-2.9.7l-.2-.1"/><path class="cls-13" d="m116 158.5 2.3 9.7 1-2.8-.7-4-2.6-3Z"/><path class="cls-11" d="m143.5 170.2.5 1.6c0 .2.3.3.5.2l2.7-1 3 8.8c.2.4.7.6 1.1.5l10.5-2.9c.4-.1.8-.5.8-1l.6-13 2.6-1.4c.3-.1.5-.5.5-.8v-2.7l-7 3.6.9 13-7.7 2.6-3.3-10.4-5.7 3Z"/><path class="cls-3" d="M185.5 184.5h-10.8M124.9 46.5l3.5-7.2M123.1 40.4l7.4 5.2M134.3 37.2l3.1-3.6-.5 12.9"/><path class="cls-10" d="M177.8 121.7a10.5 10.5 0 0 0-6.8-5.1s4.1-7.9-5.2-17.4l.8-8.6-6.3 4.9s-4.5-2.9-9.6-2.3a6.8 6.8 0 0 0-5.8 4s-.4 1-.5 2.2c-3.9.2-7.7 2-11 4.5-5-2-12.3-2.4-12.3-2.4l-4.8-12-2.8 13c-11.1 2.1-18.6 8.6-17.9 16.1s6.5 7.8 6.5 7.8c-3.6 2.5-6 5.6-6.4 9-.5 4 2.3 6.5 2.3 6.5l1 .8 1.4.7c12.2.6 27-1 27-1 11.1-1.2 20.5-2.7 27.9-4l10 5.2-3.7-6.6c9.6-2 14.6-3.8 14.6-3.8s5-5.2 1.6-11.5Z"/><path class="cls-6" d="M113.6 43.9c-4.5 2-4.5 5.5-4.5 5.5a7 7 0 0 0 5.6 1.2s-2.4-2.9-1-6.7Z"/><path class="cls-15" d="M113.6 43.9s3.8 3 6.9.7V44c0-2-.5-3.8-1.7-5.2-.8 4.7-5.2 5-5.2 5Z"/><path class="cls-5" d="M113.6 43.9c1.3-5-2.2-7-2.3-7-2.4.9-4.8 3-5.1 6 5.1-2.9 7.4 1 7.4 1Z"/><path class="cls-14" d="M113.6 43.9s4.4-.4 5.2-5.1c-1-1.2-2.4-2-4.4-2.2-1-.2-2 0-3 .3 0 0 3.5 2 2.2 7Z"/><path class="cls-8" d="M120.5 44.6c-3.1 2.3-6.9-.7-6.9-.7a7.2 7.2 0 0 0 1.1 6.7 7 7 0 0 0 5.8-6Z"/><path class="cls-7" d="M113.6 43.9s-2.3-3.9-7.4-1v.7c0 2.4 1.1 4.5 2.9 5.8 0 0 0-3.5 4.5-5.5Z"/><path class="cls-10" d="M51.1 38.4 68 33.6S88.8 44 97.5 31.2c6.5-9.3-2-23.7-16-29-12.6-4.6-24.4.4-26.4 9.1-2.3 10.8 6.1 17.2 6.1 17.2l-10 10Z"/><path class="cls-3" d="m88.7 18.1 5.8 4.2-7 1.3s4.7 1.6 2.4 6.3-8.8 3.3-7.5-1.4M80 15.8l-.6 10.3M84.1 18.7 74.5 23"/><path class="cls-8" d="M67 13.3c-3.1-3.5-7-1.5-7-1.5-.6 2.5.2 5 1.8 6.7.7-4.6 5.3-5.2 5.3-5.2Z"/><path class="cls-14" d="M67 13.3c-.5 6.1 3.5 7.6 3.5 7.6 2-.6 3.4-2 4.3-4 .5-1 .8-2.3.8-3.6-4 3.4-8.5 0-8.5 0Z"/><path class="cls-7" d="M67 13.3c6.2-2.1 5.4-6.6 5.4-6.6a8 8 0 0 0-8-.4c4.3 1.7 2.7 7 2.7 7Z"/><path class="cls-5" d="M72.4 6.7s.8 4.5-5.3 6.6c0 0 4.5 3.4 8.5 0 0-2.4-1-5-3.2-6.6Z"/><path class="cls-15" d="M67 13.3s-4.5.6-5.2 5.2c1 1.1 2.2 2 3.6 2.3 2 .6 3.7.6 5.1.1 0 0-4-1.5-3.4-7.6Z"/><path class="cls-6" d="M67 13.3s1.7-5.3-2.6-7a8 8 0 0 0-4.5 5.5s4-2 7.2 1.5Z"/><path class="cls-10" d="M77.7 89S53 94.1 49.3 77.4c-3-13 9.4-21.2 21.6-22.3 19-1.8 24.8 8.7 24.8 14.6 0 12-11.6 17.5-11.6 17.5v13L77.7 89Z"/><path class="cls-3" d="M81.6 64.7s.2-3 3-3.2 4.6 2.8 3.1 4.9-5.8 3.7-5.5 10.3l8.6-1.7M73.7 73.4l3.6-7M72.3 67.5l6.5 5.2"/><path class="cls-6" d="m58.8 64.4-3 17.3A1 1 0 0 0 57 83l14.6-4.3c.6-.2.8-1 .4-1.5l-11.7-13a.9.9 0 0 0-1.6.3Z"/><path class="cls-3" d="M158.2 105.7c1.7 0 5.3.6 7.6 3.6 3.5 4.8 1.4 9.8 1.4 9.8M108 120.6l-5.1.7 2.6-5.1s-3.8 0-4.1-3.6 5-5.8 8-2.9M111.8 112.3l6.5 6.6M113.4 118.4l3.8-6.1M139.3 111s-2.8-2.7-.8-5.3c1.8-2.2 5-1.4 6.2 2 1.2 3.5 2.4 6.9 4.5 8.9l4-8.6"/><path class="cls-11" d="m131 151.4 3.9 18.6-2.1 1.1-4.5-20.9 2.7 1.2z"/><path class="cls-13" d="m118 169.5-8.5 4.4c-.2.2-.2.4-.2.6 0 0 .3.4 4.6.5l4-1.6.1-3.9ZM197.1 129.8l-8.8 5.2c-1.4.8-2.3-.5-2.3-.5l-13 6.7-.4 6 16.1-7.7s-.2-1.7.8-2.3l9-4.5s.2-2-1.4-3Z"/><path class="cls-15" d="M247.3 176.5a170.3 170.3 0 0 1-17.2-21.3c-1-4.9-3-23.5-3-23.5l14.4-3c2.8-.7 2.7-3 1.6-4.5-.7-.9-6-7-10.9-14.8a62.7 62.7 0 0 1-6.6-13.4c-4-.8-7.8-1.8-11-2.8-3 3.7-5.8 7.4-8.3 11 0 0 .6.8 1.3 2.8l-3.7.4-1.4 2s-14.6-7.1-15.3-9.2c-.7-2-5.4-22.5-5.4-22.5s2.2-3.4 2.4-4.7c.2-1.3-4.8-7-6.1-6.6s2 6.6 2 6.6a33 33 0 0 1-7.9 2.3l.3 1.2s4.7 17.4 10.3 27c.6 1 1.4 1.7 2.5 2.1 3.3 1.3 11.4 4.4 15.9 5.7l-3.7 5.3s.5.9 1 2.5h-2.7c-2.3 3.5-3.8 6-4 6.6-.4 1.7 1.3 1.9 2.1 2l7.8 1.2 2.6-.7v1.3l.7-.3-3.1 1.5c-.9.5-2.1 1.4-2.4 2.7s-.3 1.9.4 2.2c.7.4 2.2 0 2.8-.7v3s-1.3 1-1.5 2c-.3 1 0 1.4 1 1.5-9 12.2-19.5 32-19.5 32s-7.9-4.9-10-3.5c-2 1.5 5.4 10 8.8 12.7 1.6 1.2 2.8 1.8 3.6 1.8a3 3 0 0 0 1.4-.4c.4-.2.5-.7.5-.7s8.3-22 19.3-43.1c.4 0 .8-.1 1-.3l.9-1.4s2 0 2.4-.5 1.6-5.5 1.6-5.5l2.9-.7 5.7 1h1.4l3-.7s-1 22.3.6 26 11.7 20.2 11.7 20.2-8.4 4-8.3 5.5c.2 1.5 9.5 1.3 12 .7 1.8-.5 5.2-3.2 6.1-4.4s1.4-2 0-3.6Z"/><path class="cls-3" d="m204 107.4 3.6-.4"/><path class="cls-12" d="M198.5 119c.5 1.5 1 3.7.9 6.4l-4-.7 2-3-1.6-2.6h2.7Z"/><path class="cls-3" d="m204.3 128.2-2.6.7"/><path class="cls-12" d="M219.1 125.4c-2.5-15-2-30-2-30s-3.2 5-6.4 8.8c0 0 3.7 7.6 4.2 22l4.2-.8ZM204 107.4s3.3 8.3 3.6 20.6l2.8-1 1-.2c-.5-10.1-2.4-16.4-3.7-19.7l-3.8.3ZM204.3 128.2a65.4 65.4 0 0 0-1.7-12.8l-1.7 2.6s1.2 3.6.8 11l2.6-.8ZM173.1 172.8c1.7 3.1 6 7.8 8.4 9.8 3.4 2.7 5.2 2.1 3.8 0s-5.2-6.8-10.6-10.7c0 0-1.2-1-1.9-.8s.3 1.7.3 1.7Z"/><path class="cls-4" d="M139 130c0 3-1.7 6.5-6 7.4a11.5 11.5 0 0 0 .2-8.4 10 10 0 0 0-4.7-5.5l.2-.1a7.5 7.5 0 0 1 9.8 4.1c.3.7.5 1.6.5 2.5Z"/><path class="cls-2" d="M133.3 129.4v-.4a10 10 0 0 0-4.8-5.5l.2-.1c1.5-.6 2.9-.7 4-.5.2.2 1.6 2.2.6 6.5Z"/><path d="M139 130c0 3-1.7 6.5-6 7.4.6-1.4 1-3 .9-5h0c4.3-1.5 4.6-5 4.6-5h0c.3.8.5 1.7.5 2.6Z" style="fill:#e1557a;stroke:#3f2b56;stroke-linecap:round;stroke-linejoin:round"/><path class="cls-2" d="M123.4 117.5c1.2-2.9 3-6.8 5.7-9.8h0l-9.6.2c-.9 0-1.4 1-1 1.8l5 7.8h0Z"/><path class="cls-13" d="M220.9 92.6c.2 0 .4-.2.5-.5l.6-5c0-.2-.2-.5-.4-.5-.3 0-.6.2-.6.4l-.6 5a.5.5 0 0 0 .5.6Z"/><path class="cls-13" d="M247.7 176.2a165.3 165.3 0 0 1-17.1-21.2c-.9-3.8-2.3-16.7-2.8-21.5l-.1-1.4 14-3c1.6-.3 2.2-1.2 2.4-1.9.4-1 .1-2.2-.6-3.3l-.8-1c-1.8-2.3-6-7.5-10-13.8a73.6 73.6 0 0 1-5.3-10 .5.5 0 0 0-1 .4c1 2.3 2.8 6 5.4 10.1 4 6.4 8.3 11.7 10 13.9l.9 1c.5.8.7 1.7.5 2.4-.2.6-.9 1-1.8 1.3l-16 3.3-.2.1-3 .6h-1.3l-3.3-.5 19.6-4.9c1.3-.4 2.2-1.1 2.5-2 .2-.8 0-1.7-.5-2.5a90.6 90.6 0 0 0-14.4-10.2.5.5 0 1 0-.5.9c3.5 2 12.7 7.9 14 9.8.4.4.6 1 .4 1.7-.2.6-.8 1-1.8 1.4L212 132c-.2 0-.3.2-.4.4a59 59 0 0 1-1.6 5.3c-.1.1-1 .3-2 .3l-.3.3-1 1.2c-.1.2-1 .2-1.8.1-.2 0-.4 0-.5.2-.4.6-1.6 1.2-2.3 1.1l-.6-.2v-.7l.4-.7 1-1c.2-.1.3-.3.3-.4v-3a.5.5 0 0 0-1-.3l-.2.2c-.6.4-1.6.6-2 .4l-.1-.1c-.2-.1-.2-.4 0-1.6.2-.9.9-1.7 2.1-2.4l2.3-1.1 3.5-1.5 2.6-1 8.7-1.6 8.2-1.4 3-.5 3.5-.6a.5.5 0 0 0 .2-.9l-8.5-8h-.1v-.1h-.4l-.2.1-.1.2a.5.5 0 0 0 0 .2l2 8.7-4 .7a100 100 0 0 1-2-26c0-.4-.2-.6-.5-.6s-.5.2-.5.5a118.1 118.1 0 0 0 2 26.2l-2.3.4c-2.1-13.2-2-26.4-2-28.9 4.7.5 7.7.6 8 .6H226.7v-.1l.1-.2V96c-.7-3.8-2.5-12.5-4.5-12.6-2-.2-6.4 6-7.7 7.9a.5.5 0 1 0 .8.6c2.5-3.7 5.9-7.6 6.8-7.5.8.2 2.4 5.2 3.5 11h-.1a85.2 85.2 0 0 1-5.5-1.2l-2.1-.6h-.4a87 87 0 0 1-2.2-.7h-.2l-.5-.2-.6-.2-.5-.2-.6-.2-.4-.2-.6-.2-.5-.1-.5-.3-.5-.1-.5-.2-.4-.2-.5-.2-.4-.1-.5-.2-.4-.2-.5-.2-.3-.1-.5-.2-.3-.2-.4-.2h-.3l-.4-.3-.3-.1-.4-.2-.2-.1-.4-.2h-.2l-.4-.3h-.2l-.3-.2h-.2l-.3-.2v-.1l-.4-.2a44.3 44.3 0 0 1-.9-.5 21.5 21.5 0 0 1-.3-.1.5.5 0 0 0-.5.8s5.4 3.1 13.7 6l-.8 1a457 457 0 0 0-7 9.4c-.2.1-.2.4 0 .5l1 2.1-3 .4h-.2l-.2.2-1.1 1.6-1-.5c-6.7-3.3-13.4-7-13.7-8.2-.7-1.9-4.8-20-5.3-22.2.5-.8 2-3.5 2.3-4.7 0-.4-.2-1-.6-1.7 5.4-3.7 8.3-9.8 7.6-16-.7-7.2-6-13.2-13.8-16.2a39 39 0 0 0-30.1-.1 20.6 20.6 0 0 0-11.3 11.5l-.4 1.7c-4.3 2-8.2 2.8-8.3 2.8-.2 0-.3.2-.4.4l-1.6 8.8-2.5-8.4c0-.2-.3-.4-.5-.3-.2 0-18 1.3-19.5-9.5-.4-3 .4-5.7 2.4-8.2 4.6-5.7 13.7-8.4 18.4-8.8 6.6-.5 18.7.6 21.7 8 .1.3.4.4.7.3.2-.1.3-.4.2-.7-3-7.4-14.1-9.2-22.7-8.5-4.8.3-14.3 3.2-19 9-2.3 2.7-3.1 5.8-2.7 9 .7 5 4.5 8.2 11 9.7 4 .8 8 .7 9.2.7l3 10c0 .1.2.3.4.3.3 0 .5-.2.5-.4l2-10.5c1-.2 4-1 7.5-2.5-1 7.2 3.2 15.8 12.8 19.9l-5.6 11.5a.5.5 0 0 0 .7.6l12.8-10a44 44 0 0 0 17.5 0l4.5-.5c.1 0 .2 0 .3-.2l1.6-1.5.1-.1v-.4a17.2 17.2 0 0 1-2.3-6c.1 0 .8.3 2.1 1.6 2 2 3.4 4 3.3 4.5-.2 1-1.7 3.6-2.3 4.5v.4c.1.8 4.6 20.5 5.3 22.6.6 1.8 9.4 6.3 13.7 8.4l-.9 1.4c-4.6-1.4-11.2-4-14-5-1-.4-1.7-1-2.2-2a134 134 0 0 1-10-25.7.5.5 0 0 0-1 .2c1.1 4 5.3 17.9 10.1 26 .6 1.1 1.6 2 2.7 2.4 3 1.1 9.9 3.7 14.5 5.2l.8.3-3.4 4.8v.5s.4.6.8 1.7h-2.2l-.1.2a49.9 49.9 0 0 0-4.1 6.7c-.2.7-.1 1.2.2 1.7.5.8 1.5 1 2.2 1l7.8 1.2h.2l2-.5v.3l-2.2 1c-1.5 1-2.3 2-2.5 3.1-.2 1-.3 1.7 0 2.2l-26.2 13.8.2-1.7 15.8-7.6c.2-.1.3-.3.3-.6s0-1.4.5-1.8a267.1 267.1 0 0 1 9.2-4.8c0-.1.3-2.5-1.6-3.5h-.5l-8.7 5.3c-1 .5-1.6-.3-1.7-.4a.5.5 0 0 0-.6-.1l-12.2 6.2.2-2.4c1-.4 2.5-1 2.8-1.4.4-.4.3-1.9.2-3.1.8-1 4.6-6 1.4-12-3.1-6-10.1-5.8-10.4-5.8-.3 0-.5.3-.5.5 0 .3.2.5.5.5 0 0 6.7-.1 9.6 5.3 3 5.6-.8 10.2-1.4 10.9-.7.2-4.2 1.3-10.3 2.8l1.3-5.3c.8-2 1.3-4 1.5-6 .2-3.4-.7-6.3-2.8-8.2-3-3-6.7-2.6-8.3-2.3.5-4.7-.4-10.4-6.7-13.6-7.2-3.7-15.7.9-21.2 6.4l-.6.6-9.4.2c-.6 0-1.1.4-1.4.9-.3.5-.3 1.1 0 1.6l4.8 7.6-1.1 3.4c-2.7-.4-4.9-.2-5.6-.2l-2.2-2.3 1.2-2 2.7 2.9a.5.5 0 0 0 .7 0c.2-.2.2-.5 0-.7l-2.9-3 2-3a.5.5 0 1 0-.9-.6L115 115l-2.8-3a.5.5 0 1 0-.8.7l3 3.2-1.1 1.8-6.1-6.5a.5.5 0 0 0-.9.4l1.2 8.7-3.7.5 2.1-4.3a.5.5 0 0 0-.4-.7c-.2 0-3.3 0-3.6-3.2-.2-1.3.6-2.5 2-3.2 1.5-.7 3.6-.7 5 .7a.5.5 0 0 0 .8-.7 5.4 5.4 0 0 0-6.2-.9c-1.8.9-2.8 2.5-2.6 4.2.2 2.8 2.3 3.8 3.8 4l-2.2 4.5a.5.5 0 0 0 .5.7l4.6-.6.2 1.5c-7.5 3.2-12.1 7.9-12.6 12.7-.4 3 1 5.1 1.8 6.2.2.2.5.2.7 0 .2-.1.3-.5 0-.7-.6-.9-1.8-2.8-1.6-5.4.5-4.5 5-9 12.5-12 .2-.1.3-.3.3-.6l-1.4-10 8.2 8.7c0 .1.2.2.4.1 0 0 9-.9 14 3.5l.5.5.1.1.4.5.2.2.3.4.2.3.2.4.3.4.1.3.3.8.1.4.3.8v.5a11.7 11.7 0 0 1 .3 1.2v1.4c0 1-.2 1.9-.5 2.8-1 3-2.8 5-3.3 5.4l-2.3.2c-.2 0-17 2-29.3 1-.2 0-.5.2-.5.4 0 .3-.2 2.4.7 3.4.7 1 5.3 1 7.4 1l10 11.1 2.2 9.5-.2 1-8.3 4.3a1 1 0 0 0-.5 1s0 2.4 1.8 4.4l.4.2a179 179 0 0 0 8.5 0c1.4 2.6 3 4 4.3 4.9H115a.5.5 0 1 0 0 1h52.2a.5.5 0 1 0 0-1h-28.8c1.5-1.5 2.3-3.6 2.7-5.4l3.6-1.5c.6-.3 1-.8 1-1.5l.3-3.6.9-.3 2.9 8.2a1.4 1.4 0 0 0 1.7.9l10.4-2.9c.7-.2 1.1-.8 1.2-1.5l.6-12.8 2.3-1.1c.5-.3.8-.8.8-1.4v-2.3l34-17.6c.1.3.3.4.5.5-8 11-17.2 28-18.8 31-2-1.2-8-4.6-10-3.2-.2.2-.5.5-.6 1.2 0 2.9 6.5 10 9.3 12.3l1.4 1h-7.9a.5.5 0 1 0 0 1h10.8c.2 0 .4-.2.5-.4.3-.3.7-1-.2-2.3a45.9 45.9 0 0 0-10.8-10.8.5.5 0 0 0-.6.8c5.4 4 9.2 8.5 10.5 10.5.5.7.4 1 .4 1-.1.2-1.3.1-3.5-1.6-3.3-2.7-9-9.4-8.9-11.5 0-.3.1-.3.2-.3 1.2-.9 6.1 1.5 9.3 3.4.1 0 .2.1.4 0 .1 0 .2 0 .3-.2.1-.2 10.4-19.6 19.3-31.7 1 0 2.1-.6 2.8-1.3h.2c-9 17.6-16.2 35.7-18.2 41a.5.5 0 0 0 1 .3c2-5.2 9.2-23.7 18.4-41.3.4 0 .8-.2 1-.4l.9-1.2c.7 0 2-.2 2.5-.8.3-.5 1.2-3.9 1.6-5.3.5 0 1.3-.3 2.5-.6l5.6 1a4.5 4.5 0 0 0 1.6 0l2.4-.6c-.1 3.7-.8 22.1.6 25.6 1.4 3.4 9.7 17 11.4 19.8-2.8 1.4-8.1 4.1-8 5.7 0 .2.1.5.5.8 1 .6 3.4.9 6 .9 2.5 0 5.1-.3 6.2-.5 1.9-.6 5.3-3.3 6.3-4.5.9-1.1 1.7-2.4 0-4.3ZM180.3 67c-1-1-1.8-1.3-2.4-1-.2 0-.4.2-.5.5-.5 1.2 1.2 4.6 2 6.2l-.7.3-.4.2-1 .3-.4.1-1.2.4-.6.2-.6.1a42.5 42.5 0 0 1-18.3.3l-11.3 8.8 5-10a.5.5 0 0 0-.3-.7c-10.8-4.4-14.6-14.5-12.2-21.8 1.6-4.5 5.4-8.4 10.8-11a38 38 0 0 1 29.3.2c7.7 3 12.5 8.5 13.2 15.3.6 6-2.1 11.6-7.1 15.1-1-1.3-2.3-2.7-3.3-3.5Zm50.3 56-3.1-5.4 5.2 5-2 .3Zm-12 2-3.2.6a60.4 60.4 0 0 0-4.1-21.3c2-2.5 4.1-5.4 5.3-7.1 0 4.2 0 16 2 27.8Zm-5.1-29.6 2.8.4a107 107 0 0 1-6 8v.6c0 .1 3.5 7.5 4.1 21.3l-2.6.5c-.7-14-4-20.6-5-22l6.7-8.8Zm-2.6 31h-.6l-2.2 1c-.4-10.2-2.8-17.5-3.5-19.6l2.7-.3c1.3 3.3 3 9.4 3.6 18.8Zm-12-1.6-2.6-.5 1.6-2.3v-.5l-1.2-2h1.4c.4 1.4.8 3.1.8 5.3Zm2.5-6.7 1-1.5c.4 1.6 1.1 5.3 1.3 11.3l-1.5.4c.3-6-.5-9.3-.8-10.2Zm3.4 10.1c-.4-9-1.7-12.8-1.8-13a.5.5 0 0 0-.8 0l-1.7 2.5a31.1 31.1 0 0 1 .8 10.6l-7.4-1c-.5-.2-1.2-.3-1.5-.7-.1-.2-.1-.4 0-.8 0-.4 1-2.2 3.4-5.8l1 1.7-1.7 2.7a.5.5 0 0 0 .3.8l3.9.6a.5.5 0 0 0 .6-.4c0-2.8-.4-5-1-6.5-.3-1.1-.6-1.9-.9-2.2a384 384 0 0 1 4-5.8l.8-1.1 1-1.4c.8 2.5 3 9.7 3.3 19.3l-2.3 1v-.5Zm-69.6 41-1-4.6c1.4 1.1 2.3 2.6 2.8 3.7l-1.8 1Zm2.7-1.4c-.7-1.4-2-3.4-4-4.6l-.3-1.6 1.4 1c1.5 1.1 2.8 2.8 3.7 4.8l-.8.4Zm1.7-.9-1.1-2a156 156 0 0 0 5.6-2l-.2 1.8-4.3 2.2Zm5.5-4.5.8-.3-.2 1.6-.8.4.2-1.7Zm1.8-.7 2.8-1.2.2 1-3.1 1.6v-1.4Zm39-26.6c.5.5 1.5 1 2.7.4l8.5-5.2c.7.6.8 1.6.8 2l-8.7 4.5c-1 .6-1 1.8-1 2.4l-15 7.2.3-4.9 12.4-6.4ZM165 116.8c2.3 2.2 2.6 5.3 2.5 7.5a18.5 18.5 0 0 1-1.8 6.5l-.2.4-.3.7-.1.2-.6.9v.1l-.5.7-.2.2a15.6 15.6 0 0 1-1 1.3l-.2.2-.5.4-.2.2a9.6 9.6 0 0 1-.7.7l-.1.1V137.2l3 5.2-8.6-4.5h-.2l-8.4 1.4 1.1-3.3c.4 0 .7-.3 1-.6a2 2 0 0 0 .2-2l2-3.7a2 2 0 0 0 1.9 1.2h.3c.5 0 1-.4 1.3-.9a2 2 0 0 0 .4-1.7c-.2-.7-.7-1-1-1.2l-.6-.1q12.4-2.9 12.4-3.4c0-.2-.2-.4-.4-.5-.4 0-5.8-2-9.6-3.4.5-1.2 1-2.9 1.3-4.9 1.1-.2 4.9-.9 7.8 2Zm-46-7.4a.6.6 0 0 1 0-.6c0-.1.2-.4.5-.4l8.5-.2-1.4 2c0-.2-.1-.2-.2-.3a1.7 1.7 0 0 0-2.4.9c-.2.4-.1.8 0 1.2.3.3.6.6 1 .7l-1.7 3.7-4.3-7Zm3.8 11.6a43 43 0 0 1 4.1-9.5c1-1.5 2-3 3.3-4.2 5.3-5.3 13.4-9.7 20-6.2 6.1 3 6.7 8.8 6.1 13.2v.1a25 25 0 0 1-1.5 5.4.5.5 0 0 0 .3.6l8.6 3.1a984 984 0 0 1-12 3 60 60 0 0 1-4.2 7.5l-.2.4a47.9 47.9 0 0 1-2 2.6v.1l-.9 1v.1a25.3 25.3 0 0 1-1.8 1.7l-10 1.4 1-3.5a7.7 7.7 0 0 0 5.2-4.5 8.6 8.6 0 0 0 .2-6l-.5-1.2c-2.2-3.4-6-4.6-10-3.2-1.4-.8-3-1.4-5-1.7l-.7-.2Zm9.8 5.7-.4-.7-.6-.7-.4-.5-.8-.6-.5-.4-.2-.2c1-.3 1.9-.3 2.8-.2.2.4.8 1.8.6 4.1v-.2l-.5-.6Zm5.3 6.2c-.5 1.3-1.7 3-4 3.8v-.3c.4-1.2.5-2.5.5-3.7a7.3 7.3 0 0 0 4-3.4c.1 1.2 0 2.5-.5 3.6Zm-3.6-1.3a12.5 12.5 0 0 0-.5-2.3 10 10 0 0 0-.1-5.7 7 7 0 0 1 4.3 4c0 .5-.6 2.8-3.7 4ZM117 160.2l1 1 .2.3.7 3.8-.5 1-1.4-6Zm8.7 14c-1.2-4.7 0-9.5 2.9-10.6.7-.2 1.4-.4 2.1-.4l1.6 7.6-5.7 3-.9.3Zm4.8-12c-.8 0-1.5.2-2.3.5-3.3 1.3-4.8 6.4-3.5 11.5l-6 .4c0-.6-.5-3.4.2-6.4l.9-2.5c.4-.9 1-1.7 1.6-2.4 3-3.1 6.6-3.2 8.7-2.9l.4 1.8Zm-12.7 12.4h-1.4l1.3-.5v.5Zm1.8-10.7-.1-1 .5.6-.4.4Zm-2 6.5v2.6l-3.7 1.5a59 59 0 0 1-3.8-.2l7.4-3.9Zm-6.3 7.7c-.8-1-1.1-2.1-1.3-2.8l4 .2a77.8 77.8 0 0 0 4.4 0c3.4 0 6.1-.2 7.3-.4.5 0 1-.1 1.3-.4l6.1-3.2h.2V171.1l.1-.1v-.1l-4.5-21c0-.2-.4-.4-.6-.3-.3 0-.5.3-.4.6l2 9c-3.5-.3-6.8.8-9.2 3.3v.1l-1.9-2-2.3-2.6-10.2-11.3-.4-.1c-3 0-6.5-.3-6.9-.7-.3-.4-.4-1.4-.4-2.2 12.4.9 28.8-1 29-1l2.3-.2.8-.1 1-.1h.4a340.7 340.7 0 0 0 11-1.5l1-.2 1.8-.2h.4l9-1.7 10 5.3a.5.5 0 0 0 .6-.7l-3.4-6 1-.2.4-.1 1-.3h.3a146 146 0 0 0 10.7-3v2.1c-.2.2-1.5.8-2.6 1.1l-.4.5-1 12.3-21.8 9.5A247 247 0 0 1 138 164a10.3 10.3 0 0 0-4.5-3.7l-.8-3.7a.5.5 0 1 0-1 .2l2.8 13.2v.1l.2.2h.5l64.9-34.2c.6.1 1.5 0 2.2-.3v1.7l-.4.4c-.4.4-1 1-1.1 1.8l-.1.4L166 158l-1.2.7-3.8 2-1.4.6-21.1 11-10.5 5.3a170.7 170.7 0 0 1-16.8.4Zm27-3.7c-.1 2.8-1.2 5.6-4 6.3-1 .3-3.2.3-5.3-1.3l9.3-5Zm3.4 0-.3-2.5 1.9-1v.3l-.2 2.7-1.4.5Zm17.3-11.6.5 8v.5l.2 3.4-6.8 2.4-3-9.6 9-4.7Zm-37.9 17 6.7-.1a8 8 0 0 0 5.4 2.2c.5 0 1 0 1.4-.2 3.4-1 4.7-4.5 4.7-7.9l1.3-.6v2c0 2-.7 7-3.8 8.8h-10.4s-2.8-.6-5.3-4.1Zm23.7-4.3c0 .3-.2.5-.4.6l-3 1.3.3-1.9 2-.7c.2 0 .3-.2.4-.4l.1-2h.9l-.3 3.1Zm21.1-14.3c0 .1 0 .3-.2.4l-2.6 1.3c-.2 0-.3.2-.3.4l-.6 13.1c0 .3-.2.5-.4.5l-10.5 3c-.2 0-.4-.1-.5-.3l-3-8.7a.5.5 0 0 0-.7-.3l-2.6.9-.3-1 4.8-2.5 3 9.9a.5.5 0 0 0 .7.3l7.7-2.7c.2 0 .4-.3.4-.5l-.3-4v-1.2l1.3-8.4 4-2.1.1 1.9Zm81.1 18.6c-.9 1.1-4.1 3.8-5.8 4.2-2.7.7-10.8.7-11.4-.2 0-.7 3.7-3 7.9-5h2.4a.5.5 0 1 0 0-1h-2.3c-1.2-2-10-16.4-11.5-19.9-1-2.6-.8-15.5-.5-23.5l1.2-.2a319 319 0 0 0 2.7 21c.7 3.3 17.2 21.5 17.3 21.7 1.1 1.1 1 1.8 0 3Z"/><path class="cls-13" d="M155.2 44c-.2-.5-.6-.9-1.1-1-.6-.1-1.1.1-1.4.6l-12.3 16.6c-.4.5-.5 1.1-.2 1.7.2.5.7.9 1.2 1l15.9 2.8a2.3 2.3 0 0 0 2.6-2.8L155.2 44Zm3.4 20.3c-.3.3-.7.5-1.2.4L141.6 62a.7.7 0 0 1-.5-.4v-.7l12.4-16.7c.1-.2.3-.1.4-.1a24653.5 24653.5 0 0 1 5 19.1c.1.4 0 .9-.3 1.2Z"/><path class="cls-13" d="m153.6 48.3-1.9-.3-.4.1-.2.4-.4 8.5a.8.8 0 0 0 .8.8c.3 0 .6-.2.7-.6l1.8-8.3a.5.5 0 0 0-.4-.6ZM151 59.2a1.4 1.4 0 1 0-.3 2.7c.3 0 .5 0 .8-.2.2-.1.5-.4.6-1 0-.7-.4-1.4-1.1-1.5ZM168.5 53.2l-3 3.2-2.5-3.5a.5.5 0 1 0-.8.6l2.5 3.6-2.4 2.6a.5.5 0 1 0 .7.7l2.3-2.5 2.3 3.2a.5.5 0 1 0 .8-.5l-2.4-3.4 3.3-3.3a.5.5 0 1 0-.8-.7ZM183.8 57.4c0-.3-.1-.5-.4-.6l-3.6-.3.8-8.6a.5.5 0 0 0-.8-.3L172 56a.5.5 0 0 0 .3.8l6.3.5-.7 6.8a.5.5 0 1 0 1 0l.7-6.7 3.6.3c.3 0 .5-.2.5-.4Zm-5-1-5.3-.4 6-6.6-.7 7ZM167.9 25.5l9 5.9a.5.5 0 0 0 .5 0c.2-.2.3-.4.2-.6l-3-7.2c1.7-1 8.1-5 9.2-12 .5-3-.3-5.9-2.3-8C179.1 1 175-.2 170.1.2c-6.8.5-14.5 4.8-18 10-1.9 3-2.4 6-1.4 9 3 8.8 15.4 6.6 17.2 6.3ZM153 10.7c3.3-5 10.7-9 17.2-9.6 4.6-.3 8.4.8 10.6 3.2a8.3 8.3 0 0 1 2 7c-1.1 7.5-9 11.6-9.1 11.6-.3.2-.4.4-.3.7l2.6 6-7.7-5a.5.5 0 0 0-.4-.2c-.1 0-13.3 3-16.2-5.5a9 9 0 0 1 1.3-8.2Z"/><path class="cls-13" d="m158.5 17.8 1 .2h.5c.5-.2 1-.5 1.1-1 .2-.4.3-1 0-1.4a2 2 0 0 0-1-1c-.4-.2-1-.2-1.3 0-.9.4-1.3 1.2-1 2 0 .7.4 1 .7 1.2ZM166.5 14.4a1.8 1.8 0 0 0 1.4-.3c.5-.2.7-.7.8-1.2.1-.5 0-1-.3-1.3-.6-.7-1.5-1-2.2-.6-.6.3-.9.7-1 1-.1.5 0 1 .2 1.5.3.5.7.8 1.1 1ZM173.4 10.9c.3.2.6.3 1 .3h.3a2 2 0 0 0 1.2-1c.2-.5.3-1 .1-1.5-.2-.5-.5-.9-1-1a2 2 0 0 0-1.5 0c-.4.2-.7.5-.9 1-.3.8 0 1.7.8 2.2ZM132 154.2l-.5-2.9a.5.5 0 1 0-1 .2l.6 3a.5.5 0 1 0 1-.3ZM135 173.4c.4-.3.5-.9.3-1.3-.1-.4-.5-.7-1-.6-.5.1-1 .7-.9 1.3.1.8 1 1 1.5.6ZM124.6 46.9h.3c.1 0 .3 0 .4-.2l1.5-3 3.4 2.3a.5.5 0 0 0 .7-.1c.2-.2.1-.6 0-.7l-3.6-2.5 1.6-3.1a.5.5 0 0 0-1-.5l-1.4 3-3.1-2.1a.5.5 0 1 0-.6.8L126 43l-1.6 3.2c-.1.3 0 .6.2.7ZM136.9 47c.2 0 .5-.3.5-.5l.5-13a.5.5 0 0 0-1-.3l-3 3.7a.5.5 0 1 0 .8.6l2.1-2.5-.4 11.4c0 .3.2.5.5.6ZM114.5 36c-1 0-2.2 0-3.3.4-1 .4-2.1 1-3 1.7a7.3 7.3 0 0 0-2.5 5v.5a7.7 7.7 0 0 0 9.2 7.5 8 8 0 0 0 3.8-2 7 7 0 0 0 2.3-4.4V44c0-4.5-2.3-7.4-6.5-8Zm5.5 8v.3c-1.9 1.2-4 .4-5.1-.2a6.3 6.3 0 0 0 4.2-4.2c.8 1.4 1 3 1 4.1Zm-5.7-7c1.9.3 3.1 1 4 1.9-.6 3-2.9 4-4 4.3.5-3.2-.8-5.1-1.8-6 .6-.2 1.3-.2 1.8-.1ZM109 39c.7-.6 1.5-1.1 2.4-1.4.6.4 2.5 2 2 5.3-1-1-3.1-2.2-6.4-.7a6.4 6.4 0 0 1 2-3.2Zm-2.2 4.8v-.4c3.5-1.9 5.4-.4 6.2.4-3 1.5-3.9 3.6-4.2 4.7-1.2-1.2-2-2.9-2-4.7Zm6 6.6c-1.1-.1-2.2-.5-3-1.1 0-.7.5-2.8 3.2-4.4-.5 2.5.3 4.4 1 5.4h-1.2Zm5.4-1.9a7 7 0 0 1-3.2 1.7 6.8 6.8 0 0 1-1-5.4c1.1.7 3.6 1.9 6 .9-.4 1-1 2-1.8 2.8ZM51.1 39h.2l16.6-5c2.1 1 21.6 9.9 30-2.5 2.5-3.5 3-8 1.5-12.5-2.3-7.3-9.3-14-17.7-17.2-7-2.6-14.6-2.4-20 .6-3.8 2-6.3 5.2-7 8.8-2.1 9.5 4 15.8 5.8 17.3l-9.7 9.6a.5.5 0 0 0 .3.8Zm10.5-10.1a.5.5 0 0 0 0-.8c-.2 0-8.2-6.4-6-16.7.8-3.3 3-6.2 6.5-8.1C65 1.8 68.3 1 72 1c3 0 6.3.6 9.4 1.7 8.2 3 15 9.5 17.2 16.6A13 13 0 0 1 97 30.9c-8.4 12.3-28.7 2.3-28.9 2.2h-.4L53 37.4l8.7-8.5Z"/><path class="cls-13" d="M84.4 32.1c-1-.4-2-1.5-1.5-3.5a.5.5 0 0 0-1-.2c-.6 2.1.3 4 2.2 4.6l1.5.3c1.8 0 3.7-1 4.8-3.2.7-1.6.8-3 .3-4.2-.4-1-1.1-1.6-1.7-2l5.6-1.1a.5.5 0 0 0 .2-1L89 17.8a.5.5 0 1 0-.6.8l4.9 3.5-6 1a.5.5 0 0 0 0 1s1.8.7 2.5 2.3c.4 1 .3 2-.3 3.4-1.2 2.3-3.5 3-5 2.4ZM74.3 22.6a.5.5 0 1 0 .5.9l4.3-2L79 26a.5.5 0 0 0 1 0l.3-5.1 4-1.9a.5.5 0 1 0-.3-.9L80.3 20l.2-4.1a.5.5 0 0 0-1 0l-.3 4.5-4.9 2.3ZM70.6 21.4h.2c1.9-.7 3.4-2.1 4.4-4.2a9 9 0 0 0 1-3.8c0-2.7-1.1-5.4-3.5-7.1a8.5 8.5 0 0 0-8-.7l-.5.2h-.1a8.4 8.4 0 0 0-4.7 5.9 8.5 8.5 0 0 0 5.9 9.6c1 .3 2 .5 3 .5.8 0 1.6-.2 2.3-.4Zm0-1c-.7-.3-3.2-1.9-3-6.2.8.5 2.3 1.1 4 1.1 1.1 0 2.3-.2 3.5-1-.2 1-.4 1.7-.8 2.5-.9 1.8-2.2 3-3.8 3.6Zm4.5-7.3c-2.7 2.1-5.5 1-7 .3 3.8-1.6 4.6-4.2 4.8-5.6A7.4 7.4 0 0 1 75 13ZM72 7c0 .7 0 3.6-4.2 5.4.3-1.5.3-4.5-2.2-6.2 2.2-.7 4.6-.5 6.4.7Zm-7.5-.3C67 8.1 67 11 66.8 12.3a6.5 6.5 0 0 0-6.1-1.3c.6-1.8 1.9-3.3 3.7-4.2Zm-4 5.3c.8-.3 3.3-1 5.7 1a6.5 6.5 0 0 0-4.6 4.3 7.4 7.4 0 0 1-1.1-5.3Zm2 6.3c.5-3.1 3-4.1 4.1-4.4-.1 3.8 1.5 5.8 2.7 6.7a9 9 0 0 1-3.7-.3c-1.2-.4-2.3-1.1-3.2-2ZM91.4 59.7c-3.2-2.9-9.3-6.1-20.5-5-8.2.7-15.7 4.4-19.5 9.7a15.8 15.8 0 0 0-2.6 13.1c3.6 15.9 25.5 12.6 28.6 12l6.2 11a.5.5 0 0 0 1-.3V87.5c1.8-1 11.5-6.7 11.6-17.8a14 14 0 0 0-4.8-10Zm-7.5 27c-.2.1-.3.3-.3.5v11.1L78 88.8a.5.5 0 0 0-.5-.3c-.3 0-24.2 4.8-27.8-11.2-1-4.6-.2-8.7 2.4-12.3 3.7-5 10.9-8.7 18.7-9.4 11-1 16.8 2 19.8 4.8 4.2 3.8 4.5 8 4.5 9.3 0 11.5-11.2 17-11.3 17Z"/><path class="cls-13" d="m90.7 74.6-8 1.5c0-4.3 2.1-6.3 3.9-7.9l1.5-1.5c.8-1.2.9-2.7.2-4-.8-1.2-2.2-2-3.7-1.7a3.9 3.9 0 0 0-3.5 3.6c0 .3.2.6.5.6.2 0 .5-.2.5-.5 0-.1.2-2.5 2.6-2.7 1.1-.2 2.2.3 2.7 1.3.5.9.5 2-.1 2.8l-1.4 1.4c-1.9 1.7-4.4 4-4.2 9.3a.5.5 0 0 0 .6.4l8.6-1.7a.5.5 0 1 0-.2-1ZM76 70l1.8-3.4a.5.5 0 1 0-1-.5l-1.5 3.2-2.7-2.2a.5.5 0 0 0-.6.8l2.8 2.3-1.5 3a.5.5 0 1 0 .9.5l1.4-2.9 2.9 2.3a.5.5 0 0 0 .6-.8L76 70ZM60.7 63.7c-.3-.4-.9-.6-1.4-.4-.5.1-.9.5-1 1l-3 17.4c-.1.5 0 1 .5 1.4a1.5 1.5 0 0 0 1.4.3l14.6-4.3a1.4 1.4 0 0 0 .6-2.3L60.7 63.7Zm11 14.1s0 .2-.2.3L57 82.4h-.5a.5.5 0 0 1-.1-.6l3-17.3c0-.2.2-.2.3-.3 0 0 .3 0 .4.2l11.7 13c.1.2 0 .4 0 .4Z"/><path class="cls-13" d="M62.2 76h.1c.4 0 .6-.4.6-.8l-1-7.2a.5.5 0 0 0-.6-.5l-1.6.5a.5.5 0 0 0-.4.6l2.2 7c.1.2.4.4.7.4ZM63 77c-.3-.2-.7 0-1 .2-.4.3-.6.7-.5 1.2 0 .6.6 1.1 1.3 1.2.4 0 .8-.2 1-.5.3-.2.4-.5.4-.9 0-.6-.4-1.1-1.1-1.3ZM166.8 90.2a.5.5 0 0 0-.5 0l-6 4.7c-1.1-.7-5.2-2.7-9.7-2.2-3.8.4-5.5 3-6.1 4.4a.5.5 0 1 0 .9.4c.5-1.3 2-3.5 5.3-3.8a17 17 0 0 1 9.4 2.2h.5l5.4-4.2-.7 7.5c0 .1 0 .2.2.3 5.6 5.8 6.3 10.8 5.9 14a.5.5 0 1 0 1 .2c.4-3.5-.3-8.8-6-14.7l.7-8.3c0-.2 0-.4-.3-.5ZM99.2 126a.5.5 0 0 0 .7-.2c.1-.2 0-.5-.2-.7-1.4-.8-3.2-2.6-3.6-6.5-.7-7.2 6.4-13.5 17.5-15.7.2 0 .3-.2.4-.4l2.5-11.3 4.2 10.5c0 .2.2.3.4.3 0 0 5.3.2 9.7 1.5a.5.5 0 0 0 .3-1 48 48 0 0 0-9.6-1.5l-4.7-11.7c-.1-.2-.3-.3-.5-.3s-.4.2-.5.4l-2.7 12.6c-11.5 2.4-18.7 9-18 16.6.4 4.4 2.5 6.4 4.1 7.4ZM105.3 138.1h.5c.3 0 .7 0 1-.2.8-.6 1.1-1.4 1-2.3-.2-.5-.5-.9-1-1.1-.7-.4-1.4-.4-2-.1a2 2 0 0 0-1.1 1.2c-.2.5-.1 1 .2 1.5.2.5.8.9 1.4 1ZM115.3 136h.3c.5 0 1-.2 1.5-.5.4-.3.6-.7.6-1.1a2 2 0 0 0-1.2-2.1 2 2 0 0 0-1.6 0 2 2 0 0 0-1.2 1.3c-.1.7 0 1.2.2 1.5.3.5.8.8 1.4.9ZM124.5 134.3h.6a2 2 0 0 0 1.2-1c.3-.5.3-1 .1-1.6-.2-.5-.7-1-1.2-1.2-.5-.2-1-.2-1.4 0-1 .5-1.3 1.2-1.3 2.1 0 .5.3 1 .8 1.3.3.3.8.4 1.2.4ZM133.3 120l4.5-.6 1.7 4.1a.5.5 0 0 0 .9-.3l-1.6-4 5-.7a.5.5 0 1 0-.1-1l-5.3.8-1.4-3.6a.5.5 0 0 0-1 .3l1.4 3.5-4.2.6a.5.5 0 0 0 .1 1ZM139.7 111.3c.2-.2.1-.6 0-.7-.2-.1-2.5-2.4-.8-4.6.7-.8 1.6-1.2 2.5-1 1.3.2 2.3 1.3 2.8 2.8 1.1 3.3 2.4 7 4.6 9.1a.5.5 0 0 0 .8-.1l4-8.6a.5.5 0 1 0-1-.4l-3.6 7.9a25 25 0 0 1-3.8-8.2c-.6-1.9-2-3.2-3.6-3.5-1.3-.2-2.6.3-3.5 1.4-1.8 2.3-.2 4.9.9 5.9.2.2.5.2.7 0Z"/></g></g></svg>
