<svg xmlns="http://www.w3.org/2000/svg" width="402" height="192" fill="none" viewBox="0 0 402 192">
  <g clip-path="url(#a)">
    <path fill="url(#b)" d="M.5.5h401v191H.5z"/>
    <path stroke="#e6e6e9" d="M.5.5h401v191H.5z"/>
    <path fill="#7553ff" d="M260.6 61.9c-.4-3.3-.8-8-3.2-12a15 15 0 0 0-7.7-6.5l-1.3-.3a1006 1006 0 0 0-37.8-6.7 220 220 0 0 0-37.3-2.9c-4.2.8-6.7 3.8-7.4 7.8q-.3 2.6.2 4.6.7 2.6 2 3.7c-3.6.4-5.5 1.6-7.2 5.8-2.8 7-6.8 22.7-9.7 40.3A471 471 0 0 0 146 145c0 4.5 1 6.1 5.6 9a77 77 0 0 0 29 10.9 97 97 0 0 0 17.5 1.5c16 .1 21.5-1.7 24.2-6.8 14.4-26.4 23.5-50 30.5-69.9 7-19.8 8.1-24.4 7.8-27.7"/>
    <path fill="#181225" d="m199 166.6-7.4-.2a97 97 0 0 1-17.7-2.8q-12-3-22.5-9.5c-4.7-3-5.7-4.7-5.7-9.2 0-7.7 2.5-32 5.3-49.2 3-19 7-34 9.7-40.4 1.6-3.9 3.3-5.4 6.8-6a8 8 0 0 1-1.7-3.3q-.6-2.3-.1-4.7 1.2-6.8 7.5-8c4.1-.7 21.3.6 37.4 2.8a503 503 0 0 1 37.8 6.7l1.4.3c1 .4 4.8 2 7.8 6.7 2.4 3.8 2.8 8.3 3.2 11.5v.6c.4 3.3-.7 8-7.7 27.8-7 19.6-16 43.3-30.5 70-2.9 5.2-8.6 7-23.5 7m-7.4-.8q3.2.3 6.5.3c15.4 0 21.2-1.6 24-6.7a466 466 0 0 0 30.4-69.8c7-19.7 8.1-24.4 7.8-27.7v-.5A26 26 0 0 0 257 50c-2.9-4.6-6.5-6-7.5-6.4l-1.3-.3a1009 1009 0 0 0-37.8-6.8 217 217 0 0 0-37.2-2.8c-3.8.7-6.4 3.4-7 7.5q-.5 2.4 0 4.6a7 7 0 0 0 2 3.4.3.3 0 0 1-.1.5c-3.7.4-5.4 1.8-7 5.7-2.6 6.4-6.6 21.3-9.7 40.3a471 471 0 0 0-5.3 49.1c0 4.3 1 5.9 5.5 8.7a77 77 0 0 0 22.4 9.4l3.5 1a78 78 0 0 0 14 1.8m-22.8-116a.3.3 0 0 1 0-.6h.2q.2 0 .2.3 0 .1-.2.3zm5.6 0-4.5-.1h-.3q-.2 0-.3-.2t.3-.3h4.8a.3.3 0 0 1 0 .5"/>
    <path fill="#181225" d="m249.4 43.6-1-.2-.3-.3q0-.3.3-.3l1.1.3a.3.3 0 0 1 0 .5"/>
    <path fill="#181225" d="M249.6 43.6h-.2l-.2-.3.3-.2h.2a.3.3 0 0 1-.1.5M194.2 166q-23.7 0-42.8-12c-4.6-2.9-5.7-4.6-5.7-9.1 0-7.8 2.5-32 5.3-49.2 3-19 7-34 9.7-40.4 2.3-5.5 5-6.1 10.7-6.2 3.9 0 17.8 1 32 3.2 17 2.7 33.5 7 38.3 10.2 6.7 4.3 6 7 4.5 12.7l-.4 1.5a465 465 0 0 1-34.5 83.1c-.2.3-3.9 6.1-17.1 6.1M171.6 49.6h-.2c-5.6 0-8 .6-10.2 5.8-2.6 6.4-6.6 21.3-9.7 40.3a472 472 0 0 0-5.2 49.1c0 4.3 1 5.9 5.4 8.7a79 79 0 0 0 42.5 11.8c12.9 0 16.6-5.8 16.6-5.9a464 464 0 0 0 34.5-83l.4-1.4c1.4-5.7 2-8-4.3-12.1-4.8-3.2-21.2-7.5-38.2-10.1a270 270 0 0 0-31.6-3.2"/>
    <path fill="#9e86ff" d="M244.8 46.7c5-1.4 6.6 4 6.7 6.2 0 2.8-1.3 6.1-4.2 6.8-1.9.5-6.1 0-6.7-5.5-.4-3.4 1.2-6.7 4.2-7.5"/>
    <path fill="#181225" d="M246.2 60.2q-1.7 0-3.3-1-2.3-1.5-2.6-5c-.4-3.6 1.4-7 4.4-7.8q2.6-.6 4.4.7c2 1.5 2.6 4.3 2.6 5.8 0 2.9-1.3 6.4-4.4 7.1zm.2-13.4q-.8 0-1.5.2c-2.8.7-4.5 3.8-4 7.2q.3 3 2.3 4.5c1.3.9 3 1 4 .8 2.7-.7 4-4 4-6.6 0-1.4-.7-4-2.4-5.3q-1-.9-2.5-.8"/>
    <path fill="#ff70bc" d="M175 57.8c9.4.8 27.4 3 46.6 7.6 3.1.8 5 4 4 7-2.5 9.1-8.1 27.4-13.8 39.2a5.5 5.5 0 0 1-5.6 3.1 298 298 0 0 1-44.3-8.5 4.6 4.6 0 0 1-3.3-5c.9-6.8 3.1-21.7 8-37.7 1-3.7 4.6-6 8.5-5.7"/>
    <path fill="#181225" d="M206.8 115h-.6a300 300 0 0 1-44.4-8.5c-2.3-.7-3.8-2.9-3.5-5.3 1-7.4 3.2-22 8-37.8a8.4 8.4 0 0 1 8.8-6c9.1 1 27.3 3 46.6 7.8a6 6 0 0 1 4.2 7.3c-2.7 9.6-8.2 27.6-13.9 39.3-1 2-3 3.2-5.2 3.2m-32.4-57a8 8 0 0 0-7.6 5.6c-4.7 15.7-7 30.3-8 37.7-.2 2 1.1 4 3.2 4.7 17.6 5 36.8 7.6 44.2 8.4 2.2.3 4.4-.9 5.3-2.9a280 280 0 0 0 14-39.2q.5-2.1-.6-4.1t-3.4-2.5a326 326 0 0 0-47.1-7.7"/>
    <path fill="#181225" d="M187 163.7c-11.6 0-28-4-38.9-12a.3.3 0 1 1 .4-.5c17.1 13 46 14.4 50.7 9 4.3-4.9 12.3-22.3 21.4-46.6A346 346 0 0 0 235.7 67c.8-4.1-1.8-5.8-4.1-6.8-.1 0-11-4-32.2-7.1a334 334 0 0 0-30-3.4l-.3-.3.2-.2c.1 0 10.5.5 30.2 3.4 21.3 3 32.2 7 32.3 7 2.3 1 5.4 3 4.5 7.5-1.8 9-6.6 23.9-15.2 46.7-9.1 24.3-17.2 41.8-21.5 46.8-1.9 2-6.5 3.1-12.6 3.1"/>
    <path fill="#fdb81b" d="m166.7 95.3 25.8-27.5a3 3 0 0 1 5.1 1.3l8.9 33.3a3 3 0 0 1-3.5 3.7l-35-6.6c-2-.3-2.7-2.7-1.3-4.2"/>
    <path fill="#181225" d="M203.6 106.5h-.7L168 99.7q-1.6-.3-2.2-1.9-.4-1.5.7-2.8l25.8-27.5q1.3-1.3 3.2-1 1.8.5 2.4 2.4l8.9 33.3q.4 1.8-.8 3.1-1 1-2.4 1m-36.7-11q-1 1-.5 2.3.4 1.1 1.7 1.5l35 6.6a2.7 2.7 0 0 0 3.1-3.4L197.3 69q-.4-1.5-2-2-1.5-.3-2.6.9z"/>
    <path fill="#181225" d="m186.3 89.3 3.6-14.7s3-.5 5.7.7L189.9 90z"/>
    <path fill="#181225" d="M190 90.2h-.1l-3.7-.6-.1-.2q0 0 0-.2l3.5-14.7.2-.2c.2 0 3-.5 5.9.8q.2 0 .1.3L190.2 90zm-3.4-1.1 3.1.5 5.5-14.1a11 11 0 0 0-5.1-.7zM187.1 98.1c1.6-.4 2.6-2 2.2-3.4-.4-1.5-2-2.4-3.6-2-1.6.5-2.6 2-2.2 3.5s2 2.3 3.6 2"/>
    <path fill="#181225" d="M186.3 98.5q-.9 0-1.6-.4a3 3 0 0 1-1.5-1.8 3 3 0 0 1 .4-2.4q.8-1 2-1.4 1.4-.4 2.5.2a3 3 0 0 1 1.5 1.9 3 3 0 0 1-.4 2.3 3 3 0 0 1-3 1.6m.2-5.6a3 3 0 0 0-2.4 1.3q-.6 1-.3 2t1.2 1.4 2 .3 1.8-1.3.3-1.9-1.2-1.5q-.7-.3-1.4-.3M168.3 146.3q-1.5.7-3.1.7c-3 0-5.8-1.6-7.1-4.4a7.7 7.7 0 0 1 4-10.2 8 8 0 0 1 10.4 4.2c1.4 3.7-.4 8-4.2 9.7"/>
    <path fill="#181225" d="M165 147.3a8 8 0 0 1-7.2-4.6q-1.4-3-.1-6.1a8 8 0 0 1 4.2-4.5 8 8 0 0 1 10.6 4l.2.4a8 8 0 0 1-4.2 10 8 8 0 0 1-3.3.8zm.3-15.4a8 8 0 0 0-7.1 4.9q-1 2.8.1 5.6a7.4 7.4 0 0 0 10 3.6 7.4 7.4 0 0 0 3.7-9.7 7 7 0 0 0-6.7-4.4M185.3 150q-1.1.4-2.2.4c-2-.2-4-1.4-4.7-3.4-1-2.7.4-5.8 3.1-6.8s5.9.3 6.9 3l.1.3c.8 2.6-.6 5.5-3.2 6.5"/>
    <path fill="#181225" d="M183.4 150.6a6 6 0 0 1-5.3-3.5q-.7-2.2.2-4.3a5.7 5.7 0 0 1 7.4-2.8 6 6 0 0 1 3 3.4 5.6 5.6 0 0 1-5.3 7.2m0-10.5a5 5 0 0 0-4.6 3 5 5 0 0 0-.1 3.8 5 5 0 0 0 4.4 3.2 5 5 0 0 0 5-6.8 5 5 0 0 0-2.6-2.8 5 5 0 0 0-2-.4"/>
    <path fill="#9e86ff" d="M168.3 146.3q-1.5.7-3.1.7-3.1-.7-4.5-3.7a6.7 6.7 0 0 1 3.4-9c3-1.3 6.5-.3 8.4 2.3 1.4 3.7-.4 8-4.2 9.7"/>
    <path fill="#181225" d="M165.2 147.3a7 7 0 0 1-5-9.2 7 7 0 0 1 3.8-4 7 7 0 0 1 8.7 2.4 8 8 0 0 1-4.2 10 8 8 0 0 1-3.3.8M167 134a7 7 0 0 0-6.2 4.3q-1 2.4.1 4.9a6 6 0 0 0 4.3 3.6q1.5 0 3-.7a7.4 7.4 0 0 0 4-9.4 6 6 0 0 0-5.2-2.7M229.9 58.5h-.2c-.1-.1-3.4-2.3-2.5-8.6q.8-5 4.2-7.6 3.1-2.2 7.3-1.4a.3.3 0 1 1 0 .6q-4-.7-7 1.3-3.2 2.3-4 7.2c-.8 5.9 2.3 8 2.3 8a.3.3 0 0 1-.1.5M215.9 55.2h-.1c-.2-.2-3.9-2.3-3.4-8.2q.4-4.5 3.6-7 3.4-2.6 8.6-1.7a.3.3 0 1 1-.1.6q-5-.8-8.2 1.5a9 9 0 0 0-3.4 6.7c-.4 5.5 3 7.5 3.1 7.5a.3.3 0 0 1-.1.6M191.5 51.3zc-.1-.1-2.7-1.6-2.8-6.7q0-5 3-7.8t7.8-2a.3.3 0 1 1 0 .5q-4.7-.6-7.5 1.9a10 10 0 0 0-2.7 7.4c0 4.8 2.4 6.1 2.5 6.1a.3.3 0 0 1-.2.6M178.8 50h-.1c-.1 0-2.7-1.7-2.7-6.7 0-4.5 2.4-9.8 9.1-9.9q.3 0 .3.3t-.3.3c-6.3 0-8.6 5-8.6 9.3 0 4.7 2.4 6.2 2.5 6.2a.3.3 0 0 1-.2.5"/>
    <path fill="#9e86ff" d="m265.4 13.7-.5 2.5-7.8 33.3c-3.5-5.2-7.7-6.2-7.7-6.2l-7.2-1.4 11.4-30 .7-1.6s1.3-3.4 6.8-1.8c5.2 1.5 4.3 5.2 4.3 5.2"/>
    <path fill="#181225" d="m257 49.8-.2-.2a14 14 0 0 0-7.4-6l-7.3-1.5h-.2v-.3l11.5-30 .6-1.6s1.5-3.6 7.2-2c5.3 1.6 4.5 5.6 4.5 5.6l-8.4 35.7zm-14.5-8.1 7 1.4c.2 0 4 1 7.4 5.7l8.3-35.1c0-.2.7-3.5-4.1-5-5.3-1.5-6.5 1.6-6.6 1.7l-.6 1.7z"/>
    <path fill="#7553ff" d="m265.4 13.7-.5 2.5c-.3-3.8-4.5-5.4-7.5-5.4-2.7 0-3.7 1-3.8 1.2l.7-1.7s1.3-3.4 6.8-1.8c5.2 1.5 4.3 5.2 4.3 5.2"/>
    <path fill="#181225" d="m264.9 16.5-.3-.3c-.3-3.8-4.6-5.2-7.2-5.1-2.6 0-3.5 1-3.6 1a.3.3 0 0 1-.4-.2l.6-1.7s1.5-3.6 7.2-2c5.3 1.6 4.5 5.6 4.5 5.6l-.6 2.5zm-7.4-6c2.5 0 6.3 1.2 7.4 4.4l.3-1.2c0-.2.7-3.5-4.1-5-5.3-1.5-6.5 1.6-6.6 1.7l-.3.8a7 7 0 0 1 3.3-.7"/>
    <path fill="#9e86ff" d="M255.8 106.2a7 7 0 0 0 2.6 3.5q.4.3.9.5l.5.3.5.2q1.4.5 3.3.5 2.1-.2 4.6-.6 2.6-.4 5.3 0 1.5.3 2.7 1 1.3.8 2.3 1.9 1.8 2.3 3.2 4.9 1.2 2.7 3.3 4.5 1 .8 2.3 1.2l2.7.5q2.6 0 5.1-.2l4.7-.2c1.3 0 3.8 0 6.2.9l1.7.8.8.4.7.6 1.1 1 .5.4q0 .3.3.4 1.3 1.5 1.6 2.3l1.2 2.2v.1h-.1l-1.5-2.1q-.4-.6-1.7-2-1-1.3-2.7-2.4-1.9-1.2-4.2-1.6-2.2-.3-4.5-.2l-3.7.2-4.6.2q-2.4 0-5-1-1.1-.6-2.1-1.5l-1.7-2.1-2.6-4.5q-1.4-2.4-3.3-3.8-2-1.4-4.6-1.3t-4.8.3q-2.5.5-4.6.3-1.1-.1-1.8-.4l-1-.4-1-.7-.6-.5-.7-.7a7 7 0 0 1-1.4-2.8zM259.9 92.4a8 8 0 0 0 4.4 2.1c1.4.2 3.1.3 6-1l4.8-2.2q2.4-1.3 5.5-2.2 3.1-.7 6.4.5 3 1.3 5.4 3.7 2.4 2.3 5 4.2a13 13 0 0 0 5.4 2.4l1.5.2h1.4q1.6 0 2.8-.4 2.7-.5 5-1.4l2.7-1q1.8-.8 3.8-1.3l1-.2 1.1-.1h2q1.8.2 3 .7l1.7.7 1 .6c.7.3 1.2.7 2.4 1.6l-2.7-1.3-1-.4-1.7-.6-1.8-.5q-1-.1-2.2-.1-2.5 0-4.9 1l-4.8 1.9q-2.4.8-4.1 1.2l-1.3.2-1.2.1h-2.7q-2.8-.1-5.4-1.6c-3.3-2-5.8-5.1-9-7.4a11 11 0 0 0-5.2-2.1q-2.8-.3-5.4.8c-3.5 1.2-6.6 3.2-9.7 4.2-1.6.5-2.4.5-3.2.5h-1.3a9 9 0 0 1-3.5-1.6zM264.5 78.2q2 .6 3.2.7h1.7q1 0 2.5-.6t2.6-2l2.2-3.2q1-1.8 2.5-3.5a8 8 0 0 1 6-2.9h2.3l4.2.6q2.1.3 3.9.2 1.8-.2 3.2-1a17.7 17.7 0 0 0 6.1-6.6l.9-1.9q.3-.5.6-1.7h.1q0 1.4-.3 2l-.7 1.8a17 17 0 0 1-6.8 7.3 9 9 0 0 1-2.9.8c-2.3.3-4.7-.3-7.2-.6-2.4-.2-5.2-.4-7.3 1.1s-3.4 3.9-4.7 6q-1 1.6-2.4 3t-3.2 1.6q-1.6.4-2.2.2a11 11 0 0 1-4.4-1.3"/>
    <path fill="#a737b4" d="m319.6 28 4.9 28.7a8 8 0 0 0-3.3-2.2c-2-.8-5.1-.5-6.3 2.3-.8 2-.4 4.6 2 6.6 4.4 3.5 10 1.1 10 1.1l-.6-4-3-23.4s3.2 4.8 14.1 4.3l.3-5.3c-11.6 3.3-18-8-18-8"/>
    <path fill="#a737b4" d="M322.6 65.6q-2.9.1-5.9-2c-2.7-2.2-2.8-5-2-7 1.1-2.7 4.2-3.2 6.6-2.4q1.6.6 2.8 1.7L319.4 28a.3.3 0 0 1 .5-.2c0 .1 6.5 11.2 17.7 8h.3l.1.2-.3 5.3q0 .3-.3.3c-8.4.4-12.3-2.3-13.7-3.7l3.4 26.5q0 .1-.2.3s-1.9.8-4.3.8m-3.4-11.2c-1.6 0-3.3.7-4 2.5-.7 1.7-.6 4.3 1.9 6.3 3.7 3 8.4 1.5 9.4 1.1l-3.4-27.1.1-.3h.4c0 .1 3.1 4.7 13.6 4.2l.2-4.6c-9.3 2.4-15.3-4.4-17.3-7.2l4.7 27.3a.3.3 0 0 1-.5.3q-1.4-1.5-3.2-2.2-1-.3-2-.3"/>
    <path fill="#ff70bc" d="m282.3 36 4.7-12.2-.6 13L296 42l-10.7-.7s-5 12.6-5 12.2l1-13.6-9-4.4z"/>
    <path fill="#ff70bc" d="m280.2 53.8-.3-.3 1.2-13.4-9-4.4-.1-.3.3-.2 9.8.4 4.7-11.9a.3.3 0 0 1 .5.1l-.6 12.9 9.5 5q0 .2 0 .4t-.2.2l-10.5-.7a59 59 0 0 1-5.3 12.2m-6.6-18 7.9 3.9q.2 0 .1.3l-1 12 4.7-11 9.5.7-8.5-4.6-.1-.3.5-11.3-4.1 10.5-.3.2zM261.4 142.4l-1.7-20.3 8.2 18.1 21.6-3-19.9 8.7 3.4 26-11-24.8-15.5 2.5z"/>
    <path fill="#ff70bc" d="m273 172.3-.3-.2-10.9-24.7-15.2 2.5a.3.3 0 0 1-.2-.5l14.7-7.2-1.6-20q0-.3.2-.3l.3.1 8 17.9 21.5-2.9q.2 0 .3.2t-.2.3l-19.7 8.6 3.3 25.8a.3.3 0 0 1-.2.4m-11-25.5.3.2 10.1 23.1-3-24.1v-.3l18.2-7.9-19.7 2.7q-.2 0-.3-.2l-7.5-16.6 1.5 18.6-.1.3-13.2 6.4z"/>
    <path fill="#9e86ff" d="m284.4 171.1 1.7-10.4 13.5 1.3-1 10.6z"/>
    <path fill="#9e86ff" d="m298.6 173-14.2-1.6-.2-.3 1.6-10.4q0-.2.3-.2l13.5 1.3q.3 0 .3.3l-1 10.6v.1zm-13.8-2.1 13.6 1.4 1-10-13.1-1.3z"/>
    <path fill="#ff9838" d="M318.8 154.3a4 4 0 0 1 5.3-.2c1.2 1 1 3-.4 4-1.8 1.3-4.3 1-5.3-.3-1-1-.4-2.7.4-3.5"/>
    <path fill="#9e86ff" d="m216.5 173 1.7-.4 2.2-.4q1.6-.4 3.4-1.2 1.9-.8 3.3-2.6a45 45 0 0 0 7-10.6c.5-1 .5-.8 1.1-1.7-.2 1.1-.1 1-.6 2a58 58 0 0 1-7.7 11.7l-1.6 1.3-1.8 1-3.6.9-2.2.1zM228.7 174.8l1-.3 1.4-.5a10 10 0 0 0 4-3q1.8-2.2 2.9-4.2l1.4-2.7.8-1h.1c0 .7 0 .6-.3 1.3a37 37 0 0 1-4.8 7.7 10 10 0 0 1-4.3 2.7l-1.4.2zM155.7 48.3l-.2-2q0-.9.2-2.7c.4-2.6 1.3-6.2 3.3-9.3a18 18 0 0 1 7.3-6.5 24 24 0 0 1 5.4-2c1.3-.2 1.2-.2 2.5-.1l-2.3.7a27 27 0 0 0-7 3A18 18 0 0 0 159 36a25 25 0 0 0-2.7 8.4l-.4 2.6c0 .6 0 .8-.2 1.4M149 44.5l-.3-1.8.2-2.3c.4-2.3 1.2-5.4 2.7-8.2a20 20 0 0 1 10-9c1-.5 1-.4 2-.6v.1l-1.8 1a24 24 0 0 0-5.5 3.6 19 19 0 0 0-4.5 6.3 28 28 0 0 0-2.3 7.5l-.3 2.2z"/>
    <path fill="#ff70bc" d="m188 20.2.7 5.5 14.2-2.2-1.4-6.9z"/>
    <path fill="#ff70bc" d="m188.5 26-.9-6 14.2-3.7 1.5 7.4zm-.3-5.6.7 5 13.7-2.2-1.3-6.2z"/>
    <path fill="#9e86ff" d="m218 21.4 5.7 8.8 5.2-9.7z"/>
    <path fill="#9e86ff" d="M223.7 30.4h-.3l-5.7-8.8a.3.3 0 0 1 .2-.4l11-1q.1 0 .3.2v.2l-5.3 9.7zm-5.2-8.7 5.2 8 4.8-8.9z"/>
    <path fill="#a737b4" d="m153.8 164 9.4 7.6-13 4.3z"/>
    <path fill="#a737b4" d="m149.8 176.4 3.8-12.8 10.1 8.1zm4.1-11.9-3.3 11 12-4z"/>
    <path fill="#9e86ff" d="m142.8 157-1.6.5-1.8.9q-1.4.6-2.5 2.2-1 1.6-1.4 3.7l-.2 2q0 1.2-.3 2.1-.4 2-1.2 3.5l-1.4 1.9-2 1.3c-1 .5-.9.4-1.8.6v-.1l1.6-1a8 8 0 0 0 3.5-4.5 17 17 0 0 0 1-5v-1l.3-1q.5-2 1.7-3.5a8 8 0 0 1 2.8-2.1c1-.4 1-.4 2.1-.6zM142.2 139.9q-1.6 0-2.5.3l-1.9.8-.9.5-1 .7a14 14 0 0 0-2.5 2.5 20 20 0 0 1-7.6 6.8q-2.6 1.3-5.7 1.3-3 0-6-1.5-2.6-1.4-5.4-2.2-2.9-1-5.5-.5-2.8.4-4.8 1.9l-1 .7-1 .8-1.6 1.6c-1 1-2.8 2.7-5 4q-1.7 1-3.5 1.4a10 10 0 0 1-4.5 0l-1-.3-2.5-1a32 32 0 0 0 5.3.9q1.6.2 3.6-.6 2.2-.7 4-2.3a37 37 0 0 0 5-4.6l1.5-1.1q1.8-1.4 4.3-2 2.6-.6 5.2 0 2.7.4 5.1 1.6 2.5 1.2 5 2 2.5.7 5.1.2t4.7-2q2.2-1.3 3.8-3l1.5-2 .7-.8.8-.9 2.3-1.9a11 11 0 0 1 4.4-1.5zM82.2 133.8a10 10 0 0 0 6 1.2q1.2-.1 2.9-1.1 1.5-1.2 3.1-3 1.5-1.6 3.6-3.4 1-.8 2.4-1.3 1.2-.5 2.6-.7h1.4l1.4.1q.8 0 1.4.4l1.3.5q2.5 1.6 4.5 3.2 2.1 1.8 4.5 2.3 2.5.2 4.5-1t3.5-2.5l1.9-1.6q1.2-1 2.7-2t3.2-1.2q1.6-.2 2.6.1l1.5.6q.5.2.9.5l1.9 1.5-1.4-.7-.8-.5-.9-.3-1.4-.5q-1.3-.3-3.3.2-1.8.7-3.6 2l-3.3 2.9q-1.5 1.4-3 2a9 9 0 0 1-4.2 1.3q-1.2 0-2.3-.4-1.2-.4-2.2-1.1l-3.8-3a10 10 0 0 0-4.3-2 10 10 0 0 0-4.7.5 11 11 0 0 0-3.9 2.5l-3.2 3.2q-1.5 1.6-3.4 2.6-1 .5-1.7.5l-1 .1c-.8 0-1.4 0-2.8-.5a9 9 0 0 1-2.6-1.4"/>
    <path fill="#ff70bc" d="m119.1 88 .8 28.4 4.2-28.2 22.3-3-22.3-3-1-24-3.8 24.3-23.6 2z"/>
    <path fill="#ff70bc" d="m119.9 116.7-.3-.3-.8-28.2-23.2-3.4a.3.3 0 0 1 0-.5l23.4-2 3.8-24q0-.3.2-.3t.3.3l1 23.7 22.4 3.3-.3.2h-.1l-3.4.5-18.6 2.5-4.2 28zM98 84.7l21 3q.3 0 .3.2l.6 25.4 3.8-25q0-.3.3-.3l20.2-2.7-20.5-3-1-21.3-3.3 21.5q0 .3-.2.3z"/>
    <path fill="#a737b4" d="m138 70-1.3-6.9 5.8-2.5 1.8 6.4z"/>
    <path fill="#a737b4" d="m138 70.2-.2-.2-1.4-6.8q0-.2.2-.3l5.7-2.5h.3l.1.2 1.8 6.3-.1.3-6.3 3m-1-7 1.2 6.3 5.8-2.7-1.7-5.8z"/>
    <path fill="#ff9838" d="m95 101.5 5 14.4 4.1-1.3-5.3-14.3z"/>
    <path fill="#a737b4" d="M77.3 106.8c-2.8-.3-4.2 1.6-5 3.5l-2.7-17-3 1.5 6.4 23.9s5 0 6.8-5c1.2-3.3 0-6.5-2.5-6.9"/>
    <path fill="#a737b4" d="m73 119-.3-.3L66.3 95l.1-.3 3.1-1.6h.3l.1.2 2.6 16.1q1.6-3 4.8-2.7 1.6.1 2.5 1.7c1 1.4 1 3.5.3 5.4a8 8 0 0 1-7 5.2m-6.1-24 6.3 23.4c1 0 4.8-.6 6.4-4.9q1-2.8-.2-5a3 3 0 0 0-2.2-1.4q-3.2-.4-4.6 3.3l-.2.2-.3-.3-2.7-16.6z"/>
    <path fill="#ff9838" d="m127.8 46.7-9.5-3.5 12.4-11.6z"/>
    <path fill="#9e86ff" d="m98.1 32.2 3.3 5.6 6.9-6.6-4.7-3.5z"/>
    <path fill="#9e86ff" d="m101.4 38-.2-.1-3.3-5.6V32l5.6-4.5h.3l4.6 3.5.1.2v.2l-6.9 6.6zm-2.9-5.8 3 5.1 6.3-6-4.2-3.3z"/>
    <path fill="#ff70bc" d="m66.6 57.5 7.4-7.2-10.7-3.6z"/>
    <path fill="#ff70bc" d="M66.4 58 63 46.3 74.5 50zM63.7 47l3 9.8 6.7-6.5z"/>
    <path fill="#181225" d="m249.4 43.6-1-.2-.3-.3q0-.3.3-.3l1.1.3a.3.3 0 0 1 0 .5"/>
    <path fill="#181225" d="M249.6 43.6h-.2a.3.3 0 0 1 0-.5h.3l.2.4zM241.6 63h-.2c-4.8-3.2-21.2-7.5-38.2-10.1-14-2.2-28-3.3-31.8-3.2H168q-1.5-1.2-2.2-3.7-.5-2.3-.1-4.7 1.3-6.8 7.5-8 .3 0 .4.2 0 .2-.3.3-5.8 1.2-7 7.5-.5 2.4 0 4.6a7 7 0 0 0 2 3.4l3.1-.2c3.9 0 17.9 1 32 3.2a168 168 0 0 1 36.3 9.1q-2-2.1-2.7-4.8-1-3.9.5-7.5c2-4.6 5.2-6 7.9-6.3-7.6-1.5-23.3-4.6-34.8-6.2a.3.3 0 1 1 0-.5c13.5 1.9 32.4 5.6 37.9 6.8q.2 0 .2.3l-.3.2a9 9 0 0 0-10.4 5.9q-1.5 3.5-.5 7.1t4.3 6.1a.3.3 0 0 1-.2.5"/>
    <path fill="#181225" d="M249.7 43.7h-.2a.3.3 0 0 1-.2-.4l.4-.2h.1a.3.3 0 0 1 0 .6"/>
    <path fill="#a737b4" d="M95 73.4c1 2.2-1 3.9-2.4 4.3s-3.8 0-4.4-2c-.5-1.9 1-3.5 2.4-4s3.6 0 4.4 1.7"/>
    <path fill="#a737b4" d="M91.6 78.1q-1.2 0-2.2-.5T88 75.8c-.5-2 1-3.8 2.6-4.4s4 0 4.7 1.9a3 3 0 0 1 0 2.5c-.4 1.2-1.6 1.9-2.5 2.2zm0-6.4-1 .2c-1.1.4-2.6 2-2.1 3.8q.5 1.2 1.2 1.4 1.4.8 2.8.3 1.5-.4 2.3-1.8.4-1 0-2c-.6-1.2-2-1.9-3.1-1.9"/>
    <path fill="#ff9838" d="m294.7 115.9-4-8.4 10.6.6z"/>
    <path fill="#ff70bc" d="m321.4 86.9 3.9-10.8 5.6 1.1-3.7 11z"/>
    <path fill="#ff70bc" d="m327.2 88.5-5.9-1.4-.2-.3L325 76q0-.2.3-.2l5.6 1 .2.2v.2l-3.7 11zm-5.5-1.8 5.3 1.2 3.5-10.4-5-1z"/>
    <path fill="#181225" d="M245 64.1c-2.1-1.9-5.2-3.2-5.2-3.2l-.3-.1a11 11 0 0 1-2.3-4.3c-34.2-4.8-64.8-9.6-71-10.6q.6 2.6 2 3.7 1.5-.3 3.2-.2c3.8 0 17.6 1 31.9 3.2 16 2.5 33.2 6.8 38.3 10.1 7 4.6 5.7 7.2 4 14a467 467 0 0 1-34.6 83s-3.6 6-16.8 6a86 86 0 0 1-13.6-1 96 96 0 0 0 11 1.4c12.1.4 18-2.9 20.2-6.2 2.4-3.6 9.8-18.6 14.7-29.8A531 531 0 0 0 247 74c1.4-4.8.4-7.6-2-9.9"/>
  </g>
  <path stroke="#e6e6e9" d="M.5.5h401v191H.5z"/>
  <defs>
    <linearGradient id="b" x1="145.5" x2="254.5" y1="-36" y2="247" gradientUnits="userSpaceOnUse">
      <stop stop-color="#5a3bda"/>
      <stop offset="1" stop-color="#2a1871"/>
    </linearGradient>
    <clipPath id="a">
      <path fill="#fff" d="M0 0h402v192H0z"/>
    </clipPath>
  </defs>
</svg>