<svg xmlns="http://www.w3.org/2000/svg" width="402" height="192" fill="none" viewBox="0 0 402 192">
  <g clip-path="url(#a)">
    <g clip-path="url(#b)">
      <path fill="url(#c)" d="M0 0h402v192H0z"/>
      <g clip-path="url(#d)">
        <path fill="#9e86ff" d="M285 120.2a11 11 0 0 0 4 5.2l1.2.8q.4 0 .8.4l.9.3q1.8.7 5 .7c2 0 4.4-.6 7-.8q3.7-.6 8 0 2.1.3 4.1 1.4 2 1.2 3.4 3 2.8 3.4 4.9 7.4c1.4 2.5 2.8 5.1 5 6.8a12 12 0 0 0 3.6 1.9q2 .5 4 .7 4 .2 7.8-.2l7.1-.3c2 0 5.8 0 9.5 1.3q1.3.5 2.5 1.2l1.2.7 1 .8q1 .7 1.8 1.5l.6.7.6.6c1.4 1.7 1.9 2.6 2.4 3.4s.8 1.7 1.7 3.5l-2.4-3.2c-.5-.7-1-1.5-2.5-3q-1.5-1.8-4.1-3.7-2.7-1.7-6.4-2.3-3.5-.6-6.8-.4l-5.7.3q-3.3.3-7 .3-3.7.1-7.4-1.5-1.8-.8-3.3-2.3t-2.5-3.2l-4-6.8a19 19 0 0 0-5-5.8c-2-1.4-4.6-2-7-2q-3.9 0-7.4.6t-7 .4q-1.7-.2-2.6-.6t-1.6-.7-1.5-1l-1-.7-1-1.1a10 10 0 0 1-2-4.3v-.1M291.2 99.2a12 12 0 0 0 6.7 3.1c2.1.3 4.7.4 9.2-1.5l7.1-3.4q3.9-2 8.5-3.2c3-.7 6.5-.8 9.7.6q4.6 2.1 8.2 5.6 3.6 3.6 7.4 6.4 4 3 8.4 3.8l2.2.2h2.2q2.3-.1 4.2-.5a45 45 0 0 0 7.6-2.2l4.2-1.6q2.6-1.1 5.7-1.9.8-.2 1.6-.3l1.6-.2h3q2.8.4 4.4 1l2.7 1.1 1.6 1c1 .4 1.8 1 3.6 2.3v.2l-4-2-1.6-.7-2.6-1-2.7-.7q-1.6-.2-3.4-.2-3.6.1-7.4 1.7l-7.3 2.8a48 48 0 0 1-8.1 2.1l-2 .2-1 .1h-3q-4.2-.5-8.2-2.6c-5.1-3-8.9-7.8-13.7-11.2q-3.5-2.7-7.8-3.3c-2.9-.3-5.7.4-8.3 1.3-5.3 1.9-10 4.9-14.7 6.4-2.4.8-3.7.8-5 .8h-.9l-1-.2a13 13 0 0 1-5.3-2.2l-2-1.8q0 0 .2 0M298.1 77.5c2.2.7 3.5.9 5 1h2.6q1.5 0 3.7-.8 2.1-.8 4-3l3.3-5q1.5-2.6 3.8-5.3a13 13 0 0 1 9.2-4.3h3.4q3.3.3 6.4.8 3 .5 5.9.3 2.7-.2 4.8-1.5a26.8 26.8 0 0 0 9.3-10l1.4-2.8c.2-.7.6-1.3 1-2.7h.1c-.1 1.6-.3 2.3-.5 3q-.2.9-1.1 2.9a26 26 0 0 1-10.3 11q-2.4 1.1-4.3 1.3c-3.5.4-7.2-.5-11-1-3.7-.3-7.9-.5-11 1.7-3.3 2.2-5.2 5.9-7.3 9.1q-1.5 2.5-3.6 4.5a11 11 0 0 1-8.2 2.8 17 17 0 0 1-6.7-2z"/>
        <path fill="#a737b4" d="m382 1.4 7.3 43.4a12 12 0 0 0-5-3.3c-3.2-1.2-7.8-.7-9.5 3.4-1.3 3.2-.7 7.2 3 10.1 6.7 5.4 15 1.7 15 1.7l-.7-6.1-4.6-35.5s4.8 7.3 21.4 6.5l.5-8c-17.7 5-27.5-12.2-27.5-12.2"/>
        <path fill="#a737b4" d="M386.4 58.4c-2.8 0-6-.7-8.9-3-4.1-3.4-4.3-7.7-3-10.6 1.6-4.2 6.3-5 9.9-3.7q2.4.8 4.2 2.5l-7-42.2a.4.4 0 0 1 .7-.2c0 .1 9.8 16.9 27 12a.4.4 0 0 1 .5.4l-.4 8q0 .4-.4.5c-13 .6-18.8-3.6-20.9-5.7l5.2 40.3q0 .3-.3.4s-2.9 1.3-6.6 1.3m-5.1-17c-2.5 0-5 1-6.1 3.7s-1 6.6 2.8 9.6c5.8 4.6 12.9 2.3 14.4 1.8L387 15.2a.4.4 0 0 1 .8-.3s4.8 7 20.6 6.3l.4-7c-14 3.6-23.2-6.8-26.2-11l7 41.6a.4.4 0 0 1-.7.3q-2-2.3-4.9-3.3-1.4-.5-2.8-.5"/>
        <path fill="#7553ff" d="m325.2 13.3 7.2-18.4-.9 19.8 14.6 7.8-16.3-1S322 40.5 322 40l1.7-20.6-13.8-6.8z"/>
        <path fill="#7553ff" d="M322 40.5a.4.4 0 0 1-.4-.5l1.8-20.4-13.6-6.6a.4.4 0 0 1-.2-.5q0-.3.4-.3l15 .6 7-18a.4.4 0 0 1 .8.1l-.8 19.5 14.3 7.8a.4.4 0 0 1-.3.8l-16-1c-7 17.3-7.5 18.5-8 18.5M312 13l12 6q.3 0 .2.3l-1.5 18.3 6.7-16.4.4-.2 14.4.9-12.9-7-.2-.3.8-17.3-6.3 16q0 .3-.4.3zM402.7 140l-.6-16.7-4.9 16-13.8 2.3 13.3 3.7s.8 17.5 1 17c0-.4 4.4-17 4.4-17l13-1.6z"/>
        <path fill="#7553ff" d="M397.5 162.7q.4 0 .5-.2l4.4-16.8L415 144q.3 0 .3-.3t-.2-.4l-12.2-3.6-.5-16.5q0-.3-.3-.4-.3 0-.4.3l-4.9 15.9-13.6 2.2q-.3 0-.3.3t.3.3l13 3.7c.8 16 .9 17 1.2 17.1m15.8-19.1L402 145q-.1 0-.3.2l-3.9 15.1-1-15.3-11.8-3.3 12.3-2q.2 0 .3-.2l4.2-14 .5 14.5q0 .3.3.4zM293.4 175l-2.4-30.7 12.3 27.4 33-4.4-30.4 13.1L311 220l-16.6-37.7L271 186z"/>
        <path fill="#7553ff" d="M311 220.4q-.2 0-.3-.2l-16.5-37.5-23.3 3.7a.4.4 0 0 1-.2-.7l22.3-11-2.5-30.4a.4.4 0 0 1 .8-.2l12.3 27.2 32.6-4.4q.4 0 .4.3t-.2.5l-30 13 5 39.3a.4.4 0 0 1-.4.4m-16.6-38.6q.3 0 .4.3l15.4 35-4.7-36.6q0-.3.3-.4l27.5-12-30 4q-.2 0-.4-.2l-11.3-25.2 2.2 28.3q0 .3-.2.4l-20 9.8z"/>
        <path fill="#ff9838" d="M352.5 176a6.5 6.5 0 0 1 8-.3c2 1.6 1.4 4.6-.5 6-2.8 2-6.5 1.4-8.1-.4-1.5-1.6-.7-4.1.6-5.2"/>
        <path fill="#9e86ff" d="M136.6 42.7q.4-2 .7-3 .2-1.3 1.4-3.8c1.8-3.7 4.7-8.4 9-12a27 27 0 0 1 13.5-6.4 36 36 0 0 1 8.6-.5c2 .3 1.9.3 3.7.9v.1h-3.7a41 41 0 0 0-11.3 1.4c-3.8 1-8.2 3.3-11.6 6.7-3.4 3.3-6 7.6-7.6 11.1l-1.7 3.6c-.3 1-.5 1.1-.9 2M128.5 34.3l.5-2.7q.2-1 1.3-3.3a40 40 0 0 1 7.5-10.8 30 30 0 0 1 18.4-8.8c1.8-.1 1.6 0 3.3.2V9l-3.2.6a36 36 0 0 0-9.6 2.8 29 29 0 0 0-9.3 7.2c-2.8 3.1-5 6.8-6.5 10l-1.5 3zM217.1 16.5l8.7 13.3 8-14.7z"/>
        <path fill="#9e86ff" d="m225.8 30.2-.4-.2-8.7-13.3a.4.4 0 0 1 .4-.6l16.6-1.4.4.1v.5l-8 14.7zm-8-13.3 8 12 7.2-13.3z"/>
        <path fill="#a737b4" d="m135.4 165.2 14.2 11.5-19.6 6.5z"/>
        <path fill="#a737b4" d="m129.3 183.9 5.8-19.4 15.3 12.3zm6.3-18-5 16.7 18.1-6z"/>
        <path fill="#9e86ff" d="M112.4 164.6a12 12 0 0 0-3.8.5l-2.8 1.1-1.4.8q-.7.5-1.5 1.1-1.7 1.2-3.8 3.7a30 30 0 0 1-11.5 10.4q-4.1 1.9-8.8 2-4.7-.2-9-2.3a59 59 0 0 0-8.2-3.4 17 17 0 0 0-15.7 2.1l-1.5 1.2-1.4 1.1-2.5 2.5a41 41 0 0 1-7.6 6q-2.6 1.6-5.3 2.2a16 16 0 0 1-6.9 0l-1.6-.5-3.7-1.5 4 .9 1.5.2 2.5.3q2.5.2 5.6-.9t6-3.4a57 57 0 0 0 5.4-4.8l2.3-2.3L45 180a18.4 18.4 0 0 1 14.5-3.2q4 1 7.7 2.6c2.5 1 4.9 2.5 7.4 3.1q4 1 8 .3a21 21 0 0 0 7.1-3q3.2-2 5.7-4.8l2.2-2.8 1.1-1.4 1.2-1.3a19 19 0 0 1 3.6-2.8 16 16 0 0 1 6.7-2.3l2.3.1q.2 0 .1.1M21.4 162a16 16 0 0 0 9.1 1.9q1.9-.1 4.3-1.8a36 36 0 0 0 4.8-4.4q2.3-2.7 5.5-5.2 1.5-1.2 3.5-2 2-1 4-1l1.1-.1h1.1q1 0 2.2.2 1 .1 2 .5t2 .9c2.6 1.3 4.7 3.2 6.8 4.8 2.1 1.7 4.4 3.2 6.8 3.4q3.7.3 6.8-1.5 3-1.6 5.4-3.7l2.9-2.5q1.7-1.5 4-3 2.4-1.5 5-1.9 2.4-.2 3.8.2l2.3.9q.8.3 1.4.8l3 2.3h-.2q-1.2-.8-2-1.2l-1.2-.6-1.3-.6-2.2-.6a10 10 0 0 0-5 .2q-2.8 1-5.5 3.2l-5 4.3a29 29 0 0 1-4.5 3.1q-2.7 1.6-6.4 1.9-1.8 0-3.6-.6-1.6-.6-3.3-1.7-2.9-2.2-5.8-4.5a15 15 0 0 0-6.5-3 15 15 0 0 0-7 .6q-3.4 1.3-6 3.8l-4.9 5a19 19 0 0 1-5.2 4q-1.5.6-2.5.7l-1.7.1c-1 0-2 0-4-.7a13 13 0 0 1-4.1-2.3zM35.1 30.5a16 16 0 0 0 8.1 4.6q1.9.4 4.7-.4 2.7-1 5.9-2.8 3-1.8 6.7-3.3 2-.7 4-.9 2.1 0 4.2.3l1 .2 1 .3q1.2.3 2 .9l2 1.1 1.5 1.4q2.9 3.2 5 6.7c1.6 2.2 3.2 4.3 5.5 5.3q3.4 1.3 7 .6 3.3-.7 6.2-2l3.5-1.4q2.1-1 4.8-1.7 2.7-.8 5.2-.3t3.7 1.3l2 1.5 1 1.2 2 3-1.6-1.7-1-1-1-.9-2-1.2a10 10 0 0 0-4.8-1.3q-3 .1-6.2 1.4-3 1.3-6 2.5t-5.2 1.7q-3.2.7-6.8-.1-1.7-.6-3.2-1.7-1.5-1-2.6-2.6-2.2-3-4.2-6a15 15 0 0 0-5.3-4.8 15 15 0 0 0-7-1.6c-2.3 0-4.6.9-6.7 1.9l-6.2 3.2q-3 1.7-6.2 2.3h-2.6l-1.6-.4q-1.3-.4-3.7-2a13 13 0 0 1-3.2-3.3z"/>
        <path fill="#7553ff" d="m77.4 92.3 1.1 43.3L85 92.8l33.8-4.5L85 83.7l-1.6-36.4L77.6 84l-35.8 3.2z"/>
        <path fill="#7553ff" d="M78.5 136a.4.4 0 0 1-.4-.4l-1.1-43-35.3-5a.4.4 0 0 1 0-.8l35.6-3.1 5.6-36.5q.1-.4.5-.3.4 0 .4.4l1.6 36 33.4 4.6q.4 0 .4.4.1.1-.4.4h-.1l-5.1.7-28.3 3.8-6.4 42.5q0 .3-.4.3m-33-48.7 32 4.6q.3 0 .3.4l1 38.5 5.8-38q0-.3.3-.4l30.8-4L85 84a.4.4 0 0 1-.4-.4L83 51.5l-5 32.6q0 .3-.4.4z"/>
        <path fill="#a737b4" d="m106.1 65-2-10.4 8.7-3.8 2.8 9.7z"/>
        <path fill="#a737b4" d="m106.1 65.4-.4-.3-2-10.4q0-.3.2-.5l8.8-3.8h.3l.2.3 2.8 9.7q0 .4-.2.4l-9.5 4.6zM104.5 55l2 9.5 8.6-4.2-2.5-8.8z"/>
        <path fill="#ff9838" d="m40.9 112.9 7.4 21.9 6.3-2-8-21.7z"/>
        <path fill="#a737b4" d="M26.2 119.5c-4.3-.5-6.4 2.4-7.4 5.3l-4.2-25.9-4.7 2.4 9.8 36.2s7.6 0 10.4-7.6c1.8-5-.1-9.9-4-10.4"/>
        <path fill="#a737b4" d="M19.7 138a.4.4 0 0 1-.4-.4l-9.8-36.2q0-.3.2-.5l4.7-2.4h.4l.2.4 4 24.4q2.3-4.8 7.2-4.2 2.5.4 3.9 2.6a10 10 0 0 1 .4 8.3c-2.9 7.8-10.7 8-10.8 8m-9.3-36.5 9.6 35.6a11 11 0 0 0 9.7-7.4 9 9 0 0 0-.3-7.5q-1.3-1.9-3.3-2.3-4.8-.6-7 5 0 .3-.4.3l-.4-.3-4-25.3z"/>
        <path fill="#ff9838" d="M97.9 26.4 83.4 21l18.9-17.5z"/>
        <path fill="#9e86ff" d="m45.6 7.6 5 8.5L60.8 6 54 .9z"/>
        <path fill="#9e86ff" d="m50.5 16.5-.3-.2-5-8.5v-.5L53.7.4h.6l7 5.4a.4.4 0 0 1 0 .7l-10.4 9.9zm-4.4-8.8 4.5 7.7 9.7-9.2-6.4-5z"/>
        <path fill="#7553ff" d="M-2.4 46 8.8 35l-16.2-5.3z"/>
        <path fill="#7553ff" d="M-2.6 46.8-8 29 9.6 35zm-4.2-16.5 4.6 15L8 35.2z"/>
        <path fill="#a737b4" d="M40.8 70.3c1.5 3.3-1.5 5.8-3.6 6.5-2.1.6-6 0-6.7-3-.9-2.9 1.4-5.4 3.6-6.2s5.5 0 6.7 2.7"/>
        <path fill="#a737b4" d="M35.6 77.4a7 7 0 0 1-3.3-.8q-1.7-1-2.2-2.6c-.9-3 1.3-6 3.8-6.8 2.4-.9 6 .1 7.2 2.9q1 2 .1 3.8a7 7 0 0 1-3.9 3.3zm.1-9.7q-.8 0-1.5.3c-1.8.6-4.1 2.9-3.3 5.7a4 4 0 0 0 1.8 2.2 6 6 0 0 0 4.4.5 6 6 0 0 0 3.3-2.9q.8-1.5 0-3c-.8-1.8-2.8-2.8-4.7-2.8"/>
        <path fill="#ff9838" d="m344.1 134.8-6-12.7 16 .9z"/>
        <path fill="#7553ff" d="m384.6 90.7 5.9-16.3 8.5 1.7-5.6 16.7z"/>
        <path fill="#7553ff" d="M393.4 93.2h-.1l-8.8-2-.3-.3v-.3l5.9-16.3q0-.3.5-.3l8.5 1.7a.4.4 0 0 1 .3.5L393.8 93q0 .3-.4.3m-8.3-2.8 8 1.9 5.3-16-7.7-1.4z"/>
      </g>
    </g>
    <path stroke="#e6e6e9" d="M.5.5h401v191H.5z"/>
    <path fill="#fff" d="M21 23.9c0-1.6 1.3-2.9 2.9-2.9h353.3c1.6 0 2.9 1.3 2.9 2.9v58c0 1.5-1.3 2.8-3 2.8H24a3 3 0 0 1-2.9-2.9z"/>
    <path stroke="#3a115f" stroke-opacity=".1" d="M23.9 21.5h353.3c1.3 0 2.4 1 2.4 2.4v58c0 1.2-1.1 2.3-2.4 2.3H23.9c-1.3 0-2.4-1-2.4-2.4V23.6a2.4 2.4 0 0 1 2.4-2.1Z"/>
    <path fill="#2b2233" d="m28.8 30.3-.1-.1v-.5h1.1v-2.5l-.7.5h-.2l-.2-.3v-.2l1.1-.9h.7l.1.1v3.2h.9l.1.2v.4l-.1.1zm3.6 0h-.1v-.8h.7l.1.1v.6l-.1.1zm4.8 0h-.9l-.5-.5-.2-.5a.1.1 0 0 1 0-.2h.7v.1l.2.3.3.1.4.1.6-.1q.3-.1.2-.4v-.3l-.4-.2-.6-.1-.7-.3q-.3 0-.5-.4l-.1-.5q0-.3.2-.6.1-.3.5-.4l.8-.2.6.1.5.3.3.3.1.4v.1h-.8l-.2-.4-.5-.1-.5.1-.2.4v.2l.4.2.5.2.8.2.5.4.1.6q0 .3-.2.6l-.5.4zm3.5 0H40l-.5-.5-.2-.7v-.5q0-.4.2-.7l.5-.5.7-.1.8.1.5.5.2.7v.5q0 .4-.2.7l-.5.4zm0-.5q.4 0 .5-.2l.2-.6v-.4q0-.4-.2-.6l-.5-.2-.4.2-.2.6v.4q0 .5.2.6zm3.2.6q-.3 0-.6-.2l-.4-.4-.1-.7v-1.7h.7V29q0 .8.7.8l.5-.2.2-.6v-1.6h.7v2.8l-.1.1H45l-.1-.1v-.3a1 1 0 0 1-1 .5m2.6 0v-.1l-.1-.1v-2.8h.7v.3l.4-.3h.8v.6h-.5q-.3 0-.5.2l-.1.4v1.6l-.2.1zm3.5 0q-.4 0-.7-.2-.3 0-.5-.4l-.2-.8v-.4l.2-.7.5-.5.7-.1h.7l.4.3.3.7-.1.1h-.6v-.1l-.3-.3-.3-.1-.5.1-.2.6v.4q0 .4.2.6l.5.2.3-.1.2-.4h.8v.3l-.2.3-.6.4zm3.3 0q-.6 0-1-.4-.3-.3-.4-1v-.3q0-.5.2-.8l.5-.5.7-.1q.5 0 .8.2.3.1.5.5l.1.8v.2h-2.1l.2.5q0 .1.2.2l.3.1h.3l.3-.2v-.1h.7v.3l-.3.3-.4.2zm-.6-1.8H54l-.1-.5-.2-.2-.4-.1H53l-.2.3z"/>
    <path fill="#57606b" d="M28.5 37.8q-.5 0-.8-.2-.3 0-.5-.4l-.1-.7v-1l.1-.7.5-.5.8-.1h.6l.7.6v.4h-.4l-.5-.5-.4-.1-.7.2-.2.7v1q0 .4.2.7l.7.2.4-.1q.3 0 .4-.3v-.8h-.7v-.3h1.2v1.3l-.6.4zm3 0-.7-.3q-.4-.3-.4-.9v-.3q0-.4.2-.7l.4-.4.6-.1.6.1.4.5.2.7v.2h-1.9v.4l.3.3.4.1.6-.3h.4v.2l-.2.3zm-.6-1.6h1.4l-.1-.4-.2-.2-.4-.2q-.3 0-.4.2l-.2.2zm3.5 1.5h-.5l-.3-.4v-1.8H33v-.3h.5v-1h.4v1h.7v.3H34v1.3l.1.4.3.1h.3l.1.1v.3h-.4m2.9.1-.5-.1-.3-.3-.2-.4q0-.3.3-.5t.8-.3h.7V36l-.1-.4-.5-.2-.3.1-.2.3h-.4v-.3l.2-.2.3-.1.4-.1h.5a1 1 0 0 1 .5.6v2h-.3v-.3l-.3.2zm0-.4h.4l.3-.3.1-.5v-.2l-.6.1-.5.2-.2.3v.2l.3.2zm2.1.3v-3.5h.3v3.5zm2.2.1a1 1 0 0 1-.9-.3q-.3-.3-.3-.9v-.3q0-.4.2-.7l.4-.4.6-.1.6.1.4.5.1.7v.2h-1.8v.4l.3.3.4.1.6-.3h.4v.2l-.2.3zm-.7-1.6h1.4l-.1-.4-.3-.2-.3-.2q-.3 0-.4.2l-.2.2zm2.6 1.5h-.1v-2.5h.4v.3l.3-.3h.7v.3h-.4l-.4.2-.2.5v1.5h-.3m2.8 0h-.5l-.2-.4-.1-.4v-1.4H45v-.3h.5v-1h.4v1h.7v.3h-.7v1.3l.1.4.3.1h.4v.4zm2 .1a1 1 0 0 1-.9-.3q-.3-.3-.3-.9v-.3q0-.4.2-.7l.4-.4.6-.1.6.1.4.5.1.7v.2h-1.8v.4l.3.3.4.1.6-.3h.4v.2l-.2.3zm-.7-1.6h1.3v-.4l-.3-.2-.3-.2q-.3 0-.4.2l-.2.2zm3.4 1.6-.5-.1-.3-.3-.2-.4v-1.2l.2-.4.3-.2.5-.1h.5l.3.3v-1.1l.1-.1h.3v3.5h-.3v-.3l-.4.3zm0-.4.5-.1.2-.3.1-.4V36l-.3-.3-.4-.1-.4.1-.2.3-.1.4v.7l.3.3zm3.8.3h-.1l-.7-2.4v-.1h.3l.7 2 .5-2h.5l.6 2 .6-2h.4l-.7 2.4v.1h-.5l-.6-1.9-.6 1.8v.1h-.4m3.5 0h-.1v-3.5h.4v1.3q.2-.2.4-.3l.5-.1.5.1.4.4.1.6v1.5H60v-1.5q0-.3-.3-.5 0-.2-.5-.2-.2 0-.5.2l-.2.5v1.5zm4 .1a1 1 0 0 1-.9-.3q-.3-.3-.3-.9v-.3q0-.4.2-.7l.4-.4.6-.1.6.1.4.5.1.7v.2h-1.8v.4l.3.3.4.1.6-.3h.4v.2l-.2.3zm-.7-1.6H63l-.1-.4-.3-.2-.3-.2q-.3 0-.4.2l-.2.2zm2.6 1.5H64v-2.5h.4v.3l.3-.3.5-.1.6.1q.3.2.3.4l.2.6v1.5h-.5v-1.5q0-.3-.2-.5l-.5-.2q-.3 0-.5.2l-.2.5v1.5h-.3m4.2 0v-2.5h.3v.3l.4-.3.5-.1.6.1.3.4.1.6v1.5h-.4v-1.5q0-.3-.2-.5l-.5-.2q-.3 0-.5.2l-.2.5v1.5h-.4m4 .1-.8-.3q-.3-.3-.4-.9v-.3l.2-.7.4-.4.6-.1.6.1q.3.2.4.5l.2.7v.2h-1.9l.1.4.2.3.4.1.6-.3h.5v.2l-.3.3zm-.7-1.6h1.4v-.4l-.3-.2-.4-.2q-.2 0-.4.2l-.2.2zm3.1 1.5zl-.8-2.4v-.1h.4l.6 2 .6-2h.4l.7 2 .5-2h.4l-.6 2.4v.1h-.5l-.6-1.9-.6 1.8v.1h-.4m4.6 0h-.1v-2.5h.4v2.5zm0-3h-.2v-.5h.5v.4zm2 3.1h-.5l-.3-.2-.2-.2V37h.3l.2.2h.2l.3.1h.4l.2-.4-.1-.2-.2-.1-.5-.1-.5-.2-.2-.2-.1-.4v-.3l.4-.3.6-.1h.4l.5.4v.2H82l-.2-.1-.2-.1H81l-.1.3v.2l.2.1.5.2.5.1.3.3v.7l-.4.3zm2.5 0h-.4l-.4-.2-.2-.2V37h.4l.2.2h.1l.3.1h.5l.1-.4v-.2l-.3-.1-.5-.1-.4-.2-.3-.2v-.7l.4-.3.5-.1h.5l.5.4v.2h-.4l-.1-.1-.2-.1h-.7v.5l.2.1.4.2.6.1.2.3v.7l-.4.3zm2.7 0-.6-.1-.3-.4-.1-.6v-1.5h.4v1.4q0 .8.7.8.3 0 .5-.2l.2-.6v-1.4h.4v2.5h-.3v-.3l-.4.3zm3 0-.8-.3q-.3-.3-.3-.9v-.3q0-.4.2-.7l.4-.4.6-.1.6.1.4.5.1.7v.2H89v.4l.3.3.4.1.6-.3h.4v.2l-.2.3zm-.6-1.6h1.4l-.1-.4-.3-.2-.3-.2q-.3 0-.4.2l-.2.2zm3.3 1.6H92l-.4-.2-.2-.2V37h.4l.2.2h.1l.3.1h.5l.1-.4v-.2l-.3-.1-.5-.1-.4-.2-.3-.2v-.7l.4-.3.5-.1h.5l.4.4.1.2h-.4l-.1-.1-.2-.1h-.7v.5l.2.1.4.2.6.1.2.3v.7l-.4.3zm3.7 0-.5-.1-.3-.3-.2-.4q0-.3.3-.5t.8-.3h.7V36l-.1-.4-.5-.2-.3.1-.2.3h-.4v-.3l.2-.2.3-.1.4-.1h.5a1 1 0 0 1 .5.6v2h-.3v-.3l-.3.2zm0-.4h.4l.3-.3.1-.5v-.2l-.6.1-.5.2-.2.3v.2l.3.2zm2.1.3zv-2.5h.4v.3l.3-.3h.7v.3H99l-.5.2-.1.5v1.5H98m2.8.1q-.5 0-.8-.3t-.4-.9v-.3l.2-.7.4-.4.6-.1.6.1.4.5.2.7v.2h-1.9l.1.4.2.3.4.1.6-.3h.5v.2l-.3.3zm-.7-1.6h1.4v-.4a1 1 0 0 0-.7-.4 1 1 0 0 0-.6.4zm4.7 1.6-.5-.1-.3-.3-.2-.4-.1-.6v-.6l.3-.4.3-.2.5-.1h.5q0 .2.3.3v-1.2h.4v3.5h-.4v-.3l-.3.3zm0-.4.5-.1.2-.3v-1.1l-.2-.3-.4-.1-.4.1-.3.3V37l.3.3zm3 .4-.8-.3q-.3-.3-.3-.9v-.3l.1-.7.4-.4.6-.1.7.1.4.5.1.7v.2h-1.8v.4l.3.3.3.1.6-.3h.5v.2l-.3.3zm-.6-1.6h1.3v-.4l-.3-.2-.4-.2q-.2 0-.3.2l-.3.2zm3.4 1.5h-.4l-.3-.4v-1.8h-.5v-.3h.4v-1h.4v1h.8v.3h-.7v1.7l.4.1h.3v.4zm2 .1-.8-.3q-.3-.3-.4-.9v-.3l.2-.7.4-.4.6-.1.6.1.4.5.2.7v.2H112l.1.4.2.3.4.1.6-.3h.5v.2l-.3.3zm-.7-1.6h1.4v-.4l-.3-.2-.4-.2q-.2 0-.4.2l-.2.2zm3.5 1.6-.6-.1-.4-.4-.1-.7v-.4l.1-.6.4-.4.6-.1h.5l.4.3.3.5v.1h-.5q0-.4-.3-.4l-.4-.1q-.2 0-.5.2l-.2.6v.3l.2.6.5.2.4-.1.3-.3v-.1h.4l-.1.5-.6.3zm2.8 0q-.3 0-.5-.2l-.2-.3-.1-.4v-1.4h-.5v-.3h.5v-1h.4v1h.7v.3h-.7v1.3l.1.4.3.1h.3l.1.1v.3zm2 0a1 1 0 0 1-.9-.3q-.3-.3-.3-.9v-.3q0-.4.2-.7l.4-.4.6-.1.6.1.4.5.1.7v.2h-1.8v.4l.3.3.4.1.5-.3h.5v.2l-.2.3zm-.7-1.6h1.3v-.4l-.3-.2-.3-.2q-.3 0-.4.2l-.3.2zm3.4 1.6-.5-.1-.3-.3-.2-.4-.1-.6v-.6l.3-.4.3-.2.5-.1h.5l.3.3v-1.1l.1-.1h.3v3.5h-.3v-.3l-.4.3zm0-.4.5-.1.2-.3v-1.1l-.2-.3-.4-.1-.4.1-.2.3-.1.4v.7l.3.3zm4.3.4q-.4 0-.6-.2l-.4-.4-.2-.5v-.5q0-.3.2-.6l.4-.4.6-.1.6.1.4.4.2.6v.5q0 .3-.2.5 0 .3-.3.4zm0-.4q.3 0 .5-.2l.2-.6v-.4q0-.3-.2-.5l-.5-.2q-.3 0-.5.2l-.2.5v.4q0 .5.2.6zm2 .3h-.1v-2.5h.4v.3l.3-.3h.7v.3h-.4l-.4.2-.2.5v1.5h-.4m3.6.1-.5-.1-.3-.3-.1-.4q0-.3.3-.5t.7-.3h.7V36l-.1-.4q-.1-.2-.5-.2l-.3.1-.2.3h-.4v-.3l.2-.2.3-.1.5-.1h.5a1 1 0 0 1 .5.6v2h-.4v-.3l-.2.2zm0-.4h.5l.2-.3.1-.5v-.2l-.5.1-.6.2-.2.3.1.2.2.2zm2.1.3v-2.5h.4v.3l.3-.3.5-.1.6.1.3.4.2.6v1.5h-.5v-1.5q0-.3-.2-.5l-.5-.2q-.3 0-.5.2l-.2.5v1.5h-.4m4.3 0v-2.5h.3v2.5zm0-3h-.1v-.5h.5v.4h-.4m2 3.1h-.5l-.3-.2-.2-.2V37h.4l.1.2h.2l.3.1h.5l.1-.4v-.2l-.3-.1-.5-.1-.4-.2-.3-.2v-.7l.4-.3.5-.1h.5l.4.4.1.2h-.4l-.1-.1-.2-.1h-.7l-.1.3v.2l.3.1.4.2.6.1.2.3.1.3-.1.4-.4.3zm2.6 0h-.5l-.3-.2-.2-.2V37h.3l.2.2h.2l.3.1h.4l.2-.4v-.2l-.3-.1-.5-.1-.5-.2-.2-.2-.1-.4.1-.3.3-.3.6-.1h.4l.5.4v.2h-.3l-.2-.1-.1-.1h-.7l-.1.3v.2l.2.1.5.2.5.1.3.3v.7l-.4.3zm2.6 0-.5-.1-.4-.4v-2.1h.4v1.4q0 .8.7.8.3 0 .5-.2l.2-.6v-1.4h.4v2.5h-.4v-.3l-.4.3zm3.1 0q-.5 0-.8-.3t-.3-.9v-.3l.1-.7.4-.4.6-.1.7.1.4.5v.9h-1.8l.1.4.3.3.3.1.6-.3h.5v.2l-.3.3zm-.7-1.6h1.4v-.4l-.3-.2-.4-.2q-.2 0-.4.2l-.2.2zm4.8 1.6-.6-.1-.4-.4-.2-.7v-.4q0-.3.2-.6 0-.3.4-.4l.6-.1h.5l.3.3.3.5v.1h-.4l-.3-.4-.4-.1q-.3 0-.5.2l-.2.6v.3q0 .4.2.6l.5.2.4-.1.2-.3v-.1h.5v.3l-.2.2-.5.3zm1.8 0-.1-.2v-3.3l.1-.1h.3v1.3l.4-.3.5-.1.6.1.3.4.1.6v1.5h-.4v-1.5l-.2-.5-.5-.2q-.3 0-.5.2t-.2.5v1.5h-.4m3.7 0-.5-.1-.3-.3-.1-.4q0-.3.3-.5t.7-.3h.7V36l-.1-.4q0-.2-.5-.2l-.3.1-.2.3h-.4v-.3l.2-.2.3-.1.5-.1h.5a1 1 0 0 1 .5.6v2h-.4v-.3l-.2.2zm0-.4h.5l.2-.3.1-.5v-.2l-.5.1-.6.2-.2.3.1.2.2.2zm2.1.3v-2.5h.4v.3l.3-.3.5-.1.6.1.3.4.2.6v1.5h-.5v-1.5q0-.3-.2-.5l-.5-.2q-.3 0-.5.2l-.2.5v1.5h-.4m4 1.2-.5-.1-.4-.3-.1-.2V38h.4v.2l.3.2h.7l.3-.2v-.8l-.3.3h-.9l-.4-.3-.2-.4v-1.2l.2-.4.4-.2.4-.1.5.1q.3 0 .4.3v-.3h.4v3.1l-.5.4zm0-1.5a1 1 0 0 0 .7-.4v-1.1l-.3-.3-.4-.1-.4.1-.2.3V37l.2.3zm3 .4-.8-.3q-.3-.3-.3-.9v-.3l.1-.7.4-.4.6-.1.7.1.4.5v.9h-1.8l.1.4.3.3.3.1.6-.3h.5v.2l-.3.3zm-.7-1.6h1.4v-.4l-.3-.2-.4-.2-.4.2-.2.2zm3.4 1.6h-.5l-.3-.2-.2-.2V37h.3l.2.2h.2l.3.1h.4l.2-.4v-.2l-.3-.1-.5-.1-.5-.2-.2-.2-.1-.4.1-.3.3-.3.6-.1h.4l.5.4v.2h-.3l-.2-.1-.1-.1h-.7l-.1.3v.2l.2.1.5.2.5.1.3.3v.7l-.4.3zm3.8 0h-.5l-.3-.2-.2-.2V37h.3l.2.2h.2l.3.1h.4l.2-.4v-.2l-.3-.1-.5-.1-.5-.2-.2-.2-.1-.4.1-.3.3-.3.6-.1h.4l.5.4v.2h-.3l-.2-.1-.2-.1h-.6l-.1.3v.2l.2.1.5.2.5.1.3.3v.7l-.4.3zm2.7 0q-.3 0-.5-.2l-.2-.3-.1-.4v-1.4h-.5v-.3h.5v-1h.4v1h.7v.3h-.7v1.3l.1.4.3.1h.3l.1.1v.3zm1.6 0-.4-.1-.4-.3V37q0-.3.2-.5t.7-.3h.8V36q0-.3-.2-.4l-.4-.2-.4.1-.2.3h-.4v-.3l.2-.2.3-.1.5-.1h.5a1 1 0 0 1 .5.6v2h-.4v-.3l-.2.2zm.1-.4h.4l.3-.3v-.7l-.5.1-.5.2q-.2 0-.2.3v.2l.3.2zm3 .3h-.5l-.2-.4-.1-.4v-1.4h-.5v-.3h.5v-1h.4v1h.7v.3h-.6v1.7l.3.1h.4v.4zm2 .1q-.6 0-.9-.3t-.3-.9v-.3q0-.4.2-.7l.4-.4.6-.1.6.1.4.5.1.7v.2h-1.8v.4l.3.3.4.1.6-.3h.4v.2l-.2.3zm-.7-1.6h1.4l-.1-.4-.3-.2-.3-.2q-.3 0-.4.2l-.2.2z"/>
    <path fill="#8466ff" d="M26.7 47.4a4.3 4.3 0 1 1 8.7 0 4.3 4.3 0 0 1-8.7 0"/>
    <path fill="#fff" d="M28.9 47.4a2.2 2.2 0 1 1 4.3 0 2.2 2.2 0 0 1-4.3 0"/>
    <path fill="#181423" d="M39.9 49.4zv-.1L41 46v-.1h.6l1.3 3.3v.1h-.4l-.3-.7h-1.7l-.2.7h-.4m.8-1.3H42l-.6-1.8zm2.8 1.3v-3.6h.3v3.5zm2.2 0a1 1 0 0 1-.9-.3q-.3-.3-.3-.9V48q0-.4.2-.6 0-.3.4-.5l.6-.1q.3 0 .6.2.3 0 .4.4l.1.7v.2H45v.4l.3.3.4.1.6-.2v-.1h.4v.3l-.2.2zM45 48h1.4l-.1-.5-.3-.2-.3-.1h-.4l-.2.3zm2.6 1.5h-.1v-2.6h.4v.3l.3-.3h.7v.3h-.4l-.4.2-.2.5v1.5zm2.8 0-.5-.1-.2-.3-.1-.5v-1.3H49v-.4h.5v-.9l.1-.1h.3v.9h.7v.4H50v1.3l.1.4.3.2h.4v.3zm3.2 0-.6-.1-.4-.4-.2-.6v-.5l.2-.6.4-.4.6-.1.7.1.3.4.2.6v.5l-.1.6-.4.4zm0-.4q.3 0 .5-.2l.2-.6V48q0-.4-.2-.6l-.5-.2q-.3 0-.5.2l-.2.6v.3l.2.6q.2.3.5.2m2 .4h-.1v-2.6h.4v.3l.3-.3.5-.1.6.1q.3.2.3.4l.2.6v1.5h-.5v-1.4q0-.5-.2-.6l-.5-.2q-.3 0-.5.2l-.2.6v1.4zm4.8 0H60l-.3-.4-.2-.3q0-.4.3-.6l.7-.3h.8v-.2l-.1-.4-.5-.1h-.4l-.1.3h-.4v-.2l.1-.3.4-.1.4-.1h.5a1 1 0 0 1 .5.6v2h-.3V49l-.3.2zm.2-.4h.3l.3-.3.1-.5v-.1h-.6l-.5.2-.2.3v.3h.3zm2 .4-.1-.2V46l.1-.1h.3v3.5zm1.2 0v-3.6h.3v3.5zm2.6 0h-.1v-3.5h.4v3.4zm2 0H68l-.4-.2-.2-.2v-.2l.1-.1h.3l.2.2.2.1h.7l.1-.3v-.2l-.3-.2-.4-.1-.5-.2-.3-.2V47l.4-.3.5-.1h.5l.5.4v.3H69l-.1-.2h-.2l-.3-.1H68v.5l.2.1.4.2q.4 0 .6.2l.2.2v.7l-.4.3zm2.6 0h-.5l-.3-.2-.2-.2v-.3h.3l.2.2.2.1h.7l.2-.3v-.2l-.3-.2-.5-.1-.5-.2-.2-.2V47l.3-.3.6-.1h.4l.5.4v.3h-.3l-.2-.2h-.1L71 47h-.4l-.1.3v.2l.2.1.5.2q.3 0 .5.2.3 0 .3.2v.7l-.4.3zm2.6 0-.5-.1-.3-.4-.2-.6v-1.5h.5v1.5q0 .7.7.7.3 0 .5-.2l.2-.5v-1.5h.4v2.5h-.4V49l-.3.3zm3.1 0-.8-.3q-.3-.3-.3-.9V48l.1-.6.4-.5.6-.1q.4 0 .7.2l.4.4.1.7v.1l-.1.1H76l.1.4q0 .3.3.3l.3.1.6-.2.1-.1h.4v.3l-.3.2zM76 48h1.4v-.5l-.3-.2-.4-.1h-.3l-.3.3zm3.4 1.5H79l-.3-.2-.2-.2v-.3h.3l.2.2.2.1h.7l.2-.3v-.2l-.3-.2-.5-.1-.5-.2-.2-.2V47l.3-.3.6-.1h.4l.5.4v.3H80l-.2-.2h-.1l-.3-.1H79l-.1.3v.2l.2.1.5.2q.3 0 .5.2.3 0 .3.2v.7l-.4.3zm3 0-.1-.2v-2.4h.4v2.5zm0-3.1h-.1v-.5h.5v.4h-.4m1.2 3v-2.5h.3v.3l.4-.3.5-.1.6.1.3.4.1.6v1.5h-.4v-1.4q0-.5-.2-.6l-.5-.2q-.3 0-.5.2l-.2.6v1.4h-.4m5 .1H88l-.4-.4v-.3q0-.4.2-.6l.7-.3h.8v-.2q0-.3-.2-.4l-.4-.1h-.4l-.2.3h-.4v-.2l.2-.3.3-.1.5-.1h.5a1 1 0 0 1 .5.6v2h-.4V49l-.2.2zm0-.4h.4l.3-.3V48h-.5l-.5.2q-.3.2-.2.3v.3h.3zm3.3 1.3zv-3.4h.3v.3a1 1 0 0 1 .9-.4h.5l.3.4.2.3v1.3l-.2.4-.8.3h-.5l-.3-.4v1.2l-.1.1zm1-1.3.5-.1.2-.3v-1.1l-.2-.3h-.8l-.2.3-.1.4v.7l.3.3zm2 .4-.1-.2v-2.4h.4v.3l.3-.3h.7v.3h-.3l-.5.2-.1.5v1.5h-.4m2.8 0-.6-.1-.4-.4-.2-.6v-.5l.2-.6.4-.4.6-.1.7.1.4.4.1.6v.5l-.1.6-.4.4zm0-.4q.3 0 .5-.2.3-.1.2-.6V48q0-.4-.2-.6l-.5-.2q-.2 0-.5.2l-.2.6v.3l.2.6q.3.3.5.2m1.4 1.3zV50h.1l.4-.2v-.1l.1-.3v-2.6h.4V50l-.3.3-.5.1m.6-4h-.1v-.5h.5v.4h-.4m2.2 3.1q-.6 0-.9-.3t-.3-.9V48q0-.4.2-.6 0-.3.4-.5l.6-.1q.3 0 .6.2.3 0 .4.4l.1.7v.2h-1.8v.4l.3.3.4.1.6-.2v-.1h.4v.3l-.2.2zm-.7-1.5h1.4l-.1-.5a1 1 0 0 0-.6-.3h-.4l-.2.3zm3.5 1.5-.6-.1-.4-.4-.2-.6v-.4q0-.4.2-.7l.4-.4.6-.1h.5l.3.3.2.3.1.2v.1h-.4l-.3-.4-.4-.1q-.3 0-.5.2l-.2.6v.3q0 .5.2.6.2.3.5.2h.4l.2-.4v-.1h.5l-.2.5-.5.4zm2.7 0-.4-.1-.3-.3v-1.8h-.5v-.4h.4v-.9l.2-.1h.2l.1.1v.8h.7v.4h-.7v1.7l.4.2h.3v.3z"/>
    <mask id="e" fill="#fff">
      <path d="M26.7 58.9a4.3 4.3 0 1 1 8.7 0 4.3 4.3 0 0 1-8.7 0"/>
    </mask>
    <path fill="#dad9de" d="M31.1 63.2v-.4a4 4 0 0 1-4-4h-.7c0 2.6 2 4.7 4.7 4.7zm4.3-4.3H35a4 4 0 0 1-4 3.9v.7c2.6 0 4.7-2 4.7-4.6zM31 54.5v.4a4 4 0 0 1 3.9 4h.7c0-2.6-2-4.7-4.6-4.7zm0 0v-.3c-2.6 0-4.7 2-4.7 4.7h.7a4 4 0 0 1 4-4z" mask="url(#e)"/>
    <path fill="#181423" d="M39.9 60.9zv-.2l1.2-3.3h.6l1.3 3.3v.1h-.4l-.3-.7h-1.7l-.2.7h-.4m.8-1.3H42l-.6-1.8zm2.8 1.3v-3.6h.3v3.5zm2.2 0a1 1 0 0 1-.9-.3q-.3-.3-.3-.9v-.3q0-.4.2-.6 0-.3.4-.5l.6-.1.6.1.4.5.1.7v.2H45v.4l.3.3.4.1.6-.3h.4v.3l-.2.2zm-.7-1.5h1.4l-.1-.5-.3-.2-.3-.1h-.4l-.2.3zm2.6 1.5h-.1v-2.6h.4v.3l.3-.3h.7v.3h-.4l-.4.2-.2.5v1.5zm2.8 0q-.3 0-.5-.2l-.2-.3-.1-.4v-1.4H49v-.3h.5v-.9l.1-.1h.3v.9h.7v.4H50V60l.1.4.3.1h.4v.4zm3.2 0-.6-.1-.4-.4-.2-.6v-.5l.2-.6.4-.4.6-.1.7.1.3.4.2.6v.5l-.1.6-.4.4zm0-.4q.3 0 .5-.2l.2-.6v-.3q0-.5-.2-.6l-.5-.2q-.3 0-.5.2l-.2.6v.3l.2.6q.2.3.5.2m2 .4h-.1v-2.6h.4v.3l.3-.3.5-.1.6.1q.3.2.3.4l.2.6v1.5h-.5v-1.5q0-.3-.2-.5l-.5-.2q-.3 0-.5.2l-.2.5v1.5zm4.3 0-.1-.2v-3.3h.4v3.4zm2.1 0h-.5l-.3-.2-.2-.2v-.3h.3l.2.2h.2l.3.1h.4l.2-.4V60h-.3l-.5-.2-.5-.2-.2-.2-.1-.4.1-.3.3-.3.6-.1h.4l.5.4v.2h-.5l-.1-.2h-.7l-.1.3v.2l.2.1.5.2.5.1.3.3v.7l-.4.3zm2.6 0H64l-.3-.2-.2-.2-.1-.2.1-.1h.3l.2.2h.2l.3.1h.4l.2-.4-.1-.2h-.3l-.4-.2-.5-.2-.3-.2v-.7l.4-.3.5-.1h.5l.5.4v.2H65l-.2-.2h-.6l-.2.3v.2l.3.1.5.2.5.1.3.3v.7l-.5.3zm2.6 0-.6-.1-.3-.4-.1-.6v-1.5h.4v1.4q0 .8.7.8.3 0 .5-.2.3-.1.2-.6v-1.4h.5v2.5H68v-.3l-.4.3zm3 0-.7-.3q-.4-.3-.4-.9v-.3q0-.4.2-.6 0-.3.4-.5l.6-.1.6.1.4.5.2.7v.2h-1.9v.4l.3.3.4.1.6-.3h.4v.3l-.2.2zm-.6-1.5H71l-.1-.5-.2-.2-.4-.1h-.4l-.2.3zm3.4 1.5h-.5l-.3-.2-.2-.2-.1-.2.1-.1h.3l.2.2h.2l.3.1h.4l.2-.4-.1-.2h-.3l-.4-.2-.5-.2-.3-.2v-.7l.4-.3.5-.1h.5l.5.4v.2h-.5l-.2-.2h-.6l-.2.3v.2l.3.1.5.2.5.1.3.3v.7l-.5.3zm3.1 0v-2.2h-.5l-.1-.2v-.2h.5V58l.1-.5.3-.3h.8v.3h-.3q-.3 0-.3.2l-.1.3v.2h.7v.4h-.7v2.2H76m1.7 0-.1-.2v-2.4h.4v.3l.3-.3h.7v.3h-.3l-.5.2-.1.5v1.5h-.4m2.8 0-.6-.1-.4-.4-.2-.6v-.5l.2-.6.4-.4.6-.1.7.1.3.4.2.6v.5l-.1.6-.4.4zm0-.4q.3 0 .5-.2l.2-.6v-.3q0-.5-.2-.6l-.5-.2q-.3 0-.5.2l-.2.6v.3l.2.6q.2.3.5.2m2 .4h-.1v-2.6h.4v.2l.3-.2.4-.1q.6 0 .8.5 0-.3.4-.4l.5-.1.4.1q.3 0 .4.4v2.1h-.3v-1.5l-.2-.4q0-.2-.2-.2l-.3-.1H85l-.3.3v1.9H84v-1.5L84 59l-.2-.2-.3-.1h-.3l-.2.3v1.8l-.1.1h-.3m6.4 0h-.4l-.4-.2-.2-.2v-.3h.4l.2.2h.2l.2.1h.5l.1-.4V60h-.3l-.4-.2q-.4 0-.5-.2l-.3-.2v-.7l.4-.3.5-.1h.5l.5.4v.2h-.5l-.2-.2h-.7v.5l.2.1.4.2.6.1.2.3v.7l-.4.3zm1.8 1v-.1l-.1-.1v-3.4h.4v.3a1 1 0 0 1 .9-.4h.5l.3.3.2.4v1.3l-.2.3a1 1 0 0 1-.8.4l-.5-.1-.3-.3v1.2l-.1.1zm1-1.4.5-.1.2-.3V59l-.2-.3-.4-.1-.4.1-.2.3-.1.4v.7l.3.3zm3 .4a1 1 0 0 1-.9-.3q-.3-.3-.3-.9v-.3l.1-.6.4-.5.6-.1.7.1.4.5.1.7v.2H94v.4l.3.3.3.1.6-.3h.5v.3q-.2 0-.3.2zm-.7-1.5h1.3v-.5l-.3-.2-.4-.1h-.3l-.3.3zm3.5 1.5-.7-.1-.4-.4-.1-.7v-.4l.1-.6.4-.4.7-.1h.5l.3.3.3.5v.1h-.5l-.2-.4-.4-.1q-.3 0-.5.2l-.2.6v.3q0 .4.2.6l.5.2h.4l.2-.4V60h.4v.5l-.6.4zm1.8 0-.1-.2v-2.4h.4v2.5zm0-3.1h-.1v-.5h.4v.4zm1.5 3h-.1v-2.2h-.5v-.3h.5v-.8l.3-.3h1.4v.3h-.9q-.1 0-.3.2v.5h1.1l.1.2v2.4h-.4v-2.2h-.9v2.2zm3.4.1-.6-.1-.4-.4-.2-.7v-.4l.2-.6.4-.4.6-.1h.5l.4.3.2.2v.4h-.4l-.3-.4-.4-.1q-.2 0-.5.2l-.2.6v.3l.2.6.5.2h.4l.3-.4V60h.4l-.1.5-.6.4zm3.1 0v-3.5h.4l1 2 1.2-2h.4v3.4h-.4v-2.5l-.9 1.6-.1.1h-.2l-.2-.1-.8-1.6v2.5h-.4m5 0-.7-.1-.4-.4-.2-.6v-.5l.2-.6.4-.4.6-.1.7.1.3.4.2.6v.5l-.1.6-.4.4zm0-.4q.2 0 .4-.2l.2-.6v-.3q0-.5-.2-.6l-.5-.2q-.3 0-.5.2l-.2.6v.3l.2.6q.2.3.5.2m1.9.4h-.1v-2.6h.4v.3l.3-.3.5-.1.6.1q.3.2.3.4l.2.6v1.5h-.5v-1.5q0-.3-.2-.5l-.5-.2q-.3 0-.5.2l-.2.5v1.5zm3 0-.1-.2v-2.4h.4v2.5zm0-3.1h-.1v-.5h.5v.4h-.4m2.1 3h-.4l-.3-.4v-1.8h-.5v-.3h.4v-.9l.1-.1h.3l.1.1v.8h.7v.4h-.7v1.7l.4.1h.3v.4zm2 .1-.6-.1-.4-.4-.1-.6v-.5l.1-.6.4-.4.6-.1.7.1.4.4.1.6v.5l-.1.6-.4.4zm0-.4q.3 0 .5-.2.2-.1.2-.6v-.3q0-.5-.2-.6l-.5-.2q-.2 0-.5.2l-.2.6v.3l.2.6q.3.3.5.2m2 .4h-.1v-2.6h.4v.3l.3-.3h.7v.3h-.4l-.4.2-.2.5v1.5zm2.7 0h-.5l-.3-.2-.2-.2v-.3h.3l.2.2h.2l.3.1h.4l.2-.4-.1-.2h-.2l-.5-.2-.5-.2-.2-.2-.1-.4v-.3l.4-.3.5-.1h.5l.5.4v.2h-.5l-.2-.2h-.6l-.2.3.1.2.2.1.5.2.5.1.3.3v.7l-.4.3z"/>
    <g filter="url(#f)">
      <mask id="g" fill="#fff">
        <path d="M26.7 70.3c0-1.5 1.3-2.8 3-2.8H153c1.6 0 3 1.3 3 2.8v7.2c0 1.6-1.4 2.9-3 2.9H29.6a3 3 0 0 1-2.9-2.9z"/>
      </mask>
      <path fill="none" d="M26.7 70.3c0-1.5 1.3-2.8 3-2.8H153c1.6 0 3 1.3 3 2.8v7.2c0 1.6-1.4 2.9-3 2.9H29.6a3 3 0 0 1-2.9-2.9z"/>
      <path fill="#dad9de" d="M29.6 67.5v.3h123.5v-.7H29.6zM156 70.3h-.4v7.2h.8v-7.2zm-2.9 10.1V80H29.6v.8h123.5zM26.7 77.5h.4v-7.2h-.7v7.2zm3 2.9V80a2.5 2.5 0 0 1-2.6-2.5h-.7c0 1.8 1.4 3.3 3.2 3.3zM156 77.5h-.4c0 1.4-1 2.5-2.5 2.5v.8c1.8 0 3.3-1.5 3.3-3.3zm-2.9-10v.3c1.4 0 2.5 1.2 2.5 2.5h.8c0-1.7-1.5-3.2-3.3-3.2zm-123.5 0V67a3 3 0 0 0-3.2 3.2h.7c0-1.3 1.1-2.5 2.5-2.5z" mask="url(#g)"/>
      <g filter="url(#h)">
        <g clip-path="url(#i)">
          <path fill="#fff" d="M32.5 70.7q.1-1.6 1.8-1.8h40.2q1.6.1 1.8 1.8v6.5q-.1 1.6-1.8 1.8H34.3q-1.6-.1-1.8-1.8z"/>
          <g clip-path="url(#j)">
            <path fill="#fff" d="M35.4 71.8q0-1 1-1.1h4.3q1 .1 1.1 1v4.4q-.1 1-1 1h-4.4a1 1 0 0 1-1-1z"/>
            <g clip-path="url(#k)">
              <path fill="#f6de1e" d="M35.4 70.7h6.5v6.5h-6.5z"/>
              <path fill="#000" d="m38.5 75 .6-.4.1.2a1 1 0 0 0 .8.3h.2a.3.3 0 0 0 0-.6l-.1-.1-.4-.2-.6-.4-.3-.8a1 1 0 0 1 .8-.9h.6a1 1 0 0 1 .7.6l-.6.3a1 1 0 0 0-.6-.3.3.3 0 0 0-.1.6l.1.1.5.2.5.3a1 1 0 0 1 .4.9 1 1 0 0 1-.7.9q-.7.1-1.2-.1-.4-.1-.7-.6M36 75l.6-.3.1.2a.4.4 0 0 0 .6.2l.1-.2v-2.8h.8V75a1 1 0 0 1-.7.7l-1-.1z"/>
            </g>
          </g>
          <path stroke="#000020" stroke-opacity=".1" stroke-width=".4" d="M36.4 70.9h4.3q.9 0 1 .9V76q-.1.8-1 .9h-4.3a1 1 0 0 1-.9-1v-4.2q0-.9 1-1Z"/>
          <path fill="#181225" d="M44.6 76.9v-.4h.4v-.3l.1-.2v-2.6h.5v3.1l-.4.3h-.5m.6-4zH45v-.4h.5v.4zm1.9 3h-.5l-.3-.3-.1-.4q0-.3.2-.5t.8-.3l.7-.1V74l-.1-.3-.5-.2-.3.1-.2.3h-.4v-.3l.2-.2.3-.2h.9a1 1 0 0 1 .5.6l.1.3v1.7H48v-.3l-.2.2zm0-.3h.5l.2-.4.1-.4v-.2l-.6.1-.5.2-.2.3.1.2.2.2zm2.9.3h-.2l-1-2.4v-.2h.4l.1.1.8 2 .8-2h.4l-1 2.4v.1H50m2.5 0H52l-.3-.3-.1-.4q0-.3.3-.5t.7-.3l.7-.1V74l-.1-.3q-.1-.2-.5-.2l-.3.1-.2.3h-.4v-.3l.2-.2.3-.2h1a1 1 0 0 1 .5.6v2h-.4v-.3l-.2.2zm0-.3h.5l.2-.4.1-.4v-.2l-.5.1-.6.2-.2.3.1.2.2.2zm3 .4H55l-.4-.3-.2-.2v-.2h.4l.1.2h.2l.3.1h.5l.1-.4V75l-.3-.1-.5-.1-.4-.2-.3-.3v-.6q.1-.2.4-.3l.5-.1h.5l.4.4.1.2H56l-.1-.1-.2-.1H55v.5l.2.1.4.1.6.2.2.3v.7l-.4.3zm2.6 0q-.3 0-.6-.2l-.4-.3-.1-.7v-.4l.1-.6.4-.4.6-.1h.5l.4.3.3.5-.1.1h-.4q0-.4-.3-.4l-.3-.1q-.3 0-.5.2-.2.1-.2.5v.4q0 .5.2.6l.5.2.3-.1.3-.4h.4l-.1.5-.5.3zm1.9 0-.1-.1v-2.5h.4v.3l.3-.3h.7v.3h-.4l-.4.2-.2.4V76zm1.9 0zh-.1v-2.5h.4V76zm0-3.2h-.1v-.4h.4v.4zm1.2 4H63v-3.4h.4v.3a1 1 0 0 1 .9-.4h.5l.3.3.2.4v1.2l-.2.4a1 1 0 0 1-.8.4l-.5-.1-.3-.3v1.2H63m1-1.2.5-.1.2-.3V74l-.2-.3-.4-.1h-.4l-.2.4-.1.3v.8l.3.3zm2.9.3h-.5l-.2-.4-.1-.5v-1.3h-.5v-.3h.5v-1h.4v1h.7v.3h-.6v1.7l.3.1h.4v.4zM73.3 72.4a.2.2 0 0 1 .3.3l-1.3 1.2 1.3 1.3a.2.2 0 0 1-.3.3L72 74.2l-1.3 1.3a.2.2 0 0 1-.3-.3l1.3-1.3-1.3-1.2a.2.2 0 1 1 .3-.3l1.3 1.2z"/>
        </g>
        <path stroke="#dad9de" stroke-width=".4" d="M34.3 69h40.2q1.5.2 1.6 1.7v6.5q-.1 1.5-1.6 1.6H34.3q-1.5-.1-1.6-1.6v-6.5q.1-1.5 1.6-1.6Z"/>
      </g>
      <g filter="url(#l)">
        <g clip-path="url(#m)">
          <path fill="#fff" d="M77 70.7q.1-1.6 1.8-1.8h35.3q1.7.1 1.8 1.8v6.5q-.1 1.6-1.8 1.8H78.8q-1.7-.1-1.8-1.8z"/>
          <g clip-path="url(#n)">
            <path fill="#34a853" d="M86.3 75.7a3 3 0 0 0-1.5-2.3l.2-.3.2-.4.2-.5-.4-.1-.1.1-.2.2-.2.4-.2.3L83 73l-1.1.2-.3-.3-.1-.4-.2-.2a.3.3 0 0 0-.5 0v.3l.1.2.2.4.2.3a3 3 0 0 0-1.5 2.4h6.4z"/>
            <path fill="#202124" d="M84.8 75q.2-.3 0-.5 0-.2-.4-.2v.5q.1.2.4.1m-3-.2q.3-.3 0-.5-.1 0-.4.2v.4q.3.1.5-.1"/>
          </g>
          <path fill="#181225" d="m90.3 76-.4-.1-.3-.3-.2-.4q0-.3.3-.5t.7-.3l.8-.1V74l-.1-.3-.5-.2-.4.1-.2.3h-.4v-.3l.2-.2.3-.2h1a1 1 0 0 1 .5.6v2h-.4v-.3l-.2.2zm.1-.4h.4l.3-.4v-.6l-.5.1-.5.2-.2.3v.2l.3.2zm2.1.3h-.1v-2.5h.4v.3q.2-.3.4-.3l.5-.1.5.1.4.4.1.6v1.5h-.4v-1.5L94 74q-.2-.2-.5-.2t-.5.2q-.3.2-.2.5V76h-.4m3.9 0h-.5l-.3-.3-.2-.4V74l.2-.4.3-.2.5-.1h.5l.3.3v-1.2h.4V76h-.3v-.3l-.4.3zm.1-.3.4-.1.2-.3.1-.4v-.7l-.3-.3-.4-.1h-.4l-.2.4-.1.4v.7l.3.3zm2 .3v-2.5h.3v.3l.4-.3h.7v.3h-.4l-.4.2-.2.4V76h-.4m2.9 0h-.7l-.4-.5-.1-.6v-.4l.1-.6.4-.4.7-.1.6.1.4.4.1.6v.4l-.1.6-.4.4zm0-.3q.3 0 .5-.2l.2-.6v-.4l-.2-.5-.5-.2q-.4 0-.5.2-.2.1-.2.5v.4q0 .5.2.6 0 .2.5.2m1.9.3zv-2.5h.4V76zm0-3-.1-.1v-.4h.4v.4zm2 3h-.4l-.4-.3-.2-.4V74l.2-.4.4-.2.4-.1h.5l.4.3v-1.2h.4V76h-.4v-.3l-.4.3zm.2-.3.4-.1.2-.3V74l-.3-.3-.3-.1h-.5l-.2.4v1.1l.2.3z"/>
          <g clip-path="url(#o)">
            <path fill="#181225" d="M112.8 72.4a.2.2 0 0 1 .3.3l-1.3 1.2 1.3 1.3a.2.2 0 1 1-.3.3l-1.2-1.3-1.3 1.3a.2.2 0 1 1-.3-.3l1.3-1.3-1.3-1.2a.2.2 0 1 1 .3-.3l1.3 1.2z"/>
          </g>
        </g>
        <path stroke="#dad9de" stroke-width=".4" d="M78.8 69h35.3q1.5.2 1.6 1.7v6.5q-.1 1.5-1.6 1.6H78.8q-1.5-.1-1.6-1.6v-6.5q.1-1.5 1.6-1.6Z"/>
      </g>
      <g clip-path="url(#p)">
        <path fill="#181225" d="M151.2 73.2a.2.2 0 1 1 .3.2l-1 1.3a.2.2 0 0 1-.4 0l-1.1-1.2a.2.2 0 0 1 .3-.3l1 1z"/>
      </g>
    </g>
    <path fill="#fff" d="M21 91.9c0-1.6 1.3-2.9 2.9-2.9h353.3c1.6 0 2.9 1.3 2.9 2.9v33.5c0 1.6-1.3 2.9-3 2.9H24a3 3 0 0 1-2.9-2.9z"/>
    <path stroke="#3a115f" stroke-opacity=".1" d="M23.9 89.5h353.3c1.3 0 2.4 1 2.4 2.4v33.5c0 1.3-1.1 2.4-2.4 2.4H23.9c-1.3 0-2.4-1-2.4-2.4V92c0-1.3 1-2.4 2.4-2.4Z"/>
    <path fill="#2b2233" d="M28.7 98.3h-.1v-.5l.1-.2.9-.9 1-.9v-.7l-.5-.2a1 1 0 0 0-.6.3v.3l-.1.1h-.7a1.3 1.3 0 0 1 .8-1.3h1.4l.4.5.2.6-.1.5q0 .3-.3.5l-.5.4-.8.8h1.7v.7zm3.7 0h-.1v-.8h.7l.1.1v.6l-.1.1zm3.5 0v-4h2.6v.6h-1.9v1.2h1.8v.6h-1.8v1.5l-.1.1zm3.4 0-.1-.1v-2.8h.7v2.9zm0-3.5zv-.6h.7v.6zm1.6 3.5h-.1v-4h.6v4zm2.7 0-.6-.1-.4-.4V96H42v-.5h.5v-1.1h.7v1h.8l.1.2v.4h-.8v1.7h.7l.1.1v.6zm2.4 0q-.6 0-1-.3t-.4-1v-.3q0-.5.2-.8 0-.2.4-.5l.8-.1q.4 0 .8.2l.4.5.2.8v.2h-2.1v.1l.1.4.2.2.4.1h.2l.3-.2.1-.1h.6l.1.1v.2l-.3.3-.5.2zm-.7-1.7h1.3v-.4l-.3-.3-.3-.1-.4.1-.2.3zm2.8 1.7v-2.9h.6v.3l.4-.3h.8v.6h-.5q-.3 0-.5.2l-.1.4v1.6l-.2.1zm3.7 0zv-3.9l.1-.1h.6v4zm2.6 0h-.6l-.3-.2-.3-.2v-.3h.6l.4.2h.6l.2-.3v-.2l-.3-.1-.5-.1-.6-.2-.3-.3v-.9l.5-.3.6-.1 1 .2.2.3v.3H55l-.2-.1-.5-.2-.3.1-.1.2v.2l.2.1.5.2q.4 0 .7.2l.3.3v.8l-.5.4zm3.1 0h-.6l-.4-.2-.2-.2-.1-.2v-.1h.6l.4.2h.7l.1-.3v-.2l-.3-.1-.5-.1-.5-.2-.3-.3-.1-.4.1-.5.4-.3.7-.1.9.2.2.3.1.2-.1.1H58l-.2-.1-.4-.2-.4.1v.4l.2.1.5.2q.4 0 .6.2.3 0 .3.3l.1.4-.1.4-.5.4zm3 0H60l-.4-.5-.1-.7v-1.7h.7v1.7q0 .7.7.7l.5-.2.2-.5v-1.7h.7v2.8l-.1.1h-.5l-.1-.1v-.3a1 1 0 0 1-1 .5m3.8 0q-.6 0-1-.3t-.4-1v-.3q0-.5.2-.8 0-.2.4-.5l.8-.1q.4 0 .8.2l.4.5.2.8v.2h-2.1v.1l.1.4.2.2.4.1h.2l.3-.2.1-.1h.6l.1.1v.2l-.3.3-.5.2zm-.7-1.7H65v-.4l-.3-.3-.3-.1-.4.1-.2.3zm3.8 1.8-.6-.1-.3-.2-.3-.2v-.3h.6l.4.2h.6l.2-.3v-.2l-.3-.1-.5-.1-.6-.2-.3-.3v-.9l.4-.3.7-.1 1 .2.2.3v.3H68l-.2-.1-.5-.2-.3.1-.1.2v.2l.2.1.5.2q.4 0 .7.2l.3.3v.8l-.5.4z"/>
    <path fill="#57606b" d="m28.4 105.8-.7-.1-.5-.5-.1-.8v-.8l.1-.8.5-.5.7-.1.8.1.5.5.1.8v.8l-.1.8-.5.5zm0-.4.7-.2.2-.8V103l-.4-.3H28l-.3.3-.1.6v.8q0 .5.2.8zm2.2.4v-2.6h.3v.3l.4-.3.5-.1.6.1.3.4.1.6v1.5h-.4v-1.5q0-.3-.2-.5l-.5-.2q-.3 0-.5.2l-.2.5v1.5h-.4m3 0v-3.6h.4v3.5zm1.6 1v-.2l.4-1-1-2.3v-.1h.4l.8 1.9.8-1.9h.4v.1l-1.4 3.3-.1.1zm4.5 0h-.5l-.4-.2-.2-.3v-.2l.1-.1h.3l.2.2q0 .2.2.2h.7l.2-.2.1-.4v-.4l-.3.3h-1l-.3-.3-.2-.4v-1.2l.2-.3q0-.2.3-.3l.5-.1.5.1q.3 0 .3.3v-.3h.5v2.5l-.1.6q0 .3-.4.4zm0-1.4.4-.1.2-.3.1-.4v-.7l-.3-.3-.4-.1-.4.1-.2.3v1.1l.2.3zm3 .4q-.5 0-.8-.3t-.4-.9v-.3l.2-.6.4-.5.6-.1q.5 0 .6.2.3 0 .4.4l.2.7v.2H42l.1.4q0 .3.2.3l.4.1.6-.2v-.1h.5v.3l-.3.2zm-.7-1.5h1.4v-.5l-.3-.2-.4-.1a1 1 0 0 0-.6.3zm3.5 1.5-.5-.1-.2-.4-.1-.4v-1.4h-.5v-.3h.5v-.9l.1-.1h.3v.9h.7v.4H45v1.3l.1.4.3.1h.4v.4zm2.9 0h-.5l-.3-.4-.1-.4q0-.3.2-.5l.8-.3h.7v-.2l-.1-.4-.5-.1h-.3l-.2.3h-.4v-.2l.2-.3.3-.1.4-.1h.6l.4.6.1.3v1.7h-.4v-.3l-.2.2zm0-.4h.5l.2-.3.1-.5v-.1h-.6l-.5.2-.2.3.1.3h.2zm2.1.4v-3.6h.3l.1.1v3.4h-.4m2.2 0q-.5 0-.8-.3t-.4-.9v-.3l.2-.6q0-.3.4-.5l.6-.1q.4 0 .6.2.3 0 .4.4l.2.7v.2H52v.4l.3.3.4.1.6-.2v-.1h.4v.3l-.2.2zm-.7-1.5h1.4l-.1-.5-.2-.2-.4-.1a1 1 0 0 0-.6.3zm2.6 1.5h-.1v-2.6h.4v.3l.3-.3h.7v.3h-.4l-.4.2-.2.5v1.5zm2.8 0-.5-.1-.2-.4-.1-.4v-1.4h-.5v-.3h.5v-.9l.1-.1h.3v.9h.7l.1.2v.2H57v1.7l.3.1h.4v.4zm2 0q-.5 0-.9-.3-.3-.3-.3-.9v-.3q0-.4.2-.6 0-.3.4-.5l.6-.1q.3 0 .6.2.3 0 .4.4l.1.7v.2h-1.8v.4l.3.3.4.1.6-.2v-.1h.4v.3l-.2.2zm-.7-1.5H60l-.1-.5q0-.1-.3-.2l-.3-.1a1 1 0 0 0-.6.3zm3.4 1.5h-.5l-.5-.7v-1.3l.2-.3q0-.2.3-.3l.5-.1.5.1.3.3v-1.2l.1-.1h.3v3.5H63v-.3l-.4.3zm.1-.4.4-.1.2-.3.1-.4v-.7l-.3-.3-.4-.1-.4.1-.2.3v1.1l.2.3zm4.2.4-.6-.1-.4-.4-.1-.6v-.5l.1-.6.4-.4.6-.1.7.1.4.4.1.6v.5l-.1.6-.4.4zm0-.4q.3 0 .5-.2t.2-.6v-.3q0-.5-.2-.6l-.5-.2q-.2 0-.5.2l-.2.6v.3l.2.6q.3.3.5.2m2 .4h-.1v-2.6h.4v.3l.3-.3.6-.1.5.1.4.4v2.1H70v-1.5q0-.3-.2-.5l-.5-.2q-.2 0-.5.2l-.2.5v1.5zm4.3 0-.1-.2v-3.3h.5v3.4h-.4m2.1 0h-.5l-.3-.2-.2-.2v-.3h.3l.2.2.2.1h.7q.3-.1.2-.3v-.2l-.3-.2-.5-.1-.5-.2-.2-.2v-.7l.4-.3.5-.1h.4l.5.4v.2h-.5l-.1-.2h-.7l-.1.3v.2l.3.1.4.2.5.1.3.3v.7l-.4.3zm2.6 0h-.5l-.3-.2-.2-.2v-.3h.3l.2.2.2.1h.7l.2-.3-.1-.2-.2-.2-.5-.1-.5-.2-.2-.2-.1-.4v-.3l.4-.3.6-.1h.4l.5.4v.2h-.5q0-.2-.2-.2H77l-.2.3.1.2.2.1.5.2.5.1.3.3v.7l-.4.3zm2.6 0-.5-.1-.4-.4v-2.1h.3v1.5q0 .7.7.7.4 0 .5-.2.3-.2.2-.5v-1.5h.5v2.5h-.4v-.3l-.4.3zm3.1 0q-.5 0-.8-.3t-.4-.9v-.3l.2-.6.4-.5.6-.1q.5 0 .6.2.3 0 .4.4l.2.7v.2h-1.9l.1.4q0 .3.2.3l.4.1.6-.2v-.1h.5v.3l-.3.2zm-.7-1.5h1.4v-.5l-.3-.2-.4-.1a1 1 0 0 0-.6.3zm3.4 1.5h-.5l-.3-.2-.2-.2v-.3h.3l.2.2.2.1h.7l.2-.3-.1-.2-.2-.2-.5-.1-.5-.2-.2-.2-.1-.4v-.3l.4-.3.6-.1h.4l.5.4v.2h-.5q0-.2-.2-.2h-.6l-.2.3.1.2.2.1.5.2.5.1.3.3v.7l-.4.3zm3.2 0h-.1v-2.2h-.5l-.1-.2v-.2h.5v-.3l.1-.5.3-.3h.9v.3h-.4q-.2 0-.3.2l-.1.3v.2h.7v.4h-.7v2.2H89m1.6 0v-2.6h.3v.3l.4-.3h.6v.3h-.3l-.5.2-.1.5v1.5h-.4m2.8 0-.6-.1-.4-.4-.1-.6v-.5l.1-.6.4-.4.6-.1.7.1.4.4.1.6v.5l-.1.6-.4.4zm0-.4q.3 0 .5-.2t.2-.6v-.3q0-.5-.2-.6l-.5-.2q-.3 0-.5.2l-.2.6v.3l.2.6q.3.3.5.2m2 .4h-.1v-2.6h.4v.2l.3-.2.4-.1q.6 0 .8.5l.4-.4.5-.1.4.1q.3 0 .4.4l.1.6v1.5h-.4v-1.5l-.1-.4-.3-.2-.3-.1h-.2l-.2.3-.1.4v1.5h-.5v-1.9l-.3-.2-.3-.1H96l-.2.3v1.8l-.1.1zm6.5 0-.5-.1-.2-.4-.1-.4v-1.4h-.5v-.3h.5v-1h.4v.9h.7v.4h-.7v1.3l.1.4.3.1h.3l.1.2v.2zm1 0v-3.6h.3l.1.1v1.2l.3-.3.5-.1.6.1.3.4.1.6v1.5h-.4v-1.5q0-.3-.2-.5l-.5-.2q-.3 0-.5.2l-.2.5v1.5h-.4m4 0-.8-.3q-.3-.3-.3-.9v-.3l.1-.6.4-.5.6-.1q.4 0 .7.2.2 0 .3.4l.2.7v.2h-1.9l.1.4q0 .3.3.3l.3.1.6-.2v-.1h.5v.3l-.3.2zm-.7-1.5h1.4v-.5l-.3-.2-.4-.1a1 1 0 0 0-.6.3zm3.4 1.5h-.5l-.3-.2-.2-.2v-.3h.3l.2.2.2.1h.7l.2-.3v-.2l-.3-.2-.5-.1-.5-.2-.2-.2-.1-.4.1-.3.3-.3.6-.1h.4l.5.4v.2h-.5q0-.2-.2-.2h-.6l-.1.3v.2l.2.1.5.2.5.1.3.3v.7l-.4.3zm2.7 0q-.5 0-.8-.3t-.4-.9v-.3l.2-.6q0-.3.4-.5l.6-.1q.4 0 .6.2.3 0 .4.4l.2.7v.2h-1.9v.4l.3.3.4.1.5-.1v-.1l.2-.1h.3v.3l-.2.2zm-.7-1.5h1.4l-.1-.5a1 1 0 0 0-.6-.3 1 1 0 0 0-.6.3zm4.7 1.5q-.5 0-.8-.3t-.3-.9v-.3l.1-.6a1 1 0 0 1 1-.6q.4 0 .7.2l.4.4.1.7v.2h-1.8v.4q0 .3.3.3l.3.1.5-.1.1-.1.1-.1h.4v.3l-.3.2zm-.6-1.5h1.3v-.5l-.3-.2-.4-.1a1 1 0 0 0-.6.3zm2.5 1.5v-2.6h.3v.3l.4-.3.5-.1.6.1.3.4.1.6v1.5h-.4v-1.5l-.2-.5-.5-.2q-.3 0-.5.2l-.2.5v1.5h-.4m3.8 0h-.1v-.2l-1-2.3v-.1h.4l.8 2 .8-2h.4v.1l-1 2.3v.1zm2 0h-.1v-2.6h.4v2.5zm0-3.1h-.1v-.5h.4v.4zm1.2 3h-.1v-2.5h.4v.3l.3-.3h.7v.3h-.4l-.4.2-.1.5v1.5h-.4m2.8.1-.6-.1-.4-.4-.2-.6v-.5q0-.3.2-.6l.4-.4.6-.1.6.1.4.4.2.6v.5q0 .3-.2.6l-.3.4zm0-.4q.3 0 .5-.2l.2-.6v-.3q0-.5-.2-.6l-.5-.2q-.3 0-.5.2l-.2.6v.3q0 .4.2.6.2.3.5.2m2 .4h-.1v-2.6h.4v.3l.3-.3.5-.1.6.1.3.4.2.6v1.5h-.5v-1.5q0-.3-.2-.5l-.5-.2q-.3 0-.5.2l-.2.5v1.5h-.4m3 0-.1-.2v-2.4h.4v.2l.3-.2.4-.1q.6 0 .9.5 0-.3.3-.4l.5-.1.5.1.3.4.1.6v1.5h-.4v-1.5l-.1-.4-.2-.2-.3-.1h-.3l-.2.3-.1.4v1.5h-.4v-1.5l-.2-.4q0-.2-.2-.2l-.3-.1h-.2l-.3.3v1.9h-.4m5.4 0-.8-.3q-.3-.3-.4-.9v-.3q0-.4.2-.6 0-.3.4-.5l.6-.1q.4 0 .6.2.3 0 .4.4l.2.7v.2h-1.9v.4l.3.3.4.1.6-.2v-.1h.4v.3l-.2.2zm-.7-1.5h1.4l-.1-.5-.2-.2-.4-.1a1 1 0 0 0-.6.3zm2.6 1.5h-.1v-2.6h.4v.3l.4-.3.5-.1.5.1.4.4v2.1h-.4v-1.5q0-.3-.2-.5 0-.2-.5-.2-.2 0-.5.2l-.2.5v1.5zm3.9 0-.5-.1-.2-.4-.1-.4v-1.4h-.5v-.3h.5v-.9l.1-.1h.3v.9h.7l.1.2v.2h-.7v1.7l.3.1h.4v.4zm1.8 0h-.4l-.4-.2-.2-.2v-.3h.4l.2.2.1.1h.8l.1-.3v-.2l-.3-.2-.5-.1-.4-.2-.3-.2v-.7l.4-.3.5-.1h.5l.4.4.1.2h-.5l-.2-.2h-.7v.5l.2.1.4.2.6.1.2.3.1.3-.1.4-.4.3z"/>
    <g filter="url(#q)">
      <mask id="r" fill="#fff">
        <path d="M26.7 114c0-1.6 1.3-3 3-3H153c1.6 0 3 1.4 3 3v7.1c0 1.6-1.4 2.9-3 2.9H29.6a3 3 0 0 1-2.9-2.9z"/>
      </mask>
      <path fill="none" d="M26.7 114c0-1.6 1.3-3 3-3H153c1.6 0 3 1.4 3 3v7.1c0 1.6-1.4 2.9-3 2.9H29.6a3 3 0 0 1-2.9-2.9z"/>
      <path fill="#dad9de" d="M29.6 111v.4h123.5v-.7H29.6zm126.4 3h-.4v7.1h.8V114zm-2.9 10v-.4H29.6v.8h123.5zM26.7 121h.4V114h-.7v7.2zm3 2.9v-.4a2.5 2.5 0 0 1-2.6-2.5h-.7c0 1.8 1.4 3.3 3.2 3.3zM156 121h-.4c0 1.4-1 2.5-2.5 2.5v.8c1.8 0 3.3-1.5 3.3-3.3zm-2.9-10v.3c1.4 0 2.5 1.2 2.5 2.5h.8c0-1.7-1.5-3.2-3.3-3.2zm-123.5 0v-.4a3 3 0 0 0-3.2 3.2h.7c0-1.3 1.1-2.5 2.5-2.5z" mask="url(#r)"/>
      <path fill="#6a6772" d="M32.7 119.5h-.1v-.1l1.2-3.3h.7l1.2 3.3v.1h-.4l-.3-.8h-1.7l-.2.7v.1h-.4m.8-1.2h1.4l-.7-1.8zm2.9 1.2h-.1V116h.4v3.5h-.3m1.2 0h-.1V116h.4v3.5zm2.5 0zV116h2.2v.3h-1.7v1.1H42v.4h-1.6v1.2h1.7l.1.1v.3H40m3 0H43V117h.4v.3l.3-.3.6-.1.5.1.4.4v2.1h-.4V118q0-.3-.2-.5-.1-.2-.5-.2-.2 0-.5.2l-.2.5v1.5zm3.7 0h-.1l-1-2.4v-.2h.4v.1l.9 2 .7-2h.4l-.9 2.4-.1.1zm2 0V117h.3v2.5zm0-3-.1-.1v-.4h.5v.4zm1.2 3V117h.4v.3q0-.2.3-.3h.7v.3H51l-.4.2-.2.4v1.6H50m2.9 0h-.7l-.4-.5-.1-.6v-.4l.1-.6.4-.4.7-.1.6.1.4.4.1.6v.4l-.1.6-.4.4zm0-.3q.3 0 .5-.2l.2-.6v-.4l-.2-.5-.5-.2q-.3 0-.5.2-.2.1-.2.5v.4q0 .5.2.6zm1.9.3h-.1V117h.4v.3q.1-.3.4-.3l.5-.1.5.1.4.4.1.6v1.5h-.4V118l-.2-.5q-.2-.2-.6-.2-.2 0-.5.2l-.1.5v1.5h-.4m3 0V117h.3v.2l.4-.2.4-.1q.5 0 .8.4l.3-.3.5-.1h.5l.4.5v2.1H61V118l-.2-.4-.2-.3h-.6l-.2.3v1.8l-.1.1h-.4V118l-.1-.4-.2-.3h-.6l-.2.3-.1.4v1.5h-.4m5.4 0q-.5 0-.8-.2-.3-.4-.3-1v-.2l.1-.7.4-.4.6-.1.7.1.4.5.1.7v.1h-1.8v.5l.3.3.3.1.6-.3h.5v.2l-.3.2zm-.6-1.5h1.3v-.4l-.3-.3h-.4a1 1 0 0 0-.6.3zm2.5 1.5V117h.3v.3l.4-.3.5-.1.6.1.3.4.1.6v1.5h-.4V118l-.2-.5q-.2-.2-.5-.2t-.5.2l-.2.5v1.5H65m4 0h-.5l-.3-.4v-1.8h-.5v-.3h.4v-1a.1.1 0 0 1 .2 0h.3v1h.7v.3h-.7v1.7l.4.1h.3l.1.1v.3H69m1.8 0h-.5q-.1 0-.3-.2-.2 0-.2-.2v-.2h.3l.2.2h.2l.3.1h.4l.2-.4v-.2l-.3-.1-.5-.1-.5-.2-.2-.3-.1-.3.1-.3q0-.2.3-.3l.6-.1h.4l.5.4v.2h-.3l-.2-.1-.2-.1h-.6l-.1.3v.2l.2.1.5.1.5.2.3.3v.7l-.4.3z"/>
      <g clip-path="url(#s)">
        <path fill="#181225" d="M151.2 116.8a.2.2 0 1 1 .3.2l-1 1.3a.2.2 0 0 1-.4 0L149 117a.2.2 0 0 1 .3-.3l1 1z"/>
      </g>
    </g>
    <path fill="#fff" d="M23.9 133.1h353.3c1.3 0 2.4 1 2.4 2.4v97.9c0 1.3-1.1 2.4-2.4 2.4H23.9c-1.3 0-2.4-1-2.4-2.4v-98.2a2.4 2.4 0 0 1 2.4-2"/>
    <path stroke="#dfdbef" d="M23.9 133.1h353.3c1.3 0 2.4 1 2.4 2.4v97.9c0 1.3-1.1 2.4-2.4 2.4H23.9c-1.3 0-2.4-1-2.4-2.4v-98.2a2.4 2.4 0 0 1 2.4-2Z"/>
    <path fill="#181423" d="M30 143.4h-.6l-.5-.3q-.3-.2-.3-.4l-.1-.4h.7l.3.3.2.1h.4l.5-.1.2-.5q0-.3-.2-.4l-.5-.1h-.7v-.6l1-1h-1.6l-.1-.1v-.5h2.7v.5l-1 1.1q.4 0 .7.2l.4.3.1.7q0 .4-.2.6l-.5.5zm2.4 0h-.1v-.8h.8v.7h-.7m3.2 0h-.1v-.2l1.3-3.7.1-.1h.9l1.5 3.8v.1h-.8l-.3-.8h-1.7l-.3.7v.1h-.6m1.1-1.5H38l-.6-1.8zm3.2 1.5h-.1v-4.1h.6v4zm2.6 0q-.6 0-1-.4-.4-.3-.4-1v-.3l.2-.7.5-.5.7-.2q.5 0 .8.2l.5.5.2.8v.2h-2.1v.5l.3.3h.6l.3-.2h.7v.3l-.3.2-.4.2zm-.6-1.8h1.3l-.1-.4-.2-.3h-.7l-.2.3zm2.8 1.8zv-2.9l.1-.1h.5l.1.1v.2l.3-.2.5-.1h.3l.1.1v.5h-.6l-.4.2-.2.4v1.7h-.6m3.6 0q-.3 0-.6-.2l-.3-.3-.1-.6V141h-.5l-.1-.2v-.3l.1-.1h.5v-1l.1-.1h.5l.1.1v1h.8v.5H48v1.7l.4.1h.4l.1.2v.4h-.6m2.6 0-.1-.2v-3.8h2.6l.4.5a1 1 0 0 1 0 1l-.1.2-.3.1a1 1 0 0 1 .6 1l-.1.6-.5.4-.7.2zm.7-.7h1l.4-.1.2-.4q0-.2-.2-.5l-.4-.1h-1zm0-1.7h.9q.3 0 .5-.2l.1-.3-.1-.4-.5-.2h-.9zm4.2 2.4-.6-.1-.4-.5-.2-.7v-1.6l.2-.1h.5l.1.1v1.6q0 .7.6.7.3 0 .5-.2l.2-.5v-1.6l.1-.1h.6v2.9h-.6v-.3l-.4.3zm2.6 0h-.1v-3h.6v2.9zm0-3.5h-.1v-.7h.6l.1.1v.5h-.6m1.5 3.5h-.1v-4l.1-.1h.5l.1.1v3.9h-.6m2.5 0h-.5l-.4-.4-.2-.4-.1-.7v-.8l.3-.4.4-.3h.5a1 1 0 0 1 .9.3v-1.3l.1-.1h.5l.1.1v3.9h-.7v-.3a1 1 0 0 1-1 .4m.2-.6.4-.1.2-.3v-1.1l-.2-.3h-.8l-.2.3v1.1l.2.3zm3.5.6q-.7 0-1-.4-.4-.3-.4-1v-.3q0-.4.2-.7 0-.3.5-.5l.7-.2q.5 0 .8.2l.4.5.2.8v.2h-2.1v.1l.1.4.2.3h.6l.3-.2h.8v.3l-.3.2-.4.2zm-.6-1.8h1.2v-.4l-.3-.3h-.7l-.2.3zm2.8 1.8h-.1v-3h.6v.3l.4-.2.5-.1h.3v.6h-.5l-.5.2-.1.4v1.7h-.6"/>
    <rect width="19.3" height="7.2" x="26.7" y="148.7" fill="#8466ff" rx="1.4"/>
    <path fill="#fff" d="M29.9 154.4h-.2v-.2L29 151v-.1h.7l.4 2.3.4-1.4.1-.1h.5l.5 1.5.4-2.2.2-.1h.5v.1l-.6 3.2v.1h-.6l-.6-1.7-.6 1.7h-.5m3.6 0-.1-.1v-3.4h.6v1.4h1.6v-1.4h.6v3.4h-.6v-1.4H34v1.4h-.6m3.7 0H37v-3.5h2.4v.5h-1.8v1h1.7v.4h-1.7v1h1.7a.1.1 0 0 1 .2.1v.4h-2.4m3.1 0-.1-.1v-3.4h.6l1.5 2.3v-2.3h.6v3.4h-.6l-1.4-2.2v2.2h-.6"/>
    <path fill="#2b2233" d="M48.6 153.7H48l-.3-.4-.1-.3q0-.5.3-.6l.7-.3h.7v-.2l-.1-.4-.4-.1h-.4l-.2.3h-.4v-.2l.2-.2.3-.2.5-.1h.5a1 1 0 0 1 .5.6v2h-.4v-.3l-.2.2-.3.2zm.1-.4h.4l.2-.3.1-.5v-.1H49l-.6.2-.2.3.1.3h.2zm2 .4V151h.4v.3l.3-.3.5-.1.6.1.3.4.2.6v1.5h-.5v-1.4q0-.4-.2-.6l-.5-.2q-.3 0-.5.2l-.2.6v1.4h-.3m3.4 1-.1-.1v-.1l.4-1-1-2.3v-.1h.4l.8 1.9.8-1.9h.4v.1l-1.4 3.3-.1.1zm4.4-1-.6-.1-.4-.4-.1-.6v-.5l.1-.6.4-.4.6-.1.7.1.4.4.1.6v.5l-.1.6-.4.4zm0-.4q.4 0 .5-.2.3-.2.2-.6v-.3q0-.5-.2-.6l-.5-.2q-.2 0-.5.2l-.2.6v.3l.2.6q.3.3.5.2m2.2.4-.1-.2v-2H60v-.4h.5v-.7l.3-.3.6-.2h.3v.4h-.3q-.3 0-.4.2v.6h.7v.3H61v2.2h-.4m3.6 0-.5-.1-.2-.3-.1-.5v-1.3h-.4l-.1-.2v-.2h.5v-.9l.1-.1h.3v1h.8v.3H64v1.7l.3.2h.4v.3zm1 0V150h.4v1.3l.4-.3.5-.1.5.1.4.4v2.1H67v-1.4q0-.4-.2-.6l-.5-.2q-.3 0-.5.2l-.2.6v1.4zm4 0q-.5 0-.8-.3t-.3-.9v-.3l.1-.6.4-.5.6-.1q.4 0 .7.2.3 0 .4.4l.1.7v.1l-.1.1h-1.7v.4l.3.3.3.1.6-.2.1-.1h.4v.3l-.3.2zm-.6-1.5H70v-.5l-.3-.2-.4-.1a1 1 0 0 0-.6.3zm4 1.5h-.2v-2.2H72v-.4h.5v-.3l.1-.4q0-.3.3-.3l.5-.2h.3v.4h-.3q-.3 0-.3.2l-.1.3v.3h.7v.3H73v2.2h-.4m2.5 0-.6-.1-.4-.4-.2-.6v-.5q0-.3.2-.6l.4-.4.6-.1.6.1.4.4.2.6v.5q0 .3-.2.6l-.4.4zm0-.4q.3 0 .5-.2l.2-.6v-.3q0-.5-.2-.6l-.5-.2q-.3 0-.5.2l-.2.6v.3q0 .5.2.6.2.3.5.2m2 .4H77V150h.3l.1.1v3.4H77m1.2 0h-.1V150h.3l.1.1v3.4zm2.1 0-.6-.1-.4-.4-.1-.6v-.5l.1-.6.4-.4.6-.1.7.1.4.4.1.6v.5l-.1.6-.4.4zm0-.4q.4 0 .5-.2.3-.2.2-.6v-.3q0-.5-.2-.6l-.5-.2q-.2 0-.5.2l-.2.6v.3l.2.6q.3.3.5.2m2.5.4h-.1v-.2l-.8-2.3v-.1h.4l.6 2 .6-2h.4l.7 2 .5-2h.4v.1l-.7 2.3v.1h-.4l-.7-1.9-.6 1.8v.1H83m3.4 0V151h.3v2.5zm0-3.1-.1-.2v-.3h.5v.4zm1.3 3h-.1V151h.4v.3l.3-.3.5-.1.6.1q.3.2.3.4l.2.6v1.5h-.5v-1.4q0-.4-.2-.6l-.5-.2q-.3 0-.5.2l-.2.6v1.4h-.3m4 1.2-.6-.1-.3-.2-.2-.3v-.3h.4v.3l.3.1h.7l.3-.2v-.8l-.3.3h-.9a1 1 0 0 1-.6-.7v-1.1l.2-.4.4-.3.4-.1.5.1q.3 0 .4.3v-.3h.4v3.1l-.5.4zm0-1.5.3-.1.3-.3v-1.1l-.3-.3h-.8l-.2.3v1.1l.2.3zm4.2.4-.7-.1-.3-.4-.2-.6v-.5q0-.3.2-.6l.4-.4.6-.1.6.1.4.4.2.6v.5q0 .3-.2.6l-.4.4zm0-.4q.3 0 .5-.2l.2-.6v-.3q0-.5-.2-.6l-.5-.2q-.3 0-.5.2l-.2.6v.3q0 .5.2.6.2.3.5.2m2.9.4-.7-.1-.4-.4-.1-.6v-.4l.1-.7.4-.4.7-.1h.5l.3.3.3.5v.1h-.5l-.2-.4-.4-.1q-.3 0-.5.2t-.2.6v.3q0 .4.2.6.2.3.5.2h.4l.2-.4v-.1h.4l-.1.5-.5.4zm2.7 0-.6-.1-.4-.4-.1-.6v-.4l.1-.7.4-.4.6-.1h.5l.4.3.3.5v.1h-.5q0-.3-.3-.4l-.4-.1q-.2 0-.5.2l-.2.6v.3l.2.6q.2.3.5.2h.4l.3-.4v-.1h.4l-.1.5-.6.4zm2.7 0-.5-.1-.4-.4V151h.4v1.5q0 .7.7.7.3 0 .5-.2l.1-.5V151h.5v2.5h-.4v-.3l-.4.3zm2.2 0-.1-.2v-2.4h.4v.3l.3-.3h.7v.3h-.4l-.4.2-.1.5v1.5h-.4"/>
    <g clip-path="url(#t)">
      <rect width="347.2" height="15.4" x="26.9" y="158.9" fill="#f8f8f9" rx="2"/>
      <rect width="347.2" height="15.4" x="26.9" y="158.9" stroke="#f8f8f9" stroke-width=".4" rx="2"/>
      <path fill="#302e36" d="M31.3 168.1h-.1v-.1l1.2-3.3.2-.1h.4v.1l1.3 3.3v.1h-.4l-.3-.8h-1.7l-.3.7v.1zm.8-1.2h1.3l-.7-1.8zm4 1.2h-.2v-2.5l.1-.1h.3v.3l.4-.2.5-.1.6.1.3.4.1.6v1.4l-.1.1h-.3v-1.5l-.2-.5q-.2-.2-.5-.2t-.5.2q-.3.1-.2.5v1.4l-.1.1zm3.9 0q-.5 0-.8-.2-.3-.4-.4-1v-.3q0-.3.2-.6 0-.3.4-.4l.6-.1.6.1.4.5.2.7v.1h-1.9v.5l.3.3.4.1.6-.3h.4v.2l-.2.2zm-.7-1.5h1.4l-.1-.4-.2-.3h-.8l-.2.3zm3 1.5v-.1l-.8-2.3v-.2h.4l.6 2 .6-1.9.1-.1h.3v.1l.7 1.9.5-2h.4v.1l-.7 2.4-.1.1H44v-.1l-.7-1.8-.6 1.8-.1.1zm4.6 0zv-2.5h.3l.1.1v2.4l-.1.1zm0-3v-.1l-.1-.1v-.3h.5v.4zm2 3h-.4l-.4-.2-.1-.2-.1-.1v-.1h.4l.2.1.2.2h.7l.1-.4v-.2l-.3-.1-.4-.1-.5-.2-.3-.3v-.6q.1-.3.4-.3l.5-.1h.5l.5.4v.2h-.3l-.2-.1-.2-.1h-.6l-.2.3v.2l.3.1.5.1.5.2.2.3.1.3-.1.4-.4.3zm2.6 0H51l-.3-.2-.2-.2v-.2h.3l.2.1.2.2h.7l.2-.4v-.2l-.3-.1-.5-.1-.5-.2-.2-.3v-.6q.1-.3.4-.3l.5-.1h.4l.5.4v.2H52l-.2-.1-.1-.1H51l-.1.3v.2l.3.1.4.1.5.2q.3 0 .3.3v.7l-.4.3zm2.6 0h-.5l-.3-.5-.2-.6v-1.4l.2-.1h.2l.1.1v1.4q0 .8.7.8l.5-.2.2-.6v-1.5h.4v2.6H55l-.1-.1v-.2l-.3.3zm3.1 0q-.5 0-.8-.2-.3-.4-.3-1v-.3l.1-.6.4-.4.6-.1.7.1.4.5.1.7v.1h-1.8v.5l.3.3.3.1.6-.3h.5v.2l-.3.2zm-.6-1.5h1.3v-.4l-.3-.3H57l-.3.3zm3.8 1.5h-.1v-2.6h.3l.1.1v2.4l-.1.1zm0-3-.2-.1v-.4h.5v.4zm2 3h-.5q-.3 0-.3-.2l-.2-.2-.1-.1v-.1h.4l.2.1.2.2h.7l.2-.4-.1-.2-.3-.1-.4-.1-.5-.2-.3-.3v-.6l.4-.3.5-.1h.5l.5.4v.2H63l-.2-.1-.2-.1H62l-.2.3v.2l.3.1.5.1.5.2.3.3v.7l-.4.3zm4 0h-.7l-.4-.5-.2-.6v-.4l.2-.6q0-.3.4-.4l.6-.1h.5l.4.2.2.6v.1H67v-.1l-.3-.3-.4-.1-.5.1-.2.6v.4l.2.6.5.2.4-.1.2-.4h.5l-.1.5-.6.3zm1.7 0zv-2.5h.3v.3l.4-.2.4-.1h.2l.1.1v.3H69q-.3 0-.4.2l-.2.4v1.5l-.1.1zm2.8 0q-.5 0-.8-.2-.3-.4-.3-1v-.3l.1-.6.4-.4.6-.1.7.1.4.5.1.7v.1h-1.9v.1l.1.4.3.3.3.1.6-.3h.5v.2l-.3.2zm-.7-1.5h1.4v-.4l-.3-.3h-.7l-.3.3zm3.2 1.6-.4-.1-.4-.3v-.4q0-.3.2-.5t.7-.3l.8-.1v-.2q0-.2-.2-.3l-.4-.2-.4.1-.2.2v.1h-.4v-.3l.2-.2.3-.2h1l.5.5v2.1h-.3l-.1-.1v-.2l-.2.2zm.1-.4h.4l.3-.4v-.6l-.5.1-.5.2q-.3 0-.2.3v.2l.3.1zm3 .3H76l-.2-.4-.1-.5V166h-.5v-.4h.5v-.9h.4v.9h.7v.4H76v1.3l.1.4.3.1h.4v.4zm2 0q-.6 0-.9-.2-.3-.4-.3-1v-.3q0-.3.2-.6 0-.3.4-.4l.6-.1.6.1.4.5.1.7v.1h-1.8v.5l.3.3.4.1.6-.3h.4v.2l-.2.2zm-.7-1.5H79v-.4l-.3-.3h-.7l-.2.3zm3.4 1.6-.5-.1-.3-.3-.2-.4v-1.2q0-.2.2-.4l.3-.2.5-.1h.5l.3.3v-1.2h.4v3.5H82v-.3l-.4.3zm0-.4q.4 0 .5-.2l.2-.2.1-.4v-.7l-.3-.3-.4-.1h-.4l-.2.4-.1.4v.7l.3.3z"/>
    </g>
    <path stroke="#dad9de" stroke-width=".4" d="M29.6 158.9h341.8c1.5 0 2.7 1.2 2.7 2.7v10c0 1.5-1.2 2.7-2.7 2.7H29.6a2.7 2.7 0 0 1-2.7-2.7v-10c0-1.5 1.2-2.7 2.7-2.7Z"/>
    <g clip-path="url(#u)">
      <rect width="347.2" height="15.4" x="26.9" y="177.6" fill="#f8f8f9" rx="2"/>
      <rect width="347.2" height="15.4" x="26.9" y="177.6" stroke="#f8f8f9" stroke-width=".4" rx="2"/>
      <path fill="#302e36" d="M31.3 186.8h-.1v-.1l1.2-3.3v-.1h.6l1.3 3.3v.2h-.4v-.1l-.3-.7h-1.7l-.3.7zm.8-1.2h1.3l-.7-1.8zm2.8 1.2-.1-.1v-2.4l.1-.1h.3v.3l.4-.3h1.1l.3.5.1.6v1.4h-.4v-1.4l-.2-.6-.5-.2-.5.2q-.2.2-.2.6v1.4h-.4m4.3 0zv-2.6h.4v2.5zm0-3.1H39v-.5h.4v.4zm2 3.1h-.5l-.3-.2-.2-.2v-.2h.3l.2.1.2.1h.7l.2-.3v-.2l-.3-.2H41l-.5-.2-.2-.3-.1-.3.1-.4.3-.3h1l.5.3v.3h-.3l-.2-.2h-.1l-.3-.1-.4.1-.1.3v.1l.2.2.5.1.5.2.3.2a1 1 0 0 1 0 .8l-.4.2zm2.6 0h-.5l-.4-.2-.1-.2-.1-.2h.4l.2.1.2.1h.7l.2-.3-.1-.2-.3-.2h-.4l-.5-.2-.3-.3v-.7l.4-.3h1l.5.3v.3h-.3l-.2-.2H44l-.3-.1-.3.1-.2.3v.1l.3.2.5.1.5.2.3.2a1 1 0 0 1 0 .8l-.5.2zm2.6 0-.6-.1-.3-.4-.1-.6v-1.4l.1-.1h.3v1.5q0 .7.7.7.3 0 .5-.2t.2-.5v-1.4l.1-.1h.3v2.5h-.3v-.2l-.4.2zm3 0-.7-.3q-.4-.3-.4-.9v-.3q0-.3.2-.6a1 1 0 0 1 1-.6q.3 0 .6.2.3 0 .4.4l.2.7v.2h-1.9v.5l.3.3h.4l.6-.2.1-.1h.3v.3l-.2.2zm-.6-1.5h1.4l-.1-.4-.2-.3-.4-.1-.4.1-.2.3zm3.8 1.5-.1-.1v-2.4l.1-.1h.3v2.5zm0-3.1h-.1v-.5h.4v.4zm2 3.1h-.5l-.3-.2-.2-.2v-.2h.3l.2.1.2.1h.7l.2-.3v-.2l-.3-.2h-.5l-.5-.2-.2-.3v-.7l.3-.3h1l.5.3v.3h-.3l-.2-.2H55l-.3-.1-.4.1-.1.3v.1l.2.2.5.1.5.2q.2 0 .3.2a1 1 0 0 1 0 .8l-.4.2zm3 0-.1-.1v-2.4l.1-.1h.3v.3l.3-.2.5-.1h.2v.4h-.3q-.3 0-.5.2l-.1.4v1.5h-.4m2.8 0-.8-.3q-.3-.3-.4-.9v-.3l.2-.6a1 1 0 0 1 1-.6q.5 0 .6.2.3 0 .4.4l.2.7v.2h-1.9l.1.5.2.3h.4l.6-.2.1-.1h.3l.1.1v.2l-.3.2zm-.7-1.5h1.4v-.4l-.3-.3-.4-.1-.4.1-.2.3zm3.4 1.5h-.5l-.3-.2-.2-.2v-.2h.3l.2.1.2.1h.7l.2-.3-.1-.2-.2-.2h-.5l-.5-.2-.2-.3-.1-.3v-.4l.4-.3h1l.5.3v.3h-.3l-.2-.2h-.2l-.2-.1-.4.1-.2.3.1.1.2.2.5.1.5.2.3.2a1 1 0 0 1 0 .8l-.4.2zm2.7 0-.6-.1-.4-.4-.2-.6v-.4q0-.5.2-.6 0-.3.4-.4l.6-.2q.5 0 .6.2.3 0 .4.4l.2.6v.4q0 .3-.2.6 0 .3-.4.4zm0-.3.5-.2.2-.6v-.4q0-.4-.2-.6l-.5-.2q-.3 0-.5.2l-.2.6v.4q0 .3.2.6zm2 .3h-.1v-3.5h.3v3.4zm2 0h-.2v-.1l-1-2.4.1-.1h.3l.9 2 .7-2h.5v.1l-1 2.4h-.3m2.8 0a1 1 0 0 1-.9-.3q-.3-.3-.3-.9v-.3q0-.3.2-.6a1 1 0 0 1 1-.6q.3 0 .6.2.3 0 .4.4l.1.7v.2h-1.8v.5l.3.3h.4l.6-.2.1-.1h.3v.3l-.2.2zm-.7-1.5h1.4l-.1-.4-.3-.3-.3-.1-.4.1-.2.3zm3.4 1.5h-.5l-.3-.3-.2-.4v-1.2l.2-.4.3-.3h1l.3.3v-1.2h.4v3.4h-.3v-.2l-.4.2zm.1-.4h.4l.2-.4.1-.3v-.8l-.3-.3H75l-.2.3v1.1l.2.3z"/>
    </g>
    <path stroke="#dad9de" stroke-width=".4" d="M29.6 177.6h341.8c1.5 0 2.7 1.2 2.7 2.7v10c0 1.5-1.2 2.7-2.7 2.7H29.6a2.7 2.7 0 0 1-2.7-2.7v-10c0-1.5 1.2-2.7 2.7-2.7Z"/>
  </g>
  <path stroke="#e6e6e9" d="M.5.5h401v191H.5z"/>
  <defs>
    <clipPath id="a">
      <path fill="#fff" d="M0 0h402v192H0z"/>
    </clipPath>
    <clipPath id="b">
      <path fill="#fff" d="M0 0h402v192H0z"/>
    </clipPath>
    <clipPath id="d">
      <path fill="#fff" d="M-23-58h448v313H-23z"/>
    </clipPath>
    <clipPath id="i">
      <path fill="#fff" d="M32.5 70.7q.1-1.6 1.8-1.8h40.2q1.6.1 1.8 1.8v6.5q-.1 1.6-1.8 1.8H34.3q-1.6-.1-1.8-1.8z"/>
    </clipPath>
    <clipPath id="j">
      <path fill="#fff" d="M35.4 71.8q0-1 1-1.1h4.3q1 .1 1.1 1v4.4q-.1 1-1 1h-4.4a1 1 0 0 1-1-1z"/>
    </clipPath>
    <clipPath id="k">
      <path fill="#fff" d="M35.4 70.7h6.5v6.5h-6.5z"/>
    </clipPath>
    <clipPath id="m">
      <path fill="#fff" d="M77 70.7q.1-1.6 1.8-1.8h35.3q1.7.1 1.8 1.8v6.5q-.1 1.6-1.8 1.8H78.8q-1.7-.1-1.8-1.8z"/>
    </clipPath>
    <clipPath id="n">
      <path fill="#fff" d="M80 70.7h6.4v6.5H80z"/>
    </clipPath>
    <clipPath id="o">
      <path fill="#fff" d="M109.4 71.8h4.3V76h-4.3z"/>
    </clipPath>
    <clipPath id="p">
      <path fill="#fff" d="M148.1 71.8h4.3V76h-4.3z"/>
    </clipPath>
    <clipPath id="s">
      <path fill="#fff" d="M148.1 115.4h4.3v4.3h-4.3z"/>
    </clipPath>
    <clipPath id="t">
      <path fill="#fff" d="M26.7 161.6c0-1.6 1.3-2.9 3-2.9h341.7c1.6 0 3 1.3 3 2.9v10c0 1.6-1.4 3-3 3H29.6a3 3 0 0 1-2.9-3z"/>
    </clipPath>
    <clipPath id="u">
      <path fill="#fff" d="M26.7 180.3c0-1.6 1.3-3 3-3h341.7c1.6 0 3 1.4 3 3v10c0 1.6-1.4 2.9-3 2.9H29.6a3 3 0 0 1-2.9-2.9z"/>
    </clipPath>
    <filter id="f" width="129.3" height="12.9" x="26.7" y="67.5" color-interpolation-filters="sRGB" filterUnits="userSpaceOnUse">
      <feFlood flood-opacity="0" result="BackgroundImageFix"/>
      <feBlend in="SourceGraphic" in2="BackgroundImageFix" result="shape"/>
      <feColorMatrix in="SourceAlpha" result="hardAlpha" values="0 0 0 0 0 0 0 0 0 0 0 0 0 0 0 0 0 0 127 0"/>
      <feOffset dy=".8"/>
      <feComposite in2="hardAlpha" k2="-1" k3="1" operator="arithmetic"/>
      <feColorMatrix values="0 0 0 0 0.854902 0 0 0 0 0.85098 0 0 0 0 0.870588 0 0 0 1 0"/>
      <feBlend in2="shape" result="effect1_innerShadow_10733_3660"/>
    </filter>
    <filter id="h" width="43.8" height="10.6" x="32.5" y="68.9" color-interpolation-filters="sRGB" filterUnits="userSpaceOnUse">
      <feFlood flood-opacity="0" result="BackgroundImageFix"/>
      <feColorMatrix in="SourceAlpha" result="hardAlpha" values="0 0 0 0 0 0 0 0 0 0 0 0 0 0 0 0 0 0 127 0"/>
      <feOffset dy=".5"/>
      <feComposite in2="hardAlpha" operator="out"/>
      <feColorMatrix values="0 0 0 0 0.854902 0 0 0 0 0.85098 0 0 0 0 0.870588 0 0 0 1 0"/>
      <feBlend in2="BackgroundImageFix" result="effect1_dropShadow_10733_3660"/>
      <feBlend in="SourceGraphic" in2="effect1_dropShadow_10733_3660" result="shape"/>
    </filter>
    <filter id="l" width="38.8" height="10.6" x="77" y="68.9" color-interpolation-filters="sRGB" filterUnits="userSpaceOnUse">
      <feFlood flood-opacity="0" result="BackgroundImageFix"/>
      <feColorMatrix in="SourceAlpha" result="hardAlpha" values="0 0 0 0 0 0 0 0 0 0 0 0 0 0 0 0 0 0 127 0"/>
      <feOffset dy=".5"/>
      <feComposite in2="hardAlpha" operator="out"/>
      <feColorMatrix values="0 0 0 0 0.854902 0 0 0 0 0.85098 0 0 0 0 0.870588 0 0 0 1 0"/>
      <feBlend in2="BackgroundImageFix" result="effect1_dropShadow_10733_3660"/>
      <feBlend in="SourceGraphic" in2="effect1_dropShadow_10733_3660" result="shape"/>
    </filter>
    <filter id="q" width="129.3" height="12.9" x="26.7" y="111.1" color-interpolation-filters="sRGB" filterUnits="userSpaceOnUse">
      <feFlood flood-opacity="0" result="BackgroundImageFix"/>
      <feBlend in="SourceGraphic" in2="BackgroundImageFix" result="shape"/>
      <feColorMatrix in="SourceAlpha" result="hardAlpha" values="0 0 0 0 0 0 0 0 0 0 0 0 0 0 0 0 0 0 127 0"/>
      <feOffset dy=".7"/>
      <feComposite in2="hardAlpha" k2="-1" k3="1" operator="arithmetic"/>
      <feColorMatrix values="0 0 0 0 0.854902 0 0 0 0 0.85098 0 0 0 0 0.870588 0 0 0 1 0"/>
      <feBlend in2="shape" result="effect1_innerShadow_10733_3660"/>
    </filter>
    <linearGradient id="c" x1="145.5" x2="254.5" y1="-36" y2="247" gradientUnits="userSpaceOnUse">
      <stop stop-color="#5a3bda"/>
      <stop offset="1" stop-color="#2a1871"/>
    </linearGradient>
  </defs>
</svg>