<svg xmlns="http://www.w3.org/2000/svg" width="402" height="192" fill="none" viewBox="0 0 402 192">
  <g clip-path="url(#a)">
    <g clip-path="url(#b)">
      <path fill="url(#c)" d="M0 0h402v192H0z"/>
      <g clip-path="url(#d)">
        <path fill="#9e86ff" d="M285 120.2a11 11 0 0 0 4 5.2l1.2.8q.4 0 .8.4l.9.3q1.8.7 5 .7c2 0 4.4-.6 7-.8q3.7-.6 8 0 2.1.3 4.1 1.4 2 1.2 3.4 3 2.8 3.4 4.9 7.4c1.4 2.5 2.8 5.1 5 6.8a12 12 0 0 0 3.6 1.9q2 .5 4 .7 4 .2 7.8-.2l7.1-.3c2 0 5.8 0 9.5 1.3q1.3.5 2.5 1.2l1.2.7 1 .8q1 .7 1.8 1.5l.6.7.6.6c1.4 1.7 1.9 2.6 2.4 3.4s.8 1.7 1.7 3.5l-2.4-3.2c-.5-.7-1-1.5-2.5-3q-1.5-1.8-4.1-3.7-2.7-1.7-6.4-2.3-3.5-.6-6.8-.4l-5.7.3q-3.3.3-7 .3-3.7.1-7.4-1.5-1.8-.8-3.3-2.3t-2.5-3.2l-4-6.8a19 19 0 0 0-5-5.8c-2-1.4-4.6-2-7-2q-3.9 0-7.4.6t-7 .4q-1.7-.2-2.6-.6t-1.6-.7-1.5-1l-1-.7-1-1.1a10 10 0 0 1-2-4.3v-.1M291.2 99.2a12 12 0 0 0 6.7 3.1c2.1.3 4.7.4 9.2-1.5l7.1-3.4q3.9-2 8.5-3.2c3-.7 6.5-.8 9.7.6q4.6 2.1 8.2 5.6 3.6 3.6 7.4 6.4 4 3 8.4 3.8l2.2.2h2.2q2.3-.1 4.2-.5a45 45 0 0 0 7.6-2.2l4.2-1.6q2.6-1.1 5.7-1.9.8-.2 1.6-.3l1.6-.2h3q2.8.4 4.4 1l2.7 1.1 1.6 1c1 .4 1.8 1 3.6 2.3v.2l-4-2-1.6-.7-2.6-1-2.7-.7q-1.6-.2-3.4-.2-3.6.1-7.4 1.7l-7.3 2.8a48 48 0 0 1-8.1 2.1l-2 .2-1 .1h-3q-4.2-.5-8.2-2.6c-5.1-3-8.9-7.8-13.7-11.2q-3.5-2.7-7.8-3.3c-2.9-.3-5.7.4-8.3 1.3-5.3 1.9-10 4.9-14.7 6.4-2.4.8-3.7.8-5 .8h-.9l-1-.2a13 13 0 0 1-5.3-2.2l-2-1.8q0 0 .2 0M298.1 77.5c2.2.7 3.5.9 5 1h2.6q1.5 0 3.7-.8 2.1-.8 4-3l3.3-5q1.5-2.6 3.8-5.3a13 13 0 0 1 9.2-4.3h3.4q3.3.3 6.4.8 3 .5 5.9.3 2.7-.2 4.8-1.5a26.8 26.8 0 0 0 9.3-10l1.4-2.8c.2-.7.6-1.3 1-2.7h.1c-.1 1.6-.3 2.3-.5 3q-.2.9-1.1 2.9a26 26 0 0 1-10.3 11q-2.4 1.1-4.3 1.3c-3.5.4-7.2-.5-11-1-3.7-.3-7.9-.5-11 1.7-3.3 2.2-5.2 5.9-7.3 9.1q-1.5 2.5-3.6 4.5a11 11 0 0 1-8.2 2.8 17 17 0 0 1-6.7-2z"/>
        <path fill="#a737b4" d="m382 1.4 7.3 43.4a12 12 0 0 0-5-3.3c-3.2-1.2-7.8-.7-9.5 3.4-1.3 3.2-.7 7.2 3 10.1 6.7 5.4 15 1.7 15 1.7l-.7-6.1-4.6-35.5s4.8 7.3 21.4 6.5l.5-8c-17.7 5-27.5-12.2-27.5-12.2"/>
        <path fill="#a737b4" d="M386.4 58.4c-2.8 0-6-.7-8.9-3-4.1-3.4-4.3-7.7-3-10.6 1.6-4.2 6.3-5 9.9-3.7q2.4.8 4.2 2.5l-7-42.2a.4.4 0 0 1 .7-.2c0 .1 9.8 16.9 27 12a.4.4 0 0 1 .5.4l-.4 8q0 .4-.4.5c-13 .6-18.8-3.6-20.9-5.7l5.2 40.3q0 .3-.3.4s-2.9 1.3-6.6 1.3m-5.1-17c-2.5 0-5 1-6.1 3.7s-1 6.6 2.8 9.6c5.8 4.6 12.9 2.3 14.4 1.8L387 15.2a.4.4 0 0 1 .8-.3s4.8 7 20.6 6.3l.4-7c-14 3.6-23.2-6.8-26.2-11l7 41.6a.4.4 0 0 1-.7.3q-2-2.3-4.9-3.3-1.4-.5-2.8-.5"/>
        <path fill="#7553ff" d="m325.2 13.3 7.2-18.4-.9 19.8 14.6 7.8-16.3-1S322 40.5 322 40l1.7-20.6-13.8-6.8z"/>
        <path fill="#7553ff" d="M322 40.5a.4.4 0 0 1-.4-.5l1.8-20.4-13.6-6.6a.4.4 0 0 1-.2-.5q0-.3.4-.3l15 .6 7-18a.4.4 0 0 1 .8.1l-.8 19.5 14.3 7.8a.4.4 0 0 1-.3.8l-16-1c-7 17.3-7.5 18.5-8 18.5M312 13l12 6q.3 0 .2.3l-1.5 18.3 6.7-16.4.4-.2 14.4.9-12.9-7-.2-.3.8-17.3-6.3 16q0 .3-.4.3zM402.7 140l-.6-16.7-4.9 16-13.8 2.3 13.3 3.7s.8 17.5 1 17c0-.4 4.4-17 4.4-17l13-1.6z"/>
        <path fill="#7553ff" d="M397.5 162.7q.4 0 .5-.2l4.4-16.8L415 144q.3 0 .3-.3t-.2-.4l-12.2-3.6-.5-16.5q0-.3-.3-.4-.3 0-.4.3l-4.9 15.9-13.6 2.2q-.3 0-.3.3t.3.3l13 3.7c.8 16 .9 17 1.2 17.1m15.8-19.1L402 145q-.1 0-.3.2l-3.9 15.1-1-15.3-11.8-3.3 12.3-2q.2 0 .3-.2l4.2-14 .5 14.5q0 .3.3.4zM293.4 175l-2.4-30.7 12.3 27.4 33-4.4-30.4 13.1L311 220l-16.6-37.7L271 186z"/>
        <path fill="#7553ff" d="M311 220.4q-.2 0-.3-.2l-16.5-37.5-23.3 3.7a.4.4 0 0 1-.2-.7l22.3-11-2.5-30.4a.4.4 0 0 1 .8-.2l12.3 27.2 32.6-4.4q.4 0 .4.3t-.2.5l-30 13 5 39.3a.4.4 0 0 1-.4.4m-16.6-38.6q.3 0 .4.3l15.4 35-4.7-36.6q0-.3.3-.4l27.5-12-30 4q-.2 0-.4-.2l-11.3-25.2 2.2 28.3q0 .3-.2.4l-20 9.8z"/>
        <path fill="#ff9838" d="M352.5 176a6.5 6.5 0 0 1 8-.3c2 1.6 1.4 4.6-.5 6-2.8 2-6.5 1.4-8.1-.4-1.5-1.6-.7-4.1.6-5.2"/>
        <path fill="#9e86ff" d="M136.6 42.7q.4-2 .7-3 .2-1.3 1.4-3.8c1.8-3.7 4.7-8.4 9-12a27 27 0 0 1 13.5-6.4 36 36 0 0 1 8.6-.5c2 .3 1.9.3 3.7.9v.1h-3.7a41 41 0 0 0-11.3 1.4c-3.8 1-8.2 3.3-11.6 6.7-3.4 3.3-6 7.6-7.6 11.1l-1.7 3.6c-.3 1-.5 1.1-.9 2M128.5 34.3l.5-2.7q.2-1 1.3-3.3a40 40 0 0 1 7.5-10.8 30 30 0 0 1 18.4-8.8c1.8-.1 1.6 0 3.3.2V9l-3.2.6a36 36 0 0 0-9.6 2.8 29 29 0 0 0-9.3 7.2c-2.8 3.1-5 6.8-6.5 10l-1.5 3zM217.1 16.5l8.7 13.3 8-14.7z"/>
        <path fill="#9e86ff" d="m225.8 30.2-.4-.2-8.7-13.3a.4.4 0 0 1 .4-.6l16.6-1.4.4.1v.5l-8 14.7zm-8-13.3 8 12 7.2-13.3z"/>
        <path fill="#a737b4" d="m135.4 165.2 14.2 11.5-19.6 6.5z"/>
        <path fill="#a737b4" d="m129.3 183.9 5.8-19.4 15.3 12.3zm6.3-18-5 16.7 18.1-6z"/>
        <path fill="#9e86ff" d="M112.4 164.6a12 12 0 0 0-3.8.5l-2.8 1.1-1.4.8q-.7.5-1.5 1.1-1.7 1.2-3.8 3.7a30 30 0 0 1-11.5 10.4q-4.1 1.9-8.8 2-4.7-.2-9-2.3a59 59 0 0 0-8.2-3.4 17 17 0 0 0-15.7 2.1l-1.5 1.2-1.4 1.1-2.5 2.5a41 41 0 0 1-7.6 6q-2.6 1.6-5.3 2.2a16 16 0 0 1-6.9 0l-1.6-.5-3.7-1.5 4 .9 1.5.2 2.5.3q2.5.2 5.6-.9t6-3.4a57 57 0 0 0 5.4-4.8l2.3-2.3L45 180a18.4 18.4 0 0 1 14.5-3.2q4 1 7.7 2.6c2.5 1 4.9 2.5 7.4 3.1q4 1 8 .3a21 21 0 0 0 7.1-3q3.2-2 5.7-4.8l2.2-2.8 1.1-1.4 1.2-1.3a19 19 0 0 1 3.6-2.8 16 16 0 0 1 6.7-2.3l2.3.1q.2 0 .1.1M21.4 162a16 16 0 0 0 9.1 1.9q1.9-.1 4.3-1.8a36 36 0 0 0 4.8-4.4q2.3-2.7 5.5-5.2 1.5-1.2 3.5-2 2-1 4-1l1.1-.1h1.1q1 0 2.2.2 1 .1 2 .5t2 .9c2.6 1.3 4.7 3.2 6.8 4.8 2.1 1.7 4.4 3.2 6.8 3.4q3.7.3 6.8-1.5 3-1.6 5.4-3.7l2.9-2.5q1.7-1.5 4-3 2.4-1.5 5-1.9 2.4-.2 3.8.2l2.3.9q.8.3 1.4.8l3 2.3h-.2q-1.2-.8-2-1.2l-1.2-.6-1.3-.6-2.2-.6a10 10 0 0 0-5 .2q-2.8 1-5.5 3.2l-5 4.3a29 29 0 0 1-4.5 3.1q-2.7 1.6-6.4 1.9-1.8 0-3.6-.6-1.6-.6-3.3-1.7-2.9-2.2-5.8-4.5a15 15 0 0 0-6.5-3 15 15 0 0 0-7 .6q-3.4 1.3-6 3.8l-4.9 5a19 19 0 0 1-5.2 4q-1.5.6-2.5.7l-1.7.1c-1 0-2 0-4-.7a13 13 0 0 1-4.1-2.3zM35.1 30.5a16 16 0 0 0 8.1 4.6q1.9.4 4.7-.4 2.7-1 5.9-2.8 3-1.8 6.7-3.3 2-.7 4-.9 2.1 0 4.2.3l1 .2 1 .3q1.2.3 2 .9l2 1.1 1.5 1.4q2.9 3.2 5 6.7c1.6 2.2 3.2 4.3 5.5 5.3q3.4 1.3 7 .6 3.3-.7 6.2-2l3.5-1.4q2.1-1 4.8-1.7 2.7-.8 5.2-.3t3.7 1.3l2 1.5 1 1.2 2 3-1.6-1.7-1-1-1-.9-2-1.2a10 10 0 0 0-4.8-1.3q-3 .1-6.2 1.4-3 1.3-6 2.5t-5.2 1.7q-3.2.7-6.8-.1-1.7-.6-3.2-1.7-1.5-1-2.6-2.6-2.2-3-4.2-6a15 15 0 0 0-5.3-4.8 15 15 0 0 0-7-1.6c-2.3 0-4.6.9-6.7 1.9l-6.2 3.2q-3 1.7-6.2 2.3h-2.6l-1.6-.4q-1.3-.4-3.7-2a13 13 0 0 1-3.2-3.3z"/>
        <path fill="#7553ff" d="m77.4 92.3 1.1 43.3L85 92.8l33.8-4.5L85 83.7l-1.6-36.4L77.6 84l-35.8 3.2z"/>
        <path fill="#7553ff" d="M78.5 136a.4.4 0 0 1-.4-.4l-1.1-43-35.3-5a.4.4 0 0 1 0-.8l35.6-3.1 5.6-36.5q.1-.4.5-.3.4 0 .4.4l1.6 36 33.4 4.6q.4 0 .4.4.1.1-.4.4h-.1l-5.1.7-28.3 3.8-6.4 42.5q0 .3-.4.3m-33-48.7 32 4.6q.3 0 .3.4l1 38.5 5.8-38q0-.3.3-.4l30.8-4L85 84a.4.4 0 0 1-.4-.4L83 51.5l-5 32.6q0 .3-.4.4z"/>
        <path fill="#a737b4" d="m106.1 65-2-10.4 8.7-3.8 2.8 9.7z"/>
        <path fill="#a737b4" d="m106.1 65.4-.4-.3-2-10.4q0-.3.2-.5l8.8-3.8h.3l.2.3 2.8 9.7q0 .4-.2.4l-9.5 4.6zM104.5 55l2 9.5 8.6-4.2-2.5-8.8z"/>
        <path fill="#ff9838" d="m40.9 112.9 7.4 21.9 6.3-2-8-21.7z"/>
        <path fill="#a737b4" d="M26.2 119.5c-4.3-.5-6.4 2.4-7.4 5.3l-4.2-25.9-4.7 2.4 9.8 36.2s7.6 0 10.4-7.6c1.8-5-.1-9.9-4-10.4"/>
        <path fill="#a737b4" d="M19.7 138a.4.4 0 0 1-.4-.4l-9.8-36.2q0-.3.2-.5l4.7-2.4h.4l.2.4 4 24.4q2.3-4.8 7.2-4.2 2.5.4 3.9 2.6a10 10 0 0 1 .4 8.3c-2.9 7.8-10.7 8-10.8 8m-9.3-36.5 9.6 35.6a11 11 0 0 0 9.7-7.4 9 9 0 0 0-.3-7.5q-1.3-1.9-3.3-2.3-4.8-.6-7 5 0 .3-.4.3l-.4-.3-4-25.3z"/>
        <path fill="#ff9838" d="M97.9 26.4 83.4 21l18.9-17.5z"/>
        <path fill="#9e86ff" d="m45.6 7.6 5 8.5L60.8 6 54 .9z"/>
        <path fill="#9e86ff" d="m50.5 16.5-.3-.2-5-8.5v-.5L53.7.4h.6l7 5.4a.4.4 0 0 1 0 .7l-10.4 9.9zm-4.4-8.8 4.5 7.7 9.7-9.2-6.4-5z"/>
        <path fill="#7553ff" d="M-2.4 46 8.8 35l-16.2-5.3z"/>
        <path fill="#7553ff" d="M-2.6 46.8-8 29 9.6 35zm-4.2-16.5 4.6 15L8 35.2z"/>
        <path fill="#a737b4" d="M40.8 70.3c1.5 3.3-1.5 5.8-3.6 6.5-2.1.6-6 0-6.7-3-.9-2.9 1.4-5.4 3.6-6.2s5.5 0 6.7 2.7"/>
        <path fill="#a737b4" d="M35.6 77.4a7 7 0 0 1-3.3-.8q-1.7-1-2.2-2.6c-.9-3 1.3-6 3.8-6.8 2.4-.9 6 .1 7.2 2.9q1 2 .1 3.8a7 7 0 0 1-3.9 3.3zm.1-9.7q-.8 0-1.5.3c-1.8.6-4.1 2.9-3.3 5.7a4 4 0 0 0 1.8 2.2 6 6 0 0 0 4.4.5 6 6 0 0 0 3.3-2.9q.8-1.5 0-3c-.8-1.8-2.8-2.8-4.7-2.8"/>
        <path fill="#ff9838" d="m344.1 134.8-6-12.7 16 .9z"/>
        <path fill="#7553ff" d="m384.6 90.7 5.9-16.3 8.5 1.7-5.6 16.7z"/>
        <path fill="#7553ff" d="M393.4 93.2h-.1l-8.8-2-.3-.3v-.3l5.9-16.3q0-.3.5-.3l8.5 1.7a.4.4 0 0 1 .3.5L393.8 93q0 .3-.4.3m-8.3-2.8 8 1.9 5.3-16-7.7-1.4z"/>
      </g>
    </g>
    <path stroke="#e6e6e9" d="M.5.5h401v191H.5z"/>
    <g clip-path="url(#e)">
      <path fill="#fff" d="M22 20.2c0-1.9 1.5-3.4 3.4-3.4h352.2c1.9 0 3.4 1.5 3.4 3.4V172c0 1.9-1.5 3.4-3.4 3.4H25.4A3.4 3.4 0 0 1 22 172z"/>
      <path fill="#000" d="M35.1 31.8q-.8 0-1.3-.2l-.9-.6-.3-.8.2-.2h1v.2l.3.3.4.2.6.1q.6 0 1-.2l.2-.5-.1-.4-.5-.3-1-.3q-.6 0-1-.3l-.7-.6-.2-.8q0-.6.3-1 .3-.3.8-.5l1.2-.3q.5 0 1 .2l.7.4.4.5.2.6-.2.1h-1v-.1l-.4-.5-.7-.2q-.5 0-.8.2t-.3.5.2.4l.4.3.9.3q.6 0 1.2.4.4.2.6.5.3.3.3.8t-.4 1l-.8.6q-.6.3-1.3.2m5.3 0a2 2 0 0 1-1.6-.5q-.5-.6-.6-1.6v-.4q0-.6.3-1.1l.8-.8 1-.2q.8 0 1.2.3.6.2.8.8l.2 1.2v.3h-3.1v.1l.1.6.3.4.6.1h.4l.4-.4h.1l.1-.1h.9v.5l-.5.4-.6.3zm-1-2.7h2l-.2-.6-.3-.4-.5-.1-.6.1-.3.4zm4.2 2.7-.1-.1v-6h1v6h-.9m4 0a2 2 0 0 1-1.5-.5q-.6-.6-.6-1.6v-.4q0-.6.3-1.1l.7-.8 1.1-.2q.8 0 1.2.3t.7.8q.3.4.2 1.2v.3h-3v.7l.4.4.5.1h.4l.4-.4h.1l.2-.1h.9v.2l-.1.3-.4.4-.6.3zm-1-2.7h2l-.1-.6-.4-.4-.5-.1-.5.1-.3.4zm6 2.7q-.6 0-1-.2-.6-.2-.8-.7t-.3-1v-.7q0-.6.3-1.1l.7-.7 1.1-.2 1 .1.6.4a2 2 0 0 1 .5 1v.1h-1.2l-.3-.6-.6-.1q-.4 0-.7.3l-.2.8v.6q0 .6.2.9t.7.2h.6l.3-.6v-.1h1.1v.5l-.2.4-1 .6zm5 0-.9-.2q-.3-.2-.5-.6l-.2-.9v-2h-.8v-.8h.8v-1.6h1.1v1.6h1.3v.8h-1.2v2.5l.5.2h.8v.9h-.9m3.9 0-.2-.1v-4.4h1v.5l.5-.4.7-.2q1 0 1.4.8.1-.4.6-.6l.8-.2q.5 0 .8.2.5.2.6.6.3.4.2 1v2.7h-1l-.1-.2v-2.4l-.1-.6-.3-.3h-.8l-.3.3-.1.6v2.4l-.1.2h-1V29l-.2-.6-.3-.3h-.4l-.7.3-.1.6v2.6h-.9m9.5 0q-.7 0-1.2-.2l-.7-.7-.3-1V29q0-.6.3-1t.8-.7l1.1-.2q.7 0 1.1.2.6.3.8.7l.3 1v.8q0 .6-.3 1l-.7.7q-.5.2-1.2.2m0-.8q.4 0 .7-.3t.3-.8v-.7q0-.6-.3-.9L71 28q-.4 0-.7.3t-.3.9v.7q0 .5.3.8t.7.3m3.3.8-.1-.1v-4.4h1v.5a2 2 0 0 1 1.5-.6q.4 0 .9.2l.6.7.2 1v2.6h-1.1v-2.5q0-.6-.3-.8t-.7-.3l-.7.3q-.3.3-.3.8v2.5h-1m5.4 0-.1-.1-.1-.2v-4.2h1.1v4.4h-.9m0-5.3h-.2v-.9l.2-.1h.9v1h-.9m4 5.3-.8-.2q-.3-.2-.5-.6l-.2-.9v-2h-.8v-.8h.8v-1.6h1.1v1.6h1.3v.8h-1.2v2.5l.5.2h.7l.1.2v.7h-.9m3.7 0q-.6 0-1.1-.2t-.7-.7q-.3-.4-.3-1V29q0-.6.3-1t.7-.7l1.1-.2q.8 0 1.2.2l.7.7q.3.4.3 1v.8q0 .6-.3 1t-.7.7-1.2.2m0-.8q.5 0 .8-.3l.2-.8v-.7q0-.6-.2-.9a1 1 0 0 0-.8-.3q-.4 0-.7.3l-.2.9v.7q0 .5.2.8t.7.3m3.4.8-.2-.1v-4.4h1v.5l.6-.4.7-.1h.5v.9l-.1.1h-.7q-.4 0-.6.2-.3.3-.3.7v2.5h-.9m7 0-.9-.2q-.3-.2-.5-.6l-.2-.9v-2h-.8v-.8h.8v-1.6h1.1v1.6h1.3v.8h-1.2v2.5l.5.2h.7v.9h-.8m2.5 1.6h-.2V33l.7-1.6-1.7-4v-.2h1.1v.1l1.2 2.9 1.2-2.9.2-.1h.8v.3l-2.4 5.6-.1.1h-.8m4.3 0h-.1v-6.1h.9l.1.2v.3a2 2 0 0 1 1.4-.6l.8.1.5.5q.3.2.4.6l.1 1.1v.3l-.1.8q0 .4-.4.7l-.5.4-.8.1-.8-.1-.5-.5v2l-.1.1h-.9m2-2.5.5-.1q.3-.2.3-.5l.1-.5v-1.1l-.4-.4-.5-.2-.6.2-.3.4-.1.5v1.2l.4.4zm5 1a2 2 0 0 1-1.5-.6q-.6-.6-.6-1.6v-.4q0-.6.3-1.1l.7-.8 1.1-.2q.8 0 1.2.3.5.2.7.8.3.4.3 1.2v.1l-.1.2h-3v.7l.4.4.5.1h.4l.4-.4h.2l.1-.1h.9v.2l-.1.3-.4.4-.6.3zm-1-2.8h2l-.1-.6-.4-.4-.5-.1-.5.1-.3.4z"/>
      <path fill="#57606b" d="M33 41.6zv-4.1h.5l1.3 2.5 1.3-2.5h.6v4.1H36v-3l-1 2h-.7l-1-2v3H33m5.9.1q-.5 0-.8-.2-.3 0-.5-.4l-.2-.8v-.5l.2-.7.5-.5.8-.1.7.1.5.5.2.7v.5l-.2.8-.5.4zm0-.5q.3 0 .6-.2l.2-.7v-.5l-.2-.6-.6-.3q-.5 0-.6.3-.3.1-.3.6v.5q0 .4.3.7.1.3.6.2m2.3.4H41v-3h.5v.3l.4-.3.6-.1.7.1.4.5.1.7v1.8h-.5v-1.8q0-.4-.3-.6 0-.3-.6-.3l-.6.3-.2.6v1.8h-.4m3.6 0h-.1v-3h.5v3zm0-3.7h-.1v-.5h.6v.4l-.1.1zm2.6 3.7h-.6l-.3-.4V39h-.6v-.4h.5v-1.1l.2-.1h.3v1.1h.9v.4H47V41l.4.2h.5v.4h-.5m2.4.1q-.5 0-.8-.2-.3 0-.4-.4l-.2-.8v-.5q0-.4.2-.7 0-.3.4-.5l.8-.1.8.1.4.5.2.7v.5q0 .4-.2.8 0 .3-.4.4zm0-.5q.3 0 .6-.2l.2-.7v-.5q0-.4-.2-.6l-.6-.3q-.5 0-.6.3-.3.1-.2.6v.5q0 .4.2.7.1.3.6.2m2.3.4H52v-3h.5v.3l.4-.3h.8v.4h-.4q-.4 0-.6.2l-.1.5v1.9H52m3.3.1h-.6l-.4-.3-.2-.2-.1-.2v-.1h.4l.3.2.2.1h.9l.2-.4-.1-.2-.3-.2-.6-.2q-.3 0-.6-.2l-.3-.3V39l.5-.3.6-.1h.6l.5.5.1.2H56l-.2-.1-.2-.2h-.4l-.4.1-.2.3v.2l.3.2.6.2q.4 0 .6.2.3 0 .3.3l.1.4-.1.4-.4.4zm4.6 0-.6-.1q-.3 0-.4-.3l-.2-.5-.1-.7v-.7l.3-.5q.1-.2.4-.3l.6-.1h.6l.3.4v-1.4l.2-.1h.3l.1.1v4.1H61v-.3l-.4.3zm0-.5.6-.1.2-.4.1-.4v-.9l-.3-.3-.5-.2q-.3 0-.5.2l-.3.3v1.3l.3.4zm3.7.5q-.7 0-1-.4t-.4-1v-.4q0-.5.2-.8 0-.3.4-.5l.8-.1.7.1.5.6.2.8v.2h-2.2v.6l.3.3.5.2.7-.4h.5v.3l-.3.2zm-.9-1.9h1.7l-.1-.5-.3-.3-.4-.1-.5.1-.3.3zm4.2 1.8h-.6l-.3-.4V39h-.6v-.4h.5v-1.1l.2-.1h.3l.1.1v1h.8v.4h-.8V41l.4.2h.5v.4H67m2.4.1q-.7 0-1-.4t-.4-1v-.4q0-.5.2-.8 0-.3.4-.5l.8-.1.7.1.5.6.2.8v.2h-2.2v.6l.3.3.5.2.7-.4h.5v.3l-.3.2zm-.9-1.9h1.7l-.1-.5-.3-.3-.4-.1-.5.1-.3.3zm4.3 2q-.5 0-.8-.3-.2 0-.5-.4l-.1-.8v-.5l.1-.7.5-.5.8-.1h.6l.4.3.3.7h-.5l-.4-.5h-.4q-.5 0-.6.2-.3.1-.3.7v.4q0 .5.3.7.2.3.6.2h.4q.3-.2.3-.5v-.1h.5l.1.1-.2.5-.6.4zm3.2-.2h-.5l-.3-.4-.1-.6V39h-.5l-.1-.1v-.3h.6v-1.1l.1-.1h.4v1.1h.9v.4h-.8V41l.4.2h.5v.4H76m2.8 1.2h-.1v-4.2h.5v.3a1 1 0 0 1 1-.4h.6l.4.4.2.4V41l-.2.4a1 1 0 0 1-1 .4l-.6-.1-.4-.3v1.4h-.4m1.3-1.6.5-.1.2-.4.1-.4v-.9l-.3-.3-.5-.2q-.3 0-.5.2l-.3.3v1.3q0 .3.3.4zm2.3.4h-.1v-3h.5v.3l.3-.3h.9v.3l-.1.1h-.4q-.3 0-.5.2l-.2.5v1.9h-.4m3.4.1q-.5 0-.8-.2-.3 0-.5-.4l-.2-.8v-.5l.2-.7.5-.5.8-.1.7.1.5.5.2.7v.5q0 .4-.2.8l-.5.4zm0-.5q.3 0 .6-.2l.2-.7v-.5q0-.4-.2-.6l-.6-.3q-.5 0-.6.3-.3.1-.3.6v.5q0 .4.3.7.1.3.6.2m3.7.5-.6-.1-.4-.3v.3H88v-4.2h.4l.1.1v1.4l.4-.3.6-.1h.6l.4.4.2.5v1.5l-.2.4-.4.3zm-.1-.5.5-.1.2-.4.1-.4v-.9l-.3-.3-.5-.2a1 1 0 0 0-.8.5v1.3q0 .3.3.4zm2.3.4h-.1v-4.2h.4l.1.1v4.1h-.4m2.5.1q-.6 0-1-.4-.3-.4-.3-1v-.4q0-.5.2-.8 0-.3.4-.5l.7-.1.8.1.5.6.2.8v.2h-2.2v.6l.3.3.4.2a1 1 0 0 0 .8-.4h.5v.3l-.3.2zm-.8-1.9h1.7l-.1-.5-.3-.3-.5-.1-.4.1-.3.3zm3.1 1.8h-.1v-3h.5v.3q.1-.3.4-.3l.5-.1q.7 0 1 .5 0-.3.3-.4l.7-.1.5.1q.3 0 .4.4l.2.8v1.8h-.6v-2.3l-.3-.3h-.7l-.3.3v2.2l-.1.1h-.5v-1.8q0-.3-.2-.5L98 39h-.7l-.3.3v2.2l-.1.1h-.4m6.3.1h-.6l-.4-.3-.2-.2v-.3h.4l.2.2.3.1h.8q.3-.1.2-.4v-.2l-.3-.2-.6-.2q-.4 0-.6-.2l-.3-.3V39l.4-.3.7-.1h.5l.6.5v.2h-.4l-.2-.1-.2-.2h-.3l-.5.1-.1.3v.2l.3.2.6.2q.3 0 .6.2l.3.3a1 1 0 0 1 0 .8l-.5.4zm3.6 0-.1-.2v-2.9h.5v3zm0-3.8h-.1v-.5h.5v.5zm1.5 3.7h-.1v-3h.5v.3l.4-.3.6-.1.7.1.4.5.1.7v1.8h-.5v-1.8l-.2-.6-.6-.3q-.4 0-.7.3l-.2.6v1.8h-.4m5.4 1.2h-.1v-.2l.4-1.1-1.1-2.8a.1.1 0 0 1 0-.2h.4l.1.1 1 2.2.9-2.2h.5v.1l-1.7 4h-.4m4-1q-.5 0-.8-.3-.4 0-.5-.4l-.2-.8v-.5q0-.4.2-.7.1-.3.5-.5l.7-.1.8.1.4.5q.2.4.2.7v.5l-.1.8-.5.4zm0-.6q.3 0 .5-.2t.3-.7v-.5q0-.4-.3-.6l-.6-.3-.6.3-.2.6v.5q0 .4.2.7t.6.2m3.3.5q-.4 0-.7-.2-.3 0-.4-.4l-.1-.7v-1.8h.5v1.7q0 1 .8 1 .5 0 .6-.3.3-.3.3-.7v-1.7h.5v3h-.5v-.4l-.4.4zm2.6 0h-.1v-3.1h.4v.3l.4-.3h.9v.3l-.1.1h-.4q-.3 0-.5.2l-.2.5v1.9h-.4m4.3 0-.5-.1-.4-.3-.2-.5q0-.4.4-.7l.8-.3 1-.1v-.2l-.2-.4q-.2-.3-.6-.2l-.4.1-.2.3h-.5V39l.2-.2.4-.3h1.2l.5.7.1.4v2h-.5v-.4l-.3.3zm.2-.4.4-.1q.2-.1.3-.4l.1-.5V40h-.7l-.6.3-.2.4v.2l.3.2zm2.4 1.5-.1-.1v-4.1h.5v.3a1 1 0 0 1 1-.4h.6l.4.4.2.4.1.6v1l-.3.4a1 1 0 0 1-1 .4l-.6-.1-.3-.3v1.4h-.5m1.3-1.6.5-.1.3-.4v-1.3l-.3-.3-.5-.2q-.3 0-.5.2l-.2.3-.1.5v.8l.3.4zm2.3 1.6-.1-.1v-4.1h.5v.3l.4-.3.6-.1h.6l.4.4.2.4.1.6v1l-.3.4a1 1 0 0 1-1 .4l-.6-.1-.4-.3v1.4zm1.3-1.6.5-.1.2-.4.1-.4v-.9l-.3-.3-.5-.2q-.3 0-.5.2l-.3.3v1.3l.3.4zm2.3.4h-.1v-4.1l.1-.1h.4v4.2h-.4m1.5 0h-.1v-3h.4v3zm0-3.7h-.2v-.5h.6v.4l-.1.1zm2.6 3.8q-.5 0-.8-.2-.2 0-.5-.4l-.1-.8v-.5l.1-.7.5-.5.8-.1h.6l.4.3.3.7h-.5l-.4-.5h-.4q-.5 0-.6.2-.3.1-.3.7v.4q0 .5.3.7.2.3.6.2h.4q.3-.2.3-.5v-.1h.5l.1.1-.2.5-.6.4zm2.9 0-.6-.1-.4-.3-.1-.5q0-.4.3-.7l1-.3.8-.1v-.2q0-.3-.2-.4 0-.3-.5-.2l-.4.1-.3.3h-.4V39l.2-.2.4-.3h1.1a1 1 0 0 1 .6.7v2.4h-.4v-.4l-.3.3zm.1-.4.5-.1.3-.4.1-.5V40h-.7l-.6.3q-.2 0-.2.4v.2l.3.2zm3.5.3h-.5l-.3-.4-.1-.6V39h-.5l-.1-.1v-.3h.6v-1.1l.1-.1h.4v1.1h.9v.4h-.8V41l.4.2h.5v.4h-.6m1.3 0h-.1v-3h.5v3h-.4m0-3.7h-.1v-.5h.5v.5zm2.6 3.8q-.4 0-.7-.2-.3 0-.5-.4l-.2-.8v-.5q0-.4.2-.7l.5-.5.7-.1.8.1.5.5.1.7v.5l-.1.8-.5.4zm0-.5q.5 0 .6-.2.2-.3.3-.7v-.5q0-.4-.3-.6l-.6-.3-.6.3-.2.6v.5q0 .4.2.7t.6.2m2.3.4zv-3h.5v.3l.5-.3.6-.1.6.1q.4.2.4.5l.2.7v1.8h-.6v-1.8q0-.4-.2-.6-.2-.3-.6-.3l-.6.3-.2.6v1.8h-.5m6 .1-.6-.1-.4-.3-.2-.5q0-.4.3-.7l1-.3.8-.1v-.2l-.1-.4q-.2-.3-.6-.2l-.4.1-.2.3h-.5V39l.2-.2.4-.3h1.1a1 1 0 0 1 .6.7l.1.4v2h-.5v-.4l-.3.3zm0-.4.5-.1.3-.4.1-.5V40h-.7l-.6.3q-.2 0-.2.4v.2l.3.2zm2.5.3zv-3h.5v.3l.4-.3.6-.1.7.1.4.5.2.7v1.8h-.6v-1.8q0-.4-.2-.6l-.6-.3q-.5 0-.6.3l-.3.6v1.8h-.4m4.7.1-.6-.1a1 1 0 0 1-.6-.8l-.1-.7v-.7l.3-.5q.1-.2.4-.3l.6-.1h.6l.3.4v-1.4l.2-.1h.3l.1.1v4.1h-.5v-.3l-.4.3zm0-.5.6-.1.2-.4.1-.4v-.9l-.3-.3-.5-.2q-.3 0-.5.2l-.3.3v1.3l.3.4zm5.2.5q-.5 0-.8-.2-.3 0-.5-.4l-.1-.8v-.5l.1-.7.5-.5.8-.1h.6l.4.3.2.3.1.4h-.5l-.4-.5h-.4q-.5 0-.6.2-.3.1-.3.7v.4q0 .5.3.7.2.3.6.2h.4l.3-.5v-.1h.5l.1.1-.2.5-.7.4zm2.2 0h-.1v-3.1h.4v.3l.4-.3h.8v.4h-.4q-.3 0-.5.2l-.2.5v1.9h-.4m3.3 0q-.6 0-1-.4-.3-.4-.4-1v-.4q0-.5.2-.8l.5-.5.7-.1.8.1.4.6.2.8v.2h-2.2v.6l.4.3.4.2.7-.4h.6v.3l-.3.2zm-.8-1.9h1.6v-.5l-.4-.3-.4-.1a1 1 0 0 0-.7.4zm3.8 2-.6-.2-.4-.3-.1-.5q0-.4.3-.7l1-.3.8-.1v-.2q0-.3-.2-.4 0-.3-.5-.2l-.4.1-.3.3h-.4V39l.2-.2.4-.3h1.1a1 1 0 0 1 .6.7v2.4h-.4v-.4l-.3.3zm.1-.5.5-.1.3-.4.1-.5V40h-.7l-.6.3q-.2 0-.2.4v.2l.3.2zm3.5.3h-.5l-.3-.4-.1-.6V39h-.5l-.1-.1v-.3h.6v-1.1l.1-.1h.4v1.1h.9v.4h-.8V41l.4.2h.5v.4h-.6m2.4.1q-.6 0-1-.4-.3-.4-.4-1v-.4l.2-.8.5-.5.7-.1.8.1.5.6.1.8v.2h-2.2v.1l.1.5.3.3.4.2.7-.4h.6v.3l-.3.2zm-.8-1.9h1.7l-.1-.5-.3-.3-.5-.1a1 1 0 0 0-.7.4zm5.9 2-1-.2-.5-.5-.2-.5v-.1h.6l.2.4.3.2h1.3l.3-.6q0-.2-.2-.3l-.4-.3-.6-.2-.8-.3q-.3 0-.4-.3l-.1-.6.1-.6.5-.4.8-.1h.7l.7.7.1.4h-.6q0-.2-.2-.5l-.7-.1-.6.1q-.2.2-.2.5v.3l.4.3.7.2q.5 0 .8.3.3 0 .4.3l.2.6-.2.7-.6.4zm3.5 0q-.6 0-1-.5-.3-.4-.4-1v-.4l.2-.8.5-.5.7-.1.8.1.5.6.1.8v.2h-2.1v.6l.3.3.4.2.7-.4h.6v.3l-.3.2zm-.8-2h1.7l-.1-.5-.3-.3-.5-.1-.4.1-.3.3zm3 1.8v-3h.5v.3l.4-.3.6-.1.7.1.4.5.1.7v1.8h-.5v-1.8l-.2-.6-.6-.3q-.5 0-.6.3l-.3.6v1.8h-.4m4.8 0h-.6l-.3-.4V39h-.6v-.4h.5v-1.1l.2-.1h.3l.1.1v1h.8v.4h-.8v1.6l.1.5.3.2h.5v.4zm1.3 0h-.1v-3h.4v.3l.4-.3h.9v.3l-.1.1h-.4q-.3 0-.5.2l-.2.5v1.9h-.4m2.7 1.2h-.1v-.2l.4-1.1-1.1-2.8a.1.1 0 0 1 0-.2h.4l.1.1 1 2.2.9-2.2h.5v.1l-1.7 4h-.4m4.3-1.2h-.1v-4.1h.5v4.1h-.4m2.5.1h-.6l-.4-.3-.2-.2v-.3h.4l.2.2.2.1h.9l.2-.4v-.2l-.4-.2-.5-.2q-.4 0-.6-.2l-.3-.3-.1-.3.1-.5.4-.3.7-.1h.5l.6.5v.2h-.4l-.2-.1-.2-.2h-.3l-.5.1-.1.3v.2l.3.2.5.2q.4 0 .7.2l.3.3v.8l-.5.4zm3 0h-.5l-.4-.3-.2-.2-.1-.2v-.1h.5l.2.2.2.1h.9l.2-.4-.1-.2-.3-.2-.6-.2q-.3 0-.5-.2l-.3-.3-.1-.3.1-.5.4-.3.6-.1h.6l.6.5v.2h-.4l-.2-.1-.2-.2h-.4l-.4.1-.2.3.1.2q0 .2.3.2l.5.2q.5 0 .6.2.3 0 .4.3v.8l-.5.4zm3.2 0q-.3 0-.6-.2-.3 0-.4-.4l-.2-.7v-1.8h.6v1.7q0 1 .8 1l.6-.3.2-.7v-1.7h.5v3h-.4v-.4l-.5.4zm3.7 0q-.6 0-1-.4-.3-.4-.4-1v-.4l.2-.8.5-.5.7-.1.8.1.5.6.1.8v.2h-2.1v.6l.3.3.4.2a1 1 0 0 0 .8-.4h.5v.3l-.3.2zm-.8-1.9h1.7l-.1-.5-.3-.3-.5-.1-.4.1-.3.3zm4 2-.5-.2-.4-.2-.3-.2v-.3h.4l.3.2.2.1h.9l.2-.4-.1-.2-.3-.2-.6-.2q-.3 0-.6-.2l-.3-.3V39l.5-.3.6-.1h.6l.5.5.1.2h-.4l-.2-.1-.2-.2h-.4l-.4.1-.2.3v.2l.3.2.6.2q.5 0 .6.2.3 0 .3.3a1 1 0 0 1 0 .8l-.4.4zm2.1-.2h-.1V41h.7v.6h-.6"/>
      <mask id="f" fill="#fff">
        <path d="M22 49.6h359v125.8H22z"/>
      </mask>
      <path fill="#f0f0f2" d="M22 49.6h359v125.8H22z"/>
      <path fill="#eae7f6" d="M22 49.6v.5h359v-.9H22z" mask="url(#f)"/>
      <rect width="337.5" height="37" x="32.8" y="58.7" fill="#fff" rx="2.2"/>
      <rect width="337.5" height="37" x="32.8" y="58.7" stroke="#8466ff" stroke-width=".9" rx="2.2"/>
      <path fill="#181423" d="M40.1 72.2 40 72v-4l.1-.1h.5l.1.1 1.2 2.2 1.2-2.2.2-.1h.5v4.2h-.6v-2.8l-1 1.7-.1.1h-.4V71l-1-1.7V72l-.1.1zm6 0q-.6 0-1-.3-.4-.4-.4-1v-.4q0-.5.2-.8 0-.3.5-.5l.7-.2q.5 0 .8.2t.5.6l.2.8v.2h-2.2v.1l.1.4q0 .3.2.3l.4.1.6-.2.1-.1h.6v.3l-.3.3-.4.2zm-.7-1.8h1.4v-.5l-.3-.2-.4-.2q-.2 0-.4.2l-.2.2zm4.2 1.8-.6-.1-.4-.4v-2H48V69h.5V68h.7v1h.8l.1.1v.5h-.8v1.9l.4.1h.4l.1.1v.4l-.1.1zm1.3 0h-.1v-3l.1-.1h.5v.4l.4-.3.5-.1h.3l.1.1v.5h-.5l-.5.2-.2.5V72l-.1.1zm2.5 0h-.1V69h.6v3.1zm0-3.7h-.2v-.6h.7v.6zm2.7 3.8q-.4 0-.8-.2-.2-.1-.5-.5l-.1-.7v-.5l.1-.7.5-.5.8-.2.6.1.7.6.1.4-.1.1h-.5l-.1-.1q0-.3-.3-.4h-.4l-.5.1-.2.6v.5q0 .5.2.6l.5.2.4-.1.3-.4.1-.1h.5l.1.1v.3l-.2.3-.3.2-.4.2zm3.3 0-.7-.1-.4-.2-.2-.3v-.3h.5l.5.3h.7l.2-.3-.1-.2-.3-.2-.5-.1-.6-.2-.3-.3a1 1 0 0 1 0-.9l.4-.3.7-.2 1 .3.2.2.1.3-.1.1H60l-.2-.2-.2-.1H59l-.2.3v.2l.3.2h.5l.7.3.3.3.1.4-.1.5-.5.4z"/>
      <path fill="#57606b" d="m39.8 79.2-.1-.1v-3.4l.1-.1h.3l1.2 2.2 1-2.1h.1l.1-.1h.3v3.6h-.3l-.1-.1v-2.5l-.9 1.6v.1H41l-1-1.7v2.6zm5 0h-.6l-.4-.5-.2-.6v-.4q0-.4.2-.7l.4-.4.6-.1.7.1.4.4.1.7v.4l-.1.6-.4.4zm0-.3.5-.2q.3-.3.2-.6v-.4q0-.4-.2-.6l-.5-.2q-.3 0-.5.2l-.2.6v.4q0 .3.2.6zm2 .3-.1-.1v-2.5h.4v.3l.4-.3.5-.1.6.1.4.4v2.2h-.3l-.1-.1v-1.4q0-.4-.2-.6l-.5-.2q-.3 0-.5.2-.2.1-.2.6V79l-.1.1zm3.1 0v-2.6h.4v2.5l-.1.1zm0-3.2h-.1v-.4h.5v.4zm2.2 3.2h-.4l-.3-.4v-1.9h-.6v-.3h.5v-1h.4v1h.8v.3h-.7v1.8h.7v.1l.1.1v.2l-.1.1zm2.1 0h-.7l-.4-.5-.1-.6v-.4l.1-.7.4-.4.7-.1.6.1.5.4.1.7v.4l-.1.6-.4.4zm0-.3.5-.2.2-.6v-.4q0-.4-.2-.6l-.5-.2q-.3 0-.5.2l-.2.6v.4q0 .3.2.6zm2 .3H56v-2.6h.4v.3l.3-.3h.7v.3h-.3l-.5.2-.1.5V79l-.2.1zm4 0q-.5 0-.8-.3T59 78v-.3l.2-.6.4-.5.6-.1.7.1.4.5.1.7v.2h-1.9l.1.5.3.3h.3a1 1 0 0 0 .7-.2h.4v.2l-.2.2zm-.7-1.5H61l-.1-.5-.3-.2-.4-.1H60l-.3.3zm2.7 1.5H62v-2.6h.4v.3l.3-.3h.7v.3h-.3l-.5.2-.1.5V79l-.2.1zm2 0H64v-2.6h.4v.3l.3-.3h.7v.3H65l-.4.2-.2.5V79l-.1.1zm2.8 0h-.6l-.4-.5-.2-.6v-.4q0-.4.2-.7l.4-.4.6-.1.7.1.4.4.2.7v.4l-.2.6q0 .3-.4.4zm0-.3.6-.2.2-.6v-.4l-.2-.6-.6-.2q-.2 0-.5.2l-.2.6v.4l.2.6zm2 .3v-2.6h.3v.3l.4-.3h.7v.3H70l-.4.2-.2.5V79l-.1.1zm4.1 0h-.6l-.4-.5-.2-.6v-.4q0-.4.2-.7l.4-.4.6-.1h.5l.4.3.3.5v.1h-.5l-.3-.4-.4-.1q-.3 0-.5.2l-.2.6v.4q0 .3.2.6l.5.2.4-.1.3-.4v-.1h.4v.1l-.1.5-.6.3zm2.9 0h-.7l-.4-.5-.1-.6v-.4l.1-.7.4-.4.7-.1.6.1.4.4.2.7v.4q0 .3-.2.6 0 .3-.4.4zm0-.3.5-.2.2-.6v-.4q0-.4-.2-.6l-.5-.2q-.3 0-.5.2-.2.1-.2.6v.4q0 .3.2.6zm2.8.4-.5-.2-.4-.4v-2.1h.4v1.5q0 .8.7.8.3 0 .5-.3l.2-.5v-1.5h.4v2.6h-.3v-.3q-.3 0-.4.3zm2.3 0-.1-.1v-2.6h.4v.3l.4-.3.5-.1.6.1.3.4.1.6v1.6h-.4v-1.5l-.2-.6-.5-.2q-.4 0-.6.2l-.2.6v1.5zm4 0-.5-.2-.2-.3-.1-.5V77h-.5v-.3h.5v-1h.4v1h.8v.3h-.7v1.8h.7v.5zm1 .3H86v-.8l.1-.1h.5l-.2.8h-.1v.1zm2.6-.4v-3.6h.4v3.5l-.1.1zm2.3 0h-.7l-.4-.5-.1-.6v-.4l.1-.7.4-.4.7-.1.6.1.4.4.2.7v.4q0 .3-.2.6 0 .3-.4.4zm0-.3.5-.2.2-.6v-.4q0-.4-.2-.6l-.5-.2q-.3 0-.5.2-.2.1-.2.6v.4q0 .3.2.6zm3 1.5-.6-.1-.4-.3-.2-.2v-.3h.4l.2.2.2.2h.7l.3-.2v-.8q0 .1-.3.2l-.5.1h-.5l-.3-.3-.2-.4v-1.2l.2-.4q0-.3.3-.3l.5-.1.6.1.3.3v-.3h.4v3.2l-.4.4zm0-1.6h.4l.2-.4v-1.1l-.2-.3-.5-.1-.4.1-.2.3v1.1l.2.3zm2.9.5-.5-.1-.4-.2-.2-.2v-.2h.4l.2.1.2.1h.7l.2-.3-.1-.2-.2-.2h-.5l-.5-.3-.3-.2v-.7l.4-.3.5-.1h.5l.5.4v.3h-.3l-.2-.2-.2-.1h-.6l-.2.3v.2l.3.2h.5l.5.3.3.2v.8l-.4.3zm1.6.3v-.8l.1-.1h.5l-.2.8h-.1v.1zm3-.4h-.2v-2.3h-.5v-.3h.5v-.8l.4-.3.5-.1h.3l.1.1v.2l-.1.1h-.3l-.3.1-.1.4v.2h.7v.4h-.7v2.2l-.1.1zm2.2 0h-.4l-.4-.3-.1-.4q0-.3.3-.6l.7-.3h.8v-.2l-.1-.4-.5-.1h-.4l-.2.3h-.4V77l.2-.3.3-.1.5-.1h.5a1 1 0 0 1 .5.6v2.1h-.3v-.3l-.3.2zm.1-.3.4-.1.3-.3.1-.5V78h-.6l-.5.2q-.3.1-.2.4v.2l.3.1zm2.2.3h-.1v-2.6h.4v2.5l-.1.1zm0-3.2h-.2v-.4h.5v.4zm1.2 3.2-.1-.1v-3.5h.4v3.6zm2.1 0h-.5l-.4-.5v-2.1h.4v1.5q0 .8.7.8.3 0 .5-.3l.2-.5v-1.5h.4v2.6h-.3v-.3q-.3 0-.4.3zm2.3 0h-.1v-2.6h.4v.3l.3-.3h.7v.3h-.3l-.5.2-.1.5V79l-.2.1zm2.8 0q-.5 0-.8-.3t-.4-.9v-.3l.2-.6.4-.5.6-.1.7.1.4.5.1.7v.2h-1.9l.1.5.3.3h.3a1 1 0 0 0 .7-.2h.4v.2l-.2.2zm-.7-1.5h1.5l-.1-.5-.3-.2-.4-.1h-.3l-.3.3zm4 1.5h-.1v-2.6h.4v.3l.3-.3h.7v.3h-.4l-.4.2-.2.5V79l-.1.1zm2.5 0h-.5l-.3-.3-.1-.4q0-.3.3-.6l.7-.3h.8v-.2q0-.3-.2-.4l-.4-.1h-.4l-.2.3h-.4V77l.2-.3.3-.1.5-.1h.5a1 1 0 0 1 .5.6v2.1h-.3l-.1-.1v-.2l-.2.2zm.1-.3.4-.1.3-.3V78h-.5l-.6.2-.2.4.1.2.2.1zm3 .3h-.4l-.3-.4v-1.9h-.6v-.3h.5v-1h.4v1h.8v.3h-.7v1.8h.7v.1l.1.1v.2l-.1.1zm2 0q-.5 0-.8-.3t-.3-.9v-.3l.1-.6.5-.5.6-.1.6.1.4.5.2.7v.2h-1.9v.5l.3.3h.4l.6-.2h.5v.2l-.3.2zm-.6-1.5h1.4l-.1-.5-.2-.2-.4-.1h-.4l-.3.3zm3.4 1.6-.5-.1-.3-.2-.2-.2v-.2h.3l.2.1.2.1h.8l.1-.3v-.2l-.3-.2h-.5l-.5-.3-.2-.2-.1-.3.1-.4.3-.3.6-.1h.5l.5.4v.3h-.4l-.1-.2-.2-.1h-.7l-.1.3v.2l.3.2h.4l.6.3.2.2a1 1 0 0 1 0 .8l-.4.3zm1.7.3q0 0 0-.1v-.8h.6l-.3.8-.1.1zm3.5-.3-.5-.1-.3-.2-.2-.2v-.2h.3l.2.1.2.1h.8l.1-.3v-.2l-.3-.2h-.5l-.5-.3-.2-.2-.1-.3.1-.4.3-.3.6-.1h.4l.5.4.1.2-.1.1h-.3l-.1-.2-.2-.1h-.7l-.1.3v.2l.2.2h.5l.6.3.2.2a1 1 0 0 1 0 .8l-.4.3zm1.8.9v-3.6h.4v.3a1 1 0 0 1 .8-.4h.5l.4.3.2.4v1.3l-.2.4a1 1 0 0 1-.9.4l-.5-.1-.3-.3V80l-.1.1zm1.1-1.3q.3 0 .5-.2l.2-.3v-1.1l-.2-.3-.5-.1-.4.1-.2.3v1.1q0 .3.2.3zm2.6.4-.4-.1-.4-.3-.1-.4.3-.6.7-.3h.8v-.2l-.1-.4-.5-.1h-.4l-.2.3h-.4V77l.2-.3.3-.1.5-.1h.5a1 1 0 0 1 .5.6l.1.3v1.7l-.1.1h-.3v-.3l-.3.2-.2.1zm.2-.4.3-.1q.3 0 .3-.3l.1-.5V78h-.6l-.5.2q-.2.1-.2.4v.2l.3.1zm2 .3v-2.6h.4v.3l.4-.3.5-.1.6.1.3.4.1.6v1.6h-.4v-1.5l-.2-.6-.5-.2q-.4 0-.6.2l-.2.6v1.5zm5.3 0h-.5l-.5-.7v-1.2l.2-.4q0-.3.3-.3l.5-.1h.5l.4.4v-1.3h.4v3.6h-.3l-.1-.1v-.2l-.3.3zm.1-.3q.3 0 .5-.2l.2-.3v-1.1l-.3-.3-.4-.1-.4.1-.2.3v1.1q0 .3.2.3zm3 .4-.5-.2-.4-.4-.1-.6v-1.5h.4v1.5q0 .8.8.8.3 0 .5-.3l.2-.5v-1.5h.4v2.6h-.3l-.1-.1v-.2l-.4.3zm2.3 0-.1-.1v-2.6h.4v.3l.3-.3h.7v.3h-.4l-.4.2-.2.5v1.6zm2.5 0-.5-.1-.3-.3-.1-.4q0-.3.3-.6l.7-.3h.8v-.2q0-.3-.2-.4l-.4-.1h-.4l-.2.3h-.4V77l.2-.3.3-.1.5-.1h.5a1 1 0 0 1 .5.6v2.1h-.3l-.1-.1v-.2l-.2.2zm.1-.4.4-.1.3-.3V78h-.5l-.6.2-.2.4.1.2.2.1zm3 .3h-.4l-.3-.4v-1.9h-.6v-.3h.5v-1h.5v1h.7v.3h-.7v1.8h.7v.1l.1.1v.2l-.1.1zm1.1 0v-2.6h.3v2.6zm0-3.2h-.1v-.4h.5v.4zm2.3 3.3q-.4 0-.7-.2l-.4-.4-.2-.6v-.4l.2-.7.4-.4.7-.1.6.1.4.4.2.7v.4q0 .3-.2.6 0 .3-.4.4zm0-.4.5-.2.2-.6v-.4l-.2-.6-.5-.2q-.4 0-.6.2l-.2.6v.4l.2.6zm2 .3h-.1v-2.6h.4v.3l.3-.3.6-.1.5.1.4.4.1.6v1.5l-.1.1h-.3v-1.5q0-.4-.3-.6 0-.2-.5-.2-.3 0-.5.2l-.2.6V79l-.1.1zm3 .4h-.1v-.8l.1-.1h.5l-.3.8zM40.4 86.3l-.5-.1-.3-.2-.2-.2v-.2h.3l.2.1.2.1h.8l.2-.3-.1-.2-.3-.2h-.5l-.4-.3-.3-.2v-.7l.4-.3.5-.1h.5l.5.4v.3h-.3L41 84l-.2-.1h-.7l-.1.3v.2l.3.2h.5l.5.3.3.2a1 1 0 0 1 0 .8l-.4.3zm2.8 0q-.5 0-.8-.4-.3-.3-.4-.9v-.3l.2-.6.4-.5.6-.1.7.1.4.5.1.7v.2h-1.9l.1.5.2.3h.4l.6-.2h.5v.2l-.3.2zm-.7-1.6H44v-.5l-.3-.2-.4-.1H43l-.2.3zm3.5 1.6-.5-.1-.4-.2-.2-.2v-.2h.4l.2.1.2.1h.7l.2-.3v-.2l-.3-.2h-.5l-.5-.3-.3-.2v-.7l.4-.3.5-.1h.5l.5.4v.3h-.3l-.2-.2-.2-.1h-.6l-.2.3v.2l.3.2h.5l.5.3.3.2a1 1 0 0 1 0 .8l-.4.3zm2.6 0-.5-.1-.3-.2-.2-.2v-.2h.3l.2.1.2.1h.7q.3 0 .2-.3v-.2L49 85h-.5l-.5-.3-.2-.2-.1-.3.1-.4.3-.3.6-.1h.4l.5.4.1.2-.1.1h-.3l-.1-.2-.2-.1h-.7l-.1.3v.2l.2.2h.5l.6.3.2.2a1 1 0 0 1 0 .8l-.4.3zm1.8 0v-2.7h.3v2.6zm0-3.3zv-.4h.5v.4zm2.3 3.3q-.4 0-.7-.2l-.4-.4-.1-.6v-.4l.1-.7.4-.4.7-.1.6.1.4.4.2.7v.4q0 .3-.2.6 0 .3-.4.4zm0-.4.5-.2.2-.6v-.4q0-.4-.2-.6l-.5-.2q-.3 0-.6.2l-.2.6v.4l.2.6zm2 .3h-.1v-2.6h.4v.3l.4-.3.5-.1.5.1.4.4.1.6v1.6h-.4v-1.5l-.2-.6-.6-.2q-.2 0-.5.2l-.2.6v1.5zm5.3 0h-.6l-.4-.5-.2-.6v-.4q0-.4.2-.7l.4-.4.6-.1h.5l.4.3.3.5v.1h-.5q0-.3-.3-.4l-.4-.1q-.2 0-.5.2l-.2.6v.4q0 .3.2.6l.5.2.4-.1.3-.4.1-.1h.3v.1l-.1.5-.6.3zm2 0h-.2v-2.6h.4v.3l.4-.3h.7v.3H63l-.5.2-.1.5V86l-.1.1zm2.5 0H64l-.3-.3-.2-.4.3-.6.8-.3h.7v-.2l-.1-.4-.5-.1h-.3l-.2.3h-.5V84l.2-.3.4-.1.4-.1h.6a1 1 0 0 1 .5.6v2l-.1.1h-.3v-.3l-.2.2zm0-.3.5-.1.2-.3.1-.5V85h-.6l-.5.2-.2.4v.2l.3.1zm3 .4-.5-.1-.3-.2-.2-.2-.1-.2h.4l.2.1.2.1h.7l.2-.3v-.2l-.3-.2h-.5l-.5-.3-.3-.2v-.7l.4-.3.6-.1h.4l.5.4.1.2-.1.1h-.3L68 84 68 84h-.7l-.1.3v.2l.2.2h.5l.5.3q.3 0 .3.2a1 1 0 0 1 0 .8l-.4.3zm1.8 0v-3.7h.4V84l.3-.3.6-.1.5.1.4.4.1.6v1.5l-.1.1h-.3v-1.5q0-.4-.3-.6l-.5-.2q-.3 0-.5.2l-.2.6V86l-.1.1zm4.4 0v-2.7h.4v.3l.3-.3h.7v.3h-.4l-.4.2-.2.5V86l-.1.1zm2.6 0-.5-.1-.3-.3-.2-.4.3-.6.8-.3h.8v-.2q0-.3-.2-.4l-.4-.1h-.4l-.2.3h-.4V84q0-.1.2-.3l.3-.1.5-.1h.5a1 1 0 0 1 .5.6v2.1h-.3l-.1-.1v-.2l-.2.2zm.1-.4.4-.1.3-.3V85h-.5l-.6.2-.2.4.1.2.2.1zm3 .3H79l-.2-.4-.1-.5V84h-.5v-.3h.5v-1h.4v1h.8v.3h-.7v1.8h.7v.5zm2 0q-.5 0-.8-.3t-.3-.9v-.3l.1-.6.4-.5.7-.1.6.1.4.5.2.7v.2h-1.9v.5l.3.3h.4l.6-.2h.4v.2l-.2.2zm-.6-1.5h1.4l-.1-.5-.3-.2-.3-.1h-.4l-.3.3zm3.4 1.6-.5-.1-.3-.2-.2-.2v-.2h.3l.2.1.2.1h.8l.1-.3v-.2l-.3-.2h-.5l-.5-.3-.2-.2-.1-.3.1-.4.3-.3.6-.1h.4l.5.4.1.2-.1.1h-.3l-.1-.2-.2-.1h-.7l-.1.3v.2l.2.2h.5l.6.3.2.2a1 1 0 0 1 0 .8l-.4.3zm1.7.3-.1-.1.1-.7v-.1h.5l-.2.8-.1.1zm3.3-.3-.5-.1-.3-.3-.1-.4q0-.3.3-.6l.7-.3h.8v-.2q0-.3-.2-.4l-.4-.1h-.4l-.2.3h-.4V84l.2-.3.3-.1.5-.1h.5a1 1 0 0 1 .5.6v2.1h-.3l-.1-.1v-.2l-.2.2zm.1-.4.4-.1.3-.3V85h-.5l-.6.2-.1.4v.2l.3.1zm2.1.3v-2.6h.4v.3l.3-.3.6-.1.5.1.4.4.1.6v1.5l-.1.1h-.3v-1.5q0-.4-.3-.6 0-.2-.5-.2-.3 0-.5.2l-.2.6V86l-.1.1zm4 0H95l-.3-.3-.2-.4v-1.2l.2-.4.3-.3.5-.1h.5l.4.4v-1.3h.4v3.6h-.3l-.1-.1v-.2l-.3.3zm.1-.3q.3 0 .5-.2l.2-.3v-1.1L96 84l-.5-.1-.4.1-.2.3v1.1q0 .3.2.3zm3.4.3-.1-.1v-2.5h.4v.2l.4-.2.4-.1q.6 0 .8.5l.4-.4.5-.1.5.1.3.4.2.6v1.5l-.2.1h-.2l-.1-.1v-1.4l-.1-.5-.2-.2-.3-.1h-.3l-.2.3-.1.5V86l-.1.1h-.3l-.1-.1v-1.4l-.1-.5-.2-.2-.3-.1h-.3l-.2.3-.1.4v1.5l-.1.1zm5.6 0h-.7l-.4-.5-.1-.6v-.4l.1-.7.4-.4.7-.1.6.1.4.4.2.7v.4l-.1.6-.4.4zm0-.3.5-.2.2-.6v-.4q0-.4-.2-.6l-.5-.2q-.3 0-.5.2l-.2.6v.4q0 .3.2.6zm2 .3h-.1v-2.6h.4v.3l.3-.3h.7v.3h-.3l-.5.2-.1.5V86l-.2.1zm2.8 0q-.5 0-.8-.3t-.3-.9v-.3l.1-.6.4-.5.6-.1.7.1.4.5.2.7v.2h-2l.1.5.3.3h.3a1 1 0 0 0 .7-.2h.4v.2l-.2.2zm-.7-1.5h1.5l-.1-.5-.3-.2-.4-.1h-.3l-.3.3zm2.7 1.5h-.1v-.5h.5v.5z"/>
      <g clip-path="url(#g)">
        <path fill="#7553ff" d="m195.8 87-1.8 2.3h206.8V86l-1.7-1.8-1.8-.8-1.7-2.8-1.7.8-1.8 1.3-1.7-2.1-1.5-.7-2 3.9-1.7-.9-1.8.5-1.7 1.3-1.7 1.7-1.8.2-1.7.4-1.7-.6L373 84l-1.7-1.5-1.8 1.5-1.7-.6-1.7 1-1.8-1.9-1.7.2-1.7-1.3-1.8 1.3h-1.7l-1.8 1.3-1.7-.6-1.7 2.1-1.8 1.3-1.7-7.7-1.8 1.5-1.7-9.5-1.7 14.6-1.8-1.9-1.7-.9-1.7-1.7-1.8 2.4-1.7-2.4-1.8-2.1-1.7 2.8-1.7 1.9h-1.8l-1.7-2-1.7 1.8-1.8 1.7-1.7 1-1.8-.1-1.7-1.8-1.7.7-1.8-2-1.7 1.1-1.7-2.8-1.8-1.5-1.7 1.3-1.4-5.4-2.8 5.6-1-1.5-1.4-1.7-1.7-2.4-2.1 6.5-1.8 2-1.7 2-1.8-.4h-1.7l-1.7.7-1.8.6-1.7-2.5-1.7 2.3-1.8 1-1.7-1.2-1.8 1.5-1.7-1.3-1.7.9-1.8-.3-1.7-.4-1.7-2.5-1.8 1.9-1.7 1-1.8-.6-1.7.9-1.7-.2-1.8.6h-1.7l-1.7-.6-1.8 1-1.7-.4h-1.8L248 87l-1.7.9-1.8-.5-1.7.9-1.8-.6-1.7-.7-1.7.4-1.8.9-1.7-.9-1.7 1.1-1.8-.6-1.7 1-1.8-.8h-1.7l-1.7-2.4-1.8-1-1.7-3.3-1.7-13.1-2 13.5-1.5 1.3-1.8-.8-1.7.8-1.7 1.5-1.8-1.3-1.7 1-1.7-1-1.8 2.8-1.7 2-1.8-1.5-1.7 1z"/>
        <mask id="h" fill="#fff">
          <path d="M194 65h206.8v12.4H194z"/>
        </mask>
        <path fill="#ff002b" fill-opacity=".1" d="M194 65h206.8v12.4H194z"/>
        <path fill="#ff002b" d="M194 77.4v.1h.5v-.2zm1.3 0v.1h.9v-.2zm1.7 0v.1h1v-.2zm1.8 0v.1h.8v-.2zm1.7 0v.1h.9v-.2zm1.7 0v.1h.9v-.2zm1.7 0v.1h.9v-.2zm1.8 0v.1h.8v-.2zm1.7 0v.1h.8v-.2zm1.7 0v.1h.9v-.2zm1.7 0v.1h.9v-.2zm1.8 0v.1h.8v-.2zm1.7 0v.1h.8v-.2zm1.7 0v.1h.9v-.2zm1.7 0v.1h.9v-.2zm1.7 0v.1h1v-.2zm1.8 0v.1h.8v-.2zm1.7 0v.1h.9v-.2zm1.7 0v.1h.9v-.2zm1.7 0v.1h.9v-.2zm1.8 0v.1h.8v-.2zm1.7 0v.1h.8v-.2zm1.7 0v.1h.9v-.2zm1.7 0v.1h.9v-.2zm1.8 0v.1h.8v-.2zm1.7 0v.1h.8v-.2zm1.7 0v.1h.9v-.2zm1.7 0v.1h.9v-.2zm1.8 0v.1h.8v-.2zm1.7 0v.1h.8v-.2zm1.7 0v.1h.9v-.2zm1.7 0v.1h.9v-.2zm1.7 0v.1h1v-.2zm1.8 0v.1h.8v-.2zm1.7 0v.1h.9v-.2zm1.7 0v.1h.9v-.2zm1.7 0v.1h.9v-.2zm1.8 0v.1h.8v-.2zm1.7 0v.1h.8v-.2zm1.7 0v.1h.9v-.2zm1.7 0v.1h.9v-.2zm1.8 0v.1h.8v-.2zm1.7 0v.1h.8v-.2zm1.7 0v.1h.9v-.2zm1.7 0v.1h.9v-.2zm1.7 0v.1h1v-.2zm1.8 0v.1h.8v-.2zm1.7 0v.1h.9v-.2zm1.7 0v.1h.9v-.2zm1.7 0v.1h.9v-.2zm1.8 0v.1h.8v-.2zm1.7 0v.1h.8v-.2zm1.7 0v.1h.9v-.2zm1.7 0v.1h.9v-.2zm1.8 0v.1h.8v-.2zm1.7 0v.1h.8v-.2zm1.7 0v.1h.9v-.2zm1.7 0v.1h.9v-.2zm1.7 0v.1h1v-.2zm1.8 0v.1h.8v-.2zm1.7 0v.1h.9v-.2zm1.7 0v.1h.9v-.2zm1.7 0v.1h.9v-.2zm1.8 0v.1h.8v-.2zm1.7 0v.1h.8v-.2zm1.7 0v.1h.9v-.2zm1.7 0v.1h.9v-.2zm1.8 0v.1h.8v-.2zm1.7 0v.1h.8v-.2zm1.7 0v.1h.9v-.2zm1.7 0v.1h.9v-.2zm1.7 0v.1h1v-.2zm1.8 0v.1h.8v-.2zm1.7 0v.1h.9v-.2zm1.7 0v.1h.9v-.2zm1.7 0v.1h.9v-.2zm1.8 0v.1h.8v-.2zm1.7 0v.1h.8v-.2zm1.7 0v.1h.9v-.2zm1.7 0v.1h.9v-.2zm1.8 0v.1h.8v-.2zm1.7 0v.1h.8v-.2zm1.7 0v.1h.9v-.2zm1.7 0v.1h.9v-.2zm1.8 0v.1h.8v-.2zm1.7 0v.1h.8v-.2zm1.7 0v.1h.9v-.2zm1.7 0v.1h.9v-.2zm1.7 0v.1h1v-.2zm1.8 0v.1h.8v-.2zm1.7 0v.1h.9v-.2zm1.7 0v.1h.9v-.2zm1.7 0v.1h.9v-.2zm1.8 0v.1h.8v-.2zm1.7 0v.1h.8v-.2zm1.7 0v.1h.9v-.2zm1.7 0v.1h.9v-.2zm1.8 0v.1h.8v-.2zm1.7 0v.1h.8v-.2zm1.7 0v.1h.9v-.2zm1.7 0v.1h.9v-.2zm1.7 0v.1h1v-.2zm1.8 0v.1h.8v-.2zm1.7 0v.1h.9v-.2zm1.7 0v.1h.9v-.2zm1.7 0v.1h.9v-.2zm1.8 0v.1h.8v-.2zm1.7 0v.1h.8v-.2zm1.7 0v.1h.9v-.2zm1.7 0v.1h.9v-.2zm1.8 0v.1h.8v-.2zm1.7 0v.1h.8v-.2zm1.7 0v.1h.9v-.2zm1.7 0v.1h.9v-.2zm1.7 0v.1h1v-.2zm1.8 0v.1h.8v-.2zm1.7 0v.1h.9v-.2zm1.7 0v.1h.9v-.2zm1.7 0v.1h.9v-.2zm1.8 0v.1h.8v-.2zm1.7 0v.1h.4v-.2zm-206.4 0v.2h.5v-.4h-.5zm1.3 0v.2h.9v-.4h-.9zm1.7 0v.2h1v-.4h-1zm1.8 0v.2h.8v-.4h-.8zm1.7 0v.2h.9v-.4h-1zm1.7 0v.2h.9v-.4h-.9zm1.7 0v.2h.9v-.4h-.9zm1.8 0v.2h.8v-.4h-.8zm1.7 0v.2h.8v-.4h-.8zm1.7 0v.2h.9v-.4h-.9zm1.7 0v.2h.9v-.4h-.9zm1.8 0v.2h.8v-.4h-.8zm1.7 0v.2h.8v-.4h-.8zm1.7 0v.2h.9v-.4h-.9zm1.7 0v.2h.9v-.4h-.9zm1.7 0v.2h1v-.4h-1zm1.8 0v.2h.8v-.4h-.8zm1.7 0v.2h.9v-.4h-1zm1.7 0v.2h.9v-.4h-.9zm1.7 0v.2h.9v-.4h-.9zm1.8 0v.2h.8v-.4h-.8zm1.7 0v.2h.8v-.4h-.8zm1.7 0v.2h.9v-.4h-.9zm1.7 0v.2h.9v-.4h-.9zm1.8 0v.2h.8v-.4h-.8zm1.7 0v.2h.8v-.4h-.8zm1.7 0v.2h.9v-.4h-.9zm1.7 0v.2h.9v-.4h-.9zm1.8 0v.2h.8v-.4h-.8zm1.7 0v.2h.8v-.4h-.8zm1.7 0v.2h.9v-.4h-.9zm1.7 0v.2h.9v-.4h-.9zm1.7 0v.2h1v-.4h-1zm1.8 0v.2h.8v-.4h-.8zm1.7 0v.2h.9v-.4h-1zm1.7 0v.2h.9v-.4h-.9zm1.7 0v.2h.9v-.4h-.9zm1.8 0v.2h.8v-.4h-.8zm1.7 0v.2h.8v-.4h-.8zm1.7 0v.2h.9v-.4h-.9zm1.7 0v.2h.9v-.4h-.9zm1.8 0v.2h.8v-.4h-.8zm1.7 0v.2h.8v-.4h-.8zm1.7 0v.2h.9v-.4h-.9zm1.7 0v.2h.9v-.4h-.9zm1.7 0v.2h1v-.4h-1zm1.8 0v.2h.8v-.4h-.8zm1.7 0v.2h.9v-.4h-1zm1.7 0v.2h.9v-.4h-.9zm1.7 0v.2h.9v-.4h-.9zm1.8 0v.2h.8v-.4h-.8zm1.7 0v.2h.8v-.4h-.8zm1.7 0v.2h.9v-.4h-.9zm1.7 0v.2h.9v-.4h-.9zm1.8 0v.2h.8v-.4h-.8zm1.7 0v.2h.8v-.4h-.8zm1.7 0v.2h.9v-.4h-.9zm1.7 0v.2h.9v-.4h-.9zm1.7 0v.2h1v-.4h-1zm1.8 0v.2h.8v-.4h-.8zm1.7 0v.2h.9v-.4h-1zm1.7 0v.2h.9v-.4h-.9zm1.7 0v.2h.9v-.4h-.9zm1.8 0v.2h.8v-.4h-.8zm1.7 0v.2h.8v-.4h-.8zm1.7 0v.2h.9v-.4h-.9zm1.7 0v.2h.9v-.4h-.9zm1.8 0v.2h.8v-.4h-.8zm1.7 0v.2h.8v-.4h-.8zm1.7 0v.2h.9v-.4h-.9zm1.7 0v.2h.9v-.4h-.9zm1.7 0v.2h1v-.4h-1zm1.8 0v.2h.8v-.4h-.8zm1.7 0v.2h.9v-.4h-1zm1.7 0v.2h.9v-.4h-.9zm1.7 0v.2h.9v-.4h-.9zm1.8 0v.2h.8v-.4h-.8zm1.7 0v.2h.8v-.4h-.8zm1.7 0v.2h.9v-.4h-.9zm1.7 0v.2h.9v-.4h-.9zm1.8 0v.2h.8v-.4h-.8zm1.7 0v.2h.8v-.4h-.8zm1.7 0v.2h.9v-.4h-.9zm1.7 0v.2h.9v-.4h-.9zm1.8 0v.2h.8v-.4h-.8zm1.7 0v.2h.8v-.4h-.8zm1.7 0v.2h.9v-.4h-.9zm1.7 0v.2h.9v-.4h-.9zm1.7 0v.2h1v-.4h-1zm1.8 0v.2h.8v-.4h-.8zm1.7 0v.2h.9v-.4h-1zm1.7 0v.2h.9v-.4h-.9zm1.7 0v.2h.9v-.4h-.9zm1.8 0v.2h.8v-.4h-.8zm1.7 0v.2h.8v-.4h-.8zm1.7 0v.2h.9v-.4h-.9zm1.7 0v.2h.9v-.4h-.9zm1.8 0v.2h.8v-.4h-.8zm1.7 0v.2h.8v-.4h-.8zm1.7 0v.2h.9v-.4h-.9zm1.7 0v.2h.9v-.4h-.9zm1.7 0v.2h1v-.4h-1zm1.8 0v.2h.8v-.4h-.8zm1.7 0v.2h.9v-.4h-1zm1.7 0v.2h.9v-.4h-.9zm1.7 0v.2h.9v-.4h-.9zm1.8 0v.2h.8v-.4h-.8zm1.7 0v.2h.8v-.4h-.8zm1.7 0v.2h.9v-.4h-.9zm1.7 0v.2h.9v-.4h-.9zm1.8 0v.2h.8v-.4h-.8zm1.7 0v.2h.8v-.4h-.8zm1.7 0v.2h.9v-.4h-.9zm1.7 0v.2h.9v-.4h-.9zm1.7 0v.2h1v-.4h-1zm1.8 0v.2h.8v-.4h-.8zm1.7 0v.2h.9v-.4h-1zm1.7 0v.2h.9v-.4h-.9zm1.7 0v.2h.9v-.4h-.9zm1.8 0v.2h.8v-.4h-.8zm1.7 0v.2h.4v-.4h-.4z" mask="url(#h)"/>
        <path stroke="#ff002b" stroke-width=".3" d="M217 65.2v24.1M344.5 65.2v24.1M345.4 65.2v24.1M298 65.2v24.1M304.9 65.2v24.1"/>
      </g>
      <rect width="337.9" height="30.6" x="32.6" y="101.6" fill="#fff" rx="2.4"/>
      <rect width="337.9" height="30.6" x="32.6" y="101.6" stroke="#eae7f6" stroke-width=".4" rx="2.4"/>
      <path fill="#181423" d="m41.3 112-1-.3-.5-.5-.2-1v-1q0-.4.2-.9.1-.3.6-.5l1-.2h.7l.5.4a1 1 0 0 1 .5 1h-.8q0-.4-.4-.6l-.6-.2-.7.3-.2.7v1q0 .6.2.8t.7.3.6-.2q.3 0 .4-.6l.1-.1h.6v.1a1 1 0 0 1-.4 1l-.5.3zm2.6-.1h-.1v-3.1h.6v.3l.4-.3h.9v.5H45l-.4.3-.2.4v1.8h-.6m3.6 0q-.5 0-.8-.2-.2 0-.5-.4l-.2-.7v-.6l.2-.7.5-.5.8-.1.8.1.5.5.2.7v.5q0 .5-.2.8-.1.3-.5.4-.3.3-.8.2m0-.6q.4 0 .6-.2l.2-.6v-.5l-.2-.6-.6-.2q-.3 0-.5.2l-.2.6v.5q0 .5.2.6.2.2.5.2m2.4.6h-.1v-3.1h.6v.3l.4-.3.7-.1.6.1.4.5.2.7v1.8h-.8V110q0-.3-.2-.5t-.5-.2-.5.2-.2.5v1.8h-.6m4.7 0H54l-.4-.3-.2-.2-.1-.2v-.1h.6l.2.1.2.1h.8l.1-.3v-.2l-.3-.2-.6-.1-.5-.2-.3-.3a1 1 0 0 1 0-.9l.4-.3.7-.1 1 .2.2.3v.3h-.5l-.2-.2h-.2l-.3-.1h-.4l-.1.4v.1l.3.2.5.1.7.2.3.4v.8l-.5.4z"/>
      <path fill="#57606b" d="m39.8 118.9-.1-.2v-3.4h.4l1.2 2.1 1-2 .1-.1h.4v3.5h-.4v-2.6l-.9 1.7H41l-1-1.7v2.6zm5 0-.6-.1-.4-.5-.2-.6v-.4q0-.3.2-.6 0-.3.4-.4l.6-.2q.4 0 .7.2l.4.4.1.6v.4l-.1.6-.4.5zm0-.4q.3 0 .5-.2t.2-.6v-.4q0-.3-.2-.6l-.5-.2q-.3 0-.5.2l-.2.6v.4q0 .5.2.6zm2 .4-.1-.2v-2.5h.4v.3l.4-.3h1.1l.4.5v2.1h-.4v-1.5q0-.3-.2-.6l-.5-.2-.5.2q-.2.3-.2.6v1.5h-.4m3.1 0v-2.7h.4v2.6h-.4m0-3.2-.1-.2v-.3h.5v.4zm2.2 3.2-.4-.2-.3-.3v-1.8h-.5l-.1-.1v-.3h.5v-.9l.1-.1h.3v1h.8v.3h-.7v1.8l.4.1h.3l.1.1v.3H52m2.1 0-.7-.1-.4-.5-.1-.6v-.4l.1-.6.4-.4.7-.2q.4 0 .6.2.3 0 .5.4l.1.6v.4l-.1.6-.4.5zm0-.4q.3 0 .5-.2l.2-.6v-.4q0-.3-.2-.6l-.5-.2q-.3 0-.5.2l-.2.6v.4q0 .5.2.6zm2 .4H56v-2.7h.4v.3l.3-.2.5-.1h.2v.4h-.3q-.3 0-.5.2l-.1.4v1.6h-.4m4 0-.6-.1-.3-.5-.2-.6v-1.5h.5v1.5q0 .8.7.8.3 0 .5-.2t.2-.6v-1.5h.5v2.6H61v-.3l-.4.3zm2.2 1v-.1h-.1v-3.6h.4v.3l.4-.3h1l.3.3.2.4.1.4v.8l-.3.4a1 1 0 0 1-.8.4l-.5-.1-.3-.3v1.3h-.4m1.1-1.4.4-.1.2-.3.1-.4v-.7l-.3-.3-.4-.2q-.3 0-.4.2-.2 0-.2.3l-.1.3v.8l.3.3zm2.9.4-.5-.2-.3-.3v-1.8H65v-.4h.5v-1h.4v1h.8v.3H66v1.4l.1.4.3.1h.4v.4zm1 0v-2.7h.4v2.6zm0-3.2v-.5h.4v.4zm1.3 3.2-.1-.2v-2.5h.4v.3l.4-.3h.4q.6-.1.8.4l.4-.4h1l.3.4.2.6v1.6H72v-1.5l-.1-.5-.2-.2H71l-.2.2-.1.5v1.5h-.5v-2q-.2-.1-.3-.2h-.6l-.2.2-.1.5v1.5h-.4m5.6 0q-.6 0-.9-.3t-.3-1v-.3l.1-.6.5-.4.6-.2q.3 0 .6.2.3 0 .4.4l.2.8v.1h-1.9v.5l.3.3.4.1.6-.3h.5v.2l-.3.3zm-.7-1.6H75l-.1-.4-.2-.3-.4-.1a1 1 0 0 0-.7.4zM78 119l-.5-.1-.3-.3-.1-.4q0-.3.3-.5t.7-.3l.8-.1v-.2q0-.2-.2-.4l-.4-.1H78l-.2.3-.1.1h-.3v-.3l.2-.2.3-.2h1l.3.2.2.3v2.1H79v-.3l-.2.2-.3.1zm.1-.4h.4l.3-.4v-.6l-.5.1-.6.2-.2.3.1.2.2.2zm2.1.4v-2.7h.3v.3l.4-.3h1.1l.4.5.1.6v1.5h-.4v-1.5l-.3-.6-.5-.2-.5.2-.2.6v1.5h-.4m4 0h-.5l-.3-.4-.2-.4V117l.2-.4.3-.3h1q.3 0 .4.3v-1.3h.4v3.6h-.4v-.3l-.4.3zm.1-.4.4-.1.3-.3v-1.2l-.3-.3H84l-.2.4v1.1l.2.3zm3.4 1.3h-.1v-3.6h.4v.3l.4-.3h1l.3.3.2.4.1.4v.8l-.3.4a1 1 0 0 1-.8.4l-.5-.1-.3-.3v1.3h-.4m1.1-1.3.4-.1.2-.3.1-.4v-.7l-.3-.3-.4-.2q-.3 0-.4.2-.2 0-.2.3l-.1.3v.8l.3.3zm3 .4q-.6 0-1-.3l-.3-1v-.3l.2-.6.4-.4.6-.2q.4 0 .7.2.3 0 .4.4l.1.8v.1H91v.1l.1.4.3.3.3.1a1 1 0 0 0 .7-.3h.4v.2l-.2.3zm-.8-1.6h1.4v-.4l-.3-.3-.4-.1-.6.4zm2.7 1.6h-.1v-2.7h.4v.3l.3-.2.5-.1h.2v.4h-.3q-.3 0-.5.2l-.1.4v1.6h-.4m2.2 0-.1-.2v-2.1h-.5v-.4h.5v-.8l.4-.3h.9v.3h-.4q-.3 0-.3.2l-.1.3v.3h.7v.3h-.7v2.3H96m2.7 0-.7-.1-.4-.5-.2-.6v-.4l.2-.6.4-.4.7-.2q.3 0 .6.2.3 0 .4.4l.2.6v.4q0 .4-.2.6 0 .3-.4.5zm0-.4q.3 0 .5-.2l.2-.6v-.4l-.2-.6-.5-.2q-.4 0-.6.2l-.2.6v.4l.2.6zm2 .4h-.1v-2.7h.4v.3l.3-.2.4-.1h.3v.4h-.4q-.3 0-.4.2l-.2.4v1.6h-.4m2 0h-.2v-2.7h.4v.3l.4-.3h.4q.6-.1.8.4l.4-.4h1l.3.4.1.6v1.6h-.4v-1.5l-.1-.5-.2-.2h-.6l-.2.2-.1.5v1.5h-.5v-1.5l-.1-.5-.2-.2h-.6l-.2.2-.1.5v1.5h-.4m5.1 0-.4-.1-.4-.3-.1-.4q0-.3.3-.5t.7-.3l.8-.1v-.2l-.1-.4-.5-.1h-.4l-.2.3v.1h-.4v-.3l.2-.2.3-.2h1l.5.5.1.4v1.7h-.4v-.3l-.3.2-.2.1zm.1-.4h.4q.2-.1.3-.4l.1-.4v-.2l-.6.1-.5.2q-.2 0-.2.3v.2l.3.2zm2.2.4h-.1v-2.7h.4v.3l.4-.3h1.1l.3.5.1.6v1.5h-.4v-1.5l-.2-.6-.6-.2-.5.2-.2.6v1.5zm4 0-.6-.1-.4-.4-.1-.7v-.4l.1-.6q.1-.3.4-.4l.7-.2h.5l.3.3.3.6h-.4l-.3-.4h-.4l-.5.1q-.2.1-.2.6v.4q0 .5.2.6l.5.2.4-.1.2-.4h.5v.3l-.2.2-.5.4zm2.9 0q-.5 0-.8-.3t-.4-1v-.3q0-.3.2-.6 0-.3.4-.4l.6-.2q.4 0 .7.2l.4.4.1.8v.1h-1.9v.5l.3.3.4.1.6-.3h.5v.2l-.3.3zm-.7-1.6h1.4v-.4l-.3-.3-.4-.1-.4.1-.2.3zm4.9 1.6-.7-.1-.4-.5-.1-.6v-.4l.1-.6.4-.4.7-.2q.4 0 .6.2.3 0 .4.4l.2.6v.4q0 .4-.2.6 0 .3-.4.5zm0-.4q.3 0 .5-.2l.2-.6v-.4q0-.3-.2-.6l-.5-.2q-.3 0-.5.2t-.2.6v.4q0 .5.2.6zm2.2.4-.1-.2v-2.1h-.5v-.4h.5v-.8l.4-.3h.9v.3h-.4q-.3 0-.3.2l-.1.3v.3h.7v.3h-.7v2.3h-.4m3.5 0-.5-.1-.3-.3-.1-.4q0-.3.3-.5t.7-.3l.8-.1v-.2q0-.2-.2-.4l-.4-.1h-.4l-.2.3-.1.1h-.3v-.3l.2-.2.3-.2h1q.3 0 .3.2l.2.3v2.1h-.4v-.3l-.2.2-.3.1zm.1-.4h.4l.3-.4v-.6l-.5.1-.6.2-.1.3v.2l.3.2zm2.1.4v-2.7h.4v.3l.3-.3h1.1l.4.5.1.6v1.5h-.4v-1.5l-.3-.6q0-.2-.5-.2l-.5.2-.2.6v1.5h-.4m3.4 1zv-.1l.4-1-1-2.3v-.2h.4l.8 2 .8-2h.5v.2l-1.5 3.3v.1h-.4m4.5-1h-.5l-.4-.2-.1-.3-.1-.1v-.1h.4l.2.2h.2l.3.1h.4l.2-.4v-.2l-.3-.1-.5-.1-.5-.2-.3-.3v-.7l.4-.3h1l.5.3v.3h-.3l-.2-.2h-.2l-.2-.1-.4.1-.2.3.1.1.2.2.5.1.5.2q.3 0 .3.3v.7l-.4.3zm2.8 0-.7-.1-.4-.4-.1-.7v-.4l.1-.6.4-.4.7-.2h.5l.3.3.3.6h-.4l-.3-.4h-.4l-.5.1q-.2.1-.2.6v.4q0 .5.2.6l.5.2.4-.1.2-.4h.5v.3l-.2.2-.5.4zm1.9 0h-.1v-3.7h.4v1.3l.4-.3h1.1l.3.5.1.6v1.5h-.4v-1.5l-.2-.6-.5-.2-.6.2-.2.6v1.5zm4 0q-.5 0-.8-.3t-.3-1v-.3l.1-.6.4-.4.7-.2q.3 0 .6.2.3 0 .4.4l.2.8v.1H145v.5l.3.3.4.1.6-.3h.4v.2l-.2.3zm-.6-1.6h1.4l-.1-.4-.6-.4a1 1 0 0 0-.7.4zm3.5 1.6h-.5l-.4-.4-.2-.4V117l.2-.4.4-.3h1l.3.3v-1.2l.1-.1h.3v3.6h-.3v-.3l-.4.3zm0-.4.5-.1.2-.3.1-.4v-.8l-.3-.3h-.8q-.2.1-.3.4v1.1l.3.3zm3 .4-.5-.1-.4-.5v-2.1h.4v1.5q0 .8.7.8.3 0 .5-.2l.2-.6v-1.5h.5v2.6h-.4v-.3l-.4.3zm2.3 0zv-3.7h.4v3.6zm2.2 0q-.5 0-.9-.3-.3-.3-.3-1v-.3q0-.3.2-.6 0-.3.4-.4l.6-.2q.4 0 .7.2l.4.4.1.8v.1h-1.9v.5l.3.3.4.1.6-.3h.5v.2l-.3.3zm-.7-1.6h1.4v-.4l-.3-.3-.4-.1-.6.4zm3.5 1.6h-.5l-.3-.4-.2-.4-.1-.6v-.6l.3-.4.3-.3h1l.3.3v-1.2l.2-.1h.2l.1.1v3.5h-.4v-.3l-.4.3zm.1-.4.4-.1.3-.3v-1.2l-.3-.3h-.8l-.2.4-.1.4v.7l.3.3zm2 .7h-.1v-.8l.1-.1h.5v.1l-.2.7v.1h-.3M39.7 126v-2.7h.4v.3l.3-.2.4-.1h.3v.4h-.4q-.3 0-.4.2l-.2.4v1.6h-.4m2.9 0q-.5 0-.8-.3t-.4-1v-.3q0-.3.2-.6 0-.3.4-.4l.6-.2q.4 0 .7.2l.4.4.1.8v.1h-1.9v.5l.3.3.4.1.6-.3h.5v.2l-.3.3zm-.7-1.6h1.4v-.4l-.3-.3-.4-.1-.6.4zm3.6 1.6-.6-.1-.4-.4-.2-.7v-.4q0-.4.2-.6 0-.3.4-.4l.6-.2h.5l.4.3.3.6h-.5l-.3-.4h-.4l-.5.1-.2.6v.4q0 .5.2.6l.5.2.4-.1.3-.4h.4l-.1.5-.6.4zm2.8 0-.6-.1-.3-.5-.2-.6v-1.5h.5v1.5q0 .8.7.8.3 0 .5-.2t.2-.6v-1.5h.5v2.6h-.4v-.3l-.4.3zm2.2 0-.1-.2v-2.5h.4v.3l.3-.2.5-.1h.3v.3l-.1.1h-.3q-.3 0-.5.2l-.1.4v1.6h-.4m2 0h-.1v-2.7h.4v.3l.3-.2.4-.1h.3v.4h-.4q-.2 0-.4.2l-.2.4v1.6zm2 0h-.2v-2.7h.4v2.6zm-.1-3.2zv-.5h.5v.4zm1.3 3.2h-.1v-2.7h.4v.3l.4-.3h1.1q.2.3.3.5l.2.6v1.5h-.5v-1.5l-.2-.6-.5-.2-.5.2q-.3.3-.2.6v1.5h-.4m4.1 1h-.6l-.3-.2-.2-.3v-.3h.4l.1.3.2.1h.8q.1 0 .2-.2l.1-.4v-.4l-.3.3h-1l-.4-.3-.1-.4-.1-.7v-.5l.2-.4.4-.3h1l.3.3v-.3h.5v2.6l-.1.6q0 .3-.4.4zm0-1.4q.3 0 .4-.2.2 0 .2-.3l.1-.3v-.7l-.3-.3-.4-.2q-.3 0-.4.2-.2 0-.2.3l-.1.4v.6l.3.3zm2.8 1.3h-.1v-.3h.1l.4-.2v-.1l.1-.3v-2.7h.4v3.2l-.3.3-.5.1m.6-4.1H63v-.5h.5v.4zm2.3 3.2-.7-.1-.4-.5-.2-.6v-.4l.2-.6.4-.4.7-.2q.3 0 .6.2.3 0 .4.4l.2.6v.4q0 .4-.2.6 0 .3-.4.5zm0-.4q.3 0 .5-.2l.2-.6v-.4l-.2-.6-.5-.2q-.3 0-.6.2l-.2.6v.4l.2.6zm3.2.4-.6-.1-.3-.3v.3h-.4v-3.6h.3l.1.1v1.2l.4-.3h1l.3.3.2.4v1.2l-.2.4-.3.3zm-.1-.4.4-.1.2-.3V124q0-.3-.2-.3l-.4-.2a1 1 0 0 0-.7.4v1.2l.2.3zm2.7.4h-.5l-.3-.2-.2-.3v-.2h.3l.2.2h.2l.3.1h.5l.1-.4v-.2l-.3-.1-.5-.1-.5-.2-.2-.3v-.7l.4-.3h1l.5.3v.3h-.4l-.1-.2h-.2l-.3-.1-.4.1-.1.3v.1l.3.2.4.1.6.2.3.3v.7l-.5.3zm1.8 0-.1-.2v-.4h.6v.5H73"/>
      <g clip-path="url(#i)">
        <rect width="99" height="8.6" x="300.4" y="112.5" fill="none" rx="1.7"/>
        <rect width="1.7" height="6" x="194" y="113.8" fill="#06ac3d" opacity=".8" rx=".9"/>
        <rect width="1.7" height="6" x="199.2" y="113.8" fill="#06ac3d" opacity=".8" rx=".9"/>
        <rect width="1.7" height="6" x="204.4" y="113.8" fill="#06ac3d" opacity=".8" rx=".9"/>
        <rect width="1.7" height="6" x="209.5" y="113.8" fill="#06ac3d" opacity=".8" rx=".9"/>
        <rect width="1.7" height="6" x="214.7" y="113.8" fill="#06ac3d" opacity=".8" rx=".9"/>
        <rect width="1.7" height="6" x="219.9" y="113.8" fill="#06ac3d" opacity=".8" rx=".9"/>
        <rect width="1.7" height="6" x="225" y="113.8" fill="#06ac3d" opacity=".8" rx=".9"/>
        <rect width="1.7" height="6" x="230.2" y="113.8" fill="#06ac3d" opacity=".8" rx=".9"/>
        <rect width="1.7" height="6" x="235.4" y="113.8" fill="#06ac3d" opacity=".8" rx=".9"/>
        <rect width="1.7" height="6" x="240.6" y="113.8" fill="#06ac3d" opacity=".8" rx=".9"/>
        <rect width="1.7" height="6" x="245.7" y="113.8" fill="#06ac3d" opacity=".8" rx=".9"/>
        <rect width="1.7" height="6" x="250.9" y="113.8" fill="#06ac3d" opacity=".8" rx=".9"/>
        <rect width="1.7" height="6" x="256.1" y="113.8" fill="#06ac3d" opacity=".8" rx=".9"/>
        <rect width="1.7" height="6" x="261.2" y="113.8" fill="#06ac3d" opacity=".8" rx=".9"/>
        <rect width="1.7" height="6" x="266.4" y="113.8" fill="#06ac3d" opacity=".8" rx=".9"/>
        <rect width="1.7" height="6" x="271.6" y="113.8" fill="#06ac3d" opacity=".8" rx=".9"/>
        <rect width="1.7" height="6" x="276.7" y="113.8" fill="#06ac3d" opacity=".8" rx=".9"/>
        <rect width="1.7" height="6" x="281.9" y="113.8" fill="#06ac3d" opacity=".8" rx=".9"/>
        <rect width="1.7" height="6" x="287.1" y="113.8" fill="#06ac3d" opacity=".8" rx=".9"/>
        <rect width="1.7" height="6" x="292.3" y="113.8" fill="#06ac3d" opacity=".8" rx=".9"/>
        <rect width="1.7" height="6" x="297.4" y="113.8" fill="#06ac3d" opacity=".8" rx=".9"/>
        <rect width="1.7" height="6" x="302.6" y="113.8" fill="#f3b01b" rx=".9"/>
        <rect width="1.7" height="6" x="307.8" y="113.8" fill="#f3b01b" rx=".9"/>
        <rect width="1.7" height="6" x="312.9" y="113.8" fill="#ff002b" rx=".9"/>
        <rect width="1.7" height="6" x="318.1" y="113.8" fill="#f3b01b" rx=".9"/>
        <rect width="1.7" height="6" x="323.3" y="113.8" fill="#f3b01b" rx=".9"/>
        <rect width="1.7" height="6" x="328.4" y="113.8" fill="#ff002b" rx=".9"/>
        <rect width="1.7" height="6" x="333.6" y="113.8" fill="#ff002b" rx=".9"/>
        <rect width="1.7" height="6" x="338.8" y="113.8" fill="#f3b01b" rx=".9"/>
        <rect width="1.7" height="6" x="344" y="113.8" fill="#f3b01b" rx=".9"/>
        <rect width="1.7" height="6" x="349.1" y="113.8" fill="#f3b01b" rx=".9"/>
        <rect width="1.7" height="6" x="354.3" y="113.8" fill="#f3b01b" rx=".9"/>
        <rect width="1.7" height="6" x="359.5" y="113.8" fill="#f3b01b" rx=".9"/>
      </g>
      <rect width="337.9" height="30.6" x="32.6" y="137.7" fill="#fff" rx="2.4"/>
      <rect width="337.9" height="30.6" x="32.6" y="137.7" stroke="#eae7f6" stroke-width=".4" rx="2.4"/>
      <path fill="#181423" d="M41.4 148.1q-.4 0-.9-.2-.3-.1-.6-.5l-.2-1V144h.8v2.5q0 .5.2.8t.7.2.7-.2.2-.8V144h.8v2.5q0 .6-.2 1-.1.3-.6.5zm2.7 1H44v-4.2h.6v.4l.5-.3.6-.2q.3 0 .5.2l.4.2.3.5v1.5l-.3.5-.4.3-.5.1-.6-.1-.4-.3v1.4H44m1.4-1.6.4-.1.2-.3v-.4q.2-.3 0-.4v-.4q0-.3-.2-.3l-.4-.1H45l-.2.4v1.2l.3.3zm3.5.5h-.6l-.4-.5v-2h-.6v-.6h.5v-1.1h.7v1.1h.9v.6h-.8v1.8l.4.1h.4l.1.2v.4H49m1.3 0h-.1v-3l.1-.1h.6v3.1h-.6m0-3.6h-.1v-.7h.6l.1.1v.5h-.6m1.6 3.6h-.1v-3.1h.5l.1.1v.3a1 1 0 0 1 .9-.5q.6 0 1 .6 0-.3.3-.4l.6-.2q.3 0 .6.2.3 0 .4.4l.1.8v1.8h-.6v-1.8l-.2-.4q0-.2-.2-.3h-.6q-.1 0-.2.3l-.1.4v1.8h-.6l-.1-.1v-1.7l-.1-.4q-.1-.2-.2-.3h-.6l-.3.3v2.2h-.6m6.6.1q-.7 0-1-.4-.5-.3-.5-1v-.4q0-.5.2-.8l.5-.5.8-.2.8.2.5.6.1.8v.2h-2.1v.5l.3.3.4.2.6-.3v-.1h.7v.3l-.3.3-.5.2zm-.7-1.9h1.4l-.1-.4q0-.3-.3-.3l-.3-.1H58l-.3.4z"/>
      <path fill="#57606b" d="M39.8 155h-.1v-3.5h.4l1.2 2 1-2h.5v3.5h-.4v-2.6l-.9 1.7H41l-1-1.7v2.6zm5 0h-.6l-.4-.5-.2-.6v-.4q0-.4.2-.6 0-.2.4-.5l.6-.1.7.1.4.5.1.6v.4l-.1.6-.4.4zm0-.3q.3 0 .5-.2t.2-.6v-.4q0-.5-.2-.6l-.5-.2q-.3 0-.5.2l-.2.6v.4q0 .4.2.6zm2 .3h-.1v-2.6h.4v.3l.4-.3.5-.1.6.1.4.5v2.1h-.4v-1.5q0-.4-.2-.6l-.5-.2q-.3 0-.5.2t-.2.6v1.5h-.4m3.1 0v-2.6h.4v2.6h-.4m0-3.2h-.1v-.4h.5v.4zm2.2 3.2h-.4l-.3-.4v-1.8h-.5l-.1-.2v-.2h.5v-1h.4v1h.8v.3h-.7v1.8l.4.1h.3l.1.1v.3H52m2.1 0h-.7l-.4-.5-.1-.6v-.4l.1-.6.4-.5.7-.1.6.1.5.5.1.6v.4l-.1.6-.4.4zm0-.3q.3 0 .5-.2l.2-.6v-.4q0-.5-.2-.6l-.5-.2q-.3 0-.5.2l-.2.6v.4q0 .4.2.6zm2 .3H56v-2.6h.4v.3l.3-.3h.7v.4h-.3q-.3 0-.5.2l-.1.4v1.6h-.4m3.9 0h-.5q-.2 0-.3-.2-.2 0-.2-.2v-.1q0 0 0-.1h.3l.2.1.2.2h.7l.2-.4v-.2l-.3-.1-.5-.2-.5-.1-.2-.3-.1-.3v-.4l.4-.3.6-.1h.4l.5.4.1.2-.1.1h-.3l-.2-.2h-.1l-.3-.1h-.4l-.1.4v.1l.2.2.5.1.5.2q.3 0 .3.3v.7l-.4.3zm1.8 1zv-3.5h.3v.3a1 1 0 0 1 1-.4l.4.1q.3 0 .4.3l.2.4v1.2l-.2.4a1 1 0 0 1-.9.4l-.5-.1-.3-.3v1.2l-.1.1zm1.1-1.3.4-.1.3-.3V153l-.3-.3h-.8l-.2.3-.1.4v.8l.3.3zm3 .4q-.6 0-.9-.3-.3-.4-.3-1v-.3l.1-.6.4-.5.7-.1q.3 0 .6.2.3 0 .4.4l.2.7v.2h-1.9v.5l.3.3.4.1.6-.3h.4v.2l-.2.2zm-.7-1.6h1.4l-.1-.4q0-.2-.3-.3l-.3-.1h-.4l-.3.4zm3.6 1.6-.7-.1-.4-.5-.1-.6v-.4l.1-.6.4-.5.7-.1h.5l.3.3.3.6h-.4l-.3-.4h-.4l-.5.1q-.3.2-.2.6v.4q0 .4.2.6l.5.2.4-.1.2-.4h.5l-.2.5-.5.3zm1.9 0h-.1v-2.7h.4v2.6h-.3m0-3.2h-.2v-.5h.5v.4zm1.5 3.1h-.1v-2.2h-.5l-.1-.2v-.2h.6v-.8l.3-.3H74v.3H73q-.3 0-.4.2v.6h1.2v2.6h-.4v-2.2h-.9v2.2zm3.5 0h-.6l-.4-.5-.2-.6v-.4q0-.5.2-.6 0-.3.4-.5l.6-.1h.5l.4.3.3.6h-.5l-.3-.4h-.4l-.5.1-.2.6v.4q0 .4.2.6l.5.2.4-.1.3-.4h.4l-.1.5-.6.3zm4.1 0q-.5 0-.8-.2-.3-.4-.4-1v-.3q0-.3.2-.6 0-.2.4-.5l.6-.1q.4 0 .7.2l.4.4.1.7v.2h-1.9v.1l.1.4.2.3.4.1.6-.3h.5v.2l-.3.2zm-.7-1.5h1.4v-.4l-.3-.3-.4-.1h-.4l-.2.4zM82 155h-.1v-2.6h.4v.3l.4-.3.5-.1.5.1.4.5.1.6v1.5h-.4v-1.5l-.2-.6-.6-.2q-.2 0-.5.2l-.2.6v1.5zm4 0h-.5a1 1 0 0 1-.6-.7v-1.2l.2-.4.4-.3.5-.1.5.1.3.3v-1.2l.1-.1h.3v3.6h-.4v-.3l-.3.3zm0-.3.5-.1.2-.3V153l-.2-.3h-.9l-.2.3v1.2l.2.3zm2.2 1.3H88v-3.6h.4v.3a1 1 0 0 1 .9-.4l.5.1.3.3.2.4v1.2l-.2.4a1 1 0 0 1-.8.4l-.5-.1q-.3 0-.4-.3v1.3zm1-1.3.5-.1.2-.3V153l-.2-.3h-.8l-.3.3v1.2l.3.3zm3 .4q-.4 0-.6-.2l-.4-.4-.2-.6v-.4q0-.4.2-.6 0-.2.4-.5l.6-.1.7.1.4.5.1.6v.4l-.1.6-.4.4zm0-.4q.3 0 .5-.2t.2-.6v-.4q0-.5-.2-.6l-.5-.2q-.3 0-.5.2l-.2.6v.4q0 .4.2.6zm2 .3H94v-2.6h.4v2.6zm0-3.2H94v-.4h.5v.4H94m1.3 3.2h-.1v-2.6h.4v.3l.4-.3.5-.1.6.1.3.5.1.6v1.5h-.4v-1.5l-.2-.6-.6-.2q-.2 0-.5.2l-.2.6v1.5zm4 0h-.5l-.2-.4-.1-.5v-1.3H98v-.4h.5v-1h.4v1h.8v.3H99v1.8l.3.1h.4v.4zm1.9 0h-.5q-.2 0-.3-.2-.2 0-.2-.2l-.1-.1v-.1h.4l.2.1.5.2h.4l.2-.4v-.2l-.3-.1-.5-.2-.5-.1-.3-.3v-.7l.4-.3.6-.1h.4l.5.4.1.2-.1.1h-.3l-.2-.2h-.1l-.3-.1h-.4l-.1.4v.1l.2.2.5.1.5.2q.3 0 .3.3l.1.3-.1.4-.4.3zm3 0v-2.6h.4v2.6zm0-3.2v-.4h.4v.4zm1.3 3.2v-2.6h.4v.3l.3-.3.6-.1.5.1.4.5.1.6v1.5h-.4v-1.5q0-.4-.3-.6 0-.2-.5-.2-.3 0-.5.2l-.2.6v1.5h-.4m4.6 1v-.2l.4-1-1-2.3v-.1h.4l.8 2 .8-2h.5v.1l-1.5 3.4v.1h-.4m3.4-1h-.6l-.4-.5-.2-.6v-.4q0-.4.2-.6 0-.2.4-.5l.6-.1.7.1.4.5.2.6v.4l-.2.6-.4.4zm0-.3q.4 0 .5-.2.2-.2.3-.6v-.4q0-.5-.3-.6l-.5-.2q-.2 0-.5.2l-.2.6v.4q0 .4.2.6zm3 .4-.7-.2-.3-.4-.1-.6v-1.5h.4v1.5q0 .8.7.8.4 0 .6-.2l.2-.6v-1.5h.4v2.6h-.4v-.3l-.4.3zm2.1 0v-2.7h.3v.3l.4-.3h.7v.4h-.4q-.3 0-.4.2l-.2.4v1.6h-.4m3.8 0-.5-.1-.3-.3-.2-.4.3-.6.8-.2.7-.1v-.2l-.1-.4-.5-.1h-.3l-.2.3h-.4v-.2q0-.1.2-.2 0-.2.3-.2l.4-.1h.6a1 1 0 0 1 .5.6v2.1h-.4v-.3l-.2.2-.3.1zm0-.4h.5l.2-.4.1-.4v-.2h-.6l-.5.3-.2.3v.2l.3.2zm2.2 1.3-.1-.1v-3.5h.4v.3a1 1 0 0 1 .9-.4l.5.1.3.3.2.4.1.4v.8l-.3.4-.3.3h-1l-.3-.3v1.2l-.2.1zm1.1-1.3.4-.1.2-.3.1-.5v-.7l-.3-.3h-.8l-.2.3-.1.4v.8l.3.3zm2 1.3h-.1v-3.6h.4v.3a1 1 0 0 1 .9-.4l.5.1.3.3.2.4v1.2l-.2.4a1 1 0 0 1-.8.4l-.5-.1q-.3 0-.4-.3v1.3zm1-1.3.5-.1.2-.3V153l-.2-.3h-.8l-.3.3v1.2l.3.3zm2 .3v-3.6h.4v3.6h-.3m1.3 0h-.1v-2.6h.4v2.6zm0-3.2h-.1v-.4h.5v.4h-.4m2.2 3.3-.6-.1-.4-.5-.2-.6v-.4q0-.5.2-.6 0-.3.4-.5l.6-.1h.5l.4.3.3.6h-.5q0-.3-.3-.4h-.4l-.5.1-.2.6v.4l.2.6.5.2.4-.1.3-.4h.4l-.1.5-.5.3zm2.5 0-.4-.1-.4-.3v-.4q0-.3.2-.6l.7-.2.8-.1v-.2l-.1-.4-.5-.1h-.4l-.2.3h-.4v-.2l.2-.2.3-.2.5-.1h.5a1 1 0 0 1 .5.6l.1.3v1.8h-.4v-.3l-.3.2-.2.1zm.2-.4h.3q.3-.1.3-.4l.1-.4v-.2h-.6l-.5.3q-.2 0-.2.3v.2l.3.2zm3 .3h-.5l-.3-.4v-1.8h-.5v-.4h.5v-1h.4v1h.8v.3h-.8v1.4l.1.4.3.1h.4v.4zm1 0v-2.6h.4v2.6zm0-3.2zv-.4h.5v.4zm2.3 3.3q-.4 0-.7-.2l-.4-.4-.1-.6v-.4l.1-.6.4-.5.7-.1.6.1.5.5.1.6v.4l-.1.6-.4.4zm0-.4q.3 0 .5-.2l.2-.6v-.4q0-.5-.2-.6l-.5-.2q-.3 0-.5.2l-.2.6v.4q0 .4.2.6zm2 .3h-.1v-2.6h.4v.3l.4-.3.5-.1.6.1q.2.2.3.5l.2.6v1.5h-.5v-1.5l-.2-.6-.5-.2q-.3 0-.5.2t-.2.6v1.5h-.4m3 .4h-.1l.1-.8v-.1h.5v.1l-.2.7-.2.1zm3.5-.3-.5-.1-.5-.7v-1.2l.2-.4.3-.3.5-.1.5.1q.3 0 .4.3v-1.3h.4v3.6h-.4v-.3l-.3.3zm.1-.4.5-.1.2-.3V153l-.3-.3h-.8l-.2.3v1.2l.2.3zm3.1.4q-.6 0-.8-.3-.4-.4-.4-1v-.3q0-.3.2-.6 0-.2.4-.5l.6-.1q.4 0 .7.2l.4.4.1.7v.2h-1.9v.5l.3.3.4.1.6-.3h.5v.2l-.3.2zm-.7-1.6h1.4v-.4l-.3-.3-.4-.1h-.4l-.2.4zm3.6 1.5h-.5l-.3-.4v-1.8h-.5v-.4h.4v-1h.5v1h.7v.3h-.7v1.4l.1.4.3.1h.3l.1.1v.3zm2 0q-.5 0-.9-.2-.3-.4-.3-1v-.3q0-.3.2-.6 0-.2.4-.5l.6-.1q.4 0 .7.2l.4.4.1.7v.2h-1.9v.5l.3.3.4.1.6-.3h.5v.2l-.3.2zm-.7-1.5h1.4v-.4l-.3-.3-.4-.1h-.4l-.2.4zm3.6 1.6-.6-.1-.4-.5-.2-.6v-.4q0-.5.2-.6 0-.3.4-.5l.6-.1h.5l.4.3.2.3v.3h-.4l-.3-.4h-.4l-.5.1-.2.6v.4q0 .4.2.6l.5.2.4-.1.3-.4h.4v.3l-.1.2-.6.3zm2.8 0-.5-.2-.2-.3-.1-.5v-1.3h-.4l-.1-.2v-.2h.5v-1h.4v1h.8v.3h-.7v1.8l.4.1h.3v.4zm-125 7-.5-.1-.5-.7-.1-.6v-.6l.3-.4.3-.3.5-.1.5.1.3.3v-1.2l.2-.1h.3v3.6h-.4v-.3l-.4.3zm.1-.4.4-.1.3-.3V160l-.3-.3h-.8l-.2.3-.1.4v.8l.3.3zm3 .4q-.3 0-.6-.2l-.4-.4-.1-.6v-.4l.1-.6.4-.5.7-.1.6.1q.4.3.4.5l.2.6v.4l-.1.6-.5.4zm0-.4q.5 0 .6-.2l.2-.6v-.4q0-.5-.2-.6l-.5-.2q-.3 0-.5.2t-.2.6v.4q0 .4.2.6zm2.6.3h-.1l-.8-2.5v-.1h.4l.6 2 .6-2h.5l.6 2 .6-2h.4v.1l-.7 2.4v.1h-.5l-.6-2-.6 2h-.4m3.6 0h-.1v-2.6h.4v.3l.3-.3.6-.1.5.1.4.5.1.6v1.5h-.4v-1.5l-.2-.6-.6-.2q-.2 0-.5.2l-.2.6v1.5zm4 0h-.5l-.3-.4v-1.8h-.5v-.4h.5v-1h.4v1h.8v.3h-.8v1.4l.1.4.3.1h.4v.4zm1 0v-2.6h.4v2.6zm0-3.2v-.4h.4v.4zm1.3 3.2zv-2.6h.4v.3l.4-.3.4-.1q.6 0 .8.5l.4-.4.5-.1.5.1.3.4.2.6v1.6h-.5v-1.5l-.1-.5-.2-.2h-.6l-.2.2-.1.5v1.5h-.5v-2q-.2-.1-.3-.2h-.6l-.2.2-.1.5v1.5h-.4m5.6 0q-.6 0-.9-.2-.3-.4-.3-1v-.3l.1-.6.5-.5.6-.1q.3 0 .6.2.3 0 .4.4l.2.7v.2H61v.5l.3.3.4.1.6-.3h.5v.2l-.3.2zm-.7-1.5h1.4l-.1-.4-.6-.4h-.4l-.3.4zm4.5 1.6-.5-.1-.3-.3-.1-.4q0-.3.3-.6l.7-.2.8-.1v-.2q0-.3-.2-.4l-.4-.1h-.4l-.2.3h-.4v-.2l.2-.2.3-.2.5-.1h.5a1 1 0 0 1 .5.6v2.1h-.4v-.3l-.2.2-.3.1zm.1-.4h.4l.3-.4v-.6H66l-.6.3-.2.3.1.2.2.2zm2.1.3v-2.6h.3v.3l.4-.3.6-.1.5.1.4.5.1.6v1.5h-.4v-1.5q0-.4-.3-.6l-.5-.2q-.3 0-.5.2l-.2.6v1.5h-.4m4 0h-.5l-.5-.7v-1.2l.2-.4.3-.3.5-.1.5.1q.3 0 .4.3v-1.3h.4v3.6h-.4v-.3l-.4.3zm.1-.3.4-.1.3-.3V160l-.3-.3h-.8l-.2.3v1.2l.2.3zm4.4.4-.7-.1-.4-.5-.1-.6v-.4l.1-.6.4-.5.7-.1h.5l.3.3.3.6H77l-.3-.4h-.4l-.5.1q-.2.2-.2.6v.4q0 .4.2.6l.5.2.4-.1.2-.4h.5l-.2.5-.5.3zm1.9 0H78v-2.7h.4v.3l.3-.3h.7v.4H79q-.3 0-.4.2l-.2.4v1.6zm2.8 0q-.5 0-.8-.3-.4-.4-.4-1v-.3l.2-.6.4-.5.6-.1q.4 0 .7.2.3 0 .4.4l.1.7v.2h-1.9v.1l.1.4.3.3.3.1.6-.3h.5v.2l-.3.2zm-.7-1.6h1.4v-.4a1 1 0 0 0-.7-.4h-.4l-.2.4zm3.3 1.6-.5-.1-.3-.3-.1-.4q0-.3.2-.6l.8-.2.8-.1v-.2q0-.3-.2-.4l-.4-.1h-.4l-.2.3h-.4v-.2q0-.1.2-.2l.3-.2.5-.1h.5a1 1 0 0 1 .5.6v2.1h-.4v-.3l-.2.2-.3.1zm.1-.4h.4l.3-.4v-.6H84l-.6.3-.2.3.1.2.2.2zm3 .3h-.4l-.3-.4-.1-.5v-1.3h-.4l-.1-.2v-.2h.5v-1h.4v1h.8v.3h-.7v1.8l.4.1h.3l.1.1v.3h-.5m2 0q-.5 0-.8-.2-.3-.4-.3-1v-.3l.1-.6.4-.5.7-.1q.3 0 .6.2.3 0 .4.4l.2.7v.2H88v.5l.3.3.4.1.6-.3h.4v.2l-.2.2zm-.6-1.5h1.4l-.1-.4-.6-.4h-.4l-.3.4zm5 1.6-.8-.1-.4-.4-.2-.5h.5l.1.3.3.2h.5l.6-.1q.2-.2.2-.4v-.3l-.4-.2-.6-.2-.6-.2-.4-.4-.1-.5.1-.5.5-.3.7-.1h.5a1 1 0 0 1 .7.6v.4h-.4q0-.3-.3-.4l-.5-.2-.6.1-.2.4.1.3.3.2.6.2.6.3q.3 0 .4.3l.2.5-.2.5-.5.4zm3 0q-.5 0-.8-.3l-.4-1v-.3l.2-.6.4-.5.6-.1q.4 0 .7.2.3 0 .4.4l.1.7v.2h-1.9v.1l.1.4.3.3.3.1a1 1 0 0 0 .7-.3h.4v.2l-.2.2zm-.7-1.6H97l-.1-.4q0-.2-.3-.3l-.4-.1h-.3l-.3.4zm2.7 1.5H98v-2.6h.4v.3l.4-.3.5-.1.6.1q.2.2.3.5l.1.6v1.5h-.4v-1.5l-.2-.6-.5-.2q-.3 0-.6.2l-.1.6v1.5H98m4 0h-.5l-.2-.4-.1-.5v-1.3h-.5v-.4h.5v-1h.4v1h.8v.3h-.7v1.8l.4.1h.3v.4zm1.1 0h-.1v-2.6h.4v.3l.3-.3h.8v.3l-.1.1h-.3q-.3 0-.5.2l-.1.4v1.6h-.4m2.3 1v-.1l.3-1-1-2.4v-.1h.5l.8 2 .8-2h.4v.1L106 163v.1h-.4m3.7-1h-.1v-3.5h.5v3.5h-.4m2.2 0h-.5q-.3 0-.4-.2l-.2-.2v-.2h.4l.2.1.2.2h.7l.2-.4-.1-.2-.2-.1-.5-.2-.5-.1-.3-.3v-.7l.4-.3.5-.1h.5l.5.4v.3h-.3l-.2-.2h-.2l-.3-.1h-.3l-.2.4v.1l.3.2.5.1.5.2.3.3v.7l-.4.3zm2.6 0h-.5q-.1 0-.3-.2-.2 0-.2-.2v-.1q0 0 0-.1h.3l.2.1.5.2h.4l.2-.4v-.2l-.3-.1-.5-.2-.5-.1-.2-.3-.1-.3v-.4l.4-.3.6-.1h.4l.5.4.1.2-.1.1h-.3l-.2-.2h-.1l-.3-.1h-.4l-.1.4v.1l.2.2.5.1.5.2q.3 0 .3.3l.1.3-.1.4-.4.3zm2.7 0h-.6l-.3-.5-.1-.6v-1.5h.4v1.5q0 .8.7.8.4 0 .6-.2l.2-.6v-1.5h.4v2.6h-.4v-.3l-.4.3zm3.2 0q-.6 0-.9-.2-.3-.4-.3-1v-.3q0-.3.2-.6 0-.2.4-.5l.6-.1q.4 0 .6.2.3 0 .5.4v.9h-1.8v.5l.3.3.4.1.6-.3h.5v.2l-.3.2zm-.7-1.5h1.4v-.4l-.3-.3-.4-.1h-.4l-.2.4zm3.4 1.6h-.5l-.3-.3-.2-.2v-.2h.3l.2.1.5.2h.5l.1-.4v-.2l-.3-.1-.5-.2-.4-.1-.3-.3v-.7l.4-.3.5-.1h.5l.5.4v.3h-.3l-.2-.2h-.2l-.3-.1h-.4l-.1.4v.1l.3.2.4.1.6.2.3.3v.7l-.5.3zm1.8 0v-.6h.5v.5h-.5"/>
      <g clip-path="url(#j)">
        <rect width="99" height="8.6" x="295.3" y="148.7" fill="none" rx="1.7"/>
        <rect width="1.7" height="6" x="194" y="150" fill="#06ac3d" opacity=".8" rx=".9"/>
        <rect width="1.7" height="6" x="199.2" y="150" fill="#06ac3d" opacity=".8" rx=".9"/>
        <rect width="1.7" height="6" x="204.4" y="150" fill="#06ac3d" opacity=".8" rx=".9"/>
        <rect width="1.7" height="6" x="209.5" y="150" fill="#06ac3d" opacity=".8" rx=".9"/>
        <rect width="1.7" height="6" x="214.7" y="150" fill="#06ac3d" opacity=".8" rx=".9"/>
        <rect width="1.7" height="6" x="219.9" y="150" fill="#06ac3d" opacity=".8" rx=".9"/>
        <rect width="1.7" height="6" x="225" y="150" fill="#06ac3d" opacity=".8" rx=".9"/>
        <rect width="1.7" height="6" x="230.2" y="150" fill="#06ac3d" opacity=".8" rx=".9"/>
        <rect width="1.7" height="6" x="235.4" y="150" fill="#06ac3d" opacity=".8" rx=".9"/>
        <rect width="1.7" height="6" x="240.6" y="150" fill="#06ac3d" opacity=".8" rx=".9"/>
        <rect width="1.7" height="6" x="245.7" y="150" fill="#06ac3d" opacity=".8" rx=".9"/>
        <rect width="1.7" height="6" x="250.9" y="150" fill="#06ac3d" opacity=".8" rx=".9"/>
        <rect width="1.7" height="6" x="256.1" y="150" fill="#06ac3d" opacity=".8" rx=".9"/>
        <rect width="1.7" height="6" x="261.2" y="150" fill="#06ac3d" opacity=".8" rx=".9"/>
        <rect width="1.7" height="6" x="266.4" y="150" fill="#06ac3d" opacity=".8" rx=".9"/>
        <rect width="1.7" height="6" x="271.6" y="150" fill="#06ac3d" opacity=".8" rx=".9"/>
        <rect width="1.7" height="6" x="276.7" y="150" fill="#06ac3d" opacity=".8" rx=".9"/>
        <rect width="1.7" height="6" x="281.9" y="150" fill="#06ac3d" opacity=".8" rx=".9"/>
        <rect width="1.7" height="6" x="287.1" y="150" fill="#06ac3d" opacity=".8" rx=".9"/>
        <rect width="1.7" height="6" x="292.3" y="150" fill="#06ac3d" opacity=".8" rx=".9"/>
        <rect width="1.7" height="6" x="297.4" y="150" fill="#ff002b" rx=".9"/>
        <rect width="1.7" height="6" x="302.6" y="150" fill="#ff002b" rx=".9"/>
        <rect width="1.7" height="6" x="307.8" y="150" fill="#ff002b" rx=".9"/>
        <rect width="1.7" height="6" x="312.9" y="150" fill="#ff002b" rx=".9"/>
        <rect width="1.7" height="6" x="318.1" y="150" fill="#ff002b" rx=".9"/>
        <rect width="1.7" height="6" x="323.3" y="150" fill="#ff002b" rx=".9"/>
        <rect width="1.7" height="6" x="328.4" y="150" fill="#ff002b" rx=".9"/>
        <rect width="1.7" height="6" x="333.6" y="150" fill="#ff002b" rx=".9"/>
        <rect width="1.7" height="6" x="338.8" y="150" fill="#ff002b" rx=".9"/>
        <rect width="1.7" height="6" x="344" y="150" fill="#ff002b" rx=".9"/>
        <rect width="1.7" height="6" x="349.1" y="150" fill="#ff002b" rx=".9"/>
        <rect width="1.7" height="6" x="354.3" y="150" fill="#ff002b" rx=".9"/>
        <rect width="1.7" height="6" x="359.5" y="150" fill="#ff002b" rx=".9"/>
      </g>
    </g>
    <path stroke="#dad9de" d="M25.4 17.3h352.2a3 3 0 0 1 2.9 2.9V172a3 3 0 0 1-3 3h-352a3 3 0 0 1-3-3V20.2a3 3 0 0 1 3-3Z"/>
  </g>
  <path stroke="#e6e6e9" d="M.5.5h401v191H.5z"/>
  <defs>
    <clipPath id="a">
      <path fill="#fff" d="M0 0h402v192H0z"/>
    </clipPath>
    <clipPath id="b">
      <path fill="#fff" d="M0 0h402v192H0z"/>
    </clipPath>
    <clipPath id="d">
      <path fill="#fff" d="M-23-58h448v313H-23z"/>
    </clipPath>
    <clipPath id="e">
      <path fill="#fff" d="M22 20.2c0-1.9 1.5-3.4 3.4-3.4h352.2c1.9 0 3.4 1.5 3.4 3.4V172c0 1.9-1.5 3.4-3.4 3.4H25.4A3.4 3.4 0 0 1 22 172z"/>
    </clipPath>
    <clipPath id="g">
      <path fill="#fff" d="M194 65.2h169.7v24H194z"/>
    </clipPath>
    <clipPath id="i">
      <path fill="#fff" d="M194 104.8h169.7v24H194z"/>
    </clipPath>
    <clipPath id="j">
      <path fill="#fff" d="M191.4 141h172.3v24H191.4z"/>
    </clipPath>
    <linearGradient id="c" x1="145.5" x2="254.5" y1="-36" y2="247" gradientUnits="userSpaceOnUse">
      <stop stop-color="#5a3bda"/>
      <stop offset="1" stop-color="#2a1871"/>
    </linearGradient>
  </defs>
</svg>