<svg width="369" height="276" fill="none" xmlns="http://www.w3.org/2000/svg"><path d="M77 255.5 327.5 212 306.8 58.5 2 21l75 234.5Z" fill="#FCA9CB"/><path d="m169 126.2-26.7 61.4-114.5-9-12-4.4L38 118.5l123.9 3 7 4.7Z" fill="#EBB432"/><path d="m142.3 187.6-114.5-9-12-4.4 119.5 8.7 7 4.7Z" fill="#CE8D1B"/><path d="m113.8 190.7-5.6-2 3.8-1.4s-11.3-1.6-12.2-2c-.9-.3-8-4.7-12.4-6-4.5-1.2-11-1.4-11-1.4s12.1-3.6 14.4-5.8c4.7-4.5 6.5-8.5 6.5-8.5 0-5.3-5.1-13-7.4-13.6-2.3-.7-8.5 3.5-9.9 4.7a320 320 0 0 0-11.2 14.2 45 45 0 0 0-8-19.4c-1.9-.8-7.8 1.7-9.4 2.7a28 28 0 0 0-5.3 9c-.3 1.2 1.6 7 3.3 9.2 1.7 2.2 8.3 5.8 8.3 5.8-1.7 1.4-13.4 6.3-13.4 6.3l3.1 7.7s7.6-5.7 9-7l4-4.3c4.4 2.4 9.3 1.4 9.3 1.4s1.1 1.5 2.7 3c1.5 1.7 9 9.1 9 9.1l6.3-3.5-5.5-4.5 7.3 1.4c.7.3 7.6 5.7 9.5 6.2l10.3 2.3-2.1-2.8 6.6-.8Zm-60-26 1-8.2s6 11.2 7.8 17.8c0 0-3.8-3.2-8.8-9.5Zm18.3 13-2.7-2 9.2-10.7c1.8-2 6.2-6.2 6.2-6.2l2.8 10.1s-10.8 6.8-15.5 8.8Z" fill="#E1557A"/><path d="m76.4 159-7.6 10a33 33 0 0 0-1.1-5.2l1.5-3.9a68.8 68.8 0 0 1-.6-13.8c.1-.5 4.2-5.2 4.5-5.7.3-.5 3.7-15.7 4-16.7.2-1 3-4.1 3-4.1l8 .2s-5.4 13.8-5.9 15.4c-.4 1.6-1.3 7-1.4 7.8 0 .8-3.7 4.4-4.4 5.1l-.7 3.3c-.1.7.7 7.6.7 7.6Z" fill="#E1557A"/><path d="m326.1 144-5.3 38.9-55.3 10.9L144.3 183l15.6-35.8 3.9-9 23.1-3 139.2 8.7Z" fill="#EBB432"/><path d="M164.8 193.8s6.2-3.7 7.4-3.9c1.2-.2 6.9 1.5 7.5 1.5.5 0 1.8-.5 1.8-.5s3.7-11.6 4.2-12.2c.5-.7 6.3-5.1 6.3-5.1l9.5.4c.8 0 2.4 4.9 2.5 5.4v9l-9.2-.8-.7-7s-5.2 12-5.4 12.8c-.3 1-4.7 2.5-5.2 2.7-.6.2-5.6.3-5.6.3l-1.1-2.5-5.2 1.9-.6-2.6-6.2.6Z" fill="#E1557A"/><path d="m326.1 144-59.3 12.3-107-9.1 4-9 23.1-3 139.2 8.7Z" fill="#CE8D1B"/><path d="M288.7 189.2s2.3-6.2 3.8-8.1a37 37 0 0 1 7.7-5.7L312 174c1 1.3 2.4 9 2.4 9s2.8 2.8 3.5 2.7c.6 0 14.4-1.2 15.5-.8 1.1.4 5.4 4 5.4 4l-6.3-.3 1.5 1.5s-9.5-1.3-10.9-1.2c-1.4 0-9.3 1.8-10 1.7-.8-.1-4.8-2.5-5-3-.3-.5-2-7.3-2.3-8.6 0-.4-.4-.8-.9-1.2 0 0-4.2 3.2-4.8 4.1-.7 1-2.6 5.7-2.6 5.7" fill="#E1557A"/><path d="M211 125.3s2 2.9 2.7 5l-3.8 3.7 8 .4s-.1-7.3-4.3-12.9l12-16.3s7 13.5 7 30l6.6.5s-.9-20.6-9.7-35.9l12.6-17c1-1.4 3-1 3.5.5l17.5 57c.6 1.8-.8 3.6-2.7 3.5L249 143s.2-4-.3-7l6 .4-12.5-44.6-6.1 8.6s8.8 18.7 8.8 42.3l-16.4-1.5s1.5-13.7-4.2-25l-4.8 6s3.8 7.2 3.4 18.6l-17.1-1.3a3 3 0 0 1-2.2-5l7.6-9.2ZM320.1 88.8l-.6-2.6-8.1 3v-1l6.4-6-1.8-1.6-8.5 6.3-2.5.4.4-7.3-2.7-.3-1.8 10-44 30.2.6 2.1 46.7-24.7 7.7-1.6 5.9 1.5 1-2.2-7.1-2.3 8.4-4Z" fill="#AD6CAA"/><path d="m242.5 142.5.5 11.8 3.9.3-2.1-11.9-2.3-.2ZM221 140.8l-2.4 11.4 3.5.3.7-11.7H221ZM183.6 81.3l-.2-4.8-.3-4.3-2.8-.4-.5 6.8-2.4-.6-6.7-5.7-1.4 1.5 5.2 5.5-.3.7-8-1.8-.7 1.8 7.8 2.6-.5 1.3-6 1.4.5 1.8 5.8-.7 6.2 1.2 37.5 29.6 1.2-1.6-34.4-34.3Z" fill="#AD6CAA"/><path d="m295.7 114.7 4.9.1-3 7-2-7Z" fill="#E1557A"/><path d="m317.8 116-1.4-4.7 4-1.6 1.4 4.5-4 1.7Z" fill="#F58452"/><path d="m332.6 103 6.6-.7 1.6 7 5.6-.9-.2 5 4 .1-1-8.4-6.6.6-1.4-6.9-8.1.5-.5 3.7Z" fill="#E1557A"/><path d="M342 125.6c-.2 1.7 1.4 2 2 2 .7-.1 1.9-.3 1.9-1.8 0-.8-.8-1.8-1.8-1.9-1 0-2 .8-2.1 1.7Z" fill="#EBB432"/><path d="m339.8 141.6 4.3-.3 1 3.7-4.5 1.2-.8-4.6Z" fill="#E1557A"/><path d="m358.5 104.8 2.6 4.4 6.5-3-9.1-1.4Z" fill="#F58452"/><path d="m352.2 86 .2 3.4-4 .4-.5-3.8h4.3Z" fill="#EBB432"/><path d="m339 79.6-3.7 3-2.4-9.3 6 6.3ZM264.1 86.4l1.8 5.3 5.6-4-2.8-4.3-4.6 3Z" fill="#F58452"/><path d="m254.3 79 5.5-.1-2.4-4.3-3.1 4.3ZM115.5 93.2c-1.6.7-1.5 2.4-.7 3.3.7.9 2.4 1.1 3.4 0 1.3-1.8-.9-4.2-2.7-3.3Z" fill="#E1557A"/><path d="m135.8 103.8 8.4-1.8.3-6.7 6.7 1.3 1 2.8-5.5-1-.3 6.5-9.2 1.8-1.4-3Z" fill="#F58452"/><path d="m170.5 100.8 2.8-.2-.2 3.6 2.5-.3.6 6.8 5-.4 1 6-2.5 1.3-1-4.8-4.4 1-.8-7-2.8.6-.2-6.6Z" fill="#E1557A"/><path d="m159 92.4 1.2 9.2 3.8-7.4-5-1.8ZM191.5 77.5c.2 2.4 3.6 2 3.8.5.1-1.2-.3-2.2-1.5-2.4-1.1-.2-2.4.4-2.3 1.9Z" fill="#EBB432"/><path d="m198 83.7 4.3-3.6 1.9 1.4 2.5-3.8 1.9.8 1.7-3.5 2.6 1.5-3 5-2.2-1.2-3 4.4-2-2-2 2.7-2.6-1.7ZM120.3 85.4 119 83l4.6-2.4 1.3 3.1-4.7 1.7Z" fill="#F58452"/><path d="m133.1 70.2 1.2 8.7 4-5.5-5.2-3.2ZM154.3 73.7l6.2-2 .7 4.3-2.7.8-4.2-3Z" fill="#E1557A"/><path d="m147.1 84.5-5-6.3 6.8 3.1-1.8 3.2Z" fill="#F58452"/><path d="m139.2 87.7-5 .2.1 2.9 4.7.2.2-3.3ZM311.4 121.7l-2.6 4 1.4 1.8-3 4.2 2.2 1.5 3.7-5.8-1.1-1.8 2.6-3.8-4.4-6.9-1.9 1.9 3 5Z" fill="#EBB432"/><path d="M56.3 175.4s-8.2-.3-9.7-.2c-1.4.2-9.7 4-9.7 4s-14.8 2-15.9 1.9l-6.4-2c3.5-.7 12-1 12-1l1.2.4-12-4.3 1.8-4.6s-8 1-10.7 1.9c-2.6.8-6 2.1-6.5 3 0 0 .1 5.6 1.3 10.2l4.5.7c2 .2 8.7 2.4 10 2.9 1.4.4 4 1.3 5.6 1.5a32 32 0 0 0 7.6-.6c2-.5 7.5-3.5 8.9-4 1.3-.6 6.3-1.8 6.3-1.8l-.3-1 5.2-2.2c3.4-1.4 7.3-3.3 8.2-4l-1.4-.8Z" fill="#E1557A"/><path d="m159.9 147.2-5.4 36.7-10.2-.9 15.6-35.8Z" fill="#CE8D1B"/><path d="m109.3 194.7-10.4-2.3c-1.3-.3-4.3-2.5-7.5-4.8a36 36 0 0 0-2-1.4l-4.2-.9a.4.4 0 0 1-.4-.4c0-.3.3-.4.5-.4 4 .7 4.3.9 4.4 1 .2 0 .8.5 2.2 1.4 2.2 1.6 6 4.4 7.2 4.7l9.2 2-1.5-1.8v-.5l.3-.2 4.9-.6-3.9-1.4a.4.4 0 0 1 0-.8l2.2-.8a156 156 0 0 1-10.6-1.7l-1.8-1c-2.6-1.4-7.3-4.1-10.6-5-4.5-1.3-10.8-1.5-10.9-1.5a.4.4 0 0 1 0-.8s12-3.6 14.1-5.7c4.2-4 6.1-7.7 6.4-8.3 0-5.2-5-12.5-7.1-13.1-2-.6-7.8 3.2-9.5 4.6-1 .9-7.7 9.7-11.1 14.2-.1.1-.3.2-.5.1a.4.4 0 0 1-.3-.3c-1-7.2-6.3-18.4-7.9-19-1.5-.8-7 1.4-8.9 2.6-1.5 1-4.9 7.5-5.1 8.7a21 21 0 0 0 3.3 8.8c1.6 2.2 8 5.6 8.1 5.7a.4.4 0 0 1 .1.7c-1.6 1.3-11 5.3-13.2 6.2l2.8 6.8c1.6-1.2 7.3-5.6 8.5-6.7l4-4.2c.2-.2.4-.2.5-.1 4.2 2.3 9 1.4 9 1.4.2 0 .4 0 .5.2a765.9 765.9 0 0 0 11.4 11.8l5.5-3-5-4.2a.4.4 0 0 1 .5-.7l5.5 4.6a.4.4 0 0 1 0 .7l-6.4 3.5h-.5c0-.2-7.5-7.5-9-9.1a41.2 41.2 0 0 1-2.5-3c-1.1.2-5.3.7-9-1.3l-4 4a182.9 182.9 0 0 1-9.3 7.2.4.4 0 0 1-.3-.3l-3.1-7.7c-.1-.2 0-.4.2-.5a144 144 0 0 0 12.8-5.9c-1.7-1-6.4-3.6-7.8-5.6a20.7 20.7 0 0 1-3.5-9.5c.4-1.4 3.8-8.2 5.6-9.2 1.5-1 7.6-3.7 9.7-2.8 2 1 7 11.8 8.2 18.8a264 264 0 0 1 10.7-13.6c1.1-1 7.6-5.5 10.2-4.7 2.6.7 7.7 8.7 7.7 14v.2c0 .2-2 4.1-6.6 8.6-1.7 1.6-8.6 4-12.3 5.2 2.3.1 5.8.5 8.7 1.3a58.8 58.8 0 0 1 12.5 6c.6.3 7.8 1.4 12.1 2a.4.4 0 0 1 0 .8l-2.6 1 4.5 1.6a.4.4 0 0 1-.1.8l-6 .7 1.8 2.3a.4.4 0 0 1-.4.6Zm-37.2-16.6h-.3l-2.7-2a.4.4 0 0 1 0-.6c0-.2 7.4-8.8 9.2-10.8 1-1.2 3-3.2 4.6-4.6a.4.4 0 0 1 .6.6l-4.6 4.6-8.9 10.3 2.2 1.6c4.3-1.9 13.3-7.4 15-8.5l-2.8-9.8c0-.2.1-.4.3-.5.3 0 .5 0 .5.3l2.8 10.1-.1.5A172 172 0 0 1 72 178Zm-9.5-3.3-.3-.1s-3.9-3.4-8.8-9.7v-.3l.8-8.3a.4.4 0 0 1 .8-.1s6.1 11.3 8 18a.4.4 0 0 1-.5.5Zm-8.3-10.1c3.2 4 6 6.9 7.5 8.3-1.8-5.2-5.3-12.3-6.8-15.1l-.7 6.8Z" fill="#000"/><path d="M69.7 180.7a.4.4 0 0 1-.4-.4l-.8-10.7c-5.8 2.9-7.6 9.3-7.7 9.4a.4.4 0 0 1-.8-.2c.1-.3 2-7.3 8.7-10.3a.4.4 0 0 1 .6.4l.9 11.4c0 .2-.2.4-.4.4ZM84.8 159.2l-.3-.1a27 27 0 0 0-4.7-4 .4.4 0 1 1 .5-.8c.1.1 3.4 2.4 4.9 4.3a.4.4 0 0 1-.4.6ZM87.6 171.2a.4.4 0 0 1-.4-.5V169a.4.4 0 0 1 .9 0v1.8c0 .3-.2.5-.5.5ZM54.7 156.9s-.2 0-.3-.2l-3.3-4.2a.4.4 0 1 1 .6-.5l3.4 4.2a.4.4 0 0 1-.4.7Z" fill="#000"/><path d="M57.7 176.6a.4.4 0 0 1-.1-.8l4.9-1.9c.2 0 .4 0 .5.3.1.2 0 .4-.2.5l-5 1.9ZM72.8 178.6a.4.4 0 0 1-.4-.4c0-.3.2-.5.4-.5a.4.4 0 1 1 0 .9Z" fill="#000"/><path d="m75 178-2.2.2 2 1.3.3-1.5Z" fill="#000"/><path d="M74.8 179.9h-.2l-2-1.4a.4.4 0 0 1 .2-.8l2.2-.1h.4v.5l-.2 1.5a.4.4 0 0 1-.4.3Zm-.7-1.4.4.3v-.4h-.4ZM27.8 179h-.1l-12.1-4.4a.4.4 0 0 1-.3-.5l1.9-4.6a.4.4 0 0 1 .8.3l-1.7 4.2L28 178a.4.4 0 0 1-.2.8ZM36.9 179.7l-.3-.1a.4.4 0 0 1-.2-.4c0-.2 1.6-1 4.6-2.3 4.6-2 5.4-2 5.6-2 .9-.2 4.2 0 6.9 0 .2 0 .4.2.4.4 0 .3-.2.4-.4.4h-6.8a79.6 79.6 0 0 0-9.8 4Z" fill="#000"/><path d="M23 190.3h-1.2c-1.6-.2-3.8-1-5.2-1.5l-.5-.1c-.8-.3-7.8-2.6-10-3l-4.5-.5a.4.4 0 0 1-.3-.4A52.8 52.8 0 0 1 0 174.3c.7-1.3 5.8-3 6.8-3.2a79 79 0 0 1 8.9-1.6c.2 0 .4.1.5.3 0 .3-.2.5-.4.5-2.5.4-7 1-8.7 1.6-3.1 1-5.8 2.1-6.2 2.7 0 .9.1 5.7 1.1 9.8l4.3.5c2.2.3 9.3 2.7 10 3l.6.1c1.4.5 3.5 1.2 5 1.4 1.7.2 5.6-.2 7.4-.7 1.3-.2 4.3-1.7 6.4-2.7l2.4-1.2c1.2-.5 4.7-1.4 6-1.7l-.2-.5c-.1-.2 0-.4.2-.5l5.2-2.3c3.8-1.6 6.4-2.9 7.6-3.6l-.8-.4a.4.4 0 1 1 .4-.8l1.4.8a.4.4 0 0 1 .1.7c-.8.7-3.6 2-8.3 4.1l-4.9 2.1.2.5a.4.4 0 0 1-.3.6s-5 1.3-6.2 1.8l-2.4 1.1c-2.3 1.2-5.2 2.6-6.6 2.9-1.6.3-4.5.7-6.5.7Z" fill="#000"/><path d="M21.2 181.5h-.3l-6.8-2.2-5.8-1.8-6.3-.9a.4.4 0 1 1 .2-.8l6.3.9c.5 0 2.5.7 5.9 1.8 2.8 1 6.1 2 6.7 2.1.8.2 10-1 15.7-1.8a.4.4 0 1 1 .1.8c-1.4.2-13.5 1.9-15.7 1.9ZM68.8 169.4l-.2-.1a.4.4 0 0 1-.1-.6l7.5-9.8c-.2-1.5-.8-6.9-.7-7.5a88.8 88.8 0 0 1 .8-3.6l.5-.5a25 25 0 0 0 3.8-4.3c0-.7 1-6.3 1.4-8 .4-1.4 4.7-12.2 5.7-14.8l-7.3-.2a19 19 0 0 0-2.7 3.8l-1.1 4.7c-2.1 9.1-2.8 11.8-3 12.1 0 .2-.5.7-1.3 1.7-1 1.3-3 3.5-3 4a73 73 0 0 0 .5 13.8l-.6 1.4a.4.4 0 0 1-.8-.3l.6-1.4a68.7 68.7 0 0 1-.6-13.7c0-.4.8-1.3 3.2-4.3l1.3-1.6 2.8-11.9 1.1-4.7c.3-1.1 2.8-4 3.1-4.3l.4-.2 8 .2a.4.4 0 0 1 .4.6c0 .1-5.4 13.8-5.9 15.4-.4 1.5-1.2 7-1.3 7.8-.1.6-1.2 1.8-4 4.8l-.5.4-.7 3.2a96.3 96.3 0 0 0 .7 7.8c-3.3 4.1-7.6 9.8-7.6 9.9l-.4.2ZM135.3 183.4l-42.9-3.1a.4.4 0 0 1 .1-.9l42.5 3.2 26.6-61.2c.1-.2.3-.3.6-.2.2 0 .3.3.2.5l-26.7 61.5-.4.2ZM43.6 176.7l-27.9-2a.4.4 0 0 1-.4-.5c0-.3.2-.4.5-.4l27.9 2a.4.4 0 0 1 0 .9Z" fill="#000"/><path d="M142.3 188h-.2l-7-4.6a.4.4 0 0 1 .5-.7l7 4.5a.4.4 0 0 1-.3.8ZM165.8 138.3a.4.4 0 0 1 0-.8l21-2.8 13.6.9c.3 0 .5.2.4.4 0 .3-.2.4-.4.4l-13.5-.8-21 2.7ZM266.8 156.8l-107-9.2a.4.4 0 1 1 0-.8l107 9.1 59.3-12.4c.2 0 .4.1.5.3 0 .3-.1.5-.4.5L267 156.7Z" fill="#000"/><path d="M187.8 150a.4.4 0 0 1-.4-.4l-.9-14.4c0-.3.2-.5.4-.5s.4.2.5.4l.8 14.4c0 .3-.2.5-.4.5ZM265.5 194.2a.4.4 0 0 1-.4-.4l1.3-37.5c0-.2.2-.4.4-.4.3 0 .4.2.4.4l-1.2 37.5c0 .2-.2.4-.5.4ZM185.3 195.8a.4.4 0 0 1-.2-.8c3-1.1 3.2-1.7 3.2-1.7.2-1 5.2-12.4 5.4-12.8 0-.2.2-.3.4-.3s.4.2.4.4l.7 6.6 8.4.7v-8.4c-.1-.7-1.6-4.7-2.2-5-.2 0-.4-.2-.4-.5 0-.2.3-.4.5-.4 1.4 0 3 5.7 3 5.8a241.5 241.5 0 0 1-.2 9.2c-.1.1-.2.2-.3.1l-9.2-.7a.4.4 0 0 1-.4-.4l-.6-5.3-4.7 11.3c-.1.2-.3.9-3.6 2.2h-.2Z" fill="#000"/><path d="M177.9 196.8a.4.4 0 0 1-.4-.2l-1-2.2-4.8 1.8a.4.4 0 0 1-.5-.3l-.5-2.3-5.9.6a.4.4 0 0 1-.3-.8c.7-.4 6.4-3.7 7.7-4 .8 0 3 .5 5.5 1.1l2 .5 1.5-.4c.7-2.3 3.7-11.5 4.2-12.2a88.5 88.5 0 0 1 6.6-5.3l6.5.4a.4.4 0 0 1 0 .8c-2.5 0-5.6-.3-6.3-.3a85 85 0 0 0-6.2 5 222.5 222.5 0 0 0-4.3 12.3c-.2 0-1.4.5-2 .5l-2.2-.4c-1.7-.5-4.5-1.2-5.2-1a37 37 0 0 0-5.6 2.8l4.3-.5c.2 0 .4.2.4.4l.5 2.1 4.7-1.7c.2 0 .5 0 .6.2l1 2.3c2.3 0 4.8-.2 5.1-.3.3 0 .5 0 .6.3 0 .2 0 .5-.3.5-.6.2-4.5.3-5.7.3Z" fill="#000"/><path d="M194 181a.4.4 0 0 1-.2-.7l7.4-6.6a.4.4 0 0 1 .6.7l-7.5 6.5-.2.2ZM305 178.2l-.4-.1c-1.5-1.3-3.9-2.4-4.3-2.3-.2.1-.5 0-.5-.2-.1-.2 0-.5.2-.6 1-.4 4 1.3 5.2 2.4.2.2.2.4 0 .6l-.3.2Z" fill="#000"/><path d="M313.1 190.9c-1-.1-5-2.6-5.4-3.2-.2-.3-.6-2-1.5-5.7l-.8-3-.5-.7c-1.3 1-4 3.1-4.5 3.8-.5.7-2 4.2-2.5 5.5a.4.4 0 0 1-.8-.3c.1-.2 2-4.8 2.6-5.7.7-1 4.5-3.9 5-4.2h.5c.6.5 1 1 1 1.3l.8 3.1 1.4 5.5c.4.4 4.2 2.7 4.7 2.7l5.2-.8c2.1-.4 4.1-.8 4.8-.8 1-.1 7 .7 9.7 1l-.6-.6a.4.4 0 0 1-.1-.4c0-.2.2-.3.4-.3l5 .1a28 28 0 0 0-4.2-3c-1-.3-14.5.8-15.3.9-.8 0-2.5-1.5-4-2.9v-.2c-.6-2.9-1.5-7.4-2.2-8.6l-11.5 1.4c-1 .5-6 3.8-7.4 5.6-1.6 1.7-3.8 7.9-3.8 8a.4.4 0 0 1-.8-.3 41 41 0 0 1 4-8.3 36.5 36.5 0 0 1 7.8-5.8l11.9-1.5c.1 0 .3 0 .4.2 1 1.2 2.1 7.8 2.4 9 1.2 1.2 2.7 2.5 3 2.5.2 0 14.4-1.2 15.7-.8 1.2.4 5.1 3.6 5.6 4 .1 0 .2.3.1.5l-.4.2-5.3-.1.8.7v.5c0 .2-.2.3-.4.2a151 151 0 0 0-10.8-1.2c-.6 0-2.6.5-4.6.8l-5.4.9ZM244.8 143.1l-2.3-.2a.4.4 0 0 1 0-.8l1.8.2a110.2 110.2 0 0 0-8.7-42.1l4.2-6a.4.4 0 1 1 .7.5l-4 5.8A111.5 111.5 0 0 1 245 143l-.2.1Z" fill="#000"/><path d="M260.6 144.2h-.2l-11.5-.7a.4.4 0 0 1-.4-.5s.2-4-.3-7v-.3c.2-.1.3-.2.4-.1l5.4.3-12.3-44a.4.4 0 0 1 .8-.2l12.5 44.6a.4.4 0 0 1-.4.5l-5.5-.4c.4 2.5.3 5.2.3 6.2l11 .7c.8 0 1.5-.2 2-.8.4-.6.5-1.3.3-2l-17.5-57c-.2-.7-.6-1-1.3-1.2-.6 0-1.1.2-1.5.7l-12.3 16.8a92.4 92.4 0 0 1 9.4 36.2h-.3l-6.6-.3a.4.4 0 0 1-.4-.5c0-14.2-5.3-26.3-6.6-29.2l-11.5 15.5c4 5.6 4.3 12.6 4.3 12.9l-.1.3h-.3l-8.1-.3a.4.4 0 0 1-.3-.7l3.6-3.5c-.6-1.5-1.7-3.3-2.2-4.2l-7.2 8.8c-.6.8-.7 1.8-.3 2.7.4 1 1.2 1.5 2.2 1.6l16.7 1.2a38.8 38.8 0 0 0-3.4-17.8v-.5l4.9-6c0-.1.2-.2.3-.1.2 0 .3 0 .4.2a51 51 0 0 1 4.2 24.7l11.2 1a.4.4 0 0 1 0 1l-11.7-1.2a.4.4 0 0 1-.4-.4 51 51 0 0 0-3.8-24.1l-4.2 5.2a40 40 0 0 1 3.2 18.8l-.3.1-17.2-1.3a3.4 3.4 0 0 1-3-2c-.5-1.3-.3-2.6.6-3.7l7.5-9.2.4-.1a28.3 28.3 0 0 1 3 5.3l-.1.5-3 3 6.5.2a25 25 0 0 0-4.3-12.1.4.4 0 0 1 0-.5l12.1-16.4a.4.4 0 0 1 .8 0c0 .2 6.8 13.7 7 30l5.6.3a90.2 90.2 0 0 0-9.5-35.7l12.5-17a2.4 2.4 0 0 1 4.3.7l17.5 57a3 3 0 0 1-3 4Z" fill="#000"/><path d="M259.2 121.6a.4.4 0 0 1-.2-.8L304 97h.1l7.7-1.7h.2l5.5 1.4.7-1.4-6.7-2.2a.4.4 0 0 1 0-.8l8.1-3.8-.4-1.7-7.7 2.8a.4.4 0 0 1-.5-.3l-.1-1.2.1-.3 6.1-5.7-1.1-1-8.2 6.1-.2.1-2.6.5-.3-.1a.4.4 0 0 1-.2-.4l.5-7-2-.2-1.7 9.8-.2.2-44 30.2c-.2.1-.5 0-.6-.1-.1-.2 0-.5.1-.6l43.9-30c.1-1.1 1.1-6.8 1.8-10 0-.2.3-.4.5-.4l2.7.4c.2 0 .4.2.3.4l-.4 6.8 2-.3 8.3-6.3h.6l1.8 1.6a.4.4 0 0 1 0 .6l-6.3 5.9v.3l7.6-2.8h.4l.2.3.5 2.6c0 .2 0 .4-.2.5l-7.5 3.4 6.1 2 .3.2v.4l-1 2.2c-.1.2-.3.3-.5.2l-5.8-1.5-7.6 1.6-45 23.8h-.1ZM246.9 155l-4-.3a.4.4 0 0 1-.3-.4l-.5-11.8a.4.4 0 0 1 .4-.4l2.3.2c.2 0 .3.2.4.3l2 12a.4.4 0 0 1-.3.4Zm-3.5-1.1 3 .2-2-11-1.4-.1.4 10.9ZM222.1 153l-3.6-.4-.3-.1v-.4l2.4-11.4c0-.2.2-.3.4-.3h1.8a.4.4 0 0 1 .4.4l-.7 11.7-.1.3-.3.1Zm-3-1.2 2.6.2.6-10.8h-1l-2.2 10.6ZM216.8 117.6l-.3-.1L179.1 88l-6-1.2-5.7.8a.4.4 0 0 1-.5-.3l-.5-1.8a.4.4 0 0 1 .3-.6l5.7-1.4.3-.7-7.3-2.4a.4.4 0 0 1-.3-.5l.6-1.8c0-.2.3-.4.5-.3l7.8 1.7-5-5.4a.4.4 0 0 1 0-.6l1.4-1.5h.6l6.6 5.6 1.9.5.3-6.3a.4.4 0 0 1 .5-.4l2.8.4c.2 0 .4.2.4.4l.3 4.3.2 4.6 34.3 34.2v.5l-1.2 1.6-.2.2h-.1Zm-43.7-31.7 6.3 1.3.2.1 37.1 29.3.7-1-34.1-34-.1-.3a139.3 139.3 0 0 1-.5-8.7l-2-.3-.4 6.4-.2.3h-.4l-2.4-.6-.2-.1-6.3-5.4-1 .9 5 5.2c.1.1.2.3.1.5l-.3.7c0 .2-.3.3-.5.3l-7.7-1.8-.3 1 7.3 2.5a.4.4 0 0 1 .3.5l-.5 1.4-.3.2-5.6 1.3.3 1 5.4-.7ZM297.6 122.3a.4.4 0 0 1-.4-.3l-2-7.2.1-.3.4-.2h4.9c.1 0 .3.1.3.3.1 0 .1.2 0 .4l-3 7c0 .2-.2.3-.3.3Zm-1.4-7.1 1.5 5.4 2.3-5.4h-3.8ZM317.8 116.3a.4.4 0 0 1-.4-.3l-1.4-4.5c0-.2 0-.5.2-.6l4-1.6a.4.4 0 0 1 .6.3l1.4 4.4c.1.3 0 .5-.2.6l-4 1.7h-.2Zm-.9-4.7 1.2 3.7 3.2-1.4-1.2-3.6-3.2 1.3ZM350.2 114l-4-.2-.3-.1-.1-.3.2-4.4-5 .8a.4.4 0 0 1-.6-.3l-1.6-6.7-6.1.6-.4-.1c0-.1-.1-.3 0-.4l.3-3.6c0-.2.2-.4.4-.4l8.2-.5c.2 0 .4.1.4.3l1.3 6.5 6.2-.5c.2 0 .4.1.4.4l1 8.4a.4.4 0 0 1-.3.4Zm-3.5-1h3l-1-7.4-6 .5a.4.4 0 0 1-.5-.3l-1.3-6.5-7.5.4-.3 2.8 6-.6c.2 0 .4.1.5.3l1.6 6.7 5.1-.9.4.1.1.4-.1 4.5ZM344 128c-.4 0-1.4-.1-2-.8a2 2 0 0 1-.5-1.7c.1-1 1.3-2 2.6-2s2.3 1.3 2.2 2.3c0 1.3-.8 2-2.2 2.1h-.2Zm0-3.6c-.8 0-1.6.6-1.6 1.2 0 .5 0 .8.2 1 .4.4 1 .5 1.4.5.9 0 1.4-.3 1.5-1.3 0-.6-.6-1.4-1.5-1.4ZM340.6 146.6h-.2a.4.4 0 0 1-.2-.3l-.9-4.7.1-.3.3-.2 4.4-.2c.2 0 .4 0 .4.3l1 3.7a.4.4 0 0 1-.3.5l-4.5 1.2h-.1Zm-.3-4.6.6 3.7 3.7-1-.8-3-3.5.3ZM361.1 109.7l-.4-.3-2.6-4.4v-.4c0-.2.3-.3.4-.2l9.1 1.4c.2 0 .4.2.4.3 0 .2 0 .4-.2.5l-6.5 3h-.2Zm-1.8-4.3 2 3.3 4.8-2.3-6.8-1ZM348.4 90.2a.4.4 0 0 1-.4-.3l-.5-3.9a.4.4 0 0 1 .4-.5h4.3l.3.1.2.3.1 3.5c0 .2-.1.4-.3.4l-4 .4Zm0-3.8.4 3 3.2-.4-.2-2.7h-3.4ZM335.3 83a.4.4 0 0 1-.4-.3l-2.4-9.3a.4.4 0 0 1 .7-.4l6 6.3c.2.1.2.2.2.3 0 .2 0 .3-.2.4l-3.6 2.9h-.3Zm-1.6-8.2 1.8 7 2.9-2.2-4.7-4.8ZM265.9 92.2h-.2a.4.4 0 0 1-.2-.3l-1.8-5.3c0-.2 0-.4.2-.5l4.6-3a.4.4 0 0 1 .6 0l2.7 4.4c.2.2.1.5 0 .6l-5.7 4h-.2Zm-1.2-5.6L266 91l4.8-3.4-2.3-3.6-4 2.6ZM254.3 79.4a.4.4 0 0 1-.4-.7l3.1-4.3.4-.2.4.2 2.4 4.3v.4l-.4.2h-5.5Zm3-4-2.2 3.1h4l-1.8-3ZM116.5 97.7c-.8 0-1.6-.4-2-1-.6-.6-.8-1.5-.6-2.2 0-.5.4-1.2 1.4-1.7 1.2-.6 2.4 0 3 .8.9 1 1 2.2.2 3a2.5 2.5 0 0 1-2 1Zm-.2-4.3-.6.1c-.6.3-.9.7-1 1.2-.1.5 0 1 .4 1.5.3.4.9.6 1.4.6.4 0 1-.1 1.3-.6.6-.7.3-1.5-.1-2-.3-.5-.9-.8-1.4-.8ZM137.2 107l-.4-.1-1.4-3v-.3l.3-.3 8-1.6.4-6.4a.4.4 0 0 1 .5-.4l6.7 1.3.3.3 1 2.8a.4.4 0 0 1-.5.5l-5-1-.3 6.2c0 .2-.2.3-.4.4l-9.1 1.7Zm-.8-3 1 2.2 8.6-1.6.3-6.3a.4.4 0 0 1 .5-.3l4.8.8-.7-1.8-6-1.2-.3 6.3c0 .2-.1.3-.3.4l-7.9 1.6ZM179.7 118h-.2a.4.4 0 0 1-.3-.3l-.9-4.4-4 .9a.4.4 0 0 1-.4-.4l-.7-6.5a195.3 195.3 0 0 0-2.8.4.4.4 0 0 1-.1-.3l-.2-6.6c0-.2.1-.4.4-.4l2.7-.3.4.1v3.5l2-.2a.4.4 0 0 1 .4.4l.6 6.4 4.6-.4c.2 0 .4.1.4.4l1.1 5.8c0 .2 0 .4-.2.5l-2.6 1.4h-.2Zm-1-5.6h.2l.2.3.9 4.3 1.8-1-1-5.2-4.6.3a.4.4 0 0 1-.5-.3l-.5-6.4-2 .2a.4.4 0 0 1-.5-.4l.1-3.2-1.9.2.2 5.6 2.4-.4c.5 0 .5 0 1.2 6.9l3.9-.9ZM160.2 102a.4.4 0 0 1-.4-.4l-1.2-9.2a.4.4 0 0 1 .6-.4l5 1.8c.1 0 .2 0 .2.2v.4l-3.8 7.4-.4.2Zm-.7-9 1 7.2 3-5.8-4-1.4ZM193.4 79.7c-1 0-2.2-.6-2.3-2.2 0-1 .3-1.5.7-1.8.5-.5 1.3-.7 2-.5 1.4.3 2 1.4 1.9 2.8-.2 1.1-1.3 1.7-2.3 1.7Zm-1.4-2.2c0 1.2 1 1.3 1.4 1.3.6 0 1.4-.3 1.4-.9.1-.5.1-1.6-1-1.9-.6 0-1.1 0-1.5.3-.2.3-.4.7-.3 1.2ZM200.7 85.8h-.2l-2.6-1.7a.4.4 0 0 1-.1-.7l4.2-3.6c.2-.1.4-.2.6 0l1.5 1 2.3-3.3c0-.2.3-.2.5-.1l1.5.6 1.6-3.2a.4.4 0 0 1 .5-.2l2.6 1.5a.4.4 0 0 1 .1.6l-3 5a.4.4 0 0 1-.5.2l-1.9-1-2.7 4a.4.4 0 0 1-.7.1l-1.6-1.7-1.8 2.4-.3.1Zm-2-2.1 1.9 1.1 1.8-2.4a.4.4 0 0 1 .7 0l1.6 1.6 2.6-4c.1-.2.4-.2.6-.1l1.8 1 2.6-4.3-1.8-1-1.5 3c-.1.3-.4.4-.6.3l-1.5-.6-2.4 3.4-.2.2h-.4l-1.6-1.2-3.5 3ZM120.3 85.9c-.2 0-.4-.1-.4-.3l-1.2-2.5c0-.2 0-.4.2-.5l4.7-2.4a.4.4 0 0 1 .5.3l1.3 3a.4.4 0 0 1-.2.6l-4.8 1.7h-.1Zm-.6-2.7.8 1.7 4-1.4-1-2.3-3.8 2ZM134.3 79.3a.4.4 0 0 1-.4-.4l-1.2-8.6a.4.4 0 0 1 .7-.4l5.1 3.2.2.2v.4l-4 5.4-.4.2Zm-.6-8.2.9 6.6 3-4.2-4-2.4ZM158.5 77.3l-.2-.1L154 74a.4.4 0 0 1 0-.8l6.2-2h.4l.2.4.7 4.2c0 .2 0 .4-.3.5l-2.6.8h-.2Zm-3.3-3.4 3.4 2.5 2.1-.7-.6-3.4-4.9 1.6ZM147.1 85l-.3-.2-5.1-6.3a.4.4 0 0 1 .5-.7L149 81a.4.4 0 0 1 .2.6l-1.8 3.2a.4.4 0 0 1-.4.3Zm-3.6-5.7 3.5 4.5 1.3-2.3-4.8-2.2ZM139 91.4l-4.7-.2a.4.4 0 0 1-.4-.4l-.1-2.9c0-.2.2-.4.4-.4l5-.2.3.1.1.4-.2 3.2c0 .2-.2.4-.4.4Zm-4.3-1 4 .1v-2.3l-4 .1v2ZM309.4 133.6h-.2L307 132a.4.4 0 0 1-.1-.6l2.7-4-1.2-1.4a.4.4 0 0 1 0-.5l2.4-3.8-2.8-4.7a.4.4 0 0 1 0-.5l1.9-1.9h.3l.3.1 4.5 7v.4l-2.5 3.5 1 1.5v.5l-3.7 5.8a.4.4 0 0 1-.4.2Zm-1.6-2 1.5 1 3.3-5.2-1-1.5v-.5l2.5-3.6-4-6.2-1.2 1.2 2.8 4.7v.5l-2.4 3.7 1.2 1.5v.5l-2.7 3.9ZM228.5 138.2l-5.7-.4a.4.4 0 0 1-.4-.4c0-.3.2-.4.4-.4l5.8.3a.4.4 0 0 1 0 .9ZM249 139.5h-.1l-4.3-.3a.4.4 0 0 1 .1-.8l4.3.2a.4.4 0 0 1 0 .9ZM315.4 184.3a.4.4 0 0 1 0-.8l5-1 5.3-38.2-62.7-4a.4.4 0 0 1-.4-.4c0-.2.2-.4.4-.4l63.2 4a.4.4 0 0 1 .4.5l-5.4 39-.3.3-5.4 1ZM265.5 194.2l-74.3-6.6a.4.4 0 0 1-.4-.4c0-.3.3-.5.5-.4l74.2 6.6 41.9-8.3c.2 0 .4 0 .5.3 0 .2-.1.5-.3.5l-42 8.3ZM183 186.9l-38.7-3.5a.4.4 0 1 1 0-.8L183 186a.4.4 0 0 1 0 .9ZM71 182.4l-12.6-1a.4.4 0 0 1-.4-.5c0-.2.3-.4.5-.4l12.6 1a.4.4 0 0 1 0 .9Z" fill="#000"/><path d="m142.3 188-45-3.5a.4.4 0 0 1-.3-.5c0-.2.2-.4.4-.4l44.7 3.6 26.3-60.8-6.5-4.4L38 119a.4.4 0 0 1-.4-.5c0-.2.2-.4.4-.4l124 3h.1l7 4.8c.1.1.2.3.1.5l-26.6 61.4-.4.2ZM27.8 179h-.1l-12.1-4.4a.4.4 0 0 1-.3-.5l21.2-52.7a.4.4 0 1 1 .8.3l-21 52.3L28 178a.4.4 0 0 1-.2.8Z" fill="#000"/><path d="M14.6 179.5a.4.4 0 0 1 0-.8c3.4-.7 11.5-1 11.9-1 .2-.1.4 0 .4.3s-.1.5-.4.5c0 0-8.4.3-11.8 1ZM51.4 152.2c-.4.3-1 .9-1.5 1.7l2.6-.3-1.1-1.4Z" fill="#000"/><path d="M50 154.3a.4.4 0 0 1-.4-.7c.6-.9 1.1-1.5 1.6-1.7h.5l1.1 1.5c.1 0 .2.3.1.4l-.4.3-2.5.2Zm1.3-1.5-.5.6.9-.1-.4-.5ZM80 154.7 82 156h-3l1.1-1.3Z" fill="#000"/><path d="M81.9 156.5h-3a.4.4 0 0 1-.4-.7l1.2-1.4c.2-.2.4-.2.6 0l1.9 1.3a.4.4 0 0 1-.3.8Zm-2.1-.9h.8l-.5-.4-.3.4ZM57.7 176.2l-1.7 1 .3-1.8 1.4.8Z" fill="#000"/><path d="M56 177.6h-.3a.4.4 0 0 1-.2-.5l.4-1.8.3-.3h.3l1.4.8a.4.4 0 0 1 .1.7 11.4 11.4 0 0 1-2 1.1Zm.6-1.6v.4l.3-.2-.3-.2ZM82.2 184.8H82L71.9 178a.4.4 0 1 1 .4-.7l10.2 6.7a.4.4 0 0 1-.3.8Z" fill="#000"/><path d="M72.8 178.6a.4.4 0 0 1 0-.9l3.6-.2c.2 0 .4.1.5.3 0 .3-.2.5-.4.5l-3.7.3ZM70.3 167l-1.5 2c0-.8-.2-1.6-.4-2.4l2 .4Z" fill="#000"/><path d="M68.8 169.4a.4.4 0 0 1-.4-.4c0-.7-.2-1.5-.4-2.3a.4.4 0 0 1 .5-.5l2 .4s.2 0 .2.2v.4l-1.5 2-.4.2Zm.2-2.3.1.8.5-.6-.6-.2ZM201.5 174l-1 1 2 .2c-.4-.7-.7-1.2-1-1.2Z" fill="#000"/><path d="m202.5 175.7-2.1-.3a.4.4 0 0 1-.3-.7l1.1-1h.3c.4 0 .8.3 1.3 1.4a.4.4 0 0 1-.3.6Zm-1.1-1h.3l-.2-.1h-.1ZM300.2 175.4l-1.7 1 3.7-.4c-.9-.4-1.7-.7-2-.6Z" fill="#000"/><path d="M298.5 176.8a.4.4 0 0 1-.2-.8l1.7-1c.4-.1 1.3 0 2.4.6.2 0 .3.3.2.5 0 .2-.2.3-.3.3l-3.7.4ZM222.8 140.8H221l-.2 1 2 .1v-1.1Z" fill="#000"/><path d="m222.7 142.3-2-.2-.2-.1-.1-.4.2-.9c0-.2.2-.3.4-.3h1.8a.4.4 0 0 1 .4.4v1.1a.4.4 0 0 1-.5.4Zm-1.4-1 1 .1v-.2h-1v.1ZM242.5 142.5l2.3.2.2 1.2-2.4-.1v-1.3Z" fill="#000"/><path d="m245 144.3-2.5-.1a.4.4 0 0 1-.4-.4v-1.3a.4.4 0 0 1 .4-.4l2.3.2c.2 0 .3.2.4.3l.2 1.2a.4.4 0 0 1-.4.5Zm-2-1 1.5.2-.1-.4-1.4-.1v.4ZM216.8 117.2l1.2-1.6-.6-.5-1.3 1.5.7.6Z" fill="#000"/><path d="M216.8 117.6h-.3l-.6-.6a.4.4 0 0 1-.1-.6l1.3-1.6.3-.2c.1 0 .3 0 .3.2l.6.5v.5l-1.2 1.6a.4.4 0 0 1-.3.2Z" fill="#000"/></svg>
