<svg width="369" height="276" viewBox="0 0 369 276" fill="none" xmlns="http://www.w3.org/2000/svg">
<path d="M77 255.5L327.5 212L306.835 58.5L2 21L77 255.5Z" fill="#FCA9CB"/>
<path d="M168.916 126.234L142.343 187.597L27.8088 178.507L15.7328 174.212L38.1156 118.537L161.997 121.547L168.916 126.234Z" fill="#EBB432"/>
<path d="M142.343 187.597L27.8088 178.507L15.7328 174.212L135.3 182.944L142.343 187.597Z" fill="#CE8D1B"/>
<path d="M113.85 190.7L108.247 188.713L112.043 187.268C112.043 187.268 100.745 185.732 99.8417 185.371C98.9379 185.01 91.8884 180.585 87.3696 179.32C82.8507 178.056 76.4338 177.875 76.4338 177.875C76.4338 177.875 88.5445 174.263 90.8039 172.095C95.4714 167.618 97.3111 163.606 97.3111 163.606C97.3111 158.277 92.1596 150.601 89.9001 149.968C87.6407 149.336 81.4046 153.491 80.049 154.665C78.6932 155.839 68.8421 168.934 68.8421 168.934C67.9383 161.98 62.5157 150.33 60.708 149.517C58.9006 148.704 53.0261 151.233 51.3992 152.226C49.7724 153.22 46.338 159.903 46.0669 161.167C45.7959 162.432 47.6937 168.121 49.411 170.379C51.1281 172.637 57.7257 176.159 57.7257 176.159C56.0085 177.604 44.2594 182.481 44.2594 182.481L47.4226 190.158C47.4226 190.158 55.0143 184.468 56.37 183.113C57.7257 181.759 60.4371 178.869 60.4371 178.869C64.7751 181.307 69.7459 180.314 69.7459 180.314C69.7459 180.314 70.8304 181.759 72.3667 183.384C73.9032 185.01 81.4045 192.416 81.4045 192.416L87.7311 188.893L82.2181 184.378C82.2181 184.378 88.906 185.552 89.5386 185.823C90.1713 186.094 97.1303 191.512 99.0283 191.964C100.926 192.415 109.331 194.312 109.331 194.312L107.162 191.512L113.85 190.7ZM53.8394 164.78L54.7431 156.471C54.7431 156.471 60.8016 167.694 62.6191 174.329C62.6191 174.329 58.8101 171.102 53.8394 164.78ZM72.0957 177.695L69.3794 175.699C69.3794 175.699 76.7952 167.038 78.6028 165.006C80.4103 162.974 84.8388 158.819 84.8388 158.819L87.6257 168.934C87.6257 168.934 76.7952 175.708 72.0957 177.695Z" fill="#E1557A"/>
<path d="M76.4336 159.023C73.1269 163.238 68.8419 168.934 68.8419 168.934C68.6416 167.393 68.2194 165.621 67.6637 163.788C67.6637 163.788 68.915 160.512 69.1986 159.945C69.4822 159.378 68.8204 154.749 68.6314 153.804C68.4423 152.859 68.5368 146.718 68.6314 146.151C68.7259 145.585 72.7913 140.861 73.0749 140.388C73.3585 139.916 76.762 124.706 77.0456 123.666C77.3292 122.627 80.0486 119.558 80.0486 119.558L88.1127 119.754C88.1127 119.754 82.6626 133.586 82.2177 135.192C81.7727 136.798 80.9219 142.278 80.8273 143.034C80.7328 143.79 77.1449 147.38 76.4334 148.136C76.4334 148.136 75.8165 150.755 75.709 151.435C75.6016 152.115 76.4336 159.023 76.4336 159.023Z" fill="#E1557A"/>
<path d="M326.138 143.914L320.788 182.868L265.533 193.785L144.33 183.019L159.853 147.175L163.758 138.151L186.926 135.141L326.138 143.914Z" fill="#EBB432"/>
<path d="M164.795 193.781C164.795 193.781 171.019 190.099 172.227 189.913C173.435 189.728 179.102 191.399 179.659 191.399C180.217 191.399 181.517 190.935 181.517 190.935C181.517 190.935 185.233 179.33 185.698 178.68C186.162 178.03 192.015 173.574 192.015 173.574C192.015 173.574 200.655 174.039 201.491 174.039C202.327 174.039 203.907 178.866 203.999 179.423C204.092 179.98 203.999 188.319 203.999 188.319L194.802 187.6L194.059 180.63C194.059 180.63 188.949 192.513 188.671 193.441C188.392 194.37 184.025 195.948 183.468 196.133C182.911 196.319 177.894 196.412 177.894 196.412L176.779 193.905L171.577 195.762L171.019 193.163L164.795 193.781Z" fill="#E1557A"/>
<path d="M326.138 143.914L266.818 156.324L159.852 147.175L163.758 138.151L186.925 135.141L326.138 143.914Z" fill="#CE8D1B"/>
<path d="M288.659 189.212C288.659 189.212 290.955 182.951 292.535 181.094C294.114 179.237 299.224 175.802 300.153 175.431L312.044 173.946C312.973 175.153 314.367 182.934 314.367 182.934C314.367 182.934 317.247 185.736 317.897 185.643C318.547 185.55 332.297 184.436 333.411 184.808C334.526 185.179 338.8 188.707 338.8 188.707L332.482 188.521L333.969 190.006C333.969 190.006 324.493 188.707 323.099 188.799C321.706 188.892 313.809 190.563 313.066 190.471C312.323 190.378 308.328 187.964 308.049 187.5C307.771 187.036 306.191 180.166 305.82 178.866C305.727 178.541 305.384 178.141 304.908 177.729C304.908 177.729 300.71 180.908 300.06 181.837C299.409 182.765 297.525 187.461 297.525 187.461" fill="#E1557A"/>
<path d="M211.05 125.303C211.05 125.303 212.944 128.171 213.691 130.351L209.902 134.021L217.995 134.365C217.995 134.365 217.766 127.139 213.576 121.518L225.686 105.171C225.686 105.171 232.543 118.744 232.651 135.227L239.184 135.655C239.184 135.655 238.327 115.105 229.544 99.7993L242.054 82.7115C243.036 81.3712 245.126 81.7234 245.614 83.3109L263.123 140.34C263.667 142.111 262.27 143.879 260.42 143.763L248.931 143.04C248.931 143.04 249.145 139.08 248.61 135.976L254.608 136.404L242.076 91.7718L235.971 100.441C235.971 100.441 244.754 119.065 244.754 142.719L228.366 141.221C228.366 141.221 229.866 127.521 224.189 116.282L219.369 122.276C219.369 122.276 223.225 129.447 222.796 140.793L205.662 139.518C203.181 139.334 201.935 136.434 203.511 134.509L211.05 125.303Z" fill="#AD6CAA"/>
<path d="M320.106 88.7842L319.55 86.2268L311.398 89.2311L311.316 88.117L317.769 82.1127L315.989 80.556L307.533 86.8939L304.973 87.3387L305.418 80.0001L302.748 79.6665C301.969 83.2246 300.856 89.7849 300.856 89.7849L256.857 119.932L257.508 122.05L304.194 97.3459L311.872 95.678L317.77 97.2348L318.771 95.0109L311.652 92.6839L320.106 88.7842Z" fill="#AD6CAA"/>
<path d="M242.508 142.514L242.995 154.29L246.859 154.621L244.754 142.719L242.508 142.514Z" fill="#AD6CAA"/>
<path d="M221.018 140.793L218.556 152.2L222.115 152.504L222.797 140.793H221.018Z" fill="#AD6CAA"/>
<path d="M183.595 81.3159C183.595 81.3159 183.381 77.677 183.381 76.4996C183.381 75.3223 183.059 72.2184 183.059 72.2184L180.275 71.7903L179.846 78.6402L177.422 77.9642L170.742 72.3255L169.252 73.7929L174.499 79.3175L174.223 80.0468L166.115 78.195L165.515 79.9957L173.265 82.5775L172.761 83.909L166.783 85.3315L167.317 87.1323L173.093 86.3699L179.311 87.6306L216.797 117.17L217.969 115.588L183.595 81.3159Z" fill="#AD6CAA"/>
<path d="M295.655 114.737L300.593 114.798L297.568 121.892L295.655 114.737Z" fill="#E1557A"/>
<path d="M317.816 115.909L316.396 111.344L320.347 109.74L321.828 114.181L317.816 115.909Z" fill="#F58452"/>
<path d="M332.631 102.955L339.174 102.338L340.841 109.37L346.397 108.445L346.211 113.38L350.162 113.503L349.113 105.114L342.569 105.669L341.211 98.8218L333.063 99.3153L332.631 102.955Z" fill="#E1557A"/>
<path d="M341.952 125.593C341.767 127.32 343.399 127.537 344.051 127.506C344.706 127.474 345.85 127.327 345.903 125.774C345.929 124.993 345.092 123.966 344.051 123.928C343.009 123.889 342.044 124.73 341.952 125.593Z" fill="#EBB432"/>
<path d="M339.767 141.568L344.119 141.278L345.113 145.005L340.596 146.206L339.767 141.568Z" fill="#E1557A"/>
<path d="M358.457 104.796L361.109 109.227L367.573 106.204L358.457 104.796Z" fill="#F58452"/>
<path d="M352.241 85.9129C352.241 86.0786 352.407 89.3913 352.407 89.3913L348.428 89.8054L347.89 85.9542L352.241 85.9129Z" fill="#EBB432"/>
<path d="M338.98 79.6185L335.292 82.5586L332.93 73.3242L338.98 79.6185Z" fill="#F58452"/>
<path d="M264.146 86.4359L265.857 91.7266L271.477 87.7383L268.708 83.4243L264.146 86.4359Z" fill="#F58452"/>
<path d="M254.29 78.9477L259.829 78.8664L257.386 74.6338L254.29 78.9477Z" fill="#E1557A"/>
<path d="M115.489 93.1571C113.876 93.9352 114.017 95.5659 114.787 96.489C115.515 97.3612 117.237 97.6385 118.172 96.4264C119.475 94.7354 117.307 92.2802 115.489 93.1571Z" fill="#E1557A"/>
<path d="M135.802 103.762L144.182 102.042L144.488 95.2739L151.184 96.6122L152.217 99.4034L146.707 98.3711L146.363 104.948L137.218 106.668L135.802 103.762Z" fill="#F58452"/>
<path d="M170.507 100.818L173.262 100.551L173.109 104.183L175.596 103.916L176.17 110.722L181.183 110.339L182.292 116.228L179.652 117.642L178.657 112.825L174.295 113.78C174.295 113.78 173.645 106.86 173.492 106.86C173.339 106.86 170.698 107.357 170.698 107.357L170.507 100.818Z" fill="#E1557A"/>
<path d="M159.028 92.3679L160.214 101.583L164.041 94.165L159.028 92.3679Z" fill="#EBB432"/>
<path d="M191.532 77.4969C191.708 79.883 195.052 79.582 195.263 77.9865C195.414 76.8391 194.962 75.8491 193.806 75.6165C192.691 75.3922 191.419 75.9699 191.532 77.4969Z" fill="#EBB432"/>
<path d="M198.082 83.7412L202.316 80.1068L204.18 81.4734L206.729 77.7464L208.594 78.4918L210.334 75.0134L212.872 76.4635L209.903 81.558L207.665 80.2535L204.744 84.7258L202.755 82.6139L200.703 85.409L198.082 83.7412Z" fill="#F58452"/>
<path d="M120.265 85.4424L119.134 82.9646L123.745 80.6174L125.05 83.7037L120.265 85.4424Z" fill="#F58452"/>
<path d="M133.14 70.2483L134.315 78.8549L138.273 73.4214L133.14 70.2483Z" fill="#E1557A"/>
<path d="M154.324 73.7498L160.457 71.7502L161.197 75.9666L158.544 76.836L154.324 73.7498Z" fill="#E1557A"/>
<path d="M147.103 84.5294L142.014 78.2266L148.887 81.3128L147.103 84.5294Z" fill="#F58452"/>
<path d="M139.187 87.7461L134.228 87.9199L134.315 90.7888L139.013 90.9627L139.187 87.7461Z" fill="#EBB432"/>
<path d="M311.352 121.742L308.754 125.743L310.161 127.474L307.239 131.691L309.404 133.206L313.084 127.365L312.001 125.635L314.599 121.85L310.161 114.928L308.322 116.767L311.352 121.742Z" fill="#EBB432"/>
<path d="M56.336 175.385C56.336 175.385 48.0706 175.125 46.6406 175.244C45.2107 175.363 36.8667 179.226 36.8662 179.226C36.8662 179.226 22.1199 181.262 21.0021 181.068C20.4414 180.971 17.5336 180.018 14.6452 179.068C18.1277 178.397 26.5105 178.045 26.5105 178.045L27.8104 178.507L15.7299 174.21L17.5659 169.644C17.5659 169.644 9.55407 170.65 6.93318 171.463C4.31228 172.276 0.877849 173.63 0.425903 174.534C0.425903 174.534 0.516348 180.133 1.69122 184.739C1.69122 184.739 4.13149 185.1 6.21017 185.371C8.28884 185.642 14.8864 187.81 16.242 188.261C17.5977 188.713 20.1283 189.616 21.8454 189.797C23.5626 189.977 27.4488 189.616 29.4371 189.164C31.4255 188.713 36.9386 185.733 38.2941 185.191C39.6499 184.649 44.6297 183.381 44.6297 183.381L44.2591 182.481L49.514 180.231C52.8813 178.75 56.7905 176.946 57.7254 176.159C57.7254 176.159 57.1685 175.862 56.336 175.385Z" fill="#E1557A"/>
<path d="M159.853 147.175L154.517 183.924L144.33 183.019L159.853 147.175Z" fill="#CE8D1B"/>
<path d="M109.331 194.738C109.3 194.738 109.269 194.735 109.237 194.728C109.153 194.709 100.808 192.825 98.9291 192.379C97.6447 192.073 94.6171 189.945 91.3623 187.603C90.4674 186.959 89.5418 186.293 89.3694 186.214C89.2587 186.166 88.6278 185.986 85.1898 185.348C84.9584 185.305 84.8061 185.083 84.8494 184.851C84.8918 184.62 85.1124 184.466 85.3463 184.51C89.2471 185.235 89.5809 185.378 89.7066 185.432C89.9355 185.53 90.5324 185.956 91.8608 186.912C94.1192 188.538 97.8993 191.258 99.1271 191.55C100.576 191.894 105.893 193.099 108.267 193.635L106.825 191.774C106.73 191.652 106.71 191.49 106.769 191.349C106.827 191.208 106.958 191.109 107.11 191.09L112 190.496L108.104 189.115C107.936 189.055 107.823 188.897 107.82 188.718C107.818 188.54 107.928 188.379 108.095 188.315L110.333 187.463C107.089 187.012 100.422 186.063 99.6833 185.767C99.4377 185.669 98.9008 185.367 97.8927 184.797C95.3347 183.351 90.5741 180.659 87.2543 179.731C82.8399 178.495 76.4851 178.303 76.4219 178.301C76.2121 178.295 76.0381 178.138 76.0107 177.931C75.9841 177.723 76.1114 177.527 76.312 177.467C76.4319 177.431 88.3489 173.86 90.5082 171.788C94.7029 167.765 96.5958 164.098 96.8838 163.51C96.8239 158.275 91.8326 150.951 89.7849 150.379C87.892 149.847 81.9567 153.577 80.3277 154.987C79.2821 155.892 72.5803 164.673 69.1823 169.19C69.0791 169.329 68.9009 169.392 68.7336 169.346C68.5654 169.302 68.4414 169.161 68.419 168.989C67.49 161.843 62.0701 150.597 60.5334 149.906C59.0308 149.231 53.5044 151.44 51.6214 152.59C50.123 153.505 46.7317 160.098 46.4837 161.257C46.2506 162.347 48.062 167.902 49.7501 170.122C51.3908 172.28 57.8613 175.749 57.9262 175.784C58.0511 175.851 58.1343 175.975 58.1493 176.115C58.1643 176.256 58.1085 176.394 58.0003 176.485C56.4128 177.821 46.909 181.835 44.8146 182.711L47.6065 189.487C49.2431 188.254 54.9361 183.944 56.0682 182.813C57.4043 181.478 60.0988 178.607 60.1255 178.578C60.2603 178.434 60.4734 178.401 60.6458 178.498C64.788 180.826 69.6136 179.906 69.6627 179.896C69.8225 179.866 69.989 179.928 70.0872 180.058C70.0971 180.073 71.1768 181.505 72.676 183.092C74.0395 184.535 80.2095 190.636 81.4772 191.888L86.9763 188.826L81.9476 184.708C81.7661 184.558 81.7395 184.29 81.8885 184.108C82.0367 183.926 82.3056 183.9 82.4887 184.049L88.0019 188.564C88.1109 188.654 88.1684 188.792 88.1559 188.932C88.1435 189.072 88.0618 189.198 87.9387 189.266L81.6122 192.788C81.4466 192.88 81.2401 192.852 81.1053 192.719C81.0303 192.645 73.581 185.29 72.0568 183.677C70.8448 182.394 69.9216 181.237 69.5645 180.777C68.4799 180.947 64.3444 181.41 60.5227 179.4C59.8418 180.124 57.7882 182.3 56.671 183.415C55.31 184.776 47.9896 190.266 47.6783 190.499C47.5742 190.579 47.4386 190.604 47.3096 190.569C47.1831 190.534 47.079 190.443 47.0291 190.321L43.8659 182.644C43.7759 182.427 43.8792 182.179 44.0964 182.088C47.7616 180.567 54.675 177.575 56.9166 176.203C55.2218 175.262 50.5302 172.555 49.071 170.638C47.2713 168.27 45.3442 162.508 45.6497 161.079C45.9502 159.68 49.4281 152.932 51.177 151.863C52.7362 150.911 58.8129 148.196 60.8831 149.129C62.9084 150.04 67.8739 160.94 69.1083 167.873C71.2959 164.977 78.5789 155.374 79.7701 154.343C80.903 153.362 87.4184 148.831 90.0148 149.559C92.567 150.273 97.7372 158.257 97.7372 163.606C97.7372 163.667 97.724 163.728 97.6981 163.784C97.6223 163.951 95.7711 167.921 91.0995 172.403C89.3855 174.047 82.4713 176.41 78.8212 177.579C81.1153 177.746 84.644 178.116 87.4842 178.911C90.9038 179.867 95.7236 182.592 98.3124 184.056C99.1416 184.525 99.7967 184.895 99.9998 184.976C100.623 185.225 107.752 186.256 112.1 186.846C112.293 186.872 112.444 187.026 112.466 187.22C112.488 187.413 112.376 187.597 112.194 187.666L109.481 188.699L113.993 190.299C114.179 190.365 114.296 190.551 114.274 190.747C114.253 190.944 114.099 191.099 113.902 191.123L107.959 191.845L109.669 194.052C109.778 194.194 109.788 194.39 109.691 194.541C109.612 194.666 109.474 194.738 109.331 194.738ZM72.0958 178.121C72.0068 178.121 71.9177 178.092 71.8436 178.038L69.1274 176.043C69.0317 175.972 68.9701 175.866 68.9559 175.748C68.9426 175.63 68.9784 175.513 69.0558 175.422C69.1299 175.336 76.4944 166.734 78.2841 164.723C79.3746 163.497 81.3924 161.523 82.8924 160.082C83.0631 159.92 83.3328 159.924 83.4951 160.094C83.6582 160.264 83.6532 160.534 83.4834 160.696C81.9934 162.126 79.993 164.084 78.9217 165.289C77.3433 167.062 71.4057 173.989 70.0014 175.628L72.1516 177.207C76.4519 175.329 85.458 169.779 87.1303 168.741L84.4274 158.932C84.365 158.706 84.4982 158.471 84.7254 158.409C84.956 158.348 85.1866 158.479 85.2498 158.706L88.0368 168.821C88.0867 169.002 88.0109 169.195 87.852 169.295C87.4083 169.573 76.938 176.11 72.2622 178.087C72.2081 178.109 72.1524 178.121 72.0958 178.121ZM62.6195 174.755C62.5213 174.755 62.423 174.721 62.344 174.654C62.3057 174.621 58.4449 171.326 53.5036 165.043C53.4353 164.956 53.4037 164.844 53.4154 164.734L54.3193 156.425C54.3393 156.24 54.4783 156.089 54.6615 156.053C54.8488 156.016 55.0302 156.106 55.1185 156.269C55.1792 156.382 61.221 167.611 63.0307 174.217C63.0798 174.397 63.0057 174.588 62.8483 174.688C62.7784 174.733 62.6986 174.755 62.6195 174.755ZM54.2819 164.653C57.5326 168.772 60.2912 171.567 61.7604 172.965C60.0498 167.776 56.4811 160.715 55.0161 157.902L54.2819 164.653Z" fill="black"/>
<path d="M69.7452 180.74C69.5254 180.74 69.3389 180.571 69.3215 180.348L68.4657 169.583C62.6537 172.501 60.8665 178.913 60.8482 178.98C60.7874 179.207 60.5527 179.341 60.3263 179.28C60.099 179.219 59.9642 178.985 60.0258 178.758C60.1049 178.463 62.052 171.484 68.6689 168.545C68.7937 168.489 68.9394 168.497 69.0601 168.568C69.1791 168.639 69.2557 168.763 69.2666 168.901L70.1705 180.28C70.1897 180.515 70.014 180.72 69.7801 180.739C69.7685 180.739 69.7569 180.74 69.7452 180.74Z" fill="black"/>
<path d="M84.8386 159.245C84.7121 159.245 84.5856 159.188 84.5015 159.08C83.1197 157.3 79.8407 155.038 79.8075 155.016C79.6136 154.883 79.5644 154.617 79.6976 154.424C79.8316 154.23 80.0964 154.181 80.2903 154.314C80.4293 154.409 83.7116 156.672 85.1758 158.558C85.3197 158.744 85.2856 159.011 85.1 159.155C85.0226 159.216 84.9302 159.245 84.8386 159.245Z" fill="black"/>
<path d="M87.6257 171.16C87.3901 171.16 87.1995 170.969 87.1995 170.734V168.934C87.1995 168.699 87.3901 168.508 87.6257 168.508C87.8613 168.508 88.0519 168.699 88.0519 168.934V170.734C88.0519 170.969 87.8613 171.16 87.6257 171.16Z" fill="black"/>
<path d="M54.743 156.897C54.6172 156.897 54.4924 156.842 54.4083 156.735L51.0644 152.49C50.9187 152.305 50.9504 152.037 51.1352 151.892C51.3191 151.747 51.5872 151.777 51.7336 151.963L55.0775 156.208C55.2232 156.393 55.1916 156.661 55.0068 156.806C54.9285 156.867 54.8354 156.897 54.743 156.897Z" fill="black"/>
<path d="M57.7256 176.585C57.5533 176.585 57.3901 176.48 57.326 176.309C57.2436 176.088 57.356 175.843 57.5765 175.761L62.4703 173.93C62.6885 173.85 62.9365 173.96 63.0189 174.18C63.1014 174.4 62.9889 174.646 62.7684 174.728L57.8746 176.558C57.8255 176.577 57.7755 176.585 57.7256 176.585Z" fill="black"/>
<path d="M72.8051 178.578C72.5704 178.578 72.3748 178.388 72.3748 178.152C72.3748 177.917 72.5613 177.726 72.7968 177.726H72.8051C73.0407 177.726 73.2313 177.917 73.2313 178.152C73.2313 178.388 73.0407 178.578 72.8051 178.578Z" fill="black"/>
<path d="M75.0673 177.979L72.7882 178.152L74.7862 179.471L75.0673 177.979Z" fill="black"/>
<path d="M74.7863 179.897C74.7038 179.897 74.6223 179.873 74.5515 179.826L72.5536 178.507C72.4013 178.407 72.3297 178.221 72.3755 178.045C72.4213 177.869 72.5744 177.741 72.7559 177.727L75.0351 177.554C75.1675 177.546 75.2964 177.596 75.3847 177.695C75.4738 177.794 75.5112 177.928 75.4863 178.058L75.2049 179.55C75.1783 179.69 75.0833 179.807 74.9526 179.863C74.8985 179.886 74.8429 179.897 74.7863 179.897ZM74.0621 178.482L74.4866 178.762L74.5456 178.446L74.0621 178.482Z" fill="black"/>
<path d="M27.8104 178.933C27.7629 178.933 27.7147 178.925 27.6672 178.909L15.587 174.612C15.478 174.573 15.3889 174.491 15.3414 174.386C15.2939 174.28 15.2915 174.159 15.3348 174.052L17.1702 169.485C17.2576 169.267 17.5049 169.162 17.7247 169.249C17.9428 169.337 18.0493 169.585 17.961 169.803L16.2912 173.958L27.9534 178.106C28.1749 178.185 28.2906 178.429 28.2115 178.65C28.1498 178.825 27.9852 178.933 27.8104 178.933Z" fill="black"/>
<path d="M36.8666 179.652C36.7867 179.652 36.7077 179.63 36.6385 179.585C36.5154 179.508 36.4404 179.372 36.4404 179.226C36.4404 178.998 37.9763 178.219 41.0479 176.889C45.6421 174.9 46.3671 174.839 46.6052 174.82C47.4901 174.745 50.8323 174.811 53.4828 174.878C53.7184 174.885 53.9039 175.08 53.8981 175.315C53.8923 175.551 53.6817 175.742 53.4611 175.73C49.7443 175.636 47.3353 175.615 46.6768 175.668C45.5722 175.761 39.2324 178.591 37.0481 179.612C36.9907 179.639 36.9283 179.652 36.8666 179.652Z" fill="black"/>
<path d="M22.9634 190.27C22.5222 190.27 22.1269 190.255 21.8005 190.22C20.2222 190.055 18.0338 189.315 16.5853 188.826L16.1075 188.665C15.3126 188.401 8.28107 186.071 6.155 185.793C4.07308 185.522 1.62906 185.16 1.62906 185.16C1.45926 185.135 1.32109 185.011 1.27864 184.844C0.104113 180.243 0.000886786 174.597 3.43797e-05 174.54C-0.000818027 174.472 0.0141811 174.404 0.044953 174.343C0.715882 173.003 5.79537 171.37 6.80675 171.056C8.66892 170.479 13.1598 169.813 15.6713 169.467C15.8968 169.432 16.1191 169.596 16.1516 169.83C16.1841 170.063 16.0209 170.278 15.7878 170.31C13.3022 170.653 8.86284 171.311 7.05975 171.87C3.98478 172.824 1.33098 174.018 0.854827 174.649C0.876478 175.47 1.0421 180.283 2.036 184.359C2.73609 184.462 4.61402 184.734 6.26471 184.949C8.47065 185.237 15.5746 187.59 16.3771 187.858L16.8582 188.019C18.2709 188.496 20.406 189.217 21.8903 189.373C23.59 189.553 27.4767 189.173 29.3422 188.749C30.6291 188.458 33.5576 187.012 35.6961 185.957C36.8016 185.411 37.6748 184.98 38.1359 184.795C39.2664 184.344 42.7625 183.424 44.0495 183.091L43.8655 182.644C43.7765 182.428 43.8772 182.182 44.0911 182.09L49.3462 179.839C53.1062 178.186 55.7326 176.923 56.9155 176.202C56.6973 176.08 56.4293 175.929 56.1238 175.754C55.9198 175.637 55.8491 175.377 55.9665 175.173C56.0839 174.967 56.3452 174.898 56.5483 175.015C57.3716 175.488 57.9235 175.782 57.926 175.784C58.0509 175.851 58.1341 175.975 58.1491 176.115C58.1641 176.256 58.1082 176.395 58.0001 176.485C57.2067 177.153 54.4098 178.544 49.6858 180.62L44.8136 182.708L45.0234 183.219C45.0709 183.333 45.0658 183.462 45.0109 183.572C44.9552 183.682 44.8544 183.763 44.7346 183.793C44.6855 183.806 39.7667 185.061 38.4522 185.586C38.0227 185.758 37.1195 186.204 36.0732 186.72C33.7757 187.854 30.9163 189.266 29.5311 189.58C27.9179 189.947 24.9704 190.27 22.9634 190.27Z" fill="black"/>
<path d="M21.2011 181.503C21.0804 181.503 20.9888 181.498 20.9289 181.488C20.3537 181.388 17.8514 180.571 14.098 179.337C11.4892 178.479 8.79122 177.591 8.33425 177.504C7.33787 177.315 2.09438 176.641 2.04196 176.634C1.80805 176.604 1.6432 176.39 1.6732 176.157C1.70235 175.924 1.91708 175.761 2.15021 175.789C2.36749 175.817 7.47272 176.473 8.49416 176.667C8.97116 176.758 11.0306 177.431 14.3653 178.528C17.2497 179.477 20.5186 180.552 21.0755 180.649C21.853 180.786 31.1337 179.588 36.8084 178.805C37.0339 178.768 37.2562 178.934 37.2887 179.168C37.3212 179.401 37.158 179.616 36.9249 179.648C35.4873 179.847 23.4245 181.503 21.2011 181.503Z" fill="black"/>
<path d="M68.8418 169.36C68.7519 169.36 68.6628 169.332 68.5854 169.275C68.3973 169.134 68.3599 168.867 68.5014 168.679C68.5438 168.622 72.7326 163.056 75.9891 158.899C75.8126 157.419 75.1824 152.042 75.2881 151.369C75.3972 150.681 75.9932 148.146 76.019 148.038C76.0356 147.965 76.0723 147.898 76.1231 147.844C76.2305 147.729 76.4036 147.551 76.62 147.327C79.0382 144.83 80.3119 143.364 80.4067 142.972C80.4883 142.315 81.3449 136.745 81.8078 135.079C82.2065 133.638 86.4502 122.817 87.4932 120.165L80.2378 119.989C79.2039 121.169 77.6364 123.12 77.4575 123.778C77.3643 124.12 76.8948 126.163 76.352 128.528C74.2668 137.611 73.6133 140.32 73.4402 140.608C73.3312 140.789 72.8958 141.323 72.0717 142.33C71.0645 143.559 69.1898 145.848 69.0449 146.251C68.9576 146.789 68.8818 152.883 69.0491 153.721C69.0599 153.774 70.0039 159.289 69.5802 160.136C69.5227 160.25 69.3795 160.576 69.02 161.479C68.9326 161.697 68.6845 161.805 68.4664 161.717C68.2475 161.63 68.141 161.383 68.2275 161.164C68.5297 160.406 68.7228 159.945 68.8177 159.755C68.9908 159.233 68.4614 155.121 68.2133 153.888C68.011 152.877 68.1176 146.644 68.2109 146.082C68.2741 145.703 68.9625 144.78 71.4124 141.79C72.0093 141.06 72.6269 140.306 72.7093 140.17C72.9149 139.688 74.5465 132.582 75.5213 128.337C76.089 125.865 76.5368 123.913 76.635 123.554C76.9355 122.451 79.4445 119.597 79.73 119.275C79.8133 119.181 79.9389 119.131 80.0588 119.132L88.1226 119.328C88.2624 119.331 88.3906 119.402 88.468 119.518C88.5446 119.634 88.5604 119.78 88.5089 119.91C88.4547 120.048 83.0623 133.74 82.6286 135.306C82.2033 136.843 81.3533 142.267 81.251 143.086C81.1785 143.665 80.1272 144.93 77.2328 147.919C77.0663 148.091 76.9265 148.236 76.8225 148.345C76.7042 148.851 76.2214 150.923 76.1307 151.502C76.0691 151.925 76.4587 155.667 76.8566 158.972C76.8708 159.084 76.8392 159.196 76.7693 159.285C73.5036 163.449 69.2258 169.133 69.1825 169.19C69.0992 169.302 68.9709 169.36 68.8418 169.36Z" fill="black"/>
<path d="M135.304 183.449C135.294 183.449 135.283 183.448 135.272 183.448L92.4396 180.291C92.2049 180.274 92.0293 180.069 92.0459 179.835C92.0634 179.6 92.2615 179.422 92.5029 179.441L135.033 182.576L161.606 121.378C161.7 121.162 161.948 121.062 162.167 121.157C162.383 121.25 162.482 121.501 162.389 121.717L135.695 183.193C135.627 183.349 135.473 183.449 135.304 183.449Z" fill="black"/>
<path d="M43.6275 176.692C43.6167 176.692 43.6058 176.692 43.595 176.691L15.6986 174.635C15.4639 174.618 15.2883 174.414 15.3049 174.179C15.3224 173.944 15.5205 173.765 15.7619 173.786L43.6583 175.842C43.893 175.859 44.0686 176.063 44.052 176.298C44.0354 176.522 43.848 176.692 43.6275 176.692Z" fill="black"/>
<path d="M142.346 188.026C142.266 188.026 142.185 188.004 142.114 187.957L135.071 183.38C134.874 183.252 134.818 182.988 134.947 182.791C135.076 182.594 135.341 182.538 135.536 182.666L142.578 187.243C142.776 187.371 142.831 187.635 142.703 187.832C142.622 187.958 142.485 188.026 142.346 188.026Z" fill="black"/>
<path d="M165.837 138.305C165.626 138.305 165.443 138.148 165.415 137.934C165.385 137.701 165.55 137.487 165.783 137.457L186.873 134.718L200.439 135.565C200.674 135.58 200.853 135.782 200.838 136.016C200.824 136.251 200.647 136.424 200.386 136.415L186.902 135.565L165.893 138.301C165.874 138.304 165.855 138.305 165.837 138.305Z" fill="black"/>
<path d="M266.815 156.754C266.802 156.754 266.791 156.753 266.778 156.752L159.814 147.602C159.58 147.582 159.406 147.376 159.426 147.142C159.446 146.907 159.659 146.731 159.887 146.753L266.789 155.898L326.053 143.498C326.278 143.45 326.51 143.597 326.557 143.827C326.606 144.058 326.458 144.283 326.228 144.332L266.902 156.745C266.873 156.751 266.844 156.754 266.815 156.754Z" fill="black"/>
<path d="M187.777 149.993C187.553 149.993 187.365 149.818 187.352 149.592L186.503 135.165C186.489 134.93 186.668 134.728 186.903 134.715C187.13 134.706 187.339 134.88 187.354 135.115L188.203 149.542C188.217 149.776 188.037 149.978 187.802 149.992C187.794 149.992 187.786 149.993 187.777 149.993Z" fill="black"/>
<path d="M265.53 194.207C265.525 194.207 265.52 194.207 265.515 194.207C265.28 194.199 265.096 194.002 265.103 193.767L266.389 156.313C266.397 156.079 266.623 155.896 266.83 155.902C267.065 155.91 267.249 156.107 267.241 156.342L265.956 193.796C265.948 194.026 265.759 194.207 265.53 194.207Z" fill="black"/>
<path d="M185.34 195.849C185.173 195.849 185.014 195.749 184.946 195.585C184.856 195.368 184.961 195.118 185.178 195.029C188.036 193.853 188.255 193.339 188.263 193.318C188.545 192.379 193.458 180.948 193.668 180.462C193.743 180.285 193.931 180.182 194.122 180.209C194.315 180.238 194.462 180.393 194.483 180.585L195.189 187.203L203.579 187.86C203.612 184.652 203.639 179.89 203.579 179.492C203.457 178.762 202.032 174.759 201.429 174.454C201.193 174.454 201.034 174.269 201.034 174.034C201.034 173.798 201.255 173.613 201.491 173.613C202.878 173.613 204.41 179.296 204.42 179.353C204.514 179.919 204.442 186.926 204.426 188.324C204.424 188.443 204.374 188.554 204.288 188.634C204.2 188.713 204.081 188.753 203.966 188.745L194.769 188.025C194.564 188.008 194.4 187.849 194.379 187.645L193.808 182.295C191.971 186.58 189.27 192.928 189.079 193.564C188.999 193.831 188.81 194.456 185.502 195.817C185.449 195.838 185.394 195.849 185.34 195.849Z" fill="black"/>
<path d="M177.894 196.838C177.726 196.838 177.573 196.739 177.505 196.585L176.551 194.44L171.72 196.163C171.604 196.204 171.477 196.194 171.37 196.134C171.262 196.075 171.186 195.971 171.16 195.852L170.682 193.624L164.838 194.205C164.635 194.22 164.452 194.104 164.39 193.914C164.328 193.724 164.406 193.516 164.578 193.415C165.222 193.033 170.909 189.686 172.162 189.493C172.968 189.372 175.158 189.888 177.726 190.527C178.553 190.733 179.488 190.966 179.662 190.973C179.967 190.973 180.683 190.768 181.177 190.602C181.927 188.261 184.887 179.083 185.351 178.433C185.829 177.765 190.771 173.987 191.758 173.236C191.838 173.175 191.931 173.144 192.038 173.149C192.039 173.149 195.692 173.346 198.477 173.483C198.712 173.495 198.893 173.695 198.881 173.929C198.871 174.164 198.67 174.344 198.435 174.334C195.99 174.213 192.876 174.047 192.15 174.009C189.369 176.128 186.318 178.546 186.045 178.928C185.703 179.464 183.335 186.657 181.924 191.065C181.883 191.191 181.786 191.292 181.661 191.336C181.521 191.386 180.273 191.825 179.659 191.825C179.434 191.825 178.894 191.696 177.521 191.354C175.827 190.933 172.995 190.226 172.292 190.335C171.645 190.434 168.976 191.87 166.709 193.163L170.977 192.739C171.203 192.716 171.391 192.862 171.436 193.074L171.892 195.198L176.636 193.505C176.848 193.428 177.079 193.53 177.169 193.733L178.169 195.981C180.505 195.934 183.01 195.83 183.334 195.729C183.559 195.662 183.8 195.784 183.869 196.005C183.941 196.227 183.825 196.464 183.603 196.538C183.029 196.729 179.095 196.816 177.902 196.838H177.894Z" fill="black"/>
<path d="M194.059 181.056C193.942 181.056 193.824 181.008 193.74 180.913C193.584 180.737 193.6 180.468 193.776 180.312L201.208 173.72C201.384 173.564 201.653 173.58 201.81 173.756C201.966 173.932 201.95 174.201 201.774 174.357L194.342 180.949C194.261 181.021 194.16 181.056 194.059 181.056Z" fill="black"/>
<path d="M304.908 178.155C304.809 178.155 304.71 178.121 304.63 178.051C303.143 176.765 300.741 175.677 300.31 175.827C300.092 175.898 299.843 175.791 299.764 175.573C299.684 175.357 299.781 175.121 299.995 175.036C301.03 174.625 303.947 176.334 305.187 177.407C305.366 177.561 305.385 177.83 305.231 178.007C305.147 178.105 305.027 178.155 304.908 178.155Z" fill="black"/>
<path d="M313.131 190.9C313.085 190.9 313.045 190.898 313.014 190.893C312.183 190.789 308.049 188.327 307.684 187.719C307.502 187.417 307.089 185.794 306.172 182.028C305.834 180.644 305.543 179.449 305.41 178.983C305.385 178.897 305.286 178.672 304.884 178.283C303.574 179.286 300.875 181.417 300.408 182.081C299.899 182.81 298.44 186.326 297.921 187.62C297.833 187.838 297.581 187.945 297.368 187.856C297.149 187.769 297.043 187.521 297.13 187.303C297.208 187.109 299.04 182.55 299.711 181.593C300.381 180.637 304.216 177.719 304.651 177.389C304.81 177.268 305.035 177.275 305.187 177.407C305.776 177.916 306.117 178.355 306.23 178.749C306.368 179.231 306.661 180.434 307 181.826C307.497 183.866 308.248 186.948 308.42 187.289C308.78 187.744 312.568 189.979 313.12 190.048C313.482 190.084 316.274 189.564 318.306 189.184C320.414 188.791 322.405 188.419 323.071 188.374C324.182 188.304 330.137 189.065 332.775 189.416L332.181 188.822C332.058 188.699 332.022 188.512 332.091 188.352C332.16 188.192 332.346 188.098 332.495 188.095L337.555 188.244C335.918 186.935 333.905 185.421 333.277 185.211C332.279 184.898 318.753 185.951 317.957 186.065C317.247 186.165 315.451 184.583 314.069 183.24C314.005 183.178 313.963 183.097 313.947 183.009C313.428 180.112 312.468 175.624 311.827 174.402L300.264 175.846C299.308 176.275 294.376 179.588 292.859 181.37C291.347 183.148 289.082 189.297 289.06 189.359C288.979 189.58 288.732 189.694 288.513 189.612C288.291 189.531 288.178 189.287 288.259 189.066C288.354 188.807 290.6 182.711 292.21 180.819C293.823 178.922 298.937 175.458 299.995 175.036C300.028 175.022 300.064 175.013 300.099 175.009L311.991 173.523C312.138 173.505 312.29 173.567 312.382 173.686C313.305 174.886 314.532 181.46 314.762 182.724C315.986 183.904 317.5 185.166 317.875 185.22C317.963 185.203 332.238 183.967 333.546 184.404C334.703 184.789 338.627 188.012 339.071 188.379C339.212 188.494 339.263 188.686 339.198 188.857C339.134 189.027 338.975 189.135 338.787 189.133L333.543 188.978L334.27 189.705C334.4 189.834 334.431 190.032 334.35 190.195C334.269 190.36 334.097 190.45 333.91 190.428C331.286 190.068 324.224 189.156 323.128 189.225C322.512 189.265 320.453 189.65 318.462 190.022C315.335 190.605 313.696 190.9 313.131 190.9Z" fill="black"/>
<path d="M244.754 143.145C244.741 143.145 244.728 143.145 244.715 143.143L242.469 142.938C242.235 142.916 242.062 142.709 242.084 142.475C242.105 142.24 242.325 142.066 242.547 142.09L244.327 142.253C244.212 119.192 235.672 100.807 235.586 100.623C235.52 100.484 235.534 100.322 235.622 100.196L239.82 94.235C239.956 94.0424 240.221 93.9955 240.414 94.1319C240.607 94.267 240.653 94.5328 240.518 94.725L236.46 100.487C237.451 102.696 245.18 120.635 245.18 142.719C245.18 142.839 245.129 142.953 245.041 143.034C244.962 143.106 244.86 143.145 244.754 143.145Z" fill="black"/>
<path d="M260.587 144.195C260.522 144.195 260.458 144.193 260.394 144.188L248.904 143.466C248.67 143.451 248.493 143.251 248.506 143.018C248.507 142.979 248.711 139.068 248.189 136.049C248.168 135.92 248.206 135.788 248.293 135.691C248.381 135.594 248.505 135.539 248.64 135.552L254.034 135.937L241.665 91.8873C241.602 91.6606 241.734 91.4256 241.961 91.362C242.187 91.3004 242.424 91.4307 242.486 91.6569L255.018 136.289C255.056 136.423 255.026 136.566 254.938 136.674C254.85 136.781 254.713 136.839 254.578 136.829L249.114 136.44C249.464 138.874 249.411 141.608 249.374 142.642L260.447 143.338C261.192 143.383 261.875 143.078 262.335 142.496C262.794 141.914 262.933 141.173 262.715 140.465L245.207 83.4362C245.026 82.8481 244.556 82.4359 243.949 82.3336C243.344 82.2313 242.763 82.4663 242.398 82.9634L230.051 99.8284C238.658 115.024 239.601 135.432 239.61 135.638C239.615 135.759 239.569 135.876 239.482 135.96C239.395 136.045 239.277 136.085 239.157 136.081L232.623 135.653C232.4 135.638 232.226 135.454 232.224 135.23C232.132 121.017 226.926 108.851 225.606 105.995L214.105 121.52C218.147 127.139 218.412 134.056 218.422 134.352C218.425 134.471 218.379 134.585 218.295 134.669C218.211 134.752 218.111 134.802 217.977 134.791L209.884 134.447C209.714 134.44 209.565 134.332 209.504 134.173C209.444 134.014 209.484 133.835 209.606 133.716L213.197 130.236C212.625 128.707 211.541 126.885 211.007 126.029L203.841 134.78C203.204 135.558 203.06 136.574 203.457 137.499C203.853 138.423 204.69 139.019 205.694 139.094L222.386 140.335C222.689 129.504 219.031 122.548 218.994 122.478C218.913 122.327 218.929 122.143 219.037 122.01L223.857 116.016C223.947 115.902 224.09 115.842 224.234 115.859C224.378 115.874 224.504 115.961 224.569 116.091C229.674 126.195 229.02 138.404 228.829 140.836L240.035 141.86C240.269 141.882 240.442 142.089 240.42 142.323C240.399 142.558 240.191 142.729 239.957 142.708L228.328 141.645C228.214 141.635 228.109 141.579 228.037 141.491C227.965 141.403 227.931 141.289 227.943 141.175C227.958 141.042 229.311 127.951 224.101 117.071L219.874 122.329C220.559 123.718 223.611 130.522 223.223 140.809C223.218 140.924 223.167 141.033 223.081 141.11C222.994 141.188 222.881 141.226 222.765 141.218L205.631 139.944C204.304 139.845 203.198 139.056 202.674 137.835C202.149 136.613 202.339 135.269 203.182 134.24L210.721 125.034C210.807 124.929 210.945 124.875 211.072 124.878C211.208 124.885 211.332 124.956 211.406 125.069C211.485 125.188 213.339 128.008 214.094 130.213C214.148 130.369 214.106 130.542 213.987 130.657L210.911 133.638L217.539 133.92C217.404 132.258 216.694 126.415 213.234 121.773C213.122 121.622 213.122 121.416 213.233 121.265L225.343 104.919C225.432 104.8 225.58 104.733 225.722 104.748C225.869 104.76 226 104.848 226.067 104.98C226.135 105.115 232.861 118.611 233.072 134.828L238.731 135.199C238.533 132.038 237.07 113.771 229.175 100.012C229.091 99.8655 229.101 99.6842 229.201 99.5482L241.71 82.4603C242.26 81.7099 243.172 81.3403 244.09 81.4941C245.009 81.6488 245.749 82.2977 246.022 83.1869L263.53 140.215C263.826 141.181 263.63 142.231 263.004 143.024C262.418 143.766 261.526 144.195 260.587 144.195Z" fill="black"/>
<path d="M259.185 121.588C259.032 121.588 258.884 121.506 258.808 121.362C258.698 121.154 258.778 120.896 258.985 120.786L303.994 96.9698C304.029 96.9515 304.066 96.9382 304.103 96.9299L311.781 95.2616C311.847 95.2479 311.916 95.2488 311.981 95.2662L317.529 96.7306L318.187 95.2683L311.519 93.0889C311.353 93.0343 311.236 92.8838 311.226 92.7091C311.216 92.534 311.314 92.371 311.473 92.2974L319.616 88.5408L319.238 86.796L311.545 89.6309C311.421 89.6771 311.281 89.6621 311.167 89.5893C311.055 89.5169 310.982 89.3959 310.972 89.2624L310.89 88.1482C310.881 88.0196 310.93 87.8932 311.025 87.8055L317.133 82.1228L315.968 81.1038L307.788 87.2344C307.734 87.2748 307.671 87.3018 307.605 87.3135L305.046 87.7586C304.92 87.7822 304.786 87.7436 304.689 87.6563C304.592 87.5697 304.539 87.4433 304.548 87.3131L304.969 80.3731L303.083 80.1373C302.32 83.715 301.287 89.7927 301.276 89.856C301.257 89.97 301.192 90.071 301.097 90.1363L257.098 120.284C256.904 120.417 256.639 120.368 256.506 120.173C256.373 119.979 256.422 119.714 256.616 119.581L300.466 89.5357C300.65 88.4589 301.631 82.775 302.332 79.5753C302.378 79.3607 302.58 79.2189 302.801 79.2438L305.472 79.5774C305.695 79.6052 305.857 79.8016 305.844 80.0258L305.431 86.8269L307.358 86.4916L315.733 80.2154C315.894 80.0943 316.118 80.1031 316.269 80.2353L318.05 81.792C318.14 81.8715 318.194 81.9855 318.195 82.1061C318.197 82.2267 318.148 82.3423 318.06 82.4243L311.756 88.2895L311.782 88.6359L319.402 85.8272C319.517 85.7856 319.647 85.7935 319.755 85.8534C319.863 85.9129 319.94 86.016 319.966 86.1366L320.522 88.6937C320.564 88.8888 320.466 89.0872 320.285 89.1708L312.815 92.6163L318.903 94.606C319.018 94.6434 319.112 94.7279 319.16 94.8384C319.209 94.9491 319.209 95.0751 319.159 95.1853L318.158 97.4092C318.073 97.5989 317.866 97.6986 317.66 97.6462L311.861 96.1156L304.341 97.7498L259.384 121.539C259.32 121.572 259.252 121.588 259.185 121.588Z" fill="black"/>
<path d="M246.859 155.047C246.847 155.047 246.835 155.046 246.822 155.045L242.958 154.714C242.745 154.696 242.578 154.522 242.569 154.308L242.082 142.531C242.077 142.409 242.125 142.29 242.214 142.205C242.304 142.12 242.425 142.079 242.547 142.09L244.793 142.295C244.985 142.313 245.14 142.456 245.174 142.645L247.279 154.547C247.302 154.677 247.263 154.811 247.174 154.908C247.092 154.997 246.978 155.047 246.859 155.047ZM243.405 153.898L246.343 154.149L244.391 143.114L242.954 142.982L243.405 153.898Z" fill="black"/>
<path d="M222.115 152.93C222.103 152.93 222.091 152.93 222.078 152.928L218.52 152.624C218.398 152.614 218.287 152.551 218.213 152.453C218.141 152.355 218.114 152.23 218.14 152.11L220.601 140.703C220.643 140.507 220.817 140.367 221.018 140.367H222.797C222.914 140.367 223.027 140.415 223.107 140.5C223.187 140.585 223.229 140.7 223.222 140.817L222.54 152.529C222.534 152.644 222.481 152.751 222.394 152.826C222.317 152.894 222.217 152.93 222.115 152.93ZM219.075 151.817L221.715 152.043L222.345 141.218H221.362L219.075 151.817Z" fill="black"/>
<path d="M216.797 117.596C216.702 117.596 216.609 117.564 216.533 117.504L179.127 88.028L173.078 86.8018L167.372 87.5546C167.161 87.5791 166.967 87.4539 166.908 87.2535L166.374 85.4525C166.341 85.3403 166.355 85.2192 166.414 85.1181C166.472 85.017 166.571 84.9443 166.684 84.9173L172.443 83.5472L172.71 82.8414L165.379 80.3996C165.272 80.3642 165.184 80.2873 165.133 80.1862C165.082 80.0851 165.074 79.9682 165.11 79.861L165.711 78.06C165.781 77.8521 166 77.7285 166.21 77.7797L173.955 79.549L174.005 79.4167L168.943 74.0863C168.783 73.9178 168.787 73.6525 168.953 73.4899L170.443 72.0222C170.599 71.8675 170.849 71.8578 171.017 72.0001L177.626 77.5792L179.453 78.0887L179.849 71.7638C179.857 71.6445 179.914 71.5338 180.008 71.4585C180.1 71.3836 180.221 71.3512 180.34 71.3695L183.124 71.7974C183.316 71.827 183.463 71.9817 183.483 72.1747C183.496 72.3024 183.807 75.314 183.807 76.4994C183.807 77.5105 183.97 80.4115 184.011 81.129L218.27 115.286C218.419 115.436 218.437 115.671 218.312 115.841L217.14 117.423C217.07 117.516 216.967 117.577 216.853 117.592C216.834 117.594 216.816 117.596 216.797 117.596ZM173.093 85.9442C173.121 85.9442 173.149 85.9471 173.178 85.9526L179.396 87.2132C179.461 87.2265 179.522 87.2552 179.575 87.2964L216.716 116.564L217.408 115.63L183.294 81.6175C183.22 81.5439 183.176 81.4453 183.17 81.3409C183.161 81.192 182.954 77.6763 182.954 76.4996C182.954 75.5805 182.75 73.4148 182.668 72.5896L180.671 72.2823L180.272 78.667C180.263 78.7951 180.198 78.9129 180.093 78.9877C179.989 79.0622 179.857 79.0863 179.731 79.0505L177.307 78.3746C177.249 78.3584 177.194 78.3293 177.147 78.2898L170.764 72.9016L169.849 73.8033L174.807 79.0243C174.921 79.1428 174.955 79.3154 174.897 79.4685L174.621 80.198C174.545 80.3968 174.332 80.5103 174.127 80.4621L166.397 78.6962L166.054 79.7264L173.4 82.1741C173.51 82.2107 173.601 82.2905 173.65 82.3949C173.7 82.4997 173.705 82.62 173.664 82.7285L173.16 84.0599C173.11 84.1921 172.998 84.2907 172.86 84.3236L167.319 85.6421L167.622 86.6627L173.037 85.9481C173.055 85.9457 173.074 85.9442 173.093 85.9442Z" fill="black"/>
<path d="M297.568 122.318C297.558 122.318 297.548 122.318 297.538 122.317C297.357 122.305 297.203 122.178 297.156 122.002L295.242 114.847C295.208 114.718 295.236 114.581 295.318 114.475C295.4 114.37 295.51 114.32 295.659 114.311L300.598 114.373C300.741 114.374 300.873 114.447 300.95 114.566C301.028 114.685 301.041 114.835 300.985 114.965L297.96 122.059C297.893 122.217 297.738 122.318 297.568 122.318ZM296.211 115.17L297.661 120.589L299.951 115.216L296.211 115.17Z" fill="black"/>
<path d="M317.816 116.334C317.755 116.334 317.695 116.321 317.638 116.295C317.528 116.245 317.445 116.15 317.409 116.035L315.989 111.47C315.923 111.259 316.03 111.033 316.235 110.949L320.186 109.345C320.296 109.301 320.417 109.304 320.525 109.353C320.632 109.402 320.714 109.494 320.751 109.605L322.233 114.047C322.303 114.257 322.201 114.485 321.997 114.573L317.985 116.299C317.931 116.323 317.873 116.334 317.816 116.334ZM316.92 111.591L318.082 115.33L321.301 113.945L320.086 110.306L316.92 111.591Z" fill="black"/>
<path d="M350.162 113.929C350.158 113.929 350.153 113.929 350.148 113.928L346.198 113.805C346.084 113.802 345.977 113.753 345.9 113.67C345.822 113.587 345.781 113.477 345.785 113.364L345.951 108.951L340.911 109.79C340.688 109.832 340.477 109.685 340.426 109.468L338.845 102.797L332.671 103.379C332.54 103.394 332.415 103.345 332.326 103.252C332.236 103.16 332.192 103.033 332.208 102.905L332.64 99.2649C332.664 99.0603 332.831 98.9026 333.037 98.8902L341.185 98.3969C341.421 98.3832 341.588 98.5304 341.629 98.7392L342.913 105.213L349.077 104.69C349.291 104.669 349.508 104.834 349.536 105.061L350.584 113.45C350.6 113.574 350.56 113.698 350.476 113.79C350.395 113.878 350.282 113.929 350.162 113.929ZM346.653 112.968L349.677 113.062L348.741 105.573L342.605 106.093C342.388 106.119 342.193 105.964 342.151 105.752L340.866 99.2693L333.444 99.7184L333.116 102.481L339.135 101.914C339.339 101.888 339.54 102.033 339.589 102.24L341.164 108.884L346.327 108.025C346.453 108.005 346.582 108.041 346.678 108.125C346.775 108.21 346.827 108.333 346.823 108.461L346.653 112.968Z" fill="black"/>
<path d="M343.948 127.934C343.572 127.934 342.624 127.865 342.016 127.22C341.619 126.799 341.455 126.236 341.529 125.548C341.649 124.413 342.826 123.439 344.067 123.502C345.36 123.55 346.362 124.792 346.329 125.788C346.283 127.141 345.523 127.862 344.071 127.931C344.043 127.932 344.002 127.934 343.948 127.934ZM343.982 124.353C343.163 124.353 342.44 125.044 342.376 125.639C342.329 126.075 342.414 126.401 342.637 126.636C343 127.022 343.685 127.094 344.03 127.08C344.873 127.04 345.442 126.8 345.477 125.759C345.494 125.226 344.856 124.384 344.035 124.353C344.018 124.353 343.999 124.353 343.982 124.353Z" fill="black"/>
<path d="M340.596 146.632C340.516 146.632 340.436 146.609 340.367 146.566C340.267 146.502 340.197 146.398 340.177 146.281L339.348 141.643C339.326 141.524 339.357 141.402 339.432 141.306C339.506 141.211 339.618 141.152 339.739 141.143L344.09 140.853C344.297 140.845 344.478 140.973 344.53 141.169L345.525 144.895C345.554 145.005 345.538 145.121 345.482 145.218C345.425 145.316 345.332 145.388 345.223 145.417L340.706 146.618C340.669 146.628 340.633 146.632 340.596 146.632ZM340.271 141.962L340.934 145.676L344.591 144.703L343.797 141.727L340.271 141.962Z" fill="black"/>
<path d="M361.109 109.653C360.963 109.653 360.823 109.578 360.744 109.446L358.091 105.015C358.007 104.873 358.011 104.695 358.103 104.558C358.195 104.422 358.36 104.348 358.522 104.375L367.639 105.783C367.824 105.812 367.969 105.958 367.996 106.144C368.022 106.329 367.924 106.51 367.754 106.59L361.29 109.613C361.231 109.64 361.17 109.653 361.109 109.653ZM359.288 105.356L361.277 108.678L366.125 106.411L359.288 105.356Z" fill="black"/>
<path d="M348.428 90.2312C348.218 90.2312 348.037 90.0765 348.007 89.8643L347.468 86.0133C347.451 85.8918 347.487 85.7692 347.567 85.6764C347.647 85.5832 347.764 85.5296 347.886 85.5284L352.237 85.4868C352.336 85.4918 352.458 85.5313 352.54 85.6103C352.621 85.6894 352.667 85.7987 352.667 85.9119C352.668 86.0495 352.766 88.0551 352.832 89.3698C352.844 89.5956 352.677 89.7911 352.451 89.8145L348.473 90.2287C348.458 90.2304 348.443 90.2312 348.428 90.2312ZM348.38 86.3756L348.794 89.339L351.961 89.0092C351.926 88.3009 351.862 87.0157 351.832 86.3423L348.38 86.3756Z" fill="black"/>
<path d="M335.292 82.9849C335.246 82.9849 335.201 82.9778 335.156 82.9628C335.019 82.9166 334.915 82.8044 334.879 82.6646L332.517 73.43C332.469 73.2424 332.553 73.0461 332.722 72.9521C332.891 72.8573 333.103 72.8893 333.237 73.0295L339.288 79.3239C339.371 79.41 339.413 79.5273 339.406 79.6471C339.398 79.7664 339.34 79.8771 339.246 79.9519L335.558 82.8921C335.481 82.9528 335.387 82.9849 335.292 82.9849ZM333.744 74.7854L335.542 81.8153L338.35 79.5772L333.744 74.7854Z" fill="black"/>
<path d="M265.857 92.1525C265.812 92.1525 265.766 92.1455 265.723 92.1309C265.594 92.0881 265.493 91.9866 265.451 91.8577L263.741 86.5672C263.682 86.385 263.752 86.1862 263.911 86.081L268.473 83.0694C268.568 83.0066 268.685 82.9846 268.796 83.0078C268.908 83.0315 269.005 83.0984 269.067 83.1945L271.836 87.5085C271.959 87.6998 271.909 87.9539 271.724 88.0857L266.103 92.0739C266.031 92.1255 265.944 92.1525 265.857 92.1525ZM264.651 86.613L266.084 91.0433L270.899 87.6266L268.582 84.0177L264.651 86.613Z" fill="black"/>
<path d="M254.29 79.3735C254.132 79.3735 253.986 79.2858 253.912 79.1447C253.838 79.0025 253.85 78.8299 253.944 78.6993L257.04 74.3854C257.124 74.2681 257.265 74.197 257.407 74.2082C257.552 74.2153 257.683 74.2955 257.756 74.4207L260.199 78.6535C260.274 78.7845 260.274 78.9455 260.2 79.0769C260.125 79.2079 259.986 79.2903 259.836 79.2923L254.296 79.3734L254.29 79.3735ZM257.347 75.4185L255.129 78.5092L259.097 78.4513L257.347 75.4185Z" fill="black"/>
<path d="M116.499 97.6677C115.705 97.6677 114.927 97.3233 114.46 96.7622C113.924 96.1205 113.695 95.2487 113.859 94.4876C113.972 93.9694 114.313 93.2515 115.304 92.774C116.492 92.2021 117.697 92.7786 118.365 93.6013C119.152 94.5687 119.208 95.7794 118.509 96.6866C118.033 97.3038 117.337 97.6519 116.551 97.6669C116.533 97.6674 116.517 97.6677 116.499 97.6677ZM116.29 93.3988C116.087 93.3988 115.88 93.442 115.675 93.541C115.129 93.8047 114.797 94.184 114.692 94.6678C114.582 95.1785 114.744 95.772 115.114 96.2167C115.426 96.5906 115.971 96.814 116.535 96.8156C116.905 96.8085 117.43 96.6899 117.834 96.1668C118.379 95.4597 118.124 94.6553 117.704 94.1384C117.368 93.7258 116.846 93.3988 116.29 93.3988Z" fill="black"/>
<path d="M137.218 107.094C137.058 107.094 136.908 107.003 136.835 106.855L135.42 103.949C135.361 103.831 135.362 103.692 135.42 103.575C135.479 103.456 135.588 103.372 135.717 103.345L143.771 101.691L144.063 95.2549C144.068 95.1306 144.128 95.0154 144.225 94.9388C144.323 94.8615 144.448 94.8328 144.571 94.8565L151.267 96.1949C151.413 96.224 151.533 96.3259 151.584 96.4648L152.617 99.2561C152.67 99.4 152.642 99.5614 152.543 99.6782C152.444 99.7955 152.289 99.8512 152.139 99.8221L147.108 98.8797L146.788 104.97C146.778 105.166 146.635 105.33 146.442 105.366L137.298 107.087C137.271 107.092 137.244 107.094 137.218 107.094ZM136.426 104.069L137.459 106.19L145.955 104.591L146.282 98.3489C146.288 98.2266 146.347 98.1127 146.443 98.0366C146.54 97.9608 146.665 97.9297 146.785 97.953L151.556 98.8468L150.867 96.9835L144.892 95.789L144.607 102.061C144.599 102.256 144.459 102.42 144.267 102.459L136.426 104.069Z" fill="black"/>
<path d="M179.652 118.069C179.59 118.069 179.529 118.055 179.471 118.029C179.35 117.972 179.262 117.86 179.235 117.729L178.327 113.333L174.387 114.197C174.266 114.223 174.144 114.197 174.044 114.125C173.946 114.053 173.883 113.942 173.871 113.821C173.672 111.708 173.336 108.395 173.169 107.338C172.667 107.425 171.678 107.606 170.778 107.776C170.654 107.798 170.529 107.767 170.431 107.689C170.334 107.611 170.277 107.494 170.272 107.37L170.081 100.831C170.074 100.608 170.243 100.417 170.466 100.395L173.221 100.127C173.352 100.115 173.466 100.157 173.556 100.242C173.646 100.326 173.694 100.446 173.689 100.569L173.556 103.707L175.551 103.492C175.666 103.48 175.78 103.514 175.868 103.587C175.956 103.66 176.012 103.766 176.021 103.88L176.56 110.265L181.15 109.915C181.361 109.897 181.561 110.048 181.602 110.261L182.711 116.149C182.745 116.331 182.658 116.515 182.494 116.603L179.854 118.018C179.791 118.052 179.721 118.069 179.652 118.069ZM178.657 112.399C178.739 112.399 178.82 112.422 178.89 112.467C178.985 112.529 179.052 112.627 179.074 112.739L179.954 116.998L181.816 116L180.835 110.793L176.202 111.147C175.985 111.163 175.765 110.991 175.745 110.758L175.209 104.386L173.155 104.607C173.031 104.62 172.908 104.579 172.818 104.494C172.727 104.41 172.678 104.29 172.683 104.166L172.816 101.022L170.945 101.205L171.11 106.847C173.317 106.434 173.447 106.434 173.491 106.434C173.981 106.434 174.031 106.434 174.675 113.262L178.566 112.409C178.597 112.402 178.627 112.399 178.657 112.399Z" fill="black"/>
<path d="M160.214 102.009C160.19 102.009 160.165 102.007 160.14 102.003C159.957 101.97 159.815 101.822 159.791 101.637L158.605 92.4227C158.586 92.2754 158.645 92.1291 158.761 92.0363C158.876 91.944 159.032 91.9177 159.172 91.9672L164.185 93.764C164.301 93.8056 164.392 93.8946 164.437 94.009C164.482 94.123 164.476 94.2511 164.42 94.36L160.593 101.778C160.519 101.921 160.371 102.009 160.214 102.009ZM159.54 93.0041L160.462 100.172L163.439 94.4016L159.54 93.0041Z" fill="black"/>
<path d="M193.444 79.6619C193.418 79.6619 193.393 79.6614 193.367 79.661C192.395 79.6331 191.22 79.0579 191.107 77.5286C191.036 76.567 191.435 76.0009 191.781 75.6953C192.314 75.227 193.104 75.041 193.89 75.1995C195.175 75.4582 195.88 76.5742 195.686 78.0428C195.545 79.1058 194.44 79.6619 193.444 79.6619ZM191.957 77.4663C192.046 78.677 193.078 78.8005 193.392 78.8093C194.047 78.84 194.765 78.5044 194.84 77.9313C194.905 77.4417 194.926 76.2767 193.722 76.0346C193.199 75.9282 192.673 76.0446 192.345 76.3341C192.051 76.5928 191.921 76.9738 191.957 77.4663Z" fill="black"/>
<path d="M200.703 85.835C200.624 85.835 200.545 85.8134 200.474 85.7685L197.853 84.1007C197.739 84.0283 197.666 83.906 197.657 83.7717C197.647 83.6374 197.701 83.5059 197.804 83.4182L202.038 79.7839C202.189 79.6554 202.408 79.6475 202.568 79.7636L204.077 80.8699L206.377 77.5064C206.49 77.3416 206.703 77.278 206.887 77.3513L208.388 77.951L209.953 74.8233C210.006 74.7185 210.099 74.6399 210.211 74.6062C210.321 74.5729 210.444 74.5858 210.546 74.644L213.084 76.0938C213.183 76.1504 213.254 76.2436 213.284 76.3534C213.314 76.4627 213.298 76.5796 213.24 76.6778L210.271 81.7724C210.214 81.8701 210.121 81.9413 210.012 81.97C209.904 81.9991 209.787 81.9837 209.688 81.9263L207.8 80.8257L205.101 84.9588C205.029 85.0681 204.912 85.1384 204.781 85.1501C204.656 85.1629 204.523 85.1122 204.433 85.0178L202.795 83.2788L201.047 85.6612C200.964 85.7744 200.835 85.835 200.703 85.835ZM198.795 83.6901L200.596 84.8355L202.411 82.362C202.485 82.2602 202.602 82.197 202.728 82.189C202.85 82.1844 202.978 82.2302 203.065 82.3221L204.683 84.0398L207.308 80.0208C207.432 79.8299 207.683 79.7716 207.88 79.8856L209.749 80.9753L212.288 76.6202L210.514 75.6067L208.975 78.6824C208.876 78.8803 208.639 78.9689 208.436 78.8874L206.888 78.2689L204.532 81.7139C204.467 81.8091 204.366 81.8741 204.252 81.8931C204.143 81.9143 204.022 81.8856 203.928 81.817L202.336 80.6504L198.795 83.6901Z" fill="black"/>
<path d="M120.265 85.8684C120.103 85.8684 119.949 85.7748 119.877 85.6193L118.746 83.1416C118.651 82.934 118.737 82.6892 118.941 82.5856L123.552 80.2381C123.656 80.1844 123.78 80.1769 123.891 80.2173C124.002 80.2577 124.091 80.343 124.138 80.4515L125.443 83.5375C125.488 83.6453 125.487 83.7667 125.44 83.8736C125.394 83.9805 125.306 84.0636 125.196 84.1036L120.411 85.8425C120.363 85.86 120.313 85.8684 120.265 85.8684ZM119.691 83.1591L120.489 84.9076L124.483 83.4565L123.53 81.2046L119.691 83.1591Z" fill="black"/>
<path d="M134.315 79.2807C134.28 79.2807 134.245 79.2765 134.211 79.2678C134.042 79.2254 133.916 79.0849 133.893 78.9122L132.718 70.3061C132.696 70.143 132.77 69.9813 132.908 69.8914C133.047 69.802 133.225 69.7995 133.364 69.8864L138.497 73.0594C138.599 73.1218 138.669 73.2233 138.691 73.3398C138.714 73.4558 138.688 73.5764 138.618 73.6725L134.659 79.1056C134.578 79.2171 134.449 79.2807 134.315 79.2807ZM133.685 71.0859L134.594 77.7481L137.658 73.5423L133.685 71.0859Z" fill="black"/>
<path d="M158.543 77.2617C158.454 77.2617 158.365 77.2335 158.292 77.1794L154.072 74.0929C153.943 73.9985 153.878 73.84 153.903 73.6824C153.929 73.5244 154.04 73.3941 154.192 73.3442L160.325 71.3449C160.443 71.3078 160.57 71.3212 160.677 71.3848C160.783 71.4485 160.856 71.5549 160.877 71.6764L161.617 75.8926C161.654 76.1009 161.531 76.3047 161.331 76.3708L158.677 77.2405C158.633 77.2547 158.588 77.2617 158.543 77.2617ZM155.247 73.8965L158.618 76.3629L160.714 75.6762L160.123 72.3073L155.247 73.8965Z" fill="black"/>
<path d="M147.103 84.9555C146.975 84.9555 146.853 84.8977 146.772 84.7971L141.683 78.4943C141.559 78.3408 141.556 78.1229 141.677 77.9669C141.797 77.8105 142.008 77.7573 142.189 77.8384L149.061 80.9245C149.17 80.9731 149.254 81.0654 149.291 81.1786C149.328 81.2913 149.317 81.4152 149.259 81.5192L147.476 84.7359C147.407 84.8599 147.282 84.9418 147.14 84.9539C147.128 84.9552 147.116 84.9555 147.103 84.9555ZM143.465 79.3452L147.038 83.7697L148.289 81.5117L143.465 79.3452Z" fill="black"/>
<path d="M139.013 91.3887C139.008 91.3887 139.003 91.3887 138.997 91.3882L134.299 91.2144C134.075 91.206 133.895 91.0255 133.889 90.8018L133.802 87.9332C133.795 87.699 133.979 87.5027 134.213 87.4948L139.172 87.321C139.285 87.3102 139.408 87.3626 139.491 87.4482C139.575 87.5335 139.619 87.65 139.612 87.7694L139.438 90.9857C139.427 91.2123 139.239 91.3887 139.013 91.3887ZM134.729 90.378L138.61 90.5215L138.737 88.1886L134.667 88.3313L134.729 90.378Z" fill="black"/>
<path d="M309.403 133.632C309.317 133.632 309.231 133.605 309.159 133.555L306.994 132.041C306.803 131.907 306.756 131.642 306.889 131.45L309.629 127.494L308.424 126.012C308.307 125.869 308.296 125.667 308.396 125.512L310.849 121.735L307.958 116.988C307.855 116.82 307.881 116.605 308.02 116.466L309.86 114.627C309.952 114.536 310.079 114.488 310.208 114.505C310.336 114.519 310.451 114.59 310.521 114.699L314.957 121.62C315.05 121.764 315.047 121.95 314.95 122.091L312.511 125.646L313.445 127.14C313.532 127.278 313.532 127.454 313.444 127.593L309.764 133.433C309.702 133.531 309.602 133.6 309.488 133.623C309.46 133.629 309.432 133.632 309.403 133.632ZM307.831 131.586L309.281 132.601L312.581 127.365L311.64 125.861C311.55 125.717 311.555 125.534 311.65 125.394L314.088 121.842L310.089 115.604L308.86 116.831L311.716 121.521C311.802 121.66 311.799 121.836 311.71 121.974L309.28 125.715L310.492 127.205C310.612 127.352 310.621 127.56 310.512 127.716L307.831 131.586Z" fill="black"/>
<path d="M228.54 138.188C228.532 138.188 228.522 138.188 228.513 138.188L222.77 137.826C222.536 137.811 222.357 137.609 222.372 137.374C222.387 137.139 222.596 136.968 222.824 136.976L228.567 137.337C228.801 137.352 228.98 137.555 228.965 137.789C228.951 138.015 228.764 138.188 228.54 138.188Z" fill="black"/>
<path d="M248.925 139.474C248.916 139.474 248.907 139.473 248.898 139.473L244.647 139.205C244.413 139.19 244.234 138.987 244.249 138.752C244.263 138.518 244.47 138.339 244.701 138.354L248.951 138.623C249.186 138.638 249.365 138.84 249.35 139.075C249.336 139.3 249.148 139.474 248.925 139.474Z" fill="black"/>
<path d="M315.432 184.35C315.233 184.35 315.055 184.209 315.015 184.007C314.969 183.776 315.119 183.552 315.35 183.506L320.405 182.507L325.656 144.311L262.972 140.36C262.737 140.345 262.558 140.143 262.573 139.908C262.588 139.674 262.773 139.499 263.025 139.51L326.167 143.49C326.285 143.497 326.395 143.553 326.47 143.645C326.545 143.737 326.579 143.855 326.562 143.973L321.208 182.924C321.183 183.104 321.048 183.249 320.869 183.284L315.515 184.342C315.488 184.347 315.46 184.35 315.432 184.35Z" fill="black"/>
<path d="M265.53 194.207C265.517 194.207 265.505 194.207 265.492 194.205L191.219 187.613C190.984 187.592 190.811 187.385 190.832 187.15C190.853 186.915 191.073 186.742 191.294 186.764L265.507 193.351L307.387 185.079C307.611 185.036 307.842 185.184 307.887 185.414C307.933 185.645 307.783 185.869 307.551 185.915L265.612 194.199C265.585 194.204 265.557 194.207 265.53 194.207Z" fill="black"/>
<path d="M182.973 186.879C182.959 186.879 182.947 186.879 182.934 186.877L144.291 183.447C144.056 183.426 143.883 183.22 143.904 182.985C143.924 182.75 144.14 182.572 144.366 182.599L183.009 186.029C183.244 186.05 183.417 186.256 183.396 186.491C183.377 186.712 183.191 186.879 182.973 186.879Z" fill="black"/>
<path d="M71.0709 182.368C71.0592 182.368 71.0476 182.367 71.0359 182.366L58.4404 181.366C58.2065 181.348 58.0308 181.143 58.05 180.908C58.0683 180.673 58.2814 180.504 58.5087 180.517L71.1042 181.517C71.3381 181.536 71.5138 181.741 71.4946 181.975C71.4771 182.198 71.2906 182.368 71.0709 182.368Z" fill="black"/>
<path d="M142.346 188.026C142.335 188.026 142.324 188.025 142.312 188.024L97.3701 184.457C97.1362 184.438 96.9605 184.233 96.9797 183.998C96.9981 183.764 97.2095 183.593 97.4384 183.607L142.077 187.151L168.389 126.388L161.862 121.97L38.1039 118.966C37.8683 118.96 37.6818 118.765 37.6876 118.529C37.6943 118.294 37.8924 118.124 38.1238 118.114L162.007 121.122C162.09 121.124 162.169 121.149 162.236 121.195L169.159 125.881C169.329 125.996 169.393 126.215 169.311 126.403L142.738 187.769C142.669 187.925 142.515 188.026 142.346 188.026Z" fill="black"/>
<path d="M27.8106 178.933C27.7632 178.933 27.7149 178.925 27.6674 178.909L15.5864 174.612C15.4774 174.573 15.3883 174.491 15.3408 174.386C15.2933 174.28 15.2908 174.159 15.3341 174.052L36.5086 121.389C36.596 121.17 36.8433 121.066 37.063 121.153C37.2811 121.24 37.3877 121.488 37.2994 121.707L16.2905 173.958L27.9537 178.106C28.1751 178.185 28.2908 178.429 28.2117 178.65C28.1501 178.825 27.9855 178.933 27.8106 178.933Z" fill="black"/>
<path d="M14.6449 179.495C14.4451 179.495 14.2669 179.353 14.227 179.149C14.1829 178.918 14.3336 178.695 14.565 178.651C18.0379 177.981 26.149 177.635 26.4929 177.62C26.7035 177.59 26.9258 177.793 26.9366 178.028C26.9457 178.263 26.7635 178.461 26.5279 178.471C26.4446 178.475 18.1378 178.829 14.7265 179.487C14.6991 179.492 14.6723 179.495 14.6449 179.495Z" fill="black"/>
<path d="M51.3991 152.227C50.9924 152.475 50.4728 153.079 49.9178 153.865L52.5087 153.635L51.3991 152.227Z" fill="black"/>
<path d="M49.9174 154.291C49.7659 154.291 49.6243 154.21 49.5478 154.077C49.4654 153.934 49.4737 153.755 49.5694 153.619C50.2171 152.702 50.7424 152.128 51.1768 151.863C51.3599 151.751 51.5997 151.793 51.7337 151.963L52.8434 153.372C52.9408 153.494 52.9624 153.66 52.9 153.804C52.8383 153.947 52.7019 154.045 52.5462 154.059L49.9549 154.289C49.9425 154.29 49.9298 154.291 49.9174 154.291ZM51.3267 152.823C51.1943 152.946 51.032 153.117 50.8364 153.356L51.6871 153.28L51.3267 152.823Z" fill="black"/>
<path d="M80.0488 154.665C80.0488 154.665 80.8862 155.24 81.9038 156.047H78.8168L80.0488 154.665Z" fill="black"/>
<path d="M81.9035 156.472H78.8169C78.6487 156.472 78.4963 156.374 78.4281 156.221C78.3589 156.068 78.3872 155.889 78.4988 155.763L79.7308 154.382C79.8731 154.22 80.1146 154.193 80.2901 154.314C80.3251 154.338 81.1517 154.906 82.1681 155.713C82.3104 155.826 82.3653 156.016 82.3054 156.187C82.2463 156.358 82.085 156.472 81.9035 156.472ZM79.7674 155.621H80.6473C80.4367 155.464 80.2544 155.332 80.1137 155.232L79.7674 155.621Z" fill="black"/>
<path d="M57.7255 176.159C57.4179 176.418 56.7883 176.787 55.962 177.219L56.3361 175.385L57.7255 176.159Z" fill="black"/>
<path d="M55.9617 177.644C55.871 177.644 55.781 177.615 55.7052 177.559C55.5737 177.46 55.5113 177.294 55.5437 177.133L55.9183 175.299C55.9458 175.166 56.0349 175.054 56.158 174.997C56.2812 174.941 56.4244 174.946 56.5443 175.013L57.9336 175.788C58.0552 175.856 58.1367 175.98 58.15 176.119C58.1633 176.259 58.1067 176.395 57.9993 176.486C57.683 176.752 57.0803 177.115 56.1588 177.596C56.0964 177.629 56.0291 177.644 55.9617 177.644ZM56.6376 176.04L56.5618 176.408C56.6991 176.33 56.8174 176.261 56.9198 176.198L56.6376 176.04Z" fill="black"/>
<path d="M82.2181 184.804C82.1374 184.804 82.0558 184.781 81.9834 184.733L71.8611 178.05C71.6646 177.921 71.6105 177.656 71.7404 177.46C71.8694 177.263 72.1332 177.209 72.3306 177.34L82.4529 184.023C82.6494 184.152 82.7034 184.417 82.5736 184.613C82.492 184.737 82.3563 184.804 82.2181 184.804Z" fill="black"/>
<path d="M72.7875 178.578C72.5669 178.578 72.3805 178.408 72.363 178.185C72.3455 177.95 72.5211 177.746 72.7559 177.728L76.4011 177.451C76.6334 177.431 76.8406 177.609 76.8589 177.843C76.8764 178.077 76.7008 178.282 76.4661 178.3L72.8209 178.577C72.81 178.578 72.7983 178.578 72.7875 178.578Z" fill="black"/>
<path d="M70.3285 166.968C69.4258 168.159 68.842 168.934 68.842 168.934C68.7462 168.197 68.5996 167.407 68.412 166.583L70.3285 166.968Z" fill="black"/>
<path d="M68.8418 169.36C68.806 169.36 68.7694 169.356 68.7328 169.346C68.5655 169.302 68.4415 169.161 68.419 168.989C68.3283 168.289 68.1859 167.511 67.9969 166.678C67.9645 166.537 68.006 166.389 68.1068 166.286C68.2092 166.182 68.3557 166.139 68.4963 166.165L70.4126 166.55C70.5565 166.579 70.6748 166.68 70.7272 166.816C70.7788 166.954 70.7572 167.108 70.6681 167.224C69.7658 168.415 69.1831 169.19 69.1822 169.19C69.1006 169.299 68.9734 169.36 68.8418 169.36ZM68.9667 167.129C69.0183 167.383 69.0658 167.631 69.1091 167.872C69.2464 167.691 69.4037 167.483 69.5786 167.251L68.9667 167.129Z" fill="black"/>
<path d="M201.491 174.039L200.413 174.995L202.46 175.246C202.11 174.544 201.762 174.039 201.491 174.039Z" fill="black"/>
<path d="M202.46 175.672C202.442 175.672 202.426 175.671 202.408 175.669L200.361 175.418C200.195 175.397 200.056 175.282 200.006 175.122C199.956 174.962 200.005 174.788 200.13 174.677L201.208 173.72C201.286 173.651 201.387 173.613 201.491 173.613C201.939 173.613 202.33 174.031 202.841 175.056C202.911 175.196 202.898 175.364 202.808 175.492C202.728 175.605 202.597 175.672 202.46 175.672ZM201.402 174.687L201.666 174.72C201.618 174.651 201.577 174.6 201.544 174.561L201.402 174.687Z" fill="black"/>
<path d="M300.153 175.431C299.888 175.537 299.283 175.892 298.516 176.389L302.214 175.992C301.308 175.55 300.496 175.294 300.153 175.431Z" fill="black"/>
<path d="M298.516 176.815C298.337 176.815 298.176 176.703 298.115 176.532C298.048 176.346 298.119 176.139 298.285 176.032C298.754 175.728 299.601 175.194 299.994 175.036L299.995 175.036C300.445 174.856 301.254 175.05 302.401 175.609C302.572 175.692 302.667 175.878 302.633 176.065C302.601 176.252 302.449 176.395 302.26 176.415L298.562 176.813C298.546 176.814 298.531 176.815 298.516 176.815Z" fill="black"/>
<path d="M222.797 140.793H221.018L220.818 141.719L222.732 141.898L222.797 140.793Z" fill="black"/>
<path d="M222.732 142.324C222.719 142.324 222.705 142.324 222.692 142.323L220.777 142.143C220.656 142.132 220.545 142.069 220.474 141.971C220.401 141.873 220.375 141.748 220.401 141.629L220.602 140.702C220.644 140.506 220.817 140.367 221.018 140.367H222.797C222.914 140.367 223.027 140.415 223.107 140.5C223.187 140.586 223.229 140.7 223.222 140.817L223.157 141.923C223.151 142.039 223.097 142.146 223.009 142.222C222.932 142.288 222.834 142.324 222.732 142.324ZM221.335 141.34L222.332 141.433L222.345 141.218H221.362L221.335 141.34Z" fill="black"/>
<path d="M242.508 142.514L244.754 142.719L244.965 143.915L242.56 143.768L242.508 142.514Z" fill="black"/>
<path d="M244.965 144.341C244.957 144.341 244.948 144.34 244.94 144.34L242.534 144.193C242.316 144.18 242.143 144.004 242.133 143.786L242.082 142.531C242.077 142.409 242.125 142.29 242.214 142.205C242.303 142.121 242.416 142.08 242.547 142.09L244.793 142.295C244.985 142.313 245.14 142.456 245.174 142.645L245.385 143.841C245.407 143.969 245.37 144.101 245.283 144.198C245.203 144.289 245.086 144.341 244.965 144.341ZM242.97 143.366L244.452 143.457L244.391 143.114L242.954 142.982L242.97 143.366Z" fill="black"/>
<path d="M216.797 117.17L217.969 115.588L217.445 115.065L216.126 116.642L216.797 117.17Z" fill="black"/>
<path d="M216.797 117.596C216.702 117.596 216.609 117.564 216.533 117.505L215.862 116.976C215.771 116.905 215.714 116.8 215.702 116.686C215.69 116.571 215.725 116.457 215.799 116.368L217.117 114.792C217.194 114.7 217.305 114.645 217.425 114.64C217.543 114.635 217.66 114.679 217.746 114.764L218.27 115.286C218.419 115.436 218.438 115.672 218.312 115.841L217.14 117.423C217.071 117.516 216.967 117.577 216.853 117.592C216.834 117.595 216.816 117.596 216.797 117.596Z" fill="black"/>
</svg>
