<svg xmlns="http://www.w3.org/2000/svg" fill="none" viewBox="0 0 256 108"><g clip-path="url(#a)"><rect width="83" height="83" x="180.967" y="-.792" fill="#fff" stroke="#F0ECF3" rx="7.5" transform="rotate(24 180.967 -.792)"/><path fill="#009432" fill-rule="evenodd" d="M181.588 35.581a856.455 856.455 0 0 1 3.298 4.543c.736 1.02.85 2.118.345 3.27-.76 1.726-1.526 3.45-2.303 5.169-.511 1.132-1.397 1.776-2.633 1.912-1.872.206-3.745.404-5.619.592-1.248.125-2.26-.322-3.003-1.333-.887-1.207-1.766-2.42-2.645-3.633l-.701-.966c-.572-.79-.723-1.666-.529-2.613a1.89 1.89 0 0 0 .026-.199c.003-.03.005-.062.009-.092l2.576-5.785c.05-.063.098-.128.147-.192.107-.142.213-.284.335-.41.559-.583 1.229-.945 2.047-1.028 1.036-.104 2.071-.214 3.106-.324.837-.089 1.675-.178 2.513-.263 1.266-.13 2.281.327 3.031 1.352Zm-10.783 4.706a.543.543 0 0 0 .103.005c1.126-.099 2.03.3 2.73 1.19a.747.747 0 0 0 .393.247c1.746.399 3.444.26 5.076-.501a.762.762 0 0 0 .328-.322c.472-.917 1.212-1.45 2.227-1.608.065-.01.131-.024.21-.04.044-.01.092-.02.147-.03-.195-.27-.388-.533-.578-.794-.439-.601-.866-1.186-1.285-1.777-.358-.504-.823-.712-1.437-.645-1.646.18-3.293.35-4.94.522l-.64.066c-.522.055-.923.31-1.144.778-.321.678-.624 1.366-.927 2.054l-.277.627c-.019.042-.026.089-.035.14-.004.026-.008.054-.014.083l.063.005Zm9.244 8.416c.634-.064 1.052-.397 1.306-.959a217.955 217.955 0 0 0 1.046-2.347c.029-.067.054-.137.08-.213l.038-.108a1.193 1.193 0 0 1-.068-.02c-.038-.012-.068-.021-.098-.02-1.133.091-2.025-.338-2.711-1.233a.576.576 0 0 0-.301-.192c-1.745-.422-3.444-.283-5.084.457a.947.947 0 0 0-.409.394c-.497.923-1.258 1.443-2.292 1.574-.06.007-.12.018-.193.03l-.123.021.519.714.002.004h.001c.452.623.895 1.232 1.332 1.845.349.49.807.702 1.408.637 1.848-.2 3.697-.398 5.547-.584ZM220.447 59.567c2.167.522 3.455 2.68 2.838 4.756l-.033.12c-.012.044-.023.089-.037.133-.183.598-.603.796-1.18.54-.989-.436-1.976-.876-2.963-1.316h-.001l-1.184-.528-.399-.178c-.299 1.45 1.203 2.845 2.633 2.388.599-.192 1.046.06 1.109.605.044.38-.152.69-.533.834-.664.255-1.34.233-2.007.033-2.142-.646-3.095-2.536-2.798-4.326.349-2.108 2.5-3.556 4.555-3.061Zm.136 1.594c-.95-.404-2.118-.093-2.589.712l3.859 1.718c.283-.89-.317-2.024-1.27-2.43ZM198.509 49.713c-1.886-.839-4.18.045-5.01 1.93a3.796 3.796 0 0 0 1.936 4.995 3.75 3.75 0 0 0 4.983-1.924 3.783 3.783 0 0 0-1.909-5Zm-2.437 5.513c-1.111-.492-1.622-1.818-1.136-2.94.483-1.114 1.811-1.625 2.935-1.129a2.211 2.211 0 0 1 1.134 2.929c-.497 1.118-1.822 1.633-2.933 1.14Z" clip-rule="evenodd"/><path fill="#009432" d="M205.772 53.048c1.238.206 2.118 1.213 2.276 2.474a3.949 3.949 0 0 1-.29 2.074c-.352.824-.72 1.64-1.087 2.456l-.227.505c-.213.473-.583.627-1.021.437-.456-.199-.592-.58-.375-1.072l.401-.898c.257-.573.514-1.145.758-1.724.129-.304.226-.633.274-.96.107-.727-.128-1.326-.786-1.704-.626-.359-1.281-.357-1.856.064-.335.245-.64.597-.828.967-.308.61-.582 1.239-.856 1.867-.138.316-.276.633-.418.947-.163.361-.487.541-.839.47-.347-.071-.589-.283-.633-.642a1 1 0 0 1 .092-.498c.774-1.76 1.558-3.518 2.343-5.274.2-.45.567-.64.975-.52.401.119.593.494.502.985l-.015.08-.001.002c.169-.005.339-.02.509-.033.372-.031.745-.063 1.102-.003ZM215.596 59.153c-.012-1.4-.943-2.51-2.27-2.744-.347-.062-.71-.036-1.085-.009-.173.012-.348.025-.526.03l.007-.051c.008-.058.019-.14.024-.221a.716.716 0 0 0-.412-.73c-.292-.15-.591-.12-.835.09a1.312 1.312 0 0 0-.309.454c-.705 1.567-1.402 3.138-2.1 4.709l-.175.393c-.04.09-.072.186-.096.282-.1.398.079.749.458.903.417.171.829-.017 1.048-.5.259-.57.513-1.143.767-1.715.164-.37.328-.74.494-1.109a1.993 1.993 0 0 1 1.064-1.04c1.234-.532 2.512.382 2.383 1.714a3.665 3.665 0 0 1-.279 1.033c-.245.588-.507 1.17-.768 1.75-.126.28-.252.56-.376.84-.237.535-.121.905.34 1.113.456.205.833.037 1.065-.483.121-.27.246-.54.371-.81.309-.666.618-1.333.868-2.02a5.521 5.521 0 0 0 .342-1.88ZM190.799 52.292c.082-.02.164-.04.247-.054.462-.08.847.139.968.545.115.389-.076.773-.503.958-.597.26-1.22.297-1.858.19-2.216-.373-3.623-2.432-3.147-4.624.034-.157.091-.31.145-.457.025-.065.049-.13.07-.193.681-1.418 1.788-2.207 3.333-2.269 1.503-.06 2.681.581 3.476 1.877.089.147.157.311.21.475.142.441-.011.838-.378 1.014-.402.195-.794.08-1.043-.353-.274-.48-.562-.924-1.074-1.193-.86-.452-1.862-.306-2.599.408-.689.667-.839 1.75-.364 2.641a2.154 2.154 0 0 0 2.292 1.085c.075-.014.15-.032.225-.05ZM227.883 64.529c.698.225 1.128.714 1.464 1.34.243.453.612.562 1.03.38.373-.164.557-.6.386-1.041a3.595 3.595 0 0 0-.48-.875c-.973-1.263-2.671-1.772-4.207-1.287-1.471.465-2.542 1.833-2.636 3.364-.098 1.598.791 3.036 2.285 3.73l.26.083c.184.06.368.12.556.163.695.158 1.38.123 2.037-.175.373-.17.57-.562.477-.909-.11-.404-.475-.644-.91-.59-.048.005-.095.018-.142.03-.062.018-.123.034-.185.035-.111.001-.222.007-.334.013-.295.014-.592.03-.87-.034-1.149-.261-1.841-1.558-1.495-2.714.35-1.17 1.648-1.872 2.764-1.513ZM234.854 65.928c.14.047.276.114.404.189.386.223.501.587.317.982-.183.394-.533.544-.953.407a.697.697 0 0 1-.035-.013c-.353-.125-.529-.187-.655-.133-.124.054-.199.222-.348.557l-.493 1.108c-.411.923-.821 1.846-1.234 2.768-.236.528-.607.699-1.057.495-.442-.2-.573-.617-.347-1.126.442-.997.885-1.992 1.329-2.988l.532-1.195.174-.39c-.071-.038-.145-.075-.219-.111-.501-.246-1.007-.494-.664-1.208.298-.622.744-.444 1.207-.26.108.042.217.086.326.12l.233-.526c.179-.406.354-.803.536-1.197.205-.443.623-.6 1.045-.409.387.175.556.559.392.952a29.533 29.533 0 0 1-.665 1.495c-.118.245-.092.391.175.483Z"/><rect width="83" height="83" x="-.792" y="32.967" fill="#fff" stroke="#F0ECF3" rx="7.5" transform="rotate(-24 -.792 32.967)"/><path fill="#000" d="M28.766 67.777c.448-1.373.862-2.608 1.258-3.843.588-1.865 1.155-3.738 1.751-5.605.427-1.364.87-2.726 1.315-4.089.083-.247.108-.564.553-.587.006.163-.006.328-.037.489-.927 2.952-1.848 5.893-2.762 8.822-.366 1.144-.37 1.137.618 1.782 4.312 2.67 8.626 5.338 12.943 8.004.192.116.36.26.604.432a3.27 3.27 0 0 1-.448.33l-1.857.827a1.015 1.015 0 0 1-1.117-.089c-1.717-1.083-3.453-2.15-5.18-3.219l-6.06-3.774c-.209-.135-.43-.238-.702-.397-.322.792-.655 1.44-.25 2.31 1.265 2.703 2.43 5.46 3.648 8.193l.214.482c.228.511.192.589-.29.821l-1.996.889c-.352.191-.57.114-.734-.252L17.095 49.785c-.524-1.177-.459-1.03.59-1.506l1.177-.524c.819-.365.819-.365 1.207.487l8.697 19.535Zm33.787-15.121a16.12 16.12 0 0 1 1.262 5.568 9.942 9.942 0 0 1-3.64 8.013 12.409 12.409 0 0 1-7.102 2.97 9.008 9.008 0 0 1-8.75-4.232 16.048 16.048 0 0 1-2.76-7.44 9.767 9.767 0 0 1 2.62-7.883 12.223 12.223 0 0 1 9.07-3.899 8.67 8.67 0 0 1 7.62 4.016c.593.918 1.1 1.901 1.68 2.887Zm-2.99 1.27c-.377-.708-.745-1.359-1.105-2.048a11.529 11.529 0 0 0-2.562-3.317c-2.668-2.315-5.896-2.463-8.862-.432a6.832 6.832 0 0 0-2.654 4.483 12.08 12.08 0 0 0 .679 6.501c.446 1.26.99 2.481 1.627 3.655a13.182 13.182 0 0 0 2.671 3.6c2.92 2.624 6.25 2.647 9.247.332 1.955-1.51 2.532-3.754 2.543-6.089a16.951 16.951 0 0 0-1.6-6.722l.016.037Zm18.632-7.42-3.214-7.221a2.985 2.985 0 0 0-2.703-1.862 6.063 6.063 0 0 0-2.135.32 16.32 16.32 0 0 0-6.437 4.442c-.248.25-.24.248-.731.326.082-.186.182-.362.3-.528a18.945 18.945 0 0 1 5.712-4.338 17.152 17.152 0 0 1 4.23-1.516 4.408 4.408 0 0 1 5.154 2.548l5.915 13.287c.204.458.458.89.759 1.291a1.872 1.872 0 0 0 2.485.645c.269-.137.544-.26.826-.368.117-.052.282.024.485.047-.079.158-.09.25-.138.28a11.272 11.272 0 0 1-3.532 1.31 3.687 3.687 0 0 1-3.97-1.735c-.096.393-.157.709-.259.991a7.112 7.112 0 0 1-3.054 4.232 9.6 9.6 0 0 1-4.522 1.646 5.128 5.128 0 0 1-4.475-2.027 7.847 7.847 0 0 1-.899-1.29 3.823 3.823 0 0 1 .582-4.848 15.2 15.2 0 0 1 3.773-2.836 36.936 36.936 0 0 1 5.849-2.797Zm.198.56c-.385.099-.764.22-1.134.364a57.01 57.01 0 0 0-2.97 1.454 12.56 12.56 0 0 0-2.8 2.009 3.144 3.144 0 0 0-1.002 3.003 7.64 7.64 0 0 0 2.571 4.477 3.2 3.2 0 0 0 3.584.515c2.412-1.013 3.598-2.933 4.101-5.382a3 3 0 0 0-.269-1.903l-1.715-3.851c-.098-.202-.208-.389-.367-.686Z"/><path fill="#fff" stroke="#F0ECF3" d="M94 12.5h68a7.5 7.5 0 0 1 7.5 7.5v68a7.5 7.5 0 0 1-7.5 7.5H94a7.5 7.5 0 0 1-7.5-7.5V20a7.5 7.5 0 0 1 7.5-7.5Z"/><path fill="#000" d="M90 44h11.399v.902H91.045v6.773h9.708v.903h-9.708v7.437h10.449v.95H90V44Zm16.414 10.525-4.455-5.785h1.264l3.799 5.091 3.8-5.091h1.159l-4.408 5.785 4.816 6.393h-1.235l-4.17-5.7-4.265 5.7h-1.14l4.835-6.393Zm8.283-2.992c.123-.333.283-.652.475-.95a3.95 3.95 0 0 1 .874-1.007 4.607 4.607 0 0 1 1.32-.77 4.661 4.661 0 0 1 1.767-.313 5.323 5.323 0 0 1 2.499.447 5.117 5.117 0 0 1 1.709 1.396 6.04 6.04 0 0 1 1.007 2.042c.223.791.335 1.61.333 2.432a9.452 9.452 0 0 1-.333 2.564 5.76 5.76 0 0 1-1.007 2.014 4.68 4.68 0 0 1-1.709 1.311 5.864 5.864 0 0 1-2.442.475 5.547 5.547 0 0 1-2.707-.665 3.876 3.876 0 0 1-1.729-2.156v6.925h-.874V48.74h.817v2.793Zm4.493 8.881c.71.02 1.415-.133 2.052-.446a3.993 3.993 0 0 0 1.425-1.207 5.22 5.22 0 0 0 .826-1.766 7.86 7.86 0 0 0 .276-2.147 8.18 8.18 0 0 0-.257-2.042 5.873 5.873 0 0 0-.807-1.805 4.248 4.248 0 0 0-1.358-1.273 4.166 4.166 0 0 0-2.1-.494 4.241 4.241 0 0 0-2.07.475 4.093 4.093 0 0 0-1.387 1.254 5.294 5.294 0 0 0-.827 1.776 9.361 9.361 0 0 0-.237 2.09c-.001.705.072 1.409.218 2.1.117.637.355 1.247.703 1.794.351.52.824.943 1.378 1.235a4.613 4.613 0 0 0 2.175.456h-.01Zm8.502-8.976h.066c.123-.41.33-.788.608-1.112a4.32 4.32 0 0 1 1.064-.95 5.408 5.408 0 0 1 1.416-.532 5.558 5.558 0 0 1 1.595-.17v.892a4.52 4.52 0 0 0-1.624.143 4.008 4.008 0 0 0-1.738 1.045c-.219.237-.409.465-.58.684-.167.23-.307.478-.418.74-.111.29-.197.589-.256.894a6.856 6.856 0 0 0-.114 1.187v6.65h-.95V48.74h.95l-.019 2.698Zm5.728 3.505v.142a7.2 7.2 0 0 0 .285 2.043c.174.614.461 1.19.845 1.7.369.492.847.892 1.396 1.168a4.318 4.318 0 0 0 1.967.418 4.15 4.15 0 0 0 2.897-.95 5.026 5.026 0 0 0 1.434-2.669h.95a5.474 5.474 0 0 1-1.748 3.268 5.27 5.27 0 0 1-3.543 1.14 5.402 5.402 0 0 1-2.355-.485 4.908 4.908 0 0 1-1.691-1.33 5.699 5.699 0 0 1-1.007-1.985 9.07 9.07 0 0 1-.333-2.48 8.72 8.72 0 0 1 .342-2.45 6.37 6.37 0 0 1 1.036-2.061 5.131 5.131 0 0 1 1.7-1.425 5.701 5.701 0 0 1 4.749-.047 4.873 4.873 0 0 1 1.644 1.291 5.84 5.84 0 0 1 1.007 1.9c.233.75.348 1.532.342 2.318v.513l-9.917-.02Zm8.957-.78a7.478 7.478 0 0 0-.332-1.899 4.813 4.813 0 0 0-.846-1.567 4.177 4.177 0 0 0-1.358-1.074 3.963 3.963 0 0 0-1.814-.408 4.226 4.226 0 0 0-3.325 1.51 4.623 4.623 0 0 0-.874 1.577 7.253 7.253 0 0 0-.38 1.843l8.929.019Zm3.429 2.699a3.94 3.94 0 0 0 .38 1.51c.212.424.506.802.865 1.111.366.311.789.55 1.244.703a5.023 5.023 0 0 0 1.539.228c.426.01.851-.015 1.273-.076a4.296 4.296 0 0 0 1.254-.39c.373-.184.699-.455.95-.788.261-.378.395-.831.38-1.291a1.897 1.897 0 0 0-.618-1.539 4.275 4.275 0 0 0-1.548-.808 16.956 16.956 0 0 0-2.014-.465 9.917 9.917 0 0 1-2.014-.532 4.06 4.06 0 0 1-1.558-1.007 2.698 2.698 0 0 1-.617-1.9 2.66 2.66 0 0 1 .408-1.5 3.022 3.022 0 0 1 1.026-.95c.442-.246.92-.419 1.416-.514a8.648 8.648 0 0 1 1.557-.152 7.069 7.069 0 0 1 1.777.219 3.87 3.87 0 0 1 1.434.684c.409.32.735.733.95 1.206a4.2 4.2 0 0 1 .342 1.777h-.902a3.463 3.463 0 0 0-.266-1.425 2.547 2.547 0 0 0-.76-.95 3.572 3.572 0 0 0-1.15-.542 5.699 5.699 0 0 0-1.425-.18 6.994 6.994 0 0 0-1.244.123 3.493 3.493 0 0 0-1.121.4 2.457 2.457 0 0 0-.817.74 1.774 1.774 0 0 0-.323 1.083c.006.397.135.782.371 1.102.252.315.579.563.95.722.416.192.853.339 1.301.437l1.463.332c.598.114 1.159.238 1.691.39a4.96 4.96 0 0 1 1.377.617c.391.257.716.602.95 1.007a3.31 3.31 0 0 1 .266 1.596 2.768 2.768 0 0 1-.456 1.634 3.3 3.3 0 0 1-1.14 1.026 4.68 4.68 0 0 1-1.52.55 9.891 9.891 0 0 1-1.653.153 6.555 6.555 0 0 1-1.899-.276 4.346 4.346 0 0 1-1.549-.826 3.929 3.929 0 0 1-1.045-1.368 4.428 4.428 0 0 1-.399-1.9l.874.029Zm11.399 0c.016.525.145 1.04.38 1.51.208.426.503.804.864 1.111.366.313.788.552 1.245.703a5.023 5.023 0 0 0 1.539.228c.422.01.845-.015 1.263-.076a4.11 4.11 0 0 0 1.254-.39c.375-.182.701-.453.95-.788.266-.376.4-.83.38-1.291a1.9 1.9 0 0 0-.618-1.54 4.193 4.193 0 0 0-1.548-.807 16.511 16.511 0 0 0-2.014-.465 10.1 10.1 0 0 1-2.014-.532 4.019 4.019 0 0 1-1.548-1.007 2.698 2.698 0 0 1-.617-1.9 2.649 2.649 0 0 1 .399-1.5 3.117 3.117 0 0 1 1.035-.95 4.673 4.673 0 0 1 1.406-.514 8.758 8.758 0 0 1 1.567-.152 7.115 7.115 0 0 1 1.777.219c.519.128 1.007.36 1.434.684.407.322.732.735.95 1.206.249.558.369 1.166.351 1.777h-.902c.01-.49-.084-.975-.276-1.425a2.528 2.528 0 0 0-.76-.95 3.47 3.47 0 0 0-1.149-.542 5.604 5.604 0 0 0-1.415-.18 7.005 7.005 0 0 0-1.245.123 3.541 3.541 0 0 0-1.13.4 2.549 2.549 0 0 0-.817.74 1.821 1.821 0 0 0-.313 1.083c-.001.395.122.78.351 1.102.253.314.579.562.95.722a5.97 5.97 0 0 0 1.301.437l1.454.332c.598.114 1.168.238 1.69.39.488.134.953.342 1.378.617.394.253.721.599.95 1.007.226.5.324 1.049.285 1.596a2.852 2.852 0 0 1-.447 1.634 3.459 3.459 0 0 1-1.14 1.026c-.474.27-.991.456-1.529.55a9.887 9.887 0 0 1-1.643.153 6.64 6.64 0 0 1-1.9-.276 4.41 4.41 0 0 1-1.548-.826 4.033 4.033 0 0 1-1.045-1.368 4.726 4.726 0 0 1-.399-1.9l.864.029Z"/></g><defs><clipPath id="a"><path fill="#fff" d="M0 0h256v108H0z"/></clipPath></defs></svg>
