<svg xmlns="http://www.w3.org/2000/svg" width="304" height="157" fill="none"><g filter="url(#a)"><path fill="#512BD4" d="M25.8 60.815a8 8 0 0 1 4.054-10.562l62.121-27.658a8 8 0 0 1 10.563 4.054l27.658 62.121a8 8 0 0 1-4.055 10.563l-62.12 27.658a8 8 0 0 1-10.563-4.055L25.8 60.816Z"/><path fill="#EBE6EF" fill-rule="evenodd" d="m29.448 49.34 62.12-27.659a9 9 0 0 1 11.883 4.562l27.658 62.12a9 9 0 0 1-4.561 11.883l-62.121 27.658a9 9 0 0 1-11.883-4.561L24.886 61.222a9 9 0 0 1 4.562-11.883Zm.406.913A8 8 0 0 0 25.8 60.815l27.658 62.121a8 8 0 0 0 10.562 4.055l62.121-27.658a8 8 0 0 0 4.055-10.563l-27.658-62.12a8 8 0 0 0-10.563-4.055l-62.12 27.658Z" clip-rule="evenodd"/><path fill="#fff" d="M56.825 96.144a2.099 2.099 0 0 1-1.62.078 1.996 1.996 0 0 1-1.184-2.657 2.099 2.099 0 0 1 1.134-1.171 2.1 2.1 0 0 1 1.638-.063 1.975 1.975 0 0 1 1.183 2.657 2.1 2.1 0 0 1-1.151 1.156Zm21.55-9.963-3.529 1.572L59.035 77.23a7.124 7.124 0 0 1-1.098-.89l-.086.038c.506.862.951 1.758 1.332 2.682l5.821 13.074-3.127 1.393-8.879-19.943 3.76-1.674 15.399 10.293c.648.424 1.05.682 1.285.899l.048-.021c-.505-.843-.95-1.72-1.33-2.626L66.437 67.6l3.108-1.384 8.83 19.964Zm15.195-6.765-10.916 4.86-8.879-19.942 10.484-4.668 1.252 2.81-7.261 3.234 2.515 5.65 6.715-2.99 1.242 2.791-6.714 2.99 2.626 5.899 7.674-3.417 1.262 2.783Zm7.893-24.042-5.592 2.49 7.627 17.132-3.233 1.44-7.627-17.133-5.573 2.482-1.251-2.81 14.388-6.407 1.261 2.806Z"/></g><g filter="url(#b)"><path fill="#fff" d="M201.462 26.629a8 8 0 0 1 10.563-4.055l62.121 27.658a8 8 0 0 1 4.054 10.563l-27.658 62.121a8 8 0 0 1-10.562 4.054l-62.121-27.658a8 8 0 0 1-4.055-10.562l27.658-62.121Z"/><path fill="#EBE6EF" fill-rule="evenodd" d="m212.431 21.66 62.121 27.659a9 9 0 0 1 4.562 11.882l-27.658 62.121a9.001 9.001 0 0 1-11.883 4.562l-62.121-27.658a9 9 0 0 1-4.561-11.883l27.658-62.121a9 9 0 0 1 11.882-4.561Zm-.406.914a8 8 0 0 0-10.563 4.055l-27.658 62.12a8 8 0 0 0 4.055 10.563l62.121 27.658a8 8 0 0 0 10.562-4.054L278.2 60.795a8 8 0 0 0-4.054-10.563l-62.121-27.658Z" clip-rule="evenodd"/><path fill="#F37B21" d="m224.928 58.464 1.078 43.925 12.511 5.57 4.891-10.985-4.834-2.152-1.085-44.242-15.451-6.879-5.007 11.247 7.897 3.516Zm-19.45 34.785 13.489-11.839-.403-16.402-25.663 22.642 12.577 5.6Z"/></g><g filter="url(#c)"><path fill="#512BD4" d="M110.001 41.772a8 8 0 0 1 8-8h68a8 8 0 0 1 8 8v68a8 8 0 0 1-8 8h-68a8 8 0 0 1-8-8v-68Z"/><path fill="#EBE6EF" fill-rule="evenodd" d="M118.001 32.772h68a9 9 0 0 1 9 9v68a9 9 0 0 1-9 9h-68a9 9 0 0 1-9-9v-68a9 9 0 0 1 9-9Zm0 1a8 8 0 0 0-8 8v68a8 8 0 0 0 8 8h68a8 8 0 0 0 8-8v-68a8 8 0 0 0-8-8h-68Z" clip-rule="evenodd"/><path fill="#fff" d="M123.974 86.666a2.104 2.104 0 0 1-1.977-1.25 2 2 0 0 1 .465-2.247 2.101 2.101 0 0 1 1.512-.609 2.097 2.097 0 0 1 1.523.61 1.978 1.978 0 0 1 .472 2.248 1.98 1.98 0 0 1-.472.66 2.11 2.11 0 0 1-1.523.588Zm23.741-.336h-3.864l-10.164-16.044a7.097 7.097 0 0 1-.641-1.26h-.094c.111.993.153 1.993.126 2.992V86.33h-3.423V64.5h4.116l9.88 15.666c.42.651.683 1.05.809 1.344h.052a20.633 20.633 0 0 1-.147-2.94V64.5h3.402l-.052 21.83Zm16.632 0h-11.949V64.5h11.476v3.077h-7.948v6.184h7.35v3.056h-7.35v6.457h8.4l.021 3.056Zm16.989-18.753h-6.122V86.33h-3.538V67.577h-6.101V64.5h15.75l.011 3.077Z"/></g><defs><filter id="a" width="155.784" height="155.784" x=".106" y=".901" color-interpolation-filters="sRGB" filterUnits="userSpaceOnUse"><feFlood flood-opacity="0" result="BackgroundImageFix"/><feColorMatrix in="SourceAlpha" result="hardAlpha" values="0 0 0 0 0 0 0 0 0 0 0 0 0 0 0 0 0 0 127 0"/><feOffset dy="4"/><feGaussianBlur stdDeviation="12"/><feComposite in2="hardAlpha" operator="out"/><feColorMatrix values="0 0 0 0 0.168627 0 0 0 0 0.133333 0 0 0 0 0.2 0 0 0 0.12 0"/><feBlend in2="BackgroundImageFix" result="effect1_dropShadow_202_4113"/><feBlend in="SourceGraphic" in2="effect1_dropShadow_202_4113" result="shape"/></filter><filter id="b" width="155.784" height="155.784" x="148.11" y=".88" color-interpolation-filters="sRGB" filterUnits="userSpaceOnUse"><feFlood flood-opacity="0" result="BackgroundImageFix"/><feColorMatrix in="SourceAlpha" result="hardAlpha" values="0 0 0 0 0 0 0 0 0 0 0 0 0 0 0 0 0 0 127 0"/><feOffset dy="4"/><feGaussianBlur stdDeviation="12"/><feComposite in2="hardAlpha" operator="out"/><feColorMatrix values="0 0 0 0 0.168627 0 0 0 0 0.133333 0 0 0 0 0.2 0 0 0 0.12 0"/><feBlend in2="BackgroundImageFix" result="effect1_dropShadow_202_4113"/><feBlend in="SourceGraphic" in2="effect1_dropShadow_202_4113" result="shape"/></filter><filter id="c" width="134" height="134" x="85.001" y="12.772" color-interpolation-filters="sRGB" filterUnits="userSpaceOnUse"><feFlood flood-opacity="0" result="BackgroundImageFix"/><feColorMatrix in="SourceAlpha" result="hardAlpha" values="0 0 0 0 0 0 0 0 0 0 0 0 0 0 0 0 0 0 127 0"/><feOffset dy="4"/><feGaussianBlur stdDeviation="12"/><feComposite in2="hardAlpha" operator="out"/><feColorMatrix values="0 0 0 0 0.168627 0 0 0 0 0.133333 0 0 0 0 0.2 0 0 0 0.12 0"/><feBlend in2="BackgroundImageFix" result="effect1_dropShadow_202_4113"/><feBlend in="SourceGraphic" in2="effect1_dropShadow_202_4113" result="shape"/></filter></defs></svg>