<svg xmlns="http://www.w3.org/2000/svg" fill="none" viewBox="0 0 256 108"><g clip-path="url(#a)"><rect width="83" height="83" x="180.967" y="-.792" fill="#fff" stroke="#F0ECF3" rx="7.5" transform="rotate(24 180.967 -.792)"/><path fill="#069C02" d="M206.104 43.543c-7.08-3.152-14.145-7.994-12.793-11.032 1.352-3.037 9.647-1.05 16.762 2.119 7.115 3.167 14.138 7.991 12.783 11.035-1.356 3.045-9.636 1.046-16.752-2.122Zm3.19-7.165c-8.595-3.827-13.872-3.902-14.234-3.088-.363.814 3.228 4.678 11.823 8.505 8.595 3.826 13.865 3.899 14.224 3.092.359-.807-3.225-4.685-11.813-8.509Z"/><path fill="#069C02" d="m195.815 66.652-.509-.227c-6.37-3.243-8.287-7.93-8.365-8.135-3.158-6.607 5.991-25.023 6.397-25.8l1.714.856c-2.547 5.092-8.621 19.364-6.341 24.188.042.095 1.785 4.298 7.479 7.19.272.138.551.262.836.372 5.952 2.294 10.249.78 10.29.763 5.197-1.537 11.71-15.612 13.783-20.916l1.784.7c-.357.8-7.878 19.941-14.962 22.039-.14.047-4.91 1.767-11.582-.797l-.524-.233Z"/><path fill="#069C02" d="m194.605 69.371-.411-.183a22.68 22.68 0 0 1-4.919-3.166 6.75 6.75 0 0 1-1.872-7.552l1.749.779a4.84 4.84 0 0 0 1.393 5.388 20.939 20.939 0 0 0 4.484 2.887l.665.296a21.073 21.073 0 0 0 5.109 1.426 4.88 4.88 0 0 0 4.998-2.652l1.749.778a6.776 6.776 0 0 1-6.911 3.71 22.81 22.81 0 0 1-5.627-1.521l-.407-.19Zm17.607-5.65.581-1.82c2.352.653 4.834.672 7.195.057 3.178-.698 5.383-3.058 6.217-6.666.764-3.316-5.117-6.036-5.79-6.336l.782-1.756c1.883.839 7.93 3.93 6.869 8.522-1.004 4.371-3.756 7.236-7.665 8.108-2.69.694-5.517.657-8.189-.108Z"/><path fill="#069C02" d="m214.255 60.924.556-1.84c1.507.327 3.06.387 4.588.177 1.958-.265 3.126-1.459 3.794-3.893.329-1.177-1.101-2.594-3.846-3.765l-.135-.06.779-1.749.333.148c4.899 2.181 5.051 4.641 4.699 5.927-.884 3.186-2.645 4.913-5.394 5.276a14.96 14.96 0 0 1-5.374-.221Z"/><path fill="#069C02" d="M192.836 74.581c-15.88-7.07-25.798-18.272-22.554-25.558 2.102-4.722 9.232-6.578 19.074-4.962l-.307 1.89c-8.8-1.44-15.291.047-16.99 3.864-2.73 6.055 7.155 16.606 21.556 23.018 14.401 6.411 28.857 6.697 31.558.63 1.223-2.748-.091-6.522-3.679-10.64l1.414-1.27c4.164 4.73 5.568 9.198 4.014 12.688-3.234 7.264-18.205 7.41-34.086.34Z"/><path fill="#069C02" d="M219.532 60.77a43.062 43.062 0 0 0-3.683-3.158l1.163-1.526a45.319 45.319 0 0 1 3.871 3.31l-1.351 1.375Zm-25.797 11.794c-9.558-4.256-15.416-10.495-13.613-14.545.882-1.982 3.466-3.003 7.265-2.865l-.071 1.911c-2.922-.104-4.903.532-5.438 1.736-1.116 2.506 3.808 8.041 12.651 11.978 8.843 3.938 16.223 3.957 17.355 1.416.586-1.317-.513-3.478-2.945-5.79l1.315-1.392c3.145 2.978 4.344 5.811 3.386 7.963-1.791 4.022-10.347 3.843-19.905-.412Z"/><rect width="83" height="83" x="-.792" y="32.967" fill="#fff" stroke="#F0ECF3" rx="7.5" transform="rotate(-24 -.792 32.967)"/><path fill="#6DB33F" d="M65.39 23.067c.059 2.02-.145 4.04-.603 6.008a27.919 27.919 0 0 0-20.918 51.77c.486.213.987.39 1.5.528l1.322.423a27.915 27.915 0 0 0 33.978-36.323c-2.094-6.684-7.709-14.045-15.278-22.406ZM49.17 79.995a2.373 2.373 0 1 1-1.672-2.91 2.422 2.422 0 0 1 1.672 2.91Zm31.135-23.003c-2.537 11.152-17.281 14.314-25.669 18.554 0 0-1.482.783-2.917 1.674 0 0 .465-.52 1.084-1.11 5.12-4.8 7.757-6.519 10.608-10.026 5.332-6.596 8.78-17.403 6.603-26.027.789 8.844-4.257 19.06-10.335 24.976-4.193 4.074-12.386 9.905-12.386 9.905l-.458-.048c-7.431-.324-13.573-13.481-4.313-22.715 4.044-4.1 9.153-5.086 13.912-8.715 5.048-3.826 9.688-10.941 9.869-17.642 6.883 7.594 16.63 19.782 14.002 31.174Z"/><path fill="#fff" d="M80.304 56.992c-2.537 11.152-17.281 14.314-25.669 18.554 0 0-1.482.783-2.917 1.674 0 0 .465-.52 1.084-1.11 5.12-4.8 7.757-6.519 10.608-10.026 5.332-6.596 8.78-17.403 6.603-26.027.789 8.844-4.257 19.06-10.335 24.976-4.193 4.074-12.386 9.905-12.386 9.905l-.458-.048c-7.431-.324-13.573-13.481-4.313-22.715 4.044-4.1 9.153-5.086 13.912-8.715 5.048-3.826 9.688-10.941 9.869-17.642 6.883 7.594 16.63 19.782 14.002 31.174ZM49.168 79.996a2.373 2.373 0 1 1-1.67-2.911 2.422 2.422 0 0 1 1.67 2.91Z"/><path fill="#fff" stroke="#F0ECF3" d="M94 12.5h68a7.5 7.5 0 0 1 7.5 7.5v68a7.5 7.5 0 0 1-7.5 7.5H94a7.5 7.5 0 0 1-7.5-7.5V20a7.5 7.5 0 0 1 7.5-7.5Z"/><path fill="#65A741" fill-rule="evenodd" d="M140.879 27.871h-25.758a4.242 4.242 0 0 0-3.675 2.123L98.568 52.3a4.253 4.253 0 0 0 0 4.246l12.878 22.307a4.244 4.244 0 0 0 3.675 2.122h25.758a4.242 4.242 0 0 0 3.675-2.122l12.878-22.307a4.252 4.252 0 0 0 0-4.245l-12.878-22.307a4.244 4.244 0 0 0-3.675-2.123ZM128 55.668a1.695 1.695 0 0 1-1.695-1.695V37.6a1.694 1.694 0 1 1 3.39 0v16.374A1.694 1.694 0 0 1 128 55.668Zm-9.76 10.395a15.863 15.863 0 0 0 9.76 3.361 15.863 15.863 0 0 0 7.463-29.86 1.703 1.703 0 0 0-2.431 1.994 1.7 1.7 0 0 0 .826 1.007 12.464 12.464 0 0 1 6.237 14.022 12.468 12.468 0 0 1-24.19 0 12.463 12.463 0 0 1 6.237-14.022 1.702 1.702 0 1 0-1.605-3 15.86 15.86 0 0 0-7.923 17.842 15.864 15.864 0 0 0 5.626 8.656Z" clip-rule="evenodd"/></g><defs><clipPath id="a"><path fill="#fff" d="M0 0h256v108H0z"/></clipPath></defs></svg>
