<svg xmlns="http://www.w3.org/2000/svg" fill="none" viewBox="0 0 256 108"><g clip-path="url(#a)"><rect width="83" height="83" x="180.967" y="-.792" fill="#fff" stroke="#F0ECF3" rx="7.5" transform="rotate(24 180.967 -.792)"/><path fill="#2DBCAF" d="M175.674 37.625c-.109.07-.106.15.026.209l11.563 5.217a.538.538 0 0 0 .404-.047l.909-.58c.109-.07.12-.183-.011-.241l-11.424-5.087a.497.497 0 0 0-.427.008l-1.04.521ZM169.564 38.43c-.109.07-.106.15.026.209l15.154 6.707a.304.304 0 0 0 .371-.06l.599-.66c.077-.084.051-.203-.072-.258l-14.597-6.499a.5.5 0 0 0-.423-.001l-1.058.563ZM176.016 44.8c-.11.069-.117.174.006.228l6.974 3.115a.271.271 0 0 0 .329-.12l.402-.746c.054-.123.041-.248-.091-.306l-6.402-2.85a.461.461 0 0 0-.409.054l-.809.624Z"/><path fill="#2DBCAF" fill-rule="evenodd" d="M209.086 52.855c.951.153 1.906.305 3.037.496.434.085.639-.02.57-.396.06-2.18-.534-4.328-1.706-6.166a12.086 12.086 0 0 0-7.783-5.346 15.547 15.547 0 0 0-11.425 1.55 13.788 13.788 0 0 0-6.904 8.163 11.015 11.015 0 0 0 .903 8.921 12.402 12.402 0 0 0 7.673 5.947 14.583 14.583 0 0 0 11.545-1.379 14.892 14.892 0 0 0 2.306-1.569 11.023 11.023 0 0 0 .984 6.412 13.144 13.144 0 0 0 6.565 6.29c.313.1.63.212.95.324.569.2 1.146.402 1.723.552 3.168.74 6.486.5 9.514-.688a13.55 13.55 0 0 0 8.516-9.218 10.92 10.92 0 0 0-1.336-9.143c-1.94-3.14-4.847-4.817-8.391-5.706a14.69 14.69 0 0 0-11.349 1.358 13.379 13.379 0 0 0-4.072 3.17l-10.264-4.57a.896.896 0 0 0-1.048.144c-.834.634-2.337 1.954-3.199 2.762-.456.447-.494.932.18 1.232l6.188 2.755-.459.272c-.325.194-.624.372-.93.528a6.5 6.5 0 0 1-6.39-.314 5.49 5.49 0 0 1-2.075-6.951 7.455 7.455 0 0 1 5.995-4.618 6.09 6.09 0 0 1 5.965 2.084c.462.547.791 1.192.963 1.886.198.635.242.642.718.723l.068.011c1.096.185 2.03.335 2.968.484Zm19.513 12.283a9.76 9.76 0 0 1-.373 1.104 7.682 7.682 0 0 1-6.832 4.286 6.417 6.417 0 0 1-5.303-2.135 5.764 5.764 0 0 1-.249-7.36 7.643 7.643 0 0 1 8.078-3.08 5.795 5.795 0 0 1 3.932 2.555 5.788 5.788 0 0 1 .747 4.63Z" clip-rule="evenodd"/><rect width="83" height="83" x="-.792" y="32.967" fill="#fff" stroke="#F0ECF3" rx="7.5" transform="rotate(-24 -.792 32.967)"/><path fill="#2DBCAF" d="M24.751 62.369c-.021.128.04.179.172.12l11.614-5.102a.54.54 0 0 0 .237-.332l.176-1.063c.022-.128-.055-.212-.186-.153L25.34 60.925a.494.494 0 0 0-.28.322l-.309 1.122ZM21.262 67.448c-.022.128.04.18.171.12l15.125-6.773a.305.305 0 0 0 .203-.317l-.089-.886c-.01-.113-.117-.174-.24-.12l-14.597 6.5a.506.506 0 0 0-.284.313l-.29 1.163ZM30.311 66.915c-.022.128.051.204.175.149l6.981-3.099a.27.27 0 0 0 .131-.324l-.286-.798c-.055-.124-.156-.197-.288-.138l-6.402 2.85a.459.459 0 0 0-.233.34l-.078 1.02Z"/><path fill="#2DBCAF" fill-rule="evenodd" d="M58.426 47.73c.75-.605 1.502-1.213 2.4-1.925.355-.266.413-.49.088-.69a10.912 10.912 0 0 0-5.724-2.857 12.081 12.081 0 0 0-9.181 2.206 15.547 15.547 0 0 0-6.492 9.529 13.792 13.792 0 0 0 1.446 10.592 11.012 11.012 0 0 0 7.234 5.298 12.397 12.397 0 0 0 9.554-1.723 14.582 14.582 0 0 0 6.7-9.502c.213-.911.339-1.836.377-2.764a11.012 11.012 0 0 0 5.423 3.56c3.006.862 6.221.625 9.068-.67.284-.165.579-.326.876-.49.53-.289 1.066-.582 1.563-.91a16.06 16.06 0 0 0 5.855-7.532 13.55 13.55 0 0 0-1.152-12.496 10.921 10.921 0 0 0-7.688-5.125c-3.632-.658-6.823.379-9.855 2.418a14.692 14.692 0 0 0-6.585 9.342 13.37 13.37 0 0 0-.368 5.148L51.7 53.709a.9.9 0 0 0-.596.875c-.086 1.043-.112 3.044-.088 4.225.028.638.362.99 1.036.69l6.19-2.755c-.039.182-.073.356-.106.523-.074.372-.141.713-.23 1.045a6.497 6.497 0 0 1-4.51 4.538 5.488 5.488 0 0 1-6.554-3.108 7.458 7.458 0 0 1 .58-7.546 6.09 6.09 0 0 1 5.54-3.038 4.66 4.66 0 0 1 2.046.547c.604.277.64.249 1.018-.05l.054-.043c.87-.691 1.606-1.285 2.345-1.882Zm22.185-6.283c.21.328.401.667.571 1.017a7.683 7.683 0 0 1-1.387 7.944 6.415 6.415 0 0 1-5.135 2.513 5.767 5.767 0 0 1-5.635-4.74 7.647 7.647 0 0 1 3.116-8.064 5.785 5.785 0 0 1 8.47 1.33Z" clip-rule="evenodd"/><path fill="#fff" stroke="#F0ECF3" d="M94 12.5h68a7.5 7.5 0 0 1 7.5 7.5v68a7.5 7.5 0 0 1-7.5 7.5H94a7.5 7.5 0 0 1-7.5-7.5V20a7.5 7.5 0 0 1 7.5-7.5Z"/><path fill="#828282" d="m97.013 29.473 8.856-5.001 8.69 5-9.024 5.002-8.522-5.001ZM107.708 35.64l8.856-5.167 8.857 5.168-9.024 4.834-8.689-4.834Z"/><path fill="#C6C6C6" d="m130.267 35.474 8.857-5.168 8.689 5.168-9.024 5.001-8.522-5.001ZM141.296 29.306l8.857-5.168 8.69 5.168-9.024 4.834-8.523-4.834Z"/><path fill="#00AFD1" d="M95.676 31.14v11.002l8.856 5.001V36.307l-8.856-5.167ZM106.705 37.308V48.31l9.024 4.834V42.475l-9.024-5.167ZM117.567 43.142v11.002l8.857 4.835v-10.67l-8.857-5.167Z"/><path fill="#4AE1FF" d="M159.678 31.306V42.31l-9.024 5V36.475l9.024-5.167ZM148.482 37.474v11.003l-8.857 4.834V42.642l8.857-5.168ZM137.62 43.309V54.31l-8.857 4.834V48.477l8.857-5.168Z"/><path fill="#00AFD1" d="M95.676 44.31V55.31l8.856 4.835v-10.67l-8.856-5.167ZM106.705 50.31v11.002l9.024 5.002v-10.67l-9.024-5.334ZM117.567 56.145v11.002l8.857 4.834V61.313l-8.857-5.168Z"/><path fill="#4AE1FF" d="M159.678 44.476v11.002l-9.024 4.834V49.644l9.024-5.168ZM148.482 50.644v11.002l-8.857 4.834V55.811l8.857-5.167ZM137.62 56.311v11.003l-8.857 4.834V61.479l8.857-5.168Z"/><path fill="#00AFD1" d="M95.676 57.312v11.002l8.856 5V62.48l-8.856-5.167ZM106.705 63.48v11.002l9.024 4.834V68.647l-9.024-5.167ZM117.567 69.314v11.002l8.857 4.834V74.482l-8.857-5.168Z"/><path fill="#4AE1FF" d="M159.678 57.478v11.003l-9.024 5V62.813l9.024-5.335ZM148.482 63.646v11.002l-8.857 4.835V68.814l8.857-5.168ZM137.62 69.48v11.003l-8.857 4.834V74.65l8.857-5.168Z"/><path fill="#828282" d="m127.76 36.474-8.856 5.168 8.689 4.834.167-10.002Z"/><path fill="#C6C6C6" d="m127.76 36.474-.167 10.002 8.857-4.834-8.69-5.168Z"/></g><defs><clipPath id="a"><path fill="#fff" d="M0 0h256v108H0z"/></clipPath></defs></svg>
