<svg xmlns="http://www.w3.org/2000/svg" width="2in" height="1.71in" viewBox="0 0 143.67 123.43">
    <path
        d="M141.06,47.11C138.72,37,122.62,24.62,115.14,21.39S94,12.1,74.54,12.67s-30.86,8.68-30.86,8.68l-1.3-1.8c6.66-4.92,7.75-10.26,8-12.28S45.81.58,36.75.53,15.37,3,7.61,10.44s-9.74,18.16,0,20.78S32.39,26.5,32.39,26.5l3.12,2.09c-3,3.15-6.65,11.68-6.65,11.68L22,68c-1.79,16.79,5.33,26.29,12.35,33.12,7.65,7.43,31.41,23.07,67.58,19,28.69-3.23,34.52-14.78,37.08-18.41s2.68-10.2,2.68-10.2l1.52-31.41C143.46,54.19,142.52,53.43,141.06,47.11ZM38.78,14.58s-7.4,1-9,7.61l1.11,1S21.18,25.52,15,25.07s-8.8-2.28-6.11-7.93S21.59,7.29,21.59,7.29A49,49,0,0,1,36,4.5c7.42-.15,9,2.33,9,3.62s-.35,5.3-4,9.58Z"
        fill="#fff" />
    <path
        d="M20.48,79.19,27,60.66S34.34,99.12,94.09,99.4c29.87.13,43.44-13.58,49.55-27.32l-.44,26.77s-9.94,21.38-44.2,24.28C68.71,125.7,27,111.88,20.48,79.19Z"
        fill="#b29dd2" opacity="0.5" />
    <path d="M30.79,23.09a9.5,9.5,0,0,1,4.14-5.46s5.76,5.88,5.58,5.88A35.5,35.5,0,0,0,36,28Z" fill="#e7e1ec" />
    <path
        d="M31.22,26s-13,3.44-21.79.1c-9.61-3.63,0-12.53,4.22-15.5C17.38,8,23.31,5.74,30.18,5.09c7.32-.7,11.89,1.15,12.59,1.44,1.94.8,4.19,2.26,3.36.25C45,4,39.89,2.45,31.18,2.85,23.52,3.2,13,7.53,8.55,11.1c-6.17,5-10.11,10.51-8,16.29,2.64,7.08,13.93,5.89,17.86,4.81S28.76,28.86,31.22,26Z"
        fill="#b29dd2" opacity="0.5" />
    <path
        d="M38.16,55.19S33.71,42.76,47.22,31.1s37.5-10.37,54.94-4.91c20.11,6.29,28.42,19,30.24,25.93,1.53,5.84-.31,12.74-.31,12.74s-3.54-18.57-21.18-26.4c-19-8.44-32.54-8.13-43.74-6.13S47.22,39.23,38.16,55.19Z"
        fill="#b29dd2" opacity="0.5" />
    <polygon points="61.63 33.34 62.24 50.19 82.63 41.28 61.63 33.34" fill="#ebb432" />
    <polygon points="97.16 73.63 114.98 65.09 117.18 80.47 97.16 73.63" fill="#ebb432" />
    <polygon
        points="101.89 47.56 107.45 52.5 112.56 52.37 118.54 49.11 118.29 44.51 114.15 41.37 107.54 41.54 103.14 43.42 101.89 47.56"
        fill="#e1557a" />
    <polygon
        points="51.92 71.89 53.21 67.06 58.43 64.89 64.63 64.77 69.1 68.5 68.07 74.35 62.52 77.48 58.49 77.48 51.92 71.89"
        fill="#e1557a" />
    <path
        d="M11.92,32.16A16.81,16.81,0,0,1,6,31.22C2.62,30,.65,27.6.28,24.44-.37,18.85,4.19,11.58,11.36,6.76,20.77.44,35.93-1.06,42.24.67c5.7,1.58,8.59,4,8.59,7.34,0,2.77-3.49,7.88-8.13,11.89a.51.51,0,0,1-.71,0,.51.51,0,0,1,0-.71c4.88-4.21,7.79-9,7.79-11.13,0-2.79-2.64-4.93-7.86-6.37-6-1.65-21-.12-30.06,6C5,12.21.67,19.09,1.27,24.32c.32,2.77,2.08,4.83,5.07,6,9.62,3.64,28-5.25,28.21-5.34a.5.5,0,0,1,.44.9C34.35,26.15,21.9,32.16,11.92,32.16Z"
        fill="#2f1d4a" />
    <path
        d="M16,25.54c-5.48,0-8.46-1.38-8.88-4.11a.5.5,0,0,1,.42-.57.5.5,0,0,1,.57.42c.36,2.34,3.57,3.47,9.31,3.23,10.78-.43,15.66-2.58,15.71-2.61A2.64,2.64,0,0,1,35,21.76a2.58,2.58,0,0,1,1.47,1.5.5.5,0,0,1-.26.66.49.49,0,0,1-.66-.26,1.62,1.62,0,0,0-.87-.95,1.57,1.57,0,0,0-1.09.09c-.23.11-5.1,2.27-16.11,2.71Z"
        fill="#2f1d4a" />
    <path
        d="M8.52,18.17a.45.45,0,0,1-.25-.07.5.5,0,0,1-.19-.68c3-5.46,9.7-10,17.36-11.89C33.27,3.62,42.52,2.9,45,6.62c1.63,2.45-.41,6.64-2.41,9.73a.5.5,0,0,1-.69.15.49.49,0,0,1-.15-.69c1.21-1.87,3.87-6.45,2.42-8.63C42.12,4.09,33.4,4.61,25.68,6.5,18.27,8.31,11.87,12.68,9,17.91A.51.51,0,0,1,8.52,18.17Z"
        fill="#2f1d4a" />
    <path
        d="M29.81,22.66h-.09a.5.5,0,0,1-.4-.58c0-.06,1.32-6.84,9.38-8a.52.52,0,0,1,.48.21L44.07,21a.5.5,0,0,1-.11.7.51.51,0,0,1-.7-.11l-4.71-6.52c-7.06,1.18-8.2,6.92-8.25,7.16A.5.5,0,0,1,29.81,22.66Z"
        fill="#2f1d4a" />
    <path
        d="M35.51,29.05a.5.5,0,0,1-.32-.11l-1.47-1.18a.49.49,0,0,1-.08-.7.5.5,0,0,1,.7-.08l1.48,1.18a.5.5,0,0,1-.31.89Z"
        fill="#2f1d4a" />
    <path
        d="M93.56,97.62a119.05,119.05,0,0,1-21.88-2.2C30.3,87.7,26.34,55.27,26.31,54.94,25.35,46,28.77,32,41.59,22.08c10.83-8.42,28.23-11.71,47.73-9a79.6,79.6,0,0,1,10.34,2.15.51.51,0,0,1,.35.62.5.5,0,0,1-.61.35A78.33,78.33,0,0,0,89.19,14c-19.24-2.64-36.37.58-47,8.83-13.36,10.39-15.65,25-14.9,32,0,.31,3.9,32,44.57,39.6,34.94,6.52,51.17-2.92,60.34-10.6,13-10.84,11.68-30.54,6.73-40.43-5.06-10.11-18.1-19.89-34-25.52a.49.49,0,0,1-.3-.63.51.51,0,0,1,.64-.31c16.17,5.71,29.43,15.68,34.59,26a35.62,35.62,0,0,1,2.7,25c-1.7,6.68-5.41,13.05-9.68,16.62C125.71,90.59,114.36,97.62,93.56,97.62Z"
        fill="#2f1d4a" />
    <path
        d="M89.42,89.82a98.46,98.46,0,0,1-11.63-.63C72.19,88.44,55.36,84,44.84,72.4c-7.38-8.12-10.08-20.93-9.13-26.68l.49.08-.49-.08c1-5.91,5-12.11,10.8-16.59,8-6.22,19-9.3,32.58-9.16,31.39.32,48.41,17,52.33,23.34,4.27,7,9.49,20.74-3.53,34.71C118.61,88,101.08,89.82,89.42,89.82ZM78.57,21C65.21,21,40,26.13,36.69,45.88c-.8,4.88,1.48,17.69,8.89,25.84C55.9,83.07,72.43,87.46,77.92,88.2c.35,0,35,4.46,49.24-10.86,12.57-13.49,7.53-26.78,3.4-33.51C126.73,37.58,110,21.28,79.09,21Z"
        fill="#2f1d4a" />
    <path
        d="M85.21,58.36a9.91,9.91,0,0,1-2-.21,6.71,6.71,0,0,1-4.46-3,3.72,3.72,0,0,1-.3-3.15c.84-2.36,4.68-3.13,7.55-2.24,4.75,1.47,4.4,4.9,4.28,5.57a3.14,3.14,0,0,1-1.39,2A6.74,6.74,0,0,1,85.21,58.36Zm-1.7-7.94c-1.94,0-3.68.74-4.1,1.94h0a2.7,2.7,0,0,0,.22,2.33,5.76,5.76,0,0,0,3.8,2.48,6.78,6.78,0,0,0,4.91-.6,2.11,2.11,0,0,0,1-1.38c.13-.75.27-3.26-3.58-4.44A7.36,7.36,0,0,0,83.51,50.42Zm-4.57,1.77h0Z"
        fill="#2f1d4a" />
    <path
        d="M89.38,53.29a.51.51,0,0,1-.5-.43L86.33,36.79,79.92,51.54a.5.5,0,0,1-.91-.39L86.1,34.82a.48.48,0,0,1,.52-.29.48.48,0,0,1,.43.41l2.82,17.77a.5.5,0,0,1-.42.57Z"
        fill="#2f1d4a" />
    <path
        d="M115.13,82,115,82,92.33,74.46A.51.51,0,0,1,92,74a.5.5,0,0,1,.29-.48l19.56-9.16a.49.49,0,0,1,.44,0,.52.52,0,0,1,.26.35l3.08,16.71a.49.49,0,0,1-.49.59Zm-21.3-8.12,20.65,6.88-2.81-15.24Z"
        fill="#2f1d4a" />
    <path
        d="M60.38,50.42a.52.52,0,0,1-.27-.07.51.51,0,0,1-.23-.4l-.69-15.29a.49.49,0,0,1,.19-.42.51.51,0,0,1,.46-.08l20.33,6.78a.48.48,0,0,1,.34.45.49.49,0,0,1-.3.48L60.58,50.38A.48.48,0,0,1,60.38,50.42Zm-.16-15.08.62,13.84,17.78-7.71Z"
        fill="#2f1d4a" />
    <path
        d="M132.55,71.3h-.09a.5.5,0,0,1-.4-.58l0-.22c.85-4.91,1.66-9.55-4-18.41-5.93-9.27-18-17.22-31.44-20.73C76.42,26.06,58,30.51,49.36,36.89,42.69,41.83,39.84,47.32,38.62,51a.5.5,0,0,1-.63.32.49.49,0,0,1-.32-.63c1.26-3.86,4.21-9.54,11.09-14.65,8.77-6.51,27.59-11.07,48.17-5.7,13.7,3.58,26,11.69,32,21.16,5.87,9.19,5,14.24,4.13,19.12l0,.22A.49.49,0,0,1,132.55,71.3Z"
        fill="#2f1d4a" />
    <path d="M142.51,74.13h0a.5.5,0,0,1-.48-.52L142.67,60a.5.5,0,1,1,1,.05L143,73.66A.49.49,0,0,1,142.51,74.13Z"
        fill="#2f1d4a" />
    <path
        d="M142,85.13h0a.5.5,0,0,1-.48-.52l.17-3.45a.51.51,0,0,1,.52-.48.5.5,0,0,1,.48.53l-.17,3.45A.49.49,0,0,1,142,85.13Z"
        fill="#2f1d4a" />
    <path
        d="M90.55,121.22c-16.33,0-35-3.84-50.23-14.57C28.15,98.1,23.67,88,22.06,81.08a32.82,32.82,0,0,1-.59-13.21l6.9-27.75a.48.48,0,0,1,.6-.36.49.49,0,0,1,.37.6L22.45,68.09c0,.2-4.3,21.75,18.44,37.74C62,120.66,89.61,122.15,108.44,118.6c15.2-2.86,31.76-11.11,32.64-25.66l.21-4.29a.51.51,0,0,1,.52-.47.5.5,0,0,1,.48.52L142.08,93c-.92,15.14-17.88,23.66-33.45,26.6A98.67,98.67,0,0,1,90.55,121.22Z"
        fill="#2f1d4a" />
    <path
        d="M92.64,102.71c-1.09,0-2.19,0-3.28-.06C68,101.8,50.69,95.53,37.87,84A39.58,39.58,0,0,1,24.65,55.14a.48.48,0,0,1,.52-.48.5.5,0,0,1,.47.53,38.66,38.66,0,0,0,12.9,28.09c12.64,11.35,29.75,17.53,50.86,18.37,22.82.92,49-8.64,52.62-28.11a.51.51,0,0,1,.58-.4.5.5,0,0,1,.41.58c-1.68,9.12-8.17,16.76-18.79,22.09C115.28,100.3,104.17,102.71,92.64,102.71Z"
        fill="#2f1d4a" />
    <path d="M45.1,59.49a.5.5,0,0,1,0-1L51.18,58a.5.5,0,0,1,.54.46.5.5,0,0,1-.46.54l-6.12.48Z" fill="#2f1d4a" />
    <path d="M52.41,45.86a.46.46,0,0,1-.19,0l-4.86-2a.5.5,0,0,1,.38-.93l4.86,2a.5.5,0,0,1-.19,1Z" fill="#2f1d4a" />
    <path d="M81.67,36.21a.51.51,0,0,1-.5-.45l-.32-3.43a.5.5,0,0,1,1-.09l.32,3.43a.5.5,0,0,1-.45.54Z" fill="#2f1d4a" />
    <path
        d="M96.74,39.16a.47.47,0,0,1-.3-.1.5.5,0,0,1-.1-.7l2.31-3.11a.51.51,0,0,1,.7-.1.5.5,0,0,1,.1.7L97.14,39A.51.51,0,0,1,96.74,39.16Z"
        fill="#2f1d4a" />
    <path d="M117.94,55.58a.5.5,0,0,1-.08-1l6-1a.52.52,0,0,1,.58.42.51.51,0,0,1-.42.57l-6,1Z" fill="#2f1d4a" />
    <path
        d="M125.92,66.9a.39.39,0,0,1-.15,0L119.55,65a.51.51,0,0,1-.33-.63.5.5,0,0,1,.62-.33l6.22,1.92a.49.49,0,0,1,.33.62A.48.48,0,0,1,125.92,66.9Z"
        fill="#2f1d4a" />
    <path
        d="M96.5,83.8a.5.5,0,0,1-.43-.24L93.84,79.9a.5.5,0,0,1,.17-.69.49.49,0,0,1,.68.17L96.93,83a.5.5,0,0,1-.17.69A.48.48,0,0,1,96.5,83.8Z"
        fill="#2f1d4a" />
    <path
        d="M70.91,80.7a.5.5,0,0,1-.26-.08.5.5,0,0,1-.17-.69L72.87,76a.5.5,0,0,1,.86.52l-2.39,3.91A.52.52,0,0,1,70.91,80.7Z"
        fill="#2f1d4a" />
    <path
        d="M60.78,77h-.05l-6.06-.71a.55.55,0,0,1-.25-.1l-5-3.91a.47.47,0,0,1-.18-.5l1.19-5.42A.56.56,0,0,1,50.7,66l6.22-2.63a.48.48,0,0,1,.29,0l6.21,1.12a.45.45,0,0,1,.25.12l4.15,3.74a.55.55,0,0,1,.15.5l-1.28,5a.49.49,0,0,1-.26.32L61,77A.46.46,0,0,1,60.78,77Zm-5.86-1.7,5.77.68,5.09-2.61,1.14-4.52-3.81-3.44-5.93-1.07-5.85,2.47L50.26,71.7Z"
        fill="#2f1d4a" />
    <path
        d="M104.62,52.13a.49.49,0,0,1-.32-.12l-5.09-4.19a.5.5,0,0,1-.17-.5l1-4.23a.51.51,0,0,1,.27-.34l5.5-2.63a.55.55,0,0,1,.26,0l6,.47a.46.46,0,0,1,.26.1l4.86,3.59a.49.49,0,0,1,.21.4v4a.51.51,0,0,1-.28.45l-5.58,2.71a.73.73,0,0,1-.2.05l-6.63.29Zm-4.54-4.89,4.71,3.88,6.33-.28,5.21-2.53V44.89l-4.55-3.35-5.7-.46-5.16,2.47Z"
        fill="#2f1d4a" />
    <polygon points="53.53 71.19 54.89 72.38 59.03 69.83 58.15 69.11 53.53 71.19" fill="#2f1d4a" />
    <ellipse cx="61.44" cy="68.2" rx="1.42" ry="1.02" fill="#2f1d4a" />
    <ellipse cx="105.07" cy="47.08" rx="1.42" ry="1.02" fill="#2f1d4a" />
    <polygon points="107.47 45.35 111.86 43.14 113.52 44.32 108.56 46.14 107.47 45.35" fill="#2f1d4a" />
    <polygon points="65.59 41.01 62.05 38.28 63.66 37.58 66.6 40.69 65.59 41.01" fill="#2f1d4a" />
    <ellipse cx="68.07" cy="42.61" rx="1.36" ry="0.96" fill="#2f1d4a" />
    <polygon points="107.01 73.76 110.38 77.56 112.09 76.59 107.81 73.22 107.01 73.76" fill="#2f1d4a" />
    <ellipse cx="105.19" cy="71.4" rx="1.44" ry="1.02" fill="#2f1d4a" />
    <path d="M83.33,57.66a6.32,6.32,0,0,1-4-2.5h0l2,23.37,7.74-21.91h0C87.9,57.76,85.59,58.13,83.33,57.66Z"
        fill="#2f1d4a" />
    <path
        d="M81.32,79h-.06a.5.5,0,0,1-.44-.45l-2-23.36a.51.51,0,0,1,.33-.52.5.5,0,0,1,.58.2,5.91,5.91,0,0,0,3.68,2.28c2.15.44,4.27.08,5.28-.91a.51.51,0,0,1,.62-.06.5.5,0,0,1,.2.59L81.79,78.7A.5.5,0,0,1,81.32,79ZM80,56.6l1.66,19.57,6.49-18.35a8.45,8.45,0,0,1-4.88.33h0A7.38,7.38,0,0,1,80,56.6Z"
        fill="#2f1d4a" />
</svg>
