<svg xmlns="http://www.w3.org/2000/svg" xml:space="preserve" id="Layer_1" x="0" y="0" style="enable-background:new 0 0 255.8 107.8" version="1.1" viewBox="0 0 255.8 107.8"><style>.st0{fill:#fff}.st3{fill-rule:evenodd;clip-rule:evenodd;fill:#ebe6ef}</style><path d="M177.3 5.7c1.8-4 6.5-5.9 10.6-4.1L250 29.4c4 1.8 5.9 6.5 4.1 10.6l-27.7 62c-1.8 4-6.5 5.9-10.6 4.1l-62.1-27.7c-4-1.8-5.9-6.5-4.1-10.6l27.7-62.1z" class="st0"/><path d="m220.9 30.5-12.7 9.1-1.7-15.5-23.9-10.6 7.4 67.1 54.8-39.4-23.9-10.7z" style="fill:#42c18c"/><path d="m220.9 30.5-12.7 9.1-1.7-15.5-11.4-5.1 4.4 40.3 32.9-23.7-11.5-5.1z" style="fill:#3b536a"/><path d="m188.3.8 62.1 27.7c4.5 2 6.6 7.3 4.6 11.9l-27.7 62.1c-2 4.5-7.3 6.6-11.9 4.6l-62.1-27.7c-4.5-2-6.6-7.3-4.6-11.9l27.7-62.1c2-4.6 7.4-6.6 11.9-4.6zm-.4.9c-4-1.8-8.8 0-10.6 4.1l-27.7 62.1c-1.8 4 0 8.8 4.1 10.6l62.1 27.7c4 1.8 8.8 0 10.6-4.1L254.1 40c1.8-4 0-8.8-4.1-10.6L187.9 1.7z" class="st3"/><path d="M1.7 39.9c-1.8-4 0-8.8 4.1-10.6L67.9 1.7c4-1.8 8.8 0 10.6 4.1l27.7 62.1c1.8 4 0 8.8-4.1 10.6L40 106.2c-4 1.8-8.8 0-10.6-4.1L1.7 39.9z" class="st0"/><path d="M5.3 28.4 67.4.8c4.5-2 9.9 0 11.9 4.6L107 67.5c2 4.5 0 9.9-4.6 11.9L40.3 107c-4.5 2-9.9 0-11.9-4.6L.8 40.3c-2.1-4.5 0-9.8 4.5-11.9zm.4 1c-4 1.8-5.9 6.5-4.1 10.6l27.7 62c1.8 4 6.5 5.9 10.6 4.1L102 78.4c4-1.8 5.9-6.5 4.1-10.6L78.4 5.7c-1.8-4-6.5-5.9-10.6-4.1L5.7 29.4z" class="st3"/><path d="m32.3 52.2 12.3-5.5.4 1-11.2 5 3.3 7.4 10.6-4.7.4 1-10.5 4.7 3.6 8.1 11.4-5.1.4 1-12.5 5.6-8.2-18.5zm25 .6-.1.3L55 64c0 .1 0 .2-.1.3l-.2.2-1.1.5 2.7-12.6-10.4-6.1 1.3-.6c.1 0 .2.1.3.1l9.2 5.4c1.6-7.9 3.6-15.8 5.7-23.6l-4.5 24.2L69 58.2l-1.3.6c-.1 0-.2 0-.3-.1L59.2 54c-.7-.5-1.3-.8-1.9-1.2zm-7.6 25.6-2-1.1c-3.2-1.8-6.3-3.5-9.5-5.3-2.5-1.4-4.9-3-7.4-4.5L19 60.2c-.1-.1-.2-.1-.3-.1L26.2 77l-1.2.6-8.2-18.4 1.3-.6c.1 0 .2 0 .3.1l31 19.5.3.2z"/><path d="m77 54.5-1.2.5L68 37.5l-6.5 2.9-.4-1 14.1-6.3.4 1-6.4 2.9L77 54.5zm9.7-7.2c.2-.1.3-.2.5-.2h.1s.1 0 .1.1c.4.5 1.5.1 1.7-.5 0-.1.1-.2 0-.2 0-.1 0-.2-.1-.2 0-.1-.1-.1-.2-.2-.1 0-.2-.1-.2-.1-.3 0-.6 0-.9.1-.2 0-.4.1-.7.1-.2 0-.4 0-.6-.1-.2-.1-.3-.3-.4-.5-.1-.2-.2-.4-.2-.7 0-.2.1-.5.3-.6.2-.3.5-.5.8-.6.3-.1.6-.2 1-.2.2 0 .4.1.6.2.2.1.3.3.4.4-.3.3-.5.3-.8.1-.3-.1-.6-.1-.9 0-.3.1-.5.3-.6.6v.2c0 .1 0 .2.1.2 0 .1.1.1.2.2.1 0 .1.1.2.1.3 0 .6 0 .8-.1.2 0 .5-.1.7-.1.2 0 .4 0 .6.1.2.1.3.3.4.5.1.2.2.4.2.6 0 .2-.1.4-.2.6-.2.3-.5.6-.9.7-.4.2-.7.2-1.1.2-.2 0-.4-.1-.6-.2-.1-.2-.3-.4-.3-.5zM83.9 45l.6-.3c0 .1.1.1.1.2l1.2 2.7c.1.2.2.4.2.7 0 .2-.1.5-.2.7-.2.2-.4.4-.6.5-.2.1-.5.1-.8.1-.2 0-.4-.1-.5-.2-.2-.1-.3-.3-.3-.5l.6-.3.6.3c.6.1.9-.4.7-1l-1.1-2.5-.5-.4zm-.9 4.7c0 .1.1.2 0 .3 0 .1-.1.2-.2.3h-.4c-.1 0-.1-.1-.1-.1s-.1-.1-.1-.2v-.4c0-.1.1-.1.1-.1l.1-.1h.4c.1 0 .1.1.1.1 0 .1.1.2.1.2z"/><path d="M85.9 19.9c0-4.4 3.6-8 8-8h68c4.4 0 8 3.6 8 8v68c0 4.4-3.6 8-8 8h-68c-4.4 0-8-3.6-8-8v-68z" style="fill:#20232a"/><path d="M93.9 10.9h68c5 0 9 4 9 9v68c0 5-4 9-9 9h-68c-5 0-9-4-9-9v-68c0-5 4-9 9-9zm0 1c-4.4 0-8 3.6-8 8v68c0 4.4 3.6 8 8 8h68c4.4 0 8-3.6 8-8v-68c0-4.4-3.6-8-8-8h-68z" style="fill-rule:evenodd;clip-rule:evenodd;fill:#16181d"/><path d="M133.9 53.9c0 3.3-2.7 6.1-6.1 6.1-3.3 0-6.1-2.7-6.1-6.1 0-3.3 2.7-6.1 6.1-6.1 3.4 0 6.1 2.7 6.1 6.1z" style="fill:#61dafb"/><path d="M110.9 83.3c1 .6 2.2.9 3.4.9 3 0 6.7-1.7 10.6-4.9 1-.8 2-1.7 3-2.7 1 1 2 1.9 3 2.7 4 3.2 7.6 4.9 10.6 4.9 1.2 0 2.4-.3 3.5-.9 4.1-2.4 4.9-9.3 2.7-18 8.7-2.5 14.2-6.6 14.2-11.4 0-4.8-5.6-8.9-14.3-11.4 2.2-8.8 1.4-15.6-2.7-18-3.4-2-8.4-.6-14 4-1 .8-2 1.7-3 2.6-1-1-2-1.8-3-2.6-5.6-4.6-10.6-6-14-4-4.1 2.4-4.9 9.3-2.7 18C99.5 45 94 49.1 94 53.9c0 4.8 5.6 8.9 14.3 11.4-2.3 8.8-1.5 15.6 2.6 18zm.9-20.1c.6-1.8 1.3-3.8 2.1-5.8.6 1.1 1.2 2.3 1.9 3.4.7 1.2 1.4 2.3 2.1 3.4-2.2-.3-4.2-.6-6.1-1zM111 66c2.8.6 5.8 1.1 9 1.4 1.9 2.6 3.8 5 5.8 7.2-.9.9-1.9 1.7-2.8 2.5-4.5 3.7-8.4 5-10.7 3.7-2.6-1.6-3.2-7.1-1.3-14.8zm18.9 8.6c.9.9 1.9 1.7 2.8 2.4 4.5 3.7 8.4 5 10.7 3.7 2.7-1.5 3.3-7.1 1.4-14.7-2.8.6-5.9 1.1-9.1 1.4-1.9 2.7-3.8 5-5.8 7.2zm2-6.9c-1.3 1.7-2.6 3.3-4 4.8-1.3-1.5-2.7-3-4-4.8 1.3.1 2.6.1 3.9.1 1.4 0 2.8 0 4.1-.1zm5.9-3.5c2.2-.3 4.2-.6 6.1-1.1-.6-1.9-1.3-3.8-2.2-5.9-.6 1.2-1.3 2.4-1.9 3.5-.6 1.3-1.3 2.4-2 3.5zm2.5-10.3c-.9 1.8-1.8 3.7-2.9 5.6-1 1.8-2.1 3.5-3.2 5.1-2 .2-4.1.2-6.2.2-2.1 0-4.2-.1-6.2-.2-1.1-1.7-2.2-3.4-3.3-5.2-1.1-1.9-2-3.7-2.9-5.5.9-1.8 1.8-3.6 2.9-5.5 1-1.8 2.1-3.5 3.3-5.2 2-.1 4.1-.2 6.2-.2 2.2 0 4.2.1 6.2.2 1.1 1.6 2.2 3.4 3.2 5.2 1 1.8 2 3.7 2.9 5.5zm3.2-.1c1.4 3 2.5 5.9 3.3 8.6 7.5-2.2 12.1-5.5 12.1-8.5 0-3.1-4.6-6.4-12.1-8.6-.9 2.7-1.9 5.6-3.3 8.5zm.5-9.2c-.6 1.8-1.3 3.8-2.1 5.8-.6-1.2-1.2-2.3-1.9-3.5-.7-1.2-1.4-2.3-2.1-3.4 2.1.3 4.2.7 6.1 1.1zm.8-2.9c1.9-7.6 1.3-13.1-1.4-14.6-.6-.4-1.3-.6-2-.6-2.3 0-5.3 1.5-8.7 4.2-.9.7-1.8 1.6-2.8 2.5 2 2.1 3.9 4.5 5.7 7.1 3.3.3 6.4.8 9.2 1.4zm-19-8.5c-.9-.9-1.8-1.7-2.8-2.4-3.4-2.7-6.4-4.2-8.7-4.2-.7 0-1.4.2-2 .5-2.7 1.5-3.2 7.1-1.3 14.7 2.8-.6 5.8-1.1 9-1.4 1.9-2.7 3.8-5.1 5.8-7.2zm-1.9 6.9c1.3-1.7 2.6-3.3 4-4.8 1.3 1.5 2.7 3 4 4.8-1.3-.1-2.6-.1-4-.1s-2.7 0-4 .1zm-6.1 3.5c-2.1.3-4.1.6-6 1 .6 1.8 1.3 3.8 2.1 5.7.6-1.1 1.2-2.3 1.9-3.4s1.4-2.2 2-3.3zm-8.9 18.8c-7.6-2.2-12.1-5.5-12.1-8.5 0-3.1 4.5-6.4 12.1-8.5.8 2.7 1.9 5.6 3.3 8.5-1.3 2.9-2.4 5.8-3.3 8.5z" style="fill-rule:evenodd;clip-rule:evenodd;fill:#61dafb"/></svg>
