<svg width="320" height="239" fill="none" xmlns="http://www.w3.org/2000/svg"><g clip-path="url(#a)"><path d="M143.6 108.8a22 22 0 0 1-26.8 14.2c-11-3.2-16.6-16-12.7-27.4a21.5 21.5 0 0 1 26.8-14.2c10.9 3.6 16.6 15.9 12.7 27.4Z" fill="#F58452"/><path d="M217.9 135.3a14 14 0 0 0 13.6-14.4 14 14 0 0 0-13.6-14.4 14 14 0 0 0-13.7 14.4 14 14 0 0 0 13.7 14.4Zm-68.6-18.5 15.3-25.2s.9-1.2 1.4-.1 3.5 22.7 3.5 22.7.3.8-.4 1.1c-.8.3-17.7 2.4-19 2.6-.3.1-1.4-.2-.8-1.1Z" fill="#EBB432"/><path d="m170.8 119.4 18.4-34.7s.9-1.5 1.6-.3l16 32.3s.7 1-.8 1.6a997 997 0 0 1-34 2.8c-.8 0-1.8-.4-1.2-1.7Z" fill="#F58452"/><path d="m214.5 58.2-5-1.5-7.3 7.5c-.5.6-.5 1.9.6 2.7 1 .7 11.5 5 11.5 5l4-.9-.8 2.2 10 3.5 5.2-1.3-.6 2.5s6.6 1.8 7.4 1.8c.8 0 6.9-2.7 6.9-2.7l5-13.6-5.8-11.2s-.1-.7.4-1c.5-.5 1.1-.2 1.1-.2l6 8.8 1-.1h.8l-9-28s-4-1-5.2-1.6c-1.2-.6-4-1.4-4-1.4L226 38.9l1.2 2.9.7 2.4-5.4-1.4-8.5 9c0-.6.6 3.5.6 6.4Z" fill="#B39ED3"/><path d="M257.8 60.2s1-.5 1.3.6c.4 1.1-.1 1.8-.3 2l-.9.1s.4-1 .2-1.6c-.1-.7-.4-1-.4-1Z" fill="#EBB432"/><path d="M256.7 60.6s1-.5 1.3.6c.4 1-.1 1.8-.3 2l-.9.1s.5-1 .3-1.7l-.4-1Z" fill="#EBB432"/><path d="M255.6 60.9s1-.6 1.4.5c.3 1.1-.2 1.8-.3 2l-1 .2s.5-1 .3-1.7l-.4-1Z" fill="#EBB432"/><path d="M254.8 61s.7-.4 1 .7c.4 1-.1 1.8-.3 1.9l-.9.2s.2-.8.1-1.6V61Zm.7 10.4s1-.5 1.4.6c.3 1.1-.2 1.8-.4 2l-.8.1s.4-1 .2-1.6l-.4-1Z" fill="#EBB432"/><path d="M254.5 71.7s1-.5 1.3.6c.4 1-.1 1.8-.3 2l-.9.1s.4-1 .3-1.7l-.4-1Z" fill="#EBB432"/><path d="M253.6 71.9s.7-.5 1 .6c.4 1.1-.1 1.8-.3 2l-.9.1.2-1.5v-1.2Zm8.5-13s1-.5 1.4.6c.3 1.1-.2 1.8-.4 2l-.9.1s-.3-.2-.1-.6c0-.2 1-.2.7-.9 0-.2-.6-.3-.7-.5-.2-.3 0-.7 0-.7Z" fill="#EBB432"/><path d="M256.7 65.9s1-.5 1.4.6c.4 1-.2 1.7-.3 1.9l-1 .2s-.2-.2 0-.6c0-.3.8-.2.7-1 0-.2-.7-.2-.8-.4-.2-.4 0-.7 0-.7Z" fill="#F58452"/><path d="M263.2 58.6s1-.5 1.4.6c.3 1-.2 1.8-.4 2l-.9.1s.5-1 .3-1.7l-.4-1Z" fill="#EBB432"/><path d="M264.3 58.3s1-.5 1.3.6c.4 1-.1 1.7-.3 1.9l-.9.2s.5-1 .3-1.7l-.4-1Z" fill="#EBB432"/><path d="M265.5 58s1-.6 1.3.5c.4 1.1-.1 1.8-.3 2l-.9.1s.4-1 .3-1.6l-.4-1Z" fill="#EBB432"/><path d="M266.5 57.7s1-.5 1.3.6c.4 1.1-.1 1.8-.3 2l-.9.1s.5-1 .3-1.6l-.4-1Zm-7 12.2s1-.5 1.4.5c.4 1.1-.1 2-.3 2.2h-.9s-.3-.2-.1-.7c0-.2.9-.1.7-.9 0-.2-.6-.3-.8-.4-.2-.4 0-.7 0-.7Z" fill="#EBB432"/><path d="M260.7 69.5s1-.5 1.3.6c.4 1.1-.1 1.8-.3 2l-.9.1s.4-1 .3-1.6l-.4-1Z" fill="#EBB432"/><path d="M261.7 69.4s1-.5 1.4.6c.4 1-.2 1.8-.3 2h-1s.5-.9.3-1.6l-.4-1Z" fill="#EBB432"/><path d="M263 68.9s1-.5 1.3.6c.3 1-.2 1.7-.3 1.9l-1 .2s.5-1 .3-1.7l-.4-1Z" fill="#EBB432"/><path d="M264 68.7s1-.5 1.3.5c.4 1.1-.1 1.8-.3 2l-.9.2s.4-1 .3-1.7l-.4-1Z" fill="#EBB432"/><path d="M264.6 68.3s1-.5 1.4.6c.4 1.1-.2 1.8-.3 2l-1 .1s.5-1 .3-1.6c-.1-.7-.4-1-.4-1Z" fill="#EBB432"/><path d="M265.7 68.1s1-.5 1.3.6c.4 1.1-.1 1.8-.3 2l-.9.1s.4-1 .3-1.6l-.4-1Z" fill="#EBB432"/><path d="M257.8 65.6s1-.5 1.3.6c.4 1-.1 1.8-.3 1.9-.2.2-.9.2-.9.2s-.3-.2-.1-.6c0-.3.5-.1.4-.8-.1-.3-.4-.4-.5-.6-.2-.3 0-.7 0-.7Z" fill="#F58452"/><path d="M258.9 65.3s1-.5 1.3.5c.4 1.1-.1 1.8-.3 2l-.9.2s.4-1 .3-1.7l-.4-1Z" fill="#F58452"/><path d="M260 65s1-.6 1.3.5c.4 1.1-.1 1.8-.3 2l-.9.1s.4-1 .3-1.6l-.4-1Z" fill="#F58452"/><path d="M261.1 64.6s1-.5 1.4.6c.3 1-.2 1.8-.3 2l-1 .1s.5-1 .3-1.7l-.4-1Z" fill="#F58452"/><path d="M254.2 77.2s1-.6 1.3.5c.4 1.1-.1 1.8-.3 2l-.9.2.1-.5c.1-.2.5-.3.3-1 0-.3-.7 0-.8-.2-.2-.3.3-1 .3-1Z" fill="#E1557A"/><path d="M255.2 76.9s1-.5 1.3.5c.4 1.1-.1 1.8-.3 2l-.9.2s-.3-.2-.1-.7c0-.2.5 0 .4-.8 0-.2-.3-.3-.4-.5-.3-.4 0-.7 0-.7Z" fill="#E1557A"/><path d="M256.3 76.5s1-.5 1.3.6c.4 1.1-.1 1.8-.3 2l-.9.1s.5-1 .3-1.6l-.4-1Z" fill="#E1557A"/><path d="M257.4 76.2s1-.5 1.3.6-.1 1.8-.3 2l-.9.1s.5-1 .3-1.7l-.4-1Zm3.2-1.6s1-.5 1.3.6c.4 1-.1 1.8-.3 2l-.9.1.2-.4c0-.2.4-.3.3-1 0-.3-.8 0-.9-.2-.2-.4.3-1 .3-1Z" fill="#E1557A"/><path d="M261.6 74.3s1-.5 1.4.6c.3 1-.2 1.8-.4 2l-.8.1s-.4-.2-.2-.6c.1-.2.6 0 .4-.8 0-.3-.3-.4-.4-.6-.2-.3 0-.7 0-.7Z" fill="#E1557A"/><path d="M262.7 74s1-.5 1.4.6c.3 1-.2 1.8-.4 1.9l-.8.2s.4-1 .2-1.7l-.4-1Z" fill="#E1557A"/><path d="M263.8 73.7s1-.6 1.4.5c.3 1.1-.2 1.8-.4 2l-.8.2s.4-1 .2-1.7l-.4-1Z" fill="#E1557A"/><path d="M264.8 73.3s1-.5 1.4.6c.3 1-.2 1.7-.4 1.9l-.8.2s.4-1 .2-1.7l-.4-1Zm-6.3 2.6s1-.5 1.4.6c.4 1-.1 1.7-.3 1.9l-1 .2s.5-1 .3-1.7c-.1-.7-.4-1-.4-1Z" fill="#E1557A"/><path d="M262.2 64.4s1-.5 1.3.6c.4 1-.1 1.8-.3 1.9-.2.2-.9.2-.9.2s.4-1 .3-1.7c-.2-.7-.5-1-.5-1Z" fill="#F58452"/><path d="M263 64s1-.6 1.3.5c.4 1-.1 1.8-.3 2l-.9.1s.5-1 .3-1.7l-.4-1Z" fill="#F58452"/><path d="M264.1 63.6s1-.5 1.4.6c.4 1-.1 1.8-.3 1.9l-1 .2s.5-1 .3-1.7c-.1-.7-.4-1-.4-1Z" fill="#F58452"/><path d="M265.2 63.4s1-.5 1.3.5c.4 1.1-.1 1.8-.3 2l-.9.2s.5-1 .3-1.7l-.4-1Z" fill="#F58452"/><path d="M266 63s1-.5 1.4.6c.4 1.1-.1 1.8-.3 2l-.9.1s.4-1 .3-1.6c-.2-.7-.5-1-.5-1Z" fill="#F58452"/><path d="M269.5 56.9s1-.6 1.3.5c.4 1.1-.1 1.8-.3 2l-.9.2s-.5-.2-.4-.5l.6-.2v-1.3h-.6c-.2-.4.3-.7.3-.7Z" fill="#EBB432"/><path d="m242.3 133.6-2.7.1-1.6-5 2-10.8s-1-.7-1.6-.8c-.6 0-1.9.5-1.9.5l-1.2 17.8 1.2 11.6-47.7-4a12 12 0 0 1-.2 1.8c0 .2-1.2.3-1.8.5 0 0 .4 1.6.5 1.5l48.7 4.8-1.7 11.5s1 1.3 1.7 1a5 5 0 0 0 1.4-.5l7.3-28.8s-1.9-1-2.4-1.2Zm-84.6.8.3-4.5s-2.2-.7-3.3-.7c-1 0-2.7.7-2.7.7l.2 4c1.9.3 3.7.3 5.5.5Zm-5 12.8.4 11s.8.8 1.5.5c.7-.3 1.5-.9 1.5-.9l.6-10.1c-1.3-.3-2.7-.3-4-.5Zm-26-5.7-.3-3.9-15.7-1-28.3-2.4 23.3-9.2 1 9.8.9.3c.5 0 .7-.3.7-.3l-.5-17.1-1.6-2-1-1.3-.5.2.8 8.7-28.1 10-2.7-12.6s-2-.6-3.2-.6c-1.2 0-3 1.2-3 1.2l10.2 32s1 .7 1.9.5c.9-.2 1.2-.6 1.2-.6l-4-16.4 48.9 4.7Z" fill="#E1557A"/><path d="m213.2 59.5-3.2-.9-5 5s-.5.6 0 .8c.5.3 6.5 2 6.5 2s1-2.7 1.3-3.9c.3-1.1.4-3 .4-3Zm2.5-7.8 3.8-3.5s1 6.8.8 10.5c-.3 3.6-3.1 11.5-3.1 11.5l-4 .8s2.6-8.3 2.9-10.8c.5-4-.4-8.5-.4-8.5Zm11-8.4-5.5-1.4s3 10 2.4 15.7c-.6 5.8-2.7 12.2-2.7 12.2l3.6 1s4.4-8.9 4-16.9c-.2-4.7-1.8-10.6-1.8-10.6Z" fill="#2F1D4A"/><path d="m229 39.5 8.8-9.7s.4-.3.4.6l-.7 43.2s0 .3-.6.3-5.1-1.2-5.1-1.2l-.6 1.8-4.8 1.3s4.2-9.2 5.1-18.2c.8-7.6-2.5-18.1-2.5-18.1Z" fill="#2F1D4A"/><path d="m226.2 23.5 12.6.6 10 3.2 10 6s.3.4-.2.5a122 122 0 0 1-17.9-3.5 116 116 0 0 1-13.9-6c-.6-.3-.8-.8-.6-.8Zm14-3.2 4.8-6.5s.6-.3.6.3l.2 4.6 4-3.8s.6-.5.7.2c.1.6-1.9 9.8-1.9 9.8l-8.2-3.8" fill="#F58452"/><path d="M224.9 22.7s3.2 3.2 16 7c12.8 3.6 16.7 2.8 16.7 2.8s.3-.3-.3-.5l-9.8-5.7 2.3-11.7s-.5-.6-1.1 0l-3.7 3.6-.2-4.7s-.6-.6-1 .2l-6.5 9.3-11.8-.6s-.9 0-.6.3h0Zm12.4.3 10.2 3.3m-8.2-6.3 8.6 4.5m-6.7 16.1V29.8m0 31.5v-18" stroke="#2F1D4A" stroke-linecap="round" stroke-linejoin="round"/><path d="M235.6 28 224.7 38s4.1 8.9 3.7 17.7c-.5 8.8-4 15-4 15l-3.5-1s3-8.2 2.7-15C223.3 49 221 42 221 42l-8.7 9s1 4.3.8 8.3c-.3 4.1-1.6 7.1-1.6 7.1l-6.5-2s-.8-.5-.1-1l5-5-1.7-2.7-7 7.2s-1.4 1.8.2 3C203 67 213 71 213 71s2.5-6.7 3-10.6c.7-5.5-.4-8.8-.4-8.8l3.9-3.6s1.8 6 .2 13.7c-.8 4.5-3.5 10.5-3.5 10.5l10.1 3.6s5.2-11.9 5.4-20.6c.2-7-2.8-15.8-2.8-15.8l8.5-9.4s.9-1 .8.5l-.7 42.6s.1.8-.6.6c-.9-.3-5.2-1-5.2-1l-1.2 4s6 1.8 7.2 1.9c1.8.1 3.5 0 3.5-3.5V63.8m8.9-17 4.1 12.7m-9.5-29 4.5 13.8m-4.1 36c-.1-.3 7.4-19.5 7.6-20 .1-.6 1-1 1 .2l-3.3 23.1-5.3-3.3v0Z" stroke="#2F1D4A" stroke-linecap="round" stroke-linejoin="round"/><path d="m250.4 83.6 2.1-.9 2.4-22.5s0-.4-.2-.5l-1.5.1m1.8 1c.1 0 1 .3 1 1.6-.2 1.5-1.3 1.4-1.3 1.4" stroke="#2F1D4A" stroke-linecap="round" stroke-linejoin="round"/><path d="M255.7 60.9c.6-.6 1.4 0 1.3 1.2 0 1.5-1.1 1.4-1.1 1.4" stroke="#2F1D4A" stroke-linecap="round" stroke-linejoin="round"/><path d="M256.7 60.5c.6-.5 1.5 0 1.4 1.2-.1 1.6-1.2 1.5-1.2 1.5m-3 8.6c.1 0 1 .3 1 1.6-.2 1.5-1.3 1.4-1.3 1.4" stroke="#2F1D4A" stroke-linecap="round" stroke-linejoin="round"/><path d="M254.6 71.8c.6-.5 1.4 0 1.3 1.3 0 1.5-1.1 1.4-1.1 1.4" stroke="#2F1D4A" stroke-linecap="round" stroke-linejoin="round"/><path d="M255.6 71.5c.6-.6 1.5 0 1.4 1.2-.1 1.6-1.2 1.4-1.2 1.4m2-13.8c.6-.6 1.4 0 1.4 1.2-.1 1.5-1.2 1.4-1.2 1.4m5.4-4.1c.6-.7 1.5-.1 1.4 1.2-.1 1.6-1.2 1.4-1.2 1.4m-5.6 4.3c.5-.6 1.5 0 1.4 1.2-.1 1.6-1.2 1.5-1.2 1.5" stroke="#2F1D4A" stroke-linecap="round" stroke-linejoin="round"/><path d="M264.5 58.4c.6-.6 1.5 0 1.4 1.2-.1 1.6-1.2 1.5-1.2 1.5" stroke="#2F1D4A" stroke-linecap="round" stroke-linejoin="round"/><path d="M265.5 58.1c.6-.6 1.5 0 1.4 1.2 0 1.6-1.2 1.5-1.2 1.5" stroke="#2F1D4A" stroke-linecap="round" stroke-linejoin="round"/><path d="M266.5 57.8c.6-.6 1.5 0 1.4 1.2 0 1.6-1.2 1.5-1.2 1.5m-7.6 4.9c.5-.7 1.5-.1 1.4 1.2-.1 1.6-1.2 1.4-1.2 1.4" stroke="#2F1D4A" stroke-linecap="round" stroke-linejoin="round"/><path d="M260 65c.7-.6 1.6 0 1.5 1.3 0 1.5-1.2 1.4-1.2 1.4" stroke="#2F1D4A" stroke-linecap="round" stroke-linejoin="round"/><path d="M261 64.7c.7-.6 1.6 0 1.5 1.3-.1 1.5-1.2 1.4-1.2 1.4" stroke="#2F1D4A" stroke-linecap="round" stroke-linejoin="round"/><path d="M262 64.4c.6-.6 1.5-.1 1.4 1.2 0 1.6-1.1 1.5-1.1 1.5" stroke="#2F1D4A" stroke-linecap="round" stroke-linejoin="round"/><path d="M263.1 64c.6-.6 1.5 0 1.4 1.3 0 1.6-1.1 1.4-1.1 1.4" stroke="#2F1D4A" stroke-linecap="round" stroke-linejoin="round"/><path d="M264.1 63.7c.6-.6 1.5 0 1.5 1.2-.1 1.6-1.2 1.5-1.2 1.5" stroke="#2F1D4A" stroke-linecap="round" stroke-linejoin="round"/><path d="M265.1 63.4c.6-.6 1.5 0 1.4 1.2 0 1.6-1.1 1.5-1.1 1.5" stroke="#2F1D4A" stroke-linecap="round" stroke-linejoin="round"/><path d="M266 63.1c.6-.6 1.5 0 1.5 1.3-.1 1.5-1.2 1.4-1.2 1.4m-7.2-4 3.5-1s.4-.2.3-.7c0-.5-.6-.5-.6-.5l-3.2 1m8.8-1.3 2-.5s.3-.2.2-.7c-.1-.5-.6-.5-.6-.5l-1.6.5m-13.5 9.4 2.4-.8s.4 0 .5.4v.7l-3 .9" stroke="#2F1D4A" stroke-linecap="round" stroke-linejoin="round"/><path d="m267.5 64.6 1.3-.4s.3-.2.2-.7c0-.5-.5-.5-.5-.5l-1.1.4M257 72.9l3-1s.4-.2.3-.7c0-.5-.5-.5-.5-.5l-2.9 1.1m-4 8.4 1.6-.8s.4-.2.3-.7c-.1-.4-.6-.4-.6-.4l-1.3.7m7-1.8 1-.5s.4-.1.3-.7c0-.4-.5-.4-.5-.4l-.7.4m9.5-8-2.7 10.3-3-1.7m7-14c0 .4-.2.7-.3 1m.2-6.4.5-.8s.3-.5.7-.3c.3.2.4.3.3.8l-.8 3.5m-2.6.6.7-1.3m-4.2 8.5 1.2-2.4m-4.2 8.2 1.2-2.2m7.3-4.6-2.1 9.7-2 1.4" stroke="#2F1D4A" stroke-linecap="round" stroke-linejoin="round"/><path d="m271.9 56 .8.3s.3.2.3.5l-.8 3.6m-4.8 2.8L267 62l2.7-1.4 3.4-.4.9 1.2-.4 1.3.2 4.3-1.2 1.1-2 .9" stroke="#2F1D4A" stroke-linecap="round" stroke-linejoin="round"/><path d="m269 63 2.3-.5h1.4m-1 .9-2.2.6-2.3 1.9.2.8.7.2.2 1h.8l2.4-1h1.4" stroke="#2F1D4A" stroke-linecap="round" stroke-linejoin="round"/><path d="m268.2 66.8 2.5-1.7h2m-14.8 3.3 1 1.3 7.4-3.7m-11.4-2.2 1.6 2.3m-5-2.6-7-12.4s0-.8.5-1c.6-.3 1 0 1 0l6.6 10.2m3.2 11a58.4 58.4 0 0 1-1.5-2.5m9.2 2.9-5.4 2.5c-.4.2-.6 0-1-.5l-.1-.3m-17.2 5.1 7-3M213 71l4.1-1m9.2 5.8 4.9-1.4m13.2 27.5 1.3 10.6m-3.4-27.8 1.7 13.7m-2.5-20.7.5 4.7m1.3-5.5 6.5 38.5M262 59.7c.1-.6.5-1 1-1 .4 0 .9.7.9 1.5 0 .9-.5 1.6-1 1.6-.4 0-.7-.4-.8-.8" stroke="#2F1D4A" stroke-linecap="round" stroke-linejoin="round"/><path d="M260.8 69.8c.6-.6 1.5-.1 1.4 1.2 0 1.6-1.1 1.5-1.1 1.5" stroke="#2F1D4A" stroke-linecap="round" stroke-linejoin="round"/><path d="M262 69.4c.5-.6 1.4 0 1.3 1.3 0 1.6-1.1 1.4-1.1 1.4" stroke="#2F1D4A" stroke-linecap="round" stroke-linejoin="round"/><path d="M263 69.1c.5-.6 1.4 0 1.4 1.2-.1 1.6-1.2 1.5-1.2 1.5" stroke="#2F1D4A" stroke-linecap="round" stroke-linejoin="round"/><path d="M264 68.8c.5-.6 1.4 0 1.3 1.2 0 1.6-1.1 1.5-1.1 1.5" stroke="#2F1D4A" stroke-linecap="round" stroke-linejoin="round"/><path d="M264.9 68.5c.6-.6 1.5 0 1.4 1.2-.1 1.6-1.2 1.5-1.2 1.5" stroke="#2F1D4A" stroke-linecap="round" stroke-linejoin="round"/><path d="M265.9 68.2c.6-.6 1.5 0 1.4 1.2 0 1.6-1.2 1.5-1.2 1.5m-6.8 0c.1-.7.5-1.2 1-1.2s1 .7 1 1.6c0 .8-.5 1.5-1 1.5-.4 0-.7-.3-.9-.7m-3-5.2c0-.7.4-1.2.9-1.2s1 .7 1 1.5-.5 1.5-1 1.5c-.4 0-.7-.2-.8-.6m-1.1 8.9c.6-.7 1.5-.1 1.4 1.2-.1 1.6-1.2 1.4-1.2 1.4" stroke="#2F1D4A" stroke-linecap="round" stroke-linejoin="round"/><path d="M256.5 76.6c.5-.6 1.5 0 1.4 1.2-.1 1.6-1.2 1.5-1.2 1.5" stroke="#2F1D4A" stroke-linecap="round" stroke-linejoin="round"/><path d="M257.5 76.3c.6-.6 1.5 0 1.4 1.2 0 1.6-1.2 1.5-1.2 1.5" stroke="#2F1D4A" stroke-linecap="round" stroke-linejoin="round"/><path d="M258.4 75.9c.6-.7 1.5-.1 1.5 1.2-.1 1.6-1.2 1.4-1.2 1.4m-4 1.5c.5 0 1-.7 1-1.5s-.5-1.6-1-1.6c-.6 0-1 .7-1 1.6s.4 1.5 1 1.5Zm7.1-5.6c.6-.6 1.5 0 1.4 1.2 0 1.6-1.1 1.5-1.1 1.5" stroke="#2F1D4A" stroke-linecap="round" stroke-linejoin="round"/><path d="M262.9 74c.6-.5 1.5 0 1.4 1.3 0 1.6-1.2 1.5-1.2 1.5" stroke="#2F1D4A" stroke-linecap="round" stroke-linejoin="round"/><path d="M264 73.7c.5-.6 1.4 0 1.3 1.3 0 1.6-1.1 1.4-1.1 1.4" stroke="#2F1D4A" stroke-linecap="round" stroke-linejoin="round"/><path d="M264.9 73.4c.6-.6 1.5 0 1.4 1.2-.1 1.6-1.2 1.5-1.2 1.5m-5-.2c0-.8.5-1.5 1-1.5s1 .7 1 1.5c0 .9-.5 1.5-1 1.5-.3 0-.5-.1-.7-.4m8.6-19.3c.1-.6.5-1 1-1 .4 0 .9.6.9 1.5 0 .8-.5 1.5-1 1.5-.3 0-.6-.3-.8-.7m-37.4 13.8 5.8-1.7m10.8 47.2s1.2-3.1 2.6-3.4c.5 0 .8.8.7 2-.4 3.7-.7 9.2-.7 9.2m-7.2-3.2-.8-7.5c-.1-1.8 1.8-4.3 3.7-2.2 1.9 2.2 2.2 12.9 2.2 12.9m9.2 8.5 3 1.3s.4.5-.4.7c-1 .1-11.6-.2-11.6-.2s.3-2-1-2.3c-1.2-.3-1.4 2.1-1.4 2.1l-1.4-.1-1.2-10.7" stroke="#2F1D4A" stroke-linecap="round" stroke-linejoin="round"/><path d="M253 117.6c.2 5.5-.3 13.9-.3 13.9s1-.6 1.6-.3c.5.3-.1 1.8-.1 1.8l2.2 1m-6.7-20.2s1.7-1.4 2.8-.8c.3.2.4 1 .5 2.4m-50.3-56c-4.7.6-15 17.3-4.7 27.5 4.8 4.7 9.5 1.9 11.5-3 2.3-5.7 2-13.4 2-13.4m-6.7-11.1-.9-.1" stroke="#2F1D4A" stroke-linecap="round" stroke-linejoin="round"/><path d="M207.4 76c.2-3.8-.2-7.2-.2-7.2m-5.3-1.6c-1.5 2-4.5 16.1 0 17.5 3.4 1.1 4.8-2.8 5.4-5.7m-1-29 11-4.2m-13.8-20.3 1.2 4.5-6.4 21.2c-.3 1 0 1.9 1.2 1.5l5.5-2.1m2.6-18.4s1-1.2.6-2l-1.7-2.2 2.6-.7.2 1.4 1.1-.4.2-1.6-.6-1.9.3-.4-.6-1.7-.6.1-.4-1.2-.8-.6-5.1 1.6.4 1.5" stroke="#2F1D4A" stroke-linecap="round" stroke-linejoin="round"/><path d="M209.3 28.7s.5 6.2-2 16.8c-2.4 10.6-3.9 15-3.9 15" stroke="#2F1D4A" stroke-linecap="round" stroke-linejoin="round"/><path d="M208.3 31c0 .2-.6 8.6-2.3 15.5l-3.9 15.6m7.9-37.3-3.6 1m2.7-3-3.2 1m-4 42.5s-1.7 14.4 2.3 15.4c3.7 1 5.5-12.3 5.4-12" stroke="#2F1D4A" stroke-linecap="round" stroke-linejoin="round"/><path d="M203 66.8s-1.4 12 1.4 13.3c.4.3 1.4-.2 2-1.3 1.4-3 2.4-9.4 2.4-9.4m-.5-13.6 5 1.5m-3.3 1.3 3.2.8m-8-18.5-3 8.3m5.6-15.1-2 5.4M207 47l12.2-3.2M202.7 48l3-.8M220 73.8V106m2.8-9.7.4 11m-1.3-32.8.7 18.1m-1.5-50.5 5.5 1.2M206 129.7a14.7 14.7 0 0 1-3.4-9.5c0-1 0-1.6.2-2.5m27.9 1.3v1.2c0 8-6.3 14.5-14 14.5-3.5 0-6.7-1.3-9.1-3.4m21.1-18.6a14.6 14.6 0 0 1 1.7 4.3m-26.4-3.2a14 14 0 0 1 23.3-3M217.6 134.7l4.1 7.3" stroke="#2F1D4A" stroke-linecap="round" stroke-linejoin="round"/><path d="m218.6 134.7 6.1 8.7s.3 1-.3 1c-.6.1-9.5-3.7-9.5-3.7l-3.4-.8 4.3-1.3 5.2 2m1.9-7.4 4.3 7.2m-6-2 5.2 1m-3.3 1.6 6.7 1.4c.6 0 1.4-.4.6-1.4l-6.8-8.2" stroke="#2F1D4A" stroke-linecap="round" stroke-linejoin="round"/><path d="m209.4 132.6 1.9 5.2-6-2.2-3.4 1.1 3.6.6 6.4 2.5m-1-6.4 2.8 5.7m3-4.4 2 4.9" stroke="#2F1D4A" stroke-linecap="round" stroke-linejoin="round"/><path d="m216.5 125.4-2.9-16 3.7-1.3.3 16.9-1 .4Zm-.2 2.2 2.4-1.3-.5 3.3-1 .4-.9-2.4Z" fill="#2F1D4A"/><path d="m152.4 109.7 11.1-18.3s.9-1.2 1.4-.1c.2.4.8 3.9 1.4 8m.3 2 1.8 12.7s.3.8-.4 1.1c-.8.3-17.7 2.4-19 2.7-.3 0-1.4-.3-.8-1.2l3-5m4.6 16.4-2.4-10.8m-.6 0 1.5 10.7m5.3-11.5 1.1 17.7 3.8 1.7-2.4-3-1.7-16.5" stroke="#2F1D4A" stroke-linecap="round" stroke-linejoin="round"/><path d="m161.7 116 1.2 14.9-.8.6" stroke="#2F1D4A" stroke-linecap="round" stroke-linejoin="round"/><path d="m162 132.7 2.8-1-2.4-15.8m2.2-.2c-.1.3 2.4 18.5 2.4 18.5l4.5-.3-3.3-1.2-3-17.2" stroke="#2F1D4A" stroke-linecap="round" stroke-linejoin="round"/><path d="m160 110 1.4-12.4 3.4-1.6-3.4 13.7-1.4.3Zm-.5 1.6 2.3-.5-.7 2.4-1.5.8-.1-2.7Z" fill="#2F1D4A"/><path d="M138.4 115.3a20.6 20.6 0 0 1-16.5 8.4c-8.9 0-16.5-5.8-19.6-14.1a21.4 21.4 0 0 1-.6-1.8 23.3 23.3 0 0 1-.8-6.3c0-12.2 9.4-22.2 21-22.2 6.6 0 12.4 3.2 16.3 8.1m1.4 2.1a23 23 0 0 1 .5 23.2m-28 23.3-1-15.4m-1.4 18.7-.2 10-3.6 2.2 7-1-.7-11M110 120l-.3 16m16 1.4-1-13.8m-1.3 17v8.6l-3 3.4 6.3-2-.7-9.8m-2.6-17V137m-1.2 0-1-13.2" stroke="#2F1D4A" stroke-linecap="round" stroke-linejoin="round"/><path d="m120.2 140.2.1 6.3-2.8 1.4 5.5-.3-.5-7m-2.5-17 .2 13.3m12.2-4.6-.1-11.4m-2.1 23.8-.2 4.8 6-.4-3.5-1.4V145m-1.7-23.3-.3 10.8" stroke="#2F1D4A" stroke-linecap="round" stroke-linejoin="round"/><path d="m116.6 87.6 4.8 20.8 1.9-1-1.6-21.3-5 1.5Zm4 22.8 3.4-1.5v4.6l-2 1.3-1.3-4.4Z" fill="#2F1D4A"/><path d="M154.8 18.3a65.8 65.8 0 0 1 2-2c11.9-12 41.6-12 41.9-12m-25.3 18.6c-7.9 5.7-16.2 11.1-20.2 11.5-1.4.1-4 0-5-1.9-1-2 0-6.2 4.9-12.2m7.7 13c7.5-4.1 17.4-11.7 24.7-17.2 3.4-2.7 6.2-4.7 7.4-5.5 4.5-2.7 7.7-3.6 7.7-3.6s1-.6.6-1.1c-.3-.6-1-.6-1-.6-.1 0-3.5 1-8.2 3.8-1.3.8-4 3-7.6 5.6a660.8 660.8 0 0 1-8.9 6.7" stroke="#2F1D4A" stroke-linecap="round" stroke-linejoin="round"/><path d="M160.5 11.2a26.6 26.6 0 0 0-5 3.8c-7.4 7.4-10.8 14.3-8.9 18.2 1 2 3 3 5.7 3a12.7 12.7 0 0 0 1.1 0c1.3-.2 3-.8 5-1.7M200 2.6a93 93 0 0 0-37.7 7.6m39.4 49.6s-7.9 8-5.5 19.8c1.5 7.3 5.2 9.4 5.2 9.4" stroke="#2F1D4A" stroke-linecap="round" stroke-linejoin="round"/><path d="M199.3 87s-3-7.4-1.7-14.7c1-5.3 3.1-7.6 3.1-7.6" stroke="#2F1D4A" stroke-linecap="round" stroke-linejoin="round"/><path d="M199.6 81s.3 5 3.3 6.1c3.4 1.3 7-4.3 7-4.3" stroke="#2F1D4A" stroke-linecap="round" stroke-linejoin="round"/><path d="M201.1 85.6s3.9 1.6 6-1.9c2.3-3.5 2-11 2-11" stroke="#2F1D4A" stroke-linecap="round" stroke-linejoin="round"/><path d="M206.7 84.5s2-1.6 3.1-5.7c.9-3.4.9-8.6.9-8.6M199 5.4s-.7-.6-.1-1.7 1.3-1.3 1.8-1.1c.5.2.9 1.1.9 1.1" stroke="#2F1D4A" stroke-linecap="round" stroke-linejoin="round"/><path d="M199.7 5.2s0-1 .9-1.4c.9-.5 1.8.1 1.8 1.5" stroke="#2F1D4A" stroke-linecap="round" stroke-linejoin="round"/><path d="M200.5 5.2s1.6-.8 1.8 0c.6 2-1.7 1.8-1.7 1.8" stroke="#2F1D4A" stroke-linecap="round" stroke-linejoin="round"/><path d="M201 7c0 .2 4.1 11.8 4.8 14.5m-3.4-15.2s4 11.6 4.8 14.8m.3 6.7.5 2M76.6 133.3 74 120.2s-1-.6-3.1-.6c-2 0-3 1-3 1l10.1 32s.7.6 1.6.5c.9 0 1.6-.5 1.6-.5l-3.9-16.1M188 146.7l47 4.3m.7-4.6-46.2-4" stroke="#2F1D4A" stroke-linecap="round" stroke-linejoin="round"/><path d="m126.5 140.9-51-4.8s-1-.4-1-1.7c0-1 1-1.2 1-1.2l50.9 4.2" stroke="#2F1D4A" stroke-linecap="round" stroke-linejoin="round"/><path d="m76.8 132.8 28.4-10s.3-.1.5.4c.3.7-.2 1-.2 1l-24 9.5m151.8 28.8 4.6-29.2s1.2-.6 3.4 0c1.5.3 2.4 1 2.4 1l-7.2 28.7s-.9.6-1.6.4c-.6-.2-1.6-.9-1.6-.9Zm-82-28.5-.2-4.5s1.8-1 3.2-.9c1.5.2 2.8.8 2.8.8l-.3 4.7m-1 13-.6 10.3-1.3.5c-.7.3-1.6-.3-1.6-.3l-.5-10.5m29-50.7c3.5-6.8 6.6-12.4 6.6-12.4s.8-1.6 1.5-.3l16 32.2s.7 1.1-.8 1.6c-.6.2-7.3.8-14.5 1.4m-13.3-14 3.5-6.7m7.8 20.8-17.4 1.3c-.8 0-1.9-.4-1.3-1.6l5.9-11m5 28.6-1.1-16.5m-1 29.8v.6l-3.6 2 6.7-.3-.3-2m-2.6-30c0 .1-.2 7.4-.2 16.3m4.1-16.7-.3 17m2.2.2-1-17.2m16 22.6-1.1-23.8m-1.5 30v1.8l7.5.1-4.1-1.8m-3-30-.4 23.7" stroke="#2F1D4A" stroke-linecap="round" stroke-linejoin="round"/><path d="m186 92.2 3.8-1.3.1 17-1.3.7-2.6-16.4Zm2 18.3 2.6-1-.5 3.5-1.6.3-.5-2.7Z" fill="#2F1D4A"/><path d="m194 141.8-.1-23.2m-2.2 29.4-.1 5 5.4 4.2-2.8-5.3v-3.7m-1.3-29.6c0 .3-.4 13-.9 23m-85-18 .4 10.6s-.9.5-1.4 0l-1.1-9.7m2-7.4.1 5m-2.3.8-1-8.8.7-.2m95.1 14.3h3.3m-8-.3h.8m-11.5-.4 7.1.1m-10.9-.3h1.4m-13.8-.6 8 .3m.6-2.2-8.6-.3m12.6.5H179m12 .3h-7m11.8 0h-.9m7.6.5-3.3-.1M235 127l-2.8-.2m-1.5 2.6 3.8.3m-78-3.5h2.9M134 125l18.8 1m-45.7-2.3h2m0-1.4h-2m45.4 1.7-18.5-.7m25.1.8H156m81.2 4.3 1.9-11s-1-.6-1.6-.6c-.7-.1-2 .3-2 .3l-.6 10m-.2 2.8-.5 7.7s.3.3.7.3h.8l.1-1.5m1.5-8.1 1.4 4.8m-3 13.1.2-16.5m-123.7-6 5.6.3m8 .2 4 .2m52.4 22s-1.3.3-1 1.2c.1.9 1.5.8 2.2.2.7-.6-.7-1.6-1.2-1.4Z" stroke="#2F1D4A" stroke-linecap="round" stroke-linejoin="round"/><path d="M69.6 169c4.3-9.6.5-20.6-8.6-24.7-9-4-19.9.4-24.2 9.9a18.4 18.4 0 0 0 8.6 24.6c9 4.1 20-.3 24.2-9.9Zm27.7-81c2.9-6.4.5-13.8-5.4-16.5-5.8-2.6-13 .5-15.9 7-3 6.5-.5 14 5.3 16.5 6 2.7 13-.5 16-7Zm125.6 99c4.8-10.5 1.4-22.2-7.5-26.2-9-4-20 1.2-24.7 11.7-4.7 10.4-1.3 22.1 7.6 26.1s20-1.2 24.6-11.7Zm81.1-15c4-8.9.4-19.1-8-22.9-8.4-3.8-18.4.3-22.4 9.2-4 8.9-.5 19 8 22.9 8.4 3.7 18.4-.4 22.4-9.2ZM85 201.4c.7-1.6 30.3-48 30.3-48s.7-1.2 1.1-1c.6.3.5.5.6 1.4.4 6.6-.2 34-.2 34s.3 1.6-1 2.5c-1.2 1-28.8 12.5-29.8 13s-1.7-.2-1-1.9Zm-60.8-91.1c.6-1.3 27.5-34 27.5-34s.6-.9 1-.7c.4.3.4.4.4 1.1.4 5.1-2.4 28.3-2.4 28.3s.2 1.2-.9 2c-1 .7-24 4.4-24.8 4.7-.9.4-1.4-.1-.8-1.4Zm268 3.1c.4-1 18.7-26.2 18.7-26.2s.4-.7.7-.5c.3.1.3.3.3.8.2 4-.8 21.2-.8 21.2s.2 1-.6 1.5-17.1 4-17.7 4.3c-.6.3-1-.1-.6-1.1Zm-34.8 38.1c.5-1.2 21.9-26.8 21.9-26.8s.5-.8.8-.7c.4.3.5.4.4 1l-1.1 21.4-1.6 1.2c-1.2.8-1.5 1.7-1.8 1.8-5.8 1.2-17.3 3.2-18 3.5-.7.4-1.1-.2-.6-1.4Z" fill="#E7E1EC"/><path d="m45.8 82 4.7-5.6s1.7-1.7 1.8.3l-2 20.4m-14-3.8 8.2-9.7M50 100l-.4 4s.2 1.4-.7 1.7c-1.2.4-23.3 5-24.6 5.4-1 .3-2.7 0-1.7-1.5l11.9-14.2m-23 30-1.7 2.8-4.4.8 6.7 2.6 7-12.2 9.5-9.1" stroke="#2F1D4A" stroke-linecap="round" stroke-linejoin="round"/><path d="m19 116-2.6 1.9-3.5 5.5m13.6-12.7-5.8 4.1m14.3 8.4-2.6-1.4 2.3-12.9" stroke="#2F1D4A" stroke-linecap="round" stroke-linejoin="round"/><path d="M33.5 109.1 29.1 123l11.8 8.2 1.8 4.2.6-7.7-6.2-3.3m7.2-17.6 8.4 25.3-3.4 4 8-3.6-12-25.9" stroke="#2F1D4A" stroke-linecap="round" stroke-linejoin="round"/><path d="m50 117 2.7-1 3.6 2.5-3.5-6.5-4.2 1.7L50 117Zm-3.1-2.5-7 2.9 2.4-10-1.3.1-4.4 13.6 11.3-3.5-1-3.1Z" stroke="#2F1D4A" stroke-linecap="round" stroke-linejoin="round"/><path d="m38.8 99.8 7.4-15 3.3-.9-9 15.5-1.7.4Zm-1.4 2 2.9-.6-1.5 3-2 .5.6-2.8Z" stroke="#2F1D4A" stroke-miterlimit="10"/><path d="M3.7 146.2c.2-.6 17.8-18.7 26-19.2 8.3-.4 4.5 6.4 2.8 6.8-1.8.5 1.9-4 4-3 2 1.1.4 3 .4 3s3.7-6.4 8-4c3.8 2 1.4 6.3 1.4 6.3M96 76.8a14 14 0 0 1-.6 11.5m-.9 1.5c-3.2 4.9-8.8 7.2-13.8 5.3-5.9-2.2-8.6-9.5-6-16.2 2.5-6.7 9.3-10.4 15.2-8.2 2.2.8 3.9 2.2 5 4.1" stroke="#2F1D4A" stroke-linecap="round" stroke-linejoin="round"/><path d="m73 103.8 3.1 1.8v2.4l2-5.3-7.5-3.6 5.8-7" stroke="#2F1D4A" stroke-linecap="round" stroke-linejoin="round"/><path d="m75.8 91.3-8.4 9 3.6 2.2M82.7 98l.5-2.2m-2.7 11.3 1.5-6.1m.4-5.4-6.9 19.1-2.7 2.5 5.7-1.9 1.5-6.3m10.2-7.7.8-7.8m-1.1.7-2.4 12.6 8.3 2.7 1 2.6v-5.4l-6.9-2.3" stroke="#2F1D4A" stroke-linecap="round" stroke-linejoin="round"/><path d="m88.8 100.2-1.3 1-1.4-5.6-.8.2 1.3 8.7 1.5-1 .7-3.3Zm2.1 1 3.2-2.2 1.8.8-2.2-3.4-3.2 2.5-.2 2.5" stroke="#2F1D4A" stroke-linecap="round" stroke-linejoin="round"/><path d="m83.5 87 3.6-13.6 3.5-.3-5.9 13.6-1.2.3Zm-.9 1.2 2.3-.4-1 2.4-1.5.5.2-2.5Z" stroke="#2F1D4A" stroke-miterlimit="10"/><path d="M33.4 164.4a19.1 19.1 0 0 1 .5-9.3c2.5-8 9.8-13.3 17.6-13.4m2.6.2a18.5 18.5 0 0 1 14.7 24c-3 10-13.4 15.6-23 12.6a18 18 0 0 1-12-12.2" stroke="#2F1D4A" stroke-linecap="round" stroke-linejoin="round"/><path d="m21 182.9-9.9 6.6-4.9-2.5 5.6 7 25.5-21" stroke="#2F1D4A" stroke-linecap="round" stroke-linejoin="round"/><path d="M36.5 172c0 .3-7.2 5.1-13.8 9.7m7.7 6.7.4-3.5 12.2-7.2m-18 18.7-.3 1.2-4.4 2.8 8.7-1 1.1-8.7" stroke="#2F1D4A" stroke-linecap="round" stroke-linejoin="round"/><path d="m35.5 180.3-7 3.6-3 10.6M42 176.8l-4.7 2.5m12 4.8 1.3-4.8m-2 15.4 2.8 4.8-3.4 2.7 8.2-1.3-8-12.4.7-2.7" stroke="#2F1D4A" stroke-linecap="round" stroke-linejoin="round"/><path d="m49.5 179.4-4.2 9.5 2.4 4.2m5.4-13.7s2.4 15 2.5 14.7c.1-.4 12.5-10.7 12.5-10.7l4.6 1.4-6-5.7-10 10-2.3-10" stroke="#2F1D4A" stroke-linecap="round" stroke-linejoin="round"/><path d="m53 146.5-5 18.7 2.6-.4L59 147l-6.2-.5ZM46.8 167l3.5-.4-1.8 4-2.3 1 .6-4.6Z" stroke="#2F1D4A" stroke-miterlimit="10"/><path d="M116.1 171c0 8.2-.2 15.8-.2 15.8s.2 1.6-1 2.5c-1.3 1-28.9 12.6-29.9 13-1 .5-1.6-.2-1-1.8.3-.7 4.5-7.3 9.6-15.4m15.5-24.4 5.3-8.3s.7-1.2 1-1c.6.4.6.6.6 1.5.2 2.7.2 9.2.1 15.8M95 183l13-20.4M81 225.3l6.9-24.1m-5.6 11.5L75 231l-4.6 3.1 8.8-2.5 1.3-4.4" stroke="#2F1D4A" stroke-linecap="round" stroke-linejoin="round"/><path d="m86.7 201.5-3.7 9.3m15.4 8 7.8-2.7 4.1 2-4-6.2-12.9 5.5 1.3-19.2" stroke="#2F1D4A" stroke-linecap="round" stroke-linejoin="round"/><path d="m93.5 198.7-2.8 23 5.5-2m8-7-.2-4 5-16.4m-8 25.7v7.7l-3.3 3 7.7-3.2-.7-8.8m-2-11.2-1.4 3.9-.2 4.7m6.7-21.6-4.2 11m12 .6-4.8 1.8 1.5-15.4" stroke="#2F1D4A" stroke-linecap="round" stroke-linejoin="round"/><path d="m111.1 191.3-2.8 17.8 13.6-3.8 4.5 2.6-4-6.3-4.8 1.7" stroke="#2F1D4A" stroke-linecap="round" stroke-linejoin="round"/><path d="m103.3 184.5 6.5-21.2 4.4-2.5L105 184l-1.7.6Zm-1.1 2.6c.3 0 3.1-1.3 3.1-1.3l-2 4.5-1.6 1 .5-4.2Z" stroke="#2F1D4A" stroke-miterlimit="10"/><path d="M296.6 148.7c6.1 4.2 9.1 12.2 6.9 20a18 18 0 0 1-22 12.6c-4.4-1.3-8-4.2-10.1-8m-1.6-3.7c-1-3.3-1.2-7-.1-10.6a18 18 0 0 1 24.7-11.6m-21.4 39 3.4-7.4m1.7 10.5 2-.9 2.2 2.3-1.9-6.9-9.2 6.3 1-2m-.7 4 4-1.7m-.2-12.5-6 11.7" stroke="#2F1D4A" stroke-linecap="round" stroke-linejoin="round"/><path d="m287.8 198.4-2.3-2.6 1-13.8" stroke="#2F1D4A" stroke-linecap="round" stroke-linejoin="round"/><path d="m285.1 182.1-2.3 15.2 8.2 10s-3.3 3.2-3 3l7.8-2.9-6-6.7" stroke="#2F1D4A" stroke-linecap="round" stroke-linejoin="round"/><path d="m291.4 181.2-3.1 11.2 8.7 7-.4 4 3.3-6.7-9-5.7 1.8-10.1" stroke="#2F1D4A" stroke-linecap="round" stroke-linejoin="round"/><path d="m297.1 185.8 5.8 17-2.4 3.3 5.9-2.8-10.5-24.3m-.9.7 1.1 3.2" stroke="#2F1D4A" stroke-linecap="round" stroke-linejoin="round"/><path d="m283.3 169.6 5-17.6 6-1.7-8.9 18.8-2.1.5Zm-1.2 2 4-1.5-2 4.5-2.6 1 .6-4Z" stroke="#2F1D4A" stroke-miterlimit="10"/><path d="M264.5 140.6a917 917 0 0 1 14.1-16.1c.7-.5 1.2-1 1.2.3l-1.6 22.3m-1.1 1c-3.4.8-21.3 4-21.3 4s-1 0-.5-.8l7.5-8.8m-8.2 24.9 7.8-16.4m-.8.1c0 .3-11.5 19.7-11.5 19.7l-5-1.1 6.4 4.2 2.3-4.9" stroke="#2F1D4A" stroke-linecap="round" stroke-linejoin="round"/><path d="m258.2 151.7-7.1 10.8 4.2-.7" stroke="#2F1D4A" stroke-linecap="round" stroke-linejoin="round"/><path d="m259.2 151.5-5 8.5 2.6-1m.7 2.4 4.7-.9 1.8 2.8-.6-6.1-4.2 1m9.5-2.5.1 7.8m-.2-13.5v4m1-4.4.5 8.3m4.6-9.3-.2 1.7m1-1.8v1" stroke="#2F1D4A" stroke-linecap="round" stroke-linejoin="round"/><path d="m268.9 142.7 6-11.2 3.4-.9-8 11.7-1.4.4Zm-.8 1.4 2.3-.7-1.8 2.3-1.1.3.6-2Z" stroke="#2F1D4A" stroke-miterlimit="10"/><path d="m310.4 97.8-.1 11s0 .6-.5.9c-.6.3-16.5 3.6-17.5 4-.6.2-1.7.1-1.1-.9l4.8-6.7m2.3-3.3 10.1-14s.7-1.1 1.4-1c.5 0 .5.5.6 1.1v6.5" stroke="#2F1D4A" stroke-linecap="round" stroke-linejoin="round"/><path d="m297.8 112.5.9 10.4 5.5 7.4.4 3.7 1.3-6.2-6-5.9-1.4-9.7m-4.7 11.7 2-11m-1 .2-5.6 20.9-3.4 2.6 6.2-2 1.3-7.2m7.8-10.1-1.4 2.2m5.8-8.8-3.4 5.2" stroke="#2F1D4A" stroke-linecap="round" stroke-linejoin="round"/><path d="m298.5 121.7-3 8.4-2.5 3.3 5.2-2.9 1.6-6m.6-2.2.6-1.9 5.4-9.9m1.1 11.2 5.2-1.5 2.3 2-1.8-4.8-8.1 3.2 3.1-10.4" stroke="#2F1D4A" stroke-linecap="round" stroke-linejoin="round"/><path d="m307.3 110.5-4.6 12.6 2.7-.8" stroke="#2F1D4A" stroke-linecap="round" stroke-linejoin="round"/><path d="m302.7 104.9 3.7-10.4 3-1-5.3 11-1.4.4Zm-1 1.3 2.6-.8-1.6 2.7-1.5.7.5-2.6Z" stroke="#2F1D4A" stroke-miterlimit="10"/><path d="M220.5 187.8c6.1-9.8 4.3-22-4.1-27.2-8.5-5.2-20.2-1.4-26.3 8.5-6.2 10-4.3 22.1 4.1 27.3 8.4 5.2 20.2 1.3 26.3-8.6Zm-42 17 5.9 7-3.2 4.6 7-4.3" stroke="#2F1D4A" stroke-linecap="round" stroke-linejoin="round"/><path d="m189.4 191.7-16.2 6.8 4 4.8" stroke="#2F1D4A" stroke-linecap="round" stroke-linejoin="round"/><path d="m190 192.8-12.3 6.3 10.1 10.9m5.7 5.9-3.7-9.5 7-8.8" stroke="#2F1D4A" stroke-linecap="round" stroke-linejoin="round"/><path d="m189.7 202.7-3 3.3 4.8 17.4s-4.5 4.1-4.2 4l9-4.2-1.9-5m.7-21.3-4 4.4m19.7 14.3 2.5-20m-2 1.3c0 .7-5.6 29-5.6 29l-5.2 3.7 8.8-2 1.2-9.7" stroke="#2F1D4A" stroke-linecap="round" stroke-linejoin="round"/><path d="m206.1 198.4-6.3 11.7 8.8.4" stroke="#2F1D4A" stroke-linecap="round" stroke-linejoin="round"/><path d="m207.7 198.2-4 9.7 5.3-.1m2.8 3h4.4l4.1 3.8-2.5-7h-5.3" stroke="#2F1D4A" stroke-linecap="round" stroke-linejoin="round"/><path d="m200.2 185.5 7.1-20.7 6-1.6-11 21.8-2 .5Zm-1.9 3 4-1.5-2.4 5.4-2.7 1 1.1-5Z" stroke="#2F1D4A" stroke-miterlimit="10"/><path d="M84.1 239s22.9-25.8 34.6-29c11.7-3.2 7.9 10 4.1 12.4-3.7 2.5-.7-3.9 4.4-5.4 5-1.5 2.4 4 2.4 4s2.9-6 8.7-8.1c5.8-2.1 4.9 3.5 4.9 3.5m48 16.5s5.2-9.3 11.2-12.4c6-3.1 8.8 3.6 8.8 3.6s2.9-14.8 10.4-17.4c7.5-2.6 6.2 8.6 6.2 8.6s-.2 4.3-2.6 3.1c-2.3-1.2 2.1-7.8 4.7-8.6 2.6-.7 5 2.4 5 2.4m-46-74.3-61.7-5.2v2.7l1.1.7-1 .2.2 5.2 1.5.8h-1.4v1.4l59.1 6.1.3-1.5-1-.5.5-.8-.5-2 1.7-.4.6-3.3-2-.8 2.2-.5.4-2.1Z" stroke="#2F1D4A" stroke-linecap="round" stroke-linejoin="round"/><path d="M132.2 135.8h.3a5 5 0 0 1 .8 0h.3l.7.1.6.3.4.6c.2.3.2.5.2.9v.6a1.8 1.8 0 0 1-.2.5l-.2.3a2 2 0 0 1-.3.2l1.2 2.7H135l-1-2.5h-.6v2.3l-1-.1-.1-6Zm1.5 1h-.5v1.8h.4c.3 0 .5 0 .7-.2.1-.1.2-.3.2-.7 0-.2 0-.4-.2-.6a.8.8 0 0 0-.6-.3Zm6.2 5.2a1.2 1.2 0 0 1-.2.2 2 2 0 0 1-.8.2h-.5a2.2 2.2 0 0 1-.8-.2 2 2 0 0 1-.6-.5 2.3 2.3 0 0 1-.4-.8 3.3 3.3 0 0 1-.2-1c0-.3 0-.6.2-.9l.4-.7a1.5 1.5 0 0 1 .6-.3l.7-.1.6.1a1.7 1.7 0 0 1 1 1l.1.9v.8l-2.6-.3v.5l.3.3a1.2 1.2 0 0 0 .4.2l.4.1h.7l.4-.3.3.8Zm-1.6-3.2a1 1 0 0 0-.3 0 .8.8 0 0 0-.5.4 1 1 0 0 0-.1.4l1.7.2c0-.3 0-.5-.2-.7a.8.8 0 0 0-.6-.3Zm2.6-2.3 1.6.2v4c0 .4 0 .7.2 1l.4.2h.4l.3-.1.3.8-.2.1a1.3 1.3 0 0 1-.6.2h-.3c-.5 0-.8-.2-1-.5a2 2 0 0 1-.4-1.2v-3.7h-.7v-1Zm7.7 6.4a1.2 1.2 0 0 1-.2.2 2.2 2.2 0 0 1-.8.2 2.4 2.4 0 0 1-.5 0 2.3 2.3 0 0 1-.9-.2 2 2 0 0 1-.6-.6 2.4 2.4 0 0 1-.4-.7 3.2 3.2 0 0 1-.1-1l.1-1 .4-.6a1.5 1.5 0 0 1 .7-.4 2 2 0 0 1 1.3 0l.6.4.4.6.1 1v.8l-2.7-.3.1.5.3.3.3.2.4.1h.7a1.3 1.3 0 0 0 .5-.3l.3.8Zm-1.6-3.3h-.3a.8.8 0 0 0-.6.5 1 1 0 0 0 0 .4l1.7.2c0-.3 0-.6-.2-.8l-.6-.3Zm2.8-.2a3.3 3.3 0 0 1 1.6-.2c.3 0 .5 0 .7.2l.4.3.2.5.1.7a8.7 8.7 0 0 1 0 1.3 4.7 4.7 0 0 0 0 .6h.5v1l-1.3-.1v-.6h-.1a1.3 1.3 0 0 1-.4.4c-.2.1-.5.2-.8.1-.3 0-.6-.2-.8-.4-.3-.3-.4-.6-.4-1l.1-.6a1 1 0 0 1 .4-.4l.5-.2h1l.3.1a1.1 1.1 0 0 0 0-.2v-.1l-.1-.5a.8.8 0 0 0-.5-.2 1.8 1.8 0 0 0-.7 0 3.2 3.2 0 0 0-.5.2l-.2-.9Zm1.2 3.3h.6a.8.8 0 0 0 .2-.4v-.5h-.2a1.6 1.6 0 0 0-.3-.1 1.5 1.5 0 0 0-.3 0 .8.8 0 0 0-.2 0 .4.4 0 0 0-.2.2.4.4 0 0 0 0 .3v.4l.4.1Zm5.6.3c0-.2 0-.3-.2-.3a3 3 0 0 0-.4-.3l-.6-.2a2.8 2.8 0 0 1-.6-.3l-.5-.5-.2-.7c0-.2 0-.4.2-.5 0-.2.2-.3.3-.4l.5-.2h.7a3.3 3.3 0 0 1 1.1.3l.4.2.2.2-.4.8a3.3 3.3 0 0 0-1-.5 1.8 1.8 0 0 0-.3-.1 1.1 1.1 0 0 0-.5 0l-.2.3c0 .1 0 .2.2.3l.5.2.6.2.6.4.4.4.2.7c0 .4-.2.7-.4 1-.3.2-.7.3-1.3.2a2.8 2.8 0 0 1-1.1-.3 2.9 2.9 0 0 1-.8-.6l.5-.8a3 3 0 0 0 1 .7l.5.1h.4l.2-.3Zm5.6 1.3-.3.1a2.3 2.3 0 0 1-.4.2 2.5 2.5 0 0 1-.4 0 2.8 2.8 0 0 1-.6 0 2.5 2.5 0 0 1-.8-.2 2 2 0 0 1-.7-.5 2.2 2.2 0 0 1-.4-.8 3.1 3.1 0 0 1-.1-1c0-.3 0-.7.2-1 0-.2.2-.5.4-.6l.7-.4a2.2 2.2 0 0 1 1.4 0 1.7 1.7 0 0 1 1 1l.1 1a4.4 4.4 0 0 1 0 .8l-2.8-.3v.5a1 1 0 0 0 .7.6h.4c.3.1.6.1.8 0l.4-.2.4.8Zm-1.6-3.4a1.2 1.2 0 0 0-.4 0 1 1 0 0 0-.3.2.9.9 0 0 0-.3.3 1 1 0 0 0 0 .4l1.8.2c0-.3 0-.6-.2-.7a.9.9 0 0 0-.6-.4Zm8.7 3.7h.5l.3-.2a.9.9 0 0 0 .4-.7 1 1 0 0 0-.1-.4.9.9 0 0 0-.3-.4 1.2 1.2 0 0 0-.4-.2 3 3 0 0 0-.5 0h-.4v-.7l1.4-1.8-2-.1v-1l3.2.3v.8l-1.5 1.7h.2c.2 0 .4 0 .6.2l.4.3.3.6.1.8a2 2 0 0 1-.2.8 1.9 1.9 0 0 1-.5.6 1.9 1.9 0 0 1-.7.4 2.6 2.6 0 0 1-.8 0 3.2 3.2 0 0 1-.7-.1 3.3 3.3 0 0 1-.7-.3l.3-1 .2.1a4 4 0 0 0 .6.3h.3Zm4.5.7c0-.2 0-.3.2-.5a.6.6 0 0 1 .5 0 .7.7 0 0 1 .4.1l.2.6c0 .2 0 .3-.2.4-.1.2-.3.2-.5.2a.7.7 0 0 1-.5-.2.7.7 0 0 1-.1-.6Zm3.5-2.2a6 6 0 0 1 .2-1.4l.5-1c.2-.3.4-.5.7-.6l.9-.1a2 2 0 0 1 1.5 1c.4.5.5 1.4.5 2.5a6 6 0 0 1-.3 1.5 3 3 0 0 1-.5 1 1.7 1.7 0 0 1-.7.5 1.9 1.9 0 0 1-.9.1c-.7 0-1.2-.4-1.5-1-.3-.6-.5-1.4-.4-2.5Zm1 .1a4.9 4.9 0 0 0 0 .3v.2l2.1-1.8c-.1-.6-.4-.9-.9-.9-.3 0-.6.1-.8.5a4 4 0 0 0-.4 1.7Zm2.2.2v-.5l-2 1.8c0 .6.3.9.8 1 .3 0 .6-.2.8-.5.2-.4.4-1 .4-1.8Z" fill="#E1557A"/></g><defs><clipPath id="a"><path fill="#fff" d="M0 0h320v239H0z"/></clipPath></defs></svg>
