<svg xmlns="http://www.w3.org/2000/svg" id="preview" width="2.424in" height="1.92in" viewBox="0 0 174.527 138.241"><defs><style>.cls-1,.cls-2{stroke:#3f2b56;fill:none;stroke-linecap:round;stroke-linejoin:round}.cls-2{stroke:#f58452}.cls-3{fill:#f7b2b2}.cls-5{fill:#f58452}.cls-6{fill:#ebb432}.cls-7{fill:#b29dd2}.cls-8{fill:#e1557a}.cls-9{fill:#3f2b56}</style></defs><path d="m5.581 35.946 166.664 48.263-6.489 45.838-153.484 5.273-6.691-99.374z" class="cls-3"/><path d="m98.351 16.631-3.72 1.01-1.864 9.034s4.112-2.36 9.514-4.004l-3.93-6.04ZM107.256 21.496s5.69-1.952 8.864.175-4.215 8.725-4.215 8.725l-2.988 1.679-10.162-.92 8.501-9.659Z" class="cls-6"/><path d="M107.256 21.496c-2.288.5-3.021.52-4.975 1.175-5.402 1.644-9.514 4.004-9.514 4.004-4.228 2.168-6.557 4.037-6.557 4.037l23.66 1.238s10.591-13.342-2.614-10.454Z" class="cls-6"/><path d="m112.208 73.216 1.98.336s4.606 2.45 3.701 7.4-3.485 5.967-3.485 5.967h-2.526l.33-13.703ZM92.329 102.031h5.089l-.778 9.101 4.131 1.975v3.029H90.233l2.096-14.105zM104.663 102.689h4.91v7.784l4.79 2.958v2.705h-10.742l1.042-13.447z" class="cls-3"/><path d="m86.007 70.054-14.133.816-4.613-25.645s-1.05-.154-1.33-1.414c0 0-.027-9.479.074-10.465.227-2.211 4.105-10.247 5.243-11.958 0 0 8.735-8.443 13.744-9.528 3.399-.736 15.411-1.11 19.034.832 5.436 2.914 6.921 8.047 6.921 8.047s-4.808.523-8.666 1.933l-3.93-6.04-3.72 1.01-1.8 9.06-2.85 2.74-2.77 2.074-5.851 1.01 4.647 37.528Z" class="cls-7"/><path d="m84.693 59.413.148 1.199.43 3.45.52 4.25.47 3.8c.04.32.31.56.63.57l36.18.87c.41.01.72-.35.65-.76l-.94-5.37-.52-2.96-1.91-10.92-.817-4.689-.179-1.027-.184-1.055-.413-2.364-4.415-.404v-1.432l-3.672-.918 1.234-1.693-29.86-1.906.066.537 1.5 12.07 1.082 8.752Z" style="fill:#f6f6f8"/><path d="m93.379 31.155 2.782.078-8.509 22.064-1.251-.36 6.978-21.782z" class="cls-3"/><path d="M152.046 97.724s-4.155.554-4.64-3.116 5.055-4.727 6.994-2.429.624 5.13-2.354 5.545Z" class="cls-5"/><path d="m122.781 67.422-13.73.329-5.43.13-17.83.431-.52-4.251 17.95.19 5.76.07 13.28.14.52 2.961zM116.338 47.088l4.013 6.454-.89-5.107-2.677-4.209-2.441-.223 1.995 3.085zM106.911 32.265l4.826 7.81 1.084-1.372h1.068l-4.019-6.753-2.959.315zM94.669 31.155l-8.268 21.782-2.6-.746 7.49-21.39 3.378.354z" class="cls-7"/><path d="m119.298 47.498 12.773 5.355-6.75-8.203h-3.9l-7.078-.647v-1.432l-3.672-.918 2.15-2.95 13.2.7 11.083 15.8c.7.995-.396 2.264-1.483 1.718l-15.954-7.305-.37-2.118ZM83.611 50.66l.876-.425-.686 1.956 3.851 1.105.739-1.922 1.59 1.922-2.115 6.15-5.931-.061-13.737 10.074c-1.039.762-2.303-.6-1.466-1.579l16.603-19.445.276 2.226Z" class="cls-3"/><path d="m104.585 103.695 3.773.056-.142 7.663s2.91 1.42 4.329 2.2l.07 2.483-8.994.04.964-12.442ZM92.149 103.242l3.579-.058-.78 8.869 4.115 1.632.142 2.625-8.972-.174 1.916-12.894z" class="cls-7"/><path d="M95.175 89.907h1.986l-1.057 12.322-2.493.048 1.564-12.37zM106.665 89.907l1.75.199-.195 12.189-2.558.394 1.003-12.782z" class="cls-6"/><path d="m78.806 71.918 33.402 1.298s4.126 2.339 3.714 7.841-4.044 5.862-4.044 5.862H78.22s-6.85-.056-7.262-6.796c-.176-2.873.548-5.474 2.48-6.796 2.613-1.788 5.368-1.41 5.368-1.41Z" class="cls-8"/><path d="M106.665 89.907h1.898l.488-16.693-1.512-.036-.874 16.729zM95.175 89.907h1.986l1.515-16.942-1.439-.035-2.062 16.977z" class="cls-3"/><path d="M86.367 36.025c-.778.347-1.746-.13-2.163-1.066-.416-.935-.122-1.974.656-2.32s1.746.13 2.163 1.066c.416.935.122 1.974-.656 2.32Z" class="cls-8"/><path d="M98.793 36.844c-.778.347-1.746-.13-2.162-1.065-.416-.936-.123-1.974.655-2.32s1.747.13 2.163 1.065c.416.935.123 1.974-.655 2.32Z" class="cls-5"/><path d="m109.87 31.95 9.797 17.667-.696-3.993-7.44-13.363-1.661-.311z" class="cls-3"/><path d="m21.756 88.347 11.379-11.509-3.572 24.692 26.089-18.791-6.212 19.412 8.697-4.348-7.144 18.333M1.765 76.993l16.927-22.207.832 31.886" class="cls-2"/><path d="m62.485 116.136 6.367-9.948-8.23 1.243 10.007-17.082-14.832 5.063M22.049 66.071l5.806-6.626.52 8.749 6.093-4.569-.914 7.432 14.621-8.529-7.615 21.14 8.467-3.534-2.733 5.761M21.868.5l.658 61.537M27.975 3.037l3.476 59.845M55.596 3.224s-4.697 38.99-5.45 43.03-4.039 15.031-4.039 15.031M58.402 31.153c-.623 7.406-1.187 13.805-1.397 15.382-.563 4.228-6.764 37.674-6.764 37.674M60.67 3.412s-.995 12.47-1.96 24.055M111.065 90.216l3.06-1.034 11.477 13.856 5.878-4.059 13.576 18.194h3.919l3.079-5.878h8.538l13.435-16.235M99.617 94.084l4.152-1.403" class="cls-2"/><path d="m58.422 90.162 8.678-6.159 16.375 15.536 8.26-2.791M139.318 102.898l5.178-3.919 5.739 5.318 11.196-9.937 4.619 5.319M141.264 93.248l3.616.431M145.155 84.501l2.968 3.885M154.795 82.12l-1.673 6.313M157.702 91.131l3.777-2.698M29.456 28.532s5.387-5.14 9.34-9.884M32.982 25.022v-2.42M32.426 25.591l2.812.372M34.661 23.273v-4.032M35.238 23.273l3.558.317" class="cls-2"/><path d="M36.84 18.384v2.522h3.209M50.77 41.974c-2.59-2.507-6.372-7.642-6.372-7.642v-2.077M44.398 34.332h-1.582M45.405 35.666l-1.798.577" class="cls-2"/><path d="M46.838 33.937v3.557l-2.44.792M48.656 36.243v3.449l-3.251.703M59.622 16.396l5.93-4.536M62.233 14.399l2.001.954M64.234 12.868l1.318.771M63.233 13.639l.276-2.899" class="cls-2"/><path d="m100.222 44.65.128 4.877M98.04 57.869l2.695-4.107 2.952 4.236M107.024 49.527l2.438 5.775M92.408 40.919l3.753-9.768-4.87-.35-7.49 21.39v.01M88.391 51.374l3.139-8.169M122.261 64.461l.52 2.961-13.73.329-5.43.13-17.83.431-.52-4.251 17.95.19 5.76.07 10.819.115" class="cls-1"/><path d="m103.621 67.881-.4-3.63 5.76.07.07 3.43-5.43.13z" class="cls-9"/><path d="m108.243 100.864.808-27.65-1.512-.036-1.877 29.511M109.573 110.473v-7.784h-4.91l-1.042 13.447h10.742v-2.909s-2.515-1.796-4.79-2.754ZM103.769 114.484h10.593M96.221 100.414l2.455-27.449-1.439-.035-3.231 26.609M92.329 102.03h5.09l-.78 9.102s2.156.838 4.132 1.975v3.03H90.233l2.096-14.106ZM90.479 114.484h10.292M92.329 102.031l-1.85-2.492M104.663 102.689l-1.796-2.514" class="cls-1"/><path d="M81.841 30.122a.644.644 0 0 0-.69.72l.96 7.75 6.333.341 2.846-8.13-9.449-.681Zm4.526 5.903c-.778.347-1.746-.13-2.163-1.066-.416-.935-.122-1.974.656-2.32s1.746.13 2.163 1.066c.416.935.122 1.974-.656 2.32Z" class="cls-9"/><path d="m121.421 44.65-1.95-2.847-2.4-.35-1.2 1.5-1.528-.382M113.165 42.277l2.356-3.344" class="cls-1"/><path d="m121.719 50.49 13.902 6.431c1.087.546 2.182-.723 1.484-1.719L126.02 39.403l-13.2-.7-2.15 2.95 3.672.918h0v1.432l7.078.647h3.9l6.75 8.203-12.773-5.355" class="cls-1"/><path d="m117.808 38.968-1.017-5.827a.638.638 0 0 0-.59-.54l-4.668-.337 3.45 6.554 2.825.15ZM111.905 39.96l-4.994-8.029.719.052-11.47-.828-3.085 8.028 18.663 1.006.167-.229Zm-13.112-3.116c-.778.347-1.746-.13-2.162-1.065-.416-.936-.123-1.974.655-2.32s1.747.13 2.163 1.065c.416.935.123 1.974-.655 2.32Z" class="cls-9"/><path d="m112.821 38.703 2.163.115-3.453-6.557-4.62-.329 4.994 8.028.916-1.257zM115.427 45.624l4.924 7.918-.817-4.689h0l-.179-1.027-.184-1.055" class="cls-1"/><path d="m84.693 59.413.148 1.199.43 3.45.52 4.25.47 3.8c.04.32.31.56.63.57l36.18.87c.41.01.72-.35.65-.76l-.94-5.37-.52-2.96-1.91-10.92-.817-4.689h0l-.179-1.027-.184-1.055-.413-2.364-4.415-.404v-1.432h0l-3.672-.918 2.15-2.95 4.987.265-1.017-5.826a.638.638 0 0 0-.59-.54l-4.67-.34-4.62-.33-10.75-.78-4.87-.35-9.45-.68a.644.644 0 0 0-.69.72l.96 7.75 1.5 12.069" class="cls-1"/><path d="m83.611 50.66.876-.425-.686 1.956 3.851 1.105.739-1.922 1.59 1.922-2.115 6.15-5.931-.061-13.737 10.074c-1.039.762-2.303-.6-1.466-1.579l16.603-19.445.276 2.226Z" class="cls-1"/><path d="m73.318 62.618 8.802-7.832-.245-3.28 1.736-.845M88.767 28.96s10.853-6.706 20.15-7.857c4.248-.526 8.196-.614 7.845 2.498-.229 2.036-3.05 4.976-4.676 6.52 0 0-1.343 1.099-2.635 1.992" class="cls-1"/><path d="M102.281 22.672c-3.58 1.18-6.96 2.76-9.45 4.03l.24-1.22.01-.01 1.55-7.83 3.72-1.01s2.2 3.05 3.38 5.04h.01c.22.38.41.73.54 1Z" class="cls-1"/><path d="M102.281 22.672c-3.58 1.18-6.96 2.76-9.45 4.03l.24-1.22.01-.01s2.62-3.41 8.65-3.8h.01c.22.38.41.73.54 1Z" class="cls-9"/><path d="m71.58 69.239.294 1.631 11.927-.86M79.614 33.937 67.261 45.225l2.889 16.06" class="cls-1"/><path d="M65.932 43.81s-.313-5.915 0-9.873 4.886-12.095 5.648-13.03 9.129-7.585 11.866-8.717 13.183-1.63 18.835 0c5.896 1.699 8.666 8.549 8.666 8.549" class="cls-1"/><path d="M83.055 14.876s3.787.502 5.177 8.936M80.005 49.056l-1.094-7.603s-3.91-.685-7.663 5.023c0 0 .157 5.16.939 9.304l2.273.11M71.58 49.527l7.791-4.877M77.853 79.032s-1.272-.231-1.465 1.003.81 2.082 2.39 1.85 2.97-3.238.695-4.896c-2.474-1.803-5.552.231-5.475 2.737s1.58 4.665 5.166 4.28c3.67-.395 5.05-4.319 4.742-6.94-.184-1.572-1.465-4.935-6.592-4.743-5.665.214-6.316 5.206-6.4 6.362-.116 1.58.334 5.058 3.315 7.094 3.162 2.16 9.87 1.581 11.066-4.626M108.65 86.919h5.753s3.565-1.795 3.548-7.039c-.016-4.788-4.202-6.553-4.202-6.553M99.162 86.919h7.503M78.221 86.919h15.39M89.704 75.46c.449.87 1.103 2.555.988 4.845-.231 4.626-3.161 6.614-3.161 6.614M91.742 74.474c.436.876 1.418 3.197 1.264 6.1-.232 4.357-2.545 6.345-2.545 6.345" class="cls-1"/><path d="M111.628 74.984s1.619 1.735 1.619 5.14c0 4.614-2.738 6.795-2.738 6.795M71.248 35.616l3.15 3.087.295-5.357M95.175 89.907h1.986M106.665 89.907h1.898M67.197 120.99s-1.899 5.29-1.085 5.697 4.748-3.798 4.748-3.798-.678 2.984-.407 3.527 4.205-4.205 4.205-4.205-.271 3.256.271 3.663 2.85-3.934 3.12-5.02" class="cls-1"/><path d="M116.044 122.533s-1.149 4.596-1.216 5.407 5.001-5.542 5.001-5.542-.81 4.596-.405 4.799 4.934-5.949 4.934-5.949.135 5.61.608 5.746 3.042-5.746 3.042-5.746 1.352 5.746 1.96 5.813 1.15-5.272 1.15-5.272 2.838 5.205 3.244 5.205 0-5.272 0-5.272 3.988 4.258 4.258 3.92-1.284-5.272-1.284-5.272 2.974 2.974 3.38 2.636-2.283-5.155-4.15-6.87H.5M129.501 126.355l-6.224 11.386" class="cls-1"/></svg>