<svg xmlns="http://www.w3.org/2000/svg" xml:space="preserve" id="Layer_1" x="0" y="0" style="enable-background:new 0 0 255.8 107.6" version="1.1" viewBox="0 0 255.8 107.6"><style>.st0{fill:#fff}.st1,.st6{fill-rule:evenodd;clip-rule:evenodd;fill:#ebe6ef}.st6{fill:#fff}</style><path d="M1.7 39.9c-1.8-4 0-8.8 4.1-10.6L67.9 1.7c4-1.8 8.8 0 10.6 4.1l27.7 62.1c1.8 4 0 8.8-4.1 10.6L40 106.2c-4 1.8-8.8 0-10.6-4.1L1.7 39.9z" class="st0"/><path d="M5.3 28.4 67.5.8c4.5-2 9.9 0 11.9 4.6L107 67.5c2 4.5 0 9.9-4.6 11.9L40.3 107c-4.5 2-9.9 0-11.9-4.6L.8 40.3c-2-4.5 0-9.8 4.5-11.9zm.4 1c-4 1.8-5.9 6.5-4.1 10.6l27.8 62c1.8 4 6.5 5.9 10.6 4.1l62-27.7c4-1.8 5.9-6.5 4.1-10.6L78.4 5.7c-1.8-4-6.5-5.9-10.6-4.1L5.7 29.4z" class="st1"/><path d="M37.7 56.5c1.6 1.1 3 2 3 4.1-2.2-.6-3.2-1.9-3-4.1z"/><path d="M19.9 36.5c-.4-.3-.8-.5-1.3-.5l-1.7.8c-.8 1.5-.4 2.2 1.1 2.8 1.5.6 1.5.8.8 2.2-.1.1-.2.3-.2.4l-.3.6c-.3.2-.4.5-.3.7 0 .3.2.5.4.6 1.1.9 1 2 0 2.9-.3.3-.7.6-1 .9-.8.9-.6 1.8.6 2.4-.9 1-1.4 2.2-1.7 3.5l1.5 3.4c.4.3.9.6 1.2 1l.2.2c1 1.2 2 2.3 3 3.6 3.2 4.4 7 8.2 11.4 11.4 4 2.8 8.1 5.4 12.9 6.8 6 1.9 12.4 2 18.5.5 2.6-.7 5.2-1.5 7.7-2.4 1.6-.5 3.2-1.2 4.7-1.9 1.6-.7 3.1-1.6 4.5-2.5.5-.3.9-.5 1.4-.8 1.5-.9 3.1-1.7 4.3-3.1.7-.8 1.7-1.3 2.8-1.5.3-.1.5-.2.7-.4.7-.6 1.4-1.3 2.2-1.9.2-.2.4-.4.7-.5.3-.2.5-.4.8-.6.6-.5.4-1.1.1-1.7-.1-.1-.2-.3-.3-.4-.1-.1-.2-.2-.4-.2-.1 0-.3-.1-.4 0-.1 0-.3.1-.4.1l-1.7.8c-.6.2-1.3.4-2 .7-.4.1-.7.2-1.1.4-.3 1-1.4 1.2-2.6 1.5-.7.2-1.4.4-2.1.7l-1.6.6.4-1.6c.1-.4.2-.8.2-1.2 0-.9-.5-1.2-1.2-.9-.5.2-.9.6-1.1 1.1-.5.8-.8 1.7-1.1 2.5-.1.4-.3.8-.7 1.2-.3.3-.8.5-1.2.5-6.8 1.5-13.9.7-20.2-2.2-5.4-2.5-10-6.6-13-11.7-1.2-2-2.4-4.1-3.6-6.2-.8-1.4-1.6-2.9-2.3-4.5-.6-1.2-.2-1.9 1.1-2.2.5-.1 1-.1 1.4-.2h.2c.6-.1 1.2-.1 1.8-.3.3 0 .6-.1.8-.3.2-.2.4-.4.4-.7-.4-.4-.8-.7-1.3-.9-.5-.2-1-.3-1.6-.2h-2.8c-.5 0-1 0-1.5.1-1.1.1-2.1.1-3.2 0h-.9c-.8 0-1.6 0-2.2-.6-.2-.2-.6-.1-.9-.1-.3 0-.5.1-.8.2-.2.1-.5.1-.7.2-.8.3-1.7.3-2.5.1-.6-1.5-.9-1.7-2.5-1l-1 .4c-1.3.5-1.6.4-1.8-.9 0-.9-.3-1.4-.6-1.7zm12.9 26.6c-.1-1-.5-2-1.2-2.9h-.1c-.8-.3-1.6-.6-2.5-.1 0-.1-.1-.1-.1-.2-.1-.2-.3-.4-.6-.6-.1-.1-.3-.1-.5-.1 0-.1.1-.3.1-.4 0-.3.1-.6.2-.9.6.3 1.3.1 2 0 .3-.1.7-.1 1-.1v-.4l-1.9-.6.3-.3 1.5-.1.1-.4c-.4-.1-.9-.1-1.3-.2 0-.1-.1-.3-.2-.4h1c-1-1.3-1-1.3-2.4-1.4-.2-.3.2-.6 1.1-1.1.4-.2.8-.5 1-.9.2-.4.3-.9.3-1.4.1-.1.3-.2.4-.2.6-.3 1.1-.5 1-1.3l2.4-.6-1.2-.7 1.9-1.3c.4-.3.9-.6 1.3-.9.7-.6 1.2-.6 1.7.2.4.8.7 1.5 1 2.3l-1.4-.4c-.2.3-.3.6-.3 1 0 .3 0 .7.2 1 .1.3.3.6.6.8.3.2.6.4.9.5l.4-1.3c.3.2.6.4.9.7.2.3.3.5.4.8.2.4.3.7.5 1.1.2.7.5 1.4 1.2 1.9.2.3.4.6.4 1 0 .1 0 .1.1.2.1.3.1.6.6.7.1.1.1.2.2.3v.4c-.5.5-.3 1-.1 1.6.1.2.1.4.2.6l.5-1.7 5 6.1-.4 1c1.7.3 1.8.3 2.7 1.3l.1-.8c.8.4 1.7.9 2.5 1.3.1.1.2.1.4.2.5.3.9.6 1.4.8.4.2.8.5 1.2.7.9.3 1.7.8 2.4 1.5.4.5 1.3.8 2.1 1h.2c1.6.4 3.4.5 5 .2.6-.1 1.3 0 1.9.3.6.3 1.3.5 2 .5s1.4-.1 2-.3c0 0 .1 0 .1-.1.1-.1.2-.1.2-.1 1 .3 1.9.2 2.9 0 .5-.1 1-.2 1.5-.2-.2.3-.4.6-.7.8-.3.2-.6.3-1 .3-1.5.2-2.9.3-4.5.4H71c-1.5.1-2.9.2-4 1.5-.7 0-1 .4-1.2.8-.1.1-.1.2-.2.2-.3.4-.7.3-1.1 0-.2-.2-.4-.3-.7-.3-.3 0-.5 0-.8.1-1.5.5-1.8.4-2.1-1.5L59 74.1l1.3-1c-3-1.9-6.3-2-9.6-1.9.1-.2.1-.3.2-.5.1-.3.3-.6.2-.8l-.3-.6c-.1-.2-.3-.3-.5-.4-.6-.3-1.2-.4-1.9-.5-.9.1-1.9 0-2.7-.5.2-.1.3-.3.5-.4.7-.8.7-1.3-.2-1.9-.8-.4-1.5-.8-2.3-1.1l-.3.5 1.3 1.5c-.6-.5-1.3-.9-2-1.2-.7-.3-1-.1-1.2.8h-.3c-.2 0-.4 0-.5.1-.7.5-1.2 0-1.4-.4-.2-.5-.6-.9-1-1.2-.4-.3-.9-.5-1.5-.5-.2-.1-.3-.1-.4-.2.2-.1.3-.1.5-.2.5-.1.9-.2.9-.8 0-.5-.4-.7-.8-.9-.1 0-.2-.1-.3-.1v-.6c-.2-.1-.3-.2-.5-.3-1.2-.7-2.4-1.4-4.1-.8.2.5.5.9.9 1.3-.1.3.1.6.2.9.1.2.2.5.2.8l-.7.7 2.6 1.1c-.5 1.3-.7 1.3-1.4.4-.5-.6-1.2-1.1-2-1.3-.1 0-.3-.1-.4-.1-.1-.9-.7-1.1-1.3-1.3-.2-.1-.4-.1-.6-.2-.1-1.8.2-2 1.4-1.6.1.5.2 1.1.4 1.6.1.3.3.5.6.6h.8zm1.5-.5.2.4.1-.2c-.1 0-.2-.1-.3-.2zm-15.6-9.1c.6-.6 1.2-1.2 1.9-1.8 1.3 1.4 2.6 1.4 3.6.2-.1-.1-.2-.2-.3-.2-.3-.2-.5-.3-.5-.5 0-.4-.2-.5-.5-.5-.2 0-.4-.1-.5-.3 1.6-1 3-2.3 4.5-3.5 1.7-1.4 3.3-2.8 5.2-4 .3.4.7.7 1.2.9.1 0 .3-.1.6-.2.1-.1.3-.2.5-.2l-1-1.2c.3-.2.7-.4 1-.5.7-.4 1.5-.8 2.2-1.1 1.1-.4 1.8.1 1.5 1.2-.2.8-.6 1.5-1.2 2-1.8 1.7-3.8 3.2-6.1 4.3-1.1.6-2.2 1.4-2.9 2.4-.5.6-1 1.2-1.6 1.8-.4.4-.8.8-1.5.5-.7-.3-1.5.6-1.8 1.5 0 .1-.1.2-.2.3-.1.1-.2.2-.3.2-.3.1-.6.2-1 .2-.3 0-.6-.2-.9-.4-.2-.2-.2-.5-.3-.8 0-.2 0-.3-.1-.5-1.6 0-1.5 1.1-1 3.2-1.2-1-1.5-1.9-.5-3zm14.4 18.3.2-.2 3.1 1.9.1.1c.1.1.1.1.2.1 1.4.2 2.2 1.2 3.1 2.1.4.4 1 .6 1.5.7.6.1 1.1.2 1.6.5.4.2.9.4 1.3.6 1.1.5 2.3 1.1 3.6 1.1.4-.1.7 0 1.1.1.3.1.6.4.9.6-.4.2-.9.3-1.4.3-.5 0-.9-.1-1.4-.3-1-.3-1.9-.6-2.9-1-1.4-.6-2.8-1.3-4.2-2.1-1.7-1.1-3.5-2.2-5.2-3.4-.2-.2-.5-.3-.7-.5-.2-.1-.5-.3-.7-.5 0 0-.1-.1-.2-.1zm8.8-.3c-.7-.3-1.3-.7-1.8-1.2l.5-1.5 2-.3-.1 1.6 3.4 2.1-.1.3c-.7-.1-1.4-.2-2.1-.2-.5.1-.9-.2-1.2-.4-.2-.2-.4-.4-.6-.4zM37.2 65c0-.1-.1-.1-.1-.2l3.2 2.7c-.3.1-.6.1-.9.2h-3.2c-.6 0-1-.3-1.4-.7-.1-.1-.2-.2-.3-.2.2-.4.6-.4.9-.4h1.1c1.2-.2 1.3-.5.7-1.4zm-8.6-23.6-3 2.5c.3-.1.5-.2.8-.3h.1c-.1.5-.2.7-.8 1.1l.8-.2c.1-.9.2-.9.9-.6l1.2.6c.6-.3.5-.6.4-1-.1-.3-.1-.7.4-.8v-.1c-.1-.1-.1-.2-.2-.3-.2-.4-.4-.6-.6-.9zM56 80.3c-.6 0-1.3 0-2-.2l10.3-.2c-1.8.7-3.7 1-5.7.9-.8-.5-1.7-.5-2.6-.5zm14-1.9c-.4.1-.9.3-1.3.4 1.5-1 3.3-1.6 5-2.2 1.4-.5 2.9-1 4.2-1.7-2.4 1.8-5.1 2.7-7.9 3.5zM26.5 64.6l.1-.2-.6-.8h.3c.8.5 1.4 1.3 1.7 2.2.1.3.4.6.7.8.2.1.3.3.5.4.4.4.7.8.9 1.3l-4.6-4 .1-.2.9.5zM48.3 74h1c-1.4 1.3-2.9 1.6-4.2.7 1-.7 2.1-.7 3.2-.7zM25.9 41.1l.2 1.3c-1.2.4-1.6.3-2.8-1 .9-.3 1.8-.4 2.6-.3zM84.4 68l.2.3-4.8 1.8-.1-.2c.9-.8 2.1-1.2 3.3-1.5.5-.1 1-.2 1.4-.4zM19.3 37.2l-1.9 1c-.1-.7 0-1.2.6-1.5.4-.2.9-.1 1.3.5zM69.4 74c.2-.3.5-.5.9-.6l.3 1.4-1.6.2c0-.3.2-.7.4-1z" style="fill-rule:evenodd;clip-rule:evenodd"/><path d="M177.4 5.7c1.8-4 6.5-5.9 10.6-4.1l62 27.8c4 1.8 5.9 6.5 4.1 10.6l-27.7 62c-1.8 4-6.5 5.9-10.6 4.1l-62.1-27.7c-4-1.8-5.9-6.5-4.1-10.6l27.8-62.1z" class="st0"/><path d="M229.3 66.1c-6.7 15.1-24.5 21.9-39.6 15.2-15.1-6.7-21.9-24.5-15.2-39.6 6.7-15.1 24.5-21.9 39.6-15.2S236 51 229.3 66.1zm-41.7-13.6 24.9-18.8-8.8 16 12.4 5.5L191.3 74l8.8-16-12.5-5.5z" style="fill-rule:evenodd;clip-rule:evenodd;fill:#05998b"/><path d="m188.3.8 62.1 27.7c4.5 2 6.6 7.3 4.6 11.9l-27.7 62.1c-2 4.5-7.3 6.6-11.9 4.6l-62.1-27.7c-4.5-2-6.6-7.3-4.6-11.9l27.7-62.1c2.1-4.6 7.4-6.6 11.9-4.6zm-.4.9c-4-1.8-8.8 0-10.6 4.1l-27.7 62.1c-1.8 4 0 8.8 4.1 10.6l62.1 27.7c4 1.8 8.8 0 10.6-4.1L254.1 40c1.8-4 0-8.8-4.1-10.6L187.9 1.7z" class="st1"/><path d="M85.9 19.9c0-4.4 3.6-8 8-8h68c4.4 0 8 3.6 8 8v68c0 4.4-3.6 8-8 8h-68c-4.4 0-8-3.6-8-8v-68z" style="fill:#092e20"/><path d="M93.9 10.9h68c5 0 9 4 9 9v68c0 5-4 9-9 9h-68c-5 0-9-4-9-9v-68c0-5 4-9 9-9zm0 1c-4.4 0-8 3.6-8 8v68c0 4.4 3.6 8 8 8h68c4.4 0 8-3.6 8-8v-68c0-4.4-3.6-8-8-8h-68z" style="fill-rule:evenodd;clip-rule:evenodd;fill:#04150f"/><path d="M105.2 41.6h-3.8v5.8c-.5-.1-1.1-.2-1.7-.2-4 0-6.5 2.4-6.5 6.4s2.4 6.1 7 6.1c1.7 0 3.3-.2 4.9-.5V41.6zm-5.1 8.7c.4 0 .9.1 1.3.2v6.1c-.4.1-.9.1-1.3.1-1.9 0-3-1.1-3-3.1s1.1-3.3 3-3.3z" class="st6"/><path d="M111.2 56.3v-8.8h-3.8V55c0 3.3-.2 4.5-.7 5.6-.7 1.2-1.7 2.1-3 2.5l3.5 1.7c1.3-.5 2.4-1.5 3.1-2.8.7-1.2.9-2.7.9-5.7zM111.2 41.7h-3.8v3.9h3.8v-3.9z" class="st0"/><path d="M118.5 47.3c-1.7 0-3.4.4-5 1.1v2.9c1.4-.7 2.9-1.1 4.4-1.2 1 0 1.3.2 1.3.9v.8c-4.7.4-6.6 1.6-6.6 4.3 0 2.5 1.4 3.6 4.6 3.6 1.8 0 3.6-.2 5.4-.4v-7.7c.1-1 0-2-.4-2.9-.5-.9-1.8-1.4-3.7-1.4zm-2.4 8.7c0-1 .8-1.4 3.3-1.6v2.5c-.6.1-1.2.2-1.8.2-1 0-1.5-.3-1.5-1.1z" class="st6"/><path d="M130.6 47.2c-2 0-4 .3-6 .9v11.5h3.8v-9c.6-.2 1.2-.3 1.8-.3 1.4 0 1.8.6 1.8 2v7.3h3.8v-7.4c0-1.9-.2-2.8-1-3.6-.6-.5-1.2-.8-2-1.1-.7-.3-1.4-.3-2.2-.3z" class="st0"/><path d="M141.3 62.6c-1.4 0-2.8-.3-4.1-1h-.1V65c1.3.5 2.7.8 4.1.7 2.9 0 4.9-.9 6.1-2.8.8-1.2 1.1-2.8 1.1-6v-6.6h.3l.5.1 1.3-2.7c-1.6-.4-3.3-.5-4.9-.5-5.5 0-8.7 2.4-8.7 6.7 0 3.5 2.1 5.7 5.4 5.7.9 0 1.7-.1 2.5-.5v.1c0 2.4-1 3.4-3.5 3.4zm3.1-12.3h.5v6.1c-.5.1-.9.2-1.4.2-1.7 0-2.6-1.1-2.6-3-.1-.5 0-1.1.3-1.6.2-.5.6-.9 1.1-1.2.5-.3 1.3-.5 2.1-.5zM162.5 53.4c0-3.9-2.3-6.2-6.1-6.2-3.9 0-6.3 2.6-6.3 6.5s2.3 6.2 6.1 6.2 6.3-2.6 6.3-6.5zm-3.9.1c0 2.1-.9 3.3-2.3 3.3-1.5 0-2.3-1.2-2.3-3.3 0-2.1.9-3.3 2.4-3.3s2.2 1.2 2.2 3.3z" class="st6"/></svg>
