<svg xmlns="http://www.w3.org/2000/svg" xml:space="preserve" id="Layer_1" x="0" y="0" style="enable-background:new 0 0 255.8 107.7" version="1.1" viewBox="0 0 255.8 107.7"><style>.st0{fill:#fff}.st1{fill:#ebe6ef}.st1,.st2{fill-rule:evenodd;clip-rule:evenodd}.st2,.st3{fill:#029132}</style><path d="M1.7 39.9c-1.8-4 0-8.8 4.1-10.6L67.9 1.7c4-1.8 8.8 0 10.6 4.1l27.7 62.1c1.8 4 0 8.8-4.1 10.6L40 106.2c-4 1.8-8.8 0-10.6-4.1L1.7 39.9z" class="st0"/><path d="M28 68.1c.5-1.5.9-2.8 1.3-4.1.6-2 1.2-4 1.9-6 .5-1.4.9-2.9 1.4-4.3.1-.3.1-.6.6-.6v.5c-1 3.1-2 6.3-2.9 9.4-.4 1.2-.4 1.2.7 1.9 4.6 2.8 9.2 5.7 13.8 8.5.2.1.4.3.6.5-.1.1-.3.2-.5.4l-2 .9c-.2.1-.4.1-.6.1s-.4-.1-.6-.2c-1.8-1.2-3.7-2.3-5.5-3.4l-6.4-4c-.2-.1-.5-.3-.7-.4-.3.8-.7 1.5-.3 2.5l3.9 8.7.2.5c.2.5.2.6-.3.9l-2.1.9c-.4.2-.6.1-.8-.3L15.6 49c-.6-1.3-.5-1.1.6-1.6l1.3-.6c.9-.4.9-.4 1.3.5L28 68.1zm35.9-16c.8 1.9 1.2 3.9 1.3 5.9.1 1.6-.3 3.2-.9 4.7-.7 1.5-1.7 2.8-2.9 3.8-2.1 1.8-4.8 2.9-7.5 3.2-1.8.2-3.7-.1-5.3-.9-1.6-.8-3-2-4-3.6-1.6-2.3-2.6-5.1-2.9-7.9-.2-1.5 0-3.1.5-4.5s1.3-2.8 2.3-3.9c1.2-1.3 2.7-2.4 4.4-3.1 1.7-.7 3.4-1.1 5.3-1.1 1.6-.1 3.2.3 4.6 1.1 1.4.7 2.6 1.9 3.5 3.2.4 1 1 2 1.6 3.1zm-3.2 1.3c-.4-.8-.8-1.4-1.2-2.2-.7-1.3-1.6-2.5-2.7-3.5-2.8-2.5-6.3-2.6-9.4-.5a7.67 7.67 0 0 0-2.8 4.8c-.4 2.3-.1 4.7.7 6.9.5 1.3 1.1 2.6 1.7 3.9.7 1.4 1.7 2.7 2.8 3.8 3.1 2.8 6.6 2.8 9.8.4 2.1-1.6 2.7-4 2.7-6.5s-.6-4.9-1.6-7.1zm19.8-7.9-3.4-7.7c-.2-.6-.6-1.1-1.1-1.4-.5-.4-1.1-.5-1.7-.6-.8 0-1.5.1-2.3.3-2.6 1-5 2.6-6.8 4.7-.3.3-.3.3-.8.3l.3-.6c1.7-1.9 3.8-3.5 6.1-4.6 1.4-.7 2.9-1.3 4.5-1.6 1.1-.3 2.2-.2 3.2.3s1.8 1.3 2.2 2.4L87 51.3c.2.5.5.9.8 1.4.3.4.7.7 1.2.9.5.1 1 .1 1.5-.2.3-.1.6-.3.9-.4.1-.1.3 0 .5 0-.1.2-.1.3-.1.3-1.2.7-2.4 1.1-3.8 1.4-.8.2-1.6.1-2.4-.2-.8-.3-1.4-.9-1.8-1.6-.1.4-.2.8-.3 1.1-.5 1.9-1.6 3.5-3.2 4.5-1.4 1-3.1 1.6-4.8 1.7-.9.1-1.8-.1-2.7-.5-.8-.4-1.6-1-2.1-1.7-.4-.4-.7-.9-1-1.4-.5-.8-.7-1.7-.6-2.7s.6-1.8 1.2-2.5c1.2-1.2 2.5-2.2 4-3 2-1.1 4.1-2.1 6.2-2.9zm.2.6c-.4.1-.8.2-1.2.4-1.1.5-2.1 1-3.2 1.5-1.1.6-2.1 1.3-3 2.1-.4.4-.8.9-1 1.5-.2.6-.2 1.2-.1 1.7.3 1.9 1.3 3.5 2.7 4.8.5.5 1.1.8 1.8.9.7.1 1.4 0 2-.3 2.6-1.1 3.8-3.1 4.4-5.7.1-.7 0-1.4-.3-2L81 46.9c0-.3-.1-.5-.3-.8z"/><path d="M5.3 28.4 67.5.8c4.5-2 9.9 0 11.9 4.6L107 67.5c2 4.5 0 9.9-4.6 11.9L40.3 107c-4.5 2-9.9 0-11.9-4.6L.8 40.3c-2-4.5 0-9.8 4.5-11.9zm.4 1c-4 1.8-5.9 6.5-4.1 10.6l27.8 62c1.8 4 6.5 5.9 10.6 4.1l62-27.7c4-1.8 5.9-6.5 4.1-10.6L78.4 5.7c-1.8-4-6.5-5.9-10.6-4.1L5.7 29.4z" class="st1"/><path d="M177.4 5.7c1.8-4 6.5-5.9 10.6-4.1l62 27.8c4 1.8 5.9 6.5 4.1 10.6l-27.7 62c-1.8 4-6.5 5.9-10.6 4.1l-62.1-27.7c-4-1.8-5.9-6.5-4.1-10.6l27.8-62.1z" class="st0"/><path d="M183.5 46.2c.1-.3.2-.5.4-.8.1-.3.2-.5.3-.8.3-.6.5-1.2.8-1.8.5-1.1.4-2.2-.4-3.2l-3.3-4.5c-.8-1-1.8-1.5-3-1.4-1.9.2-3.7.4-5.6.5-1.2.1-2.1.8-2.6 1.8-.8 1.7-1.6 3.4-2.3 5.1-.5 1.1-.4 2.1.3 3.1 1.1 1.6 2.3 3.1 3.4 4.6.7 1 1.7 1.4 2.9 1.3l5.7-.6c1.2-.1 2.1-.7 2.6-1.8.3-.3.6-.9.8-1.5zm-1.8-7.6s.1.1.1.2c-.8.1-1.5.3-2 .8l-.1.1c-.1.1-.3.3-.4.5-.2.5-.6.7-1 .8-1.4.5-2.9.6-4.4.2-.2 0-.4-.1-.5-.3-.7-.9-1.6-1.3-2.7-1.2h-.2v-.1c0-.1 0-.1.1-.2.2-.3.3-.7.5-1 .2-.4.4-.9.6-1.3.3-.6.7-.9 1.4-1 1.8-.2 3.6-.3 5.4-.5.6-.1 1.1.1 1.5.7.4.5.7 1 1.1 1.5.2.2.4.5.5.7l.1.1zm.6 5.9h-.2c-1.1.1-2-.3-2.7-1.2-.1-.1-.2-.2-.3-.2-1.7-.4-3.4-.3-5 .4-.2.1-.4.3-.5.4-.5.8-1.1 1.3-2.1 1.5h-.5c.2.3.4.6.6.8.4.6.9 1.2 1.3 1.7.3.5.8.7 1.4.6 1.9-.2 3.7-.4 5.6-.5.5 0 .9-.3 1.1-.7.3-.7.6-1.3.9-2 .2-.2.3-.5.4-.8zM220 64.9c-1.4.4-2.9-1-2.6-2.4l.4.2c.4.2.8.4 1.2.5 1 .4 2 .9 3 1.3.5.2 1 .1 1.2-.5.6-1.8 0-3.5-1.6-4.5-2.2-1.4-5.3-.1-5.7 2.5-.3 1.9.9 3.8 2.8 4.3.7.2 1.4.2 2 0 .4-.1.6-.4.5-.8-.2-.6-.6-.8-1.2-.6zm.3-4.3c1 .3 1.6 1.4 1.4 2.4l-3.9-1.7c.4-.8 1.5-1.1 2.5-.7zM195.3 56c-1.9-.9-2.8-3.1-2-5 .8-1.8 3.1-2.7 5-1.9 1.9.8 2.8 3 2 4.9-.9 2-3.1 2.8-5 2zm2.4-5.4c-1.1-.5-2.4 0-2.9 1.1s0 2.4 1.1 2.9 2.4 0 2.9-1.1 0-2.4-1.1-2.9z" class="st2"/><path d="M204.5 52.5h-.5c.1-.5-.1-.9-.5-1-.4-.1-.8 0-1 .5-.8 1.7-1.5 3.4-2.3 5.1-.1.2-.1.3-.1.5 0 .3.3.6.6.7.4.1.7-.1.8-.5.1-.3.3-.6.4-.9.3-.6.5-1.2.9-1.9.2-.4.5-.7.9-1 .6-.4 1.2-.4 1.8 0 .6.4.9.9.8 1.7 0 .3-.1.7-.3 1-.2.6-.5 1.2-.8 1.7-.1.3-.3.6-.4.8-.2.5-.1.8.4 1 .5.2.8.1 1-.4.1-.2.1-.3.2-.5.4-.8.7-1.6 1.1-2.4.3-.6.4-1.3.3-2-.2-1.2-1-2.2-2.3-2.4-.3-.1-.6 0-1 0zM212 55.9h-.5V55.6c0-.3-.2-.6-.5-.7s-.6-.1-.8.1c-.1.1-.2.3-.3.5-.4.9-.9 1.9-1.3 2.9-.1.3-.3.6-.4.9-.1.1-.1.2-.2.4-.1.3-.3.6-.4.9-.1.2-.1.6 0 .8.1.2.4.3.7.4.3 0 .6-.2.7-.5.4-.9.8-1.8 1.2-2.8.2-.5.5-.8 1-1 1.2-.6 2.6.4 2.4 1.7 0 .3-.1.7-.3 1-.2.6-.5 1.1-.7 1.7-.1.3-.3.6-.4.9-.2.5-.1.9.4 1.1.4.2.8 0 1-.5.1-.2.2-.4.3-.7.3-.7.6-1.4 1-2.2.3-.7.4-1.4.3-2.1-.2-1.2-1.1-2.2-2.3-2.4-.1-.2-.5-.2-.9-.1zM188.8 53.1c-.1 0-.2-.1-.3-.1-1.8-.8-2.7-2.7-2.2-4.4.6-1.9 2.4-3 4.3-2.7 1.2.2 2.1.8 2.7 1.9.1.2.2.5.2.8 0 .3-.2.5-.5.6-.3.1-.6.1-.8-.2-.1-.2-.2-.3-.3-.5-.7-1.1-2.1-1.5-3.1-.8-1.1.7-1.3 2.2-.5 3.2.5.7 1.2.9 2.1.8.1 0 .2 0 .3-.1.1 0 .2 0 .2-.1.4-.1.8.2.9.5.1.4-.1.7-.5.9-.6.3-1.3.3-2 .2-.1.1-.3 0-.5 0zM225.6 69.5c-2.1-.9-2.9-3.3-1.9-5.2 1.1-1.9 3.6-2.5 5.5-1.3.6.4 1.1.9 1.4 1.6.2.6-.2 1.2-.8 1.1-.4 0-.6-.3-.7-.6-.3-.6-.8-.9-1.4-1.1-.9-.3-2.1.2-2.6 1-.5 1-.2 2.2.6 2.8.6.4 1.2.5 1.9.4.1 0 .2 0 .3-.1.5-.1.8.1 1 .5.1.4-.1.8-.5.9-1 .5-1.9.4-2.8 0zM233.2 64.1c-.1.2-.2.3-.2.5-.1 0-.2-.1-.3-.1-.5-.2-.9-.4-1.2.2-.3.7.2.9.7 1.2.1 0 .2.1.2.1l-.2.4c-.2.5-.4.9-.6 1.4l-1.2 2.7c-.2.5-.1.9.4 1.1.4.2.8 0 1.1-.5l1.2-2.7c.2-.4.3-.7.5-1.1.2-.4.5-.6 1-.4.4.1.8 0 .9-.4.2-.4.1-.7-.3-1-.1-.1-.3-.1-.4-.2-.3-.1-.3-.2-.2-.5.2-.5.4-1 .7-1.5.2-.4 0-.8-.4-.9-.4-.2-.8 0-1 .4-.4.5-.5.9-.7 1.3z" class="st3"/><path d="m188.3.8 62.1 27.7c4.5 2 6.6 7.3 4.6 11.9l-27.7 62.1c-2 4.5-7.3 6.6-11.9 4.6l-62.1-27.7c-4.5-2-6.6-7.3-4.6-11.9l27.7-62.1c2.1-4.6 7.4-6.6 11.9-4.6zm-.4.9c-4-1.8-8.8 0-10.6 4.1l-27.7 62.1c-1.8 4 0 8.8 4.1 10.6l62.1 27.7c4 1.8 8.8 0 10.6-4.1L254.1 40c1.8-4 0-8.8-4.1-10.6L187.9 1.7z" class="st1"/><path d="M85.9 20.9c0-4.4 3.6-8 8-8h68c4.4 0 8 3.6 8 8v68c0 4.4-3.6 8-8 8h-68c-4.4 0-8-3.6-8-8v-68z" class="st0"/><path d="M89.9 44.3h11.4v.9H90.9V52h9.7v.9h-9.7v7.4h10.4v.9H89.9V44.3zm16.4 10.5-4.5-5.8h1.3l3.8 5.1 3.8-5.1h1.2l-4.4 5.8 4.8 6.4H111l-4.2-5.7-4.3 5.7h-1.1l4.9-6.4zm8.3-3c.1-.3.3-.7.5-.9.2-.4.5-.7.9-1 .4-.3.8-.6 1.3-.8.6-.2 1.2-.3 1.8-.3.9-.1 1.7.1 2.5.4.7.3 1.2.8 1.7 1.4.5.6.8 1.3 1 2 .2.8.3 1.6.3 2.4 0 .9-.1 1.7-.3 2.6-.2.7-.5 1.4-1 2-.5.6-1 1-1.7 1.3-.8.3-1.6.5-2.4.5-.9 0-1.9-.2-2.7-.7-.8-.5-1.4-1.2-1.7-2.2v6.9h-.9V49h.8v2.8zm4.5 8.9c.7 0 1.4-.1 2.1-.4.6-.3 1.1-.7 1.4-1.2.4-.5.7-1.1.8-1.8.2-.7.3-1.4.3-2.1 0-.7-.1-1.4-.3-2-.2-.6-.4-1.3-.8-1.8s-.8-1-1.4-1.3c-.6-.3-1.4-.5-2.1-.5-.7 0-1.4.1-2.1.5-.6.3-1 .7-1.4 1.3-.4.5-.7 1.1-.8 1.8-.2.7-.2 1.4-.2 2.1 0 .7.1 1.4.2 2.1.1.6.4 1.2.7 1.8.4.5.8.9 1.4 1.2.7.1 1.4.3 2.2.3zm8.5-9c.2-.4.4-.8.7-1.1.3-.4.7-.7 1.1-.9.4-.2.9-.4 1.4-.5.5-.1 1.1-.2 1.6-.2v.9c-.5-.1-1.1 0-1.6.1-.7.2-1.3.6-1.7 1-.2.2-.4.5-.6.7-.2.2-.3.5-.4.7l-.3.9c-.1.4-.1.8-.1 1.2v6.6h-.9V49h.9l-.1 2.7zm5.7 3.5v.1c0 .7.1 1.4.3 2 .2.6.5 1.2.8 1.7.4.5.8.9 1.4 1.2.6.3 1.3.4 2 .4 1.1.1 2.1-.3 2.9-.9.7-.7 1.2-1.7 1.4-2.7h.9c-.2 1.3-.8 2.4-1.7 3.3-1 .8-2.3 1.2-3.5 1.1-.8 0-1.6-.1-2.4-.5-.7-.3-1.2-.8-1.7-1.3-.5-.6-.8-1.3-1-2-.2-.8-.3-1.6-.3-2.5 0-.8.1-1.7.3-2.5.2-.7.6-1.4 1-2.1.5-.6 1-1.1 1.7-1.4.7-.3 1.6-.5 2.4-.5.8 0 1.6.2 2.4.5.6.3 1.2.7 1.6 1.3.4.6.8 1.2 1 1.9.2.8.3 1.5.3 2.3v.5l-9.8.1zm9-.8c0-.6-.1-1.3-.3-1.9-.2-.6-.5-1.1-.8-1.6-.4-.4-.8-.8-1.4-1.1-.6-.3-1.2-.4-1.8-.4-.6 0-1.3.1-1.8.4-.6.3-1.1.6-1.5 1.1-.4.5-.7 1-.9 1.6-.2.6-.3 1.2-.4 1.8l8.9.1zm3.4 2.7c0 .5.2 1 .4 1.5.2.4.5.8.9 1.1.4.3.8.5 1.2.7.5.2 1 .2 1.5.2.4 0 .9 0 1.3-.1s.9-.2 1.3-.4.7-.5 1-.8c.3-.4.4-.8.4-1.3 0-.3 0-.6-.1-.8-.1-.3-.3-.5-.5-.7-.5-.4-1-.6-1.5-.8-.7-.2-1.3-.4-2-.5-.7-.1-1.4-.3-2-.5-.6-.2-1.1-.6-1.6-1-.4-.5-.7-1.2-.6-1.9 0-.5.1-1.1.4-1.5.3-.4.6-.7 1-.9.4-.2.9-.4 1.4-.5.5-.1 1-.1 1.6-.2.6 0 1.2.1 1.8.2.5.1 1 .4 1.4.7.4.3.7.7.9 1.2.2.6.4 1.2.3 1.8h-.9c0-.5-.1-1-.3-1.4-.2-.4-.4-.7-.8-.9-.3-.2-.7-.4-1.1-.5-.5-.1-.9-.2-1.4-.2-.4 0-.8 0-1.2.1-.4.1-.8.2-1.1.4-.3.2-.6.4-.8.7-.2.3-.3.7-.3 1.1 0 .4.1.8.4 1.1.3.3.6.6.9.7.4.2.9.3 1.3.4l1.5.3c.6.1 1.2.2 1.7.4.5.1 1 .3 1.4.6.4.3.7.6.9 1 .2.5.3 1.1.3 1.6 0 .6-.1 1.2-.5 1.6-.3.4-.7.8-1.1 1-.5.3-1 .5-1.5.6-.5.1-1.1.1-1.7.2-.6 0-1.3-.1-1.9-.3-.6-.2-1.1-.4-1.5-.8-.4-.4-.8-.8-1-1.4-.3-.6-.4-1.2-.4-1.9l.6.1zm11.4 0c0 .5.1 1 .4 1.5.2.4.5.8.9 1.1.4.3.8.6 1.2.7.5.2 1 .2 1.5.2.4 0 .8 0 1.3-.1.4-.1.9-.2 1.3-.4s.7-.5.9-.8c.3-.4.4-.8.4-1.3 0-.3 0-.6-.1-.8-.1-.3-.3-.5-.5-.7-.5-.4-1-.6-1.5-.8-.7-.2-1.3-.4-2-.5-.7-.1-1.4-.3-2-.5-.6-.2-1.1-.6-1.5-1-.4-.5-.7-1.2-.6-1.9 0-.5.1-1.1.4-1.5.3-.4.6-.7 1-.9.4-.2.9-.4 1.4-.5.5-.1 1-.1 1.6-.2.6 0 1.2.1 1.8.2.5.1 1 .4 1.4.7.4.3.7.7.9 1.2.2.6.4 1.2.4 1.8h-.9c0-.5-.1-1-.3-1.4-.2-.4-.4-.7-.8-.9-.3-.2-.7-.4-1.1-.5-.5-.1-.9-.2-1.4-.2-.4 0-.8 0-1.2.1-.4.1-.8.2-1.1.4-.3.2-.6.4-.8.7-.2.3-.3.7-.3 1.1 0 .4.1.8.4 1.1.3.3.6.6 1 .7.4.2.9.3 1.3.4l1.5.3c.6.1 1.2.2 1.7.4.5.1 1 .3 1.4.6.4.3.7.6.9 1 .2.5.3 1 .3 1.6 0 .6-.1 1.1-.4 1.6-.3.4-.7.8-1.1 1-.5.3-1 .5-1.5.6-.5.1-1.1.1-1.6.2-.6 0-1.3-.1-1.9-.3-.6-.2-1.1-.5-1.5-.8-.4-.4-.8-.8-1-1.4-.3-.6-.4-1.2-.4-1.9l.2.1z"/><path d="M93.9 11.9h68c5 0 9 4 9 9v68c0 5-4 9-9 9h-68c-5 0-9-4-9-9v-68c0-5 4-9 9-9zm0 1c-4.4 0-8 3.6-8 8v68c0 4.4 3.6 8 8 8h68c4.4 0 8-3.6 8-8v-68c0-4.4-3.6-8-8-8h-68z" class="st1"/></svg>
