<svg xmlns="http://www.w3.org/2000/svg" fill="none" viewBox="0 0 256 108"><g clip-path="url(#a)"><rect width="83" height="83" x="180.967" y="-.792" fill="#fff" stroke="#F0ECF3" rx="7.5" transform="rotate(24 180.967 -.792)"/><path fill="#42C18C" d="m220.564 31.615-12.652 9.106-1.691-15.491-23.893-10.638 7.351 67.082 54.77-39.424-23.885-10.635Z"/><path fill="#3B536A" d="m220.564 31.615-12.652 9.106-1.691-15.491-11.469-5.107 4.41 40.251 32.863-23.656-11.461-5.103Z"/><rect width="83" height="83" x="-.792" y="32.967" fill="#fff" stroke="#F0ECF3" rx="7.5" transform="rotate(-24 -.792 32.967)"/><path fill="#000" d="m36.334 69.603-17.304-8.79-2.999 1.335 6.173 13.863 2.399-1.068-4.854-10.9 13.701 6.968 15.022-6.688-.986-2.214-9.694 4.316-1.629-3.659 7.796-3.47-.986-2.215-7.795 3.47-1.586-3.562 9.693-4.315-.986-2.215-12.093 5.385.986 2.214h.001l5.14 11.545ZM74.282 36.22l-12.093 5.384.985 2.214 4.898-2.18 5.186 11.65 2.4-1.069L70.47 40.57l4.798-2.136-.986-2.214ZM48.34 47.776l-3.139 1.398 17.417 8.858 3.148-1.402-8.707-4.424 2.53-9.425-3.137 1.403-1.826 6.786-6.285-3.194ZM53.536 55.006l2.435 1.24-1.453 5.405-3.148 1.401 2.166-8.046ZM80.425 49.778a.683.683 0 0 0 .531-.02.707.707 0 0 0 .407-.55.641.641 0 0 0-.435-.701.675.675 0 0 0-.522.016.683.683 0 0 0-.37.381.628.628 0 0 0 .008.516.635.635 0 0 0 .381.358ZM82.45 42.096l1.063-.474 1.808 4.063c.165.374.226.73.186 1.069-.041.34-.173.644-.394.916-.221.27-.522.491-.9.66-.347.154-.684.23-1.015.232a1.64 1.64 0 0 1-.897-.247c-.268-.166-.48-.428-.639-.784l1.065-.474c.07.155.167.274.285.357.118.082.251.126.398.133a1.02 1.02 0 0 0 .46-.096.911.911 0 0 0 .388-.3.741.741 0 0 0 .133-.437c0-.166-.044-.352-.133-.556l-1.808-4.062ZM88 40.84c.259.048.458.19.594.424l1.03-.459a1.624 1.624 0 0 0-.664-.74 1.966 1.966 0 0 0-1.009-.257c-.38-.002-.779.092-1.198.278a3.02 3.02 0 0 0-1.017.708c-.264.287-.434.6-.508.94-.077.341-.038.682.113 1.022.185.414.472.682.866.806.392.124.86.139 1.4.045l.748-.132c.235-.041.447-.063.636-.067.187-.004.348.024.48.082.132.06.234.165.303.315a.733.733 0 0 1 .04.5c-.045.169-.14.325-.285.472a1.862 1.862 0 0 1-.569.377c-.222.099-.439.155-.648.17a1.122 1.122 0 0 1-.57-.104.955.955 0 0 1-.414-.417l-1.053.469c.185.376.432.656.741.839.31.182.663.268 1.063.256.398-.01.83-.118 1.288-.322.474-.212.845-.464 1.114-.756.27-.293.437-.607.5-.942a1.679 1.679 0 0 0-.133-1.01 1.54 1.54 0 0 0-.436-.59 1.606 1.606 0 0 0-.602-.304 2.508 2.508 0 0 0-.703-.079 4.22 4.22 0 0 0-.737.08l-.615.113a4.23 4.23 0 0 1-.407.055c-.137.012-.269.01-.394-.009a.771.771 0 0 1-.332-.12.616.616 0 0 1-.226-.275.714.714 0 0 1-.041-.444.943.943 0 0 1 .248-.432c.13-.136.307-.255.53-.354.316-.141.605-.188.867-.139Z"/><path fill="#20232A" stroke="#0B0C0E" d="M94 12.5h68a7.5 7.5 0 0 1 7.5 7.5v68a7.5 7.5 0 0 1-7.5 7.5H94a7.5 7.5 0 0 1-7.5-7.5V20a7.5 7.5 0 0 1 7.5-7.5Z"/><path fill="#61DAFB" d="M127.85 60.441c3.405 0 6.109-2.804 6.109-6.109a6.07 6.07 0 0 0-6.109-6.109c-3.405 0-6.109 2.804-6.109 6.11 0 3.404 2.804 6.108 6.109 6.108Z"/><path fill="#61DAFB" fill-rule="evenodd" d="M114.33 84.677c-1.202 0-2.404-.3-3.405-.902-4.106-2.403-4.907-9.213-2.604-18.026C99.608 63.245 94 59.139 94 54.332c0-4.807 5.508-8.913 14.221-11.417-2.203-8.712-1.402-15.623 2.704-18.026 3.405-2.003 8.412-.601 14.021 4.006 1.001.8 2.002 1.602 3.004 2.604 1.001-.902 2.003-1.803 3.004-2.604 5.609-4.607 10.616-6.01 14.021-4.006 4.106 2.403 4.907 9.213 2.704 18.026C156.392 45.42 162 49.525 162 54.332c0 4.807-5.508 8.913-14.221 11.417 2.203 8.713 1.402 15.623-2.704 18.026a7.307 7.307 0 0 1-3.505.902c-3.004 0-6.61-1.703-10.616-4.908a36.564 36.564 0 0 1-3.004-2.704 36.728 36.728 0 0 1-3.004 2.704c-3.906 3.205-7.612 4.908-10.616 4.908Zm-.401-26.84a106.042 106.042 0 0 0-2.103 5.809c1.903.4 3.906.7 6.109 1.001a101.483 101.483 0 0 1-2.103-3.405c-.52-.817-.985-1.69-1.436-2.536-.157-.294-.312-.585-.467-.869Zm6.109 10.015a77.381 77.381 0 0 1-9.013-1.402c-1.903 7.711-1.302 13.22 1.302 14.822 2.303 1.302 6.209 0 10.716-3.706.285-.253.579-.506.878-.762.646-.555 1.309-1.125 1.926-1.741-2.003-2.204-3.906-4.607-5.809-7.211Zm12.719 9.614c-.901-.7-1.903-1.502-2.804-2.403 2.003-2.204 3.906-4.507 5.808-7.211a79.18 79.18 0 0 0 9.114-1.402c1.903 7.611 1.302 13.22-1.402 14.722-2.304 1.302-6.209 0-10.716-3.706Zm-4.807-4.506c1.402-1.503 2.704-3.105 4.006-4.808-1.302.1-2.704.1-4.106.1-1.302 0-2.604 0-3.906-.1 1.022 1.415 2.105 2.644 3.153 3.834.288.326.573.65.853.974Zm16.023-9.414c-1.902.5-3.905.8-6.108 1.101.701-1.101 1.402-2.203 2.002-3.505.185-.338.378-.685.576-1.038.446-.8.911-1.634 1.327-2.467a62.197 62.197 0 0 1 2.203 5.909Zm-4.142-8.131.537-1.083a146.193 146.193 0 0 0-2.904-5.508 65.57 65.57 0 0 0-3.205-5.208c-2.003-.1-4.006-.2-6.209-.2-2.103 0-4.206.1-6.209.2-1.202 1.703-2.303 3.405-3.305 5.208-1.102 1.903-2.003 3.706-2.904 5.508.901 1.803 1.802 3.605 2.904 5.508a236.113 236.113 0 0 0 3.305 5.207c2.003.1 4.106.201 6.209.201 2.103 0 4.206 0 6.209-.2 1.102-1.602 2.203-3.305 3.205-5.108.883-1.525 1.638-3.05 2.367-4.525Zm7.047 7.43c-.801-2.704-1.903-5.609-3.305-8.613 1.402-2.904 2.403-5.809 3.305-8.513 7.511 2.204 12.118 5.509 12.118 8.613 0 3.005-4.607 6.31-12.118 8.513Zm-4.907-12.018a106.044 106.044 0 0 0 2.103-5.809 95.762 95.762 0 0 0-6.109-1.101 101.483 101.483 0 0 1 2.103 3.405 60.348 60.348 0 0 1 1.903 3.505Zm1.502-23.334c2.704 1.502 3.305 7.01 1.402 14.621a77.73 77.73 0 0 0-9.214-1.402c-1.802-2.604-3.705-5.007-5.708-7.11.318-.286.625-.572.926-.852.647-.602 1.263-1.173 1.878-1.652 3.405-2.704 6.409-4.206 8.713-4.206.701 0 1.402.2 2.003.6Zm-20.43 3.705c1.001.701 1.903 1.502 2.804 2.404-2.003 2.103-3.906 4.506-5.809 7.21-3.204.3-6.209.801-9.013 1.402-1.903-7.61-1.402-13.22 1.302-14.721.601-.3 1.302-.501 2.003-.501 2.303 0 5.308 1.502 8.713 4.206Zm4.907 4.507c-1.402 1.502-2.704 3.104-4.006 4.807 1.302-.1 2.604-.1 4.006-.1 1.402 0 2.704 0 4.006.1-1.022-1.415-2.105-2.644-3.153-3.834-.288-.326-.573-.65-.853-.973Zm-16.124 9.313c1.903-.4 3.906-.7 6.009-1.001-.601 1.101-1.302 2.203-2.003 3.305-.52.817-.985 1.69-1.436 2.536-.157.294-.312.585-.467.869-.801-1.903-1.502-3.906-2.103-5.709Zm-15.022 9.314c0 3.005 4.507 6.31 12.118 8.513a92.244 92.244 0 0 1 3.305-8.513 57.014 57.014 0 0 1-3.305-8.512c-7.611 2.103-12.118 5.408-12.118 8.512Z" clip-rule="evenodd"/></g><defs><clipPath id="a"><path fill="#fff" d="M0 0h256v108H0z"/></clipPath></defs></svg>
