<svg xmlns="http://www.w3.org/2000/svg" fill="none" viewBox="0 0 256 108"><g clip-path="url(#a)"><rect width="83" height="83" x="180.967" y="-.792" fill="#fff" stroke="#F0ECF3" rx="7.5" transform="rotate(24 180.967 -.792)"/><path fill="#05998B" fill-rule="evenodd" d="M229.798 67.222c-6.739 15.136-24.473 21.943-39.609 15.204-15.136-6.74-21.943-24.473-15.204-39.609 6.739-15.136 24.472-21.943 39.608-15.204 15.137 6.74 21.944 24.473 15.205 39.609Zm-41.67-13.578 24.884-18.772-8.772 15.995 12.415 5.528-24.884 18.772 8.772-15.995-12.415-5.528Z" clip-rule="evenodd"/><rect width="83" height="83" x="-.792" y="32.967" fill="#fff" stroke="#F0ECF3" rx="7.5" transform="rotate(-24 -.792 32.967)"/><path fill="#000" d="M38.826 56.996c1.617 1.072 2.985 2.047 2.986 4.098-2.18-.581-3.16-1.904-2.986-4.098Z"/><path fill="#000" fill-rule="evenodd" d="M21.012 36.976a1.895 1.895 0 0 0-1.316-.516l-1.723.767c-.772 1.506-.382 2.235 1.087 2.818 1.469.583 1.54.784.796 2.185-.079.148-.161.293-.244.437-.115.201-.23.402-.332.61a1.003 1.003 0 0 0 .254 1.384c1.072.946 1.011 1.959-.04 2.939-.347.273-.675.569-.983.884-.752.902-.55 1.752.586 2.362a7.443 7.443 0 0 0-1.657 3.528l1.517 3.407c.442.28.855.605 1.231.968l.177.202c1.018 1.162 2.025 2.31 2.971 3.568a49.547 49.547 0 0 0 11.45 11.384c3.99 2.82 8.111 5.393 12.88 6.785a34.056 34.056 0 0 0 18.487.494c2.606-.686 5.18-1.525 7.737-2.385a41.644 41.644 0 0 0 4.672-1.875 45.69 45.69 0 0 0 4.547-2.49c.46-.275.927-.538 1.395-.801 1.547-.87 3.093-1.739 4.347-3.076a4.767 4.767 0 0 1 2.778-1.47c.278-.08.531-.231.735-.438a80.559 80.559 0 0 1 2.192-1.906c.22-.184.446-.359.671-.534.262-.202.524-.405.777-.622.602-.529.423-1.119.084-1.693a1.097 1.097 0 0 0-1.52-.487l-1.7.757c-.625.23-1.261.434-1.976.663-.354.114-.727.234-1.127.366-.304 1.01-1.407 1.25-2.588 1.459a14.86 14.86 0 0 0-2.123.703l-1.608.567.37-1.55c.11-.379.19-.766.238-1.157.048-.896-.462-1.227-1.239-.881a2.95 2.95 0 0 0-1.15 1.051c-.47.802-.845 1.656-1.118 2.544a2.159 2.159 0 0 1-1.912 1.68 31.507 31.507 0 0 1-20.186-2.24 29.052 29.052 0 0 1-12.977-11.745 211.35 211.35 0 0 1-3.57-6.223c-.8-1.44-1.615-2.937-2.306-4.49-.584-1.247-.216-1.904 1.13-2.242.48-.084.962-.144 1.447-.18l.15-.017c.605-.071 1.218-.143 1.814-.27a1.376 1.376 0 0 0 1.211-1.061 3.476 3.476 0 0 0-2.9-1.146c-.951-.04-1.902.002-2.85.043-.515.022-1.03.044-1.544.053-1.07.063-2.144.053-3.213-.03-.283-.038-.583-.033-.889-.028-.762.014-1.556.028-2.2-.642-.156-.163-.604-.103-.899-.056a9.994 9.994 0 0 0-.82.182c-.243.06-.487.122-.736.167a3.874 3.874 0 0 1-2.464.064c-.596-1.548-.91-1.668-2.463-.977l-.97.432c-1.264.525-1.555.394-1.795-.94a1.895 1.895 0 0 0-.593-1.285Zm12.952 26.579a6.484 6.484 0 0 0-1.152-2.901l-.024.01a36.86 36.86 0 0 0-.094-.036c-.807-.311-1.587-.612-2.465-.085a1.769 1.769 0 0 0-.658-.783 1.248 1.248 0 0 0-.492-.134c.029-.138.05-.28.072-.42.047-.308.095-.616.211-.895.646.25 1.336.144 2.022.039.326-.05.652-.1.972-.112l.05-.402-1.877-.557c.128-.096.229-.2.301-.309l1.505-.145-.065-.34a8.569 8.569 0 0 0-1.31-.156 1.244 1.244 0 0 0-.195-.446c.268-.001.592-.02.988-.047-.988-1.256-1.046-1.33-2.413-1.37-.19-.346.152-.555 1.062-1.112l.049-.03a2.27 2.27 0 0 0 1.323-2.29c.137-.081.285-.15.433-.22.562-.264 1.116-.524 1-1.349l2.444-.567-1.193-.715 1.86-1.34c.436-.293.858-.608 1.263-.944.728-.64 1.227-.648 1.711.169.39.755.737 1.533 1.037 2.328l-1.42-.41a2.284 2.284 0 0 0 1.413 3.297l.354-1.293c.334.184.647.404.933.655.173.257.313.536.416.828.2.355.335.744.47 1.134.248.715.497 1.434 1.153 1.948.225.277.373.61.429.962.023.073.04.148.057.222.07.298.136.583.568.681a.849.849 0 0 1 .166.708c-.481.525-.307.997-.084 1.601.07.19.144.393.205.614l.451-1.745 4.974 6.074-.28 1.25c1.687.28 1.758.314 2.725 1.297l.128-.82c.84.428 1.684.896 2.462 1.327l.369.204c.48.265.947.553 1.421.845.392.24.789.485 1.201.722a6.118 6.118 0 0 1 2.358 1.536c.417.545 1.31.805 2.072 1.028l.155.045c1.647.436 3.37.513 5.049.226a3.204 3.204 0 0 1 1.913.265 4.911 4.911 0 0 0 4 .21c.042-.02.085-.047.128-.074.083-.054.164-.106.229-.086.972.322 1.924.155 2.886-.014.485-.084.973-.17 1.467-.194a2.082 2.082 0 0 1-1.69 1.115 118.852 118.852 0 0 1-4.812.459c-1.48.108-2.941.216-3.98 1.54-.664-.04-.967.44-1.217.835a4.312 4.312 0 0 1-.163.244c-.295.402-.704.258-1.062.017a1.571 1.571 0 0 0-1.486-.268c-1.538.536-1.756.382-2.08-1.455l-2.122.647 1.26-.952c-3.04-1.92-6.291-2.035-9.595-1.913.056-.157.13-.31.202-.459.145-.298.278-.572.228-.811a1.624 1.624 0 0 0-.871-.933 4.47 4.47 0 0 0-1.878-.457 4.367 4.367 0 0 1-2.671-.485c.165-.125.322-.26.47-.405.667-.78.668-1.32-.182-1.872a18.923 18.923 0 0 0-2.344-1.086l-.148.252 1.291 1.48a12.032 12.032 0 0 0-1.953-1.213c-.743-.33-.97-.09-1.173.792-.115.012-.235.009-.35.006-.214-.005-.413-.01-.54.083-.716.504-1.197.05-1.415-.44a3.202 3.202 0 0 0-2.51-1.71 2.203 2.203 0 0 1-.436-.206c.162-.077.35-.128.537-.178.46-.124.91-.245.909-.754-.002-.548-.415-.743-.82-.936-.098-.046-.194-.092-.285-.142a2.319 2.319 0 0 0-.03-.614c-.168-.094-.334-.19-.499-.286-1.235-.718-2.448-1.423-4.07-.807.24.481.531.93.868 1.342-.076.312.064.607.204.903.118.25.236.5.228.761l-.712.699 2.633 1.088c-.493 1.252-.652 1.313-1.439.445a3.467 3.467 0 0 0-1.955-1.278c-.128-.017-.334-.084-.355-.13-.073-.93-.708-1.092-1.337-1.253a4.015 4.015 0 0 1-.607-.188c-.058-1.76.247-2.036 1.393-1.55.073.542.213 1.073.416 1.581a1.164 1.164 0 0 0 1.415.608Zm1.473-.41.178.4.115-.2a7.308 7.308 0 0 1-.293-.2ZM19.79 53.95a18.528 18.528 0 0 1 1.882-1.768c1.255 1.376 2.564 1.435 3.595.241a3.801 3.801 0 0 0-.34-.24c-.258-.17-.518-.342-.524-.51-.016-.414-.238-.46-.477-.51-.199-.04-.41-.084-.527-.345 1.586-1.042 3.041-2.284 4.504-3.531 1.651-1.408 3.312-2.823 5.178-3.97.338.36.728.666 1.158.907.133.035.332-.078.576-.218.14-.08.296-.17.464-.245l-.987-1.234c.334-.175.666-.361 1-.548.729-.408 1.463-.82 2.228-1.122 1.116-.44 1.761.09 1.468 1.207a4.479 4.479 0 0 1-1.182 2.005 25.49 25.49 0 0 1-6.069 4.292 8.827 8.827 0 0 0-2.946 2.428 31.142 31.142 0 0 1-1.557 1.81c-.376.409-.788.778-1.458.528-.67-.25-1.542.63-1.77 1.457a.953.953 0 0 1-.451.573 1.699 1.699 0 0 1-1.875-.262c-.178-.16-.217-.476-.257-.804a4.205 4.205 0 0 0-.074-.463c-1.634.049-1.498 1.086-.95 3.214-1.313-.858-1.551-1.728-.609-2.892Zm14.455 18.324.163-.24 3.11 1.908a.944.944 0 0 1 .128.101c.065.057.128.112.196.127 1.352.243 2.215 1.156 3.11 2.103l.006.007c.412.393.95.625 1.52.654.553.063 1.087.24 1.57.519.438.173.865.376 1.293.58 1.135.538 2.27 1.078 3.616 1.066a2.082 2.082 0 0 1 1.951.769 3.476 3.476 0 0 1-2.745-.025c-.973-.275-1.93-.6-2.87-.973a36.627 36.627 0 0 1-4.166-2.107c-1.742-1.065-3.492-2.227-5.235-3.385l-.716-.476a35.861 35.861 0 0 1-.676-.454l-.255-.174Zm8.793-.306a5.95 5.95 0 0 1-1.767-1.231l.46-1.498 1.963-.27-.075 1.587 3.43 2.064-.101.295a9.685 9.685 0 0 0-2.107-.178c-.521.063-.865-.184-1.196-.422-.195-.141-.386-.279-.607-.347Zm-4.672-6.42a2.254 2.254 0 0 1-.094-.21l3.212 2.68a4.036 4.036 0 0 1-.852.175c-.487-.004-.971-.021-1.456-.038-.576-.02-1.152-.04-1.732-.04-.613-.005-1-.338-1.4-.683a9.12 9.12 0 0 0-.285-.24c.22-.43.55-.417.863-.404.117.004.232.009.338-.01.149-.024.303-.023.455-.022.115.001.23.002.341-.007 1.027-.076 1.162-.36.61-1.202Zm-8.613-23.651-3.045 2.465c.258-.102.521-.196.788-.291l.052-.019c-.118.485-.168.694-.793 1.1l.828-.168c.107-.867.22-.945.892-.649l1.215.557c.57-.254.498-.64.432-.998-.064-.345-.123-.663.399-.814a.554.554 0 0 0-.049-.108l-.222-.331c-.14-.208-.298-.444-.497-.744Zm27.341 38.855c-.638-.018-1.295-.036-1.96-.208l10.308-.162c-1.82.66-3.744.98-5.68.947-.817-.525-1.72-.55-2.668-.577Zm14.039-1.85c-.441.135-.882.27-1.322.409l-.038.017c1.55-.968 3.251-1.564 4.96-2.163 1.437-.504 2.88-1.009 4.24-1.738-2.351 1.792-5.093 2.632-7.84 3.474ZM27.612 65.144l.116-.2-.643-.858c.152.007.273.028.273.028a4.121 4.121 0 0 1 1.664 2.17c.074.303.392.55.713.8.168.13.337.261.473.402.395.367.696.822.88 1.329l-4.568-3.993.095-.164.997.486Zm21.768 9.398c.341.004.68.01 1.015-.009-1.372 1.327-2.896 1.56-4.158.689.958-.71 2.056-.695 3.143-.68Zm-22.325-32.96.215 1.317c-1.161.443-1.637.273-2.755-1.005a4.843 4.843 0 0 1 2.54-.313Zm58.518 26.916.152.341-4.771 1.818-.111-.249c.936-.835 2.103-1.152 3.27-1.47.492-.133.985-.267 1.46-.44ZM20.433 37.74l-1.938.974c-.125-.679-.006-1.225.611-1.49.462-.197.884-.105 1.327.515Zm50.073 36.803c.225-.286.526-.502.868-.626l.281 1.363-1.552.254c.039-.361.179-.705.403-.99Z" clip-rule="evenodd"/><path fill="#092E20" stroke="#000" d="M94 12.5h68a7.5 7.5 0 0 1 7.5 7.5v68a7.5 7.5 0 0 1-7.5 7.5H94a7.5 7.5 0 0 1-7.5-7.5V20a7.5 7.5 0 0 1 7.5-7.5Z"/><path fill="#fff" fill-rule="evenodd" d="M105.051 42h-3.791v5.843a6.072 6.072 0 0 0-1.668-.202c-4.004 0-6.592 2.396-6.592 6.45s2.396 6.167 7.077 6.167a25.274 25.274 0 0 0 4.974-.526V42Zm-5.126 8.725c.44-.01.878.059 1.294.202l.031 6.147a9.593 9.593 0 0 1-1.325.1c-1.961 0-3.033-1.07-3.033-3.164 0-2.092 1.092-3.285 3.033-3.285Z" clip-rule="evenodd"/><path fill="#fff" d="M111.137 56.8v-8.886h-3.822v7.562c0 3.337-.182 4.6-.727 5.702a5.564 5.564 0 0 1-3.033 2.558l3.558 1.688a6.145 6.145 0 0 0 3.134-2.83c.667-1.274.89-2.76.89-5.793ZM111.137 42.02h-3.822v3.933h3.822V42.02Z"/><path fill="#fff" fill-rule="evenodd" d="M118.507 47.682a11.505 11.505 0 0 0-5.055 1.152h-.02v2.952a10.109 10.109 0 0 1 4.499-1.162c.97 0 1.324.242 1.324.94v.85c-4.701.393-6.622 1.637-6.622 4.326 0 2.487 1.446 3.61 4.661 3.61a43.295 43.295 0 0 0 5.469-.425V52.14a5.874 5.874 0 0 0-.424-2.912c-.577-1.02-1.871-1.546-3.832-1.546Zm-2.416 8.866c0-1 .819-1.395 3.356-1.648v2.568c-.607.11-1.223.167-1.84.172-1.041 0-1.516-.354-1.516-1.092Z" clip-rule="evenodd"/><path fill="#fff" d="M130.74 47.641c-2.052.019-4.092.311-6.066.87v11.585h3.801v-9.098a5.807 5.807 0 0 1 1.769-.273c1.365 0 1.861.556 1.861 2.022v7.36h3.872v-7.512c0-1.92-.213-2.81-1.011-3.63a5.745 5.745 0 0 0-4.226-1.324Z"/><path fill="#fff" fill-rule="evenodd" d="M141.527 63.21a8.827 8.827 0 0 1-4.105-1.01h-.131v3.467a11.12 11.12 0 0 0 4.135.748c2.932 0 4.994-.92 6.187-2.79.819-1.234 1.102-2.78 1.102-6.066v-6.683c.363.048.349.03.34.019-.01-.013-.014-.019.519.082l1.304-2.76a24.077 24.077 0 0 0-4.994-.545c-5.601 0-8.755 2.456-8.755 6.814 0 3.508 2.133 5.722 5.5 5.722a5.25 5.25 0 0 0 2.487-.526v.07c0 2.447-1.072 3.458-3.589 3.458Zm3.114-12.455h.475v6.167a4.72 4.72 0 0 1-1.446.222c-1.688 0-2.639-1.122-2.639-3.032a2.975 2.975 0 0 1 1.396-2.811 4.124 4.124 0 0 1 2.214-.546ZM163 53.91c0-3.903-2.345-6.32-6.177-6.32-3.902 0-6.339 2.66-6.339 6.542 0 3.882 2.325 6.298 6.197 6.298S163 57.812 163 53.91Zm-3.912.1c0 2.113-.87 3.337-2.336 3.337-1.496 0-2.366-1.224-2.366-3.337 0-2.112.931-3.336 2.396-3.336 1.466 0 2.306 1.224 2.306 3.336Z" clip-rule="evenodd"/></g><defs><clipPath id="a"><path fill="#fff" d="M0 0h256v108H0z"/></clipPath></defs></svg>
