<?xml version="1.0" encoding="UTF-8"?>
<svg id="compass" xmlns="http://www.w3.org/2000/svg" width="2.4893in" height="1.6835in" viewBox="0 0 179.2278 121.215">
    <defs>
        <style>
            .cls-1,
            .cls-2 {
                stroke: #3f2b56;
                stroke-linecap: round;
                stroke-linejoin: round;
            }

            .cls-1,
            .cls-3 {
                fill: #3f2b56;
            }

            .cls-2 {
                fill: none;
            }

            .cls-4 {
                fill: #f6f6f8;
            }

            .cls-5 {
                fill: #ebb432;
            }

            .cls-6 {
                fill: #fca9cb;
            }

            .cls-7 {
                fill: #b39ed3;
            }

            .cls-8 {
                fill: #b29dd2;
            }

            .cls-9 {
                fill: #e1557a;
            }
        </style>
    </defs>
    <path class="cls-6"
        d="m15.0461,14.5489s6.7898-8.699,18.1585-11.8837c6.4659-1.8113,13.7301-3.0699,21.1255-1.1563s7.0481,6.4957,7.0481,6.4957c0,0-.4461,3.7427-3.7753,7.2473l-3.4063-1.2006s8.296-10.4365-8.3852-9.5141-22.8814,7.9364-26.6015,13.8183l-4.1638-3.8067Z" />
    <path class="cls-6"
        d="m100.2996,13.5378s10.6703,1.638,17.236,4.4014,13.5152,5.267,25.3237,15.3241c0,0,9.112,8.3563,10.7002,19.5218l-36.7936,1.8201s-36.3079-29.1735-35.8712-29.5847,3.0411-12.4045,3.0411-12.4045c0,0,10.1098.4053,16.3638.9218Z" />
    <polygon class="cls-6"
        points="0 17.6297 68.0526 4.691 179.2278 48.1041 157.041 119.5144 22.8802 111.1943 0 17.6297" />
    <path class="cls-4"
        d="m70.7302,82.6956c10.5459,4.902,20.8419,8.7929,46.8054,5.234,20.3232-2.7858,26.0601-17.132,26.0601-17.132.8572-4.9197,1.8281-9.8255-4.0242-18.9889-6.5297-10.2242-19.2509-17.687-31.7255-20.945-13.7513-3.5914-35.1907-3.6962-47.7423,5.6213-6.6949,4.9698-9.6297,10.4734-10.9157,14.402,0,0-.7805,2.604-.8033,6.0832,0,0,2.5519,16.5249,22.3456,25.7255Z" />
    <polyline class="cls-6" points="90.5115 51.3449 97.6044 35.0218 100.4216 52.7851" />
    <path class="cls-7"
        d="m89.9811,52.1936c-.924,2.6181,1.6074,4.8966,4.3892,5.4673,3.0031.616,6.0833-.231,6.4683-2.3871.1438-.8051.308-3.6962-3.9272-5.0052-2.7713-.8566-6.2236-.0774-6.9303,1.9251Z" />
    <g>
        <g>
            <path class="cls-8"
                d="m33.0071,67.9718l5.6399-24.4231s-8.2385,27.4617,27.4617,46.1856c20.0945,10.5391,53.884,10.007,69.6529.4993,16.9763-10.2357,17.6068-23.7487,18.4537-30.1705l-2.2869,37.0445s-4.3445,21.0326-43.7264,23.3888c-15.6635.9372-35.3158-1.1563-53.4886-12.218-14.9246-9.0846-24.0408-24.1345-21.7063-40.3067Z" />
            <path class="cls-8"
                d="m41.8395,23.0896s.72-3.2999,4.1399-5.4599c0,0,5.7599,5.8799,5.5799,5.8799s-2.9683,2.764-5.0083,5.0439l-4.7115-5.4639Z" />
            <path class="cls-8"
                d="m45.8114,25.3901s-16.5047,4.0595-25.3379.7225c-9.6106-3.6307-.048-12.5322,4.2203-15.507,3.7303-2.5999,9.6641-4.8631,16.536-5.5176,7.3144-.6966,11.455-.1109,12.1628.1794,1.9406.7961,2.2438,1.633,2.2438,1.633-.923-3.186-4.394-4.8077-13.4114-4.0515-7.6386.6405-18.2114,4.6772-22.6347,8.2474-6.1649,4.9759-9.4938,9.2901-7.3376,15.071,2.6402,7.0784,13.5638,5.8045,17.4897,4.7249,4.0857-1.1236,14.8417-4.4946,16.0691-5.5022Z" />
            <path class="cls-7"
                d="m48.3846,56.9701s-5.3529-14.6998,8.1528-26.3639c13.5058-11.6641,39.2276-12.1323,56.651-6.6034,23.4459,7.44,30.6825,21.1371,32.5618,28.0333,2.5837,9.4808-2.1546,18.7615-2.1546,18.7615,0,0-.9203-21.1792-23.0022-32.1362-15.9081-7.8935-29.1077-8.1935-42.3781-6.3363-11.2701,1.5772-21.6206,7.1187-29.8307,24.6451Z" />
            <polygon class="cls-5" points="70.7302 34.6368 71.4232 49.9243 91.0591 41.4131 70.7302 34.6368" />
            <polygon class="cls-5" points="103.5337 73.9857 123.0927 64.8222 126.1728 81.532 103.5337 73.9857" />
            <polygon class="cls-9"
                points="110.5736 47.4305 115.6675 51.6271 122.2923 51.3367 127.8726 48.6263 127.8726 44.6403 123.0098 41.0529 117.0308 40.5746 111.5302 43.2054 110.5736 47.4305" />
            <polygon class="cls-9"
                points="60.7491 71.9043 61.9449 66.4834 68.163 63.8526 74.3811 64.9687 78.5265 68.7155 77.251 73.7378 71.8301 76.528 65.7714 75.8105 60.7491 71.9043" />
        </g>
        <g>
            <path class="cls-2"
                d="m45.8114,25.3901s-18.6633,9.1153-28.6011,5.361c-9.9378-3.7543-5.18-16.4148,5.4705-23.5714C31.6998,1.1192,46.7453-.61,53.1496,1.1567s8.2286,4.4186,8.2286,6.8479-3.1038,7.3208-7.9623,11.5167" />
            <path class="cls-2"
                d="m18.6475,21.3534c.3325,2.1637,2.7332,3.9395,9.8256,3.6558,11.042-.4417,15.9005-2.6501,15.9005-2.6501,0,0,1.7611-.9371,2.6501,1.1042" />
            <path class="cls-2"
                d="m53.2227,16.0793c1.5491-2.3899,3.9784-6.8318,2.4137-9.1789-2.2084-3.3126-10.9038-2.8709-19.0335-.8834s-14.2764,6.6895-17.0398,11.6496" />
            <path class="cls-2" d="m40.8527,22.1622s1.1722-6.4796,8.9665-7.6134l4.8941,6.7663" />
            <line class="cls-2" x1="45.0718" y1="27.3741" x2="46.551" y2="28.5535" />
            <path class="cls-2"
                d="m116.1153,17.423c15.4686,5.4628,29.0548,15.2433,34.3137,25.7612,8.7014,17.4028.693,34.7286-6.8533,41.0429-7.2245,6.045-23.1594,17.7226-60.7559,10.7035-35.8837-6.6993-44.2001-32.8806-44.9701-40.0419-.7946-7.3898,1.6171-21.946,15.0927-32.4185,9.6919-7.532,26.0272-11.8586,47.3572-8.9324,3.434.4711,6.88,1.1957,10.2744,2.1384,0,0,1.876.488,3.1002.8824s2.4411.8644,2.4411.8644Z" />
            <path class="cls-2"
                d="m47.244,45.8023c1.5401-9.3174,12.4746-25.6422,42.891-25.3342s47.5113,15.9398,51.9005,23.1011,9.1634,20.56-3.4652,34.1126c-12.6286,13.5526-41.582,12.0896-49.6674,11.0115-4.7045-.6273-21.869-4.7742-32.6496-16.6328-7.4104-8.1514-9.8911-20.9239-9.0094-26.2582Z" />
            <path class="cls-2"
                d="m89.9811,52.1936c-.924,2.6181,1.6074,4.8966,4.3892,5.4673,3.0031.616,6.0833-.231,6.4683-2.3871.1438-.8051.308-3.6962-3.9272-5.0052-2.7713-.8566-6.2236-.0774-6.9303,1.9251Z" />
            <polyline class="cls-2" points="90.5115 51.3449 97.6044 35.0218 100.4216 52.7851" />
            <polygon class="cls-2" points="103.5337 73.9857 123.0927 64.8222 126.1728 81.532 103.5337 73.9857" />
            <polygon class="cls-2" points="71.4232 49.9243 91.0591 41.4131 70.7302 34.6368 71.4232 49.9243" />
            <path class="cls-2"
                d="m49.1879,50.8868c1.286-3.9286,4.2209-9.4322,10.9157-14.402,12.5516-9.3174,33.991-9.2127,47.7423-5.6213,12.4746,3.258,25.1958,10.7208,31.7255,20.945,5.8523,9.1634,4.8814,14.0693,4.0242,18.9889" />
            <line class="cls-2" x1="154.2154" y1="60.0631" x2="153.5595" y2="73.6344" />
            <line class="cls-2" x1="153.0278" y1="84.6337" x2="153.1947" y2="81.181" />
            <path class="cls-2"
                d="m39.8989,40.2416l-6.8918,27.7302s-4.6604,21.8899,18.6417,38.2721c23.3022,16.3821,52.3612,15.7865,67.9294,12.8515,17.2295-3.2482,32.1994-12.1454,33.0467-26.1267l.2074-4.2913" />
            <path class="cls-2"
                d="m36.1904,55.1634s-.7824,16.0565,13.0576,28.4844c13.8401,12.4278,31.7476,17.7307,51.1736,18.5005,24.9469.9886,49.6673-9.58,53.1379-28.5139" />
            <line class="cls-2" x1="56.1419" y1="58.9898" x2="62.2637" y2="58.5115" />
            <line class="cls-2" x1="58.5967" y1="43.3648" x2="63.4595" y2="45.3578" />
            <line class="cls-2" x1="92.3976" y1="32.2838" x2="92.7165" y2="35.7118" />
            <line class="cls-2" x1="110.0953" y1="35.5523" x2="107.7834" y2="38.6614" />
            <line class="cls-2" x1="128.9887" y1="55.0835" x2="134.9676" y2="54.1269" />
            <line class="cls-2" x1="130.7425" y1="64.4904" x2="136.9606" y2="66.4037" />
            <line class="cls-2" x1="105.3121" y1="79.637" x2="107.5442" y2="83.3041" />
            <line class="cls-2" x1="81.9544" y1="80.1951" x2="84.346" y2="76.2888" />
            <polygon class="cls-2"
                points="74.3811 64.9687 78.5265 68.7155 77.251 73.7378 71.8301 76.528 65.7714 75.8105 60.7491 71.9043 61.9449 66.4834 68.163 63.8526 74.3811 64.9687" />
            <polygon class="cls-2"
                points="110.5736 47.4305 115.6675 51.6271 122.2923 51.3367 127.8726 48.6263 127.8726 44.6403 123.0098 41.0529 117.0308 40.5746 111.5302 43.2054 110.5736 47.4305" />
            <polygon class="cls-3"
                points="64.5756 71.1868 65.9308 72.3826 70.0762 69.8316 69.1993 69.1141 64.5756 71.1868" />
            <ellipse class="cls-3" cx="72.4829" cy="68.1973" rx="1.4198" ry="1.0193" />
            <ellipse class="cls-3" cx="116.1142" cy="47.0794" rx="1.4214" ry="1.0247" />
            <polygon class="cls-3"
                points="118.5199 45.3475 122.9042 43.142 124.5666 44.3229 119.6083 46.141 118.5199 45.3475" />
            <polygon class="cls-3"
                points="76.6313 41.0062 73.0993 38.277 74.7048 37.5813 77.6481 40.6852 76.6313 41.0062" />
            <ellipse class="cls-3" cx="79.1197" cy="42.6117" rx="1.3646" ry=".9633" />
            <polygon class="cls-3"
                points="118.0514 73.757 121.4228 77.5566 123.1353 76.5933 118.8541 73.2219 118.0514 73.757" />
            <ellipse class="cls-3" cx="116.2319" cy="71.4024" rx="1.4449" ry="1.0168" />
            <path class="cls-1"
                d="m94.3703,57.6609c-1.6339-.3352-3.1753-1.262-3.987-2.4982l-.0009.0007,1.9858,23.3655,7.7374-21.9054h0c-1.1635,1.1335-3.4705,1.502-5.7353,1.0374Z" />
        </g>
    </g>
</svg>
