<svg xmlns="http://www.w3.org/2000/svg" fill="none" viewBox="0 0 256 108"><g clip-path="url(#a)"><rect width="83" height="83" x="180.967" y="-.792" fill="#fff" stroke="#F0ECF3" rx="7.5" transform="rotate(24 180.967 -.792)"/><path fill="#F37B21" d="m200.613 38.398 1.078 43.925 12.511 5.57 4.891-10.985-4.833-2.152-1.086-44.242-15.451-6.879-5.007 11.247 7.897 3.516Zm-19.45 34.785 13.489-11.839-.403-16.402-25.663 22.642 12.577 5.6Z"/><rect width="83" height="83" x="-.792" y="32.968" fill="#512BD4" stroke="#371D90" rx="7.5" transform="rotate(-24 -.792 32.968)"/><path fill="#fff" d="M33.183 75.693a2.118 2.118 0 0 1-1.634.079 2.013 2.013 0 0 1-1.193-2.68 2.117 2.117 0 0 1 1.143-1.18 2.118 2.118 0 0 1 1.652-.064 1.99 1.99 0 0 1 1.193 2.68 2.117 2.117 0 0 1-1.161 1.165Zm21.731-10.046-3.56 1.585L35.413 56.62a7.18 7.18 0 0 1-1.107-.898l-.087.039c.51.87.959 1.773 1.343 2.705l5.87 13.183-3.153 1.404-8.953-20.109 3.791-1.688 15.527 10.379c.654.427 1.06.687 1.296.906l.049-.021c-.51-.85-.958-1.735-1.342-2.648l-5.77-12.961 3.134-1.395 8.904 20.13Zm15.321-6.821-11.007 4.9-8.953-20.109 10.572-4.706 1.262 2.834-7.322 3.26 2.536 5.697 6.771-3.015 1.253 2.815-6.77 3.014 2.648 5.949 7.738-3.445 1.272 2.806Zm7.959-24.243-5.639 2.51 7.691 17.275-3.26 1.452-7.69-17.275-5.62 2.502-1.262-2.834 14.509-6.46 1.271 2.83Z"/><path fill="#512BD4" stroke="#371D90" d="M94 12.5h68a7.5 7.5 0 0 1 7.5 7.5v68a7.5 7.5 0 0 1-7.5 7.5H94a7.5 7.5 0 0 1-7.5-7.5V20a7.5 7.5 0 0 1 7.5-7.5Z"/><path fill="#fff" d="M100.159 65.35a2.117 2.117 0 0 1-1.525-.592 2.013 2.013 0 0 1 0-2.933 2.119 2.119 0 0 1 1.525-.614 2.12 2.12 0 0 1 1.535.614 1.982 1.982 0 0 1 .645 1.466 1.99 1.99 0 0 1-.645 1.467 2.117 2.117 0 0 1-1.535.593Zm23.939-.338h-3.896l-10.249-16.178a7.197 7.197 0 0 1-.646-1.27h-.095c.112 1.001.154 2.01.127 3.017v14.43h-3.452V43h4.151l9.963 15.797c.423.656.688 1.059.815 1.355h.053c-.12-.983-.17-1.974-.148-2.964V43h3.43l-.053 22.012Zm16.771 0H128.82V43h11.573v3.102h-8.015v6.236h7.411v3.081h-7.411v6.512h8.47l.021 3.08ZM158 46.102h-6.173v18.91h-3.568v-18.91h-6.151V43h15.881l.011 3.102Z"/></g><defs><clipPath id="a"><path fill="#fff" d="M0 0h256v108H0z"/></clipPath></defs></svg>
