<?xml version="1.0" encoding="UTF-8"?>
<svg id="preview" xmlns="http://www.w3.org/2000/svg" width="2.424in" height="1.92in" viewBox="0 0 174.5274 138.2412">
  <defs>
    <style>
      .cls-1 {
        stroke: #3f2b56;
      }

      .cls-1, .cls-2 {
        fill: none;
        stroke-linecap: round;
        stroke-linejoin: round;
      }

      .cls-2 {
        stroke: #f58452;
      }

      .cls-3 {
        fill: #f7b2b2;
      }

      .cls-4 {
        fill: #f6f6f8;
      }

      .cls-5 {
        fill: #f58452;
      }

      .cls-6 {
        fill: #ebb432;
      }

      .cls-7 {
        fill: #b29dd2;
      }

      .cls-8 {
        fill: #e1557a;
      }

      .cls-9 {
        fill: #3f2b56;
      }
    </style>
  </defs>
  <polygon class="cls-3" points="5.581 35.9459 172.2445 84.2089 165.7561 130.0465 12.272 135.3203 5.581 35.9459"/>
  <g>
    <path class="cls-6" d="m98.3514,16.6314l-3.72,1.01-1.8639,9.0338s4.1116-2.3602,9.5139-4.0038l-3.93-6.04Z"/>
    <path class="cls-6" d="m107.256,21.4962s5.6904-1.9521,8.8645.1752-4.2158,8.7245-4.2158,8.7245l-2.9878,1.6788-10.1615-.9198,8.5006-9.6587Z"/>
    <path class="cls-6" d="m107.2561,21.4962c-2.2881.5005-3.0216.519-4.9747,1.1752-5.4022,1.6436-9.5139,4.0038-9.5139,4.0038-4.2284,2.1681-6.5572,4.037-6.5572,4.037l23.6592,1.238s10.5917-13.3427-2.6135-10.454Z"/>
    <path class="cls-3" d="m112.2079,73.2163l1.9807.3353s4.6057,2.4495,3.7006,7.3997-3.4856,5.9675-3.4856,5.9675h-2.5254l.3297-13.7025Z"/>
    <polygon class="cls-3" points="92.329 102.0308 97.4183 102.0308 96.6399 111.1316 100.7712 113.1074 100.7712 116.1364 90.2334 116.1364 92.329 102.0308"/>
    <polygon class="cls-3" points="104.663 102.6894 109.5726 102.6894 109.5726 110.473 114.3625 113.4309 114.3625 116.1364 103.6214 116.1364 104.663 102.6894"/>
    <g>
      <path class="cls-7" d="m86.0066,70.0543l-14.1327.8157-4.613-25.6452s-1.0507-.1543-1.3292-1.4141c0,0-.0282-9.4786.0733-10.4652.2273-2.2106,4.1051-10.2463,5.2434-11.958,0,0,8.7342-8.4425,13.7441-9.5274,3.3984-.7359,15.4108-1.1106,19.0338.8317,5.436,2.9142,6.9211,8.0471,6.9211,8.0471,0,0-4.8086.5226-8.6661,1.9326l-3.93-6.04-3.72,1.01-1.8,9.06-2.85,2.74-2.7696,2.0748-5.8518,1.0098,4.6466,37.5282Z"/>
      <path class="cls-4" d="m84.6931,59.4128l.1482,1.1987.43,3.45.52,4.25.47,3.8c.04.32.31.56.63.57l36.18.87c.41.01.72-.35.65-.76l-.94-5.37-.52-2.96-1.91-10.92-.8172-4.6884h0l-.179-1.0267-.1838-1.0549-.4131-2.3649-4.4152-.4035v-1.4319h0l-3.6721-.918,1.2337-1.6928-29.8599-1.9059.0665.537,1.4998,12.0692,1.082,8.7521Z"/>
      <polygon class="cls-3" points="93.3791 31.1549 96.1614 31.233 87.6521 53.2965 86.4006 52.9373 93.3791 31.1549"/>
      <path class="cls-5" d="m152.0457,97.724s-4.1552.554-4.64-3.1164,5.055-4.7266,6.9946-2.4283.6233,5.1292-2.3546,5.5447Z"/>
      <polygon class="cls-7" points="122.7814 67.4215 109.0514 67.7514 103.6214 67.8814 85.7914 68.3115 85.2713 64.0615 103.2214 64.2514 108.9814 64.3214 122.2613 64.4614 122.7814 67.4215"/>
      <polygon class="cls-7" points="116.338 47.0884 120.3514 53.5415 119.4613 48.435 116.784 44.2262 114.3431 44.0031 116.338 47.0884"/>
      <polygon class="cls-7" points="106.9114 32.2645 111.7374 40.0749 112.821 38.7031 113.8886 38.7031 109.8695 31.9503 106.9114 32.2645"/>
      <polygon class="cls-7" points="94.6694 31.1549 86.4006 52.9373 83.8014 52.1914 91.2914 30.8014 94.6694 31.1549"/>
      <path class="cls-3" d="m119.2981,47.4983l12.7729,5.3547-6.75-8.2031h-3.9l-7.0779-.6469v-1.432h0s-3.6721-.918-3.6721-.918l2.15-2.95,13.1999.7,11.0836,15.7991c.6986.9958-.3963,2.2646-1.4837,1.7193l-15.9537-7.3051-.3692-2.1181Z"/>
      <path class="cls-3" d="m83.6112,50.6607l.8755-.4262-.6853,1.957,3.8508,1.105.7387-1.9225,1.5905,1.9225-2.1155,6.1487-5.931-.0605-13.737,10.0744c-1.0385.7616-2.3025-.5995-1.4662-1.5789l16.6029-19.4452.2766,2.2256Z"/>
      <path class="cls-7" d="m104.5851,103.6948l3.7731.0563-.1419,7.6632s2.9092,1.4191,4.3283,2.1996l.071,2.4835-8.9942.0389.9637-12.4416Z"/>
      <polygon class="cls-7" points="92.149 103.2424 95.7281 103.1835 94.9476 112.053 99.063 113.685 99.2049 116.3103 90.2334 116.1364 92.149 103.2424"/>
      <polygon class="cls-6" points="95.1753 89.9072 97.1607 89.9072 96.1043 102.2286 93.6105 102.2766 95.1753 89.9072"/>
      <polygon class="cls-6" points="106.6654 89.9072 108.4154 90.1058 108.2197 102.2948 105.6622 102.6894 106.6654 89.9072"/>
      <path class="cls-8" d="m78.806,71.9176l33.4019,1.2988s4.1266,2.3384,3.7139,7.8406-4.0437,5.862-4.0437,5.862h-33.6577s-6.8496-.0557-7.2622-6.7958c-.1759-2.8736.5481-5.4744,2.4793-6.7958,2.6135-1.7882,5.3684-1.4097,5.3684-1.4097Z"/>
      <polygon class="cls-3" points="106.6654 89.9072 108.5634 89.9072 109.0514 73.2143 107.5394 73.178 106.6654 89.9072"/>
      <polygon class="cls-3" points="95.1753 89.9072 97.1607 89.9072 98.6763 72.9649 97.2373 72.9303 95.1753 89.9072"/>
      <path class="cls-8" d="m86.3671,36.0251c-.7783.3464-1.7465-.1309-2.1627-1.0659-.4162-.9351-.1227-1.9739.6555-2.3203s1.7465.1309,2.1627,1.0659c.4162.9351.1227,1.9739-.6555,2.3203Z"/>
      <path class="cls-5" d="m98.7935,36.8445c-.7783.3464-1.7465-.1309-2.1627-1.0659-.4162-.9351-.1227-1.9739.6555-2.3203s1.7465.1309,2.1627,1.0659c.4161.9351.1227,1.9739-.6555,2.3203Z"/>
      <polygon class="cls-3" points="109.8695 31.9503 119.6672 49.6165 118.9713 45.6237 111.5314 32.2614 109.8695 31.9503"/>
    </g>
    <g>
      <polyline class="cls-2" points="21.7561 88.3472 33.1346 76.838 29.5629 101.5296 55.6521 82.7391 49.4404 102.1507 58.1368 97.8025 50.9933 116.1364"/>
      <polyline class="cls-2" points="1.7654 76.9933 18.6923 54.7864 19.5241 86.6722"/>
      <polyline class="cls-2" points="62.485 116.1364 68.852 106.1884 60.6215 107.4307 70.6285 90.3485 55.7968 95.4124"/>
      <polyline class="cls-2" points="22.0491 66.0706 27.8546 59.4451 28.3754 68.1937 34.4675 63.6247 33.5537 71.057 48.1745 62.5281 40.5595 83.6675 49.0274 80.1341 46.2942 85.8948"/>
      <line class="cls-2" x1="21.8682" y1=".5" x2="22.5258" y2="62.0369"/>
      <line class="cls-2" x1="27.9749" y1="3.0366" x2="31.451" y2="62.8824"/>
      <path class="cls-2" d="m55.596,3.2245s-4.6975,38.989-5.4491,43.0288-4.0398,15.0319-4.0398,15.0319"/>
      <path class="cls-2" d="m58.4022,31.1532c-.6235,7.4054-1.1867,13.8051-1.3969,15.382-.5637,4.2277-6.7644,37.6737-6.7644,37.6737"/>
      <path class="cls-2" d="m60.6693,3.4124s-.9939,12.4693-1.9586,24.055"/>
      <polyline class="cls-2" points="111.0648 90.216 114.1254 89.1818 125.602 103.0376 131.4802 98.9788 145.0561 117.1734 148.975 117.1734 152.054 111.2951 160.5915 111.2951 174.0274 95.06"/>
      <line class="cls-2" x1="99.6165" y1="94.0843" x2="103.7687" y2="92.6813"/>
      <polyline class="cls-2" points="58.4222 90.1615 67.0996 84.0033 83.4747 99.5387 91.7349 96.7475"/>
      <polyline class="cls-2" points="139.3179 102.8976 144.4963 98.9788 150.2346 104.2972 161.4312 94.3602 166.0498 99.6786"/>
      <line class="cls-2" x1="141.2641" y1="93.2477" x2="144.8795" y2="93.6794"/>
      <line class="cls-2" x1="145.1553" y1="84.5013" x2="148.1232" y2="88.3865"/>
      <line class="cls-2" x1="154.7949" y1="82.1196" x2="153.1221" y2="88.433"/>
      <line class="cls-2" x1="157.7016" y1="91.1311" x2="161.4788" y2="88.433"/>
      <path class="cls-2" d="m29.4558,28.5318s5.3867-5.1392,9.3407-9.884"/>
      <line class="cls-2" x1="32.9823" y1="25.0222" x2="32.9823" y2="22.6018"/>
      <line class="cls-2" x1="32.4256" y1="25.5906" x2="35.2378" y2="25.9627"/>
      <line class="cls-2" x1="34.6611" y1="23.2726" x2="34.6611" y2="19.2409"/>
      <line class="cls-2" x1="35.2378" y1="23.2726" x2="38.7964" y2="23.5898"/>
      <polyline class="cls-2" points="36.8395 18.3842 36.8395 20.9063 40.0485 20.9063"/>
      <path class="cls-2" d="m50.7698,41.9737c-2.5905-2.507-6.3719-7.6417-6.3719-7.6417v-2.0772"/>
      <line class="cls-2" x1="44.398" y1="34.332" x2="42.8164" y2="34.332"/>
      <line class="cls-2" x1="45.4053" y1="35.6662" x2="43.6072" y2="36.2432"/>
      <polyline class="cls-2" points="46.8376 33.9366 46.8376 37.4942 44.398 38.2861"/>
      <polyline class="cls-2" points="48.6563 36.2432 48.6563 39.6916 45.4053 40.3949"/>
      <line class="cls-2" x1="59.6216" y1="16.3965" x2="65.5519" y2="11.8601"/>
      <line class="cls-2" x1="62.233" y1="14.3989" x2="64.2339" y2="15.3528"/>
      <line class="cls-2" x1="64.2339" y1="12.8683" x2="65.5519" y2="13.6394"/>
      <line class="cls-2" x1="63.2334" y1="13.6394" x2="63.509" y2="10.7398"/>
      <line class="cls-1" x1="100.2217" y1="44.6499" x2="100.3501" y2="49.5269"/>
      <polyline class="cls-1" points="98.0399 57.8692 100.7351 53.7622 103.687 57.9975"/>
      <line class="cls-1" x1="107.0238" y1="49.5269" x2="109.4623" y2="55.3023"/>
      <polyline class="cls-1" points="92.4083 40.9188 96.1614 31.1514 91.2914 30.8014 83.8014 52.1914 83.8014 52.2014"/>
      <line class="cls-1" x1="88.3909" y1="51.3739" x2="91.5298" y2="43.205"/>
      <polyline class="cls-1" points="122.2613 64.4614 122.7814 67.4215 109.0514 67.7514 103.6214 67.8814 85.7914 68.3115 85.2713 64.0615 103.2214 64.2514 108.9814 64.3214 119.7998 64.4355"/>
      <polygon class="cls-9" points="103.6214 67.8814 103.2214 64.2514 108.9814 64.3214 109.0514 67.7514 103.6214 67.8814"/>
      <polyline class="cls-1" points="108.2431 100.8637 109.0514 73.2143 107.5394 73.178 105.6622 102.6894"/>
      <path class="cls-1" d="m109.5726,110.473v-7.7836h-4.9096l-1.0416,13.447h10.7412v-2.9093s-2.5147-1.7962-4.7899-2.7542Z"/>
      <line class="cls-1" x1="103.7687" y1="114.4845" x2="114.3625" y2="114.4845"/>
      <polyline class="cls-1" points="96.2208 100.4142 98.6763 72.9649 97.2373 72.9303 94.0055 99.5387"/>
      <path class="cls-1" d="m92.329,102.0308h5.0893l-.7784,9.1008s2.1555.8382,4.1313,1.9758v3.029h-10.5378l2.0956-14.1056Z"/>
      <line class="cls-1" x1="90.4789" y1="114.4845" x2="100.7712" y2="114.4845"/>
      <line class="cls-1" x1="92.329" y1="102.0308" x2="90.4789" y2="99.5387"/>
      <line class="cls-1" x1="104.663" y1="102.6894" x2="102.8668" y2="100.1747"/>
      <path class="cls-9" d="m81.8413,30.1215c-.41-.03-.74.3199-.69.72l.96,7.75,6.3326.3416,2.8466-8.1295-9.4493-.682Zm4.5258,5.9036c-.7783.3464-1.7465-.1309-2.1627-1.0659-.4162-.9351-.1227-1.9739.6555-2.3203s1.7465.1309,2.1627,1.0659c.4162.9351.1227,1.9739-.6555,2.3203Z"/>
      <polyline class="cls-1" points="121.421 44.6499 119.471 41.8031 117.071 41.4531 115.871 42.9531 114.3432 42.5711"/>
      <line class="cls-1" x1="113.1652" y1="42.2766" x2="115.521" y2="38.933"/>
      <path class="cls-1" d="m121.719,50.4895l13.9019,6.432c1.0874.5454,2.1823-.7234,1.4837-1.7193l-11.0836-15.7991-13.1999-.7-2.15,2.95,3.6721.918h0s0,1.432,0,1.432l7.0779.6469h3.9l6.75,8.2031-12.7729-5.3547"/>
      <path class="cls-9" d="m117.8083,38.9675l-1.017-5.8261c-.05-.3-.29-.52-.59-.54l-4.6683-.337,3.4505,6.5533,2.8248.1498Z"/>
      <path class="cls-9" d="m111.9048,39.9603l-4.9934-8.0289.7184.0513-11.4697-.8279-3.0847,8.0278,18.6626,1.0065.1669-.2289Zm-13.1113-3.1158c-.7783.3464-1.7465-.1309-2.1627-1.0659-.4162-.9351-.1227-1.9739.6555-2.3203s1.7465.1309,2.1627,1.0659c.4161.9351.1227,1.9739-.6555,2.3203Z"/>
      <g>
        <polygon class="cls-1" points="112.821 38.7031 114.9835 38.8178 111.5314 32.2614 106.9114 31.9315 111.9048 39.9603 112.821 38.7031"/>
        <polyline class="cls-1" points="115.427 45.6237 120.3514 53.5415 119.5342 48.853 119.5342 48.853 119.3552 47.8263 119.1714 46.7714"/>
      </g>
      <path class="cls-1" d="m84.6931,59.4128l.1482,1.1987.43,3.45.52,4.25.47,3.8c.04.32.31.56.63.57l36.18.87c.41.01.72-.35.65-.76l-.94-5.37-.52-2.96-1.91-10.92-.8172-4.6884h0l-.179-1.0267-.1838-1.0549-.4131-2.3649-4.4152-.4035v-1.4319h0l-3.6721-.918,2.15-2.95,4.9873.2645-1.017-5.8261c-.05-.3-.29-.52-.59-.54l-4.67-.34-4.62-.33-10.75-.78-4.87-.35-9.45-.68c-.41-.03-.74.3199-.69.72l.96,7.75,1.4998,12.0692"/>
      <path class="cls-1" d="m83.6112,50.6607l.8755-.4262-.6853,1.957,3.8508,1.105.7387-1.9225,1.5905,1.9225-2.1155,6.1487-5.931-.0605-13.737,10.0744c-1.0385.7616-2.3025-.5995-1.4662-1.5789l16.6029-19.4452.2766,2.2256Z"/>
      <polyline class="cls-1" points="73.3179 62.6183 82.1195 54.7864 81.8749 51.5059 83.6112 50.6607"/>
      <path class="cls-1" d="m88.7672,28.9601s10.8528-6.706,20.1497-7.857c4.2482-.5259,8.196-.6136,7.8454,2.4983-.2293,2.0353-3.0495,4.9756-4.6763,6.5187,0,0-1.3425,1.0997-2.6347,1.9928"/>
      <path class="cls-1" d="m102.2814,22.6715c-3.58,1.18-6.96,2.76-9.45,4.03l.24-1.22.01-.01,1.55-7.83,3.72-1.01s2.2,3.05,3.38,5.04h.01c.22.38.41.73.54,1Z"/>
      <path class="cls-9" d="m102.2814,22.6715c-3.58,1.18-6.96,2.76-9.45,4.03l.24-1.22.01-.01s2.62-3.41,8.65-3.8h.01c.22.38.41.73.54,1Z"/>
      <polyline class="cls-1" points="71.5804 69.2386 71.8739 70.87 83.8014 70.0099"/>
      <polyline class="cls-1" points="79.6144 33.9366 67.2609 45.2247 70.1498 61.2853"/>
      <path class="cls-1" d="m65.9317,43.8107s-.3127-5.9157,0-9.874,4.8862-12.0944,5.6487-13.0303,9.1285-7.5844,11.8651-8.7167,13.1836-1.6288,18.8359,0c5.8959,1.6989,8.6661,8.5493,8.6661,8.5493"/>
      <path class="cls-1" d="m83.0546,14.8759s3.787.5024,5.1773,8.9361"/>
      <path class="cls-1" d="m80.0053,49.0559l-1.0946-7.6028s-3.9093-.685-7.6623,5.0226c0,0,.1564,5.1603.9382,9.3042l2.2734.1109"/>
      <line class="cls-1" x1="71.5804" y1="49.5269" x2="79.3709" y2="44.6499"/>
      <path class="cls-1" d="m77.8533,79.0322s-1.2723-.2313-1.4651,1.0024.8097,2.082,2.3904,1.8506,2.9687-3.2386.694-4.8965c-2.4739-1.803-5.5519.2313-5.4748,2.7374s1.5808,4.6652,5.1664,4.2796c3.6707-.3947,5.0507-4.3182,4.7423-6.9399-.1849-1.5718-1.4651-4.9351-6.5929-4.7423-5.6648.213-6.3156,5.2055-6.4001,6.3616-.1157,1.5808.3341,5.0579,3.3157,7.0941,3.1615,2.1591,9.8701,1.5808,11.0653-4.6266"/>
      <path class="cls-1" d="m108.6507,86.9189h5.7528s3.5644-1.795,3.5471-7.0385c-.0158-4.7884-4.2016-6.5531-4.2016-6.5531"/>
      <line class="cls-1" x1="99.1619" y1="86.9189" x2="106.6654" y2="86.9189"/>
      <line class="cls-1" x1="78.2205" y1="86.9189" x2="93.6105" y2="86.9189"/>
      <path class="cls-1" d="m89.7036,75.4592c.4494.8704,1.1031,2.5558.9886,4.8453-.2313,4.6266-3.1615,6.6144-3.1615,6.6144"/>
      <path class="cls-1" d="m91.742,74.4742c.4364.8759,1.4177,3.1966,1.2635,6.1002-.2313,4.3567-2.5446,6.3445-2.5446,6.3445"/>
      <path class="cls-1" d="m111.6276,74.9839s1.6193,1.735,1.6193,5.1392c0,4.6152-2.7374,6.7958-2.7374,6.7958"/>
      <polyline class="cls-1" points="71.2484 35.616 74.398 38.7031 74.6931 33.3455"/>
      <line class="cls-1" x1="95.1753" y1="89.9072" x2="97.1607" y2="89.9072"/>
      <line class="cls-1" x1="106.6654" y1="89.9072" x2="108.5634" y2="89.9072"/>
      <path class="cls-1" d="m67.1972,120.9898s-1.8992,5.2906-1.0853,5.6976,4.748-3.7984,4.748-3.7984c0,0-.6783,2.9844-.407,3.5271s4.2053-4.2053,4.2053-4.2053c0,0-.2713,3.2558.2713,3.6627s2.8488-3.934,3.1201-5.0193"/>
      <path class="cls-1" d="m116.0442,122.5327s-1.1491,4.5964-1.2167,5.4075,5.0019-5.5427,5.0019-5.5427c0,0-.8111,4.5964-.4056,4.7991s4.9343-5.9482,4.9343-5.9482c0,0,.1352,5.6103.6083,5.7454s3.0417-5.7454,3.0417-5.7454c0,0,1.3519,5.7454,1.9602,5.813s1.1491-5.2723,1.1491-5.2723c0,0,2.8389,5.2047,3.2445,5.2047s0-5.2723,0-5.2723c0,0,3.988,4.2584,4.2584,3.9204s-1.2843-5.2723-1.2843-5.2723c0,0,2.9741,2.9741,3.3797,2.6361s-2.2825-5.1545-4.1492-6.8694H.5"/>
      <line class="cls-1" x1="129.5014" y1="126.3549" x2="123.2767" y2="137.7412"/>
    </g>
  </g>
</svg>