<svg xmlns="http://www.w3.org/2000/svg" width="180.5" height="155.5" viewBox="0 0 135.5 116.4">
  <path fill="#ebb432" d="M96 104h6l-2 11-7 1 3-12z"/>
  <path fill="#fff" d="m4 32 76 5 18 48H23l-1-1L4 32z"/>
  <path d="M91 53a4 4 0 0 0 2 5l15-10-3-5Z" fill="#ebb432"/>
  <path d="m70 85 29 10-2 9h6l2-10a1 1 0 0 0-1-2l-30-7Zm24-26 18 16a1 1 0 0 0 2-1l1-29-5 4-1 1 1 17-14-10-1-1-2 2Zm-5-8 2 2-2 2-1-1 1-3z" fill="#ede9f1"/>
  <path d="m115 17 5-5 1 13 9 12-8 4-12 9s-5-2-5-6l3-4-2-1 1-2 10-5a148 148 0 0 1-2-15Z" fill="#b29dd2"/>
  <path d="M104 34a8 8 0 0 1 1-6l9 4-7 3ZM51 64l-3-1 17-30h2L51 64zM21 82l1 2v1h1l-3 9 11 1 15-29 4 1-13 26-2 22H6a16 16 0 0 1 1-5l14-28" fill="#b29dd2"/>
  <path d="m51 41 4-1-4 4Z" fill="#e1557a"/>
  <path d="m27 13 6-11h15l2 14h2v-4l12 4c3 2 7 12 7 13s0 4-2 4l-19-4-9-6-13-10ZM7 20l35 5-4-3-11-8-16 2-4 4ZM2 31l3 7s-4 1-5-1 2-6 2-6Z" fill="#ebb432"/>
  <path d="M13 29c-1 1-3 0-4-1v-4c1-1 2 0 3 1l1 4Z" fill="#e1557a"/>
  <path d="m23 30-4-1v-4l3 1 1 4Z" fill="#ebb432"/>
  <path d="m32 31-3-1-1-4 4 1v4Z" fill="#f58452"/>
  <path d="M93 58a4 4 0 0 1-2-5L51 85h2Z" fill="#ede9f1"/>
  <path d="M100 34 59 66 12 55l1 1 47 14 33-24 2 2a13 13 0 0 0 3-3l2 4 4-2a1 1 0 0 0 0-1l-1-1 5-5a1 1 0 0 0 0-1h-2l1-3a1 1 0 0 0 0-1c-2 0-6-2-7-1Z" fill="#ede9f1"/>
  <path d="M70 34c-3 0-20-3-23-5L28 14a4 4 0 0 0-2 0l-10 1a4 4 0 0 0-3 1l-3 3a1 1 0 1 1 0-1l2-3a5 5 0 0 1 4-1l9-2a5 5 0 0 1 4 1c4 4 16 14 19 15 3 2 19 5 22 5a3 3 0 0 0 3-2l-1-5c-2-4-6-10-9-12s-8-2-12-2v-1c4 0 9 1 13 3s7 8 9 11v7a4 4 0 0 1-3 2Z" fill="#2f1d4a"/>
  <path d="M53 20 50 6a4 4 0 0 1-4 0c-6 0-11-5-11-5V0s6 5 12 5a3 3 0 0 0 2 0 2 2 0 0 0 0-1V3a1 1 0 0 1 1 0l4 16-1 1Z" fill="#2f1d4a"/>
  <path d="M30 10s8 7 22 5l1 3v2s-5 3-20-3l-5-3Z" fill="#2f1d4a"/>
  <path d="m48 21-15-3h-1l-4-4 2-4a1 1 0 0 1 1 0s7 6 21 5a1 1 0 0 1 1 0l1 4v1l-6 1Zm-15-4c13 4 18 3 20 2l-1-3c-12 1-20-4-22-5l-1 3Z" fill="#2f1d4a"/>
  <path d="M29 14a1 1 0 0 1-1 0l6-13a1 1 0 0 1 1-1s8-1 13 1a1 1 0 1 1 0 1c-5-2-11-1-13-1l-6 13Zm22 37a1 1 0 0 1-1 0V40a1 1 0 0 1 1 0v11ZM36 37l11 6m0 1-11-7a1 1 0 0 1 0-1l11 7a1 1 0 0 1 0 1Zm-13-2 11 5m0 0-11-5a1 1 0 0 1 0-1l11 5a1 1 0 0 1 0 1Zm42 10a1 1 0 0 1 0-1l-2-4a1 1 0 0 1 1 0l1 4a1 1 0 0 1 0 1ZM5 40l-4-3a11 11 0 0 1 2-4 10 10 0 0 0-1 4l3 2a1 1 0 0 1 1 0l-1 1Zm96 6-2-2-1 1a1 1 0 1 1-1 0l1-2h1l2 2a1 1 0 0 1 0 1Zm2-1-3-5a1 1 0 0 1 1-1l2 2a1 1 0 0 1 1 0 1 1 0 0 1-1 1l-1-1 2 3a1 1 0 0 1-1 1Zm3-6-5-2a1 1 0 0 1 1-1l4 2a1 1 0 0 1 1 1 1 1 0 0 1-1 0Z" fill="#2f1d4a"/>
  <path d="M60 71 12 57a1 1 0 0 1 0-1l-1-1 1-1 47 11 41-31c1-1 4 0 7 1a1 1 0 0 1 1 1l-1 2 1 1a1 1 0 0 1 0 1 1 1 0 0 1 0 1l-4 4v1a1 1 0 0 1 0 1l-4 2a1 1 0 0 1-1 0l-1-3-3 2a3 3 0 0 1-2-1L60 71ZM13 56l47 14 33-24h1l1 1 2-2h1l2 3 3-2v-2l4-4-1-1v-1l1-2c-4-1-6-2-7-1L59 66 13 55Zm87-22Z" fill="#2f1d4a"/>
  <path d="M51 45a1 1 0 0 1-1-1c3-1 5-3 5-4a3 3 0 0 0-2 1 1 1 0 0 1-1-1l3-1a1 1 0 0 1 1 1c0 2-4 4-5 5Zm-15 56a2 2 0 0 1-2-1h1a2 2 0 0 1-1-1 2 2 0 0 1 1-1 2 2 0 0 1 2 0 2 2 0 0 1 0 1 2 2 0 0 1-1 2Zm0-2h-1a1 1 0 0 0 0 1 1 1 0 0 0 1 0 1 1 0 0 0 0-1Zm-19-6a1 1 0 0 1 0-1l3-6a1 1 0 1 1 1 0l-3 7a1 1 0 0 1-1 0Zm5 0a1 1 0 0 1-1-1l2-5a1 1 0 0 1 1 1l-2 5Z" fill="#2f1d4a"/>
  <path d="M30 103h-1a139 139 0 0 0-19-1v-1l6-9 18 1a1 1 0 0 1 0 1 42 42 0 0 0-4 9Zm-19-2a144 144 0 0 1 18 1 42 42 0 0 1 4-8l-17-1Z" fill="#2f1d4a"/>
  <path d="M9 114a1 1 0 0 1-1 0 13 13 0 0 1 1-5l4-8 1 1-4 8a13 13 0 0 0-1 4Zm21 0a1 1 0 0 1-1 0l2-11a1 1 0 1 1 1 0l-2 11Zm7 2a1 1 0 0 1-1-1v-11a1 1 0 0 1 1 0v11a1 1 0 0 1 0 1Zm-6-23a1 1 0 0 1 0-1l1-7a1 1 0 0 1 1 0l-2 7v1Zm28 7h-1l-1-7h-6a1 1 0 0 1 0-1l-8-7a1 1 0 1 1 1 0l8 7h6l1 5v-6h1l6-5v-1a1 1 0 0 1 1 0v2l-7 5-1 8Z" fill="#2f1d4a"/>
  <path d="m73 116-1-1-6-29a1 1 0 0 1 1 0l6 29a1 1 0 0 1 0 1Z" fill="#2f1d4a"/>
  <path d="m70 103 2-5v-4l-3 2a1 1 0 0 1-1-1l4-2v1l1 4-2 5a1 1 0 0 1-1 0Zm24 13 5-20-30-10v-1a1 1 0 0 1 1 0l29 10a1 1 0 0 1 1 0l-5 21a1 1 0 0 1-1 0Z" fill="#2f1d4a"/>
  <path d="M101 116a1 1 0 0 1 0-1l4-21a1 1 0 0 0-1-1l-31-7v-1a1 1 0 0 1 1 0l30 7a2 2 0 0 1 1 2l-4 21v1Zm-38-5a1 1 0 0 1-1 0l-1-10 2-8a1 1 0 1 1 1 0l-2 8 1 10Zm4 1a1 1 0 0 1-1 0l-1-12a1 1 0 0 1 0-1h1l1 12a1 1 0 0 1 0 1Zm-12-1a1 1 0 0 1 0-1v-10a1 1 0 0 1 1 0v10a1 1 0 0 1-1 1Zm-7 3a1 1 0 0 1 0-1v-6h1v6l-1 1Zm-3-11a1 1 0 0 1-1 0 1 1 0 0 1 0-1l2-4v-7a1 1 0 0 1 1-1v8a1 1 0 0 1 0 1l-2 4Zm-5 9a1 1 0 0 1 0-1l1-11 2-3h1l-2 3-1 11a1 1 0 0 1-1 1Zm11-11h-1l1-9a1 1 0 0 1 1 0l-1 9Zm7-10-6-1-4-3v-1a1 1 0 0 1 1 0l3 3 5 1 4-3a1 1 0 0 1 1 1l-4 3Zm-5-5h-2a1 1 0 0 1-1-1 1 1 0 0 1 1 0l47-39a1 1 0 0 1 1 1L52 85h1l55-38a1 1 0 1 1 0 1L54 86h-1Z" fill="#2f1d4a"/>
  <path d="M103 105h-6a1 1 0 0 1 0-1h6a1 1 0 0 1 1 0 1 1 0 0 1-1 1Zm0 2h-6a1 1 0 0 1 0-1h6a1 1 0 0 1 0 1Zm-6 5v-3a1 1 0 0 1 1-1 1 1 0 0 1 0 1v2l-1 1Zm2 3 1-7v-1a1 1 0 0 1 1 1l-1 7a1 1 0 0 1-1 0Zm11-66a1 1 0 0 1-1 0c-4-3-4-6-4-7a1 1 0 1 1 1 0c0 1 0 4 4 6l11-8 10-5 3-3-1-1 1-2-1-1a1 1 0 0 1 0-1l1-1-2-2 1-3-2-1 1-2-2-1h-1l1-3h-2v-3h-2V9a13 13 0 0 0-4 0l-5 5c0 1 0 10 2 15a1 1 0 0 1-1 1l-11 6a1 1 0 1 1 0-1l11-6c-2-6-2-15-2-15a1 1 0 0 1 0-1l5-4a1 1 0 0 1 1-1 15 15 0 0 1 5 0v2h2a1 1 0 0 1 1 1l-1 2h2a1 1 0 0 1 0 1v2l2 1h1a1 1 0 0 1 0 1l-2 2h2a1 1 0 0 1 0 1l-1 3 2 1a1 1 0 0 1 1 1 1 1 0 0 1-1 0l-1 2h1v1l-1 2 1 1a1 1 0 0 1 1 0 1 1 0 0 1-1 1l-3 3-10 4-12 9Z" fill="#2f1d4a"/>
  <path d="M131 36h-1s-6-8-8-14-1-13-1-13a1 1 0 1 1 1 0s-1 8 1 13l8 13a1 1 0 0 1 0 1Z" fill="#2f1d4a"/>
  <path d="m124 21 1-2h-2a1 1 0 0 1 0-1l1-1h-1a1 1 0 0 1-1-1 1 1 0 0 1 1 0h2a1 1 0 0 1 1 0v1l-2 1 2 1-1 2a1 1 0 0 1-1 0Zm3 6a1 1 0 0 1-1-1l1-1h-1a1 1 0 0 1-1-1 1 1 0 0 1 1 0h2l-1 2v1Zm2 10c-1-1-7-8-9-13a96 96 0 0 1-1-13 1 1 0 0 1 1 0 96 96 0 0 0 1 12c1 5 8 13 8 13v1Z" fill="#2f1d4a"/>
  <path d="M122 40a1 1 0 0 1-1 0v-4a2 2 0 0 1 1-1l4-3a1 1 0 0 1 0 1l-3 2a1 1 0 0 0-1 1v4Zm-17-5h-1s-1-4 3-8l9 3a1 1 0 0 1-1 1l-8-3-2 7Zm6 23a1 1 0 0 1 0-1V35a1 1 0 0 1 0-1 1 1 0 0 1 1 1v22a1 1 0 0 1-1 1Zm-3-4h-2v-1l2-5h2a1 1 0 0 1 0 1l-2 5Zm-1-1h1l1-4Zm-14 5a5 5 0 0 1-3-5 1 1 0 0 1 1 0 4 4 0 0 0 2 4 1 1 0 0 1 0 1Zm2-1a4 4 0 0 1-2-6 1 1 0 1 1 1 0 3 3 0 0 0 2 5l-1 1Z" fill="#2f1d4a"/>
  <path d="m95 52 2-2a1 1 0 1 1 1 1l-2 1a1 1 0 0 1-1 0Zm1 2a1 1 0 0 1-1-1l9-5v1l-8 5ZM66 33l-18-4-6-5-40-5a1 1 0 0 0-1 2l3 11 60 5Zm-53-4c-1 1-3 0-4-1v-4c1-1 2 0 3 1l1 4Zm10 1-4-1v-4l3 1 1 4Zm9 1-3-1-1-4 4 1v4Zm36 2-1 4 13 1-3-8a2 2 0 0 0-1-2h-2c0 3-1 5-4 5a15 15 0 0 1-1 0Zm-1 0Z" fill="#2f1d4a"/>
  <circle cx="67.3" cy="32.8" r=".5" fill="#2f1d4a"/>
  <path d="m53 65-4-1v-1l16-31a1 1 0 0 1 1 0h3v1L53 65Zm-3-2 2 1 16-31h-2Zm-12 40-6-1a1 1 0 0 1 0-1l2-9a3 3 0 0 1 0-1l13-25a1 1 0 0 1 1 0l3 1a1 1 0 0 1 0 1L40 91a3 3 0 0 0 0 1l-2 11Zm-5-2 4 1 2-10a4 4 0 0 1 0-2l11-22-2-1-13 24a3 3 0 0 0 0 1Zm80-26a1 1 0 0 1-1 0L94 60a1 1 0 0 1 0-1h1l18 15 2-29v-1a1 1 0 0 1 1 1l-2 29a1 1 0 0 1-1 1ZM89 55a1 1 0 0 1-1 0v-1a1 1 0 0 1-1 0h2a1 1 0 0 1 0 1Zm2-2-3-1a1 1 0 0 1 1-1l2 2Z" fill="#2f1d4a"/>
  <path d="m110 68-1-1-13-9a1 1 0 0 1 1-1l12 9V50h1v17a1 1 0 0 1 0 1Zm9-29h-1v-1h1l-1-1a3 3 0 0 0-1 1v1l-1-1h-1a5 5 0 0 1 2-3 6 6 0 0 0-2 3h-3v-1l3-5h1l1 1-1 1v-1l-3 4h1a6 6 0 0 1 3-3l1 1v1a4 4 0 0 0-2 2h1a3 3 0 0 1 1-2l2 2v1h-1ZM47 5a1 1 0 0 1-1-1l-1-1h-4a1 1 0 0 1 0-1h5l1 2a1 1 0 0 1 0 1Zm50 81H23a2 2 0 0 1-2-2L4 33 0 21a1 1 0 0 1 0-1 2 2 0 0 1 2-1l40 5 6 4c3 2 19 5 22 5a3 3 0 0 0 2-1 4 4 0 0 0 1-4h3a2 2 0 0 1 1 1l7 18a1 1 0 0 1-1 0l-7-17a1 1 0 0 0-1-1h-1a5 5 0 0 1-1 3 4 4 0 0 1-3 2c-3 0-20-3-23-5l-5-4-40-5H1v1l4 11 17 52a1 1 0 0 0 1 1h74v-1l-8-21a1 1 0 0 1 0-1 1 1 0 0 1 1 0l8 22a1 1 0 0 1 0 1 1 1 0 0 1-1 1Z" fill="#2f1d4a"/>
</svg>
