<svg xmlns="http://www.w3.org/2000/svg" width="232.3" height="184.3" viewBox="0 0 174.5 138.2">
  <path fill="#fff" d="M85 59v5l1 4v4a1 1 0 0 0 1 1l36 1a1 1 0 0 0 1-1l-1-6-1-3-2-11v-4l-1-1v-4h-5v-1l-3-1 1-2-30-2v1l2 12Z"/>
  <path fill="#f58452" d="M151 99s-4 0-5-4 5-4 7-2 1 5-2 6Z"/>
  <path fill="#b29dd2" d="M86 72H71l-6-29s-2-11 3-19 12-11 17-11l18 1c4 1 6 7 6 7a26 26 0 0 0-7 2l-4-6-3 1-2 9-3 2-3 3-6 1Z"/>
  <path fill="#b29dd2" d="m123 67-14 1H86l-1-4h37l1 3zm-7-20 4 7-1-6-2-4h-3l2 3zm-9-15 5 8 1-1h1l-4-7h-3zm-12-1-9 22-2-1 7-21h4z"/>
  <path fill="#ede9f1" d="m119 48 13 5-7-8h-4l-7-1v-1l-3-1 2-3h13l11 16a1 1 0 0 1-1 2l-16-7Zm-35 3v-1 2l4 1v-2l2 2-2 6h-6L68 69a1 1 0 0 1-1-1l16-20Z"/>
  <path fill="#b29dd2" d="M104 104h4v7l5 3v2h-10Zm-13-1h5l-1 9 4 2v2H89l2-13z"/>
  <path fill="#ebb432" d="M94 90h3l-1 12h-3l1-12zm12 0h2v12l-3 1 1-13z"/>
  <path fill="#f58452" d="M79 73h33a8 8 0 0 1 4 8c0 6-4 7-4 7H78s-7 0-8-7a9 9 0 0 1 3-7 9 9 0 0 1 6-1Z"/>
  <path fill="#ede9f1" d="M107 90h2V73h-1l-1 17zm-12 0h2l2-17h-2l-2 17z"/>
  <path fill="#ebb432" d="M107 22a59 59 0 0 0-6 1l-4-5-2 1-2 8a42 42 0 0 0-7 4l24 1s10-13-3-10Z"/>
  <path fill="#e1557a" d="M86 36a2 2 0 0 1-1-3 2 2 0 0 1 1 3Z"/>
  <path fill="#f58452" d="M99 37a2 2 0 1 1 0-2 2 2 0 0 1 0 2Z"/>
  <path fill="#2f1d4a" d="m66 127 1-6a1 1 0 1 1 1 0 19 19 0 0 0-2 5 24 24 0 0 0 4-3l1-1a1 1 0 0 1 0 1 22 22 0 0 0 0 3 46 46 0 0 0 3-4h1a14 14 0 0 0 0 3 19 19 0 0 0 3-4 1 1 0 0 1 1 0l-4 5-1-2-4 3a5 5 0 0 1 0-2l-4 2Zm0-1Z"/>
  <path fill="#2f1d4a" d="M115 129v-1a1 1 0 0 1-1 0l2-6a1 1 0 0 1 1 1l-1 4 3-5h1v4l4-5a1 1 0 0 1 1 0v5l3-5a43 43 0 0 0 2 5 33 33 0 0 0 1-4v-1a1 1 0 0 1 1 1l2 4v-4a1 1 0 0 1 0-1 1 1 0 0 1 1 0l3 4-1-5h1a28 28 0 0 0 2 2 22 22 0 0 0-4-5H1a1 1 0 0 1-1-1 1 1 0 0 1 1 0h136c2 1 4 6 4 7s-1 1-3-1l1 4-4-3v4a1 1 0 0 1-1 0l-3-4-1 4a1 1 0 0 1 0 1l-2-5c-2 5-3 5-3 4l-1-4-5 5v-4l-4 5Zm23-3Z"/>
  <path fill="#2f1d4a" d="m123 138 6-12a1 1 0 0 1 1 0 1 1 0 0 1 0 1l-6 11h-1Zm-72-21a1 1 0 0 1 0-1l6-17-7 4a1 1 0 0 1-1-1l6-18-25 18a1 1 0 0 1-1 0 1 1 0 0 1 0-1l3-23-10 11a1 1 0 0 1-1-1l12-12a1 1 0 0 1 1 1l-4 23 25-18a1 1 0 0 1 1 1l-6 18 8-4 1 1-8 18a1 1 0 0 1 0 1ZM20 87a1 1 0 0 1-1 0l-1-31L2 77a1 1 0 0 1-1 0l17-23a1 1 0 0 1 1 0v1l1 32Z"/>
  <path fill="#2f1d4a" d="M62 117a1 1 0 0 1 0-1l6-9-7 1a1 1 0 0 1-1 0v-1l10-16-14 5a1 1 0 0 1-1 0l1-1 15-5a1 1 0 0 1 0 1l-9 16 7-1-6 10a1 1 0 0 1-1 1ZM46 86l2-5-7 3a1 1 0 0 1-1 0 1 1 0 0 1 0-1l7-19-13 7a1 1 0 0 1-1 0l1-6-5 4a1 1 0 0 1-1 0 1 1 0 0 1 0-1l-1-7-5 5 5-7h1l1 8 5-4a1 1 0 0 1 1 1l-1 6 14-8 1 1-8 20 8-3-2 6a1 1 0 0 1-1 0ZM23 63a1 1 0 0 1-1-1L21 1a1 1 0 0 1 1-1l1 62a1 1 0 0 1 0 1Z"/>
  <path fill="#2f1d4a" d="M31 63 27 3h2l3 60Zm15-1a1 1 0 0 1 0-1l4-15 5-43a1 1 0 0 1 1 0l-5 43c0 4-4 15-4 15a1 1 0 0 1-1 1Zm4 23a1 1 0 0 1 0-1l7-38 1-15a1 1 0 0 1 1 0l-2 16-6 37-1 1Zm9-57a1 1 0 0 1-1-1l2-24a1 1 0 0 1 1 0l-2 25Zm90 90h-4v-1l-14-17-5 3a1 1 0 0 1-1 0l-11-13-3 1a1 1 0 0 1 0-1l3-1a1 1 0 0 1 1 0l11 13 5-3h1l13 18h4l3-6h8l14-16-13 17h-9l-3 5a1 1 0 0 1 0 1Zm-49-23a1 1 0 0 1-1-1l5-2a1 1 0 0 1 0 1l-4 2Zm-17 5L67 85l-8 6a1 1 0 0 1-1-1l9-6 17 15 8-3a1 1 0 0 1 0 1l-8 3h-1Z"/>
  <path fill="#2f1d4a" d="m150 105-6-5-4 3a1 1 0 0 1-1 0l5-4a1 1 0 0 1 1 0l5 5 11-10a1 1 0 0 1 1 0l4 5a1 1 0 0 1 0 1l-5-5-10 10a1 1 0 0 1-1 0Zm-7-11h-4a1 1 0 0 1 0-1h4a1 1 0 0 1 0 1Zm4-7-3-4 3 4Zm7 0h-1l2-7a1 1 0 0 1 1 1l-2 6Zm6 3h-1a1 1 0 0 1 0-1l4-2a1 1 0 0 1 1 0l-4 3Z"/>
  <path fill="#2f1d4a" d="M148 97a4 4 0 0 1-1-4 5 5 0 0 1 6-3 4 4 0 0 1 2 2 4 4 0 0 1 1 3 1 1 0 0 1-1 1 1 1 0 0 1 0-1 3 3 0 0 0 0-2 3 3 0 0 0-2-2 4 4 0 0 0-5 2 3 3 0 0 0 1 3v1h-1ZM29 29a1 1 0 0 1 0-1s6-5 9-10a1 1 0 0 1 1 0 1 1 0 0 1 0 1l-9 10h-1Z"/>
  <path fill="#2f1d4a" d="M33 26a1 1 0 0 1 0-1v-2a1 1 0 0 1 0-1 1 1 0 0 1 1 1v2a1 1 0 0 1-1 1Z"/>
  <path fill="#2f1d4a" d="M35 26h-3a1 1 0 0 1 0-1h3a1 1 0 0 1 0 1Zm0-2a1 1 0 0 1-1-1v-4a1 1 0 1 1 1 0v4a1 1 0 0 1 0 1Z"/>
  <path fill="#2f1d4a" d="M39 24h-4a1 1 0 0 1 0-1h4v1Zm1-3h-3a1 1 0 0 1-1 0v-3a1 1 0 1 1 1 0v2h3a1 1 0 0 1 1 1 1 1 0 0 1-1 0Zm11 21h-1a77 77 0 0 1-6-7v-3a1 1 0 0 1 1 0v2a78 78 0 0 0 6 8Z"/>
  <path fill="#2f1d4a" d="M44 35h-1a1 1 0 0 1-1-1 1 1 0 0 1 1 0h1a1 1 0 0 1 1 0 1 1 0 0 1-1 1Zm0 2a1 1 0 0 1-1-1l2-1a1 1 0 0 1 1 0v1l-2 1Z"/>
  <path fill="#2f1d4a" d="M44 39a1 1 0 0 1 0-1l2-1v-3a1 1 0 0 1 1-1 1 1 0 0 1 0 1v3a1 1 0 0 1 0 1l-2 1h-1Z"/>
  <path fill="#2f1d4a" d="M45 41a1 1 0 0 1 0-1l3-1v-3a1 1 0 0 1 1 0v4l-3 1Zm15-24a1 1 0 0 1-1-1l6-5a1 1 0 0 1 1 1l-6 5Z"/>
  <path fill="#2f1d4a" d="m64 16-2-1a1 1 0 1 1 0-1l2 1a1 1 0 0 1 0 1Zm2-2h-1l-1-1a1 1 0 0 1 1-1l1 1a1 1 0 0 1 0 1Z"/>
  <path fill="#2f1d4a" d="M63 14v-3a1 1 0 1 1 1 0v3h-1Zm37 36v-5a1 1 0 1 1 1 0v4a1 1 0 0 1-1 1Zm4 9-1-1-2-3-3 3 2-5h1l3 5v1Zm5-3a1 1 0 0 1 0-1l-2-5a1 1 0 0 1 0-1l3 6v1h-1Zm-25-3a1 1 0 0 1-1-1l8-21v-1l5 1a1 1 0 0 1 1 0l-4 10a1 1 0 0 1-1 0l3-9-3-1-8 21a1 1 0 0 1 0 1Z"/>
  <path fill="#2f1d4a" d="M88 52a1 1 0 0 1 0-1l3-8a1 1 0 0 1 1 0l-3 9a1 1 0 0 1-1 0Zm-2 17a1 1 0 0 1-1-1v-4h35a1 1 0 0 1 0 1H86v3l36-1v-2a1 1 0 0 1 0-1h1v4l-37 1Z"/>
  <path fill="#2f1d4a" d="m104 68-1-4h6v4h-5zm2 35a1 1 0 0 1-1 0l2-30a1 1 0 0 1 1 0h2l-1 28h-1l1-27h-1l-2 29Z"/>
  <path fill="#2f1d4a" d="M114 117h-10a1 1 0 0 1-1-1l1-13 1-1h5a1 1 0 0 1 0 1v7a30 30 0 0 1 5 3v3a1 1 0 0 1-1 1Zm-10-1h10v-3a29 29 0 0 0-5-2v-8h-4Z"/>
  <path fill="#2f1d4a" d="M114 115h-10a1 1 0 0 1-1 0 1 1 0 0 1 1-1h10a1 1 0 0 1 1 1 1 1 0 0 1-1 0Zm-18-14a1 1 0 0 1 0-1l2-27-3 27h-1a1 1 0 0 1 0-1l3-26a1 1 0 0 1 0-1h2a1 1 0 0 1 0 1l-2 27-1 1Zm5 16H90a1 1 0 0 1 0-1l2-14h5a1 1 0 0 1 1 0l-1 9a34 34 0 0 1 4 2v3a1 1 0 0 1 0 1Zm-10-1h9v-3a36 36 0 0 0-4-1 1 1 0 0 1 0-1l1-8h-4Z"/>
  <path fill="#2f1d4a" d="M101 115H90a1 1 0 0 1 0-1h11a1 1 0 0 1 0 1Zm-9-12a1 1 0 0 1 0-1l-2-2a1 1 0 0 1 1-1l2 3a1 1 0 0 1-1 1Zm13 0h-1l-2-3a1 1 0 0 1 1 0l2 2a1 1 0 0 1 0 1ZM82 30a1 1 0 0 0-1 1l1 8h6l3-8Zm4 6a2 2 0 0 1-1-3 2 2 0 0 1 1 3Zm35 9-2-3h-2l-1 1h-2a1 1 0 0 1 0-1h2l1-1h3a1 1 0 0 1 0 1l2 2v1h-1Z"/>
  <path fill="#2f1d4a" d="M113 43a1 1 0 0 1 0-1l2-3a1 1 0 0 1 1 0l-2 4a1 1 0 0 1-1 0Z"/>
  <path fill="#2f1d4a" d="M136 58a2 2 0 0 1-1-1l-13-6a1 1 0 1 1 0-1l14 6a1 1 0 0 0 1-1l-11-15-13-1-1 2 2 1 1 1v1h10a1 1 0 0 1 1 0l6 9-13-5a1 1 0 0 1 0-1l11 5-5-7h-11a1 1 0 0 1 0-1v-1l-3-1a1 1 0 0 1-1 0v-1l2-3h1l13 1 12 16a2 2 0 0 1-2 3Z"/>
  <path fill="#2f1d4a" d="m118 39-1-6a1 1 0 0 0-1 0l-4-1 3 7Zm-6 1-5-8h1l-12-1-3 8 19 1Zm-13-3a2 2 0 1 1 0-2 2 2 0 0 1 0 2Z"/>
  <path fill="#2f1d4a" d="M112 40a1 1 0 0 1-1 0l-5-8a1 1 0 0 1 1-1l5 1 3 7h-2l-1 1Zm-4-8 4 7v-1h2l-3-5Zm12 22-5-8a1 1 0 0 1 0-1 1 1 0 0 1 1 0l3 6v-4a1 1 0 0 1 0-1l1 1 1 6a1 1 0 0 1 0 1 1 1 0 0 1-1 0Z"/>
  <path fill="#2f1d4a" d="m123 74-36-1a1 1 0 0 1-1-1l-2-13h1l2 13 36 1-5-28h-4a1 1 0 0 1 0-1v-1l-3-1a1 1 0 0 1-1 0v-1l2-3h5l-1-5-34-2 2 20a1 1 0 0 1-1 0l-2-20a1 1 0 0 1 0-1 1 1 0 0 1 1 0l34 2a1 1 0 0 1 1 1l1 6a1 1 0 0 1 0 1l-5-1-2 2 3 1 1 1v1h4l5 29a1 1 0 0 1-1 1Z"/>
  <path fill="#2f1d4a" d="M68 70a2 2 0 0 1-2-2l17-20a1 1 0 0 1 1 0v2a1 1 0 0 1 1 0l-1 2 3 1 1-2a1 1 0 0 1 1 0l1 2-2 7h-6L69 70a2 2 0 0 1-1 0Zm15-20L67 68a1 1 0 0 0 0 1 1 1 0 0 0 1 0l14-10h6l1-6v-1l-1 2-4-1a1 1 0 0 1-1-1l1-1a1 1 0 0 1-1 0Z"/>
  <path fill="#2f1d4a" d="M73 63a1 1 0 0 1 0-1l9-7-1-3 1-1 1-1a1 1 0 0 1 1 1l-2 1 1 3h-1l-8 8h-1Zm39-32v-1l4-6a2 2 0 0 0 0-2h-7c-9 1-20 7-20 7a1 1 0 0 1-1 0c1-1 11-7 21-8h7a3 3 0 0 1 1 3c0 2-3 5-5 6a1 1 0 0 1 0 1Z"/>
  <path fill="#2f1d4a" d="M93 27h-1l1-2 1-7a1 1 0 0 1 0-1l4-1a1 1 0 0 1 1 0l3 5 1 1a1 1 0 0 1 0 1 1 1 0 0 1-1 0 67 67 0 0 0-9 4Zm1-1a68 68 0 0 1 8-4h-1l-3-5-3 1-1 8Z"/>
  <path fill="#2f1d4a" d="M102 23a69 69 0 0 0-9 4v-2s3-3 9-3v1ZM72 71h-1v-2a1 1 0 1 1 1 0v1h12a1 1 0 0 1 0 1H72Zm-2-9v-1l-3-16 12-11a1 1 0 0 1 1 0L68 45l3 16a1 1 0 0 1-1 1Z"/>
  <path fill="#2f1d4a" d="M66 44a1 1 0 0 1-1 0 97 97 0 0 1 0-10l6-13 12-9c3-1 14-2 19 0 6 1 9 7 9 7a1 1 0 0 1 0 1 1 1 0 0 1-1 0s-3-6-8-7c-6-2-16-1-18 0l-12 8-6 13a94 94 0 0 0 0 10Z"/>
  <path fill="#2f1d4a" d="M88 24c-2-8-5-9-5-9a1 1 0 0 1 0-1s4 1 6 10a1 1 0 0 1-1 0ZM74 56h-2a72 72 0 0 1-1-10c4-6 8-5 8-5l2 8a1 1 0 0 1-1 1 1 1 0 0 1 0-1l-1-7c-1 0-4 0-7 5a73 73 0 0 0 1 8h2a1 1 0 0 1 0 1Z"/>
  <path fill="#2f1d4a" d="M72 50h-1a1 1 0 0 1 0-1l8-5h1a1 1 0 0 1 0 1l-8 5Zm6 37a8 8 0 0 1-4-1 9 9 0 0 1-4-7c1-4 3-7 7-7s7 3 7 5a8 8 0 0 1-1 5 5 5 0 0 1-4 2 5 5 0 0 1-4-1 5 5 0 0 1-2-3 4 4 0 0 1 7-3 3 3 0 0 1 1 3 3 3 0 0 1-2 2 3 3 0 0 1-3 0 2 2 0 0 1 0-2 2 2 0 0 1 1-1 2 2 0 0 1 1 0 1 1 0 0 1 0 1 1 1 0 0 0-1 0 1 1 0 0 0 0 1 2 2 0 0 0 2 0 2 2 0 0 0 1-1 2 2 0 0 0-1-3 3 3 0 0 0-5 3 4 4 0 0 0 2 3 5 5 0 0 0 6-1 7 7 0 0 0 1-5c0-1 0-4-6-4-5 0-5 4-6 6a8 8 0 0 0 4 6 7 7 0 0 0 6 1 6 6 0 0 0 4-5 1 1 0 0 1 1 0 7 7 0 0 1-5 6 8 8 0 0 1-3 0Zm36 0h-5a1 1 0 0 1 0-1h5c1 0 3-2 3-6a7 7 0 0 0-3-6 1 1 0 0 1-1-1 1 1 0 0 1 1 0 8 8 0 0 1 4 7c0 5-3 7-3 7h-1Zm-7 0h-8a1 1 0 0 1 0-1h8a1 1 0 0 1 0 1Z"/>
  <path fill="#2f1d4a" d="M94 87H78a1 1 0 0 1 0-1h16a1 1 0 0 1 0 1Z"/>
  <path fill="#2f1d4a" d="M88 87a1 1 0 0 1-1 0 8 8 0 0 0 3-7 9 9 0 0 0-1-4 1 1 0 1 1 1-1 10 10 0 0 1 1 5 9 9 0 0 1-3 7Z"/>
  <path fill="#2f1d4a" d="M90 87a9 9 0 0 0 2-6 12 12 0 0 0-1-6 1 1 0 0 1 0-1h1a13 13 0 0 1 2 7l-3 6a1 1 0 0 1-1 0Zm21 0a1 1 0 0 1-1 0 9 9 0 0 0 3-7 7 7 0 0 0-2-5h1a8 8 0 0 1 2 5 9 9 0 0 1-3 7ZM74 39l-3-3v-1a1 1 0 0 1 1 0l2 3v-5a1 1 0 0 1 1 0v6Zm23 51h-2a1 1 0 0 1 0-1h2a1 1 0 0 1 1 1 1 1 0 0 1-1 0Zm12 0h-2a1 1 0 0 1-1 0 1 1 0 0 1 1-1h2a1 1 0 0 1 0 1Z"/>
</svg>
