<svg id="compass" xmlns="http://www.w3.org/2000/svg" width="238.973" height="161.616" viewBox="0 0 179.228 121.215" xmlns:xlink="http://www.w3.org/1999/xlink"><defs><path class="cls-7" d="M89.981 52.194c-.924 2.618 1.608 4.896 4.39 5.467 3.002.616 6.083-.231 6.468-2.387.143-.805.308-3.696-3.928-5.005-2.77-.857-6.223-.078-6.93 1.925Z" id="reuse-0"/></defs><defs><style>.cls-2{stroke:#3f2b56;stroke-linecap:round;stroke-linejoin:round}.cls-3{fill:#3f2b56}.cls-2{fill:none}.cls-5{fill:#ebb432}.cls-6{fill:#fca9cb}.cls-7{fill:#b39ed3}.cls-8{fill:#b29dd2}.cls-9{fill:#e1557a}</style></defs><path class="cls-6" d="M15.046 14.549s6.79-8.7 18.159-11.884C39.67.854 46.935-.405 54.33 1.51s7.048 6.496 7.048 6.496-.446 3.742-3.775 7.247l-3.406-1.2s8.296-10.437-8.386-9.515S22.93 12.474 19.21 18.356l-4.164-3.807ZM100.3 13.538s10.67 1.638 17.236 4.401 13.515 5.267 25.323 15.324c0 0 9.112 8.357 10.7 19.522l-36.793 1.82S80.458 25.432 80.895 25.02s3.04-12.404 3.04-12.404 10.11.405 16.365.922Z"/><path class="cls-6" d="M0 17.63 68.053 4.691l111.175 43.413-22.187 71.41-134.161-8.32L0 17.63z"/><path d="M70.73 82.696c10.546 4.902 20.842 8.793 46.806 5.234 20.323-2.786 26.06-17.132 26.06-17.132.857-4.92 1.828-9.826-4.025-18.99-6.53-10.224-19.25-17.686-31.725-20.944-13.751-3.592-35.19-3.697-47.742 5.621-6.695 4.97-9.63 10.473-10.916 14.402 0 0-.78 2.604-.803 6.083 0 0 2.552 16.525 22.345 25.726Z" fill="#f6f6f8"/><path class="cls-6" d="m90.511 51.345 7.093-16.323 2.818 17.763"/><use class="cls-7" xlink:href="#reuse-0"/><path class="cls-8" d="m33.007 67.972 5.64-24.423S30.408 71.01 66.109 89.734c20.094 10.54 53.884 10.007 69.653.5 16.976-10.236 17.606-23.75 18.453-30.17l-2.287 37.044s-4.344 21.032-43.726 23.388c-15.664.938-35.316-1.156-53.489-12.218-14.924-9.084-24.04-24.134-21.706-40.306ZM41.84 23.09s.72-3.3 4.14-5.46c0 0 5.76 5.88 5.58 5.88s-2.969 2.764-5.009 5.043l-4.712-5.463Z"/><path class="cls-8" d="M45.811 25.39s-16.504 4.06-25.338.723c-9.61-3.631-.048-12.533 4.22-15.507 3.731-2.6 9.665-4.863 16.537-5.518 7.314-.697 11.455-.11 12.163.18 1.94.796 2.243 1.632 2.243 1.632-.923-3.186-4.394-4.807-13.411-4.051-7.639.64-18.211 4.677-22.635 8.247-6.165 4.976-9.493 9.29-7.337 15.071 2.64 7.079 13.564 5.805 17.49 4.725 4.085-1.123 14.841-4.494 16.069-5.502Z"/><path class="cls-7" d="M48.385 56.97s-5.353-14.7 8.152-26.364c13.506-11.664 39.228-12.132 56.651-6.603 23.446 7.44 30.683 21.137 32.562 28.033 2.584 9.48-2.154 18.762-2.154 18.762s-.92-21.18-23.003-32.137c-15.908-7.893-29.107-8.193-42.378-6.336-11.27 1.577-21.62 7.119-29.83 24.645Z"/><path class="cls-5" d="m70.73 34.637.693 15.287 19.636-8.511-20.329-6.776zM103.534 73.986l19.559-9.164 3.08 16.71-22.639-7.546z"/><path class="cls-9" d="m110.574 47.431 5.094 4.196 6.624-.29 5.581-2.711V44.64l-4.863-3.587-5.979-.478-5.501 2.63-.956 4.226zM60.749 71.904l1.196-5.421 6.218-2.63 6.218 1.116 4.145 3.747-1.275 5.022-5.421 2.79-6.059-.717-5.022-3.907z"/><path class="cls-2" d="M45.811 25.39s-18.663 9.115-28.6 5.361c-9.938-3.754-5.18-16.415 5.47-23.571C31.7 1.12 46.745-.61 53.15 1.157s8.228 4.418 8.228 6.848-3.104 7.32-7.962 11.516"/><path class="cls-2" d="M18.648 21.353c.332 2.164 2.733 3.94 9.825 3.656 11.042-.442 15.9-2.65 15.9-2.65s1.762-.937 2.65 1.104M53.223 16.08c1.549-2.39 3.978-6.832 2.413-9.18-2.208-3.312-10.903-2.87-19.033-.883s-14.276 6.69-17.04 11.65"/><path class="cls-2" d="M40.853 22.162s1.172-6.48 8.966-7.613l4.894 6.766M45.072 27.374l1.479 1.179"/><path class="cls-2" d="M116.115 17.423c15.469 5.463 29.055 15.243 34.314 25.761 8.701 17.403.693 34.729-6.853 41.043-7.225 6.045-23.16 17.723-60.756 10.704-35.884-6.7-44.2-32.881-44.97-40.042-.795-7.39 1.617-21.946 15.092-32.419 9.692-7.532 26.028-11.858 47.358-8.932a78.235 78.235 0 0 1 10.274 2.138s1.876.488 3.1.883 2.441.864 2.441.864Z"/><path class="cls-2" d="M47.244 45.802c1.54-9.317 12.475-25.642 42.891-25.334s47.511 15.94 51.9 23.101 9.164 20.56-3.465 34.113c-12.628 13.552-41.582 12.09-49.667 11.011-4.705-.627-21.87-4.774-32.65-16.632-7.41-8.152-9.89-20.924-9.01-26.259Z"/><use class="cls-2" xlink:href="#reuse-0"/><path class="cls-2" d="m90.511 51.345 7.093-16.323 2.818 17.763M103.534 73.986l19.559-9.164 3.08 16.71-22.639-7.546zM71.423 49.924l19.636-8.511-20.329-6.776.693 15.287z"/><path class="cls-2" d="M49.188 50.887c1.286-3.929 4.22-9.432 10.916-14.402 12.551-9.318 33.99-9.213 47.742-5.621 12.474 3.258 25.196 10.72 31.725 20.945 5.853 9.163 4.882 14.069 4.025 18.988M154.215 60.063l-.655 13.571M153.028 84.634l.167-3.453"/><path class="cls-2" d="m39.899 40.242-6.892 27.73s-4.66 21.89 18.642 38.272c23.302 16.382 52.361 15.786 67.93 12.851 17.229-3.248 32.199-12.145 33.046-26.126l.207-4.292"/><path class="cls-2" d="M36.19 55.163s-.782 16.057 13.058 28.485 31.748 17.73 51.174 18.5c24.947.989 49.667-9.58 53.138-28.514M56.142 58.99l6.122-.479M58.597 43.365l4.862 1.993M92.398 32.284l.318 3.428M110.095 35.552l-2.312 3.109M128.989 55.084l5.979-.957M130.743 64.49l6.218 1.914M105.312 79.637l2.232 3.667M81.954 80.195l2.392-3.906"/><path class="cls-2" d="m74.381 64.969 4.145 3.747-1.275 5.022-5.421 2.79-6.059-.717-5.022-3.907 1.196-5.421 6.218-2.63 6.218 1.116zM110.574 47.431l5.094 4.196 6.624-.29 5.581-2.711V44.64l-4.863-3.587-5.979-.478-5.501 2.63-.956 4.226z"/><path class="cls-3" d="m64.576 71.187 1.355 1.196 4.145-2.551-.877-.718-4.623 2.073z"/><ellipse class="cls-3" cx="72.483" cy="68.197" rx="1.42" ry="1.019"/><ellipse class="cls-3" cx="116.114" cy="47.079" rx="1.421" ry="1.025"/><path class="cls-3" d="m118.52 45.347 4.384-2.205 1.663 1.181-4.959 1.818-1.088-.794zM76.631 41.006l-3.532-2.729 1.606-.696 2.943 3.104-1.017.321z"/><ellipse class="cls-3" cx="79.12" cy="42.612" rx="1.365" ry=".963"/><path class="cls-3" d="m118.051 73.757 3.372 3.8 1.712-.964-4.281-3.371-.803.535z"/><ellipse class="cls-3" cx="116.232" cy="71.402" rx="1.445" ry="1.017"/><path d="M94.37 57.66c-1.634-.334-3.175-1.261-3.987-2.497h0l1.985 23.366 7.738-21.905h0c-1.164 1.133-3.47 1.502-5.736 1.037Z" fill="#3f2b56" stroke="#3f2b56" stroke-linecap="round" stroke-linejoin="round"/></svg>