<?xml version="1.0" encoding="UTF-8"?>
<svg id="art" xmlns="http://www.w3.org/2000/svg" width="539.8041" height="208.1707" viewBox="0 0 539.8041 208.1707">
  <defs>
    <style>
      .cls-1 {
        fill: #f7b2b2;
      }

      .cls-2 {
        fill: #f6f6f8;
      }

      .cls-3 {
        fill: #f58452;
      }

      .cls-4 {
        fill: #a15749;
      }

      .cls-5 {
        fill: #b39ed3;
      }

      .cls-6 {
        fill: #231338;
      }

      .cls-7 {
        fill: #3f2b56;
      }

      .cls-8 {
        fill: #5c4376;
      }
    </style>
  </defs>
  <path class="cls-3" d="m9.4937,161.9677s3.3809.1793,3.4578,1.1014-3.2273,1.0758-3.4578,1.0758-3.2913.025-3.2529-1.2038c.0256-.8196,3.2529-.9733,3.2529-.9733Z"/>
  <polygon class="cls-1" points="12.3469 102.0693 6.0388 108.072 4.6145 107.8686 3.9531 106.9529 2.3761 107.2581 .5448 104.4093 1.3587 103.341 2.2235 103.2393 2.7831 102.0693 3.9023 102.0184 4.4618 100.6957 6.1406 100.6957 7.3615 102.171 12.0925 97.847 12.3469 102.0693"/>
  <path class="cls-1" d="m29.2647,196.3632S-.7673,43.893,1.5429,43.893,284.537,0,284.537,0l-31.9572,208.1707-223.3151-11.8075Z"/>
  <path class="cls-2" d="m213.129,38.4966l-4.882,40.1118-1.0556.5938-1.1875-.9896-3.4306,4.0903,1.0556,4.2223-27.7748,22.365-17.8788-22.4969-1.7813,2.0452,18.0767,27.3789s.7917.7917,2.1111-.1319,30.3478-23.4865,30.3478-23.4865l-2.375,19.858s.066,2.507-2.6389,3.0348-32.3929,3.3646-44.7299,7.389c-18.4857,6.0301-31.0735,10.6217-42.3549,13.1947l-12.403,2.375-1.7153-.9896-3.6945.5938-15.8996-14.6461,13.6083-17.5755-1.2834-.9626-15.5294,17.5829s-1.6043,1.1551.0642,2.9519,11.4224,11.2299,11.4224,11.2299c0,0-5.9037-1.2834-6.9946-1.7326s-7.9572-3.016-11.3583-7.508-11.1016-11.7433-14.6952-14.0534-9.4331-4.9412-17.262-4.1069-17.3903,2.8877-17.3903,2.8877c0,0-2.1818.5134-1.7326-1.7968s10.2674-42.6095,10.2674-42.6095c0,0,6.2463-3.4481,20.4603-2.5962,6.6926.4011,13.2145,2.468,20.3918,6.9247,17.0357,10.5783,24.7948,12.2276,39.0407,5.9388s60.2109-27.9539,76.6202-33.3047c17.7112-5.7754,26.5812-5.7814,26.5812-5.7814Z"/>
  <ellipse class="cls-3" cx="52.191" cy="184.1574" rx="4.7254" ry="1.4845"/>
  <path class="cls-3" d="m187.3742,202.0387c0,1.4257-4.2069,2.615-8.1756,2.615s-7.186-1.1557-7.186-2.5814,3.2173-2.5814,7.186-2.5814,8.1756,1.1221,8.1756,2.5477Z"/>
  <path class="cls-3" d="m117.4099,179.1413c0,.6936-2.1481,1.373-4.4985,1.373s-4.2558-.5622-4.2558-1.2558,1.9054-1.2558,4.2558-1.2558,4.4985.445,4.4985,1.1386Z"/>
  <path class="cls-5" d="m38.5814,121.6509l-8.016-5.0627s-2.4622,3.622-3.2064,5.2034c-1.2202,2.5929-1.5361,5.9801-1.3501,5.794.186-.186,2.1703.0086,3.9377-1.2938,1.7675-1.3023,2.3626-3.572,2.3626-3.572l7.3691,4.8377c-.2421-1.7102-.6729-4.2331-1.0969-5.9065Z"/>
  <path class="cls-5" d="m48.9038,109.7816l-1.9407-.5063,2.3907,19.0697-7.6222-4.9784c.0654-.2191.7646,4.8686.8438,4.9221l7.4816,4.3596s2.2501,1.6313,2.5876-.675c.1756-1.2001-3.7408-22.1917-3.7408-22.1917Z"/>
  <polygon class="cls-5" points="105.9653 137.4944 109.5703 148.8951 113.4907 147.8137 108.7592 137.0888 105.9653 137.4944"/>
  <path class="cls-5" d="m105.7851,154.573l-16.0872,9.5081s.2886,4.1296,1.6673,6.6692c1.7674,3.2558,5.768,4.5062,5.768,4.5062,0,0,.9012-1.7581.9012-4.0556,0-2.6046-1.442-4.6865-1.442-4.6865l16.8533-12.3921-.8996-.56s-3.6067,1.5063-6.761,1.0106Z"/>
  <path class="cls-5" d="m173.0299,119.3347c.5581.3721,32.1527,61.6374,32.1527,61.6374,0,0,2.1825.2297,10.1085-4.7671,3.9471-2.4884,4.6941-4.3866,4.6941-4.3866,0,0-.8846-2.1377-5.8233-2.2114-2.9118-.0435-6.5605,2.2851-6.5605,2.2851l-31.1806-53.2209-3.3908.6634Z"/>
  <polygon class="cls-5" points="30.0347 96.0741 63.709 79.516 54.9648 94.3997 97.0113 86.0276 78.4067 108.1671 147.4298 79.8881 129.9414 105.0043 194.3134 57.9347 192.0809 55.33 205.4762 52.5393 200.2669 65.0044 197.6622 62.2137 117.1043 118.7718 138.3135 87.1439 71.3369 113.7485 91.4299 89.1904 51.8021 96.8183 60.3602 82.4928 29.4765 97.3764 30.0347 96.0741"/>
  <path class="cls-3" d="m28.2062,104.3784c.5262-.6764,21.9215-10.909,21.9215-10.909l-4.093,7.6279,32.186-7.4418-9.6744,13.2093,48.9301-15.2558-9.1163,21.7674L239.5226,44.7254l-1.4884-5.7674,30.6976-2.0465-26.2325,24-1.1163-5.7674L99.0578,122.6787l10.2325-23.4418-48.1859,12.279,8.5581-12.4651-28.4651,5.5814,3.5349-6.1395-17.1162,7.2558.5901-1.3701Z"/>
  <path class="cls-8" d="m16.0328,165.9243c.0198-.009.0391-.0189.0583-.0289.0011-.0008-.0022.0012-.0005,0,.0079-.0056.0167-.0102.0245-.0159.0206-.015.0414-.0294.0612-.0455.012-.0099.0654-.0654.0217-.0168.0281-.0312.0515-.0656.0782-.0975.0018-.0021.0002-.0003.0015-.0018.0035-.0064.0071-.0127.0102-.0193.0086-.0187.0167-.0374.0247-.0563.0045-.0107.009-.0256.0113-.0326.0027-.0118.0054-.0236.0077-.0354-1.7155-.8691-2.9981-1.5075-3.6524-1.8139.2978-.1955.4892-.4288.4892-.709.0005-1.7949-7.1973-1.7949-7.1978,0,0,.8965,1.8105,1.3662,3.5991,1.3662.9318,0,1.8631-.1305,2.5477-.3795.1884.0615,1.6003.7856,3.7899,1.9321.0424-.0135.0848-.0273.1255-.0457Zm-6.4631-2.0069c-1.8916,0-3.0991-.5127-3.0991-.8662s1.2075-.8672,3.0991-.8672,3.0986.5137,3.0986.8672-1.207.8662-3.0986.8662Z"/>
  <path class="cls-8" d="m32.7783,174.8478c.0031-.0007.0118-.0029.0192-.0048.0215-.0065.0433-.012.0649-.0186.0376-.0113.075-.0234.1121-.0366.0779-.0278.1528-.061.2265-.0984.0038-.002.0023-.0009.0046-.002.003-.0021.0018-.0016.0075-.0054.0139-.0091.0278-.0178.0414-.0273.0269-.0189.0508-.0406.0765-.0609.0012-.0015-.0012.0011.0002-.0007.01-.0125.0198-.0251.0298-.0375.0005-.0006-.0001.0003.0003-.0002.0037-.0081.0073-.0163.0108-.0234.0001-.0025.0009-.0063.0013-.0114.0002.0035.0006.0095.0002-.0111,0-.0035-.0008-.007-.0016-.0105-.004-.011-.0079-.0222-.012-.0327-.0033-.0084-.0097-.0164-.0119-.025-.0004-.0016.0009.0016.0007.0005-.0164-.027-.0435-.057-.0573-.0731-.0094-.0109-.0705-.0701-.0265-.0299-.0157-.0143-.0312-.0287-.0472-.0427-5.7993-3.0297-11.4328-5.9439-15.4056-7.9691-.0537.0369-.1069.0738-.1567.1172-.0318.0278.0214-.0259-.0158.0172-.0125.0145-.0252.0286-.0372.0435-.0234.0289-.0444.0592-.0652.09-.0317.047.0082-.022-.0089.0148-.0074.0161-.0163.0315-.0238.0476-.0161.0343-.0301.0695-.0422.1054-.0026.0077-.004.014-.0058.0211,3.918,2.0616,9.5253,5.0422,15.2264,8.0826.0317-.0065.0637-.0111.0952-.0184Z"/>
  <path class="cls-8" d="m69.5507,183.5371c.0178-.0133.0351-.0272.0522-.0415-.0011-.0117-.0021-.0233-.004-.0349-.0003-.0017-.0006-.0034-.001-.0051-.0034-.0104-.0065-.0208-.0105-.0309-.0063-.0161-.0135-.0319-.0212-.0475-.0187-.0272-.0365-.0545-.0577-.08-.0112-.0136-.0248-.0268-.0364-.0406-.0037-.0036-.0075-.0071-.0114-.0106-.0286-.0258-.0587-.0499-.0898-.0725-.0196-.0142-.0396-.0277-.06-.0407-.0057-.0036-.0292-.0137-.0317-.0195.0012.0026.0037.0024.0054.0045.002.001.0039.0018.0059.0028.0361.0186.0082.0142-.0059-.0028-.0369-.019-.0739-.0378-.1122-.0542-.0466-.02-.0944-.0375-.1428-.0526-.0172-.0054-.0633-.0121.0065.001-.0142-.0026-.0284-.0076-.0424-.011-.024-.0059-.0483-.0114-.0726-.0162-.0473-.0095-.0951-.0159-.1431-.0216l-11.2128,1.0543c-.1116-1.9139-5.7615-2.4252-8.8399-1.535-3.9664-2.1245-8.7645-4.6572-13.5613-7.1687-.0104-.0015-.0205-.0045-.0309-.0058-.0261-.0034-.0523-.0061-.0786-.0082-.0131-.001-.0641-.0017-.0692-.0026-.0468.0012-.0933.0023-.14.0079-.0251.003-.0502.0068-.0752.0114-.0076.0014-.0479.011-.0391.0079-.0104.0031-.0237.0071-.0285.0086-.0175.0056-.0348.0119-.0521.0185-.0105.0126-.0214.0249-.0312.0381-.0078.0104-.016.023-.024.0355.0103-.0162.0125-.01-.0073.0117-.002.0038-.0039.0077-.0058.0115-.0152.0314-.0262.0637-.0378.0964-.0018.0083-.0038.0165-.0054.0247-.0037.019-.0067.0381-.0089.0573-.0021.0173-.0028.0348-.0043.0521-.0003.0046.0001.0093.0002.0126.0017.0424.0067.0847.0146.1264.0012.0059.0024.0117.0037.0176.0031.0095.0062.0189.0092.0285,4.7391,2.5292,9.424,5.0355,13.139,7.0264-.567.309-.9164.7023-.9164,1.1833,0,1.3457,2.7158,2.0498,5.3984,2.0498,2.151,0,4.3195-.4538,5.0959-1.3269l12.22-1.212c.0218-.0168.0434-.0346.0606-.0475Zm-12.7592.613c-.0701.0522-.1205.1245-.1411.2109-.4929.4833-2.1221,1.0125-4.4763,1.0125-2.8374,0-4.6484-.7695-4.6484-1.2998,0-.5293,1.811-1.2988,4.6484-1.2988s4.6479.7695,4.6479,1.2988c0,.0244-.0231.0512-.0306.0765Z"/>
  <path class="cls-8" d="m531.4291,160.8148c-2.8965,0-8.375.4678-8.375,2.2363,0,.0997.0228.194.0562.2856l-15.2773,3.5142c.0012.0178.0021.0356.0051.0535.0002.0012.0004.0023.0007.0035.002.0063.0039.0128.0063.019.0031.0082.0067.0162.0103.0242.0109.0153.022.0305.0339.0452.0072.0062.0142.0124.0217.0182.0098.0076.0201.0145.0302.0214.0226.0114.0452.0228.069.0322.0158.0063.0318.012.048.0173.0015.0005.003.0009.0045.0014.0279.0065.0556.0134.0839.0183.0767.0136.1539.0194.2316.0227.006.0001.0121,0,.0181,0,.0215-.0002.043-.0006.0645-.0013.0425-.0015.085-.004.1274-.0074.1007-.0081.2009-.0213.3007-.0377.0291-.0048.0503.0162.0769.0224l14.4323-3.3549c1.2291,1.1953,5.5624,1.5377,8.0312,1.5377,2.8965,0,8.375-.4668,8.375-2.2354s-5.4785-2.2363-8.375-2.2363Zm0,3.7217c-4.9336,0-7.625-.9814-7.625-1.4854,0-.5049,2.6914-1.4863,7.625-1.4863s7.625.9814,7.625,1.4863c0,.5039-2.6914,1.4854-7.625,1.4854Z"/>
  <path class="cls-8" d="m506.0331,167.6561c.4017-.1323.8192-.2025,1.2168-.3045-.0215-.0299-.0441-.0585-.0677-.0869-.0413-.0494.0258.0185-.0112-.0112-.0132-.0106-.0256-.0222-.0391-.0326-.0129-.01-.0271-.0186-.0399-.0286-.0005-.0004.0005.0002,0-.0001-.0306-.0133-.0602-.0267-.0916-.0386-.002-.0007-.0009-.0005-.0025-.0012-.0015-.0001-.0001.0003-.0021,0-.0151-.0018-.0302-.0063-.0452-.0087-.0309-.0051-.0619-.0076-.093-.0101-.0358-.003-.0341-.0006.0009-.001-.0191.0002-.0381.0002-.0573.0009-.0366.0012-.0731.0037-.1095.0068-.0742.0064-.1482.0158-.2221.025-.0019.0002-.0038.0002-.0057.0005l-61.4028,14.124c.002.0132.0033.0266.0054.0398.0052.0328.0109.0655.0174.098.0015.0079.0033.0156.005.0234.0153.0193.032.0771.0413.1077.002.0028.0042.0055.006.0082.0024.0035-.0018-.0013-.0003.0011.0157.012.0319.0238.0475.0358.0023.0015.0049.0027.007.0038.1608.0787.3291.1431.4982.2055l60.2081-13.996c.022-.0728.0652-.1376.1362-.161Z"/>
  <path class="cls-8" d="m443.4236,182.3398c.0056-.0087.0067-.0098.0107-.0157.0055-.0107.0126-.0243.0146-.0289.006-.0135.0105-.0276.0164-.0412.0005-.0017.001-.0039.0012-.0052.0022-.0148.0035-.0311.006-.0462,0-.0021,0-.0041-.0003-.0061-.0016-.0113-.0036-.0234-.0049-.035-.0065-.0162-.0131-.0322-.0199-.0482-.005-.0067-.0433-.0593-.0576-.0726-.0018-.0016.0013.0009-.0012-.0012-.0071-.0059-.0138-.0122-.0209-.0181-.0165-.0139-.0336-.0271-.051-.0397-.0176-.0128-.0364-.0239-.0541-.0363-.0204-.0107-.0147-.0092-.0043-.0026-.004-.0023-.0081-.0046-.0122-.0067-.0988-.0493-.1989-.0892-.3044-.1217-.0059-.0018-.0043-.0015-.0075-.0026-.0035-.0007-.0024-.0002-.0101-.002-.0137-.0032-.0273-.0069-.0411-.0101-.0064-.0015-.0129-.0028-.0193-.0043l-38.6893,8.8994c-1.2625-1.6234-6.2359-2.4697-11.1642-2.4697-5.1602,0-10.3625.9288-11.3093,2.7051-4.6853-.6621-23.5632-3.2744-43.493-6.0215-.0517.0133-.1032.0302-.1727.0604-.0207.009-.0406.0195-.0613.0286-.0264.0142-.026.0134.0012-.0021-.012.007-.0239.0143-.0356.0219-.0362.0235-.0692.0503-.1023.0778-.0197.0164-.0153.0106-.0118.0063.0163.0486.0458.1085.0556.131.0344.0787.0712.1562.1058.2349.0007.0017.001.0035.0017.0052,21.2765,3.0215,41.2372,5.8625,43.5705,6.1944.2673,2.0599,5.8849,3.139,11.4511,3.139,5.7031,0,11.4775-1.1299,11.4775-3.29,0-.0414-.0161-.0798-.0203-.1204l38.9562-9.0558Zm-50.4135,11.4662c-6.8779,0-10.4766-1.4912-10.4766-2.29,0-.7998,3.5986-2.291,10.4766-2.291s10.4775,1.4912,10.4775,2.291c0,.7988-3.5986,2.29-10.4775,2.29Z"/>
  <path class="cls-8" d="m294.0516,179.2058c.0386-.0273.0741-.0577.1102-.0882.0339-.0286-.0336.0419.0109-.0114.013-.0155.0264-.0305.0386-.0468.0076-.0101.0216-.027.0278-.041.0009-.0029,0-.0037.0014-.0066.0059-.0129.0101-.0266.0156-.0396.0001-.0029-.0004-.0016,0-.0059.0002-.0021.0023-.0148.0039-.0269-.0005-.0089-.0013-.0178-.0023-.0266-.0006-.0053-.0038-.0198-.006-.0337-.0007-.0023-.0017-.0046-.0025-.0069-5.5748-.7599-9.3088-1.2635-10.0952-1.3578.0082-.0459.0228-.0905.0228-.1381,0-1.4082-3.6665-2.0498-7.0728-2.0498s-7.0728.6416-7.0728,2.0498c0,.0744.0156.1455.0355.2157-3.9116,1.1092-16.7799,4.7498-31.2495,8.851.0016.0104.0036.0209.0056.0314.0009.0026.0017.0052.0026.0078.0048.0139.0102.0275.0162.041.0038.0087.0101.018.0146.025.0128.0193.025.0389.0401.0569.0038.0046.0146.0159.0203.0222.0029.0027.0067.0062.0082.0076.0277.0243.0573.0465.0881.0667.0024.0015.0052.0035.0083.0052.0125.0064.0247.0132.0374.0193.0364.0176.074.033.1123.0462.0098.0034.0198.0064.0297.0098.0359.0125-.0156-.0065-.0158-.004-.0002.0018.0534.013.0551.0134.0341.0074.0687.0126.1033.0172,11.1686-3.2126,22.2194-6.3775,30.9319-8.8509.8614,1.0031,3.9347,1.4683,6.8288,1.4683,2.9929,0,6.1846-.4958,6.9157-1.5713.8127.1025,4.4946.6159,9.9769,1.3876.0186-.0119.037-.024.055-.0367Zm-16.9476-.5296c-3.6096,0-5.6995-.6813-6.1989-1.1169-.0129-.0179-.0263-.0345-.0427-.0477-.0437-.0484-.0812-.0959-.0812-.1352,0-.3887,2.1514-1.2998,6.3228-1.2998s6.3228.9111,6.3228,1.2998-2.1514,1.2998-6.3228,1.2998Z"/>
  <path class="cls-8" d="m301.4473,180.2907c.0281-.0048.0557-.0117.0837-.017.0082-.0118.017-.023.0254-.0346-.0089.0106-.0104.0099.0095-.0132.0071-.014.0138-.0282.0198-.0427.0049-.0118.0094-.0237.0135-.0358.0002-.0007.0001-.0002.0004-.0009.005-.0266.0103-.0527.0128-.0797.0021-.0225-.005-.0673.0017.0078-.0013-.0147-.0005-.0297-.0015-.0445-.0012-.0174-.0043-.0345-.0069-.0517-.0005-.0005-.0009-.0011-.0013-.0016-.0104-.0115-.0212-.0226-.0318-.0339-.0012-.0012.0012.0012-.0003-.0002-.0319-.0295-.0662-.056-.0997-.0835-2.0155-.2759-3.9166-.5358-5.6557-.7731-.0328.03-.0658.06-.0984.0903-.0453.042.0349-.0397-.0032.0033-.0127.0144-.0258.0282-.0379.0431-.0073.0091-.014.0186-.0208.0281.0275.0804.0579.1592.0883.2377,1.7534.2471,3.6688.5174,5.699.8042.0015-.0002.0023-.0019.0038-.0021Z"/>
  <path class="cls-8" d="m336.605,184.824c-.0024-.0295-.0089-.0582-.0135-.0872-.0005-.0007-.001-.0013-.0016-.0021-.0001-.0007-.0001.0005-.0002-.0003-.014-.0179-.0264-.0372-.0411-.0545-11.6071-1.5995-23.4066-3.2221-32.893-4.5216-.0294.004-.0587.0081-.0878.0136-.0142.0027-.0284.0057-.0426.0089-.0012.0002-.0024.0005-.0035.0009-.0007.0002.0006-.0002-.0001,0-.0324.0105-.0647.0204-.0961.0336-.0123.0051-.0245.0107-.0364.0166-.0128.0106-.0404.0352-.0577.0447-.0025.0031-.0251.0282-.0234.0331.0183-.0316.0231-.0382.0144-.0198-.0026.0056-.005.0112-.0072.0169-.0034.0084-.0063.0169-.0097.0253-.0007.0016.0001-.0005-.0004.0009-.0019.0092-.0043.0197-.0046.0214-.0031.0168-.004.0338-.0061.0507.0297.0538.0593.1077.0886.1616,9.5138,1.3449,21.373,3.0267,32.9956,4.677.0051-.0037.0104-.0072.0154-.011.0151-.0114.0298-.0233.0443-.0355.0062-.0052.0561-.0527.0309-.027-.0239.0242.0184-.0211.0253-.0294.0112-.0133.0219-.0269.0322-.041.0099-.0136.0181-.0293.0287-.0423-.0275.0337-.0099.0187.0043-.0106.0137-.0281.0234-.0573.0338-.0864.0012-.0046.0021-.007.0036-.0161.0026-.0164.0056-.0327.0074-.0493.0032-.0278-.0027-.0721.0032-.0195-.002-.017-.0011-.0346-.0025-.0518Z"/>
  <path class="cls-8" d="m224.3878,191.1185c.0028-.0114.006-.0244.0074-.0314.0044-.0222.0082-.0444.0112-.0668.0029-.0219.0037-.0439.0065-.0657.0009-.0071.0013-.0062.0019-.0089-.0005-.0039-.001-.0044-.0016-.0143-.0024-.0388-.0183-.0886-.0155-.1266-.0015-.0043.0005.0001-.0033-.0097-.007-.0184-.0131-.0368-.0211-.0548,0-.0001-.0001-.0002-.0002-.0003-.0336-.0146-.0674-.0287-.1021-.0404-.0176-.006-.0354-.0112-.053-.0168-.0092-.0022-.0182-.0046-.0273-.0069-.061-.0148-.1236-.0221-.1857-.0315-17.4081,4.9418-33.618,9.5605-36.4772,10.4359-1.1252-1.3591-4.4419-2.0643-7.726-2.0643-3.6415,0-7.313.8696-8.0024,2.5339l-32.0863-12.7297c-.0442.0058-.0884.0112-.1321.0199-.0294.0059-.0585.0125-.0876.0196.0602-.0146-.002.0014-.0267.0092-.0519.0164-.1029.0356-.1522.0587-.0209.0098-.0411.0208-.0616.0314.0743-.0382-.0006.0023-.0165.0134-.0192.0135-.0367.029-.0554.0432-.0521.0394.0266-.04-.0115.0111-.0103.0137-.0214.0288-.0328.0424.0004.0024.0008.0012.0013.0063.0019.0191.002.0383.0039.0574.0027.0261.0092.0518.0118.0777.0006.0059,0,.0045,0,.0075.0012.0028.001.0013.0028.0062.0035.0098.0076.0192.0109.0289l32.5311,13.0621c.2554,1.9094,4.1968,2.9097,8.1033,2.9097,4.0391,0,8.1279-1.0664,8.1279-3.1045,0-.128-.0164-.2521-.0476-.3724,2.9515-.9081,18.5145-5.4355,36.5058-10.6295Zm-44.5861,13.1064c-4.3511,0-7.1279-1.2461-7.1279-2.1045s2.7769-2.1045,7.1279-2.1045,7.1279,1.2461,7.1279,2.1045-2.7769,2.1045-7.1279,2.1045Z"/>
  <path class="cls-8" d="m237.6577,187.1378c-.002-.0154-.0046-.0314-.0057-.0468-.004-.0558.0049.0079-.0014-.0089-.0057-.0151-.011-.0302-.0168-.0453-.004-.0103-.0085-.0191-.0114-.025-.0082-.0131-.0166-.0262-.0258-.0386-.0126-.0172-.0265-.0333-.0404-.0496-.0302-.0352.0128.0102-.0093-.0093-.0328-.0291-.0668-.0562-.1031-.0807-.0005-.0003-.0014-.0005-.0019-.0008-3.9943,1.1323-8.0901,2.294-12.1393,3.4432-.0057.0281-.0128.0563-.0159.0842-.0009.0078-.0013.0156-.002.0233.0026.0167-.0002.0283-.0005.0161-.0003.0053.0002.0112.0004.0138.0017.0267.0068.0523.0113.0784.0007.0025.0016.005.0025.0074.0049.0137.0104.0273.0164.0406.0117.0259.0388.0522-.0081-.0101.0086.0114.0153.0247.0236.0364.0095.0133.0195.0261.0302.0385.0195.014.0388.0344.0573.0475.0047.0034.0095.0065.0143.0096.02.0065.0273.0155.0162.0098.0035.0023.0079.0043.0103.0054.0297.0147.0604.0274.0917.0383.0076.0026.0153.0051.0229.0076.0123.0029.0245.0062.0364.0087.0251.0053.0506.0085.076.0121,3.9094-1.1282,7.9139-2.2825,11.9249-3.4368.0025-.0045-.0003.0013.0006-.0002.0001,0,.0002,0,.0003-.0001.0065-.0129.0129-.0257.0186-.0389.0029-.0067.0255-.0677.0153-.0356-.0103.0327.0044-.0193.0056-.0264.0031-.0191.0054-.0378.0075-.0571.0003-.0031.0004-.0016.0007-.0039-.0005-.0029-.0009-.0013-.0016-.007Z"/>
  <path class="cls-8" d="m138.0123,188.6968c.015-.0067.0295-.014.0442-.0211.0189-.0123.0383-.0238.0566-.0372.0224-.0164.0432-.0343.0642-.0524.0058-.0062.0115-.0124.017-.0187.0181-.021.035-.043.0508-.0657.0055-.0079.0106-.0161.0159-.0241.0007-.0013.001-.0026.0016-.0039-.0172-.0408-.0327-.0824-.0532-.122-.0034-.0055-.0067-.011-.0101-.0165-.0109-.0174-.0221-.0345-.0336-.0515-.0244-.0359-.0501-.071-.0769-.1052-.001-.0013-.0023-.0024-.0034-.0038l-8.1116-3.2181c-.0024.0005-.0049.001-.0074.0015-.0182.0062-.0371.0112-.0552.018-.0204.0076-.0404.0161-.0601.0256-.008.0038-.0095.0054-.0143.0084-.0248.0177-.0499.0345-.0735.0543-.0451.0377.0115-.019-.0055.0054-.0081.0117-.0188.022-.0275.0333-.0078.0101-.0165.0275-.0262.0374-.0009.0015-.0018.0032-.0025.0047-.0148.0323-.0255.0671-.0405.0991-.0004.0018-.001.0037-.0014.0056-.0035.0175-.0073.0349-.0101.0525-.0052.0324-.0065.0649-.0095.0974-.0006.0052-.0014.0143-.001.0278l8.2501,3.3127c.0412-.0132.0829-.0251.1229-.0432Z"/>
  <path class="cls-8" d="m128.2639,184.8321c.0031.0001.0148.0004.0242.0006.0094-.0001.0211-.0003.0224-.0003.0284-.0008.0568-.0024.0851-.0051.0261-.0026.0522-.006.0781-.0106.004-.0007.0155-.0029.0268-.0054.0338-.0122.0668-.0257.1002-.0386.0007-.0005-.0004.0002.0002-.0002.0136-.0098.0267-.0209.0405-.0303.0015-.001-.0009.0011.0003.0003.0081-.0107.0165-.0217.025-.0321.005-.0123.0104-.0251.0161-.0369.0004-.0007.0002,0,.0005-.0007.0021-.0134.005-.0266.0067-.0401.0013-.0101.0015-.0334.0024-.028-.0004-.0071-.001-.0158-.0012-.0184-.0025-.0334-.0093-.0656-.0152-.0983-.0008-.0038-.0021-.0076-.0028-.0095-.0051-.0147-.0101-.0294-.0154-.0441l-11.3659-4.5092c.2732-.1971.4346-.426.4346-.6884,0-2.0391-9.4302-2.0391-9.4302,0,0,.0036.0029.0066.003.0102l-37.1197,3.4902c-.0264.0212-.0558.0314-.0814.0544-.0087.0078-.0163.0154-.0207.0197-.0086.0091-.0173.0181-.0256.0276-.022.0248-.0428.0507-.0619.0778-.0113.016-.0402.0762-.0076.0081-.006.0126-.0132.0247-.019.0374-.0125.027-.0233.1014-.0133.0236-.0024.0191-.0055.0411-.0098.0608.0011.0083.0021.0174.0024.0245,0,.0016-.0003.0005-.0002.002.0023.0057.0097.0261.017.0428.0018.0023-.0013-.0021.0013.0012.0074.0096.0139.02.0214.0297.0129.0168.0283.0315.0413.048-.0516-.0651.0033.0015.0233.0179.0183.0151.0374.0295.0568.0432.0162.0115.033.0222.0496.0331.0013.0009.0071.0043.0118.0071.0057.0031.0124.0069.0139.0077.0145.0074.0287.0151.0433.0223.0532.0265.108.0495.1635.0708l37.1306-3.6826c.6169.7044,2.5554,1.0754,4.4951,1.0754,1.3903,0,2.7789-.1922,3.688-.5579l11.387,4.5722c.0594.0084.1176.0255.1777.0283Zm-15.2527-4.5427c-2.5728,0-4.2148-.623-4.2148-1.0527s1.6421-1.0527,4.2148-1.0527,4.2153.623,4.2153,1.0527-1.6421,1.0527-4.2153,1.0527Z"/>
  <path class="cls-3" d="m9.3837,160.3881c-.1782,0-.3447-.0947-.4341-.252l-1.4888-2.6045c-.1372-.2393-.0537-.5449.186-.6816.2397-.1377.5459-.0537.6821.1855l.9429,1.6494,2.8022-8.0771c.0898-.2598.374-.3994.6362-.3086.2607.0908.3989.376.3081.6367l-3.1626,9.1162c-.064.1855-.2305.3154-.4258.334-.0156.001-.0312.002-.0464.002Z"/>
  <path class="cls-3" d="m51.9882,180.4808c-.1558,0-.3047-.0732-.3999-.2002l-2.791-3.7207c-.166-.2207-.1211-.5342.1001-.7002.2202-.166.5337-.1201.6997.1006l2.1953,2.9258,4.3677-14.6758c.0781-.2637.3569-.4121.6216-.3369.2646.0791.4155.3574.3364.6221l-4.6509,15.6279c-.0537.1807-.2051.3164-.3911.3496-.0293.0049-.0586.0078-.0879.0078Z"/>
  <path class="cls-3" d="m113.1972,176.2015c-.1777,0-.3433-.0947-.4326-.249l-2.0464-3.5342c-.1387-.2393-.0571-.5449.1821-.6836.2383-.1396.5439-.0576.6831.1816l1.5747,2.7197,5.729-11.8037c.1201-.248.4199-.3525.668-.2314.2485.1211.3521.4199.2314.6689l-6.1396,12.6504c-.0806.166-.2466.2744-.4316.2812h-.0181Z"/>
  <path class="cls-3" d="m178.3134,197.4115c-.1753,0-.3394-.0918-.4302-.2451l-3.5347-5.9541c-.1406-.2373-.0625-.5439.1748-.6846.2368-.1426.5435-.0645.6855.1748l2.9844,5.0273,6.3452-18.3311c.0908-.2607.3735-.3984.6362-.3096.2607.0908.3994.375.3091.6357l-6.6978,19.3496c-.064.1846-.2285.3145-.4219.334-.0171.002-.0342.0029-.0508.0029Z"/>
  <g>
    <polygon class="cls-4" points="83.3902 102.2366 79.8535 103.3394 76.3401 107.6335 79.5404 106.8179 83.3902 102.2366"/>
    <polygon class="cls-4" points="172.9156 79.5878 144.0105 94.7168 129.9414 105.0043 133.1446 100.4041 127.4079 103.4067 121.684 111.9424 137.5652 104.4066 172.9156 79.5878"/>
    <polygon class="cls-4" points="117.1977 92.2743 85.2525 105.3624 105.3273 100.2468 115.5613 96.1816 117.1977 92.2743"/>
  </g>
  <path class="cls-3" d="m41.1415,60.3391c0,1.4761-.4788,3.3734-2.9163,3.3734-2.3722,0-2.8903-1.7851-2.8903-3.2612s1.2583-2.6727,2.8106-2.6727,2.996,1.0845,2.996,2.5605Z"/>
  <path class="cls-5" d="m51.7839,58.9898c.1523,3.134-2.2147,3.7433-3.9828,3.7433s-2.9599-1.9965-2.9599-3.6345,1.6923-3.2645,3.4604-3.2645,3.4027,1.5196,3.4822,3.1557Z"/>
  <path class="cls-7" d="m35.5853,124.52c-.0019-.0238-.005-.0475-.009-.071-.0011-.0064-.0062-.0262-.0096-.0399-.0119-.0386-.0328-.0735-.0474-.1111l-2.9701-2.032c-.1416-.0967-.3223-.1133-.478-.0469-.1572.0674-.2695.209-.2974.3779-.0034.0205-.3569,2.0391-2.0259,3.207-1.3125.9189-2.7446,1.1406-3.3389,1.1953-.0962-.3984-.1436-1.6797,1.4717-5.0342.2901-.6027.5664-1.1316.829-1.6087.0112-.0875.0186-.1737.0181-.2498-.0005-.0695-.0053-.1393-.0149-.2082-.0047-.0336-.0107-.067-.0177-.1002-.0011-.0053-.0017-.0073-.0026-.0109-.0037-.013-.0075-.0262-.012-.0389-.0073-.0211-.0173-.0408-.0258-.0612-.0619-.0276-.1379-.0584-.1728-.067-.034-.0084-.0687-.0136-.1034-.0178-.0165-.002-.0336-.0035-.0502-.0035.0268.0001.0043.0012-.0093.0026-.0297.0029-.0536.0146-.0803.0213-.126.0571-.2452.1281-.36.2123-.0132.0106-.0248.0233-.0379.034-.2742.4968-.5587,1.0337-.8615,1.6625-2.353,4.8877-1.5732,6.1045-1.1289,6.4004.082.0547.1787.084.2773.084.0898,0,2.2266-.0156,4.1934-1.3936,1.3413-.9385,1.9712-2.2998,2.2471-3.1318l1.9874,1.36c.1577.0164.3089.0273.4659.0176.0692-.0043.1383-.0118.2066-.024.0074-.0013.0571-.0128.0638-.0136.0217-.0062.0435-.0126.0647-.0203.0248-.009.0486-.02.073-.03.0656-.0267-.0085.013.0219-.0105.0177-.0137.037-.0268.0554-.0398.0544-.0385-.0086.0202.0125-.0098.0113-.016.0251-.0343.0381-.0488.0248-.0276-.0175.0491.0049-.0112.0039-.0104.0078-.0209.0117-.0313.0025-.0085.007-.0242.0078-.0329.0015-.0186.0035-.0377.0057-.0562-.0084.0701-.0009-.0009-.0024-.0198Z"/>
  <path class="cls-7" d="m198.7331,157.5801c.0328.0041.0657.0076.0988.0101.019.0015.0583.0096.0797.0042h.0081c.0108-.0001.0216-.0004.0323-.0007.0236-.0008.0471-.0021.0706-.0041.0443-.0037.0884-.0096.1321-.0182.0076-.0015.0151-.0032.0226-.0048.0167-.0056.0339-.0101.0506-.0161.0331-.0118.064-.0273.0957-.0421.0041-.0026.0082-.0052.0121-.0079.0145-.0099.0287-.0204.0424-.0314.0067-.0055.0149-.0126.0227-.0201,0-.0009-.0002-.0016-.0003-.0024-.0094.0078-.0101.0074,0-.0005-.0044-.0408-.007-.0817-.0151-.1223-.003-.015-.0257-.1046-.0114-.0535-.0107-.0384-.0222-.0765-.0348-.1144-.0607-.1816-.1432-.355-.2342-.5231-.0247-.0458-.0222-.0966-.0092-.1455-4.2921-7.3324-9.4686-16.1525-13.9561-23.7924-.1774.0054-.3504.0304-.5156.1094-.0065.0031-.0751.0396-.0433.0214.0353-.0201-.0213.0137-.0228.0147-.0274.019-.0549.0374-.081.0582-.0018.0014-.0071.0062-.0103.0088-.0019.0046-.0042.0091-.006.0137-.0124.0317-.0233.064-.0331.0967.0153-.0508-.0054.0264-.0082.0398-.0118.0565-.0198.1137-.0244.1711-.0015.0189-.0024.0377-.0031.0566-.0001.0051-.0003.0107-.0002.0134.0012.0349.0021.0696.005.1044.0001.0013.0004.0027.0005.004,4.8167,8.2007,9.9795,16.9986,14.1633,24.1434.0572.0116.1146.0223.1726.0296Z"/>
  <path class="cls-7" d="m220.3056,171.1957c-.7295-1.0928-3.4663-2.4189-7.2637-1.9434-2.249.2812-3.8623,1.3223-4.8267,1.9443-.1343.0869-.2876.1865-.4126.2607-.7689-1.3783-3.7342-6.47-7.5933-13.0668-.0312-.0148-.0615-.0314-.0943-.043-.0201-.0071-.0803-.0156-.0066-.004-.0134-.0021-.0269-.0069-.0401-.0098-.0029-.0007-.006-.001-.0089-.0016-.0814.0226-.1638.046-.2277.0854-.1207.0745-.2153.1721-.2974.2789-.0046.0135-.0099.0294-.0118.0387-.0056.0271-.0101.0544-.0137.0817-.0031.0234-.0054.047-.0071.0706-.001.0131-.0014.0263-.0022.0394.0017.0552.0042.1099.011.1648.004.0314.0089.0627.0149.0939.0009.0044.0043.0158.0072.0255,4.2956,7.3388,7.3506,12.582,7.5156,12.928.062.1855.2002.3291.3784.3916.3652.126.7095-.0928,1.3311-.4932.8921-.5762,2.3857-1.54,4.4082-1.793,2.6323-.3258,4.6299.2936,5.647.9352-1.3013-.049-3.2198.3304-5.1461,1.0794-3.0381,1.1816-6.6455,3.7656-8.0425,5.7598-.3384.4839-.5563.9124-.7028,1.2939l-2.4961-4.777c-.0338-.0209-.0718-.0403-.106-.061-.1735.0115-.3441.0345-.4991.1042-.1157.0519-.2148.1454-.2795.2478-.0061.0163-.0129.0323-.0178.049.0121-.0414-.0097.0486-.0113.0573-.0006.0035-.0009.007-.0015.0105l3.3363,6.3849c.0006.0012.002.0016.0027.0029.0033.0059.0096.0197.012.0235.0292.0485.074.0771.1149.111.0232.0197.0387.0474.0648.0624.0095.0052.021.0039.0307.0085.0683.0337.1409.0603.2183.0603.0493,0,.0991-.0068.1479-.0225.1777-.0547,4.3892-1.375,7.9312-3.5889,4.6118-2.8818,6.2598-4.1826,7.0527-5.5703.0058-.0101.0108-.0272.0167-.0385.0047-.0102.0091-.0198.0131-.0304.1098-.2272.2019-.629-.146-1.1509Zm-7.4668,5.9424c-2.7207,1.7009-5.9233,2.8785-7.16,3.3022.0131-.3667.1542-.9741.765-1.8471,1.2788-1.8262,4.7524-4.2998,7.5854-5.4023,2.7325-1.0613,4.6948-1.1163,5.3191-.9543-.7912,1.12-2.497,2.3942-6.5095,4.9016Z"/>
  <path class="cls-7" d="m200.617,173.0202c.0392.0151-.0241-.0032.0302.0087.0236.0051.0471.0101.0709.0139.0266.0042.0533.0068.0801.0092.0082.0007.0162.0006.0234.0005.0422-.002.084-.0042.126-.0111.017-.0027.0917-.0222.0283-.0037.0182-.0053.0365-.0106.0544-.0167.0422-.0144.0811-.0342.1219-.0518.0035-.0015.0009-.0004.0031-.0013.007-.0042.014-.0083.0208-.0129.0158-.0106.0316-.0211.047-.0323.0362-.0265.07-.0557.1026-.0864-.0403.0381.0085-.0108.0206-.0248.0128-.0149.0251-.0302.037-.0458.014-.0183.0274-.0372.0402-.0564.0101-.0153.0372-.0651.0145-.0219.0038-.0071.0067-.0147.0103-.0219l-13.1216-25.1122c-.0867-.0992-.1769-.1935-.274-.282-.0181-.0046-.0363-.009-.0546-.0126-.0452-.0087-.0902-.0121-.136-.0154.0552.004.0012.0012-.0226.0032-.0199.0016-.0397.0042-.0594.0074-.0139.0023-.0266.0055-.0318.0068-.0111.0034-.0223.0067-.0333.0107-.0237.0086-.0463.019-.0692.0294-.0036.0016-.0071.0035-.0107.0054-.0295.0245-.0641.0435-.0936.0687-.008.0068-.0157.0142-.0235.0212-.0116.0138-.0247.0267-.0361.0405-.03.0361-.0562.0744-.0817.1137-.0193.0298.0263-.0524-.0019.0035-.0045.0089-.0093.0175-.0139.0264-.0107.021-.0209.0422-.0304.0638-.0173.0391-.032.0794-.0457.1199l13.1663,25.1974c.0463.023.0944.0404.1425.059Z"/>
  <path class="cls-7" d="m205.5129,106.4424c-.1583-.1353-.3248-.2599-.5081-.3519-.0544-.0273-.1047-.0344-.1555-.0533-.0685.002-.1398.0013-.1944.0163-.0385.0364-.0743.0726-.1108.1112-.4149,3.4849-.6672,5.6088-.6833,5.7537.0049.0957.0908,2.3486-2.9277,2.8242-.4775.0762-1.5464.1973-3.0259.3652-1.103.1251-2.4848.282-4.0879.4735v-4.6239c0-.1377-.1118-.25-.25-.25s-.25.1123-.25.25v4.6841c-2.5472.307-5.6176.6992-9.0345,1.1908l-.3263-4.4042c-.0103-.1377-.1284-.2471-.2681-.2305-.1377.0098-.2407.1299-.231.2676l.3289,4.439c-2.3829.3463-4.922.7399-7.5643,1.1868-.0175.0015-.0341.0052-.0515.0086-.7522.1273-1.5098.2576-2.2766.3936l-.9233-3.3239c-.0366-.1328-.1714-.209-.3076-.1738-.1328.0371-.2109.1748-.1738.3086l.9107,3.2784c-.1382.0248-.2775.0502-.4161.0753-.0999-.0141-.2036-.0072-.2993.0427-.0073.0038-.0113.0107-.0182.0148-2.4152.4392-4.8856.9218-7.3739,1.451l-.8774-3.6845c-.0322-.1348-.1665-.2207-.3013-.1855-.1343.0322-.2173.167-.1851.3008l.8749,3.6741c-3.4647.7449-6.9514,1.5803-10.3517,2.5161l-.8245-4.6179c-.0244-.1357-.1582-.2285-.29-.2021-.1357.0244-.2266.1543-.2021.29l.8323,4.6619c-.3734.1041-.7418.2128-1.1118.3201-.0708.2161-11.6971,40.8407-12.5834,42.8676-.1826.417-.4355.667-.7734.7646-.7397.2168-1.7783-.3311-2.1611-.5879l-24.8374-13.2559c-.146-.0771-.3218-.0781-.4688-.001-.0229.0127-2.3003,1.2041-5.3262,1.0586-2.0371-.0879-2.9985-.9482-3.3867-1.4434.894-.5723,3.2246-1.9697,6.1841-3.0273,3.2837-1.1729,5.9961-1.6504,6.6992-1.7627l19.9355,12.5986c.127.0801.2817.0977.4248.0518.1421-.0469.2554-.1553.3091-.2959,0,0,13.7473-35.942,13.9052-36.3184-2.1176.642-4.04,1.2437-6.0245,1.9716l-1.5613-3.4696c-.0571-.127-.2056-.1826-.3306-.125-.126.0566-.1821.2041-.1255.3301l1.5464,3.4363c-.5696.2123-1.1335.4278-1.6885.6476-2.2881.9064-4.5389,1.7382-6.7404,2.5082l-1.5887-3.8138c-.0532-.1289-.2012-.1885-.3271-.1348-.1274.0527-.1875.1992-.1348.3262l1.5778,3.7874c-1.6805.5826-3.3099,1.1105-4.9153,1.6162-.0473.0652-.0952.1299-.1395.1973-.0039.006-.0415.0698-.0218.0343.0195-.0352-.0115.0231-.0143.0296-.0062.0145-.0119.0294-.0183.0437-.0004.0046-.0004.0035-.0007.0068.0004.0015.0006.0091.0007.0219.0004.001.0007.0021.001.0031.0071.006.0143.0319.0175.0401.0135.0356-.034-.0454.0076.0135.0109.0154.0209.0314.0317.0468.03.0425.0626.0833.0955.1236.0583.0714.1202.1397.1802.2097.1171.0486.2349.0966.3578.1268,3.8187-1.2101,7.8464-2.6118,11.9992-4.2568,1.9706-.7806,4.0443-1.5108,6.1805-2.1985l-12.9852,33.8694-19.5776-12.373c-.0986-.0625-.2168-.0879-.3345-.0723-.069.0095-.9963.14-2.4486.4777l-1.3716-3.0073c-.0553-.0121-.1107-.0234-.167-.0295-.0276-.003-.0551-.0051-.0828-.0068-.0139-.0009-.0111-.0007-.0142-.001-.0124,0-.0249,0-.0373.0004-.0641.0023-.1278.0079-.191.019-.0254.0044-.0507.0095-.0757.0155.0533-.0129-.0242.0082-.0396.0135-.0147.005-.0283.0128-.0427.0184-.0229.0259-.0461.0517-.0664.0798-.0137.019-.0268.0386-.0392.0585.0201-.0322-.0099.0179-.0151.0282-.0487.0961-.0793.1851-.0958.2645-.0029.0141-.0007.0279-.0031.0419l1.2535,2.7483c-.816.2112-1.7409.4772-2.7411.8092l-3.552-10.4775c.5313-.0913,1.1125-.1947,1.7416-.3105l2.3599,5.174c.0128.0091.023.0214.0359.0303.0336.023.0682.0444.1025.0663.0488.0312-.0339-.0178.0118.0071.0165.009.0329.0182.0496.027.067.0352.1362.0667.2073.0925.0153.0056.0306.0109.046.0159.0293.0095.0478-.0015-.0014.0006.0217-.0009.0512.013.0733.0175.0504.0103.1.0138.1509.019.002-.0002.0008-.0002.0032-.0004.0085-.0006.0171-.0007.0256-.0013.0248-.0017.0497-.0046.0743-.0088.0043-.0007.0087-.0016.0131-.0025.0234-.0137.0329-.0106.0157-.0047.0117-.0033.023-.0072.0321-.0107.0179-.007.0365-.0173.0549-.0256.0058-.0037.0115-.0076.0172-.0116.0141-.0101.0273-.0215.0407-.0322-.0036.0049-.0043.003-.009.0114.005-.0089.0168-.0176.0236-.0253.0154-.0176.0298-.0361.0433-.0553.0029-.0042.0057-.0085.0085-.0129.0011-.0206.0468-.101.0535-.1203.0021-.0062.0043-.0126.0062-.0189,0-.0004.0001-.0006.0002-.001l-2.4266-5.3199c4.6297-.8834,11.3916-2.3824,19.2437-4.7565.1793-.1042.3541-.2157.5171-.3443.0668-.0527.1292-.113.1895-.1748.0041-.0258.0074-.0516.0098-.0776.0007-.0079.0036-.084.0036-.0551,0,.0294-.0026-.0452-.0032-.0527-.0019-.0242-.0048-.0483-.0087-.0723-.0021-.0135-.0195-.0873-.0026-.025-.0062-.0229-.0134-.0454-.0215-.0676-.0081-.0222-.017-.0441-.0269-.0656-.006-.0129-.0511-.0854-.0151-.0317-.022-.0328-.0455-.0637-.0695-.0945-.0058-.0035-.0114-.0076-.0172-.0112-.0555-.0338-.1082-.0717-.1636-.1053-.747.2289-1.5103.4714-2.2375.6846l-1.1394-3.581c-.042-.1309-.1841-.2041-.314-.1621-.1318.042-.2046.1826-.1626.3145l1.1356,3.569c-3.231.9383-6.2494,1.7247-8.976,2.3765l-.9852-3.1202c-.041-.1309-.1812-.2031-.3135-.1631-.1318.041-.2046.1816-.1631.3135l.9741,3.0851c-3.1814.7517-5.9534,1.3216-8.1757,1.7379-.0457-.0003-.0905.0124-.1359.0251-.1229.0229-.2408.0445-.3603.0665v-3.6871c0-.1377-.1118-.25-.25-.25s-.25.1123-.25.25v3.7788c-3.1003.5599-4.9099.7867-4.972.7943l-1.652-.9178c-.1021-.0557-.2217-.0762-.3335-.0537l-2.4876.4598.639-3.8348c.0229-.1357-.0693-.2646-.2056-.2881-.1348-.0195-.2646.0703-.2876.2061l-.6688,4.0135-.5134.0949-15.6587-14.1719,13.5288-17.3555c.1694-.2178.1309-.5322-.0869-.7021-.2188-.1699-.5327-.1309-.7021.0869l-13.814,17.7217c-.1606.207-.1353.5029.0591.6787l16.186,14.6504c.1157.1045.2744.1494.4263.1201l3.5903-.6641,1.7754.9863-.6475.6475c-.0981.0977-.1509.2324-.146.3711s.0669.2686.1714.3594l2.8472,2.4766-1.0718,1.3398-.729-.5469c-.1924-.1426-.4595-.1318-.6377.0322l-1.394,1.2773-.7935-.4961c-.1968-.124-.4531-.0947-.6187.0703l-1.0356,1.0352c-1.2156-1.2596-5.1777-5.363-9.2716-9.5734-.0468-.1694-.175-.2951-.3345-.3441-4.802-4.9368-9.6877-9.9185-10.4554-10.5464-1.0825-.8857-.5874-1.6738-.499-1.7949l15.9072-18.1396c.1821-.208.1611-.5244-.0464-.7061-.2065-.1816-.5225-.1611-.7056.0459l-15.9258,18.1631c-.4414.5674-.8765,1.9678.6362,3.2051.6973.5709,9.6258,9.7498,9.6036,9.748.0934.0995,1.3945,1.3672,1.5601,1.5376-.4874,1.5758-2.3756,7.6831-2.861,9.3003-.3022,1.0068-1.0029,1.3506-1.0278,1.3623-.0469.0205-.0898.0488-.1284.083l-13.7676,12.2783c-.106.0947-.167.2305-.167.373v2.6055c0,.2051.1387.3945.3291.4697.0093.0039.9399.3926,1.7505,2.5.6143,1.5967.4458,2.8164.3027,3.376-.4707-.0703-1.4097-.2725-2.8062-.8545-2.1538-.8975-3.4336-1.9062-3.6001-4.4082-.1602-2.3936,1.1431-6.3223,1.4121-7.1025l14.9507-11.4443c.0732-.0566.1294-.1309.1626-.2168,0,0,3.782-9.6319,3.766-9.6686-1.4235-.2064-4.2288-1.0315-7.1839-2.4155l1.6782-2.8524c.0703-.1191.0303-.2725-.0884-.3428-.1182-.0693-.272-.0303-.3423.0889l-1.7021,2.8931c-.454-.2202-.9208-.4548-1.4092-.7153-1.9255-1.027-3.524-2.2366-5.049-3.6285l2.4283-2.9135c.0884-.1064.0742-.2637-.0317-.3525-.105-.0879-.2632-.0742-.3521.0322l-2.4083,2.8894c-1.3569-1.2733-2.6728-2.6862-4.1249-4.2566-.1144-.1238-.2339-.2523-.3499-.3776l1.863-2.0179c.0938-.1016.0874-.2598-.0142-.3535-.1006-.0938-.2588-.0859-.353.0137l-1.8369,1.9896c-1.4688-1.5841-3.0762-3.2836-4.9883-5.1004l2.1743-2.5093c.0903-.1045.0791-.2627-.0254-.3525-.104-.0908-.2622-.0791-.3525.0244l-2.1618,2.4948c-1.0914-1.0244-2.2707-2.0809-3.5921-3.1784-.4195-.3484-.8412-.6713-1.2634-.9829l2.2-3.0464c.0811-.1123.0557-.2686-.0562-.3496-.1118-.0791-.2681-.0547-.3491.0566l-2.1982,3.0439c-2.0281-1.4405-4.0685-2.4742-6.0173-3.2131l1.3928-3.3083c.0537-.127-.0063-.2734-.1333-.3271-.1274-.0557-.2739.0068-.3276.1338l-1.4006,3.3268c-1.1854-.4243-2.3311-.7399-3.4154-.9732-.1051-.106-.2506-.1696-.4111-.1486-.0419.0052-.0776.024-.1152.0386-1.4223-.2769-2.7211-.4111-3.8453-.466l.7306-2.9222c.0332-.1338-.0483-.2695-.1821-.3027-.1357-.0391-.27.0479-.3032.1816l-.7441,2.9766c-.0042.0166.0078.0305.0071.047-2.2547-.0676-3.6812.1828-3.7195.1903-.1304.0244-.2461.0996-.3208.21-.0747.1094-.103.2441-.0781.375l2.7473,14.3789c.0024.0168.0052.0327.0094.0491l4.7863,25.0515c.0522.2705.3174.4492.5845.3975.0273-.0049,2.6675-.4971,4.4683-.1602.5186.0974.9512.2436,1.3456.4023-.8964.0748-2.0792.3246-3.6601.8799-2.2644.795-3.7312,1.9728-4.3635,2.8492l-7.1795-43.8619c-.0396-.2412-.2485-.4189-.4937-.4189-.048,0-.8254.0062-2.7103.2703l.8754-3.3269c.0352-.1338-.0444-.2705-.1782-.3057-.1313-.0312-.27.0459-.3052.1787l-.9293,3.5318c-.9489.1422-2.1282.3409-3.5883.6235-1.0583.2052-2.0159.41-2.905.6064.3966-1.6449.8621-3.5779,1.3705-5.6961l2.4114-.2413c.1372-.0137.2378-.1367.2236-.2734-.0137-.1387-.1426-.2363-.2734-.2246l-2.238.224c.4004-1.6688.8235-3.4354,1.2571-5.2513l2.9178-.6191c.1353-.0283.2217-.1611.1929-.2959-.0283-.1357-.1636-.2227-.2964-.1924l-2.686.57c.403-1.6882.8125-3.4085,1.2188-5.1213l2.1182-.353c.1362-.0234.2285-.1523.2056-.2881s-.1553-.2236-.2876-.2061l-1.9107.3185c.1292-.5448.2577-1.0881.3855-1.6285l5.4261-1.021c.2715-.0508.4502-.3125.3989-.584-.0508-.2715-.313-.4473-.5835-.3984l-14.0928,2.6514c-.0962.0176-.1851.0635-.2554.1318l-16.5508,15.998-.8062-.1787-.1328-.186.3701-.1685c.1274-.0576.2246-.167.2681-.2998s.0293-.2783-.0396-.4004l-.8374-1.4883c-.1045-.1855-.3149-.2832-.5225-.2471l-1.5815.2793c-.272.0479-.4536.3076-.4053.5791.0474.2715.3052.457.5791.4053l1.2324-.2178.397.7051-.1188.0541c-.0877-.0392-.1849-.0558-.2841-.0385l-1.3599.2266-1.4316-2.0918.498-.6641.772-.1104c.1807-.0264.333-.1484.3975-.3193l.2969-.792h.7695c.2046,0,.3882-.124.4644-.3145l.4321-1.0811h1.0991l1.1055,1.3516c.0869.1064.2129.1719.3491.1826.1328.0068.2705-.0361.3726-.127.1255-.1133,12.5645-11.3086,13.5259-12.1318.7783-.667,1.5337-.585,1.5576-.582.0459.0059,13.9492-1.8135,13.9492-1.8135.2739-.0361.4668-.2871.4307-.5615-.0356-.2734-.2861-.4697-.5605-.4307l-4.397.5776c.2217-.9434.4379-1.8661.6476-2.7644l2.6528-.5134c.1357-.0264.2241-.1572.1982-.293-.0269-.1357-.1616-.2324-.293-.1973l-2.4339.471c.3801-1.6313.7343-3.1637,1.0511-4.5515l2.0205-.2633c.1372-.0176.2334-.1436.2158-.2803-.0181-.1367-.1455-.2285-.2803-.2158l-1.8375.2394c.4141-1.8204.7553-3.3579.9935-4.4899l2.946-.2759c.1372-.0127.2383-.1348.2256-.2725s-.1377-.251-.2725-.2256l-2.7931.2616c.1905-.9319.2892-1.5025.2633-1.58-.0439-.1318-.1938-.2256-.3213-.1836-.1313.0439-.207.1602-.1631.291.0013.1253-.0997.6622-.2809,1.5195l-2.6585.249c-.1372.0127-.2383.1348-.2256.2725.0122.1299.1211.2266.2485.2266.0078,0,.0161,0,.0239-.001l2.5018-.2343c-.2445,1.132-.5933,2.6805-1.0133,4.511l-1.9163.2497c-.1372.0176-.2334.1436-.2158.2803.0166.126.124.2178.2476.2178.0107,0,.022-.001.0327-.002l1.7325-.2258c-.3216,1.3973-.6819,2.9477-1.0655,4.5876l-2.793.5405c-.1357.0264-.2241.1572-.1982.293.0234.1191.1279.2021.2451.2021.0161,0,.0317-.001.0479-.0049l2.5737-.4981c-.2079.8875-.4223,1.8004-.6411,2.73l-6.2771.8246,1.1375-4.7349c-.0291-.0247-.0612-.0456-.09-.0706-.006-.0052-.0121-.0105-.0181-.0157-.3233.0648-.642.1587-.9601.2526l-1.1309,4.7082-1.4888.1956c-.2861-.0225-1.2891-.0186-2.2681.8203-.8853.7578-10.9902,9.8496-13.1548,11.7969l-.9238-1.1289c-.0952-.1162-.2373-.1836-.3872-.1836h-1.6743c-.2046,0-.3882.124-.4644.3145l-.4321,1.0811h-.7778c-.2085,0-.395.1289-.4683.3242l-.3145.8389-.6836.0977c-.1313.0186-.2495.0889-.3291.1953l-.8369,1.1162c-.1284.1709-.1338.4053-.0127.582l1.814,2.6514c.1099.1602.3042.2432.4946.2109l1.2816-.2134c.047.0391.0967.0623.1539.082l.4479.6265c.0718.0996.1777.1699.2983.1973l1.2559.2793c.0356.0078.0723.0117.1084.0117.1284,0,.2534-.0498.3477-.1406l16.6362-16.0811.5189-.0977-1.371,5.7074c.0709.1197.1475.2359.216.3572.009.0159.0417.0728.0154.0273.0098.0171.0196.0342.0296.0512.0177.0298.0353.0597.0541.0887.0181.028.0374.0547.0573.0814.0024.0032.0051.0062.0078.0092.0076.0004.0122.0011.0242.0002.0089-.0027.0176-.0052.0263-.0085.1467-.0547.2874-.1244.4291-.1911.0303-.0276.0587-.0572.0888-.085l1.4991-6.2405,6.3806-1.2006c-.1271.5372-.2547,1.0759-.3828,1.6164l-2.0139.3356c-.1362.0234-.2285.1523-.2056.2881.0205.1221.1265.209.2461.209.0137,0,.0278-.001.0415-.0029l1.8065-.3011c-.4099,1.7283-.8215,3.4581-1.2242,5.147l-2.9075.617c-.1353.0283-.2217.1611-.1929.2959.0249.1182.1289.1982.2441.1982.0176,0,.0347-.002.0522-.0059l2.6759-.5678c-.4314,1.8082-.8489,3.5541-1.2406,5.1885l-2.8142.2817c-.1372.0137-.2378.1367-.2236.2734.0127.1299.1216.2256.248.2256.0083,0,.0171,0,.0254-.001l2.6409-.2643c-.5288,2.2057-1.0027,4.1763-1.3854,5.7632-.3098.0693-.6123.1375-.9035.2032-1.5566.3525-2.9014.6562-4.1289.8311-.3223.0479-.7471.0537-.9404-.168-.251-.29-.1421-.9248-.0771-1.1484l2.1796-9.0731c-.3282-.0708-.662-.108-.9978-.126l-2.1471,8.9384c-.0396.1318-.3652,1.3066.2842,2.0605.3911.4541,1.0093.626,1.8403.5068,1.2671-.1807,2.6299-.4893,4.208-.8457,1.2559-.2832,2.6792-.6055,4.3218-.9229,3.5405-.6855,5.4478-.8789,6.2241-.9326l1.833,11.1981-7.1323-4.4158c-.1914-.1201-.4399-.0947-.6055.0605-.0322.0303-.4796.4695-1.1771,1.4861-.0172.0419-.0345.0837-.0491.1267-.0032.0093-.0062.0191-.0077.024-.0023.0089-.0047.0178-.0068.0267-.0063.0261-.0118.0525-.0165.079-.0083.0469-.0125.094-.0159.1414.0037.0178.007.0358.0101.0536.0018.0063.0036.0126.0055.0187.0052.017.0109.034.017.0508.0132.0361.0301.0699.0457.105.0081.0122.0158.0246.0244.0365.0115.0161.0241.0311.0366.0464.0049.0059.0008.0005.0035.0037.0137.0111.059.0483.0647.0524.0005.0003.0045.003.0078.0051.0129.0054.0251.0123.0379.0178.0141.006.0285.011.0428.0164.057.0214-.0306-.0034.0031.001.0375.0049.074.0139.112.0168.0052.0004.0225.0008.0333.0011.0095-.0003.0203-.0007.0245-.001.0446-.0024.089-.0077.133-.0151.0206-.0034.0411-.0074.0615-.0118.0092-.002.0182-.0042.0273-.0062.0406-.0144.0768-.0361.1166-.051.387-.5801.699-.9847.8967-1.2166l7.4619,4.6191c.0178.011.0378.0124.0563.0209l.7601,4.6432-2.2286-1.5247c-.0148.0043-.0297.0085-.0443.0136-.0425.0146-.0819.0345-.1232.0518-.0355.0149.0366-.0265-.02.0119-.0145.0099-.0291.0196-.0432.0301-.0161.0121-.0311.0253-.0466.038-.0022.0018.0007-.0009-.0011.0005-.0309.092-.0811.1755-.1384.2581-.0068.0388-.0126.0773-.0162.1167-.001.0106-.0013.0214-.0018.032.0009.019.001.0381.0021.0571.0028.0479.0084.0955.0162.1428.0047.0284.0102.0566.0164.0847.0023.0101.0047.0203.0071.0303.0005.0016-.0006-.0026.0009.0025.0093.0319.0204.0632.0308.0947l2.6848,1.8372c.0369.025.0801.0229.1204.0371l4.2898,26.207c.0396.2412.2485.4189.4937.4189.0889,0,2.2153-.0146,5.7881-1.3135,3.5811-1.3027,5.231-2.7646,5.2993-2.8262.1948-.1758.2212-.4717.0601-.6787-.0503-.0654-1.271-1.6006-3.9937-2.1104-1.5112-.2861-3.4492-.0576-4.3467.0781l-3.5476-18.5687c1.4851.9084,4.7118,2.8723,6.6619,3.9867.5864.335,1.1064.5029,1.5552.502.2954,0,.5601-.0723.792-.2178.8911-.5576.8281-1.9023.812-2.1055l-.8036-4.6606c-.0786-.0536-.1556-.1094-.2368-.1588-.0544-.0331-.1299-.0689-.2006-.1049-.0079-.0027-.0224-.0072-.0311-.0101-.0445-.0113-.0893-.0186-.1349-.0236-.0518-.0056.0419-.0052-.0128-.0005-.0184.0016-.0371.0037-.0556.0049-.0684.0043.0115-.0118-.0228.003-.004.0017-.0083.0031-.0125.0046-.0283.0527-.0488.1091-.0792.1608-.0756.1286-.1275.2079-.1909.3303l.789,4.5729c.0186.2764-.0439.9482-.3506,1.1396-.2368.1504-.7197.0391-1.3208-.3057-2.5274-1.4437-7.2182-4.3276-7.4118-4.4463l-.6736-3.5261,6.8154,4.5436c.084.0557.1807.084.2773.084.0908,0,.1821-.0244.2627-.0742.1665-.1035.2578-.2939.2334-.4883l-2.3193-18.5558c.2602.0609.5229.1278.7898.1992l2.469,14.3098c.0582.0335.1044.0876.1154.1741.0206.1614.046.3223.0815.4812.0135.0606.0191.0825.0311.1237.0453.0072.0906.014.1359.0211.0511.008.1022.0143.1537.0196.0088-.0016.0186-.0024.0285-.0034.0147-.0062.0296-.0119.0443-.0183.043-.019.0851-.0399.1278-.0594.075-.0344.1533-.0604.2307-.0889.0447-.0836.0979-.2147.1209-.3046.0007-.0026.0005-.0055.0012-.0081l-2.4729-14.3421c2.7884.8763,5.8523,2.3569,8.8267,4.8273,4.1538,3.4502,7.0161,6.5449,9.541,9.2764,3.2671,3.5332,5.8477,6.3242,9.8013,8.4336,3.6259,1.9335,6.3456,2.7559,8.1841,3.0917l-3.3135,8.546-14.958,11.4492c-.0762.0586-.1343.1377-.1665.2285-.0698.1934-1.708,4.7822-1.5171,7.6445.1997,2.9951,1.8291,4.2715,4.2134,5.2656,2.2983.957,3.4912.9678,3.541.9678.1978,0,.3765-.1162.457-.2969.0337-.0762.8169-1.8926-.1763-4.4756-.7109-1.8477-1.5493-2.6104-2.0132-2.9102v-2.082l13.5532-12.0869c.2686-.1465,1.1206-.6963,1.4956-1.9463.4418-1.4731,2.0472-6.6695,2.6967-8.7703,4.3752,4.5056,8.2856,8.5598,8.3712,8.6483.0942.0977.2271.1758.3599.1533.1323,0,.2598-.0527.3535-.1465l1.1143-1.1143.7788.4863c.1919.1182.437.0967.603-.0557l1.3687-1.2539.7847.5889c.2163.1621.521.1221.6904-.0879l1.6743-2.0928c.1675-.21.1396-.5137-.0625-.6895l-2.8052-2.4395.7373-.7373c.1086-.1091.1593-.2615.1407-.4136.4591-.067,1.0735-.1611,1.8259-.2845l3.6055,10.6351c-3.9009,1.4008-6.6547,3.3113-6.7704,3.3931-.1938.1357-.2661.3887-.1729.6064.0303.0704.6222,1.3787,2.5098,2.0342l-7.1249,4.1766c-.0086.0279-.0201.0588-.0244.0814-.0258.1338-.027.1795.0004.3214.0104.0536-.0125-.0307.0069.0262.0103.0302.0206.0602.0333.0895.0037.0084.0465.0928.0225.0508.0168.0294.0362.0575.0562.0847.0026.0035.0075.0053.0101.0088.1998.0471.4083.075.6132.076l7.7256-4.5287c.0326-.0191.0544-.0477.0809-.0724.184.0212.374.0382.5743.047,2.751.1025,4.8872-.7324,5.5923-1.0557l.2365.1262-16.3356,12.0271c-.2222.1631-.2695.4766-.106.6992.0112.0156,1.1304,1.5566,1.3945,3.6729.249,1.9912-.2134,3.3633-.4854,3.9658-1.0063-.3994-3.6685-1.6025-4.9233-3.5547-1.3389-2.082-1.8179-5.4912-1.9365-6.5303l6.1484-3.6041c.0197-.055.0395-.1099.0565-.1659.0048-.0158.0096-.0316.014-.0475.001-.004.0005-.0024.0038-.0156.0078-.0317.0159-.0633.0229-.0952.0254-.1148.0418-.231.0466-.3484-.0001-.0018-.0002-.0008-.0003-.0029-.0006-.009-.0004-.0182-.0009-.0272-.0009-.0206-.0021-.0411-.0042-.0615-.0037-.0387-.012-.0761-.0178-.1143-.0059-.0391.0178.0498-.0037-.0097-.0067-.0186-.0129-.0372-.0206-.0555-.0056-.0132-.0131-.0259-.018-.0392-.0121-.0326.0347.0493-.0016-.0026-.0179-.0256-.0405-.0492-.0583-.0746-.0009-.0007-.0024-.0023-.0029-.0026-.0026-.0021-.0052-.0042-.0078-.0063-.0222-.0053-.0443-.0108-.0665-.0156-.0184-.004-.0374-.0043-.0559-.0079l-6.8176,3.9965c-.166.0977-.2612.2812-.2451.4736.0156.1865.4019,4.6191,2.1245,7.2979,1.7495,2.7217,5.6768,4.0557,5.8433,4.1113.0522.0166.1055.0254.1582.0254.1636,0,.3213-.0811.416-.2227.0498-.0752,1.2148-1.8652.8242-4.9902-.2144-1.7178-.9131-3.0723-1.3071-3.7236l16.3394-12.03,23.3525,12.4607c.0547.0371,1.1572.7812,2.311.7812.2139,0,.4297-.0254.6411-.0859.6343-.1816,1.1104-.6279,1.416-1.3262.9752-2.2296,11.8848-40.5282,12.4322-42.45,6.2365-1.7672,12.821-3.1899,19.0386-4.3248l13.8852,26.5732c.0896.0137.1622.0202.228.0157.0492-.0034.0972-.0112.1457-.0192.0293-.0112.0589-.0215.0875-.0344.0211-.0095.0419-.0193.0625-.0298.0067-.0034.0178-.0095.0261-.014.0737-.0443.1406-.0952.205-.152.0058-.0062.0118-.0123.0174-.0188.0129-.0148.0258-.0296.038-.045.0121-.0152.0237-.0308.0348-.0467.0059-.0083.0413-.0651.0251-.0373-.0148.0255.015-.0298.0198-.04.0029-.0062.0055-.0126.0083-.0189l-13.7523-26.3192c.7798-.1393,1.5551-.2757,2.3204-.4061,2.1738,3.6968,4.7383,8.0598,7.4424,12.6631.0106.0009.0209.0032.0315.0039.011.0007.022.001.033.0015.0247-.0032.0507-.0013.0756-.0032.0431-.0033.0854-.0099.128-.0173.002-.0003.0032,0,.0053-.0002.0068-.0018.014-.0037.0192-.0055.0189-.0063.0379-.0121.0566-.0192.0205-.0078.0407-.0163.0605-.0257.0055-.0026.0109-.0054.0164-.0081.0137-.0209.0803-.0546.098-.0697.0059-.0051.0118-.0107.0178-.0157.0093-.0099.0195-.0207.0257-.0281.0154-.0181.0299-.0369.0436-.0563.0031-.0044.0132-.0201.0209-.0317.0062-.0114.0156-.0283.0176-.0323.01-.0203.0193-.041.0279-.0619.0098-.0239.0182-.0483.0267-.0728.0017-.005.0032-.0101.0047-.0152.0083-.0438.0192-.0867.0255-.1309.0057-.0397.0074-.0795.0102-.1193-2.8657-4.8781-5.3931-9.1776-7.1302-12.132,9.0631-1.5114,16.8834-2.4005,20.9503-2.8622,1.5479-.1758,2.5698-.291,3.0693-.3701,3.9038-.6162,3.7744-3.7842,3.7671-3.7842.016-.1342.2591-2.1732.6566-5.5043Zm-151.7289,43.7126c-.7349.5106-2.1664,1.3792-4.3793,2.1842-2.0175.7335-3.5459,1.0345-4.4653,1.1604.2925-.4481,1.4514-1.7315,4.0053-2.6282,3.1028-1.0905,4.3709-.9008,4.8393-.7164Zm-5.0327-22.7318l-6.7241-4.4824-2.6143-13.6836c1.0597-.1223,3.7225-.3058,7.1109.3442l2.2275,17.8218Z"/>
  <path class="cls-7" d="m214.8173,85.9291l-1.4868-2.1475.7554-1.21c.1187-.1895.0967-.4355-.0537-.6006l-1.5869-1.7461,1.249-1.7178c.1304-.1797.1274-.4229-.0078-.5986l-1.8604-2.418c-.084-.1094-.209-.1787-.3457-.1924-.1431-.0186-.2744.0293-.3774.1191l-2.106,1.8185c.8977-7.526,1.8405-15.4305,2.7221-22.8227-.242-.066-.4883-.0151-.7088.0965-.1218.0616-.2295.1482-.3371.2343-.9082,7.6171-1.8796,15.7638-2.7971,23.4597l-.5144.4442-.9741-.9736c-.0996-.0986-.2334-.165-.3774-.1455-.1406.0059-.272.0723-.3618.1807l-3.5347,4.2793c-.1021.124-.1387.2891-.0981.4443l1.0342,3.9648-27.2598,21.8086-14.7139-18.3981c-.1704-.2158-.4849-.2549-.7021-.083-.2173.1699-.2544.4844-.084.7021l15.0259,18.7936c.0825.1045.2036.1719.3359.1875.1328.0166.2656-.0234.3696-.1064l27.9067-22.3262c.1538-.123.2212-.3262.1714-.5166l-1.0518-4.0312,3.0215-3.6582.9141.9141c.1851.1855.4819.1963.6802.0244l.037-.032c.0082.1187,3.6553-3.1564,3.6553-3.1564l1.3096,1.7021-1.2681,1.7441c-.1396.1914-.125.4551.0342.6299l1.606,1.7666-.7295,1.168c-.106.1689-.1011.3848.0127.5488l1.4043,2.0283-37.3916,28.9199c-.0332.0254-.063.0557-.0889.0889-.0044.0049-.4512.5508-.9561.5508-.2856,0-.5747-.1855-.8594-.5508-1.2749-1.6396-14.2783-21.5732-14.4439-21.8281-.1504-.2314-.4609-.2969-.6919-.1465-.2314.1504-.2974.46-.147.6914.6768,1.041,13.1929,20.2246,14.4937,21.8965.4834.6221,1.0381.9375,1.6484.9375.8828,0,1.522-.6719,1.7012-.8828l29.0886-22.4983c-.4642,3.8953-.877,7.3591-1.2193,10.2334.3041.1386.6428.1785.9844.1525.3713-3.1125.8281-6.9419,1.341-11.2413l7.5274-5.822c.2104-.1631.2568-.4619.1055-.6797Z"/>
  <path class="cls-7" d="m214.8676,19.4799c-.728-.8184-1.9585-.9287-3.0659-.9287-3.2007,0-11.9429,2.5205-23.9854,6.9141-13.6709,4.9883-46.7598,28.1523-47.0552,28.3623-.6953.4014-1.4351.833-2.2144,1.2881-10.3145,6.0234-27.582,16.1104-43.1182,14.6934-10.6221-.9658-16.6885-5.1338-23.1113-9.5479-3.5674-2.4512-7.2568-4.9863-11.7632-6.8809-7.5488-3.1738-16.5605-2.0215-26.7905,3.4219-.3149.167-.5449.29-.6802.3516-1.6309.7422-1.8066,2.2725-1.8252,2.6191l-5.3212,22.1524c.0027.0048.0053.0096.008.0144.0056.0099.0112.0198.0167.0297.002.0035-.0009-.0016,0,0,.0127.022.0254.0441.0383.066.0476.0805.0972.1602.1529.2355.0265.0357.0555.0688.0839.1028.0129.0052.0259.0107.0392.0153-.0681-.0236.0048-.0037.0182.0009.0588.0197-.0184.006.0138.0026.0116-.0012.0245-.0026.0374-.0043.1627-.1106.3209-.2282.4785-.3469.0032-.0034.0091-.0081.0123-.0114.0469-.0485.093-.0978.1392-.147l2.9489-12.2759c.0173-.0107.0369-.0145.0532-.0275.0542-.0449,5.6719-4.3945,22.3457-3.1455,10.2563.7666,16.1113,5.3604,21.7739,9.8018,5.2295,4.1025,10.1685,7.9775,18.0483,8.4307.4893.0283.9844.042,1.4897.042,13.4795-.001,32.5918-9.791,48.0571-17.7139,3.4204-1.7529,6.6509-3.4072,9.6782-4.8896,18.2925-8.9561,39.3369-15.5938,48.438-17.4473,7.8039-1.5909,11.1946-1.5914,12.2491-1.5258-.3475,2.9152-.7193,6.0336-1.1047,9.2665.0193.0146.0366.0319.0561.0463.0845.0624.1705.1248.2669.1675.0692.0306.1263.0428.1716.0393.1528-.0118.3406-.1845.479-.3111.0157-.0144.0297-.0306.0453-.0452,1.8403-15.4312,3.3513-28.1061,3.4891-29.2781.2065-1.752.0234-2.8428-.5933-3.5371ZM38.2396,63.4695c-1.4617,0-2.6468-1.2116-2.6468-2.7062s1.1851-2.7062,2.6468-2.7062,2.6469,1.2116,2.6469,2.7062-1.1851,2.7062-2.6469,2.7062Zm10.1391-1.0465c-1.7056,0-3.0882-1.3646-3.0882-3.0481s1.3826-3.0481,3.0882-3.0481,3.0882,1.3647,3.0882,3.0481-1.3826,3.0481-3.0882,3.0481Zm13.2354-.6476c-.5755,1.7095-2.4086,2.6354-4.0942,2.0679-1.6857-.5674-2.5856-2.4133-2.0101-4.1229.5755-1.7095,2.4086-2.6354,4.0942-2.0679,1.6857.5674,2.5856,2.4134,2.0101,4.1229Z"/>
  <path class="cls-8" d="m44.3788,153.5658l.4819-.1328c.0087.0312.0059.051.0076.0763-.1882.0248-.3588.0448-.4896.0565Z"/>
  <path class="cls-7" d="m39.5742,59.3109l-1.1124.8507-.7675-1.1349c-.1162-.1719-.3481-.2178-.5205-.1006-.1719.1162-.2168.3486-.1006.5205l.7921,1.1711-1.4542,1.1121c-.1641.126-.1958.3613-.0698.5254.0737.0967.1855.1475.2983.1475.0791,0,.1592-.0254.2275-.0771l1.4191-1.0853.9261,1.3694c.0723.1074.1904.165.311.165.0723,0,.145-.0205.2095-.0645.1719-.1162.2168-.3486.1006-.5205l-.9507-1.4057,1.1475-.8775c.1641-.126.1958-.3613.0698-.5254-.1255-.1641-.3599-.1953-.5259-.0703Z"/>
  <path class="cls-6" d="m50.4243,59.141l-4-.1855c-.2222.0137-.3823.1504-.3921.3574s.1504.3828.3569.3926l4,.1855h.0181c.1987,0,.3647-.1562.374-.3574.0098-.207-.1504-.3828-.3569-.3926Z"/>
  <path class="cls-7" d="m60.4711,61.018l-1.325-.41.5482-1.7228c.0625-.1973-.0464-.4082-.2437-.4707-.1973-.0605-.4082.0469-.4712.2441l-.5497,1.7277-1.8658-.5773c-.1973-.0605-.4077.0508-.4692.2471-.061.1982.0498.4082.2476.4697l1.86.5755-.525,1.6501c-.0625.1973.0464.4082.2437.4707.0381.0117.0762.0176.1138.0176.1592,0,.3066-.1016.3574-.2617l.5266-1.655,1.3309.4118c.0371.0117.0742.0166.1108.0166.1602,0,.3086-.1035.3584-.2637.061-.1982-.0498-.4082-.2476-.4697Z"/>
</svg>