<svg xmlns="http://www.w3.org/2000/svg" viewBox="0 0 290 195" style="enable-background:new 0 0 290 195" xml:space="preserve"><style>.st0{fill:#C1B2DD}.st1{fill:#3E2C73}.st2{fill:#EDE7F5}.st3{fill:none;stroke:#3E2C73;stroke-width:0.75}.st4{fill:#5A4A79}.st5{fill:#FF7738}.st6{fill:#FFFFFF}.chart_small{fill:none;stroke:#E1567C;stroke-width:0.75;stroke-linecap:round;stroke-linejoin:bevel;stroke-miterlimit:10;stroke-dasharray:100;animation:drawline infinite 8s ease-in-out}@keyframes drawline{from{stroke-dashoffset:200}to{stroke-dashoffset:0}}</style><g id="background"><path class="st0" d="M224 40h19c.6 0 1 .4 1 1s-.4 1-1 1h-19c-.6 0-1-.4-1-1s.4-1 1-1z"/><path class="st1" d="M0 1h42v193H0V1z"/><path class="st0" d="M43 .7 287 0a3 3 0 0 1 3 3v29.3L43 33V.7z"/><path class="st1" d="M223.1 136.5c0-.8.7-1.5 1.5-1.5h14.9v2.9h-14.9c-.9 0-1.5-.6-1.5-1.4z"/><path class="st0" d="M239.4 135H252v2.9h-12.6z"/><path class="st2" d="M252.1 135h5.9v2.9h-5.9z"/><path class="st1" d="M223.1 146.7c0-.8.7-1.5 1.5-1.5h24.6v2.9h-24.6c-.9.1-1.5-.6-1.5-1.4z"/><path class="st0" d="M249.1 145.3h13.4v2.9h-13.4z"/><path class="st2" d="M262.5 145.3h5.2v2.9h-5.2z"/><path class="st1" d="M223.1 157c0-.8.7-1.5 1.5-1.5h24.6v2.9h-24.6c-.9.1-1.5-.6-1.5-1.4z"/><path class="st0" d="M249.1 155.5h6.7v2.9h-6.7z"/><path class="st2" d="M255.8 155.5h6.7v2.9h-6.7z"/><path class="st3" d="M54.4 45c0 .3.3.6.6.6h158c.3 0 .6-.3.6-.6v-4c0-.3-.3-.6-.6-.6H55c-.3 0-.6.3-.6.6v4z"/><path class="st0" d="M53 98c0-1.1.9-2 2-2h156a2 2 0 0 1 2 2v6H53v-6z"/><path class="st4" d="M54 13c0-.6.4-1 1-1h16c.6 0 1 .4 1 1s-.4 1-1 1H55c-.6 0-1-.4-1-1zM78 13c0-.6.4-1 1-1h16c.6 0 1 .4 1 1s-.4 1-1 1H79c-.6 0-1-.4-1-1z"/><path class="st0" d="M17 24.5c0-.3.2-.5.5-.5h18c.3 0 .5.2.5.5s-.2.5-.5.5h-18c-.3 0-.5-.2-.5-.5zM17 13c0-.6.4-1 1-1h17c.6 0 1 .4 1 1s-.4 1-1 1H18c-.6 0-1-.4-1-1zM17 30.5c0-.3.2-.5.5-.5h18c.3 0 .5.2.5.5s-.2.5-.5.5h-18c-.3 0-.5-.2-.5-.5zM17 36.5c0-.3.2-.5.5-.5h18c.3 0 .5.2.5.5s-.2.5-.5.5h-18c-.3 0-.5-.2-.5-.5zM17 42.5c0-.3.2-.5.5-.5h18c.3 0 .5.2.5.5s-.2.5-.5.5h-18c-.3 0-.5-.2-.5-.5zM17 48.5c0-.3.2-.5.5-.5h18c.3 0 .5.2.5.5s-.2.5-.5.5h-18c-.3 0-.5-.2-.5-.5zM17 54.5c0-.3.2-.5.5-.5h18c.3 0 .5.2.5.5s-.2.5-.5.5h-18c-.3 0-.5-.2-.5-.5zM17 64.5c0-.3.2-.5.5-.5h18c.3 0 .5.2.5.5s-.2.5-.5.5h-18c-.3 0-.5-.2-.5-.5zM17 70.5c0-.3.2-.5.5-.5h18c.3 0 .5.2.5.5s-.2.5-.5.5h-18c-.3 0-.5-.2-.5-.5zM17 76.5c0-.3.2-.5.5-.5h18c.3 0 .5.2.5.5s-.2.5-.5.5h-18c-.3 0-.5-.2-.5-.5zM17 87.5c0-.3.2-.5.5-.5h18c.3 0 .5.2.5.5s-.2.5-.5.5h-18c-.3 0-.5-.2-.5-.5z"/><path class="st5" d="M62 110.5c0-.3-.2-.5-.5-.5h-1c-.3 0-.5.2-.5.5s.2.5.5.5h1c.3 0 .5-.2.5-.5zM62 116.5c0-.3-.2-.5-.5-.5h-1c-.3 0-.5.2-.5.5s.2.5.5.5h1c.3 0 .5-.2.5-.5zM62 122.5c0-.3-.2-.5-.5-.5h-1c-.3 0-.5.2-.5.5s.2.5.5.5h1c.3 0 .5-.2.5-.5zM62 128.5c0-.3-.2-.5-.5-.5h-1c-.3 0-.5.2-.5.5s.2.5.5.5h1c.3 0 .5-.2.5-.5zM62 134.5c0-.3-.2-.5-.5-.5h-1c-.3 0-.5.2-.5.5s.2.5.5.5h1c.3 0 .5-.2.5-.5z"/><path class="st1" d="M126 110.5c0-.3.2-.5.5-.5h9c.3 0 .5.2.5.5s-.2.5-.5.5h-9c-.3 0-.5-.2-.5-.5zM126 116.5c0-.3.2-.5.5-.5h9c.3 0 .5.2.5.5s-.2.5-.5.5h-9c-.3 0-.5-.2-.5-.5zM126 122.5c0-.3.2-.5.5-.5h9c.3 0 .5.2.5.5s-.2.5-.5.5h-9c-.3 0-.5-.2-.5-.5zM126 128.5c0-.3.2-.5.5-.5h9c.3 0 .5.2.5.5s-.2.5-.5.5h-9c-.3 0-.5-.2-.5-.5zM126 134.5c0-.3.2-.5.5-.5h9c.3 0 .5.2.5.5s-.2.5-.5.5h-9c-.3 0-.5-.2-.5-.5zM144 110.5c0-.3.2-.5.5-.5h9c.3 0 .5.2.5.5s-.2.5-.5.5h-9c-.3 0-.5-.2-.5-.5zM144 116.5c0-.3.2-.5.5-.5h9c.3 0 .5.2.5.5s-.2.5-.5.5h-9c-.3 0-.5-.2-.5-.5zM144 122.5c0-.3.2-.5.5-.5h9c.3 0 .5.2.5.5s-.2.5-.5.5h-9c-.3 0-.5-.2-.5-.5zM144 128.5c0-.3.2-.5.5-.5h9c.3 0 .5.2.5.5s-.2.5-.5.5h-9c-.3 0-.5-.2-.5-.5zM144 134.5c0-.3.2-.5.5-.5h9c.3 0 .5.2.5.5s-.2.5-.5.5h-9c-.3 0-.5-.2-.5-.5zM162 110.5c0-.3.2-.5.5-.5h9c.3 0 .5.2.5.5s-.2.5-.5.5h-9c-.3 0-.5-.2-.5-.5zM162 116.5c0-.3.2-.5.5-.5h9c.3 0 .5.2.5.5s-.2.5-.5.5h-9c-.3 0-.5-.2-.5-.5zM162 122.5c0-.3.2-.5.5-.5h9c.3 0 .5.2.5.5s-.2.5-.5.5h-9c-.3 0-.5-.2-.5-.5zM162 128.5c0-.3.2-.5.5-.5h9c.3 0 .5.2.5.5s-.2.5-.5.5h-9c-.3 0-.5-.2-.5-.5zM162 134.5c0-.3.2-.5.5-.5h9c.3 0 .5.2.5.5s-.2.5-.5.5h-9c-.3 0-.5-.2-.5-.5zM180 110.5c0-.3.2-.5.5-.5h9c.3 0 .5.2.5.5s-.2.5-.5.5h-9c-.3 0-.5-.2-.5-.5zM180 116.5c0-.3.2-.5.5-.5h9c.3 0 .5.2.5.5s-.2.5-.5.5h-9c-.3 0-.5-.2-.5-.5zM180 122.5c0-.3.2-.5.5-.5h9c.3 0 .5.2.5.5s-.2.5-.5.5h-9c-.3 0-.5-.2-.5-.5zM180 128.5c0-.3.2-.5.5-.5h9c.3 0 .5.2.5.5s-.2.5-.5.5h-9c-.3 0-.5-.2-.5-.5zM180 134.5c0-.3.2-.5.5-.5h9c.3 0 .5.2.5.5s-.2.5-.5.5h-9c-.3 0-.5-.2-.5-.5zM198 110.5c0-.3.2-.5.5-.5h8c.3 0 .5.2.5.5s-.2.5-.5.5h-8c-.3 0-.5-.2-.5-.5zM198 116.5c0-.3.2-.5.5-.5h8c.3 0 .5.2.5.5s-.2.5-.5.5h-8c-.3 0-.5-.2-.5-.5zM198 122.5c0-.3.2-.5.5-.5h8c.3 0 .5.2.5.5s-.2.5-.5.5h-8c-.3 0-.5-.2-.5-.5zM198 128.5c0-.3.2-.5.5-.5h8c.3 0 .5.2.5.5s-.2.5-.5.5h-8c-.3 0-.5-.2-.5-.5zM198 134.5c0-.3.2-.5.5-.5h8c.3 0 .5.2.5.5s-.2.5-.5.5h-8c-.3 0-.5-.2-.5-.5z"/><path class="st0" d="M13 24.5c0-.3-.2-.5-.5-.5h-2c-.3 0-.5.2-.5.5s.2.5.5.5h2c.3 0 .5-.2.5-.5zM13 30.5c0-.3-.2-.5-.5-.5h-2c-.3 0-.5.2-.5.5s.2.5.5.5h2c.3 0 .5-.2.5-.5zM13 36.5c0-.3-.2-.5-.5-.5h-2c-.3 0-.5.2-.5.5s.2.5.5.5h2c.3 0 .5-.2.5-.5zM13 42.5c0-.3-.2-.5-.5-.5h-2c-.3 0-.5.2-.5.5s.2.5.5.5h2c.3 0 .5-.2.5-.5zM13 48.5c0-.3-.2-.5-.5-.5h-2c-.3 0-.5.2-.5.5s.2.5.5.5h2c.3 0 .5-.2.5-.5zM13 54.5c0-.3-.2-.5-.5-.5h-2c-.3 0-.5.2-.5.5s.2.5.5.5h2c.3 0 .5-.2.5-.5zM13 64.5c0-.3-.2-.5-.5-.5h-2c-.3 0-.5.2-.5.5s.2.5.5.5h2c.3 0 .5-.2.5-.5zM13 70.5c0-.3-.2-.5-.5-.5h-2c-.3 0-.5.2-.5.5s.2.5.5.5h2c.3 0 .5-.2.5-.5zM13 76.5c0-.3-.2-.5-.5-.5h-2c-.3 0-.5.2-.5.5s.2.5.5.5h2c.3 0 .5-.2.5-.5zM13 87.5c0-.3-.2-.5-.5-.5h-2c-.3 0-.5.2-.5.5s.2.5.5.5h2c.3 0 .5-.2.5-.5z"/><path class="st6" d="M9 10h4c.6 0 1 .4 1 1v4c0 .6-.4 1-1 1H9c-.6 0-1-.4-1-1v-4c0-.6.4-1 1-1z"/><path class="st4" d="M55.5 24h62c.8 0 1.5.7 1.5 1.5s-.7 1.5-1.5 1.5h-62c-.8 0-1.5-.7-1.5-1.5s.7-1.5 1.5-1.5z"/><path class="st1" d="M224.5 45h18c.8 0 1.5.7 1.5 1.5s-.7 1.5-1.5 1.5h-18c-.8 0-1.5-.7-1.5-1.5s.7-1.5 1.5-1.5z"/><path class="st0" d="M224 57h19c.6 0 1 .4 1 1s-.4 1-1 1h-19c-.6 0-1-.4-1-1s.4-1 1-1z"/><path class="st1" d="M224.5 62h18c.8 0 1.5.7 1.5 1.5s-.7 1.5-1.5 1.5h-18c-.8 0-1.5-.7-1.5-1.5s.7-1.5 1.5-1.5z"/><path class="st0" d="M256 40h19c.6 0 1 .4 1 1s-.4 1-1 1h-19c-.6 0-1-.4-1-1s.4-1 1-1z"/><path class="st1" d="M256.5 45h18c.8 0 1.5.7 1.5 1.5s-.7 1.5-1.5 1.5h-18c-.8 0-1.5-.7-1.5-1.5s.7-1.5 1.5-1.5z"/><path class="st0" d="M256 57h19c.6 0 1 .4 1 1s-.4 1-1 1h-19c-.6 0-1-.4-1-1s.4-1 1-1z"/><path class="st1" d="M256.5 62h18c.8 0 1.5.7 1.5 1.5s-.7 1.5-1.5 1.5h-18c-.8 0-1.5-.7-1.5-1.5s.7-1.5 1.5-1.5z"/><path class="st6" d="M266 12h8c.6 0 1 .4 1 1v6c0 .6-.4 1-1 1h-8c-.6 0-1-.4-1-1v-6c0-.6.4-1 1-1z"/><path class="st1" d="m271.1 17.9-1.1-.6-1 .5h-.2l-.1-.1v-.1l.2-1.1-.8-.8-.1-.1v-.1l.1-.1h.1l1.2-.2.5-1.1.1-.1h.2l.1.1.5 1.1 1.2.2h.1l.1.1v.1l-.1.1-.8.8.2 1.1v.1l-.1.1-.3.1z"/><path class="st3" d="M3.7 189.4 3 2l282 2.4 4 189.6-285.3-4.6z"/><path d="M287 191.8V2H1.7L1 192l286-.2z" style="fill:none;stroke:#FF7738;stroke-width:1.5"/><path class="st3" d="M54.4 99c0-.9.7-1.6 1.6-1.6h156c.9 0 1.6.7 1.6 1.6v40c0 .9-.7 1.6-1.6 1.6H56c-.9 0-1.6-.7-1.6-1.6V99z"/><path class="st0" d="M53 148c0-1.1.9-2 2-2h156a2 2 0 0 1 2 2v6H53v-6z"/><path class="st5" d="M62 160.5c0-.3-.2-.5-.5-.5h-1c-.3 0-.5.2-.5.5s.2.5.5.5h1c.3 0 .5-.2.5-.5zM62 166.5c0-.3-.2-.5-.5-.5h-1c-.3 0-.5.2-.5.5s.2.5.5.5h1c.3 0 .5-.2.5-.5zM62 172.5c0-.3-.2-.5-.5-.5h-1c-.3 0-.5.2-.5.5s.2.5.5.5h1c.3 0 .5-.2.5-.5z"/><path class="st1" d="M126 160.5c0-.3.2-.5.5-.5h9c.3 0 .5.2.5.5s-.2.5-.5.5h-9c-.3 0-.5-.2-.5-.5zM126 166.5c0-.3.2-.5.5-.5h9c.3 0 .5.2.5.5s-.2.5-.5.5h-9c-.3 0-.5-.2-.5-.5zM126 172.5c0-.3.2-.5.5-.5h9c.3 0 .5.2.5.5s-.2.5-.5.5h-9c-.3 0-.5-.2-.5-.5zM144 160.5c0-.3.2-.5.5-.5h9c.3 0 .5.2.5.5s-.2.5-.5.5h-9c-.3 0-.5-.2-.5-.5zM144 166.5c0-.3.2-.5.5-.5h9c.3 0 .5.2.5.5s-.2.5-.5.5h-9c-.3 0-.5-.2-.5-.5zM144 172.5c0-.3.2-.5.5-.5h9c.3 0 .5.2.5.5s-.2.5-.5.5h-9c-.3 0-.5-.2-.5-.5zM162 160.5c0-.3.2-.5.5-.5h9c.3 0 .5.2.5.5s-.2.5-.5.5h-9c-.3 0-.5-.2-.5-.5zM162 166.5c0-.3.2-.5.5-.5h9c.3 0 .5.2.5.5s-.2.5-.5.5h-9c-.3 0-.5-.2-.5-.5zM162 172.5c0-.3.2-.5.5-.5h9c.3 0 .5.2.5.5s-.2.5-.5.5h-9c-.3 0-.5-.2-.5-.5zM180 160.5c0-.3.2-.5.5-.5h9c.3 0 .5.2.5.5s-.2.5-.5.5h-9c-.3 0-.5-.2-.5-.5zM180 166.5c0-.3.2-.5.5-.5h9c.3 0 .5.2.5.5s-.2.5-.5.5h-9c-.3 0-.5-.2-.5-.5zM180 172.5c0-.3.2-.5.5-.5h9c.3 0 .5.2.5.5s-.2.5-.5.5h-9c-.3 0-.5-.2-.5-.5zM198 160.5c0-.3.2-.5.5-.5h8c.3 0 .5.2.5.5s-.2.5-.5.5h-8c-.3 0-.5-.2-.5-.5zM198 166.5c0-.3.2-.5.5-.5h8c.3 0 .5.2.5.5s-.2.5-.5.5h-8c-.3 0-.5-.2-.5-.5zM198 172.5c0-.3.2-.5.5-.5h8c.3 0 .5.2.5.5s-.2.5-.5.5h-8c-.3 0-.5-.2-.5-.5z"/><path class="st3" d="M54.4 149c0-.9.7-1.6 1.6-1.6h156c.9 0 1.6.7 1.6 1.6v29c0 .9-.7 1.6-1.6 1.6H56c-.9 0-1.6-.7-1.6-1.6v-29zM224.5 135.4h49.9c.6 0 1.1.5 1.1 1.1 0 .6-.5 1.1-1.1 1.1h-49.9c-.6 0-1.1-.5-1.1-1.1.1-.6.5-1.1 1.1-1.1zM224.5 145.6h49.9c.6 0 1.1.5 1.1 1.1 0 .6-.5 1.1-1.1 1.1h-49.9c-.6 0-1.1-.5-1.1-1.1.1-.6.5-1.1 1.1-1.1zM224.5 155.9h49.9c.6 0 1.1.5 1.1 1.1 0 .6-.5 1.1-1.1 1.1h-49.9c-.6 0-1.1-.5-1.1-1.1.1-.6.5-1.1 1.1-1.1z"/></g><path style="fill:#E1567C"><animate repeatCount="indefinite" attributeName="d" dur="8s" values="M211.4,83.5l1.8,0.4c0.5,0.1,0.8,0.5,0.8,1V89H54v-9.6c0-0.7,0.8-1.2,1.4-0.9l1.3,0.6c0.5,0.2,1.1,0,1.3-0.4 l2.6-4.8c0.1-0.2,0.3-0.4,0.5-0.4l2.7-1.1c0.1,0,0.2-0.1,0.4-0.1l3-0.1l2.7,0.1c0.3,0,0.6-0.1,0.8-0.4l2.6-3.5 c0.2-0.3,0.5-0.4,0.8-0.4l2.7,0.1H80l2.6,0.1c0.4,0,0.7-0.2,0.9-0.5l2.7-5c0.1-0.2,0.2-0.3,0.4-0.4l2.7-1.4 c0.2-0.1,0.3-0.2,0.4-0.4l1.6-2.9c0.5-0.8,1.7-0.6,1.9,0.3l2.6,15.2c0.1,0.4,0.3,0.7,0.7,0.8l2.5,0.9c0.1,0,0.2,0.1,0.3,0.2 l2.2,1.7c0.5,0.4,1.1,0.3,1.5-0.2l2-3.1c0.3-0.5,1.1-0.6,1.5-0.2l0.4,0.4c0.5,0.5,1.4,0.3,1.7-0.4l1.7-5.8c0.3-0.8,1.4-1,1.8-0.2 l2.6,4.7c0.1,0.2,0.3,0.3,0.5,0.4l2.6,1.2c0.2,0.1,0.4,0.3,0.5,0.5l2.9,6.4c0.2,0.4,0.6,0.6,1,0.6l1.8-0.3 c0.4-0.1,0.7-0.3,0.8-0.7l3-11.4l1.9-4.4c0.4-0.9,1.7-0.8,1.9,0.2l2.4,14.4c0.1,0.7,0.9,1.1,1.5,0.7l1.6-1 c0.2-0.1,0.4-0.2,0.7-0.1l2.8,0.4l3.2,0.2l3,0.1c0.2,0,0.3,0,0.5-0.1l2.5-1.2c0.3-0.2,0.7-0.1,1,0.1l2.6,1.7 c0.1,0.1,0.2,0.1,0.3,0.1l2.8,0.7c0.2,0,0.4,0,0.5,0l2.8-0.9c0.1,0,0.2,0,0.2,0l3-0.1c0.1,0,0.1,0,0.2,0l2.2,0.4 c0.5,0.1,1-0.2,1.1-0.7l1.8-6.9c0.3-1,1.6-1,1.9,0l2.2,7.5c0.1,0.4,0.5,0.7,0.9,0.7h2.3c0.1,0,0.2,0,0.2,0l2.9-0.7 c0.1,0,0.2,0,0.3,0l3.1,0.1l3.1-0.2c0.1,0,0.1,0,0.2,0l2.8-0.8c0.2-0.1,0.4-0.1,0.6,0l2.8,1.1h0.1l3.1,0.7l3.1,0.6 c0.1,0,0.1,0,0.2,0l2.9-0.1c0.1,0,0.3,0,0.4-0.1l2.9-1.5c0.1,0,0.1,0,0.2-0.1l4-1.2c0.6-0.2,1.1,0.2,1.3,0.8l0.9,4.1 C210.8,83.1,211,83.4,211.4,83.5z; M211.4,88.9l1.8,0c0.5,0,0.8,0,0.8,0V89H54v-0.2c0,0,0.8,0,1.4,0l1.3,0c0.5,0,1.1,0,1.3,0l2.6-0.1c0.1,0,0.3,0,0.5,0l2.7,0 c0.1,0,0.2,0,0.4,0l3,0l2.7,0c0.3,0,0.6,0,0.8,0l2.6-0.1c0.2,0,0.5,0,0.8,0l2.7,0H80l2.6,0c0.4,0,0.7,0,0.9,0l2.7-0.1 c0.1,0,0.2,0,0.4,0l2.7,0c0.2,0,0.3,0,0.4,0l1.6-0.1c0.5,0,1.7,0,1.9,0l2.6,0.4c0.1,0,0.3,0,0.7,0l2.5,0c0.1,0,0.2,0,0.3,0l2.2,0 c0.5,0,1.1,0,1.5,0l2-0.1c0.3,0,1.1,0,1.5,0l0.4,0c0.5,0,1.4,0,1.7,0l1.7-0.1c0.3,0,1.4,0,1.8,0l2.6,0.1c0.1,0,0.3,0,0.5,0l2.6,0 c0.2,0,0.4,0,0.5,0l2.9,0.2c0.2,0,0.6,0,1,0l1.8,0c0.4,0,0.7,0,0.8,0l3-0.3l1.9-0.1c0.4,0,1.7,0,1.9,0l2.4,0.4c0.1,0,0.9,0,1.5,0 l1.6,0c0.2,0,0.4,0,0.7,0l2.8,0l3.2,0l3,0c0.2,0,0.3,0,0.5,0l2.5,0c0.3,0,0.7,0,1,0l2.6,0c0.1,0,0.2,0,0.3,0l2.8,0 c0.2,0,0.4,0,0.5,0l2.8,0c0.1,0,0.2,0,0.2,0l3,0c0.1,0,0.1,0,0.2,0l2.2,0c0.5,0,1,0,1.1,0l1.8-0.2c0.3,0,1.6,0,1.9,0l2.2,0.2 c0.1,0,0.5,0,0.9,0h2.3c0.1,0,0.2,0,0.2,0l2.9,0c0.1,0,0.2,0,0.3,0l3.1,0l3.1,0c0.1,0,0.1,0,0.2,0l2.8,0c0.2,0,0.4,0,0.6,0l2.8,0 h0.1l3.1,0l3.1,0c0.1,0,0.1,0,0.2,0l2.9,0c0.1,0,0.3,0,0.4,0l2.9,0c0.1,0,0.1,0,0.2,0l4,0c0.6,0,1.1,0,1.3,0l0.9,0.1 C210.8,88.9,211,88.9,211.4,88.9z; M211.4,83.5l1.8,0.4c0.5,0.1,0.8,0.5,0.8,1V89H54v-9.6c0-0.7,0.8-1.2,1.4-0.9l1.3,0.6c0.5,0.2,1.1,0,1.3-0.4 l2.6-4.8c0.1-0.2,0.3-0.4,0.5-0.4l2.7-1.1c0.1,0,0.2-0.1,0.4-0.1l3-0.1l2.7,0.1c0.3,0,0.6-0.1,0.8-0.4l2.6-3.5 c0.2-0.3,0.5-0.4,0.8-0.4l2.7,0.1H80l2.6,0.1c0.4,0,0.7-0.2,0.9-0.5l2.7-5c0.1-0.2,0.2-0.3,0.4-0.4l2.7-1.4 c0.2-0.1,0.3-0.2,0.4-0.4l1.6-2.9c0.5-0.8,1.7-0.6,1.9,0.3l2.6,15.2c0.1,0.4,0.3,0.7,0.7,0.8l2.5,0.9c0.1,0,0.2,0.1,0.3,0.2 l2.2,1.7c0.5,0.4,1.1,0.3,1.5-0.2l2-3.1c0.3-0.5,1.1-0.6,1.5-0.2l0.4,0.4c0.5,0.5,1.4,0.3,1.7-0.4l1.7-5.8c0.3-0.8,1.4-1,1.8-0.2 l2.6,4.7c0.1,0.2,0.3,0.3,0.5,0.4l2.6,1.2c0.2,0.1,0.4,0.3,0.5,0.5l2.9,6.4c0.2,0.4,0.6,0.6,1,0.6l1.8-0.3 c0.4-0.1,0.7-0.3,0.8-0.7l3-11.4l1.9-4.4c0.4-0.9,1.7-0.8,1.9,0.2l2.4,14.4c0.1,0.7,0.9,1.1,1.5,0.7l1.6-1 c0.2-0.1,0.4-0.2,0.7-0.1l2.8,0.4l3.2,0.2l3,0.1c0.2,0,0.3,0,0.5-0.1l2.5-1.2c0.3-0.2,0.7-0.1,1,0.1l2.6,1.7 c0.1,0.1,0.2,0.1,0.3,0.1l2.8,0.7c0.2,0,0.4,0,0.5,0l2.8-0.9c0.1,0,0.2,0,0.2,0l3-0.1c0.1,0,0.1,0,0.2,0l2.2,0.4 c0.5,0.1,1-0.2,1.1-0.7l1.8-6.9c0.3-1,1.6-1,1.9,0l2.2,7.5c0.1,0.4,0.5,0.7,0.9,0.7h2.3c0.1,0,0.2,0,0.2,0l2.9-0.7 c0.1,0,0.2,0,0.3,0l3.1,0.1l3.1-0.2c0.1,0,0.1,0,0.2,0l2.8-0.8c0.2-0.1,0.4-0.1,0.6,0l2.8,1.1h0.1l3.1,0.7l3.1,0.6 c0.1,0,0.1,0,0.2,0l2.9-0.1c0.1,0,0.3,0,0.4-0.1l2.9-1.5c0.1,0,0.1,0,0.2-0.1l4-1.2c0.6-0.2,1.1,0.2,1.3,0.8l0.9,4.1 C210.8,83.1,211,83.4,211.4,83.5z;"/></path><path class="chart_small" d="m223 79 2.6 1.1 2.5 1.3.3.1 2.2.3h.5l1.8-.6c.4-.1.8 0 1 .3l1.9 2c.2.2.5.3.8.3l2-.1h.4l1.9.6c.4.1.6.4.7.8l1.7 9c.2 1 1.7 1.1 1.9.1l1.4-4.7c.1-.3.3-.5.5-.6l1.9-.9.4-.4 2.2-3.5c.2-.3.5-.5.9-.5l2.1.1h2.6l2.1.1c.3 0 .6-.1.8-.4l2-2.5c.2-.2.5-.4.8-.4l2.1.1 2.5-.1.3-.1 2.2-.8h.6l2.3.5.2.1 2.8 1.2M223 107l2.6-.3 2.6-.4 2.6-.1h.2l2.3.2h.4l2.3-.7.3-.1 2.5.1 2.1-.2c.3 0 .6-.2.8-.5l1.7-2.7c.3-.6 1.1-.6 1.6-.2l1.5 1.6.6.3 2.1.3.3.1 2.3 1.2.5.1h7.4l.4.1 2.3.9.4.1h5l2.5.3h.2l2.5-.2 2.9-.4M223 120l2.6.1 2.6.1h5.2l2.6.1h5.3l2.3.6h.4l2.3-.4h.2l2.6-.1 2.6-.2H259.5l2.6-.2h5.2l2.6-.1h2.6l2.9.1"/><g id="line_a" class="line_a"><path class="st1" d="M66 110.5c0-.3.2-.5.5-.5h40c.3 0 .5.2.5.5s-.2.5-.5.5h-40c-.3 0-.5-.2-.5-.5zM66 122.5c0-.3.2-.5.5-.5h45c.3 0 .5.2.5.5s-.2.5-.5.5h-45c-.3 0-.5-.2-.5-.5zM66 134.5c0-.3.2-.5.5-.5h48c.3 0 .5.2.5.5s-.2.5-.5.5h-48c-.3 0-.5-.2-.5-.5zM66 166.5c0-.3.2-.5.5-.5h50c.3 0 .5.2.5.5s-.2.5-.5.5h-50c-.3 0-.5-.2-.5-.5z"/></g><g id="line_b" class="line_b"><path class="st1" d="M66 116.5c0-.3.2-.5.5-.5h50c.3 0 .5.2.5.5s-.2.5-.5.5h-50c-.3 0-.5-.2-.5-.5zM66 128.5c0-.3.2-.5.5-.5h36c.3 0 .5.2.5.5s-.2.5-.5.5h-36c-.3 0-.5-.2-.5-.5zM66 160.5c0-.3.2-.5.5-.5h40c.3 0 .5.2.5.5s-.2.5-.5.5h-40c-.3 0-.5-.2-.5-.5zM66 172.5c0-.3.2-.5.5-.5h45c.3 0 .5.2.5.5s-.2.5-.5.5h-45c-.3 0-.5-.2-.5-.5z"/></g></svg>
