<svg xmlns="http://www.w3.org/2000/svg" viewBox="0 0 539.1 186.7"><g data-name="Layer 10"><ellipse cx="53.5" cy="164.2" rx="4.7" ry="1.5" fill="#f58452"/><ellipse cx="180.4" cy="181.6" rx="7.2" ry="2.6" fill="#f58452"/><ellipse cx="113.7" cy="159.5" rx="4.3" ry="1.3" fill="#f58452"/><path d="m39 101-5.3-3.6s-2.8 4.7-3.6 6.2A33.4 33.4 0 0 0 28 110c.2-.2 2.4.2 4.1-1.1s3.3-5.4 3.3-5.4l4.5 2.7a48.5 48.5 0 0 0-.8-5.2zm12-9.4-2.2-.6 2.1 18-8.7-5.9 1 5 10 5.8s1.6.8 1.7-.4-3.8-22-3.8-22z" fill="#7c6891"/><path fill="#aba3bb" d="m108.6 118.6 3.7 11 3.9-1-4.7-10.6-3 .6z"/><path d="m110 135.8-17.2 10.5s1.4 3.1 2.8 5.6a13.3 13.3 0 0 0 5 5 5.9 5.9 0 0 0 1.3-3.8c0-2.6-2.3-4.9-2.3-4.9l17.6-10.7-4-2.5a19.8 19.8 0 0 1-3.2.8zm65.5-35.4c.5.4 31.8 58.8 31.8 58.8a27.7 27.7 0 0 1 6.7-4.3 23.4 23.4 0 0 1 8.3-1.8 5.8 5.8 0 0 0-4.8-4.9c-2.9-.6-8 1.7-8 1.7l-30.7-50.2zM30.7 77.5 64.4 61l-8.8 14.8 42-8.3-18.5 22.1 69-28.3-17.5 25.1 64.4-47-2.2-2.6 13.4-2.8-5.3 12.4-2.6-2.7-80.5 56.5L139 68.6 72 95.2l20.1-24.6-39.6 7.7L61 63.9 30.1 79l.6-1.4z" fill="#7c6891"/><path d="M28.9 85.8c.5-.6 22-10.9 22-10.9l-4.2 7.6L79 75.1l-9.7 13.2 49-15.2-9.2 21.7 131.2-68.6-1.5-5.8 30.7-2-26.2 24-1.1-5.8L99.7 104 110 80.7 61.8 93l8.5-12.5L42 86.1l3.5-6.2-17.1 7.3z" fill="#f58452"/><path d="M16.7 147.4h.1s.1-.1 0 0a.9.9 0 0 1 .1-.2v-.2l-3.6-1.8a1 1 0 0 0 .4-.7c0-1.8-7.2-1.8-7.2 0 0 .9 1.8 1.3 3.6 1.3a7.9 7.9 0 0 0 2.6-.3l3.8 1.9zm-6.4-2c-2 0-3.2-.6-3.2-.9s1.3-.9 3.2-.9 3 .6 3 .9-1.2.9-3 .9zm23.2 10.9h.1l.3-.1.1-.2-15.5-8h-.1V148.3l15.1 8zm36.7 8.7a.2.2 0 0 0 0-.1v-.1H69.5l-11.2 1c-.1-2-5.8-2.4-8.8-1.5L36 157h-.5a.1.1 0 0 0 0 .1v.2l13.1 7c-.5.3-.9.7-.9 1.2 0 1.3 2.7 2 5.4 2 2.2 0 4.3-.5 5.1-1.4l12-1.2zm-12.7.6a.3.3 0 0 0-.2.2c-.5.5-2 1-4.4 1-2.9 0-4.7-.7-4.7-1.3s1.8-1.3 4.7-1.3 4.6.8 4.6 1.3v.1zM532 142.3c-2.9 0-8.4.4-8.4 2.2a.8.8 0 0 0 0 .3l-15.2 3.5h1l14.5-3.4c1.2 1.2 5.5 1.6 8 1.6 2.9 0 8.3-.5 8.3-2.3s-5.3-2-8.2-2zm0 3.7c-5 0-7.6-1-7.6-1.5s2.7-1.5 7.6-1.5 7.6 1 7.6 1.5-2.7 1.5-7.6 1.5zm-25.4 3.1 1.2-.3c0-.1 0 0 0 0h-.7l-61.4 14a.3.3 0 0 1 0 .1v.1a4.3 4.3 0 0 0 .6.2l60.2-14a.3.3 0 0 1 .1-.1zm-62.6 14.7v-.1h-.2l-.3-.2-38.7 9c-1.3-1.7-6.3-2.5-11.2-2.5-5.2 0-10.4 1-11.3 2.7l-43.5-6h-.2l-.1.1v.1l.1.3 43.6 6.2c.2 2 5.9 3.1 11.4 3.1s11.5-1.1 11.5-3.3zm-50.4 11.4c-6.9 0-10.5-1.4-10.5-2.2s3.6-2.3 10.5-2.3 10.5 1.5 10.5 2.3-3.6 2.3-10.5 2.3zm-99-14.5.1-.1v-.1l-10-1.5a.6.6 0 0 0 0-.1c0-1.4-3.6-2-7-2s-7.1.6-7.1 2a.8.8 0 0 0 0 .2l-31.3 8.8.1.2h.4l30.9-8.8c.8 1 4 1.4 6.8 1.4s6.2-.5 7-1.6l10 1.4zm-17-.6c-3.6 0-5.7-.7-6.2-1v-.2c0-.4 2.1-1.3 6.3-1.3s6.3.9 6.3 1.3-2.1 1.2-6.3 1.2zm24.4 1.6h.1s0-.1 0 0v-.1l-5.8-.8V161.1l5.7.8zm35.2 4.6v-.1l-33-4.6h-.2v.2l33 4.7h.1s0-.1 0 0v-.1s0-.1 0 0v-.1zM225 172.6a.2.2 0 0 0 0-.1.6.6 0 0 1 0-.2h-.3l-36.5 10.4c-1.1-1.4-4.4-2-7.7-2-3.7 0-7.3.8-8 2.5l-32.1-12.8h-.4v.2l32.5 13c.3 2 4.2 3 8.1 3s8.1-1 8.1-3.1a1.5 1.5 0 0 0 0-.4l36.3-10.5zm-44.6 13c-4.4 0-7.2-1.2-7.2-2s2.8-2.1 7.2-2.1 7.1 1.2 7.1 2-2.8 2.2-7.1 2.2zm57.8-17v-.1l-12.3 3.2v.2h.3l12-3.4s0-.1 0 0zm-99.6 1.6.1-.1v-.2l-.1-.2-8.1-3.2h-.2v.1a.3.3 0 0 0 0 .2l8.2 3.3zm-9.8-4h.4l-11.3-4.8a.9.9 0 0 0 .4-.7c0-2-9.4-2-9.4 0l-37.1 3.5h-.1v.1s0 .1 0 0l.2.2 37-3.7c.7.7 2.7 1 4.6 1a10.6 10.6 0 0 0 3.7-.5l11.4 4.6zm-15.2-4.5c-2.6 0-4.2-.6-4.2-1s1.6-1 4.2-1 4.2.6 4.2 1-1.6 1-4.2 1z" fill="#5c4376"/><path d="M10 141.8a.5.5 0 0 1-.4-.2L8.1 139a.5.5 0 0 1 .2-.7.5.5 0 0 1 .7.2l1 1.6 2.7-8a.5.5 0 0 1 .7-.3.5.5 0 0 1 .3.6l-3.2 9.1a.5.5 0 0 1-.4.4zM52.8 162a.5.5 0 0 1-.4-.2l-2.8-3.7a.5.5 0 0 1 0-.7.5.5 0 0 1 .8.1l2.2 3 4.3-14.7a.5.5 0 0 1 1 .2l-4.6 15.7a.5.5 0 0 1-.4.3zm61.2-4.3a.5.5 0 0 1-.5-.2l-2-3.5a.5.5 0 0 1 .2-.7.5.5 0 0 1 .7.2l1.6 2.7 5.7-11.8a.5.5 0 1 1 .9.4l-6.1 12.7a.5.5 0 0 1-.5.2zM179 179a.5.5 0 0 1-.4-.3l-3.6-6a.5.5 0 0 1 .2-.7.5.5 0 0 1 .7.2l3 5 6.3-18.3a.5.5 0 0 1 1 .3l-6.7 19.3a.5.5 0 0 1-.4.4z" fill="#f58452"/><path fill="#662429" d="m84 83.7-3.5 1-3.5 4.4 3.2-.8 3.9-4.6zM173.7 61l-29 15.2-14 10.2 3.2-4.6-5.7 3-5.7 8.6 15.8-7.5L173.6 61zm-55.7 12.7-32 13.1 20.1-5.1 10.2-4 1.7-4zM173.3 182a2 2 0 0 0 .7.8 13.3 13.3 0 0 1 6.5-1.4 13.6 13.6 0 0 1 6.4 1.3 1.9 1.9 0 0 0 .6-.8c-1.5-1-4.2-1.5-7-1.5s-5.7.6-7.2 1.6zm-63.6-22.2a1.9 1.9 0 0 0 .4.4 12 12 0 0 1 7.2 0 1.9 1.9 0 0 0 .4-.3 12 12 0 0 0-8 0zM49.4 164l-.4-.2a.7.7 0 0 0-.2.5.8.8 0 0 0 .4.6 10.5 10.5 0 0 1 3.6-.6 8.6 8.6 0 0 1 4.4.9 3 3 0 0 0 .7-.4c-1.4-1.3-5.9-1.5-8.5-.8zM7.9 144a7.3 7.3 0 0 1 2.4-.3 7.5 7.5 0 0 1 2.2.3 2.6 2.6 0 0 0 .6-.3 8.4 8.4 0 0 0-5.8 0 2.7 2.7 0 0 0 .6.3z"/><ellipse cx="38.5" cy="41.3" rx="2.8" ry="2.7" fill="#f58452"/><ellipse cx="48.5" cy="39.9" rx="3.2" ry="3" fill="#7c6891"/><path d="M36.3 106v-.2l-3-2a.5.5 0 0 0-.5 0 .5.5 0 0 0-.3.4 5.4 5.4 0 0 1-2 3.2 7.3 7.3 0 0 1-3.4 1.2c0-.4-.1-1.7 1.5-5l.8-1.6a2.5 2.5 0 0 0 0-.2v-.4H29a2.1 2.1 0 0 0-.3.1l-.9 1.7c-2.4 4.9-1.6 6-1.1 6.4a.5.5 0 0 0 .3 0 8 8 0 0 0 4.1-1.5 6.3 6.3 0 0 0 2.3-3.2l2 1.4a2.5 2.5 0 0 0 .4 0 1.5 1.5 0 0 0 .2 0h.2c.1 0 0 0 0 0l.2-.3z" fill="#5c4376"/><path d="M199.4 139h.6V138.7a3.5 3.5 0 0 0-.2-.5.2.2 0 0 1 0-.1l-14-23.8a1.4 1.4 0 0 0-.5 0s-.1 0 0 0l-.1.1a.3.3 0 0 0 0 .1v.4l14.1 24.1zm21.6 13.6c-.7-1-3.5-2.4-7.3-1.9a11.2 11.2 0 0 0-4.8 2l-.4.3-7.6-13.1s-.2 0 0 0a.8.8 0 0 0-.3 0 1 1 0 0 0-.3.4.1.1 0 0 0 0 .1.9.9 0 0 0 0 .2l7.5 13a.6.6 0 0 0 .4.4c.3.1.7-.1 1.3-.5a10.3 10.3 0 0 1 4.4-1.8 9 9 0 0 1 5.7 1 14 14 0 0 0-5.2 1c-3 1.2-6.6 3.8-8 5.8a6 6 0 0 0-.7 1.3l-2.6-4.8h-.1a1.6 1.6 0 0 0-.5 0 .6.6 0 0 0-.3.3l3.4 6.5.1.1a.6.6 0 0 0 .3 0h.1a38.4 38.4 0 0 0 8-3.5c4.5-2.9 6.2-4.2 7-5.6a1.1 1.1 0 0 0-.1-1.2zm-7.5 6a37.3 37.3 0 0 1-7.1 3.3 3.5 3.5 0 0 1 .7-1.8c1.3-1.8 4.8-4.3 7.6-5.4s4.7-1.1 5.4-1c-.9 1.1-2.6 2.4-6.6 4.9z" fill="#3f2b56"/><path d="M201.3 154.5h.3s.1 0 0 0h.2l.2-.2-13-25.3a2.4 2.4 0 0 0-.3-.3h-.4a.4.4 0 0 0 0 .2.6.6 0 0 0 0 .2l13 25.2zm4.9-66.6a2.6 2.6 0 0 0-.5-.4.4.4 0 0 0-.2 0h-.2v.1l-.8 5.8c0 .2.1 2.3-2.9 2.8l-3 .4-4.1.4v-4.6a.3.3 0 1 0-.5 0v4.7l-9 1.2-.3-4.4a.2.2 0 0 0-.3-.3.3.3 0 0 0-.2.3l.3 4.4-7.6 1.2-2.3.4-1-3.3a.3.3 0 0 0-.2-.2.3.3 0 0 0-.2.3l1 3.3-.5.1a.5.5 0 0 0-.3 0l-7.4 1.5-.9-3.7a.2.2 0 0 0-.3-.2.3.3 0 0 0-.1.3l.8 3.7c-3.4.7-7 1.5-10.3 2.5l-.8-4.6a.3.3 0 0 0-.3-.2.3.3 0 0 0-.2.2l.8 4.7-1.1.3c0 .2-11.7 40.9-12.6 42.9a1.2 1.2 0 0 1-.8.8 3 3 0 0 1-2.1-.6l-24.9-13.3a.5.5 0 0 0-.4 0 11.3 11.3 0 0 1-5.4 1 4.3 4.3 0 0 1-3.4-1.4 31.9 31.9 0 0 1 6.2-3 39.7 39.7 0 0 1 6.7-1.7l20 12.6a.5.5 0 0 0 .4 0 .5.5 0 0 0 .3-.3s13.8-36 14-36.3c-2.2.6-4 1.2-6 2l-1.7-3.5a.3.3 0 0 0-.4.2l1.5 3.4-1.7.7-6.7 2.5-1.6-3.8a.2.2 0 0 0-.3-.2.3.3 0 0 0-.1.4l1.5 3.8-4.9 1.6-.1.2.3.3.3.1a183 183 0 0 0 12-4.2l6.2-2.2-13 33.8-19.6-12.3a.5.5 0 0 0-.3-.1l-2.5.5-1.3-3h-.4a.6.6 0 0 0-.1 0h-.2v.1a.8.8 0 0 0-.1.3l1.3 2.8c-.9.2-1.8.4-2.8.8l-3.5-10.5 1.7-.3 2.4 5.2a.7.7 0 0 0 .3.1h.4a1.3 1.3 0 0 1 0-.1l-2.2-5a194.1 194.1 0 0 0 19.2-4.8 4.7 4.7 0 0 0 .6-.4 1.5 1.5 0 0 0 .2-.1v-.4l-.1-.1-.2-.1-2.2.7-1.3-3.7a.3.3 0 0 0-.3-.2.3.3 0 0 0-.2.4l1.2 3.5c-3.3 1-6.3 1.7-9 2.4l-1-3.1a.3.3 0 1 0-.5.1l1 3.1-8.2 1.8h-.5v-3.7a.3.3 0 0 0-.5 0v3.8c-3 .6-4.9.8-5 .8l-1.6-.9a.5.5 0 0 0-.4 0l-2.4.4.6-3.8a.2.2 0 0 0-.2-.3.3.3 0 0 0-.3.2l-.7 4h-.5l-15.6-14L95.6 87a.5.5 0 0 0 0-.7.5.5 0 0 0-.8 0L81 104.3a.5.5 0 0 0 0 .7l16.2 14.6a.5.5 0 0 0 .4.1l3.6-.6 1.8 1-.7.6a.5.5 0 0 0-.1.4.5.5 0 0 0 .2.4l2.8 2.4-1 1.4-.8-.6a.5.5 0 0 0-.6 0l-1.4 1.3-.8-.5a.5.5 0 0 0-.6 0l-1 1-9.3-9.5a.5.5 0 0 0-.4-.3c-4.8-5-9.6-10-10.4-10.6-1-.9-.6-1.6-.5-1.8l15.9-18.1a.5.5 0 0 0 0-.7.5.5 0 0 0-.7 0l-16 18.2a2.3 2.3 0 0 0 .7 3.2l9.6 9.8 1.6 1.5-2.9 9.3a2.3 2.3 0 0 1-1 1.4.6.6 0 0 0-.1 0l-13.8 12.4a.5.5 0 0 0-.2.3v2.6a.5.5 0 0 0 .3.5s1 .4 1.8 2.5a5.6 5.6 0 0 1 .3 3.4 12.3 12.3 0 0 1-2.8-.9c-2.2-.9-3.4-1.9-3.6-4.4s1.1-6.3 1.4-7l15-11.5a.5.5 0 0 0 .1-.2l3.8-9.7a29.5 29.5 0 0 1-7.2-2.4l1.7-2.9a.3.3 0 1 0-.4-.2l-1.8 2.9-1.4-.8a24.1 24.1 0 0 1-5-3.6l2.5-3a.2.2 0 0 0 0-.3.3.3 0 0 0-.4 0l-2.4 3a81 81 0 0 1-4.1-4.3l-.4-.4 1.9-2a.3.3 0 0 0 0-.3.3.3 0 0 0-.4 0l-1.8 2c-1.5-1.6-3-3.3-5-5.1l2.2-2.6a.3.3 0 0 0 0-.3.3.3 0 0 0-.4 0L63.1 99l-3.5-3.2-1.3-1 2.2-3a.3.3 0 0 0 0-.3.3.3 0 0 0-.4 0l-2.2 3a27 27 0 0 0-6-3.2l1.4-3.3a.3.3 0 1 0-.5-.2l-1.4 3.3a27 27 0 0 0-3.4-1 .5.5 0 0 0-.4-.1h-.1a27.6 27.6 0 0 0-3.9-.5l.8-3a.3.3 0 0 0-.2-.2.2.2 0 0 0-.3.2l-.8 3a21.4 21.4 0 0 0-3.7.2.5.5 0 0 0-.3.2.5.5 0 0 0-.1.3l2.8 14.4 4.7 25a.5.5 0 0 0 .6.5 15.5 15.5 0 0 1 4.5-.2 7 7 0 0 1 1.3.4 14.6 14.6 0 0 0-3.6.9 9.2 9.2 0 0 0-4.4 2.8l-7.1-43.6a.5.5 0 0 0-.5-.5 21.4 21.4 0 0 0-2.8.3l1-3.3a.3.3 0 0 0-.3-.3.3.3 0 0 0-.3.2l-.9 3.5-3.6.6-2.9.6 1.4-5.7 2.4-.2a.3.3 0 0 0 .2-.3.3.3 0 0 0-.3-.2l-2.2.2 1.3-5.2 2.9-.7a.3.3 0 1 0-.1-.5l-2.7.6 1.2-5.1 2.1-.4a.3.3 0 0 0 .2-.2.3.3 0 0 0-.3-.3l-1.9.4.4-1.7 5.4-1a.5.5 0 0 0 .4-.5.5.5 0 0 0-.6-.4l-14 2.6a.6.6 0 0 0-.3.1L6.5 89l-.8-.2-.2-.2.4-.1a.5.5 0 0 0 .3-.3.5.5 0 0 0 0-.4l-1-1.5a.5.5 0 0 0-.4-.3l-1.6.3a.5.5 0 0 0 .2 1l1.2-.2.4.7h-.1a.5.5 0 0 0-.3 0l-1.4.3L1.8 86l.5-.7H3a.5.5 0 0 0 .4-.4l.3-.8h.7a.5.5 0 0 0 .5-.3l.4-1.1h1.1L7.6 84a.5.5 0 0 0 .4.2.6.6 0 0 0 .3-.1L22 72a2.1 2.1 0 0 1 1.5-.6l14-1.8a.5.5 0 0 0 .5-.6.5.5 0 0 0-.6-.4l-4.4.6.7-2.8 2.6-.5a.3.3 0 0 0 .2-.3.2.2 0 0 0-.3-.2l-2.4.5 1-4.6 2-.2a.3.3 0 0 0 .2-.3.3.3 0 0 0-.3-.2l-1.8.2 1-4.5 3-.3a.3.3 0 0 0 .2-.2.2.2 0 0 0-.3-.2l-2.8.2a10.3 10.3 0 0 0 .3-1.6.3.3 0 0 0-.3-.2.3.3 0 0 0-.2.3 13 13 0 0 1-.3 1.6l-2.6.2a.3.3 0 0 0-.3.3.2.2 0 0 0 .3.2l2.5-.2-1 4.5-2 .2a.3.3 0 0 0 0 .5l1.8-.2-1 4.6-2.9.5a.3.3 0 0 0-.2.3.3.3 0 0 0 .3.2l2.6-.5-.6 2.8-6.3.7 1.1-4.7v-.1c-.4 0-.7.2-1 .3L25 70.2l-1.5.2a3.2 3.2 0 0 0-2.3.8L8.1 83l-1-1.1a.5.5 0 0 0-.3-.2H5a.5.5 0 0 0-.5.3l-.4 1h-.8a.5.5 0 0 0-.5.4l-.3.8-.7.1a.5.5 0 0 0-.3.2l-.8 1.1a.5.5 0 0 0 0 .6L2.6 89a.5.5 0 0 0 .5.2l1.3-.2a.4.4 0 0 0 .1 0l.5.7a.5.5 0 0 0 .3.2l1.2.3h.1a.5.5 0 0 0 .4-.2l16.6-16 .5-.2-1.4 5.8.3.3v.1h.1a3.3 3.3 0 0 0 .5-.1l1.6-6.3 6.3-1.2-.3 1.6-2 .3a.3.3 0 0 0 0 .5l1.8-.3-1.3 5.2-2.9.6a.2.2 0 0 0-.2.3.3.3 0 0 0 .3.2h.1l2.7-.6-1.3 5.2-2.8.3a.3.3 0 0 0-.2.3.3.3 0 0 0 .3.2l2.6-.3-1.4 5.8-.9.2c-1.5.4-2.9.7-4.1.8a1.1 1.1 0 0 1-1-.1 1.5 1.5 0 0 1 0-1.2l2.1-9a6.7 6.7 0 0 0-1-.2l-2 9a2.4 2.4 0 0 0 .3 2 2 2 0 0 0 1.8.6l4.2-.9 4.4-.9a52.3 52.3 0 0 1 6.1-.9l1.9 11.2-7.2-4.4a.5.5 0 0 0-.6 0 10.5 10.5 0 0 0-1.1 1.5l-.1.2v.3h.6a13 13 0 0 1 1-1.2l7.4 4.6.8 4.7-2.2-1.5h-.1a1 1 0 0 1-.2.6v.1a.7.7 0 0 0 0 .2v.2l2.7 1.8h.1l4.3 26.2a.5.5 0 0 0 .5.5 18.6 18.6 0 0 0 5.8-1.4 17 17 0 0 0 5.3-2.8.5.5 0 0 0 0-.7 6.8 6.8 0 0 0-4-2 14.6 14.6 0 0 0-4.3 0l-3.5-18.5 6.7 4a3.2 3.2 0 0 0 1.5.5 1.4 1.4 0 0 0 .8-.2 2.4 2.4 0 0 0 .8-2.1l-.8-4.7-.2-.1-.2-.1h-.2v.1l-.3.4.8 4.5c0 .3 0 1-.3 1.2s-.8 0-1.4-.3l-7.4-4.5-.7-3.5 6.8 4.5a.5.5 0 0 0 .3 0 .5.5 0 0 0 .3 0 .5.5 0 0 0 .2-.5l-2.4-18.5.8.2 2.5 14.3a.2.2 0 0 1 .1.2v.4a1 1 0 0 1 0 .2h.4l.2-.1h.2a2.7 2.7 0 0 0 .1-.4l-2.4-14.3a26 26 0 0 1 8.8 4.8 93.4 93.4 0 0 1 9.6 9.3c3.2 3.5 5.8 6.3 9.8 8.4a29 29 0 0 0 8.1 3.1l-3.3 8.6-15 11.4a.5.5 0 0 0 0 .2c-.2.2-1.8 4.8-1.6 7.7s1.8 4.2 4.2 5.2a10.3 10.3 0 0 0 3.5 1 .5.5 0 0 0 .5-.3 6 6 0 0 0-.2-4.4 5.7 5.7 0 0 0-2-3v-2l13.6-12.1a3.3 3.3 0 0 0 1.5-2l2.7-8.8 8.4 8.7a.4.4 0 0 0 .3.1.5.5 0 0 0 .4-.1l1-1.1.9.4a.5.5 0 0 0 .6 0l1.3-1.3.8.6a.5.5 0 0 0 .7 0l1.7-2.2a.5.5 0 0 0 0-.6l-2.9-2.5.8-.7a.5.5 0 0 0 0-.4l2-.3 3.5 10.6a31.7 31.7 0 0 0-6.8 3.4.5.5 0 0 0-.1.6 4.2 4.2 0 0 0 2.5 2l-7.1 4.2a.6.6 0 0 0 0 .4v.2a2.5 2.5 0 0 0 .6 0l7.8-4.5a5.1 5.1 0 0 0 .6 0 12.8 12.8 0 0 0 5.6-1.1l.2.1-16.3 12a.5.5 0 0 0-.1.7 8.7 8.7 0 0 1 1.4 3.9 7.5 7.5 0 0 1-.5 4c-1-.4-3.6-1.6-4.9-3.5a17.7 17.7 0 0 1-2-6.6l6.2-3.6a.8.8 0 0 0 0-.2 1.4 1.4 0 0 0 0-.4v-.2h-.2l-6.8 4a.5.5 0 0 0-.2.4c0 .2.4 4.6 2.1 7.3s5.7 4 5.9 4.1h.1a.5.5 0 0 0 .4-.2 7.7 7.7 0 0 0 .9-5 9.8 9.8 0 0 0-1.4-3.7l16.4-12 23.3 12.5a4.8 4.8 0 0 0 2.3.7 2.4 2.4 0 0 0 .7 0 2.2 2.2 0 0 0 1.4-1.4c1-2.2 11.9-40.5 12.4-42.4 6.3-1.8 12.9-3.2 19-4.4l14 26.6a1 1 0 0 0 .1 0h.3a1 1 0 0 0 .3-.1s0-.1 0 0L174.4 101l2.3-.4 7.4 12.7h.4a.4.4 0 0 1 0-.1v-.3l-7-12.2c9-1.5 16.8-2.4 21-2.9l3-.4c3.9-.6 3.7-3.7 3.7-3.7s.6-2.5 1-5.8zM54.5 131.6a19.1 19.1 0 0 1-4.4 2.2 22.4 22.4 0 0 1-4.5 1.2 8 8 0 0 1 4-2.6c3.1-1.2 4.4-1 4.9-.8zm-5-22.7-6.8-4.5-2.6-13.7a23.9 23.9 0 0 1 7.1.3z" fill="#3f2b56"/><path d="m215.5 67.4-1.5-2.2.8-1.2a.5.5 0 0 0 0-.6l-1.6-1.7 1.2-1.7a.5.5 0 0 0 0-.6l-1.9-2.4a.5.5 0 0 0-.3-.2.5.5 0 0 0-.4.1l-2.1 1.8 2.7-22.8a1 1 0 0 0-.7.1 2.5 2.5 0 0 0-.3.2c-1 7.7-2 15.8-2.8 23.5l-.6.4-1-1a.5.5 0 0 0-.3-.1.5.5 0 0 0-.4.2l-3.5 4.3a.5.5 0 0 0-.1.4l1 4-27.2 21.8-17.6-22.3a.5.5 0 0 0-.7-.1.5.5 0 0 0 0 .7L176 90.7a.6.6 0 0 0 .3.2.5.5 0 0 0 .4-.2l28-22.3a.5.5 0 0 0 0-.5l-1-4 3-3.7 1 1a.5.5 0 0 0 .6 0L212 58l1.3 1.7-1.3 1.8a.5.5 0 0 0 0 .6l1.6 1.7-.6 1.2a.5.5 0 0 0 0 .6l1.4 2L177 96.4a1.5 1.5 0 0 1-1 .6 1.2 1.2 0 0 1-.9-.5c-1.3-1.7-17.7-27-17.8-27.2a.5.5 0 1 0-.9.6c.7 1 16.6 25.5 18 27.2a2.1 2.1 0 0 0 1.6 1 2.4 2.4 0 0 0 1.7-1l29-22.5-1.2 10.3a2 2 0 0 0 1 .1L208 74l7.5-5.8a.5.5 0 0 0 0-.7zm0-66.5a4 4 0 0 0-3-.9c-3.2 0-12 2.5-24 7-13.7 5-46.8 28-47 28.3l-2.3 1.3c-10.3 6-27.6 16-43.1 14.7A44.5 44.5 0 0 1 73 41.7a64.4 64.4 0 0 0-11.8-6.9c-7.5-3.1-16.5-2-26.8 3.5l-.6.3a3 3 0 0 0-1.9 2.6l-5.3 22.2.2.3c.2 0 .4-.2.5-.3l.2-.1 3-12.3s5.7-4.4 22.4-3.1c10.2.7 16 5.3 21.7 9.8 5.3 4 10.2 8 18 8.4h1.5c13.5 0 32.6-9.8 48-17.7l9.8-5a253.2 253.2 0 0 1 48.6-17.3 52.5 52.5 0 0 1 12.2-1.5l-1 9.3a1 1 0 0 0 .3.1.5.5 0 0 0 .1 0 1 1 0 0 0 .5-.3l3.5-29.3c.3-1.7 0-2.8-.5-3.5zM39 45a2.7 2.7 0 1 1 2.7-2.7 2.7 2.7 0 0 1-2.7 2.7zm10.2-1a3 3 0 1 1 3-3 3 3 0 0 1-3 3zm13.2-.7a3.2 3.2 0 1 1-2-4 3.2 3.2 0 0 1 2 4z" fill="#3f2b56"/><path d="m45 135 .5-.1z" fill="#5c4376"/><path d="m40.3 40.8-1.2.8-.7-1.1a.4.4 0 0 0-.6-.1.4.4 0 0 0 0 .5l.7 1.2-1.4 1a.4.4 0 0 0 .2.7.3.3 0 0 0 .2 0l1.5-1.1 1 1.4a.4.4 0 0 0 .2.1.4.4 0 0 0 .2 0 .4.4 0 0 0 .2-.6l-1-1.4 1.1-.8a.4.4 0 0 0 .1-.6.4.4 0 0 0-.5 0z" fill="#662429"/><path d="m51.1 40.6-4-.2a.4.4 0 0 0-.4.4.4.4 0 0 0 .4.4l4 .1a.4.4 0 0 0 .3-.3.4.4 0 0 0-.3-.4z" fill="#231338"/><path d="m61.1 42.5-1.3-.4.6-1.8a.4.4 0 1 0-.7-.2l-.6 1.7-1.9-.5a.4.4 0 1 0-.2.7l1.9.6-.6 1.6a.4.4 0 0 0 .3.5.4.4 0 0 0 .4-.3l.6-1.6 1.3.4a.2.2 0 0 0 .1 0 .4.4 0 0 0 .1-.7z" fill="#3f2b56"/><path d="M48.5 36.9a3 3 0 0 0-3.2 3 2.8 2.8 0 0 0 .9 2 2.9 2.9 0 0 1-.2-1 3 3 0 0 1 5.5-1.9 3.2 3.2 0 0 0-3-2.1z" fill="#231338"/><path d="M36.3 42.2a2.7 2.7 0 0 1 2.6-2.7 2.6 2.6 0 0 1 2.3 1.4 2.8 2.8 0 0 0-5.6.4 2.6 2.6 0 0 0 .8 1.8 2.5 2.5 0 0 1-.1-.9z" fill="#471a20"/></g></svg>
