<?xml version="1.0" encoding="UTF-8"?>
<svg xmlns="http://www.w3.org/2000/svg" data-name="Waiting For Events" viewBox="0 0 246.43 147.336" width="2400" height="1434.1463414634"><path fill="#fca9cb" d="M9.517 132.253l215.438-3.714 9.49-106.722L0 8.487l9.517 123.766z"/><path fill="#e7e1ec" d="M245.846 97.433v6.36c-.667 15.64-36.676 27.392-115.6 30.177-45.5 1.606-111.885-7.428-111.885-22.516v-6.36S16.465 94.04 54.378 87.126c38.471-7.014 104.247-13.376 149.429-7.012 43.504 6.128 42.04 17.318 42.04 17.318z"/><path fill="#b39ed3" d="M178.836 71.883c.763 3.322.221 7.83-1.539 13.074l10.122 7.805 1.204.982.136.662-2.254 11.21 3.229.487 5.36-7.676h6.337l13.89 5.666 2.436-2.01-9.199-6.336.061-1.158 13.452 1.562.499-3.694-13.22-2.924 6.275-2.254-.487-2.498-11.332 1.158h-.958l-1.356-.853-22.656-13.203zM123.856 69.791c-2.407-1.78-5.323-2.577-8.753-1.253-4.685 1.809-6.104 6.666-6.262 11.384l-.879.073c-12.39 1.058-25.938 2.523-38.669 4.491L68.241 98.76s6.024 6.125 6.84 6.738l4.493 3.37-2.042 3.266s-4.594-1.837-5.207-2.042-3.37-2.348-3.37-2.348l-2.33 1.838v9.086l-3.897.307-1.736-8.78h-2.348l-4.696 8.167-3.573-.408 1.837-8.679-2.042-.51-8.678 3.777-1.123-2.858 7.045-4.288 2.96-4.084 5.118-16.766-22.018-17.857s-1.503-1.098-1.645-3.534c-.183-3.13 1.767-4.569 1.767-4.569l12.35-10.876 14.335 9.554c-.915-11.984-5.902-16.981-5.902-16.981l20.303-17.884 9.94 5.738c-.79-7.573-3.788-11.16-3.788-11.16a10496.51 10496.51 0 0 0 17.337-15.29c1.828-1.645 3.297-1.1 3.297-1.1l1.272.308 1.462.487c1.462.487 2.132 3.046 2.132 3.046l26.58 62.394"/><path fill="#5e468c" d="M96.528 81.062c-2.521-23.163-11.724-36.19-11.724-36.19l-4.658 7.252c8.278 13.348 9.316 29.695 9.316 29.695l7.066-.757z"/><path fill="#f6f6f8" d="M96.528 14.2s-1.621 4.748-1.751 7.571c-.193 4.171 4.107 4.171 3.722.193-.18-1.857-1.97-7.765-1.97-7.765z"/><path fill="#b39ed3" d="M122.71 42.87l28.302 21.842c4.855.192 9.916 1.097 14.838 3.086 0 0 1.496-1.262 3.25-1.588l-48.482-28.252 2.092 4.911z"/><path fill="#e1557a" d="M99.38 104.476l38.49 11.945 39.103-5.002-3.653-24.91 3.04 1.02s2.477-6.137 2.639-9.717.458-9.325-4.406-11.338-8.743 1.324-8.743 1.324-6.663-3.463-19.128-3.063-22.869 5.06-22.869 5.06-3.46-3.449-9.45-.95-6.149 10.783-4.722 19.756l-9.178 6.38-1.123 9.495 38.49 11.946 39.103-5.003-5.105-34.815-7.964-1.531c-.307-.035-.613-.07-.918-.102"/><path fill="#5e468c" d="M54.378 40.282l12.475 7.038-3.632 11.902-2.94-1.96c-.916-11.983-5.903-16.98-5.903-16.98M71.848 50.139l1.381.779s8.2 10.963 8.264 28.512l-11.8-.235.585-7.887 2.95-4.065-2.418-3.112 1.038-13.992zM80.834 16.977l9.093 4.84s5.947 7.226 12.165 22.735c6.742 16.813 7.837 29.413 7.837 29.413s-1.251 3.227-1.088 5.957l-5.15.45c-3.845-34.28-17.808-51.508-17.808-51.508l-1.26-.728s-.61-7.327-3.789-11.159zM126.687 68.718l-24.402-57.15-3.08 6.096-1.099 2.227s.332 1.033.417 2.628l1.195 2.405s10.652 17.578 16.147 43.356c0 0 4.063-1.626 7.989 1.515l2.833-1.077z"/><path fill="#b23f70" d="M109.681 88.6l.521 2.195s13.527 1.578 22.257-6.84l-2.218-5.568 5.587.974 2.042 37.06-38.49-11.945 1.123-9.495 9.178-6.38z"/><g><path fill="none" stroke="#3f2b56" stroke-linecap="round" stroke-linejoin="round" d="M245.846 97.433c2.137 14.153-36.676 27.391-115.6 30.177-45.5 1.606-111.885-7.428-111.885-22.517v6.36c0 15.089 66.386 24.123 111.886 22.517 78.923-2.785 115.683-15.942 115.6-30.177v-6.36zM69.287 84.486c12.73-1.968 26.285-3.433 38.675-4.49l.871-.074"/><path fill="none" stroke="#3f2b56" stroke-linecap="round" stroke-linejoin="round" d="M190.585 78.73c36.194 2.902 54.09 10.941 55.261 18.703 2.137 14.153-36.676 27.391-115.6 30.177-45.5 1.606-111.885-7.428-111.885-22.517 0-8.02 15.705-13.86 36.364-18.037"/><path fill="none" stroke="#3f2b56" stroke-linecap="round" stroke-linejoin="round" d="M68.241 98.759s6.024 6.125 6.84 6.738l4.493 3.37-2.042 3.266s-4.594-1.837-5.207-2.042-3.37-2.348-3.37-2.348l-2.33 1.838v9.086l-3.897.307-1.736-8.78h-2.348l-4.696 8.167-3.573-.408 1.837-8.679-2.042-.51-8.678 3.777-1.123-2.858 7.045-4.288 2.96-4.084 20.318-66.566M72.938 35.459l-4.526 60.993M132.46 83.955s-7.658 8.372-22.258 6.84c0 0-5.28-18.327 4.9-22.257 11.64-4.492 17.357 15.417 17.357 15.417zM123.853 69.795c6.052-2.474 26.212-9.458 43.931-1.154"/><path fill="none" stroke="#3f2b56" stroke-linecap="round" stroke-linejoin="round" d="M165.85 67.797c1.871-1.3 4.86-2.659 8.264-1.505 6.024 2.042 6.534 10.312 2.246 21.236 0 0-1.246-.4-3.04-1.019M136.48 75.296a88.58 88.58 0 0 0-7.133 1.235M156.35 74.464a112.574 112.574 0 0 0-13.471.177"/><path fill="none" stroke="#3f2b56" stroke-linecap="round" stroke-linejoin="round" d="M109.681 88.6l-9.178 6.381-1.123 9.495 38.49 11.945 39.103-5.002-5.105-34.815-7.963-1.531c-.308-.036-.614-.07-.92-.102M135.964 81.819l1.906 34.602M171.868 76.604l-36.04 2.757M136.339 76.604l.816-7.555 5.105-.204.817 7.657"/><path fill="none" stroke="#3f2b56" stroke-linecap="round" stroke-linejoin="round" d="M156.35 75.787l.714-8.065 5.105.102.817 7.657M109.475 87.528s13.633.954 21.678-7.18M172.673 82.095l4.92 1.951"/><path fill="#3f2b56" d="M112.793 79.995c.484-.018 1.3.161 1.37 2.044.032.856-.453 1.612-1.21 1.604-.677-.008-1.214-.732-1.213-1.824 0-.906.326-1.797 1.053-1.824z"/><path fill="none" stroke="#3f2b56" stroke-linecap="round" stroke-linejoin="round" d="M112.952 81.819s-3.865 4.781-5.31 12.915 2.804 9.77 4.098 9.962 3.892.097 4.133-2.262-4.187-2.647-6.738-1.54-5.198 3.417-5.294 7.412c-.097 3.994 3.465 5.342 5.438 4.572 1.759-.686 1.733-2.984-.866-3.946s-5.968-.241-7.027 2.983.867 5.487 2.695 6.498 5.294.818 5.439-1.396-6.016-1.877-6.209 1.78 2.166 5.872 6.209 5.824 6.034-4.53 4.62-5.486c-1.636-1.107-3.754 1.203-3.946 3.898-.182 2.545.289 5.631 3.898 6.064 3.552.426 7.075-2.021 7.556-4.331.547-2.623-1.973-3.899-3.417-2.31-1.352 1.487-1.155 4.475 1.925 7.267 3.08 2.791 8.519-.578 9.193-2.888s.048-3.898-1.444-3.898-2.31 2.07-2.021 3.706 1.973 5.342 5.727 5.438c3.464.09 5.755-1.822 6.257-3.898.673-2.792-.337-5.439-2.214-5.102-2.04.366-1.637 3.899 0 5.92s4.235 2.358 5.871 2.07c2.91-.514 5.102-3.995 4.476-7.46s-3.658-3.129-3.561-.963 1.443 5.102 5.63 5.68 5.006-4.188 4.765-6.643-2.214-4.668-3.706-3.705.953 6.46 5.728 5.486c4.957-1.01 4.235-10.396-.193-13.765-3.882-2.953-6.003-.604-5.39 1.204.914 2.695 6.69 3.561 7.46-1.781.874-6.069-2.84-10.107-10.492-11.021"/><path fill="#3f2b56" d="M142.428 97.631c.365-2.13 2.216-3.05 3.754-2.701 2.204.499 2.732 2.506 2.525 3.656-.298 1.652-1.596 3.076-3.54 2.815-1.78-.239-3.076-1.8-2.739-3.77z"/><path fill="none" stroke="#3f2b56" stroke-linecap="round" stroke-linejoin="round" d="M163.372 108.79l-.605-7.137 6.277-.414.733 6.787-6.405.764z"/><path fill="none" stroke="#3f2b56" stroke-linecap="round" stroke-linejoin="round" d="M165.762 105.413s1.748-.14 3.11 1.202c1.926 1.897 3.586 5.844 5.779 8.174.751.799 4.621 1.936 4.621 1.936l-11.63 5.48s9.902.733 11.368.829 3.027.446 3.059 2.74 0 21.062 0 21.062M188.76 94.406l-2.255 11.21 3.229.487 5.36-7.676h6.337l13.89 5.666 2.436-2.01-9.199-6.336.061-1.158 11.697 1.34M222.204 95.686l.366-3.229-13.22-2.924 6.275-2.254-.487-2.498-11.332 1.157M169.1 66.21l-48.482-28.252M201.492 85.086l-22.657-13.203M177.297 84.957l10.122 7.805M122.71 42.869l28.303 21.822M132.913 66.82L106.334 4.428s-.67-2.558-2.132-3.046L102.74.894l-1.272-.307s-1.47-.546-3.297 1.099c-.605.544-7.876 6.955-17.337 15.291 0 0 2.998 3.586 3.788 11.159l-9.94-5.738-20.303 17.884s4.986 4.997 5.902 16.98L45.945 47.71l-12.35 10.875s-1.95 1.44-1.766 4.57c.142 2.435 1.645 3.533 1.645 3.533l22.018 17.857M85.883 28.864L73.229 50.918"/><path fill="none" stroke="#3f2b56" stroke-linecap="round" stroke-linejoin="round" d="M106.157 3.882s-.695-1.92-2.918-1.87-3.334 2.415-3.334 2.415l-9.978 17.39M84.622 28.136l1.261.728s13.963 17.228 17.809 51.508"/><path fill="none" stroke="#3f2b56" stroke-linecap="round" stroke-linejoin="round" d="M80.834 16.977l9.093 4.84s5.947 7.226 12.165 22.735c6.742 16.813 7.837 29.413 7.837 29.413M71.848 50.139l1.381.779s8.2 10.963 8.264 28.512l-11.8-.235M54.378 40.282l12.475 7.038M63.221 59.222l-2.94-1.959"/><path fill="none" stroke="#3f2b56" stroke-linecap="round" stroke-linejoin="round" d="M70.81 64.131l2.419 3.112-2.951 4.065M89.463 81.819s-1.04-16.347-9.317-29.695l4.658-7.251S94.007 57.9 96.53 81.062M96.528 14.2s-1.621 4.748-1.751 7.571c-.193 4.171 4.107 4.171 3.722.193-.18-1.857-1.97-7.765-1.97-7.765zM99.204 17.664l3.08-6.096 24.403 57.15M99.718 24.924s10.652 17.578 16.147 43.356M135.828 79.361l-2.329-.342"/><path fill="#3f2b56" d="M142.879 74.64l.1.941 13.37-.47v-.647s-5.347-.344-13.47.177zM136.398 76.06l-4.901.035s3.09-.792 4.983-.799l-.082.764zM172.045 77.812l3.764 9.537-2.489-.84-1.275-8.697zM122.3 38.938l3.1 6.005-2.69-2.074-2.092-4.911 1.682.98zM72.882 36.202l1.322 13.017-.975 1.699-1.38-.78 1.033-13.936zM193.819 100.255l7.081-1.828h-5.805l-1.276 1.828zM66.626 109.58l5.699.511-3.37-2.348-2.33 1.838zM101.19 13.733l2.218.466-1.123-2.631-1.094 2.165z"/><path fill="#3f2b56" d="M142.384 70.003l1.644 4.638h-1.15l-.494-4.638zM162.37 69.584l1.897 5.587-1.281-.2-.616-5.388zM112.793 79.995c.484-.018 1.3.161 1.37 2.044.032.856-.453 1.612-1.21 1.604-.677-.008-1.214-.732-1.213-1.824 0-.906.326-1.797 1.053-1.824z"/><path fill="#3f2b56" d="M142.879 74.64l.1.941 13.37-.47v-.647s-5.347-.344-13.47.177zM136.398 76.06l-4.901.035s3.09-.792 4.983-.799l-.082.764zM172.045 77.812l3.764 9.537-2.489-.84-1.275-8.697zM122.3 38.938l3.1 6.005-2.69-2.074-2.092-4.911 1.682.98zM72.882 36.202l1.322 13.017-.975 1.699-1.38-.78 1.033-13.936zM193.819 100.255l7.081-1.828h-5.805l-1.276 1.828zM66.626 109.58l5.699.511-3.37-2.348-2.33 1.838zM101.19 13.733l2.218.466-1.123-2.631-1.094 2.165z"/><path fill="none" stroke="#3f2b56" stroke-linecap="round" stroke-linejoin="round" d="M77.886 77.12l-6.133-3.928"/></g></svg>
