<svg version="1.1" xmlns="http://www.w3.org/2000/svg" xmlns:xlink="http://www.w3.org/1999/xlink" x="0px" y="0px" viewBox="0 0 468 73" style="enable-background:new 0 0 468 73;" xml:space="preserve"> <style type="text/css"> .st0{fill:#5A4A79;} .st1{fill:none;stroke:#C1B2DD;stroke-width:1.5;stroke-dasharray:4,2;} .st2{fill:none;stroke:#3E2C73;stroke-width:0.75;} .st3{fill:none;stroke:#FF7738;stroke-width:1.5;} .highlight{fill:#FF7738;stroke:#FF7738;} .dot{fill:#FFFFFF;stroke:#3E2C73;stroke-width:1.5;} .bloop {transform-origin: center center;transform: scale(0);animation: bloop infinite 4s ease-in-out alternate;} .line{fill:none;stroke:#3E2C73;stroke-width:1.5;stroke-linejoin: bevel;stroke-miterlimit: 10;stroke-dasharray: 600;animation: drawline infinite 4s ease-in-out alternate;} @keyframes drawline {from {stroke-dashoffset: -550;}to {stroke-dashoffset: 0;}} @keyframes bloop {0%, 48% {transform: scale(0);}50% {transform: scale(1.2);}52%, 100% {transform: scale(1);}} </style> <g id="background"> <path class="st0" d="M434.5,34h31c0.8,0,1.5,0.7,1.5,1.5s-0.7,1.5-1.5,1.5h-31c-0.8,0-1.5-0.7-1.5-1.5S433.7,34,434.5,34z"/> <path class="st1" d="M467,41L1,43"/> <path class="st0" d="M434.5,17h31c0.8,0,1.5,0.7,1.5,1.5s-0.7,1.5-1.5,1.5h-31c-0.8,0-1.5-0.7-1.5-1.5S433.7,17,434.5,17z"/> <path class="st1" d="M467,24L1,26"/> <path class="st0" d="M434.5,0h31c0.8,0,1.5,0.7,1.5,1.5S466.3,3,465.5,3h-31c-0.8,0-1.5-0.7-1.5-1.5S433.7,0,434.5,0z"/> <path class="st1" d="M467,7L1,9"/> <path class="st2" d="M465,71L1,72"/> <path class="st3" d="M1,70l466,2"/> </g> <g id="highlight"> <circle id="highlight" class="highlight bloop" cx="232.5" cy="32.5" r="14"/> </g> <g id="line"> <path id="line" class="line" d="M467,64.1h-6.1l-5.7,0.7h-0.6l-5.4-1h-0.7l-4.5,0.8c-0.7,0.1-1.5-0.1-1.9-0.7l-4.4-5.4 c-0.5-0.7-1.4-0.9-2.2-0.6l-4.7,1.7l-4.8,2.2c-0.8,0.4-1.7,0.2-2.3-0.4l-5.1-5.2l-5.3-4.9c-0.4-0.4-1.1-0.6-1.7-0.5l-4.9,0.7h-0.3 l-5.9-0.1l-6.1,0.1l-6.1-0.7l-6.1,0.1l-5.9-0.4c-0.1,0-0.3,0-0.4-0.1l-5.3-1.5c-0.3-0.1-0.7-0.3-0.9-0.5l-5.4-5.5 c-0.2-0.2-0.4-0.3-0.6-0.4l-4.2-1.8c-0.9-0.4-1.9-0.1-2.4,0.7l-4.1,5.9c-0.6,0.9-1.8,1.1-2.7,0.6l-4.3-2.6 c-0.1-0.1-0.2-0.1-0.3-0.2l-5.7-4.9c-0.1-0.1-0.3-0.2-0.5-0.3l-4.5-2.1c-0.8-0.4-1.7-0.2-2.2,0.4l-4.9,4.8 c-0.1,0.1-0.2,0.2-0.4,0.3l-5.6,3.4c-0.1,0.1-0.3,0.1-0.4,0.2l-5.6,1.8c-0.1,0-0.3,0.1-0.4,0.1l-5.7,0.6h-0.4l-5.6-0.4h-0.5 l-4.5,0.8c-0.8,0.1-1.6-0.2-2-0.9l-4.6-6.9c-0.4-0.7-1.2-1-2-0.9l-4.8,0.8l-5.7,1.6l-0.6,0.3l-5.5,3.8l-0.6,0.3l-5.4,1.3 c-0.2,0.1-0.4,0.1-0.7,0.1l-5.7-0.5l-5.4-0.9c-0.4-0.1-0.9,0-1.2,0.2l-4.6,2.4c-0.5,0.3-1.2,0.3-1.7,0l-4.8-2.2 c-0.3-0.1-0.5-0.3-0.7-0.5l-5.6-6.6c-0.1-0.1-0.2-0.2-0.2-0.3l-3.8-6.8c-0.8-1.5-3.1-1.3-3.6,0.3l-3.1,9.2 c-0.6,1.7-2.9,1.9-3.7,0.3l-1.5-2.9c-0.8-1.6-3.2-1.4-3.7,0.4L213,57.9c-0.1,0.3-0.2,0.6-0.5,0.8l-5,5.4c-0.4,0.5-1.1,0.7-1.8,0.6 L201,64h-0.6l-5.5,0.9h-0.5l-5.8-0.4l-5.8-0.8h-0.5l-5.5,0.7h-0.5l-5.5-0.7h-0.6l-5.5,1h-0.5l-5.8-0.3l-5-0.1 c-0.7,0-1.3-0.4-1.7-0.9l-4-6.4c-0.7-1.2-2.4-1.3-3.3-0.2l-4,4.9c-0.2,0.2-0.4,0.4-0.7,0.6l-5.2,2.4c-0.3,0.1-0.5,0.2-0.8,0.2 l-5.6,0.1H122l-6.1-0.1l-6.1-0.5l-5.8-0.8h-0.5l-5.8,0.7l-6.1,0.3l-6.1,0.1l-5-0.7c-0.5-0.1-1-0.3-1.4-0.8l-4.4-5.8 c-0.7-0.9-1.9-1.1-2.8-0.4l-4.5,3.3l-5.5,3.8c-0.4,0.3-0.8,0.4-1.3,0.4l-5.2-0.4h-0.3l-5.9-1.3l-5.8-1.2c-0.2,0-0.4-0.1-0.6,0 L37.3,62l-6.1,0.5l-6.1-0.3L19,61.9l-5.8,0.4h-0.5L8,61.4c-0.6-0.1-1.1-0.5-1.4-1.1L1,49.5"/> </g> <g id="dot"> <circle id="dot" class="dot bloop" cx="232.5" cy="32.5" r="2.8"/> </g> </svg>
