<svg xmlns="http://www.w3.org/2000/svg" viewBox="0 0 468 73" style="enable-background:new 0 0 468 73" xml:space="preserve"><style>.st0{fill:#5A4A79}.st1{fill:none;stroke:#C1B2DD;stroke-width:1.5;stroke-dasharray:4,2}.bloop{transform-origin:center center;transform:scale(0);animation:bloop infinite 4s ease-in-out alternate}@keyframes drawline{from{stroke-dashoffset:-550}to{stroke-dashoffset:0}}@keyframes bloop{0%,48%{transform:scale(0)}50%{transform:scale(1.2)}52%,100%{transform:scale(1)}}</style><g id="background"><path class="st0" d="M434.5 34h31c.8 0 1.5.7 1.5 1.5s-.7 1.5-1.5 1.5h-31c-.8 0-1.5-.7-1.5-1.5s.7-1.5 1.5-1.5z"/><path class="st1" d="M467 41 1 43"/><path class="st0" d="M434.5 17h31c.8 0 1.5.7 1.5 1.5s-.7 1.5-1.5 1.5h-31c-.8 0-1.5-.7-1.5-1.5s.7-1.5 1.5-1.5z"/><path class="st1" d="M467 24 1 26"/><path class="st0" d="M434.5 0h31c.8 0 1.5.7 1.5 1.5s-.7 1.5-1.5 1.5h-31c-.8 0-1.5-.7-1.5-1.5s.7-1.5 1.5-1.5z"/><path class="st1" d="M467 7 1 9"/><path d="M465 71 1 72" style="fill:none;stroke:#3E2C73;stroke-width:0.75"/><path d="m1 70 466 2" style="fill:none;stroke:#FF7738;stroke-width:1.5"/></g><circle class="bloop" cx="232.5" cy="32.5" r="14" style="fill:#FF7738;stroke:#FF7738" id="highlight"/><path d="M467 64.1h-6.1l-5.7.7h-.6l-5.4-1h-.7l-4.5.8c-.7.1-1.5-.1-1.9-.7l-4.4-5.4c-.5-.7-1.4-.9-2.2-.6l-4.7 1.7-4.8 2.2c-.8.4-1.7.2-2.3-.4l-5.1-5.2-5.3-4.9c-.4-.4-1.1-.6-1.7-.5l-4.9.7h-.3l-5.9-.1-6.1.1-6.1-.7-6.1.1-5.9-.4c-.1 0-.3 0-.4-.1l-5.3-1.5c-.3-.1-.7-.3-.9-.5l-5.4-5.5c-.2-.2-.4-.3-.6-.4l-4.2-1.8c-.9-.4-1.9-.1-2.4.7l-4.1 5.9c-.6.9-1.8 1.1-2.7.6l-4.3-2.6c-.1-.1-.2-.1-.3-.2l-5.7-4.9c-.1-.1-.3-.2-.5-.3l-4.5-2.1c-.8-.4-1.7-.2-2.2.4l-4.9 4.8c-.1.1-.2.2-.4.3l-5.6 3.4c-.1.1-.3.1-.4.2l-5.6 1.8c-.1 0-.3.1-.4.1l-5.7.6h-.4l-5.6-.4h-.5l-4.5.8c-.8.1-1.6-.2-2-.9l-4.6-6.9c-.4-.7-1.2-1-2-.9l-4.8.8-5.7 1.6-.6.3-5.5 3.8-.6.3-5.4 1.3c-.2.1-.4.1-.7.1l-5.7-.5-5.4-.9c-.4-.1-.9 0-1.2.2l-4.6 2.4c-.5.3-1.2.3-1.7 0l-4.8-2.2c-.3-.1-.5-.3-.7-.5l-5.6-6.6c-.1-.1-.2-.2-.2-.3l-3.8-6.8c-.8-1.5-3.1-1.3-3.6.3l-3.1 9.2c-.6 1.7-2.9 1.9-3.7.3l-1.5-2.9c-.8-1.6-3.2-1.4-3.7.4L213 57.9c-.1.3-.2.6-.5.8l-5 5.4c-.4.5-1.1.7-1.8.6L201 64h-.6l-5.5.9h-.5l-5.8-.4-5.8-.8h-.5l-5.5.7h-.5l-5.5-.7h-.6l-5.5 1h-.5l-5.8-.3-5-.1c-.7 0-1.3-.4-1.7-.9l-4-6.4c-.7-1.2-2.4-1.3-3.3-.2l-4 4.9c-.2.2-.4.4-.7.6l-5.2 2.4c-.3.1-.5.2-.8.2l-5.6.1H122l-6.1-.1-6.1-.5-5.8-.8h-.5l-5.8.7-6.1.3-6.1.1-5-.7c-.5-.1-1-.3-1.4-.8l-4.4-5.8c-.7-.9-1.9-1.1-2.8-.4l-4.5 3.3-5.5 3.8c-.4.3-.8.4-1.3.4l-5.2-.4h-.3l-5.9-1.3-5.8-1.2c-.2 0-.4-.1-.6 0l-5.5.4-6.1.5-6.1-.3-6.1-.3-5.8.4h-.5L8 61.4c-.6-.1-1.1-.5-1.4-1.1L1 49.5" style="fill:none;stroke:#3E2C73;stroke-width:1.5;stroke-linejoin:bevel;stroke-miterlimit:10;stroke-dasharray:600;animation:drawline infinite 4s ease-in-out alternate" id="line"/><circle class="bloop" cx="232.5" cy="32.5" r="2.8" style="fill:#FFFFFF;stroke:#3E2C73;stroke-width:1.5" id="dot"/></svg>
