<?xml version="1.0" encoding="UTF-8"?>
<svg id="art" xmlns="http://www.w3.org/2000/svg" width="248.7531" height="164.0349" viewBox="0 0 248.7531 164.0349">
  <defs>
    <style>
      .cls-1 {
        stroke-width: 1.0817px;
      }

      .cls-1, .cls-2, .cls-3, .cls-4, .cls-5, .cls-6, .cls-7, .cls-8, .cls-9, .cls-10, .cls-11, .cls-12, .cls-13 {
        stroke-linecap: round;
        stroke-linejoin: round;
      }

      .cls-1, .cls-5, .cls-6, .cls-7 {
        stroke: #000;
      }

      .cls-1, .cls-14, .cls-12 {
        fill: #181225;
      }

      .cls-2, .cls-3, .cls-4, .cls-8, .cls-9, .cls-10, .cls-11, .cls-12, .cls-13 {
        stroke: #181225;
      }

      .cls-2, .cls-15 {
        fill: #dca8e5;
      }

      .cls-3 {
        stroke-dasharray: 5.2405 5.2405;
      }

      .cls-3, .cls-4, .cls-13 {
        fill: none;
      }

      .cls-3, .cls-5, .cls-6, .cls-7, .cls-8, .cls-10, .cls-12, .cls-13 {
        stroke-width: .9118px;
      }

      .cls-5 {
        fill: #ff45a9;
      }

      .cls-6, .cls-16, .cls-10 {
        fill: #9f87ff;
      }

      .cls-7 {
        fill: #feb91a;
      }

      .cls-8, .cls-9 {
        fill: #fff;
      }

      .cls-16 {
        opacity: .5;
      }

      .cls-11 {
        fill: #4e299b;
      }
    </style>
  </defs>
  <polygon class="cls-15" points="248.7531 152.4626 0 138.4911 5.7113 4.0032 245.9087 0 248.7531 152.4626"/>
  <path class="cls-2" d="M225.0419,41.6749l-8.75,68.52-36.9,53.34L40.6319,117.7249l-10.5099-79.06-1.16-8.73c-.23-1.75,1.15-3.25,2.84-3.25h.02l64.83-3.86c1.37-.08,2.73-.03,4.09.14l121.65,15.29c1.68.21,2.87,1.7401,2.65,3.42Z"/>
  <path class="cls-8" d="M191.7219,56.1649l-12.33,107.37L40.6319,117.7249l-10.5099-79.06-1.16-8.73c-.23-1.75,1.15-3.25,2.84-3.25h.02c.15,0,156.97,25.62,156.97,25.62,1.85.3,3.14,2,2.93,3.86Z"/>
  <polygon class="cls-16" points="30.1239 38.6627 190.2439 69.0526 188.5302 83.9734 31.8179 50.5079 30.1239 38.6627"/>
  <polygon class="cls-15" points="156.3739 127.9827 159.1039 125.0926 169.1639 114.4326 182.7739 100.0126 183.7739 88.8426 176.6639 95.5926 157.0939 114.1526 156.3739 127.9827"/>
  <polygon class="cls-10" points="183.7739 88.8426 176.6639 95.5926 157.0939 114.1526 157.0939 111.8826 62.0939 87.3426 103.6539 71.8426 183.7739 88.8426"/>
  <path class="cls-15" d="M47.7787,77.9194l-.0869-1.4685c-.0469-.7926.6927-1.4007,1.4613-1.2014l3.792.9831c.5159.1338.8762.5994.8762,1.1323v1.5685c0,.7802-.7492,1.3417-1.498,1.1228l-3.7051-1.0831c-.4743-.1387-.8103-.5604-.8395-1.0537Z"/>
  <polygon class="cls-16" points="155.4015 113.2093 154.4828 133.6328 58.1826 105.6026 56.4444 87.5566 155.4015 113.2093"/>
  <polygon class="cls-16" points="103.6539 122.0926 178.9039 143.3826 177.644 157.5726 103.6539 134.6027 103.6539 122.0926"/>
  <polygon class="cls-16" points="159.1039 125.0926 180.0739 130.3627 181.2239 117.4827 169.5739 114.9326 169.1639 114.4326 159.1039 125.0926"/>
  <path class="cls-11" d="M191.7239,56.1627l-1.48,12.89L30.1239,38.6627l-1.16-8.73c-.25-1.91,1.41-3.52,3.31-3.21l156.52,25.58c1.85.3,3.14,2,2.93,3.86Z"/>
  <ellipse class="cls-14" cx="61.1319" cy="115.3769" rx="1.5556" ry="1.8711" transform="translate(-43.9054 37.8133) rotate(-25.6397)"/>
  <polygon class="cls-12" points="183.7739 88.8426 176.6639 95.5926 106.394 79.5126 103.6539 71.8426 183.7739 88.8426"/>
  <ellipse class="cls-5" cx="35.3775" cy="34.0953" rx="2.3607" ry="2.8396" transform="translate(-12.9979 25.5) rotate(-33.8675)"/>
  <ellipse class="cls-7" cx="44.0962" cy="35.507" rx="2.3607" ry="2.8396" transform="translate(-12.3053 30.5982) rotate(-33.8675)"/>
  <ellipse class="cls-6" cx="53.0112" cy="37.1871" rx="2.3607" ry="2.8396" transform="translate(-11.7289 35.8514) rotate(-33.8675)"/>
  <line class="cls-13" x1="31.8179" y1="50.5079" x2="188.5302" y2="83.9734"/>
  <line class="cls-13" x1="36.8698" y1="47.8684" x2="55.609" y2="51.8092"/>
  <line class="cls-13" x1="105.0598" y1="62.35" x2="115.0801" y2="64.4322"/>
  <line class="cls-13" x1="133.9494" y1="68.5964" x2="143.4492" y2="70.5484"/>
  <line class="cls-13" x1="154.4828" y1="72.9669" x2="162.544" y2="74.64"/>
  <line class="cls-13" x1="174.4076" y1="77.2256" x2="180.8717" y2="78.5184"/>
  <path class="cls-13" d="M39.8298,58.543l6.1682,1.4658c.7736.2189,1.3044.9291,1.2954,1.733l-.0237,2.1081c-.013,1.1556-1.0996,1.38-2.2185,1.091l-5.2664-1.3602c-.7391-.1909-1.2742-.8317-1.3303-1.5929l-.152-2.0634c-.0117-.8926.3614-1.5922,1.5274-1.3815Z"/>
  <polyline class="cls-13" points="42.8101 64.3623 43.7354 75.8871 47.727 77.0454"/>
  <path class="cls-13" d="M47.7787,77.9194l-.0869-1.4685c-.0469-.7926.6927-1.4007,1.4613-1.2014l3.792.9831c.5159.1338.8762.5994.8762,1.1323v1.5685c0,.7802-.7492,1.3417-1.498,1.1228l-3.7051-1.0831c-.4743-.1387-.8103-.5604-.8395-1.0537Z"/>
  <line class="cls-13" x1="50.7555" y1="79.5979" x2="53.4179" y2="117.3799"/>
  <line class="cls-13" x1="182.7788" y1="100.0165" x2="156.3697" y2="127.9853"/>
  <polygon class="cls-13" points="155.4015 113.2093 154.4828 133.6328 58.1826 105.6026 56.4444 87.5566 155.4015 113.2093"/>
  <polygon class="cls-13" points="154.4828 133.6328 156.2238 131.2401 157.0917 111.8853 58.3729 86.3842 56.4444 87.5566 155.4015 113.2093 154.4828 133.6328"/>
  <line class="cls-13" x1="106.394" y1="79.5126" x2="96.9166" y2="83.9734"/>
  <polygon class="cls-13" points="182.7739 100.0126 181.2239 117.4827 180.0739 130.3627 178.9039 143.3826 177.644 157.5726 103.6539 134.6027 103.6539 118.8326 154.4839 133.6326 156.2239 131.2426 156.3739 127.9827 159.1039 125.0926 169.1639 114.4326 182.7739 100.0126"/>
  <line class="cls-13" x1="182.7788" y1="100.0165" x2="183.7739" y2="88.8426"/>
  <polygon class="cls-13" points="103.6539 122.0926 178.9039 143.3826 177.644 157.5726 103.6539 134.6027 103.6539 122.0926"/>
  <polygon class="cls-13" points="159.1039 125.0926 180.0739 130.3627 181.2239 117.4827 168.8082 114.8096 159.1039 125.0926"/>
  <line class="cls-13" x1="61.1319" y1="115.3769" x2="53.079" y2="112.5706"/>
  <line class="cls-13" x1="52.2131" y1="100.2823" x2="57.8396" y2="102.0424"/>
  <line class="cls-13" x1="51.4223" y1="89.0607" x2="56.7366" y2="90.5903"/>
  <polyline class="cls-13" points="93.2733 77.872 111.7821 92.2146 108.8916 99.4342"/>
  <polyline class="cls-13" points="100.8457 97.3558 111.7821 92.2146 69.7867 87.5566"/>
  <line class="cls-13" x1="111.7821" y1="92.2146" x2="86.5354" y2="81.743"/>
  <polyline class="cls-13" points="110.6235 95.1084 108.2582 93.8712 106.394 91.617"/>
  <line class="cls-13" x1="103.1522" y1="91.2574" x2="105.9229" y2="94.969"/>
  <line class="cls-13" x1="103.6539" y1="96.0357" x2="109.4536" y2="98.0307"/>
  <polyline class="cls-13" points="95.7493 90.4363 96.9166 86.0488 102.0045 84.6379"/>
  <line class="cls-13" x1="103.6539" y1="85.916" x2="101.3347" y2="87.8813"/>
  <line class="cls-13" x1="90.7844" y1="89.8856" x2="92.1571" y2="95.1084"/>
  <line class="cls-13" x1="97.8489" y1="90.6692" x2="101.6553" y2="96.9752"/>
  <polyline class="cls-13" points="84.4723 89.1855 90.7844 83.5054 96.9166 80.6952"/>
  <line class="cls-13" x1="93.0136" y1="84.43" x2="88.5582" y2="89.6387"/>
  <path class="cls-8" d="M92.1465,103.8796l-2.5745,1.376c-1.524.8145-1.2989,3.0658.3562,3.5625l19.9558,5.9891c1.1817.3546,2.4627.0789,3.3938-.7305l.9585-.8332c1.0638-.9247.6817-2.6603-.6721-3.0527l-.5738-.1664c-.57-.1653-1.1849-.0355-1.6396.346l-1.8971,1.5917-16.6969-4.9244,1.3517-.8856c.8648-.5666.6595-1.888-.3364-2.1656l-.7352-.2049c-.2983-.0831-.6171-.0481-.8902.0979Z"/>
  <g>
    <path class="cls-13" d="M127.9174,93.3627s-.9009-.5501-1.9021-1.6094"/>
    <path class="cls-3" d="M123.5364,87.2087c-.4417-2.0814-.1553-4.6617,1.7376-7.696,5.5273-8.8607,8.251-11.9848-.3204-14.3079s-7.1273-8.3185-2.4032-13.2176c6.4886-6.729,7.7004-11.9414,5.6272-16.4801-2.9639-6.4886-8.6585-4.6085-10.3741-10.2761-.3413-1.1273-.5446-2.1006-.6486-2.9386"/>
    <path class="cls-13" d="M117.166,19.673c.2851-1.6777,1.0822-2.1977,1.0822-2.1977"/>
  </g>
  <g>
    <ellipse class="cls-1" cx="123.2693" cy="15.4999" rx="2.2854" ry="2.0813"/>
    <path class="cls-9" d="M122.4394,13.4186s-14.5809-2.2361-12.0812-7.2164c2.1654-4.3143,12.0812,7.2164,12.0812,7.2164Z"/>
    <path class="cls-9" d="M122.4394,13.4186s1.7631-14.042,5.8578-12.0726c4.5396,2.1834-5.8578,12.0726-5.8578,12.0726Z"/>
  </g>
  <path class="cls-4" d="M31.8179,26.6842c.1498.0008.3021.0133.456.0384l156.52,25.58c1.85.3,3.14,2,2.93,3.86l-12.33,107.37"/>
</svg>