<svg id="Waiting_For_Events" data-name="Waiting For Events" xmlns="http://www.w3.org/2000/svg" width="646.4" height="147.3"><defs><style>.cls-1{fill:none;stroke:#3f2b56;stroke-linecap:round;stroke-linejoin:round}.cls-5{fill:#b39ed3}.cls-8{fill:#3f2b56}.cls-9{fill:#5e468c}</style></defs><path transform="matrix(1,0.1,-0.1,1,8.6,-17.7)" style="fill: #fca9cb" d="M 4.5 174.4 l 541.9 -3.6 l 23.6 -101.3 L -19.3 56.8 l 24 117.6 z"/><path d="M 245.8 97.4 v 6.4 c -0.6 15.6 -36.6 27.4 -115.6 30.2 c -45.5 1.6 -111.8 -7.5 -111.8 -22.5 V 105 s -2 -11 36 -18 c 38.4 -7 104.2 -13.3 149.4 -7 c 43.5 6.1 42 17.3 42 17.3 Z" style="fill: #e7e1ec"/><path transform="matrix(1,0,0,1,0,0)" class="cls-5" d="M 178.8 71.9 c 0.8 3.3 0.3 7.8 -1.5 13 l 10.1 7.9 l 1.2 1 l 0.2 0.6 l -2.3 11.2 l 3.2 0.5 l 5.4 -7.7 h 6.3 l 14 5.7 l 2.4 -2 l -9.2 -6.4 v -1.1 l 13.5 1.6 l 0.5 -3.7 l -13.2 -3 l 6.2 -2.2 l -0.5 -2.5 l -11.3 1.1 h -1 l -1.3 -0.8 l -22.7 -13.2 Z M 123.9 69.8 a 8.7 8.7 0 0 0 -8.8 -1.3 c -4.7 1.8 -6.1 6.7 -6.3 11.4 l -0.8 0.1 c -12.4 1 -26 2.5 -38.7 4.5 l -1 14.3 s 6 6 6.8 6.7 l 4.5 3.4 l -2 3.2 l -5.3 -2 a 31 31 0 0 1 -3.3 -2.4 l -2.4 1.9 v 9 l -3.9 0.4 l -1.7 -8.8 h -2.4 l -4.7 8.2 l -3.5 -0.4 l 1.8 -8.7 l -2 -0.5 l -8.7 3.7 l -1.1 -2.8 l 7 -4.3 l 3 -4 l 5 -16.9 l -22 -17.8 s -1.4 -1.1 -1.6 -3.5 c -0.2 -3.2 1.8 -4.6 1.8 -4.6 l 12.3 -10.9 l 14.4 9.6 c -1 -12 -6 -17 -6 -17 l 20.4 -17.9 l 10 5.7 c -0.9 -7.5 -3.9 -11.1 -3.9 -11.1 L 98.2 1.7 C 100 0 101.5 0.6 101.5 0.6 l 1.2 0.3 l 1.5 0.5 c 1.5 0.5 2.1 3 2.1 3 L 133 66.8"/><path class="cls-9" d="M 96.5 81 C 94 58 84.8 45 84.8 45 L 80.1 52 a 72.6 72.6 0 0 1 9.4 29.7 l 7 -0.7 Z"/><path d="M 96.5 14.2 s -1.6 4.7 -1.7 7.6 c -0.2 4.1 4 4.1 3.7 0.2 c -0.2 -1.9 -2 -7.8 -2 -7.8 Z" style="fill: #f6f6f8"/><path class="cls-5" d="M 122.7 42.9 L 151 64.7 c 4.9 0.2 10 1.1 14.8 3.1 c 0 0 1.5 -1.3 3.3 -1.6 L 120.6 38 l 2.1 4.9 Z"/><path d="M 99.4 104 l 38.5 12 l 39 -5 l -3.6 -25 l 3 1 s 2.5 -6.1 2.7 -9.7 s 0.5 -9.3 -4.4 -11.3 s -8.8 1.3 -8.8 1.3 s -6.6 -3.5 -19 -3 s -23 5 -23 5 s -3.4 -3.5 -9.4 -1 s -6.1 10.8 -4.7 19.8 l -9.2 6.4 l -1.1 9.5 l 38.5 12 l 39 -5 l -5 -34.9 l -8 -1.5 l -1 -0.1" style="fill: #e1557a"/><path class="cls-9" d="M 54.4 40.3 l 12.5 7 l -3.7 12 l -3 -2 c -0.8 -12 -5.8 -17 -5.8 -17 M 71.8 50.1 l 1.4 0.8 s 8.2 11 8.3 28.5 l -11.8 -0.2 l 0.6 -7.9 l 3 -4 l -2.5 -3.2 l 1 -14 Z M 80.8 17 l 9.1 4.8 s 6 7.2 12.2 22.8 c 6.7 16.8 7.8 29.4 7.8 29.4 s -1.2 3.2 -1 6 l -5.2 0.4 C 99.8 46 85.9 28.9 85.9 28.9 l -1.3 -0.8 S 84 20.8 80.8 17 Z M 126.7 68.7 l -24.4 -57.1 l -3.1 6 l -1 2.3 s 0.2 1 0.3 2.6 l 1.2 2.4 s 10.7 17.6 16.2 43.4 c 0 0 4 -1.6 8 1.5 l 2.8 -1 Z"/><path d="M 109.7 88.6 l 0.5 2.2 s 13.5 1.6 22.3 -6.8 l -2.3 -5.6 l 5.6 1 l 2 37 l -38.4 -12 l 1.1 -9.4 l 9.2 -6.4 Z" style="fill: #b23f70"/><path class="cls-1" d="M 245.8 97.4 c 2.2 14.2 -36.6 27.4 -115.6 30.2 c -45.5 1.6 -111.8 -7.4 -111.8 -22.5 v 6.4 c 0 15 66.3 24 111.8 22.5 c 79 -2.8 115.7 -16 115.6 -30.2 v -6.4 Z M 69.3 84.5 a 584.1 584.1 0 0 1 39.5 -4.6"/><path class="cls-1" d="M 190.6 78.7 c 36.2 3 54 11 55.2 18.7 c 2.2 14.2 -36.6 27.4 -115.6 30.2 c -45.5 1.6 -111.8 -7.4 -111.8 -22.5 c 0 -8 15.7 -13.9 36.3 -18"/><path class="cls-1" d="M 68.2 98.8 s 6 6 6.9 6.7 l 4.5 3.4 l -2 3.2 l -5.3 -2 a 31 31 0 0 1 -3.3 -2.4 l -2.4 1.9 v 9 l -3.9 0.4 l -1.7 -8.8 h -2.4 l -4.7 8.2 l -3.5 -0.4 l 1.8 -8.7 l -2 -0.5 l -8.7 3.7 l -1.1 -2.8 l 7 -4.3 l 3 -4 l 20.3 -66.7 M 72.9 35.5 l -4.5 61 M 132.5 84 s -7.7 8.3 -22.3 6.8 c 0 0 -5.3 -18.3 4.9 -22.3 C 126.7 64 132.5 84 132.5 84 Z"/><path class="cls-1" d="M 123.9 69.8 c 6 -2.5 26.2 -9.5 43.9 -1.2"/><path class="cls-1" d="M 165.8 67.8 a 9.2 9.2 0 0 1 8.3 -1.5 c 6 2 6.5 10.3 2.3 21.2 l -3 -1 M 136.5 75.3 l -7.2 1.2 M 156.3 74.5 c -5 -0.3 -9.5 -0.1 -13.4 0.1"/><path class="cls-1" d="M 109.7 88.6 l -9.2 6.4 l -1.1 9.5 l 38.5 12 l 39 -5 l -5 -34.9 l -8 -1.5 l -1 -0.1 M 136 81.8 l 1.9 34.6 M 171.9 76.6 l -36.1 2.8 M 136.3 76.6 l 0.9 -7.6 l 5.1 -0.2 l 0.8 7.7"/><path class="cls-1" d="M 156.3 75.8 l 0.8 -8.1 l 5.1 0.1 l 0.8 7.7 M 109.5 87.5 s 13.6 1 21.7 -7.2 M 172.7 82.1 l 4.9 1.9"/><path class="cls-8" d="M 112.8 80 c 0.5 0 1.3 0.2 1.4 2 c 0 0.9 -0.5 1.7 -1.2 1.6 c -0.7 0 -1.3 -0.7 -1.3 -1.8 c 0 -0.9 0.4 -1.8 1 -1.8 Z"/><path class="cls-1" d="M 113 81.8 s -4 4.8 -5.4 13 s 2.8 9.7 4.1 9.9 s 4 0 4.2 -2.3 s -4.2 -2.6 -6.8 -1.5 s -5.2 3.4 -5.3 7.4 c 0 4 3.5 5.3 5.5 4.6 c 1.7 -0.7 1.7 -3 -0.9 -4 s -6 -0.2 -7 3 s 0.9 5.5 2.7 6.5 s 5.3 0.8 5.4 -1.4 s -6 -1.9 -6.2 1.8 s 2.2 5.9 6.2 5.8 s 6 -4.5 4.6 -5.5 c -1.6 -1 -3.7 1.2 -4 4 c 0 2.5 0.4 5.6 4 6 c 3.5 0.4 7 -2 7.5 -4.3 c 0.6 -2.7 -2 -4 -3.4 -2.3 c -1.3 1.4 -1.1 4.4 2 7.2 c 3 2.8 8.5 -0.6 9.1 -2.9 s 0.1 -3.9 -1.4 -3.9 s -2.3 2.1 -2 3.7 s 2 5.4 5.7 5.5 c 3.5 0 5.8 -1.8 6.3 -4 c 0.6 -2.7 -0.4 -5.4 -2.2 -5 c -2 0.3 -1.7 3.9 0 5.9 s 4.2 2.4 5.8 2 c 3 -0.4 5.1 -4 4.5 -7.4 s -3.7 -3.1 -3.6 -1 s 1.5 5.1 5.7 5.7 s 5 -4.2 4.7 -6.6 s -2.2 -4.7 -3.7 -3.7 s 1 6.4 5.8 5.5 c 5 -1 4.2 -10.4 -0.2 -13.8 c -4 -3 -6 -0.6 -5.4 1.2 c 0.9 2.7 6.7 3.6 7.4 -1.8 c 1 -6 -2.8 -10 -10.5 -11"/><path class="cls-8" d="M 142.4 97.6 a 3.2 3.2 0 1 1 6.3 1 c -0.3 1.6 -1.6 3 -3.5 2.8 c -1.8 -0.2 -3.1 -1.8 -2.8 -3.8 Z"/><path class="cls-1" d="M 163.4 108.8 l -0.6 -7.1 l 6.2 -0.5 l 0.8 6.8 l -6.4 0.8 z"/><path class="cls-1" d="M 165.8 105.4 s 1.7 -0.1 3 1.2 c 2 2 3.7 5.9 5.9 8.2 c 0.7 0.8 4.6 2 4.6 2 l -11.7 5.4 l 11.4 0.8 c 1.4 0.1 3 0.5 3 2.8 v 21 M 188.8 94.4 l -2.3 11.2 l 3.2 0.5 l 5.4 -7.7 h 6.3 l 13.9 5.7 l 2.5 -2 l -9.2 -6.4 v -1.1 l 11.7 1.3 M 222.2 95.7 l 0.4 -3.2 l -13.2 -3 l 6.2 -2.2 l -0.5 -2.5 l -11.3 1.1 M 169.1 66.2 L 120.6 38 M 201.5 85.1 l -22.7 -13.2 M 177.3 85 l 10.1 7.8 M 122.7 42.9 L 151 64.7 M 133 66.8 L 106.2 4.4 s -0.6 -2.5 -2.1 -3 l -1.5 -0.5 l -1.2 -0.3 s -1.5 -0.6 -3.3 1 L 80.8 17 s 3 3.6 3.8 11.1 l -10 -5.7 l -20.2 17.9 s 5 5 5.9 17 l -14.4 -9.6 l -12.3 10.9 s -2 1.4 -1.8 4.6 a 4.8 4.8 0 0 0 1.7 3.5 l 22 17.8 M 85.9 28.9 l -12.7 22"/><path class="cls-1" d="M 106.2 3.9 s -0.7 -2 -3 -1.9 s -3.3 2.4 -3.3 2.4 l -10 17.4 M 84.6 28.1 l 1.3 0.8 s 14 17.2 17.8 51.5"/><path class="cls-1" d="M 80.8 17 l 9.1 4.8 s 6 7.2 12.2 22.8 c 6.7 16.8 7.8 29.4 7.8 29.4 M 71.8 50.1 l 1.4 0.8 s 8.2 11 8.3 28.5 l -11.8 -0.2 M 54.4 40.3 l 12.5 7 M 63.2 59.2 l -2.9 -1.9"/><path class="cls-1" d="M 70.8 64.1 l 2.4 3.1 l -2.9 4.1 M 89.5 81.8 s -1 -16.3 -9.4 -29.7 l 4.7 -7.2 S 94 57.9 96.5 81 M 96.5 14.2 s -1.6 4.7 -1.7 7.6 c -0.2 4.1 4 4.1 3.7 0.2 c -0.2 -1.9 -2 -7.8 -2 -7.8 Z M 99.2 17.7 l 3.1 -6.1 l 24.4 57.1 M 99.7 25 s 10.7 17.5 16.2 43.3 M 135.8 79.4 l -2.3 -0.4"/><path class="cls-8" d="M 142.9 74.6 v 1 l 13.4 -0.5 v -0.6 s -5.3 -0.4 -13.4 0.1 Z M 136.4 76 h -4.9 s 3 -0.7 5 -0.7 l -0.1 0.8 Z M 172 77.8 l 3.8 9.5 l -2.5 -0.8 l -1.3 -8.7 z M 122.3 38.9 l 3.1 6 l -2.7 -2 l -2.1 -4.9 l 1.7 0.9 z M 72.9 36.2 l 1.3 13 l -1 1.7 l -1.4 -0.8 l 1.1 -13.9 z M 193.8 100.3 l 7.1 -1.9 h -5.8 l -1.3 1.9 z M 66.6 109.6 l 5.7 0.5 l -3.3 -2.4 l -2.4 1.9 z M 101.2 13.7 l 2.2 0.5 l -1.1 -2.6 l -1.1 2.1 z"/><path class="cls-8" d="M 142.4 70 l 1.6 4.6 h -1.1 l -0.5 -4.6 z M 162.4 69.6 l 1.9 5.6 l -1.3 -0.2 l -0.6 -5.4 z M 112.8 80 c 0.5 0 1.3 0.2 1.4 2 c 0 0.9 -0.5 1.7 -1.2 1.6 c -0.7 0 -1.3 -0.7 -1.3 -1.8 c 0 -0.9 0.4 -1.8 1 -1.8 Z"/><path class="cls-8" d="M 142.9 74.6 v 1 l 13.4 -0.5 v -0.6 s -5.3 -0.4 -13.4 0.1 Z M 136.4 76 h -4.9 s 3 -0.7 5 -0.7 l -0.1 0.8 Z M 172 77.8 l 3.8 9.5 l -2.5 -0.8 l -1.3 -8.7 z M 122.3 38.9 l 3.1 6 l -2.7 -2 l -2.1 -4.9 l 1.7 0.9 z M 72.9 36.2 l 1.3 13 l -1 1.7 l -1.4 -0.8 l 1.1 -13.9 z M 193.8 100.3 l 7.1 -1.9 h -5.8 l -1.3 1.9 z M 66.6 109.6 l 5.7 0.5 l -3.3 -2.4 l -2.4 1.9 z M 101.2 13.7 l 2.2 0.5 l -1.1 -2.6 l -1.1 2.1 z"/><path class="cls-1" d="M 77.9 77.1 l -6.1 -3.9"/></svg>
