<svg xmlns="http://www.w3.org/2000/svg" id="art" width="611.112" height="232.934"><defs><style>.cls-10,.cls-2,.cls-3,.cls-5,.cls-6,.cls-7,.cls-9{stroke-width:0}.cls-2{fill:#2f1d4a}.cls-3{fill:#3f2b56}.cls-5{fill:#e1557a}.cls-6{fill:#dac5f9}.cls-7{fill:#b39ed3}.cls-9{fill:#fca9cb}.cls-10{fill:#ebb432}</style></defs><path d="m576.574 0 34.538 230.878L0 232.745 28.471 35.472 576.574 0z" style="stroke-width:0;fill:#f7b2b2"/><path d="M141.292 14.847H470.72c5.862 0 10.622 4.76 10.622 10.622v179.913a5.5 5.5 0 0 1-5.498 5.497H139.258a2.99 2.99 0 0 1-2.988-2.988V19.869a5.024 5.024 0 0 1 5.022-5.022Z" style="fill:#fff;stroke-width:0"/><path d="M142.038 14.847h333.514a5.77 5.77 0 0 1 5.768 5.768v34.56H136.27v-34.56a5.77 5.77 0 0 1 5.768-5.768Z" class="cls-2"/><path d="M476.532 211.379H140.028a4.79 4.79 0 0 1-4.784-4.784V20.615a6.275 6.275 0 0 1 6.268-6.268h333.704a6.105 6.105 0 0 1 6.1 6.1v186.147a4.789 4.789 0 0 1-4.784 4.785ZM141.512 15.347a5.274 5.274 0 0 0-5.268 5.268v185.98a3.788 3.788 0 0 0 3.784 3.784h336.504a3.788 3.788 0 0 0 3.783-3.785V20.447c0-2.812-2.287-5.1-5.098-5.1H141.512Z" class="cls-2"/><ellipse cx="160.596" cy="33.477" rx="8.282" ry="8.022" style="fill:#e1557c;stroke-width:0"/><ellipse cx="187.704" cy="33.477" rx="8.046" ry="8.022" style="fill:#f4834f;stroke-width:0"/><ellipse cx="213.602" cy="33.477" rx="8.403" ry="8.022" style="fill:#f1b71c;stroke-width:0"/><path d="M155.795 37.188a.5.5 0 0 1-.29-.908c1.135-.804 8.336-7.075 8.408-7.138a.5.5 0 0 1 .657.754c-.298.26-7.311 6.368-8.486 7.2a.5.5 0 0 1-.289.092ZM192.532 34.24h-.002c-.323 0-7.947-.03-9.412-.065-.277-.007-.495-.237-.488-.513s.243-.465.512-.487c1.455.036 9.313.065 9.392.066a.5.5 0 0 1-.002 1ZM218.571 34.24h-.002c-.324 0-7.948-.03-9.413-.065-.277-.007-.495-.237-.488-.513s.24-.465.512-.487c1.455.036 9.314.065 9.393.066a.5.5 0 0 1-.002 1Z" class="cls-3"/><path d="M163.667 37.615a.499.499 0 0 1-.37-.164l-7.036-7.776a.5.5 0 1 1 .74-.67l7.037 7.775a.5.5 0 0 1-.37.835ZM213.746 38.679h-.002a.5.5 0 0 1-.498-.502c0-.324.03-7.948.065-9.413.008-.276.262-.472.512-.488a.5.5 0 0 1 .488.512c-.036 1.455-.065 9.314-.065 9.393a.5.5 0 0 1-.5.498ZM201.114 66.621l-23.067 34.437a.745.745 0 0 0 .565 1.158l38.886 2.8a.745.745 0 0 0 .739-1.034l-15.818-37.238a.745.745 0 0 0-1.305-.123Z" class="cls-3"/><path d="M201.29 65.043 178.222 99.48a.745.745 0 0 0 .565 1.158l38.886 2.8a.745.745 0 0 0 .74-1.034l-15.819-37.238a.745.745 0 0 0-1.304-.123Z" class="cls-10"/><path d="M217.73 103.94c-.032 0-.062 0-.093-.003l-38.886-2.801a1.233 1.233 0 0 1-1.03-.695 1.234 1.234 0 0 1 .085-1.24l23.068-34.436a1.244 1.244 0 0 1 2.181.206l15.817 37.238c.172.403.122.855-.132 1.21-.237.331-.61.522-1.01.522Zm-15.822-38.727a.237.237 0 0 0-.203.108l-23.068 34.437a.24.24 0 0 0-.016.244.24.24 0 0 0 .202.137l38.886 2.801c.127.016.187-.06.217-.102a.237.237 0 0 0 .026-.238l-15.818-37.238a.24.24 0 0 0-.226-.15Z" class="cls-2"/><path d="m199.267 74.755 3.001.259-2.339 16.744-1.643-.111.981-16.892z" class="cls-2"/><ellipse cx="198.634" cy="95.834" class="cls-2" rx="1.467" ry="1.71"/><path d="m198.665 65.887 2.966 3.444.546-.779-1.803-4.462-1.709 1.797z" class="cls-7"/><path d="m201.671 70.143-3.68-4.273 2.556-2.687 2.196 5.434-1.072 1.526Zm-2.332-4.24 2.252 2.615.021-.03-1.41-3.49-.863.906ZM287.73 82.933l-13.387 39.228a.745.745 0 0 0 .845.972l38.289-7.34a.745.745 0 0 0 .447-1.19l-24.902-31.887a.745.745 0 0 0-1.292.218Z" class="cls-3"/><path d="M289.246 80.643 275.77 119.84a.745.745 0 0 0 .843.974l38.305-7.254a.745.745 0 0 0 .45-1.189l-24.83-31.943a.745.745 0 0 0-1.292.215Z" class="cls-10"/><path d="M276.469 121.328a1.23 1.23 0 0 1-.936-.43 1.232 1.232 0 0 1-.236-1.22l13.476-39.198a1.243 1.243 0 0 1 2.16-.359l24.83 31.943c.268.346.336.796.181 1.205-.154.41-.503.702-.932.783l-38.306 7.254c-.08.015-.16.022-.237.022Zm13.25-40.523-13.477 39.198a.24.24 0 0 0 .047.24.232.232 0 0 0 .23.08l38.307-7.254a.236.236 0 0 0 .183-.154.242.242 0 0 0-.036-.238l-24.83-31.942a.24.24 0 0 0-.233-.092.24.24 0 0 0-.192.162Z" class="cls-2"/><path d="m289.778 90.549 2.968-.518 2.029 16.784-1.617.313-3.38-16.579z" class="cls-2"/><ellipse cx="294.567" cy="111.087" class="cls-2" rx="1.467" ry="1.71" transform="rotate(-14.843 294.568 111.087)"/><path d="m287.937 80.694 2.187 3.984.696-.648-.838-4.739-2.045 1.403z" class="cls-7"/><path d="m289.994 85.481-2.713-4.944 3.059-2.098 1.02 5.772-1.366 1.27Zm-1.4-4.631 1.66 3.025.026-.026-.655-3.707-1.031.708Z" class="cls-3"/><ellipse cx="288.584" cy="79.512" class="cls-6" rx="3.287" ry="2.145" transform="rotate(-25.823 288.584 79.512)"/><path d="M287.576 82.416c-.165 0-.328-.01-.486-.03-.91-.117-1.59-.552-1.915-1.225-.326-.672-.245-1.475.228-2.26.432-.718 1.151-1.346 2.028-1.77 1.912-.926 3.916-.603 4.562.731.645 1.335-.346 3.106-2.257 4.03-.709.344-1.459.524-2.16.524Zm2.028-4.809c-.536 0-1.147.138-1.737.424-.704.34-1.275.833-1.608 1.386-.168.28-.418.825-.183 1.309.233.484.814.626 1.14.668.64.08 1.38-.06 2.084-.402 1.36-.657 2.18-1.891 1.792-2.694-.22-.454-.789-.69-1.488-.69Z" class="cls-3"/><path d="m395.013 191.712-28.827 29.783a.745.745 0 0 0 .35 1.24l37.767 9.675a.745.745 0 0 0 .911-.886l-8.939-39.458a.745.745 0 0 0-1.262-.354Z" class="cls-10"/><path d="M404.49 232.934a1.25 1.25 0 0 1-.312-.04l-37.766-9.675a1.233 1.233 0 0 1-.89-.868 1.234 1.234 0 0 1 .306-1.204l28.826-29.783a1.245 1.245 0 0 1 2.109.591l8.939 39.458c.097.426-.032.863-.346 1.168-.237.23-.546.353-.865.353Zm-8.944-40.949a.234.234 0 0 0-.173.075l-28.827 29.782a.236.236 0 0 0-.06.237c.01.041.05.14.174.171l37.766 9.676a.238.238 0 0 0 .233-.062.24.24 0 0 0 .068-.23l-8.94-39.458a.24.24 0 0 0-.173-.182.258.258 0 0 0-.068-.009Z" class="cls-2"/><path d="m391.295 200.909 2.907.789-5.281 16.061-1.597-.402 3.971-16.448z" class="cls-2"/><ellipse cx="386.921" cy="221.54" class="cls-2" rx="1.71" ry="1.467" transform="rotate(-79.75 386.921 221.54)"/><path d="m396.623 190.904-2.309 3.915.912.268 3.648-3.14-2.251-1.043z" class="cls-7"/><path d="m395.346 195.643-1.79-.525 2.867-4.857 3.365 1.559-4.442 3.823Zm-.276-1.123.036.01 2.854-2.456-1.137-.525-1.753 2.97Z" class="cls-3"/><path d="M396.153 195.235c-.297 0-.56-.071-.79-.214-.79-.494-.762-1.578-.756-1.7v-14.77a.5.5 0 1 1 1 0v14.793c-.009.222.053.684.287.829.236.144.723.036 1.34-.302a.5.5 0 0 1 .48.877c-.592.324-1.114.487-1.56.487Z" class="cls-5"/><path d="m393.168 147.999-10.592 40.072a.745.745 0 0 0 .911.91l37.678-10.017a.745.745 0 0 0 .362-1.218l-27.085-30.055a.745.745 0 0 0-1.274.308Z" class="cls-3"/><path d="m393.349 145.732-10.915 39.986a.745.745 0 0 0 .904.918l37.757-9.715a.745.745 0 0 0 .372-1.215l-26.842-30.272a.745.745 0 0 0-1.277.298Z" class="cls-10"/><path d="M383.147 187.16a1.23 1.23 0 0 1-.882-.373 1.232 1.232 0 0 1-.313-1.201l10.914-39.986a1.245 1.245 0 0 1 2.133-.498l26.842 30.272c.29.326.387.771.26 1.19a1.238 1.238 0 0 1-.882.841l-37.755 9.715c-.106.027-.211.04-.317.04Zm10.684-41.296-10.914 39.986a.236.236 0 0 0 .061.236c.03.03.114.099.237.066l37.754-9.715a.24.24 0 0 0 .174-.166.236.236 0 0 0-.05-.234l-26.842-30.272c-.088-.098-.198-.085-.24-.075s-.145.047-.18.174Z" class="cls-2"/><path d="m394.52 155.583 2.929-.709 3.108 16.618-1.593.417-4.444-16.326z" class="cls-2"/><ellipse cx="400.626" cy="175.769" class="cls-2" rx="1.467" ry="1.71" transform="rotate(-18.549 400.626 175.769)"/><path d="m396.868 145.303-1.932 4.114.933.181 3.338-3.468-2.339-.827z" class="cls-7"/><path d="m396.04 150.14-1.83-.355 2.398-5.104 3.497 1.236-4.064 4.223Zm-.378-1.092.035.007 2.611-2.712-1.18-.417-1.466 3.122Z" class="cls-3"/><path d="M253.118 94.596c-11.624 0-21.428-3.144-28.94-6.843-16.056-7.905-25.376-19.989-25.468-20.11a.5.5 0 0 1 .796-.606c.09.12 9.292 12.04 25.148 19.836 14.605 7.18 38.027 12.23 66.667-4.496a.5.5 0 1 1 .504.863c-14.33 8.369-27.383 11.356-38.707 11.356ZM396.328 150.06c-.193 0-.375-.036-.55-.108-1.086-.448-1.166-2.084-1.172-2.269V99.318a.5.5 0 1 1 1 0v48.35c.013.349.169 1.202.555 1.36.333.139.997-.213 1.77-.945a.5.5 0 1 1 .687.727c-.885.837-1.64 1.25-2.29 1.25Z" class="cls-5"/><path d="m396.482 98.56-28.268 30.314a.745.745 0 0 0 .373 1.233l37.94 8.971a.745.745 0 0 0 .895-.903L397.75 98.89a.745.745 0 0 0-1.268-.33Z" class="cls-3"/><path d="m395.928 96.185-27.915 30.64a.745.745 0 0 0 .388 1.228l38.041 8.53a.745.745 0 0 0 .885-.913L397.2 96.5a.745.745 0 0 0-1.272-.316Z" class="cls-10"/><path d="M406.61 137.102a1.24 1.24 0 0 1-.277-.03l-38.041-8.531a1.234 1.234 0 0 1-.916-.841 1.232 1.232 0 0 1 .268-1.213l27.914-30.64a1.245 1.245 0 0 1 2.126.526l10.127 39.172a1.24 1.24 0 0 1-.312 1.179 1.235 1.235 0 0 1-.89.378Zm-10.313-40.58-27.915 30.639a.24.24 0 0 0-.052.239c.012.04.055.137.18.165l38.041 8.531a.242.242 0 0 0 .23-.068.241.241 0 0 0 .061-.233l-10.127-39.17a.239.239 0 0 0-.177-.176.236.236 0 0 0-.241.073Z" class="cls-2"/><path d="m392.489 105.489 2.93.702-4.794 16.213-1.609-.354 3.473-16.561z" class="cls-2"/><ellipse cx="388.74" cy="126.243" class="cls-2" rx="1.71" ry="1.467" transform="rotate(-81.48 388.74 126.243)"/><path d="m391.486 98.424 4.043 2.078.214-.927-3.347-3.458-.91 2.307z" class="cls-7"/><path d="m395.872 101.24-5.017-2.578 1.36-3.45 4.076 4.211-.42 1.817Zm-3.755-3.054 3.07 1.577.008-.035-2.618-2.706-.46 1.164Z" class="cls-3"/><ellipse cx="391.361" cy="97.082" class="cls-6" rx="3.287" ry="2.145" transform="rotate(-59.86 391.361 97.082)"/><path d="M390.48 100.626a2.01 2.01 0 0 1-1.02-.268c-1.282-.745-1.452-2.767-.387-4.604.49-.842 1.17-1.513 1.918-1.89.82-.41 1.624-.432 2.272-.057 1.282.746 1.452 2.768.386 4.604-.806 1.388-2.054 2.215-3.169 2.215Zm1.769-6.085c-.317 0-.619.12-.808.217-.577.29-1.11.822-1.503 1.498-.759 1.307-.747 2.79.024 3.236.773.45 2.063-.277 2.822-1.583s.747-2.789-.024-3.236a1.005 1.005 0 0 0-.511-.132Z" class="cls-3"/><path d="M352.25 114.85c-12.397 0-23.377-3.446-32.074-7.565-19.303-9.14-31.8-23.48-31.924-23.624a.5.5 0 0 1 .758-.653c.122.143 12.502 14.34 31.623 23.387 17.6 8.327 44.694 13.863 73.832-7.045a.499.499 0 1 1 .582.813c-15.147 10.87-29.755 14.688-42.797 14.688Z" class="cls-5"/><ellipse cx="397.97" cy="190.857" class="cls-6" rx="2.145" ry="3.287" transform="rotate(-56.522 397.97 190.857)"/><path d="M399.09 193.905h-.022c-.837-.005-1.745-.304-2.557-.841-1.771-1.172-2.518-3.058-1.7-4.296.412-.624 1.186-.946 2.06-.958.837.005 1.745.304 2.558.841s1.443 1.256 1.775 2.025c.363.84.337 1.647-.076 2.27-.41.619-1.132.959-2.038.959Zm-2.24-5.095c-.33 0-.913.068-1.205.51-.491.744.157 2.076 1.417 2.91.652.431 1.366.67 2.012.675.344-.01.924-.061 1.22-.51.296-.449.123-1.021-.008-1.323-.256-.592-.757-1.156-1.408-1.587-.654-.431-1.369-.671-2.013-.675h-.015Z" class="cls-3"/><ellipse cx="398.204" cy="145.13" class="cls-6" rx="2.145" ry="3.287" transform="rotate(-61.899 398.205 145.13)"/><path d="M399.259 148.08c-.722 0-1.524-.201-2.3-.616-.86-.459-1.555-1.116-1.957-1.85-.442-.803-.49-1.608-.138-2.268.353-.66 1.049-1.067 1.96-1.147.835-.073 1.768.139 2.626.598 1.873 1 2.793 2.808 2.096 4.117-.41.765-1.27 1.166-2.287 1.166Zm-2.101-4.895a2.86 2.86 0 0 0-.245.01c-.327.029-.913.148-1.166.622-.254.475-.027 1.028.13 1.316.311.566.863 1.08 1.552 1.449 1.332.71 2.812.647 3.234-.139.42-.787-.352-2.053-1.684-2.765-.603-.322-1.24-.493-1.821-.493Z" class="cls-3"/><path d="M200.162 68.706a.5.5 0 0 1-.102-.99c.249-.053.953-.298 1.216-.782.149-.275.147-.607-.009-1.013a.5.5 0 0 1 .935-.356c.262.689.245 1.312-.051 1.853-.541.988-1.832 1.266-1.887 1.277a.524.524 0 0 1-.102.01Z" class="cls-5"/><ellipse cx="199.052" cy="64.597" class="cls-6" rx="3.287" ry="2.145" transform="rotate(-37.804 199.052 64.597)"/><path d="M197.905 67.73c-.787 0-1.435-.284-1.845-.813-.458-.59-.546-1.392-.247-2.258.274-.791.848-1.555 1.617-2.152s1.654-.964 2.488-1.032c.916-.073 1.668.21 2.126.8.91 1.173.307 3.11-1.37 4.412-.77.596-1.653.963-2.488 1.031-.095.008-.19.012-.28.012Zm2.287-5.266c-.07 0-.136.003-.192.008-.644.052-1.339.345-1.956.825-.619.48-1.075 1.08-1.286 1.69-.107.31-.237.893.092 1.317.329.425.928.443 1.255.417.643-.052 1.338-.345 1.955-.824 1.194-.926 1.74-2.304 1.194-3.009-.272-.35-.727-.424-1.062-.424ZM189.212 153.98l30.29-15.736s9.995 25.337 15.956 26.476c-8.504 8.592-30.465 19.901-30.465 19.901s-13.852-9.424-15.78-30.64Z" class="cls-3"/><path d="m189.738 151.438 30.29-15.737s9.995 25.337 15.957 26.477c-8.505 8.591-30.466 19.901-30.466 19.901s-13.852-9.425-15.78-30.64Z" class="cls-9"/><path d="m464.269 76.324-32.31-11.012s-6.078 26.55-11.8 28.572c9.697 7.218 33.107 15.103 33.107 15.103s12.28-11.397 11.003-32.663Z" class="cls-3"/><path d="m463.367 73.89-32.309-11.013s-6.078 26.55-11.801 28.572c9.697 7.218 33.107 15.103 33.107 15.103s12.28-11.397 11.003-32.663Z" class="cls-9"/><path d="M452.544 107.357a.508.508 0 0 1-.188-.036c-9.959-4.02-33.151-13.628-33.408-16.007a.711.711 0 0 1 .32-.677c7.628-5.207 11.375-27.15 11.412-27.372a.502.502 0 0 1 .65-.392l31.795 10.536a.5.5 0 0 1-.315.95l-31.244-10.355c-.65 3.586-4.307 22.09-11.53 27.316 1.57 1.853 17.76 9.045 32.695 15.073a.5.5 0 0 1-.187.964Z" class="cls-3"/><path d="m457.178 83.774-.04-.001a72.37 72.37 0 0 0-3.137-.17c-3.632-.14-5.29-.204-8.412-3.584-5.94-6.43-8.995-4.921-9.025-4.905a.5.5 0 0 1-.504-.863c.147-.087 3.687-2.029 10.263 5.09 2.84 3.075 4.168 3.126 7.716 3.262.908.035 1.948.075 3.178.173a.5.5 0 0 1-.039.998ZM441.572 86.93a.499.499 0 0 1-.389-.185 48.563 48.563 0 0 1-.917-1.18c-1.42-1.87-2.051-2.726-4.724-2.624-1.823.072-3.153-.251-3.906-.956-.568-.53-.6-1.089-.602-1.15a.5.5 0 0 1 .999-.046c.008.053.231 1.28 3.472 1.153 3.152-.124 4.07 1.061 5.557 3.018.27.356.564.742.899 1.156a.5.5 0 0 1-.389.815ZM215.381 164.768a.499.499 0 0 1-.27-.08c-2.387-1.541-3.89-4.865-3.954-5.005a.501.501 0 0 1 .263-.665c.084-.037 2.13-.967 1.671-3.9-.197-1.264-1.048-2.481-2.119-3.027-.905-.462-1.92-.433-2.934.086-2.772 1.416-1.59 3.949-1.538 4.056a.5.5 0 0 1-.9.435c-.585-1.212-.924-3.896 1.983-5.382 1.657-.847 3.004-.514 3.844-.086 1.363.696 2.404 2.173 2.653 3.765.434 2.782-1.032 4.177-1.814 4.71.462.9 1.708 3.088 3.387 4.173a.5.5 0 0 1-.272.92ZM218.187 166.71a.496.496 0 0 1-.265-.076l-.701-.438a.5.5 0 0 1 .53-.848l.701.439a.5.5 0 0 1-.265.924Z" class="cls-3"/><path d="M205.388 182.908a.499.499 0 0 1-.255-.93c13.86-8.202 28.787-17.743 30.061-19.811-7.925-4.083-14.319-21.827-15.499-25.275l-29.336 14.926a.5.5 0 0 1-.453-.892l29.852-15.188a.501.501 0 0 1 .702.29c.07.213 7.068 21.346 15.39 25.348a.71.71 0 0 1 .42.622c.102 2.39-21.385 15.37-30.628 20.84a.498.498 0 0 1-.254.07Z" class="cls-3"/></svg>