<svg width="318" height="104" fill="none" xmlns="http://www.w3.org/2000/svg"><path stroke="#2B1D38" d="M2 11.5h309"/><rect x=".5" y=".5" width="52" height="23" rx="11.5" fill="#fff"/><path d="M17.606 7.6c.392 0 .76.048 1.104.144.352.096.66.244.924.444s.472.456.624.768c.16.312.24.688.24 1.128 0 .648-.164 1.164-.492 1.548a2.59 2.59 0 01-1.236.816l1.812 3.156a.299.299 0 01.036.132.264.264 0 01-.084.192.244.244 0 01-.18.072h-.516c-.16 0-.28-.04-.36-.12a1.261 1.261 0 01-.156-.204l-1.74-3.06h-2.064v3.06a.311.311 0 01-.096.228.311.311 0 01-.228.096h-.492a.311.311 0 01-.228-.096.311.311 0 01-.096-.228V7.924c0-.088.032-.164.096-.228a.311.311 0 01.228-.096h2.904zm-2.088 3.936h2.028c.576 0 1.02-.112 1.332-.336.32-.232.48-.604.48-1.116 0-.512-.16-.872-.48-1.08-.312-.216-.756-.324-1.332-.324h-2.028v2.856zm9.018-1.896c.432 0 .816.068 1.152.204.336.128.624.308.864.54.24.232.428.516.564.852.144.328.232.688.264 1.08.008.072.012.16.012.264v.624a3.834 3.834 0 01-.276 1.332 2.465 2.465 0 01-.564.84c-.24.232-.528.416-.864.552a3.22 3.22 0 01-1.152.192 3.22 3.22 0 01-1.152-.192 2.667 2.667 0 01-.864-.552 2.615 2.615 0 01-.576-.84 3.58 3.58 0 01-.252-1.092 6.031 6.031 0 01-.024-.24v-.312-.312a8.02 8.02 0 01.024-.264c.032-.392.116-.752.252-1.08.144-.336.336-.62.576-.852.24-.232.528-.412.864-.54a3.05 3.05 0 011.152-.204zm1.752 3.744c.016-.136.024-.3.024-.492 0-.2-.008-.372-.024-.516a2.578 2.578 0 00-.156-.672 1.547 1.547 0 00-.864-.9 1.869 1.869 0 00-.732-.132c-.28 0-.524.044-.732.132a1.547 1.547 0 00-.864.9c-.08.208-.132.432-.156.672a4.759 4.759 0 00-.024.516c0 .192.008.356.024.492.024.24.076.464.156.672a1.547 1.547 0 00.864.9c.208.088.452.132.732.132.28 0 .524-.044.732-.132a1.547 1.547 0 00.864-.9c.08-.208.132-.432.156-.672zm5.174-3.744c.432 0 .816.068 1.152.204.336.128.624.308.864.54.24.232.428.516.564.852.144.328.232.688.264 1.08.008.072.012.16.012.264v.624a3.834 3.834 0 01-.276 1.332 2.465 2.465 0 01-.564.84c-.24.232-.528.416-.864.552a3.22 3.22 0 01-1.152.192 3.22 3.22 0 01-1.152-.192 2.667 2.667 0 01-.864-.552 2.615 2.615 0 01-.576-.84 3.58 3.58 0 01-.252-1.092 6.031 6.031 0 01-.024-.24v-.312-.312a8.02 8.02 0 01.024-.264c.032-.392.116-.752.252-1.08.144-.336.336-.62.576-.852.24-.232.528-.412.864-.54a3.05 3.05 0 011.152-.204zm1.752 3.744c.016-.136.024-.3.024-.492 0-.2-.008-.372-.024-.516a2.578 2.578 0 00-.156-.672 1.547 1.547 0 00-.864-.9 1.869 1.869 0 00-.732-.132c-.28 0-.524.044-.732.132a1.547 1.547 0 00-.864.9c-.08.208-.132.432-.156.672a4.759 4.759 0 00-.024.516c0 .192.008.356.024.492.024.24.076.464.156.672a1.547 1.547 0 00.864.9c.208.088.452.132.732.132.28 0 .524-.044.732-.132a1.547 1.547 0 00.864-.9c.08-.208.132-.432.156-.672zm4.168.516c0 .152.012.296.036.432.032.128.084.24.156.336a.731.731 0 00.3.228c.136.048.308.072.516.072h.636c.088 0 .164.032.228.096s.096.14.096.228v.384a.311.311 0 01-.096.228.311.311 0 01-.228.096h-.756c-.696 0-1.2-.18-1.512-.54-.312-.36-.468-.88-.468-1.56v-3.108h-.888a.311.311 0 01-.228-.096.311.311 0 01-.096-.228v-.384c0-.088.032-.164.096-.228a.311.311 0 01.228-.096h.888V7.804c0-.088.032-.164.096-.228a.311.311 0 01.228-.096h.444c.088 0 .164.032.228.096s.096.14.096.228V9.76h1.524c.088 0 .164.032.228.096s.096.14.096.228v.384a.311.311 0 01-.096.228.311.311 0 01-.228.096h-1.524V13.9z" fill="#2B1D38"/><rect x=".5" y=".5" width="52" height="23" rx="11.5" stroke="#2B1D38"/><rect x="61.5" y=".5" width="63" height="23" rx="11.5" fill="#fff"/><path d="M78.782 7.6c.392 0 .76.052 1.104.156.352.096.66.248.924.456.264.208.472.472.624.792.16.32.24.7.24 1.14 0 .44-.08.824-.24 1.152-.152.32-.36.588-.624.804a2.607 2.607 0 01-.924.48 3.796 3.796 0 01-1.104.156h-2.208v2.94a.311.311 0 01-.096.228.311.311 0 01-.228.096h-.492a.311.311 0 01-.228-.096.311.311 0 01-.096-.228V7.924c0-.088.032-.164.096-.228a.311.311 0 01.228-.096h3.024zm-2.208 4.056h2.148c.576 0 1.02-.124 1.332-.372.32-.248.48-.628.48-1.14 0-.512-.16-.884-.48-1.116-.312-.232-.756-.348-1.332-.348h-2.148v2.976zm5.843 2.772c0-.32.064-.6.192-.84s.304-.444.528-.612c.224-.168.484-.304.78-.408.304-.104.624-.184.96-.24l1.692-.276v-.156c0-.408-.136-.712-.408-.912-.264-.208-.596-.312-.996-.312-.352 0-.62.064-.804.192-.176.128-.328.28-.456.456a.395.395 0 01-.156.132.59.59 0 01-.228.036h-.36a.353.353 0 01-.24-.096.274.274 0 01-.084-.228 1.19 1.19 0 01.204-.54 1.97 1.97 0 01.504-.492c.216-.144.46-.26.732-.348.28-.096.576-.144.888-.144.36 0 .692.052.996.156.312.104.576.256.792.456.224.2.396.448.516.744.128.296.192.636.192 1.02v3.66a.311.311 0 01-.096.228.311.311 0 01-.228.096h-.444a.311.311 0 01-.228-.096.311.311 0 01-.096-.228v-.492a1.148 1.148 0 01-.336.408 2.368 2.368 0 01-.528.288c-.192.08-.396.14-.612.18a3.12 3.12 0 01-.588.06c-.312 0-.6-.044-.864-.132a2.245 2.245 0 01-.66-.348 1.727 1.727 0 01-.42-.54 1.584 1.584 0 01-.144-.672zm2.208.66c.288 0 .552-.044.792-.132.24-.088.444-.208.612-.36.176-.16.308-.348.396-.564.096-.216.144-.456.144-.72v-.3l-1.416.228c-.504.08-.904.208-1.2.384-.296.176-.444.404-.444.684 0 .088.02.176.06.264.04.088.104.172.192.252.088.08.2.144.336.192.144.048.32.072.528.072zM92.58 9.76c.088 0 .164.032.228.096s.096.14.096.228v.384a.311.311 0 01-.096.228.311.311 0 01-.228.096h-.696c-.92 0-1.38.46-1.38 1.38v3.504a.311.311 0 01-.096.228.311.311 0 01-.228.096h-.444a.311.311 0 01-.228-.096.311.311 0 01-.096-.228v-5.592c0-.088.032-.164.096-.228a.311.311 0 01.228-.096h.444c.088 0 .164.032.228.096s.096.14.096.228v.372c.16-.24.352-.416.576-.528.224-.112.516-.168.876-.168h.624zm.95 2.52c.032-.368.12-.712.264-1.032.144-.32.332-.6.564-.84.232-.24.508-.428.828-.564a2.825 2.825 0 011.092-.204 2.9 2.9 0 011.152.216c.344.136.636.336.876.6a2.7 2.7 0 01.552.96c.128.376.192.796.192 1.26V13a.311.311 0 01-.096.228.311.311 0 01-.228.096h-4.128v.072c.016.544.18.964.492 1.26.32.288.716.432 1.188.432.44 0 .768-.06.984-.18.224-.128.404-.268.54-.42a.698.698 0 01.168-.132.501.501 0 01.216-.036h.36c.088 0 .168.032.24.096.072.064.1.14.084.228a1.326 1.326 0 01-.204.48 1.88 1.88 0 01-.492.48 3.045 3.045 0 01-.792.372c-.312.096-.68.144-1.104.144-.4 0-.76-.068-1.08-.204-.32-.144-.6-.336-.84-.576a3.044 3.044 0 01-.564-.864 3.47 3.47 0 01-.264-1.092 5.093 5.093 0 010-1.104zm1.068.036h3.372v-.036c0-.488-.156-.876-.468-1.164-.304-.296-.712-.444-1.224-.444-.232 0-.448.04-.648.12-.2.072-.376.18-.528.324a1.449 1.449 0 00-.36.504c-.088.2-.136.42-.144.66v.036zm11.444 3.36a.311.311 0 01-.096.228.311.311 0 01-.228.096h-.444a.311.311 0 01-.228-.096.311.311 0 01-.096-.228v-3.168c0-.616-.148-1.076-.444-1.38-.296-.304-.708-.456-1.236-.456-.504 0-.912.152-1.224.456-.304.304-.456.764-.456 1.38v3.168a.311.311 0 01-.096.228.311.311 0 01-.228.096h-.444a.311.311 0 01-.228-.096.311.311 0 01-.096-.228v-5.592c0-.088.032-.164.096-.228a.311.311 0 01.228-.096h.444c.088 0 .164.032.228.096s.096.14.096.228v.372c.152-.2.376-.384.672-.552.304-.176.7-.264 1.188-.264.376 0 .724.064 1.044.192.32.12.592.296.816.528.232.224.412.504.54.84.128.336.192.712.192 1.128v3.348zm3.283-1.776c0 .152.012.296.036.432.032.128.084.24.156.336a.731.731 0 00.3.228c.136.048.308.072.516.072h.636c.088 0 .164.032.228.096s.096.14.096.228v.384a.311.311 0 01-.096.228.311.311 0 01-.228.096h-.756c-.696 0-1.2-.18-1.512-.54-.312-.36-.468-.88-.468-1.56v-3.108h-.888a.311.311 0 01-.228-.096.311.311 0 01-.096-.228v-.384c0-.088.032-.164.096-.228a.311.311 0 01.228-.096h.888V7.804c0-.088.032-.164.096-.228a.311.311 0 01.228-.096h.444c.088 0 .164.032.228.096s.096.14.096.228V9.76h1.524c.088 0 .164.032.228.096s.096.14.096.228v.384a.311.311 0 01-.096.228.311.311 0 01-.228.096h-1.524V13.9z" fill="#2B1D38"/><rect x="61.5" y=".5" width="63" height="23" rx="11.5" stroke="#2B1D38"/><g filter="url(#filter0_d)"><mask id="a" fill="#fff"><path d="M47 34a4 4 0 014-4h257a4 4 0 014 4v63a4 4 0 01-4 4H51a4 4 0 01-4-4V34z"/></mask><path d="M47 34a4 4 0 014-4h257a4 4 0 014 4v63a4 4 0 01-4 4H51a4 4 0 01-4-4V34z" fill="#fff"/><path d="M51 31h257v-2H51v2zm260 3v63h2V34h-2zm-3 66H51v2h257v-2zM48 97V34h-2v63h2zm3 3a3 3 0 01-3-3h-2a5 5 0 005 5v-2zm260-3a3 3 0 01-3 3v2a5 5 0 005-5h-2zm-3-66a3 3 0 013 3h2a5 5 0 00-5-5v2zM51 29a5 5 0 00-5 5h2a3 3 0 013-3v-2z" fill="#C6BECF" mask="url(#a)"/></g><path d="M59 74h16v16H59V74zm9.54 13.2c.22.5.68.98 1.24 1.22.82.38 1.66.42 2.5.18.88-.26 1.4-.86 1.48-1.78.06-.72-.16-1.34-.74-1.82-.3-.26-.66-.44-1.02-.6-.32-.14-.66-.28-.98-.44-.14-.06-.28-.16-.4-.28-.34-.36-.16-.96.34-1.08.4-.1.76.02 1.02.36l.18.24c.4-.26.78-.5 1.16-.74-.32-.58-.76-.98-1.4-1.12-.4-.1-.82-.12-1.24-.04-.96.16-1.62.84-1.68 1.78-.06.68.14 1.3.66 1.76.34.3.76.5 1.18.68.3.14.6.26.9.4.1.06.22.12.3.2.36.32.3.84-.1 1.1-.1.06-.2.1-.3.12-.68.14-1.24-.04-1.68-.58-.06-.08-.12-.18-.2-.28-.42.26-.82.5-1.22.72zm-5.32.18c.22.48.54.84 1 1.08.66.34 1.34.36 2.04.18S67.4 88 67.6 87.3c.08-.28.1-.56.1-.86v-4.96c0-.04 0-.08-.02-.14h-1.5v5.3c-.02.12-.04.26-.08.38-.06.18-.2.3-.4.34-.46.1-.8-.02-1.04-.38l-.24-.36c-.4.26-.8.5-1.2.76z" fill="#F6DE1E"/><path d="M68.54 87.2c.4-.24.8-.46 1.2-.7.06.1.12.18.2.28.44.56 1 .72 1.68.58.1-.02.22-.08.3-.12.4-.24.46-.78.1-1.1a.985.985 0 00-.3-.2c-.3-.14-.6-.28-.9-.4-.42-.18-.82-.38-1.18-.68-.54-.48-.72-1.08-.66-1.76.06-.94.74-1.6 1.68-1.78.42-.08.84-.06 1.24.04.64.16 1.08.54 1.4 1.12-.38.24-.76.5-1.16.74-.06-.08-.12-.18-.18-.24-.26-.34-.6-.46-1.02-.36-.5.1-.68.72-.34 1.08.1.12.24.2.4.28.32.16.66.3.98.44.36.16.7.34 1.02.6.58.48.8 1.1.74 1.82-.08.92-.6 1.54-1.48 1.78-.86.24-1.7.2-2.5-.18-.54-.26-1.02-.74-1.22-1.24zM63.22 87.38c.4-.24.8-.5 1.22-.74l.24.36c.24.36.58.48 1.04.38.2-.04.34-.16.4-.34.04-.12.06-.24.08-.38.02-.1 0-.22 0-.34v-4.76-.2c.5-.02.98 0 1.5 0 0 .06.02.1.02.14v4.96c0 .28-.02.58-.1.86-.2.7-.64 1.16-1.34 1.34-.7.18-1.38.16-2.04-.18-.48-.26-.8-.64-1.02-1.1zM82.012 87.064c.117 0 .219.043.304.128a.415.415 0 01.128.304v1.072a.415.415 0 01-.128.304.415.415 0 01-.304.128H80.94a.415.415 0 01-.304-.128.415.415 0 01-.128-.304v-1.072c0-.117.043-.219.128-.304a.415.415 0 01.304-.128h1.072zm3.953 0c.117 0 .219.043.304.128a.415.415 0 01.128.304v1.072a.415.415 0 01-.128.304.415.415 0 01-.304.128h-1.072a.416.416 0 01-.304-.128.415.415 0 01-.128-.304v-1.072c0-.117.043-.219.128-.304a.416.416 0 01.304-.128h1.072zm3.953 0c.118 0 .219.043.304.128a.415.415 0 01.128.304v1.072a.415.415 0 01-.128.304.416.416 0 01-.304.128h-1.072a.415.415 0 01-.304-.128.415.415 0 01-.128-.304v-1.072c0-.117.043-.219.128-.304a.415.415 0 01.304-.128h1.072zm7.233-10.16a.97.97 0 01.24-.32c.107-.107.262-.16.464-.16h.528c.096 0 .176.037.24.112a.303.303 0 01.112.24c0 .043-.01.09-.032.144l-5.408 12.944a.977.977 0 01-.224.32c-.106.107-.266.16-.48.16h-.48a.352.352 0 01-.256-.112.326.326 0 01-.096-.24c0-.043.011-.09.032-.144l5.36-12.944zm10.829 5.152a59.4 59.4 0 010 2.704 6.152 6.152 0 01-.272 1.744c-.16.533-.405.997-.736 1.392a3.394 3.394 0 01-1.264.928c-.501.224-1.104.336-1.808.336s-1.312-.112-1.824-.336a3.425 3.425 0 01-1.248-.928 4.075 4.075 0 01-.752-1.392 6.562 6.562 0 01-.256-1.744 61.139 61.139 0 010-2.704c.01-.619.096-1.195.256-1.728a4.053 4.053 0 01.752-1.408 3.425 3.425 0 011.248-.928c.512-.235 1.12-.352 1.824-.352s1.307.117 1.808.352c.512.224.933.533 1.264.928.331.395.576.864.736 1.408.171.533.261 1.11.272 1.728zm-6.656 2.704c.021 1.013.245 1.76.672 2.24.437.48 1.072.72 1.904.72.832 0 1.461-.24 1.888-.72.437-.48.667-1.227.688-2.24a58.75 58.75 0 000-2.704c-.021-1.013-.251-1.76-.688-2.24-.427-.49-1.056-.736-1.888-.736-.832 0-1.467.245-1.904.736-.427.48-.651 1.227-.672 2.24a59.4 59.4 0 000 2.704zm16.797-2.704c.01.48.016.933.016 1.36 0 .416-.006.864-.016 1.344a6.188 6.188 0 01-.272 1.744c-.16.533-.406.997-.736 1.392a3.394 3.394 0 01-1.264.928c-.502.224-1.104.336-1.808.336s-1.312-.112-1.824-.336a3.409 3.409 0 01-1.248-.928 4.058 4.058 0 01-.752-1.392 6.53 6.53 0 01-.256-1.744 58.75 58.75 0 010-2.704c.01-.619.096-1.195.256-1.728.17-.544.421-1.013.752-1.408.33-.395.746-.704 1.248-.928.512-.235 1.12-.352 1.824-.352s1.306.117 1.808.352c.512.224.933.533 1.264.928.33.395.576.864.736 1.408.17.533.261 1.11.272 1.728zm-6.656 2.704c.021 1.013.245 1.76.672 2.24.437.48 1.072.72 1.904.72.832 0 1.461-.24 1.888-.72.437-.48.666-1.227.688-2.24.01-.48.016-.928.016-1.344 0-.427-.006-.88-.016-1.36-.022-1.013-.251-1.76-.688-2.24-.427-.49-1.056-.736-1.888-.736-.832 0-1.467.245-1.904.736-.427.48-.651 1.227-.672 2.24a59.4 59.4 0 000 2.704zm13.14-7.856a.962.962 0 01.24-.32c.106-.107.261-.16.464-.16h.528c.096 0 .176.037.24.112a.305.305 0 01.112.24.4.4 0 01-.032.144l-5.408 12.944a.99.99 0 01-.224.32c-.107.107-.267.16-.48.16h-.48a.351.351 0 01-.256-.112.326.326 0 01-.096-.24c0-.043.01-.09.032-.144l5.36-12.944zm4.645 11.664a.417.417 0 01-.128.304.417.417 0 01-.304.128h-.592a.414.414 0 01-.304-.128.413.413 0 01-.128-.304V78.072c0-.117.042-.219.128-.304a.414.414 0 01.304-.128h.592c.117 0 .218.043.304.128a.417.417 0 01.128.304v10.496zm5.811-8.048c.576 0 1.088.09 1.536.272.448.17.832.41 1.152.72.32.31.571.688.752 1.136.192.437.309.917.352 1.44.011.096.016.213.016.352v.832c0 .128-.005.235-.016.32a5.111 5.111 0 01-.352 1.456c-.181.437-.432.81-.752 1.12-.32.31-.704.555-1.152.736-.448.17-.96.256-1.536.256-.576 0-1.088-.085-1.536-.256a3.555 3.555 0 01-1.152-.736 3.487 3.487 0 01-.768-1.12 4.794 4.794 0 01-.336-1.456 8.035 8.035 0 01-.032-.32v-.416-.416c.011-.139.021-.256.032-.352a4.765 4.765 0 01.336-1.44c.192-.448.448-.827.768-1.136.32-.31.704-.55 1.152-.72.448-.181.96-.272 1.536-.272zm2.336 4.992c.021-.181.032-.4.032-.656a6.43 6.43 0 00-.032-.688 3.424 3.424 0 00-.208-.896 2.169 2.169 0 00-.448-.72 2.065 2.065 0 00-.704-.48 2.492 2.492 0 00-.976-.176c-.373 0-.699.059-.976.176a2.065 2.065 0 00-.704.48 2.169 2.169 0 00-.448.72 3.424 3.424 0 00-.208.896 6.43 6.43 0 00-.032.688c0 .256.011.475.032.656.032.32.101.619.208.896.107.277.256.517.448.72.192.203.427.363.704.48.277.117.603.176.976.176s.699-.059.976-.176c.277-.117.512-.277.704-.48.192-.203.341-.443.448-.72.107-.277.176-.576.208-.896zm3.091-1.2a4.859 4.859 0 01.336-1.584c.192-.47.448-.864.768-1.184.32-.33.693-.581 1.12-.752a3.636 3.636 0 011.408-.272c.661 0 1.189.117 1.584.352.394.224.693.47.896.736v-.496c0-.117.042-.219.128-.304a.414.414 0 01.304-.128h.592c.117 0 .218.043.304.128a.417.417 0 01.128.304v7.776c0 1.11-.315 1.99-.944 2.64-.63.661-1.574.992-2.832.992-.64 0-1.19-.08-1.648-.24a3.674 3.674 0 01-1.12-.576 2.57 2.57 0 01-.656-.768 1.96 1.96 0 01-.224-.8.364.364 0 01.111-.304.474.474 0 01.321-.128h.48c.117 0 .213.027.288.08.085.064.165.181.24.352.032.064.08.15.144.256.074.117.186.23.336.336.16.117.362.213.608.288.256.085.576.128.96.128.352 0 .677-.037.976-.112.309-.064.576-.176.8-.336.224-.16.394-.373.512-.64.128-.267.192-.592.192-.976v-1.008c-.214.288-.518.544-.912.768-.395.213-.918.32-1.568.32-.502 0-.971-.085-1.408-.256a3.503 3.503 0 01-1.12-.752c-.32-.33-.576-.73-.768-1.2a4.859 4.859 0 01-.336-1.584 7.76 7.76 0 01-.016-.528c0-.192.005-.368.016-.528zm6.112-.048c-.032-.757-.262-1.339-.688-1.744-.416-.416-.96-.624-1.632-.624-.704 0-1.259.224-1.664.672-.406.448-.63 1.056-.672 1.824-.011.299-.011.597 0 .896.042.768.266 1.376.672 1.824.405.448.96.672 1.664.672.672 0 1.216-.208 1.632-.624.426-.416.656-.997.688-1.744.01-.16.016-.352.016-.576 0-.224-.006-.416-.016-.576zm5.306 4.304a.417.417 0 01-.128.304.415.415 0 01-.304.128h-.592a.415.415 0 01-.304-.128.417.417 0 01-.128-.304v-7.456c0-.117.043-.219.128-.304a.415.415 0 01.304-.128h.592c.117 0 .219.043.304.128a.417.417 0 01.128.304v7.456zm.16-9.584a.417.417 0 01-.128.304.415.415 0 01-.304.128h-.912a.415.415 0 01-.304-.128.417.417 0 01-.128-.304v-.912c0-.117.043-.219.128-.304a.415.415 0 01.304-.128h.912c.117 0 .219.043.304.128a.417.417 0 01.128.304v.912zm9.635 9.584a.413.413 0 01-.128.304.414.414 0 01-.304.128h-.592a.417.417 0 01-.304-.128.417.417 0 01-.128-.304v-4.224c0-.821-.197-1.435-.592-1.84-.394-.405-.944-.608-1.648-.608-.672 0-1.216.203-1.632.608-.405.405-.608 1.019-.608 1.84v4.224a.413.413 0 01-.128.304.414.414 0 01-.304.128h-.592a.417.417 0 01-.304-.128.417.417 0 01-.128-.304v-7.456c0-.117.043-.219.128-.304a.417.417 0 01.304-.128h.592c.118 0 .219.043.304.128a.413.413 0 01.128.304v.496c.203-.267.502-.512.896-.736.406-.235.934-.352 1.584-.352.502 0 .966.085 1.392.256a2.9 2.9 0 011.088.704c.31.299.55.672.72 1.12.171.448.256.95.256 1.504v4.464zm2.503 1.12a.415.415 0 01-.304-.128.417.417 0 01-.128-.304v-.512c0-.117.043-.219.128-.304a.415.415 0 01.304-.128h9.2c.117 0 .219.043.304.128a.417.417 0 01.128.304v.512a.417.417 0 01-.128.304.415.415 0 01-.304.128h-9.2zm15.713-.528c-.661 0-1.189-.112-1.584-.336-.394-.235-.693-.485-.896-.752v3.536a.413.413 0 01-.128.304.414.414 0 01-.304.128h-.592a.417.417 0 01-.304-.128.417.417 0 01-.128-.304V81.112c0-.117.043-.219.128-.304a.417.417 0 01.304-.128h.592c.118 0 .219.043.304.128a.413.413 0 01.128.304v.496c.214-.288.518-.539.912-.752.395-.224.918-.336 1.568-.336.502 0 .966.09 1.392.272.438.17.816.421 1.136.752.32.33.576.73.768 1.2.192.47.304.997.336 1.584.011.16.016.336.016.528 0 .181-.005.352-.016.512a4.859 4.859 0 01-.336 1.584c-.192.47-.448.87-.768 1.2-.32.32-.698.57-1.136.752-.426.17-.89.256-1.392.256zm-2.48-5.008c-.01.16-.016.373-.016.64 0 .256.006.464.016.624.032.757.256 1.344.672 1.76.427.405.976.608 1.648.608.704 0 1.259-.224 1.664-.672.406-.448.63-1.056.672-1.824.011-.299.011-.597 0-.896-.042-.768-.266-1.376-.672-1.824-.405-.448-.96-.672-1.664-.672-.661 0-1.205.203-1.632.608-.426.405-.656.955-.688 1.648zm7.515 2.752c0-.427.085-.8.256-1.12.17-.32.405-.592.704-.816a3.829 3.829 0 011.04-.544 8.014 8.014 0 011.28-.32l2.256-.368v-.208c0-.544-.182-.95-.544-1.216-.352-.277-.795-.416-1.328-.416-.47 0-.827.085-1.072.256-.235.17-.438.373-.608.608a.531.531 0 01-.208.176.789.789 0 01-.304.048h-.48a.47.47 0 01-.32-.128.362.362 0 01-.112-.304c.021-.235.112-.475.272-.72.17-.245.394-.464.672-.656.288-.192.613-.347.976-.464a3.624 3.624 0 011.184-.192c.48 0 .922.07 1.328.208.416.139.768.341 1.056.608.298.267.528.597.688.992.17.395.256.848.256 1.36v4.88a.417.417 0 01-.128.304.417.417 0 01-.304.128h-.592a.414.414 0 01-.304-.128.413.413 0 01-.128-.304v-.656a1.538 1.538 0 01-.448.544c-.203.15-.438.277-.704.384a4.012 4.012 0 01-.816.24c-.278.053-.539.08-.784.08-.416 0-.8-.059-1.152-.176a2.98 2.98 0 01-.88-.464 2.29 2.29 0 01-.56-.72 2.112 2.112 0 01-.192-.896zm2.944.88c.384 0 .736-.059 1.056-.176.32-.117.592-.277.816-.48.234-.213.41-.464.528-.752.128-.288.192-.608.192-.96v-.4l-1.888.304c-.672.107-1.206.277-1.6.512-.395.235-.592.539-.592.912 0 .117.026.235.08.352.053.117.138.23.256.336.117.107.266.192.448.256.192.064.426.096.704.096zm5.982-3.472a4.859 4.859 0 01.336-1.584c.192-.47.448-.864.768-1.184.32-.33.693-.581 1.12-.752a3.64 3.64 0 011.408-.272c.661 0 1.189.117 1.584.352.395.224.693.47.896.736v-.496c0-.117.043-.219.128-.304a.415.415 0 01.304-.128h.592c.117 0 .219.043.304.128a.417.417 0 01.128.304v7.776c0 1.11-.315 1.99-.944 2.64-.629.661-1.573.992-2.832.992-.64 0-1.189-.08-1.648-.24a3.685 3.685 0 01-1.12-.576 2.57 2.57 0 01-.656-.768 1.975 1.975 0 01-.224-.8.365.365 0 01.112-.304.471.471 0 01.32-.128h.48c.117 0 .213.027.288.08.085.064.165.181.24.352.032.064.08.15.144.256.075.117.187.23.336.336.16.117.363.213.608.288.256.085.576.128.96.128.352 0 .677-.037.976-.112.309-.064.576-.176.8-.336.224-.16.395-.373.512-.64.128-.267.192-.592.192-.976v-1.008c-.213.288-.517.544-.912.768-.395.213-.917.32-1.568.32-.501 0-.971-.085-1.408-.256a3.503 3.503 0 01-1.12-.752c-.32-.33-.576-.73-.768-1.2a4.859 4.859 0 01-.336-1.584 7.76 7.76 0 01-.016-.528c0-.192.005-.368.016-.528zm6.112-.048c-.032-.757-.261-1.339-.688-1.744-.416-.416-.96-.624-1.632-.624-.704 0-1.259.224-1.664.672-.405.448-.629 1.056-.672 1.824-.011.299-.011.597 0 .896.043.768.267 1.376.672 1.824.405.448.96.672 1.664.672.672 0 1.216-.208 1.632-.624.427-.416.656-.997.688-1.744.011-.16.016-.352.016-.576 0-.224-.005-.416-.016-.576zm3.467-.224c.042-.49.16-.95.352-1.376.192-.427.442-.8.752-1.12.309-.32.677-.57 1.104-.752a3.764 3.764 0 011.456-.272c.576 0 1.088.096 1.536.288.458.181.848.448 1.168.8.32.352.565.779.736 1.28a5.21 5.21 0 01.256 1.68V85a.417.417 0 01-.128.304.417.417 0 01-.304.128h-5.504v.096c.021.725.24 1.285.656 1.68.426.384.954.576 1.584.576.586 0 1.024-.08 1.312-.24.298-.17.538-.357.72-.56a.925.925 0 01.224-.176.669.669 0 01.288-.048h.48c.117 0 .224.043.32.128a.312.312 0 01.112.304c-.032.192-.123.405-.272.64-.15.224-.368.437-.656.64-.278.192-.63.357-1.056.496-.416.128-.907.192-1.472.192-.534 0-1.014-.09-1.44-.272a3.732 3.732 0 01-1.12-.768c-.31-.33-.56-.715-.752-1.152a4.608 4.608 0 01-.352-1.456 6.708 6.708 0 010-1.472zm1.424.048h4.496v-.048c0-.65-.208-1.168-.624-1.552-.406-.395-.95-.592-1.632-.592a2.3 2.3 0 00-.864.16c-.267.096-.502.24-.704.432a1.922 1.922 0 00-.48.672c-.118.267-.182.56-.192.88v.048z" fill="#2B1D38"/><path d="M255.911 87.568a.413.413 0 01-.128.304.414.414 0 01-.304.128h-.656a.417.417 0 01-.304-.128.417.417 0 01-.128-.304v-8.816l-2.592 1.968a.363.363 0 01-.32.096.488.488 0 01-.288-.16l-.384-.496a.446.446 0 01-.096-.32.46.46 0 01.176-.288l3.424-2.624a.545.545 0 01.256-.112c.086-.01.171-.016.256-.016h.656c.118 0 .219.043.304.128a.413.413 0 01.128.304v10.336zm5.471-7.04c.074-.021.165-.037.272-.048.117-.021.218-.032.304-.032a4.36 4.36 0 011.648.304c.512.192.949.464 1.312.816.373.341.661.747.864 1.216.213.47.32.976.32 1.52s-.107 1.05-.32 1.52c-.203.47-.491.88-.864 1.232-.363.341-.8.613-1.312.816a4.575 4.575 0 01-1.648.288 4.699 4.699 0 01-1.664-.288 4.316 4.316 0 01-1.312-.816 4.005 4.005 0 01-.864-1.232 3.787 3.787 0 01-.304-1.52c0-.31.032-.597.096-.864.074-.267.165-.517.272-.752.117-.235.245-.459.384-.672.138-.213.277-.416.416-.608l2.912-4.288c.053-.053.112-.117.176-.192.064-.085.17-.128.32-.128h.912a.26.26 0 01.224.112.326.326 0 01.096.24.23.23 0 01-.032.128.208.208 0 01-.048.08l-2.16 3.168zm-2.048 3.776c0 .32.058.624.176.912a2.531 2.531 0 001.344 1.312c.33.128.698.192 1.104.192a2.91 2.91 0 001.088-.192c.33-.139.608-.32.832-.544.224-.224.394-.48.512-.768a2.22 2.22 0 00.192-.912c0-.32-.064-.624-.192-.912a2.319 2.319 0 00-.512-.768 2.372 2.372 0 00-.832-.528 2.712 2.712 0 00-1.088-.208c-.406 0-.774.07-1.104.208-.32.128-.592.304-.816.528-.224.224-.4.48-.528.768a2.381 2.381 0 00-.176.912zm9.482.992c.054.17.128.341.224.512.096.17.24.325.432.464.192.128.443.235.752.32.32.085.731.128 1.232.128.331 0 .646-.037.944-.112.299-.085.56-.213.784-.384.224-.17.4-.379.528-.624.139-.256.208-.56.208-.912 0-.341-.064-.63-.192-.864a1.452 1.452 0 00-.528-.576 2.081 2.081 0 00-.768-.32 4.655 4.655 0 00-.976-.096h-1.328a.417.417 0 01-.304-.128.417.417 0 01-.128-.304v-.576c0-.096.027-.181.08-.256.064-.085.123-.16.176-.224l2.88-3.104h-4.608a.417.417 0 01-.304-.128.417.417 0 01-.128-.304v-.576c0-.117.043-.219.128-.304a.417.417 0 01.304-.128h6.304c.118 0 .219.043.304.128a.413.413 0 01.128.304v.576a.581.581 0 01-.08.288c-.053.085-.122.17-.208.256l-2.832 3.056c.534.01 1.019.096 1.456.256.448.15.827.368 1.136.656.32.277.566.619.736 1.024.182.395.272.843.272 1.344 0 .544-.106 1.035-.32 1.472-.213.427-.501.79-.864 1.088a3.861 3.861 0 01-1.264.672c-.48.16-.992.24-1.536.24-.714 0-1.333-.08-1.856-.24-.512-.17-.938-.39-1.28-.656a2.998 2.998 0 01-.752-.912 2.624 2.624 0 01-.256-1.04c0-.096.032-.176.096-.24a.353.353 0 01.256-.112h.736c.118 0 .208.037.272.112a.425.425 0 01.144.224zm10.012-4.688c.096-.128.208-.256.336-.384.128-.139.272-.256.432-.352a2.31 2.31 0 01.592-.256c.224-.064.485-.096.784-.096.651 0 1.189.123 1.616.368.427.235.763.576 1.008 1.024.139-.192.283-.373.432-.544.16-.17.341-.32.544-.448.213-.128.448-.224.704-.288.267-.075.576-.112.928-.112 1.077 0 1.861.325 2.352.976.491.64.736 1.52.736 2.64v4.432a.417.417 0 01-.128.304.415.415 0 01-.304.128h-.592a.415.415 0 01-.304-.128.417.417 0 01-.128-.304v-4.272c0-.821-.16-1.424-.48-1.808-.32-.395-.789-.592-1.408-.592-.565 0-1.024.187-1.376.56-.341.373-.512.95-.512 1.728v4.384a.417.417 0 01-.128.304.415.415 0 01-.304.128h-.592a.415.415 0 01-.304-.128.417.417 0 01-.128-.304v-4.272c0-.821-.16-1.424-.48-1.808-.32-.395-.789-.592-1.408-.592-.565 0-1.024.187-1.376.56-.341.373-.512.95-.512 1.728v4.384a.417.417 0 01-.128.304.415.415 0 01-.304.128h-.592a.415.415 0 01-.304-.128.417.417 0 01-.128-.304v-7.456c0-.117.043-.219.128-.304a.415.415 0 01.304-.128h.592c.117 0 .219.043.304.128a.417.417 0 01.128.304v.496zm17.514 5.088a.702.702 0 00-.176-.496c-.106-.139-.272-.256-.496-.352a5.577 5.577 0 00-.864-.272 32.085 32.085 0 00-1.2-.272c-.864-.181-1.472-.48-1.824-.896a2.315 2.315 0 01-.512-1.488c0-.32.064-.624.192-.912.128-.288.32-.544.576-.768.256-.224.576-.4.96-.528a4.47 4.47 0 011.376-.192c.523 0 .976.059 1.36.176.395.117.726.267.992.448.267.181.47.379.608.592.139.203.214.4.224.592a.347.347 0 01-.128.304.414.414 0 01-.304.128h-.528c-.064 0-.144-.01-.24-.032a.567.567 0 01-.24-.192c-.138-.181-.346-.33-.624-.448-.266-.128-.64-.192-1.12-.192-.49 0-.89.09-1.2.272-.298.181-.448.432-.448.752a.88.88 0 00.128.496c.086.117.224.224.416.32.192.085.443.165.752.24.32.075.715.165 1.184.272.491.107.902.245 1.232.416.331.16.598.347.8.56.203.203.347.432.432.688.086.245.128.507.128.784 0 .32-.08.63-.24.928-.149.299-.368.56-.656.784-.288.224-.64.405-1.056.544a4.289 4.289 0 01-1.392.208 4.491 4.491 0 01-2.432-.656 2.7 2.7 0 01-.672-.608c-.149-.224-.229-.432-.24-.624a.368.368 0 01.112-.304.435.435 0 01.32-.128h.576a.94.94 0 01.224.032c.086.01.166.07.24.176.171.235.406.416.704.544.299.128.688.192 1.168.192.235 0 .464-.027.688-.08.235-.053.438-.128.608-.224.182-.096.326-.208.432-.336a.719.719 0 00.16-.448z" fill="#776589"/><path d="M311.5 34v30.5h-264V34a3.5 3.5 0 013.5-3.5h124.22l.149-.163 5.121-5.597 5.142 5.598.148.162H308a3.5 3.5 0 013.5 3.5z" fill="#FAF9FB" stroke="#C6BECF"/><path d="M67.528 43.6c.088 0 .164.032.228.096s.096.14.096.228v.852a.311.311 0 01-.096.228.311.311 0 01-.228.096h-2.16v6.576a.311.311 0 01-.096.228.311.311 0 01-.228.096h-.972a.311.311 0 01-.228-.096.311.311 0 01-.096-.228V45.1h-2.16a.311.311 0 01-.228-.096.311.311 0 01-.096-.228v-.852c0-.088.032-.164.096-.228a.311.311 0 01.228-.096h5.94zm4.941 0c1 0 1.76.232 2.28.696.52.464.78 1.108.78 1.932 0 .584-.136 1.084-.408 1.5-.264.408-.656.712-1.176.912l1.656 2.964a.299.299 0 01.036.132.264.264 0 01-.084.192.244.244 0 01-.18.072h-1.02c-.16 0-.28-.036-.36-.108a1.02 1.02 0 01-.156-.216l-1.572-2.796H70.67v2.796a.311.311 0 01-.096.228.311.311 0 01-.228.096h-.972a.311.311 0 01-.228-.096.311.311 0 01-.096-.228v-7.752c0-.088.032-.164.096-.228a.311.311 0 01.228-.096h3.096zm-1.8 3.78h1.74c.456 0 .82-.08 1.092-.24.272-.16.408-.464.408-.912s-.136-.748-.408-.9c-.272-.152-.636-.228-1.092-.228h-1.74v2.28zm10.367-3.78c.128 0 .224.036.288.108a.8.8 0 01.168.3l2.94 7.584a.311.311 0 01-.084.312.311.311 0 01-.228.096h-.864c-.16 0-.272-.032-.336-.096a.674.674 0 01-.132-.204l-.516-1.332H78.48l-.516 1.332a.674.674 0 01-.132.204c-.064.064-.176.096-.336.096h-.864a.311.311 0 01-.228-.096.311.311 0 01-.084-.312l2.94-7.584a.8.8 0 01.168-.3c.064-.072.16-.108.288-.108h1.32zm.66 5.268l-1.32-3.42-1.32 3.42h2.64zM90.986 52c-.136 0-.24-.036-.312-.108a2.262 2.262 0 01-.156-.168l-3.36-4.992v4.944a.311.311 0 01-.096.228.311.311 0 01-.228.096h-.972a.311.311 0 01-.228-.096.311.311 0 01-.096-.228v-7.752c0-.088.032-.164.096-.228a.311.311 0 01.228-.096h.84c.136 0 .24.036.312.108.072.072.124.128.156.168l3.36 4.992v-4.944c0-.088.032-.164.096-.228a.311.311 0 01.228-.096h.972c.088 0 .164.032.228.096s.096.14.096.228v7.752a.311.311 0 01-.096.228.311.311 0 01-.228.096h-.84zm5.916-8.52c.536 0 1.008.072 1.416.216.408.144.748.324 1.02.54.272.216.476.456.612.72.144.256.224.5.24.732a.275.275 0 01-.096.24.335.335 0 01-.228.084h-.84a.562.562 0 01-.312-.072.992.992 0 01-.18-.216c-.12-.2-.304-.372-.552-.516-.24-.152-.6-.228-1.08-.228-.208 0-.408.024-.6.072-.184.04-.348.104-.492.192a.976.976 0 00-.324.3.719.719 0 00-.12.408c0 .184.036.336.108.456.08.112.208.212.384.3.184.08.424.156.72.228.296.072.664.156 1.104.252.48.104.892.228 1.236.372.352.136.636.304.852.504.224.192.388.416.492.672.112.256.168.548.168.876 0 .36-.08.696-.24 1.008a2.38 2.38 0 01-.684.792c-.296.216-.66.388-1.092.516a5.105 5.105 0 01-1.452.192 5.18 5.18 0 01-1.284-.156 4.09 4.09 0 01-1.092-.468 2.682 2.682 0 01-.756-.744 1.938 1.938 0 01-.324-.96.257.257 0 01.084-.228.353.353 0 01.24-.096h.84c.136 0 .24.024.312.072.072.048.132.12.18.216.056.104.124.208.204.312.08.104.188.196.324.276.136.08.304.148.504.204.208.048.464.072.768.072.24 0 .472-.016.696-.048.224-.04.42-.1.588-.18.168-.088.304-.192.408-.312a.718.718 0 00.156-.468.585.585 0 00-.168-.432c-.112-.112-.284-.208-.516-.288a6.764 6.764 0 00-.84-.228 31.808 31.808 0 01-1.164-.276 6.858 6.858 0 01-1.056-.336 2.675 2.675 0 01-.744-.492 1.866 1.866 0 01-.432-.672 2.74 2.74 0 01-.144-.936c0-.36.08-.692.24-.996.16-.304.38-.564.66-.78.28-.216.612-.384.996-.504a4.035 4.035 0 011.26-.192zm8.732.12c.128 0 .224.036.288.108a.8.8 0 01.168.3l2.94 7.584a.311.311 0 01-.084.312.311.311 0 01-.228.096h-.864c-.16 0-.272-.032-.336-.096a.674.674 0 01-.132-.204l-.516-1.332h-3.792l-.516 1.332a.674.674 0 01-.132.204c-.064.064-.176.096-.336.096h-.864a.311.311 0 01-.228-.096.311.311 0 01-.084-.312l2.94-7.584a.8.8 0 01.168-.3c.064-.072.16-.108.288-.108h1.32zm.66 5.268l-1.32-3.42-1.32 3.42h2.64zm8.837.468c.016-.104.056-.18.12-.228a.366.366 0 01.228-.084h.972c.088 0 .164.032.228.096a.245.245 0 01.096.228 2.979 2.979 0 01-.252.984 2.501 2.501 0 01-.636.888c-.288.264-.652.48-1.092.648-.44.168-.972.252-1.596.252-.552 0-1.04-.08-1.464-.24a3.237 3.237 0 01-1.08-.684 3.195 3.195 0 01-.696-1.056 4.435 4.435 0 01-.288-1.332c-.016-.304-.024-.64-.024-1.008s.008-.704.024-1.008c.032-.48.128-.924.288-1.332a3.064 3.064 0 011.776-1.728c.424-.168.912-.252 1.464-.252.624 0 1.156.084 1.596.252.44.168.804.384 1.092.648.288.264.5.564.636.9.144.328.228.652.252.972a.275.275 0 01-.096.24.335.335 0 01-.228.084h-.972a.404.404 0 01-.228-.072.36.36 0 01-.132-.24 1.32 1.32 0 00-.168-.468 1.439 1.439 0 00-.36-.408 1.765 1.765 0 00-.576-.288 2.505 2.505 0 00-.816-.12c-.312 0-.584.048-.816.144a1.785 1.785 0 00-.588.384 1.76 1.76 0 00-.36.576 2.59 2.59 0 00-.144.708c-.016.304-.024.64-.024 1.008s.008.704.024 1.008c.016.256.064.496.144.72.088.216.208.404.36.564.16.16.356.288.588.384.232.096.504.144.816.144.312 0 .584-.036.816-.108.232-.08.424-.18.576-.3.16-.12.284-.256.372-.408a1.32 1.32 0 00.168-.468zm8.635-5.736c.088 0 .164.032.228.096s.096.14.096.228v.852a.311.311 0 01-.096.228.311.311 0 01-.228.096h-2.16v6.576a.311.311 0 01-.096.228.311.311 0 01-.228.096h-.972a.311.311 0 01-.228-.096.311.311 0 01-.096-.228V45.1h-2.16a.311.311 0 01-.228-.096.311.311 0 01-.096-.228v-.852c0-.088.032-.164.096-.228a.311.311 0 01.228-.096h5.94zm1.846 8.4a.311.311 0 01-.228-.096.311.311 0 01-.096-.228v-7.752c0-.088.032-.164.096-.228a.311.311 0 01.228-.096h.972c.088 0 .164.032.228.096s.096.14.096.228v7.752a.311.311 0 01-.096.228.311.311 0 01-.228.096h-.972zm2.88-5.268a4.3 4.3 0 01.252-1.26c.152-.4.372-.744.66-1.032a2.997 2.997 0 011.08-.696c.432-.176.944-.264 1.536-.264.584 0 1.092.084 1.524.252.432.168.792.4 1.08.696.288.296.508.64.66 1.032.152.392.24.816.264 1.272.008.152.012.32.012.504a13.276 13.276 0 010 1.14c0 .184-.004.352-.012.504a4.19 4.19 0 01-.264 1.272c-.144.392-.36.736-.648 1.032a3.064 3.064 0 01-1.092.684c-.432.168-.94.252-1.524.252-.592 0-1.104-.084-1.536-.252a3.083 3.083 0 01-1.08-.684 3.04 3.04 0 01-.66-1.032 4.435 4.435 0 01-.252-1.272 55.63 55.63 0 01-.024-.504v-.564-.576l.024-.504zm5.436.06c-.032-.576-.22-1.02-.564-1.332-.336-.32-.784-.48-1.344-.48s-1.012.16-1.356.48c-.336.312-.52.756-.552 1.332-.016.304-.024.644-.024 1.02 0 .368.008.704.024 1.008.032.576.216 1.02.552 1.332.344.312.796.468 1.356.468s1.008-.156 1.344-.468c.344-.312.532-.756.564-1.332.016-.304.024-.64.024-1.008 0-.376-.008-.716-.024-1.02zM142.583 52c-.136 0-.24-.036-.312-.108a2.262 2.262 0 01-.156-.168l-3.36-4.992v4.944a.311.311 0 01-.096.228.311.311 0 01-.228.096h-.972a.311.311 0 01-.228-.096.311.311 0 01-.096-.228v-7.752c0-.088.032-.164.096-.228a.311.311 0 01.228-.096h.84c.136 0 .24.036.312.108.072.072.124.128.156.168l3.36 4.992v-4.944c0-.088.032-.164.096-.228a.311.311 0 01.228-.096h.972c.088 0 .164.032.228.096s.096.14.096.228v7.752a.311.311 0 01-.096.228.311.311 0 01-.228.096h-.84z" fill="#776589"/><rect x="133.5" y=".5" width="93" height="23" rx="11.5" fill="#F55459" stroke="#F55459"/><path d="M164.789 7.6c.088 0 .164.032.228.096s.096.14.096.228v.432a.311.311 0 01-.096.228.311.311 0 01-.228.096h-2.244v6.996a.311.311 0 01-.096.228.311.311 0 01-.228.096h-.492a.311.311 0 01-.228-.096.311.311 0 01-.096-.228V8.68h-2.244a.311.311 0 01-.228-.096.311.311 0 01-.096-.228v-.432c0-.088.032-.164.096-.228a.311.311 0 01.228-.096h5.628zm6.825 8.076a.311.311 0 01-.096.228.311.311 0 01-.228.096h-.444a.311.311 0 01-.228-.096.311.311 0 01-.096-.228v-3.168c0-.616-.148-1.076-.444-1.38-.296-.304-.708-.456-1.236-.456-.504 0-.912.152-1.224.456-.304.304-.456.764-.456 1.38v3.168a.311.311 0 01-.096.228.311.311 0 01-.228.096h-.444a.311.311 0 01-.228-.096.311.311 0 01-.096-.228V7.804c0-.088.032-.164.096-.228a.311.311 0 01.228-.096h.444c.088 0 .164.032.228.096s.096.14.096.228v2.652c.152-.2.376-.384.672-.552.304-.176.7-.264 1.188-.264.376 0 .724.064 1.044.192.32.12.592.296.816.528.232.224.412.504.54.84.128.336.192.712.192 1.128v3.348zm2.837 0a.311.311 0 01-.096.228.311.311 0 01-.228.096h-.444a.311.311 0 01-.228-.096.311.311 0 01-.096-.228v-5.592c0-.088.032-.164.096-.228a.311.311 0 01.228-.096h.444c.088 0 .164.032.228.096s.096.14.096.228v5.592zm.12-7.188a.311.311 0 01-.096.228.311.311 0 01-.228.096h-.684a.311.311 0 01-.228-.096.311.311 0 01-.096-.228v-.684c0-.088.032-.164.096-.228a.311.311 0 01.228-.096h.684c.088 0 .164.032.228.096s.096.14.096.228v.684zm5.235 5.784a.529.529 0 00-.132-.372.908.908 0 00-.372-.264 4.186 4.186 0 00-.648-.204 24.243 24.243 0 00-.9-.204c-.648-.136-1.104-.36-1.368-.672a1.734 1.734 0 01-.384-1.116c0-.24.048-.468.144-.684.096-.216.24-.408.432-.576.192-.168.432-.3.72-.396a3.35 3.35 0 011.032-.144c.392 0 .732.044 1.02.132.296.088.544.2.744.336.2.136.352.284.456.444.104.152.16.3.168.444a.261.261 0 01-.096.228.311.311 0 01-.228.096h-.396a.859.859 0 01-.18-.024.423.423 0 01-.18-.144 1.123 1.123 0 00-.468-.336c-.2-.096-.48-.144-.84-.144-.368 0-.668.068-.9.204-.224.136-.336.324-.336.564 0 .152.032.276.096.372a.843.843 0 00.312.24c.144.064.332.124.564.18l.888.204c.368.08.676.184.924.312.248.12.448.26.6.42.152.152.26.324.324.516.064.184.096.38.096.588 0 .24-.06.472-.18.696-.112.224-.276.42-.492.588-.216.168-.48.304-.792.408a3.22 3.22 0 01-1.044.156 3.362 3.362 0 01-1.824-.492 2.024 2.024 0 01-.504-.456.957.957 0 01-.18-.468.274.274 0 01.084-.228.326.326 0 01.24-.096h.432c.048 0 .104.008.168.024.064.008.124.052.18.132.128.176.304.312.528.408.224.096.516.144.876.144.176 0 .348-.02.516-.06.176-.04.328-.096.456-.168a1.06 1.06 0 00.324-.252.54.54 0 00.12-.336zm10.752.648c.088 0 .164.032.228.096s.096.14.096.228v.432a.311.311 0 01-.096.228.311.311 0 01-.228.096h-4.848a.311.311 0 01-.228-.096.311.311 0 01-.096-.228V7.924c0-.088.032-.164.096-.228a.311.311 0 01.228-.096h4.752c.088 0 .164.032.228.096s.096.14.096.228v.432a.311.311 0 01-.096.228.311.311 0 01-.228.096h-3.936v2.532h3.672c.088 0 .164.032.228.096s.096.14.096.228v.432a.311.311 0 01-.096.228.311.311 0 01-.228.096h-3.672v2.628h4.032zm3.865 1.08c-.104 0-.184-.032-.24-.096a.808.808 0 01-.132-.204l-2.388-5.568a.266.266 0 01-.012-.084c0-.08.028-.148.084-.204a.278.278 0 01.204-.084h.444c.12 0 .208.032.264.096a.552.552 0 01.132.192l1.86 4.356 1.86-4.356a.633.633 0 01.12-.192.287.287 0 01.228-.096h.492c.08 0 .148.028.204.084a.278.278 0 01.084.204c0 .032-.004.06-.012.084l-2.388 5.568a.808.808 0 01-.132.204c-.048.064-.124.096-.228.096h-.444zm3.949-3.72c.032-.368.12-.712.264-1.032.144-.32.332-.6.564-.84.232-.24.508-.428.828-.564a2.825 2.825 0 011.092-.204 2.9 2.9 0 011.152.216c.344.136.636.336.876.6a2.7 2.7 0 01.552.96c.128.376.192.796.192 1.26V13a.311.311 0 01-.096.228.311.311 0 01-.228.096h-4.128v.072c.016.544.18.964.492 1.26.32.288.716.432 1.188.432.44 0 .768-.06.984-.18.224-.128.404-.268.54-.42a.698.698 0 01.168-.132.501.501 0 01.216-.036h.36c.088 0 .168.032.24.096.072.064.1.14.084.228a1.326 1.326 0 01-.204.48 1.88 1.88 0 01-.492.48 3.045 3.045 0 01-.792.372c-.312.096-.68.144-1.104.144-.4 0-.76-.068-1.08-.204-.32-.144-.6-.336-.84-.576a3.044 3.044 0 01-.564-.864 3.47 3.47 0 01-.264-1.092 5.093 5.093 0 010-1.104zm1.068.036h3.372v-.036c0-.488-.156-.876-.468-1.164-.304-.296-.712-.444-1.224-.444-.232 0-.448.04-.648.12-.2.072-.376.18-.528.324a1.449 1.449 0 00-.36.504c-.088.2-.136.42-.144.66v.036zm11.443 3.36a.311.311 0 01-.096.228.311.311 0 01-.228.096h-.444a.311.311 0 01-.228-.096.311.311 0 01-.096-.228v-3.168c0-.616-.148-1.076-.444-1.38-.296-.304-.708-.456-1.236-.456-.504 0-.912.152-1.224.456-.304.304-.456.764-.456 1.38v3.168a.311.311 0 01-.096.228.311.311 0 01-.228.096h-.444a.311.311 0 01-.228-.096.311.311 0 01-.096-.228v-5.592c0-.088.032-.164.096-.228a.311.311 0 01.228-.096h.444c.088 0 .164.032.228.096s.096.14.096.228v.372c.152-.2.376-.384.672-.552.304-.176.7-.264 1.188-.264.376 0 .724.064 1.044.192.32.12.592.296.816.528.232.224.412.504.54.84.128.336.192.712.192 1.128v3.348zm3.284-1.776c0 .152.012.296.036.432.032.128.084.24.156.336a.731.731 0 00.3.228c.136.048.308.072.516.072h.636c.088 0 .164.032.228.096s.096.14.096.228v.384a.311.311 0 01-.096.228.311.311 0 01-.228.096h-.756c-.696 0-1.2-.18-1.512-.54-.312-.36-.468-.88-.468-1.56v-3.108h-.888a.311.311 0 01-.228-.096.311.311 0 01-.096-.228v-.384c0-.088.032-.164.096-.228a.311.311 0 01.228-.096h.888V7.804c0-.088.032-.164.096-.228a.311.311 0 01.228-.096h.444c.088 0 .164.032.228.096s.096.14.096.228V9.76h1.524c.088 0 .164.032.228.096s.096.14.096.228v.384a.311.311 0 01-.096.228.311.311 0 01-.228.096h-1.524V13.9zM148.06 17.94a4.935 4.935 0 01-4.927-4.935 3.658 3.658 0 011.65-3.188.582.582 0 01.525 0c.1.057.181.144.232.248a4.495 4.495 0 013-3.975.554.554 0 01.51.075.555.555 0 01.248.457v.233c-.053.952.015 1.907.202 2.842a2.788 2.788 0 011.725-1.275.554.554 0 01.495.09.561.561 0 01.225.45c.012.745.203 1.475.555 2.13.315.59.49 1.245.51 1.913a4.934 4.934 0 01-4.95 4.935zm-3.367-6.518a3.184 3.184 0 00-.443 1.583 3.803 3.803 0 007.605 0 3.449 3.449 0 00-.405-1.455 6.001 6.001 0 01-.57-1.74 1.496 1.496 0 00-.577 1.44.564.564 0 01-.99.435c-1.013-1.185-1.125-2.52-1.14-4.185-1.5.967-1.613 2.685-1.568 4.387.022.288.022.576 0 .863a.556.556 0 01-.641.507.58.58 0 01-.274-.117 3.417 3.417 0 01-.997-1.718z" fill="#fff"/><rect x="235.5" y=".5" width="82" height="23" rx="11.5" fill="#fff"/><path d="M252.585 11.584c.24-.216.42-.436.54-.66.12-.224.18-.516.18-.876 0-.424-.124-.776-.372-1.056-.248-.288-.64-.432-1.176-.432-.28 0-.52.04-.72.12-.192.08-.356.192-.492.336a1.657 1.657 0 00-.312.48 4.05 4.05 0 00-.18.552.366.366 0 01-.132.204.272.272 0 01-.18.072h-.552a.287.287 0 01-.192-.072.287.287 0 01-.072-.192c.008-.296.076-.596.204-.9a2.68 2.68 0 01.552-.828c.24-.248.532-.452.876-.612a2.87 2.87 0 011.2-.24c.44 0 .828.068 1.164.204a2.258 2.258 0 011.344 1.368c.12.312.18.644.18.996a3.7 3.7 0 01-.06.696c-.04.208-.108.408-.204.6a2.684 2.684 0 01-.348.54 4.73 4.73 0 01-.528.54l-2.676 2.496h3.672c.088 0 .164.032.228.096s.096.14.096.228v.432a.311.311 0 01-.096.228.311.311 0 01-.228.096h-5.172a.311.311 0 01-.228-.096.311.311 0 01-.096-.228v-.432c0-.088.02-.164.06-.228.04-.064.108-.14.204-.228l3.516-3.204zm7.418-.792c-.016.36-.024.696-.024 1.008 0 .312.008.648.024 1.008.024.664.224 1.204.6 1.62.384.408.932.612 1.644.612.384 0 .708-.048.972-.144.264-.096.48-.22.648-.372.176-.152.308-.324.396-.516.096-.2.168-.4.216-.6a.27.27 0 01.12-.192.32.32 0 01.192-.072h.552c.072 0 .132.028.18.084a.227.227 0 01.084.18 2.494 2.494 0 01-.204.864 2.812 2.812 0 01-.6.888c-.264.272-.608.5-1.032.684-.416.184-.924.276-1.524.276-.52 0-.984-.08-1.392-.24a3.294 3.294 0 01-1.056-.684 3.061 3.061 0 01-.672-1.02c-.16-.4-.248-.836-.264-1.308a31.693 31.693 0 010-2.136c.016-.464.104-.896.264-1.296.16-.4.384-.744.672-1.032a3.137 3.137 0 011.056-.672 3.629 3.629 0 011.392-.252c.6 0 1.108.092 1.524.276a3.08 3.08 0 011.032.696c.272.272.472.564.6.876.128.312.196.6.204.864a.264.264 0 01-.084.192.244.244 0 01-.18.072h-.552a.36.36 0 01-.192-.06.314.314 0 01-.12-.204c-.048-.2-.12-.396-.216-.588-.088-.2-.22-.376-.396-.528a1.943 1.943 0 00-.648-.372c-.264-.096-.588-.144-.972-.144-.712 0-1.26.208-1.644.624-.376.408-.576.944-.6 1.608zm12.587 4.884a.311.311 0 01-.096.228.311.311 0 01-.228.096h-.444a.311.311 0 01-.228-.096.311.311 0 01-.096-.228v-3.168c0-.616-.148-1.076-.444-1.38-.296-.304-.708-.456-1.236-.456-.504 0-.912.152-1.224.456-.304.304-.456.764-.456 1.38v3.168a.311.311 0 01-.096.228.311.311 0 01-.228.096h-.444a.311.311 0 01-.228-.096.311.311 0 01-.096-.228V7.804c0-.088.032-.164.096-.228a.311.311 0 01.228-.096h.444c.088 0 .164.032.228.096s.096.14.096.228v2.652c.152-.2.376-.384.672-.552.304-.176.7-.264 1.188-.264.376 0 .724.064 1.044.192.32.12.592.296.816.528.232.224.412.504.54.84.128.336.192.712.192 1.128v3.348zm2.838 0a.311.311 0 01-.096.228.311.311 0 01-.228.096h-.444a.311.311 0 01-.228-.096.311.311 0 01-.096-.228v-5.592c0-.088.032-.164.096-.228a.311.311 0 01.228-.096h.444c.088 0 .164.032.228.096s.096.14.096.228v5.592zm.12-7.188a.311.311 0 01-.096.228.311.311 0 01-.228.096h-.684a.311.311 0 01-.228-.096.311.311 0 01-.096-.228v-.684c0-.088.032-.164.096-.228a.311.311 0 01.228-.096h.684c.088 0 .164.032.228.096s.096.14.096.228v.684zm2.774 7.188a.311.311 0 01-.096.228.311.311 0 01-.228.096h-.444a.311.311 0 01-.228-.096.311.311 0 01-.096-.228V7.804c0-.088.032-.164.096-.228a.311.311 0 01.228-.096h.444c.088 0 .164.032.228.096s.096.14.096.228v7.872zm4.227-6.036c.496 0 .892.088 1.188.264.296.168.52.352.672.552V7.804c0-.088.032-.164.096-.228a.311.311 0 01.228-.096h.444c.088 0 .164.032.228.096s.096.14.096.228v7.872a.311.311 0 01-.096.228.311.311 0 01-.228.096h-.444a.311.311 0 01-.228-.096.311.311 0 01-.096-.228v-.372a2.16 2.16 0 01-.684.576c-.296.16-.688.24-1.176.24-.376 0-.728-.064-1.056-.192-.32-.136-.6-.328-.84-.576a2.804 2.804 0 01-.576-.9 3.645 3.645 0 01-.252-1.188 5.787 5.787 0 010-.78c.024-.44.108-.836.252-1.188.144-.352.336-.648.576-.888.24-.248.52-.436.84-.564a2.73 2.73 0 011.056-.204zm1.86 3.756c.008-.12.012-.276.012-.468 0-.2-.004-.36-.012-.48-.024-.568-.196-1.004-.516-1.308-.312-.312-.72-.468-1.224-.468-.528 0-.944.168-1.248.504-.304.336-.472.792-.504 1.368a9.411 9.411 0 000 .672c.032.576.2 1.032.504 1.368.304.336.72.504 1.248.504.496 0 .904-.152 1.224-.456.32-.304.492-.716.516-1.236zm6.055-3.636c.088 0 .164.032.228.096s.096.14.096.228v.384a.311.311 0 01-.096.228.311.311 0 01-.228.096h-.696c-.92 0-1.38.46-1.38 1.38v3.504a.311.311 0 01-.096.228.311.311 0 01-.228.096h-.444a.311.311 0 01-.228-.096.311.311 0 01-.096-.228v-5.592c0-.088.032-.164.096-.228a.311.311 0 01.228-.096h.444c.088 0 .164.032.228.096s.096.14.096.228v.372c.16-.24.352-.416.576-.528.224-.112.516-.168.876-.168h.624zm.951 2.52c.032-.368.12-.712.264-1.032.144-.32.332-.6.564-.84.232-.24.508-.428.828-.564a2.825 2.825 0 011.092-.204 2.9 2.9 0 011.152.216c.344.136.636.336.876.6a2.7 2.7 0 01.552.96c.128.376.192.796.192 1.26V13a.311.311 0 01-.096.228.311.311 0 01-.228.096h-4.128v.072c.016.544.18.964.492 1.26.32.288.716.432 1.188.432.44 0 .768-.06.984-.18.224-.128.404-.268.54-.42a.698.698 0 01.168-.132.501.501 0 01.216-.036h.36c.088 0 .168.032.24.096.072.064.1.14.084.228a1.326 1.326 0 01-.204.48 1.88 1.88 0 01-.492.48 3.045 3.045 0 01-.792.372c-.312.096-.68.144-1.104.144-.4 0-.76-.068-1.08-.204-.32-.144-.6-.336-.84-.576a3.044 3.044 0 01-.564-.864 3.47 3.47 0 01-.264-1.092 5.093 5.093 0 010-1.104zm1.068.036h3.372v-.036c0-.488-.156-.876-.468-1.164-.304-.296-.712-.444-1.224-.444-.232 0-.448.04-.648.12-.2.072-.376.18-.528.324a1.449 1.449 0 00-.36.504c-.088.2-.136.42-.144.66v.036zm11.443 3.36a.311.311 0 01-.096.228.311.311 0 01-.228.096h-.444a.311.311 0 01-.228-.096.311.311 0 01-.096-.228v-3.168c0-.616-.148-1.076-.444-1.38-.296-.304-.708-.456-1.236-.456-.504 0-.912.152-1.224.456-.304.304-.456.764-.456 1.38v3.168a.311.311 0 01-.096.228.311.311 0 01-.228.096h-.444a.311.311 0 01-.228-.096.311.311 0 01-.096-.228v-5.592c0-.088.032-.164.096-.228a.311.311 0 01.228-.096h.444c.088 0 .164.032.228.096s.096.14.096.228v.372c.152-.2.376-.384.672-.552.304-.176.7-.264 1.188-.264.376 0 .724.064 1.044.192.32.12.592.296.816.528.232.224.412.504.54.84.128.336.192.712.192 1.128v3.348z" fill="#2B1D38"/><rect x="235.5" y=".5" width="82" height="23" rx="11.5" stroke="#2B1D38"/><defs><filter id="filter0_d" x="46" y="30" width="267" height="74" filterUnits="userSpaceOnUse" color-interpolation-filters="sRGB"><feFlood flood-opacity="0" result="BackgroundImageFix"/><feColorMatrix in="SourceAlpha" values="0 0 0 0 0 0 0 0 0 0 0 0 0 0 0 0 0 0 127 0"/><feOffset dy="2"/><feGaussianBlur stdDeviation=".5"/><feColorMatrix values="0 0 0 0 0 0 0 0 0 0 0 0 0 0 0 0 0 0 0.08 0"/><feBlend in2="BackgroundImageFix" result="effect1_dropShadow"/><feBlend in="SourceGraphic" in2="effect1_dropShadow" result="shape"/></filter></defs></svg>