<svg xmlns="http://www.w3.org/2000/svg" id="art" width="539.804" height="208.171"><defs><style>.cls-1{fill:#f7b2b2}.cls-3{fill:#f58452}.cls-4{fill:#a15749}.cls-5{fill:#b39ed3}.cls-7{fill:#3f2b56}.cls-8{fill:#5c4376}</style></defs><path d="M9.494 161.968s3.38.179 3.458 1.101-3.228 1.076-3.458 1.076-3.292.025-3.253-1.204c.025-.82 3.253-.973 3.253-.973Z" class="cls-3"/><path d="m12.347 102.069-6.308 6.003-1.424-.203-.662-.916-1.577.305-1.831-2.849.814-1.068.865-.102.559-1.17 1.119-.051.56-1.322h1.679l1.221 1.475 4.731-4.324.254 4.222z" class="cls-1"/><path d="M29.265 196.363S-.767 43.893 1.543 43.893 284.537 0 284.537 0L252.58 208.17 29.265 196.364Z" class="cls-1"/><path d="m213.129 38.497-4.882 40.111-1.056.594-1.187-.99-3.43 4.09 1.055 4.223-27.775 22.365-17.879-22.497-1.781 2.046 18.077 27.378s.791.792 2.11-.131 30.349-23.487 30.349-23.487l-2.375 19.858s.066 2.507-2.64 3.035-32.392 3.364-44.73 7.389c-18.485 6.03-31.073 10.622-42.354 13.195l-12.403 2.375-1.715-.99-3.695.594-15.9-14.646 13.609-17.576-1.284-.962-15.529 17.582s-1.604 1.156.064 2.952 11.423 11.23 11.423 11.23-5.904-1.283-6.995-1.732-7.957-3.016-11.358-7.508-11.102-11.744-14.696-14.054S46.72 108 38.89 108.834s-17.39 2.888-17.39 2.888-2.182.513-1.732-1.797 10.267-42.61 10.267-42.61 6.246-3.447 20.46-2.595c6.693.4 13.215 2.468 20.392 6.924 17.036 10.579 24.795 12.228 39.04 5.939s60.212-27.954 76.621-33.305c17.711-5.775 26.581-5.781 26.581-5.781Z" style="fill:#f6f6f8"/><ellipse cx="52.191" cy="184.157" class="cls-3" rx="4.725" ry="1.484"/><path d="M187.374 202.039c0 1.425-4.207 2.615-8.175 2.615s-7.186-1.156-7.186-2.582 3.217-2.581 7.186-2.581 8.175 1.122 8.175 2.548ZM117.41 179.141c0 .694-2.148 1.373-4.499 1.373s-4.255-.562-4.255-1.256 1.905-1.255 4.255-1.255 4.499.445 4.499 1.138Z" class="cls-3"/><path d="m38.581 121.65-8.016-5.062s-2.462 3.622-3.206 5.204c-1.22 2.592-1.536 5.98-1.35 5.794.186-.186 2.17.008 3.938-1.294 1.767-1.303 2.362-3.572 2.362-3.572l7.37 4.837c-.243-1.71-.674-4.233-1.098-5.906ZM48.904 109.782l-1.94-.507 2.39 19.07-7.622-4.978c.065-.22.764 4.868.843 4.922l7.482 4.36s2.25 1.63 2.588-.676c.175-1.2-3.741-22.191-3.741-22.191ZM105.965 137.494l3.605 11.401 3.921-1.081-4.732-10.725-2.794.405zM105.785 154.573l-16.087 9.508s.289 4.13 1.667 6.67c1.768 3.255 5.768 4.506 5.768 4.506s.901-1.759.901-4.056c0-2.605-1.442-4.687-1.442-4.687l16.854-12.392-.9-.56s-3.607 1.507-6.76 1.01ZM173.03 119.335c.558.372 32.153 61.637 32.153 61.637s2.182.23 10.108-4.767c3.947-2.488 4.694-4.387 4.694-4.387s-.884-2.137-5.823-2.211c-2.912-.043-6.56 2.285-6.56 2.285l-31.181-53.22-3.391.663ZM30.035 96.074l33.674-16.558L54.965 94.4l42.046-8.372-18.604 22.139 69.023-28.279-17.489 25.116 64.372-47.069-2.232-2.605 13.395-2.791-5.209 12.465-2.605-2.79-80.558 56.558 21.21-31.628-66.977 26.605L91.43 89.19l-39.628 7.628 8.558-14.325-30.883 14.883.558-1.302z" class="cls-5"/><path d="M28.206 104.378c.526-.676 21.922-10.909 21.922-10.909l-4.093 7.628 32.186-7.442-9.675 13.21 48.93-15.256-9.116 21.767 131.163-68.65-1.489-5.768 30.698-2.047-26.233 24-1.116-5.767L99.058 122.68l10.232-23.442-48.186 12.279 8.559-12.465-28.466 5.581 3.535-6.14-17.116 7.256.59-1.37Z" class="cls-3"/><path d="m16.033 165.924.058-.029c.001 0-.002.002 0 0l.024-.016c.02-.014.042-.029.061-.045.012-.01.066-.065.022-.017.028-.031.051-.065.078-.097l.002-.002.01-.02a2 2 0 0 0 .025-.056c.004-.01.009-.025.01-.032l.009-.036a165.046 165.046 0 0 0-3.653-1.814c.298-.195.49-.428.49-.709 0-1.794-7.198-1.794-7.198 0 0 .897 1.81 1.367 3.599 1.367.931 0 1.863-.13 2.547-.38.189.062 1.6.786 3.79 1.932.043-.013.085-.027.126-.045Zm-6.463-2.007c-1.892 0-3.1-.512-3.1-.866s1.208-.867 3.1-.867 3.098.514 3.098.867-1.207.866-3.098.866ZM32.778 174.848l.02-.005.064-.019c.038-.01.075-.023.112-.036.078-.028.153-.061.227-.099l.005-.002.007-.005.042-.027.076-.061c.001-.002-.001 0 0 0l.03-.038c0-.001 0 0 0 0l.011-.024.001-.011v-.011l-.001-.011-.012-.033c-.003-.008-.01-.016-.012-.025 0-.001.001.002 0 0-.016-.026-.043-.056-.056-.072-.01-.011-.071-.07-.027-.03l-.047-.043c-5.8-3.03-11.433-5.944-15.406-7.969a1.694 1.694 0 0 0-.156.117c-.032.028.02-.026-.016.017l-.037.044a1.28 1.28 0 0 0-.066.09c-.031.047.009-.022-.009.015l-.023.047a.998.998 0 0 0-.043.106l-.005.02a3446.98 3446.98 0 0 1 15.226 8.083c.032-.006.064-.01.095-.018ZM69.55 183.537c.019-.013.036-.027.053-.041l-.004-.035-.001-.005-.01-.031a.609.609 0 0 0-.022-.048c-.018-.027-.036-.054-.057-.08l-.037-.04a1.094 1.094 0 0 0-.161-.124c-.006-.004-.03-.014-.032-.02.001.003.004.003.006.005l.006.003c.036.018.008.014-.006-.003a1.48 1.48 0 0 0-.255-.107c-.018-.005-.064-.012.006.001l-.042-.011a1.62 1.62 0 0 0-.216-.038l-11.213 1.054c-.111-1.913-5.761-2.425-8.84-1.535a1703.956 1703.956 0 0 0-13.561-7.168l-.03-.006a1.585 1.585 0 0 0-.08-.008l-.069-.003a1.208 1.208 0 0 0-.215.02c-.007 0-.048.01-.039.007a3.361 3.361 0 0 0-.08.028c-.011.012-.022.024-.032.038a.605.605 0 0 0-.031.047l-.006.011c-.015.032-.026.064-.038.097l-.005.024a.741.741 0 0 0-.009.058l-.004.052v.012a.866.866 0 0 0 .018.144l.01.029c4.739 2.53 9.423 5.035 13.138 7.026-.567.31-.916.703-.916 1.184 0 1.345 2.716 2.05 5.398 2.05 2.151 0 4.32-.454 5.096-1.328l12.22-1.212.06-.047Zm-12.758.613a.368.368 0 0 0-.142.211c-.492.483-2.122 1.013-4.476 1.013-2.837 0-4.648-.77-4.648-1.3s1.81-1.3 4.648-1.3 4.648.77 4.648 1.3c0 .024-.023.05-.03.076ZM531.43 160.815c-2.897 0-8.376.468-8.376 2.236 0 .1.023.194.056.286l-15.277 3.514c.001.018.002.035.005.053v.004l.007.019.01.024.034.045c.007.006.014.013.022.018l.03.022c.023.011.045.023.07.032a.806.806 0 0 0 .047.017l.005.002c.028.006.055.013.084.018.076.014.153.02.231.023h.018a2.775 2.775 0 0 0 .493-.047c.029-.004.05.017.077.023l14.432-3.355c1.23 1.195 5.563 1.538 8.031 1.538 2.897 0 8.375-.467 8.375-2.236s-5.478-2.236-8.375-2.236Zm0 3.721c-4.935 0-7.626-.98-7.626-1.485 0-.505 2.691-1.486 7.625-1.486s7.625.981 7.625 1.486c0 .504-2.691 1.486-7.625 1.486ZM506.033 167.656c.402-.132.82-.202 1.217-.304a1.57 1.57 0 0 0-.068-.087c-.041-.05.026.018-.011-.011-.013-.011-.026-.023-.04-.033l-.039-.029c-.03-.013-.06-.027-.092-.038l-.002-.002h-.002c-.015-.001-.03-.006-.045-.008a1.12 1.12 0 0 0-.093-.01c-.036-.003-.035-.001 0-.001h-.057a2.102 2.102 0 0 0-.11.007c-.074.007-.148.016-.221.025h-.006L445.06 181.29l.005.04.018.098.005.023c.015.02.032.077.041.108l.006.008c.003.003-.002-.001 0 .001l.047.036.007.004c.161.078.33.143.499.205l60.208-13.996c.022-.073.065-.138.136-.16ZM443.424 182.34l.01-.016.015-.029.016-.041.001-.005c.003-.015.004-.031.006-.046v-.007l-.005-.035a2.563 2.563 0 0 0-.02-.048c-.005-.006-.043-.059-.057-.072l-.001-.002c-.008-.005-.014-.012-.021-.018a.882.882 0 0 0-.051-.04c-.018-.012-.037-.023-.054-.036-.02-.01-.015-.009-.005-.002a1.984 1.984 0 0 0-.317-.128l-.007-.003-.01-.002-.041-.01-.02-.005-38.689 8.9c-1.262-1.624-6.235-2.47-11.164-2.47-5.16 0-10.362.929-11.31 2.705-4.684-.662-23.562-3.274-43.492-6.021a1.1 1.1 0 0 0-.173.06l-.061.029a.872.872 0 0 0-.137.098c-.02.016-.015.01-.012.006.017.048.046.108.056.13.034.08.071.157.106.235l.001.006c21.277 3.021 41.238 5.862 43.571 6.194.267 2.06 5.885 3.14 11.451 3.14 5.703 0 11.478-1.13 11.478-3.29 0-.042-.017-.08-.02-.121l38.955-9.056Zm-50.414 11.466c-6.878 0-10.476-1.491-10.476-2.29 0-.8 3.598-2.291 10.476-2.291s10.478 1.491 10.478 2.291c0 .799-3.599 2.29-10.478 2.29ZM294.052 179.206c.038-.027.074-.058.11-.088.034-.029-.034.042.01-.012.014-.015.027-.03.04-.047.007-.01.02-.027.027-.04.001-.003 0-.004.002-.007l.015-.04v-.006l.004-.027a.469.469 0 0 0-.002-.026c0-.006-.004-.02-.006-.034l-.003-.007c-5.575-.76-9.309-1.263-10.095-1.358.008-.046.023-.09.023-.138 0-1.408-3.667-2.05-7.073-2.05s-7.073.642-7.073 2.05c0 .075.016.146.036.216-3.912 1.11-16.78 4.75-31.25 8.851l.006.031.002.008c.005.014.01.028.017.041.003.009.01.018.014.025.013.02.025.04.04.057l.02.022.009.008a.793.793 0 0 0 .088.067l.008.005.038.02c.036.017.074.032.112.045l.03.01c.036.013-.016-.006-.016-.004s.053.013.055.014c.034.007.069.012.103.017a9822.194 9822.194 0 0 1 30.932-8.851c.862 1.003 3.935 1.468 6.829 1.468 2.993 0 6.185-.496 6.916-1.571.812.102 4.494.616 9.977 1.387a1.46 1.46 0 0 0 .055-.036Zm-16.948-.53c-3.61 0-5.7-.681-6.199-1.117a.239.239 0 0 0-.043-.047c-.043-.049-.08-.096-.08-.136 0-.388 2.15-1.3 6.322-1.3s6.323.912 6.323 1.3-2.152 1.3-6.323 1.3ZM301.447 180.29c.028-.004.056-.011.084-.016l.025-.035c-.008.01-.01.01.01-.013a.611.611 0 0 0 .033-.079c.006-.027.01-.053.013-.08.003-.023-.005-.068.002.008l-.001-.045-.007-.052-.002-.001-.031-.034c-.002-.001 0 .001 0 0-.033-.03-.067-.056-.1-.084l-5.656-.773-.098.09c-.046.042.034-.04-.004.004l-.038.043-.02.028c.027.08.058.16.088.238l5.699.804.004-.002ZM336.605 184.824c-.002-.03-.009-.058-.013-.087l-.002-.002c0-.001 0 0 0 0-.014-.019-.027-.038-.041-.055-11.607-1.6-23.407-3.222-32.893-4.522a1.722 1.722 0 0 0-.134.024c-.001 0 0 0 0 0a.597.597 0 0 0-.132.05c-.014.01-.041.035-.059.045-.002.003-.025.028-.023.033.018-.032.023-.038.014-.02a.276.276 0 0 0-.007.017l-.01.025v.001l-.004.021c-.004.017-.004.034-.007.051l.089.162c9.514 1.345 21.373 3.026 32.996 4.677l.015-.011.044-.036c.007-.005.056-.053.031-.027-.024.024.019-.02.026-.03a.754.754 0 0 0 .032-.04c.01-.014.018-.03.028-.043-.027.034-.01.02.005-.01.013-.028.023-.057.034-.087l.003-.016.008-.049c.003-.028-.003-.072.003-.02-.002-.016-.001-.034-.003-.051ZM224.388 191.119l.007-.032c.005-.022.008-.044.011-.067l.007-.065c0-.007.001-.007.002-.01l-.002-.014c-.002-.038-.018-.088-.015-.126l-.004-.01-.02-.055a1.296 1.296 0 0 0-.103-.04l-.053-.017-.027-.007c-.061-.015-.124-.022-.186-.032-17.408 4.942-33.618 9.56-36.477 10.436-1.125-1.359-4.442-2.064-7.726-2.064-3.642 0-7.313.87-8.003 2.534l-32.086-12.73c-.044.006-.088.011-.132.02l-.088.02c.06-.015-.002.001-.026.009a1.236 1.236 0 0 0-.153.059l-.061.031c.074-.038 0 .002-.017.013l-.055.044c-.052.039.027-.04-.012.01-.01.014-.02.03-.032.043l.001.006.004.058c.003.026.01.052.012.077v.008l.002.006.011.03 32.531 13.061c.256 1.91 4.197 2.91 8.104 2.91 4.039 0 8.128-1.067 8.128-3.105 0-.128-.017-.252-.048-.372 2.952-.908 18.515-5.436 36.506-10.63Zm-44.586 13.106c-4.351 0-7.128-1.246-7.128-2.105s2.777-2.104 7.128-2.104 7.128 1.246 7.128 2.104-2.777 2.105-7.128 2.105ZM237.658 187.138l-.006-.047c-.004-.056.005.008-.001-.009l-.017-.045-.012-.025a.589.589 0 0 0-.025-.039l-.04-.05c-.031-.035.012.01-.01-.009a.99.99 0 0 0-.103-.08l-.002-.001-12.14 3.443c-.005.028-.012.056-.015.084l-.002.023c.002.017 0 .029 0 .017v.013c.001.027.006.053.01.079a.547.547 0 0 0 .019.048c.013.026.04.052-.007-.01l.023.036.03.039c.02.014.04.034.058.047l.014.01c.02.006.027.015.016.01l.01.005a.8.8 0 0 0 .092.038l.023.008.037.008c.025.006.05.009.076.013 3.909-1.129 7.913-2.283 11.924-3.437.003-.005 0 .001.001 0a.728.728 0 0 0 .019-.04c.003-.006.025-.067.015-.035-.01.033.005-.02.006-.026l.007-.057.001-.004-.002-.007ZM138.012 188.697l.045-.021.056-.037a1.04 1.04 0 0 0 .081-.072.805.805 0 0 0 .051-.065l.016-.024.002-.004c-.018-.041-.033-.083-.054-.122l-.01-.017a1.748 1.748 0 0 0-.11-.157l-.004-.003-8.111-3.218a.956.956 0 0 1-.008.001c-.018.006-.037.011-.055.018a.704.704 0 0 0-.06.026c-.008.003-.01.005-.014.008-.025.018-.05.035-.074.054-.045.038.012-.019-.005.006-.008.011-.019.022-.028.033-.008.01-.016.028-.026.037a.054.054 0 0 0-.002.005c-.015.032-.026.067-.04.1l-.002.005c-.004.017-.008.035-.01.052-.006.033-.007.065-.01.098a.19.19 0 0 0 0 .028l8.25 3.312c.04-.013.082-.025.122-.043ZM128.264 184.832h.047a1.274 1.274 0 0 0 .19-.02l.1-.04.04-.03c.002 0 0 .001 0 0l.026-.032a.642.642 0 0 1 .016-.037l.007-.04.002-.028v-.019c-.003-.033-.01-.065-.016-.098a.073.073 0 0 0-.003-.01l-.015-.044-11.366-4.509c.273-.197.435-.426.435-.688 0-2.04-9.43-2.04-9.43 0l.002.01-37.12 3.49c-.026.021-.055.032-.08.055-.01.007-.017.015-.021.02a.89.89 0 0 0-.087.105c-.012.016-.041.076-.009.008l-.019.037c-.012.027-.023.102-.013.024a.71.71 0 0 1-.01.06.297.297 0 0 1 .003.025v.002l.017.043c.001.002-.002-.002 0 .001l.022.03c.013.017.029.031.042.048-.052-.065.003.001.023.018.018.015.037.03.057.043l.05.033.011.007.014.008.043.022c.053.027.108.05.164.07l37.13-3.682c.617.705 2.556 1.076 4.495 1.076 1.39 0 2.78-.193 3.688-.558l11.387 4.572c.06.008.118.025.178.028Zm-15.253-4.543c-2.573 0-4.215-.623-4.215-1.052s1.642-1.053 4.215-1.053 4.216.623 4.216 1.053-1.643 1.052-4.216 1.052Z" class="cls-8"/><path d="M9.384 160.388a.499.499 0 0 1-.434-.252l-1.49-2.604a.5.5 0 1 1 .869-.497l.943 1.65 2.802-8.077a.5.5 0 1 1 .944.328l-3.162 9.116a.5.5 0 0 1-.426.334l-.047.002ZM51.988 180.48a.5.5 0 0 1-.4-.2l-2.79-3.72a.5.5 0 1 1 .8-.6l2.194 2.926 4.368-14.676a.5.5 0 1 1 .958.285l-4.65 15.628a.5.5 0 0 1-.48.358ZM113.197 176.202a.5.5 0 0 1-.432-.25l-2.047-3.534a.5.5 0 0 1 .865-.502l1.575 2.72 5.73-11.804a.5.5 0 1 1 .898.438l-6.14 12.65a.5.5 0 0 1-.43.281h-.019ZM178.313 197.411a.5.5 0 0 1-.43-.245l-3.535-5.954a.5.5 0 1 1 .86-.51l2.985 5.028 6.345-18.331a.5.5 0 0 1 .945.326l-6.697 19.35a.5.5 0 0 1-.473.336Z" class="cls-3"/><path d="m83.39 102.237-3.536 1.102-3.514 4.295 3.2-.816 3.85-4.581zM172.916 79.588l-28.905 15.129-14.07 10.287 3.204-4.6-5.737 3.003-5.724 8.535 15.881-7.535 35.351-24.819zM117.198 92.274l-31.945 13.088 20.074-5.115 10.234-4.065 1.637-3.908z" class="cls-4"/><path d="M41.142 60.34c0 1.475-.48 3.372-2.917 3.372-2.372 0-2.89-1.785-2.89-3.26s1.258-2.673 2.81-2.673 2.997 1.084 2.997 2.56Z" class="cls-3"/><path d="M51.784 58.99c.152 3.134-2.215 3.743-3.983 3.743s-2.96-1.996-2.96-3.634 1.693-3.265 3.46-3.265 3.403 1.52 3.483 3.156Z" class="cls-5"/><path d="M35.585 124.52a.805.805 0 0 0-.009-.071c0-.006-.006-.026-.01-.04-.011-.039-.032-.073-.047-.111l-2.97-2.032a.5.5 0 0 0-.775.331c-.004.02-.357 2.04-2.026 3.207-1.313.919-2.745 1.14-3.339 1.195-.096-.398-.144-1.68 1.472-5.034.29-.603.566-1.131.829-1.609a1.594 1.594 0 0 0-.015-.558l-.002-.01a.648.648 0 0 0-.012-.04l-.026-.06a1.417 1.417 0 0 0-.173-.068.863.863 0 0 0-.154-.021c.027 0 .005.001-.009.003-.03.002-.054.014-.08.02a2.01 2.01 0 0 0-.36.213c-.013.01-.025.023-.038.034a32.988 32.988 0 0 0-.862 1.663c-2.353 4.887-1.573 6.104-1.129 6.4a.5.5 0 0 0 .278.084c.09 0 2.226-.016 4.193-1.394 1.341-.938 1.971-2.3 2.247-3.131l1.988 1.36c.157.016.309.027.466.017.069-.004.138-.012.206-.024.008-.001.057-.013.064-.013a.97.97 0 0 0 .065-.02l.073-.03c.065-.027-.009.012.022-.011.017-.014.037-.027.055-.04.054-.038-.009.02.012-.01a.565.565 0 0 1 .039-.049c.024-.027-.018.05.004-.01l.012-.032a.224.224 0 0 0 .008-.033c.001-.019.003-.038.006-.056-.009.07-.001-.001-.003-.02ZM198.733 157.58c.033.004.066.008.099.01.019.002.058.01.08.004h.008a1.721 1.721 0 0 0 .103-.004c.044-.004.088-.01.132-.019l.022-.004c.017-.006.034-.01.05-.017.034-.011.065-.027.097-.042l.012-.008a.682.682 0 0 0 .065-.051v-.002c-.01.007-.01.007 0 0-.005-.042-.007-.083-.016-.123-.003-.015-.025-.105-.011-.054a3.307 3.307 0 0 0-.269-.637.194.194 0 0 1-.01-.146 19564.47 19564.47 0 0 0-13.955-23.792c-.178.005-.35.03-.516.11-.006.002-.075.039-.043.02.035-.02-.021.014-.023.015-.027.02-.055.038-.081.059l-.01.008-.006.014a1.251 1.251 0 0 0-.033.097c.015-.051-.006.026-.009.04a1.374 1.374 0 0 0-.027.227v.014c0 .035.002.07.005.104v.004c4.817 8.2 9.98 16.999 14.164 24.144.057.011.114.022.172.03ZM220.306 171.196c-.73-1.093-3.467-2.42-7.264-1.944-2.25.281-3.862 1.323-4.827 1.945-.134.086-.287.186-.412.26-.77-1.378-3.735-6.47-7.594-13.066-.03-.015-.061-.032-.094-.043-.02-.008-.08-.016-.007-.005-.013-.002-.026-.006-.04-.01h-.009a.904.904 0 0 0-.227.084c-.121.075-.216.173-.298.28a.399.399 0 0 0-.011.038 1.141 1.141 0 0 0-.021.152l-.003.04a1.78 1.78 0 0 0 .026.259.47.47 0 0 0 .008.025c4.295 7.339 7.35 12.582 7.515 12.928.062.185.2.33.379.392.365.126.71-.093 1.33-.494.893-.576 2.386-1.54 4.409-1.793 2.632-.325 4.63.294 5.647.936-1.301-.05-3.22.33-5.146 1.079-3.038 1.182-6.646 3.766-8.043 5.76a6.006 6.006 0 0 0-.702 1.294l-2.497-4.777c-.033-.021-.071-.04-.106-.061a1.438 1.438 0 0 0-.499.104.663.663 0 0 0-.28.248l-.017.049c.012-.042-.01.048-.011.057l-.002.01 3.337 6.385c0 .002.002.002.002.003l.012.024c.03.048.074.077.115.11.023.02.039.048.065.063.01.005.02.004.03.009.069.033.142.06.219.06.05 0 .099-.007.148-.022.178-.055 4.389-1.375 7.931-3.59 4.612-2.881 6.26-4.182 7.053-5.57.005-.01.01-.027.016-.038.005-.01.01-.02.013-.03.11-.228.202-.63-.146-1.151Zm-7.467 5.942c-2.72 1.701-5.924 2.879-7.16 3.302.013-.366.154-.974.765-1.847 1.279-1.826 4.752-4.3 7.585-5.402 2.733-1.061 4.695-1.116 5.32-.954-.792 1.12-2.498 2.394-6.51 4.901Z" class="cls-7"/><path d="M200.617 173.02c.04.015-.024-.003.03.009a1.324 1.324 0 0 0 .151.023h.024a1.09 1.09 0 0 0 .126-.01c.017-.003.091-.023.028-.004.018-.006.036-.01.054-.017.042-.014.081-.034.122-.052l.003-.001.021-.013.047-.032c.036-.027.07-.056.103-.087-.04.038.008-.01.02-.024a1.014 1.014 0 0 0 .077-.103c.01-.015.038-.065.015-.022l.01-.021-13.121-25.113a3.458 3.458 0 0 0-.274-.282 1.15 1.15 0 0 0-.19-.028c.054.004 0 .002-.024.004a.741.741 0 0 0-.059.007c-.014.002-.027.005-.032.007l-.033.01c-.024.009-.046.02-.07.03l-.01.005c-.03.025-.064.044-.094.069l-.023.021-.036.04c-.03.037-.056.075-.082.114-.02.03.026-.052-.002.004l-.014.026a1.241 1.241 0 0 0-.076.184l13.167 25.197c.046.023.094.04.142.06ZM205.513 106.442a2.565 2.565 0 0 0-.508-.351c-.055-.028-.105-.035-.156-.054-.068.002-.14.002-.194.017a2.767 2.767 0 0 0-.11.11c-.416 3.486-.668 5.61-.684 5.754.005.096.09 2.349-2.928 2.825-.477.076-1.546.197-3.026.365a664.98 664.98 0 0 0-4.088.473v-4.624a.25.25 0 0 0-.5 0v4.685c-2.547.307-5.617.699-9.034 1.19l-.327-4.404a.245.245 0 0 0-.268-.23.25.25 0 0 0-.23.267l.328 4.44c-2.383.346-4.922.74-7.564 1.186a292.371 292.371 0 0 0-2.328.402l-.923-3.324a.25.25 0 1 0-.482.135l.91 3.279-.415.075a.488.488 0 0 0-.3.043c-.007.003-.01.01-.018.014-2.415.44-4.885.922-7.374 1.451l-.877-3.684a.247.247 0 0 0-.301-.186.25.25 0 0 0-.185.301l.874 3.674c-3.464.745-6.95 1.58-10.351 2.516l-.825-4.618a.25.25 0 0 0-.492.088l.832 4.662c-.373.104-.741.213-1.111.32-.071.216-11.697 40.841-12.584 42.868-.182.417-.435.667-.773.764-.74.217-1.778-.33-2.161-.587l-24.838-13.256a.504.504 0 0 0-.468-.001c-.023.012-2.3 1.204-5.327 1.058-2.037-.088-2.998-.948-3.386-1.443a31.86 31.86 0 0 1 6.184-3.027c3.283-1.173 5.996-1.65 6.699-1.763l19.935 12.599a.498.498 0 0 0 .734-.244s13.748-35.943 13.906-36.319c-2.118.642-4.04 1.244-6.025 1.972l-1.561-3.47a.249.249 0 0 0-.33-.125.25.25 0 0 0-.126.33l1.546 3.436a89.13 89.13 0 0 0-1.688.648 176.578 176.578 0 0 1-6.74 2.508l-1.59-3.814a.25.25 0 1 0-.462.191l1.578 3.788c-1.68.583-3.31 1.11-4.915 1.616-.047.066-.095.13-.14.198-.003.006-.04.07-.021.034.02-.035-.012.023-.015.03-.006.014-.011.029-.018.043V131.302l.001.003c.007.006.015.032.018.04.013.036-.034-.045.007.014l.032.046c.03.043.063.084.096.124.058.071.12.14.18.21.117.048.235.096.358.127a181.141 181.141 0 0 0 11.999-4.257c1.97-.78 4.044-1.511 6.18-2.199l-12.985 33.87-19.578-12.373a.5.5 0 0 0-.334-.073c-.07.01-.996.14-2.449.478l-1.371-3.007a1.577 1.577 0 0 0-.25-.037h-.052a1.39 1.39 0 0 0-.266.034c.053-.012-.025.009-.04.014-.015.005-.028.013-.043.018-.023.026-.046.052-.066.08a1.046 1.046 0 0 0-.04.059c.02-.033-.01.018-.014.028-.049.096-.08.185-.096.264-.003.014 0 .028-.003.042l1.253 2.749c-.816.21-1.74.477-2.74.809l-3.553-10.478c.531-.091 1.113-.194 1.742-.31l2.36 5.174c.013.009.023.021.036.03.033.023.068.044.102.066.049.032-.034-.017.012.007a1.677 1.677 0 0 0 .303.135c.03.01.048 0-.002.001.022 0 .052.013.074.018.05.01.1.014.15.019h.004l.025-.002a.745.745 0 0 0 .075-.009l.013-.002c.023-.014.033-.01.015-.005a.376.376 0 0 0 .033-.01c.017-.007.036-.018.054-.026a.471.471 0 0 0 .018-.012l.04-.032c-.003.005-.004.003-.009.012.005-.01.017-.018.024-.026a.663.663 0 0 0 .052-.068c0-.02.047-.101.053-.12.002-.006.005-.013.006-.02l-2.426-5.32a191.104 191.104 0 0 0 19.244-4.757 4.39 4.39 0 0 0 .517-.344c.067-.053.13-.113.19-.175l.01-.077c0-.008.003-.084.003-.055a.88.88 0 0 0-.012-.125c-.002-.014-.02-.088-.003-.025a.83.83 0 0 0-.048-.134c-.006-.012-.051-.085-.015-.031a1.64 1.64 0 0 0-.07-.095l-.017-.011c-.055-.034-.108-.072-.163-.105-.747.229-1.51.471-2.238.684l-1.14-3.58a.25.25 0 0 0-.477.152l1.137 3.569c-3.231.938-6.25 1.724-8.976 2.376l-.986-3.12a.25.25 0 1 0-.477.15l.975 3.086a179.557 179.557 0 0 1-8.176 1.737c-.045 0-.09.013-.136.026l-.36.066v-3.687a.25.25 0 0 0-.5 0v3.779c-3.1.56-4.91.786-4.972.794l-1.652-.918a.498.498 0 0 0-.333-.053l-2.488.46.639-3.835a.25.25 0 0 0-.206-.289.254.254 0 0 0-.287.207l-.67 4.013-.512.095-15.66-14.172 13.53-17.355a.5.5 0 0 0-.79-.616l-13.813 17.722a.5.5 0 0 0 .059.679l16.186 14.65c.115.105.274.15.426.12l3.59-.664 1.776.986-.648.648a.499.499 0 0 0 .026.73l2.847 2.477-1.072 1.34-.729-.547a.5.5 0 0 0-.638.032l-1.394 1.277-.793-.496a.5.5 0 0 0-.619.07l-1.035 1.036c-1.216-1.26-5.178-5.363-9.272-9.574a.497.497 0 0 0-.335-.344c-4.802-4.936-9.687-9.918-10.455-10.546-1.082-.886-.587-1.674-.499-1.795l15.907-18.14a.5.5 0 0 0-.752-.66l-15.926 18.163c-.441.568-.876 1.968.637 3.205.697.571 9.625 9.75 9.603 9.748.094.1 1.395 1.368 1.56 1.538-.487 1.576-2.375 7.683-2.86 9.3-.303 1.007-1.004 1.35-1.028 1.363a.49.49 0 0 0-.129.083L71.004 159.7a.5.5 0 0 0-.167.373v2.605c0 .206.138.395.329.47.009.004.94.393 1.75 2.5.614 1.597.446 2.817.303 3.376-.47-.07-1.41-.272-2.806-.854-2.154-.898-3.434-1.907-3.6-4.409-.16-2.393 1.143-6.322 1.412-7.102l14.95-11.444a.503.503 0 0 0 .163-.217s3.782-9.632 3.766-9.669c-1.424-.206-4.229-1.031-7.184-2.415l1.678-2.853a.25.25 0 0 0-.088-.342.25.25 0 0 0-.342.088l-1.703 2.894a40.86 40.86 0 0 1-1.409-.716c-1.925-1.027-3.524-2.236-5.049-3.628l2.429-2.914a.25.25 0 1 0-.384-.32l-2.409 2.89c-1.356-1.274-2.672-2.687-4.124-4.257l-.35-.378 1.863-2.018a.25.25 0 0 0-.368-.34l-1.836 1.99c-1.47-1.584-3.077-3.284-4.989-5.1l2.175-2.51a.25.25 0 0 0-.378-.328l-2.162 2.495a78.441 78.441 0 0 0-3.592-3.178 27.82 27.82 0 0 0-1.264-.983l2.2-3.047a.25.25 0 0 0-.056-.35.252.252 0 0 0-.349.057l-2.198 3.044a26.73 26.73 0 0 0-6.017-3.213l1.392-3.308a.25.25 0 1 0-.46-.193l-1.401 3.326a26.954 26.954 0 0 0-3.416-.973.486.486 0 0 0-.41-.148c-.043.005-.078.024-.116.038a27.032 27.032 0 0 0-3.845-.466l.73-2.922a.25.25 0 0 0-.182-.303.245.245 0 0 0-.303.182l-.744 2.976c-.004.017.008.03.007.047-2.255-.067-3.681.183-3.72.19a.497.497 0 0 0-.398.586l2.747 14.379a.452.452 0 0 0 .01.049l4.786 25.051c.052.27.317.45.584.398.028-.005 2.668-.497 4.469-.16a6.97 6.97 0 0 1 1.345.402c-.896.075-2.08.324-3.66.88-2.264.795-3.731 1.973-4.363 2.849l-7.18-43.862a.5.5 0 0 0-.494-.419c-.048 0-.825.006-2.71.27l.875-3.326a.25.25 0 0 0-.178-.306.255.255 0 0 0-.305.179l-.93 3.531c-.948.143-2.127.341-3.588.624-1.058.205-2.015.41-2.905.606.397-1.645.863-3.578 1.37-5.696l2.412-.241a.25.25 0 0 0 .224-.274.255.255 0 0 0-.273-.224l-2.238.224 1.257-5.251 2.917-.62a.25.25 0 1 0-.103-.488l-2.686.57c.403-1.688.812-3.408 1.219-5.121l2.118-.353c.136-.024.228-.152.206-.288s-.156-.224-.288-.206l-1.91.318.385-1.628 5.426-1.021a.5.5 0 1 0-.185-.983l-14.093 2.652a.494.494 0 0 0-.255.131l-16.55 15.998-.807-.178-.133-.186.37-.169a.5.5 0 0 0 .229-.7l-.838-1.488a.501.501 0 0 0-.522-.247l-1.582.279a.5.5 0 1 0 .174.984l1.233-.217.397.705-.12.054a.487.487 0 0 0-.283-.039l-1.36.227-1.432-2.092.498-.664.772-.11a.502.502 0 0 0 .398-.32l.297-.792h.77a.5.5 0 0 0 .464-.314l.432-1.081h1.099l1.105 1.351a.5.5 0 0 0 .722.056c.125-.113 12.564-11.309 13.526-12.132.778-.667 1.534-.585 1.557-.582.046.006 13.95-1.813 13.95-1.813a.5.5 0 0 0-.13-.993l-4.397.578c.222-.943.438-1.866.647-2.764l2.653-.514a.25.25 0 0 0 .198-.293c-.026-.136-.161-.232-.293-.197l-2.433.47c.38-1.63.734-3.163 1.05-4.55l2.021-.264a.25.25 0 0 0 .216-.28.256.256 0 0 0-.28-.216l-1.838.24c.414-1.821.755-3.359.994-4.49l2.946-.276c.137-.013.238-.135.225-.273s-.137-.251-.272-.226l-2.793.262c.19-.932.289-1.502.263-1.58-.044-.132-.194-.226-.321-.184-.132.044-.207.16-.163.291 0 .126-.1.663-.281 1.52l-2.659.249a.25.25 0 0 0 .023.499l.024-.001 2.502-.234a387.34 387.34 0 0 1-1.014 4.51l-1.916.25a.25.25 0 0 0 .065.497l1.732-.226a1340.25 1340.25 0 0 1-1.065 4.587l-2.793.54a.25.25 0 0 0 .047.496.2.2 0 0 0 .047-.005l2.574-.498-.641 2.73-6.277.825 1.137-4.735c-.029-.025-.06-.046-.09-.071l-.018-.016c-.323.065-.642.159-.96.253l-1.13 4.708-1.49.196c-.286-.023-1.289-.019-2.268.82-.885.758-10.99 9.85-13.154 11.797l-.924-1.129a.5.5 0 0 0-.387-.184H4.406a.5.5 0 0 0-.464.315l-.432 1.081h-.778a.5.5 0 0 0-.468.324l-.315.84-.683.097a.498.498 0 0 0-.33.195L.1 104.193a.5.5 0 0 0-.013.582l1.814 2.652c.11.16.304.243.495.21l1.281-.213c.047.04.097.063.154.082l.448.627c.072.1.178.17.298.197l1.256.28a.509.509 0 0 0 .456-.13L22.925 92.4l.52-.098-1.372 5.707c.071.12.148.236.216.357l.016.028.03.05.053.09.058.08.008.01h.024l.026-.008c.147-.055.287-.125.43-.191.03-.028.058-.058.088-.085l1.499-6.24 6.38-1.201-.382 1.616-2.014.336a.25.25 0 0 0 .082.494l1.806-.301c-.41 1.728-.821 3.458-1.224 5.147l-2.907.617a.25.25 0 1 0 .103.488l2.676-.568a5250.44 5250.44 0 0 1-1.24 5.189l-2.815.281a.25.25 0 0 0 .025.5c.008 0 .017 0 .025-.002l2.64-.264c-.528 2.206-1.002 4.176-1.384 5.763l-.904.203c-1.557.353-2.901.657-4.129.831-.322.048-.747.054-.94-.168-.251-.29-.142-.924-.077-1.148l2.18-9.073a6.331 6.331 0 0 0-.999-.126l-2.147 8.938c-.04.132-.365 1.307.285 2.06.39.455 1.009.627 1.84.508 1.267-.181 2.63-.49 4.208-.846 1.256-.283 2.679-.606 4.322-.923 3.54-.685 5.447-.879 6.224-.933l1.833 11.199-7.133-4.416a.498.498 0 0 0-.605.06c-.032.03-.48.47-1.177 1.486-.017.042-.035.084-.05.127l-.007.024-.007.027a1.318 1.318 0 0 0-.032.22 1.682 1.682 0 0 1 .015.072l.017.051c.014.036.03.07.046.105l.025.037c.011.016.024.03.036.046l.004.004.064.052.008.005c.013.006.025.013.038.018l.043.017c.057.02-.03-.004.003 0 .037.005.074.014.112.017l.033.001a.903.903 0 0 0 .158-.016l.061-.011.028-.007c.04-.014.076-.036.116-.05.387-.58.7-.985.897-1.217l7.462 4.619c.018.01.038.012.056.02l.76 4.644-2.228-1.525-.045.014c-.042.014-.082.034-.123.052-.035.015.037-.027-.02.012l-.043.03-.047.038c-.002.001 0-.001 0 0-.032.092-.082.176-.14.258a1.423 1.423 0 0 0-.015.117l-.002.032a1.368 1.368 0 0 0 .042.315v.002l.031.095 2.685 1.837c.037.025.08.023.12.037l4.29 26.207a.5.5 0 0 0 .494.42c.089 0 2.215-.015 5.788-1.314 3.581-1.303 5.231-2.765 5.3-2.826a.5.5 0 0 0 .06-.68c-.05-.065-1.272-1.6-3.994-2.11-1.511-.286-3.45-.057-4.347.079l-3.548-18.57c1.486.91 4.712 2.873 6.662 3.988.587.335 1.107.502 1.556.502.295 0 .56-.073.792-.218.89-.558.828-1.903.812-2.106l-.804-4.66c-.079-.054-.156-.11-.237-.16-.054-.032-.13-.068-.2-.104l-.032-.01a.979.979 0 0 0-.134-.024c-.052-.005.041-.005-.013 0l-.056.005c-.068.004.012-.012-.023.003l-.012.004c-.028.053-.049.11-.08.161-.075.129-.127.208-.19.33l.789 4.573c.018.277-.044.948-.35 1.14-.238.15-.72.039-1.322-.306-2.527-1.444-7.218-4.327-7.411-4.446l-.674-3.526 6.815 4.543a.502.502 0 0 0 .54.01.501.501 0 0 0 .234-.488l-2.32-18.556c.26.06.523.128.79.2l2.47 14.309a.224.224 0 0 1 .115.174c.02.162.046.322.081.481l.031.124.136.021c.051.008.102.014.154.02l.028-.004.045-.018c.043-.019.085-.04.127-.06.075-.034.154-.06.231-.088.045-.084.098-.215.121-.305l.001-.008-2.473-14.342a25.891 25.891 0 0 1 8.827 4.827c4.154 3.45 7.016 6.545 9.541 9.277 3.267 3.533 5.848 6.324 9.801 8.433 3.626 1.934 6.346 2.756 8.184 3.092l-3.313 8.546-14.958 11.45a.499.499 0 0 0-.167.228c-.07.193-1.708 4.782-1.517 7.644.2 2.995 1.83 4.272 4.214 5.266 2.298.957 3.49.968 3.54.968a.5.5 0 0 0 .458-.297c.033-.077.817-1.893-.177-4.476-.71-1.848-1.549-2.61-2.013-2.91v-2.082L85.39 148.21c.269-.147 1.121-.696 1.496-1.946.442-1.473 2.047-6.67 2.697-8.77 4.375 4.505 8.285 8.56 8.37 8.648.095.097.228.175.36.153a.5.5 0 0 0 .354-.147l1.115-1.114.778.486a.5.5 0 0 0 .603-.055l1.37-1.254.784.589a.5.5 0 0 0 .69-.088l1.675-2.093a.5.5 0 0 0-.063-.69l-2.805-2.439.737-.737a.499.499 0 0 0 .14-.414c.46-.067 1.074-.161 1.827-.284l3.605 10.635c-3.9 1.4-6.654 3.311-6.77 3.393a.5.5 0 0 0-.173.606c.03.07.622 1.379 2.51 2.034l-7.125 4.177c-.009.028-.02.059-.025.081a.657.657 0 0 0 0 .322c.011.053-.012-.03.008.026.01.03.02.06.033.09.004.008.047.092.023.05.016.03.036.058.056.085.002.004.007.005.01.009.2.047.408.075.613.076l7.726-4.529c.032-.019.054-.048.08-.072.185.02.375.038.575.047 2.75.102 4.887-.733 5.592-1.056l.237.126-16.336 12.027a.5.5 0 0 0-.106.7c.011.015 1.13 1.556 1.395 3.672.249 1.992-.214 3.364-.486 3.966-1.006-.4-3.668-1.602-4.923-3.554-1.34-2.082-1.818-5.492-1.937-6.53l6.149-3.605c.02-.055.04-.11.056-.166l.014-.047.004-.016.023-.095c.025-.115.042-.231.047-.348v-.003l-.002-.028c0-.02-.002-.04-.004-.061-.004-.039-.012-.076-.018-.114-.006-.04.018.05-.003-.01l-.021-.056c-.006-.013-.013-.025-.018-.039-.012-.032.035.05-.002-.002-.017-.026-.04-.05-.058-.075l-.003-.003-.008-.006-.066-.015c-.018-.004-.037-.005-.056-.008l-6.818 3.996a.5.5 0 0 0-.245.474c.016.186.402 4.619 2.125 7.298 1.75 2.721 5.677 4.055 5.843 4.11a.501.501 0 0 0 .574-.197c.05-.075 1.215-1.865.825-4.99-.215-1.717-.914-3.072-1.308-3.723l16.34-12.03 23.352 12.46c.055.038 1.158.782 2.311.782.214 0 .43-.026.641-.086.635-.182 1.11-.628 1.416-1.326.976-2.23 11.885-40.529 12.433-42.45 6.236-1.768 12.82-3.19 19.038-4.325l13.885 26.573c.09.014.163.02.228.016.05-.004.098-.011.146-.02a1.43 1.43 0 0 0 .15-.064l.026-.014c.074-.044.14-.095.205-.152l.018-.018.038-.045a.927.927 0 0 0 .034-.047c.006-.008.042-.065.026-.037-.015.025.015-.03.02-.04l.008-.02-13.753-26.319c.78-.139 1.555-.275 2.32-.406 2.175 3.697 4.739 8.06 7.443 12.663.01.001.021.004.032.004l.033.002c.024-.003.05-.001.075-.003.043-.004.086-.01.128-.018h.006l.019-.005c.019-.007.038-.012.056-.02a.825.825 0 0 0 .06-.025l.017-.008c.014-.021.08-.055.098-.07l.018-.016a.79.79 0 0 0 .07-.084l.02-.032.018-.032c.01-.02.02-.041.028-.062.01-.024.018-.048.026-.073a.383.383 0 0 0 .005-.015c.008-.044.02-.087.026-.131.005-.04.007-.08.01-.12l-7.13-12.131c9.063-1.512 16.883-2.4 20.95-2.862 1.548-.176 2.57-.291 3.07-.37 3.903-.617 3.774-3.785 3.766-3.785l.657-5.504ZM53.784 150.155c-.735.51-2.166 1.38-4.38 2.184-2.017.734-3.545 1.035-4.465 1.16.293-.447 1.452-1.73 4.006-2.628 3.102-1.09 4.37-.9 4.839-.716Zm-5.033-22.732-6.724-4.482-2.614-13.684c1.06-.122 3.722-.306 7.11.344l2.228 17.822Z" class="cls-7"/><path d="m214.817 85.93-1.487-2.148.756-1.21a.5.5 0 0 0-.054-.601l-1.587-1.746 1.25-1.718a.5.5 0 0 0-.008-.598l-1.86-2.418a.498.498 0 0 0-.347-.193.474.474 0 0 0-.377.12l-2.106 1.818 2.722-22.823c-.242-.066-.488-.015-.709.097-.121.061-.23.148-.337.234l-2.797 23.46-.514.444-.974-.974a.456.456 0 0 0-.378-.145.498.498 0 0 0-.362.18l-3.534 4.28a.5.5 0 0 0-.098.444l1.034 3.965-27.26 21.808-14.714-18.398a.5.5 0 0 0-.786.62l15.026 18.793a.503.503 0 0 0 .705.081l27.907-22.326a.5.5 0 0 0 .172-.517l-1.052-4.031 3.021-3.658.914.914a.499.499 0 0 0 .68.024l.038-.032c.008.119 3.655-3.156 3.655-3.156l1.31 1.702-1.269 1.744a.5.5 0 0 0 .035.63l1.606 1.767-.73 1.168a.498.498 0 0 0 .013.548l1.404 2.029-37.392 28.92a.495.495 0 0 0-.088.089c-.005.004-.452.55-.957.55-.285 0-.574-.185-.859-.55-1.275-1.64-14.278-21.574-14.444-21.829a.5.5 0 0 0-.839.545c.677 1.041 13.193 20.225 14.494 21.897.483.622 1.038.937 1.648.937.883 0 1.522-.672 1.702-.882l29.088-22.499-1.22 10.234c.305.138.644.178.985.152l1.341-11.241 7.528-5.822a.5.5 0 0 0 .105-.68ZM214.868 19.48c-.728-.818-1.959-.929-3.066-.929-3.201 0-11.943 2.52-23.986 6.914-13.67 4.989-46.76 28.153-47.055 28.363-.695.401-1.435.833-2.214 1.288-10.315 6.023-27.582 16.11-43.119 14.693-10.622-.966-16.688-5.134-23.11-9.548-3.568-2.451-7.258-4.986-11.764-6.88-7.549-3.174-16.56-2.022-26.79 3.421-.315.167-.545.29-.68.352-1.632.742-1.807 2.272-1.826 2.619l-5.321 22.152.008.015.017.03c.002.003-.001-.002 0 0l.038.065c.047.08.097.16.153.236.026.036.055.069.084.103l.039.015c-.068-.024.005-.004.018 0 .059.02-.018.007.014.004l.037-.005c.163-.11.321-.228.479-.347l.012-.011.14-.147 2.948-12.276c.017-.01.037-.015.053-.028.055-.044 5.672-4.394 22.346-3.145 10.256.767 16.111 5.36 21.774 9.802 5.23 4.102 10.168 7.977 18.048 8.43.49.029.985.043 1.49.043 13.48-.002 32.592-9.792 48.057-17.714 3.42-1.753 6.651-3.408 9.678-4.89 18.293-8.956 39.337-15.594 48.438-17.447 7.804-1.591 11.195-1.592 12.25-1.526l-1.105 9.266c.019.015.036.032.056.047.084.062.17.125.267.167a.37.37 0 0 0 .171.04c.153-.012.34-.185.48-.312l.045-.045c1.84-15.431 3.35-28.106 3.489-29.278.206-1.752.023-2.843-.594-3.537ZM38.24 63.47c-1.462 0-2.647-1.212-2.647-2.707s1.185-2.706 2.647-2.706 2.646 1.212 2.646 2.706-1.185 2.706-2.646 2.706Zm10.139-1.047c-1.706 0-3.089-1.365-3.089-3.048s1.383-3.048 3.089-3.048 3.088 1.365 3.088 3.048-1.383 3.048-3.088 3.048Zm13.235-.648c-.575 1.71-2.409 2.636-4.094 2.068-1.686-.567-2.586-2.413-2.01-4.123.575-1.71 2.408-2.635 4.094-2.068 1.686.568 2.586 2.414 2.01 4.123Z" class="cls-7"/><path d="m44.379 153.566.482-.133c.008.031.006.051.007.076-.188.025-.359.045-.49.057Z" class="cls-8"/><path d="m39.574 59.31-1.112.852-.768-1.135a.374.374 0 1 0-.621.42l.792 1.17-1.454 1.113a.375.375 0 0 0 .456.596l1.42-1.086.925 1.37a.374.374 0 0 0 .52.1.374.374 0 0 0 .101-.52l-.95-1.406 1.147-.878a.375.375 0 0 0-.456-.595Z" class="cls-7"/><path d="m50.424 59.141-4-.185c-.222.013-.382.15-.392.357s.15.383.357.392l4 .186h.018a.375.375 0 0 0 .017-.75Z" style="fill:#231338"/><path d="m60.471 61.018-1.325-.41.548-1.723a.375.375 0 1 0-.715-.226l-.55 1.727-1.865-.577a.376.376 0 0 0-.222.717l1.86.575-.525 1.65a.375.375 0 1 0 .715.227l.527-1.655 1.33.412a.376.376 0 0 0 .222-.717Z" class="cls-7"/></svg>