<svg xmlns="http://www.w3.org/2000/svg" width="1059.53" height="525.56"><defs><style>.cls-1,.cls-2,.cls-3{stroke-linecap:round;stroke-linejoin:round}.cls-1,.cls-3{stroke:#000}.cls-1,.cls-4{fill:#241d2a}.cls-2{stroke:#241d2a}.cls-2,.cls-3{fill:none}.cls-5{fill:#f6f6f8}.cls-6{fill:#f58452}.cls-7{fill:#ebb432}.cls-8{fill:#e7e1ec}.cls-9{fill:#ffbea5}.cls-11{fill:#917ec1}.cls-12{fill:#8d5494}.cls-14{fill:#ad6caa}.cls-15{fill:#b39ed3}.cls-16{fill:#ccbddb}.cls-17{fill:#e1557a}</style></defs><path fill="#ffadb2" d="M1059.53 392.91 763.91 525.56 0 261l16.42-84.61L1002.61 0l56.92 392.91z" id="bg"/><g id="flame-chart"><path class="cls-9" d="m481.37 323.34-47.79 3.6-1.74 35.78 48.68-.09.85-39.29z"/><path class="cls-17" d="m763.91 352.24-2.18-10.16a2.4 2.4 0 0 0-.85-1.38 440.18 440.18 0 0 0-7.12-5.42c1.8-5.8 4.27-13.85 4.27-13.85l.05-.19a1.66 1.66 0 0 0-1.73-2.04l-1.84.13c-9.19.95-22.77 4.08-26.62 5-.6.14-.99.7-.9 1.31l2.43 17.13 6.16 1.9-2.15-14.54 15.23-3.38 2.25-.44-.53 2.17-2.23 8.07c-.14.5.06 1.05.5 1.33l5.86 3.8 1.18.92.17 1.1.92 7.52 5.46 1.68 1.67-.66Z"/><path class="cls-6" d="m477.83 323.61 3.54-.27-.85 39.29-4.49.01 1.8-39.03z"/><path class="cls-8" d="m908.42 419.43-45.64 2.76-38.58 1-.08 6.6-6.59.55-74.53-2.23.56-62.1v-8.53l41.75.7 33.37-.02h6.33l-.18 14.77 33.16-.39-.03-.06s2.86-1 5.17-2.9v-7.86h1.27l.07-.47c.17.15.32.31.46.47h42.98l.51 57.71ZM893.75 260.1c-.73-6.99-11.78-6.5-11.78-6.5 3.28-1.52 8.2-4.86 7.6-7.52-.61-2.67-6.75-2.44-6.75-2.44l-4.36 27.96c10.1-2.03 15.91-5.56 15.3-11.5Z"/><path class="cls-15" d="m898.76 231.68 18.12-2.36 50.37 5.92 2.09 60.84-52.79-3.27-72.79 5.71-47.32 2.86-95.11 6.75 2.72-54.12 136.75-15.86 57.96-6.47z"/><path class="cls-16" d="m908.42 419.43-45.64 2.76-38.58 1-.08 6.6-6.59.55 1-71.95.15-.23h6.33l-.18 14.77 33.16-.39-.03-.06s2.86-1 5.17-2.9v-7.86h1.27l.07-.47c.17.15.32.31.46.47h42.98l.51 57.71Z"/><path class="cls-15" d="m521.51 274.9 1.6-45.23 181.64-26.38-1.41 50.8-181.83 20.81"/><path class="cls-8" d="m591.88 319.79-25.47 1.94-46.79-1.28 1.89-45.55 181.83-20.81-2.17 58.25-109.29 7.45"/><path class="cls-8" d="m515.88 408.69 48.22-5.83 2.31-81.13-46.79-1.28-38.25 2.89-1.73 80.24 36.24 5.11z"/><path class="cls-16" d="m519.62 320.45 46.79 1.28 134.76-9.39.16-4.21-181.71 12.32zM566.41 321.73l-46.79-1.28-3.74 88.24 48.22-5.83 2.31-81.13z"/><path class="cls-15" d="m377.58 219.27 539.57-93.23 46.95 17.02-1.52-44.34-45.12-17.95-536.92 104.96-2.96 33.54zM17.68 281.46l359.9-62.19 2.96-33.54-358.53 70.14-4.33 25.59z"/><path class="cls-8" d="m917.46 39.46 43.89 20.02 1.23 39.24-45.27-18.01-536.77 105.02 3.04-34.59 1.77-.41L917.46 39.46zM420.08 291.42c-.91-11.68 9.87-17.62 9.87-17.62s-.28-5.54 5.48-10.33a17.67 17.67 0 0 1 8.07-3.62l1.1-18.78-69.83 10.14-3.66 41.6 36.57 3.84 13.26-1.32a13.7 13.7 0 0 1-.86-3.91Z"/><path class="cls-5" d="M435.02 305.14s-3.97 1.65-4.52 5.21c-.63 4.12 2.38 5.12 2.38 5.12s1.12.43 2.14.56a5.14 5.14 0 0 0-3.18 4.83c0 4.57 6.41 5.73 6.41 5.73l11.3-.85s2.43-.78 3.38-3.48c.5-1.46.41-4.34-2.86-4.82a5.85 5.85 0 0 0-1.27-.06c-.17-1.56-1.93-1.63-1.93-1.63a8.25 8.25 0 0 0 5.19-4.22c1.18-2.48-.59-4.17-.59-4.17a9.74 9.74 0 0 0-1.8-1.26c6.37-2.47 4.59-5.9 4.59-5.9 5.94-2.82 9.18-7.25 8.1-11.26-.98-3.57-5.45-2.44-5.45-2.44 4.39-3.37 11.5-13.35 7.27-18.77-4.01-5.16-13.94 1.23-13.94 1.23s3.65-5.22.64-7.96c-2.82-2.56-10.6-1.55-15.45 2.47-5.76 4.8-5.48 10.33-5.48 10.33s-10.78 5.94-9.87 17.62c.92 11.68 13.62 12.17 13.62 12.17a1.94 1.94 0 0 0 1.32 1.55ZM745.22 456.08l5.91-4.7-1.61-9.94 6.64 7.32 9.27-2.95-7.59 6.78 3.43 12.21-8.46-10.27-7.59 1.55zM880.66 384.55l4.51-4.38-2.71-8.96 6.9 7.24 6.35-1.77-4.89 4.63 2.03 6.99-5.84-5.59-6.35 1.84zM882.82 243.64s6.14-.23 6.74 2.44-4.3 6-7.59 7.52c0 0 11.05-.49 11.78 6.5.84 7.99-9.95 11.6-27.14 13.11-4.15.36-10.27 0-10.27 0 1.46.42 3.23 1.1 3.23 1.1s6.53 2.24 5.35 8.8c-1.33 7.35-10.63 14.57-35.49 18.45 0 0 13.9 2.19 16.82 8.86 2.4 5.5-2.32 8.31-2.32 8.31s7.37 3.8 8.85 9.12 1.74 14.9 1.74 14.9 1.78.41 4.66 1.56c0 0 5.72 2.5 4.92 6.61s-8.47 6.86-8.47 6.86 10.3 1.37 10.4 6.61-8.06 8.1-8.06 8.1l-33.14.44.19-14.76h-39.7v-3.49l-2.29-.57v-1.14c-2.95-.92-8.17-3.01-10.05-3.77a1.89 1.89 0 0 0-1.4 0l-4.28 1.7s-.15-.64-.64-3.44c0 0-1.16-7.81 5.13-13.59s14.5-2.3 14.5-2.3 1.74.54 5.37 2.8l-3.44-3.32s-2.44-2.05-1.41-4.75c1.04-2.75 4.36-3.4 6.71-3.25 0 0-3.46-3.46-3.16-10.5.29-6.65 6-12.7 12.29-14.48 0 0-1.2-.45-1.6-1.38-.47-1.15 0-2.3 0-2.3-6.98 0-12.57-4.91-13.66-9.22s-.49-10.08 6.13-15.36 14.63-4.43 14.63-4.43a33.9 33.9 0 0 1 6.04 1.15c.25-1.7 1.16-5.54 4.4-7.95 4.25-3.16 9.47-1.1 11.9.97 0 0-.42-1.14.2-2.03s2.1-.8 2.1-.8c-2.51-1.57-5-4.76-4.36-11.25 1.21-12.39 14.34-18.02 22.52-18.52 10.02-.6 18.03 4 18.03 4s-.74-1.12-.8-1.89.38-1.38.38-1.38-4.72-1.32-3.77-5.34c.73-3.07 6.45-2.1 6.45-2.1-1.49-1-3.48-3.12-3.45-7.44.04-6.5 12.19-12.67 26.47-10.51 0 0 .93-1.14 1.8-1.7 0 0 7.28-5.52 10.56-1.5 1.37 1.66.62 4.65-1.33 6.8a14.89 14.89 0 0 1-4.47 3.11c1.66.4 3.42 1 5.2 1.92 7.64 3.95 7.28 11.37 2.55 17.36-3.89 4.92-15.42 9.78-23.01 10.69"/><path class="cls-9" d="m965.47 183.19-48.01-10.79-542.69 78.81 2.81-31.94 539.57-93.23 46.95 17.02 1.37 40.13zM786.14 429.4l-1.57 47.42v.76l2.68.25 74.95 7.71 46.72-9.39-.5-56.72-45.64 2.76-38.58 1-.08 6.59-6.59.56-31.39-.94z"/><path class="cls-15" d="m698.1 416.58 1.75-52.94 17.92-.38 6.96-.14 12.36-.26 6.48.13-.56 56.76-20.95-.32-11.07-.26-12.89-.28v-2.31z"/><path class="cls-17" d="m715.7 435.26 16 5.8 1.41 12.32s4.05 1.06 7.22-.52c0 0-1.3-9.73-2.65-16.42-.1-.51-.48-.92-.97-1.07a416.92 416.92 0 0 0-15.38-4.5l-8.27-29.03 2.11-1.59 21.46-16.7.86-.7-1.91-1.95s-8.97-9.32-13.55-14.25l7.61-10.13-5.76-2.52-1.82 2.8-7.37 11.1c-.34.5-.27 1.16.15 1.6l13.17 13.34-22.02 16.3c-.48.35-.7.97-.53 1.54l8.83 31.42.77 2.9.64.26Z"/><path class="cls-7" d="m821.07 358.17 1.67-6.69 17.35-.04c.88 0 1.7-.46 2.16-1.2l1.9-3c.3-.48.36-1.09.15-1.62-2.72-6.98-5.2-14.25-5.2-14.25l3.1-4.46a.87.87 0 0 1 1.04-.32l7.45 2.96 1.79 12.06c.1.7.7 1.2 1.41 1.2l12.05-.2c.22-3.21 0-6.35 0-6.35l-8.46.44-1.86-14.6a1.94 1.94 0 0 0-1.63-1.68 356.55 356.55 0 0 1-14.07-2.45 1.78 1.78 0 0 0-1.87.81c-2.33 3.76-5 8.93-6 10.9a2.1 2.1 0 0 0-.1 1.67c2.16 6.14 5.76 14.4 5.76 14.4l-17.73.4c-.87.02-1.63.58-1.9 1.4l-3.5 10.62h6.5Z"/><path class="cls-6" d="m853.92 393.76 5.78 11.81 14.22-1.71 1.6-9.6 6.22.83-2.74 13.16a1.68 1.68 0 0 1-1.46 1.33l-19.71 2.23c-.6.07-1.18-.23-1.49-.75l-5.6-9.68-13.93 1.91c-.74.1-1.44-.36-1.63-1.1-.81-3.26-3.02-12.12-4.45-18.16-.17-.71.32-1.4 1.04-1.5l11.16-1.54 4.96-8.5-3.9-5.28-5.12 5.56-9.34.1 13.8-13.68c.92-.92 2.45-.7 3.09.43l7.65 13.6c.37.68.33 1.5-.1 2.14l-6.46 9.38-9.85 1.46 2.29 9.4 11.43-2.8 1.82-.45.72 1.4Z"/><path class="cls-16" d="m371.1 292.8 49.18-5.68s-1.01 4.6.66 8.2l-13.26 1.33-36.57-3.85Z"/><path class="cls-6" d="m862.78 422.19-.58 63.35 46.72-9.39-.5-56.72-45.64 2.76zM785.41 451.38l76.79 4.32.58-33.51-38.58 1-.08 6.59-6.59.56-31.39-.94-.73 21.98zM917.15 126.04l.31 46.36 48.01 10.79-1.37-40.13-46.95-17.02z"/><path class="cls-17" d="m916.88 229.32.58-56.92 48.01 10.79 1.78 52.05-50.37-5.92z"/><path class="cls-11" d="m916.88 229.32-.33 63.49 52.79 3.27-2.09-60.84-50.37-5.92z"/><path class="cls-17" d="m916.3 361.72.25-68.91 52.79 3.27 2.02 65.64H916.3z"/><path class="cls-11" d="m917.31 80.71-.16 45.33 46.95 17.02-1.52-44.34-45.27-18.01z"/><path class="cls-16" d="m917.46 39.46-.15 41.25 45.27 18.01-1.23-39.24-43.89-20.02z"/><path class="cls-8" d="M380.54 185.73 22.01 255.87l5.09-30.02 356.48-74.71-3.04 34.59z"/><path class="cls-9" d="m373.5 265.66 4.08-46.39-359.9 62.19-3.75 22.12 50.43 2.44 309.14-40.36z"/><path class="cls-6" d="m373.5 265.66 1.27-14.45-360.84 52.37 50.43 2.44 309.14-40.36z"/><path class="cls-2" d="m27.81 225.71 357.54-74.98M374.77 251.21 13.93 303.58l12.57-74.17M13.93 303.58l50.43 2.44 305.85-39.93M961.35 62.94l10.01 292.24M589.06 108.13l328.4-68.67 43.89 20.02M385.35 150.73l96.87-20.26M917.46 39.46l-1.16 322.26M383.58 151.14 371.11 292.8l36.57 3.85 13.26-1.32M424.11 286.68l1.48-.18M371.11 292.8l51.05-5.9"/><path class="cls-2" d="m965.47 183.19-48.01-10.79-542.69 78.81M964.1 143.06l-46.95-17.02-539.57 93.23M962.58 98.72l-45.27-18.01-536.77 105.02M700.68 338.79l-2.58 77.79M722.06 419.43l20.95.32M699.39 418.89l11.26.27M443.39 261.57l-.14 2.42M444.6 241.07l-1.1 18.68M898.76 231.68l18.12-2.36 50.37 5.92M835.98 238.71l2.83-.33M704.05 254.01l128.54-14.91M461.05 282.19 643.75 261M546.19 361.61l19.1-.63M590.33 315.12l-156.75 11.82-1.74 35.78 68.3-.12M516.75 391.17l-.58 14.28"/><path class="cls-2" d="m518.69 344.02.93-23.57 3.49-84.3M477.83 323.61l-1.8 39.03M566.41 321.73l25.47-1.94M438.25 326.59s-6.4-1.16-6.4-5.73c0-4.6 4.86-5.39 4.86-5.39M432.88 315.47s-3.01-1-2.38-5.12c.55-3.56 4.52-5.2 4.52-5.2M433.7 303.59s-12.7-.49-13.62-12.17c-.91-11.68 9.87-17.62 9.87-17.62s-.28-5.54 5.48-10.33c4.85-4.02 12.63-5.03 15.45-2.47 3.01 2.74-.64 7.96-.64 7.96s9.93-6.4 13.94-1.23c4.22 5.42-2.88 15.4-7.27 18.77 0 0 4.47-1.13 5.44 2.44 1.09 4-2.15 8.44-8.1 11.27 0 0 2 3.8-5.7 6.28M451.47 307.36s1.77 1.69.59 4.17a8.25 8.25 0 0 1-5.2 4.22M444.87 319.25s2.02-2.28 5.2-1.81c3.27.48 3.37 3.36 2.86 4.82-.95 2.7-3.39 3.48-3.39 3.48"/><path class="cls-2" d="M431.4 289.05s.23-5.45 4.43-8.39c3.6-2.51 5.75 1.56 5.27 3.36 0 0 1.32-5.4 5.5-5.87M722.06 356.8l-7.37 11.1c-.34.5-.27 1.16.15 1.6l13.17 13.34-22.02 16.3c-.48.35-.7.97-.53 1.54l8.83 31.42"/><path class="cls-2" d="m715.7 435.26 16 5.8 1.41 12.32s4.05 1.06 7.22-.52c0 0-1.3-9.73-2.65-16.42-.1-.51-.48-.92-.97-1.07a416.92 416.92 0 0 0-15.38-4.5l-8.27-29.03M715.17 400.25l21.46-16.71M735.58 380.9s-8.97-9.32-13.55-14.25l7.61-10.13"/><path class="cls-2" d="M735.58 453.71s-.98 5.65-3.22 10.23M736.73 453.71s.5 6.53.6 14.25M738.17 453.55s.99 4.8 4.5 9.3M754.7 467.23l-12.98 12.72M746.48 466.82l2.96 13.85M752.67 474.43l-11.09-1.31M745.22 456.08l5.91-4.7-1.61-9.94 6.64 7.32 9.27-2.95-7.59 6.78 3.43 12.21-8.46-10.27-7.59 1.55zM748.66 326.75l-15.23 3.38 2.15 14.54M750.38 328.48l-2.23 8.07c-.14.5.06 1.05.5 1.33l5.86 3.8M755.86 343.7l.92 7.52"/><path class="cls-2" d="M729.42 342.77 727 325.64c-.09-.6.3-1.17.9-1.32 3.85-.9 17.43-4.04 26.62-5M758.03 321.43l-4.27 13.85s5.1 3.8 7.12 5.42c.44.35.74.83.85 1.38l2.18 10.16M724.73 363.12l12.36-.26M699.85 363.64l17.91-.38M743.57 366.02l-.56 62.09 74.52 2.23 6.59-.56.9-71.61h-39.71M818.54 358.17l-1.01 72.17M824.2 423.19l38.58-1M862.82 411.24l-.62 74.3M863.18 366.8l-.31 38.4M787.25 477.83l74.95 7.71M862.2 485.54l46.72-9.39-1-114.43M784.57 476.82l1.57-47.42M829.53 372.88l13.8-13.7c.92-.9 2.45-.7 3.1.44l7.64 13.6c.37.68.34 1.5-.1 2.14l-6.46 9.38-9.85 1.46 2.29 9.4 11.43-2.8"/><path class="cls-2" d="m853.92 393.76 5.78 11.81 14.22-1.71 1.6-9.6 6.22.83-2.74 13.16a1.68 1.68 0 0 1-1.46 1.33l-19.71 2.23c-.6.07-1.18-.23-1.49-.75l-5.6-9.68-13.93 1.91c-.74.1-1.44-.36-1.63-1.1-.81-3.26-3.02-12.12-4.45-18.16-.17-.71.32-1.4 1.04-1.5l11.16-1.54 4.96-8.5-3.9-5.28-5.12 5.56"/><path class="cls-2" d="M876.6 386.7s1.7 4.91 1.64 7.92M879.44 394.78s1.98-5.4 6.04-8.9"/><path class="cls-2" d="m880.66 384.55 4.51-4.38-2.71-8.96 6.9 7.24 6.35-1.77-4.89 4.63 2.03 6.99-5.84-5.59-6.35 1.84zM971.36 361.72H854.32M847.78 372.66l-22.95.27M863.14 372.49l-9.43.11M814.58 358.17l3.5-10.62a2.05 2.05 0 0 1 1.9-1.4l17.73-.4s-3.6-8.26-5.76-14.4a2.1 2.1 0 0 1 .1-1.66c1-1.98 3.67-7.15 6-10.9.4-.64 1.14-.96 1.87-.82 2.13.42 7.03 1.36 14.07 2.45.85.14 1.52.82 1.63 1.67l1.85 14.6 8.47-.43s.22 3.14 0 6.35l-12.05.2c-.7 0-1.3-.5-1.41-1.2l-1.79-12.06-7.45-2.96a.87.87 0 0 0-1.04.32l-3.1 4.46s2.48 7.27 5.2 14.25c.21.53.15 1.14-.16 1.63l-1.89 2.99a2.57 2.57 0 0 1-2.16 1.2l-17.35.04-1.67 6.69"/><path class="cls-2" d="M866.03 340.5s4.21.8 8.22 3.86M866.03 338.96l6.91-.91M766.66 347.46s-1.16-7.81 5.13-13.59 14.5-2.3 14.5-2.3M788.22 331.05s-2.44-2.05-1.41-4.75c1.35-3.57 6.54-3.6 8.47-2.95"/><path class="cls-2" d="M793.52 323.05s-3.46-3.46-3.16-10.5 6.7-13.42 13.42-14.75M808.15 265.38s-8.01-.85-14.63 4.43-7.22 11.05-6.13 15.36 6.68 9.23 13.66 9.23M814.1 267.38s.24-5.64 4.5-8.8c4.24-3.16 9.46-1.1 11.9.97M837.35 258.21s-10.14-.36-8.92-12.74 14.34-18.02 22.52-18.52c10.02-.6 18.03 4 18.03 4M868.56 227.68s-4.72-1.32-3.77-5.34c.73-3.07 6.45-2.1 6.45-2.1"/><path class="cls-2" d="M872.8 221s-5.05-1.34-5.01-8.2 13.58-13.35 28.88-10.07M896.06 200.59s7.28-5.52 10.56-1.5c1.37 1.66.62 4.65-1.33 6.8a14.89 14.89 0 0 1-4.47 3.11"/><path class="cls-2" d="M892.67 208.54a23.2 23.2 0 0 1 13.35 2.38c7.64 3.95 7.28 11.37 2.55 17.36-3.89 4.92-15.42 9.78-23.01 10.69M889.32 209.22s.28-.1.79-.22M882.82 243.64s6.14-.23 6.74 2.44-4.3 6-7.59 7.52c0 0 11.05-.49 11.78 6.5.84 7.99-9.95 11.6-27.14 13.11M859.57 274.3s6.53 2.25 5.35 8.8c-1.33 7.36-10.63 14.58-35.49 18.46 0 0 13.9 2.19 16.82 8.86 2.4 5.5-2.32 8.31-2.32 8.31M844.74 284.48c1.05-.4 1.69-.77 1.69-.77M825.85 268.41s-5.89 3.65-3.34 7.9c2.04 3.4 8.8 1.88 8.8 1.88s-2.65 5 4.07 6.98c1.89.55 3.77.57 5.42.34M798.68 340.76s-2.34 1.53-4.76.4c-1.25-.58-2.24-3.27.57-5.4 2.64-2.02 8.85-3.6 14.92-.9 0 0-4.76-3.86-.65-7.9s10.9-2.98 10.9-2.98M859.18 344.3s5.72 2.5 4.92 6.62-8.47 6.86-8.47 6.86 10.3 1.37 10.4 6.61-8.06 8.1-8.06 8.1M703 263.97l-.38 12.77M704.75 203.29l-1.41 47.18"/><path class="cls-2" d="m843.76 298.52 72.79-5.71 52.79 3.27M698.36 308.34l98.08-6.96M499.52 126.85l77.12-16.12"/><path class="cls-3" d="m565.06 369.21 1.35-47.48-46.79-1.28"/><path class="cls-2" d="m862.78 422.19 45.64-2.76"/><path class="cls-3" d="m481.37 323.34-1.73 80.24 34.79 4.91M516.75 391.17l-.58 14.28M517.46 408.49l46.64-5.63.57-19.82"/><path class="cls-2" d="M380.54 185.73 22.01 255.87M377.58 219.27l-359.9 62.19"/></g><g id="error_triangle" data-name="error triangle"><path class="cls-7" d="m560.04 114.2-31.7 6.63-10.58.41-6.75.26a2.2 2.2 0 0 1-1.88-3.47l32.44-45.6a1.86 1.86 0 0 1 3.26.44l11.34 30.82 3.87 10.51Z"/><path fill="#ce8d1b" d="m511.01 121.5 45.16-17.81 3.87 10.51-31.71 6.63-17.32.67z"/><path class="cls-14" d="m488.77 125.1-.44-.38h-3.56l-2.98 5.75s1.13.58 2.19.97l1.32-1.61 3.16-.66-.13 1.7h3.15l1.05-8.33-3.54-.32-.22 2.88ZM492.53 122.54v7.93h2.69l.72-9.2-3.41.24v1.03z"/><path class="cls-14" d="m506.88 125.31-.72-4.21h-6.36c-.39-.06-3.86.17-3.86.17l.46 8.35 3.01-.46.11-2.3 7.36-1.54Z"/><path class="cls-14" d="m519.44 103.56-15.36 10.33 2.08 7.2h-7.97l.62-9.21a.93.93 0 0 1 .52-.78l18.26-8.88 4.3-2.1-2.45 3.44ZM580.93 103.22l-3.13 1.02-7.16 2.11-8.93 5.92-8.48-16.6 6.81 18.53 5.97-1.25 3.84-.8 6.8-1.42c.19-.04.2 3.23.2 3.23l2.3-.32h3l.12-.83H585l.39-1.47h2.39l1.28-1.75v-5.35l-8.13-1.02Z"/><path class="cls-1" d="m536.55 107.28 1.82-22.12h6.19l-5.64 22.12h-2.37zM536.85 110.13c3.09-.87 4.1 1.82 2.98 3.51-1.35 2.04-4.74 2.26-5.45.32-.5-1.37.58-3.3 2.47-3.83Z"/><path class="cls-2" d="m485.3 129.83 3.16-.66M528.33 120.83l-17.31.68a2.2 2.2 0 0 1-1.88-3.48l32.43-45.6a1.86 1.86 0 0 1 3.27.44l15.2 41.33-31.71 6.63ZM488.33 124.72h-3.56l-2.98 5.75s1.13.58 2.19.97l1.32-1.61M485.3 129.83l1.19-1.45M492.53 122.54l-3.54-.32-.66 8.64h3.15l1.05-8.32zM495.94 121.27l-3.41.24v8.96h2.69l.72-9.2zM499.8 121.1c-.39-.06-3.86.17-3.86.17l.46 8.35 3.01-.46.26-5.25"/><path class="cls-2" d="m503.87 122.22-4.07 1.7-.28 2.93 7.36-1.53-.72-4.22h-6.36M569.85 112.15l-3.84.8-.42-3.27 3.9-.96 1.15-2.37 7.16-2.1s1.6 3.4 1.86 4.35c.25.95-.52 5.04-.52 5.04l-2.3.32s0-3.27-.2-3.23l-6.79 1.42Z"/><path class="cls-2" d="m576.64 110.73-1.14-2.27-3.57 3.25M577.8 104.24l3.13-1.02s1.6 3.77 1.8 4.6-.58 5.82-.58 5.82h-3M580.93 103.22l8.13 1.02v5.35l-1.28 1.75h-2.39"/><path class="cls-2" d="m585 103.73.86 5.86-.86 3.22h-2.73M536.55 107.28l1.82-22.12h6.19l-5.64 22.12h-2.37zM536.85 110.13c3.09-.87 4.1 1.82 2.98 3.51-1.35 2.04-4.74 2.26-5.45.32-.5-1.37.58-3.3 2.47-3.83ZM517.6 102.22l-18.27 8.88c-.3.15-.5.45-.52.78l-.62 9.21"/><path class="cls-2" d="m506.16 121.1-2.08-7.21 15.36-10.33M553.23 95.68l8.48 16.59 2.4-1.59"/></g><g id="sentry_character" data-name="sentry character"><path class="cls-14" d="m536.1 368.69 39.87.72 29.75-35.35 1.48-1.8 4.34-.59-1.17 7.5-26.57 40.95a4.15 4.15 0 0 1-3.2 1.87l-61.9 4.09c-4.8 5.29-20.15 17.93-23.23 17.03-3.11-.9-1.35-10.31 2.38-19.07 3.74-8.77 6.61-12.82 9.7-16.86 1.76-2.32 3.4-3.4 4.68-3.9 1.25 1 2.5.76 3.28.42 2.28 1.47 6.77 4.74 6.77 4.74"/><path class="cls-6" d="m691.99 328.93-9.44.58-4.3.27-7.47.46-3.18 12.73-.34 7.3 5.47 3.88 13.23.23 3.95-.79 7.42-16.72-5.34-7.94z"/><path class="cls-14" d="m630.73 382.84 5.76-17.52 10.07 3.44-3.85 19.86a5.38 5.38 0 0 1-1.43 2.73l-42.23 43.4s-7.25 25.42-8.46 28.36c-2.5 6.12-4.92 7.13-7.73 3.01-2.84-4.16-7.17-18.18-5.22-35.47a2.9 2.9 0 0 1 .99-1.85l49.69-43.05 1.94-1.72.47-1.2Z"/><path class="cls-7" d="M508.63 362.03s-2.71 2.39-5.59 1.6-4.79-7.67-4.79-7.67l-9.26-3.03 4.63-1.28-20.11-7.03 22.35 3.04-5.43-3.52 14.05 1.44s2.72-3.35 5.9-3.2 3.84 2.56 3.84 2.56-4.22 3.02-5.3 8.14-.29 8.95-.29 8.95Z"/><path class="cls-6" d="m546.2 368.87-10.1-.14-2.49-5.5c6 .14 11.56-.15 11.84-1.6.62-3.23-23.46-11.42-23.46-11.42s-.15-.04-.4-.07c-.16-.98-.35-1.53-.35-1.53s-1.1-3.56-5.02-1.98c-2.38.97-4 3.02-5.16 6.26-1.45 4.06-.8 8.8 1.17 10.39 2.06 1.65 4.12-.07 4.12-.07s.57-.44 1.32-1.18c.34.22.61.29.61.29s4.88.46 10.5.74l2.37 5.6-1.02-.01s-2.98 1.2-4.12 6.84 1.54 10 1.54 10l17.02-1.12s-2.15-3.46-1.62-8.72c.53-5.27 3.24-6.78 3.24-6.78Z"/><path class="cls-14" d="m691.67 363.62 1.14 2.28-5.25 5.03h-13.23l11.52 5.58-2.51 2.97s-4-1.49-5.82-1.8-4.79 0-4.79 0l-61.45-20.96c-2-.68-3.22-2.7-2.9-4.78l10.4-66.69 3.07 2.28-2.5 56.93 40.03 10.6.46-6.16 2.62-2.62 2.17-3.3h2.97l-.46 2.62.12 4.67 5.47 3.88 13.23.23 7.42-1.48.45 3.99-1.7 1.14"/><path class="cls-6" d="M663.77 244.14s5.86-10.57 9-15.85 8.82-12.83 11.32-12.31 2.44 10.28 2.03 15.44-1.62 15.91-1.62 15.91l-.09.56 1.36.6s14.4 6.4 20.79 9.47c6.39 3.08 8.53 6.44-12.37 2.81s-29.1-8.61-30.95-10.3c-2.32-2.13-.87-3.95-.87-3.95l1.4-2.38Z"/><path class="cls-7" d="M581.39 463.33c-1-2.3-2.02-5.5-2.8-9.37l-10.38 12.01 4.18-.82-11.24 12.74 20.24-14.56ZM598.7 436.01a2096.1 2096.1 0 0 1-5.07 17.41l2.47.76s8.59 2.54 12.07-1.64c2.68-3.23.89-7.68.89-7.68-8.54-2.35-10.37-8.85-10.37-8.85Z"/><path class="cls-6" d="M630.37 415.18c-2.67-1.71-17.54 7.82-17.54 7.82l-1.82 1.05-1.3-.24 4.5-4.64s-5.06-.31-7.88-5.22-1.14-8.16-1.14-8.16l-12.1 10.48s-1.85 3.32.85 8.97c2.7 5.64 8.43 6.1 8.43 6.1l-1 1.02s-.99 1.14.49 4.07c2.7 5.34 7.74 6.85 9.28 6.72s2.37-5.08 2.37-5.08l.7-1.1s4.51-4.28 8.55-9.04c4.75-5.58 9.05-11.82 7.61-12.75Z"/><path class="cls-14" d="m648.72 328.17-7.29 22.14 8.28 2.19 4.85-24.99-5.84.66z"/><path class="cls-14" d="M664.56 285.81c-2.34-8.22-4.72-13.86-4.72-13.86l8.25-7.98-3.53 21.84Zm31.1 39.6-3.48-15.09-1.09-4.69-11.06-47.97c-10.67-2.95-15.44-5.96-16.79-7.19l-19.49 8.43.01.02c.14.57 3.03 11.97 1.6 30.1l-.02-.02c-.17-.35-2.89-6-4.44-8.54l-8.33-16.2-24.86 9.7s3.17 12.07 3.94 25.2l-6.9-16.26-5.7-5.86-17.32 6.25a2.75 2.75 0 0 0-1.65 3.53l14.51 40.07c.73 2.03 2.07 4.3 3.38 5.24.78.56 1.86.9 3.32.73l10.25-1.19 8.41-.98 14.11-1.64s.45-10.95-6.28-21.33l3.3-3.25 11.76 24.36 27.38-3.08s-.2-5.32-.82-12.24l7.55 12.7 18.71-.8Z"/><path class="cls-12" d="m676.27 316.4 7.62-.35-11.73-56-4.07 3.92-3.52 21.83c.77 2.73 1.55 5.74 2.23 8.92a164.58 164.58 0 0 1 2.6 18.8l7.55 12.68-.68-9.8ZM642.84 328.83l-11.76-24.36 6.3-6.2s5.72 12.58 5.46 30.56ZM660.98 319.24l-10.38 1.26c.11-20.53-5.25-31.48-5.25-31.48 1.44-18.13-1.45-29.53-1.59-30.1.32.58 8.07 14.8 12.31 29.64 4.34 15.17 4.91 30.68 4.91 30.68ZM599.04 277.04l14.97 38.82 2.7-17.37-9-24.53 3.94 25.19-6.91-16.25-5.7-5.86zM613.39 319.79l-.86 5.53-4.2.4 5.06-5.93zM620.76 312.34a44.18 44.18 0 0 1 5.62 11.94l-6.17.58.55-12.52Z"/><path class="cls-4" d="m653.99 330.46-6.39 1.09 1.12-3.38 5.84-.66-.57 2.95zM605.72 334.06l1.48-1.79 4.34-.6-.46 3.11-6.64.8 1.28-1.52z"/><path class="cls-6" d="M695.43 304.68a262.78 262.78 0 0 0-15.2 30.13c-.49.8-2.2.53-3-.49-.82-1-.28-1.96-.28-1.96s8.95-18.08 16.88-31.45c0 0-1.2-2.8.75-4.67 1.55-1.48 4.6-1.05 6.28.89 2.02 2.33.62 5.53-1.01 6.24-1.8.79-3.4-.16-3.4-.16l-1.02 1.47ZM682.17 374.73l1.65-3.8h-9.49l7.84 3.8zM656.59 372.18l-.86 2.02 2.37 6.76 22.52-2.43c-1.1-.36-2.3-.71-3.1-.85-1.82-.3-4.79 0-4.79 0l-16.14-5.5Z"/><path class="cls-14" d="m693.4 315.63 15.76 30.56a5.5 5.5 0 0 0 2.67 2.51c8.37 3.7 43.7 19.25 47.78 20.5 4.63 1.43 5.84 1.29 7.62-.14s11.03-11.46 11.03-11.46c.93.21 7.05.57 7.05.57v-3.49l-2.28-.57v-1.14c-2.95-.93-8.17-3.01-10.05-3.77a1.89 1.89 0 0 0-1.4 0l-9.34 3.7-47.99-14.8-19.67-31.97-2.4 4.2 1.22 5.3ZM689.2 297.39l3.43 5.57-1.54 2.67-1.89-8.24z"/><path class="cls-4" d="M680.03 257.66c-10.67-2.95-15.44-5.96-16.79-7.19l-1.7.74s7.07 6.45 19.26 9.8l-.77-3.35Z"/><path class="cls-2" d="M514.22 344.94s-.64-2.4-3.83-2.55-5.9 3.2-5.9 3.2l-14.06-1.45 5.43 3.52-22.35-3.04 20.11 7.03-4.63 1.28 9.26 3.03s1.92 6.86 4.8 7.66 5.58-1.6 5.58-1.6"/><path class="cls-2" d="M521.24 348.61s-1.1-3.56-5.02-1.98c-2.38.97-4 3.02-5.16 6.26-1.45 4.06-.8 8.8 1.17 10.39 2.06 1.65 4.12-.07 4.12-.07"/><path class="cls-2" d="M522 350.21s-1.03-.3-2.22.25c-1.3.6-2.8 2.07-3.37 4.54-.56 2.49-.39 4.65.23 5.86.62 1.22 1.64 1.46 1.64 1.46s26.55 2.54 27.17-.7-23.46-11.4-23.46-11.4Z"/><path class="cls-2" d="M533.61 363.24c-1.6-.04-3.24-.1-4.83-.18l4.59 10.84s.67.9 2.54.22c1.87-.67 1.65-2.17 1.65-2.17l-3.95-8.71ZM531.16 368.68l-8.63-.24M607.2 332.27l-31.23 37.14-39.88-.72"/><path class="cls-2" d="M512.23 363.28c-1.28.5-2.92 1.58-4.69 3.9-3.08 4.04-5.95 8.09-9.69 16.86-3.73 8.76-5.5 18.16-2.38 19.07 3.08.9 18.43-11.74 23.22-17.03l61.91-4.1a4.15 4.15 0 0 0 3.2-1.86l26.57-40.95"/><path class="cls-2" d="M522.28 368.44s-4.5-3.28-6.77-4.74M546.2 368.87s-2.72 1.51-3.25 6.78 1.62 8.72 1.62 8.72M530.13 368.65s-2.98 1.2-4.12 6.84a14.9 14.9 0 0 0 1.54 10M646.56 368.76l-3.85 19.86a5.38 5.38 0 0 1-1.43 2.73l-42.23 43.4s-7.25 25.42-8.46 28.36c-2.5 6.12-4.92 7.13-7.73 3.01-2.84-4.16-7.17-18.18-5.22-35.47a2.9 2.9 0 0 1 .99-1.85l49.69-43.05M654.56 327.51l-4.85 24.99M641.43 350.31l7.29-22.14M630.73 382.84l5.76-17.52"/><path class="cls-2" d="M605.19 405.79s-1.68 3.25 1.14 8.16a10.52 10.52 0 0 0 7.88 5.22M593.09 416.27s-1.85 3.32.85 8.97c2.7 5.64 8.43 6.1 8.43 6.1M606.23 427.37l7 1.45s2.04.11 2.63-1.45c.74-1.9-.9-2.6-.9-2.6l-5.26-.96"/><path class="cls-2" d="M606.23 430.33s.11 2.37 2.28 4.46c2.63 2.53 5.7 2.19 5.7 2.19s4.51-4.3 8.55-9.05c4.75-5.58 9.05-11.82 7.61-12.75-2.67-1.71-17.54 7.82-17.54 7.82M613.51 438.07s-.83 4.94-2.37 5.08-6.88-1.24-9.28-6.72M609.06 444.86s1.79 4.45-.9 7.68c-3.47 4.18-12.06 1.64-12.06 1.64M581.39 463.33l-20.24 14.56 11.24-12.74-4.18.82 10.38-12.01M663.24 250.47l-19.49 8.43s3.09 11.52 1.6 30.12c0 0-2.85-5.94-4.45-8.56l-8.32-16.2-24.87 9.7s3.17 12.07 3.94 25.2l-6.9-16.26-5.71-5.86-17.3 6.25a2.76 2.76 0 0 0-1.66 3.53l14.51 40.07M691.1 305.63l-11.07-47.97M684.23 325.89l11.43-.48-3.48-15.09"/><path class="cls-2" d="m619.95 330.7 14.11-1.64s.46-10.96-6.27-21.34l9.58-9.46s5.73 12.6 5.47 30.57l27.38-3.08s-.68-18.25-3.42-31.03a141.18 141.18 0 0 0-6.96-22.77l12.32-11.9 11.73 56-7.62.34.68 9.81 3.18-.13M601.29 332.86l10.25-1.19M599.04 277.04l13.12 33.76-14.2 15.57c-2.42 2.66-1.32 7.02 3.33 6.49"/><path class="cls-2" d="m618.77 285.25-10.38 66.69c-.33 2.08.9 4.1 2.89 4.78l61.45 20.96s2.97-.3 4.8 0 5.81 1.8 5.81 1.8l2.51-2.97-11.52-5.58h13.23l5.25-5.03-1.14-2.28"/><path class="cls-2" d="M675.7 366.02h11.63l7.08-5.02-2.29-2.97-6.04 2.74-10.95.11M692.12 358.03l1.71-1.14-.45-3.99-7.42 1.48-13.23-.23-5.47-3.88-.12-4.67.46-2.63h-2.97l-2.17 3.31-2.62 2.62-.46 6.16-40.03-10.6 2.5-56.93"/><path class="cls-2" d="M645.35 289.02s5.37 10.95 5.25 31.48l10.38-1.25s-.57-15.52-4.9-30.69-12.33-29.66-12.33-29.66M650.03 271.95l17.74-18.7M640.9 280.46l-19.64 20.66M607.71 273.96l9 24.53M612.16 310.8l1.85 5.06-.62 3.93-5.06 5.93 4.2-.4M620.2 324.86l6.18-.58s-1.7-6.27-5.62-11.94M642.84 328.83l-11.76-24.36M676.95 326.2l-7.54-12.69M664.57 285.81l3.53-21.84M695.43 304.68a262.78 262.78 0 0 0-15.2 30.13c-.49.8-2.2.53-3-.49-.82-1-.28-1.96-.28-1.96s8.95-18.08 16.88-31.45c0 0-1.2-2.8.75-4.67 1.55-1.48 4.6-1.05 6.28.89 2.02 2.33.62 5.53-1.01 6.24-1.8.79-3.4-.16-3.4-.16M692.41 283.58l2.46 8.65M704.75 280.15l-4.26 12.27M705.67 295.69l7.67-3M705.86 301.38l6.21 1.26"/><path class="cls-2" d="m682.55 329.51 9.44-.58 5.34 7.94-7.42 16.72M667.6 342.97l3.18-12.73 7.47-.46M656.59 372.18l-.86 2.02 2.37 6.76 22.52-2.43M683.82 370.93l-1.65 3.8M658.1 380.96l3.1-7.21"/><path class="cls-2" d="m671.71 332.36 3.11 6.43 22.51-1.92M674.82 338.79l-4.92 13.36M662.37 246.52s-1.45 1.82.87 3.95c1.85 1.69 10.05 6.67 30.95 10.3s18.76.27 12.37-2.81a1067.1 1067.1 0 0 0-20.79-9.47s-1.91 4.88-14.86 2.27M663.77 244.14s5.86-10.57 9-15.85 8.82-12.83 11.32-12.31 2.44 10.28 2.03 15.44-1.62 15.91-1.62 15.91"/><ellipse cx="693.74" cy="339.78" rx=".97" ry=".69" transform="rotate(-38.55 693.74 339.78)"/><ellipse cx="676.7" cy="340.93" rx=".97" ry=".69" transform="rotate(-38.55 676.7 340.93)"/><ellipse class="cls-2" cx="689.57" cy="333.2" rx="1.95" ry="2.74" transform="rotate(-68.6 689.57 333.2)"/><path class="cls-2" d="m694.58 306.13 19.67 31.96 48 14.81 9.32-3.7c.46-.18.96-.19 1.41 0 1.88.76 7.1 2.85 10.05 3.77v1.14l2.28.57v3.49s-6.12-.36-7.05-.57c0 0-9.25 10.04-11.03 11.46s-3 1.57-7.62.15c-4.08-1.26-39.4-16.81-47.78-20.5a5.5 5.5 0 0 1-2.67-2.52l-15.76-30.56M689.2 297.39l3.43 5.57"/><path class="cls-2" d="m783.03 354.11-5.7-1.58c-.43-.12-.89-.06-1.27.17l-5.77 3.4"/></g></svg>