<?xml version="1.0" encoding="UTF-8"?>
<svg xmlns="http://www.w3.org/2000/svg" width="1059.5329" height="525.5604" viewBox="0 0 1059.5329 525.5604">
  <defs>
    <style>
      .cls-1, .cls-2, .cls-3 {
        stroke-linecap: round;
        stroke-linejoin: round;
      }

      .cls-1, .cls-3 {
        stroke: #000;
      }

      .cls-1, .cls-4 {
        fill: #241d2a;
      }

      .cls-2 {
        stroke: #241d2a;
      }

      .cls-2, .cls-3 {
        fill: none;
      }

      .cls-5 {
        fill: #f6f6f8;
      }

      .cls-6 {
        fill: #f58452;
      }

      .cls-7 {
        fill: #ebb432;
      }

      .cls-8 {
        fill: #e7e1ec;
      }

      .cls-9 {
        fill: #ffbea5;
      }

      .cls-10 {
        fill: #ffadb2;
      }

      .cls-11 {
        fill: #917ec1;
      }

      .cls-12 {
        fill: #8d5494;
      }

      .cls-13 {
        fill: #ce8d1b;
      }

      .cls-14 {
        fill: #ad6caa;
      }

      .cls-15 {
        fill: #b39ed3;
      }

      .cls-16 {
        fill: #ccbddb;
      }

      .cls-17 {
        fill: #e1557a;
      }
    </style>
  </defs>
  <g id="bg">
    <polygon class="cls-10" points="1059.5329 392.9082 763.9097 525.5604 0 261.0016 16.4231 176.3901 1002.6052 0 1059.5329 392.9082"/>
  </g>
  <g id="flame-chart">
    <g>
      <polygon class="cls-9" points="481.3708 323.3386 433.5789 326.9426 431.8425 362.7156 480.5206 362.6331 481.3708 323.3386 481.3708 323.3386"/>
      <path class="cls-17" d="m763.9097,352.2386l-2.1748-10.1602c-.1167-.545-.4175-1.0296-.8532-1.3772-2.0246-1.6151-7.1219-5.4256-7.1219-5.4256,1.8-5.8006,4.2751-13.8498,4.2751-13.8498l.0444-.1839c.263-1.0895-.6082-2.1207-1.7263-2.0435l-1.8431.1273c-9.1882.9571-22.7733,4.0855-26.624,4.9981-.5964.1413-.9858.7142-.8995,1.321l2.4356,17.1276,6.1553,1.8996-2.1428-14.5461,15.2253-3.3751,2.2471-.4413-.5221,2.1664-2.2378,8.0698c-.1412.5091.0645,1.0508.5079,1.338l5.8551,3.7925,1.1842.927.1659,1.098.9241,7.5153,5.4582,1.6844,1.6676-.6623Z"/>
      <polygon class="cls-6" points="477.8304 323.6056 481.3708 323.3386 480.5206 362.6331 476.0257 362.6407 477.8304 323.6056"/>
      <path class="cls-8" d="m908.4236,419.4313l-45.64,2.7599-38.58,1-.08,6.59-6.5901.56-74.53-2.23.5601-62.1v-8.53l41.75.69,33.37-.01h6.33l-.1799,14.77,33.1599-.39-.03-.06s2.8601-1,5.1702-2.9v-7.86h1.2699l.0699-.47c.1702.15.3201.31.4601.47h42.98l.51,57.71Z"/>
      <path class="cls-8" d="m893.7523,260.0964c-.7285-6.9816-11.7777-6.4959-11.7777-6.4959,3.2783-1.5178,8.1957-4.8568,7.5887-7.5225-.6072-2.6657-6.7388-2.4339-6.7388-2.4339l-4.3615,27.9575c10.093-2.0334,15.9097-5.5583,15.2892-11.5052Z"/>
      <polygon class="cls-15" points="898.7644 231.6844 916.8807 229.3242 967.2534 235.2397 969.3374 296.0765 916.5502 292.8101 843.7639 298.5162 796.4389 301.3836 701.3284 308.1284 704.0507 254.0083 840.8023 238.1478 898.7644 231.6844"/>
      <path class="cls-16" d="m908.4236,419.4313l-45.64,2.7599-38.58,1-.08,6.59-6.5901.56,1-71.95s.05-.08.15-.23h6.33l-.1799,14.77,33.1599-.39-.03-.06s2.8601-1,5.1702-2.9v-7.86h1.2699l.0699-.47c.1702.15.3201.31.4601.47h42.98l.51,57.71Z"/>
      <polyline class="cls-15" points="521.5085 274.902 523.1122 229.6679 704.7474 203.2911 703.3447 254.0892 521.5085 274.902"/>
      <polyline class="cls-8" points="591.8799 319.7851 566.4072 321.726 519.6231 320.454 521.5085 274.902 703.3447 254.0892 701.1714 312.3371 591.8799 319.7851"/>
      <polygon class="cls-8" points="515.8848 408.6916 564.1023 402.8556 566.4072 321.726 519.6231 320.454 481.3708 323.3386 479.6351 403.5775 515.8848 408.6916"/>
      <polygon class="cls-16" points="519.6231 320.454 566.4072 321.726 701.1714 312.3371 701.3284 308.1284 519.6231 320.454"/>
      <polygon class="cls-16" points="566.4072 321.726 519.6231 320.454 515.8848 408.6916 564.1023 402.8556 566.4072 321.726"/>
      <polygon class="cls-15" points="377.5824 219.2698 917.1479 126.0387 964.0957 143.0589 962.5769 98.721 917.4583 80.7661 380.5363 185.7285 377.5824 219.2698"/>
      <polygon class="cls-15" points="17.681 281.4569 377.5824 219.2698 380.5363 185.7285 22.0136 255.8744 17.681 281.4569"/>
      <polygon class="cls-8" points="917.4583 39.4558 961.3512 59.4771 962.5769 98.721 917.3104 80.7072 380.5363 185.7285 383.5828 151.1359 385.3524 150.7283 917.4583 39.4558"/>
      <path class="cls-8" d="m420.0817,291.4192c-.9138-11.6804,9.8694-17.6203,9.8694-17.6203,0,0-.2812-5.5373,5.4829-10.3262,2.3052-1.9151,5.2759-3.1376,8.0619-3.6263l1.1061-18.7773-69.8325,10.141-3.663,41.5928,36.5775,3.8502,13.2585-1.3259c-.4415-1.1391-.7456-2.4339-.8608-3.908Z"/>
      <path class="cls-5" d="m435.0229,305.1433s-3.9753,1.6449-4.5236,5.2088c-.6328,4.1133,2.376,5.1174,2.376,5.1174,0,0,1.1203.4286,2.1475.5588-1.4067.6632-3.1803,2.051-3.1803,4.8328,0,4.5691,6.4085,5.7292,6.4085,5.7292l11.2906-.8514s2.4365-.7809,3.3846-3.4821c.5109-1.4556.416-4.3352-2.8546-4.8175-.4494-.0663-.876-.0853-1.2765-.0561-.1684-1.5584-1.93-1.6379-1.93-1.6379,1.0541-.2867,3.8397-1.3502,5.1947-4.2119,1.1768-2.4856-.5901-4.1745-.5901-4.1745-.7217-.6844-1.805-1.2609-1.805-1.2609,6.3799-2.4689,4.5942-5.8894,4.5942-5.8894,5.9399-2.8329,9.1801-7.2601,8.0941-11.2646-.968-3.5695-5.444-2.4396-5.444-2.4396,4.3864-3.378,11.4939-13.3507,7.275-18.7731-4.0173-5.1632-13.9459,1.2244-13.9459,1.2244,0,0,3.6553-5.2127.6397-7.9541-2.8141-2.5582-10.602-1.5514-15.4437,2.4712-5.7641,4.789-5.483,10.3262-5.483,10.3262,0,0-10.7832,5.9399-9.8693,17.6203.9138,11.6804,13.616,12.1705,13.616,12.1705.1898,1.2436,1.3252,1.5535,1.3252,1.5535Z"/>
      <polygon class="cls-5" points="745.2224 456.0771 751.1296 451.3783 749.5185 441.4435 756.1641 448.7603 765.4275 445.8068 757.8422 452.5866 761.2657 464.8036 752.8077 454.5332 745.2224 456.0771"/>
      <polygon class="cls-5" points="880.6563 384.55 885.1652 380.1681 882.4614 371.2138 889.3566 378.4535 895.7071 376.6753 890.8172 381.3112 892.8494 388.2969 887.0069 382.7084 880.6563 384.55"/>
      <path class="cls-5" d="m882.8245,243.6442s6.1317-.2318,6.7387,2.4339-4.3104,6.0047-7.5887,7.5224c0,0,11.0491-.4857,11.7776,6.4959.8341,7.9932-9.9548,11.6131-27.1371,13.1132-4.1584.3631-10.2732,0-10.2732,0,1.4559.4213,3.2309,1.0928,3.2309,1.0928,0,0,6.5263,2.2462,5.3424,8.8029-1.3272,7.3504-10.6242,14.5703-35.4847,18.4557,0,0,13.9025,2.1855,16.8165,8.8621,2.3962,5.4901-2.316,8.3078-2.316,8.3078,0,0,7.3696,3.8069,8.85,9.1158s1.7356,14.9059,1.7356,14.9059c0,0,1.7867.4084,4.6596,1.5532,0,0,5.727,2.5005,4.9204,6.6143s-8.4695,6.8562-8.4695,6.8562c0,0,10.3104,1.3712,10.3982,6.6143s-8.059,8.095-8.059,8.095l-33.1351.4452.1842-14.7646-39.7045.0035v-3.4888l-2.2784-.5696v-1.1392c-2.9493-.927-8.1713-3.0136-10.0519-3.7742-.4528-.1831-.9545-.1829-1.4084-.0026l-4.2765,1.6985s-.1496-.6334-.6392-3.435c0,0-1.1551-7.8112,5.1337-13.5866s14.5026-2.3102,14.5026-2.3102c0,0,1.7353.5503,5.3649,2.8129l-3.4398-3.3263s-2.4385-2.0535-1.4118-4.7487c1.0466-2.7474,4.3659-3.3933,6.715-3.2521,0,0-3.4607-3.4563-3.1571-10.4986.2864-6.6449,5.9966-12.6953,12.2838-14.479,0,0-1.1981-.4507-1.59-1.3851-.4797-1.1438-.0089-2.288-.0089-2.288-6.9816,0-12.5669-4.9175-13.6596-9.2278s-.4857-10.0778,6.1317-15.3595,14.631-4.4318,14.631-4.4318c3.0992.2676,6.0412,1.1563,6.0412,1.1563.25-1.6954,1.161-5.5489,4.4009-7.9557,4.2497-3.1569,9.4707-1.0928,11.8991.9714,0,0-.4248-1.1443.1899-2.0322s2.1032-.804,2.1032-.804c-2.5082-1.5641-4.9941-4.7531-4.3573-11.2484,1.2142-12.3847,14.3389-18.0204,22.5232-18.5164,10.0171-.6071,18.0307,4.0068,18.0307,4.0068,0,0-.7471-1.1306-.7949-1.8954s.3699-1.3829.3699-1.3829c0,0-4.7202-1.3191-3.764-5.3424.7285-3.0653,6.4425-2.1019,6.4425-2.1019-1.4818-.9863-3.4735-3.1153-3.4478-7.4295.0387-6.4981,12.1877-12.6694,26.4721-10.5165,0,0,.932-1.1395,1.7987-1.6981,0,0,7.2788-5.5202,10.5634-1.5057,1.366,1.6695.6147,4.6519-1.3356,6.7995-1.1736,1.2924-2.7813,2.2818-4.4711,3.1168,1.665.3929,3.4202,1.0041,5.1996,1.9221,7.6494,3.9461,7.2882,11.3658,2.5498,17.3629-3.8854,4.9175-15.4202,9.7742-23.0089,10.6849"/>
      <polygon class="cls-9" points="965.4705 183.1925 917.4583 172.4015 374.7694 251.2101 377.5824 219.2698 917.1479 126.0387 964.0957 143.0589 965.4705 183.1925"/>
      <polygon class="cls-9" points="786.1354 429.4013 784.5698 476.8216 784.5698 477.5812 787.2513 477.8271 862.2015 485.5364 908.9233 476.1512 908.4249 419.4343 862.7795 422.1865 824.204 423.1888 824.1216 429.784 817.5297 430.3426 786.1354 429.4013"/>
      <polygon class="cls-15" points="698.1017 416.5764 699.8545 363.6401 717.765 363.2642 724.7293 363.1181 737.0853 362.8588 743.5656 362.9884 743.0069 419.749 722.0611 419.4343 710.9922 419.1708 698.1017 418.8945 698.1017 416.5764"/>
      <path class="cls-17" d="m715.6977,435.2628l16.0091,5.8055,1.4074,12.3147s4.0463,1.0555,7.2129-.5278c0,0-1.2969-9.7265-2.6457-16.4192-.103-.5108-.4767-.9166-.9747-1.07-2.821-.8688-12.252-3.7567-15.3795-4.5013l-8.2684-29.0275,2.1111-1.5833,21.4628-16.7128.8566-.6837-1.9121-1.9551s-8.9721-9.324-13.5462-14.2499l7.6099-10.1312-5.7585-2.5194-1.8213,2.7989-7.3741,11.0948c-.3336.5019-.2692,1.1689.1541,1.5978l13.1714,13.345-22.0213,16.2958c-.4817.3565-.693.9736-.5308,1.5505l8.83,31.4118.7654,2.8993.642.2673Z"/>
      <path class="cls-7" d="m821.0728,358.1666l1.6661-6.6825,17.3484-.0481c.8792-.0024,1.6963-.4539,2.1662-1.1971l1.8907-2.99c.3091-.4888.3663-1.0946.1563-1.6335-2.7182-6.9746-5.2089-14.2448-5.2089-14.2448l3.1056-4.4643c.232-.3335.6631-.4635,1.0407-.3137l7.4528,2.9543,1.789,12.0592c.1034.6968.7072,1.2091,1.4116,1.1975l12.0461-.1986c.2189-3.2098,0-6.3467,0-6.3467l-8.4623.4377-1.8586-14.6021c-.1091-.8568-.7744-1.5368-1.6278-1.6699-7.0359-1.0976-11.9394-2.0304-14.0693-2.4531-.7321-.1453-1.4702.1773-1.8645.811-2.3392,3.7592-5.0003,8.9314-5.9981,10.9043-.2619.5179-.304,1.112-.111,1.6593,2.1658,6.1436,5.7598,14.3964,5.7598,14.3964l-17.7256.4047c-.8661.0198-1.6261.5826-1.8975,1.4053l-3.5022,10.6143,6.4926.0003Z"/>
      <path class="cls-6" d="m853.9205,393.7583l5.779,11.812,14.2253-1.7147,1.5876-9.6013,6.2235.8375-2.7372,13.1617c-.1477.7104-.7349,1.2457-1.456,1.3272l-19.714,2.2285c-.5995.0678-1.1823-.226-1.4843-.7483l-5.5993-9.6821-13.9345,1.916c-.7438.1023-1.4442-.3674-1.6264-1.0958-.8182-3.2716-3.0248-12.1281-4.4515-18.1713-.1677-.7105.3143-1.4051,1.0376-1.5043l11.1636-1.5299,4.9534-8.5081-3.9032-5.2726-5.1143,5.5547-9.3355.1085,13.7907-13.6886c.9211-.9142,2.4599-.6995,3.0955.4319l7.6447,13.6075c.3778.6724.3398,1.5012-.0978,2.1363l-6.4612,9.3773-9.8434,1.4606,2.2862,9.3988,11.431-2.7942,1.821-.455.7192,1.4076Z"/>
      <path class="cls-16" d="m371.1064,292.8028l49.1706-5.6838s-1.0106,4.6064.6655,8.2082l-13.2585,1.3259-36.5775-3.8502Z"/>
      <polygon class="cls-6" points="862.7795 422.1865 862.2015 485.5364 908.9233 476.1512 908.4249 419.4343 862.7795 422.1865"/>
      <polygon class="cls-6" points="785.4098 451.3783 862.2015 455.6991 862.7795 422.1865 824.204 423.1888 824.1216 429.784 817.5297 430.3426 786.1354 429.4013 785.4098 451.3783"/>
      <polygon class="cls-6" points="917.1479 126.0387 917.4583 172.4015 965.4705 183.1925 964.0957 143.0589 917.1479 126.0387"/>
      <polygon class="cls-17" points="916.8807 229.3242 917.4583 172.4015 965.4705 183.1925 967.2534 235.2397 916.8807 229.3242"/>
      <polygon class="cls-11" points="916.8807 229.3242 916.5502 292.8101 969.3374 296.0765 967.2534 235.2397 916.8807 229.3242"/>
      <polygon class="cls-17" points="916.3032 361.7225 916.5502 292.8101 969.3374 296.0765 971.3619 361.7225 916.3032 361.7225"/>
      <polygon class="cls-11" points="917.3104 80.7072 917.1479 126.0387 964.0957 143.0589 962.5769 98.721 917.3104 80.7072"/>
      <polygon class="cls-16" points="917.4583 39.4558 917.3104 80.7072 962.5769 98.721 961.3512 59.4771 917.4583 39.4558"/>
      <polygon class="cls-8" points="380.5363 185.7285 22.0136 255.8744 27.0976 225.8548 383.5828 151.1359 380.5363 185.7285"/>
      <polygon class="cls-9" points="373.4969 265.659 377.5824 219.2698 17.681 281.4569 13.9339 303.5827 64.3629 306.0154 373.4969 265.659"/>
      <polygon class="cls-6" points="373.4969 265.659 374.7694 251.2101 13.9339 303.5827 64.3629 306.0154 373.4969 265.659"/>
      <line class="cls-2" x1="27.8082" y1="225.7058" x2="385.3524" y2="150.7283"/>
      <polyline class="cls-2" points="374.7694 251.2101 13.9339 303.5827 26.4962 229.4064"/>
      <polyline class="cls-2" points="13.9339 303.5827 64.3629 306.0154 370.2113 266.088"/>
      <line class="cls-2" x1="961.3512" y1="62.9423" x2="971.3619" y2="355.177"/>
      <polyline class="cls-2" points="589.0559 108.1304 917.4583 39.4558 961.3512 59.4771"/>
      <line class="cls-2" x1="385.3524" y1="150.7283" x2="482.222" y2="130.4712"/>
      <line class="cls-2" x1="917.4583" y1="39.4558" x2="916.3032" y2="361.7225"/>
      <polyline class="cls-2" points="383.5828 151.1359 371.1064 292.8028 407.6839 296.6531 420.9425 295.3272"/>
      <line class="cls-2" x1="424.1077" y1="286.6762" x2="425.5943" y2="286.5044"/>
      <line class="cls-2" x1="371.1064" y1="292.8028" x2="422.1621" y2="286.9011"/>
      <polyline class="cls-2" points="965.4705 183.1925 917.4583 172.4015 374.7694 251.2101"/>
      <polyline class="cls-2" points="964.0957 143.0589 917.1479 126.0387 377.5824 219.2698"/>
      <polyline class="cls-2" points="962.5769 98.721 917.3104 80.7072 380.5363 185.7285"/>
      <line class="cls-2" x1="700.6774" y1="338.7907" x2="698.1017" y2="416.5764"/>
      <line class="cls-2" x1="722.0611" y1="419.4343" x2="743.0069" y2="419.749"/>
      <line class="cls-2" x1="699.3895" y1="418.8945" x2="710.6546" y2="419.1627"/>
      <line class="cls-2" x1="443.3944" y1="261.569" x2="443.2516" y2="263.9915"/>
      <line class="cls-2" x1="444.602" y1="241.0691" x2="443.5015" y2="259.7493"/>
      <polyline class="cls-2" points="898.7644 231.6844 916.8807 229.3242 967.2534 235.2397"/>
      <line class="cls-2" x1="835.9831" y1="238.7067" x2="838.8071" y2="238.3792"/>
      <line class="cls-2" x1="704.0507" y1="254.0083" x2="832.5857" y2="239.1008"/>
      <line class="cls-2" x1="461.0546" y1="282.1912" x2="643.7543" y2="261.0016"/>
      <line class="cls-2" x1="546.1923" y1="361.6121" x2="565.2919" y2="360.9839"/>
      <polyline class="cls-2" points="590.3318 315.1219 433.5789 326.9426 431.8425 362.7156 500.1383 362.5998"/>
      <line class="cls-2" x1="516.7466" y1="391.1661" x2="516.1654" y2="405.4546"/>
      <polyline class="cls-2" points="518.6927 344.0212 519.6231 320.454 523.1122 236.1527"/>
      <line class="cls-2" x1="477.8304" y1="323.6056" x2="476.0257" y2="362.6407"/>
      <line class="cls-2" x1="566.4072" y1="321.726" x2="591.8799" y2="319.7851"/>
      <path class="cls-2" d="m438.2509,326.5903s-6.4085-1.1601-6.4085-5.7292c0-4.61,4.8708-5.3916,4.8708-5.3916"/>
      <path class="cls-2" d="m432.8753,315.4695s-3.0088-1.0041-2.376-5.1174c.5483-3.5639,4.5236-5.2088,4.5236-5.2088"/>
      <path class="cls-2" d="m433.6977,303.5897s-12.7022-.4901-13.616-12.1705c-.9138-11.6804,9.8693-17.6203,9.8693-17.6203,0,0-.2812-5.5373,5.483-10.3262,4.8417-4.0226,12.6296-5.0294,15.4437-2.4712,3.0156,2.7415-.6397,7.9541-.6397,7.9541,0,0,9.9286-6.3876,13.9459-1.2244,4.2189,5.4223-2.8886,15.3951-7.275,18.7731,0,0,4.476-1.1299,5.444,2.4396,1.086,4.0045-2.1542,8.4318-8.0941,11.2646,0,0,1.9837,3.7997-5.6998,6.2802"/>
      <path class="cls-2" d="m451.4696,307.3589s1.7669,1.6889.5901,4.1745c-1.3549,2.8617-4.1406,3.9251-5.1947,4.2119"/>
      <path class="cls-2" d="m444.8686,319.2542s2.0167-2.2849,5.203-1.815c3.2706.4823,3.3655,3.3619,2.8546,4.8175-.9481,2.7013-3.3846,3.4821-3.3846,3.4821"/>
      <path class="cls-2" d="m431.4007,289.0465s.2317-5.4429,4.4305-8.3821c3.5923-2.5146,5.7477,1.5567,5.2687,3.3528,0,0,1.3172-5.3885,5.5082-5.8675"/>
      <path class="cls-2" d="m722.0611,356.8005l-7.3741,11.0948c-.3336.5019-.2692,1.1689.1541,1.5978l13.1714,13.345-22.0213,16.2958c-.4817.3565-.693.9736-.5308,1.5505l8.83,31.4118"/>
      <path class="cls-2" d="m715.6977,435.2628l16.0091,5.8055,1.4074,12.3147s4.0463,1.0555,7.2129-.5278c0,0-1.2969-9.7265-2.6457-16.4192-.103-.5108-.4767-.9166-.9747-1.07-2.821-.8688-12.252-3.7567-15.3795-4.5013l-8.2684-29.0275"/>
      <line class="cls-2" x1="715.1699" y1="400.2538" x2="736.6327" y2="383.541"/>
      <path class="cls-2" d="m735.5772,380.9022s-8.9721-9.324-13.5462-14.2499l7.6099-10.1312"/>
      <path class="cls-2" d="m735.5772,453.7141s-.9785,5.6504-3.2161,10.2244"/>
      <path class="cls-2" d="m736.7301,453.7141s.5023,6.5223.5926,14.2445"/>
      <path class="cls-2" d="m738.1665,453.5517s.9933,4.8078,4.4945,9.3053"/>
      <line class="cls-2" x1="754.7042" y1="467.2305" x2="741.717" y2="479.9487"/>
      <line class="cls-2" x1="746.476" y1="466.8175" x2="749.4381" y2="480.6676"/>
      <line class="cls-2" x1="752.674" y1="474.4344" x2="741.582" y2="473.1186"/>
      <polygon class="cls-2" points="745.2224 456.0771 751.1296 451.3783 749.5185 441.4435 756.1641 448.7603 765.4275 445.8068 757.8422 452.5866 761.2657 464.8036 752.8077 454.5332 745.2224 456.0771"/>
      <polyline class="cls-2" points="748.6596 326.7509 733.4343 330.1259 735.5772 344.672"/>
      <path class="cls-2" d="m750.3847,328.4759l-2.2378,8.0698c-.1412.5091.0645,1.0508.5079,1.338l5.8551,3.7925"/>
      <line class="cls-2" x1="755.8598" y1="343.7012" x2="756.7839" y2="351.2165"/>
      <path class="cls-2" d="m729.4218,342.7724l-2.4356-17.1276c-.0863-.6068.3031-1.1797.8995-1.321,3.8507-.9126,17.4358-4.041,26.624-4.9981"/>
      <path class="cls-2" d="m758.0348,321.4257s-2.4751,8.0492-4.2751,13.8498c0,0,5.097,3.8103,7.1218,5.4255.4357.3476.7366.8323.8533,1.3773l2.1749,10.1602"/>
      <line class="cls-2" x1="724.7293" y1="363.1181" x2="737.0853" y2="362.8588"/>
      <line class="cls-2" x1="699.8545" y1="363.6401" x2="717.765" y2="363.2642"/>
      <polyline class="cls-2" points="743.5655 366.0156 743.0069 428.1081 817.5296 430.3426 824.1216 429.784 825.0154 358.1662 785.3109 358.1697"/>
      <line class="cls-2" x1="818.5352" y1="358.1662" x2="817.5296" y2="430.3426"/>
      <line class="cls-2" x1="824.2039" y1="423.1889" x2="862.7795" y2="422.1865"/>
      <line class="cls-2" x1="862.8165" y1="411.2395" x2="862.2015" y2="485.5364"/>
      <line class="cls-2" x1="863.1844" y1="366.8012" x2="862.8665" y2="405.1998"/>
      <line class="cls-2" x1="787.2513" y1="477.8271" x2="862.2015" y2="485.5364"/>
      <polyline class="cls-2" points="862.2015 485.5364 908.9233 476.1512 907.9177 361.7225"/>
      <line class="cls-2" x1="784.5698" y1="476.8216" x2="786.1354" y2="429.4013"/>
      <path class="cls-2" d="m829.5344,372.8762l13.7907-13.6886c.9211-.9142,2.4599-.6995,3.0955.4319l7.6447,13.6075c.3778.6724.3398,1.5012-.0978,2.1363l-6.4612,9.3773-9.8434,1.4606,2.2862,9.3988,11.431-2.7942"/>
      <path class="cls-2" d="m853.9205,393.7583l5.779,11.812,14.2253-1.7147,1.5876-9.6013,6.2235.8375-2.7372,13.1617c-.1477.7104-.7349,1.2457-1.456,1.3272l-19.714,2.2285c-.5995.0678-1.1823-.226-1.4843-.7483l-5.5993-9.6821-13.9345,1.916c-.7438.1023-1.4442-.3674-1.6264-1.0958-.8182-3.2716-3.0248-12.1281-4.4515-18.1713-.1677-.7105.3143-1.4051,1.0376-1.5043l11.1636-1.5299,4.9534-8.5081-3.9032-5.2726-5.1143,5.5547"/>
      <path class="cls-2" d="m876.592,386.7092s1.7046,4.9011,1.6461,7.912"/>
      <path class="cls-2" d="m879.44,394.783s1.9784-5.4065,6.0427-8.8993"/>
      <polygon class="cls-2" points="880.6563 384.55 885.1652 380.1681 882.4614 371.2138 889.3566 378.4535 895.7071 376.6753 890.8172 381.3112 892.8494 388.2969 887.0069 382.7084 880.6563 384.55"/>
      <line class="cls-2" x1="971.3619" y1="361.7225" x2="854.3243" y2="361.7225"/>
      <line class="cls-2" x1="847.7835" y1="372.6641" x2="824.8311" y2="372.9308"/>
      <line class="cls-2" x1="863.1373" y1="372.4856" x2="853.7104" y2="372.5952"/>
      <path class="cls-2" d="m814.5801,358.1662l3.5022-10.6143c.2715-.8227,1.0314-1.3855,1.8975-1.4053l17.7256-.4047s-3.594-8.2528-5.7598-14.3964c-.193-.5473-.1509-1.1414.111-1.6593.9978-1.9729,3.6589-7.1451,5.9981-10.9043.3943-.6337,1.1325-.9563,1.8645-.811,2.1299.4226,7.0335,1.3554,14.0693,2.4531.8534.1331,1.5188.8131,1.6278,1.6699l1.8586,14.6021,8.4623-.4377s.2189,3.1369,0,6.3467l-12.0461.1986c-.7044.0116-1.3082-.5007-1.4116-1.1975l-1.789-12.0592-7.4528-2.9543c-.3777-.1497-.8087-.0198-1.0407.3137l-3.1056,4.4643s2.4907,7.2702,5.2089,14.2448c.21.5389.1529,1.1447-.1563,1.6335l-1.8907,2.99c-.4699.7431-1.287,1.1946-2.1662,1.1971l-17.3484.0481-1.6661,6.6825"/>
      <path class="cls-2" d="m866.0253,340.4911s4.2162.8008,8.2285,3.8647"/>
      <line class="cls-2" x1="866.0347" y1="338.9574" x2="872.9407" y2="338.0515"/>
      <path class="cls-2" d="m766.6564,347.4588s-1.1551-7.8112,5.1337-13.5866,14.5026-2.3102,14.5026-2.3102"/>
      <path class="cls-2" d="m788.2179,331.0488s-2.4385-2.0535-1.4118-4.7487c1.3584-3.5659,6.5454-3.5936,8.4706-2.9519"/>
      <path class="cls-2" d="m793.5211,323.0492s-3.4606-3.4575-3.1571-10.4998,6.699-13.4168,13.4168-14.7524"/>
      <path class="cls-2" d="m808.1519,265.3782s-8.0136-.8499-14.631,4.4318-7.2244,11.0491-6.1317,15.3595,6.678,9.2278,13.6596,9.2278"/>
      <path class="cls-2" d="m814.1014,267.3816s.2428-5.646,4.4925-8.8029c4.2497-3.1569,9.4707-1.0928,11.8991.9714"/>
      <path class="cls-2" d="m837.3531,258.2144s-10.1385-.3643-8.9243-12.749,14.3389-18.0204,22.5232-18.5164c10.0171-.6071,18.0307,4.0068,18.0307,4.0068"/>
      <path class="cls-2" d="m868.5578,227.6776s-4.7202-1.3191-3.764-5.3424c.7285-3.0653,6.4426-2.1022,6.4426-2.1022"/>
      <path class="cls-2" d="m872.8075,220.9995s-5.0599-1.3356-5.019-8.1958,13.5791-13.3561,28.8778-10.0778"/>
      <path class="cls-2" d="m896.0592,200.5891s7.2788-5.5202,10.5634-1.5057c1.366,1.6695.6147,4.6519-1.3356,6.7995-1.1736,1.2924-2.7815,2.2824-4.4713,3.1174"/>
      <path class="cls-2" d="m892.6653,208.5424c3.1476-.3717,8.1441-.3064,13.3503,2.3794,7.6494,3.9461,7.2882,11.3658,2.5498,17.3629-3.8854,4.9175-15.4202,9.7742-23.0089,10.6849"/>
      <path class="cls-2" d="m889.3204,209.2219s.2786-.0953.7878-.2217"/>
      <path class="cls-2" d="m882.8245,243.6442s6.1317-.2318,6.7387,2.4339-4.3104,6.0047-7.5887,7.5224c0,0,11.0491-.4857,11.7776,6.4959.8341,7.9932-9.9564,11.5955-27.1371,13.1132"/>
      <path class="cls-2" d="m859.5728,274.3024s6.5263,2.2462,5.3424,8.8029c-1.3272,7.3504-10.6242,14.5703-35.4847,18.4557,0,0,13.9025,2.1855,16.8165,8.8621,2.3962,5.4901-2.316,8.3078-2.316,8.3078"/>
      <path class="cls-2" d="m844.7357,284.4817c1.0585-.4094,1.6935-.7693,1.6935-.7693"/>
      <path class="cls-2" d="m825.8487,268.4136s-5.8888,3.6426-3.339,7.8922c2.0439,3.4065,8.8029,1.882,8.8029,1.882,0,0-2.6568,5.0081,4.0675,6.9816,1.8904.5548,3.7668.5671,5.4222.3407"/>
      <path class="cls-2" d="m798.6799,340.7568s-2.3392,1.5326-4.759.4033c-1.2462-.5815-2.2401-3.2678.5646-5.4043,2.6415-2.0122,8.8584-3.5867,14.9224-.8873,0,0-4.759-3.8718-.6453-7.9048s10.8893-2.9845,10.8893-2.9845"/>
      <path class="cls-2" d="m859.1762,344.3059s5.727,2.5005,4.9204,6.6143-8.4695,6.8562-8.4695,6.8562c0,0,10.3104,1.3712,10.3982,6.6143s-8.059,8.095-8.059,8.095"/>
      <line class="cls-2" x1="703" y1="263.9715" x2="702.6205" y2="276.7359"/>
      <line class="cls-2" x1="704.7474" y1="203.2911" x2="703.3447" y2="250.4688"/>
      <polyline class="cls-2" points="843.7639 298.5162 916.5502 292.8101 969.3374 296.0765"/>
      <line class="cls-2" x1="698.3589" y1="308.339" x2="796.4389" y2="301.3836"/>
      <line class="cls-2" x1="499.5233" y1="126.8532" x2="576.6421" y2="110.7263"/>
      <polyline class="cls-3" points="565.0581 369.2132 566.4072 321.726 519.6231 320.454"/>
      <line class="cls-2" x1="862.7795" y1="422.1865" x2="908.4249" y2="419.4343"/>
      <polyline class="cls-3" points="481.3708 323.3386 479.6351 403.5775 514.4327 408.4867"/>
      <line class="cls-3" x1="516.7466" y1="391.1661" x2="516.1654" y2="405.4546"/>
      <polyline class="cls-3" points="517.4649 408.4867 564.1023 402.8556 564.6653 383.0386"/>
      <line class="cls-2" x1="380.5363" y1="185.7285" x2="22.0136" y2="255.8744"/>
      <line class="cls-2" x1="377.5824" y1="219.2698" x2="17.681" y2="281.4569"/>
    </g>
  </g>
  <g id="error_triangle" data-name="error triangle">
    <g>
      <path class="cls-7" d="m560.0436,114.2012l-31.71,6.63-10.5701.41-6.75.2599c-1.8199.08-2.9399-1.98-1.8799-3.47l32.4399-45.6c.87-1.21,2.75-.96,3.26.4399l11.34,30.82,3.87,10.51Z"/>
      <polygon class="cls-13" points="511.0136 121.5012 556.1736 103.6912 560.0437 114.1973 528.3336 120.8312 511.0136 121.5012"/>
      <path class="cls-14" d="m488.7736,125.098l-.4399-.3824h-3.5625l-2.9846,5.7555s1.1373.5779,2.1929.9738l1.324-1.6181,3.1599-.6608-.1296,1.6982h3.1494l1.0483-8.3207-3.538-.3276-.2198,2.8821Z"/>
      <polygon class="cls-14" points="492.5314 122.5435 492.5314 130.4711 495.2175 130.4711 495.9382 121.2679 492.5314 121.5079 492.5314 122.5435"/>
      <path class="cls-14" d="m506.8788,125.315l-.7197-4.2191-6.3552.0062c-.3931-.0655-3.8656.1658-3.8656.1658l.4586,8.3516,3.0139-.4586.1125-2.3077,7.3555-1.5381Z"/>
      <path class="cls-14" d="m519.4358,103.5566l-15.3556,10.3371,2.0788,7.2022-7.9673-.0054.6206-9.212c.0224-.3329.2213-.6283.5213-.7743l18.2587-8.8844,4.2922-2.1055-2.4489,3.4424Z"/>
      <path class="cls-14" d="m580.9346,103.2189l-3.1334,1.0231-7.1621,2.1103-8.9302,5.9159-8.4799-16.5908,6.8147,18.5199,5.9694-1.2483h.0001l3.8397-.803s6.5925-1.3786,6.7891-1.4197c.1968-.0411.2,3.2357.2,3.2357l2.3021-.3198h3.0055s.0507-.3302.1223-.8314h.0001s2.7233,0,2.7233,0l.3948-1.4708h0s2.387,0,2.387,0l1.2788-1.7458v-5.3524l-8.1212-1.0231Z"/>
      <polygon class="cls-1" points="536.5478 107.2795 538.3691 85.1556 544.5614 85.1556 538.9154 107.2795 536.5478 107.2795"/>
      <path class="cls-1" d="m536.8507,110.129c3.0885-.8648,4.1076,1.8222,2.9825,3.5133-1.3569,2.0395-4.743,2.2621-5.4486.3197-.4982-1.3714.5739-3.3032,2.4661-3.833Z"/>
      <line class="cls-2" x1="485.3033" y1="129.8268" x2="488.4632" y2="129.166"/>
      <path class="cls-2" d="m528.3286,120.8295l-17.3133.6766c-1.8252.0713-2.937-1.9844-1.8781-3.4728l32.4375-45.5972c.8674-1.2192,2.746-.9681,3.2627.4361l15.2063,41.3252-31.7151,6.6322Z"/>
      <path class="cls-2" d="m488.3336,124.7156h-3.5626l-2.9846,5.7555s1.1374.5779,2.193.9738l1.3239-1.6181"/>
      <line class="cls-2" x1="485.3033" y1="129.8268" x2="486.4902" y2="128.3761"/>
      <polygon class="cls-2" points="492.5313 122.5435 488.9934 122.2159 488.3336 130.8643 491.4831 130.8643 492.5313 122.5435"/>
      <polygon class="cls-2" points="495.9383 121.2679 492.5313 121.5079 492.5313 130.4712 495.2176 130.4712 495.9383 121.2679"/>
      <path class="cls-2" d="m499.8038,121.1021c-.3931-.0655-3.8655.1657-3.8655.1657l.4586,8.3516,3.0138-.4586.256-5.2481"/>
      <polyline class="cls-2" points="503.8659 122.2159 499.8038 123.9194 499.5233 126.8532 506.8789 125.315 506.159 121.0959 499.8038 121.1021"/>
      <path class="cls-2" d="m569.853,112.146l-3.8398.803-.4259-3.2714,3.9008-.9592,1.1511-2.3661,7.1621-2.1103s1.5987,3.3993,1.8545,4.3535c.2558.9541-.5116,5.0468-.5116,5.0468l-2.3021.3197s-.0032-3.2768-.1999-3.2357l-6.7891,1.4197Z"/>
      <polyline class="cls-2" points="576.6421 110.7263 575.499 108.4626 571.9343 111.7108"/>
      <path class="cls-2" d="m577.8011,104.242l3.1334-1.0232s1.5987,3.7729,1.7905,4.6042-.5755,5.8192-.5755,5.8192h-3.0055"/>
      <polyline class="cls-2" points="580.9346 103.2189 589.0559 104.242 589.0559 109.5944 587.7769 111.3402 585.39 111.3402"/>
      <polyline class="cls-2" points="584.9952 103.7305 585.8585 109.5944 584.9952 112.811 582.272 112.811"/>
      <polygon class="cls-2" points="536.5478 107.2795 538.3691 85.1556 544.5614 85.1556 538.9154 107.2795 536.5478 107.2795"/>
      <path class="cls-2" d="m536.8507,110.129c3.0885-.8648,4.1076,1.8222,2.9825,3.5133-1.3569,2.0395-4.743,2.2621-5.4486.3197-.4982-1.3714.5739-3.3032,2.4661-3.833Z"/>
      <path class="cls-2" d="m517.5924,102.2197l-18.2587,8.8844c-.3.146-.4989.4414-.5213.7743l-.6206,9.212"/>
      <polyline class="cls-2" points="506.159 121.0959 504.0802 113.8937 519.4358 103.5566"/>
      <polyline class="cls-2" points="553.229 95.6774 561.7088 112.2682 564.1071 110.6795"/>
    </g>
  </g>
  <g id="sentry_character" data-name="sentry character">
    <g>
      <path class="cls-14" d="m536.0907,368.6865l39.8811.7251,29.7466-35.3521,1.4826-1.7945,4.3423-.5951-1.1688,7.5021-26.5721,40.944c-.7133,1.0914-1.8981,1.7839-3.1991,1.8698l-61.9106,4.0896c-4.7878,5.2941-20.1475,17.9362-23.2229,17.0374-3.1131-.9099-1.3496-10.3156,2.3813-19.0718,3.7392-8.7757,6.6112-12.8219,9.6914-16.8646,1.7683-2.321,3.4095-3.4049,4.6853-3.8981,1.2478.9983,2.4955.7636,3.2869.4225,2.2741,1.4645,6.7689,4.7393,6.7689,4.7393"/>
      <polygon class="cls-6" points="691.9941 328.9319 682.551 329.5122 678.2484 329.7766 670.7816 330.2355 667.598 342.9729 667.2557 350.2735 672.7313 354.152 685.9637 354.3802 689.9104 353.5909 697.3269 336.8718 691.9941 328.9319"/>
      <path class="cls-14" d="m630.7277,382.8381l5.7634-17.5156,10.0688,3.4343-3.8545,19.8653c-.1996,1.0286-.6951,1.9765-1.4258,2.7275l-42.2276,43.4006s-7.256,25.4206-8.462,28.3632c-2.5086,6.121-4.9169,7.1244-7.7265,3.0103-2.8415-4.1607-7.1712-18.1885-5.2189-35.4701.0813-.7193.4385-1.3841.9856-1.858l49.6892-43.0475,1.9367-1.7143.4715-1.1957Z"/>
      <path class="cls-7" d="m508.632,362.0254s-2.7141,2.3948-5.5879,1.5965-4.7896-7.6634-4.7896-7.6634l-9.26-3.0334,4.63-1.2772-20.1165-7.0248,22.3517,3.0334-5.4283-3.5124,14.0496,1.4369s2.7141-3.3528,5.9072-3.1931,3.8317,2.5545,3.8317,2.5545c0,0-4.2219,3.0219-5.2997,8.1413s-.2883,8.9418-.2883,8.9418Z"/>
      <path class="cls-6" d="m546.1923,368.8702l-10.0955-.1393-2.4866-5.4927c-.001,0-.002,0-.0029,0,6.01.1285,11.5598-.1533,11.8389-1.6104.6189-3.2324-23.4524-11.4166-23.4524-11.4166,0,0-.1543-.0446-.4092-.0687-.1497-.9842-.3398-1.5279-.3398-1.5279,0,0-1.1078-3.5616-5.028-1.9797-2.3812.9608-4.005,3.0189-5.1581,6.2585-1.4443,4.0577-.8057,8.8053,1.1692,10.385,2.0632,1.6506,4.1265-.0687,4.1265-.0687,0,0,.5624-.4393,1.3148-1.1818.3434.223.6108.2877.6108.2877,0,0,4.8807.467,10.5038.7467l2.3708,5.6005-1.0248-.0142s-2.9755,1.1988-4.1201,6.8458,1.5363,9.9963,1.5363,9.9963l17.0254-1.1246s-2.1549-3.4537-1.6207-8.7191c.5342-5.2654,3.2416-6.7767,3.2416-6.7767Z"/>
      <path class="cls-14" d="m691.6674,363.6201l1.1407,2.2815-5.2474,5.0243c-1.7111.0051-13.2325,0-13.2325,0l11.5214,5.5845-2.5096,2.9659s-3.9926-1.4829-5.8177-1.7927-4.7911,0-4.7911,0l-61.4517-20.9603c-1.9984-.6816-3.2187-2.7001-2.8937-4.7864l10.3889-66.6848,3.08,2.2815-2.5096,56.9224,40.0396,10.6088.4563-6.1599,2.6237-2.6237,2.1674-3.3081h2.9659l-.4563,2.6237.1141,4.677,5.4755,3.8785,13.2325.2281,7.4147-1.4829.4563,3.9926-1.7111,1.1407"/>
      <path class="cls-6" d="m663.7669,244.1401s5.8642-10.5673,8.9996-15.8509,8.8254-12.8317,11.3221-12.3091,2.4386,10.277,2.0322,15.4445-1.6257,15.909-1.6257,15.909l-.0816.5601,1.3589.6011s14.3993,6.3868,20.7862,9.4641c6.3868,3.0773,8.5351,6.4449-12.3672,2.8137s-29.1032-8.6165-30.947-10.3037c-2.3225-2.1252-.8709-3.9482-.8709-3.9482l1.3935-2.3805Z"/>
      <path class="cls-7" d="m581.3894,463.3308c-.9958-2.2986-2.0145-5.4922-2.8028-9.3663l-10.378,12.005,4.1808-.8224-11.2401,12.7479,20.2402-14.5641Z"/>
      <path class="cls-7" d="m598.6914,436.0105c-.8641,3.0156-3.1255,10.8824-5.0655,17.4137l2.4772.7569s8.5862,2.5359,12.0625-1.6449c2.6827-3.2263.891-7.6761.891-7.6761-8.5407-2.3545-10.3652-8.8496-10.3652-8.8496Z"/>
      <path class="cls-6" d="m630.3716,415.1835c-2.673-1.7134-17.5455,7.8132-17.5455,7.8132-.6603.3697-1.2595.7198-1.812,1.0524l-1.3132-.2434,4.5096-4.6349s-5.0614-.3146-7.8832-5.222-1.1416-8.1592-1.1416-8.1592l-12.0991,10.4819s-1.8496,3.3207.8496,8.9642c2.699,5.6433,8.4336,6.1041,8.4341,6.1041l-.9951,1.0227s-.991,1.1372.4851,4.0675c2.6924,5.3449,7.7446,6.8537,9.2817,6.7166s2.3695-5.0717,2.3695-5.0717l.699-1.0966s4.5094-4.2908,8.5536-9.0469c4.7471-5.5829,9.0509-11.8227,7.6075-12.7479Z"/>
      <polygon class="cls-14" points="648.7168 328.1672 641.4316 350.3078 649.7138 352.5022 654.5631 327.5095 648.7168 328.1672"/>
      <path class="cls-14" d="m664.5636,285.8112c-2.3401-8.22-4.72-13.86-4.72-13.86l8.25-7.98-3.53,21.84Zm31.1,39.59l-3.48-15.08-1.09-4.69-11.0601-47.97c-10.6699-2.95-15.4399-5.96-16.79-7.19l-19.49,8.43s0,.01.01.02c.14.57,3.03,11.97,1.5901,30.1l-.01-.02c-.17-.35-2.89-6-4.4401-8.54l-8.33-16.2-24.8601,9.7s3.1702,12.07,3.9401,25.19l-6.91-16.25-5.7-5.86-17.3101,6.25c-1.4299.51-2.1699,2.1-1.6499,3.53l14.51,40.07c.73,2.03,2.0699,4.29,3.3799,5.24.78.56,1.8601.89,3.3201.73l10.25-1.19,8.41-.98,14.11-1.64s.45-10.95-6.28-21.33l3.3-3.25,11.76,24.36,27.3799-3.08s-.2-5.3199-.8199-12.24l7.55,12.69,18.71-.8Z"/>
      <path class="cls-12" d="m676.2675,316.3939l7.6206-.3422-11.7272-56.0098-4.0676,3.9316-3.528,21.8274c.7778,2.7261,1.552,5.7361,2.2341,8.9191,1.2595,5.8777,2.0836,12.9113,2.6072,18.7964l7.5449,12.6812-.6841-9.8038Z"/>
      <path class="cls-12" d="m642.8436,328.8312l-11.76-24.36,6.29-6.21s5.73,12.59,5.47,30.57Z"/>
      <path class="cls-12" d="m660.9835,319.2413l-10.3799,1.2599c.1099-20.53-5.25-31.48-5.25-31.48,1.4399-18.13-1.4501-29.53-1.5901-30.1.3201.58,8.0701,14.79,12.3101,29.64,4.34,15.17,4.9099,30.6801,4.9099,30.6801Z"/>
      <polygon class="cls-12" points="599.0436 277.0412 614.0063 315.8601 616.7123 298.4906 607.7097 273.9588 611.6536 299.1512 604.7435 282.9012 599.0436 277.0412"/>
      <polygon class="cls-12" points="613.3948 319.7851 613.3948 319.7851 612.5318 325.3247 608.3336 325.7226 613.3948 319.7851"/>
      <path class="cls-12" d="m620.7612,312.3371c3.912,5.6734,5.6174,11.9416,5.6174,11.9416l-6.1696.5814.5521-12.523Z"/>
      <polygon class="cls-4" points="653.9911 330.4573 647.6044 331.5482 648.7168 328.1672 654.5631 327.5095 653.9911 330.4573"/>
      <polygon class="cls-4" points="605.7184 334.0596 607.201 332.2651 611.5433 331.6699 611.0836 334.7785 604.4375 335.5818 605.7184 334.0596"/>
      <path class="cls-6" d="m695.4323,304.6809c-8.8072,14.7013-15.2086,30.1313-15.2086,30.1313-.4803.795-2.1891.5253-3.0023-.4912-.807-1.0088-.2695-1.9569-.2695-1.9569,0,0,8.9496-18.0848,16.8828-31.4547,0,0-1.1997-2.7978.7491-4.6671,1.5452-1.4821,4.5978-1.0566,6.2753.883,2.0182,2.3335.6174,5.5304-1.0091,6.2438-1.7975.7884-3.4057-.1577-3.4057-.1577l-1.0121,1.4695Z"/>
      <polygon class="cls-6" points="682.1717 374.7276 683.8173 370.9281 674.3283 370.9259 682.1717 374.7276"/>
      <path class="cls-6" d="m656.5899,372.178l-.8585,2.0231,2.3701,6.7548,22.5142-2.4245c-1.1039-.3588-2.3023-.7135-3.0934-.8478-1.8252-.3097-4.7911,0-4.7911,0l-16.1413-5.5056Z"/>
      <path class="cls-14" d="m693.4045,315.6272l15.756,30.56c.5773,1.1196,1.5148,2.0051,2.6673,2.5136,8.3762,3.6958,43.7043,19.2509,47.7799,20.5049,4.628,1.424,5.8384,1.2816,7.6184-.1424s11.0361-11.4633,11.0361-11.4633c.9256.2136,7.0488.5696,7.0488.5696v-3.4888l-2.2784-.5696v-1.1392c-2.9493-.927-8.1713-3.0136-10.0519-3.7742-.4528-.1831-.9545-.1829-1.4084-.0026l-9.3301,3.7056-47.989-14.8097-19.6778-31.9644-2.3916,4.1944,1.2209,5.306Z"/>
      <polygon class="cls-14" points="689.1988 297.3936 692.6285 302.9647 691.0936 305.6312 689.1988 297.3936"/>
      <path class="cls-4" d="m680.0336,257.6612c-10.6699-2.95-15.4399-5.96-16.79-7.19l-1.7082.7389s7.0761,6.4497,19.2684,9.7915l-.7701-3.3403Z"/>
      <path class="cls-2" d="m514.2199,344.9424s-.6386-2.3948-3.8317-2.5545-5.9072,3.1931-5.9072,3.1931l-14.0496-1.4369,5.4283,3.5124-22.3517-3.0334,20.1165,7.0248-4.63,1.2772,9.26,3.0334s1.9159,6.8652,4.7896,7.6634,5.5879-1.5965,5.5879-1.5965"/>
      <path class="cls-2" d="m521.2447,348.6144s-1.1077-3.5616-5.0279-1.9798c-2.3813.9609-4.005,3.0189-5.1581,6.2585-1.4443,4.0577-.8055,8.8053,1.1692,10.385,2.0632,1.6506,4.1265-.0688,4.1265-.0688"/>
      <path class="cls-2" d="m521.9939,350.211s-1.0246-.305-2.2182.247c-1.2931.598-2.8028,2.0741-3.3634,4.5406-.5657,2.4889-.3884,4.6522.2242,5.8579.6193,1.2189,1.6435,1.4589,1.6435,1.4589,0,0,26.5471,2.5447,27.1661-.6877s-23.4523-11.4166-23.4523-11.4166Z"/>
      <path class="cls-2" d="m533.6102,363.2381c-1.6079-.0344-3.2446-.0973-4.8264-.176l4.5862,10.834s.6726.8969,2.541.2242c1.8687-.6727,1.6443-2.1675,1.6443-2.1675l-3.9451-8.7147Z"/>
      <line class="cls-2" x1="531.1606" y1="368.6767" x2="522.5326" y2="368.44"/>
      <polyline class="cls-2" points="607.201 332.2651 575.9718 369.4117 536.0907 368.6865"/>
      <path class="cls-2" d="m512.2278,363.2782c-1.2758.4932-2.9169,1.5772-4.6853,3.8981-3.0802,4.0428-5.9522,8.0889-9.6914,16.8646-3.7309,8.7562-5.4944,18.1619-2.3813,19.0718,3.0754.8988,18.4351-11.7433,23.2229-17.0374l61.9106-4.0896c1.3009-.0859,2.4858-.7785,3.1991-1.8698l26.5721-40.944"/>
      <path class="cls-2" d="m522.2837,368.44s-4.4949-3.2751-6.769-4.7396"/>
      <path class="cls-2" d="m546.1923,368.8702s-2.7074,1.5112-3.2416,6.7766,1.6208,8.7191,1.6208,8.7191"/>
      <path class="cls-2" d="m530.1299,368.6484s-2.9755,1.1988-4.1202,6.8458c-1.1447,5.647,1.5363,9.9964,1.5363,9.9964"/>
      <path class="cls-2" d="m646.5599,368.7569l-3.8545,19.8653c-.1996,1.0286-.6951,1.9765-1.4258,2.7275l-42.2276,43.4006s-7.256,25.4206-8.462,28.3632c-2.5086,6.121-4.9169,7.1244-7.7265,3.0103-2.8415-4.1607-7.1712-18.1885-5.2189-35.4701.0813-.7193.4385-1.3841.9856-1.858l49.6892-43.0475"/>
      <line class="cls-2" x1="654.5631" y1="327.5095" x2="649.7138" y2="352.5022"/>
      <line class="cls-2" x1="641.4316" y1="350.3078" x2="648.7168" y2="328.1672"/>
      <line class="cls-2" x1="630.7277" y1="382.8381" x2="636.4911" y2="365.3226"/>
      <path class="cls-2" d="m605.1858,405.7896s-1.6803,3.2518,1.1415,8.1592c2.8217,4.9074,7.8832,5.222,7.8832,5.222"/>
      <path class="cls-2" d="m593.0866,416.2716s-1.8495,3.3207.8495,8.9642c2.6991,5.6435,8.4342,6.104,8.4342,6.104"/>
      <path class="cls-2" d="m606.232,427.3708l7.0053,1.4516s2.0286.1105,2.6274-1.4516c.7309-1.9067-.914-2.5921-.914-2.5921l-5.25-.973"/>
      <path class="cls-2" d="m606.232,430.3302s.1107,2.3698,2.2763,4.4549c2.6337,2.5359,5.7021,2.1932,5.7021,2.1932,0,0,4.5095-4.2908,8.5536-9.0469,4.7471-5.5829,9.051-11.8227,7.6076-12.7479-2.6729-1.7134-17.5455,7.8132-17.5455,7.8132"/>
      <path class="cls-2" d="m613.5115,438.0749s-.8324,4.9347-2.3695,5.0717-6.883-1.2337-9.2818-6.7166"/>
      <path class="cls-2" d="m609.0566,444.8601s1.7917,4.4499-.891,7.6761c-3.4763,4.1808-12.0625,1.6449-12.0625,1.6449"/>
      <polyline class="cls-2" points="581.3898 463.3307 561.1492 477.8949 572.3893 465.1471 568.2085 465.9695 578.5867 453.9645"/>
      <path class="cls-2" d="m663.2444,250.4688l-19.49,8.4324s3.0824,11.5214,1.5994,30.1152c0,0-2.8518-5.9318-4.4488-8.5555l-8.3273-16.1983-24.8679,9.6962s3.1707,12.0751,3.9417,25.1969l-6.9076-16.2574-5.7036-5.8596-17.3033,6.2499c-1.4319.5172-2.1729,2.0978-1.6546,3.5293l14.509,40.0707"/>
      <line class="cls-2" x1="691.0984" y1="305.6291" x2="680.0341" y2="257.6598"/>
      <polyline class="cls-2" points="684.2255 325.8938 695.6599 325.4057 692.1807 310.3216"/>
      <path class="cls-2" d="m619.9519,330.6938l14.1087-1.6378s.4563-10.951-6.274-21.3316l9.5821-9.468s5.7346,12.5972,5.4755,30.5715l27.3775-3.08s-.6844-18.2517-3.4222-31.0278c-2.7377-12.7762-6.9584-22.7701-6.9584-22.7701l12.3199-11.908,11.7272,56.0098-7.6205.3422.6844,9.8103,3.1827-.1358"/>
      <line class="cls-2" x1="601.2897" y1="332.8602" x2="611.5433" y2="331.6699"/>
      <path class="cls-2" d="m599.0402,277.0388l13.1184,33.7656-14.1932,15.5689c-2.4243,2.6593-1.3207,7.0175,3.3244,6.4869"/>
      <path class="cls-2" d="m618.7748,285.252l-10.3889,66.6848c-.325,2.0863.8952,4.1048,2.8937,4.7864l61.4517,20.9603s2.9659-.3097,4.7911,0,5.8177,1.7927,5.8177,1.7927l2.5096-2.9659-11.5214-5.5845s11.5214.0051,13.2325,0l5.2474-5.0243-1.1407-2.2815"/>
      <polyline class="cls-2" points="675.6971 366.0156 687.3326 366.0156 694.4051 360.9964 692.1236 358.0305 686.0778 360.7683 675.1268 360.8824"/>
      <polyline class="cls-2" points="692.1236 358.0305 693.8347 356.8898 693.3784 352.8973 685.9637 354.3802 672.7313 354.1521 667.2558 350.2736 667.1417 345.5966 667.598 342.9729 664.6321 342.9729 662.4647 346.281 659.841 348.9047 659.3847 355.0646 619.3452 344.4559 621.8548 287.5335"/>
      <path class="cls-2" d="m645.3538,289.0165s5.3614,10.951,5.2474,31.4841l10.3806-1.2548s-.5704-15.5139-4.9051-30.6856-12.3223-29.6589-12.3223-29.6589"/>
      <line class="cls-2" x1="650.0327" y1="271.95" x2="667.7743" y2="253.2458"/>
      <line class="cls-2" x1="640.9049" y1="280.461" x2="621.2559" y2="301.117"/>
      <line class="cls-2" x1="607.7097" y1="273.9588" x2="616.7123" y2="298.4906"/>
      <polyline class="cls-2" points="612.1586 310.8044 614.0063 315.8601 613.3948 319.7851 608.3336 325.7226 612.5318 325.3247"/>
      <path class="cls-2" d="m620.2091,324.8601l6.1696-.5814s-1.7055-6.2682-5.6174-11.9416"/>
      <line class="cls-2" x1="642.8442" y1="328.8279" x2="631.0804" y2="304.4698"/>
      <line class="cls-2" x1="676.952" y1="326.2042" x2="669.4061" y2="313.5065"/>
      <line class="cls-2" x1="664.5676" y1="285.8107" x2="668.0954" y2="263.9715"/>
      <path class="cls-2" d="m695.4323,304.6809c-8.8072,14.7013-15.2086,30.1313-15.2086,30.1313-.4803.795-2.1891.5253-3.0023-.4912-.807-1.0088-.2695-1.9569-.2695-1.9569,0,0,8.9496-18.0848,16.8828-31.4547,0,0-1.1997-2.7978.7491-4.6671,1.5452-1.4821,4.5978-1.0566,6.2753.883,2.0182,2.3335.6174,5.5304-1.0091,6.2438-1.7975.7884-3.4057-.1577-3.4057-.1577"/>
      <line class="cls-2" x1="692.4131" y1="283.5822" x2="694.8684" y2="292.2293"/>
      <line class="cls-2" x1="704.7474" y1="280.151" x2="700.4936" y2="292.4244"/>
      <line class="cls-2" x1="705.6685" y1="295.6887" x2="713.3394" y2="292.6901"/>
      <line class="cls-2" x1="705.8632" y1="301.3836" x2="712.0696" y2="302.6388"/>
      <polyline class="cls-2" points="682.551 329.5122 691.9942 328.9319 697.3269 336.8718 689.9104 353.5909"/>
      <polyline class="cls-2" points="667.598 342.9729 670.7817 330.2355 678.2484 329.7766"/>
      <polyline class="cls-2" points="656.5899 372.178 655.7314 374.2011 658.1016 380.9559 680.6157 378.5314"/>
      <line class="cls-2" x1="683.8173" y1="370.9281" x2="682.1717" y2="374.7276"/>
      <line class="cls-2" x1="658.1016" y1="380.9559" x2="661.2012" y2="373.7509"/>
      <polyline class="cls-2" points="671.7077 332.3641 674.8199 338.7907 697.3269 336.8718"/>
      <line class="cls-2" x1="674.8199" y1="338.7907" x2="669.9023" y2="352.1482"/>
      <path class="cls-2" d="m662.3734,246.5206s-1.4515,1.823.8709,3.9482c1.8438,1.6872,10.0447,6.6725,30.947,10.3037s18.754.2636,12.3672-2.8137c-6.3868-3.0773-20.7862-9.4641-20.7862-9.4641,0,0-1.916,4.8772-14.8638,2.2644"/>
      <path class="cls-2" d="m663.7669,244.1401s5.8642-10.5673,8.9996-15.8509,8.8254-12.8317,11.3221-12.3091,2.4386,10.277,2.0322,15.4445-1.6257,15.909-1.6257,15.909"/>
      <ellipse cx="693.7363" cy="339.7845" rx=".9748" ry=".6926" transform="translate(-60.5527 506.4329) rotate(-38.5536)"/>
      <ellipse cx="676.7003" cy="340.9282" rx=".9748" ry=".6926" transform="translate(-64.9789 496.0646) rotate(-38.5536)"/>
      <ellipse class="cls-2" cx="689.5654" cy="333.1987" rx="1.9478" ry="2.7415" transform="translate(127.7254 853.6385) rotate(-68.5992)"/>
      <path class="cls-2" d="m694.5752,306.1268l19.6778,31.9644,47.989,14.8097,9.3301-3.7056c.4539-.1803.9557-.1805,1.4084.0026,1.8806.7606,7.1026,2.8472,10.0519,3.7742v1.1392l2.2784.5696v3.4888s-6.1232-.356-7.0488-.5696c0,0-9.256,10.0392-11.0361,11.4633s-2.9904,1.5664-7.6184.1424c-4.0756-1.254-39.4037-16.8091-47.7799-20.5049-1.1525-.5085-2.0901-1.394-2.6673-2.5136l-15.756-30.56"/>
      <line class="cls-2" x1="689.1988" y1="297.3936" x2="692.6285" y2="302.9647"/>
      <path class="cls-2" d="m783.0325,354.1113l-5.6965-1.5833c-.4319-.12-.894-.059-1.28.169l-5.7684,3.4079"/>
    </g>
  </g>
</svg>