<svg xmlns="http://www.w3.org/2000/svg" width="1059.5" height="525.6"><defs><style>.cls-2,.cls-3{stroke-linecap:round;stroke-linejoin:round}.cls-3{stroke:#000}.cls-4{fill:#241d2a}.cls-2{stroke:#241d2a}.cls-2,.cls-3{fill:none}.cls-6{fill:#f58452}.cls-7{fill:#ebb432}.cls-8{fill:#e7e1ec}.cls-9{fill:#ffbea5}.cls-11{fill:#917ec1}.cls-14{fill:#ad6caa}.cls-15{fill:#b39ed3}.cls-16{fill:#ccbddb}.cls-17{fill:#e1557a}</style></defs><path fill="#ffadb2" d="M1059.5 393 764 525.5 0 261l16.4-84.6L1002.6 0l57 393z" id="bg"/><g id="flame-chart"><path class="cls-9" d="m481.4 323.3-47.8 3.6-1.8 35.8h48.7l.9-39.4z"/><path class="cls-17" d="m764 352.2-2.3-10.1a2.4 2.4 0 0 0-.8-1.4 440.2 440.2 0 0 0-7.1-5.4l4.2-13.9v-.2a1.7 1.7 0 0 0-1.7-2l-1.8.1c-9.2 1-22.8 4.1-26.6 5-.6.2-1 .7-1 1.3l2.5 17.2 6.2 1.9-2.2-14.6 15.3-3.4 2.2-.4-.5 2.2-2.3 8c0 .5.1 1.1.5 1.4l6 3.8 1 .9.3 1.1.9 7.5 5.4 1.7 1.7-.7Z"/><path class="cls-6" d="m477.8 323.6 3.6-.3-.9 39.3H476l1.8-39z"/><path class="cls-8" d="m908.4 419.4-45.6 2.8-38.6 1v6.6l-6.7.5-74.5-2.2.6-62v-8.6l41.7.7H825l-.2 14.7 33.2-.4s2.8-1 5.1-3v-7.8h1.3v-.4l.5.4h43l.5 57.7Zm-14.6-159.3c-.8-7-11.8-6.5-11.8-6.5 3.3-1.5 8.2-4.9 7.6-7.5-.6-2.7-6.8-2.5-6.8-2.5l-4.3 28c10-2 15.9-5.6 15.3-11.5Z"/><path class="cls-15" d="m898.8 231.7 18-2.4 50.5 6 2 60.8-52.7-3.3-72.8 5.7-47.4 2.9-95 6.7 2.7-54 136.7-16 58-6.4z"/><path class="cls-16" d="m908.4 419.4-45.6 2.8-38.6 1v6.6l-6.7.5 1-72 .2-.1h6.3l-.2 14.7 33.2-.4s2.8-1 5.1-3v-7.8h1.3v-.4l.5.4h43l.5 57.7Z"/><path class="cls-15" d="m521.5 274.9 1.6-45.2 181.6-26.4-1.4 50.8-181.8 20.8"/><path class="cls-8" d="m591.9 319.8-25.5 2-46.8-1.3 2-45.6 181.7-20.8-2.1 58.2-109.3 7.5"/><path class="cls-8" d="m515.9 408.7 48.2-5.8 2.3-81.2-46.8-1.2-38.2 2.8-1.8 80.3 36.3 5z"/><path class="cls-16" d="m519.6 320.4 46.8 1.3 134.8-9.4.1-4.2-181.7 12.3zm46.8 1.3-46.8-1.2-3.7 88.2 48.2-5.8 2.3-81.2z"/><path class="cls-15" d="M377.6 219.3 917 126l47 17-1.5-44.3-45.1-18-537 105-3 33.6zm-360 62.2 360-62.2 3-33.6L22 256l-4.3 25.6z"/><path class="cls-8" d="m917.5 39.5 43.9 20 1.2 39.2-45.3-18-536.8 105 3-34.6 1.9-.4 532-111.2zM420 291.5c-1-11.8 9.8-17.7 9.8-17.7s-.2-5.5 5.5-10.3a17.7 17.7 0 0 1 8.1-3.6l1.1-18.8-69.8 10.1-3.7 41.6 36.6 3.9 13.2-1.4a13.7 13.7 0 0 1-.8-3.9Z"/><path d="M435 305.1s-4 1.7-4.5 5.2c-.6 4.2 2.4 5.2 2.4 5.2s1.1.4 2.1.5a5.1 5.1 0 0 0-3.2 4.9c0 4.5 6.4 5.7 6.4 5.7l11.4-.9s2.4-.7 3.3-3.4c.5-1.5.4-4.4-2.8-4.9a5.8 5.8 0 0 0-1.3 0c-.2-1.6-2-1.7-2-1.7a8.3 8.3 0 0 0 5.3-4.2 3.6 3.6 0 0 0-.6-4.1 9.7 9.7 0 0 0-1.8-1.3c6.3-2.5 4.6-5.9 4.6-5.9 5.9-2.8 9.1-7.3 8-11.3-1-3.5-5.4-2.4-5.4-2.4 4.4-3.4 11.5-13.4 7.3-18.8-4-5.1-14 1.3-14 1.3s3.7-5.3.7-8c-2.8-2.6-10.6-1.6-15.5 2.5-5.7 4.8-5.4 10.3-5.4 10.3s-10.8 6-10 17.6c1 11.7 13.7 12.2 13.7 12.2a2 2 0 0 0 1.3 1.5Zm310.2 151 6-4.7-1.7-10 6.7 7.4 9.2-3-7.6 6.8 3.5 12.2-8.5-10.3-7.6 1.6zm135.5-71.6 4.5-4.3-2.7-9 6.9 7.3 6.3-1.8-4.9 4.6 2 7-5.8-5.6-6.3 1.9zm2.1-140.9s6.2-.2 6.8 2.5-4.3 6-7.6 7.5c0 0 11-.5 11.8 6.5.8 8-10 11.6-27.2 13.1-4.1.4-10.3 0-10.3 0l3.3 1.1s6.5 2.3 5.3 8.8c-1.3 7.4-10.6 14.6-35.5 18.5 0 0 14 2.2 16.9 8.8 2.4 5.5-2.4 8.3-2.4 8.3s7.4 3.8 8.9 9.2 1.7 14.9 1.7 14.9 1.8.4 4.7 1.5c0 0 5.7 2.5 4.9 6.6s-8.5 6.9-8.5 6.9 10.3 1.4 10.4 6.6-8 8-8 8l-33.2.5.2-14.7h-39.7v-3.5l-2.3-.6V353c-3-1-8.1-3-10-3.8a1.9 1.9 0 0 0-1.4 0l-4.3 1.7-.6-3.4s-1.2-7.8 5-13.6 14.6-2.3 14.6-2.3 1.7.5 5.4 2.8l-3.5-3.3s-2.4-2.1-1.4-4.8c1-2.7 4.4-3.4 6.7-3.2 0 0-3.4-3.5-3.1-10.5.3-6.7 6-12.7 12.3-14.5 0 0-1.2-.5-1.6-1.4-.5-1.2 0-2.3 0-2.3-7 0-12.6-5-13.7-9.2s-.5-10.1 6.1-15.4 14.7-4.4 14.7-4.4a33.9 33.9 0 0 1 6 1.1c.2-1.7 1.2-5.5 4.4-8 4.2-3 9.5-1 11.9 1 0 0-.4-1 .2-2s2-.8 2-.8c-2.4-1.5-5-4.7-4.3-11.2 1.2-12.4 14.4-18 22.6-18.5 10-.6 18 4 18 4s-.8-1.2-.8-2 .4-1.3.4-1.3-4.8-1.3-3.8-5.4c.7-3 6.4-2 6.4-2-1.4-1-3.4-3.2-3.4-7.5 0-6.5 12.2-12.7 26.5-10.5 0 0 .9-1.1 1.8-1.7 0 0 7.2-5.5 10.5-1.5 1.4 1.7.6 4.6-1.3 6.8a14.9 14.9 0 0 1-4.5 3.1c1.7.4 3.4 1 5.2 2 7.7 3.9 7.3 11.3 2.6 17.3-4 4.9-15.4 9.8-23 10.7" style="fill:#f6f6f8"/><path class="cls-9" d="m965.5 183.2-48-10.8-542.7 78.8 2.8-32L917 126l47 17 1.4 40.2zM786 429.4l-1.5 47.4v.8l2.6.2 75 7.7 46.7-9.4-.5-56.7-45.6 2.8-38.6 1v6.6l-6.7.5-31.4-.9z"/><path class="cls-15" d="m698.1 416.6 1.8-53 17.9-.3 7-.2 12.3-.2h6.5l-.6 56.9-21-.4-11-.2-12.9-.3v-2.3z"/><path class="cls-17" d="m715.7 435.3 16 5.8 1.4 12.3s4 1 7.2-.5c0 0-1.3-9.8-2.6-16.5-.1-.5-.5-.9-1-1a417 417 0 0 0-15.4-4.5l-8.2-29 2-1.6 21.5-16.7.9-.7-2-2-13.5-14.2 7.6-10.2-5.7-2.5-1.8 2.8-7.4 11.1c-.3.5-.3 1.2.1 1.6l13.2 13.3-22 16.3c-.5.4-.7 1-.5 1.6l8.8 31.4.8 2.9.6.3Z"/><path class="cls-7" d="m821 358.2 1.7-6.7h17.4c.9 0 1.7-.5 2.2-1.3l1.9-3c.2-.4.3-1 .1-1.6-2.7-7-5.2-14.2-5.2-14.2l3.1-4.5a.9.9 0 0 1 1-.3l7.5 3 1.8 12c0 .7.7 1.2 1.4 1.2l12-.2c.3-3.2 0-6.3 0-6.3l-8.4.4-1.9-14.6a2 2 0 0 0-1.6-1.7 356.6 356.6 0 0 1-14-2.4 1.8 1.8 0 0 0-2 .8c-2.3 3.7-5 9-6 10.9a2.1 2.1 0 0 0 0 1.6c2.1 6.2 5.7 14.4 5.7 14.4l-17.7.4a2 2 0 0 0-2 1.4l-3.4 10.7h6.5Z"/><path class="cls-6" d="m854 393.8 5.7 11.8 14.2-1.7 1.6-9.6 6.2.8-2.7 13.1a1.7 1.7 0 0 1-1.5 1.4l-19.7 2.2c-.6 0-1.2-.2-1.5-.7l-5.6-9.7-13.9 1.9c-.7 0-1.4-.4-1.6-1.1l-4.5-18.2c-.1-.7.3-1.4 1-1.5L843 381l5-8.5-4-5.3-5 5.6h-9.4l13.8-13.6a2 2 0 0 1 3.1.4l7.7 13.6a2 2 0 0 1-.1 2.2l-6.5 9.3-9.8 1.5 2.2 9.4 11.5-2.8 1.8-.5.7 1.4Z"/><path class="cls-16" d="m371.1 292.8 49.2-5.7s-1 4.6.6 8.2l-13.2 1.3-36.6-3.8Z"/><path class="cls-6" d="m862.8 422.2-.6 63.3 46.7-9.3-.5-56.8-45.6 2.8zm-77.4 29.2 76.8 4.3.6-33.5-38.6 1v6.6l-6.7.5-31.4-.9-.7 22zM917.2 126l.3 46.4 48 10.8L964 143l-47-17z"/><path class="cls-17" d="m916.9 229.3.6-56.9 48 10.8 1.8 52-50.4-5.9z"/><path class="cls-11" d="m916.9 229.3-.3 63.5 52.7 3.3-2-60.9-50.4-5.9z"/><path class="cls-17" d="m916.3 361.7.3-68.9 52.7 3.3 2 65.6h-55z"/><path class="cls-11" d="m917.3 80.7-.2 45.3 47 17-1.5-44.3-45.3-18z"/><path class="cls-16" d="m917.5 39.5-.2 41.2 45.3 18-1.2-39.2-44-20z"/><path class="cls-8" d="M380.5 185.7 22 256l5.1-30L383.6 151l-3 34.6z"/><path class="cls-9" d="m373.5 265.7 4-46.4-359.8 62.2-3.8 22 50.5 2.5 309.1-40.3z"/><path class="cls-6" d="m373.5 265.7 1.3-14.5-360.9 52.4 50.5 2.4 309.1-40.3z"/><path class="cls-2" d="m27.8 225.7 357.6-75m-10.6 100.5L13.9 303.6l12.6-74.2m-12.6 74.2 50.5 2.4 305.8-40M961.4 63l10 292.2M589 108.2l328.4-68.7 43.8 20m-576 91.2 97-20.2m435.2-91-1.2 322.2M383.6 151.1 371 292.8l36.6 3.9 13.2-1.4m3.2-8.6 1.5-.2m-54.5 6.3 51-5.9"/><path class="cls-2" d="m965.5 183.2-48-10.8-542.7 78.8M964 143.1l-47-17-539.5 93.2m585-120.6-45.3-18-536.8 105m320.2 153-2.6 77.9m24 2.8 21 .4m-43.7-1 11.3.4M443.3 261.6l-.1 2.4m1.3-23-1.1 18.7m455.3-28 18-2.4 50.5 6M836 238.6l2.8-.3M704 254l128.6-14.9m-371.6 43L643.9 261m-97.6 100.6 19-.6m25.1-45.9L433.6 327l-1.8 35.8 68.3-.1m16.6 28.6-.5 14.3"/><path class="cls-2" d="m518.7 344 1-23.6 3.4-84.2m-45.3 87.4-1.8 39m90.4-40.9 25.5-2m-153.6 6.9s-6.5-1.2-6.5-5.7c0-4.6 5-5.4 5-5.4m-4 0s-3-1-2.3-5.1c.6-3.6 4.5-5.2 4.5-5.2m-1.3-1.6s-12.7-.5-13.6-12.2c-1-11.7 9.8-17.6 9.8-17.6s-.2-5.5 5.5-10.3c4.9-4 12.7-5 15.5-2.5 3 2.7-.7 8-.7 8s10-6.4 14-1.3c4.2 5.4-2.9 15.4-7.3 18.8 0 0 4.5-1.1 5.5 2.4 1 4-2.2 8.5-8.1 11.3 0 0 2 3.8-5.8 6.3m3 .9s1.7 1.7.6 4.1a8.3 8.3 0 0 1-5.2 4.3m-2 3.4s2-2.2 5.2-1.8c3.2.5 3.3 3.4 2.8 4.9a5.8 5.8 0 0 1-3.4 3.4"/><path class="cls-2" d="M431.4 289s.2-5.4 4.4-8.3c3.6-2.5 5.8 1.5 5.3 3.3 0 0 1.3-5.4 5.5-5.8m275.5 78.6-7.4 11.1c-.4.5-.3 1.2.1 1.6l13.2 13.3-22 16.3c-.5.4-.7 1-.5 1.6l8.8 31.4"/><path class="cls-2" d="m715.7 435.3 16 5.8 1.4 12.3s4 1 7.2-.5c0 0-1.3-9.8-2.6-16.5-.1-.5-.5-.9-1-1a417 417 0 0 0-15.4-4.5l-8.2-29m2-1.6 21.5-16.8m-1-2.6L722 366.6l7.6-10"/><path class="cls-2" d="M735.6 453.7s-1 5.7-3.2 10.2m4.3-10.2s.5 6.5.6 14.3m.9-14.4s1 4.7 4.5 9.2m12 4.4-13 12.8m4.8-13.2 3 13.9m3.2-6.3-11.1-1.3m3.6-17 6-4.7-1.7-10 6.7 7.4 9.2-3-7.6 6.8 3.5 12.2-8.5-10.3-7.6 1.6zm3.5-129.4-15.3 3.4 2.2 14.6m14.8-16.2-2.2 8c-.2.6 0 1.1.4 1.4l6 3.8m1.3 2 .9 7.5"/><path class="cls-2" d="m729.4 342.8-2.4-17.2c0-.6.3-1.1.9-1.3 3.9-.9 17.4-4 26.6-5m3.5 2.1-4.2 13.9 7 5.4c.5.4.8.8 1 1.4l2.1 10.1m-39.2 11 12.4-.3m-37.3.7 18-.3m25.8 2.7-.6 62.1 74.5 2.2 6.6-.5 1-71.6h-39.8m33.2 0-1 72.1m6.7-7.1 38.6-1m0-11-.6 74.3m1-118.7-.3 38.4m-75.6 72.6 74.9 7.7m0 0 46.7-9.3-1-114.5M784.6 476.8l1.5-47.4m43.4-56.5 13.8-13.7a2 2 0 0 1 3.1.4l7.7 13.6a2 2 0 0 1-.1 2.2l-6.5 9.3-9.8 1.5 2.2 9.4 11.5-2.8"/><path class="cls-2" d="m854 393.8 5.7 11.8 14.2-1.7 1.6-9.6 6.2.8-2.7 13.1a1.7 1.7 0 0 1-1.5 1.4l-19.7 2.2c-.6 0-1.2-.2-1.5-.7l-5.6-9.7-13.9 1.9c-.7 0-1.4-.4-1.6-1.1l-4.5-18.2c-.1-.7.3-1.4 1-1.5L843 381l5-8.5-4-5.3-5 5.6"/><path class="cls-2" d="M876.6 386.7s1.7 5 1.6 8m1.2 0s2-5.3 6-8.8"/><path class="cls-2" d="m880.7 384.6 4.5-4.4-2.7-9 6.9 7.3 6.3-1.8-4.9 4.6 2 7-5.8-5.6-6.3 1.9zm90.7-22.9h-117m-6.6 11-23 .2m38.3-.4-9.4.1m-39.1-14.4 3.5-10.6a2 2 0 0 1 1.9-1.5l17.7-.3s-3.6-8.3-5.8-14.4a2.1 2.1 0 0 1 .2-1.7c1-2 3.6-7.2 6-11 .4-.5 1-.9 1.8-.7l14 2.4a2 2 0 0 1 1.7 1.7l1.9 14.6 8.4-.4s.3 3.1 0 6.3l-12 .2c-.7 0-1.3-.5-1.4-1.2l-1.8-12-7.5-3a.9.9 0 0 0-1 .3l-3.1 4.5s2.5 7.2 5.2 14.2c.2.6.2 1.2-.2 1.7l-1.8 3a2.6 2.6 0 0 1-2.2 1.1h-17.4l-1.6 6.8"/><path class="cls-2" d="M866 340.5s4.2.8 8.2 3.9M866 339l7-1m-106.3 9.5s-1.2-7.9 5-13.6 14.6-2.3 14.6-2.3m2-.6s-2.5-2-1.5-4.7c1.4-3.6 6.6-3.6 8.5-3"/><path class="cls-2" d="M793.5 323s-3.4-3.4-3.1-10.4 6.7-13.5 13.4-14.8m4.4-32.4s-8-.9-14.7 4.4-7.2 11-6.1 15.4 6.7 9.2 13.7 9.2m13-27s.2-5.7 4.5-8.8c4.2-3.2 9.5-1.1 11.9 1m6.9-1.4s-10.2-.4-9-12.7 14.4-18 22.6-18.6c10-.6 18 4 18 4m-.4-3.2s-4.8-1.3-3.8-5.4c.7-3 6.4-2 6.4-2"/><path class="cls-2" d="M872.8 221s-5-1.3-5-8.2 13.6-13.3 28.9-10m-.6-2.2s7.2-5.5 10.5-1.5c1.4 1.7.6 4.6-1.3 6.8a14.9 14.9 0 0 1-4.5 3.1"/><path class="cls-2" d="M892.7 208.5A23.2 23.2 0 0 1 906 211c7.7 4 7.3 11.4 2.6 17.4-4 4.9-15.5 9.8-23 10.7m3.7-29.8.8-.2m-7.3 34.6s6.2-.2 6.8 2.5-4.3 6-7.6 7.5c0 0 11-.5 11.8 6.5.8 8-10 11.6-27.2 13.1m-7 1.1s6.5 2.3 5.3 8.8c-1.3 7.4-10.6 14.6-35.5 18.5 0 0 14 2.1 16.9 8.8 2.4 5.5-2.4 8.3-2.4 8.3m.8-34.2 1.7-.8M826 268.4s-6 3.7-3.4 8c2 3.3 8.8 1.8 8.8 1.8s-2.6 5 4 7c2 .5 3.9.5 5.5.3m-42.1 55.3s-2.4 1.5-4.8.4c-1.2-.6-2.2-3.3.6-5.4 2.6-2 8.8-3.6 15-1 0 0-4.9-3.8-.7-7.8s10.9-3 10.9-3m39.5 20.3s5.7 2.5 4.9 6.6-8.5 6.9-8.5 6.9 10.3 1.4 10.4 6.6-8 8-8 8M703 264l-.4 12.7m2.1-73.4-1.4 47.2"/><path class="cls-2" d="m843.8 298.5 72.8-5.7 52.7 3.3m-271 12.2 98.1-7M499.5 126.9l77.1-16"/><path class="cls-3" d="m565 369.2 1.4-47.5-46.8-1.3"/><path class="cls-2" d="m862.8 422.2 45.6-2.8"/><path class="cls-3" d="m481.4 323.3-1.8 80.3 34.8 4.9m2.4-17.3-.6 14.3m1.3 3 46.6-5.6.6-19.9"/><path class="cls-2" d="M380.5 185.7 22 256m355.6-36.6-360 62.2"/></g><g id="error_triangle" data-name="error triangle"><path class="cls-7" d="m560 114.2-31.7 6.6-10.5.4-6.8.3a2.2 2.2 0 0 1-1.9-3.5l32.5-45.6a1.9 1.9 0 0 1 3.2.5l11.4 30.8 3.8 10.5Z"/><path fill="#ce8d1b" d="m511 121.5 45.2-17.8 3.8 10.5-31.7 6.6-17.3.7z"/><path class="cls-14" d="m488.8 125.1-.5-.4h-3.5l-3 5.8 2.2 1 1.3-1.7 3.2-.6-.2 1.7h3.2l1-8.4-3.5-.3-.2 2.9Zm3.7-2.6v8h2.7l.7-9.2-3.4.2v1zM506.9 125.3l-.7-4.2h-6.4l-3.9.2.5 8.3 3-.4.1-2.3 7.4-1.6ZM519.4 103.6l-15.3 10.3 2 7.2h-8l.7-9.2a1 1 0 0 1 .5-.8l18.3-8.9 4.3-2-2.5 3.4Zm61.5-.4-3.1 1-7.2 2.1-8.9 6-8.5-16.6 6.8 18.5 6-1.3 3.8-.8 6.9-1.4.1 3.3 2.4-.4h3v-.8h2.8l.4-1.5h2.4l1.3-1.7v-5.4l-8.2-1Z"/><path d="m536.5 107.3 1.9-22.1h6.2l-5.7 22h-2.3zm.4 2.8c3-.8 4 1.9 3 3.5-1.4 2-4.8 2.3-5.5.4-.5-1.4.6-3.3 2.5-3.9Z" style="fill:#241d2a;stroke:#000;stroke-linecap:round;stroke-linejoin:round"/><path class="cls-2" d="m485.3 129.8 3.2-.6m39.8-8.4-17.3.7a2.2 2.2 0 0 1-1.9-3.5l32.5-45.6a1.9 1.9 0 0 1 3.2.5l15.2 41.3-31.7 6.6Zm-40 4h-3.5l-3 5.7 2.2 1 1.3-1.7m0 0 1.2-1.4m6-5.9-3.5-.3-.7 8.7h3.2l1-8.4zm3.4-1.2-3.4.2v9h2.7l.7-9.2zm3.9-.2-3.9.2.5 8.3 3-.4.3-5.3"/><path class="cls-2" d="m503.9 122.2-4.1 1.7-.3 3 7.4-1.6-.7-4.2h-6.4m70-9-3.8.9-.4-3.3 3.9-1 1.1-2.3 7.2-2.1s1.6 3.4 1.9 4.3c.2 1-.6 5-.6 5l-2.3.4s0-3.3-.2-3.3l-6.8 1.5Z"/><path class="cls-2" d="m576.6 110.7-1.1-2.2-3.6 3.2m5.9-7.5 3.1-1s1.6 3.8 1.8 4.6-.6 5.8-.6 5.8h-3m1.8-10.4 8.2 1v5.4l-1.3 1.7h-2.4"/><path class="cls-2" d="m585 103.7.9 5.9-.9 3.2h-2.7m-45.8-5.5 1.9-22.1h6.2l-5.7 22h-2.3zm.4 2.8c3-.8 4 1.9 3 3.5-1.4 2-4.8 2.3-5.5.4-.5-1.4.6-3.3 2.5-3.9Zm-19.3-7.9-18.3 8.9a1 1 0 0 0-.5.8l-.6 9.2"/><path class="cls-2" d="m506.2 121.1-2.1-7.2 15.3-10.3m33.8-8 8.5 16.7 2.4-1.6"/></g><g id="sentry_character" data-name="sentry character"><path class="cls-14" d="m536.1 368.7 39.9.7 29.7-35.3 1.5-1.8 4.3-.6-1.1 7.5-26.6 41a4.2 4.2 0 0 1-3.2 1.8l-61.9 4c-4.8 5.4-20.1 18-23.2 17.1-3.1-.9-1.4-10.3 2.4-19a68.6 68.6 0 0 1 9.7-17c1.7-2.2 3.3-3.3 4.6-3.8a3 3 0 0 0 3.3.4l6.8 4.7"/><path class="cls-6" d="m692 329-9.4.5-4.4.3-7.4.4-3.2 12.8-.3 7.3 5.4 3.8 13.3.3 4-.8 7.3-16.7-5.3-8z"/><path class="cls-14" d="m630.7 382.8 5.8-17.5 10 3.5-3.8 19.8a5.4 5.4 0 0 1-1.4 2.7L599 434.9s-7.3 25.4-8.5 28.3c-2.5 6.1-5 7.1-7.7 3a61.6 61.6 0 0 1-5.3-35.5 2.9 2.9 0 0 1 1-1.8l49.7-43 2-1.8.4-1.2Z"/><path class="cls-7" d="M508.6 362s-2.7 2.4-5.6 1.6-4.7-7.6-4.7-7.6l-9.3-3 4.6-1.3-20-7 22.3 3-5.5-3.6 14 1.5s2.8-3.4 6-3.2 3.8 2.5 3.8 2.5-4.2 3-5.3 8.2-.3 9-.3 9Z"/><path class="cls-6" d="m546.2 368.9-10.1-.2-2.5-5.5c6 .2 11.6-.1 11.8-1.6.7-3.2-23.4-11.4-23.4-11.4h-.4l-.4-1.6s-1-3.6-5-2c-2.4 1-4 3-5.1 6.3-1.5 4-.8 8.8 1.1 10.4 2 1.6 4.1 0 4.1 0l1.4-1.3.6.3s4.9.5 10.5.8l2.4 5.6h-1s-3 1.2-4.2 6.8 1.6 10 1.6 10l17-1.1s-2.2-3.5-1.6-8.7c.5-5.3 3.2-6.8 3.2-6.8Z"/><path class="cls-14" d="m691.7 363.6 1.1 2.3-5.2 5h-13.3l11.5 5.6-2.5 3s-4-1.5-5.8-1.8-4.8 0-4.8 0l-61.4-21c-2-.7-3.2-2.7-3-4.8l10.5-66.6 3 2.2-2.5 57 40 10.6.5-6.2 2.7-2.6 2.1-3.3h3l-.5 2.6.2 4.7 5.4 3.8 13.3.3 7.4-1.5.4 4-1.7 1.1"/><path class="cls-6" d="M663.8 244.1s5.8-10.5 9-15.8 8.8-12.8 11.3-12.3 2.4 10.3 2 15.4-1.6 16-1.6 16v.5l1.3.6s14.4 6.4 20.8 9.5c6.3 3 8.5 6.4-12.4 2.8s-29.1-8.6-31-10.3c-2.3-2.2-.8-4-.8-4l1.4-2.4Z"/><path class="cls-7" d="M581.4 463.3c-1-2.3-2-5.5-2.8-9.3l-10.4 12 4.2-.9-11.2 12.8 20.2-14.6Zm17.3-27.3a2096.1 2096.1 0 0 1-5 17.4l2.4.8s8.6 2.5 12-1.7c2.8-3.2 1-7.6 1-7.6-8.6-2.4-10.4-8.9-10.4-8.9Z"/><path class="cls-6" d="M630.4 415.2c-2.7-1.7-17.6 7.8-17.6 7.8l-1.8 1-1.3-.2 4.5-4.6s-5-.3-7.9-5.2-1.1-8.2-1.1-8.2L593 416.3s-1.9 3.3.8 9a11 11 0 0 0 8.5 6l-1 1s-1 1.2.5 4.1c2.7 5.4 7.7 6.9 9.2 6.8s2.4-5.1 2.4-5.1l.7-1.1s4.5-4.3 8.6-9c4.7-5.6 9-11.9 7.6-12.8Z"/><path class="cls-14" d="m648.7 328.2-7.3 22.1 8.3 2.2 4.9-25-5.9.7z"/><path class="cls-14" d="M664.6 285.8c-2.4-8.2-4.8-13.9-4.8-13.9l8.3-8-3.5 22Zm31 39.6-3.4-15-1.1-4.8-11-48c-10.7-2.9-15.5-5.9-16.9-7.1l-19.5 8.4c.2.6 3 12 1.7 30.1-.2-.3-3-6-4.5-8.5l-8.3-16.2-24.9 9.7s3.2 12 4 25.2l-7-16.3-5.7-5.9-17.3 6.3a2.8 2.8 0 0 0-1.6 3.5l14.5 40c.7 2.1 2 4.4 3.4 5.3.7.6 1.8 1 3.3.8l10.2-1.2 8.4-1 14.2-1.6s.4-11-6.3-21.4l3.3-3.2 11.7 24.3 27.4-3s-.2-5.4-.8-12.3l7.5 12.7 18.8-.8Z"/><path d="m676.3 316.4 7.6-.3-11.7-56-4.1 3.9-3.5 21.8c.7 2.7 1.5 5.7 2.2 9a164.6 164.6 0 0 1 2.6 18.7l7.5 12.7-.6-9.8Zm-33.5 12.4-11.7-24.3 6.3-6.2s5.7 12.5 5.4 30.5Zm18.2-9.6-10.4 1.3a76.4 76.4 0 0 0-5.3-31.5c1.5-18.1-1.4-29.5-1.5-30 .3.5 8 14.7 12.3 29.6 4.3 15.1 4.9 30.6 4.9 30.6ZM599 277l15 38.9 2.7-17.4-9-24.5 4 25.2-7-16.3-5.7-5.9zm14.4 42.8-.9 5.5-4.2.4 5-6zm7.4-7.5a44.2 44.2 0 0 1 5.6 12l-6.2.6.6-12.6Z" style="fill:#8d5494"/><path class="cls-4" d="m654 330.5-6.4 1 1.1-3.3 5.9-.7-.6 3zm-48.3 3.6 1.5-1.8 4.3-.6-.4 3-6.7.9 1.3-1.5z"/><path class="cls-6" d="M695.4 304.7a262.8 262.8 0 0 0-15.2 30.1c-.5.8-2.2.5-3-.5-.8-1-.3-2-.3-2s9-18 17-31.4c0 0-1.3-2.8.7-4.7 1.5-1.4 4.6-1 6.3 1 2 2.3.6 5.5-1 6.2-1.9.8-3.5-.2-3.5-.2l-1 1.5Zm-13.2 70 1.6-3.8h-9.5l7.9 3.8zm-25.6-2.5-.9 2 2.4 6.8 22.5-2.5-3-.8c-1.9-.3-4.9 0-4.9 0l-16.1-5.5Z"/><path class="cls-14" d="m693.4 315.6 15.8 30.6a5.5 5.5 0 0 0 2.6 2.5 1601 1601 0 0 0 47.8 20.5c4.6 1.4 5.8 1.3 7.6-.1s11-11.5 11-11.5c1 .2 7.1.6 7.1.6v-3.5l-2.3-.6V353c-3-1-8.1-3-10-3.8a1.9 1.9 0 0 0-1.4 0l-9.4 3.7-48-14.8-19.6-32-2.4 4.2 1.2 5.3Zm-4.2-18.2 3.4 5.6-1.5 2.6-1.9-8.2z"/><path class="cls-4" d="M680 257.7c-10.6-3-15.4-6-16.8-7.2l-1.7.7s7.1 6.5 19.3 9.8l-.8-3.3Z"/><path class="cls-2" d="M514.2 345s-.6-2.5-3.8-2.6-6 3.2-6 3.2l-14-1.5 5.5 3.6-22.4-3 20.1 7-4.6 1.2 9.3 3s1.9 7 4.8 7.7 5.5-1.6 5.5-1.6"/><path class="cls-2" d="M521.2 348.6s-1-3.6-5-2c-2.4 1-4 3-5.1 6.3-1.5 4-.8 8.8 1.1 10.4 2 1.6 4.1 0 4.1 0"/><path class="cls-2" d="M522 350.2s-1-.3-2.2.3c-1.3.6-2.8 2-3.4 4.5-.6 2.5-.4 4.7.2 5.9.7 1.2 1.7 1.4 1.7 1.4s26.5 2.6 27.2-.7-23.5-11.4-23.5-11.4Z"/><path class="cls-2" d="m533.6 363.2-4.8-.1 4.6 10.8s.6.9 2.5.2 1.7-2.2 1.7-2.2l-4-8.7Zm-2.4 5.5-8.7-.3m84.7-36.1L576 369.4l-40-.7"/><path class="cls-2" d="M512.2 363.3c-1.3.5-2.9 1.6-4.7 3.9-3 4-6 8-9.6 16.8-3.8 8.8-5.5 18.2-2.4 19.1 3 1 18.4-11.7 23.2-17l61.9-4.1a4.2 4.2 0 0 0 3.2-1.9l26.6-41"/><path class="cls-2" d="M522.3 368.4s-4.5-3.2-6.8-4.7m30.7 5.2s-2.7 1.5-3.3 6.8 1.7 8.7 1.7 8.7M530 368.6s-3 1.2-4 6.9a14.9 14.9 0 0 0 1.4 10m119-16.7-3.8 19.8a5.4 5.4 0 0 1-1.4 2.7L599 434.9s-7.3 25.4-8.5 28.3c-2.5 6.1-5 7.1-7.7 3a61.6 61.6 0 0 1-5.3-35.5 2.9 2.9 0 0 1 1-1.8l49.7-43m26.3-58.3-4.9 25m-8.3-2.2 7.3-22.1m-18 54.6 5.8-17.5"/><path class="cls-2" d="M605.2 405.8s-1.7 3.2 1.1 8.2a10.5 10.5 0 0 0 8 5.2m-21.2-3s-1.9 3.4.8 9a11 11 0 0 0 8.5 6.1m3.8-4 7 1.5s2 .1 2.7-1.4c.7-2-1-2.6-1-2.6l-5.2-1"/><path class="cls-2" d="M606.2 430.3s.1 2.4 2.3 4.5c2.6 2.5 5.7 2.2 5.7 2.2s4.5-4.3 8.6-9c4.7-5.7 9-11.9 7.6-12.8-2.7-1.7-17.6 7.8-17.6 7.8m.7 15s-.8 5-2.4 5.1-6.8-1.2-9.2-6.7m7.2 8.5s1.7 4.4-1 7.6c-3.4 4.2-12 1.7-12 1.7m-14.7 9.1L561.2 478l11.2-12.7-4.2.8 10.4-12m84.6-203.5-19.5 8.4s3.1 11.5 1.6 30.1c0 0-2.8-6-4.4-8.5l-8.3-16.2-24.9 9.7s3.2 12 4 25.2l-7-16.3-5.7-5.9-17.3 6.3a2.8 2.8 0 0 0-1.6 3.5l14.5 40m96.5-21.2-11-48m4.1 68.3 11.5-.5-3.5-15"/><path class="cls-2" d="m620 330.7 14-1.6s.5-11-6.2-21.4l9.6-9.4s5.7 12.6 5.4 30.5l27.4-3s-.7-18.3-3.4-31a141.2 141.2 0 0 0-7-22.8l12.4-12 11.7 56-7.6.4.7 9.8 3.1-.1m-78.8 6.8 10.2-1.2M599 277l13.2 33.8-14.2 15.6c-2.5 2.6-1.4 7 3.3 6.5"/><path class="cls-2" d="m618.8 285.3-10.4 66.6c-.3 2.1.9 4.1 2.9 4.8l61.4 21s3-.3 4.8 0 5.8 1.8 5.8 1.8l2.5-3-11.5-5.6h13.3l5.2-5-1.1-2.3"/><path class="cls-2" d="M675.7 366h11.6l7.1-5-2.3-3-6 2.8h-11m17-2.8 1.7-1.1-.4-4-7.4 1.5-13.3-.2-5.4-4-.2-4.6.5-2.6h-3l-2.1 3.3-2.7 2.6-.4 6.2-40-10.6 2.5-57"/><path class="cls-2" d="M645.4 289s5.3 11 5.2 31.5l10.4-1.3s-.6-15.5-5-30.6-12.2-29.7-12.2-29.7m6.2 13 17.8-18.6m-26.9 27.2L621.3 301M607.7 274l9 24.5m-4.5 12.3 1.8 5-.6 4-5 6 4.1-.5m7.7-.4 6.2-.6s-1.7-6.3-5.6-12m22 16.5-11.7-24.3m45.9 21.7-7.6-12.7m-4.8-27.7L668 264m27.3 40.7a262.8 262.8 0 0 0-15.2 30.1c-.5.8-2.2.5-3-.5-.8-1-.3-2-.3-2s9-18 17-31.4c0 0-1.3-2.8.7-4.7 1.5-1.4 4.6-1 6.3 1 2 2.3.6 5.5-1 6.2-1.9.8-3.5-.2-3.5-.2m-4-19.6 2.5 8.6m9.9-12-4.3 12.2m5.2 3.3 7.6-3m-7.4 8.7 6.2 1.2"/><path class="cls-2" d="m682.5 329.5 9.5-.6 5.3 8-7.4 16.7M667.6 343l3.2-12.8 7.5-.4m-21.7 42.4-.9 2 2.4 6.8 22.5-2.5m3.2-7.6-1.6 3.8M658 381l3.1-7.3"/><path class="cls-2" d="m671.7 332.4 3.1 6.4 22.5-2m-22.5 2-4.9 13.4m-7.5-105.7s-1.5 1.8.8 4c1.9 1.7 10 6.6 31 10.3s18.8.2 12.4-2.8a1067.1 1067.1 0 0 0-20.8-9.5s-2 4.9-14.9 2.3m-7.1-6.7s5.8-10.5 9-15.8 8.8-12.8 11.3-12.3 2.4 10.3 2 15.4-1.6 16-1.6 16"/><ellipse cx="693.7" cy="339.8" rx="1" ry=".7" transform="rotate(-38.5 693.7 339.8)"/><ellipse cx="676.7" cy="340.9" rx="1" ry=".7" transform="rotate(-38.5 676.7 341)"/><ellipse class="cls-2" cx="689.6" cy="333.2" rx="1.9" ry="2.7" transform="rotate(-68.6 689.6 333.2)"/><path class="cls-2" d="m694.6 306.1 19.7 32 48 14.8 9.3-3.7c.4-.2 1-.2 1.4 0 1.9.8 7 2.9 10 3.8v1.1l2.3.6v3.5s-6.1-.4-7-.6c0 0-9.3 10-11 11.5s-3 1.5-7.7.1c-4-1.3-39.4-16.8-47.8-20.5a5.5 5.5 0 0 1-2.6-2.5l-15.8-30.6m-4.2-18.2 3.4 5.6"/><path class="cls-2" d="m783 354.1-5.7-1.6c-.4 0-.9 0-1.2.2l-5.8 3.4"/></g></svg>
