<svg viewBox="0 0 285 148.2" xmlns="http://www.w3.org/2000/svg"><path d="M124 53.3c-15.6-6.6-21-5.1-23.8-6.6-5.6-3.1 2.8-5.4 14.6-5.4s25.7.7 39.8.2 25.4 1.6 26 7c.6 7.1-40.9 11.5-56.5 4.8z" fill="#ece7f4"/><path d="M284.4 74c-1.8-3.2-13-1.4-13-1.4-11.6 1-34.2-9-65-11.9S135 73 101.6 61.3c-22.8-8-52.5-9.8-74.3-4.6-15.6 3.8-15 14-13.6 17.4 7 15.5 35.2 16.2 58.8 15.2-4.3-2.6-11-8-9.2-15.6 2.6-11 23.3-10.2 36.8-4.3 4.4 2 13.6 7.6 16.2 14.5a26.3 26.3 0 0 1-6.6 24.2c-8.5 8.3-25 11.6-36.9 13.6-14.8 2.5-37-6.4-46.7-6.5-5.2-.1-4.4 4.3-4.3 6.9.6 10.5 21.6 16.2 51.4 12.6s33.6 1.2 70.5 10.5 59.9-4.9 85.8-11.6 24.9-9.5 29.5-22.7c2.5-7.1-8-10.4-20.4-12.3-21.9-3.4-47.6 14.5-67.3 4.1-7.8-4-9.6-29.2 15.4-32.3 16.7-2 54.3 15.7 74.1 18.3s25.4-11.3 23.6-14.6z" fill="#ece7f4"/><path d="M174.3 70a1.4 1.4 0 0 1-2-1.5 1.5 1.5 0 1 1 2 1.5z" fill="#c8c1db"/><path d="M167.8 67.3c1-.8 2 .2 2.1.8a1.5 1.5 0 0 1-2.7 1.1 1.8 1.8 0 0 1 .6-2z" fill="#f4824e"/><path d="M63.7 89.7a151 151 0 0 1-4-5.9l-1 .7a21.2 21.2 0 0 0-2-3.6l.6-.8-.6-.9c-.9-1.4-1.4-2-2-1.2s-8 10.5-8.4 11.6a1.4 1.4 0 0 0 1 2l16 .1c1.3 0 1-1.4.4-2z" fill="#c8c1db"/><path d="m82.7 76.8 1.2 1.7 5.8-1L88 77l.3-1.3z" fill="#f4824e"/><path d="m58.5 28.4-1.6-1.8 4.6-4.4 5.4 1.2-.2-5.5 2.5.1-.1 7 4.1.2-.8 3.2-5.6-.3-.2-1.9-5-.7zM56.7 48l-1-20.2-2 .2v20.3zm-6.8 2.9 10-.2v2.2l-9.9.4zm-5.3 10-.3 3.2 20.6-.2-.5-3.2zM5.2 88.3h9.2l.2-5.9 3 .1 2.5 13 13.4 4.5 42.2.3v3.6l16 .1s-6.5 8.6-16.3 8.6H32.1l-14.9-11.2.1-6.8-5 5.6H5.2zm75.1 1.4 3.8-10 3.8-.7 5.9 9.5c.3.5.4.8-.3 1S81.3 90.9 81 90.9c-1 .2-1-.5-.7-1.3zm52.2-6.3-2.7 6.2 5.1.5.4-3.6.5-.3.6 1.6h1.6l-1-3.5h-.7l10.2-9.6 13.2 7.7.3-1.4-13.6-9zm1.2 16.7.4-2 2.5.1 19.4 9.7 17.7-7.4h3.6l-21.6 9.9z" fill="#c8c1db"/><path d="m141.3 116 3.2-2.2 27.6-.2 12.9-13h3.8L173 116zm72.3-30.6 16.6-3.6 5.4-14.3-1.4-3h7.6l-.4 4h-3.5l-6.2 15.7-18.8 3z" fill="#c8c1db"/><path d="M203.1 53h62.5s5-39.2 5-40.6 6.7-3.7 8-4.4 1-3.2 1.2-4.5 0-1.5-2.6-1.5c-3.2 0-8.6 0-11 1-1 .4-3.2 9.4-4.2 13s-3.9 18.2-5.6 20.8c-1.4 2.2-4 3-9.8 2s-13.6-3.5-22.7-1.3c-11.1 2.7-15.2 7.1-20.8 15.4zm-90.4 39.6h5.2l12.3 3.6 7-.4v1.3a51.1 51.1 0 0 0-6 .2c-.9.2 1 3.7 1 3.7a73.7 73.7 0 0 0-9 .1 56 56 0 0 0-9.2 2.3 33 33 0 0 1-1-5.3c-.3-2.7-.3-5.5-.3-5.5zm5.3 28 8.8 8.3 14.6-9.7a14.3 14.3 0 0 1-1-2.8c-.2-1 3.2-3.6 3.2-3.6l-.9-1.2-3.2 3.5z" fill="#f4824e"/><path d="M277.8.6a57.1 57.1 0 0 0-6.1 0c-1.7.1-2.6.9-5 5.9s-6.6 22.4-8.5 26.4-8.5 5.2-13.9 3.8S219 31 206.5 51h61.3s4.4-37.7 4.8-39.7 1.4-3 3.3-4 4.4-1.5 5-2.1.6-2.6.6-3.8c0-.3-.7-.5-1.8-.7m-43 65-.2 7.1h3.3V68m0-6.6V51h-2.5l-.5 12.1" fill="none" stroke="#3f2b56" stroke-linecap="round" stroke-linejoin="round"/><path d="M238.2 61.4h3.1v2h-3.1zm3.1 2h1v2h-4.4v-2zm-3.1 2h3.1v2h-3.1zm-3.1-1.2 1.7 1.5 1.1-1.4-2.3-2.5-3 2.4 1.9 2.9-4.8 13.5-16.1 4" fill="none" stroke="#3f2b56" stroke-linecap="round" stroke-linejoin="round"/><path d="m213 86.2 18-3.3 5.7-13.9M164.6 66.5c.2-.5.5-1.7 1.8-1.7h52.8c1.3 0 2 .6 1.4 2.2l-12.4 31a2.8 2.8 0 0 1-2.7 2h-48.2a1.7 1.7 0 0 1-1.8-2.4l9-31zM145 112.3l25.9.5 15-12.7h2.1l-15.4 14.6-30.1 1s-1-.4-.3-1.6a6 6 0 0 1 2.8-1.8z" fill="none" stroke="#3f2b56" stroke-linecap="round" stroke-linejoin="round"/><path d="m141.2 117.2-13.9 9.6-8.7-8 20.8-4.9a27 27 0 0 1 3.7-3.9l2 2.2m-12.3-12.6c-2.4 0-8.8.2-10.8.5a41.5 41.5 0 0 0-7.1 2s-1.4-6.6-1-10.7h6.4c1 0 12 4.3 12 4.3l5.6-.9.6 2.5 18.1 9.1 16.5-6.4" fill="none" stroke="#3f2b56" stroke-linecap="round" stroke-linejoin="round"/><path d="M175.8 100 156 109l-23-10.5c-.9-.5-.7-1.3.3-1.4a42.5 42.5 0 0 1 5.3.3" fill="none" stroke="#3f2b56" stroke-linecap="round" stroke-linejoin="round"/><path d="M219.2 64.8h-52.8c-1.3 0-1.6 1.2-1.8 1.7l-1.5 5.1 55.5.4 2-5c.5-1.6-.1-2.2-1.5-2.2zm-49 3.9a1.7 1.7 0 0 1-1.6 1 1.2 1.2 0 0 1-1-1.2 1.6 1.6 0 0 1 1.7-1.6c1 .1 1.1 1.3 1 1.8zm5.5-.2a1.6 1.6 0 0 1-2 1 1.3 1.3 0 0 1-.7-1.5 1.6 1.6 0 0 1 1.8-1.2c.7.1 1 .8.8 1.7zm5.3.1a1.4 1.4 0 0 1-1.6 1 1.2 1.2 0 0 1-1-1.4 1.5 1.5 0 0 1 1.8-1.3 1.2 1.2 0 0 1 .8 1.7z" fill="#3f2b56"/><path d="m168.6 67.7.7 1.2m-1 0 1.4-1.2m4 .5h1.3m5-.7-.3 1.4m-.7-.8h1.6m-12.7 6.5-5.8 20.6h41.3m-42-7.5 1.6-5.6m18 15.8h8.7m-26.9-5.2h2.3m-1.4-3.2h2m-1.1-3h2m-1-3.4h1.7m-.8-3.3h1.8m-1-2.8h1.7" fill="none" stroke="#3f2b56" stroke-linecap="round" stroke-linejoin="round" stroke-width=".5"/><path d="m166.5 92.2 5.5-8.5 2 7 8.8-15.4V91l4.2-7.3 1 3 5.7-10.2.5 12.2 3.2-4.5.6 6.6 8.3-15.3.5 7.8-1.3-4-7.6 13.8-1.4-5.3-3.1 4-.5-12-5.3 9.3-.8-3.5-4.3 7.7-1.1-13.3-7.7 12.8-2-7.2z" fill="#f4824e"/><path d="m160.2 81.5-13.8-8.3-10.5 10 1.5.1 1 3.1-1.2 1-1.3-2.5-1.3.8.7 5-1.5.3-.8-4.5-.6 4.5-1.6-.2.3-3.9-1.8 2.8-1-.7 3.4-6.4 14.5-12.1 14.4 9.7" fill="none" stroke="#3f2b56" stroke-linecap="round" stroke-linejoin="round"/><path d="M119.5 114H118.9v-.1a.7.7 0 0 1 0-.1v-.3a.3.3 0 0 1 0-.1s0-.1 0-.1v-.2H119.7l.1.2v.4s0-.1 0 0v.2l-.2.2a.3.3 0 0 0-.2.4.3.3 0 0 0 .4.1 1.4 1.4 0 0 0 .7-1.2 1.2 1.2 0 0 0-.6-1 1 1 0 0 0-.6-.1 1.2 1.2 0 0 0-.6.3 1.3 1.3 0 0 0-.4 1.4 1.2 1.2 0 0 0 .5.6 1 1 0 0 0 1 0 .3.3 0 0 0 0-.3c0-.2-.1-.4-.2-.3zm2.4-4.3a1.4 1.4 0 0 1-.8-2.2 1.2 1.2 0 0 1 1.6-.1 1.4 1.4 0 0 1 .5.7s0 .2 0 0v.2a1 1 0 0 1 0 .4 1.3 1.3 0 0 1-1.4 1c-.3 0-.3.4 0 .5a1.7 1.7 0 0 0 1.7-1.2 1.7 1.7 0 0 0 .2-.9 1.7 1.7 0 0 0-.6-1 1.8 1.8 0 0 0-2.1-.3 1.9 1.9 0 0 0 .8 3.3.3.3 0 0 0 .3-.2.3.3 0 0 0-.2-.2zm-12-20.5h-.4s.1 0 0 0h-.2a.8.8 0 0 1-.3-.2v-.6a.7.7 0 0 1 0-.2.7.7 0 0 1 .2-.1.4.4 0 0 1 .2 0 .2.2 0 0 1 .2 0H109.9a.6.6 0 0 1 0 .1v.8h-.1a.3.3 0 0 0 .2.5 1.7 1.7 0 0 0 .6-.7 1.3 1.3 0 0 0 .1-.7 1.2 1.2 0 0 0-.8-.9 1.2 1.2 0 0 0-1.3.4 1.3 1.3 0 0 0-.3.8 1.3 1.3 0 0 0 .2.7 1.2 1.2 0 0 0 .6.5 1 1 0 0 0 1-.1.3.3 0 0 0 0-.4.3.3 0 0 0-.2 0zm5.5-3.3h-.5v-.6c0-.2.1-.2.2-.2h.6v.4a.3.3 0 0 1 0 .1v.2h-.1l-.2.2a.3.3 0 1 0 .2.5 1.4 1.4 0 0 0 .7-1.3 1 1 0 0 0-.7-.9 1.2 1.2 0 0 0-1.2.6 1.3 1.3 0 0 0 0 1.2 1 1 0 0 0 .5.5 1 1 0 0 0 .7-.1.3.3 0 0 0 .1-.4.3.3 0 0 0-.3-.2zm-4-5.8a2.6 2.6 0 0 1-1-2 2.2 2.2 0 0 1 1.2-2 2.1 2.1 0 0 1 2.7.7 2.4 2.4 0 0 1 0 3.1 2.3 2.3 0 0 1-3 .2c-.3-.2-.5.2-.3.4a2.8 2.8 0 1 0 1-5 2.7 2.7 0 0 0-2 2 3.1 3.1 0 0 0 1 3c.3.2.7-.2.4-.4zM3.9 72.5a2 2 0 0 1-2.2 1A1.5 1.5 0 0 1 1 73a2 2 0 0 1-.5-1.2 2.1 2.1 0 0 1 .4-1.3 2.3 2.3 0 0 1 1.1-.8 1.6 1.6 0 0 1 1.8.6 2 2 0 0 1 .1 2.2c-.2.3.3.5.4.3a2.4 2.4 0 0 0 0-2.5 2.1 2.1 0 0 0-2.2-1.1 2.8 2.8 0 0 0-1.4.8 2.5 2.5 0 0 0-.7 1.5 2.3 2.3 0 0 0 1.3 2.3 2.3 2.3 0 0 0 1.4.2 2.9 2.9 0 0 0 1.6-1.2c.2-.3-.2-.6-.4-.3zm1.3-7.4H4.3a.3.3 0 0 1-.1 0V64.4a1 1 0 0 1 0-.2h.1l.1-.3h.7v.3a.2.2 0 0 1 0 .1v.2c0 .1 0 0 0 0v.2a.3.3 0 0 0 0 .4.3.3 0 0 0 .3 0A1.2 1.2 0 0 0 6 65a1.1 1.1 0 0 0 0-.7 1 1 0 0 0-.4-.6 1.3 1.3 0 0 0-.7-.1 1.4 1.4 0 0 0-.8.1 1.2 1.2 0 0 0-.4.6 1 1 0 0 0 .4 1.3 1.3 1.3 0 0 0 1.4 0 .3.3 0 0 0 .1-.3.3.3 0 0 0-.4 0zm8.6.4a.9.9 0 0 1-.3 0h-.3a.6.6 0 0 1-.2-.2h-.1l-.1-.2V65a1 1 0 0 1 0-.2v-.2a1.3 1.3 0 0 1 0-.2V64l.2-.1a1.3 1.3 0 0 1 .7-.4h.7V63.9a.8.8 0 0 1 .1.2v.1s0 .1 0 0a1 1 0 0 1 0 .2 1.2 1.2 0 0 1-.2.7 1.4 1.4 0 0 1-.2.2 1.2 1.2 0 0 1-.4.2c-.3 0-.2.6.1.5a1.6 1.6 0 0 0 1.2-1.4 1.7 1.7 0 0 0-.5-1.5 1.4 1.4 0 0 0-1.8.2 1.7 1.7 0 0 0-.4 1.8 1.6 1.6 0 0 0 .6.8 1.4 1.4 0 0 0 1.1.2.3.3 0 0 0-.2-.5zm-2.7-4.1a3.6 3.6 0 0 1-2.9-2.2 2.6 2.6 0 0 1 .8-3c2.1-1.7 5.6.1 5.4 2.9a2.6 2.6 0 0 1-.9 1.7 3.2 3.2 0 0 1-2.4.6c-.3 0-.3.5 0 .5a3.8 3.8 0 0 0 2.6-.5 3 3 0 0 0 1-1.6 3.7 3.7 0 0 0-1.4-4 4 4 0 0 0-4.2-.4A3 3 0 0 0 7.6 59a4 4 0 0 0 3.5 3c.3 0 .3-.5 0-.5zm25.5 19a.7.7 0 0 1-.3-1.3.7.7 0 0 1 1 .4.8.8 0 0 1-.7 1zm-.1-7.8c-.8.3-1.3-1-.5-1.3 1-.5 1.4 1 .5 1.4zm.1-6.8c-.9.7-1.5-.6-1-1.1.8-.7 1.9.5 1 1.1zm.2 22.2a.8.8 0 0 1-.4-1.5c1-.3 1.4 1.2.4 1.5zm-.3 7.8a.7.7 0 0 1-.5-1.2c.8-.6 1.5 1 .5 1.2zm.3 6.7c-.7.4-1.4-.6-.7-1.1s1.4.6.6 1zm.1 6.5a.6.6 0 0 1-.6-1.1.6.6 0 1 1 .6 1.1zm37.3-.5a.7.7 0 0 1-.9-1c.7-.7 1.6.6.9 1zm-.3-7.2a.6.6 0 1 1-.8-1 .6.6 0 1 1 .8 1zm0-7c-1 .3-1.3-1-.7-1.4 1-.7 1.7 1 .6 1.4zm.1-8.1a.7.7 0 0 1-.8-1.2.7.7 0 1 1 .8 1.2zm.3-7.4a.7.7 0 0 1-1-.9c.8-1 1.9.3 1 1zm.1-6.3a.7.7 0 1 1-.6-1.3.7.7 0 1 1 .6 1.3zm.4-6.7c-.8.6-1.5-.5-.8-1 .8-.7 1.6.3.8 1z" fill="#3f2b56"/><g stroke="#3f2b56" stroke-linecap="round" stroke-linejoin="round"><path d="M11.7 98.8h-5V75.3h5l7 9.3v6.7zm0-23.5v23.5M84 64.4a18.3 18.3 0 0 0-6.4-1.6" fill="none"/><path d="M77.6 111V62.8H33.4L18.8 73v28.2l14.6 9.8h44.2s21.1-3 21.1-24c0-11-5.7-17.5-11.3-20.9m-54-3.3V111" fill="none"/><path d="M78.8 102.3h12.7M82 65.6A21.6 21.6 0 0 1 92.3 73L90.8 74a28.4 28.4 0 0 0-9.4-6zm191-27.4a101 101 0 0 1 11.9-1M225.6 43a182.2 182.2 0 0 0 36.8-3l2.5-.5M8.6 37.2s12-4.2 33.9 1.2 36.7 6.2 63.4.3 50.5-4.7 73.3-.3a264.4 264.4 0 0 0 42.4 4.5m-134 74.3a97 97 0 0 1 19.5 2.3m-94.4-.8a54.5 54.5 0 0 0 22.8 4.1c15-.3 30-5.1 48.1-5.5m-75.8-1.1a21.8 21.8 0 0 0 2.6 1.5m223.4 8.3 4.2-.2m-25.2 3.1a189 189 0 0 1 18.2-2.7M101.5 124l3.6.6c21.7 4.2 30 12.8 58.8 11.8 17.3-.6 31.3-4 45.3-6.9m-140.8-1.8s11.2-5.5 28.3-4.2M228.2 57c9.5.4 17.7-.1 23.2-1.2" fill="none" stroke-width=".5"/><path d="M108.3 44.6a106.4 106.4 0 0 1 26.3-4.1c20-.3 37.2 7.4 59.6 12.3a199 199 0 0 0 29.4 4M100.4 47a135 135 0 0 1 5.8-1.8m-11.6 4 3-1.2" fill="none" stroke-width=".5"/><path d="m45.4 62.8 2.2-10.5 16.4-.8 2 11.3zM51.2 52V48h9.7v3.6zm3.4-4.2V25.6l5.3-5.4 8-.9v6l-6.6-1-3.4 3-1.2 20.6zM68 17.4v9.9l5 .1A20.3 20.3 0 0 0 73 17z" fill="none"/><path d="M73 17a19.6 19.6 0 0 0-.9 5.1 14.3 14.3 0 0 0 .8 5.3" fill="none"/><path d="M48.6 90.6h15.1c1.1 0 1.7-.5.7-2-1.1-1.6-6.7-10-7.2-10.5-.6-.9-.8-1-1.6.1L48 88.6c-.7 1-1 2 .7 2z" fill="none" stroke-width=".8"/><path d="m58.2 76 8.2 12c1.4 2.1 1 4.6-1.7 4.6H47c-.7 0-3-1-1.3-3.9s8.4-11.6 9.1-12.6 2.1-1.8 3.4 0z" fill="none" stroke-width=".5"/><path d="m81.4 89.8 4.1-11.4 2.7-.5 6.6 10zM87 78.2 86.8 89" fill="none" stroke-width=".8"/><path d="m82.4 86.9 4.5-.7a4 4 0 0 1 1.7 2.6" fill="none" stroke-width=".8"/><path d="M90.4 88.6a8.7 8.7 0 0 0-3.4-5l-3.4.4M92.3 88.3a15.5 15.5 0 0 0-5.2-7.5l-2.5.3m1.7 8-1.5 12.3h1.5M89 88.7l-1.4 12.7H89" fill="none" stroke-width=".8"/><path d="m82.5 86.7.4-1.2-1.4-.5-.6 1.4z" fill="#3f2b56" stroke-width=".8"/><path d="m81 86.4-2.6-1.7 5.5-1.7" fill="none" stroke-width=".8"/><path d="M94.4 81H96v1.4l-1.6.1z" fill="#3f2b56" stroke-width=".8"/><path d="M96 82.4v3.7L91.5 83" fill="none" stroke-width=".8"/><path d="m91 82.2 3.2-.4m-.7 0-.1-2.7L95 79v2.6m-10.7-3.3 6.8-1.2-2.3-.5.2-1.8s-3.9.7-6 1.3z" fill="none" stroke-width=".5"/></g></svg>
