<svg width="312" height="164" fill="none" xmlns="http://www.w3.org/2000/svg"><path d="m274.8 69 .6 53.5L3 119.9 1 65l273.8 4z" stroke="#FF7738" stroke-width="1.5"/><path d="m4.3 67.6-.7 51.5 269.2.8L274 68 4.3 67.6z" fill="#fff" stroke="#3E2C73" stroke-width=".8"/><rect x="215.3" y="85.9" width="41.8" height="14.4" rx="1" fill="#3E2C73"/><rect x="57.2" y="95.1" width="52.3" height="2" rx="1" fill="#C1B2DD"/><rect x="114.7" y="95.1" width="11.8" height="2" rx="1" fill="#C1B2DD"/><rect x="57.6" y="88" width="58" height="3" rx="1.5" fill="#3E2C73"/><rect x="118.6" y="88" width="53" height="3" rx="1.5" fill="#3E2C73"/><circle cx="31" cy="92.5" r="11.8" fill="#FF7738"/><rect x="229.6" y="92.5" width="14.4" height="1.5" rx=".8" fill="#fff"/><circle cx="32.4" cy="93.8" r="11.4" stroke="#3E2C73" stroke-width=".8"/><path d="m310 109.4.6 53.6-272.4-2.6-2-54.9 273.9 4z" stroke="#FF7738" stroke-width="1.5"/><path d="m39.6 108.1-.7 51.5 269.1.8 1.3-51.9-269.7-.4z" fill="#fff" stroke="#3E2C73" stroke-width=".8"/><rect x="250.5" y="126.4" width="41.8" height="14.4" rx="1" fill="#3E2C73"/><rect x="92.5" y="135.6" width="13.1" height="2" rx="1" fill="#C1B2DD"/><rect x="109.4" y="135.6" width="49.6" height="2" rx="1" fill="#C1B2DD"/><rect x="264.9" y="133" width="14.4" height="1.5" rx=".8" fill="#fff"/><rect x="92.6" y="128" width="74" height="3" rx="1.5" fill="#3E2C73"/><rect x="170.6" y="128" width="10" height="3" rx="1.5" fill="#3E2C73"/><circle cx="66.3" cy="133" r="11.8" fill="#5A4A79"/><circle cx="67.6" cy="134.3" r="11.4" stroke="#3E2C73" stroke-width=".8"/><path d="m310 5 .6 53.5-272.4-2.6-2-54.9 273.9 4z" stroke="#FF7738" stroke-width="1.5"/><path d="m39.6 3.6-.7 51.5 269.1.8L309.3 4 39.6 3.6z" fill="#fff" stroke="#3E2C73" stroke-width=".8"/><rect x="250.5" y="21.9" width="41.8" height="14.4" rx="1" fill="#3E2C73"/><rect x="92.5" y="31" width="13.1" height="2" rx="1" fill="#C1B2DD"/><rect x="109.4" y="31" width="49.6" height="2" rx="1" fill="#C1B2DD"/><rect x="264.9" y="28.4" width="14.4" height="1.5" rx=".8" fill="#fff"/><rect x="92.6" y="24" width="72" height="3" rx="1.5" fill="#3E2C73"/><rect x="167.6" y="24" width="9" height="3" rx="1.5" fill="#3E2C73"/><circle cx="66.3" cy="28.4" r="11.8" fill="#EDE7F5"/><circle cx="67.6" cy="29.7" r="11.4" stroke="#3E2C73" stroke-width=".8"/></svg>
