<svg width="475" height="156" fill="none" xmlns="http://www.w3.org/2000/svg"><path fill="#C1B2DD" d="M0 51h475v19H0z"/><path d="M5.157 150.973L4 3l463.919 1.928L472 154 5.157 150.973z" stroke="#3E2C73" stroke-width=".75"/><rect x="25" y="24" width="51" height="2" rx="1" fill="#C1B2DD"/><rect x="25" y="31" width="22" height="2" rx="1" fill="#3E2C73"/><rect x="39" y="86" width="22" height="2" rx="1" fill="#3E2C73"/><rect x="200" y="86" width="19" height="2" rx="1" fill="#3E2C73"/><mask id="a" fill="#fff"><rect x="188" y="83" width="8" height="8" rx="1"/></mask><rect x="188" y="83" width="8" height="8" rx="1" stroke="#C1B2DD" stroke-width="3" mask="url(#a)"/><rect x="256" y="86" width="19" height="2" rx="1" fill="#3E2C73"/><mask id="b" fill="#fff"><rect x="243" y="83" width="8" height="8" rx="1"/></mask><rect x="243" y="83" width="8" height="8" rx="1" stroke="#C1B2DD" stroke-width="3" mask="url(#b)"/><rect x="398" y="86" width="19" height="2" rx="1" fill="#3E2C73"/><rect x="430" y="86" width="22" height="2" rx="1" fill="#3E2C73"/><rect x="108" y="24" width="52" height="2" rx="1" fill="#C1B2DD"/><rect x="108" y="31" width="64" height="2" rx="1" fill="#3E2C73"/><rect x="295" y="24" width="77" height="2" rx="1" fill="#C1B2DD"/><rect x="295" y="31" width="63" height="2" rx="1" fill="#3E2C73"/><rect x="417" y="24" width="35" height="2" rx="1" fill="#C1B2DD"/><rect x="435" y="31" width="17" height="2" rx="1" fill="#3E2C73"/><rect x="25" y="83" width="8" height="8" rx="4" fill="#C1B2DD"/><path d="M108 84a1 1 0 011-1h28v8h-28a1 1 0 01-1-1v-6z" fill="#FF7738"/><mask id="c" fill="#fff"><rect x="295" y="82" width="79" height="10" rx="1"/></mask><rect x="295" y="82" width="79" height="10" rx="1" stroke="#FF7738" stroke-width="3" mask="url(#c)"/><rect x="39" y="109" width="22" height="2" rx="1" fill="#3E2C73"/><rect x="200" y="109" width="19" height="2" rx="1" fill="#3E2C73"/><mask id="d" fill="#fff"><rect x="188" y="106" width="8" height="8" rx="1"/></mask><rect x="188" y="106" width="8" height="8" rx="1" stroke="#C1B2DD" stroke-width="3" mask="url(#d)"/><rect x="256" y="109" width="19" height="2" rx="1" fill="#3E2C73"/><mask id="e" fill="#fff"><rect x="243" y="106" width="8" height="8" rx="1"/></mask><rect x="243" y="106" width="8" height="8" rx="1" stroke="#C1B2DD" stroke-width="3" mask="url(#e)"/><rect x="398" y="109" width="19" height="2" rx="1" fill="#3E2C73"/><rect x="430" y="109" width="22" height="2" rx="1" fill="#3E2C73"/><rect x="25" y="106" width="8" height="8" rx="4" fill="#C1B2DD"/><path d="M108 107a1 1 0 011-1h28v8h-28a1 1 0 01-1-1v-6z" fill="#FF7738"/><mask id="f" fill="#fff"><rect x="295" y="105" width="79" height="10" rx="1"/></mask><rect x="295" y="105" width="79" height="10" rx="1" stroke="#FF7738" stroke-width="3" mask="url(#f)"/><rect x="39" y="131" width="22" height="2" rx="1" fill="#3E2C73"/><rect x="200" y="131" width="19" height="2" rx="1" fill="#3E2C73"/><mask id="g" fill="#fff"><rect x="188" y="128" width="8" height="8" rx="1"/></mask><rect x="188" y="128" width="8" height="8" rx="1" stroke="#C1B2DD" stroke-width="3" mask="url(#g)"/><rect x="256" y="131" width="19" height="2" rx="1" fill="#3E2C73"/><mask id="h" fill="#fff"><rect x="243" y="128" width="8" height="8" rx="1"/></mask><rect x="243" y="128" width="8" height="8" rx="1" stroke="#C1B2DD" stroke-width="3" mask="url(#h)"/><rect x="398" y="131" width="19" height="2" rx="1" fill="#3E2C73"/><rect x="430" y="131" width="22" height="2" rx="1" fill="#3E2C73"/><rect x="25" y="128" width="8" height="8" rx="4" fill="#C1B2DD"/><path d="M108 129a1 1 0 011-1h28v8h-28a1 1 0 01-1-1v-6z" fill="#FF7738"/><mask id="i" fill="#fff"><rect x="295" y="127" width="79" height="10" rx="1"/></mask><rect x="295" y="127" width="79" height="10" rx="1" stroke="#FF7738" stroke-width="3" mask="url(#i)"/><path d="M472 152.433V1H3.173L2 155l470-2.567z" stroke="#FF7738" stroke-width="1.5"/><rect x="25" y="60" width="51" height="2" rx="1" fill="#5A4A79"/><rect x="108" y="60" width="52" height="2" rx="1" fill="#5A4A79"/><rect x="188" y="60" width="31" height="2" rx="1" fill="#5A4A79"/><rect x="243" y="60" width="32" height="2" rx="1" fill="#5A4A79"/><rect x="295" y="60" width="31" height="2" rx="1" fill="#5A4A79"/><rect x="395" y="60" width="22" height="2" rx="1" fill="#5A4A79"/><rect x="430" y="60" width="22" height="2" rx="1" fill="#5A4A79"/><rect x="110.375" y="84.375" width="36.25" height="7.25" rx=".625" stroke="#3E2C73" stroke-width=".75"/><rect x="110.375" y="107.375" width="36.25" height="7.25" rx=".625" stroke="#3E2C73" stroke-width=".75"/><rect x="110.375" y="129.375" width="36.25" height="7.25" rx=".625" stroke="#3E2C73" stroke-width=".75"/></svg>