<svg width="312" height="172" fill="none" xmlns="http://www.w3.org/2000/svg"><path d="M112.45 169.443L257 171l-1.116-148.632L110 22l2.45 147.443z" fill="#fff" stroke="#FF7738" stroke-width="1.5"/><path d="M112 24h143l-.808 45H112V24z" fill="#C1B2DD"/><path d="M112 145h142l-.802 23H112v-23z" fill="#5A4A79"/><rect x="146" y="86" width="76" height="2" rx="1" fill="#3E2C73"/><rect x="146" y="91" width="76" height="2" rx="1" fill="#3E2C73"/><rect x="146" y="81" width="76" height="2" rx="1" fill="#3E2C73"/><rect x="168" y="105" width="32" height="11" rx="1" fill="#3E2C73"/><rect x="179" y="110" width="11" height="1" rx=".5" fill="#fff"/><path d="M172 44a1 1 0 011-1h22a1 1 0 010 2h-22a1 1 0 01-1-1z" fill="#5A4A79"/><rect x="151" y="52" width="65" height="4" rx="2" fill="#5A4A79"/><path d="M254 167.644L112 168l1.811-142.744L253.847 24 254 167.644z" stroke="#3E2C73" stroke-width=".75"/><path d="M153.45 148.443L298 150 296.884 1.368 151 1l2.45 147.443z" fill="#fff" stroke="#FF7738" stroke-width="1.5"/><path d="M153 3h143l-.808 45H153V3z" fill="#C1B2DD"/><path d="M153 124h142l-.802 23H153v-23z" fill="#5A4A79"/><rect x="187" y="65" width="76" height="2" rx="1" fill="#3E2C73"/><rect x="187" y="70" width="76" height="2" rx="1" fill="#3E2C73"/><rect x="187" y="60" width="76" height="2" rx="1" fill="#3E2C73"/><rect x="209" y="84" width="32" height="11" rx="1" fill="#3E2C73"/><rect x="220" y="89" width="11" height="1" rx=".5" fill="#fff"/><path d="M213 23a1 1 0 011-1h22a1 1 0 010 2h-22a1 1 0 01-1-1z" fill="#5A4A79"/><rect x="192" y="31" width="65" height="4" rx="2" fill="#5A4A79"/><path d="M295 146.644L153 147l1.811-142.744L294.847 3 295 146.644z" stroke="#3E2C73" stroke-width=".75"/><path d="M100 122.854L1 123l1.262-58.486L99.893 64l.107 58.854z" stroke="#FF7738" stroke-width="1.5"/><path d="M99 121.859L3.237 121V65.497H98l1 56.362z" fill="#EDE7F5" stroke="#3E2C73" stroke-width=".75"/><path d="M3 66l48.254 35L98 66M3 120.5L37 91m61.5 30L66 90" stroke="#3E2C73" stroke-width=".75"/><path d="M122 140.854L23 141l1.262-58.486L121.894 82l.107 58.854z" stroke="#FF7738" stroke-width="1.5"/><path d="M121 139.859L25.237 139V83.497H120l1 56.362z" fill="#EDE7F5" stroke="#3E2C73" stroke-width=".75"/><path d="M25 84l48.254 35L120 84M25 138.5L59 109m61.5 30L88 108" stroke="#3E2C73" stroke-width=".75"/><path d="M302 119l-14 1-9 13 .5 11 8.5 10.5h13.5L311 144l.5-15-9.5-10z" fill="#FF7738"/><circle cx="294.5" cy="144" r="1" fill="#3E2C73"/><rect x="293.5" y="126" width="2" height="15" rx="1" fill="#3E2C73"/></svg>