<svg width="312" height="172" fill="none" xmlns="http://www.w3.org/2000/svg"><path d="M112.5 169.4 257 171l-1.1-148.6L110 22l2.5 147.4z" fill="#fff" stroke="#FF7738" stroke-width="1.5"/><path d="M112 24h143l-.8 45H112V24z" fill="#C1B2DD"/><path d="M112 145h142l-.8 23H112v-23z" fill="#5A4A79"/><rect x="146" y="86" width="76" height="2" rx="1" fill="#3E2C73"/><rect x="146" y="91" width="76" height="2" rx="1" fill="#3E2C73"/><rect x="146" y="81" width="76" height="2" rx="1" fill="#3E2C73"/><rect x="168" y="105" width="32" height="11" rx="1" fill="#3E2C73"/><rect x="179" y="110" width="11" height="1" rx=".5" fill="#fff"/><path d="M172 44a1 1 0 0 1 1-1h22a1 1 0 0 1 0 2h-22a1 1 0 0 1-1-1z" fill="#5A4A79"/><rect x="151" y="52" width="65" height="4" rx="2" fill="#5A4A79"/><path d="m254 167.6-142 .4 1.8-142.7 140-1.3.2 143.6z" stroke="#3E2C73" stroke-width=".8"/><path d="M153.4 148.4 298 150 296.9 1.4 151 1l2.5 147.4z" fill="#fff" stroke="#FF7738" stroke-width="1.5"/><path d="M153 3h143l-.8 45H153V3z" fill="#C1B2DD"/><path d="M153 124h142l-.8 23H153v-23z" fill="#5A4A79"/><rect x="187" y="65" width="76" height="2" rx="1" fill="#3E2C73"/><rect x="187" y="70" width="76" height="2" rx="1" fill="#3E2C73"/><rect x="187" y="60" width="76" height="2" rx="1" fill="#3E2C73"/><rect x="209" y="84" width="32" height="11" rx="1" fill="#3E2C73"/><rect x="220" y="89" width="11" height="1" rx=".5" fill="#fff"/><path d="M213 23a1 1 0 0 1 1-1h22a1 1 0 0 1 0 2h-22a1 1 0 0 1-1-1z" fill="#5A4A79"/><rect x="192" y="31" width="65" height="4" rx="2" fill="#5A4A79"/><path d="m295 146.6-142 .4 1.8-142.7 140-1.3.2 143.6z" stroke="#3E2C73" stroke-width=".8"/><path d="M100 122.9 1 123l1.3-58.5 97.6-.5.1 58.9z" stroke="#FF7738" stroke-width="1.5"/><path d="M99 121.9 3.2 121V65.5H98l1 56.4z" fill="#EDE7F5" stroke="#3E2C73" stroke-width=".8"/><path d="m3 66 48.3 35L98 66M3 120.5 37 91m61.5 30L66 90" stroke="#3E2C73" stroke-width=".8"/><path d="m122 140.9-99 .1 1.3-58.5 97.6-.5.1 58.9z" stroke="#FF7738" stroke-width="1.5"/><path d="m121 139.9-95.8-.9V83.5H120l1 56.4z" fill="#EDE7F5" stroke="#3E2C73" stroke-width=".8"/><path d="m25 84 48.3 35L120 84m-95 54.5L59 109m61.5 30L88 108" stroke="#3E2C73" stroke-width=".8"/><path d="m302 119-14 1-9 13 .5 11 8.5 10.5h13.5L311 144l.5-15-9.5-10z" fill="#FF7738"/><circle cx="294.5" cy="144" r="1" fill="#3E2C73"/><rect x="293.5" y="126" width="2" height="15" rx="1" fill="#3E2C73"/></svg>
