<?xml version="1.0" encoding="UTF-8"?><svg id="a" xmlns="http://www.w3.org/2000/svg" width="9.0047in" height="6.7513in" viewBox="0 0 648.3389 486.0955"><defs><style>.b,.c{fill:none;}.d,.c{stroke:#2f1d4a;stroke-linecap:round;stroke-linejoin:round;}.d,.e{fill:#2f1d4a;}.f{fill:#f58452;}.g{fill:#ecb532;}.h{fill:#e7e1ec;}.i{fill:#ff9c88;}.j{fill:#ffc1a9;}.k{fill:#7e62ae;}.l{fill:#b39ed3;}.m{fill:#e0557a;}.n{fill:#8374a8;}</style></defs><polygon class="i" points="572.8338 264.9816 572.8338 240.8628 568.0833 240.1629 566.2914 264.0001 572.8338 264.9816"/><polygon class="i" points="601.5767 269.2936 599.6023 244.8108 595.1988 244.1619 595.7544 268.4201 601.5767 269.2936"/><polygon class="j" points="468.8493 486.0955 595.2238 115.9091 0 0 121.6327 305.2017 468.8493 486.0955"/><path class="l" d="m610.5386,246.4222l-17.51-2.58c-.1599-2.77-.3999-5.9-.6299-8.79-.42-5.27-.8401-9.73-.8401-9.73l8.5801,1.14-15.24-43.47-5.7001,7.61c9.64,24.85,8.9401,47.47,8.63,52.47l-21.53-3.17c.3201-15.64-6.49-27.3-6.49-27.3l-4.99,5.35c4.92,7.57,5.1001,17.32,4.96,20.9901l-22.58-3.33c-1.62-.24-2.37-2.15-1.34-3.43l7.6399-9.47,3.8601-4.77,14.6399-18.15,2.6602-3.29c7.2,12.64,8.47,25.61,8.47,25.61l5.8199.72c-2.42-14.65-7.64-25.36-10.73-30.73l16.49-20.43c1.14-1.41,3.37-1.05,4,.65l25.7899,69.21c.9701,2.6-1.21,5.29-3.96,4.89Z"/><polygon class="l" points="186.8847 293.7998 217.4301 307.9174 292.8952 277.1153 260.2963 268.1314 186.8847 293.7998"/><path class="n" d="m603.6886,236.6222l-10.9401-1.55-.3499-.02c-.42-5.27-.8401-9.73-.8401-9.73l8.5801,1.14,3.5499,10.16Z"/><path class="n" d="m580.1487,234.2422l-8.92-1.19s-.7301-15.97-9.2301-33.26l2.6602-3.29c7.2,12.64,8.47,25.61,8.47,25.61l5.8199.72c.59,3.57,1.01,7.38,1.2001,11.41Z"/><path class="n" d="m544.5887,231.3922l3.45-5-4.54-3.68,3.8601-4.77c5.96,6.21,6.1499,14.63,6.1499,14.63l-8.9199-1.1801Z"/><path class="n" d="m563.285,220.7173c-1.6973-5.0667-3.4763-8.119-3.4763-8.119l-4.9912,5.3513c4.9224,7.5731,5.0972,17.3245,4.9637,20.9899l3.5038-18.2223Z"/><path class="c" d="m497.5954,175.574c.3238.6423.6289,1.3305.9034,2.0649l-10.4865,9.6629-3.1295-3.2393s.7686-1.7569,2.3608-1.9765l-2.9099-.8784"/><path class="j" d="m555.6487,207.6622l-1.67,2.08-54.79,20.59c-.92.35-1.95-.14-2.2599-1.08l-.9001-2.7-16.1299-48.44s5.6399-6.24,12.25-9.28c0,0,3.1799,2.25,5.45,6.7401,0,0,.52-.69,1.54-1.65,1.9199-1.79,5.6099-4.49,10.8899-5.09l.3301,3.42.1599,1.71s-4.1699,1.86-6.6399,4.17c0,0-1.49,2.33-2.9401,6.62-.3199.97-.64,2.03-.95,3.2l5.37,31.14,7.48-1.7,42.8101-9.73Z"/><polygon class="h" points="647.8387 283.0522 646.0586 327.1422 490.1886 301.0222 486.6187 257.0822 493.4487 253.0722 643.8287 275.6322 647.8387 283.0522"/><polygon class="j" points="647.8387 283.0522 486.6187 257.0822 493.4487 253.0722 643.8287 275.6322 647.8387 283.0522"/><path class="j" d="m569.2786,314.2722v39.23s-1.4099.51-3.8499,1.2c-3.2101.9301-8.2001,2.19-14.0701,3.11-9.25,1.43-12.05-.2-9.79-2.43,4.76-4.67,14.1899-9.58,18.23-12.02l1-13.68.97-13.31.24-3.31,7.27,1.21Z"/><path class="j" d="m629.7087,256.1822l-58.6801,18.36c-.3899.12-.8099.03-1.0999-.25-.6602-.62-1.3701-1.31-2.1001-2.03-3.11-3.08-6.4099-6.6-6.4099-6.6l-17.6001,4.58c-.28-.47-.49-.99-.6399-1.46-.27-.87-.3501-1.59-.3501-1.59l17.73-6.62c1.78-3.36,3.7-5.78,4.8301-7.07.5499-.63,1.45-.82,2.21-.46,8.77,4.17,13.04,7.86,13.04,7.86l37.8099-10.23-3.9501-9.14-4.2799-11.49-.01-.01-9.4401-25.35,30.0601,48.49c.7,1.13.14,2.61-1.12,3.01Z"/><path class="j" d="m617.1287,374.9622c-9.9401-6.52-17.27-15.57-18.97-17.75-.24-.31-.3801-.68-.3901-1.08l-.3599-15.52-.2101-8.98-.2899-12.73,8.7899,1.48,1.87,23.27.37,4.55c6.9401,14.53,9.4801,22.63,10.35,25.95,0,.01.01.02,0,.03.16.66-.58,1.15-1.1599.78Z"/><path class="m" d="m245.4606,305.3285c-6.1985,12.273,10.2133,21.8757,30.7488,22.875,20.5301.999,32.3339-6.5746,32.7825-15.6949.3534-7.1864-8.5628-16.987-35.7986-17.2917-13.1781-.1474-24.6283,3.965-27.7327,10.1117Z"/><path class="m" d="m524.2083,194.4778c5.7936.2938,6.9381-1.3672,7.0759-2.056.1602-.801-1.485-2.187-6.2215-2.3497-3.0104-.1034-6.4971.7276-6.3283,2.1628.1068.9079,1.4139,2.037,5.4738,2.2429Z"/><path class="f" d="m434.3139,241.6085c1.2574,4.586-7.9702,6.5838-15.1633,6.2872-7.1748-.2959-16.0509-2.8847-15.9029-7.0269.1088-3.0451,6.1067-5.3631,13.2401-5.2517,9.4678.1479,16.8845,2.5572,17.8261,5.9913Z"/><path class="n" d="m587.8287,243.0722c-1.6599-31.48-11.09-49.33-11.09-49.33l2.46-3.14c9.64,24.85,8.9401,47.47,8.63,52.47Z"/><path class="n" d="m56.7773,180.9413c-5.1471-1.1813-7.2566-3.122-7.2566-3.122l-8.4379,2.3626,3.4501,6.2183s3.4532-.3837,6.0751-1.1511c0,0,4.0065,2.3249,7.8226,2.3774l-1.6534-6.6852Z"/><path class="n" d="m98.3762,167.1032l-5.4003,7.0034-9.3661.0844c-3.9658,4.6408-11.6418,6.6377-11.6418,6.6377l-2.8714,7.7067c-4.3877.675-10.3786.2531-10.3786.2531l4.9356,7.7795s5.1799.2558,10.4237-.3837l1.9185-8.1854s7.3541-2.2382,10.5516-5.8833h9.5923s2.558-2.4301,4.2206-5.6276l-1.9842-9.3849Z"/><path class="l" d="m90.6992,162.4582s1.52-5.06-1.6-10.29l7-7.34s-.88-1.4-3.13-2.85c-.62-.41-1.35-.81-2.19-1.2l-8.52,4.22s-.15-.06-.44-.15c-1.03-.32-3.78-1.03-6.9-.7l-1.03-4.2401-.32-1.33s-4.81-.16-9.03,1.44l-1.82,5.8199s-4.86,1.77-7.85,4.54l-4.02-1.44-2.26-.82-6.58,6.5,1.73,1.4,3.5,2.8199s-2.61,3.6201-2.44,8.01l-7.4301,6.08s.29.75.79,1.84c.68,1.52,1.74,3.69,2.92,5.41l8.44-2.36s2.11,1.94,7.26,3.12l1.94,7.85s5.99.42,10.38-.25l2.87-7.71s7.67-2,11.64-6.64l9.37-.08.76-.98,4.64-6.02-7.68-4.65Zm-33.84,9.12c-5.9901-3.97-3.04-11.82,1.52-15.7,6.2-5.28,12.47-5.76,16.7-4.84,1.2.26,2.23.64,3.05,1.05,3.71,1.85,7.59,8.1801-.85,16.28-4.38,4.21-13.57,7.63-20.31,3.28-.04-.02-.07-.05-.11-.07Z"/><path class="n" d="m45.5756,162.1659c.7181-2.0083,1.6669-3.3318,1.6669-3.3318l-5.2315-4.2189,3.5638,7.5502.0008.0006Z"/><path class="n" d="m78.1252,152.0837c-3.7127-1.8563-11.7858-2.9828-19.7447,3.7971-4.5565,3.8814-7.5097,11.7287-1.5188,15.6945,1.0554.6986,2.1766,1.1837,3.3273,1.5224-.6037-2.2139-.4327-5.6869,3.7844-9.7191,5.576-5.3315,13.5464-5.5321,18.3466-4.1897.1185-3.4995-2.0623-6.0389-4.1948-7.1052Z"/><path class="n" d="m90.6976,162.4623l2.9016,1.7537h0c.7061-2.4316,0-5.3947,0-5.3947l4.2957-5.2372-1.7969-8.757-7.0035,7.3409c3.1221,5.2315,1.6032,10.2943,1.6032,10.2943Z"/><path class="h" d="m564.5486,88.2322l-.47,8-3.0601,52.61c-.0399.68-.5999,1.21-1.2799,1.21l-25.53.13-8.86,41.56-7.48-42.66h-22.8101c-.72,0-1.3199-.5699-1.36-1.29l-2.49-47.17-.41-7.69c-.04-.82.5701-1.52,1.39-1.58l7.64-.58.95,6.28.9001-6.41,60.7-4.55c1.22-.09,2.24.91,2.1699,2.14Z"/><path class="e" d="m564.5486,88.2322l-.47,8-72.87,4.39-.41-7.69c-.04-.82.5701-1.52,1.39-1.58l7.64-.58.95,6.28.9001-6.41,60.7-4.55c1.22-.09,2.24.91,2.1699,2.14Z"/><path class="m" d="m498.9654,94.1486c1.488.8928,1.1422,3.3259-.9672,3.4969-1.8353.1488-2.5049-1.6368-2.0089-2.6289.415-.83,1.7548-1.6008,2.9761-.868Z"/><path class="f" d="m505.6659,93.931c1.3754.8253,1.0558,3.0742-.894,3.2323-1.6964.1375-2.3153-1.513-1.8568-2.4299.3836-.7672,1.622-1.4797,2.7509-.8023Z"/><path class="g" d="m512.336,93.3459c1.4745.8847,1.1318,3.2956-.9584,3.4651-1.8185.1474-2.4821-1.6219-1.9906-2.6049.4112-.8225,1.7388-1.5862,2.949-.8601Z"/><path class="g" d="m507.7496,135.4112l16.0184-31.4606c.3106-.61,1.1799-.616,1.4989-.0103l16.3886,31.1211c.3761.7143-.1409,1.5726-.9481,1.574l-32.1707.0569c-.6587.0012-1.0858-.6943-.787-1.2812Z"/><polygon class="d" points="522.6912 112.5193 526.4491 112.394 525.2591 124.6697 523.6933 124.7324 522.6912 112.5193"/><path class="d" d="m522.9065,129.0516c.4385-.9755,1.797-1.252,2.6444-.4407.9386.8985.6202,2.0972.1097,2.5203-.6307.5226-1.442.4639-2.1263.018-.6821-.4444-.955-1.3695-.6278-2.0975Z"/><path class="h" d="m385.2092,191.5481c.0499.84-.41,1.63-1.16,2-3.7201,1.81-15.6901,7.23-34.9801,12.09l-9.5898-14.45,3.1699,15.98c-6.3101,1.42-13.28,2.75-20.9,3.87-7.61,1.12-15.86,2.03-24.73,2.62l-21.33,95.0492-16.95-94.9392c-43.9701-3.42-75.4601-19.57-75.4601-19.57l5.13-103.17.9099-18.4c.03-.59.5701-1.02,1.1602-.9,6.45,1.31,40.46,7.46,79.5599.55,9.65-1.71,18.96-4.14,27.7799-7.03l2.76,10.04,3.1401-12.05c35.27-12.6,61.8199-31.65,69.83-37.77,1.0599-.81,2.6-.1,2.67,1.2401l1.7999,32.98,7.1901,131.86Z"/><path class="e" d="m378.0192,59.6882c-96.17,46.21-189.61,31.34-189.61,31.34l.9099-18.4c.03-.59.5701-1.02,1.1602-.9,6.45,1.31,40.46,7.46,79.5599.55,9.65-1.71,18.96-4.14,27.7799-7.03l2.76,10.04,3.1401-12.05c35.27-12.6,61.8199-31.65,69.83-37.77,1.0599-.81,2.6-.1,2.67,1.2401l1.7999,32.98Z"/><path class="n" d="m316.4991,149.5381c-.36,14.39-15.15,40.3-44.92,38.25-22.9399-1.58-35.2-22.37-36.96-34.28-3.37-22.82,8.8201-43.59,29.6899-49.4v-.01c2.25-.62,4.6001-1.08,7.04-1.34.75-.08,1.51-.15,2.28-.19,29.99-1.75,43.38,26.18,42.87,46.97Z"/><polygon class="h" points="291.5714 152.1639 288.4544 138.4374 295.3849 150.3732 307.7155 146.931 296.4703 153.5 302.1228 171.7421 293.0188 155.2814 283.4436 157.8422 291.5714 152.1639"/><path class="g" d="m339.2092,109.1081l-9.6501,12.5c-.21.27-.5798.37-.8899.23-2.05-.92-9.4-4.18-12.16-5.28l-5.71,7.98c2.0199,4,3.5099,8.35,4.46,12.6,0,0-6.14-6.14-10-10.24-.47-.5-.9-.97-1.2899-1.39-.26-.29-.3-.71-.1001-1.04,1.26-2.11,5.95-9.75,11.03-15.33.22-.25.5801-.3.87-.15l1.6901.9,8.6599,4.61,7.0601-9.11,1.83,1.13,4.2001,2.59Z"/><path class="f" d="m290.7292,194.8882l-13.9701,10.53,7.2999,8.92c.1401.17.2001.4.1501.63l-1.6401,7.54-4.1399-1.32-1.8401-.59,2.3401-5.12-8.6899-9.49-.7001-.77c-.51-.55-.4501-1.42.12-1.9l12.9099-10.83c-1.8199-3.03-3.3699-4.79-3.3699-4.79-2.42.23-4.96.27-7.6201.09,0,0,5.3501-4.97,7.75-6.91.27-.21.6401-.18.8701.06,1.54,1.61,7.0699,7.5,10.74,12.63.3.43.2,1.01-.21,1.32Z"/><path class="j" d="m235.5591,212.8581l-6.5299,13.88-.01-.01c2.66-7.07,1.9501-15.52-1.7101-24.15-3.4199-8.09-9.4199-16.34-17.6299-23.76-17.0801-15.44-40.6101-17.22-52.73-7.07l-.01-.01,8.8799-8.34s21.8901-12.02,48.5701,9.9c8.5601,7.04,13.72,14.01,16.8101,20.09,5.72,11.25,4.3599,19.47,4.3599,19.47Z"/><path class="i" d="m186.3591,207.9382s-4.9399-10.59-17.1699-14.52c-11.49-3.69-20.9401,1.3-21.3301,1.51-.1599-6.29,1.22-12.38,4.3601-17.67,2.3398-3.94,5.8499-6.93,10.0999-8.91h.01s16.3601,1.48,22.26,16.29c5.8801,14.73,1.77,23.3,1.77,23.3Z"/><path class="f" d="m186.3591,207.9382s-20.6799-1.16-27.4399,15.55c-6.8401-8.45-10.8301-18.74-11.0601-28.56.39-.21,9.8401-5.2,21.3301-1.51,12.23,3.93,17.1699,14.52,17.1699,14.52Z"/><path class="m" d="m195.0991,243.7281c-7.6899-1-15.83-4.1-23.8899-9.23-4.73-3.02-8.8701-6.78-12.29-11.01,6.76-16.71,27.4399-15.55,27.4399-15.55,0,0-5.6199,7.7-1.6699,21.46,1.6499,5.74,5.95,10.61,10.4099,14.33Z"/><path class="k" d="m230.5092,220.2381c-.58,6.1-3.16,11.55-7.96,15.8-7.39,6.54-17,9.05-27.4501,7.69-4.46-3.72-8.76-8.59-10.4099-14.33-3.95-13.76,1.6699-21.46,1.6699-21.46,0,0,3.3401,7.31,17.2,12.7,8.8301,3.43,20.01,1.48,26.9501-.4Z"/><path class="m" d="m202.2098,83.386c-.7425,4.4114-4.5421,4.9477-6.5953,4.062-2.2275-.9609-3.3231-3.3556-2.8827-5.8091.3057-1.7034,2.5083-4.9365,6.2459-3.7562,2.4896.7862,3.562,3.5433,3.2321,5.5033Z"/><path class="f" d="m213.828,79.2803c3.6252,1.1356,3.0657,5.0913,2.4459,6.2895-.6552,1.2666-2.3135,3.5214-5.6344,2.839-3.1884-.6552-3.8436-3.7126-3.1448-5.8091.7321-2.1962,3.5122-4.2032,6.3332-3.3195Z"/><path class="g" d="m229.7265,79.9791c3.4505.8735,3.4505,4.4114,2.9264,5.7654-.5038,1.3015-2.1517,3.7608-5.8964,2.839-2.839-.6988-3.885-3.3701-3.1011-5.7217.8299-2.4896,3.7042-3.4819,6.0711-2.8827Z"/><path class="m" d="m266.7192,126.6382c.08.28.0499.57-.0901.82l-4.5,7.8199c-1.3999.11-2.34-.19-2.95-.61-.95-.62-1.15-1.49-1.15-1.49l3.49-6.55-1.76-5.75-1.9-6.21c-.1-.33-.05-.69.14-.97l6.3099-9.59v-.01c2.25-.62,4.6001-1.08,7.04-1.34l-8.1099,12.55,3.48,11.33Z"/><path class="b" d="m248.2085,179.7737c.9985.6102,5.9915.2773,7.2673-.8876,1.276-1.165,2.552-3.2177,2.8848-5.936.333-2.7184.5549-6.5622-1.2205-8.9952-1.3683-1.8753-4.6835-4.2468-8.5437-5.9735-2.2343,2.6984-3.887,5.6318-4.7708,8.367-2.33,7.212,3.3842,12.8151,4.3828,13.4254Z"/><path class="l" d="m281.217,149.4279s-6.9346-4.2316-18.2517-3.1622c-4.644.4388-9.2866,2.572-13.1713,5.2577,1.1501.4805,2.3802,1.0865,3.6176,1.7982,2.9314-2.2651,6.3422-4.0135,10.053-4.7813,9.6528-1.9971,17.7524.8876,17.7524.8876Z"/><path class="l" d="m262.8591,162.2381c-1.8699-3.62-5.6899-6.76-9.45-8.92-1.23-.71-2.46-1.31-3.62-1.79-1.54-.65-2.9401-1.0699-4.02-1.22-3.8199-.54-13.09-.77-19.97,2.39-8.61,3.96-17.79,15.92-17.79,15.92v.02c.78.5,1.5699,1.03,2.35,1.59,1.3301.94,2.67,1.96,4.03,3.07.2.17.38.34.5801.5l.01-.01s1.9399-3.33,8.1499-9.83c5.8601-6.13,15.45-8.63,20.95-7.55-1.21,1.28-2.22,2.55-2.9199,3.7-2.89,4.76-3.87,9.07-1.9299,14.89,1.9399,5.83,5.21,9.71,9.3699,9.93,4.16.23,8.74.24,12.3701-3.82,2.83-3.17,4.77-13.26,1.8899-18.87Zm-14.6499,17.54c-1-.61-6.7101-6.22-4.3801-13.43.8801-2.74,2.53-5.67,4.77-8.37,3.8601,1.73,7.17,4.1,8.54,5.98,0,0,.01.0099.02.02,1.76,2.43,1.53,6.26,1.2,8.97-.33,2.72-1.61,4.77-2.8799,5.94-1.2301,1.11-5.8701,1.47-7.1301.96-.09-.04-.1399-.07-.1399-.07Z"/><path class="l" d="m209.6792,178.8182c-.4073-.3683-.8198-.7256-1.2341-1.0784.0107.0344,3.1846,10.1761-3.9905,19.5424-7.6448,9.9794-18.0962,10.6524-18.0962,10.6524l.0007.0036s3.3401,7.31,17.2,12.7c8.8301,3.43,20.01,1.48,26.9501-.4,1.2001-12.79-6.41-28.38-20.83-41.42Z"/><path class="g" d="m204.4592,197.2781c-7.6501,9.98-18.1001,10.66-18.1001,10.66,0,0,4.1101-8.57-1.77-23.3-5.8999-14.81-22.26-16.29-22.26-16.29,12.52-5.87,31.4701-3.08,46.1201,9.39v.01c.1299.43,3.03,10.35-3.99,19.53Z"/><polygon class="l" points="608.8111 288.317 608.8111 306.9924 620.1914 298.8948 608.8111 288.317"/><polygon class="l" points="624.4226 291.0891 624.4226 308.7432 636.1488 301.2 624.4226 291.0891"/><polygon class="l" points="563.3629 302.1047 577.7184 294.6637 563.3629 282.408 563.3629 302.1047"/><path class="j" d="m47.8392,168.2981l-9.68,6.47c-.5-1.09-.79-1.84-.79-1.84l7.4301-6.08c-.17-4.39,2.44-8.01,2.44-8.01l2.0216,1.4859c-2.9,4.43-1.4216,7.9741-1.4216,7.9741Z"/><path class="j" d="m50.8492,148.9382c-2.22,2.04-5.24,5.13-7.11,7.08l-1.73-1.4,6.58-6.5,2.26.82Z"/><path class="j" d="m74.0053,140.386c-4.45,0-7.5187,1.0883-7.5187,1.0883l-.9574,5.6638c-4.6992.98-8.1232,3.88-8.1232,3.88l-2.5368-.64c2.9901-2.77,7.85-4.54,7.85-4.54l1.82-5.8199c4.22-1.6,9.03-1.44,9.03-1.44l.4361,1.8079Z"/><path class="j" d="m92.9692,141.9781l-7.66,3.69-3.05-.67,8.52-4.22c.84.39,1.57.79,2.19,1.2Z"/><path class="j" d="m73.3892,173.6681c-9.45,3.42-14.23.45-16.42-2.02,6.74,4.35,15.93.93,20.31-3.28,8.44-8.1,4.56-14.43.85-16.28-.82-.41-1.85-.79-3.05-1.05,2.77-.21,5.17.27,7.96,3.48,5.75,6.64-2.03,16.39-9.65,19.15Z"/><path class="j" d="m245.7692,150.3082c-13.61,1.24-19.85,4.71-23.15,7.32-3,2.36-9.87,9.94-12.26,12.6-.78-.56-1.5699-1.09-2.35-1.59v-.02s9.1801-11.96,17.79-15.92c6.88-3.16,16.15-2.93,19.97-2.39Z"/><path class="j" d="m260.5392,174.6282c-.1901,1.48-1.557,5.6452-4.88,6.55-4.2315,1.1522-5.8651-.1312-7.3101-1.33,1.26.51,5.9.15,7.1301-.96,1.2699-1.17,2.5499-3.22,2.8799-5.94.3301-2.71.5601-6.54-1.2-8.97.21.24,1.8999,2.19,2.9299,3.52.8501,1.1.6401,5.66.4501,7.13Z"/><path class="j" d="m263.3591,127.2482l-4.1799,7.42c-.95-.62-1.15-1.49-1.15-1.49l3.49-6.55-1.76-5.75,3.6,6.37Z"/><path class="j" d="m284.2491,194.5682l-14.0099,11.42-.7001-.77c-.51-.55-.4501-1.42.12-1.9l12.9099-10.83,1.6801,2.08Z"/><polygon class="j" points="280.1492 216.2381 278.4292 221.1882 276.5891 220.5981 278.9292 215.4781 280.1492 216.2381"/><path class="j" d="m317.4592,109.8882c-5.47,5.89-10.24,13.65-12.2001,17.01-.47-.5-.9-.97-1.2899-1.39-.26-.29-.3-.71-.1001-1.04,1.26-2.11,5.95-9.75,11.03-15.33.22-.25.5801-.3.87-.15l1.6901.9Z"/><polygon class="j" points="335.0092 106.5182 327.7892 115.4482 326.1191 114.4982 333.1792 105.3882 335.0092 106.5182"/><path class="i" d="m630.8287,253.1722l-30.0601-48.49,7.4612,20.0225,19.3389,28.6274c.27.37.1001.89-.34,1.02l-55.0114,16.5867-9.5535-7.5744-19.4851,5.4177c.1499.47.3599.99.6399,1.46l17.6001-4.58,6.4099,6.6c.73.72,1.4399,1.41,2.1001,2.03.2899.28.71.37,1.0999.25l58.6801-18.36c1.26-.4,1.8199-1.88,1.12-3.01Z"/><path class="i" d="m498.4986,177.6422l-.1099.1-.79-2.17c.3201.64.63,1.33.8999,2.0699Z"/><path class="i" d="m500.9386,184.7522c1.0878-3.5939,2.9401-6.62,2.9401-6.62,2.9688-2.636,6.6399-4.17,6.6399-4.17l-.1599-1.71c-1.2039.4606-8.955,4.405-8.955,4.405l-2.2649-2.735-1.54,1.65.8999,2.0699-.0609.2346-.049-.1345-10.3801,9.56-3.1299-3.24s.77-1.76,2.3699-1.98l-4.4195-1.2679,3.5635,10.8381,7.966-4.3502,7.6418,32.6109,3.3582-.8209-5.37-31.14c.3099-1.17.63-2.23.95-3.2Z"/><path class="i" d="m553.9787,209.7422l-54.79,20.59c-.92.35-1.95-.14-2.2599-1.08l-.9001-2.7,57.9501-16.81Z"/><polygon class="i" points="562.0086 313.0622 569.2786 314.2722 569.2786 332.2122 560.7986 329.6822 561.7686 316.3722 562.0086 313.0622"/><polygon class="i" points="607.5687 343.6522 597.4087 340.6122 597.1987 331.6322 596.9087 318.9022 605.6987 320.3822 607.5687 343.6522"/><path class="j" d="m162.9142,173.0268c8.8329-5.6923,17.6678-6.2316,27.1431-5.4807-10.0114-3.1204-20.072-2.7876-27.7281.8019h-.01c-4.25,1.98-7.76,4.97-10.0999,8.91-3.1401,5.29-4.52,11.38-4.3601,17.67.1843,7.8738,2.7913,16.0475,7.3413,23.335-1.4917-4.8427-3.4806-12.2848-4.0054-18.9766-.8682-11.0681,1.9531-19.966,11.7191-26.2596Z"/><path class="i" d="m235.5591,212.8581l-6.5299,13.88-.01-.01c2.66-7.07,1.9501-15.52-1.7101-24.15l3.8901-9.19c5.72,11.25,4.3599,19.47,4.3599,19.47Z"/><path class="l" d="m590.4288,375.1422c-2.9501.65-9.9302,1.54-14.4401,1.06-8.0599-.85-13.76-3.75-13.76-3.75l-6.2001-5.84,7.1001,2.62s-2.16-8.64-1.0801-8.91c1.0801-.27,7.23,8.68,7.23,8.68v-54.73l7.0801,1.19.12,1.29.2999,3.24,4.75,51.09.25-.36c.16-.27.4301-.66.75-1.13l.25-.36v-.01c1.72-2.48,4.75-6.48,5.9401-5.85,1.14.62-2.17,8.22-2.3199,8.56.1899-.08,2.71-1.21,5.25-2.08l.6099-.27s4.1501-1.12,4.4601-.58c.7799,1.4-6.2899,6.14-6.2899,6.14Z"/><path class="n" d="m576.7786,319.9922l-.2999-3.24h-.0004s-.1196-1.29-.1196-1.29l-7.0801-1.19.0028,9.0739,5.5549,1.5288,1.9424,43.7173s1.73,1.43,3.5901,4.21l1.1599-1.72-4.75-51.09Z"/><path class="n" d="m582.5286,369.5922l-.75,1.13c.16-.27.4301-.66.75-1.13Z"/><path class="f" d="m585.5791,38.9125s-.9626,6.738-11.9358,7.9893c-8.2891.9453-13.7646.1925-17.1338,9.1443-3.3689,8.9518-7.8929,9.2406-10.2031,7.4117-2.3101-1.8289-1.3477-4.3315.1925-5.2941,0,0-7.2191-1.3476-11.7433,5.4866-2.4049,3.6329-3.106,8.7003-5.5828,11.0695-2.214,2.1176-5.0054,1.5401-6.738-.8663,0,0,1.6364,5.3904-2.9839,8.3743-8.7743,5.6667-19.2513,4.524-23.0835,8.8077h0l3.465-.2595.9447,6.2753.8979-6.4133,60.7029-4.547s.7734-1.2642-2.1143-2.8043-1.1409-6.0641,4.2905-6.738c5.4314-.6738,12.3618-2.2139,14.0945-6.3529,0,0-5.968,2.6952-7.9894-2.1177-1.7461-4.1573,3.2948-7.1353,6.8112-7.762.0751-.0134.0657-.1157-.0105-.1203-1.8167-.1079-4.9661-.8083-5.2606-4.3423-.5776-6.9305,13.441-6.0539,13.3796-16.9412Z"/><path class="e" d="m115.158,308.1775c-.2139,0-.4111-.1377-.4775-.3525-.082-.2637.0664-.5439.3301-.625l150.1387-46.2734c.2637-.084.543.0664.625.3301s-.0664.5439-.3301.625l-150.1387,46.2734c-.0488.0156-.0986.0225-.1475.0225Z"/><path class="e" d="m437.9588,362.3709c-.0508,0-.1035-.0078-.1543-.0244l-127.3457-41.3945c-.2627-.085-.4062-.3672-.3213-.6299s.3691-.4053.6299-.3213l127.3457,41.3945c.2627.085.4062.3672.3213.6299-.0684.2119-.2646.3457-.4756.3457Z"/><path class="e" d="m247.284,300.3904c-.0508,0-.1035-.0078-.1543-.0244l-2.5596-.832c-.2627-.0859-.4062-.3672-.3213-.6299s.3701-.4062.6299-.3213l2.5596.832c.2627.0859.4062.3672.3213.6299-.0684.2119-.2646.3457-.4756.3457Z"/><path class="e" d="m203.4314,286.1355c-.0508,0-.1035-.0078-.1543-.0244l-8.1543-2.6514c-.2627-.0859-.4062-.3672-.3213-.6299s.3701-.4072.6299-.3213l8.1543,2.6514c.2627.0859.4062.3672.3213.6299-.0684.2119-.2646.3457-.4756.3457Z"/><path class="e" d="m527.5828,314.5515c-.0332,0-.0664-.0029-.1006-.0098l-238.1143-48.2607c-.2705-.0547-.4453-.3193-.3906-.5898.0547-.2715.3145-.4434.5898-.3906l238.1143,48.2607c.2705.0547.4453.3193.3906.5898-.0479.2373-.2568.4004-.4893.4004Z"/><path class="e" d="m217.4305,308.4177c-.0713,0-.1436-.0156-.21-.0459l-30.5459-14.1182c-.1846-.0859-.2988-.2744-.2891-.4785.0098-.2031.1416-.3799.334-.4473l73.4121-25.668c.0967-.0342.1982-.0381.2979-.0107l5.8613,1.6152c.2666.0742.4229.3486.3496.6152-.0732.2656-.3467.4199-.6152.3496l-5.7109-1.5742-72.0986,25.209,29.2275,13.5088,51.1211-20.8662c.2539-.1045.5469.0176.6514.2744.1045.2549-.0186.5469-.2744.6514l-51.3223,20.9482c-.0605.0244-.124.0371-.1885.0371Z"/><path class="e" d="m281.9305,282.0906c-.1973,0-.3838-.1172-.4629-.3115-.1045-.2549.0186-.5469.2744-.6514l9.6045-3.9209-7.9795-2.1982c-.2666-.0742-.4229-.3486-.3496-.6152.0742-.2656.3447-.4199.6152-.3496l9.3955,2.5889c.2061.0576.3535.2393.3662.4531.0127.2129-.1123.4111-.3105.4922l-10.9648,4.4756c-.0615.0254-.125.0371-.1885.0371Z"/><path class="e" d="m184.9666,160.7293c-.0078,0-.0166,0-.0244-.0005-.2764-.0137-.4883-.2485-.4746-.5244l2.6084-52.5015c.0137-.2744.2383-.4863.5234-.4746.2764.0137.4883.2485.4746.5244l-2.6084,52.5015c-.0127.2671-.2334.4751-.499.4751Z"/><path class="e" d="m275.6844,309.2088h-.0107c-.2383-.0059-.4395-.1777-.4814-.4121l-16.8779-94.5645c-7.5049-.5981-15.1426-1.6089-22.708-3.0059-.2715-.0503-.4512-.311-.4014-.5825.0508-.2715.3164-.4531.583-.4009,7.6621,1.4146,15.3965,2.4316,22.9912,3.022.2266.0176.4131.1865.4531.4106l16.5078,92.501,20.791-92.624c.0488-.2163.2344-.375.4551-.3896,15.6074-1.0376,30.7725-3.1821,45.0801-6.375l-3.0781-15.4995c-.0469-.2344.0791-.4688.2998-.5601.2207-.0898.4746-.0132.6074.186l9.3916,14.1509c18.7549-4.751,30.3906-9.9473,34.5391-11.9692.5752-.2803.9238-.8774.8887-1.521l-8.9912-164.8359c-.0244-.4438-.2793-.8188-.6807-1.0044-.3984-.1836-.8447-.1338-1.1943.1328-7.4004,5.6514-34.2568,25.0439-69.709,37.749l-3.0732,11.8027c-.0566.2192-.2539.3726-.4795.374h-.0039c-.2246,0-.4219-.1504-.4824-.3672l-2.625-9.5361c-9.2207,2.9873-18.4199,5.3013-27.3516,6.8794-39.1709,6.9224-73.3027.7515-79.7471-.5552-.1338-.0293-.2686.0039-.376.0874-.1104.0859-.1748.2114-.1826.353l-1.3711,27.5947c-.0127.2754-.2441.4902-.5234.4746-.2764-.0137-.4883-.2485-.4746-.5244l1.3711-27.5942c.0205-.4312.2275-.8296.5664-1.0933.3359-.2612.7656-.3628,1.1895-.2783,6.4131,1.3013,40.3789,7.4419,79.374.5513,9.0469-1.5991,18.3701-3.9565,27.7129-7.0073.1318-.0425.2725-.0298.3916.0347.1211.0649.209.1758.2461.3076l2.2686,8.2407,2.6699-10.252c.041-.1602.1592-.2891.3154-.3447,35.4385-12.6548,62.2988-32.0488,69.6865-37.6914.6504-.4961,1.4814-.5864,2.2207-.2461.7334.3384,1.2158,1.0503,1.2598,1.8579l8.9912,164.8359c.0576,1.0464-.5117,2.0176-1.4492,2.4746-4.2012,2.0479-16.0283,7.3296-35.0752,12.1265-.1992.0508-.4209-.0308-.5391-.2085l-8.1875-12.3359,2.6807,13.4951c.0527.2656-.1162.5254-.3809.585-14.3838,3.2373-29.6357,5.417-45.3359,6.479l-21.2529,94.6821c-.0518.2285-.2549.3906-.4883.3906Z"/><path class="e" d="m339.4783,191.6907c-.2305,0-.4375-.1602-.4883-.394l-2.0459-9.4468c-.0361-.1665.0146-.3394.1348-.4595l9.3682-9.3682c.0674-.0669.1514-.1138.2441-.1343l11.7988-2.6387c.2725-.0605.5361.1099.5977.3789.0596.269-.1094.5366-.3789.5967l-11.6572,2.6069-9.0723,9.0728,1.9873,9.1802c.0586.27-.1123.5361-.3828.5947-.0352.0078-.0713.0112-.1055.0112Z"/><path class="e" d="m346.8006,172.8757c-.2148,0-.4131-.1387-.4785-.3545l-3.1348-10.3218-3.4922-4.0093c-.1816-.2085-.1602-.5244.0488-.7056.208-.1821.5244-.1587.7051.0483l3.5625,4.0903c.0469.0532.0811.1157.1016.1831l3.166,10.4238c.0801.2646-.0693.5435-.333.624-.0488.0146-.0977.0215-.1455.0215Z"/><path class="e" d="m343.6346,162.4519c-.1064,0-.2129-.0337-.3037-.103-.2197-.168-.2607-.4814-.0938-.7007l6.4648-8.4443c.168-.2197.4824-.2612.7012-.0933.2197.168.2607.4814.0938.7007l-6.4648,8.4443c-.0986.1289-.2471.1963-.3975.1963Z"/><path class="e" d="m185.5301,149.3748c-.1816,0-.3564-.0991-.4453-.272-.126-.2456-.0283-.5474.2178-.6729l8.2129-4.2075c.1475-.0771.3242-.0728.4717.0083l7.5205,4.2075c.2412.1348.3271.4395.1924.6807-.1357.2407-.4424.3247-.6807.1924l-7.2871-4.0771-7.9746,4.0854c-.0723.0376-.1504.0552-.2275.0552Z"/><path class="e" d="m193.743,145.1672c-.0801,0-.1611-.019-.2373-.0596-.2432-.1309-.334-.4341-.2031-.6772l1.8467-3.4307c.1318-.2437.4326-.335.6777-.2036.2432.1309.334.4341.2031.6772l-1.8467,3.4307c-.0908.168-.2627.2632-.4404.2632Z"/><path class="e" d="m300.5828,97.1384c-.165,0-.3271-.082-.4219-.2324l-3.2617-5.146c-.0693-.1089-.0938-.2397-.0684-.3662l1.1123-5.5269c.0547-.271.3252-.4473.5889-.3916.2705.0547.4463.3184.3916.5889l-1.0732,5.3301,3.1543,4.9766c.1484.2329.0791.542-.1543.6899-.083.0527-.1758.0776-.2676.0776Z"/><path class="e" d="m225.5271,93.7254c-22.7031,0-36.8398-2.1465-37.2002-2.2041-.2734-.0435-.459-.2993-.416-.5723s.3047-.4629.5723-.415c.9316.1479,94.3965,14.3164,189.3213-31.2949.25-.1191.5479-.0151.667.2339.1201.249.0156.5479-.2334.6675-58.5225,28.1196-116.5029,33.585-152.7109,33.585Z"/><path class="e" d="m238.7723,165.866c-.1787,0-.3506-.0957-.4414-.2646-1.5088-2.8257-2.666-5.6753-3.4404-8.4692-.0742-.2661.082-.542.3477-.6157.2715-.0723.543.083.6152.3481.7559,2.7236,1.8857,5.5049,3.3604,8.2661.1299.2437.0381.5464-.2061.6763-.0752.04-.1553.0591-.2354.0591Z"/><path class="e" d="m274.8729,188.4026c-1.1006,0-2.2119-.0386-3.3281-.1152-5.1338-.354-10.0264-1.686-14.543-3.958-.2471-.124-.3457-.4248-.2217-.6714.124-.2485.4238-.3457.6709-.2222,4.3975,2.2124,9.1621,3.5088,14.1621,3.8535,2.5654.1768,5.0977.147,7.5361-.0903.2549-.0176.5195.1738.5459.4492.0264.2749-.1748.5195-.4502.5459-1.4287.1387-2.8916.2085-4.3721.2085Z"/><path class="e" d="m285.3748,187.1267c-.2236,0-.4277-.1509-.4844-.3774-.0684-.2676.0938-.5396.3613-.6074,20.4805-5.1875,30.4551-24.916,30.7471-36.6162.2061-8.3638-1.7998-17.1577-5.6484-24.7622-.125-.2461-.0254-.5469.2207-.6719.2451-.125.5469-.0264.6719.2207,3.9219,7.749,5.9658,16.7119,5.7559,25.2383-.2998,12.0063-10.5195,32.2461-31.501,37.561-.041.0103-.083.0151-.123.0151Z"/><path class="e" d="m234.2527,150.8948c-.2559,0-.4746-.1963-.4971-.4565-1.9111-22.0098,10.5566-41.2344,30.3291-46.7866.0293-.0146.0596-.0269.0918-.0356,2.3428-.645,4.7383-1.1011,7.1201-1.355.7588-.0811,1.5273-.1519,2.3057-.1924,18.0391-1.0542,28.5762,8.4028,34.2324,16.522.1582.2266.1025.5381-.124.6958-.2256.1577-.5391.103-.6963-.1245-5.5098-7.9087-15.7705-17.1123-33.3564-16.0947-.7637.04-1.5146.1089-2.2559.188-2.2979.2451-4.6084.6826-6.8701,1.3003-.0283.0142-.0576.0259-.0889.0342-19.3535,5.3877-31.5625,24.2056-29.6914,45.7617.0244.2754-.1797.5176-.4551.5415-.0146.0015-.0293.002-.0439.002Z"/><path class="e" d="m302.1229,172.242c-.1768,0-.3467-.0942-.4375-.2578l-8.915-16.1187-9.1982,2.4595c-.2354.0625-.4805-.0522-.582-.272-.1025-.2202-.0322-.4819.167-.6206l7.8516-5.4858-3.042-13.3984c-.0547-.2412.0742-.4858.3047-.5762.2275-.0913.4902,0,.6152.2144l6.7363,11.6016,11.958-3.3384c.2432-.0679.498.0547.5947.2866.0986.2314.0098.4995-.208.6265l-10.9023,6.3687,5.5352,17.8628c.0762.2446-.0459.5073-.2812.6079-.0645.0273-.1309.04-.1963.04Zm-9.1045-17.4604c.1787,0,.3477.0962.4375.2578l6.749,12.2021-4.2119-13.5938c-.0693-.2222.0244-.4624.2256-.5796l7.8965-4.6128-8.5957,2.3994c-.2178.0625-.4521-.0322-.5674-.2305l-5.2842-9.1016,2.3906,10.5303c.0449.1982-.0342.4043-.2012.5205l-5.7988,4.0518,6.8311-1.8267c.043-.0117.0859-.0171.1289-.0171Z"/><path class="e" d="m315.2576,137.6399c-.1299,0-.2578-.0503-.3535-.1465-.0771-.0771-7.7588-7.7681-11.3018-11.6475-.4141-.4546-.4805-1.1118-.166-1.6357,1.3145-2.2012,6.001-9.8198,11.0957-15.4141.373-.4082.9766-.5122,1.4717-.25l9.9824,5.3159,6.7998-8.7788c.1562-.2021.4395-.2529.6582-.1191l6.0322,3.7217c.1201.0742.2041.1963.2295.3354.0254.1396-.0098.2832-.0967.3955l-9.6523,12.498c-.3525.4561-.9668.6123-1.4922.3765-2.0693-.9224-8.8203-3.9229-11.7754-5.1255l-5.3125,7.4185c1.8975,3.8071,3.4053,8.1035,4.3691,12.4473.0479.2173-.0527.4399-.248.5469-.0752.0415-.1582.0615-.2402.0615Zm.1699-28.2378c-.0586,0-.1152.0229-.1553.0674-5.0332,5.5254-9.6748,13.0723-10.9775,15.2539-.0859.1436-.0674.3232.0469.4487,2.6621,2.915,7.6816,8.002,10.0166,10.355-.9668-3.7734-2.3389-7.4629-4.0098-10.7627-.084-.166-.0684-.3652.04-.5166l5.7168-7.9839c.1338-.188.3809-.2583.5908-.1733,2.7402,1.0913,10.0117,4.3228,12.1748,5.2876.1064.0459.2266.0156.2939-.0742l9.3135-12.0591-5.1768-3.1938-6.7832,8.7568c-.1494.1934-.4141.25-.6309.1353l-10.3545-5.5142c-.0332-.0181-.0703-.0269-.1055-.0269Z"/><path class="e" d="m336.2615,107.7898c-.0752,0-.1494-.0166-.2197-.0508-.1719-.084-.2803-.2583-.2803-.4492v-7.1626c0-.2764.2236-.5.5-.5s.5.2236.5.5v6.1392l10.3584-8.0737c.2178-.1694.5322-.1318.7021.0874.1699.2178.1309.5317-.0869.7017l-11.166,8.7026c-.0898.0698-.1982.1055-.3076.1055Z"/><path class="e" d="m336.2615,107.7898c-.0713,0-.1436-.0151-.2129-.0474-.25-.1177-.3574-.4155-.2393-.6655l5.0059-10.6514c.1172-.25.4141-.3564.665-.2397.25.1177.3574.4155.2393.6655l-5.0059,10.6514c-.085.1812-.2646.2871-.4521.2871Z"/><path class="e" d="m282.574,223.0076c-.0508,0-.1025-.0078-.1514-.0234l-5.9863-1.9082c-.1367-.0439-.248-.1436-.3057-.2744-.0586-.1309-.0576-.2803.002-.4102l2.2051-4.8174-9.1709-10.019c-.3369-.3687-.5059-.8462-.4727-1.3457.0322-.4995.2617-.9517.6455-1.2734l12.584-10.5522c-1.3467-2.1958-2.5215-3.6655-2.9395-4.1675-2.4141.2192-4.916.2407-7.4414.0679-.1992-.0137-.3711-.1445-.4375-.3325-.0664-.1875-.0146-.397.1309-.5327.0537-.0498,5.3896-5.0049,7.7822-6.9258.4688-.376,1.1328-.332,1.5479.104,1.5986,1.6743,7.0986,7.5347,10.7803,12.6855.46.644.3213,1.5249-.3164,2.0059l-13.5518,10.2148,6.9629,8.5146c.2422.2949.335.6787.2549,1.0527l-1.6338,7.5425c-.0293.1377-.1162.2568-.2383.3271-.0762.0449-.1631.0674-.25.0674Zm-5.2969-2.7129l4.9248,1.5693,1.5166-7.0044c.0156-.0737-.0029-.1499-.0508-.2085l-7.293-8.9175c-.0869-.105-.126-.2412-.1094-.376.0156-.1353.0869-.2578.1953-.3398l13.9678-10.5283c.1973-.1489.2441-.4297.1035-.626-3.6426-5.0977-9.1025-10.915-10.6895-12.5767,0,0-.001,0-.001-.0005-.0537-.0576-.1338-.0635-.1963-.0142-1.7861,1.4341-5.25,4.5957-6.8633,6.0801,2.165.0957,4.3008.0439,6.3672-.1558.1582-.0156.3174.0469.4229.1665.0645.0732,1.6064,1.8301,3.4307,4.8706.127.2109.0811.4824-.1074.6406l-12.9131,10.8276c-.1729.1445-.2754.3481-.29.5728s.0605.4395.2129.605l9.3945,10.2637c.1357.1479.1689.3628.0859.5454l-2.1084,4.606Z"/><path class="e" d="m280.9246,229.3406c-.2393,0-.4512-.1729-.4922-.417l-1.0791-6.3779-6.7773,5.8076c-.208.1797-.5244.1562-.7051-.0547-.1797-.21-.1553-.5254.0547-.7051l7.4482-6.3818c.1367-.1191.3281-.1533.4951-.0898.1699.0605.293.209.3232.3867l1.2266,7.249c.0459.2715-.1377.5303-.4102.5762-.0273.0049-.0557.0068-.084.0068Z"/><path class="e" d="m276.5877,232.3767c-.0479,0-.0967-.0068-.1445-.0215-.2646-.0801-.4141-.3594-.334-.623l3.1113-10.2852c.0801-.2637.3604-.4141.623-.334.2646.0801.4141.3594.334.623l-3.1113,10.2852c-.0654.2158-.2637.3555-.4785.3555Z"/><path class="e" d="m200.5379,244.5886c-1.7949,0-3.6299-.1211-5.5029-.3643-7.9014-1.0273-16.0078-4.1582-24.0947-9.3047-4.6943-2.9971-8.8701-6.7373-12.4102-11.1172-6.8691-8.4854-10.9404-19.0054-11.1709-28.8628-.167-6.5703,1.3652-12.7729,4.4307-17.937.1396-.2373.4473-.3149.6846-.1748.2383.1411.3164.4478.1748.6855-2.9688,5.0015-4.4531,11.019-4.29,17.4019.2256,9.6416,4.2158,19.9409,10.9482,28.2583,3.4727,4.2959,7.5674,7.9639,12.1709,10.9023,7.9609,5.0674,15.9307,8.1484,23.6855,9.1562,10.5527,1.3721,19.9082-1.2451,27.0547-7.5684,4.5801-4.0566,7.2021-9.2627,7.793-15.4727,1.208-12.8794-6.5186-28.207-20.667-41.0024-13.8701-12.5381-33.1182-16.812-46.8027-10.3882-.0205.0093-.04.0171-.0615.0239-2.085.9766-3.9678,2.1948-5.5986,3.6201-.207.1812-.5234.1611-.7051-.0474-.1826-.208-.1611-.5239.0469-.7056,1.7148-1.499,3.6943-2.7764,5.8848-3.7969.0186-.0093.0391-.0166.0586-.0229,14.04-6.5552,33.7051-2.2119,47.8477,10.5752,14.3818,13.0059,22.2295,28.646,20.9932,41.8379-.6162,6.4717-3.3496,11.8975-8.127,16.127-6.0967,5.3955-13.7422,8.1768-22.3428,8.1768Z"/><path class="e" d="m229.0281,227.2341c-.1094,0-.2168-.0361-.3047-.1035-.1748-.1348-.2539-.377-.1758-.583,5.127-13.5947-2.4111-32.1846-19.2041-47.3594-16.043-14.4976-39.4053-17.6646-52.0762-7.0576-.1816.1528-.4443.1562-.6299.0098-.1152-.0898-.1875-.228-.1943-.3735-.0068-.146.0479-.2896.1543-.3896l8.8848-8.3423c.0303-.0283.0645-.0532.1006-.0732.2227-.1226,22.4873-11.9346,49.1221,9.9546h0c24.3467,20.0093,21.376,39.8291,21.3428,40.0269-.0078.0454-.0215.0894-.041.1309l-6.5264,13.873c-.0645.1367-.1875.2373-.334.2734-.0391.0088-.0791.0137-.1182.0137Zm-52.6289-62.3604c11.2695,0,23.7949,4.6992,33.6143,13.5723,15.0859,13.6313,22.8105,30.0376,20.8018,43.3145l4.2549-9.0449c.0811-.5967.6172-5.2773-1.4453-12.0312-2.0322-6.6533-7.0742-16.7378-19.5547-26.9956-13.6396-11.209-25.9717-13.2998-33.8984-13.062-8.1494.2339-13.4727,2.8813-14.0547,3.1836l-4.6689,4.3843c4.3984-2.2334,9.5293-3.3208,14.9512-3.3208Z"/><path class="e" d="m186.3582,208.4343c-.165,0-.3203-.082-.4141-.2197-.0986-.147-.1133-.3354-.0371-.4956.04-.084,3.9316-8.5742-1.7783-22.8936-5.7178-14.3428-21.6816-15.9653-21.8418-15.98-.2754-.0254-.4775-.2686-.4531-.5435.0254-.2749.2666-.4751.543-.4526.167.0151,16.7324,1.6831,22.6816,16.606,4.9287,12.3628,2.9502,20.3872,2.0762,22.8784,2.5684-.3999,10.7305-2.271,16.9238-10.356,6.9355-9.0542,3.9395-18.9907,3.9082-19.0898-.082-.2637.0645-.5439.3281-.627.2676-.0825.5449.0649.626.3271.0332.104,3.1914,10.5195-4.0693,19.998-7.6934,10.0435-18.3545,10.8403-18.4609,10.8472-.0107.0005-.0215.001-.0322.001Z"/><path class="e" d="m186.3592,208.4382h-.0029c-.1924-.001-.3682-.1133-.4502-.2886-.0488-.104-5.0029-10.4424-16.8701-14.2554-11.2754-3.6211-20.5498,1.2642-20.9395,1.4736-.1543.083-.3389.0791-.4883-.0073-.1504-.0874-.2441-.2461-.249-.4199-.167-6.5713,1.3652-12.7744,4.4307-17.938.1396-.2373.4473-.3149.6846-.1748.2383.1411.3164.4478.1748.6855-2.8477,4.7964-4.3291,10.5283-4.3018,16.6196,2.4912-1.1401,10.9961-4.4014,20.9951-1.1909,10.0684,3.2354,15.3281,11.0142,16.9307,13.7847.8311-2.6353,2.4502-10.3848-2.1494-21.9033-5.4473-13.6758-20.2168-15.7847-21.7178-15.9639-2.0557.9707-3.9131,2.1763-5.5244,3.585-.207.1812-.5234.1611-.7051-.0474-.1826-.208-.1611-.5239.0469-.7056,1.7148-1.499,3.6943-2.7764,5.8848-3.7969.0654-.0308.1377-.0469.2109-.0469.2217.0171,16.79,1.6826,22.7344,16.605,5.8936,14.7637,1.9277,23.3438,1.7568,23.7017-.084.1733-.2588.2837-.4512.2837Z"/><path class="e" d="m158.9187,223.988c-.1494,0-.293-.0674-.3887-.1855-6.8691-8.4854-10.9404-19.0054-11.1709-28.8628-.0039-.188.0977-.3628.2627-.4517.4043-.2178,10.042-5.2969,21.7207-1.5459,12.2949,3.9507,17.4189,14.6768,17.4697,14.7847.0742.1592.0596.3462-.0391.4917-.0986.146-.2666.2256-.4424.2188-.1973-.0068-20.4043-.938-26.9482,15.2383-.0664.1641-.2148.2812-.3896.3066-.0254.0039-.0498.0059-.0742.0059Zm-10.5508-28.7588c.2949,9.2988,4.0732,19.1821,10.4189,27.29,6.2891-14.1333,22.7695-15.0767,26.7354-15.0938-1.3682-2.4297-6.459-10.3096-16.4863-13.5312-10.3506-3.3247-19.0146.52-20.668,1.335Z"/><path class="e" d="m195.0994,244.2283c-.0215,0-.043-.001-.0645-.0039-7.9014-1.0273-16.0078-4.1582-24.0947-9.3047-4.6943-2.9971-8.8701-6.7373-12.4102-11.1172-.1143-.1416-.1426-.334-.0752-.502,6.8164-16.8472,27.7188-15.8726,27.9326-15.8613.1826.0103.3447.1196.4229.2847.0791.165.0605.3604-.0469.5083-.0547.0757-5.4219,7.6924-1.5938,21.0283,1.3887,4.8301,4.8369,9.5693,10.25,14.084.1709.1426.2266.3799.1377.584-.0801.1836-.2617.2998-.458.2998Zm-35.6055-20.8252c3.4326,4.1973,7.4629,7.7871,11.9844,10.6729,7.3818,4.6982,14.7695,7.6885,21.9883,8.9033-4.8193-4.3066-7.9307-8.8232-9.2578-13.4434-3.3057-11.5156-.0625-18.8042,1.2549-21.1108-3.9316.0229-20.1074.9878-25.9697,14.978Z"/><path class="e" d="m200.5379,244.5886c-1.7949,0-3.6299-.1211-5.5029-.3643-.0938-.0127-.1826-.0518-.2559-.1123-5.5693-4.6455-9.126-9.5488-10.5703-14.5762-3.9717-13.8359,1.5107-21.5698,1.7461-21.8926.1045-.1426.2832-.2168.4541-.2021.1758.0176.3301.1274.4043.2881.0332.0718,3.458,7.2051,16.9277,12.4434,8.9697,3.4844,20.5391,1.2334,26.6377-.417.1562-.043.3271-.0068.4531.1006.125.1055.1914.2656.1758.4287-.6162,6.4717-3.3496,11.8975-8.127,16.127-6.0967,5.3955-13.7422,8.1768-22.3428,8.1768Zm-5.2295-1.3379c10.4893,1.333,19.7959-1.292,26.9102-7.5869,4.4033-3.8994,6.9961-8.8604,7.7158-14.7549-7.5518,1.9688-18.0488,3.5-26.5557.1953-11.4014-4.4336-15.7646-10.1128-17.04-12.1753-1.2021,2.1631-4.3398,9.2856-1.1689,20.3315,1.3789,4.7969,4.7891,9.5039,10.1387,13.9902Z"/><path class="e" d="m197.4314,88.3064c-.7012,0-1.3955-.1318-2.0156-.3994-2.3965-1.0337-3.6729-3.5884-3.1758-6.3564.2051-1.1406,1.123-2.7896,2.6543-3.7158,1.2559-.7588,2.7207-.9077,4.2334-.4287,2.6953.8506,3.9541,3.8096,3.5752,6.063h0c-.417,2.4795-1.7158,3.6592-2.7324,4.2124-.7607.4141-1.6543.625-2.5391.625Zm-.0195-10.1777c-.7119,0-1.3809.1875-2,.562-1.3516.8169-2.0488,2.2637-2.1875,3.0366-.4131,2.3013.627,4.4155,2.5879,5.2617.8584.3701,2.3398.5439,3.6807-.186,1.1777-.6411,1.9463-1.8511,2.2236-3.5h0c.2705-1.605-.584-4.2153-2.8896-4.9438-.4883-.1538-.96-.2305-1.415-.2305Z"/><path class="e" d="m211.8211,89.0344c-.4004,0-.8271-.042-1.2822-.1357-1.4062-.2891-2.4941-1.04-3.1465-2.1714-.7041-1.2207-.8467-2.8628-.3721-4.2856.8301-2.4922,3.8926-4.5986,6.957-3.6382,1.3672.4282,2.3574,1.2944,2.8623,2.5054.7158,1.7148.3057,3.6646-.1211,4.4907-.5391,1.0425-2.0176,3.2349-4.8975,3.2349Zm.6396-9.4624c-2.0293,0-3.9229,1.4785-4.4912,3.186-.3867,1.1597-.2764,2.4893.2891,3.4692.5127.8896,1.3477,1.459,2.4814,1.6919,2.9541.6064,4.457-1.3555,5.0898-2.5791.3594-.6943.6348-2.334.0869-3.6465-.3926-.9424-1.1465-1.5938-2.2383-1.936h0c-.4053-.127-.8145-.1855-1.2178-.1855Z"/><path class="e" d="m228.3338,89.2883c-.5146,0-1.0781-.0669-1.6963-.2192-1.4102-.3472-2.4961-1.1499-3.1426-2.3213-.6582-1.1938-.7725-2.6675-.3145-4.0439.9424-2.8271,4.1289-3.8511,6.6689-3.2095h0c1.3691.3467,2.4053,1.1353,2.9971,2.2803.7373,1.4282.6592,3.1523.2734,4.1499-.2422.6255-1.4922,3.3638-4.7861,3.3638Zm-.0039-8.9805c-1.7764,0-3.5908.8828-4.2002,2.7124-.3701,1.1118-.2822,2.2944.2412,3.2446.5078.9209,1.374,1.5547,2.5049,1.8335,3.6641.8999,4.9912-1.7114,5.3115-2.5347.2461-.6382.4023-2.1069-.2295-3.3301-.4629-.896-1.2549-1.4912-2.3545-1.7695-.4102-.104-.8408-.1562-1.2734-.1562Z"/><g><line class="e" x1="195.1596" y1="84.6813" x2="199.4324" y2="80.5332"/><path class="e" d="m195.16,85.1814c-.1309,0-.2607-.0508-.3584-.1519-.1924-.1978-.1885-.5146.0098-.707l4.2725-4.1479c.1992-.1924.5146-.1875.707.0107.1924.1978.1885.5146-.0098.707l-4.2725,4.1479c-.0977.0942-.2227.1411-.3486.1411Z"/></g><g><line class="e" x1="195.4728" y1="80.1561" x2="198.8039" y2="85.3727"/><path class="e" d="m198.8035,85.8728c-.1641,0-.3262-.0815-.4219-.231l-3.3311-5.2168c-.1484-.2329-.0801-.542.1523-.6904.2314-.1479.541-.0825.6914.1523l3.3311,5.2168c.1484.2329.0801.542-.1523.6904-.084.0532-.1768.0786-.2695.0786Z"/></g><g><line class="e" x1="209.5825" y1="83.5228" x2="214.1034" y2="83.7931"/><path class="e" d="m214.1033,84.2932c-.0098,0-.0195-.0005-.0303-.001l-4.5205-.2705c-.2754-.0166-.4854-.2534-.4688-.5288.0156-.2754.2256-.4814.5293-.4692l4.5205.2705c.2754.0166.4854.2534.4688.5288-.0156.2656-.2363.4702-.499.4702Z"/></g><g><line class="e" x1="228.3051" y1="82.1223" x2="227.9611" y2="86.7907"/><path class="e" d="m227.9617,87.2908c-.0127,0-.0254-.0005-.0381-.0015-.2754-.02-.4814-.2598-.4619-.5352l.3447-4.6685c.0205-.2759.2666-.4824.5361-.4619.2754.02.4814.2598.4619.5352l-.3447,4.6685c-.0195.2632-.2393.4634-.498.4634Z"/></g><g><line class="e" x1="225.5778" y1="84.0879" x2="230.885" y2="84.3828"/><path class="e" d="m230.8846,84.8826c-.0088,0-.0186-.0005-.0273-.001l-5.3066-.2944c-.2764-.0151-.4873-.251-.4717-.5269.0156-.2749.2686-.4863.5264-.4712l5.3066.2944c.2764.0151.4873.251.4717.5269-.0146.2661-.2354.4722-.499.4722Z"/></g><path class="e" d="m261.5682,135.801c-3.4053,0-4.0205-2.4839-4.0264-2.5107-.0273-.1172-.0107-.2407.0459-.3477l3.3926-6.3667-3.6006-11.7617c-.1445-.4736-.0713-.9824.2002-1.395l6.29-9.5527c.0635-.1196.1719-.2134.3066-.2505,2.3428-.645,4.7383-1.1011,7.1201-1.355.1943-.0239.377.0708.4785.2349.1006.1641.0986.3716-.0059.5337l-7.9844,12.3545,3.4102,11.1104c.125.4033.0752.8452-.1367,1.2114l-4.4961,7.8213c-.082.1431-.2295.2363-.3945.2495-.208.0166-.4082.0244-.5996.0244Zm.5605-.5229h.0098-.0098Zm-3.5576-2.0542c.1846.4473.9004,1.6729,3.2588,1.5713l4.3623-7.5884c.0732-.127.0908-.2793.0479-.4185l-3.4785-11.3335c-.0439-.1406-.0225-.2939.0576-.418l7.5322-11.6562c-1.916.2524-3.835.6377-5.7197,1.1475l-6.2158,9.4409c-.1084.1636-.1367.3647-.0791.5527l3.6611,11.96c.0381.127.0254.2642-.0371.3818l-3.3896,6.3604Z"/><path class="e" d="m256.3416,141.8284c-.0801,0-.1611-.019-.2373-.0596-.2432-.1309-.334-.4341-.2031-.6772l2.2998-4.2749-1.5527,1.2036c-.2207.1689-.5322.1299-.7021-.0889-.1689-.2183-.1289-.5322.0889-.7012l3.417-2.6489c.1875-.1445.4502-.1387.6299.0132.1797.1528.2285.4106.1172.6187l-3.417,6.3521c-.0908.168-.2627.2632-.4404.2632Z"/><path class="e" d="m259.7586,140.885c-.2764,0-.5-.2236-.5-.5v-5.4087c0-.2764.2236-.5.5-.5s.5.2236.5.5v5.4087c0,.2764-.2236.5-.5.5Z"/><path class="b" d="m248.2085,179.7737c.9985.6102,5.9915.2773,7.2673-.8876,1.276-1.165,2.552-3.2177,2.8848-5.936.333-2.7184.5549-6.5622-1.2205-8.9952-1.3683-1.8753-4.6835-4.2468-8.5437-5.9735-2.2343,2.6984-3.887,5.6318-4.7708,8.367-2.33,7.212,3.3842,12.8151,4.3828,13.4254Z"/><path class="e" d="m253.4119,153.8215c-.0859,0-.1719-.022-.249-.0664-1.1904-.6846-2.3887-1.2798-3.5615-1.7705-.1689-.0708-.2861-.2275-.3047-.4092-.0195-.1821.0625-.3594.2129-.4634,3.1162-2.1548,7.9727-4.8306,13.4092-5.3438,11.3428-1.0742,18.2695,3.0566,18.5586,3.2329.2188.1333.3008.4106.1904.6416-.1104.2324-.374.3423-.6191.2563-.0791-.0288-8.0938-2.8135-17.4824-.8691-3.4287.709-6.7422,2.2861-9.8486,4.687-.0898.0693-.1973.1045-.3057.1045Zm-2.584-2.3921c.8438.3833,1.6953.8169,2.543,1.2939,3.1523-2.3813,6.5117-3.9526,9.9922-4.6729,4.3545-.9014,8.3711-.8325,11.502-.4727-3.0088-.7407-7.0332-1.2705-11.8525-.8145-4.8066.4541-9.167,2.686-12.1846,4.666Z"/><path class="e" d="m250.9324,185.5051c-.79,0-1.5791-.0312-2.3623-.0728-4.1963-.2236-7.6816-3.8721-9.8154-10.2729-1.8408-5.5239-1.2676-9.9595,1.9805-15.3086.5898-.9717,1.376-2.0098,2.3428-3.0957-5.5186-.6426-14.208,1.9224-19.584,7.5454-6.083,6.3628-8.0645,9.7109-8.084,9.7437-.082.1099-.2246.209-.3613.2251-.1318.0142-.292.0034-.3975-.0854l-.2607-.2227c-.1045-.0908-.21-.1816-.3203-.2725-2.0371-1.6733-4.1094-3.1895-6.3379-4.6343-.1895-.123-.2725-.3579-.2031-.5728.0176-.0547.0488-.1206.084-.166.0723-.0947,7.3447-9.5132,14.957-14.397.2295-.1499.54-.082.6904.1509.1494.2324.0811.5415-.1514.6909-6.5605,4.21-12.8955,11.8936-14.3779,13.752,2.0879,1.376,4.0469,2.8203,5.9736,4.4038.0527.043.1035.0859.1543.1289.7344-1.1177,2.9805-4.2778,7.9121-9.436,5.9121-6.1841,15.7148-8.8066,21.4033-7.6953.1787.0352.3252.1646.3809.3379.0557.1738.0117.3638-.1133.4961-1.1982,1.2686-2.1846,2.521-2.8516,3.6216-3.0771,5.0684-3.624,9.2617-1.8867,14.4736,1.9941,5.9844,5.1621,9.3901,8.9189,9.5903,4.3721.2349,8.5801.1299,11.9717-3.6616,2.6875-3.0024,4.6475-12.7979,1.8154-18.2998-2.1621-4.2007-6.7217-7.2646-9.2471-8.7168-1.1904-.6846-2.3887-1.2798-3.5615-1.7705-1.501-.627-2.8516-1.0371-3.9062-1.1855-3.0352-.4282-9.8193-.6934-16.0068,1.0273-.2695.0703-.541-.083-.6152-.3481-.0742-.2661.0811-.5415.3477-.6157,6.3467-1.7642,13.3037-1.4917,16.4141-1.0537,1.1377.1602,2.5732.5938,4.1514,1.2529,1.2129.5068,2.4492,1.1211,3.6748,1.8262,2.6211,1.5078,7.3584,4.6978,9.6377,9.126,3.001,5.8281.9014,16.229-1.958,19.4248-3.0352,3.3911-6.7217,4.0659-10.4082,4.0664Zm-.6484-4.9395c-1.0508,0-1.9375-.1216-2.3359-.3652-.999-.6104-7.0557-6.3979-4.5977-14.0059.9219-2.855,2.6035-5.8052,4.8613-8.5322.1426-.1738.3857-.229.5889-.1377,3.8486,1.7222,7.2812,4.1304,8.7441,6.1357,1.8857,2.5845,1.6514,6.5742,1.3115,9.3506-.0342.2744-.2783.4771-.5566.4351-.2744-.0332-.4697-.2827-.4355-.5571.3193-2.6074.5498-6.3403-1.1279-8.6392-1.3027-1.7871-4.4873-4.0332-7.9961-5.6538-2.0293,2.5171-3.5996,5.312-4.4385,7.9062-2.2266,6.8926,3.3018,12.3159,4.168,12.8447.8135.4985,5.5791.166,6.6689-.8301.4834-.4419,1.1855-1.2212,1.7803-2.4258.1221-.2485.4248-.3486.6699-.2271.2471.1221.3486.4219.2266.6694-.5254,1.064-1.2178,2.0054-2.0029,2.7217-.9551.8726-3.5361,1.3105-5.5283,1.3105Z"/><path class="e" d="m248.5965,158.4812c-.0684,0-.1377-.0137-.2041-.0435-1.1895-.5317-2.3643-.9756-3.4912-1.3198-.2891-.0879-.5986-.1597-.9189-.2227-.2705-.0537-.4473-.3164-.3936-.5874s.3193-.4487.5869-.394c.3535.0698.6963.1504,1.0166.2476,1.167.3564,2.3809.8149,3.6084,1.3633.252.1128.3652.4082.252.6606-.083.1855-.2656.2959-.4561.2959Z"/><path class="e" d="m107.157,162.7385c-.1445,0-.2891-.063-.3877-.1841-.1748-.2144-.1426-.5293.0723-.7036.252-.2056,25.5957-20.646,57.5322-28.6909,21.9551-5.5303,55.1426-9.3159,88.5566,4.0566.2568.1025.3809.3936.2783.6499s-.3936.3818-.6494.2788c-33.166-13.2734-66.1299-9.5098-87.9414-4.0156-31.7148,7.9893-56.8945,28.2925-57.1455,28.4966-.0928.0757-.2041.1123-.3154.1123Z"/><path class="e" d="m85.6941,132.0422c-.1855,0-.3643-.104-.4502-.2832-.1201-.2485-.0156-.5474.2334-.6675,3.9385-1.897,7.6377-3.5688,11.3105-5.1108.2559-.1069.5488.0132.6543.2676.1074.2544-.0127.5474-.2676.6543-3.6562,1.5352-7.3408,3.2002-11.2637,5.0903-.0693.0337-.1436.0493-.2168.0493Z"/><path class="e" d="m252.7449,136.1668c-.0986,0-.1982-.0288-.2852-.0898-.2822-.1958-28.6533-19.6226-71.8379-22.7412-27.3232-1.9717-52.6279,1.6646-77.3525,11.1206-.2559.0991-.5469-.0298-.6455-.2881-.0986-.2578.0303-.5469.2881-.6455,24.8643-9.5098,50.3057-13.1694,77.7822-11.1841,43.4717,3.1392,72.0527,22.7202,72.3369,22.918.2266.1577.2822.4692.124.6958-.0967.1396-.2529.2144-.4102.2144Z"/><path class="e" d="m58.4305,188.1267h-.0068c-3.4746-.0479-7.0225-1.8711-7.8779-2.3394-2.6016.7314-5.8184,1.0942-5.957,1.1099-.1963.0195-.3945-.0776-.4932-.2544l-3.4502-6.2183c-.0742-.1338-.083-.2944-.0234-.4355.0586-.1411.1787-.2476.3262-.2886l8.4375-2.3628c.1641-.0454.3447-.0039.4717.1123.0205.0186,2.1045,1.873,7.0322,3.0039.1836.042.3281.1841.373.3672l1.6533,6.6855c.0371.1504.0029.3096-.0938.4312-.0947.1196-.2393.189-.3916.189Zm-7.8223-3.3774c.0869,0,.1738.0229.251.0674.0361.0215,3.4893,2.0005,6.9248,2.2788l-1.4189-5.7373c-4.1543-.999-6.3037-2.4712-6.9619-2.9868l-7.5762,2.1216,2.9805,5.3706c.918-.1162,3.5762-.4844,5.6602-1.0942.0459-.0132.0938-.02.1406-.02Z"/><path class="e" d="m66.2566,197.117c-1.582,0-2.6045-.0483-2.627-.0493-.1621-.0083-.3105-.0942-.3975-.2314l-4.9365-7.7798c-.1016-.1597-.1045-.3623-.0078-.5244.0977-.1621.2734-.2588.4648-.2422.0586.0024,5.7236.3921,9.9785-.2061l2.7676-7.4292c.0566-.1528.1846-.2686.3428-.3096.0752-.0195,7.5732-2.0146,11.3887-6.4785.0938-.1099.2305-.1738.375-.1753l9.123-.082,5.252-6.811c.1191-.1548.3174-.2271.5068-.1821.1904.043.3379.1929.3779.3838l1.9844,9.3848c.0234.1133.0078.2314-.0459.334-1.6807,3.2344-4.2129,5.6577-4.3193,5.7593-.0938.0884-.2168.1377-.3447.1377h-9.3691c-2.9932,3.2505-8.9775,5.3276-10.3525,5.7744l-1.8545,7.9087c-.0479.2041-.2178.3564-.4258.3818-2.9297.3579-5.8614.4365-7.8809.4365Zm-2.3203-1.0376c1.0771.0386,5.3672.1499,9.7334-.3506l1.8398-7.8442c.04-.1733.1699-.312.3408-.3643.0723-.022,7.2568-2.2402,10.3213-5.7344.0947-.1084.2324-.1704.376-.1704h9.3867c.5391-.5405,2.5186-2.6128,3.8994-5.2007l-1.7236-8.1484-4.7383,6.1455c-.0928.1216-.2373.1934-.3906.1948l-9.1416.0825c-3.6875,4.1655-10.1172,6.1636-11.4932,6.5542l-2.7812,7.4663c-.0635.1699-.2139.2925-.3926.3198-3.3779.5195-7.6211.4028-9.5117.313l4.2754,6.7368Z"/><path class="e" d="m62.9637,189.4212c-2.334,0-4.1465-.1245-4.2812-.1343-.2168-.0151-.3984-.168-.4502-.3784l-1.8672-7.5503c-4.1543-.999-6.3037-2.4712-6.9619-2.9868l-8.1855,2.292c-.207.0586-.4258-.0225-.5469-.1987-2.0342-2.9658-3.6963-7.1787-3.7666-7.3564-.0791-.2021-.0186-.4321.1494-.5698l7.2354-5.9199c-.0576-3.6021,1.6201-6.626,2.2852-7.6812l-4.877-3.9331c-.1113-.0894-.1787-.2217-.1855-.3643-.0078-.1421.0469-.2808.1475-.3809l6.582-6.4971c.1377-.1348.3418-.1792.5205-.1147l5.998,2.1562c1.6904-1.4932,3.875-2.6831,5.4414-3.4302.2461-.1201.5459-.0132.666.2358.1191.2495.0137.5479-.2363.6665-1.5742.7515-3.793,1.9624-5.418,3.4668-.1367.1265-.334.1665-.5088.1035l-5.9844-2.1509-5.959,5.8823,4.7959,3.8677c.207.1665.2471.4658.0928.6812-.0254.0352-2.5137,3.5488-2.3535,7.7046.0059.1562-.0625.3066-.1836.4062l-7.1406,5.8423c.4209,1.02,1.7637,4.1523,3.3242,6.5234l8.0898-2.2651c.1641-.0454.3447-.0039.4717.1123.0205.0186,2.1045,1.873,7.0322,3.0039.1836.042.3281.1841.373.3672l1.8525,7.4907c1.3193.0747,5.9834.2832,9.6162-.228l2.7676-7.4292c.0566-.1528.1846-.2686.3428-.3096.0752-.0195,7.5732-2.0146,11.3887-6.4785.0938-.1099.2305-.1738.375-.1753l9.124-.082,4.9082-6.3677-7.1982-4.3516c-.1943-.1177-.2852-.3525-.2207-.5708.0146-.0488,1.4111-4.9268-1.5537-9.8945-.1152-.1929-.0869-.439.0684-.6016l6.7119-7.0366c-.5166-.6426-1.9434-2.1719-4.6562-3.4546l-8.3076,4.1123c-.124.061-.2676.0674-.3965.02-.0332-.0117-3.3184-1.2178-7.1133-.8149-.2412.0327-.4785-.1353-.5391-.3794l-1.2578-5.1909c-1.1738.001-4.8848.1079-8.2314,1.3218l-1.75,5.5835c-.083.2637-.3643.4111-.627.3276-.2637-.0825-.4102-.3633-.3281-.6265l1.8242-5.8174c.0459-.1465.1562-.2637.2998-.3179,4.2656-1.6206,9.0195-1.4751,9.2246-1.4663.2236.0078.416.1636.4688.3818l1.2471,5.1489c3.3291-.2622,6.1455.5786,6.9238.8398l8.334-4.1255c.1338-.0669.292-.0688.4297-.0068,3.9717,1.8135,5.4688,4.1406,5.5303,4.2388.1221.1938.0967.4453-.0615.6113l-6.7432,7.0698c2.5156,4.4722,1.8467,8.71,1.5586,9.9839l7.3604,4.4497c.1221.0737.2061.1958.2324.3354.0264.1401-.0078.2847-.0957.3975l-5.3994,7.0034c-.0928.1216-.2373.1934-.3906.1948l-9.1416.0825c-3.6875,4.1655-10.1172,6.1636-11.4932,6.5542l-2.7812,7.4663c-.0635.1699-.2139.2925-.3926.3198-1.9893.3062-4.2783.3916-6.209.3916Zm1.21-15.2383c-2.6387,0-5.2578-.6484-7.5879-2.1904-2.1875-1.4482-3.4229-3.5317-3.5742-6.0254-.2451-4.0532,2.3574-8.1777,5.0449-10.4673,8.1816-6.9688,16.6045-5.707,20.292-3.8633,1.7305.8652,3.7783,2.8271,4.3359,5.7393.418,2.1816.1211,5.6733-3.6699,9.9199-.1846.2075-.5.2236-.7061.04-.2061-.1841-.2236-.5-.04-.7061,2.7852-3.1201,3.9727-6.2549,3.4346-9.0654-.4893-2.5547-2.2852-4.2749-3.8018-5.0332-3.4668-1.7339-11.4121-2.9009-19.1963,3.7305-3.002,2.5571-4.8887,6.4336-4.6943,9.6455.1328,2.1987,1.1846,3.9658,3.1279,5.2515,5.5742,3.6899,13.2324,1.7241,17.9883-1.6626.2246-.1592.5371-.1079.6973.1172s.1074.5371-.1172.6973c-3.1777,2.2627-7.3779,3.8726-11.5332,3.8726Z"/><path class="e" d="m45.576,162.6658c-.1924,0-.3691-.1108-.4521-.2866l-3.5654-7.5508c-.0996-.2104-.04-.4624.1426-.6064.1836-.1436.4434-.1411.623.0039l5.2324,4.2192c.207.166.2471.4648.0928.6802-.0088.0127-.9189,1.2979-1.6025,3.209-.0684.1904-.2441.3208-.4463.3311-.0078.0005-.0166.0005-.0244.0005Zm-2.1826-6.2939l2.1436,4.542c.3936-.8921.7891-1.5757,1.0391-1.9751l-3.1826-2.5669Z"/><path class="e" d="m60.1893,173.5974c-.0469,0-.0947-.0068-.1406-.0205-1.293-.3799-2.4258-.8979-3.4629-1.5845-2.1875-1.4482-3.4229-3.5317-3.5742-6.0254-.2451-4.0532,2.3574-8.1777,5.0449-10.4673,8.1816-6.9688,16.6045-5.707,20.292-3.8633,2.1445,1.0723,4.6025,3.6978,4.4717,7.5693-.0059.1533-.0811.2954-.2041.3862-.124.0898-.2803.1201-.4307.0781-5.2393-1.4644-12.7979-.7744-17.8662,4.0698-4.04,3.8633-4.2139,7.1494-3.6475,9.2261.0479.1748-.0029.3613-.1328.4883-.0947.0933-.2207.1431-.3496.1431Zm11.3652-22.4155c-3.7266,0-8.3154,1.2168-12.8496,5.0796-3.002,2.5571-4.8887,6.4336-4.6943,9.6455.1328,2.1987,1.1846,3.9658,3.1279,5.2515.7305.4844,1.5166.8779,2.3828,1.1938-.3555-2.3301.2266-5.625,4.1064-9.335,5.1484-4.9233,12.7119-5.7905,18.1875-4.4761-.1514-3.0527-2.1533-5.1299-3.9141-6.0103h0c-1.4472-.7241-3.6758-1.3491-6.3467-1.3491Z"/><path class="e" d="m93.5994,164.7161c-.0898,0-.1797-.0244-.2588-.0723l-2.9014-1.7539c-.1943-.1177-.2852-.3525-.2207-.5708.0146-.0488,1.4111-4.9268-1.5537-9.8945-.1152-.1929-.0869-.439.0684-.6016l7.0029-7.3413c.1279-.1343.3223-.188.499-.1353.1787.0513.3145.1978.3525.3799l1.7979,8.7573c.0303.1475-.0078.3013-.1035.4175l-4.1436,5.0508c.1572.7832.5635,3.2603-.0586,5.4038-.0439.1489-.1543.2695-.2988.3262-.0586.0229-.1201.0342-.1816.0342Zm-2.3252-2.4902l1.9961,1.207c.3916-2.1304-.1514-4.4702-.1572-4.4961-.0361-.1519.001-.312.0996-.4326l4.1445-5.0527-1.5576-7.5879-6.084,6.3784c2.5156,4.4722,1.8467,8.71,1.5586,9.9839Z"/><path class="e" d="m525.3484,192.242h-.0088c-.2393-.0044-.4424-.1777-.4834-.4136l-7.4072-42.2461h-22.3906c-.9873,0-1.8037-.7739-1.8584-1.7622l-1.6787-31.8047c-.0146-.2759.1973-.5112.4727-.5259.2861-.0088.5117.1978.5254.4731l1.6787,31.8032c.0254.457.4033.8164.8604.8164h22.8105c.2432,0,.4502.1743.4922.4136l7.0352,40.1235,8.3232-39.0415c.0488-.2295.252-.3945.4863-.3955l25.5303-.1304c.416,0,.7588-.3247.7832-.7393l3.5303-60.6099c.0254-.4414-.1396-.8716-.4531-1.1797-.3125-.3071-.7393-.457-1.1807-.4326l-60.2979,4.52-.8447,6.0107c-.0342.2461-.2441.4292-.4922.4307h-.0029c-.2471,0-.457-.1807-.4941-.4253l-.8799-5.8208-7.1777.5449c-.5479.04-.9551.5044-.9287,1.0571l.8936,16.8462c.0146.2759-.1973.5112-.4727.5259-.2588.0205-.5107-.1978-.5254-.4731l-.8936-16.8477c-.0537-1.1016.7598-2.0254,1.8525-2.1055l7.6387-.5801c.2686-.0142.4932.165.5322.4238l.4365,2.8892.4238-3.0137c.0322-.2329.2236-.4116.458-.4292l60.7002-4.5503c.71-.0586,1.4385.2075,1.9561.7168.5186.5103.792,1.2207.75,1.9502l-3.5303,60.6104c-.0557.9429-.8369,1.6812-1.7783,1.6812l-25.125.1284-8.7764,41.166c-.0498.231-.2539.3955-.4893.3955Z"/><path class="e" d="m491.2088,101.1223c-.1221,0-.2412-.0449-.333-.127-.0996-.0889-.1592-.2134-.166-.3462l-.4102-7.6899c-.0537-1.1016.7598-2.0254,1.8525-2.1055l7.6387-.5801c.2686-.0142.4932.165.5322.4238l.4365,2.8892.4238-3.0137c.0322-.2329.2236-.4116.458-.4292l60.7002-4.5503c.71-.0586,1.4385.2075,1.9561.7168.5186.5103.792,1.2207.75,1.9502v.001l-.4697,8c-.0146.2529-.2158.4546-.4688.4697l-72.8701,4.3901c-.0098.0005-.0205.001-.0303.001Zm8.1953-9.8164l-7.1777.5449c-.5479.04-.9551.5044-.9287,1.0571l.3838,7.1851,71.9248-4.333.4434-7.5566c.0254-.4424-.1396-.8721-.4531-1.1802-.3125-.3071-.7393-.457-1.1807-.4326l-60.2979,4.52-.8447,6.0107c-.0342.2461-.2441.4292-.4922.4307h-.0029c-.2471,0-.457-.1807-.4941-.4253l-.8799-5.8208Zm65.1445-3.0737h.0098-.0098Z"/><path class="e" d="m508.535,137.1922c-.4834,0-.9238-.2456-1.1768-.6577-.2539-.4131-.2744-.918-.0537-1.3501l16.0186-31.4609c.2285-.4492.6836-.7305,1.1885-.7339h.0088c.501,0,.9551.2744,1.1885.7178l16.3887,31.1211c.2588.4912.2432,1.0684-.0439,1.5444-.2861.4766-.79.7617-1.3457.7627l-32.1699.0566h-.0029Zm-.7852-1.7808l.4453.2271c-.0869.1719-.0186.3174.0146.3726.0342.0542.1328.1812.3252.1812h.001l32.1699-.0566c.2061-.0005.3848-.1016.4912-.2783.1055-.1758.1113-.3809.0156-.5625l-16.3887-31.1216c-.0869-.165-.2402-.1836-.3037-.1836h-.002c-.0635.0005-.2188.0195-.3047.188l-16.0186,31.4609-.4453-.2271Z"/><g><polygon class="e" points="522.6912 112.5193 526.4491 112.394 525.2591 124.6697 523.6933 124.7324 522.6912 112.5193"/><path class="e" d="m523.6932,125.2322c-.2598,0-.4766-.1987-.498-.459l-1.002-12.2129c-.0117-.1367.0342-.2715.125-.3735s.2197-.1626.3564-.167l3.7578-.1255c.1357-.0098.2822.0522.3809.1572s.1475.2471.1338.3906l-1.1904,12.2759c-.0244.2485-.2285.4414-.4785.4512l-1.5654.0625c-.0068.0005-.0127.0005-.0195.0005Zm-.4609-12.2305l.9199,11.2119.6504-.0264,1.0938-11.2749-2.6641.0894Z"/></g><g><path class="e" d="m522.9065,129.0516c.4385-.9755,1.797-1.252,2.6444-.4407.9386.8985.6202,2.0972.1097,2.5203-.6307.5226-1.442.4639-2.1263.018-.6821-.4444-.955-1.3695-.6278-2.0975Z"/><path class="e" d="m524.6385,132.0027c-.458,0-.9326-.1445-1.377-.4346-.8828-.5752-1.2393-1.7705-.8115-2.7217v-.0005c.2715-.603.835-1.041,1.5059-1.1714.6982-.1328,1.4238.0801,1.9404.5757.5098.4878.7773,1.1201.7539,1.7812-.0215.5903-.2773,1.1592-.6699,1.4844-.3916.3242-.8574.4868-1.3418.4868Zm-1.2764-2.7461h0c-.2266.5049-.0273,1.166.4453,1.4736.2607.1699.9355.5122,1.5342.0156.1406-.1157.2969-.4004.3096-.75.0088-.2632-.0605-.6543-.4463-1.0234-.2881-.2754-.6699-.3921-1.0586-.3159-.3574.0693-.6436.2881-.7842.6001Z"/></g><path class="e" d="m603.6883,237.1218c-.0234,0-.0469-.002-.0703-.0049l-11.2471-1.5654c-.249-.0137-.4502-.21-.4697-.459-.416-5.207-.8359-9.6787-.8408-9.7236-.0137-.1514.042-.3018.1514-.4072s.2607-.1553.4121-.1357l8.5801,1.1406c.1875.0254.3447.1533.4062.3311l3.5498,10.1592c.0576.165.0254.3477-.085.4824-.0957.1162-.2383.1826-.3867.1826Zm-10.8252-2.5371l10.082,1.4268-3.1777-9.0938-7.6533-1.0176c.125,1.3613.4355,4.7852.749,8.6846Z"/><path class="e" d="m580.1463,234.741c-.0215,0-.0439-.001-.0664-.0039l-8.918-1.1885c-.2393-.0322-.4219-.2314-.4326-.4736-.0078-.1582-.8281-16.0742-9.1748-33.0576-.1211-.248-.0195-.5479.2285-.6694s.5469-.02.6699.228c7.6836,15.6367,9.0576,30.3906,9.248,33.0352l7.916,1.0547c-.1875-3.5957-.5791-7.2119-1.165-10.7578-.0449-.2725.1396-.5293.4121-.5742.2695-.0479.5293.1396.5742.4121.625,3.7803,1.0312,7.6406,1.207,11.4717.0068.1484-.0518.292-.1611.3916-.0928.085-.2139.1318-.3379.1318Z"/><path class="e" d="m611.0809,246.9617c-.2031,0-.4082-.0146-.6143-.0439l-17.5117-2.5801c-.2344-.0352-.4121-.2295-.4258-.4668-.1592-2.7637-.3955-5.8525-.6279-8.7783-.416-5.207-.8359-9.6787-.8408-9.7236-.0137-.1514.042-.3018.1514-.4072s.2607-.1553.4121-.1357l7.7734,1.0342-14.6602-41.8184-4.9717,6.6387c9.6816,25.1294,8.832,48.0664,8.5625,52.4229-.0088.1396-.0752.2686-.1846.3574-.1084.0869-.252.123-.3877.1064l-21.5273-3.1719c-.249-.0371-.4316-.2539-.4268-.5049.2725-13.3379-4.7598-23.8789-6.1016-26.4429l-4.2529,4.5601c4.7695,7.6016,4.9717,17.1562,4.834,20.9502-.0059.1416-.0713.2744-.1807.3662-.1084.0908-.252.127-.3926.1104l-22.582-3.3271c-.9404-.1396-1.71-.752-2.0566-1.6377s-.1973-1.8584.3994-2.6006l28.8018-35.6812c.1045-.1284.2764-.1953.4287-.1841.165.0137.3125.1074.3945.251,6.4658,11.3535,8.1992,23.1162,8.4863,25.4092l4.7646.5898c-2.4717-14.3315-7.6592-24.8613-10.5596-29.9019-.1025-.1792-.085-.4028.0449-.5635l16.4902-20.4302c.6504-.8052,1.6416-1.1855,2.665-1.02,1.0146.1665,1.834.8433,2.1924,1.8101l25.79,69.209c.5166,1.3857.2695,2.9014-.6611,4.0537-.8027.9951-1.9775,1.5508-3.2256,1.5508Zm-17.5771-3.5547l17.1084,2.5205c1.1152.1689,2.208-.2656,2.917-1.1445.7061-.875.8936-2.0244.501-3.0762h0l-25.79-69.21c-.2314-.6265-.7617-1.0645-1.417-1.1719-.6562-.1084-1.3037.1392-1.7256.6616l-16.2754,20.1641c3.0088,5.2896,8.2168,16.0547,10.6201,30.6001.0254.1553-.0234.3135-.1328.4277-.1094.1133-.2686.1719-.4219.1494l-5.8203-.7197c-.2324-.0283-.4131-.2148-.4365-.4473-.0117-.127-1.3008-12.5762-8.0469-24.7705l-28.3369,35.1064c-.3682.458-.4609,1.0596-.2461,1.6084.2139.5479.6895.9258,1.2715,1.0127l22.0254,3.2451c.0918-4.0742-.3037-13.0703-4.8994-20.1406-.125-.1924-.1035-.4453.0537-.6133l4.9912-5.3516c.1064-.1157.2588-.1748.4209-.1562.1572.0176.2969.1084.376.2451.0684.1167,6.752,11.7461,6.5684,27.123l20.5527,3.0283c.2842-5.4531.7314-27.5864-8.6279-51.7148-.0625-.1606-.0381-.3423.0654-.4805l5.7002-7.6104c.1113-.1475.2969-.2197.4766-.1943.1826.0283.335.1543.3955.3286l15.2393,43.4712c.0576.1641.0254.3457-.084.4805-.1094.1338-.2852.2061-.4531.1807l-7.959-1.0586c.1299,1.4111.458,5.0371.7832,9.1123.2217,2.79.4473,5.7275.6064,8.3945Z"/><path class="e" d="m553.5086,233.072c-.0215,0-.0439-.001-.0654-.0039l-8.9199-1.1797c-.1729-.0234-.3213-.1338-.3916-.293s-.0537-.3438.0459-.4873l3.1865-4.6191-4.1797-3.3877c-.2148-.1738-.248-.4883-.0742-.7031l3.8594-4.7705c.0898-.1113.2236-.1787.3672-.1855.166-.002.2832.0508.3818.1533,6.0264,6.2783,6.2822,14.6133,6.29,14.9648.0029.1465-.0576.2861-.166.3838-.0928.083-.2119.1279-.334.1279Zm-8.0439-2.0684l7.5049.9932c-.1709-1.9385-1.0635-8.2891-5.585-13.293l-3.1826,3.9346,4.1514,3.3652c.2031.165.2451.458.0967.6729l-2.9854,4.3271Z"/><path class="e" d="m559.782,239.4392c-.0195,0-.0381-.001-.0576-.0029-.2598-.0303-.4521-.2539-.4434-.5156.1377-3.7539-.0645-13.2852-4.8828-20.6982-.125-.1924-.1035-.4453.0537-.6133l4.9912-5.3516c.1064-.1157.2588-.1748.4209-.1562.1572.0176.2969.1084.376.2451.0742.1265,1.8252,3.1548,3.5186,8.2119.0273.082.0332.1689.0176.2539l-3.5039,18.2217c-.0459.2373-.2539.4053-.4902.4053Zm-4.335-21.4316c3.3242,5.2979,4.4307,11.5459,4.748,16.1299l2.5742-13.3848c-1.2217-3.6201-2.4883-6.2021-3.0684-7.3062l-4.2539,4.561Z"/><path class="e" d="m488.0125,187.802c-.1309,0-.2617-.0513-.3594-.1523l-3.1299-3.2393c-.1406-.146-.1797-.3623-.0986-.5479.0254-.0581.4609-1.0327,1.3613-1.6943l-1.5967-.4819c-.2646-.0796-.4141-.3584-.334-.623.0801-.2642.3623-.4126.623-.334l2.9102.8784c.2246.0679.3721.2832.3535.5176-.0176.2344-.1973.4243-.4297.4561-.9365.1289-1.5488.9502-1.8174,1.396l2.5381,2.626,9.8779-9.1021c-.2266-.5747-.4814-1.146-.7617-1.7026-.124-.2466-.0254-.5469.2217-.6714.2451-.1226.5459-.0259.6709.2222.3477.6895.6592,1.4009.9258,2.1147.0703.1904.0195.4048-.1299.5425l-10.4863,9.6631c-.0957.0884-.2178.1323-.3389.1323Z"/><path class="e" d="m498.5789,230.949c-.3291,0-.6562-.0742-.9629-.2197-.5557-.2646-.9688-.7314-1.1631-1.3154l-17.0283-51.1436c-.0869-.2617.0547-.5449.3164-.6323.2617-.0845.5449.0542.6328.3169l17.0283,51.1426c.1074.3232.3359.582.6436.7285s.6533.1621.9717.042l54.6553-20.5503.6865-.8511-48.8867,11.1113c-.1309.0322-.2734.0059-.3877-.0713-.1143-.0762-.1924-.1963-.2158-.3311l-5.3711-31.1411c-.0117-.0703-.0088-.1421.0098-.2114,1.6484-6.3174,3.8574-9.8135,3.9512-9.9595.0225-.0352.0488-.0674.0801-.0962,2.125-1.9839,5.4053-3.6172,6.4521-4.1118l-.4111-4.2573c-4.9697.708-8.4434,3.3472-10.0996,4.8906-.2021.188-.5186.1777-.707-.0249-.1875-.2017-.1768-.5181.0254-.7065,1.8008-1.6792,5.6484-4.5903,11.1729-5.2173.1416-.0151.2676.0244.3711.1079.1045.0845.1699.207.1836.3408l.4941,5.1235c.0205.2134-.0977.4165-.2939.5044-.041.0181-4.0713,1.8359-6.457,4.0371-.2754.4507-2.2705,3.8345-3.7676,9.5176l5.2637,30.5146,49.7764-11.314c.2021-.0449.4219.042.5342.2231.1133.1807.0986.4126-.0342.5786l-1.6758,2.0776c-.0566.0693-.1299.1226-.2139.1538l-54.7832,20.5981c-.2568.0967-.5244.1455-.79.1455Z"/><path class="e" d="m482.2449,176.2805c-.1338,0-.2686-.0537-.3662-.1602-.1885-.2021-.1758-.5186.0264-.7065,2.3594-2.1875,6.0156-5.1831,10.0342-7.0312.1611-.0747.3506-.0571.4971.0454.1338.0942,3.3096,2.3662,5.6055,6.9209.124.2466.0254.5474-.2217.6714-.2422.124-.5469.0254-.6709-.2212-1.835-3.6396-4.3115-5.7832-5.0635-6.3813-3.793,1.8018-7.249,4.6411-9.501,6.7295-.0957.0894-.2178.1333-.3398.1333Z"/><path class="e" d="m552.2996,262.4011c-.0254,0-.0498-.002-.0752-.0059l-41.0479-6.1582c-.2734-.041-.4609-.2949-.4199-.5684.041-.2744.2988-.4609.5684-.4199l41.0479,6.1582c.2734.041.4609.2949.4199.5684-.0371.248-.25.4258-.4932.4258Z"/><path class="e" d="m646.0584,327.6423c-.0273,0-.0547-.002-.083-.0068l-155.8701-26.1201c-.2256-.0381-.3965-.2246-.415-.4531l-3.5693-43.9404c-.0156-.1904.0791-.374.2451-.4717l6.8301-4.0098c.0986-.0576.2119-.082.3271-.0625l11.6992,1.7549c.2734.041.4609.2949.4199.5684s-.2988.4609-.5684.4199l-11.5244-1.7285-6.4072,3.7617,3.5127,43.2393,154.9268,25.9619,1.752-43.3857-3.8262-7.0801-51.3154-7.6982c-.2734-.041-.4609-.2949-.4199-.5684.04-.2744.2939-.4639.5684-.4199l51.5625,7.7354c.1553.0234.291.1182.3652.2568l4.0098,7.4199c.043.0791.0635.168.0605.2578l-1.7803,44.0898c-.0059.1436-.0732.2773-.1846.3672-.0898.0732-.2012.1123-.3154.1123Z"/><path class="e" d="m552.2996,262.4011c-.0254,0-.0498-.002-.0752-.0059l-41.0479-6.1582c-.2734-.041-.4609-.2949-.4199-.5684.041-.2744.2988-.4609.5684-.4199l41.0479,6.1582c.2734.041.4609.2949.4199.5684-.0371.248-.25.4258-.4932.4258Z"/><path class="e" d="m544.8045,266.9548c-.0264,0-.0537-.002-.0801-.0068l-58.1846-9.373c-.209-.0332-.373-.1934-.4121-.4014-.0391-.207.0566-.416.2383-.5234l6.8301-4.0098c.0986-.0576.2119-.082.3271-.0625l11.6992,1.7549c.2734.041.4609.2949.4199.5684s-.2988.4609-.5684.4199l-11.5244-1.7285-5.4785,3.2168,56.8115,9.1523c.2734.043.458.2998.4141.5723-.0391.2461-.251.4209-.4922.4209Z"/><path class="e" d="m599.6023,319.8572c-.2764,0-.5-.2236-.5-.5v-44.0752c0-.2764.2236-.5.5-.5s.5.2236.5.5v44.0752c0,.2764-.2236.5-.5.5Z"/><path class="e" d="m538.95,309.6931c-.2695,0-.4922-.2148-.5-.4854l-1.2607-43.7725c-.0078-.2764.21-.5068.4854-.5146.2979.0029.5068.21.5146.4854l1.2607,43.7725c.0078.2764-.21.5068-.4854.5146h-.0146Z"/><path class="e" d="m608.8113,307.492c-.0781,0-.1572-.0186-.2295-.0557-.166-.0859-.2705-.2568-.2705-.4443v-18.6748c0-.1992.1182-.3789.2998-.458.1826-.0801.3945-.0439.541.0918l11.3799,10.5781c.1094.1025.168.249.1582.3984-.0098.1504-.0869.2881-.209.375l-11.3799,8.0967c-.0869.0615-.1885.0928-.29.0928Zm.5-18.0273v16.5576l10.0898-7.1787-10.0898-9.3789Z"/><path class="e" d="m624.4227,309.2429c-.082,0-.165-.0205-.2393-.0615-.1611-.0869-.2607-.2559-.2607-.4385v-17.6533c0-.1953.1143-.373.292-.4541.1777-.083.3877-.0537.5342.0752l11.7266,10.1104c.1201.1035.1836.2568.1729.4141-.0117.1572-.0957.2998-.2285.3857l-11.7266,7.543c-.082.0527-.1758.0791-.2705.0791Zm.5-17.0625v15.6465l10.3936-6.6855-10.3936-8.9609Z"/><path class="e" d="m563.3631,302.6043c-.0898,0-.1797-.0244-.2598-.0732-.1494-.0898-.2402-.252-.2402-.4268v-19.6963c0-.1953.1133-.3721.291-.4541.1748-.083.3857-.0537.5332.0742l14.3555,12.2559c.127.1074.1914.2715.1729.4365-.0195.166-.1191.3105-.2666.3877l-14.3555,7.4404c-.0723.0371-.1514.0557-.2305.0557Zm.5-19.1123v17.79l12.9658-6.7207-12.9658-11.0693Z"/><path class="e" d="m503.8084,288.0584c-.4033,0-.7363-.3193-.75-.7246l-.4785-14.3545-.9824.916c-.3018.2842-.7773.2676-1.0596-.0361-.2832-.3027-.2666-.7773.0361-1.0596l2.1885-2.043c.2158-.2012.5273-.2588.7988-.1445.2715.1123.4531.373.4629.667l.5342,16.0039c.0137.4141-.3105.7607-.7246.7754h-.0254Z"/><path class="e" d="m517.2732,290.7078c-.1904,0-.3828-.0088-.5781-.0254-2.9268-.2598-6.4502-2.9189-6.7461-9.5576h0c-.1445-3.2539.7607-6.1064,2.4844-7.8242,1.1475-1.1436,2.583-1.7139,4.2051-1.6318,4.8604.2324,7.0137,5.4492,6.957,10.1982-.041,3.4189-.9033,5.9141-2.5654,7.417-1.0361.9375-2.3262,1.4238-3.7568,1.4238Zm-5.8242-9.6494c.2529,5.6699,3.0557,7.9219,5.3789,8.1279.8594.082,2.1143-.0381,3.1943-1.0156,1.3203-1.1943,2.0371-3.3799,2.0713-6.3213.0352-2.9092-1.0752-8.4678-5.5273-8.6807-1.1875-.0586-2.2188.3447-3.0723,1.1953-1.4053,1.3994-2.1689,3.9023-2.0449,6.6943h0Z"/><path class="e" d="m518.0057,298.3201c-.9365,0-1.9629-.0879-3.0879-.291-5.6016-1.0146-17.9639-3.2324-17.9639-3.2324l.2656-1.4766s12.3623,2.2178,17.9658,3.2324c3.4873.6338,6.4424.1367,8.542-1.4316,1.6143-1.2051,2.6279-3.0107,2.8555-5.085.0449-.4121.4072-.7236.8271-.6631.4111.0449.709.415.6631.8271-.2725,2.4912-1.4971,4.666-3.4482,6.123-1.3154.9814-3.4443,1.9971-6.6191,1.9971Z"/><g><polygon class="e" points="501.3518 297.9349 497.0872 294.058 501.0276 291.042 501.3518 297.9349"/><path class="e" d="m501.3514,298.6853c-.1826,0-.3633-.0664-.5049-.1953l-4.2646-3.877c-.1641-.1494-.2539-.3643-.2441-.5859.0088-.2227.1162-.4287.293-.5645l3.9414-3.0166c.2217-.1689.5195-.2021.7725-.084.2529.1172.4199.3662.4326.6445l.3232,6.8936c.0146.3027-.1553.585-.4297.7139-.1016.0479-.2109.0713-.3193.0713Zm-3.0957-4.5771l2.2617,2.0557-.1709-3.6553-2.0908,1.5996Z"/></g><path class="e" d="m590.4275,375.6443c-.1611,0-.3203-.0781-.416-.2236-.1533-.2295-.0908-.54.1396-.6924,3.2754-2.1777,6.0801-4.5371,6.3057-5.2871-1.4268-.4805-6.7666,1.5449-9.8633,2.9561-.1885.0859-.4111.0469-.5586-.0996-.1475-.1455-.1895-.3672-.1055-.5576,1.4756-3.3467,2.8311-7.3506,2.4941-7.9766-.7539-.1357-4.2861,4.1006-7.6338,9.3135-.0898.1396-.2441.2256-.4102.2295-.1641,0-.3242-.0762-.4199-.2119-1.8477-2.6279-3.959-4.8145-4.5137-4.7324-.4307.3369.2129,3.1377,1.3701,5.8662.1084.2539-.0107.5479-.2646.6553-.251.1074-.5488-.0098-.6553-.2646-.7559-1.7812-2.3711-6.0342-1.041-7.0586.1514-.1162.4141-.2422.7842-.1846,1.3682.209,3.6729,3.1406,4.707,4.5449,2.627-4.0303,6.8506-9.9199,8.6123-8.9844.9678.5225.4277,3.2217-1.6064,8.0322,2.5576-1.0996,7.8379-3.1816,9.5635-2.4229.3223.1416.5234.4092.5518.7344.1318,1.5244-4.6855,4.9004-6.7637,6.2803-.085.0566-.1807.084-.2764.084Z"/><path class="e" d="m562.2283,372.947c-.123,0-.2461-.0449-.3428-.1357l-6.1973-5.8369c-.1729-.1631-.207-.4258-.082-.6279.124-.2012.374-.29.5977-.2051l6.2129,2.2959c-1.9746-8.2285-.9023-8.4961-.4893-8.5996.3281-.082,1.3096-.3271,6.8535,7.5693v-53.1309c0-.1475.0645-.2871.1768-.3818s.2588-.1367.4062-.1113l7.0752,1.1855c.2236.0371.3936.2207.415.4473l5.1738,55.6338c.0254.2744-.1768.5186-.4521.5439-.2754.0176-.5176-.1768-.5439-.4521l-5.1377-55.25-6.1133-1.0244v54.1367c0,.2188-.1426.4121-.3516.4775-.207.0664-.4365-.0127-.5605-.1943-2.4941-3.626-5.5762-7.6367-6.6104-8.3662-.1641,1.0654.5342,4.9092,1.3525,8.1904.0449.1797-.0137.3701-.1514.4932-.1396.125-.3379.1621-.5068.0967l-4.79-1.7695,4.4082,4.1514c.2012.1895.2109.5059.0215.707-.0986.1045-.2314.1572-.3643.1572Z"/><path class="e" d="m545.3963,358.8464c-2.3223,0-4.3506-.3564-4.9199-1.4922-.2451-.4883-.3145-1.2881.7451-2.3271,3.8545-3.7812,10.7676-7.7412,15.3428-10.3613,1.0518-.6025,1.9912-1.1406,2.7598-1.5986l1.9912-27.3828c.0205-.2764.2666-.4893.5352-.4629.2754.0205.4824.2598.4629.5352l-2.0107,27.6416c-.0117.1621-.1016.3086-.2412.3916-.8105.4893-1.8379,1.0771-3,1.7432-4.5303,2.5947-11.377,6.5166-15.1387,10.207-.2295.2256-.7422.7891-.5527,1.166.3369.6709,2.8047,1.5137,9.9141.4082,8.9619-1.3916,15.9268-3.6436,17.4971-4.1729v-38.8652c0-.2764.2236-.5.5-.5s.5.2236.5.5v39.2217c0,.2109-.1328.4004-.332.4707-.0762.0273-7.7529,2.7402-18.0107,4.334-1.7051.2646-3.9883.5439-6.042.5439Z"/><path class="e" d="m570.6922,275.0945c-.4082,0-.8057-.1514-1.1064-.4336-3.0742-2.8936-7.3496-7.4014-8.3271-8.4365l-17.3154,4.5059c-.2158.0547-.4404-.0371-.5547-.2275-.8555-1.4258-1.0488-3.1836-1.0566-3.2578-.0244-.2275.1084-.4414.3223-.5215l17.5479-6.5537c1.8193-3.3858,3.7891-5.8291,4.8105-6.9941.6973-.7969,1.8506-1.0371,2.8018-.584,7.7715,3.6943,11.9873,6.9785,12.9453,7.7637l37-10.0195-3.7197-8.6055-13.7422-36.874c-.0898-.2412.0176-.5107.249-.6235.2285-.1133.5088-.0337.6445.1851l30.0605,48.4893c.415.6699.4961,1.4775.2207,2.2168-.2744.7383-.8643,1.2969-1.6162,1.5332l-58.6816,18.3652c-.1592.0479-.3213.0723-.4824.0723Zm-9.2725-9.9287c.1367,0,.2686.0557.3643.1582.0498.0527,5.0371,5.3613,8.4863,8.6074.1621.1514.3916.2021.6084.1348l58.6787-18.3643c.4551-.1426.8115-.4805.9785-.9277.166-.4463.1172-.9346-.1338-1.3398l-27.4111-44.2163,11.9766,32.1392,3.9395,9.1123c.0576.1328.0547.2842-.0088.415-.0625.1309-.1797.2275-.3193.2656l-37.8096,10.2383c-.1602.041-.333.0049-.458-.1045-.042-.0361-4.3301-3.7031-12.9268-7.79-.5469-.2598-1.2148-.1201-1.6201.3408-1.0098,1.1514-2.9727,3.5879-4.7695,6.9717-.0566.1084-.1523.1914-.2666.2344l-17.3447,6.4775c.0869.4844.2842,1.3535.6836,2.1455l17.2266-4.4824c.042-.0107.084-.0156.126-.0156Zm-.8662-4.5938h.0098-.0098Z"/><path class="e" d="m560.5535,261.072c-.2021,0-.3936-.124-.4688-.3252-.0967-.2588.0352-.5469.2939-.6436l4.6377-1.7324c.2568-.0957.5469.0352.6436.2939s-.0352.5469-.2939.6436l-4.6377,1.7324c-.0576.0215-.1162.0312-.1748.0312Z"/><path class="e" d="m618.448,251.1677c-.2188,0-.4189-.1445-.4814-.3643-.0742-.2666.0801-.542.3457-.6172l1.3027-.3662c.2715-.0723.542.0811.6172.3457.0742.2666-.0801.542-.3457.6172l-1.3027.3662c-.0459.0127-.0908.0186-.1357.0186Z"/><path class="e" d="m617.5574,375.5916c-.2422,0-.4854-.0703-.7002-.2109-9.8701-6.4668-17.1064-15.3027-19.0889-17.8564-.3076-.3975-.4814-.8711-.5039-1.3711l-.8535-37.2354c-.0029-.1494.0596-.292.1729-.3896.1133-.0967.2588-.1416.4102-.1152l8.7852,1.4727c.2256.0381.3965.2246.415.4531l2.2441,27.8203c.0225.2754-.1826.5166-.458.5381-.2686.0254-.5166-.1826-.5381-.458l-2.2129-27.4316-7.8047-1.3086.8398,36.6201c.0127.2832.1143.5605.2939.793,1.958,2.5225,9.1064,11.25,18.8477,17.6328.1396.0918.2607.0273.3066-.0039.0508-.0371.1309-.1201.0938-.2646-.8262-3.1572-3.083-10.3301-8.9209-22.8984-.1162-.251-.0078-.5479.2422-.6641.249-.1172.5488-.0078.6641.2422,5.8721,12.6396,8.1475,19.8779,8.9814,23.0674.1318.5049-.0557,1.0264-.4775,1.3291-.2217.1592-.4795.2393-.7383.2393Z"/><path class="e" d="m279.8846,328.7947c-1.1963,0-2.4277-.0293-3.6992-.0918-14.7461-.7178-26.9307-5.7441-31.042-12.8057-1.9551-3.3574-2-7.0898-.1289-10.7939,2.7822-5.5107,12.0879-9.543,23.707-10.2725.3145-.0332.5127.1934.5303.4678.0176.2754-.1924.5127-.4678.5303-11.2715.708-20.251,4.5254-22.877,9.7256-1.7354,3.4346-1.7012,6.7461.1006,9.8398,3.9453,6.7764,15.8096,11.6084,30.2266,12.3105,21.5859,1.0498,31.8613-7.1533,32.2588-15.2207.3555-7.2432-8.6807-15.1709-29.6699-16.5557-.2754-.0186-.4844-.2568-.4658-.5322s.2637-.4883.5322-.4658c10.3262.6816,18.625,2.9961,23.999,6.6924,4.3887,3.0195,6.7949,6.9961,6.6025,10.9102-.3955,8.0605-9.8467,16.2617-29.6064,16.2617Z"/><path class="e" d="m482.9402,267.6502c-.0264,0-.0518-.002-.0781-.0059l-156.7979-24.499c-.2725-.043-.46-.2988-.417-.5713.043-.2744.3018-.459.5713-.417l156.7979,24.499c.2725.043.46.2988.417.5713-.0391.2471-.251.4229-.4932.4229Z"/><path class="e" d="m547.95,254.5906c-.0205,0-.041-.001-.0615-.0039l-109.6396-13.4004c-.2744-.0332-.4697-.2822-.4355-.5566s.2861-.4707.5566-.4355l109.6396,13.4004c.2744.0332.4697.2822.4355.5566-.0312.2539-.2461.4395-.4951.4395Z"/><path class="e" d="m401.9305,236.7439c-.0205,0-.041-.001-.0615-.0039l-39.3809-4.8135c-.2744-.0332-.4697-.2822-.4355-.5566s.2949-.4717.5566-.4355l39.3809,4.8135c.2744.0332.4697.2822.4355.5566-.0312.2539-.2461.4395-.4951.4395Z"/><path class="e" d="m530.241,237.1218c-.0166,0-.0332-.001-.0498-.002l-135.4648-13.1826c-.2744-.0273-.4756-.2715-.4492-.5469.0273-.2744.2822-.4629.5469-.4492l135.4648,13.1826c.2744.0273.4756.2715.4492.5469-.0254.2578-.2432.4512-.4971.4512Z"/><path class="e" d="m535.4627,227.0486c-.0137,0-.0273-.001-.04-.002l-17.2432-1.3623c-.2754-.0215-.4814-.2617-.459-.5371s.2832-.4746.5371-.459l17.2432,1.3623c.2754.0215.4814.2617.459.5371-.0205.2617-.2393.4609-.4971.4609Z"/><path class="e" d="m490.1199,223.4656c-.0137,0-.0273-.001-.04-.002l-79.6777-6.2949c-.2754-.0215-.4814-.2627-.459-.5381.0225-.2759.2812-.481.5371-.459l79.6777,6.2959c.2754.0215.4814.2617.459.5371-.0205.2617-.2393.4609-.4971.4609Z"/><path class="e" d="m486.8504,215.5559c-.0127,0-.0244-.0005-.0371-.0015l-57.6025-4.1821c-.2754-.02-.4824-.2593-.4629-.5347.0205-.2764.2656-.4878.5352-.4624l57.6025,4.1821c.2754.02.4824.2593.4629.5347-.0195.2632-.2393.4639-.498.4639Z"/><path class="e" d="m523.782,211.7756c-.0098,0-.0205-.0005-.0312-.001l-16.5557-1.0288c-.2754-.0171-.4854-.2544-.4678-.5303.0176-.2744.2178-.4824.5303-.4678l16.5557,1.0288c.2754.0171.4854.2544.4678.5303-.0166.2646-.2363.4688-.499.4688Z"/><path class="e" d="m486.3924,209.4519c-.0098,0-.0205-.0005-.0312-.001l-32.8135-2.0396c-.2754-.0171-.4854-.2544-.4678-.5303.0176-.2749.2178-.4858.5303-.4678l32.8135,2.0396c.2754.0171.4854.2544.4678.5303-.0166.2646-.2363.4688-.499.4688Z"/><path class="e" d="m539.9539,207.4124c-.0088,0-.0176,0-.0273-.001l-34.7207-1.9058c-.2754-.0151-.4873-.2505-.4717-.5264.0156-.2754.2188-.4932.5264-.4717l34.7207,1.9058c.2754.0151.4873.2505.4717.5264-.0146.2666-.2354.4727-.499.4727Z"/><path class="e" d="m485.8602,204.4431c-.0088,0-.0176,0-.0273-.001l-20.7305-1.1377c-.2754-.0151-.4873-.2505-.4717-.5264.0156-.2754.2402-.502.5264-.4717l20.7305,1.1377c.2754.0151.4873.2505.4717.5264-.0146.2666-.2354.4727-.499.4727Z"/><path class="e" d="m555.0975,202.7918c-.0068,0-.0146,0-.0215-.0005l-48.4238-2.1187c-.2764-.0122-.4902-.2456-.4785-.5215.0127-.2759.2441-.5005.5215-.4775l48.4238,2.1187c.2764.0122.4902.2456.4785.5215-.0127.2686-.2334.478-.5.478Z"/><path class="e" d="m482.2459,199.6038c-.0068,0-.0146,0-.0215-.0005l-6.335-.2769c-.2764-.0122-.4902-.2456-.4785-.5215.0117-.2754.2256-.502.5215-.4775l6.335.2769c.2764.0122.4902.2456.4785.5215-.0117.2681-.2334.478-.5.478Z"/><path class="e" d="m559.2049,197.6585c-.0059,0-.0117,0-.0176-.0005l-54.0566-1.9351c-.2764-.0098-.4922-.2412-.4824-.5176.0107-.2749.252-.4863.5176-.4814l54.0566,1.9351c.2764.0098.4922.2412.4824.5176-.0098.2695-.2314.4819-.5.4819Z"/><path class="e" d="m516.3484,191.8367h-.0107l-9.7637-.2104c-.2764-.0059-.4951-.2349-.4893-.5107s.2656-.4937.5107-.4893l9.7637.2104c.2764.0059.4951.2349.4893.5107-.0059.2725-.2285.4893-.5.4893Z"/><path class="e" d="m562.285,189.0593h-.0049l-27.0801-.2568c-.2764-.0024-.498-.2285-.4951-.5049s.2266-.4692.5049-.4951l27.0801.2568c.2764.0024.498.2285.4951.5049-.0029.2744-.2256.4951-.5.4951Z"/><path class="e" d="m420.5887,248.4246c-.4951,0-.9824-.0098-1.459-.0293-6.9043-.2852-16.5508-2.8135-16.3818-7.5439.1191-3.334,6.166-5.8701,13.748-5.7344,9.9453.1562,17.2998,2.7109,18.3008,6.3584v.001c.3086,1.125.0889,2.168-.6523,3.0996-2.1494,2.7002-8.2568,3.8486-13.5557,3.8486Zm-4.585-12.3115c-6.5996,0-12.1621,2.1445-12.2559,4.7734-.126,3.5078,7.873,6.1982,15.4229,6.5088,5.3887.2256,12.1748-.9092,14.1904-3.4414.5391-.6777.6934-1.4014.4707-2.2139-.8545-3.1143-8.1523-5.4785-17.3516-5.623-.1592-.0029-.3184-.0039-.4766-.0039Z"/><path class="e" d="m587.8289,243.572c-.2646,0-.4854-.207-.499-.4736-1.6357-30.9858-10.9375-48.9419-11.0312-49.1196-.0918-.1743-.0732-.3862.0488-.5415l2.458-3.1431c.1699-.2188.4854-.2549.7012-.0859.2178.1704.2568.4844.0859.7021l-2.2627,2.8936c1.208,2.4507,9.4639,20.1714,10.998,49.2417.0146.2754-.1973.5107-.4727.5254-.0088.001-.0176.001-.0264.001Z"/><path class="e" d="m251.1082,180.5462c-.1064,0-.2129-.0332-.3027-.1025-2.7383-2.0884-5.2705-4.564-7.5244-7.3584-.1738-.2148-.1406-.5298.0742-.7031.2148-.1729.5293-.1401.7031.0752,2.2051,2.7319,4.6787,5.1514,7.3525,7.1914.2197.1675.2627.481.0947.7007-.0986.1289-.2471.1968-.3975.1968Z"/><path class="e" d="m560.1033,192.781h-.0107l-25.7451-.5557c-.2764-.0059-.4951-.2349-.4893-.5107.0059-.2764.2383-.4731.5107-.4893l25.7451.5557c.2764.0059.4951.2349.4893.5107-.0059.2725-.2285.4893-.5.4893Z"/><path class="e" d="m525.4949,195.012c-.4102,0-.8467-.0112-1.3125-.0347-5.1094-.2593-5.8594-1.9629-5.9443-2.6836-.0342-.2891.0098-.7251.4131-1.1631,1.042-1.1323,4.0225-1.6387,6.4219-1.5581.124.0039.2363.0537.3213.1323.0918-.0703.2109-.1089.334-.1016,2.8721.1763,4.9697.8623,5.7549,1.8833.3262.4248.3389.7964.291,1.0337-.1221.6123-.9395,2.4917-6.2793,2.4917Zm-.9619-4.4487c-2.2812,0-4.4795.5205-5.1465,1.2446-.1582.1719-.165.293-.1562.3687.0859.7183,1.4463,1.6216,5.0029,1.8018,6.0977.3101,6.5449-1.5747,6.5605-1.6548.0049-.0254-.0098-.1055-.1035-.2271-.4629-.6025-2.0264-1.3115-5.0225-1.4951-.1201-.0073-.2275-.0562-.3086-.1318-.0889.0679-.2041.1172-.3213.1021-.168-.0054-.3369-.0083-.5049-.0083Z"/><path class="e" d="m500.1863,189.51c-.2139,0-.4111-.1377-.4775-.3525-.082-.2642.0664-.5439.3301-.6255l23.418-7.2173c.2637-.082.5439.0669.625.3306.082.2642-.0664.5439-.3301.6255l-23.418,7.2173c-.0488.0151-.0986.022-.1475.022Z"/><path class="e" d="m287.9676,254.9168c-.2139,0-.4111-.1377-.4775-.3525-.082-.2637.0664-.5439.3301-.625l197.1104-60.7505c.2637-.0796.543.0669.625.3306.082.2642-.0664.5439-.3301.6255l-197.1104,60.7495c-.0488.0156-.0986.0225-.1475.0225Z"/><path class="e" d="m498.5262,399.6629c-.0537,0-.1084-.0088-.1611-.0264-.2617-.0898-.4014-.374-.3125-.6348l30.1016-88.1758c.0898-.2617.3789-.3984.6348-.3125.2617.0898.4014.374.3125.6348l-30.1016,88.1758c-.0713.208-.2656.3389-.4736.3389Z"/><path class="e" d="m547.1062,257.3865c-.0527,0-.1074-.0088-.1602-.0264-.2617-.0889-.4023-.3721-.3135-.6338l5.5391-16.3662c.0889-.2607.3721-.3984.6338-.3135.2617.0889.4023.3721.3135.6338l-5.5391,16.3662c-.0703.209-.2646.3398-.4736.3398Z"/><path class="e" d="m567.326,198.1292c-.0537,0-.1084-.0088-.1621-.0269-.2607-.0894-.4004-.3735-.3115-.6348l.6299-1.8438c.0898-.2617.375-.3999.6357-.3115.2607.0894.4004.3735.3115.6348l-.6299,1.8438c-.0713.208-.2656.3384-.4736.3384Z"/><path class="e" d="m571.5008,185.9016c-.0537,0-.1084-.0083-.1611-.0269-.2617-.0894-.4014-.3735-.3125-.6348l5.8105-17.0205c.0898-.2612.377-.4023.6348-.3115.2617.0894.4014.3735.3125.6348l-5.8105,17.0205c-.0713.2075-.2656.3384-.4736.3384Z"/><path class="e" d="m527.742,181.0173c-.2139,0-.4111-.1377-.4775-.3525-.082-.2642.0664-.5439.3301-.6255l43.8916-13.5273c.2627-.0796.543.0669.625.3306.082.2642-.0664.5439-.3301.6255l-43.8916,13.5273c-.0488.0151-.0986.022-.1475.022Z"/><path class="e" d="m572.8338,256.2488c-.084,0-.1689-.0215-.2451-.0645-1.6738-.9395-3.4248-1.8447-5.2041-2.6904-.0938-.0439-.2012-.0693-.3457-.0947-.2529-.0449-.4307-.2734-.4121-.5293l.7393-9.835c.0215-.2754.2715-.4834.5361-.4619.2754.0215.4824.2607.4619.5361l-.708,9.416c.0527.0195.1055.041.1592.0664,1.5361.7305,3.0527,1.5049,4.5186,2.3086v-12.2129c0-.2764.2236-.5.5-.5s.5.2236.5.5v13.0615c0,.1777-.0938.3418-.2471.4316-.0781.0459-.166.0684-.2529.0684Z"/><path class="e" d="m601.577,269.7937c-.0244,0-.0498-.002-.0742-.0059l-5.8223-.874c-.2402-.0361-.4199-.2393-.4258-.4824l-.0371-1.6025c-.0049-.2227.1377-.4219.3506-.4893l5.5195-1.7275c.1445-.0449.3037-.0215.4287.0635.126.085.207.2227.2188.374l.3398,4.2041c.0127.1523-.0449.3018-.1572.4053-.0928.0869-.2148.1348-.3408.1348Zm-5.332-1.8057l4.7832.7178-.2393-2.9521-4.5625,1.4277.0186.8066Z"/><path class="e" d="m595.49,257.3845c-.1064,0-.2119-.0342-.2988-.0996-.124-.0918-.1973-.2354-.2012-.3887l-.2383-10.4229c-.0059-.2764.2129-.5049.4883-.5117.2715.0166.5059.2129.5117.4883l.2236,9.7852,3.96-1.0723-.8311-10.3125c-.0225-.2754.1826-.5166.458-.5381.2764-.0146.5176.1826.5381.458l.8652,10.7266c.0195.2402-.1348.46-.3672.5225l-4.9775,1.3477c-.043.0117-.0869.0176-.1309.0176Z"/><path class="e" d="m561.4197,269.6316c-.0264,0-.0537-.002-.0801-.0068l-8.2266-1.3252c-.2734-.043-.458-.2998-.4141-.5723.0439-.2734.3047-.4668.5723-.4141l8.2266,1.3252c.2734.043.458.2998.4141.5723-.0391.2461-.251.4209-.4922.4209Z"/><path class="e" d="m647.8387,283.5525c-.0264,0-.0527-.002-.0791-.0068l-64.043-10.3164c-.2734-.043-.458-.2998-.4141-.5723.0439-.2734.3037-.4658.5723-.4141l63.042,10.1543-3.4092-6.3076-51.3154-7.6982c-.2734-.041-.4609-.2949-.4199-.5684.04-.2744.2939-.4639.5684-.4199l51.5625,7.7354c.1553.0234.291.1182.3652.2568l4.0098,7.4199c.0908.167.0781.3711-.0322.5264-.0947.1338-.2471.2109-.4072.2109Z"/><path class="n" d="m298.4344,86.4656c-.0332,0-.0664-.0029-.0996-.0098-.2705-.0547-.4463-.3184-.3916-.5889l2.1494-10.6724c.0547-.271.3242-.4468.5889-.3916.2705.0547.4463.3184.3916.5889l-2.1494,10.6724c-.0479.2373-.2568.4014-.4893.4014Z"/><path class="n" d="m294.2293,83.301c-.1494,0-.2979-.0674-.3965-.1953-.168-.2192-.127-.5332.0918-.7012l5.7275-4.3989c.2178-.168.5312-.1274.7012.0918.168.2192.127.5332-.0918.7012l-5.7275,4.3989c-.0908.0698-.1982.1035-.3047.1035Z"/></svg>
