<svg width="499" height="100" viewBox="0 0 499 100" fill="none" xmlns="http://www.w3.org/2000/svg">
<g clip-path="url(#clip0_618_1057)">
<path d="M499 0V100H19.3358L0 39.322L431.155 0.677987L499 0Z" fill="#FCA9CB"/>
<path d="M187.997 45.8245L168.441 90.9855L84.1473 84.2955L75.2597 81.1345L91.7327 40.1594L182.905 42.3751L187.997 45.8245Z" fill="#EBB432"/>
<path d="M168.441 90.9855L84.1473 84.2955L75.2597 81.1345L163.257 87.5607L168.441 90.9855Z" fill="#CE8D1B"/>
<path d="M147.471 93.2689L143.347 91.8066L146.14 90.7431C146.14 90.7431 137.826 89.6132 137.161 89.3473C136.496 89.0814 131.308 85.8245 127.982 84.894C124.656 83.9635 119.934 83.8305 119.934 83.8305C119.934 83.8305 128.847 81.1718 130.509 79.5766C133.945 76.2814 135.299 73.3287 135.299 73.3287C135.299 69.4071 131.507 63.7574 129.844 63.2921C128.181 62.8268 123.592 65.8843 122.594 66.7484C121.596 67.6125 114.346 77.2503 114.346 77.2503C113.681 72.1323 109.69 63.558 108.36 62.9598C107.03 62.3616 102.706 64.2227 101.509 64.9538C100.312 65.685 97.7841 70.6036 97.5846 71.5341C97.3851 72.4646 98.7819 76.652 100.046 78.3137C101.309 79.9754 106.165 82.5677 106.165 82.5677C104.901 83.6311 96.2543 87.2204 96.2543 87.2204L98.5823 92.8702C98.5823 92.8702 104.17 88.6827 105.167 87.6857C106.165 86.6887 108.161 84.5617 108.161 84.5617C111.353 86.3563 115.012 85.6252 115.012 85.6252C115.012 85.6252 115.81 86.6886 116.94 87.8851C118.071 89.0815 123.592 94.5318 123.592 94.5318L128.248 91.9396L124.191 88.6161C124.191 88.6161 129.113 89.4802 129.578 89.6796C130.044 89.879 135.166 93.8671 136.562 94.1994C137.959 94.5317 144.145 95.9275 144.145 95.9275L142.549 93.8671L147.471 93.2689ZM103.305 74.1927L103.97 68.0777C103.97 68.0777 108.429 76.3372 109.766 81.2206C109.766 81.2206 106.963 78.8454 103.305 74.1927ZM116.741 83.6976L114.742 82.2291C114.742 82.2291 120.2 75.8544 121.53 74.3589C122.86 72.8634 126.119 69.8059 126.119 69.8059L128.17 77.2503C128.17 77.2503 120.2 82.2353 116.741 83.6976Z" fill="#E1557A"/>
<path d="M119.934 69.9556C117.5 73.0582 114.346 77.2503 114.346 77.2503C114.199 76.116 113.888 74.8121 113.479 73.4628C113.479 73.4628 114.4 71.0515 114.609 70.6344C114.818 70.2172 114.33 66.8102 114.191 66.1149C114.052 65.4196 114.122 60.9001 114.191 60.4829C114.261 60.0658 117.253 56.5892 117.462 56.2415C117.67 55.8939 120.175 44.6995 120.384 43.9346C120.593 43.1697 122.594 40.9108 122.594 40.9108L128.529 41.055C128.529 41.055 124.518 51.2353 124.19 52.4174C123.863 53.5994 123.237 57.6322 123.167 58.1885C123.098 58.7447 120.457 61.3869 119.933 61.9431C119.933 61.9431 119.479 63.871 119.4 64.3715C119.321 64.8721 119.934 69.9556 119.934 69.9556Z" fill="#E1557A"/>
<path d="M303.708 58.8364L299.77 87.5054L259.104 95.5397L169.903 87.616L181.327 61.2362L184.201 54.5952L201.252 52.3795L303.708 58.8364Z" fill="#EBB432"/>
<path d="M184.964 95.5367C184.964 95.5367 189.545 92.8269 190.434 92.6903C191.323 92.5536 195.494 93.7834 195.904 93.7834C196.314 93.7834 197.272 93.4418 197.272 93.4418C197.272 93.4418 200.006 84.9014 200.348 84.4231C200.69 83.9448 204.998 80.6653 204.998 80.6653C204.998 80.6653 211.356 81.0069 211.972 81.0069C212.587 81.0069 213.749 84.5597 213.818 84.9697C213.886 85.3796 213.818 91.5171 213.818 91.5171L207.049 90.9872L206.502 85.8579C206.502 85.8579 202.741 94.6034 202.536 95.2866C202.331 95.9699 199.118 97.1314 198.707 97.268C198.297 97.4046 194.605 97.473 194.605 97.473L193.784 95.6282L189.956 96.9947L189.545 95.0816L184.964 95.5367Z" fill="#E1557A"/>
<path d="M303.708 58.8364L260.05 67.9693L181.327 61.2362L184.201 54.5952L201.252 52.3795L303.708 58.8364Z" fill="#CE8D1B"/>
<path d="M276.124 92.1742C276.124 92.1742 277.814 87.5661 278.977 86.1996C280.139 84.8331 283.899 82.3051 284.583 82.0318L293.335 80.9387C294.019 81.8268 295.044 87.5538 295.044 87.5538C295.044 87.5538 297.164 89.6158 297.642 89.5474C298.121 89.4791 308.24 88.6592 309.06 88.9325C309.881 89.2058 313.026 91.8021 313.026 91.8021L308.377 91.6655L309.471 92.7586C309.471 92.7586 302.497 91.8021 301.471 91.8705C300.446 91.9388 294.634 93.1686 294.087 93.1003C293.54 93.032 290.6 91.2555 290.395 90.9139C290.19 90.5723 289.027 85.5164 288.754 84.5599C288.685 84.3207 288.433 84.0261 288.083 83.7229C288.083 83.7229 284.993 86.063 284.515 86.7462C284.036 87.4295 282.65 90.8854 282.65 90.8854" fill="#E1557A"/>
<path d="M219.007 45.1392C219.007 45.1392 220.401 47.2497 220.95 48.8538L218.162 51.5554L224.118 51.8086C224.118 51.8086 223.949 46.4899 220.865 42.3532L229.779 30.3228C229.779 30.3228 234.825 40.3118 234.904 52.4427L239.712 52.7578C239.712 52.7578 239.082 37.6335 232.618 26.3691L241.825 13.793C242.547 12.8067 244.086 13.0659 244.444 14.2342L257.33 56.2054C257.731 57.5091 256.703 58.8105 255.341 58.7249L246.886 58.1931C246.886 58.1931 247.043 55.2785 246.649 52.9941L251.064 53.3092L241.841 20.4611L237.348 26.8417C237.348 26.8417 243.811 40.548 243.811 57.9567L231.751 56.8539C231.751 56.8539 232.854 46.771 228.676 38.5L225.129 42.9112C225.129 42.9112 227.967 48.189 227.652 56.5388L215.041 55.601C213.215 55.4653 212.298 53.3308 213.458 51.9146L219.007 45.1392Z" fill="#AD6CAA"/>
<path d="M299.268 18.2625L298.859 16.3803L292.859 18.5914L292.799 17.7715L297.549 13.3525L296.238 12.2069L290.014 16.8713L288.131 17.1987L288.459 11.7977L286.493 11.5522C285.92 14.1708 285.101 18.999 285.101 18.999L252.719 41.1864L253.198 42.7452L287.558 24.5636L293.208 23.3361L297.549 24.4818L298.286 22.8451L293.046 21.1325L299.268 18.2625Z" fill="#AD6CAA"/>
<path d="M242.159 57.8057L242.517 66.4727L245.361 66.7159L243.812 57.9568L242.159 57.8057Z" fill="#AD6CAA"/>
<path d="M226.342 56.5389L224.531 64.9341L227.15 65.1581L227.652 56.5389H226.342Z" fill="#AD6CAA"/>
<path d="M198.801 12.7661C198.801 12.7661 198.643 10.088 198.643 9.22147C198.643 8.35497 198.406 6.07063 198.406 6.07063L196.357 5.75555L196.042 10.7969L194.258 10.2994L189.342 6.14943L188.245 7.22945L192.106 11.2953L191.903 11.832L185.936 10.4692L185.494 11.7945L191.198 13.6945L190.828 14.6745L186.427 15.7214L186.82 17.0467L191.072 16.4857L195.648 17.4135L223.236 39.1534L224.099 37.989L198.801 12.7661Z" fill="#AD6CAA"/>
<path d="M281.273 37.3626L284.907 37.408L282.681 42.6288L281.273 37.3626Z" fill="#E1557A"/>
<path d="M297.583 38.2252L296.538 34.8657L299.445 33.6853L300.536 36.9541L297.583 38.2252Z" fill="#F58452"/>
<path d="M308.486 28.6915L313.302 28.2375L314.528 33.4129L318.617 32.732L318.481 36.3639L321.388 36.4547L320.616 30.2805L315.8 30.689L314.801 25.6498L308.804 26.013L308.486 28.6915Z" fill="#E1557A"/>
<path d="M315.346 45.3528C315.21 46.624 316.411 46.783 316.891 46.7602C317.373 46.7372 318.215 46.629 318.254 45.4856C318.273 44.9112 317.657 44.1554 316.891 44.1271C316.124 44.0988 315.414 44.7172 315.346 45.3528Z" fill="#EBB432"/>
<path d="M313.738 57.1095L316.941 56.8962L317.673 59.639L314.348 60.5229L313.738 57.1095Z" fill="#E1557A"/>
<path d="M327.493 30.0466L329.445 33.3076L334.202 31.0828L327.493 30.0466Z" fill="#F58452"/>
<path d="M322.918 16.1494C322.918 16.2713 323.04 18.7093 323.04 18.7093L320.112 19.0141L319.716 16.1798L322.918 16.1494Z" fill="#EBB432"/>
<path d="M313.159 11.517L310.445 13.6808L308.706 6.88464L313.159 11.517Z" fill="#F58452"/>
<path d="M258.084 16.5344L259.342 20.4282L263.479 17.4928L261.441 14.3179L258.084 16.5344Z" fill="#F58452"/>
<path d="M250.83 11.0232L254.906 10.9633L253.108 7.84827L250.83 11.0232Z" fill="#E1557A"/>
<path d="M148.677 21.4809C147.49 22.0535 147.594 23.2537 148.16 23.9331C148.696 24.575 149.963 24.779 150.651 23.887C151.611 22.6425 150.015 20.8356 148.677 21.4809Z" fill="#E1557A"/>
<path d="M163.627 29.2861L169.794 28.0197L170.019 23.0389L174.947 24.0238L175.708 26.0781L171.653 25.3183L171.399 30.1585L164.669 31.4248L163.627 29.2861Z" fill="#F58452"/>
<path d="M189.168 27.1193L191.196 26.9223L191.083 29.5956L192.914 29.3987L193.336 34.4077L197.025 34.1263L197.842 38.4599L195.899 39.5011L195.167 35.9554L191.956 36.6589C191.956 36.6589 191.478 31.5655 191.365 31.5655C191.252 31.5655 189.309 31.9313 189.309 31.9313L189.168 27.1193Z" fill="#E1557A"/>
<path d="M180.72 20.9003L181.593 27.6821L184.409 22.2228L180.72 20.9003Z" fill="#EBB432"/>
<path d="M204.642 9.95574C204.772 11.7119 207.233 11.4903 207.388 10.3161C207.499 9.47165 207.166 8.74301 206.315 8.57181C205.495 8.40674 204.559 8.8319 204.642 9.95574Z" fill="#EBB432"/>
<path d="M209.463 14.551L212.578 11.8762L213.951 12.8819L215.826 10.139L217.199 10.6876L218.48 8.12762L220.348 9.19485L218.162 12.9442L216.516 11.9842L214.366 15.2756L212.902 13.7213L211.392 15.7784L209.463 14.551Z" fill="#F58452"/>
<path d="M152.192 15.8031L151.359 13.9795L154.753 12.2521L155.713 14.5234L152.192 15.8031Z" fill="#F58452"/>
<path d="M161.668 4.62085L162.532 10.955L165.445 6.95616L161.668 4.62085Z" fill="#E1557A"/>
<path d="M177.258 7.19759L181.772 5.72601L182.316 8.82914L180.364 9.46895L177.258 7.19759Z" fill="#E1557A"/>
<path d="M171.944 15.1313L168.198 10.4926L173.257 12.764L171.944 15.1313Z" fill="#F58452"/>
<path d="M166.118 17.4986L162.468 17.6265L162.532 19.7379L165.99 19.8659L166.118 17.4986Z" fill="#EBB432"/>
<path d="M292.826 42.5181L290.914 45.4631L291.949 46.7366L289.799 49.8409L291.392 50.9552L294.1 46.657L293.303 45.3835L295.215 42.5977L291.949 37.5035L290.595 38.8567L292.826 42.5181Z" fill="#EBB432"/>
<path d="M105.142 81.9975C105.142 81.9975 99.0593 81.8065 98.0068 81.8942C96.9545 81.9819 90.8136 84.8247 90.8132 84.8249C90.8132 84.8249 79.9605 86.3234 79.1378 86.1804C78.7252 86.1087 76.5851 85.4077 74.4594 84.7085C77.0223 84.2143 83.1918 83.9555 83.1918 83.9555L84.1485 84.2958L75.2577 81.1334L76.6089 77.7726C76.6089 77.7726 70.7124 78.5132 68.7835 79.1114C66.8547 79.7096 64.327 80.7066 63.9944 81.3713C63.9944 81.3713 64.061 85.4922 64.9256 88.8821C64.9256 88.8821 66.7216 89.148 68.2514 89.3474C69.7813 89.5468 74.6368 91.142 75.6346 91.4744C76.6323 91.8067 78.4947 92.4714 79.7585 92.6044C81.0222 92.7373 83.8824 92.4714 85.3457 92.1391C86.8091 91.8068 90.8665 89.6133 91.8642 89.2145C92.8619 88.8157 96.5269 87.8824 96.5269 87.8824L96.2542 87.2205L100.122 85.5641C102.6 84.4746 105.477 83.1468 106.165 82.5678C106.165 82.5678 105.755 82.3488 105.142 81.9975Z" fill="#E1557A"/>
<path d="M181.327 61.2362L177.4 88.282L169.903 87.6159L181.327 61.2362Z" fill="#CE8D1B"/>
<path d="M144.145 96.241C144.122 96.241 144.099 96.2385 144.076 96.2333C144.014 96.2192 137.872 94.8332 136.489 94.5045C135.544 94.2795 133.316 92.7135 130.92 90.9898C130.262 90.516 129.581 90.0259 129.454 89.9674C129.372 89.9325 128.908 89.7997 126.378 89.3301C126.207 89.2983 126.095 89.1349 126.127 88.9647C126.158 88.7941 126.321 88.6809 126.493 88.7136C129.364 89.2469 129.609 89.3522 129.702 89.3916C129.87 89.4639 130.31 89.7779 131.287 90.4814C132.949 91.6776 135.731 93.6795 136.635 93.8947C137.702 94.1481 141.615 95.0343 143.362 95.4292L142.3 94.0591C142.231 93.97 142.216 93.8507 142.259 93.7466C142.302 93.6425 142.398 93.5697 142.51 93.5559L146.109 93.1188L143.242 92.1022C143.118 92.0584 143.035 91.9418 143.033 91.8105C143.032 91.6792 143.112 91.5608 143.235 91.5139L144.882 90.8867C142.494 90.5549 137.588 89.8561 137.044 89.6384C136.864 89.5662 136.468 89.344 135.727 88.9246C133.844 87.8606 130.34 85.8795 127.897 85.196C124.648 84.2868 119.971 84.1451 119.925 84.1439C119.77 84.1393 119.642 84.0239 119.622 83.8715C119.603 83.7187 119.696 83.5742 119.844 83.5302C119.932 83.5038 128.703 80.8753 130.292 79.3503C133.379 76.3895 134.772 73.6912 134.984 73.2583C134.94 69.4054 131.267 64.0153 129.759 63.5938C128.366 63.2029 123.998 65.9477 122.799 66.9854C122.03 67.6515 117.097 74.1142 114.597 77.4384C114.521 77.5407 114.39 77.5869 114.266 77.5532C114.143 77.5208 114.051 77.417 114.035 77.2906C113.351 72.0309 109.362 63.7545 108.231 63.2458C107.126 62.7493 103.058 64.375 101.672 65.2214C100.57 65.8951 98.0738 70.7468 97.8913 71.5999C97.7198 72.4019 99.0529 76.4902 100.295 78.1245C101.503 79.7122 106.265 82.2657 106.313 82.2914C106.404 82.3404 106.466 82.4316 106.477 82.5351C106.488 82.6386 106.447 82.7405 106.367 82.8076C105.199 83.7905 98.2043 86.7449 96.6629 87.3896L98.7177 92.376C99.9221 91.4687 104.112 88.2969 104.945 87.4642C105.928 86.4823 107.912 84.3686 107.931 84.3475C108.03 84.2416 108.187 84.2171 108.314 84.2887C111.363 86.002 114.914 85.3248 114.95 85.3178C115.068 85.2955 115.19 85.3411 115.263 85.4372C115.27 85.4476 116.065 86.5018 117.168 87.6699C118.171 88.7317 122.712 93.2217 123.645 94.1433L127.692 91.8901L123.992 88.8588C123.858 88.7489 123.838 88.5515 123.948 88.4178C124.057 88.284 124.255 88.2644 124.39 88.374L128.447 91.6974C128.528 91.7632 128.57 91.8645 128.561 91.9677C128.551 92.0711 128.491 92.1633 128.401 92.2138L123.745 94.8059C123.623 94.8732 123.471 94.8527 123.372 94.7548C123.316 94.7003 117.834 89.2872 116.712 88.1005C115.82 87.1564 115.141 86.3049 114.878 85.9663C114.08 86.0912 111.036 86.4319 108.224 84.9528C107.722 85.4851 106.211 87.0867 105.389 87.9077C104.387 88.9089 98.9996 92.9498 98.7705 93.1212C98.6939 93.1796 98.5941 93.1986 98.4991 93.1726C98.406 93.1469 98.3294 93.0795 98.2926 92.9898L95.9646 87.3401C95.8985 87.1803 95.9744 86.9976 96.1343 86.9312C98.8318 85.8115 103.92 83.6094 105.57 82.5995C104.322 81.9075 100.869 79.9151 99.7954 78.5039C98.4709 76.7613 97.0526 72.5206 97.2775 71.4688C97.4986 70.4397 100.058 65.4728 101.345 64.6865C102.493 63.9858 106.965 61.9876 108.489 62.6742C109.979 63.3445 113.634 71.3665 114.542 76.4693C116.152 74.3379 121.512 67.2706 122.389 66.5118C123.223 65.7897 128.018 62.4547 129.929 62.9904C131.807 63.516 135.612 69.3919 135.612 73.329C135.612 73.374 135.602 73.4187 135.583 73.4597C135.528 73.5824 134.165 76.5044 130.727 79.803C129.466 81.0131 124.377 82.7523 121.691 83.6125C123.379 83.7352 125.976 84.0077 128.066 84.5926C130.583 85.2966 134.13 87.3019 136.035 88.3794C136.646 88.7244 137.128 88.9968 137.277 89.0565C137.736 89.2399 142.983 89.9981 146.183 90.4327C146.325 90.452 146.436 90.5652 146.452 90.7076C146.468 90.85 146.386 90.9853 146.252 91.0364L144.255 91.7967L147.576 92.974C147.713 93.0226 147.799 93.1591 147.783 93.3036C147.767 93.4485 147.654 93.5629 147.509 93.5807L143.135 94.1121L144.393 95.7359C144.474 95.8406 144.481 95.9848 144.41 96.0962C144.352 96.1877 144.25 96.241 144.145 96.241ZM116.741 84.011C116.675 84.011 116.61 83.9902 116.555 83.9501L114.556 82.4817C114.486 82.43 114.44 82.3516 114.43 82.265C114.42 82.1783 114.447 82.0917 114.504 82.0253C114.558 81.9616 119.978 75.6312 121.295 74.1509C122.098 73.2485 123.583 71.7955 124.687 70.7354C124.812 70.6161 125.011 70.6188 125.13 70.7443C125.25 70.8689 125.247 71.0676 125.122 71.1872C124.025 72.2396 122.553 73.6805 121.765 74.5672C120.603 75.8724 116.233 80.9702 115.2 82.1766L116.782 83.3388C119.947 81.9565 126.575 77.8716 127.806 77.1078L125.817 69.8891C125.771 69.7222 125.869 69.5496 126.036 69.5037C126.206 69.4587 126.375 69.5557 126.422 69.7226L128.473 77.1669C128.51 77.3004 128.454 77.4425 128.337 77.5159C128.01 77.72 120.305 82.531 116.863 83.9862C116.824 84.0028 116.783 84.011 116.741 84.011ZM109.767 81.534C109.694 81.534 109.622 81.5089 109.564 81.4596C109.536 81.4357 106.694 79.0105 103.058 74.3865C103.007 74.322 102.984 74.2402 102.993 74.1588L103.658 68.0438C103.673 67.9076 103.775 67.7965 103.91 67.7702C104.048 67.7426 104.181 67.8087 104.246 67.929C104.291 68.012 108.737 76.2761 110.069 81.1379C110.105 81.2704 110.051 81.4109 109.935 81.485C109.884 81.5177 109.825 81.534 109.767 81.534ZM103.631 74.0994C106.023 77.1307 108.053 79.188 109.134 80.2168C107.875 76.3976 105.249 71.2013 104.171 69.1311L103.631 74.0994Z" fill="black"/>
<path d="M115.011 85.9385C114.849 85.9385 114.712 85.814 114.699 85.6499L114.069 77.7277C109.792 79.8747 108.476 84.5941 108.463 84.6431C108.418 84.8106 108.245 84.9094 108.079 84.8644C107.912 84.8194 107.812 84.6474 107.858 84.4802C107.916 84.2626 109.349 79.1266 114.219 76.9636C114.311 76.9223 114.418 76.9282 114.507 76.9808C114.594 77.0328 114.651 77.124 114.659 77.2253L115.324 85.6002C115.338 85.7729 115.209 85.9238 115.037 85.9376C115.028 85.9382 115.019 85.9385 115.011 85.9385Z" fill="black"/>
<path d="M126.119 70.1192C126.026 70.1192 125.933 70.0776 125.871 69.998C124.854 68.6879 122.441 67.0233 122.416 67.0068C122.274 66.9088 122.238 66.7135 122.336 66.5709C122.434 66.4283 122.629 66.3927 122.772 66.4901C122.874 66.5602 125.29 68.2259 126.367 69.6135C126.473 69.7504 126.448 69.9471 126.312 70.0534C126.255 70.0978 126.187 70.1192 126.119 70.1192Z" fill="black"/>
<path d="M128.17 78.8881C127.997 78.8881 127.857 78.7479 127.857 78.5747V77.2502C127.857 77.0769 127.997 76.9367 128.17 76.9367C128.344 76.9367 128.484 77.0769 128.484 77.2502V78.5747C128.484 78.7479 128.344 78.8881 128.17 78.8881Z" fill="black"/>
<path d="M103.97 68.3913C103.877 68.3913 103.786 68.3503 103.724 68.2717L101.263 65.1476C101.155 65.0117 101.179 64.8146 101.315 64.7074C101.45 64.6009 101.647 64.6229 101.755 64.7601L104.216 67.8842C104.323 68.0201 104.3 68.2172 104.164 68.3243C104.106 68.3693 104.038 68.3913 103.97 68.3913Z" fill="black"/>
<path d="M106.165 82.8812C106.038 82.8812 105.918 82.8034 105.871 82.6776C105.81 82.5154 105.893 82.3348 106.055 82.2741L109.657 80.927C109.817 80.8676 110 80.9488 110.061 81.1107C110.121 81.2729 110.039 81.4535 109.876 81.5142L106.275 82.8613C106.239 82.8748 106.202 82.8812 106.165 82.8812Z" fill="black"/>
<path d="M117.263 84.3477C117.09 84.3477 116.946 84.2075 116.946 84.0343C116.946 83.861 117.084 83.7208 117.257 83.7208H117.263C117.436 83.7208 117.577 83.861 117.577 84.0343C117.577 84.2075 117.436 84.3477 117.263 84.3477Z" fill="black"/>
<path d="M118.928 83.9069L117.251 84.0342L118.721 85.005L118.928 83.9069Z" fill="black"/>
<path d="M118.721 85.3184C118.66 85.3184 118.6 85.3009 118.548 85.2663L117.078 84.2957C116.966 84.2219 116.913 84.0851 116.947 83.9556C116.98 83.8259 117.093 83.7319 117.227 83.7218L118.904 83.5945C119.002 83.5883 119.097 83.6254 119.161 83.6979C119.227 83.7704 119.255 83.8693 119.236 83.9652L119.029 85.0632C119.01 85.1663 118.94 85.2526 118.844 85.2937C118.804 85.3102 118.763 85.3184 118.721 85.3184ZM118.188 84.2774L118.5 84.4833L118.544 84.2504L118.188 84.2774Z" fill="black"/>
<path d="M84.1486 84.6091C84.1137 84.6091 84.0782 84.6033 84.0432 84.5911L75.1526 81.4288C75.0723 81.4 75.0068 81.34 74.9718 81.2623C74.9369 81.1845 74.9351 81.0958 74.9669 81.0165L76.3178 77.6558C76.3821 77.4951 76.5641 77.418 76.7258 77.482C76.8864 77.5465 76.9648 77.729 76.8998 77.8897L75.6708 80.9476L84.2539 84.0004C84.4169 84.0585 84.502 84.2379 84.4438 84.4008C84.3984 84.5293 84.2773 84.6091 84.1486 84.6091Z" fill="black"/>
<path d="M90.8135 85.1381C90.7546 85.1381 90.6965 85.1218 90.6456 85.0891C90.555 85.0319 90.4998 84.9321 90.4998 84.8249C90.4998 84.657 91.6301 84.0835 93.8908 83.1047C97.2719 81.6409 97.8055 81.5962 97.9807 81.5818C98.632 81.527 101.092 81.5754 103.042 81.625C103.216 81.6295 103.352 81.7734 103.348 81.9464C103.344 82.1196 103.189 82.2607 103.026 82.2518C100.291 82.1824 98.5181 82.1668 98.0334 82.2062C97.2205 82.2742 92.5546 84.3575 90.9471 85.1087C90.9048 85.1282 90.8588 85.1381 90.8135 85.1381Z" fill="black"/>
<path d="M80.5812 92.9526C80.2565 92.9526 79.9655 92.9412 79.7253 92.9158C78.5637 92.794 76.9532 92.2498 75.8871 91.8901L75.5355 91.7716C74.9504 91.577 69.7755 89.8622 68.2108 89.658C66.6786 89.4584 64.8798 89.1921 64.8798 89.1921C64.7549 89.1734 64.6532 89.0819 64.6219 88.9594C63.7575 85.5733 63.6816 81.4177 63.6809 81.3761C63.6803 81.3259 63.6913 81.276 63.714 81.231C64.2078 80.2448 67.9461 79.0427 68.6904 78.8119C70.0609 78.3874 73.3661 77.8966 75.2144 77.642C75.3804 77.6166 75.544 77.7372 75.5679 77.9095C75.5918 78.0809 75.4718 78.2392 75.3002 78.2628C73.4709 78.515 70.2037 78.9993 68.8766 79.4107C66.6136 80.1126 64.6605 80.9914 64.31 81.4558C64.326 82.0606 64.4479 85.6025 65.1793 88.6026C65.6946 88.6779 67.0767 88.8784 68.2915 89.0367C69.915 89.2482 75.1433 90.9804 75.7339 91.1773L76.088 91.2961C77.1276 91.6472 78.6991 92.1779 79.7914 92.2927C81.0424 92.4252 83.9028 92.1455 85.2757 91.8333C86.2229 91.6187 88.3781 90.5546 89.952 89.7781C90.7656 89.3765 91.4083 89.0591 91.7477 88.9235C92.5796 88.591 95.1527 87.9139 96.0998 87.6687L95.9645 87.34C95.8989 87.1814 95.9731 86.9999 96.1305 86.9326L99.998 85.2759C102.765 84.0595 104.698 83.1296 105.569 82.5988C105.408 82.5094 105.211 82.3983 104.986 82.2694C104.836 82.1834 104.784 81.9918 104.87 81.8415C104.957 81.6903 105.149 81.6394 105.299 81.7258C105.904 82.0735 106.311 82.2902 106.312 82.2914C106.404 82.3404 106.466 82.4316 106.477 82.5351C106.488 82.6386 106.447 82.7408 106.367 82.8075C105.783 83.2988 103.725 84.3227 100.248 85.8508L96.6622 87.3871L96.8166 87.763C96.8515 87.8472 96.8478 87.9418 96.8074 88.0232C96.7664 88.1043 96.6922 88.1637 96.604 88.186C96.5679 88.1955 92.9478 89.1187 91.9805 89.5057C91.6643 89.6321 90.9996 89.9602 90.2295 90.3401C88.5387 91.1748 86.4343 92.2135 85.4148 92.4449C84.2275 92.7145 82.0583 92.9526 80.5812 92.9526Z" fill="black"/>
<path d="M79.2843 86.5002C79.1954 86.5002 79.128 86.4968 79.0839 86.4892C78.6606 86.4157 76.819 85.8145 74.0566 84.906C72.1366 84.2746 70.151 83.6213 69.8147 83.5573C69.0814 83.4177 65.2224 82.9218 65.1838 82.917C65.0117 82.8949 64.8903 82.7376 64.9124 82.5661C64.9339 82.3941 65.0919 82.2744 65.2635 82.2949C65.4234 82.3154 69.1807 82.7985 69.9324 82.9414C70.2835 83.0081 71.7991 83.5031 74.2534 84.3106C76.3762 85.0088 78.782 85.8004 79.1919 85.8714C79.7641 85.9727 86.5944 85.0912 90.7707 84.5144C90.9367 84.4875 91.1003 84.6099 91.1242 84.782C91.1481 84.9534 91.028 85.1116 90.8565 85.1352C89.7985 85.2815 80.9206 86.5002 79.2843 86.5002Z" fill="black"/>
<path d="M114.346 77.5636C114.28 77.5636 114.214 77.5431 114.157 77.5005C114.019 77.3968 113.991 77.2002 114.096 77.0619C114.127 77.0203 117.21 72.9237 119.606 69.8643C119.476 68.7748 119.013 64.8179 119.09 64.3223C119.171 63.8164 119.609 61.9503 119.628 61.871C119.641 61.8175 119.668 61.7682 119.705 61.7281C119.784 61.6439 119.911 61.5126 120.071 61.348C121.85 59.5098 122.788 58.4314 122.858 58.1428C122.918 57.6588 123.548 53.5601 123.889 52.3339C124.182 51.2733 127.305 43.3091 128.073 41.3574L122.733 41.2276C121.972 42.0966 120.819 43.5323 120.687 44.0168C120.618 44.2685 120.273 45.7717 119.873 47.5122C118.339 54.1968 117.858 56.1908 117.73 56.4029C117.65 56.5363 117.33 56.9291 116.723 57.6698C115.982 58.5747 114.602 60.2592 114.496 60.5561C114.431 60.9518 114.376 65.4366 114.499 66.0533C114.507 66.0925 115.201 70.1517 114.89 70.7746C114.847 70.8588 114.742 71.0984 114.477 71.7632C114.413 71.9239 114.23 72.0029 114.07 71.9383C113.909 71.8743 113.83 71.6922 113.894 71.5312C114.116 70.9735 114.259 70.6343 114.328 70.4942C114.456 70.1103 114.066 67.0839 113.884 66.1766C113.735 65.4328 113.813 60.8449 113.882 60.4317C113.928 60.1525 114.435 59.4736 116.238 57.2727C116.677 56.7358 117.132 56.1808 117.193 56.0804C117.344 55.726 118.545 50.4962 119.262 47.3718C119.68 45.5524 120.009 44.1156 120.082 43.8517C120.303 43.0402 122.149 40.9398 122.359 40.7029C122.421 40.6337 122.513 40.5967 122.601 40.5972L128.536 40.7414C128.639 40.7439 128.733 40.7962 128.79 40.8816C128.847 40.967 128.858 41.0744 128.82 41.1697C128.781 41.2713 124.812 51.3481 124.493 52.5009C124.18 53.6316 123.554 57.6241 123.479 58.2268C123.426 58.6529 122.652 59.5835 120.522 61.7837C120.399 61.9104 120.296 62.017 120.22 62.0972C120.133 62.4694 119.777 63.9947 119.711 64.4202C119.665 64.7318 119.952 67.4854 120.245 69.918C120.255 70.0004 120.232 70.0834 120.18 70.1489C117.777 73.2133 114.629 77.3964 114.597 77.4383C114.536 77.5204 114.441 77.5636 114.346 77.5636Z" fill="black"/>
<path d="M163.26 87.9324C163.253 87.9324 163.245 87.9321 163.237 87.9315L131.713 85.6081C131.541 85.5956 131.411 85.4453 131.424 85.2726C131.436 85.0997 131.582 84.9687 131.76 84.9831L163.061 87.2899L182.617 42.2502C182.687 42.0913 182.869 42.0178 183.03 42.0876C183.189 42.1565 183.262 42.3411 183.193 42.4999L163.548 87.7438C163.498 87.8589 163.384 87.9324 163.26 87.9324Z" fill="black"/>
<path d="M95.7894 82.9599C95.7814 82.9599 95.7734 82.9596 95.7655 82.9589L75.2347 81.4459C75.0619 81.4333 74.9327 81.283 74.9449 81.1104C74.9578 80.9371 75.1036 80.8055 75.2812 80.8208L95.812 82.3339C95.9848 82.3464 96.114 82.4967 96.1018 82.6694C96.0896 82.8344 95.9517 82.9599 95.7894 82.9599Z" fill="black"/>
<path d="M168.443 91.3008C168.384 91.3008 168.325 91.2846 168.272 91.25L163.089 87.8817C162.944 87.7874 162.903 87.5933 162.997 87.4483C163.092 87.3029 163.287 87.2621 163.431 87.3564L168.614 90.7247C168.759 90.819 168.8 91.0131 168.706 91.1582C168.646 91.2506 168.545 91.3008 168.443 91.3008Z" fill="black"/>
<path d="M185.731 54.708C185.576 54.708 185.442 54.5929 185.421 54.435C185.399 54.2633 185.52 54.1059 185.692 54.0838L201.213 52.0679L211.198 52.6914C211.37 52.7024 211.502 52.8512 211.491 53.0238C211.481 53.1962 211.35 53.3235 211.158 53.3171L201.234 52.6914L185.773 54.7053C185.759 54.7071 185.745 54.708 185.731 54.708Z" fill="black"/>
<path d="M260.048 68.2857C260.038 68.2857 260.03 68.2854 260.021 68.2844L181.298 61.5502C181.126 61.5355 180.998 61.3837 181.013 61.2114C181.028 61.0387 181.184 60.9089 181.352 60.9257L260.029 67.656L303.645 58.5299C303.81 58.4944 303.981 58.6024 304.016 58.7723C304.052 58.9419 303.943 59.1078 303.773 59.1433L260.112 68.2789C260.09 68.2835 260.069 68.2857 260.048 68.2857Z" fill="black"/>
<path d="M201.879 63.3097C201.713 63.3097 201.575 63.1812 201.566 63.0146L200.941 52.3969C200.93 52.2243 201.063 52.0758 201.235 52.0657C201.402 52.059 201.557 52.1875 201.567 52.3602L202.192 62.9779C202.202 63.1506 202.07 63.299 201.897 63.3091C201.891 63.3094 201.885 63.3097 201.879 63.3097Z" fill="black"/>
<path d="M259.102 95.8501C259.098 95.8501 259.094 95.8501 259.091 95.8498C258.918 95.8439 258.783 95.6989 258.788 95.5259L259.734 67.9615C259.74 67.7889 259.906 67.6542 260.059 67.6591C260.231 67.665 260.367 67.81 260.361 67.983L259.415 95.5474C259.409 95.7166 259.27 95.8501 259.102 95.8501Z" fill="black"/>
<path d="M200.085 97.0583C199.962 97.0583 199.845 96.9851 199.795 96.8642C199.729 96.7041 199.806 96.5207 199.966 96.4549C202.069 95.5896 202.231 95.2109 202.236 95.1953C202.444 94.5042 206.059 86.0919 206.214 85.7343C206.27 85.6036 206.407 85.5277 206.548 85.5479C206.69 85.5693 206.798 85.6829 206.814 85.8246L207.333 90.6953L213.508 91.1786C213.532 88.818 213.552 85.3128 213.509 85.0205C213.418 84.483 212.37 81.5368 211.926 81.3121C211.752 81.3121 211.635 81.1759 211.635 81.0029C211.635 80.8296 211.798 80.6934 211.971 80.6934C212.992 80.6934 214.12 84.8757 214.127 84.9179C214.197 85.3343 214.143 90.4911 214.132 91.5205C214.13 91.6075 214.094 91.6898 214.03 91.7486C213.966 91.8068 213.877 91.8359 213.793 91.8297L207.024 91.2999C206.874 91.2879 206.753 91.1706 206.737 91.0207L206.317 87.0833C204.965 90.2365 202.977 94.9085 202.836 95.3765C202.777 95.573 202.639 96.0328 200.204 97.0346C200.165 97.0505 200.125 97.0583 200.085 97.0583Z" fill="black"/>
<path d="M194.605 97.7865C194.481 97.7865 194.368 97.7137 194.318 97.6004L193.616 96.0212L190.061 97.2897C189.976 97.32 189.882 97.3123 189.803 97.2686C189.724 97.2245 189.668 97.1486 189.649 97.0604L189.297 95.4213L184.996 95.8486C184.846 95.8593 184.712 95.7742 184.666 95.6343C184.621 95.4947 184.678 95.3417 184.805 95.267C185.279 94.9863 189.464 92.5225 190.386 92.3805C190.979 92.2914 192.591 92.6713 194.481 93.1418C195.09 93.2933 195.778 93.465 195.906 93.4702C196.13 93.4702 196.657 93.3187 197.021 93.1969C197.573 91.4739 199.752 84.7191 200.093 84.241C200.445 83.7491 204.082 80.9685 204.808 80.4159C204.867 80.3709 204.936 80.3483 205.014 80.3522C205.015 80.3522 207.704 80.4967 209.753 80.5977C209.927 80.6063 210.059 80.7535 210.051 80.9262C210.043 81.0988 209.895 81.2313 209.722 81.224C207.923 81.1352 205.631 81.0131 205.096 80.9847C203.05 82.5443 200.805 84.3239 200.604 84.6052C200.352 84.9998 198.609 90.2938 197.571 93.5375C197.541 93.6306 197.469 93.7043 197.377 93.7371C197.274 93.7742 196.355 94.0971 195.904 94.0971C195.738 94.0971 195.341 94.0019 194.33 93.7503C193.084 93.4402 190.999 92.9202 190.482 93C190.006 93.0732 188.041 94.1301 186.373 95.0818L189.514 94.7699C189.681 94.753 189.818 94.8605 189.852 95.016L190.187 96.5793L193.679 95.3332C193.835 95.2769 194.005 95.3515 194.071 95.5009L194.807 97.1557C196.526 97.1207 198.37 97.0443 198.609 96.9705C198.774 96.9209 198.951 97.0103 199.003 97.1731C199.055 97.3365 198.97 97.5111 198.807 97.5652C198.384 97.7063 195.488 97.7703 194.611 97.7865H194.605Z" fill="black"/>
<path d="M206.502 86.1715C206.415 86.1715 206.329 86.136 206.267 86.0662C206.152 85.9367 206.164 85.7386 206.294 85.6235L211.763 80.7724C211.893 80.6577 212.091 80.669 212.206 80.7988C212.321 80.9282 212.309 81.1263 212.18 81.2414L206.71 86.0925C206.65 86.1455 206.576 86.1715 206.502 86.1715Z" fill="black"/>
<path d="M288.083 84.0361C288.01 84.0361 287.937 84.011 287.878 83.9595C286.784 83.0131 285.016 82.2129 284.699 82.3231C284.538 82.3754 284.355 82.2961 284.297 82.1363C284.238 81.9772 284.309 81.8036 284.467 81.7406C285.229 81.4382 287.376 82.6962 288.288 83.4857C288.42 83.599 288.434 83.797 288.32 83.9277C288.258 83.9993 288.171 84.0361 288.083 84.0361Z" fill="black"/>
<path d="M294.135 93.4159C294.101 93.4159 294.072 93.4144 294.048 93.4114C293.437 93.3348 290.395 91.5227 290.126 91.0752C289.992 90.853 289.688 89.6585 289.013 86.8868C288.764 85.8684 288.55 84.9887 288.453 84.6458C288.434 84.5821 288.361 84.4169 288.065 84.1306C287.101 84.8689 285.114 86.4371 284.771 86.926C284.396 87.462 283.323 90.05 282.941 91.002C282.876 91.163 282.691 91.2417 282.533 91.1762C282.372 91.1119 282.294 90.9294 282.359 90.7688C282.416 90.6261 283.764 87.2709 284.258 86.5663C284.751 85.8629 287.573 83.7153 287.894 83.4728C288.011 83.3834 288.176 83.3886 288.288 83.4857C288.721 83.8606 288.973 84.1836 289.055 84.4735C289.157 84.8282 289.373 85.7135 289.622 86.7383C289.988 88.2394 290.541 90.508 290.667 90.759C290.933 91.0936 293.721 92.7385 294.126 92.7894C294.393 92.8157 296.448 92.4328 297.943 92.1536C299.495 91.864 300.96 91.5904 301.45 91.5576C302.268 91.5055 306.65 92.0657 308.592 92.3238L308.155 91.887C308.064 91.7961 308.038 91.6589 308.089 91.541C308.14 91.4232 308.276 91.3543 308.386 91.3518L312.11 91.4614C310.905 90.4984 309.424 89.3839 308.961 89.2296C308.227 88.9988 298.272 89.7739 297.686 89.8578C297.164 89.9315 295.842 88.7674 294.825 87.7784C294.778 87.7328 294.747 87.6734 294.735 87.6088C294.353 85.4765 293.647 82.1737 293.175 81.2744L284.665 82.3371C283.961 82.6527 280.331 85.0909 279.215 86.4025C278.103 87.7108 276.436 92.2362 276.419 92.2818C276.36 92.445 276.178 92.5288 276.017 92.4682C275.854 92.4088 275.77 92.2289 275.83 92.0663C275.9 91.8759 277.552 87.3897 278.737 85.9967C279.925 84.6008 283.689 82.0516 284.467 81.7406C284.491 81.7308 284.518 81.724 284.544 81.7207L293.296 80.6276C293.404 80.6144 293.516 80.6598 293.583 80.7476C294.263 81.6304 295.166 86.469 295.335 87.3989C296.236 88.2676 297.35 89.1963 297.626 89.2361C297.691 89.2236 308.197 88.3138 309.16 88.6353C310.011 88.9187 312.899 91.291 313.226 91.5607C313.329 91.6457 313.367 91.7872 313.319 91.9127C313.272 92.0378 313.155 92.1175 313.017 92.1156L309.157 92.0017L309.692 92.5368C309.788 92.632 309.811 92.7774 309.751 92.8977C309.691 93.0186 309.565 93.0853 309.427 93.0691C307.496 92.8043 302.299 92.1327 301.492 92.1832C301.039 92.2132 299.523 92.4964 298.058 92.77C295.756 93.1995 294.55 93.4159 294.135 93.4159Z" fill="black"/>
<path d="M243.811 58.2704C243.802 58.2704 243.792 58.27 243.783 58.2691L242.13 58.1179C241.958 58.102 241.83 57.9495 241.846 57.7772C241.862 57.6042 242.024 57.476 242.187 57.4934L243.497 57.6134C243.413 40.6414 237.128 27.1108 237.064 26.9752C237.015 26.8733 237.026 26.7536 237.091 26.6614L240.18 22.2741C240.28 22.1324 240.476 22.0978 240.618 22.1982C240.759 22.2977 240.793 22.4933 240.694 22.6347L237.707 26.8754C238.437 28.5008 244.125 41.7038 244.125 57.9569C244.125 58.045 244.088 58.1289 244.023 58.1883C243.965 58.2413 243.889 58.2704 243.811 58.2704Z" fill="black"/>
<path d="M255.464 59.0424C255.417 59.0424 255.369 59.0408 255.322 59.0378L246.866 58.5061C246.694 58.4954 246.563 58.3481 246.573 58.1764C246.574 58.1476 246.724 55.2694 246.34 53.0474C246.324 52.9525 246.352 52.8552 246.416 52.7839C246.481 52.7125 246.572 52.6718 246.671 52.6816L250.641 52.9648L241.539 20.5459C241.492 20.3791 241.589 20.2062 241.756 20.1593C241.923 20.114 242.097 20.2099 242.143 20.3764L251.366 53.2243C251.393 53.3226 251.371 53.4282 251.307 53.5072C251.242 53.5865 251.141 53.6287 251.042 53.6217L247.02 53.3349C247.278 55.1268 247.239 57.1385 247.212 57.8997L255.361 58.4121C255.91 58.4449 256.412 58.2205 256.75 57.7923C257.088 57.364 257.191 56.8189 257.03 56.2972L244.145 14.3262C244.012 13.8934 243.666 13.59 243.219 13.5147C242.774 13.4395 242.346 13.6124 242.078 13.9782L232.991 26.3903C239.325 37.574 240.019 52.5934 240.026 52.7447C240.03 52.8338 239.995 52.9201 239.932 52.9822C239.868 53.0443 239.781 53.0741 239.692 53.0707L234.883 52.7557C234.719 52.745 234.591 52.6094 234.59 52.445C234.523 41.984 230.691 33.0306 229.719 30.9289L221.255 42.3544C224.23 46.4902 224.424 51.5809 224.432 51.7985C224.434 51.8858 224.401 51.9702 224.339 52.0315C224.277 52.0927 224.203 52.13 224.105 52.1217L218.149 51.8686C218.024 51.8634 217.913 51.7841 217.869 51.6669C217.825 51.55 217.854 51.4177 217.944 51.3305L220.587 48.7694C220.166 47.6441 219.368 46.3034 218.975 45.6731L213.701 52.1135C213.232 52.6862 213.126 53.434 213.418 54.1145C213.71 54.7946 214.326 55.2336 215.065 55.2886L227.349 56.202C227.573 48.2302 224.88 43.111 224.853 43.0595C224.793 42.9487 224.806 42.8131 224.885 42.7152L228.432 38.3037C228.499 38.2201 228.603 38.1757 228.709 38.1883C228.815 38.1993 228.908 38.2635 228.956 38.3588C232.713 45.7952 232.232 54.7808 232.091 56.5703L240.338 57.3242C240.511 57.3401 240.638 57.4925 240.622 57.6649C240.606 57.8375 240.454 57.9633 240.281 57.9486L231.722 57.1662C231.639 57.1586 231.562 57.1176 231.509 57.0524C231.455 56.9875 231.43 56.9036 231.439 56.8201C231.45 56.7218 232.446 47.0873 228.612 39.08L225.501 42.9498C226.005 43.9722 228.251 48.9799 227.966 56.5508C227.962 56.6356 227.925 56.7158 227.861 56.7724C227.797 56.8296 227.714 56.8574 227.629 56.8514L215.018 55.9138C214.042 55.8412 213.228 55.2609 212.842 54.3615C212.455 53.4625 212.596 52.4735 213.216 51.7162L218.764 44.9407C218.827 44.8638 218.929 44.8234 219.023 44.8262C219.123 44.8314 219.214 44.8834 219.269 44.9667C219.327 45.0542 220.691 47.1293 221.247 48.7523C221.287 48.867 221.256 48.9944 221.168 49.0789L218.904 51.2733L223.782 51.4806C223.683 50.2574 223.161 45.9573 220.614 42.5406C220.532 42.4298 220.531 42.278 220.613 42.1668L229.526 30.1365C229.591 30.0492 229.7 30.0003 229.805 30.0107C229.913 30.0198 230.009 30.0845 230.058 30.1815C230.108 30.2813 235.059 40.2133 235.214 52.1491L239.379 52.4222C239.233 50.0955 238.157 36.6512 232.346 26.5251C232.284 26.4176 232.291 26.2842 232.365 26.1841L241.572 13.608C241.976 13.0557 242.647 12.7837 243.323 12.8969C243.999 13.0107 244.544 13.4883 244.745 14.1427L257.63 56.1137C257.848 56.8245 257.704 57.5971 257.243 58.1809C256.812 58.7266 256.155 59.0424 255.464 59.0424Z" fill="black"/>
<path d="M254.432 42.4052C254.32 42.4052 254.211 42.3446 254.155 42.2384C254.074 42.0853 254.133 41.8958 254.285 41.8147L287.41 24.2867C287.436 24.2732 287.463 24.2635 287.491 24.2573L293.141 23.0296C293.19 23.0195 293.24 23.0201 293.288 23.0329L297.371 24.1107L297.856 23.0344L292.949 21.4305C292.826 21.3903 292.74 21.2796 292.733 21.151C292.726 21.0221 292.797 20.9021 292.914 20.848L298.908 18.0832L298.629 16.7992L292.968 18.8855C292.876 18.9195 292.773 18.9085 292.69 18.8549C292.607 18.8016 292.554 18.7126 292.546 18.6143L292.486 17.7943C292.479 17.6997 292.515 17.6067 292.585 17.5421L297.08 13.3598L296.223 12.6099L290.202 17.1218C290.163 17.1515 290.116 17.1714 290.068 17.18L288.185 17.5075C288.092 17.525 287.993 17.4965 287.922 17.4323C287.85 17.3686 287.812 17.2755 287.818 17.1797L288.128 12.0721L286.74 11.8985C286.178 14.5316 285.418 19.0046 285.41 19.0512C285.396 19.1351 285.348 19.2094 285.278 19.2575L252.897 41.445C252.753 41.5429 252.559 41.5071 252.461 41.3635C252.363 41.2209 252.399 41.0256 252.541 40.9276L284.814 18.8155C284.949 18.023 285.671 13.8398 286.187 11.485C286.221 11.327 286.37 11.2226 286.532 11.241L288.498 11.4865C288.662 11.507 288.781 11.6515 288.772 11.8165L288.468 16.8219L289.886 16.5751L296.05 11.956C296.168 11.8669 296.333 11.8734 296.444 11.9707L297.755 13.1164C297.822 13.1749 297.861 13.2588 297.862 13.3475C297.863 13.4363 297.827 13.5214 297.762 13.5817L293.123 17.8983L293.142 18.1532L298.75 16.0861C298.835 16.0555 298.93 16.0613 299.009 16.1054C299.089 16.1492 299.146 16.2251 299.165 16.3139L299.574 18.1958C299.605 18.3394 299.533 18.4854 299.4 18.5469L293.902 21.0827L298.383 22.547C298.467 22.5746 298.536 22.6367 298.572 22.7181C298.608 22.7995 298.608 22.8923 298.571 22.9734L297.834 24.6101C297.772 24.7497 297.619 24.8231 297.468 24.7845L293.2 23.6581L287.666 24.8608L254.579 42.3685C254.532 42.3933 254.482 42.4052 254.432 42.4052Z" fill="black"/>
<path d="M245.361 67.0294C245.352 67.0294 245.343 67.0291 245.334 67.0282L242.49 66.7848C242.333 66.7713 242.21 66.6431 242.203 66.4855L241.845 57.8185C241.841 57.7282 241.877 57.641 241.942 57.5785C242.009 57.5161 242.097 57.4858 242.187 57.4935L243.84 57.6447C243.981 57.6575 244.096 57.7632 244.12 57.9024L245.67 66.6615C245.687 66.7573 245.658 66.8556 245.592 66.9275C245.532 66.9927 245.448 67.0294 245.361 67.0294ZM242.819 66.184L244.981 66.3689L243.544 58.2471L242.487 58.1503L242.819 66.184Z" fill="black"/>
<path d="M227.15 65.4717C227.141 65.4717 227.132 65.4714 227.123 65.4704L224.504 65.2464C224.415 65.2387 224.333 65.1928 224.279 65.1205C224.225 65.048 224.205 64.9562 224.225 64.868L226.036 56.4726C226.067 56.3284 226.195 56.2253 226.343 56.2253H227.652C227.738 56.2253 227.821 56.2608 227.88 56.3235C227.939 56.3863 227.97 56.4708 227.965 56.5568L227.463 65.1763C227.458 65.2608 227.42 65.3397 227.355 65.3951C227.298 65.4447 227.225 65.4717 227.15 65.4717ZM224.913 64.6523L226.855 64.8184L227.319 56.8522H226.596L224.913 64.6523Z" fill="black"/>
<path d="M223.236 39.4669C223.166 39.4669 223.098 39.4433 223.042 39.3996L195.512 17.7059L191.06 16.8035L186.861 17.3575C186.706 17.3756 186.563 17.2834 186.519 17.1359L186.127 15.8105C186.102 15.7278 186.112 15.6388 186.156 15.5643C186.199 15.4899 186.271 15.4364 186.355 15.4165L190.593 14.4082L190.789 13.8888L185.395 12.0917C185.316 12.0656 185.251 12.009 185.213 11.9346C185.176 11.8602 185.17 11.7742 185.196 11.6953L185.638 10.3698C185.69 10.2168 185.851 10.1258 186.006 10.1635L191.706 11.4656L191.743 11.3683L188.017 7.4453C187.9 7.3213 187.903 7.12603 188.025 7.00635L189.121 5.92615C189.236 5.8123 189.42 5.80522 189.543 5.90991L194.408 10.0159L195.752 10.3909L196.044 5.73601C196.05 5.64818 196.092 5.56675 196.16 5.51133C196.228 5.45623 196.318 5.43234 196.405 5.44582L198.454 5.76077C198.595 5.78253 198.703 5.89637 198.718 6.03843C198.728 6.1324 198.956 8.34885 198.956 9.22123C198.956 9.96536 199.077 12.1004 199.107 12.6285L224.32 37.767C224.43 37.8769 224.443 38.0504 224.351 38.1754L223.488 39.3398C223.437 39.408 223.361 39.4527 223.278 39.464C223.263 39.4658 223.25 39.4669 223.236 39.4669ZM191.071 16.1723C191.092 16.1723 191.113 16.1744 191.134 16.1784L195.71 17.1063C195.758 17.116 195.803 17.1372 195.842 17.1675L223.177 38.7072L223.686 38.02L198.579 12.988C198.525 12.9338 198.492 12.8613 198.488 12.7844C198.481 12.6749 198.329 10.0874 198.329 9.22142C198.329 8.54494 198.179 6.95106 198.118 6.34379L196.649 6.1176L196.355 10.8166C196.349 10.9108 196.301 10.9975 196.224 11.0526C196.146 11.1074 196.05 11.1251 195.957 11.0988L194.173 10.6013C194.13 10.5894 194.09 10.568 194.055 10.5389L189.358 6.57336L188.684 7.23699L192.333 11.0795C192.417 11.1667 192.442 11.2937 192.399 11.4064L192.196 11.9433C192.14 12.0896 191.983 12.1732 191.833 12.1377L186.144 10.838L185.891 11.5962L191.297 13.3976C191.378 13.4246 191.445 13.4833 191.481 13.5602C191.518 13.6373 191.522 13.7258 191.492 13.8057L191.121 14.7855C191.084 14.8828 191.001 14.9554 190.9 14.9796L186.822 15.9499L187.045 16.7011L191.03 16.1752C191.044 16.1734 191.058 16.1723 191.071 16.1723Z" fill="black"/>
<path d="M282.681 42.9423C282.674 42.9423 282.666 42.942 282.659 42.9414C282.525 42.9322 282.413 42.8388 282.378 42.7097L280.969 37.4435C280.944 37.3489 280.964 37.2476 281.025 37.1702C281.085 37.0928 281.167 37.0557 281.276 37.0493L284.911 37.0946C285.016 37.0958 285.113 37.1494 285.17 37.2369C285.227 37.3245 285.237 37.4347 285.196 37.5308L282.97 42.7517C282.92 42.868 282.806 42.9423 282.681 42.9423ZM281.682 37.6814L282.749 41.6695L284.435 37.7156L281.682 37.6814Z" fill="black"/>
<path d="M297.583 38.5384C297.538 38.5384 297.493 38.529 297.452 38.5097C297.371 38.4726 297.309 38.4028 297.283 38.318L296.238 34.9586C296.19 34.8031 296.269 34.6365 296.419 34.575L299.327 33.3947C299.408 33.3622 299.497 33.3641 299.576 33.4005C299.655 33.4366 299.715 33.504 299.743 33.586L300.833 36.8549C300.885 37.0095 300.81 37.1775 300.66 37.2418L297.707 38.5127C297.667 38.5299 297.625 38.5384 297.583 38.5384ZM296.923 35.0476L297.779 37.7992L300.147 36.7802L299.253 34.1015L296.923 35.0476Z" fill="black"/>
<path d="M321.388 36.768C321.385 36.768 321.381 36.768 321.378 36.7677L318.471 36.6771C318.387 36.6747 318.308 36.6389 318.251 36.5779C318.194 36.5167 318.164 36.4356 318.167 36.3523L318.289 33.1042L314.58 33.722C314.416 33.7526 314.261 33.6449 314.223 33.4851L313.059 28.5752L308.515 29.0035C308.419 29.0151 308.327 28.9784 308.262 28.9104C308.195 28.8428 308.163 28.7488 308.175 28.6545L308.492 25.9759C308.51 25.8253 308.633 25.7093 308.785 25.7001L314.782 25.3371C314.955 25.327 315.078 25.4353 315.108 25.589L316.053 30.3532L320.59 29.9684C320.747 29.9534 320.907 30.0746 320.927 30.2417L321.699 36.4157C321.711 36.5066 321.681 36.5979 321.619 36.6658C321.56 36.731 321.476 36.768 321.388 36.768ZM318.806 36.0606L321.032 36.1298L320.342 30.6185L315.827 31.0014C315.667 31.0204 315.523 30.9065 315.493 30.7501L314.547 25.9791L309.085 26.3097L308.843 28.3428L313.273 27.9257C313.423 27.9067 313.571 28.0132 313.607 28.1653L314.766 33.0556L318.566 32.4229C318.659 32.4085 318.754 32.4348 318.824 32.4967C318.895 32.5591 318.934 32.6497 318.931 32.7436L318.806 36.0606Z" fill="black"/>
<path d="M316.815 47.075C316.538 47.075 315.841 47.0245 315.393 46.5497C315.101 46.24 314.98 45.8258 315.034 45.3195C315.123 44.4839 315.99 43.7673 316.902 43.8138C317.854 43.849 318.591 44.7627 318.567 45.4958C318.534 46.4916 317.974 47.0224 316.905 47.0731C316.885 47.0741 316.855 47.075 316.815 47.075ZM316.84 44.4395C316.238 44.4395 315.705 44.9485 315.658 45.3863C315.624 45.7068 315.686 45.9467 315.85 46.12C316.118 46.4037 316.621 46.4567 316.875 46.4469C317.496 46.4175 317.914 46.2409 317.94 45.4748C317.953 45.0826 317.483 44.4628 316.879 44.4401C316.866 44.4398 316.853 44.4395 316.84 44.4395Z" fill="black"/>
<path d="M314.348 60.8364C314.289 60.8364 314.231 60.8196 314.18 60.7875C314.106 60.7403 314.055 60.6644 314.039 60.5781L313.429 57.1648C313.413 57.0769 313.436 56.9869 313.491 56.9165C313.546 56.8464 313.628 56.8029 313.717 56.7968L316.919 56.5835C317.072 56.577 317.205 56.6713 317.244 56.8155L317.976 59.5582C317.997 59.6387 317.985 59.7241 317.944 59.796C317.902 59.868 317.833 59.9206 317.753 59.942L314.429 60.8261C314.402 60.8331 314.375 60.8364 314.348 60.8364ZM314.109 57.3992L314.597 60.1324L317.288 59.4168L316.704 57.2263L314.109 57.3992Z" fill="black"/>
<path d="M329.445 33.6209C329.338 33.6209 329.234 33.5658 329.176 33.4685L327.224 30.2076C327.162 30.1032 327.165 29.9722 327.233 29.8715C327.3 29.7708 327.422 29.7169 327.541 29.7368L334.25 30.773C334.387 30.7941 334.494 30.9019 334.513 31.0383C334.533 31.1748 334.461 31.308 334.336 31.3664L329.578 33.5912C329.535 33.6114 329.49 33.6209 329.445 33.6209ZM328.105 30.4583L329.569 32.9035L333.137 31.2352L328.105 30.4583Z" fill="black"/>
<path d="M320.112 19.3276C319.958 19.3276 319.824 19.2138 319.802 19.0576L319.406 16.2234C319.393 16.134 319.42 16.0438 319.479 15.9755C319.537 15.9069 319.623 15.8674 319.713 15.8665L322.915 15.8359C322.988 15.8396 323.078 15.8687 323.138 15.9268C323.198 15.985 323.232 16.0655 323.232 16.1488C323.233 16.2501 323.305 17.7261 323.353 18.6937C323.362 18.8599 323.239 19.0038 323.073 19.0209L320.145 19.3258C320.134 19.3271 320.123 19.3276 320.112 19.3276ZM320.076 16.49L320.382 18.671L322.712 18.4283C322.686 17.907 322.64 16.9612 322.618 16.4655L320.076 16.49Z" fill="black"/>
<path d="M310.445 13.9944C310.411 13.9944 310.377 13.9892 310.345 13.9782C310.244 13.9442 310.167 13.8616 310.141 13.7587L308.402 6.96236C308.366 6.82431 308.429 6.67981 308.553 6.61067C308.678 6.54089 308.833 6.56447 308.932 6.66759L313.385 11.3001C313.446 11.3635 313.478 11.4498 313.472 11.5379C313.466 11.6258 313.424 11.7072 313.355 11.7623L310.64 13.9262C310.584 13.9709 310.514 13.9944 310.445 13.9944ZM309.305 7.95993L310.628 13.1336L312.695 11.4865L309.305 7.95993Z" fill="black"/>
<path d="M259.343 20.7415C259.309 20.7415 259.276 20.7363 259.244 20.7256C259.149 20.694 259.075 20.6194 259.044 20.5245L257.785 16.6309C257.742 16.4968 257.793 16.3505 257.911 16.2731L261.268 14.0566C261.338 14.0104 261.424 13.9942 261.506 14.0113C261.588 14.0287 261.66 14.078 261.705 14.1487L263.743 17.3236C263.834 17.4644 263.797 17.6514 263.66 17.7485L259.524 20.6836C259.471 20.7216 259.407 20.7415 259.343 20.7415ZM258.455 16.6646L259.51 19.9252L263.053 17.4106L261.348 14.7545L258.455 16.6646Z" fill="black"/>
<path d="M250.83 11.3365C250.713 11.3365 250.606 11.272 250.552 11.1681C250.497 11.0635 250.506 10.9364 250.575 10.8403L252.853 7.66543C252.915 7.57911 253.019 7.52676 253.124 7.53504C253.23 7.54024 253.327 7.59929 253.38 7.69145L255.178 10.8066C255.233 10.903 255.234 11.0215 255.179 11.1182C255.124 11.2147 255.022 11.2753 254.911 11.2768L250.834 11.3365L250.83 11.3365ZM253.079 8.42579L251.447 10.7004L254.368 10.6578L253.079 8.42579Z" fill="black"/>
<path d="M149.42 24.8004C148.836 24.8004 148.264 24.5469 147.919 24.134C147.525 23.6617 147.356 23.0201 147.478 22.4599C147.56 22.0785 147.812 21.5502 148.541 21.1988C149.415 20.7779 150.302 21.2022 150.794 21.8077C151.373 22.5196 151.414 23.4107 150.9 24.0783C150.549 24.5326 150.037 24.7888 149.458 24.7998C149.445 24.8001 149.433 24.8004 149.42 24.8004ZM149.267 21.6586C149.117 21.6586 148.965 21.6904 148.814 21.7633C148.412 21.9574 148.167 22.2365 148.09 22.5925C148.009 22.9684 148.128 23.4052 148.401 23.7325C148.631 24.0077 149.032 24.1721 149.447 24.1732C149.719 24.168 150.105 24.0808 150.402 23.6957C150.804 23.1754 150.616 22.5834 150.307 22.2029C150.06 21.8993 149.676 21.6586 149.267 21.6586Z" fill="black"/>
<path d="M164.669 31.7382C164.551 31.7382 164.44 31.6712 164.387 31.5619L163.345 29.4232C163.302 29.3362 163.303 29.2343 163.346 29.1477C163.389 29.0607 163.469 28.9986 163.564 28.979L169.492 27.7617L169.706 23.0247C169.71 22.9332 169.754 22.8484 169.826 22.7921C169.898 22.7352 169.99 22.714 170.08 22.7315L175.009 23.7165C175.116 23.7379 175.204 23.8129 175.241 23.9152L176.002 25.9694C176.041 26.0753 176.02 26.1941 175.947 26.2801C175.874 26.3665 175.76 26.4075 175.65 26.386L171.947 25.6924L171.712 30.175C171.705 30.3191 171.599 30.4398 171.457 30.4663L164.727 31.7327C164.708 31.7364 164.688 31.7382 164.669 31.7382ZM164.086 29.5119L164.846 31.0724L171.099 29.8961L171.339 25.3018C171.344 25.2118 171.387 25.128 171.458 25.0719C171.529 25.0162 171.621 24.9932 171.71 25.0104L175.221 25.6682L174.714 24.2969L170.316 23.4178L170.107 28.0338C170.101 28.1774 169.998 28.298 169.857 28.3268L164.086 29.5119Z" fill="black"/>
<path d="M195.899 39.8146C195.853 39.8146 195.808 39.8048 195.766 39.7852C195.676 39.7433 195.611 39.6612 195.592 39.5645L194.924 36.3293L192.024 36.9651C191.935 36.9847 191.845 36.9651 191.772 36.9122C191.699 36.8592 191.653 36.7778 191.644 36.6884C191.498 35.1331 191.25 32.6954 191.128 31.9173C190.758 31.9813 190.03 32.1147 189.368 32.2393C189.277 32.2561 189.184 32.2328 189.113 32.1756C189.041 32.118 188.999 32.032 188.996 31.9405L188.855 27.1286C188.85 26.9639 188.974 26.8234 189.138 26.8075L191.166 26.6103C191.262 26.6012 191.346 26.6324 191.412 26.6945C191.478 26.757 191.514 26.8448 191.51 26.9354L191.413 29.245L192.88 29.087C192.965 29.0781 193.049 29.1032 193.114 29.1568C193.179 29.2106 193.22 29.2881 193.227 29.3723L193.623 34.0716L197.002 33.8139C197.157 33.8007 197.304 33.9115 197.334 34.0683L198.15 38.4017C198.175 38.5361 198.111 38.6714 197.99 38.736L196.047 39.7773C196.001 39.8021 195.95 39.8146 195.899 39.8146ZM195.167 35.6419C195.227 35.6419 195.286 35.659 195.338 35.6924C195.408 35.738 195.457 35.81 195.474 35.892L196.121 39.0265L197.491 38.2921L196.769 34.4604L193.36 34.7203C193.2 34.7325 193.038 34.6061 193.024 34.4341L192.629 29.7446L191.117 29.9075C191.026 29.917 190.935 29.887 190.869 29.8246C190.802 29.7621 190.766 29.674 190.77 29.5828L190.868 27.2693L189.491 27.4034L189.612 31.5559C191.237 31.2522 191.332 31.2522 191.365 31.2522C191.725 31.2522 191.762 31.2519 192.236 36.2772L195.099 35.6493C195.122 35.6445 195.144 35.6419 195.167 35.6419Z" fill="black"/>
<path d="M181.593 27.9955C181.575 27.9955 181.557 27.994 181.539 27.9909C181.404 27.967 181.3 27.8581 181.282 27.7222L180.409 20.9405C180.395 20.8321 180.438 20.7244 180.523 20.6561C180.608 20.5882 180.723 20.5688 180.826 20.6053L184.515 21.9276C184.601 21.9582 184.668 22.0237 184.701 22.1079C184.734 22.1918 184.73 22.2861 184.688 22.3663L181.872 27.8256C181.817 27.9312 181.709 27.9955 181.593 27.9955ZM181.097 21.3684L181.776 26.644L183.966 22.3969L181.097 21.3684Z" fill="black"/>
<path d="M206.049 11.5486C206.03 11.5486 206.012 11.5483 205.993 11.548C205.277 11.5275 204.412 11.1042 204.329 9.97865C204.277 9.27095 204.57 8.85432 204.825 8.62939C205.217 8.28472 205.799 8.14787 206.377 8.26453C207.323 8.45492 207.842 9.27622 207.699 10.357C207.595 11.1394 206.782 11.5486 206.049 11.5486ZM204.955 9.93276C205.02 10.8238 205.779 10.9147 206.011 10.9212C206.493 10.9438 207.021 10.6968 207.076 10.275C207.124 9.91471 207.14 9.05731 206.254 8.87914C205.869 8.80078 205.482 8.88648 205.24 9.09956C205.024 9.28995 204.928 9.57036 204.955 9.93276Z" fill="black"/>
<path d="M211.392 16.0918C211.334 16.0918 211.275 16.0759 211.223 16.0429L209.294 14.8154C209.21 14.7621 209.157 14.6722 209.15 14.5733C209.143 14.4744 209.183 14.3777 209.258 14.3131L212.374 11.6384C212.485 11.5438 212.647 11.538 212.764 11.6234L213.875 12.4377L215.568 9.96224C215.651 9.841 215.807 9.79417 215.943 9.84808L217.048 10.2895L218.199 7.98758C218.238 7.91047 218.307 7.85261 218.389 7.82779C218.47 7.80328 218.561 7.8128 218.636 7.85562L220.503 8.92266C220.576 8.96428 220.629 9.03287 220.651 9.11367C220.673 9.19417 220.661 9.28018 220.619 9.35246L218.433 13.1019C218.392 13.1738 218.323 13.2262 218.243 13.2473C218.163 13.2687 218.077 13.2574 218.005 13.2151L216.615 12.4052L214.628 15.4469C214.576 15.5274 214.489 15.5792 214.393 15.5877C214.301 15.5972 214.203 15.5599 214.137 15.4904L212.931 14.2106L211.645 15.9639C211.583 16.0472 211.489 16.0918 211.392 16.0918ZM209.988 14.5132L211.313 15.3562L212.648 13.5359C212.703 13.4609 212.789 13.4144 212.882 13.4085C212.972 13.4051 213.066 13.4388 213.13 13.5065L214.321 14.7706L216.252 11.8128C216.344 11.6723 216.529 11.6294 216.673 11.7133L218.049 12.5153L219.918 9.31008L218.612 8.56414L217.48 10.8277C217.407 10.9734 217.233 11.0386 217.083 10.9786L215.944 10.5234L214.21 13.0588C214.162 13.1289 214.087 13.1767 214.003 13.1907C213.923 13.2064 213.834 13.1852 213.765 13.1347L212.594 12.2761L209.988 14.5132Z" fill="black"/>
<path d="M152.192 16.1166C152.073 16.1166 151.959 16.0477 151.906 15.9332L151.074 14.1097C151.004 13.957 151.067 13.7767 151.217 13.7005L154.611 11.9728C154.688 11.9334 154.779 11.9278 154.861 11.9576C154.942 11.9873 155.008 12.05 155.042 12.1299L156.003 14.4011C156.036 14.4804 156.035 14.5698 156.001 14.6484C155.966 14.7271 155.901 14.7883 155.821 14.8177L152.299 16.0975C152.264 16.1104 152.227 16.1166 152.192 16.1166ZM151.769 14.1226L152.357 15.4094L155.296 14.3414L154.595 12.6842L151.769 14.1226Z" fill="black"/>
<path d="M162.532 11.2682C162.506 11.2682 162.481 11.2652 162.455 11.2588C162.331 11.2275 162.239 11.1241 162.221 10.997L161.357 4.6632C161.34 4.54321 161.395 4.42417 161.497 4.35803C161.599 4.29221 161.73 4.29039 161.833 4.35433L165.61 6.68958C165.685 6.73546 165.736 6.81019 165.753 6.89589C165.77 6.98127 165.75 7.07004 165.699 7.14075L162.786 11.1393C162.726 11.2214 162.631 11.2682 162.532 11.2682ZM162.068 5.23712L162.737 10.1403L164.992 7.04496L162.068 5.23712Z" fill="black"/>
<path d="M180.364 9.78241C180.298 9.78241 180.232 9.7616 180.178 9.72179L177.073 7.45024C176.978 7.38078 176.93 7.26412 176.948 7.14814C176.967 7.03185 177.049 6.936 177.161 6.89926L181.675 5.42782C181.762 5.40055 181.855 5.41039 181.934 5.45722C182.012 5.50405 182.065 5.58241 182.081 5.6718L182.625 8.77474C182.652 8.92808 182.562 9.0781 182.415 9.12674L180.462 9.7668C180.429 9.77721 180.397 9.78241 180.364 9.78241ZM177.937 7.30574L180.419 9.12091L181.961 8.61551L181.526 6.13608L177.937 7.30574Z" fill="black"/>
<path d="M171.944 15.4447C171.85 15.4447 171.76 15.4022 171.7 15.3281L167.954 10.6895C167.863 10.5765 167.861 10.4161 167.95 10.3014C168.038 10.1863 168.194 10.1471 168.327 10.2068L173.385 12.478C173.465 12.5138 173.526 12.5818 173.554 12.665C173.582 12.7479 173.573 12.8392 173.531 12.9157L172.218 15.2831C172.168 15.3743 172.075 15.4346 171.971 15.4435C171.962 15.4445 171.953 15.4447 171.944 15.4447ZM169.266 11.3157L171.896 14.572L172.816 12.9102L169.266 11.3157Z" fill="black"/>
<path d="M165.99 20.1792C165.986 20.1792 165.982 20.1792 165.978 20.1788L162.52 20.0509C162.356 20.0448 162.223 19.9119 162.218 19.7472L162.155 17.636C162.15 17.4637 162.285 17.3192 162.457 17.3134L166.107 17.1855C166.19 17.1775 166.28 17.2161 166.341 17.2791C166.403 17.3419 166.436 17.4276 166.431 17.5155L166.303 19.8826C166.294 20.0494 166.156 20.1792 165.99 20.1792ZM162.837 19.4353L165.693 19.541L165.786 17.824L162.791 17.929L162.837 19.4353Z" fill="black"/>
<path d="M291.391 51.2686C291.328 51.2686 291.265 51.2491 291.211 51.212L289.618 50.0978C289.478 49.999 289.443 49.8043 289.541 49.6626L291.557 46.7515L290.67 45.6609C290.585 45.5553 290.577 45.4065 290.65 45.2927L292.455 42.513L290.327 39.0194C290.252 38.896 290.271 38.7372 290.373 38.6349L291.728 37.282C291.795 37.215 291.889 37.1794 291.983 37.1919C292.078 37.202 292.163 37.2547 292.214 37.3346L295.479 42.4287C295.547 42.5346 295.545 42.6711 295.473 42.7749L293.678 45.3914L294.366 46.4906C294.43 46.5925 294.43 46.722 294.365 46.8239L291.657 51.1222C291.611 51.1947 291.538 51.2452 291.453 51.2623C291.433 51.2663 291.412 51.2686 291.391 51.2686ZM290.234 49.7629L291.301 50.5098L293.73 46.6562L293.038 45.5497C292.971 45.4438 292.975 45.3091 293.045 45.2062L294.839 42.5918L291.896 38.0006L290.991 38.9039L293.093 42.3552C293.157 42.4581 293.155 42.5876 293.089 42.6886L291.301 45.4423L292.193 46.5387C292.281 46.6471 292.287 46.8001 292.208 46.9149L290.234 49.7629Z" fill="black"/>
<path d="M231.879 54.6222C231.872 54.6222 231.866 54.6219 231.859 54.6216L227.632 54.3553C227.46 54.3443 227.328 54.1955 227.339 54.0229C227.35 53.8496 227.504 53.7241 227.672 53.7296L231.898 53.9959C232.071 54.0069 232.203 54.1557 232.192 54.3283C232.181 54.4945 232.043 54.6222 231.879 54.6222Z" fill="black"/>
<path d="M246.881 55.5681C246.875 55.5681 246.868 55.5678 246.861 55.5675L243.733 55.3701C243.56 55.359 243.429 55.2103 243.44 55.0373C243.45 54.8647 243.603 54.7333 243.772 54.7444L246.9 54.9418C247.073 54.9528 247.205 55.1016 247.194 55.2745C247.183 55.4404 247.046 55.5681 246.881 55.5681Z" fill="black"/>
<path d="M295.828 88.5955C295.682 88.5955 295.551 88.492 295.521 88.343C295.488 88.1731 295.598 88.0081 295.768 87.9744L299.488 87.2394L303.353 59.1284L257.219 56.2204C257.046 56.2093 256.915 56.0606 256.926 55.8879C256.937 55.7156 257.073 55.5864 257.258 55.5947L303.729 58.5238C303.816 58.5293 303.897 58.5706 303.952 58.6382C304.007 58.7056 304.032 58.7928 304.02 58.8792L300.079 87.5461C300.061 87.6786 299.961 87.7852 299.829 87.8112L295.89 88.5896C295.869 88.5936 295.848 88.5955 295.828 88.5955Z" fill="black"/>
<path d="M259.102 95.8501C259.093 95.8501 259.083 95.8498 259.074 95.8488L204.411 90.9969C204.239 90.9816 204.111 90.8294 204.127 90.6568C204.143 90.4838 204.304 90.3558 204.467 90.3724L259.085 95.2204L289.907 89.1321C290.073 89.1006 290.242 89.2092 290.275 89.3788C290.309 89.5487 290.199 89.7137 290.028 89.7474L259.162 95.8443C259.143 95.8483 259.122 95.8501 259.102 95.8501Z" fill="black"/>
<path d="M198.343 90.4569C198.333 90.4569 198.324 90.4566 198.314 90.4556L169.874 87.9312C169.701 87.9159 169.574 87.7638 169.589 87.5911C169.604 87.4181 169.763 87.2868 169.929 87.3068L198.37 89.8312C198.542 89.8465 198.67 89.9986 198.654 90.1713C198.64 90.3342 198.503 90.4569 198.343 90.4569Z" fill="black"/>
<path d="M115.987 87.1366C115.978 87.1366 115.97 87.1363 115.961 87.1356L106.691 86.3998C106.519 86.386 106.39 86.2351 106.404 86.0625C106.417 85.8898 106.574 85.7649 106.742 85.7747L116.011 86.5106C116.184 86.5243 116.313 86.6752 116.299 86.8479C116.286 87.0119 116.149 87.1366 115.987 87.1366Z" fill="black"/>
<path d="M168.443 91.3008C168.435 91.3008 168.426 91.3005 168.418 91.2999L135.342 88.6741C135.17 88.6603 135.041 88.5094 135.055 88.3368C135.068 88.1641 135.224 88.0383 135.392 88.049L168.244 90.657L187.609 45.9378L182.806 42.6861L91.724 40.4749C91.5506 40.4706 91.4134 40.327 91.4177 40.1538C91.4226 39.9808 91.5684 39.8556 91.7387 39.848L182.913 42.0617C182.973 42.0632 183.032 42.0818 183.081 42.1155L188.176 45.5644C188.301 45.6489 188.348 45.8102 188.288 45.9485L168.731 91.1119C168.681 91.227 168.567 91.3008 168.443 91.3008Z" fill="black"/>
<path d="M84.1486 84.6092C84.1136 84.6092 84.0781 84.6033 84.0432 84.5911L75.1519 81.4288C75.0717 81.4 75.0061 81.34 74.9712 81.2623C74.9363 81.1846 74.9344 81.0958 74.9663 81.0165L90.55 42.2583C90.6143 42.0976 90.7963 42.0204 90.958 42.0844C91.1185 42.149 91.197 42.3314 91.132 42.4922L75.6702 80.9477L84.2539 84.0004C84.4168 84.0586 84.502 84.2379 84.4438 84.4008C84.3984 84.5294 84.2773 84.6092 84.1486 84.6092Z" fill="black"/>
<path d="M74.4591 85.0221C74.3121 85.0221 74.1809 84.918 74.1516 84.768C74.1191 84.5981 74.23 84.4337 74.4003 84.401C76.9562 83.9079 82.9258 83.6532 83.1788 83.6425C83.3339 83.6202 83.4974 83.7698 83.5054 83.9424C83.5121 84.1154 83.378 84.2614 83.2046 84.2687C83.1433 84.2715 77.0298 84.532 74.5192 85.0163C74.499 85.0202 74.4793 85.0221 74.4591 85.0221Z" fill="black"/>
<path d="M101.509 64.9537C101.21 65.1365 100.827 65.581 100.419 66.1595L102.326 65.9903L101.509 64.9537Z" fill="black"/>
<path d="M100.418 66.4729C100.307 66.4729 100.203 66.4136 100.146 66.3159C100.086 66.21 100.092 66.0784 100.162 65.9789C100.639 65.3039 101.026 64.8812 101.345 64.6862C101.48 64.6039 101.657 64.6345 101.755 64.76L102.572 65.7965C102.644 65.8867 102.659 66.0089 102.614 66.1145C102.568 66.2201 102.468 66.2923 102.353 66.3024L100.446 66.4717C100.437 66.4726 100.428 66.4729 100.418 66.4729ZM101.456 65.3924C101.358 65.4833 101.239 65.6095 101.095 65.7849L101.721 65.7291L101.456 65.3924Z" fill="black"/>
<path d="M122.594 66.7484C122.594 66.7484 123.21 67.1715 123.959 67.7652H121.687L122.594 66.7484Z" fill="black"/>
<path d="M123.959 68.0788H121.687C121.564 68.0788 121.452 68.0062 121.401 67.8936C121.35 67.7809 121.371 67.649 121.453 67.5569L122.36 66.54C122.465 66.4212 122.643 66.4013 122.772 66.4901C122.797 66.5075 123.406 66.926 124.154 67.5198C124.259 67.6028 124.299 67.7427 124.255 67.8685C124.211 67.9943 124.093 68.0788 123.959 68.0788ZM122.387 67.4519H123.035C122.88 67.3364 122.745 67.2394 122.642 67.1657L122.387 67.4519Z" fill="black"/>
<path d="M106.165 82.5677C105.939 82.7582 105.475 83.0297 104.867 83.3472L105.142 81.9975L106.165 82.5677Z" fill="black"/>
<path d="M104.867 83.6606C104.8 83.6606 104.734 83.6391 104.678 83.5975C104.581 83.5246 104.535 83.4028 104.559 83.2844L104.835 81.9348C104.855 81.8369 104.921 81.7545 105.011 81.7125C105.102 81.6712 105.207 81.6746 105.296 81.7239L106.318 82.2942C106.408 82.3444 106.468 82.4356 106.477 82.5382C106.487 82.6407 106.446 82.7414 106.366 82.8079C106.134 83.0038 105.69 83.271 105.012 83.6251C104.966 83.649 104.916 83.6606 104.867 83.6606ZM105.364 82.4799L105.309 82.7508C105.41 82.6936 105.497 82.6422 105.572 82.5959L105.364 82.4799Z" fill="black"/>
<path d="M124.191 88.9298C124.131 88.9298 124.071 88.9129 124.018 88.8777L116.568 83.959C116.424 83.8638 116.384 83.6691 116.479 83.5249C116.574 83.3795 116.769 83.3401 116.914 83.4362L124.363 88.3549C124.508 88.4501 124.548 88.6448 124.452 88.7893C124.392 88.8805 124.292 88.9298 124.191 88.9298Z" fill="black"/>
<path d="M117.25 84.3477C117.088 84.3477 116.951 84.2225 116.938 84.0582C116.925 83.8855 117.054 83.7349 117.227 83.7218L119.91 83.5179C120.081 83.5032 120.233 83.6342 120.247 83.8065C120.259 83.9792 120.13 84.1298 119.957 84.1429L117.275 84.3468C117.267 84.3474 117.258 84.3477 117.25 84.3477Z" fill="black"/>
<path d="M115.44 75.8028C114.776 76.6793 114.346 77.2503 114.346 77.2503C114.276 76.7078 114.168 76.1265 114.03 75.5199L115.44 75.8028Z" fill="black"/>
<path d="M114.346 77.5636C114.32 77.5636 114.293 77.5602 114.266 77.5532C114.143 77.5207 114.051 77.417 114.035 77.2906C113.968 76.7751 113.863 76.2027 113.724 75.5893C113.7 75.4855 113.731 75.3771 113.805 75.3009C113.881 75.2247 113.988 75.1931 114.092 75.2125L115.502 75.4953C115.608 75.5164 115.695 75.5908 115.734 75.6915C115.772 75.7925 115.756 75.9058 115.69 75.9918C115.026 76.8679 114.597 77.4384 114.597 77.4384C114.537 77.5186 114.443 77.5636 114.346 77.5636ZM114.438 75.9214C114.476 76.1082 114.511 76.2909 114.543 76.4687C114.644 76.3352 114.76 76.1819 114.888 76.0117L114.438 75.9214Z" fill="black"/>
<path d="M211.972 81.007L211.178 81.7106L212.685 81.8953C212.427 81.3786 212.171 81.007 211.972 81.007Z" fill="black"/>
<path d="M212.685 82.2087C212.672 82.2087 212.659 82.2081 212.647 82.2062L211.14 82.0217C211.018 82.0067 210.915 81.9216 210.879 81.804C210.842 81.6862 210.878 81.5579 210.97 81.4762L211.763 80.7725C211.821 80.7216 211.895 80.6935 211.971 80.6935C212.301 80.6935 212.589 81.0011 212.965 81.7553C213.017 81.8585 213.007 81.9818 212.941 82.0761C212.882 82.1597 212.786 82.2087 212.685 82.2087ZM211.906 81.4841L212.101 81.508C212.065 81.4572 212.035 81.4195 212.011 81.3911L211.906 81.4841Z" fill="black"/>
<path d="M284.583 82.0318C284.388 82.1097 283.943 82.3711 283.379 82.7366L286.1 82.4441C285.433 82.1188 284.836 81.9308 284.583 82.0318Z" fill="black"/>
<path d="M283.379 83.0502C283.247 83.0502 283.128 82.9676 283.083 82.8417C283.034 82.7049 283.087 82.5528 283.208 82.4738C283.554 82.2498 284.177 81.857 284.466 81.741L284.467 81.7407C284.798 81.6085 285.394 81.7511 286.238 82.1626C286.364 82.2238 286.433 82.3606 286.409 82.4983C286.385 82.6357 286.273 82.7407 286.134 82.7557L283.412 83.0484C283.401 83.0496 283.39 83.0502 283.379 83.0502Z" fill="black"/>
<path d="M227.652 56.5389H226.342L226.195 57.2209L227.604 57.3528L227.652 56.5389Z" fill="black"/>
<path d="M227.604 57.6661C227.594 57.6661 227.585 57.6658 227.575 57.6649L226.166 57.533C226.076 57.5244 225.995 57.4782 225.942 57.406C225.889 57.3338 225.87 57.2422 225.889 57.1543L226.036 56.4723C226.068 56.3282 226.195 56.2253 226.343 56.2253H227.652C227.738 56.2253 227.821 56.2608 227.88 56.3236C227.939 56.3866 227.97 56.4708 227.965 56.5572L227.917 57.3711C227.912 57.4559 227.873 57.5351 227.808 57.5905C227.751 57.6395 227.679 57.6661 227.604 57.6661ZM226.576 56.9416L227.31 57.0105L227.319 56.8522H226.596L226.576 56.9416Z" fill="black"/>
<path d="M242.159 57.8057L243.812 57.9568L243.967 58.8366L242.197 58.7289L242.159 57.8057Z" fill="black"/>
<path d="M243.967 59.1501C243.961 59.1501 243.954 59.1498 243.948 59.1495L242.178 59.0417C242.017 59.0319 241.89 58.9024 241.883 58.7417L241.845 57.8185C241.841 57.7282 241.877 57.6406 241.942 57.5785C242.008 57.5167 242.091 57.4861 242.187 57.4935L243.84 57.6447C243.981 57.6575 244.096 57.7631 244.12 57.9024L244.276 58.7821C244.292 58.8767 244.265 58.9737 244.201 59.0453C244.142 59.112 244.056 59.1501 243.967 59.1501ZM242.499 58.4332L243.589 58.4996L243.544 58.2471L242.487 58.1504L242.499 58.4332Z" fill="black"/>
<path d="M223.236 39.1535L224.099 37.9892L223.713 37.6043L222.742 38.7644L223.236 39.1535Z" fill="black"/>
<path d="M223.236 39.4669C223.166 39.4669 223.098 39.4433 223.042 39.3996L222.548 39.0105C222.481 38.9582 222.439 38.881 222.43 38.7969C222.421 38.7127 222.447 38.6285 222.501 38.5633L223.472 37.4031C223.528 37.3358 223.61 37.2951 223.699 37.2911C223.785 37.2874 223.871 37.3202 223.934 37.3823L224.32 37.7671C224.43 37.877 224.444 38.0505 224.351 38.1755L223.488 39.3399C223.438 39.4081 223.362 39.4528 223.278 39.4641C223.264 39.4659 223.25 39.4669 223.236 39.4669Z" fill="black"/>
</g>
<defs>
<clipPath id="clip0_618_1057">
<rect width="499" height="100" fill="white"/>
</clipPath>
</defs>
</svg>
