<?xml version="1.0" encoding="UTF-8"?>
<svg id="Artwork" xmlns="http://www.w3.org/2000/svg" width="665" height="135" xmlns:xlink="http://www.w3.org/1999/xlink" viewBox="0 0 665 135">
  <defs>
    <style>
      .cls-1, .cls-2 {
        fill: none;
      }

      .cls-3 {
        stroke: #3f2b56;
        stroke-linecap: round;
        stroke-linejoin: round;
      }

      .cls-3, .cls-4 {
        fill: #f58452;
      }

      .cls-5 {
        fill: #f6f6f8;
      }

      .cls-6 {
        fill: #e7e1ec;
      }

      .cls-7 {
        fill: #fff;
      }

      .cls-8 {
        fill: #ad6caa;
      }

      .cls-9 {
        fill: #b39ed3;
      }

      .cls-10 {
        fill: #dac5f9;
      }

      .cls-11 {
        fill: #dca8e5;
      }

      .cls-12 {
        fill: #3f2b56;
      }

      .cls-13 {
        fill: #f7b2b2;
        stroke: #f7b2b2;
        stroke-miterlimit: 10;
      }

      .cls-2 {
        clip-path: url(#clippath);
      }
    </style>
    <clipPath id="clippath">
      <polygon class="cls-1" points="361.2752 13.3836 338.2146 36.9442 345.2772 32.2779 349.4233 33.5575 379.5703 36.3632 383.5467 36.1761 386.1844 39.1409 407.3082 54.225 361.2752 13.3836"/>
    </clipPath>
  </defs>
  <path class="cls-13" d="m401.9316-.061l-127.0391,113.3076,11.958,21.8199h374.081c2.2091,0,4-1.7909,4-4V3.939c0-2.2091-1.7909-4-4-4h-258.9999Z"/>
  <polygon class="cls-13" points="31.5771 29.8926 106.2452 127.7335 238.4161 72.8053 217.818 -1.0045 111.3947 -1.0045 31.5771 29.8926"/>
  <g id="Watch">
    <g>
      <path class="cls-10" d="m420.7705,73.4987c-2.3246-5.9788-4.1837-10.7895-4.1837-10.7895l-31.822,6.4707-.1847,3.0303,29.1812-4.9747,11.1853,36.2511s4.4835-2.1336,13.2422-5.7737c-.1291-3.2439-4.3212-5.281-8.9746-2.7847-1.1491-2.7712-3.7577-9.4087-6.3074-15.9437"/>
      <path class="cls-12" d="m424.9463,103.9863c-.0684,0-.1367-.0137-.2012-.042-.1328-.0586-.2334-.1719-.2764-.3105l-11.0557-35.832-28.749,4.9014c-.1494.0273-.3037-.0186-.418-.1211-.1133-.1016-.1748-.25-.165-.4023l.1846-3.0303c.0137-.2266.1777-.415.3994-.46l31.8223-6.4702c.2373-.0459.4775.082.5664.3096,0,0,1.8584,4.8105,4.1826,10.7886.1006.2578-.0273.5479-.2842.6475-.2559.1025-.5469-.0273-.6475-.2842-1.9326-4.9707-3.543-9.1338-4.0322-10.3975l-31.0322,6.3096-.123,2.0186,28.5605-4.8687c.2539-.0439.4883.106.5615.3452l11.0156,35.7021c1.4014-.6504,5.6006-2.5654,12.4023-5.3975-.1484-1.0049-.7695-1.8799-1.7432-2.4365-1.7275-.9893-4.1436-.832-6.4639.4121-.124.0674-.2705.0781-.4043.0303-.1328-.0469-.2402-.1484-.2939-.2793-.9736-2.3477-3.0967-7.7148-6.3105-15.9531-.1006-.2568.0264-.5469.2842-.6475.2559-.1006.5469.0273.6475.2842,3.002,7.6934,5.0498,12.8789,6.0977,15.4355,2.4775-1.1729,5.04-1.2354,6.9395-.1504,1.3887.793,2.2188,2.1074,2.2783,3.6055.0078.209-.1152.4014-.3086.4814-8.6426,3.5918-13.1738,5.7422-13.2188,5.7627-.0684.0322-.1416.0488-.2148.0488Z"/>
    </g>
    <g>
      <rect class="cls-10" x="355.2304" y="24.4211" width="5.737" height="4.1134" transform="translate(-.9759 27.5623) rotate(-4.4018)"/>
      <path class="cls-12" d="m355.3965,29.2485c-.1191,0-.2344-.0425-.3252-.1206-.1006-.0859-.1631-.209-.1729-.3408l-.3154-4.1011c-.0215-.2754.1846-.5161.46-.5371l5.7197-.4404c.251-.0161.5156.1841.5361.46l.3164,4.1011c.0107.1323-.0322.2632-.1182.3638-.0869.1011-.209.1631-.3418.1733l-5.7207.4404c-.0127.001-.0254.0015-.0381.0015Zm.2217-4.1411l.2383,3.104,4.7236-.3633-.2393-3.104-4.7227.3633Z"/>
    </g>
    <g>
      <rect class="cls-10" x="328.2323" y="42.9098" width="5.737" height="4.1134" transform="translate(514.7082 -234.2073) rotate(115.5982)"/>
      <path class="cls-12" d="m331.7158,48.9419c-.0723,0-.146-.0156-.2153-.0488l-3.71-1.7769c-.1196-.0576-.2119-.1602-.2559-.2852s-.0366-.2622.021-.3818l2.479-5.1743c.1187-.249.4175-.355.6665-.2349l3.71,1.7769c.1201.0576.2119.1602.2559.2852s.0361.2627-.0205.3818l-2.4795,5.1738c-.0859.1797-.2646.2842-.4512.2842Zm-3.0425-2.5117l2.8081,1.3447,2.0469-4.272-2.8081-1.3452-2.0469,4.2725Z"/>
    </g>
    <g>
      <path class="cls-10" d="m362.601,96.94l-8.0114,16.8621-36.1326-11.1434s-1.1872,4.353-3.1337,13.6361c2.7492,1.7267,7.1166-.1436,7.6868-5.3934,6.6275,1.3953,33.7169,7.7896,33.7169,7.7896l12.6447-29.9102-2.3956-1.8648"/>
      <path class="cls-12" d="m356.7275,119.1914c-.0381,0-.0762-.0039-.1152-.0137-.2637-.0625-25.8369-6.0967-33.1792-7.6748-.4111,2.5078-1.7202,4.4541-3.6445,5.3857-1.5771.7637-3.3452.7002-4.7314-.1699-.1772-.1113-.2661-.3213-.2231-.5264,1.9272-9.1914,3.1289-13.6211,3.1406-13.665.0356-.1309.123-.2412.2417-.3066.1177-.0654.2583-.0791.3882-.0391l35.7197,11.0146,7.8252-16.4707c.1182-.249.417-.3545.666-.2363s.3555.416.2363.666l-8.0107,16.8613c-.1055.2236-.3613.3389-.5986.2627l-35.6348-10.9883c-.3545,1.3662-1.4048,5.5508-2.9199,12.748,1.043.5215,2.312.5078,3.4653-.0508,1.7451-.8447,2.897-2.7188,3.1602-5.1406.0151-.1406.0894-.2686.2036-.3506.1143-.083.2568-.1133.3965-.085,6.1108,1.2871,29.8877,6.8867,33.3184,7.6953l12.3301-29.167-2.0928-1.6299c-.2178-.1699-.2568-.4834-.0869-.7021.1699-.2178.4824-.2568.7021-.0869l2.3955,1.8652c.1777.1387.2412.3809.1533.5889l-12.6445,29.9102c-.0801.1885-.2637.3057-.4609.3057Z"/>
    </g>
    <g>
      <path class="cls-10" d="m373.8639,30.4751c11.9771,4.8479,20.399,16.5701,20.3425,30.2261-.0742,17.9335-14.7419,32.411-32.7612,32.3364-18.0193-.0746-32.5666-14.673-32.4924-32.6065.0742-17.9335,14.7419-32.411,32.7612-32.3364,1.885.0078,3.732.1745,5.5282.4874"/>
      <path class="cls-12" d="m361.583,93.5381h-.1396c-18.2666-.0762-33.0659-14.9287-32.9907-33.1089.0366-8.8076,3.5166-17.0737,9.8003-23.2754,6.248-6.1675,14.5264-9.5596,23.3213-9.5596.0469,0,.0938.0005.1416.0005,1.8818.0078,3.7705.1743,5.6123.4946.2715.0474.4541.3062.4062.5786-.0479.272-.3125.4512-.5781.4067-1.7861-.311-3.6182-.4722-5.4443-.48-8.5488-.0151-16.6631,3.2568-22.7568,9.271-6.0923,6.0132-9.4673,14.0278-9.5024,22.5674-.0728,17.6284,14.2798,32.0308,31.9946,32.105h.1357c17.6533.002,32.0498-14.2539,32.123-31.8389.0547-13.1313-7.8076-24.813-20.0293-29.7607-.2559-.1035-.3799-.395-.2764-.6509.1045-.2563.3945-.3804.6514-.2759,12.6035,5.1016,20.7109,17.1489,20.6543,30.6914-.0752,18.1338-14.9219,32.835-33.123,32.835Z"/>
    </g>
    <path class="cls-9" d="m393.6624,60.874c-.073,17.6327-14.4947,31.8674-32.2118,31.7941-17.7171-.0733-32.0205-14.427-31.9475-32.0597,8.2382.206,49.3654.0383,64.1593.2656Z"/>
    <path class="cls-9" d="m334.2996,60.8546c.0035-14.9957,12.2208-27.1493,27.2882-27.1459,15.0674.0034,27.2792,12.1627,27.2757,27.1584-7.0067-.1478-41.982.1316-54.564-.0125Z"/>
    <g>
      <ellipse class="cls-5" cx="361.5795" cy="60.5662" rx="23.671" ry="23.7842" transform="translate(292.4645 420.6094) rotate(-88.6425)"/>
      <path class="cls-12" d="m361.6006,84.7373c-.1982,0-.3955-.002-.5938-.0068-13.3867-.3174-24.0205-11.416-23.7051-24.7393.3164-13.3247,11.4395-23.9004,24.8506-23.5894,6.4844.1538,12.5215,2.8115,16.998,7.4834,4.4775,4.6729,6.8594,10.8013,6.707,17.2559l-.5-.0117.5.0117c-.1533,6.4551-2.8223,12.4644-7.5166,16.9194-4.5508,4.3184-10.4746,6.6768-16.7402,6.6768Zm-.0342-47.3423c-12.585,0-22.9668,10.0332-23.2646,22.6196-.3027,12.7725,9.8936,23.4111,22.7285,23.7158,6.2295.1621,12.1221-2.124,16.6221-6.3955,4.5-4.2705,7.0586-10.0303,7.2051-16.2173s-2.1367-12.061-6.4287-16.5405c-4.293-4.48-10.082-7.0283-16.2998-7.1753-.1875-.0044-.376-.0068-.5625-.0068Z"/>
    </g>
    <path class="cls-6" d="m384.8041,60.6757c-.0529,12.7698-10.4972,23.0786-23.328,23.0255-12.8309-.0531-23.1895-10.4481-23.1366-23.2179,5.9662.1492,35.7508.0277,46.4647.1924Z"/>
    <g>
      <rect class="cls-10" x="339.7329" y="30.0294" width="4.6859" height="4.1134" transform="translate(41.7021 198.8825) rotate(-34.4018)"/>
      <path class="cls-12" d="m341.3044,35.6067c-.1592,0-.3154-.0762-.4121-.2173l-2.3242-3.3936c-.0752-.1094-.1035-.2441-.0791-.3745s.0996-.2456.209-.3208l3.8672-2.6479c.1094-.0752.2422-.1025.374-.0791.1309.0244.2461.0996.3203.2095l2.3232,3.394c.1562.2275.0986.5386-.1299.6948l-3.8662,2.6475c-.0859.0591-.1846.0874-.2822.0874Zm-1.6289-3.7637l1.7588,2.5688,3.041-2.0825-1.7578-2.5688-3.042,2.0825Z"/>
    </g>
    <g>
      <rect class="cls-10" x="333.0976" y="26.3854" width="13.1147" height="4.4095" transform="translate(43.2539 196.9032) rotate(-34.4018)"/>
      <path class="cls-12" d="m335.4902,34.6143c-.1592,0-.3154-.0762-.4121-.2173l-2.4917-3.6382c-.1558-.228-.0977-.5391.1299-.6953l10.8208-7.4102c.2266-.1548.5381-.0977.6943.1299l2.4922,3.6387c.0752.1094.1035.2441.0791.3745s-.0996.2456-.209.3208l-10.8213,7.4097c-.0859.0591-.1846.0874-.2822.0874Zm-1.7959-4.0083l1.9258,2.8135,9.9961-6.8447-1.9268-2.814-9.9951,6.8452Z"/>
    </g>
    <g id="Dashes">
      <path class="cls-12" d="m352.3135,47.6069c-.1592,0-.3154-.0762-.4121-.2173l-2.2266-3.252c-.1562-.228-.0986-.5391.1299-.6953.2266-.1543.5391-.0972.6943.1299l2.2266,3.252c.1562.228.0986.5391-.1299.6953-.0859.0591-.1846.0874-.2822.0874Z"/>
      <path class="cls-12" d="m372.665,77.3281c-.1592,0-.3154-.0762-.4121-.2178l-2.2266-3.252c-.1562-.2275-.0986-.5391.1299-.6943.2266-.1562.5391-.0986.6943.1299l2.2266,3.252c.1562.2275.0986.5391-.1299.6943-.0859.0596-.1846.0879-.2822.0879Z"/>
      <path class="cls-12" d="m374.6104,51.7788c-.1592,0-.3154-.0762-.4121-.2173-.1562-.228-.0986-.5391.1299-.6953l3.252-2.2266c.2266-.1548.5391-.0977.6943.1299.1562.228.0986.5391-.1299.6953l-3.252,2.2266c-.0859.0591-.1846.0874-.2822.0874Z"/>
      <path class="cls-12" d="m344.8896,72.1309c-.1592,0-.3154-.0762-.4121-.2178-.1562-.2275-.0986-.5391.1299-.6943l3.251-2.2266c.2266-.1553.5391-.0986.6943.1299.1562.2275.0986.5391-.1299.6943l-3.251,2.2266c-.0859.0596-.1846.0879-.2822.0879Z"/>
      <path class="cls-12" d="m381.0166,64.5166c-.0312,0-.0615-.0029-.0928-.0083l-3.873-.7251c-.2715-.0513-.4502-.3125-.3994-.5835.0508-.2729.3164-.4453.583-.3999l3.873.7251c.2715.0513.4502.3125.3994.5835-.0449.2407-.2549.4082-.4902.4082Z"/>
      <path class="cls-12" d="m345.6104,57.8911c-.0312,0-.0615-.0029-.0928-.0083l-3.874-.7246c-.2715-.0508-.4502-.312-.3994-.5835.0508-.2729.3154-.4478.583-.3999l3.874.7246c.2715.0508.4502.312.3994.5835-.0449.2407-.2549.4082-.4902.4082Z"/>
      <path class="cls-12" d="m357.7021,80.4814c-.0312,0-.0615-.0029-.0928-.0088-.2715-.0508-.4502-.3115-.3994-.583l.7246-3.873c.0508-.2725.3164-.4482.583-.3994.2715.0508.4502.3115.3994.583l-.7246,3.873c-.0449.2402-.2549.4082-.4902.4082Z"/>
      <path class="cls-12" d="m364.3271,45.0747c-.0312,0-.0615-.0029-.0928-.0083-.2715-.0508-.4502-.312-.3994-.5835l.7246-3.8735c.0508-.2729.3145-.4453.583-.3999.2715.0508.4502.312.3994.5835l-.7246,3.8735c-.0449.2407-.2549.4082-.4902.4082Z"/>
    </g>
    <rect class="cls-9" x="334.128" y="28.4669" width="12.1347" height="1.7814" transform="translate(42.9148 197.3428) rotate(-34.4018)"/>
    <g>
      <line class="cls-9" x1="335.2579" y1="29.0603" x2="337.578" y2="32.4485"/>
      <path class="cls-12" d="m337.5781,32.877c-.1357,0-.2705-.0649-.3535-.1865l-2.3203-3.3887c-.1338-.1948-.084-.4614.1113-.5952.1943-.1323.4619-.085.5957.1118l2.3203,3.3887c.1338.1948.084.4614-.1113.5952-.0742.0503-.1582.0747-.2422.0747Z"/>
    </g>
    <g>
      <line class="cls-9" x1="338.4705" y1="26.8604" x2="340.7906" y2="30.2487"/>
      <path class="cls-12" d="m340.791,30.6768c-.1357,0-.2705-.0649-.3535-.1865l-2.3203-3.3882c-.1338-.1948-.084-.4614.1113-.5952.1943-.1309.4619-.085.5957.1118l2.3203,3.3882c.1338.1948.084.4614-.1113.5952-.0742.0503-.1582.0747-.2422.0747Z"/>
    </g>
    <g>
      <line class="cls-9" x1="341.8359" y1="24.556" x2="344.156" y2="27.9442"/>
      <path class="cls-12" d="m344.1562,28.3726c-.1357,0-.2705-.0649-.3535-.1865l-2.3203-3.3882c-.1338-.1948-.084-.4614.1113-.5952.1943-.1313.4619-.0854.5957.1118l2.3203,3.3882c.1338.1948.084.4614-.1113.5952-.0742.0503-.1582.0747-.2422.0747Z"/>
    </g>
    <rect class="cls-9" x="339.8303" y="30.6336" width="3.6877" height="1.6768" transform="translate(41.9788 198.5481) rotate(-34.4018)"/>
    <g class="cls-2">
      <path class="cls-7" d="m383.0429,36.5597c-13.23-11.7379-33.4705-10.5284-45.2085,2.7016s-10.5285,33.4704,2.7015,45.2083c13.23,11.7379,33.4705,10.5284,45.2085-2.7016,11.738-13.2299,10.5285-33.4703-2.7015-45.2083Zm-41.0295,46.2445c-12.3102-10.9218-13.4356-29.7551-2.5137-42.0653,10.9219-12.3101,29.7554-13.4356,42.0656-2.5137,12.3102,10.9219,13.4356,29.7552,2.5137,42.0653-10.922,12.3102-29.7553,13.4356-42.0656,2.5137Z"/>
    </g>
    <g id="needle">
      <path class="cls-4" d="m354.0076,72.452c.6432.4117,1.5166.1782,1.921-.5133l16.6751-28.5187c.1588-.2716-.1848-.4904-.3641-.2318l-18.5808,27.3193c-.4466.6566-.2888,1.5365.3487,1.9445h0Z"/>
      <g>
        <circle class="cls-7" cx="361.6098" cy="60.6465" r="1.4834"/>
        <path class="cls-4" d="m361.6094,62.6699c-.9189,0-1.752-.6309-1.9707-1.563-.123-.5264-.0332-1.0693.252-1.5283.2861-.4595.7324-.7798,1.2588-.9023.5254-.1235,1.0684-.0342,1.5283.2515.459.2852.7803.7319.9033,1.2583.252,1.0874-.4258,2.1777-1.5107,2.4307-.1543.0361-.3086.0532-.4609.0532Zm.0029-2.9668c-.0723,0-.1445.0083-.2168.0249-.2461.0571-.4541.2065-.5869.4209-.1338.2139-.1748.4668-.1172.7119.1182.5073.627.8193,1.1328.7041.5068-.1182.8223-.6265.7041-1.1333-.0566-.2451-.2061-.4536-.4209-.5864-.1504-.0938-.3213-.1421-.4951-.1421Z"/>
      </g>
    </g>
    <path class="cls-3" d="m366.5824,15.4213c-2.9523-2.441-7.0172,2.3642-1.102,4.0143,1.8262.5094,1.886,2.9392,1.886,2.9392,0,0,2.4335-4.2933-.784-6.9535Z"/>
    <path class="cls-3" d="m320.2847,81.0369c.0744,3.9222,6.1064,4.1869,3.9777-2.2417-.596-1.7998,1.7995-3.878,1.7995-3.878,0,0-5.8664,1.4187-5.7772,6.1197Z"/>
    <path class="cls-3" d="m319.0028,19.8332c-4.8901,2.8687-.9561,10.6575,5.6393,3.4267,1.8465-2.0244,6.1601-.476,6.1601-.476,0,0-5.9382-6.389-11.7994-2.9507Z"/>
    <path class="cls-12" d="m405.1565,57.8589c-.0886.0003-.1783-.0215-.2608-.0655l-5.8605-3.1965c-.2621-.1436-.3582-.4713-.2157-.7334.1446-.2621.4713-.3582.7334-.2157l4.0733,2.2218-4.9621-8.0436c-.1114-.181-.1059-.411.0137-.5865.1186-.1755.325-.2606.5414-.2287l8.0916,1.4428-5.9747-6.5505c-.198-.2187-.1855-.5563.03-.7585l6.818-6.3944-8.6557,2.4906c-.2181.062-.4589-.0195-.5904-.2078-.1325-.1883-.1324-.4394.002-.6266l6.9067-9.6257-8.6622,6.0075c-.1684.1166-.3888.1301-.5685.0284-.1797-.0985-.288-.2912-.2781-.4958l.7146-16.5088-8.342,14.4926c-.1101.1903-.3249.2902-.5434.2656-.2185-.0309-.3962-.1916-.4498-.4056l-1.9564-7.9319-1.6691,7.93c-.0612.2935-.3517.4728-.6399.4179-.2924-.0623-.4791-.3485-.4179-.6399l2.1567-10.2429c.0519-.247.2675-.425.5196-.4291.23.0256.4742.166.5342.4106l2.2004,8.9215,8.775-15.2452c.1248-.2156.3786-.3199.6194-.249.2386.0698.3987.2929.388.5419l-.7634,17.6314,10.3374-7.1696c.2147-.1474.5091-.1231.6922.0651.1842.1871.2074.4803.0542.6939l-7.8231,10.9033,9.3133-2.6797c.2434-.0694.4959.0362.619.2531s.0819.4902-.1.6607l-8.0639,7.5623,6.6874,7.3307c.1557.1714.185.4223.0729.6253-.1111.2019-.3354.3082-.5676.271l-8.4684-1.51,5.3971,8.7498c.1284.2084.1009.4775-.0683.6553-.104.109-.2462.1675-.3897.168Z"/>
  </g>
  <g id="figure">
    <g>
      <path class="cls-8" d="m168.5697,74.8397l7.7133,14.1601-1.9425,2.3022s-26.6909-2.8777-37.1227-3.741c.1972,7.081-7.2582,5.1361-7.2582,5.1361,0,0,2.8093-8.9681,3.9488-12.4024,4.6763,1.295,37.1227,6.4029,37.1227,6.4029l-5.9282-12.8743-1.1942-2.5935,2.59-.2878"/>
      <path class="cls-12" d="m132.0946,93.4434c-1.2266,0-2.1841-.2422-2.2607-.2627-.1328-.0342-.2451-.1211-.3115-.2412-.0659-.1191-.0806-.2607-.0396-.3916.0278-.0898,2.8232-9.0117,3.9512-12.4102.084-.2529.3491-.3994.6079-.3242,4.1538,1.1494,30.8169,5.3994,36.144,6.2441l-6.731-14.6191c-.0674-.1455-.0601-.3154.019-.4551.0786-.1396.2202-.2334.3799-.251l2.5898-.2871c.2778-.0254.522.168.5522.4424s-.1675.5215-.4419.5518l-1.9009.2109,6.832,14.8379c.0771.167.0557.3633-.0552.5107-.1113.1465-.2944.2207-.4766.1924-1.2881-.2031-30.7705-4.8496-36.7168-6.2959-1.0249,3.1201-3.042,9.5361-3.6333,11.4199,1.0005.165,3.2319.3594,4.6875-.8008.998-.7959,1.478-2.1211,1.4272-3.9404-.0039-.1416.0532-.2793.1562-.377s.2427-.1484.3848-.1348c9.7637.8076,34.0601,3.4111,36.8706,3.7139l1.5508-1.8379-7.5498-13.8594c-.1323-.2422-.0425-.5459.1997-.6787.2437-.1318.5464-.041.6782.2002l7.7134,14.1602c.0986.1807.0762.4043-.0566.5615l-1.9424,2.3018c-.1069.127-.2651.1934-.436.1748-.2622-.0283-25.9067-2.79-36.5688-3.6943-.0527,1.8721-.6597,3.2822-1.8076,4.1943-1.1445.9102-2.6104,1.1445-3.8159,1.1445Z"/>
    </g>
    <g>
      <g>
        <polygon class="cls-8" points="174.2555 35.1871 196.3693 52.4414 198.3966 37.703 194.0939 34.8052 194.3573 28.351 196.816 28.4388 196.9663 19.6508 200.2367 19.6775 200.2367 22.4545 209.9983 25.3616 209.5982 31.8694 208.16 31.8682 200.0605 58.5804 197.1628 60.3915 175.0789 38.7765 174.2555 35.1871"/>
        <path class="cls-12" d="m197.1629,60.8068c-.1127,0-.2239-.0458-.305-.1334l-22.0842-21.6149c-.0491-.0531-.0835-.1184-.0998-.189l-.8233-3.5895c-.0397-.1732.0353-.3528.1866-.4461.1517-.0937.3447-.0803.4822.0328l21.4573,16.7124,1.9984-13.6591-4.1134-2.7707c-.1196-.0803-.189-.2174-.1829-.3613l.2636-6.4542c.0089-.2283.2125-.408.4299-.3978l2.0358.0726.1428-8.3648c.0041-.2271.189-.4084.4153-.4084h.0032l3.2703.0268c.2283.002.412.1874.412.4153v2.4677l9.465,2.8185c.1853.0552.3078.2303.296.4234l-.4003,6.5078c-.0134.219-.1951.3897-.4145.3897h-.0004l-1.0869-.0008-8.0407,26.3659c-.0199.1168-.0888.2198-.1894.2827l-2.8976,1.8112c-.0681.0426-.1444.0633-.2202.0633Zm-21.7042-22.231l21.776,21.2812,2.4475-1.5297,8.0683-26.5285c.0341-.1995.2068-.3459.4096-.3459h.0004l1.0471.0008.3561-5.7883-9.4455-2.8129c-.176-.0523-.2969-.2141-.2969-.3978v-2.3651l-2.4467-.0203-.1432,8.3765c-.002.1115-.0487.2178-.1294.2944-.0807.0771-.1772.1265-.3009.1136l-2.0456-.073-.2376,5.8094,4.1106,2.7687c.118.0791.187.2133.1833.3553l-2.0271,14.7382c-.0045.1586-.0985.3013-.2433.367-.144.0653-.3143.0434-.436-.0576l-21.1722-16.4776.5256,2.2917Z"/>
      </g>
      <path class="cls-12" d="m200.5536,34.2852c-.1079,0-.2149-.0422-.2952-.1233l-1.7418-1.7601-1.7203-.0397c-.2291-.0053-.4108-.1955-.4055-.425.0053-.2291.2012-.4011.425-.4055l1.8878.0438c.1075.0024.2097.0466.2855.1233l1.6331,1.6502,1.5788-.9218-2.1096-3.4479-5.571-.1687c-.2291-.0073-.4096-.1987-.4027-.4278.0073-.2295.2076-.3901.4278-.4027l5.7956.1756c.1399.0045.2685.0791.3415.1987l2.4479,4.0011c.0584.0949.0758.2097.0487.3179s-.0969.2007-.1934.2571l-2.2228,1.2981c-.0653.0381-.1375.0568-.2093.0568Z"/>
      <path class="cls-12" d="m206.8663,32.0308h-.0118c-.2295-.0065-.41-.1975-.4039-.4266l.1934-6.9806c.0069-.2295.2198-.4092.4266-.4039.2295.0065.41.1975.4039.4266l-.1934,6.9806c-.0065.2255-.191.4039-.4149.4039Z"/>
      <path class="cls-12" d="m203.5437,32.0178h-.0069c-.2295-.0041-.412-.193-.4084-.4222l.1346-8.0338c.0041-.2295.1939-.4035.4222-.4084.2295.0041.412.193.4084.4222l-.1346,8.0338c-.0041.2271-.189.4084-.4153.4084Z"/>
      <path class="cls-12" d="m200.2101,28.524h-.002c-.2291-.0012-.4145-.1878-.4133-.4173l.0264-5.8411c.0016-.2295.1744-.4141.4173-.4133.2291.0012.4145.1878.4133.4173l-.0264,5.8411c-.0012.2287-.187.4133-.4153.4133Z"/>
      <path class="cls-12" d="m209.4918,32.2847c-.0053,0-.0105,0-.0158-.0004l-5.9088-.2222c-.2295-.0085-.4084-.2012-.3995-.4303.0081-.2295.1975-.4177.4303-.3995l5.9088.2222c.2295.0085.4084.2012.3995.4303-.0081.2243-.1926.3999-.4145.3999Z"/>
    </g>
    <g>
      <path class="cls-8" d="m140.8412,74.4678l25.3367,49.0233,11.5597-6.5449s-.11-5.2786-8.8359-2.5694c-3.3244-5.1304-17.5695-28.479-24.525-39.8679"/>
      <path class="cls-12" d="m166.178,123.9912c-.0479,0-.0957-.0068-.1426-.0205-.1304-.0391-.2393-.1289-.3018-.25l-25.3369-49.0234c-.1265-.2451-.0308-.5469.2148-.6738.2446-.1289.5464-.0303.6738.2148l25.0981,48.5615,10.8188-6.125c-.0806-.4258-.3398-1.2441-1.1772-1.8408-1.3735-.9756-3.7861-.9707-6.9751.0205-.2153.0684-.4463-.0176-.5679-.2061-3.1147-4.8066-15.6309-25.3027-23.1089-37.5479l-1.4233-2.3311c-.144-.2354-.0693-.5439.166-.6875.2363-.1436.5435-.0693.6875.166l1.4233,2.3311c7.3218,11.9893,19.4746,31.8906,22.8906,37.21,3.3809-.9912,5.9048-.9111,7.5073.2441,1.5581,1.123,1.6113,2.8301,1.6128,2.9023.0039.1846-.0938.3555-.2534.4463l-11.5596,6.5449c-.0762.043-.1611.0645-.2466.0645Z"/>
    </g>
    <g>
      <path class="cls-8" d="m123.373,61.6425l6.5236,10.2064,23.5696-.168-.0992-6.0537,5.756,6.2522,15.6883-.089-3.9098-8.5622,8.8307,8.6891,9.636-.1377-24.5284-55.5804.8509-3.4834-4.435-.6953-17.6223,14.7503s3.2234,3.9982,2.9441,11.1686c-3.996-3.5152-8.1297-7.2865-8.1297-7.2865l-9.5086,7.3675s5.9938,9.3191,5.5204,17.6249c-3.2707-3.9592-10.4028-14.046-10.4028-14.046l-9.2586,6.6273,5.9485,9.3067"/>
      <path class="cls-12" d="m179.7322,72.417c-.1313,0-.2568-.0518-.3506-.1436l-6.9004-6.7896,2.7847,6.0981c.0708.1543.0581.334-.0332.4775-.0913.1426-.249.2295-.4185.2305l-15.6885.0898h-.0029c-.1396,0-.2729-.0586-.3677-.1611l-4.8667-5.2866.0776,4.7407c.002.1328-.0493.2617-.1421.3574-.0933.0947-.2207.1494-.3545.1504l-23.5693.168h-.0034c-.1704,0-.3296-.0869-.4214-.2305l-6.5239-10.2061c-.1484-.2329-.0806-.542.1519-.6909.2334-.1484.5415-.0806.6909.1519l6.375,9.9736,22.7886-.1621-.0908-5.5488c-.0034-.2075.1216-.3955.3145-.4727.1914-.0767.4126-.0264.5532.1255l5.6064,6.0903,14.6943-.084-3.5889-7.8594c-.1006-.2192-.0298-.4785.168-.6172.1968-.1372.4658-.1162.6372.0532l8.6821,8.5425,8.6719-.124-24.2236-54.8892c-.0444-.1006-.0542-.2134-.0283-.3203l.7222-2.9551-3.6733-.5757-17.0918,14.3057c.8096,1.1982,3.0029,5.0298,2.7661,11.1035-.0073.1929-.125.3638-.3022.4399-.1772.0757-.3828.043-.5273-.084-3.3276-2.9272-6.7881-6.0659-7.8257-7.0093l-8.8203,6.834c1.1421,1.8799,5.7852,10.0264,5.3569,17.5342-.0117.2056-.1479.3828-.3433.4468-.1938.0645-.4097.0024-.5415-.1567-2.8691-3.4736-8.7593-11.73-10.1343-13.6655l-8.4644,6.0586,5.6929,8.9072c.1484.2324.0806.5415-.1523.6904-.2314.1484-.541.0806-.6904-.1523l-5.9482-9.3066c-.1431-.2236-.0859-.521.1304-.6758l9.2583-6.627c.1079-.0776.2451-.1089.374-.0864.1313.0225.2485.0957.3252.2046.0654.0923,6.0435,8.5396,9.5151,12.9419-.1978-7.689-5.4058-15.8755-5.4614-15.9619-.1401-.2178-.0908-.5068.1143-.6655l9.5088-7.3677c.1919-.1484.4639-.1377.6431.0259.0386.0347,3.6274,3.3081,7.3086,6.562-.0659-6.21-2.8203-9.7246-2.8496-9.7617-.1699-.2119-.1396-.522.0688-.6963l17.6226-14.7505c.1099-.0933.2554-.1343.3984-.1108l4.4351.6953c.1382.022.2607.1006.3384.2168.0776.1167.103.2603.0698.396l-.811,3.3184,24.46,55.4243c.0679.1533.0537.3311-.0366.4717-.0908.1416-.2461.2275-.4136.2305l-9.6357.1377h-.0073Z"/>
    </g>
    <g>
      <path class="cls-11" d="m168.2348,18.2337l-2.3783-5.4987-1.9695.0398-13.0214,20.4737s9.9602,11.9311,13.0009,16.1617c6.0913,8.4749,6.0815,17.919,6.0815,17.919h-6.2079s.2154-8.1337-4.2356-15.3845c-5.0239-8.184-12.3479-12.6351-12.3479-12.6351l-7.344,11.6247s3.107,3.5222,7.1872,9.6435c2.0914,3.1376,1.5803,6.7514,1.5803,6.7514h-12.1358l4.6041-7.3598-4.9003-3.2571-7.9024,12.6243,1.635,2.5942,23.6709-.0619s.9458-6.8024-1.4013-11.618c-2.328-4.7764-5.6514-8.669-5.6514-8.669l2.9074-4.4973s4.2818,4.1017,7.083,9.5264c3.7729,7.3064,2.6193,15.2579,2.6193,15.2579h15.7499s1.591-12.3335-5.9602-24.1802c-5.4684-8.5792-10.877-14.5047-10.877-14.5047l6.5923-10.3987,18.509,44.5439h-5.1601l1.7862,4.5397h9.5263l1.3892-1.7779-19.8911-45.9883"/>
      <path class="cls-12" d="m129.8807,72.4307c-.1719,0-.3315-.0879-.4229-.2334l-1.6348-2.5938c-.1025-.1621-.103-.3691-.001-.5322l7.9023-12.624c.0718-.1147.1865-.1953.3184-.2236.1343-.0264.2705-.0015.3823.0723l4.9004,3.2568c.2256.1499.2905.4521.147.6816l-4.1255,6.5947h10.7729c.0522-1.0166.0107-3.6528-1.5361-5.9741-4.0112-6.0176-7.1152-9.5552-7.146-9.5903-.147-.1665-.1665-.4097-.0479-.5977l7.3438-11.6245c.1455-.2305.4487-.3022.6826-.1602.0742.0449,7.4854,4.6089,12.5146,12.8008,3.8877,6.334,4.2793,13.2222,4.3096,15.146h5.1904c-.104-2.043-.8364-9.9839-5.9707-17.127-2.9951-4.1675-12.8789-16.0142-12.9785-16.1333-.1396-.167-.1548-.4048-.0381-.5889l13.0215-20.4736c.0898-.1411.2441-.228.4116-.2314l1.9692-.04c.2065.0059.3882.1152.4692.3018l2.3784,5.4985c.1094.2539-.0068.5479-.2607.6577-.2524.1084-.5479-.0068-.6572-.2603l-2.2451-5.1909-1.3652.0278-12.6821,19.9395c1.5234,1.8296,10.0332,12.0747,12.7896,15.9092,6.1147,8.5083,6.1758,17.8193,6.1753,18.2114-.0005.2759-.2241.4995-.5.4995h-6.208c-.1348,0-.2642-.0547-.3579-.1509-.0942-.0967-.1455-.2275-.1421-.3623.0024-.0796.1553-8.0771-4.1616-15.1094-4.2222-6.8784-10.1641-11.1318-11.769-12.2026l-6.8765,10.8848c.8159.9609,3.5796,4.3057,6.9829,9.4116,2.1719,3.2588,1.6812,6.9434,1.6592,7.0986-.0352.2471-.2461.4302-.4951.4302h-12.1357c-.1816,0-.3491-.0986-.4375-.2578-.0879-.1587-.083-.353.0137-.5073l4.3467-6.9478-4.0674-2.7031-7.4634,11.9229,1.3198,2.0938,22.9487-.0596c.1538-1.5498.5156-6.9614-1.4038-10.8999-2.2715-4.6606-5.5498-8.5249-5.5825-8.5635-.1436-.168-.1597-.4106-.0396-.5962l2.9077-4.4976c.0811-.125.2139-.208.3618-.2251.1519-.0195.2964.0327.4038.1357.1772.1694,4.3745,4.2222,7.1816,9.6577,3.2632,6.3208,2.9268,13.0093,2.7358,14.9878h14.7349c.1846-2.2803.6455-13.0986-5.9282-23.4116-5.3794-8.4404-10.7705-14.3774-10.8242-14.4365-.1523-.1665-.1738-.4141-.0532-.6045l6.5923-10.3989c.1001-.1577.2739-.2466.4653-.2305.1855.0156.3472.1338.4189.3062l18.5093,44.5439c.064.1543.0469.3306-.0459.4692-.0928.1392-.249.2227-.416.2227h-4.4263l1.3931,3.54h8.9419l1.0562-1.3525-19.7734-45.7148c-.1094-.2539.0068-.5479.2603-.6577s.5483.0068.6577.2603l19.8911,45.9883c.0728.168.0479.3623-.0649.5059l-1.3892,1.7783c-.0947.1211-.2402.1924-.394.1924h-9.5264c-.2056,0-.3901-.126-.4653-.3174l-1.7861-4.5396c-.0605-.1538-.041-.3281.0522-.4644.0928-.1367.2476-.2188.4131-.2188h4.4111l-17.853-42.9639-5.875,9.2676c1.1406,1.2891,5.9141,6.8188,10.6743,14.2876,7.561,11.8623,6.0508,24.3872,6.0347,24.5122-.0322.25-.2446.4365-.4961.4365h-15.75c-.145,0-.2827-.0635-.3779-.1729-.0947-.1094-.1377-.2549-.1167-.3984.0112-.0781,1.082-7.8862-2.5688-14.9575-2.2153-4.2896-5.4102-7.7803-6.5557-8.9629l-2.3721,3.6685c.8105.9961,3.5142,4.4478,5.4824,8.4858,2.3862,4.8965,1.4863,11.6226,1.4468,11.9067-.0342.2461-.2446.4297-.4937.4307l-23.6709.0615h-.0015Z"/>
    </g>
    <g>
      <line class="cls-8" x1="138.4447" y1="49.9493" x2="129.0681" y2="38.1496"/>
      <path class="cls-12" d="m138.4451,50.4492c-.1475,0-.2935-.0649-.3921-.189l-9.3765-11.7998c-.1719-.2163-.1357-.5308.0806-.7026.2153-.1719.5308-.1357.7026.0806l9.3765,11.7998c.1719.2163.1357.5308-.0806.7026-.0918.0728-.2017.1084-.3105.1084Z"/>
    </g>
    <g>
      <line class="cls-8" x1="149.1103" y1="31.9579" x2="143.7057" y2="26.8798"/>
      <path class="cls-12" d="m149.1102,32.458c-.123,0-.2461-.0449-.3423-.1357l-5.4043-5.0781c-.2012-.189-.2114-.5054-.022-.7065.1885-.2021.5059-.2114.7065-.022l5.4043,5.0781c.2012.189.2114.5054.022.7065-.0981.105-.231.1577-.3643.1577Z"/>
    </g>
    <g>
      <g>
        <polygon class="cls-8" points="110.5516 55.2297 112.0457 51.4834 107.4044 46.4605 103.4069 50.6512 107.9353 55.4462 110.5516 55.2297"/>
        <path class="cls-12" d="m107.8419,55.9376c-.1022-.0194-.1968-.0708-.2701-.1478l-4.5286-4.795c-.1824-.1933-.182-.4959.0018-.6886l3.9975-4.1908c.095-.0997.2275-.156.3659-.1545.1403-.0006.2696.0593.3631.1606l4.6413,5.0227c.1307.1412.1684.3452.097.5245l-1.4938,3.7462c-.0703.176-.234.2974-.4229.3132l-2.6165.2168c-.0455.0038-.0907.0011-.1348-.0073Zm-3.7455-5.2847l4.0375,4.2755,2.0681-.1716,1.2626-3.166-4.066-4.3998-3.3021,3.4617Zm6.4554,4.5767l.0096.0018-.0096-.0018Z"/>
      </g>
      <g>
        <polyline class="cls-8" points="135.9895 38.6569 115.9422 26.754 108.8594 45.7582 108.8577 58.0745 107.902 61.5279 104.3347 61.4205 104.402 58.6932 101.7741 58.7161 96.1477 54.9999 98.7098 46.7039 112.298 20.0014 115.2343 19.0377 138.2955 36.7724"/>
        <path class="cls-12" d="m104.2406,61.9116c-.2365-.045-.4122-.2554-.4058-.5032l.0545-2.2109-2.1109.0183c-.0984.0002-.1965-.0279-.28-.0826l-5.6266-3.7161c-.185-.1222-.2674-.3526-.2022-.5648l2.5624-8.2956,13.6204-26.7822c.0597-.1179.1641-.2068.2893-.2481l2.9365-.9636c.1584-.0514.3331-.0211.4642.0814l23.0611,17.7346c.2176.1702.2558.4841.0856.7017-.1707.218-.4842.2563-.7017.0856l-22.8509-17.5698-2.4869.816-13.4942,26.5189-2.42,7.858,5.1868,3.4256,2.4754-.0215c.1338-.0004.2653.053.3608.1492.0949.0966.1465.2277.1432.3628l-.0547,2.2308,2.6777.0802.8332-3.0096.0014-12.2484c0-.0597.0107-.1188.0317-.1744l7.0832-19.0045c.0528-.1416.1668-.2521.3105-.2998.1424-.0484.3006-.0283.4281.0541l20.0469,11.9032c.2326.1491.2994.4586.1499.6906-.1492.233-.4591.2993-.6911.1498l-19.5245-11.5667-6.8351,18.3379-.0011,12.2261c0,.0447-.0062.0898-.0179.1333l-.956,3.4535c-.0616.2219-.2669.3732-.4971.3661l-3.5673-.1073c-.0267-.0006-.0535-.0037-.0789-.0086Z"/>
      </g>
    </g>
  </g>
</svg>