<svg version="1.1" id="Layer_1" xmlns="http://www.w3.org/2000/svg" x="0" y="0" viewBox="0 0 202 101" style="enable-background:new 0 0 202 101" xml:space="preserve"><style>.st3{fill:#2b2233}.st4{fill-rule:evenodd;clip-rule:evenodd;fill:#dbd6e1}.st5{fill:#6c5fc7}.st7{fill:#fff}.st8{fill:#80708f}.st10{fill-rule:evenodd;clip-rule:evenodd;fill:#2b2233}</style><path d="M202 2v86a2 2 0 0 1-2 2h-32.1c-.5 2.8-2.9 5-5.9 5s-5.4-2.2-5.9-5H84v7a4 4 0 0 1-4 4H4a4 4 0 0 1-4-4V81a4 4 0 0 1 4-4h38V2c0-1.1.9-2 2-2h156a2 2 0 0 1 2 2z" style="fill-rule:evenodd;clip-rule:evenodd;fill:#fff"/><path d="M156.1 90c.1.3.1.7.3 1H84c-.4 0-.7-.1-1-.3v-3.5c.3-.2.6-.3 1-.3h72.3a6.4 6.4 0 0 0-.2 3.1z" style="fill-rule:evenodd;clip-rule:evenodd;fill:#6c5fc7"/><path style="fill:none" d="M0 0h202v101H0z"/><path class="st3" d="m145.7 77-.7.4.7.4-.2.2-.6-.4v.8h-.3v-.8l-.6.4-.2-.2.7-.4-.7-.4.2-.3.6.4v-.7h.3v.7l.6-.4zM108.2 77l-.7.4.7.4-.2.2-.6-.4v.8h-.3v-.8l-.6.4-.2-.2.7-.4-.7-.4.2-.3.6.4v-.7h.3v.7l.6-.4zM150.7 77l-.7.4.7.4-.2.2-.6-.4v.8h-.3v-.8l-.6.4-.2-.2.7-.4-.7-.4.2-.3.6.4v-.7h.3v.7l.6-.4zM123.2 77l-.7.4.7.4-.2.2-.6-.4v.8h-.3v-.8l-.6.4-.2-.2.7-.4-.7-.4.2-.3.6.4v-.7h.3v.7l.6-.4zM120.7 77l-.7.4.7.4-.2.2-.6-.4v.8h-.3v-.8l-.6.4-.2-.2.7-.4-.7-.4.2-.3.6.4v-.7h.3v.7l.6-.4zM135.7 77l-.7.4.7.4-.2.2-.6-.4v.8h-.3v-.8l-.6.4-.2-.2.7-.4-.7-.4.2-.3.6.4v-.7h.3v.7l.6-.4zM110.7 77l-.7.4.7.4-.2.2-.6-.4v.8h-.3v-.8l-.6.4-.2-.2.7-.4-.7-.4.2-.3.6.4v-.7h.3v.7l.6-.4zM128.2 77l-.7.4.7.4-.2.2-.6-.4v.8h-.3v-.8l-.6.4-.2-.2.7-.4-.7-.4.2-.3.6.4v-.7h.3v.7l.6-.4zM160.7 77l-.7.4.7.4-.2.2-.6-.4v.8h-.3v-.8l-.6.4-.2-.2.7-.4-.7-.4.2-.3.6.4v-.7h.3v.7l.6-.4zM155.7 77l-.7.4.7.4-.2.2-.6-.4v.8h-.3v-.8l-.6.4-.2-.2.7-.4-.7-.4.2-.3.6.4v-.7h.3v.7l.6-.4zM158.2 77l-.7.4.7.4-.2.2-.6-.4v.8h-.3v-.8l-.6.4-.2-.2.7-.4-.7-.4.2-.3.6.4v-.7h.3v.7l.6-.4zM153.2 77l-.7.4.7.4-.2.2-.6-.4v.8h-.3v-.8l-.6.4-.2-.2.7-.4-.7-.4.2-.3.6.4v-.7h.3v.7l.6-.4zM113.2 77l-.7.4.7.4-.2.2-.6-.4v.8h-.3v-.8l-.6.4-.2-.2.7-.4-.7-.4.2-.3.6.4v-.7h.3v.7l.6-.4zM162.5 77.4l.7.4-.2.2-.6-.4v.8h-.3v-.8l-.6.4-.2-.2.7-.4-.7-.4.2-.3.6.4v-.7h.3v.7l.6-.4.2.3zM125.7 77l-.7.4.7.4-.2.2-.6-.4v.8h-.3v-.8l-.6.4-.2-.2.7-.4-.7-.4.2-.3.6.4v-.7h.3v.7l.6-.4zM133.2 77l-.7.4.7.4-.2.2-.6-.4v.8h-.3v-.8l-.6.4-.2-.2.7-.4-.7-.4.2-.3.6.4v-.7h.3v.7l.6-.4zM130.7 77l-.7.4.7.4-.2.2-.6-.4v.8h-.3v-.8l-.6.4-.2-.2.7-.4-.7-.4.2-.3.6.4v-.7h.3v.7l.6-.4zM143.2 77l-.7.4.7.4-.2.2-.6-.4v.8h-.3v-.8l-.6.4-.2-.2.7-.4-.7-.4.2-.3.6.4v-.7h.3v.7l.6-.4zM138.2 77l-.7.4.7.4-.2.2-.6-.4v.8h-.3v-.8l-.6.4-.2-.2.7-.4-.7-.4.2-.3.6.4v-.7h.3v.7l.6-.4zM140.7 77l-.7.4.7.4-.2.2-.6-.4v.8h-.3v-.8l-.6.4-.2-.2.7-.4-.7-.4.2-.3.6.4v-.7h.3v.7l.6-.4zM115.7 77l-.7.4.7.4-.2.2-.6-.4v.8h-.3v-.8l-.6.4-.2-.2.7-.4-.7-.4.2-.3.6.4v-.7h.3v.7l.6-.4zM118.2 77l-.7.4.7.4-.2.2-.6-.4v.8h-.3v-.8l-.6.4-.2-.2.7-.4-.7-.4.2-.3.6.4v-.7h.3v.7l.6-.4zM148.2 77l-.7.4.7.4-.2.2-.6-.4v.8h-.3v-.8l-.6.4-.2-.2.7-.4-.7-.4.2-.3.6.4v-.7h.3v.7l.6-.4z"/><path class="st4" d="M201 72.5h-99c-.3 0-.5.2-.5.5v10c0 .3.2.5.5.5h99c.3 0 .5-.2.5-.5V73c0-.3-.2-.5-.5-.5zm-99-.5c-.6 0-1 .4-1 1v10c0 .6.4 1 1 1h99c.6 0 1-.4 1-1V73c0-.6-.4-1-1-1h-99z"/><path class="st5" d="M101 25c0-.6.4-1 1-1h19c.6 0 1 .4 1 1v10c0 .6-.4 1-1 1h-19c-.6 0-1-.4-1-1V25z"/><path d="M121 25h-19v10h19V25zm-19-1c-.6 0-1 .4-1 1v10c0 .6.4 1 1 1h19c.6 0 1-.4 1-1V25c0-.6-.4-1-1-1h-19z" style="fill-rule:evenodd;clip-rule:evenodd;fill:#584ac0"/><path class="st7" d="M107.1 30.4v-.8l-.7.4-.2-.3.7-.4-.7-.4.2-.3.7.4v-.8h.3v.8l.7-.4.2.3-.7.4.7.4-.2.3-.7-.4v.8h-.3zM109.6 30.4v-.8l-.7.4-.2-.3.7-.4-.7-.4.2-.3.7.4v-.8h.3v.8l.7-.4.2.3-.7.4.7.4-.2.3-.7-.4v.8h-.3zM112.1 30.4v-.8l-.7.4-.2-.3.7-.4-.7-.4.2-.3.7.4v-.8h.3v.8l.7-.4.2.3-.7.4.7.4-.2.3-.7-.4v.8h-.3zM114.6 30.4v-.8l-.7.4-.2-.3.7-.4-.7-.4.2-.3.7.4v-.8h.3v.8l.7-.4.2.3-.7.4.7.4-.2.3-.7-.4v.8h-.3z"/><path class="st3" d="M107.1 12.4v-.8l-.7.4-.2-.3.7-.4-.7-.4.2-.3.7.4v-.8h.3v.8l.7-.4.2.3-.7.4.7.4-.2.3-.7-.4v.8h-.3zM109.6 12.4v-.8l-.7.4-.2-.3.7-.4-.7-.4.2-.3.7.4v-.8h.3v.8l.7-.4.2.3-.7.4.7.4-.2.3-.7-.4v.8h-.3zM112.1 12.4v-.8l-.7.4-.2-.3.7-.4-.7-.4.2-.3.7.4v-.8h.3v.8l.7-.4.2.3-.7.4.7.4-.2.3-.7-.4v.8h-.3zM114.6 12.4v-.8l-.7.4-.2-.3.7-.4-.7-.4.2-.3.7.4v-.8h.3v.8l.7-.4.2.3-.7.4.7.4-.2.3-.7-.4v.8h-.3zM117.1 12.4v-.8l-.7.4-.2-.3.7-.4-.7-.4.2-.3.7.4v-.8h.3v.8l.7-.4.2.3-.7.4.7.4-.2.3-.7-.4v.8h-.3z"/><path class="st8" d="M45.1 12.4v-.8l-.7.4-.2-.3.7-.4-.6-.3.2-.3.7.4v-.8h.3v.8l.7-.4.2.3-.7.4.7.4-.3.2-.7-.4v.8h-.3zM47.6 12.4v-.8l-.7.4-.2-.3.7-.4-.6-.3.2-.3.7.4v-.8h.3v.8l.7-.4.2.3-.9.4.7.4-.1.2-.7-.4v.8h-.3zM50.1 12.4v-.8l-.7.4-.2-.3.7-.4-.6-.3.2-.3.7.4v-.8h.3v.8l.7-.4.2.3-.7.4.7.4-.3.2-.7-.4v.8h-.3zM52.6 12.4v-.8l-.7.4-.2-.3.7-.4-.6-.3.2-.3.7.4v-.8h.3v.8l.7-.4.2.3-.9.4.7.4-.1.2-.7-.4v.8h-.3zM55.1 12.4v-.8l-.7.4-.2-.3.7-.4-.6-.3.2-.3.7.4v-.8h.3v.8l.7-.4.2.3-.7.4.7.4-.3.2-.7-.4v.8h-.3zM57.6 12.4v-.8l-.7.4-.2-.3.7-.4-.6-.3.2-.3.7.4v-.8h.3v.8l.7-.4.2.3-.9.4.7.4-.1.2-.7-.4v.8h-.3zM60.1 12.4v-.8l-.7.4-.2-.3.7-.4-.6-.3.2-.3.7.4v-.8h.3v.8l.7-.4.2.3-.7.4.7.4-.3.2-.7-.4v.8h-.3zM62.6 12.4v-.8l-.7.4-.2-.3.7-.4-.6-.3.2-.3.7.4v-.8h.3v.8l.7-.4.2.3-.9.4.7.4-.1.2-.7-.4v.8h-.3zM65.1 12.4v-.8l-.7.4-.2-.3.7-.4-.6-.3.2-.3.7.4v-.8h.3v.8l.7-.4.2.3-.7.4.7.4-.3.2-.7-.4v.8h-.3zM67.6 12.4v-.8l-.7.4-.2-.3.7-.4-.6-.3.2-.3.7.4v-.8h.3v.8l.7-.4.2.3-.9.4.7.4-.1.2-.7-.4v.8h-.3zM70.1 12.4v-.8l-.7.4-.2-.3.7-.4-.6-.3.2-.3.7.4v-.8h.3v.8l.7-.4.2.3-.7.4.7.4-.3.2-.7-.4v.8h-.3zM72.6 12.4v-.8l-.7.4-.2-.3.7-.4-.6-.3.2-.3.7.4v-.8h.3v.8l.7-.4.2.3-.9.4.7.4-.1.2-.7-.4v.8h-.3zM75.1 12.4v-.8l-.7.4-.2-.3.7-.4-.6-.3.2-.3.7.4v-.8h.3v.8l.7-.4.2.3-.7.4.7.4-.3.2-.7-.4v.8h-.3zM77.6 12.4v-.8l-.7.4-.2-.3.7-.4-.6-.3.2-.3.7.4v-.8h.3v.8l.7-.4.2.3-.9.4.7.4-.1.2-.7-.4v.8h-.3zM80.1 12.4v-.8l-.7.4-.2-.3.7-.4-.6-.3.2-.3.7.4v-.8h.3v.8l.7-.4.2.3-.7.4.7.4-.3.2-.7-.4v.8h-.3z"/><circle cx="118" cy="35" r="8" style="fill:#6c5fc7;fill-opacity:.5"/><path class="st4" d="M200 0H44a2 2 0 0 0-2 2v75H4a4 4 0 0 0-4 4v16a4 4 0 0 0 4 4h76a4 4 0 0 0 4-4V81a4 4 0 0 0-4-4H43V2c0-.5.5-1 1-1h156c.5 0 1 .5 1 1v4h-99a1 1 0 0 0-1 1v10c0 .5.5 1 1 1h99v54h-99a1 1 0 0 0-1 1v10c0 .5.5 1 1 1h99v4c0 .5-.5 1-1 1h-32l-.1 1H200a2 2 0 0 0 2-2V2a2 2 0 0 0-2-2zM27.5 100H4a3 3 0 0 1-3-3V81a3 3 0 0 1 3-3h23.5v22zm29-22H80a3 3 0 0 1 3 3v16a3 3 0 0 1-3 3H56.5V78zm-1 0v22h-27V78h27zM201 83.5h-99c-.3 0-.5-.2-.5-.5V73c0-.3.2-.5.5-.5h99v11zm0-66h-99c-.3 0-.5-.2-.5-.5V7c0-.3.2-.5.5-.5h99v11z"/><path class="st3" d="m9.8 85.4-.2-.5v-.2l.1-.2 1.8-1.4H12.4l.2.1.1.2v5.3l-.1.2-.2.1h-.7l-.2-.1-.1-.2v-4.1l-1.2.9s-.1.1-.2 0l-.2-.1zM14.2 88.3l.7.5 1 .2 1-.2.7-.5.4-.7.1-.9V85.1l-.1-.9-.4-.7-.7-.5a3 3 0 0 0-1-.2l-1 .2-.7.5-.4.7-.1.9v1.4l.1 1.1.4.7zm.6-3c0-.4.1-.7.3-.9.2-.2.4-.3.8-.3s.7.1.8.3c.2.2.2.5.3.9v1.4c0 .4-.1.7-.3.9-.2.2-.4.3-.8.3s-.6-.1-.8-.3c-.2-.2-.2-.5-.3-.9v-1.4z"/><path class="st3" d="M19.9 88.8v2c0 1.1-.9 2.1-2.1 2.1h-8l1.2 1.2c.2.2.2.6 0 .8l-.3.1c-.1 0-.3 0-.4-.2l-2.2-2.1-.1-.1v-.4l.1-.3.1-.1 2.2-2.2c.2-.2.6-.2.8 0 .2.2.2.6 0 .8L10 91.6h8c.5 0 .9-.4.9-.9v-2c0-.3.2-.6.6-.6.2.1.4.4.4.7z"/><path class="st10" d="M46.7 83.8h-3.3c-.3 0-.5.2-.6.6v9.3c0 .4.3.6.6.6h3.3c.3 0 .6-.3.6-.5v-9.4c-.1-.4-.3-.6-.6-.6zm-.5 9.4H44v-8.3h2.2v8.3zM40.7 83.8h-3.3c-.4 0-.6.2-.6.6v9.3c0 .4.3.6.6.6h3.2c.3 0 .6-.3.7-.5v-9.4c-.1-.4-.3-.6-.6-.6zm-.7 9.4h-2.2v-8.3H40v8.3zM76 83.6v10.8l-.2.4-.4.2-.4-.2-.2-.4V83.6c0-.1 0-.3.2-.4l.4-.2.4.2.2.4zM73.6 88.5l-8.7-5-.3-.1-.3.1-.2.2-.1.3v10l.1.3.2.2.3.1.3-.1 8.7-5 .2-.2.1-.3-.1-.3-.2-.2zm-8.5 4.6V85l7.1 4.1-7.1 4z"/><circle class="st5" cx="162" cy="89" r="4"/><path class="st7" d="M127.9 49c.2.4 0 2-.9 2.4s-2.1 0-2.1 0l-2.2-4.3-3.7 3.7V34l11.4 11.4h-4.3l1.8 3.6z"/><path d="M120 36.4v12l3-3 2.5 5s.7.2 1 0 .6-.7.5-1c-.7-1.7-2.5-5-2.5-5h3.5l-8-8z" style="fill-rule:evenodd;clip-rule:evenodd"/></svg>
