<svg width="220" height="107" viewBox="0 0 220 107" fill="none" xmlns="http://www.w3.org/2000/svg"><rect x="60" width="160" height="90" rx="4" fill="#FAF9FB"/><path d="M-116-151h456v256h-456v-256Z" fill="url(#a)"/><path fill="#fff" d="M142 26h21v21h-21zM51 50h43v21H51z"/><rect x="128" y="29" width="24" height="24" rx="12" fill="#6C5FC7"/><g filter="url(#b)"><path d="M149.923 57.03c.175.42.007 2.015-.923 2.384-.93.37-2.118 0-2.118 0l-2.156-4.312L141 58.828V42l11.414 11.414h-4.252c.208.4 1.538 3.08 1.761 3.616Z" fill="#fff"/><path d="M142 44.414v12l3-3 2.5 5s.676.216 1 0c.324-.216.646-.65.5-1-.688-1.65-2.5-5-2.5-5h3.5l-8-8Z" fill="#000"/></g><rect x="60.5" y=".5" width="159" height="89" rx="3.5" stroke="#DBD6E1"/><path d="M180 89H60" stroke="#6C5FC7"/><rect x="18" y="77" width="84" height="24" rx="4" fill="#fff"/><path fill="#fff" d="M18 77h28v24H18z"/><g fill="#2B2233"><path d="M36.084 85.39a3.64 3.64 0 0 0-.146-1.04 1.92 1.92 0 0 0-.383-.712 1.713 1.713 0 0 0-.675-.473A2.875 2.875 0 0 0 33.86 83c-.405 0-.742.06-1.02.18a1.728 1.728 0 0 0-.675.48c-.172.203-.3.443-.383.72a4.189 4.189 0 0 0-.142.892c-.015.21-.015.45-.015.713 0 .263.008.502.015.713.015.315.06.607.142.885.083.277.21.51.383.712.172.203.398.36.675.472.27.113.615.173 1.02.173s.742-.06 1.02-.172c.277-.113.495-.27.675-.473.18-.203.3-.442.383-.713a3.97 3.97 0 0 0 .142-.884c.008-.105.008-.218.008-.345v-.773c0-.067-.003-.13-.005-.19Zm-3.042 2.192c-.165-.217-.255-.524-.285-.922-.014-.21-.014-.442-.014-.69 0-.248.007-.48.014-.69.03-.398.12-.705.285-.922.158-.218.435-.323.818-.323.383 0 .653.105.818.323.165.217.255.524.285.922.014.203.014.442.014.69 0 .248-.007.48-.014.69-.03.398-.12.705-.285.922-.158.21-.435.323-.818.323-.383 0-.652-.105-.818-.323Zm-5.476-2.804a.223.223 0 0 0 .045.165v-.008l.39.488a.213.213 0 0 0 .308.045l1.17-.915v4.08c0 .06.022.112.067.157a.216.216 0 0 0 .158.068h.667c.06 0 .113-.023.158-.068a.216.216 0 0 0 .067-.157V83.3a.216.216 0 0 0-.067-.157.216.216 0 0 0-.158-.068h-.645a.27.27 0 0 0-.15.045 1.499 1.499 0 0 0-.067.049c-.023.017-.045.034-.068.049l-1.785 1.41a.213.213 0 0 0-.09.15Z"/><path d="M28.716 94.955a.556.556 0 0 1-.397-.165l-2.153-2.153a.557.557 0 0 1 0-.795l2.16-2.16a.566.566 0 0 1 .795 0 .566.566 0 0 1 0 .795l-1.2 1.2h7.956c.518 0 .938-.42.938-.937v-1.957c0-.308.255-.563.563-.563.307 0 .562.255.562.563v1.957c0 1.14-.922 2.063-2.063 2.063h-7.956l1.2 1.2a.566.566 0 0 1 0 .794.556.556 0 0 1-.397.165l-.008-.007Z"/></g><path stroke="#DBD6E1" d="M18 77h28v24H18z"/><path fill="#fff" d="M46 77h28v24H46z"/><path d="M55.35 94.25h3.225c.3 0 .6-.288.675-.503v-9.422c0-.36-.3-.575-.6-.575h-3.3c-.375 0-.6.216-.6.575v9.35c0 .36.3.575.6.575Zm2.7-1.079h-2.175V84.83h2.175v8.342Zm3.3 1.079h3.3c.3 0 .6-.288.6-.503v-9.422c0-.36-.3-.575-.6-.575h-3.3c-.3 0-.525.216-.6.575v9.35c0 .36.3.575.6.575Zm2.775-1.079H61.95V84.83h2.175v8.342Z" fill="#2B2233"/><path stroke="#DBD6E1" d="M46 77h28v24H46z"/><path fill="#fff" d="M74 77h28v24H74z"/><path d="M93.042 94.788a.57.57 0 0 0 .395.167.57.57 0 0 0 .563-.563V83.608a.563.563 0 1 0-1.125 0v10.784a.57.57 0 0 0 .167.396Zm-10.757-.253c.084.05.18.077.278.075a.517.517 0 0 0 .277-.075l8.745-5.047a.563.563 0 0 0 0-.975l-8.745-5.048a.562.562 0 0 0-.555 0 .548.548 0 0 0-.285.487v10.096a.548.548 0 0 0 .285.487ZM90.183 89l-7.058 4.073v-8.145L90.183 89Z" fill="#2B2233"/><path stroke="#DBD6E1" d="M74 77h28v24H74z"/><rect x="18.5" y="77.5" width="83" height="23" rx="3.5" stroke="#DBD6E1"/><rect x="175" y="84" width="10" height="10" rx="5" fill="#6C5FC7"/><rect x="175" y="84" width="10" height="10" rx="5" stroke="#fff"/><defs><pattern id="a" patternContentUnits="objectBoundingBox" width="1" height="1"><use transform="matrix(.0007 0 0 .00124 0 -.057)"/></pattern><filter id="b" x="139.2" y="41.2" width="15.014" height="21.178" filterUnits="userSpaceOnUse"><feFlood result="BackgroundImageFix"/><feColorMatrix in="SourceAlpha" values="0 0 0 0 0 0 0 0 0 0 0 0 0 0 0 0 0 0 127 0" result="hardAlpha"/><feOffset dy="1"/><feGaussianBlur stdDeviation=".9"/><feColorMatrix values="0 0 0 0 0 0 0 0 0 0 0 0 0 0 0 0 0 0 0.65 0"/><feBlend in2="BackgroundImageFix" result="effect1_dropShadow_202_2356"/><feBlend in="SourceGraphic" in2="effect1_dropShadow_202_2356" result="shape"/></filter></defs></svg>
