<svg id="a" xmlns="http://www.w3.org/2000/svg" width="864.5" height="648.1" viewBox="0 0 648.3 486.1"><defs><style>.b{fill:none}.d{stroke:#2f1d4a;stroke-linecap:round;stroke-linejoin:round}.d,.e{fill:#2f1d4a}.f{fill:#f58452}.g{fill:#ecb532}.h{fill:#e7e1ec}.i{fill:#ff9c88}.j{fill:#ffc1a9}.l{fill:#b39ed3}.m{fill:#e0557a}.n{fill:#8374a8}</style></defs><path class="i" d="M572.8 265v-24.1l-4.7-.7-1.8 23.8 6.5 1zM601.6 269.3l-2-24.5-4.4-.6.6 24.2 5.8.9z"/><path class="j" d="m468.8 486.1 126.4-370.2L0 0l121.6 305.2 347.2 180.9z"/><path class="l" d="m610.5 246.4-17.5-2.6a422 422 0 0 0-.6-8.7l-.8-9.8 8.5 1.2L585 183l-5.7 7.6c9.6 24.9 9 47.5 8.6 52.5l-21.5-3.2a56.9 56.9 0 0 0-6.5-27.3l-5 5.4c5 7.5 5.1 17.3 5 21l-22.6-3.4a2.1 2.1 0 0 1-1.3-3.4l7.6-9.5 3.9-4.8 14.6-18.1 2.7-3.3a72 72 0 0 1 8.4 25.6l5.8.7a92.7 92.7 0 0 0-10.7-30.7l16.5-20.4c1.1-1.4 3.4-1 4 .6l25.8 69.2c1 2.6-1.2 5.3-4 5ZM186.9 293.8l30.5 14.1 75.5-30.8-32.6-9-73.4 25.7z"/><path class="n" d="m603.7 236.6-11-1.5h-.3l-.8-9.8 8.5 1.2 3.6 10.1ZM580.1 234.2l-8.9-1.1s-.7-16-9.2-33.3l2.7-3.3a72 72 0 0 1 8.4 25.6l5.8.7c.6 3.6 1 7.4 1.2 11.4ZM544.6 231.4l3.4-5-4.5-3.7 3.9-4.8a24 24 0 0 1 6.1 14.7l-9-1.2ZM563.3 220.7c-1.7-5-3.5-8.1-3.5-8.1l-5 5.3c5 7.6 5.1 17.4 5 21l3.5-18.2Z"/><path d="m497.6 175.6.9 2-10.5 9.7-3.1-3.2s.8-1.8 2.3-2l-2.9-.9" style="stroke:#2f1d4a;stroke-linecap:round;stroke-linejoin:round;fill:none"/><path class="j" d="m555.6 207.7-1.6 2-54.8 20.6c-1 .4-2-.1-2.3-1l-.9-2.7L480 178s5.6-6.2 12.2-9.3c0 0 3.2 2.3 5.5 6.8l1.5-1.7c2-1.8 5.6-4.5 11-5l.3 3.4.1 1.7s-4.2 1.8-6.6 4.1c0 0-1.5 2.4-3 6.7l-1 3.2 5.5 31 7.4-1.6 42.8-9.7Z"/><path class="h" d="m647.8 283.1-1.7 44L490.2 301l-3.6-43.9 6.8-4 150.4 22.5 4 7.5z"/><path class="j" d="m647.8 283.1-161.2-26 6.8-4 150.4 22.5 4 7.5zM569.3 314.3v39.2l-3.9 1.2c-3.2 1-8.2 2.2-14 3.1-9.3 1.4-12-.2-9.8-2.4 4.7-4.7 14.2-9.6 18.2-12l1-13.7 1-13.3.2-3.3 7.3 1.2Z"/><path class="j" d="M629.7 256.2 571 274.5c-.4.2-.8 0-1-.2l-2.2-2-6.4-6.6-17.6 4.5c-.3-.4-.5-1-.6-1.4l-.4-1.6 17.8-6.6c1.7-3.4 3.7-5.8 4.8-7.1.5-.6 1.4-.8 2.2-.5 8.8 4.2 13 7.9 13 7.9l37.8-10.2-3.9-9.2-4.3-11.5-9.4-25.3 30 48.5a2 2 0 0 1-1 3ZM617.1 375a85.8 85.8 0 0 1-19-17.8c-.2-.3-.3-.7-.3-1l-.4-15.6-.2-9-.3-12.7 8.8 1.5 1.9 23.3.3 4.5c7 14.5 9.5 22.6 10.4 26 .1.6-.6 1.1-1.2.8Z"/><path class="m" d="M245.5 305.3c-6.2 12.3 10.2 21.9 30.7 22.9s32.3-6.6 32.8-15.7c.3-7.2-8.6-17-35.8-17.3-13.2-.1-24.6 4-27.7 10.1ZM524.2 194.5c5.8.3 7-1.4 7-2 .2-.9-1.4-2.3-6.1-2.4-3-.1-6.5.7-6.4 2.1.1 1 1.4 2 5.5 2.3Z"/><path class="f" d="M434.3 241.6c1.3 4.6-8 6.6-15.1 6.3-7.2-.3-16.1-2.9-16-7 .2-3 6.2-5.4 13.3-5.3 9.5.2 16.9 2.6 17.8 6Z"/><path class="n" d="M587.8 243c-1.6-31.4-11-49.3-11-49.3l2.4-3.1c9.6 24.9 9 47.5 8.6 52.5ZM56.8 181c-5.2-1.2-7.3-3.2-7.3-3.2l-8.4 2.4 3.4 6.2s3.5-.4 6.1-1.2c0 0 4 2.4 7.8 2.4l-1.6-6.7ZM98.4 167.1l-5.4 7h-9.4c-4 4.7-11.6 6.7-11.6 6.7l-2.9 7.7c-4.4.7-10.4.3-10.4.3l5 7.8s5.1.2 10.4-.4L76 188s7.3-2.2 10.5-5.9h9.6s2.6-2.4 4.3-5.6l-2-9.4Z"/><path class="l" d="M90.7 162.5s1.5-5.1-1.6-10.3l7-7.4s-.9-1.4-3.1-2.8l-2.2-1.2-8.5 4.2-.5-.2c-1-.3-3.8-1-6.9-.7l-1-4.2-.3-1.3s-4.8-.2-9 1.4l-1.9 5.8s-4.8 1.8-7.8 4.6l-4-1.5-2.3-.8-6.6 6.5 1.7 1.4 3.5 2.8s-2.6 3.7-2.4 8l-7.4 6.1.8 1.9c.6 1.5 1.7 3.7 2.9 5.4l8.4-2.4s2.1 2 7.3 3.1l2 7.9s6 .4 10.3-.3l2.9-7.7s7.6-2 11.6-6.6H93l.7-1 4.7-6-7.7-4.7Zm-33.8 9c-6-3.9-3-11.7 1.5-15.6A19.2 19.2 0 0 1 75 151l3 1c3.7 2 7.6 8.3-.8 16.4-4.4 4.2-13.6 7.6-20.3 3.2h-.1Z"/><path class="n" d="M45.6 162.2c.7-2 1.6-3.4 1.6-3.4l-5.2-4.2 3.6 7.6ZM78.1 152c-3.7-1.8-11.8-2.9-19.7 3.9-4.6 3.9-7.5 11.7-1.5 15.7 1 .7 2.1 1.2 3.3 1.5-.6-2.2-.4-5.7 3.8-9.7a19.7 19.7 0 0 1 18.3-4.2c.1-3.5-2-6-4.2-7.1ZM90.7 162.5l2.9 1.7c.7-2.4 0-5.4 0-5.4l4.3-5.2-1.8-8.8-7 7.4c3.1 5.2 1.6 10.3 1.6 10.3Z"/><path class="h" d="m564.5 88.2-.4 8-3 52.6c-.1.7-.7 1.3-1.4 1.3h-25.5l-8.9 41.6-7.4-42.6H495c-.8 0-1.4-.6-1.4-1.3l-2.5-47.2-.4-7.7c0-.8.6-1.5 1.4-1.5l7.6-.6 1 6.3.9-6.5 60.7-4.5a2 2 0 0 1 2.1 2.1Z"/><path class="e" d="m564.5 88.2-.4 8-72.9 4.4-.4-7.7c0-.8.6-1.5 1.4-1.5l7.6-.6 1 6.3.9-6.5 60.7-4.5a2 2 0 0 1 2.1 2.1Z"/><path class="m" d="M499 94.1c1.5 1 1.1 3.4-1 3.5a1.9 1.9 0 0 1-2-2.6c.4-.8 1.7-1.6 3-.9Z"/><path class="f" d="M505.7 94c1.3.8 1 3-1 3.2a1.8 1.8 0 0 1-1.8-2.5c.4-.7 1.6-1.4 2.8-.8Z"/><path class="g" d="M512.3 93.3c1.5 1 1.2 3.3-1 3.5a1.9 1.9 0 0 1-2-2.6c.5-.8 1.8-1.6 3-.9ZM507.7 135.4l16-31.4a.8.8 0 0 1 1.6 0l16.4 31a1 1 0 0 1-1 1.6h-32.2c-.6 0-1-.6-.8-1.2Z"/><path class="d" d="m522.7 112.5 3.7-.1-1.1 12.3h-1.6l-1-12.2zM523 129c.3-1 1.7-1.2 2.6-.4.9 1 .6 2.1 0 2.5-.6.6-1.4.5-2 0-.7-.4-1-1.3-.7-2Z"/><path class="h" d="M385.2 191.5a2 2 0 0 1-1.2 2c-3.7 1.9-15.6 7.3-35 12.1l-9.5-14.4 3.1 16a281.9 281.9 0 0 1-45.6 6.5l-21.3 95-17-95c-44-3.4-75.4-19.5-75.4-19.5L188.4 91l1-18.4c0-.6.5-1 1-.9 6.5 1.3 40.5 7.5 79.6.6 9.7-1.7 19-4.2 27.8-7l2.8 10 3.1-12a271.7 271.7 0 0 0 69.8-37.8c1.1-.8 2.6-.1 2.7 1.2l1.8 33 7.2 131.8Z"/><path class="e" d="M378 59.7C281.8 105.9 188.4 91 188.4 91l1-18.4c0-.6.5-1 1-.9 6.5 1.3 40.5 7.5 79.6.6 9.7-1.7 19-4.2 27.8-7l2.8 10 3.1-12a271.7 271.7 0 0 0 69.8-37.8c1.1-.8 2.6-.1 2.7 1.2l1.8 33Z"/><path class="n" d="M316.5 149.5a42 42 0 0 1-45 38.3c-22.9-1.6-35.1-22.4-36.9-34.3-3.4-22.8 8.8-43.6 29.7-49.4a44 44 0 0 1 9.3-1.5c30-1.8 43.4 26.1 42.9 47Z"/><path class="h" d="m291.6 152.2-3.1-13.8 6.9 12 12.3-3.5-11.2 6.6 5.6 18.2-9.1-16.4-9.6 2.5 8.2-5.6z"/><path class="g" d="m339.2 109.1-9.6 12.5c-.3.3-.6.4-1 .2l-12-5.2-5.8 8c2 4 3.5 8.3 4.5 12.5 0 0-6.2-6.1-10-10.2l-1.3-1.4a.9.9 0 0 1-.1-1c1.2-2.1 6-9.8 11-15.4.2-.2.6-.3.9-.1l1.7.9 8.6 4.6 7-9.1 2 1.1 4.1 2.6Z"/><path class="f" d="m290.7 194.9-14 10.5 7.4 9c.1.1.2.3.1.6l-1.6 7.5-4.2-1.3-1.8-.6 2.3-5.1-8.7-9.5-.7-.8c-.5-.5-.4-1.4.2-1.9l12.9-10.8c-1.9-3-3.4-4.8-3.4-4.8-2.4.2-5 .3-7.6 0 0 0 5.3-4.9 7.7-6.8.3-.2.7-.2.9 0 1.5 1.6 7 7.5 10.7 12.7.3.4.2 1-.2 1.3Z"/><path class="j" d="m235.6 212.9-6.6 13.8c2.7-7 2-15.5-1.7-24.1-3.4-8.1-9.4-16.4-17.6-23.8-17.1-15.4-40.6-17.2-52.8-7l9-8.4s21.8-12 48.5 9.9c8.5 7 13.7 14 16.8 20 5.7 11.3 4.4 19.6 4.4 19.6Z"/><path class="i" d="M186.4 208s-5-10.7-17.2-14.6a29 29 0 0 0-21.3 1.5 32.7 32.7 0 0 1 4.3-17.6c2.4-4 5.9-7 10.1-9s16.4 1.5 22.3 16.3c5.9 14.8 1.8 23.3 1.8 23.3Z"/><path class="f" d="M186.4 208s-20.7-1.2-27.5 15.5a48.2 48.2 0 0 1-11-28.6 29 29 0 0 1 38.5 13Z"/><path class="m" d="M195.1 243.7a59.3 59.3 0 0 1-36.2-20.2c6.8-16.7 27.5-15.6 27.5-15.6s-5.7 7.7-1.7 21.5c1.6 5.7 6 10.6 10.4 14.3Z"/><path d="M230.5 220.2a23.5 23.5 0 0 1-8 15.8c-7.3 6.6-17 9-27.4 7.7a30.9 30.9 0 0 1-10.4-14.3c-4-13.8 1.7-21.5 1.7-21.5s3.3 7.3 17.2 12.7c8.8 3.5 20 1.5 27-.4Z" style="fill:#7e62ae"/><path class="m" d="M202.2 83.4c-.7 4.4-4.5 5-6.6 4-2.2-1-3.3-3.3-2.9-5.8.3-1.7 2.5-4.9 6.3-3.7 2.5.8 3.5 3.5 3.2 5.5Z"/><path class="f" d="M213.8 79.3c3.7 1.1 3 5 2.5 6.3-.7 1.2-2.3 3.5-5.7 2.8-3.1-.6-3.8-3.7-3.1-5.8.7-2.2 3.5-4.2 6.3-3.3Z"/><path class="g" d="M229.7 80c3.5.9 3.5 4.4 3 5.7-.6 1.3-2.2 3.8-6 2.9-2.8-.7-3.8-3.4-3-5.7.8-2.5 3.7-3.5 6-3Z"/><path class="m" d="M266.7 126.6v.9l-4.6 7.8c-1.4 0-2.3-.2-3-.6-.9-.7-1-1.5-1-1.5l3.4-6.6-1.7-5.7-2-6.2c0-.4 0-.7.2-1l6.3-9.6a44 44 0 0 1 7-1.3l-8 12.5 3.4 11.3Z"/><path class="b" d="M248.2 179.8c1 .6 6 .3 7.3-1a9.7 9.7 0 0 0 2.9-5.8c.3-2.8.5-6.6-1.3-9a23.2 23.2 0 0 0-8.5-6 26.1 26.1 0 0 0-4.8 8.3c-2.3 7.3 3.4 12.9 4.4 13.5Z"/><path class="l" d="M281.2 149.4s-7-4.2-18.2-3.1c-4.7.4-9.3 2.5-13.2 5.2l3.6 1.8c3-2.2 6.4-4 10-4.8 9.7-2 17.8 1 17.8 1Z"/><path class="l" d="M262.9 162.2a24.3 24.3 0 0 0-9.5-8.9 31 31 0 0 0-7.6-3c-3.9-.5-13.1-.8-20 2.4-8.6 4-17.8 16-17.8 16a54 54 0 0 1 6.4 4.6l.6.5s2-3.3 8.1-9.8a25.9 25.9 0 0 1 21-7.6 23.1 23.1 0 0 0-3 3.7c-2.8 4.8-3.8 9-1.9 14.9 2 5.8 5.2 9.7 9.4 10 4.2.2 8.7.2 12.4-3.9 2.8-3.2 4.7-13.3 1.9-18.9Zm-14.7 17.6c-1-.6-6.7-6.2-4.4-13.5a26 26 0 0 1 4.8-8.3 23.2 23.2 0 0 1 8.6 6c1.7 2.4 1.5 6.2 1.2 9a9.7 9.7 0 0 1-3 5.9c-1.2 1.1-5.8 1.5-7 1l-.2-.1ZM209.7 178.8a55 55 0 0 0-1.3-1s3.2 10.1-4 19.5a27 27 0 0 1-18 10.6s3.3 7.3 17.2 12.7c8.8 3.5 20 1.5 27-.4 1.1-12.8-6.5-28.3-21-41.4Z"/><path class="g" d="M204.5 197.3a27 27 0 0 1-18.1 10.6s4-8.5-1.8-23.3c-6-14.8-22.3-16.3-22.3-16.3 12.5-5.8 31.5-3 46.1 9.4.2.5 3 10.4-4 19.6Z"/><path class="l" d="M608.8 288.3V307l11.4-8.1-11.4-10.6zM624.4 291.1v17.6l11.7-7.5-11.7-10.1zM563.4 302.1l14.3-7.4-14.3-12.3v19.7z"/><path class="j" d="m47.8 168.3-9.6 6.5-.8-1.9 7.4-6c-.2-4.4 2.4-8 2.4-8l2 1.4c-2.8 4.5-1.4 8-1.4 8ZM50.8 149c-2.2 2-5.2 5-7 7l-1.8-1.4 6.6-6.5 2.2.8ZM74 140.4c-4.4 0-7.5 1-7.5 1l-1 5.7c-4.7 1-8 4-8 4l-2.6-.7c3-2.8 7.8-4.6 7.8-4.6l1.8-5.8c4.3-1.6 9-1.4 9-1.4l.5 1.8ZM93 142l-7.7 3.7-3-.7 8.5-4.2L93 142ZM73.4 173.7c-9.5 3.4-14.2.4-16.4-2 6.7 4.3 15.9.9 20.3-3.3 8.4-8.1 4.5-14.5.8-16.3a13 13 0 0 0-3-1c2.7-.3 5.1.2 8 3.4 5.7 6.7-2 16.4-9.7 19.2ZM245.8 150.3c-13.6 1.2-19.9 4.7-23.2 7.3-3 2.4-9.9 10-12.2 12.6a54 54 0 0 0-2.4-1.6s9.2-12 17.8-15.9c6.9-3.2 16.1-3 20-2.4ZM260.5 174.6c-.2 1.5-1.5 5.7-4.8 6.6-4.3 1.1-6-.2-7.4-1.4 1.3.6 6 .2 7.2-1a9.7 9.7 0 0 0 2.9-5.9c.3-2.7.5-6.5-1.2-9a99 99 0 0 1 2.9 3.6c.8 1.1.6 5.7.4 7.1ZM263.4 127.2l-4.2 7.5c-1-.7-1.2-1.5-1.2-1.5l3.5-6.6-1.7-5.7 3.6 6.3ZM284.2 194.6l-14 11.4-.7-.8c-.5-.5-.4-1.4.2-1.9l12.9-10.8 1.6 2ZM280.1 216.2l-1.7 5-1.8-.6 2.3-5.1 1.2.7zM317.5 109.9a104 104 0 0 0-12.2 17l-1.3-1.4a.9.9 0 0 1-.1-1c1.2-2.1 6-9.8 11-15.4.2-.2.6-.3.9-.1l1.7.9ZM335 106.5l-7.2 8.9-1.7-.9 7.1-9.1 1.8 1.1z"/><path class="i" d="m630.8 253.2-30-48.5 7.4 20 19.4 28.6c.2.4 0 1-.4 1l-55 16.6-9.5-7.5-19.5 5.4c.1.5.3 1 .6 1.4l17.6-4.5 6.4 6.6 2.1 2c.3.3.7.4 1.1.2l58.7-18.3a2 2 0 0 0 1.1-3ZM498.5 177.6l-.1.1-.8-2.1.9 2Z"/><path class="i" d="M501 184.8c1-3.6 2.9-6.7 2.9-6.7 3-2.6 6.6-4.1 6.6-4.1l-.1-1.7c-1.2.4-9 4.4-9 4.4l-2.3-2.8-1.5 1.7.9 2v.3l-.1-.2-10.4 9.6-3.1-3.2s.7-1.8 2.3-2l-4.4-1.3 3.6 10.9 8-4.4 7.6 32.6 3.4-.8L500 188c.3-1.2.6-2.3 1-3.2ZM554 209.7l-54.8 20.6c-1 .4-2-.1-2.3-1l-.9-2.7 58-16.9ZM562 313.1l7.3 1.2v17.9l-8.5-2.5 1-13.3.2-3.3zM607.6 343.7l-10.2-3.1-.2-9-.3-12.7 8.8 1.5 1.9 23.3z"/><path class="j" d="M163 173a40.9 40.9 0 0 1 27-5.5 39 39 0 0 0-27.7.8c-4.2 2-7.7 5-10 9a32.7 32.7 0 0 0-4.4 17.6c.1 7.9 2.8 16 7.3 23.4a94.3 94.3 0 0 1-4-19c-.9-11 2-20 11.7-26.3Z"/><path class="i" d="m235.6 212.9-6.6 13.8c2.7-7 2-15.5-1.7-24.1l3.9-9.2c5.7 11.2 4.4 19.5 4.4 19.5Z"/><path class="l" d="M590.4 375.1c-3 .7-9.9 1.6-14.4 1.1-8-.8-13.8-3.7-13.8-3.7l-6.2-5.9 7.1 2.6s-2.1-8.6-1-8.9c1-.2 7.2 8.7 7.2 8.7v-54.7l7 1.2.2 1.3.3 3.2 4.7 51 .3-.3.7-1.1.3-.4c1.7-2.5 4.7-6.5 6-5.8 1 .6-2.3 8.2-2.4 8.5.2 0 2.7-1.2 5.2-2l.7-.3s4.1-1.1 4.4-.6c.8 1.4-6.3 6.1-6.3 6.1Z"/><path class="n" d="m576.8 320-.3-3.2-.1-1.3-7.1-1.2v9l5.5 1.6 2 43.7s1.7 1.4 3.6 4.2l1.1-1.7-4.7-51.1ZM582.5 369.6l-.7 1.1.7-1.1Z"/><path class="f" d="M585.6 39s-1 6.7-12 7.9c-8.2 1-13.7.2-17 9.1-3.5 9-8 9.3-10.3 7.5-2.3-1.9-1.3-4.4.2-5.3 0 0-7.2-1.4-11.7 5.5-2.4 3.6-3.2 8.7-5.6 11-2.2 2.1-5 1.6-6.8-.8 0 0 1.7 5.3-3 8.3-8.7 5.7-19.2 4.6-23 8.8l3.4-.2 1 6.3.9-6.5 60.7-4.5s.8-1.3-2.1-2.8-1.2-6 4.3-6.8c5.4-.6 12.3-2.2 14-6.3 0 0-6 2.7-8-2.1-1.7-4.2 3.4-7.2 6.9-7.8v-.1c-1.9-.1-5-.8-5.3-4.3-.6-7 13.4-6.1 13.4-17Z"/><path class="e" d="M115.2 308.2a.5.5 0 0 1-.2-1l150.1-46.3c.3 0 .6 0 .7.4s0 .5-.4.6l-150 46.3h-.2ZM438 362.4h-.2L310.5 321a.5.5 0 0 1 .3-1L438 361.4a.5.5 0 0 1-.1 1ZM247.3 300.4h-.2l-2.5-.9a.5.5 0 0 1 .3-1l2.5 1a.5.5 0 0 1-.1.9Z"/><path class="e" d="M203.4 286.1h-.1l-8.2-2.6a.5.5 0 0 1 .3-1l8.2 2.7a.5.5 0 0 1-.2 1ZM527.6 314.6h-.1l-238.1-48.3a.5.5 0 0 1 .2-1l238 48.3a.5.5 0 0 1 0 1ZM217.4 308.4h-.2l-30.5-14.1a.5.5 0 0 1 0-1l73.4-25.6h.3l5.9 1.6a.5.5 0 0 1-.3 1l-5.7-1.6-72 25.2 29.1 13.5 51.2-20.9a.5.5 0 1 1 .3 1l-51.3 20.9h-.2ZM282 282a.5.5 0 0 1-.3-.9l9.6-3.9-8-2.2a.5.5 0 0 1 .3-1l9.4 2.6a.5.5 0 0 1 0 1l-10.9 4.5h-.2ZM185 160.7a.5.5 0 0 1-.5-.5l2.6-52.5c0-.3.2-.5.5-.5s.5.3.5.6l-2.6 52.5c0 .2-.3.4-.5.4Z"/><path class="e" d="M275.7 309.2a.5.5 0 0 1-.5-.4l-16.9-94.6c-7.5-.6-15.1-1.6-22.7-3a.5.5 0 0 1 .2-1c7.7 1.5 15.4 2.5 23 3 .2 0 .4.3.4.5l16.5 92.5 20.8-92.6c0-.3.3-.4.5-.4 15.6-1 30.8-3.2 45-6.4l-3-15.5a.5.5 0 0 1 .9-.4l9.4 14.2c18.7-4.8 30.4-10 34.5-12 .6-.3 1-.9 1-1.5l-9-164.9c-.1-.4-.4-.8-.8-1-.4-.1-.8-.1-1.2.2-7.4 5.6-34.2 25-69.7 37.7l-3 11.8c0 .2-.3.4-.5.4a.5.5 0 0 1-.5-.4l-2.6-9.5c-9.2 3-18.4 5.3-27.4 6.9a229 229 0 0 1-80.1-.5l-.2.4-1.4 27.5c0 .3-.2.5-.5.5a.5.5 0 0 1-.5-.5l1.4-27.6a1.5 1.5 0 0 1 1.8-1.4c6.4 1.3 40.4 7.5 79.4.6a204.2 204.2 0 0 0 28-7c.2 0 .3.2.3.3l2.3 8.3 2.6-10.3a272.6 272.6 0 0 0 70-38c.7-.5 1.5-.6 2.3-.3.7.4 1.2 1 1.2 1.9l9 164.8c0 1-.5 2-1.4 2.5-4.2 2-16 7.3-35.1 12.1-.2 0-.4 0-.6-.2l-8.1-12.3L343 207c.1.2 0 .5-.3.6a299.2 299.2 0 0 1-45.4 6.4l-21.2 94.7c0 .2-.3.4-.5.4Z"/><path class="e" d="M339.5 191.7a.5.5 0 0 1-.5-.4l-2-9.5v-.4l9.4-9.4.3-.1 11.8-2.7a.5.5 0 1 1 .2 1l-11.6 2.6-9.1 9.1 2 9.2a.5.5 0 0 1-.5.6Z"/><path class="e" d="M346.8 172.9a.5.5 0 0 1-.5-.4l-3.1-10.3-3.5-4a.5.5 0 1 1 .7-.7l3.6 4.1.1.2 3.2 10.4a.5.5 0 0 1-.5.7Z"/><path class="e" d="M343.6 162.5s-.2 0-.3-.2a.5.5 0 0 1 0-.7l6.4-8.4a.5.5 0 0 1 .8.6l-6.5 8.5-.4.2ZM185.5 149.4a.5.5 0 0 1-.2-1l8.2-4.2h.5l7.5 4.2a.5.5 0 0 1-.5 1l-7.3-4.2-8 4.1h-.2Z"/><path class="e" d="M193.7 145.2h-.2a.5.5 0 0 1-.2-.8l1.8-3.4a.5.5 0 1 1 1 .5l-2 3.4c0 .2-.2.3-.4.3ZM300.6 97.1c-.2 0-.3 0-.4-.2l-3.3-5.1v-.4l1-5.5c.1-.3.4-.5.6-.4.3 0 .5.3.4.6l-1 5.3 3.1 5a.5.5 0 0 1-.4.7Z"/><path class="e" d="M225.5 93.7c-22.7 0-36.8-2.1-37.2-2.2a.5.5 0 1 1 .2-1 356 356 0 0 0 189.3-31.3.5.5 0 1 1 .4 1 357.5 357.5 0 0 1-152.7 33.5ZM238.8 165.9a.5.5 0 0 1-.5-.3 41.8 41.8 0 0 1-3.4-8.5.5.5 0 1 1 1-.2c.7 2.7 1.8 5.5 3.3 8.2a.5.5 0 0 1-.4.8ZM274.9 188.4l-3.4-.1a38 38 0 0 1-14.5-4 .5.5 0 0 1 .5-.9 37 37 0 0 0 21.6 3.8c.3 0 .6.2.6.4 0 .3-.2.6-.5.6l-4.3.2ZM285.4 187.1a.5.5 0 0 1-.1-1 42 42 0 0 0 30.7-36.6 53 53 0 0 0-5.6-24.7.5.5 0 0 1 .8-.5 54 54 0 0 1 5.8 25.3 43 43 0 0 1-31.6 37.5ZM234.3 150.9a.5.5 0 0 1-.5-.5 43.2 43.2 0 0 1 39.8-48.3c18-1 28.6 8.4 34.2 16.5a.5.5 0 1 1-.8.6 36.3 36.3 0 0 0-35.6-16 43.8 43.8 0 0 0-7 1.4c-19.3 5.4-31.5 24.2-29.6 45.8a.5.5 0 0 1-.5.5Z"/><path class="e" d="M302.1 172.2c-.2 0-.3 0-.4-.2l-9-16.1-9.1 2.4a.5.5 0 0 1-.4-.9l7.8-5.5-3-13.4a.5.5 0 0 1 .9-.3l6.7 11.6 12-3.4c.2 0 .5.1.6.3 0 .3 0 .5-.2.7l-11 6.3 5.6 17.9a.5.5 0 0 1-.5.6Zm-9-17.4c.1 0 .3 0 .4.2l6.7 12.2-4.2-13.6c0-.2 0-.4.2-.5l8-4.6-8.7 2.4c-.2 0-.4 0-.5-.3l-5.3-9L292 152c0 .2 0 .4-.2.5l-5.8 4 6.8-1.8h.1ZM315.3 137.6l-.4-.1s-7.8-7.8-11.3-11.7c-.4-.4-.5-1-.2-1.6 1.4-2.2 6-9.8 11.1-15.4.4-.4 1-.5 1.5-.3l10 5.4 6.8-8.8c.1-.2.4-.3.6-.1l6 3.7a.5.5 0 0 1 .2.7L330 122c-.4.5-1 .6-1.5.4-2.1-1-8.9-4-11.8-5.1l-5.3 7.4a55 55 0 0 1 4.3 12.4.5.5 0 0 1-.4.6Zm.1-28.2h-.1c-5 5.6-9.7 13.1-11 15.3v.5l10 10.3c-1-3.7-2.3-7.4-4-10.7v-.6l5.8-8c.1-.1.4-.2.6-.1a515.2 515.2 0 0 1 12.5 5.2l9.3-12-5.2-3.2-6.8 8.7c-.1.2-.4.3-.6.1l-10.4-5.5Z"/><path class="e" d="M336.3 107.8a.5.5 0 0 1-.5-.5V100a.5.5 0 1 1 1 0v6.2l10.3-8.1a.5.5 0 1 1 .6.8l-11.1 8.7h-.3Z"/><path class="e" d="M336.3 107.8h-.3a.5.5 0 0 1-.2-.7l5-10.7a.5.5 0 1 1 1 .5l-5 10.6-.5.3ZM282.6 223h-.2l-6-2a.5.5 0 0 1-.3-.6l2.2-4.8-9.1-10c-.4-.4-.5-.9-.5-1.4 0-.5.3-1 .6-1.3l12.6-10.5a36.8 36.8 0 0 0-3-4.2c-2.3.2-4.8.3-7.4 0a.5.5 0 0 1-.3-.8s5.4-5 7.8-7c.5-.3 1.2-.2 1.6.2 1.6 1.7 7 7.5 10.7 12.7.5.6.4 1.5-.3 2l-13.5 10.2 7 8.5c.2.3.3.7.2 1l-1.6 7.6a.5.5 0 0 1-.5.4Zm-5.3-2.7 4.9 1.6 1.5-7v-.2l-7.3-9c-.1 0-.2-.2-.1-.3 0-.2 0-.3.2-.4l14-10.5c.1-.2.2-.4 0-.6-3.6-5.1-9-11-10.7-12.6h-.2l-6.8 6a45.5 45.5 0 0 0 6.8 0c0 .1 1.6 1.9 3.4 5 .1.1 0 .4-.1.6l-13 10.8-.2.6c0 .3 0 .4.2.6l9.4 10.2c.1.2.2.4 0 .6l-2 4.6Z"/><path class="e" d="M281 229.3a.5.5 0 0 1-.6-.4l-1-6.4-6.8 5.9a.5.5 0 1 1-.7-.8l7.5-6.4h.5c.1 0 .3.1.3.3l1.2 7.3a.5.5 0 0 1-.5.5Z"/><path class="e" d="M276.6 232.4h-.2a.5.5 0 0 1-.3-.7l3.1-10.3a.5.5 0 0 1 1 .3L277 232c-.1.2-.3.4-.5.4ZM200.5 244.6a59.5 59.5 0 0 1-42-20.8 49 49 0 0 1-11.1-28.9 33.4 33.4 0 0 1 4.4-17.9.5.5 0 1 1 .8.5c-3 5-4.4 11-4.2 17.4a50.7 50.7 0 0 0 23.1 39.2c8 5 16 8.1 23.7 9.1 10.5 1.4 19.9-1.2 27-7.5a23 23 0 0 0 7.8-15.5c1.2-12.9-6.5-28.2-20.7-41-13.8-12.5-33-16.8-46.8-10.4-2.1 1-4 2.2-5.6 3.6a.5.5 0 1 1-.7-.7 24.9 24.9 0 0 1 6-3.8c14-6.6 33.7-2.2 47.8 10.5 14.4 13 22.2 28.7 21 41.9a23.9 23.9 0 0 1-8.1 16.1 33 33 0 0 1-22.4 8.2Z"/><path class="e" d="M229 227.2h-.3a.5.5 0 0 1-.2-.7c5.2-13.5-2.4-32.1-19.2-47.3-16-14.5-39.4-17.7-52-7h-.7a.5.5 0 0 1 0-.8l8.9-8.4c.3-.2 22.6-12 49.2 10 24.4 20 21.4 39.7 21.3 40l-6.5 14a.5.5 0 0 1-.5.2ZM176.4 165c11.3 0 23.8 4.7 33.6 13.5 15.1 13.7 22.8 30 20.8 43.4l4.3-9c0-.7.6-5.4-1.5-12.1-2-6.7-7-16.8-19.5-27a50.8 50.8 0 0 0-34-13c-8 .2-13.4 2.8-14 3.1l-4.7 4.4a33 33 0 0 1 15-3.3Z"/><path class="e" d="M186.4 208.4a.5.5 0 0 1-.5-.7s4-8.6-1.8-22.9c-5.7-14.3-21.7-16-21.8-16a.5.5 0 0 1 0-1c.2 0 16.8 1.7 22.8 16.7 4.9 12.3 3 20.3 2 22.8 2.6-.4 10.8-2.2 17-10.3 6.9-9 3.9-19 3.9-19.1a.5.5 0 0 1 1-.3s3.1 10.5-4.1 20a27.8 27.8 0 0 1-18.5 10.8Z"/><path class="e" d="M186.4 208.4a.5.5 0 0 1-.5-.3s-5-10.4-16.9-14.2a28.6 28.6 0 0 0-20.9 1.5.5.5 0 0 1-.7-.5 33.4 33.4 0 0 1 4.4-17.9.5.5 0 1 1 .8.5 32.2 32.2 0 0 0-4.3 16.6c2.5-1.1 11-4.4 21-1.2 10.1 3.3 15.4 11 17 13.8a33 33 0 0 0-2.2-21.9c-5.4-13.7-20.2-15.8-21.7-16-2 1-4 2.2-5.5 3.6a.5.5 0 1 1-.7-.7 24.9 24.9 0 0 1 6.1-3.9c.2 0 16.8 1.7 22.8 16.7 5.8 14.7 1.9 23.3 1.7 23.7l-.4.2Z"/><path class="e" d="M159 224c-.2 0-.4 0-.5-.2a49 49 0 0 1-11.1-28.9c0-.1 0-.3.2-.4a29.7 29.7 0 0 1 39.2 13.2.5.5 0 0 1-.5.7c-.2 0-20.4-.9-27 15.3a.5.5 0 0 1-.4.3Zm-10.6-28.8a48 48 0 0 0 10.4 27.3c6.3-14.1 22.8-15 26.7-15a28.7 28.7 0 0 0-37.2-12.2Z"/><path class="e" d="M195.1 244.2a59.5 59.5 0 0 1-36.6-20.4.5.5 0 0 1 0-.5c6.8-16.8 27.7-15.9 27.9-15.9a.5.5 0 0 1 .4.8c0 .1-5.5 7.7-1.6 21 1.4 4.9 4.8 9.6 10.2 14.1a.5.5 0 0 1-.3 1Zm-35.6-20.8a59.7 59.7 0 0 0 34 19.6c-4.9-4.3-8-8.8-9.3-13.5-3.3-11.5 0-18.8 1.3-21-4 0-20.1 1-26 14.9Z"/><path class="e" d="M200.5 244.6a42.7 42.7 0 0 1-5.7-.5 30.8 30.8 0 0 1-10.6-14.6c-4-13.8 1.5-21.5 1.8-21.9l.4-.2c.2 0 .3.2.4.3 0 .1 3.5 7.2 17 12.5 9 3.5 20.5 1.2 26.6-.4h.4c.2.2.2.3.2.5a23.9 23.9 0 0 1-8.1 16.1 33 33 0 0 1-22.4 8.2Zm-5.2-1.3a33 33 0 0 0 27-7.6c4.3-4 7-8.9 7.6-14.8-7.5 2-18 3.5-26.5.2-11.4-4.4-15.8-10.1-17-12.2a26.6 26.6 0 0 0-1.2 20.4c1.3 4.8 4.8 9.5 10.1 14ZM197.4 88.3c-.7 0-1.4-.1-2-.4-2.4-1-3.7-3.6-3.2-6.3a6 6 0 0 1 2.7-3.8 5 5 0 0 1 4.2-.4c2.7.9 4 3.8 3.6 6-.4 2.5-1.7 3.7-2.7 4.3-.8.4-1.7.6-2.6.6Zm0-10.2c-.7 0-1.4.2-2 .6a5 5 0 0 0-2.2 3c-.4 2.3.7 4.4 2.6 5.3.9.4 2.4.5 3.7-.2 1.2-.6 2-1.8 2.2-3.5.3-1.6-.6-4.2-2.9-5l-1.4-.2ZM211.8 89l-1.3-.1c-1.4-.3-2.5-1-3.1-2.2a5.4 5.4 0 0 1-.4-4.3c.9-2.5 4-4.6 7-3.6 1.3.4 2.3 1.3 2.8 2.5.8 1.7.3 3.7 0 4.5-.6 1-2.1 3.2-5 3.2Zm.7-9.4a5 5 0 0 0-4.5 3.2c-.4 1.1-.3 2.4.3 3.4.5 1 1.3 1.5 2.4 1.7 3 .6 4.5-1.3 5.1-2.6a5 5 0 0 0 .1-3.6c-.4-1-1.1-1.6-2.2-2a4 4 0 0 0-1.2-.1ZM228.3 89.3c-.5 0-1 0-1.7-.2a4.8 4.8 0 0 1-3.4-6.4c1-2.8 4.1-3.8 6.6-3.2 1.4.3 2.5 1.1 3 2.3.8 1.4.7 3.1.3 4.1-.2.7-1.5 3.4-4.8 3.4Zm0-9c-1.7 0-3.6.9-4.2 2.7a4 4 0 0 0 .3 3.3c.5.9 1.3 1.5 2.5 1.8 3.6.9 5-1.7 5.3-2.5.2-.7.4-2.1-.2-3.4a3.5 3.5 0 0 0-2.4-1.7l-1.3-.2ZM195.2 84.7l4.2-4.2"/><path class="e" d="M195.2 85.2c-.2 0-.3 0-.4-.2a.5.5 0 0 1 0-.7l4.3-4.1a.5.5 0 0 1 .7.7l-4.3 4.1-.3.2ZM195.5 80.2l3.3 5.2"/><path class="e" d="M198.8 85.9c-.2 0-.3-.1-.4-.3l-3.3-5.2a.5.5 0 0 1 .8-.5l3.3 5.2a.5.5 0 0 1-.4.8ZM209.6 83.5l4.5.3M214.1 84.3l-4.5-.3a.5.5 0 0 1-.5-.5c0-.3.2-.5.5-.5l4.5.3a.5.5 0 0 1 0 1ZM228.3 82.1l-.3 4.7M228 87.3a.5.5 0 0 1-.5-.5l.3-4.7c0-.3.3-.5.5-.5.3 0 .5.3.5.6l-.3 4.6c0 .3-.3.5-.5.5ZM225.6 84.1l5.3.3"/><path class="e" d="m230.9 84.9-5.3-.3a.5.5 0 0 1-.5-.5c0-.3.2-.5.5-.5l5.3.3a.5.5 0 0 1 0 1ZM261.6 135.8c-3.4 0-4-2.5-4-2.5v-.4l3.4-6.3-3.6-11.8c-.2-.5 0-1 .2-1.4l6.3-9.5c0-.2.1-.2.3-.3 2.3-.6 4.7-1 7.1-1.3.2 0 .4 0 .5.2v.5l-8 12.4 3.4 11c.1.5 0 1-.1 1.3l-4.5 7.8c-.1.2-.3.3-.4.3h-.6Zm.5-.5Zm-3.5-2c.2.4.9 1.6 3.2 1.5l4.4-7.6v-.4l-3.4-11.3v-.5l7.6-11.6c-2 .2-3.9.6-5.8 1.1l-6.2 9.5v.5l3.6 12v.4l-3.4 6.3Z"/><path class="e" d="M256.3 141.8h-.2a.5.5 0 0 1-.2-.7l2.3-4.3-1.6 1.2a.5.5 0 0 1-.6-.8l3.5-2.6c.1-.2.4-.2.6 0 .2.1.2.4.1.6l-3.4 6.4-.5.2Z"/><path class="e" d="M259.8 140.9a.5.5 0 0 1-.5-.5V135a.5.5 0 1 1 1 0v5.4c0 .3-.3.5-.5.5Z"/><path class="b" d="M248.2 179.8c1 .6 6 .3 7.3-1a9.7 9.7 0 0 0 2.9-5.8c.3-2.8.5-6.6-1.3-9a23.2 23.2 0 0 0-8.5-6 26.1 26.1 0 0 0-4.8 8.3c-2.3 7.3 3.4 12.9 4.4 13.5Z"/><path class="e" d="M253.4 153.8h-.2l-3.6-1.8a.5.5 0 0 1 0-.9c3-2.1 7.9-4.8 13.3-5.3 11.4-1.1 18.3 3 18.6 3.2a.5.5 0 0 1-.5.9s-8-2.8-17.4-.9a24 24 0 0 0-10.2 4.8Zm-2.6-2.4 2.6 1.3a25 25 0 0 1 10-4.6c4.3-1 8.3-.9 11.5-.5-3-.8-7-1.3-11.9-.8-4.8.4-9.2 2.6-12.2 4.6Z"/><path class="e" d="M251 185.5h-2.4c-4.2-.3-7.7-4-9.8-10.3-1.9-5.6-1.3-10 2-15.3.5-1 1.3-2 2.3-3.1-5.5-.7-14.2 1.9-19.6 7.5-6 6.4-8 9.7-8 9.7-.2.2-.3.3-.5.3l-.3-.1-.3-.2-.3-.3c-2-1.7-4.1-3.2-6.4-4.6a.5.5 0 0 1-.2-.6l.1-.2s7.4-9.5 15-14.4a.5.5 0 1 1 .5.9 70.3 70.3 0 0 0-14.4 13.7 70 70 0 0 1 6.2 4.5c.7-1 3-4.2 7.9-9.4 5.9-6.2 15.7-8.8 21.4-7.7.2 0 .3.2.4.4 0 .1 0 .3-.2.4a22.5 22.5 0 0 0-2.8 3.7c-3 5-3.6 9.2-1.9 14.4 2 6 5.2 9.4 9 9.6 4.3.3 8.5.2 11.9-3.6 2.7-3 4.6-12.8 1.8-18.3a24.1 24.1 0 0 0-9.2-8.7l-3.6-1.8c-1.5-.6-2.9-1-3.9-1.2-3-.4-9.8-.7-16 1-.3.1-.6 0-.6-.3-.1-.3 0-.6.3-.6a44.6 44.6 0 0 1 16.4-1c1.2 0 2.6.5 4.2 1.2 1.2.5 2.4 1 3.7 1.8 2.6 1.5 7.3 4.7 9.6 9.1 3 5.8.9 16.2-2 19.4-3 3.4-6.7 4.1-10.4 4.1Zm-.7-5c-1 0-2 0-2.4-.3-1-.6-7-6.4-4.5-14 .9-2.9 2.6-5.8 4.8-8.5.2-.2.4-.3.6-.2 3.8 1.7 7.3 4.2 8.7 6.2 2 2.5 1.7 6.5 1.4 9.3 0 .3-.3.5-.6.4a.5.5 0 0 1-.4-.5c.3-2.6.5-6.4-1.2-8.7-1.3-1.7-4.5-4-8-5.6-2 2.5-3.6 5.3-4.4 7.9-2.2 6.9 3.3 12.3 4.2 12.8.8.5 5.5.2 6.6-.8.5-.4 1.2-1.2 1.8-2.4a.5.5 0 0 1 1 .4c-.6 1.1-1.3 2-2 2.8-1 .8-3.6 1.3-5.6 1.3Z"/><path class="e" d="M248.6 158.5h-.2a30.3 30.3 0 0 0-4.4-1.6.5.5 0 0 1 .2-1l1 .3c1.2.3 2.4.8 3.6 1.3a.5.5 0 0 1-.2 1ZM107.2 162.7a.5.5 0 0 1-.4-.8c.3-.3 25.6-20.7 57.6-28.7 22-5.6 55.1-9.4 88.5 4a.5.5 0 1 1-.3 1 143.7 143.7 0 0 0-88-4 167.4 167.4 0 0 0-57.4 28.5ZM85.7 132a.5.5 0 0 1-.2-1c4-1.8 7.6-3.5 11.3-5a.5.5 0 1 1 .4.9 238.4 238.4 0 0 0-11.5 5.1Z"/><path class="e" d="m252.7 136.2-.2-.1c-.3-.2-28.7-19.6-71.9-22.8-27.3-2-52.6 1.7-77.3 11.2a.5.5 0 1 1-.4-1 177.4 177.4 0 0 1 77.8-11.2c43.5 3.2 72 22.8 72.3 23a.5.5 0 0 1-.3.9ZM58.4 188.1c-3.5 0-7-1.8-7.9-2.3-2.6.7-5.8 1-6 1.1-.1 0-.3 0-.4-.3l-3.5-6.2a.5.5 0 0 1 .3-.7l8.5-2.4.5.1s2 2 7 3l.4.4 1.6 6.7a.5.5 0 0 1-.5.6Zm-7.8-3.4.3.1s3.4 2 6.9 2.3l-1.4-5.7c-4.2-1-6.3-2.5-7-3l-7.6 2 3 5.5a41 41 0 0 0 5.8-1.2ZM66.3 197.1h-2.7l-.4-.3-4.9-7.7a.5.5 0 0 1 .5-.8s5.7.4 10-.2l2.7-7.4c0-.2.2-.3.3-.4.1 0 7.6-2 11.4-6.4l.4-.2h9.1l5.3-6.9c.1-.2.3-.2.5-.2s.3.2.4.4l2 9.4-.1.3a24.4 24.4 0 0 1-4.3 5.8l-.4.1h-9.3c-3 3.3-9 5.3-10.4 5.8l-1.8 7.9c0 .2-.3.4-.5.4-2.9.3-5.8.4-7.8.4Zm-2.4-1c1.1 0 5.4.1 9.8-.4l1.8-7.8c0-.2.2-.3.4-.4a27.5 27.5 0 0 0 10.6-5.9H96a24 24 0 0 0 4-5.2l-1.8-8.1-4.7 6.1-.4.2h-9.2a26.5 26.5 0 0 1-11.5 6.6l-2.7 7.5a53.3 53.3 0 0 1-9.9.6l4.2 6.8Z"/><path class="e" d="m63 189.4-4.3-.1a.5.5 0 0 1-.5-.4l-1.8-7.5c-4.2-1-6.3-2.5-7-3l-8.2 2.3c-.2 0-.4 0-.5-.2-2-3-3.7-7.2-3.8-7.4 0-.2 0-.4.2-.6l7.2-5.9c0-3.6 1.6-6.6 2.3-7.7l-4.9-3.9a.5.5 0 0 1 0-.7l6.5-6.5c.2-.2.4-.2.6-.2l6 2.2c1.7-1.5 3.8-2.7 5.4-3.4a.5.5 0 1 1 .4.9c-1.5.7-3.8 2-5.4 3.4-.1.2-.3.2-.5.1l-6-2.1-6 5.9 4.9 3.8c.2.2.2.5 0 .7 0 0-2.5 3.6-2.3 7.7 0 .2 0 .3-.2.4l-7.1 5.9c.4 1 1.7 4.1 3.3 6.5l8-2.3.6.1s2 2 7 3l.4.4 1.8 7.5c1.3 0 6 .3 9.6-.2l2.8-7.4c0-.2.2-.3.3-.4.1 0 7.6-2 11.4-6.4l.4-.2h9.1l5-6.5-7.3-4.3a.5.5 0 0 1-.2-.6s1.4-5-1.5-9.9a.5.5 0 0 1 0-.6l6.7-7c-.5-.7-1.9-2.2-4.6-3.5l-8.3 4.1c-.1.1-.3.1-.4 0 0 0-3.3-1.2-7.1-.8a.5.5 0 0 1-.6-.3l-1.2-5.2c-1.2 0-5 0-8.3 1.3l-1.7 5.6a.5.5 0 0 1-1-.3l1.9-5.8c0-.2.1-.3.3-.4 4.2-1.6 9-1.4 9.2-1.4.2 0 .4.1.5.4l1.2 5.1c3.3-.2 6.1.6 7 .9l8.3-4.2h.4a13 13 0 0 1 5.5 4.3v.6l-6.8 7c2.5 4.5 1.9 8.8 1.6 10l7.3 4.5a.5.5 0 0 1 .2.7l-5.4 7-.4.2h-9.2a26.5 26.5 0 0 1-11.5 6.6l-2.7 7.5c-.1.2-.2.3-.4.3-2 .3-4.3.4-6.2.4Zm1.2-15.2c-2.7 0-5.3-.7-7.6-2.2a7.6 7.6 0 0 1-3.6-6c-.2-4 2.4-8.2 5-10.5 8.2-7 16.7-5.7 20.3-3.9 1.8.9 3.8 2.9 4.4 5.8.4 2.2.1 5.6-3.7 9.9a.5.5 0 1 1-.7-.7c2.8-3 4-6.2 3.4-9a7.3 7.3 0 0 0-3.8-5c-3.5-1.8-11.4-3-19.2 3.7-3 2.5-4.9 6.4-4.7 9.6.1 2.2 1.2 4 3.1 5.3 5.6 3.6 13.3 1.7 18-1.7a.5.5 0 0 1 .6.8 20.5 20.5 0 0 1-11.5 3.9Z"/><path class="e" d="M45.6 162.7a.5.5 0 0 1-.5-.3l-3.5-7.6a.5.5 0 0 1 .7-.6l5.3 4.2c.2.2.2.5 0 .7 0 0-.9 1.3-1.6 3.2 0 .2-.2.4-.4.4Zm-2.2-6.3 2.1 4.5 1-2-3.1-2.5ZM60.2 173.6H60c-1.2-.4-2.4-1-3.4-1.6a7.6 7.6 0 0 1-3.6-6c-.2-4 2.4-8.2 5-10.5 8.2-7 16.7-5.7 20.3-3.9 2.2 1.1 4.7 3.7 4.5 7.6 0 .2 0 .3-.2.4-.1 0-.3.1-.4 0a19.2 19.2 0 0 0-17.9 4.1c-4 3.9-4.2 7.2-3.6 9.3a.5.5 0 0 1-.5.6Zm11.4-22.4c-3.8 0-8.4 1.2-12.9 5-3 2.6-4.9 6.5-4.7 9.7.1 2.2 1.2 4 3.1 5.3l2.4 1.2c-.3-2.4.2-5.7 4.1-9.4 5.2-5 12.7-5.8 18.2-4.5-.1-3-2.1-5-3.9-6-1.4-.7-3.7-1.3-6.3-1.3ZM93.6 164.7h-.3l-2.9-1.8a.5.5 0 0 1-.2-.6s1.4-5-1.5-9.9a.5.5 0 0 1 0-.6l7-7.3c.2-.2.4-.2.5-.2l.4.4 1.8 8.8-.1.4-4.2 5c.2.8.6 3.3 0 5.5a.5.5 0 0 1-.5.3Zm-2.3-2.5 2 1.2c.4-2.1-.2-4.4-.2-4.5l.1-.4 4.2-5-1.6-7.6-6 6.3c2.4 4.5 1.8 8.8 1.5 10ZM525.3 192.2a.5.5 0 0 1-.4-.4l-7.5-42.2h-22.3c-1 0-1.8-.8-1.9-1.8l-1.7-31.8a.5.5 0 0 1 1 0l1.7 31.8c0 .4.4.8.9.8h22.8c.2 0 .4.2.5.4l7 40.1 8.3-39c0-.3.3-.4.5-.4l25.5-.1c.5 0 .8-.4.8-.8l3.5-60.6a1.5 1.5 0 0 0-1.6-1.6L502.1 91l-.8 6c0 .3-.3.5-.5.5a.5.5 0 0 1-.5-.5l-.9-5.8-7.2.6a1 1 0 0 0-.9 1l.9 16.9c0 .2-.2.5-.5.5a.5.5 0 0 1-.5-.5l-.9-16.8c0-1.1.8-2 1.9-2.1l7.6-.6c.3 0 .5.1.5.4l.5 2.9.4-3c0-.3.2-.4.4-.5l60.7-4.5a2.5 2.5 0 0 1 2.7 2.7l-3.5 60.6c0 1-.8 1.7-1.8 1.7h-25l-8.9 41.2c0 .3-.2.4-.5.4Z"/><path class="e" d="M491.2 101.1a.5.5 0 0 1-.5-.5l-.4-7.6c0-1.1.8-2 1.9-2.1l7.6-.6c.3 0 .5.1.5.4l.5 2.9.4-3c0-.3.2-.4.4-.5l60.7-4.5a2.5 2.5 0 0 1 2.7 2.7l-.4 8c0 .2-.2.4-.5.4l-72.9 4.4Zm8.2-9.8-7.2.6a1 1 0 0 0-.9 1l.4 7.2 72-4.3.3-7.6a1.5 1.5 0 0 0-1.6-1.6L502.1 91l-.8 6c0 .3-.3.5-.5.5a.5.5 0 0 1-.5-.5l-.9-5.8Zm65.1-3ZM508.5 137.2c-.4 0-.9-.3-1.1-.7-.3-.4-.3-.9-.1-1.3l16-31.5c.3-.4.7-.7 1.2-.7s1 .3 1.2.7l16.4 31.1c.3.5.2 1.1 0 1.6-.3.4-.8.7-1.4.7h-32.2Zm-.8-1.8.5.2a.4.4 0 0 0 .3.6h32.2c.2 0 .4-.2.5-.3v-.6l-16.4-31.1c0-.2-.2-.2-.3-.2 0 0-.2 0-.3.2l-16 31.4-.5-.2Z"/><path class="e" d="m522.7 112.5 3.7-.1-1.1 12.3h-1.6l-1-12.2z"/><path class="e" d="M523.7 125.2a.5.5 0 0 1-.5-.4l-1-12.2a.5.5 0 0 1 .5-.6l3.7-.1c.2 0 .3 0 .4.2l.1.3-1.1 12.3c0 .3-.3.5-.5.5h-1.6Zm-.5-12.2 1 11.2h.6l1.1-11.3-2.7.1ZM523 129c.3-1 1.7-1.2 2.6-.4.9 1 .6 2.1 0 2.5-.6.6-1.4.5-2 0-.7-.4-1-1.3-.7-2Z"/><path class="e" d="M524.6 132c-.4 0-.9-.1-1.3-.4a2.2 2.2 0 0 1-.8-2.8c.2-.6.8-1 1.5-1.1.7-.2 1.4 0 1.9.6.5.4.8 1 .8 1.7a2 2 0 0 1-.7 1.5 2 2 0 0 1-1.4.5Zm-1.2-2.7c-.3.5 0 1.1.4 1.4.3.2 1 .5 1.5 0 .2 0 .3-.4.4-.7 0-.3-.1-.7-.5-1-.3-.3-.7-.4-1-.3a1 1 0 0 0-.8.6ZM603.7 237.1l-11.3-1.5a.5.5 0 0 1-.5-.5 760.6 760.6 0 0 0-.7-10.1l.4-.2 8.6 1.2c.2 0 .3.1.4.3l3.6 10.2a.5.5 0 0 1-.5.6Zm-10.8-2.5 10 1.4-3.1-9-7.7-1.1.8 8.7ZM580.1 234.7l-9-1.2a.5.5 0 0 1-.4-.4c0-.2-.8-16.1-9.1-33a.5.5 0 0 1 .9-.5c7.6 15.6 9 30.4 9.2 33l8 1-1.2-10.7a.5.5 0 1 1 1-.2 98.2 98.2 0 0 1 1 12h-.4Z"/><path class="e" d="M611 247h-.5l-17.5-2.7a.5.5 0 0 1-.5-.4 420 420 0 0 0-1.4-18.5.5.5 0 0 1 .5-.6l7.8 1-14.7-41.8-5 6.7a132.6 132.6 0 0 1 8.4 52.8h-.3l-21.6-3.1a.5.5 0 0 1-.4-.5 57.5 57.5 0 0 0-6.1-26.5l-4.3 4.6a39 39 0 0 1 4.7 21.3c-.1.1-.3.2-.4.1l-22.6-3.3c-1-.1-1.7-.7-2-1.6s-.2-1.9.4-2.6l28.8-35.7.4-.2a73.7 73.7 0 0 1 8.9 25.7l4.7.6a92.6 92.6 0 0 0-10.5-30 .5.5 0 0 1 0-.5l16.5-20.4c.7-.8 1.7-1.2 2.7-1 1 .1 1.8.8 2.2 1.7l25.8 69.3c.5 1.3.2 2.9-.7 4-.8 1-2 1.6-3.2 1.6Zm-17.5-3.6 17.1 2.5c1.1.2 2.2-.2 3-1.1.6-.9.8-2 .4-3l-25.8-69.3c-.2-.6-.7-1-1.4-1.2-.6 0-1.3.2-1.7.7l-16.3 20.2a93.9 93.9 0 0 1 10.5 31c-.1 0-.3.2-.4.1l-5.8-.7a.5.5 0 0 1-.5-.4c0-.2-1.3-12.6-8-24.8l-28.4 35.1c-.3.5-.4 1-.2 1.6.2.6.7 1 1.3 1l22 3.3c0-4.1-.3-13.1-4.9-20.2a.5.5 0 0 1 0-.6l5-5.3c.1-.2.3-.2.5-.2l.3.2a58 58 0 0 1 6.6 27.2l20.6 3a132 132 0 0 0-8.6-52.2l5.7-7.6c.1-.2.3-.2.5-.2s.3.2.4.3l15.2 43.5a.5.5 0 0 1-.5.7l-8-1.1a791 791 0 0 1 1.4 17.5Z"/><path class="e" d="m553.5 233-9-1.1a.5.5 0 0 1-.3-.8l3.2-4.6-4.2-3.4a.5.5 0 0 1 0-.7l3.8-4.8a.5.5 0 0 1 .7 0c6 6.3 6.3 14.6 6.3 15a.5.5 0 0 1-.5.5Zm-8-2 7.5 1c-.2-2-1-8.3-5.6-13.3l-3.2 4 4.2 3.3c.2.2.2.5 0 .7l-3 4.3ZM559.8 239.4a.5.5 0 0 1-.5-.5c.1-3.7 0-13.3-4.9-20.7a.5.5 0 0 1 0-.6l5-5.3c.1-.2.3-.2.5-.2l.3.2a47.7 47.7 0 0 1 3.6 8.5l-3.5 18.2c0 .3-.3.4-.5.4Zm-4.4-21.4a35.5 35.5 0 0 1 4.8 16.1l2.6-13.3a51.5 51.5 0 0 0-3.1-7.4l-4.3 4.6ZM488 187.8c-.1 0-.2 0-.3-.2l-3.2-3.2a.5.5 0 0 1 0-.5c0-.1.4-1 1.3-1.7l-1.6-.5a.5.5 0 1 1 .3-1l2.9 1a.5.5 0 0 1 0 .9c-1 .1-1.6 1-2 1.4l2.6 2.6 10-9.1-.9-1.7a.5.5 0 1 1 1-.5l.9 2.2c0 .2 0 .4-.2.5l-10.4 9.7-.4.1Z"/><path class="e" d="M498.6 231a2.2 2.2 0 0 1-2.1-1.6l-17-51.1a.5.5 0 0 1 .9-.3l17 51.1c.1.3.3.6.6.7s.7.2 1 0l54.7-20.5.7-.8-49 11h-.3a.5.5 0 0 1-.2-.3l-5.4-31.2v-.2a37.3 37.3 0 0 1 4-10c2.2-2 5.4-3.6 6.5-4.1l-.4-4.3a19 19 0 0 0-10.1 4.9.5.5 0 1 1-.7-.7 20 20 0 0 1 11.2-5.3l.3.1.2.4.5 5.1c0 .2 0 .4-.3.5 0 0-4 1.9-6.4 4-.3.5-2.3 3.9-3.8 9.6l5.3 30.5 49.7-11.3c.2 0 .5 0 .6.2v.6l-1.7 2-.2.2-54.8 20.6-.8.1Z"/><path class="e" d="M482.2 176.3s-.2 0-.3-.2a.5.5 0 0 1 0-.7c2.4-2.2 6-5.2 10-7h.5c.2.1 3.3 2.4 5.6 7a.5.5 0 0 1-.9.4 19.8 19.8 0 0 0-5-6.4 40.2 40.2 0 0 0-9.9 6.9ZM552.3 262.4l-41.1-6.2a.5.5 0 1 1 .1-1l41 6.2a.5.5 0 0 1 0 1Z"/><path class="e" d="m646 327.6-155.9-26a.5.5 0 0 1-.4-.5l-3.6-44c0-.2.1-.4.3-.4l6.8-4 .3-.1 11.7 1.7a.5.5 0 1 1-.1 1l-11.6-1.7-6.4 3.8 3.6 43.2 154.9 26 1.7-43.4-3.8-7.1-51.3-7.7a.5.5 0 0 1-.4-.6c0-.3.3-.4.5-.4l51.6 7.7c.2 0 .3.2.4.3l4 7.4v.3l-1.7 44a.5.5 0 0 1-.5.5Z"/><path class="e" d="m552.3 262.4-41.1-6.2a.5.5 0 1 1 .1-1l41 6.2a.5.5 0 0 1 0 1Z"/><path class="e" d="m544.8 267-58.3-9.4a.5.5 0 0 1-.1-1l6.8-4h.3l11.7 1.7a.5.5 0 1 1-.1 1l-11.6-1.7-5.4 3.2 56.8 9.2c.3 0 .4.3.4.5 0 .3-.3.5-.5.5ZM599.6 319.9a.5.5 0 0 1-.5-.5v-44.1a.5.5 0 1 1 1 0v44c0 .3-.2.6-.5.6Z"/><path class="e" d="M539 309.7a.5.5 0 0 1-.5-.5l-1.3-43.8a.5.5 0 0 1 1 0l1.2 43.8c0 .3-.2.5-.4.5ZM608.8 307.5h-.2a.5.5 0 0 1-.3-.5v-18.7a.5.5 0 0 1 .9-.3l11.3 10.5a.5.5 0 0 1 0 .8l-11.4 8.1h-.3Zm.5-18V306l10.1-7.2-10-9.3ZM624.4 309.2h-.2a.5.5 0 0 1-.3-.5v-17.6a.5.5 0 0 1 .8-.4l11.8 10.1a.5.5 0 0 1 0 .8l-11.8 7.6h-.3Zm.5-17v15.6l10.4-6.7-10.4-9ZM563.4 302.6a.5.5 0 0 1-.5-.5v-19.7a.5.5 0 0 1 .8-.4l14.3 12.3a.5.5 0 0 1 0 .8l-14.4 7.4-.2.1Zm.5-19.1v17.8l13-6.7-13-11.1ZM503.8 288a.8.8 0 0 1-.7-.7l-.5-14.3-1 .9c-.3.3-.8.3-1 0a.7.7 0 0 1 0-1.1l2.2-2c.2-.2.5-.3.8-.2.2.1.4.4.4.7l.6 16c0 .4-.4.7-.8.8ZM517.3 290.7h-.6c-3-.3-6.5-3-6.8-9.6-.1-3.2.8-6 2.5-7.8a5.4 5.4 0 0 1 4.2-1.6c4.9.2 7 5.4 7 10.2 0 3.4-1 5.9-2.6 7.4-1 1-2.3 1.4-3.7 1.4Zm-5.9-9.6c.3 5.6 3.1 7.9 5.4 8 .9.2 2.1 0 3.2-1 1.3-1.1 2-3.3 2-6.3.1-2.9-1-8.4-5.4-8.6a4 4 0 0 0-3.1 1.2c-1.4 1.4-2.2 3.9-2 6.7Z"/><path class="e" d="M518 298.3c-1 0-2 0-3-.3l-18-3.2.2-1.5 18 3.3c3.5.6 6.4 0 8.5-1.5 1.6-1.2 2.7-3 2.9-5 0-.5.4-.8.8-.7.4 0 .7.4.7.8a8.7 8.7 0 0 1-3.5 6.1c-1.3 1-3.4 2-6.6 2Z"/><path class="e" d="m501.4 297.9-4.3-3.8 3.9-3.1.4 6.9z"/><path class="e" d="M501.4 298.7c-.2 0-.4 0-.6-.2l-4.2-3.9a.7.7 0 0 1 0-1.1l4-3a.8.8 0 0 1 1.2.5l.3 6.9a.7.7 0 0 1-.7.8Zm-3.1-4.6 2.2 2-.2-3.6-2 1.6ZM590.4 375.6c-.1 0-.3 0-.4-.2-.1-.2 0-.5.2-.7a24 24 0 0 0 6.3-5.3c-1.5-.4-6.8 1.6-10 3a.5.5 0 0 1-.6-.7c1.5-3.3 2.9-7.3 2.5-8-.7 0-4.3 4.2-7.6 9.4a.5.5 0 0 1-.8 0c-1.9-2.6-4-4.8-4.6-4.7-.4.3.3 3.1 1.4 5.8a.5.5 0 1 1-.9.4c-.8-1.8-2.4-6-1-7 .1-.2.4-.3.7-.2 1.4.2 3.7 3.1 4.7 4.5 2.7-4 6.9-9.9 8.7-9 1 .6.4 3.3-1.6 8 2.5-1 7.8-3.1 9.5-2.4.3.2.5.5.6.8.1 1.5-4.7 4.9-6.8 6.3h-.3Z"/><path class="e" d="m562.2 373-.3-.2-6.2-5.8a.5.5 0 0 1 .5-.9l6.2 2.3c-2-8.2-.9-8.5-.5-8.6.4 0 1.3-.3 6.9 7.6v-53.1a.5.5 0 0 1 .6-.5l7 1.2c.3 0 .4.2.5.4L582 371c0 .3-.1.6-.4.6a.5.5 0 0 1-.6-.5L576 316l-6.1-1V369a.5.5 0 0 1-1 .3 55.5 55.5 0 0 0-6.5-8.4c-.2 1 .5 5 1.3 8.2a.5.5 0 0 1-.6.6l-4.8-1.8 4.4 4.2a.5.5 0 0 1-.4.8Z"/><path class="e" d="M545.4 358.8c-2.3 0-4.4-.3-5-1.4-.2-.5-.2-1.3.8-2.4a84 84 0 0 1 15.4-10.3l2.7-1.6 2-27.4a.5.5 0 1 1 1 0l-2 27.7-.2.4-3 1.7a83.3 83.3 0 0 0-15.2 10.2c-.2.3-.7.8-.5 1.2.3.7 2.8 1.5 9.9.4 9-1.4 16-3.6 17.5-4.2v-38.8a.5.5 0 1 1 1 0v39.2c0 .2-.2.4-.4.5a110.4 110.4 0 0 1-24 4.8ZM570.7 275c-.4 0-.8 0-1.1-.3a243 243 0 0 1-8.3-8.5l-17.4 4.5c-.2 0-.4 0-.5-.2a9 9 0 0 1-1-3.3c0-.2 0-.4.3-.5l17.5-6.5c1.8-3.4 3.8-5.9 4.8-7 .7-.8 1.9-1 2.8-.6 7.8 3.7 12 7 13 7.8l37-10-3.8-8.7-13.7-36.8a.5.5 0 0 1 .9-.5l30 48.5c.5.7.5 1.5.3 2.2-.3.8-.9 1.3-1.6 1.6L571.2 275h-.5Zm-9.3-9.8.4.1s5 5.4 8.5 8.6c.1.2.4.2.6.2l58.7-18.4a1.5 1.5 0 0 0 .8-2.3L603 209.2l12 32.2 4 9a.5.5 0 0 1-.4.8l-37.8 10.2-.5-.1s-4.3-3.7-13-7.8c-.5-.3-1.1-.1-1.5.3a37.4 37.4 0 0 0-5 7.2l-17.4 6.5c0 .5.3 1.4.7 2.2l17.2-4.5h.1Zm-.8-4.6Z"/><path class="e" d="M560.6 261a.5.5 0 0 1-.2-.9l4.6-1.7c.3-.1.6 0 .7.3s0 .5-.3.6l-4.7 1.7h-.1ZM618.4 251.2a.5.5 0 0 1 0-1l1.2-.4a.5.5 0 0 1 .3 1l-1.3.3h-.2ZM617.6 375.6c-.3 0-.5 0-.7-.2a85.3 85.3 0 0 1-19.1-17.9c-.3-.4-.5-.8-.5-1.3l-.9-37.3a.5.5 0 0 1 .6-.5l8.8 1.5c.2 0 .4.2.4.4l2.2 27.9a.5.5 0 1 1-1 0l-2.2-27.4-7.8-1.3.9 36.6c0 .3 0 .6.3.8a84.2 84.2 0 0 0 19.1 17.6l.1-.2c-.8-3.2-3-10.4-9-23a.5.5 0 0 1 1-.3c5.9 12.6 8.1 19.8 9 23 .1.5 0 1-.5 1.4l-.7.2ZM279.9 328.8l-3.7-.1c-14.8-.7-27-5.7-31-12.8-2-3.4-2-7-.2-10.8 2.8-5.5 12.1-9.5 23.7-10.3.3 0 .5.2.6.5 0 .3-.2.5-.5.5-11.3.7-20.3 4.6-22.9 9.8a9.8 9.8 0 0 0 .1 9.8c4 6.8 15.8 11.6 30.2 12.3 21.6 1 31.9-7.1 32.3-15.2.3-7.3-8.7-15.2-29.7-16.6a.5.5 0 0 1 0-1 49 49 0 0 1 24 6.7c4.5 3 6.9 7 6.7 11-.4 8-9.9 16.2-29.6 16.2ZM483 267.7h-.1L326 243a.5.5 0 0 1 .1-1L483 266.8a.5.5 0 0 1 0 1ZM548 254.6h-.1l-109.7-13.4a.5.5 0 1 1 .2-1L548 253.6c.3 0 .5.3.4.6 0 .2-.2.4-.4.4ZM402 236.7h-.1l-39.4-4.8a.5.5 0 1 1 .1-1l39.4 4.8c.3 0 .5.3.4.6 0 .3-.2.4-.5.4ZM530.2 237.1 394.7 224a.5.5 0 0 1-.4-.5c0-.3.3-.5.5-.5l135.5 13.2a.5.5 0 0 1 0 1ZM535.5 227l-17.3-1.3c-.3 0-.5-.3-.5-.6s.3-.4.6-.4l17.2 1.4a.5.5 0 0 1 0 1ZM490.1 223.5l-79.7-6.3a.5.5 0 0 1-.5-.6c0-.2.3-.5.6-.4l79.7 6.3a.5.5 0 0 1 0 1ZM486.9 215.6l-57.7-4.2a.5.5 0 0 1 0-1l57.7 4.2a.5.5 0 0 1 0 1ZM523.8 211.8l-16.6-1a.5.5 0 0 1-.5-.6c0-.3.2-.5.6-.5l16.5 1a.5.5 0 0 1 0 1ZM486.4 209.5l-32.9-2a.5.5 0 0 1-.4-.6c0-.3.2-.5.5-.5l32.8 2a.5.5 0 0 1 0 1ZM540 207.4l-34.8-1.9a.5.5 0 0 1-.5-.5c0-.3.3-.5.6-.5l34.7 2a.5.5 0 0 1 0 1ZM485.9 204.4l-20.8-1.1a.5.5 0 0 1-.5-.5c0-.3.3-.5.6-.5l20.7 1.1a.5.5 0 0 1 0 1ZM555.1 202.8l-48.4-2.1a.5.5 0 0 1-.5-.5c0-.3.2-.5.5-.5l48.4 2a.5.5 0 0 1 0 1ZM482.2 199.6l-6.3-.3a.5.5 0 0 1-.5-.5c0-.3.2-.5.5-.5l6.4.3a.5.5 0 0 1 0 1ZM559.2 197.7l-54-2a.5.5 0 0 1-.6-.5c0-.3.3-.5.6-.5l54 2a.5.5 0 0 1 0 1ZM516.3 191.8l-9.7-.2c-.3 0-.5-.2-.5-.5s.3-.5.5-.5l9.8.2a.5.5 0 0 1 0 1ZM562.3 189l-27.1-.2c-.3 0-.5-.2-.5-.5s.2-.5.5-.5l27 .3a.5.5 0 0 1 0 1ZM420.6 248.4H419c-6.9-.3-16.5-2.8-16.4-7.5.2-3.4 6.2-6 13.8-5.8 10 .2 17.3 2.7 18.3 6.4.3 1.1 0 2.1-.7 3-2.1 2.8-8.2 4-13.5 4Zm-4.6-12.3c-6.6 0-12.2 2.2-12.3 4.8 0 3.5 8 6.2 15.5 6.5 5.4.2 12.1-1 14.2-3.4.5-.7.7-1.4.4-2.3-.8-3-8.1-5.4-17.3-5.6h-.5ZM587.8 243.6a.5.5 0 0 1-.5-.5c-1.6-31-11-49-11-49.1v-.6l2.5-3.1a.5.5 0 1 1 .8.6l-2.3 2.9a133 133 0 0 1 11 49.2c0 .3-.2.6-.4.6ZM251.1 180.5h-.3a44 44 0 0 1-7.5-7.4.5.5 0 1 1 .8-.6 43 43 0 0 0 7.3 7.1.5.5 0 0 1-.3 1ZM560.1 192.8l-25.8-.6a.5.5 0 0 1-.4-.5c0-.3.2-.5.5-.5l25.7.6a.5.5 0 0 1 0 1ZM525.5 195h-1.3c-5.1-.3-5.9-2-6-2.7 0-.3 0-.7.5-1.2 1-1.1 4-1.6 6.4-1.5l.3.1.3-.1c2.9.2 5 .9 5.8 1.9.3.4.3.8.3 1-.1.6-1 2.5-6.3 2.5Zm-1-4.4c-2.2 0-4.4.5-5.1 1.2l-.2.4c.1.7 1.5 1.6 5 1.8 6.1.3 6.6-1.6 6.6-1.7l-.1-.2c-.5-.6-2-1.3-5-1.5l-.3-.1h-.9ZM500.2 189.5a.5.5 0 0 1-.2-1l23.5-7.2a.5.5 0 1 1 .3 1l-23.5 7.2h-.1Z"/><path class="e" d="M288 255a.5.5 0 0 1-.2-1L485 193.1c.3 0 .6 0 .7.3 0 .3-.1.6-.4.6l-197 60.8h-.2ZM498.5 399.7h-.1a.5.5 0 0 1-.3-.7l30-88.2c.1-.2.4-.4.7-.3.3.1.4.4.3.6L499 399.3c0 .2-.3.4-.5.4ZM547.1 257.4h-.2a.5.5 0 0 1-.3-.7l5.6-16.3c0-.3.3-.4.6-.4.3.1.4.4.3.7l-5.5 16.3c0 .3-.3.4-.5.4ZM567.3 198.1h-.1a.5.5 0 0 1-.3-.6l.6-1.9c0-.2.4-.4.6-.3.3.1.4.4.3.6l-.6 1.9c0 .2-.3.3-.5.3ZM571.5 185.9h-.2a.5.5 0 0 1-.3-.7l5.8-17a.5.5 0 0 1 1 .3l-5.8 17c-.1.3-.3.4-.5.4ZM527.7 181a.5.5 0 0 1-.1-1l43.9-13.5c.2 0 .5 0 .6.3 0 .3 0 .6-.3.7l-44 13.5ZM572.8 256.2h-.2a86.8 86.8 0 0 0-6-3.3l.8-9.9c0-.2.2-.4.5-.4s.5.2.5.5l-.7 9.4h.1l4.5 2.4v-12.2a.5.5 0 1 1 1 0v13a.5.5 0 0 1-.5.5ZM601.6 269.8h-.1l-5.8-.9a.5.5 0 0 1-.4-.5v-1.6c0-.2 0-.4.3-.5l5.5-1.7a.5.5 0 0 1 .6.4l.4 4.3c0 .1 0 .3-.2.4h-.3Zm-5.4-1.8 4.8.7-.2-3-4.6 1.5v.8ZM595.5 257.4a.5.5 0 0 1-.5-.5l-.2-10.4c0-.3.2-.5.4-.5.3 0 .5.2.6.4l.2 9.8 4-1-.9-10.3a.5.5 0 1 1 1-.1l.9 10.7c0 .2-.2.5-.4.5l-5 1.4h-.1ZM561.4 269.6l-8.3-1.3a.5.5 0 0 1-.4-.6c0-.2.3-.4.6-.4l8.2 1.3c.3 0 .5.3.4.6 0 .3-.2.4-.5.4Z"/><path class="e" d="m647.8 283.6-64-10.4a.5.5 0 0 1-.5-.5c0-.3.3-.5.6-.5l63 10.2-3.4-6.3-51.3-7.7a.5.5 0 0 1-.4-.6c0-.3.3-.4.5-.4l51.6 7.7c.2 0 .3.2.4.3l4 7.4a.5.5 0 0 1-.5.8Z"/><path class="n" d="M298.4 86.5a.5.5 0 0 1-.5-.6l2.2-10.7c0-.3.3-.5.6-.4.3 0 .4.3.4.6L298.9 86c0 .2-.2.4-.5.4Z"/><path class="n" d="M294.2 83.3a.5.5 0 0 1-.3-.9l5.8-4.4a.5.5 0 0 1 .6.8l-5.8 4.4-.3.1Z"/></svg>
