<svg width="499" height="100" fill="none" xmlns="http://www.w3.org/2000/svg"><g clip-path="url(#a)"><path d="M499 0v100H19.3L0 39.3 431.2.7 499 0Z" fill="#FCA9CB"/><path d="M188 45.8 168.4 91l-84.3-6.7-8.8-3.2 16.4-41 91.2 2.3 5.1 3.4Z" fill="#EBB432"/><path d="m168.4 91-84.3-6.7-8.8-3.2 88 6.5 5.1 3.4Z" fill="#CE8D1B"/><path d="m147.5 93.3-4.2-1.5 2.8-1s-8.3-1.2-9-1.5c-.6-.2-5.8-3.5-9.1-4.4-3.3-1-8-1-8-1s8.8-2.7 10.5-4.3c3.4-3.3 4.8-6.3 4.8-6.3 0-3.9-3.8-9.5-5.5-10-1.6-.5-6.2 2.6-7.2 3.4-1 1-8.3 10.6-8.3 10.6a33.2 33.2 0 0 0-6-14.3c-1.3-.6-5.6 1.2-6.8 2-1.2.7-3.7 5.6-4 6.5-.1 1 1.3 5.2 2.5 6.8 1.3 1.7 6.2 4.3 6.2 4.3-1.3 1-10 4.6-10 4.6l2.4 5.7s5.6-4.2 6.6-5.2l3-3.1c3.2 1.8 6.8 1 6.8 1l2 2.3c1 1.2 6.6 6.6 6.6 6.6l4.6-2.6-4-3.3 5.4 1c.4.3 5.6 4.3 7 4.6l7.5 1.7-1.6-2 5-.6Zm-44.2-19.1.7-6.1s4.4 8.2 5.8 13.1c0 0-2.8-2.4-6.5-7Zm13.4 9.5-2-1.5 6.8-7.8 4.6-4.6 2 7.5s-7.9 5-11.4 6.4Z" fill="#E1557A"/><path d="M120 70c-2.5 3-5.7 7.3-5.7 7.3-.1-1.2-.4-2.5-.8-3.8l1.1-2.9c.2-.4-.3-3.8-.4-4.5v-5.6c0-.4 3-4 3.3-4.3.2-.3 2.7-11.5 2.9-12.3.2-.7 2.2-3 2.2-3l6 .2-4.4 11.3a79 79 0 0 0-1 5.8c-.1.5-2.7 3.2-3.3 3.7l-.5 2.5.5 5.6Z" fill="#E1557A"/><path d="m303.7 58.8-4 28.7-40.6 8-89.2-7.9 11.4-26.4 2.9-6.6 17-2.2 102.5 6.4Z" fill="#EBB432"/><path d="M185 95.5s4.5-2.7 5.4-2.8c1-.1 5 1 5.5 1l1.4-.3s2.7-8.5 3-9c.4-.5 4.7-3.7 4.7-3.7l7 .3c.6 0 1.7 3.6 1.8 4v6.5L207 91l-.5-5.1-4 9.4c-.2.7-3.4 1.8-3.8 2l-4 .2-1-1.9L190 97l-.5-2-4.5.5Z" fill="#E1557A"/><path d="M303.7 58.8 260.1 68l-78.8-6.8 2.9-6.6 17-2.2 102.5 6.4Z" fill="#CE8D1B"/><path d="M276.1 92.2s1.7-4.6 2.9-6c1.1-1.4 4.9-3.9 5.6-4.2l8.7-1c.7.8 1.7 6.6 1.7 6.6s2.2 2 2.6 2c.5-.1 10.6-1 11.5-.7.8.3 4 2.9 4 2.9l-4.7-.1 1 1s-6.9-.9-8-.8c-1 0-6.8 1.3-7.3 1.2a15 15 0 0 1-3.7-2.2c-.2-.3-1.4-5.4-1.6-6.3-.1-.3-.4-.6-.7-.9 0 0-3.1 2.4-3.6 3-.5.7-1.9 4.2-1.9 4.2" fill="#E1557A"/><path d="M219 45.1s1.4 2.1 2 3.8l-2.8 2.7 6 .2s-.3-5.3-3.3-9.4l8.9-12s5 10 5.1 22l4.8.4s-.6-15.2-7-26.4l9.1-12.6c.7-1 2.3-.7 2.6.4l13 42a2 2 0 0 1-2 2.5l-8.5-.5s.1-3-.3-5.2l4.5.3-9.3-32.8-4.5 6.3s6.5 13.7 6.5 31.2l-12-1.1s1-10.1-3.1-18.4l-3.6 4.4s2.9 5.3 2.6 13.6l-12.7-.9a2.3 2.3 0 0 1-1.5-3.7l5.5-6.8Z" fill="#AD6CAA"/><path d="m299.3 18.3-.4-2-6 2.3-.1-.8 4.7-4.4-1.3-1.2L290 17l-1.9.3.4-5.4-2-.2c-.6 2.6-1.4 7.4-1.4 7.4l-32.4 22.2.5 1.5 34.4-18.1 5.6-1.3 4.3 1.2.8-1.7-5.3-1.7 6.3-2.8ZM242.2 57.8l.3 8.7 2.9.2-1.6-8.7-1.6-.2ZM226.3 56.5l-1.8 8.4 2.7.3.5-8.7h-1.4ZM198.8 12.8l-.2-3.6-.2-3.1-2-.3-.4 5-1.7-.5-5-4.2-1 1.1 3.8 4.1-.2.5-6-1.3-.4 1.3 5.7 1.9-.4 1-4.4 1 .4 1.3 4.3-.5 4.5 1 27.6 21.7.9-1.2-25.3-25.2Z" fill="#AD6CAA"/><path d="M281.3 37.4h3.6l-2.2 5.2-1.4-5.2Z" fill="#E1557A"/><path d="m297.6 38.2-1-3.3 2.8-1.2 1.1 3.3-3 1.2Z" fill="#F58452"/><path d="m308.5 28.7 4.8-.5 1.2 5.2 4.1-.7-.1 3.7h2.9l-.8-6.1-4.8.4-1-5-6 .3-.3 2.7Z" fill="#E1557A"/><path d="M315.3 45.4c0 1.2 1.1 1.4 1.6 1.4s1.3-.2 1.4-1.3c0-.6-.6-1.3-1.4-1.4-.8 0-1.5.6-1.6 1.3Z" fill="#EBB432"/><path d="m313.7 57.1 3.2-.2.8 2.7-3.4 1-.6-3.5Z" fill="#E1557A"/><path d="m327.5 30 2 3.3 4.7-2.2-6.7-1Z" fill="#F58452"/><path d="M323 16.1v2.6l-2.9.3-.4-2.8h3.2Z" fill="#EBB432"/><path d="m313.2 11.5-2.8 2.2-1.7-6.8 4.5 4.6ZM258 16.5l1.3 4 4.2-3-2-3.2-3.4 2.2Z" fill="#F58452"/><path d="M250.8 11h4.1l-1.8-3.2-2.3 3.2ZM148.7 21.5c-1.2.6-1.1 1.8-.5 2.4.5.7 1.8.9 2.5 0 1-1.3-.7-3-2-2.4Z" fill="#E1557A"/><path d="m163.6 29.3 6.2-1.3.2-5 5 1 .7 2-4-.7-.3 4.9-6.7 1.2-1-2.1Z" fill="#F58452"/><path d="m189.2 27.1 2-.2-.1 2.7 1.8-.2.4 5 3.7-.3.8 4.4-1.9 1-.7-3.5-3.2.7-.6-5.1-2 .3-.2-4.8Z" fill="#E1557A"/><path d="m180.7 20.9.9 6.8 2.8-5.5-3.7-1.3ZM204.6 10c.2 1.7 2.6 1.5 2.8.3.1-.8-.2-1.6-1-1.7-1-.2-1.8.2-1.8 1.4Z" fill="#EBB432"/><path d="m209.5 14.6 3-2.7 1.5 1 1.8-2.8 1.4.6 1.3-2.6 1.8 1-2.1 3.8-1.7-1-2.1 3.4-1.5-1.6-1.5 2-2-1.1ZM152.2 15.8l-.8-1.8 3.4-1.7 1 2.2-3.6 1.3Z" fill="#F58452"/><path d="m161.7 4.6.8 6.4 3-4-3.8-2.4ZM177.3 7.2l4.5-1.5.5 3.1-2 .7-3-2.3Z" fill="#E1557A"/><path d="m172 15.1-3.8-4.6 5 2.3L172 15Z" fill="#F58452"/><path d="m166.1 17.5-3.6.1v2.1l3.5.2.1-2.4ZM292.8 42.5l-1.9 3 1 1.2-2.1 3.1 1.6 1.2 2.7-4.3-.8-1.3 2-2.8-3.4-5.1-1.3 1.4 2.2 3.6Z" fill="#EBB432"/><path d="M105.1 82s-6-.2-7-.1c-1.1 0-7.3 3-7.3 3S80 86.2 79.1 86.1c-.4 0-2.5-.8-4.6-1.5 2.5-.5 8.7-.7 8.7-.7l1 .3-9-3.2 1.4-3.3s-5.9.7-7.8 1.3c-2 .6-4.5 1.6-4.8 2.3 0 0 0 4 1 7.5l3.3.4c1.5.2 6.3 1.8 7.3 2.2 1 .3 2.9 1 4.2 1.1 1.2.1 4-.1 5.5-.5 1.5-.3 5.6-2.5 6.6-2.9 1-.4 4.6-1.3 4.6-1.3l-.2-.7 3.8-1.6c2.5-1.1 5.4-2.5 6-3 0 0-.3-.3-1-.6Z" fill="#E1557A"/><path d="m181.3 61.2-3.9 27-7.5-.6 11.4-26.4Z" fill="#CE8D1B"/><path d="m144.1 96.2-7.6-1.7c-1-.2-3.2-1.8-5.6-3.5l-1.4-1-3.1-.7a.3.3 0 0 1-.3-.3c0-.2.2-.3.4-.3 2.9.5 3.1.7 3.2.7.2 0 .6.4 1.6 1 1.6 1.3 4.4 3.3 5.3 3.5l6.8 1.5-1.1-1.3a.3.3 0 0 1 .2-.5l3.6-.5-2.9-1a.3.3 0 0 1 0-.6l1.7-.6c-2.4-.3-7.3-1-7.9-1.3l-1.3-.7c-1.9-1-5.4-3-7.8-3.7-3.3-1-8-1-8-1a.3.3 0 0 1 0-.7s8.8-2.6 10.4-4.1c3-3 4.5-5.7 4.7-6.1 0-3.9-3.7-9.3-5.2-9.7-1.4-.4-5.8 2.3-7 3.4a204.2 204.2 0 0 0-8.5 10.6.3.3 0 0 1-.3-.3 33.5 33.5 0 0 0-5.8-14c-1-.6-5.1 1-6.5 2a21 21 0 0 0-3.8 6.3c-.2.8 1.2 4.9 2.4 6.5 1.2 1.6 6 4.2 6 4.2l.2.2-.1.3c-1.2 1-8.2 4-9.7 4.6l2 5c1.2-1 5.4-4.1 6.2-5a186.7 186.7 0 0 0 3.4-3.1c3 1.7 6.6 1 6.7 1l.3.1 1.9 2.3 6.4 6.4 4-2.2-3.6-3a.3.3 0 1 1 .4-.5l4 3.3a.3.3 0 0 1 0 .5l-4.7 2.6h-.3a612.8 612.8 0 0 1-8.5-8.8c-.8 0-3.9.4-6.7-1l-2.8 3a135 135 0 0 1-6.9 5.2l-.2-.2-2.3-5.7c-.1-.1 0-.3.1-.4a106 106 0 0 0 9.5-4.3c-1.3-.7-4.7-2.7-5.8-4.1-1.3-1.7-2.7-6-2.5-7 .2-1 2.8-6 4-6.8 1.2-.7 5.7-2.7 7.2-2 1.5.6 5.1 8.7 6 13.8 1.7-2.2 7-9.2 7.9-10 .8-.7 5.6-4 7.5-3.5 2 .5 5.7 6.4 5.7 10.3v.2s-1.4 3-4.9 6.3c-1.2 1.2-6.3 3-9 3.8 1.7.1 4.3.4 6.4 1 2.5.7 6 2.7 8 3.8l1.2.7a150.7 150.7 0 0 0 9.2 1.6l-.2.3-2 .8 3.3 1.2a.3.3 0 0 1 0 .6l-4.5.5 1.3 1.6a.3.3 0 0 1-.3.5ZM116.7 84h-.1l-2-1.5a.3.3 0 0 1-.1-.5l6.8-7.8c.8-1 2.3-2.4 3.4-3.5a.3.3 0 0 1 .4.5l-3.3 3.4a1016 1016 0 0 0-6.6 7.6l1.6 1.1c3.1-1.3 9.8-5.4 11-6.2l-2-7.2a.3.3 0 1 1 .6-.2l2 7.5v.3c-.4.2-8 5-11.5 6.5h-.2Zm-7-2.5h-.1s-3-2.5-6.5-7.1l-.1-.2.7-6.2a.3.3 0 0 1 .5 0 86.8 86.8 0 0 1 5.7 13.5h-.1Zm-6-7.4c2.3 3 4.4 5 5.4 6.1-1.2-3.8-3.9-9-5-11l-.5 4.9Z" fill="#000"/><path d="M115 86a.3.3 0 0 1-.3-.4l-.6-7.9a12 12 0 0 0-5.6 7 .3.3 0 0 1-.6-.2c0-.2 1.4-5.4 6.3-7.5a.3.3 0 0 1 .5.2l.6 8.4a.3.3 0 0 1-.3.3ZM126.1 70.1l-.2-.1c-1-1.3-3.5-3-3.5-3a.3.3 0 0 1 .4-.5 20 20 0 0 1 3.6 3.1.3.3 0 0 1-.3.5ZM128.2 78.9a.3.3 0 0 1-.3-.3v-1.3a.3.3 0 1 1 .6 0v1.3l-.3.3ZM104 68.4l-.3-.1-2.4-3.2a.3.3 0 1 1 .5-.3l2.4 3a.3.3 0 0 1-.2.6Z" fill="#000"/><path d="M106.2 82.9a.3.3 0 0 1-.1-.6l3.6-1.4c.1 0 .3 0 .4.2 0 .2 0 .4-.2.4l-3.6 1.4h-.1ZM117.3 84.3a.3.3 0 0 1-.4-.3c0-.1.2-.3.4-.3a.3.3 0 1 1 0 .6Z" fill="#000"/><path d="M119 84h-1.7l1.4 1 .2-1Z" fill="#000"/><path d="M118.7 85.3h-.2l-1.4-1a.3.3 0 0 1 .1-.6l1.7-.1a.3.3 0 0 1 .3.4l-.2 1a.3.3 0 0 1-.3.3Zm-.5-1 .3.2v-.2h-.3ZM84.1 84.6l-9-3.2a.3.3 0 0 1-.1-.4l1.3-3.3a.3.3 0 0 1 .6.2l-1.2 3 8.6 3.1a.3.3 0 0 1-.2.6ZM90.8 85.1h-.2l-.1-.3c0-.1 1.1-.7 3.4-1.7a17 17 0 0 1 4-1.5h5.1c.2 0 .4.2.3.3 0 .2-.1.4-.3.4h-5a58.5 58.5 0 0 0-7.2 2.8Z" fill="#000"/><path d="M80.6 93h-.9c-1.1-.2-2.7-.8-3.8-1.1l-.4-.1c-.5-.2-5.7-2-7.3-2.1l-3.3-.5a.3.3 0 0 1-.3-.2 38.9 38.9 0 0 1-.9-7.8c.5-1 4.2-2.2 5-2.4 1.4-.4 4.7-.9 6.5-1.2.2 0 .3.1.4.3 0 .2-.1.3-.3.4-1.8.2-5.1.7-6.4 1.1-2.3.7-4.2 1.6-4.6 2 0 .7.1 4.2.9 7.2l3 .4c1.7.2 7 2 7.5 2.2l.4.1c1 .3 2.6.9 3.7 1 1.2.1 4.1-.2 5.5-.5 1-.2 3-1.2 4.7-2l1.7-.9 4.4-1.2-.1-.4c-.1-.1 0-.3.1-.4l3.9-1.6a59 59 0 0 0 5.6-2.7l-.6-.3a.3.3 0 1 1 .3-.6l1 .6a.3.3 0 0 1 0 .5c-.5.5-2.6 1.5-6 3l-3.6 1.6.1.4a.3.3 0 0 1-.2.4L92 89.5l-1.8.8a32 32 0 0 1-4.8 2.1c-1.2.3-3.3.6-4.8.6Z" fill="#000"/><path d="M79.3 86.5H79c-.4 0-2.3-.7-5-1.6l-4.3-1.3-4.6-.7a.3.3 0 1 1 0-.6l4.7.6 4.4 1.4 4.9 1.6 11.6-1.4a.3.3 0 0 1 0 .6c-1 .2-9.9 1.4-11.5 1.4ZM114.3 77.6a.3.3 0 0 1-.2-.5l5.5-7.2c-.1-1.1-.6-5-.5-5.6a66.8 66.8 0 0 1 .6-2.6l.4-.4c1.8-1.8 2.7-2.9 2.8-3.2 0-.4.6-4.5 1-5.8l4.2-11h-5.4c-.7.8-1.9 2.2-2 2.7l-.8 3.5c-1.6 6.7-2 8.7-2.2 8.9l-1 1.3c-.7.9-2.1 2.6-2.2 2.9a53.6 53.6 0 0 0 .4 10.2l-.4 1a.3.3 0 1 1-.6-.3l.4-1a50.4 50.4 0 0 1-.4-10c0-.3.5-1 2.3-3.2l1-1.2 2-8.7.9-3.5c.2-.9 2-3 2.3-3.2l.2-.1 6 .1a.3.3 0 0 1 .2.5s-4 10.1-4.3 11.3c-.3 1.1-1 5.1-1 5.7 0 .5-.8 1.4-3 3.6l-.3.3-.5 2.3a70.4 70.4 0 0 0 .5 5.7l-5.6 7.3-.3.2ZM163.3 88l-31.6-2.4a.3.3 0 0 1-.3-.3c0-.2.2-.3.4-.3l31.3 2.3 19.5-45c0-.2.3-.3.4-.2.2 0 .3.2.2.4l-19.7 45.2c0 .2-.1.2-.2.2ZM95.8 83l-20.6-1.6a.3.3 0 1 1 0-.6l20.6 1.5a.3.3 0 0 1 0 .7Z" fill="#000"/><path d="M168.4 91.3h-.1l-5.2-3.4a.3.3 0 0 1 .3-.5l5.2 3.3a.3.3 0 0 1-.2.6ZM185.7 54.7a.3.3 0 0 1 0-.6l15.5-2 10 .6c.2 0 .3.2.3.3 0 .2-.2.3-.3.3l-10-.6-15.4 2ZM260 68.3l-78.7-6.7a.3.3 0 1 1 0-.7l78.7 6.8 43.6-9.2c.2 0 .4.1.4.3 0 .1 0 .3-.2.3L260 68.3Z" fill="#000"/><path d="M201.9 63.3a.3.3 0 0 1-.3-.3l-.7-10.6c0-.2.2-.3.3-.3.2 0 .4 0 .4.3l.6 10.6c0 .2-.1.3-.3.3ZM259.1 95.9a.3.3 0 0 1-.3-.4l1-27.5c0-.2.1-.3.3-.3.1 0 .3.1.3.3l-1 27.5c0 .2-.1.4-.3.4ZM200 97a.3.3 0 0 1 0-.5c2-1 2.2-1.3 2.2-1.3a436.4 436.4 0 0 1 4.3-9.7c.2 0 .3.2.3.3l.5 4.9 6.2.5V85c0-.5-1.1-3.5-1.6-3.7-.1 0-.3-.1-.3-.3 0-.2.2-.3.4-.3 1 0 2.1 4.2 2.1 4.2a177.5 177.5 0 0 1 0 6.8l-.3.1-6.8-.5a.3.3 0 0 1-.3-.3l-.4-4-3.5 8.4c0 .2-.2.6-2.6 1.6h-.1Z" fill="#000"/><path d="M194.6 97.8c-.1 0-.2 0-.3-.2l-.7-1.6-3.5 1.3a.3.3 0 0 1-.5-.2l-.3-1.7-4.3.4c-.2 0-.3 0-.3-.2l.1-.3a40 40 0 0 1 5.6-3c.6 0 2.2.4 4 .8l1.5.4 1.1-.3 3-9a65.1 65.1 0 0 1 5-3.8l4.8.2a.3.3 0 1 1 0 .6L205 81c-2 1.5-4.3 3.3-4.5 3.6a163.2 163.2 0 0 0-3.2 9.1c-.1 0-1 .4-1.5.4l-1.6-.3c-1.2-.4-3.3-.9-3.8-.8-.5 0-2.5 1.1-4.1 2l3.1-.2c.2 0 .3 0 .4.2l.3 1.6 3.5-1.3c.1 0 .3 0 .4.2l.7 1.7a40 40 0 0 0 3.8-.2c.2 0 .4 0 .4.2 0 .1 0 .3-.2.4l-4.2.2Z" fill="#000"/><path d="M206.5 86.2a.3.3 0 0 1-.2-.6l5.5-4.8a.3.3 0 0 1 .4.4l-5.5 4.9h-.2ZM288 84h-.1c-1.1-1-2.9-1.8-3.2-1.7-.2 0-.3 0-.4-.2 0-.1 0-.3.2-.4.7-.3 2.9 1 3.8 1.8.1.1.1.3 0 .4l-.2.1Z" fill="#000"/><path d="M294.1 93.4c-.7 0-3.7-1.9-4-2.3l-1-4.2-.6-2.3-.4-.5c-1 .8-3 2.3-3.3 2.8-.4.6-1.5 3.1-1.9 4.1a.3.3 0 0 1-.5-.2 42 42 0 0 1 1.9-4.2c.5-.7 3.3-2.9 3.6-3.1.1-.1.3-.1.4 0 .4.4.7.7.8 1l.5 2.2 1 4c.3.4 3.1 2 3.5 2 .3.1 2.3-.3 3.8-.5l3.6-.6 7 .7-.3-.4c-.1-.1-.2-.2-.1-.4l.3-.1h3.7l-3.1-2.2c-.8-.2-10.7.6-11.3.7-.5 0-1.9-1.1-2.9-2.1v-.2c-.4-2.1-1.2-5.4-1.6-6.3l-8.5 1c-.7.4-4.4 2.8-5.5 4.1-1.1 1.3-2.8 5.8-2.8 5.9l-.4.2a.3.3 0 0 1-.2-.4c.1-.2 1.8-4.7 3-6.1a27 27 0 0 1 5.7-4.3l8.8-1h.3c.7 1 1.6 5.8 1.7 6.7 1 .9 2 1.8 2.3 1.8 0 0 10.6-.9 11.6-.6.8.3 3.7 2.7 4 3 .1 0 .2.2.1.3 0 .1-.1.2-.3.2l-3.8-.1.5.5c0 .1.1.3 0 .4a111.4 111.4 0 0 0-8.3-.7l-3.3.6a39 39 0 0 1-4 .6ZM243.8 58.3 242 58a.3.3 0 0 1-.3-.3c0-.2.2-.3.4-.3l1.3.1a81 81 0 0 0-6.4-31l3-4.3a.3.3 0 0 1 .6.3l-3 4.3a82 82 0 0 1 6.3 31.3h-.2Z" fill="#000"/><path d="M255.5 59h-.2l-8.4-.5a.3.3 0 0 1-.3-.3s.1-3-.3-5.2l.1-.2.3-.1 4 .3-9.2-32.5a.3.3 0 1 1 .6-.1l9.3 32.8v.3l-.4.1-4-.3c.3 1.8.2 3.8.2 4.6l8.2.5a1.6 1.6 0 0 0 1.7-2.1l-13-42c0-.4-.4-.7-.9-.8-.4 0-.9.1-1.1.5L233 26.4c6.3 11.2 7 26.2 7 26.3v.3h-.3l-4.8-.2a.3.3 0 0 1-.3-.4c0-10.4-4-19.4-4.9-21.5l-8.4 11.5a19 19 0 0 1 3.1 9.4v.2l-.3.1-6-.2a.3.3 0 0 1-.2-.6l2.7-2.5c-.4-1.2-1.2-2.5-1.6-3.1l-5.3 6.4a2 2 0 0 0-.3 2 2 2 0 0 0 1.7 1.2l12.2.9c.3-8-2.4-13-2.4-13.1-.1-.2 0-.3 0-.4l3.5-4.4.3-.1c.1 0 .2 0 .3.2a37.6 37.6 0 0 1 3 18.2l8.3.7a.3.3 0 1 1 0 .6l-8.6-.7-.2-.1v-.3s1-9.7-2.9-17.7l-3.1 3.8a29.4 29.4 0 0 1 2.4 13.9h-.3L215 56c-1 0-1.8-.6-2.2-1.5-.3-1-.2-2 .4-2.7l5.6-6.8h.5c0 .2 1.4 2.2 2 3.9l-.1.3-2.3 2.2 4.9.2c-.1-1.2-.6-5.5-3.2-9v-.3l9-12c0-.2.1-.2.2-.2s.2 0 .3.2c0 0 5 10 5.1 22l4.2.2a66.4 66.4 0 0 0-7-26.2l9.2-12.6c.4-.5 1-.8 1.7-.7.7.1 1.2.6 1.4 1.2l13 42a2.3 2.3 0 0 1-2.2 3Z" fill="#000"/><path d="M254.4 42.4a.3.3 0 0 1-.1-.6l33.1-17.5 5.7-1.3h.2l4 1.1.6-1-5-1.7a.3.3 0 0 1 0-.6l6-2.7-.3-1.3-5.6 2h-.3l-.2-.2v-1.1l4.6-4.1-.9-.8-6 4.5h-.1l-2 .4h-.2v-.3l.2-5.1-1.4-.2-1.3 7.2-.1.2-32.4 22.1c-.1.1-.3.1-.4 0a.3.3 0 0 1 0-.5l32.3-22 1.4-7.4c0-.2.2-.3.3-.3l2 .3c.2 0 .3.2.3.3l-.3 5 1.4-.2L296 12h.3l1.4 1.1a.3.3 0 0 1 0 .5l-4.7 4.3v.3l5.6-2.1a.3.3 0 0 1 .5.2l.4 1.9c0 .1 0 .3-.2.3l-5.5 2.6 4.5 1.4a.3.3 0 0 1 .2.5l-.8 1.6-.3.2-4.3-1.1-5.5 1.2-33.1 17.5h-.2ZM245.4 67l-3-.2a.3.3 0 0 1-.2-.3l-.4-8.7a.3.3 0 0 1 .4-.3l1.6.1c.2 0 .3.2.3.3l1.6 8.8a.3.3 0 0 1-.3.3Zm-2.6-.8 2.2.2-1.5-8.2h-1l.3 8ZM227.2 65.5l-2.7-.3h-.2v-.3l1.7-8.4c0-.2.2-.3.3-.3h1.4a.3.3 0 0 1 .3.4l-.5 8.6-.1.2h-.3Zm-2.3-.8 2 .1.4-8h-.7l-1.7 7.9ZM223.2 39.5l-.2-.1-27.5-21.7-4.4-.9-4.2.6c-.2 0-.3-.1-.4-.3l-.4-1.3v-.2l.3-.2 4.2-1 .2-.5-5.4-1.8-.2-.2v-.2l.4-1.3c0-.2.3-.3.4-.2l5.7 1.3v-.1l-3.7-4a.3.3 0 0 1 0-.4l1.1-1c.1-.2.3-.2.4 0l5 4 1.3.4.2-4.7.2-.2h.2l2 .3c.2 0 .3.1.3.2a48.3 48.3 0 0 1 .4 6.6l25.2 25.2c.1 0 .1.3 0 .4l-.8 1.1a.3.3 0 0 1-.3.2Zm-32.1-23.3 4.6 1h.1l27.4 21.5.5-.7-25.1-25-.1-.2a101.5 101.5 0 0 1-.4-6.5l-1.5-.2-.2 4.7a.3.3 0 0 1-.4.3l-1.8-.5h-.1l-4.7-4-.7.6 3.6 3.9.1.3-.2.5c0 .2-.2.3-.4.2l-5.7-1.3-.2.8 5.4 1.8.2.2v.2l-.4 1-.2.2-4 1 .1.7 4-.5ZM282.7 43a.3.3 0 0 1-.3-.3l-1.4-5.3a.3.3 0 0 1 .3-.4h3.6a.3.3 0 0 1 .3.5l-2.2 5.3-.3.1Zm-1-5.3 1 4 1.7-4h-2.7ZM297.6 38.5h-.1l-.2-.2-1-3.3c-.1-.2 0-.4.1-.4l3-1.2a.3.3 0 0 1 .3.2l1.1 3.3-.1.3-3 1.3h-.1Zm-.7-3.5.9 2.8 2.3-1-.8-2.7-2.4 1ZM321.4 36.8l-3-.1a.3.3 0 0 1-.2-.3V33l-3.6.6c-.2 0-.3 0-.4-.2l-1.1-5-4.6.5h-.2l-.1-.3.3-2.7c0-.2.1-.3.3-.3l6-.4c.2 0 .3.1.3.3l1 4.8 4.5-.4c.1 0 .3 0 .3.2l.8 6.2v.3h-.3Zm-2.6-.7h2.2l-.7-5.5-4.5.4c-.1 0-.3 0-.3-.2l-1-4.8-5.4.3-.3 2 4.5-.4c.1 0 .3.1.3.3l1.2 4.9 3.8-.7a.3.3 0 0 1 .3.3v3.4ZM316.8 47c-.3 0-1 0-1.4-.5-.3-.3-.4-.7-.4-1.2.1-.8 1-1.5 1.9-1.5 1 0 1.7 1 1.7 1.7 0 1-.6 1.5-1.7 1.6Zm0-2.6c-.6 0-1.1.5-1.1 1 0 .3 0 .5.2.7.2.3.7.4 1 .3.6 0 1-.2 1-1 0-.3-.4-1-1-1ZM314.3 60.8a.3.3 0 0 1-.3-.2l-.6-3.4a.3.3 0 0 1 .3-.4l3.2-.2c.2 0 .3 0 .3.2l.8 2.8v.2l-.2.1-3.4 1Zm-.2-3.4.5 2.7 2.7-.7-.6-2.2-2.6.2ZM329.4 33.6l-.2-.1-2-3.3a.3.3 0 0 1 .3-.5l6.8 1a.3.3 0 0 1 0 .7l-4.7 2.2h-.2Zm-1.3-3.1 1.5 2.4 3.5-1.7-5-.7ZM320.1 19.3a.3.3 0 0 1-.3-.2l-.4-2.9V16l.3-.1H323.1l.1.2.2 2.6c0 .2-.2.3-.3.3l-3 .3Zm0-2.8.3 2.2 2.3-.3v-2H320ZM310.4 14a.3.3 0 0 1-.3-.2L308.4 7a.3.3 0 0 1 .5-.3l4.5 4.6a.3.3 0 0 1 0 .5l-2.8 2.1h-.2Zm-1-6 1.2 5.1 2-1.6-3.3-3.5ZM259.3 20.7a.3.3 0 0 1-.3-.2l-1.2-3.9.1-.3 3.4-2.2a.3.3 0 0 1 .4 0l2 3.2c.1.2.1.4 0 .4l-4.2 3h-.2Zm-.8-4 1 3.2 3.6-2.5-1.8-2.6-2.8 1.9ZM250.8 11.3a.3.3 0 0 1-.2-.5l2.3-3.1.2-.2.3.2 1.8 3.1a.3.3 0 0 1-.3.5h-4Zm2.3-2.9-1.7 2.3h3L253 8.4ZM149.4 24.8a2 2 0 0 1-1.5-.7 2 2 0 0 1-.4-1.6c0-.4.3-1 1-1.3 1-.4 1.8 0 2.3.6.6.7.6 1.6.1 2.3-.4.4-.9.7-1.4.7Zm-.1-3.1a1 1 0 0 0-.5 0c-.4.3-.6.5-.7.9 0 .4 0 .8.3 1.1.2.3.6.5 1 .5.3 0 .7-.1 1-.5.4-.5.2-1.1 0-1.5-.3-.3-.7-.5-1.1-.5ZM164.7 31.7l-.3-.1-1-2.2v-.3l.2-.1 5.9-1.2.2-4.8a.3.3 0 0 1 .4-.3l5 1 .1.2.8 2a.3.3 0 0 1-.3.5l-3.8-.7-.2 4.5-.2.3-6.8 1.2Zm-.6-2.2.7 1.6 6.3-1.2.2-4.6a.3.3 0 0 1 .4-.3l3.5.7-.5-1.4-4.4-.9-.2 4.6c0 .2-.1.3-.2.3l-5.8 1.2ZM195.9 39.8a.3.3 0 0 1-.3-.2l-.7-3.3-2.9.7h-.2l-.2-.3c-.1-1.6-.3-4-.5-4.8a148.8 148.8 0 0 0-2 .3l-.1-.3-.1-4.8c0-.1 0-.3.2-.3l2-.2h.3l.1.3v2.3l1.4-.1a.3.3 0 0 1 .3.3l.4 4.7 3.4-.3c.2 0 .3.1.3.3l.8 4.3-.1.3-2 1-.1.1Zm-.7-4.2a.3.3 0 0 1 .3.3l.6 3.1 1.4-.7-.7-3.8-3.4.2a.3.3 0 0 1-.4-.3l-.4-4.7-1.5.2a.3.3 0 0 1-.3-.3v-2.3l-1.3.1.1 4.2 1.8-.3c.3 0 .4 0 .8 5l2.9-.7ZM181.6 28a.3.3 0 0 1-.3-.3l-.9-6.8a.3.3 0 0 1 .4-.3l3.7 1.3.2.2v.3l-2.8 5.4-.3.2Zm-.5-6.6.7 5.2 2.2-4.2-2.9-1ZM206 11.5c-.7 0-1.6-.4-1.7-1.5 0-.7.3-1.1.5-1.4.4-.3 1-.5 1.6-.3 1 .2 1.4 1 1.3 2-.1.8-1 1.2-1.7 1.2Zm-1-1.6c0 1 .8 1 1 1 .5 0 1-.2 1-.6.1-.4.1-1.2-.7-1.4-.4-.1-.8 0-1 .2-.3.2-.4.5-.3.8ZM211.4 16h-.2l-2-1.2a.3.3 0 0 1 0-.5l3.2-2.7h.4l1 .8 1.8-2.4c0-.2.2-.2.3-.2l1.1.5 1.2-2.3a.3.3 0 0 1 .4-.1l1.9 1a.3.3 0 0 1 .1.5l-2.2 3.7a.3.3 0 0 1-.4.1l-1.4-.8-2 3a.3.3 0 0 1-.5 0l-1.2-1.2-1.3 1.8h-.2Zm-1.4-1.5 1.3.9 1.3-1.9a.3.3 0 0 1 .5 0l1.2 1.3 2-3c0-.1.2-.2.4 0l1.3.7 2-3.2-1.4-.7-1.1 2.2c0 .2-.3.2-.4.2l-1.2-.5-1.7 2.6a.3.3 0 0 1-.4 0l-1.2-.8-2.6 2.2ZM152.2 16.1c-.1 0-.2 0-.3-.2l-.8-1.8c-.1-.1 0-.3.1-.4l3.4-1.7a.3.3 0 0 1 .4.1l1 2.3a.3.3 0 0 1-.2.4l-3.5 1.3h-.1Zm-.4-2 .6 1.3 2.9-1-.7-1.7-2.8 1.4ZM162.5 11.3a.3.3 0 0 1-.3-.3l-.8-6.3.1-.3h.3l3.8 2.3a.3.3 0 0 1 .1.4l-3 4c0 .1 0 .2-.2.2Zm-.4-6 .6 4.8 2.3-3-3-1.9ZM180.4 9.8h-.2L177 7.4l-.2-.4s.1-.2.3-.2l4.5-1.5h.2l.2.3.5 3c0 .2 0 .4-.2.4l-2 .7Zm-2.5-2.5 2.5 1.8 1.6-.5-.5-2.5-3.6 1.2ZM172 15.4h-.3l-3.7-4.7a.3.3 0 0 1 .3-.5l5 2.3a.3.3 0 0 1 .2.4l-1.3 2.4a.3.3 0 0 1-.3.1Zm-2.7-4 2.6 3.2 1-1.7-3.6-1.6ZM166 20.2l-3.5-.1a.3.3 0 0 1-.3-.4v-2c0-.2 0-.4.3-.4l3.6-.1h.2l.1.3-.1 2.4c0 .1-.1.3-.3.3Zm-3.2-.8 2.9.1v-1.7l-3 .1.1 1.5ZM291.4 51.3h-.2l-1.6-1.2a.3.3 0 0 1 0-.4l2-3-1-1v-.4l1.9-2.8-2.2-3.5v-.4l1.4-1.3.3-.1.2.1 3.3 5.1v.4l-1.8 2.6.7 1v.4l-2.7 4.3a.3.3 0 0 1-.3.2Zm-1.2-1.5 1.1.7 2.4-3.8-.7-1.2v-.3l1.8-2.6L292 38l-1 .9 2.2 3.5v.3l-1.8 2.7.9 1.1v.4l-2 2.9ZM231.9 54.6l-4.3-.2a.3.3 0 0 1-.3-.4c0-.2.2-.3.4-.3l4.2.3a.3.3 0 0 1 0 .6ZM246.9 55.6l-3.2-.2a.3.3 0 0 1 0-.7l3.2.2a.3.3 0 0 1 0 .7ZM295.8 88.6a.3.3 0 0 1 0-.6l3.7-.8 3.9-28-46.2-3a.3.3 0 0 1-.3-.3c0-.2.2-.3.4-.3l46.4 3a.3.3 0 0 1 .3.3l-4 28.6c0 .2 0 .3-.2.3l-4 .8ZM259.1 95.9 204.4 91a.3.3 0 1 1 0-.6l54.7 4.8 30.8-6c.2-.1.3 0 .4.2 0 .1-.1.3-.3.3l-30.8 6.1h-.1ZM198.3 90.5 170 87.9a.3.3 0 1 1 0-.6l28.5 2.5a.3.3 0 0 1 0 .7ZM116 87.1l-9.3-.7a.3.3 0 0 1-.3-.3c0-.2.2-.3.3-.3l9.3.7a.3.3 0 0 1 0 .6Z" fill="#000"/><path d="m168.4 91.3-33-2.6a.3.3 0 0 1 0-.7l32.8 2.7 19.4-44.8-4.8-3.2-91-2.2a.3.3 0 0 1-.4-.3c0-.2.2-.3.3-.4l91.2 2.3h.2l5 3.5c.2 0 .2.2.2.3l-19.6 45.2c0 .1-.1.2-.3.2ZM84.1 84.6l-9-3.2a.3.3 0 0 1-.1-.4l15.5-38.7a.3.3 0 0 1 .6.2L75.7 80.9l8.6 3.1a.3.3 0 0 1-.2.6Z" fill="#000"/><path d="M74.5 85a.3.3 0 0 1-.1-.6 88 88 0 0 1 8.8-.8l.3.3c0 .2-.1.4-.3.4 0 0-6.2.2-8.7.7ZM101.5 65c-.3.1-.7.6-1 1.2l1.8-.2-.8-1Z" fill="#000"/><path d="M100.4 66.5s-.2 0-.3-.2V66c.5-.7 1-1.1 1.2-1.3h.5l.8 1.1a.3.3 0 0 1-.2.5l-2 .2Zm1-1.1a4 4 0 0 0-.3.4h.6l-.2-.4ZM122.6 66.7l1.4 1h-2.3l.9-1Z" fill="#000"/><path d="M124 68h-2.3a.3.3 0 0 1-.2-.4l.9-1c0-.2.2-.2.4-.1l1.4 1a.3.3 0 0 1-.2.6Zm-1.6-.5h.6c-.1-.2-.3-.3-.4-.3l-.2.3ZM106.2 82.6l-1.3.7.2-1.3 1 .6Z" fill="#000"/><path d="m104.9 83.7-.2-.1a.3.3 0 0 1-.1-.3l.2-1.4.2-.2h.3l1 .6.2.2-.1.3a8.4 8.4 0 0 1-1.5.9Zm.5-1.2v.3l.2-.2-.2-.1ZM124.2 89l-.2-.1-7.4-5a.3.3 0 0 1 .3-.5l7.5 5a.3.3 0 0 1-.2.5Z" fill="#000"/><path d="M117.3 84.3a.3.3 0 0 1 0-.6l2.6-.2c.2 0 .3.1.3.3 0 .2 0 .3-.2.3l-2.7.2ZM115.4 75.8l-1 1.5-.4-1.8 1.4.3Z" fill="#000"/><path d="M114.3 77.6a.3.3 0 0 1-.3-.3l-.3-1.7a.3.3 0 0 1 .4-.4l1.4.3c.1 0 .2 0 .2.2v.3l-1.1 1.4-.3.2Zm.1-1.7.1.6.4-.5h-.5ZM212 81l-.8.7 1.5.2c-.3-.5-.5-.9-.7-.9Z" fill="#000"/><path d="M212.7 82.2 211 82a.3.3 0 0 1-.1-.5l.8-.7.2-.1c.3 0 .6.3 1 1a.3.3 0 0 1-.3.5Zm-.8-.7h.2v-.1h-.2ZM284.6 82l-1.2.7 2.7-.3c-.7-.3-1.3-.5-1.5-.4Z" fill="#000"/><path d="M283.4 83a.3.3 0 0 1-.2-.5l1.3-.8c.3 0 .9 0 1.7.5a.3.3 0 0 1 0 .6l-2.8.2ZM227.7 56.5h-1.4l-.1.7 1.4.2v-.9Z" fill="#000"/><path d="m227.6 57.7-1.4-.2h-.3v-.3l.1-.7c0-.2.2-.3.3-.3h1.4a.3.3 0 0 1 .3.4v.8a.3.3 0 0 1-.4.3Zm-1-.8.7.1V57h-.7ZM242.2 57.8l1.6.2.2.8h-1.8v-1Z" fill="#000"/><path d="m244 59.2-1.8-.2a.3.3 0 0 1-.3-.3v-.9a.3.3 0 0 1 .3-.3l1.6.1c.2 0 .3.2.3.3l.2.9a.3.3 0 0 1-.3.4Zm-1.5-.8 1 .1v-.3h-1v.2ZM223.2 39.2l.9-1.2-.4-.4-1 1.2.5.4Z" fill="#000"/><path d="m223.2 39.5-.2-.1-.5-.4a.3.3 0 0 1 0-.4l1-1.2a.3.3 0 0 1 .4 0l.4.4c.1 0 .1.3 0 .4l-.8 1.1a.3.3 0 0 1-.3.2Z" fill="#000"/></g><defs><clipPath id="a"><path fill="#fff" d="M0 0h499v100H0z"/></clipPath></defs></svg>
