<?xml version="1.0" encoding="UTF-8"?><svg id="a" xmlns="http://www.w3.org/2000/svg" width="1309.2" height="877.95" viewBox="0 0 1309.2 877.95"><path d="M96.04,416.88l.06,2.32-4.19,120.24s-11.55,15.11-16.59,25.77c-3.01,6.36-5.52,11.5,4.14,6.64,9.65-4.86,23.73-16.18,27.47-20.49,.52-.6,.98-1.25,.95-2.05l-1.63-54.44-1.02-33.94-1.36-45.32-7.83,1.29Z" fill="#fff"/><path d="M937.76,784.39l2.95-11.13c8.05-29.4,14.55-84.8,14.55-84.8l-10.52-8.98c-52,9.29-119.78,5.32-119.78,5.32,0,0,.93,58.75-11.76,108.27l7.12,17.33,49.21-4.64,8.13-.78,71.65,71.87c1.38,1.38,3.71,.19,3.4-1.73-2.51-15.2-9.2-55.8-14.94-90.73Z" fill="#fff"/><path d="M463.13,16.59s-5,.1-5,4.67c0,3.79-.53,143.3-.53,143.3,.21,7.03,4.92,6.25,4.92,6.25,0,0,539.71,19.81,544.08,19.5,4.36-.31,4.36-5.92,4.36-5.92l.81-126.34s0-6.41-6.42-6.87c-6.91-.49-542.23-34.59-542.23-34.59Z" fill="#fff"/><path d="M158.28,489.83l.26,41.54c5.66,5.52,20.15,21.67,23.05,26.64s4.69,7.04-9.11,2.48c-15.08-4.98-28.82-13.03-31.63-14.73-.33-.2-.51-.56-.48-.94l4.19-52.9s6.85,1.95,13.72-2.1Z" fill="#fff"/><path d="M159.15,433.59s-.25-2.23-2.74-3.59c-1.04,1.6-3.24,2.43-5.22,2.18-1.75-.22-3.17-1.23-3.83-2.6-3.33,1.06-4.26,3.13-4.26,3.13l-2.59,13.59-6.79,.33-2.12,20.88,5.03-.84-.43,2.26-2.48,13.03s-.3,5.36,6.03,8.47c7.32,3.59,20.92,2.05,22.46-6.67l-3.08-50.18Z" fill="#fff"/><path d="M83.34,485.86c-2.9-1.23-5.22,.33-6.58,1.72l1.01-15.59-11.85-15.17-4.98,65.18,14.1-8.06,1-15.39c3.03,4.94,7.74,3.19,9.31,.58,1.64-2.73,2.73-11.25-2.01-13.27Z" fill="#fff"/><path d="M102.59,472.83l8.12-20.71c.77,.51,1.62,.74,2.37,.67,1.84-.15,3.89-2.2,3.15-6.16-.27-1.41-1.06-2.55-2.13-3.17l3.49-8.91s1.61-1.91,5.58-1.85c.7,.79,1.73,1.45,3,1.91,1.48,.53,3.4,.82,4.84,.27,3.09,1.79,3.36,3.81,3.36,3.81,0,0-4.14,42.44-4.39,47.61s-7.38,11.04-18.91,8.01c-15.3-4.02-10.52-16.28-10.52-16.28l2.04-5.2Z" fill="#fff"/><path d="M188.68,350.34l47.94,36.66c1.3,.96,3.15,.09,3.24-1.52l6.76-117.1c.1-1.72-1.15-3.23-2.86-3.46-19.08-2.55-37.08-2.08-37.08-2.08,0,0-3.13,8.5-4.49,10.39s-6.09,3.31-6.09,3.31l.95,5.37s12.77,.82,14.44-7.89l-.16,7.91-.15,16.54c-4.07-8.15-9.21-6.04-9.21-6.04,0,0-6.25,1.13-9.39,6.14l1.78,4.28s5.02-1.57,7.1,.42,2.72,6.69,6.37,6.9,13.9,0,13.9,0l1.91,52-38.52-20.09-6.48-3.38,10.06,11.63Z" fill="#fff"/><path d="M1189.21,504.01l-1.9,60.23-6.03,25.77-86.08,6.58s-18.66-35.29-63.6-33.99c-57.02,1.64-76.76,54.83-76.76,54.83l-273.6,23.03s-11.49-52.57-71.83-50.99c-63.05,1.64-80.05,58.12-80.05,58.12l-61.96,4.93-72.92-97.05,5.8-362.95c.12-7.81,6.69-13.97,14.49-13.59l618.47,30.01,37.83-45.51,27.41,32.35,15.35-17.55,15.35,36.19,25.22-13.16,32.35,42.22-23.03,164.49,17.65,34.22" fill="#fff"/><path d="M145.55,436.41s2.82,2.82,7.57,1.93,5.9-3.21,6.03-4.62l2.41,39.11s-2.79,6.96-11.78,7.47-12.96-4.75-12.96-4.75l2.05-9.37-7.06,1.28,1.93-19.25,13.86-.51s-.51-1.67-1.67-1.67-2.57-.13-2.57-.13l2.18-9.5Z" fill="#b39ed3"/><path d="M1163.74,407.98l15.2-113.2-68.72-6.57-7-19.7-35.45,17.07-15.76-22.76-17.51,18.38-533.11-4.81-102.05-24.85-4.86,303.92,72.92,97.05,61.96-4.93c1.86-5.64,18.64-55.3,80.05-58.12,58.82-2.7,71.83,50.99,71.83,50.99l273.6-23.03c14.35-24.75,31.79-52.99,76.12-54.8,44.33-1.81,64.24,33.97,64.24,33.97l86.08-6.58,6.03-25.77,1.9-106-25.48-50.26Zm-31.07,108.78l-27.61,.2-.47,3.85c-1.6,1.16-5.65,1.03-5.65,1.03l-.24,2.08-5.1,.79s-3.96-.04-6.21,0c-2.25,.04-2.18-1.39-2.18-1.39l-.49-6.69c-36.41,0-92.64-4.3-92.64-4.3l-.73,5.33c-5.53,1.08-16.08-.47-17.92-.47s-1.99-1.48-1.99-1.48v-5.11l-8.13-.8-5.88-.82,17.22-162.97s39.09-8.4,76.17-8.33c37.08,.06,48.18,3.27,75.46,10.1l-14.76,58.34,21.97,26.1-.83,84.56Z" fill="#e7e1ec"/><path d="M974.65,345.99s39.09-8.4,76.17-8.33,48.18,3.27,75.46,10.1l-14.76,58.34,21.97,26.1-.83,84.56-27.61,.2,.68-5.75s.42-1.56-1.26-2.55-13.27-2.59-16.69-1.67c0,0-4.54,1.86-9.95,9.42h-2.97l-37.75-71.32s48.38-17.88,48.95-23.03c.48-4.25-45.79,11.58-45.79,11.58,0,0-4.08-16.04-13.42-12.75,0,0-7.63,.81-9.31,23.13,0,0-.87,2.78,4.45,2.34l-29.24,61.34-.16-2.73s.47-1.54-1.54-1.89-10.89-1.34-20.43,1.42c-5.31,1.54-7.33,5.3-7.33,5.3l-5.88-.82,17.22-162.97Z" fill="#b39ed3"/><path d="M118.6,438.21s1.67,3.47,7.19,4.11,7.7-1.28,8.47-2.95l-3.81,37.82s-3.12,8.12-13.64,7.23-13.53-9.1-13.53-9.1l15.32-37.11Z" fill="#b39ed3"/><path d="M68.27,459.94l9.5,12.06-1.37,18.24s2.42-3.22,6.04-2.42,3.63,7.45,2.22,10.07-4.23,6.04-8.46,.6l-1.21,15.31-12.08,7.25,5.36-61.12Z" fill="#b39ed3"/><path d="M143.56,284.91l62.76-3.27,7.32,4.43-5.39,5.97-63.91,5.2s-3.66-1.54-3.85-5.78,3.08-6.55,3.08-6.55Z" fill="#b39ed3"/><polygon points="696.81 76.87 696.81 85.59 477.41 76.56 477.72 67.52 696.81 76.87" fill="#b39ed3"/><path d="M262.11,812.45l-149.71,56.6c-1.55,.59-2.87-1.28-1.79-2.54l94.56-111.28-.34-4.46c-1.59-27.01-6.09-60.11-6.09-60.11,5.55-4.73,11.1-6.9,13.31-7.64,.62-.21,1.28-.25,1.92-.13,50.51,9.45,96.08,32.67,102.39,35.98,.47,.24,.78,.7,.84,1.23,5.18,46.42,3.61,100.32,3.61,100.32-1.85,3.44-13.77,12.31-13.77,12.31-22.77-11.12-39.99-18.4-39.99-18.4l-4.94-1.86Z" fill="#f58452"/><path d="M407.14,219.9c-.32,7.98,1.25,12.58,3.36,12.89s4.15-5.25,4.32-12.04c.21-7.82-1.16-12.24-3.46-12.47-2.16-.22-3.94,4.69-4.22,11.62Z" fill="#e1557a"/><path d="M420.95,221.18c-.32,7.98,.92,13.67,3.6,13.84,2.31,.14,4.11-4.69,4.4-12.9s-.66-12.65-3.46-12.97c-2.52-.29-4.26,5.1-4.54,12.04Z" fill="#ebb432"/><path d="M436.02,223.85c-.36,9.73,1.84,13.34,3.96,13.48,2.23,.14,4.59-3.82,4.83-13.48,.22-8.58-1.6-12.82-3.89-13.05-2.16-.22-4.61,5.19-4.9,13.05Z" fill="#ad6caa"/><path d="M547.43,213.36c15.96-.55,23.8,11.42,23.38,20.63s-7.96,18.67-22.15,17.88-20.63-12.65-19.67-21.05c1.12-9.72,8.53-17.13,18.43-17.47Z" fill="#e1557a"/><path d="M605.48,215.28c19.12,.83,19.4,18.43,18.71,23.11s-5.5,15.13-20.08,14.31c-7.02-.4-17.28-4.81-17.61-18.43-.28-11.42,8.7-19.43,18.98-18.98Z" fill="#ebb432"/><path d="M685.39,237.29c-.96,14.86-14.63,17.37-23.38,16.09-7.57-1.1-17.61-7.15-17.19-20.36,.25-8.09,6.05-19.12,20.5-18.02,12.65,.96,20.74,12.09,20.08,22.28Z" fill="#ad6caa"/><path d="M198.74,509.21l45.26-13.45,7.5,1.03s4.51,55.5,18.36,85.09l-40.35,18.88h-10.86s-7.29-17.12-12.6-39.19c-3.83-15.91-5.77-33.86-7.31-52.36Z" fill="#f58452"/><path d="M882.76,810.1l65.27,65.48s4.31,5.94,4.17-3.49-17.41-104.52-17.41-104.52c0,0-4.08-8.76-17.5-11.65-9.72-2.09-23.13,2.97-28.55,10.2-16.65,22.2-5.97,43.98-5.97,43.98Z" fill="#f58452"/><path d="M59.5,377.23l-12.62-5.16-15.21,25.39s-1.72,2.35,1.11,3.72l9.78,4.71,16.94-28.65Z" fill="#ad6caa"/><path d="M118.11,268.69l104.64,121.06s1.28,2.84-1.14,3.32-34.58,6.91-34.58,6.91l-11.53-3.79,1.81,5.73-39.87,7.42-17.84-4.54,1.68,7.55-45.16,8.65s-1.71,.2-3.98-.89c-2.27-1.09-16.07-7.73-16.07-7.73l12.25-31.54,11.15-28.71s-.29-1.73-3.82-2.19l-12.66,21.42s-2.06-4.62-5.87-9.27l-2.56-2.83h0l23.73-39.62,19.63,6.32,2.57,1.82s-4.65-11.85-12.37-19.35l-2.24-1.91,22.73-37.47s.58-1.03,2.06-1.03h5.71s1.08-.08,1.76,.69Z" fill="#ad6caa"/><path d="M125.61,482.75c-.88,.6-6.5,3.72-14.34,.53-4.89-1.99-7.06-5.56-7.99-7.96l-3.47,8.44c.18,1.73,.81,3.82,2.56,5.66,4.92,5.16,13.15,6.8,19.84,5.02,6.69-1.78,7.54-6.72,7.54-6.72l.7-10.53c-1.11,2.27-3.95,4.96-4.84,5.56Z" fill="#584774"/><path d="M136.82,475.56s1.92,4.48,11.16,4.68,13.58-7.4,13.58-7.4l.67,10.94s-1.34,8.49-13.76,8.48-14.6-7.71-14.73-10.28l3.08-6.42Z" fill="#584774"/><path d="M137.72,452.48l4.88-.55s.74,5.47-1.5,8.58l-4.49,.41,1.1-8.44Z" fill="#584774"/><path d="M122.28,429.74c-.47,2.06,1.21,3.92,3.88,4.89,2.27,.82,5.6,1.08,6.6-1.46,.56-1.41-.97-3.84-3.67-4.97-3.46-1.44-6.43-.15-6.81,1.54Z" fill="#584774"/><path d="M156.84,426.66c1.07,3.68-2.57,5.9-5.65,5.52s-5.13-3.21-3.85-6.16c.57-1.32,2.4-2.34,4.6-2.37s4.28,.88,4.9,3.01Z" fill="#584774"/><polygon points="49.15 445.44 71.84 454.7 70.96 463.46 65.73 456.61 65.12 461.65 49.41 454.19 49.15 445.44" fill="#e7e1ec"/><path d="M32.25,438.6l-24.05-9.86v11.65s9.39,1.12,22.68,5.75l1.37-7.54Z" fill="#e7e1ec"/><path d="M8.13,488.03s6.85,1.81,13.9,5.03l-.6,5.64-13.49-8.86,.2-1.81Z" fill="#e7e1ec"/><path d="M151.28,406.57l7.48-1.44-.38,26.48-1.63-1.53s2.25-5.69-4.01-6.69c-1.19-.19-2.39,.14-2.98,.42l1.52-17.23Z" fill="#fff"/><path d="M101.01,347.1s23.76,16.39,36.42,62.25l-17.84-4.54s-4.46-21.13-23.67-39.42l5.09-18.29Z" fill="#8d5494"/><path d="M54.55,359.26l12.45,5.36-4.03,6.74s-4.31-8.69-8.43-12.09Z" fill="#8d5494"/><path d="M73.86,367.09l10.48,4s15.62,7.81,23.43,30.67l-21.72,4.95,5.14-17.72-11.05-3.43-11.84-4.74,5.55-13.74Z" fill="#8d5494"/><path d="M85.86,306.51l16.77,3.24s36.72,21.24,53.41,79.76l-13.18,3.02s-8.77-38.64-42.37-64.75c0,0-3.33-11.28-14.62-21.26Z" fill="#8d5494"/><path d="M119.3,288.56l76.62,94.52-13.86,2.31,4.96,14.59-11.53-3.79s-8.25-28.31-27.31-53.92c-18.83-25.3-34.46-36.96-34.46-36.96l5.58-16.75Z" fill="#8d5494"/><polygon points="590.85 115.82 590.23 141.69 613.91 131.1 590.85 115.82" fill="#e7e1ec"/><polygon points="665.65 119.56 666.27 144.5 689.96 134.21 665.65 119.56" fill="#e7e1ec"/><path d="M463.13,16.59s-5,.1-5,4.67c0,3.79-.53,143.3-.53,143.3,.21,7.03,4.92,6.25,4.92,6.25,0,0,539.71,19.81,544.08,19.5,4.36-.31,4.36-5.92,4.36-5.92l.81-126.34s0-6.41-6.42-6.87c-6.91-.49-542.23-34.59-542.23-34.59Zm258.79,151.97c0,2.42-2.02,4.35-4.44,4.24l-239-11.12c-1.94-.09-3.47-1.69-3.47-3.64v-61.57c0-2.63,2.2-4.73,4.83-4.6l237.95,11.37c2.31,.11,4.13,2.02,4.13,4.33v60.99Zm266.61-69.56l-511.12-22.44,.31-9.04,511.12,22.13-.31,9.35Z" fill="#e7e1ec"/><path d="M1154.41,201.27l-25.22,13.16-15.35-36.19-15.35,17.55-27.41-32.35-37.83,45.51-620.13-29.99c-6.01-.02-12.49,6.09-12.63,11.41l-1.15,61.18,102.05,24.85,533.11,4.81,17.51-18.38,15.76,22.76,35.45-17.07,7,19.7,68.72,6.57,7.88-51.65-32.39-41.86Zm-739.59,19.48c-.18,6.79-2.21,12.34-4.32,12.04-2.11-.3-3.68-4.9-3.36-12.89,.28-6.93,2.06-11.84,4.22-11.62,2.3,.23,3.67,4.65,3.46,12.47Zm14.13,1.37c-.29,8.22-2.09,13.05-4.4,12.9-2.69-.17-3.92-5.86-3.6-13.84,.28-6.93,2.02-12.33,4.54-12.04,2.8,.32,3.73,5.16,3.46,12.97Zm15.86,1.73c-.24,9.66-2.59,13.62-4.83,13.48-2.13-.14-4.32-3.75-3.96-13.48,.29-7.86,2.74-13.26,4.9-13.05,2.3,.23,4.11,4.47,3.89,13.05Zm126,10.14c-.41,9.22-7.96,18.67-22.15,17.88-14.86-.83-20.63-12.66-19.67-21.05,1.12-9.72,8.53-17.13,18.43-17.47,15.96-.55,23.8,11.42,23.38,20.63Zm53.37,4.4c-.69,4.68-5.5,15.13-20.08,14.31-7.02-.4-17.28-4.81-17.61-18.43-.28-11.42,8.7-19.43,18.98-18.98,19.12,.83,19.4,18.43,18.71,23.11Zm61.21-1.1c-.96,14.86-14.63,17.37-23.38,16.09-7.57-1.1-17.61-7.15-17.19-20.36,.25-8.09,6.05-19.12,20.5-18.02,12.65,.96,20.74,12.09,20.08,22.28Z" fill="#584774"/><path d="M485.86,310.42l-12.97,163.1c-.12,1.45-1.73,2.26-2.96,1.47l-65.67-41.84c-.57-.37-.91-1.01-.89-1.69l4.51-142.23c.04-1.25,1.25-2.14,2.45-1.79l74.13,20.97c.89,.25,1.47,1.09,1.4,2.01Z" fill="#fff"/><path d="M523.18,437.74l12.96-143.6c.09-.97,.91-1.71,1.89-1.7l225.74,4.04c1.08,.02,1.92,.95,1.82,2.03l-11.92,133.6c-.13,1.43-1.31,2.53-2.74,2.57l-225.45,5.52c-1.35,.03-2.43-1.12-2.31-2.46Z" fill="#fff"/><path d="M524.44,459.64l86.38-.36c.58,0,1.03,.5,.97,1.07l-5.66,51.26c-.05,.48-.46,.85-.95,.86l-82.13,1.43c-.55,0-1-.44-.98-.99l1.41-52.34c.01-.52,.44-.94,.96-.94Z" fill="#fff"/><path d="M522.26,528.59l80.12-1.43c.58-.01,1.04,.49,.98,1.06l-4.94,49.79c-.05,.48-.45,.86-.94,.87l-75.18,2.15c-.55,.02-1-.42-1-.97v-50.51c0-.53,.42-.96,.95-.97Z" fill="#fff"/><path d="M632.66,461.8l104.8-3.56c.91-.03,1.64,.75,1.55,1.66l-10.7,105.95c-.07,.74-.67,1.31-1.41,1.35l-104.8,6.06c-.92,.05-1.68-.73-1.59-1.65l10.7-108.44c.07-.75,.69-1.33,1.45-1.36Z" fill="#fff"/><path d="M791.83,305.25l130.47,1.39c2.36,.03,4.22,2,4.11,4.36l-8.48,174.13c-.07,1.35-1.16,2.41-2.51,2.44l-139.93,3.15c-2.34,.05-4.2-1.95-3.97-4.28l17.28-178.48c.15-1.55,1.46-2.73,3.03-2.72Z" fill="#fff"/><path d="M776.47,515.84l127-4.63c3.16-.12,5.73,2.53,5.52,5.69l-4.17,62.6c-.12,1.73-1.5,3.1-3.22,3.2l-133.8,7.97c-2.52,.15-4.6-1.96-4.41-4.47l4.57-62.14c.33-4.51,4-8.05,8.52-8.21Z" fill="#fff"/><path d="M531.33,347.38l38.39,63.11,39.25-63.11,11.74,26.43,29.71-61.99,19.81,66.02,52.45-43.28,25.68,56.12,9.99-10.96-4.5,50.47s1.14,4.39-2.91,4.49-225.45,5.52-225.45,5.52c0,0-2.77,.75-2.32-3.33s8.17-89.49,8.17-89.49Z" fill="#e1557a"/><polygon points="772.89 472.26 890.98 469.64 892.29 453.66 774.36 457.15 772.89 472.26" fill="#ebb432"/><path d="M776,440.2c4.02,.11,85.43-1.2,85.43-1.2l1.09-18.82-84.72,1.33-1.81,18.69Z" fill="#ebb432"/><polygon points="779.12 407.98 803.87 407.98 804.97 389.76 780.88 389.76 779.12 407.98" fill="#ebb432"/><polygon points="782.43 373.76 845.89 374.66 846.99 355.18 784.23 355.18 782.43 373.76" fill="#ebb432"/><polygon points="785.55 341.55 887.48 341.55 889.23 322.79 787.28 323.69 785.55 341.55" fill="#ebb432"/><path d="M601.59,546.07l-9.12,17.45-3.74-8.31-8.18,12.74-7.2-20.5-23.27,19.11-10.87-19.11-17.91,20.5v12.11s-.3,1,1,.97,75.18-2.15,75.18-2.15c0,0,.81-.22,.94-.87,.32-1.69,3.17-31.94,3.17-31.94Z" fill="#ebb432"/><path d="M908.82,519.32l-4.01,60.18c-.11,1.73-1.5,3.1-3.22,3.2l-133.8,7.97c-2.52,.15-4.6-1.95-4.42-4.47l2.68-36.49h.01s3.88-5.05,8.27-5.05c11.16,0,16.09,31.55,28.57,31.55s28.36-34.22,38.18-35.01c10.94-.87,7.88,16.42,18.82,16.2,9.4-.19,31.08-38.27,48.92-38.08Z" fill="#f58452"/><path d="M522.33,503.13h0s-.27,9.79-.27,9.79c-.01,.55,.44,1,.99,.99l35.06-.61-18.89-31.02c-11.97,9.1-16.89,20.85-16.89,20.85Z" fill="#e1557a"/><path d="M598.28,481.31h0c-5.93-4.93-14.82-9.49-27.42-9.48,0,0,0,0,0,0l-2.21,41.29h0s10.53-.18,10.53-.18h0s19.1-31.62,19.1-31.62Z" fill="#ad6caa"/><path d="M606.13,511.62l2.01-18.2h0c-.15-.32-3.06-6.46-9.86-12.11h0s-19.1,31.62-19.1,31.62h0s26-.45,26-.45c.49-.01,.89-.38,.95-.86Z" fill="#584774"/><path d="M570.86,471.83c-13.73,0-24.08,4.7-31.64,10.45l18.89,31.02,10.53-.18h0s2.21-41.29,2.21-41.29Z" fill="#f58452"/><polygon points="406.78 323.95 464.31 346.4 462.11 376.95 417.39 357.96 417.39 342.3 406.34 337.75 406.78 323.95" fill="#e1557a"/><polygon points="484.79 323.95 407.59 298.13 406.78 323.95 464.31 346.4 465.25 332.13 483.58 339.13 484.79 323.95" fill="#ad6caa"/><path d="M484.79,323.95l-77.19-25.82,.28-8.9s.06-2.98,3.1-1.87,73.49,21.05,73.49,21.05c0,0,1.62,1.17,1.29,3.41s-.96,12.12-.96,12.12Z" fill="#b39ed3"/><polygon points="417.39 357.96 462.11 376.95 460.98 392.63 431.09 378.77 429.52 395.4 416.07 388.46 417.39 357.96" fill="#f58452"/><polygon points="444.14 384.82 460.98 392.63 458.53 426.68 441.42 418.3 444.14 384.82" fill="#ebb432"/><path d="M992.08,512.31l.68-4.63,27.46-57.59,3.45-7.24,10.01-4.04,41.19,77.59s-29.57-.78-38.35-1.37-44.44-2.71-44.44-2.71Z" fill="#ebb432"/><path d="M1103.85,483.55c3.34,.43,3.83,3.5,2.21,5.37s-4.28,2.37-6.13,2.08c-2.2-.35-3.25-2.28-2.29-4.36,1.03-2.23,3.61-3.42,6.2-3.09Z" fill="#584774"/><path d="M1022.01,446.34s-4.21-.05-4.33-1.19l-.12-1.15s1.01-23.5,12.09-23.5c5.52,0,8.62,6.8,10.65,13.12,0,0,41.79-15.22,45.79-11.58,3.24,2.95-48.95,23.03-48.95,23.03l-3.45-6.26-10.01,4.04-1.67,3.5Z" fill="#e1557a"/><path d="M1191.7,383.85l49.35,3.29s8.88,38.01,7.37,52.36c-2.41,22.93-29.61,68.18-29.61,68.18l-47.94-5.94,20.84-117.88Z" fill="#e7e1ec"/><polygon points="1191.7 383.85 1241.05 387.14 1218.8 507.68 1170.86 501.74 1191.7 383.85" fill="#fff"/><path d="M394.48,551.68h-27.33c-1.43,0-2.58,1.16-2.57,2.59l.28,29.24,59.82,112.24c.86,1.61,2.58,2.56,4.4,2.44l88.25-6.16s-.3-19.1,9.1-44.22l-59.03,4.7-72.92-97.05v-3.78Z" fill="#fff"/><path d="M681.23,640.45c6.52,22.42,7.86,44.35,7.86,44.35l263.49-22.8c.68-.06,1.22-.59,1.29-1.27l3.37-32.41c.12-1.16,.02-2.33-.3-3.45l-2.11-7.44-273.6,23.03Z" fill="#fff"/><path d="M1187.31,564.24c7.15,.42,15.14,1.43,20.03,2.11,2.59,.36,4.43,2.7,4.18,5.3l-4.99,51.24c-.32,3.29-2.93,5.9-6.22,6.22l-88.54,8.65c-1.37,.13-2.65-.71-3.09-2.02-6.32-18.75-14.25-30.5-18.27-35.68-1.02-1.31-.13-3.22,1.53-3.31l3.27-.17,86.08-6.58,6.03-25.77Z" fill="#fff"/><polygon points="447.76 626.38 453.68 558.35 474.22 577.72 467.4 652.52 447.76 626.38" fill="#fff"/><polygon points="395.19 511.06 410.63 524.1 409.84 575.92 394.48 555.47 395.19 511.06" fill="#fff"/><polygon points="449.75 603.49 469.91 624.94 467.4 652.52 447.76 626.38 449.75 603.49" fill="#e1557a"/><polygon points="394.68 542.53 409.51 558.35 409.84 575.92 394.48 555.47 394.68 542.53" fill="#e1557a"/><path d="M542.17,658.73l51.56,29.03c.39,.22,.85-.18,.68-.6l-21.84-54.45s-15.56,3.54-30.4,26.02Z" fill="#ad6caa"/><path d="M584.31,629.17l17.51,57.74c.2,.65,1.1,.69,1.36,.07l22.42-54.27s-18.81-7.78-41.29-3.54Z" fill="#584774"/><path d="M611.87,690.29l26.75-50.08s17.54,7.92,33.94,30.97l-59.71,20.27c-.7,.24-1.33-.5-.98-1.15Z" fill="#b39ed3"/><path d="M617.25,699.55l59.69-15.79s10.61,20.65,0,46.95l-59.79-30.24c-.41-.21-.34-.8,.1-.92Z" fill="#e7e1ec"/><path d="M611.77,710.06l56.97,35.64s-9.9,14.28-33.23,15.98l-23.74-51.62Z" fill="#fff"/><path d="M602.36,708.81l17.59,54.42s-19.37,3.25-40.87-6.51l22.08-47.99c.25-.54,1.02-.49,1.2,.07Z" fill="#ebb432"/><path d="M596.6,702.09l-33.36,46.87s-15.56-11.03-25.46-28.71l58.26-18.91c.45-.15,.83,.37,.55,.75Z" fill="#f58452"/><path d="M590.56,695.08l-55.46,13.15s-4.24-16.97,0-36.34l55.54,22.08c.54,.21,.48,.99-.08,1.12Z" fill="#e1557a"/><path d="M1069.65,714.54l-66.79-6.68s8.35-13.29,27.72-19.75l39.32,25.72c.34,.22,.15,.74-.25,.7Z" fill="#f58452"/><path d="M1042.73,683.94l35.45,27.41c.55,.42,1.34,.02,1.32-.68l-1.07-28.63s-19.75-3.8-35.69,1.9Z" fill="#e1557a"/><path d="M1089.82,682.42l-4.06,32.86c-.05,.4,.37,.7,.73,.52l47-22.75s-20.13-10.25-43.67-10.63Z" fill="#ad6caa"/><path d="M1095.12,718.16l48.23-22.83s20.51,8.73,28.48,29.24l-76.56-5.57c-.45-.03-.57-.64-.16-.84Z" fill="#e7e1ec"/><path d="M1104.12,728.09l44.55,25.72s19.75-4.56,21.64-17.85l-65.88-8.78c-.54-.07-.78,.65-.31,.92Z" fill="#b39ed3"/><path d="M1086.46,727.6l1.46,35.69s27.34,.38,44.05-4.56l-44.33-31.77c-.5-.36-1.2,.02-1.17,.63Z" fill="#b39ed2" opacity=".32"/><path d="M1077.17,729.07l-3.68,35.37s-18.61-1.9-42.53-13.67l45.35-22.3c.43-.21,.91,.13,.87,.6Z" fill="#fff"/><path d="M1066.5,722.75l-44.66,22.7s-17.85-10.25-20.13-28.1l64.68,4.86c.29,.02,.36,.41,.11,.54Z" fill="#ebb432"/><line x1="27.64" y1="504.47" x2="27.99" y2="510.4" fill="none" stroke="#584774" stroke-linecap="round" stroke-linejoin="round"/><path d="M34.39,505.66v8.65s.09,2.75,3.01,3.95" fill="none" stroke="#584774" stroke-linecap="round" stroke-linejoin="round"/><polygon points="68.16 517.88 67.34 531.96 47.43 516.68 44.11 514.07 43.94 508.39 61.3 518.64 60.89 522.26 68.16 517.88" fill="#e7e1ec"/><polyline points="8.2 488.09 8.2 490.01 21.89 499.13" fill="none" stroke="#584774" stroke-linecap="round" stroke-linejoin="round"/><path d="M116.23,446.64c.74,3.95-1.31,6.01-3.15,6.16s-4.33-1.31-4.57-4.91c-.12-1.78,.76-4.25,2.76-4.78,2.44-.65,4.49,1.05,4.96,3.53Z" fill="#b39ed3"/><path d="M160.06,448.32c1.47,2.14,5.65,.88,5.46-4.17-.11-2.85-1.3-4.46-2.83-4.98-1.86-.62-3.14,.74-3.14,.74l.52,8.4Z" fill="#b39ed3"/><path d="M474.22,695.04l-10.52,13.6c-.98,1.27-2.45,2.05-4.04,2.15l-84.43,5.44s-1.47-.03-2.75-1.23c-.16-.15-.32-.31-.47-.5-1.64-2.04-2.55-6.52,1.52-16.3,6.68-16.05,13.14-15.95,14.03-15.85h.1s26.66,.46,26.66,.46l3.5,.06,6.86,12.88s1.3,2.73,4.4,2.44c3.11-.29,45.14-3.15,45.14-3.15Z" fill="#e7e1ec"/><path d="M388.3,699.27c-4.17,11.73-12.27,18.67-15.74,15.72,0,0-.03,0-.08,.01-1.91-1.77-3.39-6.13,1.05-16.8,6.68-16.05,13.14-15.95,14.03-15.85h.1s6.59,.17,.64,16.92Z" fill="#b39ed3"/><path d="M182.87,781.45s13.18-6.97,27.46,13.78c13.2,19.18,6.89,34.19,6.89,34.19l63.08-23.85s7.13-5.43,5.48-30.43c-.62-9.47-4.02-22.65-11.05-32.53-22.03-30.94-42.62-18.33-42.62-18.33l-49.23,57.17Z" fill="#fff"/><path d="M949.75,683.76h0l-5.01-4.27c-52,9.29-119.78,5.32-119.78,5.32,0,0,.93,58.75-11.76,108.27l7.12,17.33,57.83-4.93-24.55-25.59c-12.95-19.2,.62-59.15,30.64-66.45,13.74-3.34,26.44-1.63,33.73,1.88,8.08,3.9,10,9.84,10,9.84l10.08,60.94c12.36-48.64,17.22-97.63,17.22-97.63l-5.51-4.7Z" fill="#f58452"/><path d="M177.07,556.83c-.18-10.07,9.63-18.16,9.63-18.16l-71.57,39.09v1.61h.28c.28,.41,.92,.62,.92,.62l72.34-1.18c-13.53-8.4-11.59-21.97-11.59-21.97Z" fill="#f58452"/><path d="M200.64,531.2l-13.94,7.47s-11.81,8.59-9.13,23.42,11.08,16.71,11.08,16.71l21.52-.58s-5.71-18.9-9.54-47.03Z" fill="#fffefd"/><path d="M231.59,518c8.83-4.45,14.05,18.23,16.12,27.03s6.5,30.23-2.01,32.24c-6.48,1.53-14.09-8.98-17.65-24-3.61-15.24-1.91-32.52,3.54-35.27Z" fill="#df5128"/><g><path d="M45.89,503.64c.52,1.7,1.74,3.07,2.36,3.79,2.12,2.46,3.67,4.62,6.3,3.4,2.63-1.22,4.6-3.61,4.6-3.61-6.91-7.88-5.63-25.88-5.63-25.88l-6.65-4.98,2.54-22.17,.27-.11-.75-.35,2.77-30.15,27.74-71.46c-.43-1.92-3.82-2.19-3.82-2.19l-37.6,63.6c-1.28,2.16-2.15,4.53-2.59,7l-4.53,25.64s-.02,0-.03-.01l-6.78,37.28-2.06,9.57c.21,.1,.33,.16,.33,.16-.13,1.15-.23,2.2-.3,3.25-.71,10.55-.71,11.02,0,12.09,.71,1.07,5.93,1.9,5.93,1.9l.27,2.69c.05,.54,.38,1.01,.87,1.25,2.65,1.32,11.25,5.53,12.85,5.53,1.9,0,5.45-3.2,5.45-3.2l-3.32-2.61-.59-19.91s1.91,8,2.37,9.48Z" fill="#fff"/><path d="M61.18,518.81l4.37-57.24-15.87-7.48-.27,.11-2.54,22.17,6.65,4.98s-1.29,18.01,5.63,25.88c0,0-1.97,2.39-4.6,3.61-2.63,1.22-4.18-.94-6.3-3.4-.62-.72-1.84-2.09-2.36-3.79-.46-1.48-2.37-9.48-2.37-9.48l.59,19.91-.17-5.68,17.24,10.42Z" fill="#fffefd"/><path d="M30.88,446.16c-1.61-.62-3.15-.99-4.62-1.18l.05-.15c-12.44-4.4-19.88-4.57-19.88-4.57l-.75,16.05h0c-.44,.83-.66,1.35-.66,1.35l-4.52,29.28c8.94,.32,19.56,5.14,21.54,6.07l2.06-9.57,6.78-37.28Z" fill="#fffefd"/></g><path d="M213.63,286.06l-5.39,5.97-63.91,5.2s-3.66-1.54-3.85-5.78c-.05-1.18,.16-2.22,.5-3.09,.88-2.26,2.58-3.46,2.58-3.46l62.76-3.27,2.8,1.7,4.51,2.73Z" fill="#b39ed3"/><path d="M209.12,283.33l-68.14,5.03c.88-2.26,2.58-3.46,2.58-3.46l62.76-3.27,2.8,1.7Z" fill="#fff"/><path d="M1001.72,717.35l2.48,.19-3.75-4.42-13.88,.35-1.56-1.91-31.34,2.17-.51,3.14,26.55-1.8,1.34,2.35-28.33,2.04-.86,5.7,50.68-3.8c-.35-1.29-.63-2.62-.8-4.01Z" fill="#584774" stroke="#584774" stroke-linecap="round" stroke-linejoin="round"/><line x1="1234.23" y1="479.11" x2="1279.74" y2="540.48" fill="none" stroke="#b39ed3" stroke-linecap="round" stroke-linejoin="round"/><path d="M1258.85,512.31s.3,37.73,0,46.04l-5.29,29.38" fill="none" stroke="#b39ed3" stroke-linecap="round" stroke-linejoin="round"/><polygon points="1254.88 506.96 1254.65 515.6 1258.93 525.54 1258.85 512.31 1254.88 506.96" fill="#b39ed3" stroke="#b39ed3" stroke-linecap="round" stroke-linejoin="round"/><line x1="1237.04" y1="377.63" x2="1244.94" y2="328.18" fill="#b39ed3" stroke="#b39ed3" stroke-linecap="round" stroke-linejoin="round"/><path d="M1166.46,388.54l31.64-34.34,26.12-60.9,29.35,49.64s21.72,.95,21.77,1.19" fill="none" stroke="#b39ed3" stroke-linecap="round" stroke-linejoin="round"/><line x1="1198.09" y1="354.2" x2="1243.07" y2="339.91" fill="none" stroke="#b39ed3" stroke-linecap="round" stroke-linejoin="round"/><path d="M1240.99,340.57c0-.48,.81-17.67,.81-17.67l3.14,5.29-1.87,11.73-2.08,.66Z" fill="#b39ed3" stroke="#b39ed3" stroke-linecap="round" stroke-linejoin="round"/><polyline points="1175.31 325.27 1224.21 293.3 1234.75 287.16 1240.37 234.11 1229.76 184.11 1203.72 119.32" fill="none" stroke="#b39ed3" stroke-linecap="round" stroke-linejoin="round"/><polyline points="1238.01 222.97 1279.44 190.38 1295.04 180.09 1308.7 158.22" fill="none" stroke="#b39ed3" stroke-linecap="round" stroke-linejoin="round"/><polyline points="1238.01 256.39 1234.75 247.13 1209.99 215.62 1229.76 184.11" fill="none" stroke="#b39ed3" stroke-linecap="round" stroke-linejoin="round"/><polygon points="1232.15 195.36 1226.73 188.93 1229.76 184.11 1232.15 195.36" fill="#b39ed3" stroke="#b39ed3" stroke-linecap="round" stroke-linejoin="round"/><polygon points="1234.75 247.13 1237.31 263.01 1238.01 256.39 1234.75 247.13" fill="#b39ed3" stroke="#b39ed3" stroke-linecap="round" stroke-linejoin="round"/><polygon points="1219.02 305.41 1225.82 296.02 1224.21 293.3 1219.02 305.41" fill="#b39ed3" stroke="#b39ed3" stroke-linecap="round" stroke-linejoin="round"/><line x1="1275.28" y1="343.9" x2="1284.2" y2="358.18" fill="none" stroke="#b39ed3" stroke-linecap="round" stroke-linejoin="round"/><line x1="1209.99" y1="215.62" x2="1196.38" y2="207.28" fill="none" stroke="#b39ed3" stroke-linecap="round" stroke-linejoin="round"/><path d="M1189.21,504.01l-1.9,60.23-6.03,25.77-86.08,6.58s-18.66-35.29-63.6-33.99c-57.02,1.64-76.76,54.83-76.76,54.83l-273.6,23.03s-11.49-52.57-71.83-50.99c-63.05,1.64-80.05,58.12-80.05,58.12l-61.96,4.93-72.92-97.05,5.8-362.95c.12-7.81,6.69-13.97,14.49-13.59l618.47,30.01,37.83-45.51,27.41,32.35,15.35-17.55,15.35,36.19,25.22-13.16,32.35,42.22-23.03,164.49,17.65,34.22" fill="none" stroke="#584774" stroke-linecap="round" stroke-linejoin="round"/><path d="M1191.7,383.85l49.35,3.29s8.88,38.01,7.37,52.36c-2.41,22.93-29.61,68.18-29.61,68.18l-47.94-5.94,20.84-117.88Z" fill="none" stroke="#584774" stroke-linecap="round" stroke-linejoin="round"/><line x1="1241.05" y1="387.14" x2="1218.8" y2="507.68" fill="none" stroke="#584774" stroke-linecap="round" stroke-linejoin="round"/><line x1="1186.99" y1="438.52" x2="1228.25" y2="417.08" fill="none" stroke="#584774" stroke-linecap="round" stroke-linejoin="round"/><line x1="1205.66" y1="410.62" x2="1234.02" y2="395.18" fill="none" stroke="#584774" stroke-linecap="round" stroke-linejoin="round"/><line x1="1174.86" y1="479.11" x2="1203.12" y2="462.03" fill="none" stroke="#584774" stroke-linecap="round" stroke-linejoin="round"/><line x1="1183.76" y1="489.7" x2="1219.84" y2="470.57" fill="none" stroke="#584774" stroke-linecap="round" stroke-linejoin="round"/><line x1="1156.79" y1="475.4" x2="1175.23" y2="477.02" fill="none" stroke="#584774" stroke-linecap="round" stroke-linejoin="round"/><line x1="1156.79" y1="411.55" x2="1187.43" y2="407.98" fill="none" stroke="#584774" stroke-linecap="round" stroke-linejoin="round"/><polyline points="399.34 251.54 501.72 276.19 1034.84 281.3 1052.13 262.62 1067.8 286.14 1103.54 268.16 1110.68 288.44 1179.59 294.7" fill="none" stroke="#584774" stroke-linecap="round" stroke-linejoin="round"/><line x1="467.4" y1="652.52" x2="500.98" y2="284.32" fill="none" stroke="#584774" stroke-linecap="round" stroke-linejoin="round"/><path d="M394.48,551.68h-27.33c-1.43,0-2.58,1.16-2.57,2.59l.28,29.24,59.82,112.24c.86,1.61,2.58,2.56,4.4,2.44l88.25-6.16s-.3-19.1,9.1-44.22" fill="none" stroke="#584774" stroke-linecap="round" stroke-linejoin="round"/><path d="M462.16,663.24l-29.56,1.32c-2.51,.11-4.53,2.08-4.72,4.58l-1.8,24.11" fill="none" stroke="#584774" stroke-linecap="round" stroke-linejoin="round"/><line x1="367.28" y1="558.35" x2="424.27" y2="652.63" fill="none" stroke="#584774" stroke-linecap="round" stroke-linejoin="round"/><polyline points="474.22 577.72 453.68 558.35 447.76 626.38" fill="none" stroke="#584774" stroke-linecap="round" stroke-linejoin="round"/><line x1="449.75" y1="603.49" x2="469.91" y2="624.94" fill="none" stroke="#584774" stroke-linecap="round" stroke-linejoin="round"/><polyline points="395.19 511.06 410.63 524.1 409.84 575.92" fill="none" stroke="#584774" stroke-linecap="round" stroke-linejoin="round"/><line x1="394.68" y1="542.53" x2="410.1" y2="558.98" fill="none" stroke="#584774" stroke-linecap="round" stroke-linejoin="round"/><path d="M485.86,310.42l-12.97,163.1c-.12,1.45-1.73,2.26-2.96,1.47l-65.67-41.84c-.57-.37-.91-1.01-.89-1.69l4.51-142.23c.04-1.25,1.25-2.14,2.45-1.79l74.13,20.97c.89,.25,1.47,1.09,1.4,2.01Z" fill="none" stroke="#584774" stroke-linecap="round" stroke-linejoin="round"/><path d="M523.18,437.74l12.96-143.6c.09-.97,.91-1.71,1.89-1.7l225.74,4.04c1.08,.02,1.92,.95,1.82,2.03l-11.92,133.6c-.13,1.43-1.31,2.53-2.74,2.57l-225.45,5.52c-1.35,.03-2.43-1.12-2.31-2.46Z" fill="none" stroke="#584774" stroke-linecap="round" stroke-linejoin="round"/><path d="M611.78,460.36l-3.64,33.05h0s-2.01,18.21-2.01,18.21c-.06,.48-.46,.85-.95,.86l-82.13,1.43c-.55,.01-1-.44-.99-.99l.27-9.78h0s1.15-42.56,1.15-42.56c.01-.52,.44-.94,.96-.94l86.38-.36c.58,0,1.03,.5,.96,1.08Z" fill="none" stroke="#584774" stroke-linecap="round" stroke-linejoin="round"/><path d="M522.26,528.59l80.12-1.43c.58-.01,1.04,.49,.98,1.06l-4.94,49.79c-.05,.48-.45,.86-.94,.87l-75.18,2.15c-.55,.02-1-.42-1-.97v-50.51c0-.53,.42-.96,.95-.97Z" fill="none" stroke="#584774" stroke-linecap="round" stroke-linejoin="round"/><path d="M632.66,461.8l104.8-3.56c.91-.03,1.64,.75,1.55,1.66l-10.7,105.95c-.07,.74-.67,1.31-1.41,1.35l-104.8,6.06c-.92,.05-1.68-.73-1.59-1.65l10.7-108.44c.07-.75,.69-1.33,1.45-1.36Z" fill="none" stroke="#584774" stroke-linecap="round" stroke-linejoin="round"/><path d="M791.83,305.25l130.47,1.39c2.36,.03,4.22,2,4.11,4.36l-8.48,174.13c-.07,1.35-1.16,2.41-2.51,2.44l-139.93,3.15c-2.34,.05-4.2-1.95-3.97-4.28l17.28-178.48c.15-1.55,1.46-2.73,3.03-2.72Z" fill="none" stroke="#584774" stroke-linecap="round" stroke-linejoin="round"/><path d="M908.98,516.9l-.16,2.42-4.01,60.18c-.11,1.73-1.5,3.1-3.22,3.2l-133.8,7.97c-2.52,.15-4.6-1.95-4.42-4.47l2.68-36.49,1.89-25.65c.34-4.51,4.01-8.05,8.53-8.22l126.99-4.63c3.17-.11,5.73,2.53,5.52,5.69Z" fill="none" stroke="#584774" stroke-linecap="round" stroke-linejoin="round"/><line x1="953.75" y1="280.52" x2="928.4" y2="619.65" fill="none" stroke="#584774" stroke-linecap="round" stroke-linejoin="round"/><path d="M1084.73,516.61c-25.31-.5-58.21-1.66-92.64-4.3" fill="none" stroke="#584774" stroke-linecap="round" stroke-linejoin="round"/><path d="M971.41,510.56c-4.66-.44-9.33-.9-13.99-1.4l17.24-163.23s87.67-19.81,151.86,1.83l-15.04,58.32,22.01,26.04-.73,84.73s-11.06,.17-27.69,.04" fill="none" stroke="#584774" stroke-linecap="round" stroke-linejoin="round"/><polyline points="1152.25 292.22 1130.93 406.46 1154.03 438.52 1136.03 593.47" fill="none" stroke="#584774" stroke-linecap="round" stroke-linejoin="round"/><path d="M1098.86,553.76c-4.87,.28-17.11,.27-35.14-4.65-.85-.23-.91-1.41-.09-1.71,4.5-1.67,15.55-4.83,34.86-4.87,2.65,0,5.11,1.67,5.8,4.22,.35,1.3,.25,2.84-.87,4.48-1.03,1.52-2.74,2.42-4.57,2.52Z" fill="none" stroke="#584774" stroke-linecap="round" stroke-linejoin="round"/><path d="M954.83,617.43l2.11,7.44c.32,1.12,.42,2.29,.3,3.45l-3.37,32.41c-.07,.68-.61,1.21-1.29,1.27l-263.49,22.8s-1.34-21.92-7.86-44.35" fill="none" stroke="#584774" stroke-linecap="round" stroke-linejoin="round"/><path d="M417.81,682.87l-30.15-.51s-6.94-1.44-14.13,15.84c-7.43,17.84,1.71,18.03,1.71,18.03l84.43-5.44c1.59-.1,3.06-.88,4.04-2.15l10.52-13.6" fill="none" stroke="#584774" stroke-linecap="round" stroke-linejoin="round"/><path d="M387.66,682.36s6.58,.16,.63,16.91c-4.16,11.72-12.26,18.67-15.73,15.72" fill="none" stroke="#584774" stroke-linecap="round" stroke-linejoin="round"/><path d="M542.17,658.73l51.56,29.03c.39,.22,.85-.18,.68-.6l-21.84-54.45s-15.56,3.54-30.4,26.02Z" fill="none" stroke="#584774" stroke-linecap="round" stroke-linejoin="round"/><path d="M584.31,629.17l17.51,57.74c.2,.65,1.1,.69,1.36,.07l22.42-54.27s-18.81-7.78-41.29-3.54Z" fill="none" stroke="#584774" stroke-linecap="round" stroke-linejoin="round"/><path d="M611.87,690.29l26.75-50.08s17.54,7.92,33.94,30.97l-59.71,20.27c-.7,.24-1.33-.5-.98-1.15Z" fill="none" stroke="#584774" stroke-linecap="round" stroke-linejoin="round"/><path d="M617.25,699.55l59.69-15.79s10.61,20.65,0,46.95l-59.79-30.24c-.41-.21-.34-.8,.1-.92Z" fill="none" stroke="#584774" stroke-linecap="round" stroke-linejoin="round"/><path d="M611.77,710.06l56.97,35.64s-9.9,14.28-33.23,15.98l-23.74-51.62Z" fill="none" stroke="#584774" stroke-linecap="round" stroke-linejoin="round"/><path d="M602.36,708.81l17.59,54.42s-19.37,3.25-40.87-6.51l22.08-47.99c.25-.54,1.02-.49,1.2,.07Z" fill="none" stroke="#584774" stroke-linecap="round" stroke-linejoin="round"/><path d="M596.6,702.09l-33.36,46.87s-15.56-11.03-25.46-28.71l58.26-18.91c.45-.15,.83,.37,.55,.75Z" fill="none" stroke="#584774" stroke-linecap="round" stroke-linejoin="round"/><path d="M590.56,695.08l-55.46,13.15s-4.24-16.97,0-36.34l55.54,22.08c.54,.21,.48,.99-.08,1.12Z" fill="none" stroke="#584774" stroke-linecap="round" stroke-linejoin="round"/><line x1="407.59" y1="298.13" x2="484.79" y2="323.95" fill="none" stroke="#584774" stroke-linecap="round" stroke-linejoin="round"/><line x1="407.59" y1="311.04" x2="483.58" y2="339.13" fill="none" stroke="#584774" stroke-linecap="round" stroke-linejoin="round"/><line x1="467.4" y1="303.58" x2="455.7" y2="465.92" fill="none" stroke="#584774" stroke-linecap="round" stroke-linejoin="round"/><line x1="438.44" y1="454.93" x2="451.11" y2="298.98" fill="none" stroke="#584774" stroke-linecap="round" stroke-linejoin="round"/><line x1="435.98" y1="294.7" x2="426.2" y2="447.13" fill="none" stroke="#584774" stroke-linecap="round" stroke-linejoin="round"/><line x1="413.88" y1="439.28" x2="420.31" y2="290.26" fill="none" stroke="#584774" stroke-linecap="round" stroke-linejoin="round"/><line x1="406.78" y1="323.95" x2="464.31" y2="346.4" fill="none" stroke="#584774" stroke-linecap="round" stroke-linejoin="round"/><line x1="406.34" y1="337.75" x2="463.25" y2="361.16" fill="none" stroke="#584774" stroke-linecap="round" stroke-linejoin="round"/><line x1="417.39" y1="357.96" x2="462.11" y2="376.95" fill="none" stroke="#584774" stroke-linecap="round" stroke-linejoin="round"/><line x1="416.78" y1="372.13" x2="460.98" y2="392.63" fill="none" stroke="#584774" stroke-linecap="round" stroke-linejoin="round"/><line x1="416.07" y1="388.46" x2="429.52" y2="395.4" fill="none" stroke="#584774" stroke-linecap="round" stroke-linejoin="round"/><line x1="442.87" y1="400.36" x2="459.88" y2="407.98" fill="none" stroke="#584774" stroke-linecap="round" stroke-linejoin="round"/><line x1="441.42" y1="418.3" x2="458.53" y2="426.68" fill="none" stroke="#584774" stroke-linecap="round" stroke-linejoin="round"/><g><polygon points="568.65 513.12 568.65 513.12 568.65 513.12 568.65 513.12" fill="none" stroke="#584774" stroke-linecap="round" stroke-linejoin="round"/><polygon points="579.18 512.94 579.18 512.94 579.18 512.93 579.18 512.94" fill="none" stroke="#584774" stroke-linecap="round" stroke-linejoin="round"/></g><line x1="629.19" y1="483.7" x2="736.85" y2="481.31" fill="none" stroke="#584774" stroke-linecap="round" stroke-linejoin="round"/><line x1="627.17" y1="504.19" x2="734.64" y2="503.13" fill="none" stroke="#584774" stroke-linecap="round" stroke-linejoin="round"/><line x1="625.03" y1="525.86" x2="732.48" y2="524.56" fill="none" stroke="#584774" stroke-linecap="round" stroke-linejoin="round"/><line x1="622.67" y1="549.7" x2="730.45" y2="544.66" fill="none" stroke="#584774" stroke-linecap="round" stroke-linejoin="round"/><line x1="708.54" y1="459.22" x2="699.69" y2="568.77" fill="none" stroke="#584774" stroke-linecap="round" stroke-linejoin="round"/><line x1="629.19" y1="564.35" x2="640.95" y2="554.09" fill="none" stroke="#584774" stroke-linecap="round" stroke-linejoin="round"/><line x1="631.25" y1="554.09" x2="640.95" y2="563.24" fill="none" stroke="#584774" stroke-linecap="round" stroke-linejoin="round"/><path d="M640.95,537.48c-.28,3.88-3.3,4.66-4.85,4.69-1.78,.04-4.85-1.26-4.85-4.97,0-2.57,2.35-4.74,4.85-4.74,3.47,0,4.99,3.07,4.85,5.01Z" fill="none" stroke="#584774" stroke-linecap="round" stroke-linejoin="round"/><path d="M642.65,516.49c.02,3.77-2.82,4.79-4.45,4.79-2.09,0-4.66-1.55-4.45-4.77,.23-3.57,2.85-4.81,5.02-4.59,2.46,.25,3.87,2.22,3.88,4.57Z" fill="none" stroke="#584774" stroke-linecap="round" stroke-linejoin="round"/><path d="M636.58,491.33l4.38,7.22s6.76-9.07,8.61-10.45" fill="none" stroke="#584774" stroke-linecap="round" stroke-linejoin="round"/><path d="M646.64,473.81c-.2,2.79-2.42,3.63-4.04,3.59-1.73-.05-3.8-1.44-3.72-3.9,.05-1.65,1.31-3.61,4.07-3.53,2.61,.07,3.8,2.32,3.69,3.84Z" fill="none" stroke="#584774" stroke-linecap="round" stroke-linejoin="round"/><line x1="767.15" y1="534.83" x2="908.06" y2="530.72" fill="none" stroke="#584774" stroke-linecap="round" stroke-linejoin="round"/><line x1="765.83" y1="552.79" x2="906.93" y2="547.8" fill="none" stroke="#584774" stroke-linecap="round" stroke-linejoin="round"/><line x1="764.61" y1="569.47" x2="905.88" y2="563.53" fill="none" stroke="#584774" stroke-linecap="round" stroke-linejoin="round"/><line x1="785.55" y1="481.31" x2="785.55" y2="490.5" fill="none" stroke="#584774" stroke-linecap="round" stroke-linejoin="round"/><line x1="798.4" y1="481.31" x2="798.4" y2="490.21" fill="none" stroke="#584774" stroke-linecap="round" stroke-linejoin="round"/><line x1="814.71" y1="481.31" x2="814.71" y2="489.84" fill="none" stroke="#584774" stroke-linecap="round" stroke-linejoin="round"/><line x1="834.73" y1="481.31" x2="834.73" y2="489.39" fill="none" stroke="#584774" stroke-linecap="round" stroke-linejoin="round"/><line x1="858.81" y1="480.36" x2="858.81" y2="488.85" fill="none" stroke="#584774" stroke-linecap="round" stroke-linejoin="round"/><line x1="881.35" y1="480.36" x2="881.35" y2="488.34" fill="none" stroke="#584774" stroke-linecap="round" stroke-linejoin="round"/><line x1="900.83" y1="479.27" x2="900.83" y2="487.91" fill="none" stroke="#584774" stroke-linecap="round" stroke-linejoin="round"/><path d="M1021.2,607.63c22.21-5.19,31,11.54,32,20.54,1.26,11.33-3.56,27-22.3,29.44-10.43,1.36-25.86-3.55-28.5-20.3-2.2-13.96,7.49-27.03,18.8-29.68Z" fill="none" stroke="#b39ed3" stroke-linecap="round" stroke-linejoin="round"/><line x1="1004.97" y1="621.26" x2="992.4" y2="612.62" fill="none" stroke="#b39ed3" stroke-linecap="round" stroke-linejoin="round"/><line x1="1011.11" y1="613.12" x2="1003.42" y2="607.92" fill="none" stroke="#b39ed3" stroke-linecap="round" stroke-linejoin="round"/><path d="M1019.18,619.98c.17,2.81,1.93,3.59,3.47,3.37,1.76-.26,2.55-2.24,2.41-4.24-.08-1.1-.96-3.28-3.27-2.98-1.83,.23-2.71,2.11-2.6,3.85Z" fill="none" stroke="#b39ed3" stroke-linecap="round" stroke-linejoin="round"/><path d="M1034.92,622.3c.17,2.81,1.93,3.59,3.47,3.37,1.76-.26,2.55-2.24,2.41-4.24-.08-1.1-.96-3.28-3.27-2.98-1.83,.23-2.71,2.11-2.6,3.85Z" fill="none" stroke="#b39ed3" stroke-linecap="round" stroke-linejoin="round"/><path d="M1039.2,638.03c.05,1.93,1.63,3.19,3.17,2.97,1.76-.26,2.38-1.88,2.28-3.51-.07-1.1-.94-3.22-2.87-3.12s-2.62,1.92-2.57,3.66Z" fill="none" stroke="#b39ed3" stroke-linecap="round" stroke-linejoin="round"/><path d="M1031.33,646.69c-.05,2.08-1.34,3.41-3.17,3.36-2.82-.08-3.3-2.23-3.17-3.51,.15-1.43,1.55-2.67,3.12-2.67,2.03,0,3.25,1.57,3.22,2.82Z" fill="none" stroke="#b39ed3" stroke-linecap="round" stroke-linejoin="round"/><path d="M1011.84,634.86c-.15-2.28,.84-3.91,2.52-3.91,1.83,0,2.74,1.73,2.92,3.17,.32,2.6-.54,4.4-1.98,4.65-1.69,.29-3.29-1.24-3.46-3.91Z" fill="none" stroke="#b39ed3" stroke-linecap="round" stroke-linejoin="round"/><path d="M1057.33,577.38s20.69,9.8,27.77,42.11" fill="none" stroke="#b39ed3" stroke-linecap="round" stroke-linejoin="round"/><path d="M1095.2,596.59l-3.27,.17c-1.66,.09-2.54,2-1.53,3.31,4.02,5.18,11.96,16.93,18.27,35.68,.44,1.31,1.72,2.15,3.09,2.02l88.54-8.65c3.29-.32,5.9-2.93,6.22-6.22l4.99-51.24c.25-2.6-1.59-4.94-4.18-5.3-4.89-.68-12.88-1.69-20.03-2.11" fill="none" stroke="#584774" stroke-linecap="round" stroke-linejoin="round"/><path d="M878.15,805.47l-57.83,4.93-7.12-17.33c12.69-49.52,11.76-108.27,11.76-108.27,0,0,67.78,3.97,119.78-5.32l10.52,8.98s-9.17,68.23-17.22,97.63" fill="none" stroke="#584774" stroke-linecap="round" stroke-linejoin="round"/><path d="M952.7,875.12c.32,1.92-2.02,3.11-3.4,1.73l-93.08-93.38s-15.96-16.54-1.61-44.72c13.7-26.9,38.18-28.24,50.28-27.02,17.6,1.76,23.14,12.01,23.45,14.79,.27,2.45,19.67,120.11,24.36,148.59Z" fill="none" stroke="#584774" stroke-linecap="round" stroke-linejoin="round"/><path d="M882.76,810.1s-9.95-20.58,3.9-41.42c14.02-21.09,46.18-14.27,48.84,1.97" fill="none" stroke="#584774" stroke-linecap="round" stroke-linejoin="round"/><path d="M822.95,788.32s8.06-43.92,11.95-92.15c0,0,82.26,2.8,120.36-7.71" fill="none" stroke="#584774" stroke-linecap="round" stroke-linejoin="round"/><path d="M1069.65,714.54l-66.79-6.68s8.35-13.29,27.72-19.75l39.32,25.72c.34,.22,.15,.74-.25,.7Z" fill="none" stroke="#584774" stroke-linecap="round" stroke-linejoin="round"/><path d="M1042.73,683.94l35.45,27.41c.55,.42,1.34,.02,1.32-.68l-1.07-28.63s-19.75-3.8-35.69,1.9Z" fill="none" stroke="#584774" stroke-linecap="round" stroke-linejoin="round"/><path d="M1089.82,682.42l-4.06,32.86c-.05,.4,.37,.7,.73,.52l47-22.75s-20.13-10.25-43.67-10.63Z" fill="none" stroke="#584774" stroke-linecap="round" stroke-linejoin="round"/><path d="M1095.12,718.16l48.23-22.83s20.51,8.73,28.48,29.24l-76.56-5.57c-.45-.03-.57-.64-.16-.84Z" fill="none" stroke="#584774" stroke-linecap="round" stroke-linejoin="round"/><path d="M1104.12,728.09l44.55,25.72s19.75-4.56,21.64-17.85l-65.88-8.78c-.54-.07-.78,.65-.31,.92Z" fill="none" stroke="#584774" stroke-linecap="round" stroke-linejoin="round"/><path d="M1086.46,727.6l1.46,35.69s27.34,.38,44.05-4.56l-44.33-31.77c-.5-.36-1.2,.02-1.17,.63Z" fill="none" stroke="#584774" stroke-linecap="round" stroke-linejoin="round"/><path d="M1077.17,729.07l-3.68,35.37s-18.61-1.9-42.53-13.67l45.35-22.3c.43-.21,.91,.13,.87,.6Z" fill="none" stroke="#584774" stroke-linecap="round" stroke-linejoin="round"/><path d="M1066.5,722.75l-44.66,22.7s-17.85-10.25-20.13-28.1l64.68,4.86c.29,.02,.36,.41,.11,.54Z" fill="none" stroke="#584774" stroke-linecap="round" stroke-linejoin="round"/><path d="M971.41,510.56v5.06c0,.77,.57,1.42,1.33,1.51,3.45,.41,12.81,1.36,18.85,.48l1.15-12.7c.08-.83-.5-1.58-1.33-1.71-3.16-.5-9.42-1.09-16.15,.06-8.71,1.48-11.96,6.52-11.96,6.52l8.11,.79Z" fill="none" stroke="#584774" stroke-linecap="round" stroke-linejoin="round"/><path d="M978.04,517.64v-12.06c0-.79-.61-1.45-1.4-1.5-1.38-.09-3.69-.07-6.51,.66" fill="none" stroke="#584774" stroke-linecap="round" stroke-linejoin="round"/><path d="M985.32,502.59s.06,9-.54,15.37" fill="none" stroke="#584774" stroke-linecap="round" stroke-linejoin="round"/><path d="M1077.79,516.46s5.15-7.47,9.61-9.35c3.2-1.35,11.49,.11,15.92,1.03,1.63,.34,2.71,1.89,2.48,3.54-.42,3.06-1.07,7.65-1.33,9.19,0,0-2.62,1.25-5.61,1.01l-.16,2.02c-3.6,.84-7.33,1.12-12.42,.7-.5-.04-.9-.44-.94-.94l-.62-7.06-6.94-.15Z" fill="none" stroke="#584774" stroke-linecap="round" stroke-linejoin="round"/><path d="M1087.4,507.12s4.43-.99,4.69,2.28,.16,15.38,.16,15.38" fill="none" stroke="#584774" stroke-linecap="round" stroke-linejoin="round"/><path d="M1097.84,507.16s1.83,.36,1.73,3.82-.86,12.93-.86,12.93" fill="none" stroke="#584774" stroke-linecap="round" stroke-linejoin="round"/><line x1="992.76" y1="507.68" x2="1023.67" y2="442.84" fill="none" stroke="#584774" stroke-linecap="round" stroke-linejoin="round"/><path d="M1020.51,446.32s-1.72,.21-2.44-.57c-.81-.88-1.11-2.36,2.57-4.26,11.79-6.06,62.09-22.86,65.29-19.62s-46.11,22.28-46.11,22.28" fill="none" stroke="#584774" stroke-linecap="round" stroke-linejoin="round"/><path d="M1017.57,444.43s.77-22.98,10.85-23.89c8.06-.73,10.74,11.07,10.74,11.07" fill="none" stroke="#584774" stroke-linecap="round" stroke-linejoin="round"/><line x1="1033.68" y1="438.8" x2="1074.87" y2="516.39" fill="none" stroke="#584774" stroke-linecap="round" stroke-linejoin="round"/><polygon points="1045.68 493.09 1026.87 451.04 1033.68 449.66 1048.9 492.24 1045.68 493.09" fill="#584774" stroke="#584774" stroke-linecap="round" stroke-linejoin="round"/><polygon points="1045.46 498.83 1052.41 497.13 1056.88 507.68 1050.92 509.37 1045.46 498.83" fill="#584774" stroke="#584774" stroke-linecap="round" stroke-linejoin="round"/><path d="M1084.02,509.37s-13.25-6.78-6.19-23.5c7.65-18.13,27.69-25.94,40.88-21.79,15.48,4.87,10.27,25.44,4.37,33.95-7.86,11.34-17.41,12.25-17.41,12.25" fill="none" stroke="#584774" stroke-linecap="round" stroke-linejoin="round"/><line x1="1075.76" y1="494.41" x2="1097.35" y2="488.75" fill="none" stroke="#584774" stroke-linecap="round" stroke-linejoin="round"/><line x1="1120.08" y1="464.57" x2="1104.71" y2="483.73" fill="none" stroke="#584774" stroke-linecap="round" stroke-linejoin="round"/><line x1="1114.59" y1="506.57" x2="1104.71" y2="490.05" fill="none" stroke="#584774" stroke-linecap="round" stroke-linejoin="round"/><path d="M1103.85,483.55c3.34,.43,3.83,3.5,2.21,5.37s-4.28,2.37-6.13,2.08c-2.2-.35-3.25-2.28-2.29-4.36,1.03-2.23,3.61-3.42,6.2-3.09Z" fill="none" stroke="#584774" stroke-linecap="round" stroke-linejoin="round"/><path d="M1154.17,189.57s-10.44-10.44-9.23-21.27,10.84-17.26,11.24-27.69-11.33-16.18-11.34-31.31c0-8.03,5.93-15.25,8.53-19.87,4.04-7.18,3.61-9.43,3.61-9.43,0,0-5.54,2.07-12.14-1.61-8.06-4.48-7.93-13.04-7.93-13.04" fill="none" stroke="#b39ed3" stroke-linecap="round" stroke-linejoin="round"/><path d="M1204.94,70.36s1.7,23.12,.84,27.09c-2.44,11.24-17.15,18.45-19.3,26.69-2.41,9.23,3.81,14.45,1,21.67-3.61,9.29-17.06,23.22-17.86,30.3-1.4,12.44,9.43,21.47,10.03,34.92" fill="none" stroke="#b39ed3" stroke-linecap="round" stroke-linejoin="round"/><path d="M1132.5,64.63s-14.77,8.18-30.29,1.27-17.55-24.05-10.38-29.87c0,0-25.66,1.46-25.74-18.23-.05-12.66,13.42-17.3,13.42-17.3" fill="none" stroke="#b39ed3" stroke-linecap="round" stroke-linejoin="round"/><path d="M1210.64,73.62s11.49,8.79,33.4,6.74c20.6-1.93,32.68-19.27,33.4-29.36,.58-8.1-2.12-17.52-11.07-21.37,0,0,12.03,3.85,23.2-3.18s7.8-21.47,7.8-21.47" fill="none" stroke="#b39ed3" stroke-linecap="round" stroke-linejoin="round"/><path d="M462.52,170.81l542.83,19.55c3.22,.12,5.89-2.45,5.91-5.67l.52-126.64c.01-3.63-2.8-6.64-6.42-6.87L463.13,16.59c-2.7-.17-4.99,1.97-5,4.67l-.53,144.42c-.01,2.76,2.17,5.03,4.93,5.13Z" fill="none" stroke="#584774" stroke-linecap="round" stroke-linejoin="round"/><path d="M478.48,161.68l239,11.12c2.42,.11,4.44-1.82,4.44-4.24v-60.99c0-2.32-1.82-4.22-4.13-4.33l-237.95-11.37c-2.63-.13-4.83,1.97-4.83,4.6v61.57c0,1.94,1.53,3.55,3.47,3.64Z" fill="none" stroke="#584774" stroke-linecap="round" stroke-linejoin="round"/><line x1="560.75" y1="95.73" x2="562.98" y2="165.61" fill="none" stroke="#584774" stroke-linecap="round" stroke-linejoin="round"/><line x1="640.83" y1="99.56" x2="642.52" y2="169.31" fill="none" stroke="#584774" stroke-linecap="round" stroke-linejoin="round"/><polygon points="666.13 119.59 666.13 144.47 689.9 134.43 666.13 119.59" fill="none" stroke="#584774" stroke-linecap="round" stroke-linejoin="round"/><line x1="696.75" y1="116.65" x2="697.87" y2="151.88" fill="none" stroke="#584774" stroke-linecap="round" stroke-linejoin="round"/><polygon points="613.84 131.33 590.07 141.4 590.85 115.25 613.84 131.33" fill="none" stroke="#584774" stroke-linecap="round" stroke-linejoin="round"/><path d="M538.2,128.39s.84,8.67-5.31,8.53-29.92-.98-29.92-.98" fill="none" stroke="#584774" stroke-linecap="round" stroke-linejoin="round"/><path d="M510.79,129.93s-2.38,5.03-7.83,6.01c0,0,4.63,.69,6.74,6.63" fill="none" stroke="#584774" stroke-linecap="round" stroke-linejoin="round"/><polyline points="511.11 110.5 515.17 106.63 514.79 123.66" fill="none" stroke="#584774" stroke-linecap="round" stroke-linejoin="round"/><path d="M523.1,115.24c-.19,6.29,2.03,8.8,4.26,8.9s4.84-2.32,4.84-8.71-2.16-8.35-4.35-8.51-4.55,2.03-4.74,8.32Z" fill="none" stroke="#584774" stroke-linecap="round" stroke-linejoin="round"/><polygon points="477.5 76.31 989.04 99.29 989.28 90 477.74 67.5 477.5 76.31" fill="none" stroke="#584774" stroke-linecap="round" stroke-linejoin="round"/><path d="M743.82,127.99c-3.88,0-5.84,4.34-5.77,9.26,.06,4.41,3.15,9.26,6.38,9.26,3.79,0,5.75-4.25,5.86-8.6,.14-5.82-2.58-9.92-6.46-9.92Z" fill="none" stroke="#584774" stroke-linecap="round" stroke-linejoin="round"/><path d="M760.46,128.65c-3.88,0-5.77,4.34-5.7,9.26,.06,4.41,1.93,9.26,5.74,9.26,3.16,0,5.63-4,5.73-8.36,.14-5.82-1.9-10.17-5.77-10.17Z" fill="none" stroke="#584774" stroke-linecap="round" stroke-linejoin="round"/><polygon points="772.42 133.36 774.23 133.36 774.23 135.92 772.67 135.92 772.42 133.36" fill="#584774" stroke="#584774" stroke-linecap="round" stroke-linejoin="round"/><polygon points="772.42 142.46 774.23 142.46 774.23 144.82 772.67 144.82 772.42 142.46" fill="#584774" stroke="#584774" stroke-linecap="round" stroke-linejoin="round"/><path d="M786.81,129.28c5.51,0,6.37,5.96,6.38,8.63s-.73,8.86-6.78,8.86c-3.99,0-5.97-4.6-6.05-8.86-.09-4.5,2.92-8.63,6.46-8.63Z" fill="none" stroke="#584774" stroke-linecap="round" stroke-linejoin="round"/><path d="M798.7,129.62h9.22l-4.61,6.38s5.38,.26,5.38,5.51c0,3.96-2.52,5.99-5.51,5.65-3.53-.4-4.05-4.19-4.05-4.19" fill="none" stroke="#584774" stroke-linecap="round" stroke-linejoin="round"/><line x1="813.86" y1="148.06" x2="824.81" y2="126.01" fill="none" stroke="#584774" stroke-linecap="round" stroke-linejoin="round"/><path d="M829.89,140.14c-.52,6.2,3.02,9.65,5.77,9.65,3.62,0,6.03-3.7,6.2-9.69,.09-2.98-.86-9.35-5.17-9.35s-6.45,5.06-6.81,9.39Z" fill="none" stroke="#584774" stroke-linecap="round" stroke-linejoin="round"/><path d="M846.43,141.17c-.09,4.74,2.06,9.65,5.51,9.65,3.02,0,6.12-1.98,6.54-9.53,.2-3.62-1.46-9.59-6.04-9.59-3.6,0-5.92,4.71-6.01,9.48Z" fill="none" stroke="#584774" stroke-linecap="round" stroke-linejoin="round"/><path d="M870.77,141.88c-.09,4.74,2.01,9.37,5.46,9.37,2.59,0,6.12-1.9,6.38-9.56,.12-3.62-1.19-8.87-5.77-8.87-3.6,0-5.98,4.3-6.07,9.06Z" fill="none" stroke="#584774" stroke-linecap="round" stroke-linejoin="round"/><path d="M887.95,134.02l11.89,.34s-6.98,7.58-8.79,18.09" fill="none" stroke="#584774" stroke-linecap="round" stroke-linejoin="round"/><polygon points="863.63 139.19 863.63 136.6 865.95 136.52 865.95 139.45 863.63 139.19" fill="#584774" stroke="#584774" stroke-linecap="round" stroke-linejoin="round"/><polygon points="863.71 145.3 866.04 145.3 865.87 148.15 863.37 148.15 863.71 145.3" fill="#584774" stroke="#584774" stroke-linecap="round" stroke-linejoin="round"/><path d="M407.14,219.9c-.32,7.98,1.25,12.58,3.36,12.89s4.15-5.25,4.32-12.04c.21-7.82-1.16-12.24-3.46-12.47-2.16-.22-3.94,4.69-4.22,11.62Z" fill="none" stroke="#584774" stroke-linecap="round" stroke-linejoin="round"/><path d="M420.95,221.18c-.32,7.98,.92,13.67,3.6,13.84,2.31,.14,4.11-4.69,4.4-12.9s-.66-12.65-3.46-12.97c-2.52-.29-4.26,5.1-4.54,12.04Z" fill="none" stroke="#584774" stroke-linecap="round" stroke-linejoin="round"/><path d="M436.02,223.85c-.36,9.73,1.84,13.34,3.96,13.48,2.23,.14,4.59-3.82,4.83-13.48,.22-8.58-1.6-12.82-3.89-13.05-2.16-.22-4.61,5.19-4.9,13.05Z" fill="none" stroke="#584774" stroke-linecap="round" stroke-linejoin="round"/><path d="M547.43,213.36c15.96-.55,23.8,11.42,23.38,20.63s-7.96,18.67-22.15,17.88-20.63-12.65-19.67-21.05c1.12-9.72,8.53-17.13,18.43-17.47Z" fill="none" stroke="#584774" stroke-linecap="round" stroke-linejoin="round"/><line x1="539.86" y1="224.09" x2="560.5" y2="243.48" fill="none" stroke="#584774" stroke-linecap="round" stroke-linejoin="round"/><line x1="558.57" y1="224.5" x2="541.79" y2="242.11" fill="none" stroke="#584774" stroke-linecap="round" stroke-linejoin="round"/><path d="M605.48,215.28c19.12,.83,19.4,18.43,18.71,23.11s-5.5,15.13-20.08,14.31c-7.02-.4-17.28-4.81-17.61-18.43-.28-11.42,8.7-19.43,18.98-18.98Z" fill="none" stroke="#584774" stroke-linecap="round" stroke-linejoin="round"/><line x1="594.33" y1="234.82" x2="617.72" y2="235.23" fill="none" stroke="#584774" stroke-linecap="round" stroke-linejoin="round"/><path d="M685.39,237.29c-.96,14.86-14.63,17.37-23.38,16.09-7.57-1.1-17.61-7.15-17.19-20.36,.25-8.09,6.05-19.12,20.5-18.02,12.65,.96,20.74,12.09,20.08,22.28Z" fill="none" stroke="#584774" stroke-linecap="round" stroke-linejoin="round"/><line x1="653.21" y1="235.37" x2="677.55" y2="235.37" fill="none" stroke="#584774" stroke-linecap="round" stroke-linejoin="round"/><line x1="663.94" y1="223.81" x2="664.76" y2="246.92" fill="none" stroke="#584774" stroke-linecap="round" stroke-linejoin="round"/><polygon points="389.04 742.57 504.96 739.65 506.41 741.82 539.78 740.43 544.76 745.41 521.19 746.5 523.71 750.29 361.85 752.99 359.53 749.68 418.99 748.67 415.57 745.78 322.92 747.4 322.38 744.7 390.15 743.98 389.04 742.57" fill="#584774" stroke="#584774" stroke-linecap="round" stroke-linejoin="round"/><path d="M200.26,747.54c-1.42,.36-51.19,.71-51.19,.71l-5.69-2.84-34.13-.36v-3.91l91.01-.71v7.11Z" fill="#584774" stroke="#584774" stroke-linecap="round" stroke-linejoin="round"/><polygon points="106.22 649.85 374.11 651.91 373.04 649.42 355.98 649.42 221.23 646.58 223.37 643.73 359.89 645.15 355.62 642.31 124.53 638.76 122.05 640.53 144.44 641.6 143.83 642.79 125.99 642.4 124.19 644.33 211.98 646.13 211.21 647.92 109.69 647.79 106.22 649.85" fill="#584774" stroke="#584774" stroke-linecap="round" stroke-linejoin="round"/><path d="M819.98,734.06l-66.73,4.85-2.84-3.79,48.98-4.11-1.26-2.21-73,5.37-3.79-3.79,21.49-1.58-3.16-2.53s52.7-4.11,81.45-5.69c0,0-.51,7.99-1.13,13.48Z" fill="#584774" stroke="#584774" stroke-linecap="round" stroke-linejoin="round"/><path d="M232.1,724.28s15.4-9.3,34.95,9.27c26.48,25.16,19.6,69.38,13.24,72.03l-167.89,63.47c-1.55,.59-2.87-1.28-1.79-2.54l117.25-137.99" fill="none" stroke="#584774" stroke-linecap="round" stroke-linejoin="round"/><path d="M262.11,812.45s22.16,9.15,44.93,20.27c0,0,11.92-8.87,13.77-12.31,0,0,1.57-53.9-3.61-100.32-.06-.52-.37-.98-.84-1.23-6.32-3.3-51.88-26.52-102.39-35.98-.64-.12-1.3-.07-1.92,.13-2.2,.74-7.76,2.91-13.31,7.64,0,0,4.84,37.57,6.43,64.58" fill="none" stroke="#584774" stroke-linecap="round" stroke-linejoin="round"/><path d="M198.74,690.65s17.5,1.37,54.02,13.11c25.59,8.22,45.26,18.03,50.18,20.56,.76,.39,1.26,1.12,1.37,1.96,.85,6.75,4.37,39.47,2.73,106.44" fill="none" stroke="#584774" stroke-linecap="round" stroke-linejoin="round"/><path d="M216.33,829.76c4.58-5.54,2.46-25.9-9.13-38.92-10.84-12.18-19.32-10.55-19.32-10.55" fill="none" stroke="#584774" stroke-linecap="round" stroke-linejoin="round"/><path d="M210.46,578.45l-94.14,1.53c-1.48,.02-2-1.96-.7-2.67l85.02-46.12" fill="none" stroke="#584774" stroke-linecap="round" stroke-linejoin="round"/><path d="M198.74,509.21s2.08,51.84,19.92,91.56h10.86l40.35-18.88s-11.9-20.69-18.36-85.09l-7.5-1.03-45.26,13.45Z" fill="none" stroke="#584774" stroke-linecap="round" stroke-linejoin="round"/><path d="M251.5,496.79l-42.16,14.22s2.33,42.93,18.88,82.25" fill="none" stroke="#584774" stroke-linecap="round" stroke-linejoin="round"/><path d="M231.59,518c8.83-4.45,14.05,18.23,16.12,27.03s6.5,30.23-2.01,32.24c-6.48,1.53-14.09-8.98-17.65-24-3.61-15.24-1.91-32.52,3.54-35.27Z" fill="none" stroke="#584774" stroke-linecap="round" stroke-linejoin="round"/><path d="M188.64,537.61s-12.74,7.32-11.55,21.85,12.08,19.34,12.08,19.34" fill="none" stroke="#584774" stroke-linecap="round" stroke-linejoin="round"/><path d="M143.11,285.13l63.54-3.8,7.25,4.96-5.57,5.62-64.28,5.29s-3.04-1.07-3.32-6c-.26-4.56,2.39-6.06,2.39-6.06Z" fill="none" stroke="#584774" stroke-linecap="round" stroke-linejoin="round"/><path d="M157.81,295.92l-.49-17.71s14.27,3.86,29.7-.49" fill="none" stroke="#584774" stroke-linecap="round" stroke-linejoin="round"/><path d="M211.32,284.33l.15-10.31c-1.67,8.71-14.44,7.89-14.44,7.89l-.95-5.37s4.74-1.43,6.09-3.31,4.49-10.39,4.49-10.39c0,0,18-.47,37.08,2.08,1.71,.23,2.96,1.73,2.86,3.46l-6.76,117.1c-.09,1.61-1.94,2.48-3.24,1.52l-47.94-36.66" fill="none" stroke="#584774" stroke-linecap="round" stroke-linejoin="round"/><path d="M223.49,263.13s-7,3.47-7.11,6.6,0,7.42,.73,15.46c0,0,5.02,1.62,7.91-.73" fill="none" stroke="#584774" stroke-linecap="round" stroke-linejoin="round"/><path d="M232.59,263.72s-5.86,2.77-6.06,5.91,0,12.12,0,12.12c0,0,8.04,2.19,9.19,0s1.15-6.37,1.15-6.37c0,0,4.6-.21,4.7-3.6" fill="none" stroke="#584774" stroke-linecap="round" stroke-linejoin="round"/><path d="M225.03,298.68s-4.46-4.49-7.49-4.28-6.37,4.07-6.37,4.07c-4.07-8.15-9.21-6.04-9.21-6.04,0,0-6.25,1.13-9.39,6.14l1.78,4.28s5.02-1.57,7.1,.42,2.72,6.69,6.37,6.9,13.9,0,13.9,0l2.07,56.43" fill="none" stroke="#584774" stroke-linecap="round" stroke-linejoin="round"/><line x1="223.62" y1="362.17" x2="185.1" y2="342.08" fill="none" stroke="#584774" stroke-linecap="round" stroke-linejoin="round"/><path d="M102.68,309.89l12.01-40.49c.47-1.49,2.39-1.89,3.42-.71l104.64,121.06c1.02,1.18,.39,3.02-1.14,3.32l-34.58,6.91" fill="none" stroke="#584774" stroke-linecap="round" stroke-linejoin="round"/><line x1="84.51" y1="371.14" x2="97.91" y2="325.95" fill="none" stroke="#584774" stroke-linecap="round" stroke-linejoin="round"/><path d="M121.27,412.35l-46.09,8.58c-2.65,.53-4.89-1.97-4.09-4.55l9.1-30.69" fill="none" stroke="#584774" stroke-linecap="round" stroke-linejoin="round"/><line x1="177.3" y1="401.93" x2="137.42" y2="409.35" fill="none" stroke="#584774" stroke-linecap="round" stroke-linejoin="round"/><path d="M177.3,401.93s-10.59-50.76-63.65-96.63l5.5-16.91,77.16,94.71-14.16,2.11s2.36,6.09,4.88,14.78l-11.21-3.56" fill="none" stroke="#584774" stroke-linecap="round" stroke-linejoin="round"/><line x1="78.28" y1="319.63" x2="54.55" y2="359.26" fill="none" stroke="#584774" stroke-linecap="round" stroke-linejoin="round"/><path d="M97.91,325.95s32.33,20.52,44.65,66.45l13.47-2.9s-3.51-18.06-19.42-43.76c-13.18-21.3-33.94-35.86-33.94-35.86l-16.6-3.28,22.51-37.58c.38-.64,1.08-1.03,1.82-1.03h6.25" fill="none" stroke="#584774" stroke-linecap="round" stroke-linejoin="round"/><path d="M121.27,412.35c-5.37-30.67-25.36-46.68-25.36-46.68l5.22-18.91s27.25,22.59,36.3,62.58" fill="none" stroke="#584774" stroke-linecap="round" stroke-linejoin="round"/><line x1="78.28" y1="319.63" x2="97.91" y2="325.95" fill="none" stroke="#584774" stroke-linecap="round" stroke-linejoin="round"/><path d="M86.08,306.61s8.54,6.22,14.4,21.15" fill="none" stroke="#584774" stroke-linecap="round" stroke-linejoin="round"/><line x1="119.59" y1="404.8" x2="137.42" y2="409.35" fill="none" stroke="#584774" stroke-linecap="round" stroke-linejoin="round"/><path d="M79.45,352.12l-27.74,71.46-4.84,52.62,6.72,4.92s-.36,11.38,1.19,16.59,4.5,9.72,4.5,9.72c0,0-4.86,4.5-6.87,3.79s-6.04-5.81-6.52-7.58-2.37-9.48-2.37-9.48l.59,19.91,3.32,2.61s-3.56,3.2-5.45,3.2c-1.6,0-10.19-4.21-12.85-5.53-.49-.24-.81-.72-.87-1.25l-.27-2.69s-5.21-.83-5.93-1.9-.71-1.54,0-12.09c.71-10.55,4.74-27.02,4.74-27.02l8.64-48.86c.44-2.47,1.31-4.84,2.59-7l37.6-63.6" fill="none" stroke="#584774" stroke-linecap="round" stroke-linejoin="round"/><line x1="27.64" y1="504.47" x2="27.99" y2="510.4" fill="none" stroke="#584774" stroke-linecap="round" stroke-linejoin="round"/><path d="M34.39,505.66v8.65s.09,2.75,3.01,3.95" fill="none" stroke="#584774" stroke-linecap="round" stroke-linejoin="round"/><polyline points="71.32 463.74 71.84 454.7 52.64 446.64" fill="none" stroke="#584774" stroke-linecap="round" stroke-linejoin="round"/><polyline points="47.43 516.68 67.34 531.96 68.16 517.88" fill="none" stroke="#584774" stroke-linecap="round" stroke-linejoin="round"/><polyline points="8.2 488.09 8.2 490.01 21.89 499.13" fill="none" stroke="#584774" stroke-linecap="round" stroke-linejoin="round"/><polyline points="32.25 438.6 8.2 428.74 8.2 440.39" fill="none" stroke="#584774" stroke-linecap="round" stroke-linejoin="round"/><path d="M83.34,485.86c-2.9-1.23-5.22,.33-6.58,1.72l1.01-15.59-11.85-15.17-4.98,65.18,14.1-8.06,1-15.39c3.03,4.94,7.74,3.19,9.31,.58,1.64-2.73,2.73-11.25-2.01-13.27Z" fill="none" stroke="#584774" stroke-linecap="round" stroke-linejoin="round"/><line x1="48.94" y1="453.73" x2="65.55" y2="461.57" fill="none" stroke="#584774" stroke-linecap="round" stroke-linejoin="round"/><line x1="43.94" y1="508.39" x2="61.18" y2="518.81" fill="none" stroke="#584774" stroke-linecap="round" stroke-linejoin="round"/><path d="M22.36,493.22s-11.96-5.93-21.86-6.29l4.52-29.28s2.98-7.49,10.68-11.01c3.73-1.7,8.97-2.84,15.21-.45" fill="none" stroke="#584774" stroke-linecap="round" stroke-linejoin="round"/><path d="M5.68,456.3l.75-16.05s7.44,.17,19.88,4.57" fill="none" stroke="#584774" stroke-linecap="round" stroke-linejoin="round"/><path d="M134.37,438.7s.14,4.9-9.02,3.51c-5.76-.88-7.27-4.84-7.27-4.84" fill="none" stroke="#584774" stroke-linecap="round" stroke-linejoin="round"/><path d="M122.28,429.74c-.47,2.06,1.21,3.92,3.88,4.89,2.27,.82,5.6,1.08,6.6-1.46,.56-1.41-.97-3.84-3.67-4.97-3.46-1.44-6.43-.15-6.81,1.54Z" fill="none" stroke="#584774" stroke-linecap="round" stroke-linejoin="round"/><path d="M156.84,426.66c1.07,3.68-2.57,5.9-5.65,5.52s-5.13-3.21-3.85-6.16c.57-1.32,2.4-2.34,4.6-2.37s4.28,.88,4.9,3.01Z" fill="none" stroke="#584774" stroke-linecap="round" stroke-linejoin="round"/><path d="M136.22,468.94l-2.48,13.03s-.3,5.36,6.03,8.47c7.32,3.59,20.92,2.05,22.46-6.67l-3.08-50.18s-.25-2.23-2.74-3.59c-1.04,1.6-3.24,2.43-5.22,2.18-1.75-.22-3.17-1.23-3.83-2.6-3.33,1.06-4.26,3.13-4.26,3.13l-2.59,13.59" fill="none" stroke="#584774" stroke-linecap="round" stroke-linejoin="round"/><path d="M159.15,433.59s0,4.2-6.41,4.77-8.18-3.16-8.18-3.16" fill="none" stroke="#584774" stroke-linecap="round" stroke-linejoin="round"/><path d="M116.23,446.64c.74,3.95-1.31,6.01-3.15,6.16s-4.33-1.31-4.57-4.91c-.12-1.78,.76-4.25,2.76-4.78,2.44-.65,4.49,1.05,4.96,3.53Z" fill="none" stroke="#584774" stroke-linecap="round" stroke-linejoin="round"/><path d="M160.06,448.32c1.47,2.14,5.65,.88,5.46-4.17-.11-2.85-1.3-4.46-2.83-4.98-1.86-.62-3.14,.74-3.14,.74l.52,8.4Z" fill="none" stroke="#584774" stroke-linecap="round" stroke-linejoin="round"/><path d="M102.59,472.83l8.12-20.71c.77,.51,1.62,.74,2.37,.67,1.84-.15,3.89-2.2,3.15-6.16-.27-1.41-1.06-2.55-2.13-3.17l3.49-8.91s1.61-1.91,5.58-1.85c.7,.79,1.73,1.45,3,1.91,1.48,.53,3.4,.82,4.84,.27,3.09,1.79,3.36,3.81,3.36,3.81,0,0-4.14,42.44-4.39,47.61s-7.38,11.04-18.91,8.01c-15.3-4.02-10.52-16.28-10.52-16.28l2.04-5.2Z" fill="none" stroke="#584774" stroke-linecap="round" stroke-linejoin="round"/><path d="M133.74,446.64l11.97-.58c1.17-.06,2.1,.98,1.91,2.14l-2.74,17.12-13.27,2.21,2.12-20.88Z" fill="none" stroke="#584774" stroke-linecap="round" stroke-linejoin="round"/><path d="M137.72,452.48l-1.1,8.44,4.49-.41s1.34-1.57,1.5-4.88,0-3.7,0-3.7l-4.88,.55Z" fill="none" stroke="#584774" stroke-linecap="round" stroke-linejoin="round"/><path d="M102.59,472.83s1.21,9.04,11.44,11.3c13.52,2.99,16.79-7.87,16.79-7.87" fill="none" stroke="#584774" stroke-linecap="round" stroke-linejoin="round"/><path d="M135.48,472.83s-.07,4.62,9.08,6.89c10.17,2.52,17.13-4.82,16.91-8.51" fill="none" stroke="#584774" stroke-linecap="round" stroke-linejoin="round"/><path d="M111.27,443.11l-37.82-116.27c-.65-2,.84-4.05,2.94-4.05h0" fill="none" stroke="#584774" stroke-linecap="round" stroke-linejoin="round"/><line x1="174.28" y1="331.16" x2="164.35" y2="440.39" fill="none" stroke="#584774" stroke-linecap="round" stroke-linejoin="round"/><line x1="105.22" y1="460.91" x2="103.87" y2="415.59" fill="none" stroke="#584774" stroke-linecap="round" stroke-linejoin="round"/><path d="M95.91,417.07l-4,122.37s-11.55,15.11-16.59,25.77c-3.01,6.36-5.52,11.5,4.14,6.64,9.65-4.86,23.73-16.18,27.47-20.49,.52-.6,.98-1.25,.95-2.05l-1.7-56.86" fill="none" stroke="#584774" stroke-linecap="round" stroke-linejoin="round"/><line x1="158.37" y1="431.6" x2="158.55" y2="405.42" fill="none" stroke="#584774" stroke-linecap="round" stroke-linejoin="round"/><path d="M172.46,546.46c-5.05-5.83-10.82-12.06-13.92-15.09l-.26-41.54" fill="none" stroke="#584774" stroke-linecap="round" stroke-linejoin="round"/><path d="M144.56,491.93l-4.19,52.9c-.03,.38,.15,.74,.48,.94,1.83,1.1,8.3,4.9,16.75,8.79" fill="none" stroke="#584774" stroke-linecap="round" stroke-linejoin="round"/><line x1="151.23" y1="406.78" x2="149.75" y2="423.79" fill="none" stroke="#584774" stroke-linecap="round" stroke-linejoin="round"/><line x1="132.88" y1="259.52" x2="137.42" y2="273.23" fill="none" stroke="#b39ed3" stroke-linecap="round" stroke-linejoin="round"/><line x1="150.11" y1="244.4" x2="146.96" y2="273.23" fill="none" stroke="#b39ed3" stroke-linecap="round" stroke-linejoin="round"/><line x1="157.32" y1="304.24" x2="172.17" y2="317.19" fill="none" stroke="#b39ed3" stroke-linecap="round" stroke-linejoin="round"/><line x1="164.35" y1="301.16" x2="174.28" y2="304.24" fill="none" stroke="#b39ed3" stroke-linecap="round" stroke-linejoin="round"/><line x1="56.06" y1="412.38" x2="72.13" y2="420.11" fill="none" stroke="#584774" stroke-linecap="round" stroke-linejoin="round"/><path d="M46.87,372.07l-15.21,25.39c-.79,1.33-.28,3.05,1.11,3.72l9.78,4.71" fill="none" stroke="#584774" stroke-linecap="round" stroke-linejoin="round"/><path d="M67.17,364.26l-12.62-5s4.98,4.92,8.43,12.09" fill="none" stroke="#584774" stroke-linecap="round" stroke-linejoin="round"/><path d="M68.31,380.84l11.88,4.86c5.13,1.41,11.26,3.52,11.26,3.52l-5.71,17.76,22.2-5.05c-7.4-22.39-23.43-30.79-23.43-30.79l-10.78-4.27" fill="none" stroke="#584774" stroke-linecap="round" stroke-linejoin="round"/><line x1="46.87" y1="372.07" x2="59.5" y2="377.23" fill="none" stroke="#584774" stroke-linecap="round" stroke-linejoin="round"/><polygon points="542.39 141.4 558.37 178.57 566.32 166.9 585.58 182.56 594.33 169.57 572.48 159.46 582.65 148.21 542.39 141.4" fill="#584774" stroke="#584774" stroke-linecap="round" stroke-linejoin="round"/><path d="M501.41,279.68l7.76-85.05s.14-4.2,2.89-7.29" fill="none" stroke="#e7e1ec" stroke-linecap="round" stroke-linejoin="round"/><line x1="211.16" y1="298.47" x2="211.16" y2="289.04" fill="none" stroke="#584774" stroke-linecap="round" stroke-linejoin="round"/><line x1="1110.68" y1="288.44" x2="1097.55" y2="310.36" fill="none" stroke="#584774" stroke-linecap="round" stroke-linejoin="round"/><polyline points="1067.8 286.14 1064.17 299.35 1064.17 324.3" fill="none" stroke="#584774" stroke-linecap="round" stroke-linejoin="round"/><polyline points="1037.76 326.5 1035.19 314.39 1041.79 297.15 1034.84 281.3" fill="none" stroke="#584774" stroke-linecap="round" stroke-linejoin="round"/><line x1="1125.06" y1="238.47" x2="1110.68" y2="288.44" fill="none" stroke="#e7e1ec" stroke-linecap="round" stroke-linejoin="round"/><line x1="1079.57" y1="244.33" x2="1067.8" y2="286.14" fill="none" stroke="#e7e1ec" stroke-linecap="round" stroke-linejoin="round"/><line x1="1034.84" y1="281.3" x2="1033.36" y2="260.11" fill="none" stroke="#e7e1ec" stroke-linecap="round" stroke-linejoin="round"/></svg>