<svg version="1.1" id="Layer_1" xmlns="http://www.w3.org/2000/svg" x="0" y="0" viewBox="0 0 202 101" style="enable-background:new 0 0 202 101" xml:space="preserve"><style>.st2{fill:#2b2233}.st3{fill-rule:evenodd;clip-rule:evenodd;fill:#dbd6e1}.st4{fill:#6c5fc7}.st6{fill:#fff}</style><path d="M156.1 90c.1.3.1.7.3 1H84c-.4 0-.7-.1-1-.3v-3.5c.3-.2.6-.3 1-.3h72.3c-.2.6-.3 1.3-.3 2 0 .4 0 .8.1 1.1z" style="fill-rule:evenodd;clip-rule:evenodd;fill:#6c5fc7"/><path style="fill:none" d="M0 0h202v101H0z"/><path class="st2" d="m145.7 77-.7.4.7.4-.2.2-.6-.4v.8h-.3v-.8l-.6.4-.2-.2.7-.4-.7-.4.2-.3.6.4v-.7h.3v.7l.6-.4zm-37.5 0-.7.4.7.4-.2.2-.6-.4v.8h-.3v-.8l-.6.4-.2-.2.7-.4-.7-.4.2-.3.6.4v-.7h.3v.7l.6-.4zm42.5 0-.7.4.7.4-.2.2-.6-.4v.8h-.3v-.8l-.6.4-.2-.2.7-.4-.7-.4.2-.3.6.4v-.7h.3v.7l.6-.4zm-27.5 0-.7.4.7.4-.2.2-.6-.4v.8h-.3v-.8l-.6.4-.2-.2.7-.4-.7-.4.2-.3.6.4v-.7h.3v.7l.6-.4zm-2.5 0-.7.4.7.4-.2.2-.6-.4v.8h-.3v-.8l-.6.4-.2-.2.7-.4-.7-.4.2-.3.6.4v-.7h.3v.7l.6-.4zm15 0-.7.4.7.4-.2.2-.6-.4v.8h-.3v-.8l-.6.4-.2-.2.7-.4-.7-.4.2-.3.6.4v-.7h.3v.7l.6-.4zm-25 0-.7.4.7.4-.2.2-.6-.4v.8h-.3v-.8l-.6.4-.2-.2.7-.4-.7-.4.2-.3.6.4v-.7h.3v.7l.6-.4zm17.5 0-.7.4.7.4-.2.2-.6-.4v.8h-.3v-.8l-.6.4-.2-.2.7-.4-.7-.4.2-.3.6.4v-.7h.3v.7l.6-.4zm32.5 0-.7.4.7.4-.2.2-.6-.4v.8h-.3v-.8l-.6.4-.2-.2.7-.4-.7-.4.2-.3.6.4v-.7h.3v.7l.6-.4zm-5 0-.7.4.7.4-.2.2-.6-.4v.8h-.3v-.8l-.6.4-.2-.2.7-.4-.7-.4.2-.3.6.4v-.7h.3v.7l.6-.4zm2.5 0-.7.4.7.4-.2.2-.6-.4v.8h-.3v-.8l-.6.4-.2-.2.7-.4-.7-.4.2-.3.6.4v-.7h.3v.7l.6-.4zm-5 0-.7.4.7.4-.2.2-.6-.4v.8h-.3v-.8l-.6.4-.2-.2.7-.4-.7-.4.2-.3.6.4v-.7h.3v.7l.6-.4zm-40 0-.7.4.7.4-.2.2-.6-.4v.8h-.3v-.8l-.6.4-.2-.2.7-.4-.7-.4.2-.3.6.4v-.7h.3v.7l.6-.4zm49.3.4.7.4-.2.2-.6-.4v.8h-.3v-.8l-.6.4-.2-.2.7-.4-.7-.4.2-.3.6.4v-.7h.3v.7l.6-.4.2.3zm-36.8-.4-.7.4.7.4-.2.2-.6-.4v.8h-.3v-.8l-.6.4-.2-.2.7-.4-.7-.4.2-.3.6.4v-.7h.3v.7l.6-.4zm7.5 0-.7.4.7.4-.2.2-.6-.4v.8h-.3v-.8l-.6.4-.2-.2.7-.4-.7-.4.2-.3.6.4v-.7h.3v.7l.6-.4zm-2.5 0-.7.4.7.4-.2.2-.6-.4v.8h-.3v-.8l-.6.4-.2-.2.7-.4-.7-.4.2-.3.6.4v-.7h.3v.7l.6-.4zm12.5 0-.7.4.7.4-.2.2-.6-.4v.8h-.3v-.8l-.6.4-.2-.2.7-.4-.7-.4.2-.3.6.4v-.7h.3v.7l.6-.4zm-5 0-.7.4.7.4-.2.2-.6-.4v.8h-.3v-.8l-.6.4-.2-.2.7-.4-.7-.4.2-.3.6.4v-.7h.3v.7l.6-.4zm2.5 0-.7.4.7.4-.2.2-.6-.4v.8h-.3v-.8l-.6.4-.2-.2.7-.4-.7-.4.2-.3.6.4v-.7h.3v.7l.6-.4zm-25 0-.7.4.7.4-.2.2-.6-.4v.8h-.3v-.8l-.6.4-.2-.2.7-.4-.7-.4.2-.3.6.4v-.7h.3v.7l.6-.4zm2.5 0-.7.4.7.4-.2.2-.6-.4v.8h-.3v-.8l-.6.4-.2-.2.7-.4-.7-.4.2-.3.6.4v-.7h.3v.7l.6-.4zm30 0-.7.4.7.4-.2.2-.6-.4v.8h-.3v-.8l-.6.4-.2-.2.7-.4-.7-.4.2-.3.6.4v-.7h.3v.7l.6-.4z"/><path class="st3" d="M201 72.5h-99c-.3 0-.5.2-.5.5v10c0 .3.2.5.5.5h99c.3 0 .5-.2.5-.5V73c0-.3-.2-.5-.5-.5zm-99-.5c-.6 0-1 .4-1 1v10c0 .6.4 1 1 1h99c.6 0 1-.4 1-1V73c0-.6-.4-1-1-1h-99z"/><path class="st4" d="M101 25c0-.6.4-1 1-1h19c.6 0 1 .4 1 1v10c0 .6-.4 1-1 1h-19c-.6 0-1-.4-1-1V25z"/><path d="M121 25h-19v10h19V25zm-19-1c-.6 0-1 .4-1 1v10c0 .6.4 1 1 1h19c.6 0 1-.4 1-1V25c0-.6-.4-1-1-1h-19z" style="fill-rule:evenodd;clip-rule:evenodd;fill:#584ac0"/><path class="st6" d="M107.1 30.4v-.8l-.7.4-.2-.3.7-.4-.7-.4.2-.3.7.4v-.8h.3v.8l.7-.4.2.3-.7.4.7.4-.2.3-.7-.4v.8h-.3zm2.5 0v-.8l-.7.4-.2-.3.7-.4-.7-.4.2-.3.7.4v-.8h.3v.8l.7-.4.2.3-.7.4.7.4-.2.3-.7-.4v.8h-.3zm2.5 0v-.8l-.7.4-.2-.3.7-.4-.7-.4.2-.3.7.4v-.8h.3v.8l.7-.4.2.3-.7.4.7.4-.2.3-.7-.4v.8h-.3zm2.5 0v-.8l-.7.4-.2-.3.7-.4-.7-.4.2-.3.7.4v-.8h.3v.8l.7-.4.2.3-.7.4.7.4-.2.3-.7-.4v.8h-.3z"/><path class="st2" d="M107.1 12.4v-.8l-.7.4-.2-.3.7-.4-.7-.4.2-.3.7.4v-.8h.3v.8l.7-.4.2.3-.7.4.7.4-.2.3-.7-.4v.8h-.3zm2.5 0v-.8l-.7.4-.2-.3.7-.4-.7-.4.2-.3.7.4v-.8h.3v.8l.7-.4.2.3-.7.4.7.4-.2.3-.7-.4v.8h-.3zm2.5 0v-.8l-.7.4-.2-.3.7-.4-.7-.4.2-.3.7.4v-.8h.3v.8l.7-.4.2.3-.7.4.7.4-.2.3-.7-.4v.8h-.3zm2.5 0v-.8l-.7.4-.2-.3.7-.4-.7-.4.2-.3.7.4v-.8h.3v.8l.7-.4.2.3-.7.4.7.4-.2.3-.7-.4v.8h-.3zm2.5 0v-.8l-.7.4-.2-.3.7-.4-.7-.4.2-.3.7.4v-.8h.3v.8l.7-.4.2.3-.7.4.7.4-.2.3-.7-.4v.8h-.3z"/><path d="M45.1 12.4v-.8l-.7.4-.2-.3.7-.4-.6-.3.2-.3.7.4v-.8h.3v.8l.7-.4.2.3-.7.4.7.4-.3.2-.7-.4v.8h-.3zm2.5 0v-.8l-.7.4-.2-.3.7-.4-.6-.3.2-.3.7.4v-.8h.3v.8l.7-.4.2.3-.9.4.7.4-.1.2-.7-.4v.8h-.3zm2.5 0v-.8l-.7.4-.2-.3.7-.4-.6-.3.2-.3.7.4v-.8h.3v.8l.7-.4.2.3-.7.4.7.4-.3.2-.7-.4v.8h-.3zm2.5 0v-.8l-.7.4-.2-.3.7-.4-.6-.3.2-.3.7.4v-.8h.3v.8l.7-.4.2.3-.9.4.7.4-.1.2-.7-.4v.8h-.3zm2.5 0v-.8l-.7.4-.2-.3.7-.4-.6-.3.2-.3.7.4v-.8h.3v.8l.7-.4.2.3-.7.4.7.4-.3.2-.7-.4v.8h-.3zm2.5 0v-.8l-.7.4-.2-.3.7-.4-.6-.3.2-.3.7.4v-.8h.3v.8l.7-.4.2.3-.9.4.7.4-.1.2-.7-.4v.8h-.3zm2.5 0v-.8l-.7.4-.2-.3.7-.4-.6-.3.2-.3.7.4v-.8h.3v.8l.7-.4.2.3-.7.4.7.4-.3.2-.7-.4v.8h-.3zm2.5 0v-.8l-.7.4-.2-.3.7-.4-.6-.3.2-.3.7.4v-.8h.3v.8l.7-.4.2.3-.9.4.7.4-.1.2-.7-.4v.8h-.3zm2.5 0v-.8l-.7.4-.2-.3.7-.4-.6-.3.2-.3.7.4v-.8h.3v.8l.7-.4.2.3-.7.4.7.4-.3.2-.7-.4v.8h-.3zm2.5 0v-.8l-.7.4-.2-.3.7-.4-.6-.3.2-.3.7.4v-.8h.3v.8l.7-.4.2.3-.9.4.7.4-.1.2-.7-.4v.8h-.3zm2.5 0v-.8l-.7.4-.2-.3.7-.4-.6-.3.2-.3.7.4v-.8h.3v.8l.7-.4.2.3-.7.4.7.4-.3.2-.7-.4v.8h-.3zm2.5 0v-.8l-.7.4-.2-.3.7-.4-.6-.3.2-.3.7.4v-.8h.3v.8l.7-.4.2.3-.9.4.7.4-.1.2-.7-.4v.8h-.3zm2.5 0v-.8l-.7.4-.2-.3.7-.4-.6-.3.2-.3.7.4v-.8h.3v.8l.7-.4.2.3-.7.4.7.4-.3.2-.7-.4v.8h-.3zm2.5 0v-.8l-.7.4-.2-.3.7-.4-.6-.3.2-.3.7.4v-.8h.3v.8l.7-.4.2.3-.9.4.7.4-.1.2-.7-.4v.8h-.3zm2.5 0v-.8l-.7.4-.2-.3.7-.4-.6-.3.2-.3.7.4v-.8h.3v.8l.7-.4.2.3-.7.4.7.4-.3.2-.7-.4v.8h-.3z" style="fill:#80708f"/><circle cx="118" cy="35" r="8" style="fill:#6c5fc7;fill-opacity:.5"/><path class="st3" d="M200 0H44c-1.1 0-2 .9-2 2v75H4c-2.2 0-4 1.8-4 4v16c0 2.2 1.8 4 4 4h76c2.2 0 4-1.8 4-4V81c0-2.2-1.8-4-4-4H43V2c0-.5.5-1 1-1h156c.5 0 1 .5 1 1v4h-99c-.5 0-1 .5-1 1v10c0 .5.5 1 1 1h99v54h-99c-.5 0-1 .5-1 1v10c0 .5.5 1 1 1h99v4c0 .5-.5 1-1 1h-32c0 .3 0 .7-.1 1H200c1.1 0 2-.9 2-2V2c0-1.1-.9-2-2-2zM27.5 100H4c-1.7 0-3-1.3-3-3V81c0-1.7 1.3-3 3-3h23.5v22zm29-22H80c1.7 0 3 1.3 3 3v16c0 1.7-1.3 3-3 3H56.5V78zm-1 0v22h-27V78h27zM201 83.5h-99c-.3 0-.5-.2-.5-.5V73c0-.3.2-.5.5-.5h99v11zm0-66h-99c-.3 0-.5-.2-.5-.5V7c0-.3.2-.5.5-.5h99v11z"/><path class="st2" d="M9.6 84.9v-.2c0-.1 0-.1.1-.2l1.8-1.4h.9c.1 0 .1 0 .2.1 0 0 .1.1.1.2v5.3c0 .1 0 .1-.1.2s-.1.1-.2.1h-.7c-.1 0-.1 0-.2-.1 0 0-.1-.1-.1-.2v-4.1l-1.2.9s-.1.1-.2 0c-.1 0-.1 0-.2-.1l-.2-.5zm10.3 3.9v2c0 1.1-.9 2.1-2.1 2.1h-8l1.2 1.2c.2.2.2.6 0 .8 0 0-.1.1-.3.1-.1 0-.3 0-.4-.2l-2.2-2.1s0-.1-.1-.1v-.4c0-.1 0-.2.1-.3 0 0 0-.1.1-.1l2.2-2.2c.2-.2.6-.2.8 0 .2.2.2.6 0 .8L10 91.6h8c.5 0 .9-.4.9-.9v-2c0-.3.2-.6.6-.6.2.1.4.4.4.7z"/><path class="st2" d="M13.8 87.6c.1.3.2.5.4.7.2.2.4.4.7.5.3.1.6.2 1 .2s.7-.1 1-.2c.3-.1.5-.3.7-.5.2-.2.3-.4.4-.7.1-.3.1-.6.1-.9v-1.6c0-.3-.1-.6-.1-.9-.1-.3-.2-.5-.4-.7-.2-.2-.4-.4-.7-.5-.3-.1-.6-.2-1-.2s-.7.1-1 .2c-.3.1-.5.3-.7.5-.2.2-.3.4-.4.7-.1.3-.1.6-.1.9v1.4c0 .5 0 .8.1 1.1zm1-2.3c0-.4.1-.7.3-.9.2-.2.4-.3.8-.3s.7.1.8.3c.2.2.2.5.3.9v1.4c0 .4-.1.7-.3.9-.2.2-.4.3-.8.3s-.6-.1-.8-.3c-.2-.2-.2-.5-.3-.9v-1.4z"/><path d="M46.7 83.8h-3.3c-.3 0-.5.2-.6.6v9.3c0 .4.3.6.6.6h3.3c.3 0 .6-.3.6-.5v-9.4c-.1-.4-.3-.6-.6-.6zm-.6 9.4H44v-8.3h2.2v8.3zm-5.4-9.4h-3.3c-.4 0-.6.2-.6.6v9.3c0 .4.3.6.6.6h3.2c.3 0 .6-.3.7-.5v-9.4c-.1-.4-.3-.6-.6-.6zm-.7 9.4h-2.2v-8.3H40v8.3zm36-9.6v10.8c0 .1-.1.3-.2.4-.1.1-.2.2-.4.2s-.3-.1-.4-.2c-.1-.1-.2-.2-.2-.4V83.6c0-.1 0-.3.2-.4.1-.1.2-.2.4-.2s.3.1.4.2c.1.1.2.3.2.4zm-2.4 4.9-8.7-5c-.1 0-.2-.1-.3-.1-.1 0-.2 0-.3.1-.1 0-.2.1-.2.2s-.1.2-.1.3v10c0 .1 0 .2.1.3.1.1.1.2.2.2.1.1.2.1.3.1s.2 0 .3-.1l8.7-5c.1 0 .2-.1.2-.2.1-.1.1-.2.1-.3s0-.2-.1-.3l-.2-.2zm-8.5 4.6V85l7.1 4.1-7.1 4z" style="fill-rule:evenodd;clip-rule:evenodd;fill:#2b2233"/><circle class="st4" cx="162" cy="89" r="4"/><path class="st6" d="M127.9 49c.2.4 0 2-.9 2.4s-2.1 0-2.1 0l-2.2-4.3-3.7 3.7V34l11.4 11.4h-4.3c.3.4 1.6 3.1 1.8 3.6z"/><path d="M120 36.4v12l3-3 2.5 5s.7.2 1 0 .6-.7.5-1c-.7-1.7-2.5-5-2.5-5h3.5l-8-8z" style="fill-rule:evenodd;clip-rule:evenodd"/></svg>
