<svg xmlns="http://www.w3.org/2000/svg" fill="none" viewBox="0 0 358 99"><path fill="#FFC1A9" d="M358 99V0H140.1L0 14.5l13.5 65L146 98.8l212 .2Z"/><path fill="#E7E1EC" d="M82.1 99h68.4l.8-18.2-2.7-5L47 60.7l-4.6 2.7 2.4 29.4L82.1 99Z"/><path fill="#FF9C88" d="M100.6 68.7V52.5l-3.2-.5-1.2 16 4.4.7ZM120 71.6l-1.3-16.4-3-.4.4 16.2 3.9.6Z"/><path fill="#B39ED3" d="m126.1 56.3-11.8-1.7c-.1-1.9-.3-3.9-.4-5.9-.3-3.5-.6-6.5-.6-6.5l5.8.8-10.3-29.1L105 19c6.5 16.6 6 31.8 5.8 35.1L96.3 52c.2-10.5-4.4-18.3-4.4-18.3l-3.4 3.6c3.3 5.1 3.4 11.6 3.3 14L76.6 49c-1.1-.2-1.6-1.4-.9-2.3l5.2-6.3 2.6-3.2 9.9-12.1 1.8-2.2c4.9 8.5 5.7 17.1 5.7 17.1l3.9.5c-1.6-9.8-5.2-17-7.2-20.6l11.1-13.7c.8-.9 2.3-.7 2.7.4L128.8 53c.6 1.7-.8 3.5-2.7 3.3Z"/><path fill="#8374A8" d="m121.5 49.7-7.4-1h-.2c-.3-3.5-.6-6.5-.6-6.5l5.8.8 2.4 6.7ZM105.6 48.1l-6-.8s-.5-10.7-6.2-22.3l1.8-2.2c4.9 8.5 5.7 17.1 5.7 17.1l3.9.5c.4 2.5.6 5 .8 7.7ZM81.6 46.2l2.3-3.3-3.1-2.5 2.6-3.2c4 4.2 4.2 9.8 4.2 9.8l-6-.8ZM94.2 39.1c-1.1-3.4-2.3-5.4-2.3-5.4l-3.4 3.6c3.3 5.1 3.4 11.6 3.4 14l2.3-12.2Z"/><path stroke="#2F1D4A" stroke-linecap="round" stroke-linejoin="round" stroke-width="1.333" d="M49.8 8.8c.2.4.4.9.6 1.4l-7.1 6.5-2.1-2.2s.5-1.2 1.6-1.3l-2-.6"/><path fill="#FFC1A9" d="m89 30.3-1.1 1.4-37 13.8c-.6.2-1.3-.1-1.5-.7l-.6-1.8-10.9-32.5s3.8-4.2 8.3-6.2c0 0 2.1 1.5 3.7 4.5 0 0 .4-.5 1-1.1 1.3-1.2 3.8-3 7.4-3.4l.2 2.3.1 1.1s-2.8 1.2-4.5 2.8c0 0-1 1.6-2 4.4-.2.6-.4 1.4-.6 2.1l3.6 21 5.1-1.1L89 30.3ZM139 62.8 99.4 75.1c-.3.1-.5 0-.7-.2l-1.4-1.4c-2.1-2.1-4.3-4.4-4.3-4.4l-12 3.1c-.2-.3-.3-.7-.4-1-.2-.6-.2-1.1-.2-1.1l12-4.4c1.2-2.2 2.5-3.9 3.3-4.7.4-.4 1-.5 1.5-.3 5.9 2.8 8.8 5.3 8.8 5.3l25.5-6.8-2.7-6.1-2.9-7.7-6.4-17 20.3 32.5c.5.6.1 1.6-.8 1.9Z"/><path fill="#8374A8" d="M110.8 54c-1.1-21.1-7.5-33-7.5-33l1.7-2.1c6.4 16.6 6 31.8 5.8 35.1Z"/><path fill="#B39ED3" d="M124.9 84.3v12.5l7.7-5.4-7.7-7.1ZM135.5 86.2V98l7.9-5-7.9-6.8ZM94.2 93.5l9.7-5-9.7-8.2v13.2Z"/><path fill="#FF9C88" d="m139.8 60.8-20.3-32.5 5 13.4 13.1 19.2c.2.2.1.6-.2.7l-37.2 11.1-6.5-5.1-13.2 3.6c.1.3.2.7.4 1l11.9-3.1 4.3 4.4c.5.5 1 .9 1.4 1.4.2.2.5.2.7.2L139 62.8c.9-.3 1.3-1.3.8-2ZM50.4 10.2l-.6-1.4c.2.5.4.9.6 1.4Z"/><path fill="#FF9C88" d="M52.1 15c.7-2.4 2-4.4 2-4.4 2-1.8 4.5-2.8 4.5-2.8l-.1-1.1c-.8.3-6 2.9-6 2.9L51 7.8l-1 1.1.6 1.4v.2-.1l-7 6.4-2.1-2.2s.5-1.2 1.6-1.3l-3-.8 2.4 7.3 5.4-2.9 5.2 21.8 2.3-.5-3.6-20.8c-.2-1.1.1-1.8.3-2.4ZM87.9 31.7l-37 13.8c-.6.2-1.3-.1-1.5-.7l-.6-1.8 39.1-11.3Z"/><path fill="#2F1D4A" d="m121.5 50-7.6-1.1c-.2 0-.3-.1-.3-.3-.3-3.5-.6-6.5-.6-6.5 0-.1 0-.2.1-.3.1-.1.2-.1.3-.1l5.8.8c.1 0 .2.1.3.2l2.4 6.8c0 .1 0 .2-.1.3-.1.2-.2.2-.3.2Zm-7.3-1.7 6.8 1-2.1-6.1-5.2-.7c0 .9.2 3.2.5 5.8ZM105.6 48.4l-6.1-.8c-.2 0-.3-.2-.3-.3 0-.1-.6-10.8-6.2-22.1-.1-.2 0-.4.2-.4.2-.1.4 0 .5.2 5.2 10.5 6.1 20.3 6.2 22.1l5.3.7c-.1-2.4-.4-4.8-.8-7.2 0-.2.1-.4.3-.4.2 0 .4.1.4.3.4 2.5.7 5.1.8 7.7 0 .1 0 .2-.1.3-.1-.1-.1-.1-.2-.1Z"/><path fill="#2F1D4A" d="M126.5 56.6h-.4l-11.8-1.7c-.2 0-.3-.2-.3-.3-.1-1.8-.3-3.9-.4-5.9-.3-3.5-.6-6.5-.6-6.5 0-.1 0-.2.1-.3.1-.1.2-.1.3-.1l5.2.7-9.9-28-3.4 4.4c6.5 16.8 6 32.2 5.8 35.1 0 .1-.1.2-.1.2-.1.1-.2.1-.3.1l-14.5-2.1c-.2 0-.3-.2-.3-.3.2-8.9-3.2-16-4.1-17.7l-2.9 3.1c3.2 5.1 3.4 11.5 3.3 14 0 .1 0 .2-.1.2-.1.1-.2.1-.3.1l-15.3-2.2c-.6-.1-1.2-.5-1.4-1.1-.2-.6-.1-1.2.3-1.7l19.5-23.9c.1-.1.2-.1.3-.1.1 0 .2.1.3.2 4.4 7.6 5.5 15.5 5.7 17l3.2.4c-1.7-9.6-5.2-16.6-7.1-20-.1-.1-.1-.3 0-.4L108.4 6c.4-.5 1.1-.8 1.8-.7.7.1 1.2.6 1.5 1.2l17.4 46.3c.3.9.2 1.9-.4 2.7-.6.8-1.4 1.1-2.2 1.1Zm-11.9-2.4 11.6 1.7c.8.1 1.5-.2 2-.8.5-.6.6-1.4.3-2.1L111 6.8c-.2-.4-.5-.7-1-.8-.4-.1-.9.1-1.2.4l-11 13.5c2 3.5 5.5 10.7 7.2 20.5 0 .1 0 .2-.1.3-.1.1-.2.1-.3.1l-3.9-.5c-.2 0-.3-.1-.3-.3 0-.1-.9-8.4-5.4-16.6L75.9 46.9c-.2.3-.3.7-.2 1.1.1.4.5.6.9.7l14.9 2.2c.1-2.7-.2-8.7-3.3-13.5-.1-.1-.1-.3 0-.4l3.4-3.6c.1-.1.2-.1.3-.1.1 0 .2.1.3.2 0 .1 4.6 7.9 4.4 18.2l13.9 2c.2-3.6.5-18.5-5.8-34.6v-.3l3.8-5.1c.1-.1.2-.1.3-.1.1 0 .2.1.3.2l10.3 29.1c0 .1 0 .2-.1.3-.1.1-.2.1-.3.1l-5.4-.7c.1.9.3 3.4.5 6.1.2 1.8.4 3.8.5 5.5Z"/><path fill="#2F1D4A" d="m87.6 47.3-6.1-.8c-.1 0-.2-.1-.3-.2V46l2.2-3.1-2.8-2.3c-.1-.1-.2-.3-.1-.5l2.6-3.2c.1-.1.2-.1.2-.1.1 0 .2 0 .3.1 4.1 4.2 4.2 9.8 4.2 10 0 .1 0 .2-.1.3 0 .1 0 .1-.1.1Zm-5.5-1.4 5.1.7c-.1-1.3-.7-5.5-3.8-8.9l-2.1 2.6 2.8 2.3c.1.1.2.3.1.5l-2.1 2.8ZM91.8 51.6c-.2 0-.3-.2-.3-.3.1-2.5 0-8.9-3.3-13.9-.1-.1-.1-.3 0-.4l3.4-3.6c.1-.1.2-.1.3-.1.1 0 .2.1.3.2.1.1 1.2 2.1 2.4 5.5v.2l-2.4 12.2c-.1.1-.2.2-.4.2Zm-2.9-14.4c2.2 3.5 3 7.7 3.2 10.8l1.7-9c-.8-2.4-1.7-4.2-2.1-4.9l-2.8 3.1ZM43.3 17c-.1 0-.2 0-.2-.1L41 14.8c-.1-.1-.1-.2-.1-.4 0 0 .3-.7.9-1.1l-1.1-.3c-.2-.1-.3-.2-.2-.4.1-.2.2-.3.4-.2l2 .6c.2 0 .3.2.2.3 0 .2-.1.3-.3.3-.6.1-1 .6-1.2.9l1.7 1.8 6.7-6.1c-.2-.4-.3-.8-.5-1.1-.1-.2 0-.4.1-.4.2-.1.4 0 .5.1.2.5.4.9.6 1.4 0 .1 0 .3-.1.4l-7.1 6.5c0-.1-.1-.1-.2-.1Z"/><path fill="#2F1D4A" d="M50.5 45.9c-.2 0-.4 0-.7-.1-.4-.2-.7-.5-.8-.9L37.5 10.6c-.1-.2 0-.4.2-.4.2-.1.4 0 .4.2l11.5 34.2c.1.2.2.4.4.5.2.1.4.1.7 0l36.9-13.8.5-.6-33 7.4h-.3c-.1-.1-.1-.1-.1-.2l-3.6-20.8V17c1.1-4.2 2.6-6.6 2.7-6.7l.1-.1c1.4-1.3 3.7-2.4 4.4-2.8L58 4.6c-3.4.6-5.8 2.4-6.9 3.4-.1.1-.4.1-.5 0-.1-.1-.1-.3 0-.5 1.2-1.1 3.8-3.1 7.5-3.5.1 0 .2 0 .3.1.1.1.1.1.1.2l.3 3.4c0 .1-.1.3-.2.3 0 0-2.7 1.2-4.4 2.7-.2.3-1.5 2.6-2.5 6.4l3.6 20.4L89 30c.1 0 .3 0 .4.1.1.1.1.3 0 .4l-1.1 1.4-.1.1L51 45.8c-.2.1-.3.1-.5.1Z"/><path fill="#2F1D4A" d="M39.4 9.3c-.1 0-.2 0-.2-.1-.1-.1-.1-.3 0-.5C40.8 7.3 43.3 5.3 46 4h.3c.1.1 2.2 1.6 3.8 4.6.1.2 0 .4-.1.4-.2.1-.4 0-.5-.1-1.2-2.4-2.9-3.9-3.4-4.3-2.6 1.2-4.9 3.1-6.4 4.5-.1.2-.2.2-.3.2ZM86.8 67c-.1 0-.1 0 0 0L59 62.8c-.2 0-.3-.2-.3-.4s.2-.3.4-.3l27.7 4.1c.2 0 .3.2.3.4s-.2.4-.3.4Z"/><path fill="#2F1D4A" d="M86.8 67c-.1 0-.1 0 0 0L59 62.8c-.2 0-.3-.2-.3-.4s.2-.3.4-.3l27.7 4.1c.2 0 .3.2.3.4s-.2.4-.3.4Z"/><path fill="#2F1D4A" d="m81.7 70-39.4-6.3c-.1 0-.3-.1-.3-.3 0-.1 0-.3.2-.4l4.6-2.7c.1 0 .1-.1.2 0l7.9 1.2c.2 0 .3.2.3.4s-.2.3-.4.3L47 61l-3.7 2.2 38.4 6.1c.2 0 .3.2.3.4s-.1.3-.3.3Z"/><path fill="#2F1D4A" d="M77.7 98.6c-.2 0-.3-.1-.3-.3L76.6 69c0-.2.1-.3.3-.3.2 0 .3.1.3.3l.9 29.3c0 .1-.2.3-.4.3ZM124.9 97.1h-.2c-.1-.1-.2-.2-.2-.3V84.3c0-.1.1-.3.2-.3.1-.1.3 0 .4.1l7.7 7.1c.1.1.1.2.1.3 0 .1-.1.2-.1.3l-7.7 5.4c0-.1-.1-.1-.2-.1Zm.4-12v11.1l6.8-4.8-6.8-6.3ZM135.5 98.3h-.2c-.1-.1-.2-.2-.2-.3V86.2c0-.1.1-.2.2-.3.1-.1.3 0 .4.1l7.9 6.8c.1.1.1.2.1.3 0 .1-.1.2-.2.3l-7.9 5c0-.1-.1-.1-.1-.1Zm.3-11.4v10.5l7-4.5-7-6ZM94.2 93.9H94c-.1-.1-.2-.2-.2-.3V80.3c0-.1.1-.2.2-.3.1-.1.3 0 .4 0l9.7 8.2c.1.1.1.2.1.3 0 .1-.1.2-.2.3l-9.7 5c0 .1 0 .1-.1.1Zm.4-12.8V93l8.8-4.5-8.8-7.4ZM54 84.1c-.3 0-.5-.2-.5-.5l-.3-9.6-.7.6c-.2.2-.5.2-.7 0-.2-.2-.2-.5 0-.7l1.5-1.4c.1-.1.4-.2.5-.1.2.1.3.2.3.4l.4 10.7c0 .4-.2.6-.5.6ZM63.1 85.9h-.4c-2-.2-4.4-2-4.6-6.4-.1-2.2.5-4.1 1.7-5.2.8-.8 1.7-1.1 2.8-1.1 3.3.2 4.7 3.6 4.7 6.8 0 2.3-.6 4-1.7 5-.7.6-1.5.9-2.5.9Zm-3.9-6.5c.2 3.8 2.1 5.3 3.6 5.4.6.1 1.4 0 2.2-.7.9-.8 1.4-2.3 1.4-4.2 0-1.9-.7-5.7-3.7-5.8-.8 0-1.5.2-2.1.8-1 1-1.5 2.7-1.4 4.5Z"/><path fill="#2F1D4A" d="M63.6 91c-.6 0-1.3-.1-2.1-.2-3.8-.7-12.1-2.2-12.1-2.2l.2-1s8.3 1.5 12.1 2.2c2.4.4 4.4.1 5.8-1 1.1-.8 1.8-2 1.9-3.4 0-.3.3-.5.6-.4.3 0 .5.3.4.6-.2 1.7-1 3.1-2.3 4.1-.9.6-2.4 1.3-4.5 1.3Z"/><path fill="#2F1D4A" d="m52.4 90.7-2.9-2.6 2.7-2 .2 4.6Z"/><path fill="#2F1D4A" d="M52.4 91.2c-.1 0-.2 0-.3-.1l-2.9-2.6c-.2-.1-.2-.2-.2-.4 0-.1.1-.3.2-.4l2.7-2c.1-.1.4-.1.5-.1.2.1.3.2.3.4l.2 4.6c0 .2-.1.4-.3.5-.1.1-.2.1-.2.1Zm-2.1-3 1.5 1.4-.1-2.4-1.4 1ZM99.2 75.5c-.3 0-.5-.1-.7-.3-2.1-1.9-5-5-5.6-5.6l-11.7 3c-.1 0-.3 0-.4-.2-.6-1-.7-2.1-.7-2.2 0-.2.1-.3.2-.3l11.9-4.4c1.2-2.3 2.6-3.9 3.2-4.7.5-.5 1.2-.7 1.9-.4 5.2 2.5 8.1 4.7 8.7 5.2l25-6.7-2.5-5.8-9.3-24.7c-.1-.2 0-.3.2-.4.2-.1.3 0 .4.1l20.3 32.5c.3.4.3 1 .1 1.5-.2.5-.6.9-1.1 1L99.5 75.4c-.1 0-.2.1-.3.1Zm-6.3-6.7c.1 0 .2 0 .2.1 0 0 3.4 3.6 5.7 5.8.1.1.3.1.4.1l39.6-12.3c.3-.1.5-.3.7-.6.1-.3.1-.6-.1-.9L121 31.4l8.1 21.5 2.7 6.1v.3c0 .1-.1.2-.2.2L106 66.3c-.1 0-.2 0-.3-.1 0 0-2.9-2.5-8.7-5.2-.4-.2-.8-.1-1.1.2-.7.8-2 2.4-3.2 4.7 0 .1-.1.1-.2.2l-11.7 4.3c.1.3.2.9.5 1.4l11.6-3Z"/><path fill="#2F1D4A" d="M92.3 66.1c-.1 0-.3-.1-.3-.2-.1-.2 0-.4.2-.4l3.1-1.2c.2-.1.4 0 .4.2.1.2 0 .4-.2.4l-3 1.1c-.1.1-.1.1-.2.1ZM131.4 59.4c-.1 0-.3-.1-.3-.2-.1-.2.1-.4.2-.4l.9-.2c.2 0 .4.1.4.2.1.2-.1.4-.2.4l-1 .2c.1 0 .1 0 0 0ZM110.8 54.4c-.2 0-.3-.1-.3-.3-1.1-20.7-7.4-32.8-7.4-32.9-.1-.1-.1-.3 0-.4l1.7-2.1c.1-.1.3-.2.5-.1.1.1.2.3.1.5l-1.5 1.9c.8 1.6 6.4 13.5 7.4 33-.2.2-.3.3-.5.4ZM100.6 62.8h-.2c-1.1-.6-2.3-1.2-3.5-1.8-.1 0-.1 0-.2-.1-.2 0-.3-.2-.3-.4l.5-6.6c0-.2.2-.3.4-.3s.3.2.3.4l-.5 6.3h.1c1 .5 2.1 1 3.1 1.5v-8.2c0-.2.2-.3.3-.3.2 0 .3.1.3.3v8.7c0 .1-.1.2-.2.3 0 .2 0 .2-.1.2ZM120 71.9l-4-.6c-.2 0-.3-.2-.3-.3v-1.1c0-.1.1-.3.2-.3l3.7-1.2h.3c.1 0 .1.1.1.3l.2 2.8c0 .1 0 .2-.1.3.1.1 0 .1-.1.1Zm-3.6-1.2 3.2.5-.2-2-3.1 1 .1.5ZM115.9 63.6c-.1 0-.1 0-.2-.1s-.1-.2-.1-.3l-.2-7c0-.2.1-.3.3-.3.2 0 .3.1.3.3l.2 6.5 2.7-.7-.6-6.9c0-.2.1-.3.3-.4.2 0 .3.1.4.3l.6 7.2c0 .2-.1.3-.2.3l-3.5 1.1c.1 0 .1 0 0 0ZM92.9 71.8l-5.6-.9c-.2 0-.3-.2-.3-.4s.2-.3.4-.3l5.6.9c.2 0 .3.2.3.4-.1.2-.2.3-.4.3Z"/><path fill="#2F1D4A" d="M151.3 81.1 108 74.2c-.2 0-.3-.2-.3-.4s.2-.3.4-.3l42.6 6.8-2.3-4.2-34.7-5.1c-.2 0-.3-.2-.3-.4s.2-.3.4-.3l34.8 5.2c.1 0 .2.1.2.2l2.7 5c.1.1.1.2 0 .4h-.2Z"/><path fill="#2F1D4A" d="m113.7 71 34.7 5.2 2.6 4.7-.8 18.1h.7l.7-18.2v-.2l-2.7-5c-.1-.1-.1-.2-.2-.2l-34.8-5.2c-.2 0-.4.1-.4.3-.1.3 0 .4.2.5ZM44.8 93.1 80.1 99h4.1l-39-6.5-2.4-28.9 4.3-2.5 7.8 1.2c.2 0 .4-.1.4-.3 0-.2-.1-.4-.3-.4l-7.9-1.2h-.2l-4.6 2.7c-.1.1-.2.2-.2.3l2.4 29.4c0 .2.1.3.3.3ZM119 99V75.6c0-.2-.2-.3-.3-.3-.2 0-.3.1-.3.3V99h.6Z"/></svg>