<?xml version="1.0" encoding="UTF-8"?>
<svg id="Artwork" xmlns="http://www.w3.org/2000/svg" width="665" height="135" xmlns:xlink="http://www.w3.org/1999/xlink" viewBox="0 0 665 135">
  <defs>
    <style>
      .cls-1, .cls-2, .cls-3, .cls-4, .cls-5 {
        fill: none;
      }

      .cls-6, .cls-7, .cls-8, .cls-2, .cls-4 {
        stroke: #3f2b56;
        stroke-linecap: round;
        stroke-linejoin: round;
      }

      .cls-6, .cls-9 {
        fill: #e1557a;
      }

      .cls-7, .cls-10 {
        fill: #ad6caa;
      }

      .cls-8, .cls-11 {
        fill: #dac5f9;
      }

      .cls-3 {
        clip-path: url(#clippath-1);
      }

      .cls-12 {
        fill: #f6f6f8;
      }

      .cls-13 {
        fill: #e7e1ec;
      }

      .cls-14 {
        fill: #fff;
      }

      .cls-15 {
        fill: #fca9cb;
      }

      .cls-16 {
        fill: #b39ed3;
      }

      .cls-17 {
        fill: #dca8e5;
      }

      .cls-18 {
        fill: #3f2b56;
      }

      .cls-4 {
        stroke-width: 1.0032px;
      }

      .cls-5 {
        clip-path: url(#clippath);
      }
    </style>
    <clipPath id="clippath">
      <polygon class="cls-1" points="453.9197 21.8706 424.7443 12.9273 431.5835 16.7502 432.2942 20.7031 442.8044 46.6824 444.6487 49.8722 443.3326 53.3014 439.9114 77.082 453.9197 21.8706"/>
    </clipPath>
    <clipPath id="clippath-1">
      <rect class="cls-1" x="154.3765" y="7.7319" width="31.8117" height="31.9998" transform="translate(-1.2463 35.4457) rotate(-11.8408)"/>
    </clipPath>
  </defs>
  <path class="cls-15" d="m401.9316-.061l-127.0391,113.3076,11.958,21.8199h374.081c2.2091,0,4-1.7909,4-4V3.939c0-2.2091-1.7909-4-4-4h-258.9999Z"/>
  <polygon class="cls-15" points="31.5771 29.8926 106.2452 127.7335 238.4161 72.8053 217.818 -1.0045 111.3947 -1.0045 31.5771 29.8926"/>
  <g id="Watch">
    <path class="cls-8" d="m409.9427,104.0462c3.0402-15.6974,6.8233-35.059,6.8233-35.059l-3.365.6615-14.9809,58.7265,15.0758,2.2824s2.3081-6.5952-7.2864-7.041c.1432-.9224,1.2417-6.6739,2.6799-14.1238"/>
    <path class="cls-8" d="m394.0763,58.1118l1.2127,3.2078-41.9926,43.6983-9.89-11.6049s4.386-5.4391,9.8248,2.4775c1.6866-1.4484,23.7893-21.9474,34.7572-32.1268"/>
    <g>
      <rect class="cls-11" x="439.1484" y="22.9224" width="5.3102" height="3.8074" transform="translate(230.464 -363.9441) rotate(58.2548)"/>
      <path class="cls-18" d="m438.3765,23.7822c-.0507-.098-.0647-.2108-.0391-.3186.0279-.1192.1025-.2229.2067-.287l3.2377-2.0029c.2173-.1347.5028-.0677.6372.1498l2.7939,4.5154c.12.1995.0679.5022-.1502.6364l-3.2373,2.0037c-.1042.0651-.2301.0854-.3493.0575-.1201-.0285-.2229-.1025-.2878-.2073l-2.7943-4.5162c-.0062-.01-.012-.0203-.0174-.0307Zm3.499-1.5783l-2.4508,1.5156,2.3069,3.7293,2.4503-1.5164-2.3065-3.7285Z"/>
    </g>
    <g>
      <rect class="cls-11" x="412.4689" y="8.5854" width="5.3102" height="3.8074" transform="translate(830.375 8.3311) rotate(178.2548)"/>
      <path class="cls-18" d="m412.117,12.6849c-.0307-.0594-.0492-.1267-.0514-.1978l-.1164-3.8057c-.0035-.1229.0416-.2423.1257-.3316s.2-.1416.3229-.1451l5.3082-.1617c.2552-.0083.4694.1923.4765.4481l.1164,3.8057c.0037.1233-.0416.2423-.1257.3316s-.2006.1414-.3227.1455l-5.308.161c-.1843.0057-.3462-.0968-.4255-.2501Zm.7716-3.5693l.0883,2.8805,4.3826-.1333-.0878-2.8807-4.383.1335Z"/>
    </g>
    <g>
      <path class="cls-11" d="m445.2194,39.4873c1.1062,11.9085-4.9511,23.8165-16.2029,29.5759-14.7762,7.5634-32.9154,1.6589-40.5149-13.188-7.5996-14.8469-1.7817-33.014,12.9945-40.5774,14.7762-7.5634,32.9154-1.6589,40.5149,13.188.795,1.5531,1.4431,3.1426,1.9496,4.7524"/>
      <path class="cls-18" d="m388.1487,56.2014l-.0594-.1148c-7.7034-15.0509-1.7838-33.5333,13.1956-41.2007,7.2571-3.7144,15.5329-4.3676,23.3033-1.8379,7.7272,2.515,14.0356,7.8791,17.7748,15.1102.0199.0385.0395.0773.0598.1166.7936,1.5505,1.4597,3.1742,1.9794,4.8246.0765.2433-.0587.5035-.303.58-.244.0763-.5038-.0651-.5802-.3024-.5036-1.6008-1.1501-3.1755-1.92-4.6803-3.6221-7.0352-9.762-12.3155-17.2975-14.7688-7.5341-2.4525-15.5585-1.8199-22.5945,1.7818-14.5248,7.4349-20.2642,25.3585-12.7937,39.955l.0577.1116c7.5037,14.5151,25.3453,20.2908,39.8346,12.8748,10.8197-5.5378,17.0815-16.9686,15.9534-29.1206-.0237-.2544.1633-.4803.4176-.5039.2552-.0231.4805.1627.5038.4183,1.164,12.5314-5.2943,24.3191-16.4529,30.0301-14.9413,7.6478-33.3405,1.6912-41.0787-13.2735Z"/>
    </g>
    <path class="cls-16" d="m428.6432,68.6895c-14.5284,7.4365-32.3634,1.6311-39.8355-12.9668s-1.7519-32.4604,12.7765-39.8969c3.3331,6.8609,20.9562,40.6038,27.0589,52.8638Z"/>
    <path class="cls-16" d="m403.4211,19.874c12.3307-6.3726,27.5175-1.4948,33.9205,10.8949s1.5978,27.5995-10.733,33.9721c-2.8574-5.8236-17.9569-34.461-23.1876-44.867Z"/>
    <g>
      <ellipse class="cls-12" cx="415.2563" cy="42.1805" rx="21.9099" ry="22.0148" transform="translate(23.5002 186.2089) rotate(-25.9859)"/>
      <path class="cls-18" d="m395.3921,52.4742c-.0843-.163-.1665-.326-.2468-.4911-5.4304-11.1413-.8262-24.6028,10.262-30.0079,11.0899-5.4049,24.514-.7559,29.9601,10.4028,2.6304,5.3968,3.0119,11.4903,1.074,17.1571-1.9383,5.668-5.9644,10.2318-11.336,12.8508l-.2029-.4161.2029.4161c-5.3725,2.6183-11.4479,2.9788-17.1066,1.0133-5.4853-1.9056-9.9428-5.7735-12.6066-10.925Zm38.9096-20.1557c-5.3505-10.3472-18.0135-14.6174-28.4885-9.5111-10.63,5.1813-15.0421,18.0876-9.8358,28.7698,2.5152,5.1907,6.9,9.0636,12.3252,10.9474,5.4243,1.8842,11.2477,1.5391,16.3969-.9709s9.008-6.8845,10.8662-12.3178c1.8582-5.4343,1.4922-11.2774-1.0304-16.452-.0761-.156-.1542-.312-.2335-.4654Z"/>
    </g>
    <path class="cls-13" d="m425.0401,61.322c-10.5216,5.3856-23.4378,1.1812-28.8492-9.3907-5.4114-10.5719-1.2687-23.5081,9.2529-28.8937,2.4139,4.9687,15.1766,29.4056,19.5963,38.2844Z"/>
    <g>
      <rect class="cls-11" x="428.2115" y="12.1329" width="4.3373" height="3.8074" transform="translate(57.9243 -202.0669) rotate(28.2548)"/>
      <path class="cls-18" d="m427.1577,14.8991c-.0677-.1309-.0715-.2917.0034-.4312l1.802-3.3537c.058-.1083.1567-.1889.2743-.2243s.2443-.0225.3526.0354l3.8212,2.0538c.1083.058.1873.1555.2241.2739.0356.118.0227.2447-.036.3524l-1.8028,3.3531c-.1206.2252-.4009.3101-.6265.1886l-3.8204-2.0532c-.0851-.0455-.1503-.1146-.1918-.1949Zm2.4019-2.9394l-1.3643,2.5382,3.0051,1.6149,1.3647-2.5374-3.0055-1.6157Z"/>
    </g>
    <g>
      <rect class="cls-11" x="426.1558" y="8.5191" width="12.139" height="4.0815" transform="translate(56.4982 -203.3546) rotate(28.2548)"/>
      <path class="cls-18" d="m425.5017,9.6968c-.0677-.1309-.0715-.2917.0034-.4312l1.9319-3.5954c.1213-.225.4017-.3095.6269-.1888l10.693,5.7463c.2236.1205.3091.4009.1884.6261l-1.9321,3.596c-.058.1083-.1567.1889-.2743.2243s-.2443.0225-.3526-.0354l-10.6928-5.7469c-.0851-.0455-.1503-.1146-.1918-.1949Zm2.532-3.1807l-1.4945,2.7795,9.8775,5.3086,1.4944-2.7805-9.8775-5.3076Z"/>
    </g>
    <g id="Dashes">
      <path class="cls-18" d="m421.9717,29.0525c-.0677-.1309-.0715-.2917.0034-.4312l1.7271-3.2132c.1211-.2254.4013-.3103.6269-.1888.2232.1207.3091.4019.1884.6261l-1.7271,3.2132c-.1211.2254-.4013.3103-.6269.1888-.0851-.0455-.1503-.1146-.1918-.1949Z"/>
      <path class="cls-18" d="m406.1878,58.4212c-.0677-.1309-.0715-.2917.0038-.4314l1.7271-3.2132c.1206-.2252.4013-.3103.6261-.1884.2248.1198.3103.4013.1884.6261l-1.7271,3.2132c-.1206.2252-.4013.3103-.6261.1884-.0855-.0453-.1507-.1144-.1923-.1947Z"/>
      <path class="cls-18" d="m428.0212,49.1583c-.0677-.1309-.0715-.2917.0034-.4312.1211-.2254.4013-.3103.6269-.1888l3.2132,1.7271c.2236.1205.3095.4017.1884.6261-.1211.2254-.4013.3103-.6269.1888l-3.2132-1.7271c-.0851-.0455-.1503-.1146-.1918-.1949Z"/>
      <path class="cls-18" d="m398.6522,33.3751c-.0677-.1309-.0715-.2917.0038-.4314.1206-.2252.4013-.3103.6261-.1884l3.2128,1.7263c.224.1203.3103.4013.1884.6261-.1206.2252-.4013.3103-.6261.1884l-3.2128-1.7263c-.0855-.0453-.1507-.1144-.1923-.1947Z"/>
      <path class="cls-18" d="m420.2719,59.8409c-.0133-.0257-.0237-.0518-.0326-.0798l-1.0505-3.4926c-.0733-.245.0655-.503.3099-.5765.246-.0743.5006.0708.5767.3093l1.0505,3.4926c.0733.245-.0655.503-.3099.5765-.217.0654-.444-.036-.544-.2295Z"/>
      <path class="cls-18" d="m410.6664,27.9136c-.0133-.0257-.0237-.0518-.0326-.0798l-1.0513-3.4932c-.0737-.2448.0651-.5028.3099-.5765.246-.0743.5022.069.5767.3093l1.0513,3.4932c.0737.2448-.0651.5028-.3099.5765-.217.0654-.444-.036-.544-.2295Z"/>
      <path class="cls-18" d="m397.2337,47.4596c-.0133-.0257-.0237-.0518-.0322-.08-.0737-.2448.0647-.5026.3095-.5763l3.4924-1.0509c.2456-.0741.5031.0696.5763.3095.0737.2448-.0647.5026-.3095.5763l-3.4924,1.0509c-.2166.0652-.444-.036-.544-.2295Z"/>
      <path class="cls-18" d="m429.1613,37.8534c-.0133-.0257-.0237-.0518-.0326-.0798-.0737-.2448.0651-.5028.3099-.5765l3.4928-1.0511c.246-.0743.4998.0692.5767.3093.0737.2448-.0651.5028-.3099.5765l-3.4928,1.0511c-.217.0654-.444-.036-.544-.2295Z"/>
    </g>
    <rect class="cls-16" x="430.9996" y="5.7145" width="1.6489" height="11.2319" transform="translate(217.4207 386.3392) rotate(-61.7452)"/>
    <g>
      <line class="cls-16" x1="429.9693" y1="7.1445" x2="428.17" y2="10.4926"/>
      <path class="cls-18" d="m427.8177,10.6748c-.0577-.1116-.0616-.25.0031-.37l1.7996-3.3484c.1033-.1928.3437-.2652.5367-.1615.1914.1035.2662.3437.1613.5373l-1.7996,3.3484c-.1033.1928-.3437.2652-.5367.1615-.0729-.0396-.1287-.0983-.1644-.1674Z"/>
    </g>
    <g>
      <line class="cls-16" x1="433.1438" y1="8.8506" x2="431.3445" y2="12.1987"/>
      <path class="cls-18" d="m430.9927,12.381c-.0577-.1116-.0616-.25.0031-.37l1.7992-3.3482c.1033-.1928.3437-.2652.5367-.1615.1902.1041.2662.3437.1613.5373l-1.7992,3.3482c-.1033.1928-.3437.2652-.5367.1615-.0729-.0396-.1287-.0983-.1644-.1674Z"/>
    </g>
    <g>
      <line class="cls-16" x1="436.4693" y1="10.6378" x2="434.67" y2="13.9859"/>
      <path class="cls-18" d="m434.3179,14.1682c-.0577-.1116-.0616-.25.0031-.37l1.7992-3.3482c.1033-.1928.3437-.2652.5367-.1615.1906.1039.2666.3435.1613.5373l-1.7992,3.3482c-.1033.1928-.3437.2652-.5367.1615-.0729-.0396-.1287-.0983-.1644-.1674Z"/>
    </g>
    <rect class="cls-16" x="429.9383" y="11.7385" width="1.552" height="3.4134" transform="translate(214.9735 386.4754) rotate(-61.7452)"/>
    <g class="cls-5">
      <path class="cls-14" d="m444.1192,49.621c4.026-15.8678-5.5737-31.9951-21.4416-36.0212s-31.995,5.5736-36.0211,21.4414c-4.026,15.8679,5.5737,31.9951,21.4416,36.0212,15.8678,4.0261,31.995-5.5735,36.0211-21.4414Zm-55.4652-14.073c3.7461-14.7647,18.7521-23.697,33.5168-19.9508,14.7647,3.7462,23.697,18.7523,19.9509,33.517-3.7461,14.7647-18.7522,23.697-33.5168,19.9508-14.7647-3.7462-23.6971-18.7522-19.9509-33.517Z"/>
    </g>
    <g id="needle">
      <path class="cls-9" d="m408.9873,53.791c.6215.3368,1.4121.0625,1.7389-.6031l13.4749-27.449c.1283-.2614-.2036-.4403-.3517-.1895l-15.3148,26.47c-.3681.6362-.1632,1.4378.4527,1.7716h0Z"/>
      <g>
        <circle class="cls-14" cx="415.211" cy="42.3813" r="1.373" transform="translate(125.7076 343.0209) rotate(-51.9092)"/>
        <path class="cls-9" d="m415.3468,44.2493c-.8483.0618-1.6598-.4645-1.9244-1.3103-.149-.4776-.1026-.9849.1298-1.4278.2332-.4434.6237-.7691,1.1013-.9177.4767-.1494.984-.1034,1.4278.1293.4429.2324.7696.6232.9186,1.1008.3058.9869-.2465,2.039-1.2311,2.3455-.14.0437-.2813.0699-.4219.0801Zm-.1969-2.739c-.0667.0049-.1329.0174-.1985.0376-.2233.0693-.4053.2212-.5135.428-.1091.2064-.13.4427-.0603.6651.1432.4604.6339.7142,1.0931.5738.4599-.1432.7169-.6336.5737-1.0936-.0688-.2225-.2207-.4049-.428-.513-.1451-.0764-.3062-.1096-.4666-.0979Z"/>
      </g>
    </g>
  </g>
  <g>
    <path class="cls-2" d="m454.2408,28.62s6.2525,7.3295.8313,17.209"/>
    <path class="cls-2" d="m458.8103,20.6056s11.3009,13.2475,1.5025,31.1039"/>
    <path class="cls-2" d="m466.0876,14.0926s15.1169,17.7208,2.0098,41.6067"/>
  </g>
  <g>
    <path class="cls-2" d="m378.6973,40.8759s-4.3014-8.6208,3.3415-16.9023"/>
    <path class="cls-2" d="m372.3307,47.5525s-7.7744-15.5815,6.0394-30.5495"/>
    <path class="cls-2" d="m364.3604,51.3506s-10.3995-20.8429,8.0787-40.8651"/>
  </g>
  <g>
    <g>
      <g>
        <polygon class="cls-10" points="176.1623 54.4447 195.3448 33.9811 180.8499 30.6298 177.575 34.6531 171.1711 33.8073 171.4808 31.3666 162.7423 30.4226 163.0645 27.1681 165.8301 27.4191 169.6077 17.9602 176.0526 18.9469 175.9214 20.379 201.7923 30.8599 203.3341 33.9095 179.8114 53.9491 176.1623 54.4447"/>
        <path class="cls-18" d="m203.7477,33.9469c-.0102.1123-.0659.2188-.1604.2917l-23.5227,20.0399c-.0573.0441-.1255.0725-.1972.0823l-3.6492.4954c-.1761.0239-.3482-.067-.4274-.2261-.0796-.1595-.0488-.3506.0763-.4772l18.5835-19.8588-13.4226-3.2248-3.1312,3.8461c-.0908.1119-.2336.1686-.3764.1495l-6.404-.8459c-.2266-.0295-.3871-.2485-.3574-.4641l.2563-2.0209-8.3176-.8983c-.2258-.0246-.3896-.2251-.3692-.4505l.0003-.0032.3223-3.2545c.0227-.2272.2238-.3934.4508-.3728l2.4576.2231,3.6625-9.1715c.0717-.1796.2572-.2857.4484-.2566l6.445.9869c.2169.0331.3705.2295.3507.448v.0004s-.0991,1.0823-.0991,1.0823l25.5312,10.3909c.1145.0303.2109.1083.2644.2142l1.5418,3.0495c.0362.0717.05.1495.0431.225Zm-24.1018,19.6058l23.1624-19.7631-1.3022-2.5757-25.6907-10.4331c-.1956-.052-.3258-.2372-.3075-.4392v-.0004s.0955-1.0428.0955-1.0428l-5.7325-.8778-3.6551,9.1526c-.068.1706-.2401.2763-.423.2597l-2.3555-.2138-.2413,2.4348,8.3293.8997c.1109.0121.2125.0682.2815.1555.0694.0873.11.1879.0859.3099l-.2576,2.0306,5.7642.7618,3.1289-3.8435c.0894-.1104.2293-.1669.3704-.1504l14.4947,3.351c.1575.0188.2912.1254.3435.2755.052.1493.0148.3169-.0968.429l-18.3239,19.5961,2.3299-.3163Z"/>
      </g>
      <path class="cls-18" d="m177.6411,28.1728c-.0098.1074-.0614.2102-.1495.2829l-1.9103,1.5756-.1951,1.7097c-.026.2277-.2318.3915-.4599.3655-.2277-.026-.3813-.2366-.3655-.4599l.2143-1.8761c.0121-.1068.0654-.2046.1486-.2732l1.791-1.4773-.7753-1.6556-3.6245,1.7893-.6716,5.5329c-.028.2275-.2349.39-.4625.3624-.2279-.028-.3698-.2421-.3624-.4625l.6987-5.756c.0171-.1389.103-.2602.2288-.3221l4.206-2.0762c.0998-.0496.2157-.0566.321-.0197s.1912.1147.2386.2159l1.0919,2.331c.0321.0685.0441.142.0376.2135Z"/>
      <path class="cls-18" d="m175.9665,21.6822l-.0011.0117c-.0272.228-.2338.3905-.4614.3637l-6.9346-.8236c-.228-.0276-.3877-.2559-.3637-.4614.0272-.228.2338-.3905.4614-.3637l6.9346.8236c.224.0268.385.2267.3648.4497Z"/>
      <path class="cls-18" d="m175.6532,24.99l-.0006.0069c-.0248.2282-.2295.3929-.4574.3686l-7.9888-.8603c-.2282-.0248-.3843-.2295-.3686-.4574.0248-.2282.2295-.3929.4574-.3686l7.9888.8603c.2258.0246.3896.2251.3692.4505Z"/>
      <path class="cls-18" d="m171.8724,27.9941l-.0002.002c-.0219.2281-.2245.3958-.453.3738l-5.8148-.5542c-.2285-.0224-.3966-.2111-.3738-.4529.0219-.2281.2245-.3958.453-.3738l5.8148.5542c.2277.0219.3947.2235.374.4509Z"/>
      <path class="cls-18" d="m176.4566,19.0904c-.0005.0053-.001.0105-.0018.0157l-.7554,5.8645c-.0292.2278-.2372.3885-.4646.3589-.2279-.0288-.3981-.2344-.3589-.4646l.7554-5.8645c.0292-.2278.2372-.3885.4646-.3589.2226.0283.3808.228.3608.4489Z"/>
    </g>
    <g>
      <circle class="cls-9" cx="199.5382" cy="81.3208" r="3.8781"/>
      <circle class="cls-9" cx="207.316" cy="81.463" r="4.2003"/>
      <circle class="cls-9" cx="204.456" cy="74.4876" r="4.2003"/>
      <path class="cls-9" d="m191.4787,71.4034c.5197.2611,8.9653,11.1034,8.9653,11.1034l5.6666-1.3388-1.3341-5.7428-12.3409-7.177-.9569,3.1553Z"/>
      <line class="cls-2" x1="200.0773" y1="72.7492" x2="192.5251" y2="67.8749"/>
      <line class="cls-2" x1="191.486" y1="70.7606" x2="197.6906" y2="78.101"/>
      <path class="cls-4" d="m203.2262,80.8938c.0874,2.1385-1.5651,3.9387-3.691,4.0208s-3.9201-1.585-4.0076-3.7235"/>
      <path class="cls-4" d="m202.9934,70.608c1.8116-1.1397,4.1953-.6017,5.3241,1.2016s.5752,4.1891-1.2365,5.3288"/>
      <path class="cls-4" d="m209.9286,78.5807c1.5589,1.4552,1.6494,3.9077.2022,5.4776s-3.8841,1.663-5.443.2078"/>
    </g>
    <path class="cls-7" d="m139.6208,79.7019l13.4201,13.4201-22.3989,28.5387,19.1189.74s4.1948-7.5499-5.7083-7.0783c.7306-1.8795,17.1249-21.6916,17.1249-21.6916l-15.9061-13.458"/>
    <path class="cls-7" d="m160.5763,81.8261l16.3884,14.3043-18.9071,25.0478,19.1189.74s4.1948-7.5499-5.7083-7.0783c.7306-1.8795,14.8566-19.6009,14.8566-19.6009l-21.7066-13.964"/>
    <g id="figure">
      <g>
        <path class="cls-10" d="m123.2617,67.3906l5.1393,10.9689,23.3908,2.9019.6897-6.0151,4.893,6.9484,15.5663,1.9542-2.7618-8.9984,7.6243,9.7648,9.5719,1.118-17.0836-58.3006,1.2971-3.343-4.3067-1.2667-19.3927,12.3305s2.6755,4.3838,1.465,11.4568c-3.5043-4.0055-7.1119-8.2829-7.1119-8.2829l-10.3868,6.0669s4.7295,10.0201,3.1788,18.1936c-2.7274-4.3513-8.4856-15.2808-8.4856-15.2808l-10.0426,5.3655,4.6862,10.0019"/>
        <path class="cls-18" d="m177.7385,85.4107c-.1302-.0171-.2479-.0848-.3289-.188l-5.9577-7.6301,1.967,6.4088c.0501.1622.0141.3387-.0951.4692-.1091.1295-.2768.1951-.4449.174l-15.5666-1.9534-.0029-.0004c-.1385-.0182-.263-.0936-.3436-.2076l-4.137-5.8752-.5402,4.7105c-.0154.1319-.083.2531-.1874.3359-.1048.0818-.2383.1194-.3711.103l-23.3906-2.9019-.0034-.0004c-.169-.0222-.3155-.1291-.3878-.2834l-5.1397-10.9685c-.1169-.2503-.0093-.5479.2405-.6653.2507-.1168.5474-.0094.6653.2405l5.0223,10.7187,22.6157,2.8061.6324-5.5134c.0236-.2062.172-.3763.3733-.4277.1998-.0511.4125.0276.5322.1964l4.7658,6.7684,14.5802,1.8298-2.5351-8.2597c-.0712-.2305.0328-.4783.2469-.5901.213-.1104.477-.0546.6249.1357l7.4961,9.6001,8.6142,1.006-16.8714-57.5756c-.031-.1055-.026-.2186.0136-.3213l1.1007-2.8359-3.5671-1.049-18.8088,11.9587c.6467,1.2934,2.3225,5.3779,1.297,11.3691-.0324.1903-.1713.3444-.3569.3968-.1856.052-.3851-.0072-.5119-.1519-2.9182-3.3356-5.9406-6.898-6.8465-7.9684l-9.635,5.6275c.8876,2.0126,4.4306,10.6942,3.0286,18.0823-.0384.2023-.1965.3603-.3985.3983-.2006.0387-.4065-.0509-.5165-.2259-2.3925-3.8176-7.1576-12.7705-8.2689-14.8686l-9.1811,4.905,4.4848,9.5726c.1169.2498.0094.5474-.2409.6647-.2488.117-.5469.0094-.6647-.2409l-4.686-10.0018c-.1127-.2404-.0174-.5277.2172-.6531l10.0423-5.3652c.1171-.0629.2572-.076.3821-.037.1273.0394.234.1272.2958.2452.0529.1,4.8803,9.2537,7.7492,14.0705.805-7.6493-3.2929-16.4441-3.3369-16.5371-.1106-.2342-.0241-.5143.1999-.645l10.3871-6.067c.2096-.1222.4778-.0761.6342.1094.0337.0394,3.1659,3.7522,6.3921,7.4577.7431-6.1657-1.5303-10.009-1.5545-10.0496-.1409-.2322-.0705-.5357.1589-.6814l19.3929-12.3306c.1211-.0782.2707-.0999.4095-.058l4.3068,1.2668c.1341.0398.2454.1337.3073.259.0618.1258.0683.2715.0177.4017l-1.2362,3.1845,17.0361,58.1369c.0473.1609.0102.3352-.0977.4629-.1085.1286-.2736.1936-.4401.1747l-9.5717-1.118-.0073-.001Z"/>
      </g>
      <g>
        <path class="cls-17" d="m173.3931,30.1918l-1.6422-5.7616-1.9579-.2169-15.576,18.6042s8.3221,13.1262,10.7862,17.7167c4.9361,9.1957,3.6969,18.5582,3.6969,18.5582l-6.155-.8082s1.2725-8.0364-2.1967-15.805c-3.9156-8.7684-10.5979-14.1351-10.5979-14.1351l-8.7949,10.5696s2.622,3.8967,5.8706,10.4971c1.6651,3.3832.6879,6.8997.6879,6.8997l-12.0325-1.58,5.5231-6.6977-4.4345-3.8673-9.4787,11.4881,1.2833,2.785,23.4775,3.0203s1.8234-6.6214.1232-11.7015c-1.6863-5.0388-4.4747-9.331-4.4747-9.331l3.4681-4.0805s3.7113,4.6243,5.7824,10.3674c2.7895,7.7354.6106,15.469.6106,15.469l15.6159,2.0505s3.1831-12.0214-2.7614-24.7503c-4.3049-9.2181-8.896-15.7973-8.896-15.7973l7.89-9.452,12.5523,46.5744-5.1161-.6718,1.1799,4.7336,9.4452,1.2402,1.6089-1.5819-13.7346-48.1864"/>
        <path class="cls-18" d="m128.3095,78.9341c-.1704-.0224-.3173-.1303-.3889-.2865l-1.2832-2.7845c-.0806-.1741-.0541-.3794.0683-.5278l9.4786-11.4878c.0861-.1044.2104-.1694.3448-.1803.1366-.0087.2684.0338.3697.1214l4.4347,3.8671c.2042.178.2292.4861.057.695l-4.9489,6.0015,10.6813,1.4025c.1842-1.0011.4862-3.6203-.7453-6.1233-3.1937-6.4886-5.8107-10.4002-5.8366-10.439-.124-.1842-.1118-.4279.0304-.5988l8.7946-10.5695c.1743-.2096.4843-.2413.6977-.0699.0677.0542,6.8216,5.5442,10.7416,14.3211,3.03,6.7862,2.5215,13.6667,2.301,15.5781l5.1463.6757c.1629-2.0391.4705-10.0078-3.6901-17.7585-2.4271-4.5219-10.6844-17.5545-10.7677-17.6856-.1167-.1838-.1008-.4215.0389-.5888l15.5761-18.6041c.1075-.1282.2717-.1943.4382-.1759l1.9577.2167c.204.0327.3699.1648.426.3603l1.6423,5.7614c.0754.266-.0781.5423-.3442.6182-.2644.0746-.5423-.0781-.6178-.3436l-1.5502-5.439-1.3572-.1501-15.1701,18.1186c1.2723,2.0124,8.3758,13.2781,10.6095,17.4388,4.955,9.2319,3.8033,18.4717,3.7518,18.8604-.0364.2735-.2872.4661-.5608.4302l-6.1552-.8082c-.1336-.0175-.2548-.0886-.3352-.1962-.0808-.1081-.1146-.2445-.0937-.3777.0128-.0786,1.2055-7.9882-2.1591-15.5226-3.2907-7.3695-8.6283-12.3603-10.0802-13.631l-8.235,9.8969c.6839,1.059,2.9886,4.735,5.6982,10.2406,1.7291,3.5138.7629,7.1031.7209,7.2542-.067.2404-.3.3945-.5469.3621l-12.0325-1.5799c-.1801-.0236-.3333-.1432-.4002-.3126-.0665-.1688-.0363-.3608.0796-.5012l5.2142-6.3227-3.6808-3.2096-8.9521,10.8497,1.036,2.2478,22.7612,2.9286c.3543-1.5166,1.4175-6.835.0272-10.9899-1.6454-4.9167-4.3927-9.1749-4.4201-9.2174-.1205-.1852-.1048-.4279.0384-.5963l3.4685-4.0807c.0966-.1134.2391-.1784.388-.1761.1531.0004.2896.071.3827.1872.1537.1911,3.7876,4.7557,5.8632,10.5105,2.4125,6.6918,1.2082,13.2796.7613,15.2164l14.6094,1.9183c.4799-2.2368,2.3453-12.9031-2.8298-23.9841-4.2347-9.0689-8.807-15.6573-8.8526-15.7228-.1294-.1849-.1184-.4332.0259-.6063l7.89-9.4522c.1198-.1433.3037-.2088.4914-.1679.1819.0396.3268.1778.3755.3581l12.5525,46.5745c.0433.1613.0034.3339-.1066.4593-.1101.1259-.2759.1883-.4415.1666l-4.3886-.5763.9203,3.6913,8.8658,1.1641,1.2233-1.2035-13.6535-47.9c-.0754-.266.0781-.5423.3437-.6182s.5428.0782.6182.3437l13.7346,48.1864c.0503.176.0003.3655-.1302.4931l-1.6089,1.5823c-.1097.1077-.2632.1595-.4157.1394l-9.4453-1.2402c-.2038-.0268-.3704-.1757-.4201-.3753l-1.1799-4.7334c-.04-.1604.0021-.3307.1123-.4536.1098-.1235.2739-.1847.438-.1631l4.3736.5743-12.1076-44.9224-7.0315,8.4238c.9631,1.4266,4.976,7.5307,8.7234,15.5557,5.9523,12.7457,2.8243,24.9674,2.7921,25.0892-.0645.2437-.2994.401-.5487.3682l-15.6159-2.0505c-.1438-.0189-.272-.0997-.3522-.2206-.0797-.1208-.1033-.2706-.0638-.4102.0213-.076,2.0995-7.6782-.5997-15.1646-1.638-4.5414-4.3512-8.4184-5.333-9.7401l-2.8295,3.3284c.674,1.0931,2.9052,4.8674,4.331,9.1274,1.7284,5.1655-.0395,11.7171-.1157,11.9937-.0659.2395-.2985.3942-.5455.3627l-23.4774-3.0207-.0015-.0002Z"/>
      </g>
      <g>
        <line class="cls-10" x1="139.7275" y1="57.759" x2="131.9668" y2="44.8391"/>
        <path class="cls-18" d="m139.6628,58.2548c-.1462-.0192-.2825-.1026-.3642-.2384l-7.7604-12.9201c-.1423-.2368-.0655-.5439.1714-.6862.2359-.1424.5439-.0655.6862.1714l7.7604,12.9201c.1423.2368.0655.5439-.1714.6862-.1005.0602-.2141.0812-.322.067Z"/>
      </g>
      <g>
        <line class="cls-10" x1="152.6446" y1="41.3093" x2="147.9472" y2="35.5708"/>
        <path class="cls-18" d="m152.5794,41.8052c-.122-.016-.2382-.0766-.3217-.1791l-4.6972-5.7385c-.1749-.2135-.1438-.5286.0702-.7034.2132-.1759.5291-.1438.7034.0702l4.6972,5.7385c.1749.2135.1438.5286-.0702.7034-.111.0913-.2495.1263-.3817.1089Z"/>
      </g>
    </g>
    <path class="cls-6" d="m181.229,64.3639c.0171,1.2446,1.54,4.6737,3.8383,2.5752,2.2688-2.0716-3.2683-5.5321-3.2683-5.5321"/>
    <path class="cls-6" d="m171.2426,90.0865c.3359.3001,1.2604,4.1436-1.2309,3.9156s-1.2629-6.3799-1.2629-6.3799"/>
    <path class="cls-6" d="m147.1068,68.3704c.1006.439-1.1693,3.6346-3.1095,2.0554-2.2662-1.8446,2.097-5.9549,2.097-5.9549"/>
    <path class="cls-6" d="m197.7413,37.2747c-.8046.7881-1.7322,5.4725.5903,5.3642,3.1088-.145,1.5751-7.3126,1.5751-7.3126"/>
    <path class="cls-6" d="m145.4849,24.0927c-3.6077,1.5406-1.5898,7.2312,3.5705,2.846,1.4447-1.2277,4.2698.2129,4.2698.2129,0,0-3.5162-4.9054-7.8403-3.0589Z"/>
    <path class="cls-6" d="m186.0076,113.0137c-1.4191,2.9714-6.1205,1.0786-2.261-3.0946,1.0805-1.1684-.0282-3.5884-.0282-3.5884,0,0,3.9901,3.1216,2.2892,6.683Z"/>
    <path class="cls-6" d="m130.7818,100.2521c1.3533,3.0019,6.0953,1.2132,2.3287-3.0441-1.0545-1.1919.1072-3.5869.1072-3.5869,0,0-4.0579,3.033-2.4359,6.631Z"/>
    <g>
      <g>
        <polygon class="cls-10" points="144.4041 80.2992 141.8209 77.2018 135.1941 78.8919 136.9761 84.4025 143.3488 82.703 144.4041 80.2992"/>
        <path class="cls-18" d="m143.7365,83.0191c-.0657.0806-.1559.1394-.2586.1671l-6.3727,1.6996c-.2568.0684-.5227-.0761-.6047-.3294l-1.7821-5.5106c-.0424-.131-.0289-.2744.0383-.3953.0662-.1237.1804-.2088.3141-.2429l6.6266-1.6903c.1864-.0477.3837.0162.5074.1644l2.5832,3.0972c.1213.1456.1501.3474.074.521l-1.055,2.4041c-.0183.0418-.0422.0803-.0706.1151Zm-6.4305.7778l5.6821-1.515.8337-1.9003-2.183-2.6176-5.8049,1.4809,1.4721,4.552Zm7.0981-3.498l.0062-.0076-.0062.0076Z"/>
      </g>
      <g>
        <polyline class="cls-10" points="141.9408 50.039 121.9291 62.0017 135.2692 77.278 146.0993 83.1432 148.6811 85.6277 146.8884 88.7137 144.522 87.3561 143.291 89.6779 137.3443 92.8565 131.2687 86.6538 114.2559 61.9915 114.8064 58.9506 141.3815 47.114"/>
        <path class="cls-18" d="m147.2754,89.0302c-.1522.1865-.4208.2409-.6357.1173l-1.9184-1.1005-.989,1.865c-.0467.0866-.1181.1595-.206.2069l-5.9467,3.1788c-.1955.1045-.4374.0673-.593-.0911l-6.0752-6.2029-17.0675-24.7285c-.0752-.1086-.1038-.2428-.0805-.3725l.5507-3.0411c.0302-.1637.14-.3029.2925-.3694l26.5749-11.8366c.2532-.1104.5475.0055.6579.2588.1104.2539-.0051.5478-.2588.6579l-26.33,11.7302-.4664,2.5755,16.8961,24.4922,5.7581,5.8693,5.4819-2.9304,1.1596-2.1871c.0634-.1178.1729-.2081.303-.2463.1302-.0375.27-.0205.3872.0468l1.9357,1.1102,1.3453-2.3166-2.2499-2.1656-10.7705-5.8326c-.0525-.0283-.0993-.0659-.1383-.1109l-13.3401-15.2768c-.0993-.1138-.1423-.2667-.1158-.4158.0252-.1483.1183-.2778.2514-.3507l20.0118-11.9622c.2419-.1335.5458-.045.6787.197.1339.2422.0447.5462-.1973.679l-19.4671,11.663,12.8721,14.7413,10.751,5.8217c.0393.0213.076.0482.1087.0792l2.5818,2.4848c.1658.1598.2011.4123.0853.6115l-1.7927,3.0859c-.0133.0232-.0287.0453-.0451.0653Z"/>
      </g>
    </g>
    <g class="cls-3">
      <g>
        <g>
          <polygon class="cls-10" points="176.2594 54.4666 195.4419 34.003 180.947 30.6518 177.6721 34.675 171.2682 33.8293 171.5779 31.3886 162.8394 30.4446 163.1616 27.19 165.9272 27.441 169.7048 17.9822 176.1497 18.9689 176.0185 20.401 201.8894 30.8819 203.4312 33.9315 179.9084 53.971 176.2594 54.4666"/>
          <path class="cls-18" d="m203.8448,33.9689c-.0102.1123-.0659.2188-.1604.2917l-23.5227,20.0399c-.0573.0441-.1255.0725-.1972.0823l-3.6492.4954c-.1761.0239-.3482-.067-.4274-.2261-.0796-.1595-.0488-.3506.0763-.4772l18.5835-19.8588-13.4226-3.2248-3.1312,3.8461c-.0908.1119-.2336.1686-.3764.1495l-6.404-.8459c-.2266-.0295-.3871-.2485-.3574-.4641l.2563-2.0209-8.3176-.8983c-.2258-.0246-.3896-.2251-.3692-.4505l.0003-.0032.3223-3.2545c.0227-.2272.2238-.3934.4508-.3728l2.4576.2231,3.6625-9.1715c.0717-.1796.2572-.2857.4484-.2566l6.445.9869c.2169.0331.3705.2295.3507.448v.0004s-.0991,1.0823-.0991,1.0823l25.5312,10.3909c.1145.0303.2109.1083.2644.2142l1.5418,3.0495c.0362.0717.05.1495.0431.225Zm-24.1018,19.6058l23.1624-19.7631-1.3022-2.5757-25.6907-10.4331c-.1956-.052-.3258-.2372-.3075-.4392v-.0004s.0955-1.0428.0955-1.0428l-5.7325-.8778-3.6551,9.1526c-.068.1706-.2401.2763-.423.2597l-2.3555-.2138-.2413,2.4348,8.3293.8997c.1109.0121.2125.0682.2815.1555.0694.0873.11.1879.0859.3099l-.2576,2.0306,5.7642.7618,3.1289-3.8435c.0894-.1104.2293-.1669.3704-.1504l14.4947,3.351c.1575.0188.2912.1254.3435.2755.052.1493.0148.3169-.0968.429l-18.3239,19.5961,2.3299-.3163Z"/>
        </g>
        <path class="cls-18" d="m177.7382,28.1948c-.0098.1074-.0614.2102-.1495.2829l-1.9103,1.5756-.1951,1.7097c-.026.2277-.2318.3915-.4599.3655-.2277-.026-.3813-.2366-.3655-.4599l.2143-1.8761c.0121-.1068.0654-.2046.1486-.2732l1.791-1.4773-.7753-1.6556-3.6245,1.7893-.6716,5.5329c-.028.2275-.2349.39-.4625.3624-.2279-.028-.3698-.2421-.3624-.4625l.6987-5.756c.0171-.1389.103-.2602.2288-.3221l4.206-2.0762c.0998-.0496.2157-.0566.321-.0197s.1912.1147.2386.2159l1.0919,2.331c.0321.0685.0441.142.0376.2135Z"/>
        <path class="cls-18" d="m176.0636,21.7041l-.0011.0117c-.0272.228-.2338.3905-.4614.3637l-6.9346-.8236c-.228-.0276-.3877-.2559-.3637-.4614.0272-.228.2338-.3905.4614-.3637l6.9346.8236c.224.0268.385.2267.3648.4497Z"/>
        <path class="cls-18" d="m175.7503,25.012l-.0006.0069c-.0248.2282-.2295.3929-.4574.3686l-7.9888-.8603c-.2282-.0248-.3843-.2295-.3686-.4574.0248-.2282.2295-.3929.4574-.3686l7.9888.8603c.2258.0246.3896.2251.3692.4505Z"/>
        <path class="cls-18" d="m171.9695,28.0161l-.0002.002c-.0219.2281-.2245.3958-.453.3738l-5.8148-.5542c-.2285-.0224-.3966-.2111-.3738-.4529.0219-.2281.2245-.3958.453-.3738l5.8148.5542c.2277.0219.3947.2235.374.4509Z"/>
        <path class="cls-18" d="m176.5537,19.1124c-.0005.0053-.001.0105-.0018.0157l-.7554,5.8645c-.0292.2278-.2372.3885-.4646.3589-.2279-.0288-.3981-.2344-.3589-.4646l.7554-5.8645c.0292-.2278.2372-.3885.4646-.3589.2226.0283.3808.228.3608.4489Z"/>
      </g>
    </g>
    <path class="cls-6" d="m118.9588,64.2618c-.2226.5143-2.2529,9.2381,1.3052,8.7346,3.0815-.4361,1.0722-4.9133,1.0722-4.9133"/>
  </g>
</svg>