<svg xmlns="http://www.w3.org/2000/svg" fill="none" viewBox="0 0 358 99"><path fill="#FFC1A9" d="M358 99V0H140.1L0 14.5l13.5 65L146 98.8l212 .2Z"/><path fill="#E7E1EC" d="M82.1 99h68.4l.8-18.2-2.7-5L47 60.7l-4.6 2.7 2.4 29.4L82.1 99Z"/><path fill="#FF9C88" d="M100.6 68.7V52.5l-3.2-.5-1.2 16 4.4.7Zm19.4 2.9-1.3-16.4-3-.4.4 16.2 3.9.6Z"/><path fill="#B39ED3" d="m126.1 56.3-11.8-1.7-.4-5.9-.6-6.5 5.8.8-10.3-29.1L105 19c6.5 16.6 6 31.8 5.8 35.1L96.3 52c.2-10.5-4.4-18.3-4.4-18.3l-3.4 3.6c3.3 5.1 3.4 11.6 3.3 14L76.6 49c-1.1-.2-1.6-1.4-.9-2.3l5.2-6.3 2.6-3.2 9.9-12.1 1.8-2.2a47 47 0 0 1 5.7 17.1l3.9.5c-1.6-9.8-5.2-17-7.2-20.6l11.1-13.7c.8-.9 2.3-.7 2.7.4L128.8 53c.6 1.7-.8 3.5-2.7 3.3Z"/><path fill="#8374A8" d="m121.5 49.7-7.4-1h-.2l-.6-6.5 5.8.8 2.4 6.7Zm-15.9-1.6-6-.8s-.5-10.7-6.2-22.3l1.8-2.2a47 47 0 0 1 5.7 17.1l3.9.5c.4 2.5.6 5 .8 7.7Zm-24-1.9 2.3-3.3-3.1-2.5 2.6-3.2c4 4.2 4.2 9.8 4.2 9.8l-6-.8Zm12.6-7.1c-1.1-3.4-2.3-5.4-2.3-5.4l-3.4 3.6a26.6 26.6 0 0 1 3.4 14l2.3-12.2Z"/><path stroke="#2F1D4A" stroke-linecap="round" stroke-linejoin="round" stroke-width="1.3" d="m49.8 8.8.6 1.4-7.1 6.5-2.1-2.2s.5-1.2 1.6-1.3l-2-.6"/><path fill="#FFC1A9" d="m89 30.3-1.1 1.4-37 13.8c-.6.2-1.3-.1-1.5-.7l-.6-1.8-10.9-32.5s3.8-4.2 8.3-6.2c0 0 2.1 1.5 3.7 4.5l1-1.1a13 13 0 0 1 7.4-3.4l.2 2.3.1 1.1s-2.8 1.2-4.5 2.8c0 0-1 1.6-2 4.4l-.6 2.1 3.6 21 5.1-1.1L89 30.3Zm50 32.5L99.4 75.1c-.3.1-.5 0-.7-.2l-1.4-1.4-4.3-4.4-12 3.1-.4-1-.2-1.1 12-4.4c1.2-2.2 2.5-3.9 3.3-4.7.4-.4 1-.5 1.5-.3 5.9 2.8 8.8 5.3 8.8 5.3l25.5-6.8-2.7-6.1-2.9-7.7-6.4-17 20.3 32.5c.5.6.1 1.6-.8 1.9Z"/><path fill="#8374A8" d="M110.8 54a84.4 84.4 0 0 0-7.5-33l1.7-2.1c6.4 16.6 6 31.8 5.8 35.1Z"/><path fill="#B39ED3" d="M124.9 84.3v12.5l7.7-5.4-7.7-7.1Zm10.6 1.9V98l7.9-5-7.9-6.8Zm-41.3 7.3 9.7-5-9.7-8.2v13.2Z"/><path fill="#FF9C88" d="m139.8 60.8-20.3-32.5 5 13.4 13.1 19.2c.2.2.1.6-.2.7l-37.2 11.1-6.5-5.1-13.2 3.6.4 1 11.9-3.1 4.3 4.4 1.4 1.4c.2.2.5.2.7.2L139 62.8c.9-.3 1.3-1.3.8-2ZM50.4 10.2l-.6-1.4.6 1.4ZM52.1 15c.7-2.4 2-4.4 2-4.4 2-1.8 4.5-2.8 4.5-2.8l-.1-1.1-6 2.9L51 7.8l-1 1.1.6 1.4v.2-.1l-7 6.4-2.1-2.2s.5-1.2 1.6-1.3l-3-.8 2.4 7.3 5.4-2.9 5.2 21.8 2.3-.5-3.6-20.8c-.2-1.1.1-1.8.3-2.4Zm35.8 16.7-37 13.8c-.6.2-1.3-.1-1.5-.7l-.6-1.8 39.1-11.3Z"/><path fill="#2F1D4A" d="m121.5 50-7.6-1.1c-.2 0-.3-.1-.3-.3l-.6-6.5.1-.3.3-.1 5.8.8.3.2 2.4 6.8-.1.3c-.1.2-.2.2-.3.2Zm-7.3-1.7 6.8 1-2.1-6.1-5.2-.7.5 5.8Zm-8.6.1-6.1-.8c-.2 0-.3-.2-.3-.3 0-.1-.6-10.8-6.2-22.1-.1-.2 0-.4.2-.4.2-.1.4 0 .5.2a62.2 62.2 0 0 1 6.2 22.1l5.3.7c-.1-2.4-.4-4.8-.8-7.2 0-.2.1-.4.3-.4.2 0 .4.1.4.3.4 2.5.7 5.1.8 7.7l-.1.3-.2-.1Z"/><path fill="#2F1D4A" d="M126.5 56.6h-.4l-11.8-1.7c-.2 0-.3-.2-.3-.3l-.4-5.9-.6-6.5.1-.3.3-.1 5.2.7-9.9-28-3.4 4.4c6.5 16.8 6 32.2 5.8 35.1l-.1.2-.3.1-14.5-2.1c-.2 0-.3-.2-.3-.3.2-8.9-3.2-16-4.1-17.7l-2.9 3.1a26.1 26.1 0 0 1 3.3 14l-.1.2-.3.1-15.3-2.2c-.6-.1-1.2-.5-1.4-1.1-.2-.6-.1-1.2.3-1.7l19.5-23.9.3-.1.3.2a48.3 48.3 0 0 1 5.7 17l3.2.4a64 64 0 0 0-7.1-20.4L108.4 6a2 2 0 0 1 1.8-.7c.7.1 1.2.6 1.5 1.2l17.4 46.3a3 3 0 0 1-.4 2.7c-.6.8-1.4 1.1-2.2 1.1Zm-11.9-2.4 11.6 1.7c.8.1 1.5-.2 2-.8a2 2 0 0 0 .3-2.1L111 6.8c-.2-.4-.5-.7-1-.8-.4-.1-.9.1-1.2.4l-11 13.5c2 3.5 5.5 10.7 7.2 20.5l-.1.3-.3.1-3.9-.5c-.2 0-.3-.1-.3-.3 0-.1-.9-8.4-5.4-16.6L75.9 46.9c-.2.3-.3.7-.2 1.1.1.4.5.6.9.7l14.9 2.2c.1-2.7-.2-8.7-3.3-13.5a.3.3 0 0 1 0-.4l3.4-3.6.3-.1.3.2c0 .1 4.6 7.9 4.4 18.2l13.9 2c.2-3.6.5-18.5-5.8-34.6v-.3l3.8-5.1.3-.1.3.2 10.3 29.1-.1.3-.3.1-5.4-.7a250.7 250.7 0 0 1 1 11.6Z"/><path fill="#2F1D4A" d="m87.6 47.3-6.1-.8-.3-.2V46l2.2-3.1-2.8-2.3c-.1-.1-.2-.3-.1-.5l2.6-3.2.2-.1.3.1c4.1 4.2 4.2 9.8 4.2 10l-.1.3-.1.1Zm-5.5-1.4 5.1.7c-.1-1.3-.7-5.5-3.8-8.9l-2.1 2.6 2.8 2.3c.1.1.2.3.1.5l-2.1 2.8Zm9.7 5.7c-.2 0-.3-.2-.3-.3.1-2.5 0-8.9-3.3-13.9a.3.3 0 0 1 0-.4l3.4-3.6.3-.1.3.2c.1.1 1.2 2.1 2.4 5.5v.2l-2.4 12.2-.4.2Zm-2.9-14.4c2.2 3.5 3 7.7 3.2 10.8l1.7-9c-.8-2.4-1.7-4.2-2.1-4.9l-2.8 3.1ZM43.3 17l-.2-.1-2.1-2.1-.1-.4s.3-.7.9-1.1l-1.1-.3c-.2-.1-.3-.2-.2-.4.1-.2.2-.3.4-.2l2 .6c.2 0 .3.2.2.3 0 .2-.1.3-.3.3-.6.1-1 .6-1.2.9l1.7 1.8 6.7-6.1-.5-1.1c-.1-.2 0-.4.1-.4.2-.1.4 0 .5.1l.6 1.4-.1.4-7.1 6.5-.2-.1Z"/><path fill="#2F1D4A" d="m50.5 45.9-.7-.1c-.4-.2-.7-.5-.8-.9L37.5 10.6c-.1-.2 0-.4.2-.4.2-.1.4 0 .4.2l11.5 34.2.4.5h.7l36.9-13.8.5-.6-33 7.4h-.3l-.1-.2-3.6-20.8V17c1.1-4.2 2.6-6.6 2.7-6.7l.1-.1c1.4-1.3 3.7-2.4 4.4-2.8L58 4.6c-3.4.6-5.8 2.4-6.9 3.4h-.5v-.5c1.2-1.1 3.8-3.1 7.5-3.5l.3.1.1.2.3 3.4-.2.3s-2.7 1.2-4.4 2.7c-.2.3-1.5 2.6-2.5 6.4l3.6 20.4L89 30l.4.1c.1.1.1.3 0 .4l-1.1 1.4-.1.1L51 45.8l-.5.1Z"/><path fill="#2F1D4A" d="m39.4 9.3-.2-.1v-.5C40.8 7.3 43.3 5.3 46 4h.3c.1.1 2.2 1.6 3.8 4.6.1.2 0 .4-.1.4-.2.1-.4 0-.5-.1a13.6 13.6 0 0 0-3.4-4.3 25.6 25.6 0 0 0-6.4 4.5c-.1.2-.2.2-.3.2ZM86.8 67c-.1 0-.1 0 0 0L59 62.8c-.2 0-.3-.2-.3-.4s.2-.3.4-.3l27.7 4.1c.2 0 .3.2.3.4s-.2.4-.3.4Z"/><path fill="#2F1D4A" d="M86.8 67c-.1 0-.1 0 0 0L59 62.8c-.2 0-.3-.2-.3-.4s.2-.3.4-.3l27.7 4.1c.2 0 .3.2.3.4s-.2.4-.3.4Z"/><path fill="#2F1D4A" d="m81.7 70-39.4-6.3c-.1 0-.3-.1-.3-.3 0-.1 0-.3.2-.4l4.6-2.7c.1 0 .1-.1.2 0l7.9 1.2c.2 0 .3.2.3.4s-.2.3-.4.3L47 61l-3.7 2.2 38.4 6.1c.2 0 .3.2.3.4s-.1.3-.3.3Z"/><path fill="#2F1D4A" d="M77.7 98.6c-.2 0-.3-.1-.3-.3L76.6 69c0-.2.1-.3.3-.3.2 0 .3.1.3.3l.9 29.3c0 .1-.2.3-.4.3Zm47.2-1.5h-.2l-.2-.3V84.3l.2-.3c.1-.1.3 0 .4.1l7.7 7.1.1.3-.1.3-7.7 5.4-.2-.1Zm.4-12v11.1l6.8-4.8-6.8-6.3Zm10.2 13.2h-.2l-.2-.3V86.2l.2-.3c.1-.1.3 0 .4.1l7.9 6.8.1.3-.2.3-7.9 5-.1-.1Zm.3-11.4v10.5l7-4.5-7-6Zm-41.6 7H94l-.2-.3V80.3l.2-.3c.1-.1.3 0 .4 0l9.7 8.2.1.3-.2.3-9.7 5-.1.1Zm.4-12.8V93l8.8-4.5-8.8-7.4Zm-40.6 3c-.3 0-.5-.2-.5-.5l-.3-9.6-.7.6c-.2.2-.5.2-.7 0a.5.5 0 0 1 0-.7l1.5-1.4c.1-.1.4-.2.5-.1.2.1.3.2.3.4l.4 10.7c0 .4-.2.6-.5.6Zm9.1 1.8h-.4c-2-.2-4.4-2-4.6-6.4-.1-2.2.5-4.1 1.7-5.2.8-.8 1.7-1.1 2.8-1.1 3.3.2 4.7 3.6 4.7 6.8 0 2.3-.6 4-1.7 5-.7.6-1.5.9-2.5.9Zm-3.9-6.5c.2 3.8 2.1 5.3 3.6 5.4.6.1 1.4 0 2.2-.7.9-.8 1.4-2.3 1.4-4.2 0-1.9-.7-5.7-3.7-5.8-.8 0-1.5.2-2.1.8-1 1-1.5 2.7-1.4 4.5Z"/><path fill="#2F1D4A" d="m63.6 91-2.1-.2-12.1-2.2.2-1 12.1 2.2c2.4.4 4.4.1 5.8-1 1.1-.8 1.8-2 1.9-3.4 0-.3.3-.5.6-.4.3 0 .5.3.4.6-.2 1.7-1 3.1-2.3 4.1a8 8 0 0 1-4.5 1.3Z"/><path fill="#2F1D4A" d="m52.4 90.7-2.9-2.6 2.7-2 .2 4.6Z"/><path fill="#2F1D4A" d="m52.4 91.2-.3-.1-2.9-2.6c-.2-.1-.2-.2-.2-.4l.2-.4 2.7-2 .5-.1c.2.1.3.2.3.4l.2 4.6c0 .2-.1.4-.3.5l-.2.1Zm-2.1-3 1.5 1.4-.1-2.4-1.4 1Zm48.9-12.7a1 1 0 0 1-.7-.3c-2.1-1.9-5-5-5.6-5.6l-11.7 3c-.1 0-.3 0-.4-.2-.6-1-.7-2.1-.7-2.2 0-.2.1-.3.2-.3l11.9-4.4c1.2-2.3 2.6-3.9 3.2-4.7.5-.5 1.2-.7 1.9-.4 5.2 2.5 8.1 4.7 8.7 5.2l25-6.7-2.5-5.8-9.3-24.7c-.1-.2 0-.3.2-.4.2-.1.3 0 .4.1l20.3 32.5c.3.4.3 1 .1 1.5-.2.5-.6.9-1.1 1L99.5 75.4l-.3.1Zm-6.3-6.7.2.1a204.8 204.8 0 0 0 6.1 5.9l39.6-12.3c.3-.1.5-.3.7-.6a1 1 0 0 0-.1-.9L121 31.4l8.1 21.5 2.7 6.1v.3l-.2.2-25.6 6.8-.3-.1s-2.9-2.5-8.7-5.2c-.4-.2-.8-.1-1.1.2-.7.8-2 2.4-3.2 4.7l-.2.2-11.7 4.3c.1.3.2.9.5 1.4l11.6-3Z"/><path fill="#2F1D4A" d="m92.3 66.1-.3-.2c-.1-.2 0-.4.2-.4l3.1-1.2c.2-.1.4 0 .4.2.1.2 0 .4-.2.4l-3 1.1-.2.1Zm39.1-6.7-.3-.2c-.1-.2.1-.4.2-.4l.9-.2.4.2c.1.2-.1.4-.2.4l-1 .2c.1 0 .1 0 0 0Zm-20.6-5c-.2 0-.3-.1-.3-.3-1.1-20.7-7.4-32.8-7.4-32.9a.3.3 0 0 1 0-.4l1.7-2.1c.1-.1.3-.2.5-.1.1.1.2.3.1.5l-1.5 1.9a88 88 0 0 1 7.4 33l-.5.4Zm-10.2 8.4h-.2L96.9 61l-.2-.1c-.2 0-.3-.2-.3-.4l.5-6.6c0-.2.2-.3.4-.3s.3.2.3.4l-.5 6.3h.1l3.1 1.5v-8.2c0-.2.2-.3.3-.3.2 0 .3.1.3.3v8.7l-.2.3-.1.2Zm19.4 9.1-4-.6c-.2 0-.3-.2-.3-.3v-1.1l.2-.3 3.7-1.2h.3l.1.3.2 2.8-.1.3c.1.1 0 .1-.1.1Zm-3.6-1.2 3.2.5-.2-2-3.1 1 .1.5Zm-.5-7.1-.2-.1-.1-.3-.2-7c0-.2.1-.3.3-.3.2 0 .3.1.3.3l.2 6.5 2.7-.7-.6-6.9c0-.2.1-.3.3-.4.2 0 .3.1.4.3l.6 7.2c0 .2-.1.3-.2.3l-3.5 1.1c.1 0 .1 0 0 0Zm-23 8.2-5.6-.9c-.2 0-.3-.2-.3-.4s.2-.3.4-.3l5.6.9c.2 0 .3.2.3.4-.1.2-.2.3-.4.3Z"/><path fill="#2F1D4A" d="M151.3 81.1 108 74.2c-.2 0-.3-.2-.3-.4s.2-.3.4-.3l42.6 6.8-2.3-4.2-34.7-5.1c-.2 0-.3-.2-.3-.4s.2-.3.4-.3l34.8 5.2.2.2 2.7 5c.1.1.1.2 0 .4h-.2Z"/><path fill="#2F1D4A" d="m113.7 71 34.7 5.2 2.6 4.7-.8 18.1h.7l.7-18.2v-.2l-2.7-5-.2-.2-34.8-5.2c-.2 0-.4.1-.4.3-.1.3 0 .4.2.5ZM44.8 93.1 80.1 99h4.1l-39-6.5-2.4-28.9 4.3-2.5 7.8 1.2c.2 0 .4-.1.4-.3 0-.2-.1-.4-.3-.4l-7.9-1.2h-.2l-4.6 2.7-.2.3 2.4 29.4c0 .2.1.3.3.3ZM119 99V75.6c0-.2-.2-.3-.3-.3-.2 0-.3.1-.3.3V99h.6Z"/></svg>