<svg viewBox="0 0 358 99" fill="none" xmlns="http://www.w3.org/2000/svg">
<path d="M358 99V0H140.1L0 14.5L13.5 79.5L146 98.8L358 99Z" fill="#FFC1A9"/>
<path d="M82.1 99H150.5L151.3 80.8L148.6 75.8L47 60.7L42.4 63.4L44.8 92.8L82.1 99Z" fill="#E7E1EC"/>
<path d="M100.6 68.7V52.5L97.4 52L96.2 68L100.6 68.7Z" fill="#FF9C88"/>
<path d="M120 71.6L118.7 55.2L115.7 54.8L116.1 71L120 71.6Z" fill="#FF9C88"/>
<path d="M126.1 56.3L114.3 54.6C114.2 52.7 114 50.7 113.9 48.7C113.6 45.2 113.3 42.2 113.3 42.2L119.1 43L108.8 13.9L105 19C111.5 35.6 111 50.8 110.8 54.1L96.3 52C96.5 41.5 91.9 33.7 91.9 33.7L88.5 37.3C91.8 42.4 91.9 48.9 91.8 51.3L76.6 49C75.5 48.8 75 47.6 75.7 46.7L80.9 40.4L83.5 37.2L93.4 25.1L95.2 22.9C100.1 31.4 100.9 40 100.9 40L104.8 40.5C103.2 30.7 99.6 23.5 97.6 19.9L108.7 6.2C109.5 5.3 111 5.5 111.4 6.6L128.8 53C129.4 54.7 128 56.5 126.1 56.3Z" fill="#B39ED3"/>
<path d="M121.5 49.7L114.1 48.7H113.9C113.6 45.2 113.3 42.2 113.3 42.2L119.1 43L121.5 49.7Z" fill="#8374A8"/>
<path d="M105.6 48.1L99.6 47.3C99.6 47.3 99.1 36.6 93.4 25L95.2 22.8C100.1 31.3 100.9 39.9 100.9 39.9L104.8 40.4C105.2 42.9 105.4 45.4 105.6 48.1Z" fill="#8374A8"/>
<path d="M81.6 46.2L83.9 42.9L80.8 40.4L83.4 37.2C87.4 41.4 87.6 47 87.6 47L81.6 46.2Z" fill="#8374A8"/>
<path d="M94.2 39.1C93.1 35.7 91.9 33.7 91.9 33.7L88.5 37.3C91.8 42.4 91.9 48.9 91.9 51.3L94.2 39.1Z" fill="#8374A8"/>
<path d="M49.8 8.8C50 9.2 50.2 9.7 50.4 10.2L43.3 16.7L41.2 14.5C41.2 14.5 41.7 13.3 42.8 13.2L40.8 12.6" stroke="#2F1D4A" stroke-width="1.3333" stroke-linecap="round" stroke-linejoin="round"/>
<path d="M89 30.3L87.9 31.7L50.9 45.5C50.3 45.7 49.6 45.4 49.4 44.8L48.8 43L37.9 10.5C37.9 10.5 41.7 6.3 46.2 4.3C46.2 4.3 48.3 5.8 49.9 8.8C49.9 8.8 50.3 8.3 50.9 7.7C52.2 6.5 54.7 4.7 58.3 4.3L58.5 6.6L58.6 7.7C58.6 7.7 55.8 8.9 54.1 10.5C54.1 10.5 53.1 12.1 52.1 14.9C51.9 15.5 51.7 16.3 51.5 17L55.1 38L60.2 36.9L89 30.3Z" fill="#FFC1A9"/>
<path d="M139 62.8L99.4 75.1C99.1 75.2 98.9 75.1 98.7 74.9C98.3 74.5 97.8 74 97.3 73.5C95.2 71.4 93 69.1 93 69.1L81 72.2C80.8 71.9 80.7 71.5 80.6 71.2C80.4 70.6 80.4 70.1 80.4 70.1L92.4 65.7C93.6 63.5 94.9 61.8 95.7 61C96.1 60.6 96.7 60.5 97.2 60.7C103.1 63.5 106 66 106 66L131.5 59.2L128.8 53.1L125.9 45.4L119.5 28.4L139.8 60.9C140.3 61.5 139.9 62.5 139 62.8Z" fill="#FFC1A9"/>
<path d="M110.8 54C109.7 32.9 103.3 21 103.3 21L105 18.9C111.4 35.5 111 50.7 110.8 54Z" fill="#8374A8"/>
<path d="M124.9 84.3V96.8L132.6 91.4L124.9 84.3Z" fill="#B39ED3"/>
<path d="M135.5 86.2V98L143.4 93L135.5 86.2Z" fill="#B39ED3"/>
<path d="M94.2 93.5L103.9 88.5L94.2 80.3V93.5Z" fill="#B39ED3"/>
<path d="M139.8 60.8L119.5 28.3L124.5 41.7L137.6 60.9C137.8 61.1 137.7 61.5 137.4 61.6L100.2 72.7L93.7 67.6L80.5 71.2C80.6 71.5 80.7 71.9 80.9 72.2L92.8 69.1L97.1 73.5C97.6 74 98.1 74.4 98.5 74.9C98.7 75.1 99 75.1 99.2 75.1L139 62.8C139.9 62.5 140.3 61.5 139.8 60.8Z" fill="#FF9C88"/>
<path d="M50.4 10.2L49.8 8.8C50 9.3 50.2 9.7 50.4 10.2Z" fill="#FF9C88"/>
<path d="M52.1 15C52.8 12.6 54.1 10.6 54.1 10.6C56.1 8.8 58.6 7.8 58.6 7.8L58.5 6.7C57.7 7 52.5 9.6 52.5 9.6L51 7.8L50 8.9L50.6 10.3V10.5V10.4L43.6 16.8L41.5 14.6C41.5 14.6 42 13.4 43.1 13.3L40.1 12.5L42.5 19.8L47.9 16.9L53.1 38.7L55.4 38.2L51.8 17.4C51.6 16.3 51.9 15.6 52.1 15Z" fill="#FF9C88"/>
<path d="M87.9 31.7L50.9 45.5C50.3 45.7 49.6 45.4 49.4 44.8L48.8 43L87.9 31.7Z" fill="#FF9C88"/>
<path d="M121.5 50L113.9 48.9C113.7 48.9 113.6 48.8 113.6 48.6C113.3 45.1 113 42.1 113 42.1C113 42 113 41.9 113.1 41.8C113.2 41.7 113.3 41.7 113.4 41.7L119.2 42.5C119.3 42.5 119.4 42.6 119.5 42.7L121.9 49.5C121.9 49.6 121.9 49.7 121.8 49.8C121.7 50 121.6 50 121.5 50ZM114.2 48.3L121 49.3L118.9 43.2L113.7 42.5C113.7 43.4 113.9 45.7 114.2 48.3Z" fill="#2F1D4A"/>
<path d="M105.6 48.4L99.5 47.6C99.3 47.6 99.2 47.4 99.2 47.3C99.2 47.2 98.6 36.5 93 25.2C92.9 25 93 24.8 93.2 24.8C93.4 24.7 93.6 24.8 93.7 25C98.9 35.5 99.8 45.3 99.9 47.1L105.2 47.8C105.1 45.4 104.8 43 104.4 40.6C104.4 40.4 104.5 40.2 104.7 40.2C104.9 40.2 105.1 40.3 105.1 40.5C105.5 43 105.8 45.6 105.9 48.2C105.9 48.3 105.9 48.4 105.8 48.5C105.7 48.4 105.7 48.4 105.6 48.4Z" fill="#2F1D4A"/>
<path d="M126.5 56.6C126.4 56.6 126.2 56.6 126.1 56.6L114.3 54.9C114.1 54.9 114 54.7 114 54.6C113.9 52.8 113.7 50.7 113.6 48.7C113.3 45.2 113 42.2 113 42.2C113 42.1 113 42 113.1 41.9C113.2 41.8 113.3 41.8 113.4 41.8L118.6 42.5L108.7 14.5L105.3 18.9C111.8 35.7 111.3 51.1 111.1 54C111.1 54.1 111 54.2 111 54.2C110.9 54.3 110.8 54.3 110.7 54.3L96.2 52.2C96 52.2 95.9 52 95.9 51.9C96.1 43 92.7 35.9 91.8 34.2L88.9 37.3C92.1 42.4 92.3 48.8 92.2 51.3C92.2 51.4 92.2 51.5 92.1 51.5C92 51.6 91.9 51.6 91.8 51.6L76.5 49.4C75.9 49.3 75.3 48.9 75.1 48.3C74.9 47.7 75 47.1 75.4 46.6L94.9 22.7C95 22.6 95.1 22.6 95.2 22.6C95.3 22.6 95.4 22.7 95.5 22.8C99.9 30.4 101 38.3 101.2 39.8L104.4 40.2C102.7 30.6 99.2 23.6 97.3 20.2C97.2 20.1 97.2 19.9 97.3 19.8L108.4 6C108.8 5.5 109.5 5.2 110.2 5.3C110.9 5.4 111.4 5.9 111.7 6.5L129.1 52.8C129.4 53.7 129.3 54.7 128.7 55.5C128.1 56.3 127.3 56.6 126.5 56.6ZM114.6 54.2L126.2 55.9C127 56 127.7 55.7 128.2 55.1C128.7 54.5 128.8 53.7 128.5 53L111 6.8C110.8 6.4 110.5 6.1 110 6C109.6 5.9 109.1 6.1 108.8 6.4L97.8 19.9C99.8 23.4 103.3 30.6 105 40.4C105 40.5 105 40.6 104.9 40.7C104.8 40.8 104.7 40.8 104.6 40.8L100.7 40.3C100.5 40.3 100.4 40.2 100.4 40C100.4 39.9 99.5 31.6 95 23.4L75.9 46.9C75.7 47.2 75.6 47.6 75.7 48C75.8 48.4 76.2 48.6 76.6 48.7L91.5 50.9C91.6 48.2 91.3 42.2 88.2 37.4C88.1 37.3 88.1 37.1 88.2 37L91.6 33.4C91.7 33.3 91.8 33.3 91.9 33.3C92 33.3 92.1 33.4 92.2 33.5C92.2 33.6 96.8 41.4 96.6 51.7L110.5 53.7C110.7 50.1 111 35.2 104.7 19.1C104.7 19 104.7 18.9 104.7 18.8L108.5 13.7C108.6 13.6 108.7 13.6 108.8 13.6C108.9 13.6 109 13.7 109.1 13.8L119.4 42.9C119.4 43 119.4 43.1 119.3 43.2C119.2 43.3 119.1 43.3 119 43.3L113.6 42.6C113.7 43.5 113.9 46 114.1 48.7C114.3 50.5 114.5 52.5 114.6 54.2Z" fill="#2F1D4A"/>
<path d="M87.6 47.3L81.5 46.5C81.4 46.5 81.3 46.4 81.2 46.3C81.2 46.2 81.2 46.1 81.2 46L83.4 42.9L80.6 40.6C80.5 40.5 80.4 40.3 80.5 40.1L83.1 36.9C83.2 36.8 83.3 36.8 83.3 36.8C83.4 36.8 83.5 36.8 83.6 36.9C87.7 41.1 87.8 46.7 87.8 46.9C87.8 47 87.8 47.1 87.7 47.2C87.7 47.3 87.7 47.3 87.6 47.3ZM82.1 45.9L87.2 46.6C87.1 45.3 86.5 41.1 83.4 37.7L81.3 40.3L84.1 42.6C84.2 42.7 84.3 42.9 84.2 43.1L82.1 45.9Z" fill="#2F1D4A"/>
<path d="M91.8 51.6C91.6 51.6 91.5 51.4 91.5 51.3C91.6 48.8 91.5 42.4 88.2 37.4C88.1 37.3 88.1 37.1 88.2 37L91.6 33.4C91.7 33.3 91.8 33.3 91.9 33.3C92 33.3 92.1 33.4 92.2 33.5C92.3 33.6 93.4 35.6 94.6 39C94.6 39.1 94.6 39.1 94.6 39.2L92.2 51.4C92.1 51.5 92 51.6 91.8 51.6ZM88.9 37.2C91.1 40.7 91.9 44.9 92.1 48L93.8 39C93 36.6 92.1 34.8 91.7 34.1L88.9 37.2Z" fill="#2F1D4A"/>
<path d="M43.3 17C43.2 17 43.1 17 43.1 16.9L41 14.8C40.9 14.7 40.9 14.6 40.9 14.4C40.9 14.4 41.2 13.7 41.8 13.3L40.7 13C40.5 12.9 40.4 12.8 40.5 12.6C40.6 12.4 40.7 12.3 40.9 12.4L42.9 13C43.1 13 43.2 13.2 43.1 13.3C43.1 13.5 43 13.6 42.8 13.6C42.2 13.7 41.8 14.2 41.6 14.5L43.3 16.3L50 10.2C49.8 9.80001 49.7 9.40001 49.5 9.10001C49.4 8.90001 49.5 8.70001 49.6 8.70001C49.8 8.60001 50 8.70001 50.1 8.80001C50.3 9.30001 50.5 9.70001 50.7 10.2C50.7 10.3 50.7 10.5 50.6 10.6L43.5 17.1C43.5 17 43.4 17 43.3 17Z" fill="#2F1D4A"/>
<path d="M50.5 45.9C50.3 45.9 50.1 45.9 49.8 45.8C49.4 45.6 49.1 45.3 49 44.9L37.5 10.6C37.4 10.4 37.5 10.2 37.7 10.2C37.9 10.1 38.1 10.2 38.1 10.4L49.6 44.6C49.7 44.8 49.8 45 50 45.1C50.2 45.2 50.4 45.2 50.7 45.1L87.6 31.3L88.1 30.7L55.1 38.1C55 38.1 54.9 38.1 54.8 38.1C54.7 38 54.7 38 54.7 37.9L51.1 17.1V17C52.2 12.8 53.7 10.4 53.8 10.3C53.8 10.3 53.8 10.3 53.9 10.2C55.3 8.9 57.6 7.8 58.3 7.4L58 4.6C54.6 5.2 52.2 7 51.1 8C51 8.1 50.7 8.1 50.6 8C50.5 7.9 50.5 7.7 50.6 7.5C51.8 6.4 54.4 4.4 58.1 4C58.2 4 58.3 4 58.4 4.1C58.5 4.2 58.5 4.2 58.5 4.3L58.8 7.7C58.8 7.8 58.7 8 58.6 8C58.6 8 55.9 9.2 54.2 10.7C54 11 52.7 13.3 51.7 17.1L55.3 37.5L89 30C89.1 30 89.3 30 89.4 30.1C89.5 30.2 89.5 30.4 89.4 30.5L88.3 31.9L88.2 32L51 45.8C50.8 45.9 50.7 45.9 50.5 45.9Z" fill="#2F1D4A"/>
<path d="M39.4 9.3C39.3 9.3 39.2 9.3 39.2 9.2C39.1 9.1 39.1 8.9 39.2 8.7C40.8 7.3 43.3 5.3 46 4C46.1 4 46.2 4 46.3 4C46.4 4.1 48.5 5.6 50.1 8.6C50.2 8.8 50.1 9 50 9C49.8 9.1 49.6 9 49.5 8.9C48.3 6.5 46.6 5 46.1 4.6C43.5 5.8 41.2 7.7 39.7 9.1C39.6 9.3 39.5 9.3 39.4 9.3Z" fill="#2F1D4A"/>
<path d="M86.8 67C86.7 67 86.7 67 86.8 67L59 62.8C58.8 62.8 58.7 62.6 58.7 62.4C58.7 62.2 58.9 62.1 59.1 62.1L86.8 66.2C87 66.2 87.1 66.4 87.1 66.6C87.1 66.8 86.9 67 86.8 67Z" fill="#2F1D4A"/>
<path d="M86.8 67C86.7 67 86.7 67 86.8 67L59 62.8C58.8 62.8 58.7 62.6 58.7 62.4C58.7 62.2 58.9 62.1 59.1 62.1L86.8 66.2C87 66.2 87.1 66.4 87.1 66.6C87.1 66.8 86.9 67 86.8 67Z" fill="#2F1D4A"/>
<path d="M81.7 70L42.3 63.7C42.2 63.7 42 63.6 42 63.4C42 63.3 42 63.1 42.2 63L46.8 60.3C46.9 60.3 46.9 60.2 47 60.3L54.9 61.5C55.1 61.5 55.2 61.7 55.2 61.9C55.2 62.1 55 62.2 54.8 62.2L47 61L43.3 63.2L81.7 69.3C81.9 69.3 82 69.5 82 69.7C82 69.9 81.9 70 81.7 70Z" fill="#2F1D4A"/>
<path d="M77.7 98.6C77.5 98.6 77.4 98.5 77.4 98.3L76.6 69C76.6 68.8 76.7 68.7 76.9 68.7C77.1 68.7 77.2 68.8 77.2 69L78.1 98.3C78.1 98.4 77.9 98.6 77.7 98.6Z" fill="#2F1D4A"/>
<path d="M124.9 97.1C124.8 97.1 124.8 97.1 124.7 97.1C124.6 97 124.5 96.9 124.5 96.8V84.3C124.5 84.2 124.6 84 124.7 84C124.8 83.9 125 84 125.1 84.1L132.8 91.2C132.9 91.3 132.9 91.4 132.9 91.5C132.9 91.6 132.8 91.7 132.8 91.8L125.1 97.2C125.1 97.1 125 97.1 124.9 97.1ZM125.3 85.1V96.2L132.1 91.4L125.3 85.1Z" fill="#2F1D4A"/>
<path d="M135.5 98.3C135.4 98.3 135.4 98.3 135.3 98.3C135.2 98.2 135.1 98.1 135.1 98V86.2C135.1 86.1 135.2 86 135.3 85.9C135.4 85.8 135.6 85.9 135.7 86L143.6 92.8C143.7 92.9 143.7 93 143.7 93.1C143.7 93.2 143.6 93.3 143.5 93.4L135.6 98.4C135.6 98.3 135.5 98.3 135.5 98.3ZM135.8 86.9V97.4L142.8 92.9L135.8 86.9Z" fill="#2F1D4A"/>
<path d="M94.2 93.9C94.1 93.9 94.1 93.9 94 93.9C93.9 93.8 93.8 93.7 93.8 93.6V80.3C93.8 80.2 93.9 80.1 94 80C94.1 79.9 94.3 80 94.4 80L104.1 88.2C104.2 88.3 104.2 88.4 104.2 88.5C104.2 88.6 104.1 88.7 104 88.8L94.3 93.8C94.3 93.9 94.3 93.9 94.2 93.9ZM94.6 81.1V93L103.4 88.5L94.6 81.1Z" fill="#2F1D4A"/>
<path d="M54 84.1C53.7 84.1 53.5 83.9 53.5 83.6L53.2 74L52.5 74.6C52.3 74.8 52 74.8 51.8 74.6C51.6 74.4 51.6 74.1 51.8 73.9L53.3 72.5C53.4 72.4 53.7 72.3 53.8 72.4C54 72.5 54.1 72.6 54.1 72.8L54.5 83.5C54.5 83.9 54.3 84.1 54 84.1Z" fill="#2F1D4A"/>
<path d="M63.1 85.9C63 85.9 62.8 85.9 62.7 85.9C60.7 85.7 58.3 83.9 58.1 79.5C58 77.3 58.6 75.4 59.8 74.3C60.6 73.5 61.5 73.2 62.6 73.2C65.9 73.4 67.3 76.8 67.3 80C67.3 82.3 66.7 84 65.6 85C64.9 85.6 64.1 85.9 63.1 85.9ZM59.2 79.4C59.4 83.2 61.3 84.7 62.8 84.8C63.4 84.9 64.2 84.8 65 84.1C65.9 83.3 66.4 81.8 66.4 79.9C66.4 78 65.7 74.2 62.7 74.1C61.9 74.1 61.2 74.3 60.6 74.9C59.6 75.9 59.1 77.6 59.2 79.4Z" fill="#2F1D4A"/>
<path d="M63.6 91C63 91 62.3 90.9 61.5 90.8C57.7 90.1 49.4 88.6 49.4 88.6L49.6 87.6C49.6 87.6 57.9 89.1 61.7 89.8C64.1 90.2 66.1 89.9 67.5 88.8C68.6 88 69.3 86.8 69.4 85.4C69.4 85.1 69.7 84.9 70 85C70.3 85 70.5 85.3 70.4 85.6C70.2 87.3 69.4 88.7 68.1 89.7C67.2 90.3 65.7 91 63.6 91Z" fill="#2F1D4A"/>
<path d="M52.4 90.7L49.5 88.1L52.2 86.1L52.4 90.7Z" fill="#2F1D4A"/>
<path d="M52.4 91.2C52.3 91.2 52.2 91.2 52.1 91.1L49.2 88.5C49 88.4 49 88.3 49 88.1C49 88 49.1 87.8 49.2 87.7L51.9 85.7C52 85.6 52.3 85.6 52.4 85.6C52.6 85.7 52.7 85.8 52.7 86L52.9 90.6C52.9 90.8 52.8 91 52.6 91.1C52.5 91.2 52.4 91.2 52.4 91.2ZM50.3 88.2L51.8 89.6L51.7 87.2L50.3 88.2Z" fill="#2F1D4A"/>
<path d="M99.2 75.5C98.9 75.5 98.7 75.4 98.5 75.2C96.4 73.3 93.5 70.2 92.9 69.6L81.2 72.6C81.1 72.6 80.9 72.6 80.8 72.4C80.2 71.4 80.1 70.3 80.1 70.2C80.1 70 80.2 69.9 80.3 69.9L92.2 65.5C93.4 63.2 94.8 61.6 95.4 60.8C95.9 60.3 96.6 60.1 97.3 60.4C102.5 62.9 105.4 65.1 106 65.6L131 58.9L128.5 53.1L119.2 28.4C119.1 28.2 119.2 28.1 119.4 28C119.6 27.9 119.7 28 119.8 28.1L140.1 60.6C140.4 61 140.4 61.6 140.2 62.1C140 62.6 139.6 63 139.1 63.1L99.5 75.4C99.4 75.4 99.3 75.5 99.2 75.5ZM92.9 68.8C93 68.8 93.1 68.8 93.1 68.9C93.1 68.9 96.5 72.5 98.8 74.7C98.9 74.8 99.1 74.8 99.2 74.8L138.8 62.5C139.1 62.4 139.3 62.2 139.5 61.9C139.6 61.6 139.6 61.3 139.4 61L121 31.4L129.1 52.9L131.8 59C131.8 59.1 131.8 59.2 131.8 59.3C131.8 59.4 131.7 59.5 131.6 59.5L106 66.3C105.9 66.3 105.8 66.3 105.7 66.2C105.7 66.2 102.8 63.7 97 61C96.6 60.8 96.2 60.9 95.9 61.2C95.2 62 93.9 63.6 92.7 65.9C92.7 66 92.6 66 92.5 66.1L80.8 70.4C80.9 70.7 81 71.3 81.3 71.8L92.9 68.8Z" fill="#2F1D4A"/>
<path d="M92.3 66.1C92.2 66.1 92 66 92 65.9C91.9 65.7 92 65.5 92.2 65.5L95.3 64.3C95.5 64.2 95.7 64.3 95.7 64.5C95.8 64.7 95.7 64.9 95.5 64.9L92.5 66C92.4 66.1 92.4 66.1 92.3 66.1Z" fill="#2F1D4A"/>
<path d="M131.4 59.4C131.3 59.4 131.1 59.3 131.1 59.2C131 59 131.2 58.8 131.3 58.8L132.2 58.6C132.4 58.6 132.6 58.7 132.6 58.8C132.7 59 132.5 59.2 132.4 59.2L131.4 59.4C131.5 59.4 131.5 59.4 131.4 59.4Z" fill="#2F1D4A"/>
<path d="M110.8 54.4C110.6 54.4 110.5 54.3 110.5 54.1C109.4 33.4 103.1 21.3 103.1 21.2C103 21.1 103 20.9 103.1 20.8L104.8 18.7C104.9 18.6 105.1 18.5 105.3 18.6C105.4 18.7 105.5 18.9 105.4 19.1L103.9 21C104.7 22.6 110.3 34.5 111.3 54C111.1 54.2 111 54.3 110.8 54.4Z" fill="#2F1D4A"/>
<path d="M100.6 62.8C100.5 62.8 100.5 62.8 100.4 62.8C99.3 62.2 98.1 61.6 96.9 61C96.8 61 96.8 61 96.7 60.9C96.5 60.9 96.4 60.7 96.4 60.5L96.9 53.9C96.9 53.7 97.1 53.6 97.3 53.6C97.5 53.6 97.6 53.8 97.6 54L97.1 60.3H97.2C98.2 60.8 99.3 61.3 100.3 61.8V53.6C100.3 53.4 100.5 53.3 100.6 53.3C100.8 53.3 100.9 53.4 100.9 53.6V62.3C100.9 62.4 100.8 62.5 100.7 62.6C100.7 62.8 100.7 62.8 100.6 62.8Z" fill="#2F1D4A"/>
<path d="M120 71.9L116 71.3C115.8 71.3 115.7 71.1 115.7 71V69.9C115.7 69.8 115.8 69.6 115.9 69.6L119.6 68.4C119.7 68.4 119.8 68.4 119.9 68.4C120 68.4 120 68.5 120 68.7L120.2 71.5C120.2 71.6 120.2 71.7 120.1 71.8C120.2 71.9 120.1 71.9 120 71.9ZM116.4 70.7L119.6 71.2L119.4 69.2L116.3 70.2L116.4 70.7Z" fill="#2F1D4A"/>
<path d="M115.9 63.6C115.8 63.6 115.8 63.6 115.7 63.5C115.6 63.4 115.6 63.3 115.6 63.2L115.4 56.2C115.4 56 115.5 55.9 115.7 55.9C115.9 55.9 116 56 116 56.2L116.2 62.7L118.9 62L118.3 55.1C118.3 54.9 118.4 54.8 118.6 54.7C118.8 54.7 118.9 54.8 119 55L119.6 62.2C119.6 62.4 119.5 62.5 119.4 62.5L115.9 63.6C116 63.6 116 63.6 115.9 63.6Z" fill="#2F1D4A"/>
<path d="M92.9 71.8L87.3 70.9C87.1 70.9 87 70.7 87 70.5C87 70.3 87.2 70.2 87.4 70.2L93 71.1C93.2 71.1 93.3 71.3 93.3 71.5C93.2 71.7 93.1 71.8 92.9 71.8Z" fill="#2F1D4A"/>
<path d="M151.3 81.1L108 74.2C107.8 74.2 107.7 74 107.7 73.8C107.7 73.6 107.9 73.5 108.1 73.5L150.7 80.3L148.4 76.1L113.7 71C113.5 71 113.4 70.8 113.4 70.6C113.4 70.4 113.6 70.3 113.8 70.3L148.6 75.5C148.7 75.5 148.8 75.6 148.8 75.7L151.5 80.7C151.6 80.8 151.6 80.9 151.5 81.1C151.5 81.1 151.4 81.1 151.3 81.1Z" fill="#2F1D4A"/>
<path d="M113.7 71L148.4 76.2L151 80.9L150.2 99H150.9L151.6 80.8C151.6 80.7 151.6 80.7 151.6 80.6L148.9 75.6C148.8 75.5 148.8 75.4 148.7 75.4L113.9 70.2C113.7 70.2 113.5 70.3 113.5 70.5C113.4 70.8 113.5 70.9 113.7 71Z" fill="#2F1D4A"/>
<path d="M44.8 93.1L80.1 99H84.2L45.2 92.5L42.8 63.6L47.1 61.1L54.9 62.3C55.1 62.3 55.3 62.2 55.3 62C55.3 61.8 55.2 61.6 55 61.6L47.1 60.4C47 60.4 46.9 60.4 46.9 60.4L42.3 63.1C42.2 63.2 42.1 63.3 42.1 63.4L44.5 92.8C44.5 93 44.6 93.1 44.8 93.1Z" fill="#2F1D4A"/>
<path d="M119 99V75.6C119 75.4 118.8 75.3 118.7 75.3C118.5 75.3 118.4 75.4 118.4 75.6V99H119Z" fill="#2F1D4A"/>
</svg>
