<?xml version="1.0" encoding="utf-8"?>
<!-- Generator: Adobe Illustrator 28.0.0, SVG Export Plug-In . SVG Version: 6.00 Build 0)  -->
<svg version="1.1" id="Layer_1" xmlns="http://www.w3.org/2000/svg" xmlns:xlink="http://www.w3.org/1999/xlink" x="0px" y="0px"
	 viewBox="0 0 358 99" style="enable-background:new 0 0 358 99;" xml:space="preserve">
<style type="text/css">
	.st0{fill:#FFFFFF;}
	.st1{fill:#FFC1A9;}
	.st2{fill:#E7E1EC;}
	.st3{fill:#FF9C88;}
	.st4{fill:#B39ED3;}
	.st5{fill:#8374A8;}
	.st6{fill:none;stroke:#2F1D4A;stroke-width:1.3333;stroke-linecap:round;stroke-linejoin:round;}
	.st7{fill:#2F1D4A;}
</style>
<rect class="st0" width="358" height="99"/>
<path class="st1" d="M358,99V0H140.1L0,14.5l13.5,65L146,98.8L358,99z"/>
<polygon class="st2" points="82.1,99 150.5,99 151.3,80.8 148.6,75.8 47,60.7 42.4,63.4 44.8,92.8 "/>
<path class="st3" d="M100.6,68.7V52.5l-3.2-0.5l-1.2,16L100.6,68.7z"/>
<path class="st3" d="M120,71.6l-1.3-16.4l-3-0.4l0.4,16.2L120,71.6z"/>
<path class="st4" d="M126.1,56.3l-11.8-1.7c-0.1-1.9-0.3-3.9-0.4-5.9c-0.3-3.5-0.6-6.5-0.6-6.5l5.8,0.8l-10.3-29.1l-3.8,5.1
	c6.5,16.6,6,31.8,5.8,35.1l-14.5-2.1c0.2-10.5-4.4-18.3-4.4-18.3l-3.4,3.6c3.3,5.1,3.4,11.6,3.3,14L76.6,49
	c-1.1-0.2-1.6-1.4-0.9-2.3l5.2-6.3l2.6-3.2l9.9-12.1l1.8-2.2c4.9,8.5,5.7,17.1,5.7,17.1l3.9,0.5c-1.6-9.8-5.2-17-7.2-20.6l11.1-13.7
	c0.8-0.9,2.3-0.7,2.7,0.4L128.8,53C129.4,54.7,128,56.5,126.1,56.3z"/>
<path class="st5" d="M121.5,49.7l-7.4-1l-0.2,0c-0.3-3.5-0.6-6.5-0.6-6.5l5.8,0.8L121.5,49.7z"/>
<path class="st5" d="M105.6,48.1l-6-0.8c0,0-0.5-10.7-6.2-22.3l1.8-2.2c4.9,8.5,5.7,17.1,5.7,17.1l3.9,0.5
	C105.2,42.9,105.4,45.4,105.6,48.1z"/>
<path class="st5" d="M81.6,46.2l2.3-3.3l-3.1-2.5l2.6-3.2c4,4.2,4.2,9.8,4.2,9.8L81.6,46.2z"/>
<path class="st5" d="M94.2,39.1c-1.1-3.4-2.3-5.4-2.3-5.4l-3.4,3.6c3.3,5.1,3.4,11.6,3.4,14L94.2,39.1z"/>
<path class="st6" d="M49.8,8.8c0.2,0.4,0.4,0.9,0.6,1.4l-7.1,6.5l-2.1-2.2c0,0,0.5-1.2,1.6-1.3l-2-0.6"/>
<path class="st1" d="M89,30.3l-1.1,1.4l-37,13.8c-0.6,0.2-1.3-0.1-1.5-0.7L48.8,43L37.9,10.5c0,0,3.8-4.2,8.3-6.2
	c0,0,2.1,1.5,3.7,4.5c0,0,0.4-0.5,1-1.1c1.3-1.2,3.8-3,7.4-3.4l0.2,2.3l0.1,1.1c0,0-2.8,1.2-4.5,2.8c0,0-1,1.6-2,4.4
	c-0.2,0.6-0.4,1.4-0.6,2.1L55.1,38l5.1-1.1L89,30.3z"/>
<path class="st1" d="M139,62.8L99.4,75.1c-0.3,0.1-0.5,0-0.7-0.2c-0.4-0.4-0.9-0.9-1.4-1.4c-2.1-2.1-4.3-4.4-4.3-4.4L81,72.2
	c-0.2-0.3-0.3-0.7-0.4-1c-0.2-0.6-0.2-1.1-0.2-1.1l12-4.4c1.2-2.2,2.5-3.9,3.3-4.7c0.4-0.4,1-0.5,1.5-0.3c5.9,2.8,8.8,5.3,8.8,5.3
	l25.5-6.8l-2.7-6.1l-2.9-7.7l0,0l-6.4-17l20.3,32.5C140.3,61.5,139.9,62.5,139,62.8z"/>
<path class="st5" d="M110.8,54c-1.1-21.1-7.5-33-7.5-33l1.7-2.1C111.4,35.5,111,50.7,110.8,54z"/>
<path class="st4" d="M124.9,84.3v12.5l7.7-5.4L124.9,84.3z"/>
<path class="st4" d="M135.5,86.2V98l7.9-5L135.5,86.2z"/>
<path class="st4" d="M94.2,93.5l9.7-5l-9.7-8.2V93.5z"/>
<path class="st3" d="M139.8,60.8l-20.3-32.5l5,13.4l13.1,19.2c0.2,0.2,0.1,0.6-0.2,0.7l-37.2,11.1l-6.5-5.1l-13.2,3.6
	c0.1,0.3,0.2,0.7,0.4,1l11.9-3.1l4.3,4.4c0.5,0.5,1,0.9,1.4,1.4c0.2,0.2,0.5,0.2,0.7,0.2L139,62.8C139.9,62.5,140.3,61.5,139.8,60.8
	z"/>
<path class="st3" d="M50.4,10.2L50.4,10.2l-0.6-1.4C50,9.3,50.2,9.7,50.4,10.2z"/>
<path class="st3" d="M52.1,15c0.7-2.4,2-4.4,2-4.4c2-1.8,4.5-2.8,4.5-2.8l-0.1-1.1c-0.8,0.3-6,2.9-6,2.9l-1.5-1.8l-1,1.1l0.6,1.4
	l0,0.2l0-0.1l-7,6.4l-2.1-2.2c0,0,0.5-1.2,1.6-1.3l-3-0.8l2.4,7.3l5.4-2.9l5.2,21.8l2.3-0.5l-3.6-20.8C51.6,16.3,51.9,15.6,52.1,15z
	"/>
<path class="st3" d="M87.9,31.7l-37,13.8c-0.6,0.2-1.3-0.1-1.5-0.7L48.8,43L87.9,31.7z"/>
<path class="st5" d="M107.2,138.7l-0.5,0.8C106.8,139.3,107,139,107.2,138.7z"/>
<path class="st7" d="M121.5,50C121.5,50,121.4,50,121.5,50l-7.6-1.1c-0.2,0-0.3-0.1-0.3-0.3c-0.3-3.5-0.6-6.5-0.6-6.5
	c0-0.1,0-0.2,0.1-0.3c0.1-0.1,0.2-0.1,0.3-0.1l5.8,0.8c0.1,0,0.2,0.1,0.3,0.2l2.4,6.8c0,0.1,0,0.2-0.1,0.3
	C121.7,50,121.6,50,121.5,50z M114.2,48.3l6.8,1l-2.1-6.1l-5.2-0.7C113.7,43.4,113.9,45.7,114.2,48.3z"/>
<path class="st7" d="M105.6,48.4C105.6,48.4,105.5,48.4,105.6,48.4l-6.1-0.8c-0.2,0-0.3-0.2-0.3-0.3c0-0.1-0.6-10.8-6.2-22.1
	c-0.1-0.2,0-0.4,0.2-0.4c0.2-0.1,0.4,0,0.5,0.2c5.2,10.5,6.1,20.3,6.2,22.1l5.3,0.7c-0.1-2.4-0.4-4.8-0.8-7.2c0-0.2,0.1-0.4,0.3-0.4
	c0.2,0,0.4,0.1,0.4,0.3c0.4,2.5,0.7,5.1,0.8,7.7c0,0.1,0,0.2-0.1,0.3C105.7,48.4,105.7,48.4,105.6,48.4z"/>
<path class="st7" d="M126.5,56.6c-0.1,0-0.3,0-0.4,0l-11.8-1.7c-0.2,0-0.3-0.2-0.3-0.3c-0.1-1.8-0.3-3.9-0.4-5.9
	c-0.3-3.5-0.6-6.5-0.6-6.5c0-0.1,0-0.2,0.1-0.3c0.1-0.1,0.2-0.1,0.3-0.1l5.2,0.7l-9.9-28l-3.4,4.4c6.5,16.8,6,32.2,5.8,35.1
	c0,0.1-0.1,0.2-0.1,0.2c-0.1,0.1-0.2,0.1-0.3,0.1l-14.5-2.1c-0.2,0-0.3-0.2-0.3-0.3c0.2-8.9-3.2-16-4.1-17.7l-2.9,3.1
	c3.2,5.1,3.4,11.5,3.3,14c0,0.1,0,0.2-0.1,0.2c-0.1,0.1-0.2,0.1-0.3,0.1l-15.3-2.2c-0.6-0.1-1.2-0.5-1.4-1.1
	c-0.2-0.6-0.1-1.2,0.3-1.7l19.5-23.9c0.1-0.1,0.2-0.1,0.3-0.1c0.1,0,0.2,0.1,0.3,0.2c4.4,7.6,5.5,15.5,5.7,17l3.2,0.4
	c-1.7-9.6-5.2-16.6-7.1-20c-0.1-0.1-0.1-0.3,0-0.4L108.4,6c0.4-0.5,1.1-0.8,1.8-0.7c0.7,0.1,1.2,0.6,1.5,1.2l17.4,46.3
	c0.3,0.9,0.2,1.9-0.4,2.7C128.1,56.3,127.3,56.6,126.5,56.6z M114.6,54.2l11.6,1.7c0.8,0.1,1.5-0.2,2-0.8c0.5-0.6,0.6-1.4,0.3-2.1
	L111,6.8c-0.2-0.4-0.5-0.7-1-0.8c-0.4-0.1-0.9,0.1-1.2,0.4l-11,13.5c2,3.5,5.5,10.7,7.2,20.5c0,0.1,0,0.2-0.1,0.3
	c-0.1,0.1-0.2,0.1-0.3,0.1l-3.9-0.5c-0.2,0-0.3-0.1-0.3-0.3c0-0.1-0.9-8.4-5.4-16.6L75.9,46.9c-0.2,0.3-0.3,0.7-0.2,1.1
	c0.1,0.4,0.5,0.6,0.9,0.7l14.9,2.2c0.1-2.7-0.2-8.7-3.3-13.5c-0.1-0.1-0.1-0.3,0-0.4l3.4-3.6c0.1-0.1,0.2-0.1,0.3-0.1
	c0.1,0,0.2,0.1,0.3,0.2c0,0.1,4.6,7.9,4.4,18.2l13.9,2c0.2-3.6,0.5-18.5-5.8-34.6c0-0.1,0-0.2,0-0.3l3.8-5.1
	c0.1-0.1,0.2-0.1,0.3-0.1c0.1,0,0.2,0.1,0.3,0.2l10.3,29.1c0,0.1,0,0.2-0.1,0.3c-0.1,0.1-0.2,0.1-0.3,0.1l-5.4-0.7
	c0.1,0.9,0.3,3.4,0.5,6.1C114.3,50.5,114.5,52.5,114.6,54.2z"/>
<path class="st7" d="M87.6,47.3C87.6,47.3,87.6,47.3,87.6,47.3l-6.1-0.8c-0.1,0-0.2-0.1-0.3-0.2c0-0.1,0-0.2,0-0.3l2.2-3.1l-2.8-2.3
	c-0.1-0.1-0.2-0.3-0.1-0.5l2.6-3.2c0.1-0.1,0.2-0.1,0.2-0.1c0.1,0,0.2,0,0.3,0.1c4.1,4.2,4.2,9.8,4.2,10c0,0.1,0,0.2-0.1,0.3
	C87.7,47.3,87.7,47.3,87.6,47.3z M82.1,45.9l5.1,0.7c-0.1-1.3-0.7-5.5-3.8-8.9l-2.1,2.6l2.8,2.3c0.1,0.1,0.2,0.3,0.1,0.5L82.1,45.9z
	"/>
<path class="st7" d="M91.8,51.6C91.8,51.6,91.8,51.6,91.8,51.6c-0.2,0-0.3-0.2-0.3-0.3c0.1-2.5,0-8.9-3.3-13.9
	c-0.1-0.1-0.1-0.3,0-0.4l3.4-3.6c0.1-0.1,0.2-0.1,0.3-0.1c0.1,0,0.2,0.1,0.3,0.2c0.1,0.1,1.2,2.1,2.4,5.5c0,0.1,0,0.1,0,0.2
	l-2.4,12.2C92.1,51.5,92,51.6,91.8,51.6z M88.9,37.2c2.2,3.5,3,7.7,3.2,10.8l1.7-9c-0.8-2.4-1.7-4.2-2.1-4.9L88.9,37.2z"/>
<path class="st7" d="M43.3,17c-0.1,0-0.2,0-0.2-0.1L41,14.8c-0.1-0.1-0.1-0.2-0.1-0.4c0,0,0.3-0.7,0.9-1.1l-1.1-0.3
	c-0.2-0.1-0.3-0.2-0.2-0.4c0.1-0.2,0.2-0.3,0.4-0.2l2,0.6c0.2,0,0.3,0.2,0.2,0.3c0,0.2-0.1,0.3-0.3,0.3c-0.6,0.1-1,0.6-1.2,0.9
	l1.7,1.8l6.7-6.1c-0.2-0.4-0.3-0.8-0.5-1.1c-0.1-0.2,0-0.4,0.1-0.4c0.2-0.1,0.4,0,0.5,0.1c0.2,0.5,0.4,0.9,0.6,1.4
	c0,0.1,0,0.3-0.1,0.4l-7.1,6.5C43.5,17,43.4,17,43.3,17z"/>
<path class="st7" d="M50.5,45.9c-0.2,0-0.4,0-0.7-0.1c-0.4-0.2-0.7-0.5-0.8-0.9L37.5,10.6c-0.1-0.2,0-0.4,0.2-0.4
	c0.2-0.1,0.4,0,0.4,0.2l11.5,34.2c0.1,0.2,0.2,0.4,0.4,0.5c0.2,0.1,0.4,0.1,0.7,0l36.9-13.8l0.5-0.6l-33,7.4c-0.1,0-0.2,0-0.3,0
	c-0.1-0.1-0.1-0.1-0.1-0.2l-3.6-20.8c0,0,0-0.1,0-0.1c1.1-4.2,2.6-6.6,2.7-6.7c0,0,0,0,0.1-0.1c1.4-1.3,3.7-2.4,4.4-2.8l-0.3-2.8
	C54.6,5.2,52.2,7,51.1,8c-0.1,0.1-0.4,0.1-0.5,0c-0.1-0.1-0.1-0.3,0-0.5c1.2-1.1,3.8-3.1,7.5-3.5c0.1,0,0.2,0,0.3,0.1
	c0.1,0.1,0.1,0.1,0.1,0.2l0.3,3.4c0,0.1-0.1,0.3-0.2,0.3c0,0-2.7,1.2-4.4,2.7c-0.2,0.3-1.5,2.6-2.5,6.4l3.6,20.4L89,30
	c0.1,0,0.3,0,0.4,0.1c0.1,0.1,0.1,0.3,0,0.4l-1.1,1.4c0,0-0.1,0.1-0.1,0.1L51,45.8C50.8,45.9,50.7,45.9,50.5,45.9z"/>
<path class="st7" d="M39.4,9.3c-0.1,0-0.2,0-0.2-0.1c-0.1-0.1-0.1-0.3,0-0.5C40.8,7.3,43.3,5.3,46,4c0.1,0,0.2,0,0.3,0
	c0.1,0.1,2.2,1.6,3.8,4.6c0.1,0.2,0,0.4-0.1,0.4c-0.2,0.1-0.4,0-0.5-0.1c-1.2-2.4-2.9-3.9-3.4-4.3c-2.6,1.2-4.9,3.1-6.4,4.5
	C39.6,9.3,39.5,9.3,39.4,9.3z"/>
<path class="st7" d="M86.8,67C86.7,67,86.7,67,86.8,67L59,62.8c-0.2,0-0.3-0.2-0.3-0.4c0-0.2,0.2-0.3,0.4-0.3l27.7,4.1
	c0.2,0,0.3,0.2,0.3,0.4C87.1,66.8,86.9,67,86.8,67z"/>
<path class="st7" d="M86.8,67C86.7,67,86.7,67,86.8,67L59,62.8c-0.2,0-0.3-0.2-0.3-0.4c0-0.2,0.2-0.3,0.4-0.3l27.7,4.1
	c0.2,0,0.3,0.2,0.3,0.4C87.1,66.8,86.9,67,86.8,67z"/>
<path class="st7" d="M81.7,70C81.7,70,81.7,70,81.7,70l-39.4-6.3c-0.1,0-0.3-0.1-0.3-0.3c0-0.1,0-0.3,0.2-0.4l4.6-2.7
	c0.1,0,0.1-0.1,0.2,0l7.9,1.2c0.2,0,0.3,0.2,0.3,0.4c0,0.2-0.2,0.3-0.4,0.3l-7.8-1.2l-3.7,2.2l38.4,6.1c0.2,0,0.3,0.2,0.3,0.4
	C82,69.9,81.9,70,81.7,70z"/>
<path class="st7" d="M77.7,98.6c-0.2,0-0.3-0.1-0.3-0.3L76.6,69c0-0.2,0.1-0.3,0.3-0.3c0.2,0,0.3,0.1,0.3,0.3l0.9,29.3
	C78.1,98.4,77.9,98.6,77.7,98.6L77.7,98.6z"/>
<path class="st7" d="M124.9,97.1c-0.1,0-0.1,0-0.2,0c-0.1-0.1-0.2-0.2-0.2-0.3V84.3c0-0.1,0.1-0.3,0.2-0.3c0.1-0.1,0.3,0,0.4,0.1
	l7.7,7.1c0.1,0.1,0.1,0.2,0.1,0.3c0,0.1-0.1,0.2-0.1,0.3l-7.7,5.4C125.1,97.1,125,97.1,124.9,97.1z M125.3,85.1v11.1l6.8-4.8
	L125.3,85.1z"/>
<path class="st7" d="M135.5,98.3c-0.1,0-0.1,0-0.2,0c-0.1-0.1-0.2-0.2-0.2-0.3V86.2c0-0.1,0.1-0.2,0.2-0.3c0.1-0.1,0.3,0,0.4,0.1
	l7.9,6.8c0.1,0.1,0.1,0.2,0.1,0.3c0,0.1-0.1,0.2-0.2,0.3l-7.9,5C135.6,98.3,135.5,98.3,135.5,98.3z M135.8,86.9v10.5l7-4.5
	L135.8,86.9z"/>
<path class="st7" d="M94.2,93.9c-0.1,0-0.1,0-0.2,0c-0.1-0.1-0.2-0.2-0.2-0.3V80.3c0-0.1,0.1-0.2,0.2-0.3c0.1-0.1,0.3,0,0.4,0
	l9.7,8.2c0.1,0.1,0.1,0.2,0.1,0.3c0,0.1-0.1,0.2-0.2,0.3l-9.7,5C94.3,93.9,94.3,93.9,94.2,93.9z M94.6,81.1V93l8.8-4.5L94.6,81.1z"
	/>
<path class="st7" d="M54,84.1c-0.3,0-0.5-0.2-0.5-0.5L53.2,74l-0.7,0.6c-0.2,0.2-0.5,0.2-0.7,0c-0.2-0.2-0.2-0.5,0-0.7l1.5-1.4
	c0.1-0.1,0.4-0.2,0.5-0.1c0.2,0.1,0.3,0.2,0.3,0.4l0.4,10.7C54.5,83.9,54.3,84.1,54,84.1L54,84.1z"/>
<path class="st7" d="M63.1,85.9c-0.1,0-0.3,0-0.4,0c-2-0.2-4.4-2-4.6-6.4c-0.1-2.2,0.5-4.1,1.7-5.2c0.8-0.8,1.7-1.1,2.8-1.1
	c3.3,0.2,4.7,3.6,4.7,6.8c0,2.3-0.6,4-1.7,5C64.9,85.6,64.1,85.9,63.1,85.9z M59.2,79.4c0.2,3.8,2.1,5.3,3.6,5.4
	c0.6,0.1,1.4,0,2.2-0.7c0.9-0.8,1.4-2.3,1.4-4.2c0-1.9-0.7-5.7-3.7-5.8c-0.8,0-1.5,0.2-2.1,0.8C59.6,75.9,59.1,77.6,59.2,79.4z"/>
<path class="st7" d="M63.6,91c-0.6,0-1.3-0.1-2.1-0.2c-3.8-0.7-12.1-2.2-12.1-2.2l0.2-1c0,0,8.3,1.5,12.1,2.2c2.4,0.4,4.4,0.1,5.8-1
	c1.1-0.8,1.8-2,1.9-3.4c0-0.3,0.3-0.5,0.6-0.4c0.3,0,0.5,0.3,0.4,0.6c-0.2,1.7-1,3.1-2.3,4.1C67.2,90.3,65.7,91,63.6,91z"/>
<path class="st7" d="M52.4,90.7l-2.9-2.6l2.7-2L52.4,90.7z"/>
<path class="st7" d="M52.4,91.2c-0.1,0-0.2,0-0.3-0.1l-2.9-2.6C49,88.4,49,88.3,49,88.1c0-0.1,0.1-0.3,0.2-0.4l2.7-2
	c0.1-0.1,0.4-0.1,0.5-0.1c0.2,0.1,0.3,0.2,0.3,0.4l0.2,4.6c0,0.2-0.1,0.4-0.3,0.5C52.5,91.2,52.4,91.2,52.4,91.2z M50.3,88.2
	l1.5,1.4l-0.1-2.4L50.3,88.2z"/>
<path class="st7" d="M99.2,75.5c-0.3,0-0.5-0.1-0.7-0.3c-2.1-1.9-5-5-5.6-5.6l-11.7,3c-0.1,0-0.3,0-0.4-0.2c-0.6-1-0.7-2.1-0.7-2.2
	c0-0.2,0.1-0.3,0.2-0.3l11.9-4.4c1.2-2.3,2.6-3.9,3.2-4.7c0.5-0.5,1.2-0.7,1.9-0.4c5.2,2.5,8.1,4.7,8.7,5.2l25-6.7l-2.5-5.8
	l-9.3-24.7c-0.1-0.2,0-0.3,0.2-0.4c0.2-0.1,0.3,0,0.4,0.1l20.3,32.5c0.3,0.4,0.3,1,0.1,1.5c-0.2,0.5-0.6,0.9-1.1,1L99.5,75.4
	C99.4,75.4,99.3,75.5,99.2,75.5z M92.9,68.8c0.1,0,0.2,0,0.2,0.1c0,0,3.4,3.6,5.7,5.8c0.1,0.1,0.3,0.1,0.4,0.1l39.6-12.3
	c0.3-0.1,0.5-0.3,0.7-0.6c0.1-0.3,0.1-0.6-0.1-0.9L121,31.4l8.1,21.5l2.7,6.1c0,0.1,0,0.2,0,0.3c0,0.1-0.1,0.2-0.2,0.2L106,66.3
	c-0.1,0-0.2,0-0.3-0.1c0,0-2.9-2.5-8.7-5.2c-0.4-0.2-0.8-0.1-1.1,0.2c-0.7,0.8-2,2.4-3.2,4.7c0,0.1-0.1,0.1-0.2,0.2l-11.7,4.3
	c0.1,0.3,0.2,0.9,0.5,1.4L92.9,68.8C92.9,68.8,92.9,68.8,92.9,68.8z"/>
<path class="st7" d="M92.3,66.1c-0.1,0-0.3-0.1-0.3-0.2c-0.1-0.2,0-0.4,0.2-0.4l3.1-1.2c0.2-0.1,0.4,0,0.4,0.2
	c0.1,0.2,0,0.4-0.2,0.4L92.5,66C92.4,66.1,92.4,66.1,92.3,66.1z"/>
<path class="st7" d="M131.4,59.4c-0.1,0-0.3-0.1-0.3-0.2c-0.1-0.2,0.1-0.4,0.2-0.4l0.9-0.2c0.2,0,0.4,0.1,0.4,0.2
	c0.1,0.2-0.1,0.4-0.2,0.4L131.4,59.4C131.5,59.4,131.5,59.4,131.4,59.4z"/>
<path class="st7" d="M110.8,54.4c-0.2,0-0.3-0.1-0.3-0.3c-1.1-20.7-7.4-32.8-7.4-32.9c-0.1-0.1-0.1-0.3,0-0.4l1.7-2.1
	c0.1-0.1,0.3-0.2,0.5-0.1c0.1,0.1,0.2,0.3,0.1,0.5l-1.5,1.9c0.8,1.6,6.4,13.5,7.4,33C111.1,54.2,111,54.3,110.8,54.4
	C110.8,54.4,110.8,54.4,110.8,54.4z"/>
<path class="st7" d="M100.6,62.8c-0.1,0-0.1,0-0.2,0c-1.1-0.6-2.3-1.2-3.5-1.8c-0.1,0-0.1,0-0.2-0.1c-0.2,0-0.3-0.2-0.3-0.4l0.5-6.6
	c0-0.2,0.2-0.3,0.4-0.3c0.2,0,0.3,0.2,0.3,0.4l-0.5,6.3c0,0,0.1,0,0.1,0c1,0.5,2.1,1,3.1,1.5v-8.2c0-0.2,0.2-0.3,0.3-0.3
	c0.2,0,0.3,0.1,0.3,0.3v8.7c0,0.1-0.1,0.2-0.2,0.3C100.7,62.8,100.7,62.8,100.6,62.8z"/>
<path class="st7" d="M120,71.9C120,71.9,120,71.9,120,71.9l-4-0.6c-0.2,0-0.3-0.2-0.3-0.3l0-1.1c0-0.1,0.1-0.3,0.2-0.3l3.7-1.2
	c0.1,0,0.2,0,0.3,0s0.1,0.1,0.1,0.3l0.2,2.8c0,0.1,0,0.2-0.1,0.3C120.2,71.9,120.1,71.9,120,71.9z M116.4,70.7l3.2,0.5l-0.2-2
	l-3.1,1L116.4,70.7z"/>
<path class="st7" d="M115.9,63.6c-0.1,0-0.1,0-0.2-0.1c-0.1-0.1-0.1-0.2-0.1-0.3l-0.2-7c0-0.2,0.1-0.3,0.3-0.3
	c0.2,0,0.3,0.1,0.3,0.3l0.2,6.5l2.7-0.7l-0.6-6.9c0-0.2,0.1-0.3,0.3-0.4c0.2,0,0.3,0.1,0.4,0.3l0.6,7.2c0,0.2-0.1,0.3-0.2,0.3
	L115.9,63.6C116,63.6,116,63.6,115.9,63.6z"/>
<path class="st7" d="M92.9,71.8C92.9,71.8,92.9,71.8,92.9,71.8l-5.6-0.9c-0.2,0-0.3-0.2-0.3-0.4c0-0.2,0.2-0.3,0.4-0.3l5.6,0.9
	c0.2,0,0.3,0.2,0.3,0.4C93.2,71.7,93.1,71.8,92.9,71.8z"/>
<path class="st7" d="M151.3,81.1C151.3,81.1,151.3,81.1,151.3,81.1L108,74.2c-0.2,0-0.3-0.2-0.3-0.4c0-0.2,0.2-0.3,0.4-0.3l42.6,6.8
	l-2.3-4.2L113.7,71c-0.2,0-0.3-0.2-0.3-0.4c0-0.2,0.2-0.3,0.4-0.3l34.8,5.2c0.1,0,0.2,0.1,0.2,0.2l2.7,5c0.1,0.1,0.1,0.2,0,0.4
	C151.5,81.1,151.4,81.1,151.3,81.1z"/>
<g>
	<path class="st7" d="M113.7,71l34.7,5.2l2.6,4.7L150.2,99h0.7l0.7-18.2c0-0.1,0-0.1,0-0.2l-2.7-5c-0.1-0.1-0.1-0.2-0.2-0.2
		l-34.8-5.2c-0.2,0-0.4,0.1-0.4,0.3C113.4,70.8,113.5,70.9,113.7,71z"/>
	<path class="st7" d="M44.8,93.1L80.1,99h4.1l-39-6.5l-2.4-28.9l4.3-2.5l7.8,1.2c0.2,0,0.4-0.1,0.4-0.3s-0.1-0.4-0.3-0.4l-7.9-1.2
		c-0.1,0-0.2,0-0.2,0l-4.6,2.7c-0.1,0.1-0.2,0.2-0.2,0.3l2.4,29.4C44.5,93,44.6,93.1,44.8,93.1z"/>
</g>
<path class="st7" d="M119,99V75.6c0-0.2-0.2-0.3-0.3-0.3c-0.2,0-0.3,0.1-0.3,0.3V99H119z"/>
</svg>
