<svg xmlns="http://www.w3.org/2000/svg" id="additional_spots" data-name="additional spots" viewBox="0 0 180.5 163.7"><defs><style>.cls-1{fill:#9b83fc}.cls-1,.cls-2,.cls-3,.cls-4,.cls-6,.cls-8,.cls-9{stroke:#181225;stroke-linecap:round;stroke-linejoin:round;stroke-width:.75px}.cls-2{fill:#fab51b}.cls-3{fill:#fc45a5}.cls-10,.cls-4{fill:#fccd0e}.cls-6{fill:#7454fc}.cls-11,.cls-8{fill:#181225}.cls-12{fill:#ff45a8}.cls-9{fill:none}</style></defs><path d="m142.7 85.2.9 3.9c-10.7 6.4-21.3 2.2-21.3 2.2 7.6 2.5 14.9-.4 20-6l.4-.1ZM152 59.6l-.2-.1h0l.1.1ZM148.7 75.7l3.6 3.6c-1.6 3.1-3.6 6-5.6 7.6l-.1.1-1.5-3a4.7 4.7 0 0 0 1.4-5.3l.8-2 1.4-1ZM155.8 68.5a35.4 35.4 0 0 1-2 7.5l-3.7-2.4c.6-1.8.4-3.7-.5-5 1.6-.5 2.9-2.2 3.2-4.3l.6-.1c.7 1.7 1.5 3.4 2.4 4.3Z" class="cls-4"/><path d="M122.5 44c-.4.2-.9.3-1.3.6l-.9.8-1-1.3c-1.7-2.1-4.2-5.3-7.5-9l-1.4 5S101 38 86.7 38.3c0 0 19.1-6.7 28-9.3l7.1 13.6.8 1.4ZM114.2 53c-.5.1-1 .5-1.3.9-.3.4-.5.8-.6 1.3l-1.1-1-8.4-7.1v7s-7.2-.6-24.3.5c0 0 13.7-6.9 26.8-11.4l8 8.6 1 1.1Z" class="cls-3"/><path d="M151.7 28a27.6 27.6 0 0 0 6.4-16.7l.8.3-5.2 5.2c-.3.4-1 0-.8-.5 1-4 1.6-8.5.6-12.6l.9.2-4.6 5c-.1.3-.5.3-.7.1l-.1-.4c0-2.3-.2-4.7-.6-6.9-.1-.8.4-1.5 1.2-1.7 1-.2 1.9.7 1.8 1.6a47 47 0 0 1-1.4 7.1l-1-.4 4.6-5c1.7-1.4 1.4 6 1.3 6.8-.1 2.2-.5 4.4-1 6.5l-.9-.5 5.2-5.2c.3-.3.9 0 .8.4 0 3.2-.6 6.3-1.8 9.2a31 31 0 0 1-4.7 8.2c-.2.2-.5.3-.7 0a.5.5 0 0 1 0-.6ZM143.8 20c-.6-7.2-7.3-12-13.6-14l.7-.5V14c0 .4-.6.6-.9.4-3-2.4-6.7-3.7-10.3-4.6l.6-.7a45.2 45.2 0 0 1 1.9 7.9c0 .4-.5.7-.8.4a32.3 32.3 0 0 0-10.2-3.9c-1 0-1.6-1-1.5-1.8.1-1 1.2-1.8 2.2-1.4 3.8 1.3 7 3.8 10 6.3l-.7.5c-.4-2.6-1-5.2-1.9-7.7 0-.2 0-.5.3-.6 4 .8 7.9 2.3 11 4.8l-.7.4V5.5c0-.4.3-.6.6-.5 6.8 2.3 13.7 7.3 14.3 15 0 .7-1 .7-1 0Z" class="cls-12"/><path d="m109.5 64 .1.9-1.7.2-9.5 1.1 2 4.5S91.6 74.2 82.6 81c.2-.4 8-14.6 13.3-19.7l12.2.9 1.7.1c-.2.5-.3 1-.3 1.7ZM149.8 47.5c-.6.9-1.6 2-3.5 3L130.7 44s-3-3.6-2.3-10.4l5.4-5.4 7.8-.4-1.8 2.5L146 34l1.7-2-1 7.4 3.9 5.7s0 1-.9 2.4Z" class="cls-3"/><path d="m132.3 22 3.2-5.2s-12.6 5.7-12.8 8.2c-.2 2.4 5.7 8.7 5.7 8.7l5.4-5.5-3-3.7c.4-.3 3.5-1.2 3.5-1.2l-2-1.3ZM149.9 22.7c-1.6-1-12-5.7-12-5.7l3.7 5.3-2.8 2 4.7.7-1.9 2.9-1.8 2.4L146 34l1.7-2s1.7-2 2.9-4c1.1-2.1.8-4.4-.8-5.3Z" class="cls-2"/><path d="m139.8 30.3-2.4 1.8-1.1-2.6-3.8 2.3v-2.3" class="cls-9"/><path d="M157.7 30.4a7.7 7.7 0 0 0-7.5-1.6 29 29 0 0 1-2.4 3.1l-1.1 7.5 4 5.7c2.8.8 5.5-.7 7.2-2.8 2.7-3.3 3-9.1-.2-11.9Z" style="fill:#92dd00;stroke:#181225;stroke-linecap:round;stroke-linejoin:round;stroke-width:.75px"/><path d="m158.6 35.6-.2-1.6-1.9.6c-.3-1-.9-2.1-1.7-3.1l-1.4.8s.8 1 1.3 2.8l-2.6.8.6 1.6 2.4-.8c.2.9.2 1.9 0 3h1.7s.4-1.6.1-3.6l1.7-.5Z" class="cls-8"/><path d="M146.3 50.5c1.6 2 2.6 4.5 3 7.2 1.6.3 2.8 1.6 3.3 3.4l3-.9a18 18 0 0 0-7.3-11l-2 1.3ZM122.3 91.3c7.6 2.5 14.9-.3 20-6l.4-.1.9 3.9c-10.7 6.4-21.3 2.2-21.3 2.2Zm26.4-15.6-1.4 1a24 24 0 0 1-.8 2c.7 1.8.2 3.9-1.4 5.3l1.5 3 .1-.1c2-1.6 4-4.5 5.6-7.6l-3.7-3.6Zm7.3-12-3.2.6c-.3 2.1-1.6 3.8-3.2 4.3 1 1.3 1.1 3.2.5 5l3.7 2.4a29 29 0 0 0 2.2-12.2Z" class="cls-3"/><path d="M91.6 72v.5c-.1.6.3 1.6.4 2.2l.7-.2-.3-1.2c-.1-.4-.2-.8-.5-1.1l-.2-.1ZM94.2 69v.5c0 1 .5 2.7.7 3.7l.7-.2-.5-2c-.2-.7-.3-1.3-.7-1.8 0-.1 0-.2-.2-.3ZM93.2 50.5c-.2 0-.2.2-.3.4-.4.7-.6 2.2-.9 3l.7.2.4-1.8c.2-.5.3-1 .2-1.6v-.2h-.1ZM98 49.5l-.4.5c-.4 1-.7 2.8-1 4h.7l.5-2.2c.2-.6.3-1.3.3-2l-.1-.3ZM101.8 36l-.3.3c-.6.5-1 1.6-1.4 2.2l.6.4.7-1.4c.2-.3.5-.7.5-1.2V36ZM107.1 35.6l-.4.3c-.6.8-1.2 2.3-1.7 3.1l.6.3 1-1.8c.2-.5.5-1 .6-1.6v-.3Z" class="cls-11"/><path d="M114.2 53c-.5.1-1 .5-1.3.9-.3.4-.5.8-.6 1.3l-1.1-1c.3-.8 1-1.7 2-2.4l1 1.1ZM122.5 44c-.4.2-.9.3-1.3.6l-.9.8-1-1.3c.6-.6 1.5-1.2 2.5-1.5l.7 1.4ZM109.5 64l.1.9-1.7.2c0-.8 0-1.8.2-2.8l1.7.1c-.2.5-.3 1-.3 1.7Z" class="cls-8"/><path d="m141.7 41.2-.3-2.2-1-3.6-.6-1a.6.6 0 0 0-.3-.3h-.3l-.6-.1-2.1-.3-8-.4-.1.7 5 .3c2.2 0 4 .3 4 .3h1l.5.1h.2l.2.1.1.3.2.4.4.9 1.2 3.8a23.4 23.4 0 0 0 .5 1Z" class="cls-11"/><path d="m82.7 146.3-1.1 4.7-44.3 12.3-36.9-43 .4-4.8 43.2-5.9 38.7 36.7z" class="cls-1"/><path d="m113.8 102.4-27.2 43.7-3.9.2L44 109.6l20-40.2 4.1.6 45.7 32.4z" class="cls-1"/><path d="m113.8 102.4-27.2 43.7-3.9.2 26.8-44L64 69.4l4.1.6 45.7 32.4z" class="cls-6"/><path d="m82.7 146.3-1.1 4.7-44.3 12.3-36.9-43 .4-4.8L38.5 158l44.2-11.7z" class="cls-6"/><path d="m82.3 140.4 22.3-37.3-39.4-28.9L48.1 109l34.2 31.4z" style="fill:#fff;stroke:#181225;stroke-linecap:round;stroke-linejoin:round;stroke-width:.75px"/><path d="m48.7 148 22.8-5.6L43 114.6l-21.6 3.7L48.7 148zM28.1 141.6l8.5-2.1-9.4-10.4-8.2 1.7 9.1 10.8zM36.9 115.6l27.9 28.5M29.2 116.9l27.1 29.2M43.2 142l22.2-5.6M45.6 134.6l14.3-3.5M26.2 123.5l21.9-3.9M39.7 128.3l14.1-3.1" class="cls-9"/><path d="m74.9 114.5 7.7 16.6 2.2-5.2 10.9 18.2-9-35.8 10.8-2.5v-3l21.8-5.3-36.7-2.9-1.3-26.7 2.9.5-3.7-21.3-3.2 26-2.9-.6-2.9 18.6-8.2-5-2.2 1.6-11.4-8 13.8 19.2-31.5 8 9.5.4v1l23.2 2.7-4.6 17 2.6 1-4.3 13.4 12.8-18.1-2.1-1 5.8-8.8z" class="cls-2"/><path d="m86.6 146.1-3.9.2 26.8-44 4.3.1-27.2 43.7z" class="cls-8"/><path d="M179.8 83.5c-3.4-13.4-9.5-27.3-9.5-27.3l-17.7 4.9c-.5-1.8-1.7-3-3.2-3.4-.5-2.7-1.5-5.2-3-7.2L130.6 44s-1.4.3-3.5 1.3c-1.6-1.6-4-2-6-.7a4.7 4.7 0 0 0-1.5 6.4l-1.7 2c-1.8-.8-4-.5-5 .9-1.4 1.7-.9 4.2 1 5.7l.3.1a3 3 0 0 0-1 0c-2 0-3.8 2-3.8 4.4 0 1 .3 1.8.7 2.5a72.6 72.6 0 0 0-28 19.6l-.9-18.4 2.9.6-3.7-21.3-3.2 26-3-.6L71.6 91l-8.2-4.9-2.2 1.5-11.4-8L63.5 99l-31.5 8 9.5.4v1l23.2 2.7-4.6 17 2.6 1-4.3 13.3 12.8-18-2.1-1 5.8-8.8 7.7 16.5 2.2-5.1L95.7 144l-9-35.7 10.8-2.5v-3l21.8-5.4-29.5-2.3a70.7 70.7 0 0 1 25.2-9c1.6 2.1 4 4 7.3 5.1 7.6 2.6 14.9-.3 20-6h.4l4 17s-3.9-2.6-6.5-5.7c0 0-8.8 5.6-20 5.7 0 0 9.1 3.3 14.7 3.7 5.6.4 19.9-1.6 19.9-1.6L145 84a4.7 4.7 0 0 0 1.4-5.3l.8-2 1.4-1L163 90h-7.8s4.4 11.5 7 25.4c0 0 4.8-19.5 5.5-30.2l-17.7-11.7c.6-1.8.4-3.7-.5-5 1.6-.4 3-2.1 3.2-4.3l13.2-2-2.8 4.7c8 7.6 16.6 16.5 16.6 16.5Z" class="cls-10"/><path d="M179.5 82.6a176 176 0 0 0-7.2-21.1l-1.2-3-.6-1.4-.2-.6c0-.1-.2 0-.2 0h-.4l-11.1 3.1-5.3 1.5-.4.1-.3.1h-.1l-.3-.5v-.3l-.8-1.2a4.1 4.1 0 0 0-1.5-1.2h-.3l-.4-.2-.2-.8-.2-.7a16.1 16.1 0 0 0-2.6-5.6l-.1-.1-.4-.2-2.7-1-11.6-4.9-.7-.2h-.3l-.4.1-1.6.6-.8.4-.4.2h-.2l-.1-.2-.2-.2-.2-.1c-.4-.4-1-.7-1.5-.8a4.4 4.4 0 0 0-5.5 3.2 4.4 4.4 0 0 0 .3 2.8l.3.6-.5.6-1.5 1.8c0 .1-.1 0-.2 0h-.2l-.2-.2h-.1l-.5-.2a5 5 0 0 0-1-.1c-1.4 0-2.8.8-3.2 2.1-.2.7-.2 1.4 0 2.1a4.2 4.2 0 0 0 .9 1.5v.1l.3.2.5.5V59.7c-.3 0 .2.2.2.1V60.2h-.4l-.7-.2h-.7l-.5.2c-.6.2-1.2.7-1.7 1.3-.4.7-.7 1.5-.7 2.4a4.5 4.5 0 0 0 .3 2v.1h.1v.2l.4.7a194 194 0 0 1-3.4 1.2 48.5 48.5 0 0 0-9.3 5 73 73 0 0 0-11.1 9l-2.2 2-1.1 1.2-1.8 1.9-.9-19.8 2.8.6-3.2-18.2-2.9 23.8-3-.6-2.8 18.7-8.5-5L61 88l-9.6-6.8L64.2 99l-29.6 7.5 7.3.3v1l23.3 2.8-4.7 17 2.6 1.1-3.6 11.3 11-15.6-2-1 6.4-9.8 7.6 16.4 2.2-5 9.9 16.5-8.4-33.6 10.8-2.5v-3l19.8-4.8-28.4-2.2 1.8-1 .7-.4.5-.3 1.8-1a73.8 73.8 0 0 1 17-6.2l2.6-.5 2.3-.4.5.6.4.4a15.1 15.1 0 0 0 2.5 2.3 15.6 15.6 0 0 0 8 2.8 17.6 17.6 0 0 0 14.3-5.5l.6-.7.3-.3.2-.2.1-.2h.3l.5-.1h.1l.1.3.1.6.3 1 3 13 .4 1.5.3 1.3.1.7-.6-.4-1-.8-.7-.5a55.8 55.8 0 0 1-4.1-3.7l-.5-.5-.2-.2-.4.2-.8.4-1.4.7a46.5 46.5 0 0 1-16 4.3H120l.2-.7c3.3 1.1 7.3 2.4 12 3.3 2.2.4 4.7.4 7.4.3l8.2-.7 4.4-.5 1.9-.3-.2-.4-.5-1-4-8.6-4.4-9.1-.3-.7-.1-.3.2-.2.2-.2v-.1c.4-.3.6-.6.8-1 .4-.7.6-1.5.5-2.3 0-.4 0-.8-.2-1.2v-.6l.1-.3.3-.6.2-.6.2-.4s.2 0 .3-.2h.1l.5-.4.3-.2.4-.4L164 90.3h-8.2l.4 1.1.5 1.6 1 3.2a152.4 152.4 0 0 1 4.1 15.4l.3 1.4.1.7 1.1-4.5 1.1-5a252.6 252.6 0 0 0 3-17.5v-1.3l-1.5-1-2.8-1.9-11.8-7.7-1.2-.9-.3-.1V73.5l.1-.5.2-.6a5.1 5.1 0 0 0-.4-3l-.1-.4-.3-.4-.1-.1.2-.2c.2 0 .4 0 .5-.2l.5-.2c.6-.4 1.1-1 1.5-1.6l.4-1 .2-.5v-.6c0-.2.3-.2.4-.2h.3l.5-.1 1-.2a764.5 764.5 0 0 1 11.7-1.7l-3 4.9 3.1 3 3.6 3.5a595.5 595.5 0 0 1-.2.1l-3.7-3.5-3.2-3 2.6-4.5-7 1.1-3.8.6-1 .2-.7.1v.1l-.1.3-.2.5c0 .4-.2.7-.4 1-.4.7-.9 1.4-1.6 1.8l-.8.5.1.2.3.6a5.6 5.6 0 0 1 .1 3.5v.4c.2.3.6.5 1 .7l12 8 3.1 2 .8.5.5.3.1.1s.2 0 .2.2v.4l-.3 2a128.2 128.2 0 0 1-3 17.4l-1 4.7-.6 2.5-.7 3.2-.4.1h-.4a939.5 939.5 0 0 1-1.3-6.7 142.7 142.7 0 0 0-4.5-15.5l-.5-1.6-.8-2h7.5l-13.6-13.5-.6.5-.4.2-.2.5-.4 1v.3h-.1v.2l.2.3c.4 1.6-.1 3.3-1.2 4.5l-.2.2v.1h-.1v.2l.5 1 1 2a758.9 758.9 0 0 0 5.6 11.9l1.9 3.9.5 1.2.2.5h-.5l-.8.1a1205 1205 0 0 0-10.5 1.2 40.3 40.3 0 0 1-16.1-1.1c-2.5-.7-5-1.4-7.3-2.3v-.7a39.7 39.7 0 0 0 18-4.6l1-.6.5-.2.7-.5.8.9.5.5a28.2 28.2 0 0 0 3.4 3l.5.5.5.4-.4-2a8033 8033 0 0 1-3.2-13.7c.1 0 0 0 0 0v.1l-.8.8c-.4.4-.9 1-1.4 1.3-2 1.7-4.1 3-6.3 3.7a17.6 17.6 0 0 1-17-2.9l-1.2-1-.5-.7-.4-.4a27.7 27.7 0 0 1-2.3.4 61.4 61.4 0 0 0-15.6 5l-3.4 1.6L91 95l28.3 2.2v.7L98 103.1v3l-10.6 2.5 8.8 35.3-.4.2-.3.1-10.5-17.4-2.3 5.2-7.8-16.7-5.1 7.8 2.2 1-13.1 18.5-.4-.2-.3-.2 4.1-13-2.6-1 4.7-16.9-23.1-2.7v-1l-9.2-.4v-.8l31-7.8-13.5-18.7.2-.3.3-.3 11.1 7.8 2.3-1.5 7.8 4.8L74.1 72l3 .6C78 63 79 55 80 47l.4-.1h.4l3.8 21.8-3-.6.8 17.1.4-.3.9-1A99.7 99.7 0 0 1 96 73.6c2.3-1.6 4.6-3 7-4.2l1.7-.9 1.8-.8 1.8-.7 1.4-.5-.2-.3-.2-.7-.2-1.3c0-.8.2-1.5.4-2.2a4.3 4.3 0 0 1 2.8-2.6H113.2v-.1l-.6-1a5 5 0 0 1-.6-1.4 3.8 3.8 0 0 1 2.7-4.5c.9-.2 1.8-.2 2.6 0l.5.2s.1.1.1 0a60.7 60.7 0 0 1 1.4-1.6l-.2-.6a5 5 0 0 1 3.2-6.6 5.1 5.1 0 0 1 4.4.7l.3.2.3.2.4-.1.8-.4 1.5-.5.4-.1h.6l.7.3 13.1 5.4 1 .4.5.2v.1l.3.1.2.3 1.2 1.9c.7 1.4 1.2 3 1.6 4.6v.3l.1.1.6.2 1.1.8a5.2 5.2 0 0 1 1.2 1.8l.1.4v.1l5.8-1.6 11.6-3.1H170.4l.3.4.2.6.5 1 .8 2.2c.6 1.4 1 2.8 1.6 4a183.5 183.5 0 0 1 5.7 18.3Z" class="cls-11"/><path d="m75.5 66.8-2.4-.3L74.5 54h2.4l-1.4 12.8zM55.5 80.6l-6.8-5.1 1-1.6 6.8 5.3-1 1.4z" class="cls-4"/><path d="M179.8 83.5s-8.6-9-16.6-16.6l2.8-4.7-13.2 2-1 .1s-1.8.3-1.8-1.4c0-1.2 1.4-1.5 1.4-1.5l1.2-.3 17.7-4.9s6 13.9 9.5 27.3ZM154.8 104.3s-14.3 2-19.9 1.6c-5.6-.4-14.7-3.6-14.7-3.6 11.2-.2 20-5.8 20-5.8 2.6 3.1 6.5 5.8 6.5 5.8l-4-17.1-.3-1.4s-.2-1 .7-1.4 1.5.5 1.5.5l.5 1 9.7 20.4ZM167.8 85.3c-.7 10.6-5.6 30.2-5.6 30.2a152 152 0 0 0-7-25.5h8l-14.5-14.3-1-1.1s-.6-.7 0-1.4 1.3-.3 1.3-.3l1 .6L168 85.3Z" class="cls-3"/><path d="m150 73.5 3.7 2.4c.8-4.9.3-9-.2-11.7h0-.7c-.3 2.2-1.6 3.9-3.2 4.4 1 1.3 1.1 3.2.5 5ZM142.3 85.2c-5.1 5.7-12.4 8.6-20 6 0 0 10.6 4.3 21.3-2.1l-1-4-.3.1ZM148.7 75.7l-1.4 1a28 28 0 0 1-.8 2c.7 1.8.2 3.9-1.4 5.3l1.5 3 .1-.1c2-1.6 4-4.5 5.6-7.6l-3.6-3.6ZM38.5 158l-1.2 5.3L81.6 151l1.1-4.7L38.5 158z" class="cls-8"/><path d="M128 85.3c-4.7-.2-9 .1-13 .8" class="cls-10"/><path d="m128 85.2-1.7-.3h-5.7l-5.7.8.1.8a69.1 69.1 0 0 1 6.5-.7c1.8-.1 3.7-.1 5.6-.4l.8-.1Z" class="cls-11"/><path d="M116 65.1c-2 .4-3.9.9-5.7 1.5" class="cls-10"/><path d="M116 65h-.8c-1.4 0-3.7.8-5 1.2l.2.8 1.6-.5 1.2-.3c.8-.2 1.6-.4 2.4-.8l.4-.2V65Z" class="cls-11"/><path d="m85 131.3-1.3 2.5 6.1 10.7 1.3-2.5-6.1-10.7z" class="cls-4"/><path d="m129.6 69.4-3.9-1.7 5.7-18.2 6.6 2.4-8.4 17.5zM124 71.3l4.3 1.9-2.1 5.7-4.5-2 2.3-5.6zM146.1 34l-6.3-3.7 5.1 4.7 1.8 4.4 1.1-7.4-1.7 2zM149.8 47.5l-3-8.1 3.9 5.7s0 1-.8 2.4Z" class="cls-8"/><path d="m162 101.4-.4-.2c-.7-.2-1.9 0-2.6 0v.6h1.5c.4 0 .9 0 1.3-.2l.2-.1ZM168.8 67l-.5.1c-.7.6-1.6 1.9-2.2 2.6l.5.4 1.3-1.4c.3-.5.7-.9.9-1.5V67ZM172 70.8l-.5.2c-.6.4-1.4 1.5-2 2l.5.5 1.2-1.2c.3-.3.6-.7.8-1.2V71ZM133.6 102.8l-.2-.4c-.5-.7-1.6-1.5-2.2-2.1l-.5.5 1.3 1.2c.4.3.8.7 1.3.8h.2ZM138 101.7l-.2-.5c-.4-.8-1.5-1.8-2-2.5l-.5.4 1.2 1.4c.3.4.7.9 1.2 1.1l.2.1ZM162 96l-.6-.3c-1-.2-3 0-4-.1v.7h2.3c.6 0 1.3 0 2-.2l.3-.1ZM144.7 77.2l.6.3c.5 0 1.3 0 2-.4l1.6-1.1-.5-.5-.9.6-.8.5-1.7.5h-.2v.1ZM144.3 67.4h.8c.6-.1 1.4-.2 2.2 0 .8.2 1.5.7 1.9 1.2l.5-.4c0-.2-.6-.8-1.3-1.1-.6-.4-1.3-.5-1.3-.5-.8-.1-1.8 0-2.5.5l-.3.3ZM138.2 83.5l.2.6c.3.5 1 1 1.7 1.2.8.3 1.6.3 2.2.3v-.7H141l-.9-.3-1.6-1-.3-.1Z" class="cls-11"/></svg>