<svg xmlns="http://www.w3.org/2000/svg" id="Seer_main_w_and_w_o_bg" data-name="Seer main w/ and w/o bg" viewBox="0 0 693.5 326"><defs><clipPath id="clippath"><path d="M339.1 123.6c-21 0-31.8 27.2-31.8 27.2s11.6 9.2 31.8 9.2 31.9-9.2 31.9-9.2-10.8-27.2-31.9-27.2Z" class="cls-15"/></clipPath><style>.cls-3{fill:none}.cls-4,.cls-5{fill:#fab51b}.cls-6{fill:#9b83fc}.cls-10,.cls-11,.cls-12,.cls-13,.cls-15,.cls-16,.cls-17,.cls-18,.cls-19,.cls-20,.cls-3,.cls-5,.cls-6,.cls-7{stroke-linecap:round;stroke-linejoin:round;stroke-width:.75px;stroke:#181225}.cls-7{fill:#ff9838}.cls-10{fill:#fc45a5}.cls-11{fill:#821196}.cls-12,.cls-21{fill:#fccd0e}.cls-13{fill:#f6f6f8}.cls-15{fill:#fff}.cls-16{fill:#7454fc}.cls-17{fill:#e02dcf}.cls-19,.cls-24{fill:#181225}.cls-18{fill:#92dd00}.cls-26{fill:#ff45a8}.cls-20{fill:#d3d0f5}</style></defs><path d="M493.7 133.7c-.7.3-1.3 1.4-1.5 2.1-.7 2.6.5 6 2.3 8.7 1.8 2.8 4.2 5 6 6.8l.7-.8a41 41 0 0 1-3.9-4c-1.5-1.8-2.5-3.6-2.5-3.6-.7-1.3-1.2-2.6-1.6-4a6.9 6.9 0 0 1 0-4c.1-.4.3-.8.6-1.1l-.1-.1Z" class="cls-4"/><path d="M188.5 257.2c-.7 1.7-2.8 2-2.8 2l-100.3 17a5.6 5.6 0 0 1-6.3-4.1l-19-77c-.1-.8 0-1.8.4-2.7l4.4-8.8c.4-1 1.3-1.6 2.4-1.8l97.8-13.4c1.7-.2 3.3.9 3.8 2.5l2.2 8.5 18.1 67.2 1 3.7c.5 1.7-1 5-1.7 7Z" class="cls-13"/><path d="M158.4 214.5c-.2.2-1-.7-1-.7l2.2-3.6 3.7 2.8.6-2.4 5.4-.9.3 1.2-4.5.8-1 3.8c0-.2-4.2-3-4.2-3l-1.5 2ZM170.6 206l.3 1.1 3-.5 1.4 5.2-3.4.8.3 1.2s4.7-.9 4.6-1l-1.7-7.6-4.5.8Z" class="cls-19"/><path d="m171.2 179.3-104.5 15-4.7 8.1-1.8-7.3c-.2-1 0-1.9.3-2.7l4.4-8.9c.5-1 1.4-1.6 2.4-1.7l97.8-13.5c1.7-.2 3.4.9 3.8 2.6l2.3 8.4Z" class="cls-16"/><path d="m103.2 213.4-1.6-.7 3.7-7.4 1.8.9-3.9 7.2zM144.6 198.6l2.1-2.7.9.7-2.1 2.8-.9-.8zM117.4 207l1.7-3.3 4.2 5 2.7-4.7 2.4 3.7.2-.1 2.5-4 5.4-.9-.3-1.4-6.1 1-1.4 2.7-2.8-4.4-2.9 5.5-4.1-5-2.4 4.2-5.8 1.3.3 1.7 6.4-1.3ZM103.7 216.4l1.4.7s-1.1 3.2 1.5 5.5l-1.3 1.4s-3.3-3.7-1.6-7.6ZM108.5 220l-.3-1.6 5.3-1.2.3 1.6-5.3 1.2ZM140.9 199.2l1 5.5-3.2.5.4 1.4 2.4-.3 1.9-1.7-1.5-7-4 .7.2 1.3 2.8-.4Z" class="cls-19"/><path d="m86.9 252.6 2.3 10.2 11-2-2.7-10.2-10.6 2z" class="cls-3"/><path d="M93.9 256.2c-1.4-1.3-3-2-3-2l-.5 2.2c3 1.3 3.7 3.9 3.7 3.9l1.4-.5c0-1.2.2-2.4.5-3.6h-2.1Z" class="cls-19"/><path d="M188.5 257.2c-.6 1.7-2.7 1.9-2.7 1.9L85.5 276.2a5.6 5.6 0 0 1-6.4-4.2l-18.8-76.9c-.3-1-.2-1.9.3-2.7l4.3-8.9c-.4 1.5.3 4.3.3 4.3l19.5 80.7c.5 2 2.4 3.3 4.4 3l98-16.6c3.3-.7 3.2-4.7 3.2-4.7.4 1.7-1 5-1.8 7Z" class="cls-20"/><ellipse cx="72.2" cy="186.8" class="cls-19" rx="2.1" ry="2.4" transform="rotate(-71.5 72.3 186.8)"/><ellipse cx="80.9" cy="185.6" class="cls-19" rx="2.1" ry="2.4" transform="rotate(-71.5 80.9 185.6)"/><ellipse cx="89.3" cy="184.3" class="cls-19" rx="2.1" ry="2.4" transform="rotate(-71.5 89.3 184.3)"/><path d="m74.6 199.6 2.3 10.1 11.1-1.4-2.7-10.2-10.7 1.5z" class="cls-3"/><path d="M81.8 207.2s-.7-2.6-3.7-3.8l.4-2.3s1.7.8 3 2c0 0 1.7-5.6 3.4-7.4l1.7 1s-3.5 5.2-3.4 10l-1.4.5Z" class="cls-19"/><path d="m78.5 218.5 2.3 10.2 11-1.7-2.7-10.3-10.6 1.8z" class="cls-3"/><path d="M85.7 226.1s-.7-2.6-3.6-3.8l.3-2.3s1.7.8 3 2c0 0 1.7-5.6 3.4-7.4l1.7 1s-3.5 5.2-3.4 10l-1.4.5Z" class="cls-19"/><path d="m82.8 236 2.3 10.2 10.9-1.9-2.7-10.2-10.5 1.9z" class="cls-3"/><path d="M90 243.7s-.7-2.6-3.7-3.9l.4-2.2s1.7.8 3 2c0 0 1.7-5.6 3.4-7.5l1.7 1s-3.5 5.3-3.4 10.1l-1.4.5ZM102.7 201.9l-4.3-2.2 2.3-5.4 1.4.6-1.8 4 3 1.6-.6 1.4zM106.5 193.4l1.6.5-1.9 7-1.6-.5 1.9-7zM109.9 193.3l.8-1.3 4.2 2.7-2.6 5-1.1-.5 2-3.9-3.3-2zM117.8 197l-.3-1.8 8.8-1.4 1.2-3.7 3.9 4 1.3-3 1.4.4-2.1 5.7-3.8-4-.7 2.2-9.7 1.6zM136.4 187.6l1.2.5s-1.2 3.7 1.1 5.5l-1 1.2s-3.3-2.3-1.3-7.2ZM139.9 188.2l.8-1.2s3.2 2.5 1.8 7.2l-1.5-.7s.9-2.7-1.1-5.3ZM165.6 220.8l1.3 1s-1.2 3.2 1.5 5.4l-1 1.4s-4-3.4-1.8-7.9ZM171 219.6l-1 1.3s2.8 1.6 1.6 5.8l1.5 1.2s2.2-4.7-2.2-8.3ZM175.9 221.9l-.9-2 1.6-.7.7 2.1-1.4.6zM176.2 224l2-.7s1 4-1 5.7l-1.1-.8s.7-2.6 0-4.2ZM174.6 241.8l4.8-.9-.4-2.2-7.6 1.4 3.2 1.7ZM147.7 189.2l3.2 2.3 5.9-1.2 1.6-1.5h0l.7-.7-8 1.7-4-2.8-2.3 5 1.2.5 1.7-3.3Z" class="cls-19"/><path d="M130.2 132.8v12l-41 27.6-44.3-22.2v-14.3l25.5 12 4.9 2.3L89 125l15.7 25.2 25.5-17.4z" class="cls-16"/><path d="m89 125 .2 47.4" class="cls-3"/><path d="m89 125-13.7 25.2-45.5-21.3 15.4-24.2L89 125zM89 125l15.7 25.2 41.4-28.2-14.6-21.3L89 125z" class="cls-6"/><path d="m132 84.2-.2 5.4-.3 11L89 125v-18c0-1.5.8-2.8 2-3.4l39.4-20.4c.7-.4 1.6.1 1.6 1Z" class="cls-13"/><path d="m91 103.6 39.4-20.4c.2-.2.5-.2.8-.1l-5.8-2.6a1 1 0 0 0-1.1 0L85 100.8c-1.3.6-2 2-2 3.3v18l6 2.8v-18c0-1.4.8-2.7 2-3.4Z" class="cls-20"/><path d="m132 84.2-.2 5.4-42.6 22.9H89V107c0-1.5.8-2.8 2-3.4l39.4-20.4c.7-.4 1.6.1 1.6 1Z" class="cls-16"/><path d="m125.6 56-.3 4.8L83 82.3V77c0-1.3.7-2.5 2-3.1l39-19c.7-.3 1.6.3 1.6 1.2Z" style="stroke:#000;stroke-linecap:round;stroke-linejoin:round;stroke-width:.75px;fill:none"/><path d="m125.6 56-.3 4.8-1 19.6L85 101c-1.3.6-2 2-2 3.3V77c0-1.3.7-2.5 2-3.1l39-19c.7-.3 1.6.3 1.6 1.2Z" class="cls-13"/><path d="M83 104.2v0h0V77c0-1.3.7-2.5 2-3.1l39-19h.8l-5.7-2.3H118L78.4 71.3c-1.3.6-2 2-2 3.3v44.6l6.6 3.1v-18Z" class="cls-20"/><path d="M124 55 85 73.9c-1.3.6-2 1.8-2 3.1v5.4s0 0 0 0l42.3-21.6.3-4.7c0-.9-.9-1.5-1.7-1.1Z" class="cls-16"/><path d="M68.2 115.3V96.8c0-1.3.7-2.5 1.9-3l6.2-3v28.3l-8.1-3.8Z" class="cls-20"/><path d="M69.6 86.2c-.9.5-1.4 1.4-1.4 2.4v8.2c0-1.3.7-2.5 1.9-3l6.2-3V83l-6.7 3.2Z" class="cls-16"/><path d="M62.5 84.2c-1 .4-1.7 1.4-1.7 2.5v25.2l7.3 3.4V88.6c0-1 .6-2 1.5-2.4l6.7-3.2v-4.9l-13.8 6Z" class="cls-20"/><path d="M55.2 89.3c-.9.4-1.5 1.3-1.5 2.3v17l7.1 3.3V86.7l-5.6 2.5Z" class="cls-20"/><path d="M49.5 86.5a3 3 0 0 0-1.8 2.8v16.5l6 2.8v-17c0-1 .6-2 1.5-2.4l5.6-2.5c0-1.1.7-2.1 1.7-2.5l2.2-1h0l11.6-5v-3.7l-26.8 12Z" class="cls-20"/><path d="M47.6 89.3a3 3 0 0 1 1.8-2.8l27-12c0-1.4.7-2.6 2-3.2l1.8-.9-4.7-7.4-46 17.2 15.7 24.4 4.8 2.2-2.4-1V89.3ZM125 68.7l-.7 11.7a1 1 0 0 1 1 0l5.9 2.7h0c.4 0 .8.5.8 1l-.2 5.5-.3 11h0l13.8-24-20.4-8Z" class="cls-6"/><ellipse cx="87.5" cy="76.4" class="cls-19" rx="1.7" ry="1.1" transform="rotate(-73.9 87.5 76.4)"/><ellipse cx="92" cy="74.2" class="cls-19" rx="1.7" ry="1.1" transform="rotate(-73.9 92 74.2)"/><ellipse cx="96.6" cy="72" class="cls-19" rx="1.7" ry="1.1" transform="rotate(-73.9 96.6 72)"/><ellipse cx="93.2" cy="106.5" class="cls-19" rx="1.7" ry="1.1" transform="rotate(-73.9 93.2 106.5)"/><ellipse cx="72.2" cy="88.8" class="cls-19" rx="1.7" ry="1.1" transform="rotate(-73.9 72.2 88.8)"/><ellipse cx="97.7" cy="104.2" class="cls-19" rx="1.7" ry="1.1" transform="rotate(-73.9 97.7 104.2)"/><ellipse cx="102.2" cy="102" class="cls-19" rx="1.7" ry="1.1" transform="rotate(-73.9 102.2 102)"/><path d="M102.3 146.3 89 125l.2 29.6 13.1-8.3zM70.4 147.9l-1.8 3.9-23.7-11.4v-4.5l25.5 12z" class="cls-19"/><path d="M105.5 76a54.3 54.3 0 0 1-3.2-8.4.5.5 0 0 1 .7-.6l2.7 1.5-.7.6c-.8-2.7-1-5.6-.6-8.4 0-.3.3-.5.5-.4.1-.1 2 1.3 2 1.4l-.7.3c.3-3.5 1.3-7 3.1-10 .6-1 1.4-2 2.2-3 .4-.4 1-.4 1.5 0s.5 1 .1 1.5c-3.2 3-5.1 7.3-6 11.7 0 .3-.4.5-.7.3l-1.8-1.3.8-.4c-.3 2.7-.2 5.4.6 8 .1.4-.4.8-.8.6l-2.7-1.5.8-.6c.8 2.9 1.8 5.7 3.1 8.3.3.6-.6 1-.9.5Z" class="cls-26"/><path d="M108.7 74.9c-.8-3.2-1-6.6-.5-9.8 0-.3.2-.5.5-.4l2.1 1.5-.8.4c.2-3.5.8-7 2.3-10.2a.5.5 0 0 1 .7-.1l1.9 1.5-.7.1c1.6-2.3 3.4-4.3 5.5-6.2 2-1.8 4.3-3.5 6.9-4.7.6-.2 1.2 0 1.5.6.3.6 0 1.3-.7 1.5-2.4.9-4.6 2.3-6.7 3.9-2 1.6-4 3.5-5.7 5.5-.2.2-.5.3-.7 0l-1.9-1.5.8-.1c-1.4 3-2 6.4-2.2 9.7 0 .4-.5.6-.8.4l-1.9-1.5.8-.3c-.4 3.1-.2 6.3.6 9.4.2.6-.8.9-1 .3Z" class="cls-26"/><path d="m47.6 94-7.3 2.9 4.9 7.8 2.4 1.1V94z" class="cls-19"/><path d="m110.5 84.5-1.3-6-5-2.1s-4.5-.9-6.5 3.6 1.2 9.5 5.6 9.6 7.2-5.1 7.2-5.1ZM118 71.6c-5-.7-6.4 3.4-6.4 3.4h0c1.9.3 4.2 1 5.4 2.3 1 1.3 1.7 4.2 2.2 6.5h0s2.6 0 3.8-3.5c1.1-3.2-.7-8.1-5-8.7Z" class="cls-18"/><path d="M117 77.3c-2-2.4-7.8-2.6-7.8-2.6l-5 1.7 5 2 1.3 6s-2.8 5.3-7.2 5.2h-.2c1.6.7 4 1.4 7 1.6l4.7-1.3 4.9-2.5s-.8-7.7-2.7-10Z" class="cls-10"/><path d="m114.8 89.9 1-3.9 1.3 1.2.5-2.3 2.1 2.5" class="cls-3"/><path d="M101 78.8h1.8s-2.5 2.8-.9 7h-1.7s-1.7-4.2.9-7ZM116.6 73.4l.8-.8s3.1.6 4.1 4.2l-.9.6s-.8-3-4-4Z" class="cls-19"/><path d="M129.8 77.4s-2 .3-4.3 1l-2.2.7c.1-1 0-2-.3-3.1h0s.8-.2 2-.1c1.3 0 3.1.4 4.8 1.5Z" class="cls-10"/><path d="m96.2 118.4.3-1.1-2.8-.4 1.9-3.9-.9-.5-2.1 4.2.3 1.2 3.3.5zM97.7 115.5v-1.4l6.6-3.6v1.4l-6.6 3.6zM106.2 112.1l1.5-5.6h1l-1.3 5.7h-1.2ZM110.8 103.9l.1 1.1 2.8.7-2 3.1.8.5 2.3-3.2-.3-1.3-3.7-.9zM117 105.9c.2.1-.1-1-.1-1l3.4-2.1.8-3.9 4.3 2.3-.6.8-3-1.6-.5 2.9-4.2 2.6ZM126.8 95.2l-.4 1s2.2.9.9 3.8l1 .3s1.8-3.8-1.5-5.1ZM90.2 88.6 86.4 86l2.9-5.1.9.6-2.5 4.2 3.1 2-.6.9zM92.9 86.2l1.1.3 1.5-7.1-1-.3-1.6 7.1zM118.2 69.2l.1-1.4 4.7-2.5v1.3l-4.8 2.6zM84.8 95.4v-2.2s1.4-.6 1.7-1.5c.3-1 .7-2 2.1-2.2V91s-.8.1-1.2 1.4c-.3 1-1.7 1.5-1.7 1.5s1 0 1.7 1c.6.8 1.6 0 1.6 0v1.5s-1.2 1-2.2-.3c-.8-.9-2-.6-2-.6ZM89.6 98.5l3.5-1.7 1.7 3.3-5.2-1.6zM97.7 94.3s.4-2.8 1.6-5.5l.2-.7c-1-.8-1.8-2-2.2-3.4l-1.5 3.6c-.7 1.7-1.1 4.5-1.1 4.5L96 95l1.7-.8ZM101.9 96.8l-.8-4.3-3.4 1.8 4.2 2.5zM119.7 87.4l-4.9 2.5-.4 1.6 7.4-3.9-2.1-.2zM110 91.2h0a21 21 0 0 1-4.7-.8l-1.5.8c1 .6 2 1.4 2.9 2.3l.4 1.8 2.2-1.2.7-2.9Z" class="cls-19"/><path d="M89.5 98.5s1.3-5.7 2-7l1.9-.7s1.9 2.7 2.6 4.3.7 8.8.7 8.8L93 97l-3.5 1.6ZM97.7 94.3s.4-2.8 1.6-5.5c0 0 4.8 2 7.4 4.7 0 0 1.5 5.7 2 11.3 0 0-6-6.9-6.8-8l-.8-4.3-3.4 1.8Z" class="cls-10"/><path d="m116 95 1.8-1.3h-4l1-3.8c-1.3-.6-4-1-4-1s-1.9 5.1-1.6 7c.3 1.9 10.8 1.5 10.8 1.5l-4-2.4ZM126.6 85.1c-.8-.6-7.3-.7-7.3-.7h0l.4 3 4.2.4-.8 3 1.8-1 1.9 3.7s.6-7.8-.2-8.4Z" class="cls-7"/><path d="m131 93.2-4-5h0c0-1.5 0-2.8-.4-3-.4-.3-1.8-.5-3.4-.6h-.6l-3.3-.2-.1-.6s2.7 0 3.8-3.5l2 1.1c1.7 1 4.1 2.5 4.3 3 .4.7 1.7 8.8 1.7 8.8Z" class="cls-10"/><path d="M103.8 91.2c-.6-.5-1.3-.8-1.9-1.2l1.2-.4 2.1.7-1.4.9ZM123 80.3l2 1.1a40 40 0 0 1-1.8 3.2h-.6l-3.3-.2-.1-.6s2.7 0 3.9-3.5ZM123 76h0s.8-.2 2 0c.3.8.4 1.6.5 2.4l-2.2.7c.1-1 0-2-.3-3Z" class="cls-19"/><path d="M600.9 48 560.1 37l-1-.1-6 1.5c-1 0-1.9 1-2 2L549.7 90c0 1 .6 2 1.5 2.5l42.5 23.2 7.7-2.1c.6-.2 1-.7 1-1.2l1.8-59.9c0-2-1.2-3.8-3.2-4.3Zm-33.7 32c-.7-.3-1-1.1-.5-1.8l7-10.4 5.6 18.2-12.1-6Z" class="cls-20"/><path d="m593.3 50.2-40.1-11.9c-1.1 0-2 1-2 2l-.2 6-1.4 43.6c0 1 .6 2 1.5 2.5l42.5 23.2 2.2-54.1.3-7.3a4 4 0 0 0-2.8-4ZM567.2 80c-.7-.4-1-1.2-.5-1.9l7-10.4 5.6 18.2-12.1-6Z" class="cls-15"/><path d="m596.1 54.2-.3 7.3L551 46.4l.2-6c0-1.1.9-2 2-2.1l40 11.9a4 4 0 0 1 3 4Z" class="cls-16"/><path d="M653.6 87a65 65 0 0 1-16.5-9.9c-.8-.7-.6-2 .3-2.5 2.4-1.3 6.3-3.8 9-7 4-4.2 5.5-8 6.1-10a1 1 0 0 1 1.8-.4c2 2.4 5.4 7.9 5.2 16.5a24.5 24.5 0 0 1-3.5 12.5 2 2 0 0 1-2.4.7Z" class="cls-7"/><path d="M659.1 55.8c-.4-.5-1.1-.8-1.8-.5l-4.1 1.6h0c.4-.1.8 0 1 .3 2 2.4 5.5 7.9 5.3 16.5a24.4 24.4 0 0 1-3.5 12.5 2 2 0 0 1-1.6 1h4.5c.6 0 1.1-.3 1.4-.8 1.1-2 3.7-7.2 3.7-14 0-8.8-3.3-14.4-4.8-16.5Z" class="cls-19"/><path d="M651.4 72.8s1.1-2 1.4-5.5c.2-2.5 0-4.7 0-4.7l2.5 1s-.4 7-2.6 10l-1.3-.8ZM649.8 78.8l-1.8-1.2 1.8-2.6 1.8 1-1.8 2.8z" class="cls-19"/><path d="m654.4 87.1-.8-.1a65 65 0 0 1-16.5-9.9c-.8-.7-.6-2 .3-2.5 2.4-1.3 6.3-3.8 9-7 4-4.3 5.5-8 6.1-10 0-.2.2-.4.3-.5V57L608.2 61l36.4-29-40 14.7 3.5-19.8L590 43l1-27.4-12.8 24.6-7.6-10.9-.1 10.4 30.4 8.4c2 .5 3.3 2.3 3.2 4.3l-1.7 55.6 12.3 8.3-7.5-16 25.7 8.6-22.6-17.8 44.1-4h0Z" class="cls-12"/><path d="M614.8 83.3c2.1-.6 4.3-1 6.5-1.2l6.5-.7a33 33 0 0 1 4.5 0v.1c-2.9 1-5.8 1.1-8.7 1.5l-6.6.5h-2.2v-.1ZM608.3 76.7a47 47 0 0 1 7-1.1l7-.6a37.5 37.5 0 0 1 4.7.1c-3 .9-6.2 1-9.3 1.4-2.3.2-4.8.4-7 .4h-2.4v-.1ZM618.6 66.8c2.7-.6 5.4-.8 8.1-1.1l8.1-.7a46 46 0 0 1 5.5.2c-3.6.9-7.2 1-10.8 1.4-2.6.2-5.5.4-8.1.4h-2.7v-.1Z" class="cls-24"/><path d="M567.2 80c-.7-.3-1-1.1-.5-1.8l7-10.4 5.6 18.2-12.1-6Z" class="cls-12"/><ellipse cx="560.5" cy="45.3" class="cls-19" rx="1.4" ry="1.7" transform="rotate(-16.4 560.6 45.3)"/><ellipse cx="565.9" cy="46.9" class="cls-19" rx="1.4" ry="1.7" transform="rotate(-16.4 566 46.9)"/><path d="M527.2 88.8s1.4 2.4 3.6 2c2.1-.6 2.4-2.3 5-1.2 3.5 1.5 4.3-1 5.2-2.6.7-1.2 1.8-.7 2.7-1s2.5-1.8 1.6-4.2l10.1-.8.1.5a4.5 4.5 0 0 0 2.4 3l19.1 9.9c.6.3 1.3.5 2 .5 1.4 0 2.7-.7 3.5-1.8s1-2.5.6-3.9l-2.5-8.2-4.4-14-.3-1-1-3.3a4 4 0 0 0-4-2.9c-1.2 0-2.5.7-3.3 1.8l-7 10-15.4 1s2-2.2.8-4c-1.2-1.7-2.8-1-4.2-1-1.4-.3-1.2-3.6-4.3-3.9s-3.6 3.3-5 4-2.1-1-3.9-.8c-1.7.3-2.8 2.3-2.8 2.3m41.4 10.9c-.7-.4-1-1.2-.5-1.9l7-10.4 5.6 18.2-12.1-6Z" class="cls-21"/><path d="M527.2 88.8s1.4 2.4 3.6 2c2.1-.6 2.4-2.3 5-1.2 3.5 1.5 4.3-1 5.2-2.6.7-1.2 1.8-.7 2.7-1s2.5-1.8 1.6-4.2l10.1-.8.1.5a4.5 4.5 0 0 0 2.4 3l19.1 9.9c.6.3 1.3.5 2 .5 1.4 0 2.7-.7 3.5-1.8s1-2.5.6-3.9l-2.5-8.2-4.4-14-.3-1-1-3.3a4 4 0 0 0-4-2.9c-1.2 0-2.5.7-3.3 1.8l-7 10-15.4 1s2-2.2.8-4c-1.2-1.7-2.8-1-4.2-1-1.4-.3-1.2-3.6-4.3-3.9s-3.6 3.3-5 4-2.1-1-3.9-.8c-1.7.3-2.8 2.3-2.8 2.3m41.4 10.9c-.7-.4-1-1.2-.5-1.9l7-10.4 5.6 18.2-12.1-6Z" style="fill:none"/><path d="M567.1 80c-.6-.2-.8-1-.7-1.4.1-.6.4-.8.6-1.2l2-3.3 4.7-7 6.1 19.6-2.2-1c-1.5-.9-5.7-3-7.3-3.8-1.7-.9-1.6-.9-3-1.8 1.8.6 1.5.5 3.2 1.3l8.2 4-.1-.5-5-16.3-4.5 6.7-2.2 3c-.2.4-.2.7-.2 1 0 .2.2.5.5.7Z" class="cls-24"/><path d="M527.3 89c.7.9 1.6 1.6 2.5 1.7 1 0 1.7-.4 2.4-.8l1-.6 1.2-.3c.9 0 1.6.5 2.3.7.7.2 1.5.2 2.2-.2.7-.4 1.1-1.2 1.6-2.1l.4-.8c.2-.2.5-.5.8-.6.7-.3 1.4-.1 2-.3 1-.4 1.9-1.8 1.4-3.4l-.2-.5v-.2h.1l.9-.1 1.1-.1 2.4-.2 6.3-.5v.6l.1.2.2.6.6 1c.4.5 1 1 1.7 1.3l4.5 2.3 9.5 4.9 5 2.5a4 4 0 0 0 5.6-4.5l-.5-1.4c-.5-1.8-1-3.6-1.7-5.5L577.4 72a1014 1014 0 0 1-2.5-8l-.4-1.3c-.1-.4-.4-.7-.6-1-1-1.3-3-1.7-4.4-1a4 4 0 0 0-1.8 1.5l-1.5 2.1-5.5 7.8-3.8.3-12.4.7.8-1 .2-.3.2-.2.3-1a2 2 0 0 0-.6-2c-.5-.5-1.2-.7-2-.6h-1.8l-.6-.4c-.6-.7-.8-1.4-1.2-2a3 3 0 0 0-1.3-1.2c-1.1-.4-2.3-.3-2.9.2-.6.5-1 1-1.4 1.6l-1 1.4c-.3.4-.9.7-1.3.6-.5 0-.9-.2-1.2-.4-.6-.3-1.2-.7-2.1-.6-.9.2-1.8.8-2.7 2.1l-.1.1v-.1c.9-1.5 2-2.3 3-2.4 1-.1 1.7.4 2.3.6l.9.3c.3 0 .6-.2.9-.5l.9-1.4c.3-.5.7-1.2 1.5-1.7 1-.7 2.4-.9 3.7-.2.6.3 1.1 1 1.5 1.5.3.6.6 1.4 1 1.8l.4.1h1.6a3 3 0 0 1 2.4.8c.3.3.6.7.7 1.1v1.4c0 .4-.2.8-.4 1.2l-.1.2-.2.2 14.4-.8 3.8-5.3 2.5-3.6.7-1 .8-.9c.6-.5 1.4-.9 2.3-1a4.4 4.4 0 0 1 4.9 3.2l.3 1.2.8 2.3 6 19.4.7 2.4.4 1.3.2 1.4a4.7 4.7 0 0 1-7 3.8l-1.2-.5-4.5-2.4-8.8-4.5-4.3-2.2a5 5 0 0 1-2.5-2.7l-.2-.6v-.2l-7.3.5-1.7.1h-.5v.4c.3 1 0 2.3-.8 3.1-.3.4-.7.6-1.1.7-.4.2-.8.2-1.1.2-.7 0-1 .2-1.3.6l-1.4 2.3a3 3 0 0 1-1.1.8c-.5.2-1 .2-1.5.2-.6 0-1.1-.3-1.8-.6-.5-.2-1.3-.5-2-.2-.8.3-1.3.8-1.9 1-.6.3-1.1.4-1.6.4-1.1 0-2-.7-2.9-2V89l.1.1Z" class="cls-24"/><path d="m579.3 86-12.1-6c-.7-.3-1-1.1-.5-1.8l6.9-10.3-1.3-4.3c-.4-1.1-1.8-1.3-2.4-.4l-11.5 16.1c-.6 1-.3 2.2.7 2.7l19.2 10c1.2.6 2.6-.6 2.2-2l-1.3-4Z" class="cls-7"/><path d="M539.5 81.8c-1.4 2-9.7 3.3-14.9 3.6l-6.6.4c0 10.4-4 26.8-4.6 28.7-.8 1.8-7.4 4.4-9.4 4.9-2.1.4-8.2-3-9.4-4.1-.9-.8-1.2-2-1.3-3.4l-2 .1c-3.6.1-10.1.2-14.2-.4-6-.8-8.4-4.2-8.4-4.2s-8.3 0-13.6 4.4c-8.6 7-5.9 17-2 24.2 4.3 8 16.3 26.3-5.2 40.6-9.8 6.6-20 6.4-28.3 4.1a47.3 47.3 0 0 1-6.4-2.2c-.4-1.9-1-4.7-2-8.1a42.3 42.3 0 0 0 6.5 1.4c12.2 1.4 19.8-5.2 21.9-12.6 1.8-6.8.4-10.5-8-21.3-9.9-13-11.5-30 .6-45.7 12-15.7 37.4-13.6 37.4-13.6A49.4 49.4 0 0 1 488 66.7c.8-.2 1.5-.2 2.2.1 2.6 1.1 9.9 4.2 13.6 6.7 11-.5 34.6-1.5 36.6-1.4 2.6 0 .7 7.7-.8 9.7Z" class="cls-17"/><ellipse cx="555.4" cy="43.5" class="cls-19" rx="1.4" ry="1.7" transform="rotate(-16.4 555.5 43.5)"/><path d="M495.8 106.3c2.4 1.8 5.5 3.7 7.1 4 2.8.8 8.8-2 12.4-3.7M498.6 97.8c1.8 1.3 4.6 3.3 6.3 3.6 2 .3 8.3-2 12-3.7" class="cls-3"/><path d="M493 98.4c1.8.8 3.7 1 4.6.5 1-.5 4.3-6 6.2-12.4 2-6.5 3-10 1.7-11.5-.4-.4-1-1-1.8-1.5M509.1 86l8.8-.3" class="cls-3"/><path d="m506.4 86.2-2.2-1-.4 1.3-.2.7h0l4 1.8 1.6-2.9h-2.7ZM495.8 106.3c-1 .8-2 1.9-2.3 3.4a9 9 0 0 0-.2 2.2l-2 .1c0-3 2-5.3 2-5.3s-1.8-.9-2.4-2.7c-1-2.3.1-4.6.1-4.6-4.8-2.3-2.5-8.3-2.5-8.3h0c-.2 2-.1 3.7.5 4.6 1 1.2 2.4 2.2 3.9 2.7-.6 1.5-1.3 3.5-.7 4.6.5.8 1.9 2 3.6 3.3Z" class="cls-19"/><path d="M491.2 79.3A53.6 53.6 0 0 0 488 93c0 .8 0 1.5.3 2.3.3.8 1 1.3 1.5 1.8.6.5 1.2.9 1.9 1.2l.6.3-.2.7c-.3.7-.5 1.5-.5 2.2v1.2c.2.5.5.8.7 1a13.5 13.5 0 0 0 2.4 2.3l.4.3-.5.6-.7.9c-.4.6-.7 1.3-.9 2-.1.7-.2 1.4-.1 2.1h.6c0-1 .2-2.2.6-3.1a5.7 5.7 0 0 1 1.6-2l.3-.3h.1s.2-.2.1-.2l-.7-.5c-.9-.8-1.8-1.5-2.6-2.4a2 2 0 0 1-.6-1.4c0-.6 0-1.2.2-1.7l.3-.9.2-.4.3-.7-.4-.2-.3-.2-.4-.1-.8-.5-1.4-1a4 4 0 0 1-1-1.3c-.4-1-.4-2.2-.3-3.3 0-1 .3-2.2.4-3.2l1.3-5.7.5-2.3.3-1.2h-.1Z" class="cls-24"/><path d="m614.2 192.2.8 3.6c-9.8 5.9-19.5 2-19.5 2 7 2.4 13.6-.3 18.3-5.5h.4ZM622.7 168.8l-.1-.2h0v.2ZM619.7 183.5l3.3 3.3a22.9 22.9 0 0 1-5.3 7.1l-1.3-2.8c1.5-1.2 2-3.2 1.3-4.8l.8-1.9a5 5 0 0 0 1.2-.9ZM626.2 176.9a33.4 33.4 0 0 1-1.8 7l-3.5-2.3c.7-1.7.5-3.4-.4-4.6 1.5-.4 2.7-2 3-4h.5c.6 1.5 1.4 3 2.2 3.9Z" class="cls-12"/><path d="M178.6 61.5c-3.7-12.9-13.5-21.4-21.9-19-1.7.6-3.3 1.5-4.6 2.8 8 .3 16 8 19.2 19 3 10.3 1 20.3-4.5 25.3 1.2 0 2.4 0 3.5-.4 8.3-2.4 12-14.8 8.3-27.7Z" class="cls-19"/><path d="m266.8 163.3 2.3-1-2.2 8.5a33.4 33.4 0 0 1-9.1 2.9c-7.7 1.4-18.6 1.3-25.1-4.9-18.3-17.4.8-40 8.8-50 5.6-7 15.6-19.1 11.5-24.8a5 5 0 0 0-8.2.5c-3 4-8 19-21.6 30.3a74.6 74.6 0 0 1-37.9 16.9l-7.8-24c-1 1.6-1.8 3-2.6 3.7-.4.4-1 .6-1.7.6 1.1 5 1.6 8.8 1.7 10.2 1.6 0 2 1.4 2 1.4 1.4 3.7 1.2 8.5 1.2 8.5-3.5 2.9-12 3-12 3-2.2-2.6-3-7.3-3.3-9.5l-2.5.2a27.4 27.4 0 0 1-3.4-11h-1.3c-3-3.2-3-9.6-3-9.6.5-.4 1.4-.7 2.5-1.2-1.8-3.5-2.4-9-2.4-9C161 101.4 191 93 192 94.7c.9 1.3 5 12.7 5 12.7s.6-.1 1.7-.6c4.2-1.5 15-6 22.8-15 6.2-7 9.2-12.2 13.9-17.4a22.5 22.5 0 0 1 19.8-7c16.6 3.4 24.2 20.4 13.3 42.5-7.7 15.8-23.3 23-27.4 36.3-4 12.7 6.1 20.5 19.4 18.6 2-.3 4.2-.8 6.4-1.6ZM315.1 197.7c-.2 9.5-2.2 22-10.6 29-7.3 6-17 4-28.5-3-11.3-6.7-25.3-15.5-30.5-7.6-7.4 11.4 9.4 29.5-14 51-8 7.5-18.3 10-28.5 10-22.9 0-46-12.6-46-12.6s-11.7.2-14.2-2.4-4-7.7-4-7.7L127 254s-10.7 3.7-14.8 1.9c-4-2-5.1-9.7-3.9-11.3A87.6 87.6 0 0 1 128 236l2.3.1 8.6-7.6 15-13 3.4 5a117 117 0 0 1 9.2 16.8s30.2 20.1 47.2 9.3c17-10.8-2.2-31.7 14-48.3 12.7-13 33.6-3.5 46 6.8 16.7 14 25.5 12.2 30.4 1.8 1.4-3.1 2.1-6.8 2.5-10.2.3-3 .2-5.9.2-8l8.1.8c.2 2.1.4 5 .3 8.3ZM497.7 185.7c.3-4.3.1-7.1-1.6-7.5-1.7-.3-8.7 0-8.7 0l-3.5 5.1s-5 .3-5.8 1.9c.5-1 .8-2.2 1-3.3l.2-.7c1-4.7 1.2-12.7 0-14.2-1-1.5-8.1-1.9-8.7 0-.7 1.8-2.8 11.1-4.8 14.2-2 3-10.2 7-14.2 9-4 2.2-2.2 15-5.3 25-1.4 4.6-10.9 22-20.5 18.2-9.6-3.9 2.4-18.7 0-28.2-3.1-12.7-13.6-15-24.3-9.6-10.7 5.4-17 27-29.6 20.7-5.2-2.6-7.2-11.2-8-19.2l-.3-7.8-8 .5c-.2 2.4-.4 5.3-.4 8.4-.1 11.8 2.3 26.7 14.2 31.2 8.3 3 16.6-1.1 21.5-5.5 6-5.2 8.6-11.9 14-9 6 3-5.3 18-3.6 32.6.7 6.8 5.4 16 13.8 19.6 20.7 8.9 45.2-22.8 53-33.8l2.4-3.7s8.7.4 11.7-1c1.2-.7 2.2-2.2 2.8-4.1.6-2 .2-5.9.2-5.9s3-.6 4.3-4.4c1-2.8 1.2-8.6 1.2-8.6 6.4-3.5 5.4-7 5.5-9.4.3-3.2-.6-4.8-.6-4.8s1.9-1.4 2.1-5.7Zm-19.7-.4a31 31 0 0 0-1.1 8c0 .1 0 0 0 0l-1.8 2.9v0l-1.9.3c-2.3.2-1.8 5-1.8 5l-17.8 26-4.3-3 21.3-30.4v-3a9.6 9.6 0 0 0 7.4-5.8Z" class="cls-17"/><path d="M476.9 193.3v0h0s0 0 0 0Z" class="cls-3"/><path d="M413.7 181.2c-.2-1-5.6-28.8-16.7-52.4 0 0-21.1-26.4-57.9-55.7-36.7 29.3-57.8 55.7-57.8 55.7a254.8 254.8 0 0 0-16.8 52.3s0 0 0 0 29.9 9.2 74.6 9.2 74.6-9.1 74.6-9.1 0 0 0 0Z" class="cls-17"/><path d="M339.1 73.1a618 618 0 0 0-74.6 108c.2-.8 5.7-28.7 16.8-52.3 0 0 21-26.4 57.8-55.7ZM339.1 73.1a618 618 0 0 1 74.6 108c-.2-.8-5.6-28.7-16.7-52.3 0 0-21.1-26.4-57.9-55.7Z" class="cls-11"/><path d="M339.1 123.6c-21 0-31.8 27.2-31.8 27.2s11.6 9.2 31.8 9.2 31.9-9.2 31.9-9.2-10.8-27.2-31.9-27.2Z" class="cls-3"/><path d="M339.1 123.6c-21 0-31.8 27.2-31.8 27.2s11.6 9.2 31.8 9.2 31.9-9.2 31.9-9.2-10.8-27.2-31.9-27.2Z" style="fill:#fff"/><circle cx="353.5" cy="155.2" r="15.1" class="cls-19" style="clip-path:url(#clippath)"/><path d="M339.1 123.6c-21 0-31.8 27.2-31.8 27.2s11.6 9.2 31.8 9.2 31.9-9.2 31.9-9.2-10.8-27.2-31.9-27.2Z" class="cls-3"/><path d="M307.2 106.2c-.7 4.7-17 25.5-17 25.5-.7-2-.7-4-.3-5.8.7-3.8 2.8-6.7 2.8-6.7s2.4-2.9 5.3-6c4.3-4.6 9.6-9.7 9.2-7ZM388.1 131.7s-16.3-20.8-17-25.5c-.7-4.6 14.5 13 14.5 13l1.1 1.9c.8 1.6 1.8 4 2 6.7 0 1.3-.2 2.6-.6 3.9Z" class="cls-20"/><path d="M388.6 127.8c-1.4-.3-4.3-3.3-6.4-6.7-2-3.3-2.7-5.8-1.6-6 1.1 0 3.8 2.5 6.1 6 .8 1.6 1.8 4 1.9 6.7ZM296.6 119.1c-2.2 3.5-5.1 6.6-6.6 6.8h-.1c.7-3.8 2.8-6.7 2.8-6.7s2.4-2.9 5.3-6h.2c1 .1.4 2.7-1.6 6ZM476.9 193.5a3.4 3.4 0 0 0 2.2 2.2l-4 .6 1.8-2.8Z" class="cls-19"/><path d="M476.9 193.3s-.3 2.2 2.2 2.4c0 0 7.8 1 10.7 0 3-1 5.8-4.2 5.8-4.2M475.1 196.3l6.3-.3M471.4 201.6s0 3 .2 4 1 1.8 3.5 2 10-.3 11.5-.6 4.1-1.4 4.1-1.4M468.5 219.4c4.7.1 16.7-.8 16.7-.8" class="cls-3"/><path d="M475 207.6s-5.2-.4-7.3 1-2.1 3-2.3 4.4.2 5.4 1.3 6.1c.2.2.8.2 1.8.3 0 0-.5 3.6-.5 6s.2 4.2 2.5 4.2" class="cls-3"/><path d="m517 135.2-7.6 11-25.5 37c-.2 0-5.1.5-5.9 2.2.5-1.1.9-2.3 1.2-3.5l26.6-38 7.7-11 3.5 2.3ZM478 185.3a9.4 9.4 0 0 1-4.8 5l-24 34.2 4.4 3 17.7-26h0s-.4-4.8 2-5l1.7-.2 1.9-2.8v-.2a31 31 0 0 1 1.1-8Z" class="cls-5"/><path d="m517 135.2-7.6 11-3.6-2.4 7.7-11 3.5 2.4z" class="cls-15"/><path d="M501.1 146.2c-1-.8-1.4-1.2-2-1.9-.4-.6-1-1.4-1.6-3.1-.3-.9-.4-2-.1-3 .2-.6.4-1.1.8-1.6.4-.4 1-.8 1.6-1 1.2-.3 2.4-.1 3.6.2l3.3 1.4 3 1.8 1.4 1 1.4 1c1.7 1.5 3 3 4 4.6l.7 1.6c.2.6.3 1.6-.2 2.4-.5.8-1.4 1.2-2 1.3l-1.8-.1-1.6-.6-1.3-.9v-.1l1.6.4 1.5.3c.5.1 1.3.2 2 0 .6-.3 1-1 1-1.8s-.5-1.6-1-2.3a21 21 0 0 0-5.5-5.3 35.5 35.5 0 0 0-5.2-3.1c-1-.4-2-.8-2.9-.9-1-.2-1.9 0-2.5.5-.6.5-1 1.4-1 2.2-.1.8.1 1.7.4 2.4l.7 1.5.8 1.5 1 1.5v.1Z" class="cls-4"/><path d="M517.6 152.3c1 0 1.5-.2 2-.4l.8-.5c.3-.2.7-.5.8-1 .3-1 0-2.7-.8-4.1a18 18 0 0 0-3-4.3 31 31 0 0 0-7.7-6.2l-5-2.7-2.2-1.2v-.1c1.4.2 1.2 0 2.5.5a33.8 33.8 0 0 1 7 3.8c2.3 1.5 5 3.6 7.2 6.3 1 1.3 2 2.7 2.6 4.3.2.8.5 1.6.5 2.4 0 .8 0 1.6-.5 2.4-.5.6-1 .8-1.2.9l-1.5.3c-.7 0-1 0-1.5-.2v-.1ZM507.3 153.7c1 .3 1 .2 2.2.8 1 .6 2.6 1.3 4.2 1.7 1.7.5 3.3.6 4.5.5l1.3-.2 1.3-.4 1.2-.2v.1c-.4.5-.3.5-.9.9l-.8.3c-.3.1-.6.3-1 .3l-1 .2h-1c-1.3.1-3-.1-4.5-.6s-3-1.2-4-2c-.7-.3-.6-.3-1.1-.8l-.4-.6Z" class="cls-4"/><path d="m595.7 154.5-1.2.5-.8.7-1-1.2c-1.5-2-3.8-4.8-6.9-8.3l-1.3 4.7s-8.6-2-21.7-1.7c0 0 17.5-6.1 25.7-8.5l6.5 12.5.7 1.3Z" style="fill:#fc45a5;stroke:#181225;stroke-linecap:round;stroke-linejoin:round;stroke-width:.75px"/><path d="M588 162.6a3 3 0 0 0-1.7 2.1l-1-1-7.7-6.4v6.4s-6.6-.5-22.3.5c0 0 12.6-6.3 24.6-10.5a2677.3 2677.3 0 0 0 8.2 9Z" class="cls-10"/><path d="M622.4 139.8c3.5-4.3 5.8-9.8 5.8-15.4l.9.4-4.8 4.8c-.3.3-1 0-.8-.5a25 25 0 0 0 .6-11.6l.8.2-4.1 4.6c-.2.2-.5.3-.7 0-.2 0-.2-.2-.2-.4 0-2-.2-4.3-.6-6.2-.1-.8.4-1.6 1.2-1.8 1-.2 1.9.7 1.7 1.7a45 45 0 0 1-1.3 6.5l-.9-.4 4.2-4.7c.2-.3.8-.2.8.2 1 4 .4 8.2-.5 12.1l-.9-.5 4.8-4.7c.3-.3.9-.1.8.3 0 3-.6 5.8-1.7 8.5-1 2.8-2.5 5.3-4.3 7.6-.2.2-.5.2-.7 0a.5.5 0 0 1 0-.7ZM615.2 132.4c-.6-6.5-6.7-11-12.5-12.8l.6-.5v7.8c0 .4-.5.6-.8.4a25.6 25.6 0 0 0-9.5-4.2l.6-.7c.8 2.4 1.4 4.8 1.8 7.2 0 .5-.5.8-.8.5a29.4 29.4 0 0 0-9.4-3.5 1.7 1.7 0 1 1 .7-3.2c3.7 1.3 6.4 3.5 9.3 5.9l-.8.5c-.4-2.4-1-4.8-1.7-7-.2-.4.2-.8.6-.7 3.5 1 7 2.1 9.9 4.4l-.9.4v-7.8c0-.3.4-.6.7-.5 6.2 2.1 12.6 6.8 13.2 13.8 0 .7-1 .7-1 0Z" class="cls-26"/><path d="m583.7 172.9.1.7-1.5.2-8.8 1 2 4.1s-8.2 3.2-16.5 9.6c.2-.4 7.4-13.4 12.2-18.1l11.3.8 1.5.1c-.2.5-.3 1-.3 1.6ZM620.8 157.6c-.6.9-1.6 1.9-3.3 2.8l-14.3-6s-2.8-3.2-2.2-9.5l5-5 7.2-.3-1.7 2.3 5.8 3.4 1.5-1.9-1 6.8 3.7 5.3s0 1-.8 2.1Z" class="cls-10"/><path d="m604.6 134.3 3-4.8s-11.6 5.2-11.7 7.5c-.2 2.2 5.2 8 5.2 8l4.9-5-2.7-3.4c.3-.4 3.2-1.2 3.2-1.2l-1.9-1.1ZM620.8 134.9c-1.4-.9-11-5.2-11-5.2l3.4 4.9-2.6 1.7 4.3.7-1.7 2.6-1.7 2.3 5.8 3.4 1.5-1.9s1.7-1.8 2.7-3.7c1-1.9.7-4-.7-4.8Z" class="cls-5"/><path d="m611.5 141.9-2.1 1.6-1.1-2.3-3.5 2v-2" class="cls-3"/><path d="M628 142a7 7 0 0 0-7-1.5c-1 1.5-2.2 2.9-2.2 2.9l-1 6.8 3.7 5.3c2.6.7 5.1-.7 6.6-2.6 2.5-3 2.8-8.4-.1-11Z" class="cls-18"/><path d="m628.7 146.7-.1-1.4-1.7.5c-.3-1-.8-2-1.7-2.9l-1.2.8s.7 1 1.2 2.6l-2.4.7.6 1.5 2.2-.8a9 9 0 0 1 0 2.8h1.5s.4-1.4.1-3.3l1.5-.5Z" class="cls-19"/><path d="M617.5 160.4c1.5 1.8 2.4 4.1 2.8 6.6 1.4.3 2.5 1.5 3 3.1l2.7-.7c-1-5-3.8-8.1-6.7-10.2-.5.4-1 .8-1.8 1.2ZM595.5 197.8c7 2.4 13.6-.3 18.3-5.5h.4l.8 3.5c-9.8 5.9-19.5 2-19.5 2Zm24.1-14.3c-.3.4-.7.7-1.2 1a22 22 0 0 1-.7 1.8c.6 1.6.1 3.6-1.3 4.8l1.3 2.8h.1c1.9-1.6 3.7-4.2 5.2-7l-3.4-3.4Zm6.8-10.9-3 .5c-.2 2-1.4 3.5-3 3.9 1 1.2 1.2 3 .5 4.6l3.5 2.2a26.5 26.5 0 0 0 2-11.2Z" class="cls-10"/><path d="M567.3 180.2v.4c-.2.6.3 1.5.4 2l.6-.1-.3-1.2c0-.3-.1-.7-.4-1h-.2ZM569.7 177.4l-.1.5c0 1 .5 2.4.7 3.3l.7-.2-.5-1.8c-.1-.6-.2-1.1-.6-1.6 0-.1 0-.2-.2-.2ZM568.8 160.4c-.2 0-.3.3-.3.3-.4.7-.6 2-.8 2.8l.6.2.4-1.6c.1-.5.3-1 .2-1.5v-.2h-.1ZM573 159.5l-.2.4c-.5 1-.7 2.6-1 3.6l.7.2.5-2c.1-.7.3-1.3.2-2v-.2h-.1ZM576.7 147.2c-.2 0-.3 0-.4.2-.5.4-.9 1.5-1.2 2l.6.4.6-1.3c.2-.3.5-.6.4-1.1v-.2ZM581.5 146.7l-.4.3c-.5.7-1 2-1.5 2.8l.6.4.9-1.7c.2-.5.5-1 .5-1.5v-.3Z" class="cls-24"/><path d="M588 162.6a3 3 0 0 0-1.7 2.1l-1-1c.3-.6.8-1.5 1.9-2l.9 1ZM595.7 154.5l-1.2.5-.8.7-1-1.2c.6-.5 1.4-1 2.3-1.3l.7 1.3ZM583.7 172.9l.1.7-1.5.2c0-.7 0-1.7.2-2.6l1.5.1c-.2.5-.3 1-.3 1.6Z" class="cls-19"/><path d="m613.3 152-.3-2.2c-.2-1-.5-2-1-3.2 0-.4-.1-.6-.4-1a.7.7 0 0 0-.3-.2l-.3-.1h-.5l-2-.3-7.4-.4v.7l4.6.2a121.8 121.8 0 0 1 5 .5H611v.1l.2.2.1.3.4.9 1.1 3.4a11.6 11.6 0 0 0 .4 1Z" class="cls-24"/><path d="M355.7 189.8c-.3 2.4-.5 5.3-.5 8.4 2.9-.2 5.8-.6 8.8-1-.3-2.8-.4-5.5-.4-7.9l-8 .5Z" class="cls-19"/><path d="m559.1 248.3-1 4.3-40.7 11.4-33.8-39.5.4-4.4 39.6-5.5 35.5 33.7zM587.6 208l-24.9 40.2-3.6.1-35.5-33.7 18.4-36.9 3.7.6 41.9 29.7z" class="cls-6"/><path d="m587.6 208-24.9 40.2-3.6.1 24.6-40.3-41.7-30.3 3.7.6 41.9 29.7zM559.1 248.3l-1 4.3-40.7 11.4-33.8-39.5.4-4.4 34.6 39 40.5-10.8z" class="cls-16"/><path d="m558.8 242.9 20.4-34.2-36.2-26.5-15.6 31.9 31.4 28.8z" class="cls-15"/><path d="m527.9 249.9 20.9-5.1-26.1-25.6-19.9 3.4 25.1 27.3zM509 244l7.8-1.9-8.6-9.5-7.5 1.5 8.3 9.9zM517.1 220.2l25.6 26.1M510.1 221.4l24.8 26.8M522.9 244.4l20.3-5.1M525.1 237.6l13.1-3.2M507.3 227.4l20.1-3.6M519.7 231.8l12.9-2.9" class="cls-3"/><path d="m551.9 219.2 7.1 15.2 2.1-4.8 9.9 16.7-8.2-32.8 9.9-2.3v-2.7l20.1-5-33.8-2.6-1.1-24.6 2.6.6-3.4-19.6-2.9 23.8-2.7-.5-2.7 17.1-7.4-4.6-2.1 1.4-10.4-7.3 12.6 17.6-28.9 7.3 8.7.4v1l21.3 2.5-4.2 15.5 2.3 1-3.8 12.2 11.7-16.5-2-.9 5.3-8.1zM529.2 156.1l-6 6.1 7.9-3.6 4.7 5.1-2.2-6.9 6.9-7.2-8.9 4.6-5.3-5.1 2.9 7zM527.4 142.4l4-4 1.3 6-5.3-2zM503.9 165.9l-.3-3.6 3.9-.4.4 3.7-4 .3zM519.1 166.6l-2.5 5.3 5.1-.2-2.6-5.1zM485.9 150.6l1 8.6 1.7-7.9 5.8-.2-5.6-2.6-.5-8.2-1.9 7.4-7.6-.7 7.1 3.6zM476.6 157.3l4-3.9 1.2 3.9h-5.2zM480.7 136.3l-.3-3.4 2.9-.4.5 3.3-3.1.5zM494.6 128.5l-2.9-3.7 5 .6-2.1 3.1zM505.8 127.2l-.1-2.8 4.2-.3.3 3.3-4.4-.2zM521.2 126l-5.7 3.7 6.7-1 5 7.1-1.8-7.9 6.7-4.7-7.8 1.7-5-6.7 1.9 7.8z" class="cls-5"/><path d="m473.2 190.3-2.6 3.8v-3c1-.2 1.8-.5 2.6-.8M471.6 205.7c-.2-1.1-.2-4.1-.2-4.1l-5.4 7.8.3.5c.3-.4.8-.9 1.4-1.3 2.1-1.4 7.4-1 7.4-1-2.5-.2-3.3-.8-3.5-2Z" class="cls-19"/><path d="m470.6 229.6-2.5 3.7s-1.9-1.3-2.1-5v-6.6c-1.7-.4-2-3-2.3-5.2-.2-2.2.7-4.8.7-4.8l1.6-2.3.5.2c-1 1.1-1 2.3-1 3.4-.2 1.4.1 5.4 1.2 6.1.2.2.8.2 1.8.3 0 0-.5 3.6-.5 6s.2 4.2 2.6 4.2Z" class="cls-19"/><path d="M489.3 183.3c-1.2.3-2.3.3-3.5.3h-1.9v-.3l-.1-.3.8-.5.7-.3a13.8 13.8 0 0 1 2.2-.8l-1.3 1-.7.5h-.1 1c.6 0 1.2 0 1.7.2.4 0 .8 0 1.2.2Z" class="cls-24"/><path d="M306.7 188.7c0 2 0 4.9-.2 7.9l8.6 1.1a84 84 0 0 0-.3-8.3 333 333 0 0 1-8.1-.7Z" class="cls-19"/><path d="m140 206.1-30.6 29-6.9 6a7 7 0 0 1-6.2-3.4c-1.4-2.3-1.6-5.1-.9-6.6.8-1.6 6.5-.1 13-4.3 6.6-4.1 9.3-13.3 12.8-16.1 5-4 13-4.7 18.9-4.6Z" class="cls-17"/><path d="m176 195.7-.3.1h0L170 201h0l-7.8 6.9h0s0 0 0 0l-32 28.2h-2.3c-2.3 0-18.3 7.1-19.6 8.7-.3.5-.5 1.3-.5 2.3 0 2 .7 4.9 2.1 7l-.5.4-1.7.3-13.1 2.6a.6.6 0 0 1-.6-.8l7-13.6 50.3-47.4h0l7-6.7s0 0 0 0l6-5.5c2.2-2.2 6-3 10.4 1.8 4.5 4.8 3.6 8.4 1.2 10.6Z" class="cls-7"/><path d="m176 195.7-.3.1h0L170 201h0c-.6.5-4.5 3.3-9.5-2-5.3-5.4-2.3-9.8-2.1-10v-.1l5.8-5.5c2.3-2.2 6-3 10.5 1.8s3.6 8.4 1.3 10.6Z" style="fill:#fc70b9;stroke:#181225;stroke-linecap:round;stroke-linejoin:round;stroke-width:.75px"/><path d="M164.2 183.3c-2.3 2.2-1.5 6.7 1.7 10.2 3.3 3.4 7.8 4.4 10 2.1" class="cls-3"/><path d="m170 201-7.8 6.8h0s0 0 0 0c-.5.3-3.8 1.7-8.1-2.5-5.1-5-3-9.4-2.8-9.8h0l7-6.7c-.1.3-3 4.7 2.2 10.1 5 5.3 9 2.5 9.4 2.1Z" class="cls-20"/><path d="M155.8 191.3s-2.3 4.6 2.4 9.5 8.7 3 8.7 3" class="cls-3"/><path d="M153.8 193.1s-2.9 4.9 2.2 10c5 4.8 9.1 2.1 9.1 2.1" class="cls-3"/><path d="m109.4 254.4-8.3 1.6h-.1l-6.4 1.3a.6.6 0 0 1-.6-.8l3-5.6h0l.3-.7h0l3.8-7.3s.5 1.5 0 5.3c0 0 4.5 1 3.3 5.3 0 0 3.6-.4 5 .9Z" class="cls-15"/><path d="m122.4 237.8 34.7-30.3M104.4 253.5l3.9-3.4M101.1 248.2l50.7-45.8" class="cls-3"/><path d="m101 256-6.4 1.3a.6.6 0 0 1-.6-.8l3-5.6c-.4.8-.7 2 0 3.5.8 1.9 3.4 1.7 4 1.6Z" class="cls-19"/><path d="M112.2 256s5.2 6.7 7 8c1.6 1.2 6.9-3 7.3-4 .2-.7-.3-3.7-.7-5.5-2.9.9-10.4 3-13.6 1.5Z" class="cls-17"/><path d="M138.4 260.5c0 1.6-3.8 6-5.2 5.5a32 32 0 0 1-4.3-2.6l-3.3-2.4.9-1c.2-.5 0-2.3-.4-4v0-.6l-.2-.6v-.3l1.1-.4 7 .2c.6.5 1.3 1.3 2 2.2 0 0 0 0 0 0 1.3 1.5 2.4 3.2 2.4 4Z" class="cls-17"/><path d="M142.8 262c-2.5-2.5-4-7.6-4-7.6l-4.7-.1c1.4 1.5 4.4 5 4.4 6.2 0 .8-1.1 2.4-2.3 3.7h0s4.2 3.2 5.6 3c.8-.1 1.8-2.3 2.6-4.1-.7-.3-1.3-.6-1.6-1Z" class="cls-17"/><path d="m138.8 254.4-4.7-.1c1.4 1.4 4.4 4.9 4.4 6.1 0 .9-1.1 2.5-2.3 3.8h0l1.7 1.2 1.8-2.5c.6-.9 1.6 1 4 1.9l.7-1.7c-.7-.3-1.3-.6-1.6-1-2.5-2.6-4-7.7-4-7.7Z" class="cls-19"/><path d="M134 254.3c.6.5 1.3 1.3 2 2.2-.7-1-7.9-.5-7.9-.5l-1.6 2.3-.4-2.3v0-.6l-.2-.6v-.3l1.1-.4 7 .2ZM126.1 256l-.3-1.5c-2.8.9-10.1 2.9-13.4 1.5v.1c0 .2.3.6.7 1 .2.3 5 1.3 7 .8 3.7-1 6-1.9 6-1.9ZM109.4 235l-6.9 6.2a7 7 0 0 1-6.2-3.5c1.8.6 4.4 1.1 6.1.8 1.7-.3 4.8-2 7-3.4ZM157.2 220.4l-3.5-5-13.4 11.8h0l-10 8.8c3.5.4 9.2 1.4 9.2 1.4.4-2.6 2.4-9.7 2.4-9.8h0l15.3-7.2ZM110 254l-.6.4-1.7.3c-.3-3.6.1-7.7.1-7.7 0 2 .7 4.9 2.1 7Z" class="cls-19"/><path d="m142.7 238.1-3.2-.7M142.7 238l-.4-.2c-.6-.4-2-.5-2.7-.7l-.1.7 1.6.3c.4 0 .9.2 1.4 0h.2Z" class="cls-24"/><path d="M156.9 124.8c3-.4 10.6-1.6 14.8-3M162.8 135.6c3-.3 8.4-1 12-2.9v-.5" class="cls-3"/><path d="M171.4 99s-5.3 10.4-6.5 19.9c0 0 5.2 3 8.3 3" class="cls-3"/><path d="M184.4 114.9c-.4 0-.7.3-1 .4-.6.2-1.2.6-1.8 1l-1 .5-.5.3-.3.1-.1-.3a21.1 21.1 0 0 1-.3-2.2h-.7a20.4 20.4 0 0 0 .4 2.8c.1.3.3.4.5.5h.5l.3-.2.5-.3a15.6 15.6 0 0 0 3.5-2.5Z" class="cls-24"/><path d="m186.6 128.8.2.1v-.1l-.2-.1a11 11 0 0 1-.4-.3l-.8-.5a643.8 643.8 0 0 1-4.1-2.5l-.7-.6-.5-.5c-.3-1-.2-2.4-.2-3.5l.1-3.1h-.7c0 .5-.2 2.4-.1 4.2 0 1 0 1.8.2 2.5l.2.5.3.3.2.2c1.9 1.4 3.9 2.4 6 3.3l.4.1.3.1c.1 0 .1-.1 0-.1h-.2Z" class="cls-24"/><path d="M166.7 110.9s-7.5 1.7-11.6 3.2" class="cls-3"/><path d="M186 144s-3 4.5-9.7 2.8l-.3-1.4-.5-2c1-.3 1.9-.8 2.6-1.3 0 0 .1-3.5-.7-6.9l-.2-.7-.2-.9s-.4-1.4-2.1-1.4c0-1.4-.6-5.3-1.7-10.2l.7-.1c.4 0 .8-.2 1-.5.8-.8 1.7-2.1 2.6-3.7l7.8 24 .8 2.3ZM171.4 93.6c0 .5-.3 1-.8 1l-7 2.2c-.5.2-1 0-1.3-.4l-1.2-2.3-.8-1.4 1.2-.2h0l.5-.1 8.7-3.4s0 0 0 0h.2l.2 1.5.3 3.1Z" class="cls-5"/><path d="m164.5 96.6 1 4.1 5.9-1.7-1.4-4.2-5.5 1.8z" class="cls-5"/><path d="m562.7 248.2-3.6.1 24.6-40.3h3.9l-24.9 40.2z" class="cls-19"/><path d="M648.2 190.7c-3.1-12.3-8.7-25-8.7-25l-16.2 4.4c-.5-1.6-1.6-2.8-3-3-.4-2.6-1.3-4.8-2.8-6.7l-14.3-6s-1.4.4-3.3 1.3a4.3 4.3 0 0 0-6.9 5.2l-1.5 1.9c-1.7-.8-3.6-.6-4.6.7-1.2 1.6-.8 4 1 5.3l.2.1-.9-.1c-1.9 0-3.5 1.8-3.5 4 0 1 .3 1.8.7 2.4a66.5 66.5 0 0 0-25.8 18l-.7-16.9 2.6.5-3.4-19.5-3 23.8-2.6-.5-2.7 17-7.4-4.5-2.1 1.4-10.4-7.3 12.6 17.6-29 7.3 8.8.4v1l21.3 2.5-4.2 15.5 2.3 1-3.8 12.2 11.7-16.5-2-1 5.3-8 7.1 15.2 2-4.8 10 16.7-8.2-32.9 9.9-2.3v-2.7l20-4.9-27-2.1a64.8 64.8 0 0 1 23-8.4c1.6 2 3.7 3.8 6.8 4.8 7 2.4 13.6-.3 18.3-5.5h.4l3.6 15.6s-3.5-2.4-5.9-5.3c0 0-8 5.2-18.4 5.3 0 0 8.4 3 13.6 3.4 5.1.3 18.2-1.5 18.2-1.5l-8.9-18.7c1.5-1.2 2-3.2 1.3-4.8l.8-1.9a5 5 0 0 0 1.2-.9l13.3 13.1h-7.3s4.1 10.6 6.4 23.4c0 0 4.5-17.9 5.2-27.7L621 181.6c.6-1.7.4-3.4-.5-4.6 1.5-.4 2.7-2 3-4l12-1.8-2.5 4.3c7.4 7 15.3 15.2 15.3 15.2Z" class="cls-21"/><path d="M648 189.9a157.5 157.5 0 0 0-7.7-22.1l-.6-1.3-.2-.6h-.5l-10.2 3-4.9 1.3h-.4l-.2.2h-.1v-.1l-.3-.5v-.2l-.7-1a3.9 3.9 0 0 0-1.4-1.2h-.2l-.5-.2-.1-.8-.2-.6-.3-1.2-1-2.3-.7-1-.4-.6-.1-.1-.3-.1-2.5-1-10.7-4.4-.7-.3h-.2l-.4.2-1.4.5-.8.3-.3.2h-.2l-.1-.1-.4-.4a4 4 0 0 0-6.2 4.7l.2.2.2.4c0 .2-.2.3-.3.4l-.2.2-1.3 1.7c-.1.2-.3 0-.4 0l-.3-.2-.5-.1-1-.2c-1.1 0-2.4.7-2.8 2-.2.6-.2 1.2 0 1.9l.4.9.3.4.3.3.5.4v.4s-.3 0 .2.1v.2H586.4c-.6.3-1.1.7-1.5 1.3a4.2 4.2 0 0 0-.4 4v.1l.2.2.3.6-1.8.6-1.3.6a49.5 49.5 0 0 0-8.6 4.6 68 68 0 0 0-12.2 10l-1 1.1-1.7 1.8-.9-18.3 2.6.5L557 160l-2.6 21.6-2.8-.5-2.6 17.2-7.8-4.7-2 1.4-8.8-6v-.1L542 205l-26.9 6.8 6.5.3v1l21.4 2.5-4.3 15.6 2.4 1-3.3 10.2 10-14.1-2-1 6-9 7 15 2-4.6 9 15-7.6-30.6 10-2.3V208l17.9-4.4-14-1.1-7.1-.6c-1.6 0-3-.2-4.6-.3-.5 0 0-.2.2-.3l.8-.5 1.2-.7 1.4-.8a64.4 64.4 0 0 1 16.1-6l2.3-.4 2.3-.4.5.6.4.4a12.6 12.6 0 0 0 5.8 3.8 16.2 16.2 0 0 0 16.8-4.3l.6-.6.3-.3.2-.1.1-.2h.2l.6-.1h.1v.2l.2.7.2.8 2.8 12 .4 1.3c0 .5.2 1 .3 1.3v.6l-.5-.3a39 39 0 0 1-1-.8l-.6-.4a28.7 28.7 0 0 1-3.8-3.5l-.4-.4-.2-.2-.4.2-.6.4a39 39 0 0 1-16.1 4.5h-1.2l.1-.7c3 1 6.7 2.2 11 3 2.1.4 4.4.4 6.8.3l7.6-.6 4-.5 1.7-.2-.2-.3-.4-1-3.8-8-4-8.3-.2-.6-.1-.3.1-.2.3-.3c.3-.2.5-.5.7-.9a3.9 3.9 0 0 0 .2-3.2v-.5l.2-.3.2-.5.3-.6.1-.4.2-.1.2-.1.5-.3.2-.2.4-.4 14.2 14h-7.6l.4 1 .5 1.5a118.8 118.8 0 0 1 2.8 9c1 4 1.9 7.8 2.5 11.4h-.7a297.8 297.8 0 0 0 5-26.1l.2-1v-.4l-1.4-1-2.6-1.6-10.8-7.2-1.2-.8-.2-.1-.1-.1v-.1l.2-.5.1-.6a4.8 4.8 0 0 0-.5-3l-.2-.5h-.1v-.2h.2l.5-.2.4-.2c.6-.4 1-1 1.4-1.5a5.8 5.8 0 0 0 .6-2l.3-.1h.3l.5-.1 1-.2 3.5-.5 7.1-1-2.7 4.5a1683.6 1683.6 0 0 1 6.1 6 466.4 466.4 0 0 1-.2 0l-3.4-3.2-3-2.8 2.4-4-6.4 1-3.4.5-1 .2-.6.1a6.4 6.4 0 0 1-.6 1.8 4.8 4.8 0 0 1-2 2h-.2v.2l.3.6a5.1 5.1 0 0 1 .2 3.1l-.1.5 1 .6 11 7.2 2.9 2 .8.5.5.3c.1 0 0 .2 0 .4v.2c0 .7 0 1.3-.2 2-.2 2.5-.7 5.1-1.1 7.8-1 5.5-2.3 11.4-3.8 17.6h-.7a133 133 0 0 0-5.3-20.3l-.5-1.5-.7-2h6.8L619.6 184l-.6.4-.3.2-.1.4-.4 1-.1.2v.2l.1.3c.4 1.4 0 3-1 4.1l-.2.2-.1.1v.1l.4 1 .9 1.8 1.7 3.6 3.5 7.3 1.7 3.6.5 1.1.2.5h-.5l-.7.1-2 .3-7.7.8c-2.5.2-5 .4-7.6.3-2.5-.2-4.9-.7-7.2-1.3a95 95 0 0 1-6.8-2.1l.2-.7a36.2 36.2 0 0 0 16.4-4.3l1-.5 1-.6.8.8.5.5a31.7 31.7 0 0 0 3 2.8l1 .7-.4-1.8a6172.7 6172.7 0 0 0-3-12.5s.2 0 .2 0l-.1.1-.7.7-1.3 1.2a18.4 18.4 0 0 1-5.8 3.4 16.5 16.5 0 0 1-15.7-2.7l-1-1-.5-.5-.3-.4a31.6 31.6 0 0 1-2.3.4l-2.6.6a65.1 65.1 0 0 0-16.3 6.3l-.5.3 3.3.3 6.8.5 15.8 1.2v.8l-19.7 4.9v2.7l-9.8 2.2 8.1 32.5-.4.1-.3.2-9.6-16-2.1 4.8-7.1-15.3-4.7 7 2 1-12 17-.4-.2-.3-.2 3.7-11.9-2.3-1 4.2-15.4-21.2-2.5v-.9l-8.4-.3v-.8l28.4-7.2-12.4-17.1.3-.3.3-.3 10.1 7.2 2.1-1.4 7.2 4.4 2.6-17 2.7.6 2.9-23.3.4-.1h.4l3.4 20-2.7-.5.7 15.6 1.1-1.1a84.8 84.8 0 0 1 11.4-9.7 58 58 0 0 1 6.4-3.9l1.6-.8 1.6-.7 1.6-.7 1.3-.4-.4-1a5 5 0 0 1 .2-3.1 4 4 0 0 1 2.6-2.4h.3l.2-.1h.2a4.5 4.5 0 0 1-1-2.2c-.2-1-.1-1.9.4-2.6.5-.8 1.2-1.3 2-1.6.8-.2 1.7-.1 2.4 0l.5.3.7-.8.6-.7v-.1l-.2-.5a4.7 4.7 0 0 1 3-6 4.7 4.7 0 0 1 4 .6l.3.2.2.1h.4l.7-.3 1.5-.5.3-.1.3-.1h.3l.7.4 12 5 .8.3.5.2.3.2.1.2a16.6 16.6 0 0 1 2.6 6v.3h.1l.2.1.3.2c.4.2.8.4 1 .7a4.9 4.9 0 0 1 1.2 1.7l.1.3 5.3-1.3 10.7-3H639.6l.2.4.2.6.4 1 .8 2 1.4 3.7a172 172 0 0 1 5.3 16.7Z" class="cls-24"/><path d="M171.3 64.4c-3.2-11.1-11.3-18.8-19.2-19-5 4.8-6.7 14.7-3.7 24.9 3.2 11.1 11 19 18.4 19.3 5.5-5 7.5-15 4.5-25.2Z" class="cls-3"/><path d="M171.3 64.4c-3.2-11.1-11.3-18.8-19.2-19-5 4.8-6.7 14.7-3.7 24.9 3.2 11.1 11 19 18.4 19.3 5.5-5 7.5-15 4.5-25.2Z" class="cls-13"/><path d="M170.3 89.2c-1.2.3-2.3.4-3.5.4-7.4-.4-15.2-8.2-18.4-19.3-3-10.2-1.3-20 3.7-25 1-.9 2-1.6 3.2-2.2l-7.4 2.9-.9.3h0c-8 3.5-11.6 15.4-8 27.5 3.6 12.7 13.7 20.9 22.5 18.7 0 0 0 0 0 0h0l.4-.1 9-3.4-.6.2ZM171.2 88.8h.2-.2Z" class="cls-5"/><path d="M145.3 83.3s1.7.6 2.7-.9 2-1 2-1 6.7 11 19 8.8l-7 2.2s-10.1.8-16.7-9Z" class="cls-19"/><path d="m180.8 108.8-.3.8a41.5 41.5 0 0 1-2.1 5.8l.6.2.8-1.8.6-1.4c.3-1 .6-2 .6-3.1l-.1-.5Z" class="cls-24"/><path d="m177.5 117.7 2.4 7c-.7-1-.2-7-.2-7l-1-2.2-1.1 2.1M171.4 99s-1.1 2.2-2.5 5.5l.5-5 2-.6ZM171 90.5c-3.5 1.5-7.5 2.9-10 3.6l-.7-1.4 1.2-.2h0l.5-.1 8.8-3.4h-.2.3l.2 1.5Z" class="cls-19"/><path d="m552.5 175.4-2.2-.3 1.3-11.5h2.2l-1.3 11.8zM534.1 188.1l-6.2-4.7.9-1.5 6.3 4.8-1 1.4z" class="cls-12"/><path d="M648.2 190.7s-7.8-8.3-15.2-15.2l2.6-4.3-12.1 1.8-1 .1s-1.6.3-1.6-1.3c0-1.1 1.2-1.3 1.2-1.3l1.2-.4c5.4-1.6 16.2-4.4 16.2-4.4s5.6 12.7 8.7 25ZM625.3 209.8s-13.1 1.8-18.2 1.5a67.5 67.5 0 0 1-13.6-3.4 38.8 38.8 0 0 0 18.4-5.3c2.4 3 6 5.3 6 5.3l-3.8-15.7-.2-1.2s-.2-.9.6-1.3 1.4.4 1.4.4l.5 1 8.9 18.8ZM637.3 192.3c-.8 9.8-5.2 27.7-5.2 27.7-2.3-12.8-6.4-23.3-6.4-23.3h7.2l-13.2-13.2-1-1s-.5-.6 0-1.3 1.3-.2 1.3-.2l1 .6 16.3 10.7Z" class="cls-10"/><path d="m621 181.6 3.2 2.1c.8-4.5.4-8.3-.1-10.7h0-.6c-.3 2-1.5 3.6-3 4 .9 1.2 1 3 .4 4.6ZM613.8 192.3c-4.7 5.2-11.4 7.9-18.3 5.5 0 0 9.7 3.9 19.5-2l-.8-3.6h-.4ZM619.7 183.5a5 5 0 0 1-1.3 1l-.7 1.8c.7 1.6.2 3.6-1.3 4.8l1.3 2.8h.2c1.8-1.6 3.6-4.2 5.1-7l-3.3-3.4ZM518.6 259.1l-1.2 4.9 40.7-11.4 1-4.3-40.5 10.8z" class="cls-19"/><path d="M600.6 192.3c-4.2-.1-8.2.2-11.9.8" class="cls-21"/><path d="M600.6 192.3c-.4-.2-1-.2-1.5-.3H594l-5.2.6.1.8a71.5 71.5 0 0 1 5.9-.6c1.7 0 3.4 0 5.2-.3l.7-.1v-.1Z" class="cls-24"/><path d="M589.6 173.8a40 40 0 0 0-5.2 1.4" class="cls-21"/><path d="m589.6 173.8-.7-.1c-1.3 0-3.3.7-4.6 1.1l.3.8 1.4-.4 1.1-.4c.8-.2 1.5-.3 2.2-.7l.3-.2v-.1Z" class="cls-24"/><path d="m561.3 234.6-1.2 2.3 5.5 9.8 1.3-2.3-5.6-9.8z" class="cls-12"/><path d="m602.2 177.8-3.6-1.6 5.2-16.7 6 2.2-7.6 16.1zM597.1 179.5l3.9 1.8-2 5.2-4.1-1.9 2.2-5.1zM617.4 145.3l-5.9-3.4 4.7 4.3 1.7 4 .9-6.8-1.4 1.9zM620.8 157.6l-3-7.4 3.7 5.3s0 1-.8 2.1ZM419.6 180.7a47.3 47.3 0 0 1-6.5-2.2l-1.8-8a42.3 42.3 0 0 0 6.4 1.3l1.9 9ZM266.8 163.3c-1.4.5-2.8.8-4 1.1l-2.4 8.7a31.2 31.2 0 0 0 6.5-2.3l2.2-8.5-2.3 1Z" class="cls-19"/><path d="M157.1 42.4c.4 0 .8-.2 1.1-.3l1.2-.1h1.2l1.2.1a15.4 15.4 0 0 1 6.1 2.6c.8.5 1.8 1.2 2.6 2l.7.7.6.7c.4.4.8.7 1 1.1l1 1.2a35.3 35.3 0 0 1 6.9 20.8c0 3.8-.6 7.6-2.2 11a13.2 13.2 0 0 1-8 7.4c-1.6.5-3.1.7-4.7.6-3.4-.3-5.7-1.8-7-2.8-.7-.5-1.1-1-1.4-1.3l-.4-.5.5.3c.3.3.7.7 1.4 1.1 1.4 1 3.6 2.4 7 2.6 1.4 0 3-.2 4.2-.7 1.7-.6 3-1.5 4.3-2.6 1.1-1 2-2.4 2.7-3.7.7-1.4 1.3-3 1.6-4.4.7-3.1 1-6.3.7-9.5A36.8 36.8 0 0 0 173 51c-1-1.3-2.7-3.5-4.9-5.2a15.5 15.5 0 0 0-6.2-3c-.6-.2-2.2-.4-3.5-.4-1.3.2-2.2.3-1.3 0Z" style="fill:#fdb81b"/><path d="m631.9 207.2-.3-.3c-.7-.2-1.8 0-2.5 0v.6h1.4c.4 0 .8 0 1.2-.2h.2v-.1ZM638.1 175.5l-.4.2c-.7.5-1.5 1.7-2 2.3l.4.5 1.2-1.4c.3-.4.7-.8.9-1.3v-.3ZM641 179l-.4.2c-.6.4-1.3 1.4-1.8 1.9l.5.5 1-1.1.8-1.1v-.3ZM605.8 208.4l-.1-.4c-.4-.6-1.5-1.4-2-2l-.1.1-.4.5 1.2 1c.3.4.7.7 1.2.9h.2ZM609.9 207.4l-.2-.5c-.3-.7-1.3-1.7-1.8-2.3l-.5.4 1 1.3c.4.4.7.8 1.2 1l.2.1ZM631.9 202.1l-.5-.2c-1-.2-2.7 0-3.8-.1v.7h2.2c.6 0 1.2 0 1.8-.2l.3-.1v-.1ZM616 185l.6.2a3 3 0 0 0 1.8-.3 6 6 0 0 0 1.5-1.1l-.5-.5-.8.6c-.3.3-.7.4-.7.4l-1.6.5h-.2v.1ZM615.7 176h.7c.5-.1 1.3-.2 2 0s1.4.6 1.7 1l.6-.3a4 4 0 0 0-2.4-1.5 3 3 0 0 0-2.4.5l-.2.2ZM610 190.7l.2.5c.3.5 1 1 1.6 1.2.7.3 1.5.3 2 .2v-.6l-1.1-.1c-.5 0-.8-.3-.8-.3-.6-.2-1-.5-1.5-.8l-.3-.1Z" class="cls-24"/><path d="m163 93.2 1.3 3.4 2.1-.6-1-3.9-2.4 1.1z" class="cls-19"/><path d="m166 96.1 1 4.1 1.2-.3-1.2-4.1-1 .3zM174.9 132.2c0-1.4-.6-5.3-1.7-10.2l.7-.1 3.3 12.6-.3-.9s-.3-1.4-2-1.4Z" class="cls-19"/><path d="m180.2 145.7-.7-2.6h0s-.4-6-.8-8.1c-.4-2.2-2.4-2.4-2.4-2.4l-1.4-11.2c-.4.4-1 .6-1.7.6 1.1 5 1.6 8.8 1.7 10.2 1.6 0 2 1.4 2 1.4l.6 1.9v.3l.2.7v.2l.1.5v.7l.1.1v.6s0 0 0 0l.2 3.5c-.7.5-1.6 1-2.6 1.4h0s0 0 0 0l.5 1.9s0 0 0 0c1.4.7 4.2.3 4.2.3ZM198.6 106.9c-.3 1.7-.7 3.9-.9 3.3l-.8-2.7 1.7-.6Z" class="cls-19"/><path d="m468 191.4 2.6-.3" style="fill:#e02dcf"/><path d="m468 191.5.4.1c.6.2 1.6-.1 2.2-.2l-.1-.7-1.3.2c-.3 0-.7 0-1 .4l-.2.1Z" class="cls-24"/><path d="M359 144.8s4 1.4 5.7 6.4l-3.3 1.4s-.7-3.3-4-5.9l1.5-2Z" style="fill:#ffd00e;stroke:#181225;stroke-linecap:round;stroke-linejoin:round;stroke-width:.75px"/></svg>