<svg xmlns="http://www.w3.org/2000/svg" width="450" height="575.5"><defs><linearGradient id="linear-gradient" x1="224.9" x2="224.9" y1="135.1" y2="545.5" gradientUnits="userSpaceOnUse"><stop offset=".1" stop-color="#fdb81b" stop-opacity=".8"/><stop offset=".1" stop-color="#fdb81b" stop-opacity=".8"/><stop offset=".2" stop-color="#fdb81b" stop-opacity=".6"/><stop offset=".3" stop-color="#fdb81b" stop-opacity=".4"/><stop offset=".4" stop-color="#fdb81b" stop-opacity=".3"/><stop offset=".5" stop-color="#fdb81b" stop-opacity=".1"/><stop offset=".6" stop-color="#fdb81b" stop-opacity=".1"/><stop offset=".7" stop-color="#fdb81b" stop-opacity="0"/><stop offset=".8" stop-color="#fdb81b" stop-opacity="0"/></linearGradient><style>.cls-4{fill:none;stroke:#000;stroke-miterlimit:10}.cls-9{fill:#fdb81b}</style></defs><g style="isolation:isolate"><g id="Layer_1" data-name="Layer 1"><path d="m109.4 105 18.3 66.3h194.4l18.5-66.3L225 6l-115.6 99z" style="fill:#a737b4"/><path d="m109.4 105 18.3 66.3h194.4l18.5-66.3H109.4z" style="fill:#7d47d2;mix-blend-mode:multiply;opacity:.75"/><path d="M282.8 133.8c0 .5.2 4.7 0 5.2-2.1 11-27.3 15.8-57.8 15.8-25.8 0-51.3-4.5-57.7-13.8-.3-2.4-.5-7.5 0-8.8 4.6-10.6 25.7-19.4 57.7-19.4s57.8 9.4 57.8 21Z"/><ellipse cx="225" cy="139.2" rx="57.8" ry="21" style="fill:#7553ff"/><ellipse cx="224.9" cy="140.2" class="cls-9" rx="50.5" ry="17"/><ellipse cx="225" cy="140.2" class="cls-4" rx="50.5" ry="17"/><path d="M274.6 137c-4.5 7.8-25 13.7-49.6 13.7-24.7 0-45.3-6-49.7-13.9" class="cls-4"/><path d="M167.1 139.5c.2-14.8 29.9-19.8 41.4-21.2 16.4-1.8 33.2-1 49.3 3 9 2.4 24.8 7.1 25.1 18.3-.1-5.8-5.1-9.7-9.8-12.2-22.4-10.8-56.7-11-80.7-5.4-8.7 2.2-24.8 6.7-25.3 17.5Z"/><ellipse cx="134.5" cy="118.7" rx="10.6" ry="5"/><ellipse cx="134.5" cy="117.6" class="cls-9" rx="7.1" ry="3.3"/><ellipse cx="140.1" cy="138.5" rx="10.6" ry="5"/><ellipse cx="140.1" cy="137.5" class="cls-9" rx="7.1" ry="3.3"/><ellipse cx="144.9" cy="158" rx="10.6" ry="5"/><ellipse cx="144.9" cy="157" class="cls-9" rx="7.1" ry="3.3"/><ellipse cx="313.3" cy="118.7" rx="10.6" ry="5"/><ellipse cx="313.3" cy="117.6" class="cls-9" rx="7.1" ry="3.3"/><ellipse cx="307.7" cy="138.5" rx="10.6" ry="5"/><ellipse cx="307.7" cy="137.5" class="cls-9" rx="7.1" ry="3.3"/><ellipse cx="302.9" cy="158" rx="10.6" ry="5"/><ellipse cx="302.9" cy="157" class="cls-9" rx="7.1" ry="3.3"/><path d="M201 51.7s7.3 4 24.2 4c16.1 0 24.5-4.3 24.5-4.3S238 30.2 225.3 30.2C214 30.2 201 51.7 201 51.7Z"/><path d="M203.7 52.9s4.6 3.2 21.5 3.2c16.1 0 22.2-3.2 22.2-3.2s-10-20.6-22.2-20.6c-10.7 0-21.5 20.6-21.5 20.6Z" class="cls-9"/><path d="M217.2 55.8s1.8.3 8.4.3c6.3 0 8.6-.4 8.6-.4s-3.9-14.5-8.6-14.5c-4.2 0-8.4 14.6-8.4 14.6Z" style="fill:#662296"/><path d="M226.4 44.5s1.6 2.4 1.7 5" style="stroke:#fff;stroke-linecap:round;stroke-linejoin:round;stroke-width:2px;fill:none"/><path d="M198.8 50.8c11.4 7 39.4 7.6 52 .3" style="stroke:#000;stroke-miterlimit:10;fill:none;stroke-linecap:square"/><path d="M109.4 105a6638 6638 0 0 1 231.2 0c-76.8 1.4-154.4 1.4-231.2 0Z"/><path d="M177.7 135.1h94.5L450 545.5H-.2l177.9-410.4z" style="fill:url(#linear-gradient)"/></g></g></svg>