<svg xmlns="http://www.w3.org/2000/svg" id="additional_spots" data-name="additional spots" viewBox="0 0 154.7 108.8"><defs><style>.cls-6,.cls-7,.cls-8,.cls-9{stroke:#181225;stroke-linecap:round;stroke-linejoin:round;stroke-width:.75px}.cls-6{fill:#e02dcf}.cls-10,.cls-7{fill:#181225}.cls-8{fill:#d3d0f5}.cls-9{fill:none}</style></defs><path d="M128.8 89.3c-.7 1.7-2.7 2-2.7 2l-100.3 17a5.6 5.6 0 0 1-6.4-4.1l-19-77c-.1-.9 0-1.8.4-2.7l4.4-8.9c.4-.9 1.3-1.6 2.4-1.7L105.4.5c1.7-.3 3.3.8 3.8 2.5l2.3 8.4 18 67.3 1 3.7c.5 1.6-1 5-1.7 7Z" style="fill:#f6f6f8;stroke:#181225;stroke-linecap:round;stroke-linejoin:round;stroke-width:.75px"/><path d="M98.7 46.6c-.2.2-1-.7-1-.7l2.2-3.6 3.7 2.8.7-2.4 5.3-1 .4 1.3-4.6.8-1 3.8c0-.2-4.2-3-4.2-3l-1.5 2ZM111 38l.3 1.2 3-.5 1.3 5.1-3.3 1 .2 1.1s4.7-1 4.7-1l-1.8-7.7-4.4.8Z" class="cls-7"/><path d="M111.5 11.4 7 26.4l-4.7 8-1.8-7.2c-.2-1 0-2 .3-2.8l4.4-8.8c.5-1 1.4-1.6 2.4-1.8L105.4.4c1.8-.2 3.4.9 3.8 2.5l2.3 8.5Z" style="fill:#7454fc;stroke:#181225;stroke-linecap:round;stroke-linejoin:round;stroke-width:.75px"/><path d="m43.6 45.5-1.7-.7 3.7-7.5 1.8 1-3.8 7.2zM84.9 30.7l2.2-2.8.8.8-2.1 2.7-.9-.7zM57.7 39l1.7-3.2 4.3 5 2.6-4.7 2.4 3.6h.2l2.5-4 5.4-.9-.3-1.4-6.1 1L69 37l-2.8-4.3-3 5.5-4.1-5-2.4 4.2-5.8 1.3.3 1.7 6.4-1.3ZM44 48.5l1.4.7s-1.1 3.1 1.5 5.5L45.6 56s-3.3-3.8-1.6-7.6ZM48.9 52.1l-.4-1.7 5.3-1 .3 1.4-5.3 1.3ZM81.2 31.3l1 5.4-3.2.6.4 1.4 2.4-.3 1.9-1.7-1.5-7-4 .6.2 1.4 2.8-.4Z" class="cls-7"/><path d="m27.2 84.7 2.4 10.2 10.9-2-2.7-10.2-10.6 2z" class="cls-9"/><path d="M34.2 88.3c-1.4-1.3-3-2-3-2l-.4 2.2c3 1.2 3.6 3.8 3.6 3.8l1.4-.4c0-1.2.2-2.4.5-3.6h-2.1Z" class="cls-7"/><path d="M128.8 89.2c-.6 1.7-2.7 2-2.7 2l-100.3 17a5.6 5.6 0 0 1-6.4-4.1L.6 27.1c-.3-.8-.2-1.8.3-2.7l4.3-8.8c-.4 1.5.3 4.3.3 4.3L25 100.6c.5 2 2.4 3.2 4.4 2.9l98-16.6c3.3-.7 3.2-4.6 3.2-4.6.4 1.7-1 5-1.8 7Z" class="cls-8"/><ellipse cx="12.6" cy="18.9" class="cls-7" rx="2.1" ry="2.4" transform="rotate(-71.5 12.6 18.9)"/><ellipse cx="21.2" cy="17.7" class="cls-7" rx="2.1" ry="2.4" transform="rotate(-71.5 21.2 17.7)"/><ellipse cx="29.6" cy="16.4" class="cls-7" rx="2.1" ry="2.4" transform="rotate(-71.5 29.6 16.4)"/><path d="m14.9 31.6 2.3 10.2 11.1-1.4-2.7-10.3-10.7 1.5z" class="cls-9"/><path d="M22.1 39.3s-.7-2.6-3.7-3.9l.4-2.2s1.7.8 3 2c0 0 1.7-5.6 3.4-7.5l1.7 1s-3.5 5.3-3.4 10.1l-1.4.5Z" class="cls-7"/><path d="m18.8 50.6 2.3 10.1 11-1.7-2.6-10.2-10.7 1.8z" class="cls-9"/><path d="M26 58.2s-.7-2.6-3.6-3.8l.3-2.3s1.7.8 3 2c0 0 1.7-5.6 3.4-7.4l1.7 1s-3.5 5.2-3.4 10l-1.4.5Z" class="cls-7"/><path d="m23.1 68.1 2.3 10.2 10.9-1.9-2.7-10.3-10.5 2z" class="cls-9"/><path d="M30.3 75.8s-.7-2.6-3.7-3.9l.4-2.2s1.7.8 3 2c0 0 1.7-5.6 3.4-7.5l1.7 1s-3.5 5.3-3.4 10.1l-1.4.5ZM43.1 34l-4.4-2.2 2.3-5.4 1.4.6-1.8 4 3 1.5-.5 1.5zM46.8 25.5l1.6.5-1.9 7-1.6-.5 1.9-7zM50.2 25.4l.9-1.4 4.2 2.8-2.7 5-1.1-.5 2-3.9-3.3-2zM58.1 29l-.3-1.7 8.8-1.5 1.2-3.7 3.9 4.1 1.3-3 1.4.3-2.1 5.8-3.8-4-.7 2.2-9.7 1.5zM76.7 19.7l1.2.5s-1.2 3.7 1.2 5.5l-1 1.2s-3.3-2.4-1.4-7.2ZM80.2 20.3 81 19s3.2 2.5 1.8 7.2l-1.5-.7s.9-2.8-1.1-5.3ZM106 52.8l1.2 1s-1.2 3.3 1.5 5.5l-1 1.3s-4-3.3-1.8-7.8ZM111.3 51.6l-1 1.4s2.9 1.6 1.6 5.7l1.5 1.3s2.2-4.7-2.2-8.4ZM116.3 53.9l-1-1.9 1.6-.7.7 2.1-1.3.5zM116.5 56.1l2-.7s1 4-1 5.7l-1-.8s.6-2.6 0-4.2ZM115 73.9l4.7-1-.4-2-7.6 1.3 3.2 1.7ZM88 21.2l3.2 2.4 5.9-1.2 1.6-1.5h0l.8-.7-8.2 1.7-3.9-2.9-2.3 5 1.3.6 1.6-3.4Z" class="cls-7"/><path d="m80.4 38.2-30.7 29-6.8 6a7 7 0 0 1-6.3-3.4c-1.4-2.3-1.5-5.2-.9-6.6.8-1.7 6.5-.2 13-4.3 6.7-4.2 9.3-13.3 12.8-16.1 5-4 13-4.7 19-4.6ZM129 101.7c-6-1-10.6-2.5-10.6-2.5l1.3-4.3c6.7 2.1 14.5 3 21 3.3l.8-5.8c-5.6-.2-9-.8-9-.8l1.2-5.2c9.6.9 13.6.2 13.6.2l.5-5c-7.9.2-11.4-.2-13.6-.7-14-2.7-27.5-11.7-27.5-11.7A116.8 116.8 0 0 0 94 47.4L79.1 60.5l-8.6 7.6c-1-.1-1.7-.2-2.2-.1-2.4.2-18.4 7.2-19.6 8.8-1.3 1.6-.2 9.3 3.8 11.2s14.9-1.8 14.9-1.8l11.7.2s1.5 5.1 4 7.8c2.5 2.6 14.3 2.4 14.3 2.4s9.6 6.3 31 9.8l.6-4.7Z" class="cls-6"/><path d="m131 106.8 6 .7.4-4.8c-2-.1-4-.4-5.9-.6l-.5 4.7ZM144.9 92.5l-.6 5.8c5.6.1 9.4-.2 9.4-.2l.6-5.8c-3.5.2-6.6.3-9.4.2Z" class="cls-6"/><path d="m116.3 27.7-.2.2h0l-5.8 5.1h0l-7.8 6.9h0s0 0 0 0l-32 28.2c-1-.1-1.7-.2-2.2-.1-2.4.1-18.4 7.1-19.6 8.8-.3.4-.5 1.2-.5 2.3 0 2 .6 4.8 2 6.9l-.5.4-1.7.4-13 2.6a.6.6 0 0 1-.7-.9L41.5 75l50.2-47.5h0l7-6.6s0 0 0 0l5.8-5.5c2.3-2.2 6-3 10.5 1.8s3.6 8.3 1.3 10.5Z" style="stroke:#181225;stroke-linecap:round;stroke-linejoin:round;stroke-width:.75px;fill:#ff9838"/><path d="m116.3 27.7-.2.2h0l-5.8 5.1h0c-.6.5-4.5 3.2-9.5-2-5.3-5.4-2.3-9.8-2.1-10.1 0 0 0 0 0 0l5.8-5.5c2.3-2.2 6-3 10.5 1.7 4.5 4.9 3.6 8.4 1.3 10.6Z" style="fill:#fc70b9;stroke:#181225;stroke-linecap:round;stroke-linejoin:round;stroke-width:.75px"/><path d="M116.3 27.7c-2.3 2.2-6.8 1.2-10-2.2-3.3-3.4-4-8-1.8-10.1" class="cls-9"/><path d="m110.3 33-7.7 6.9h0-.1c-.5.3-3.8 1.7-8.1-2.6-5-5-3-9.3-2.7-9.7h0l7-6.7c-.2.3-3.1 4.7 2.1 10.1 5 5.2 9 2.5 9.5 2Z" class="cls-8"/><path d="M96.1 23.3S93.8 28 98.6 33c4.7 4.8 8.6 2.9 8.6 2.9" class="cls-9"/><path d="M94.1 25.2s-2.8 4.9 2.3 9.9 9 2.2 9 2.2" class="cls-9"/><path d="m49.8 86.4-8.3 1.7h-.2L35 89.4a.6.6 0 0 1-.7-.9l3-5.6h0l.3-.7h0l3.9-7.3s.5 1.6 0 5.4c0 0 4.5 1 3.2 5.3 0 0 3.6-.4 5 .8Z" style="fill:#fff;stroke:#181225;stroke-linecap:round;stroke-linejoin:round;stroke-width:.75px"/><path d="m62.7 69.8 34.7-30.3M44.7 85.6l3.9-3.4M41.5 80.3l50.7-45.8" class="cls-9"/><path d="M41.3 88 35 89.5a.6.6 0 0 1-.7-.9l3-5.6c-.3.8-.7 2.1 0 3.5.9 2 3.4 1.7 4 1.7Z" class="cls-7"/><path d="M52.5 88s5.3 6.7 7 8c1.7 1.3 7-3 7.3-4a20 20 0 0 0-.6-5.5c-3 1-10.4 3-13.6 1.5Z" class="cls-6"/><path d="M78.8 92.5c0 1.6-3.9 6-5.2 5.6a32 32 0 0 1-4.4-2.7L66 93.1l.9-1.1c.2-.5 0-2.3-.3-4v0l-.1-.6-.2-.6v-.3l1.2-.4 7 .2 2 2.3s0 0 0 0c1.2 1.5 2.3 3.1 2.3 3.9Z" class="cls-6"/><path d="M83.1 94.1c-2.5-2.6-4-7.7-4-7.7l-4.7-.1c1.4 1.5 4.4 5 4.4 6.2 0 .8-1 2.5-2.3 3.7h0s4.2 3.2 5.6 3c.8 0 1.9-2.3 2.6-4.1-.7-.3-1.3-.6-1.6-1Z" class="cls-6"/><path d="m79.1 86.4-4.7-.1c1.4 1.5 4.4 5 4.4 6.2 0 .8-1 2.5-2.3 3.7h0l1.7 1.2 1.8-2.5c.6-.9 1.7 1 4 1.9l.7-1.7c-.7-.3-1.3-.6-1.6-1-2.5-2.6-4-7.7-4-7.7Z" class="cls-7"/><path d="m74.4 86.3 2 2.3c-.8-1-8-.5-8-.5L67 90.4l-.4-2.3v0l-.2-.7v-.6l-.1-.3 1.1-.4 7.1.2ZM66.5 88l-.3-1.5c-2.9 1-10.2 3-13.5 1.6h0l.7 1c.3.3 5 1.3 7 .8 3.7-1 6-1.8 6-1.8ZM49.8 67.1l-7 6.1a7 7 0 0 1-6.2-3.4c1.9.5 4.4 1 6.1.7 1.7-.3 4.8-2 7-3.4ZM50.3 86l-.5.4-1.8.3c-.2-3.6.2-7.7.2-7.7 0 2.1.7 5 2 7ZM97.5 52.5 94 47.4 80.6 59.2h0l-10 8.9c3.5.3 9.3 1.4 9.3 1.4.3-2.6 2.3-9.8 2.3-9.9h0l15.3-7.1Z" class="cls-7"/><path d="m81.7 69.8-1.8-.3M81.7 69.8l-.2-.2-1.6-.4v.6h.1l1.4.2.3-.1Z" class="cls-10"/></svg>