<svg xmlns="http://www.w3.org/2000/svg" id="additional_spots" data-name="additional spots" viewBox="0 0 120.8 94.6"><defs><style>.cls-4,.cls-5,.cls-7{stroke:#181225;stroke-linecap:round;stroke-linejoin:round;stroke-width:.75px}.cls-4{fill:#e02dcf}.cls-5,.cls-8{fill:#181225}.cls-7{fill:none}</style></defs><path d="M46.5 25 16 53.8l-7 6a7 7 0 0 1-6.2-3.4c-1.4-2.3-1.5-5.2-.8-6.6.7-1.6 6.4-.1 13-4.3 6.6-4.1 9.2-13.2 12.7-16 5-4 13-4.8 19-4.7ZM95.2 88.4C89 87.4 84.5 86 84.5 86l1.3-4.4c6.8 2.2 14.6 3 21 3.4l.8-5.8c-5.5-.3-9-.8-9-.8l1.2-5.3c9.6 1 13.6.3 13.6.3l.5-5c-7.9.1-11.3-.3-13.6-.7C86.3 64.9 72.9 56 72.9 56A116.8 116.8 0 0 0 60 34L45.3 47.2l-8.6 7.6h-2.3c-2.3 0-18.3 7-19.6 8.7-1.3 1.6-.2 9.4 3.9 11.2S33.5 73 33.5 73l11.7.3s1.5 5 4 7.7c2.5 2.6 14.3 2.4 14.3 2.4s9.7 6.3 31 9.8l.6-4.7Z" class="cls-4"/><path d="m97.1 93.5 6 .7.4-4.8c-2 0-4-.3-5.9-.6l-.5 4.7ZM111 79.3l-.5 5.8c5.5 0 9.4-.2 9.4-.2l.5-5.8c-3.4.2-6.6.2-9.4.2Z" class="cls-4"/><path d="m82.4 14.5-.2.1h0l-5.8 5.1h0l-7.7 6.9h0-.1l-32 28.2-2.2-.1c-2.3.2-18.3 7.2-19.6 8.8-.3.4-.5 1.3-.5 2.3 0 2 .7 4.9 2 6.9l-.4.4-1.8.4-13 2.6a.6.6 0 0 1-.7-.8l7.2-13.6 50.2-47.4h0l7-6.7s0 0 0 0l5.8-5.5C73 0 76.6-.9 81.1 4s3.6 8.4 1.3 10.6Z" style="stroke:#181225;stroke-linecap:round;stroke-linejoin:round;stroke-width:.75px;fill:#ff9838"/><path d="m82.4 14.5-.2.1h0l-5.8 5.1h0c-.6.5-4.4 3.3-9.5-2-5.2-5.4-2.3-9.8-2-10 0 0 0 0 0 0L70.5 2C73 0 76.6-.9 81.1 4s3.6 8.4 1.3 10.6Z" style="fill:#fc70b9;stroke:#181225;stroke-linecap:round;stroke-linejoin:round;stroke-width:.75px"/><path d="M82.4 14.5c-2.3 2.2-6.8 1.2-10-2.2-3.3-3.4-4-8-1.7-10.2" class="cls-7"/><path d="m76.4 19.8-7.7 6.8h0s0 0 0 0c-.6.3-3.8 1.7-8.2-2.5-5-5-3-9.4-2.7-9.8h0l7-6.7c-.2.3-3.1 4.7 2.1 10.1 5 5.3 9 2.5 9.5 2.1Z" style="fill:#d3d0f5;stroke:#181225;stroke-linecap:round;stroke-linejoin:round;stroke-width:.75px"/><path d="M62.2 10s-2.3 4.8 2.5 9.6c4.7 4.8 8.6 3 8.6 3" class="cls-7"/><path d="M60.3 12s-3 4.8 2.2 9.8 9 2.2 9 2.2" class="cls-7"/><path d="m15.9 73.1-8.3 1.7h-.2l-6.3 1.3a.6.6 0 0 1-.7-.8l3-5.7h0l.3-.7h0l3.9-7.2s.5 1.5 0 5.3c0 0 4.5 1 3.2 5.3 0 0 3.6-.4 5 .8Z" style="fill:#fff;stroke:#181225;stroke-linecap:round;stroke-linejoin:round;stroke-width:.75px"/><path d="m28.8 56.6 34.7-30.3M10.8 72.3l4-3.4M7.6 67l50.7-45.8" class="cls-7"/><path d="M7.5 74.8 1 76.1a.6.6 0 0 1-.6-.8l2.9-5.7c-.3.8-.6 2.1 0 3.5.9 2 3.5 1.8 4 1.7Z" class="cls-5"/><path d="M18.7 74.7s5.2 6.8 6.9 8c1.7 1.3 7-3 7.3-4a20 20 0 0 0-.6-5.4c-3 .9-10.4 3-13.6 1.4Z" class="cls-4"/><path d="M44.9 79.2c0 1.6-3.9 6-5.2 5.6a32 32 0 0 1-4.4-2.7L32 79.8l1-1c.1-.6-.1-2.3-.4-4v0l-.1-.6-.2-.6v-.3l1.2-.4 7 .1 2 2.3s0 0 0 0c1.2 1.5 2.4 3.2 2.4 4Z" class="cls-4"/><path d="M49.2 80.8c-2.5-2.6-4-7.7-4-7.7h-4.7C42 74.4 45 78 45 79.1c0 .9-1 2.5-2.3 3.7h0s4.3 3.2 5.6 3c.8 0 1.9-2.3 2.6-4l-1.6-1Z" class="cls-4"/><path d="M45.2 73.1h-4.7C42 74.4 45 78 45 79.1c0 .9-1 2.5-2.3 3.7h0l1.7 1.2 1.9-2.5c.5-.8 1.6 1 3.9 2l.7-1.8c-.7-.3-1.2-.6-1.6-1-2.5-2.6-4-7.7-4-7.7Z" class="cls-5"/><path d="m40.5 73 2 2.3c-.8-1-8-.5-8-.5L33 77l-.4-2.3v0l-.1-.6-.2-.6v-.3l1.2-.4 7 .1Z" class="cls-5"/><path d="m32.6 74.8-.3-1.5c-2.9.8-10.1 2.9-13.4 1.5h-.1c.1.3.4.6.8 1 .2.4 4.9 1.4 6.9.8 3.8-1 6-1.8 6-1.8ZM15.9 53.9l-7 6a7 7 0 0 1-6.2-3.4c1.9.5 4.4 1.1 6.2.8 1.6-.4 4.8-2 7-3.5ZM16.4 72.7l-.5.4-1.8.4c-.2-3.6.2-7.7.2-7.7 0 2 .7 4.9 2 6.9ZM63.6 39.2 60.1 34 46.8 45.9h0l-10 8.9c3.5.4 9.3 1.4 9.3 1.4.4-2.6 2.3-9.7 2.3-9.9h0l15.3-7.1Z" class="cls-5"/><path d="m47.8 56.6-1.8-.4M47.8 56.5l-.2-.1-1.5-.5-.2.6h.3l1.3.2h.3v-.1Z" class="cls-8"/></svg>