<svg xmlns="http://www.w3.org/2000/svg" id="additional_spots" data-name="additional spots" viewBox="0 0 116.6 58.2"><defs><style>.cls-2{fill:none}.cls-4{fill:#e02dcf}.cls-2,.cls-4,.cls-5{stroke:#181225;stroke-linecap:round;stroke-linejoin:round;stroke-width:.75px}.cls-5,.cls-6{fill:#181225}</style></defs><path d="M89 23.9c-.3.8-2 2.6-1.1 3.6 1.4 1.4 4-1.7 5.4-1s1.3 3.7 3.5 3.6S99 27.2 101 27c2-.3 4.4 5.7 6 5s-.4-6.6.4-7.8 2.2-.6 3-1.5c1.4-1.5 0-3 .8-4.6.6-1.2 3-1.7 2.7-4.4-.2-2.4-2.4-2-2.8-3.7s6.3-7 5.4-8.6c-1-1.9-8.4 5.5-10.4 4-1.1-.7-.3-4.5-2.4-5.2s-3.6 3.5-5.1 4c-1.9.5-2.4-2.7-4.4-2-1.7.6-.8 3.8-1.8 4.9S86 2.3 84.8 4.3c-.9 1.3 1.5 4.9 3 6.7" style="fill:#fccd0e"/><path d="M89 23.9c-.3.8-2 2.6-1.1 3.6 1.4 1.4 4-1.7 5.4-1s1.3 3.7 3.5 3.6S99 27.2 101 27c2-.3 4.4 5.7 6 5s-.4-6.6.4-7.8 2.2-.6 3-1.5c1.4-1.5 0-3 .8-4.6.6-1.2 3-1.7 2.7-4.4-.2-2.4-2.4-2-2.8-3.7s6.3-7 5.4-8.6c-1-1.9-8.4 5.5-10.4 4-1.1-.7-.3-4.5-2.4-5.2s-3.6 3.5-5.1 4c-1.9.5-2.4-2.7-4.4-2-1.7.6-.8 3.8-1.8 4.9S86 2.3 84.8 4.3c-.9 1.3 1.5 4.9 3 6.7" style="fill:none"/><path d="m89 24-1 2c-.2.3-.3.6-.2.9 0 .3.2.5.4.6.4.3 1 .2 1.4 0l1.5-.7c.5-.2 1-.6 1.7-.6l.6.1.5.4c.3.2.5.6.7 1 .3.6.6 1.4 1.3 1.9.3.2.7.3 1.2.1.4 0 .8-.4 1.2-.8l1.1-1.5c.5-.5 1.1-.9 2-.8.8.2 1.3.7 1.7 1.2.5.5 1 1 1.3 1.6l1.3 1.6c.3.2.5.5.8.6.2 0 .4 0 .5-.2.3-.5.2-1.2.2-2l-.2-2.1c0-.8-.2-1.6-.1-2.4v-.6c0-.2.2-.5.4-.6.3-.4.7-.6 1.1-.7.9-.2 1.6-.2 2-.8.3-.5.3-1.2.2-2 0-.8-.1-1.8.4-2.6.6-.7 1.3-1 1.8-1.6.5-.6.8-1.2.8-2 0-.7-.1-1.4-.7-1.9-.5-.4-1.4-.7-2-1.6l-.2-.6.1-.8.7-1.1c1-1.4 2-2.5 3-3.7l1.5-1.9c.1-.3.3-.6.2-.8 0-.2-.2-.3-.5-.2-.7.1-1.3.5-2 .9l-2 1.2c-1.2.8-2.4 1.7-3.9 2.2l-1.2.2c-.4 0-.9-.3-1-.7-.5-.8-.5-1.5-.6-2.2a6 6 0 0 0-.5-1.8c-.3-.5-.8-.9-1.3-.8-.5 0-1 .4-1.4.8l-1.1 1.4c-.4.4-.8 1-1.4 1.4-.3.3-.8.5-1.4.4-.5 0-.9-.4-1.2-.7-.7-.6-1.3-1.5-2-1.4-1 0-1.2 1-1.3 2l-.2 1.5-.2.8-.3.4-.1.2-.3.1h-1l-.6-.4-1.2-.7c-1.5-1-2.8-2-3.7-2-.5-.2-.8.1-.9.5v1l.7 1.6 2.2 3.6c-1.5-1.8-2-2.6-2.6-3.5l-.7-1.6c0-.3-.2-.7 0-1.3 0-.2.1-.5.4-.7.3-.2.6-.3 1-.2 1.8.3 3.4 2 5.5 3 .2 0 .5.2.7.1l.3-.4.3-1.8c0-.7.1-1.4.5-2 .4-.8 1.4-1 2.1-.8.8.3 1.2 1 1.6 1.4.5.4 1 .8 1.4.7.5 0 1-.6 1.3-1l1.2-1.5c.4-.4.8-.9 1.3-1.2a2 2 0 0 1 1.9-.3c.6.3 1 .8 1.2 1.3l.4 1.4c0 .6.2 1.2.3 1.7 0 .3.2.6.3.7.1.2.3.3.6.3.5 0 1-.2 1.6-.5a20 20 0 0 0 1.7-1l3.4-2c.6-.4 1.2-.8 2-1h.6c.2 0 .5.1.6.4.2.2.2.5.2.7 0 .2 0 .4-.2.6-.6 1.4-1.6 2.3-2.6 3.4-.9 1-2 2.1-2.5 3.3l-.2.4v.4l.6.7c.4.4 1.2.7 1.7 1.4.6.7.7 1.5.6 2.3 0 .8-.5 1.6-1 2.2-.6.5-1.2.9-1.6 1.4-.4.4-.5 1.1-.4 1.8 0 .7.2 1.5-.1 2.3l-.7 1c-.4.3-.8.4-1.2.5-.7 0-1.3.2-1.6.7a2 2 0 0 0-.2.9v1c.2 1.4.4 2.8.4 4.2 0 .4 0 .8-.2 1.2l-.4.5a1 1 0 0 1-.7.2c-.5 0-.8-.3-1.1-.5l-.7-.8c-.9-1-1.6-2.2-2.5-3-.5-.5-1-.9-1.4-.7-.6.1-1 .6-1.4 1l-1.2 1.5c-.4.5-1.2.7-1.8.7-.8 0-1.3-.5-1.6-1l-.6-1c-.3-.7-.6-1.2-1-1.5-.3-.3-.9-.2-1.5 0l-1.1.6-1.6.5c-.7.1-1.3-.3-1.5-.7-.2-.5-.1-.9 0-1.2.3-.7.8-1.2 1.3-2.1l.1-.1v.1Z" class="cls-6"/><path d="M104.5 10.5 67.9 12c-3.7-2.4-11-5.5-13.6-6.6-.7-.3-1.4-.3-2.1-.1-2.6.7-9 3.3-18.4 11.9 0 0-8.7-.7-18.3 1.9l1.2 4.3c2.1-.6 4.6-1.2 7.3-1.3l.7 4.3S14.9 27.8 8.5 33c-1.2 1-2.3 2-3.3 3.2l3.3 3.2c1.8-1.8 4-3.6 6.4-4.5l2.4 5.6s3.4-2 6.7-2.6l1.3 4.6s-6 1.2-10.7 6l2.2 4.3c.7-.9 1.5-1.7 2.5-2.4a24.7 24.7 0 0 1 13.6-4.4s2.5 3.4 8.4 4.2c4.1.5 10.6.5 14.3.4l2-.1c0 1.4.4 2.6 1.2 3.3 1.2 1.2 7.3 4.5 9.4 4.1 2-.4 8.6-3 9.4-4.9.7-1.8 4.7-18.3 4.6-28.7 2.5 0 5-.2 6.6-.3 5.3-.3 13.5-1.7 15-3.6 1.4-2 3.3-9.6.7-9.8Z" class="cls-4"/><path d="m14.2 24.1-1.5-4.3c-2 .7-4.1 1.5-6 2.5l1.9 4.4s2.1-1.3 5.6-2.6ZM3.3 38.5c-2 2.7-3 5-3 5l3.8 1.9s1-1.8 2.7-4l-3.5-2.9Z" class="cls-4"/><path d="M60 44.8c2.4 1.8 5.5 3.6 7.1 4 2.9.7 8.9-2 12.4-3.8M62.9 36.2c1.7 1.4 4.5 3.4 6.2 3.6 2 .4 8.3-1.9 12-3.6" class="cls-2"/><path d="M57.1 36.9c2 .7 3.8.9 4.7.5 1-.5 4.3-6 6.3-12.5s3-9.9 1.6-11.4c-.4-.5-1-1-1.8-1.6M73.4 24.5l8.8-.3" class="cls-2"/><path d="m70.7 24.6-2.3-1c0 .5-.2.9-.4 1.3l-.2.7h0l4 1.8 1.6-2.8h-2.7ZM60 44.8c-1 .7-2 1.9-2.3 3.4a9 9 0 0 0-.2 2.2h-2c0-3 2-5.2 2-5.2s-1.7-1-2.4-2.7c-.9-2.3.1-4.6.1-4.6-4.8-2.4-2.5-8.4-2.5-8.4h0c-.2 2-.1 3.8.5 4.6 1 1.3 2.4 2.2 4 2.8-.7 1.4-1.4 3.4-.8 4.5.5.8 1.9 2 3.6 3.4Z" class="cls-5"/><path d="M55.4 17.8a53.6 53.6 0 0 0-3.1 13.7c0 .7 0 1.4.3 2.2.4.8 1 1.3 1.5 1.8.6.5 1.2 1 1.9 1.3l.7.3-.3.7c-.3.7-.5 1.4-.5 2.2v1.2l.7 1a13.5 13.5 0 0 0 2.4 2.3l.4.3-.5.5-.7.9c-.4.6-.7 1.3-.9 2 0 .7-.2 1.4-.1 2.1h.6c0-1 .2-2.1.6-3a5.7 5.7 0 0 1 1.6-2l.3-.3.1-.2s.2 0 .1-.1l-.7-.5c-.9-.7-1.8-1.5-2.6-2.4a2 2 0 0 1-.6-1.4c0-.5 0-1.1.2-1.7l.3-.8.2-.5.3-.7-.4-.2-.3-.1-.4-.2-.8-.4-1.4-1a4 4 0 0 1-1-1.3c-.4-1-.4-2.2-.3-3.3l.4-3.3 1.3-5.7.5-2.3.3-1.1h-.1Z" class="cls-6"/></svg>