<svg xmlns="http://www.w3.org/2000/svg" id="additional_spots" data-name="additional spots" viewBox="0 0 127.6 164.1"><defs><style>.cls-1{fill:#f6f6f8}.cls-1,.cls-2,.cls-3,.cls-4,.cls-5,.cls-6,.cls-7{stroke-linecap:round;stroke-linejoin:round;stroke-width:.75px}.cls-1,.cls-2,.cls-4,.cls-5,.cls-6,.cls-7{stroke:#000}.cls-2{fill:#7553ff}.cls-3{fill:#9e86ff;stroke:#181225}.cls-4{fill:#fdb81b}.cls-6{fill:none}.cls-7{fill:#ff70bc}</style></defs><path d="M50.3 120.3h0l-6 2s-2.3.5-2.3 3.6l-.2 15s-.3 2.6 1.6 2l28.3-10.6h0l-21.4-12Z" class="cls-2"/><path d="M78.5 138.2c-1 .4-2-.3-2-1.3v-2l-4.8-2.6h0l-28.3 10.5s-2 .8-2 3.6v15s0 3.1 2.7 1.9l49.7-21a2 2 0 0 0 1.1-1.7l.6-10-17 7.6Z" class="cls-2"/><path d="M43.4 142.9c-.2 0-1.1.5-1.6 1.7h0c-.2.5-.3 1-.3 1.8l-.1 15s0 1.2.7 1.8L2.3 137c-1.6-1-1.7-2.6-1.7-2.6v-16.5c.2-.5.5-1.1 1.4-1.1-1-.5-1.5-1.5-1.5-2.5V100s-.2-2.6 1.9-2.7L41.8 122a3 3 0 0 0 2.3.4c-.6.2-2 1-2 3.6l-.3 15s-.1 1 .3 1.6h0c.2.3.6.5 1.3.3Z" class="cls-3"/><path d="M67 71.2A85 85 0 0 1 64 91.3a27 27 0 0 1-4.4 8c-5.5 6.9-12.6 8.5-12.6 8.5l-2.4-1.2v10.6l5.6 3.1-6 2a3 3 0 0 1-2.5-.3L2.4 97.4c-1.1-.7-1.8-2-1.8-3.3V80.5c0-1.4.9-2.6 2.2-3l47.4-13.7c.7-.2 1.4-.1 2 .2L67 71.2Z" class="cls-3"/><path d="m61.3 86.6-13.2-6c.5-.4.8-.9.8-1.4 0-1.5-2.6-2.7-5.7-2.7s-5.7 1.2-5.7 2.7S40 82 43.2 82c1 0 1.8-.1 2.5-.3l9.7 7.1 5.8-2.2Z" class="cls-5"/><path d="M70.4 52.7C66.7 43.1 57.5 19.1 47.2 2a2.9 2.9 0 0 0-4.7-.3A314 314 0 0 0 19 36c-1.1 1.7-.5 4 1.3 5.1a135 135 0 0 0 47 15.5c2 .4 3.9-1.7 3-3.8ZM43.7 8.4s3.8 5.8 9.9 19.3c-2.5-3-5.9-5.8-10-6.5-4.5-.9-8.7 1-11.7 3 3.4-5 7.5-10.7 11.8-15.8Zm1 17.3c6 2 9.4 10.6 9.4 10.6s-4.4 3.9-10.4 3.6a10 10 0 0 0 2.6-6.9c0-2.6-.9-6.2-1.6-7.3Zm-4-.7a11 11 0 0 0-2.4 7.1c0 2.6 1 5.3 2 6.8-5.8-2.4-8.7-10-8.7-10s3-3.7 9-3.9Zm-12.5 4.8c1.4 3 3.4 8.4 11 13a86.4 86.4 0 0 1-14.8-7l3.8-6Zm15.9 14.6c5.8.2 11.6-4.2 13.9-6.2L62.2 49s-8.4-1.5-18-4.6Z" class="cls-4"/><path d="M76.5 137v-14.8c0-1.3.7-2.4 1.9-3l47-17.6c.9-.3 1.8.3 1.7 1.2l-.6 14.4c0 1.2-.8 2.2-1.9 2.7l-46.1 18.3c-1 .4-2-.3-2-1.3Z" class="cls-2"/><path d="m76.5 122.8-31.8-16.2v10.6L76.5 135v-12.2z" class="cls-3"/><path d="M119.2 73.5c-.4 4.4-1 17.8-12 28a37 37 0 0 1-5.3 4.1L69.2 119s0 0 0 0l-7-3.5H62s14.5-6.6 17-28.9l40.2-13.1Z" class="cls-1"/><path d="M62 115.4s14.4-6.5 17-28.8l35.8-11.7a86.3 86.3 0 0 0 1.8-13.8L74.3 74.6s-.9 16-5.2 23.9c-6 11-14 13.3-14 13.3l7 3.6Z" class="cls-1"/><path d="M55 111.8s8.1-2.3 14.1-13.3c4.3-8 5.2-23.8 5.2-23.8l36-11.6c1-7 1.8-15.2 1.8-15.2L67.2 61.4s0 21-3 29.9c-5 13.6-17 16.5-17 16.5l11 5.6-3.2-1.6Z" class="cls-1"/><path d="M43.4 142.9c-.2 0-1.1.5-1.6 1.7h0L.7 117.8c.1-.5.4-1.1 1.3-1.1l40 25.9h.1c.2.3.6.5 1.3.3Z" class="cls-5"/><ellipse cx="49.8" cy="150.8" class="cls-7" rx="2.5" ry="2" transform="rotate(-57.3 49.8 150.8)"/><ellipse cx="50.5" cy="130.9" class="cls-7" rx="2.5" ry="2" transform="rotate(-57.3 50.4 131)"/><ellipse cx="83.6" cy="126.1" class="cls-7" rx="2.5" ry="1.9" transform="rotate(-56 83.6 126)"/><path d="m91 123.9 29.1-10.8M57.2 147.6l15.2-6.3" class="cls-6"/><path d="M44.7 117.2v-10.6l2.4 1.2s9.4-2.2 15-12l-18.2 6.4c-1.2.4-2 1.6-2 3v13s-.4 5.1 2.4 4.1l6-2h0l-5.6-3.1Z" class="cls-2"/><path d="m57.2 102-12.5 4.6 2.4 1.2s5.2-1.2 10.1-5.8ZM41.8 122 2.4 97.4c-1 0-1.4.6-1.6 1.1l41.5 25.7h0a3 3 0 0 1 2-1.9 3 3 0 0 1-2.5-.3Z" class="cls-5"/><path d="M47 55.2v23.9s-.3 1.1-2.1 1.6l-1.4.2H43h0a5.9 5.9 0 0 1-2.1-.3c-1.4-.6-1.6-1.5-1.6-1.5V55l1.6.5h.2l1.9.2h.4a15 15 0 0 0 3.4-.5Z" class="cls-4"/><path d="M49.8 52.9c-.3.8-1 1.7-2.6 2.2-1 .4-2.1.6-3.7.6h-.7l-1-.1a7.5 7.5 0 0 1-3.3-1c-2-1.4-2-3.5-2-3.5v-2.5h0l2 .7c1 .4 2 .8 3.2 1.1l1 .4 4.5 1.3.2.1 2.4.7Z" class="cls-4"/><path d="M47.5 52.2a13.3 13.3 0 0 1-5.8.5 7.5 7.5 0 0 1-3.2-1 4.1 4.1 0 0 1-2-3l2 .6a147 147 0 0 0 9 2.9ZM47 55.2v1.6a11.8 11.8 0 0 1-5.3.3c-1 0-1.7-.3-2.3-.6V55l1.6.5 2.3.2h.2c1.4 0 2.5-.2 3.4-.5ZM75.2 61.6l1 1s-3.4 3-.8 6.7l-1 1s-1.4-1.4-1.3-4 2.1-4.6 2.1-4.6ZM78 66.3l.1-1.7L91 60.7l-.2 1.8L78 66.3zM94.9 56l-1.3 1.3s2.2 3-1 7l1.4.6s1.9-2 2.1-5c.3-2.7-1.2-4-1.2-4ZM101 62.2l-.9-1.6 6.9-6.8.6 1.6-6.6 6.8zM79.1 81.2l.2-2.2 16-5.2.1 2.1-16.3 5.3zM99.8 75.1l1.3.6L106 70l3.3 3.8 1.3-1.2-4.6-5.2-6.2 7.7zM83.3 96.5l-1.2-.9 5.8-7.1 3.9 4 4-5.8 1.2 1.2-5.2 7.3-3.9-4-4.6 5.3zM100.7 90.1l.3-2.1 12.2-4.5-.4 2.3-12.1 4.3zM76.8 108.6l.8-2.2 12.7-5-.6 2.3-12.8 5.2M99.8 94.4l.5 1.3s-4 3.2-3.3 6.5l-1.2 1.3s-1.2-1 .2-4.5c1-2.7 3.8-4.6 3.8-4.6ZM108.5 91.5l-1.5 1.6s.6 2.6-3.9 7l.9.7s2.3-1.8 3.9-5c1.4-2.7.6-4.3.6-4.3ZM78.5 138.2c-1 .4-2-.3-2-1.3v-2l-4.8-2.6h0l-21.4-12h0l-5.6-3.1L73 150.8l1.6-.4 19.3-8.2a2 2 0 0 0 1.1-1.6l.5-9.1-17 6.7ZM76.5 122.2c0-1.3.7-2.4 1.9-3l43.2-16.1-12-4.1a36.6 36.6 0 0 1-7.7 6.6L69 119.1l7.4 3.7v-.6ZM22.3 39.8c-1.7-1-2.6-2-1.5-3.8l11.5-16.6-10.4 17c-.5.8-.2 1.9.6 2.3 4.1 2.3 16 10.6 42.2 13.7.5 0 .9.4 1.1.8.4.6.8 1 1.4 1 0 0-28.7-4.9-44.9-14.4ZM45.3 5.3S57 21.2 66.3 48c0 0-8.3-24-20.3-44.7 0 0 .3.9-.7 2Z" class="cls-5"/><path d="M44.9 55.6v25c-.4.2-.9.2-1.4.3V55.7h1.4Z" class="cls-5"/><path d="M47.2 52.1v3c-1 .4-2.1.6-3.7.6h-.7v-5l4.4 1.4ZM43.6 27.7s2.1 8.3-1.3 10.6c0 0-.6-.4-1.2-1.7 0 0 .6.6 1.3.2 1.3-.7 1.8-3.3 1.2-9.1ZM40.1 41.4s6.5 2.9 14.8-3.2c0 0-6.6 6.8-14.8 3.2ZM31 27.3s4-4.3 10.3-3.9c0 0-5.6-.8-10.3 3.9ZM79 86.6 114.8 75l.3-1.1-37.7 12c-1.6 9.1-3.8 16.7-9.4 21.5-5.6 4.9-13 4.5-13 4.5l7 3.6s14.5-6.5 17-28.8ZM107.1 101.5a37 37 0 0 1-5.2 4.1L69.2 119s0 0 0 0l-7-3.5a13 13 0 0 0 9.5 0l35.4-14Z" class="cls-5"/><path d="M73.1 73.7C71 101 62.8 105.2 56.7 107.8c-4.5 2-8.9.3-9.5 0l11 5.6-3.2-1.6s8.2-2.3 14.2-13.3c4.3-8 5.1-23.9 5.1-23.9l36.1-11.5.2-1.5L73 73.7Z" class="cls-5"/></svg>