<svg xmlns="http://www.w3.org/2000/svg" width="450" height="576" fill="none"><g clip-path="url(#a)"><path fill="#DA00C9" d="m109.4 105 18.3 66.3h194.4l18.5-66.3L225 6l-115.6 99Z"/><path fill="#7D47D2" d="m109.4 105 18.3 66.3h194.4l18.5-66.3H109.4Z" opacity=".8" style="mix-blend-mode:multiply"/><path fill="#000" d="M282.8 133.8c0 .5.2 4.7 0 5.2-2.1 11-27.3 15.8-57.8 15.8-25.8 0-51.3-4.5-57.7-13.8-.3-2.4-.5-7.5 0-8.8 4.6-10.6 25.7-19.4 57.7-19.4s57.8 9.4 57.8 21Z"/><path fill="#7553FF" d="M225 160.2c32 0 57.8-9.5 57.8-21 0-11.6-25.9-21-57.8-21-32 0-57.8 9.4-57.8 21 0 11.5 25.8 21 57.8 21Z"/><path fill="#FDB81B" d="M224.9 157.2c27.9 0 50.5-7.6 50.5-17s-22.6-17-50.5-17c-28 0-50.6 7.6-50.6 17s22.7 17 50.6 17Z"/><path stroke="#000" stroke-miterlimit="10" d="M225 157.2c27.9 0 50.5-7.6 50.5-17s-22.6-17-50.5-17c-28 0-50.5 7.6-50.5 17s22.6 17 50.5 17Z"/><path stroke="#000" stroke-miterlimit="10" d="M274.6 137c-4.5 7.8-25 13.7-49.6 13.7-24.7 0-45.3-6-49.7-13.9"/><path fill="#000" d="M167.1 139.5c.2-14.8 29.9-19.8 41.4-21.2 16.4-1.8 33.3-1 49.3 3 9 2.4 24.8 7.1 25 18.3 0-5.8-5-9.7-9.7-12.2-22.4-10.8-56.7-11-80.7-5.4-8.7 2.2-24.8 6.7-25.3 17.5ZM134.5 123.7c5.9 0 10.7-2.3 10.7-5 0-2.8-4.8-5-10.7-5-5.9 0-10.6 2.2-10.6 5 0 2.7 4.7 5 10.6 5Z"/><path fill="#FDB81B" d="M134.5 121c4 0 7-1.5 7-3.4 0-1.8-3-3.3-7-3.3-3.9 0-7 1.5-7 3.3 0 1.9 3.1 3.4 7 3.4Z"/><path fill="#000" d="M140.1 143.5c6 0 10.7-2.2 10.7-5 0-2.7-4.8-5-10.7-5-5.9 0-10.6 2.3-10.6 5 0 2.8 4.7 5 10.6 5Z"/><path fill="#FDB81B" d="M140.1 140.8c4 0 7-1.5 7-3.3 0-1.8-3-3.3-7-3.3-3.9 0-7 1.5-7 3.3 0 1.8 3.1 3.3 7 3.3Z"/><path fill="#000" d="M145 163c5.8 0 10.6-2.2 10.6-5 0-2.7-4.8-5-10.7-5-5.8 0-10.6 2.3-10.6 5 0 2.8 4.8 5 10.6 5Z"/><path fill="#FDB81B" d="M145 160.3c3.8 0 7-1.4 7-3.3 0-1.8-3.2-3.3-7-3.3-4 0-7.1 1.5-7.1 3.3 0 1.9 3.1 3.3 7 3.3Z"/><path fill="#000" d="M313.3 123.7c6 0 10.7-2.3 10.7-5 0-2.8-4.8-5-10.7-5-5.8 0-10.6 2.2-10.6 5 0 2.7 4.8 5 10.6 5Z"/><path fill="#FDB81B" d="M313.3 121c4 0 7.1-1.5 7.1-3.4 0-1.8-3.2-3.3-7-3.3-4 0-7.1 1.5-7.1 3.3 0 1.9 3.1 3.4 7 3.4Z"/><path fill="#000" d="M307.7 143.5c6 0 10.7-2.2 10.7-5 0-2.7-4.8-5-10.7-5-5.9 0-10.6 2.3-10.6 5 0 2.8 4.7 5 10.6 5Z"/><path fill="#FDB81B" d="M307.7 140.8c4 0 7-1.5 7-3.3 0-1.8-3-3.3-7-3.3-3.9 0-7 1.5-7 3.3 0 1.8 3.1 3.3 7 3.3Z"/><path fill="#000" d="M303 163c5.8 0 10.6-2.2 10.6-5 0-2.7-4.8-5-10.7-5-5.9 0-10.6 2.3-10.6 5 0 2.8 4.7 5 10.6 5Z"/><path fill="#FDB81B" d="M303 160.3c3.8 0 7-1.4 7-3.3 0-1.8-3.2-3.3-7-3.3-4 0-7.2 1.5-7.2 3.3 0 1.9 3.2 3.3 7.1 3.3Z"/><path fill="#000" d="M201 51.7s7.3 4 24.2 4c16.1 0 24.5-4.3 24.5-4.3S238 30.2 225.3 30.2C214 30.2 201 51.7 201 51.7Z"/><path fill="#FDB81B" d="M203.7 52.9s4.6 3.2 21.5 3.2c16.1 0 22.2-3.2 22.2-3.2s-10-20.6-22.2-20.6c-10.7 0-21.5 20.6-21.5 20.6Z"/><path fill="#662296" d="M217.2 55.8s1.8.3 8.4.3c6.3 0 8.6-.4 8.6-.4s-3.9-14.5-8.6-14.5c-4.2 0-8.4 14.6-8.4 14.6Z"/><path stroke="#fff" stroke-linecap="round" stroke-linejoin="round" stroke-width="2" d="M226.4 44.5s1.6 2.4 1.7 5"/><path stroke="#000" stroke-linecap="square" stroke-miterlimit="10" d="M198.8 50.8c11.4 7 39.4 7.6 52 .3"/><path fill="#000" d="M109.4 105c76.8-1.3 154.4-1.3 231.2 0-76.8 1.4-154.4 1.4-231.2 0Z"/><path fill="url(#b)" d="M177.7 135.1h94.5L450 545.5H-.2l177.9-410.4Z"/></g><defs><linearGradient id="b" x1="224.9" x2="224.9" y1="135.1" y2="545.5" gradientUnits="userSpaceOnUse"><stop offset=".1" stop-color="#FDB81B" stop-opacity=".8"/><stop offset=".1" stop-color="#FDB81B" stop-opacity=".8"/><stop offset=".2" stop-color="#FDB81B" stop-opacity=".6"/><stop offset=".3" stop-color="#FDB81B" stop-opacity=".4"/><stop offset=".4" stop-color="#FDB81B" stop-opacity=".3"/><stop offset=".5" stop-color="#FDB81B" stop-opacity=".1"/><stop offset=".6" stop-color="#FDB81B" stop-opacity=".1"/><stop offset=".7" stop-color="#FDB81B" stop-opacity="0"/><stop offset=".8" stop-color="#FDB81B" stop-opacity="0"/></linearGradient><clipPath id="a"><path fill="#fff" d="M0 0h450v575.5H0z"/></clipPath></defs></svg>