<svg xmlns="http://www.w3.org/2000/svg" id="additional_spots" data-name="additional spots" viewBox="0 0 117.3 125.9"><defs><style>.cls-1{fill:#9b83fc}.cls-1,.cls-10,.cls-2,.cls-3,.cls-4,.cls-6,.cls-7,.cls-8,.cls-9{stroke-linecap:round;stroke-linejoin:round;stroke-width:.75px;stroke:#181225}.cls-2{fill:#ff9838}.cls-3{fill:#fc45a5}.cls-4{fill:#f6f6f8}.cls-10{fill:none}.cls-6{fill:#7454fc}.cls-7{fill:#92dd00}.cls-11{fill:#ff45a8}.cls-8{fill:#181225}.cls-9{fill:#d3d0f5}</style></defs><path d="M101 85.9v11.9l-41 27.7-44.3-22.3V89l25.5 11.9 4.8 2.3L59.8 78l15.7 25.2L101 85.9z" class="cls-6"/><path d="m59.8 78 .2 47.5" class="cls-10"/><path d="M59.8 78 46 103.2.6 81.9 16 57.7 59.8 78zM59.8 78l15.7 25.2 41.4-28.1-14.6-21.4L59.8 78z" class="cls-1"/><path d="m102.8 37.2-.2 5.5-.3 11L59.8 78V60c0-1.4.8-2.7 2-3.3l39.4-20.5c.7-.4 1.6.2 1.6 1Z" class="cls-4"/><path d="m61.9 56.7 39.3-20.5c.2-.1.5-.1.8 0l-5.8-2.6a1 1 0 0 0-1.1 0L55.8 54c-1.3.6-2 1.9-2 3.3v18l6 2.7V60c0-1.4.8-2.7 2-3.3Z" class="cls-9"/><path d="m102.8 37.2-.2 5.5L60 65.6h-.2V60c0-1.5.8-2.8 2-3.4l39.4-20.5c.7-.4 1.6.2 1.6 1Z" class="cls-6"/><path d="m96.3 9.2-.2 4.7-42.4 21.5V30c0-1.3.8-2.5 2-3.1l39-19c.8-.3 1.7.3 1.6 1.2Z" style="fill:none;stroke:#000;stroke-linecap:round;stroke-linejoin:round;stroke-width:.75px"/><path d="m96.3 9.2-.2 4.7-1 19.6L55.8 54c-1.3.6-2 1.9-2 3.3V30.1c0-1.3.7-2.5 2-3.1l39-19c.7-.3 1.6.3 1.5 1.2Z" class="cls-4"/><path d="M53.7 57.3v0h0V30.1c0-1.3.8-2.5 2-3.1l39-19h.9l-5.7-2.3h-1.2L49.3 24.4c-1.3.6-2 1.9-2 3.3v44.5l6.6 3.2v-18Z" class="cls-9"/><path d="m94.7 8-39 19c-1.2.6-2 1.8-2 3.1v5.4s0 0 0 0l42.4-21.7.2-4.6c0-.9-.8-1.5-1.6-1.1Z" class="cls-6"/><path d="M39 68.4V49.9c0-1.3.7-2.5 1.9-3l6.2-3V72l-8.2-3.7Z" class="cls-9"/><path d="M40.4 39.3c-.9.5-1.5 1.4-1.5 2.4v8.2c0-1.3.8-2.5 2-3l6.2-3V36l-6.7 3.2Z" class="cls-6"/><path d="M33.3 37.2c-1 .5-1.7 1.5-1.7 2.6V65l7.3 3.4V41.7c0-1 .6-2 1.5-2.4l6.7-3.2v-4.9l-13.8 6Z" class="cls-9"/><path d="M26 42.3c-.9.4-1.5 1.4-1.5 2.4v17l7.1 3.3V39.8L26 42.3Z" class="cls-9"/><path d="M20.2 39.6a3 3 0 0 0-1.8 2.8v16.5l6.1 2.8v-17c0-1 .6-2 1.5-2.4l5.6-2.5c0-1.1.7-2.1 1.7-2.6l2.1-1h0l11.7-5v-3.6l-26.9 12Z" class="cls-9"/><path d="M18.4 42.4a3 3 0 0 1 1.8-2.8l26.9-12c0-1.4.8-2.7 2-3.3l1.9-.8-4.7-7.4-46 17.2L16 57.7l4.8 2.2-2.4-1V42.4ZM95.7 21.8l-.6 11.7a1 1 0 0 1 1 0l5.9 2.7h0c.4 0 .8.5.8 1l-.2 5.5-.3 11h0l13.8-24-20.4-8Z" class="cls-1"/><ellipse cx="58.3" cy="29.5" class="cls-8" rx="1.7" ry="1.1" transform="rotate(-73.9 58.3 29.5)"/><ellipse cx="62.8" cy="27.2" class="cls-8" rx="1.7" ry="1.1" transform="rotate(-73.9 62.8 27.2)"/><ellipse cx="67.3" cy="25" class="cls-8" rx="1.7" ry="1.1" transform="rotate(-73.9 67.3 25)"/><ellipse cx="64" cy="59.5" class="cls-8" rx="1.7" ry="1.1" transform="rotate(-73.9 64 59.5)"/><ellipse cx="43" cy="41.9" class="cls-8" rx="1.7" ry="1.1" transform="rotate(-73.9 43 42)"/><ellipse cx="68.5" cy="57.3" class="cls-8" rx="1.7" ry="1.1" transform="rotate(-73.9 68.5 57.3)"/><ellipse cx="73" cy="55.1" class="cls-8" rx="1.7" ry="1.1" transform="rotate(-73.9 73 55)"/><path d="M73.1 99.3 59.8 78l.2 29.7 13.1-8.4zM41.2 100.9l-1.8 4-23.7-11.4V89l25.5 11.9z" class="cls-8"/><path d="M76.3 29.1a54.3 54.3 0 0 1-3.2-8.4.5.5 0 0 1 .7-.6l2.7 1.5-.7.6c-.8-2.8-1-5.6-.6-8.4 0-.3.2-.5.5-.5l2 1.5-.7.3c.3-3.5 1.3-7 3.1-10 .6-1 1.3-2 2.2-3 .4-.4 1-.5 1.5 0s.5 1 .1 1.5c-3.2 3-5.1 7.3-6 11.6 0 .4-.4.6-.7.4l-1.8-1.4.8-.3c-.4 2.6-.2 5.4.5 8 .2.3-.3.8-.7.5L73.3 21l.8-.6c.8 2.8 1.8 5.6 3.1 8.3.3.6-.6 1-.9.4Z" class="cls-11"/><path d="M79.5 28c-.9-3.2-1-6.6-.6-9.8 0-.3.3-.5.6-.4l2 1.5-.7.4c.2-3.5.8-7 2.3-10.2a.5.5 0 0 1 .7-.2l1.9 1.6H85c1.6-2.2 3.4-4.2 5.4-6 2-2 4.4-3.6 7-4.8.5-.3 1.2 0 1.5.6.3.6 0 1.3-.7 1.5-2.4.9-4.6 2.2-6.7 3.9-2 1.6-4 3.5-5.7 5.5-.2.2-.5.2-.7 0l-2-1.5.9-.2c-1.4 3-2 6.5-2.2 9.8 0 .4-.5.6-.8.4L79 18.6l.8-.3c-.4 3-.3 6.3.6 9.3.2.7-.8 1-1 .3Z" class="cls-11"/><path d="M18.4 47.1 11 50l5 7.7 2.4 1.2V47.1z" class="cls-8"/><path d="m81.3 37.5-1.3-6-5-2s-4.5-.9-6.5 3.5c-2 4.5 1.2 9.6 5.6 9.7 4.4 0 7.2-5.2 7.2-5.2ZM88.8 24.7c-5-.7-6.4 3.4-6.4 3.4h0c1.8.3 4.2 1 5.4 2.3 1 1.3 1.7 4.2 2.2 6.5h0s2.6 0 3.8-3.5c1.1-3.2-.7-8.2-5-8.7Z" class="cls-7"/><path d="M87.8 30.4c-2-2.4-7.8-2.6-7.8-2.6l-5 1.7 5 2 1.3 6s-2.8 5.2-7.2 5.2h-.2c1.6.6 4 1.4 6.9 1.6l4.8-1.3 4.9-2.5s-.8-7.7-2.7-10.1Z" class="cls-3"/><path d="m85.6 43 1-3.9 1.3 1.1.5-2.2 2.1 2.5" class="cls-10"/><path d="M71.9 31.8h1.7s-2.5 2.8-.9 7.1H71s-1.7-4.2.9-7ZM87.3 26.5l1-.8s3 .5 4 4.1l-.9.7s-.8-3.1-4-4Z" class="cls-8"/><path d="M100.6 30.5s-2 .3-4.3 1l-2.2.7c.1-1 0-2-.3-3.1h0s.8-.2 2-.1c1.3 0 3 .4 4.8 1.5Z" class="cls-3"/><path d="m67 71.5.3-1.1-2.8-.4 1.9-4-.9-.4-2.1 4.2.3 1.2 3.3.5zM68.5 68.6v-1.4l6.5-3.7V65l-6.5 3.6zM77 65.2l1.4-5.7h1.2L78 65.2h-1ZM81.6 57l.1 1.1 2.8.7-2 3 .8.6 2.3-3.2-.3-1.3-3.7-.9zM87.9 59l-.2-1 3.4-2.1.8-3.9 4.3 2.3-.6.7-3-1.5-.5 2.9-4.2 2.6ZM97.6 48.3l-.4 1s2.2.8.9 3.8l1 .3s1.8-3.8-1.5-5.1ZM61 41.7l-3.8-2.6 2.9-5.1.9.5-2.5 4.3 3.1 2-.6.9zM63.7 39.3l1.1.3 1.5-7.1-1.1-.3-1.5 7.1zM89 22.3l.1-1.4 4.7-2.5v1.3L89 22.3zM55.6 48.5v-2.2s1.4-.6 1.7-1.6c.3-1 .6-1.9 2.1-2.1V44s-.8.1-1.2 1.4c-.3 1-1.7 1.5-1.7 1.5s1-.1 1.7 1c.6.8 1.6 0 1.6 0v1.5s-1.2.9-2.2-.3c-.8-1-2-.6-2-.6ZM60.3 51.6l3.6-1.7 1.7 3.3-5.3-1.6zM68.5 47.4s.4-2.8 1.6-5.5l.2-.7c-1-.9-1.8-2-2.2-3.4l-1.5 3.6c-.7 1.7-1.1 4.4-1.1 4.4l1.3 2.4 1.7-.9ZM72.7 49.9l-.8-4.3-3.4 1.8 4.2 2.5zM90.5 40.5 85.6 43l-.4 1.5 7.4-3.8-2.1-.2zM80.8 44.3h0a21 21 0 0 1-4.7-.9l-1.5.8 2.9 2.3.4 1.9 2.2-1.2.7-2.9Z" class="cls-8"/><path d="M60.3 51.6s1.3-5.7 2-7l1.9-.7s1.9 2.7 2.6 4.3.7 8.8.7 8.8l-3.6-7-3.5 1.6ZM68.5 47.4s.4-2.8 1.6-5.5c0 0 4.8 2 7.4 4.6 0 0 1.5 5.8 2 11.4 0 0-6-6.9-6.8-8l-.8-4.3-3.4 1.8Z" class="cls-3"/><path d="m86.8 48.1 1.7-1.3h-4l1.1-3.8c-1.3-.6-4-1-4-1s-1.9 5.1-1.6 7c.3 1.8 10.8 1.4 10.8 1.4l-4-2.3ZM97.4 38.2c-.8-.6-7.4-.7-7.4-.7h0l.4 3 4.2.4-.7 3 1.8-1 1.9 3.6s.6-7.7-.2-8.3Z" class="cls-2"/><path d="m101.7 46.3-3.9-5h0c0-1.6 0-2.9-.4-3.1-.4-.3-1.8-.4-3.4-.6h-.6l-3.3-.1-.1-.6s2.6 0 3.8-3.5l2 1c1.7 1.1 4.1 2.6 4.3 3 .4.8 1.7 8.8 1.7 8.8Z" class="cls-3"/><path d="M74.6 44.2c-.6-.4-1.3-.8-2-1l1.3-.6 2.1.8-1.4.8ZM93.8 33.4l2 1a40 40 0 0 1-1.8 3.3h-.6l-3.3-.2-.1-.6s2.7 0 3.8-3.5ZM93.8 29h0s.8 0 2 0l.5 2.5-2.2.7c.1-1 0-2-.3-3.1Z" class="cls-8"/></svg>