<svg xmlns="http://www.w3.org/2000/svg" id="additional_spots" data-name="additional spots" viewBox="0 0 110.3 139.5"><defs><style>.cls-1,.cls-2{fill:#fab51b}.cls-2,.cls-4,.cls-5,.cls-6{stroke:#181225;stroke-linecap:round;stroke-linejoin:round;stroke-width:.75px}.cls-4{fill:#e02dcf}.cls-5,.cls-8{fill:#181225}.cls-6{fill:none}</style></defs><path d="M6.8 111.6a18.8 18.8 0 0 1-4.2 3.2l2.3 4s2.4-1.3 5.2-3.4l-3.3-3.8Z" class="cls-4"/><path d="M67.2 67.8c.2-4.2 0-7-1.6-7.4-1.8-.4-8.7 0-8.7 0l-3.5 5s-5 .4-5.8 2c.4-1 .8-2.2 1-3.4l.2-.7c1-4.6 1-12.7 0-14.2-1.1-1.4-8.2-1.8-8.8 0s-2.8 11.2-4.8 14.2-10.1 7-14.1 9.1c-4 2.2-2.2 15-5.3 25-.7 2.2-3.2 7.3-6.8 11.7l3.7 4.2 2.3 2.5s-4.3 4.3-9.2 8l2.7 4c2.2-1.6 4.7-3.4 7.1-5.6l3 3 5.2-5 2.2 2.5s-1.3 1.7-4 4.6l3.2 3.5c5.4-5.9 9.8-11.7 12.3-15.3l2.5-3.7s8.7.4 11.6-1c1.2-.7 2.2-2.2 2.8-4.1.6-2 .3-5.9.3-5.9s3-.6 4.3-4.4c.9-2.8 1.2-8.6 1.2-8.6 6.4-3.5 5.3-7 5.5-9.4.2-3.2-.6-4.8-.6-4.8s1.8-1.4 2-5.7Zm-19.7-.3a31 31 0 0 0-1.2 8s0 0 0 0l-1.8 2.8v.1l-1.8.2c-2.3.2-1.9 5.1-1.9 5.1L23 109.6l-4.3-3L40 76.2v-3a9.6 9.6 0 0 0 7.5-5.7ZM3.7 125.3c-1 .8-2.2 1.5-3.3 2.2l2.9 3.8 3-2-2.6-4Z" class="cls-4"/><path d="M63.1 15.8c-.7.4-1.3 1.4-1.5 2.2-.6 2.5.5 5.9 2.3 8.6 1.8 2.8 4.2 5.1 6 6.8l.8-.8a41 41 0 0 1-4-4C65.4 27 64.4 25 64.4 25c-.8-1.2-1.3-2.5-1.6-4a6.9 6.9 0 0 1 0-4c0-.4.3-.7.5-1v-.1Z" class="cls-1"/><path d="M46.3 75.4v0h0s0 0 0 0Z" class="cls-6"/><path d="M46.3 75.7a3.4 3.4 0 0 0 2.3 2.2l-4 .5 1.7-2.7Z" class="cls-5"/><path d="M46.3 75.4s-.3 2.2 2.3 2.5c0 0 7.7 1 10.6 0 3-1 5.9-4.3 5.9-4.3M44.5 78.4l6.3-.3M40.8 83.7s0 3 .2 4.1 1 1.8 3.5 1.9 10-.3 11.5-.5 4.2-1.4 4.2-1.4M38 101.5c4.6.2 16.7-.7 16.7-.7" class="cls-6"/><path d="M44.5 89.7s-5.2-.4-7.4 1-2 3-2.2 4.4.1 5.4 1.2 6.2l1.8.2s-.5 3.7-.5 6 .2 4.2 2.6 4.3" class="cls-6"/><path d="m86.4 17.4-7.5 11-25.5 37c-.3 0-5.2.4-6 2.1.6-1 1-2.2 1.2-3.5l26.6-38L83 15l3.5 2.4ZM47.5 67.5a9.4 9.4 0 0 1-4.8 5l-24 34.1 4.3 3 17.8-25.9h0s-.5-4.9 1.9-5c.5-.2 1.1-.2 1.7-.3l2-2.7-.1-.3a31 31 0 0 1 1.2-7.9Z" class="cls-2"/><path d="m86.4 17.4-7.5 11-3.7-2.4 7.7-11 3.5 2.4z" style="fill:#fff;stroke:#181225;stroke-linecap:round;stroke-linejoin:round;stroke-width:.75px"/><path d="M70.6 28.4c-1-.8-1.5-1.3-2-2-.5-.6-1.1-1.3-1.7-3-.2-1-.4-2 0-3.1 0-.6.4-1 .7-1.5.5-.5 1-.9 1.6-1 1.2-.4 2.5-.2 3.6.2a41 41 0 0 1 6.3 3.2l1.5 1 1.3 1c1.7 1.4 3.1 3 4 4.5l.7 1.6c.2.7.3 1.6-.2 2.4-.4.8-1.3 1.3-2 1.3h-1.8l-1.5-.7-1.3-.8v-.1l1.5.4 1.5.3c.6 0 1.3.1 2-.1.6-.3 1-1 1-1.8s-.5-1.6-1-2.3l-1.2-1.7a35.5 35.5 0 0 0-9.5-6.7c-1-.4-1.9-.7-2.9-.9-1-.1-1.9 0-2.5.5-.6.6-1 1.4-1 2.3 0 .8.1 1.6.4 2.4l.7 1.5.9 1.4 1 1.6Z" class="cls-1"/><path d="M87 34.5c1 0 1.5-.3 2-.5.3 0 .6-.2.9-.4.3-.2.6-.5.8-1 .2-1.1-.1-2.7-.8-4.2a18 18 0 0 0-3-4.2A31 31 0 0 0 79 18c-1-.7-4-2.3-5-2.7L71.9 14v-.1c1.4.2 1.2.1 2.5.6a33.8 33.8 0 0 1 7 3.7c2.3 1.6 5 3.7 7.2 6.3 1 1.3 2 2.8 2.6 4.3.3.8.5 1.6.5 2.4 0 .8 0 1.7-.5 2.4-.5.6-.9.8-1.2 1-.4 0-.7.2-1.5.2-.7 0-.9 0-1.5-.2v-.1ZM76.8 35.8c.9.3 1 .2 2.1.9 1.1.6 2.7 1.3 4.3 1.7 1.6.5 3.3.6 4.5.4.3 0 .8 0 1.3-.2.5-.1 1-.2 1.2-.4.6-.2.6 0 1.2-.1 0 0 .1 0 0 0-.3.6-.3.5-.8 1l-.8.3-1 .3-1.1.2h-1c-1.3 0-3-.2-4.4-.7-1.6-.5-3-1.2-4.1-1.9-.6-.3-.6-.3-1-.8-.3-.2-.3-.3-.5-.6v-.1Z" class="cls-1"/><path d="m98.7 38.2-6 6.1 7.8-3.5 4.8 5.1-2.2-7 6.9-7.1-8.9 4.6-5.3-5.1 2.9 6.9zM96.9 24.6l3.9-4 1.3 5.9-5.2-1.9zM73.4 48.1l-.3-3.6L77 44l.3 3.8-3.9.3zM88.5 48.8l-2.4 5.3 5-.2-2.6-5.1zM55.4 32.7l1 8.6 1.7-7.9 5.8-.1-5.7-2.6-.5-8.3-1.9 7.4-7.6-.6 7.2 3.5zM46.1 39.5l3.9-3.9 1.3 3.9h-5.2zM50.2 18.5l-.3-3.5 2.8-.3.6 3.2-3.1.6zM64 10.7l-2.8-3.8 5 .6-2.2 3.2zM75.2 9.4l-.1-2.8 4.3-.4.2 3.3-4.4-.1zM90.6 8.2l-5.7 3.6 6.7-1 5 7.1-1.7-7.9 6.6-4.7-7.7 1.8-5-6.7 1.8 7.8z" class="cls-2"/><path d="M42.7 72.4 40 76.2v-3c1-.2 1.9-.4 2.7-.8M41 87.8c-.2-1-.2-4-.2-4l-5.4 7.7.3.5 1.4-1.3c2.2-1.4 7.4-1 7.4-1-2.5-.1-3.3-.8-3.5-1.9Z" class="cls-5"/><path d="m40 111.8-2.5 3.7s-1.8-1.3-2-5.1c-.2-1.8 0-6.6 0-6.6-1.8-.4-2.1-3-2.4-5.1-.2-2.3.7-4.8.7-4.8l1.6-2.4.5.3c-.9 1-.9 2.2-1 3.3-.2 1.4.2 5.4 1.2 6.2l1.8.2s-.4 3.7-.4 6 .1 4.2 2.5 4.3Z" class="cls-5"/><path d="m58.8 65.5-3.6.3h-1.8l-.1-.4v-.3l.8-.4.6-.4a13.8 13.8 0 0 1 2.3-.8c-.5.5-1 .8-1.4 1l-.7.5h1l1.7.2 1.1.2Z" class="cls-8"/><path d="m37.5 73.6 2.5-.4" style="fill:#e02dcf"/><path d="m37.5 73.6.3.2c.6.1 1.6-.2 2.2-.2v-.7l-1.3.1c-.4.1-.8.1-1.1.4l-.2.2Z" class="cls-8"/><path d="m18.3 130.8-4.6 4 3 4.3c1.7-1.4 3.3-3 4.8-4.5l-3.3-3.7Z" class="cls-4"/></svg>