<svg xmlns="http://www.w3.org/2000/svg" id="additional_spots" data-name="additional spots" viewBox="0 0 125.5 110.7"><defs><style>.cls-1{fill:#ff9838}.cls-1,.cls-2,.cls-5{stroke:#181225;stroke-linecap:round;stroke-linejoin:round;stroke-width:.75px}.cls-2{fill:#fccd0e}.cls-5,.cls-7{fill:#181225}</style></defs><path d="M56.9 35.6 12.4 23.4l-1.2-.1-6.4 1.6c-1.2.1-2.1 1-2.1 2.3L1 81.2a3 3 0 0 0 1.5 2.7L49 109.2l8.4-2.4c.6-.1 1-.7 1-1.3l2-65.2c.1-2.2-1.3-4.1-3.5-4.7ZM20 70.4c-.7-.3-1-1.3-.5-2l7.5-11.3L33.3 77 20 70.4Z" style="fill:#d3d0f5;stroke:#181225;stroke-linecap:round;stroke-linejoin:round;stroke-width:.75px"/><path d="M48.5 37.9 5 24.9c-1.2.1-2.2 1-2.2 2.3l-.2 6.5L1 81.2a3 3 0 0 0 1.6 2.7l46.3 25.3 2.4-59 .4-8c0-2-1.2-3.8-3.2-4.3ZM20.1 70.4c-.7-.3-1-1.3-.5-2l7.5-11.3L33.3 77 20 70.4Z" style="fill:#fff;stroke:#181225;stroke-linecap:round;stroke-linejoin:round;stroke-width:.75px"/><path d="m51.6 42.2-.3 8L2.5 33.7l.2-6.5c0-1.2 1-2.2 2.2-2.3l43.6 13c2 .5 3.2 2.3 3.1 4.3Z" style="fill:#7454fc;stroke:#181225;stroke-linecap:round;stroke-linejoin:round;stroke-width:.75px"/><path d="M114.3 78c-3.4-1.5-12-5.4-18-10.8-.8-.7-.7-2.2.4-2.7 2.5-1.5 6.8-4.2 9.8-7.5a30 30 0 0 0 6.6-11 1 1 0 0 1 1.9-.5c2.2 2.6 6 8.6 5.6 18a26.7 26.7 0 0 1-3.7 13.6 2 2 0 0 1-2.6.8Z" class="cls-1"/><path d="M120.3 44c-.4-.6-1.3-.8-2-.6l-4.5 1.8h0c.4-.2.9 0 1.2.3 2.2 2.6 6 8.6 5.7 18a26.7 26.7 0 0 1-3.8 13.6c-.4.6-1 1-1.8 1h0l5 .1c.6 0 1.2-.3 1.5-.9a32 32 0 0 0 4-15.2c0-9.7-3.6-15.8-5.3-18Z" class="cls-5"/><path d="M111.9 62.5s1.2-2.3 1.5-6c.3-2.7 0-5.1 0-5.1l2.7 1s-.4 7.7-2.8 11l-1.4-.8ZM110.1 69l-1.9-1.3 2-2.7 1.9 1-2 3z" class="cls-5"/><path d="M115.1 78a70.8 70.8 0 0 1-18.8-10.8c-.8-.7-.7-2.2.4-2.7 2.5-1.5 6.8-4.2 9.8-7.5a30 30 0 0 0 6.6-11c0-.3.2-.5.3-.6v-.1l-48.6 4.5 39.7-31.7-43.6 16 3.8-21.5L45 30 46 .2 32.2 27l-8.4-11.8v11.3l33 9c2.2.7 3.6 2.6 3.5 4.8l-1.8 60.6 13.4 9-8.2-17.5 28 9.4-24.6-19.4 48-4.3h0Z" class="cls-2"/><path d="M72 74a49 49 0 0 1 7-1.3l7.2-.8a35.9 35.9 0 0 1 4.8 0v.1c-3 1-6.3 1.2-9.4 1.5-2.3.3-4.9.5-7.2.6H72V74ZM65 66.8c2.4-.6 5-1 7.5-1.2l7.6-.7a40.7 40.7 0 0 1 5.1.2c-3.3.9-6.7 1-10 1.4l-7.7.5-2.6-.1v-.1ZM76.2 56c2.9-.6 5.8-1 8.8-1.2l8.8-.7a54.5 54.5 0 0 1 6 0c-4 1-7.9 1.2-11.8 1.5-2.8.3-6 .5-8.8.6h-3V56Z" class="cls-7"/><path d="M20.1 70.4c-.7-.3-1-1.3-.5-2l7.5-11.3L33.3 77 20 70.4Z" class="cls-2"/><ellipse cx="12.8" cy="32.5" class="cls-5" rx="1.5" ry="1.9" transform="rotate(-16.4 12.9 32.5)"/><ellipse cx="18.7" cy="34.3" class="cls-5" rx="1.5" ry="1.9" transform="rotate(-16.4 18.7 34.3)"/><path d="M20.1 70.4c-.7-.3-1-1.3-.5-2l7.5-11.3L33.3 77 20 70.4Z" class="cls-2"/><path d="M33.3 77 20 70.4c-.7-.3-1-1.3-.5-2l7.5-11.3-1.4-4.6c-.4-1.2-2-1.4-2.6-.4L10.6 69.7a2 2 0 0 0 .7 2.9l21 10.8c1.3.7 2.8-.6 2.3-2l-1.3-4.5Z" class="cls-1"/><ellipse cx="7.3" cy="30.6" class="cls-5" rx="1.5" ry="1.9" transform="rotate(-16.4 7.3 30.6)"/></svg>