<svg xmlns="http://www.w3.org/2000/svg" id="additional_spots" data-name="additional spots" viewBox="0 0 94.1 105.8"><defs><style>.cls-1{fill:#fab51b}.cls-1,.cls-3,.cls-4,.cls-5{stroke:#181225;stroke-linecap:round;stroke-linejoin:round;stroke-width:.75px}.cls-3{fill:#e02dcf}.cls-4,.cls-6{fill:#181225}.cls-5{fill:none}</style></defs><path d="m84.6 70 2.1-1.3-2-4.1c-7.7 5.3-13 7-13 7l-1.3-4c2.5-1 4.8-2.5 4.8-2.5l-1.7-6c-5 3.2-9.7 5.1-12.1 6l-1.8.6s-4-11.4-4.9-12.7c-1-1.6-31 6.6-39.2 10.2 0 0 .6 5.6 2.4 9.1-1.1.4-2 .8-2.5 1.2 0 0 0 6.4 3 9.6l1.2-.1c.3 2.2 1.1 7.7 3.4 11l2.5-.1c.3 2.1 1.2 6.9 3.3 9.5 0 0 8.5-.2 12-3 0 0 .3-4.8-1.1-8.6 0 0-.4-1.4-2-1.4-.1-1.3-.6-5.2-1.8-10.2.7 0 1.3-.1 1.7-.5.8-.8 1.7-2.2 2.6-3.8l7.9 24c19.3-3 30.7-11 37.2-16.3l-1.5-3.4L81 82l-1.9-3.5c4.1-1.7 7.4-4.1 7.4-4.1L84.6 70ZM89.2 61.1l-3 2.3 2.1 4.1c2-1.4 3-2.5 3-2.5l-2-3.9Z" class="cls-3"/><path d="M41.4 19.7C37.6 6.8 27.8-1.6 19.4.7c-1.7.6-3.2 1.5-4.5 2.8 7.9.3 16 8 19.2 19 3 10.3 1 20.3-4.5 25.3 1.2 0 2.3 0 3.4-.4 8.4-2.4 12.1-14.8 8.4-27.7Z" class="cls-4"/><path d="M19.6 83c3-.4 10.7-1.6 14.8-3M25.5 93.8c3.1-.3 8.4-1 12.1-2.9v-.5" class="cls-5"/><path d="M34.2 57.1s-5.4 10.5-6.5 20c0 0 5.2 3 8.2 3" class="cls-5"/><path d="m47.1 73-1 .5-1.7 1-1 .6-.5.2-.3.1s0 .1 0 0l-.2-.3a21.1 21.1 0 0 1-.3-2.2h-.7a20.4 20.4 0 0 0 .5 2.8c0 .3.3.4.5.5h.5l.3-.2.5-.3a15.6 15.6 0 0 0 3.5-2.5Z" class="cls-6"/><path d="m49.4 87 .1.1v-.2a11 11 0 0 1-.5-.3l-.8-.5a643.8 643.8 0 0 1-4.2-2.5l-.7-.5c-.2-.2-.4-.4-.4-.6-.3-1-.3-2.3-.3-3.5l.2-3.1H42l-.2 4.3c0 .9 0 1.7.3 2.4l.2.5c0 .2.2.2.2.3l.3.2c1.8 1.4 3.9 2.4 6 3.3l.4.2H49.6V87h-.2Z" class="cls-6"/><path d="M29.4 69S22 70.9 18 72.4" class="cls-5"/><path d="M48.8 102.2s-3.1 4.5-9.7 2.8l-.3-1.4-.5-2c1-.3 1.9-.8 2.5-1.3 0 0 .2-3.5-.6-6.9l-.2-.7-.3-.9s-.4-1.4-2-1.4C37.5 89 37 85 36 80.2h.7c.4-.2.7-.3 1-.6.7-.8 1.6-2.1 2.6-3.7l7.8 24 .8 2.3ZM34.1 51.8c0 .5-.3 1-.7 1l-7 2.3c-.5.1-1-.1-1.3-.5l-1.3-2.3L23 51l1.3-.2h0l.4-.1 8.8-3.4h-.1.3l.1 1.5.3 3.1Z" class="cls-1"/><path d="m27.3 54.8.9 4.1 5.9-1.7-1.3-4.2-5.5 1.8z" class="cls-1"/><path d="M34.1 22.6c-3.2-11.1-11.3-18.8-19.2-19-5 4.8-6.7 14.7-3.8 24.9 3.3 11.1 11 19 18.5 19.3 5.4-5 7.5-15 4.5-25.2Z" class="cls-5"/><path d="M34.1 22.6c-3.2-11.1-11.3-18.8-19.2-19-5 4.8-6.7 14.7-3.8 24.9 3.3 11.1 11 19 18.5 19.3 5.4-5 7.5-15 4.5-25.2Z" style="fill:#f6f6f8;stroke:#181225;stroke-linecap:round;stroke-linejoin:round;stroke-width:.75px"/><path d="M33 47.4c-1 .3-2.2.4-3.4.4-7.5-.3-15.2-8.2-18.5-19.3-3-10.2-1.2-20 3.8-25 1-.9 2-1.6 3.1-2.2l-7.3 2.9-1 .3h0C1.7 8-1.8 20 1.7 32c3.7 12.7 13.7 21 22.6 18.7 0 0 0 0 0 0h0l.4-.1 8.9-3.4-.6.2ZM34 47h.1-.1Z" class="cls-1"/><path d="M8 41.5s1.8.6 2.8-.9 2-1 2-1 6.7 11 19 8.8l-7 2.2s-10.2.8-16.7-9Z" class="cls-4"/><path d="m43.6 67-.4.8a41.5 41.5 0 0 1-2 5.8l.5.3c.2-.3.6-1 .9-1.9l.5-1.4c.3-1 .7-2 .6-3.1V67h-.1Z" class="cls-6"/><path d="m40.2 75.9 2.5 7c-.7-1-.3-7-.3-7l-1-2.2-1 2.1M34.2 57.1s-1.1 2.3-2.5 5.6l.5-5 2-.6ZM33.8 48.7c-3.5 1.5-7.5 2.9-10 3.6l-.7-1.4 1.2-.2h0l.4-.1 8.8-3.4h-.1.3l.1 1.5Z" class="cls-4"/><path d="M19.9.6c.4 0 .7-.2 1-.3h3.7a15.4 15.4 0 0 1 6 2.6c.8.5 1.8 1.2 2.7 2l.7.7.6.7 1 1.1 1 1.2a35.3 35.3 0 0 1 6.9 20.8c0 3.8-.6 7.6-2.3 11a13.2 13.2 0 0 1-8 7.4c-1.5.5-3 .7-4.6.6-3.5-.3-5.7-1.8-7-2.8L20 44.3l-.4-.5s.2 0 .5.3l1.5 1.2c1.3.9 3.6 2.3 7 2.5 1.4 0 2.9-.2 4.2-.7 1.6-.6 3-1.5 4.2-2.6 1.2-1 2-2.4 2.8-3.7A29.4 29.4 0 0 0 42.2 27a36.8 36.8 0 0 0-6.4-17.8c-1-1.3-2.7-3.5-5-5.2a15.5 15.5 0 0 0-6.2-3c-.5-.2-2.2-.4-3.5-.4C20 .8 19 1 20 .6Z" style="fill:#fdb81b"/><path d="m25.7 51.4 1.4 3.4 2.1-.6-1.1-3.9-2.4 1.1z" class="cls-4"/><path d="m28.8 54.3 1 4.1 1.1-.3-1.1-4.1-1 .3zM37.6 90.4c0-1.4-.5-5.3-1.7-10.2h.8L40 92.6l-.3-.9s-.4-1.4-2-1.4Z" class="cls-4"/><path d="m43 104-.8-2.7h0s-.3-6-.7-8.1C41 91 39 90.9 39 90.9l-1.5-11.3c-.3.4-1 .6-1.7.6 1.2 5 1.7 8.8 1.7 10.2 1.7 0 2 1.4 2 1.4.3.6.5 1.3.6 1.9l.1.3.2.7V95.6l.2.5v.7s0 0 0 0c.2 2 .1 3.5.1 3.5-.6.5-1.5 1-2.5 1.4h0s0 0 0 0l.5 1.9s0 0 0 0c1.4.8 4.1.3 4.1.3ZM61.4 65c-.3 1.9-.8 4-1 3.4l-.8-2.7 1.8-.6Z" class="cls-4"/><path d="M92.4 72.7a38.7 38.7 0 0 1-6.7 6.2L87 82c2.5-2.2 4.8-4.5 6.7-6.8l-1.3-2.5Z" class="cls-3"/></svg>