<svg xmlns="http://www.w3.org/2000/svg" id="Seer_spot" data-name="Seer spot" viewBox="0 0 277.9 222.4"><defs><clipPath id="clippath"><path d="M196.7 93.9s20.6 3.5 28.4-6.9c0 0-3.2-7-8.8-12.9-5-5.3-11.9-10.8-16.7-9-10.4 3.8-3 28.8-3 28.8Z" class="cls-5"/></clipPath><clipPath id="clippath-1"><path d="M116 92.2s5.8 10 22.7 12.8c19.6 3.1 32-5.8 32-5.8S165.8 64 145 64.8c-18.2.6-29 27.4-29 27.4Z" class="cls-5"/></clipPath><style>.cls-10,.cls-12,.cls-2,.cls-4,.cls-5,.cls-6,.cls-7,.cls-9{stroke-linecap:round;stroke-linejoin:round;stroke-width:.75px}.cls-10,.cls-12,.cls-2,.cls-4,.cls-5,.cls-9{stroke:#181225}.cls-2{fill:#fc45a5}.cls-4{fill:#f6f6f8}.cls-13,.cls-5{fill:#fff}.cls-6,.cls-7{stroke:#000}.cls-12,.cls-7{fill:none}.cls-9{fill:#e02dcf}.cls-10{fill:#92dd00}</style></defs><path d="m121.9 91.8-86.3 2.6a3.4 3.4 0 0 1-3.5-3l-7.6-76.9-1-10A3.7 3.7 0 0 1 27.2.4h79.4c1.8 0 3.4 1.4 3.7 3.2l1.3 10.5L122 91.8Z" class="cls-4"/><path d="m111.5 13-87 1.5-1-10A3.7 3.7 0 0 1 27.2.4h79.4c1.9 0 3.4 1.4 3.7 3.2l1.2 9.4Z" style="fill:#7454fc;stroke:#181225;stroke-linecap:round;stroke-linejoin:round;stroke-width:.75px"/><ellipse cx="32.6" cy="7.7" class="cls-6" rx="2.3" ry="2.5" transform="rotate(-50.8 32.6 7.7)"/><ellipse cx="43.3" cy="7.6" class="cls-6" rx="2.3" ry="2.5" transform="rotate(-50.8 43.3 7.6)"/><ellipse cx="53.9" cy="7.5" class="cls-6" rx="2.3" ry="2.5" transform="rotate(-50.8 54 7.5)"/><path d="m43.7 32 1.2-1.8-6.8-4.6 5.7-5.5-1.3-1.4-7.2 7.1 8.4 6.2zM45.2 24.1V26l11.5-.1-.1-2-11.4.2zM58.2 20.1l1.5-1.5 7.7 6.3-6.7 7.7-1.3-1.4 5.3-5.9-6.5-5.2zM70 30.8l1.6 1 6.2-8.5 7.5 9.2 5.3-7.3 8.4-.3-.1-2.2-9.1.3-4.5 6.5-7.7-9.2L70 30.8zM39.6 45l-1.4-2.2 10-5.9 10.1 5.6-1.2 2.3-8.9-5.1-8.6 5.3zM66.5 34l1.9 1.2s-5 6.3.7 11.6l-1.3 1.7s-3.5-2.2-3.7-7.1c-.1-4 2.4-7.3 2.4-7.3ZM73.3 41.5v-2.2l15.1-.3 4.6 4.7 5.1-5.8 1.5 1.2-6.5 7.4-5.1-5.3-14.7.3zM102.7 34.8l1-2s4.4 1.8 4.8 7.1c.4 4.9-3.8 8.5-3.8 8.5l-1.2-1.5s2.8-3.2 2.8-6.5c0-1.9-.9-3.9-3.6-5.6ZM47.3 68.9l-7.5.1L41 86.7l7.5-.1-.2-2.5-5.4.1-1.1-13 5.6-.1-.1-2.2zM48.3 78.6l-.1-2.1h8.4l.2 2-8.5.1zM105.8 57.7l-.1-3.1h3.2l.2 3h-3.3ZM106.4 65.5l-.1-3.1h3.4l.2 3.2-3.5-.1zM109 75l1.9-2.4h-8.2v2.5l6.3-.2ZM44.8 56v-.3L38 56l.3 3.2 7.9-.2c-.6-1-1.1-1.9-1.5-3Z" class="cls-6"/><path d="M35.6 94.4a3.4 3.4 0 0 1-3.5-3l-7.6-76.9-1-10c-.1-1.1.2-2.1.9-2.9h0l-3.8 4.7C20 7 19.7 8 19.8 9l7.6 84.7a3.5 3.5 0 0 0 3.6 3.2l73.7-3.1-3.6-1.4-65.5 2Z" style="fill:#d3d0f5;stroke:#181225;stroke-linecap:round;stroke-linejoin:round;stroke-width:.75px"/><path d="M70.5 187.8c-3.7 5.9-15.8 17-31.3 10.6-7.8-3.2-13-16-10-25a24.6 24.6 0 0 1 32.9-14.7 19.8 19.8 0 0 1 8.4 29Z" style="stroke:#181225;stroke-linecap:round;stroke-linejoin:round;stroke-width:.75px;fill:#ff9838"/><path d="m60.3 158 1.8.8a21.7 21.7 0 0 1 9.1 8.2 81 81 0 0 1 8.3-5.1c-3.6-4.4-8.9-9-8.9-9-5.2 1-9.4 4.1-10.6 5l.3.1Z" class="cls-6"/><path d="M253.2 116.7c-14.9 16.7-53.2 23-53.2 23-73.3 8.9-121.4-19-121.4-19C116 53.4 163 21 163 21c59.6 32.7 90.3 95.6 90.3 95.6Z" style="fill:#821196;stroke:#181225;stroke-linecap:round;stroke-linejoin:round;stroke-width:.75px"/><path d="M200 139.8c-73.3 8.8-121.4-19.2-121.4-19.2C116 53.6 163 21.1 163 21.1s24.6 50.4 37.1 118.7Z" class="cls-9"/><path d="M116 92.2s5.8 10 22.7 12.8c19.6 3.1 32-5.8 32-5.8S165.8 64 145 64.8c-18.2.6-29 27.4-29 27.4Z" class="cls-7"/><path d="M131 64.7c3-3.6 7.4-5.7 12-6.4 2.1-.3 4.5-.3 6.8 0A21 21 0 0 1 162 64a11.1 11.1 0 0 1 1.4 1.8 23 23 0 0 0-16-7c-4.2 0-9 1-12.7 3.2a19.7 19.7 0 0 0-3.6 2.6Z"/><path d="M196.7 93.9s20.6 3.5 28.4-6.9c0 0-3.2-7-8.8-12.9-5-5.3-11.9-10.8-16.7-9-10.4 3.8-3 28.8-3 28.8Z" class="cls-7"/><path d="M190.4 68c.9-3 3-6 6-7.4 1.5-.7 3.2-1 4.9-1 1.7.1 3.3.6 4.8 1.2a15 15 0 0 1 5 4 24.4 24.4 0 0 0-5.4-3.2l-3-1h-3c-1.5.2-3 .7-4.3 1.5a14 14 0 0 0-3.3 3.3c-.6.8-1.1 1.7-1.6 2.7h-.1Z"/><path d="M196.7 93.9s20.6 3.5 28.4-6.9c0 0-3.2-7-8.8-12.9-5-5.3-11.9-10.8-16.7-9-10.4 3.8-3 28.8-3 28.8Z" class="cls-13"/><path d="M209.2 73.5c1.5 7.4-1.7 13.4-7 13.4s-11-6-12.5-13.4 1.6-13.4 7-13.4 11 6 12.5 13.4Z" class="cls-6" style="clip-path:url(#clippath)"/><path d="M196.7 93.9s20.6 3.5 28.4-6.9c0 0-3.2-7-8.8-12.9-5-5.3-11.9-10.8-16.7-9-10.4 3.8-3 28.8-3 28.8Z" class="cls-12"/><path d="M116 92.2s5.8 10 22.7 12.8c19.6 3.1 32-5.8 32-5.8S165.8 64 145 64.8c-18.2.6-29 27.4-29 27.4Z" class="cls-13"/><path d="M165.1 94.5c-.5 9.5-7.9 17.2-16.4 17.2s-15-7.7-14.5-17.2 8-17.2 16.5-17.2 15 7.7 14.4 17.2Z" class="cls-6" style="clip-path:url(#clippath-1)"/><path d="M116 92.2s5.8 10 22.7 12.8c19.6 3.1 32-5.8 32-5.8S165.8 64 145 64.8c-18.2.6-29 27.4-29 27.4Z" class="cls-12"/><path d="M144.1 151.5c-.3 9.2-3 19.7-11.7 25.9-15.7 11-33.3-.2-39.3-4.7l-2-1.7c-3.2 2.2-7.6 5.1-10 6.3a92 92 0 0 1-7.9 3.6c1-4.8.4-9.7-2-13.9a46.5 46.5 0 0 1 8.3-5.1c-3.6-4.4-8.9-9-8.9-9a27 27 0 0 0-10.9 5.3s-1.5 9.4-5.7 11.8c-4.2 2.4-9.6-.5-9.6-.5.4-9.1 3.6-20.6 3.6-20.6l3-1.9 1.5-12.3c12-6.1 26.1-7.8 26.1-7.8s16.2 9.6 28 23.6c0 0 8.5 7.8 16.2 4.6 4-1.6 6-5.7 7-9.7.7-2.8 1-5.6 1-7.5 4 .7 8.2 1.4 12.7 1.9.4 3.2.8 7.3.6 11.7ZM277 119.7c-.2.6-.7 1.1-1.4 1.2-3.8.3-16.5 2.8-24 10.7 3.3.2 6.6.6 7.2 1.2 1.3 1.1-.4 10.3-.5 10.9 1.4.8 2.2 1.8 2.2 1.8s-.3 15.8-1.2 18a50.1 50.1 0 0 1-15.5 9.2l-1 .4c-.9.2-1.5.2-1.7 0l-.5-1-.2-.5-.2-.7s-1.2 1.7-3.3 4c-6.9 7.6-24 22.8-44.1 12.5-14.7-7.6-18.5-24.7-19.1-37.3-.2-3.3-.1-6.2 0-8.6 3.6 0 7.2-.2 11-.4 0 3.2.4 7.6 1.3 11.9 1.2 5.5 3.5 10.7 7.6 12.8a15.9 15.9 0 0 0 20.6-5.5s1-24.8.5-28.3a20 20 0 0 0-3.8-8.2c-1.6-1.5-10.2-7-10.3-8-.2-1 3.8-8.2 5.3-8.7 1.4-.5 12 1.2 16.6 5 4.3 3.6 8.7 20.3 8.7 20.3s.8-1.3 2.5-3.3a52.3 52.3 0 0 1 40.5-19.4c1.7 0 3.2 1.4 3.3 3.1.1 1.9.2 3-.5 6.9Z" class="cls-9"/><path d="M227.7 109.7 221.6 97M227.7 109.8c-1.2-1.5-2-3-2.8-4.6-.7-1.5-1.6-3.2-2.2-4.8a21.1 21.1 0 0 1-1.1-3.4c1.6 1.9 2.5 4 3.5 6.1.8 1.6 1.6 3.3 2.2 4.9l.5 1.7h-.2ZM233.6 109.7l1.3-34.5M233.6 109.7c-.2-4.3-.1-8.6 0-13l.5-12.9a127.2 127.2 0 0 1 .9-8.6c.4 5.8 0 11.5-.2 17.3-.1 4.2-.3 8.8-.6 12.9l-.5 4.3h-.1ZM238.8 111.5l16.3-43.4M238.8 111.4c1.6-5.5 3.6-11 5.6-16.4 2-5.2 4.1-11 6.2-16.2a221.6 221.6 0 0 1 4.6-10.7c-2.2 7.4-5 14.7-7.7 21.9a482.4 482.4 0 0 1-8.7 21.4ZM243.4 114.3l18.8-12.5M243.4 114.2c2-1.9 4.4-3.5 6.7-5 2.3-1.6 4.8-3.3 7.1-4.7a53 53 0 0 1 5-2.7c-2.7 2.6-6 4.6-9 6.7-2.4 1.5-4.9 3.2-7.3 4.5-.8.4-1.6 1-2.5 1.3Z"/><path d="M186 153c-4.7-1-9.2-2-12.3-2.9-.2-3.3-.1-6.2 0-8.6 3.6 0 7.2-.2 11-.4 0 3.1.4 7.6 1.3 11.8Z" class="cls-6"/><path d="m94.8 168.3-.6.2c-1 .4-2.5 1.6-3.4 2.2l.4.6 1.9-1.3c.6-.4 1.1-.8 1.5-1.3l.2-.3Z"/><path d="M73.1 135.7S60.2 141.6 51 147" class="cls-7"/><path d="m58 143.2 1-6.6s4.7-2 7.3-2.9" class="cls-7"/><path d="m46.6 154.5 1.3-5.6 3-1.9 1.1-8.6h0s-4 2-5.4 3c-1 .7 0 13.1 0 13.1h0Z" class="cls-9"/><path d="M45.7 192.8c3.5-5.7 12.3-4.9 15.6-1.5 2.6 2.6 5.4 9.6-.4 14.7-3.7 3.3-10 2.4-13.4-.6s-4.2-8.8-1.8-12.6ZM29.5 198.4c-3.7 0-6-1.4-7.4-2.7-2.4-2.3-2.5-5.3-2.4-7 0-2.9 2.5-7 7.8-7.7 6.6-1 10.9 3.7 10.9 8.9 0 4.3-3.8 8.5-9 8.5Z" class="cls-10"/><path d="M45.9 203.6a30.8 30.8 0 0 1-2.5 5.7c-3 5.7-9.4 6.5-12.1 4.5-1.7-1.2-3.7-3.7-2.6-9.5a17.5 17.5 0 0 1 2.4-6l.7-.2a9 9 0 0 0 3.7-2h0c.2 0 .3.2.5.3 1 .9 2 1.6 3.2 2a25.6 25.6 0 0 0 5.2 1.5h0a11 11 0 0 0 1.2 3.3l.3.4Z" class="cls-2"/><path d="M38 199.9c-.5.3-1 .6-1.3 1l-.7.8.2 4.6-3.4 3.6-.7 4.4.6.1.8-4.1 3.4-3.8-.2-3.1V202l.5-.7.5-.9.3-.5Z"/><path d="M57 203.6c1.6-1.2 2.6-2.2 3-3.5.7-2.6-.2-5-.2-5l1.7-.5s1.4 3 .2 6.2c-1.2 3.3-4 4.4-4 4.4l-.7-1.6ZM26.2 184a5.8 5.8 0 0 0-4 4.4c-.5 2.2.4 4.2.4 4.2l1.4-.1s-.6-2.4 0-4.3 2.7-2.6 2.7-2.6l-.5-1.6Z" class="cls-6"/><path d="M70.6 221.4c0 .7-.9.8-1.2.3L60.9 206a9.4 9.4 0 0 0 3.4-7.7c0-1.2-.3-2.3-.7-3.3l.7-.6h0l1.8 2.2h0l.3.3a19 19 0 0 1 1.6 2.5h0c5.7 9.3 3.2 18 2.6 22Z" class="cls-2"/><path d="M82.7 212.7c0 .5-.6.8-1 .4L68 199.4a23 23 0 0 0-1.7-2.5l-.1-.3-1.9-2.2h0c2-1.6 3.7-3.3 4.9-4.8l1.8 1c11.7 7.5 11.5 18 11.7 22Z" class="cls-2"/><path d="m38.4 169 1.1 10.7-1.2-.8 4.2-.8c.5-.2 1 .2 1 .7l-.3 5.7c0 1.8-.2 3.8-.1 5.6l-.7-.2L51 181c.2-.2.6-.2.9 0l3.4 4-1.3-.2 9-8.4c.4-.4 1-.4 1.5 0 .5.5.4 1.2 0 1.7l-9.3 8c-.4.4-1 .4-1.3 0l-3-4.2h1l-8.8 8.4c-.2.3-.6.1-.7-.2l-.2-5.7-.1-5.7.9.7-4 1.3a1 1 0 0 1-1.3-.8L36 169.4c-.3-1.7 2.3-2.1 2.5-.4Z"/><path d="M28.4 180.9h-.9l-1.5.4a8.4 8.4 0 0 0-6.3 7.4l-18.3 4c-.3 0-.6-.3-.4-.5 1.5-3 6.5-13.3 25-13.6L.6 175.9a.3.3 0 0 1-.1-.5c2-1.8 9.3-9.8 25.6-3.4l.8.3.3.2.4.1 1.7.8c-.8 2.3-1 4.9-.9 7.5Z" class="cls-2"/><path d="M33.2 166.1h0c-1.6 2-3 4.5-4 7.3l-1.6-.8-.4-.1h0l-.3-.2c-.3 0-.5-.2-.8-.3h0l-17-9.5c-.2-.1-.2-.5 0-.5 2.8-.9 13.8-3.7 22.5 2.8l1.6 1.3Z" class="cls-2"/><path d="M144.1 151.5c-5.9-2.2-10.8-4.5-14.3-6.1.7-2.8 1-5.6 1-7.5 4 .7 8.2 1.3 12.7 1.9.4 3.2.8 7.3.6 11.7Z" class="cls-6"/><path d="M86.4 107.4c4-6.5 8-12.6 12-18.3.3-4.1 1.5-25.2 0-29-1.6-4.3-9.6-1.7-24.7-2.7-15-1-19.4-7.5-23.3-9.4-2.9-1.4-4.7 2.6-5.5 5-.4.9-.4 2 0 3C49 68.4 70.4 67 70.4 67l.8 7.2s-11.8 1.6-12.6 3c-.7 1.3-.6 7 .2 7.5.7.5 21.4 5 21.4 5s.3 10.7 6 17.7Z" class="cls-9"/><path d="M71.3 74.2s-3.7.5-7 1.2h0c-.6 0-1.6-8.7-1.6-8.7 4.4.5 7.8.3 7.8.3l.8 7.2Z" class="cls-9"/><path d="M73.2 180.9c1-4.8.4-9.7-2-13.9l1.3-1c1.5 2.5 4 7.2 4.8 13.1l-4 1.8Z" class="cls-6"/><path d="m93.6 195.2-21.4-6.8-1.7-.6c1.7-2.9 2.8-6 3-9l.2-.3 1.3.3c13 3 18 12.3 19.3 15.6.2.5-.2 1-.7.8Z" class="cls-2"/><path d="M66.4 161.4c-1.9 1-5.5 3.2-7.6 5.6-2.7 3.2-4.8 3-4.8 3 4.2-2.4 5.7-11.8 5.7-11.8l.6-.2 1.8.7c1.6.8 3 1.7 4.3 2.7ZM69.2 189.6l1.8 1c-1.2 2-2.8 4-4.8 6h0l-1.9 1.7c0-1.2-.3-2.3-.7-3.3l.7-.6a30 30 0 0 0 4.9-4.8ZM75 178.8c-.2 1.8-.7 5.4-2.8 9.6l-1.7-.6c1.7-2.8 2.8-6 3-9l.2-.2 1.3.2ZM33.2 166.1h0c-1.6 2-3 4.5-4 7.3-.7 2.3-1 4.9-.8 7.5h-.9l-1.5.4c-.2-2.6 0-5.6 1.2-8.8h0c.9-2.5 2.3-5 4.4-7.7l1.6 1.3Z" class="cls-6"/><path d="m80.5 158-.3.4c-.5.8-.8 2.4-1 3.4l.6.2.5-2c.2-.6.4-1.1.3-1.8v-.2h-.1Z"/><path d="m93.5 169.3-.4 3.4-2-1.7 2.4-1.7Z" class="cls-6"/><path d="M71.8 160c.6-.3 1.5-2.1 2.3-3.9l-3.5-3.2c-3 .6-5.7 2-7.7 3.1 0 0 7.8 4.4 9 4Z" class="cls-9"/><path d="M60.3 158a17.8 17.8 0 0 1 3 1.4h0s1.4-.7 2.2-2c0 0 0 0 0 0L63 156c-1.4.8-2.4 1.6-2.9 2h.3Z" class="cls-9"/><path d="m69 69.6-2.4-1.2-3.9-1.7c4.4.5 7.8.3 7.8.3l.8 7.2-2.7-2.4.5-2.2Z" class="cls-6"/><path d="M251.5 131.6c-3.1-.2-6.3-.3-7.4 0-2.2.3-11.7 11.4-11.4 12.6s2.8 6.8 6 6.2" class="cls-7"/><path d="M239.2 163.5c-2-1.2-4.5-7.3-4.3-9.2s11-9.1 16.4-11.2 9.2 2.4 9.2 2.4-.3 15.8-1.2 18-17.1 11.2-18.2 9.6c-2.3-3.8-2-9.6-2-9.6Z" class="cls-7"/><path d="M239.2 163.5s10.3-6.3 13.2-7.5 8.1-2 8.1-2" class="cls-7"/><path d="M237 174.8a63 63 0 0 0-1-14.6l-.5-3c.8 2.4 2.3 5.5 3.7 6.3 0 0-.2 4 1 7.4l-3.3 4Z" class="cls-6"/><path d="M240.2 171c-1.3-3.6-1-7.5-1-7.5" class="cls-7"/><path d="m233.7 129.1-1 7.4-1.5-4.1s.8-1.3 2.5-3.3ZM45.9 203.6 45 206a10.4 10.4 0 0 1-1.6-6.3c.1-2.3 1-3.7 1-3.7a10.4 10.4 0 0 0 1.2 7.2l.3.4ZM36.7 194.8s-.1.7-.7 1.6c-.8 1.2-2.4 2.8-5.8 3.6l1-1.8.6-.1 1.7-.7a9 9 0 0 0 3.2-2.6Z" class="cls-6"/><path d="M138.7 90.2s1.7-7.7 9-9.5l1.2 3.2s-4.7 1-7 7.8l-3.2-1.5Z" class="cls-4"/></svg>