<svg xmlns="http://www.w3.org/2000/svg" width="424" height="196" fill="none"><g clip-path="url(#a)"><path fill="#fff" d="M0 0h424v196H0z"/><mask id="b" width="424" height="196" x="0" y="0" maskUnits="userSpaceOnUse" style="mask-type:alpha"><rect width="424" height="196" fill="#fff" rx="2"/></mask><g mask="url(#b)"><rect width="424" height="196" fill="url(#c)" rx="2"/><rect width="175.808" height="137.133" x="-42.859" y="-67" fill="#fff" opacity=".2" rx="10" transform="rotate(12.269 -42.86 -67)"/><rect width="316.983" height="235.133" x="162" y="38.05" fill="#fff" opacity=".2" rx="10" transform="rotate(-12.476 162 38.05)"/><rect width="60" height="60" x="-8" y="155.962" fill="#181423" opacity=".1" rx="10" transform="rotate(-12.476 -8 155.962)"/><rect width="60" height="60" x="298" y="45.644" fill="#181423" opacity=".1" rx="10" transform="rotate(-9.25 298 45.644)"/><rect width="60" height="60" x="382.323" y="156" fill="#181423" opacity=".1" rx="10" transform="rotate(16.78 382.323 156)"/><rect width="60" height="60" x="95.607" y="105" fill="#181423" opacity=".1" rx="10" transform="rotate(18.066 95.607 105)"/><g clip-path="url(#d)"><rect width="123.097" height="33" x="92.582" y="108.368" fill="#fff" rx="5" transform="rotate(7.982 92.582 108.368)"/><path fill="#4E2A9A" d="M100.036 122.429a2 2 0 0 1 1.99-1.864l13.821-.035a2 2 0 0 1 1.927 2.555l-3.836 13.278a1.999 1.999 0 0 1-2.339 1.401l-10.732-2.294a2 2 0 0 1-1.577-2.092l.746-10.949Z" opacity=".5"/><path fill="#fff" d="m108.249 120.68-4.5-1.071-2.5 13.928 5 1.072 2-13.929ZM111.249 127.542l1.167-6.933 5.833 1.067-1.167 6.933-5.833-1.067ZM116.249 131.72l-5.455-1.111-.545 4.444 5.455.556.545-3.889Z"/><g clip-path="url(#e)"><mask id="f" fill="#fff"><path fill-rule="evenodd" d="m105.972 135.719-4.389-.615a1.596 1.596 0 0 1-1.361-1.805l1.923-13.716a1.596 1.596 0 0 1 1.805-1.361l4.389.615a1.596 1.596 0 0 1 1.361 1.805l-1.923 13.717a1.6 1.6 0 0 1-1.805 1.36Zm-2.247-15.893-1.923 13.716 4.389.616 1.923-13.717-4.389-.615ZM115.299 137.027l-4.389-.615a1.596 1.596 0 0 1-1.361-1.805l.401-2.859a1.596 1.596 0 0 1 1.805-1.361l4.389.615a1.596 1.596 0 0 1 1.361 1.805l-.401 2.859a1.6 1.6 0 0 1-1.805 1.361Zm.623-4.442-4.389-.615-.401 2.859 4.389.615.401-2.859ZM112.002 128.625l4.389.615a1.597 1.597 0 0 0 1.805-1.36l.831-5.93a1.597 1.597 0 0 0-1.361-1.805l-4.389-.615a1.597 1.597 0 0 0-1.804 1.361l-.832 5.929a1.598 1.598 0 0 0 1.361 1.805Zm.222-1.583.831-5.93 4.39.616-.832 5.93-4.389-.616Z" clip-rule="evenodd"/></mask><path fill="#fff" fill-rule="evenodd" d="m105.972 135.719-4.389-.615a1.596 1.596 0 0 1-1.361-1.805l1.923-13.716a1.596 1.596 0 0 1 1.805-1.361l4.389.615a1.596 1.596 0 0 1 1.361 1.805l-1.923 13.717a1.6 1.6 0 0 1-1.805 1.36Zm-2.247-15.893-1.923 13.716 4.389.616 1.923-13.717-4.389-.615ZM115.299 137.027l-4.389-.615a1.596 1.596 0 0 1-1.361-1.805l.401-2.859a1.596 1.596 0 0 1 1.805-1.361l4.389.615a1.596 1.596 0 0 1 1.361 1.805l-.401 2.859a1.6 1.6 0 0 1-1.805 1.361Zm.623-4.442-4.389-.615-.401 2.859 4.389.615.401-2.859ZM112.002 128.625l4.389.615a1.597 1.597 0 0 0 1.805-1.36l.831-5.93a1.597 1.597 0 0 0-1.361-1.805l-4.389-.615a1.597 1.597 0 0 0-1.804 1.361l-.832 5.929a1.598 1.598 0 0 0 1.361 1.805Zm.222-1.583.831-5.93 4.39.616-.832 5.93-4.389-.616Z" clip-rule="evenodd"/><path fill="#553DB8" d="m100.529 134.483 1.596-1.204-1.596 1.204Zm2.237-15.954 1.204 1.596-1.204-1.596Zm6.627.929-1.597 1.204 1.597-1.204Zm-5.668.368.278-1.981-1.981-.278-.278 1.981 1.981.278Zm-1.923 13.716-1.981-.277-.278 1.98 1.981.278.278-1.981Zm4.389.616-.278 1.98 1.981.278.278-1.981-1.981-.277Zm1.923-13.717 1.981.278.278-1.981-1.981-.277-.278 1.98Zm7.808 12.144 1.981.278.277-1.981-1.98-.278-.278 1.981Zm-4.389-.615.278-1.981-1.981-.278-.278 1.981 1.981.278Zm-.401 2.859-1.981-.278-.277 1.981 1.98.278.278-1.981Zm4.389.615-.278 1.981 1.981.278.278-1.981-1.981-.278Zm3.2-14.678-1.597 1.204 1.597-1.204Zm-6.628-.93 1.204 1.597-1.204-1.597Zm.131 7.206-1.981-.277-.278 1.98 1.981.278.278-1.981Zm.831-5.93.278-1.98-1.981-.278-.277 1.981 1.98.277Zm4.39.616 1.98.278.278-1.981-1.981-.278-.277 1.981Zm-.832 5.93-.278 1.98 1.981.278.278-1.981-1.981-.277Zm-10.363 6.081-4.39-.616-.555 3.961 4.389.616.556-3.961Zm-4.39-.616a.401.401 0 0 1 .265.156l-3.193 2.409a3.599 3.599 0 0 0 2.373 1.396l.555-3.961Zm.265.156a.402.402 0 0 1 .078.298l-3.962-.555a3.598 3.598 0 0 0 .69 2.666l3.194-2.409Zm.078.298 1.923-13.717-3.961-.555-1.924 13.717 3.962.555Zm1.923-13.717a.401.401 0 0 1-.156.265l-2.408-3.193a3.594 3.594 0 0 0-1.397 2.373l3.961.555Zm-.156.265a.402.402 0 0 1-.298.078l.556-3.962a3.599 3.599 0 0 0-2.666.691l2.408 3.193Zm-.298.078 4.389.615.556-3.961-4.389-.616-.556 3.962Zm4.389.615a.406.406 0 0 1-.265-.156l3.194-2.408a3.594 3.594 0 0 0-2.373-1.397l-.556 3.961Zm-.265-.156a.406.406 0 0 1-.077-.298l3.962.556a3.599 3.599 0 0 0-.691-2.666l-3.194 2.408Zm-.077-.298-1.923 13.717 3.961.555 1.924-13.716-3.962-.556Zm-1.923 13.717a.401.401 0 0 1 .156-.265l2.408 3.194a3.599 3.599 0 0 0 1.397-2.374l-3.961-.555Zm.156-.265a.402.402 0 0 1 .298-.077l-.556 3.961a3.603 3.603 0 0 0 2.666-.69l-2.408-3.194Zm-4.208-14.268-1.923 13.717 3.961.555 1.924-13.717-3.962-.555Zm-.22 15.975 4.389.615.556-3.961-4.39-.615-.555 3.961Zm6.648-1.088 1.923-13.716-3.961-.556-1.924 13.717 3.962.555Zm.22-15.974-4.389-.616-.556 3.961 4.39.616.555-3.961Zm7.185 16.586-4.389-.616-.556 3.961 4.39.616.555-3.961Zm-4.389-.616a.404.404 0 0 1 .265.156l-3.194 2.408a3.597 3.597 0 0 0 2.373 1.397l.556-3.961Zm.265.156a.402.402 0 0 1 .077.298l-3.961-.556a3.594 3.594 0 0 0 .69 2.666l3.194-2.408Zm.077.298.401-2.86-3.961-.555-.401 2.859 3.961.556Zm.401-2.86a.401.401 0 0 1-.156.265l-2.409-3.193a3.597 3.597 0 0 0-1.396 2.373l3.961.555Zm-.156.265a.402.402 0 0 1-.298.078l.555-3.962a3.599 3.599 0 0 0-2.666.691l2.409 3.193Zm-.298.078 4.389.615.556-3.961-4.39-.616-.555 3.962Zm4.389.615a.404.404 0 0 1-.265-.156l3.194-2.408a3.594 3.594 0 0 0-2.373-1.397l-.556 3.961Zm-.265-.156a.402.402 0 0 1-.077-.298l3.961.556a3.594 3.594 0 0 0-.69-2.666l-3.194 2.408Zm-.077-.298-.401 2.86 3.962.555.4-2.859-3.961-.556Zm-.401 2.86a.401.401 0 0 1 .156-.265l2.409 3.193a3.602 3.602 0 0 0 1.397-2.373l-3.962-.555Zm.156-.265a.397.397 0 0 1 .298-.077l-.555 3.961a3.599 3.599 0 0 0 2.666-.691l-2.409-3.193Zm.921-4.52-4.389-.615-.556 3.961 4.389.616.556-3.962Zm-6.648 1.088-.401 2.859 3.962.556.4-2.86-3.961-.555Zm1.302 5.118 4.389.615.556-3.961-4.389-.616-.556 3.962Zm6.648-1.088.401-2.859-3.961-.556-.401 2.86 3.961.555Zm-5.778-5.116 4.389.615.556-3.961-4.389-.616-.556 3.962Zm4.389.615a3.598 3.598 0 0 0 2.666-.69l-2.408-3.194a.402.402 0 0 1 .298-.077l-.556 3.961Zm2.666-.69a3.599 3.599 0 0 0 1.397-2.374l-3.961-.555a.401.401 0 0 1 .156-.265l2.408 3.194Zm1.397-2.374.832-5.929-3.961-.556-.832 5.93 3.961.555Zm.832-5.929a3.599 3.599 0 0 0-.691-2.666l-3.193 2.408a.402.402 0 0 1-.077-.298l3.961.556Zm-.691-2.666a3.594 3.594 0 0 0-2.373-1.397l-.555 3.961a.401.401 0 0 1-.265-.156l3.193-2.408Zm-2.373-1.397-4.389-.616-.556 3.961 4.39.616.555-3.961Zm-4.389-.616a3.599 3.599 0 0 0-2.666.691l2.408 3.193a.402.402 0 0 1-.298.077l.556-3.961Zm-2.666.691a3.594 3.594 0 0 0-1.397 2.373l3.961.555a.401.401 0 0 1-.156.265l-2.408-3.193Zm-1.397 2.373-.832 5.93 3.962.555.831-5.93-3.961-.555Zm-.832 5.93a3.599 3.599 0 0 0 .691 2.666l3.194-2.409a.406.406 0 0 1 .077.298l-3.962-.555Zm.691 2.666a3.598 3.598 0 0 0 2.373 1.397l.556-3.962c.105.015.2.071.265.156l-3.194 2.409Zm4.853-1.889.832-5.93-3.961-.555-.832 5.93 3.961.555Zm-1.427-4.227 4.39.616.555-3.962-4.389-.615-.556 3.961Zm2.687-1.643-.832 5.93 3.962.555.831-5.929-3.961-.556Zm1.427 4.227-4.39-.615-.555 3.961 4.389.615.556-3.961Z" mask="url(#f)"/></g><path fill="#2B2233" d="M197.773 145.115c-.543-.076-1-.205-1.371-.386a3.138 3.138 0 0 1-.87-.607 2.259 2.259 0 0 1-.463-.646c-.091-.206-.132-.374-.124-.501.005-.101.043-.174.114-.22a.348.348 0 0 1 .244-.062l1.073.15a.3.3 0 0 1 .093.027.338.338 0 0 1 .097.096l.323.364c.12.128.265.245.435.352.17.097.392.165.663.203.353.05.656.023.911-.08.264-.11.415-.297.452-.559a.658.658 0 0 0-.098-.484c-.083-.132-.259-.262-.527-.392a9.89 9.89 0 0 0-1.15-.48c-.49-.189-.89-.397-1.2-.625-.309-.228-.526-.489-.651-.783a1.824 1.824 0 0 1-.111-.984c.049-.353.2-.674.453-.961.263-.295.617-.518 1.062-.668.455-.148.994-.179 1.618-.091.489.068.905.191 1.25.369.345.168.623.359.833.573.219.216.378.427.478.635.101.199.147.366.137.503a.291.291 0 0 1-.116.233.32.32 0 0 1-.228.051l-1.005-.141a.27.27 0 0 1-.118-.044.681.681 0 0 1-.099-.083 12.698 12.698 0 0 0-.286-.331 1.492 1.492 0 0 0-.396-.332c-.153-.095-.365-.162-.636-.2-.344-.048-.617-.008-.82.121a.685.685 0 0 0-.349.518.7.7 0 0 0 .065.424c.075.121.237.25.485.387.249.136.632.296 1.151.479.591.194 1.048.424 1.37.691.333.258.552.538.657.839.116.293.151.607.104.942a1.806 1.806 0 0 1-.521 1.048c-.281.293-.67.501-1.167.625-.487.116-1.074.126-1.762.03ZM189.395 143.94a3.192 3.192 0 0 1-1.216-.406 2.45 2.45 0 0 1-.787-.802 3.158 3.158 0 0 1-.4-1.094 4.946 4.946 0 0 1-.035-1.334c.014-.164.03-.309.047-.436.019-.136.045-.284.077-.446.081-.45.208-.861.38-1.234a3.17 3.17 0 0 1 .686-.941 2.5 2.5 0 0 1 .993-.567 3.046 3.046 0 0 1 1.283-.069c.488.068.888.212 1.199.431.321.211.576.464.765.758l.423-3.013a.345.345 0 0 1 .114-.22.334.334 0 0 1 .257-.06l1.154.161c.09.013.163.055.217.128a.313.313 0 0 1 .063.244l-1.26 8.985a.318.318 0 0 1-.127.217.318.318 0 0 1-.244.063l-1.072-.151a.33.33 0 0 1-.231-.129.346.346 0 0 1-.05-.242l.071-.502a2.673 2.673 0 0 1-.966.57c-.369.133-.816.163-1.341.089Zm.706-1.382c.38.053.695.01.945-.13.251-.14.449-.334.594-.581.147-.257.244-.524.293-.803a10.026 10.026 0 0 0 .146-1.046 1.936 1.936 0 0 0-.081-.8 1.586 1.586 0 0 0-.429-.696c-.203-.195-.486-.318-.848-.368-.38-.054-.695-.01-.945.13-.24.132-.429.327-.567.585a3.14 3.14 0 0 0-.302.871c-.047.27-.085.541-.114.814-.027.328-.01.635.051.921.062.285.189.529.382.731.203.195.495.319.875.372ZM181.567 142.704a.32.32 0 0 1-.218-.127.32.32 0 0 1-.062-.245l.896-6.392a.333.333 0 0 1 .129-.231.315.315 0 0 1 .244-.063l1.1.154c.09.013.163.055.217.128a.31.31 0 0 1 .075.259l-.078.557a2.05 2.05 0 0 1 .894-.553c.356-.107.751-.13 1.186-.069l.556.078c.1.014.172.056.217.127a.315.315 0 0 1 .063.244l-.137.978a.318.318 0 0 1-.127.217.29.29 0 0 1-.244.063l-1.059-.149c-.434-.061-.791.014-1.069.224-.269.202-.433.521-.494.955l-.523 3.732a.321.321 0 0 1-.128.218.334.334 0 0 1-.257.06l-1.181-.165ZM175.518 141.994a2.963 2.963 0 0 1-1.238-.45 2.518 2.518 0 0 1-.805-.874 1.843 1.843 0 0 1-.177-1.105c.089-.633.417-1.099.985-1.398.569-.307 1.278-.466 2.129-.476l1.897-.011.04-.285c.053-.38 0-.687-.161-.922s-.472-.385-.934-.449c-.325-.046-.602-.015-.829.091-.217.099-.39.25-.52.453a.35.35 0 0 1-.337.133l-1.072-.151a.32.32 0 0 1-.22-.113.335.335 0 0 1-.037-.227c.029-.144.113-.312.251-.505.146-.191.346-.366.599-.525.263-.166.59-.291.98-.374.39-.084.847-.089 1.372-.015.57.079 1.04.219 1.408.418.379.192.67.422.872.69.203.268.336.568.4.9a3.1 3.1 0 0 1 .022 1.028l-.597 4.261a.321.321 0 0 1-.128.218.317.317 0 0 1-.244.062l-1.099-.154a.333.333 0 0 1-.231-.129.341.341 0 0 1-.049-.242l.074-.529a2.398 2.398 0 0 1-.542.408c-.22.126-.482.218-.786.277a3.31 3.31 0 0 1-1.023-.005Zm.642-1.225c.317.045.611.017.884-.083.281-.099.514-.279.698-.539.194-.268.322-.619.383-1.053l.04-.285-1.388.026c-.545.007-.962.082-1.249.227-.288.144-.451.347-.487.609a.797.797 0 0 0 .104.541c.107.153.251.28.431.379.181.09.376.149.584.178ZM168.557 141.018c-.723-.101-1.316-.314-1.779-.637a2.716 2.716 0 0 1-.976-1.23c-.188-.497-.258-1.056-.208-1.676.014-.164.038-.364.071-.599.033-.235.065-.434.097-.595.124-.62.348-1.137.674-1.553a2.806 2.806 0 0 1 1.291-.912c.533-.184 1.152-.226 1.858-.127.706.099 1.285.309 1.738.631.463.323.793.734.99 1.232.208.491.287 1.051.235 1.68-.014.164-.037.364-.07.599a11.06 11.06 0 0 1-.097.596c-.123.61-.348 1.127-.675 1.552a2.604 2.604 0 0 1-1.276.914c-.525.185-1.149.227-1.873.125Zm.189-1.344c.479.068.871-.03 1.176-.291.305-.271.513-.699.622-1.283.028-.135.058-.31.088-.528.031-.217.051-.394.061-.531.055-.592-.027-1.055-.248-1.391-.219-.344-.569-.55-1.048-.617-.48-.068-.872.034-1.178.305-.304.262-.511.685-.621 1.269a8.962 8.962 0 0 0-.088.528c-.03.217-.05.394-.06.531-.055.592.026 1.06.246 1.405.22.335.57.536 1.05.603ZM161.021 139.961c-.525-.073-.951-.225-1.279-.456a2.726 2.726 0 0 1-.758-.812l-.07.502a.32.32 0 0 1-.127.218.29.29 0 0 1-.244.062l-1.073-.15a.318.318 0 0 1-.217-.127.322.322 0 0 1-.063-.244l1.26-8.985a.318.318 0 0 1 .128-.218.317.317 0 0 1 .244-.062l1.153.161c.1.014.172.057.218.128a.317.317 0 0 1 .062.244l-.422 3.013a2.61 2.61 0 0 1 .931-.52c.368-.124.796-.151 1.285-.083.479.067.884.207 1.214.42.33.212.592.484.785.815.204.324.342.69.414 1.096a4.4 4.4 0 0 1 .027 1.291 7.055 7.055 0 0 1-.124.882 4.969 4.969 0 0 1-.4 1.273 3.17 3.17 0 0 1-.686.942 2.467 2.467 0 0 1-.977.555c-.375.104-.802.123-1.281.055Zm-.299-1.522c.389.054.704.015.944-.117.241-.142.431-.341.568-.599.138-.257.239-.547.302-.871.047-.27.086-.541.115-.814a3.15 3.15 0 0 0-.051-.92 1.416 1.416 0 0 0-.384-.719c-.193-.202-.484-.33-.873-.385-.362-.051-.668-.01-.917.121s-.45.315-.603.552a1.915 1.915 0 0 0-.298.747 8.887 8.887 0 0 0-.088.527 9.057 9.057 0 0 0-.059.518c-.021.283-.001.567.06.852.072.278.209.519.411.722.211.205.502.334.873.386ZM148.934 138.128a.316.316 0 0 1-.217-.127.322.322 0 0 1-.063-.244l1.26-8.985a.318.318 0 0 1 .128-.218.317.317 0 0 1 .244-.062l1.208.169a.292.292 0 0 1 .217.127.32.32 0 0 1 .063.245l-.434 3.094a2.89 2.89 0 0 1 .995-.58c.378-.132.825-.161 1.341-.089.552.078 1.013.271 1.385.582.382.303.654.696.817 1.18.163.484.2 1.043.111 1.676l-.535 3.814a.316.316 0 0 1-.127.218.318.318 0 0 1-.244.062l-1.222-.171a.318.318 0 0 1-.217-.127.32.32 0 0 1-.063-.244l.524-3.733c.073-.525 0-.955-.221-1.29-.211-.334-.561-.536-1.05-.604-.47-.066-.871.03-1.203.288-.322.259-.52.651-.594 1.176l-.523 3.733a.316.316 0 0 1-.128.217.289.289 0 0 1-.244.063l-1.208-.17ZM144.027 137.578c-.543-.076-1-.204-1.372-.386a3.173 3.173 0 0 1-.87-.606 2.292 2.292 0 0 1-.463-.646c-.091-.207-.132-.374-.123-.502.005-.101.043-.174.114-.219a.351.351 0 0 1 .244-.063l1.072.151a.33.33 0 0 1 .093.026.331.331 0 0 1 .097.097l.323.364c.12.127.265.244.435.351.171.098.392.166.663.204.353.049.657.023.911-.08.265-.11.415-.297.452-.559a.66.66 0 0 0-.098-.485c-.083-.131-.258-.262-.526-.392a9.945 9.945 0 0 0-1.151-.479c-.49-.189-.89-.397-1.199-.625-.31-.228-.527-.489-.652-.784a1.842 1.842 0 0 1-.111-.984 1.82 1.82 0 0 1 .453-.96c.263-.296.617-.518 1.063-.668.454-.148.994-.179 1.618-.091.489.068.905.191 1.249.368.346.169.623.36.833.574.219.215.378.427.479.634.101.199.146.367.137.504a.294.294 0 0 1-.116.233.332.332 0 0 1-.229.051l-1.004-.141a.266.266 0 0 1-.118-.044.745.745 0 0 1-.1-.083 11.135 11.135 0 0 0-.285-.331 1.495 1.495 0 0 0-.397-.332c-.152-.096-.364-.162-.636-.2-.344-.048-.617-.008-.819.12a.688.688 0 0 0-.35.519.708.708 0 0 0 .065.424c.075.121.237.25.486.386.248.137.632.296 1.15.48.591.193 1.048.424 1.371.69.332.259.551.539.657.84.116.293.15.607.103.941a1.8 1.8 0 0 1-.521 1.048c-.281.293-.67.502-1.167.626-.487.116-1.074.126-1.761.029ZM135.648 136.404a2.955 2.955 0 0 1-1.238-.451 2.498 2.498 0 0 1-.804-.874 1.85 1.85 0 0 1-.178-1.104c.089-.633.417-1.099.985-1.398.569-.308 1.279-.467 2.129-.477l1.898-.01.04-.285c.053-.38-.001-.688-.162-.923-.161-.234-.472-.384-.933-.449-.326-.045-.602-.015-.83.092-.216.098-.39.249-.52.453a.35.35 0 0 1-.337.132l-1.072-.15c-.099-.014-.173-.052-.219-.114a.334.334 0 0 1-.038-.227c.03-.143.113-.311.251-.504.147-.192.347-.367.6-.525.263-.166.589-.291.979-.375.39-.083.848-.088 1.373-.015.57.08 1.039.22 1.408.419.379.192.67.421.872.69.202.268.335.568.399.9.065.332.072.674.023 1.027l-.598 4.262a.318.318 0 0 1-.127.217.315.315 0 0 1-.244.063l-1.1-.154a.337.337 0 0 1-.231-.129.348.348 0 0 1-.049-.243l.074-.529c-.14.146-.321.283-.541.409a2.594 2.594 0 0 1-.787.277 3.34 3.34 0 0 1-1.023-.005Zm.642-1.225c.317.044.612.016.884-.084a1.42 1.42 0 0 0 .698-.538c.195-.268.322-.62.383-1.054l.04-.285-1.388.027c-.545.007-.961.082-1.249.226-.288.144-.45.348-.487.61a.8.8 0 0 0 .104.54c.108.154.252.28.431.379.182.09.376.15.584.179ZM124.563 134.711a.318.318 0 0 1-.217-.127.325.325 0 0 1-.063-.245l1.239-8.835a.33.33 0 0 1 .374-.294l3.311.464c.914.129 1.646.374 2.194.737a2.89 2.89 0 0 1 1.169 1.437c.23.595.294 1.292.191 2.089a23.06 23.06 0 0 1-.121 1.063c-.043.307-.101.654-.174 1.041-.136.839-.387 1.514-.754 2.025a2.775 2.775 0 0 1-1.488 1.037c-.616.181-1.376.209-2.281.082l-3.38-.474Zm1.78-1.342 1.751.245c.507.071.929.057 1.265-.044.337-.1.601-.298.79-.595.199-.304.34-.718.423-1.241.047-.27.085-.505.112-.704.039-.207.067-.411.086-.611.029-.208.058-.444.086-.708.085-.744-.023-1.318-.327-1.72-.303-.402-.839-.657-1.608-.765l-1.683-.236-.895 6.379Z"/></g><rect width="122.097" height="32" x="93.008" y="108.933" stroke="#E0DCE5" rx="4.5" transform="rotate(7.982 93.008 108.933)"/><rect width="115" height="34" x="187.846" y="111.499" fill="#fff" rx="4.5" transform="rotate(-4.967 187.846 111.499)"/><rect width="115" height="34" x="187.846" y="111.499" stroke="#E0DCE5" rx="4.5" transform="rotate(-4.967 187.846 111.499)"/><path fill="#EBC000" fill-opacity=".7" d="M221.479 134.569a1.998 1.998 0 0 1-1.676 2.301l-18.697 2.813a2 2 0 0 1-2.29-1.804l-1.63-18.755a2 2 0 0 1 1.953-2.173l17.657-.346a2 2 0 0 1 2.013 1.676l2.67 16.288Z" opacity=".5"/><path fill="#fff" d="m213 127.5-4-6-6 13.5 17.5-2-2-16.5-5.5 11Z"/><g clip-path="url(#g)"><mask id="h" fill="#fff"><path d="m220.327 134.124-17.335 1.506a.885.885 0 0 1-.803-.376.897.897 0 0 1-.089-.883l5.843-13.433c.261-.6 1.217-.683 1.578-.137l3.427 5.195 4.979-10.478a.89.89 0 0 1 .969-.494.885.885 0 0 1 .732.803l1.506 17.323a.908.908 0 0 1-.819.975l.012-.001Zm-15.984-.418 14.932-1.298-1.141-13.126-4.248 8.921a.89.89 0 0 1-.738.51l-.012.001a.889.889 0 0 1-.818-.399l-3.398-5.137-4.577 10.528Z"/></mask><path fill="#EBC000" d="m202.1 134.371 1.82.83.007-.016.007-.016-1.834-.798Zm5.843-13.433 1.834.798v-.001l-1.834-.797Zm1.578-.137-1.67 1.102 1.67-1.102Zm3.427 5.195-1.67 1.101 1.953 2.962 1.523-3.204-1.806-.859Zm4.979-10.478 1.806.858-1.806-.858Zm-13.584 18.188-1.834-.797-1.34 3.081 3.347-.291-.173-1.993Zm14.932-1.298.173 1.993 1.992-.173-.173-1.993-1.992.173Zm-1.141-13.126 1.992-.173-.637-7.327-3.161 6.64 1.806.86Zm-4.248 8.921-1.806-.86-.007.015-.007.015 1.82.83Zm-1.568.112 1.669-1.101-.001-.002-1.668 1.103Zm-3.398-5.137 1.669-1.103-2.033-3.074-1.47 3.38 1.834.797Zm11.234 8.953-17.335 1.507.347 3.985 17.334-1.507-.346-3.985Zm-17.335 1.507c.384-.033.777.132 1.019.485l-3.299 2.263a2.889 2.889 0 0 0 2.627 1.237l-.347-3.985Zm1.019.485a1.1 1.1 0 0 1 .082 1.078l-3.64-1.66a2.903 2.903 0 0 0 .259 2.845l3.299-2.263Zm.096 1.046 5.843-13.433-3.668-1.595-5.843 13.432 3.668 1.596Zm5.843-13.434c-.23.531-.685.677-.909.697a1.123 1.123 0 0 1-1.017-.529l3.339-2.203c-.679-1.03-1.81-1.328-2.669-1.253-.858.075-1.921.563-2.413 1.695l3.669 1.593Zm-1.926.168 3.427 5.194 3.339-2.202-3.427-5.195-3.339 2.203Zm6.903 4.952 4.979-10.479-3.613-1.717-4.979 10.479 3.613 1.717Zm4.979-10.479a1.11 1.11 0 0 1-1.194.616l.714-3.936a2.89 2.89 0 0 0-3.133 1.603l3.613 1.717Zm-1.194.616a1.114 1.114 0 0 1-.903-.991l3.985-.347a2.887 2.887 0 0 0-2.368-2.598l-.714 3.936Zm-.903-.991 1.505 17.322 3.985-.346-1.505-17.323-3.985.347Zm1.505 17.322a1.094 1.094 0 0 1 1.001-1.191l.346 3.985a2.906 2.906 0 0 0 2.638-3.14l-3.985.346Zm1.347 2.794.012-.001-.346-3.985-.012.001.346 3.985Zm-15.972-.418 14.932-1.298-.347-3.985-14.931 1.298.346 3.985Zm16.751-3.464-1.141-13.126-3.985.346 1.141 13.127 3.985-.347Zm-4.939-13.813-4.248 8.921 3.612 1.72 4.247-8.921-3.611-1.72Zm-4.262 8.951c.184-.402.552-.622.908-.652l.347 3.984a2.892 2.892 0 0 0 2.385-1.672l-3.64-1.66Zm.908-.652-.012.001.347 3.985.012-.002-.347-3.984Zm-.012.001c.419-.037.807.161 1.025.492l-3.339 2.203a2.893 2.893 0 0 0 2.661 1.29l-.347-3.985Zm1.024.49-3.397-5.137-3.337 2.207 3.398 5.137 3.336-2.207Zm-6.9-4.831-4.577 10.528 3.668 1.595 4.578-10.528-3.669-1.595Z" mask="url(#h)"/></g><path fill="#2B2233" d="M288.527 125.002c-.632.055-1.18.029-1.646-.08-.455-.109-.834-.261-1.138-.458a2.638 2.638 0 0 1-.69-.608c-.156-.209-.245-.387-.269-.534-.02-.115.003-.207.072-.277a.408.408 0 0 1 .259-.134l1.248-.108a.338.338 0 0 1 .112.006.392.392 0 0 1 .134.084l.458.326c.169.113.363.207.582.284.218.066.485.085.801.058.41-.036.746-.145 1.006-.327.27-.193.391-.442.365-.748a.763.763 0 0 0-.237-.52c-.127-.127-.359-.229-.695-.306-.336-.087-.81-.168-1.421-.242-.602-.086-1.107-.217-1.515-.394-.408-.177-.72-.415-.937-.714-.217-.3-.344-.66-.381-1.081a2.11 2.11 0 0 1 .262-1.201c.22-.401.561-.744 1.025-1.028.474-.285 1.074-.459 1.801-.523.568-.049 1.07-.018 1.504.093.433.1.796.243 1.088.43.302.186.537.383.704.592.165.197.26.375.285.532a.344.344 0 0 1-.07.293.382.382 0 0 1-.245.116l-1.169.102a.328.328 0 0 1-.145-.019.881.881 0 0 1-.133-.068 13.005 13.005 0 0 0-.408-.299 1.726 1.726 0 0 0-.533-.272c-.197-.068-.453-.088-.769-.061-.4.035-.698.151-.893.349a.794.794 0 0 0-.26.675.813.813 0 0 0 .184.461c.116.117.332.221.647.31.316.089.79.17 1.422.242.717.066 1.291.207 1.724.424.442.205.762.464.959.776.206.3.326.645.36 1.035.041.474-.064.913-.315 1.316-.241.403-.626.739-1.154 1.008-.519.257-1.178.421-1.979.49ZM282.342 125.381c-.632.055-1.174-.01-1.625-.193a2.128 2.128 0 0 1-1.048-.896c-.249-.424-.402-.963-.459-1.615l-.312-3.586-1.248.108a.369.369 0 0 1-.278-.087.386.386 0 0 1-.135-.275l-.078-.9a.36.36 0 0 1 .087-.278.362.362 0 0 1 .259-.134l1.248-.109-.228-2.622a.4.4 0 0 1 .071-.277.388.388 0 0 1 .275-.135l1.279-.111a.37.37 0 0 1 .279.087.37.37 0 0 1 .134.259l.227 2.622 1.975-.172a.365.365 0 0 1 .278.088c.08.067.125.153.134.259l.078.9a.387.387 0 0 1-.085.294.37.37 0 0 1-.259.134l-1.975.172.298 3.427c.037.432.14.763.309.992.179.229.458.326.837.294l1.09-.095a.369.369 0 0 1 .278.087c.08.067.125.154.134.259l.085.979a.367.367 0 0 1-.087.278.363.363 0 0 1-.259.134l-1.279.112ZM269.182 126.524a.365.365 0 0 1-.278-.087.365.365 0 0 1-.134-.259l-.909-10.457a.364.364 0 0 1 .088-.278.365.365 0 0 1 .258-.134l1.406-.122a.335.335 0 0 1 .279.087c.08.067.124.153.133.259l.314 3.601c.255-.361.578-.665.971-.912.392-.246.888-.395 1.489-.447.642-.056 1.213.043 1.713.296.509.243.918.616 1.227 1.119.309.504.496 1.124.56 1.861l.385 4.439a.363.363 0 0 1-.087.278.362.362 0 0 1-.259.134l-1.421.124a.37.37 0 0 1-.279-.087.373.373 0 0 1-.134-.259l-.377-4.344c-.053-.611-.248-1.077-.583-1.398-.325-.322-.772-.458-1.341-.409-.547.048-.975.26-1.281.637-.297.376-.418.869-.365 1.48l.377 4.344a.365.365 0 0 1-.087.278.336.336 0 0 1-.259.134l-1.406.122ZM263.068 130.557c-.769.067-1.41.022-1.922-.135-.513-.157-.923-.365-1.232-.625a2.923 2.923 0 0 1-.691-.8c-.139-.263-.221-.474-.245-.631a.358.358 0 0 1 .07-.292.427.427 0 0 1 .274-.136l1.375-.119a.457.457 0 0 1 .258.041.581.581 0 0 1 .181.255c.075.131.172.272.291.42.12.149.289.267.509.354.231.097.536.129.915.096.4-.035.732-.122.996-.262s.452-.352.565-.638c.124-.287.165-.672.123-1.157l-.094-1.074a2.815 2.815 0 0 1-.915.828c-.373.223-.849.36-1.428.41-.558.049-1.056.002-1.493-.14a2.94 2.94 0 0 1-1.094-.685 3.647 3.647 0 0 1-.734-1.13 5.973 5.973 0 0 1-.368-1.48c-.035-.284-.06-.568-.074-.853a5.908 5.908 0 0 1 .109-1.49c.108-.466.285-.879.529-1.24.244-.371.563-.669.957-.894.405-.227.886-.364 1.444-.412.601-.053 1.116.019 1.547.215.43.186.791.435 1.084.75l-.055-.632a.384.384 0 0 1 .086-.294.365.365 0 0 1 .259-.134l1.279-.111a.369.369 0 0 1 .278.087c.08.067.126.159.136.275l.677 7.612c.066.758-.019 1.424-.256 1.996a2.905 2.905 0 0 1-1.186 1.376c-.542.355-1.26.572-2.155.649Zm-.531-5.19c.432-.037.771-.162 1.018-.375.246-.212.42-.477.52-.793a2.98 2.98 0 0 0 .14-.951 7.074 7.074 0 0 0-.03-.523 6.511 6.511 0 0 0-.059-.504 2.832 2.832 0 0 0-.303-.913 1.696 1.696 0 0 0-.649-.691c-.28-.178-.637-.248-1.068-.21-.432.038-.771.168-1.017.391a1.587 1.587 0 0 0-.503.807 4.08 4.08 0 0 0-.099 1.059c.001.255.024.513.068.775.053.366.146.708.28 1.026.143.305.355.542.635.708.279.167.635.232 1.067.194ZM255.267 127.734a.369.369 0 0 1-.278-.087.37.37 0 0 1-.134-.259l-.648-7.456a.367.367 0 0 1 .087-.278.365.365 0 0 1 .259-.134l1.311-.114a.339.339 0 0 1 .279.087c.08.067.124.154.133.259l.649 7.456a.365.365 0 0 1-.088.278.335.335 0 0 1-.259.134l-1.311.114Zm-.895-9.567a.365.365 0 0 1-.278-.088.365.365 0 0 1-.134-.259l-.099-1.137a.369.369 0 0 1 .087-.278.37.37 0 0 1 .259-.134l1.438-.125a.388.388 0 0 1 .294.086.37.37 0 0 1 .134.259l.098 1.137a.36.36 0 0 1-.087.278.387.387 0 0 1-.274.136l-1.438.125ZM249.606 128.385c-.631.055-1.18.028-1.646-.08-.455-.109-.834-.261-1.138-.458-.303-.196-.533-.399-.689-.608-.157-.21-.246-.388-.27-.534-.02-.115.004-.207.072-.277a.403.403 0 0 1 .259-.134l1.248-.108a.338.338 0 0 1 .112.006.392.392 0 0 1 .134.084c.147.104.3.212.458.326.169.113.363.207.582.284.218.066.485.085.801.057.411-.035.746-.144 1.006-.326.27-.193.391-.442.365-.748a.762.762 0 0 0-.236-.52c-.128-.127-.36-.229-.696-.306-.336-.087-.81-.168-1.421-.242-.602-.086-1.107-.217-1.515-.394-.408-.177-.72-.415-.937-.714-.217-.3-.344-.66-.381-1.081a2.11 2.11 0 0 1 .262-1.201c.22-.401.562-.744 1.025-1.028.474-.285 1.074-.46 1.801-.523.568-.049 1.07-.018 1.504.092.433.101.796.244 1.088.431.302.186.537.383.704.591.166.198.261.376.285.533a.341.341 0 0 1-.07.292.378.378 0 0 1-.245.117l-1.169.102a.316.316 0 0 1-.145-.02.797.797 0 0 1-.133-.068 14.89 14.89 0 0 0-.408-.298 1.715 1.715 0 0 0-.533-.272c-.197-.068-.453-.088-.769-.061-.4.035-.698.151-.893.348a.8.8 0 0 0-.26.675c.016.18.077.333.184.462.116.117.332.221.647.31.316.089.79.17 1.422.242.717.065 1.291.206 1.724.423.442.206.762.465.959.777.206.3.326.645.36 1.035.042.474-.064.912-.315 1.316-.241.403-.625.739-1.154 1.008-.519.257-1.178.42-1.979.49ZM237.002 129.321a.365.365 0 0 1-.278-.087.367.367 0 0 1-.134-.259l-.648-7.456a.369.369 0 0 1 .087-.278.37.37 0 0 1 .259-.134l1.296-.113a.365.365 0 0 1 .278.088c.08.067.125.153.134.259l.056.647c.245-.36.568-.67.97-.928.412-.269.933-.431 1.565-.486.643-.056 1.213.043 1.713.297.499.243.897.617 1.196 1.122.309.503.495 1.124.559 1.861l.386 4.439a.369.369 0 0 1-.087.278.367.367 0 0 1-.259.134l-1.39.121a.365.365 0 0 1-.278-.088.365.365 0 0 1-.134-.258l-.378-4.345c-.053-.61-.247-1.076-.583-1.397-.325-.322-.772-.458-1.34-.409-.548.048-.97.259-1.266.635-.296.376-.418.87-.365 1.48l.378 4.344a.368.368 0 0 1-.088.279.369.369 0 0 1-.259.134l-1.39.12ZM232.471 129.715a.369.369 0 0 1-.278-.087.367.367 0 0 1-.134-.259l-.895-10.299a.367.367 0 0 1 .087-.278.365.365 0 0 1 .259-.134l1.485-.129a.332.332 0 0 1 .278.087c.08.067.125.153.134.259l.895 10.299a.365.365 0 0 1-.087.278.333.333 0 0 1-.259.134l-1.485.129Z"/><g clip-path="url(#i)"><rect width="105.378" height="35" x="233.768" y="67" fill="#fff" rx="5" transform="rotate(4.537 233.768 67)"/><path fill="#F14499" d="M258.786 97.076a2 2 0 0 1-2.915 1.127l-12.203-7.113a2 2 0 0 1-.854-2.462l4.144-10.509a2 2 0 0 1 2.594-1.126l12.11 4.775a2 2 0 0 1 1.174 2.462l-4.05 12.846Z" opacity=".5"/><circle cx="252.5" cy="83.5" r="5.5" fill="#fff"/><g clip-path="url(#j)"><mask id="k" fill="#fff"><path fill-rule="evenodd" d="M248.371 88.688a6.624 6.624 0 0 0 7.734.34l5.054 5.979a.814.814 0 0 0 .564.288.82.82 0 0 0 .607-.25.829.829 0 0 0 .092-1.167l-5.055-5.926a6.62 6.62 0 0 0-9.19-9.5 6.624 6.624 0 0 0 .194 10.236Zm1.698-9.5a4.923 4.923 0 1 1 4.788 8.605 4.923 4.923 0 0 1-4.788-8.604Z" clip-rule="evenodd"/></mask><path fill="#fff" fill-rule="evenodd" d="M248.371 88.688a6.624 6.624 0 0 0 7.734.34l5.054 5.979a.814.814 0 0 0 .564.288.82.82 0 0 0 .607-.25.829.829 0 0 0 .092-1.167l-5.055-5.926a6.62 6.62 0 0 0-9.19-9.5 6.624 6.624 0 0 0 .194 10.236Zm1.698-9.5a4.923 4.923 0 1 1 4.788 8.605 4.923 4.923 0 0 1-4.788-8.604Z" clip-rule="evenodd"/><path fill="#D1056B" d="m248.371 88.688 1.549-1.962-1.549 1.962Zm7.734.34 1.91-1.614-1.429-1.69-1.851 1.213 1.37 2.091Zm5.054 5.979 1.912-1.61-.003-.004-1.909 1.614Zm.253.201-1.138 2.226 1.138-2.226Zm.311.087-.186 2.493.066.005.066.002.054-2.5Zm.33-.061.955 2.31-.955-2.31Zm.277-.19-1.624-1.9-.094.08-.086.089 1.804 1.731Zm.092-1.166 1.903-1.621-.001-.001-1.902 1.622Zm-5.055-5.926-1.847-1.684-1.486 1.63 1.431 1.677 1.902-1.623Zm.887-7.693-2.182 1.22 2.182-1.22Zm-6.554-3.345-.292-2.483.292 2.483Zm-3.523 1.538 1.622 1.903-1.622-1.903Zm-2.075 3.237-2.405-.68 2.405.68Zm3.967-2.5 1.216 2.184-1.216-2.184Zm2.795-.605-.204 2.491.204-2.491Zm4.506 5.295-2.492-.198 2.492.198Zm-1.044 2.661-1.962-1.549 1.962 1.55Zm-9.504 4.11a9.125 9.125 0 0 0 4.931 1.934l.395-4.984a4.125 4.125 0 0 1-2.228-.874l-3.098 3.924Zm4.931 1.934a9.12 9.12 0 0 0 5.723-1.465l-2.741-4.181a4.124 4.124 0 0 1-2.587.662l-.395 4.984Zm2.443-1.942 5.054 5.979 3.818-3.228-5.053-5.979-3.819 3.228Zm5.051 5.976c.284.337.634.615 1.027.816l2.276-4.452c.2.102.377.243.521.414l-3.824 3.222Zm1.027.816a3.31 3.31 0 0 0 1.263.354l.372-4.986c.223.017.441.078.641.18l-2.276 4.452Zm1.395.36c.459.01.915-.075 1.339-.25l-1.911-4.62c.216-.09.447-.133.68-.128l-.108 4.999Zm1.339-.25a3.32 3.32 0 0 0 1.125-.768l-3.607-3.463c.162-.168.356-.3.571-.39l1.911 4.62Zm.945-.599a3.323 3.323 0 0 0 1.156-2.267l-4.984-.395c.035-.442.244-.852.581-1.14l3.247 3.802Zm1.156-2.267c.07-.879-.212-1.75-.784-2.421l-3.806 3.242a1.674 1.674 0 0 1-.394-1.216l4.984.395Zm-.785-2.422-5.055-5.926-3.804 3.245 5.055 5.926 3.804-3.245Zm-5.109-2.62a9.125 9.125 0 0 0 2.353-5.424l-4.985-.395a4.114 4.114 0 0 1-1.063 2.45l3.695 3.37Zm2.353-5.424a9.124 9.124 0 0 0-1.132-5.174l-4.364 2.44c.398.712.576 1.526.511 2.339l4.985.395Zm-1.132-5.174a9.124 9.124 0 0 0-3.815-3.672l-2.273 4.453c.726.37 1.326.948 1.724 1.66l4.364-2.44Zm-3.815-3.672a9.122 9.122 0 0 0-5.213-.935l.584 4.966c.81-.095 1.63.051 2.356.422l2.273-4.454Zm-5.213-.935a9.118 9.118 0 0 0-4.853 2.12l3.244 3.803a4.126 4.126 0 0 1 2.193-.957l-.584-4.966Zm-4.853 2.12a9.114 9.114 0 0 0-2.858 4.458l4.811 1.36a4.124 4.124 0 0 1 1.291-2.014l-3.244-3.805Zm-2.858 4.458a9.124 9.124 0 0 0 .1 5.295l4.756-1.542a4.124 4.124 0 0 1-.045-2.393l-4.811-1.36Zm.1 5.295a9.126 9.126 0 0 0 3.025 4.346l3.098-3.924a4.132 4.132 0 0 1-1.367-1.964l-4.756 1.542Zm7.488-4.93a2.424 2.424 0 0 1 1.375-.299l.407-4.983a7.42 7.42 0 0 0-4.213.912l2.431 4.37Zm1.375-.299c.64.053 1.232.356 1.648.845l3.808-3.24a7.423 7.423 0 0 0-5.049-2.588l-.407 4.983Zm1.648.845a2.42 2.42 0 0 1 .57 1.761l4.984.396a7.42 7.42 0 0 0-1.746-5.398l-3.808 3.24Zm.57 1.761a2.424 2.424 0 0 1-.514 1.31l3.924 3.1a7.423 7.423 0 0 0 1.574-4.014l-4.984-.396Zm-.514 1.31a2.421 2.421 0 0 1-1.155.803l1.539 4.757a7.42 7.42 0 0 0 3.54-2.46l-3.924-3.1Zm-1.155.803a2.423 2.423 0 0 1-1.407.026l-1.364 4.81c1.413.401 2.913.374 4.31-.079l-1.539-4.757Zm-1.407.026a2.418 2.418 0 0 1-1.183-.76l-3.808 3.24a7.422 7.422 0 0 0 3.627 2.33l1.364-4.81Zm-1.183-.76a2.425 2.425 0 0 1-.562-1.29l-4.966.577a7.416 7.416 0 0 0 1.72 3.953l3.808-3.24Zm-.562-1.29a2.422 2.422 0 0 1 .251-1.385l-4.45-2.28a7.418 7.418 0 0 0-.767 4.242l4.966-.578Zm.251-1.385c.218-.427.558-.779.977-1.012l-2.431-4.369a7.42 7.42 0 0 0-2.996 3.1l4.45 2.28Z" mask="url(#k)"/></g><path fill="#2B2233" d="M317.839 96.94c-1.052-.084-1.862-.453-2.43-1.11-.568-.655-.832-1.544-.79-2.666a3.46 3.46 0 0 1 .014-.357 3.51 3.51 0 0 1 .042-.354c.095-.718.305-1.321.63-1.81.335-.499.77-.865 1.304-1.1.534-.243 1.148-.338 1.84-.283.768.061 1.399.273 1.895.637.497.354.855.826 1.076 1.416.221.58.302 1.24.243 1.98l-.023.299a.335.335 0 0 1-.119.234.349.349 0 0 1-.264.08l-4.721-.376-.004.043-.005.071c-.017.333.02.646.111.94.102.284.259.52.473.71.224.189.497.296.819.322.265.021.491 0 .677-.06a1.842 1.842 0 0 0 .726-.486c.094-.108.166-.17.215-.184a.552.552 0 0 1 .245-.024l1.223.097a.31.31 0 0 1 .221.104.233.233 0 0 1 .068.22c-.021.15-.117.33-.286.535a2.639 2.639 0 0 1-.676.59 3.687 3.687 0 0 1-1.08.444c-.418.1-.893.13-1.424.088Zm-1.209-4.604 3.143.25.004-.043a2.35 2.35 0 0 0-.109-.982 1.424 1.424 0 0 0-.488-.697 1.484 1.484 0 0 0-.834-.31 1.488 1.488 0 0 0-.873.174 1.43 1.43 0 0 0-.592.612 2.53 2.53 0 0 0-.247.953l-.004.043ZM309.174 96.109a.33.33 0 0 1-.234-.119.328.328 0 0 1-.08-.25l.531-6.698a.345.345 0 0 1 .12-.248.329.329 0 0 1 .249-.08l1.152.091a.33.33 0 0 1 .234.119c.071.072.102.16.094.265l-.047.583c.243-.286.541-.496.895-.63a2.873 2.873 0 0 1 1.228-.146l.583.046a.304.304 0 0 1 .234.119.329.329 0 0 1 .08.25l-.081 1.023a.331.331 0 0 1-.119.234.302.302 0 0 1-.25.08l-1.109-.087c-.455-.036-.821.063-1.097.299-.266.227-.417.568-.453 1.023l-.31 3.91a.335.335 0 0 1-.119.235.349.349 0 0 1-.264.079l-1.237-.098ZM303.676 95.816c-.759-.06-1.388-.244-1.888-.55a2.819 2.819 0 0 1-1.091-1.218c-.228-.505-.334-1.08-.321-1.728.004-.172.016-.38.035-.627.02-.247.041-.455.064-.625.09-.65.291-1.203.604-1.655a2.91 2.91 0 0 1 1.283-1.028c.543-.225 1.184-.307 1.923-.249.74.059 1.355.241 1.846.547.5.307.869.713 1.105 1.219.247.496.363 1.073.349 1.73-.004.172-.015.38-.035.627-.02.247-.041.455-.064.625-.089.641-.29 1.193-.603 1.655a2.717 2.717 0 0 1-1.27 1.03c-.533.224-1.179.307-1.937.247Zm.112-1.408c.502.04.903-.086 1.203-.377.301-.3.489-.758.567-1.372a8.53 8.53 0 0 0 .058-.553c.018-.228.028-.413.03-.556.02-.618-.095-1.095-.345-1.43-.249-.344-.625-.536-1.127-.576-.503-.04-.904.09-1.205.391-.3.291-.488.744-.566 1.358-.02.141-.04.326-.058.553a8.925 8.925 0 0 0-.03.556c-.02.618.094 1.1.344 1.444.25.335.626.522 1.129.562ZM297.008 95.144a.33.33 0 0 1-.233-.12.33.33 0 0 1-.081-.249l.747-9.414a.331.331 0 0 1 .119-.234.331.331 0 0 1 .25-.08l1.18.093a.33.33 0 0 1 .234.12.328.328 0 0 1 .08.249l-.747 9.414a.327.327 0 0 1-.119.234.328.328 0 0 1-.249.08l-1.181-.093ZM288.059 97.152a.33.33 0 0 1-.234-.118.333.333 0 0 1-.081-.25l.747-9.414a.335.335 0 0 1 .119-.234.331.331 0 0 1 .25-.08l1.123.089a.301.301 0 0 1 .234.118.328.328 0 0 1 .08.25l-.045.569c.252-.285.571-.513.956-.683.386-.17.853-.233 1.403-.189.503.04.932.155 1.289.346.357.19.647.447.869.77.224.313.385.68.486 1.097.1.418.14.875.12 1.37a8.703 8.703 0 0 1-.08 1.009 4.56 4.56 0 0 1-.318 1.306 3.189 3.189 0 0 1-.667 1.006c-.27.274-.596.482-.98.623-.383.142-.826.192-1.328.152-.512-.04-.941-.165-1.287-.374a2.596 2.596 0 0 1-.823-.81l-.256 3.23a.331.331 0 0 1-.119.233.302.302 0 0 1-.25.08l-1.208-.096Zm3.537-3.826c.408.032.732-.028.974-.18.241-.162.426-.382.553-.658.126-.276.213-.584.259-.924.032-.283.055-.568.068-.853a3.24 3.24 0 0 0-.111-.953 1.464 1.464 0 0 0-.443-.722c-.214-.198-.524-.314-.932-.346-.388-.03-.713.034-.974.195a1.61 1.61 0 0 0-.581.655 2.897 2.897 0 0 0-.253.838 10.854 10.854 0 0 0-.087 1.095 2.12 2.12 0 0 0 .134.84c.103.267.266.494.489.684.224.19.525.299.904.329ZM279.577 93.76a.34.34 0 0 1-.22-.103.344.344 0 0 1-.045-.333c.021-.036.054-.081.096-.135l2.675-3.05-2.005-3.222a1.813 1.813 0 0 1-.061-.134.445.445 0 0 1-.006-.115.29.29 0 0 1 .103-.206.313.313 0 0 1 .235-.082l1.237.098c.114.01.197.045.249.106a.839.839 0 0 1 .116.167l1.438 2.26 1.776-2.005c.042-.045.088-.094.14-.147.062-.052.149-.074.263-.065l1.18.094a.27.27 0 0 1 .206.116c.062.063.09.132.084.207a.287.287 0 0 1-.039.126.477.477 0 0 1-.067.124l-2.519 2.89 2.177 3.408c.033.06.053.109.059.148.016.039.023.073.021.101a.314.314 0 0 1-.118.22.289.289 0 0 1-.22.068l-1.294-.102a.369.369 0 0 1-.236-.09 2.232 2.232 0 0 1-.13-.168l-1.527-2.397-1.914 2.124a1.93 1.93 0 0 1-.155.145c-.051.043-.133.06-.247.052l-1.252-.1ZM271.556 93.124a.33.33 0 0 1-.234-.119.333.333 0 0 1-.081-.25l.735-9.257a.345.345 0 0 1 .12-.248.329.329 0 0 1 .249-.08l6.258.496a.348.348 0 0 1 .248.12c.061.071.087.16.079.264l-.075.938a.33.33 0 0 1-.118.234.349.349 0 0 1-.264.08l-4.679-.372-.2 2.517 4.366.347a.346.346 0 0 1 .248.12.303.303 0 0 1 .081.25l-.07.88a.345.345 0 0 1-.12.249.382.382 0 0 1-.263.065l-4.366-.347-.206 2.603 4.792.38a.346.346 0 0 1 .248.12.35.35 0 0 1 .08.264l-.075.939a.327.327 0 0 1-.119.233.345.345 0 0 1-.263.08l-6.371-.506Z"/></g><rect width="104.378" height="34" x="234.227" y="67.538" stroke="#E0DCE5" rx="4.5" transform="rotate(4.537 234.227 67.538)"/><rect width="149" height="37.633" x="94.54" y="50.838" fill="#fff" rx="4.5" transform="rotate(-4.735 94.54 50.838)"/><rect width="149" height="37.633" x="94.54" y="50.838" stroke="#E0DCE5" rx="4.5" transform="rotate(-4.735 94.54 50.838)"/><path fill="#6C5FC7" fill-opacity=".5" d="M136.606 75.309a2 2 0 0 1-1.531 2.256l-19.722 4.505a2 2 0 0 1-2.425-1.665L110.303 62.2a2 2 0 0 1 1.815-2.278l19.964-1.654a2 2 0 0 1 2.142 1.686l2.382 15.356Z" opacity=".5"/><path fill="#2B2233" d="M194.097 67.599c-.711.059-1.328.026-1.852-.097-.511-.125-.937-.299-1.278-.521-.341-.222-.598-.452-.773-.688-.175-.236-.275-.437-.301-.602-.022-.13.005-.233.082-.31a.454.454 0 0 1 .292-.15l1.405-.117a.396.396 0 0 1 .126.008c.036.009.087.04.151.095.165.117.336.24.514.369.189.127.407.235.653.322.245.075.545.098.901.068.462-.038.84-.159 1.133-.362.305-.216.443-.496.414-.84-.02-.249-.108-.445-.263-.587-.143-.143-.404-.259-.781-.347-.378-.1-.911-.193-1.598-.28-.677-.098-1.244-.248-1.703-.45-.458-.2-.808-.47-1.051-.807-.243-.338-.384-.744-.423-1.218a2.354 2.354 0 0 1 .3-1.35c.249-.45.635-.834 1.157-1.152.535-.319 1.211-.512 2.029-.58.64-.053 1.204-.016 1.692.11.487.115.894.279 1.222.49.34.21.603.434.79.669.185.223.291.423.318.6a.384.384 0 0 1-.08.329.427.427 0 0 1-.276.13l-1.316.11a.356.356 0 0 1-.163-.023.937.937 0 0 1-.149-.077c-.141-.108-.293-.22-.458-.338a1.942 1.942 0 0 0-.598-.309c-.222-.077-.51-.1-.866-.071-.45.037-.786.166-1.006.387a.895.895 0 0 0-.295.759.915.915 0 0 0 .204.52c.13.133.373.25.727.352.355.102.888.195 1.599.279.806.076 1.452.238 1.938.484.496.233.855.526 1.075.878.231.339.364.727.401 1.166a2.348 2.348 0 0 1-.361 1.48c-.273.452-.707.828-1.303 1.128-.585.287-1.328.468-2.229.543ZM184.315 68.41c-1.315.108-2.39-.185-3.223-.88-.833-.695-1.338-1.739-1.513-3.133a4.32 4.32 0 0 1-.054-.443 4.209 4.209 0 0 1-.019-.446c-.028-.905.11-1.692.413-2.361a3.752 3.752 0 0 1 1.387-1.619c.611-.409 1.349-.649 2.214-.72.96-.08 1.783.055 2.468.404a3.718 3.718 0 0 1 1.613 1.531c.39.672.623 1.47.7 2.395l.031.373a.413.413 0 0 1-.1.313.433.433 0 0 1-.309.15l-5.904.49.005.053.007.089c.046.414.155.793.327 1.137.183.33.425.591.727.78.314.19.673.267 1.076.234.332-.028.606-.098.824-.212.216-.125.39-.259.521-.4.132-.143.224-.258.276-.346.095-.151.171-.24.228-.27a.698.698 0 0 1 .298-.078l1.529-.126a.387.387 0 0 1 .294.083c.089.064.132.15.129.257.003.191-.078.43-.245.719-.155.287-.394.576-.716.865-.323.29-.737.544-1.244.765-.496.209-1.076.34-1.74.395Zm-2.419-5.44 3.929-.325-.004-.054c-.038-.462-.149-.859-.331-1.19a1.792 1.792 0 0 0-.744-.762c-.313-.177-.677-.248-1.092-.213-.415.034-.762.164-1.042.39-.28.214-.483.506-.607.874-.114.356-.152.765-.114 1.227l.005.053ZM172.721 69.37c-.723.06-1.365-.049-1.925-.325a3.303 3.303 0 0 1-1.324-1.286c-.334-.581-.535-1.28-.603-2.099l-.414-4.996a.412.412 0 0 1 .099-.313.416.416 0 0 1 .292-.15l1.565-.129a.378.378 0 0 1 .313.1c.09.076.139.173.149.292l.405 4.89c.122 1.47.829 2.15 2.121 2.044.616-.051 1.086-.287 1.409-.708.335-.421.474-.976.417-1.664l-.405-4.89a.417.417 0 0 1 .1-.312.412.412 0 0 1 .292-.15l1.565-.129a.412.412 0 0 1 .312.1c.09.076.14.173.15.291l.695 8.393a.413.413 0 0 1-.1.313.412.412 0 0 1-.292.149l-1.44.12a.435.435 0 0 1-.33-.099.451.451 0 0 1-.132-.293l-.06-.73c-.286.442-.656.801-1.111 1.078-.454.276-1.037.443-1.748.502ZM163.329 70.147c-.712.06-1.329.027-1.852-.097-.512-.125-.938-.298-1.279-.52-.341-.223-.598-.453-.773-.689-.175-.236-.275-.436-.3-.601-.023-.13.004-.233.081-.311a.456.456 0 0 1 .292-.15l1.405-.116a.398.398 0 0 1 .126.007c.036.01.087.04.151.095.165.118.336.24.514.37.189.127.407.234.653.321.245.075.545.098.901.069.462-.038.84-.16 1.134-.363.304-.216.442-.496.413-.84-.02-.249-.108-.444-.263-.587-.143-.143-.403-.258-.781-.347-.378-.1-.911-.193-1.598-.279-.677-.099-1.244-.249-1.702-.45-.459-.2-.809-.47-1.052-.808-.243-.338-.384-.744-.423-1.218a2.369 2.369 0 0 1 .3-1.35c.249-.45.635-.834 1.158-1.152.534-.319 1.21-.512 2.028-.58.64-.053 1.204-.016 1.692.111.487.115.895.278 1.222.49.34.21.603.433.79.668.185.224.291.424.318.6a.381.381 0 0 1-.08.33.426.426 0 0 1-.276.13l-1.316.109a.357.357 0 0 1-.163-.023.93.93 0 0 1-.149-.077c-.14-.108-.293-.22-.458-.338a1.945 1.945 0 0 0-.598-.308c-.222-.078-.51-.101-.866-.072-.45.037-.785.167-1.006.388a.895.895 0 0 0-.295.758.923.923 0 0 0 .204.52c.131.133.373.25.728.352.354.102.887.195 1.598.28.806.076 1.452.237 1.938.483.497.234.855.526 1.075.878.231.339.365.728.401 1.166a2.348 2.348 0 0 1-.361 1.48c-.273.453-.707.829-1.303 1.129-.585.287-1.328.468-2.228.542ZM153.865 70.931c-.711.059-1.328.026-1.852-.097-.511-.125-.938-.299-1.278-.52-.341-.223-.599-.453-.773-.689-.175-.236-.275-.437-.301-.602-.022-.129.005-.233.082-.31a.453.453 0 0 1 .292-.15l1.405-.117a.39.39 0 0 1 .125.008c.037.009.087.04.152.095.164.117.336.24.513.37.19.127.408.234.654.32.245.076.545.099.901.07.462-.039.84-.16 1.133-.363.305-.216.442-.496.414-.84-.021-.249-.108-.444-.263-.587-.144-.143-.404-.259-.781-.347-.378-.1-.911-.193-1.599-.28-.676-.098-1.244-.248-1.702-.449-.458-.2-.809-.47-1.051-.808-.243-.338-.384-.744-.424-1.218a2.37 2.37 0 0 1 .3-1.35c.25-.45.635-.834 1.158-1.152.535-.319 1.211-.512 2.029-.58.64-.053 1.204-.016 1.692.11.487.116.894.279 1.222.49.34.211.603.434.789.669.186.223.292.424.319.6a.382.382 0 0 1-.081.33.426.426 0 0 1-.275.13l-1.316.108a.354.354 0 0 1-.163-.022.99.99 0 0 1-.15-.077c-.14-.108-.292-.22-.457-.338a1.95 1.95 0 0 0-.599-.309c-.221-.077-.509-.1-.865-.071-.45.037-.786.166-1.006.388a.892.892 0 0 0-.295.758.909.909 0 0 0 .204.52c.13.133.373.25.727.352.355.102.888.195 1.599.28.806.076 1.452.237 1.937.483.497.233.856.526 1.076.878.231.339.364.727.401 1.166a2.348 2.348 0 0 1-.361 1.48c-.273.452-.707.828-1.303 1.128-.585.287-1.328.468-2.229.543ZM145.674 71.43a.413.413 0 0 1-.312-.099.414.414 0 0 1-.15-.292l-.96-11.593a.41.41 0 0 1 .1-.313.412.412 0 0 1 .292-.15l1.671-.137c.13-.011.234.022.312.099.09.076.14.173.15.292l.96 11.593a.412.412 0 0 1-.099.313.378.378 0 0 1-.292.149l-1.672.138Z"/><path fill="#fff" d="m115.534 59.2 16.75-1.386 1.387 16.75-16.751 1.387z"/><g clip-path="url(#l)"><path fill="#6C5FC7" fill-rule="evenodd" d="m119.101 76.974 12.563-1.04a3.296 3.296 0 0 0 2.251-1.147 3.312 3.312 0 0 0 .78-2.404l-.419-5.065a.899.899 0 0 0-.071-.853l-.55-6.645a3.288 3.288 0 0 0-1.157-2.258 3.299 3.299 0 0 0-2.418-.77l-12.563 1.039a3.296 3.296 0 0 0-2.243 1.164 3.306 3.306 0 0 0-.762 2.41l.573 6.926a.881.881 0 0 0 .024.289l.442 5.347a3.3 3.3 0 0 0 3.55 3.007Zm-2.147-7.749.38 4.595a1.5 1.5 0 0 0 1.619 1.372l12.563-1.04a1.503 1.503 0 0 0 1.372-1.62l-.38-4.594-2.979.247.14 1.687a1.503 1.503 0 0 1-1.324 1.615l-6.701.555a1.498 1.498 0 0 1-1.619-1.372l-.14-1.687-2.931.242Zm-.149-1.794 3.889-.322a.912.912 0 0 1 .972.823l.189 2.285 6.102-.505-.189-2.285a.909.909 0 0 1 .823-.972l3.768-.311-.114-1.389-15.555 1.288.115 1.388Zm-.16-7.268a1.5 1.5 0 0 1 1.021-.525l12.563-1.04a1.501 1.501 0 0 1 1.594 1.193l-15.533 1.285c.013-.334.137-.656.355-.913Zm-.217 2.709 15.554-1.287.114 1.376-15.554 1.287-.114-1.376Z" clip-rule="evenodd"/></g></g></g><defs><clipPath id="a"><path fill="#fff" d="M0 0h424v196H0z"/></clipPath><clipPath id="d"><rect width="123.097" height="33" x="92.582" y="108.368" fill="#fff" rx="5" transform="rotate(7.982 92.582 108.368)"/></clipPath><clipPath id="e"><path fill="#fff" d="m102.367 118 16.882 2.367-2.367 16.882L100 134.882z"/></clipPath><clipPath id="g"><path fill="#fff" d="m200.438 116.628 19.128-1.663 1.662 19.128-19.127 1.663z"/></clipPath><clipPath id="i"><rect width="105.378" height="35" x="233.768" y="67" fill="#fff" rx="5" transform="rotate(4.537 233.768 67)"/></clipPath><clipPath id="j"><path fill="#fff" d="M246.397 76.366 264 77.762l-1.397 17.603L245 93.968z"/></clipPath><clipPath id="l"><path fill="#fff" d="m114.239 58.102 19.144-1.584 1.584 19.144-19.144 1.584z"/></clipPath><linearGradient id="c" x1="0" x2="149.303" y1="196" y2="-126.982" gradientUnits="userSpaceOnUse"><stop stop-color="#6A5FC1"/><stop offset=".49" stop-color="#FF5980"/><stop offset="1" stop-color="#F1B71C"/></linearGradient></defs></svg>