<svg width="648" height="486" viewBox="0 0 648 486" fill="none" xmlns="http://www.w3.org/2000/svg">
<path d="M533.241 436.302C527.895 437.595 520.796 439.271 519.491 439.271C517.368 439.271 501.25 430.392 499.899 429.523C498.548 428.654 488.125 412.247 485.615 409.738C483.361 407.483 473.859 399.151 471.954 397.483C471.677 397.24 471.467 396.942 471.346 396.594C470.694 394.719 469.527 388.804 473.744 383.776C478.763 377.792 484.69 378.951 485.925 379.53C487.16 380.109 500.864 389.663 503.663 392.848C506.462 396.033 515.824 410.993 518.333 411.861C520.842 412.73 524.22 413.116 525.475 413.212C526.73 413.309 538.215 410.221 538.215 410.221" fill="#FCA9CB"/>
<path d="M84.257 56.446L111.612 347.78C111.612 347.78 495.843 462.316 500.058 458.569C506.436 452.898 573.679 54.8149 567.078 55.0782L84.257 56.446Z" fill="#FCA9CB"/>
<path d="M485.615 409.738C483.361 407.483 473.859 399.151 471.954 397.483C471.677 397.24 471.467 396.942 471.346 396.594C470.694 394.719 469.527 388.805 473.744 383.776C478.763 377.792 484.689 378.951 485.925 379.53C487.16 380.109 500.865 389.663 503.663 392.848C504.977 394.344 507.739 398.435 510.558 402.445L527.276 394.352L523.95 119.216L244.874 33.6816L218.971 42.2351V50.7885L148.675 160.558L153.422 178.273L193.051 206.569L191.726 297.054L407.527 452.325L488.32 413.211C487.147 411.574 486.18 410.303 485.615 409.738Z" fill="#E7E1EC"/>
<path d="M243.471 103.758C265.483 117.353 255.82 140.331 251.24 146.056C242.608 156.846 222.538 164.831 206.352 151.883C195.617 143.295 193.619 126.633 201.173 114.764C212.399 97.1219 233.078 97.3384 243.471 103.758Z" fill="#69C289"/>
<path d="M218.971 50.7885L471.758 149.209V137.068L218.971 42.2351" fill="#DAC5F9"/>
<path d="M148.675 160.558L349.676 295.037L351.687 303.666L356.207 323.062L153.422 178.273L148.675 160.558Z" fill="#DAC5F9"/>
<path d="M356.207 323.062L411.329 295.037L407.527 452.325L191.726 297.054L193.051 206.569L356.207 323.062Z" fill="#DAC5F9"/>
<path d="M320.986 108.269L311.591 106.735C309.06 100.958 302.208 97.884 295.502 99.8005C288.235 101.877 283.903 109.019 285.828 115.752C287.752 122.485 295.202 126.26 302.469 124.184C307.972 122.611 311.784 118.134 312.479 113.13L320.986 108.269Z" fill="#B39ED3" stroke="#3F2B56" stroke-linecap="round" stroke-linejoin="round"/>
<path d="M181.152 161.571C187.896 159.644 191.915 153.016 190.129 146.768C188.344 140.52 181.43 137.017 174.687 138.944C167.943 140.871 163.924 147.499 165.71 153.747C167.495 159.995 174.409 163.498 181.152 161.571Z" fill="#B39ED3" stroke="#3F2B56" stroke-linecap="round" stroke-linejoin="round"/>
<path d="M286.041 144.864C285.184 141.866 283.228 139.46 280.684 137.89L279.873 129.329L273.333 135.869C272.039 135.878 270.716 136.057 269.399 136.433C262.133 138.51 257.802 145.651 259.726 152.384C261.65 159.117 269.101 162.892 276.368 160.816C283.634 158.739 287.965 151.597 286.041 144.864Z" fill="#B39ED3" stroke="#3F2B56" stroke-linecap="round" stroke-linejoin="round"/>
<path d="M266.101 179.368C264.177 172.635 256.726 168.86 249.459 170.937C242.192 173.013 237.861 180.155 239.785 186.888C241.453 192.724 247.273 196.33 253.525 195.837L260.493 201.81L261.022 193.073C265.38 189.893 267.572 184.515 266.101 179.368Z" fill="#B39ED3" stroke="#3F2B56" stroke-linecap="round" stroke-linejoin="round"/>
<path d="M483.465 290.153L482.66 305.653L437.958 323.06L438.136 308.022L483.465 290.153Z" fill="#3F2B56" stroke="#3F2B56" stroke-linecap="round" stroke-linejoin="round"/>
<path d="M341.717 267.301L409.151 187.615L314.477 142.057L258.156 215.611L341.717 267.301Z" fill="#EBB432"/>
<path d="M416.146 177.992L442.913 147.269L345.365 107.701L324.603 131.674L416.146 177.992Z" fill="#E1557A"/>
<path d="M338.511 234.614L356.207 245.635L343.266 260.838L326.375 249.09L338.511 234.614Z" fill="#E1557A"/>
<path d="M304.709 182.952L292.301 175.839L304.709 159.599L317.424 165.992L304.709 182.952Z" fill="#E1557A"/>
<path d="M338.56 203.273L353.128 184.405L334.157 174.802L320.75 192.581L338.56 203.273Z" fill="#69C289"/>
<path d="M372.403 194.346L385.42 178.776L365.034 168.755L353.128 184.405L372.403 194.346Z" fill="#E1557A"/>
<path d="M356.207 323.062L351.687 303.666L349.676 295.037L148.675 160.558" stroke="#3F2B56" stroke-linecap="round" stroke-linejoin="round"/>
<path d="M349.676 295.037L471.758 149.209L524.075 129.628" stroke="#3F2B56" stroke-linecap="round" stroke-linejoin="round"/>
<path d="M218.971 50.7885L471.758 149.209V137.068L218.971 42.2351" stroke="#3F2B56" stroke-linecap="round" stroke-linejoin="round"/>
<path d="M471.758 137.068L523.949 119.216" stroke="#3F2B56" stroke-linecap="round" stroke-linejoin="round"/>
<path d="M193.051 206.569L356.207 323.062L411.329 295.037L407.527 452.325" stroke="#3F2B56" stroke-linecap="round" stroke-linejoin="round"/>
<path d="M341.717 267.301L409.151 187.615L314.477 142.057L258.156 215.611L341.717 267.301Z" stroke="#3F2B56" stroke-linecap="round" stroke-linejoin="round"/>
<path d="M334.157 120.643C334.157 120.643 347.743 119.121 351.213 120.9C357.95 124.356 355.186 136.449 361.06 139.386C367.557 142.635 388.32 136.99 393.885 139.904C401.141 143.705 401.533 158.627 408.915 161.845C415.653 164.782 431.335 160.558 431.335 160.558" stroke="#3F2B56" stroke-linecap="round" stroke-linejoin="round"/>
<path d="M326.375 129.628C326.375 129.628 358.296 126.083 363.651 128.847C369.557 131.896 369.871 147.506 376.781 149.751C387.017 153.078 401.023 141.17 409.779 145.778C416.344 149.233 420.836 172.609 420.836 172.609" stroke="#E7E1EC" stroke-miterlimit="10"/>
<path d="M364.619 203.568C373.076 193.543 379.719 185.686 379.719 185.686" stroke="#3F2B56" stroke-linecap="round" stroke-linejoin="round"/>
<path d="M329.445 245.635C329.546 245.227 346.988 224.48 361.297 207.508" stroke="#3F2B56" stroke-linecap="round" stroke-linejoin="round"/>
<path d="M334.103 174.594L382.746 199.68" stroke="#3F2B56" stroke-linecap="round" stroke-linejoin="round"/>
<path d="M308.713 161.499L323.546 169.149" stroke="#3F2B56" stroke-linecap="round" stroke-linejoin="round"/>
<path d="M360.542 174.802L332.262 211.43" stroke="#3F2B56" stroke-linecap="round" stroke-linejoin="round"/>
<path d="M307.055 184.36L296.447 177.992" stroke="#3F2B56" stroke-linecap="round" stroke-linejoin="round"/>
<path d="M368.834 221.448L343.076 205.985" stroke="#3F2B56" stroke-linecap="round" stroke-linejoin="round"/>
<path d="M322.118 224.85L352.595 243.003" stroke="#3F2B56" stroke-linecap="round" stroke-linejoin="round"/>
<path d="M279.862 199.68L296.447 209.559" stroke="#3F2B56" stroke-linecap="round" stroke-linejoin="round"/>
<path d="M281.935 213.328L321.498 160.558" stroke="#3F2B56" stroke-linecap="round" stroke-linejoin="round"/>
<path d="M334.157 174.49C338.455 168.698 341.365 164.782 341.365 164.782" stroke="#3F2B56" stroke-linecap="round" stroke-linejoin="round"/>
<path d="M416.146 177.992L442.913 147.269L345.365 107.701L324.603 131.674L416.146 177.992Z" stroke="#3F2B56" stroke-linecap="round" stroke-linejoin="round"/>
<path d="M376.897 312.543L390.813 320.454L388.649 415.459L308.143 360.274V291.671" stroke="#3F2B56" stroke-linecap="round" stroke-linejoin="round"/>
<path d="M346.881 331.058L371.552 346.856V389.706" stroke="#3F2B56" stroke-linecap="round" stroke-linejoin="round"/>
<path d="M370.037 393.385L344.717 374.557L345.799 335.17" stroke="#3F2B56" stroke-linecap="round" stroke-linejoin="round"/>
<path d="M345.526 345.124L371.552 361.356" stroke="#3F2B56" stroke-linecap="round" stroke-linejoin="round"/>
<path d="M380.546 402.228C381.7 401.834 382.181 400.185 381.621 398.545C381.061 396.905 379.671 395.895 378.517 396.289C377.363 396.683 376.882 398.332 377.443 399.972C378.003 401.612 379.393 402.622 380.546 402.228Z" stroke="#3F2B56" stroke-linecap="round" stroke-linejoin="round"/>
<path d="M382.617 326.951C383.771 326.557 384.252 324.908 383.692 323.268C383.132 321.628 381.742 320.618 380.588 321.012C379.434 321.407 378.953 323.056 379.514 324.696C380.074 326.335 381.463 327.345 382.617 326.951Z" stroke="#3F2B56" stroke-linecap="round" stroke-linejoin="round"/>
<path d="M315.62 359.565C316.813 359.157 317.326 357.497 316.765 355.857C316.205 354.218 314.784 353.219 313.591 353.626C312.398 354.034 311.885 355.694 312.445 357.334C313.005 358.973 314.427 359.972 315.62 359.565Z" stroke="#3F2B56" stroke-linecap="round" stroke-linejoin="round"/>
<path d="M483.465 290.153L482.66 305.653L481.511 327.631L437.71 344.635L437.958 323.06L438.136 308.022L483.465 290.153Z" stroke="#3F2B56" stroke-linecap="round" stroke-linejoin="round"/>
<path d="M445.769 313.036C445.769 313.036 458.844 300.178 475.842 301.704C475.842 301.704 467.125 311.292 445.769 313.036Z" fill="#E1557A" stroke="#3F2B56" stroke-linecap="round" stroke-linejoin="round"/>
<path d="M452.742 333.957C452.96 333.303 462.113 318.92 462.113 318.92L471.702 326.438L452.742 333.957Z" fill="#E1557A" stroke="#3F2B56" stroke-linecap="round" stroke-linejoin="round"/>
<path d="M437.958 353.24L485.924 333.957L485.013 368.069" stroke="#3F2B56" stroke-linecap="round" stroke-linejoin="round"/>
<path d="M437.71 356.596L435.089 416.852L467.688 401.807" stroke="#3F2B56" stroke-linecap="round" stroke-linejoin="round"/>
<path d="M461.101 373.642C464.143 369.604 467.898 367.878 471.064 367.282L465.18 364.278C465.18 364.278 456.838 362.061 451.388 369.436C445.988 376.745 449.907 384.026 449.907 384.026L456.296 387.802C455.962 384.337 456.727 379.45 461.101 373.642Z" stroke="#3F2B56" stroke-linecap="round" stroke-linejoin="round"/>
<path d="M533.241 436.302C527.895 437.595 520.796 439.271 519.491 439.271C517.368 439.271 501.25 430.392 499.899 429.523C498.548 428.654 488.125 412.247 485.615 409.738C483.361 407.483 473.859 399.151 471.954 397.483C471.677 397.24 471.467 396.942 471.346 396.594C470.694 394.719 469.527 388.804 473.744 383.776C478.763 377.792 484.69 378.951 485.925 379.53C487.16 380.109 500.864 389.663 503.663 392.848C506.462 396.033 515.824 410.993 518.333 411.861C520.842 412.73 524.22 413.116 525.475 413.212C526.73 413.309 538.215 410.221 538.215 410.221" stroke="#3F2B56" stroke-linecap="round" stroke-linejoin="round"/>
<path d="M471.954 397.483C471.677 397.24 471.466 396.942 471.345 396.594C470.694 394.719 469.527 388.805 473.744 383.776C478.763 377.792 484.689 378.951 485.924 379.53C486.298 379.705 487.817 380.705 489.826 382.098C490.097 379.057 489.583 376.732 489.246 375.622C489.106 375.164 488.803 374.78 488.396 374.528L477.431 367.75C477.09 367.54 476.729 367.377 476.34 367.282C473.434 366.571 466.241 366.818 461.101 373.642C453.688 383.484 456.616 390.716 457.747 392.784C457.953 393.161 458.253 393.469 458.622 393.689L469.98 400.473C469.98 400.473 472.217 402.403 476.085 401.116C474.208 399.458 472.617 398.063 471.954 397.483Z" stroke="#3F2B56" stroke-linecap="round" stroke-linejoin="round"/>
<path d="M463.53 391.462C464.596 390.998 464.968 389.493 464.362 388.1C463.756 386.707 462.401 385.954 461.335 386.418C460.27 386.881 459.898 388.386 460.504 389.779C461.11 391.172 462.465 391.926 463.53 391.462Z" stroke="#3F2B56" stroke-linecap="round" stroke-linejoin="round"/>
<path d="M443.241 408.1C443.843 406.705 443.425 405.183 442.308 404.702C441.192 404.22 439.799 404.961 439.197 406.356C438.596 407.751 439.014 409.272 440.13 409.754C441.247 410.235 442.64 409.494 443.241 408.1Z" stroke="#3F2B56" stroke-linecap="round" stroke-linejoin="round"/>
<path d="M446.04 358.878C446.641 357.483 446.224 355.962 445.107 355.48C443.991 354.999 442.598 355.74 441.996 357.135C441.395 358.529 441.812 360.051 442.929 360.532C444.046 361.014 445.438 360.273 446.04 358.878Z" stroke="#3F2B56" stroke-linecap="round" stroke-linejoin="round"/>
<path d="M482.522 343.05C483.123 341.655 482.706 340.134 481.589 339.652C480.472 339.171 479.08 339.912 478.478 341.307C477.877 342.701 478.294 344.223 479.411 344.704C480.528 345.186 481.92 344.445 482.522 343.05Z" stroke="#3F2B56" stroke-linecap="round" stroke-linejoin="round"/>
<path d="M478.764 403.488C478.764 403.488 477.09 396.394 484.071 390.05C489.912 384.741 496.261 386.724 496.261 386.724" stroke="#3F2B56" stroke-linecap="round" stroke-linejoin="round"/>
<path d="M487.512 411.668C487.512 411.668 486.367 404.404 493.722 398.639C500.864 393.041 506.32 396.384 506.32 396.384" stroke="#3F2B56" stroke-linecap="round" stroke-linejoin="round"/>
<path d="M499.899 429.523C499.899 429.523 504.628 413.309 518.333 411.861" stroke="#3F2B56" stroke-linecap="round" stroke-linejoin="round"/>
<path d="M525.475 413.212C525.475 413.212 528.518 417.914 528.467 424.504C528.392 434.167 525.07 438.222 525.07 438.222" stroke="#3F2B56" stroke-linecap="round" stroke-linejoin="round"/>
<path d="M485.615 409.738C483.361 407.483 473.859 399.151 471.954 397.483C471.677 397.24 471.467 396.942 471.346 396.594C470.694 394.719 469.527 388.805 473.744 383.776C478.763 377.792 484.689 378.951 485.925 379.53C487.16 380.109 500.865 389.663 503.663 392.848C504.977 394.344 507.739 398.435 510.558 402.445L527.276 394.352L523.95 119.216L244.874 33.6816L218.971 42.2351V50.7885L148.675 160.558L153.422 178.273L193.051 206.569L191.726 297.054L407.527 452.325L488.32 413.211C487.147 411.574 486.18 410.303 485.615 409.738Z" stroke="#3F2B56" stroke-linecap="round" stroke-linejoin="round"/>
<path d="M275.296 95.8232C277.443 95.2097 278.723 93.0999 278.154 91.1108C277.586 89.1218 275.385 88.0066 273.238 88.6201C271.091 89.2336 269.812 91.3433 270.38 93.3324C270.949 95.3215 273.15 96.4366 275.296 95.8232Z" stroke="#3F2B56" stroke-linecap="round" stroke-linejoin="round"/>
<path d="M275.296 95.8232C277.443 95.2097 278.723 93.0999 278.154 91.1108C277.586 89.1218 275.385 88.0066 273.238 88.6201C271.091 89.2336 269.812 91.3433 270.38 93.3324C270.949 95.3215 273.15 96.4366 275.296 95.8232Z" fill="#69C289" stroke="#3F2B56" stroke-linecap="round" stroke-linejoin="round"/>
<path d="M297.064 113.499C300.766 112.441 302.973 108.802 301.992 105.371C301.012 101.941 297.216 100.017 293.513 101.075C289.811 102.134 287.604 105.772 288.585 109.203C289.565 112.633 293.361 114.557 297.064 113.499Z" stroke="#3F2B56" stroke-linecap="round" stroke-linejoin="round"/>
<path d="M255.357 86.8341C257.504 86.2207 258.783 84.1109 258.215 82.1218C257.646 80.1327 255.445 79.0176 253.299 79.6311C251.152 80.2445 249.872 82.3543 250.441 84.3434C251.009 86.3324 253.21 87.4476 255.357 86.8341Z" fill="#EBB432" stroke="#3F2B56" stroke-linecap="round" stroke-linejoin="round"/>
<path d="M235.417 77.8449C237.564 77.2314 238.844 75.1217 238.275 73.1326C237.707 71.1435 235.506 70.0284 233.359 70.6419C231.212 71.2553 229.933 73.3651 230.501 75.3542C231.07 77.3432 233.271 78.4584 235.417 77.8449Z" fill="#E1557A" stroke="#3F2B56" stroke-linecap="round" stroke-linejoin="round"/>
<path d="M250.797 186.203C254.5 185.145 256.706 181.506 255.726 178.076C254.746 174.645 250.949 172.722 247.247 173.78C243.545 174.838 241.338 178.477 242.318 181.907C243.298 185.338 247.095 187.261 250.797 186.203Z" stroke="#3F2B56" stroke-linecap="round" stroke-linejoin="round"/>
<path d="M175.928 153.111C179.364 152.129 181.412 148.752 180.502 145.569C179.592 142.386 176.07 140.601 172.634 141.583C169.198 142.564 167.15 145.941 168.06 149.124C168.97 152.308 172.493 154.093 175.928 153.111Z" stroke="#3F2B56" stroke-linecap="round" stroke-linejoin="round"/>
<path d="M270.066 150.803C273.768 149.745 275.975 146.106 274.994 142.676C274.014 139.245 270.218 137.322 266.515 138.38C262.813 139.438 260.606 143.077 261.587 146.507C262.567 149.938 266.363 151.861 270.066 150.803Z" stroke="#3F2B56" stroke-linecap="round" stroke-linejoin="round"/>
<path d="M250.746 198.785L250.298 202.93" stroke="#3F2B56" stroke-linecap="round" stroke-linejoin="round"/>
<path d="M243.465 196.544L240.216 200.353" stroke="#3F2B56" stroke-linecap="round" stroke-linejoin="round"/>
<path d="M234.727 194.64L238.312 192.512" stroke="#3F2B56" stroke-linecap="round" stroke-linejoin="round"/>
<path d="M232.486 188.367L236.743 187.919" stroke="#3F2B56" stroke-linecap="round" stroke-linejoin="round"/>
<path d="M291.3 146.357L296.453 146.021" stroke="#3F2B56" stroke-linecap="round" stroke-linejoin="round"/>
<path d="M289.395 140.308L293.876 138.403" stroke="#3F2B56" stroke-linecap="round" stroke-linejoin="round"/>
<path d="M285.586 135.267L287.267 131.682" stroke="#3F2B56" stroke-linecap="round" stroke-linejoin="round"/>
<path d="M269.231 132.914V129.105" stroke="#3F2B56" stroke-linecap="round" stroke-linejoin="round"/>
<path d="M313.369 100.987L316.281 98.2983" stroke="#3F2B56" stroke-linecap="round" stroke-linejoin="round"/>
<path d="M307.431 97.0661L309.336 93.4812" stroke="#3F2B56" stroke-linecap="round" stroke-linejoin="round"/>
<path d="M301.494 95.6097L301.942 92.361" stroke="#3F2B56" stroke-linecap="round" stroke-linejoin="round"/>
<path d="M295.557 96.954L295.22 93.8173" stroke="#3F2B56" stroke-linecap="round" stroke-linejoin="round"/>
<path d="M242.69 100.671C265.942 115.032 255.734 139.304 250.897 145.351C241.778 156.749 220.578 165.183 203.481 151.506C192.141 142.434 190.031 124.834 198.01 112.297C209.868 93.6611 231.712 93.8898 242.69 100.671Z" stroke="#3F2B56" stroke-linecap="round" stroke-linejoin="round"/>
<path d="M259.845 270.262C259.554 269.68 256.483 263.933 252.129 255.808L211.914 276.455L204.815 281.839V290.095L193.068 281.839C193.427 281.121 198.963 266.787 211.307 257.83L244.874 242.277C241.024 235.1 236.883 227.387 233.032 220.214L207.505 230.867C207.505 230.867 191.992 240.379 172.069 267.301L164.172 261.379C164.352 260.84 180.302 231.226 207.505 215.611L226.451 207.957C221.501 198.741 218.022 192.264 218.022 192.264L218.017 192.263C211.816 193.93 204.453 195.057 200.748 194.833C197.329 194.626 192.657 192.282 189.557 190.503C175.792 204.364 138.19 242.232 135.453 244.989C131.776 248.694 135.343 251.762 135.343 251.762C135.343 251.762 139.093 254.39 144.903 258.458C147.847 254.656 150.711 251.328 150.711 251.328L145.506 247.509L195.402 197.125L198.991 210.406C198.991 210.406 187.864 219.38 174.403 233.739C163.576 245.287 156.353 259.614 153.939 264.782C160.268 269.212 167.566 274.316 174.76 279.34C177.103 273.946 185.578 258.618 200.748 246.262L202.037 255.988C202.037 255.988 191.522 264.62 181.665 284.161C196.054 294.203 208.536 302.88 209.818 303.66C212.979 305.584 214.766 303.66 214.766 303.66C214.766 303.66 257.097 279.196 259.845 277.409C262.594 275.622 260.945 272.461 259.845 270.262Z" fill="#B39ED3"/>
<path d="M338.491 194.534C338.444 195.186 334.809 200.727 334.359 201.13C333.909 201.532 328.971 201.805 328.971 201.805C328.331 205.677 327.112 208.175 326.034 209.81C324.424 212.273 312.725 227.69 312.725 227.69C312.725 227.69 313.104 232.071 312.725 232.391C312.334 232.699 309.22 231.1 309.22 231.1C309.22 231.1 310.096 237.317 309.22 239.046C308.947 239.591 308.403 239.792 307.775 239.804V239.816C306.39 239.875 304.625 239.046 304.625 239.046L306.449 236.476C302.15 227.951 293.139 224.955 293.139 224.955L306.449 203.072C307.81 195.577 310.202 184.6 310.202 184.6C310.711 183.901 316.123 178.584 317.485 177.732C318.835 176.879 323.749 174.984 325.3 174.925C327.562 174.819 331.919 174.866 333.175 175.719C333.885 176.204 333.4 177.945 333.163 179.046C333.032 179.638 332.512 179.934 331.931 180.052C328.853 180.656 324.601 182.93 324.601 182.93C324.601 182.93 335.732 186.352 336.289 186.861C336.833 187.358 338.539 193.883 338.491 194.534Z" fill="#E7E1EC"/>
<path d="M198.991 350.481L193.763 393.782C193.505 395.92 195.041 397.853 197.183 398.078C201.945 398.579 210.394 399.072 218.51 397.569C230.735 395.305 232.546 392.74 232.999 391.23C233.452 389.721 227.171 383.718 212.305 376.172L209.406 350.481" fill="#E7E1EC"/>
<path d="M165.083 326.182L158.654 371.184C158.476 372.435 158.931 373.711 159.915 374.504C161.347 375.658 164.035 376.767 168.856 375.836C174.275 374.79 180.5 370.879 184.1 367.082C185.083 366.045 185.82 364.817 186.327 363.799C186.914 362.622 186.698 361.209 185.781 360.267C184.064 358.502 180.92 355.357 177.157 351.99L176.554 326.182" fill="#E7E1EC"/>
<path d="M153.944 264.777C154.524 265.191 155.116 265.606 155.708 266.02L153.305 276.453L150.06 290.485C150.06 290.485 152.772 299.721 153.163 302.74C153.565 305.76 152.132 314.984 152.132 314.984L148.639 316.097L147.04 304.517L145.62 303.368C145.62 303.368 144.98 309.893 144.897 315.138C144.814 320.384 144.897 325.31 144.897 325.31L140.528 327.726L135.602 327.323C135.602 327.323 135.211 325.44 134.797 323.06L130.19 321.497C130.19 321.497 128.284 309.573 128.284 305.44C128.284 302.918 133.506 285.274 137.568 271.917C140.161 263.392 142.28 256.618 142.28 256.618L142.955 257.092C143.583 257.53 144.222 257.98 144.897 258.454L159.782 253.705C156.975 258.489 154.998 262.515 153.944 264.777Z" fill="#E7E1EC"/>
<path d="M215.791 338.56C214.891 342.634 209.409 350.485 209.409 350.485C203.169 351.834 198.989 350.485 198.989 350.485C198.989 350.485 190.889 336.299 191.801 332.971C192.251 331.314 194.809 322.658 197.26 314.404C198.586 309.94 199.877 305.594 200.788 302.551C201.546 299.981 202.032 298.335 202.032 298.335C206.342 301.319 209.243 303.309 209.823 303.664C210.64 304.161 211.375 304.398 212.002 304.481C212.061 304.86 212.12 305.263 212.18 305.689C213.66 315.695 216.466 335.529 215.791 338.56Z" fill="#F58452"/>
<path d="M181.38 320.301C181.38 321.509 176.549 326.186 176.549 326.186C176.549 326.186 171.943 329.656 165.087 326.186C165.087 326.186 160.338 318.939 160.255 316.82V316.784C160.255 315.47 162.813 303.451 165.158 292.699C167.159 283.558 169.006 275.316 169.006 275.316C170.924 276.654 172.843 278.004 174.761 279.342C175.306 278.087 176.194 276.275 177.413 274.12L178.704 274.428C178.704 274.428 179.379 285.535 180.042 296.82C180.705 308.164 181.38 319.697 181.38 320.301Z" fill="#F58452"/>
<path d="M223.004 176.728C223.004 176.728 224.276 176.41 226.184 176.728C228.092 177.046 234.609 181.18 234.292 181.974C233.974 182.769 231.589 186.426 225.866 189.446C220.143 192.467 206.312 195.169 200.748 194.833C195.184 194.497 186.282 188.492 186.282 188.492C186.282 188.492 186.758 178.036 187.235 176.587C187.712 175.139 201.384 165.282 205.199 164.328C209.015 163.375 219.03 169.574 220.779 170.528C222.527 171.482 223.004 176.728 223.004 176.728Z" fill="#F58452"/>
<path d="M293.143 224.952C293.143 224.952 302.153 227.955 306.445 236.472L292.453 256.263C291.645 257.406 290.262 257.996 288.878 257.788L226.469 248.418C225.396 248.257 224.713 247.184 225.021 246.144C225.599 244.195 227.382 242.851 229.416 242.833L282.19 242.377L293.143 224.952Z" fill="#3F2B56" stroke="#3F2B56" stroke-linecap="round" stroke-linejoin="round"/>
<path d="M328.969 201.802C329.265 200.015 329.443 197.78 329.442 194.833" stroke="#3F2B56" stroke-linecap="round" stroke-linejoin="round"/>
<path d="M338.491 194.534C338.444 195.186 334.809 200.727 334.359 201.13C333.909 201.532 328.971 201.805 328.971 201.805C328.331 205.677 327.112 208.175 326.034 209.81C324.424 212.273 312.725 227.69 312.725 227.69C312.725 227.69 313.104 232.071 312.725 232.391C312.334 232.699 309.22 231.1 309.22 231.1C309.22 231.1 310.096 237.317 309.22 239.046C308.947 239.591 308.403 239.792 307.775 239.804V239.816C306.39 239.875 304.625 239.046 304.625 239.046L306.449 236.476C302.15 227.951 293.139 224.955 293.139 224.955L306.449 203.072C307.81 195.577 310.202 184.6 310.202 184.6C310.711 183.901 316.123 178.584 317.485 177.732C318.835 176.879 323.749 174.984 325.3 174.925C327.562 174.819 331.919 174.866 333.175 175.719C333.885 176.204 333.4 177.945 333.163 179.046C333.032 179.638 332.512 179.934 331.931 180.052C328.853 180.656 324.601 182.93 324.601 182.93C324.601 182.93 335.732 186.352 336.289 186.861C336.833 187.358 338.539 193.883 338.491 194.534Z" stroke="#3F2B56" stroke-linecap="round" stroke-linejoin="round"/>
<path d="M324.603 182.935L318.164 184.977" stroke="#3F2B56" stroke-linecap="round" stroke-linejoin="round"/>
<path d="M332.397 185.411L323.362 187.615" stroke="#3F2B56" stroke-linecap="round" stroke-linejoin="round"/>
<path d="M329.442 197.092L333.1 194.833" stroke="#3F2B56" stroke-linecap="round" stroke-linejoin="round"/>
<path d="M307.775 239.804V239.816C306.39 239.875 304.625 239.046 304.625 239.046L306.449 236.476C306.97 237.507 307.42 238.608 307.775 239.804Z" fill="#3F2B56" stroke="#3F2B56" stroke-linecap="round" stroke-linejoin="round"/>
<path d="M223.004 176.728C223.004 176.728 224.276 176.41 226.184 176.728C228.092 177.046 234.609 181.18 234.292 181.974C233.974 182.769 231.589 186.426 225.866 189.446C220.143 192.467 206.312 195.169 200.748 194.833C195.184 194.497 186.282 188.492 186.282 188.492C186.282 188.492 186.758 178.036 187.235 176.587C187.712 175.139 201.384 165.282 205.199 164.328C209.015 163.375 219.03 169.574 220.779 170.528C222.527 171.482 223.004 176.728 223.004 176.728Z" stroke="#3F2B56" stroke-linecap="round" stroke-linejoin="round"/>
<path d="M217.44 171.164C217.44 171.164 213.954 171.005 210.292 171.164C206.63 171.323 201.225 175.933 199.476 177.841C197.728 179.749 197.57 194.19 197.57 194.19" stroke="#3F2B56" stroke-linecap="round" stroke-linejoin="round"/>
<path d="M188.827 190.079L190.256 176.728" stroke="#3F2B56" stroke-linecap="round" stroke-linejoin="round"/>
<path d="M223.004 176.728L223.799 186.903L218.871 190.079V185.462L221.335 183.404" stroke="#3F2B56" stroke-linecap="round" stroke-linejoin="round"/>
<path d="M200.748 194.833V190.079L208.856 189.128L208.882 194.19" stroke="#3F2B56" stroke-linecap="round" stroke-linejoin="round"/>
<path d="M244.874 242.278L211.307 257.83C198.963 266.787 193.427 281.121 193.068 281.839L204.815 290.095V281.839L211.914 276.455L224.438 270.025C224.438 270.025 227.674 262.261 231.536 256.364C236.61 248.614 244.931 242.018 244.874 242.278Z" fill="#3F2B56" stroke="#3F2B56" stroke-linecap="round" stroke-linejoin="round"/>
<path d="M226.451 207.957L207.505 215.611C180.302 231.226 164.352 260.84 164.172 261.378L172.069 267.301C189.18 244.179 203.038 233.899 206.609 231.457C206.609 231.457 213.023 217.828 226.451 207.957Z" fill="#3F2B56" stroke="#3F2B56" stroke-linecap="round" stroke-linejoin="round"/>
<path d="M159.786 253.707C163.38 247.584 168.323 240.223 174.402 233.738C187.863 219.38 198.991 210.406 198.991 210.406L195.402 197.125L145.506 247.509L150.711 251.328C150.711 251.328 147.847 254.656 144.903 258.458L159.786 253.707Z" fill="#3F2B56" stroke="#3F2B56" stroke-linecap="round" stroke-linejoin="round"/>
<path d="M259.845 270.262C259.554 269.68 256.483 263.933 252.129 255.808L211.914 276.455L204.815 281.839V290.095L193.068 281.839C193.427 281.121 198.963 266.787 211.307 257.83L244.874 242.277C241.024 235.1 236.883 227.387 233.032 220.214L207.505 230.867C207.505 230.867 191.992 240.379 172.069 267.301L164.172 261.379C164.352 260.84 180.302 231.226 207.505 215.611L226.451 207.957C221.501 198.741 218.022 192.264 218.022 192.264L218.017 192.263C211.816 193.93 204.453 195.057 200.748 194.833C197.329 194.626 192.657 192.282 189.557 190.503C175.792 204.364 138.19 242.232 135.453 244.989C131.776 248.694 135.343 251.762 135.343 251.762C135.343 251.762 139.093 254.39 144.903 258.458C147.847 254.656 150.711 251.328 150.711 251.328L145.506 247.509L195.402 197.125L198.991 210.406C198.991 210.406 187.864 219.38 174.403 233.739C163.576 245.287 156.353 259.614 153.939 264.782C160.268 269.212 167.566 274.316 174.76 279.34C177.103 273.946 185.578 258.618 200.748 246.262L202.037 255.988C202.037 255.988 191.522 264.62 181.665 284.161C196.054 294.203 208.536 302.88 209.818 303.66C212.979 305.584 214.766 303.66 214.766 303.66C214.766 303.66 257.097 279.196 259.845 277.409C262.594 275.622 260.945 272.461 259.845 270.262Z" stroke="#3F2B56" stroke-linecap="round" stroke-linejoin="round"/>
<path d="M185.601 276.947C194.13 262.479 202.037 255.988 202.037 255.988L200.748 246.262C185.578 258.618 177.103 273.946 174.76 279.34L185.601 276.947Z" fill="#3F2B56" stroke="#3F2B56" stroke-linecap="round" stroke-linejoin="round"/>
<path d="M204.815 197.124L207.505 215.611" stroke="#3F2B56" stroke-linecap="round" stroke-linejoin="round"/>
<path d="M207.505 230.867L211.307 257.83" stroke="#3F2B56" stroke-linecap="round" stroke-linejoin="round"/>
<path d="M211.914 276.455L214.043 298.997C214.043 298.997 214.551 303.954 212.093 304.515" stroke="#3F2B56" stroke-linecap="round" stroke-linejoin="round"/>
<path d="M209.818 303.66C209.237 303.307 206.347 301.324 202.037 298.34C202.037 298.34 192.703 329.653 191.797 332.974C190.891 336.294 198.991 350.481 198.991 350.481C198.991 350.481 203.169 351.839 209.406 350.481C209.406 350.481 214.888 342.633 215.794 338.558C216.495 335.404 213.425 313.999 212 304.478C211.37 304.398 210.642 304.161 209.818 303.66Z" stroke="#3F2B56" stroke-linecap="round" stroke-linejoin="round"/>
<path d="M198.991 350.481L193.763 393.782C193.505 395.92 195.041 397.853 197.183 398.078C201.945 398.579 210.394 399.072 218.51 397.569C230.735 395.305 232.546 392.74 232.999 391.23C233.452 389.721 227.171 383.718 212.305 376.172L209.406 350.481" stroke="#3F2B56" stroke-linecap="round" stroke-linejoin="round"/>
<path d="M200.249 336.898L202.513 351.085L206.588 337.652" stroke="#3F2B56" stroke-linecap="round" stroke-linejoin="round"/>
<path d="M168.077 327.327L167.347 312.448" stroke="#3F2B56" stroke-linecap="round" stroke-linejoin="round"/>
<path d="M165.083 326.182L158.654 371.184C158.476 372.435 158.931 373.711 159.915 374.504C161.347 375.658 164.035 376.767 168.856 375.836C174.275 374.79 180.5 370.879 184.1 367.082C185.083 366.045 185.82 364.817 186.327 363.799C186.914 362.622 186.698 361.209 185.781 360.267C184.064 358.502 180.92 355.357 177.157 351.99L176.554 326.182" stroke="#3F2B56" stroke-linecap="round" stroke-linejoin="round"/>
<path d="M177.409 274.116C176.195 276.28 175.304 278.087 174.76 279.34C172.842 278.001 170.919 276.657 169.007 275.321C169.007 275.321 160.174 314.712 160.254 316.825C160.333 318.937 165.083 326.182 165.083 326.182C171.947 329.653 176.554 326.182 176.554 326.182C176.554 326.182 181.383 321.503 181.383 320.296C181.383 319.088 178.702 274.429 178.702 274.429L177.409 274.116Z" stroke="#3F2B56" stroke-linecap="round" stroke-linejoin="round"/>
<path d="M145.62 303.369L140.686 299.402L145.277 307.508L145.62 303.369Z" fill="#3F2B56" stroke="#3F2B56" stroke-linecap="round" stroke-linejoin="round"/>
<path d="M134.795 323.062C134.373 320.667 133.919 317.769 133.79 315.776C133.532 311.802 133.79 305.919 133.79 305.919" stroke="#3F2B56" stroke-linecap="round" stroke-linejoin="round"/>
<path d="M153.944 264.777C154.524 265.191 155.116 265.606 155.708 266.02L153.305 276.453L150.06 290.485C150.06 290.485 152.772 299.721 153.163 302.74C153.565 305.76 152.132 314.984 152.132 314.984L148.639 316.097L147.04 304.517L145.62 303.368C145.62 303.368 144.98 309.893 144.897 315.138C144.814 320.384 144.897 325.31 144.897 325.31L140.528 327.726L135.602 327.323C135.602 327.323 135.211 325.44 134.797 323.06L130.19 321.497C130.19 321.497 128.284 309.573 128.284 305.44C128.284 302.918 133.506 285.274 137.568 271.917C140.161 263.392 142.28 256.618 142.28 256.618L142.955 257.092C143.583 257.53 144.222 257.98 144.897 258.454L159.782 253.705C156.975 258.489 154.998 262.515 153.944 264.777Z" stroke="#3F2B56" stroke-linecap="round" stroke-linejoin="round"/>
<path d="M139.096 305.919C139.096 305.919 138.779 313.55 139.096 317.048C139.414 320.545 140.527 327.725 140.527 327.725" stroke="#3F2B56" stroke-linecap="round" stroke-linejoin="round"/>
<path d="M153.944 264.777C154.524 265.192 155.116 265.606 155.708 266.02L153.305 276.453C143.512 277.672 137.567 271.917 137.567 271.917C140.161 263.392 142.28 256.618 142.28 256.618L142.955 257.092C143.583 257.53 144.222 257.98 144.897 258.454L159.782 253.705C156.975 258.489 154.998 262.515 153.944 264.777Z" fill="#3F2B56" stroke="#3F2B56" stroke-linecap="round" stroke-linejoin="round"/>
<path d="M207.6 151.713C204.02 148.266 198.769 141.115 199.377 129.166C200.043 116.088 211.352 105.704 220.122 103.634C228.214 101.724 233.985 101.468 242.833 104.673" stroke="#3F2B56" stroke-linecap="round" stroke-linejoin="round"/>
<path d="M212.954 120.062C212.954 120.062 229.497 125.448 243.089 138.271" stroke="#3F2B56" stroke-linecap="round" stroke-linejoin="round"/>
<path d="M215.904 147.504C216.032 146.991 226.804 120.575 240.909 111.983" stroke="#3F2B56" stroke-linecap="round" stroke-linejoin="round"/>
<path d="M242.673 123.371L244.857 125.274C245.151 125.53 245.613 125.378 245.696 124.996L246.289 122.282C246.372 121.901 246.017 121.57 245.643 121.679L242.867 122.491C242.477 122.604 242.367 123.104 242.673 123.371Z" fill="#3F2B56"/>
<path d="M212.277 134.778L213.308 132.318C213.515 131.825 214.163 131.711 214.525 132.105L216.403 134.141C216.803 134.575 216.553 135.28 215.969 135.365L213.06 135.788C212.495 135.87 212.056 135.304 212.277 134.778Z" fill="#3F2B56"/>
<path d="M206.234 125.42L206.314 127.812C206.332 128.347 206.929 128.656 207.377 128.361L209.875 126.713C210.364 126.391 210.25 125.645 209.688 125.482L207.11 124.738C206.662 124.609 206.219 124.954 206.234 125.42Z" fill="#3F2B56"/>
<path d="M178.704 274.428C178.704 274.428 179.379 285.535 180.042 296.82L165.158 292.699C167.159 283.557 169.006 275.316 169.006 275.316C170.925 276.654 172.843 278.004 174.761 279.342C175.306 278.087 176.194 276.275 177.414 274.12L178.704 274.428Z" fill="#3F2B56" stroke="#3F2B56" stroke-linecap="round" stroke-linejoin="round"/>
<path d="M212.18 305.689L200.788 302.551C201.546 299.981 202.032 298.335 202.032 298.335C206.342 301.319 209.243 303.309 209.823 303.664C210.64 304.161 211.375 304.398 212.002 304.481C212.061 304.86 212.12 305.263 212.18 305.689Z" fill="#3F2B56" stroke="#3F2B56" stroke-linecap="round" stroke-linejoin="round"/>
</svg>
