<svg xmlns="http://www.w3.org/2000/svg" width="182" height="186" fill="none"><path fill="#FCA9CB" d="M179.174 177.957c-2.353.569-5.477 1.305-6.051 1.305-.934 0-8.026-3.902-8.621-4.284-.594-.382-5.181-7.593-6.285-8.696-.992-.991-5.173-4.653-6.012-5.386a.926.926 0 0 1-.267-.391c-.287-.824-.801-3.424 1.055-5.633 2.209-2.63 4.817-2.121 5.36-1.867.544.255 6.574 4.454 7.805 5.854 1.232 1.4 5.352 7.975 6.456 8.356 1.104.382 2.59.552 3.142.594.553.043 5.606-1.314 5.606-1.314"/><path fill="#E7E1EC" d="M158.218 166.282c-.992-.991-5.173-4.653-6.012-5.386a.926.926 0 0 1-.267-.391c-.287-.824-.801-3.423 1.055-5.633 2.209-2.631 4.816-2.121 5.36-1.867.544.255 6.574 4.454 7.805 5.854.579.657 1.794 2.455 3.034 4.218l7.357-3.557-1.464-120.926L52.284 1 40.886 4.76v3.759L9.953 56.764l2.089 7.786L29.48 76.987l-.583 39.769L123.856 185l35.552-17.191c-.516-.72-.942-1.278-1.19-1.527Z"/><path fill="#69C289" d="M51.665 31.8c9.686 5.975 5.434 16.074 3.419 18.59-3.798 4.743-12.63 8.252-19.752 2.561-4.724-3.774-5.603-11.097-2.28-16.314 4.94-7.754 14.04-7.659 18.613-4.837Z"/><path fill="#DAC5F9" d="M40.886 8.519 152.12 51.776V46.44L40.886 4.76M9.953 56.764 98.4 115.869l.885 3.793 1.989 8.525L12.042 64.55l-2.089-7.786Z"/><path fill="#DAC5F9" d="m101.274 128.187 24.256-12.317-1.673 69.13-94.96-68.244.584-39.77 71.793 51.201Z"/><path fill="#B39ED3" stroke="#3F2B56" stroke-linecap="round" stroke-linejoin="round" d="m85.776 33.782-4.134-.674c-1.114-2.54-4.129-3.89-7.08-3.048-3.197.913-5.103 4.052-4.256 7.01.846 2.96 4.124 4.62 7.322 3.707 2.422-.691 4.1-2.66 4.405-4.859l3.743-2.136ZM24.244 57.21c2.968-.848 4.736-3.76 3.95-6.507-.785-2.746-3.827-4.286-6.794-3.439-2.968.847-4.737 3.76-3.95 6.506.785 2.746 3.827 4.286 6.794 3.44ZM70.4 49.866c-.378-1.318-1.238-2.375-2.358-3.065l-.357-3.763-2.877 2.875a6.47 6.47 0 0 0-1.732.248c-3.197.913-5.102 4.051-4.256 7.01.847 2.96 4.125 4.619 7.323 3.706 3.197-.913 5.103-4.052 4.257-7.01ZM61.625 65.031c-.847-2.959-4.126-4.618-7.323-3.705-3.198.912-5.104 4.051-4.257 7.01.734 2.565 3.295 4.15 6.046 3.934l3.066 2.625.233-3.84c1.917-1.398 2.882-3.762 2.235-6.024Z"/><path fill="#3F2B56" stroke="#3F2B56" stroke-linecap="round" stroke-linejoin="round" d="m157.272 113.723-.355 6.813-19.67 7.65.078-6.609 19.947-7.854Z"/><path fill="#EBB432" d="m94.898 103.679 29.674-35.023-41.66-20.024L58.129 80.96l36.77 22.719Z"/><path fill="#E1557A" d="m127.649 64.427 11.778-13.504-42.924-17.39-9.136 10.536 40.282 20.358ZM93.488 89.313l7.787 4.844-5.695 6.682-7.433-5.164 5.34-6.362ZM78.613 66.606l-5.46-3.126 5.46-7.137 5.595 2.81-5.595 7.453Z"/><path fill="#69C289" d="m93.509 75.538 6.41-8.293-8.348-4.22-5.9 7.813 7.838 4.7Z"/><path fill="#E1557A" d="m108.402 71.614 5.727-6.843-8.97-4.404-5.24 6.878 8.483 4.37Z"/><path stroke="#3F2B56" stroke-linecap="round" stroke-linejoin="round" d="m101.274 128.187-1.989-8.525-.885-3.793L9.953 56.764M98.4 115.869l53.72-64.093 23.022-8.606"/><path stroke="#3F2B56" stroke-linecap="round" stroke-linejoin="round" d="M40.886 8.519 152.12 51.776V46.44L40.886 4.76M152.121 46.44l22.966-7.846M29.48 76.987l71.793 51.2 24.256-12.317-1.673 69.13"/><path stroke="#3F2B56" stroke-linecap="round" stroke-linejoin="round" d="m94.898 103.679 29.674-35.023-41.66-20.024L58.129 80.96l36.77 22.719ZM91.571 39.221s5.979-.669 7.505.113c2.965 1.519 1.749 6.834 4.333 8.125 2.859 1.428 11.996-1.053 14.445.227 3.192 1.671 3.365 8.23 6.613 9.644 2.965 1.29 9.866-.566 9.866-.566"/><path stroke="#E7E1EC" stroke-miterlimit="10" d="M88.147 43.17s14.047-1.558 16.403-.343c2.599 1.34 2.737 8.2 5.778 9.187 4.504 1.463 10.667-3.771 14.52-1.746 2.889 1.519 4.865 11.793 4.865 11.793"/><path stroke="#3F2B56" stroke-linecap="round" stroke-linejoin="round" d="M104.975 75.668c3.721-4.406 6.644-7.86 6.644-7.86M89.499 94.156c.044-.179 7.72-9.297 14.016-16.757M91.547 62.933l21.404 11.026M80.375 57.178l6.527 3.362M103.182 63.024 90.738 79.123M79.645 67.225l-4.667-2.798M106.83 83.526 95.496 76.73M86.274 85.021 99.685 93M67.68 73.959l7.298 4.342M68.592 79.957 86 56.764M91.571 62.887l3.172-4.267M127.649 64.427l11.778-13.504-42.924-17.39-9.136 10.536 40.282 20.358ZM110.379 123.564l6.123 3.477-.952 41.756-35.425-24.255V114.39"/><path stroke="#3F2B56" stroke-linecap="round" stroke-linejoin="round" d="m97.17 131.701 10.857 6.944v18.833M107.358 159.095l-11.141-8.275.476-17.312M96.575 137.883l11.452 7.134M111.983 162.982c.508-.174.72-.898.473-1.619-.246-.721-.858-1.165-1.366-.992-.507.173-.719.898-.472 1.619.246.721.858 1.165 1.365.992ZM112.895 129.896c.508-.173.72-.898.473-1.619-.246-.721-.858-1.164-1.366-.991-.507.173-.719.898-.472 1.619.246.72.857 1.164 1.365.991ZM83.413 144.231c.525-.18.75-.909.504-1.63-.247-.72-.872-1.159-1.397-.981-.525.18-.75.909-.504 1.63.246.721.872 1.16 1.397.981ZM157.271 113.723l-.354 6.812-.505 9.66-19.274 7.474.109-9.483.078-6.609 19.946-7.854Z"/><path fill="#E1557A" stroke="#3F2B56" stroke-linecap="round" stroke-linejoin="round" d="M140.685 123.781s5.753-5.652 13.233-4.981c0 0-3.836 4.214-13.233 4.981ZM143.752 132.975c.096-.287 4.124-6.609 4.124-6.609l4.219 3.305-8.343 3.304Z"/><path stroke="#3F2B56" stroke-linecap="round" stroke-linejoin="round" d="m137.247 141.451 21.107-8.475-.401 14.992M137.139 142.926l-1.154 26.483 14.345-6.612"/><path stroke="#3F2B56" stroke-linecap="round" stroke-linejoin="round" d="M147.431 150.417c1.338-1.774 2.991-2.533 4.384-2.795l-2.589-1.32s-3.671-.975-6.069 2.267c-2.377 3.212-.652 6.412-.652 6.412l2.811 1.66c-.147-1.523.19-3.671 2.115-6.224ZM179.174 177.957c-2.353.569-5.477 1.305-6.051 1.305-.934 0-8.026-3.902-8.621-4.284-.594-.382-5.181-7.593-6.285-8.696-.992-.991-5.173-4.653-6.012-5.386a.926.926 0 0 1-.267-.391c-.287-.824-.801-3.424 1.055-5.633 2.209-2.63 4.817-2.121 5.36-1.867.544.255 6.574 4.454 7.805 5.854 1.232 1.4 5.352 7.975 6.456 8.356 1.104.382 2.59.552 3.142.594.553.043 5.606-1.314 5.606-1.314"/><path stroke="#3F2B56" stroke-linecap="round" stroke-linejoin="round" d="M152.206 160.896a.919.919 0 0 1-.268-.391c-.287-.824-.8-3.423 1.055-5.633 2.209-2.63 4.816-2.121 5.36-1.866.164.076.833.516 1.717 1.128.119-1.336-.107-2.358-.255-2.846a.866.866 0 0 0-.374-.481l-4.825-2.979a1.687 1.687 0 0 0-.48-.206c-1.279-.312-4.444-.204-6.706 2.796-3.262 4.325-1.974 7.504-1.476 8.413.091.166.223.301.385.398l4.998 2.981s.984.849 2.686.283c-.826-.729-1.526-1.342-1.817-1.597Z"/><path stroke="#3F2B56" stroke-linecap="round" stroke-linejoin="round" d="M148.5 158.249c.469-.204.632-.865.366-1.477-.267-.612-.863-.943-1.332-.74-.469.204-.633.865-.366 1.478.267.612.863.943 1.332.739ZM139.571 165.562c.265-.613.081-1.282-.41-1.493-.491-.212-1.104.113-1.369.727-.265.613-.081 1.281.41 1.493.492.211 1.105-.114 1.369-.727ZM140.803 143.928c.264-.613.081-1.281-.411-1.493-.491-.211-1.104.114-1.369.727-.264.613-.081 1.282.411 1.493.491.212 1.104-.113 1.369-.727ZM156.857 136.972c.264-.613.08-1.282-.411-1.494-.492-.211-1.104.115-1.369.728-.264.612-.081 1.281.411 1.493.491.212 1.104-.114 1.369-.727ZM155.202 163.535s-.736-3.118 2.336-5.906c2.57-2.334 5.364-1.462 5.364-1.462M159.052 167.131s-.504-3.193 2.732-5.727c3.143-2.46 5.544-.991 5.544-.991M164.504 174.978s2.081-7.126 8.111-7.763M175.758 167.809s1.339 2.067 1.317 4.963c-.033 4.247-1.495 6.029-1.495 6.029"/><path stroke="#3F2B56" stroke-linecap="round" stroke-linejoin="round" d="M158.218 166.282c-.992-.991-5.173-4.653-6.012-5.386a.926.926 0 0 1-.267-.391c-.287-.824-.801-3.423 1.055-5.633 2.209-2.631 4.816-2.121 5.36-1.867.544.255 6.574 4.454 7.805 5.854.579.657 1.794 2.455 3.034 4.218l7.357-3.557-1.464-120.926L52.284 1 40.886 4.76v3.759L9.953 56.764l2.089 7.786L29.48 76.987l-.583 39.769L123.856 185l35.552-17.191c-.516-.72-.942-1.278-1.19-1.527Z"/><path stroke="#3F2B56" stroke-linecap="round" stroke-linejoin="round" d="M65.67 28.312c.945-.27 1.508-1.197 1.257-2.071-.25-.874-1.218-1.364-2.163-1.095-.945.27-1.507 1.197-1.257 2.071.25.875 1.218 1.365 2.163 1.095Z"/><path fill="#69C289" stroke="#3F2B56" stroke-linecap="round" stroke-linejoin="round" d="M65.67 28.312c.945-.27 1.508-1.197 1.257-2.071-.25-.874-1.218-1.364-2.163-1.095-.945.27-1.507 1.197-1.257 2.071.25.875 1.218 1.365 2.163 1.095Z"/><path stroke="#3F2B56" stroke-linecap="round" stroke-linejoin="round" d="M75.249 36.08c1.629-.464 2.6-2.064 2.168-3.572-.431-1.507-2.102-2.353-3.731-1.888-1.629.466-2.6 2.065-2.168 3.573.43 1.507 2.101 2.353 3.73 1.888Z"/><path fill="#EBB432" stroke="#3F2B56" stroke-linecap="round" stroke-linejoin="round" d="M56.895 24.361c.945-.269 1.508-1.196 1.258-2.07-.25-.875-1.219-1.365-2.163-1.095-.945.27-1.508 1.197-1.258 2.07.25.875 1.219 1.365 2.163 1.096Z"/><path fill="#E1557A" stroke="#3F2B56" stroke-linecap="round" stroke-linejoin="round" d="M48.122 20.41c.945-.27 1.508-1.197 1.258-2.071-.25-.874-1.219-1.364-2.164-1.095-.944.27-1.507 1.197-1.257 2.071.25.875 1.219 1.365 2.163 1.095Z"/><path stroke="#3F2B56" stroke-linecap="round" stroke-linejoin="round" d="M54.89 68.035c1.63-.465 2.6-2.064 2.169-3.572-.431-1.508-2.102-2.353-3.731-1.888-1.63.465-2.6 2.064-2.169 3.572.431 1.508 2.102 2.353 3.731 1.888ZM21.945 53.49c1.512-.43 2.413-1.915 2.013-3.314-.4-1.399-1.95-2.184-3.462-1.752-1.512.431-2.414 1.915-2.013 3.314.4 1.4 1.95 2.184 3.462 1.753ZM63.368 52.477c1.629-.465 2.6-2.064 2.168-3.572-.431-1.508-2.101-2.353-3.73-1.888-1.63.465-2.601 2.064-2.17 3.572.432 1.508 2.102 2.353 3.732 1.888ZM54.869 73.566l-.197 1.821M51.664 72.58l-1.43 1.675M47.82 71.743l1.577-.935M46.833 68.987l1.873-.197M72.713 50.522l2.267-.147M71.874 47.864l1.972-.837M70.2 45.648l.739-1.575M63.002 44.614V42.94M82.424 30.582l1.281-1.182M79.81 28.858l.838-1.575M77.198 28.218l.197-1.428M74.585 28.809l-.148-1.379M51.322 30.443c10.231 6.311 5.74 16.98 3.611 19.637-4.012 5.01-13.341 8.717-20.864 2.705-4.99-3.987-5.919-11.722-2.408-17.232 5.218-8.191 14.83-8.09 19.66-5.11Z"/><path fill="#B39ED3" d="M58.87 104.98c-.127-.255-1.479-2.781-3.395-6.352l-17.695 9.074-3.124 2.367v3.628l-5.17-3.628c.159-.316 2.595-6.616 8.027-10.553l14.77-6.835-5.21-9.697-11.233 4.682s-6.827 4.18-15.594 16.013l-3.474-2.603c.079-.237 7.097-13.252 19.068-20.115l8.336-3.364-3.709-6.898h-.002c-2.729.732-5.969 1.228-7.599 1.13-1.504-.092-3.56-1.122-4.924-1.904A566334.07 566334.07 0 0 0 4.134 93.873c-1.618 1.628-.048 2.976-.048 2.976l4.207 2.943a88.392 88.392 0 0 1 2.555-3.133l-2.29-1.679 21.956-22.144 1.579 5.837s-4.896 3.944-10.82 10.255c-4.764 5.076-7.942 11.372-9.004 13.644 2.785 1.947 5.996 4.19 9.162 6.398 1.03-2.37 4.76-9.107 11.435-14.538l.567 4.275s-4.627 3.794-8.964 12.382c6.332 4.414 11.824 8.227 12.388 8.57 1.391.846 2.178 0 2.178 0s18.627-10.752 19.836-11.537c1.21-.786.484-2.175 0-3.142Z"/><path fill="#E7E1EC" d="M93.478 71.697c-.02.287-1.62 2.722-1.818 2.9-.198.176-2.371.296-2.371.296-.282 1.702-.818 2.8-1.293 3.518-.708 1.083-5.856 7.859-5.856 7.859s.167 1.925 0 2.066c-.172.135-1.542-.568-1.542-.568s.385 2.733 0 3.493c-.12.24-.36.328-.636.333v.005c-.61.026-1.386-.338-1.386-.338l.802-1.13c-1.891-3.747-5.856-5.063-5.856-5.063l5.856-9.618c.6-3.294 1.652-8.119 1.652-8.119.224-.307 2.605-2.644 3.204-3.019.595-.374 2.757-1.207 3.44-1.233.995-.047 2.912-.026 3.465.349.312.213.099.978-.006 1.462-.057.26-.286.39-.542.442-1.354.266-3.225 1.265-3.225 1.265s4.898 1.504 5.143 1.728c.24.218.99 3.086.969 3.372ZM32.092 140.238l-2.3 19.031c-.114.94.562 1.79 1.505 1.889 2.095.22 5.813.436 9.384-.224 5.38-.995 6.177-2.123 6.376-2.786.2-.663-2.565-3.302-9.106-6.618l-1.276-11.292M17.173 129.558l-2.83 19.779a1.58 1.58 0 0 0 .556 1.459c.63.508 1.813.995 3.934.586 2.385-.46 5.124-2.179 6.708-3.848.432-.456.757-.995.98-1.443a1.353 1.353 0 0 0-.24-1.552 78.133 78.133 0 0 0-3.795-3.638l-.266-11.343M12.272 102.57c.255.182.515.364.776.546l-1.057 4.585-1.428 6.168s1.193 4.059 1.365 5.386c.177 1.327-.454 5.381-.454 5.381l-1.537.49-.703-5.09-.625-.505s-.282 2.868-.318 5.173c-.037 2.306 0 4.471 0 4.471l-1.923 1.062-2.167-.177s-.172-.828-.355-1.874l-2.027-.687s-.839-5.241-.839-7.057c0-1.109 2.298-8.864 4.086-14.734a991.875 991.875 0 0 1 2.073-6.724l.297.208.855.599 6.55-2.088a59.12 59.12 0 0 0-2.57 4.867Z"/><path fill="#F58452" d="M39.485 134.998c-.396 1.791-2.808 5.242-2.808 5.242-2.746.593-4.585 0-4.585 0s-3.564-6.235-3.163-7.698c.198-.728 1.324-4.533 2.402-8.16.584-1.962 1.152-3.873 1.552-5.21l.548-1.853c1.897 1.311 3.173 2.186 3.428 2.342.36.219.683.323.96.359.025.167.051.344.077.531.652 4.398 1.886 13.115 1.59 14.447ZM24.346 126.973c0 .531-2.126 2.587-2.126 2.587s-2.027 1.525-5.044 0c0 0-2.09-3.185-2.126-4.117v-.016c0-.577 1.125-5.86 2.157-10.585.88-4.018 1.694-7.64 1.694-7.64.843.588 1.688 1.181 2.532 1.769.24-.551.63-1.348 1.167-2.295l.568.135s.297 4.882.589 9.842c.291 4.986.588 10.055.588 10.32ZM42.662 63.871s.56-.14 1.4 0c.839.14 3.706 1.957 3.567 2.306-.14.35-1.19 1.956-3.708 3.284-2.518 1.328-8.604 2.515-11.053 2.368-2.448-.148-6.365-2.787-6.365-2.787s.21-4.596.42-5.233c.21-.636 6.225-4.969 7.904-5.388 1.68-.419 6.086 2.306 6.856 2.725.769.42.979 2.725.979 2.725Z"/><path fill="#3F2B56" stroke="#3F2B56" stroke-linecap="round" stroke-linejoin="round" d="M73.524 85.066s3.965 1.32 5.853 5.063l-6.156 8.699a1.63 1.63 0 0 1-1.574.67L44.185 95.38a.785.785 0 0 1-.637-1 2.036 2.036 0 0 1 1.934-1.455l23.222-.2 4.82-7.659Z"/><path stroke="#3F2B56" stroke-linecap="round" stroke-linejoin="round" d="M89.29 74.891c.13-.785.208-1.767.207-3.063"/><path stroke="#3F2B56" stroke-linecap="round" stroke-linejoin="round" d="M93.478 71.697c-.02.287-1.62 2.722-1.818 2.9-.198.176-2.371.296-2.371.296-.282 1.702-.818 2.8-1.293 3.518-.708 1.083-5.856 7.859-5.856 7.859s.167 1.925 0 2.066c-.172.135-1.542-.568-1.542-.568s.385 2.733 0 3.493c-.12.24-.36.328-.636.333v.005c-.61.026-1.386-.338-1.386-.338l.802-1.13c-1.891-3.747-5.856-5.063-5.856-5.063l5.856-9.618c.6-3.294 1.652-8.119 1.652-8.119.224-.307 2.605-2.644 3.204-3.019.595-.374 2.757-1.207 3.44-1.233.995-.047 2.912-.026 3.465.349.312.213.099.978-.006 1.462-.057.26-.286.39-.542.442-1.354.266-3.225 1.265-3.225 1.265s4.898 1.504 5.143 1.728c.24.218.99 3.086.969 3.372ZM87.368 66.6l-2.833.897M90.798 67.688l-3.976.968M89.497 72.821l1.61-.993"/><path fill="#3F2B56" stroke="#3F2B56" stroke-linecap="round" stroke-linejoin="round" d="M79.962 91.594v.005c-.61.026-1.386-.339-1.386-.339l.803-1.129c.23.453.427.937.583 1.463Z"/><path stroke="#3F2B56" stroke-linecap="round" stroke-linejoin="round" d="M42.662 63.871s.56-.14 1.4 0c.839.14 3.706 1.957 3.567 2.306-.14.35-1.19 1.956-3.708 3.284-2.518 1.328-8.604 2.515-11.053 2.368-2.448-.148-6.365-2.787-6.365-2.787s.21-4.596.42-5.233c.21-.636 6.225-4.969 7.904-5.388 1.68-.419 6.086 2.306 6.856 2.725.769.42.979 2.725.979 2.725Z"/><path stroke="#3F2B56" stroke-linecap="round" stroke-linejoin="round" d="M40.212 61.425s-1.534-.07-3.145 0c-1.612.07-3.99 2.096-4.76 2.935-.769.839-.838 7.186-.838 7.186M27.621 69.739l.629-5.868M42.66 63.871l.35 4.472-2.168 1.396v-2.03l1.084-.904"/><path stroke="#3F2B56" stroke-linecap="round" stroke-linejoin="round" d="M32.867 71.829v-2.09l3.568-.418.011 2.225"/><path fill="#3F2B56" stroke="#3F2B56" stroke-linecap="round" stroke-linejoin="round" d="m52.284 92.681-14.77 6.836c-5.433 3.936-7.869 10.236-8.027 10.552l5.17 3.629v-3.629l3.123-2.366 5.511-2.827s1.424-3.412 3.123-6.004c2.233-3.406 5.895-6.305 5.87-6.19ZM44.178 77.597l-8.337 3.364c-11.97 6.863-18.988 19.879-19.068 20.115l3.475 2.603c7.53-10.162 13.628-14.68 15.2-15.754 0 0 2.822-5.99 8.73-10.328ZM14.842 97.704c1.582-2.69 3.757-5.926 6.431-8.776 5.924-6.31 10.82-10.255 10.82-10.255l-1.579-5.837L8.558 94.98l2.29 1.679s-1.26 1.463-2.555 3.134l6.549-2.089Z"/><path stroke="#3F2B56" stroke-linecap="round" stroke-linejoin="round" d="M58.87 104.98c-.127-.255-1.479-2.781-3.395-6.352l-17.695 9.074-3.124 2.367v3.628l-5.17-3.628c.159-.316 2.595-6.616 8.027-10.553l14.77-6.835-5.21-9.697-11.233 4.682s-6.827 4.18-15.594 16.013l-3.474-2.603c.079-.237 7.097-13.252 19.068-20.115l8.336-3.364-3.709-6.898h-.002c-2.729.732-5.969 1.228-7.599 1.13-1.504-.092-3.56-1.122-4.924-1.904A566334.07 566334.07 0 0 0 4.134 93.873c-1.618 1.628-.048 2.976-.048 2.976l4.207 2.943a88.392 88.392 0 0 1 2.555-3.133l-2.29-1.679 21.956-22.144 1.579 5.837s-4.896 3.944-10.82 10.255c-4.764 5.076-7.942 11.372-9.004 13.644 2.785 1.947 5.996 4.19 9.162 6.398 1.03-2.37 4.76-9.107 11.435-14.538l.567 4.275s-4.627 3.794-8.964 12.382c6.332 4.414 11.824 8.227 12.388 8.57 1.391.846 2.178 0 2.178 0s18.627-10.752 19.836-11.537c1.21-.786.484-2.175 0-3.142Z"/><path fill="#3F2B56" stroke="#3F2B56" stroke-linecap="round" stroke-linejoin="round" d="M26.201 107.919c3.753-6.359 7.232-9.212 7.232-9.212l-.567-4.275c-6.675 5.43-10.404 12.168-11.435 14.538l4.77-1.051Z"/><path stroke="#3F2B56" stroke-linecap="round" stroke-linejoin="round" d="m34.655 72.835 1.184 8.126M35.84 87.666l1.673 11.85M37.78 107.702l.937 9.908s.224 2.179-.858 2.425M36.858 119.66c-.255-.156-1.527-1.027-3.423-2.339 0 0-4.108 13.763-4.506 15.222-.4 1.46 3.165 7.695 3.165 7.695s1.839.597 4.583 0c0 0 2.412-3.449 2.811-5.24.309-1.387-1.042-10.794-1.67-14.979a2.443 2.443 0 0 1-.96-.359Z"/><path stroke="#3F2B56" stroke-linecap="round" stroke-linejoin="round" d="m32.092 140.238-2.3 19.031c-.114.94.562 1.79 1.505 1.889 2.095.22 5.813.436 9.384-.224 5.38-.995 6.177-2.123 6.376-2.786.2-.663-2.565-3.302-9.106-6.618l-1.276-11.292"/><path stroke="#3F2B56" stroke-linecap="round" stroke-linejoin="round" d="m32.647 134.268.996 6.235 1.793-5.904M18.491 130.061l-.321-6.539M17.173 129.558l-2.83 19.779a1.58 1.58 0 0 0 .556 1.459c.63.508 1.813.995 3.934.586 2.385-.46 5.124-2.179 6.708-3.848.432-.456.757-.995.98-1.443a1.353 1.353 0 0 0-.24-1.552 78.133 78.133 0 0 0-3.795-3.638l-.266-11.343"/><path stroke="#3F2B56" stroke-linecap="round" stroke-linejoin="round" d="M22.598 106.674a26.776 26.776 0 0 0-1.166 2.296l-2.531-1.766s-3.887 17.313-3.852 18.242c.035.928 2.125 4.112 2.125 4.112 3.02 1.526 5.048 0 5.048 0s2.124-2.056 2.124-2.587c0-.531-1.18-20.159-1.18-20.159l-.568-.138Z"/><path fill="#3F2B56" stroke="#3F2B56" stroke-linecap="round" stroke-linejoin="round" d="m8.61 119.532-2.172-1.744 2.02 3.563.152-1.819Z"/><path stroke="#3F2B56" stroke-linecap="round" stroke-linejoin="round" d="M3.846 128.187c-.185-1.053-.385-2.327-.442-3.203-.114-1.746 0-4.332 0-4.332"/><path stroke="#3F2B56" stroke-linecap="round" stroke-linejoin="round" d="M12.272 102.57c.255.182.515.364.776.546l-1.057 4.585-1.428 6.168s1.193 4.059 1.365 5.386c.177 1.327-.454 5.381-.454 5.381l-1.537.49-.703-5.09-.625-.505s-.282 2.868-.318 5.173c-.037 2.306 0 4.471 0 4.471l-1.923 1.062-2.167-.177s-.172-.828-.355-1.874l-2.027-.687s-.839-5.241-.839-7.057c0-1.109 2.298-8.864 4.086-14.734a991.875 991.875 0 0 1 2.073-6.724l.297.208.855.599 6.55-2.088a59.12 59.12 0 0 0-2.57 4.867Z"/><path stroke="#3F2B56" stroke-linecap="round" stroke-linejoin="round" d="M5.737 120.652s-.14 3.354 0 4.891.63 4.693.63 4.693"/><path fill="#3F2B56" stroke="#3F2B56" stroke-linecap="round" stroke-linejoin="round" d="M12.27 102.57c.256.182.517.364.777.546l-1.057 4.585c-4.31.536-6.926-1.993-6.926-1.993 1.142-3.747 2.074-6.724 2.074-6.724l.297.208.855.599 6.55-2.088a59.12 59.12 0 0 0-2.57 4.867Z"/><path stroke="#3F2B56" stroke-linecap="round" stroke-linejoin="round" d="M35.884 52.877c-1.575-1.516-3.886-4.659-3.618-9.91.293-5.748 5.269-10.312 9.128-11.222 3.56-.84 6.1-.952 9.994.457"/><path stroke="#3F2B56" stroke-linecap="round" stroke-linejoin="round" d="M38.238 38.966s7.28 2.367 13.26 8.003"/><path stroke="#3F2B56" stroke-linecap="round" stroke-linejoin="round" d="M39.535 51.027c.057-.226 4.797-11.836 11.003-15.612"/><path fill="#3F2B56" d="m51.315 40.42.96.836c.13.113.334.046.37-.122l.261-1.193a.226.226 0 0 0-.284-.265l-1.222.357a.226.226 0 0 0-.085.387ZM37.94 45.433l.453-1.08a.323.323 0 0 1 .536-.095l.826.895c.176.191.066.5-.19.538l-1.28.186a.323.323 0 0 1-.345-.444ZM35.28 41.32l.036 1.052c.008.235.27.37.467.241l1.1-.724a.301.301 0 0 0-.083-.541l-1.134-.327a.302.302 0 0 0-.386.3Z"/><path fill="#3F2B56" stroke="#3F2B56" stroke-linecap="round" stroke-linejoin="round" d="M23.167 106.811s.297 4.882.588 9.842l-6.549-1.811c.88-4.018 1.693-7.64 1.693-7.64.845.588 1.689 1.181 2.533 1.769.24-.551.63-1.348 1.167-2.295l.568.135ZM37.897 120.551l-5.013-1.379.547-1.853c1.897 1.311 3.173 2.186 3.428 2.342.36.219.683.323.96.359l.078.531Z"/></svg>
