<svg xmlns="http://www.w3.org/2000/svg" id="tracing" width="583.017" height="508.423" viewBox="0 0 583.017 508.423"><defs><style>.cls-1{fill:#c678d6}.cls-1,.cls-10,.cls-11,.cls-3,.cls-5,.cls-6,.cls-7,.cls-8,.cls-9{stroke:#181225}.cls-1,.cls-10,.cls-11,.cls-13,.cls-3,.cls-5,.cls-6,.cls-7,.cls-8,.cls-9{stroke-linecap:round;stroke-linejoin:round}.cls-15,.cls-3{fill:#181225}.cls-5{fill:#d37d00}.cls-6{fill:#a836b5}.cls-7{fill:#ff45a9}.cls-8{fill:#ef8019}.cls-9{fill:#fff}.cls-10{fill:#feb91a}.cls-11,.cls-13{fill:none}.cls-16{fill:#f6f6f8}.cls-13{stroke:#f6f6f8;stroke-width:2px}.cls-15,.cls-16{stroke-width:0}</style></defs><path d="m70.834 212.502 56.667 16.346L0 296.413l178.719 211.412 221.22-10.898 150.386-90.449-88.27-22.885 120.962-68.655L457.696 0z" style="fill:#dca8e5;stroke-width:0"/><path d="M167.454 287.965c-1.437-.718-12.025-1.322-16.995-1.112-1.914-4.176-9.991-23.378-9.991-23.378s3.516 19.182 4.582 25.092c-4.816 2.765-11.905 8.335-12.826 9.748-.12.18-.3.53-.52 1.01 0 0-.01.01-.02.03-.07.1-.3.47-.4.91-.15.66 0 1.47 1.48 1.78 2.64.54 11.99 1 18.17.45 6.17-.54 18.98-11.5 18.89-12.97-1.07-.78-1.91-1.33-2.37-1.56Z" class="cls-8"/><path d="m344.384 443.395-11.01 27.93-17.07 3.94c-3.79-4.29-7.72-8.71-8.41-9.54-1.37-1.67-2.85-1.38-2.85-1.38s-59.2 18.39-60.88 19.37c-1.67.99-.98 2.76-.98 2.76l7.99 3.81-41.03 9.47-38.07-18.1-4.32-13.18 34.33-23.21-11.24 23.21 12.97 6 97.53-31.88-8.96-17.33c.96-.47 1.91-1.05 2.8-1.75zM212.008 313.395c1.073.211 2.265.48 2.741.71.954.46 4.564 7.64 4.564 7.64l-.954-12.187-.725-1.183zM260.224 321.005l-20.45 14.47-2.07-9.23s.19-1.12.39-2.87c0 0 0-.01.01-.03.61-5.28 1.38-16.25-2.3-20.12l-6.55-.48s-4.36-1.97-5.04-1.84c-.34.07-1.19.4-1.95.72-.76.31-1.44.61-1.44.61-1.56-1.95-3.63-4.54-3.96-4.87-.2-.2-.87-.26-1.64-.26l12.06-14.72s2.45-3.48 8.52-3.49c5.34-.01 14.59 4.37 20.6 13.47 3.17 4.8 5.09 8.9 6.16 12.37 3.63 11.71-2.34 16.27-2.34 16.27" class="cls-10"/><path d="m344.384 443.395-11.01 27.93-17.07 3.94c-3.79-4.29-7.72-8.71-8.41-9.54-1.37-1.67-2.85-1.38-2.85-1.38s-59.2 18.39-60.88 19.37c-1.67.99-.98 2.76-.98 2.76l7.99 3.81-41.03 9.47-1.02-12.61z" class="cls-5"/><path d="M320.296 238.474c-9.667-15.978-24.338-23.611-35.598-22.34-12.343 1.394-18.526 11.806-18.526 11.806l-37.405 47.142.014.002a9.4 9.4 0 0 1 2.71-1.87c7.99-3.705 22.502 3.622 30.05 14.89 7.968 11.896 12.44 28.82 4.086 34.94a9 9 0 0 1-.722.467v.004l61.05-38.824s14.774-12.447-5.659-46.217Z" class="cls-10"/><path d="M381.594 257.545c-3.82 3.16-43.74 29.03-50.51 33.42-.52.33-.84.54-.95.61.33-.24.68-.52 1.04-.86 5.34-5.01 13.15-21.25.03-48.43-.7-1.45-1.46-2.94-2.28-4.45-15.17-27.88-40.64-33.15-54.31-26.24-2.85 1.44-5.09 3.09-6.85 4.83l39.73-40.79s6.18-7.27 19.8-5.82c13.62 1.46 29.6 10.54 43.58 29.06 2.59 3.44 4.75 6.78 6.54 9.98h.01c7.89 14.03 8.81 25.35 9.26 30.53.54 6.35-.91 14.71-5.09 18.16Z" class="cls-10"/><path d="M234.814 384.615c-1.56 1.37-37.39 24.67-47.58 30.6-.09.06-.18.11-.27.16-1.25.67-2.93.5-2.93.5s-12.26-3.2-25.96-7.1c-1.73-.49-3.48-.99-5.23-1.5-4.77-1.39-9.56-2.82-13.91-4.2.07-.97.21-2.54.44-4.57l-4.29 3.33c-2.92-.96-5.55-1.88-7.72-2.71-2.29-.88-1.5-4.36-1.5-4.36 7.77-37.33 24.52-75.74 24.52-75.74s.32-.95.96-1.23l.01-.01c.28-.18 4.63-3.13 5.07-3.39.45-.27 1.09-.64 2.32.41.52.44 11.36 9.08 24.91 20.22l-.37.25c-1.26.94-5.61 4.77-9.3 15.46l16.14-10.37c5.2 4.31 10.6 8.83 15.84 13.3l-.12.07c-.15.09-.45.27-.86.56l-.33.23c-2.89 2.11-9.74 8.33-11.93 21.01l22.13-14.21c8.35 7.29 15.57 13.92 19.85 18.52 0 0 2.4 2.75.11 4.77" class="cls-6"/><path d="M183.284 335.275c-1.26.94-5.61 4.77-9.3 15.46l-6.86 4.41c-13.65 14.64-18.77 40.4-18.77 40.4l-4.44-1.13c5.54-31.6 20.49-46.45 20.49-46.45zM204.654 354.525c-2.89 2.11-9.74 8.33-11.93 21.01l-14.42 9.26s-5.4 4.92-6.31 7.17l4 10.61-12.08-3.07s1.09-14.46 10.43-25.26z" class="cls-3"/><path d="M187.234 415.215c-.09.06-.18.11-.27.16-1.25.67-2.93.5-2.93.5s-12.26-3.2-25.96-7.1c-1.73-.49-3.48-.99-5.23-1.5-4.77-1.39-9.56-2.82-13.91-4.2.07-.97.21-2.54.44-4.57l-4.29 3.33c-2.92-.96-5.55-1.88-7.72-2.71-2.29-.88-1.5-4.36-1.5-4.36 7.77-37.33 24.52-75.74 24.52-75.74s.32-.95.96-1.23l.01-.01c.65-.27 1.44-.29 2.03 1.24 3.14 8.22 7.01 18.39 11.02 28.94 0 0-14.95 14.85-20.49 46.45l4.44 1.13s5.12-25.76 18.77-40.4c2.45 6.47 4.9 12.95 7.22 19.1-9.34 10.8-10.43 25.26-10.43 25.26l12.08 3.07-4-10.61c.91-2.25 6.31-7.17 6.31-7.17 5.33 14.24 9.31 25.09 9.81 27 .49 1.83-.05 2.84-.88 3.42Z" class="cls-1"/><path d="M156.834 346.635s-5.89 9.35-10.81 22.97c-4.09 11.36-5.89 22.45-6.65 28.9l-4.29 3.33c.44-5.68.67-9.49.67-9.49l-2.99-.76c7-28.7 18.98-61.84 18.98-61.84zM166.554 375.695s-7.79 14.31-8.48 33.08c-1.73-.49-3.48-.99-5.23-1.5 0 0 .9-20.96 11.07-38.12z" class="cls-3"/><path d="M143.513 296.208s2.501-2.175 1.787-6.243c-.53-3.017-4.832-26.49-4.832-26.49s9.43 22.42 10.33 24.087c1.088 2.012 2.423 3.97 5.33 3.97" class="cls-8"/><circle cx="139.791" cy="261.407" r="2.175" class="cls-8"/><path d="M183.284 302.675c-.53-2.79-8.99-9.9-13.46-13.15.09 1.47-12.72 12.43-18.89 12.97-6.18.55-15.53.09-18.17-.45-1.48-.31-1.63-1.12-1.48-1.78-2.22 5.13-6.89 18.24-5.55 23.12 1.59 5.81 14.57 15.44 14.57 15.44 8.72 2.09 21.48 2.24 21.48 2.24 9.49-5.48 18.48-12.41 18.48-12.41 3.01-14.45 3.49-23.49 3.02-25.98ZM232.626 357.812l3.85.58" class="cls-11"/><path d="m191.388 355.668 52.078 11.587c1.698.378 3.217-1.13 2.85-2.832l-3.71-17.2s3.27-3.951.953-5.041-6.674-1.117-10.216 0c-5.015 1.582-6.266 3.814-6.13 4.768s3.542 2.452 3.542 2.452l1.871 8.41h0l-41.375-6.23s-2.043.135-2.043 1.906 2.18 2.18 2.18 2.18Z" class="cls-8"/><path d="M220.821 302.234c.984 1.234 1.76 2.216 1.76 2.216" class="cls-11"/><path d="M237.702 326.245s3.016-17.845-1.898-23.021l-6.547-.48s-4.36-1.972-5.04-1.836-3.395 1.326-3.395 1.326h0c-1.556-1.951-3.627-4.534-3.961-4.868-.545-.545-4.632-.068-4.632-.068s-1.55 2.195-2.656 3.603c-.963 1.225-2.792 2.43-2.792 2.43s.34 2.208 1.907 2.276 3.824-.476 5.113-1.634l1.425.476 3.133 5.109.954 12.188s-3.61-7.18-4.564-7.641c-.476-.23-1.668-.499-2.74-.71l-1.346 1.203-.843 2.297c.67.483 1.415 1.095 1.66 1.585.477.954 2.316 3.587 3.133 10.171 0 0 1.575.78 9.885 1.53l4.952 13.76.008-.002c.927-.61 2.186-1.22 3.885-1.757 2.533-.799 5.474-1.002 7.797-.66z" class="cls-9"/><path d="M216.86 297.366c.334.334 2.406 2.917 3.961 4.868h0s2.714-1.19 3.395-1.326 5.04 1.835 5.04 1.835l6.548.48c.062.066.118.142.177.212l.728-11.162a1.372 1.372 0 0 0-1.533-1.451l-12.508 1.512a1.67 1.67 0 0 0-.876.381l-5.32 4.486c.18.04.316.093.388.165Z" class="cls-11"/><path d="m217.634 308.375-2.09 1.86-3.54 3.16-.59.53-.75.67-.39 1.05-.45 1.25-1.89 5.13s-3.81 2.79-10.89-2.86c-7.09-5.66-5.32-9.61-4.09-10.02 0 0 .01 0 .04-.01 1.26-.4 4.79-.87 10.93-1.35l3.47-2.93c.29.4.71.73 1.29.75 1.57.07 3.83-.47 5.12-1.63l1.42.47z" class="cls-10"/><path d="M207.934 322.025s-3.81 2.79-10.89-2.86c-7.09-5.66-5.32-9.61-4.09-10.02 0 0 .01 0 .04-.01.4-.06 4.11-.56 7.65.99.03.01.04.01.04.01 1.33.59 2.63 1.46 3.73 2.76 1.01 1.19 1.73 2.33 2.26 3.38.03.08.07.16.11.23.11.24.21.47.29.69q.01 0 .01.01c1.18 2.85.85 4.82.85 4.82Z" class="cls-5"/><path d="M203.234 318.545c-3.95-1.63-6.74-5.11-6.53-7.28.19-2.05 3.53-1.25 3.94-1.14.03.01.04.01.04.01 1.33.59 2.63 1.46 3.73 2.76 1.01 1.19 1.73 2.33 2.26 3.38.03.08.07.16.11.23.13.23.23.46.29.69q.01 0 .01.01c.44 1.48-.43 2.76-3.85 1.34Z" class="cls-15"/><path d="M210.664 314.595s-.682-3.947-4.565-6.059" class="cls-11"/><path d="m217.634 308.375-2.09 1.86c-2.26-4.16-6.86-4.63-6.86-4.63 1.57.07 3.83-.47 5.12-1.63l1.42.47z" class="cls-15"/><path d="M227.963 299.75s.045-2.51-1.09-4.155c-1.988-2.88-5.08-2.88-5.08-2.88M230.3 301.407s4.136.455 5.905-1.407" class="cls-11"/><path d="m227.542 338.638-3.044-8.457c-8.31-.75-9.885-1.53-9.885-1.53-.817-6.584-2.656-9.217-3.133-10.17-.244-.49-.988-1.101-1.656-1.584l-1.89 5.128s-2.073 1.502-5.99.044l-.002.004s3.865 10.52 10.705 16.285c6.625 5.582 11.306 5.663 13.338 4.338s1.557-4.059 1.557-4.059" class="cls-3"/><path d="m212.004 313.395 1.77-1.58s1.703 1.124 2.791 2.428c1.351 1.62 2.481 4.098 2.481 4.098l.267 3.405s-3.61-7.18-4.564-7.641c-.476-.23-1.668-.499-2.74-.71" class="cls-15"/><path d="M261.54 288.103c-7.547-11.267-22.058-18.594-30.049-14.889-6.682 3.098-5.154 10.32-5.154 10.321l.945-1.153s2.452-3.48 8.522-3.489c5.336-.007 14.585 4.37 20.6 13.477 13.855 20.974 3.824 28.632 3.824 28.632l-4.956 3.508s6.103 1.648 10.355-1.467c8.353-6.118 3.882-23.043-4.087-34.94Z" class="cls-3"/><path d="m247.425 256.802.76 3.31s.216.957 1.58.67c1.324-.279 1.068-1.557 1.068-1.557l-1.423-3.16zM237.562 263.998s3.078-3.621 11.106-1.98c9.33 1.906 17.618 10.367 22.748 17.367 7.37 10.056 13.361 30.343 5.294 36.623M238.323 272.373l3.466-4.498M245.2 274.351l2.947-3.616M256.653 282.232l3.866-3.339M261.541 288.103l7.56-5.653M264.799 293.628l4.642-2.816M251.265 277.767l3.396-3.762M267.611 300l4.827-2.225M269.558 306.918l4.515-1.992M270.025 314.216l6.432-3.5" class="cls-11"/><path d="M322.944 487.265c-1.77 1.18-28.52 18.39-31.08 19.96-2.55 1.57-5.21 0-5.21 0l-8.29-3.96-35.18-16.79s-.69-1.77.98-2.76c1.68-.98 60.88-19.37 60.88-19.37s1.48-.29 2.85 1.38c.51.62 2.76 3.16 5.43 6.17 4.59 5.19 10.42 11.75 10.6 12.12.3.59.79 2.07-.98 3.25" class="cls-10"/><path d="M322.944 487.265c-1.77 1.18-28.52 18.39-31.08 19.96-2.55 1.57-5.21 0-5.21 0l-8.29-3.96s-.95-2.73 1.7-4.89c2.66-2.16 24.19-11.11 24.19-11.11s0-6.2-.59-10.82l9.66-4.55c4.59 5.19 10.42 11.75 10.6 12.12.3.59.79 2.07-.98 3.25" class="cls-5"/><path d="m210.144 499.755-38.07-18.1-4.32-13.18 41.37 18.67z" class="cls-3"/><path d="m209.124 487.145 135.26-43.75" class="cls-11"/><path d="m172.757 473.965 31.658 14.099 1.036 6.743-30.446-14.406z" style="stroke:#181225;stroke-linecap:round;stroke-linejoin:round;fill:#f6f6f8"/><path d="m251.176 490.289-7.991-3.815s-.305-.826.024-1.663l-.015-.002-3.071 8.03z" class="cls-3"/><path d="M296.25 432.741c.061.123 35.66 14.689 35.66 14.689l-5.31 25.458" class="cls-11"/><path d="m180.215 421.854 1.022-2.501" class="cls-3"/><path d="M301.564 360.705c-5.68 35.4-21.43 51.96-29.19 59.66-14.42 14.29-31.25 22.54-46.2 24.24-.13.01-.26.03-.39.04h-.01c-5.95.64-11.59.23-16.65-1.25-17.88-5.23-28.91-21.54-28.91-21.54l.6-.34c1.11-.36 2.21-.74 3.29-1.15 5.95-2.22 11.42-5.09 16.06-7.9 3.16 4.18 9.51 10.74 19.64 13.33 17.61 4.49 46.74-11.65 59-50.78 6.61-21.09 4.95-44.84 3.62-55.85-.47-3.92-.9-6.22-.9-6.22l20.36-12.95s.53 2.57 1.07 7.19c1.18 10.01 2.45 29.63-1.39 53.52" class="cls-10"/><path d="M197.741 408.759v-.001l-.003.004z" class="cls-11"/><path d="M225.774 444.645c-5.95.64-11.59.23-16.65-1.25-17.88-5.23-28.91-21.54-28.91-21.54l.6-.34c1.11-.36 2.21-.74 3.29-1.15 0 0 4.85 10.11 18.79 18.17 11.07 6.4 20.55 6.26 22.88 6.11" class="cls-3"/><path d="M278.804 375.015c-1.27 4.04-2.71 7.84-4.31 11.39-13.85 30.85-38.9 43.42-54.69 39.39-1.03-.26-2.01-.58-2.96-.91.64.01 15.25.29 28.4-10.23 10.66-8.53 17.63-19.84 22.13-30.44 4.45-10.48 6.47-20.26 7.24-25.95 1.48-11.03 1.17-30.65-.62-40.53l7.53-4.79c.01.03 6.24 33.5-2.72 62.07Z" class="cls-5"/><path d="m301.344 442.595-97.53 31.88-12.97-6 12.97-26.79.29-.11c1.61.69 3.28 1.31 5.02 1.82 2.19.64 4.49 1.08 6.87 1.32 3.13.32 6.4.29 9.78-.07h.01c.13-.01.26-.03.39-.04 14.95-1.7 31.78-9.95 46.2-24.24 2.86-2.84 6.81-6.89 10.94-12.64z" class="cls-5"/><path d="m215.994 444.715-12.18 29.76-12.97-6 12.97-26.79.29-.11c1.61.69 3.28 1.31 5.02 1.82 2.19.64 4.49 1.08 6.87 1.32" class="cls-3"/><path d="M214.904 401.835s-17.83 15.99-39.08 21.1c0 0-2.3-.39-6-1.19-6.73-1.44-18.1-4.24-28.84-8.52 0 0-3.78-12.87-3.99-14.61-.2-1.74.11-3.28 2.76-3.07 2.66.21 16.96 3.79 20.64 5.52 0 0 1.67 1.87 3.69 4.18 2.01 2.3 4.37 5.05 5.74 6.81 2.91.8 5.54 1.51 7.72 2.1 4 1.07 6.49 1.72 6.49 1.72s1.68.17 2.93-.5c3.1-1.79 8.84-5.37 15.3-9.48z" class="cls-10"/><path d="M169.824 421.745c-6.73-1.44-18.1-4.24-28.84-8.52 0 0-3.78-12.87-3.99-14.61 0 0 .82-.71 3.78 0 2.97.72 12.53 3.46 17.69 4.78 0 0 9.75 14.62 11.36 18.35ZM214.904 401.835s-17.83 15.99-39.08 21.1l1.63-8.69.09-.09c4 1.07 6.49 1.72 6.49 1.72s1.68.17 2.93-.5c3.1-1.79 8.84-5.37 15.3-9.48z" class="cls-3"/><path d="M137.854 345.451s12.69 3.211 26.55 2.514c0 0 13.044-7.2 21.308-14.5l-5.449-4.814s-8.99 6.935-18.48 12.412c0 0-12.76-.152-21.477-2.24zM138.872 273.446s-3.574 1.787-3.263 4.273 4.888 2.688 9.473 1.523 7.652-3.978 6.837-6.468c-.645-1.97-4.112-2.146-6.132-1.815 0 0 3.623.83 3.545 2.461s-3.656 3.03-5.267 3.42-6.026 1.23-6.436-.52 1.243-2.874 1.243-2.874" class="cls-8"/><path d="M328.924 237.838c-15.166-27.88-40.642-33.156-54.306-26.244-15.62 7.9-13.04 22.133-13.04 22.135l4.594-5.79s6.183-10.411 18.526-11.805c11.26-1.271 25.93 6.362 35.598 22.34 20.433 33.77 5.66 46.217 5.66 46.217l-15.663 9.96h0s11.093 3.124 19.811-3.051c5.488-3.888 16.135-21.93-1.18-53.762" class="cls-3"/><path d="M253.531 249.457c-.292-6.282-5.04-13.432-11.246-13.56-5.642-.116-8.052 5.398-6.673 11.031 1.292 5.274 5.758 9.901 10.116 10.655 5.466.944 8.018-3.498 7.803-8.126Zm-8.14 5.255c-3.046-.526-6.168-3.76-7.07-7.446-.964-3.937.72-7.791 4.663-7.71 4.339.09 7.656 5.087 7.86 9.477.15 3.235-1.633 6.34-5.453 5.68" class="cls-10"/><path d="m224.608 285.647 1.73-2.112s-1.04-4.987 2.443-8.45l-.014-.003 9.261-11.672c-1.116-2.358-3.088-4.563-6.576-4.96-7.991-.91-12.159 7.482-12.713 12.285-1.074 9.305 3.595 14.202 5.869 14.912Z" class="cls-3"/><path d="M224.608 285.647c-2.274-.71-6.943-5.607-5.869-14.912.554-4.803 4.722-13.194 12.713-12.285-3.94-.281-9.1-.378-10.911-.404a4.8 4.8 0 0 0-1.685.265c-3.088 1.098-8.979 5.36-8.685 17.035.158 6.26 2.807 9.563 4.522 11.053a4.24 4.24 0 0 0 2.788 1.019h5.677z" class="cls-10"/><path d="M230.301 269.03c-1.331-.116-4.114 1.697-4.114 4.975 0 1.848.499 2.953.89 3.542a8.3 8.3 0 0 1 1.704-2.463l-.014-.002 4.804-6.055z" class="cls-5"/><path d="M197.13 259.44s2.72-1.888 5.078-3.402M201.868 259.967s4.012-2.752 6.66-4.243M214.271 256.038l-7.609 5.553" class="cls-11"/><path d="M191.334 269.026c.065-4.105.125-8.059.125-8.825l.85-.568h0s-3.034.608-3.365 4.31c-.35 3.932 2.39 5.082 2.39 5.083" class="cls-5"/><path d="M218.264 258.545c-1.97.87-4.69 2.88-6.43 6.88-.01.02-.01.04-.03.06-1.05 2.47-1.74 5.69-1.63 9.86.04 1.75.28 3.26.64 4.57a58 58 0 0 1-6.67-.71l-4.85 21.52s-4.21.76-9.94-1.46l1.81-20.06s.29-17.31.29-19c0 0 6.73-4.51 7.61-4.97.14-.07.31-.1.5-.1 1.02 0 2.64.9 2.64.9 1.6-1.03 3.04-1.88 3.35-1.86.76.06 2.97 1.55 2.97 1.55.89-.5 1.62-.85 2-.92 1.52-.28 3.06.89 4.7 1.77.82.44 1.58.93 2.14 1.31.55.39.9.66.9.66Z" class="cls-9"/><path d="M211.804 265.485c-1.05 2.47-1.74 5.69-1.63 9.86.04 1.75.28 3.26.64 4.57-.87-.04-2.06-.12-3.46-.27 1.7-8.92 4.14-13.59 4.45-14.16" class="cls-3"/><path d="M192.954 309.145s.01 0 .04-.01c.815-.259 2.586-.547 5.392-.848 2.166-2.486 3.51-4.158 3.556-4.312.135-.461-2.648-3.25-2.648-3.25s-4.21.76-9.94-1.46c0 0-3.54 1.504-3.642 1.985-.102.48 2.987 4.629 2.987 4.629s-3.899 6.212-6.136 9.613c-.417 3.073-1 6.631-1.795 10.67 4.17-3.603 8.41-7.851 11.991-11.662-1.765-3.08-.658-5.07.195-5.355Z" class="cls-8"/><path d="m204.104 441.575-.29.11-.82 1.69-.91 1.89-26.87 18.17s-6.34-2.85-12.52-5.68h-.01c-5.3-2.43-10.48-4.82-11.4-5.37-1.2-.72-1.46-2.45-.19-3.02 2.82-1.25 32.02-11.23 42.35-14.06l.03.01c2.94 2.21 6.31 4.33 10.08 6.01.18.09.36.17.55.25" class="cls-10"/><path d="m203.554 441.325-.56 2.05s-10.25-1.68-11.86-1.35c-1.46.29-24.1 10.24-28.3 12.09-.54.24-.95.7-1.08 1.27-.37 1.66.8 2.3.93 2.37-5.3-2.43-10.48-4.82-11.4-5.37-1.2-.72-1.46-2.45-.19-3.02 2.82-1.25 32.02-11.23 42.35-14.06l.03.01c2.94 2.21 6.31 4.33 10.08 6.01Z" class="cls-5"/><path d="M234.554 417.285c-2.1 2-6.49 4.71-10.26 6.86-4.22.79-7.11.75-7.44.74a34.8 34.8 0 0 1-9.04-4.85l.72-13.16c4.01-2.93 6.37-5.04 6.37-5.04l4.9-1.58v15.64a798.615 798.615 0 0 1 14.75 1.39" class="cls-9"/><path d="M232.12 419.247c-2.247 1.617-5.19 3.395-7.826 4.9v.002a48.8 48.8 0 0 0 11.51-3.664z" class="cls-10"/><path d="m222.134 416.095-2.33 1.68v-1.88c.77.06 1.55.13 2.33.2" class="cls-3"/><path d="M270.669 433.692c.01.297-.13.57-.38.733-1.665 1.09-8.29 5.383-13.855 8.33-5.64 2.98-11.66 6.42-15.08 6.62-.46.02-.88-.01-1.24-.11-3.02-.85-17.26-5.85-19.43-6.7-.81-.32-.79-1.63-.86-2.13-.13-.82.5-1.22 1.03-1.7.73-.64 13.56-10.06 18.49-13.57l-1.93 12.71s15.83-3.99 26.03-12.05c1.93.54 4.21 1.2 4.88 1.46.44.17.81.28 1.1.41.54.25.86.6.98 1.57.139 1.163.23 3.442.264 4.427Z" class="cls-10"/><path d="M270.669 433.692c.01.297-.13.57-.38.733-1.665 1.09-8.29 5.383-13.855 8.33-5.64 2.98-11.66 6.42-15.08 6.62l-.01-.01s-1.17.09-1.18-1.61c-.02-1.42.387-2.058 1.5-2.91 1.088-.833 27.76-17.15 27.76-17.15.54.25.86.6.98 1.57.139 1.163.23 3.442.264 4.427Z" class="cls-3"/><path d="m202.265 405.895 39.542-12.706-1.143 4.574a2.4 2.4 0 0 0 .069 1.38l1.807 5.034 8.497-1.318 4.552-5.817a3.54 3.54 0 0 0 .752-2.094l.365-14.249a1.07 1.07 0 0 0-1.517-.997l-43.47 20.141z" class="cls-8"/><path d="m251.037 402.859.586 19.778c12.16-1.758 16.7-1.612 16.7-1.612-8.79 11.28-30.911 16.848-30.911 16.848l5.127-33.696z" class="cls-9"/><path d="M298.504 419.345c-1.87 4.2-6.3 6.38-9.67 7.19h-.01c-1.39.33-2.59.43-3.36.35-2.64-.29-9.67-2.49-9.67-2.49l-13.04-12.6s4.16-4.23 9.25-12.16c5.03-7.82 8.04-15.97 8.04-15.97l6.89 1.17s11.57 14.95 13.47 18.02c1.91 3.08.74 10.55-1.9 16.49Z" class="cls-5"/><path d="M288.824 426.535c-1.39.33-2.59.43-3.36.35-2.64-.29-9.67-2.49-9.67-2.49l-13.04-12.6s4.16-4.23 9.25-12.16c5.03-7.82 8.04-15.97 8.04-15.97l6.89 1.17s-3.31 10.29-7.19 16.5c-4.25 6.79-9.82 13.3-9.82 13.3s6.51 7.17 8.59 8.87c2.07 1.7 6.18 3.69 10.31 3.03" class="cls-10"/><path d="M290.306 400.652c5.283.566 4.368 8.64 3.962 10.213-.66 2.561-3.49 8.019-7.547 7.17-2.138-.448-5.158-4.355-3.679-10.377 1.32-5.378 4.766-7.274 7.264-7.006" class="cls-10"/><path d="M290.306 400.652s2.264 8.987-3.585 17.383" class="cls-11"/><path d="M302.954 307.185c-.54-4.62-1.07-7.19-1.07-7.19l-20.36 12.95-7.53 4.79c1.79 9.88 2.1 29.5.62 40.53-.77 5.69-2.79 15.47-7.24 25.95 2.23.01 5.57.12 3.67.71-2.66.82-3.27 1.94 2.45 1.64.33-.02.66-.07 1-.16 1.6-3.55 3.04-7.35 4.31-11.39 6.616-21.096 4.95-44.847 3.622-55.851z" class="cls-3"/><path d="m301.564 322.715-11.69 6.37-1.95 1.06c-.64-8.55-1.41-13.36-1.41-13.36l2.22-1.29 11.18-6.48c.68 4.37 1.65 13.7 1.65 13.7" class="cls-11"/><path d="m289.874 329.085-1.95 1.06c-.64-8.55-1.41-13.36-1.41-13.36l2.22-1.29c.4 2.31 1 6.86 1.14 13.59" class="cls-3"/><path d="M292.998 319.437c1.107 1.748 3.862 1.52 5.244-.583 1.25-1.902 1.504-5.082-.116-6.76-3.264-3.38-7.93 2.92-5.128 7.343ZM298.126 312.094l-4.629 7.916M203.419 416.232l-4.55 4.134M208.762 420.712l-6.497 8.357M214.394 423.896l-2.68 5.173M222.134 426.259l-1.165 5.318M228.962 426.363v4.297M255.416 413.357l2.359 3.662M279.955 371.012l6.203 1.047M282.051 360.927l10.652.611M283.229 350.702h6.171M283.642 340.923l6.232-.611M276.898 380.561l6.158 2.019M261.197 407.465l3.135 2.582M267.045 399.852l3.246 2.37M272.569 390.436l3.384 2.312" class="cls-11"/><path d="M191.388 355.668s-2.18-.409-2.18-2.18l-2.077 12.438 4.684-3.048 1.32-6.821z" class="cls-3"/><path d="M238.466 319.38s3.677-6.34 6.381-7.814c3.3-1.8 2.853 2.962 6.923-1.33 3.477-3.668 2.422-7.43 4.954-7.459 3.795-.044 3.866-5.358 3.866-5.358l2.924 6.47s-3.535 3.274-5.591 4.647c-1.233.824-1.468.338-1.393-.197.467-3.314-1.464-1.98-2.673.877-2.258 5.339-4.67 6.792-7.581 5.38-3.79-1.84-8.18 8.78-8.18 8.78zM275.175 285.647s5.252-3.023 11.205-13.83c1.745-3.167 4.414-3.219 5.177-1.694.942 1.883 3.964.612 8.859-4.622 2.887-3.087 6.901-11.792 9.48-15.343 1.335-1.839 2.36-1.193 2.486 0 .622 5.907 7.596-.04 12.08-4.81l2.665 6.528s-4.028-3.404-10.333 4.162-7.358 8.455-7.358 2.412-5.333 6.2-7.872 10.349c-3.185 5.206-9.293 8.303-12.496 10.094-6.36 3.557-12.194 10.497-12.194 10.497z" class="cls-15"/><path d="M327.11 251.862c-.282-.221-4.241-3.113-10.316 4.176-6.304 7.565-7.358 8.455-7.358 2.412s-5.333 6.2-7.872 10.349c-3.185 5.206-9.293 8.303-12.496 10.094-6.36 3.557-12.194 10.497-12.194 10.497l-.097-.212c4.199 10.108 5.845 22.227-.067 26.83l49.246-31.317s10.772-9.105 1.153-32.829Z" class="cls-5"/><path d="M370.879 198.88s.425 6.322-3.506 9.976c-2.284 2.124-4.272 3.293-5.979 4.013-1.797.536-5 1.332-6 1.943-3.829 2.337.584 5.117-2.826 5.476-8.915.94-11.165 6.475-15.015 10.326-3.85 3.85-9.302 6.015-9.302 6.015l2.989 5.573c3.301-2.002 3.728-4.535 12.321-14.883 4.218-5.08 13.909-7.003 20.192-10.299l.041-.024c7.158-4.542 13.635-8.14 13.635-8.14-2.899-6.312-6.55-9.976-6.55-9.976Z" class="cls-15"/><path d="M224.45 211.525c7.855 2.22 6.885 13.094 2.618 15.81s-9.02 1.94-11.736-.485c-1.47-1.313-4.865-6.402-1.455-12.027 1.89-3.116 6.11-4.559 10.572-3.298" class="cls-8"/><path d="m253.56 150.915-9.123 18.709 11.9-16.66 11.437 6.148-9.652-9.321 7.536-15.47-10.313 14.016-11.37-6.876z" class="cls-16"/><path d="M311.644 131.022c9.049-.393 11.64 7.663 11.154 11.93s-5.283 9.126-12.997 7.275c-4.85-1.164-7.352-5.77-7.274-10.087.097-5.335 4.656-8.924 9.117-9.118" class="cls-7"/><path d="m423.305 133.827-1.093-8.874 3.473 8.489 8.938-1.544-8.424 3.794.772 10.032-3.28-9.775-7.781 1.994z" class="cls-16"/><path d="M339.706 341.585c16.353.94 19.083 14.082 18.018 21.433-1.178 8.126-9.3 16.339-20.962 15.31-8.008-.707-18.019-8.362-15.899-21.551 1.346-8.374 8.597-15.781 18.843-15.192Z" class="cls-11"/><path d="M357.874 361.565c-.03.51-.08.99-.15 1.45-.97 6.67-6.61 13.39-15.04 15.02-1.85.36-3.83.48-5.92.29-2.63-.23-5.48-1.21-8.04-2.9-5.24-3.43-9.28-9.79-7.86-18.65.08-.52.19-1.04.33-1.55 1.39-5.57 5.42-10.5 11.17-12.6 2.21-.81 4.67-1.19 7.34-1.04 4.18.24 7.47 1.28 10.03 2.82 6.84 4.08 8.52 11.7 8.14 17.16" class="cls-11"/><path d="M349.714 350.185c-1.76 8.41-11.19 9.3-11.19 9.3s1.77-2.59 1.65-7.89c-.17-7.73-7.81-8.97-7.81-8.97 2.21-.81 4.67-1.19 7.34-1.04 4.18.24 7.47 1.28 10.03 2.82.39 1.52.48 3.42-.02 5.78" class="cls-7"/><path d="M357.874 361.565c-1.78 1.54-4.47 2.98-8.28 2.98-8.12 0-11.07-5.06-11.07-5.06s9.43-.89 11.19-9.3c.5-2.36.41-4.26.02-5.78 6.84 4.08 8.52 11.7 8.14 17.16" class="cls-6"/><path d="M357.874 361.565c-.03.51-.08.99-.15 1.45-.97 6.67-6.61 13.39-15.04 15.02-2.06-1.62-3.81-3.57-4.63-5.83-2.82-7.77.47-12.72.47-12.72s2.95 5.06 11.07 5.06c3.81 0 6.5-1.44 8.28-2.98" class="cls-1"/><path d="M342.684 378.035c-1.85.36-3.83.48-5.92.29-2.63-.23-5.48-1.21-8.04-2.9-.52-2.53-.6-5.17.26-7.46 2.71-7.18 9.54-8.48 9.54-8.48s-3.29 4.95-.47 12.72c.82 2.26 2.57 4.21 4.63 5.83" style="stroke:#181225;stroke-linecap:round;stroke-linejoin:round;fill:#93de00"/><path d="M338.524 359.485s-6.83 1.3-9.54 8.48c-.86 2.29-.78 4.93-.26 7.46-5.24-3.43-9.28-9.79-7.86-18.65.08-.52.19-1.04.33-1.55 2.4-1.45 5.49-2.48 9.09-1.86 7.1 1.21 8.24 6.12 8.24 6.12" class="cls-10"/><path d="M338.524 359.485s-1.14-4.91-8.24-6.12c-3.6-.62-6.69.41-9.09 1.86 1.39-5.57 5.42-10.5 11.17-12.6 0 0 7.64 1.24 7.81 8.97.12 5.3-1.65 7.89-1.65 7.89" class="cls-8"/><path d="M267.374 384.215q.493-1.167.948-2.32l-6.207-1.334c-2.229 6.698-5.688 11.031-5.688 11.031l-.086 3.357a3.54 3.54 0 0 1-.752 2.093l-4.553 5.817.188 6.344c7.374-7.597 12.554-16.517 16.15-24.988" class="cls-10"/><path d="m353.179 405.245 2.852-8.629.114 9.542 8.328 2.738-8.784.114-3.08 13.005v-13.918l-9.925-3.878zM451.281 326.951l-3.415-18.576 6.693 16.937 22.673-5.873-21.307 9.698 6.283 24.722-9.971-23.493-16.937 4.781z" class="cls-16"/><path d="M441.858 365.426c.22 6.328-5.02 8.743-9.393 8.12-4.088-.583-6.638-3.852-6.874-7.68-.215-3.485 2.531-8.167 8.147-7.923 4.807.21 7.987 3.657 8.12 7.483" class="cls-7"/><path d="M414.483 318.761c1.337 5.627-4.11 7.71-7.131 6.796-2.395-.724-4.227-2.56-4.345-5.57-.111-2.841 2.106-5.32 4.735-5.85 2.84-.57 6.004 1.527 6.74 4.624" class="cls-8"/><path d="M494.074 153.427c-1.957-9.062 3.263-16.239 11.382-17.689 8.378-1.496 16.423 4.22 17.544 12.18.725 5.147-2.61 14.644-13.122 15.151-9.676.467-14.844-5.197-15.804-9.642Z" class="cls-1"/><path d="m514.663 142.698-5.22 1.812v-5.147s-11.024 7.35-15.772 10.63c.021 1.107.148 2.254.403 3.434.118.543.3 1.104.543 1.67l6.78-5.005.217 6.452 5.292-1.957.435-5.29 3.19-.292-.218 7.83 12.09-3.25c.654-2.043.823-4.066.597-5.668-.042-.301-.114-.593-.176-.887-2.959 1.288-8.94 3.896-9.103 4.005-.218.145.942-8.337.942-8.337" class="cls-7"/><path d="M384.98 194.108s-2.631-1.556-1.604-4.488c.481-1.373 1.97-1.981 3.124-2.032 1.584-.07 3.047.68 3.756 2.462.888 2.232-1.548 5.858-5.277 4.058Z" class="cls-1"/><path d="M288.824 426.535c-1.39.33-2.59.43-3.36.35-2.64-.29-9.67-2.49-9.67-2.49l-13.04-12.6 7.17 2.84s6.51 7.17 8.59 8.87c2.07 1.7 6.18 3.69 10.31 3.03" class="cls-3"/><path d="M288.834 426.535h-.01c-1.39.33-2.59.43-3.36.35-2.64-.29-9.67-2.49-9.67-2.49l-13.04-12.6 11.892 15.116s3.73 5.275 8.987 4.992c5.258-.283 7.324-6.026 7.324-6.026h0c-.73.276-1.448.496-2.123.658Z" class="cls-3"/><path d="M481.124 277.525c-12.58 4.31-26.79-1.01-31.96-12.53-3.01-6.71-2.23-15.71 2.02-22.72 1.61-2.66 3.73-5.04 6.33-6.89 5.26-3.74 11.14-5.34 16.77-5.21 10.39.24 19.93 6.34 23.19 15.75 4.45 12.86-3.63 27.24-16.35 31.6Z" class="cls-7"/><path d="M497.474 245.925c-1-2.886-2.594-5.456-4.618-7.645-3.399 5.06-12.957 19.286-15.408 22.852-2.997 4.359 1.184-9.013.24-8.13-2.618 2.45-5.125 5.96-8.413 10.31-1.118 1.477 4.792-16.717 3.814-17.573-1.106-.968-17.326 17.107-22.106 22.48 2.637 3.943 6.44 6.92 10.829 8.734 3.921-5.098 11.153-14.335 11.549-13.642.545.954-1.77 8.31-.409 8.446s13.214-14.712 15.802-16.074-5.313 13.622-2.86 11.851c1.827-1.32 9.178-9.677 12.803-13.847a22.5 22.5 0 0 0-1.223-7.762ZM474.284 230.175c-.25.16-.51.32-.77.49-5.85 3.73-8.14 8.74-8.08 5.18.06-3.94-2.01-1.17-3.73.89-1.59 1.9-8.92 11.92-9.64 11.87-.55-.05-.68-3.24-.88-6.33 1.61-2.66 3.73-5.04 6.33-6.89 5.26-3.74 11.14-5.34 16.77-5.21" class="cls-1"/><path d="M458.697 242.524s11.526-7.83 21.966-10.004l-2.465-21.531s-16.094 3.407-22.619 5.437z" class="cls-9"/><path d="M458.697 242.524s11.526-7.83 21.966-10.004l-.413-3.604c-12.15 2.934-19.13 6.87-22.134 8.75z" class="cls-6"/><path d="m461.246 219.884 12.735-3.821-3.905 12.905z" class="cls-10"/><circle cx="468.266" cy="220.104" r=".769" class="cls-15"/><path d="m468.628 221.935.435 2.465" class="cls-11"/><path d="m466.542 213.592-9.056-6.301 14.187-2.682z" class="cls-6"/><path d="M462.734 202.942s8.94-7.178 6.33-8.337-1.45-1.668 1.594-5.438 3.045-6.742-.725-5.8-7.438 2.839-7.199-.175 9.215-11.255 13.144-18.31c3.552-6.38-4.205-.725-5.655-1.523s5.727-8.554 4.06-11.31-14.427 5.873-22.256 16.312-4.97 12.969.797 11.527c2.32-.58 6.235-1.522 4.35 2.465s-5.292 7.757-3.606 9.756c1.527 1.81 8.703-2.289 11.012.756s-1.846 10.077-1.846 10.077Z" class="cls-16"/><path d="M458.697 143.322c1.728 7.363 2.581 17.42 2.581 17.42M452.88 124.245a148 148 0 0 1 3.673 10.947M444.812 106.978a119 119 0 0 1 5.421 10.809M434.623 92.323a90 90 0 0 1 6.783 9.08M421.113 79.887a71 71 0 0 1 9.445 8.014M402.193 70.734a63.6 63.6 0 0 1 12.072 4.929M385.441 68.028c4.116.173 8.013.667 11.7 1.44M366.836 69.67c3.646-.858 7.55-1.418 11.728-1.623M351.324 75.79a56.2 56.2 0 0 1 10.451-4.69M335.066 89.688a63.7 63.7 0 0 1 8.257-8.307M324.128 107.278a86 86 0 0 1 5.43-9.997M321.657 122.27c-3.25 4.092-4.742 7.63-4.742 7.63s1.072-7.18 4.695-16.65M332.46 113.176c-2.787 1.439-5.167 3.24-7.165 5.124M353.078 110.872c-4.491-.992-8.515-1.058-12.1-.492M368.46 120.418c-2.425-2.796-5.163-5.144-8.252-6.87M377.808 136.396c-1.598-3.923-3.465-7.664-5.646-11.024M383.281 154.364a129 129 0 0 0-2.754-10.362M386.28 172.43a184 184 0 0 0-1.476-10.344M391.984 174.177c-3.532 3.742-4.725 10.742-4.725 10.742s-.077-3.009-.504-7.817M404.813 178.082c-2.064-3.942-4.601-6.01-7.593-6.19M410.317 201.784c-.601-6.13-1.454-11.325-2.55-15.577M411.341 221.645a311 311 0 0 0-.122-5.329q-.12-3.69-.321-7.075M411.248 244.832c.09-5.323.144-10.482.146-15.258M410.6 270.7c.14-4.417.27-8.969.385-13.524M409.778 293.56c.177-4.428.369-9.482.557-14.89M406.775 306.207c1.51 2.705 2.261 4.605 2.261 4.605s.23-4.838.547-12.467M394.891 292.332c3.548 2.495 6.423 5.715 8.631 8.765M375.99 288.557c4.16-.98 7.92-.81 11.286.113M359.988 297.362c2.698-2.441 5.713-4.579 9.078-6.25M347.205 314.631c1.86-3.623 4.091-7.291 6.748-10.714M338.333 326.211q.324 6.082.533 12.357s1.348-7.66 5.185-17.058M336.935 306.511q.505 5.613.898 11.423M335.56 293.321q.402 3.36.757 6.802M281.926 184.857a43 43 0 0 1 8.08 3.462M265.517 182.696c3.075-.08 6.35.122 9.832.665M247.543 186.903a43 43 0 0 1 10.808-3.475M233.782 197.047c2.31-2.457 5.124-4.957 8.483-7.169M225.186 209.472s1.284-2.979 4.11-6.95" class="cls-13"/><path d="M245.391 254.712c-3.046-.526-6.168-3.76-7.07-7.446-.965-3.937.72-7.791 4.663-7.71 4.338.09 7.656 5.087 7.86 9.477.15 3.235-1.633 6.34-5.453 5.68" style="stroke:#181225;stroke-linecap:round;stroke-linejoin:round;fill:#dca8e5"/><path d="m238.321 247.266 12.532 2.892M237.412 437.873l.45-2.953h0s-5.293 4.32-4.917 4.947 6.239-.818 8.495-1.666 12.427-4.597 18.404-9.823c-9.94 6.35-22.432 9.495-22.432 9.495" class="cls-3"/><path d="m478.665 215.07 11.712-2.921-10.435 14.072zM457.486 232.39l-14.448-7.047 13.138-3.917z" class="cls-6"/><path d="m260.224 321.005-20.45 14.47-2.07-9.23s.19-1.12.39-2.87c0 0 0-.01.01-.03.24-.57 4.49-10.54 8.17-8.75 2.91 1.41 5.32-.04 7.58-5.38 1.21-2.86 3.14-4.19 2.68-.88-.08.54.16 1.03 1.39.2 1.39-.93 3.45-2.72 4.64-3.8 3.63 11.71-2.34 16.27-2.34 16.27M386.684 239.385c-.45-5.18-1.37-16.5-9.26-30.53h-.01c-.31.18-6.63 3.71-13.62 8.14-.01.01-.03.02-.04.02-6.28 3.3-15.98 5.22-20.19 10.3-8.6 10.35-9.02 12.88-12.32 14.89l-.04.08-.005.014c13.104 27.165 5.317 43.396-.025 48.416q0 0 0 0c-.03.08-.06.17-.09.25 6.77-4.39 46.69-30.26 50.51-33.42 4.18-3.45 5.63-11.81 5.09-18.16" class="cls-5"/><path d="M299.911 183.416s7.454-6.468 25.29-1.881c12.713 3.269 26.165 14.402 36.415 31.693 5.836 9.845 11.17 22.794 11.715 33.964.47 9.642-1.41 16.42-4.453 19.066" class="cls-11"/><path d="M532.072 214.545c-7.493-4.087-53.563 20.28-68.927 29.56-13.758 8.309-58.166 39.094-53.398 46.586 3.346 5.258 22.94-3.742 36.234-10.761a247 247 0 0 0 10.563-5.915 23.5 23.5 0 0 1-3.598-3.229c-8.24 4.399-23.149 11.834-25.082 9.144-3.133-4.359 17.032-20.12 36.915-32.693 21.114-13.35 45.8-23.76 47.132-19.888 1.097 3.19-9.692 11.628-15.561 15.927a21.2 21.2 0 0 1 1.766 4.893c12.181-8.684 40.735-29.926 33.956-33.624Z" class="cls-10"/></svg>