<svg width="182" height="186" viewBox="0 0 182 186" fill="none" xmlns="http://www.w3.org/2000/svg">
<path d="M179.174 177.957C176.821 178.526 173.697 179.262 173.123 179.262C172.189 179.262 165.097 175.36 164.502 174.978C163.908 174.596 159.321 167.385 158.217 166.282C157.225 165.291 153.044 161.629 152.205 160.896C152.084 160.789 151.991 160.658 151.938 160.505C151.651 159.681 151.137 157.081 152.993 154.872C155.202 152.242 157.81 152.751 158.353 153.005C158.897 153.26 164.927 157.459 166.158 158.859C167.39 160.259 171.51 166.834 172.614 167.215C173.718 167.597 175.204 167.767 175.756 167.809C176.309 167.852 181.362 166.495 181.362 166.495" fill="#FCA9CB"/>
<path d="M158.218 166.282C157.226 165.291 153.045 161.629 152.206 160.896C152.085 160.789 151.992 160.658 151.939 160.505C151.652 159.681 151.138 157.082 152.994 154.872C155.203 152.241 157.81 152.751 158.354 153.005C158.898 153.26 164.928 157.459 166.159 158.859C166.738 159.516 167.953 161.314 169.193 163.077L176.55 159.52L175.086 38.5936L52.2838 1L40.8857 4.75939V8.51873L9.95312 56.764L12.042 64.55L29.48 76.9865L28.897 116.756L123.856 185L159.408 167.809C158.892 167.089 158.466 166.531 158.218 166.282Z" fill="#E7E1EC"/>
<path d="M51.6654 31.7997C61.3514 37.7749 57.0994 47.874 55.084 50.3902C51.2856 55.1326 42.4542 58.6421 35.3318 52.9513C30.6081 49.1767 29.7289 41.8536 33.0529 36.637C37.9927 28.883 47.0921 28.9782 51.6654 31.7997Z" fill="#69C289"/>
<path d="M40.8857 8.51874L152.12 51.776V46.4398L40.8857 4.7594" fill="#DAC5F9"/>
<path d="M9.95312 56.7639L98.4001 115.869L99.285 119.662L101.274 128.187L12.042 64.5499L9.95312 56.7639Z" fill="#DAC5F9"/>
<path d="M101.274 128.187L125.53 115.87L123.857 185L28.8975 116.756L29.4805 76.9867L101.274 128.187Z" fill="#DAC5F9"/>
<path d="M85.7763 33.782L81.6422 33.1077C80.5285 30.5687 77.5134 29.2176 74.5625 30.0599C71.3648 30.9726 69.4586 34.1116 70.3056 37.0708C71.1522 40.0301 74.4305 41.6893 77.6282 40.7768C80.0497 40.0855 81.7271 38.1178 82.0329 35.9184L85.7763 33.782Z" fill="#B39ED3" stroke="#3F2B56" stroke-linecap="round" stroke-linejoin="round"/>
<path d="M24.2443 57.2091C27.2119 56.3622 28.9804 53.4491 28.1945 50.703C27.409 47.9569 24.3666 46.4173 21.3995 47.2642C18.4319 48.1112 16.6634 51.0243 17.4493 53.7704C18.2348 56.5164 21.2771 58.0561 24.2443 57.2091Z" fill="#B39ED3" stroke="#3F2B56" stroke-linecap="round" stroke-linejoin="round"/>
<path d="M70.3996 49.8662C70.0225 48.5485 69.1618 47.4911 68.0423 46.801L67.6854 43.0383L64.8076 45.9128C64.2382 45.9167 63.6561 45.9954 63.0765 46.1606C59.8793 47.0735 57.9735 50.2121 58.8201 53.1713C59.6667 56.1306 62.9454 57.7898 66.1431 56.8773C69.3404 55.9644 71.2462 52.8254 70.3996 49.8662Z" fill="#B39ED3" stroke="#3F2B56" stroke-linecap="round" stroke-linejoin="round"/>
<path d="M61.6246 65.0312C60.778 62.072 57.4993 60.4128 54.3016 61.3257C51.1039 62.2381 49.1981 65.3771 50.0447 68.3364C50.7787 70.9014 53.3397 72.4863 56.0908 72.2696L59.1569 74.8948L59.3897 71.0548C61.3074 69.6571 62.2719 67.2934 61.6246 65.0312Z" fill="#B39ED3" stroke="#3F2B56" stroke-linecap="round" stroke-linejoin="round"/>
<path d="M157.272 113.723L156.917 120.536L137.247 128.186L137.325 121.577L157.272 113.723Z" fill="#3F2B56" stroke="#3F2B56" stroke-linecap="round" stroke-linejoin="round"/>
<path d="M94.8985 103.679L124.572 68.6557L82.912 48.6323L58.1289 80.9604L94.8985 103.679Z" fill="#EBB432"/>
<path d="M127.649 64.4268L139.427 50.9235L96.5031 33.5328L87.3672 44.0693L127.649 64.4268Z" fill="#E1557A"/>
<path d="M93.4877 89.3127L101.275 94.1566L95.58 100.839L88.1475 95.6752L93.4877 89.3127Z" fill="#E1557A"/>
<path d="M78.6133 66.6065L73.1533 63.4802L78.6133 56.3425L84.2083 59.1523L78.6133 66.6065Z" fill="#E1557A"/>
<path d="M93.5089 75.5376L99.9192 67.2448L91.5714 63.0242L85.6719 70.8383L93.5089 75.5376Z" fill="#69C289"/>
<path d="M108.402 71.6143L114.129 64.7711L105.159 60.3667L99.9199 67.2451L108.402 71.6143Z" fill="#E1557A"/>
<path d="M101.274 128.187L99.2851 119.662L98.4001 115.869L9.95312 56.7639" stroke="#3F2B56" stroke-linecap="round" stroke-linejoin="round"/>
<path d="M98.4004 115.869L152.12 51.7758L175.142 43.1697" stroke="#3F2B56" stroke-linecap="round" stroke-linejoin="round"/>
<path d="M40.8857 8.51874L152.12 51.776V46.4398L40.8857 4.7594" stroke="#3F2B56" stroke-linecap="round" stroke-linejoin="round"/>
<path d="M152.121 46.4398L175.087 38.5936" stroke="#3F2B56" stroke-linecap="round" stroke-linejoin="round"/>
<path d="M29.4795 76.9867L101.273 128.187L125.529 115.87L123.856 185" stroke="#3F2B56" stroke-linecap="round" stroke-linejoin="round"/>
<path d="M94.8985 103.679L124.572 68.6557L82.912 48.6323L58.1289 80.9604L94.8985 103.679Z" stroke="#3F2B56" stroke-linecap="round" stroke-linejoin="round"/>
<path d="M91.5713 39.2211C91.5713 39.2211 97.5496 38.5521 99.0765 39.334C102.041 40.853 100.825 46.168 103.409 47.4589C106.268 48.8869 115.405 46.4058 117.854 47.6865C121.046 49.3571 121.219 55.9156 124.467 57.3299C127.432 58.6208 134.333 56.7643 134.333 56.7643" stroke="#3F2B56" stroke-linecap="round" stroke-linejoin="round"/>
<path d="M88.1475 43.17C88.1475 43.17 102.194 41.6119 104.55 42.8267C107.149 44.1668 107.287 51.0276 110.328 52.0144C114.832 53.4766 120.995 48.2429 124.848 50.2682C127.737 51.7867 129.713 62.0608 129.713 62.0608" stroke="#E7E1EC" stroke-miterlimit="10"/>
<path d="M104.975 75.6677C108.696 71.2616 111.619 67.8083 111.619 67.8083" stroke="#3F2B56" stroke-linecap="round" stroke-linejoin="round"/>
<path d="M89.499 94.1565C89.5435 93.9772 97.2185 84.8586 103.515 77.3992" stroke="#3F2B56" stroke-linecap="round" stroke-linejoin="round"/>
<path d="M91.5469 62.933L112.951 73.9586" stroke="#3F2B56" stroke-linecap="round" stroke-linejoin="round"/>
<path d="M80.375 57.1777L86.902 60.54" stroke="#3F2B56" stroke-linecap="round" stroke-linejoin="round"/>
<path d="M103.182 63.0242L90.7383 79.1227" stroke="#3F2B56" stroke-linecap="round" stroke-linejoin="round"/>
<path d="M79.6454 67.2255L74.9775 64.4266" stroke="#3F2B56" stroke-linecap="round" stroke-linejoin="round"/>
<path d="M106.83 83.5259L95.4961 76.7297" stroke="#3F2B56" stroke-linecap="round" stroke-linejoin="round"/>
<path d="M86.2744 85.0214L99.6853 92.9999" stroke="#3F2B56" stroke-linecap="round" stroke-linejoin="round"/>
<path d="M67.6797 73.9587L74.9776 78.3007" stroke="#3F2B56" stroke-linecap="round" stroke-linejoin="round"/>
<path d="M68.5918 79.9571L86.0008 56.7639" stroke="#3F2B56" stroke-linecap="round" stroke-linejoin="round"/>
<path d="M91.5713 62.8873C93.4625 60.3416 94.743 58.6205 94.743 58.6205" stroke="#3F2B56" stroke-linecap="round" stroke-linejoin="round"/>
<path d="M127.649 64.4268L139.427 50.9235L96.5031 33.5328L87.3672 44.0693L127.649 64.4268Z" stroke="#3F2B56" stroke-linecap="round" stroke-linejoin="round"/>
<path d="M110.379 123.564L116.502 127.041L115.55 168.797L80.125 144.542V114.39" stroke="#3F2B56" stroke-linecap="round" stroke-linejoin="round"/>
<path d="M97.1709 131.701L108.027 138.645V157.478" stroke="#3F2B56" stroke-linecap="round" stroke-linejoin="round"/>
<path d="M107.358 159.095L96.2168 150.82L96.6929 133.508" stroke="#3F2B56" stroke-linecap="round" stroke-linejoin="round"/>
<path d="M96.5752 137.883L108.027 145.017" stroke="#3F2B56" stroke-linecap="round" stroke-linejoin="round"/>
<path d="M111.983 162.982C112.491 162.808 112.703 162.084 112.456 161.363C112.21 160.642 111.598 160.198 111.09 160.371C110.583 160.544 110.371 161.269 110.618 161.99C110.864 162.711 111.476 163.155 111.983 162.982Z" stroke="#3F2B56" stroke-linecap="round" stroke-linejoin="round"/>
<path d="M112.895 129.896C113.403 129.723 113.615 128.998 113.368 128.277C113.122 127.556 112.51 127.113 112.002 127.286C111.495 127.459 111.283 128.184 111.53 128.905C111.776 129.625 112.387 130.069 112.895 129.896Z" stroke="#3F2B56" stroke-linecap="round" stroke-linejoin="round"/>
<path d="M83.4129 144.231C83.9378 144.051 84.1636 143.322 83.9167 142.601C83.6703 141.881 83.045 141.442 82.5201 141.62C81.9951 141.8 81.7694 142.529 82.0158 143.25C82.2622 143.971 82.8879 144.41 83.4129 144.231Z" stroke="#3F2B56" stroke-linecap="round" stroke-linejoin="round"/>
<path d="M157.271 113.723L156.917 120.535L156.412 130.195L137.138 137.669L137.247 128.186L137.325 121.577L157.271 113.723Z" stroke="#3F2B56" stroke-linecap="round" stroke-linejoin="round"/>
<path d="M140.685 123.781C140.685 123.781 146.438 118.129 153.918 118.8C153.918 118.8 150.082 123.014 140.685 123.781Z" fill="#E1557A" stroke="#3F2B56" stroke-linecap="round" stroke-linejoin="round"/>
<path d="M143.752 132.975C143.848 132.688 147.876 126.366 147.876 126.366L152.095 129.671L143.752 132.975Z" fill="#E1557A" stroke="#3F2B56" stroke-linecap="round" stroke-linejoin="round"/>
<path d="M137.247 141.451L158.354 132.976L157.953 147.968" stroke="#3F2B56" stroke-linecap="round" stroke-linejoin="round"/>
<path d="M137.139 142.926L135.985 169.409L150.33 162.797" stroke="#3F2B56" stroke-linecap="round" stroke-linejoin="round"/>
<path d="M147.431 150.417C148.769 148.643 150.422 147.884 151.815 147.622L149.226 146.302C149.226 146.302 145.555 145.327 143.157 148.569C140.78 151.781 142.505 154.981 142.505 154.981L145.316 156.641C145.169 155.118 145.506 152.97 147.431 150.417Z" stroke="#3F2B56" stroke-linecap="round" stroke-linejoin="round"/>
<path d="M179.174 177.957C176.821 178.526 173.697 179.262 173.123 179.262C172.189 179.262 165.097 175.36 164.502 174.978C163.908 174.596 159.321 167.385 158.217 166.282C157.225 165.291 153.044 161.629 152.205 160.896C152.084 160.789 151.991 160.658 151.938 160.505C151.651 159.681 151.137 157.081 152.993 154.872C155.202 152.242 157.81 152.751 158.353 153.005C158.897 153.26 164.927 157.459 166.158 158.859C167.39 160.259 171.51 166.834 172.614 167.215C173.718 167.597 175.204 167.767 175.756 167.809C176.309 167.852 181.362 166.495 181.362 166.495" stroke="#3F2B56" stroke-linecap="round" stroke-linejoin="round"/>
<path d="M152.206 160.896C152.084 160.789 151.991 160.658 151.938 160.505C151.651 159.681 151.138 157.082 152.993 154.872C155.202 152.242 157.809 152.751 158.353 153.006C158.517 153.082 159.186 153.522 160.07 154.134C160.189 152.798 159.963 151.776 159.815 151.288C159.753 151.087 159.62 150.918 159.441 150.807L154.616 147.828C154.466 147.736 154.307 147.664 154.136 147.622C152.857 147.31 149.692 147.418 147.43 150.418C144.168 154.743 145.456 157.922 145.954 158.831C146.045 158.997 146.177 159.132 146.339 159.229L151.337 162.21C151.337 162.21 152.321 163.059 154.023 162.493C153.197 161.764 152.497 161.151 152.206 160.896Z" stroke="#3F2B56" stroke-linecap="round" stroke-linejoin="round"/>
<path d="M148.5 158.249C148.969 158.045 149.132 157.384 148.866 156.772C148.599 156.16 148.003 155.829 147.534 156.032C147.065 156.236 146.901 156.897 147.168 157.51C147.435 158.122 148.031 158.453 148.5 158.249Z" stroke="#3F2B56" stroke-linecap="round" stroke-linejoin="round"/>
<path d="M139.571 165.562C139.836 164.949 139.652 164.28 139.161 164.069C138.67 163.857 138.057 164.182 137.792 164.796C137.527 165.409 137.711 166.077 138.202 166.289C138.694 166.5 139.307 166.175 139.571 165.562Z" stroke="#3F2B56" stroke-linecap="round" stroke-linejoin="round"/>
<path d="M140.803 143.928C141.067 143.315 140.884 142.647 140.392 142.435C139.901 142.224 139.288 142.549 139.023 143.162C138.759 143.775 138.942 144.444 139.434 144.655C139.925 144.867 140.538 144.542 140.803 143.928Z" stroke="#3F2B56" stroke-linecap="round" stroke-linejoin="round"/>
<path d="M156.857 136.972C157.121 136.359 156.937 135.69 156.446 135.478C155.954 135.267 155.342 135.593 155.077 136.206C154.813 136.818 154.996 137.487 155.488 137.699C155.979 137.911 156.592 137.585 156.857 136.972Z" stroke="#3F2B56" stroke-linecap="round" stroke-linejoin="round"/>
<path d="M155.202 163.535C155.202 163.535 154.466 160.417 157.538 157.629C160.108 155.295 162.902 156.167 162.902 156.167" stroke="#3F2B56" stroke-linecap="round" stroke-linejoin="round"/>
<path d="M159.052 167.131C159.052 167.131 158.548 163.938 161.784 161.404C164.927 158.944 167.328 160.413 167.328 160.413" stroke="#3F2B56" stroke-linecap="round" stroke-linejoin="round"/>
<path d="M164.504 174.978C164.504 174.978 166.585 167.852 172.615 167.215" stroke="#3F2B56" stroke-linecap="round" stroke-linejoin="round"/>
<path d="M175.758 167.809C175.758 167.809 177.097 169.876 177.075 172.772C177.042 177.019 175.58 178.801 175.58 178.801" stroke="#3F2B56" stroke-linecap="round" stroke-linejoin="round"/>
<path d="M158.218 166.282C157.226 165.291 153.045 161.629 152.206 160.896C152.085 160.789 151.992 160.658 151.939 160.505C151.652 159.681 151.138 157.082 152.994 154.872C155.203 152.241 157.81 152.751 158.354 153.005C158.898 153.26 164.928 157.459 166.159 158.859C166.738 159.516 167.953 161.314 169.193 163.077L176.55 159.52L175.086 38.5936L52.2838 1L40.8857 4.75939V8.51873L9.95312 56.764L12.042 64.55L29.48 76.9865L28.897 116.756L123.856 185L159.408 167.809C158.892 167.089 158.466 166.531 158.218 166.282Z" stroke="#3F2B56" stroke-linecap="round" stroke-linejoin="round"/>
<path d="M65.6698 28.312C66.6145 28.0424 67.1778 27.1151 66.9274 26.2409C66.6775 25.3667 65.7089 24.8765 64.7642 25.1462C63.8194 25.4158 63.2566 26.343 63.5066 27.2173C63.757 28.0915 64.7255 28.5816 65.6698 28.312Z" stroke="#3F2B56" stroke-linecap="round" stroke-linejoin="round"/>
<path d="M65.6698 28.312C66.6145 28.0424 67.1778 27.1151 66.9274 26.2409C66.6775 25.3667 65.7089 24.8765 64.7642 25.1462C63.8194 25.4158 63.2566 26.343 63.5066 27.2173C63.757 28.0915 64.7255 28.5816 65.6698 28.312Z" fill="#69C289" stroke="#3F2B56" stroke-linecap="round" stroke-linejoin="round"/>
<path d="M75.2486 36.0807C76.8776 35.6157 77.8488 34.0163 77.4171 32.5083C76.9859 31.0008 75.3155 30.1552 73.686 30.6202C72.057 31.0856 71.0859 32.6846 71.5176 34.1925C71.9488 35.7001 73.6192 36.5457 75.2486 36.0807Z" stroke="#3F2B56" stroke-linecap="round" stroke-linejoin="round"/>
<path d="M56.8955 24.3615C57.8403 24.092 58.4031 23.1647 58.1531 22.2904C57.9028 21.4162 56.9342 20.9261 55.9899 21.1957C55.0452 21.4653 54.4819 22.3926 54.7323 23.2669C54.9823 24.141 55.9508 24.6312 56.8955 24.3615Z" fill="#EBB432" stroke="#3F2B56" stroke-linecap="round" stroke-linejoin="round"/>
<path d="M48.1219 20.4101C49.0667 20.1405 49.6299 19.2132 49.3795 18.339C49.1296 17.4648 48.1611 16.9747 47.2163 17.2443C46.2716 17.5139 45.7088 18.4412 45.9587 19.3154C46.2091 20.1896 47.1776 20.6798 48.1219 20.4101Z" fill="#E1557A" stroke="#3F2B56" stroke-linecap="round" stroke-linejoin="round"/>
<path d="M54.89 68.0351C56.5195 67.5701 57.4902 65.9707 57.0589 64.4632C56.6277 62.9552 54.9569 62.11 53.3279 62.575C51.6989 63.0401 50.7277 64.6394 51.159 66.147C51.5902 67.655 53.261 68.5001 54.89 68.0351Z" stroke="#3F2B56" stroke-linecap="round" stroke-linejoin="round"/>
<path d="M21.9449 53.4908C23.4569 53.0591 24.3581 51.5749 23.9577 50.1759C23.5572 48.777 22.0074 47.9924 20.4955 48.424C18.9835 48.8552 18.0823 50.3394 18.4828 51.7384C18.8832 53.1378 20.4334 53.9224 21.9449 53.4908Z" stroke="#3F2B56" stroke-linecap="round" stroke-linejoin="round"/>
<path d="M63.3677 52.4769C64.9967 52.0119 65.9679 50.4125 65.5362 48.905C65.105 47.397 63.4346 46.5518 61.8052 47.0168C60.1762 47.4818 59.205 49.0812 59.6367 50.5888C60.0679 52.0967 61.7383 52.9419 63.3677 52.4769Z" stroke="#3F2B56" stroke-linecap="round" stroke-linejoin="round"/>
<path d="M54.869 73.5656L54.6719 75.3873" stroke="#3F2B56" stroke-linecap="round" stroke-linejoin="round"/>
<path d="M51.664 72.5806L50.2344 74.2547" stroke="#3F2B56" stroke-linecap="round" stroke-linejoin="round"/>
<path d="M47.8193 71.7434L49.3968 70.8081" stroke="#3F2B56" stroke-linecap="round" stroke-linejoin="round"/>
<path d="M46.833 68.9865L48.7062 68.7896" stroke="#3F2B56" stroke-linecap="round" stroke-linejoin="round"/>
<path d="M72.7129 50.5224L74.9804 50.3748" stroke="#3F2B56" stroke-linecap="round" stroke-linejoin="round"/>
<path d="M71.874 47.8638L73.8458 47.0265" stroke="#3F2B56" stroke-linecap="round" stroke-linejoin="round"/>
<path d="M70.1992 45.6483L70.9389 44.0726" stroke="#3F2B56" stroke-linecap="round" stroke-linejoin="round"/>
<path d="M63.002 44.6139V42.9398" stroke="#3F2B56" stroke-linecap="round" stroke-linejoin="round"/>
<path d="M82.4238 30.5819L83.7052 29.4001" stroke="#3F2B56" stroke-linecap="round" stroke-linejoin="round"/>
<path d="M79.8096 28.8583L80.6478 27.2827" stroke="#3F2B56" stroke-linecap="round" stroke-linejoin="round"/>
<path d="M77.1982 28.2181L77.3954 26.7903" stroke="#3F2B56" stroke-linecap="round" stroke-linejoin="round"/>
<path d="M74.5848 28.809L74.4365 27.4304" stroke="#3F2B56" stroke-linecap="round" stroke-linejoin="round"/>
<path d="M51.3219 30.4427C61.5535 36.7545 57.0617 47.4224 54.9332 50.0802C50.9206 55.0898 41.5919 58.7966 34.0686 52.7854C29.0787 48.7981 28.1502 41.0627 31.6612 35.5525C36.8791 27.3617 46.4912 27.4622 51.3219 30.4427Z" stroke="#3F2B56" stroke-linecap="round" stroke-linejoin="round"/>
<path d="M58.8708 104.98C58.7427 104.725 57.3914 102.199 55.4755 98.6277L37.7796 107.702L34.6558 110.069V113.697L29.4867 110.069C29.6447 109.753 32.0807 103.453 37.5125 99.5164L52.283 92.6806C50.5889 89.5262 48.7667 86.1362 47.0722 82.9836L35.8395 87.6657C35.8395 87.6657 29.0132 91.8464 20.2465 103.679L16.7715 101.076C16.8507 100.839 23.8693 87.8235 35.8395 80.9605L44.1763 77.5965C41.9982 73.5459 40.4673 70.6992 40.4673 70.6992L40.4651 70.6987C37.7364 71.4314 34.4965 71.9267 32.8662 71.8283C31.3617 71.7373 29.3059 70.7071 27.9418 69.9252C21.8847 76.0173 5.33859 92.6608 4.13422 93.8726C2.51622 95.501 4.08582 96.8494 4.08582 96.8494C4.08582 96.8494 5.73594 98.0044 8.29253 99.7924C9.58799 98.1213 10.8482 96.6586 10.8482 96.6586L8.55787 94.9801L30.5137 72.8356L32.093 78.6728C32.093 78.6728 27.1968 82.617 21.2735 88.928C16.5093 94.0035 13.3309 100.3 12.2687 102.572C15.0536 104.519 18.265 106.762 21.4306 108.97C22.4616 106.6 26.1909 99.8627 32.8662 94.4321L33.4334 98.7068C33.4334 98.7068 28.8064 102.501 24.469 111.089C30.8006 115.503 36.2931 119.316 36.8573 119.659C38.2482 120.505 39.0345 119.659 39.0345 119.659C39.0345 119.659 57.6616 108.907 58.8708 108.122C60.0804 107.336 59.3548 105.947 58.8708 104.98Z" fill="#B39ED3"/>
<path d="M93.4778 71.6971C93.4572 71.9837 91.8576 74.419 91.6596 74.5961C91.4616 74.7728 89.2887 74.8928 89.2887 74.8928C89.0071 76.5946 88.4707 77.6925 87.9964 78.4111C87.2879 79.4936 82.14 86.2696 82.14 86.2696C82.14 86.2696 82.3067 88.1951 82.14 88.3358C81.9679 88.4712 80.5976 87.7684 80.5976 87.7684C80.5976 87.7684 80.9831 90.5008 80.5976 91.2608C80.4775 91.5003 80.2381 91.5886 79.9618 91.5939V91.5992C79.3524 91.6251 78.5757 91.2608 78.5757 91.2608L79.3783 90.1312C77.4866 86.3843 73.5215 85.0676 73.5215 85.0676L79.3783 75.4497C79.9772 72.1555 81.0298 67.331 81.0298 67.331C81.2537 67.0237 83.6352 64.6868 84.2345 64.3124C84.8286 63.9375 86.9909 63.1046 87.6734 63.0787C88.6687 63.0321 90.5859 63.0527 91.1386 63.4276C91.451 63.6408 91.2376 64.406 91.1333 64.8899C91.0757 65.1501 90.8469 65.2802 90.5912 65.332C89.2368 65.5975 87.3658 66.597 87.3658 66.597C87.3658 66.597 92.2638 68.101 92.5089 68.3247C92.7483 68.5431 93.499 71.411 93.4778 71.6971Z" fill="#E7E1EC"/>
<path d="M32.0922 140.238L29.7917 159.269C29.6782 160.209 30.3541 161.059 31.2967 161.158C33.3921 161.378 37.1099 161.594 40.6812 160.934C46.0606 159.939 46.8575 158.811 47.0569 158.148C47.2562 157.485 44.4924 154.846 37.9508 151.53L36.6752 140.238" fill="#E7E1EC"/>
<path d="M17.1728 129.558L14.3438 149.337C14.2655 149.887 14.4657 150.448 14.8987 150.796C15.5288 151.304 16.7116 151.791 18.833 151.382C21.2175 150.922 23.9568 149.203 25.5409 147.534C25.9734 147.078 26.2977 146.539 26.5208 146.091C26.7791 145.574 26.6841 144.953 26.2806 144.539C25.525 143.763 24.1416 142.381 22.4857 140.901L22.2204 129.558" fill="#E7E1EC"/>
<path d="M12.2717 102.57C12.5269 102.752 12.7874 102.934 13.0479 103.116L11.9905 107.701L10.5626 113.869C10.5626 113.869 11.756 117.928 11.928 119.255C12.1049 120.582 11.4744 124.636 11.4744 124.636L9.93734 125.126L9.23372 120.036L8.60887 119.531C8.60887 119.531 8.32726 122.399 8.29073 124.704C8.25421 127.01 8.29073 129.175 8.29073 129.175L6.36823 130.237L4.20063 130.06C4.20063 130.06 4.02858 129.232 3.8464 128.186L1.81917 127.499C1.81917 127.499 0.980469 122.258 0.980469 120.442C0.980469 119.333 3.27832 111.578 5.06573 105.708C6.20674 101.961 7.13917 98.9837 7.13917 98.9837L7.43619 99.192C7.71253 99.3845 7.99371 99.5823 8.29073 99.7906L14.8406 97.7034C13.6054 99.806 12.7355 101.575 12.2717 102.57Z" fill="#E7E1EC"/>
<path d="M39.4854 134.998C39.0893 136.789 36.6771 140.24 36.6771 140.24C33.9313 140.833 32.0919 140.24 32.0919 140.24C32.0919 140.24 28.5277 134.005 28.929 132.542C29.127 131.814 30.2526 128.009 31.3311 124.382C31.9146 122.42 32.4827 120.509 32.8835 119.172C33.2171 118.042 33.4309 117.319 33.4309 117.319C35.3275 118.63 36.604 119.505 36.8592 119.661C37.2188 119.88 37.5422 119.984 37.8181 120.02C37.844 120.187 37.87 120.364 37.8964 120.551C38.5476 124.949 39.7824 133.666 39.4854 134.998Z" fill="#F58452"/>
<path d="M24.3455 126.973C24.3455 127.504 22.2197 129.56 22.2197 129.56C22.2197 129.56 20.1929 131.085 17.176 129.56C17.176 129.56 15.0863 126.375 15.0498 125.443V125.427C15.0498 124.85 16.1754 119.567 17.2073 114.842C18.0878 110.824 18.9005 107.202 18.9005 107.202C19.7445 107.79 20.5889 108.383 21.4329 108.971C21.6727 108.42 22.0635 107.623 22.5999 106.676L23.168 106.811C23.168 106.811 23.465 111.693 23.7567 116.653C24.0485 121.639 24.3455 126.708 24.3455 126.973Z" fill="#F58452"/>
<path d="M42.6618 63.871C42.6618 63.871 43.2215 63.7313 44.0611 63.871C44.9007 64.0108 47.7684 65.8278 47.6289 66.1767C47.489 66.5262 46.4395 68.1335 43.9212 69.4608C41.4029 70.7886 35.3168 71.9761 32.8684 71.8285C30.4201 71.6808 26.5029 69.0415 26.5029 69.0415C26.5029 69.0415 26.7124 64.4459 26.9223 63.8091C27.1322 63.1727 33.1483 58.8404 34.827 58.4211C36.5062 58.0022 40.9131 60.7268 41.6827 61.1461C42.4519 61.5654 42.6618 63.871 42.6618 63.871Z" fill="#F58452"/>
<path d="M73.5242 85.066C73.5242 85.066 77.4889 86.3859 79.3775 90.1292L73.2206 98.8277C72.865 99.33 72.2565 99.5894 71.6475 99.4979L44.1855 95.3797C43.7133 95.3089 43.4128 94.8373 43.5483 94.3802C43.8026 93.5236 44.5872 92.9329 45.4822 92.925L68.7045 92.7246L73.5242 85.066Z" fill="#3F2B56" stroke="#3F2B56" stroke-linecap="round" stroke-linejoin="round"/>
<path d="M89.2891 74.8912C89.4193 74.1058 89.4976 73.1235 89.4972 71.8282" stroke="#3F2B56" stroke-linecap="round" stroke-linejoin="round"/>
<path d="M93.4778 71.6971C93.4572 71.9837 91.8576 74.419 91.6596 74.5961C91.4616 74.7728 89.2887 74.8928 89.2887 74.8928C89.0071 76.5946 88.4707 77.6925 87.9964 78.4111C87.2879 79.4936 82.14 86.2696 82.14 86.2696C82.14 86.2696 82.3067 88.1951 82.14 88.3358C81.9679 88.4712 80.5976 87.7684 80.5976 87.7684C80.5976 87.7684 80.9831 90.5008 80.5976 91.2608C80.4775 91.5003 80.2381 91.5886 79.9618 91.5939V91.5992C79.3524 91.6251 78.5757 91.2608 78.5757 91.2608L79.3783 90.1312C77.4866 86.3843 73.5215 85.0676 73.5215 85.0676L79.3783 75.4497C79.9772 72.1555 81.0298 67.331 81.0298 67.331C81.2537 67.0237 83.6352 64.6868 84.2345 64.3124C84.8286 63.9375 86.9909 63.1046 87.6734 63.0787C88.6687 63.0321 90.5859 63.0527 91.1386 63.4276C91.451 63.6408 91.2376 64.406 91.1333 64.8899C91.0757 65.1501 90.8469 65.2802 90.5912 65.332C89.2368 65.5975 87.3658 66.597 87.3658 66.597C87.3658 66.597 92.2638 68.101 92.5089 68.3247C92.7483 68.5431 93.499 71.411 93.4778 71.6971Z" stroke="#3F2B56" stroke-linecap="round" stroke-linejoin="round"/>
<path d="M87.3685 66.5991L84.5352 67.4966" stroke="#3F2B56" stroke-linecap="round" stroke-linejoin="round"/>
<path d="M90.798 67.6875L86.8223 68.6562" stroke="#3F2B56" stroke-linecap="round" stroke-linejoin="round"/>
<path d="M89.4971 72.8211L91.1067 71.8282" stroke="#3F2B56" stroke-linecap="round" stroke-linejoin="round"/>
<path d="M79.9623 91.5937V91.599C79.3528 91.6249 78.5762 91.2605 78.5762 91.2605L79.3788 90.131C79.6081 90.5841 79.8061 91.068 79.9623 91.5937Z" fill="#3F2B56" stroke="#3F2B56" stroke-linecap="round" stroke-linejoin="round"/>
<path d="M42.6618 63.871C42.6618 63.871 43.2215 63.7313 44.0611 63.871C44.9007 64.0108 47.7684 65.8278 47.6289 66.1767C47.489 66.5262 46.4395 68.1335 43.9212 69.4608C41.4029 70.7886 35.3168 71.9761 32.8684 71.8285C30.4201 71.6808 26.5029 69.0415 26.5029 69.0415C26.5029 69.0415 26.7124 64.4459 26.9223 63.8091C27.1322 63.1727 33.1483 58.8404 34.827 58.4211C36.5062 58.0022 40.9131 60.7268 41.6827 61.1461C42.4519 61.5654 42.6618 63.871 42.6618 63.871Z" stroke="#3F2B56" stroke-linecap="round" stroke-linejoin="round"/>
<path d="M40.2122 61.4253C40.2122 61.4253 38.6782 61.3555 37.0668 61.4253C35.4554 61.4952 33.0771 63.5214 32.3074 64.36C31.5383 65.1986 31.4688 71.5456 31.4688 71.5456" stroke="#3F2B56" stroke-linecap="round" stroke-linejoin="round"/>
<path d="M27.6211 69.739L28.2499 63.8711" stroke="#3F2B56" stroke-linecap="round" stroke-linejoin="round"/>
<path d="M42.6605 63.8711L43.0103 68.3432L40.8418 69.739V67.7098L41.926 66.8053" stroke="#3F2B56" stroke-linecap="round" stroke-linejoin="round"/>
<path d="M32.8672 71.8285V69.739L36.435 69.321L36.4464 71.5459" stroke="#3F2B56" stroke-linecap="round" stroke-linejoin="round"/>
<path d="M52.2836 92.6812L37.5131 99.5166C32.0813 103.453 29.6453 109.753 29.4873 110.069L34.6564 113.698V110.069L37.7802 107.703L43.2911 104.876C43.2911 104.876 44.7151 101.464 46.4145 98.8723C48.6472 95.466 52.3087 92.567 52.2836 92.6812Z" fill="#3F2B56" stroke="#3F2B56" stroke-linecap="round" stroke-linejoin="round"/>
<path d="M44.1782 77.5967L35.8414 80.9607C23.8712 87.8237 16.8526 100.84 16.7734 101.076L20.2484 103.679C27.7778 93.5168 33.8757 88.9986 35.4471 87.9253C35.4471 87.9253 38.2695 81.9351 44.1782 77.5967Z" fill="#3F2B56" stroke="#3F2B56" stroke-linecap="round" stroke-linejoin="round"/>
<path d="M14.842 97.7045C16.4235 95.0134 18.5985 91.7781 21.2735 88.9279C27.1968 82.6173 32.0935 78.6731 32.0935 78.6731L30.5142 72.8359L8.55831 94.9804L10.8487 96.6589C10.8487 96.6589 9.58843 98.1216 8.29297 99.7927L14.842 97.7045Z" fill="#3F2B56" stroke="#3F2B56" stroke-linecap="round" stroke-linejoin="round"/>
<path d="M58.8708 104.98C58.7427 104.725 57.3914 102.199 55.4755 98.6277L37.7796 107.702L34.6558 110.069V113.697L29.4867 110.069C29.6447 109.753 32.0807 103.453 37.5125 99.5164L52.283 92.6806C50.5889 89.5262 48.7667 86.1362 47.0722 82.9836L35.8395 87.6657C35.8395 87.6657 29.0132 91.8464 20.2465 103.679L16.7715 101.076C16.8507 100.839 23.8693 87.8235 35.8395 80.9605L44.1763 77.5965C41.9982 73.5459 40.4673 70.6992 40.4673 70.6992L40.4651 70.6987C37.7364 71.4314 34.4965 71.9267 32.8662 71.8283C31.3617 71.7373 29.3059 70.7071 27.9418 69.9252C21.8847 76.0173 5.33859 92.6608 4.13422 93.8726C2.51622 95.501 4.08582 96.8494 4.08582 96.8494C4.08582 96.8494 5.73594 98.0044 8.29253 99.7924C9.58799 98.1213 10.8482 96.6586 10.8482 96.6586L8.55787 94.9801L30.5137 72.8356L32.093 78.6728C32.093 78.6728 27.1968 82.617 21.2735 88.928C16.5093 94.0035 13.3309 100.3 12.2687 102.572C15.0536 104.519 18.265 106.762 21.4306 108.97C22.4616 106.6 26.1909 99.8627 32.8662 94.4321L33.4334 98.7068C33.4334 98.7068 28.8064 102.501 24.469 111.089C30.8006 115.503 36.2931 119.316 36.8573 119.659C38.2482 120.505 39.0345 119.659 39.0345 119.659C39.0345 119.659 57.6616 108.907 58.8708 108.122C60.0804 107.336 59.3548 105.947 58.8708 104.98Z" stroke="#3F2B56" stroke-linecap="round" stroke-linejoin="round"/>
<path d="M26.2011 107.919C29.9541 101.56 33.4334 98.7069 33.4334 98.7069L32.8662 94.4321C26.1909 99.8628 22.4617 106.6 21.4307 108.97L26.2011 107.919Z" fill="#3F2B56" stroke="#3F2B56" stroke-linecap="round" stroke-linejoin="round"/>
<path d="M34.6553 72.8354L35.839 80.9608" stroke="#3F2B56" stroke-linecap="round" stroke-linejoin="round"/>
<path d="M35.8398 87.666L37.5128 99.5166" stroke="#3F2B56" stroke-linecap="round" stroke-linejoin="round"/>
<path d="M37.7803 107.702L38.7171 117.61C38.7171 117.61 38.9406 119.789 37.859 120.035" stroke="#3F2B56" stroke-linecap="round" stroke-linejoin="round"/>
<path d="M36.8584 119.66C36.6027 119.504 35.3311 118.633 33.4345 117.321C33.4345 117.321 29.3272 131.084 28.9286 132.543C28.5299 134.003 32.0942 140.238 32.0942 140.238C32.0942 140.238 33.9326 140.835 36.6771 140.238C36.6771 140.238 39.0894 136.789 39.488 134.998C39.7965 133.611 38.4456 124.204 37.8186 120.019C37.5413 119.984 37.221 119.88 36.8584 119.66Z" stroke="#3F2B56" stroke-linecap="round" stroke-linejoin="round"/>
<path d="M32.0922 140.238L29.7917 159.269C29.6782 160.209 30.3541 161.059 31.2967 161.158C33.3921 161.378 37.1099 161.594 40.6812 160.934C46.0606 159.939 46.8575 158.811 47.0569 158.148C47.2562 157.485 44.4924 154.846 37.9508 151.53L36.6752 140.238" stroke="#3F2B56" stroke-linecap="round" stroke-linejoin="round"/>
<path d="M32.6465 134.268L33.6427 140.503L35.4359 134.599" stroke="#3F2B56" stroke-linecap="round" stroke-linejoin="round"/>
<path d="M18.4911 130.061L18.1699 123.522" stroke="#3F2B56" stroke-linecap="round" stroke-linejoin="round"/>
<path d="M17.1728 129.558L14.3438 149.337C14.2655 149.887 14.4657 150.448 14.8987 150.796C15.5288 151.304 16.7116 151.791 18.833 151.382C21.2175 150.922 23.9568 149.203 25.5409 147.534C25.9734 147.078 26.2977 146.539 26.5208 146.091C26.7791 145.574 26.6841 144.953 26.2806 144.539C25.525 143.763 24.1416 142.381 22.4857 140.901L22.2204 129.558" stroke="#3F2B56" stroke-linecap="round" stroke-linejoin="round"/>
<path d="M22.5978 106.674C22.0636 107.626 21.6716 108.42 21.4322 108.97C20.5882 108.382 19.742 107.791 18.9007 107.204C18.9007 107.204 15.0139 124.517 15.0491 125.446C15.0838 126.374 17.174 129.558 17.174 129.558C20.1944 131.084 22.2216 129.558 22.2216 129.558C22.2216 129.558 24.3465 127.502 24.3465 126.971C24.3465 126.44 23.1668 106.812 23.1668 106.812L22.5978 106.674Z" stroke="#3F2B56" stroke-linecap="round" stroke-linejoin="round"/>
<path d="M8.60959 119.532L6.43848 117.788L8.45866 121.351L8.60959 119.532Z" fill="#3F2B56" stroke="#3F2B56" stroke-linecap="round" stroke-linejoin="round"/>
<path d="M3.84621 128.187C3.66051 127.134 3.46074 125.86 3.40397 124.984C3.29044 123.238 3.40397 120.652 3.40397 120.652" stroke="#3F2B56" stroke-linecap="round" stroke-linejoin="round"/>
<path d="M12.2717 102.57C12.5269 102.752 12.7874 102.934 13.0479 103.116L11.9905 107.701L10.5626 113.869C10.5626 113.869 11.756 117.928 11.928 119.255C12.1049 120.582 11.4744 124.636 11.4744 124.636L9.93734 125.126L9.23372 120.036L8.60887 119.531C8.60887 119.531 8.32726 122.399 8.29073 124.704C8.25421 127.01 8.29073 129.175 8.29073 129.175L6.36823 130.237L4.20063 130.06C4.20063 130.06 4.02858 129.232 3.8464 128.186L1.81917 127.499C1.81917 127.499 0.980469 122.258 0.980469 120.442C0.980469 119.333 3.27832 111.578 5.06573 105.708C6.20674 101.961 7.13917 98.9837 7.13917 98.9837L7.43619 99.192C7.71253 99.3845 7.99371 99.5823 8.29073 99.7906L14.8406 97.7034C13.6054 99.806 12.7355 101.575 12.2717 102.57Z" stroke="#3F2B56" stroke-linecap="round" stroke-linejoin="round"/>
<path d="M5.7368 120.652C5.7368 120.652 5.59731 124.006 5.7368 125.543C5.87673 127.08 6.36649 130.236 6.36649 130.236" stroke="#3F2B56" stroke-linecap="round" stroke-linejoin="round"/>
<path d="M12.2709 102.57C12.5261 102.752 12.7866 102.934 13.0471 103.116L11.9897 107.701C7.68044 108.237 5.06445 105.708 5.06445 105.708C6.2059 101.961 7.13833 98.9837 7.13833 98.9837L7.43535 99.192C7.71169 99.3845 7.99287 99.5823 8.28989 99.7906L14.8398 97.7034C13.6046 99.806 12.7347 101.575 12.2709 102.57Z" fill="#3F2B56" stroke="#3F2B56" stroke-linecap="round" stroke-linejoin="round"/>
<path d="M35.8838 52.8765C34.3085 51.3615 31.9979 48.2185 32.2655 42.9667C32.5585 37.2188 37.5348 32.6549 41.3939 31.7451C44.9547 30.9056 47.4941 30.7931 51.3875 32.2017" stroke="#3F2B56" stroke-linecap="round" stroke-linejoin="round"/>
<path d="M38.2383 38.9657C38.2383 38.9657 45.5177 41.3329 51.4987 46.9688" stroke="#3F2B56" stroke-linecap="round" stroke-linejoin="round"/>
<path d="M39.5352 51.0269C39.5915 50.8014 44.3315 39.1912 50.5382 35.4149" stroke="#3F2B56" stroke-linecap="round" stroke-linejoin="round"/>
<path d="M51.3149 40.4197L52.2759 41.2561C52.4053 41.3686 52.6086 41.3018 52.6451 41.1339L52.906 39.941C52.9426 39.7736 52.7863 39.6281 52.6218 39.676L51.4002 40.0329C51.2286 40.0826 51.1802 40.3023 51.3149 40.4197Z" fill="#3F2B56"/>
<path d="M37.9397 45.4333L38.3934 44.3521C38.4845 44.1354 38.7696 44.0853 38.9289 44.2585L39.7553 45.1533C39.9313 45.3441 39.8213 45.6539 39.5643 45.6913L38.2843 45.8772C38.0356 45.9133 37.8425 45.6645 37.9397 45.4333Z" fill="#3F2B56"/>
<path d="M35.2804 41.3204L35.3156 42.3717C35.3236 42.6069 35.5863 42.7427 35.7834 42.613L36.8826 41.8887C37.0978 41.7472 37.0476 41.4193 36.8003 41.3477L35.6659 41.0207C35.4688 40.964 35.2738 41.1156 35.2804 41.3204Z" fill="#3F2B56"/>
<path d="M23.1667 106.811C23.1667 106.811 23.4638 111.693 23.7555 116.653L17.2061 114.842C18.0866 110.824 18.8993 107.202 18.8993 107.202C19.7437 107.79 20.5877 108.383 21.4317 108.971C21.6715 108.42 22.0623 107.623 22.5991 106.676L23.1667 106.811Z" fill="#3F2B56" stroke="#3F2B56" stroke-linecap="round" stroke-linejoin="round"/>
<path d="M37.8966 120.551L32.8838 119.172C33.2173 118.042 33.4312 117.319 33.4312 117.319C35.3277 118.63 36.6043 119.505 36.8595 119.661C37.219 119.88 37.5424 119.984 37.8183 120.02C37.8443 120.187 37.8702 120.364 37.8966 120.551Z" fill="#3F2B56" stroke="#3F2B56" stroke-linecap="round" stroke-linejoin="round"/>
</svg>
