<?xml version="1.0" encoding="UTF-8"?>
<svg id="Waiting_For_Events" data-name="Waiting For Events" xmlns="http://www.w3.org/2000/svg" width="246.4298" height="147.336" viewBox="0 0 246.4298 147.336">
  <defs>
    <style>
      .cls-1 {
        fill: none;
        stroke: #3f2b56;
        stroke-linecap: round;
        stroke-linejoin: round;
      }

      .cls-2 {
        fill: #f6f6f8;
      }

      .cls-3 {
        fill: #e7e1ec;
      }

      .cls-4 {
        fill: #fca9cb;
      }

      .cls-5 {
        fill: #b39ed3;
      }

      .cls-6 {
        fill: #b23f70;
      }

      .cls-7 {
        fill: #e1557a;
      }

      .cls-8 {
        fill: #3f2b56;
      }

      .cls-9 {
        fill: #5e468c;
      }
    </style>
  </defs>
  <polygon class="cls-4" points="9.5172 132.2527 224.9547 128.5387 234.4443 21.817 0 8.4878 9.5172 132.2527"/>
  <g>
    <path class="cls-3" d="m245.8462,97.433v6.3604c-.6671,15.6388-36.6762,27.3911-115.5996,30.1766-45.4998,1.6059-111.8855-7.4281-111.8855-22.5164v-6.3604s-1.8962-11.0537,36.0173-17.9664c38.4708-7.0142,104.2465-13.3756,149.4281-7.0117,43.5046,6.1277,42.0397,17.3179,42.0397,17.3179Z"/>
    <path class="cls-5" d="m178.8356,71.8829c.7638,3.3224.2214,7.8299-1.5384,13.0745l10.1217,7.8042,1.2037.9822.1365.6626-2.254,11.2093,3.2288.4874,5.361-7.6759h6.3357l13.8898,5.6656,2.4368-2.0104-9.199-6.3357.0609-1.1575,13.4514,1.562.4994-3.6942-13.2197-2.9242,6.2748-2.254-.4874-2.4977-11.3312,1.1575-.9584-.0005-1.3565-.8524-22.6559-13.2027Z"/>
    <path class="cls-5" d="m123.8562,69.791c-2.4068-1.7809-5.3229-2.5766-8.7533-1.2526-4.6853,1.8084-6.1038,6.6659-6.2617,11.3833-.2899.0244-.588.0488-.8789.0736-12.3907,1.0574-25.9386,2.523-38.6691,4.491l-1.0521,14.2724s6.0236,6.1257,6.8404,6.7383l4.4922,3.3691-2.0419,3.2671s-4.5943-1.8377-5.2069-2.0419-3.3691-2.3482-3.3691-2.3482l-2.3299,1.8377v9.0865l-3.8979.3063-1.7356-8.7802h-2.3482l-4.6964,8.1676-3.5733-.4084,1.8377-8.6781-2.0419-.5105-8.6781,3.7775-1.123-2.8587,7.0446-4.288,2.9608-4.0838,5.1172-16.7659-22.018-17.8575s-1.5025-1.0977-1.6448-3.5334c-.1829-3.1293,1.7667-4.569,1.7667-4.569,0,0,5.0608-4.4564,12.3497-10.8758l14.3355,9.5533c-.9154-11.9836-5.9022-16.9808-5.9022-16.9808,6.4729-5.701,13.656-12.0282,20.3028-17.884l9.941,5.7379c-.7906-7.573-3.7882-11.159-3.7882-11.159,9.461-8.3364,16.7321-14.7471,17.3367-15.2913,1.8276-1.6448,3.2972-1.0989,3.2972-1.0989l1.2718.307,1.4621.4874c1.4621.4874,2.1322,3.046,2.1322,3.046l26.5792,62.3935"/>
    <path class="cls-9" d="m96.5285,81.0619c-2.5219-23.1624-11.7244-36.1891-11.7244-36.1891l-4.6584,7.2513c8.2781,13.3476,9.3168,29.6945,9.3168,29.6945l7.066-.7567Z"/>
    <path class="cls-2" d="m96.5285,14.1991s-1.6215,4.7487-1.7518,7.5722c-.1925,4.1711,4.1069,4.1711,3.7219.1925-.1797-1.8567-1.9701-7.7647-1.9701-7.7647Z"/>
    <path class="cls-5" d="m122.7102,42.8693l28.3016,21.8427c4.8554.1924,9.916,1.0969,14.8378,3.0855,0,0,1.4961-1.2613,3.2502-1.5875l-48.4818-28.2519,2.0922,4.9113Z"/>
    <path class="cls-7" d="m99.3802,104.4761l38.49,11.9452,39.1025-5.0027-3.6526-24.9093,3.04,1.019s2.4765-6.136,2.6389-9.7166.4582-9.3252-4.4063-11.3379-8.7432,1.3238-8.7432,1.3238c0,0-6.6625-3.4629-19.1272-3.0628s-22.869,5.0601-22.869,5.0601c0,0-3.4607-3.4486-9.4506-.95s-6.1487,10.7827-4.7217,19.7556l-9.1779,6.3809-1.123,9.4949,38.49,11.9452,39.1025-5.0027-5.1048-34.8145-7.9634-1.5314c-.3075-.0353-.6138-.0692-.9188-.1016"/>
    <path class="cls-9" d="m54.3784,40.2821l12.4747,7.0383-3.6326,11.9017-2.94-1.9592c-.9154-11.9836-5.9022-16.9808-5.9022-16.9808"/>
    <path class="cls-9" d="m71.8484,50.1387l1.3806.779s8.2001,10.9635,8.2642,28.5127l-11.8007-.2351.5852-7.8877,2.9512-4.0645-2.4188-3.1119,1.0381-13.9924Z"/>
    <path class="cls-9" d="m80.8341,16.9771l9.0926,4.8399s5.9468,7.2259,12.1654,22.7349c6.7414,16.8128,7.8373,29.4131,7.8373,29.4131,0,0-1.2514,3.2272-1.0882,5.9567l-5.1495.4504c-3.8456-34.2802-17.8085-51.5083-17.8085-51.5083l-1.261-.7278s-.6089-7.3272-3.7882-11.159Z"/>
    <path class="cls-9" d="m126.6867,68.7176l-24.4021-57.1495-3.0802,6.0962-1.0979,2.2266s.3316,1.0334.416,2.628l1.1953,2.4051s10.6524,17.5783,16.1473,43.3556c0,0,4.0626-1.6261,7.9884,1.5151l2.8332-1.0772Z"/>
    <path class="cls-6" d="m109.6812,88.6003l.5211,2.1949s13.5264,1.5773,22.2568-6.8404l-2.2178-5.5677,5.5869.9734,2.0419,37.0606-38.49-11.9452,1.123-9.4949,9.1779-6.3809Z"/>
  </g>
  <g>
    <path class="cls-1" d="m245.8462,97.433c2.1363,14.1528-36.6762,27.3911-115.5996,30.1766-45.4998,1.6059-111.8855-7.4281-111.8855-22.5164v6.3604c0,15.0883,66.3857,24.1223,111.8855,22.5164,78.9234-2.7855,115.6832-15.9422,115.5996-30.1766v-6.3604Z"/>
    <path class="cls-1" d="m69.2865,84.4858c12.7306-1.968,26.2852-3.4331,38.6759-4.4905.2909-.0248.5812-.0494.8711-.0738"/>
    <path class="cls-1" d="m190.585,78.73c36.1938,2.9019,54.0896,10.9411,55.2612,18.7031,2.1363,14.1528-36.6762,27.3911-115.5996,30.1766-45.4998,1.6059-111.8855-7.4281-111.8855-22.5164,0-8.0198,15.7045-13.8609,36.3642-18.0374"/>
    <path class="cls-1" d="m68.2411,98.7587s6.0236,6.1257,6.8404,6.7383l4.4922,3.3691-2.0419,3.2671s-4.5943-1.8377-5.2069-2.0419-3.3691-2.3482-3.3691-2.3482l-2.3299,1.8377v9.0865l-3.8979.3063-1.7356-8.7802h-2.3482l-4.6964,8.1676-3.5733-.4084,1.8377-8.6781-2.0419-.5105-8.6781,3.7775-1.123-2.8587,7.0446-4.288,2.9608-4.0838,20.317-66.5662"/>
    <line class="cls-1" x1="72.9375" y1="35.4595" x2="68.4122" y2="96.4522"/>
    <path class="cls-1" d="m132.4591,83.9549s-7.6572,8.3718-22.2568,6.8404c0,0-5.2802-18.3274,4.9006-22.2568,11.6389-4.4922,17.3562,15.4164,17.3562,15.4164Z"/>
    <path class="cls-1" d="m123.8535,69.7947c6.0512-2.4733,26.2111-9.4576,43.9307-1.1542"/>
    <path class="cls-1" d="m165.8497,67.7974c1.8715-1.3,4.8605-2.6589,8.2644-1.5051,6.0236,2.0419,6.5341,10.3116,2.2461,21.2358,0,0-1.2467-.3999-3.04-1.019"/>
    <path class="cls-1" d="m136.4801,75.2963c-3.0724.4107-5.4979.8774-7.1335,1.2352"/>
    <path class="cls-1" d="m156.3495,74.4641c-4.9949-.233-9.5179-.1128-13.471.1767"/>
    <path class="cls-1" d="m109.6812,88.6003l-9.1779,6.3809-1.123,9.4949,38.49,11.9452,39.1025-5.0027-5.1048-34.8145-7.9634-1.5314c-.3075-.0353-.6138-.0692-.9188-.1016"/>
    <line class="cls-1" x1="135.9637" y1="81.8186" x2="137.8702" y2="116.4212"/>
    <line class="cls-1" x1="171.868" y1="76.604" x2="135.8283" y2="79.3606"/>
    <polyline class="cls-1" points="136.3388 76.604 137.1555 69.0489 142.2603 68.8448 143.0771 76.5019"/>
    <polyline class="cls-1" points="156.3495 75.7872 157.0641 67.7217 162.1689 67.8238 162.9857 75.481"/>
    <path class="cls-1" d="m109.4746,87.5282s13.6329.9537,21.6779-7.1803"/>
    <line class="cls-1" x1="172.673" y1="82.0953" x2="177.5926" y2="84.0462"/>
    <path class="cls-8" d="m112.7929,79.9954c.4837-.0179,1.3007.1607,1.3704,2.0436.0317.8563-.4533,1.6124-1.2112,1.6039-.6761-.0076-1.2126-.7322-1.2125-1.8243,0-.9054.3267-1.7963,1.0533-1.8232Z"/>
    <path class="cls-1" d="m112.9522,81.8186s-3.8654,4.7814-5.3093,12.9151,2.803,9.77,4.0967,9.9625,3.8926.0963,4.1332-2.262-4.1872-2.6471-6.738-1.5401-5.1979,3.4171-5.2941,7.4117c-.0963,3.9946,3.4652,5.3422,5.4385,4.5722,1.7583-.6862,1.7326-2.984-.8663-3.9465s-5.9679-.2406-7.0267,2.984.8663,5.4866,2.6952,6.4973,5.2941.8182,5.4385-1.3957-6.016-1.877-6.2085,1.7807,2.1658,5.8716,6.2085,5.8235,6.0342-4.5302,4.6203-5.4866c-1.6364-1.1069-3.754,1.2032-3.9465,3.8984-.1818,2.5448.2888,5.631,3.8984,6.0642,3.5519.4262,7.0749-2.0214,7.5561-4.3315.5464-2.6225-1.9733-3.8984-3.4171-2.3102-1.3524,1.4876-1.1551,4.4759,1.9251,7.2674,3.0802,2.7914,8.5187-.5775,9.1925-2.8877s.0481-3.8984-1.4438-3.8984-2.3102,2.0695-2.0214,3.7059,1.9733,5.3422,5.7273,5.4385c3.4644.0888,5.7554-1.8219,6.2567-3.8984.6738-2.7914-.3369-5.4385-2.2139-5.1016-2.0392.366-1.6364,3.8984,0,5.9198s4.2353,2.3583,5.8716,2.0695c2.9101-.5136,5.1016-3.9946,4.4759-7.4599s-3.6577-3.1283-3.5615-.9626,1.4438,5.1016,5.631,5.6791,5.0053-4.1872,4.7647-6.6417-2.2139-4.6684-3.7059-3.7059.9529,6.46,5.7273,5.4866c4.9572-1.0107,4.2353-10.3957-.1925-13.7647-3.8821-2.9538-6.0037-.6044-5.3904,1.2032.9144,2.6952,6.6898,3.5615,7.4599-1.7807.8747-6.0685-2.8396-10.1069-10.492-11.0214"/>
    <path class="cls-8" d="m142.4283,97.631c.3648-2.1293,2.2159-3.0492,3.7538-2.701,2.204.499,2.732,2.5056,2.5245,3.6562-.2978,1.6515-1.596,3.0759-3.5401,2.8147-1.7787-.2389-3.0759-1.7991-2.7382-3.7699Z"/>
    <polygon class="cls-1" points="163.372 108.7905 162.7666 101.653 169.0437 101.2388 169.7766 108.0258 163.372 108.7905"/>
    <path class="cls-1" d="m165.7618,105.413s1.7479-.1399,3.1108,1.2023c1.9257,1.8965,3.5852,5.8439,5.778,8.1738.7516.7986,4.6215,1.9356,4.6215,1.9356l-11.6303,5.4806s9.9024.7329,11.3681.8285,3.0271.4461,3.0589,2.7403,0,21.062,0,21.062"/>
    <polyline class="cls-1" points="188.7592 94.4064 186.5052 105.6157 189.7339 106.1031 195.0949 98.4272 201.4306 98.4272 215.3204 104.0927 217.7572 102.0824 208.5583 95.7467 208.6192 94.5892 220.3159 95.9294"/>
    <polyline class="cls-1" points="222.2044 95.6857 222.5699 92.457 209.3502 89.5328 215.625 87.2788 215.1377 84.781 203.8065 85.9385"/>
    <line class="cls-1" x1="169.0999" y1="66.21" x2="120.618" y2="37.958"/>
    <line class="cls-1" x1="201.4915" y1="85.0856" x2="178.8351" y2="71.883"/>
    <line class="cls-1" x1="177.2971" y1="84.9574" x2="187.419" y2="92.7616"/>
    <line class="cls-1" x1="122.7102" y1="42.8693" x2="151.0127" y2="64.6913"/>
    <path class="cls-1" d="m132.9133,66.8207L106.3341,4.4272s-.6701-2.5586-2.1322-3.046l-1.4621-.4874-1.2718-.307s-1.4696-.5459-3.2972,1.0989c-.6046.5441-7.8758,6.9549-17.3367,15.2913,0,0,2.9976,3.586,3.7882,11.159l-9.941-5.7379c-6.6468,5.8558-13.83,12.183-20.3028,17.884,0,0,4.9868,4.9972,5.9022,16.9808l-14.3355-9.5533c-7.2889,6.4193-12.3497,10.8758-12.3497,10.8758,0,0-1.9496,1.4398-1.7667,4.569.1424,2.4357,1.6448,3.5334,1.6448,3.5334l22.018,17.8575"/>
    <line class="cls-1" x1="85.8833" y1="28.8639" x2="73.229" y2="50.9177"/>
    <path class="cls-1" d="m106.1575,3.8824s-.6952-1.9209-2.9182-1.8704-3.3345,2.4152-3.3345,2.4152l-9.9781,17.3898"/>
    <path class="cls-1" d="m84.6223,28.1361l1.261.7278s13.9629,17.2281,17.8085,51.5083"/>
    <path class="cls-1" d="m80.8341,16.9771l9.0926,4.8399s5.9468,7.2259,12.1654,22.7349c6.7414,16.8128,7.8373,29.4131,7.8373,29.4131"/>
    <path class="cls-1" d="m71.8484,50.1387l1.3806.779s8.2001,10.9635,8.2642,28.5127l-11.8007-.2351"/>
    <line class="cls-1" x1="54.3784" y1="40.2821" x2="66.8532" y2="47.3204"/>
    <line class="cls-1" x1="63.2206" y1="59.2221" x2="60.2806" y2="57.2629"/>
    <polyline class="cls-1" points="70.8102 64.1311 73.229 67.243 70.2778 71.3075"/>
    <path class="cls-1" d="m89.4625,81.8186s-1.0388-16.3469-9.3168-29.6945l4.6584-7.2513s9.2025,13.0267,11.7244,36.1891"/>
    <path class="cls-1" d="m96.5285,14.1991s-1.6215,4.7487-1.7518,7.5722c-.1925,4.1711,4.1069,4.1711,3.7219.1925-.1797-1.8567-1.9701-7.7647-1.9701-7.7647Z"/>
    <polyline class="cls-1" points="99.2044 17.6643 102.2847 11.568 126.6867 68.7176"/>
    <path class="cls-1" d="m99.7178,24.9241s10.6524,17.5783,16.1473,43.3556"/>
    <line class="cls-1" x1="135.8283" y1="79.3606" x2="133.4992" y2="79.0188"/>
    <path class="cls-8" d="m142.8785,74.6408l.1003.9402,13.3706-.4701v-.6468s-5.3476-.344-13.4709.1767Z"/>
    <path class="cls-8" d="m136.3975,76.0605l-4.9006.0342s3.0901-.7919,4.9832-.7984l-.0826.7642Z"/>
    <polygon class="cls-8" points="172.045 77.8116 175.8091 87.3486 173.3202 86.5092 172.045 77.8116"/>
    <polygon class="cls-8" points="122.2998 38.9381 125.4002 44.9434 122.7102 42.8693 120.618 37.958 122.2998 38.9381"/>
    <polygon class="cls-8" points="72.8824 36.2023 74.2037 49.2191 73.229 50.9177 71.8484 50.1387 72.8824 36.2023"/>
    <polygon class="cls-8" points="193.8185 100.2548 200.9004 98.4272 195.0949 98.4272 193.8185 100.2548"/>
    <polygon class="cls-8" points="66.6258 109.5808 72.3249 110.0913 68.9558 107.7431 66.6258 109.5808"/>
    <polygon class="cls-8" points="101.1908 13.7329 103.4081 14.1991 102.2847 11.568 101.1908 13.7329"/>
    <polygon class="cls-8" points="142.3839 70.0034 144.0279 74.6408 142.8785 74.6408 142.3839 70.0034"/>
    <polygon class="cls-8" points="162.37 69.5835 164.2673 75.1712 162.9857 74.9709 162.37 69.5835"/>
    <path class="cls-8" d="m112.7929,79.9954c.4837-.0179,1.3007.1607,1.3704,2.0436.0317.8563-.4533,1.6124-1.2112,1.6039-.6761-.0076-1.2126-.7322-1.2125-1.8243,0-.9054.3267-1.7963,1.0533-1.8232Z"/>
    <path class="cls-8" d="m142.8785,74.6408l.1003.9402,13.3706-.4701v-.6468s-5.3476-.344-13.4709.1767Z"/>
    <path class="cls-8" d="m136.3975,76.0605l-4.9006.0342s3.0901-.7919,4.9832-.7984l-.0826.7642Z"/>
    <polygon class="cls-8" points="172.045 77.8116 175.8091 87.3486 173.3202 86.5092 172.045 77.8116"/>
    <polygon class="cls-8" points="122.2998 38.9381 125.4002 44.9434 122.7102 42.8693 120.618 37.958 122.2998 38.9381"/>
    <polygon class="cls-8" points="72.8824 36.2023 74.2037 49.2191 73.229 50.9177 71.8484 50.1387 72.8824 36.2023"/>
    <polygon class="cls-8" points="193.8185 100.2548 200.9004 98.4272 195.0949 98.4272 193.8185 100.2548"/>
    <polygon class="cls-8" points="66.6258 109.5808 72.3249 110.0913 68.9558 107.7431 66.6258 109.5808"/>
    <polygon class="cls-8" points="101.1908 13.7329 103.4081 14.1991 102.2847 11.568 101.1908 13.7329"/>
    <line class="cls-1" x1="77.8856" y1="77.1198" x2="71.7534" y2="73.1923"/>
  </g>
</svg>