<svg id="Waiting_For_Events" data-name="Waiting For Events" xmlns="http://www.w3.org/2000/svg" width="246.4" height="147.3"><defs><style>.cls-1{fill:none;stroke:#3f2b56;stroke-linecap:round;stroke-linejoin:round}.cls-5{fill:#b39ed3}.cls-8{fill:#3f2b56}.cls-9{fill:#5e468c}</style></defs><path style="fill:#fca9cb" d="m9.5 132.3 215.5-3.8 9.4-106.7L0 8.5l9.5 123.8z"/><path d="M245.8 97.4v6.4c-.6 15.6-36.6 27.4-115.6 30.2-45.5 1.6-111.8-7.5-111.8-22.5V105s-2-11 36-18c38.4-7 104.2-13.3 149.4-7 43.5 6.1 42 17.3 42 17.3Z" style="fill:#e7e1ec"/><path class="cls-5" d="M178.8 71.9c.8 3.3.3 7.8-1.5 13l10.1 7.9 1.2 1 .2.6-2.3 11.2 3.2.5 5.4-7.7h6.3l14 5.7 2.4-2-9.2-6.4v-1.1l13.5 1.6.5-3.7-13.2-3 6.2-2.2-.5-2.5-11.3 1.1h-1l-1.3-.8-22.7-13.2ZM123.9 69.8a8.7 8.7 0 0 0-8.8-1.3c-4.7 1.8-6.1 6.7-6.3 11.4l-.8.1c-12.4 1-26 2.5-38.7 4.5l-1 14.3s6 6 6.8 6.7l4.5 3.4-2 3.2-5.3-2a31 31 0 0 1-3.3-2.4l-2.4 1.9v9l-3.9.4-1.7-8.8h-2.4l-4.7 8.2-3.5-.4 1.8-8.7-2-.5-8.7 3.7-1.1-2.8 7-4.3 3-4 5-16.9-22-17.8s-1.4-1.1-1.6-3.5c-.2-3.2 1.8-4.6 1.8-4.6l12.3-10.9 14.4 9.6c-1-12-6-17-6-17l20.4-17.9 10 5.7c-.9-7.5-3.9-11.1-3.9-11.1L98.2 1.7C100 0 101.5.6 101.5.6l1.2.3 1.5.5c1.5.5 2.1 3 2.1 3L133 66.8"/><path class="cls-9" d="M96.5 81C94 58 84.8 45 84.8 45L80.1 52a72.6 72.6 0 0 1 9.4 29.7l7-.7Z"/><path d="M96.5 14.2s-1.6 4.7-1.7 7.6c-.2 4.1 4 4.1 3.7.2-.2-1.9-2-7.8-2-7.8Z" style="fill:#f6f6f8"/><path class="cls-5" d="M122.7 42.9 151 64.7c4.9.2 10 1.1 14.8 3.1 0 0 1.5-1.3 3.3-1.6L120.6 38l2.1 4.9Z"/><path d="m99.4 104.5 38.5 12 39-5-3.6-25 3 1s2.5-6.1 2.7-9.7.5-9.3-4.4-11.3-8.8 1.3-8.8 1.3-6.6-3.5-19-3-23 5-23 5-3.4-3.5-9.4-1-6.1 10.8-4.7 19.8l-9.2 6.4-1.1 9.5 38.5 12 39-5-5-34.9-8-1.5-1-.1" style="fill:#e1557a"/><path class="cls-9" d="m54.4 40.3 12.5 7-3.7 12-3-2c-.8-12-5.8-17-5.8-17M71.8 50.1l1.4.8s8.2 11 8.3 28.5l-11.8-.2.6-7.9 3-4-2.5-3.2 1-14ZM80.8 17l9.1 4.8s6 7.2 12.2 22.8c6.7 16.8 7.8 29.4 7.8 29.4s-1.2 3.2-1 6l-5.2.4C99.8 46 85.9 28.9 85.9 28.9l-1.3-.8S84 20.8 80.8 17ZM126.7 68.7l-24.4-57.1-3.1 6-1 2.3s.2 1 .3 2.6l1.2 2.4s10.7 17.6 16.2 43.4c0 0 4-1.6 8 1.5l2.8-1Z"/><path d="m109.7 88.6.5 2.2s13.5 1.6 22.3-6.8l-2.3-5.6 5.6 1 2 37-38.4-12 1.1-9.4 9.2-6.4Z" style="fill:#b23f70"/><path class="cls-1" d="M245.8 97.4c2.2 14.2-36.6 27.4-115.6 30.2-45.5 1.6-111.8-7.4-111.8-22.5v6.4c0 15 66.3 24 111.8 22.5 79-2.8 115.7-16 115.6-30.2v-6.4ZM69.3 84.5a584.1 584.1 0 0 1 39.5-4.6"/><path class="cls-1" d="M190.6 78.7c36.2 3 54 11 55.2 18.7 2.2 14.2-36.6 27.4-115.6 30.2-45.5 1.6-111.8-7.4-111.8-22.5 0-8 15.7-13.9 36.3-18"/><path class="cls-1" d="M68.2 98.8s6 6 6.9 6.7l4.5 3.4-2 3.2-5.3-2a31 31 0 0 1-3.3-2.4l-2.4 1.9v9l-3.9.4-1.7-8.8h-2.4l-4.7 8.2-3.5-.4 1.8-8.7-2-.5-8.7 3.7-1.1-2.8 7-4.3 3-4 20.3-66.7M72.9 35.5l-4.5 61M132.5 84s-7.7 8.3-22.3 6.8c0 0-5.3-18.3 4.9-22.3C126.7 64 132.5 84 132.5 84Z"/><path class="cls-1" d="M123.9 69.8c6-2.5 26.2-9.5 43.9-1.2"/><path class="cls-1" d="M165.8 67.8a9.2 9.2 0 0 1 8.3-1.5c6 2 6.5 10.3 2.3 21.2l-3-1M136.5 75.3l-7.2 1.2M156.3 74.5c-5-.3-9.5-.1-13.4.1"/><path class="cls-1" d="m109.7 88.6-9.2 6.4-1.1 9.5 38.5 12 39-5-5-34.9-8-1.5-1-.1M136 81.8l1.9 34.6M171.9 76.6l-36.1 2.8M136.3 76.6l.9-7.6 5.1-.2.8 7.7"/><path class="cls-1" d="m156.3 75.8.8-8.1 5.1.1.8 7.7M109.5 87.5s13.6 1 21.7-7.2M172.7 82.1l4.9 1.9"/><path class="cls-8" d="M112.8 80c.5 0 1.3.2 1.4 2 0 .9-.5 1.7-1.2 1.6-.7 0-1.3-.7-1.3-1.8 0-.9.4-1.8 1-1.8Z"/><path class="cls-1" d="M113 81.8s-4 4.8-5.4 13 2.8 9.7 4.1 9.9 4 0 4.2-2.3-4.2-2.6-6.8-1.5-5.2 3.4-5.3 7.4c0 4 3.5 5.3 5.5 4.6 1.7-.7 1.7-3-.9-4s-6-.2-7 3 .9 5.5 2.7 6.5 5.3.8 5.4-1.4-6-1.9-6.2 1.8 2.2 5.9 6.2 5.8 6-4.5 4.6-5.5c-1.6-1-3.7 1.2-4 4 0 2.5.4 5.6 4 6 3.5.4 7-2 7.5-4.3.6-2.7-2-4-3.4-2.3-1.3 1.4-1.1 4.4 2 7.2 3 2.8 8.5-.6 9.1-2.9s.1-3.9-1.4-3.9-2.3 2.1-2 3.7 2 5.4 5.7 5.5c3.5 0 5.8-1.8 6.3-4 .6-2.7-.4-5.4-2.2-5-2 .3-1.7 3.9 0 5.9s4.2 2.4 5.8 2c3-.4 5.1-4 4.5-7.4s-3.7-3.1-3.6-1 1.5 5.1 5.7 5.7 5-4.2 4.7-6.6-2.2-4.7-3.7-3.7 1 6.4 5.8 5.5c5-1 4.2-10.4-.2-13.8-4-3-6-.6-5.4 1.2.9 2.7 6.7 3.6 7.4-1.8 1-6-2.8-10-10.5-11"/><path class="cls-8" d="M142.4 97.6a3.2 3.2 0 1 1 6.3 1c-.3 1.6-1.6 3-3.5 2.8-1.8-.2-3.1-1.8-2.8-3.8Z"/><path class="cls-1" d="m163.4 108.8-.6-7.1 6.2-.5.8 6.8-6.4.8z"/><path class="cls-1" d="M165.8 105.4s1.7-.1 3 1.2c2 2 3.7 5.9 5.9 8.2.7.8 4.6 2 4.6 2l-11.7 5.4 11.4.8c1.4.1 3 .5 3 2.8v21M188.8 94.4l-2.3 11.2 3.2.5 5.4-7.7h6.3l13.9 5.7 2.5-2-9.2-6.4v-1.1l11.7 1.3M222.2 95.7l.4-3.2-13.2-3 6.2-2.2-.5-2.5-11.3 1.1M169.1 66.2 120.6 38M201.5 85.1l-22.7-13.2M177.3 85l10.1 7.8M122.7 42.9 151 64.7M133 66.8 106.2 4.4s-.6-2.5-2.1-3l-1.5-.5-1.2-.3s-1.5-.6-3.3 1L80.8 17s3 3.6 3.8 11.1l-10-5.7-20.2 17.9s5 5 5.9 17l-14.4-9.6-12.3 10.9s-2 1.4-1.8 4.6a4.8 4.8 0 0 0 1.7 3.5l22 17.8M85.9 28.9l-12.7 22"/><path class="cls-1" d="M106.2 3.9s-.7-2-3-1.9-3.3 2.4-3.3 2.4l-10 17.4M84.6 28.1l1.3.8s14 17.2 17.8 51.5"/><path class="cls-1" d="m80.8 17 9.1 4.8s6 7.2 12.2 22.8c6.7 16.8 7.8 29.4 7.8 29.4M71.8 50.1l1.4.8s8.2 11 8.3 28.5l-11.8-.2M54.4 40.3l12.5 7M63.2 59.2l-2.9-1.9"/><path class="cls-1" d="m70.8 64.1 2.4 3.1-2.9 4.1M89.5 81.8s-1-16.3-9.4-29.7l4.7-7.2S94 57.9 96.5 81M96.5 14.2s-1.6 4.7-1.7 7.6c-.2 4.1 4 4.1 3.7.2-.2-1.9-2-7.8-2-7.8ZM99.2 17.7l3.1-6.1 24.4 57.1M99.7 25s10.7 17.5 16.2 43.3M135.8 79.4l-2.3-.4"/><path class="cls-8" d="M142.9 74.6v1l13.4-.5v-.6s-5.3-.4-13.4.1ZM136.4 76h-4.9s3-.7 5-.7l-.1.8ZM172 77.8l3.8 9.5-2.5-.8-1.3-8.7zM122.3 38.9l3.1 6-2.7-2-2.1-4.9 1.7.9zM72.9 36.2l1.3 13-1 1.7-1.4-.8 1.1-13.9zM193.8 100.3l7.1-1.9h-5.8l-1.3 1.9zM66.6 109.6l5.7.5-3.3-2.4-2.4 1.9zM101.2 13.7l2.2.5-1.1-2.6-1.1 2.1z"/><path class="cls-8" d="m142.4 70 1.6 4.6h-1.1l-.5-4.6zM162.4 69.6l1.9 5.6-1.3-.2-.6-5.4zM112.8 80c.5 0 1.3.2 1.4 2 0 .9-.5 1.7-1.2 1.6-.7 0-1.3-.7-1.3-1.8 0-.9.4-1.8 1-1.8Z"/><path class="cls-8" d="M142.9 74.6v1l13.4-.5v-.6s-5.3-.4-13.4.1ZM136.4 76h-4.9s3-.7 5-.7l-.1.8ZM172 77.8l3.8 9.5-2.5-.8-1.3-8.7zM122.3 38.9l3.1 6-2.7-2-2.1-4.9 1.7.9zM72.9 36.2l1.3 13-1 1.7-1.4-.8 1.1-13.9zM193.8 100.3l7.1-1.9h-5.8l-1.3 1.9zM66.6 109.6l5.7.5-3.3-2.4-2.4 1.9zM101.2 13.7l2.2.5-1.1-2.6-1.1 2.1z"/><path class="cls-1" d="m77.9 77.1-6.1-3.9"/></svg>
