<svg xml:space="preserve" version="1.1" id="svg1490" width="756.34" height="275.54" xmlns="http://www.w3.org/2000/svg"><style id="style1232">.st3{fill:#ffe5b8}.st4{fill:#b39ed3}.st5{fill:#8374a8}.st6{fill:#f58452}.st7{fill:#fff}.st9{fill:#e1557a}.st10{fill:#ecb532}.st11{fill:none;stroke:#2f1d4a;stroke-width:.75;stroke-linecap:round;stroke-linejoin:round;stroke-miterlimit:10}.st12{fill:#2f1d4a}.st13{fill:#f7ba69}.st14{fill:#cc562e}</style><path class="st3" d="M705.605 245.125H27.885l22.53-165.89 626.9-61.56z" id="bg_shape"/><g id="fill" transform="translate(-36.085 -223.575)"><path class="st4" d="M397.89 435.04c.11-.01.19-.03.29-.05.31-1.44-.69-3.32-.69-3.32l-18.1-40.03c-1.1.05-2.03 1.15-2.48 1.72-.77.96-8.76 11.74-8.76 11.74s-17.42 23.52-18.1 24.5c-1.08 1.55-.45 2.5-.45 2.5.68 1.12 2.4 1.49 3.25 1.49.71 0 24 .85 36.83 1.24l2.57.08c3.1.1 5.22.15 5.64.13z" id="path1235"/><path class="st5" d="M397.89 435.04c.11-.01.2-.02.29-.04.13-.58.05-1.24-.11-1.82l-22.76-1.46c-.62.58-1.3.9-1.3.9l-2.41-2.79s1.83-.48 1.93-2.02c.02-.36.35-3.91.77-8.44l.23-2.44 1.75-18.67-5.21 6.83h-2.92s-17.42 23.52-18.1 24.5c-1.08 1.55-.45 2.5-.45 2.5.68 1.12 2.4 1.49 3.25 1.49h.22c.07 0 .14 0 .23.01h.14c.1 0 .2.01.31.01h.14c.16.01.33.01.52.02 5.53.18 24.24.85 35.25 1.2l2.57.08c3.12.11 5.24.16 5.66.14z" id="path1237"/><path class="st4" d="M596.86 437.33c.14-1.43-.81-2.78-.81-2.78l-25.97-41.07c-.85.1-1.66.72-2.27 1.78-.33.57-2.9 5.52-6.14 11.76.68 1.61 1.47 3.65 2.26 6.05h-5.36c-1.07 2.07-2.17 4.18-3.25 6.23l-1.52 2.91c-.4.77-.79 1.53-1.17 2.26.34.95.69 2.04 1.02 3.27l-2.82.26c-1.7 3.3-3.81 7.32-3.81 7.32-1.19 2.47.6 3.38 1.58 3.46.85.07 9.8.37 15.22.52l4.36.06c1.17-.07 4.77-.28 9.02-.55l3.81-.24c6.79-.43 13.89-.91 15.08-1.07.31-.02.55-.09.77-.17z" id="path1239"/><path class="st6" d="m356.9 414.1-5.41.53c-2.21 1.74-5.2 2.51-10.59 3.57-4.72.92-12.51.28-17.2 7.05 0 0 4.83 1.55 10.07 2.76h.01c2.44.56 4.97 1.05 7.15 1.27l4.52-1.2-1.95-3.05 1.22-.96 2.73 3.43 21.03-8.21c-.22-1.94-.61-3.99-.88-6.25zm-5.17-42.15c-.06-.02-.13-.04-.19-.07-.05-.02-.07-.02-.07-.02s-.69.41-1.58 1.34c-1.06 1.12-2.39 3-3.2 5.91-.16.57-.3 1.16-.41 1.8-1.16 6.74.58 9.47.58 9.47s10.82 1.64 11.65 11.47c.34 4.05-.36 6.65-2.96 9.78.91-.17 2.27-.41 3.51-.63 1.59-.3 2.97-.55 2.97-.55l-.05-6.07 1.4-.09.76 3.98 2.48-.6c-.13-.95-3.54-14.71-4.29-17.32 0 0 11.49 1.41 16.48.02 1.05-.29 1.81-.71 2.12-1.29.18-.34.27-.7.27-1.07-5.88-5.64-28.54-15.74-29.47-16.06z" id="path1241"/><path class="st7" d="M528.1 407.81c-.16-2.55 2.29-4.22 4.24-4.93l-.71 6.84-.29 2.78c1.58 1.28 3.36 2.35 4.39 3.05 1.54 1.06 3 1.67 4.07 2.02 1.07.34 1.76.42 1.76.42v1.33l-4.3-.11-.11 1.75.11 1.91h1.54l.27 1.22 2.14-.41s1.43 15.88 2.14 18.77c.31 1.25 1.48 4.11 2.72 6.95l1.21 2.73c1.16 2.58 2.11 4.63 2.11 4.63s-9.5-6.61-12.77-10.91c-3.27-4.3-5.52-9.83-5.52-9.83l-3-28.21M238.61 343.1l-4.21-.28c.17.33.27.69.28 1.06.05 1.4-.96 2.12-2.36 2.07-1.25-.04-2.94-1.02-3.13-2.55-.06-.44-.01-.83.11-1.16l-92.63-8.74c.67.6.85 1.42.8 2.2-.04.77-.61 1.75-2.25 1.73-1.05-.01-2.17-.72-2.55-1.78l-.13-.09c-2.83-1.52-5.46-2.34-7.76-2.73v.04c4.43 16.02 11.42 41.24 12.04 43.1.9 2.7 3.21 3.47 4.62 3.59.27.02 4.2.3 10.38.72l4.11.28c20.07 1.37 56.09 3.83 76.07 5.2l6.73.46c4.04.28 6.7.47 7.43.52 5.01.39 4.24-2.95 3.85-4.36-.13-.48-1.95-6.75-4.3-14.83l-.83-2.84c-2.27-7.79-4.87-16.73-6.9-23.72" id="path1243"/><path class="st4" d="M132.68 335.63c.37 1.07 1.5 1.79 2.55 1.81 1.64.02 2.2-.97 2.25-1.74.04-.78-.13-1.6-.8-2.2-.29-.26-.67-.47-1.16-.63-.74-.23-1.33-.17-1.79.05-4.64-4.8-11.16-8.08-11.16-8.08-2.75 3.36-14.22 13.44-22.28 16.41-3.89 1.43-8.49 2.12-13.27 3.22 0 0-1.53.34-2.32.54-.79.21-2.49.75-2.49.75-3.58 1.12-7.15 2.68-10.51 5.16-4.01 2.96-7.6 7.28-11.19 12.12-.14.19-.22.29-.22.29s0 .01-.01.02l-1.72 2.34c-1.18 1.64-2.37 3.31-3.58 5-.38.53-.75 1.02-1.12 1.47-.01 0-.01.01-.01.01-.48.59-.94 1.12-1.4 1.59-.06.01-.13.02-.2.04-1.45.3-4.33 1.66-4.33 1.66s-2.87 1.43-8.46.91c0 0 .33.62 1.25 1.33 1.37 1.08 4.04 2.4 8.84 2.24 8.06-.25 15.35-6.62 29.7-6.53 12.16.08 19.63 6.24 29.75 3.99 6.9-1.53 11.4-2.44 14.77-2.86 5.85-.72 12.57-.26 12.57-.26l-11.55-41.45c2.31.39 4.93 1.21 7.77 2.73z" id="path1245"/><path class="st5" d="M136.34 374.28s-6.72-.46-12.57.26c-3.37.42-7.87 1.33-14.77 2.86-10.12 2.25-17.59-3.91-29.75-3.99-14.35-.09-21.64 6.28-29.7 6.53-4.8.16-7.47-1.16-8.84-2.24 1.33.25 2.65.37 3.92.29 2.6-.16 5.25-1.93 7.62-4.19.55-.52 1.08-1.07 1.6-1.63 0 0 0-.01.01-.01 3.6-3.95 6.23-8.49 6.42-8.81.01-.01.01-.02.01-.02s.08-.1.22-.29c1.74-2.2 13.57-16.4 29.36-16.2 17.12.22 18.51-6.76 22.81-11.28 4.31-4.52 12.11-2.73 12.11-2.73z" id="path1247"/><path class="st4" d="M731.66 421.57c-1.68 2.13-3.68 4.61-4.44 5.61-.52.68-.36 1.52.51 1.86 1.16.45 12.24 3.64 13.01 3.89.57.19.93.23 1.35.22l4.51-.23c1.98-.12 4.48-.27 7.06-.43l3.66-.24c4.93-.32 9.34-.63 10-.71 2.12-.26 3.34-1.41 2.7-3.47-.23-.74-5.83-19.17-6.38-20.98 0 0-4.4-14.15-4.72-14.83-.9-1.93-2.31-2.18-3.59-1.03-.15.13-1.04 1.25-2.4 2.98 0 0-5.55 7.09-7.61 9.73l-.56 6.32-2.97-1.51c-2.52 3.23-5.58 7.01-7.91 9.96 0 0-.15 1.65-.38 3.86z" id="path1249"/><path d="M365.26 393.85c.75 2.62 1.4 5.51 1.97 8.49l6.19-7.65c-4.08-.05-8.16-.84-8.16-.84z" style="fill:none" id="path1251"/><path class="st9" d="M135.05 326.85c-1.17.96-3.8.56-5.28-.71-1.57-1.34-2.25-3.3-1.21-4.87 1.51-2.27 4.87-1.01 6.06.3 1.19 1.3 2.17 3.87.43 5.28z" id="path1253"/><path class="st6" d="M146.73 327.96c-1.17.96-3.84.69-5.26-.48-1.59-1.31-2.03-3.59-.96-5.13 1.42-2.03 4.59-.98 5.78.32 1.2 1.31 2.18 3.88.44 5.29z" id="path1255"/><path class="st10" d="M158.14 328.68c-1.17.96-3.71.95-5.13-.22-1.59-1.31-2.02-3.58-.96-5.13 1.3-1.88 4.56-1.43 5.93.19 1.06 1.23 1.9 3.74.16 5.16z" id="path1257"/><path class="st6" d="m348.28 430.17 20.55-8.52.82 8.99c0 .01-4.23.55-21.37-.47z" id="path1259"/><path class="st3" d="m368.38 411.36.19 1.59-13.17 1.2-5.35.48s.19-2.02.96-2.16c.44-.08 3.91-.72 6.84-1.26l4.18-.76-.05-6.07 1.4-.09.76 3.98 4.16-.87.71 3.43zm392.07-.6 25.04-29.16 3.56-1.35-.23-1.2-3.65.57 3.55-4.77-1.08-.69-4 4.01.62-5.14-1.35-.14-1.82 6.41-3.31-2.56-1 1.01 3.49 4.21-20.72 26.87zm-19.28-1.2-1.08 1.35-1.51-1.33-.37-.33-24.19-21.52-3.57-2.67.56-1.18 3.25 1.51-2.54-4.89 1.22-.7 3.05 4.22-.48-5.02 1.34-.29 1.16 6.02 2.72-2.28.82.88-2.34 3.53 4.45 4.6 2.4 2.49 13.83 14.29z" id="path1261"/><path class="st5" d="M733.49 422.59c-.1 1.01-.22 2.13-.34 3.26-1.65.15-2.74.24-2.74.24l.9-1.16.34-3.37zm11.26-12.32c-.35 3.37-.92 8.18-1.81 14.66-1.09.1-1.4.15-2.57.26.78-7.5 1.41-16.43 1.41-16.43zm-6.85 17.38c.64-6.18 1.19-12.15 1.19-12.15l-3.08 3.79s-.46 5.4-.77 8.47zm7.13-.44c.35-1.92.69-4.35 1.01-6.91l.24-1.92c.83-6.94 1.46-14.09 1.46-14.09l5.97-7.41s-3.32 25.3-3.39 26.07c-.06.77-.09 1.23-1.22 1.41-.17.03-.39.04-1.26.11l-.34 2.59zm-172.18-8.37-4.05-19.4-4 7.76c1.17 2.94 2.58 6.95 3.77 11.76zm-6.63 2.41c.85 3.68 1.56 7.78 1.95 12.2l-4.08.31c-.46-4.53-1.4-8.68-2.42-12.15z" id="path1263"/><path class="st3" d="M600.55 446.83c-1.34.48-3.8-1.2-3.8-1.2s-5.28 2.7-9.32 4.74l-2.21 1.11a91.7 91.7 0 0 1-2.23 1.08c-1.35.58-2.41.19-2.7-.87-.17-.61-1.23-5.26-2.09-9.08l-1.18-5.16 1.25-.48 1.9 5.43 2.53 7.22 15.01-8.71c2.31 2.41 2.84 5.92 2.84 5.92zm-34.28-8.81-2.67 6.13-10.68 24.55s-4.55-4.43-5.2-5.26c-.64-.84 3.92-.58 3.92-.58l9.61-18.46 3.29-6.31z" id="path1265"/><path class="st5" d="M553.66 427.75c.52 1.89 1.01 4.11 1.39 6.63l-4.51.5 1.42-2.75-1.12-4.11zm10.27-14.67a94.53 94.53 0 0 1 1.75 5.96l-4.77.13c-.86-2.59-1.71-4.67-2.34-6.08z" id="path1267"/><path class="st11" d="m529.27 418.76 8.96 7.59 1.81 13.03-9.23-6.15" id="path1269"/><path class="st12" d="m529.27 418.76 8.96 7.59.46 3.32-8.98-6.8z" id="path1271"/><path class="st11" d="m536.29 436.88 2.73 11.58m1.02-9.08.84 6.09m-.84-.21-.22-1.28 1.06 1.49zm-6.77-17.76v5.16s1.8 1.26 1.97-.77c.26-2.93-1.97-4.39-1.97-4.39zm-2.84 2.19 1.16.87m-1.5-4.1 1.5 1.04" id="path1273"/><path class="st3" d="m557.04 416.02-.78 1.49-1.86-1.95-1.02-1.03-18.73-18.99-3.81-1.47.17-1.8s1.47-3.27 1.63-3.63c.16-.35.61-.6 1.13-.35.51.26 3.81 1.83 4.39 2.18.58.36.58.74.45 1.35-.13.61-.64 2.09-.64 2.09l6.47 7.49 2.05 2.39 7.91 9.17zm-174.36-2.25-35.23 13.73-2.73-3.43-1.22.96 1.96 3.05-4.53 1.2s.65 1.36 1.36 1.72c.71.35 4.4.67 4.4.67l1.6-1.5 32.06-13.29zm-6.74 51.53s-4.94-12.59-5.39-13.88c-.45-1.28-.13-1.86.38-3.01.27-.59 2-4.25 3.62-7.67 1.54-3.26 2.99-6.3 2.99-6.3l1.93.06-.84 2.31-1.56 3.89-3.85 9.6 7.58 18.11h-8.13c.12-1.26 3.27-3.11 3.27-3.11zM239.41 345.84l26.8 20.31-10.78 7.45s-1.58-1.91-2.57-2c-.99-.09-3.27-.26-3.27-.26l-.62 2.1h-1.52l2.59 8.93h3.72l.39-1.96c.72 0 1.43-.11 1.92-.44.81-.54 12.3-10.96 13.56-12.21 1.26-1.25.9-2.25-.81-3.41-1.11-.76-30.05-20.76-30.05-20.76zm-114.2-11.47s-33.4 17.53-35.48 18.82c-1.54.95-1.21 2.06 0 2.87s38.67 18.23 39.57 18.63c.32.14.98.05 1.7-.14l.24 1.82 5.44-.91-2.42-8.52-1.9.23-.24-1.44s-2.52-.5-3.62-.4c-1.11.1-1.21 3.83-1.21 3.83l-8.92-3.92-24.81-10.9 30.31-17.1 1.86-1.02zm49.35 47.46-.38 2.29s-.35 2.17-.94 5.8c-2.91 17.93-11.58 71.38-11.67 71.98-.19 1.34-.28 1.92 1.78 3.08 2.06 1.15 2.88 3.72 2.88 3.72h-12.07l16.63-78.78 1.74-8.22zm62.96-1.94c-.06.34-1.2 6.76-2.58 14.57l-.39 2.2c-2.16 12.16-4.7 26.52-4.73 26.78-.1.77.1 1.35 1.44 1.73.97.28 3.08.63 3.08 2.46l-.03.52-8.41-1.12-2.69-.36 9.54-44.27.29-1.34c.01-.01.01-.02.01-.02L206.26 384l-4.86-.33s30.83-6.38 32.85-6.77c2.02-.38 3.75.19 3.27 2.99z" id="path1275"/><path class="st4" d="M261.59 468.7h-46.78s.96-12.1.96-14.99c0-1.04.05-4.99.12-9.59l.05-3.85.15-9.53v-.12l.07-4.72s18.09 2.31 19.63 2.4c1.54.1 23.01-1.63 23.01-1.63l.25 3.74.31 4.64 1.05 15.87.17 2.58z" id="path1277"/><path class="st11" d="m130.9 322.03 2.74 2.95m-2.55-.23 2.52-2.3m8.55 2.12 3.01.31m9.86-.9.55 3.62m-2.3-2 3.96.27" id="path1279"/><path class="st10" d="M182.43 362.57c1.29 4.57 3.38 7.86 5.74 10.01l-.6 3.36 2.34.55.4-2.29c2.23 1.34 4.53 1.77 6.5 1.36 5.1-1.08 6.74-9.63 4.52-18.58-.39-1.56-.87-3.03-1.44-4.39l-1.04-2.16c-1.03-1.9-2.26-3.5-3.61-4.7l.54-3.12-2.15-.64-.41 2.32c-1.76-.97-3.67-1.32-5.65-.88-3.69.82-7.44 6.78-5.83 16.1zm1.96-2.61c-1.91-8.73 1.21-13.49 4.33-14.05 1.38-.25 2.75.09 4.04.91l-4.03 22.6c-1.84-2.14-3.43-5.29-4.34-9.46zm11.53 12.81c-1.57.33-3.38-.15-5.12-1.41l3.95-22.81c1.8 2.04 3.3 5.12 4.17 8.91 1.76 7.59 1.04 14.45-3 15.31z" id="path1281"/><path class="st3" d="m364.26 454.9 5.39 13.51h-8.47c.26-1.83 3.85-2.6 3.85-2.6s-5.71-14.44-6.07-15.4c-.35-.96-.16-1.54.36-2.37.25-.41 2.45-3.82 4.6-7.15 2.21-3.42 4.38-6.77 4.38-6.77l1.78.07-.78 1.46-2.72 5.2-4.5 8.6 1.11 2.77z" id="path1283"/><path class="st5" d="m753.65 432.49 3.66-.24c4.93-.32 9.34-.63 10-.71 1.38-.17 2.36-.72 2.71-1.65l-17.4-4.71c-.26 1.58-2.51 1.67-2.51 1.67l-23.19 1.28c.06.38.31.71.79.9 1.16.45 12.24 3.64 13.01 3.89.57.19.93.23 1.35.22l4.51-.23c1.99-.1 4.5-.25 7.07-.42z" id="path1285"/><path class="st3" d="M780.07 444.38c-1.3-.15-3.08-2.75-3.08-2.75s-15.83 2.84-16.94 2.99c-1.11.14-1.68-.44-1.93-1.11-.12-.34-1.4-3.59-2.64-6.74-1.23-3.1-2.41-6.11-2.41-6.11h1.35l3.17 5.98 2.8 5.28 19.3-4.91s.55 1.43.81 3.18c.3 1.96.26 4.26-.43 4.19zm-35.37-12.8-2.49 6-12.91 31.15s-3.85-1.92-6.16-5.58c0 0 2.31-.68 4.42.29l12.42-25.72 3.75-7.78z" id="path1287"/><path class="st4" d="M234.4 342.82c.17.33.27.69.28 1.06.05 1.4-.96 2.12-2.36 2.07-1.25-.04-2.94-1.02-3.13-2.55-.06-.44-.01-.83.11-1.16.31-.82 1.14-1.28 2.24-1.25.29.01.58.06.86.15l3.97-5.69-1.2-4.12s2.48.27 3.05 1.28c.58 1.01 0 4.57 0 4.57s.67 2.31.77 2.94c.12.64-4.59 2.7-4.59 2.7z" id="path1289"/><path class="st10" d="M229.31 342.25c.31-.82 1.14-1.28 2.24-1.25l.86.15c1.2.39 2.22 1.48 2.27 2.73.05 1.4-.96 2.12-2.36 2.07-1.25-.04-2.94-1.02-3.13-2.55-.05-.43 0-.82.12-1.15m-92.63-8.74c-.29-.26-.67-.47-1.16-.63-.74-.23-1.34-.17-1.8.05-.6.29-.96.85-1.09 1.36-.45 1.77 1.14 3.13 2.6 3.15 1.64.02 2.2-.96 2.25-1.73.05-.79-.13-1.61-.8-2.2z" id="path1291"/><path class="st3" d="m579.39 420.22-33.89 2.65-6.42 1.22-.27-1.22h-1.54l-.11-1.91.11-1.75 4.3.11v-1.33s-.69-.08-1.76-.42l1.66-1.64s3.08 1.11 3.29 1.75c.21.64.42 1.91.42 1.91l35.75-.95z" id="path1293"/><path class="st13" d="m174.56 381.83-.38 2.29s-1.5 9.28-2.09 12.91l-3.89 5.15 4.33-20.48z" id="path1295"/><path class="st14" d="m351.49 414.63 5.41-.53c-.96 1.05-2.09 1.92-3.37 2.56-9.94 4.99-16.27 3.99-19.75 11.35h-.01c-5.24-1.21-10.07-2.76-10.07-2.76 4.69-6.77 12.48-6.13 17.2-7.05 5.39-1.06 8.38-1.83 10.59-3.57zm7.57-3.63c-1.24.22-2.6.46-3.51.63 2.6-3.13 3.3-5.73 2.96-9.78-.83-9.83-11.65-11.47-11.65-11.47s-1.74-2.73-.58-9.47c.11-.64.25-1.23.41-1.8.81-2.91 2.14-4.79 3.2-5.91.89-.93 1.58-1.34 1.58-1.34s.02 0 .07.02c.06.03.13.05.19.07.78.35 3.08 2.13 2.38 10.57-.29 3.46-1.85 6.29-1.85 6.29s6.38 3.15 8.11 10.26c1.01 4.16.47 8.49-1.31 11.93z" id="path1297"/><path class="st4" d="M344.96 350.72c-9.09-6.06-19.25 7.51-21.85 21.85-1.61 8.91-.01 19.94 3.83 26.78.37.66 1.39.18 1.12-.53-1.94-5.14-3.99-14.03-1.49-25.38 2.58-11.72 8.18-18.29 12.03-17.71 7 1.05 3.45 22.22 3.16 23.99-.55 3.31.35 5.31 2.62 6.25 3.67 1.53 6.16-2.79 6.58-4.99 2.02-10.46 1.8-25.06-6-30.26z" id="path1299"/><path class="st14" d="M378.81 390.37c-4.99 1.39-16.48-.02-16.48-.02s.26-.73.46-1.93c0 0 7.6 1.64 16.02 1.95z" id="path1301"/><path class="st13" d="m206.26 384 26.79-2.96s0 .01-.01.02l-.29 1.34-9.54 44.27 2.69.36 8.83-46.43a.912.912 0 0 0-1.05-1.07zm163.82 50.19-.78 1.46-2.72 5.2-2.66.04c2.21-3.42 4.38-6.77 4.38-6.77zm9.39.31-.84 2.31-1.56 3.89-2.52.04c1.54-3.26 2.99-6.3 2.99-6.3zm-21.62-23.29-2.45 2.94-5.35.48s.19-2.02.96-2.16c.44-.08 3.91-.72 6.84-1.26zm208.42 26.81-2.67 6.13-2.35.25 3.29-6.31zm13.9 4.38-1.97.21-1.18-5.16 1.25-.48zm-23.13-26.38-.78 1.49-1.86-1.95-1.02-1.03 1.02-1.57zm200.55 20.62-2.11.13c-1.23-3.1-2.41-6.11-2.41-6.11h1.35zm-12.89-5.06-2.49 6-2.23.14 3.75-7.78zm-3.53-22.02-1.08 1.35-1.51-1.33-.37-.33 1.68-1.01z" id="path1303"/><path class="st5" d="M596.86 437.32c.14-1.43-.81-2.77-.81-2.77l-17.06-1.88c.3 1.19-.1 2.77-2.08 3.07-.18.03-.54.06-1.02.11l-2.24.19-.13-3.01 2.25-.19-2.53-12.13-4.18.33c1.01 4.52 1.79 9.66 2.02 15.2-2.84.21-6.42.45-9.45.65-.38-5.82-1.53-10.99-2.77-15.06l-1.65.13-1.55 3.02c.31 1 .61 2.12.9 3.35.19.8.47 2.19.47 2.19.39 1.99.71 4.21.92 6.62-2.54.17-4.29.28-4.29.28l-6.71.47c.41.6 1.14.87 1.66.91.85.07 9.8.37 15.22.52l4.36.06c1.17-.07 4.77-.28 9.02-.55l3.81-.24c6.79-.43 13.89-.91 15.08-1.07.3-.04.54-.11.76-.2zM229.34 468.7h-14.53s.96-12.1.96-14.99c0-1.04.05-4.99.12-9.59l.05-3.85.15-9.53v-.12l.06-.01 11.98 1.25s-.15 15.89 0 18.77c.15 2.89 1.21 18.07 1.21 18.07z" id="path1305"/></g><g id="sparkle_fill" transform="translate(-36.085 -223.575)"><path class="st10" d="m92.14 397.55-2.19-3.78 3.79 2.29 3.78-2.79-2.29 3.89 1.89 3.28-3.68-1.69-3.29 2.39z" id="path1308"/><path class="st6" d="m112.37 393.47 3.89-2.99-4.99-2.69z" id="path1310"/><path class="st9" d="m102.31 406.42 4.28-.59 2.29-4.09 5.58-1.39 1.2-2.5 2.49 1.2-1.69 3.09-5.19 1.39-2.59 3.79-5.68 1.4z" id="path1312"/><path class="st6" d="m104.27 430.74 2.64-1.59 1.8 3.7-3.28 1.9zm-52.96-41.23 6.45-1.16-2.64 5.28z" id="path1314"/><path class="st9" d="M78.37 392.05v-5.29l2.86-.42.21 4.76z" id="path1316"/><path class="st6" d="M134.92 386.02c-1.27-1.9.85-2.96 2.64-1.69 1.8 1.27-1.37 3.6-2.64 1.69z" id="path1318"/><path class="st10" d="M139.68 389.72s.11 3.17-.21 4.23c-.32 1.06-1.48 1.69-2.01 2.75-.53 1.06-.21 6.55-.21 6.55l2.22.42s0-5.5-.11-6.34c-.11-.84 2.11-2.54 2.33-3.7.21-1.16.21-4.12.21-4.12z" id="path1320"/><path class="st6" d="m177.84 403.99 5.39 2.01-.43-5.92z" id="path1322"/><path class="st10" d="m192 393.95.53-5.39 3.06 2.96zm-45.03-30.44-.74-2.11 2.75-1.91 1.06 2.75z" id="path1324"/><path class="st9" d="m139.95 350.57 3.59-1.06 2.54-3.7 4.12-1.06 2.64-2.85-2.33-1.37-2.01 2.22-3.49.74s-1.9 2.64-2.75 3.91c-.85 1.27-3.91 1.27-3.91 1.27zm85.39 6.91-1.83-4.96 2.64-1.27 2.33 3.8z" id="path1326"/><path class="st10" d="m233.08 365.19-.11-4.76 2.54 3.7 3.91-.42-3.49 2.32.42 5.71-2.43-4.44-4.12-.21zM73.09 328.42l1.37 6.76 5.39.21-4.76 1.91-.74 5.07-1.47-4.23-4.23-1.16 3.34-1.41zm15.32 9.51c-.21-1.69 1.69-2.85 2.75-.63s-2.54 2.32-2.75.63z" id="path1328"/><path class="st6" d="m104.69 329.58-3.8-2.11 1.9-4.02 3.17 2.96z" id="path1330"/><path class="st9" d="m133.76 305.48.42 4.33 3.81-2.32z" id="path1332"/><path class="st10" d="m166.74 311.4 2.75-1.9-.64-5.39 2.54 4.33 4.44-.74-3.49 2.32 1.06 4.97-3.17-3.91zm21.24 6.02 2.12-3.17 1.9 3.17z" id="path1334"/><path class="st6" d="m217.47 315.31 2.75-.74 3.7 3.38 3.07-.84 3.17 2.43.32-2.33-3.39-2.85-2.64.84-3.17-3.17-3.91.95z" id="path1336"/><path class="st10" d="M238.51 317.42c-.42-2.22 2.33-2.96 3.28-.32.95 2.65-2.86 2.54-3.28.32z" id="path1338"/><path class="st6" d="m246.75 340.99-.95-2.53 3.81-1.16.74 2z" id="path1340"/><path class="st10" d="m250.77 330.21 3.59-3.38-1.58-5.5 3.8 4.66 5.61-2.54-4.13 4.23 1.48 5.28-3.91-4.01z" id="path1342"/><path class="st6" d="m266.2 312.24 3.28-.52.42 3.48-2.85.74z" id="path1344"/><path class="st10" d="M271.17 322.39c-.85-1.69 2.64-2.85 3.07-.85.42 2.01-2.22 2.54-3.07.85z" id="path1346"/><path class="st9" d="M263.88 334.76s1.8-1.06 2.22-1.8c.42-.74.85-2.85.85-2.85l3.49-.95 1.27-2.11 2.64.74-1.59 2.22-3.81 1.37s-.74 2.11-1.06 2.75c-.32.64-2.75 2.33-2.75 2.33z" id="path1348"/><path class="st10" d="m279.63 330.42 1.48-4.01-2.54-3.17 3.49 1.58 3.38-3.17-1.48 3.81 2.96 3.49-4.33-1.8z" id="path1350"/><path class="st6" d="M195.7 400.93s3.59-.92 4.02-2.54c.63-2.43 1.69-4.86 3.49-5.29 1.8-.42 3.49-.53 4.44-.63.95-.11 4.02-3.7 4.65-4.12.63-.42 3.59-.85 3.59-.85l.53 2.11s-1.8.63-3.17.95c-1.37.32-3.28 2.64-3.91 3.49-.63.85-4.44.33-5.39.85-1.16.63-2.43 4.12-2.96 5.29-.53 1.16-4.23 2.64-4.23 2.64z" id="path1352"/><path class="st10" d="M123.63 401.44c.6 1.4 2.39.6 3.09-.6.41-.71-.48-2.22-2.09-1.89-1.5.3-1.24 1.92-1 2.49z" id="path1354"/><path class="st9" d="M75.2 424.92c.16.94.42 1.9 2.54 1.9 2.11 0 2.29-2.59 1.48-3.28-1.48-1.26-4.23.11-4.02 1.38z" id="path1356"/></g><g id="sparkle_strokes" transform="translate(-36.085 -223.575)"><path class="st11" d="m92.14 397.55-2.19-3.78 3.79 2.29 3.78-2.79-2.29 3.89 1.89 3.28-3.68-1.69-3.29 2.39zm19.43-7.57.8 3.49 3.89-2.99-4.99-2.69m-8.96 18.63s3.79.2 4.28-.6c.5-.8 1.49-3.59 2.29-4.09s5.18-1 5.58-1.4c.4-.4 1.2-2.49 1.2-2.49l2.49 1.2s-1.2 2.29-1.69 3.09c-.5.8-4.09 1.2-5.18 1.4-1.1.2-1.79 2.49-2.59 3.79-.8 1.3-5.68 1.4-5.68 1.4zm21.32-4.98c.6 1.4 2.39.6 3.09-.6.41-.71-.48-2.22-2.09-1.89-1.5.3-1.24 1.92-1 2.49zM75.2 424.92c.16.94.42 1.9 2.54 1.9 2.11 0 2.29-2.59 1.48-3.28-1.48-1.26-4.23.11-4.02 1.38zm29.07 5.82 2.64-1.59 1.8 3.7-3.28 1.9-.84-2.64m-52.12 9.2 5.29 5.17m-2.33-5.6-.95 5.82m-1.79-2.54 5.49-.63m-6.87-54.02 6.45-1.16-2.64 5.28-2.65-2.74m25.9 1.16v-5.29l2.86-.42.21 4.76zm42.49-11.31 2.86 5.92m-.43-6.03-2.32 5.08m-1.16-2.54 4.86.11m10.25 2.74c-1.27-1.9.85-2.96 2.64-1.69 1.8 1.27-1.37 3.6-2.64 1.69zm4.76 3.7s.11 3.17-.21 4.23c-.32 1.06-1.48 1.69-2.01 2.75-.53 1.06-.21 6.55-.21 6.55l2.22.42s0-5.5-.11-6.34c-.11-.84 2.11-2.54 2.33-3.7.21-1.16.21-4.12.21-4.12zm38.16 14.27 5.39 2.01-.43-5.92zM192 393.95l.53-5.39 3.06 2.96-1.9 1.69m2.01 7.72s3.59-.92 4.02-2.54c.63-2.43 1.69-4.86 3.49-5.29 1.8-.42 3.49-.53 4.44-.63.95-.11 4.02-3.7 4.65-4.12.63-.42 3.59-.85 3.59-.85l.53 2.11s-1.8.63-3.17.95c-1.37.32-3.28 2.64-3.91 3.49-.63.85-4.44.33-5.39.85-1.16.63-2.43 4.12-2.96 5.29-.53 1.16-4.23 2.64-4.23 2.64zm-48.73-37.42-.74-2.11 2.75-1.91 1.06 2.75zm-7.02-12.94s2.96-.63 3.59-1.06c.63-.42 1.48-3.07 2.54-3.7 1.06-.63 3.38-.63 4.12-1.06.74-.42 2.64-2.85 2.64-2.85l-2.33-1.37s-1.06 1.37-2.01 2.22c-.95.85-2.75.53-3.49.74-.74.21-1.9 2.64-2.75 3.91-.85 1.27-3.91 1.27-3.91 1.27zm85.04 5.96-1.48-4.01 2.64-1.27 2.33 3.8-1.48 1.17m6.08 8.97-.11-4.76 2.54 3.7 3.91-.42-3.49 2.32.42 5.71-2.43-4.44-4.12-.21M72.14 334.12l.95-5.7 1.37 6.76 5.39.21-4.76 1.91-.74 5.07-1.47-4.23-4.23-1.16 2.32-.95m17.44 1.9c-.21-1.69 1.69-2.85 2.75-.63s-2.54 2.32-2.75.63zm16.28-8.35-3.8-2.11 1.9-4.02 3.17 2.96zm29.07-24.1.42 4.33 3.81-2.32zm32.98 5.92 2.75-1.9-.64-5.39 2.54 4.33 4.44-.74-3.49 2.32 1.06 4.97-3.17-3.91zm21.24 6.02 2.12-3.17 1.9 3.17zm17.55-5.7-.11 8.03m-1.9-6.03 4.55 4.44m-4.65-.63 4.12-3.91m9.93 1.69 2.75-.74s2.75 3.62 3.7 3.38c.85-.21 3.07-.85 3.07-.85l3.17 2.43.32-2.33s-2.48-2.85-3.38-2.85c-.53 0-2.64.85-2.64.85l-3.17-3.17-3.91.95zm21.04 2.11c-.42-2.22 2.33-2.96 3.28-.32.95 2.65-2.86 2.54-3.28.32zm8.24 23.57-.95-2.53 3.81-1.16.74 2zm4.02-10.78 3.59-3.38-1.58-5.5 3.8 4.66 5.61-2.54-4.13 4.23 1.48 5.28-3.91-4.01zm15.43-17.97 3.28-.52.42 3.48-2.85.74-.74-2.11m4.86 8.56c-.85-1.69 2.64-2.85 3.07-.85.42 2.01-2.22 2.54-3.07.85zm4.44-6.76 2.85 3.48m-.63-3.59-1.48 3.81m-12.47 15.43s1.8-1.06 2.22-1.8c.42-.74.85-2.85.85-2.85l3.49-.95 1.27-2.11 2.64.74s-1.06 1.59-1.59 2.22c-.53.63-3.81 1.37-3.81 1.37s-.74 2.11-1.06 2.75c-.32.64-2.75 2.33-2.75 2.33zm15.75-4.34 1.48-4.01-2.54-3.17 3.49 1.58 3.38-3.17-1.48 3.81 2.96 3.49-4.33-1.8z" id="path1359"/></g><g id="fan_motion_lines" transform="translate(-36.085 -223.575)"><path class="st11" d="M299.7 371.54c6.23.13 11.57 1.25 15.4 4.05m-65.59-13.2c1.89.66 3.98 1.04 6.3 1 7.7-.13 13.69-1.56 21.95 3.08 6.16 3.47 10.79 5.44 17.33 5.13m-59.79-18.32c1.06.35 2.2.94 3.32 1.91 2.25 1.93 4.62 4.01 7.4 5.6m35.78-6.1c5.46 0 8.05.04 15.34 3.96 8.6 4.62 13.73 5.26 18.48 3.59m-62.63-14.12s4.88-1.03 9.63 1.8c4.75 2.82 7.96 4.62 15.91 4.75m29.92-5.81c1.19.51 2.41 1.15 3.71 1.96m-52.32-11.28c1.29.58 2.84 1.13 4.44 1.39 5.52.9 10.33-1.9 17.07 1.03 5.9 2.57 7.96 5.01 14.25 5.01 3.47 0 6.4.04 9.36.74m-8.08-7.54s5.39-.64 10.65 1.93c5.26 2.57 11.68 6.29 18.61 4.36m-56.98 30.67s1.54 2.44 7.06 2.44 7.57-1.05 15.02 2.82c6.42 3.34 10.65 1.28 15.53 2.31 3.45.73 6.8 3.21 6.8 3.21m-31.06 2.57c4.88 3.08 10.19 3.92 15.91 3.21 6.16-.77 11.68-.64 15.91 3.08m-57.75-13.09s2.82 3.85 10.52 3.34c6.47-.43 9.29.08 12.25 1.61m12.78 10.45s3.34 2.31 8.34 1.67c5.01-.64 8.34-.51 10.4.9" id="path1362"/></g><g id="strokes" transform="translate(-36.085 -223.575)"><path class="st11" d="m579.39 420.22-33.89 2.65-6.42 1.22-.27-1.22h-1.54l-.11-1.91.11-1.75 4.3.11v-1.33s-.69-.08-1.76-.42l1.66-1.64s3.08 1.11 3.29 1.75c.21.64.42 1.91.42 1.91l35.75-.95m178.62-9.81 20.72-26.87-3.49-4.21 1-1.01 3.31 2.56 1.82-6.41 1.35.14-.62 5.14 4-4.01 1.08.69-3.55 4.77 3.65-.57.23 1.2-3.56 1.35-25.04 29.16m-34.39-16.81 15.03 15.54m-2.5.09-24.57-21.84-3.57-2.68.57-1.17 3.24 1.5-2.54-4.89 1.22-.7 3.06 4.23-.49-5.03 1.35-.29 1.16 6.02 2.71-2.27.82.87-2.34 3.54 4.45 4.59m48.37 47.51-11.64 2.96-5.97-11.27" id="path1365"/><path class="st11" d="M753.07 430.66s4.81 12.18 5.05 12.85c.24.67.82 1.25 1.93 1.11 1.11-.14 16.94-2.98 16.94-2.98s1.78 2.6 3.08 2.74c.69.08.72-2.23.43-4.19-.26-1.75-.82-3.18-.82-3.18l-3.86.98m-10.51-25.41c-.55-1.82-1.12-3.67-1.67-5.48" id="path1367"/><path class="st11" d="M757.31 432.25c4.93-.32 9.34-.63 10-.71 2.12-.26 3.34-1.41 2.7-3.47-.23-.74-1.62-5.34-3.34-11.02m-20.08 15.88c1.98-.12 4.48-.27 7.06-.43M751 396.67c-1.65 2.11-3.63 4.65-5.69 7.28 0 0-.32 6.1-2.37 20.98-1.09.1-1.4.15-2.57.26.78-7.5 1.41-16.43 1.41-16.43-2.53 3.25-5.61 7.04-7.91 9.96 0 0-.33 3.51-.71 7.12-1.65.15-2.74.24-2.74.24l.9-1.16.34-3.37c-1.68 2.13-3.68 4.61-4.44 5.61-.52.68-.36 1.52.51 1.86 1.16.45 12.24 3.64 13.01 3.89.57.19.93.23 1.35.22m20.25-30.22c-1.71-5.53-3.11-9.95-3.43-10.63-.9-1.93-2.31-2.18-3.59-1.03-.15.13-1.04 1.25-2.4 2.98" id="path1369"/><path class="st11" d="M746.04 420.3c-.32 2.56-.67 4.99-1.01 6.91-2.2.14-4.74.3-7.13.44.64-6.18 1.19-12.15 1.19-12.15l-3.08 3.79s-.46 5.4-.77 8.47c-3.05.18-5.71.39-5.71.39m26.75-35.75s-3.34 30.55-3.53 32.15c-.16 1.34-.71 2.05-1.99 2.25-.29.04-1.53.14-3.27.25l.34-2.59c.87-.07 1.09-.08 1.26-.11 1.12-.18 1.16-.64 1.22-1.41.06-.77 3.39-26.07 3.39-26.07l-5.97 7.41s-.63 7.16-1.46 14.09m-7.54 21.95 5.01-10.38m.96 1.64-15.4 37.16s-3.85-1.93-6.16-5.58c0 0 2.31-.67 4.43.29l9.76-20.22m-180.3-12.72c.39 1.99.71 4.21.92 6.62-2.54.17-4.29.28-4.29.28m3.54-15.45-1.55 3.02c.31 1 .61 2.12.9 3.35m12.51-7.3c1.01 4.52 1.79 9.66 2.02 15.2-2.84.21-6.42.45-9.45.65-.38-5.82-1.53-10.99-2.77-15.06m13.99-2.98-4.05-19.4-4 7.76c1.17 2.94 2.58 6.95 3.77 11.76m5.08 17.07-.13-3.01 2.25-.19-2.53-12.13m3.06-.24c1.42 6.49 2.58 11.77 2.69 12.21.3 1.19-.1 2.77-2.08 3.07-.18.03-.54.06-1.02.11m-4.95-39.98c.76 3.5 3.05 14 4.99 22.89m1.29 20.07c-4.25.27-7.85.48-9.02.55m14.86-28.22a7705.57 7705.57 0 0 1 14.54 23.09c.79 1.29.69 2.97-1.48 3.27-1.19.16-8.29.64-15.08 1.07m-4.62-37.88c1.1 1.71 2.35 3.69 3.7 5.81" id="path1371"/><path class="st11" d="M565.68 419.04c-1.31-5.07-2.83-9.19-4.01-12.01 3.24-6.24 5.81-11.19 6.14-11.76 1.19-2.08 3.17-2.47 4.65-.59.23.29.96 1.4 2.05 3.07m-12.84 23.86c1.02 3.48 1.96 7.62 2.42 12.15l4.08-.31a88.82 88.82 0 0 0-1.95-12.2m-10.9-1.94c1.07-2.05 2.17-4.17 3.25-6.23.63 1.42 1.48 3.5 2.34 6.08m26.52 31.21c4.05-2.04 9.32-4.74 9.32-4.74s2.45 1.68 3.8 1.2c0 0-.53-3.51-2.84-5.92l-15.02 8.71-4.43-12.66" id="path1373"/><path class="st11" d="M577.02 437.45s2.98 13.19 3.27 14.25c.29 1.06 1.35 1.44 2.7.87.3-.13 1.12-.53 2.23-1.08m-18.95-13.46-13.35 30.67s-4.56-4.43-5.2-5.26c-.64-.83 3.91-.58 3.91-.58l12.9-24.77m-24.72-20.52c-1.07-.34-2.53-.95-4.07-2.02-1.03-.71-2.8-1.77-4.39-3.05-1.68-1.36-3.14-2.98-3.25-4.69-.16-2.55 2.29-4.22 4.24-4.93l-.71 6.84m5.54 11.24 2.87.21m-1.22 1.7 2.01-.32" id="path1375"/><path class="st11" d="M563.83 439.32c-5.42-.15-14.38-.45-15.22-.52-.99-.08-2.77-.99-1.58-3.46 0 0 2.11-4.03 3.81-7.32l1.12 4.11-1.42 2.75 4.51-.5c-.63-4.16-1.56-7.49-2.41-9.91.38-.73.77-1.49 1.17-2.26m-7.73 27.2c-1.23-2.84-2.41-5.7-2.72-6.95-.71-2.89-2.14-18.77-2.14-18.77" id="path1377"/><path class="st11" d="m528.1 407.81 3 28.22s2.25 5.53 5.52 9.83c3.27 4.3 12.77 10.91 12.77 10.91s-.96-2.05-2.11-4.63" id="path1379"/><path class="st11" d="m529.27 418.76 8.96 7.59 1.81 13.03-9.23-6.15" id="path1381"/><path class="st12" d="m529.27 418.76 8.96 7.59.46 3.32-8.98-6.8z" id="path1383"/><path class="st11" d="m536.29 436.88 2.73 11.58m1.02-9.08.84 6.09m-.84-.21-.22-1.28 1.06 1.49zm-6.77-17.76v5.16s1.8 1.26 1.97-.77c.26-2.93-1.97-4.39-1.97-4.39zm-2.84 2.19 1.16.87m-1.5-4.1 1.5 1.04m14.91-23.7 10.54 12.22m-2.64-.45-19.75-20.02-3.81-1.48.17-1.8s1.48-3.27 1.64-3.63c.16-.36.61-.61 1.12-.35.51.26 3.82 1.83 4.4 2.18.58.35.58.74.45 1.35-.13.61-.64 2.09-.64 2.09l6.47 7.5" id="path1385"/><path class="st11" d="m531.01 392.27 3.08 1.26-.46 1.62m3.66-5.14-3.01 1.21.32 1.21 2.15-.16" id="path1387"/><path class="st11" d="m531.89 390.33 2.55 1.5.16.6-.51 1.1m-1.44-4.88 2.88 2.07" id="path1389"/><path class="st12" d="m533.93 389.49 2.73-7.7 1.51-2.01-.22 2.53-2.9 8.16zm-1.77 5.01-1.92 5.43 1.29.47 1.93-5.43z" id="path1391"/><path class="st11" d="m741.78 408.77 2.97 1.5m-13.09 11.3 1.83 1.02m-182.65 5.43 2.82-.27m4.91-14.67h5.36M292.39 468.7H60.29m570.15 0H302.4m332.66 0h113.59M349.41 351.94c2.74 3.34 5.27 9.06 4.58 18.7-.67 9.43-2.77 20.62-6.74 27.53-1.82 3.16-4.02 5.42-6.56 6.88m-3.42 1.45c-2.15.61-4.47.77-6.95.54 0 0-6.74-.77-9.82-7.7s-3.08-22.91 3.47-38.31c6.55-15.4 18.87-13.86 19.64-13.48.26.13 1.7.66 3.43 2.04" id="path1393"/><path class="st11" d="M355.55 411.64c4.2-4.78 2.9-9.99 2.42-12.43-1.03-5.26-7.76-7.85-7.76-7.85m18.8-10.38 5 2.05m-6.54 1.42 5.65 1.54m-6.29 2.43 6.16.77m-35.64-2.42c-3.18 8.56-7.65 15.08-12.23 14.36-4.88-.77-6.24-8.73-6.59-15.91m14.55-33.34c1.79-.8 4.61-.03 6.15 3.69 2.25 5.43 2.26 17.17-.51 27.04m8.37-17.8c.01 4.12-.44 8.96-1.67 14.5-4.62 20.79-14.25 27.82-14.25 27.82m12.43-59.58s2.87 4.89 3.41 14.31m-23.82 13.12c.77-3.24 2.79-5.48 4.04-5.2 1.73.39 1.8 3.37.96 6.06-.75 2.41-2.37 4.04-3.79 3.59-1.17-.37-1.7-2.38-1.21-4.45z" id="path1395"/><path class="st11" d="M333.78 371.5c-.13 1.39-.39 2.82-.77 4.22-1.97 7.25-4.39 10.47-6.36 11.78m-2.88.77a2.2 2.2 0 0 1-.51-.16c-1.33-.67-3.4-2.89-1.93-13.16.73-5.06 4.36-13.54 8.34-13.67 2.69-.09 4.08 3.18 4.21 7.38" id="path1397"/><path class="st11" d="M326.24 378.98s3.19 9.19 8.69 15.63c2.95 3.45 7.34 5.73 10.52 6.24m-17.13-30.17s4.69-7.3 12.04-10.83c3.6-1.73 8.97-2.27 12.55-1.16m-29.08 2.65c-.26 3.03-.35 7.12.34 11.04m-.84 5.91s-2.19 5.17-3.02 10.02m69.36 46.53c-12.83-.4-36.12-1.24-36.83-1.24-.84 0-2.57-.37-3.25-1.49m36.33-29.87c5.08 11.07 12.9 28.56 13.31 29.53.58 1.35.67 3.18-1.35 3.27-.42.02-2.54-.03-5.65-.12m-24.09-29.81s7.99-10.78 8.76-11.74c.77-.96 2.89-3.47 4.91.19.39.71 1.35 2.71 2.62 5.45m-34.38 15.63 18.53-1.68-.19-1.59.63-.53-.7-3.43-4.17.87-.76-3.99-1.4.1.05 6.06s-10.25 1.88-11.02 2.02c-.77.14-.97 2.17-.97 2.17zm-16.38 4.71c5.47-.96 13.11-1.42 18.59-4.91m-13.63 14.47c-9.89-1.7-14.93-3.65-14.93-3.65s1.67-3.68 7.3-5.32" id="path1399"/><path class="st11" d="M378.75 384.21c1.77 1.43 2.66 2.8 2.33 4.21-.64 2.7-6.29 2.7-9.24 2.7s-9.5-.77-9.5-.77 2.24 6.87 4.29 17.33m-2.32-31c2.64 1.05 5.42 2.24 7.65 3.41 2.11 1.1 3.96 2.14 5.43 3.14m-21.43-9.63c.98.34 3.18 1.1 5.78 2.08m7.27 35.16-1.49.36m1.11-2.07-1.8.48m15.85 4.16-35.23 13.73-2.73-3.43-1.22.96 1.96 3.05-4.53 1.2s.65 1.36 1.36 1.72c.71.35 4.4.67 4.4.67l1.6-1.5 32.06-13.29" id="path1401"/><path class="st11" d="M368.83 421.65c.34 2.89.63 5.9.82 8.99 0 0-10.65.46-21.37-.47m19.32-17.13c.23 1.39.46 2.83.67 4.31m8.86 2.91c-.41 5.13-.74 9.12-.81 9.68-.19 1.73-2.31 2.7-2.31 2.7m5.2-38.41s-.92 11.58-1.72 21.56m-2.96 1.16 1.75-18.67-5.73 7.51s-.29 6.35-.39 11.07m1.45 12.99s1.83-.48 1.93-2.02c.02-.36.35-3.91.77-8.44" id="path1403"/><path class="st11" d="M369.31 426.21s9.91 1.43 15.59 21.83c4.88 17.54 19.51 21.43 33.11 19.73 5.8-.72 11.54-1.38 17.48-1.11 11.18.51 20.51 3.25 23.33.63 4.14-3.85 3.13-14.09 3.13-14.09" id="path1405"/><path class="st12" d="M462.06 448.56c2.28-.01 3.05 1.86 2.96 3.08-.1 1.34-1.04 3.18-3.13 3.08-1.99-.1-3.04-1.63-3-3.27.03-1.67 1.24-2.89 3.17-2.89z" id="path1407"/><path d="M458.5 443.96c-.03-2.37 1.67-3.24 3.27-3.14 1.44.09 2.91 1.36 2.82 3.21-.06 1.44-1.32 2.82-3.11 2.79-1.47-.03-2.96-1.25-2.98-2.86z" style="fill:none;stroke:#2f1d4a;stroke-width:.75;stroke-miterlimit:10" id="path1409"/><path class="st11" d="M461.42 445.02h.19m-1.19-2.37.1.93m1.79-.07.1-1.02m-5.85 10.37.24 3.39 10.07.13 1.28-17.07m-1.47-1.22-11.1.32.83 12.27m-93.22 1.55-1.11-2.78 7.23-13.8" id="path1411"/><path class="st11" d="M368.31 434.13s-8.47 13.08-8.99 13.91c-.52.83-.71 1.41-.35 2.37.36.96 6.07 15.4 6.07 15.4s-3.59.77-3.85 2.6h8.47l-5.39-13.5m13.27-20.46s-6.1 12.81-6.61 13.97c-.51 1.16-.83 1.73-.39 3.02.45 1.28 5.39 13.87 5.39 13.87s-3.14 1.86-3.27 3.11h8.14l-7.58-18.11 5.41-13.5m-132.9-69.25c2.35 8.08 4.17 14.35 4.3 14.83.39 1.41 1.16 4.75-3.85 4.36-.72-.06-3.39-.24-7.43-.52M238 341c2.04 6.99 4.64 15.93 6.9 23.72m-88.95 15.85c20.07 1.37 56.09 3.83 76.07 5.2m-107.23-52.89c4.43 16.02 11.42 41.24 12.04 43.1.9 2.7 3.21 3.47 4.62 3.59.27.02 4.2.3 10.38.72m95.62-6.83h4.75" id="path1413"/><path class="st11" d="m248.97 373.46.62-2.1s2.28.17 3.27.26c.99.09 2.57 2 2.57 2l10.78-7.45-26.8-20.31" id="path1415"/><path class="st11" d="M246.83 349.18c8.52 5.89 20.87 14.42 21.98 15.18 1.71 1.17 2.07 2.16.81 3.41-1.26 1.25-12.76 11.67-13.56 12.21-1.47.99-4.85 0-4.85 0m-12.45-36.37s2.76 1.91 6.62 4.57" id="path1417"/><path class="st11" d="M250.04 382.39h3.72l.38-1.96m-135.78-15.2 8.92 3.92s.1-3.73 1.21-3.83c1.11-.1 3.62.4 3.62.4l.2 1.21m-28.07-7.9 12.12 5.32m7.5-27.12-30.31 17.1 8.07 3.54m27.68 9.67 4.96-.6" id="path1419"/><path class="st11" d="M125.21 334.37s-33.4 17.53-35.48 18.82c-1.54.95-1.21 2.06 0 2.87s38.67 18.23 39.57 18.63c.91.4 4.53-1.11 4.53-1.11" id="path1421"/><path class="st11" d="m130.99 374.55.25 1.82 5.44-.91m32.45 39.78c2.68-16.53 5.05-31.11 5.05-31.11" id="path1423"/><path class="st11" d="m172.53 381.7-18.36 87h12.06s-.82-2.57-2.88-3.72c-2.06-1.16-1.96-1.73-1.77-3.08.1-.72 3.7-22.87 7.02-43.35m65.95-21.88c-2.15 12.16-4.7 26.51-4.73 26.78-.1.77.1 1.35 1.44 1.73.97.28 3.08.63 3.08 2.45m-32.93-43.95s30.82-6.39 32.85-6.77c2.02-.39 3.75.19 3.27 2.98-.06.35-1.2 6.77-2.58 14.58m-28.69-10.46 26.79-2.97m0 0-9.84 45.63m37.37 26.83 1.01 15.2m-2.24-33.65 1.06 15.88" id="path1425"/><path class="st11" d="m202.78 428.85 13.38-2.95s18.1 2.31 19.64 2.41c1.54.1 23.01-1.64 23.01-1.64l.25 3.75m-66.68 38.28s2.21-12.96 2.31-14.31c.1-1.35.48-23.87.48-23.87l3.04-.67" id="path1427"/><path class="st11" d="M215.94 440.27c.1-7.13.21-14.37.21-14.37m-1.34 42.8s.96-12.1.96-14.98c0-1.05.05-4.99.12-9.59m.26-13.51 11.98 1.25 30.67-5.2m-30.67 5.2s-.15 15.88 0 18.77c.15 2.89 1.21 18.06 1.21 18.06M47.92 375.46s-2.87 1.43-8.46.91c0 0 2.07 3.83 10.09 3.57 8.06-.25 15.35-6.62 29.7-6.53 12.17.08 19.63 6.24 29.76 3.99 6.9-1.53 11.4-2.46 14.77-2.86m-36.75-30.07c4.78-1.1 9.38-1.79 13.27-3.22 8.06-2.97 19.53-13.06 22.28-16.41m-62.29 38.49c3.67-4.97 7.32-9.39 11.41-12.41 3.36-2.48 6.93-4.05 10.51-5.17" id="path1429"/><path class="st11" d="M44.63 377.99s4.75.51 10.35-7.3c1.21-1.69 2.4-3.37 3.58-5m58.96-32.82c2.81-.56 8.36-.9 15.04 2.69" id="path1431"/><path class="st11" d="M133.73 332.93c-.6.29-.96.85-1.09 1.36-.45 1.77 1.14 3.13 2.6 3.15 1.64.02 2.2-.96 2.25-1.73.04-.79-.13-1.6-.8-2.2m97.71 9.31s4.71-2.06 4.61-2.69c-.1-.63-.77-2.94-.77-2.94s.58-3.56 0-4.57c-.58-1.01-3.05-1.28-3.05-1.28" id="path1433"/><path class="st11" d="M232.42 341.16c1.2.39 2.22 1.48 2.27 2.73.05 1.4-.96 2.12-2.36 2.07-1.25-.04-2.94-1.02-3.13-2.55-.06-.44-.01-.83.11-1.16" id="path1435"/><path d="M234.51 329c-.91-3.11-2.25-3.27-4.36-3.47-1.16-.11-100.62-10.65-105.11-11.17-4.49-.51-4.36 3.59-3.85 5.44.09.32.6 2.18 1.39 5.03 0 0 6.52 3.28 11.16 8.09.46-.22 1.06-.29 1.8-.05.49.16.87.37 1.16.63l92.63 8.74c.31-.82 1.14-1.28 2.24-1.25.29.01.58.06.86.15l3.97-5.69c-1.16-3.93-1.89-6.45-1.89-6.45zm-99.18-2.13c-1.17.96-3.8.56-5.28-.71-1.57-1.34-2.25-3.3-1.21-4.87 1.51-2.27 4.87-1.01 6.06.3 1.18 1.3 2.16 3.86.43 5.28zm11.4 1.19c-1.17.96-3.84.69-5.26-.48-1.59-1.31-2.03-3.59-.96-5.13 1.42-2.03 4.59-.98 5.78.32 1.2 1.31 2.18 3.87.44 5.29zm11.3.82c-1.17.96-3.71.95-5.13-.22-1.59-1.31-2.02-3.58-.96-5.13 1.3-1.88 4.56-1.43 5.93.19 1.05 1.24 1.89 3.74.16 5.16zm76.37 13.94 4.21.28-.61-2.1Zm-103.5-20.79 2.74 2.95m-2.55-.23 2.52-2.3m8.55 2.12 3.01.31m9.86-.9.55 3.62m-2.3-2 3.96.27" id="path1437" style="fill:#2f1d4a;stroke:#2f1d4a;stroke-width:.75;stroke-linecap:round;stroke-linejoin:round;stroke-miterlimit:10"/><path class="st11" d="m161.74 370.07 15.14-5m-13.86-8.47 12.58.77m-17.33-13.87 16.69 6.93m-1.67-9.75 5.9 4.75m2.06 26.18-5.27 5.78m25.41-30.55 4.63-4.11m-1.42 10.4 16.17-7.06m-14.88 13.09 11.55-1.02m-11.42 6.41 8.98 2.06m-8.98 4.62 9.88 6.16m-33.47-14.82c1.29 4.57 3.38 7.86 5.74 10.01l-.6 3.36 2.34.55.4-2.29c2.23 1.34 4.53 1.77 6.5 1.36 5.1-1.08 6.74-9.63 4.52-18.58-.39-1.56-.87-3.03-1.44-4.39m-1.04-2.16c-1.03-1.9-2.26-3.5-3.61-4.7l.54-3.12-2.15-.64-.41 2.32c-1.76-.97-3.67-1.32-5.65-.88-3.69.82-7.44 6.78-5.83 16.1m2.65.45c-1.91-8.73 1.21-13.49 4.33-14.05 1.38-.25 2.75.09 4.04.91l-4.03 22.6c-1.84-2.14-3.43-5.29-4.34-9.46zm11.53 12.81c-1.57.33-3.38-.15-5.12-1.41l3.95-22.81c1.8 2.04 3.3 5.12 4.17 8.91 1.76 7.59 1.04 14.45-3 15.31zm-132.43-2.31s4.04.39 7.32-2.31c2.65-2.18 5.01-3.85 7.12-3.66m21.93 2.44c3.19.48 5.6.06 5.6.06m-27.34-9.43s5.78-1.16 12.71 5.2c1.45 1.33 3.01 2.26 4.56 2.92m14.3-10.24s4.04.39 6.93-1.35c2.89-1.73 5.01-2.7 7.32-2.7" id="path1439"/></g><g id="hanging_glyph_fill" transform="translate(-36.085 -223.575)"><path class="st7" d="m303.89 315.03-.72.05-2.46-.32-.71 1.28 3.49 1.35-4.45 3.53-8.45 2.89c-2.49.9-4.41-3.14-5.21-6.35-.81-3.24-1.11-7.88.8-8.47l14.8-2.68c.01-.01 2.8 2.31 2.91 8.72z" id="path1442"/><path class="st4" d="M324.6 264.45c-.54 0-5.28-.03-11.54-.06l-2.68-.02c-13.02-.08-30.48-.18-32.11-.18-2.57 0-3.08 1.28-2.44 3.21.24.71 1.9 5.92 3.94 12.28 1.21.35 2.63.8 4.18 1.35l-2.49 3.92c.64 2 1.29 4.01 1.92 5.97l.82 2.53c.36 1.1.7 2.16 1.03 3.17.69.2 1.48.45 2.32.75l-1.37 2.31c.99 3 1.9 5.57 2.01 5.78.5.93 1.11.95 1.63.7.18-.09 4.15-2.09 9.22-4.65l1.73-3c.49.45.97.91 1.44 1.39 3.02-1.53 6.21-3.15 9.11-4.62l4.59-16.71 1.82-.26-3.55 14.53.62.66c3.79-1.94 6.53-3.36 6.72-3.51.64-.51 1.28-1.28 1.54-2.31.17-.68 1.63-8.82 2.67-14.78l.65-3.74c.21-1.21.35-2.07.4-2.4.26-1.8-.51-2.31-2.18-2.31z" id="path1444"/><path class="st5" d="M293.44 289.96c3.26 1.77 6.58 3.98 9.36 6.69l3.77-1.93c-2.29-2.07-5.17-4.45-8.31-6.59zm20.07-2.63-2.13 7.7c-2.04-1.88-5.67-5.07-9.93-8.13l6.34-2.44zm-15.12-2.48.29.22 5.83-2.21-25.78-12.91 2.4 7.04c3.71 1.13 9.02 3.04 14.14 5.96 1.06.59 2.1 1.23 3.12 1.9z" id="path1446"/><path class="st4" d="M291.29 318.68c-.19-1.41-.49-2.91-.93-4.2-1.29-3.78-2.81-5.92-4.18-5.5-1.91.59-1.61 5.23-.8 8.47.8 3.21 2.71 7.25 5.21 6.35.65-.23.9-1.65.83-3.47.01.01-.05-1.12-.13-1.65z" id="path1448"/><path class="st3" d="M325.83 322.36c-.28 3.3-2.32 6.31-2.88 6.03-.56-.28-1.41-5.19-1.41-5.19l-12.56-9.01c-.14.55-.22.89-.23.95-.13.64-2.18 4.36-2.69 4.94-.52.58-4.43 1.41-4.43 1.41l-2.59-.58 4.45-3.53-3.49-1.34.71-1.29s1.43.19 2.46.32c1.02.13 2.95-.9 2.95-.9l1.54-5.61-1.09-8.67-.15-2.13 1.37-.7 1.41 5.91.75-2.72v-.01l5.96-21.68 1.83-.26s-4.7 19.19-7.3 29.87l.02.07.86 3.62 7.75 5.61 1.53 1.1z" id="path1450"/><path class="st3" d="M345.89 293.98c-2.03.85-4.26.08-4.26.08s-10.33 8.77-11.17 9.33c-.84.57-1.68.85-2.53 0-.59-.59-5.49-5.84-8.4-8.94-1.25-1.35-2.13-2.29-2.13-2.29l1.67-.88 1.03.95.38.36 9.14 7.78 12.08-11.02c3.93 2.25 4.19 4.63 4.19 4.63z" id="path1452"/><path class="st5" d="m315.31 288.23 2 1-2.56 1.3zm-33.84-3.28c1.9.59 4.99 1.65 8.43 3.24l.29.13 5.25-2c-.26-.16-.53-.31-.79-.46-3.7-2.11-7.49-3.69-10.7-4.84z" id="path1454"/><path class="st6" d="M313.12 263.05c0 .45-.15 3.04-.33 6.09l-.12 1.94c-.25 4.17-.51 8.52-.51 9.21 0 1.3-.3 2.56-1.4 3.01-1.42.59-25.16 9.68-28.05 10.68-2.18.77-2.87-.7-2.91-2.13 0-.13 0-.25.01-.37.09-1.55.35-10.03.35-10.03l.08-1.64 3.72 1.22-2.49 3.91 1.92 5.97 25.81-9.81 1.24-16.74-14.18-.08 4.42-2.15s-.33-1.77-.6-4c-.11-.96.08-1.37 1.13-1.37l.58-.21c.36-.12.87-.3 1.45-.51v-24.05l3.3-5.04v27.93c1.2-.41 2.18-.76 2.4-.83.63-.21 1.11 0 1.06.85-.06.85-.31 2.5-.31 2.5.5.08.91.28.77.95-.25 1.16-.49 2.36-.49 2.36s.19.08 1.51.51c1.32.44 1.64.7 1.64 1.83z" id="path1456"/><path class="st3" d="m283.96 306.29-.75 3.14-5.15-.39v-2.75s-8.32-.59-9.09-.78c-.77-.19-1.1-.58 0-1.54.63-.56 4.63-3.89 7.82-6.55.73-.61 1.42-1.18 2.01-1.68l2.07-1.71c.44.21 1.04.23 1.84-.05l-5.43 5.45-3.95 3.96-.09.09 9.14.75z" id="path1458"/><path class="st5" d="M293.71 297.53a38.723 38.723 0 0 0-6.58-3.04l-.64-1.9 3.41-1.29c3.55 1.72 7.44 4.07 10.88 7.2l-1.73 3c-1.03-1-2.18-1.92-3.37-2.73-.01 0-1.55-1-1.97-1.24zm-7.52 2.15 3.05 1.06.82 2.43 4.3-2.2c-1-.81-2.03-1.5-3.09-2.03a32.85 32.85 0 0 0-3.73-1.58z" id="path1460"/><path class="st13" d="m282.71 293.98-5.43 5.45-.49-2.01c.73-.61 1.42-1.18 2.01-1.68l2.07-1.71c.44.21 1.04.23 1.84-.05z" id="path1462"/><path class="st14" d="m281.47 284.94 1.92 5.97-3.59.94c0-.13 0-.25.01-.37.09-1.55.35-10.03.35-10.03l.08-1.64 3.72 1.22z" id="path1464"/><path class="st13" d="m309.2 302.97-1.54 5.59-1.09-8.67-.15-2.13 1.37-.7zm10.9-10.74-.57 2.22c-1.25-1.35-2.13-2.29-2.13-2.29l1.67-.88z" id="path1466"/></g><g id="hanging_glyph_stroke" transform="translate(-36.085 -223.575)"><path class="st11" d="m300.1 284.56-18.1 6.88m22.19-29.14 6.27 1.89-1.26 16.91-6.65 2.53" id="path1469"/><path class="st11" d="M312.79 269.15c.18-3.05.33-5.65.33-6.09 0-1.13-.32-1.39-1.64-1.83-1.32-.44-3.76-1.31-3.76-1.31m-27.56 21.53s-.26 8.48-.35 10.03c-.09 1.55.53 3.33 2.9 2.51 2.89-1 26.63-10.09 28.05-10.68 1.1-.45 1.4-1.71 1.4-3.02 0-.68.26-5.03.51-9.2m-23.24 1.15 18.89 9.2m-30.26-14.73 8.78 4.27" id="path1471"/><path class="st11" d="M295.67 298.77c1.2.82 2.34 1.73 3.37 2.73-5.07 2.56-9.04 4.56-9.22 4.65-.51.26-1.13.24-1.63-.7-.11-.21-1.03-2.78-2.01-5.78l3.05 1.06.82 2.43 4.3-2.2c-1-.81-2.03-1.5-3.09-2.03a35.876 35.876 0 0 0-6.03-2.32c-.33-1.01-.67-2.07-1.03-3.17m2.28-.85.64 1.9c1.89.65 4.25 1.67 6.58 3.04m-7.28-7.77c-.35-.14-.7-.28-1.03-.41l.24.71m25.69 5.21c-2.9 1.48-6.09 3.1-9.11 4.62-3.75-3.84-8.25-6.63-12.32-8.59m11.56-4.4c4.26 3.06 7.89 6.26 9.93 8.13m-6.79-12.17-25.78-12.91 2.4 7.04c3.71 1.13 9.02 3.04 14.14 5.96 1.05.6 2.09 1.24 3.12 1.91" id="path1473"/><path class="st11" d="M293.44 289.96c3.26 1.77 6.58 3.98 9.36 6.69l3.77-1.93c-2.29-2.07-5.17-4.45-8.31-6.59m-14.87 2.78c-.63-1.95-1.28-3.97-1.92-5.97 1.9.59 4.99 1.65 8.43 3.24m-3.71 11.5 1.37-2.32m-6.09-12.41 2.49-3.92m12.5-16.84 8.79-4.28m-4.6 2.01s-.3-1.55-.57-3.78c-.11-.96.08-1.38 1.13-1.38 1.05 0 6.99.53 7.73.58.74.05 1.73.02 1.52 1.01-.25 1.17-.49 2.36-.49 2.36" id="path1475"/><path class="st11" d="M301.21 256.76s7.09-2.49 7.73-2.7c.64-.21 1.11 0 1.06.85-.05.85-.31 2.51-.31 2.51zm2.03-14.38v-10.39m0 24.06v-11.3m3.31-12.8v-5m0 27.94v-20.03m11.19 43.45s-8.86 36.19-8.98 36.83c-.13.64-2.18 4.36-2.7 4.94-.51.58-4.43 1.41-4.43 1.41l-2.59-.58 4.45-3.53-3.49-1.35.71-1.28s1.43.19 2.46.32 2.95-.9 2.95-.9l9.79-35.61m-37.11 17.19c-3.19 2.66-9.05 7.53-9.84 8.23-1.09.96-.77 1.35 0 1.54.77.19 9.09.78 9.09.78v2.75l5.16.39.75-3.13-1.58-2.07-10.2-.83m10.54-9.42-9.39 9.41" id="path1477"/><path class="st11" d="m282 307.7.27-1.09s7.27-.51 10.15 6.67m-14.4-5.58s-3.34 1.54-1.04 4.36c2.82 3.45 8.09 3.97 8.09 3.97" id="path1479"/><path class="st11" d="m286.19 308.98 14.8-2.68s2.79 2.33 2.9 8.73m-4.85 5.89-8.45 2.88" id="path1481"/><path class="st11" d="M291.43 320.34c.06 1.81-.18 3.23-.83 3.47-2.49.9-4.41-3.14-5.21-6.35-.81-3.24-1.11-7.88.8-8.47 1.37-.42 2.89 1.72 4.18 5.5.44 1.28.76 2.78.93 4.2m24.75-33.49 4.43 2.16m-9.13-4.44 2.97 1.44m-.81 2.97-5.71-2.87m6.95 6.07 2.56-1.3-2-1" id="path1483"/><path class="st11" d="M325.74 272.9c-1.04 5.96-2.5 14.1-2.67 14.78-.26 1.03-.9 1.8-1.54 2.31-.19.15-2.92 1.57-6.72 3.51l-.62-.66m-1.13-28.46c6.26.04 11 .06 11.54.06 1.67 0 2.44.51 2.18 2.31-.05.33-.19 1.19-.4 2.4m-30.93 17.18c-.26-.16-.53-.31-.79-.46-5.48-3.13-11.16-5.1-14.89-6.19-2.04-6.35-3.71-11.57-3.94-12.28-.64-1.93-.13-3.21 2.44-3.21 1.62 0 19.08.1 32.11.18m-1.18 38.6-1.4-5.9m11.27 20.4-7.75-5.61-.86-3.62m-1.48 5.95 12.57 9.01s.84 4.92 1.4 5.2c.56.28 2.6-2.73 2.88-6.04l-5.23-3.78m-14.03-18.68 1.1 8.66" id="path1485"/><path class="st11" d="M317.4 292.16s9.69 10.39 10.53 11.23c.84.84 1.69.56 2.53 0 .84-.56 11.16-9.34 11.16-9.34s2.23.77 4.27-.07c0 0-.27-2.38-4.2-4.63l-12.08 11.02-9.14-7.79" id="path1487"/></g></svg>