<svg xml:space="preserve" version="1.1" id="svg1490" width="756.3" height="275.5" xmlns="http://www.w3.org/2000/svg"><style id="style1232">.st3{fill:#ffe5b8}.st4{fill:#b39ed3}.st5{fill:#8374a8}.st6{fill:#f58452}.st7{fill:#fff}.st9{fill:#e1557a}.st10{fill:#ecb532}.st11{fill:none;stroke:#2f1d4a;stroke-width:.75;stroke-linecap:round;stroke-linejoin:round;stroke-miterlimit:10}.st12{fill:#2f1d4a}.st13{fill:#f7ba69}.st14{fill:#cc562e}</style><path class="st3" d="M705.6 245.1H27.9L50.4 79.2l627-61.5z" id="bg_shape"/><g id="fill" transform="translate(-36 -223.6)"><path class="st4" d="M397.9 435h.3c.3-1.4-.7-3.3-.7-3.3l-18.1-40c-1.1 0-2 1-2.5 1.7l-8.8 11.7s-17.4 23.5-18 24.5c-1.1 1.6-.5 2.5-.5 2.5.7 1.1 2.4 1.5 3.2 1.5l36.9 1.2 2.5.1c3.1.1 5.3.2 5.7.1z" id="path1235"/><path class="st5" d="M397.9 435h.3c.1-.6 0-1.2-.1-1.8l-22.8-1.5c-.6.6-1.3 1-1.3 1l-2.4-2.9s1.8-.5 2-2l.7-8.4.2-2.5 1.8-18.6-5.2 6.8h-3l-18 24.5c-1.1 1.5-.5 2.5-.5 2.5.7 1.1 2.4 1.5 3.2 1.5h1.6l35.3 1.2 2.5.1c3.1.1 5.3.2 5.7.1z" id="path1237"/><path class="st4" d="M596.9 437.3c.1-1.4-.8-2.8-.8-2.8l-26-41c-.9 0-1.7.7-2.3 1.8l-6.1 11.7c.7 1.6 1.4 3.7 2.2 6h-5.3l-3.3 6.3-1.5 3-1.2 2.2 1 3.2-2.8.3-3.8 7.3c-1.2 2.5.6 3.4 1.6 3.5l15.2.5h4.4l9-.5 3.8-.2a553.4 553.4 0 0 0 15.9-1.3z" id="path1239"/><path class="st6" d="m356.9 414.1-5.4.5c-2.2 1.8-5.2 2.5-10.6 3.6-4.7 1-12.5.3-17.2 7 0 0 4.8 1.6 10 2.8 2.5.6 5 1 7.2 1.3l4.5-1.2-1.9-3 1.2-1 2.7 3.4 21-8.2c-.1-2-.5-4-.8-6.3zm-5.2-42.1-.2-.1s-.7.4-1.6 1.3c-1 1.1-2.4 3-3.2 6l-.4 1.7c-1.2 6.8.6 9.5.6 9.5s10.8 1.6 11.6 11.5c.3 4-.4 6.6-3 9.7l3.6-.6 3-.5-.1-6.1 1.4-.1.7 4 2.5-.6c-.1-1-3.5-14.7-4.3-17.3 0 0 11.5 1.4 16.5 0 1-.3 1.8-.7 2.1-1.3l.3-1c-5.9-5.7-28.5-15.8-29.5-16.1z" id="path1241"/><path class="st7" d="M528.1 407.8c-.2-2.5 2.3-4.2 4.2-5l-.7 7-.3 2.7c1.6 1.3 3.4 2.3 4.4 3a16 16 0 0 0 5.9 2.5v1.3h-4.3l-.1 1.7v1.9h1.6l.3 1.2 2.1-.4s1.4 15.9 2.1 18.7c.4 1.3 1.5 4.2 2.8 7l1.2 2.7 2 4.7s-9.4-6.7-12.7-11c-3.2-4.3-5.5-9.8-5.5-9.8l-3-28.2m-289.5-64.7-4.2-.3.3 1c0 1.5-1 2.2-2.4 2.2-1.2 0-3-1-3.1-2.6l.1-1.2-92.6-8.7c.6.6.8 1.4.8 2.2 0 .8-.6 1.8-2.3 1.7-1 0-2.1-.7-2.5-1.7l-.2-.1a25.4 25.4 0 0 0-7.7-2.8l12 43.2a5.2 5.2 0 0 0 4.6 3.6l10.4.7 4.1.3 76.1 5.2 6.7.4 7.5.5c5 .4 4.2-3 3.8-4.3l-4.3-14.8-.8-2.9-7-23.7" id="path1243"/><path class="st4" d="M132.7 335.6c.4 1.1 1.5 1.8 2.5 1.8 1.7 0 2.2-1 2.3-1.7 0-.8-.1-1.6-.8-2.2-.3-.3-.7-.5-1.2-.6-.7-.3-1.3-.2-1.8 0-4.6-4.8-11.1-8-11.1-8a73.5 73.5 0 0 1-22.3 16.4c-3.9 1.4-8.5 2-13.3 3.2l-2.3.5-2.5.8a34.9 34.9 0 0 0-10.5 5.1 57.4 57.4 0 0 0-11.4 12.4l-1.7 2.4-3.6 5-1.1 1.5-1.4 1.6h-.2c-1.5.3-4.4 1.7-4.4 1.7s-2.8 1.4-8.4.9c0 0 .3.6 1.2 1.3 1.4 1 4 2.4 8.9 2.2 8-.2 15.3-6.6 29.7-6.5 12.1 0 19.6 6.3 29.7 4 6.9-1.5 11.4-2.4 14.8-2.9 5.8-.7 12.5-.2 12.5-.2l-11.5-41.5c2.3.4 5 1.2 7.8 2.8z" id="path1245"/><path class="st5" d="M136.3 374.3s-6.7-.5-12.5.2c-3.4.5-7.9 1.4-14.8 2.9-10.1 2.3-17.6-4-29.7-4-14.4 0-21.7 6.3-29.7 6.5-4.8.2-7.5-1.1-8.9-2.2 1.3.2 2.7.4 4 .3 2.5-.2 5.2-2 7.6-4.2l1.6-1.6c3.6-4 6.2-8.5 6.4-8.9l.2-.3c1.8-2.2 13.6-16.4 29.4-16.2 17 .3 18.5-6.7 22.8-11.2 4.3-4.6 12-2.8 12-2.8z" id="path1247"/><path class="st4" d="m731.7 421.6-4.5 5.6c-.5.7-.3 1.5.5 1.8 1.2.5 12.3 3.7 13 4l1.4.2 4.5-.3 7-.4 3.7-.2 10-.8c2.1-.2 3.4-1.4 2.7-3.4l-6.4-21s-4.4-14.2-4.7-14.8c-.9-2-2.3-2.2-3.6-1l-2.4 3-7.6 9.6-.5 6.4-3-1.5-8 10s0 1.6-.3 3.8z" id="path1249"/><path d="m365.3 393.9 2 8.4 6.1-7.6c-4 0-8.1-.8-8.1-.8z" style="fill:none" id="path1251"/><path class="st9" d="M135 326.9c-1.1 1-3.7.5-5.2-.8-1.6-1.3-2.3-3.3-1.2-4.8 1.5-2.3 4.8-1 6 .3 1.2 1.3 2.2 3.8.5 5.3z" id="path1253"/><path class="st6" d="M146.7 328c-1.1 1-3.8.6-5.2-.5-1.6-1.3-2-3.6-1-5.2 1.4-2 4.6-1 5.8.4 1.2 1.3 2.2 3.8.4 5.3z" id="path1255"/><path class="st10" d="M158.1 328.7c-1.1 1-3.7 1-5-.2-1.7-1.4-2.1-3.6-1-5.2 1.2-1.9 4.5-1.4 5.9.2 1 1.2 1.9 3.8.1 5.2z" id="path1257"/><path class="st6" d="m348.3 430.2 20.5-8.5.8 9s-4.2.5-21.3-.5z" id="path1259"/><path class="st3" d="m368.4 411.4.2 1.6-13.2 1.1-5.3.5s.1-2 1-2.1l6.7-1.3 4.2-.8v-6l1.4-.1.7 4 4.2-.9.7 3.4zm392-.6 25-29.2 3.7-1.4-.3-1.2-3.6.6 3.5-4.8-1-.6-4 4 .6-5.2-1.4-.1-1.8 6.4-3.3-2.6-1 1 3.5 4.3-20.8 26.8zm-19.2-1.2-1.1 1.3-1.5-1.3-.4-.3-24.2-21.6-3.6-2.6.6-1.2 3.3 1.5-2.6-4.9 1.2-.7 3 4.2-.4-5 1.3-.3 1.2 6 2.7-2.2.8.8-2.3 3.6 4.5 4.6 2.4 2.5 13.8 14.2z" id="path1261"/><path class="st5" d="m733.5 422.6-.3 3.2-2.8.3 1-1.2.2-3.3zm11.3-12.3-1.9 14.6-2.5.3c.8-7.5 1.4-16.4 1.4-16.4zm-6.9 17.3 1.2-12.1-3 3.8-.9 8.5zm7.1-.4c.4-2 .7-4.3 1-6.9l.3-2c.8-6.9 1.4-14 1.4-14l6-7.4-3.4 26c0 .8 0 1.3-1.2 1.5h-1.3l-.3 2.7zm-172.2-8.4-4-19.4-4 7.8c1.2 3 2.6 7 3.8 11.8zm-6.6 2.4a89 89 0 0 1 2 12.3l-4.1.3c-.5-4.6-1.4-8.7-2.4-12.2z" id="path1263"/><path class="st3" d="M600.5 446.8c-1.3.5-3.8-1.2-3.8-1.2l-9.3 4.8-2.2 1a91.7 91.7 0 0 1-2.2 1.2c-1.4.5-2.4.1-2.7-1l-2.1-9-1.2-5.2 1.3-.4 1.9 5.4 2.5 7.2 15-8.7c2.3 2.4 2.8 6 2.8 6zm-34.2-8.8-2.7 6.1-10.7 24.6s-4.5-4.4-5.2-5.3c-.6-.8 4-.5 4-.5l9.5-18.5 3.3-6.3z" id="path1265"/><path class="st5" d="M553.7 427.8c.5 1.8 1 4 1.3 6.6l-4.5.5 1.5-2.8-1.2-4zm10.2-14.7a94.5 94.5 0 0 1 1.8 6h-4.8l-2.3-6z" id="path1267"/><path class="st11" d="m529.3 418.8 9 7.5 1.7 13-9.2-6" id="path1269"/><path class="st12" d="m529.3 418.8 9 7.5.4 3.4-9-6.8z" id="path1271"/><path class="st11" d="m536.3 436.9 2.7 11.6m1-9.1.9 6m-.9-.1-.2-1.3 1 1.5zm-6.7-17.8v5.2s1.8 1.2 2-.8c.2-3-2-4.4-2-4.4zm-2.9 2.2 1.2.9m-1.5-4.1 1.5 1" id="path1273"/><path class="st3" d="m557 416-.7 1.5-1.9-2-1-1-18.7-19-3.9-1.4.2-1.8 1.6-3.7c.2-.3.6-.6 1.2-.3l4.4 2.2c.5.3.5.7.4 1.3l-.6 2.1 6.4 7.5 2 2.4 8 9.2zm-174.3-2.2-35.3 13.7-2.7-3.4-1.2 1 2 3-4.6 1.2s.7 1.3 1.4 1.7c.7.3 4.4.7 4.4.7l1.6-1.5 32-13.3zm-6.8 51.5-5.4-13.9c-.4-1.3 0-1.8.4-3l3.6-7.7 3-6.3 2 .1-.9 2.3-1.5 3.9-3.9 9.6 7.6 18.1h-8.1c0-1.3 3.2-3.1 3.2-3.1zM239.4 345.8l26.8 20.3-10.8 7.5s-1.6-2-2.5-2l-3.3-.3-.6 2.1h-1.6l2.6 9h3.8l.3-2c.8 0 1.5-.1 2-.4l13.5-12.2c1.3-1.3 1-2.3-.8-3.4l-30-20.8zm-114.2-11.4s-33.4 17.5-35.5 18.8c-1.5 1-1.2 2 0 2.9s38.7 18.2 39.6 18.6c.3.1 1 0 1.7-.2l.2 1.9 5.5-1-2.4-8.5-2 .3-.2-1.5s-2.5-.5-3.6-.4c-1.1.1-1.2 3.9-1.2 3.9l-9-4-24.7-10.9 30.3-17 1.8-1zm49.4 47.4-.4 2.3-1 5.8-11.6 72c-.2 1.3-.3 2 1.8 3 2 1.2 2.8 3.8 2.8 3.8h-12l16.6-78.8 1.7-8.2zm63-2-2.7 14.7-.4 2.2-4.7 26.7c0 .8.1 1.4 1.5 1.8 1 .2 3 .6 3 2.4v.5l-8.4-1-2.7-.4 9.6-44.3.2-1.3-26.7 2.9-4.9-.3 32.8-6.8c2-.4 3.8.2 3.3 3z" id="path1275"/><path class="st4" d="M261.6 468.7h-46.8s1-12.1 1-15v-9.6l.1-3.8.2-9.6v-4.8l19.7 2.4c1.5.1 23-1.6 23-1.6l.3 3.7.3 4.6 1 16 .2 2.5z" id="path1277"/><path class="st11" d="m130.9 322 2.7 3m-2.5-.3 2.5-2.3m8.6 2.2 3 .3m9.8-1 .6 3.7m-2.3-2 4 .3" id="path1279"/><path class="st10" d="M182.4 362.6a21 21 0 0 0 5.8 10l-.6 3.3 2.3.6.4-2.3a9.1 9.1 0 0 0 6.5 1.4c5.1-1.1 6.8-9.7 4.5-18.6-.4-1.6-.8-3-1.4-4.4l-1-2.2c-1-1.9-2.3-3.5-3.7-4.7l.6-3-2.2-.7-.4 2.3a7.9 7.9 0 0 0-5.6-.9c-3.7.8-7.5 6.8-5.9 16.1zm2-2.6c-2-8.8 1.2-13.5 4.3-14 1.4-.3 2.8 0 4 .8l-4 22.6a21.4 21.4 0 0 1-4.3-9.4zm11.5 12.8c-1.5.3-3.4-.2-5.1-1.4l4-22.9c1.7 2 3.2 5.2 4.1 9 1.8 7.5 1 14.4-3 15.3z" id="path1281"/><path class="st3" d="m364.3 454.9 5.3 13.5h-8.4c.2-1.8 3.8-2.6 3.8-2.6l-6-15.4c-.4-1-.2-1.5.3-2.4l4.6-7.1 4.4-6.8h1.8l-.8 1.5-2.7 5.2-4.5 8.6 1 2.8z" id="path1283"/><path class="st5" d="m753.6 432.5 3.7-.2 10-.8c1.4-.1 2.4-.7 2.7-1.6l-17.4-4.7c-.2 1.6-2.5 1.7-2.5 1.7L727 428c0 .4.3.7.8 1l13 3.8c.6.2 1 .3 1.4.2l4.5-.2c2 0 4.5-.2 7-.4z" id="path1285"/><path class="st3" d="M780 444.4c-1.2-.2-3-2.8-3-2.8l-17 3c-1 .2-1.6-.4-1.9-1l-2.6-6.8-2.4-6.1h1.3l3.2 6 2.8 5.2 19.3-4.9s.5 1.4.8 3.2c.3 2 .3 4.2-.4 4.2zm-35.3-12.8-2.5 6-12.9 31.1s-3.8-1.9-6.2-5.6c0 0 2.4-.6 4.5.3l12.4-25.7 3.7-7.8z" id="path1287"/><path class="st4" d="M234.4 342.8c.2.3.3.7.3 1 0 1.5-1 2.2-2.4 2.1-1.2 0-3-1-3.1-2.5l.1-1.2c.3-.8 1.1-1.2 2.2-1.2l.9.1 4-5.7-1.2-4s2.5.2 3 1.2c.6 1 0 4.6 0 4.6l.8 3c.1.6-4.6 2.6-4.6 2.6z" id="path1289"/><path class="st10" d="M229.3 342.3c.3-.9 1.1-1.3 2.2-1.3l1 .1c1.1.4 2.1 1.5 2.2 2.8 0 1.4-1 2.1-2.4 2-1.2 0-3-1-3.1-2.5l.1-1.1m-92.6-8.8c-.3-.3-.7-.5-1.2-.6-.7-.2-1.3-.2-1.8 0-.6.3-1 .9-1 1.4-.5 1.8 1 3.1 2.5 3.1 1.7 0 2.2-1 2.3-1.7 0-.8-.1-1.6-.8-2.2z" id="path1291"/><path class="st3" d="m579.4 420.2-33.9 2.7-6.4 1.2-.3-1.2h-1.5l-.1-2v-1.7l4.4.1V418l-1.8-.4 1.7-1.7s3 1.1 3.3 1.8l.4 1.9 35.7-1z" id="path1293"/><path class="st13" d="m174.6 381.8-.4 2.3-2.1 13-3.9 5 4.3-20.4z" id="path1295"/><path class="st14" d="m351.5 414.6 5.4-.5c-1 1-2 2-3.4 2.6-10 5-16.2 4-19.7 11.3-5.3-1.2-10.1-2.7-10.1-2.7 4.7-6.8 12.5-6.2 17.2-7.1 5.4-1 8.4-1.8 10.6-3.6zm7.6-3.6-3.6.6c2.7-3.1 3.4-5.7 3-9.8-.8-9.8-11.6-11.4-11.6-11.4s-1.8-2.7-.6-9.5c0-.6.2-1.2.4-1.8.8-2.9 2.1-4.8 3.2-5.9.9-1 1.6-1.3 1.6-1.3h.2c.8.4 3.1 2.2 2.4 10.6-.3 3.5-1.8 6.3-1.8 6.3s6.3 3.2 8 10.3c1 4.1.5 8.5-1.2 11.9z" id="path1297"/><path class="st4" d="M345 350.7c-9.1-6-19.3 7.5-21.9 21.9-1.6 8.9 0 20 3.8 26.8.4.6 1.4.1 1.2-.6-2-5.1-4-14-1.5-25.4 2.5-11.7 8.1-18.2 12-17.7 7 1 3.4 22.3 3.2 24-.6 3.3.3 5.3 2.6 6.3 3.6 1.5 6.1-2.8 6.6-5 2-10.5 1.8-25-6-30.3z" id="path1299"/><path class="st14" d="M378.8 390.4c-5 1.4-16.5 0-16.5 0l.5-2s7.6 1.7 16 2z" id="path1301"/><path class="st13" d="m206.3 384 26.7-3-.3 1.4-9.5 44.3 2.7.3 8.8-46.4a1 1 0 0 0-1-1zM370 434.2l-.8 1.5-2.7 5.1h-2.7l4.4-6.7zm9.4.3-.9 2.3-1.5 3.9h-2.6l3-6.3zm-21.7-23.3-2.4 3-5.3.4s.1-2 1-2.1l6.7-1.3zM566.3 438l-2.7 6.1-2.4.3 3.3-6.3zm13.9 4.4-2 .2-1.2-5.2 1.3-.4zM557 416l-.7 1.5-1.9-2-1-1 1-1.5zm200.6 20.6-2.1.2-2.4-6.1h1.3zm-12.9-5-2.5 6-2.2.1 3.7-7.8zm-3.5-22-1.1 1.3-1.5-1.3-.4-.3 1.7-1z" id="path1303"/><path class="st5" d="M596.9 437.3c.1-1.4-.8-2.8-.8-2.8l-17.1-1.8c.3 1.2-.1 2.7-2 3l-1.1.2-2.2.1-.2-3 2.3-.2-2.6-12-4.1.2c1 4.6 1.8 9.7 2 15.2l-9.5.7a67 67 0 0 0-2.7-15h-1.7l-1.5 3 .9 3.4.4 2.2 1 6.6-4.3.3-6.7.5c.4.6 1 .9 1.6.9l15.2.5h4.4l9-.5 3.8-.2a553.4 553.4 0 0 0 15.9-1.3zm-367.6 31.4h-14.5s1-12.1 1-15v-9.6l.1-3.8.2-9.6 12 1.2s-.1 15.9 0 18.7l1.2 18.1z" id="path1305"/></g><g id="sparkle_fill" transform="translate(-36 -223.6)"><path class="st10" d="m92.1 397.6-2.1-3.8 3.7 2.3 3.8-2.8-2.3 3.9 2 3.2-3.8-1.6-3.3 2.3z" id="path1308"/><path class="st6" d="m112.4 393.5 3.9-3-5-2.7z" id="path1310"/><path class="st9" d="m102.3 406.4 4.3-.6 2.3-4 5.6-1.4 1.2-2.5 2.5 1.2-1.7 3-5.2 1.4-2.6 3.8-5.7 1.4z" id="path1312"/><path class="st6" d="m104.3 430.7 2.6-1.5 1.8 3.7-3.3 1.9zm-53-41.2 6.5-1.2-2.7 5.3z" id="path1314"/><path class="st9" d="M78.4 392v-5.2l2.8-.5.2 4.8z" id="path1316"/><path class="st6" d="M135 386c-1.4-1.9.8-3 2.6-1.7s-1.4 3.6-2.7 1.7z" id="path1318"/><path class="st10" d="M139.7 389.7s0 3.2-.2 4.3c-.4 1-1.5 1.6-2 2.7-.6 1-.2 6.6-.2 6.6l2.2.4-.1-6.4c-.2-.8 2-2.5 2.3-3.7.2-1.1.2-4 .2-4z" id="path1320"/><path class="st6" d="m177.8 404 5.4 2-.4-6z" id="path1322"/><path class="st10" d="m192 394 .5-5.4 3 3zm-45-30.5-.8-2.1 2.8-2 1 2.8z" id="path1324"/><path class="st9" d="m140 350.6 3.5-1 2.6-3.8 4.1-1 2.6-2.9-2.3-1.4-2 2.2-3.5.8-2.7 3.9c-.9 1.3-4 1.3-4 1.3zm85.3 6.9-1.8-5 2.6-1.2 2.4 3.8z" id="path1326"/><path class="st10" d="M233 365.2v-4.8l2.5 3.7 4-.4-3.6 2.3.4 5.7-2.4-4.4-4.1-.2zM73 328.4l1.5 6.8 5.4.2-4.8 1.9-.7 5-1.5-4.2-4.2-1.1 3.3-1.4zm15.4 9.5c-.2-1.7 1.7-2.8 2.8-.6s-2.6 2.3-2.8.6z" id="path1328"/><path class="st6" d="m104.7 329.6-3.8-2.1 1.9-4 3.2 3z" id="path1330"/><path class="st9" d="m133.8 305.5.4 4.3 3.8-2.3z" id="path1332"/><path class="st10" d="m166.7 311.4 2.8-1.9-.6-5.4 2.5 4.3 4.4-.7-3.5 2.3 1.1 5-3.2-4zm21.3 6 2.1-3.2 1.9 3.2z" id="path1334"/><path class="st6" d="m217.5 315.3 2.7-.7 3.7 3.3 3-.8 3.3 2.4.3-2.3-3.4-2.8-2.7.8-3.1-3.2-4 1z" id="path1336"/><path class="st10" d="M238.5 317.4c-.4-2.2 2.3-3 3.3-.3 1 2.6-2.9 2.5-3.3.3z" id="path1338"/><path class="st6" d="m246.8 341-1-2.5 3.8-1.2.8 2z" id="path1340"/><path class="st10" d="m250.8 330.2 3.6-3.4-1.6-5.5 3.8 4.7 5.6-2.5-4.1 4.2 1.4 5.3-3.9-4z" id="path1342"/><path class="st6" d="m266.2 312.2 3.3-.5.4 3.5-2.9.7z" id="path1344"/><path class="st10" d="M271.2 322.4c-.9-1.7 2.6-2.9 3-.9.5 2-2.2 2.6-3 .9z" id="path1346"/><path class="st9" d="M263.9 334.8s1.8-1.1 2.2-1.8c.4-.8.8-2.9.8-2.9l3.5-1 1.3-2 2.7.7-1.6 2.2-3.8 1.4-1.1 2.7c-.3.7-2.8 2.4-2.8 2.4z" id="path1348"/><path class="st10" d="m279.6 330.4 1.5-4-2.5-3.2 3.5 1.6 3.3-3.2-1.4 3.9 3 3.4-4.4-1.7z" id="path1350"/><path class="st6" d="M195.7 401s3.6-1 4-2.6c.7-2.4 1.7-4.9 3.5-5.3 1.8-.4 3.5-.5 4.5-.6.9-.1 4-3.7 4.6-4.2a17 17 0 0 1 3.6-.8l.5 2.1-3.1 1c-1.4.3-3.3 2.6-4 3.4-.6.9-4.4.4-5.3.9-1.2.6-2.5 4.1-3 5.3-.5 1.2-4.2 2.6-4.2 2.6z" id="path1352"/><path class="st10" d="M123.6 401.4c.6 1.4 2.4.6 3.1-.6.4-.7-.5-2.2-2-1.9-1.6.4-1.3 2-1 2.5z" id="path1354"/><path class="st9" d="M75.2 425c.2.9.4 1.8 2.5 1.8 2.2 0 2.3-2.6 1.5-3.3-1.5-1.2-4.2.2-4 1.4z" id="path1356"/></g><g id="sparkle_strokes" transform="translate(-36 -223.6)"><path class="st11" d="m92.1 397.6-2.1-3.8 3.7 2.3 3.8-2.8-2.3 3.9 2 3.2-3.8-1.6-3.3 2.3zm19.5-7.6.8 3.5 3.9-3-5-2.7m-9 18.6s3.8.2 4.3-.6 1.5-3.6 2.3-4 5.2-1 5.6-1.5c.4-.4 1.2-2.5 1.2-2.5l2.5 1.2-1.7 3.1c-.5.8-4.1 1.2-5.2 1.4-1.1.2-1.8 2.5-2.6 3.8-.8 1.3-5.7 1.4-5.7 1.4zm21.3-5c.6 1.4 2.4.6 3.1-.6.4-.7-.5-2.2-2-1.9-1.6.4-1.3 2-1 2.5zM75.2 425c.2 1 .4 2 2.5 2 2.2 0 2.3-2.7 1.5-3.4-1.5-1.2-4.2.2-4 1.4zm29 5.8 2.7-1.5 1.8 3.7-3.3 1.9-.8-2.7m-52.1 9.2 5.3 5.2m-2.4-5.6-1 5.8m-1.7-2.5 5.5-.7m-6.9-54 6.5-1.2-2.7 5.3-2.6-2.7m25.9 1.1v-5.2l2.8-.5.2 4.8zm42.5-11.3 2.8 6m-.4-6-2.3 5m-1.2-2.5h4.9m10.2 2.8c-1.2-1.9.9-3 2.7-1.7 1.8 1.3-1.4 3.6-2.7 1.7zm4.8 3.7s0 3.2-.2 4.2c-.4 1.1-1.5 1.7-2 2.8-.6 1-.2 6.5-.2 6.5l2.2.5-.1-6.4c-.2-.8 2-2.5 2.3-3.7.2-1.1.2-4 .2-4zm38.1 14.3 5.4 2-.4-6zm14.2-10 .5-5.4 3 3-1.8 1.6m2 7.7s3.6-.9 4-2.5c.7-2.4 1.7-4.9 3.5-5.3 1.8-.4 3.5-.5 4.5-.6.9-.1 4-3.7 4.6-4.2a17 17 0 0 1 3.6-.8l.5 2.1-3.1 1c-1.4.3-3.3 2.6-4 3.4-.6.9-4.4.4-5.3.9-1.2.6-2.5 4.1-3 5.3-.5 1.2-4.2 2.6-4.2 2.6zM147 363.5l-.8-2.1 2.8-2 1 2.8zm-7-13s3-.6 3.5-1c.7-.4 1.5-3 2.6-3.7 1-.6 3.4-.6 4.1-1 .7-.5 2.6-2.9 2.6-2.9l-2.3-1.4s-1 1.4-2 2.2c-1 .9-2.8.6-3.5.8-.7.2-1.9 2.6-2.7 3.9-.9 1.3-4 1.3-4 1.3zm85 6-1.5-4 2.7-1.3 2.3 3.9-1.5 1.1m6 9v-4.8l2.5 3.7 4-.4-3.6 2.3.5 5.7-2.5-4.4-4.1-.2M72.1 334l1-5.7 1.4 6.8 5.4.2-4.8 1.9-.7 5-1.5-4.2-4.2-1.1 2.3-1m17.4 2c-.2-1.8 1.7-3 2.8-.7s-2.6 2.3-2.8.6zm16.3-8.4-3.8-2.1 1.9-4 3.2 3zm29-24.1.5 4.3 3.8-2.3zm33 5.9 2.8-1.9-.6-5.4 2.5 4.3 4.4-.7-3.5 2.3 1.1 5-3.2-4zm21.3 6 2.1-3.2 1.9 3.2zm17.5-5.7v8m-2-6 4.6 4.5m-4.7-.7 4.1-3.9m10 1.7 2.7-.7s2.8 3.6 3.7 3.3l3-.8 3.3 2.4.3-2.3s-2.5-2.9-3.4-2.9c-.5 0-2.6.9-2.6.9l-3.2-3.2-4 1zm21 2.1c-.4-2.2 2.3-3 3.3-.3 1 2.6-2.9 2.5-3.3.3zm8.3 23.6-1-2.5 3.8-1.2.8 2zm4-10.8 3.6-3.4-1.6-5.5 3.8 4.7 5.6-2.6-4.1 4.3 1.4 5.3-3.9-4zm15.4-18 3.3-.5.4 3.5-2.8.7-.8-2m4.9 8.5c-.9-1.7 2.6-2.9 3-.9.5 2-2.2 2.6-3 .9zm4.4-6.8 2.9 3.5m-.7-3.6-1.4 3.8m-12.5 15.5s1.8-1.1 2.2-1.8c.4-.8.8-2.9.8-2.9l3.5-1 1.3-2 2.7.7-1.6 2.2c-.6.6-3.8 1.4-3.8 1.4l-1.1 2.7c-.3.7-2.8 2.4-2.8 2.4zm15.7-4.4 1.5-4-2.5-3.2 3.5 1.6 3.3-3.2-1.4 3.9 3 3.4-4.4-1.7z" id="path1359"/></g><g id="fan_motion_lines" transform="translate(-36 -223.6)"><path class="st11" d="M299.7 371.5a27 27 0 0 1 15.4 4m-65.6-13.1c1.9.7 4 1 6.3 1 7.7-.1 13.7-1.6 22 3a29.8 29.8 0 0 0 17.3 5.2m-59.8-18.3c1 .3 2.2 1 3.3 1.9 2.3 2 4.6 4 7.4 5.6m35.8-6.1c5.5 0 8 0 15.3 4 8.6 4.6 13.8 5.2 18.5 3.5m-62.6-14s4.9-1.1 9.6 1.7c4.8 2.8 8 4.6 16 4.8m29.8-5.8c1.2.5 2.5 1.1 3.8 2m-52.4-11.4c1.3.6 2.9 1.2 4.5 1.4 5.5 1 10.3-1.9 17 1 6 2.6 8 5 14.3 5 3.5 0 6.4.1 9.4.8m-8.1-7.5s5.4-.7 10.6 1.9c5.3 2.6 11.7 6.3 18.6 4.4m-57 30.6s1.6 2.5 7.1 2.5 7.6-1 15 2.8c6.5 3.3 10.7 1.3 15.6 2.3 3.4.7 6.8 3.2 6.8 3.2m-31 2.6c4.8 3 10.1 3.9 15.8 3.2 6.2-.8 11.7-.7 16 3m-57.8-13s2.8 3.8 10.5 3.3c6.5-.4 9.3.1 12.2 1.6m12.8 10.5s3.4 2.3 8.4 1.6c5-.6 8.3-.5 10.4 1" id="path1362"/></g><g id="strokes" transform="translate(-36 -223.6)"><path class="st11" d="m579.4 420.2-33.9 2.7-6.4 1.2-.3-1.2h-1.5l-.1-2v-1.7l4.4.1V418l-1.8-.4 1.7-1.7s3 1.1 3.3 1.8l.4 1.9 35.7-1m178.6-9.8 20.8-26.8-3.5-4.2 1-1 3.3 2.5 1.8-6.4 1.4.1-.7 5.2 4-4 1.1.7-3.5 4.7 3.6-.6.3 1.3-3.6 1.3-25 29.2M726 394l15 15.5m-2.5 0L714 387.8l-3.5-2.6.5-1.2 3.3 1.5-2.6-4.9 1.2-.7 3.1 4.2-.5-5 1.4-.3 1.1 6 2.7-2.2.9.8-2.4 3.6 4.5 4.6M772 439l-11.6 3-6-11.3" id="path1365"/><path class="st11" d="m753 430.7 5.1 12.8c.3.7.8 1.3 2 1.1l16.9-3s1.8 2.6 3 2.8c.8 0 .8-2.2.5-4.2-.3-1.8-.8-3.2-.8-3.2l-3.9 1m-10.5-25.4-1.7-5.5" id="path1367"/><path class="st11" d="m757.3 432.3 10-.8c2.1-.2 3.3-1.4 2.7-3.4l-3.3-11m-20.1 15.8c2 0 4.5-.2 7-.4m-2.6-35.8-5.7 7.3s-.3 6-2.4 21c-1 0-1.4 0-2.5.2l1.4-16.4-8 10-.6 7-2.8.3 1-1.2.3-3.4-4.5 5.7c-.5.6-.3 1.5.5 1.8 1.2.5 12.3 3.7 13 4l1.4.1m20.2-30.2c-1.7-5.5-3-10-3.4-10.6-.9-2-2.3-2.2-3.6-1l-2.4 3" id="path1369"/><path class="st11" d="M746 420.3c-.3 2.6-.6 5-1 7-2.2 0-4.7.2-7.1.4l1.2-12.2-3 3.8-.9 8.5c-3 .1-5.7.4-5.7.4m26.8-35.8-3.5 32.2c-.2 1.3-.8 2-2 2.2l-3.3.3.3-2.6 1.3-.1c1.1-.2 1.2-.7 1.2-1.5l3.4-26-6 7.4s-.6 7.1-1.4 14m-7.6 22 5-10.4m1 1.7-15.4 37.1s-3.8-1.9-6.2-5.5c0 0 2.4-.7 4.5.3l9.7-20.3M557 430.5l1 6.6-4.3.3m3.5-15.4-1.6 3 1 3.3M569 421c1 4.5 1.7 9.7 2 15.2l-9.5.7a67 67 0 0 0-2.7-15m14-3-4.1-19.5-4 7.8c1.2 3 2.6 7 3.8 11.8m5 17v-3l2.2-.2-2.6-12.1m3.1-.2 2.7 12.2c.3 1.2-.1 2.7-2 3l-1.1.1m-5-40 5 23m1.3 20-9 .6m14.9-28.2a7705.6 7705.6 0 0 1 14.5 23c.8 1.3.7 3-1.5 3.3-1.2.2-8.3.7-15 1m-4.7-37.8 3.7 5.8" id="path1371"/><path class="st11" d="M565.7 419c-1.3-5-2.9-9.1-4-12l6.1-11.7c1.2-2.1 3.2-2.5 4.7-.6l2 3m-12.8 24c1 3.4 2 7.5 2.4 12l4-.2a88.8 88.8 0 0 0-1.9-12.2m-10.9-2 3.3-6.2 2.3 6m26.5 31.3 9.3-4.8s2.5 1.7 3.8 1.2c0 0-.5-3.5-2.8-5.9l-15 8.7-4.4-12.6" id="path1373"/><path class="st11" d="m577 437.4 3.3 14.3c.3 1 1.3 1.4 2.7.9l2.2-1.1m-19-13.5L553 468.7s-4.5-4.4-5.2-5.3c-.6-.8 4-.5 4-.5l12.8-24.8m-24.7-20.5c-1-.4-2.5-1-4-2-1-.8-2.9-1.8-4.5-3.1-1.6-1.4-3-3-3.2-4.7-.2-2.5 2.3-4.2 4.2-5l-.7 7m5.6 11.2 2.8.2m-1.2 1.7 2-.3" id="path1375"/><path class="st11" d="M563.8 439.3a960 960 0 0 1-15.2-.5c-1 0-2.8-1-1.6-3.5l3.8-7.3 1.2 4.1-1.5 2.8 4.5-.5c-.6-4.2-1.5-7.5-2.4-10l1.2-2.2m-7.7 27.2a64.8 64.8 0 0 1-2.7-7c-.8-2.8-2.2-18.7-2.2-18.7" id="path1377"/><path class="st11" d="m528.1 407.8 3 28.2s2.3 5.6 5.5 9.9c3.3 4.3 12.8 10.9 12.8 10.9l-2.1-4.7" id="path1379"/><path class="st11" d="m529.3 418.8 9 7.5 1.7 13-9.2-6" id="path1381"/><path class="st12" d="m529.3 418.8 9 7.5.4 3.4-9-6.8z" id="path1383"/><path class="st11" d="m536.3 436.9 2.7 11.6m1-9.1.9 6m-.9-.1-.2-1.3 1 1.5zm-6.7-17.8v5.2s1.8 1.2 2-.8c.2-3-2-4.4-2-4.4zm-2.9 2.2 1.2.9m-1.5-4.1 1.5 1m14.9-23.7L557 416m-2.6-.4-19.8-20-3.8-1.5.2-1.8 1.6-3.7c.2-.3.7-.6 1.2-.3l4.4 2.2c.5.3.5.7.4 1.3l-.6 2.1 6.4 7.5" id="path1385"/><path class="st11" d="m531 392.3 3 1.2-.4 1.6m3.7-5-3 1.1.3 1.2 2.1-.1" id="path1387"/><path class="st11" d="m531.9 390.3 2.5 1.5.2.6-.5 1.1m-1.5-4.8 3 2" id="path1389"/><path class="st12" d="m534 389.5 2.7-7.7 1.5-2-.3 2.5-2.9 8.2zm-1.8 5-2 5.4 1.3.5 2-5.4z" id="path1391"/><path class="st11" d="m741.8 408.8 3 1.5m-13.1 11.3 1.8 1M550.8 428l2.9-.3m4.9-14.6h5.3m-271.5 55.6H60.3m570.1 0h-328m332.7 0h113.5M349.4 351.9c2.8 3.4 5.3 9.1 4.6 18.7a71 71 0 0 1-6.7 27.6 18 18 0 0 1-6.6 6.8m-3.4 1.5a19 19 0 0 1-7 .5s-6.7-.7-9.8-7.7-3-22.9 3.5-38.3c6.5-15.4 18.8-13.8 19.6-13.5.3.2 1.7.7 3.4 2" id="path1393"/><path class="st11" d="M355.6 411.6c4.1-4.7 2.8-10 2.4-12.4-1-5.3-7.8-7.8-7.8-7.8M369 381l5 2m-6.5 1.4 5.6 1.6m-6.3 2.4 6.2.8m-35.6-2.4c-3.2 8.5-7.7 15-12.3 14.3-4.9-.7-6.2-8.7-6.6-15.9m14.6-33.3c1.8-.8 4.6 0 6.1 3.7a49.6 49.6 0 0 1-.5 27m8.4-17.8c0 4.1-.4 9-1.7 14.5-4.6 20.8-14.2 27.8-14.2 27.8m12.4-59.6s2.9 5 3.4 14.4m-23.8 13c.8-3.2 2.8-5.4 4-5.1 1.8.4 1.8 3.4 1 6-.8 2.5-2.4 4-3.8 3.6-1.2-.3-1.7-2.3-1.2-4.4z" id="path1395"/><path class="st11" d="M333.8 371.5c-.2 1.4-.4 2.8-.8 4.2-2 7.3-4.4 10.5-6.4 11.8m-2.8.8a2.2 2.2 0 0 1-.5-.2c-1.4-.7-3.4-2.9-2-13.2.8-5 4.4-13.5 8.4-13.6 2.7-.1 4 3.2 4.2 7.4" id="path1397"/><path class="st11" d="M326.2 379s3.2 9.2 8.7 15.6c3 3.5 7.4 5.7 10.6 6.2m-17.2-30.1s4.7-7.3 12-10.8c3.7-1.8 9-2.3 12.6-1.2m-29 2.6c-.3 3-.4 7.2.3 11m-.9 6s-2.2 5.2-3 10m69.4 46.5-36.9-1.2c-.8 0-2.5-.4-3.2-1.5m36.3-29.9c5.1 11.1 13 28.6 13.3 29.6.6 1.3.7 3.1-1.3 3.2h-5.7m-24-29.9 8.7-11.7c.8-1 2.9-3.5 5 .2l2.5 5.4m-34.3 15.6 18.5-1.6-.2-1.6.6-.6-.7-3.4-4.1.9-.8-4H362v6.1l-11 2c-.7.2-1 2.2-1 2.2zm-16.4 4.7c5.4-1 13-1.4 18.6-4.9M338.6 429c-9.9-1.7-14.9-3.6-14.9-3.6s1.7-3.7 7.3-5.4" id="path1399"/><path class="st11" d="M378.8 384.2c1.7 1.4 2.6 2.8 2.3 4.2-.7 2.7-6.3 2.7-9.3 2.7s-9.5-.8-9.5-.8 2.3 7 4.3 17.4m-2.3-31a84.5 84.5 0 0 1 13 6.5m-21.3-9.6 5.7 2m7.3 35.2-1.5.4m1.1-2-1.8.4m15.9 4.2-35.3 13.7-2.7-3.4-1.2 1 2 3-4.6 1.2s.7 1.3 1.4 1.7c.7.3 4.4.7 4.4.7l1.6-1.5 32-13.3" id="path1401"/><path class="st11" d="M368.8 421.6c.4 3 .7 6 .8 9 0 0-10.6.5-21.3-.4m19.3-17.2.7 4.3m8.8 3-.8 9.6c-.2 1.8-2.3 2.7-2.3 2.7m5.2-38.4-1.7 21.6m-3 1.2 1.8-18.7-5.8 7.5-.3 11m1.4 13s1.8-.4 2-2l.7-8.4" id="path1403"/><path class="st11" d="M369.3 426.2s10 1.4 15.6 21.8c4.9 17.6 19.5 21.5 33.1 19.8 5.8-.8 11.5-1.4 17.5-1.1 11.2.5 20.5 3.2 23.3.6 4.2-3.9 3.1-14.1 3.1-14.1" id="path1405"/><path class="st12" d="M462 448.6c2.3 0 3.1 1.8 3 3 0 1.4-1 3.2-3.1 3.1-2 0-3-1.6-3-3.3 0-1.6 1.2-2.8 3.2-2.8z" id="path1407"/><path d="M458.5 444c0-2.4 1.7-3.3 3.3-3.2a3 3 0 0 1 2.8 3.2 3 3 0 0 1-3.1 2.8c-1.5 0-3-1.2-3-2.8z" style="fill:none;stroke:#2f1d4a;stroke-width:.75;stroke-miterlimit:10" id="path1409"/><path class="st11" d="M461.4 445h.2m-1.2-2.4.1 1m1.8 0 .1-1.1m-5.8 10.4.2 3.4h10l1.4-17m-1.5-1.2-11.1.3.8 12.3m-93.2 1.5-1.1-2.8 7.2-13.7" id="path1411"/><path class="st11" d="m368.3 434.1-9 14c-.5.8-.7 1.3-.3 2.3l6 15.4s-3.6.8-3.8 2.6h8.5l-5.4-13.5m13.2-20.4-6.6 14c-.5 1-.8 1.7-.4 3l5.4 13.8s-3.1 1.9-3.2 3.1h8.1l-7.6-18 5.4-13.6m-132.9-69.2 4.3 14.8c.4 1.4 1.2 4.7-3.8 4.4l-7.4-.6M238 341l6.9 23.7m-89 15.9 76.1 5.2m-107.2-53 12 43.2a5.2 5.2 0 0 0 4.6 3.6l10.4.7m95.6-6.8h4.8" id="path1413"/><path class="st11" d="m249 373.5.6-2.1 3.3.2c1 .1 2.5 2 2.5 2l10.8-7.4-26.8-20.3" id="path1415"/><path class="st11" d="m246.8 349.2 22 15.2c1.7 1.1 2 2.1.8 3.4a504.4 504.4 0 0 1-13.5 12.2c-1.5 1-4.9 0-4.9 0m-12.4-36.4 6.6 4.6" id="path1417"/><path class="st11" d="M250 382.4h3.8l.3-2m-135.7-15.2 8.9 4s0-3.8 1.2-3.9a19 19 0 0 1 3.6.4l.2 1.2m-28-7.9 12 5.4m7.6-27.2-30.4 17.1 8.1 3.6m27.7 9.6 5-.6" id="path1419"/><path class="st11" d="M125.2 334.4s-33.4 17.5-35.5 18.8c-1.5 1-1.2 2 0 2.9s38.7 18.2 39.6 18.6c1 .4 4.5-1.1 4.5-1.1" id="path1421"/><path class="st11" d="m131 374.6.2 1.8 5.5-1m32.4 39.8 5-31" id="path1423"/><path class="st11" d="m172.5 381.7-18.3 87h12s-.8-2.6-2.8-3.7c-2.1-1.2-2-1.8-1.8-3.1 0-.7 3.7-22.9 7-43.4m66-21.8-4.8 26.7c0 .8.1 1.4 1.5 1.8 1 .3 3 .6 3 2.4m-32.9-44 32.9-6.7c2-.4 3.7.2 3.2 3l-2.5 14.6M206.3 384l26.8-3m0 0-9.9 45.7m37.4 26.8 1 15.2m-2.3-33.7 1.1 16" id="path1425"/><path class="st11" d="m202.8 428.9 13.4-3 19.6 2.4c1.5.1 23-1.6 23-1.6l.3 3.7m-66.7 38.3s2.2-13 2.3-14.3l.5-23.9 3-.6" id="path1427"/><path class="st11" d="m216 440.3.1-14.4m-1.3 42.8s1-12.1 1-15v-9.6m.4-13.5 12 1.3 30.6-5.2m-30.7 5.2s-.1 15.9 0 18.7l1.2 18.1M48 375.5s-2.9 1.4-8.4.9c0 0 2 3.8 10 3.5 8.1-.2 15.4-6.6 29.7-6.5 12.2 0 19.7 6.3 29.8 4 7-1.5 11.4-2.5 14.8-2.9m-36.8-30c4.8-1.1 9.4-1.8 13.3-3.2 8-3 19.5-13.1 22.3-16.5m-62.3 38.5c3.7-5 7.3-9.4 11.4-12.4 3.4-2.5 7-4 10.5-5.2" id="path1429"/><path class="st11" d="M44.6 378s4.8.5 10.4-7.3l3.6-5m59-32.8c2.7-.6 8.3-1 15 2.7" id="path1431"/><path class="st11" d="M133.7 333c-.6.2-1 .8-1 1.3-.5 1.8 1 3.1 2.5 3.1 1.7 0 2.2-1 2.3-1.7 0-.8-.1-1.6-.8-2.2m97.7 9.3s4.7-2 4.6-2.7c0-.6-.8-3-.8-3s.6-3.5 0-4.5c-.5-1-3-1.3-3-1.3" id="path1433"/><path class="st11" d="M232.4 341.2c1.2.4 2.2 1.4 2.3 2.7 0 1.4-1 2.1-2.4 2-1.2 0-3-1-3.1-2.5l.1-1.1" id="path1435"/><path d="M234.5 329c-.9-3.1-2.2-3.3-4.4-3.5-1.1 0-100.6-10.6-105-11.1-4.6-.6-4.4 3.5-4 5.4.2.3.7 2.2 1.5 5 0 0 6.5 3.3 11.1 8.1.5-.2 1.1-.3 1.8 0 .5.1 1 .3 1.2.6l92.6 8.7c.3-.8 1.2-1.2 2.3-1.2l.8.1 4-5.7-1.9-6.4zm-99.2-2.1c-1.1 1-3.8.5-5.3-.7-1.5-1.4-2.2-3.3-1.2-5 1.5-2.2 5-1 6.1.4 1.2 1.3 2.2 3.9.4 5.3zm11.4 1.2c-1.1 1-3.8.6-5.2-.5-1.6-1.3-2-3.6-1-5.2 1.4-2 4.6-1 5.8.4 1.2 1.3 2.2 3.8.4 5.3zm11.3.8c-1.1 1-3.7 1-5.1-.2-1.6-1.4-2-3.6-1-5.2 1.3-1.9 4.6-1.4 6 .2 1 1.3 1.9 3.8.1 5.2zm76.4 14 4.2.2-.6-2.1ZM130.9 322l2.7 3m-2.5-.3 2.5-2.3m8.6 2.2 3 .3m9.8-1 .6 3.7m-2.3-2 4 .3" id="path1437" style="fill:#2f1d4a;stroke:#2f1d4a;stroke-width:.75;stroke-linecap:round;stroke-linejoin:round;stroke-miterlimit:10"/><path class="st11" d="m161.7 370 15.2-5m-13.9-8.4 12.6.8m-17.3-13.9 16.7 7m-1.7-9.8 5.9 4.7m2 26.2-5.2 5.8m25.4-30.6 4.6-4m-1.4 10.3 16.2-7m-15 13 11.6-1m-11.4 6.4 9 2.1m-9 4.6 9.9 6.2m-33.5-14.8a21 21 0 0 0 5.8 10l-.6 3.3 2.3.6.4-2.3a9.1 9.1 0 0 0 6.5 1.4c5.1-1.1 6.8-9.7 4.5-18.6-.4-1.6-.8-3-1.4-4.4m-1-2.2c-1-1.9-2.3-3.5-3.7-4.7l.6-3-2.2-.7-.4 2.3a7.9 7.9 0 0 0-5.6-.9c-3.7.8-7.5 6.8-5.9 16.1m2.7.5c-2-8.8 1.2-13.5 4.3-14 1.4-.3 2.8 0 4 .8l-4 22.6a21.4 21.4 0 0 1-4.3-9.4zm11.5 12.8c-1.5.3-3.4-.2-5.1-1.4l4-22.9c1.7 2 3.2 5.2 4.1 9 1.8 7.5 1 14.4-3 15.3zm-132.4-2.3s4 .3 7.3-2.4c2.7-2.1 5-3.8 7.1-3.6m22 2.4c3.2.5 5.6 0 5.6 0M78 357.7s5.8-1.2 12.7 5.2c1.5 1.3 3 2.2 4.6 2.9m14.3-10.3s4 .4 7-1.3c2.8-1.7 5-2.7 7.2-2.7" id="path1439"/></g><g id="hanging_glyph_fill" transform="translate(-36 -223.6)"><path class="st7" d="M303.9 315h-.7l-2.5-.2-.7 1.2 3.5 1.4-4.5 3.5-8.4 3c-2.5.8-4.4-3.2-5.2-6.4-.8-3.3-1.1-8 .8-8.5l14.8-2.7s2.8 2.3 2.9 8.7z" id="path1442"/><path class="st4" d="M324.6 264.4h-14.2l-32.1-.2c-2.6 0-3.1 1.3-2.5 3.2l4 12.3 4.1 1.3-2.4 4 1.9 6 .8 2.5 1 3.1 2.3.8-1.3 2.3 2 5.8c.5.9 1.1 1 1.6.7l9.2-4.7 1.8-3 1.4 1.4 9.1-4.6 4.6-16.7 1.8-.3-3.5 14.5.6.7 6.7-3.5c.7-.5 1.3-1.3 1.6-2.3l2.6-14.8.7-3.7.4-2.4c.2-1.8-.5-2.3-2.2-2.3z" id="path1444"/><path class="st5" d="M293.4 290c3.3 1.7 6.6 4 9.4 6.6l3.8-1.9c-2.3-2-5.2-4.4-8.3-6.6zm20.1-2.7-2.1 7.7c-2-1.9-5.7-5-10-8.1l6.4-2.4zm-15.1-2.5.3.3 5.8-2.2-25.8-13 2.4 7a70.8 70.8 0 0 1 17.3 8z" id="path1446"/><path class="st4" d="M291.3 318.7c-.2-1.4-.5-3-1-4.2-1.2-3.8-2.7-6-4.1-5.5-2 .6-1.6 5.2-.8 8.5.8 3.2 2.7 7.2 5.2 6.3.6-.2.9-1.6.8-3.5l-.1-1.6z" id="path1448"/><path class="st3" d="M325.8 322.4c-.3 3.3-2.3 6.3-2.9 6-.5-.3-1.4-5.2-1.4-5.2l-12.5-9-.3 1c0 .6-2.1 4.3-2.6 4.9-.6.6-4.5 1.4-4.5 1.4l-2.6-.6 4.5-3.5-3.5-1.4.7-1.2 2.5.3c1 .1 3-1 3-1l1.5-5.5-1.1-8.7-.2-2.1 1.4-.7 1.4 5.9.8-2.7 6-21.7 1.7-.3-7.3 29.9 1 3.7 7.7 5.6 1.5 1z" id="path1450"/><path class="st3" d="M345.9 294c-2 .8-4.3 0-4.3 0s-10.3 8.8-11.1 9.4c-.9.6-1.7.8-2.6 0l-8.4-9-2.1-2.2 1.7-1 1 1 .4.4 9.1 7.8 12.1-11c4 2.2 4.2 4.6 4.2 4.6z" id="path1452"/><path class="st5" d="m315.3 288.2 2 1-2.6 1.3zm-33.8-3.2c1.9.5 5 1.6 8.4 3.2l.3.1 5.2-2-.7-.4A68.3 68.3 0 0 0 284 281z" id="path1454"/><path class="st6" d="m313.1 263-.3 6.1-.1 2-.5 9.2c0 1.3-.3 2.5-1.4 3l-28 10.7c-2.3.7-3-.7-3-2.2v-.3l.4-10v-1.7l3.8 1.2-2.5 4 1.9 6 25.8-9.9 1.2-16.7-14.1-.1 4.4-2.2-.6-4c-.1-1 0-1.3 1.1-1.3l.6-.2 1.4-.6v-24l3.3-5v27.9l2.4-.8c.7-.3 1.2 0 1.1.8 0 .9-.3 2.5-.3 2.5.5 0 .9.3.8 1l-.5 2.3 1.5.5c1.3.5 1.6.7 1.6 1.9z" id="path1456"/><path class="st3" d="m284 306.3-.8 3.1-5.1-.4v-2.7s-8.4-.6-9.1-.8c-.8-.2-1.1-.6 0-1.5l7.8-6.6 2-1.7 2-1.7c.5.2 1.1.3 2 0l-5.5 5.4-4 4 9 .8z" id="path1458"/><path class="st5" d="M293.7 297.5a38.7 38.7 0 0 0-6.6-3l-.6-2 3.4-1.2a46 46 0 0 1 10.9 7.2l-1.7 3c-1-1-2.2-2-3.4-2.7l-2-1.3zm-7.5 2.2 3 1 .9 2.5 4.3-2.2c-1-.8-2-1.5-3.1-2a32.9 32.9 0 0 0-3.8-1.6z" id="path1460"/><path class="st13" d="m282.7 294-5.4 5.4-.5-2 2-1.7 2-1.7c.5.2 1.1.3 2 0z" id="path1462"/><path class="st14" d="m281.5 285 1.9 6-3.6.9v-.4l.4-10v-1.7l3.8 1.2z" id="path1464"/><path class="st13" d="m309.2 303-1.5 5.6-1.1-8.7-.2-2.1 1.4-.7zm10.9-10.8-.6 2.3-2.1-2.3 1.7-1z" id="path1466"/></g><g id="hanging_glyph_stroke" transform="translate(-36 -223.6)"><path class="st11" d="m300.1 284.6-18.1 6.8m22.2-29.1 6.3 1.9-1.3 16.9-6.7 2.5" id="path1469"/><path class="st11" d="m312.8 269.1.3-6c0-1.2-.3-1.4-1.6-1.9a262 262 0 0 1-3.8-1.3m-27.5 21.6-.4 10c0 1.5.5 3.3 3 2.5l28-10.7c1-.4 1.4-1.7 1.4-3l.5-9.2m-23.3 1.1 19 9.2M278 266.7l8.7 4.3" id="path1471"/><path class="st11" d="M295.7 298.8c1.2.8 2.3 1.7 3.3 2.7l-9.2 4.7c-.5.2-1.1.2-1.6-.8l-2-5.7 3 1 .9 2.5 4.2-2.2c-1-.8-2-1.5-3-2a35.9 35.9 0 0 0-6-2.4l-1.1-3.2m2.3-.8.6 1.9c2 .6 4.3 1.7 6.6 3m-7.3-7.7-1-.4.2.7m25.7 5.2-9 4.6a43.8 43.8 0 0 0-12.4-8.6m11.6-4.4c4.2 3 7.8 6.3 9.9 8.1m-6.8-12.1-25.8-13 2.4 7a70.8 70.8 0 0 1 17.3 8" id="path1473"/><path class="st11" d="M293.4 290c3.3 1.7 6.6 4 9.4 6.6l3.8-1.9c-2.3-2-5.2-4.4-8.3-6.6m-15 2.8-1.8-6c1.9.6 5 1.7 8.4 3.3m-3.7 11.5 1.4-2.3m-6.1-12.5 2.5-3.9m12.5-16.8 8.8-4.3m-4.6 2-.6-3.8c-.1-1 0-1.3 1.1-1.3l7.7.5c.8 0 1.8 0 1.6 1l-.5 2.4" id="path1475"/><path class="st11" d="m301.2 256.8 7.7-2.7c.7-.2 1.2 0 1.1.8 0 .9-.3 2.5-.3 2.5zm2-14.4V232m0 24v-11.2m3.3-12.9v-5m0 28v-20m11.2 43.4-9 36.8c0 .7-2.1 4.4-2.6 5a18 18 0 0 1-4.5 1.4l-2.6-.6 4.5-3.5-3.5-1.4.7-1.2 2.5.3c1 .2 3-1 3-1l9.7-35.5m-37.1 17.2L269 304c-1.1 1-.8 1.3 0 1.5.7.2 9 .8 9 .8v2.8l5.2.3.8-3-1.6-2.2-10.2-.8m10.5-9.4-9.4 9.4" id="path1477"/><path class="st11" d="m282 307.7.3-1s7.2-.6 10.1 6.6m-14.4-5.6s-3.3 1.5-1 4.4c2.8 3.4 8 4 8 4" id="path1479"/><path class="st11" d="m286.2 309 14.8-2.7s2.8 2.3 2.9 8.7m-4.9 6-8.4 2.8" id="path1481"/><path class="st11" d="M291.4 320.3c0 1.8-.1 3.3-.8 3.5-2.5 1-4.4-3.1-5.2-6.3-.8-3.3-1.1-8 .8-8.5 1.4-.4 2.9 1.7 4.2 5.5a21 21 0 0 1 .9 4.2m24.8-33.5 4.4 2.2m-9.1-4.5 3 1.5m-.9 3-5.7-3m7 6.1 2.5-1.3-2-1" id="path1483"/><path class="st11" d="m325.7 272.9-2.6 14.8c-.3 1-1 1.8-1.6 2.3l-6.7 3.5-.6-.7m-1.1-28.4h11.5c1.7 0 2.4.5 2.2 2.3l-.4 2.4m-31 17.2-.7-.4a70.9 70.9 0 0 0-15-6.2l-3.9-12.3c-.6-2-.1-3.2 2.5-3.2 1.6 0 19 0 32 .2m-1.1 38.6-1.4-6m11.3 20.5-7.8-5.6-.8-3.7m-1.5 6 12.5 9s.9 5 1.4 5.2c.6.3 2.6-2.7 3-6l-5.3-3.8m-14-18.7 1 8.7" id="path1485"/><path class="st11" d="m317.4 292.2 10.5 11.2c.9.8 1.7.6 2.6 0l11.1-9.3s2.2.7 4.3-.1c0 0-.3-2.4-4.2-4.6l-12 11-9.2-7.8" id="path1487"/></g></svg>
