<svg width="534" height="237" fill="none" xmlns="http://www.w3.org/2000/svg"><path fill="#FAF9FB" d="M0 0h534v237H0z"/><path opacity=".5" fill="#FDC9D7" d="M94 22h9v76h-9zM93 131h11v76H93zM138 22h7v76h-7zM137 131h10v76h-10zM176 22h8v76h-8zM176 131h11v76h-11zM218 23h6v76h-6zM218 132h10v76h-10zM258 23h6v76h-6zM259 132h10v76h-10zM293 22h10v76h-10zM295 131h13v76h-13zM337 22h9v76h-9zM339 131h13v76h-13zM354 22h12v76h-12zM358 131h13v76h-13z"/><path d="M103.308 78.649V22.755M94 59.01V22.755M104.308 187.649v-55.894M93 168.011v-36.256M144.585 87.713V22.755M138.053 80.915v-58.16M146.585 196.713v-64.958M137.053 189.915v-58.16M184.372 78.649V22.755M175.574 80.915v-58.16M187.372 187.649v-55.894M175.574 189.915v-58.16M302.872 78.649V22.755M293.319 68.915v-46.16M307.872 187.649v-55.894M295.319 172.915v-41.16M345.872 48.649V22.755M337.319 80.915v-58.16M351.872 157.649v-25.894M339.319 189.915v-58.16M365.872 78.649V22.755M354.319 50.915v-28.16M370.872 187.649v-55.894M358.319 159.915v-28.16M223.936 70.702V23.511M217.872 71.457V23.511M227.936 179.702v-47.191M217.872 180.457v-47.946M263.936 70.702V23.511M257.872 71.457V23.511M268.936 179.702v-47.191M258.872 180.457v-47.946" stroke="#F55459" stroke-linecap="round" stroke-dasharray="4 4"/><path d="M76.112 98.72c-4.464 0-8.208-.648-11.232-1.944-2.976-1.344-5.256-3.072-6.84-5.184-1.536-2.16-2.352-4.416-2.448-6.768 0-.432.144-.792.432-1.08a1.465 1.465 0 0 1 1.08-.432h6.408c.624 0 1.08.144 1.368.432.336.24.624.552.864.936.288.912.84 1.824 1.656 2.736.816.864 1.92 1.584 3.312 2.16 1.44.576 3.24.864 5.4.864 3.456 0 6.024-.576 7.704-1.728 1.728-1.152 2.592-2.712 2.592-4.68 0-1.392-.456-2.496-1.368-3.312-.912-.864-2.328-1.632-4.248-2.304-1.872-.72-4.368-1.464-7.488-2.232-3.6-.864-6.624-1.896-9.072-3.096-2.4-1.248-4.224-2.808-5.472-4.68-1.2-1.872-1.8-4.248-1.8-7.128 0-2.784.744-5.256 2.232-7.416 1.536-2.16 3.696-3.864 6.48-5.112 2.832-1.248 6.192-1.872 10.08-1.872 3.12 0 5.88.432 8.28 1.296 2.4.816 4.392 1.92 5.976 3.312 1.584 1.344 2.784 2.808 3.6 4.392.864 1.536 1.32 3.048 1.368 4.536 0 .384-.144.744-.432 1.08-.24.288-.6.432-1.08.432h-6.696c-.384 0-.768-.096-1.152-.288-.384-.192-.696-.552-.936-1.08-.288-1.488-1.224-2.76-2.808-3.816-1.584-1.056-3.624-1.584-6.12-1.584-2.592 0-4.68.48-6.264 1.44-1.584.96-2.376 2.448-2.376 4.464 0 1.344.384 2.472 1.152 3.384.816.864 2.088 1.632 3.816 2.304 1.776.672 4.104 1.392 6.984 2.16 4.08.912 7.416 1.968 10.008 3.168 2.592 1.2 4.488 2.736 5.688 4.608 1.2 1.824 1.8 4.152 1.8 6.984 0 3.168-.864 5.88-2.592 8.136-1.68 2.208-4.056 3.912-7.128 5.112-3.072 1.2-6.648 1.8-10.728 1.8Zm28.195 12.96c-.48 0-.888-.168-1.224-.504a1.666 1.666 0 0 1-.504-1.224V62.288c0-.48.168-.888.504-1.224a1.666 1.666 0 0 1 1.224-.504h5.688c.528 0 .936.168 1.224.504.336.336.504.744.504 1.224v2.88c1.152-1.536 2.664-2.808 4.536-3.816 1.872-1.008 4.2-1.512 6.984-1.512 2.544 0 4.752.408 6.624 1.224 1.872.816 3.432 1.992 4.68 3.528 1.248 1.488 2.208 3.264 2.88 5.328.672 2.064 1.056 4.344 1.152 6.84.048.816.072 1.656.072 2.52 0 .864-.024 1.728-.072 2.592-.048 2.4-.408 4.632-1.08 6.696-.672 2.016-1.656 3.792-2.952 5.328-1.248 1.488-2.808 2.664-4.68 3.528-1.872.864-4.08 1.296-6.624 1.296-2.592 0-4.8-.456-6.624-1.368-1.824-.96-3.312-2.208-4.464-3.744v16.344c0 .48-.168.888-.504 1.224-.288.336-.696.504-1.224.504h-6.12Zm16.272-20.664c2.064 0 3.672-.432 4.824-1.296 1.152-.912 1.992-2.088 2.52-3.528s.84-3.024.936-4.752c.048-1.44.048-2.88 0-4.32-.096-1.728-.408-3.312-.936-4.752s-1.368-2.592-2.52-3.456c-1.152-.912-2.76-1.368-4.824-1.368-1.968 0-3.576.456-4.824 1.368-1.2.912-2.088 2.088-2.664 3.528a14.8 14.8 0 0 0-.936 4.32 53.44 53.44 0 0 0 0 5.544 10.67 10.67 0 0 0 1.008 4.176 8.474 8.474 0 0 0 2.736 3.24c1.2.864 2.76 1.296 4.68 1.296Zm35.587 7.704c-2.496 0-4.752-.48-6.768-1.44-2.016-1.008-3.624-2.328-4.824-3.96-1.152-1.68-1.728-3.552-1.728-5.616 0-3.36 1.368-6.024 4.104-7.992 2.736-2.016 6.312-3.36 10.728-4.032l9.864-1.44v-1.512c0-2.016-.504-3.576-1.512-4.68-1.008-1.104-2.736-1.656-5.184-1.656-1.728 0-3.144.36-4.248 1.08a6.27 6.27 0 0 0-2.376 2.736c-.384.624-.936.936-1.656.936h-5.688c-.528 0-.936-.144-1.224-.432-.24-.288-.36-.672-.36-1.152.048-.768.36-1.704.936-2.808.624-1.104 1.536-2.16 2.736-3.168 1.248-1.056 2.856-1.944 4.824-2.664 1.968-.72 4.344-1.08 7.128-1.08 3.024 0 5.568.384 7.632 1.152 2.112.72 3.792 1.704 5.04 2.952a11.323 11.323 0 0 1 2.736 4.392c.576 1.68.864 3.456.864 5.328v22.608c0 .48-.168.888-.504 1.224a1.666 1.666 0 0 1-1.224.504h-5.832c-.528 0-.96-.168-1.296-.504-.288-.336-.432-.744-.432-1.224v-2.808c-.624.864-1.464 1.704-2.52 2.52-1.056.816-2.352 1.488-3.888 2.016-1.488.48-3.264.72-5.328.72Zm2.448-6.84c1.68 0 3.192-.36 4.536-1.08 1.392-.72 2.472-1.824 3.24-3.312.816-1.536 1.224-3.456 1.224-5.76v-1.512l-7.2 1.152c-2.832.432-4.944 1.128-6.336 2.088-1.392.96-2.088 2.136-2.088 3.528 0 1.056.312 1.968.936 2.736.672.72 1.512 1.272 2.52 1.656a9.952 9.952 0 0 0 3.168.504Zm42.573 6.84c-3.456 0-6.504-.648-9.144-1.944-2.592-1.296-4.632-3.168-6.12-5.616-1.44-2.496-2.232-5.496-2.376-9a43.956 43.956 0 0 1-.072-2.808c0-1.2.024-2.184.072-2.952.144-3.504.936-6.48 2.376-8.928 1.488-2.496 3.528-4.392 6.12-5.688 2.64-1.296 5.688-1.944 9.144-1.944 3.072 0 5.688.432 7.848 1.296 2.16.816 3.936 1.896 5.328 3.24 1.392 1.296 2.424 2.664 3.096 4.104.72 1.392 1.104 2.664 1.152 3.816.048.528-.12.96-.504 1.296-.336.288-.744.432-1.224.432h-6.336c-.48 0-.864-.12-1.152-.36-.24-.24-.48-.6-.72-1.08-.72-1.92-1.68-3.264-2.88-4.032-1.152-.816-2.64-1.224-4.464-1.224-2.4 0-4.32.768-5.76 2.304-1.392 1.488-2.136 3.864-2.232 7.128a44.055 44.055 0 0 0 0 5.04c.096 3.312.84 5.712 2.232 7.2 1.44 1.488 3.36 2.232 5.76 2.232 1.872 0 3.384-.384 4.536-1.152 1.152-.816 2.088-2.184 2.808-4.104.24-.48.48-.84.72-1.08.288-.24.672-.36 1.152-.36h6.336c.48 0 .888.168 1.224.504.384.288.552.696.504 1.224-.048.864-.288 1.848-.72 2.952-.384 1.056-1.032 2.16-1.944 3.312-.864 1.104-1.968 2.136-3.312 3.096-1.344.912-2.976 1.656-4.896 2.232-1.872.576-4.056.864-6.552.864Zm39.621 0c-5.328 0-9.552-1.536-12.672-4.608-3.12-3.072-4.8-7.44-5.04-13.104-.048-.48-.072-1.08-.072-1.8 0-.768.024-1.368.072-1.8.192-3.648 1.008-6.768 2.448-9.36 1.488-2.64 3.528-4.656 6.12-6.048 2.592-1.44 5.64-2.16 9.144-2.16 3.888 0 7.152.816 9.792 2.448 2.64 1.584 4.632 3.816 5.976 6.696 1.344 2.832 2.016 6.12 2.016 9.864v1.512c0 .48-.168.888-.504 1.224-.336.336-.768.504-1.296.504h-23.904v.576c.048 1.68.36 3.24.936 4.68.624 1.392 1.512 2.52 2.664 3.384 1.2.864 2.616 1.296 4.248 1.296 1.344 0 2.472-.192 3.384-.576.912-.432 1.656-.912 2.232-1.44.576-.528.984-.96 1.224-1.296.432-.576.768-.912 1.008-1.008.288-.144.696-.216 1.224-.216H256c.48 0 .864.144 1.152.432.336.288.48.648.432 1.08-.048.768-.456 1.704-1.224 2.808-.72 1.104-1.776 2.184-3.168 3.24-1.392 1.056-3.144 1.944-5.256 2.664-2.064.672-4.44 1.008-7.128 1.008Zm-7.92-22.68H248.8v-.216c0-1.872-.312-3.504-.936-4.896-.624-1.44-1.536-2.544-2.736-3.312-1.2-.816-2.64-1.224-4.32-1.224-1.68 0-3.12.408-4.32 1.224-1.2.768-2.112 1.872-2.736 3.312-.576 1.392-.864 3.024-.864 4.896v.216Zm46.09 22.68c-2.88 0-5.352-.336-7.416-1.008-2.016-.672-3.672-1.512-4.968-2.52-1.296-1.008-2.256-2.016-2.88-3.024-.624-1.008-.96-1.848-1.008-2.52-.048-.528.096-.936.432-1.224.384-.336.792-.504 1.224-.504h5.688c.192 0 .36.024.504.072.144.048.336.192.576.432.624.528 1.272 1.08 1.944 1.656.72.576 1.56 1.08 2.52 1.512.96.384 2.16.576 3.6.576 1.872 0 3.432-.36 4.68-1.08 1.296-.768 1.944-1.848 1.944-3.24 0-1.008-.288-1.824-.864-2.448-.528-.624-1.536-1.176-3.024-1.656-1.488-.528-3.6-1.08-6.336-1.656-2.688-.624-4.92-1.416-6.696-2.376-1.776-.96-3.096-2.16-3.96-3.6-.864-1.44-1.296-3.12-1.296-5.04 0-1.872.552-3.648 1.656-5.328 1.152-1.728 2.832-3.144 5.04-4.248 2.256-1.104 5.04-1.656 8.352-1.656 2.592 0 4.848.336 6.768 1.008 1.92.624 3.504 1.416 4.752 2.376 1.296.96 2.28 1.944 2.952 2.952.672.96 1.032 1.8 1.08 2.52.048.528-.096.96-.432 1.296a1.72 1.72 0 0 1-1.152.432h-5.328c-.24 0-.456-.048-.648-.144a3.783 3.783 0 0 1-.576-.36 64.796 64.796 0 0 0-1.728-1.512c-.624-.576-1.392-1.056-2.304-1.44-.864-.384-2.016-.576-3.456-.576-1.824 0-3.216.408-4.176 1.224-.96.768-1.44 1.752-1.44 2.952 0 .816.216 1.536.648 2.16.48.576 1.416 1.128 2.808 1.656s3.504 1.08 6.336 1.656c3.216.576 5.76 1.44 7.632 2.592 1.92 1.104 3.264 2.4 4.032 3.888.816 1.44 1.224 3.048 1.224 4.824 0 2.16-.648 4.104-1.944 5.832-1.248 1.728-3.12 3.096-5.616 4.104-2.448.96-5.496 1.44-9.144 1.44Zm24.497-.72c-.48 0-.888-.168-1.224-.504a1.666 1.666 0 0 1-.504-1.224V48.608c0-.48.168-.888.504-1.224a1.666 1.666 0 0 1 1.224-.504h6.408c.528 0 .936.168 1.224.504.336.336.504.744.504 1.224v16.416c1.296-1.536 2.88-2.784 4.752-3.744 1.872-.96 4.176-1.44 6.912-1.44 2.928 0 5.472.672 7.632 2.016 2.208 1.296 3.912 3.144 5.112 5.544 1.2 2.4 1.8 5.28 1.8 8.64v20.232c0 .48-.168.888-.504 1.224a1.666 1.666 0 0 1-1.224.504h-6.48c-.48 0-.888-.168-1.224-.504a1.666 1.666 0 0 1-.504-1.224v-19.8c0-2.784-.696-4.968-2.088-6.552-1.344-1.584-3.312-2.376-5.904-2.376-2.496 0-4.512.792-6.048 2.376-1.488 1.584-2.232 3.768-2.232 6.552v19.8c0 .48-.168.888-.504 1.224-.288.336-.696.504-1.224.504h-6.408Zm43.769 0c-.48 0-.888-.168-1.224-.504a1.666 1.666 0 0 1-.504-1.224V62.288c0-.48.168-.888.504-1.224a1.666 1.666 0 0 1 1.224-.504h5.976c.528 0 .936.168 1.224.504.336.336.504.744.504 1.224v33.984c0 .48-.168.888-.504 1.224-.288.336-.696.504-1.224.504h-5.976Zm-.288-43.632c-.48 0-.888-.168-1.224-.504a1.666 1.666 0 0 1-.504-1.224v-5.184c0-.48.168-.888.504-1.224a1.666 1.666 0 0 1 1.224-.504h6.552c.528 0 .96.168 1.296.504.336.336.504.744.504 1.224v5.184c0 .48-.168.888-.504 1.224-.336.336-.768.504-1.296.504h-6.552Zm19.31 57.312c-.48 0-.888-.168-1.224-.504a1.666 1.666 0 0 1-.504-1.224V62.288c0-.48.168-.888.504-1.224a1.666 1.666 0 0 1 1.224-.504h5.688c.528 0 .936.168 1.224.504.336.336.504.744.504 1.224v2.88c1.152-1.536 2.664-2.808 4.536-3.816 1.872-1.008 4.2-1.512 6.984-1.512 2.544 0 4.752.408 6.624 1.224 1.872.816 3.432 1.992 4.68 3.528 1.248 1.488 2.208 3.264 2.88 5.328.672 2.064 1.056 4.344 1.152 6.84.048.816.072 1.656.072 2.52 0 .864-.024 1.728-.072 2.592-.048 2.4-.408 4.632-1.08 6.696-.672 2.016-1.656 3.792-2.952 5.328-1.248 1.488-2.808 2.664-4.68 3.528-1.872.864-4.08 1.296-6.624 1.296-2.592 0-4.8-.456-6.624-1.368-1.824-.96-3.312-2.208-4.464-3.744v16.344c0 .48-.168.888-.504 1.224-.288.336-.696.504-1.224.504h-6.12Zm16.272-20.664c2.064 0 3.672-.432 4.824-1.296 1.152-.912 1.992-2.088 2.52-3.528s.84-3.024.936-4.752c.048-1.44.048-2.88 0-4.32-.096-1.728-.408-3.312-.936-4.752s-1.368-2.592-2.52-3.456c-1.152-.912-2.76-1.368-4.824-1.368-1.968 0-3.576.456-4.824 1.368-1.2.912-2.088 2.088-2.664 3.528a14.8 14.8 0 0 0-.936 4.32 53.44 53.44 0 0 0 0 5.544 10.67 10.67 0 0 0 1.008 4.176 8.474 8.474 0 0 0 2.736 3.24c1.2.864 2.76 1.296 4.68 1.296ZM75.464 207.72c-4.176 0-7.68-.648-10.512-1.944-2.832-1.296-5.016-2.952-6.552-4.968-1.488-2.064-2.28-4.224-2.376-6.48 0-.384.144-.72.432-1.008.336-.336.72-.504 1.152-.504h3.672c.576 0 1.008.144 1.296.432.288.288.48.624.576 1.008.288 1.152.888 2.304 1.8 3.456.912 1.104 2.208 2.04 3.888 2.808 1.728.72 3.936 1.08 6.624 1.08 4.128 0 7.152-.72 9.072-2.16 1.968-1.488 2.952-3.456 2.952-5.904 0-1.68-.528-3.024-1.584-4.032-1.008-1.056-2.568-1.992-4.68-2.808-2.112-.816-4.848-1.704-8.208-2.664-3.504-1.008-6.408-2.112-8.712-3.312-2.304-1.2-4.032-2.688-5.184-4.464-1.104-1.776-1.656-4.032-1.656-6.768 0-2.592.696-4.896 2.088-6.912 1.392-2.064 3.408-3.696 6.048-4.896 2.64-1.2 5.808-1.8 9.504-1.8 2.976 0 5.568.408 7.776 1.224 2.256.768 4.128 1.824 5.616 3.168 1.488 1.296 2.616 2.712 3.384 4.248.768 1.488 1.176 2.952 1.224 4.392 0 .336-.12.672-.36 1.008-.24.288-.624.432-1.152.432h-3.816c-.336 0-.696-.096-1.08-.288-.336-.192-.6-.552-.792-1.08-.288-1.968-1.392-3.624-3.312-4.968-1.92-1.344-4.416-2.016-7.488-2.016-3.12 0-5.664.6-7.632 1.8-1.92 1.2-2.88 3.072-2.88 5.616 0 1.632.456 3 1.368 4.104.912 1.056 2.352 1.992 4.32 2.808 1.968.816 4.536 1.68 7.704 2.592 3.84 1.056 6.984 2.184 9.432 3.384 2.448 1.152 4.248 2.616 5.4 4.392 1.2 1.728 1.8 3.96 1.8 6.696 0 3.024-.792 5.616-2.376 7.776-1.584 2.112-3.816 3.744-6.696 4.896-2.832 1.104-6.192 1.656-10.08 1.656Zm30.101 12.96c-.48 0-.888-.168-1.224-.504-.288-.288-.432-.672-.432-1.152v-47.808c0-.48.144-.864.432-1.152a1.666 1.666 0 0 1 1.224-.504h3.312c.48 0 .864.168 1.152.504.336.288.504.672.504 1.152v3.168c1.152-1.584 2.688-2.904 4.608-3.96 1.92-1.056 4.32-1.584 7.2-1.584 2.688 0 4.968.456 6.84 1.368 1.92.912 3.48 2.16 4.68 3.744 1.248 1.584 2.184 3.384 2.808 5.4.624 2.016.984 4.176 1.08 6.48.048.768.072 1.584.072 2.448 0 .864-.024 1.68-.072 2.448a26.143 26.143 0 0 1-1.08 6.48c-.624 2.016-1.56 3.816-2.808 5.4-1.2 1.536-2.76 2.784-4.68 3.744-1.872.912-4.152 1.368-6.84 1.368-2.784 0-5.136-.504-7.056-1.512-1.872-1.056-3.408-2.352-4.608-3.888v16.704c0 .48-.144.864-.432 1.152-.288.336-.672.504-1.152.504h-3.528Zm15.264-18.792c2.496 0 4.44-.528 5.832-1.584a9.16 9.16 0 0 0 3.096-4.248c.624-1.776.984-3.672 1.08-5.688a60.57 60.57 0 0 0 0-4.176c-.096-2.016-.456-3.888-1.08-5.616-.624-1.776-1.656-3.192-3.096-4.248-1.392-1.104-3.336-1.656-5.832-1.656-2.352 0-4.272.552-5.76 1.656-1.44 1.104-2.52 2.52-3.24 4.248a16.23 16.23 0 0 0-1.152 5.184c-.048.768-.072 1.68-.072 2.736 0 1.056.024 1.992.072 2.808.048 1.68.432 3.336 1.152 4.968a10.192 10.192 0 0 0 3.384 4.032c1.488 1.056 3.36 1.584 5.616 1.584Zm37.059 5.832c-2.4 0-4.584-.48-6.552-1.44s-3.552-2.256-4.752-3.888c-1.2-1.632-1.8-3.48-1.8-5.544 0-3.312 1.344-5.952 4.032-7.92 2.688-1.968 6.192-3.264 10.512-3.888l10.728-1.512v-2.088c0-2.304-.672-4.104-2.016-5.4-1.296-1.296-3.432-1.944-6.408-1.944-2.112 0-3.84.432-5.184 1.296-1.344.864-2.28 1.968-2.808 3.312-.288.72-.792 1.08-1.512 1.08h-3.24c-.528 0-.936-.144-1.224-.432-.24-.336-.36-.72-.36-1.152 0-.72.264-1.608.792-2.664.576-1.056 1.44-2.088 2.592-3.096 1.152-1.008 2.616-1.848 4.392-2.52 1.824-.72 4.032-1.08 6.624-1.08 2.88 0 5.304.384 7.272 1.152 1.968.72 3.504 1.704 4.608 2.952a10.824 10.824 0 0 1 2.448 4.248c.528 1.584.792 3.192.792 4.824v23.328c0 .48-.168.888-.504 1.224-.288.288-.672.432-1.152.432h-3.312c-.528 0-.936-.144-1.224-.432-.288-.336-.432-.744-.432-1.224v-3.096c-.624.864-1.464 1.728-2.52 2.592-1.056.816-2.376 1.512-3.96 2.088-1.584.528-3.528.792-5.832.792Zm1.512-5.4c1.968 0 3.768-.408 5.4-1.224 1.632-.864 2.904-2.184 3.816-3.96.96-1.776 1.44-4.008 1.44-6.696v-2.016l-8.352 1.224c-3.408.48-5.976 1.296-7.704 2.448-1.728 1.104-2.592 2.52-2.592 4.248 0 1.344.384 2.472 1.152 3.384.816.864 1.824 1.512 3.024 1.944a11.59 11.59 0 0 0 3.816.648Zm43.614 5.4c-3.408 0-6.36-.648-8.856-1.944a14.108 14.108 0 0 1-5.688-5.688c-1.344-2.496-2.064-5.472-2.16-8.928-.048-.72-.072-1.68-.072-2.88s.024-2.16.072-2.88c.096-3.456.816-6.408 2.16-8.856 1.344-2.496 3.24-4.392 5.688-5.688 2.496-1.344 5.448-2.016 8.856-2.016 2.784 0 5.16.384 7.128 1.152 2.016.768 3.672 1.752 4.968 2.952 1.296 1.2 2.256 2.496 2.88 3.888.672 1.392 1.032 2.712 1.08 3.96.048.48-.096.864-.432 1.152-.336.288-.744.432-1.224.432h-3.456c-.48 0-.84-.096-1.08-.288-.24-.24-.48-.624-.72-1.152-.864-2.352-2.04-4.008-3.528-4.968s-3.336-1.44-5.544-1.44c-2.88 0-5.232.888-7.056 2.664-1.776 1.776-2.736 4.632-2.88 8.568a88.2 88.2 0 0 0 0 5.04c.144 3.984 1.104 6.864 2.88 8.64 1.824 1.728 4.176 2.592 7.056 2.592 2.208 0 4.056-.48 5.544-1.44 1.488-.96 2.664-2.616 3.528-4.968.24-.528.48-.912.72-1.152.24-.24.6-.36 1.08-.36h3.456c.48 0 .888.168 1.224.504.336.288.48.672.432 1.152-.048 1.008-.264 2.04-.648 3.096s-1.008 2.136-1.872 3.24c-.816 1.056-1.848 2.016-3.096 2.88-1.248.816-2.736 1.488-4.464 2.016-1.728.48-3.72.72-5.976.72Zm40.303 0c-4.992 0-8.952-1.512-11.88-4.536-2.928-3.072-4.536-7.248-4.824-12.528a32.038 32.038 0 0 1-.072-2.376c0-1.008.024-1.824.072-2.448.192-3.408.984-6.384 2.376-8.928 1.392-2.592 3.288-4.584 5.688-5.976 2.448-1.392 5.304-2.088 8.568-2.088 3.648 0 6.696.768 9.144 2.304 2.496 1.536 4.392 3.72 5.688 6.552 1.296 2.832 1.944 6.144 1.944 9.936v1.224c0 .528-.168.936-.504 1.224-.288.288-.672.432-1.152.432h-24.912V191.16c.096 1.968.528 3.816 1.296 5.544.768 1.68 1.872 3.048 3.312 4.104 1.488 1.056 3.216 1.584 5.184 1.584 1.728 0 3.168-.264 4.32-.792 1.152-.528 2.088-1.104 2.808-1.728.72-.672 1.2-1.2 1.44-1.584.432-.576.768-.912 1.008-1.008.24-.144.624-.216 1.152-.216h3.528c.432 0 .792.144 1.08.432.336.24.48.6.432 1.08-.048.72-.432 1.608-1.152 2.664-.72 1.008-1.752 2.016-3.096 3.024-1.296 1.008-2.928 1.848-4.896 2.52-1.92.624-4.104.936-6.552.936Zm-9.864-22.176h19.728v-.216c0-2.16-.408-4.08-1.224-5.76-.768-1.68-1.896-3-3.384-3.96-1.488-1.008-3.264-1.512-5.328-1.512-2.064 0-3.84.504-5.328 1.512-1.44.96-2.544 2.28-3.312 3.96-.768 1.68-1.152 3.6-1.152 5.76v.216Zm48.857 22.176c-2.688 0-4.992-.336-6.912-1.008-1.92-.672-3.48-1.488-4.68-2.448-1.2-.96-2.112-1.92-2.736-2.88-.576-.96-.888-1.728-.936-2.304-.048-.528.12-.936.504-1.224.384-.288.768-.432 1.152-.432h3.24c.24 0 .432.048.576.144.192.048.432.24.72.576.624.672 1.32 1.344 2.088 2.016.768.672 1.704 1.224 2.808 1.656 1.152.432 2.568.648 4.248.648 2.448 0 4.464-.456 6.048-1.368 1.584-.96 2.376-2.352 2.376-4.176 0-1.2-.336-2.16-1.008-2.88-.624-.72-1.776-1.368-3.456-1.944-1.632-.576-3.888-1.176-6.768-1.8-2.88-.672-5.16-1.488-6.84-2.448-1.68-1.008-2.88-2.184-3.6-3.528-.72-1.392-1.08-2.952-1.08-4.68 0-1.776.528-3.48 1.584-5.112 1.056-1.68 2.592-3.048 4.608-4.104 2.064-1.056 4.632-1.584 7.704-1.584 2.496 0 4.632.312 6.408.936 1.776.624 3.24 1.416 4.392 2.376 1.152.912 2.016 1.824 2.592 2.736.576.912.888 1.68.936 2.304.048.48-.096.888-.432 1.224a1.72 1.72 0 0 1-1.152.432h-3.024c-.336 0-.624-.072-.864-.216a5.407 5.407 0 0 1-.576-.504 15.339 15.339 0 0 0-1.728-1.872c-.624-.624-1.464-1.128-2.52-1.512-1.008-.432-2.352-.648-4.032-.648-2.4 0-4.2.504-5.4 1.512-1.2 1.008-1.8 2.28-1.8 3.816 0 .912.264 1.728.792 2.448s1.536 1.368 3.024 1.944c1.488.576 3.696 1.2 6.624 1.872 3.168.624 5.664 1.464 7.488 2.52 1.824 1.056 3.12 2.28 3.888 3.672.768 1.392 1.152 3 1.152 4.824 0 2.016-.576 3.864-1.728 5.544-1.152 1.68-2.88 3.024-5.184 4.032-2.304.96-5.136 1.44-8.496 1.44Zm26.191-.72c-.48 0-.888-.144-1.224-.432-.288-.336-.432-.744-.432-1.224v-47.808c0-.48.144-.864.432-1.152a1.666 1.666 0 0 1 1.224-.504h3.6c.528 0 .936.168 1.224.504.288.288.432.672.432 1.152v16.776a15.197 15.197 0 0 1 4.752-3.96c1.872-1.008 4.248-1.512 7.128-1.512 3.12 0 5.76.696 7.92 2.088 2.208 1.344 3.864 3.24 4.968 5.688 1.152 2.4 1.728 5.208 1.728 8.424v20.304c0 .48-.144.888-.432 1.224-.288.288-.696.432-1.224.432h-3.6c-.48 0-.888-.144-1.224-.432-.288-.336-.432-.744-.432-1.224V185.4c0-3.36-.816-5.976-2.448-7.848-1.632-1.92-4.032-2.88-7.2-2.88-2.976 0-5.376.96-7.2 2.88-1.824 1.872-2.736 4.488-2.736 7.848v19.944c0 .48-.144.888-.432 1.224-.288.288-.696.432-1.224.432h-3.6Zm44.523 0c-.48 0-.888-.144-1.224-.432-.288-.336-.432-.744-.432-1.224v-34.128c0-.48.144-.864.432-1.152a1.666 1.666 0 0 1 1.224-.504h3.456c.48 0 .864.168 1.152.504.336.288.504.672.504 1.152v34.128c0 .48-.168.888-.504 1.224-.288.288-.672.432-1.152.432h-3.456Zm-.576-44.424c-.48 0-.888-.144-1.224-.432-.288-.336-.432-.744-.432-1.224v-3.888c0-.48.144-.888.432-1.224a1.666 1.666 0 0 1 1.224-.504h4.536c.48 0 .888.168 1.224.504.336.336.504.744.504 1.224v3.888c0 .48-.168.888-.504 1.224-.336.288-.744.432-1.224.432h-4.536Zm19.438 58.104c-.48 0-.888-.168-1.224-.504-.288-.288-.432-.672-.432-1.152v-47.808c0-.48.144-.864.432-1.152a1.666 1.666 0 0 1 1.224-.504h3.312c.48 0 .864.168 1.152.504.336.288.504.672.504 1.152v3.168c1.152-1.584 2.688-2.904 4.608-3.96 1.92-1.056 4.32-1.584 7.2-1.584 2.688 0 4.968.456 6.84 1.368 1.92.912 3.48 2.16 4.68 3.744 1.248 1.584 2.184 3.384 2.808 5.4.624 2.016.984 4.176 1.08 6.48.048.768.072 1.584.072 2.448 0 .864-.024 1.68-.072 2.448a26.143 26.143 0 0 1-1.08 6.48c-.624 2.016-1.56 3.816-2.808 5.4-1.2 1.536-2.76 2.784-4.68 3.744-1.872.912-4.152 1.368-6.84 1.368-2.784 0-5.136-.504-7.056-1.512-1.872-1.056-3.408-2.352-4.608-3.888v16.704c0 .48-.144.864-.432 1.152-.288.336-.672.504-1.152.504h-3.528Zm15.264-18.792c2.496 0 4.44-.528 5.832-1.584a9.16 9.16 0 0 0 3.096-4.248c.624-1.776.984-3.672 1.08-5.688a60.57 60.57 0 0 0 0-4.176c-.096-2.016-.456-3.888-1.08-5.616-.624-1.776-1.656-3.192-3.096-4.248-1.392-1.104-3.336-1.656-5.832-1.656-2.352 0-4.272.552-5.76 1.656-1.44 1.104-2.52 2.52-3.24 4.248a16.23 16.23 0 0 0-1.152 5.184c-.048.768-.072 1.68-.072 2.736 0 1.056.024 1.992.072 2.808.048 1.68.432 3.336 1.152 4.968a10.192 10.192 0 0 0 3.384 4.032c1.488 1.056 3.36 1.584 5.616 1.584Z" fill="#2B1D38"/><path d="M377.08 50a.278.278 0 0 1-.204-.084.278.278 0 0 1-.084-.204V44.06c0-.088.028-.16.084-.216a.278.278 0 0 1 .204-.084h.972c.08 0 .148.028.204.084a.274.274 0 0 1 .096.216v.492c.184-.256.42-.452.708-.588a2.419 2.419 0 0 1 1.02-.204h.492c.088 0 .156.028.204.084a.278.278 0 0 1 .084.204v.864c0 .08-.028.148-.084.204a.254.254 0 0 1-.204.084h-.936c-.384 0-.684.108-.9.324-.208.216-.312.512-.312.888v3.3c0 .08-.028.148-.084.204a.292.292 0 0 1-.216.084h-1.044Zm7.023.12c-.888 0-1.592-.256-2.112-.768s-.8-1.24-.84-2.184a3.104 3.104 0 0 1-.012-.3c0-.128.004-.228.012-.3.032-.6.168-1.12.408-1.56.248-.44.588-.776 1.02-1.008.432-.24.94-.36 1.524-.36.648 0 1.192.136 1.632.408.44.264.772.636.996 1.116.224.472.336 1.02.336 1.644v.252c0 .08-.028.148-.084.204a.292.292 0 0 1-.216.084h-3.984v.096c.008.28.06.54.156.78.104.232.252.42.444.564.2.144.436.216.708.216.224 0 .412-.032.564-.096a1.493 1.493 0 0 0 .576-.456c.072-.096.128-.152.168-.168a.466.466 0 0 1 .204-.036h1.032a.26.26 0 0 1 .192.072c.056.048.08.108.072.18-.008.128-.076.284-.204.468-.12.184-.296.364-.528.54a3.093 3.093 0 0 1-.876.444c-.344.112-.74.168-1.188.168Zm-1.32-3.78h2.652v-.036a1.98 1.98 0 0 0-.156-.816 1.29 1.29 0 0 0-.456-.552 1.25 1.25 0 0 0-.72-.204c-.28 0-.52.068-.72.204-.2.136-.352.32-.456.552a2.124 2.124 0 0 0-.144.816v.036Zm7.634 3.78c-.416 0-.784-.068-1.104-.204a2.15 2.15 0 0 1-.78-.6 2.772 2.772 0 0 1-.48-.9 4.337 4.337 0 0 1-.192-1.152 7.005 7.005 0 0 1 0-.78c.016-.4.076-.772.18-1.116.112-.344.272-.644.48-.9.216-.264.48-.468.792-.612.32-.144.688-.216 1.104-.216.432 0 .796.076 1.092.228.304.144.556.332.756.564v-2.664c0-.08.024-.148.072-.204a.292.292 0 0 1 .216-.084h1.02c.08 0 .148.028.204.084a.278.278 0 0 1 .084.204v7.944c0 .08-.028.148-.084.204a.278.278 0 0 1-.204.084h-.948a.292.292 0 0 1-.216-.084.303.303 0 0 1-.072-.204v-.444c-.2.248-.456.452-.768.612-.304.16-.688.24-1.152.24Zm.444-1.284c.336 0 .604-.076.804-.228.2-.152.348-.344.444-.576.096-.24.148-.484.156-.732a8.235 8.235 0 0 0 0-.924 1.69 1.69 0 0 0-.168-.684 1.39 1.39 0 0 0-.456-.552c-.2-.144-.46-.216-.78-.216-.336 0-.604.076-.804.228a1.23 1.23 0 0 0-.42.576 2.73 2.73 0 0 0-.156.792c-.008.24-.008.48 0 .72.016.288.068.552.156.792s.228.436.42.588c.2.144.468.216.804.216Zm6.675 1.284c-.488 0-.912-.108-1.272-.324a2.22 2.22 0 0 1-.816-.936c-.192-.408-.288-.888-.288-1.44v-3.372c0-.08.028-.148.084-.204a.278.278 0 0 1 .204-.084h1.056c.088 0 .156.028.204.084a.278.278 0 0 1 .084.204v3.3c0 .992.436 1.488 1.308 1.488.416 0 .744-.132.984-.396.248-.264.372-.628.372-1.092v-3.3c0-.08.028-.148.084-.204a.278.278 0 0 1 .204-.084h1.056c.08 0 .148.028.204.084a.278.278 0 0 1 .084.204v5.664c0 .08-.028.148-.084.204a.278.278 0 0 1-.204.084h-.972a.292.292 0 0 1-.216-.084.303.303 0 0 1-.072-.204v-.492c-.216.28-.484.5-.804.66-.32.16-.72.24-1.2.24Zm7.598 0c-.576 0-1.084-.108-1.524-.324a2.453 2.453 0 0 1-1.02-.936c-.24-.416-.372-.916-.396-1.5a7.326 7.326 0 0 1-.012-.468c0-.2.004-.364.012-.492.024-.584.156-1.08.396-1.488a2.43 2.43 0 0 1 1.02-.948c.44-.216.948-.324 1.524-.324.512 0 .948.072 1.308.216.36.144.656.324.888.54.232.216.404.444.516.684.12.232.184.444.192.636a.242.242 0 0 1-.084.216.303.303 0 0 1-.204.072h-1.056a.29.29 0 0 1-.192-.06.698.698 0 0 1-.12-.18c-.12-.32-.28-.544-.48-.672-.192-.136-.44-.204-.744-.204-.4 0-.72.128-.96.384-.232.248-.356.644-.372 1.188a7.343 7.343 0 0 0 0 .84c.016.552.14.952.372 1.2.24.248.56.372.96.372.312 0 .564-.064.756-.192.192-.136.348-.364.468-.684.04-.08.08-.14.12-.18a.29.29 0 0 1 .192-.06h1.056c.08 0 .148.028.204.084.064.048.092.116.084.204a1.622 1.622 0 0 1-.12.492c-.064.176-.172.36-.324.552a2.646 2.646 0 0 1-.552.516 2.962 2.962 0 0 1-.816.372 3.724 3.724 0 0 1-1.092.144Zm6.603 0c-.888 0-1.592-.256-2.112-.768s-.8-1.24-.84-2.184a3.104 3.104 0 0 1-.012-.3c0-.128.004-.228.012-.3.032-.6.168-1.12.408-1.56.248-.44.588-.776 1.02-1.008.432-.24.94-.36 1.524-.36.648 0 1.192.136 1.632.408.44.264.772.636.996 1.116.224.472.336 1.02.336 1.644v.252c0 .08-.028.148-.084.204a.292.292 0 0 1-.216.084h-3.984v.096c.008.28.06.54.156.78.104.232.252.42.444.564.2.144.436.216.708.216.224 0 .412-.032.564-.096a1.493 1.493 0 0 0 .576-.456c.072-.096.128-.152.168-.168a.466.466 0 0 1 .204-.036h1.032a.26.26 0 0 1 .192.072c.056.048.08.108.072.18-.008.128-.076.284-.204.468-.12.184-.296.364-.528.54a3.093 3.093 0 0 1-.876.444c-.344.112-.74.168-1.188.168Zm-1.32-3.78h2.652v-.036a1.98 1.98 0 0 0-.156-.816 1.29 1.29 0 0 0-.456-.552 1.25 1.25 0 0 0-.72-.204c-.28 0-.52.068-.72.204-.2.136-.352.32-.456.552a2.124 2.124 0 0 0-.144.816v.036Zm10.184 3.78c-.48 0-.892-.056-1.236-.168a2.764 2.764 0 0 1-.828-.42 1.993 1.993 0 0 1-.48-.504c-.104-.168-.16-.308-.168-.42-.008-.088.016-.156.072-.204a.306.306 0 0 1 .204-.084h.948c.032 0 .06.004.084.012a.291.291 0 0 1 .096.072l.324.276c.12.096.26.18.42.252.16.064.36.096.6.096.312 0 .572-.06.78-.18.216-.128.324-.308.324-.54a.578.578 0 0 0-.144-.408c-.088-.104-.256-.196-.504-.276-.248-.088-.6-.18-1.056-.276a4.503 4.503 0 0 1-1.116-.396 1.67 1.67 0 0 1-.66-.6 1.601 1.601 0 0 1-.216-.84c0-.312.092-.608.276-.888.192-.288.472-.524.84-.708.376-.184.84-.276 1.392-.276.432 0 .808.056 1.128.168.32.104.584.236.792.396.216.16.38.324.492.492.112.16.172.3.18.42a.257.257 0 0 1-.072.216.287.287 0 0 1-.192.072h-.888a.238.238 0 0 1-.108-.024.63.63 0 0 1-.096-.06 10.8 10.8 0 0 0-.288-.252 1.478 1.478 0 0 0-.384-.228c-.144-.072-.336-.108-.576-.108-.304 0-.536.068-.696.204a.602.602 0 0 0-.24.492c0 .136.036.256.108.36.08.096.236.188.468.276.232.088.584.18 1.056.276.536.096.96.24 1.272.432.32.184.544.4.672.648.136.24.204.508.204.804 0 .36-.108.684-.324.972-.208.288-.52.516-.936.684-.408.16-.916.24-1.524.24Zm4.083 2.16a.278.278 0 0 1-.204-.084.278.278 0 0 1-.084-.204v-7.944c0-.08.028-.148.084-.204a.278.278 0 0 1 .204-.084h.948c.088 0 .156.028.204.084a.278.278 0 0 1 .084.204v.48c.192-.256.444-.468.756-.636.312-.168.7-.252 1.164-.252.424 0 .792.068 1.104.204.312.136.572.332.78.588.208.248.368.544.48.888.112.344.176.724.192 1.14a7.155 7.155 0 0 1 0 .852c-.008.4-.068.772-.18 1.116a2.672 2.672 0 0 1-.492.888 2.21 2.21 0 0 1-.78.588c-.312.144-.68.216-1.104.216-.432 0-.8-.076-1.104-.228a2.186 2.186 0 0 1-.744-.624v2.724c0 .08-.028.148-.084.204a.254.254 0 0 1-.204.084h-1.02Zm2.712-3.444c.344 0 .612-.072.804-.216.192-.152.328-.348.408-.588.088-.24.14-.504.156-.792.016-.24.016-.48 0-.72a2.73 2.73 0 0 0-.156-.792 1.158 1.158 0 0 0-.408-.576c-.192-.152-.46-.228-.804-.228-.328 0-.596.076-.804.228-.2.152-.348.348-.444.588-.088.232-.14.472-.156.72a8.235 8.235 0 0 0 0 .924c.008.24.064.472.168.696.104.216.256.396.456.54.2.144.46.216.78.216Zm5.931 1.284a2.59 2.59 0 0 1-1.128-.24 2.193 2.193 0 0 1-.804-.66 1.618 1.618 0 0 1-.288-.936c0-.56.224-1.004.672-1.332.456-.336 1.056-.56 1.8-.672l1.644-.24v-.252c0-.336-.084-.596-.252-.78-.168-.184-.456-.276-.864-.276-.288 0-.524.06-.708.18a1.045 1.045 0 0 0-.396.456.306.306 0 0 1-.276.156h-.948c-.088 0-.156-.024-.204-.072a.29.29 0 0 1-.06-.192c.008-.128.06-.284.156-.468.096-.184.248-.36.456-.528.208-.176.476-.324.804-.444.328-.12.724-.18 1.188-.18.504 0 .928.064 1.272.192.352.12.632.284.84.492.208.208.36.452.456.732.096.28.144.576.144.888v3.768c0 .08-.028.148-.084.204a.278.278 0 0 1-.204.084h-.972a.292.292 0 0 1-.216-.084.303.303 0 0 1-.072-.204v-.468a1.935 1.935 0 0 1-.42.432 2.451 2.451 0 0 1-.648.324c-.248.08-.544.12-.888.12Zm.408-1.14c.28 0 .532-.06.756-.18.232-.12.412-.304.54-.552.136-.256.204-.576.204-.96v-.252l-1.2.192c-.472.072-.824.188-1.056.348-.232.16-.348.356-.348.588a.7.7 0 0 0 .156.456 1.1 1.1 0 0 0 .42.276c.168.056.344.084.528.084Zm7.095 1.14c-.576 0-1.084-.108-1.524-.324a2.453 2.453 0 0 1-1.02-.936c-.24-.416-.372-.916-.396-1.5a7.326 7.326 0 0 1-.012-.468c0-.2.004-.364.012-.492.024-.584.156-1.08.396-1.488a2.43 2.43 0 0 1 1.02-.948c.44-.216.948-.324 1.524-.324.512 0 .948.072 1.308.216.36.144.656.324.888.54.232.216.404.444.516.684.12.232.184.444.192.636a.242.242 0 0 1-.084.216.303.303 0 0 1-.204.072h-1.056a.29.29 0 0 1-.192-.06.698.698 0 0 1-.12-.18c-.12-.32-.28-.544-.48-.672-.192-.136-.44-.204-.744-.204-.4 0-.72.128-.96.384-.232.248-.356.644-.372 1.188a7.343 7.343 0 0 0 0 .84c.016.552.14.952.372 1.2.24.248.56.372.96.372.312 0 .564-.064.756-.192.192-.136.348-.364.468-.684.04-.08.08-.14.12-.18a.29.29 0 0 1 .192-.06h1.056c.08 0 .148.028.204.084.064.048.092.116.084.204a1.622 1.622 0 0 1-.12.492c-.064.176-.172.36-.324.552a2.646 2.646 0 0 1-.552.516 2.962 2.962 0 0 1-.816.372 3.724 3.724 0 0 1-1.092.144Zm4.204-.12a.278.278 0 0 1-.204-.084.278.278 0 0 1-.084-.204v-5.664c0-.08.028-.148.084-.204a.278.278 0 0 1 .204-.084h.996c.088 0 .156.028.204.084a.278.278 0 0 1 .084.204v5.664c0 .08-.028.148-.084.204a.254.254 0 0 1-.204.084h-.996Zm-.048-7.272a.32.32 0 0 1-.216-.072.32.32 0 0 1-.072-.216v-.864c0-.08.024-.148.072-.204a.292.292 0 0 1 .216-.084h1.092c.088 0 .16.028.216.084a.278.278 0 0 1 .084.204v.864c0 .088-.028.16-.084.216a.32.32 0 0 1-.216.072h-1.092ZM447.958 50a.278.278 0 0 1-.204-.084.278.278 0 0 1-.084-.204v-5.664c0-.08.028-.148.084-.204a.278.278 0 0 1 .204-.084h.984c.08 0 .148.028.204.084a.278.278 0 0 1 .084.204v.492c.208-.256.472-.468.792-.636.328-.176.732-.264 1.212-.264.488 0 .912.112 1.272.336.36.216.636.524.828.924.2.4.3.88.3 1.44v3.372c0 .08-.028.148-.084.204a.278.278 0 0 1-.204.084h-1.056a.278.278 0 0 1-.204-.084.278.278 0 0 1-.084-.204v-3.3c0-.464-.116-.828-.348-1.092-.224-.264-.552-.396-.984-.396-.416 0-.748.132-.996.396s-.372.628-.372 1.092v3.3c0 .08-.028.148-.084.204a.278.278 0 0 1-.204.084h-1.056Zm9.78 2.64c-.584 0-1.064-.076-1.44-.228-.376-.152-.672-.336-.888-.552a2.198 2.198 0 0 1-.468-.648 1.652 1.652 0 0 1-.144-.492.275.275 0 0 1 .072-.216.32.32 0 0 1 .216-.084h1.044c.08 0 .144.016.192.048.048.04.088.108.12.204.048.104.112.216.192.336.08.12.2.22.36.3.168.088.396.132.684.132.304 0 .56-.044.768-.132a.904.904 0 0 0 .468-.444c.112-.208.168-.496.168-.864v-.816c-.192.232-.44.42-.744.564-.296.144-.664.216-1.104.216-.432 0-.804-.068-1.116-.204a2.21 2.21 0 0 1-.78-.588 2.772 2.772 0 0 1-.48-.9 4.536 4.536 0 0 1-.18-1.14 8.751 8.751 0 0 1 0-.648c.016-.4.076-.772.18-1.116.104-.344.26-.644.468-.9.216-.264.48-.468.792-.612.312-.144.684-.216 1.116-.216.456 0 .84.088 1.152.264.312.168.568.38.768.636v-.48c0-.088.028-.16.084-.216a.278.278 0 0 1 .204-.084h.972c.08 0 .148.028.204.084a.292.292 0 0 1 .084.216l.012 5.784c0 .576-.108 1.072-.324 1.488a2.198 2.198 0 0 1-.984.96c-.432.232-.988.348-1.668.348Zm-.06-3.948c.328 0 .592-.072.792-.216.2-.144.348-.332.444-.564a2.23 2.23 0 0 0 .168-.708 5.34 5.34 0 0 0 .012-.396c0-.16-.004-.288-.012-.384a2.132 2.132 0 0 0-.168-.708 1.287 1.287 0 0 0-.444-.564c-.2-.152-.464-.228-.792-.228s-.592.076-.792.228c-.2.144-.344.336-.432.576-.08.24-.128.504-.144.792a3.607 3.607 0 0 0 0 .588c.016.28.064.544.144.792.088.24.232.432.432.576.2.144.464.216.792.216Z" fill="#F05781"/><path d="M377.092 36a.278.278 0 0 1-.204-.084.278.278 0 0 1-.084-.204v-7.944c0-.08.028-.148.084-.204a.278.278 0 0 1 .204-.084h1.068c.088 0 .156.028.204.084a.278.278 0 0 1 .084.204v2.736c.216-.256.48-.464.792-.624.312-.16.696-.24 1.152-.24.488 0 .912.112 1.272.336.368.216.652.524.852.924.2.4.3.88.3 1.44v3.372c0 .08-.028.148-.084.204a.278.278 0 0 1-.204.084h-1.08a.278.278 0 0 1-.204-.084.278.278 0 0 1-.084-.204v-3.3c0-.464-.116-.828-.348-1.092-.224-.264-.552-.396-.984-.396-.416 0-.752.132-1.008.396-.248.264-.372.628-.372 1.092v3.3c0 .08-.028.148-.084.204a.254.254 0 0 1-.204.084h-1.068Zm9.695.12c-.888 0-1.592-.256-2.112-.768s-.8-1.24-.84-2.184a3.104 3.104 0 0 1-.012-.3c0-.128.004-.228.012-.3.032-.608.168-1.128.408-1.56.248-.44.588-.776 1.02-1.008.432-.24.94-.36 1.524-.36.648 0 1.192.136 1.632.408.44.264.772.636.996 1.116.224.472.336 1.02.336 1.644v.252c0 .08-.028.148-.084.204a.292.292 0 0 1-.216.084h-3.984v.096c.008.28.06.54.156.78.104.232.252.42.444.564.2.144.436.216.708.216.224 0 .412-.032.564-.096a1.493 1.493 0 0 0 .576-.456c.072-.096.128-.152.168-.168a.466.466 0 0 1 .204-.036h1.032a.26.26 0 0 1 .192.072c.056.048.08.108.072.18-.008.128-.076.284-.204.468-.12.184-.296.364-.528.54a3.093 3.093 0 0 1-.876.444c-.344.112-.74.168-1.188.168Zm-1.32-3.78h2.652v-.036a1.98 1.98 0 0 0-.156-.816 1.202 1.202 0 0 0-.456-.552 1.25 1.25 0 0 0-.72-.204c-.28 0-.52.068-.72.204-.2.128-.352.312-.456.552a2.124 2.124 0 0 0-.144.816v.036Zm7.13 3.78a2.59 2.59 0 0 1-1.128-.24 2.193 2.193 0 0 1-.804-.66 1.618 1.618 0 0 1-.288-.936c0-.56.228-1.004.684-1.332.456-.336 1.052-.56 1.788-.672l1.644-.24v-.252c0-.336-.084-.596-.252-.78-.168-.184-.456-.276-.864-.276-.288 0-.524.06-.708.18a1.045 1.045 0 0 0-.396.456.306.306 0 0 1-.276.156h-.948c-.088 0-.156-.024-.204-.072a.29.29 0 0 1-.06-.192c.008-.128.06-.284.156-.468.104-.184.256-.36.456-.528.208-.176.476-.324.804-.444.328-.12.724-.18 1.188-.18.504 0 .928.064 1.272.192.352.12.632.284.84.492.208.208.36.452.456.732.096.28.144.576.144.888v3.768c0 .08-.028.148-.084.204a.278.278 0 0 1-.204.084h-.972a.292.292 0 0 1-.216-.084.303.303 0 0 1-.072-.204v-.468a2.083 2.083 0 0 1-.42.42 2.245 2.245 0 0 1-.648.336c-.248.08-.544.12-.888.12Zm.408-1.14c.28 0 .532-.06.756-.18.232-.12.412-.304.54-.552.136-.256.204-.576.204-.96v-.252l-1.2.192c-.472.072-.824.188-1.056.348-.232.16-.348.356-.348.588a.7.7 0 0 0 .156.456 1.1 1.1 0 0 0 .42.276c.168.056.344.084.528.084Zm6.711 1.14c-.416 0-.784-.068-1.104-.204a2.15 2.15 0 0 1-.78-.6 2.772 2.772 0 0 1-.48-.9 4.337 4.337 0 0 1-.192-1.152 7.005 7.005 0 0 1 0-.78c.016-.4.076-.772.18-1.116.112-.344.272-.644.48-.9.216-.264.48-.468.792-.612.32-.144.688-.216 1.104-.216.432 0 .796.076 1.092.228.304.144.556.332.756.564v-2.664c0-.08.024-.148.072-.204a.292.292 0 0 1 .216-.084h1.02c.08 0 .148.028.204.084a.278.278 0 0 1 .084.204v7.944c0 .08-.028.148-.084.204a.278.278 0 0 1-.204.084h-.948a.292.292 0 0 1-.216-.084.303.303 0 0 1-.072-.204v-.444c-.2.248-.456.452-.768.612-.304.16-.688.24-1.152.24Zm.444-1.284c.336 0 .604-.076.804-.228.2-.152.348-.344.444-.576.096-.24.148-.484.156-.732a8.235 8.235 0 0 0 0-.924 1.69 1.69 0 0 0-.168-.684 1.39 1.39 0 0 0-.456-.552c-.2-.144-.46-.216-.78-.216-.336 0-.604.076-.804.228a1.23 1.23 0 0 0-.42.576 2.73 2.73 0 0 0-.156.792c-.008.24-.008.48 0 .72.016.288.068.552.156.792s.228.436.42.588c.2.144.468.216.804.216ZM404.808 36a.278.278 0 0 1-.204-.084.278.278 0 0 1-.084-.204v-5.664c0-.08.028-.148.084-.204a.278.278 0 0 1 .204-.084h.996c.088 0 .156.028.204.084a.278.278 0 0 1 .084.204v5.664c0 .08-.028.148-.084.204a.254.254 0 0 1-.204.084h-.996Zm-.048-7.272a.278.278 0 0 1-.204-.084.278.278 0 0 1-.084-.204v-.864c0-.08.028-.148.084-.204a.278.278 0 0 1 .204-.084h1.092c.088 0 .16.028.216.084a.278.278 0 0 1 .084.204v.864c0 .08-.028.148-.084.204a.292.292 0 0 1-.216.084h-1.092ZM407.966 36a.278.278 0 0 1-.204-.084.278.278 0 0 1-.084-.204v-5.664c0-.08.028-.148.084-.204a.278.278 0 0 1 .204-.084h.984c.08 0 .148.028.204.084a.278.278 0 0 1 .084.204v.492c.208-.256.472-.468.792-.636.328-.176.732-.264 1.212-.264.488 0 .912.112 1.272.336.36.216.636.524.828.924.2.4.3.88.3 1.44v3.372c0 .08-.028.148-.084.204a.278.278 0 0 1-.204.084h-1.056a.278.278 0 0 1-.204-.084.278.278 0 0 1-.084-.204v-3.3c0-.464-.116-.828-.348-1.092-.224-.264-.552-.396-.984-.396-.416 0-.748.132-.996.396s-.372.628-.372 1.092v3.3c0 .08-.028.148-.084.204a.278.278 0 0 1-.204.084h-1.056Zm9.78 2.64c-.584 0-1.064-.076-1.44-.228-.376-.152-.672-.336-.888-.552a2.198 2.198 0 0 1-.468-.648 1.652 1.652 0 0 1-.144-.492.275.275 0 0 1 .072-.216.32.32 0 0 1 .216-.084h1.044c.08 0 .144.016.192.048.048.04.088.108.12.204.048.104.112.216.192.336.08.12.2.22.36.3.168.088.396.132.684.132.304 0 .56-.044.768-.132a.904.904 0 0 0 .468-.444c.112-.208.168-.496.168-.864v-.816c-.192.232-.44.42-.744.564-.296.144-.664.216-1.104.216-.424 0-.796-.068-1.116-.204a2.21 2.21 0 0 1-.78-.588 2.772 2.772 0 0 1-.48-.9 4.536 4.536 0 0 1-.18-1.14 8.751 8.751 0 0 1 0-.648c.016-.4.076-.772.18-1.116.112-.344.272-.644.48-.9.208-.264.468-.468.78-.612.32-.144.692-.216 1.116-.216.456 0 .84.088 1.152.264.312.168.568.38.768.636v-.48c0-.088.028-.16.084-.216a.278.278 0 0 1 .204-.084h.972c.08 0 .148.028.204.084a.292.292 0 0 1 .084.216l.012 5.784c0 .576-.108 1.072-.324 1.488a2.198 2.198 0 0 1-.984.96c-.432.232-.988.348-1.668.348Zm-.06-3.948c.328 0 .592-.072.792-.216.2-.144.348-.332.444-.564a2.23 2.23 0 0 0 .168-.708 5.34 5.34 0 0 0 .012-.396c0-.16-.004-.288-.012-.384a2.132 2.132 0 0 0-.168-.708 1.287 1.287 0 0 0-.444-.564c-.2-.152-.464-.228-.792-.228s-.592.076-.792.228c-.2.144-.344.336-.432.576-.08.24-.128.504-.144.792a3.607 3.607 0 0 0 0 .588c.016.28.064.544.144.792.088.24.232.432.432.576.2.144.464.216.792.216Zm4.647-2.892a.278.278 0 0 1-.204-.084.278.278 0 0 1-.084-.204v-1.14c0-.088.028-.16.084-.216a.278.278 0 0 1 .204-.084h1.188c.088 0 .16.028.216.084a.292.292 0 0 1 .084.216v1.14c0 .08-.028.148-.084.204a.292.292 0 0 1-.216.084h-1.188Zm0 4.2a.278.278 0 0 1-.204-.084.278.278 0 0 1-.084-.204v-1.14c0-.088.028-.16.084-.216a.278.278 0 0 1 .204-.084h1.188c.088 0 .16.028.216.084a.292.292 0 0 1 .084.216v1.14c0 .08-.028.148-.084.204a.292.292 0 0 1-.216.084h-1.188ZM383.156 144.12c-.48 0-.892-.056-1.236-.168a2.764 2.764 0 0 1-.828-.42 1.993 1.993 0 0 1-.48-.504c-.104-.168-.16-.308-.168-.42-.008-.088.016-.156.072-.204a.306.306 0 0 1 .204-.084h.948c.032 0 .06.004.084.012a.291.291 0 0 1 .096.072l.324.276c.12.096.26.18.42.252.16.064.36.096.6.096.312 0 .572-.06.78-.18.216-.128.324-.308.324-.54a.578.578 0 0 0-.144-.408c-.088-.104-.256-.196-.504-.276-.248-.088-.6-.18-1.056-.276a4.503 4.503 0 0 1-1.116-.396 1.67 1.67 0 0 1-.66-.6 1.601 1.601 0 0 1-.216-.84c0-.312.092-.608.276-.888.192-.288.472-.524.84-.708.376-.184.84-.276 1.392-.276.432 0 .808.056 1.128.168.32.104.584.236.792.396.216.16.38.324.492.492.112.16.172.3.18.42a.257.257 0 0 1-.072.216.287.287 0 0 1-.192.072h-.888a.238.238 0 0 1-.108-.024.63.63 0 0 1-.096-.06 10.8 10.8 0 0 0-.288-.252 1.478 1.478 0 0 0-.384-.228c-.144-.072-.336-.108-.576-.108-.304 0-.536.068-.696.204a.602.602 0 0 0-.24.492c0 .136.036.256.108.36.08.096.236.188.468.276.232.088.584.18 1.056.276.536.096.96.24 1.272.432.32.184.544.4.672.648.136.24.204.508.204.804 0 .36-.108.684-.324.972-.208.288-.52.516-.936.684-.408.16-.916.24-1.524.24Zm4.071-.12a.278.278 0 0 1-.204-.084.278.278 0 0 1-.084-.204v-5.664c0-.08.028-.148.084-.204a.278.278 0 0 1 .204-.084h.936c.08 0 .148.028.204.084a.278.278 0 0 1 .084.204v.408a2.04 2.04 0 0 1 .672-.564c.288-.16.628-.244 1.02-.252.912-.016 1.548.34 1.908 1.068.184-.32.448-.576.792-.768.352-.2.74-.3 1.164-.3.416 0 .792.096 1.128.288.344.192.612.484.804.876.2.384.3.872.3 1.464v3.444c0 .08-.028.148-.084.204a.278.278 0 0 1-.204.084h-.984a.278.278 0 0 1-.204-.084.278.278 0 0 1-.084-.204v-3.348c0-.36-.052-.644-.156-.852a.94.94 0 0 0-.42-.456 1.296 1.296 0 0 0-.588-.132c-.176 0-.352.044-.528.132a1 1 0 0 0-.432.456c-.112.208-.168.492-.168.852v3.348c0 .08-.028.148-.084.204a.278.278 0 0 1-.204.084h-.984a.292.292 0 0 1-.216-.084.303.303 0 0 1-.072-.204v-3.348c0-.36-.056-.644-.168-.852a1 1 0 0 0-.432-.456 1.244 1.244 0 0 0-.564-.132c-.184 0-.364.048-.54.144a1.01 1.01 0 0 0-.432.444c-.112.208-.168.492-.168.852v3.348c0 .08-.028.148-.084.204a.278.278 0 0 1-.204.084h-1.008Zm12.112.12a2.59 2.59 0 0 1-1.128-.24 2.193 2.193 0 0 1-.804-.66 1.618 1.618 0 0 1-.288-.936c0-.56.224-1.004.672-1.332.456-.336 1.056-.56 1.8-.672l1.644-.24v-.252c0-.336-.084-.596-.252-.78-.168-.184-.456-.276-.864-.276-.288 0-.524.06-.708.18a1.045 1.045 0 0 0-.396.456.306.306 0 0 1-.276.156h-.948c-.088 0-.156-.024-.204-.072a.29.29 0 0 1-.06-.192c.008-.128.06-.284.156-.468.096-.184.248-.36.456-.528.208-.176.476-.324.804-.444.328-.12.724-.18 1.188-.18.504 0 .928.064 1.272.192.352.12.632.284.84.492.208.208.36.452.456.732.096.28.144.576.144.888v3.768c0 .08-.028.148-.084.204a.278.278 0 0 1-.204.084h-.972a.292.292 0 0 1-.216-.084.303.303 0 0 1-.072-.204v-.468a1.935 1.935 0 0 1-.42.432 2.451 2.451 0 0 1-.648.324c-.248.08-.544.12-.888.12Zm.408-1.14c.28 0 .532-.06.756-.18.232-.12.412-.304.54-.552.136-.256.204-.576.204-.96v-.252l-1.2.192c-.472.072-.824.188-1.056.348-.232.16-.348.356-.348.588a.7.7 0 0 0 .156.456 1.1 1.1 0 0 0 .42.276c.168.056.344.084.528.084Zm4.695 1.02a.278.278 0 0 1-.204-.084.278.278 0 0 1-.084-.204v-7.944c0-.08.028-.148.084-.204a.278.278 0 0 1 .204-.084h.996c.08 0 .148.028.204.084a.278.278 0 0 1 .084.204v7.944c0 .08-.028.148-.084.204a.278.278 0 0 1-.204.084h-.996Zm2.936 0a.278.278 0 0 1-.204-.084.278.278 0 0 1-.084-.204v-7.944c0-.08.028-.148.084-.204a.278.278 0 0 1 .204-.084h.996c.08 0 .148.028.204.084a.278.278 0 0 1 .084.204v7.944c0 .08-.028.148-.084.204a.278.278 0 0 1-.204.084h-.996Zm7.689 0c-.48 0-.884-.084-1.212-.252a1.609 1.609 0 0 1-.732-.744c-.16-.336-.24-.752-.24-1.248v-2.724h-.948a.278.278 0 0 1-.204-.084.278.278 0 0 1-.084-.204v-.696c0-.08.028-.148.084-.204a.278.278 0 0 1 .204-.084h.948v-1.992c0-.08.024-.148.072-.204a.292.292 0 0 1 .216-.084h.972c.08 0 .148.028.204.084a.278.278 0 0 1 .084.204v1.992h1.5c.08 0 .148.028.204.084a.278.278 0 0 1 .084.204v.696c0 .08-.028.148-.084.204a.278.278 0 0 1-.204.084h-1.5v2.604c0 .328.056.584.168.768.12.184.324.276.612.276h.828c.08 0 .148.028.204.084a.278.278 0 0 1 .084.204v.744c0 .08-.028.148-.084.204a.278.278 0 0 1-.204.084h-.972Zm4.772.12c-.888 0-1.592-.256-2.112-.768s-.8-1.24-.84-2.184a3.104 3.104 0 0 1-.012-.3c0-.128.004-.228.012-.3.032-.6.168-1.12.408-1.56.248-.44.588-.776 1.02-1.008.432-.24.94-.36 1.524-.36.648 0 1.192.136 1.632.408.44.264.772.636.996 1.116.224.472.336 1.02.336 1.644v.252c0 .08-.028.148-.084.204a.292.292 0 0 1-.216.084h-3.984v.096c.008.28.06.54.156.78.104.232.252.42.444.564.2.144.436.216.708.216.224 0 .412-.032.564-.096a1.493 1.493 0 0 0 .576-.456c.072-.096.128-.152.168-.168a.466.466 0 0 1 .204-.036h1.032a.26.26 0 0 1 .192.072c.056.048.08.108.072.18-.008.128-.076.284-.204.468-.12.184-.296.364-.528.54a3.093 3.093 0 0 1-.876.444c-.344.112-.74.168-1.188.168Zm-1.32-3.78h2.652v-.036a1.98 1.98 0 0 0-.156-.816 1.29 1.29 0 0 0-.456-.552 1.25 1.25 0 0 0-.72-.204c-.28 0-.52.068-.72.204-.2.136-.352.32-.456.552a2.124 2.124 0 0 0-.144.816v.036Zm4.96 3.66a.287.287 0 0 1-.192-.072.287.287 0 0 1-.06-.276c.016-.032.04-.072.072-.12l2.04-2.736-1.896-2.568a1.63 1.63 0 0 1-.06-.108.395.395 0 0 1-.012-.096c0-.072.024-.132.072-.18a.264.264 0 0 1 .192-.084h1.044c.096 0 .168.024.216.072a.714.714 0 0 1 .108.132l1.356 1.8 1.356-1.8.108-.132c.048-.048.12-.072.216-.072h.996c.072 0 .132.028.18.084a.216.216 0 0 1 .084.168c0 .04-.008.076-.024.108a.408.408 0 0 1-.048.108l-1.92 2.592 2.052 2.712a.414.414 0 0 1 .06.12c.016.032.024.06.024.084a.264.264 0 0 1-.084.192.244.244 0 0 1-.18.072h-1.092a.31.31 0 0 1-.204-.06 1.636 1.636 0 0 1-.12-.132l-1.44-1.908-1.464 1.908c-.032.04-.072.084-.12.132-.04.04-.108.06-.204.06h-1.056Zm9.618 0c-.48 0-.884-.084-1.212-.252a1.609 1.609 0 0 1-.732-.744c-.16-.336-.24-.752-.24-1.248v-2.724h-.948a.278.278 0 0 1-.204-.084.278.278 0 0 1-.084-.204v-.696c0-.08.028-.148.084-.204a.278.278 0 0 1 .204-.084h.948v-1.992c0-.08.024-.148.072-.204a.292.292 0 0 1 .216-.084h.972c.08 0 .148.028.204.084a.278.278 0 0 1 .084.204v1.992h1.5c.08 0 .148.028.204.084a.278.278 0 0 1 .084.204v.696c0 .08-.028.148-.084.204a.278.278 0 0 1-.204.084h-1.5v2.604c0 .328.056.584.168.768.12.184.324.276.612.276h.828c.08 0 .148.028.204.084a.278.278 0 0 1 .084.204v.744c0 .08-.028.148-.084.204a.278.278 0 0 1-.204.084h-.972Zm7.55 1.908c-.528 0-.992-.108-1.392-.324-.4-.216-.732-.552-.996-1.008-.256-.448-.448-1.028-.576-1.74-.128-.712-.192-1.56-.192-2.544 0-.992.064-1.84.192-2.544.128-.712.32-1.292.576-1.74.264-.456.596-.788.996-.996.4-.216.864-.324 1.392-.324.08 0 .148.028.204.084a.278.278 0 0 1 .084.204v.72c0 .08-.028.148-.084.204a.227.227 0 0 1-.18.084 1.415 1.415 0 0 0-.828.288c-.224.168-.404.428-.54.78-.128.344-.22.784-.276 1.32a18.82 18.82 0 0 0-.084 1.92c0 .744.028 1.384.084 1.92.056.536.148.98.276 1.332.136.352.316.612.54.78.224.176.5.272.828.288.072 0 .132.028.18.084a.278.278 0 0 1 .084.204v.72c0 .08-.028.148-.084.204a.278.278 0 0 1-.204.084Zm.698-1.908a.292.292 0 0 1-.216-.084.303.303 0 0 1-.072-.204v-.684a.45.45 0 0 1 .048-.204c.04-.072.08-.132.12-.18l3.072-3.636h-2.856a.303.303 0 0 1-.204-.072.292.292 0 0 1-.084-.216v-.672c0-.08.028-.148.084-.204a.278.278 0 0 1 .204-.084h4.548c.088 0 .156.028.204.084a.278.278 0 0 1 .084.204v.732a.38.38 0 0 1-.048.192 1.754 1.754 0 0 1-.12.18l-3 3.6h3.132c.08 0 .148.028.204.084a.254.254 0 0 1 .084.204v.672c0 .08-.028.148-.084.204a.278.278 0 0 1-.204.084h-4.896Zm8.837.12c-.64 0-1.18-.112-1.62-.336a2.375 2.375 0 0 1-.996-.948c-.224-.408-.352-.884-.384-1.428a9.758 9.758 0 0 1-.012-.528c0-.208.004-.384.012-.528.032-.552.164-1.028.396-1.428.24-.408.576-.724 1.008-.948.44-.224.972-.336 1.596-.336.624 0 1.152.112 1.584.336.44.224.776.54 1.008.948.24.4.376.876.408 1.428.008.144.012.32.012.528 0 .208-.004.384-.012.528-.032.544-.164 1.02-.396 1.428a2.286 2.286 0 0 1-.996.948c-.432.224-.968.336-1.608.336Zm0-1.188c.424 0 .752-.132.984-.396.232-.272.36-.668.384-1.188.008-.12.012-.276.012-.468s-.004-.348-.012-.468c-.024-.512-.152-.904-.384-1.176-.232-.272-.56-.408-.984-.408-.424 0-.752.136-.984.408-.232.272-.36.664-.384 1.176-.008.12-.012.276-.012.468s.004.348.012.468c.024.52.152.916.384 1.188.232.264.56.396.984.396Zm6.862 1.188c-.64 0-1.18-.112-1.62-.336a2.375 2.375 0 0 1-.996-.948c-.224-.408-.352-.884-.384-1.428a9.758 9.758 0 0 1-.012-.528c0-.208.004-.384.012-.528.032-.552.164-1.028.396-1.428.24-.408.576-.724 1.008-.948.44-.224.972-.336 1.596-.336.624 0 1.152.112 1.584.336.44.224.776.54 1.008.948.24.4.376.876.408 1.428.008.144.012.32.012.528 0 .208-.004.384-.012.528-.032.544-.164 1.02-.396 1.428a2.286 2.286 0 0 1-.996.948c-.432.224-.968.336-1.608.336Zm0-1.188c.424 0 .752-.132.984-.396.232-.272.36-.668.384-1.188.008-.12.012-.276.012-.468s-.004-.348-.012-.468c-.024-.512-.152-.904-.384-1.176-.232-.272-.56-.408-.984-.408-.424 0-.752.136-.984.408-.232.272-.36.664-.384 1.176-.008.12-.012.276-.012.468s.004.348.012.468c.024.52.152.916.384 1.188.232.264.56.396.984.396Zm4.389 1.068a.278.278 0 0 1-.204-.084.278.278 0 0 1-.084-.204v-5.664c0-.08.028-.148.084-.204a.278.278 0 0 1 .204-.084h.936c.08 0 .148.028.204.084a.278.278 0 0 1 .084.204v.408a2.04 2.04 0 0 1 .672-.564c.288-.16.628-.244 1.02-.252.912-.016 1.548.34 1.908 1.068.184-.32.448-.576.792-.768.352-.2.74-.3 1.164-.3.416 0 .792.096 1.128.288.344.192.612.484.804.876.2.384.3.872.3 1.464v3.444c0 .08-.028.148-.084.204a.278.278 0 0 1-.204.084h-.984a.278.278 0 0 1-.204-.084.278.278 0 0 1-.084-.204v-3.348c0-.36-.052-.644-.156-.852a.94.94 0 0 0-.42-.456 1.296 1.296 0 0 0-.588-.132c-.176 0-.352.044-.528.132a1 1 0 0 0-.432.456c-.112.208-.168.492-.168.852v3.348c0 .08-.028.148-.084.204a.278.278 0 0 1-.204.084h-.984a.292.292 0 0 1-.216-.084.303.303 0 0 1-.072-.204v-3.348c0-.36-.056-.644-.168-.852a1 1 0 0 0-.432-.456 1.244 1.244 0 0 0-.564-.132c-.184 0-.364.048-.54.144a1.01 1.01 0 0 0-.432.444c-.112.208-.168.492-.168.852v3.348c0 .08-.028.148-.084.204a.278.278 0 0 1-.204.084h-1.008Zm12.988.12c-.888 0-1.592-.256-2.112-.768s-.8-1.24-.84-2.184a3.104 3.104 0 0 1-.012-.3c0-.128.004-.228.012-.3.032-.6.168-1.12.408-1.56.248-.44.588-.776 1.02-1.008.432-.24.94-.36 1.524-.36.648 0 1.192.136 1.632.408.44.264.772.636.996 1.116.224.472.336 1.02.336 1.644v.252c0 .08-.028.148-.084.204a.292.292 0 0 1-.216.084h-3.984v.096c.008.28.06.54.156.78.104.232.252.42.444.564.2.144.436.216.708.216.224 0 .412-.032.564-.096a1.493 1.493 0 0 0 .576-.456c.072-.096.128-.152.168-.168a.466.466 0 0 1 .204-.036h1.032a.26.26 0 0 1 .192.072c.056.048.08.108.072.18-.008.128-.076.284-.204.468-.12.184-.296.364-.528.54a3.093 3.093 0 0 1-.876.444c-.344.112-.74.168-1.188.168Zm-1.32-3.78h2.652v-.036a1.98 1.98 0 0 0-.156-.816 1.29 1.29 0 0 0-.456-.552 1.25 1.25 0 0 0-.72-.204c-.28 0-.52.068-.72.204-.2.136-.352.32-.456.552a2.124 2.124 0 0 0-.144.816v.036Zm7.634 3.78c-.416 0-.784-.068-1.104-.204a2.15 2.15 0 0 1-.78-.6 2.772 2.772 0 0 1-.48-.9 4.337 4.337 0 0 1-.192-1.152 7.005 7.005 0 0 1 0-.78c.016-.4.076-.772.18-1.116.112-.344.272-.644.48-.9.216-.264.48-.468.792-.612.32-.144.688-.216 1.104-.216.432 0 .796.076 1.092.228.304.144.556.332.756.564v-2.664c0-.08.024-.148.072-.204a.292.292 0 0 1 .216-.084h1.02c.08 0 .148.028.204.084a.278.278 0 0 1 .084.204v7.944c0 .08-.028.148-.084.204a.278.278 0 0 1-.204.084h-.948a.292.292 0 0 1-.216-.084.303.303 0 0 1-.072-.204v-.444c-.2.248-.456.452-.768.612-.304.16-.688.24-1.152.24Zm.444-1.284c.336 0 .604-.076.804-.228.2-.152.348-.344.444-.576.096-.24.148-.484.156-.732a8.235 8.235 0 0 0 0-.924 1.69 1.69 0 0 0-.168-.684 1.39 1.39 0 0 0-.456-.552c-.2-.144-.46-.216-.78-.216-.336 0-.604.076-.804.228a1.23 1.23 0 0 0-.42.576 2.73 2.73 0 0 0-.156.792c-.008.24-.008.48 0 .72.016.288.068.552.156.792s.228.436.42.588c.2.144.468.216.804.216Zm7.15 1.164a.278.278 0 0 1-.204-.084.278.278 0 0 1-.084-.204v-5.664c0-.08.028-.148.084-.204a.278.278 0 0 1 .204-.084h.996c.088 0 .156.028.204.084a.278.278 0 0 1 .084.204v5.664c0 .08-.028.148-.084.204a.254.254 0 0 1-.204.084h-.996Zm-.048-7.272a.32.32 0 0 1-.216-.072.32.32 0 0 1-.072-.216v-.864c0-.08.024-.148.072-.204a.292.292 0 0 1 .216-.084h1.092c.088 0 .16.028.216.084a.278.278 0 0 1 .084.204v.864c0 .088-.028.16-.084.216a.32.32 0 0 1-.216.072h-1.092Zm2.972 7.272a.278.278 0 0 1-.204-.084.278.278 0 0 1-.084-.204v-5.664c0-.08.028-.148.084-.204a.278.278 0 0 1 .204-.084h.984c.08 0 .148.028.204.084a.278.278 0 0 1 .084.204v.492c.208-.256.472-.468.792-.636.328-.176.732-.264 1.212-.264.488 0 .912.112 1.272.336.36.216.636.524.828.924.2.4.3.88.3 1.44v3.372c0 .08-.028.148-.084.204a.278.278 0 0 1-.204.084h-1.056a.278.278 0 0 1-.204-.084.278.278 0 0 1-.084-.204v-3.3c0-.464-.116-.828-.348-1.092-.224-.264-.552-.396-.984-.396-.416 0-.748.132-.996.396s-.372.628-.372 1.092v3.3c0 .08-.028.148-.084.204a.278.278 0 0 1-.204.084h-1.056Zm6.24 1.908a.278.278 0 0 1-.204-.084.278.278 0 0 1-.084-.204v-.72c0-.08.024-.148.072-.204a.264.264 0 0 1 .192-.084c.336-.016.612-.112.828-.288.224-.168.4-.428.528-.78.136-.352.232-.796.288-1.332.064-.536.096-1.176.096-1.92s-.032-1.384-.096-1.92c-.056-.536-.152-.976-.288-1.32-.128-.352-.304-.612-.528-.78-.216-.176-.492-.272-.828-.288a.264.264 0 0 1-.192-.084.303.303 0 0 1-.072-.204v-.72c0-.08.028-.148.084-.204a.278.278 0 0 1 .204-.084c.528 0 .992.108 1.392.324.4.208.728.54.984.996.264.448.46 1.028.588 1.74.128.704.192 1.552.192 2.544 0 .984-.064 1.832-.192 2.544s-.324 1.292-.588 1.74c-.256.456-.584.792-.984 1.008-.4.216-.864.324-1.392.324Zm4.564-6.108a.278.278 0 0 1-.204-.084.278.278 0 0 1-.084-.204v-1.14c0-.088.028-.16.084-.216a.278.278 0 0 1 .204-.084h1.188c.088 0 .16.028.216.084a.292.292 0 0 1 .084.216v1.14c0 .08-.028.148-.084.204a.292.292 0 0 1-.216.084h-1.188Zm0 4.2a.278.278 0 0 1-.204-.084.278.278 0 0 1-.084-.204v-1.14c0-.088.028-.16.084-.216a.278.278 0 0 1 .204-.084h1.188c.088 0 .16.028.216.084a.292.292 0 0 1 .084.216v1.14c0 .08-.028.148-.084.204a.292.292 0 0 1-.216.084h-1.188Z" fill="#9386A0"/><path d="M381.08 158a.278.278 0 0 1-.204-.084.278.278 0 0 1-.084-.204v-5.664c0-.08.028-.148.084-.204a.278.278 0 0 1 .204-.084h.996c.088 0 .156.028.204.084a.278.278 0 0 1 .084.204v5.664c0 .08-.028.148-.084.204a.254.254 0 0 1-.204.084h-.996Zm-.048-7.272a.32.32 0 0 1-.216-.072.32.32 0 0 1-.072-.216v-.864c0-.08.024-.148.072-.204a.292.292 0 0 1 .216-.084h1.092c.088 0 .16.028.216.084a.278.278 0 0 1 .084.204v.864c0 .088-.028.16-.084.216a.32.32 0 0 1-.216.072h-1.092Zm2.972 7.272a.278.278 0 0 1-.204-.084.278.278 0 0 1-.084-.204v-5.664c0-.08.028-.148.084-.204a.278.278 0 0 1 .204-.084h.984c.08 0 .148.028.204.084a.278.278 0 0 1 .084.204v.492c.208-.256.472-.468.792-.636.328-.176.732-.264 1.212-.264.488 0 .912.112 1.272.336.36.216.636.524.828.924.2.4.3.88.3 1.44v3.372c0 .08-.028.148-.084.204a.278.278 0 0 1-.204.084h-1.056a.278.278 0 0 1-.204-.084.278.278 0 0 1-.084-.204v-3.3c0-.464-.116-.828-.348-1.092-.224-.264-.552-.396-.984-.396-.416 0-.748.132-.996.396s-.372.628-.372 1.092v3.3c0 .08-.028.148-.084.204a.278.278 0 0 1-.204.084h-1.056Zm9.66.12c-.576 0-1.084-.108-1.524-.324a2.453 2.453 0 0 1-1.02-.936c-.24-.416-.372-.916-.396-1.5a7.326 7.326 0 0 1-.012-.468c0-.2.004-.364.012-.492.024-.584.156-1.08.396-1.488a2.43 2.43 0 0 1 1.02-.948c.44-.216.948-.324 1.524-.324.512 0 .948.072 1.308.216.36.144.656.324.888.54.232.216.404.444.516.684.12.232.184.444.192.636a.242.242 0 0 1-.084.216.303.303 0 0 1-.204.072h-1.056a.29.29 0 0 1-.192-.06.698.698 0 0 1-.12-.18c-.12-.32-.28-.544-.48-.672-.192-.136-.44-.204-.744-.204-.4 0-.72.128-.96.384-.232.248-.356.644-.372 1.188a7.343 7.343 0 0 0 0 .84c.016.552.14.952.372 1.2.24.248.56.372.96.372.312 0 .564-.064.756-.192.192-.136.348-.364.468-.684.04-.08.08-.14.12-.18a.29.29 0 0 1 .192-.06h1.056c.08 0 .148.028.204.084.064.048.092.116.084.204a1.622 1.622 0 0 1-.12.492c-.064.176-.172.36-.324.552a2.646 2.646 0 0 1-.552.516 2.962 2.962 0 0 1-.816.372 3.724 3.724 0 0 1-1.092.144Zm4.204-.12a.278.278 0 0 1-.204-.084.278.278 0 0 1-.084-.204v-5.652c0-.088.028-.16.084-.216a.278.278 0 0 1 .204-.084h.972c.08 0 .148.028.204.084a.274.274 0 0 1 .096.216v.492c.184-.256.42-.452.708-.588a2.419 2.419 0 0 1 1.02-.204h.492c.088 0 .156.028.204.084a.278.278 0 0 1 .084.204v.864c0 .08-.028.148-.084.204a.254.254 0 0 1-.204.084h-.936c-.384 0-.684.108-.9.324-.208.216-.312.512-.312.888v3.3c0 .08-.028.148-.084.204a.292.292 0 0 1-.216.084h-1.044Zm7.023.12c-.888 0-1.592-.256-2.112-.768s-.8-1.24-.84-2.184a3.104 3.104 0 0 1-.012-.3c0-.128.004-.228.012-.3.032-.6.168-1.12.408-1.56.248-.44.588-.776 1.02-1.008.432-.24.94-.36 1.524-.36.648 0 1.192.136 1.632.408.44.264.772.636.996 1.116.224.472.336 1.02.336 1.644v.252c0 .08-.028.148-.084.204a.292.292 0 0 1-.216.084h-3.984v.096c.008.28.06.54.156.78.104.232.252.42.444.564.2.144.436.216.708.216.224 0 .412-.032.564-.096a1.493 1.493 0 0 0 .576-.456c.072-.096.128-.152.168-.168a.466.466 0 0 1 .204-.036h1.032a.26.26 0 0 1 .192.072c.056.048.08.108.072.18-.008.128-.076.284-.204.468-.12.184-.296.364-.528.54a3.093 3.093 0 0 1-.876.444c-.344.112-.74.168-1.188.168Zm-1.32-3.78h2.652v-.036a1.98 1.98 0 0 0-.156-.816 1.29 1.29 0 0 0-.456-.552 1.25 1.25 0 0 0-.72-.204c-.28 0-.52.068-.72.204-.2.136-.352.32-.456.552a2.124 2.124 0 0 0-.144.816v.036Zm7.13 3.78a2.59 2.59 0 0 1-1.128-.24 2.193 2.193 0 0 1-.804-.66 1.618 1.618 0 0 1-.288-.936c0-.56.224-1.004.672-1.332.456-.336 1.056-.56 1.8-.672l1.644-.24v-.252c0-.336-.084-.596-.252-.78-.168-.184-.456-.276-.864-.276-.288 0-.524.06-.708.18a1.045 1.045 0 0 0-.396.456.306.306 0 0 1-.276.156h-.948c-.088 0-.156-.024-.204-.072a.29.29 0 0 1-.06-.192c.008-.128.06-.284.156-.468.096-.184.248-.36.456-.528.208-.176.476-.324.804-.444.328-.12.724-.18 1.188-.18.504 0 .928.064 1.272.192.352.12.632.284.84.492.208.208.36.452.456.732.096.28.144.576.144.888v3.768c0 .08-.028.148-.084.204a.278.278 0 0 1-.204.084h-.972a.292.292 0 0 1-.216-.084.303.303 0 0 1-.072-.204v-.468a1.935 1.935 0 0 1-.42.432 2.451 2.451 0 0 1-.648.324c-.248.08-.544.12-.888.12Zm.408-1.14c.28 0 .532-.06.756-.18.232-.12.412-.304.54-.552.136-.256.204-.576.204-.96v-.252l-1.2.192c-.472.072-.824.188-1.056.348-.232.16-.348.356-.348.588a.7.7 0 0 0 .156.456 1.1 1.1 0 0 0 .42.276c.168.056.344.084.528.084Zm6.759 1.14c-.48 0-.892-.056-1.236-.168a2.764 2.764 0 0 1-.828-.42 1.993 1.993 0 0 1-.48-.504c-.104-.168-.16-.308-.168-.42-.008-.088.016-.156.072-.204a.306.306 0 0 1 .204-.084h.948c.032 0 .06.004.084.012a.291.291 0 0 1 .096.072l.324.276c.12.096.26.18.42.252.16.064.36.096.6.096.312 0 .572-.06.78-.18.216-.128.324-.308.324-.54a.578.578 0 0 0-.144-.408c-.088-.104-.256-.196-.504-.276-.248-.088-.6-.18-1.056-.276a4.503 4.503 0 0 1-1.116-.396 1.67 1.67 0 0 1-.66-.6 1.601 1.601 0 0 1-.216-.84c0-.312.092-.608.276-.888.192-.288.472-.524.84-.708.376-.184.84-.276 1.392-.276.432 0 .808.056 1.128.168.32.104.584.236.792.396.216.16.38.324.492.492.112.16.172.3.18.42a.257.257 0 0 1-.072.216.287.287 0 0 1-.192.072h-.888a.238.238 0 0 1-.108-.024.63.63 0 0 1-.096-.06 10.8 10.8 0 0 0-.288-.252 1.478 1.478 0 0 0-.384-.228c-.144-.072-.336-.108-.576-.108-.304 0-.536.068-.696.204a.602.602 0 0 0-.24.492c0 .136.036.256.108.36.08.096.236.188.468.276.232.088.584.18 1.056.276.536.096.96.24 1.272.432.32.184.544.4.672.648.136.24.204.508.204.804 0 .36-.108.684-.324.972-.208.288-.52.516-.936.684-.408.16-.916.24-1.524.24Zm6.471 0c-.888 0-1.592-.256-2.112-.768s-.8-1.24-.84-2.184a3.104 3.104 0 0 1-.012-.3c0-.128.004-.228.012-.3.032-.6.168-1.12.408-1.56.248-.44.588-.776 1.02-1.008.432-.24.94-.36 1.524-.36.648 0 1.192.136 1.632.408.44.264.772.636.996 1.116.224.472.336 1.02.336 1.644v.252c0 .08-.028.148-.084.204a.292.292 0 0 1-.216.084h-3.984v.096c.008.28.06.54.156.78.104.232.252.42.444.564.2.144.436.216.708.216.224 0 .412-.032.564-.096a1.493 1.493 0 0 0 .576-.456c.072-.096.128-.152.168-.168a.466.466 0 0 1 .204-.036h1.032a.26.26 0 0 1 .192.072c.056.048.08.108.072.18-.008.128-.076.284-.204.468-.12.184-.296.364-.528.54a3.093 3.093 0 0 1-.876.444c-.344.112-.74.168-1.188.168Zm-1.32-3.78h2.652v-.036a1.98 1.98 0 0 0-.156-.816 1.29 1.29 0 0 0-.456-.552 1.25 1.25 0 0 0-.72-.204c-.28 0-.52.068-.72.204-.2.136-.352.32-.456.552a2.124 2.124 0 0 0-.144.816v.036Zm10.184 3.78c-.48 0-.892-.056-1.236-.168a2.764 2.764 0 0 1-.828-.42 1.993 1.993 0 0 1-.48-.504c-.104-.168-.16-.308-.168-.42-.008-.088.016-.156.072-.204a.306.306 0 0 1 .204-.084h.948c.032 0 .06.004.084.012a.291.291 0 0 1 .096.072l.324.276c.12.096.26.18.42.252.16.064.36.096.6.096.312 0 .572-.06.78-.18.216-.128.324-.308.324-.54a.578.578 0 0 0-.144-.408c-.088-.104-.256-.196-.504-.276-.248-.088-.6-.18-1.056-.276a4.503 4.503 0 0 1-1.116-.396 1.67 1.67 0 0 1-.66-.6 1.601 1.601 0 0 1-.216-.84c0-.312.092-.608.276-.888.192-.288.472-.524.84-.708.376-.184.84-.276 1.392-.276.432 0 .808.056 1.128.168.32.104.584.236.792.396.216.16.38.324.492.492.112.16.172.3.18.42a.257.257 0 0 1-.072.216.287.287 0 0 1-.192.072h-.888a.238.238 0 0 1-.108-.024.63.63 0 0 1-.096-.06 10.8 10.8 0 0 0-.288-.252 1.478 1.478 0 0 0-.384-.228c-.144-.072-.336-.108-.576-.108-.304 0-.536.068-.696.204a.602.602 0 0 0-.24.492c0 .136.036.256.108.36.08.096.236.188.468.276.232.088.584.18 1.056.276.536.096.96.24 1.272.432.32.184.544.4.672.648.136.24.204.508.204.804 0 .36-.108.684-.324.972-.208.288-.52.516-.936.684-.408.16-.916.24-1.524.24Zm4.083 2.16a.278.278 0 0 1-.204-.084.278.278 0 0 1-.084-.204v-7.944c0-.08.028-.148.084-.204a.278.278 0 0 1 .204-.084h.948c.088 0 .156.028.204.084a.278.278 0 0 1 .084.204v.48c.192-.256.444-.468.756-.636.312-.168.7-.252 1.164-.252.424 0 .792.068 1.104.204.312.136.572.332.78.588.208.248.368.544.48.888.112.344.176.724.192 1.14a7.155 7.155 0 0 1 0 .852c-.008.4-.068.772-.18 1.116a2.672 2.672 0 0 1-.492.888 2.21 2.21 0 0 1-.78.588c-.312.144-.68.216-1.104.216-.432 0-.8-.076-1.104-.228a2.186 2.186 0 0 1-.744-.624v2.724c0 .08-.028.148-.084.204a.254.254 0 0 1-.204.084h-1.02Zm2.712-3.444c.344 0 .612-.072.804-.216.192-.152.328-.348.408-.588.088-.24.14-.504.156-.792.016-.24.016-.48 0-.72a2.73 2.73 0 0 0-.156-.792 1.158 1.158 0 0 0-.408-.576c-.192-.152-.46-.228-.804-.228-.328 0-.596.076-.804.228-.2.152-.348.348-.444.588-.088.232-.14.472-.156.72a8.235 8.235 0 0 0 0 .924c.008.24.064.472.168.696.104.216.256.396.456.54.2.144.46.216.78.216Zm5.931 1.284a2.59 2.59 0 0 1-1.128-.24 2.193 2.193 0 0 1-.804-.66 1.618 1.618 0 0 1-.288-.936c0-.56.224-1.004.672-1.332.456-.336 1.056-.56 1.8-.672l1.644-.24v-.252c0-.336-.084-.596-.252-.78-.168-.184-.456-.276-.864-.276-.288 0-.524.06-.708.18a1.045 1.045 0 0 0-.396.456.306.306 0 0 1-.276.156h-.948c-.088 0-.156-.024-.204-.072a.29.29 0 0 1-.06-.192c.008-.128.06-.284.156-.468.096-.184.248-.36.456-.528.208-.176.476-.324.804-.444.328-.12.724-.18 1.188-.18.504 0 .928.064 1.272.192.352.12.632.284.84.492.208.208.36.452.456.732.096.28.144.576.144.888v3.768c0 .08-.028.148-.084.204a.278.278 0 0 1-.204.084h-.972a.292.292 0 0 1-.216-.084.303.303 0 0 1-.072-.204v-.468a1.935 1.935 0 0 1-.42.432 2.451 2.451 0 0 1-.648.324c-.248.08-.544.12-.888.12Zm.408-1.14c.28 0 .532-.06.756-.18.232-.12.412-.304.54-.552.136-.256.204-.576.204-.96v-.252l-1.2.192c-.472.072-.824.188-1.056.348-.232.16-.348.356-.348.588a.7.7 0 0 0 .156.456 1.1 1.1 0 0 0 .42.276c.168.056.344.084.528.084Zm7.095 1.14c-.576 0-1.084-.108-1.524-.324a2.453 2.453 0 0 1-1.02-.936c-.24-.416-.372-.916-.396-1.5a7.326 7.326 0 0 1-.012-.468c0-.2.004-.364.012-.492.024-.584.156-1.08.396-1.488a2.43 2.43 0 0 1 1.02-.948c.44-.216.948-.324 1.524-.324.512 0 .948.072 1.308.216.36.144.656.324.888.54.232.216.404.444.516.684.12.232.184.444.192.636a.242.242 0 0 1-.084.216.303.303 0 0 1-.204.072h-1.056a.29.29 0 0 1-.192-.06.698.698 0 0 1-.12-.18c-.12-.32-.28-.544-.48-.672-.192-.136-.44-.204-.744-.204-.4 0-.72.128-.96.384-.232.248-.356.644-.372 1.188a7.343 7.343 0 0 0 0 .84c.016.552.14.952.372 1.2.24.248.56.372.96.372.312 0 .564-.064.756-.192.192-.136.348-.364.468-.684.04-.08.08-.14.12-.18a.29.29 0 0 1 .192-.06h1.056c.08 0 .148.028.204.084.064.048.092.116.084.204a1.622 1.622 0 0 1-.12.492c-.064.176-.172.36-.324.552a2.646 2.646 0 0 1-.552.516 2.962 2.962 0 0 1-.816.372 3.724 3.724 0 0 1-1.092.144Zm4.204-.12a.278.278 0 0 1-.204-.084.278.278 0 0 1-.084-.204v-5.664c0-.08.028-.148.084-.204a.278.278 0 0 1 .204-.084h.996c.088 0 .156.028.204.084a.278.278 0 0 1 .084.204v5.664c0 .08-.028.148-.084.204a.254.254 0 0 1-.204.084h-.996Zm-.048-7.272a.32.32 0 0 1-.216-.072.32.32 0 0 1-.072-.216v-.864c0-.08.024-.148.072-.204a.292.292 0 0 1 .216-.084h1.092c.088 0 .16.028.216.084a.278.278 0 0 1 .084.204v.864c0 .088-.028.16-.084.216a.32.32 0 0 1-.216.072h-1.092ZM460.56 158a.278.278 0 0 1-.204-.084.278.278 0 0 1-.084-.204v-5.664c0-.08.028-.148.084-.204a.278.278 0 0 1 .204-.084h.984c.08 0 .148.028.204.084a.278.278 0 0 1 .084.204v.492c.208-.256.472-.468.792-.636.328-.176.732-.264 1.212-.264.488 0 .912.112 1.272.336.36.216.636.524.828.924.2.4.3.88.3 1.44v3.372c0 .08-.028.148-.084.204a.278.278 0 0 1-.204.084h-1.056a.278.278 0 0 1-.204-.084.278.278 0 0 1-.084-.204v-3.3c0-.464-.116-.828-.348-1.092-.224-.264-.552-.396-.984-.396-.416 0-.748.132-.996.396s-.372.628-.372 1.092v3.3c0 .08-.028.148-.084.204a.278.278 0 0 1-.204.084h-1.056Zm9.78 2.64c-.584 0-1.064-.076-1.44-.228-.376-.152-.672-.336-.888-.552a2.198 2.198 0 0 1-.468-.648 1.652 1.652 0 0 1-.144-.492.275.275 0 0 1 .072-.216.32.32 0 0 1 .216-.084h1.044c.08 0 .144.016.192.048.048.04.088.108.12.204.048.104.112.216.192.336.08.12.2.22.36.3.168.088.396.132.684.132.304 0 .56-.044.768-.132a.904.904 0 0 0 .468-.444c.112-.208.168-.496.168-.864v-.816c-.192.232-.44.42-.744.564-.296.144-.664.216-1.104.216-.432 0-.804-.068-1.116-.204a2.21 2.21 0 0 1-.78-.588 2.772 2.772 0 0 1-.48-.9 4.536 4.536 0 0 1-.18-1.14 8.751 8.751 0 0 1 0-.648c.016-.4.076-.772.18-1.116.104-.344.26-.644.468-.9.216-.264.48-.468.792-.612.312-.144.684-.216 1.116-.216.456 0 .84.088 1.152.264.312.168.568.38.768.636v-.48c0-.088.028-.16.084-.216a.278.278 0 0 1 .204-.084h.972c.08 0 .148.028.204.084a.292.292 0 0 1 .084.216l.012 5.784c0 .576-.108 1.072-.324 1.488a2.198 2.198 0 0 1-.984.96c-.432.232-.988.348-1.668.348Zm-.06-3.948c.328 0 .592-.072.792-.216.2-.144.348-.332.444-.564a2.23 2.23 0 0 0 .168-.708 5.34 5.34 0 0 0 .012-.396c0-.16-.004-.288-.012-.384a2.132 2.132 0 0 0-.168-.708 1.287 1.287 0 0 0-.444-.564c-.2-.152-.464-.228-.792-.228s-.592.076-.792.228c-.2.144-.344.336-.432.576-.08.24-.128.504-.144.792a3.607 3.607 0 0 0 0 .588c.016.28.064.544.144.792.088.24.232.432.432.576.2.144.464.216.792.216Z" fill="#33BF9E"/></svg>