<?xml version="1.0" encoding="UTF-8" standalone="no"?>
<svg width="40px" height="47px" viewBox="0 0 40 47" version="1.1" xmlns="http://www.w3.org/2000/svg" xmlns:xlink="http://www.w3.org/1999/xlink">
    <!-- Generator: Sketch 3.8.3 (29802) - http://www.bohemiancoding.com/sketch -->
    <title>android</title>
    <desc>Created with Sketch.</desc>
    <defs></defs>
    <g id="Page-1" stroke="none" stroke-width="1" fill="none" fill-rule="evenodd">
        <g id="android" transform="translate(-4.000000, 0.000000)">
            <rect id="Rectangle-49-Copy" fill-opacity="0" fill="#FFFFFF" x="0" y="0" width="48" height="48"></rect>
            <g id="Group-2" transform="translate(4.000000, 0.000000)">
                <g id="Page-1">
                    <path d="M22.0001161,37.9999552 L18,37.9999552 L18,45.3324665 C18,46.773302 16.6565529,46.9999645 15,46.9999645 C13.3430257,46.9999645 12,46.773302 12,45.3324665 L12,37.9999552 L8.55729167,37.9999552 C7.69770714,37.9999552 7,37.3185957 7,36.4782142 L7,16.5217228 C7,15.6813413 7.69770714,14.9999818 8.55729167,14.9999818 L31.4434866,14.9999818 C32.3030711,14.9999818 33,15.6813413 33,16.5217228 L33,36.4782142 C33,37.3185957 32.3030711,37.9999552 31.4434866,37.9999552 L28.0001161,37.9999552 L28.0001161,45.3325217 C28.0001161,46.7733572 26.656669,47.0000197 25.0001161,47.0000197 C23.3431418,47.0000197 22.0001161,46.7733572 22.0001161,45.3325217 L22.0001161,37.9999552 Z M26.2022543,4.16532315 C32.7391185,6.99535976 33.0006452,13.9999841 33.0006452,13.9999841 L7.00064516,13.9999841 C7.00064516,13.9999841 7.1784529,7.2180624 13.3760488,4.30454892 L11.00675,0.960559393 C10.9490191,0.878855659 11.0326799,0.72034063 11.1941306,0.605857554 C11.3536243,0.492842209 11.53122,0.46544455 11.5894401,0.547637528 L14.0458759,4.01461072 C15.6421072,3.38058739 17.599716,2.99274027 20.0004493,3.00009975 C22.1871087,3.00679891 24.0063561,3.3429388 25.519856,3.89388992 L28.049655,0.320144781 C28.1078276,0.237944573 28.2852785,0.265344643 28.4446422,0.378369928 C28.6059612,0.492863074 28.6895538,0.651392046 28.63187,0.733102967 L26.2022543,4.16532315 Z M6.00011613,30.2282488 C6.00011613,31.7591347 4.65676337,32.9999621 2.99990544,32.9999621 C1.34304751,32.9999621 0.000116129032,31.7591347 0.000116129032,30.2282488 L0.000116129032,17.7720857 C0.000116129032,16.2411997 1.34304751,14.999983 2.99990544,14.999983 C4.65676337,14.999983 6.00011613,16.2411997 6.00011613,17.7720857 L6.00011613,30.2282488 Z M40.0001161,30.2282488 C40.0001161,31.7591347 38.6567634,32.9999621 36.9999054,32.9999621 C35.3430475,32.9999621 34.0001161,31.7591347 34.0001161,30.2282488 L34.0001161,17.7720857 C34.0001161,16.2411997 35.3430475,14.999983 36.9999054,14.999983 C38.6567634,14.999983 40.0001161,16.2411997 40.0001161,17.7720857 L40.0001161,30.2282488 Z" id="Combined-Shape" fill="#6F7E94"></path>
                    <path d="M14.5,10.0611226 C13.6715465,10.0611226 13,9.38957603 13,8.56112258 C13,7.73266913 13.6715465,7.06112258 14.5,7.06112258 C15.3280781,7.06112258 16,7.73266913 16,8.56112258 C16,9.38957603 15.3280781,10.0611226 14.5,10.0611226 Z" id="Fill-8" fill="#FFFFFF"></path>
                    <path d="M25.5,10 C24.6715465,10 24,9.32845345 24,8.5 C24,7.67154655 24.6715465,7 25.5,7 C26.3277027,7 27,7.67154655 27,8.5 C27,9.32845345 26.3277027,10 25.5,10 Z" id="Fill-9" fill="#FFFFFF"></path>
                </g>
            </g>
        </g>
    </g>
</svg>