<?xml version="1.0" encoding="UTF-8" standalone="no"?>
<svg width="36px" height="48px" viewBox="0 0 36 48" version="1.1" xmlns="http://www.w3.org/2000/svg" xmlns:xlink="http://www.w3.org/1999/xlink">
    <!-- Generator: Sketch 3.8.3 (29802) - http://www.bohemiancoding.com/sketch -->
    <title>android-tablet</title>
    <desc>Created with Sketch.</desc>
    <defs></defs>
    <g id="Page-1" stroke="none" stroke-width="1" fill="none" fill-rule="evenodd">
        <g id="android-tablet" transform="translate(-6.000000, 0.000000)">
            <rect id="Rectangle-71" fill-opacity="0" fill="#FFFFFF" x="0" y="0" width="48" height="48"></rect>
            <g id="Group-5" transform="translate(6.000000, 0.000000)">
                <rect id="Rectangle-200" fill="#6F7E94" x="0" y="0" width="36" height="48" rx="2"></rect>
                <rect id="Rectangle-201" fill="#FFFFFF" x="2" y="7" width="32" height="34"></rect>
                <g id="android" transform="translate(13.000000, 19.000000)" fill="#6F7E94">
                    <g id="Group-2">
                        <g id="Page-1">
                            <path d="M6.08678431,8.0681395 L3.91324472,8.0681395 L3.91324472,10.3331166 C3.91324472,10.6933255 3.70876206,10.7499911 3.45662236,10.7499911 C3.20441852,10.7499911 3,10.6933255 3,10.3331166 L3,8.0681395 L2.35940403,8.0681395 C2.16103837,8.0681395 2.00002903,7.94964206 2.00002903,7.80348859 L2.00002903,4.33279041 C2.00002903,4.18663695 2.16103837,4.0681395 2.35940403,4.0681395 L7.64083363,4.0681395 C7.83919929,4.0681395 8.00002903,4.18663695 8.00002903,4.33279041 L8.00002903,7.80348859 C8.00002903,7.94964206 7.83919929,8.0681395 7.64083363,8.0681395 L7.00002903,8.0681395 L7.00002903,10.3331304 C7.00002903,10.6933393 6.79554637,10.7500049 6.54340667,10.7500049 C6.29120283,10.7500049 6.08678431,10.6933393 6.08678431,10.3331304 L6.08678431,8.0681395 Z M0.913273755,7.5570622 C0.913273755,7.93978368 0.708805451,8.24999054 0.456619325,8.24999054 C0.204433199,8.24999054 2.9032258e-05,7.93978368 2.9032258e-05,7.5570622 L2.9032258e-05,4.44302142 C2.9032258e-05,4.06029993 0.204433199,3.74999574 0.456619325,3.74999574 C0.708805451,3.74999574 0.913273755,4.06029993 0.913273755,4.44302142 L0.913273755,7.5570622 Z M10.000029,7.5570622 C10.000029,7.93978368 9.79556073,8.24999054 9.5433746,8.24999054 C9.29118848,8.24999054 9.08678431,7.93978368 9.08678431,7.5570622 L9.08678431,4.44302142 C9.08678431,4.06029993 9.29118848,3.74999574 9.5433746,3.74999574 C9.79556073,3.74999574 10.000029,4.06029993 10.000029,4.44302142 L10.000029,7.5570622 Z M2.00002903,3 C2.00002903,3 2.0668172,-0.0105984514 4.99998384,2.80652804e-05 C7.90558568,0.0105483168 8.00002903,3 8.00002903,3 L2.00002903,3 Z" id="Combined-Shape"></path>
                        </g>
                    </g>
                </g>
                <rect id="Rectangle-69" fill="#A8B1BE" x="15" y="18" width="1" height="1"></rect>
                <rect id="Rectangle-69-Copy" fill="#A8B1BE" x="20" y="18" width="1" height="1"></rect>
                <rect id="Rectangle-203-Copy-2" fill="#FFFFFF" x="15" y="44" width="6" height="1"></rect>
                <rect id="Rectangle-203-Copy-3" fill="#FFFFFF" x="15" y="3" width="6" height="1"></rect>
            </g>
        </g>
    </g>
</svg>