<?xml version="1.0" encoding="UTF-8"?>
<svg width="48px" height="48px" viewBox="0 0 48 48" version="1.1" xmlns="http://www.w3.org/2000/svg" xmlns:xlink="http://www.w3.org/1999/xlink">
    <!-- Generator: Sketch 41.1 (35376) - http://www.bohemiancoding.com/sketch -->
    <title>iphone</title>
    <desc>Created with Sketch.</desc>
    <defs></defs>
    <g id="Page-1" stroke="none" stroke-width="1" fill="none" fill-rule="evenodd">
        <g id="iphone">
            <rect id="Bounding-box" fill-opacity="0" fill="#FFFFFF" x="0" y="0" width="48" height="48"></rect>
            <g id="iPhone" transform="translate(10.000000, 0.000000)">
                <path d="M2,5.0010033 L2,42.9989967 C2,44.6584823 3.34360083,46 5.00583887,46 L22.9941611,46 C24.6529911,46 26,44.6548187 26,42.9989967 L26,5.0010033 C26,3.34151772 24.6563992,2 22.9941611,2 L5.00583887,2 C3.34700892,2 2,3.34518135 2,5.0010033 Z M0,5.0010033 C0,2.23902544 2.24402624,0 5.00583887,0 L22.9941611,0 C25.7588096,0 28,2.23479023 28,5.0010033 L28,42.9989967 C28,45.7609746 25.7559738,48 22.9941611,48 L5.00583887,48 C2.2411904,48 0,45.7652098 0,42.9989967 L0,5.0010033 Z" id="Rectangle-2" fill="#777088"></path>
                <path d="M14.4140356,18.8702239 C15.0588035,18.0042383 15.9552011,18 15.9552011,18 C15.9552011,18 16.088504,18.8141891 15.4479921,19.5985126 C14.7640506,20.4359961 13.9866407,20.2989563 13.9866407,20.2989563 C13.9866407,20.2989563 13.8406829,19.6403046 14.4140356,18.8702239 Z M14.0686505,20.8692994 C14.4003684,20.8692994 15.0159737,20.4046586 15.8172908,20.4046586 C17.1966195,20.4046586 17.7392298,21.4048255 17.7392298,21.4048255 C17.7392298,21.4048255 16.6779486,21.9577487 16.6779486,23.2994308 C16.6779486,24.8129629 18,25.3345748 18,25.3345748 C18,25.3345748 17.0758262,27.9853136 15.8275436,27.9853136 C15.2541909,27.9853136 14.8084828,27.5915748 14.2043716,27.5915748 C13.5887662,27.5915748 12.9778359,28 12.5799582,28 C11.4400719,28 10,25.4855289 10,23.4643319 C10,21.475711 11.2189428,20.43252 12.3622467,20.43252 C13.1054805,20.43252 13.6822508,20.8692994 14.0686505,20.8692994 Z" id="Apple" fill="#777088"></path>
                <rect id="Screen" fill="#777088" x="3" y="8" width="22" height="32"></rect>
                <rect id="Home-btn-Copy" fill="#777088" x="12" y="41" width="4" height="4" rx="2"></rect>
                <rect id="Mic" fill="#777088" x="13" y="4" width="5" height="2" rx="1"></rect>
                <rect id="Camera" fill="#777088" x="10" y="4" width="2" height="2" rx="1"></rect>
                <path d="M14.4140356,18.8702239 C15.0588035,18.0042383 15.9552011,18 15.9552011,18 C15.9552011,18 16.088504,18.8141891 15.4479921,19.5985126 C14.7640506,20.4359961 13.9866407,20.2989563 13.9866407,20.2989563 C13.9866407,20.2989563 13.8406829,19.6403046 14.4140356,18.8702239 Z M14.0686505,20.8692994 C14.4003684,20.8692994 15.0159737,20.4046586 15.8172908,20.4046586 C17.1966195,20.4046586 17.7392298,21.4048255 17.7392298,21.4048255 C17.7392298,21.4048255 16.6779486,21.9577487 16.6779486,23.2994308 C16.6779486,24.8129629 18,25.3345748 18,25.3345748 C18,25.3345748 17.0758262,27.9853136 15.8275436,27.9853136 C15.2541909,27.9853136 14.8084828,27.5915748 14.2043716,27.5915748 C13.5887662,27.5915748 12.9778359,28 12.5799582,28 C11.4400719,28 10,25.4855289 10,23.4643319 C10,21.475711 11.2189428,20.43252 12.3622467,20.43252 C13.1054805,20.43252 13.6822508,20.8692994 14.0686505,20.8692994 Z" id="Apple" fill="#FFFFFF"></path>
            </g>
        </g>
    </g>
</svg>