<?xml version="1.0" encoding="UTF-8"?>
<svg width="48px" height="48px" viewBox="0 0 48 48" version="1.1" xmlns="http://www.w3.org/2000/svg" xmlns:xlink="http://www.w3.org/1999/xlink">
    <!-- Generator: Sketch 41.1 (35376) - http://www.bohemiancoding.com/sketch -->
    <title>Generic</title>
    <desc>Created with Sketch.</desc>
    <defs>
        <path d="M0,10.0039454 C0,4.47891891 4.47261992,0 10.0039454,0 L37.9960546,0 C43.5210811,0 48,4.47832784 48,10.0016641 L48,32.4526361 L48,37.9997457 C48,43.5227337 43.5273801,48 37.9960546,48 L10.0039454,48 C4.47891891,48 0,43.5273801 0,37.9960546 L0,10.0039454 Z" id="path-1"></path>
        <mask id="mask-2" maskContentUnits="userSpaceOnUse" maskUnits="objectBoundingBox" x="0" y="0" width="48" height="48" fill="white">
            <use xlink:href="#path-1"></use>
        </mask>
    </defs>
    <g id="Page-1" stroke="none" stroke-width="1" fill="none" fill-rule="evenodd">
        <g id="Generic">
            <use id="border" stroke="#777088" mask="url(#mask-2)" stroke-width="4" stroke-dasharray="4,4" xlink:href="#path-1"></use>
            <path d="M24.7645399,29.4647273 L22.6294435,29.4647273 L22.6294435,27.6346446 C22.6294435,27.0652828 22.6955292,26.551848 22.8277025,26.0943251 C22.9598758,25.6368021 23.1428822,25.2250376 23.3767273,24.8590193 C23.6105723,24.493001 23.8749149,24.1625727 24.1697631,23.8677245 C24.4646113,23.5728763 24.7645384,23.2831162 25.0695537,22.9984353 L25.9235923,22.2359008 C26.4319511,21.8292138 26.8538826,21.3615307 27.1893994,20.8328375 C27.5249163,20.3041443 27.6926722,19.6432877 27.6926722,18.8502479 C27.6926722,18.2808861 27.5910019,17.7725349 27.3876584,17.3251791 C27.1843149,16.8778232 26.9098053,16.5016434 26.5641212,16.1966281 C26.2184372,15.8916128 25.8168398,15.6577712 25.3593168,15.4950964 C24.9017939,15.3324216 24.4086932,15.2510854 23.88,15.2510854 C22.7819449,15.2510854 21.8923303,15.5865972 21.2111295,16.2576309 C20.5299286,16.9286645 20.1079971,17.7826945 19.9453223,18.8197466 L17.8712287,18.45373 C18.1762439,16.8676505 18.8726851,15.6221901 19.960573,14.7173113 C21.0484609,13.8124325 22.3854246,13.36 23.9715041,13.36 C24.7848783,13.36 25.5524886,13.4769208 26.2743581,13.7107658 C26.9962276,13.9446109 27.6214996,14.2902897 28.1501928,14.7478127 C28.678886,15.2053356 29.1008176,15.7696055 29.416,16.4406391 C29.7311824,17.1116727 29.8887713,17.8741995 29.8887713,18.7282424 C29.8887713,19.3789418 29.8176022,19.9482951 29.6752617,20.4363196 C29.5329212,20.924344 29.3346643,21.3615261 29.0804848,21.7478788 C28.8263054,22.1342315 28.5263783,22.4849939 28.1806942,22.8001763 C27.8350102,23.1153587 27.4689973,23.43562 27.0826446,23.7609697 C26.6556232,24.1066538 26.2946939,24.4218315 25.9998457,24.7065124 C25.7049976,24.9911933 25.4660725,25.2911206 25.2830634,25.606303 C25.1000542,25.9214855 24.9678828,26.2722479 24.8865455,26.6586006 C24.8052081,27.0449532 24.7645399,27.5126363 24.7645399,28.0616639 L24.7645399,29.4647273 Z M25.5575758,33.8569256 C25.5575758,34.2839471 25.4050704,34.6652105 25.1000551,35.0007273 C24.7950398,35.3362441 24.3985258,35.504 23.9105014,35.504 C23.4224769,35.504 23.025963,35.3362441 22.7209477,35.0007273 C22.4159324,34.6652105 22.263427,34.2839471 22.263427,33.8569256 C22.263427,33.4299042 22.4159324,33.0486408 22.7209477,32.713124 C23.025963,32.3776072 23.4224769,32.2098512 23.9105014,32.2098512 C24.3985258,32.2098512 24.7950398,32.3776072 25.1000551,32.713124 C25.4050704,33.0486408 25.5575758,33.4299042 25.5575758,33.8569256 L25.5575758,33.8569256 Z" id="?" fill="#777088"></path>
        </g>
    </g>
</svg>