<?xml version="1.0" encoding="UTF-8" standalone="no"?>
<svg width="48px" height="48px" viewBox="0 0 48 48" version="1.1" xmlns="http://www.w3.org/2000/svg" xmlns:xlink="http://www.w3.org/1999/xlink">
    <!-- Generator: Sketch 3.8.3 (29802) - http://www.bohemiancoding.com/sketch -->
    <title>unknown</title>
    <desc>Created with Sketch.</desc>
    <defs>
        <rect id="path-1" x="0" y="0" width="48" height="48" rx="10"></rect>
        <mask id="mask-2" maskContentUnits="userSpaceOnUse" maskUnits="objectBoundingBox" x="0" y="0" width="48" height="48" fill="white">
            <use xlink:href="#path-1"></use>
        </mask>
    </defs>
    <g id="Page-1" stroke="none" stroke-width="1" fill="none" fill-rule="evenodd">
        <g id="unknown">
            <g id="Group-3" stroke="#9FA7B6" stroke-width="2" fill="#FFFFFF" stroke-dasharray="4,4">
                <use id="Rectangle-79" mask="url(#mask-2)" xlink:href="#path-1"></use>
            </g>
            <path d="M24.576,28.392 L22.896,28.392 L22.896,26.952 C22.896,26.5039978 22.9479995,26.1000018 23.052,25.74 C23.1560005,25.3799982 23.2999991,25.0560014 23.484,24.768 C23.6680009,24.4799986 23.8759988,24.2200012 24.108,23.988 C24.3400012,23.7559988 24.5759988,23.5280011 24.816,23.304 L25.488,22.704 C25.888002,22.3839984 26.2199987,22.0160021 26.484,21.6 C26.7480013,21.1839979 26.88,20.6640031 26.88,20.04 C26.88,19.5919978 26.8000008,19.1920018 26.64,18.84 C26.4799992,18.4879982 26.2640014,18.1920012 25.992,17.952 C25.7199986,17.7119988 25.4040018,17.5280006 25.044,17.4 C24.6839982,17.2719994 24.2960021,17.208 23.88,17.208 C23.0159957,17.208 22.3160027,17.4719974 21.78,18 C21.2439973,18.5280026 20.9120006,19.1999959 20.784,20.016 L19.152,19.728 C19.3920012,18.4799938 19.9399957,17.5000036 20.796,16.788 C21.6520043,16.0759964 22.7039938,15.72 23.952,15.72 C24.5920032,15.72 25.1959972,15.8119991 25.764,15.996 C26.3320028,16.1800009 26.8239979,16.4519982 27.24,16.812 C27.6560021,17.1720018 27.9879988,17.6159974 28.236,18.144 C28.4840012,18.6720026 28.608,19.2719966 28.608,19.944 C28.608,20.4560026 28.5520006,20.9039981 28.44,21.288 C28.3279994,21.6720019 28.172001,22.0159985 27.972,22.32 C27.771999,22.6240015 27.5360014,22.8999988 27.264,23.148 C26.9919986,23.3960012 26.7040015,23.6479987 26.4,23.904 C26.0639983,24.1760014 25.7800012,24.4239989 25.548,24.648 C25.3159988,24.8720011 25.1280007,25.1079988 24.984,25.356 C24.8399993,25.6040012 24.7360003,25.8799985 24.672,26.184 C24.6079997,26.4880015 24.576,26.8559978 24.576,27.288 L24.576,28.392 Z M25.2,31.848 C25.2,32.1840017 25.0800012,32.4839987 24.84,32.748 C24.5999988,33.0120013 24.2880019,33.144 23.904,33.144 C23.5199981,33.144 23.2080012,33.0120013 22.968,32.748 C22.7279988,32.4839987 22.608,32.1840017 22.608,31.848 C22.608,31.5119983 22.7279988,31.2120013 22.968,30.948 C23.2080012,30.6839987 23.5199981,30.552 23.904,30.552 C24.2880019,30.552 24.5999988,30.6839987 24.84,30.948 C25.0800012,31.2120013 25.2,31.5119983 25.2,31.848 L25.2,31.848 Z" id="?" fill="#7F8FA5"></path>
        </g>
    </g>
</svg>