<svg id="aa067ca9-e656-4864-8315-5433e0f74112" data-name="Logos" xmlns="http://www.w3.org/2000/svg" viewBox="0 0 80 80"><title>logo-amazon</title><path id="a73b067b-496b-4d7b-b992-be917b3a369a" data-name="path8" d="M49.63,46.8C45,50.23,38.24,52.05,32.44,52.05a31.09,31.09,0,0,1-21-8c-.43-.39,0-.93.48-.62a42.25,42.25,0,0,0,21,5.57,41.74,41.74,0,0,0,16-3.28c.79-.33,1.45.52.68,1.09" style="fill:#f90;fill-rule:evenodd"/><path id="f75529ab-6b2f-49c2-b13d-7efb683c974c" data-name="path10" d="M51.56,44.59c-.59-.76-3.92-.36-5.42-.18-.46.05-.53-.34-.12-.63,2.66-1.87,7-1.33,7.53-.7s-.13,5-2.63,7.08c-.38.32-.75.15-.58-.27.56-1.4,1.82-4.54,1.22-5.3" style="fill:#f90;fill-rule:evenodd"/><path id="b4bb3e25-5d17-4a88-90fd-605366cc911b" data-name="path12" d="M46.24,30.58V28.76a.45.45,0,0,1,.46-.46h8.14a.45.45,0,0,1,.47.46v1.56a2.51,2.51,0,0,1-.61,1.14l-4.22,6a9,9,0,0,1,4.64,1,.81.81,0,0,1,.43.7v1.94c0,.27-.29.58-.6.42a9.34,9.34,0,0,0-8.59,0c-.29.15-.58-.15-.58-.42V39.29a2.18,2.18,0,0,1,.3-1.25L51,31H46.71a.45.45,0,0,1-.47-.45" style="fill-rule:evenodd"/><path id="e1376a3b-75a7-4c0a-8cc6-ccd449d30c3e" data-name="path14" d="M16.56,41.92H14.08a.45.45,0,0,1-.44-.42V28.79a.46.46,0,0,1,.47-.45h2.31a.46.46,0,0,1,.45.42v1.66h.05a3.4,3.4,0,0,1,6.47,0,3.66,3.66,0,0,1,6.29-1c.78,1.07.62,2.62.62,4v8a.47.47,0,0,1-.48.46H27.35a.48.48,0,0,1-.45-.46V34.73a15.79,15.79,0,0,0-.07-2.39,1.29,1.29,0,0,0-1.45-1.09,1.64,1.64,0,0,0-1.48,1,7.56,7.56,0,0,0-.23,2.44v6.73a.47.47,0,0,1-.48.46H20.72a.48.48,0,0,1-.45-.46V34.73c0-1.42.23-3.51-1.53-3.51S17,33.26,17,34.73v6.73a.46.46,0,0,1-.47.46" style="fill-rule:evenodd"/><path id="b01a1898-aea6-48df-a202-67b2d37534a7" data-name="path16" d="M62.32,28.07C66,28.07,68,31.22,68,35.23s-2.2,7-5.66,7S56.74,39,56.74,35.1s2-7,5.58-7m0,2.59c-1.83,0-1.94,2.49-1.94,4s0,4.87,1.92,4.87,2-2.68,2-4.31A11.9,11.9,0,0,0,64,31.89a1.56,1.56,0,0,0-1.62-1.23" style="fill-rule:evenodd"/><path id="b4aa696b-4b5e-400e-a97a-c8456e02f4c0" data-name="path18" d="M72.74,41.92H70.28a.48.48,0,0,1-.45-.46V28.75a.46.46,0,0,1,.48-.41H72.6a.46.46,0,0,1,.44.35v1.94h0c.69-1.73,1.66-2.56,3.37-2.56a3.24,3.24,0,0,1,2.89,1.5c.65,1,.65,2.72.65,4v8a.48.48,0,0,1-.48.4H77a.47.47,0,0,1-.44-.4v-6.9c0-1.39.16-3.43-1.55-3.43a1.63,1.63,0,0,0-1.43,1,5.61,5.61,0,0,0-.39,2.41v6.84a.48.48,0,0,1-.49.46" style="fill-rule:evenodd"/><path id="e18d3c1b-8d30-45d3-abe9-58d947032633" data-name="path28" d="M39.75,35.85a4.83,4.83,0,0,1-.46,2.63,2,2,0,0,1-1.71,1.12c-.95,0-1.51-.72-1.51-1.79,0-2.11,1.89-2.5,3.68-2.5v.54m2.5,6a.51.51,0,0,1-.58,0,5.6,5.6,0,0,1-1.42-1.65,4.91,4.91,0,0,1-4.09,1.8,3.51,3.51,0,0,1-3.7-3.85,4.21,4.21,0,0,1,2.64-4.05,17.05,17.05,0,0,1,4.65-.86V33a3.12,3.12,0,0,0-.3-1.79,1.65,1.65,0,0,0-1.39-.65,1.9,1.9,0,0,0-2,1.49.51.51,0,0,1-.43.45l-2.4-.26a.44.44,0,0,1-.37-.52c.55-2.91,3.19-3.78,5.54-3.78a5.61,5.61,0,0,1,3.73,1.23c1.2,1.12,1.09,2.62,1.09,4.26V37.3a3.39,3.39,0,0,0,.93,2.29.47.47,0,0,1,0,.66c-.5.42-1.4,1.2-1.9,1.64h0" style="fill-rule:evenodd"/><path id="b864e410-3e97-4c82-80fd-5a8a6e0fbfb0" data-name="path30" d="M7.3,35.85a4.84,4.84,0,0,1-.47,2.63A2,2,0,0,1,5.12,39.6c-1,0-1.51-.72-1.51-1.79,0-2.11,1.9-2.5,3.69-2.5v.54m2.49,6a.51.51,0,0,1-.58,0,5.91,5.91,0,0,1-1.42-1.65,4.89,4.89,0,0,1-4.08,1.8A3.51,3.51,0,0,1,0,38.24a4.21,4.21,0,0,1,2.64-4.05,17.06,17.06,0,0,1,4.66-.86V33A3.2,3.2,0,0,0,7,31.22a1.66,1.66,0,0,0-1.39-.65,1.9,1.9,0,0,0-2,1.49.51.51,0,0,1-.42.45L.78,32.25a.44.44,0,0,1-.37-.52C1,28.82,3.6,28,6,28a5.61,5.61,0,0,1,3.73,1.23c1.21,1.12,1.09,2.62,1.09,4.26V37.3a3.39,3.39,0,0,0,.93,2.29.47.47,0,0,1,0,.66c-.51.42-1.41,1.2-1.9,1.64h0" style="fill-rule:evenodd"/></svg>