<?xml version="1.0" encoding="UTF-8"?>
<svg width="48px" height="48px" viewBox="0 0 48 48" version="1.1" xmlns="http://www.w3.org/2000/svg" xmlns:xlink="http://www.w3.org/1999/xlink">
    <!-- Generator: Sketch 41.1 (35376) - http://www.bohemiancoding.com/sketch -->
    <title>ios</title>
    <desc>Created with Sketch.</desc>
    <defs></defs>
    <g id="Page-1" stroke="none" stroke-width="1" fill="none" fill-rule="evenodd">
        <g id="ios">
            <rect id="Bounding-box" fill-opacity="0" fill="#FFFFFF" x="0" y="0" width="48" height="48"></rect>
            <path d="M26.5184235,4.1770747 C29.6616669,0.0203440483 34.0316052,0 34.0316052,0 C34.0316052,0 34.6814572,3.90810746 31.5589613,7.67286034 C28.2247467,11.6927812 24.4348733,11.0349903 24.4348733,11.0349903 C24.4348733,11.0349903 23.723329,7.87346212 26.5184235,4.1770747 Z M24.834671,13.7726369 C26.4517958,13.7726369 29.4528718,11.5423614 33.3592925,11.5423614 C40.0835199,11.5423614 42.7287452,16.3431626 42.7287452,16.3431626 C42.7287452,16.3431626 37.5549992,18.9971935 37.5549992,25.4372676 C37.5549992,32.7022219 44,35.2059592 44,35.2059592 C44,35.2059592 39.4946529,47.9295055 33.4092751,47.9295055 C30.6141807,47.9295055 28.4413535,46.0395592 25.4963114,46.0395592 C22.4952353,46.0395592 19.51695,48 17.5772963,48 C12.0203505,48 5,35.9305385 5,26.228793 C5,16.6834128 10.9423459,11.6760959 16.5159525,11.6760959 C20.1392173,11.6760959 22.9509726,13.7726369 24.834671,13.7726369 Z" id="Apple" fill="#777088"></path>
        </g>
    </g>
</svg>