<?xml version="1.0" encoding="UTF-8"?>
<svg width="48px" height="48px" viewBox="0 0 48 48" version="1.1" xmlns="http://www.w3.org/2000/svg" xmlns:xlink="http://www.w3.org/1999/xlink">
    <!-- Generator: Sketch 41.1 (35376) - http://www.bohemiancoding.com/sketch -->
    <title>apple-tv</title>
    <desc>Created with Sketch.</desc>
    <defs>
        <rect id="path-1" x="0" y="0" width="48" height="48" rx="8"></rect>
        <mask id="mask-2" maskContentUnits="userSpaceOnUse" maskUnits="objectBoundingBox" x="0" y="0" width="48" height="48" fill="white">
            <use xlink:href="#path-1"></use>
        </mask>
    </defs>
    <g id="Page-1" stroke="none" stroke-width="1" fill="none" fill-rule="evenodd">
        <g id="apple-tv">
            <rect id="Bounding-box" fill-opacity="0" fill="#FFFFFF" x="0" y="0" width="48" height="48"></rect>
            <use id="Rectangle-2" stroke="#777088" mask="url(#mask-2)" stroke-width="4" fill="#777088" xlink:href="#path-1"></use>
            <path d="M16.1255146,16.2619329 C17.1663542,14.8639848 18.613396,14.8571429 18.613396,14.8571429 C18.613396,14.8571429 18.8285851,16.1714766 17.7946158,17.4375989 C16.6905388,18.7895365 15.4355771,18.5683152 15.4355771,18.5683152 C15.4355771,18.5683152 15.1999595,17.5050632 16.1255146,16.2619329 Z M15.5679643,19.4890118 C16.1034518,19.4890118 17.0972147,18.7389489 18.3907694,18.7389489 C20.6174,18.7389489 21.4933281,20.3535041 21.4933281,20.3535041 C21.4933281,20.3535041 19.780117,21.24608 19.780117,23.4119382 C19.780117,25.8552115 21.9142857,26.6972422 21.9142857,26.6972422 C21.9142857,26.6972422 20.4224052,30.976292 18.4073204,30.976292 C17.4817653,30.976292 16.762265,30.3406851 15.787057,30.3406851 C14.793294,30.3406851 13.807078,31 13.1647897,31 C11.3246875,31 9,26.9409251 9,23.6781357 C9,20.4679335 10.9677219,18.7839251 12.8133411,18.7839251 C14.0131328,18.7839251 14.9442048,19.4890118 15.5679643,19.4890118 Z" id="Apple" fill="#FFFFFF"></path>
            <path d="M28.9931396,29.99065 C28.274475,29.99065 27.7206252,29.7866712 27.3315737,29.3787075 C26.9425222,28.9707438 26.7479994,28.4074381 26.7479994,27.6887735 L26.7479994,23.0444944 L25.9050587,23.0444944 C25.7969888,23.0444944 25.70378,23.0093722 25.6254293,22.9391268 C25.5470787,22.8688814 25.5079039,22.7635148 25.5079039,22.623024 L25.5079039,21.8287145 L26.8452618,21.6098741 L27.2667321,19.3404184 C27.2883461,19.2323485 27.3383277,19.1485956 27.4166783,19.0891572 C27.495029,19.0297188 27.5936412,19 27.7125181,19 L28.7499836,19 L28.7499836,21.6179793 L30.9383873,21.6179793 L30.9383873,23.0444944 L28.7499836,23.0444944 L28.7499836,27.5509851 C28.7499836,27.8103528 28.8148245,28.0129807 28.9445084,28.158875 C29.0741922,28.3047694 29.2471014,28.3777154 29.4632411,28.3777154 C29.5875214,28.3777154 29.6915371,28.362856 29.7752913,28.3331368 C29.8590454,28.3034176 29.9319915,28.272348 29.9941316,28.239927 C30.0562718,28.2075061 30.1116568,28.1764365 30.1602882,28.1467172 C30.2089197,28.116998 30.2575504,28.1021386 30.3061818,28.1021386 C30.3656202,28.1021386 30.4142509,28.116998 30.4520754,28.1467172 C30.4898999,28.1764365 30.5304254,28.2210146 30.5736534,28.280453 L31.1734381,29.2530769 C30.8816495,29.4962341 30.5466379,29.6799501 30.1683934,29.8042305 C29.7901489,29.9285108 29.3984015,29.99065 28.9931396,29.99065 Z M36.7011839,29.8609669 L34.8856193,29.8609669 L31.5786981,21.5450325 L33.2402639,21.5450325 C33.3861582,21.5450325 33.5090858,21.5801547 33.6090505,21.6504001 C33.7090151,21.7206455 33.7779086,21.8098018 33.815733,21.9178717 L35.4205625,26.3595208 C35.5124219,26.6188885 35.5894205,26.8728489 35.6515607,27.1214095 C35.7137008,27.3699702 35.7690858,27.6185272 35.8177172,27.8670879 C35.8663487,27.6185272 35.9217337,27.3699702 35.9838738,27.1214095 C36.046014,26.8728489 36.1257143,26.6188885 36.2229772,26.3595208 L37.8683326,21.9178717 C37.9061571,21.8098018 37.9736997,21.7206455 38.0709626,21.6504001 C38.1682255,21.5801547 38.2843988,21.5450325 38.4194862,21.5450325 L40,21.5450325 L36.7011839,29.8609669 Z" id="tv" fill="#FFFFFF"></path>
        </g>
    </g>
</svg>