<?xml version="1.0" encoding="UTF-8"?>
<svg width="48px" height="48px" viewBox="0 0 48 48" version="1.1" xmlns="http://www.w3.org/2000/svg" xmlns:xlink="http://www.w3.org/1999/xlink">
    <!-- Generator: Sketch 41.1 (35376) - http://www.bohemiancoding.com/sketch -->
    <title>apple-watch</title>
    <desc>Created with Sketch.</desc>
    <defs></defs>
    <g id="Page-1" stroke="none" stroke-width="1" fill="none" fill-rule="evenodd">
        <g id="apple-watch">
            <rect id="Bounding-box" fill-opacity="0" fill="#FFFFFF" x="0" y="0" width="48" height="48"></rect>
            <path d="M13.1749766,2.88758194 C13.6306244,1.29281447 15.343312,0 16.9942021,0 L31.0057979,0 C32.6594501,0 34.3668308,1.28390789 34.8250234,2.88758194 L36,7 L12,7 L13.1749766,2.88758194 Z M12,41 L36,41 L34.8250234,45.1124181 C34.3693756,46.7071855 32.656688,48 31.0057979,48 L16.9942021,48 C15.3405499,48 13.6331692,46.7160921 13.1749766,45.1124181 L12,41 Z" id="Combined-Shape" fill="#777088"></path>
            <path d="M9,10.0069123 L9,37.9930877 C9,39.6583411 10.3406135,41 11.9985481,41 L36.0014519,41 C37.6609572,41 39,39.6574009 39,37.9930877 L39,10.0069123 C39,8.34165891 37.6593865,7 36.0014519,7 L11.9985481,7 C10.3390428,7 9,8.34259911 9,10.0069123 Z M41,19 L41,23 C41.5522847,23 42,23.444837 42,23.9955775 L42,33.0044225 C42,33.5542648 41.5561352,34 41,34 L41,37.9930877 C41,40.758329 38.769165,43 36.0014519,43 L11.9985481,43 C9.2379262,43 7,40.7647948 7,37.9930877 L7,10.0069123 C7,7.24167097 9.23083496,5 11.9985481,5 L36.0014519,5 C38.7620738,5 41,7.23520515 41,10.0069123 L41,12 L41.5,12 C42.3284271,12 43,12.6711894 43,13.5016756 L43,17.4983244 C43,18.3276769 42.3342028,19 41.5,19 L41,19 Z" id="Combined-Shape" fill="#777088"></path>
            <path d="M24.6210534,17.3053358 C25.5882052,16.0063575 26.9328016,16 26.9328016,16 C26.9328016,16 27.1327561,17.2212836 26.1719881,18.3977689 C25.1460759,19.6539941 23.979961,19.4484345 23.979961,19.4484345 C23.979961,19.4484345 23.7610243,18.4604569 24.6210534,17.3053358 Z M24.1029757,20.303949 C24.6005526,20.303949 25.5239606,19.6069879 26.7259362,19.6069879 C28.7949292,19.6069879 29.6088447,21.1072383 29.6088447,21.1072383 C29.6088447,21.1072383 28.0169228,21.936623 28.0169228,23.9491461 C28.0169228,26.2194443 30,27.0018622 30,27.0018622 C30,27.0018622 28.6137394,30.9779705 26.7413154,30.9779705 C25.8812864,30.9779705 25.2127242,30.3873622 24.3065574,30.3873622 C23.3831493,30.3873622 22.4667538,31 21.8699373,31 C20.1601078,31 18,27.2282933 18,24.1964978 C18,21.2135665 19.8284141,19.64878 21.54337,19.64878 C22.6582207,19.64878 23.5233762,20.303949 24.1029757,20.303949 Z" id="Apple" fill="#777088"></path>
        </g>
    </g>
</svg>