<?xml version="1.0" encoding="UTF-8"?>
<!-- Generator: Adobe Illustrator 21.0.0, SVG Export Plug-In . SVG Version: 6.00 Build 0)  -->
<svg version="1.1" id="Layer_1" xmlns="http://www.w3.org/2000/svg" xmlns:xlink="http://www.w3.org/1999/xlink" x="0px" y="0px" viewBox="0 0 193.2 206.7" style="enable-background:new 0 0 193.2 206.7;" xml:space="preserve">
<style type="text/css">
	.st0{fill:none;}
</style>
<g>
	<path d="M165.4,122l-50,49.9c-0.2,0.2-0.5,0.3-0.7,0.2l-68.3-18.3c-0.3-0.1-0.5-0.3-0.5-0.5L27.5,85.1c-0.1-0.3,0-0.5,0.2-0.7   l50-49.9c0.2-0.2,0.5-0.3,0.7-0.2l68.3,18.3c0.3,0.1,0.5,0.3,0.5,0.5l18.3,68.2C165.7,121.6,165.6,121.8,165.4,122z M98.4,67.7   L31.3,85.6c-0.1,0-0.2,0.2-0.1,0.3l49.1,49c0.1,0.1,0.3,0.1,0.3-0.1l18-67C98.7,67.8,98.5,67.6,98.4,67.7z"/>
	<g>
		<rect class="st0" width="193.2" height="206.7"/>
	</g>
</g>
</svg>