<?xml version="1.0" encoding="UTF-8"?>
<svg width="48px" height="48px" viewBox="0 0 48 48" version="1.1" xmlns="http://www.w3.org/2000/svg" xmlns:xlink="http://www.w3.org/1999/xlink">
    <!-- Generator: Sketch 41.1 (35376) - http://www.bohemiancoding.com/sketch -->
    <title>ipad</title>
    <desc>Created with Sketch.</desc>
    <defs>
        <rect id="path-1" x="0" y="0" width="36" height="48" rx="5"></rect>
        <mask id="mask-2" maskContentUnits="userSpaceOnUse" maskUnits="objectBoundingBox" x="0" y="0" width="36" height="48" fill="white">
            <use xlink:href="#path-1"></use>
        </mask>
    </defs>
    <g id="Page-1" stroke="none" stroke-width="1" fill="none" fill-rule="evenodd">
        <g id="ipad">
            <rect id="Bounding-box" fill-opacity="0" fill="#FFFFFF" x="0" y="0" width="48" height="48"></rect>
            <g id="iPhone" transform="translate(6.000000, 0.000000)">
                <use id="Rectangle-2" stroke="#777088" mask="url(#mask-2)" stroke-width="4" fill="#FFFFFF" xlink:href="#path-1"></use>
                <path d="M14.4140356,18.8702239 C15.0588035,18.0042383 15.9552011,18 15.9552011,18 C15.9552011,18 16.088504,18.8141891 15.4479921,19.5985126 C14.7640506,20.4359961 13.9866407,20.2989563 13.9866407,20.2989563 C13.9866407,20.2989563 13.8406829,19.6403046 14.4140356,18.8702239 Z M14.0686505,20.8692994 C14.4003684,20.8692994 15.0159737,20.4046586 15.8172908,20.4046586 C17.1966195,20.4046586 17.7392298,21.4048255 17.7392298,21.4048255 C17.7392298,21.4048255 16.6779486,21.9577487 16.6779486,23.2994308 C16.6779486,24.8129629 18,25.3345748 18,25.3345748 C18,25.3345748 17.0758262,27.9853136 15.8275436,27.9853136 C15.2541909,27.9853136 14.8084828,27.5915748 14.2043716,27.5915748 C13.5887662,27.5915748 12.9778359,28 12.5799582,28 C11.4400719,28 10,25.4855288 10,23.4643319 C10,21.475711 11.2189428,20.43252 12.3622467,20.43252 C13.1054805,20.43252 13.6822508,20.8692994 14.0686505,20.8692994 Z" id="Apple" fill="#777088"></path>
                <rect id="Screen" fill="#777088" x="3" y="8" width="30" height="32"></rect>
                <rect id="Home-btn-Copy" fill="#777088" x="16" y="41" width="4" height="4" rx="2"></rect>
                <rect id="Mic" fill="#777088" x="17" y="4" width="5" height="2" rx="1"></rect>
                <rect id="Camera" fill="#777088" x="14" y="4" width="2" height="2" rx="1"></rect>
                <path d="M18.4140356,18.8702239 C19.0588035,18.0042383 19.9552011,18 19.9552011,18 C19.9552011,18 20.088504,18.8141891 19.4479921,19.5985126 C18.7640506,20.4359961 17.9866407,20.2989563 17.9866407,20.2989563 C17.9866407,20.2989563 17.8406829,19.6403046 18.4140356,18.8702239 Z M18.0686505,20.8692994 C18.4003684,20.8692994 19.0159737,20.4046586 19.8172908,20.4046586 C21.1966195,20.4046586 21.7392298,21.4048255 21.7392298,21.4048255 C21.7392298,21.4048255 20.6779486,21.9577487 20.6779486,23.2994308 C20.6779486,24.8129629 22,25.3345748 22,25.3345748 C22,25.3345748 21.0758262,27.9853136 19.8275436,27.9853136 C19.2541909,27.9853136 18.8084828,27.5915748 18.2043716,27.5915748 C17.5887662,27.5915748 16.9778359,28 16.5799582,28 C15.4400719,28 14,25.4855288 14,23.4643319 C14,21.475711 15.2189428,20.43252 16.3622467,20.43252 C17.1054805,20.43252 17.6822508,20.8692994 18.0686505,20.8692994 Z" id="Apple" fill="#FFFFFF"></path>
            </g>
        </g>
    </g>
</svg>