<?xml version="1.0"?>
<svg xmlns="http://www.w3.org/2000/svg" width="248" height="248" viewbox="0 0 248 248">
  <path d="m21,247.108917c0,-1.547012 51.746597,-63.73201 52.837601,-63.496002c0.623199,0.134995 23.735199,9.953995 51.360397,21.819992c47.179001,20.266006 50.309006,21.464005 51.585007,19.755005c1.929001,-2.585999 8.57399,-16.485992 12.088989,-25.287994l2.98201,-7.469009l-5.024002,-2.746994c-7.119003,-3.893005 -17.561996,-12.563995 -24.100006,-20.012009c-5.966995,-6.79599 -16.729996,-23.194992 -16.729996,-25.490997c0,-0.759003 3.419998,2.695007 7.600006,7.677002c11.73999,13.992996 38.794998,35.889008 40.493988,32.772995c2.016998,-3.696991 3.320007,-14.613998 3.255005,-27.263c-0.078995,-15.441986 -2.102997,-27.463989 -7.417999,-44.057983l-2.979004,-9.298004l-14.725998,-4.628998c-8.098999,-2.545799 -16.218994,-5.098198 -18.042999,-5.6717c-6.362,-2 -2.382004,-1.892403 6.932999,0.187599c11.137009,2.4869 22.449005,4.587402 29.45401,5.469101c6.167999,0.776001 7.524994,-0.433998 8.184998,-7.297897c0.840988,-8.751701 -4.807007,-32.921402 -10.505005,-44.955204c-2.274002,-4.802898 -3.300003,-5.838497 -7.852997,-7.922897c-15.156006,-6.9384 -62.594002,-13.436901 -82.738503,-11.334301c-8.708099,0.909 -17.653198,3.025101 -20.441101,4.835598c-0.785797,0.510303 4.830704,1.957203 14.5,3.735302c8.680603,1.596298 15.0056,3.0541 14.056602,3.239498c-0.949005,0.185402 -14.588799,-1.313599 -30.311005,-3.330997c-27.601597,-3.541702 -28.654396,-3.606003 -30.576897,-1.8661c-4.008301,3.627399 -9.775299,13.542801 -10.962601,18.848198c-1.149502,5.136501 -1.0686,5.731701 1.4888,10.959003c4.3591,8.909798 12.464901,15.392799 30.909897,24.721901c8.722,4.4114 15.646606,8.2323 15.3881,8.490799c-0.258499,0.258499 -7.701698,-2.520599 -16.540596,-6.175705l-16.070602,-6.645699l-23.581898,6.599205c-12.9701,3.629593 -24.01738,6.599197 -24.549571,6.599197c-0.60822,0 -0.96763,-15.6689 -0.96763,-42.184299c0,-40.622202 0.07668,-42.342602 2.07095,-46.462301c1.21568,-2.5112 3.59035,-5.22276 5.75,-6.56567l3.67905,-2.28771l108,-0.30055c59.399994,-0.1653 110.403,-0.01541 113.339005,0.33309c6.616989,0.78534 12.588989,5.63064 14.168991,11.49574c0.680008,2.528399 0.936005,40.981501 0.759003,114.142797l-0.266998,110.328987l-2.287994,3.679001c-1.343002,2.160004 -4.054001,4.534012 -6.565002,5.75c-4.24501,2.055008 -5.104004,2.070999 -110.962997,2.070999c-58.676109,0 -106.684006,-0.341995 -106.684006,-0.758987z" fill="#000000" id="path2228"/>
</svg>
