<svg id="Layer_1" data-name="Layer 1" xmlns="http://www.w3.org/2000/svg" viewBox="0 0 64 64"><defs><style>.cls-1{fill:#5c2d91;}.cls-2,.cls-3{fill:#fff;}.cls-2{opacity:0.1;}.cls-4{fill:#f2f2f2;}</style></defs><title>logo_NETframework</title><circle class="cls-1" cx="32" cy="32" r="32"/><path class="cls-2" d="M9.82,9A32,32,0,1,0,55,54.18Z"/><path class="cls-3" d="M7.4,37.25a1.35,1.35,0,0,1-1-.42,1.38,1.38,0,0,1-.41-1,1.4,1.4,0,0,1,.41-1,1.34,1.34,0,0,1,1-.43,1.37,1.37,0,0,1,1,.43,1.39,1.39,0,0,1,.42,1,1.37,1.37,0,0,1-.42,1A1.38,1.38,0,0,1,7.4,37.25Z"/><path class="cls-3" d="M27.27,37H24.65L15.28,22.46a6,6,0,0,1-.58-1.14h-.08a18.72,18.72,0,0,1,.1,2.5V37H12.59V18.77h2.77l9.12,14.28q.57.89.74,1.22h.05a19.28,19.28,0,0,1-.13-2.68V18.77h2.13Z"/><path class="cls-3" d="M41.69,37H32V18.77h9.24V20.7H34.18v6.06h6.58v1.92H34.18V35h7.52Z"/><path class="cls-3" d="M56,20.7H50.71V37H48.57V20.7H43.33V18.77H56Z"/><path class="cls-4" d="M9,41.19V44h2.59v.44H9v3.26H8.51v-7h3.27v.44Z"/><path class="cls-4" d="M15.67,43.22a.88.88,0,0,0-.53-.16,1.17,1.17,0,0,0-1,.61,3.15,3.15,0,0,0-.4,1.73v2.35h-.44v-5h.44v1.11h0a1.82,1.82,0,0,1,.54-.89,1.28,1.28,0,0,1,.86-.32,1.33,1.33,0,0,1,.5.09Z"/><path class="cls-4" d="M19.85,47.75v-1h0a2,2,0,0,1-.7.82,1.78,1.78,0,0,1-1,.31,1.56,1.56,0,0,1-1.13-.4,1.34,1.34,0,0,1-.42-1q0-1.31,1.73-1.58l1.54-.23q0-1.61-1.21-1.61A2.47,2.47,0,0,0,17,43.7v-.54a2.46,2.46,0,0,1,.75-.38,2.87,2.87,0,0,1,.9-.16,1.51,1.51,0,0,1,1.19.48,2,2,0,0,1,.42,1.39v3.25Zm-1.38-2.49a2.4,2.4,0,0,0-1.1.36,1.13,1.13,0,0,0,0,1.55,1.13,1.13,0,0,0,.82.29,1.55,1.55,0,0,0,1.2-.53,2,2,0,0,0,.48-1.38v-.49Z"/><path class="cls-4" d="M28.32,47.75v-3a2.22,2.22,0,0,0-.3-1.32,1.11,1.11,0,0,0-.94-.38,1.3,1.3,0,0,0-1,.51,1.91,1.91,0,0,0-.43,1.27v2.93h-.45v-3q0-1.67-1.27-1.67a1.25,1.25,0,0,0-1,.51,2.06,2.06,0,0,0-.41,1.32v2.88h-.45v-5h.45v.83h0a1.66,1.66,0,0,1,1.53-1,1.43,1.43,0,0,1,.94.32,1.54,1.54,0,0,1,.52.83,1.92,1.92,0,0,1,.67-.84,1.65,1.65,0,0,1,.95-.3q1.64,0,1.64,2v3.09Z"/><path class="cls-4" d="M30.63,45.27a2.47,2.47,0,0,0,.48,1.61,1.6,1.6,0,0,0,1.31.58,2.66,2.66,0,0,0,1.64-.62v.48a2.92,2.92,0,0,1-1.73.55,2,2,0,0,1-1.56-.69,2.92,2.92,0,0,1-.6-2,2.79,2.79,0,0,1,.62-1.84,2,2,0,0,1,1.62-.75,1.69,1.69,0,0,1,1.43.65,2.89,2.89,0,0,1,.5,1.79v.2Zm3.23-.41a2.21,2.21,0,0,0-.42-1.34A1.29,1.29,0,0,0,32.38,43a1.56,1.56,0,0,0-1.16.47,2.26,2.26,0,0,0-.57,1.35Z"/><path class="cls-4" d="M40.06,47.75h-.42L38.55,44a3.11,3.11,0,0,1-.08-.42h0a2.51,2.51,0,0,1-.1.41l-1.22,3.78h-.42l-1.51-5h.5l1.16,4a2.44,2.44,0,0,1,.07.42h0a2.13,2.13,0,0,1,.09-.42l1.27-4h.31l1.13,4a2.83,2.83,0,0,1,.07.42h0a1.63,1.63,0,0,1,.08-.42l1.19-4h.46Z"/><path class="cls-4" d="M44.85,47.87a2.2,2.2,0,0,1-1.73-.72,3.12,3.12,0,0,1,0-3.82,2.31,2.31,0,0,1,1.75-.7,2.14,2.14,0,0,1,1.69.7,2.81,2.81,0,0,1,.62,1.93,2.76,2.76,0,0,1-.63,1.89A2.18,2.18,0,0,1,44.85,47.87Zm0-4.83a1.78,1.78,0,0,0-1.41.6,2.42,2.42,0,0,0-.53,1.66,2.33,2.33,0,0,0,.51,1.58,1.75,1.75,0,0,0,1.4.6,1.71,1.71,0,0,0,1.39-.59,3,3,0,0,0,0-3.27A1.71,1.71,0,0,0,44.88,43Z"/><path class="cls-4" d="M51.06,43.22a.88.88,0,0,0-.53-.16,1.16,1.16,0,0,0-1,.61,3.15,3.15,0,0,0-.4,1.73v2.35H48.7v-5h.44v1.11h0A1.82,1.82,0,0,1,49.7,43a1.28,1.28,0,0,1,.86-.32,1.33,1.33,0,0,1,.5.09Z"/><path class="cls-4" d="M55.11,47.75l-2.39-2.47h0v2.47h-.45v-7.4h.45v4.77h0L55,42.75h.58L53.2,45.17l2.56,2.58Z"/></svg>