<?xml version="1.0" ?><svg enable-background="new 0 0 504 504" id="Layer_1" version="1.1" viewBox="0 0 504 504" xml:space="preserve" xmlns="http://www.w3.org/2000/svg" xmlns:xlink="http://www.w3.org/1999/xlink"><path d="M458.5,258.3c-9.2,58.5-27.1,75.6-58.8,114.9c-31.7,33.3-77.3,88.9-141.9,85.8  c-58.5-9.2-75.6-27.1-114.9-58.8c-33.3-31.7-88.9-77.3-85.8-141.9c9.2-58.5,27.1-75.6,58.8-114.9c31.7-33.3,77.3-88.9,141.9-85.8  c58.5,9.2,75.6,27.1,114.9,58.8C406,148.1,461.6,193.7,458.5,258.3z" fill="#3765AF"/><g id="Layer_2_1_"><g><g><path d="M179.3,235.2c7.9,0,12.8,1.3,15.4,4.3c2.6,2.6,2.9,7.9,1.6,14.4c-1.3,7.2-3.9,12.4-8.2,15.4     c-3.9,2.9-10.1,4.6-18.3,4.6h-12.4l7.5-39.3C164.9,235.2,179.3,235.2,179.3,235.2z M129.6,313.7h20.3l4.6-24.9h17.7     c7.9,0,13.7-0.7,19-2.3c4.9-1.6,9.5-4.3,13.4-8.2c3.3-2.9,6.2-6.9,8.5-10.5c2-3.6,3.6-8.2,4.3-12.4c2-11.1,0.7-19.6-4.6-25.8     c-5.2-6.2-13.7-9.2-25.5-9.2h-39.3L129.6,313.7z" fill="#FFFFFF"/><path d="M237.9,195.6h20.3l-4.6,24.9h18c11.1,0,19.3,2,23.2,6.2c4.3,3.9,5.9,10.5,3.6,19.3l-8.5,43.5h-20.6     l8.2-41.2c1-4.6,0.7-7.9-1-9.5c-1.6-1.6-4.9-2.6-10.1-2.6h-16l-10.5,53.3h-20.3L237.9,195.6z" fill="#FFFFFF"/><path d="M343.2,235.2c7.9,0,12.8,1.3,15.4,4.3c2.6,2.6,2.9,7.9,1.6,14.4c-1.3,7.2-3.9,12.4-8.2,15.4     c-3.9,2.9-10.1,4.6-18.3,4.6h-12.4l7.5-39.3C329.2,235.2,343.2,235.2,343.2,235.2z M293.8,313.7h20.3l4.6-24.9h17.7     c7.9,0,13.7-0.7,19-2.3c4.9-1.6,9.5-4.3,13.4-8.2c3.3-2.9,6.2-6.9,8.5-10.5c2-3.6,3.6-8.2,4.3-12.4c2-11.1,0.7-19.6-4.6-25.8     c-5.2-6.2-13.7-9.2-25.5-9.2h-39.3L293.8,313.7z" fill="#FFFFFF"/></g></g></g></svg>