<svg id="Layer_1" data-name="Layer 1" xmlns="http://www.w3.org/2000/svg" viewBox="0 0 48 48"><title>unknown</title><path d="M28.15,14.75a5.22,5.22,0,0,0-1.88-1,7.53,7.53,0,0,0-2.3-.35,6.05,6.05,0,0,0-4,1.36,6.2,6.2,0,0,0-2.09,3.73l2.08.37a4.42,4.42,0,0,1,1.26-2.56,3.64,3.64,0,0,1,2.67-1,4.22,4.22,0,0,1,1.48.25,3.42,3.42,0,0,1,1.2.7,3.29,3.29,0,0,1,.83,1.13,3.65,3.65,0,0,1,.3,1.52,3.68,3.68,0,0,1-.5,2,5.85,5.85,0,0,1-1.27,1.41l-.85.76q-.46.42-.9.87a5.13,5.13,0,0,0-.79,1,4.57,4.57,0,0,0-.55,1.23,5.69,5.69,0,0,0-.2,1.54v1.83h2.13v-1.4a6.88,6.88,0,0,1,.13-1.4,3.46,3.46,0,0,1,.39-1.05,4.31,4.31,0,0,1,.72-.9c.29-.29.66-.6,1.08-.95s.76-.64,1.1-1a5.57,5.57,0,0,0,.9-1.05,5.41,5.41,0,0,0,.6-1.31,6.25,6.25,0,0,0,.21-1.71,5.38,5.38,0,0,0-.47-2.29A5.12,5.12,0,0,0,28.15,14.75ZM23.91,32.21a1.55,1.55,0,0,0-1.19.5,1.7,1.7,0,0,0-.46,1.15A1.67,1.67,0,0,0,22.72,35a1.67,1.67,0,0,0,2.38,0,1.63,1.63,0,0,0,.46-1.14,1.65,1.65,0,0,0-.46-1.15A1.54,1.54,0,0,0,23.91,32.21ZM34,4.59A19,19,0,0,1,36.36,6l1.13-1.64a25.45,25.45,0,0,0-2.56-1.53ZM26.78,2.33a24.35,24.35,0,0,1,2.68.51L30,.92A24.25,24.25,0,0,0,27,.36Zm-4.89-.08-.19-2a22.49,22.49,0,0,0-2.94.47l.44,1.94A22.18,22.18,0,0,1,21.89,2.25ZM11.12,3.94,12.2,5.62a21.28,21.28,0,0,1,2.38-1.33l-.86-1.8A26.47,26.47,0,0,0,11.12,3.94ZM5,9.56l1.58,1.2A20.64,20.64,0,0,1,8.41,8.7L7,7.31A23.12,23.12,0,0,0,5,9.56Zm-3.8,7.35,1.9.59a23.85,23.85,0,0,1,1-2.55L2.3,14.13A26,26,0,0,0,1.24,16.91Zm1,5.39-2-.15a24.54,24.54,0,0,0,0,3l2-.09A20.71,20.71,0,0,1,2.22,22.3ZM1,30.39A23.93,23.93,0,0,0,2,33.2l1.84-.77A19.7,19.7,0,0,1,3,29.85Zm3.57,7.46a21.8,21.8,0,0,0,1.88,2.31l1.45-1.34A23.41,23.41,0,0,1,6.22,36.7Zm5.9,5.8a25.45,25.45,0,0,0,2.56,1.53L14,43.41A19,19,0,0,1,11.64,42Zm7.54,3.43a24.25,24.25,0,0,0,2.92.56l.25-2a24.35,24.35,0,0,1-2.68-.51Zm8.06-1.33.19,2a22.49,22.49,0,0,0,2.94-.47l-.44-1.94A22.18,22.18,0,0,1,26.11,45.75Zm7.31-2,.86,1.8a26.47,26.47,0,0,0,2.6-1.45L35.8,42.38A21.28,21.28,0,0,1,33.42,43.71Zm6.17-4.41L41,40.69a23.12,23.12,0,0,0,2-2.25l-1.58-1.2A20.64,20.64,0,0,1,39.59,39.3Zm4.3-6.25,1.81.82a26,26,0,0,0,1.06-2.78l-1.9-.59A23.85,23.85,0,0,1,43.89,33.05Zm3.92-10.17-2,.09a20.71,20.71,0,0,1,0,2.73l2,.15A24.54,24.54,0,0,0,47.81,22.88ZM47,17.61a23.93,23.93,0,0,0-1-2.81l-1.84.77a19.7,19.7,0,0,1,.9,2.58Zm-6.9-8.43a23.41,23.41,0,0,1,1.72,2.12l1.61-1.15a21.8,21.8,0,0,0-1.88-2.31Z" style="fill:#777088"/></svg>