<svg viewBox="0 0 80 80" xmlns="http://www.w3.org/2000/svg">
  <rect width="100%" height="100%" fill="#4C00FF"/>
  <path d="M61.7472 14.0008C63.5091 14.0008 65.2674 14.4588 66.8734 15.3818C70.0819 17.2242 72 20.5269 72 24.2117V55.7884C72 59.4732 70.0819 62.7759 66.8734 64.6183C63.665 66.4606 59.8294 66.4606 56.6209 64.6183L46.2229 58.6474L52.4478 55.0747L59.7316 59.2569C61.5514 60.2987 63.1537 59.603 63.7592 59.2569C64.3647 58.9108 65.7713 57.876 65.7713 55.7884V24.2117C65.7712 22.1241 64.3646 21.0893 63.7592 20.7431C63.1537 20.397 61.5478 19.7014 59.7316 20.7431L32.2359 36.5315C30.4197 37.5735 30.2239 39.3042 30.2239 40C30.2239 40.6959 30.4197 42.4265 32.2359 43.4685L33.7732 44.3519L27.697 47.8419V47.8384C25.3586 45.9239 23.999 43.1007 23.999 40C23.999 36.3153 25.9168 33.0125 29.1253 31.1701L56.6209 15.3818C58.2269 14.4624 59.9852 14.0008 61.7472 14.0008Z" fill="white"/>
  <path d="M13.1262 15.3818C16.3347 13.5394 20.167 13.5394 23.3791 15.3818L33.7767 21.3526L27.5519 24.9257L20.2684 20.7431C18.4487 19.7013 16.8464 20.397 16.2408 20.7431C15.6354 21.0893 14.2284 22.1241 14.2284 24.2117V55.7919C14.2284 57.8795 15.6353 58.9143 16.2408 59.2604C16.8463 59.6066 18.4522 60.3023 20.2684 59.2604L47.7637 43.472C49.5801 42.4301 49.7761 40.6994 49.7761 40.0035C49.7761 39.3076 49.5799 37.5773 47.7637 36.5354L46.2268 35.652L52.303 32.1616C54.6413 34.0761 56.001 36.8993 56.001 40C56.001 43.6848 54.0829 46.9875 50.8744 48.8299L23.3791 64.6183C21.7731 65.5376 20.0148 65.9992 18.2528 65.9992C16.4909 65.9992 14.7323 65.5413 13.1262 64.6183C9.91778 62.7759 8 59.4732 8 55.7884V24.2117C8.00003 20.5269 9.91777 17.2278 13.1262 15.3818Z" fill="white"/>
</svg>
