<svg xmlns="http://www.w3.org/2000/svg" width="208" height="146" fill="none" viewBox="0 0 208 146"><path fill="#9e86ff" d="M189.24 121.615c-2.411-2.111-6.145-.574-6.145-.574 1.665-2.866 6.862-4.415 6.862-4.415-2.06-.977-5.68-.032-6.932.631-.082-4.214-.186-8.815-.318-13.654-.3-11.001-.754-18.053-1.109-22.221 2.101-3.136 5.88-3.987 5.88-3.987-4.096-1.748-6.276.524-6.276.524.349-2.972 3.313-7.08 3.313-7.08-4.707 1.224-5.321 4.629-5.321 4.629-1.33-3.617-3.162-3.842-3.162-3.842.618 1.857.795 3.903.84 5.227-1.305-2.543-4.218-2.235-4.218-2.235s1.229 1.027 2.088 2.505c-11.376 1.46-37.874 5.155-77.473 12.441a5120 5120 0 0 0-16.675 3.098c-.334-2.592.29-5.081.29-5.081-1.878 1.674-2.025 5.376-2.025 5.376-1.67-3.558-5.594-4.853-5.594-4.853s2.491 2.67 3.032 5.365a5091 5091 0 0 0-43.237 8.334c-.02-3.22.661-6.123.661-6.123-1.826 1.114-2.733 2.767-3.186 4.23-.986-2.11-1.344-4.638-1.966-6.691 0 0-1.48 5.244-.85 8.904 0 0-2.254-2.937-7.666-4.325 0 0 4.533 3.171 5.648 8.283 0 0-3.729-1.142-7.658 1.234 0 0 3.96.204 7.037 2.471-1.3.434-2.688 1.169-3.035 2.373 0 0 3.09-.749 8.458 0 10.424 1.873 37.985 6.827 50.83 9.164a12113 12113 0 0 1 94.596 17.604 6.1 6.1 0 0 0 3.221-.253l-.003.007c3.294-1.239 7.256-.24 7.256-.24-1.292-2.463-3.03-2.962-3.685-3.064q.132-.29.232-.595c2.681-2.818 6.175-3.015 6.175-3.015-2.495-1.099-4.567-.594-5.874.025-.019-1.704-.044-3.627-.075-5.73 1.763-.829 4.81-.456 4.81-.456-1.972-2.294-3.943-1.744-3.943-1.744 1.911-2.211 5.197-2.247 5.197-2.247"/><path fill="#181225" d="M177.073 139.231a6.3 6.3 0 0 1-1.18-.111 12137 12137 0 0 0-94.594-17.604c-13.179-2.398-42.238-7.62-50.83-9.164-5.256-.733-8.347-.01-8.378-.002a.196.196 0 0 1-.233-.244c.285-.992 1.227-1.79 2.801-2.378-2.946-2.004-6.589-2.216-6.626-2.218a.195.195 0 0 1-.09-.362c3.339-2.02 6.497-1.557 7.495-1.335-1.196-4.796-5.453-7.824-5.497-7.854a.196.196 0 0 1 .16-.35c4.148 1.064 6.447 3.005 7.337 3.91-.384-3.59.886-8.15.943-8.353a.195.195 0 0 1 .186-.142h.002c.086 0 .161.056.187.138.213.707.393 1.455.583 2.246.32 1.335.651 2.71 1.172 3.964.623-1.682 1.667-2.979 3.11-3.86a.195.195 0 0 1 .29.213 29.7 29.7 0 0 0-.657 5.841 5055 5055 0 0 1 42.81-8.252c-.6-2.544-2.918-5.05-2.941-5.076a.196.196 0 0 1 .203-.32c.154.051 3.59 1.216 5.397 4.356.137-1.168.588-3.553 2.032-4.84a.194.194 0 0 1 .23-.02.2.2 0 0 1 .089.215c-.007.023-.58 2.353-.311 4.802 5.302-.993 10.8-2.015 16.47-3.059 38.778-7.135 64.902-10.824 77.187-12.405a10.6 10.6 0 0 0-1.891-2.199.195.195 0 0 1 .105-.345c.028-.002 2.537-.241 4.007 1.695-.084-1.29-.294-2.925-.794-4.43a.19.19 0 0 1 .034-.186.19.19 0 0 1 .174-.07c.076.01 1.781.255 3.113 3.438.394-1.05 1.638-3.269 5.298-4.22a.195.195 0 0 1 .206.304c-.027.039-2.623 3.663-3.197 6.497.836-.578 2.92-1.584 6.08-.236a.196.196 0 0 1-.034.37c-.037.009-3.684.863-5.723 3.85.337 3.974.8 11.03 1.104 22.162.117 4.288.222 8.778.312 13.352 1.402-.625 4.76-1.479 6.826-.5a.2.2 0 0 1 .112.191.2.2 0 0 1-.139.173c-.049.015-4.567 1.386-6.434 3.855 1.156-.349 3.853-.895 5.789.799a.196.196 0 0 1-.126.343c-.03 0-2.824.056-4.683 1.796.76-.018 2.166.234 3.574 1.872a.196.196 0 0 1-.171.322c-.03-.003-2.882-.341-4.589.388.028 1.932.051 3.71.07 5.304 1.348-.572 3.368-.957 5.76.096a.196.196 0 0 1-.067.374c-.034.002-3.426.227-6.015 2.924a6 6 0 0 1-.128.345c.819.19 2.389.846 3.582 3.119a.2.2 0 0 1-.019.213.2.2 0 0 1-.201.068c-.039-.01-3.942-.97-7.139.233a.2.2 0 0 1-.049.011 6.4 6.4 0 0 1-2.094.356M25.906 111.629a33.5 33.5 0 0 1 4.624.337c8.6 1.545 37.66 6.767 50.839 9.165 44.348 8.071 80.928 15 94.596 17.604a5.95 5.95 0 0 0 3.12-.245.2.2 0 0 1 .042-.01c2.702-.998 5.777-.542 6.894-.322-1.212-2.048-2.718-2.492-3.333-2.588a.195.195 0 0 1-.147-.273c.089-.2.163-.388.224-.575a.2.2 0 0 1 .044-.074c1.968-2.07 4.336-2.752 5.534-2.973a6.6 6.6 0 0 0-5.008.294.19.19 0 0 1-.187-.011.19.19 0 0 1-.091-.163c-.02-1.704-.045-3.627-.076-5.73a.2.2 0 0 1 .112-.179c1.371-.646 3.447-.589 4.404-.521-1.733-1.739-3.331-1.334-3.403-1.314a.195.195 0 0 1-.199-.317c1.504-1.739 3.791-2.172 4.817-2.279-2.287-1.538-5.508-.247-5.543-.233a.2.2 0 0 1-.221-.053.2.2 0 0 1-.021-.226c1.384-2.384 5.06-3.849 6.444-4.331-1.984-.59-5.031.17-6.254.818a.2.2 0 0 1-.191-.004.2.2 0 0 1-.096-.165c-.091-4.678-.198-9.271-.318-13.653-.305-11.188-.771-18.253-1.109-22.21a.2.2 0 0 1 .033-.125c1.653-2.467 4.278-3.538 5.431-3.908-3.567-1.272-5.443.605-5.524.69a.2.2 0 0 1-.224.04.2.2 0 0 1-.11-.199c.286-2.438 2.253-5.56 3.034-6.717-4.05 1.28-4.651 4.293-4.657 4.324a.2.2 0 0 1-.175.16.19.19 0 0 1-.2-.127c-.933-2.537-2.116-3.352-2.679-3.606.526 1.754.691 3.622.735 4.917a.195.195 0 0 1-.368.096c-.932-1.816-2.705-2.11-3.553-2.14.437.422 1.18 1.216 1.765 2.222a.196.196 0 0 1-.144.292c-12.153 1.559-38.377 5.248-77.462 12.44a5127 5127 0 0 0-16.675 3.097.196.196 0 0 1-.23-.167c-.232-1.805-.012-3.539.153-4.464-1.362 1.745-1.498 4.71-1.499 4.742a.195.195 0 0 1-.371.076c-1.178-2.51-3.535-3.88-4.737-4.442.775.957 2.149 2.871 2.542 4.831a.196.196 0 0 1-.155.231 5038 5038 0 0 0-43.236 8.335.196.196 0 0 1-.233-.191c-.014-2.453.38-4.747.57-5.702-1.287.907-2.198 2.205-2.713 3.865a.195.195 0 0 1-.363.025c-.657-1.407-1.033-2.976-1.398-4.493-.127-.53-.25-1.04-.381-1.53-.37 1.541-1.149 5.326-.668 8.12a.196.196 0 0 1-.114.212.19.19 0 0 1-.233-.06c-.02-.027-2.02-2.564-6.636-3.993 1.357 1.169 4.126 3.951 4.964 7.791a.2.2 0 0 1-.058.185.19.19 0 0 1-.19.043c-.034-.011-3.36-.987-6.964.911 1.25.155 4.123.687 6.516 2.45a.196.196 0 0 1-.054.343c-1.035.345-2.308.951-2.787 1.926.561-.101 1.769-.269 3.551-.269"/><path fill="#7553ff" d="m176.867 95.396-.03.016c-2.735 1.148-4.421 2.87-4.421 2.87.532-2.828 2.892-5.493 2.892-5.493-.992.328-4.65 2.337-4.65 2.337.982-4.838 6.178-6.59 6.179-6.591-.021-2.882-.051-4.859-.092-5.33-.204-2.35-3.456-2.293-5.501-2.043-7.416.907-28.371 4.336-49.612 7.953.649 2.094.665 5.561.665 5.561-1.064-1.82-3.88-4.204-3.88-4.204-.125 1.443-.848 3.326-.848 3.326-.536-2.07-1.655-3.706-1.655-3.706l-2.33.4c-2.743.472-6.037 1.055-9.687 1.716 1.185 2.928.504 7.33.504 7.33l-3.297-5.427c.583 4.079-1.083 9.455-1.083 9.455-.751-3.471-3.317-6.82-3.317-6.82-.062 1.82-.563 3.419-.563 3.419-.938-2.793-3.441-4.799-3.441-4.799 1.564 4.204 0 9.598 0 9.598-.814-5.461-4.756-8.683-4.756-8.683.063 2.42-.938 4.607-.938 4.607-.438-3.448-2.697-5.008-2.701-5.011-8.298 1.602-16.766 3.3-24.018 4.86.438 2.797 0 4.227 0 4.227-.438-1.069-1.564-2.503-1.564-2.503.313 2.765 0 4.639 0 4.639-.626-1.318-2.002-2.698-2.002-2.698.344 2.81-.376 5.27-.376 5.27-1.251-4.078-4.255-6.362-4.255-6.362.376 1.544 0 3.096 0 3.096-1-1.947-3.1-3.094-3.103-3.096-1.19.294-2.28.574-3.25.837-3.587.972-5.13 1.94-5.102 2.903.03 1.024 1.23 1.693 5.815 2.613 2.438.489 24.207 4.174 51.097 8.831-.308-1.35-.72-3.473-.843-5.308l4.13 4.517s-.34-5.562 0-8.857l3.942 9.234s.751-2.824 3.254-5.145v4.643s4.364-5.492 8.948-7.096l-4.192 8.727s2.065-1.443 5.318-2.259c0 0-1.293 2.769-2.127 4.75a6802 6802 0 0 1 34.489 6.114s-.621-1.885-1.023-4.872l4.508 4.601s.121-5.005 2.013-7.669l1.57 7.024s2.617-3.149 4.509-4.078l-1.684 6.789c3.566.652 7.039 1.292 10.375 1.914 2.783.519 5.855.495 6.011-3.03.093-2.113.153-20.389.122-33.097"/><path fill="#181225" d="M173.034 131.964c-.678 0-1.452-.083-2.335-.248-3.337-.622-6.809-1.262-10.375-1.914a.197.197 0 0 1-.155-.24l1.577-6.353c-1.789 1.093-4.038 3.785-4.062 3.814a.194.194 0 0 1-.34-.082l-1.469-6.573c-1.6 2.657-1.727 7.134-1.728 7.181a.196.196 0 0 1-.335.132l-4.092-4.177c.392 2.594.925 4.231.931 4.249a.2.2 0 0 1-.038.189.2.2 0 0 1-.182.065 6754 6754 0 0 0-34.487-6.114.2.2 0 0 1-.138-.099.2.2 0 0 1-.008-.169 153 153 0 0 1 1.954-4.379c-2.949.809-4.835 2.11-4.855 2.124a.195.195 0 0 1-.287-.245l3.981-8.287c-4.313 1.754-8.367 6.81-8.408 6.862a.2.2 0 0 1-.217.063.2.2 0 0 1-.131-.185v-4.183c-2.171 2.188-2.863 4.709-2.87 4.735a.2.2 0 0 1-.175.145.19.19 0 0 1-.193-.118l-3.634-8.513c-.221 3.274.063 7.997.066 8.048a.2.2 0 0 1-.118.192.2.2 0 0 1-.22-.048l-3.746-4.098c.178 1.894.604 3.89.793 4.712a.196.196 0 0 1-.224.237c-11.49-1.99-22.046-3.803-30.558-5.264-11.529-1.98-19.145-3.288-20.545-3.568-4.484-.899-5.935-1.58-5.971-2.798-.034-1.135 1.633-2.12 5.246-3.099.934-.253 2.029-.535 3.254-.837a.2.2 0 0 1 .134.015c.019.009 1.824.993 2.916 2.706.077-.571.142-1.535-.09-2.485a.195.195 0 0 1 .308-.202c.118.089 2.756 2.127 4.104 5.808.186-.907.447-2.65.215-4.537a.194.194 0 0 1 .331-.162c.05.049 1.059 1.067 1.742 2.2.067-.76.132-2.185-.071-3.981a.2.2 0 0 1 .12-.203.2.2 0 0 1 .227.06c.039.05.819 1.046 1.331 2.005.088-.648.158-1.85-.113-3.578a.195.195 0 0 1 .152-.221c6.628-1.426 14.935-3.107 24.022-4.86a.2.2 0 0 1 .147.03c.09.061 2.037 1.436 2.666 4.442.287-.816.709-2.302.668-3.872a.196.196 0 0 1 .318-.157c.038.031 3.573 2.97 4.658 7.896.36-1.692.944-5.494-.208-8.59a.195.195 0 0 1 .304-.221c.097.077 2.23 1.807 3.289 4.317.15-.619.36-1.667.4-2.79a.196.196 0 0 1 .35-.113c.023.031 2.257 2.97 3.171 6.18.419-1.583 1.328-5.54.88-8.669a.196.196 0 0 1 .36-.13l3.005 4.948c.134-1.264.347-4.434-.56-6.675a.197.197 0 0 1 .146-.266c3.564-.646 6.915-1.24 9.689-1.716l2.33-.4c.062-.01.126.01.17.054.009.009.951 1.378 1.536 3.206.221-.662.556-1.782.636-2.704a.194.194 0 0 1 .32-.133c.104.088 2.316 1.97 3.542 3.675-.041-1.11-.178-3.336-.639-4.824a.2.2 0 0 1 .02-.16.2.2 0 0 1 .133-.091c24.977-4.253 43.063-7.153 49.621-7.955 2.355-.287 4.013-.056 4.927.687.471.383.737.899.792 1.534.039.448.07 2.246.092 5.344a.195.195 0 0 1-.132.187c-.202.069-4.811 1.687-5.952 6.026.969-.526 3.483-1.873 4.3-2.143a.195.195 0 0 1 .207.316c-.022.024-2 2.28-2.703 4.79a15.4 15.4 0 0 1 4.01-2.477c.061-.025.144-.027.199.01.054.036.101.089.102.154.029 12.297-.025 30.915-.123 33.106-.053 1.205-.447 2.109-1.17 2.685-.652.52-1.543.777-2.735.777m-12.436-2.51c3.495.64 6.899 1.267 10.172 1.878 2.286.426 3.842.278 4.756-.45.632-.504.976-1.31 1.024-2.397.096-2.169.151-20.496.123-32.79-2.531 1.124-4.102 2.709-4.118 2.725a.194.194 0 0 1-.229.036.2.2 0 0 1-.101-.21c.389-2.069 1.71-4.022 2.442-4.978-1.401.65-3.885 2.013-3.915 2.03a.195.195 0 0 1-.285-.211c.912-4.497 5.328-6.369 6.174-6.689-.022-3.003-.053-4.744-.09-5.175-.046-.533-.259-.946-.649-1.264-.818-.665-2.42-.872-4.635-.603-6.533.8-24.526 3.683-49.386 7.915.589 2.106.61 5.266.611 5.404a.196.196 0 0 1-.364.1c-.84-1.437-2.828-3.263-3.56-3.912-.196 1.379-.79 2.934-.817 3.005a.195.195 0 0 1-.371-.021c-.446-1.726-1.312-3.154-1.559-3.54l-2.204.378c-2.713.466-5.977 1.044-9.453 1.674 1.073 2.934.457 7.032.43 7.209a.2.2 0 0 1-.155.162.2.2 0 0 1-.205-.09l-2.846-4.686c.269 3.934-1.165 8.62-1.181 8.67-.026.085-.099.148-.195.137a.194.194 0 0 1-.182-.153c-.576-2.662-2.257-5.284-2.962-6.3a14.7 14.7 0 0 1-.54 2.916.195.195 0 0 1-.185.137c-.08-.008-.16-.053-.186-.133-.645-1.92-2.065-3.477-2.843-4.226 1.177 4.078-.166 8.806-.227 9.017a.195.195 0 0 1-.38-.026c-.657-4.412-3.422-7.373-4.367-8.272-.054 2.25-.918 4.163-.957 4.249a.195.195 0 0 1-.37-.057c-.381-2.996-2.193-4.545-2.556-4.827-8.97 1.732-17.175 3.392-23.75 4.803.394 2.69-.016 4.074-.034 4.133a.19.19 0 0 1-.177.137c-.078.011-.158-.044-.19-.12-.255-.624-.76-1.387-1.121-1.895.193 2.368-.058 3.917-.07 3.988a.195.195 0 0 1-.368.052c-.4-.843-1.127-1.724-1.576-2.226.195 2.564-.411 4.674-.439 4.769a.2.2 0 0 1-.186.141c-.082.013-.162-.055-.187-.138-.942-3.069-2.915-5.124-3.773-5.909a7.7 7.7 0 0 1-.107 2.632.195.195 0 0 1-.166.148.2.2 0 0 1-.196-.105c-.868-1.689-2.606-2.769-2.96-2.977a148 148 0 0 0-3.17.817c-4.13 1.12-4.976 2.091-4.957 2.709.024.823.958 1.484 5.658 2.427 1.394.279 9.008 1.586 20.534 3.566 8.44 1.449 18.892 3.243 30.27 5.214-.232-1.056-.657-3.168-.782-5.053a.2.2 0 0 1 .118-.193.2.2 0 0 1 .22.048l3.762 4.115c-.074-1.487-.245-5.675.03-8.343a.195.195 0 0 1 .374-.057l3.738 8.756a12.4 12.4 0 0 1 3.146-4.733.19.19 0 0 1 .21-.036.2.2 0 0 1 .117.179v4.101c1.128-1.328 4.796-5.376 8.689-6.738a.196.196 0 0 1 .24.269l-3.901 8.12c.834-.487 2.522-1.354 4.804-1.926a.196.196 0 0 1 .224.273c-.013.027-1.206 2.582-2.028 4.517 12.577 2.2 23.991 4.223 33.934 6.014-.191-.657-.63-2.316-.938-4.597a.195.195 0 0 1 .333-.163l4.195 4.282c.078-1.304.437-5.086 2.028-7.326a.2.2 0 0 1 .198-.079.2.2 0 0 1 .151.149l1.486 6.643c.708-.816 2.736-3.053 4.318-3.829a.195.195 0 0 1 .274.223z"/><path fill="#a737b4" d="M172.654 110.579c-1.141 2.689-2.219 5.266-2.219 5.417 0 .32 1.066 8.745 1.066 8.745-.266.521-.455.902-.507 1.028-.239.588-.559 5.699-.559 5.699h-.001c-3.245-.605-6.614-1.226-10.075-1.859l1.684-6.788c-1.892.928-4.508 4.077-4.508 4.077l-1.57-7.024c-1.892 2.664-2.013 7.67-2.013 7.67l-4.509-4.602c.403 2.987 1.023 4.872 1.023 4.872a6712 6712 0 0 0-34.488-6.113c.833-1.982 2.127-4.75 2.127-4.75-3.254.815-5.319 2.259-5.319 2.259l4.192-8.728c-4.584 1.605-8.948 7.096-8.948 7.096v-4.643c-2.502 2.322-3.253 5.145-3.253 5.145l-3.06-7.167q.07-.019.101-.024c.56-.102 20.731-2.043 21.24-2.196.51-.154 9.423-4.75 9.423-4.75s23.839-1.839 24.093-1.89 1.019-1.941 1.019-1.941l13.83-2.577s-.615 8.877-.615 9.493c0 .617 1.846 3.551 1.846 3.551m-83.469 4.039-8.481.969.004.001c5.265.906 10.928 1.883 16.84 2.906-.31-1.35-.721-3.472-.843-5.308l4.129 4.518s-.21-3.436-.135-6.507c-3.105.895-11.514 3.421-11.514 3.421"/><path fill="#181225" d="M170.435 131.663q-4.922-.913-10.111-1.861a.194.194 0 0 1-.154-.24l1.576-6.353c-1.789 1.093-4.037 3.785-4.062 3.814a.196.196 0 0 1-.34-.082l-1.469-6.573c-1.6 2.657-1.727 7.134-1.728 7.181a.2.2 0 0 1-.124.177.19.19 0 0 1-.21-.045l-4.093-4.177c.393 2.594.926 4.231.931 4.249a.2.2 0 0 1-.038.189.2.2 0 0 1-.181.065 6775 6775 0 0 0-34.488-6.114.2.2 0 0 1-.138-.099.2.2 0 0 1-.008-.169 155 155 0 0 1 1.955-4.379c-2.95.809-4.836 2.11-4.856 2.124a.195.195 0 0 1-.287-.245l3.981-8.287c-4.313 1.754-8.367 6.809-8.408 6.862a.195.195 0 0 1-.348-.122v-4.183c-2.17 2.188-2.863 4.709-2.87 4.735a.2.2 0 0 1-.175.145.19.19 0 0 1-.193-.118l-3.059-7.167a.196.196 0 0 1 .131-.267c.051-.013.092-.022.113-.026.223-.041 3.053-.324 7.652-.782 5.576-.556 13.212-1.317 13.57-1.41.359-.108 5.812-2.892 9.388-4.736a.2.2 0 0 1 .075-.021c8.173-.631 23.722-1.837 24.075-1.888.107-.095.548-1.024.87-1.822a.2.2 0 0 1 .146-.118l13.83-2.577a.195.195 0 0 1 .23.206c-.006.088-.615 8.876-.615 9.479 0 .408 1.114 2.331 1.817 3.446a.2.2 0 0 1 .014.182c-1.866 4.392-2.183 5.245-2.206 5.362.005.229.64 5.33 1.066 8.698a.2.2 0 0 1-.02.114c-.355.696-.467.935-.499 1.013-.167.41-.418 3.595-.545 5.637a.196.196 0 0 1-.195.183m-9.837-2.209c3.313.606 6.542 1.201 9.657 1.782.092-1.421.345-5.016.559-5.541.049-.121.208-.445.486-.989-.14-1.105-1.06-8.393-1.06-8.71 0-.086 0-.229 2.195-5.4-.407-.652-1.822-2.958-1.822-3.568 0-.565.496-7.776.598-9.255l-13.478 2.511c-.772 1.891-1.024 1.941-1.121 1.96-.257.052-21.455 1.688-24.077 1.891-1.066.549-8.915 4.593-9.421 4.745-.299.09-5.843.647-13.642 1.424-3.46.345-6.747.672-7.479.759l2.759 6.462a12.4 12.4 0 0 1 3.146-4.734.195.195 0 0 1 .327.144v4.101c1.128-1.328 4.796-5.376 8.689-6.738a.195.195 0 0 1 .24.269l-3.9 8.12c.833-.487 2.521-1.354 4.803-1.926a.19.19 0 0 1 .198.066.2.2 0 0 1 .026.207c-.013.026-1.205 2.582-2.028 4.516 12.577 2.2 23.991 4.223 33.934 6.015-.191-.657-.63-2.317-.937-4.597a.2.2 0 0 1 .107-.202.2.2 0 0 1 .225.039l4.195 4.282c.078-1.305.437-5.086 2.028-7.326a.2.2 0 0 1 .198-.079.2.2 0 0 1 .152.149l1.485 6.643c.709-.816 2.737-3.053 4.318-3.829a.195.195 0 0 1 .275.223zm-63.05-10.764-.034-.003c-5.911-1.024-11.574-2-16.84-2.907a.196.196 0 0 1-.163-.198.194.194 0 0 1 .17-.189l8.465-.968c.422-.127 8.494-2.55 11.5-3.416a.193.193 0 0 1 .248.193c-.074 3.027.133 6.455.135 6.49a.195.195 0 0 1-.338.144l-3.746-4.098c.178 1.894.604 3.89.793 4.712a.196.196 0 0 1-.19.24m-15.465-3.064c4.794.825 9.9 1.707 15.21 2.626-.233-1.056-.658-3.168-.783-5.053a.2.2 0 0 1 .118-.193.2.2 0 0 1 .22.048l3.762 4.115c-.053-1.053-.154-3.46-.111-5.71-3.251.941-11.176 3.321-11.258 3.346l-.034.007z"/><path fill="#181225" d="M90.215 114.313a.8.8 0 0 0 .314-.098l-1.344.403-2.775.317q.089.04.184.09c-.234.036-.865.115-1.02.005l-4.87.557.003.001 1.112.191h.005l-.001.001c4.948.852 10.226 1.762 15.724 2.714-.308-1.35-.72-3.472-.843-5.308l4.13 4.518s-.166-2.734-.149-5.504a.23.23 0 0 1-.174-.105c.051.015.122.021.174.035q.004-.469.014-.933c-1.215.35-3.242.95-5.26 1.55-.102.093-.163.096-.214.064-1.72.512-3.408 1.017-4.561 1.363.05.168-.338.335-.45.139m8.98.917c-.018-.021-.035-.042-.041-.063.1-.015.085.028.04.063m-.053-2.387a.5.5 0 0 1 .215.058c-.076-.015-.333-.003-.215-.058m-.063-1.012c.22-.095.015.219-.06.056q.03-.004.06-.056m.2.675c.262-.058-.244.102-.32.12q.173-.06.32-.12m-2.593.497c-.092.03-.154.135-.26.102a1 1 0 0 1 .26-.102m-.824 3.926q-.045.017-.096.028c.013-.046.032-.061.096-.028m-.428-3.42c-.122.019-.17-.045-.168-.107.13.004.204.023.168.107m-.395.623q-.041.068-.079.136c-.265-.033-.043-.091.079-.136m-1.213 2.458-.093.057c.006-.051.023-.13.093-.057m-.464-2.633c.17-.069.12.006.12.091-.112 0-.156-.018-.12-.091m-.244 2.244.005.041c-.026-.023-.077-.05-.005-.041m-.471-1.505c-.134.05-.27.018-.29-.078q.147.03.29.078m-.705-.095-.068-.024c.044-.001.104-.009.068.024M106.052 115.291q.019-.008.04-.014a12 12 0 0 1 1.938-2.342v3.926c.041.001.113-.013.091.017l-.091-.015v.715s4.364-5.491 8.948-7.096l-2.519 5.245c.156-.044.346-.118.563-.251.292-.241.227.655-.718.573l-1.518 3.161s2.065-1.443 5.318-2.259c0 0-1.293 2.768-2.127 4.75 2.424.424 4.864.851 7.308 1.281-.041-.125.034-.211.174-.273.007.105.047.21.006.305l2.088.367c-.103-.141-.071-.287.052-.417.641-.047.44.26.162.454a6385 6385 0 0 1 24.699 4.396s-.39-1.186-.752-3.164c-.327-.065-.446.106-.748.014.07-.169.486-.111.748-.018a36 36 0 0 1-.271-1.704l.323.33c.087.018.113.036.064.065l4.122 4.207s.057-2.291.678-4.598c-.112-.022-.198-.12-.195-.344.267.242.195.196.288.021.291-.994.689-1.971 1.241-2.749l.417 1.864c.369.117.629.48.13.579l.238 1.065a.4.4 0 0 1 .12-.061c.107.178.276.392-.046.396l.414 1.848c.115.003.274-.013.307-.154.487-.156.359.38-.212.27l-.078-.037.28 1.254s2.617-3.149 4.509-4.077l-.159.643c.055.017.027.077-.032.129l-1.493 6.016c3.46.633 6.83 1.254 10.075 1.859h.001s.319-5.111.559-5.699c.051-.126.24-.507.507-1.028 0 0-.342-2.7-.638-5.101-.07-.001-.124-.092-.214-.246.04-.058.106-.036.183-.001-.214-1.739-.397-3.264-.397-3.397 0-.151 1.077-2.728 2.219-5.417 0 0-1.846-2.934-1.846-3.551 0-.049.004-.155.012-.299a5 5 0 0 1-.239-.094.55.55 0 0 1 .243-.002c.097-1.854.599-9.098.599-9.098l-7.112 1.325c.052.028-.129.082-.257.116a.3.3 0 0 1-.075-.054l-6.386 1.19s-.764 1.89-1.019 1.941c-.163.033-10.013.8-17.066 1.346.135.022.272.034.403.028.821.492-.775.327-.975.017l-1.341.103c-.032.099-.088.186-.162.197a.28.28 0 0 1 .012-.185l-4.964.384s-8.914 4.597-9.423 4.75c-.317.095-8.225.88-14.303 1.486.014.011.026.019.04.037-.03.069-.16.017-.252.023q.021-.024.041-.043l-.468.047c-.097.02-.207.032-.315.031-3.255.325-5.79.58-5.984.615l-.1.024 3.059 7.167s.338-1.259 1.305-2.786zm2.006 1.732c-.06-.036-.017-.051.036-.08-.016.026.009.067-.036.08m6.364-.579c.178-.037.239-.148.318-.009.073.228-.401.273-.318.009m.649.744c-.072-.006-.033-.007 0 0m34.667 7.755c-.008.025.01.085-.049.073a.4.4 0 0 1 .049-.073m11.548 2.23c.058-.02.125-.036.188-.054.024.081-.153.148-.188.054m9.45-14.248c.068.054-.06.144-.15.13q.078-.063.15-.13m.34-14.273c.16-.04.115.035.145.103-.216.063-.179-.007-.145-.103m-54.068 14.111c-.099.143.061.169.211.332-.545.426-.793-.462-.211-.332M116 114.784l.014.014c-.023.013-.016-.004-.014-.014m.17.753c.359-.286.846-.54.594.042.265.35-.605.173-.594-.042m.832-.984c-.236.005.158-.314.199-.131-.007.074-.074.102-.199.131m-.078 5.816c-.275-.051-.077-.189.102-.259-.204.093.087.211-.102.259m1.24-1.951c-.13-.131-.505.141-.379-.092-.047-.113.675.06.379.092m2.102 3.755c-.088-.126-1.067-.032-.911-.26.298-.064 1.175.078.911.26m-.982-4.704c.034-.115.104-.231.2-.347.022.112.065.365-.2.347m.615 2.062c-.075-.038-.33-.039-.143-.117.179.062.515.166.143.117m.071-8.34c.046.026.074.049.028.078-.052-.028-.11-.049-.028-.078m-.281 2.992c-.006-.088-.123-.216-.01-.302.02.092.1.237.01.302m.385-.26c.03.007.065.013.092.021.001.074-.059.012-.092-.021m.61 8.032c.095.038.219.059.28.094-.284.178-.431.126-.28-.094m.282.559c.196-.092-.025-.082-.133-.132.31-.036.643.308.133.132m.143-.373c.112.029.279-.025.384-.062.191.468.095.375-.384.062m-.048-.749c-.224.01-.43.368-.888.084.674-.374 2.876-.557.888-.084m.108-2.191c-.154.135-.158.231-.438.203-.596-.262.034-.269.438-.203m-.109-3.076c.05.036.183.124.031.066q-.013-.034-.031-.066m.35 4.836c-.306.138-.815.473-1.002.024.343-.042.721-.077 1.002-.024m.633-4.432c.276.168.856.164 1.034.408-.719.145-1.261-.159-1.034-.408m.005 2.008a2 2 0 0 0 .169-.205c.118.105-.003.16-.169.205m.075-4.175c.027.08.069.155.085.229-.144-.079-.28-.134-.085-.229m.907 4.25c-.579-.055.222-.222.129-.047.161-.02-.647.627-.129.047m.179-1.504a.6.6 0 0 1 .2.038c-.148.066-.324.098-.2-.038m.527.694c.311.432.555-.152.787-.028-.259.597-2.204.329-.787.028m-.763.289.085.058c-.085.005-.096-.014-.085-.058m-.137-.984c-.067.104-.137.125-.23.021q.113-.014.23-.021m-.222 3.753c.176-.071.319-.219.489-.236-.112.122-.228.306-.489.236m.498-2.045c.286.016.402.066.392.23zm.383 3.498c.065-.017.303-.123.339-.045a3 3 0 0 0-.339.045m.547.486c-.078.031-.039.016 0 0-.11.141-.044.047 0 0m.167-3.323q.017.089.066.171c-.165-.007-.215-.125-.066-.171m.038 2.719q.115-.002.207.005c-.025.112-.116.031-.207-.005m-.002-3.929c.16-.015.318-.007.477-.002-.103.115-.3.014-.477.002m.692 1.477q.032.004.062.009c-.03.003-.073.017-.062-.009m.216 2.017c.438-.043.139.213.477.342-.532.17-.669-.062-.477-.342m.339-8.224c.342-.168.117.142.185.268-.266-.098-.533-.043-.185-.268m-.152-.992a.8.8 0 0 1 .171-.043c.099.023-.116.03-.171.043m.132 7.647a1 1 0 0 0 .33.192c-.221.113-.244-.102-.33-.192m1.085 2.372q.092-.01.182-.012c-.068.02-.119.047-.182.012m-.272-1.263c.164.056.267-.047.373.061-.032.088-.343.081-.373-.061m.297-3.805q.197.055.314.115c-.171.052-.228-.046-.314-.115m1.018 5.937c-.355.098-.476-.085-.432-.274.246-.015.547.132.432.274m-.396-6.011c.092-.122.33.079.21.124-.054-.049-.177-.068-.21-.124m.371 1.202c-.126-.035-.353-.013-.227-.115.092.045.171.084.227.115m.457 1.514c-.092-.196-.018-.065 0 0 .002-.027.004-.054 0 0m-.615-1.746c.119-.087.354-.086.522-.11.618.258-.24.185-.522.11m.298-1.014a1 1 0 0 0 .033-.083c.164-.004.029.047-.033.083m.313-.383q.068-.003.116 0c-.033.03-.075.014-.116 0m-.376-.316c.203-.028.769-.169.788-.037a1.84 1.84 0 0 1-.788.037m.867-.602c.082-.013.123-.054.108-.138.386-.07.194.246-.108.138m.025-2.056c-.004-.03.025.002.043.009zm.682 7.791q.059.021.117.047c-.077.022-.082-.015-.117-.047m.888-4.98c-.552-.136-.252-.481.223-.23-.079.116.134.366-.223.23m.12-5.801c1.395.521.488.784 1.09 1.544-1.745.962-1.103-1.018-1.09-1.544m3.369 1.297c-2.37 1.574-1.829-2.223-.212-.099.245-.5-.208-.931 1-.818-.86 1.11 1.722 1.11.422.016.362.309 5.657-2.084 4.539-.188-.81-.252-.807-.088-1.685-.318.447.505-.1 1.074-.969 1.621.835.353-.615.701.139 1.054-.788.034-1.147-.235-1.056-.536-1.1.571-2.325 1.084-2.814 1.429 1.143-.941.75-1.816-.428-.391-2.035-.896-.802-1.446 1.329-.982-1.424-.189 1.162-1.113-.265-.788m.848-1.597c.591-.191.262.13.648.133.386.347-.643.076-.648-.133m1.304-1.371c-.924.197.463-.667.539-.662 1.076.309-1.089.587-.539.662m.679-.831q.113-.12.217-.219c.092.113.062.193-.217.219m.24 1.363c-.365.222-.601.141-.892-.079.287-.173.599.072.892.079m-.861.465c.778-.021.629.089.406.384-.877-.191-1.426-.305-.406-.384m3.512-2.054c-.391.144-.341-.133-.369-.295.402.06.76.042.369.295m-.138-.773q.018-.01.036-.018c-.004.021-.003.043-.036.018m.045-.053c-.61.004-.397-.268-.177-.503.769.259.099.133.177.503m.541 2.098c-.394.958-.187.525-1.324.291-1.36-1.327.502-.332 1.324-.291m1.098-3.642c-.108-.02-.017-.234.061-.099-.154-.019-.01.046-.061.099m1.154 2.426c-1.008.544-1.043.135-1.784-.775.784.075 1.25.427 1.784.775m-.193-3.543q.139.108.375.23c-.509.107-1.117-.073-.375-.23m4.339 1.847c-.214.091-.308.025-.436-.08.142.02.355.015.436.08m-.88-.456c.188-.001.371.068.543.171-.226.176-.637.03-.543-.171m2.413 2.477c.077-.08.031-.166-.068-.227.155-.191.244.216.068.227m.018-2.439a.34.34 0 0 1 .122.221c-.206.026-.214-.155-.122-.221m.878 3.279c-1.408.662-1.567-.517-1.307-.945.334.94.565.594 1.307.945m.547-.101c1.27.082-.198.22.062.545 1.72.231-.516.037.524.528-1.546.106-.119.52-.104 1.056-1.893-.21-.158-.916-1.268-1.136-.536-.591-.327-.322-.048.012-1.237 1.372-1.258-.973.481-.611-.274 1.014.147-.179.353-.394m2.109 2.169.006.002c3.125-.79.348 1.526.946.128-.515-.003-.791-.056-.946-.128l-.01.002zc-.49-.233.302-.659-1.199-.271.548-.779 1.877-.458 1.199.271m-.638-1.111c.036-.02.069-.036 0 0m1.035-.61c.033-.044.037-.09.133-.083-.016.045-.046.075-.133.083m.39.187c.787.49.52.862-.431.357-.316-.149.458-.084.431-.357m-1.242.424c-.351-.049.902-.45.851-.609.268.391-.652.322-.851.609m5.236.374c-.053-.142.01-.183.252-.215q-.15.097-.252.215m.437 3.526c-.154-.147-.253-.304-.404-.36.031-.175.777.38.404.36m1.998-.131c.135-.234.117-.333.012-.364 4.027.239-.328 2.036-3.22 1.454-.033-1.191 4.029.991 3.208-1.09m.817-6.858c.196.269-.343.525-.815.486.105-.232.389-.337.815-.486m-.726-.622q.04.02.08.042c-.083.012-.141.011-.08-.042m.458-.051c-.133.092-.195-.121.063-.092-.042.031-.238.102-.063.092m-.585-.686a4 4 0 0 1-.08-.162c.099.06.221.095.08.162m.981 2.443c.2 1.018-.77.214-1.132-.007.539-.316.65-.182 1.132.007m.143 3.797c-.126.09-.331-.071-.129-.043.005-.094.093.009.129.043m.039-.303c.019.033.03.065.046.098-.207.029-.126-.028-.046-.098m-.227.817c-.27.467-.963-.42-.187-.236-.143.114-.158.331.187.236m-.759-1.439c-.115-.11-.175-.149.075-.148.061.117.284.212-.075.148m-.312 2.529c-.385.036-1.083.274-1.425-.01a20 20 0 0 1 1.425.01m-1.422.706.061.056c-.082-.021-.208-.053-.061-.056m.207.168c.106.09-.347.144-.381.136.097-.016.221-.059.381-.136m2.655.636c-.045.029-.071.038-.086.012q.042-.007.086-.012m-1.824 1.298c-.842-.332 1.135.288.784.793-2.72.012.063-.421-.784-.793m-.465-.262c-.209-.206.232-.18.297-.039q-.123.028-.297.039m.292-.111.156.032c-.099.034-.175.056-.156-.032m-3.667 1.029c-2.168-1.061-1.321-1.046.221-.687 1.821 1.453-3.434 2.113-.221.687m-.66 2.413a.4.4 0 0 1 .043-.087c.058.051.087.081-.043.087m-.477-.311c-.224.136-.582.668-.561.366.14-.14.362-.251.561-.366m-.304-.45c.138-.016.225-.025.088.042a1 1 0 0 1-.088-.042m.853 2.463c-.37-.075-.58-.289-.722-.083-.155-.205 1.151-.217.722.083m.632-2.073a.6.6 0 0 0 .144.066c.037.298-.566-.129-.144-.066m.107-.895c.281.012.483-.006.4.196-.147.153-.264-.123-.4-.196m.293.999c.037.04.129.092.29.16-.151.252-.566.055-.29-.16m-.46-3.097c-.836.046.815-1.074-.575-.769.394.363-.919.137-.437.38-2.372.775-.245-2.237 1.745-1.477.081.388-.159.585-1.052.164 3.792 2.223 3.021.719.319 1.702m-2.428 1.05c-1.392-.04-1.413-.679-.103-.367 1.294-.423.758.111.103.367m.686.467a6 6 0 0 1-.162.164c.029-.136.045-.416.162-.164m-.187 2.391-.054.002c.059-.117.025-.099.054-.002m-2.034-2.885c1.427-.022.81.05 1.568.785-1.088.045-1.984.208-1.568-.785m1.456 2.638c-.076.032-.151.111-.236.054q.12-.017.236-.054m-.279-.919-.053-.056c.095.001.103.015.053.056m-2.458-3.814c.642-.311.892.156 1.307.328-.737-.095-1.085.235-1.307-.328m.577.744c-.055-.052-.047-.072 0 0m-.894-1.108c.138-.175.197-.065.34.049a4 4 0 0 1-.34-.049m.086 2.285c.004-.039.013-.077.014-.116.249-.082.147.037-.014.116m-1.271-2.658c-.766-.994 2.248-.535.92.233.224-.728-.365-.443-.92-.233m.847 1.618c-.07-.035-.121-.063-.023-.097.011.031.016.064.023.097m-5.074 5.328c-.226.184-.352-.175-.53.101-.054-.22.309-.269.53-.101m-.627-.475q.028-.13.085-.252c.083.091.158.226-.085.252m.648 1.122c-.107-.019-.272-.003-.249-.089.159-.035.243-.024.249.089m-1.23-2.604c.551-.063.937-.577 1.559-.311.376.741-.822.331-1.559.311m.331-2.247c3.074 1.289-.7 1.036.057 1.656.971.52-.832-.237-.841-.823 1.574.125.559-.381.784-.833m-.853.534q.08.02.162.044c-.127.051-.196.057-.162-.044m-.574-.915c-2.111-1.052-3.24 1.504-1.796-1.157-2.438-.291 1.37-.817 3.776-.6l.007-.001.001.002c1.427.13 2.356.522 1.187 1.381-.962-.816-2.46.182-.959.299 1.098.194 3.909.165 1.921.214.921 2.054-2.82-.877-4.137-.138m.066.903c-.029-.449.386-.162.01.128-.368.023-.295-.252-.01-.128m-.212.385c-.532.485-.456.041-.756-.082.428-.354.567-.176.756.082m-1.586-.154c.02-.013.034-.019.051-.001zm.044.712c-.02.028-.032.078-.086.105q.04-.052.086-.105m-2.103 2.226c-.384.069.604-.336.657.035-.462.019-.587.215-.617.309-.016.054-.001.07 0 0a1.6 1.6 0 0 0-.04-.344m-.754-2.532c-.009.308-.498.367-.98.312-.454-.227.833-.107.98-.312m-.755 2.924c-.357.16-.506.193-.368-.103.136-.065.244.074.368.103m.094-3.934c.158.03.134.133.15.207-.152-.047-.168-.112-.15-.207m.321-1.396c-3.719-.307-2.479-.707-.031-.531 1.155-.004.017.174.031.531m.396-2.167c-.568-.013-1.337.328-1.293.679-1.16-.061-.1-.948 1.293-.679m-.986.794c.539-.694 1.287-.078 1.798-.95 1.348.876-1.046 1.575-1.798.95m3.455-2.485c.252-.378-.115-.482.515-.035 2.11 1.099-.694-2.927 2.577-.633-1.402-.386-.582 1.828-2.853 1.42.635.366.503 2.186-.306 1.304.99-1.18-1.307-1.126-1.857-.994 1.02-1.751 2.253.399 1.924-1.062m2.348-2.453c.205-.143.4-.143.591-.097-.414.2-.175.337-.591.097m1.529 1.466c.17-.059.125.337-.025.148.088-.051.079-.084.025-.148m.424 3.019c1.907.577 2.302.604.092.871.345-1.741-2.19-.838-2.754-.612-.155.068-.134.053 0 0 .178-.078.587-.265 1.332-.631-4.181-.822 3.194-1.49 1.33.372m1.573-1.115c.182.5-.796.149-1.186.383-.169-.283.69-.399 1.186-.383m.145 1.992a.5.5 0 0 0-.024.098c-.419-.076-.302-.065.024-.098m-4.546-1.064c-.208.007-.126-.141-.208-.24a.5.5 0 0 0 .208.24m-.816.758c-.055.056-.134.085-.255.074zm-1.054-1.484c-.017.154-.187.34-.394.521-.11-.127-.044-.283.394-.521m-1.276 2.587c-.087-.034-.298-.044-.268-.124.15.071.26.017.268.124m.369 3.977a3.4 3.4 0 0 0-.509-.355c.17-.098.443.299.509.355m-.227-1.622.056-.002c.002.021-.036.014-.056.002m-.262 2.427a.3.3 0 0 0-.003-.128c.165.055.159.072.003.128m.556-.362c-.117-.107-.08-.09.09-.043-.035.015-.061.029-.09.043m-.563-3.312c.402-1.01-.359-.977 1.211-.491-.622.147-.847.814-1.211.491m1.154 1.81c.645-.153.661-.322.802.094-.161.093-1.243.048-.802-.094m6.839-.353c1.239-.208 1.313.305.549.76-.577.167-.929-.525-.549-.76m.297-.261c.215-.169.481-.363.748-.62.331.33-.241.656-.748.62m1.447-4.504c-2.452.059.278.987-.004 2.046-1.836.334-1.762-3.643.004-2.046m-1.016-4.519c.212.001.536-.082.311.056a2 2 0 0 1-.311-.056m1.009 3.421c-.225-.258.133-.852.37-.376-.473.161.534.785-.37.376m1.212-.178c-1.025-.339.188-1.303.722-.529-.163.416-.843.116-.722.529m-.187 1.207c-1.04.084-.574.038-.367-.393.439-.286.599.183.367.393m-.787 2.661c.554.122-.094.265-.387.137.158-.026.287-.075.387-.137m-.039-2.337a.28.28 0 0 1-.113.146c-.042-.078-.055-.14.113-.146m.379 2.686a2.5 2.5 0 0 1-.747.1c.295-.13.541-.15.747-.1m-.306-.929c-.071-.889 1.189.033.456.591-.493-.084-.012-.554-.456-.591m2.601-1.561c.166.103-.129.269-.115.389-.168-.135.062-.262.115-.389m.59-1.645c.32-.165.369.019.366.182-.102-.051-.23-.121-.366-.182m.218 1.47a.35.35 0 0 0 .069-.158c.15.066.028.093-.069.158m.035.45c-.183.135-.698.167-.399-.052.131.036.265.05.399.052m-.132-.328a.3.3 0 0 0-.03.128c-.076-.045-.009-.082.03-.128m-.2 2.021a.74.74 0 0 0-.23.364c-.402-.133-.221-.498.23-.364m1.655-.409c.297.267-.323.342-.405.558-.587-.186-.575-.098.405-.558m-.157-.652c.278.069.344.169.057.264-.017-.084-.026-.183-.057-.264m-.397-.102c-.352.079-.004.299.119.454-.564.03-.805-.553-.119-.454m-.297-1.63c.269.316.126.405-.093.477-.164-.113.082-.274.093-.477m-.183-.982c.215-.038.394.006.526.251-.223-.04-.408-.126-.526-.251m5.02.335.022.019c.044.106-.277-.14-.022-.019m-.157-.098c-.114-.373-.899-.656.27-.738-.007.086.154.823-.27.738m-.318-2.471c.16-.099.069-.009.052.063q-.024-.031-.052-.063m-.196-.926c.228-.014.376.018.437.154-.078.135-.438-.058-.437-.154m.285 3.237c.003.932.221.878-.321.607.099-.821-1.613-1.039.321-.607m-.572-1.959c-.136-.001-.202-.184-.217-.269.142.061.146.193.217.269m-.084-.832c.085-.026.133.08.195.096-.097.013-.127-.067-.195-.096m-.459-1.986c.172-.026.302-.059.402-.095-.082.073-.229.098-.402.095m.124 3.225c.416-.312.186.078-.071.104-1.067-.497-.024-1.167.071-.104m-.174 1.447c-.14.182-.492.032-.336-.132.111.055.222.11.336.132m.14 1.285c1.594.827-4.212.099-2.87-.598 1.023 1.442 3.065-.6 2.87.598m-2.017-1.09c-.23.29-.701.227-.844.445-.192-.535-.076-.901.844-.445m.309.531c-.28-.138-.289-.246-.295-.526.565.181 1.341.491.295.526m.322-.692c.112.055.241.117.378.179-.117-.038-.523-.104-.378-.179m-2.684 1.336c-1.354.621-.568-.049-1.558-.049-.296-.777 1.31.049 1.558.049m-1.393-.8c.337.105.52.234.66.37-.54.041-.719-.036-.66-.37m.976.325c.06-.157-.076-.283-.177-.415.179.127.393.348.177.415m-3.542-2.395c-.07.148-.107.205-.098.009zc.093-.193.245-.543.432-.692 1.267.442.227.628-.432.692m.006-.866c.489.06.442.047-.015.118.061-.047.078-.096.015-.118m.463-1.342a.7.7 0 0 1 .157-.029c-.057.039-.114.109-.157.029m-.382-.449c.278-.028.404-.161.587-.297.495.394-.297.861-.587.297m-.656.824c-.003-.348.328-.666.636-.224.4.304-.325.158-.636.224m-.006-.726.098-.012c.145.075.004.026-.098.012m.352-.65c-.316.087-.371.02-.538-.153.205.055.378.106.538.153m-.527.883c-.248.001-.349-.078-.695-.132.402-.038 1.018-.208.695.132m.076 3.889a.4.4 0 0 1-.085.063c.016-.042.002-.11.085-.063m-.57-1.422c.227-.15.381-.195.521.002-.325.107-.438.071-.521-.002m.588 5.218c.813.439.257.479-.379.387-1.109.32.467-1.589.379-.387m-.797-1.769c-.301-.419-.923-.313-.72-.698.449.199 1.029.317.72.698m-1.638-2.123c.23-.36 1.097-.339 1.636-.171-.119.857-.854-.03-1.636.171m-.85-1.503c.771-.183-.837-.295-.335-.548 1.272-.028 2.301 1.043.335.548m.72-.822a1.7 1.7 0 0 1-.57.272c-.251-.126.372-.348.57-.272m-.075-.536a1.4 1.4 0 0 0-.118.143c-.148-.096-.062-.125.118-.143m-1.24-.544c.537.09 1.351-.509 1.637.113-1.752.532-1.57.848-1.637-.113m-1.711.035c-1.038-.028.143-.452.095-.726.773.548-.294.303-.095.726m-.488-1.166c.388-.166.342.21.517.353-.175-.087-.346-.222-.517-.353m-7.692 6.404c-.407.206-.66-.051-.502-.355.198.098.373.222.502.355m-.681 1.5c-.124-.185-.463-.378.112-.187.649.17.487.406-.112.187m.148-1.869c-.404-.047-.575.006-.592.108-.252-.311.284-.298.592-.108m-.525 2.624c.08.073.093.149.068.228-.141-.029-.081-.158-.068-.228m.03 1.748c-.062-.063-.137-.11-.025-.165q.01.09.025.165m.039.586c-.032-.071-.118-.147-.136-.208.08.07.232.132.136.208m.173-2.416c-.473.123.039-.246.081-.388.908.23-.129.179-.081.388m.313.334c.301-.07.459-.029.562.052-.18-.02-.694.053-.562-.052m.196.285c1.267.535 2.656-2.002 1.598.198-.574.569-2.366.398-1.598-.198m1.623 3.54.196-.117c.072.098-.056.101-.196.117m.139 3.191c-.127-.027-.408.038-.351-.088.109.033.324-.002.351.088m.087-6.43c.078.031.109.057.019.093-.11.023-.012-.062-.019-.093m-1.667 2.222c-.207-.201-.187-.476.03-.702.973-.209.403.502-.03.702m.991-1.882-.171.067c.092-.075.169-.207.171-.067m-.065 2.97c.098-.135.513-.62.264-.511.56-.34.623.63-.264.511m.454 3.8c-.692-.594.345-.255.626-.516-.155.298-.34.877-.626.516m.882-6.215c.006-.302-.063-.3-.551-.24.334-.202.993-.272.551.24m-.176-1.071c-.01-.066.375-.265.384-.147a1.3 1.3 0 0 0-.384.147m.634 4.97q-.006-.019-.01-.038c.036.023.094.052.01.038m.181 1.404c.017-.025.03-.054.086-.047-.014.026-.033.046-.086.047m.24-6.697.038-.005c-.012.011-.021.022-.038.005m.232 5.229a.5.5 0 0 1-.041-.121c.131-.012.088.113.041.121m.411.621c-.053-.039-.1-.06-.164-.015-.821-.236.633-.701.164.015m-.229-3.116c.165.001.339-.052.496-.018-.264.062-.409.24-.496.018m.696 2.626c.17-.034.263-.003.363.083-.163.003-.298-.014-.363-.083m.338-1.816c.089-.152.392.093 0 0m.207-.992c-.003-.056-.035-.11.078-.074-.026.028-.014.117-.078.074m.216 2.493c.477-.168 1.081.417.639.105-.132.124-.476-.051-.639-.105m.67 2.945q.067-.051.064-.179c.452.065.367.209-.064.179m.375-7.592c-.449.216.258-.236.123-.097a.3.3 0 0 0-.123.097m.192 3.927c-.241-.11-.057-.427.2-.433-.18.177.115.331-.2.433m.557-1.163c-.287-.179.375-.191.492-.046-.163.083-.308.136-.492.046m.336 3.584q.038.03.087.057c-.063-.004-.099-.018-.087-.057m.119.062c.068-.02.166-.131.205-.066-.058.059-.08.106-.205.066m.424-1.082c-.06-.077-.122-.155-.175-.225.297.05.45.111.175.225m-.187-.241c.014-.056.18-.105.27-.162.077.025-.207.074-.27.162m-.421-.549c-.264-.246.865-.397.996-.252-.318.036-.02.527-.996.252m.391-2.39c.355-.402 1.393-.181.699.144-.431.216-.377.081-.699-.144m1.039 2.436c.05.044.087.093.092.146-.205-.009-.15-.06-.092-.146m-.041-.461c-.505-.391-.126-1.196.261-.198.573-.551.009.356-.261.198m.779-.921c-.313-.011-.715-.196-.171-.151.128.066.541-.009.171.151m.407 4.663c.145.073.349.166.348.325-.121-.062-.468-.228-.348-.325m.158-3.183c.164-.229-.05-.135-.262-.258.815-.136.671 1.182.262.258m.191-1.412c.139.056.103.093.052.19-.214-.095-.412-.132-.052-.19m.068.331a.3.3 0 0 0 .132.101c-.267.019-.343-.005-.132-.101m.053-.356c.026-.001.104-.026.074-.001zm.111-.041c-.173-.138-.502-.269-.325-.423.464.08.711.177.325.423m.374 2.658q.308-.053.615-.11c-.302.129-.652.51-.615.11m.604 2.913a.75.75 0 0 0 .035-.335c.414.046.399.289-.035.335m.538-4.956c-.08-.066-.156-.139.028-.122a1 1 0 0 0-.028.122m.155-.6c-.581-.169.014-.186.422-.075-.12.034-.264.058-.422.075m1.158 4.585c.28-.239-.028-.359.835-.291-.026.293-.689.381-.835.291m.902-.342c.031-.125-.145-.217-.369-.302.518-.076 1.211.361.369.302m.355 1.602a.5.5 0 0 1-.067-.223c.339-.044.416.203.067.223m.426-1.024c-.416.105-.415-.24-.54-.341.613-.101.691.067.54.341m.807-8.043c-.82.514 2.505.076.383.996.14-1.359-.271.941-1.089.664.183-.453.01-1.766.706-1.66m.393 2.862c.013-.032.022-.063.04-.096.071.046.082.085-.04.096m-.48 1.968c.215-.027.026-.043.043-.113.332.019-.171.314-.043.113m-.042-.786c.008-.019.019-.004.029.005zm-.225-.654c-.019-.048-.061-.093-.163-.128.093.009.384.064.163.128m.057.518c-.026.054-.01.143-.125.155-.2-.097-.045-.115.125-.155m-.356 1.872c.234-.044.431-.116.548-.235.003.224-.502.712-.548.235m.56.29c.12-.07.215-.005.436-.193.291-.077-.05.409-.436.193m.058-2.137c.09-.194.317-.198.622-.214-.322.102-.262.381-.622.214m2.092-1.395c-.547 0-1.151.388-1.437.031.698-.135.771-.277 1.437-.031m.073 1.004c-.07-.004-.395.013-.177-.059-.144-.293.103-.12.177.059m-.875.479c.148.144-.1.161-.293.205-.151-.266-.178-.478.293-.205m-.291 5.062a.2.2 0 0 1 .076.084c-.109-.033-.256-.066-.076-.084m.147-2.78c-.357-.021.064-.217.132-.346.31-.001-.139.25-.132.346m.282.976a.25.25 0 0 1 .21-.043c-.079.005-.149.029-.21.043m.285-1.22c-.128.138-.078.256.154.345-.486-.036-.626-.08-.154-.345m.326-.483q.07-.026.145-.048c-.045.015-.136.057-.145.048m.114-.783c-.421.421-.645.181-.416-.153.25.307 1.329-.498.416.153m.11-1.177c.285.104.288.15-.01.261.03-.125.033-.209.01-.261m.529.415a.45.45 0 0 1-.016-.249c.218.008.089.191.016.249m-.715-2.482c1.324.268 2.058 1.745.986 1.093.478-.541-1.701-.109-.986-1.093m1.256 4.283c-.106.072-.078.055 0 0m1.6-2.483c-.192.333-.669.044-1.284.477-1.092.281.702-.512 1.284-.477m-.277 1.064c-.137-.04-.351-.033-.461-.069.197-.305.36-.176.461.069m-.851 1.136c-.307-.237-.062-.372.362-.426.706.118-.298.239-.362.426m.738 1.664c.206-.054.12-.009.065.087a1 1 0 0 0-.065-.087m.292.317c-.142.028-.14-.15-.215-.212.214.024.383.143.215.212m-.097-1.743c.14-.252.363-.012.544.091-.267.052-.567.167-.544-.091m.893 3.133c-.027-.008-.072-.006-.082-.022.039.001.136-.012.082.022m.641-1.448c.015-.091-.032-.172-.182-.237.086-.036.421.229.182.237m-1.227-1.99c.733-.312.236-1.186 1.871-1.272-.622.278-.411 1.964-1.871 1.272m1.858.945c-.229-.072-.153-.098.012-.198.035.054.008.131-.012.198m-.851-3.254a4.3 4.3 0 0 1 1.65.134c-.536-.111-1.448.176-1.65-.134m1.464 1.135c-.047-.166.008-.349.344-.577.277.23-.023.467-.344.577m1.03-2.12c-.251-.006-.54.061-.654-.095.306-.217 1.145-.179.654.095m.006-.645q.063.053.11.101c-.111-.003-.108-.049-.11-.101m.582 1.422c-.132-.063.046.005.073-.094.159.031-.016.059-.073.094m.097-.18c.012-.024.005-.067.062-.063a1 1 0 0 1-.062.063m.207-.911c.527.025.67.208.687.425-.407.695-.585-.336-.687-.425m.096-.213c.056-.109.216.052.37.063-.063.002-.226-.059-.37-.063m.196 3.721c-.074 0-.001-.064.001-.097.003.029-.001.066-.001.097m.458-1.115c-.234-.074-.46-.175-.695-.212.452-.383 1.029-.081.695.212m.304 3.873a.4.4 0 0 0 .069-.071c.005.059.054.138-.069.071m-.451-6.354c.137-.053.347.044.553.036-.218.322-.25.157-.553-.036m-.984-.671c.42-.271-.51-.848-.11-.254-.213.075-.118.4-.272.276l-.396-.236c.293.184.811.53.257.324-1.567-.303-.161-.994-.021-1.913-.185.04-.343.081-.451.111-.219.068-.18.049 0 0 .098-.031.246-.079.459-.15l-.008.039c.52-.113 1.244-.218 1.625-.048-1.533.093-1.591 1.803.805 1.323-.824.295-1.351.287-1.888.528m3.189 1.682c-.382.335-.268.484-1.233.539.519-.342.429-.823 1.233-.539m-.808-.456c.017.076.043.15.089.214-.417.043-.236-.071-.089-.214m-.076 1.46c-.104-.288.706-.45 1.01-.432-.1.488-.208.573-1.01.432m.929.737a1 1 0 0 0-.203-.004c.038-.06.132-.006.203.004m-1.108-.39c-.01.049.108.015 0 0m.204 3.433c.23-.159.294-.1.316.085-.175.051-.19-.039-.316-.085m.344-1.129c-.48-.262-.224-.356-.402-.606.685.08 1.221.346.402.606m.509-.059a.5.5 0 0 1 .072-.181c.021.057-.05.121-.072.181m-.953-.842c-.104-.624.513-1.884.488-.761 1.722.075-.428.931-.488.761m1.353-1.183a.86.86 0 0 1 .46.239 3 3 0 0 1-.46-.239m.075-.779q.167.104.331.21c-.067.355-.198.08-.331-.21m-.194-.361c.161-.159.57-.192.132-.382 1.061.168 1.009 1.304-.132.382m1.599-2.188c-.267-.046-.619-.175-.868-.053.391-.481.475-.146.868.053m-.495-1.159c.186-.005.132.026.052.099-.062-.024-.06-.06-.052-.099m.128.157c-.027-.025.092-.008 0 0 .043-.004.085-.008 0 0m.361 1.536c.157.424-.109.642-.745.694-.828-.509-.537-1.501.745-.694m.713-.654c-.227-.115-.814-.24-.665-.478-.369-.627 1.875.896.665.478m-.428-2.6.048.007c-.015-.004-.069 0-.048-.007m.71-.938c-.554.071-.883-.786-.46-.609-.199.498.599.13.46.609m-.117-2.896c-.095-.037-.539-.561.091-.22-.135.024-.196.072-.091.22m.833 1.262c-.279.201-.934.176-1.057-.076.492-.239.839-.031 1.057.076m.863-.774c-.268.494-.794.482-.934.005.292 0 .799-.183.934-.005m-.131-3.752c.196-.011.252.004.081.08-.025-.027-.087-.049-.081-.08m-.465 11.994c.167.156.077.599-.098.293.271.179-.229-.25.098-.293m-1.597-4.883c.905-.258.721.309 1.3.216.25-.02-.575.334-1.3-.216m.637 1.357q-.039.004-.076.01c.023-.006.091-.039.076-.01m1.298.113c-.184.006-.787-.072-.762-.178.278.015.567.078.762.178m-.191-2.933c-.018.024-.046.047-.067.071-.075-.04.005-.055.067-.071m-.415 2.404q.041.04.082.071c-.098-.006-.148-.013-.082-.071m.14 2.024c-1.462-1.236 1.442-1.141.394.034-.731.306-1.651.099-.394-.034m-.577 4.001c.001.036-.056.021-.1.02zm.506-3.292a1.3 1.3 0 0 1-.262-.045c.284-.058.339-.1.262.045m.096.29c.066-.001.186-.018.24.007-.207-.003-.714.065-.24-.007m.615 1.454c-.166.11-.331.22-.484.332-.029-.186.194-.303.484-.332m-.119-4.691c.066-.025.062-.13.153-.116.003.05-.075.147-.153.116m-2.28 3.649c.43.088.455.134.404.376-.199-.081-.784-.281-.404-.376m-.725 1.928c-.021-.126-.057-.217.19-.231-.007.086-.133.168-.19.231m.448-.835a.27.27 0 0 1-.083-.195.8.8 0 0 1 .083.195m.204 1.377c1.244-.462.03.225.155.54-.942-.037.087-.235-.155-.54m.502.062c.085-.171.084-.241.122-.263.115.066-.074.188-.122.263m.036-1.651c.04.138.09.11.131.008.61.354-.941.076-.131-.008m.202-.411c.048-.121-.141-.354.029-.268.028.05.175.359-.029.268m-.287-1.442c.135.065.535.083.491.117-.167-.019-.544.029-.491-.117m.531 5.568a1 1 0 0 1 .075.101c-.094-.023-.124-.049-.075-.101m.069-.106c.112-.164.253-.316.461-.437.185.2-.017.484-.461.437m.507 4.406c-.025-.043-.036-.089-.008-.14.044.056.162.125.008.14m.078-4.221c.06-.116.226-.251.403-.392-.119.197-.048.348-.403.392m.464 4.037c.004-.019-.009-.05.034-.035-.004.014-.008.028-.034.035m.178-4.625q.003.015.003.032c-.047-.005-.018-.018-.003-.032m-.137-.838c-.794-.29.504-.148.051-.367.94-.031.927.447-.051.367m1.101-3.249c-.064.088-.16.042-.272.013.087-.013.209-.071.272-.013m-.135-7.32c.091-.007.137-.02.054.036-.021-.011-.061-.016-.054-.036m.029 7.452q-.195.009-.349.058c-.274-.082.367-.129.349-.058m.003.35c-.167.051-.668.042-.495-.106.153.051.321.086.495.106m.052.483c.239.201.189.335-.18.134-.343.456-.207.044.18-.134m.078-8.205c.103-.037.077.017.07.059-.021-.021-.04-.042-.07-.059m-.293 12.491c.078.052.139.073.176.138-.149.087-.301-.089-.176-.138m.262.317q.143-.14.096-.273c.313.136.164.229-.096.273m.312-.468c.285-.037.606.087.749.209-.481-.038-.72.062-.749-.209m.604-6.912c.128.124.02.125-.189.104q.083-.055.189-.104m-.287-1.869a.5.5 0 0 1 .17.026c-.018.086-.106.003-.17-.026m.25 5.33c.079.107.072.188.03.286-.101-.042-.037-.196-.03-.286m-.012-4.022c.19-.026.341-.093.327.053a3 3 0 0 1-.327-.053m.727 4.029.04-.006c-.01.022-.023.028-.04.006m.453 3.889c-.098-.054-.07-.056.047-.053a.2.2 0 0 1-.047.053m.233-3.142c-.041-.057.036-.045.103-.047q-.05.021-.103.047m.212-5.329q.016-.031.025-.07c.043.013-.019.047-.025.07m1.01 7.557c-.131.022-.244.015-.19-.076.113.008.42.026.19.076m-.335-4.933c.076-.168.021-.339.369-.379.227.186-.005.356-.369.379m-.039-11.055c.036-.042.182-.054.119-.001a1 1 0 0 0-.119.001m.775 15.829c-.177-.046-.304-.067-.028-.082.106.019.126.037.028.082m.098-4.81q.014.014.029.026c-.059.024-.04-.001-.029-.026m.096 10.078c-.029-.011-.062-.018-.089-.031.05.012.163-.004.089.031m.106-8.18v.039c-.002-.017-.038-.06 0-.039m.036 7.992c.084-.028.135-.025.172.032-.073.046-.126-.001-.172-.032m-.048-9.089c.11-.162.038-.261.327-.279.074.126-.231.182-.327.279m.117-2.032c.092-.025.086-.012.067.037-.038.001-.046-.024-.067-.037m-.884-.434c.434.041.768.009 1.063-.081.464.262-.932.6-1.063.081m.6-5.625c.021-.183.394-.361.603-.439-.243.153-.33.361-.603.439m.819 12.48c-.133-.049-.163-.105-.077-.184.066.051.238.137.077.184m.76-14.734c-.062.024-.108.051-.14-.004.095-.041.205-.087.14.004m-.282 10.473a.5.5 0 0 1-.136.111c-.132-.019.074-.097.136-.111m-.592-10.982a1.1 1.1 0 0 1-.247-.227c.401.006.621.061.247.227m-.837-.269c.352.096.174-.001.126-.13.618-.007.224.374-.126.13m.263-5.931a.6.6 0 0 0-.304.007c-.039-.201.16-.098.304-.007m-.236-1.807-.097-.097c.023.033.12.066.097.097m-.528.542c.059.054-.081.074-.133.109-.093-.002.048-.115.133-.109m.344 5.822c.197.265-.692.594-.662.169q.374-.039.662-.169m-1.025 21.145c-.134-.175.104-.164.257-.028.025.103-.191.124-.257.028m.217-20.243c-.025.016-.042.031-.068.047-.03-.042.003-.051.068-.047m.021-6.647q-.117-.011-.234-.026c.081.005.162-.006.234.026m-.141 10.098c-.646.303.288.168-.109.441-1.118.591-1.334-1.148.109-.441m-.375 3.61c-.025-.035-.095-.067-.06-.103.011.033.083.08.06.103m-.505-.056q-.085-.035-.165-.07c.144-.06.144-.013.165.07m-.102-11.658a.5.5 0 0 0-.13.14c-.071-.119-.085-.155.13-.14m-.284 13.195c.007-.428.656-.05.891-.251-.098.228-1.204.633-.891.251m-.188-7.718c.003.008.012.016-.002.022q.003-.011.002-.022m-.087 13.261-.051.059c.006-.031-.014-.097.051-.059m-.056-7.003q-.097-.023-.191-.056c.076.016.204-.007.191.056m-.432-14.343c.119.079.265.143.284.25-.375.143-.46-.148-.284-.25m-.152 12.936c.216.045.277-.023.431.089-.007.25-.703.122-.431-.089m-.279-15.207c.056-.025.069-.034 0 0m.023 2.504c-.02-.002-.045-.002-.062-.006q.038-.021.062.006m.144 15.896c.299.186.034.227-.243.349-.163-.139.05-.243.243-.349m-.258-18.357c.004.036-.013.078-.073.035.028-.012.047-.023.073-.035m.452 23.415c.236.59-.316.555-.631.088.352-.487.079.117.631-.088m-.597-16.553c-.116-.095-.129-.244-.293-.307.297-.051.309.109.293.307m-.009.332c.142.228.025.189-.326.228.036-.045.133-.316.326-.228m-.339-6.444c-.002.027-.004.048-.056.035.024-.011.04-.023.056-.035m.012.132a1 1 0 0 0-.125-.058c.064-.054.128.015.125.058m-.181 14.651.022.015c-.021-.001-.033-.002-.022-.015m-.04-9.655c-.139.055-.265.123-.439.135.071-.266.092-.435.439-.135m-.557 6.488c.321.085-.235.151-.203.059.064-.02.122-.042.203-.059m-.437-6.415c-.166.251-.609.336-.098.065-.014-.074-.033-.134.098-.065m-.472-2.149c.093.098.232.144.303.215-.296.037-.289-.076-.303-.215m.188.022c-.124 0-.22-.021-.206-.099.143-.046.159.033.206.099m-.403 2.357q-.065 0-.132-.003c-.082-.068.075-.002.132.003m-.04.261a.4.4 0 0 0-.029-.158c.016.05.08.141.029.158m-.048 4.459c-.116.252.675.741-.138.632-.618.122-.49-.702.138-.632m-.475.899q-.007-.033-.012-.065c.088.002.024.035.012.065m.06 1.759c-.204.324-.634-.172-.572-.349.654-.075.914-.07.572.349m-.469-7.113a1.4 1.4 0 0 1-.331-.207c.245.024.28.059.331.207m-.634 10.195c.018.435-.833.47-.967.589q.094.076.196.178l.014.006c.401-.31.676.048.014.02l-.028-.026c-.2-.084-.242-.136-.196-.178-1.02-.832-1.11.53.346.419.809.344-1.922.443-.81 1.245.108.053.22.117.344.206a3 3 0 0 1-.344-.206c-1.204-.597-1.421.872-1.015-.442 2.087-.449.026-.53.289-1.304.343-.675-1.774-.066.032-1.015.679.073-.236.696 1.52.425.919-2.953 1.967 2.863.605.083m.007-5.325c-.338-.148-.291-.244.033-.392.149.157.294.264-.033.392m-.255-1.547a1 1 0 0 0-.079-.1c.042.041.238.119.079.1m-.206 1.28c-.185.042-.522.21-.558.058.189-.193.313-.251.558-.058m-.056 3.066c.148.188-.382.04-.552.021-.058-.329.406-.283.552-.021m-.515-3.644q-.133.12-.267.207c.045-.07.101-.351.267-.207m-.479-2.934c.134.065.183.162.249.247-.415.07-.469-.07-.249-.247m-.667-.323c-.258-.254.083-.127.389-.109a5 5 0 0 0-.389.109m-.463-2.813c-.013.037-.016.153-.056.125.022-.04-.007-.113.056-.125m.721 1.752c-.293-.131-.798-.075-1.02-.394.29-.13 1.051.068 1.02.394m-.884 1.397c-.224-.035.018.14-.329.023.197-.224.697-.338.329-.023m.237 1.407c-.187.269-.666-.092-.627-.3.12.079.3.182.627.3m-.273 1.628c-.052-.028-.12-.05-.1-.096.285-.115.169-.037.1.096m-.336 1.079c-.331.105.257.332.392.462.12.544-1.189-.596-.392-.462m-.382-1.628c.005.006.005.014.01.02-.03-.013-.064-.022-.01-.02m.016 2.226c-.545.596.116 1.038-.112 1.583-.923-.581-.72-1.319.112-1.583m-.674-.358c-.028.044-.086.125-.189.096.011-.074.062-.149.189-.096m-.169-1.05c-.099-.057-.197-.117-.302-.153.254-.032.372-.016.302.153m-.011-3.605c-.098-.05-.219-.093-.335-.138.144.037.425.032.335.138m-.251.572c-.039.006-.026-.02-.034-.036.056-.005.046.013.034.036m.038-1.036c-.127.034-.052.392-.23.278-.008-.141-.087-.269.23-.278m.046 3.09c-.169-.013-.382.096-.486.046-.075-.161.365-.152.486-.046m-.451.432c.118-.002.069.034.079.09-.079-.035-.278-.07-.079-.09m.086.118-.034.003c.013-.002.033-.013.034-.003m-.09.289c.032.127.176.285.337.45-.281.31-1.021-.558-.337-.45m-.467-1.07c-.025.154-.315-.014-.493-.023.291-.153 1.16.023.493.023m.1-1.077c-.178-.066-.301-.19-.468-.265.345-.101.423.146.468.265m-1.488-3.906c.328.068.552.156.935.36-.851.177-1.718-.296-.935-.36m.267.811c-.032.096-.078.091-.205.062.003-.111.077-.103.205-.062m.049 2.519c-.926-.01-.681-.198-1.236-.423.451-.072.929.218 1.236.423m-.695 2.549-.542.01c.097-.262.309-.183.542-.01m-1.069-6.247a.5.5 0 0 1 .033.166c-.084-.011-.031-.105-.033-.166m.473 2.963c-.176.157-.47.401-.688.218.215-.247.373-.656.688-.218m-.709-3.063a.5.5 0 0 1-.138.245c-.408-.062-.142-.428.138-.245m-.635.488c.192.041.427.022.653.086-.217.197-1.238.108-.653-.086m-1.038 3.632c.173-.046.685-.262.571-.158.182.242-.26.185-.571.158m.11-2.342c.498-.181 1.173.218 1.011.325-.556-.073-.617.084-1.011-.325m.276-1.192c.046.003.091.006 0 0 .042-.025.109-.022 0 0m-.066.332c-.396.043.554.379-.277.449-.108-.361-.205-.928.277-.449m-.862.862c-.116.036-.158-.122-.171-.161.238-.01.306.019.171.161m-.084.478c.115.132.112.373.4.187-.152.316-1.18-.138-.4-.187m-.719-1.649.002.028c-.008-.009-.021-.02-.002-.028m.213 2.398c-.224-.044-.372-.136-.526-.223a.7.7 0 0 1 .526.223m-.946-.488c.016.038.188.095.128.121-.038-.038-.21-.091-.128-.121m.267 1.65c-.068.029-.258.018-.186-.047zm-.273.14c-.005.007-.016.014-.02.022.009-.016.027-.061.02-.022m1.116.917c1.141.74 1.181-.053 2.382.473 1.037.931-1.523-.142-1.142.578-1.499.389-.209-.516-1.161-.624-3.89-.138 2.092-2.263-.079-.427m-1.27-2.37c-.05-.025-.102-.05-.143-.076.123-.004.181-.002.143.076m-.232 1.411c-.078.105-.05.367-.236.389.009-.129.037-.322.236-.389m-.288-2.537q.05.023.103.045c-.038-.017-.113-.014-.103-.045m.096-.598c-.316.223-1.029-.21-1.082.081-.421-.221 1.031-.238 1.082-.081m-1.273 1.591c-.479-.088-1.111-.365-1.478-.191.05-.424 1.442-.032 1.478.191m-1.144.855c.397.055-.202.196-.537.084-.421-.375.545-.438.537-.084m-.873-3.406c.553.284.174.871.034.254-.642.077-.661-.282-.034-.254m-.04 3.485c-.159-.029-.32-.039-.127-.135q.071.063.127.135m-.24-2.424a5 5 0 0 0-.216.013c.073-.018.173-.05.216-.013m.223 4.701c.687.376 1.235.01.683.61-.821.062-1.89-.539-.683-.61m-.655-2.367c.077-.041.155-.083 0 0-.092-.141.029-.115 0 0m-.026.911c-.012.017-.02.025-.048.011q.024-.007.048-.011m.225 3.241c-.231-.019-.328-.087-.346-.178.125.01.584.086.346.178m-.093.043c.282.184 1.766.153.627.856-.323-.223-1.813-.92-.627-.856m-.633-3.621c.398-.049-.234.026-.365.142-.077-.373.61-.462.365-.142m-.098-2.321c.116.095.05.247.006.363-.135-.105-.286-.281-.006-.363m-.566 1.341c-.082-.327.547-.297.369-.001.511.314-.656-.008-.369.001m.267.515c-.037.118-.155.2-.368.239-.012-.157.157-.2.368-.239m-.333.918c-.033.038-.066.072-.098.116.052-.038.026-.124.098-.116m-.891-2.284c.161.065.346.129.572.242.234.416-.818-.271-.572-.242m.537-.972c-.07.047-.178-.095-.252-.112.198-.069.21.011.252.112m-.538-1.141c-.18.016-.575.019-.259-.071-.052-.176.21-.003.259.071m-.242.447c.172-.064.554.01.502.131-.346.33-1.191-.02-.502-.131m-.323 2.337-.024-.047c.078.009.088.021.024.047m-.255-.829c-.158.002-.093-.148-.049-.166-.037.061-.009.119.049.166m-.083-2.02c.116.166-.251.104-.438.131zm-.758.832c.641-.019-.125.524-1.418.121 1.315.311.383-.748 1.418-.121m-1.02-.238c-.021.067-.249.351-.438.199-.176-.237.262-.135.438-.199m-.916 4.265q.031-.187.123-.399c.277.113.447.473-.123.399m-.548-1.032c.179-.056.327-.318.601-.307-.407.309-.662 1.054-.601.307m.381-2.014c-.122.029-.24.11-.368.052.12-.154.357-.353.368-.052m-.155-.472c.019.018.126.106.018.088a.3.3 0 0 0-.018-.088m.239-.878q-.158.086-.307.159c-.2-.063.191-.13.307-.159m-.373.827c-.058.006-.085.14-.205.105-.107-.128.034-.131.205-.105m-.42.339c.181.016.128.032-.012.074a1 1 0 0 1 .012-.074m.559 4.636c-.331-.016-.57-.075-.576-.413q.236.275.576.413m-.61-.449c-.125.087-.392.36-.68.142-.35-.293.5-.569.68-.142m-.592-4.538c-.059.124-.235.055-.35-.011.082.027.287-.043.35.011m-.544-.389c.306-.048-.103.211-.023.257-.41-.112-.18-.172.023-.257m-.497 1.939c-.146-.078-.321-.066-.366-.09.142.026.471-.017.366.09m.56 1.559c-.905.416-.368.573-1.282.638-.075-.351 1.114-.65 1.282-.638m-1.259 1.205c.005-.037.004-.074.006-.111.019.028.027.076-.006.111m-.289.641c1.42.487 1.287.496-.186.158.322-.655 1.68-.336.186-.158m-.491-5.763c.488-.138.169.273-.15.201.127-.057.192-.13.15-.201m.092 5.31c.43-.052.383.867-.38.441.35-.074.564-.189.38-.441m-.546 1.075c-.03.053-.012.129-.084.162.025-.047-.044-.156.084-.162m-1.397-4.217c.708-.204-.207.502-.565.039.206-.293 1.126-.698.565-.039m.54 2.336a.9.9 0 0 0-.16.244c-.544-.22-.547-.386.16-.244m.074 1.885c1.017.732.273.325 1.385.31-1.126 1.426-4.455-2.108-1.385-.31m-.633.728c-.277.054-.46-.071-.708-.139.116-.147.666-.018.708.139m-2.121-.449c.918-.305 1.246-.125 1.051-.543.945.414-.63.654-1.051.543m.839-2.305a1 1 0 0 1-.011.093c-.076-.043-.125-.078.011-.093m.259-.52c.264.188-.368.102-.259-.121.171-.069.506.05.259.121m-.191-2.355c.36.373-.41.121-.492-.046.74-.202-.014.141.492.046m-1.155 3.332q.002-.004.006-.007c.029-.065.066-.135.122-.211.249.024.41.037.517.045.172 0 .245.016 0 0-.209-.001-.556.024-.639.166l-.003.008c-.356.824 1.247.742 0 0zm.049 5.282c-.147.12.117.231.245.398-.66.223-.435-.532-.245-.398m-.064.971-.28-.053c.095-.109.166-.005.28.053m-.122 2.688q-.102-.054-.211-.104c.128.005.198.027.211.104m-.491 1.389c-.078-.213-.425-.353.137-.376.081.159.116.287-.137.376m-1.502-7.288c-.026-.461 1.254-.245 1.263-.612 1.299-.083-1.795 1.395-1.263.612m.025 1.373c.206.135.166.273.484.343-.388.035-1.218-.157-.484-.343m.289.495c-.127.139-.406-.065-.376-.156.123.032.249.089.376.156m.307-3.558q.303-.056.569-.076c-.272.173-.701.417-.569.076m.206-.627c-.003.017.022.037-.005.047.007-.016-.029-.048.005-.047m.511.298c-.248.047-.605.245-.794.227.011-.248.362-.388.794-.227m-.963-1.227c-.528.169-.871-.118-.409-.386.389-.072.575.203.409.386m-.289-1.251c.076-.002.153-.003.227-.011.15.156-.124.099-.227.011m.132-.072c.066-.029.058.028.089.052q-.043-.027-.089-.052m.056-.837c.064.312-.277.259-.623.178.203-.059.408-.138.623-.178m-.292.62a1 1 0 0 0-.042.083c-.212-.066-.184-.075.042-.083m-.12.289c-.11.218-.24.18.149.255-.275.299-1.642-.562-.149-.255m-.632 2.302c.64-.214 1.688.439.632.399-.21-.543-.928.362-.632-.399m.2 4.458c-.053.011-.127.06-.16.044.052-.022.103-.093.16-.044m-.645-4.8c.314-.165.051.059-.011.162-.06-.025-.076-.078.011-.162m1.988 6.952c-1.044-.54-1.215.891-2.101-.261.639-.069 1.72-.212 2.101.261m-2.152-3.22c-.027.07-.072.123-.187.065a1.4 1.4 0 0 1 .187-.065m.067 4.049c-.086.034-.21.086-.285.047.129-.075.207-.188.285-.047m-.22.289c-.08.102.159.261-.03.304-.044-.085-.093-.25.03-.304m.038 3.77c-.051.046-.09.09-.141.018.016-.061.067-.044.141-.018m-.042 1.855c.086.03.304.019.2.084-.233-.02-.445.075-.2-.084m-.229-13.488c.084.065.11.132.106.199-.021-.07-.219-.158-.106-.199m.064-1.856c-.564.032-.873.461-1.128.143-.019-.192.899-.216 1.128-.143m-.22 2.616c-.129.074-.192-.058-.126-.07q.066.034.126.07m-.01.761c-.29.287-.973-.097-.898-.321.541.202.506.125.898.321m-.22.978c-.067.198-.791.24-.414.473-.931.046-.167-.48.414-.473m-.889 5.853a.45.45 0 0 1-.093-.179c.077.01.253.16.093.179m-.146-1.373a.4.4 0 0 1-.162-.115.8.8 0 0 1 .162.115m-.262.741c-.096-.035.027-.102.033-.156.25.068.068.064-.033.156m.005-2.454-.119.021c.048-.012.166-.094.119-.021m-.021.051c-.025.028-.048.053-.075.088-.158.021.188-.21.075-.088m-.304-3.143c.252.235-.284.109-.394-.001.098-.024.194.041.394.001m.166 2.325c-.361.235-1.133-.722-.68-.886.555.674-.162.307.68.886m-1.026-1.065c.096.027.189.079.282.138a2 2 0 0 1-.282-.138m.078-.296c-.404-.028-.205-.195-.109-.345.086.13.298.212.109.345m-.016-3.791c-.029.07-.135.193-.268.109.119-.068.102-.2.268-.109m-1.34 1.092c.197-.021.361.137.416.178-.364-.048-.839.143-.416-.178m-.253.247c.083.068.094.12.049.162-.078-.053-.145-.105-.049-.162m.203 1.226c.269-.019.193.09.221.198-.555-.09-.996.053-.221-.198m-.372 4.317c.035-.013.087.001 0 0m.039 3.524c.183.009.431.126.63.239q.012-.011.023-.024c.2.154.292.221.311.235a4 4 0 0 0-.334-.211c-.352.406-1.393-.013-.63-.239m-.344-3.752c-.006.006-.073.108-.167.003-.207-.361.42.07.167-.003m-.235-.261c.02.039.123.084.027.103-.007-.035-.048-.069-.027-.103m.255-4.07c-.15-.037-.515.043-.536-.038.151-.105.358.001.536.038m-.575 3.151c.041.053-.043.064-.118.072-.001-.037.082-.047.118-.072m-.197-1.95c.094.173.217.859-.209.596.258-.195.152-.398.209-.596m-.823-2.846c-.019.199.55.213.642.542-.398.435-1.066-.825-.642-.542m-.001 1.52c-.121-.033-.25-.063-.376-.095.112.024.31.034.376.095m-.719 5.923c.344.237.63.086.007.395-.421-.252.185-.198-.007-.395m-.47 1.818a.7.7 0 0 0 .101.142c-.132-.053-.341-.095-.101-.142m-.164-1.173c.054-.107.004-.213.176-.085-.067.055-.191.168-.176.085m.047-3.678c-.189-.124-.314-.244-.499-.171.007-.293.744.258.499.171m-.725-.257c-.262-.048-.967.325-.817-.169.717-.171.563-.362.817.169m-.229-2.493c-.107.09.13.201-.178.12.1-.027.09-.111.178-.12m-.494.869c-.264-.075.094-.2.207-.031-.094-.039-.167-.031-.207.031m-6.34 1.911c.081-.1.239-.153.415-.187.084.182-.155.183-.415.187m4.147-2.927c-.008-.015.018-.077 0 0m-.98.559c.2-.018.201.102.163.187-.127-.048-.365-.102-.163-.187m-1.861-1.672a1.6 1.6 0 0 1-.305-.095c.119 0 .209.06.305.095m-.198.01c-.072-.021-.13-.063-.194-.096.112-.037.155.066.194.096m-.31-.056c.629.04.06.293.01.109-.537-.01-.258-.057-.01-.109m-.294 1.86c.01.06.055.134.149.228-.224-.111-.517-.133-.149-.228m-.511-1.488c.007.021.056.055.038.07-.07-.036-.209-.06-.038-.07m-1.766 3.872c-.081-.041.01-.037.065-.046-.001.022-.044.027-.065.046m1.168-4.07c.23.045.101.131-.084.096.028-.035-.008-.115.084-.096m-.77 2.89c-.048-.012-.127.012-.117-.03.029-.082.096-.027.117.03m-.114-2.295q-.209.073-.344.18c-.224-.205.084-.168.344-.18m-1.246 2.377c-.109.124-.063.039-.126-.036q.054.027.126.036m-.309.136c-.053-.003-.136.019-.158-.007.003-.074.141-.035.158.007m-.527-1.937c.247.125.188.194-.093.239-.052-.065.095-.171.093-.239m-.527.064c.286-.036.058.268.095.383-.172-.068-.569-.38-.095-.383m-3.733-.464c.086.031-.08.053-.124.079q.056-.039.124-.079m-.002.275a.5.5 0 0 1 .157-.084c-.065.023-.096.087-.157.084m.633.079c.004-.01-.011-.044.013-.029zm.169 2.455c.187-.073.262-.052.289.078a1.3 1.3 0 0 0-.289-.078m.828.209c-.211-.151-.433-.446.032-.395a.8.8 0 0 1-.032.395m1.437-2.51q-.046-.059-.042-.106c.111-.004.091.077.042.106m-.095 1.491c.208.019.023.368-.127.199-.042-.061-.221-.245.127-.199m-.294-.614c.107-.003.075.028.043.071-.047-.04-.175-.063-.043-.071m-.284-.445a.2.2 0 0 1-.008.051c-.049-.016-.021-.033.008-.051m.43 2.121c-.079.161-.337.378-.563.181.04-.115.376-.409.563-.181m-.189.495c-.006.013.043.019 0 0m-.291.12c.412.22.464.319-.086.088-.026-.036.045-.06.086-.088m.184.478a1 1 0 0 1-.259-.164c.105.06.361.076.259.164m-.007.089c.067.164.237-.036.377-.055.783.094-.715.366-.377.055"/><path fill="#181225" d="M136.088 109.047c.192.025.15-.003.035-.069q-.017.033-.035.069M135.781 113.059c.324-.169.637-.343.917-.519-.038-.016-.075-.032-.124-.048-.473.15-.733.366-.793.567M160.194 116.103q.04-.155.081-.287c-.666.161.066.949-.081.287M155.522 118.065c-.264-.159-.175-.11 0 0M143.037 115.657c-1.175.708-1.957.244-1.689-.095.335.247 1.918.192 1.423-.377h-.008c-7.056.561-1.3 2.826.274.472m-2.232.162c.053.042.025.132-.032.241a.5.5 0 0 1 .032-.241M160.347 115.8l-.07.01-.002.006c.024-.005.045-.012.072-.016"/><path fill="#f6f6f8" d="M156.745 111.286c.057-.231.734-3.971.734-3.971l.346 4.076 4.211.908-4.384.289-.981 4.743-.115-4.916-3.404-.868zM166.563 104.856l.546 1.121v-1.355l1.092-.835-1.222.183-.546-.834-.026 1.095-.936.834zM165.883 125.569l-.383-1.713 1.031 1.388 1.178-.295-.883.827.265 1.506-.943-1.063-1.237.147zM132.976 120.553a.723.723 0 1 0-.001-1.445.723.723 0 0 0 .001 1.445M137.707 106.465a.568.568 0 1 0 0-1.137.568.568 0 0 0 0 1.137M144.751 107.99c.572 0 1.035-.464 1.035-1.037a1.036 1.036 0 1 0-2.069 0c0 .573.463 1.037 1.034 1.037M165.441 119.392a1.037 1.037 0 0 0 0-2.075c-.571 0-1.034.465-1.034 1.038 0 .572.463 1.037 1.034 1.037M151.519 106.411a.459.459 0 1 0-.002-.918.459.459 0 0 0 .002.918M110.187 112.567a.459.459 0 1 0-.002-.918.459.459 0 0 0 .002.918M136.294 113.143a.651.651 0 1 0-.002-1.304.651.651 0 0 0 .002 1.304M126.613 121.191a.526.526 0 1 0-.002-1.052.526.526 0 0 0 .002 1.052M118.326 114.014a.526.526 0 1 0-.002-1.052.526.526 0 0 0 .002 1.052M142.831 118.71c0-.093.124-2.054.124-2.054l.621 2.023 2.359-.747-2.049 1.339 1.894 1.432-2.235-.841-.155 1.962-.466-2.024-1.708.654 1.429-1.183-1.584-1.277zM123.747 113.779l1.454-3.022-.77 3.382 2.184-.545-2.235 1.403.215 2.568-.93-1.864-1.172 2.31.526-2.553-1.819.567 2.085-1.577-.63-2.232z"/><path fill="#181225" d="M176.01 100.126c-.132.38-.256.95-.354 1.342a69 69 0 0 0-.556 2.85l-2.636 6.166q-.003.01.008.017l.372.159q.012.004.018-.006l2.17-5.068.489-1.144c.209-1.242.391-2.4.493-3.614a8 8 0 0 0 .041-.694.02.02 0 0 0-.016-.021c-.012-.004-.025.002-.029.013M174.57 118.954c-.196.169-.376.459-.522.653-.848 1.265-1.993 3.633-2.733 5.03q-.002.007.009.013l.361.185q.01.006.015 0l1.509-2.892c.444-.842.911-1.68 1.253-2.574.051-.124.1-.261.139-.381q.001-.008-.008-.023-.012-.018-.023-.011M157.777 89.3c-.074.387-.111.957-.15 1.35-.182 2.499-.174 6.841-.246 9.45q.001.01.013.012h.405q.013 0 .015-.012l.101-5.391c.027-1.573.078-3.157-.029-4.73a9 9 0 0 0-.063-.677.02.02 0 0 0-.02-.018c-.012-.002-.024.006-.026.017M169.93 90.715c-.055.255-.064.627-.083.885-.058 1.633.165 4.452.223 6.15q.001.007.014.007l.404-.02q.013 0 .014-.008l-.166-3.509c-.051-1.023-.079-2.056-.264-3.072a4 4 0 0 0-.097-.435q-.004-.01-.02-.01c-.012-.001-.024.004-.025.012M174.426 83.524c-.152.287-.307.728-.426 1.03-.697 1.933-1.594 5.378-2.207 7.426q-.002.01.01.014l.389.112c.007.003.015 0 .016-.005l1.223-4.25c.354-1.241.733-2.485.958-3.761.034-.182.065-.366.08-.554q0-.012-.015-.019c-.011-.004-.024-.002-.028.007M171.423 97.73h-.02a.195.195 0 0 1-.174-.216l.309-2.974a.2.2 0 0 1 .215-.174.194.194 0 0 1 .173.215l-.309 2.974a.196.196 0 0 1-.194.175M150.52 94.71c-.067.281-.094.694-.125.98-.135 1.81-.045 4.953-.068 6.841q.001.008.014.009h.404q.013 0 .014-.009v-3.906c-.002-1.14.019-2.287-.118-3.425a4 4 0 0 0-.076-.49q-.003-.01-.019-.012c-.013-.001-.025.004-.026.013M123.5 99.21c-.021.32.019.78.035 1.1.158 2.022.756 5.485 1.039 7.577q.001.008.015.008l.4-.059q.012-.002.013-.012l-.632-4.32c-.187-1.26-.352-2.533-.671-3.771a5 5 0 0 0-.155-.53q-.004-.011-.021-.012c-.012.001-.023.009-.023.018M120.702 94.984c-.093.5-.159 1.238-.218 1.748l-.098 1.151-.094 1.331.643 2.449.682 2.518 1.232 4.552q.004.013.018.011l.391-.106q.011-.005.009-.018l-1.825-6.769-.729-2.682.055-1.634a49 49 0 0 0 .009-1.667 14 14 0 0 0-.029-.882q-.002-.017-.019-.023c-.012-.003-.024.007-.027.021M101.087 104.976c-.041.22-.03.535-.035.754.03 1.385.405 3.748.554 5.178q.002.006.015.005l.402-.049q.012-.002.013-.008l-.356-2.951c-.106-.861-.189-1.731-.429-2.574a2.5 2.5 0 0 0-.119-.36q-.004-.008-.021-.008c-.012.001-.023.007-.024.013M87.59 103.096c-.01.422.047 1.033.074 1.457.23 2.684.952 7.298 1.31 10.08q.001.013.015.012l.401-.055q.013-.004.012-.015l-.787-5.75c-.231-1.676-.442-3.369-.806-5.026a10 10 0 0 0-.174-.71.02.02 0 0 0-.022-.015.023.023 0 0 0-.023.022"/><path fill="#000" d="M69.454 102.48c-.06.413-.075 1.017-.099 1.436-.038 1.175-.027 2.694.001 4.333l1.04 5.628a.013.013 0 0 0 .016.01l.398-.073a.013.013 0 0 0 .011-.015l-1.024-5.594c-.033-1.661-.042-3.348-.209-5.01a9 9 0 0 0-.089-.715.02.02 0 0 0-.02-.018.023.023 0 0 0-.025.018"/><path fill="#181225" d="M72.154 109.978c-.05.159-.053.384-.068.541-.033.99.234 2.675.318 3.695q.002.004.014.003l.403-.042q.013-.002.013-.006l-.22-2.106c-.067-.614-.111-1.235-.312-1.834a1.4 1.4 0 0 0-.103-.255q-.003-.006-.02-.005-.02.002-.025.009M73.734 106.421c-.04.299-.027.732-.03 1.033.023 1.138.17 2.75.322 4.309l.484 2.822q.003.008.015.006l.4-.068q.012-.002.012-.011l-.477-2.806-.112-1.223c-.112-1.189-.201-2.388-.447-3.563a5 5 0 0 0-.122-.503q-.004-.01-.02-.011-.022.002-.025.015M156.244 91.869c-.066.365-.093.903-.124 1.275a49 49 0 0 0-.065 2.044c.002.754-.044 1.566.029 2.377l.278 4.489q.001.01.014.011l.404-.025q.013 0 .013-.012l-.304-5.07c-.013-1.481.015-2.973-.124-4.453a7 7 0 0 0-.075-.636q-.004-.014-.02-.017c-.012-.001-.024.006-.026.017"/><path fill="#efcbf7" d="M131.277 113.876c-3.222-7.975-3.012-14.011-.01-21.17 4.584-10.93 14.172-15.277 14.112-20.394-.057-4.833-6.415-6.959-15.276-7.815-7.826-.756-17.55-.326-27.405-5.087-5.33-2.574-9.567-5.058-12.654-9.552l-.201-.297c-3.808-5.68-5.21-11.876-6.337-16.86l-.21-.923c-1.21-5.294-2.766-11.837-5.478-14.746-4.48-4.807-7.79-3.714-7.79-6.89 0-2.74 6.604-3.177 8.89-3.177 5.212 0 9.916 1.366 14.592 3.506 8.046 3.684 13.433 10.815 17.701 15.962 3.974 4.793 7.028 9.39 15.219 13.244 5.709 2.686 12.47 3.552 20.993 5.24 15.472 3.066 27.705 8.972 28.043 18.597.19 5.418-3.458 11.486-21.179 20.696-6.047 3.143-13.903 8.258-17.937 13.652-5.835 7.801-5.159 15.768-5.073 16.014"/><path fill="#181225" d="M131.273 114.067a.19.19 0 0 1-.176-.118c-3.12-7.719-3.123-13.896-.01-21.32 2.405-5.733 6.182-9.669 9.216-12.831 2.743-2.858 4.909-5.116 4.881-7.484-.049-4.152-4.988-6.646-15.1-7.622-1.571-.152-3.205-.255-4.935-.364-6.857-.432-14.63-.923-22.536-4.742-5.803-2.803-9.747-5.275-12.73-9.617l-.202-.298c-3.829-5.712-5.235-11.93-6.365-16.928l-.21-.922c-1.065-4.659-2.675-11.7-5.43-14.656-2.08-2.231-3.918-3.184-5.26-3.88-1.556-.806-2.583-1.339-2.583-3.144 0-3.277 8.154-3.372 9.084-3.372 4.76 0 9.422 1.12 14.674 3.524 7.404 3.39 12.535 9.642 16.658 14.665q.569.695 1.112 1.35c.465.561.918 1.12 1.368 1.675 3.389 4.182 6.591 8.132 13.784 11.517 4.563 2.147 9.918 3.147 16.117 4.305 1.546.288 3.154.589 4.831.92 22.922 4.542 27.987 12.72 28.2 18.782.167 4.766-2.231 10.974-21.285 20.876-2.955 1.536-12.979 7.057-17.87 13.596-5.896 7.883-5.059 15.772-5.042 15.841a.2.2 0 0 1-.128.237.2.2 0 0 1-.063.01M78.917 7.16c-3.007 0-8.694.623-8.694 2.981 0 1.567.842 2.004 2.371 2.797 1.368.708 3.241 1.68 5.367 3.96 2.826 3.033 4.387 9.855 5.526 14.836l.21.923c1.122 4.965 2.52 11.145 6.307 16.795l.201.296c2.933 4.27 6.833 6.711 12.577 9.486 7.838 3.786 15.57 4.273 22.392 4.703 1.733.11 3.37.213 4.948.365 10.346 1 15.4 3.619 15.452 8.008.03 2.528-2.185 4.837-4.99 7.76-3.012 3.138-6.761 7.045-9.137 12.712-2.948 7.028-3.098 12.69-.45 19.833.008-2.689.75-8.926 5.197-14.87 4.94-6.606 15.029-12.163 18.003-13.71 18.861-9.801 21.237-15.87 21.074-20.514-.396-11.291-17.642-16.382-27.886-18.412-1.675-.331-3.282-.631-4.826-.92-6.226-1.162-11.603-2.166-16.212-4.335-7.273-3.423-10.502-7.407-13.921-11.624-.449-.554-.901-1.112-1.365-1.672q-.544-.657-1.113-1.351c-4.097-4.993-9.197-11.206-16.52-14.558-5.198-2.38-9.81-3.489-14.51-3.489"/><path fill="#fdb81b" d="M140.367 56.305c.951-1.09 10.597.75 15.35 4.156 0 0-1.581-4.083-9.766-6.591-3.811-1.168-6.526-1.116-9.692-2.435-2.606-1.085-3.786-2.962-2.455-4.062 1.935-1.601 10.319-.288 10.941.052-5.95-3.25-12.36-3.084-18.777-6.002-17.522-7.966-16.911-20.836-33.218-29.095-8.33-4.219-16.219-3.452-20.134-2.644-.635.135-.702 1.022-.089 1.24 1.711.621 4.14 1.92 6.786 4.657 3.053 3.165 4.55 9.344 6.012 15.732 1.164 5.105 2.438 11.46 6.312 17.186 0 0 .006.005.01.016.276.339 4.91 6.043 7.156 5.475 1.55-.391-.525-2.482 1.498-2.9.878-.182 2.163.512 3.177 1.137 2.563 1.59 5.808 4.474 12.012 5.074 4.274.417 3.619-.897 2.496-2.07-.941-.98-1.711-2.644.426-2.394 4.686.542 8.102 4.897 24.196 5.444 0 0-3.193-.886-2.241-1.976m-5.372-1.379c-.434.619-3.018.67-6.321-.219-1.754-.472-4.522-1.893-5.569-3.212-.762-.959-.13-1.292.542-1.186 1.368.215 2.99 1.53 6.632 2.209 4.855.903 5.122 1.83 4.716 2.408"/><path fill="#181225" d="M155.717 60.656a.2.2 0 0 1-.113-.036c-4.668-3.344-14.238-5.16-15.091-4.186-.152.173-.138.298-.114.377.154.519 1.469 1.062 2.261 1.282.095.026.155.12.141.218-.015.097-.091.158-.2.166-10.922-.372-15.962-2.465-19.642-3.994-1.721-.715-3.08-1.28-4.569-1.451-.603-.071-.996.018-1.111.249-.173.35.191 1.13.847 1.814.487.51 1.102 1.252.822 1.831-.286.592-1.391.773-3.477.57-5.239-.507-8.442-2.664-10.781-4.24-.463-.31-.898-.604-1.315-.862-.906-.56-2.21-1.283-3.035-1.112-.901.186-.838.707-.758 1.366.072.582.16 1.306-.731 1.531-2.248.572-6.52-4.514-7.353-5.539-3.685-5.445-5.054-11.495-6.153-16.357l-.21-.926c-1.33-5.812-2.837-12.4-5.962-15.64-2.675-2.767-5.127-4.033-6.712-4.608a.82.82 0 0 1-.552-.844.84.84 0 0 1 .666-.772c3.983-.822 11.91-1.57 20.263 2.66 7.916 4.01 11.926 9.179 15.804 14.178 4.126 5.317 8.391 10.816 17.406 14.915 2.978 1.353 5.987 2.047 8.898 2.718 3.443.794 6.696 1.544 9.892 3.29.095.051.13.17.078.265a.194.194 0 0 1-.264.078h-.001c-.562-.302-8.857-1.616-10.723-.073-.373.309-.53.683-.466 1.113.136.92 1.264 1.948 2.871 2.617 1.754.73 3.391 1.04 5.124 1.37 1.407.266 2.862.541 4.551 1.06 8.182 2.506 9.825 6.536 9.891 6.706a.2.2 0 0 1-.062.225.2.2 0 0 1-.12.041m-13.85-4.858c3.058 0 9.417 1.617 13.271 4.04-.849-1.258-3.274-3.952-9.243-5.781-1.669-.512-3.114-.785-4.51-1.05-1.754-.332-3.411-.646-5.201-1.392-1.758-.732-2.949-1.85-3.108-2.92-.084-.567.125-1.077.604-1.473 1.544-1.278 6.879-.772 9.585-.32-2.71-1.243-5.489-1.884-8.406-2.557-2.93-.675-5.959-1.374-8.972-2.744-9.102-4.138-13.398-9.675-17.553-15.03-3.852-4.965-7.834-10.1-15.672-14.069-8.247-4.176-16.075-3.438-20.007-2.626a.44.44 0 0 0-.357.415.43.43 0 0 0 .295.45c1.625.59 4.133 1.883 6.86 4.704 2.965 3.075 4.44 8.739 6.062 15.824l.21.928c1.092 4.83 2.452 10.84 6.074 16.193 1.796 2.21 5.277 5.84 6.956 5.41.533-.134.518-.471.44-1.104-.079-.65-.187-1.538 1.066-1.797.954-.197 2.274.517 3.319 1.162.421.261.86.556 1.327.871 2.432 1.638 5.46 3.677 10.602 4.174 2.424.236 2.976-.118 3.088-.35.089-.184.03-.573-.752-1.39-.667-.695-1.21-1.663-.915-2.26.198-.4.704-.558 1.505-.463 1.543.178 2.924.752 4.673 1.479 3.509 1.457 8.264 3.432 18.254 3.912-.589-.268-1.199-.649-1.337-1.111-.053-.178-.062-.452.195-.747.224-.257.813-.378 1.647-.378m-8.775-.216c-1.196 0-2.78-.23-4.468-.686-1.846-.497-4.629-1.966-5.672-3.28-.473-.594-.43-.965-.31-1.17.162-.279.558-.406 1.035-.33.562.088 1.145.345 1.884.671 1.142.504 2.563 1.131 4.753 1.539 3.028.563 4.648 1.201 4.952 1.95.071.175.109.449-.112.763-.255.363-1.007.543-2.062.543m-9.677-5.096c-.211 0-.378.057-.436.157-.08.137.024.41.278.73.996 1.254 3.681 2.664 5.468 3.146 3.421.921 5.784.759 6.11.295.13-.185.102-.311.07-.39-.139-.342-.929-1.02-4.662-1.714-2.235-.416-3.74-1.08-4.839-1.565-.713-.314-1.275-.563-1.787-.643a1.3 1.3 0 0 0-.202-.016"/><path fill="#fdb81b" d="M145.953 51.286c-.259.715 3.029 1.87 4.604 2.275 1.478.38 2.943.63 2.982-.13.064-1.221-7.327-2.86-7.586-2.145"/><path fill="#181225" d="M152.675 54.12c-.502 0-1.205-.122-2.167-.37-.873-.224-4.23-1.246-4.7-2.139a.47.47 0 0 1-.038-.392c.144-.4 1.188-.404 3.104-.014.201.04 4.923 1.017 4.86 2.236a.62.62 0 0 1-.254.484c-.176.13-.437.195-.805.195m-6.541-2.753q0 .024.019.062c.3.571 2.796 1.517 4.452 1.943.544.14 2.199.565 2.644.238a.23.23 0 0 0 .096-.189c.002-.043-.027-.28-.82-.673-1.938-.962-5.946-1.68-6.391-1.38M84.321 13.593s2.73 1.42 3.07 4.218c.341 2.798-.651 5.654 2.51 7.68 3.946 2.529 8.095.625 8.053 4.79-.035 3.38 2.247 4.852 4.744 5.561 0 0-2.432-2.18-2.11-5.255.3-2.864 1.438-5.39-2.403-6.906-3.138-1.239-4.405-2.536-4.861-4.595-.654-2.95.186-5.493-9.003-5.493"/><path fill="#181225" d="M102.698 36.038a.2.2 0 0 1-.054-.007c-3.317-.944-4.915-2.825-4.886-5.751.025-2.362-1.34-2.628-3.406-3.03-1.324-.258-2.97-.578-4.556-1.594-2.483-1.591-2.496-3.735-2.509-5.809-.003-.66-.008-1.344-.089-2.012-.323-2.66-2.94-4.054-2.967-4.068a.196.196 0 0 1 .09-.37c8.25 0 8.582 2.037 9.004 4.615.055.335.111.68.189 1.031.457 2.065 1.743 3.272 4.742 4.456 3.388 1.338 3.056 3.509 2.704 5.808-.065.424-.132.858-.178 1.3-.308 2.936 2.022 5.069 2.046 5.09a.196.196 0 0 1-.13.341M85.007 13.794c.849.601 2.327 1.926 2.578 3.994.084.69.088 1.385.092 2.057.013 2.06.024 4.004 2.33 5.482 1.522.975 3.06 1.275 4.419 1.539 2.095.408 3.75.73 3.722 3.418-.025 2.51 1.25 4.197 3.89 5.143-.717-.854-1.879-2.615-1.644-4.86.047-.45.115-.89.18-1.32.356-2.325.637-4.161-2.46-5.384-3.1-1.223-4.497-2.551-4.98-4.735-.08-.358-.138-.71-.194-1.053-.38-2.323-.683-4.173-7.933-4.28M105.725 42.505c2.45 2.389 5.876 3.155 7.215 1.979 1.017-.894.327-2.662-3.119-4.065-1.497-.61-3.386-2.114-4.64-1.531-1.129.525-.768 2.338.544 3.617"/><path fill="#181225" d="M111.184 45.228c-1.706 0-3.925-.955-5.595-2.583-.91-.887-1.401-2.03-1.252-2.91.081-.476.345-.83.762-1.025.988-.46 2.254.219 3.478.875.465.25.905.485 1.317.652 2.136.87 3.466 1.995 3.649 3.088.084.5-.084.963-.475 1.306-.462.407-1.122.597-1.884.597m-5.366-6.277c-.199 0-.385.035-.555.114q-.451.211-.541.736c-.127.746.331 1.776 1.139 2.563 2.455 2.394 5.752 3.027 6.95 1.973a.99.99 0 0 0 .348-.948c-.158-.941-1.434-1.984-3.412-2.789-.431-.176-.879-.416-1.354-.67-.901-.483-1.826-.979-2.575-.979"/></svg>