<svg width="227" height="157" fill="none" xmlns="http://www.w3.org/2000/svg"><g clip-path="url(#a)"><path d="m11.47 141.774 49.092 12.736 154.774-.719L227 2.951 130.056 0 0 34.963l11.47 106.811z" fill="#DCA8E5"/><path d="m41.198 124.083-1.316 1.726c-2.526.762-4.85.336-4.85.336-.553-.31-1.381-1.27-1.381-1.27l1.733-7.16-.056-4.194-.087-6.292 2.842-1.584s.864 2.961 1.656 5.88c.661 2.433 1.266 4.84 1.286 5.5l.173 7.058zM27.084 127.541c-.229.553-1.19 1.056-1.19 1.056-2.566.274-4.538-.782-4.538-.782-.381-.233-.823-.645-1.093-.904a.555.555 0 0 1-.142-.553c.264-.929 1.022-3.6 1.098-3.941.02-.101.066-1.101.117-2.569.162-4.595.411-13.736.411-13.736l2.72.538s1.255 6.465 2.083 10.842c.402 2.112.702 3.742.717 3.92.046.548.046 5.581-.183 6.129z" fill="#EF8019" stroke="#181225" stroke-linecap="round" stroke-linejoin="round"/><path d="M24.466 106.65s1.256 6.465 2.084 10.842l-5.214 2.356c.162-4.595.411-13.736.411-13.736l2.72.538zM39.74 111.525l-4.412 1.996-.087-6.292 2.841-1.584s.864 2.961 1.657 5.88z" fill="#181225" stroke="#181225" stroke-linecap="round" stroke-linejoin="round"/><path d="M169.713 153.118c-2.287 2.285-8.483 5.205-19.623 2.61-11.227-2.61-28.233-7.515-28.233-7.515l-4.798 2.615-54.291-15.904 2.074-19.382s-6.323-1.747-10.684-4.469l-.437-6.205L68.44 91.249l20.711-3.808 50.799 2.94.336 17.559c5.352.985 19.882 3.895 22.342 4.55 2.531.676 3.822 1.935 4.371 3.083.168.33.264.655.315.949.219 1.305 4.361 29.188 4.473 30.493.107 1.31-.163 4.194-2.074 6.103z" fill="#FEB91A" stroke="#181225" stroke-linecap="round" stroke-linejoin="round"/><path d="m118.477 117.502-1.418 33.326-54.291-15.904 2.074-19.382s22.347 6.424 45.569 4.027l8.066-2.067z" fill="#D37D00" stroke="#181225" stroke-linecap="round" stroke-linejoin="round"/><path d="M53.722 104.866s7.642 4.695 18.968 6.535c22.13 3.594 37.174 1.96 37.174 1.96l13.082-16.664-54.507-5.446" stroke="#181225" stroke-linecap="round" stroke-linejoin="round"/><path d="M169.713 153.118c-1.916 1.915-6.572 4.271-14.566 3.459h-.005a39.47 39.47 0 0 1-5.052-.848c-11.227-2.611-28.233-7.516-28.233-7.516l1.946-33.143s15.41 2.818 24.513 4.555c2.602.497 4.656.817 6.323 1.01 4.162.483 5.89.173 7.618-.112 2.404-.391 5.784-2.259 4.742-4.951.168.331.264.656.315.95.219 1.305 4.361 29.188 4.473 30.493.107 1.31-.163 4.194-2.074 6.103z" fill="#FEB91A" stroke="#181225" stroke-linecap="round" stroke-linejoin="round"/><path d="M62.036 98.785c-.93-1.254-30.2-36.922-31.669-38.775 0 0-.035-.056-.112-.127-1.433-1.666-2.84-.508-3.268.127-.162.244-3.46 5.708-7.522 12.44 0 0 2.81 1.956 5.317 6.059l-8.005-1.6c-2.42 4.017-4.92 8.17-7.075 11.75 0 0 2.943 1.544 4.401 5.83l-6.958-1.59c-2.038 3.382-3.38 5.617-3.38 5.617s-.6 1.36-.325 2.391c.27 1.036 1.25 1.747 1.85 1.854.6.106 18.755 3.818 18.755 3.818l1.042.178 6.236 1.072 6.937-1.062 3.42-.528 11.945-1.828 3.37-.518 4.167-.64c1.037-.218 1.52-1.101 1.636-1.746.112-.625.163-1.468-.762-2.722zM30.535 72.45v-8.028l2.615 9.927a61.646 61.646 0 0 0-2.615-1.9z" fill="#A836B5" stroke="#181225" stroke-linecap="round" stroke-linejoin="round"/><path d="M156.966 129.643c-.259 5.337-1.875 8.155-1.585 11.73.33 4.083 1.733 4.235 1.392 8.861-.284 3.88-1.55 6.2-1.626 6.343h-.005a39.47 39.47 0 0 1-5.052-.848c-11.227-2.611-28.233-7.516-28.233-7.516l1.946-33.143s15.41 2.818 24.513 4.555c2.602.497 4.656.817 6.323 1.01 0 0 2.592 3.671 2.327 9.008z" fill="#D37D00" stroke="#181225" stroke-linecap="round" stroke-linejoin="round"/><path d="m39.224 144.936.732-19.224-.074.099c-2.527.761-4.848.335-4.848.335l-3.876 23.805s-.31.59 4.189.692c7.65.173 14.262-1.245 14.262-1.245s-6.854-2.975-10.385-4.462z" fill="#F6F6F8" stroke="#181225" stroke-linecap="round" stroke-linejoin="round"/><path d="M66.814 30.27c.07-.31.299-.557.603-.654 4.032-1.283 32.55-9.771 67.729-5.055 0 0 1.627.219 2.257 1.687.629 1.468 6.454 19.187 6.244 23.957-.21 4.77-4.275 16.317-7.766 23.486-.944 1.94-1.725 3.21-2.414 3.355-2.856.599-12.087 1.982-29.173 1.782-16.747-.196-33.896-2.883-38.093-3.67 0 0-.84-.052-1.154-1.887-.312-1.817-2.22-25.499 1.767-43z" fill="#FEB91A" stroke="#181225" stroke-linecap="round" stroke-linejoin="round"/><path d="M133.922 25.848a1.965 1.965 0 0 1 1.631 1.65c.475 3.118 1.461 11.586 1.151 21.648-.369 11.99-1.871 20.206-2.545 24.44a2.332 2.332 0 0 1-1.9 1.929c-5.178.912-18.34 2.411-35.895 1.669-15.246-.645-26.993-2.555-29.569-3.048a.676.676 0 0 1-.532-.514c-.457-1.981-2.311-10.6-2.392-20.14-.085-9.995 3.022-21 3.53-22.731a.451.451 0 0 1 .303-.306c1.774-.538 13.539-3.95 31.706-5.647 16.323-1.524 30.187.352 34.512 1.05zM126.659 95.318l13.294-4.938M95.368 120.029l-1.093 18.156 17.78 4.475 1.709-23.951" stroke="#181225" stroke-linecap="round" stroke-linejoin="round"/><path d="M61.706 109.098s-.712 1.671-1.002 1.706c-.3.036-1.326-.568-1.326-.568s-2.323.533-3.095.751c-.778.223-1.256 0-1.586-.751-.142-.32-.63-1.636-1.144-3.027-.34-.934-.696-1.909-.965-2.64l5.91-.909 1.825-.28c2.13 2.219 1.383 5.718 1.383 5.718z" fill="#EF8019" stroke="#181225" stroke-linecap="round" stroke-linejoin="round"/><path d="M80.347 81.185s7.618.394 10.71.674c0 0 2.981 1.349 5.118 2.473 0 0 .225 3.09.169 6.18 0 0-5.005.9-7.03 1.236 0 0-5.792-.337-10.516-1.067 0 0 .004-4.551 1.549-9.496z" fill="#D37D00" stroke="#181225" stroke-linecap="round" stroke-linejoin="round"/><path d="m81.779 82.31 7.535.505L88.19 90.4s-5.849-.45-7.536-.73c0 0-.787-4.215 1.125-7.36z" fill="#93DE00" stroke="#181225" stroke-linecap="round" stroke-linejoin="round"/><path d="M62.036 98.785c-.93-1.254-30.2-36.922-31.669-38.775 0 0-.035-.056-.112-.127-.208-.208-.696-.579-1.402-.345-1.088.365-1.154 1.95-1.154 1.95l-.89 12.374-.36 4.977-.89 12.41-.98 12.268s-.484 2.214.508 3.24l6.236 1.072 6.937-1.062 3.42-.528 11.944-1.828 3.37-.518 4.168-.64c1.037-.218 1.52-1.101 1.636-1.746.112-.625.163-1.468-.762-2.722zM30.535 72.45v-8.028l2.615 9.927a61.706 61.706 0 0 0-2.615-1.9z" fill="#C678D6" stroke="#181225" stroke-linecap="round" stroke-linejoin="round"/><path d="M91.058 81.86s-.956 4.944-1.744 9.888M81.216 87.085l1.744-2.416-.281 3.371 1.743-2.248.281 2.866 2.418-5.113.169 3.203.956-1.405" stroke="#181225" stroke-linecap="round" stroke-linejoin="round"/><path d="m60.577 84.668-4.33-.112s-.97-.01-.844-1.63c.107-1.345 1.124-1.29 1.124-1.29l.03.01 4.188 1.28s.564.564-.168 1.742z" fill="#D37D00" stroke="#181225" stroke-linecap="round" stroke-linejoin="round"/><path d="M57.172 83.18c-.137 1.295-.925 1.376-.925 1.376s-.97-.01-.844-1.63c.107-1.345 1.124-1.29 1.124-1.29s.01.006.03.01c.137.062.742.382.615 1.534z" fill="#181225" stroke="#181225" stroke-linecap="round" stroke-linejoin="round"/><path d="m60.932 83.788 3.612.548s1.51 5.54 2.106 10.52" stroke="#181225" stroke-linecap="round" stroke-linejoin="round"/><path d="M66.775 95.393c.445-.104.749-.428.68-.724-.069-.296-.485-.452-.93-.348-.444.103-.748.427-.68.723.07.296.486.452.93.349z" fill="#181225"/><path d="M96.368 136.81c.163-.073.208-.328.1-.569-.107-.241-.327-.377-.49-.304-.164.072-.209.327-.1.568.107.241.327.377.49.305zM109.966 140.341c.171-.052.248-.298.171-.551-.076-.253-.277-.416-.448-.364-.171.052-.248.298-.171.551.076.253.277.416.448.364z" fill="#181225" stroke="#181225" stroke-linecap="round" stroke-linejoin="round"/><path d="M118.477 102.39c-4.715-.998-3.539-5.899-2.363-7.426 1.176-1.527 3.998-4.17 8.054-3.216 2.531.595 3.3 3.938 1.529 6.799-1.493 2.41-4.846 4.346-7.22 3.843z" stroke="#181225" stroke-linecap="round" stroke-linejoin="round"/><path d="M190.516 75.812c-1.312 1.178-47.887 36.617-50.932 38.933a.039.039 0 0 1-.02.02.538.538 0 0 0-.092.071l-.045.03s-1.164.97-3.004.955c-1.357-.015-3.243-.665-4.427-2.087-4.508-5.428-1.804-8.739-1.804-8.739l.041-.056 38.311-52.932s.585-.878 2.582-1.274c1.804-.356 8.655-.965 15.369 6.713 7.126 8.15 5.378 17.148 4.021 18.366z" fill="#FEB91A" stroke="#181225" stroke-linecap="round" stroke-linejoin="round"/><path d="M161.823 61.293s.969-1.7 4.417-1.441c3.448.259 8.046 2.815 11.716 7.223 3.671 4.408 4.886 8.738 4.894 11.447.01 3.37-1.507 4.382-1.507 4.382" stroke="#181225" stroke-linecap="round" stroke-linejoin="round"/><path d="M190.516 75.812c-1.312 1.178-47.887 36.617-50.932 38.933a.039.039 0 0 1-.02.02.538.538 0 0 0-.092.071 1.37 1.37 0 0 0-.045.031s-1.164.969-3.004.954c-1.179-.015-2.755-.503-3.924-1.564.453-.34.961-.472 1.469-.685.879-.366 2.648-1.341 3.146-3.245l3.187.208c-.224-1.838 1.098-2.849 1.748-3.052 1.312-.401 1.769-.467 2.252-1.894.483-1.427 1.372-.68 1.372-.68s.381-2.529 2.872-3.443c2.49-.919 6.114-7.637 6.114-7.637s6.19-8.663 5.453-5.439c-.203.874.224 2.2 2.008.666 2.282-1.96 4.793-8.181 7.09-10.222 3.685-3.27 3.395-2.037 7.024-4.088 1.885-1.066 2.45-2.874 3.06-4.555l.335-.868c.498-1.199 1.159-2.24 2.556-2.742 2.984-1.072 3.919-1.3 4.783-4.017.335-1.04.945-1.026 1.57-.61l.682-.66c3.862 6.922 2.439 13.493 1.296 14.518z" fill="#D37D00" stroke="#181225" stroke-linecap="round" stroke-linejoin="round"/><path d="m126.743 113.571-2.939 1.498" stroke="#181225" stroke-linecap="round" stroke-linejoin="round"/><path d="m152.87 117.437 7.007 1.404 5.356-3.772s-3.034-12.623-3.315-13.634c-.281-1.01-.787-1.628-1.742-1.853-.956-.224-3.428-.617-3.428-.617s-2.361 0-2.866 3.2c-.506 3.2-1.012 15.272-1.012 15.272z" fill="#FEB91A" stroke="#181225" stroke-linecap="round" stroke-linejoin="round"/><path d="M161.472 100.434s-.883-1.017-1.886.033c-.85.891-.878 2.26-.815 3.551.108 2.222 1.106 14.823 1.106 14.823" stroke="#181225" stroke-linecap="round" stroke-linejoin="round"/><path d="M161.339 102.378c.016-.613-.324-1.119-.759-1.13-.435-.012-.8.475-.817 1.088-.016.612.323 1.118.758 1.13.435.011.801-.476.818-1.088z" stroke="#181225" stroke-linecap="round" stroke-linejoin="round"/><path d="M140.525 112.373c-.056 1.437-.646 2.123-.941 2.372a.039.039 0 0 1-.02.02c-.041.036-.071.056-.092.071l-.045.03s-1.164.97-3.004.955c-1.357-.015-3.243-.665-4.427-2.087-4.508-5.428-1.804-8.739-1.804-8.739l.041-.056c.33-.406 2.566-2.823 6.942.513 2.323 1.767 3.421 5.098 3.35 6.921z" fill="#181225" stroke="#181225" stroke-linecap="round" stroke-linejoin="round"/><path d="m136.865 112.841-7.512 7.312-.152.157c-.01.01-.02.015-.02.015l-.006.005c-.045.036-.32.234-.762.29-.498.061-1.199-.051-2.018-.772-1.962-1.732-1.794-3.89-1.164-4.519l.051-.051.026-.025c.945-.975 6.866-7.501 6.866-7.501s.544-.716 1.545-.665c.691.036 1.789.457 2.516 1.493.457.65.727 1.234.879 1.747l.005.005c.468 1.6-.254 2.509-.254 2.509z" fill="#FEB91A" stroke="#181225" stroke-linecap="round" stroke-linejoin="round"/><path d="M129.353 120.153a.915.915 0 0 1-.152.157c-.01.01-.02.015-.02.015l-.006.005c-.096.072-1.235.879-2.78-.482-1.962-1.732-1.794-3.89-1.164-4.519 0 0 .016-.021.051-.051l.026-.025c.223-.173.935-.559 2.307.289 1.774 1.092 1.967 2.463 2.053 3.306.072.69-.142 1.102-.315 1.305z" fill="#181225" stroke="#181225" stroke-linecap="round" stroke-linejoin="round"/><path d="M133.969 99.775s1.84-3.506 7.002-.644c4.922 2.728 6.012 9.397 5.137 10.65M145.906 105.591l2.418-1.879M144.723 102.891l1.32-1.122M143.214 100.877l1.388-1.267M141.278 99.309l1.344-1.302M139.373 98.4l2.577-3.082M137.553 98.016l1.137-1.314M136.207 98.139l1.013-1.407M146.332 107.597l1.451-1.03" stroke="#181225" stroke-linecap="round" stroke-linejoin="round"/><path d="M25.892 128.595c-2.565.275-4.534-.778-4.534-.778l-5.937 23.665s.025 1.398 4.225 2.11c3.999.679 6.338-.603 6.338-.603s-1.115-3.081-2.285-5.419l2.193-18.975z" fill="#F6F6F8" stroke="#181225" stroke-linecap="round" stroke-linejoin="round"/><path d="m41.68 106.239-3.42.528c-2.17-12.979-9.377-16.93-9.377-16.93l.392-5.57s8.95 4.982 12.406 21.972zM25.559 91.251l-15.86-2.593s2.947 1.543 4.405 5.831l-6.811-1.558 17.874 4.092 2.53 6.307 5.681-.659c-1.557-8.239-7.82-11.42-7.82-11.42zM59.347 99.658 30.535 64.423l2.615 9.927C48.916 86.385 52.993 101.6 53.625 104.41l3.37-.518-1.429-3.793 3.781-.442z" fill="#181225" stroke="#181225" stroke-linecap="round" stroke-linejoin="round"/><path d="M12.596 113.762s.802-2.05 1.254-1.855c.919.398 1.385.83 1.385.83s-1.073 2.905 1.488 6.226c0 0-.257 1.715-.475 2.096-.218.381-1.962 0-1.962 0S7.254 125.138 6 125.712c-1.253.575-1.798-1.712-1.58-3.074.218-1.361 13.19-34.309 13.463-34.799.273-.49.654-.544.927-.435.272.109.545.544.381 1.416-.163.87-6.595 24.942-6.595 24.942z" fill="#EF8019" stroke="#181225" stroke-linecap="round" stroke-linejoin="round"/><path d="m12.596 113.762-2.398 1.416" stroke="#181225" stroke-linecap="round" stroke-linejoin="round"/><path d="M42.997 105.301c-1.356.538-5.642 2.041-5.642 2.041l-.589 4.565-.934 2.283c-3.566.38-7.2.277-7.2.277l-11.909 4.496c-2.561-3.32-1.488-6.226-1.488-6.226l8.965-5.533s-.761-3.009-.83-3.666c-.07-.657 1.384-3.182 1.315-3.874-.07-.692-.761-3.147-.761-3.147s1.869-.9 2.388-.311c.52.587 2.043 3.285 2.043 3.804 0 .519-.658 3.32-.658 3.32l.554 1.453s14.088-2.041 14.573-2.075c.485-.035.485.103.52.484.034.38.036 1.958-.347 2.109z" fill="#F6F6F8" stroke="#181225" stroke-linecap="round" stroke-linejoin="round"/><path d="m37.355 107.342-2.804.692M37.032 109.844l-1.962.784M36.766 111.907l-1.523.796" stroke="#181225" stroke-linecap="round" stroke-linejoin="round"/><path d="m26.808 73.862-7.344-1.409s2.813 1.954 5.317 6.055l-8.004-1.598 9.673 1.931c15.655 9.245 17.735 22.577 17.735 22.577l4.316-.5c-6.653-20.406-21.693-27.056-21.693-27.056z" fill="#181225" stroke="#181225" stroke-linecap="round" stroke-linejoin="round"/><path d="m22.707 65.926 5.691 1.941-.701-5.551 4.942-.827s-3.317-3.891-4.63-3.596c-1.364.306-5.302 8.033-5.302 8.033z" fill="#EF8019" stroke="#181225" stroke-linecap="round" stroke-linejoin="round"/><path d="m24.59 62.467 1.23.405-.35 3.997" stroke="#181225" stroke-linecap="round" stroke-linejoin="round"/><path d="M111.737 90.716c-2.099.3-10.657 1.198-12.513 1.315-2.79.178-5.728.219-5.814-.218-.183-.91 10.338-8.358 10.526-9.095.051-.193.147-.589.264-1.076.219-.899.514-2.087.686-2.808 1.789.015 3.492.015 5.108 0-.025.508-.056 1.249-.071 1.95a23.4 23.4 0 0 0-.005 1.442c.01.132.025.259.061.38l2.063 7.643a.371.371 0 0 1-.305.467z" fill="#FEB91A" stroke="#181225" stroke-linecap="round" stroke-linejoin="round"/><path d="m89.663 109.335 5.659.316v-1.927h-5.47l-.189 1.611zM90.042 105.198l-.031.789 5.753.127-.031-1.832-5.69.916zM97.155 104.124l-.063 1.705 6.196-.252.158-2.527-6.29 1.074zM105.058 102.639l-.031 2.906 5.532-.221.095-3.506-5.596.821zM96.966 107.567l6.48-.348-.158 2.748-6.48-.348.157-2.052zM104.963 107.156l-.126 2.843 5.248.031.316-3.064-5.438.19zM90.01 103.05l.665.821 4.963-.695-1.486-1.926-4.141 1.8zM95.543 100.713l1.517 2.053 6.101-1.074-.347-2.716-3.035-.474-4.236 2.211z" fill="#D37D00" stroke="#181225" stroke-linecap="round" stroke-linejoin="round"/><path d="m89.537 101.976 7.84-3.885-10.907-1.674-1.264 4.422 4.33 1.137z" fill="#93DE00" stroke="#181225" stroke-linecap="round" stroke-linejoin="round"/><path d="m85.624 99.377 2.3-1.728-.916 2.396 1.928-1.1-.69 1.863 3.535-2.085-1.265 1.911 3.305-.781" stroke="#181225" stroke-linecap="round" stroke-linejoin="round"/><path d="m80.793 97.932 1.91.106.31.567 1.34-.23.551-2.293-3.132-.438-3.398 1.135 1.767.084.652 1.07z" fill="#D37D00" stroke="#181225" stroke-linecap="round" stroke-linejoin="round"/><path d="M61.706 109.1s.745-3.499-1.382-5.719l.838-.128c.26-.054.48-.149.674-.273.081-.057 6.12-2.071 6.12-2.071s7.398-5.119 7.858-5.05c.558.085 2.56.92 2.56.92l1.767.084.652 1.07 1.91.106 1.1 2.006c.353.04.627.07.743.082 0 0 2.14 2.55 2.387 2.769 0 0 1.921.392 2.196.484 0 0 .137 1.106-.137 1.545-.275.439-2.36.768-2.36.768-.55-.302-3.212-2.313-3.212-2.313h-2.909l-3.1 2.395s3.42.655 4.198.932c.384.138 2.827 1.536 2.964 2.139.182.798-.626 2.329-.846 2.329-.22 0-2.996-1.561-3.463-1.616-.466-.055-5.543-.137-5.763-.247-.22-.11-2.991-1.892-2.991-1.892l-9.804 1.68z" fill="#F6F6F8" stroke="#181225" stroke-linecap="round" stroke-linejoin="round"/><path d="M80.347 99.66s2.22.249 3.455.385M78.894 97.831c.051 0 .974.05 1.899.101M77.198 96.724l1.176.056" stroke="#181225" stroke-linecap="round" stroke-linejoin="round"/><path d="M71.876 98.25 70.3 96.417l-4.153 2.085 2.31 2.062c.705-.486 2.06-1.411 3.418-2.314zM64.777 99.431l-1.952 1.089c.056.383.023.708-.027.987a2.343 2.343 0 0 1-.201.596l.546.422c1.1-.374 2.655-.895 3.697-1.243l-2.063-1.85z" fill="#D37D00" stroke="#181225" stroke-linecap="round" stroke-linejoin="round"/><path d="M133.922 25.848a1.965 1.965 0 0 1 1.631 1.65c.475 3.118 1.461 11.586 1.151 21.648-.369 11.99-1.871 20.206-2.545 24.44a2.332 2.332 0 0 1-1.9 1.929c-5.178.912-18.34 2.411-35.895 1.669-15.246-.645-26.993-2.555-29.569-3.048a.676.676 0 0 1-.532-.514c-.457-1.981-2.311-10.6-2.392-20.14-.085-9.995 3.022-21 3.53-22.731a.451.451 0 0 1 .303-.306c1.774-.538 13.539-3.95 31.706-5.647 16.323-1.524 30.187.352 34.512 1.05z" fill="#181225" stroke="#181225" stroke-linecap="round" stroke-linejoin="round"/><path d="m112.277 48.852.27-4.354-1.33.006-.073.096a230.74 230.74 0 0 0-.296 4.255l1.429-.003zM116.183 27.208c-.98.035-1.946.073-2.893.114-.16.855-.37 2.057-.605 3.593l.193.036a584.59 584.59 0 0 1 2.761-.093l.544-3.65zM112.763 58.072 113 53.35l-2.386.011a269.2 269.2 0 0 0-.162 4.74l2.311-.03zM111.932 71.281l-1.508.019c.021 1.028.047 2.07.079 3.127l.006.006 1.383-.018.04-3.134zM114.803 67.313c2.604-.068 4.992-.143 7.072-.216l.141-4.142c-2.316.07-4.687.128-7.046.177l-.167 4.18z" fill="#FF45A9"/><path d="m111.937 58.083-.162 5.11c1.269-.023 2.551-.048 3.836-.075v-5.089c-1.243.02-2.471.038-3.674.054zM123.935 71.036l.075-4.016c-1.015.038-2.13.078-3.335.118l-.154 3.99c1.166-.028 2.307-.058 3.414-.092zM112.277 48.852l-.321 4.504 2.082-.01-.003-.018.41-4.454-.012-.027-2.156.005zM119.351 44.465l9.873-.046c.12-1.86.26-3.558.406-5.104-2.073.002-5.448.014-9.79.06l-.489 5.09z" fill="#FF45A9"/><path d="M115.727 39.427c1.92-.027 3.7-.048 5.323-.064l.411-3.972c-1.835.025-3.634.058-5.385.095l-.349 3.94z" fill="#FF45A9"/><path d="m115.201 30.871-.342 4.642c.638-.014 1.281-.029 1.932-.042l.438-4.661-2.028.061z" fill="#FF45A9"/><path d="M131.45 27.04s-.308 1.144-.714 3.562a97.12 97.12 0 0 0-.676 4.72v.005c-.15 1.194-.295 2.52-.43 3.988a171.769 171.769 0 0 0-.406 5.104 176.9 176.9 0 0 0-.239 4.397c-.068 1.402-.12 2.87-.162 4.415a264.628 264.628 0 0 0-.089 9.483 279.451 279.451 0 0 0 .151 8.137c.032 1.03.068 2.082.11 3.154-6.455.227-12.862.355-18.492.422-10.236.132-17.605.066-17.605.066-.1-1.051-.187-2.086-.261-3.104a230.34 230.34 0 0 1-.282-3.885 360.31 360.31 0 0 1-.208-4.117c-.068-1.794-.115-3.52-.135-5.175-.02-1.673-.013-3.272.007-4.804.027-1.58.074-3.087.134-4.513.075-1.524.162-2.96.27-4.303.127-1.68.288-3.222.455-4.627.16-1.349.328-2.573.508-3.678.28-1.756.566-3.201.825-4.351.523-2.325.933-3.44.933-3.44s7.89-.732 18.146-1.176c5.702-.246 12.048-.397 18.16-.28z" stroke="#93DE00" stroke-linecap="round" stroke-linejoin="round"/><path d="M131.45 27.04s-.308 1.144-.714 3.562c-16.156.015-30.941.936-36.525 1.334.524-2.325.933-3.44.933-3.44s19.129-1.778 36.306-1.455zM130.06 35.327c-.15 1.194-.295 2.52-.43 3.988-5.265.005-19.317.074-36.752.65.16-1.349.328-2.573.508-3.678 4.717-.237 20.12-.953 36.674-.96zM129.224 44.419a176.9 176.9 0 0 0-.239 4.397l-36.831.08c.074-1.525.16-2.961.268-4.304l36.802-.173zM128.823 53.23a239.39 239.39 0 0 0-.084 4.511c-15.437.45-32.184.472-36.727.471-.02-1.673-.013-3.272.007-4.804 4.739.003 22.468-.023 36.804-.177zM128.781 66.823c-4.821.219-21.228.883-36.426.681-.08-1.414-.148-2.787-.208-4.117 6.143-.017 23.711-.114 36.587-.674.005 1.333.021 2.703.047 4.11zM128.995 74.005c-18.325.652-36.097.488-36.097.488-.1-1.051-.187-2.086-.26-3.104 6.798.007 25.195-.03 36.247-.538.032 1.03.068 2.082.11 3.154z" stroke="#93DE00" stroke-linecap="round" stroke-linejoin="round"/><path d="m96.127 30.644 2.44-1.18 2.096 1.185 1.825-1.257 3.349.633M95.368 34.533l2.64-1.145 2.042 1.215 3.042-1.33 2.389 1.332 3.224-1.514" stroke="#93DE00" stroke-linecap="round" stroke-linejoin="round"/><path d="m94.796 38.568 2.149-1.145 2.489 1.266 3.054-1.087 2.816.065" fill="#181225"/><path d="m94.796 38.568 2.149-1.145 2.489 1.266 3.054-1.087 2.816.065" stroke="#181225" stroke-linecap="round" stroke-linejoin="round"/><path d="m94.414 43.094 2.907-1.391 2.175 1.28M101.943 42.928l1.93-1.094h1.964l1.996 1.186 2.085-1.011" stroke="#93DE00" stroke-linecap="round" stroke-linejoin="round"/><path d="m94.478 47.576 1.964-1.33.377 1.41 4.577-1.399 3.611 1.53" fill="#181225"/><path d="m94.478 47.576 1.964-1.33.377 1.41 4.577-1.399 3.611 1.53" stroke="#181225" stroke-linecap="round" stroke-linejoin="round"/><path d="m93.71 52.239 1.658-1.833 4.004 1.683.739-1.74 4.061 1.999M93.583 56.615l3.11-1.35.126 1.519 3.046.168 3.287-1.79 2.211 1.556" stroke="#93DE00" stroke-linecap="round" stroke-linejoin="round"/><path d="m93.583 61.819 2.228-1.668 2.259 1.909 3.509-.884" fill="#181225"/><path d="m93.583 61.819 2.228-1.668 2.259 1.909 3.509-.884" stroke="#181225" stroke-linecap="round" stroke-linejoin="round"/><path d="m94.095 66.05 2.473-.946 1.377 1.158 2.902-1.48.244 1.43" stroke="#93DE00" stroke-linecap="round" stroke-linejoin="round"/><path d="m94.159 70.12.765-1.404 3.83 1.69 3.189-1.477 1.269 1.467 1.616-1.418" fill="#181225"/><path d="m94.159 70.12.765-1.404 3.83 1.69 3.189-1.477 1.269 1.467 1.616-1.418" stroke="#181225" stroke-linecap="round" stroke-linejoin="round"/><path d="m94.095 73.252 3.226-.649 2.913.886M131.45 27.04s-.308 1.144-.714 3.562a97.12 97.12 0 0 0-.676 4.72v.005c-.15 1.194-.295 2.52-.43 3.988a171.769 171.769 0 0 0-.406 5.104 176.9 176.9 0 0 0-.239 4.397c-.068 1.402-.12 2.87-.162 4.415a264.628 264.628 0 0 0-.089 9.483 279.451 279.451 0 0 0 .151 8.137c.032 1.03.068 2.082.11 3.154-6.455.227-12.862.355-18.492.422-.781-25.445 1.862-42.152 2.787-47.107 5.702-.246 12.048-.397 18.16-.28z" stroke="#93DE00" stroke-linecap="round" stroke-linejoin="round"/><path d="M129.133 45.886c.029-.498.059-.99.091-1.467M129.63 39.315c.041-.45.084-.883.127-1.308" stroke="#93DE00" stroke-miterlimit="10"/><path d="m68.198 55.568-1.884.03M68.186 57.698h-1.28M68.238 59.768h-1.924M68.349 62.104l-1.295-.06M68.524 64.516l-1.944-.135M68.741 66.756l-1.54-.157M69 68.91l-1.71-.182M67.821 34.51l2.184-.402M68.292 35.948l1.31-.218M67.275 37.806l1.95-.299M67.672 39.417l1.24-.164M66.78 41.075l1.9-.258M67.275 42.837l1.182-.108M66.333 44.844l1.972-.274M66.978 46.554l1.239-.124" stroke="#93DE00" stroke-linecap="round" stroke-linejoin="round"/><path d="m68.198 47.384 3.08-7 2.191 5.15 1.157-3.445 1.625 5.295 5.253-14.377 2.807 8.045 4.477-5.441" stroke="#FF45A9" stroke-linecap="round" stroke-linejoin="round"/><path d="m68.37 43.69 1.568 4.143 5.785-11.488 3.475 6.91 1.905-3.838 3.91 7.137 4.51-5.936M68.882 67.975s.529-2.846 1.552-2.98c1.248-.162 1.276 5.109 2.68 5.26 2.008.218 2.91-11.876 5.028-11.822 2.117.054 3.528 12.365 5.59 12.582 2.064.217 2.444-6.725 5.049-6.67" stroke="#93DE00" stroke-linecap="round" stroke-linejoin="round"/><path d="M68.6 65.372s.255-10.662 1.83-10.748c1.807-.098 1.544 11.878 3.12 11.977 1.189.074.92-5.377 2.89-5.283 2.07.098 1.516 9.892 3.416 10.434 1.9.542 1.388-7.061 3.35-7.481 1.38-.295.832 2.114 2.003 1.805 1.117-.296 1.117-3.577 3.557-4.166" stroke="#FF45A9" stroke-linecap="round" stroke-linejoin="round"/><path d="M69.188 70.256s.85-1.928 2.525-1.946c1.655-.018 2.929 2.323 4.711 2.391 1.783.068 4.924-2.903 8.319-1.791 2.59.848 4.045 2.87 4.045 2.87" stroke="#93DE00" stroke-linecap="round" stroke-linejoin="round"/><path d="M118.477 102.39c-4.715-.998-3.539-5.899-2.363-7.426 1.176-1.527 3.998-4.17 8.054-3.216 2.531.595 3.3 3.938 1.529 6.799-1.493 2.41-4.846 4.346-7.22 3.843z" fill="#D37D00" stroke="#181225" stroke-linecap="round" stroke-linejoin="round"/><path d="M125.697 98.547c-1.493 2.41-4.846 4.346-7.22 3.844l2.384.796s2.879.165 4.071-2.114l1.27-3.522c-.137.335-.303.669-.505.996zM126.374 97.074l.024-.066h-.001l-.023.066z" fill="#FEB91A" stroke="#181225" stroke-linecap="round" stroke-linejoin="round"/><path d="M131.264 112.78a2.06 2.06 0 0 1-.335.568c-.686.823-1.947.894-2.526.645-1.093-.467-1.743-.584-1.743-.584l-5.8-10.222s2.044.117 3.401-1.208c.254-.249.482-.544.671-.904l5.783 9.135c.692.914.829 1.838.549 2.57z" fill="#D37D00" stroke="#181225" stroke-linecap="round" stroke-linejoin="round"/><path d="M124.168 91.748c-.188-.044-.371-.073-.554-.102 0 0-.775 1.687-.293 3.387.483 1.699-.265 3.072-.265 3.072v.01c-.735-.221-1.742-.128-2.637.525-1.638 1.195-1.431 2.868-.659 3.34.274.168.537.268.778.324 1.26-.309 2.566-1.035 3.631-1.98a8.186 8.186 0 0 0 1.528-1.777c1.771-2.86 1.002-6.204-1.529-6.799z" fill="#181225"/><path d="M159.645 99.47c-1.123-.223-2.897-.507-2.897-.507s-2.359 0-2.867 3.204c-.117.726-.228 1.919-.34 3.321a145.277 145.277 0 0 0-.224 3.29l-.025-.01-4.315-1.173s.279-1.544.137-3.397a10.22 10.22 0 0 0-.32-1.945c-.31-1.163-.864-2.285-1.82-3.082 0 0-.107-.29-.188-.767v-.005c-.147-.848-.203-2.28.595-3.687 1.001-1.767 2.653-2.188 3.329-2.026l6.536 1.89c.066.014.132.035.198.055 1.291.422 2.318 1.89 2.201 4.84z" fill="#FEB91A" stroke="#181225" stroke-linecap="round" stroke-linejoin="round"/><path d="M83.42 103.38h-2.909l-3.1 2.395s3.42.655 4.198.932c.384.137 2.827 1.536 2.964 2.139 0 0 1.418-.328 1.833-1.331.415-1.003.225-1.822.225-1.822-.549-.302-3.21-2.313-3.21-2.313z" fill="#D37D00" stroke="#181225" stroke-linecap="round" stroke-linejoin="round"/><path d="M153.583 93.517s3.438-4.892 5.469-7.495c1.269-1.626 1.759-1.827 2.42-1.343.646.473.157 1.82 1.001 1.774 1.066-.06 10.82-17.007 11.396-13.363.473 2.996 4.972-1.972 5.998-6.703 1.026-4.731 3.539-.996 5.13-4.574 1.571-3.53-.281-6.213-.281-6.213s4.457 4.804 5.896 8.743c0 0-2.773-4.499-3.642-1.78-.868 2.72-1.801 2.948-4.784 4.018-3.595 1.288-2.319 6.115-5.95 8.165-3.63 2.05-3.342.818-7.024 4.087-2.299 2.041-4.812 8.261-7.094 10.222-1.784 1.534-2.208.207-2.007-.667.738-3.22-5.454 5.439-5.454 5.439l-1.074-.31zM139.275 107.939s1.121-1.515 2.773-1.747c1.372-.193 2.393-2.003 1.86-4.423 0 0 1.336 1.718 1.767 3.138 0 0-.89-.742-1.373.684-.482 1.427-.941 1.491-2.254 1.894-.648.2-1.97 1.214-1.746 3.051 0 0-.466-1.717-1.027-2.597z" fill="#181325"/><path d="M109.994 78.834c-.025.508-.056 1.249-.071 1.95l-5.723.858c.219-.899.514-2.087.686-2.808 1.789.015 3.492.015 5.108 0zM58.499 103.66l-4.946 3.549c-.34-.934-.696-1.909-.965-2.64l5.91-.909z" fill="#181225" stroke="#181225" stroke-linecap="round" stroke-linejoin="round"/><path d="M153.784 102.891s.523 1.589 1.596 1.243c1.072-.347 1.603-1.22 3.372-.944l.118 2.401s-.341-1.138-1.809-1.187c-1.468-.049-2.422 1.537-3.51.976 0 0 .136-1.764.233-2.489z" fill="#181225"/><path d="M161.823 61.293s.969-1.7 4.417-1.441c3.448.259 8.046 2.815 11.716 7.223 3.671 4.408 4.886 8.738 4.894 11.447.01 3.37-1.507 4.382-1.507 4.382" stroke="#181225" stroke-linecap="round" stroke-linejoin="round"/><path d="M136.867 109.767c-.186 1.785-1.257 1.756-2.514 2.446-.982.539-1.818.677-2.743 2.42-1.404 2.644-2.54 2.291-2.54 2.291s.423.69.511 1.307c0 0 .767 0 2.043-2.831.605-1.343 1.468-1.463 2.345-1.829.878-.366 2.646-1.342 3.145-3.245l-.247-.559z" fill="#181225"/><path d="m137.119 110.332-.005-.005c-.498 1.904-2.267 2.879-3.146 3.245-.874.365-1.738.487-2.343 1.828-1.276 2.828-2.043 2.828-2.043 2.828l-.001.003c.044.225.069.434.087.617.072.69-.142 1.102-.315 1.305l7.512-7.312s.722-.909.254-2.509z" fill="#D37D00" stroke="#181225" stroke-linecap="round" stroke-linejoin="round"/><path d="m144.999 103.367.674 1.542s.381-2.529 2.872-3.443c0 0-.424-.989-.725-1.374 0 0-.114 1.069-1.22 2.238-.802.848-1.601 1.037-1.601 1.037z" fill="#181225"/><path d="M153.541 105.488a145.277 145.277 0 0 0-.224 3.29l-.025-.01-4.315-1.173s.279-1.544.137-3.397a10.22 10.22 0 0 0-.32-1.945c-.31-1.163-.864-2.285-1.82-3.082 0 0-.107-.29-.188-.767 0 0 .569.294 2.074.254 1.509-.04 2.892 1.147 2.892 1.147l1.789 5.683z" fill="#D37D00" stroke="#181225" stroke-linecap="round" stroke-linejoin="round"/><path d="M146.772 96.86s.437 1.399 2.332 1.279c1.895-.12 3.294 0 3.294 0s-.444.934-.645 1.666c0 0-1.386-1.188-2.892-1.147-1.506.04-2.075-.257-2.075-.257l-.014-1.542z" fill="#181225"/><path d="M159.645 99.47c-1.123-.223-2.897-.507-2.897-.507s-2.359 0-2.867 3.204c-.198 1.254-.396 3.884-.564 6.611l-.025-.01c-.295-.112-3.101-1.366-1.881-7.597.849-4.336 3.502-7.165 5.835-6.596.066.015.132.036.198.056 1.291.422 2.318 1.89 2.201 4.84z" fill="#181225" stroke="#181225" stroke-linecap="round" stroke-linejoin="round"/><path d="M158.87 105.592s-.341-1.139-1.809-1.188c-1.468-.049-2.422 1.537-3.51.976l-.001.001c-.374 4.751-.68 12.056-.68 12.056l7.007 1.404c0-.001-.727-9.18-1.007-13.249z" fill="#D37D00" stroke="#181225" stroke-linecap="round" stroke-linejoin="round"/><path d="M68.25 54.055s-.478 7.688 1.186 17.792c0 0 8.676 1.493 19.33 1.959M70.262 33.208s-2.25 7.096-2.054 15.733l20.558-1.303" stroke="#93DE00" stroke-linecap="round" stroke-linejoin="round"/><path d="M152.91 21.803c4.099-.157 4.64 3.746 3.965 5.345-.55 1.303-2.207 2.907-4.857 2.171-1.866-.518-2.91-2.322-2.781-3.964.141-1.797 1.316-3.462 3.673-3.552zM152.475 39.773l-.985-4.15 2.147 3.411 3.52-1.125-2.852 2.215 1.232 4.255-2.463-3.657-3.626 1.301 3.027-2.25zM171.517 27.71s1.514-.21 1.795 1.231c.282 1.442-.985 2.232-2.36 1.643-1.361-.582-.807-2.838.565-2.873zM182.146 18.39l-.8 3.282-3.53.624 3.43.679.038 4.249 1.063-4.218 3.74-.273-3.727-.718-.214-3.625z" fill="#F6F6F8"/><path d="m167.082 40.792-3.625.422M165.71 38.647l-.704 4.853M209.988 29.996l-.774 4.045M208.228 31.368l2.781 1.125" stroke="#F6F6F8" stroke-linecap="round" stroke-linejoin="round"/><path d="M199.253 25.847c2.292.275 2.948 2.286 2.652 3.845-.253 1.336-1.825 2.892-3.989 2.239-1.71-.517-2.535-2.131-2.182-3.709.407-1.821 2.19-2.535 3.519-2.375zM184.259 43.043c1.144.423 1.554 1.463 1.126 2.462-.417.973-1.613 1.187-2.467.78-.507-.24-1.158-1.036-.869-2.144.299-1.144 1.475-1.37 2.21-1.098zM199.499 43.957c.755-.014.95.578.809 1.14-.141.563-1.017.723-1.407.337-.403-.399-.333-1.46.598-1.477zM210.094 38.612c.975.415 1.248 1.446 1.055 2.046-.218.677-.803 1.391-1.954 1.15-1.28-.267-1.402-1.393-1.178-2.22.268-.989 1.47-1.234 2.077-.976zM203.054 54.578c.704.035 1.035.547.894 1.11-.14.563-.559.828-1.017.722-.219-.05-.803-.267-.776-.909.028-.668.532-.942.899-.923zM168.448 16.85c.071-2.426 2.651-2.746 3.682-2.207 1.09.57 1.652 1.665 1.277 3.09-.246.933-1.191 1.803-2.629 1.608-1.307-.177-2.363-1.335-2.33-2.49z" fill="#F6F6F8"/><path d="M195.905 31.778s-3.43 1.886-3.731 1.328c-.491-.912 3.529-3.898 6.317-5.674 2.789-1.775 7.045-3.603 7.342-3.088.322.557-3.152 3.107-3.152 3.107" stroke="#F6F6F8" stroke-linecap="round" stroke-linejoin="round"/><path d="m200.48 72.613 1.134-4.403.088 4.621 2.967.785-3.098.13-1.091 4.273-.087-4.36-3.098-.74 3.185-.306z" fill="#F6F6F8"/><path d="M154.639 120.634s2.592 3.672 2.329 9.01c-.262 5.337-1.879 8.154-1.588 11.73.332 4.079 1.734 4.236 1.393 8.863-.295 4.006-1.633 6.345-1.633 6.345s2.202.459 4.971.099c0 0-.538-4.996-1.773-12.244-1.965-11.535 3.134-15.054 2.229-23.665 0 0-3.205.238-5.928-.138z" fill="#181325"/><path d="M123.625 102.47s.018 2.881 1.879 4.496c1.861 1.616 2.392 2.022 3.03 4.209.638 2.188 1.96 2.557 1.96 2.557s.634-.314.768-.951c0 0-2.249-1.764-3.419-4.283-1.169-2.519-3.584-6.522-3.584-6.522s-.193.251-.634.494z" fill="#181225"/><path d="M131.264 112.78h-.005s-2.246-1.762-3.415-4.281c-1.149-2.478-3.507-6.398-3.583-6.52.254-.249.483-.544.671-.904l5.783 9.135c.692.914.829 1.838.549 2.57z" fill="#FEB91A" stroke="#181225" stroke-linecap="round" stroke-linejoin="round"/></g><defs><clipPath id="a"><path fill="#fff" d="M0 0h227v157H0z"/></clipPath></defs></svg>