<svg width="793" height="361" fill="none" xmlns="http://www.w3.org/2000/svg"><path fill="none" d="M0 0h793v361H0z"/><g clip-path="url(#clip0)" fill="#ED0000"><path d="M459.24 58.463c-.053 0-.107 0-.107-.054-.106-.213-12.923-21.093-20.399-19.277-.053 0-6.354 1.068-9.559 14.845 0 .054-.106.107-.16.107-.053 0-.107-.107-.107-.16 0-.16 2.564-16.074 8.171-23.924h.267c.107.107 12.335 8.437 22.054 28.303.054.053 0 .16-.053.16h-.107z"/><path d="M430.671 31.335v.107c-.107.267-11.802 21.788-6.462 27.341.054.054 4.112 4.966 17.622.855.054 0 .161 0 .161.106 0 .054 0 .16-.054.16-.16 0-15.166 5.768-24.831 4.807a.115.115 0 01-.107-.107c0-.16 1.121-14.899 13.457-33.216.053-.106.107-.106.214-.053z"/><path d="M421.432 69.677c0-.053.054-.053.107-.053.267 0 24.725-.641 26.861-8.064.053-.053 2.243-6.088-8.117-15.7-.054-.053-.054-.107 0-.16.053-.053.107-.053.16 0 .107.107 12.656 10.253 16.608 19.064.053.053 0 .16-.054.16-.106.054-13.457 6.462-35.511 4.967-.054 0-.107-.054-.107-.16.053 0 .053-.054.053-.054z"/></g><path d="M538.993 34.01h10.365c2.764 8.308 5.49 16.614 8.408 25.458.422-.958.652-1.34.767-1.762 1.881-5.55 3.763-11.101 5.682-16.652.883-2.373 1.881-4.708 2.802-7.044h9.214c.115.613.384 1.225.384 1.8v31.888h-6.527V42.203c-1.458 4.555-2.879 9.11-4.376 13.59-1.305 3.98-2.687 7.924-4.069 11.905h-7.294c-2.764-8.269-5.528-16.5-8.292-24.768a12.15 12.15 0 00-.537.115v24.653h-6.527c-.038-2.871-.076-5.704-.076-8.575 0-8.345.038-16.729.076-25.113zM492.098 67.698h-23.854c0-1.263.075-2.565-.038-3.828-.152-1.685.416-2.182 2.12-2.144 5.68.077 11.322-.038 17.001-.115 2.461-.038 3.938-1.722 3.938-4.21-.038-2.45-1.212-3.56-3.9-3.56a463.96 463.96 0 00-12.646.037c-2.954.039-5.112-1.34-6.437-3.904-.72-1.417-1.061-2.986-1.553-4.48v-2.679c.682-3.024 1.931-5.742 4.771-7.312 1.022-.574 2.12-.995 3.181-1.493h21.961c.076 1.072.227 2.144.265 3.216.076 2.871.038 2.833-2.651 2.833-5.301 0-10.564-.038-15.865.038-2.574.038-4.203 1.761-4.165 4.173.038 2.641 1.212 3.713 4.127 3.713 3.787 0 7.573.153 11.322-.115 6.437-.46 9.731 5.13 9.049 10.604-.605 4.364-3.067 7.159-6.626 9.226zM513.61 34.01h7.754c.155.422.271.843.426 1.264 3.8 8.613 7.638 17.226 11.398 25.878.931 2.144 1.667 4.364 2.52 6.546h-7.366c-.93-2.182-1.899-4.326-2.791-6.508-.388-1.033-.969-1.493-2.132-1.493-3.994 0-8.026-.038-12.019-.153-1.279-.038-1.822.46-2.171 1.646-.659 2.182-1.473 4.326-2.248 6.508h-7.366c.155-.727.232-1.493.504-2.182 2.442-5.742 4.962-11.485 7.443-17.227 2.055-4.747 4.032-9.532 6.048-14.279zm4.303 7.58c-.193.038-.348.038-.542.077-1.629 3.828-3.296 7.656-5.002 11.675h10.197c-1.629-4.096-3.141-7.924-4.653-11.752zM587.8 34.01c.077 3.56.154 7.12.192 10.68.039 3.561-.038 7.16 0 10.72.077 4.517 2.456 6.814 6.909 6.814 3.262 0 6.524.076 9.786.115v5.359h-16.119c-5.258-2.259-7.216-6.47-7.139-11.905.039-1.417 0-2.795 0-4.212l.23-17.57h6.141z" fill="#ED0000"/><path d="M207.347 39.04c-9.035 0-16.347 7.35-16.347 16.431 0 9.081 7.312 16.431 16.347 16.431s16.348-7.35 16.348-16.43c0-9.081-7.313-16.431-16.348-16.431zm0 24.663c-4.517 0-8.19-3.691-8.19-8.232 0-4.54 3.673-8.231 8.19-8.231 4.518 0 8.19 3.691 8.19 8.231s-3.672 8.232-8.19 8.232zM236.078 60.992c0-1.307 1.56-1.927 2.47-1.013 4.095 4.181 10.855 11.368 10.887 11.4.098.098.195.262.585.392.163.066.423.066.715.066h7.377c1.333 0 1.723-1.536 1.105-2.32l-12.219-12.576-.65-.653c-1.398-1.666-1.235-2.32.357-4.018l9.685-10.877c.617-.784.227-2.287-1.138-2.287h-6.694c-.26 0-.455 0-.65.066-.39.13-.553.26-.65.392-.033.032-5.395 5.846-8.71 9.407-.91.98-2.535.327-2.535-1.013V29.307c0-.948-.78-1.307-1.398-1.307h-5.46c-.942 0-1.397.62-1.397 1.176V70.53c0 .947.78 1.209 1.43 1.209h5.46c.845 0 1.397-.621 1.397-1.242V60.992h.033zM280.668 70.334l-.585-5.488c-.065-.751-.78-1.274-1.528-1.143a8.268 8.268 0 01-1.267.098c-4.355 0-7.898-3.43-8.158-7.774V48.84c0-.882.65-1.6 1.528-1.6h7.312c.52 0 1.3-.458 1.3-1.405v-5.194c0-1.012-.65-1.535-1.235-1.535h-7.377c-.845 0-1.528-.62-1.56-1.47v-8.33c0-.522-.39-1.306-1.398-1.306h-5.427c-.683 0-1.333.425-1.333 1.274v26.753C261.168 64.912 268.415 72 277.288 72c.747 0 1.462-.065 2.177-.163.78-.098 1.3-.752 1.203-1.503zM320.057 63.442c-4.614 0-5.329-1.666-5.329-7.905V40.478c0-.523-.391-1.404-1.431-1.404h-5.46c-.682 0-1.429.555-1.429 1.404v.686a16.081 16.081 0 00-8.061-2.156c-9.035 0-16.347 7.35-16.347 16.43 0 9.082 7.312 16.431 16.347 16.431 4.063 0 7.768-1.502 10.628-3.952 1.527 2.352 3.998 3.92 7.865 3.952.65 0 4.16.131 4.16-1.535v-5.847c0-.49-.39-1.045-.943-1.045zm-21.677.261c-4.518 0-8.19-3.691-8.19-8.232 0-4.54 3.672-8.231 8.19-8.231 4.517 0 8.19 3.691 8.19 8.231-.032 4.54-3.705 8.232-8.19 8.232z" fill="#007DC1"/><path d="M360.544 322.777c.456-3.118 3.216-7.012 8.429-7.012 4.905 0 7.665 3.581 8.133 7.012h-16.562zm-6.753 2.503c0 8.726 6.285 14.648 15.342 14.648 5.977 0 9.969-2.955 12.273-5.609.308-.313.308-.626 0-.939l-3.228-2.966c-.308-.313-.764-.313-.924 0-1.688 1.402-4.141 3.743-7.973 3.743-4.449 0-7.665-2.805-8.429-6.386h22.242c.616 0 .924-.313.924-.938v-1.403c0-8.413-5.373-15.273-14.418-15.273-9.98 0-15.809 6.709-15.809 15.123zm34.048 13.547c0 .464.308.776.764.776h4.757c.456 0 .764-.312.764-.776v-40.201c-.149-.313-.308-.626-.764-.626h-4.905c-.456 0-.616.313-.616.626v40.201zm-43.857 0c0 .464.308.776.764.776h4.597c.456 0 .764-.312.764-.776v-16.201c0-6.861-3.992-12.469-12.421-12.469h-.149c-4.14 0-7.208 1.402-9.045 2.955v-1.553c0-.464-.308-.777-.764-.777h-4.756c-.457 0-.765.313-.765.777v27.106c0 .463.308.776.765.776h4.756c.456 0 .764-.313.764-.776v-14.95c0-4.67 2.304-8.1 7.825-8.1 5.521 0 7.665 3.43 7.665 8.1v15.112zm89.71 8.413c2.144 2.654 6.753 5.76 13.186 5.76 9.045 0 14.417-5.609 14.417-14.486v-26.793c0-.464-.308-.776-.764-.776h-4.448c-.457 0-.765.312-.765.776v1.553c-1.996-1.715-4.596-2.955-8.897-2.955-8.132 0-15.181 6.072-15.181 14.961 0 9.039 6.9 14.961 15.181 14.961 3.993 0 6.593-1.402 8.589-2.955v1.865c0 4.984-2.908 8.414-8.281 8.414-4.448 0-7.357-2.492-9.353-4.357-.308-.313-.924-.313-1.232 0l-2.452 2.804c-.456.301-.456.765 0 1.228zm-121.773-22.122c0 4.983-3.684 9.039-8.737 9.039s-8.429-4.358-8.429-9.039v-.313c0-4.833 3.524-8.877 8.429-8.877 4.904 0 8.737 4.044 8.737 9.19zm-23.919 0c0 8.1 6.445 14.961 15.182 14.961s15.181-6.861 15.181-14.961v-.313c0-8.101-6.444-14.648-15.181-14.648-8.737 0-15.182 6.547-15.182 14.961zm133.579 0c0 4.983-3.685 9.039-8.738 9.039-4.904 0-8.429-4.358-8.429-9.039v-.313c0-4.833 3.525-8.877 8.429-8.877 5.053 0 8.738 4.044 8.738 9.19zm-23.931 0c0 8.1 6.445 14.961 15.182 14.961s15.182-6.861 15.182-14.961v-.313c0-8.101-6.445-14.648-15.182-14.648s-15.182 6.547-15.182 14.961zm69.476 13.709c0 .464.308.776.764.776h4.756c.457 0 .765-.312.765-.776v-27.268c0-.313-.149-.626-.616-.626h-4.905c-.456 0-.616.313-.616.626v27.268h-.148zm0-35.056c0 .464.308.777.764.777h4.756c.457 0 .765-.313.765-.777v-5.145c0-.313-.149-.626-.616-.626h-4.905c-.456 0-.616.313-.616.626v5.145h-.148zm33.591 35.056c0 .464.308.776.764.776h4.757c.456 0 .764-.312.764-.776v-16.201c0-6.861-3.992-12.469-12.421-12.469h-.149c-4.14 0-7.208 1.402-9.045 2.955v-1.553c0-.464-.308-.777-.764-.777h-4.768c-.456 0-.764.313-.764.777v27.106c0 .463.308.776.764.776h4.757c.456 0 .764-.313.764-.776v-14.95c0-4.67 2.304-8.1 7.824-8.1 5.521 0 7.665 3.43 7.665 8.1v15.112h-.148zm-45.556-13.709c0 4.983-3.685 9.039-8.738 9.039-5.064 0-8.429-4.358-8.429-9.039v-.313c0-4.833 3.525-8.877 8.429-8.877 4.905 0 8.738 4.044 8.738 9.19z" fill="#00A9E0"/><path d="M85.333 164h-17.75l5.486 16.89h17.75l-14.36 10.072 5.487 16.986c9.243-6.653 12.264-16.722 8.875-27.058L85.333 164zm-40.985 16.89h17.75L67.584 164H49.836l-5.488 16.89c-3.39 10.336-.369 20.405 8.875 27.058l5.486-16.986-14.36-10.072zm8.875 27.058L67.583 218l14.361-10.052-14.36-10.218-14.361 10.218zm133.956-27.473c-4.202 0-6.871 1.885-8.136 4.942h-.318v-13.906h-6.303v36.351h6.443V192.09c0-3.904 2.456-6.155 5.91-6.155 3.381 0 5.376 2.128 5.376 5.767v16.16h6.443V190.64c0-6.524-3.737-10.165-9.415-10.165zm26.832-9.024c-8.72 0-13.966 6.741-13.988 18.457 0 11.75 5.23 18.581 13.988 18.581 8.759 0 13.989-6.812 13.989-18.581-.005-11.697-5.268-18.457-13.989-18.457zm-7.337 18.464c.017-8.546 2.836-13.047 7.337-13.047 3.076 0 5.364 2.087 6.518 6.114l-13.738 9.862a33.234 33.234 0 01-.117-2.929zm7.337 13.098c-3.179 0-5.524-2.22-6.628-6.535l13.813-9.921c.115 1.113.172 2.232.172 3.351-.001 8.617-2.82 13.099-7.357 13.099v.006zm-70.585-6.502c0 4.115-2.973 6.155-5.82 6.155-3.096 0-5.163-2.164-5.163-5.593v-16.214h-6.442v17.199c0 6.49 3.737 10.165 9.113 10.165 4.093 0 6.977-2.128 8.223-5.153h.286v4.801h6.247v-27.014h-6.444v15.654zm-31.99-16.062c-5.748 0-10.16 2.532-11.585 7.455l6.015.844c.636-1.846 2.456-3.429 5.605-3.429 2.99 0 4.628 1.513 4.628 4.169v.113c0 1.828-1.94 1.916-6.762 2.426-5.295.558-10.382 2.119-10.382 8.202 0 5.31 3.932 8.123 9.146 8.123 4.292 0 6.852-1.987 8.026-4.255h.215v3.71h6.192v-18.074c.006-7.139-5.884-9.284-11.098-9.284zm4.687 17.67c0 3.007-2.456 5.557-6.335 5.557-2.688 0-4.61-1.214-4.61-3.552 0-2.444 2.154-3.464 5.036-3.869 1.691-.228 5.072-.65 5.909-1.318v3.182zm47.501-24.009h-6.443v6.763h-3.911v5.057h3.911v14.954c-.035 5.082 3.702 7.579 8.544 7.44a13.382 13.382 0 003.276-.472v-5.041c-.488.064-1.629.209-2.459.228-1.618.036-2.918-.564-2.918-3.131V185.93h5.393v-5.057h-5.393v-6.763z" fill="#EB5424"/><path d="M606.242 212.956c9.51-1.67 17.364-3.052 17.454-3.071l.164-.035-8.978-10.617c-4.938-5.84-8.978-10.64-8.978-10.668 0-.052 9.271-25.434 9.323-25.524.017-.03 6.326 10.799 15.293 26.251a164687.43 164687.43 0 0115.38 26.505l.117.203-28.532-.004-28.533-.003 17.29-3.037zm109.419-2.568c-4.343-.277-6.869-2.735-7.539-7.338-.178-1.224-.178-1.256-.197-9.204l-.017-7.693h3.844l.015 7.441c.014 6.706.022 7.492.087 7.964.262 1.915.783 3.202 1.67 4.126.71.74 1.541 1.173 2.691 1.403.543.108 2.087.108 2.582 0 1.166-.255 2.101-.76 2.925-1.579.94-.934 1.636-2.26 1.972-3.758l.113-.505.013-7.504.013-7.504h3.925v23.592h-3.885v-1.871c0-1.272-.014-1.867-.044-1.857-.024.008-.123.159-.221.337a7.885 7.885 0 01-3.007 2.992c-1.464.801-2.933 1.086-4.94.958zm44.084-.019a10.209 10.209 0 01-4.467-1.45c-2.781-1.71-4.427-4.529-4.908-8.409-.167-1.343-.187-3.146-.048-4.287.311-2.549 1.318-5.051 2.753-6.838a14.179 14.179 0 011.662-1.653 10.39 10.39 0 014.244-2.013c.9-.196 2.485-.288 3.441-.2 2.402.221 4.603 1.346 6.1 3.116 1.52 1.798 2.356 4.31 2.462 7.404.017.485.021 1.335.009 1.889l-.021 1.008-8.413.01-8.413.011v.373c0 1.136.278 2.431.759 3.532.414.949 1.127 1.986 1.711 2.488a7.548 7.548 0 004.265 1.793c.594.055 2.109-.003 2.786-.107 1.933-.295 3.77-1.049 5.254-2.155.175-.13.342-.251.371-.27.044-.027.054.313.053 1.742l-.001 1.776-.398.244c-1.678 1.033-3.601 1.695-5.637 1.943-.608.074-2.838.107-3.564.053zm7.321-14.976c0-1.903-.806-4.018-1.948-5.107-.815-.777-1.8-1.251-2.971-1.432-.553-.085-1.721-.052-2.305.065a6.033 6.033 0 00-3.146 1.663 8.51 8.51 0 00-2.083 3.314c-.159.458-.344 1.21-.402 1.629l-.028.199h12.883v-.331zm-114.117 14.384c.01-.029 2.866-7.491 6.348-16.582l6.331-16.529h4.068l.168.43a33477.71 33477.71 0 0112.674 32.714c0 .01-.974.019-2.164.019l-2.164-.001-1.752-4.638-1.753-4.638h-14.11l-.061.157c-.034.087-.783 2.174-1.664 4.638l-1.602 4.481h-2.169c-1.716.001-2.164-.01-2.15-.051zm20.469-12.765c0-.007-1.18-3.185-2.621-7.063-2.696-7.253-2.847-7.69-3.06-8.854-.1-.546-.15-.562-.21-.063-.042.356-.226 1.153-.367 1.595-.071.219-1.285 3.533-2.699 7.363-1.413 3.83-2.57 6.98-2.57 7 0 .019 2.593.036 5.763.036s5.764-.006 5.764-.014zm10.428 12.213v-.604l7.03-9.607 7.029-9.608-6.364-.021-6.365-.021-.011-1.605-.011-1.606h18.41v1.085l-7.03 9.659a3164.9 3164.9 0 00-7.03 9.68c0 .011 3.126.02 6.946.02h6.945v3.232h-19.549v-.604zm51.582.576c-.016-.015-.028-5.342-.028-11.838v-11.81h3.842v2.435c0 1.339.016 2.435.036 2.435.02 0 .114-.22.208-.487a8.413 8.413 0 012.146-3.287 5.576 5.576 0 013.035-1.5c.33-.053.608-.063 1.267-.046.827.021 1.26.081 1.763.245l.158.051v3.965l-.454-.225c-.801-.399-1.592-.557-2.544-.508-.618.032-1.025.111-1.52.295a4.804 4.804 0 00-2.42 1.966 11.355 11.355 0 00-1.607 4.594c-.032.281-.05 2.569-.058 7.079l-.011 6.664h-1.892c-1.041 0-1.906-.012-1.921-.028zM572 209.718c0-.015 4.23-7.316 9.401-16.225l9.401-16.197 10.955-9.141A4163.202 4163.202 0 01612.749 159c.019-.007-.06.191-.177.441-.116.25-5.47 11.666-11.896 25.369l-11.684 24.914-8.496.011c-4.673.006-8.496-.002-8.496-.017z" fill="#0089D6"/><path d="M400.7 137.991a7.396 7.396 0 012.706 2.707l32.605 56.555a7.413 7.413 0 01-.002 7.399 7.396 7.396 0 01-6.401 3.699h-7.655a62.404 62.404 0 000-6.178h7.628a1.223 1.223 0 001.076-1.836l-32.611-56.55a1.228 1.228 0 00-1.057-.61 1.222 1.222 0 00-1.056.61l-7.478 12.987a57.904 57.904 0 0119.258 20.905 57.98 57.98 0 016.998 27.561v3.084h-19.703v-3.089a38.194 38.194 0 00-16.429-31.356l-3.699 6.415a30.75 30.75 0 019.389 10.943 30.787 30.787 0 013.374 14.025v3.084h-23.251a7.39 7.39 0 01-6.401-3.699 7.404 7.404 0 01-.002-7.399l4.661-8.149a17.132 17.132 0 015.376 3.074l-4.71 8.164c-.108.187-.165.4-.165.617.001.216.059.428.168.615a1.223 1.223 0 001.073.604h16.897a24.977 24.977 0 00-3.946-10.484 24.915 24.915 0 00-8.129-7.697l-2.688-1.545 9.817-17.088 2.688 1.539a44.329 44.329 0 0115.409 14.889 44.381 44.381 0 016.632 20.386h7.398a51.782 51.782 0 00-7.623-24.067 51.701 51.701 0 00-18.091-17.591l-2.688-1.545 10.537-18.272a7.388 7.388 0 0110.095-2.707z" fill="#1D1127"/><g clip-path="url(#clip1)" fill="#C6BECF"><path d="M300.046 187.918a1.03 1.03 0 01-1.031-1.032v-3.918a3.906 3.906 0 10-7.796 0v3.918a1.03 1.03 0 11-2.063 0v-3.918a5.969 5.969 0 0111.553-2.371c.282.757.407 1.564.368 2.371v3.918a1.042 1.042 0 01-1.031 1.032z"/><path d="M304.24 199h-18.26a1.044 1.044 0 01-1.031-1.031v-11.083a1.028 1.028 0 011.031-1.031h18.26a1.033 1.033 0 011.031 1.031v11.083A1.042 1.042 0 01304.24 199zm-17.229-2.062h16.239v-9.02h-16.239v9.02z"/><path d="M295.11 194.792a1.043 1.043 0 01-1.031-1.031v-2.942c0-.274.108-.536.302-.729a1.027 1.027 0 011.458 0c.194.193.302.455.302.729v2.942a1.028 1.028 0 01-1.031 1.031z"/></g><g clip-path="url(#clip2)" fill="#C6BECF"><path d="M506.046 187.918a1.03 1.03 0 01-1.031-1.032v-3.918a3.906 3.906 0 10-7.796 0v3.918a1.03 1.03 0 11-2.063 0v-3.918a5.969 5.969 0 0111.553-2.371c.282.757.407 1.564.368 2.371v3.918a1.042 1.042 0 01-1.031 1.032z"/><path d="M510.24 199h-18.26a1.044 1.044 0 01-1.031-1.031v-11.083a1.028 1.028 0 011.031-1.031h18.26a1.033 1.033 0 011.031 1.031v11.083A1.042 1.042 0 01510.24 199zm-17.229-2.062h16.239v-9.02h-16.239v9.02z"/><path d="M501.11 194.792a1.043 1.043 0 01-1.031-1.031v-2.942c0-.274.108-.536.302-.729a1.027 1.027 0 011.458 0c.194.193.302.455.302.729v2.942a1.028 1.028 0 01-1.031 1.031z"/></g><g clip-path="url(#clip3)" fill="#C6BECF"><path d="M348.046 107.917a1.028 1.028 0 01-1.031-1.031v-3.919a3.903 3.903 0 00-6.74-2.909 3.904 3.904 0 00-1.056 2.909v3.919a1.03 1.03 0 11-2.063 0v-3.919a5.967 5.967 0 1111.921 0v3.919a1.042 1.042 0 01-1.031 1.031z"/><path d="M352.24 119h-18.26a1.044 1.044 0 01-1.031-1.031v-11.083a1.028 1.028 0 011.031-1.031h18.26a1.033 1.033 0 011.031 1.031v11.083A1.042 1.042 0 01352.24 119zm-17.229-2.062h16.239v-9.02h-16.239v9.02z"/><path d="M343.11 114.792a1.043 1.043 0 01-1.031-1.031v-2.942c0-.274.108-.536.302-.729a1.028 1.028 0 011.458 0c.194.193.302.455.302.729v2.942a1.028 1.028 0 01-1.031 1.031z"/></g><g clip-path="url(#clip4)" fill="#C6BECF"><path d="M450.046 107.917a1.028 1.028 0 01-1.031-1.031v-3.919a3.903 3.903 0 00-6.74-2.909 3.904 3.904 0 00-1.056 2.909v3.919a1.03 1.03 0 11-2.063 0v-3.919a5.967 5.967 0 1111.921 0v3.919a1.042 1.042 0 01-1.031 1.031z"/><path d="M454.24 119h-18.26a1.044 1.044 0 01-1.031-1.031v-11.083a1.028 1.028 0 011.031-1.031h18.26a1.033 1.033 0 011.031 1.031v11.083A1.042 1.042 0 01454.24 119zm-17.229-2.062h16.239v-9.02h-16.239v9.02z"/><path d="M445.11 114.792a1.043 1.043 0 01-1.031-1.031v-2.942c0-.274.108-.536.302-.729a1.028 1.028 0 011.458 0c.194.193.302.455.302.729v2.942a1.028 1.028 0 01-1.031 1.031z"/></g><g clip-path="url(#clip5)" fill="#C6BECF"><path d="M402.046 253.918a1.03 1.03 0 01-1.031-1.032v-3.918a3.906 3.906 0 10-7.796 0v3.918a1.03 1.03 0 11-2.063 0v-3.918a5.969 5.969 0 0111.553-2.371c.282.757.407 1.564.368 2.371v3.918a1.042 1.042 0 01-1.031 1.032z"/><path d="M406.24 265h-18.26a1.044 1.044 0 01-1.031-1.031v-11.083a1.028 1.028 0 011.031-1.031h18.26a1.033 1.033 0 011.031 1.031v11.083A1.042 1.042 0 01406.24 265zm-17.229-2.062h16.239v-9.02h-16.239v9.02z"/><path d="M397.11 260.792a1.043 1.043 0 01-1.031-1.031v-2.942c0-.274.108-.536.302-.729a1.028 1.028 0 011.458 0c.194.193.302.455.302.729v2.942a1.028 1.028 0 01-1.031 1.031z"/></g><defs><clipPath id="clip0"><path fill="#fff" transform="translate(417 30)" d="M0 0h42.4v40.104H0z"/></clipPath><clipPath id="clip1"><path fill="#fff" transform="translate(284 177)" d="M0 0h22v22H0z"/></clipPath><clipPath id="clip2"><path fill="#fff" transform="translate(490 177)" d="M0 0h22v22H0z"/></clipPath><clipPath id="clip3"><path fill="#fff" transform="translate(332 97)" d="M0 0h22v22H0z"/></clipPath><clipPath id="clip4"><path fill="#fff" transform="translate(434 97)" d="M0 0h22v22H0z"/></clipPath><clipPath id="clip5"><path fill="#fff" transform="translate(386 243)" d="M0 0h22v22H0z"/></clipPath></defs></svg>