<svg width="511" height="233" viewBox="0 0 511 233" fill="none" xmlns="http://www.w3.org/2000/svg">
<path d="M58.7063 39.2836C51.1308 39.2836 45 45.4643 45 53.1006C45 60.7369 51.1308 66.9176 58.7063 66.9176C66.2818 66.9176 72.4135 60.7369 72.4135 53.1015C72.4135 45.4652 66.2818 39.2845 58.7063 39.2845V39.2836ZM58.7063 60.023C54.919 60.023 51.8393 56.9192 51.8393 53.1006C51.8393 49.2829 54.919 46.1791 58.7063 46.1791C62.4945 46.1791 65.5733 49.2829 65.5733 53.1006C65.5733 56.9183 62.4945 60.023 58.7063 60.023ZM82.7962 57.7433C82.7962 56.6442 84.1042 56.1228 84.8672 56.8914C88.3007 60.4073 93.9687 66.4509 93.9955 66.4778C94.0777 66.5602 94.159 66.6981 94.486 66.8074C94.6227 66.8629 94.8407 66.8629 95.0855 66.8629H101.271C102.388 66.8629 102.716 65.5713 102.197 64.912L91.9522 54.3368L91.4072 53.7876C90.235 52.3867 90.3717 51.8367 91.7065 50.4089L99.827 41.2623C100.344 40.603 100.017 39.3391 98.8728 39.3391H93.2602C93.0422 39.3391 92.8787 39.3391 92.7152 39.3946C92.3882 39.504 92.2515 39.6133 92.1702 39.7243C92.1425 39.7512 87.6467 44.6402 84.8672 47.6347C84.1042 48.4588 82.7417 47.9097 82.7417 46.7829V31.0991C82.7417 30.3019 82.0877 30 81.5695 30H76.9915C76.2017 30 75.8202 30.5214 75.8202 30.9889V65.7639C75.8202 66.5602 76.4742 66.7805 77.0192 66.7805H81.5972C82.3057 66.7805 82.7685 66.2583 82.7685 65.7361V57.7433H82.7962V57.7433ZM120.183 65.599L119.693 60.9841C119.638 60.3526 119.039 59.9128 118.411 60.023C118.06 60.0777 117.705 60.1053 117.349 60.1054C113.698 60.1054 110.727 57.2211 110.509 53.5682V47.5245C110.509 46.7829 111.054 46.1791 111.79 46.1791H117.921C118.357 46.1791 119.011 45.794 119.011 44.9976V40.6299C119.011 39.7789 118.466 39.3391 117.976 39.3391H111.79C111.082 39.3391 110.509 38.8178 110.482 38.103V31.0982C110.482 30.6593 110.155 30 109.31 30H104.76C104.187 30 103.642 30.3574 103.642 31.0713V53.5682C103.833 61.0396 109.909 67 117.349 67C117.975 67 118.575 66.9453 119.174 66.8629C119.828 66.7805 120.264 66.2306 120.183 65.599ZM153.209 59.8035C149.341 59.8035 148.741 58.4025 148.741 53.1561V40.4929C148.741 40.0531 148.413 39.3122 147.541 39.3122H142.963C142.392 39.3122 141.765 39.7789 141.765 40.4929V41.0697C139.711 39.8795 137.379 39.2541 135.006 39.2567C127.431 39.2567 121.3 45.4374 121.3 53.0729C121.3 60.71 127.431 66.8898 135.006 66.8898C138.413 66.8898 141.52 65.6268 143.918 63.5666C145.198 65.5444 147.27 66.8629 150.512 66.8898C151.057 66.8898 154 67 154 65.599V60.6822C154 60.2702 153.673 59.8035 153.209 59.8035V59.8035ZM135.034 60.023C131.246 60.023 128.167 56.9192 128.167 53.1006C128.167 49.2829 131.246 46.1791 135.034 46.1791C138.821 46.1791 141.901 49.2829 141.901 53.1006C141.874 56.9183 138.795 60.023 135.034 60.023Z" fill="#007DC1"/>
<path d="M38.9952 159.81C45.6594 158.64 51.1631 157.671 51.2261 157.658L51.3411 157.633L45.0497 150.194C41.5894 146.101 38.7583 142.738 38.7583 142.718C38.7583 142.681 45.255 124.895 45.2915 124.832C45.3034 124.811 49.7244 132.399 56.0081 143.227C59.6012 149.418 63.1937 155.609 66.7857 161.801L66.8677 161.943L46.8738 161.94L26.8792 161.938L38.9952 159.81V159.81ZM115.671 158.01C112.628 157.816 110.857 156.094 110.388 152.868C110.263 152.011 110.263 151.988 110.25 146.419L110.238 141.028H112.932L112.942 146.242C112.952 150.941 112.958 151.492 113.003 151.823C113.187 153.165 113.552 154.067 114.173 154.714C114.671 155.233 115.253 155.536 116.059 155.697C116.44 155.773 117.522 155.773 117.868 155.697C118.686 155.519 119.341 155.165 119.918 154.591C120.577 153.936 121.065 153.007 121.3 151.957L121.379 151.603L121.388 146.345L121.397 141.087H124.148V157.619H121.425V156.308C121.425 155.416 121.416 154.999 121.395 155.006C121.378 155.012 121.308 155.118 121.24 155.242C120.742 156.121 120.013 156.846 119.133 157.339C118.107 157.9 117.077 158.1 115.671 158.01V158.01ZM146.563 157.997C145.455 157.906 144.383 157.558 143.433 156.981C141.484 155.783 140.33 153.807 139.993 151.088C139.876 150.147 139.862 148.884 139.96 148.084C140.178 146.298 140.883 144.545 141.889 143.293C142.244 142.875 142.634 142.487 143.054 142.134C143.924 141.443 144.942 140.961 146.028 140.724C146.658 140.586 147.769 140.522 148.439 140.583C150.122 140.738 151.664 141.527 152.713 142.767C153.779 144.027 154.364 145.787 154.439 147.955C154.451 148.295 154.453 148.891 154.445 149.279L154.43 149.985L148.535 149.992L142.639 150V150.262C142.639 151.058 142.834 151.965 143.171 152.737C143.461 153.402 143.961 154.128 144.37 154.48C145.21 155.201 146.256 155.641 147.359 155.736C147.775 155.775 148.837 155.734 149.311 155.662C150.666 155.455 151.953 154.926 152.993 154.151C153.116 154.06 153.233 153.975 153.253 153.962C153.284 153.943 153.291 154.182 153.29 155.183L153.289 156.427L153.011 156.598C151.835 157.322 150.487 157.786 149.06 157.96C148.634 158.012 147.072 158.035 146.563 157.997V157.997ZM151.693 147.503C151.693 146.169 151.128 144.687 150.328 143.924C149.757 143.379 149.067 143.047 148.246 142.92C147.859 142.861 147.04 142.884 146.631 142.966C145.796 143.124 145.027 143.53 144.426 144.131C143.766 144.781 143.266 145.577 142.967 146.454C142.855 146.775 142.726 147.302 142.685 147.595L142.665 147.735H151.693V147.503V147.503ZM71.7253 157.582C71.7323 157.562 73.7336 152.333 76.1737 145.962L80.6101 134.38H83.4608L83.5785 134.681C86.543 142.321 89.5034 149.962 92.4599 157.605C92.4599 157.612 91.7773 157.619 90.9434 157.619L89.427 157.618L88.1993 154.368L86.9709 151.118H77.0832L77.0405 151.228C77.0167 151.289 76.4918 152.751 75.8744 154.478L74.7518 157.618H73.2319C72.0294 157.619 71.7154 157.611 71.7253 157.582V157.582ZM86.069 148.637C86.069 148.632 85.2421 146.405 84.2323 143.688C82.3431 138.605 82.2373 138.299 82.088 137.483C82.0179 137.101 81.9829 137.089 81.9408 137.439C81.9114 137.689 81.7825 138.247 81.6837 138.557C81.6339 138.71 80.7832 141.033 79.7923 143.716C78.8022 146.4 77.9914 148.608 77.9914 148.622C77.9914 148.635 79.8085 148.647 82.0298 148.647C84.2512 148.647 86.069 148.643 86.069 148.637V148.637ZM93.3764 157.195V156.772L98.3027 150.04L103.228 143.307L98.7687 143.293L94.3085 143.278L94.3007 142.153L94.293 141.028H107.194V141.788L102.268 148.557C100.621 150.815 98.9792 153.076 97.3413 155.34C97.3413 155.348 99.5319 155.354 102.209 155.354H107.075V157.619H93.3764V157.195V157.195ZM129.523 157.599C129.511 157.589 129.503 153.856 129.503 149.304V141.028H132.195V142.734C132.195 143.672 132.207 144.44 132.221 144.44C132.235 144.44 132.3 144.286 132.366 144.099C132.679 143.223 133.194 142.434 133.87 141.796C134.453 141.233 135.196 140.866 135.997 140.745C136.228 140.707 136.423 140.7 136.885 140.712C137.464 140.727 137.768 140.769 138.12 140.884L138.231 140.92V143.698L137.913 143.541C137.352 143.261 136.797 143.15 136.13 143.185C135.697 143.207 135.412 143.262 135.065 143.391C134.362 143.649 133.766 144.134 133.369 144.769C132.765 145.748 132.381 146.846 132.243 147.988C132.221 148.185 132.208 149.788 132.202 152.949L132.195 157.619H130.869C130.139 157.619 129.533 157.61 129.523 157.599ZM15 157.541C15 157.53 17.9642 152.414 21.5878 146.171L28.1756 134.821L35.8523 128.416C38.4162 126.273 40.9838 124.134 43.555 122C43.5683 121.995 43.513 122.134 43.431 122.309C43.3497 122.484 39.5979 130.484 35.0948 140.087L26.9072 157.545L20.9536 157.553C17.679 157.557 15 157.551 15 157.541V157.541Z" fill="#0089D6"/>
<path d="M242.631 73.1232C243.419 73.5781 244.073 74.2324 244.527 75.0201L267.375 114.651C267.829 115.44 268.068 116.334 268.068 117.244C268.068 118.154 267.828 119.048 267.374 119.836C266.919 120.624 266.266 121.278 265.478 121.733C264.691 122.188 263.798 122.428 262.888 122.428H257.524C257.596 120.986 257.596 119.541 257.524 118.099H262.87C263.021 118.101 263.171 118.063 263.303 117.989C263.435 117.914 263.545 117.806 263.621 117.675C263.698 117.545 263.739 117.396 263.739 117.244C263.739 117.093 263.7 116.944 263.624 116.812L240.771 77.1847C240.696 77.0551 240.588 76.9475 240.458 76.8725C240.328 76.7975 240.181 76.7578 240.031 76.7573C239.881 76.7575 239.733 76.7971 239.603 76.8721C239.474 76.9471 239.366 77.0549 239.291 77.1847L234.05 86.2854C239.696 89.9715 244.334 95.0062 247.546 100.935C250.758 106.866 252.443 113.503 252.449 120.248V122.409H238.642V120.245C238.639 115.925 237.59 111.67 235.585 107.844C233.581 104.018 230.679 100.733 227.13 98.2718L224.538 102.767C227.308 104.766 229.563 107.394 231.117 110.435C232.672 113.478 233.483 116.847 233.481 120.264V122.425H217.188C216.279 122.425 215.385 122.185 214.598 121.73C213.811 121.275 213.157 120.62 212.703 119.833C212.248 119.044 212.008 118.15 212.008 117.24C212.008 116.33 212.247 115.436 212.701 114.648L215.967 108.937C217.344 109.42 218.62 110.15 219.735 111.091L216.434 116.812C216.358 116.943 216.319 117.093 216.319 117.245C216.319 117.396 216.36 117.545 216.436 117.676C216.513 117.806 216.623 117.914 216.755 117.989C216.887 118.063 217.037 118.101 217.188 118.099H229.029C228.675 115.472 227.73 112.96 226.264 110.752C224.799 108.545 222.851 106.701 220.567 105.359L218.684 104.276L225.563 92.3014L227.446 93.3798C231.845 95.9224 235.552 99.5049 238.244 103.813C240.938 108.124 242.533 113.029 242.892 118.099H248.076C247.714 112.123 245.879 106.329 242.734 101.234C239.591 96.1409 235.236 91.9058 230.057 88.9069L228.173 87.8243L235.557 75.0201C235.897 74.4309 236.349 73.9144 236.889 73.5002C237.428 73.0859 238.044 72.782 238.701 72.6059C239.358 72.4297 240.043 72.3847 240.718 72.4735C241.392 72.5622 242.042 72.783 242.631 73.1232V73.1232Z" fill="#1D1127"/>
<path d="M190.58 125.154C190.485 125.155 190.391 125.136 190.303 125.1C190.215 125.063 190.135 125.01 190.068 124.943C190.001 124.876 189.948 124.796 189.912 124.708C189.876 124.62 189.857 124.526 189.857 124.431V121.686C189.881 121.312 189.828 120.938 189.702 120.586C189.575 120.234 189.378 119.911 189.122 119.638C188.866 119.365 188.557 119.148 188.213 118.999C187.87 118.85 187.5 118.773 187.126 118.773C186.751 118.773 186.381 118.85 186.038 118.999C185.694 119.148 185.385 119.365 185.129 119.638C184.873 119.911 184.676 120.234 184.549 120.586C184.423 120.938 184.37 121.312 184.394 121.686V124.431C184.394 124.623 184.318 124.807 184.182 124.942C184.047 125.078 183.863 125.154 183.671 125.154C183.48 125.154 183.296 125.078 183.16 124.942C183.025 124.807 182.948 124.623 182.948 124.431V121.686C182.902 120.69 183.212 119.71 183.824 118.923C184.436 118.136 185.309 117.593 186.286 117.393C187.262 117.192 188.279 117.347 189.151 117.83C190.023 118.312 190.695 119.09 191.044 120.024C191.242 120.555 191.329 121.12 191.302 121.686V124.431C191.3 124.622 191.224 124.805 191.089 124.94C190.953 125.076 190.771 125.152 190.58 125.154V125.154Z" fill="#C6BECF"/>
<path d="M193.518 132.92H180.722C180.532 132.918 180.349 132.841 180.214 132.706C180.079 132.571 180.002 132.389 180 132.198V124.431C180 124.336 180.018 124.242 180.054 124.154C180.091 124.067 180.144 123.987 180.211 123.92C180.278 123.853 180.358 123.799 180.446 123.763C180.533 123.727 180.628 123.708 180.722 123.709H193.518C193.71 123.709 193.893 123.785 194.029 123.921C194.164 124.056 194.24 124.24 194.241 124.431V132.198C194.239 132.389 194.162 132.571 194.027 132.706C193.892 132.841 193.709 132.918 193.518 132.92V132.92ZM181.445 131.475H192.824V125.154H181.445V131.475Z" fill="#C6BECF"/>
<path d="M187.12 129.972C186.929 129.969 186.747 129.893 186.612 129.758C186.477 129.623 186.4 129.44 186.398 129.249V127.187C186.398 126.995 186.474 126.812 186.61 126.677C186.676 126.609 186.756 126.556 186.844 126.519C186.931 126.483 187.025 126.464 187.12 126.464C187.215 126.464 187.309 126.483 187.397 126.519C187.485 126.556 187.564 126.609 187.631 126.677C187.767 126.812 187.843 126.995 187.843 127.187V129.249C187.843 129.344 187.825 129.438 187.788 129.526C187.752 129.614 187.699 129.693 187.632 129.761C187.565 129.828 187.485 129.881 187.397 129.917C187.309 129.953 187.215 129.972 187.12 129.972V129.972Z" fill="#C6BECF"/>
<path d="M296.58 125.154C296.485 125.155 296.391 125.136 296.303 125.1C296.215 125.063 296.135 125.01 296.068 124.943C296.001 124.876 295.948 124.796 295.912 124.708C295.876 124.62 295.857 124.526 295.857 124.431V121.686C295.881 121.312 295.828 120.938 295.702 120.586C295.575 120.234 295.378 119.911 295.122 119.638C294.866 119.365 294.557 119.148 294.213 118.999C293.87 118.85 293.5 118.773 293.126 118.773C292.751 118.773 292.381 118.85 292.038 118.999C291.694 119.148 291.385 119.365 291.129 119.638C290.873 119.911 290.676 120.234 290.549 120.586C290.423 120.938 290.37 121.312 290.394 121.686V124.431C290.394 124.623 290.318 124.807 290.182 124.942C290.047 125.078 289.863 125.154 289.671 125.154C289.48 125.154 289.296 125.078 289.16 124.942C289.025 124.807 288.948 124.623 288.948 124.431V121.686C288.902 120.69 289.212 119.71 289.824 118.923C290.436 118.136 291.309 117.593 292.286 117.393C293.262 117.192 294.279 117.347 295.151 117.83C296.023 118.312 296.695 119.09 297.044 120.024C297.242 120.555 297.329 121.12 297.302 121.686V124.431C297.3 124.622 297.224 124.805 297.089 124.94C296.953 125.076 296.771 125.152 296.58 125.154V125.154Z" fill="#C6BECF"/>
<path d="M299.518 132.92H286.722C286.532 132.918 286.349 132.841 286.214 132.706C286.079 132.571 286.002 132.389 286 132.198V124.431C286 124.336 286.018 124.242 286.054 124.154C286.091 124.067 286.144 123.987 286.211 123.92C286.278 123.853 286.358 123.799 286.446 123.763C286.533 123.727 286.628 123.708 286.722 123.709H299.518C299.71 123.709 299.893 123.785 300.029 123.921C300.164 124.056 300.24 124.24 300.241 124.431V132.198C300.239 132.389 300.162 132.571 300.027 132.706C299.892 132.841 299.709 132.918 299.518 132.92V132.92ZM287.445 131.475H298.824V125.154H287.445V131.475Z" fill="#C6BECF"/>
<path d="M293.12 129.972C292.929 129.969 292.747 129.893 292.612 129.758C292.477 129.623 292.4 129.44 292.398 129.249V127.187C292.398 126.995 292.474 126.812 292.61 126.677C292.676 126.609 292.756 126.556 292.844 126.519C292.931 126.483 293.025 126.464 293.12 126.464C293.215 126.464 293.309 126.483 293.397 126.519C293.485 126.556 293.564 126.609 293.631 126.677C293.767 126.812 293.843 126.995 293.843 127.187V129.249C293.843 129.344 293.825 129.438 293.788 129.526C293.752 129.614 293.699 129.693 293.632 129.761C293.565 129.828 293.485 129.881 293.397 129.917C293.309 129.953 293.215 129.972 293.12 129.972V129.972Z" fill="#C6BECF"/>
<path d="M190.579 69.0935C190.484 69.0938 190.39 69.0753 190.302 69.039C190.215 69.0028 190.135 68.9496 190.068 68.8825C190 68.8153 189.947 68.7356 189.911 68.6478C189.875 68.56 189.856 68.466 189.857 68.371V65.6247C189.891 65.0635 189.751 64.5054 189.456 64.0264C189.162 63.5475 188.727 63.171 188.21 62.9481C187.694 62.7253 187.122 62.667 186.571 62.7812C186.021 62.8954 185.519 63.1765 185.134 63.5863C184.878 63.8577 184.68 64.1785 184.553 64.529C184.426 64.8796 184.371 65.2525 184.394 65.6247V68.371C184.394 68.5627 184.317 68.7466 184.182 68.8821C184.046 69.0177 183.862 69.0938 183.671 69.0938C183.479 69.0938 183.295 69.0177 183.16 68.8821C183.024 68.7466 182.948 68.5627 182.948 68.371V65.6247C182.922 65.0598 183.01 64.4954 183.208 63.9657C183.406 63.4359 183.709 62.9519 184.1 62.5427C184.49 62.1336 184.96 61.808 185.48 61.5855C186 61.363 186.559 61.2482 187.125 61.2482C187.69 61.2482 188.25 61.363 188.77 61.5855C189.29 61.808 189.759 62.1336 190.15 62.5427C190.54 62.9519 190.843 63.4359 191.041 63.9657C191.239 64.4954 191.328 65.0598 191.302 65.6247V68.371C191.3 68.562 191.223 68.7446 191.088 68.8796C190.953 69.0147 190.77 69.0915 190.579 69.0935V69.0935Z" fill="#C6BECF"/>
<path d="M193.518 76.86H180.722C180.532 76.8576 180.349 76.7807 180.214 76.6458C180.079 76.5108 180.002 76.3284 180 76.1375V68.371C180 68.2761 180.018 68.182 180.054 68.0942C180.091 68.0064 180.144 67.9267 180.211 67.8596C180.278 67.7924 180.358 67.7392 180.446 67.703C180.533 67.6668 180.628 67.6483 180.722 67.6486H193.518C193.71 67.6489 193.893 67.7252 194.029 67.8606C194.164 67.996 194.24 68.1795 194.241 68.371V76.1375C194.239 76.3285 194.162 76.5111 194.027 76.6461C193.892 76.7812 193.709 76.858 193.518 76.86V76.86ZM181.445 75.415H192.824V69.0942H181.445V75.415Z" fill="#C6BECF"/>
<path d="M187.12 73.9112C186.929 73.909 186.747 73.8322 186.612 73.6971C186.477 73.5621 186.4 73.3796 186.398 73.1887V71.1271C186.398 70.9351 186.474 70.7515 186.61 70.6162C186.677 70.5489 186.756 70.4954 186.844 70.459C186.931 70.4225 187.025 70.4037 187.12 70.4037C187.215 70.4037 187.309 70.4225 187.397 70.459C187.485 70.4954 187.564 70.5489 187.631 70.6162C187.767 70.7515 187.843 70.9351 187.843 71.1271V73.1887C187.843 73.2836 187.825 73.3777 187.788 73.4655C187.752 73.5533 187.699 73.633 187.632 73.7002C187.565 73.7673 187.485 73.8205 187.397 73.8567C187.309 73.8929 187.215 73.9114 187.12 73.9112V73.9112Z" fill="#C6BECF"/>
<path d="M296.579 69.0935C296.484 69.0938 296.39 69.0753 296.302 69.039C296.215 69.0028 296.135 68.9496 296.068 68.8825C296 68.8153 295.947 68.7356 295.911 68.6478C295.875 68.56 295.856 68.466 295.857 68.371V65.6247C295.891 65.0635 295.751 64.5054 295.456 64.0264C295.162 63.5475 294.727 63.171 294.21 62.9481C293.694 62.7253 293.122 62.667 292.571 62.7812C292.021 62.8954 291.519 63.1765 291.134 63.5863C290.878 63.8577 290.68 64.1785 290.553 64.529C290.426 64.8796 290.371 65.2525 290.394 65.6247V68.371C290.394 68.5627 290.317 68.7466 290.182 68.8821C290.046 69.0177 289.862 69.0938 289.671 69.0938C289.479 69.0938 289.295 69.0177 289.16 68.8821C289.024 68.7466 288.948 68.5627 288.948 68.371V65.6247C288.922 65.0598 289.01 64.4954 289.208 63.9657C289.406 63.4359 289.709 62.9519 290.1 62.5427C290.49 62.1336 290.96 61.808 291.48 61.5855C292 61.363 292.559 61.2482 293.125 61.2482C293.69 61.2482 294.25 61.363 294.77 61.5855C295.29 61.808 295.759 62.1336 296.15 62.5427C296.54 62.9519 296.843 63.4359 297.041 63.9657C297.239 64.4954 297.328 65.0598 297.302 65.6247V68.371C297.3 68.562 297.223 68.7446 297.088 68.8796C296.953 69.0147 296.77 69.0915 296.579 69.0935V69.0935Z" fill="#C6BECF"/>
<path d="M299.518 76.86H286.722C286.532 76.8576 286.349 76.7807 286.214 76.6458C286.079 76.5108 286.002 76.3284 286 76.1375V68.371C286 68.2761 286.018 68.182 286.054 68.0942C286.091 68.0064 286.144 67.9267 286.211 67.8596C286.278 67.7924 286.358 67.7392 286.446 67.703C286.533 67.6668 286.628 67.6483 286.722 67.6486H299.518C299.71 67.6489 299.893 67.7252 300.029 67.8606C300.164 67.996 300.24 68.1795 300.241 68.371V76.1375C300.239 76.3285 300.162 76.5111 300.027 76.6461C299.892 76.7812 299.709 76.858 299.518 76.86V76.86ZM287.445 75.415H298.824V69.0942H287.445V75.415Z" fill="#C6BECF"/>
<path d="M293.12 73.9112C292.929 73.909 292.747 73.8322 292.612 73.6971C292.477 73.5621 292.4 73.3796 292.398 73.1887V71.1271C292.398 70.9351 292.474 70.7515 292.61 70.6162C292.677 70.5489 292.756 70.4954 292.844 70.459C292.931 70.4225 293.025 70.4037 293.12 70.4037C293.215 70.4037 293.309 70.4225 293.397 70.459C293.485 70.4954 293.564 70.5489 293.631 70.6162C293.767 70.7515 293.843 70.9351 293.843 71.1271V73.1887C293.843 73.2836 293.825 73.3777 293.788 73.4655C293.752 73.5533 293.699 73.633 293.632 73.7002C293.565 73.7673 293.485 73.8205 293.397 73.8567C293.309 73.8929 293.215 73.9114 293.12 73.9112V73.9112Z" fill="#C6BECF"/>
<path d="M347.379 144.84H338.051C337.936 144.84 337.825 144.886 337.743 144.968C337.661 145.05 337.616 145.161 337.616 145.276V149.834C337.616 150.074 337.811 150.27 338.051 150.27H341.69V155.933C341.69 155.933 340.873 156.211 338.614 156.211C335.949 156.211 332.227 155.238 332.227 147.056C332.227 138.873 336.103 137.797 339.742 137.797C342.893 137.797 344.25 138.351 345.113 138.618C345.385 138.701 345.636 138.431 345.636 138.191L346.676 133.787C346.676 133.674 346.638 133.539 346.51 133.447C346.159 133.197 344.02 132 338.614 132C332.388 132 326 134.648 326 147.375C326 160.103 333.313 162 339.476 162C344.578 162 347.673 159.821 347.673 159.821C347.801 159.751 347.815 159.572 347.815 159.491V145.276C347.815 145.219 347.804 145.162 347.782 145.109C347.76 145.057 347.728 145.009 347.687 144.968C347.647 144.928 347.599 144.895 347.546 144.874C347.493 144.852 347.436 144.84 347.379 144.84V144.84ZM395.449 133.525C395.45 133.468 395.439 133.411 395.418 133.358C395.396 133.305 395.364 133.257 395.324 133.216C395.284 133.175 395.236 133.143 395.183 133.121C395.13 133.099 395.074 133.087 395.016 133.087H389.764C389.707 133.087 389.65 133.099 389.598 133.121C389.545 133.143 389.497 133.175 389.456 133.216C389.416 133.257 389.384 133.305 389.362 133.358C389.341 133.411 389.329 133.468 389.33 133.525L389.331 143.669H381.145V133.525C381.145 133.282 380.951 133.087 380.711 133.087H375.459C375.344 133.088 375.233 133.134 375.152 133.216C375.07 133.298 375.025 133.409 375.026 133.525V160.991C375.026 161.233 375.22 161.43 375.459 161.43H380.711C380.951 161.43 381.145 161.233 381.145 160.991V149.243H389.331L389.317 160.991C389.317 161.233 389.511 161.43 389.752 161.43H395.016C395.256 161.43 395.449 161.233 395.449 160.991L395.449 133.525ZM357.29 137.129C357.29 135.239 355.774 133.712 353.903 133.712C352.034 133.712 350.517 135.239 350.517 137.129C350.517 139.017 352.034 140.549 353.903 140.549C355.774 140.549 357.29 139.017 357.29 137.129ZM356.914 155.197V142.519C356.914 142.278 356.72 142.081 356.48 142.081H351.244C351.004 142.081 350.789 142.329 350.789 142.569V160.734C350.789 161.267 351.122 161.426 351.553 161.426H356.27C356.787 161.426 356.914 161.172 356.914 160.725V155.197ZM415.409 142.123H410.198C409.958 142.123 409.764 142.319 409.764 142.562V156.029C409.764 156.029 408.44 156.997 406.561 156.997C404.682 156.997 404.183 156.145 404.183 154.306V142.562C404.183 142.319 403.989 142.122 403.749 142.122H398.46C398.221 142.122 398.026 142.319 398.026 142.562V155.195C398.026 160.657 401.072 161.994 405.262 161.994C408.7 161.994 411.472 160.095 411.472 160.095C411.472 160.095 411.603 161.096 411.664 161.214C411.723 161.332 411.878 161.452 412.047 161.452L415.412 161.437C415.65 161.437 415.846 161.24 415.846 160.999L415.844 142.562C415.844 142.319 415.649 142.122 415.409 142.122V142.123ZM427.598 156.981C425.79 156.925 424.564 156.106 424.564 156.106V147.408C424.564 147.408 425.774 146.667 427.258 146.534C429.135 146.367 430.943 146.933 430.943 151.407C430.943 156.125 430.127 157.057 427.598 156.981V156.981ZM429.654 141.506C426.694 141.506 424.68 142.826 424.68 142.826V133.525C424.68 133.282 424.486 133.087 424.247 133.087H418.98C418.923 133.087 418.866 133.099 418.813 133.121C418.76 133.143 418.713 133.175 418.672 133.216C418.632 133.257 418.6 133.305 418.579 133.358C418.557 133.411 418.546 133.468 418.546 133.525V160.991C418.546 161.233 418.741 161.43 418.981 161.43H422.635C422.799 161.43 422.924 161.345 423.016 161.197C423.107 161.049 423.238 159.931 423.238 159.931C423.238 159.931 425.392 161.97 429.469 161.97C434.255 161.97 437 159.544 437 151.078C437 142.612 432.616 141.506 429.654 141.506V141.506ZM372.009 142.079H368.069L368.063 136.877C368.063 136.68 367.962 136.582 367.734 136.582H362.365C362.157 136.582 362.044 136.674 362.044 136.874V142.25C362.044 142.25 359.354 142.898 359.172 142.951C359.082 142.977 359.002 143.032 358.945 143.108C358.888 143.183 358.857 143.275 358.857 143.37V146.747C358.857 146.99 359.052 147.186 359.292 147.186H362.045V155.312C362.045 161.347 366.281 161.94 369.139 161.94C370.445 161.94 372.008 161.521 372.266 161.426C372.422 161.369 372.513 161.207 372.513 161.032L372.517 157.317C372.517 157.074 372.312 156.878 372.081 156.878C371.852 156.878 371.264 156.971 370.66 156.971C368.725 156.971 368.069 156.072 368.069 154.909V147.186H372.009C372.066 147.186 372.123 147.174 372.176 147.152C372.229 147.13 372.277 147.097 372.317 147.057C372.357 147.016 372.389 146.968 372.411 146.914C372.433 146.861 372.444 146.805 372.443 146.747V142.517C372.443 142.274 372.249 142.079 372.009 142.079" fill="#0F0E0F"/>
<path d="M338.278 50.6024V54.9884H348.762C348.441 57.4489 347.621 59.2497 346.373 60.5156C344.84 62.0489 342.45 63.7249 338.278 63.7249C331.824 63.7249 326.778 58.5187 326.778 52.0644C326.778 45.6101 331.824 40.4039 338.278 40.4039C341.755 40.4039 344.305 41.7768 346.177 43.5419L349.261 40.4574C346.658 37.9256 343.164 36 338.278 36C329.435 36 322 43.2031 322 52.0466C322 60.89 329.435 68.0931 338.278 68.0931C343.057 68.0931 346.658 66.5241 349.475 63.6001C352.364 60.7117 353.273 56.6287 353.273 53.3481C353.273 52.3318 353.202 51.3869 353.041 50.6024H338.278V50.6024Z" fill="#4285F4"/>
<path d="M366.378 47.0363C360.655 47.0363 355.983 51.3867 355.983 57.3953C355.983 63.3503 360.655 67.7542 366.378 67.7542C372.101 67.7542 376.773 63.3681 376.773 57.3953C376.773 51.3867 372.101 47.0363 366.378 47.0363ZM366.378 63.6712C363.24 63.6712 360.53 61.086 360.53 57.3953C360.53 53.6689 363.24 51.1193 366.378 51.1193C369.516 51.1193 372.226 53.6689 372.226 57.3953C372.226 61.086 369.516 63.6712 366.378 63.6712Z" fill="#EA4335"/>
<path d="M417.335 49.3542H417.174C416.158 48.1417 414.197 47.0363 411.719 47.0363C406.548 47.0363 402.037 51.5472 402.037 57.3953C402.037 63.2077 406.548 67.7542 411.719 67.7542C414.197 67.7542 416.158 66.6488 417.174 65.4007H417.335V66.8449C417.335 70.8031 415.213 72.9248 411.808 72.9248C409.026 72.9248 407.297 70.9279 406.584 69.2341L402.625 70.8744C403.767 73.6201 406.78 76.9899 411.808 76.9899C417.139 76.9899 421.65 73.8519 421.65 66.203V47.5712H417.335V49.3542ZM412.111 63.6713C408.973 63.6713 406.584 60.9968 406.584 57.3953C406.584 53.7402 408.973 51.1193 412.111 51.1193C415.213 51.1193 417.638 53.7937 417.638 57.4309C417.656 61.0503 415.213 63.6713 412.111 63.6713Z" fill="#4285F4"/>
<path d="M389.556 47.0363C383.833 47.0363 379.162 51.3867 379.162 57.3953C379.162 63.3503 383.833 67.7542 389.556 67.7542C395.28 67.7542 399.951 63.3681 399.951 57.3953C399.951 51.3867 395.28 47.0363 389.556 47.0363ZM389.556 63.6712C386.418 63.6712 383.708 61.086 383.708 57.3953C383.708 53.6689 386.418 51.1193 389.556 51.1193C392.694 51.1193 395.404 53.6689 395.404 57.3953C395.404 61.086 392.694 63.6712 389.556 63.6712Z" fill="#FBBC05"/>
<path d="M425.215 36.4279H429.691V67.7544H425.215V36.4279Z" fill="#34A853"/>
<path d="M443.509 63.6712C441.191 63.6712 439.55 62.6193 438.481 60.5333L452.334 54.81L451.871 53.6332C451.015 51.3154 448.376 47.0363 443.009 47.0363C437.678 47.0363 433.239 51.2263 433.239 57.3953C433.239 63.2077 437.625 67.7542 443.509 67.7542C448.251 67.7542 450.997 64.848 452.138 63.172L448.608 60.8185C447.431 62.5302 445.826 63.6712 443.509 63.6712V63.6712ZM443.188 50.9231C445.024 50.9231 446.593 51.8681 447.11 53.2053L437.75 57.0743C437.75 52.7239 440.834 50.9231 443.188 50.9231V50.9231Z" fill="#EA4335"/>
</svg>
