<svg width="361" height="155" viewBox="0 0 361 155" fill="none" xmlns="http://www.w3.org/2000/svg">
<path d="M346.802 -3.83496L189.887 136.119L204.657 163.071H666.712C669.44 163.071 671.652 160.859 671.652 158.13V1.10573C671.652 -1.62289 669.44 -3.83496 666.712 -3.83496H346.802Z" fill="#F7B2B2" stroke="#F7B2B2" stroke-miterlimit="10"/>
<path d="M1 39.16L67.4233 160L185 92.16L166.676 1H72.0042L1 39.16Z" fill="#F7B2B2" stroke="#F7B2B2" stroke-miterlimit="10"/>
<path d="M349.863 87.0242C346.992 79.6393 344.695 73.6973 344.695 73.6973L305.39 81.6897L305.162 85.4326L341.205 79.288L355.021 124.064C355.021 124.064 360.559 121.429 371.378 116.933C371.218 112.926 366.04 110.41 360.292 113.493C358.873 110.07 355.651 101.872 352.502 93.8" fill="#DAC5F9"/>
<path d="M355.021 124.681C354.936 124.681 354.852 124.665 354.772 124.63C354.608 124.557 354.484 124.417 354.431 124.246L340.775 79.9874L305.265 86.0414C305.081 86.0752 304.89 86.0185 304.749 85.8919C304.609 85.7664 304.533 85.5831 304.545 85.3949L304.773 81.652C304.79 81.3721 304.993 81.1394 305.267 81.0838L344.573 73.092C344.866 73.0353 345.162 73.1933 345.272 73.4744C345.272 73.4744 347.568 79.4162 350.438 86.8002C350.563 87.1186 350.405 87.4769 350.087 87.6C349.771 87.7266 349.412 87.5663 349.288 87.2489C346.9 81.1093 344.911 75.9671 344.307 74.4062L305.977 82.1997L305.825 84.693L341.102 78.6793C341.416 78.6251 341.705 78.8102 341.796 79.1057L355.402 123.204C357.133 122.401 362.32 120.035 370.721 116.537C370.538 115.296 369.77 114.215 368.568 113.528C366.434 112.306 363.45 112.5 360.584 114.037C360.431 114.12 360.25 114.133 360.084 114.074C359.92 114.016 359.788 113.891 359.721 113.729C358.519 110.829 355.896 104.2 351.927 94.0242C351.803 93.707 351.959 93.3487 352.278 93.2244C352.594 93.1002 352.953 93.2582 353.078 93.5755C356.786 103.078 359.315 109.483 360.609 112.641C363.669 111.192 366.835 111.115 369.181 112.455C370.896 113.435 371.921 115.058 371.995 116.909C372.004 117.167 371.853 117.404 371.614 117.503C360.939 121.94 355.342 124.596 355.286 124.621C355.202 124.661 355.111 124.681 355.021 124.681Z" fill="#3F2B56"/>
<path d="M275.79 26.1402L268.725 26.6841L269.115 31.7498L276.18 31.206L275.79 26.1402Z" fill="#DAC5F9"/>
<path d="M269.115 32.3674C268.968 32.3674 268.825 32.3149 268.713 32.2184C268.589 32.1123 268.512 31.9603 268.5 31.7975L268.11 26.7319C268.084 26.3918 268.338 26.0945 268.678 26.0685L275.743 25.5246C276.053 25.5047 276.38 25.752 276.405 26.0927L276.796 31.1583C276.809 31.3217 276.756 31.4834 276.65 31.6077C276.543 31.7325 276.392 31.8091 276.228 31.8217L269.162 32.3657C269.146 32.3669 269.131 32.3674 269.115 32.3674ZM269.389 27.2524L269.683 31.0864L275.518 30.6377L275.222 26.8037L269.389 27.2524Z" fill="#3F2B56"/>
<path d="M239.866 56.075L242.927 49.6843L238.345 47.4891L235.284 53.8798L239.866 56.075Z" fill="#DAC5F9"/>
<path d="M239.865 56.6922C239.776 56.6922 239.685 56.673 239.599 56.632L235.017 54.4372C234.869 54.366 234.755 54.2393 234.701 54.0849C234.646 53.9305 234.655 53.761 234.726 53.6133L237.788 47.2222C237.935 46.9146 238.304 46.7837 238.612 46.932L243.194 49.1268C243.343 49.1979 243.456 49.3247 243.51 49.4791C243.565 49.6335 243.555 49.8036 243.485 49.9507L240.422 56.3412C240.316 56.5632 240.095 56.6922 239.865 56.6922ZM236.107 53.5898L239.576 55.2508L242.104 49.9741L238.635 48.3126L236.107 53.5898Z" fill="#3F2B56"/>
<path d="M278.014 115.978L268.118 136.806L223.488 123.042C223.488 123.042 222.022 128.418 219.617 139.885C223.013 142.017 228.408 139.707 229.112 133.223C237.298 134.946 270.758 142.844 270.758 142.844L286.376 105.9L283.418 103.597" fill="#DAC5F9"/>
<path d="M270.759 143.462C270.712 143.462 270.665 143.457 270.616 143.445C270.291 143.368 238.703 135.915 229.634 133.966C229.127 137.063 227.51 139.467 225.133 140.618C223.185 141.561 221.001 141.483 219.289 140.408C219.07 140.271 218.96 140.011 219.013 139.758C221.394 128.405 222.878 122.934 222.892 122.879C222.936 122.718 223.044 122.581 223.191 122.501C223.336 122.42 223.51 122.403 223.67 122.452L267.79 136.057L277.456 115.713C277.602 115.406 277.971 115.275 278.278 115.421C278.586 115.567 278.718 115.935 278.57 116.244L268.676 137.07C268.545 137.347 268.23 137.489 267.936 137.395L223.921 123.822C223.483 125.51 222.186 130.679 220.315 139.568C221.603 140.213 223.17 140.196 224.595 139.506C226.75 138.462 228.173 136.148 228.498 133.156C228.517 132.983 228.609 132.824 228.75 132.723C228.891 132.621 229.067 132.583 229.24 132.618C236.787 134.208 266.156 141.124 270.394 142.123L285.623 106.097L283.038 104.084C282.769 103.874 282.721 103.487 282.931 103.216C283.141 102.947 283.527 102.899 283.798 103.109L286.757 105.413C286.977 105.584 287.055 105.883 286.946 106.14L271.328 143.085C271.229 143.317 271.002 143.462 270.759 143.462Z" fill="#3F2B56"/>
<path d="M291.925 33.8827C306.719 39.8707 317.121 54.3496 317.052 71.2171C316.96 93.3681 298.843 111.25 276.586 111.158C254.329 111.066 236.361 93.0344 236.452 70.8835C236.544 48.7325 254.661 30.8503 276.918 30.9425C279.246 30.9521 281.528 31.158 283.746 31.5445" fill="#DAC5F9"/>
<path d="M276.756 111.776H276.584C254.021 111.682 235.742 93.3367 235.835 70.8811C235.88 60.0022 240.178 49.7921 247.94 42.132C255.657 34.514 265.882 30.3242 276.745 30.3242C276.803 30.3242 276.861 30.3248 276.92 30.3248C279.245 30.3345 281.578 30.5401 283.852 30.9358C284.188 30.9943 284.413 31.314 284.354 31.6504C284.295 31.9864 283.968 32.2077 283.64 32.1528C281.434 31.7686 279.171 31.5695 276.916 31.5599C266.356 31.5412 256.334 35.5826 248.807 43.0112C241.282 50.4385 237.113 60.3379 237.07 70.8858C236.98 92.6599 254.708 110.449 276.589 110.541H276.756C298.561 110.543 316.343 92.9349 316.434 71.2145C316.501 54.995 306.79 40.5661 291.694 34.4549C291.378 34.327 291.225 33.967 291.353 33.6509C291.482 33.3343 291.84 33.181 292.157 33.3101C307.725 39.6115 317.739 54.492 317.669 71.2193C317.576 93.6176 299.238 111.776 276.756 111.776Z" fill="#3F2B56"/>
<path d="M316.38 71.4304C316.29 93.2098 298.476 110.792 276.593 110.702C254.709 110.611 237.042 92.8817 237.132 71.1023C247.308 71.3567 298.107 71.1496 316.38 71.4304Z" fill="#B39ED3"/>
<path d="M243.057 71.4066C243.061 52.8843 258.151 37.8725 276.762 37.8767C295.373 37.8809 310.457 52.8997 310.452 71.422C301.798 71.2394 258.597 71.5845 243.057 71.4066Z" fill="#B39ED3"/>
<path d="M306.121 71.7462C306.504 55.6031 293.665 42.205 277.445 41.8207C261.225 41.4363 247.765 54.2112 247.383 70.3542C247 86.4972 259.839 99.8953 276.06 100.28C292.28 100.664 305.739 87.8892 306.121 71.7462Z" fill="#F6F6F8"/>
<path d="M276.778 100.906C276.533 100.906 276.289 100.903 276.044 100.897C259.51 100.505 246.375 86.7966 246.765 70.34C247.155 53.8818 260.894 40.8189 277.459 41.2031C285.469 41.3931 292.926 44.6758 298.455 50.4464C303.985 56.2182 306.927 63.7878 306.739 71.7604C306.55 79.7335 303.253 87.156 297.455 92.6587C291.834 97.9927 284.517 100.906 276.778 100.906ZM276.736 42.4299C261.191 42.4299 248.368 54.8226 248 70.3689C247.626 86.1452 260.22 99.2857 276.073 99.662C283.768 99.8622 291.046 97.0385 296.605 91.7625C302.163 86.4877 305.323 79.3733 305.504 71.7313C305.685 64.0893 302.865 56.8339 297.564 51.301C292.261 45.7674 285.111 42.6198 277.431 42.4383C277.199 42.4328 276.966 42.4299 276.736 42.4299Z" fill="#3F2B56"/>
<path d="M305.438 71.1852C305.373 86.9581 292.472 99.6912 276.624 99.6256C260.776 99.56 247.981 86.7204 248.046 70.9475C255.416 71.1318 292.205 70.9817 305.438 71.1852Z" fill="#E7E1EC"/>
<path d="M253.614 32.1413L248.839 35.4114L251.709 39.6035L256.485 36.3334L253.614 32.1413Z" fill="#DAC5F9"/>
<path d="M251.709 40.2212C251.512 40.2212 251.319 40.1271 251.2 39.9528L248.329 35.7611C248.236 35.626 248.201 35.4596 248.231 35.2985C248.261 35.1375 248.354 34.9952 248.489 34.9023L253.266 31.6317C253.401 31.5388 253.565 31.5051 253.728 31.534C253.89 31.5641 254.032 31.657 254.124 31.7927L256.993 35.9849C257.186 36.2659 257.115 36.6502 256.833 36.8431L252.057 40.1132C251.951 40.1862 251.829 40.2212 251.709 40.2212ZM249.697 35.5724L251.869 38.7453L255.625 36.173L253.454 33.0001L249.697 35.5724Z" fill="#3F2B56"/>
<path d="M254.816 24.7315L241.45 33.8838L244.527 38.3777L257.893 29.2254L254.816 24.7315Z" fill="#DAC5F9"/>
<path d="M244.527 38.9953C244.331 38.9953 244.138 38.9012 244.018 38.7269L240.94 34.2331C240.748 33.9515 240.82 33.5672 241.101 33.3743L254.466 24.2214C254.746 24.0302 255.131 24.1007 255.324 24.3819L258.402 28.8763C258.495 29.0114 258.53 29.1778 258.5 29.3389C258.47 29.4999 258.377 29.6422 258.242 29.7351L244.876 38.8873C244.77 38.9603 244.648 38.9953 244.527 38.9953ZM242.309 34.0444L244.688 37.5195L257.035 29.0651L254.655 25.5894L242.309 34.0444Z" fill="#3F2B56"/>
<path d="M265.307 55.0429C265.11 55.0429 264.917 54.9488 264.798 54.7745L262.047 50.7578C261.854 50.4761 261.926 50.0919 262.208 49.899C262.488 49.7084 262.874 49.7789 263.065 50.0594L265.816 54.0762C266.009 54.3578 265.937 54.7421 265.655 54.935C265.549 55.008 265.427 55.0429 265.307 55.0429Z" fill="#3F2B56"/>
<path d="M290.444 91.754C290.247 91.754 290.055 91.6599 289.935 91.485L287.185 87.4682C286.992 87.1872 287.063 86.8023 287.345 86.6107C287.625 86.4177 288.011 86.4889 288.203 86.7711L290.953 90.7879C291.146 91.0689 291.075 91.4538 290.793 91.6455C290.687 91.7191 290.565 91.754 290.444 91.754Z" fill="#3F2B56"/>
<path d="M292.847 60.1963C292.651 60.1963 292.458 60.1022 292.338 59.9279C292.145 59.6463 292.216 59.262 292.499 59.0691L296.515 56.3188C296.795 56.1276 297.181 56.1981 297.373 56.4793C297.566 56.7609 297.495 57.1452 297.213 57.3381L293.196 60.0883C293.09 60.1613 292.968 60.1963 292.847 60.1963Z" fill="#3F2B56"/>
<path d="M256.137 85.3344C255.94 85.3344 255.747 85.2403 255.628 85.0654C255.435 84.7844 255.506 84.3995 255.788 84.2078L259.804 81.4576C260.084 81.2658 260.47 81.3358 260.662 81.618C260.854 81.899 260.783 82.2839 260.501 82.4756L256.486 85.2258C256.379 85.2994 256.258 85.3344 256.137 85.3344Z" fill="#3F2B56"/>
<path d="M300.76 75.9295C300.721 75.9295 300.684 75.9259 300.645 75.9193L295.861 75.0237C295.526 74.9603 295.305 74.6377 295.368 74.3029C295.431 73.9659 295.759 73.7529 296.088 73.809L300.872 74.7046C301.207 74.768 301.428 75.0906 301.365 75.4253C301.31 75.7226 301.05 75.9295 300.76 75.9295Z" fill="#3F2B56"/>
<path d="M257.027 67.7459C256.989 67.7459 256.951 67.7423 256.913 67.7356L252.128 66.8406C251.792 66.7779 251.571 66.4552 251.634 66.1199C251.697 65.7828 252.024 65.5668 252.354 65.626L257.139 66.521C257.475 66.5837 257.695 66.9063 257.633 67.2417C257.577 67.539 257.318 67.7459 257.027 67.7459Z" fill="#3F2B56"/>
<path d="M271.962 95.6485C271.924 95.6485 271.886 95.645 271.848 95.6377C271.512 95.5749 271.292 95.2529 271.354 94.9176L272.249 90.1337C272.312 89.7972 272.64 89.5801 272.97 89.6404C273.305 89.7032 273.526 90.0252 273.463 90.3605L272.568 95.1443C272.512 95.441 272.253 95.6485 271.962 95.6485Z" fill="#3F2B56"/>
<path d="M280.145 51.9153C280.107 51.9153 280.07 51.9117 280.031 51.905C279.696 51.8423 279.475 51.5196 279.538 51.1843L280.433 46.3999C280.495 46.0628 280.821 45.8498 281.153 45.9059C281.488 45.9687 281.709 46.2913 281.646 46.6266L280.751 51.4111C280.695 51.7084 280.436 51.9153 280.145 51.9153Z" fill="#3F2B56"/>
<path d="M255.901 27.3605L243.534 35.8289L244.777 37.6443L257.144 29.176L255.901 27.3605Z" fill="#B39ED3"/>
<path d="M247.106 36.8493C246.938 36.8493 246.772 36.7692 246.669 36.619L243.803 32.4334C243.638 32.1928 243.7 31.8635 243.941 31.6982C244.181 31.5348 244.511 31.5932 244.677 31.8363L247.543 36.0219C247.708 36.2625 247.646 36.5918 247.405 36.7571C247.314 36.8192 247.21 36.8493 247.106 36.8493Z" fill="#3F2B56"/>
<path d="M251.075 34.1317C250.907 34.1317 250.74 34.0515 250.638 33.9013L247.772 29.7163C247.607 29.4757 247.668 29.1464 247.909 28.9811C248.149 28.8194 248.48 28.8761 248.645 29.1192L251.511 33.3042C251.676 33.5448 251.615 33.8741 251.374 34.0394C251.282 34.1015 251.178 34.1317 251.075 34.1317Z" fill="#3F2B56"/>
<path d="M255.231 31.2856C255.063 31.2856 254.897 31.2054 254.794 31.0552L251.928 26.8702C251.763 26.6296 251.825 26.3003 252.066 26.135C252.306 25.9729 252.636 26.0296 252.802 26.2731L255.668 30.4581C255.833 30.6987 255.771 31.028 255.53 31.1933C255.439 31.2554 255.335 31.2856 255.231 31.2856Z" fill="#3F2B56"/>
<path d="M253.459 32.9729L249.701 35.5464L250.871 37.2553L254.63 34.6818L253.459 32.9729Z" fill="#B39ED3"/>
<mask id="mask0_51_5411" style="mask-type:luminance" maskUnits="userSpaceOnUse" x="247" y="12" width="87" height="52">
<path d="M276.376 12.7717L247.892 41.8731L256.616 36.1094L261.737 37.69L298.974 41.1555L303.885 40.9244L307.143 44.5864L333.235 63.2179L276.376 12.7717Z" fill="white"/>
</mask>
<g mask="url(#mask0_51_5411)">
<path d="M303.263 41.3979C286.922 26.8996 261.921 28.3936 247.423 44.7349C232.924 61.0762 234.418 86.0766 250.759 100.575C267.101 115.073 292.101 113.579 306.6 97.2379C321.098 80.8967 319.604 55.8964 303.263 41.3979ZM252.584 98.5178C237.379 85.0275 235.989 61.7652 249.48 46.56C262.97 31.3549 286.233 29.9647 301.438 43.4551C316.643 56.9455 318.033 80.2079 304.543 95.413C291.052 110.618 267.79 112.008 252.584 98.5178Z" fill="white"/>
</g>
<path d="M267.399 85.7312C268.194 86.2397 269.273 85.9513 269.772 85.0971L290.369 49.8716C290.565 49.5362 290.14 49.2659 289.919 49.5853L266.968 83.3294C266.417 84.1404 266.612 85.2272 267.399 85.7312Z" fill="#F58452"/>
<path d="M276.789 72.9816C277.801 72.9816 278.622 72.1613 278.622 71.1494C278.622 70.1375 277.801 69.3171 276.789 69.3171C275.777 69.3171 274.957 70.1375 274.957 71.1494C274.957 72.1613 275.777 72.9816 276.789 72.9816Z" fill="white"/>
<path d="M276.789 73.6486C275.654 73.6486 274.625 72.8693 274.355 71.718C274.203 71.0678 274.314 70.3973 274.666 69.8303C275.019 69.2628 275.571 68.8671 276.221 68.7158C276.87 68.5633 277.54 68.6736 278.109 69.0265C278.675 69.3787 279.072 69.9305 279.224 70.5807C279.536 71.9238 278.698 73.2705 277.358 73.583C277.168 73.6276 276.977 73.6486 276.789 73.6486ZM276.792 69.9841C276.703 69.9841 276.614 69.9944 276.525 70.0149C276.221 70.0854 275.964 70.2699 275.8 70.5347C275.634 70.7989 275.584 71.1113 275.655 71.4141C275.801 72.0407 276.429 72.426 277.054 72.2837C277.68 72.1377 278.07 71.5099 277.924 70.8839C277.854 70.5812 277.669 70.3236 277.404 70.1596C277.218 70.0438 277.007 69.9841 276.792 69.9841Z" fill="#F58452"/>
<path d="M282.931 15.2883C279.285 12.2732 274.264 18.2085 281.57 20.2466C283.826 20.8758 283.9 23.877 283.9 23.877C283.9 23.877 286.906 18.5741 282.931 15.2883Z" fill="#F58452" stroke="#3F2B56" stroke-linecap="round" stroke-linejoin="round"/>
<path d="M225.746 96.335C225.838 101.18 233.288 101.507 230.659 93.5661C229.923 91.3431 232.881 88.7761 232.881 88.7761C232.881 88.7761 225.635 90.5285 225.746 96.335Z" fill="#F58452" stroke="#3F2B56" stroke-linecap="round" stroke-linejoin="round"/>
<path d="M224.162 20.7379C218.122 24.2812 222.981 33.9017 231.128 24.9705C233.409 22.47 238.737 24.3825 238.737 24.3825C238.737 24.3825 231.402 16.491 224.162 20.7379Z" fill="#F58452" stroke="#3F2B56" stroke-linecap="round" stroke-linejoin="round"/>
<path d="M330.577 67.7064C330.468 67.7068 330.357 67.6798 330.255 67.6255L323.016 63.6773C322.692 63.4999 322.574 63.0951 322.75 62.7714C322.928 62.4476 323.332 62.3289 323.656 62.505L328.687 65.2493L322.558 55.314C322.42 55.0905 322.427 54.8064 322.575 54.5896C322.721 54.3728 322.976 54.2677 323.243 54.3071L333.238 56.0892L325.858 47.9982C325.614 47.7281 325.629 47.3111 325.895 47.0614L334.317 39.1632L323.625 42.2395C323.356 42.3161 323.058 42.2154 322.896 41.9828C322.732 41.7502 322.733 41.4401 322.899 41.2089L331.43 29.3195L320.73 36.7398C320.522 36.8838 320.25 36.9005 320.028 36.7748C319.806 36.6532 319.672 36.4152 319.684 36.1625L320.567 15.7713L310.263 33.6721C310.127 33.9071 309.862 34.0305 309.592 34.0002C309.322 33.962 309.103 33.7635 309.037 33.4992L306.62 23.7019L304.558 33.4968C304.483 33.8593 304.124 34.0808 303.768 34.013C303.407 33.9361 303.176 33.5825 303.252 33.2226L305.916 20.5709C305.98 20.2658 306.246 20.0459 306.558 20.0409C306.842 20.0725 307.143 20.2459 307.217 20.548L309.935 31.5676L320.774 12.7372C320.928 12.4709 321.242 12.342 321.539 12.4296C321.834 12.5158 322.031 12.7914 322.018 13.099L321.075 34.8768L333.844 26.0211C334.109 25.839 334.473 25.869 334.699 26.1015C334.926 26.3326 334.955 26.6947 334.766 26.9586L325.103 40.426L336.606 37.1161C336.907 37.0304 337.219 37.1608 337.371 37.4287C337.523 37.6967 337.472 38.0342 337.247 38.2448L327.287 47.5856L335.547 56.6402C335.739 56.8519 335.776 57.1619 335.637 57.4126C335.5 57.662 335.223 57.7933 334.936 57.7473L324.476 55.8822L331.143 66.6897C331.301 66.9471 331.267 67.2795 331.058 67.4991C330.93 67.6338 330.754 67.7058 330.577 67.7064Z" fill="#3F2B56"/>
<path d="M104.209 88.6805L113.737 106.171L111.337 109.014C111.337 109.014 78.3695 105.46 65.4844 104.394C65.728 113.14 56.5193 110.737 56.5193 110.737C56.5193 110.737 59.9893 99.6603 61.3967 95.4184C67.1728 97.0179 107.25 103.327 107.25 103.327L99.9273 87.4251L98.4523 84.2217L101.651 83.8662" fill="#AD6CAA"/>
<path d="M59.1564 111.659C57.6413 111.659 56.4586 111.36 56.364 111.335C56.2 111.292 56.0613 111.185 55.9793 111.037C55.8979 110.89 55.8797 110.715 55.9303 110.553C55.9647 110.442 59.4175 99.422 60.8108 95.2243C60.9145 94.9119 61.2419 94.731 61.5616 94.8239C66.6923 96.2436 99.6258 101.493 106.206 102.536L97.8917 84.4793C97.8085 84.2996 97.8175 84.0897 97.9152 83.9172C98.0123 83.7447 98.1872 83.6289 98.3844 83.6071L101.583 83.2525C101.926 83.2211 102.228 83.46 102.265 83.799C102.303 84.1379 102.058 84.4431 101.719 84.4805L99.3716 84.741L107.81 103.068C107.905 103.275 107.879 103.517 107.742 103.699C107.605 103.88 107.378 103.972 107.153 103.937C105.562 103.686 69.1466 97.9467 61.8019 96.1603C60.5359 100.014 58.0445 107.939 57.3141 110.266C58.5499 110.47 61.3061 110.71 63.104 109.277C64.3367 108.294 64.9296 106.657 64.8668 104.41C64.862 104.235 64.9325 104.065 65.0597 103.944C65.187 103.823 65.3595 103.761 65.535 103.777C77.5949 104.775 107.605 107.991 111.077 108.365L112.992 106.095L103.667 88.9759C103.503 88.6768 103.614 88.3017 103.913 88.1376C104.214 87.9748 104.588 88.087 104.751 88.3849L114.278 105.875C114.4 106.098 114.373 106.375 114.209 106.569L111.809 109.412C111.677 109.569 111.482 109.651 111.271 109.628C110.947 109.593 79.2716 106.182 66.1021 105.065C66.037 107.377 65.2872 109.119 63.8694 110.245C62.4557 111.37 60.6454 111.659 59.1564 111.659Z" fill="#3F2B56"/>
<path d="M111.232 39.7027L138.547 61.0147L141.051 42.8103L135.736 39.231L136.061 31.2589L139.098 31.3674L139.284 20.5127L143.323 20.5457V23.9757L155.381 27.5665L154.886 35.6048L153.11 35.6033L143.106 68.5974L139.527 70.8344L112.249 44.1362L111.232 39.7027Z" fill="#AD6CAA"/>
<path d="M139.527 71.3476C139.387 71.3476 139.25 71.291 139.15 71.1828L111.872 44.4847C111.812 44.4191 111.769 44.3384 111.749 44.2512L110.732 39.8176C110.683 39.6037 110.776 39.3818 110.962 39.2666C111.15 39.1508 111.388 39.1674 111.558 39.3071L138.062 59.9498L140.53 43.0784L135.449 39.6562C135.301 39.557 135.216 39.3876 135.223 39.2099L135.549 31.2378C135.56 30.9559 135.811 30.7339 136.08 30.7465L138.594 30.8362L138.771 20.5042C138.776 20.2237 139.004 19.9998 139.284 19.9998H139.288L143.327 20.0329C143.609 20.0353 143.836 20.2643 143.836 20.5458V23.5939L155.527 27.0752C155.756 27.1434 155.907 27.3597 155.892 27.5982L155.398 35.6364C155.381 35.9069 155.157 36.1178 154.886 36.1178L153.543 36.1168L143.611 68.6832C143.587 68.8274 143.502 68.9547 143.377 69.0324L139.798 71.2695C139.714 71.3221 139.62 71.3476 139.527 71.3476ZM112.718 43.8885L139.615 70.1744L142.638 68.285L152.604 35.5177C152.646 35.2713 152.86 35.0905 153.11 35.0905L154.404 35.0915L154.844 27.9419L143.177 24.4675C142.96 24.4029 142.81 24.203 142.81 23.9761V21.0548L139.788 21.0298L139.611 31.3762C139.609 31.5139 139.551 31.6452 139.451 31.7398C139.352 31.835 139.233 31.8961 139.08 31.8801L136.553 31.79L136.26 38.9656L141.337 42.3854C141.483 42.4831 141.568 42.6488 141.563 42.8242L139.06 61.0285C139.054 61.2243 138.938 61.4006 138.759 61.4818C138.581 61.5624 138.371 61.5354 138.22 61.4106L112.069 41.0579L112.718 43.8885Z" fill="#3F2B56"/>
<path d="M143.715 38.5888C143.582 38.5888 143.449 38.5367 143.35 38.4365L141.199 36.2625L139.074 36.2134C138.791 36.2069 138.566 35.972 138.573 35.6885C138.58 35.4055 138.822 35.1931 139.098 35.1876L141.43 35.2417C141.563 35.2447 141.689 35.2993 141.782 35.394L143.8 37.4323L145.75 36.2937L143.144 32.035L136.263 31.8266C135.98 31.8176 135.757 31.5812 135.765 31.2982C135.774 31.0147 136.022 30.8163 136.294 30.8008L143.452 31.0177C143.625 31.0232 143.784 31.1154 143.874 31.2631L146.898 36.2052C146.97 36.3224 146.991 36.4642 146.958 36.5978C146.924 36.7315 146.838 36.8457 146.719 36.9154L143.973 38.5188C143.893 38.5658 143.803 38.5888 143.715 38.5888Z" fill="#3F2B56"/>
<path d="M151.512 35.804H151.498C151.214 35.7959 150.991 35.56 150.999 35.277L151.238 26.6548C151.246 26.3713 151.509 26.1494 151.765 26.1559C152.048 26.1639 152.271 26.3998 152.263 26.6828L152.025 35.3051C152.016 35.5836 151.789 35.804 151.512 35.804Z" fill="#3F2B56"/>
<path d="M147.408 35.7879H147.4C147.116 35.7829 146.891 35.5495 146.895 35.2664L147.062 25.3433C147.067 25.0598 147.301 24.8449 147.583 24.8389C147.867 24.8439 148.092 25.0773 148.088 25.3604L147.921 35.2835C147.916 35.564 147.688 35.7879 147.408 35.7879Z" fill="#3F2B56"/>
<path d="M143.291 31.4726H143.288C143.005 31.4711 142.776 31.2407 142.778 30.9572L142.81 23.7424C142.812 23.459 143.026 23.2309 143.326 23.2319C143.609 23.2334 143.838 23.4639 143.836 23.7474L143.804 30.9621C143.802 31.2446 143.573 31.4726 143.291 31.4726Z" fill="#3F2B56"/>
<path d="M154.755 36.1176C154.749 36.1176 154.742 36.1176 154.736 36.1171L147.437 35.8426C147.154 35.8321 146.933 35.5941 146.944 35.3111C146.954 35.0276 147.188 34.7952 147.475 34.8177L154.774 35.0921C155.057 35.1026 155.278 35.3406 155.267 35.6236C155.257 35.9007 155.029 36.1176 154.755 36.1176Z" fill="#3F2B56"/>
<path d="M69.9597 88.2209L101.255 148.773L115.533 140.689C115.533 140.689 115.397 134.169 104.619 137.515C100.513 131.178 82.9179 102.339 74.3267 88.2717" fill="#AD6CAA"/>
<path d="M101.255 149.391C101.196 149.391 101.137 149.383 101.079 149.366C100.918 149.317 100.783 149.207 100.706 149.057L69.4107 88.5047C69.2545 88.2019 69.3727 87.8292 69.676 87.6724C69.9782 87.5132 70.3509 87.635 70.5083 87.9377L101.509 147.92L114.872 140.354C114.772 139.828 114.452 138.817 113.418 138.08C111.721 136.875 108.741 136.881 104.802 138.106C104.536 138.19 104.251 138.084 104.101 137.851C100.254 131.914 84.794 106.598 75.5574 91.473L73.7994 88.5937C73.6216 88.303 73.7138 87.9219 74.0045 87.7446C74.2963 87.5672 74.6758 87.659 74.8536 87.9496L76.6117 90.8289C85.6553 105.638 100.666 130.219 104.885 136.79C109.061 135.565 112.179 135.664 114.158 137.091C116.083 138.478 116.149 140.587 116.15 140.676C116.155 140.904 116.035 141.115 115.837 141.227L101.559 149.311C101.465 149.364 101.361 149.391 101.255 149.391Z" fill="#3F2B56"/>
<path d="M48.3836 72.3796L56.4414 84.9862L85.5538 84.7787L85.4313 77.3014L92.541 85.0239L111.919 84.914L107.089 74.3382L117.997 85.0707L129.899 84.9006L99.6022 16.2493L100.653 11.9467L95.1752 11.0879L73.4087 29.307C73.4087 29.307 77.3901 34.2455 77.0451 43.1022C72.1094 38.7603 67.0035 34.1021 67.0035 34.1021L55.2588 43.2022C55.2588 43.2022 62.6622 54.7129 62.0774 64.972C58.0376 60.0817 49.2282 47.6228 49.2282 47.6228L37.7922 55.8086L45.1396 67.304" fill="#AD6CAA"/>
<path d="M117.997 85.6881C117.835 85.6881 117.68 85.6241 117.564 85.5107L109.041 77.1244L112.48 84.6566C112.568 84.8472 112.552 85.0692 112.439 85.2464C112.326 85.4225 112.132 85.5299 111.922 85.5311L92.5442 85.642H92.5406C92.3682 85.642 92.2035 85.5696 92.0864 85.443L86.0752 78.9132L86.1711 84.7688C86.1735 84.9328 86.1102 85.092 85.9955 85.2102C85.8803 85.3272 85.7229 85.3947 85.5577 85.396L56.4455 85.6035H56.4413C56.2309 85.6035 56.0342 85.4961 55.9208 85.3188L47.8627 72.7125C47.6794 72.4248 47.7632 72.043 48.0503 71.8591C48.3386 71.6758 48.7192 71.7596 48.9037 72.0467L56.7779 84.3658L84.9258 84.1656L84.8136 77.3119C84.8094 77.0556 84.9638 76.8234 85.2021 76.728C85.4385 76.6333 85.7117 76.6954 85.8854 76.883L92.8102 84.4056L110.96 84.3019L106.527 74.5942C106.403 74.3234 106.49 74.0031 106.735 73.8318C106.978 73.6623 107.31 73.6883 107.522 73.8975L118.246 84.449L128.957 84.2958L99.0367 16.4982C98.9819 16.374 98.9698 16.2346 99.0018 16.1026L99.8938 12.4525L95.3567 11.7415L74.2453 29.4115C75.2453 30.8914 77.9544 35.6241 77.662 43.1262C77.6529 43.3644 77.5076 43.5755 77.2887 43.6695C77.0698 43.763 76.8159 43.7226 76.6374 43.5658C72.5272 39.9502 68.2529 36.0734 66.9713 34.9081L56.0767 43.3493C57.4874 45.6713 63.2224 55.7336 62.6934 65.007C62.679 65.261 62.5107 65.4798 62.2694 65.5589C62.03 65.6385 61.7633 65.5618 61.6005 65.3653C58.0567 61.0748 50.7813 50.8768 49.0829 48.4861L38.6279 55.9695L45.6597 66.9714C45.843 67.2585 45.7592 67.6403 45.4715 67.8242C45.1857 68.0075 44.8033 67.9237 44.6188 67.6361L37.2717 56.1408C37.095 55.8646 37.1656 55.4973 37.4328 55.3061L48.8684 47.1206C49.0017 47.0248 49.1711 46.9861 49.3303 47.0139C49.4925 47.0417 49.6373 47.1321 49.732 47.2666C49.8128 47.3806 57.1968 57.8145 61.4848 63.2521C61.2405 53.7548 54.8077 43.6431 54.739 43.5364C54.566 43.2674 54.6269 42.9104 54.8802 42.7144L66.6252 33.614C66.8622 33.4307 67.1982 33.4439 67.4195 33.646C67.4672 33.6889 71.9 37.7321 76.4469 41.7512C76.3655 34.0808 72.9634 29.7396 72.9272 29.6938C72.7173 29.4321 72.7547 29.0491 73.0122 28.8338L94.7791 10.6144C94.9148 10.4991 95.0946 10.4485 95.2712 10.4775L100.749 11.3363C100.92 11.3635 101.071 11.4606 101.167 11.6041C101.263 11.7483 101.295 11.9256 101.253 12.0932L100.252 16.192L130.464 84.6506C130.548 84.8399 130.53 85.0595 130.419 85.2332C130.307 85.4081 130.115 85.5142 129.908 85.5179L118.006 85.688L117.997 85.6881Z" fill="#3F2B56"/>
<path d="M103.796 18.7621L100.858 11.9702L98.4252 12.0194L82.3416 37.3079C82.3416 37.3079 94.6441 52.0449 98.3999 57.2704C105.924 67.7383 105.912 79.4034 105.912 79.4034H98.2438C98.2438 79.4034 98.5098 69.3569 93.0121 60.4009C86.8067 50.2923 77.7603 44.7944 77.7603 44.7944L68.6892 59.1529C68.6892 59.1529 72.5269 63.5034 77.5666 71.0643C80.1499 74.9398 79.5186 79.4034 79.5186 79.4034H64.5288L70.2156 70.3128L64.1629 66.2897L54.4021 81.8829L56.4216 85.0872L85.6592 85.0107C85.6592 85.0107 86.8275 76.6086 83.9284 70.6605C81.0529 64.7608 76.9479 59.9528 76.9479 59.9528L80.5391 54.3979C80.5391 54.3979 85.8278 59.4642 89.2878 66.1646C93.948 75.1893 92.5231 85.0107 92.5231 85.0107H111.977C111.977 85.0107 113.942 69.7767 104.615 55.144C97.8606 44.5473 91.1801 37.2282 91.1801 37.2282L99.3227 24.3841L122.185 79.4034H115.811L118.017 85.0107H129.784L131.5 82.8147L106.931 26.0113" fill="#DCA8E5"/>
<path d="M56.4216 85.7049C56.2093 85.7049 56.0122 85.5964 55.8993 85.4166L53.88 82.2128C53.7534 82.0126 53.7528 81.7569 53.8788 81.5555L63.6395 65.9627C63.7282 65.821 63.8698 65.7215 64.0327 65.6865C64.1986 65.6539 64.3669 65.6846 64.505 65.7758L70.5578 69.7985C70.8364 69.9837 70.9166 70.3569 70.7394 70.6404L65.6437 78.786H78.95C79.0145 77.5303 78.9633 74.2742 77.0527 71.4069C72.0982 63.9742 68.2642 59.6046 68.2262 59.5613C68.0446 59.3556 68.0205 59.0552 68.167 58.823L77.2378 44.4648C77.4176 44.1801 77.7921 44.0915 78.081 44.2669C78.1726 44.3224 87.3267 49.9597 93.5387 60.0781C98.3406 67.9017 98.8243 76.4098 98.8618 78.786H105.273C105.144 76.2625 104.24 66.4542 97.8979 57.6312C94.1985 52.4836 81.9903 37.8509 81.8673 37.7038C81.6948 37.4975 81.6761 37.2038 81.8202 36.9764L97.904 11.688C98.0149 11.5137 98.2055 11.4064 98.4124 11.4022L100.845 11.3528C101.1 11.3601 101.324 11.4951 101.424 11.7256L104.362 18.5171C104.497 18.8308 104.354 19.1939 104.04 19.3295C103.728 19.4634 103.363 19.3211 103.228 19.008L100.455 12.5964L98.7689 12.6307L83.1043 37.2594C84.9859 39.5193 95.497 52.1737 98.9017 56.91C106.454 67.4192 106.53 78.9199 106.529 79.4042C106.529 79.745 106.252 80.0212 105.912 80.0212H98.2437C98.0772 80.0212 97.9173 79.9536 97.8016 79.8348C97.6852 79.7153 97.6219 79.5538 97.6261 79.3873C97.6291 79.2889 97.8179 69.4107 92.4858 60.7246C87.2707 52.2286 79.9314 46.9749 77.9491 45.6523L69.4554 59.0969C70.4632 60.2837 73.8768 64.4151 78.0805 70.7218C80.7632 74.747 80.157 79.2981 80.1299 79.4898C80.0864 79.795 79.8259 80.0212 79.5183 80.0212H64.5287C64.3044 80.0212 64.0975 79.8994 63.9883 79.7027C63.8797 79.5067 63.8858 79.2667 64.0052 79.0761L69.3741 70.4944L64.3502 67.1556L55.1316 81.8824L56.7618 84.4686L85.1074 84.395C85.2973 82.4808 85.7442 75.7965 83.3734 70.9318C80.5678 65.1751 76.5185 60.4021 76.4781 60.3544C76.3007 60.1469 76.2808 59.8472 76.4292 59.618L80.0207 54.0627C80.1209 53.9083 80.2849 53.8057 80.4676 53.7846C80.6552 53.7605 80.8337 53.825 80.9663 53.9522C81.1852 54.1615 86.3696 59.1674 89.8369 65.8812C93.8675 73.6884 93.452 81.9499 93.216 84.3937H111.416C111.644 81.5771 112.213 68.2146 104.094 55.4763C97.4493 45.051 90.7904 37.7178 90.7241 37.6448C90.536 37.4391 90.5094 37.1333 90.6584 36.8981L98.801 24.0537C98.9246 23.8589 99.1393 23.7491 99.3757 23.769C99.6048 23.7882 99.8046 23.9342 99.8931 24.1472L122.755 79.1665C122.834 79.3571 122.813 79.5749 122.699 79.7461C122.584 79.918 122.391 80.0212 122.185 80.0212H116.718L118.438 84.3937H129.483L130.788 82.7231L106.364 26.2575C106.229 25.9439 106.372 25.5807 106.686 25.4451C106.999 25.3095 107.363 25.4535 107.498 25.7666L132.067 82.5701C132.157 82.7776 132.126 83.0176 131.987 83.1949L130.271 85.3914C130.154 85.541 129.974 85.6291 129.784 85.6291H118.017C117.763 85.6291 117.536 85.4735 117.443 85.237L115.237 79.6299C115.162 79.4399 115.186 79.2246 115.301 79.0562C115.416 78.8874 115.607 78.786 115.811 78.786H121.26L99.2082 25.7182L91.9516 37.1653C93.3604 38.7575 99.2565 45.5877 105.136 54.8129C114.475 69.4649 112.61 84.9353 112.59 85.0897C112.55 85.3985 112.288 85.6288 111.977 85.6288H92.5233C92.3442 85.6288 92.1742 85.5504 92.0566 85.4153C91.9396 85.2801 91.8865 85.1004 91.9124 84.9232C91.9263 84.8267 93.2489 75.1824 88.7395 66.4481C86.0032 61.1497 82.057 56.8381 80.6421 55.3774L77.7122 59.9086C78.7133 61.139 82.0528 65.4024 84.4839 70.39C87.4312 76.438 86.3197 84.7459 86.2709 85.0968C86.2287 85.4008 85.9688 85.6276 85.6611 85.6288L56.4235 85.7048L56.4216 85.7049Z" fill="#3F2B56"/>
<path d="M67 58.554C66.8178 58.554 66.6375 58.4739 66.5157 58.3206L54.9341 43.7458C54.7218 43.4786 54.7665 43.0902 55.0337 42.878C55.2996 42.6657 55.6893 42.7104 55.9015 42.9775L67.4831 57.5523C67.6954 57.8195 67.6507 58.2079 67.3836 58.4201C67.2702 58.5101 67.1344 58.554 67 58.554Z" fill="#3F2B56"/>
<path d="M80.1732 36.3318C80.0213 36.3318 79.8692 36.2763 79.7504 36.1642L73.0752 29.8918C72.8267 29.6584 72.8141 29.2676 73.048 29.0192C73.2808 28.7696 73.6729 28.7581 73.9207 28.992L80.5959 35.2643C80.8444 35.4978 80.857 35.8886 80.6231 36.137C80.5019 36.2667 80.3379 36.3318 80.1732 36.3318Z" fill="#3F2B56"/>
<path d="M32.5469 64.4587L34.3923 59.8313L28.6595 53.6272L23.7219 58.8034L29.3153 64.7261L32.5469 64.4587Z" fill="#AD6CAA"/>
<path d="M29.2 65.333C29.0737 65.309 28.9569 65.2455 28.8664 65.1504L23.2728 59.2278C23.0475 58.989 23.048 58.6153 23.275 58.3772L28.2126 53.2009C28.3299 53.0777 28.4936 53.0082 28.6645 53.01C28.8378 53.0093 28.9975 53.0833 29.113 53.2084L34.8458 59.4123C35.0073 59.5867 35.0538 59.8387 34.9656 60.0602L33.1205 64.6874C33.0337 64.9048 32.8315 65.0547 32.5982 65.0742L29.3664 65.342C29.3102 65.3467 29.2545 65.3434 29.2 65.333ZM24.5736 58.8055L29.5607 64.0864L32.1151 63.8745L33.6746 59.9639L28.6524 54.5294L24.5736 58.8055Z" fill="#3F2B56"/>
<path d="M63.9671 43.9887L39.2052 29.2866L30.4567 52.76L30.4546 67.9728L29.2742 72.2383L24.868 72.1056L24.9511 68.737L21.7052 68.7652L14.7556 64.1751L17.9203 53.9281L34.704 20.9459L38.3308 19.7556L66.8154 41.661" fill="#AD6CAA"/>
<path d="M24.7517 72.7122C24.4595 72.6566 24.2425 72.3967 24.2504 72.0907L24.3177 69.3598L21.7104 69.3824C21.5889 69.3827 21.4677 69.348 21.3646 69.2804L14.4148 64.6904C14.1863 64.5394 14.0845 64.2549 14.165 63.9928L17.33 53.7463L34.1535 20.6657C34.2273 20.52 34.3562 20.4102 34.5109 20.3592L38.138 19.169C38.3336 19.1055 38.5494 19.1429 38.7113 19.2695L67.1957 41.1748C67.4645 41.385 67.5117 41.7728 67.3015 42.0415C67.0906 42.3108 66.7034 42.3581 66.4347 42.1473L38.21 20.4456L35.1382 21.4535L18.4706 54.2088L15.4814 63.9148L21.888 68.146L24.9456 68.1195C25.1108 68.119 25.2733 68.1849 25.3912 68.3038C25.5085 68.4231 25.5722 68.585 25.5681 68.7519L25.5005 71.5073L28.808 71.6064L29.8371 67.889L29.8388 52.7601C29.8388 52.6864 29.8521 52.6134 29.878 52.5447L38.627 29.0709C38.6922 28.896 38.833 28.7595 39.0105 28.7006C39.1864 28.6408 39.3818 28.6656 39.5393 28.7674L64.3006 43.4699C64.5879 43.6541 64.6704 44.0363 64.4858 44.3229C64.3015 44.6107 63.9187 44.6926 63.6321 44.5079L39.516 30.2211L31.0735 52.8715L31.0722 67.9729C31.0722 68.0281 31.0645 68.0838 31.05 68.1375L29.8692 72.4032C29.7931 72.6773 29.5396 72.8641 29.2552 72.8554L24.849 72.7228C24.816 72.7221 24.783 72.7183 24.7517 72.7122Z" fill="#3F2B56"/>
</svg>
