<svg xmlns="http://www.w3.org/2000/svg" viewBox="0 0 80 80"><defs><linearGradient id="a" x1="-406.62" y1="-17.76" x2="-406.52" y2="-17.67" gradientTransform="matrix(796 0 0 -750 323679 -13242)" gradientUnits="userSpaceOnUse"><stop offset="0" stop-color="#2ebefe"/><stop offset=".34" stop-color="#7347fe"/><stop offset=".5" stop-color="#9d3bdb"/><stop offset=".63" stop-color="#b933c4"/><stop offset=".7" stop-color="#c330bc"/><stop offset="1" stop-color="#f55762"/></linearGradient></defs><path d="M13.56 26.28C28.62 5.16 63.92-3.54 80 6.53c-2.07 1.88-6.53 5.31-7.85 13.06A37.72 37.72 0 0165 35.64a29 29 0 00-9.56-1.59H55a29 29 0 00-4.28.36 25.61 25.61 0 00-13.6 6.44 17.09 17.09 0 00-5.62 12.36 14.88 14.88 0 00.19 2.41 60.47 60.47 0 01-7.35.72 22.93 22.93 0 007.82 1.36c.09.29.18.58.29.87a51.49 51.49 0 01-13.06 3.73 36.13 36.13 0 004.64.77.2.2 0 010 .4C16.19 65.79 11.18 65.76 8.12 65Q5.44 69.29 3 73.88c-.49.91-4.16 7.08-2.53 1.41 0-.05 0-.1.05-.14V75l.06-.16.06-.18a1.07 1.07 0 00.07-.19c0-.06 0-.13.08-.2A2 2 0 011 73.9l.09-.23a2.44 2.44 0 01.1-.24l.11-.26.12-.28c0-.09.09-.19.13-.29l.13-.3c.09-.22.19-.44.3-.67H2c0-.11.1-.23.16-.35l.35-.74.18-.39c.13-.26.27-.53.4-.81.07-.14.14-.28.22-.42l.46-.87c.23-.45.48-.92.74-1.4l.82-1.48.59-1a145.24 145.24 0 0123.4-30.16c9.59-9.73 27-21 35.69-24a63.49 63.49 0 016.67-2l-.62.13C50.62 12.19 23.87 30 5 62a22.13 22.13 0 01-1.33-17 .21.21 0 01.4 0 21.21 21.21 0 002.12 6.94c-.82-6.71-.64-14.86 2.66-19.39a.21.21 0 01.37.12c0 3.91.3 11.24 1.39 12.57.39-5.41.5-15.47 2.95-18.96zm41.83 9.42c12.29 0 22.26 7.84 22.26 17.51a15.42 15.42 0 01-5.21 11.26 3.4 3.4 0 00-.89 2.6 24.94 24.94 0 001.6 7.07 1.55 1.55 0 01.06.4.83.83 0 01-.88.85 1.25 1.25 0 01-.65-.19C68 72.92 64.28 70 62.14 70a2.34 2.34 0 00-.38 0h-.09a27.56 27.56 0 01-6.24.7c-12.28 0-22.25-7.84-22.25-17.51C33.14 44.73 40.81 37.65 51 36a28.1 28.1 0 014-.34zm10.24 14.55a3.28 3.28 0 103.28 3.27 3.27 3.27 0 00-3.28-3.27zm-10.55 0a3.28 3.28 0 103.27 3.27 3.26 3.26 0 00-3.27-3.27zm-10.55 0a3.28 3.28 0 103.27 3.27 3.27 3.27 0 00-3.27-3.27zM72.85 7.39a8.49 8.49 0 00-1 .21z" fill-rule="evenodd" fill="url(#a)"/></svg>
