<svg xmlns="http://www.w3.org/2000/svg" viewBox="0 0 80 80"><path d="M26.07 47.5a15.14 15.14 0 00.87 5.25 14.9 14.9 0 002.48 4.15 15.4 15.4 0 003.67 3.1 22.1 22.1 0 004.48 2.17 27.55 27.55 0 004.94 1.27 31 31 0 005.06.41 33.3 33.3 0 006-.5A42.6 42.6 0 0059 62a47.4 47.4 0 005.28-2.08c1.75-.8 3.52-1.68 5.35-2.65v16.92a61.6 61.6 0 01-6 2.56 62.3 62.3 0 01-6 1.8 47.43 47.43 0 01-6.21 1.1 62.58 62.58 0 01-6.52.35 36.09 36.09 0 01-8.69-1 34.12 34.12 0 01-7.85-3 33 33 0 01-6.73-4.73A30.15 30.15 0 0116.34 65a30.67 30.67 0 01-3.4-7.57 31.53 31.53 0 01-1.18-8.7 32.32 32.32 0 011.35-9.4 29.89 29.89 0 0110.08-14.88 32.58 32.58 0 018.23-4.75 17.45 17.45 0 00-3.88 5.91 25.76 25.76 0 00-1.78 6.85h28.47a29 29 0 00-.87-7.52 12.61 12.61 0 00-2.84-5.35 11.79 11.79 0 00-5-3.2A22.73 22.73 0 0038 15.31a35.35 35.35 0 00-10.31 1.54 43.46 43.46 0 00-9.8 4.25 47.81 47.81 0 00-8.55 6.47 40.67 40.67 0 00-6.57 8.1A46.92 46.92 0 015 26a40.8 40.8 0 014-8.66 38.66 38.66 0 015.8-7.18 34.53 34.53 0 017.37-5.5 37.3 37.3 0 018.72-3.52A44.78 44.78 0 0140.86 0 35.08 35.08 0 0147 .55a42.3 42.3 0 016 1.52A35.76 35.76 0 0163.26 7.6a35 35 0 017.62 8.16A36.56 36.56 0 0175.58 26a41.35 41.35 0 011.63 11.59v9.91z" fill="#0078d7"/></svg>