<svg data-name="Logos" xmlns="http://www.w3.org/2000/svg" viewBox="0 0 80 80"><path d="M70.43 34.81a9.37 9.37 0 10-9.37-9.36 9.37 9.37 0 009.37 9.36zm0-16a6.62 6.62 0 11-6.62 6.62 6.62 6.62 0 016.62-6.6zM21.25 30.45v.01-.01z" fill="#555ba4"/><path d="M77.42 37.89H63.81v-1.36a3.21 3.21 0 00-3.2-3.21h-13v-4a9.36 9.36 0 100-16.6V.68L.24 8.9v62.77l47.37 7.65V67.57h6.12A10.1 10.1 0 0063 61.48h7.56a9.64 9.64 0 009.62-9.63V40.64a2.75 2.75 0 00-2.76-2.75zM47.61 26V16a6.62 6.62 0 110 10zm-12.33 4l-8.56.27v24.62h-5.47V30.46l-7.65.24v-4.23l21.68-1zm25.78 27.48a7.34 7.34 0 01-7.33 7.34h-6.12V36.07h13a.45.45 0 01.45.46zm16.36-5.63a6.88 6.88 0 01-6.87 6.88h-6.81a10.24 10.24 0 00.07-1.25V40.64h13.61z" fill="#555ba4"/></svg>