<svg xmlns="http://www.w3.org/2000/svg" viewBox="0 0 80 80"><defs><linearGradient id="a" x1="-256.47" y1="656.82" x2="-256.47" y2="656.35" gradientTransform="matrix(45.61 0 0 -81.34 11731.9 53446.8)" gradientUnits="userSpaceOnUse"><stop offset="0" stop-color="#0994dc"/><stop offset=".35" stop-color="#66cef5"/><stop offset=".85" stop-color="#127bca"/><stop offset="1" stop-color="#127bca"/></linearGradient><linearGradient id="b" x1="-256.73" y1="656.75" x2="-256.73" y2="656.28" gradientTransform="matrix(47.87 0 0 -83.41 12325.65 54802.13)" gradientUnits="userSpaceOnUse"><stop offset="0" stop-color="#0e76bc"/><stop offset=".36" stop-color="#36aee8"/><stop offset=".85" stop-color="#00adef"/><stop offset="1" stop-color="#00adef"/></linearGradient><linearGradient id="c" x1="-256.9" y1="656.22" x2="-256.9" y2="656.59" gradientTransform="matrix(45.45 0 0 -84.5 11721.05 55504.7)" gradientUnits="userSpaceOnUse"><stop offset="0" stop-color="#1c63b7"/><stop offset=".5" stop-color="#33bdf2"/><stop offset="1" stop-color="#33bdf2" stop-opacity=".42"/></linearGradient><linearGradient id="d" x1="-256.77" y1="656.59" x2="-256.77" y2="656.13" gradientTransform="matrix(45.01 0 0 -86.6 11599.48 56879.58)" gradientUnits="userSpaceOnUse"><stop offset="0" stop-color="#166ab8"/><stop offset=".4" stop-color="#36aee8"/><stop offset=".85" stop-color="#0798dd"/><stop offset="1" stop-color="#0798dd"/></linearGradient><linearGradient id="e" x1="-257.5" y1="656.52" x2="-257.5" y2="656.05" gradientTransform="matrix(58.35 0 0 -92.08 15064.46 60473.34)" gradientUnits="userSpaceOnUse"><stop offset="0" stop-color="#124379"/><stop offset=".39" stop-color="#1487cb"/><stop offset=".78" stop-color="#165197"/><stop offset="1" stop-color="#165197"/></linearGradient><linearGradient id="f" x1="-250.04" y1="659.37" x2="-249.73" y2="659.37" gradientTransform="matrix(19.42 0 0 -30.92 4876.89 20422.04)" gradientUnits="userSpaceOnUse"><stop offset="0" stop-color="#33bdf2" stop-opacity=".7"/><stop offset="1" stop-color="#1dacd8"/></linearGradient><linearGradient id="g" x1="-259.07" y1="656.03" x2="-259.07" y2="656.34" gradientTransform="matrix(79.14 0 0 -98.68 20571.33 64789.54)" gradientUnits="userSpaceOnUse"><stop offset="0" stop-color="#136ab4"/><stop offset=".6" stop-color="#59caf5" stop-opacity=".55"/><stop offset="1" stop-color="#59caf5" stop-opacity=".24"/></linearGradient><linearGradient id="h" x1="-257.39" y1="656.18" x2="-257.08" y2="656.18" gradientTransform="matrix(72.02 0 0 -99.16 18537.88 65107.76)" gradientUnits="userSpaceOnUse"><stop offset="0" stop-color="#05a1e6" stop-opacity=".25"/><stop offset="1" stop-color="#05a1e6"/></linearGradient><linearGradient id="i" x1="-255.76" y1="656.42" x2="-255.76" y2="656.84" gradientTransform="matrix(49.05 0 0 -73.82 12557.69 48512.64)" gradientUnits="userSpaceOnUse"><stop offset="0" stop-color="#318ed5"/><stop offset="1" stop-color="#38a7e4"/></linearGradient><linearGradient id="j" x1="-255.49" y1="657.53" x2="-255.49" y2="658.06" gradientTransform="matrix(45.6 0 0 -57.13 11665.82 37618.17)" gradientUnits="userSpaceOnUse"><stop offset="0" stop-color="#05a1e6"/><stop offset="1" stop-color="#05a1e6" stop-opacity=".55"/></linearGradient><linearGradient id="k" x1="-256.22" y1="656.47" x2="-256.22" y2="656.78" gradientTransform="matrix(52.52 0 0 -81.09 13472.48 53291.31)" gradientUnits="userSpaceOnUse"><stop offset="0" stop-color="#1959a6"/><stop offset=".5" stop-color="#05a1e6"/><stop offset=".92" stop-color="#7ec5ea"/><stop offset="1" stop-color="#7ec5ea"/></linearGradient><linearGradient id="l" x1="-257.34" y1="656.04" x2="-257.4" y2="656.32" gradientTransform="matrix(72.68 0 0 -99 18719.54 65005.36)" gradientUnits="userSpaceOnUse"><stop offset="0" stop-color="#165096"/><stop offset="1" stop-color="#0d82ca"/></linearGradient><linearGradient id="m" x1="-256.71" y1="657.07" x2="-256.71" y2="657.32" gradientTransform="matrix(32.77 0 0 -57.23 8473.83 37640.25)" gradientUnits="userSpaceOnUse"><stop offset="0" stop-color="#05a1e6"/><stop offset=".87" stop-color="#0495d6"/><stop offset="1" stop-color="#0495d6"/></linearGradient><linearGradient id="n" x1="-258.53" y1="656.37" x2="-258.63" y2="656.03" gradientTransform="matrix(60.27 0 0 -96.32 15650.72 63246.63)" gradientUnits="userSpaceOnUse"><stop offset="0" stop-color="#38a7e4" stop-opacity=".33"/><stop offset=".96" stop-color="#0e88d3"/><stop offset="1" stop-color="#0e88d3"/></linearGradient><linearGradient id="o" x1="-258.78" y1="656.34" x2="-258.78" y2="656.01" gradientTransform="matrix(70.28 0 0 -98.11 18251.42 64417.36)" gradientUnits="userSpaceOnUse"><stop offset="0" stop-color="#168cd4"/><stop offset=".5" stop-color="#1c87cc"/><stop offset="1" stop-color="#154b8d"/></linearGradient><linearGradient id="p" x1="-254.41" y1="622.51" x2="-254.19" y2="623.22" gradientTransform="matrix(32.46 0 0 4.25 8281.72 -2621.79)" gradientUnits="userSpaceOnUse"><stop offset="0" stop-color="#97d6ee"/><stop offset=".7" stop-color="#55c1ea"/><stop offset="1" stop-color="#55c1ea"/></linearGradient><linearGradient id="q" x1="-253.4" y1="636.6" x2="-253.19" y2="636.26" gradientTransform="matrix(26.47 0 0 7.48 6736 -4737.41)" gradientUnits="userSpaceOnUse"><stop offset="0" stop-color="#7accec"/><stop offset="1" stop-color="#3fb7ed"/></linearGradient><linearGradient id="r" x1="-258" y1="656.6" x2="-258" y2="656.22" gradientTransform="matrix(52.04 0 0 -80.64 13487.21 52971.41)" gradientUnits="userSpaceOnUse"><stop offset="0" stop-color="#1da7e7"/><stop offset="1" stop-color="#37abe7" stop-opacity="0"/></linearGradient><style>.f{fill:#1969bc}</style></defs><path d="M27.79 30.57c2.88 8.82 4 24.55 12.4 24.55a9.89 9.89 0 001.94-.19c-7.66-1.79-8.57-17.34-13.25-25.4-.36.33-.73.68-1.09 1" fill="url(#a)"/><path d="M28.88 29.53c4.68 8.06 5.59 23.61 13.25 25.4a11.84 11.84 0 001.81-.49C37.06 51.07 35.16 36 29.85 28.69l-1 .84" fill="url(#b)"/><path d="M35.62 24.74a9.89 9.89 0 00-1.94.19 14.86 14.86 0 00-5.19 2.16 13.46 13.46 0 011.36 1.6 18.88 18.88 0 015.3-3.22 13.3 13.3 0 012-.55 6.18 6.18 0 00-1.51-.18" fill="#14559a"/><path d="M49.31 51.34c.71-.56 1.41-1.18 2.12-1.86-2.93-8.77-4-24.73-12.47-24.73a10.3 10.3 0 00-1.83.17c7.73 1.93 8.72 18.75 12.18 26.42" fill="url(#c)"/><path d="M37.13 24.92a6.18 6.18 0 00-1.51-.18H39a10.3 10.3 0 00-1.83.17" fill="#3092c4"/><path class="f" d="M49.17 53.2a11.8 11.8 0 01-1-1 17.55 17.55 0 01-4.27 2.27 6.35 6.35 0 001.59.54 6.75 6.75 0 001.36.14 8.94 8.94 0 003.91-.7 7.31 7.31 0 01-1.63-1.22"/><path d="M35.15 25.47c6.93 3.63 7.53 20 13.06 26.7.37-.27.74-.54 1.1-.83-3.46-7.67-4.45-24.49-12.18-26.42a13.3 13.3 0 00-2 .55" fill="url(#d)"/><path d="M29.85 28.69c5.31 7.31 7.21 22.38 14.09 25.75a17.55 17.55 0 004.27-2.27c-5.53-6.67-6.13-23.07-13.06-26.7a18.88 18.88 0 00-5.3 3.22" fill="url(#e)"/><path d="M24.39 30.36A77.56 77.56 0 0021.68 38a55.87 55.87 0 016.11-7.38 21 21 0 00-.91-2.35 29.62 29.62 0 00-2.49 2.14" fill="url(#f)"/><path d="M27.62 27.68l-.74.54a19.24 19.24 0 01.9 2.35c.37-.36.74-.71 1.1-1a14.27 14.27 0 00-1.26-1.85" fill="#2b74b1"/><path d="M28.49 27.09c-.29.19-.58.38-.87.59a14.27 14.27 0 011.26 1.85l1-.84a12.59 12.59 0 00-1.36-1.6" fill="#125a9e"/><path d="M75.74 24.07c-3.92 15.11-12.1 27.24-19 30.3l-.37.16h-.1a.85.85 0 00-.17.06h-.93a2.93 2.93 0 001 .17c6.51 0 13.07-11.66 23.92-31z" fill="url(#g)"/><path d="M20.26 25.35h.27a1.84 1.84 0 00.25-.09H21l.36-.09h1.11-.69c-7.33 0-17.42 13.6-22 31.2h1.1c1.45-2.6 2.76-5 4-7.36C8 36.11 14.5 27.6 20.26 25.35" fill="url(#h)"/><path d="M24.39 30.36a29.62 29.62 0 012.49-2.14 11.19 11.19 0 00-.59-1.15 14.15 14.15 0 00-1.9 3.29m.61-4.9a6.14 6.14 0 011.3 1.61 5.14 5.14 0 01.38-.42 7.46 7.46 0 00-1.77-1.24h.07" fill="#0d82ca"/><path d="M4.83 48.58c6.68-12.88 9.85-21 15.43-23.23C14.5 27.61 8 36.11 4.83 48.58" fill="url(#i)"/><path d="M26.67 26.65a5.14 5.14 0 00-.38.42 11.19 11.19 0 01.59 1.15l.74-.54a9.43 9.43 0 00-.95-1" fill="#127bca"/><path d="M7.87 55.87h-.54c6.76-.19 9.85-3.57 11.39-8.48 1.16-3.72 2.12-6.86 3-9.49A135.44 135.44 0 0013.14 52a7 7 0 01-5.27 3.87" fill="url(#j)"/><path d="M7.87 55.87A7 7 0 0013.14 52a135.44 135.44 0 018.54-14.06 74.68 74.68 0 012.71-7.58c-5.64 5.37-11.3 14.29-16.52 25.51" fill="url(#k)"/><path d="M4.83 48.58c-1.19 2.3-2.5 4.76-3.95 7.35h2.54a63.42 63.42 0 011.41-7.35" fill="#05a1e6"/><path d="M22.42 24.8h-.87l-.36.1h-.22l-.25.08h-.26c-5.59 2.2-8.75 10.35-15.43 23.22a63.83 63.83 0 00-1.41 7.35h4.25c5.22-11.21 10.89-20.14 16.52-25.51a14.42 14.42 0 011.9-3.28A6.22 6.22 0 0025 25.47h-.39a.94.94 0 01-.15-.06h-.07l-.11-.05h-.05l-.16-.06-.21-.3h-.15l-.37-.08h-.73" fill="url(#l)"/><path d="M60.44 32.43c-1.29 4.12-2.33 7.52-3.23 10.31a111.89 111.89 0 0010.3-18c-3.85 1.21-5.91 4-7.07 7.69" fill="url(#m)"/><path d="M57.32 54.11c-.18.1-.36.18-.54.26 6.86-3.06 15-15.19 19-30.3H75c-9 16.08-11.9 26.84-17.63 30" fill="url(#n)"/><path d="M52.84 52.76c1.49-1.82 2.71-4.92 4.37-10a50.17 50.17 0 01-5.77 6.73 17.34 17.34 0 001.41 3.27" fill="#079ae1"/><path class="f" d="M52.84 52.76a6.17 6.17 0 01-1.65 1.45l-.39.21a5.76 5.76 0 002.09.66h1.78l.43-.08a4.68 4.68 0 01-2.27-2.18"/><path d="M40.19 55.12a9.89 9.89 0 001.94-.19 11.84 11.84 0 001.81-.49 6.35 6.35 0 001.59.54 6.75 6.75 0 001.36.14zm6.7 0a8.94 8.94 0 003.91-.7 5.76 5.76 0 002.09.66h.34-6.34z" fill="#1e5cb3"/><path d="M53.61 55.12h1.1l.32-.07a2.88 2.88 0 001 .17h-2.42z" fill="#1d60b5"/><path d="M51.43 49.49c-.71.68-1.41 1.3-2.11 1.85-.37.3-.74.57-1.11.83a12.06 12.06 0 001 1 7.31 7.31 0 001.63 1.22l.4-.22a6.09 6.09 0 001.64-1.44 18 18 0 01-1.41-3.27" fill="#175fab"/><path d="M72.43 24.07h-4.64c-.09.21-.19.42-.29.63a111.45 111.45 0 01-10.31 18c-1.66 5.11-2.87 8.2-4.37 10a4.66 4.66 0 002.27 2.17h.92l.18-.06h.11l.37-.16a5.2 5.2 0 00.53-.26c5.74-3.2 8.63-14 17.63-30h-2.4z" fill="url(#o)"/><path d="M22.66 24.78h.53l.37.08h.2l.17.05.16.05h.23l.15.06h.32a8.09 8.09 0 011.77 1.24 6.53 6.53 0 01.62-.57 6.91 6.91 0 00-4.09-1.32h-.54" fill="#7dcbec"/><path d="M26.67 26.65a9.43 9.43 0 01.95 1c.29-.21.58-.4.87-.58a8.11 8.11 0 00-1.2-1 6.53 6.53 0 00-.62.57" fill="#5ec5ed"/><path d="M22.66 24.78a4.89 4.89 0 01.54 0 6.85 6.85 0 014.09 1.33 7.44 7.44 0 014.89-1.34H22a5.37 5.37 0 01.7 0" fill="url(#p)"/><path d="M32.18 24.74a7.44 7.44 0 00-4.89 1.34 8.68 8.68 0 011.2 1 14.86 14.86 0 015.19-2.16 9.89 9.89 0 011.94-.19z" fill="url(#q)"/><path d="M57.21 42.74c.9-2.79 1.94-6.19 3.23-10.31 1.16-3.71 3.21-6.48 7.07-7.69l.3-.63c-6.29.37-9.23 3.57-10.71 8.31-2.59 8.27-4.15 13.64-5.66 17a50.91 50.91 0 005.77-6.73" fill="url(#r)"/></svg>