<svg xmlns="http://www.w3.org/2000/svg" viewBox="0 0 80 80"><defs><style>.a{fill:#978cbd}.b{fill:#7867a8}.c{fill:#988cbd}.d{fill:#7c6cab}.e{fill:#c0b9cd}.f{fill:#ada3be}.g{fill:#8475b0}.i{fill:#66539d}.k{fill:#6d5ba1}</style></defs><path class="a" d="M44.76 15.74C45.4 17.16 46 18.61 46.7 20a37 37 0 004.39 6.75c.29.36.55.75.82 1.12a6.91 6.91 0 010 1 18.74 18.74 0 00-.28 3.74l.15 3.3v.15c.15 1 .29 2 .43 2.94.11.77.22 1.54.34 2.3.18 1 .38 2 .55 3.07s.26 2.16.47 3.23a18.31 18.31 0 01.43 3.71 12 12 0 01-3.16 1.47 20.53 20.53 0 01-4 .91c-1.06.12-2.11.34-3.17.42a30.64 30.64 0 00-3.58.17h-.29l-1.55-1.78v-.15a23.28 23.28 0 002.64-5 12.24 12.24 0 00.89-3.51 14.73 14.73 0 00-.22-4.24c-.18-.93-.34-1.86-.49-2.8s-.32-2.16-.46-3.24a21.66 21.66 0 01-.27-2.56 22.8 22.8 0 01.11-3.6 22.76 22.76 0 011.08-4.3c.22-.61.39-1.25.58-1.87l2-4.74a.69.69 0 000-.29 4 4 0 01.3-.28 1.28 1.28 0 01.35-.18z"/><path class="b" d="M66.22 50a21.89 21.89 0 01.48 5.17c0 .49-.11 1-.17 1.45A4.1 4.1 0 0066 57c-.74.68-1.46 1.39-2.21 2a11.09 11.09 0 01-1.68 1.3 27.59 27.59 0 01-4.89 2.45c-1 .36-2.07.65-3.11 1a6.15 6.15 0 010-1 22 22 0 00.29-3.63v-4.66c-.09-1.07-.19-2.13-.29-3.19a9.33 9.33 0 003-3.07 7 7 0 001-3.25 15.48 15.48 0 00-.11-2.67 20.44 20.44 0 00-1.09-3.93l-.57-1.57a1.34 1.34 0 01.38.18c.78.72 1.58 1.42 2.31 2.17s1.57 1.7 2.31 2.58a33.09 33.09 0 012.24 2.91A17.31 17.31 0 0166 49.85c0 .07.14.15.22.15z"/><path class="c" d="M13.53 56.93a20.11 20.11 0 01-.14-5.31A49.27 49.27 0 0115.18 42a86.18 86.18 0 013-8.73c.62-1.55 1.26-3.08 1.9-4.62 0 .08.12.16.12.24.06 1.1.1 2.2.16 3.3a2.19 2.19 0 000 .36c.08.65.18 1.3.26 2s.09 1.07.18 1.6c.17.95.33 1.91.59 2.84.08.31-.06.78.41 1l-.14 1.19c-.29.23-.11.55-.15.83-.16 1.08-.33 2.15-.44 3.24s-.23 2.47-.29 3.71-.08 2.5-.12 3.75c-.08 2.3.06 4.61.11 6.92a2.58 2.58 0 000 .29c.09.78.17 1.55.26 2.32-1.06-.55-2.15-1-3.18-1.65a16.9 16.9 0 01-3.71-3.09 4.13 4.13 0 00-.61-.57z"/><path class="d" d="M62.14 68.66c-.29.44-.55.92-.88 1.33a27 27 0 01-5.61 5.17 2.32 2.32 0 01-.61.22 2.46 2.46 0 00-.47-.2c-.61-.14-1.23-.24-1.84-.4-1.08-.29-2.14-.62-3.21-.93L47.3 73c-.62-.33-1.24-.65-1.85-1-1.17-.66-2.37-1.28-3.48-2-1.41-1-2.75-2-4.1-3.07a21.11 21.11 0 01-1.56-1.44c1.22 0 2.44 0 3.67.11a29.65 29.65 0 003.88-.12q1.43-.06 2.85-.15a14 14 0 001.45-.16c1.15-.18 2.29-.38 3.43-.58l.3-.14c.08.09.13.21.23.26.56.32 1.13.62 1.69.92a37.28 37.28 0 004.51 2 24.4 24.4 0 003.82 1.03z"/><path class="e" d="M21.79 39.89c-.47-.17-.33-.64-.41-1-.26-.93-.42-1.89-.59-2.84-.09-.53-.12-1.07-.18-1.6s-.18-1.3-.26-2a2.19 2.19 0 010-.36c-.06-1.1-.1-2.2-.16-3.3 0-.08-.08-.16-.12-.24 1.34-2.8 2.63-5.63 4-8.39 1-1.92 2.06-3.78 3.17-5.62s2.37-3.67 3.63-5.54a30.41 30.41 0 012.22-2.7c.78-.89 1.58-1.76 2.44-2.57A15.78 15.78 0 0141 .13 2.92 2.92 0 0142.28 0c0 .43-.09.86-.12 1.3a8.71 8.71 0 000 1c0 1.23.08 2.46.13 3.68a1.18 1.18 0 00-.33.12l-4.1 3a20.07 20.07 0 01-.31-4v-1c-.56.45-1.07.79-1.51 1.2a19.93 19.93 0 00-2.94 3.48 44.47 44.47 0 00-3.88 6.81c-1 2.29-2 4.63-2.8 7-.53 1.54-1 3.1-1.48 4.65-.39 1.25-.83 2.48-1.16 3.74q-.77 3-1.42 5.94c-.28.9-.36 1.94-.57 2.97zm-8.26 17.04a4.13 4.13 0 01.63.47 16.9 16.9 0 003.71 3.09c1 .6 2.12 1.1 3.18 1.65a.35.35 0 000 .14c.17.9.33 1.81.51 2.71a24 24 0 001.56 4.84 17.07 17.07 0 003 4.74 14.14 14.14 0 005.28 3.75c.07 0 .1.15.15.23-.64-.21-1.3-.37-1.92-.63A25 25 0 0123 74a29.47 29.47 0 01-2.36-2.1 27.28 27.28 0 01-4.25-5.9 26.69 26.69 0 01-1.7-3.88 17.09 17.09 0 01-1-4.52c-.07-.2-.13-.43-.16-.67z"/><path class="f" d="M62.14 68.66a24.4 24.4 0 01-3.82-1.08 37.28 37.28 0 01-4.51-2l.19-1.67.15-.15c1-.32 2.09-.61 3.11-1a27.59 27.59 0 004.89-2.45A11.09 11.09 0 0063.79 59c.75-.66 1.47-1.37 2.21-2a4.1 4.1 0 01.53-.36c0 .56 0 1.12-.13 1.67a22.73 22.73 0 01-1 4.23 26.83 26.83 0 01-3 6 .79.79 0 01-.26.12z"/><path class="g" d="M31.6 78.55c-.05-.08-.08-.21-.15-.23a14.14 14.14 0 01-5.28-3.75 17.07 17.07 0 01-3-4.74A24 24 0 0121.59 65c-.18-.9-.34-1.81-.51-2.71a1.42 1.42 0 01.36 0A27.18 27.18 0 0027 64.07c.61.13 1.21.29 1.82.44a5.81 5.81 0 01-.17.85 18.43 18.43 0 00-.86 4.4 9.16 9.16 0 00.12 1.15 8.55 8.55 0 001.2 4 9.61 9.61 0 003.67 3.68 1.84 1.84 0 01.33.35z"/><path class="c" d="M33.06 78.93a1.84 1.84 0 00-.33-.35 9.61 9.61 0 01-3.67-3.68 8.55 8.55 0 01-1.2-4 9.16 9.16 0 01-.12-1.15 18.43 18.43 0 01.86-4.4 5.81 5.81 0 00.17-.85h.14l1 .29c-.08.31-.17.61-.23.92a16.6 16.6 0 00-.49 2.49 11.94 11.94 0 00.11 2.86 9.42 9.42 0 002.58 5.29 6 6 0 004.29 1.77 15.79 15.79 0 003-.38A14.4 14.4 0 0043.63 76a12.23 12.23 0 003.67-3l2.22.9v.21c-.65.63-1.27 1.31-2 1.88a15.85 15.85 0 01-3.81 2.28 17.68 17.68 0 01-5 1.42c-.08 0-.14.16-.21.24-.66 0-1.32 0-2-.12-.86-.12-1.72-.28-2.58-.46a4.87 4.87 0 01-.86-.42z"/><path d="M37.81 9.06l4.1-3a1.18 1.18 0 01.33-.06c.15.86.28 1.72.45 2.58a36.35 36.35 0 001.66 6c.15.4.27.82.41 1.24a1.28 1.28 0 00-.28.16 4 4 0 00-.3.28 18.64 18.64 0 00-2.47 2.23 4 4 0 01-.63.44c-.24-.52-.51-1-.73-1.56a39.25 39.25 0 01-2.12-6.42c-.11-.56-.28-1.11-.42-1.66z" fill="#9f93c2"/><path class="e" d="M66.22 50c-.08 0-.21-.09-.23-.16a17.31 17.31 0 00-2.42-5.23 33.09 33.09 0 00-2.24-2.91c-.74-.88-1.5-1.75-2.31-2.58s-1.53-1.44-2.31-2.12a1.34 1.34 0 00-.38-.18v-.16c-.53-.45-1.07-.9-1.59-1.36L52 32.86a2.6 2.6 0 00-.44-.23 18.74 18.74 0 01.28-3.74 6.91 6.91 0 000-1c.45.49.9 1 1.33 1.47.71.84 1.41 1.69 2.11 2.53 1.07 1.28 2.18 2.52 3.21 3.82s2.27 2.88 3.33 4.37a28.9 28.9 0 012.48 4.23 27.64 27.64 0 011.86 5.21 1.75 1.75 0 01.06.48z"/><path class="f" d="M38.54 79.88c.07-.08.13-.24.21-.24a17.68 17.68 0 005-1.42 15.85 15.85 0 003.81-2.28c.7-.57 1.32-1.25 2-1.88v-.21c1.07.31 2.13.64 3.21.93.61.16 1.23.26 1.84.4a2.46 2.46 0 01.47.2 3 3 0 01-.39.4 27.21 27.21 0 01-6.71 3 30.47 30.47 0 01-4.06.85 33 33 0 01-4.76.26c-.23.03-.43 0-.62-.01z"/><path class="i" d="M51.59 64.5c-1.14.2-2.28.4-3.43.58a14 14 0 01-1.45.16q-1.43.09-2.85.15a29.65 29.65 0 01-3.88.12c-1.23-.11-2.45-.07-3.67-.11h-.28a6 6 0 00-.41-.58c-.81-.92-1.62-1.82-2.46-2.66-.59-.64-1.15-1.3-1.73-1.95-1.05-1.53-2.14-3-3.14-4.58-.8-1.23-1.52-2.51-2.21-3.79-.59-1.1-1.1-2.24-1.62-3.37-.26-.56-.49-1.12-.71-1.69-.3-.77-.61-1.54-.85-2.32a5.16 5.16 0 01-.51-2 1.07 1.07 0 01.15.22 17.35 17.35 0 005.63 8.15 14.92 14.92 0 003.41 2 20.65 20.65 0 005.48 1.35l2.68.14H40a4.37 4.37 0 001.19 1.53c1.35 1.32 2.72 2.61 4.14 3.85 1.06.93 2.19 1.78 3.32 2.63.87.66 1.79 1.26 2.68 1.89.13.03.18.17.26.28z"/><path d="M37.06 54.13a20.65 20.65 0 01-5.48-1.35 14.92 14.92 0 01-3.41-2 17.35 17.35 0 01-5.63-8.15 1.07 1.07 0 00-.15-.22l-.15-.3c-.1-.22-.18-.46-.3-.67a2.63 2.63 0 00-.29-.37l.14-1.19c.17-1 .29-2.07.52-3.08q.66-3 1.42-5.94c.33-1.26.77-2.49 1.16-3.74a2.58 2.58 0 01.31.45c.12.39.19.8.31 1.19.49 1.47.94 2.95 1.49 4.4.62 1.63 1.27 3.25 2 4.83s1.78 3.41 2.7 5.11a6.33 6.33 0 00.6.79 3.28 3.28 0 001.11 1.77h.07a1.8 1.8 0 00.52 1.19c1.13 1.59 2.31 3.14 3.48 4.69.22.29.48.54.73.81v.15c-.25.31-.51.6-.75.92s-.25.47-.4.71z" fill="#7564a7"/><path class="g" d="M38.25 52.35c-.25-.27-.51-.52-.73-.81-1.17-1.54-2.35-3.1-3.52-4.69a1.8 1.8 0 01-.54-1.17s.11 0 .11-.09c.27-1.07.52-2.16.79-3.23.53-2.21 1.08-4.41 1.61-6.62.26-1.08.52-2.16.75-3.24q.43-2 .84-4.05c.18-.92.34-1.85.5-2.78.13-.74.23-1.48.37-2.21a9.36 9.36 0 012-3.83.71.71 0 01.69-.34l.91 1.92c-.19.62-.36 1.26-.58 1.87a22.76 22.76 0 00-1.08 4.3 22.8 22.8 0 00-.11 3.6 21.66 21.66 0 00.27 2.54c.14 1.08.29 2.16.46 3.24s.31 1.87.49 2.8a14.73 14.73 0 01.22 4.24 12.24 12.24 0 01-.89 3.51 23.28 23.28 0 01-2.56 5.04z"/><path class="k" d="M51.59 64.5c-.08-.11-.13-.25-.23-.32-.89-.63-1.81-1.23-2.68-1.89-1.13-.85-2.26-1.7-3.32-2.63a100.29 100.29 0 01-4.14-3.85A4.37 4.37 0 0140 54.28a30.64 30.64 0 013.58-.17c1.06-.08 2.11-.3 3.17-.42a20.53 20.53 0 004-.91A12 12 0 0054 51.31h.15c.1 1.06.2 2.12.29 3.19v4.66a22 22 0 01-.29 3.63 6.15 6.15 0 000 1l-.15.15-2.07.45z"/><path class="f" d="M54.11 51.32H54a18.31 18.31 0 00-.42-3.69c-.21-1.07-.3-2.15-.47-3.23s-.37-2-.55-3.07c-.12-.76-.23-1.53-.34-2.3-.14-1-.28-2-.43-2.94v-.15l-.15-3.3a2.6 2.6 0 01.44.23l2.72 2.41c.52.46 1.06.91 1.59 1.36-.14 0-.17.1 0 .16l.57 1.57A20.44 20.44 0 0158 42.28a15.48 15.48 0 01.1 2.72 7 7 0 01-1 3.25 9.33 9.33 0 01-2.99 3.07z"/><path class="e" d="M42.11 21.21l-.91-1.92-.12-.44a4 4 0 00.63-.44 18.64 18.64 0 012.47-2.23.69.69 0 010 .29q-1.04 2.37-2.07 4.74z"/><path class="d" d="M37.06 54.13c.15-.24.28-.49.44-.71s.5-.61.75-.92l1.49 1.77z"/><path class="b" d="M21.65 41.08a2.63 2.63 0 01.29.37c.12.21.2.45.3.67l.15.3a5.16 5.16 0 00.51 2c.24.78.55 1.55.85 2.32.22.57.45 1.13.71 1.69.52 1.13 1 2.27 1.62 3.37.69 1.28 1.41 2.56 2.21 3.79 1 1.55 2.09 3 3.14 4.58A23.53 23.53 0 0030 62.14c-.43.75-.76 1.57-1.13 2.36h-.14c-.61-.15-1.21-.31-1.82-.44a27.18 27.18 0 01-5.51-1.75 1.42 1.42 0 00-.36 0 .35.35 0 010-.14c-.09-.77-.17-1.54-.26-2.32a2.58 2.58 0 010-.29c-.05-2.31-.19-4.62-.11-6.92 0-1.25.05-2.5.12-3.75s.16-2.48.29-3.71.28-2.16.44-3.24c.02-.31-.16-.63.13-.86z"/><path class="e" d="M36 65.36h.28a21.11 21.11 0 001.56 1.44c1.38 1.1 2.72 2.2 4.16 3.11 1.11.76 2.31 1.38 3.48 2 .61.35 1.23.67 1.85 1a12.23 12.23 0 01-3.67 3 14.4 14.4 0 01-4.46 1.79 15.79 15.79 0 01-3 .38 6 6 0 01-4.29-1.77 9.42 9.42 0 01-2.58-5.29 11.94 11.94 0 01-.11-2.86 16.6 16.6 0 01.49-2.49c.06-.31.15-.61.23-.92l1.88.17 1.59.17c.88.13 1.75.2 2.59.27z"/><path class="a" d="M51.89 64.36l2.11-.45-.15 1.63c-.56-.3-1.13-.6-1.69-.92-.16-.05-.16-.17-.27-.26z"/><path class="g" d="M32.32 43.9a6.33 6.33 0 01-.6-.79c-.92-1.7-1.87-3.38-2.7-5.11s-1.4-3.2-2-4.83c-.55-1.45-1-2.93-1.49-4.4-.12-.39-.19-.8-.31-1.19a2.58 2.58 0 00-.31-.45c.49-1.55.95-3.11 1.48-4.65.83-2.37 1.76-4.71 2.8-7a44.47 44.47 0 013.88-6.81A19.93 19.93 0 0136 5.19c.44-.41.95-.75 1.51-1.2v1a20.07 20.07 0 00.31 4v.15l-.88.65a32.77 32.77 0 00-4.28 3.69 12.22 12.22 0 00-2.74 4 10.65 10.65 0 00-.69 3 26.54 26.54 0 00.3 5.56c.18 1.41.46 2.82.74 4.22.35 1.71.68 3.42.89 5.15s.48 3.31.72 5c.07.46.12.92.18 1.37z"/><path class="k" d="M36 65.36c-.87-.07-1.74-.14-2.61-.23L31.83 65 30 64.79l-1-.29c.37-.79.7-1.61 1.13-2.36a23.53 23.53 0 011.39-1.93c.58.65 1.14 1.31 1.73 1.95.82.88 1.65 1.74 2.46 2.62a6 6 0 01.29.58z"/><path class="d" d="M32.32 43.9l-.27-2c-.06-.45-.11-.91-.18-1.37-.24-1.65-.52-3.3-.72-5s-.54-3.44-.89-5.15c-.28-1.4-.56-2.81-.74-4.22a26.54 26.54 0 01-.3-5.56 10.65 10.65 0 01.69-3 12.22 12.22 0 012.74-4 32.77 32.77 0 014.28-3.69l.88-.65c.14.55.31 1.1.42 1.66a39.25 39.25 0 002.12 6.42c.22.53.49 1 .73 1.56l.12.44a.71.71 0 00-.69.34 9.36 9.36 0 00-2 3.83c-.14.73-.24 1.47-.37 2.21-.16.93-.32 1.86-.5 2.78q-.41 2-.84 4.05c-.23 1.08-.49 2.16-.75 3.24-.53 2.21-1.08 4.41-1.61 6.62-.27 1.07-.52 2.16-.79 3.23 0 0-.07.06-.11.09s0 0-.07 0a3.28 3.28 0 01-1.15-1.83z"/><path class="b" d="M56.34 36.79c-.17-.06-.14-.11 0-.16z"/><path class="i" d="M22.39 42.42l-.15-.3z"/></svg>