<svg xmlns="http://www.w3.org/2000/svg" width="205.4" height="119" viewBox="0 0 153.9 89.6">
  <path fill="#fff" d="m122 30 6 1h6l8 1 5-23-27-3-1 13 3 11zm-3 37h1l-1-16v-5l-26 4 1 4 4 13h21zM50 20l1-5-25-4-2 5-7 24 28 1 2-12 3-9z"/>
  <path d="m86 52 8 7-1-3-5-5 4-10h2v-7a13 13 0 0 0-6 2v1l2 1h-2 4v1h1l-3 1Z" fill="#ede9f1"/>
  <path fill="#f58452" d="m117 79 3-1v3h-3v-2z"/>
  <path fill="#ede9f1" d="m120 56-6 28-3 2 1 1 2-1 2 3h2v-3l2 2 1-1-4-4 2-17 1-5v-5z"/>
  <path fill="#f58452" d="M105 81h-3v-2l5-1-2 3zm10 0-4 1v-3h4v2z"/>
  <path d="M102 78h-2l7-11h-2l-1 2-7 10a1 1 0 0 0 1 2l4-1Zm12-11-5 12 2-1v3l-5 1a1 1 0 0 1-1-1l6-12 1-2Z" fill="#ede9f1"/>
  <path d="m102 48-4-4 5-1 2 3 5-1 1 2Z" fill="#e1557a"/>
  <path fill="#ede9f1" d="M134 58V31l-1 1v3l-1 19m-7-24v12l1 3V31l-1-1z"/>
  <path fill="#ede9f1" d="m119 20 12 11 11-8 3-2-1 2-13 11-11-9-1-5z"/>
  <path d="m31 12 2-6h7v3h9c2 1-2 5-2 5ZM21 22h-2l5-7-2 8Z" fill="#ebb432"/>
  <path fill="#ede9f1" d="M27 40v16h2l-1-16h-1z"/>
  <path d="m54 14 6 34c1 5 20 31 20 31l-33-3Z" fill="#b29dd2"/>
  <path fill="#ede9f1" d="m46 45 2-1 1 2v-1h1l1-2 4-3-4-5 1-2 5 7v1l-5 4v6h-3v-4l-2 1-1-3z"/>
  <path d="M11 74s17-15 26-33h8l3-12 2 4-2 11-2 1 1 3-3 23v5Z" fill="#b29dd2"/>
  <path fill="#ede9f1" d="m35 41 1 15h3l-2-15h-2zm15-8-3-4 1-1 2 2v3z"/>
  <path fill="#ebb432" d="m35 56 1 7h3l-1-7h-3zm-8 0h1l1 7h-3v-7h1z"/>
  <path fill="#ede9f1" d="m22 25 15 11 11-11v-3l3-1h2l1 3v4l-2 1v-2l-3 1-11 12-15-12-2-1 1-2z"/>
  <path d="M29 15a1 1 0 0 1-2 0 1 1 0 0 1 0-2 1 1 0 0 1 2 0 1 1 0 0 1 0 2Z" fill="#e1557a"/>
  <path d="M33 15a1 1 0 0 1-2 1 1 1 0 0 1 0-2 1 1 0 0 1 2-1 1 1 0 0 1 0 2Z" fill="#ebb432"/>
  <path d="M37 16a1 1 0 0 1-2 0 1 1 0 0 1 0-2 1 1 0 0 1 2 0 1 1 0 0 1 0 2Z" fill="#f58452"/>
  <path d="M123 10a1 1 0 0 1-2 1 1 1 0 0 1 0-2 1 1 0 0 1 2-1 1 1 0 0 1 0 2Z" fill="#e1557a"/>
  <path d="M127 10a1 1 0 0 1-2 1 1 1 0 0 1 0-2 1 1 0 0 1 2-1 1 1 0 0 1 0 2Z" fill="#ebb432"/>
  <path d="M131 11a1 1 0 0 1-2 0 1 1 0 0 1 0-2 1 1 0 1 1 2 2Z" fill="#f58452"/>
  <path d="M97 52a1 1 0 1 1 0-1 1 1 0 0 1 0 1Z" fill="#e1557a"/>
  <path d="M101 52a1 1 0 1 1-1-2 1 1 0 0 1 1 2Z" fill="#ebb432"/>
  <path d="M104 51a1 1 0 1 1 0-1 1 1 0 0 1 0 1Z" fill="#f58452"/>
  <path d="M83 85v-1c-1-1-20-27-23-36S52 5 52 4a1 1 0 0 1 0-1l32 4 33-4a1 1 0 0 1 0 1 245 245 0 0 0 8 38c9 17 25 35 25 35a1 1 0 1 1-1 1c0-1-15-18-25-36a241 241 0 0 1-8-38L84 8 53 4c1 5 5 36 8 44 3 9 22 36 22 36v1Z" fill="#2f1d4a"/>
  <path d="M51 7a1 1 0 0 1 0-1l1-3a1 1 0 0 1 1 1l-1 3a1 1 0 0 1-1 0Zm37 74a1 1 0 0 1-1 0v-1l9-3a1 1 0 0 1 1 0 1 1 0 0 1-1 1l-8 3Zm64-1a1 1 0 0 1-1 0l-2-2-20-2a1 1 0 0 1-1 0 1 1 0 0 1 1-1l21 2 2 2a1 1 0 0 1 0 1ZM2 74a1 1 0 0 1-1-1 1 1 0 0 1 1 0l5-1a1 1 0 0 1 1 1 1 1 0 0 1-1 0l-5 1Zm48-3a1 1 0 0 1 0-1l11-1 1-3 2 2 1-2 2 3h4l-1 1h-4a21 21 0 0 0-1-2v1l-1 1-2-2v2l-12 1Zm-20 1a1 1 0 0 1 0-1h13a1 1 0 0 1 0 1H31ZM9 73a1 1 0 0 1 0-1 147 147 0 0 0 15-16 1 1 0 1 1 1 1 151 151 0 0 1-15 15l13-1a1 1 0 0 1 0 1L9 73ZM55 5a1 1 0 0 1-1-1l1-4h1a1 1 0 0 1 0 1l-1 3v1Zm60-1V1a1 1 0 0 1 0-1 1 1 0 0 1 1 1v3a1 1 0 0 1-1 0ZM85 84l-1-7h3l-1 7h-1z" fill="#2f1d4a"/>
  <path d="m85 84-1-7a1 1 0 0 1 1 0h2v1l-1 6h-1Zm0-6v4l1-4Zm67 1v-5h1l-1 5z" fill="#2f1d4a"/>
  <path d="m152 80-1-1v-5a1 1 0 0 1 1-1h1a1 1 0 0 1 1 1l-2 6Zm0-6v2l1-2ZM2 73l-1-5h1v5z" fill="#2f1d4a"/>
  <path d="M2 74a1 1 0 0 1-1-1l-1-5a1 1 0 0 1 0-1h2a1 1 0 0 1 1 1l-1 5a1 1 0 0 1 0 1Zm-1-6 1 2v-2Zm28 11h-5v-1a5 5 0 0 1 0-2 7 7 0 0 1 2-2V42a1 1 0 0 1 1 0v32a1 1 0 0 1 0 1 6 6 0 0 0-2 2 4 4 0 0 0 0 1h5l-2-38h1l2 38a1 1 0 0 1 0 1h-2Z" fill="#2f1d4a"/>
  <path d="m31 78-2 1h-5a6 6 0 0 1 1-3 6 6 0 0 1 2-2V63h3Z" fill="#2f1d4a"/>
  <path d="M29 79h-5v-1a5 5 0 0 1 0-2 7 7 0 0 1 2-2V63a1 1 0 0 1 1 0h3l1 15a1 1 0 0 1 0 1h-2Zm-4-1h5l-1-14h-2v10a1 1 0 0 1 0 1 6 6 0 0 0-2 1 4 4 0 0 0 0 2Zm19-2a1 1 0 0 0-1-1l-2-1-1-11h-3l1 15 5 1Z" fill="#2f1d4a"/>
  <path d="M43 79h-5a1 1 0 0 1-1-1l-1-15a1 1 0 0 1 1 0h3l2 11 2 1a2 2 0 0 1 0 1v3h-1Zm-5-1h5v-2l-2-1a1 1 0 0 1 0-1l-2-10h-2Z" fill="#2f1d4a"/>
  <path d="M43 79h-5a1 1 0 0 1-1-1l-2-37v-1h2a1 1 0 0 1 0 1l5 33 2 1a2 2 0 0 1 0 1v3h-1Zm-5-1h5v-2l-2-1a1 1 0 0 1 0-1l-5-33Z" fill="#2f1d4a"/>
  <path d="M49 83a1 1 0 0 1 0-1 17 17 0 0 0 0-2 23 23 0 0 0-2 2h-1a25 25 0 0 0 1-4 39 39 0 0 0-3 4h-1a7 7 0 0 0-2-1 3 3 0 0 0 1 1 1 1 0 0 1-1 0 3 3 0 0 1-1-2 1 1 0 0 1 1 0l2 1c4-5 4-4 5-4v3l2-1v4a1 1 0 0 1-1 0Zm1-38 2-18a1 1 0 0 1 1 0l-2 18a1 1 0 0 1-1 0Z" fill="#2f1d4a"/>
  <path d="M44 82h-1a1 1 0 0 1 0-1l4-33 1-1v1l-4 33 2-3 3-28a1 1 0 1 1 1 0l-3 28-3 4Zm4-38a1 1 0 0 1 0-1l2-16a1 1 0 0 1 1 0l-2 17a1 1 0 0 1-1 0Zm5-22V11l-1 10a1 1 0 0 1-1 1 1 1 0 0 1 0-1l1-14a1 1 0 0 1 1 0l1 7v8a1 1 0 0 1-1 0ZM29 56h-2a1 1 0 0 1-1 0 1 1 0 0 1 1-1h2a1 1 0 0 1 1 1 1 1 0 0 1-1 0Zm10 0h-3a1 1 0 0 1 0-1h3a1 1 0 0 1 0 1Zm81 12h-1a1 1 0 0 1-1-1h2l-1-21-26 4 6 17h18a1 1 0 0 1 1 0l-1 1H98v-1l-6-17 27-5h1l1 22v1h-1Z" fill="#2f1d4a"/>
  <path d="m93 59-8-7 4-12a1 1 0 0 1 1 0l-4 12 8 6a1 1 0 0 1-1 1Z" fill="#2f1d4a"/>
  <path d="m93 56-5-5h-1l4-10a1 1 0 0 1 1 0h2v-6a13 13 0 0 0-5 1v1a1 1 0 0 1-1 1 1 1 0 0 1 0-1v-1a14 14 0 0 1 6-2 1 1 0 0 1 1 1v6a1 1 0 0 1-1 1h-2l-3 9 4 4v1Z" fill="#2f1d4a"/>
  <path d="M85 41a1 1 0 0 1-1 0 5 5 0 0 1 0-3 1 1 0 0 1 0-1h4a1 1 0 1 1 0 1h-3a4 4 0 0 0 0 2l6-1a1 1 0 0 1 0 1l-6 1Zm9-1a1 1 0 0 1 0-1l3-1h-3v-1h4a4 4 0 0 1 0 2l-3 1Z" fill="#2f1d4a"/>
  <path d="M99 41a12 12 0 0 1-3 0v-2a1 1 0 0 1 0-1 1 1 0 0 1 1 1v1a11 11 0 0 0 4 0v-6a7 7 0 0 0-4 0v3a1 1 0 0 1-1 1 1 1 0 0 1 0-1v-3a1 1 0 0 1 0-1 8 8 0 0 1 6 0 1 1 0 0 1 0 1v7h-1a10 10 0 0 1-2 0Zm-6-1-1-1h-1v-2a1 1 0 0 1 1 0h2a1 1 0 0 1 1 1h-3l1 1a1 1 0 0 1 0 1Z" fill="#2f1d4a"/>
  <path d="M92 39h-2a1 1 0 0 1 0-1h-2a1 1 0 0 1 0-1h2v1h2a1 1 0 0 1 0 1Z" fill="#2f1d4a"/>
  <path d="M92 38a1 1 0 0 1-1-1v-2a1 1 0 0 1 0-1 1 1 0 0 1 1 1v3Zm1 0a1 1 0 0 1 0-1v-2a1 1 0 0 1 1 0v2a1 1 0 0 1-1 1Zm13 10-4-5c-4-1-5 1-5 1l3 3v1a1 1 0 0 1-1 0l-3-3a1 1 0 0 1 0-1 3 3 0 0 1 1-2h6l4 5a1 1 0 0 1 0 1h-1Z" fill="#2f1d4a"/>
  <path d="M111 47a3 3 0 0 0-3-3l-3 2a1 1 0 0 1 0-1l2-1v-1a4 4 0 0 1 5 4h-1Zm-7 14a1 1 0 0 1 0-1l3-1a1 1 0 0 1 1 1 1 1 0 0 1-1 0l-2 1Zm3-3h-4a1 1 0 0 1 0-1h4a1 1 0 1 1 0 1Z" fill="#2f1d4a"/>
  <path d="M109 60a1 1 0 0 1 0-1v-2a1 1 0 0 1 0-1 1 1 0 0 1 1 1v2a1 1 0 0 1-1 1Zm-6 2a1 1 0 0 1-1 0 3 3 0 0 1 0-3 1 1 0 0 1 1 0v1a2 2 0 0 0 0 1 1 1 0 0 1 0 1Zm13 28a1 1 0 0 1-1-1l-1-2h-2a1 1 0 0 1-1 0l-1-1a1 1 0 0 1 0-1l4-2 5-27 1-1a1 1 0 0 1 0 1l-5 28h-1l-2 2h2a1 1 0 0 1 1 0l1 3 2-1v-2l2 1-4-3v-1l3-17a1 1 0 0 1 1 0l-3 17 4 3 1 1a1 1 0 0 1-1 0v1a1 1 0 0 1-1 0l-1-1v2l-3 1Z" fill="#2f1d4a"/>
  <path d="M117 90v-1l-1-3a1 1 0 0 1 1 0l1 3a1 1 0 0 1-1 0Zm2-44-26 4 1 4 25-3Zm-22 6a1 1 0 1 1 0-1 1 1 0 0 1 0 1Zm4 0a1 1 0 1 1-1-2 1 1 0 0 1 1 2Zm3-1a1 1 0 1 1 0-1 1 1 0 0 1 0 1Zm-4 28a1 1 0 0 1 0-1l6-11a1 1 0 0 1 1 0l-6 10h4a1 1 0 0 1 0 1l-5 1Z" fill="#2f1d4a"/>
  <path d="M98 81a1 1 0 0 1-1-2l7-11a1 1 0 1 1 0 1l-6 11h7a1 1 0 1 1 0 1h-7Zm11-2a1 1 0 0 1-1-1l5-11a1 1 0 1 1 1 1l-4 10 5-1a1 1 0 0 1 1 0v1l-7 1Zm17 1a12 12 0 0 1-2 0h-6l1-1h5a13 13 0 0 0 2 0 3 3 0 0 0 1 0l-4-5-3 2-2 1a1 1 0 0 1-1 0 1 1 0 0 1 1-1l2-1 2-2a1 1 0 0 1 1 0c3 1 5 6 5 6a1 1 0 0 1 0 1 4 4 0 0 1-2 0Z" fill="#2f1d4a"/>
  <path d="M106 82a1 1 0 0 1-1 0 1 1 0 0 1 0-2l6-12a1 1 0 0 1 1 0v1l-6 12 9-1v1l-9 1Zm14-6a5 5 0 0 0-2-2v2Z" fill="#2f1d4a"/>
  <path d="M118 77a1 1 0 0 1-1 0v-1l1-2a6 6 0 0 1 2 2l-2 1Zm0-2v1h1a5 5 0 0 0-1-1Zm-2-2h-1l-2 3h-2a3 3 0 0 1 1 2l3-1Z" fill="#2f1d4a"/>
  <path d="M112 78a2 2 0 0 0-1-1 1 1 0 0 1 0-1l2-1 2-2h1a1 1 0 0 1 1 1l-1 3a1 1 0 0 1-1 1h-3Zm0-2a3 3 0 0 1 0 1h3v-3l-2 2Zm14 4a5 5 0 0 0 2-1s-2-4-5-5l-3 2h-1a5 5 0 0 1 1 4l4-1a14 14 0 0 0 2 1Z" fill="#2f1d4a"/>
  <path d="M126 80a12 12 0 0 1-2 0h-4a5 5 0 0 0-2-3 1 1 0 0 1 0-1 1 1 0 0 1 1 0l1-1 2-2a1 1 0 0 1 1 0c3 1 5 6 5 6a4 4 0 0 1-2 1Zm-2-1a13 13 0 0 0 2 0 3 3 0 0 0 1 0l-4-5-3 2v1a6 6 0 0 1 1 2h2Zm-13 3a1 1 0 0 1 0-1l-1-3a1 1 0 0 1 1 0l1 3-1 1Zm-9-1a1 1 0 0 1 0-1v-2a1 1 0 0 1 1 0v2a1 1 0 0 1-1 1ZM45 42l-28-2 8-30a1 1 0 0 1 1 0l25 4a1 1 0 0 1 0 1l-1 5a1 1 0 0 1-1 0l1-5-24-4-8 28 26 2 3-12a1 1 0 1 1 1 1l-3 12ZM21 22a7 7 0 0 1-2-1 1 1 0 0 1-1-1l4-6a1 1 0 0 1 1 0v1a36 36 0 0 0-3 5 5 5 0 0 0 1 1 1 1 0 0 1 0 1Z" fill="#2f1d4a"/>
  <path d="M46 15v-1l4-4a1 1 0 0 0 0-1c-2-2-12 0-19 2a1 1 0 1 1 0-1c3-1 17-5 20-2a2 2 0 0 1 0 2c-1 3-4 4-5 5Z" fill="#2f1d4a"/>
  <path d="M39 9a1 1 0 0 1-1-1 11 11 0 0 0-1-3l-4 1-1 2a1 1 0 0 1-1 0l1-3 5-1a1 1 0 0 1 1 0 12 12 0 0 1 1 4 1 1 0 0 1 0 1Z" fill="#2f1d4a"/>
  <path d="M50 9c-1-1-2-2-11 0a1 1 0 0 1-1-1 1 1 0 0 1 1 0c10-2 11 0 12 0a1 1 0 0 1-1 1Z" fill="#2f1d4a"/>
  <path d="m39 8-8 2a20 20 0 0 1 8-3 10 10 0 0 1 0 1" fill="#2f1d4a"/>
  <path d="M31 11a1 1 0 0 1 0-1 20 20 0 0 1 8-3 9 9 0 0 1 0 1 1 1 0 0 1 0 1l-8 2Zm7-3a20 20 0 0 0-3 1l3-1Zm-3 21-6-2v-1l7 2a1 1 0 0 1 0 1 1 1 0 0 1-1 0Zm1-1v-1l-5-3a1 1 0 0 1-1-1h1l6 4a1 1 0 0 1-1 1Zm1 3a1 1 0 0 1 0-1 4 4 0 0 0 2-3 1 1 0 0 1 0-1l1 1a5 5 0 0 1-2 4h-1Z" fill="#2f1d4a"/>
  <path d="M38 40a1 1 0 0 1-1 0L23 29a1 1 0 0 1 1-1l14 11 11-12h3a1 1 0 0 1 1 0v1-1l1-3-1-2h-2l-2 1-1 2-10 12a1 1 0 0 1-1 0L21 25a1 1 0 0 1 1 0l15 11 10-11 1-3 3-1h3l1 2a1 1 0 0 1 0 1l-1 4-2 1v-1h-3L38 40Zm9 8-1-3a1 1 0 0 1 0-1l2-1a1 1 0 0 1 1 0v4a1 1 0 0 1 0 1h-1Zm0-3 1 2v-3Z" fill="#2f1d4a"/>
  <path d="M51 51h-2a1 1 0 0 1-1 0 1 1 0 0 1 0-1l1-5a1 1 0 0 1 0-1l3 1a1 1 0 0 1 1 0l-1 6h-1Zm-2-1h2l1-5h-2Z" fill="#2f1d4a"/>
  <path d="M52 49h-3a1 1 0 0 1-1 0 1 1 0 0 1 1-1h3a1 1 0 0 1 0 1Zm0-2h-3a1 1 0 0 1 0-1h3a1 1 0 0 1 0 1Zm-2-14a1 1 0 0 1-1 0l-1-2a1 1 0 1 1 1 0l1 1a1 1 0 0 1 0 1Zm1 11a1 1 0 0 1-1-1l4-3-3-5a1 1 0 1 1 1 0l3 5-4 4Z" fill="#2f1d4a"/>
  <path d="m52 45 4-4a1 1 0 0 0 0-1l-3-5a1 1 0 0 1 0-1l4 5a2 2 0 0 1 0 2l-4 4h-1Zm-2-14h-1v-1a1 1 0 0 1 0-1l1 1a1 1 0 0 1 0 1ZM26 11l-2 5 26 4 1-5Zm3 4a1 1 0 0 1-2 0 1 1 0 0 1 0-2 1 1 0 0 1 2 0 1 1 0 0 1 0 2Zm4 0a1 1 0 0 1-2 1 1 1 0 0 1 0-2 1 1 0 0 1 2-1 1 1 0 0 1 0 2Zm4 1a1 1 0 0 1-2 0 1 1 0 0 1 0-2 1 1 0 0 1 2 0 1 1 0 0 1 0 2Zm-8 35 4-8a1 1 0 0 1 1-1 1 1 0 0 1 0 1l-5 8Zm113-18-8-1a1 1 0 0 1 0-1l8 1 5-23-27-2-1-1a1 1 0 0 1 1 0l27 2a1 1 0 0 1 1 1l-5 23a1 1 0 0 1-1 1Zm-14-2h-6a1 1 0 1 1 0-1h6a1 1 0 0 1 0 1Z" fill="#2f1d4a"/>
  <path d="M129 22v-1l-1-3a1 1 0 0 1 1 0l1 3-1 1Zm3-4a1 1 0 0 1 0-1l7-1a1 1 0 0 1 1 0v1l-8 1Zm1 3a1 1 0 0 1-1-1 1 1 0 0 1 1 0l7-1a1 1 0 0 1 0 1l-7 1Zm-2 13-11-9a1 1 0 0 1 1-1l10 9 13-10a1 1 0 0 1 0 1l-13 10Z" fill="#2f1d4a"/>
  <path d="m131 31-12-10a1 1 0 0 1 0-1 1 1 0 0 1 1 0l11 10 10-7a1 1 0 0 1 1 0 1 1 0 0 1 0 1l-11 7Zm1 24a1 1 0 0 1 0-1V35a1 1 0 0 1 1-1 1 1 0 0 1 0 1v20a1 1 0 0 1-1 0Zm2 3V33a1 1 0 1 1 1 0v25a1 1 0 0 1-1 0Zm-8-13-2-2V30a1 1 0 0 1 1 0v12l1 1V31a1 1 0 0 1 0-1l1 1v14h-1Zm-6-39-1 6 27 2 1-5Zm3 4a1 1 0 0 1-2 1 1 1 0 0 1 0-2 1 1 0 0 1 2-1 1 1 0 0 1 0 2Zm4 0a1 1 0 0 1-2 1 1 1 0 0 1 0-2 1 1 0 0 1 2-1 1 1 0 0 1 0 2Zm4 1a1 1 0 0 1-2 0 1 1 0 0 1 0-2 1 1 0 1 1 2 2ZM99 35h-1v-1h3v-1a1 1 0 0 1 1 1 1 1 0 0 1-1 1 4 4 0 0 1-2 0Z" fill="#2f1d4a"/>
</svg>
