<svg width="318" height="104" fill="none" xmlns="http://www.w3.org/2000/svg"><path stroke="#2B1D38" d="M2 11.5h309"/><rect x=".5" y=".5" width="52" height="23" rx="11.5" fill="#fff"/><path d="M17.6 7.6l1.1.1 1 .5.6.8.2 1c0 .7-.2 1.2-.5 1.6a2.6 2.6 0 01-1.2.8l1.8 3.2a.3.3 0 010 .1.3.3 0 010 .2.2.2 0 01-.2.1h-.6l-.3-.1a1.3 1.3 0 01-.2-.2l-1.7-3h-2v3a.3.3 0 01-.2.2.3.3 0 01-.2.1h-.5a.3.3 0 01-.2-.1.3.3 0 01-.1-.2V7.9v-.2a.3.3 0 01.3-.1h3zm-2 4h2c.5 0 1-.2 1.3-.4.3-.2.5-.6.5-1.1 0-.5-.2-.9-.5-1.1-.3-.2-.8-.3-1.4-.3h-2v2.8zm9-2l1 .2 1 .6.5.8a3.3 3.3 0 01.3 1.4v.6a3.8 3.8 0 01-.3 1.3 2.5 2.5 0 01-.5.9l-1 .5a3.2 3.2 0 01-1 .2 3.2 3.2 0 01-1.2-.2 2.7 2.7 0 01-.9-.5 2.6 2.6 0 01-.6-.9 3.6 3.6 0 01-.2-1 6 6 0 010-.3v-.6a8 8 0 010-.3l.2-1 .6-1 .9-.5a3 3 0 011.1-.2zm1.7 3.8a4.3 4.3 0 000-1 2.6 2.6 0 00-.2-.7 1.5 1.5 0 00-.8-.9 1.9 1.9 0 00-.8-.1l-.7.1a1.5 1.5 0 00-.9.9l-.1.7a4.8 4.8 0 000 .5v.5l.1.7a1.5 1.5 0 00.9.9h1.5a1.5 1.5 0 00.8-1l.2-.6zm5.2-3.8l1.1.2.9.6.5.8a3.3 3.3 0 01.3 1.4v.6a3.8 3.8 0 01-.3 1.3 2.5 2.5 0 01-.5.9l-.9.5a3.2 3.2 0 01-1.1.2 3.2 3.2 0 01-1.2-.2 2.7 2.7 0 01-.9-.5 2.6 2.6 0 01-.5-.9 3.6 3.6 0 01-.3-1 6 6 0 010-.3v-.6a8 8 0 010-.3c0-.4.1-.7.3-1l.5-1 1-.5a3 3 0 011-.2zm1.7 3.8a4.3 4.3 0 000-1 2.6 2.6 0 00-.1-.7 1.5 1.5 0 00-1-.9 1.9 1.9 0 00-.6-.1l-.8.1a1.5 1.5 0 00-.8.9l-.2.7a4.8 4.8 0 000 .5v.5c0 .2 0 .4.2.7a1.5 1.5 0 00.8.9h1.5a1.5 1.5 0 00.9-1l.1-.6zm4.2.5v.4l.2.4a.7.7 0 00.3.2H39l.3.2V15.7a.3.3 0 010 .2.3.3 0 01-.3.1h-.7c-.7 0-1.2-.2-1.5-.5-.4-.4-.5-1-.5-1.6v-3.1h-.9a.3.3 0 01-.2-.1.3.3 0 01-.1-.2V10v-.2a.3.3 0 01.3-.1h.9v-2-.2a.3.3 0 01.3-.1h.7v2.3h1.8l.1.3v.4a.3.3 0 010 .2.3.3 0 01-.3 0h-1.5V14z" fill="#2B1D38"/><rect x=".5" y=".5" width="52" height="23" rx="11.5" stroke="#2B1D38"/><rect x="61.5" y=".5" width="63" height="23" rx="11.5" fill="#fff"/><path d="M78.8 7.6c.4 0 .7 0 1 .2.4 0 .7.2 1 .4.3.2.5.5.6.8.2.3.3.7.3 1.1 0 .5-.1.9-.3 1.2-.1.3-.3.6-.6.8a2.6 2.6 0 01-1 .5 3.8 3.8 0 01-1 .1h-2.2v3a.3.3 0 01-.1.2.3.3 0 01-.3.1h-.4a.3.3 0 01-.3-.1.3.3 0 010-.2V7.9v-.2a.3.3 0 01.3-.1h3zm-2.2 4h2.1c.6 0 1 0 1.4-.3.3-.3.4-.6.4-1.2 0-.5-.1-.8-.4-1-.4-.3-.8-.4-1.4-.4h-2.1v3zm5.8 2.8c0-.3 0-.6.2-.8l.5-.6.8-.4a6 6 0 011-.3l1.7-.2v-.2c0-.4-.2-.7-.4-1l-1-.2c-.4 0-.7 0-.8.2a2 2 0 00-.5.4.4.4 0 01-.2.2.6.6 0 01-.2 0h-.3a.4.4 0 01-.3-.1.3.3 0 010-.2 1.2 1.2 0 01.1-.6 2 2 0 01.5-.5 3 3 0 011.7-.5c.3 0 .7 0 1 .2l.8.5.5.7.2 1v3.7a.3.3 0 01-.1.2.3.3 0 01-.3.1H87a.3.3 0 01-.2-.1.3.3 0 01-.1-.2v-.5a1.1 1.1 0 01-.4.4 2.4 2.4 0 01-.5.3 3 3 0 01-.6.2 3.1 3.1 0 01-.6 0l-.9-.1a2.2 2.2 0 01-.6-.4 1.7 1.7 0 01-.4-.5 1.6 1.6 0 01-.2-.7zm2.2.7l.8-.1.6-.4.4-.6.2-.7V13l-1.4.2c-.6.1-1 .2-1.2.4-.3.2-.5.4-.5.7v.3l.3.2.3.2h.5zm8-5.3h.2l.1.3v.4a.3.3 0 010 .2.3.3 0 01-.3 0h-.7c-1 0-1.4.6-1.4 1.5v3.5a.3.3 0 010 .2.3.3 0 01-.3.1h-.5a.3.3 0 01-.2-.1.3.3 0 010-.2V10v-.2a.3.3 0 01.2-.1h.7l.1.3v.4l.6-.6.9-.1h.6zm1 2.5a3.2 3.2 0 01.8-1.9l.8-.6a2.8 2.8 0 011-.2 2.9 2.9 0 011.2.3c.4 0 .7.3 1 .6a2.7 2.7 0 01.5 1l.1 1.2v.3a.3.3 0 010 .2.3.3 0 01-.3.1h-4.1v.1c0 .5.2 1 .5 1.3.3.2.7.4 1.2.4.4 0 .7 0 1-.2l.5-.4a.7.7 0 01.2-.1.5.5 0 01.2 0h.6v.2a1.3 1.3 0 01-.1.5 1.9 1.9 0 01-.5.5 3 3 0 01-.8.4l-1.1.1c-.4 0-.8 0-1.1-.2-.3-.1-.6-.3-.8-.6a3 3 0 01-.6-.8 3.5 3.5 0 01-.3-1.1 5 5 0 010-1.1zm1 0H98c0-.5-.2-.9-.5-1.2-.3-.3-.7-.4-1.2-.4a1.7 1.7 0 00-1.2.4 1.4 1.4 0 00-.4.5l-.1.7zm11.4 3.4a.3.3 0 010 .2.3.3 0 01-.3.1h-.4a.3.3 0 01-.3-.1.3.3 0 010-.2v-3.2c0-.6-.2-1-.5-1.4-.3-.3-.7-.4-1.2-.4s-1 .1-1.3.4c-.3.3-.4.8-.4 1.4v3.2a.3.3 0 01-.1.2.3.3 0 01-.2.1h-.5a.3.3 0 01-.2-.1.3.3 0 01-.1-.2V10v-.2a.3.3 0 01.3-.1h.7v.7l.8-.6c.3-.2.7-.3 1.1-.3l1 .2c.4.2.7.3 1 .6l.4.8c.2.3.2.7.2 1.1v3.4zm3.3-1.8v.4l.2.4a.7.7 0 00.3.2h1.2l.2.2c.1 0 0 .1 0 .2v.4a.3.3 0 010 .2.3.3 0 01-.2.1h-.8c-.7 0-1.2-.2-1.5-.5-.3-.4-.5-1-.5-1.6v-3.1h-.9a.3.3 0 01-.2-.1.3.3 0 010-.2V10v-.2a.3.3 0 01.2-.1h1v-2-.2a.3.3 0 01.3-.1H109.2l.1.3v2h1.8v.7a.3.3 0 010 .2.3.3 0 01-.3 0h-1.5V14z" fill="#2B1D38"/><rect x="61.5" y=".5" width="63" height="23" rx="11.5" stroke="#2B1D38"/><g filter="url(#filter0_d)"><mask id="a" fill="#fff"><path d="M47 34a4 4 0 014-4h257a4 4 0 014 4v63a4 4 0 01-4 4H51a4 4 0 01-4-4V34z"/></mask><path d="M47 34a4 4 0 014-4h257a4 4 0 014 4v63a4 4 0 01-4 4H51a4 4 0 01-4-4V34z" fill="#fff"/><path d="M51 31h257v-2H51v2zm260 3v63h2V34h-2zm-3 66H51v2h257v-2zM48 97V34h-2v63h2zm3 3a3 3 0 01-3-3h-2a5 5 0 005 5v-2zm260-3a3 3 0 01-3 3v2a5 5 0 005-5h-2zm-3-66a3 3 0 013 3h2a5 5 0 00-5-5v2zM51 29a5 5 0 00-5 5h2a3 3 0 013-3v-2z" fill="#C6BECF" mask="url(#a)"/></g><path d="M59 74h16v16H59V74zm9.5 13.2c.3.5.7 1 1.3 1.2.8.4 1.6.4 2.5.2a2 2 0 001.5-1.8A2 2 0 0073 85a4 4 0 00-1-.6l-1-.4-.4-.3a.7.7 0 01.4-1.1c.4-.1.7 0 1 .4l.2.2 1.1-.7a2 2 0 00-1.4-1.2h-1.2c-1 .2-1.6.8-1.7 1.8 0 .7.1 1.3.7 1.7l1.1.7 1 .4.2.2c.4.3.3.9 0 1.1a1.6 1.6 0 01-2-.5l-.2-.2-1.3.7zm-5.3.2c.2.5.6.8 1 1 .7.4 1.4.4 2 .2s1.2-.6 1.4-1.3l.1-.9v-5h-1.5v5.2l-.1.4c0 .2-.2.3-.4.4-.5 0-.8 0-1-.4l-.3-.4-1.2.8z" fill="#F6DE1E"/><path d="M68.5 87.2l1.2-.7.2.3c.5.5 1 .7 1.7.6l.3-.2c.4-.2.5-.7.1-1a1 1 0 00-.3-.3l-.9-.4-1.2-.6A2 2 0 0169 83c0-1 .7-1.6 1.7-1.8h1.2c.6.2 1 .6 1.4 1.2l-1.2.7-.1-.2a1 1 0 00-1-.4c-.6.1-.7.7-.4 1.1l.4.3 1 .4 1 .6c.6.5.8 1.1.7 1.8 0 1-.6 1.6-1.4 1.8-.9.3-1.7.2-2.5-.2-.6-.2-1-.7-1.3-1.2zm-5.3.2l1.2-.8.3.4c.2.4.6.5 1 .4.2 0 .4-.2.4-.4l.1-.3V81.4h1.5V87.3c-.3.7-.7 1.2-1.4 1.4-.7.1-1.4.1-2-.2-.5-.3-.9-.7-1-1.1zM82 87h.3a.4.4 0 01.1.4v1a.4.4 0 010 .4.4.4 0 01-.4.1h-1a.4.4 0 01-.4-.1.4.4 0 010-.3v-1.1-.3a.4.4 0 01.3-.1H82zm4 0h.3a.4.4 0 01.1.4v1a.4.4 0 01-.1.4.4.4 0 01-.3.1h-1.1a.4.4 0 01-.3-.1.4.4 0 01-.1-.3v-1.1-.3a.4.4 0 01.4-.1h1zm4 0h.2a.4.4 0 01.2.4v1a.4.4 0 01-.2.4.4.4 0 01-.3.1h-1a.4.4 0 01-.4-.1.4.4 0 010-.3v-1.1-.3a.4.4 0 01.3-.1H90zm7.2-10.2a1 1 0 01.2-.3l.5-.2h.5l.2.1a.3.3 0 01.1.3v.1l-5.4 13a1 1 0 01-.2.3l-.5.1H92a.4.4 0 01-.2 0 .3.3 0 01-.1-.3v-.2L97.2 77zm10.8 5.2a59.4 59.4 0 010 2.7 6.2 6.2 0 01-.3 1.7l-.7 1.4a3.4 3.4 0 01-1.3 1c-.5.1-1.1.3-1.8.3s-1.3-.2-1.8-.4a3.4 3.4 0 01-1.3-.9 4 4 0 01-.7-1.4 6.6 6.6 0 01-.3-1.7 61.1 61.1 0 010-2.7c0-.7.1-1.2.3-1.8a4 4 0 01.7-1.4 3.4 3.4 0 011.3-1c.5-.1 1.1-.3 1.8-.3s1.3.2 1.8.4 1 .5 1.3 1c.3.3.5.8.7 1.3.2.6.3 1.1.3 1.8zm-6.7 2.7c0 1 .3 1.7.7 2.2.4.5 1 .7 1.9.7.8 0 1.5-.2 1.9-.7.4-.5.7-1.2.7-2.2a58.8 58.8 0 000-2.7c0-1-.3-1.8-.7-2.3-.4-.5-1-.7-1.9-.7-.8 0-1.5.2-1.9.7-.4.5-.7 1.2-.7 2.3a59.4 59.4 0 000 2.7zm16.8-2.7a65.7 65.7 0 010 2.7 6.2 6.2 0 01-.3 1.7c-.1.5-.4 1-.7 1.4a3.4 3.4 0 01-1.3 1c-.5.1-1 .3-1.8.3s-1.3-.2-1.8-.4a3.4 3.4 0 01-1.2-.9 4 4 0 01-.8-1.4 6.5 6.5 0 01-.2-1.7 58.8 58.8 0 010-2.7c0-.7 0-1.2.2-1.8.2-.5.4-1 .8-1.4.3-.4.7-.7 1.2-1 .5-.1 1.1-.3 1.8-.3s1.3.2 1.8.4c.6.2 1 .5 1.3 1 .3.3.6.8.7 1.3.2.6.3 1.1.3 1.8zm-6.6 2.7c0 1 .2 1.7.6 2.2.5.5 1.1.7 2 .7.8 0 1.4-.2 1.8-.7.5-.5.7-1.2.7-2.2a65.1 65.1 0 000-2.7c0-1-.2-1.8-.7-2.3-.4-.5-1-.7-1.9-.7-.8 0-1.4.2-1.9.7-.4.5-.6 1.2-.6 2.3a59.4 59.4 0 000 2.7zm13.1-7.9a1 1 0 01.2-.3l.5-.2h.5l.3.1a.3.3 0 010 .3.4.4 0 010 .1l-5.4 13a1 1 0 01-.2.3l-.5.1h-.4a.4.4 0 01-.3 0 .3.3 0 010-.3v-.2l5.3-12.9zm4.7 11.7a.4.4 0 01-.2.3.4.4 0 01-.3.1h-.6a.4.4 0 01-.3-.1.4.4 0 01-.1-.3V78l.1-.3a.4.4 0 01.3-.2h.6c.1 0 .2 0 .3.2a.4.4 0 01.2.3v10.5zm5.8-8a3.3 3.3 0 012.7 1c.3.2.5.6.7 1a4.5 4.5 0 01.4 1.8v1.2a5.1 5.1 0 01-.4 1.4 3.3 3.3 0 01-1.9 1.9l-1.5.3c-.6 0-1.1-.1-1.6-.3a3.6 3.6 0 01-1.1-.7 3.5 3.5 0 01-.8-1.2 4.8 4.8 0 01-.3-1.4 8 8 0 010-.3v-.9-.3a4.8 4.8 0 01.3-1.5c.2-.4.5-.8.8-1 .3-.4.7-.6 1.1-.8a4 4 0 011.6-.3zm2.3 5v-.7a6.4 6.4 0 000-.7 3.4 3.4 0 00-.2-1 2.2 2.2 0 00-.5-.6 2 2 0 00-.7-.5 2.5 2.5 0 00-1-.2c-.3 0-.6 0-1 .2a2 2 0 00-.6.5 2.2 2.2 0 00-.5.7 3.4 3.4 0 00-.2.9 6.4 6.4 0 000 .7v.6l.2 1 .5.6.7.5 1 .2c.4 0 .7 0 1-.2a2 2 0 001-1.2l.3-.9zm3-1.3a4.9 4.9 0 01.4-1.6 3.5 3.5 0 012-2 3.6 3.6 0 011.3-.2 3 3 0 011.6.4c.4.2.7.4.9.7v-.5l.1-.3a.4.4 0 01.3-.1h.6l.3.1a.4.4 0 01.2.3V89c0 1.1-.4 2-1 2.6-.6.7-1.6 1-2.8 1a5 5 0 01-1.7-.2 3.7 3.7 0 01-1-.6 2.6 2.6 0 01-.7-.8 2 2 0 01-.3-.8.4.4 0 01.1-.3.5.5 0 01.4-.1h.7l.3.4.1.3.4.3.6.3 1 .1h.9l.8-.4.5-.6.2-1v-1c-.2.3-.5.5-1 .7-.3.3-.8.4-1.5.4-.5 0-1-.1-1.4-.3a3.5 3.5 0 01-1.1-.7l-.8-1.2a4.9 4.9 0 01-.3-1.6 7.8 7.8 0 010-.6v-.5zm6.2 0c0-.8-.3-1.4-.7-1.8-.4-.4-1-.6-1.6-.6-.7 0-1.3.2-1.7.7-.4.4-.6 1-.7 1.8v.9c0 .8.3 1.4.7 1.8.4.5 1 .7 1.7.7s1.2-.2 1.6-.6c.4-.5.7-1 .7-1.8a9.3 9.3 0 000-1.1zm5.3 4.3a.4.4 0 01-.1.3.4.4 0 01-.3.1h-.6a.4.4 0 01-.3-.1.4.4 0 01-.1-.3V81v-.3a.4.4 0 01.4-.1h.6l.3.1a.4.4 0 01.1.3v7.5zm.2-9.6a.4.4 0 01-.2.3.4.4 0 01-.3.1h-.9a.4.4 0 01-.3-.1.4.4 0 01-.1-.3v-1l.1-.2a.4.4 0 01.3-.2h1s.2 0 .2.2a.4.4 0 01.2.3v.9zm9.6 9.6a.4.4 0 01-.1.3.4.4 0 01-.3.1h-.6a.4.4 0 01-.3-.1.4.4 0 01-.2-.3v-4.3c0-.8-.2-1.4-.5-1.8-.4-.4-1-.6-1.7-.6s-1.2.2-1.6.6c-.4.4-.6 1-.6 1.8v4.3a.4.4 0 01-.2.3.4.4 0 01-.3.1h-.6a.4.4 0 01-.3-.1.4.4 0 010-.3V81v-.3a.4.4 0 01.3-.1h.6l.3.1a.4.4 0 01.2.3v.5c.2-.3.5-.5.9-.7.4-.3.9-.4 1.5-.4.5 0 1 .1 1.4.3a2.9 2.9 0 011.1.7c.3.3.6.7.7 1.1.2.4.3 1 .3 1.5v4.5zm2.5 1a.4.4 0 01-.3 0 .4.4 0 01-.1-.3v-.6l.1-.3a.4.4 0 01.3 0h9.5a.4.4 0 01.1.3v.6a.4.4 0 010 .3.4.4 0 01-.4 0h-9.2zm15.7-.4c-.6 0-1.2-.2-1.6-.4l-.9-.7v3.5a.4.4 0 010 .3.4.4 0 01-.4.1h-.6a.4.4 0 01-.3 0 .4.4 0 01-.1-.4V81.1l.1-.3a.4.4 0 01.3-.1h.6l.3.1a.4.4 0 01.1.3v.5l1-.7c.3-.3.9-.4 1.5-.4a3.5 3.5 0 013.3 2.2 4.9 4.9 0 01.4 2.2v.5a4.9 4.9 0 01-.4 1.6 3.5 3.5 0 01-3.3 2.2zm-2.5-5a10.6 10.6 0 000 1.2c0 .8.3 1.4.7 1.8.4.4 1 .6 1.7.6s1.2-.2 1.6-.7c.4-.4.7-1 .7-1.8v-1c0-.7-.3-1.3-.7-1.7-.4-.5-1-.7-1.6-.7-.7 0-1.2.2-1.7.6-.4.4-.6 1-.7 1.7zm7.6 2.7a2.3 2.3 0 011-2 3.8 3.8 0 011-.5 8 8 0 011.2-.3l2.3-.4v-.2c0-.5-.2-1-.6-1.2a2 2 0 00-1.3-.4c-.5 0-.8 0-1 .3-.3.1-.5.3-.7.6a.5.5 0 01-.2.1.8.8 0 01-.3 0h-.5a.5.5 0 01-.3 0 .4.4 0 010-.3c0-.3 0-.5.2-.8l.7-.6a4 4 0 011-.5 3.6 3.6 0 011.1-.2c.5 0 1 0 1.3.2l1.1.6.7 1c.2.4.2.9.2 1.4v4.9a.4.4 0 010 .3.4.4 0 01-.4.1h-.6a.4.4 0 01-.3-.1.4.4 0 01-.1-.3v-.7a1.5 1.5 0 01-.5.6l-.7.3a4 4 0 01-.8.3h-.8l-1.1-.1a3 3 0 01-.9-.5 2.3 2.3 0 01-.6-.7 2.1 2.1 0 01-.1-.9zm2.9.9c.4 0 .7 0 1-.2.4-.1.6-.3.9-.5l.5-.7.2-1V85l-1.9.3c-.7.1-1.2.3-1.6.5-.4.3-.6.6-.6 1v.3l.3.3.5.3h.7zm6-3.5a4.9 4.9 0 01.3-1.6 3.5 3.5 0 011.9-2 3.6 3.6 0 011.4-.2 3 3 0 011.6.4c.4.2.7.4.9.7v-.5l.1-.3a.4.4 0 01.3-.1h.6l.3.1a.4.4 0 01.1.3V89c0 1.1-.3 2-.9 2.6-.6.7-1.6 1-2.8 1a5 5 0 01-1.7-.2 3.7 3.7 0 01-1.1-.6 2.6 2.6 0 01-.7-.8 2 2 0 01-.2-.8.4.4 0 01.1-.3.5.5 0 01.4-.1h.7l.3.4.1.3.3.3.7.3 1 .1h.9l.8-.4.5-.6.2-1v-1c-.2.3-.5.5-1 .7-.3.3-.8.4-1.5.4-.5 0-1-.1-1.4-.3a3.5 3.5 0 01-1.1-.7l-.8-1.2a4.9 4.9 0 01-.3-1.6 7.8 7.8 0 010-.6v-.5zm6 0c0-.8-.2-1.4-.6-1.8-.4-.4-1-.6-1.6-.6-.7 0-1.3.2-1.7.7-.4.4-.6 1-.7 1.8v.9c0 .8.3 1.4.7 1.8.4.5 1 .7 1.7.7.6 0 1.2-.2 1.6-.6.4-.5.7-1 .7-1.8a8.6 8.6 0 000-1.1zm3.6-.3a4.2 4.2 0 011-2.5l1.2-.7a3.8 3.8 0 011.4-.3c.6 0 1.1.1 1.6.3l1.1.8.8 1.3a5.2 5.2 0 01.2 1.7v.4a.4.4 0 01-.1.3.4.4 0 01-.3.1h-5.5v.1c0 .8.2 1.3.6 1.7.5.4 1 .6 1.6.6.6 0 1-.1 1.3-.3l.8-.5a1 1 0 01.2-.2.7.7 0 01.3 0h.8a.3.3 0 010 .4c0 .2 0 .4-.2.6-.1.3-.4.5-.7.7a4 4 0 01-1 .5 5 5 0 01-1.5.2c-.5 0-1-.1-1.4-.3a3.7 3.7 0 01-1.1-.8 4 4 0 01-.8-1.1 4.6 4.6 0 01-.3-1.5 6.7 6.7 0 010-1.5zm1.4 0h4.5a2 2 0 00-.6-1.5c-.5-.4-1-.6-1.7-.6a2.3 2.3 0 00-.8.2 2 2 0 00-.7.4 2 2 0 00-.5.7l-.2.8z" fill="#2B1D38"/><path d="M256 87.6a.4.4 0 01-.2.3.4.4 0 01-.3.1h-.7a.4.4 0 01-.3-.1.4.4 0 01-.1-.3v-8.8l-2.6 2a.4.4 0 01-.3 0 .5.5 0 01-.3-.1l-.4-.5a.4.4 0 010-.4.5.5 0 010-.2l3.5-2.7a.5.5 0 01.3 0l.2-.1h.7l.3.1a.4.4 0 01.1.3v10.4zm5.4-7l.3-.1h.3a4.4 4.4 0 011.6.3 3.7 3.7 0 012.2 2l.3 1.5a3.8 3.8 0 01-2.5 3.6 4.6 4.6 0 01-1.6.3 4.7 4.7 0 01-1.7-.3 4.3 4.3 0 01-1.3-.8 4 4 0 01-.9-1.3 3.8 3.8 0 01-.3-1.5 3.7 3.7 0 01.8-2.3l.4-.6 2.9-4.3.2-.2.3-.1h.9a.3.3 0 01.2.1.3.3 0 01.1.3.2.2 0 010 .2l-2.2 3.1zm-2 3.7l.1 1a2.5 2.5 0 001.4 1.2c.3.2.7.2 1 .2a3 3 0 001.1-.2c.4-.1.7-.3.9-.5l.5-.8a2.2 2.2 0 00.2-.9c0-.3 0-.6-.2-1a2.3 2.3 0 00-.5-.7 2.4 2.4 0 00-.9-.5 2.7 2.7 0 00-1-.2c-.4 0-.8 0-1.1.2a2.4 2.4 0 00-1.4 1.3 2.4 2.4 0 00-.2.9zm9.4 1l.2.5.5.5.7.3a5 5 0 002.2 0c.3 0 .6-.2.8-.4a1.9 1.9 0 00.7-1.5c0-.4 0-.6-.2-.9a1.5 1.5 0 00-.5-.6 2 2 0 00-.8-.3 4.7 4.7 0 00-1 0h-1.3a.4.4 0 01-.3-.2.4.4 0 01-.1-.3v-.6-.2l.3-.3 2.8-3h-4.6a.4.4 0 01-.3-.2.4.4 0 01-.1-.3v-.6l.1-.3a.4.4 0 01.3-.1h6.3l.3.1a.4.4 0 01.2.3v.6a.6.6 0 01-.1.3l-.2.3-2.9 3c.6 0 1 .1 1.5.3a3 3 0 012.1 3c0 .5 0 1-.3 1.5l-.8 1a3.9 3.9 0 01-1.3.7l-1.5.3c-.8 0-1.4-.1-1.9-.3l-1.3-.6a3 3 0 01-.7-1 2.6 2.6 0 01-.3-1l.1-.2a.4.4 0 01.3-.1h1a.4.4 0 01.1.3zm10-4.7a3.6 3.6 0 01.8-.7 2.3 2.3 0 01.6-.3h.8c.6 0 1.2 0 1.6.3.4.2.8.6 1 1l.4-.5.6-.5.7-.3h.9c1 0 1.9.2 2.4.9.4.6.7 1.5.7 2.6v4.5a.4.4 0 01-.1.3.4.4 0 01-.3.1h-.6a.4.4 0 01-.3-.1.4.4 0 01-.2-.3v-4.3c0-.8-.1-1.4-.4-1.8-.4-.4-.8-.6-1.5-.6-.5 0-1 .2-1.3.6-.4.3-.5 1-.5 1.7v4.4a.4.4 0 01-.2.3.4.4 0 01-.3.1h-.6a.4.4 0 01-.3-.1.4.4 0 01-.1-.3v-4.3c0-.8-.2-1.4-.5-1.8-.3-.4-.8-.6-1.4-.6-.5 0-1 .2-1.4.6-.3.3-.5 1-.5 1.7v4.4a.4.4 0 01-.1.3.4.4 0 01-.3.1h-.6a.4.4 0 01-.3-.1.4.4 0 01-.1-.3V80l.1-.3a.4.4 0 01.3-.1h.6l.3.1a.4.4 0 01.1.3v.5zm17.5 5.1a.7.7 0 00-.1-.5l-.5-.4a5.6 5.6 0 00-.9-.2 32 32 0 00-1.2-.3c-.9-.2-1.5-.5-1.8-.9a2.3 2.3 0 01-.5-1.5 2.2 2.2 0 01.7-1.7l1-.5a4.5 4.5 0 011.4-.2c.5 0 1 0 1.3.2l1 .4.6.6.3.6a.3.3 0 01-.2.3.4.4 0 01-.3.2h-.5-.2a.6.6 0 01-.3-.3l-.6-.4-1.1-.2c-.5 0-1 0-1.2.3-.3.1-.5.4-.5.7a.9.9 0 00.2.5l.4.3.7.3 1.2.2c.5.2 1 .3 1.2.5.4.1.6.3.8.5l.5.7.1.8c0 .3 0 .6-.2 1l-.7.7-1 .6a4.3 4.3 0 01-1.4.2 4.5 4.5 0 01-2.5-.7 2.7 2.7 0 01-.6-.6l-.3-.6a.4.4 0 01.1-.3.4.4 0 01.3-.2h.6a1 1 0 01.2 0l.3.2c.2.3.4.5.7.6l1.2.2a3 3 0 001.3-.3l.4-.4a.7.7 0 00.1-.4z" fill="#776589"/><path d="M311.5 34v30.5h-264V34a3.5 3.5 0 013.5-3.5h124.2l.2-.2 5-5.6 5.2 5.6.2.2H308a3.5 3.5 0 013.5 3.5z" fill="#FAF9FB" stroke="#C6BECF"/><path d="M67.5 43.6l.3.1v1.1a.3.3 0 010 .2.3.3 0 01-.3.1h-2.1v6.6a.3.3 0 01-.1.2.3.3 0 01-.3.1h-1a.3.3 0 01-.2-.1.3.3 0 010-.2V45h-2.2a.3.3 0 01-.2-.1.3.3 0 01-.1-.2v-.9-.2a.3.3 0 01.3-.1h6zm5 0c1 0 1.7.2 2.2.7.6.5.8 1.1.8 2a2.4 2.4 0 01-1.6 2.4l1.7 2.9a.3.3 0 010 .1.3.3 0 010 .2.2.2 0 01-.2.1h-1l-.4-.1a1 1 0 01-.2-.2l-1.5-2.8h-1.6v2.8a.3.3 0 01-.1.2.3.3 0 01-.3.1h-1a.3.3 0 01-.2-.1.3.3 0 010-.2v-7.8-.2a.3.3 0 01.3-.1h3zm-1.8 3.8h1.7c.5 0 .8-.1 1.1-.3.3-.1.4-.4.4-.9s-.1-.7-.4-.9l-1-.2h-1.8v2.3zM81 43.6l.3.1a.8.8 0 01.2.3l3 7.6a.3.3 0 01-.2.3.3.3 0 01-.2.1h-.8l-.4-.1a.7.7 0 01-.1-.2l-.5-1.3h-3.8l-.5 1.3a.7.7 0 01-.2.2l-.3.1h-.9a.3.3 0 01-.2-.1.3.3 0 010-.3l2.9-7.6a.8.8 0 01.1-.3l.3-.1H81zm.7 5.3l-1.3-3.5L79 49h2.6zM91 52l-.3-.1a2.3 2.3 0 01-.2-.2l-3.3-5v5a.3.3 0 01-.1.2.3.3 0 01-.3.1h-1a.3.3 0 01-.2-.1.3.3 0 010-.2v-7.8-.2a.3.3 0 01.3-.1h.8l.3.1.2.2 3.3 5v-5l.1-.2a.3.3 0 01.3-.1h1l.2.1c.2.1 0 .1 0 .2v7.8a.3.3 0 010 .2.3.3 0 01-.3.1H91zm5.9-8.5c.5 0 1 0 1.4.2l1 .5a2.2 2.2 0 01.9 1.5.3.3 0 01-.1.2.3.3 0 01-.2.1H99a.6.6 0 01-.3 0 1 1 0 01-.2-.3c0-.2-.3-.3-.5-.5a2 2 0 00-1.1-.2 2.5 2.5 0 00-1 .2 1 1 0 00-.4.3.7.7 0 00-.1.5v.4l.5.3.7.2a49 49 0 002.3.7c.4.1.7.3.9.5l.5.6.1 1c0 .3 0 .6-.2 1a2.4 2.4 0 01-.7.7l-1 .5a5.1 5.1 0 01-1.5.2 5.2 5.2 0 01-1.3-.1 4 4 0 01-1.1-.5 2.7 2.7 0 01-.8-.7 2 2 0 01-.3-1 .3.3 0 010-.2.4.4 0 01.3-.1H95l.2.3s0 .2.2.3l.3.2.5.2.8.1h.7l.5-.2.5-.3a.7.7 0 00.1-.5.6.6 0 00-.2-.4l-.5-.3a6.8 6.8 0 00-.8-.2 31.8 31.8 0 01-1.2-.3 6.9 6.9 0 01-1-.3 2.7 2.7 0 01-.8-.5 1.9 1.9 0 01-.4-.7 2.7 2.7 0 01-.2-1l.3-1 .6-.7 1-.5a4 4 0 011.3-.2zm8.7.1l.3.1a.8.8 0 01.2.3l3 7.6a.3.3 0 01-.2.3.3.3 0 01-.2.1h-.8l-.4-.1a.7.7 0 01-.1-.2l-.5-1.3H103l-.5 1.3a.7.7 0 01-.2.2l-.3.1h-.9a.3.3 0 01-.2-.1.3.3 0 010-.3l2.9-7.6a.8.8 0 01.1-.3l.3-.1h1.3zm.7 5.3l-1.3-3.5-1.3 3.5h2.6zm8.8.4l.2-.2a.4.4 0 01.2 0h1.2a.2.2 0 010 .2 3 3 0 01-.2 1 2.5 2.5 0 01-.6 1l-1.1.6-1.6.2c-.6 0-1 0-1.5-.2a3.2 3.2 0 01-1-.7 3.2 3.2 0 01-.7-1 4.4 4.4 0 01-.3-1.4v-1-1c0-.5.1-1 .3-1.3a3 3 0 011.7-1.8 4 4 0 011.5-.2c.6 0 1.2 0 1.6.2.4.2.8.4 1 .7.4.2.6.5.7.9.2.3.3.6.3 1a.3.3 0 01-.1.2.3.3 0 01-.2 0h-1a.4.4 0 01-.2 0 .4.4 0 01-.2-.2 1.3 1.3 0 00-.1-.5 1.4 1.4 0 00-.4-.4 1.8 1.8 0 00-.6-.3 2.5 2.5 0 00-.8-.1l-.8.1a1.8 1.8 0 00-.6.4 1.8 1.8 0 00-.4.6 2.6 2.6 0 00-.1.7 19.3 19.3 0 00.1 2.7l.4.6.6.4.8.1h.8l.6-.4.4-.4a1.3 1.3 0 00.1-.5zm8.7-5.7l.2.1v1.1a.3.3 0 010 .2.3.3 0 01-.2.1h-2.2v6.6a.3.3 0 010 .2.3.3 0 01-.3.1h-1a.3.3 0 01-.2-.1.3.3 0 01-.1-.2V45h-2.2a.3.3 0 01-.2-.1.3.3 0 01-.1-.2v-.9l.1-.2a.3.3 0 01.2-.1h6zm1.8 8.4a.3.3 0 01-.2-.1.3.3 0 01-.1-.2v-7.8-.2a.3.3 0 01.3-.1h1l.2.1.1.2v7.8a.3.3 0 010 .2.3.3 0 01-.3.1h-1zm2.9-5.3a4.3 4.3 0 01.2-1.2c.2-.4.4-.8.7-1a3 3 0 011-.8 4 4 0 011.6-.2c.6 0 1.1 0 1.5.2a3 3 0 011.8 1.8 4 4 0 01.3 1.7 13.3 13.3 0 010 1.2v.5a4.2 4.2 0 01-.3 1.3l-.7 1a3 3 0 01-1 .7l-1.6.2c-.6 0-1 0-1.5-.2a3 3 0 01-1.1-.7 3 3 0 01-.7-1 4.4 4.4 0 01-.2-1.3 55.6 55.6 0 010-.5v-1.7zm5.4 0c0-.5-.2-1-.5-1.2-.4-.4-.8-.5-1.4-.5s-1 .1-1.3.5c-.4.3-.6.7-.6 1.3a19.6 19.6 0 000 2c0 .6.2 1 .6 1.4.3.3.8.4 1.3.4s1-.1 1.4-.4c.3-.4.5-.8.5-1.4a19.3 19.3 0 000-2zm8.7 5.3l-.3-.1a2.3 2.3 0 01-.2-.2l-3.3-5v5a.3.3 0 01-.1.2.3.3 0 01-.3.1h-1a.3.3 0 01-.2-.1.3.3 0 010-.2v-7.8-.2a.3.3 0 01.3-.1h.8l.3.1.2.2 3.3 5v-5l.1-.2a.3.3 0 01.3-.1h1l.2.1c.2.1 0 .1 0 .2v7.8a.3.3 0 010 .2.3.3 0 01-.3.1h-.8z" fill="#776589"/><rect x="133.5" y=".5" width="93" height="23" rx="11.5" fill="#F55459" stroke="#F55459"/><path d="M164.8 7.6l.2.1.1.2v.5a.3.3 0 010 .2.3.3 0 01-.3 0h-2.3v7a.3.3 0 010 .3.3.3 0 01-.3.1h-.5a.3.3 0 01-.2-.1.3.3 0 01-.1-.2v-7h-2.2a.3.3 0 01-.3-.1.3.3 0 010-.2v-.5-.2a.3.3 0 01.3-.1h5.6zm6.8 8a.3.3 0 010 .3.3.3 0 01-.3.1h-.5a.3.3 0 01-.2-.1.3.3 0 010-.2v-3.2c0-.6-.2-1-.5-1.4-.3-.3-.7-.4-1.3-.4-.5 0-.9.1-1.2.4-.3.3-.4.8-.4 1.4v3.2a.3.3 0 01-.1.2.3.3 0 01-.3.1h-.4a.3.3 0 01-.2-.1.3.3 0 01-.1-.2V7.8v-.2a.3.3 0 01.3-.1h.7v3l.7-.6c.3-.2.7-.3 1.2-.3l1 .2c.4.2.7.3.9.6l.5.8.2 1.1v3.4zm2.9 0a.3.3 0 01-.1.3.3.3 0 01-.3.1h-.4a.3.3 0 01-.2-.1.3.3 0 01-.1-.2V10v-.2a.3.3 0 01.3-.1h.7V15.8zm0-7.1a.3.3 0 010 .2.3.3 0 01-.3.1h-.6a.3.3 0 01-.3 0 .3.3 0 010-.3v-.7-.2a.3.3 0 01.3-.1H174.5v1zm5.3 5.8a.5.5 0 00-.1-.4 1 1 0 00-.4-.3 4.2 4.2 0 00-.6-.2 24.2 24.2 0 00-1-.2c-.6-.1-1-.3-1.3-.6a1.7 1.7 0 01-.4-1.2 1.7 1.7 0 01.6-1.2l.7-.4a3.4 3.4 0 011-.2c.4 0 .8 0 1 .2.3 0 .6.2.8.3l.4.5c.2.1.2.3.2.4a.3.3 0 010 .2.3.3 0 01-.3.1h-.4a.9.9 0 01-.2 0 .4.4 0 01-.2-.1 1.1 1.1 0 00-.4-.4 2 2 0 00-.9-.1c-.3 0-.6 0-.9.2-.2.1-.3.3-.3.5v.4a.8.8 0 00.4.3l.6.1.9.2.9.3.6.5.3.5.1.6c0 .2 0 .4-.2.7 0 .2-.3.4-.5.6l-.8.4a3.2 3.2 0 01-1 .1 3.4 3.4 0 01-1.8-.5 2 2 0 01-.5-.4 1 1 0 01-.2-.5.3.3 0 010-.2.3.3 0 01.3-.1H176.8l.2.1.5.4.9.2a2.2 2.2 0 001-.2 1 1 0 00.3-.3.5.5 0 00.1-.3zm10.8.6l.2.1v.7a.3.3 0 010 .2.3.3 0 01-.2.1h-4.9a.3.3 0 01-.2-.1.3.3 0 01-.1-.2V7.9v-.2a.3.3 0 01.3-.1h4.8l.2.1v.7a.3.3 0 010 .2.3.3 0 01-.2 0h-4v2.6h3.7l.2.1.1.2v.5a.3.3 0 010 .2.3.3 0 01-.3 0h-3.7V15h4zm3.8 1.1l-.2-.1a.8.8 0 01-.1-.2l-2.4-5.6v-.3a.3.3 0 01.2 0h.7a.6.6 0 01.2.2l1.8 4.4 1.9-4.4a.6.6 0 01.1-.1.3.3 0 01.2-.1h.7a.3.3 0 01.1.2v.1l-2.4 5.6a.8.8 0 01-.1.2l-.2.1h-.5zm4-3.7a3.2 3.2 0 01.8-1.9l.8-.6a2.8 2.8 0 011.1-.2 2.9 2.9 0 011.2.3c.3 0 .6.3.8.6a2.7 2.7 0 01.6 1l.2 1.2v.3a.3.3 0 01-.1.2.3.3 0 01-.2.1h-4.2v.1c0 .5.2 1 .5 1.3.4.2.7.4 1.2.4s.8 0 1-.2l.5-.4a.7.7 0 01.2-.1.5.5 0 01.2 0H203.6l.1.2a1.3 1.3 0 01-.2.5 1.9 1.9 0 01-.5.5 3 3 0 01-.8.4l-1 .1c-.5 0-.8 0-1.2-.2-.3-.1-.6-.3-.8-.6a3 3 0 01-.6-.8 3.5 3.5 0 01-.2-1.1 5 5 0 010-1.1zm1 0h3.4c0-.5-.1-.9-.5-1.2-.3-.3-.7-.4-1.2-.4a1.7 1.7 0 00-1.2.4 1.4 1.4 0 00-.3.5l-.2.7zm11.5 3.4a.3.3 0 01-.1.2.3.3 0 01-.2.1h-.5a.3.3 0 01-.2-.1.3.3 0 01-.1-.2v-3.2c0-.6-.2-1-.5-1.4-.2-.3-.7-.4-1.2-.4s-.9.1-1.2.4c-.3.3-.5.8-.5 1.4v3.2a.3.3 0 010 .2.3.3 0 01-.3.1h-.4a.3.3 0 01-.3-.1.3.3 0 010-.2V10v-.2a.3.3 0 01.3-.1H206.3l.1.3v.4l.7-.6c.3-.2.7-.3 1.2-.3l1 .2.9.6.5.8.2 1.1v3.4zm3.3-1.8v.4c0 .2 0 .3.2.4a.7.7 0 00.3.2h1.1l.2.2.1.2v.4a.3.3 0 010 .2.3.3 0 01-.3.1h-.7c-.7 0-1.2-.2-1.6-.5-.3-.4-.4-1-.4-1.6v-3.1h-1a.3.3 0 01-.1-.1.3.3 0 01-.1-.2V10v-.2a.3.3 0 01.3-.1h.9v-2-.2a.3.3 0 01.3-.1h.7v2.3h1.8l.1.3v.4a.3.3 0 010 .2.3.3 0 01-.3 0h-1.5V14zm-66.1 4a5 5 0 01-5-4.9 3.7 3.7 0 011.7-3.2.6.6 0 01.5 0l.2.3a4.5 4.5 0 013-4 .6.6 0 01.6 0 .6.6 0 01.2.5V7c0 1 0 1.9.2 2.8a2.8 2.8 0 011.7-1.3.6.6 0 01.5.1.6.6 0 01.2.5c0 .7.2 1.4.6 2 .3.7.5 1.3.5 2a5 5 0 01-5 5zm-3.4-6.5a3.2 3.2 0 00-.4 1.6 3.8 3.8 0 007.6 0 3.4 3.4 0 00-.5-1.4 6 6 0 01-.5-1.8 1.5 1.5 0 00-.6 1.4.6.6 0 01-1 .5c-1-1.2-1.1-2.5-1.1-4.2-1.5 1-1.6 2.7-1.6 4.4v.9a.6.6 0 01-.6.5.6.6 0 01-.3-.2 3.4 3.4 0 01-1-1.7z" fill="#fff"/><rect x="235.5" y=".5" width="82" height="23" rx="11.5" fill="#fff"/><path d="M252.6 11.6l.5-.7.2-.9c0-.4-.1-.7-.4-1-.2-.3-.6-.4-1.1-.4a2 2 0 00-.8 0l-.5.4a1.7 1.7 0 00-.3.5 4 4 0 00-.1.5.4.4 0 01-.2.3.3.3 0 01-.2 0h-.5a.3.3 0 01-.2 0 .3.3 0 010-.2l.1-1a2.7 2.7 0 01.6-.8l.9-.6a2.9 2.9 0 011.2-.2c.4 0 .8 0 1.1.2a2.3 2.3 0 011.4 1.4l.1 1a3.7 3.7 0 010 .6l-.2.6a2.7 2.7 0 01-.4.6 4.7 4.7 0 01-.5.5l-2.7 2.5h3.7l.2.1.1.2v.5a.3.3 0 010 .2.3.3 0 01-.3.1h-5.2a.3.3 0 01-.2-.1.3.3 0 01-.1-.2v-.5-.2l.3-.2 3.5-3.2zm7.4-.8a22.8 22.8 0 000 2c0 .7.2 1.2.6 1.6.4.4 1 .6 1.6.6l1-.1.7-.4.4-.5.2-.6a.3.3 0 01.1-.2.3.3 0 01.2 0h.7a.2.2 0 01.1.2 2.5 2.5 0 01-.2.9 2.8 2.8 0 01-.6.9c-.3.2-.6.5-1 .6-.4.2-1 .3-1.6.3-.5 0-1 0-1.3-.2a3.3 3.3 0 01-1.1-.7 3 3 0 01-.7-1l-.2-1.3a31.7 31.7 0 010-2.2 3 3 0 011-2.3 3.1 3.1 0 011-.7 3.6 3.6 0 011.3-.2c.6 0 1.2 0 1.6.3a3 3 0 011 .7 2.7 2.7 0 01.8 1.7.3.3 0 010 .2.2.2 0 01-.3 0h-.5a.4.4 0 01-.2 0 .3.3 0 01-.1-.2l-.2-.6-.4-.5a2 2 0 00-.7-.4l-1-.1c-.7 0-1.2.2-1.6.6-.4.4-.6 1-.6 1.6zm12.6 4.9a.3.3 0 01-.1.2.3.3 0 01-.2.1h-.5a.3.3 0 01-.2-.1.3.3 0 01-.1-.2v-3.2c0-.6-.2-1-.4-1.4-.3-.3-.8-.4-1.3-.4s-.9.1-1.2.4c-.3.3-.5.8-.5 1.4v3.2a.3.3 0 010 .2.3.3 0 01-.3.1h-.4a.3.3 0 01-.3-.1.3.3 0 010-.2V7.8v-.2a.3.3 0 01.3-.1H268l.1.3v2.7l.7-.6c.3-.2.7-.3 1.2-.3l1 .2.9.6.5.8.2 1.1v3.4zm2.8 0a.3.3 0 010 .2.3.3 0 01-.3.1h-.4a.3.3 0 01-.3-.1.3.3 0 010-.2V10v-.2a.3.3 0 01.3-.1H275.3l.1.3v5.6zm.1-7.2a.3.3 0 010 .2.3.3 0 01-.3.1h-.7a.3.3 0 01-.2 0 .3.3 0 010-.3v-.7-.2a.3.3 0 01.2-.1h1v1zm2.8 7.2a.3.3 0 010 .2.3.3 0 01-.3.1h-.4a.3.3 0 01-.3-.1.3.3 0 010-.2V7.8v-.2a.3.3 0 01.3-.1H278.2l.1.3v7.9zm4.2-6c.5 0 1 0 1.2.2l.7.6V7.8l.1-.2a.3.3 0 01.2-.1h.7l.1.3v7.9a.3.3 0 010 .2.3.3 0 01-.3.1h-.5a.3.3 0 01-.2-.1.3.3 0 010-.2v-.4a2.2 2.2 0 01-.8.6l-1.2.2c-.3 0-.7 0-1-.2l-.8-.5a2.8 2.8 0 01-.6-1 3.6 3.6 0 01-.3-1.1 5.8 5.8 0 010-.8c0-.5.1-.9.3-1.2a2.7 2.7 0 011.4-1.5 2.7 2.7 0 011-.2zm2 3.7a7.3 7.3 0 000-1c-.1-.5-.3-1-.6-1.3-.3-.3-.7-.4-1.2-.4-.6 0-1 .1-1.3.5-.3.3-.5.8-.5 1.3a9.4 9.4 0 000 .7c0 .6.2 1 .5 1.4.3.3.7.5 1.3.5a1.7 1.7 0 001.7-1.7zm6-3.6h.2v.7a.3.3 0 010 .2.3.3 0 01-.2 0h-.7c-1 0-1.4.6-1.4 1.5v3.5a.3.3 0 01-.1.2.3.3 0 01-.2.1h-.5a.3.3 0 01-.2-.1.3.3 0 01-.1-.2V10v-.2a.3.3 0 01.3-.1h.7v.7c.2-.3.4-.5.7-.6l.8-.1h.7zm1 2.5a3.2 3.2 0 01.7-1.9l.9-.6a2.8 2.8 0 011-.2 2.9 2.9 0 011.2.3c.4 0 .7.3.9.6a2.7 2.7 0 01.5 1c.2.3.2.7.2 1.2v.3a.3.3 0 010 .2.3.3 0 01-.3.1h-4.1v.1c0 .5.2 1 .5 1.3.3.2.7.4 1.2.4.4 0 .7 0 1-.2l.5-.4a.7.7 0 01.2-.1.5.5 0 01.2 0h.6v.2a1.3 1.3 0 01-.1.5 1.9 1.9 0 01-.5.5 3 3 0 01-.8.4l-1.1.1c-.4 0-.8 0-1.1-.2l-.9-.6a3 3 0 01-.5-.8 3.5 3.5 0 01-.3-1.1 5 5 0 010-1.1zm1 0h3.4c0-.5-.2-.9-.5-1.2-.3-.3-.7-.4-1.2-.4a1.7 1.7 0 00-1.2.4 1.4 1.4 0 00-.4.5l-.1.7zm11.4 3.4a.3.3 0 010 .2.3.3 0 01-.3.1h-.4a.3.3 0 01-.3-.1.3.3 0 010-.2v-3.2c0-.6-.2-1-.5-1.4-.3-.3-.7-.4-1.2-.4-.6 0-1 .1-1.3.4-.3.3-.4.8-.4 1.4v3.2a.3.3 0 01-.1.2.3.3 0 01-.3.1h-.4a.3.3 0 01-.2-.1.3.3 0 01-.1-.2V10v-.2a.3.3 0 01.3-.1h.7v.7l.7-.6c.3-.2.7-.3 1.2-.3l1 .2c.4.2.7.3.9.6l.5.8c.2.3.2.7.2 1.1v3.4z" fill="#2B1D38"/><rect x="235.5" y=".5" width="82" height="23" rx="11.5" stroke="#2B1D38"/><defs><filter id="filter0_d" x="46" y="30" width="267" height="74" filterUnits="userSpaceOnUse" color-interpolation-filters="sRGB"><feFlood flood-opacity="0" result="BackgroundImageFix"/><feColorMatrix in="SourceAlpha" values="0 0 0 0 0 0 0 0 0 0 0 0 0 0 0 0 0 0 127 0"/><feOffset dy="2"/><feGaussianBlur stdDeviation=".5"/><feColorMatrix values="0 0 0 0 0 0 0 0 0 0 0 0 0 0 0 0 0 0 0.08 0"/><feBlend in2="BackgroundImageFix" result="effect1_dropShadow"/><feBlend in="SourceGraphic" in2="effect1_dropShadow" result="shape"/></filter></defs></svg>