<?xml version="1.0" encoding="UTF-8"?>
<svg width="24px" height="24px" viewBox="0 0 24 24" version="1.1" xmlns="http://www.w3.org/2000/svg" xmlns:xlink="http://www.w3.org/1999/xlink">
	<g fill="currentColor" fill-rule="nonzero">
		<path d="M12,24 C5.372583,24 0,18.627417 0,12 C0,5.372583 5.372583,0 12,0 C18.627417,0 24,5.372583 24,12 C24,18.627417 18.627417,24 12,24 Z M12,22 C17.5228475,22 22,17.5228475 22,12 C22,6.4771525 17.5228475,2 12,2 C6.4771525,2 2,6.4771525 2,12 C2,17.5228475 6.4771525,22 12,22 Z M11,17 C11,16.4477153 11.4477153,16 12,16 C12.5522847,16 13,16.4477153 13,17 C13,17.5522847 12.5522847,18 12,18 C11.4477153,18 11,17.5522847 11,17 Z M13,14 C13,14.5522847 12.5522847,15 12,15 C11.4477153,15 11,14.5522847 11,14 L11,12.9958496 C11,12.533315 11.3172049,12.1311363 11.7670102,12.0233704 C13.3666543,11.6401224 14,10.8269006 14,10.0625 C14,8.81039776 13.1225769,8 12,8 C10.8774231,8 10,8.81039776 10,10.0625 C10,10.6147847 9.55228475,11.0625 9,11.0625 C8.44771525,11.0625 8,10.6147847 8,10.0625 C8,7.66876891 9.80678739,6 12,6 C14.1932126,6 16,7.66876891 16,10.0625 C16,11.7147528 14.9222801,12.8652265 13,13.5048847 L13,14 Z" id="Shape">
		</path>
	</g>
</svg>
