<svg viewBox="0 0 32 31" xmlns="http://www.w3.org/2000/svg">
  <defs>
    <linearGradient x1="51.645%" y1="66.466%" x2="78.67%" y2="48.903%" id="a"><stop stop-opacity="0" offset="0%"/><stop offset="100%"/></linearGradient>
    <linearGradient x1="51.712%" y1="66.422%" x2="80.418%" y2="47.767%" id="b"><stop stop-color="#1E1A23" offset="0%"/><stop stop-color="#0F0C11" stop-opacity="0" offset="100%"/></linearGradient>
  </defs>
  <g fill-rule="nonzero" fill="none">
    <path d="M29.653 14.688L16.75 2.21 15.5 1l-9.712 9.394-4.44 4.294a1.122 1.122 0 0 0 0 1.624l8.872 8.582L15.5 30l9.712-9.394.15-.145 4.29-4.15a1.122 1.122 0 0 0 0-1.623zm-14.153 5.1L11.067 15.5l4.433-4.287 4.433 4.287-4.433 4.287z" fill="currentColor"/>
    <path d="M14.5 10.19A7.098 7.098 0 0 1 14.469 0L4.833 9.388l5.244 5.112 4.423-4.31z" fill="url(#a)" transform="translate(1 1)"/>
    <path d="M18.918 14.5L14.5 18.795a7.113 7.113 0 0 1 2.175 5.103c0 1.914-.782 3.75-2.175 5.102l9.667-9.398-5.249-5.102z" fill="url(#b)" transform="translate(1 1)"/>
  </g>
</svg>
