<?xml version="1.0" encoding="iso-8859-1"?>
<svg version="1.1" xmlns="http://www.w3.org/2000/svg" xmlns:xlink="http://www.w3.org/1999/xlink" x="0px" y="0px"
	 viewBox="0 0 512 512" style="enable-background:new 0 0 512 512;" xml:space="preserve">
<path d="M482,182.58V135c0-24.813-20.187-45-45-45h-23.787L327.617,4.404c-0.018-0.018-0.039-0.035-0.057-0.054
    c-2.659-2.638-6.352-4.277-10.328-4.339C317.154,0.01,317.079,0,317.001,0H105c-8.284,0-15,6.716-15,15v75H75
    c-24.813,0-45,20.187-45,45v47.58C12.541,188.772,0,205.445,0,225v182c0,24.813,20.187,45,45,45h45v45c0,8.284,6.716,15,15,15h302
    c8.284,0,15-6.716,15-15v-45h45c24.813,0,45-20.187,45-45V225C512,205.445,499.459,188.772,482,182.58z M422,120h15
    c8.271,0,15,6.729,15,15v45h-30V120z M332,51.213L370.787,90H332V51.213z M120,30h182v75c0,8.284,6.716,15,15,15h75v60H120V30z
        M60,135c0-8.271,6.729-15,15-15h15v60H60V135z M392,482H120V332h272V482z M482,407c0,8.271-6.729,15-15,15h-45v-90h15
    c8.284,0,15-6.716,15-15s-6.716-15-15-15c-12.246,0-344.772,0-362,0c-8.284,0-15,6.716-15,15s6.716,15,15,15h15v90H45
    c-8.271,0-15-6.729-15-15V225c0-8.271,6.729-15,15-15c18.142,0,401.331,0,422,0c8.271,0,15,6.729,15,15V407z"/>
<path d="M347,362H165c-8.284,0-15,6.716-15,15s6.716,15,15,15h182c8.284,0,15-6.716,15-15S355.284,362,347,362z"/>
<path d="M347,422H165c-8.284,0-15,6.716-15,15s6.716,15,15,15h182c8.284,0,15-6.716,15-15S355.284,422,347,422z"/>
<path d="M105,240H75c-8.284,0-15,6.716-15,15s6.716,15,15,15h30c8.284,0,15-6.716,15-15S113.284,240,105,240z"/>
</svg>
