<svg width="12" height="12" viewBox="0 0 12 12" shape-rendering="optimizeSpeed" xmlns="http://www.w3.org/2000/svg"><title>icon comment</title><g fill="currentColor" fill-rule="nonzero"><path d="M3 6.75v-1.5h6v1.5zM3 4.5V3h6v1.5z"/><path d="M11.25 0c.21 0 .389.072.533.217A.725.725 0 0 1 12 .75V9c0 .21-.072.389-.217.533a.725.725 0 0 1-.533.217H5.625L2.25 12V9.75H.75a.725.725 0 0 1-.533-.217A.725.725 0 0 1 0 9V.75C0 .54.072.361.217.217A.725.725 0 0 1 .75 0h10.5zm-.75 8.25V1.5h-9v6.75h2.25v1.125L5.625 8.25H10.5z"/></g></svg>
