<?xml version="1.0" encoding="UTF-8"?>
<svg width="24px" height="24px" viewBox="0 0 24 24" version="1.1" xmlns="http://www.w3.org/2000/svg" xmlns:xlink="http://www.w3.org/1999/xlink">
    <path d="M13.2006412,23.5968334 C12.4896337,24.1305343 11.5116797,24.1308354 10.8003438,23.5975723 C5.01251333,19.2586423 2,14.7408836 2,10 C2,4.4771525 6.4771525,0 12,0 C17.525731,0 22.0094352,4.48078676 21.9999971,10.003418 C21.9918988,14.7420892 18.9803101,19.2584612 13.2006412,23.5968334 Z M12,21.9973145 C17.3264974,17.9991048 19.9931641,14 20,10 C20.0075508,5.58173208 16.418278,2 12,2 C7.581722,2 4,5.581722 4,10 C4,14 6.66666667,17.9991048 12,21.9973145 Z M12,14 C9.790861,14 8,12.209139 8,10 C8,7.790861 9.790861,6 12,6 C14.209139,6 16,7.790861 16,10 C16,12.209139 14.209139,14 12,14 Z M12,12 C13.1045695,12 14,11.1045695 14,10 C14,8.8954305 13.1045695,8 12,8 C10.8954305,8 10,8.8954305 10,10 C10,11.1045695 10.8954305,12 12,12 Z" fill="currentColor"></path>
</svg>
