<svg width="12" height="12" shape-rendering="optimizeSpeed" viewBox="0 0 12 12" xmlns="http://www.w3.org/2000/svg"><title>icon clock</title><g fill="currentColor" fill-rule="nonzero"><path d="M6.75 5.25h1.5v1.5h-3V3h1.5z"/><path d="M6 0a5.88 5.88 0 0 1 2.338.469 6.02 6.02 0 0 1 1.91 1.283 6.02 6.02 0 0 1 1.283 1.91c.313.73.469 1.51.469 2.338a5.88 5.88 0 0 1-.469 2.338 6.02 6.02 0 0 1-1.283 1.91 6.02 6.02 0 0 1-1.91 1.283A5.88 5.88 0 0 1 6 12a5.88 5.88 0 0 1-2.338-.469 6.02 6.02 0 0 1-1.91-1.283 6.02 6.02 0 0 1-1.283-1.91A5.88 5.88 0 0 1 0 6c0-.828.156-1.607.469-2.338a6.02 6.02 0 0 1 1.283-1.91A6.02 6.02 0 0 1 3.662.469 5.88 5.88 0 0 1 6 0zm0 10.5c.625 0 1.209-.117 1.752-.352a4.554 4.554 0 0 0 2.396-2.396A4.373 4.373 0 0 0 10.5 6c0-.625-.117-1.209-.352-1.752a4.554 4.554 0 0 0-2.396-2.396A4.373 4.373 0 0 0 6 1.5c-.625 0-1.209.117-1.752.352a4.554 4.554 0 0 0-2.396 2.396A4.373 4.373 0 0 0 1.5 6c0 .625.117 1.209.352 1.752a4.554 4.554 0 0 0 2.396 2.396A4.373 4.373 0 0 0 6 10.5z"/></g></svg>
