<?xml version="1.0" encoding="UTF-8"?>
<svg width="22px" height="22px" viewBox="0 0 22 22" version="1.1" xmlns="http://www.w3.org/2000/svg" xmlns:xlink="http://www.w3.org/1999/xlink">
	<path d="M7.42112644,13.3431195 L4.1955291,13.8025838 C2.84024718,13.9956345 1.83333333,15.1561403 1.83333333,16.5251025 L1.83333333,18.7916667 C1.83333333,19.5510582 2.4489418,20.1666667 3.20833333,20.1666667 L18.7916667,20.1666667 C19.5510582,20.1666667 20.1666667,19.5510582 20.1666667,18.7916667 L20.1666667,16.5251025 C20.1666667,15.1561403 19.1597528,13.9956345 17.8044709,13.8025838 L14.5788736,13.3431195 C13.6169401,14.1681853 12.3666833,14.6666667 11,14.6666667 C9.63331666,14.6666667 8.38305987,14.1681853 7.42112644,13.3431195 Z M8.6147038,11.9515433 C9.27520408,12.5180651 10.1107955,12.8333333 11,12.8333333 C11.8892045,12.8333333 12.7247959,12.5180651 13.3852962,11.9515433 L14.0154757,11.4110281 L18.063007,11.9875714 C20.3218103,12.3093225 22,14.2434987 22,16.5251025 L22,18.7916667 C22,20.5635802 20.5635802,22 18.7916667,22 L3.20833333,22 C1.43641976,22 0,20.5635802 0,18.7916667 L0,16.5251025 C0,14.2434987 1.67818975,12.3093225 3.93699295,11.9875714 L7.98452426,11.4110281 L8.6147038,11.9515433 Z M11,1.83333333 C8.97495592,1.83333333 7.33333333,3.47495592 7.33333333,5.5 L7.33333333,9.16666667 C7.33333333,11.1917107 8.97495592,12.8333333 11,12.8333333 C13.0250441,12.8333333 14.6666667,11.1917107 14.6666667,9.16666667 L14.6666667,5.5 C14.6666667,3.47495592 13.0250441,1.83333333 11,1.83333333 Z M11,0 C14.0375661,0 16.5,2.46243388 16.5,5.5 L16.5,9.16666667 C16.5,12.2042328 14.0375661,14.6666667 11,14.6666667 C7.96243388,14.6666667 5.5,12.2042328 5.5,9.16666667 L5.5,5.5 C5.5,2.46243388 7.96243388,0 11,0 Z" fill="currentColor" fill-rule="nonzero">
	</path>
</svg>
