<svg width="159" height="81" fill="none" xmlns="http://www.w3.org/2000/svg"><path fill="#fff" d="M0 0h157v79H0z"/><path fill-rule="evenodd" clip-rule="evenodd" d="M158 3H3v77h155V3zM2 2v79h157V2H2z" fill="#444674"/><rect x="9" y="10" width="29" height="2" rx="1" fill="#D4D1EC"/><path fill="#E9626E" d="M140 73h-8v1h8zM118 70h-8v4h8zM96 70h-8v4h8zM74 61h-8v13h8zM52 45h-8v29h8zM30 24h-8v50h8zM129 72h-8v2h8zM151 73h-8v1h8zM107 73h-8v1h8zM85 68h-8v6h8zM63 55h-8v19h8zM41 35h-8v39h8zM19 20h-8v54h8z"/></svg>