<svg fill="none" height="81" width="159" xmlns="http://www.w3.org/2000/svg"><path d="m0 0h157v79h-157z" fill="#fff"/><path clip-rule="evenodd" d="m158 3h-155v77h155zm-156-1v79h157v-79z" fill="#444674" fill-rule="evenodd"/><rect fill="#d4d1ec" height="2" rx="1" width="29" x="9" y="10"/><g clip-rule="evenodd" fill-rule="evenodd"><path d="m116.764 68.963c.902.118 1.944.254 3.341.312 1.516.064 2.839-.038 3.974-.16.35-.038.675-.077.98-.113.706-.084 1.3-.154 1.836-.17.715-.022 1.807.101 3.422.284l.149.016c1.669.189 3.808.425 6.464.587 4.267.26 10.339-.025 12.836-.198a.75.75 0 1 0 -.104-1.496c-2.481.172-8.475.45-12.641.197-2.616-.16-4.723-.392-6.386-.58l-.263-.03c-1.508-.17-2.697-.305-3.523-.28-.605.019-1.301.101-2.04.189-.291.034-.589.07-.891.102-1.099.118-2.338.213-3.75.154-1.329-.056-2.315-.185-3.215-.302a67.011 67.011 0 0 0 -.198-.026c-.956-.124-1.851-.23-2.942-.19-.626.022-1.536.021-2.545.02-.622 0-1.282-.001-1.936.004-.845.006-1.674.021-2.369.06-.665.036-1.298.096-1.695.221-.364.115-1.018.186-1.749.216a21.65 21.65 0 0 1 -1.795-.003h-.01c-.715-.026-2.58-.011-4.497.25-2.496.171-8.463.447-12.616.195a118.155 118.155 0 0 1 -6.65-.61c-1.507-.17-2.696-.305-3.522-.28-.606.019-1.3.101-2.04.189-.291.034-.59.07-.891.102-1.099.118-2.339.213-3.75.154-1.33-.056-2.315-.185-3.215-.302a140.08 140.08 0 0 0 -.198-.026c-.956-.124-1.85-.23-2.942-.19-.627.022-1.537.021-2.546.02-.622 0-1.281-.001-1.935.004a52.53 52.53 0 0 0 -2.37.06c-.664.036-1.297.096-1.694.221-.364.115-1.018.186-1.749.216-.706.028-1.401.016-1.795-.003h-.01c-.715-.026-2.58-.011-4.497.25-2.496.171-8.463.447-12.616.195a118.14 118.14 0 0 1 -6.386-.58l-.263-.03c-1.508-.17-2.697-.305-3.523-.28-.605.019-1.3.101-2.04.189-.291.034-.59.07-.891.102-1.098.118-2.338.213-3.75.154-1.33-.056-2.314-.185-3.215-.302l-.198-.026c-.956-.124-1.85-.23-2.942-.19a.75.75 0 0 0 .054 1.498c.959-.034 1.748.057 2.695.18l.202.026c.902.118 1.944.254 3.34.312 1.517.064 2.84-.038 3.974-.16.351-.038.676-.077.98-.113.707-.084 1.3-.154 1.837-.17.715-.022 1.807.101 3.422.284l.15.016c1.668.189 3.807.425 6.463.587 4.267.26 10.339-.025 12.836-.198l.025-.002.025-.003c1.82-.25 3.606-.264 4.259-.24.436.02 1.173.033 1.925.002.732-.03 1.566-.102 2.14-.284.188-.06.635-.116 1.325-.154.659-.036 1.46-.051 2.298-.058.616-.004 1.258-.003 1.874-.003 1.036.001 2 .002 2.65-.022.959-.034 1.748.057 2.695.18l.202.026c.902.118 1.944.254 3.34.312 1.517.064 2.84-.038 3.975-.16.35-.038.675-.077.98-.113.706-.084 1.3-.154 1.836-.17.715-.022 1.807.101 3.422.284l.15.016c1.668.189 3.807.425 6.463.587 4.267.26 10.339-.025 12.836-.198l.025-.002.025-.003c1.82-.25 3.606-.264 4.259-.24.436.02 1.174.033 1.926.002.731-.03 1.565-.102 2.139-.284.188-.06.635-.116 1.325-.154a51.193 51.193 0 0 1 2.298-.058c.616-.004 1.258-.003 1.874-.003 1.036.001 1.999.002 2.65-.022.959-.034 1.748.057 2.695.18z" fill="#e9626e"/><path d="m116.386 57.01c.887.756 2.021 1.723 3.552 2.143 1.807.497 3.339-.325 4.491-1.135.294-.206.574-.42.834-.62l.131-.102c.213-.164.41-.316.6-.455.481-.351.801-.527 1.025-.572.03-.006.118-.011.298.048.179.06.405.168.687.336.525.313 1.142.768 1.897 1.325l.205.151c1.667 1.228 3.858 2.81 6.592 3.895 2.294.91 5.015.848 7.417.448 2.417-.401 4.61-1.162 5.908-1.75a.75.75 0 1 0 -.618-1.366c-1.191.539-3.259 1.258-5.536 1.637-2.29.38-4.693.4-6.617-.364-2.538-1.007-4.593-2.482-6.257-3.708l-.22-.163c-.732-.54-1.411-1.04-2.002-1.393a5.06 5.06 0 0 0 -.986-.473c-.325-.107-.69-.168-1.062-.093-.582.116-1.14.483-1.616.83a31.436 31.436 0 0 0 -.762.581c-.258.199-.515.395-.78.58-1.08.76-2.111 1.225-3.232.917-1.196-.329-2.09-1.087-3.013-1.87l-.179-.152c-.47-.397-.981-.815-1.528-1.092-.571-.288-1.22-.443-1.947-.272-.414.098-1.033.121-1.832.121l-.574-.002a36.704 36.704 0 0 0 -1.96.023c-.866.041-1.768.146-2.55.425-.791.282-1.526.767-1.933 1.606-.361.743-.913 1.085-1.462 1.231-.579.155-1.149.085-1.44-.008l-.029-.01-.029-.007c-.928-.218-2.963-.048-4.975 1.701-1.205.533-3.221 1.224-5.435 1.592-2.29.38-4.694.4-6.617-.364-2.538-1.007-4.593-2.482-6.257-3.708l-.22-.163c-.733-.54-1.41-1.04-2.002-1.393a5.073 5.073 0 0 0 -.986-.473c-.325-.107-.69-.168-1.062-.093-.582.116-1.14.483-1.616.83-.208.153-.423.32-.636.484l-.126.097c-.258.199-.515.395-.78.58-1.08.76-2.112 1.225-3.232.917-1.196-.329-2.09-1.087-3.013-1.87l-.18-.152c-.47-.397-.98-.815-1.527-1.092-.57-.288-1.22-.443-1.947-.272-.414.098-1.033.121-1.832.121l-.574-.002a36.721 36.721 0 0 0 -1.96.023c-.866.041-1.768.146-2.55.425-.79.282-1.526.767-1.933 1.606-.36.743-.913 1.085-1.462 1.231-.579.155-1.15.085-1.44-.008l-.029-.01-.03-.007c-.927-.218-2.962-.048-4.974 1.701-1.205.533-3.221 1.224-5.434 1.592-2.29.38-4.694.4-6.618-.364-2.538-1.007-4.593-2.482-6.256-3.708-.075-.054-.148-.109-.221-.163-.732-.54-1.41-1.04-2.002-1.393a5.07 5.07 0 0 0 -.986-.473c-.325-.107-.69-.168-1.062-.093-.582.116-1.14.483-1.616.83a30.84 30.84 0 0 0 -.762.581c-.258.199-.515.395-.78.58-1.08.76-2.111 1.225-3.232.917-1.196-.329-2.09-1.087-3.013-1.87l-.18-.152c-.47-.397-.98-.815-1.527-1.092-.57-.288-1.22-.443-1.947-.272a.75.75 0 0 0 .344 1.46c.298-.07.582-.023.926.15.369.187.755.493 1.236.9.07.058.14.118.212.18.886.755 2.021 1.722 3.552 2.142 1.807.497 3.339-.325 4.491-1.135.294-.206.574-.42.834-.62l.132-.102c.212-.164.409-.316.6-.455.48-.351.8-.527 1.024-.572.03-.006.118-.011.298.048.18.06.405.168.687.336.525.313 1.142.768 1.897 1.325l.205.151c1.668 1.228 3.859 2.81 6.593 3.895 2.293.91 5.014.848 7.416.448 2.417-.401 4.61-1.162 5.908-1.75l.105-.047.086-.076c1.678-1.499 3.242-1.538 3.698-1.444.541.167 1.387.25 2.25.02.913-.243 1.85-.84 2.426-2.026.18-.368.524-.647 1.088-.848.572-.204 1.3-.3 2.117-.34.613-.029 1.235-.025 1.849-.021l.614.002c.774 0 1.565-.017 2.176-.16.298-.07.582-.024.926.15.369.186.755.492 1.236.899.07.058.14.118.212.18.887.755 2.021 1.722 3.551 2.142 1.808.497 3.34-.325 4.492-1.135.294-.206.574-.42.834-.62l.131-.102c.213-.164.41-.316.6-.455.481-.351.801-.527 1.025-.572.03-.006.118-.011.298.048.18.06.405.168.687.336.525.313 1.142.768 1.897 1.325l.205.151c1.667 1.228 3.858 2.81 6.592 3.895 2.293.91 5.015.848 7.417.448 2.417-.401 4.61-1.162 5.908-1.75l.105-.047.085-.076c1.679-1.499 3.243-1.538 3.699-1.444.541.167 1.388.25 2.251.02.912-.243 1.849-.84 2.425-2.026.179-.368.524-.647 1.088-.848.572-.204 1.299-.3 2.117-.34a34.43 34.43 0 0 1 1.849-.021l.614.002c.774 0 1.565-.017 2.176-.16.298-.07.582-.024.926.15.369.186.755.492 1.236.899l.212.18z" fill="#f58c46"/><path d="m117.631 43.785c.598.713 1.312 1.396 2.184 1.81.997.471 1.942.31 2.749-.141.77-.431 1.442-1.138 2.013-1.83.29-.352.568-.717.827-1.062l.131-.174c.213-.283.412-.548.604-.791.232-.292.436-.528.619-.702.154-.147.26-.218.321-.249a.597.597 0 0 1 .102.049c.161.091.381.271.67.568.528.544 1.151 1.336 1.904 2.294l.206.262c1.659 2.108 3.847 4.834 6.59 6.711 2.371 1.623 5.197 1.506 7.648.803 2.458-.705 4.673-2.033 5.976-3.05a.75.75 0 1 0 -.922-1.183c-1.186.925-3.232 2.15-5.467 2.791-2.242.643-4.541.665-6.387-.599-2.528-1.73-4.587-4.276-6.259-6.4l-.22-.281c-.733-.932-1.406-1.789-1.993-2.393-.323-.332-.66-.63-1.004-.827-.343-.195-.805-.348-1.296-.179-.352.121-.656.36-.905.597a8.473 8.473 0 0 0 -.758.856c-.206.26-.419.544-.632.828a30.327 30.327 0 0 1 -.912 1.177c-.546.66-1.073 1.186-1.589 1.475-.478.268-.906.315-1.374.093-.592-.28-1.141-.777-1.677-1.417-.463-.551-.881-1.164-1.299-1.777l-.204-.298c-.466-.68-.966-1.386-1.507-1.858-.566-.493-1.329-.853-2.212-.494-.357.145-.918.187-1.722.187-.177 0-.365-.002-.56-.004-.626-.006-1.327-.014-2 .042-.893.073-1.843.262-2.665.767-.848.521-1.498 1.341-1.839 2.552-.431 1.531-1.067 2.117-1.535 2.331-.486.223-.951.123-1.185-.008l-.04-.022-.043-.018c-1.153-.468-3.286.023-5.233 2.954-1.198.915-3.194 2.092-5.37 2.716-2.242.643-4.54.665-6.387-.599-2.528-1.73-4.587-4.276-6.259-6.4l-.22-.281c-.734-.933-1.406-1.789-1.993-2.393-.323-.332-.66-.63-1.004-.827-.343-.195-.805-.348-1.296-.179-.352.121-.656.36-.905.597a8.487 8.487 0 0 0 -.758.856c-.206.26-.42.544-.632.828l-.127.168c-.258.343-.518.685-.785 1.009-.546.66-1.073 1.186-1.589 1.475-.478.268-.906.315-1.374.093-.592-.28-1.14-.777-1.677-1.417-.463-.551-.88-1.164-1.299-1.777l-.204-.298c-.466-.68-.966-1.386-1.507-1.858-.566-.493-1.33-.853-2.212-.494-.357.145-.918.187-1.722.187-.177 0-.365-.002-.56-.004-.626-.006-1.327-.014-2 .042-.893.073-1.843.262-2.665.767-.848.521-1.498 1.341-1.84 2.552-.43 1.531-1.066 2.117-1.534 2.331-.486.223-.951.123-1.185-.008l-.04-.022-.043-.018c-1.153-.468-3.286.023-5.233 2.954-1.198.915-3.194 2.092-5.37 2.716-2.242.643-4.54.665-6.387-.599-2.528-1.73-4.587-4.276-6.259-6.4l-.22-.281c-.733-.933-1.406-1.789-1.993-2.393-.323-.332-.66-.63-1.004-.827-.343-.195-.805-.348-1.296-.179-.352.121-.656.36-.905.597a8.475 8.475 0 0 0 -.758.856c-.206.26-.42.544-.632.828l-.127.168c-.258.343-.518.685-.785 1.009-.546.66-1.072 1.186-1.589 1.475-.478.268-.906.315-1.374.093-.592-.28-1.14-.777-1.677-1.417-.463-.551-.88-1.164-1.299-1.777l-.204-.298c-.466-.68-.966-1.386-1.507-1.858-.566-.493-1.33-.853-2.212-.494a.75.75 0 0 0 .564 1.39c.142-.058.312-.07.662.234.373.326.77.868 1.256 1.576l.196.286c.415.61.88 1.292 1.395 1.905.598.713 1.312 1.396 2.184 1.81.997.471 1.942.31 2.749-.141.77-.431 1.442-1.138 2.013-1.83a29.857 29.857 0 0 0 .958-1.235c.213-.284.412-.55.604-.792.232-.292.436-.528.619-.702a1.46 1.46 0 0 1 .321-.249c.02.007.054.021.102.049.16.091.381.271.67.568.529.544 1.151 1.336 1.904 2.294l.206.262c1.66 2.108 3.847 4.834 6.59 6.711 2.37 1.623 5.197 1.506 7.648.803 2.458-.705 4.673-2.033 5.976-3.05l.1-.078.068-.105c1.722-2.652 3.18-2.579 3.457-2.497a2.86 2.86 0 0 0 2.483.03c.994-.457 1.846-1.49 2.353-3.289.245-.87.674-1.368 1.18-1.68.533-.327 1.212-.485 2.003-.55.597-.05 1.198-.043 1.808-.037.209.002.418.004.629.004.77 0 1.618-.026 2.286-.298.142-.057.312-.07.662.235.373.326.77.868 1.256 1.576l.196.287c.415.61.88 1.29 1.395 1.904.598.713 1.312 1.396 2.184 1.81.997.471 1.942.31 2.749-.141.77-.431 1.441-1.138 2.013-1.83.29-.352.568-.717.827-1.062l.131-.174c.213-.284.412-.548.604-.791.232-.292.436-.528.619-.702a1.46 1.46 0 0 1 .321-.249.64.64 0 0 1 .102.049c.16.091.381.271.67.568.528.544 1.15 1.336 1.904 2.294l.206.262c1.66 2.108 3.847 4.834 6.59 6.711 2.37 1.623 5.197 1.506 7.648.803 2.458-.705 4.673-2.033 5.976-3.05l.1-.078.068-.105c1.722-2.652 3.18-2.579 3.457-2.497a2.86 2.86 0 0 0 2.483.03c.994-.457 1.847-1.49 2.353-3.289.245-.87.674-1.368 1.181-1.68.532-.327 1.211-.485 2.002-.55.597-.05 1.198-.043 1.808-.037.209.002.418.004.629.004.77 0 1.618-.026 2.286-.298.142-.057.312-.07.662.235.373.326.77.868 1.256 1.576l.196.287c.415.61.88 1.29 1.395 1.904zm-42.997-3.145.004.001h-.004zm-52.42 0 .005.001h-.005zm104.84 0 .005.001h-.005z" fill="#f2b712"/></g></svg>