<svg width="159" height="81" fill="none" xmlns="http://www.w3.org/2000/svg"><path fill="#fff" d="M0 0h157v79H0z"/><path fill-rule="evenodd" clip-rule="evenodd" d="M158 3H3v77h155V3zM2 2v79h157V2H2z" fill="#444674"/><rect x="9" y="10" width="29" height="2" rx="1" fill="#D4D1EC"/><path fill-rule="evenodd" clip-rule="evenodd" d="M117.495 43.933c.567 1.681 1.236 3.272 2.07 4.254.458.54 1.065.906 1.782.763.633-.127 1.11-.616 1.46-1.102.718-1 1.348-2.636 1.903-4.307.325-.979.646-2.04.949-3.043.213-.704.417-1.379.607-1.975.238-.744.459-1.383.665-1.872.059-.14.115-.263.168-.37.166.3.364.736.591 1.317.548 1.402 1.188 3.424 1.934 5.782l.212.669c1.659 5.237 3.806 11.875 6.493 16.444 1.12 1.905 2.45 2.958 3.944 3.202 1.474.242 2.903-.338 4.155-1.23 2.493-1.777 4.69-5.077 5.953-7.525a.751.751 0 00-1.334-.687c-1.226 2.379-3.29 5.423-5.49 6.99-1.094.78-2.12 1.123-3.041.972-.901-.147-1.906-.802-2.894-2.482-2.585-4.395-4.684-10.859-6.356-16.137l-.217-.685c-.739-2.336-1.394-4.407-1.962-5.859-.307-.784-.613-1.455-.923-1.893-.147-.208-.36-.46-.655-.597a1.04 1.04 0 00-.586-.091 1.055 1.055 0 00-.539.248 2.291 2.291 0 00-.469.597 6.583 6.583 0 00-.366.752 24.669 24.669 0 00-.712 1.999c-.208.652-.416 1.341-.629 2.047-.293.97-.596 1.973-.922 2.955-.561 1.69-1.13 3.114-1.697 3.903-.294.408-.482.496-.536.507h-.001c-.007.002-.02.004-.057-.013-.052-.024-.15-.09-.287-.25-.63-.742-1.225-2.083-1.792-3.763-.481-1.425-.916-3.009-1.333-4.53l-.201-.73c-.471-1.707-.936-3.323-1.424-4.382-.233-.503-.532-1.026-.948-1.318a1.25 1.25 0 00-.895-.232c-.34.047-.608.23-.808.431-.28.283-.699.382-1.471.382-.155 0-.327-.005-.511-.01-.632-.017-1.409-.038-2.138.111-1.021.21-2.015.747-2.811 1.962-.77 1.175-1.329 2.947-1.627 5.584-.232 2.042-.528 3.532-.847 4.6-.323 1.079-.653 1.672-.916 1.972a.831.831 0 01-.273.224.151.151 0 01-.09.015c-.054-.009-.184-.07-.328-.27l-.034-.047-.042-.042a1.523 1.523 0 00-1.377-.432c-.533.096-1.026.446-1.476.974-.886 1.04-1.84 3.052-2.776 6.61-1.231 2.368-3.275 5.367-5.453 6.918-1.094.78-2.12 1.123-3.041.972-.9-.147-1.906-.802-2.895-2.482-2.584-4.395-4.683-10.859-6.355-16.137l-.217-.685c-.74-2.336-1.394-4.407-1.962-5.859-.307-.784-.613-1.455-.923-1.893-.147-.208-.36-.46-.655-.597a1.04 1.04 0 00-.587-.091 1.053 1.053 0 00-.538.248 2.316 2.316 0 00-.47.597 6.686 6.686 0 00-.365.752 24.71 24.71 0 00-.712 1.999c-.208.652-.416 1.341-.629 2.047-.293.97-.596 1.973-.922 2.955-.561 1.69-1.13 3.114-1.697 3.903-.294.408-.482.496-.536.507h-.001c-.007.002-.02.004-.057-.013-.052-.024-.15-.09-.287-.25-.63-.742-1.225-2.083-1.792-3.763-.481-1.425-.916-3.009-1.333-4.53l-.201-.73c-.471-1.707-.936-3.323-1.424-4.382-.233-.503-.532-1.026-.948-1.318a1.25 1.25 0 00-.895-.232c-.34.047-.608.23-.808.431-.28.283-.7.382-1.471.382-.155 0-.327-.005-.511-.01-.632-.017-1.41-.038-2.138.111-1.022.21-2.015.747-2.81 1.962-.77 1.175-1.33 2.947-1.629 5.584-.23 2.042-.527 3.532-.846 4.6-.323 1.079-.653 1.672-.916 1.972a.824.824 0 01-.273.224.149.149 0 01-.09.015c-.054-.009-.184-.07-.328-.27l-.035-.047-.04-.042a1.524 1.524 0 00-1.378-.432c-.533.097-1.026.446-1.476.974-.886 1.04-1.84 3.052-2.776 6.61-1.232 2.368-3.275 5.367-5.453 6.918-1.094.78-2.12 1.123-3.041.972-.9-.147-1.906-.802-2.894-2.482-2.585-4.395-4.684-10.859-6.356-16.137l-.217-.685c-.739-2.336-1.394-4.407-1.962-5.859-.306-.784-.613-1.455-.923-1.893-.147-.208-.36-.46-.655-.597a1.04 1.04 0 00-.586-.091 1.053 1.053 0 00-.539.248 2.316 2.316 0 00-.47.597 6.703 6.703 0 00-.365.752 24.751 24.751 0 00-.712 1.999c-.208.652-.416 1.341-.629 2.047-.293.971-.596 1.973-.922 2.955-.561 1.69-1.13 3.114-1.697 3.903-.294.408-.482.496-.536.507-.008.002-.02.004-.058-.013-.052-.024-.15-.09-.287-.25-.63-.742-1.225-2.083-1.792-3.763-.481-1.425-.916-3.008-1.333-4.53a437.1 437.1 0 00-.201-.73c-.471-1.707-.936-3.323-1.424-4.382-.232-.503-.532-1.026-.948-1.318a1.25 1.25 0 00-.895-.232c-.34.047-.608.23-.808.431a.75.75 0 00.953 1.15c.082.109.197.296.336.598.426.924.859 2.41 1.34 4.152l.199.723c.416 1.518.864 3.148 1.36 4.618.567 1.681 1.236 3.272 2.07 4.254.458.54 1.065.906 1.783.763.633-.127 1.11-.616 1.459-1.102.718-1 1.348-2.636 1.903-4.307.325-.979.646-2.04.949-3.043.213-.704.417-1.379.607-1.975.238-.744.459-1.383.665-1.872.06-.14.115-.263.168-.37.166.3.364.736.591 1.317.548 1.402 1.188 3.425 1.934 5.782l.212.669c1.659 5.237 3.806 11.875 6.493 16.444 1.12 1.905 2.45 2.958 3.944 3.202 1.474.242 2.903-.338 4.155-1.23 2.493-1.777 4.69-5.077 5.953-7.525l.038-.073.02-.08c.931-3.563 1.825-5.32 2.489-6.1.329-.386.54-.459.601-.47a.083.083 0 01.025-.002c.274.351.69.705 1.242.797.646.108 1.252-.176 1.738-.73.468-.534.875-1.363 1.225-2.532.353-1.18.663-2.765.9-4.86.287-2.535.807-4.039 1.392-4.932.56-.853 1.194-1.178 1.857-1.313.544-.112 1.074-.098 1.667-.083.217.006.443.012.68.012.765 0 1.7-.067 2.43-.724.082.11.195.295.33.59.427.924.86 2.41 1.34 4.152l.2.723c.416 1.517.863 3.148 1.36 4.618.567 1.681 1.236 3.272 2.07 4.254.458.54 1.065.906 1.782.763.633-.127 1.11-.616 1.46-1.102.718-1 1.348-2.636 1.903-4.307.325-.979.646-2.04.949-3.043.213-.704.417-1.379.607-1.975.238-.744.459-1.383.665-1.872.059-.14.115-.263.168-.37.166.3.364.736.591 1.317.548 1.402 1.188 3.424 1.934 5.782l.212.669c1.659 5.237 3.806 11.875 6.493 16.444 1.12 1.905 2.45 2.958 3.944 3.202 1.474.242 2.903-.338 4.155-1.23 2.493-1.777 4.69-5.077 5.953-7.525l.038-.073.02-.08c.931-3.563 1.825-5.32 2.489-6.1.329-.386.539-.459.601-.47a.082.082 0 01.025-.002c.274.351.691.705 1.242.797.646.108 1.252-.176 1.738-.73.468-.534.875-1.363 1.225-2.532.353-1.18.663-2.765.9-4.86.287-2.535.808-4.039 1.392-4.932.559-.853 1.194-1.178 1.857-1.313.544-.112 1.074-.098 1.667-.083.217.006.443.012.681.012.764 0 1.699-.067 2.43-.724.081.11.194.295.33.59.426.924.859 2.41 1.34 4.152l.198.722c.417 1.518.864 3.149 1.361 4.619z" fill="#F2B712"/><path fill-rule="evenodd" clip-rule="evenodd" d="M117.495 33.933c.567 1.681 1.236 3.272 2.07 4.254.458.54 1.065.906 1.782.763.633-.127 1.11-.616 1.46-1.102.718-1 1.348-2.636 1.903-4.307.325-.979.646-2.04.949-3.043.213-.704.417-1.379.607-1.975.238-.744.459-1.383.665-1.872.059-.14.115-.263.168-.37.166.3.364.736.591 1.317.548 1.402 1.188 3.424 1.934 5.782l.212.669c1.659 5.237 3.806 11.875 6.493 16.444 1.12 1.905 2.45 2.958 3.944 3.202 1.474.242 2.903-.338 4.155-1.23 2.493-1.777 4.69-5.077 5.953-7.525a.751.751 0 00-1.334-.687c-1.226 2.379-3.29 5.423-5.49 6.99-1.094.78-2.12 1.123-3.041.972-.901-.147-1.906-.802-2.894-2.482-2.585-4.395-4.684-10.859-6.356-16.137l-.217-.685c-.739-2.336-1.394-4.407-1.962-5.859-.307-.784-.613-1.455-.923-1.893-.147-.208-.36-.46-.655-.597a1.04 1.04 0 00-.586-.091 1.055 1.055 0 00-.539.248 2.291 2.291 0 00-.469.597 6.583 6.583 0 00-.366.752 24.669 24.669 0 00-.712 1.999c-.208.652-.416 1.341-.629 2.047-.293.97-.596 1.973-.922 2.955-.561 1.69-1.13 3.114-1.697 3.903-.294.408-.482.496-.536.507h-.001c-.007.002-.02.004-.057-.013-.052-.024-.15-.09-.287-.25-.63-.742-1.225-2.083-1.792-3.763-.481-1.425-.916-3.009-1.333-4.53l-.201-.73c-.471-1.707-.936-3.324-1.424-4.382-.233-.503-.532-1.026-.948-1.318a1.25 1.25 0 00-.895-.232c-.34.047-.608.23-.808.431-.28.283-.699.382-1.471.382-.155 0-.327-.005-.511-.01-.632-.017-1.409-.038-2.138.111-1.021.21-2.015.747-2.811 1.962-.77 1.175-1.329 2.947-1.627 5.584-.232 2.042-.528 3.532-.847 4.6-.323 1.079-.653 1.672-.916 1.972a.831.831 0 01-.273.224.151.151 0 01-.09.015c-.054-.009-.184-.07-.328-.27l-.034-.047-.042-.042a1.523 1.523 0 00-1.377-.432c-.533.097-1.026.446-1.476.974-.886 1.04-1.84 3.052-2.776 6.61-1.231 2.368-3.275 5.367-5.453 6.918-1.094.78-2.12 1.123-3.041.972-.9-.147-1.906-.802-2.895-2.482-2.584-4.395-4.683-10.859-6.355-16.137l-.217-.685c-.74-2.336-1.394-4.408-1.962-5.859-.307-.784-.613-1.455-.923-1.893-.147-.208-.36-.46-.655-.597a1.04 1.04 0 00-.587-.091 1.053 1.053 0 00-.538.248 2.316 2.316 0 00-.47.597 6.686 6.686 0 00-.365.752 24.71 24.71 0 00-.712 1.999c-.208.652-.416 1.341-.629 2.047-.293.97-.596 1.973-.922 2.955-.561 1.69-1.13 3.114-1.697 3.903-.294.408-.482.496-.536.507h-.001c-.007.002-.02.004-.057-.013-.052-.024-.15-.09-.287-.25-.63-.742-1.225-2.083-1.792-3.763-.481-1.425-.916-3.009-1.333-4.53l-.201-.73c-.471-1.707-.936-3.324-1.424-4.382-.233-.503-.532-1.026-.948-1.318a1.25 1.25 0 00-.895-.232c-.34.047-.608.23-.808.431-.28.283-.7.382-1.471.382-.155 0-.327-.005-.511-.01-.632-.017-1.41-.038-2.138.111-1.022.21-2.015.747-2.81 1.962-.77 1.175-1.33 2.947-1.629 5.584-.23 2.042-.527 3.532-.846 4.6-.323 1.079-.653 1.672-.916 1.972a.824.824 0 01-.273.224.149.149 0 01-.09.015c-.054-.009-.184-.07-.328-.27l-.035-.047-.04-.042a1.524 1.524 0 00-1.378-.432c-.533.097-1.026.446-1.476.974-.886 1.04-1.84 3.052-2.776 6.61-1.232 2.368-3.275 5.367-5.453 6.918-1.094.78-2.12 1.123-3.041.972-.9-.147-1.906-.802-2.894-2.482-2.585-4.395-4.684-10.859-6.356-16.137l-.217-.685c-.739-2.336-1.394-4.408-1.962-5.859-.306-.784-.613-1.455-.923-1.893-.147-.208-.36-.46-.655-.597a1.04 1.04 0 00-.586-.091 1.053 1.053 0 00-.539.248 2.316 2.316 0 00-.47.597 6.703 6.703 0 00-.365.752 24.751 24.751 0 00-.712 1.999c-.208.652-.416 1.341-.629 2.046-.293.972-.596 1.974-.922 2.956-.561 1.69-1.13 3.114-1.697 3.903-.294.408-.482.496-.536.507-.008.002-.02.004-.058-.013-.052-.024-.15-.09-.287-.25-.63-.742-1.225-2.083-1.792-3.763-.481-1.425-.916-3.009-1.333-4.53l-.201-.73c-.471-1.707-.936-3.324-1.424-4.382-.232-.503-.532-1.026-.948-1.318a1.25 1.25 0 00-.895-.232c-.34.047-.608.23-.808.431a.75.75 0 00.953 1.15c.082.109.197.296.336.598.426.924.859 2.41 1.34 4.152l.198.722c.417 1.518.864 3.149 1.36 4.619.568 1.681 1.236 3.272 2.07 4.254.459.54 1.066.906 1.784.763.633-.127 1.11-.616 1.459-1.102.718-1 1.348-2.636 1.903-4.307.325-.979.646-2.04.949-3.043.213-.704.417-1.379.607-1.975.238-.744.459-1.383.665-1.872.06-.14.115-.263.168-.37.166.3.364.736.591 1.317.548 1.402 1.188 3.424 1.934 5.782l.212.669c1.659 5.237 3.806 11.875 6.493 16.444 1.12 1.905 2.45 2.958 3.944 3.202 1.474.242 2.903-.338 4.155-1.23 2.493-1.777 4.69-5.077 5.953-7.525l.038-.073.02-.08c.931-3.563 1.825-5.32 2.489-6.1.329-.386.54-.459.601-.47a.083.083 0 01.025-.002c.274.351.69.705 1.242.797.646.108 1.252-.176 1.738-.73.468-.534.875-1.363 1.225-2.532.353-1.18.663-2.765.9-4.86.287-2.535.807-4.039 1.392-4.932.56-.853 1.194-1.178 1.857-1.313.544-.112 1.074-.098 1.667-.083.217.006.443.012.68.012.765 0 1.7-.068 2.43-.724.082.11.195.295.33.59.427.924.86 2.41 1.34 4.152l.2.723c.416 1.517.863 3.148 1.36 4.618.567 1.681 1.236 3.272 2.07 4.254.458.54 1.065.906 1.782.763.633-.127 1.11-.616 1.46-1.102.718-1 1.348-2.636 1.903-4.307.325-.979.646-2.04.949-3.043.213-.704.417-1.379.607-1.975.238-.744.459-1.383.665-1.872.059-.14.115-.263.168-.37.166.3.364.736.591 1.317.548 1.402 1.188 3.425 1.934 5.782l.212.669c1.659 5.237 3.806 11.875 6.493 16.444 1.12 1.905 2.45 2.958 3.944 3.202 1.474.242 2.903-.338 4.155-1.23 2.493-1.777 4.69-5.077 5.953-7.525l.038-.073.02-.08c.931-3.563 1.825-5.32 2.489-6.1.329-.386.539-.459.601-.47a.083.083 0 01.025-.002c.274.351.691.705 1.242.797.646.108 1.252-.176 1.738-.73.468-.534.875-1.363 1.225-2.532.353-1.18.663-2.765.9-4.86.287-2.535.808-4.039 1.392-4.932.559-.853 1.194-1.178 1.857-1.313.544-.112 1.074-.098 1.667-.083.217.006.443.012.681.012.764 0 1.699-.068 2.43-.724.081.11.194.295.33.59.426.924.859 2.41 1.34 4.152l.198.722c.417 1.518.864 3.149 1.361 4.619z" fill="#7A5088"/></svg>