<svg xmlns="http://www.w3.org/2000/svg" viewBox="0 0 950 950"><defs><style>.a{fill:#342c3e;}.b{fill:#50495d;}.c{fill:#c9c2e1;}.d{fill:#fff;}.e{fill:#f9a66d;}.f{fill:#e03e2f;}.g{fill:#dbd3e9;}.h{fill:#f79464;}.i{fill:#f58159;}.j{fill:#ec5e44;}</style></defs><title>Code, Arguments, Tags</title><path class="a" d="M790.59,352.61L189.2,5.4C182.84,1.73,177,1.14,172.39,3.13c-0.91.39-23.09,13.16-23.76,13.64-4.66,3.32-7.53,9.85-7.53,18.86v512.9c0,18.42,12,40.35,26.76,48.87L769.25,944.6c6.23,3.59,12,4.24,16.52,2.4s23.39-13.29,24.06-13.76c4.66-3.32,7.53-9.85,7.53-18.86V401.48C817.35,383.05,805.34,361.13,790.59,352.61Z"/><path class="b" d="M167.86,597.39c-14.76-8.52-26.76-30.44-26.76-48.87V35.62c0-18.42,12-26.48,26.76-18L769.25,364.87C784,373.39,796,395.31,796,413.74v512.9c0,18.42-12,26.48-26.76,18Z"/><path class="a" d="M676.83,408.41l67.31,38.86c7.35,4.24,13.31-1.79,13.31-13.48h0c0-11.69-6-24.61-13.31-28.85l-67.31-38.86c-7.35-4.24-13.31,1.79-13.31,13.48h0C663.52,391.25,669.48,404.17,676.83,408.41Z"/><path class="c" d="M135.93,45l0.19-.17L136,45ZM769.25,379.55L167.86,32.34c-2.83-1.64-5.47-2-7.68-1.39-0.61.18-21.34,12.26-21.34,12.26,2.24-.73,4.95-0.34,7.86,1.34L748.09,391.75c7.76,4.48,14.06,16.5,14.06,26.85V931.5c0,5.65-1.88,9.62-4.85,11.34,0.1-.06.21-0.11,0.31-0.17,2.79-1.82,19-10.58,21.58-12.5s4.12-5.7,4.12-10.87V406.4C783.3,396.05,777,384,769.25,379.55Z"/><path class="d" d="M132.65,568.06V55.17c0-10.35,6.29-15.11,14.06-10.63L748.09,391.75c7.76,4.48,14.06,16.5,14.06,26.85V931.5c0,10.35-6.29,15.11-14.06,10.63L146.7,594.92C138.94,590.44,132.65,578.41,132.65,568.06Z"/><path class="c" d="M461.73,751.25v-165l-5.21-3V756.54L741.77,921.22c3.23,1.87,5.94-.1,6.71-4.42Z"/><path class="e" d="M527.9,673.09l-28.72-16.58v19L527.9,692.1v-19Zm-28.72,14v19l35.89,20.72v-19Zm0,49.58,21.54,12.44v-19l-21.54-12.44v19Z"/><path class="f" d="M561.54,692.51l-28.72-16.58v19l28.72,16.58v-19ZM540,710.64v19l35.89,20.72v-19Zm-14.35,41.29,46.17,26.65v-19l-46.17-26.65v19Z"/><path class="e" d="M665.51,752.54l-43.08-24.87v19l43.08,24.87v-19Zm-43.08,5.7v19l31,17.88v-19Zm0,49.58,31,17.88v-19l-31-17.88v19Z"/><path class="f" d="M704,774.73l-33.52-19.35v19L704,793.74v-19ZM658.32,779v19l60,34.63v-19Zm0,49.58,55.9,32.27v-19l-55.9-32.27v19Z"/><polygon class="c" points="461.73 544.77 461.73 339.9 461.73 339.9 461.73 331.61 456.52 328.6 456.52 550.05 748.69 718.74 748.69 710.45 461.73 544.77"/><polygon class="g" points="490.19 384.2 482.58 379.8 482.58 399.93 490.19 404.32 490.19 384.2 490.19 384.2"/><polygon class="g" points="532.07 493.21 539.69 497.61 539.69 477.49 532.07 473.09 532.07 493.21 532.07 493.21"/><polygon class="g" points="482.58 529.34 490.19 533.74 490.19 513.62 482.58 509.22 482.58 529.34 482.58 529.34"/><polygon class="g" points="532.1 440.75 524.48 436.35 524.48 456.47 532.1 460.87 532.1 440.75 532.1 440.75"/><polygon class="g" points="516.89 516.79 524.5 521.19 524.5 501.07 516.89 496.67 516.89 516.79 516.89 516.79"/><path class="f" d="M560.19,457l-22.8-13.17v20.12l22.8,13.17V457ZM545,480.54v20.12l30.4,17.55V498.09Zm-15.19,43.7,38,21.93V526.06l-38-21.93v20.12Z"/><path class="e" d="M519.19,433.29l-30.4-17.55v20.12l30.4,17.55V433.29Zm-30.4,14.8v20.12l38,21.93V470Zm0,52.47,22.8,13.17V493.62l-22.8-13.17v20.12Z"/><path class="c" d="M239.37,155.29l7.86-16.54-61-35.2-7.86,16.54Zm132.56,55.46-22.48-13v21.07l22.48,13V210.75Zm-29.1-6.27-6.62-3.82V211.2l6.62,3.82V204.49ZM153.56,105.75l6.62,3.82V99l-6.62-3.82v10.54Zm26.07-6L173,95.9l-7.86,16.54,6.62,3.82ZM404.89,229.78L398.3,226V247l6.59,3.81V229.78Zm6.59,3.81v21.07l19.78,11.42V245Zm-81.9-26.21V186.3L267.1,150.23l-7.86,16.54Zm-77-44.44,7.86-16.54-6.62-3.82L246,159.11Z"/><path class="c" d="M391.71,232.56L378.53,225v10.49l13.18,7.61V232.56Z"/><path class="h" d="M193.31,273.46v20.12l22.8,13.17V286.62ZM182.68,235v20.12l45.59,26.32V261.29Zm22.8,0.93V215.78l-22.8-13.17v20.12Zm142,29.5v20.12l38,21.93V287.33ZM217.63,210.56V190.44L172,164.12v20.12Zm3.78,79.12V309.8l15.21,8.78V298.46Zm-38.73,74.7V384.5l45.59,26.32V390.7Z"/><path class="i" d="M193.31,358.29l7.61,4.4V342.56l-7.61-4.4v20.12Zm29.61-164.79v20.12l7.61,4.4V197.89ZM172,410.72l15.21,8.78V399.38L172,390.6v20.12Z"/><path class="e" d="M233.56,284.46l91.15,52.63V317l-91.15-52.63v20.12Zm8.36,17.05v20.12l30.4,17.55V319.07Zm-8.36,112.36L294.33,449V428.85l-60.77-35.09v20.12Zm2.28-212.93v20.12l106.34,61.39V262.34Zm-25.06,38L226,247.74V227.62l-15.21-8.78V239Z"/><polygon class="j" points="433.06 470.89 151.32 308.23 151.32 275.09 433.06 437.75 433.06 470.89"/><polygon class="d" points="216.85 339.53 249.07 358.13 249.07 338 216.85 319.41 216.85 339.53"/><polygon class="d" points="203.94 332.07 211.56 336.47 211.56 316.35 203.94 311.95 203.94 332.07 203.94 332.07"/><polygon class="d" points="315.14 376.17 254.37 341.09 254.37 361.21 315.14 396.3 315.14 376.17"/><line class="c" x1="151.31" y1="428.45" x2="151.31" y2="119.22"/><path class="c" d="M154.54,569.56c-1.78-1-3.23-4.16-3.23-7V538l-5.21-3v27.16c0,6.09,3.1,12.81,6.93,15L438.28,741.86v-8.48Z"/><path class="c" d="M151.31,428.45V73.1c-3-.51-5.21,2.52-5.21,7.66v353L438.28,602.42v-8.29Z"/><polygon class="c" points="151.31 474.93 151.31 445.04 146.1 442.03 146.1 480.21 438.28 648.9 438.28 640.61 151.31 474.93"/><polygon class="c" points="151.31 521.41 151.31 491.52 146.1 488.51 146.1 526.69 438.28 695.38 438.28 687.09 151.31 521.41"/><path class="c" d="M537.13,295.5l-67.31-38.86a8,8,0,0,0-6.6-1c-0.65.22-10.42,5.81-11,6.31-2.73,2.3-4.45,6.95-4.45,13.22h0c0,11.69,6,24.61,13.31,28.85l67.31,38.86a8.15,8.15,0,0,0,6.21,1.14c2.21-.58,8.76-4.82,10.2-5.61,3.41-1.86,5.64-6.9,5.64-14C550.44,312.66,544.48,299.74,537.13,295.5Z"/><path class="d" d="M461.08,304l67.31,38.86c7.35,4.24,13.31-1.79,13.31-13.48h0c0-11.69-6-24.61-13.31-28.85l-67.31-38.86c-7.35-4.24-13.31,1.79-13.31,13.48h0C447.77,286.84,453.73,299.75,461.08,304Z"/><path class="c" d="M636.26,352.73L569,313.87a8,8,0,0,0-6.6-1c-0.65.22-10.42,5.81-11,6.31-2.73,2.3-4.45,6.95-4.45,13.22h0c0,11.69,6,24.61,13.31,28.85l67.31,38.86a8.15,8.15,0,0,0,6.21,1.14c2.21-.58,8.76-4.82,10.2-5.61,3.41-1.86,5.64-6.9,5.64-14C649.57,369.89,643.61,357,636.26,352.73Z"/><path class="d" d="M560.21,361.23l67.31,38.86c7.35,4.24,13.31-1.79,13.31-13.48h0c0-11.69-6-24.61-13.31-28.85L560.21,318.9c-7.35-4.24-13.31,1.79-13.31,13.48h0C546.9,344.07,552.86,357,560.21,361.23Z"/><path class="c" d="M735.39,410L668.08,371.1a8,8,0,0,0-6.6-1c-0.65.22-10.42,5.81-11,6.31-2.73,2.3-4.45,6.95-4.45,13.22h0c0,11.69,6,24.61,13.31,28.85l67.31,38.86a8.15,8.15,0,0,0,6.21,1.14c2.21-.58,8.76-4.82,10.2-5.61,3.41-1.86,5.64-6.9,5.64-14C748.69,427.12,742.74,414.2,735.39,410Z"/><path class="d" d="M659.34,418.46l67.31,38.86c7.35,4.24,13.31-1.79,13.31-13.48h0c0-11.69-6-24.61-13.31-28.85l-67.31-38.86C652,371.89,646,377.92,646,389.61h0C646,401.3,652,414.22,659.34,418.46Z"/></svg>
