<?xml version="1.0" encoding="utf-8"?>
<!-- Generator: Adobe Illustrator 22.0.1, SVG Export Plug-In . SVG Version: 6.00 Build 0)  -->
<svg version="1.1" id="Layer_1" xmlns="http://www.w3.org/2000/svg" xmlns:xlink="http://www.w3.org/1999/xlink" x="0px" y="0px"
	 viewBox="0 0 950 950" style="enable-background:new 0 0 950 950;" xml:space="preserve">
<style type="text/css">
	.st0{fill:#343040;}
	.st1{fill:#504A5D;}
	.st2{fill:#C4BFDC;}
	.st3{fill:#FFFFFF;}
	.st4{fill:#E3A36F;}
	.st5{fill:#C03F33;}
	.st6{fill:#D5D0E5;}
	.st7{fill:#DE9166;}
	.st8{fill:#D87F5A;}
	.st9{fill:#CD5E47;}
</style>
<title>code-arguments-tags copy</title>
<g id="Abstract_screenshot">
	<path class="st0" d="M159.4,352.6L760.8,5.4c6.4-3.7,12.2-4.3,16.8-2.3c0.9,0.4,23.1,13.2,23.8,13.6c4.7,3.3,7.5,9.9,7.5,18.9
		v512.9c0,18.4-12,40.3-26.8,48.9L180.8,944.6c-6.2,3.6-12,4.2-16.5,2.4s-23.4-13.3-24.1-13.8c-4.7-3.3-7.5-9.8-7.5-18.8V401.5
		C132.6,383,144.7,361.1,159.4,352.6z"/>
	<path class="st1" d="M782.1,597.4c14.8-8.5,26.8-30.4,26.8-48.9V35.6c0-18.4-12-26.5-26.8-18L180.8,364.9
		c-14.8,8.5-26.8,30.4-26.8,48.9v512.9c0,18.4,12,26.5,26.8,18L782.1,597.4z"/>
	<path class="st2" d="M814,45l-0.1-0.1L814,45C814.1,45,814,45,814,45z M166.7,406.4v512.9c0,5.2,1.6,9,4.1,10.9
		s18.8,10.7,21.6,12.5c0.1,0.1,0.2,0.1,0.3,0.2c-3-1.7-4.8-5.7-4.8-11.3V418.6c0-10.4,6.3-22.4,14-26.9L803.3,44.5
		c2.9-1.7,5.6-2.1,7.8-1.3c0,0-20.7-12.1-21.3-12.3c-2.2-0.6-4.8-0.2-7.7,1.4L180.8,379.5C173,384,166.7,396,166.7,406.4z"/>
	<path class="st3" d="M817.3,568.1V55.2c0-10.3-6.3-15.1-14-10.6L201.9,391.8c-7.8,4.5-14,16.5-14,26.9v512.9
		c0,10.3,6.3,15.1,14,10.6l601.4-347.2C811.1,590.4,817.3,578.4,817.3,568.1z"/>
	<path class="st4" d="M590.1,564.6l-28.7,16.6v19l28.7-16.6V564.6z M561.4,611.7v19l35.9-20.7v-19L561.4,611.7z M561.4,661.3
		l21.5-12.4v-19l-21.5,12.4V661.3z"/>
	<path class="st5" d="M623.8,545.1L595,561.7v19l28.7-16.6L623.8,545.1z M602.2,588.1v19l35.9-20.7v-19L602.2,588.1z M587.8,646
		l46.2-26.6v-19L587.8,627V646z"/>
	<path class="st4" d="M727.7,485.1L684.6,510v19l43.1-24.9L727.7,485.1z M684.6,540.6v19l31-17.9v-19L684.6,540.6z M684.6,590.1
		l31-17.9v-19l-31,17.9V590.1z"/>
	<path class="st5" d="M766.2,462.9l-33.5,19.4v19l33.5-19.4V462.9z M720.5,519.8v19l60-34.6v-19L720.5,519.8z M720.5,569.4
		l55.9-32.3v-19l-55.9,32.3V569.4z"/>
	<polygon class="st2" points="805.9,362 805.9,157.2 805.9,157.2 805.9,148.9 811.2,145.9 811.2,367.3 519,536 519,527.7 	"/>
	<polygon class="st6" points="552.4,319.2 544.8,323.6 544.8,343.7 552.4,339.3 552.4,319.2 	"/>
	<polygon class="st6" points="594.3,379.9 601.9,375.5 601.9,355.4 594.3,359.8 594.3,379.9 	"/>
	<polygon class="st6" points="544.8,473.1 552.4,468.8 552.4,448.6 544.8,453 544.8,473.1 	"/>
	<polygon class="st6" points="594.3,327.4 586.7,331.8 586.7,351.9 594.3,347.5 594.3,327.4 	"/>
	<polygon class="st6" points="579.1,421 586.7,416.6 586.7,396.5 579.1,400.9 579.1,421 	"/>
	<path class="st5" d="M622.4,311.2l-22.8,13.2v20.1l22.8-13.2V311.2z M607.2,352.3v20.1l30.4-17.5v-20.1L607.2,352.3z M592,413.5
		l38-21.9v-20.1l-38,21.9V413.5z"/>
	<path class="st4" d="M581.4,334.8L551,352.4v20.1l30.4-17.5V334.8z M551,384.7v20.1l38-21.9v-20.1L551,384.7z M551,437.2l22.8-13.2
		v-20.1L551,417.1V437.2z"/>
	<path class="st2" d="M293.5,391.4l7.9-25.6l-61,35.2l-7.9,25.6L293.5,391.4z M426,293.8l-22.5,13v21.1l22.5-13V293.8z M396.9,321.1
		l-6.6,3.8v10.5l6.6-3.8V321.1z M207.7,440.9l6.6-3.8v-10.5l-6.6,3.8V440.9z M233.7,404.8l-6.6,3.8l-7.9,25.6l6.6-3.8L233.7,404.8z
		 M459,274.7l-6.6,3.8v21.1l6.6-3.8V274.7z M465.6,270.9V292l19.8-11.4v-21.1L465.6,270.9z M383.7,339.3v-21.1l-62.5,36.1l-7.9,25.6
		L383.7,339.3z M306.7,383.7l7.9-25.6l-6.5,3.8l-7.9,25.6L306.7,383.7z"/>
	<path class="st2" d="M445.8,292.8l-13.2,7.6v10.5l13.2-7.6V292.8z"/>
	<path class="st7" d="M247.4,562.7v20.1l22.8-13.2v-20.1L247.4,562.7z M236.8,536.5v20.1l45.6-26.3v-20.1L236.8,536.5z M259.6,511.1
		V491l-22.8,13.2v20.1L259.6,511.1z M401.6,376.7v20.1l38-21.9v-20.1L401.6,376.7z M271.7,471.8v-20.1L226.1,478v20.1L271.7,471.8z
		 M275.5,546.5v20.1l15.2-8.8v-20.1L275.5,546.5z M236.8,665.9v20.1l45.6-26.3v-20.1L236.8,665.9z"/>
	<path class="st8" d="M247.4,647.6l7.6-4.4V623l-7.6,4.4V647.6z M277,448.6v20.1l7.6-4.4v-20.1L277,448.6z M226.1,724.6l15.2-8.8
		v-20.1l-15.2,8.8V724.6z"/>
	<path class="st4" d="M287.7,527.3l91.1-52.6v-20.1l-91.1,52.6V527.3z M296,534.7v20.1l30.4-17.5v-20.1L296,534.7z M287.7,656.7
		l60.8-35.1v-20.1l-60.8,35.1V656.7z M289.9,441.1v20.1l106.3-61.4v-20.1L289.9,441.1z M264.9,508.1l15.2-8.8v-20.1l-15.2,8.8V508.1
		z"/>
	<polygon class="st9" points="487.2,483.3 205.4,646 205.4,612.8 487.2,450.2 	"/>
	<polygon class="st3" points="271,601.6 303.2,583 303.2,562.9 271,581.5 	"/>
	<polygon class="st3" points="258,609.1 265.7,604.7 265.7,584.5 258,589 258,609.1 	"/>
	<polygon class="st3" points="369.2,524.8 308.5,559.9 308.5,580 369.2,544.9 	"/>
	<path class="st2" d="M489.4,612.6V257.2c3-0.5,5.2,2.5,5.2,7.6v353L202.4,786.5v-8.3L489.4,612.6z"/>
	<path class="st2" d="M718.2,113.3l67.3-38.9c1.9-1.3,4.4-1.6,6.6-1c0.6,0.2,10.4,5.8,11,6.3c2.7,2.3,4.4,6.9,4.4,13.2l0,0
		c0,11.7-6,24.6-13.3,28.8l-67.3,38.9c-1.8,1.2-4.1,1.6-6.2,1.1c-2.2-0.6-8.8-4.8-10.2-5.6c-3.4-1.9-5.6-6.9-5.6-14
		C704.9,130.4,710.8,117.5,718.2,113.3z"/>
	<polygon class="st2" points="489.4,659 489.4,629.2 494.6,626.1 494.6,664.3 202.4,833 202.4,824.7 	"/>
	<path class="st2" d="M619.1,170.5l67.3-38.9c1.9-1.3,4.4-1.6,6.6-1c0.6,0.2,10.4,5.8,11,6.3c2.7,2.3,4.4,7,4.4,13.2l0,0
		c0,11.7-6,24.6-13.3,28.9l-67.3,38.8c-1.8,1.2-4.1,1.6-6.2,1.1c-2.2-0.6-8.8-4.8-10.2-5.6c-3.4-1.9-5.6-6.9-5.6-14
		C605.8,187.6,611.7,174.7,619.1,170.5z"/>
	<polygon class="st2" points="489.4,705.5 489.4,675.6 494.6,672.6 494.6,710.8 202.4,879.5 202.4,871.2 	"/>
	<path class="st2" d="M519.9,227.7l67.3-38.9c1.9-1.3,4.4-1.6,6.6-1c0.7,0.2,10.4,5.8,11,6.3c2.7,2.3,4.4,6.9,4.4,13.2l0,0
		c0,11.7-6,24.6-13.3,28.9l-67.3,38.9c-1.8,1.2-4.1,1.6-6.2,1.1c-2.2-0.6-8.8-4.8-10.2-5.6c-3.4-1.9-5.6-6.9-5.6-14
		C506.6,244.9,512.6,232,519.9,227.7z"/>
	<path class="st3" d="M528.7,275.1l67.3-38.9c7.3-4.2,13.3-17.2,13.3-28.9l0,0c0-11.7-6-17.7-13.3-13.5l-67.3,38.9
		c-7.3,4.2-13.3,17.2-13.3,28.9l0,0C515.4,273.3,521.3,279.3,528.7,275.1z"/>
	<path class="st3" d="M627.8,217.9l67.3-38.9c7.3-4.2,13.3-17.2,13.3-28.9l0,0c0-11.7-6-17.7-13.3-13.5l-67.3,38.9
		c-7.3,4.2-13.3,17.2-13.3,28.9l0,0C614.5,216.1,620.5,222.1,627.8,217.9z"/>
	<path class="st3" d="M726.9,160.6l67.3-38.9c7.3-4.2,13.3-17.2,13.3-28.8l0,0c0-11.7-6-17.7-13.3-13.5l-67.3,38.8
		c-7.3,4.2-13.3,17.2-13.3,28.8l0,0C713.6,158.8,719.6,164.9,726.9,160.6z"/>
	<path class="st2" d="M489.4,752v-29.9l5.2-3v38.2l-285,164.5c-2.3,1.3-5.2,0.5-6.6-1.8c-0.4-0.7-0.6-1.5-0.6-2.4l0,0L489.4,752z"/>
	<path class="st2" d="M805.9,568.5V377.3l5.2-3v195.3c0,2.6-1.4,5-3.6,6.3L519,742.5v-8.3L805.9,568.5z"/>
</g>
</svg>
