<?xml version="1.0" encoding="utf-8"?>
<!-- Generator: Adobe Illustrator 24.2.3, SVG Export Plug-In . SVG Version: 6.00 Build 0)  -->
<svg version="1.1" id="Layer_1" xmlns="http://www.w3.org/2000/svg" xmlns:xlink="http://www.w3.org/1999/xlink" x="0px" y="0px"
	 viewBox="0 0 300 300" style="enable-background:new 0 0 300 300;" xml:space="preserve">
<style type="text/css">
	.st0{clip-path:url(#SVGID_2_);}
	.st1{fill:#452650;}
	.st2{fill:#584774;}
	.st3{fill:#F1B71C;}
	.st4{fill:#8D5494;}
	.st5{fill:#E1557C;}
	.st6{fill:#F4834F;}
</style>
<g>
	<defs>
		<rect id="SVGID_1_" width="300" height="300"/>
	</defs>
	<clipPath id="SVGID_2_">
		<use xlink:href="#SVGID_1_"  style="overflow:visible;"/>
	</clipPath>
	<g class="st0">
		<rect class="st1" width="300" height="300"/>
		<path class="st2" d="M78.1,37.2c0,0,5.3-13.5,6.6-18.5s11.2,6.9,16.5,9.2S78.1,37.2,78.1,37.2z"/>
		<path class="st3" d="M18,111.8c0,0,0.8-14.5,0.6-19.6s12.8,3.1,18.6,3.6S18,111.8,18,111.8z"/>
		<path class="st4" d="M83.6,147c0,0-3.7-14.1-5.5-18.9c-1.8-4.8,13.2-1,18.8-2.2S83.6,147,83.6,147z"/>
		<path class="st3" d="M216.3,183c0,0-7.9-12.2-11.1-16.2s12.2-5,17.2-7.9S216.3,183,216.3,183z"/>
		<path class="st5" d="M281.1,226.7c0,0-11.2-9.2-15.5-12s10.1-8.5,13.9-12.9S281.1,226.7,281.1,226.7z"/>
		<path class="st5" d="M47.9,170.8c0,0-13.5-5.3-18.5-6.6s6.9-11.2,9.2-16.5S47.9,170.8,47.9,170.8z"/>
		<path class="st2" d="M214.3,140.5c0,0-14.5-0.8-19.6-0.6s3.1-12.8,3.7-18.6S214.3,140.5,214.3,140.5z"/>
		<path class="st2" d="M61,287.2c0,0-14.1,3.6-18.9,5.5s-1-13.2-2.2-18.8S61,287.2,61,287.2z"/>
		<path class="st3" d="M66.8,207.8c0,0-12.3,7.9-16.2,11.1s-5-12.2-7.9-17.2S66.8,207.8,66.8,207.8z"/>
		<path class="st5" d="M261.1,33.8c0,0-9.2,11.2-12,15.5s-8.5-10.1-12.9-13.9S261.1,33.8,261.1,33.8z"/>
		<path class="st3" d="M161.9,249.2c0,0-5.3,13.5-6.6,18.5s-11.2-6.9-16.5-9.2S161.9,249.2,161.9,249.2z"/>
		<path class="st4" d="M197.7,187c0,0-0.9,14.5-0.6,19.6s-12.8-3.1-18.6-3.7S197.7,187,197.7,187z"/>
		<path class="st5" d="M237.1,263.8c0,0,3.7,14.1,5.5,18.9s-13.2,1-18.8,2.2S237.1,263.8,237.1,263.8z"/>
		<path class="st6" d="M246.4,85.3c0,0,7.9,12.2,11.1,16.2c3.2,4-12.2,5-17.2,7.9S246.4,85.3,246.4,85.3z"/>
		<path class="st5" d="M154.3,64.2c0,0,11.2,9.2,15.6,12s-10.1,8.5-13.9,12.8S154.3,64.2,154.3,64.2z"/>
		<path class="st6" d="M8.4,205.3c0,0,13.5,5.3,18.5,6.6s-6.9,11.2-9.2,16.5S8.4,205.3,8.4,205.3z"/>
		<path class="st3" d="M132.4,7.5c0,0,14.5,0.8,19.6,0.6c5.1-0.3-3.1,12.8-3.7,18.6S132.4,7.5,132.4,7.5z"/>
		<path class="st4" d="M260.7,13.1c0,0,14.1-3.7,18.8-5.5s1,13.2,2.2,18.8S260.7,13.1,260.7,13.1z"/>
		<path class="st6" d="M100.5,172.8c0,0,12.2-7.9,16.2-11.1s5,12.2,7.9,17.2C127.6,183.9,100.5,172.8,100.5,172.8z"/>
		<path class="st6" d="M107.1,72.1c0,0,9.2-11.2,12-15.5s8.5,10.1,12.9,13.9S107.1,72.1,107.1,72.1z"/>
		<path class="st2" d="M177.7,234.4c-0.8,0.1-1.6-0.5-1.6-1.4c-0.1-0.8,0.5-1.6,1.4-1.6c21-4.2,43.7-9.8,48.3-12.5
			c-2.5-0.9-10.2-0.8-14.5-0.8c-9.5,0.1-12.8,0-13.4-2.2c-0.1-0.5-0.1-1,0.2-1.4c1-1.7,6.3-3.1,25.6-7.5c7-1.6,16-3.7,20.7-5.1
			c-2.6-0.1-6.1-0.1-8.8-0.1c-11,0.1-14.9,0-15.5-2.4c-0.1-0.5-0.1-1,0.2-1.5c1.9-3.2,28.1-9.2,43.6-12.5c0.8-0.2,1.6,0.3,1.8,1.2
			s-0.3,1.6-1.2,1.8c-16.3,3.5-34,7.9-39.9,10.3c2.7,0.3,7.5,0.2,10.9,0.2c10.5-0.1,13.9,0,14.5,2.2c0.1,0.5,0.1,1-0.2,1.4
			c-1,1.7-6.3,3.1-25.6,7.5c-7,1.6-15.8,3.6-20.6,5.1c2.2,0.1,5.1,0.1,7.5,0.1c11.9-0.1,17.2,0.2,18,3.2c0.2,0.6,0.1,1.2-0.2,1.7
			c-0.6,1-1.9,3.2-26.9,9.1c-12.1,2.9-23.9,5.3-24.1,5.3L177.7,234.4z"/>
		<path class="st5" d="M170,326.3c-0.4,0-0.8-0.2-1.1-0.5c-0.5-0.6-0.5-1.6,0.1-2.1c0,0,0,0,0,0c14.3-12.6,29.4-27.1,32.2-31.6
			c-2.5,0.7-8.2,4-11.5,5.9c-7.7,4.5-10.2,5.8-11.7,4.4c-0.3-0.3-0.5-0.8-0.5-1.3c0-1.7,2.9-4.7,16.8-17.7
			c4.5-4.2,10.2-9.5,13.5-12.9c-2,1-4.4,2.5-6.2,3.6c-8.7,5.1-11.9,6.8-13.5,5.2c-0.4-0.4-0.6-0.8-0.6-1.4
			c0.1-3.5,18-20.2,28.8-29.9c0.6-0.6,1.5-0.6,2.1,0s0.6,1.5,0,2.1c0,0-0.1,0.1-0.1,0.1c-10.9,9.9-22.5,21-26.4,25.8
			c2.3-1.1,5.7-3.1,8.2-4.6c8.7-5.2,11.1-6.4,12.6-4.9c0.3,0.3,0.5,0.8,0.5,1.3c0,1.7-2.9,4.7-16.8,17.7
			c-4.5,4.2-10.1,9.4-13.4,12.8c1.7-0.9,3.6-2,5.2-3c9.4-5.5,13.8-7.7,15.8-5.7c0.4,0.4,0.6,1,0.6,1.5c-0.1,4.7-23.6,25.8-33.7,34.7
			C170.7,326.1,170.4,326.3,170,326.3z"/>
		<path class="st3" d="M58.2,147.9c-0.2,0-0.3,0-0.5-0.1c-0.8-0.2-1.2-1.1-1-1.9c0,0,0,0,0,0c6.9-20.3,13.4-42.8,13.3-48.1
			c-2,1.8-5.8,8.4-7.9,12.2c-4.7,8.2-6.4,11-8.6,10.5c-0.5-0.1-0.9-0.4-1.1-0.8c-1-1.7,0.5-7,6.3-25.9c2.1-6.9,4.8-15.7,5.9-20.5
			c-1.4,2.2-3.1,5.2-4.4,7.6c-5.4,9.6-7.5,12.9-9.8,12.3c-0.5-0.1-0.9-0.5-1.2-0.9c-1.8-3.3,6.1-29,11-44c0.2-0.8,1-1.3,1.8-1.1
			c0.8,0.2,1.3,1,1.1,1.8c0,0.1,0,0.1-0.1,0.2C58,65,53,82.5,52.2,88.8c1.6-2.2,3.9-6.3,5.6-9.4c5.1-9.1,7-12,9.2-11.5
			c0.5,0.1,0.9,0.4,1.1,0.8c1,1.7-0.5,7-6.3,25.9c-2.1,6.8-4.8,15.5-5.9,20.4c1.2-1.9,2.6-4.4,3.8-6.5c5.9-10.3,8.8-14.8,11.8-14
			c0.6,0.1,1,0.5,1.3,1c2.5,4.6-9.3,40.4-13,51.3C59.5,147.5,58.9,148,58.2,147.9z"/>
		<path class="st5" d="M112.7,252.3c-0.7,0-1.3-0.5-1.5-1.2c-4.2-21-9.8-43.7-12.6-48.3c-0.8,2.5-0.8,10.2-0.8,14.5
			c0,9.5,0,12.8-2.2,13.4c-0.5,0.1-1,0.1-1.4-0.2c-1.7-1-3.1-6.3-7.5-25.6c-1.6-7-3.7-16-5.1-20.7c-0.1,2.6-0.1,6.1,0,8.8
			c0.1,11,0,14.9-2.4,15.6c-0.5,0.1-1,0.1-1.5-0.2c-3.2-1.9-9.2-28.1-12.5-43.6c-0.2-0.8,0.3-1.6,1.1-1.8s1.6,0.3,1.8,1.1
			c0,0.1,0,0.1,0,0.2c3.5,16.3,7.9,34,10.3,39.9c0.3-2.7,0.2-7.5,0.2-10.9c-0.1-10.5,0-13.9,2.2-14.5c0.5-0.1,1-0.1,1.4,0.2
			c1.7,1,3.1,6.3,7.5,25.6c1.6,7,3.6,15.8,5.1,20.6c0.1-2.2,0.1-5.1,0.1-7.5c-0.1-11.9,0.2-17.2,3.2-18.1c0.6-0.2,1.2-0.1,1.7,0.2
			c1,0.6,3.2,1.9,9.1,26.9c2.9,12.1,5.3,23.9,5.3,24.1c0.2,0.8-0.4,1.6-1.2,1.8C112.9,252.3,112.8,252.3,112.7,252.3z"/>
		<path class="st6" d="M327.2,186.3c-0.4,0-0.8-0.2-1.1-0.5c-14.2-16.1-30.4-32.9-35-35.6c0.5,2.6,4.4,9.2,6.6,13
			c4.8,8.2,6.4,11.1,4.8,12.7c-0.3,0.4-0.8,0.5-1.3,0.5c-2,0-5.9-3.9-19.3-18.4c-4.9-5.3-11.2-12-14.8-15.4c1.2,2.3,3,5.3,4.3,7.6
			c5.6,9.4,7.4,12.9,5.7,14.6c-0.4,0.4-0.9,0.6-1.4,0.6c-3.7-0.1-22.1-19.8-32.7-31.5c-0.6-0.6-0.6-1.5-0.1-2.1
			c0.6-0.6,1.5-0.6,2.1-0.1c0.1,0.1,0.1,0.1,0.2,0.2c11.2,12.4,23.9,25.5,28.8,29.4c-1.1-2.5-3.5-6.6-5.3-9.5
			c-5.3-9-6.9-12.1-5.4-13.7c0.3-0.3,0.8-0.5,1.3-0.5c2,0,5.9,3.9,19.3,18.4c4.9,5.2,11,11.9,14.7,15.3c-1-2-2.5-4.5-3.7-6.5
			c-6-10.3-8.4-15-6.3-17.2c0.4-0.4,1-0.6,1.6-0.6c1.2,0,3.7,0.1,21.4,18.7c8.5,9,16.5,18.1,16.6,18.2c0.5,0.6,0.5,1.6-0.1,2.1
			c0,0,0,0,0,0C327.9,186.2,327.6,186.3,327.2,186.3z"/>
		<path class="st4" d="M47.7,265.2c-6.7,0-28.9-6.8-42.4-11.2c-0.8-0.3-1.2-1.1-1-1.9s1.1-1.2,1.9-1c15.9,5.1,33.4,10.1,39.7,11
			c-2.2-1.6-6.3-3.9-9.4-5.6c-9.1-5.1-12-7-11.5-9.2c0.1-0.5,0.4-0.9,0.9-1.1c1.7-0.9,7,0.5,25.9,6.3c6.8,2.1,15.5,4.8,20.4,5.9
			c-1.9-1.2-4.4-2.6-6.5-3.8c-10.3-5.9-14.8-8.8-14-11.8c0.1-0.6,0.5-1,1-1.3c4.6-2.5,40.4,9.3,51.3,13c0.8,0.3,1.2,1.1,0.9,1.9
			s-1.1,1.2-1.9,0.9c-20.2-6.8-42.6-13.3-48-13.3h0c1.8,2,8.4,5.8,12.2,7.9c8.2,4.7,11,6.4,10.5,8.6c-0.1,0.5-0.4,0.9-0.8,1.1
			c-1.7,1-7-0.5-25.9-6.3c-6.9-2.1-15.7-4.8-20.5-5.9c2.1,1.4,5.2,3.1,7.6,4.4c9.6,5.4,12.9,7.5,12.3,9.8c-0.1,0.5-0.5,0.9-0.9,1.2
			C48.8,265.1,48.2,265.2,47.7,265.2z"/>
		<path class="st6" d="M36.4,324.5c-0.8,0.1-1.6-0.5-1.7-1.3c-0.1-0.8,0.5-1.6,1.3-1.7c16.3-3.5,34-7.9,39.9-10.3
			c-2.7-0.3-7.5-0.2-10.9-0.2c-10.5,0.1-13.9,0-14.5-2.2c-0.1-0.5-0.1-1,0.2-1.4c1-1.7,6.3-3.1,25.6-7.5c7-1.6,15.8-3.6,20.6-5
			c-2.2-0.1-5.1-0.1-7.5-0.1c-11.9,0.1-17.2-0.2-18-3.2c-0.1-0.6-0.1-1.2,0.2-1.7c0.6-1,1.9-3.2,26.9-9.1
			c12.1-2.9,23.9-5.3,24.1-5.3c0.8-0.2,1.6,0.4,1.8,1.2c0.2,0.8-0.4,1.6-1.2,1.8c-21,4.2-43.7,9.8-48.3,12.5
			c2.5,0.9,10.2,0.8,14.5,0.8c9.5-0.1,12.8,0,13.4,2.2c0.1,0.5,0.1,1-0.2,1.4c-1,1.7-6.3,3.1-25.6,7.5c-7,1.6-16,3.6-20.7,5.1
			c2.6,0.1,6.1,0.1,8.8,0c11-0.1,14.9,0,15.6,2.4c0.1,0.5,0.1,1-0.2,1.5c-1.9,3.2-28.2,9.2-43.6,12.5
			C36.7,324.4,36.6,324.5,36.4,324.5z"/>
		<path class="st4" d="M177.7,101.4c-0.4,0-0.8-0.2-1.1-0.5c-0.6-0.6-0.5-1.6,0.1-2.1c12.4-11.2,25.5-23.8,29.4-28.8
			c-2.5,1.1-6.6,3.5-9.5,5.3c-9,5.3-12.1,6.9-13.7,5.4c-0.3-0.3-0.5-0.8-0.5-1.3c0-2,3.9-5.9,18.4-19.3c5.2-4.9,11.9-11,15.3-14.7
			c-2,1-4.5,2.5-6.5,3.7c-10.3,6-15,8.4-17.2,6.3c-0.4-0.4-0.6-1-0.6-1.6c0-1.2,0.1-3.7,18.7-21.4c9-8.5,18.1-16.5,18.2-16.6
			c0.6-0.6,1.6-0.5,2.1,0.1s0.5,1.6-0.1,2.1c-16.1,14.2-32.9,30.4-35.5,35c2.6-0.5,9.2-4.4,13-6.6c8.2-4.8,11.1-6.3,12.7-4.8
			c0.3,0.3,0.5,0.8,0.5,1.3c0,2-3.9,5.9-18.4,19.3c-5.3,4.9-12,11.1-15.4,14.8c2.3-1.2,5.3-3,7.6-4.3c9.4-5.6,12.9-7.4,14.6-5.7
			c0.4,0.4,0.6,0.9,0.6,1.4c-0.1,3.7-19.8,22.1-31.5,32.7C178.5,101.2,178.1,101.4,177.7,101.4z"/>
		<path class="st4" d="M143.6,243.9c7-14.2,18.6-38.5,17.3-42c-0.2-0.5-0.5-0.9-1-1.1c-2.2-0.9-4.8,2-11.5,10.7
			c-1.6,2.1-3.8,4.9-5.5,6.8c1.8-4.6,5.8-12.9,8.9-19.4c8.5-17.8,10.7-22.9,10-24.7c-0.2-0.5-0.5-0.8-1-1c-2-0.9-4.2,1.7-10,9.1
			c-2.7,3.4-7.4,9.4-9.6,10.9c0.7-5.3,10.4-26.5,20.2-45.6c0.4-0.7,0.2-1.6-0.6-2s-1.6-0.2-2,0.6c0,0,0,0.1-0.1,0.1
			c-0.1,0.1-5.6,10.9-10.8,22.1c-10.8,23.2-10,25.6-9.6,26.7c0.2,0.6,0.6,1,1.1,1.2c2.9,1.2,6.4-2.8,13.7-12.2
			c1.5-1.9,3.3-4.2,4.7-5.8c-1.8,4.6-5.8,12.8-8.8,19.3c-8.5,17.8-10.7,22.9-10,24.7c0.2,0.5,0.5,0.8,0.9,1c2.1,0.9,4.3-1.7,10.8-10
			c2.1-2.7,5-6.5,6.9-8.4c-1.8,6.1-9.3,22.6-16.7,37.6c-0.4,0.7-0.1,1.6,0.7,2c0.2,0.1,0.4,0.1,0.7,0.1
			C142.8,244.7,143.3,244.4,143.6,243.9z M141.1,194.2L141.1,194.2z"/>
		<path class="st3" d="M294.4,314.6c-0.7,0-1.3-0.5-1.5-1.2c-3.5-16.3-7.9-34-10.3-39.9c-0.3,2.7-0.2,7.5-0.2,10.9
			c0.1,10.5,0,13.9-2.2,14.5c-0.5,0.1-1,0.1-1.4-0.2c-1.7-1-3.1-6.4-7.5-25.6c-1.6-7-3.6-15.8-5.1-20.6c-0.1,2.2-0.1,5.1-0.1,7.5
			c0.1,11.9-0.2,17.2-3.2,18c-0.6,0.2-1.2,0.1-1.7-0.2c-1-0.6-3.2-1.9-9.1-26.9c-2.9-12.1-5.3-24-5.3-24.1c-0.2-0.8,0.4-1.6,1.2-1.8
			s1.6,0.4,1.8,1.2c4.2,21,9.8,43.7,12.5,48.3c0.9-2.5,0.8-10.2,0.8-14.5c-0.1-9.5,0-12.8,2.2-13.4c0.5-0.1,1-0.1,1.4,0.2
			c1.7,1,3.1,6.3,7.5,25.6c1.6,7,3.7,16,5.1,20.7c0.1-2.6,0.1-6.1,0.1-8.8c-0.1-11,0-14.9,2.4-15.5c0.5-0.1,1-0.1,1.5,0.2
			c3.2,1.9,9.2,28.2,12.5,43.6c0.2,0.8-0.3,1.6-1.2,1.8c0,0,0,0,0,0C294.6,314.5,294.5,314.6,294.4,314.6z"/>
		<path class="st2" d="M163.4,136.6c-0.4,0-0.8-0.2-1.1-0.5c-9.9-10.9-21-22.5-25.8-26.4c1.1,2.3,3.1,5.7,4.6,8.2
			c5.2,8.7,6.3,11.1,4.9,12.6c-0.3,0.3-0.8,0.5-1.3,0.5c-1.7,0-4.7-2.8-17.7-16.8c-4.2-4.5-9.4-10.1-12.8-13.3c0.9,1.7,2,3.6,3,5.2
			c5.5,9.4,7.7,13.8,5.7,15.8c-0.4,0.4-1,0.6-1.5,0.6c-4.7-0.1-25.8-23.6-34.7-33.6c-0.6-0.6-0.5-1.6,0.1-2.1s1.6-0.5,2.1,0.1
			c12.6,14.3,27,29.3,31.6,32.2c-0.7-2.5-4-8.2-5.9-11.5c-4.5-7.7-5.8-10.2-4.4-11.7c0.3-0.3,0.8-0.5,1.3-0.5
			c1.7,0,4.7,2.8,17.7,16.8c4.2,4.5,9.5,10.2,12.8,13.4c-1-2-2.5-4.3-3.6-6.2c-5.1-8.7-6.8-11.8-5.2-13.5c0.4-0.4,0.8-0.6,1.4-0.5
			c3.4,0.1,20.2,18,29.8,28.7c0.6,0.6,0.5,1.6-0.1,2.1C164.1,136.4,163.8,136.5,163.4,136.6L163.4,136.6z"/>
		<path class="st2" d="M281.6,74.1c-9,0-39.4-10-49.3-13.3c-0.8-0.3-1.2-1.1-0.9-1.9c0.3-0.8,1.1-1.2,1.9-0.9
			c20.2,6.8,42.6,13.3,48,13.3h0.1c-1.8-2-8.4-5.8-12.2-7.9c-8.2-4.7-11-6.4-10.5-8.6c0.1-0.5,0.4-0.9,0.9-1.1c1.7-1,7,0.5,25.9,6.3
			c6.9,2.1,15.7,4.8,20.5,5.9c-2.1-1.4-5.2-3.1-7.6-4.4c-9.6-5.4-12.9-7.5-12.3-9.8c0.1-0.5,0.5-0.9,0.9-1.2c3.3-1.8,29,6.1,44,11
			c0.8,0.3,1.2,1.1,1,1.9c-0.3,0.8-1.1,1.2-1.9,1l0,0c-15.9-5.1-33.4-10.1-39.6-11c2.2,1.6,6.4,3.9,9.4,5.6c9.1,5.1,12,7,11.5,9.2
			c-0.1,0.5-0.4,0.9-0.9,1.1c-1.7,1-7-0.5-25.9-6.3c-6.8-2.1-15.5-4.8-20.4-5.9c1.9,1.2,4.4,2.6,6.5,3.8c10.3,5.9,14.8,8.8,14,11.8
			c-0.1,0.5-0.5,1-1,1.3C283,74.1,282.3,74.2,281.6,74.1z"/>
		<circle class="st5" cx="114.9" cy="194.2" r="2.2"/>
		<circle class="st6" cx="119.8" cy="214.1" r="2.2"/>
		<circle class="st6" cx="135.9" cy="287" r="2.2"/>
		<circle class="st5" cx="133.6" cy="232.9" r="2.2"/>
		<circle class="st5" cx="52.3" cy="230.6" r="2.2"/>
		<circle class="st4" cx="163.4" cy="282.9" r="2.2"/>
		<circle class="st5" cx="255.7" cy="291.5" r="2.2"/>
		<circle class="st2" cx="190.7" cy="250.8" r="2.2"/>
		<circle class="st6" cx="232.8" cy="238.7" r="2.2"/>
		<circle class="st4" cx="289.9" cy="247" r="2.2"/>
		<circle class="st5" cx="172.3" cy="219.4" r="2.2"/>
		<circle class="st2" cx="107.1" cy="147" r="2.2"/>
		<circle class="st4" cx="152.2" cy="39.4" r="2.2"/>
		<circle class="st5" cx="177.7" cy="55.7" r="2.2"/>
		<circle class="st3" cx="20.3" cy="7.5" r="2.2"/>
		<circle class="st5" cx="227.3" cy="76.9" r="2.2"/>
		<circle class="st3" cx="240.3" cy="14.7" r="2.3"/>
		<circle class="st5" cx="273.2" cy="37.2" r="2.2"/>
		<circle class="st5" cx="220.9" cy="126.1" r="2.3"/>
		<circle class="st5" cx="238.1" cy="164.4" r="2.2"/>
		<circle class="st3" cx="279.5" cy="240.9" r="2.2"/>
		<circle class="st5" cx="190.7" cy="178" r="2.2"/>
		<circle class="st4" cx="124.8" cy="195.1" r="2.2"/>
		<circle class="st3" cx="177.7" cy="154.7" r="2.2"/>
		<circle class="st2" cx="145.3" cy="48.6" r="2.2"/>
		<circle class="st5" cx="281.7" cy="180.2" r="2.2"/>
		<circle class="st4" cx="232.8" cy="152.4" r="2.2"/>
		<circle class="st6" cx="36.4" cy="126.1" r="2.3"/>
		<circle class="st4" cx="18.2" cy="140.5" r="2.2"/>
		<circle class="st4" cx="64.5" cy="232.9" r="2.2"/>
		<circle class="st6" cx="30.3" cy="230.6" r="2.2"/>
		<circle class="st5" cx="54.6" cy="189.2" r="2.2"/>
		<circle class="st5" cx="112.7" cy="267" r="2.2"/>
		<circle class="st3" cx="12.3" cy="277.1" r="2.2"/>
		<circle class="st6" cx="75.6" cy="277.1" r="2.2"/>
		<circle class="st4" cx="130.1" cy="138.3" r="2.2"/>
		<circle class="st5" cx="114.9" cy="41.7" r="2.2"/>
		<circle class="st6" cx="193" cy="29.6" r="2.2"/>
		<circle class="st4" cx="204.8" cy="27.5" r="2.2"/>
		<circle class="st5" cx="209.8" cy="12" r="2.2"/>
		<circle class="st4" cx="28" cy="39.4" r="2.2"/>
		<circle class="st5" cx="135.9" cy="90.5" r="2.2"/>
		<circle class="st3" cx="212" cy="97.5" r="2.2"/>
		<circle class="st5" cx="172.3" cy="118.5" r="2.2"/>
		<circle class="st5" cx="66.8" cy="274.8" r="2.2"/>
		<circle class="st5" cx="107.1" cy="128.3" r="2.2"/>
		<circle class="st6" cx="94.2" cy="70.4" r="2.2"/>
		<circle class="st5" cx="45.6" cy="58.4" r="2.2"/>
		<circle class="st3" cx="275.5" cy="95.3" r="2.2"/>
		<circle class="st5" cx="8.3" cy="84.2" r="2.2"/>
		<circle class="st2" cx="255.7" cy="118.5" r="2.2"/>
		<circle class="st4" cx="279.5" cy="101.1" r="2.2"/>
		<circle class="st5" cx="292.1" cy="123.8" r="2.2"/>
		<path class="st6" d="M27.2,186.3c-0.4,0-0.8-0.2-1.1-0.5c-14.2-16.1-30.4-32.9-35-35.6c0.5,2.6,4.4,9.2,6.6,13
			c4.8,8.2,6.3,11.1,4.8,12.7c-0.3,0.4-0.8,0.5-1.3,0.5c-2,0-5.9-3.9-19.3-18.4c-4.9-5.3-11.2-12-14.8-15.4c1.2,2.3,3,5.3,4.3,7.6
			c5.6,9.4,7.4,12.9,5.7,14.6c-0.4,0.4-0.9,0.6-1.4,0.6c-3.7-0.1-22.1-19.8-32.7-31.5c-0.6-0.6-0.5-1.6,0.1-2.1c0,0,0,0,0,0
			c0.6-0.6,1.5-0.5,2.1,0.1c0,0,0,0,0,0c11.2,12.4,23.9,25.5,28.8,29.4c-1.1-2.5-3.5-6.6-5.3-9.5c-5.3-9-6.9-12.1-5.4-13.7
			c0.3-0.3,0.8-0.5,1.3-0.5c2,0,5.9,3.9,19.3,18.4c4.9,5.2,11.1,11.9,14.7,15.3c-1-2-2.5-4.5-3.7-6.5c-6-10.3-8.4-15-6.3-17.2
			c0.4-0.4,1-0.6,1.6-0.6c1.2,0,3.7,0.1,21.4,18.7c8.5,9,16.5,18.1,16.6,18.2c0.5,0.6,0.5,1.6-0.1,2.1c0,0,0,0,0,0
			C27.9,186.2,27.6,186.3,27.2,186.3z"/>
		<path class="st2" d="M-18.4,74.1c-9,0-39.4-10-49.3-13.3c-0.8-0.3-1.2-1.1-0.9-1.9c0.3-0.8,1.1-1.2,1.9-0.9
			c20.2,6.9,42.6,13.3,48,13.3h0.1c-1.8-2-8.4-5.8-12.2-7.9c-8.2-4.7-11-6.4-10.5-8.6c0.1-0.5,0.4-0.9,0.8-1.1c1.7-1,7,0.5,25.9,6.3
			c6.9,2.1,15.7,4.8,20.5,5.9c-2.2-1.4-5.2-3.1-7.6-4.4c-9.6-5.4-12.9-7.5-12.3-9.8c0.1-0.5,0.5-0.9,0.9-1.2c3.3-1.8,29,6.1,44,11
			c0.8,0.3,1.2,1.1,1,1.9c-0.3,0.8-1.1,1.2-1.9,1C14.2,59.1-3.3,54.1-9.5,53.2c2.2,1.6,6.3,3.9,9.3,5.6c9.1,5.1,12,7,11.5,9.2
			c-0.1,0.5-0.4,0.9-0.8,1.1c-1.7,1-7-0.5-25.9-6.3c-6.8-2.1-15.5-4.8-20.4-5.9c1.9,1.2,4.4,2.6,6.5,3.8c10.3,5.9,14.8,8.8,14,11.8
			c-0.1,0.6-0.5,1.1-1,1.4C-17,74.1-17.7,74.2-18.4,74.1z"/>
		<path class="st5" d="M170,26.3c-0.4,0-0.8-0.2-1.1-0.5c-0.5-0.6-0.5-1.6,0.1-2.1c0,0,0,0,0,0C183.4,11,198.4-3.4,201.2-7.9
			c-2.5,0.7-8.2,4-11.5,5.9c-7.7,4.5-10.2,5.8-11.7,4.4c-0.3-0.3-0.5-0.8-0.5-1.3c0-1.7,2.9-4.7,16.8-17.7
			c4.5-4.2,10.2-9.5,13.5-12.9c-2,1-4.4,2.5-6.2,3.6c-8.7,5.1-11.9,6.8-13.5,5.2c-0.4-0.4-0.6-0.8-0.6-1.4
			c0.1-3.5,18-20.2,28.8-29.9c0.6-0.6,1.6-0.5,2.1,0.1c0,0,0,0,0,0c0.6,0.6,0.5,1.5-0.1,2.1c0,0,0,0,0,0
			c-10.9,9.9-22.5,21-26.4,25.8c2.3-1.1,5.7-3.1,8.2-4.6c8.7-5.2,11.1-6.4,12.6-4.9c0.3,0.3,0.5,0.8,0.5,1.3
			c0,1.7-2.9,4.7-16.8,17.7C191.9-10.2,186.2-5,183-1.6c1.7-0.9,3.6-2,5.2-3c9.4-5.5,13.8-7.7,15.8-5.7c0.4,0.4,0.6,1,0.6,1.5
			C204.6-4.1,181.1,17,171,25.9C170.7,26.1,170.4,26.3,170,26.3z"/>
		<path class="st6" d="M36.4,24.4c-0.8,0.1-1.6-0.5-1.7-1.3c-0.1-0.8,0.5-1.6,1.3-1.7c16.3-3.5,34-7.9,39.9-10.3
			c-2.7-0.3-7.5-0.2-10.9-0.2c-10.5,0.2-13.9,0-14.6-2.2c-0.1-0.5-0.1-1,0.2-1.4c1-1.6,6.4-3.1,25.6-7.5c7-1.6,15.8-3.6,20.6-5
			c-2.2-0.1-5.1-0.1-7.5-0.1c-11.9,0.1-17.2-0.2-18-3.2c-0.1-0.6-0.1-1.2,0.2-1.7c0.6-1,1.9-3.2,26.9-9.1c12-2.9,23.9-5.3,24-5.3
			c0.8-0.2,1.6,0.4,1.8,1.2c0,0,0,0,0,0c0.2,0.8-0.4,1.6-1.2,1.8c-21,4.2-43.7,9.8-48.3,12.5C77.3-8.1,85-8.1,89.3-8.1
			c9.5-0.1,12.8,0,13.4,2.2c0.1,0.5,0.1,1-0.2,1.4c-1,1.7-6.3,3.1-25.6,7.5c-7,1.6-16,3.7-20.7,5.1c2.6,0.1,6.1,0.1,8.8,0
			c11-0.1,14.9,0,15.6,2.4c0.1,0.5,0.1,1-0.2,1.5c-1.9,3.2-28.2,9.2-43.6,12.5C36.6,24.4,36.5,24.4,36.4,24.4z"/>
		<path class="st3" d="M294.4,14.6c-0.7,0-1.3-0.5-1.5-1.2c-3.5-16.3-7.9-34-10.3-39.9c-0.3,2.7-0.2,7.5-0.2,10.9
			c0.1,10.5,0,13.9-2.2,14.5c-0.5,0.1-1,0.1-1.4-0.2c-1.7-1-3.1-6.3-7.5-25.6c-1.6-7-3.6-15.8-5.1-20.6c-0.1,2.2-0.1,5.1-0.1,7.5
			c0.1,11.9-0.2,17.2-3.2,18c-0.6,0.2-1.2,0.1-1.7-0.2c-1-0.6-3.2-1.9-9.1-26.9C249.4-61,247-72.9,247-73c-0.2-0.8,0.4-1.6,1.2-1.8
			c0.8-0.2,1.6,0.4,1.8,1.2c4.2,21,9.8,43.7,12.5,48.3c0.9-2.5,0.8-10.2,0.8-14.5c-0.1-9.5,0-12.8,2.2-13.4c0.5-0.1,1-0.1,1.4,0.2
			c1.7,1,3.1,6.3,7.5,25.6c1.6,7,3.7,16,5.1,20.7c0.1-2.6,0.1-6.1,0.1-8.8c-0.1-11,0-14.9,2.4-15.5c0.5-0.1,1-0.1,1.5,0.2
			c3.2,1.9,9.2,28.2,12.5,43.7c0.2,0.8-0.3,1.6-1.2,1.8c0,0,0,0,0,0C294.6,14.6,294.5,14.6,294.4,14.6z"/>
	</g>
</g>
</svg>
