<svg id="Layer_1" xmlns="http://www.w3.org/2000/svg" viewBox="0 0 550.1 855.8"><style>.st0{fill:#dad2e8}.st1{fill:#332c3e}.st3{opacity:.4;fill:#766f86}.st4{fill:#453d51}.st5{fill:#766f86}.st9{opacity:.4;fill:#332c3e}</style><path class="st0" d="M521.1 855.8l29-12.4-114.3-70.5 73.6-6.1-31.9-19.8-93.1-6.3-51.7-45.9-50.7-18.3-72.6 5.5-183.5-50.3L0 640.2l71.4 23.5L19.9 676l34.3 18.1 64.1-.1 59.7 22.3 30.7 53.7 52.8 22.4 80.2-6.2z"/><path class="st1" d="M319.6 404.4l-8 5.2-26.4-10.4-4.3-13 59-144.7 14.8 1.8 21.7 14.1z"/><path fill="#575065" d="M501.4 774l-27.5-3.8 10.3-170-86.5-127.9 2.9-6.1-97.1-31.5-23.4 13.8-4.6 28.9-89.8 53.4-4-20.7-44.9-45.8-23.7-42.9-11.6-25.3-47.1 15.5-27.6-2.9-10 8.4 30.9 8 50.7 3.3 74.4 139.2 164-50 113.7 98-3.1 21.8 9.2 74.8 5.6 79.1 52.6-5.6 21.4-7.6-8.3-7.4z"/><path class="st0" d="M365.8 466.2l18.4-16.5 46.6-108-2.5-27.2-8.7-49.1c0-.2-.1-.3-.2-.5l-8.8-11c-.1-.2-.4-.3-.6-.3l-32.9-.5-1.2 1.7 1.8.3-12.9 22.3-88.5-102.1L153 212.7l9.7 13.8 112-25.1 72.6 110-28.7 98.5-23.3 11.2v12.5l70.5 32.6z"/><path class="st3" d="M317.6 222.9l-22.2-25.6-31.5-18.2-14.5 4.4 19.2 11.1 6.7-2-.4 5.7 42.7 24.6zm11.6 150.6l59.2 34.2 2.7-11.2-58.8-33.9-3.1 10.9zm7.2-24.6l58.2 33.6 2.7-11.2-57.7-33.3-3.2 10.9zm-14.3 49.3l60.3 34.8 2.7-11.2-59.8-34.5-3.2 10.9zm-26.8 35.5l53 24.4-53-30.6v6.2zm9.1-16.9l67.2 38.8 5.4-9.7-60.5-35-12.1 5.9zM153 212.7l1.8 2.6 15.4 8.9 14.6-4.4-19-11-12.8 3.9zM377.1 253l-1.2 1.7 1.8.3 29 7c.2.1.4 0 .6-.1l-15-8.7-15.2-.2zm-12.3 24.4l-19.5-22.5-57-32.9 13.7 20.7 104 60 1.2-12.1-37.5-21.6-4.9 8.4zm47.9-12.3l3.9 15 2.7 1.6.3-12.6-6.9-4zm-80 24.1l70.6 40.8 1.2-12.1-85.5-49.4 13.7 20.7zm10.9 35.1l57.1 33 1.2-12.1-55.1-31.8-3.2 10.9zm-127-130.9l19.1 11 14.6-4.4-19.1-11-14.6 4.4zm-32.7 9.9l19.1 11 14.6-4.4-19.1-11-14.6 4.4z"/><path class="st3" d="M238.8 203.5l11.1-3.3v-16.9l-11.1 3.4v16.8zm36-1.9V199l-.1 2.4.1.2zm-11-5.6l11.1-3.3v-16.9l-11.1 3.4V196zM189 218.5l11.1-3.3v-16.8l-11.1 3.4v16.7zm230.6 46.8c0-.2-.1-.3-.2-.5l-6.1-7.6v10.1l5.8 22.6.5-24.3v-.3zM164.1 226l11.1-3.3V206l-11.1 3.4V226zm124.6-3.4l11.1 16.8v-37l-11.1-12.8v33zM213.9 211l11.1-3.3v-16.8l-11.1 3.4V211zm174.5 46.6l11.1 2.7v-7l-11.1-.2v4.5zm-24.9 18.3v189.2l2.3 1.1 8.8-15.8V260.5l-9.8 16.9-1.3-1.5zm-49.9-15.6l11.1 16.8v-46l-11.1-12.8v42zM388.4 408l11.1-45.7v-91.1l-11.1-6.6V408zm-93.1 25.7l4.5 2.1V419l-4.5 2.1v12.6zm43.2-135.6l8.8 13.3-8.8 30.2v112l11.1 5.1V259.9l-11.1-12.8v51zm-24.9 114.2v29.8l11.1 5.1v-58.1l-6.1 20.8-5 2.4z"/><path class="st4" d="M162.7 226.5l-9.7-13.8-40.8 11.9-8-12-2.1 6.9-.7 2.4 11.4 5.9-16-3-.4 7.3 11.2 5.4-13.8-2.8-3.6-5.3.4 9.3 6.5 4.6 17.5 1.1 1.9 4.1-16.9 7.6-8-4.4-3.9-6.4-2.6 4.7 3.6 6.3 11.1 5.9 18.2-4.1 15.2-4.7-3.6 8.4.1 9.9h6.2l2.9-12.9 13.3-10.1zm213.1-5.7l1.2 6.7 36.6 2.5-2.4-14.3-35.4 5.1zm46.1-68.9L381.7 95l-7.6 3.4 38.3 61.6 9.4 59.2 5.6-15.9-5.5-51.4z"/><path class="st5" d="M515.4 65.8l-8.2-5.6-19.1 4.2 6 8.2 21.3-6.8zm20.2 23l-11-4.9-7.6 2.9 2.8 7 15.8-5zm-25.4-18.2l5.5 5.8 15.3-2.1-7.2-5.5-13.6 1.8zm19.7 28.2l-14.2-.1-9.8-6.6-15.6-9.1-13.6 19.4-7.5 13.4-4.1-16.7 5.4-1.5 5.8-3.8 1.2-9.8-19.3 8 8.6 30.2 14.1 8.1 15.5.7 16.8-32.6 1.1 8.5 16.1.7-.5-8.8zm-32-.6l-6.2 19.4 3-19.3-6.9-2.5 9.4-1.2 11.7 9-11-5.4z"/><path class="st5" d="M377 227.5l2 25.3 30.6.7c.4 0 .7.3.8.7l8.7 35.7.8-35.5v-.2l-6.3-24.3-36.6-2.4zm-275.6-5.6l.7-2.4-5.5 2.3.2 3 16.1 3.1-11.5-6zm-7.6 12.8l13.8 2.7-11.2-5.3.4-7.4-6.5 4.6 3.5 5.4zm.1 14.6l-4.3-4.6-1.8.7 3.9 6.4 8 4.4 16.9-7.6-16.1 3.5-6.6-2.8zm16-36.7h-5.7l7.9 11.9 40.8-11.9-38.4 8-4.6-8zm302.5-52.7l-36.2-61.6-72.3 45.1 66.1 80.7 51.8-5-9.4-59.2zM517 86.8l2.8 7 15.7-5-11-4.9-7.5 2.9zm12.9 12l-14.2-.1-9.8-6.6-15.6-9.1-13.6 19.4-7.5 13.4-4.1-16.7 5.4-1.5 5.8-3.8 1.2-9.8-19 9.1 8.3 29.1 14.1 8.1 15.5.7 13.9-21.8 2.9-10.8 1.1 8.5 16.1.7-.5-8.8zm-32-.6l-6.2 19.4 3-19.3-6.9-2.5 9.4-1.2 11.7 9-11-5.4zm17.8-21.8l15.3-2.1-7.2-5.5-13.6 1.9 5.5 5.7zm-.3-10.6l-8.2-5.6-18.1 5.6 5 6.8 21.3-6.8z"/><path class="st4" d="M511.4 71.8l-1.3-1.2 2-.3 3.3-4.5-17.8 5.7-7.3 11.5 9.9 5.8 11.2-17zm-46.3 27.3l4.1 16.7 7.5-13.4-6.2-4.7-5.4 1.4zm43.7 4.4l-11.7-9-9.4 1.2 6.9 2.5-3 19.3 6.2-19.4 11 5.4zm5.5 3.4l-1.5-5.9-16.4 30 16.2-12.8 17.9-10.6-16.2-.7zm15.6-8.1l5.7-9.9-15.7 5-1.4-3.4-3.8 4.6 3.5-5.3-1.1-2.9 7.6-2.9 6.4-9.7-15.3 2.1-9.8 15.7 9.8 8.8 14.1-2.1z"/><linearGradient id="SVGID_1_" gradientUnits="userSpaceOnUse" x1="140.35" y1="-648.549" x2="140.35" y2="-480.214" gradientTransform="rotate(17.196 -1989.719 286.653)"><stop offset="0" stop-color="#f38058"/><stop offset="1" stop-color="#df3d2f"/></linearGradient><path d="M360.3 185s-47.8 25.8-58.5-8.7c-7.9-25.5-38.5-11.1-47.8-44.9 13.3 15.2 28.7 7.2 22.3-2.1 0 0-3.9 7.1-12.1 2.6 19.7-8.1-3.1-45.2-21.3-11.1 0 0 2.6-32.9 34-25.9s53.9-52.1-6.1-41.4-43-49.2-43-49.2 4.4 38.3 39.7 31 8.7-37.7-11.4-24.1c0 0 53.7-40.4 76 32.5C343 79.1 379.5 79.8 370.4 60c5.1.5 6.4 2.7 7.6 4.9 4.1-5.4 1.9-13.3-5.6-15.4 0 0 46.5-.4 24 50.9s-35.9 24.2-35.9 24.2-19.9 28.8 10.3 31.1c0 0-6.1 10-23.5-.2-17.3-10.2-9.7 27.3 13 29.5z" fill="url(#SVGID_1_)"/><linearGradient id="SVGID_2_" gradientUnits="userSpaceOnUse" x1="349.843" y1="111.406" x2="357.343" y2="186.406"><stop offset="0" stop-color="#f38058"/><stop offset="1" stop-color="#df3d2f"/></linearGradient><path d="M347.4 155.5c17.4 10.2 23.5.2 23.5.2-30.2-2.3-10.3-31.1-10.3-31.1s13.4 27.2 35.9-24.2c6.3-14.4 7.2-24.7 5.2-32.1 0 .1-4.5 53.7-37.9 49.5-33.5-4.2-9.2-29.1 3-16.6 0 0 .3-12.4-17.9-11.2-18.2 1.2-27 23.6-6.1 34.8 0 0-12.2 5.8-21.9-7.1 0 0-5 18.2 16.3 22.7 0 0-3.6 6.6-18.8-.8-15.2-7.5-27.5 6.8-17.8 13.2-7-8.1 8.7-15.3 14.2-5.9 3.8 6.6-2.4 8.2-6.8 5 .9 4.4 10.1 8.3 14.1 1.3 0 0-6.5 32.1 41.6 32.5-22.8-3.6-33.7-40.4-16.3-30.2z" fill="url(#SVGID_2_)"/><path d="M162.7 226.5l112-25.1.5-8.8-112.5 33.9zm194.2 99.4l33.5-19-12.3-14.2-21.2 33.2zM494 233.4l2.4-102.4-15.5-.7-4.7 95.8-44.5 45.9-4.6-10.3c-.1-.5.3-.9.8-.9.6 0 1-.6.7-1.1l-3-5.6c-.1-.3-.5-.4-.8-.4l-4.4.5c-.3 0-.6.3-.7.7l-.7 35-8.4-32.9c-.1-.8-1.2-1-1.5-.2l-1.6 4.7c-.1.4-.5.6-.9.5l-29-7-1.4 2.4 32.1 19.2-7.8 80.7-19.8 81.7-15.1 27.2 44.8 6.2v-26l20.1-78.4 13.6-16.9-5.5-34.7 55.4-83z" fill="#b8b1cf"/><path class="st9" d="M387.4 412.1l37.6-21.7 3.9-15-37.9 21.9-3.6 14.8zm51.4-95.8l4.5-6.8-40.3 23.2-1.3 13.5 38.3-22.1-1.2-7.8zm-39.7 47.5l-3.6 14.9 48.7-28.1-1.9-11.7-43.2 24.9zm34-93.2l58.7-33.9 2.2-3.3.3-10.9-33.2 19.2-28 28.9zm-44.9 198.6l22.4-12.9v-10l.8-3.3-41.2 23.8 18 2.4zm16.5-153.4l56-32.3 13.9-20.8-68.6 39.6-1.3 13.5zm-23.8 123.1l-4.7 8.4 40-23.1 3.9-15-37.2 21.5-2 8.2zm29.7 33.4zm-3-187l9-5.2-2.9-11.1-9.2 5.3 3.9 2.3-.8 8.7zm70.5-98.2l17.2-10 .3-13-16.9 9.8-.6 13.2zm-1.5 29.6l18-10.4.3-13-17.7 10.2-.6 13.2zm-76 43.9l-15.6-3.8-4.9 2.8 10.9 6.5 9.6-5.5zm79.6-116.3l-.7 13.2L496 148l.3-13-16.1 9.3zm-53 117.4c0-.2.1-.5.2-.6l-7.7 4.5-.3 12.9 12.2-7-4.4-9.8zm1.4-1.3l-1 .5h.2c.5 0 .7-.2.8-.5zm-50.5 32.3l-9.8 15.3 15.3-8.9-5.5-6.4z"/><path class="st9" d="M446.8 304.2l11.1-16.6V245l-11.1 11.5v47.7zm-74.8-2v15.1l11.1-6.3v-12.5l-5-5.8-6.1 9.5zm108.9-171.9l-4.7 95.8-4.4 4.6v36.2l11.1-16.6V130.4l-2-.1zm-53.7 131.4c-.1-.5.3-.9.8-.9.6 0 1-.6.7-1.1l-3-5.6c-.1-.3-.5-.4-.8-.4l-3 .3v148.2l8.8-34.4 2.2-2.8v-94.4l-1.2 1.3-4.5-10.2zM372 454.9V467l11.1 1.5v-38.8l-2.2 9.2-8.9 16zM406.7 262l-9.7-2.3v10l11.1 6.6v-16.1l-.5 1.3c-.1.4-.5.6-.9.5zM397 372.6v97.8l11 1.6V280.9l-7.4 76.4-3.6 15.3zm-38.8-47.4v-1.3l-1.3 2 1.3-.7zm18.2-67.8l6.8 4v-5.1l-5.4-1.3-1.4 2.4z"/><path class="st1" d="M368.5 270.4l12.8 29-53.4 46.3-7.9 13.9 75.9-53.7-22.9-42.7zm126.7-141.9l-41.4-63.8 35.8-20.4 37.2 63.5z"/><linearGradient id="SVGID_3_" gradientUnits="userSpaceOnUse" x1="457.413" y1="86.432" x2="523.625" y2="86.432"><stop offset="0" stop-color="#f8a56d"/><stop offset="1" stop-color="#eb5e43"/></linearGradient><path fill="url(#SVGID_3_)" d="M457.4 70.3l35.3-20.8 30.9 52.9-31.8 20.9z"/><path d="M481.8 70.5l.6 22.6 21.4-14.4-22-8.2zm2.2 7.3l2.7-3.5 4.6 6.9-2 1.4-5.3-4.8zm6.3 6l2.1-1.7.9 1.6-2 1.6-1-1.5z" fill="#fff"/><path class="st5" d="M489.1 65.8l5 6.8 21.3-6.8-8.2-5.6zM477.5 84l-19.3 8 2.2 7.9 4.7-.8 5.4-1.5 5.8-3.8zm52.4 14.8l-17.1 2.1 1.5 6 16.1.7z"/><path d="M489.1 65.8l4.3 11.5 10.9-7.9-10.2 3.2zm-15.3 29.7h6.3L477.5 84l-1.2 9.8zm39 5.4l-1.1 7.9 8-1.3-5.4-.6z" opacity=".2" fill="#7c201c"/><path d="M331.4 338.6l-18-11.3-4.5 13-2.4 1.3 21.3 9.4 3.6-12.4zm-27 5.3l-1.8-4.2-17 44.6 30.7 11.8 4.8-.7 13.8-45.8-5.5 5.2-25-10.9zm11.5 48.3l-26.4-9.9 13.5-32.8 23.2 7.3-10.3 35.4zm12.4-63.2l-6.2-4.4-1.6 3.6 4.3 3.4 3.5-2.6zm8.5 188.6l19.8 17.1 41.1-62.3-60.9 45.2z" fill="#241c2c"/></svg>