<svg width="320" height="239" fill="none" xmlns="http://www.w3.org/2000/svg"><g clip-path="url(#a)"><path d="M143.626 108.791c-3.87 11.505-16.139 17.31-26.78 14.226-11.063-3.206-16.64-15.936-12.774-27.44 3.87-11.505 15.858-17.874 26.78-14.226 10.922 3.648 16.64 15.936 12.774 27.44Z" fill="#F58452"/><path d="M217.881 135.278c7.539 0 13.651-6.439 13.651-14.383 0-7.943-6.112-14.383-13.651-14.383-7.54 0-13.651 6.44-13.651 14.383 0 7.944 6.111 14.383 13.651 14.383ZM149.256 116.779l15.358-25.153s.878-1.238 1.391-.144 3.51 22.672 3.51 22.672.294.875-.438 1.168c-.733.294-17.697 2.406-18.944 2.625-.32.057-1.391-.219-.877-1.168Z" fill="#EBB432"/><path d="M170.784 119.43c.127-.28 18.43-34.702 18.43-34.702s.877-1.557 1.562-.293c.684 1.264 15.99 32.274 15.99 32.274s.684 1.067-.781 1.557c-1.461.486-32.472 2.721-33.933 2.818-.829.056-1.852-.39-1.268-1.654Z" fill="#F58452"/><path d="m214.467 58.202-4.875-1.457s-6.96 6.916-7.412 7.484c-.452.57-.487 1.846.584 2.625 1.071.779 11.505 5.057 11.505 5.057l4.095-.875-.878 2.139 10.044 3.5 5.121-1.313-.535 2.529s6.63 1.797 7.411 1.797c.781 0 6.828-2.672 6.828-2.672l5.121-13.657-5.898-11.181s-.096-.682.391-1.067c.487-.385 1.172-.097 1.172-.097l5.937 8.797s.767-.11 1.061-.11c.294 0 .733-.034.733-.034l-8.899-27.996s-4.094-.971-5.265-1.558c-1.172-.581-3.998-1.456-3.998-1.456l-10.825 10.205s.684 1.75 1.171 2.918c.487 1.168.781 2.432.781 2.432l-5.458-1.457-8.461 8.968c.044-.538.615 3.622.562 6.487l-.013-.008Z" fill="#B39ED3"/><path d="M257.751 60.244s.987-.511 1.351.582c.365 1.094-.144 1.785-.329 1.934-.184.148-.877.183-.877.183s.438-.984.254-1.675c-.184-.691-.404-1.02-.404-1.02l.005-.004Z" fill="#EBB432"/><path d="M256.689 60.607s.987-.511 1.351.582c.365 1.094-.144 1.785-.329 1.934-.184.148-.877.183-.877.183s.439-.984.254-1.675c-.184-.691-.403-1.02-.403-1.02l.004-.004Z" fill="#EBB432"/><path d="M255.631 60.861s.988-.512 1.352.582c.364 1.093-.145 1.785-.329 1.933-.184.15-.878.184-.878.184s.439-.984.255-1.675c-.185-.691-.404-1.02-.404-1.02l.004-.004Z" fill="#EBB432"/><path d="M254.767 61.023s.685-.45 1.049.643c.364 1.094-.145 1.785-.329 1.934-.185.148-.878.183-.878.183s.206-.792.136-1.566c-.066-.713.026-1.19.026-1.19l-.004-.004ZM255.522 71.447s.987-.512 1.351.582c.364 1.094-.145 1.785-.329 1.934-.184.148-.877.183-.877.183s.438-.984.254-1.675c-.184-.691-.404-1.02-.404-1.02l.005-.004Z" fill="#EBB432"/><path d="M254.46 71.7s.987-.51 1.351.583c.365 1.093-.144 1.784-.329 1.933-.184.149-.877.184-.877.184s.438-.984.254-1.675c-.184-.692-.404-1.02-.404-1.02l.005-.004Z" fill="#EBB432"/><path d="M253.595 71.858s.685-.45 1.049.643c.364 1.094-.145 1.785-.329 1.934-.184.149-.878.184-.878.184s.207-.792.136-1.566c-.065-.713.027-1.19.027-1.19l-.005-.005ZM262.104 58.932s.987-.512 1.351.582c.365 1.093-.144 1.784-.329 1.933-.184.149-.877.184-.877.184s-.321-.184-.145-.63c.088-.227.904-.17.733-.901-.053-.232-.65-.289-.755-.464-.215-.345.026-.704.026-.704h-.004Z" fill="#EBB432"/><path d="M256.742 65.883s.987-.512 1.351.582c.364 1.093-.145 1.784-.329 1.933-.184.149-.878.184-.878.184s-.32-.184-.144-.63c.087-.227.903-.17.732-.901-.052-.232-.649-.289-.754-.464-.215-.345.026-.704.026-.704h-.004Z" fill="#F58452"/><path d="M263.201 58.604s.987-.512 1.351.582c.365 1.093-.144 1.785-.329 1.933-.184.149-.877.184-.877.184s.438-.984.254-1.675c-.184-.692-.404-1.02-.404-1.02l.005-.004Z" fill="#EBB432"/><path d="M264.298 58.276s.987-.512 1.351.582c.365 1.093-.144 1.784-.329 1.933-.184.149-.877.184-.877.184s.438-.984.254-1.676c-.184-.69-.404-1.019-.404-1.019l.005-.004Z" fill="#EBB432"/><path d="M265.465 57.948s.987-.512 1.352.581c.364 1.094-.145 1.785-.33 1.934-.184.149-.877.184-.877.184s.439-.984.254-1.676c-.184-.69-.403-1.019-.403-1.019l.004-.004Z" fill="#EBB432"/><path d="M266.492 57.729s.987-.512 1.351.582c.365 1.093-.144 1.785-.329 1.933-.184.149-.877.184-.877.184s.438-.984.254-1.675c-.184-.691-.404-1.02-.404-1.02l.005-.004ZM259.567 69.868s.988-.512 1.352.582c.364 1.093-.123 1.995-.303 2.139-.18.144-.904-.026-.904-.026s-.32-.184-.145-.63c.088-.228.904-.17.733-.901-.052-.232-.649-.29-.755-.464-.215-.346.027-.704.027-.704l-.005.004Z" fill="#EBB432"/><path d="M260.665 69.54s.987-.512 1.351.582c.364 1.093-.145 1.784-.329 1.933-.184.149-.878.184-.878.184s.439-.984.255-1.675c-.184-.692-.404-1.02-.404-1.02l.005-.004Z" fill="#EBB432"/><path d="M261.735 69.391s.988-.512 1.352.582c.364 1.094-.145 1.785-.329 1.933-.185.15-.878.184-.878.184s.439-.984.255-1.675c-.185-.691-.404-1.02-.404-1.02l.004-.004Z" fill="#EBB432"/><path d="M262.933 68.884s.987-.512 1.352.582c.364 1.093-.145 1.784-.329 1.933-.185.149-.878.184-.878.184s.439-.984.254-1.676c-.184-.69-.403-1.019-.403-1.019l.004-.004Z" fill="#EBB432"/><path d="M263.956 68.665s.987-.512 1.351.582c.364 1.093-.145 1.785-.329 1.933-.184.149-.878.184-.878.184s.439-.984.255-1.675c-.184-.691-.404-1.02-.404-1.02l.005-.004Z" fill="#EBB432"/><path d="M264.64 68.35s.987-.512 1.352.582c.364 1.093-.145 1.785-.329 1.933-.185.15-.878.184-.878.184s.439-.984.254-1.675c-.184-.691-.403-1.02-.403-1.02l.004-.004Z" fill="#EBB432"/><path d="M265.663 68.131s.987-.511 1.351.582c.364 1.094-.145 1.785-.329 1.934-.184.148-.878.183-.878.183s.439-.984.255-1.675c-.184-.691-.404-1.02-.404-1.02l.005-.004Z" fill="#EBB432"/><path d="M257.764 65.59s.987-.512 1.351.582c.365 1.093-.144 1.784-.329 1.933-.184.149-.877.184-.877.184s-.321-.184-.145-.63c.088-.228.562-.074.39-.8-.052-.232-.307-.385-.412-.56-.215-.346.026-.705.026-.705l-.004-.004Z" fill="#F58452"/><path d="M258.861 65.262s.987-.512 1.352.582c.364 1.093-.145 1.784-.33 1.933-.184.149-.877.184-.877.184s.439-.984.254-1.676c-.184-.69-.403-1.019-.403-1.019l.004-.004Z" fill="#F58452"/><path d="M259.958 64.934s.987-.512 1.352.582c.364 1.093-.145 1.784-.33 1.933-.184.149-.877.184-.877.184s.439-.985.254-1.676c-.184-.69-.403-1.019-.403-1.019l.004-.004Z" fill="#F58452"/><path d="M261.13 64.606s.987-.512 1.351.581c.364 1.094-.145 1.785-.329 1.934-.184.149-.878.184-.878.184s.439-.985.255-1.676c-.184-.69-.404-1.019-.404-1.019l.005-.004Z" fill="#F58452"/><path d="M254.157 77.156s.987-.512 1.352.582c.364 1.093-.145 1.784-.329 1.933-.185.149-.878.184-.878.184s-.053.035.123-.411c.088-.228.487-.342.316-1.068-.053-.232-.746.026-.852-.144-.215-.346.268-1.067.268-1.067v-.01Z" fill="#E1557A"/><path d="M255.179 76.867s.988-.512 1.352.582c.364 1.094-.145 1.785-.329 1.933-.184.15-.878.184-.878.184s-.32-.184-.145-.63c.088-.227.562-.074.391-.8-.053-.232-.307-.385-.413-.56-.215-.346.027-.705.027-.705l-.005-.004Z" fill="#E1557A"/><path d="M256.276 76.539s.988-.512 1.352.582c.364 1.093-.145 1.785-.329 1.933-.184.149-.878.184-.878.184s.439-.984.255-1.675c-.185-.692-.404-1.02-.404-1.02l.004-.004Z" fill="#E1557A"/><path d="M257.374 76.21s.987-.51 1.351.583-.145 1.784-.329 1.933c-.184.149-.878.184-.878.184s.439-.984.255-1.675c-.184-.692-.404-1.02-.404-1.02l.005-.004ZM260.59 74.606s.987-.512 1.351.581c.365 1.094-.144 1.785-.329 1.934-.184.148-.877.184-.877.184s-.053.034.123-.412c.087-.227.487-.34.316-1.067-.053-.232-.746.026-.852-.144-.215-.346.268-1.068.268-1.068v-.008Z" fill="#E1557A"/><path d="M261.617 74.312s.987-.511 1.351.582c.364 1.094-.145 1.785-.329 1.934-.184.148-.877.183-.877.183s-.321-.183-.145-.63c.087-.227.561-.074.39-.8-.052-.232-.307-.385-.412-.56-.215-.346.026-.704.026-.704l-.004-.005Z" fill="#E1557A"/><path d="M262.714 73.984s.987-.511 1.351.582c.364 1.094-.145 1.785-.329 1.934-.184.148-.877.183-.877.183s.438-.984.254-1.675c-.184-.691-.404-1.02-.404-1.02l.005-.004Z" fill="#E1557A"/><path d="M263.811 73.656s.987-.512 1.351.582c.365 1.094-.144 1.785-.329 1.933-.184.15-.877.184-.877.184s.438-.984.254-1.675c-.184-.691-.404-1.02-.404-1.02l.005-.004Z" fill="#E1557A"/><path d="M264.807 73.271s.987-.511 1.351.582c.365 1.094-.144 1.785-.329 1.934-.184.148-.877.183-.877.183s.438-.984.254-1.675c-.184-.691-.404-1.02-.404-1.02l.005-.004ZM258.545 75.883s.987-.512 1.352.582c.364 1.093-.145 1.784-.33 1.933-.184.149-.877.184-.877.184s.439-.984.254-1.676c-.184-.69-.403-1.019-.403-1.019l.004-.004Z" fill="#E1557A"/><path d="M262.152 64.387s.987-.512 1.352.582c.364 1.093-.145 1.784-.329 1.933-.185.149-.878.184-.878.184s.439-.984.254-1.675c-.184-.692-.403-1.02-.403-1.02l.004-.004Z" fill="#F58452"/><path d="M262.981 63.914s.988-.511 1.352.582c.364 1.094-.145 1.785-.329 1.934-.184.148-.878.183-.878.183s.439-.984.255-1.675c-.185-.691-.404-1.02-.404-1.02l.004-.004Z" fill="#F58452"/><path d="M264.149 63.586s.987-.511 1.351.582c.364 1.094-.145 1.785-.329 1.934-.184.148-.878.183-.878.183s.439-.984.255-1.675c-.184-.691-.404-1.02-.404-1.02l.005-.004Z" fill="#F58452"/><path d="M265.175 63.368s.988-.512 1.352.581c.364 1.094-.145 1.785-.329 1.934-.184.149-.878.184-.878.184s.439-.985.255-1.676c-.185-.69-.404-1.019-.404-1.019l.004-.004Z" fill="#F58452"/><path d="M266.053 63.026s.987-.511 1.352.582c.364 1.094-.145 1.785-.329 1.934-.185.148-.878.183-.878.183s.439-.984.254-1.675c-.184-.691-.403-1.02-.403-1.02l.004-.004Z" fill="#F58452"/><path d="M269.454 56.854s.987-.512 1.351.582c.365 1.093-.144 1.785-.329 1.933-.184.15-.877.184-.877.184s-.452-.188-.378-.424c.022-.075.571-.131.593-.219.079-.32.127-.708.044-1.032-.027-.1-.057-.197-.084-.285-.035-.109-.592.04-.623-.043-.118-.302.303-.691.303-.691v-.005Z" fill="#EBB432"/><path d="M242.261 133.638c-.584-.096-2.633.096-2.633.096l-1.659-4.956 1.949-10.888s-.974-.682-1.562-.778c-.584-.097-1.852.485-1.852.485l-1.242 17.778 1.242 11.579-47.659-3.876a12.06 12.06 0 0 1-.294 1.75c-.04.149-1.123.293-1.707.437 0 0 .391 1.606.439 1.558l48.729 4.798-1.755 11.47s.974 1.264 1.755 1.067c.781-.197 1.365-.581 1.365-.581l7.315-28.775s-1.852-1.068-2.44-1.168l.009.004ZM157.742 134.425l.268-4.483s-2.242-.779-3.317-.779c-1.075 0-2.73.779-2.73.779l.224 4.02c1.9.192 3.704.219 5.56.463h-.005ZM152.674 147.234c.167 4.072.461 10.901.461 10.901s.781.875 1.461.582c.685-.294 1.461-.875 1.461-.875l.663-10.171c-1.365-.262-2.703-.232-4.046-.437ZM126.697 141.46c-.145-1.217-.176-2.52-.294-3.828l-15.692-1.111v.03L82.43 134.22l23.305-9.234.974 9.816s.391.192.878.293c.487.096.684-.293.684-.293l-.487-17.109s-1.071-1.456-1.562-2.042c-.487-.582-.974-1.265-.974-1.265l-.584.193.878 8.749-28.18 9.916-2.633-12.541s-2.05-.582-3.217-.582c-1.167 0-3.023 1.168-3.023 1.168l10.237 31.981s.975.683 1.852.486c.878-.197 1.268-.582 1.268-.582l-4.094-16.329 48.94 4.619.005-.004Z" fill="#E1557A"/><path d="m213.199 59.466-3.168-.827-5.073 4.908s-.487.63.048.875c.536.245 6.534 2.043 6.534 2.043s1.022-2.77 1.268-3.937c.246-1.168.391-3.062.391-3.062ZM215.687 51.688l3.853-3.5s.974 6.855.732 10.499c-.245 3.644-3.071 11.47-3.071 11.47l-4.094.875s2.646-8.369 2.975-10.84c.535-4.033-.391-8.504-.391-8.504h-.004ZM226.657 43.328l-5.459-1.456s2.949 9.987 2.365 15.748c-.583 5.76-2.707 12.174-2.707 12.174l3.655 1.019s4.388-8.893 4.024-16.916c-.215-4.672-1.878-10.573-1.878-10.573v.005Z" fill="#2F1D4A"/><path d="m228.974 39.466 8.851-9.624s.364-.363.364.582-.658 43.162-.658 43.162-.075.363-.584.293-5.191-1.168-5.191-1.168l-.513 1.825-4.876 1.264s4.217-9.213 5.17-18.18c.811-7.642-2.559-18.154-2.559-18.154h-.004Z" fill="#2F1D4A"/><path d="m226.245 23.547 12.506.582 10.017 3.207 10.093 5.98s.219.362-.219.437c-.439.074-12.313-1.654-17.895-3.451-5.582-1.798-13.261-5.591-13.919-5.954-.658-.363-.877-.8-.583-.8ZM240.286 20.341l4.682-6.562s.659-.293.659.364c0 .656.144 4.593.144 4.593l4.095-3.863s.583-.438.658.219c.074.656-1.9 9.842-1.9 9.842l-8.193-3.863" fill="#F58452"/><path d="M224.902 22.72s3.216 3.207 15.99 6.904c12.773 3.692 16.674 2.917 16.674 2.917s.343-.293-.294-.582c-.636-.288-9.75-5.638-9.75-5.638l2.242-11.763s-.487-.582-1.07.096c-.584.683-3.704 3.5-3.704 3.5l-.193-4.668s-.583-.582-1.07.193c-.488.774-6.438 9.33-6.438 9.33l-11.799-.581s-.878-.097-.584.293h-.004ZM237.285 23.014l10.242 3.302M239.334 20l8.53 4.518M241.186 40.63V29.767M241.186 61.264V43.328" stroke="#2F1D4A" stroke-linecap="round" stroke-linejoin="round"/><path d="m235.556 27.944-10.825 10.205s4.094 8.823 3.655 17.642c-.439 8.819-3.949 15.092-3.949 15.092l-3.585-1.094s3.071-8.167 2.707-15.017c-.303-5.7-2.413-12.686-2.413-12.686l-8.777 8.968s1.097 4.3.803 8.385c-.294 4.082-1.61 7.074-1.61 7.074l-6.437-2.043s-.803-.437-.145-1.02c.658-.581 4.972-4.886 4.972-4.886l-1.681-2.769-6.946 7.218s-1.391 1.824.144 2.918c1.536 1.094 11.554 5.175 11.554 5.175s2.519-6.662 2.997-10.643c.659-5.468-.438-8.749-.438-8.749l3.874-3.574s1.83 5.98.294 13.705c-.886 4.462-3.51 10.499-3.51 10.499l10.092 3.574s5.191-11.885 5.411-20.634c.175-7-2.852-15.822-2.852-15.822l8.556-9.331s.803-.95.733.437c-.07 1.387-.658 42.65-.658 42.65s.074.801-.658.583c-.852-.254-5.191-1.02-5.191-1.02l-1.172 4.082s6.064 1.736 7.166 1.824c1.829.144 3.51 0 3.51-3.5V63.814M250.063 46.894l4.142 12.572M244.696 30.595l4.511 13.691M245.06 80.292c-.074-.293 7.434-19.466 7.605-20.048.171-.581 1.049-.875.952.293-.105 1.234-3.216 23.11-3.216 23.11l-5.341-3.355v0Z" stroke="#2F1D4A" stroke-linecap="round" stroke-linejoin="round"/><path d="m250.401 83.647 2.146-.9 2.338-22.503s.049-.485-.193-.533c-.241-.048-1.509.096-1.509.096M254.986 60.874c.145-.096 1.023.245.926 1.505-.118 1.553-1.171 1.409-1.171 1.409" stroke="#2F1D4A" stroke-linecap="round" stroke-linejoin="round"/><path d="M255.667 60.874c.583-.582 1.461-.048 1.364 1.216-.118 1.553-1.171 1.409-1.171 1.409" stroke="#2F1D4A" stroke-linecap="round" stroke-linejoin="round"/><path d="M256.742 60.533c.583-.582 1.461-.048 1.364 1.216-.118 1.553-1.171 1.409-1.171 1.409M253.889 71.85c.145-.097 1.023.245.926 1.504-.118 1.553-1.171 1.409-1.171 1.409" stroke="#2F1D4A" stroke-linecap="round" stroke-linejoin="round"/><path d="M254.569 71.85c.584-.582 1.462-.048 1.365 1.216-.118 1.553-1.171 1.408-1.171 1.408" stroke="#2F1D4A" stroke-linecap="round" stroke-linejoin="round"/><path d="M255.645 71.508c.583-.581 1.461-.048 1.364 1.217-.118 1.552-1.171 1.408-1.171 1.408M257.777 60.28c.575-.596 1.461-.075 1.387 1.19-.092 1.556-1.146 1.43-1.146 1.43M263.372 58.757c.588-.608 1.496-.079 1.422 1.22-.092 1.593-1.172 1.466-1.172 1.466M257.961 65.686c.588-.608 1.497-.079 1.422 1.22-.092 1.593-1.171 1.466-1.171 1.466" stroke="#2F1D4A" stroke-linecap="round" stroke-linejoin="round"/><path d="M264.469 58.429c.588-.608 1.496-.079 1.422 1.22-.092 1.593-1.172 1.466-1.172 1.466" stroke="#2F1D4A" stroke-linecap="round" stroke-linejoin="round"/><path d="M265.491 58.1c.588-.607 1.497-.078 1.422 1.221-.092 1.593-1.171 1.466-1.171 1.466" stroke="#2F1D4A" stroke-linecap="round" stroke-linejoin="round"/><path d="M266.479 57.812c.588-.608 1.496-.079 1.421 1.22-.092 1.593-1.171 1.466-1.171 1.466M259.058 65.358c.588-.608 1.497-.079 1.422 1.22-.092 1.593-1.171 1.466-1.171 1.466" stroke="#2F1D4A" stroke-linecap="round" stroke-linejoin="round"/><path d="M260.081 65.03c.588-.608 1.496-.079 1.422 1.22-.092 1.593-1.172 1.466-1.172 1.466" stroke="#2F1D4A" stroke-linecap="round" stroke-linejoin="round"/><path d="M261.068 64.737c.588-.608 1.497-.079 1.422 1.22-.092 1.593-1.172 1.466-1.172 1.466" stroke="#2F1D4A" stroke-linecap="round" stroke-linejoin="round"/><path d="M262.02 64.374c.588-.608 1.497-.079 1.422 1.22-.092 1.593-1.171 1.466-1.171 1.466" stroke="#2F1D4A" stroke-linecap="round" stroke-linejoin="round"/><path d="M263.117 64.046c.588-.608 1.497-.08 1.422 1.22-.092 1.592-1.171 1.465-1.171 1.465" stroke="#2F1D4A" stroke-linecap="round" stroke-linejoin="round"/><path d="M264.14 63.718c.588-.609 1.496-.08 1.422 1.22-.093 1.592-1.172 1.465-1.172 1.465" stroke="#2F1D4A" stroke-linecap="round" stroke-linejoin="round"/><path d="M265.127 63.425c.588-.609 1.497-.08 1.422 1.22-.092 1.592-1.172 1.465-1.172 1.465" stroke="#2F1D4A" stroke-linecap="round" stroke-linejoin="round"/><path d="M266.04 63.131c.588-.608 1.496-.078 1.422 1.22-.093 1.593-1.172 1.466-1.172 1.466M259.102 61.797l3.537-.997s.342-.193.246-.73c-.079-.443-.535-.438-.535-.438l-3.265.95M267.931 59.273l1.878-.464s.342-.192.246-.73c-.079-.442-.535-.438-.535-.438l-1.611.412M254.35 67.484l2.462-.779s.338.044.465.368c.171.437-.044.713-.044.713l-2.931.914" stroke="#2F1D4A" stroke-linecap="round" stroke-linejoin="round"/><path d="m267.51 64.58 1.272-.399s.343-.192.246-.73c-.079-.442-.535-.438-.535-.438l-1.141.359M257.018 72.89l3.072-.984s.342-.192.245-.73c-.079-.442-.535-.438-.535-.438l-2.887 1.06M252.889 80.17l1.632-.73s.342-.193.246-.731c-.079-.442-.535-.438-.535-.438l-1.291.683M259.958 77.23l1.022-.485s.343-.193.246-.731c-.079-.442-.535-.437-.535-.437l-.685.437M269.454 67.926c-1.347 5.231-2.673 10.35-2.673 10.35l-3.023-1.628M270.813 62.628c-.087.342-.175.691-.267 1.046M270.735 57.23c.277-.555.439-.874.439-.874s.294-.486.684-.294c.391.193.439.342.391.827-.013.123-.36 1.518-.873 3.548M268.844 61.014c.259-.516.421-.875.645-1.33M265.281 68.158c.382-.766.776-1.562 1.171-2.358M262.345 74.046c0-.035.255-.477 1.141-2.275M270.779 67.173l-2.093 9.742-1.9 1.36" stroke="#2F1D4A" stroke-linecap="round" stroke-linejoin="round"/><path d="m271.854 56.062.851.263s.294.144.268.468c-.009.087-.307 1.518-.742 3.574M267.44 63.158l-.584-1.094 2.743-1.382 3.365-.368.913 1.168-.364 1.313.145 4.3-1.207 1.133-1.975.835" stroke="#2F1D4A" stroke-linecap="round" stroke-linejoin="round"/><path d="m268.94 63.088 2.339-.587h1.391M271.718 63.376l-2.194.587-2.339 1.929.255.84.623.183.254.91.768.144 2.379-1.128 1.461.074" stroke="#2F1D4A" stroke-linecap="round" stroke-linejoin="round"/><path d="m268.172 66.766 2.524-1.675 1.974-.074M257.935 68.359l.9 1.36 7.459-3.692M254.934 63.814l1.518 2.3M251.485 63.49c-3.348-5.988-6.933-12.388-6.933-12.388s-.088-.757.438-1.02c.584-.293.974.097.974.097l6.662 10.113M255.763 71.386a58.388 58.388 0 0 1-1.413-2.537M263.468 71.666s-4.923 2.331-5.362 2.528c-.439.197-.64-.022-.926-.485l-.219-.355M239.795 78.542l6.951-3.062M213.028 71.106l4.098-.95M226.341 75.918l4.827-1.387M244.437 101.954l1.308 10.687M242.336 84.829l1.68 13.713M241.48 77.838l.57 4.668M243.332 76.963l6.507 38.495M261.906 59.715c.136-.586.492-1.002.904-1.002.531 0 .966.687.966 1.531 0 .845-.43 1.531-.966 1.531-.368 0-.689-.328-.851-.809" stroke="#2F1D4A" stroke-linecap="round" stroke-linejoin="round"/><path d="M260.814 69.767c.588-.608 1.496-.078 1.421 1.22-.092 1.593-1.171 1.466-1.171 1.466" stroke="#2F1D4A" stroke-linecap="round" stroke-linejoin="round"/><path d="M261.911 69.44c.588-.609 1.496-.08 1.421 1.22-.092 1.592-1.171 1.465-1.171 1.465" stroke="#2F1D4A" stroke-linecap="round" stroke-linejoin="round"/><path d="M262.933 69.111c.588-.608 1.496-.079 1.422 1.22-.092 1.593-1.172 1.466-1.172 1.466" stroke="#2F1D4A" stroke-linecap="round" stroke-linejoin="round"/><path d="M263.92 68.818c.588-.608 1.497-.079 1.422 1.22-.092 1.593-1.171 1.466-1.171 1.466" stroke="#2F1D4A" stroke-linecap="round" stroke-linejoin="round"/><path d="M264.873 68.49c.588-.608 1.496-.079 1.421 1.22-.092 1.593-1.171 1.466-1.171 1.466" stroke="#2F1D4A" stroke-linecap="round" stroke-linejoin="round"/><path d="M265.895 68.201c.588-.608 1.496-.078 1.422 1.22-.092 1.593-1.172 1.466-1.172 1.466M259.313 70.892c.101-.67.483-1.168.939-1.168.531 0 .965.686.965 1.53 0 .845-.43 1.532-.965 1.532-.333 0-.627-.272-.803-.683M256.312 66.858c.1-.678.482-1.185.939-1.185.531 0 .965.687.965 1.531 0 .844-.43 1.531-.965 1.531-.334 0-.624-.267-.799-.674M255.364 76.95c.588-.608 1.496-.079 1.421 1.22-.092 1.593-1.171 1.466-1.171 1.466" stroke="#2F1D4A" stroke-linecap="round" stroke-linejoin="round"/><path d="M256.461 76.622c.588-.608 1.496-.079 1.421 1.22-.092 1.593-1.171 1.466-1.171 1.466" stroke="#2F1D4A" stroke-linecap="round" stroke-linejoin="round"/><path d="M257.483 76.294c.588-.608 1.497-.079 1.422 1.22-.092 1.593-1.172 1.466-1.172 1.466" stroke="#2F1D4A" stroke-linecap="round" stroke-linejoin="round"/><path d="M258.435 75.857c.588-.608 1.497-.08 1.422 1.22-.092 1.592-1.172 1.465-1.172 1.465M254.657 80c.533 0 .966-.686.966-1.532s-.433-1.53-.966-1.53c-.533 0-.965.684-.965 1.53s.432 1.531.965 1.531ZM261.801 74.395c.588-.608 1.496-.078 1.422 1.221-.092 1.592-1.172 1.465-1.172 1.465" stroke="#2F1D4A" stroke-linecap="round" stroke-linejoin="round"/><path d="M262.898 74.067c.588-.608 1.496-.078 1.422 1.22-.092 1.593-1.172 1.466-1.172 1.466" stroke="#2F1D4A" stroke-linecap="round" stroke-linejoin="round"/><path d="M263.92 73.74c.588-.609 1.497-.08 1.422 1.22-.092 1.592-1.171 1.465-1.171 1.465" stroke="#2F1D4A" stroke-linecap="round" stroke-linejoin="round"/><path d="M264.873 73.411c.588-.608 1.496-.079 1.421 1.22-.092 1.593-1.171 1.466-1.171 1.466M260.129 75.918c0-.845.43-1.531.966-1.531.535 0 .965.686.965 1.53 0 .845-.43 1.532-.965 1.532-.273 0-.518-.18-.694-.464M268.984 57.72c.119-.63.487-1.085.922-1.085.531 0 .965.687.965 1.532 0 .844-.43 1.53-.965 1.53-.347 0-.65-.288-.821-.721M231.677 72.781l5.854-1.675M248.281 118.275s1.19-3.114 2.633-3.355c.439-.074.764.805.658 1.894-.364 3.793-.658 9.331-.658 9.331M243.744 122.943c-.404-3.649-.746-6.816-.803-7.511-.145-1.824 1.755-4.375 3.655-2.187 1.9 2.187 2.194 12.83 2.194 12.83M258.005 134.618l3.076 1.304s.365.511-.513.656c-.878.144-11.554-.219-11.554-.219s.294-1.969-.952-2.262c-1.312-.306-1.461 2.113-1.461 2.113l-1.391-.144s-.606-5.363-1.189-10.643" stroke="#2F1D4A" stroke-linecap="round" stroke-linejoin="round"/><path d="M253.091 117.619c.096 5.468-.351 13.854-.351 13.854s1.022-.582 1.536-.293c.513.293-.075 1.824-.075 1.824l2.172.923M249.743 113.831s1.61-1.387 2.777-.801c.246.123.4 1.006.487 2.332M202.716 59.466c-4.682.581-15.065 17.204-4.731 27.414 4.783 4.724 9.47 1.894 11.506-3.014 2.334-5.621 1.948-13.316 1.948-13.316M204.765 59.37s.395.043-.829-.097" stroke="#2F1D4A" stroke-linecap="round" stroke-linejoin="round"/><path d="M207.428 75.922c.148-3.71-.25-7.148-.25-7.148M201.913 67.169c-1.536 2.043-4.52 16.142 0 17.572 3.414 1.076 4.791-2.843 5.375-5.761M206.309 50.052l11.036-4.243M203.536 25.538l1.181 4.475s-6.095 20.17-6.389 21.19c-.294 1.019 0 1.893 1.171 1.456.408-.153 2.686-1.028 5.49-2.104M207.595 32.2s.974-1.216.584-1.942c-.215-.403-1.659-2.284-1.659-2.284l2.585-.682.193 1.457 1.123-.438.145-1.605-.575-1.86.294-.437-.548-1.688-.659.083-.364-1.155-.781-.683-5.169 1.654.386 1.461" stroke="#2F1D4A" stroke-linecap="round" stroke-linejoin="round"/><path d="M209.298 28.749s.487 6.124-1.949 16.719c-2.439 10.594-3.901 15.065-3.901 15.065" stroke="#2F1D4A" stroke-linecap="round" stroke-linejoin="round"/><path d="M208.275 31.006c0 .218-.583 8.604-2.268 15.529-1.681 6.925-3.875 15.53-3.875 15.53M209.995 24.847l-3.549.949M209.078 22.804l-3.216.949M201.987 66.294s-1.759 14.379 2.194 15.385c3.73.95 5.485-12.248 5.411-11.955" stroke="#2F1D4A" stroke-linecap="round" stroke-linejoin="round"/><path d="M202.935 66.84s-1.316 11.921 1.461 13.308c.452.223 1.435-.245 1.975-1.387 1.435-3.036 2.413-9.33 2.413-9.33M208.275 55.795l4.972 1.532M209.956 58.565l3.221.874M205.291 40.927l-3.084 8.307M207.837 34.068l-2.01 5.411M207.038 46.999l12.207-3.233M202.716 48.14l3.071-.813M219.978 73.805l-.048 32.222M222.752 96.302l.443 11.037M221.878 74.531l.724 18.08M221.146 42.09l5.414 1.164M205.989 129.679a14.677 14.677 0 0 1-3.418-9.457c0-.932.057-1.606.219-2.489M230.703 119.001c.03.403.048.81.048 1.221 0 8.001-6.31 14.483-14.09 14.483-3.462 0-6.635-1.281-9.088-3.412M228.728 112.737a14.59 14.59 0 0 1 1.663 4.221M204.01 113.84c2.295-4.799 7.1-8.102 12.651-8.102 4.278 0 8.109 1.96 10.694 5.053" stroke="#2F1D4A" stroke-linecap="round" stroke-linejoin="round"/><path d="M217.565 134.679c0 .219 4.168 7.362 4.168 7.362" stroke="#2F1D4A" stroke-linecap="round" stroke-linejoin="round"/><path d="m218.587 134.679 6.144 8.675s.294 1.019-.294 1.093c-.588.075-9.58-3.792-9.58-3.792l-3.365-.731 4.313-1.312 5.191 2.043M222.901 133.223l4.318 7.217M221.146 138.327l5.265 1.02M223.05 140.952s6.069 1.387 6.727 1.457c.658.07 1.461-.363.658-1.457s-6.801-8.167-6.801-8.167" stroke="#2F1D4A" stroke-linecap="round" stroke-linejoin="round"/><path d="m209.399 132.614 1.9 5.202-6.021-2.262-3.365 1.168 3.585.582 6.362 2.48M210.983 133.441l2.703 5.613M216.661 134.705l2.001 4.86" stroke="#2F1D4A" stroke-linecap="round" stroke-linejoin="round"/><path d="m216.538 125.423-2.922-16.041 3.729-1.238.22 16.842-1.027.437ZM216.319 127.61l2.343-1.312-.439 3.281-1.097.437-.807-2.406Z" fill="#2F1D4A"/><path d="m152.371 109.701 11.146-18.254s.878-1.238 1.391-.144c.197.42.759 3.858 1.378 7.94M166.584 101.219c.909 6.107 1.834 12.756 1.834 12.756s.294.875-.438 1.168c-.733.293-17.697 2.406-18.944 2.625-.32.057-1.391-.219-.877-1.168l3.019-4.943M155.768 128.008l-2.344-10.826M152.766 117.256l1.54 10.682M159.642 116.381c0 .219 1.097 17.716 1.097 17.716l3.73 1.676-2.413-3.062-1.681-16.404" stroke="#2F1D4A" stroke-linecap="round" stroke-linejoin="round"/><path d="m161.687 116.088 1.172 14.803-.803.656" stroke="#2F1D4A" stroke-linecap="round" stroke-linejoin="round"/><path d="m162.056 132.711 2.777-.945-2.413-15.822M164.614 115.651c-.145.363 2.339 18.516 2.339 18.516l4.533-.218-3.291-1.238-2.927-17.205" stroke="#2F1D4A" stroke-linecap="round" stroke-linejoin="round"/><path d="m160.007 109.964 1.391-12.393 3.361-1.53-3.361 13.634-1.391.289ZM159.493 111.644l2.269-.587-.658 2.481-1.462.73-.149-2.624Z" fill="#2F1D4A"/><path d="M138.413 115.344c-3.857 5.105-9.807 8.377-16.486 8.377-8.93 0-16.561-5.853-19.628-14.12a21.355 21.355 0 0 1-.597-1.842 23.3 23.3 0 0 1-.842-6.229c0-12.253 9.43-22.187 21.062-22.187 6.543 0 12.392 3.145 16.254 8.075M139.646 89.527c2.119 3.46 3.348 7.58 3.348 12.007 0 4.086-1.049 7.914-2.879 11.203M112.032 135.992l-.904-15.381M109.662 139.347l-.193 9.965-3.607 2.139 7.021-.875-.645-11.011" stroke="#2F1D4A" stroke-linecap="round" stroke-linejoin="round"/><path d="M110.03 120.025c0 .153-.153 8.25-.302 15.892M125.718 137.378l-1.057-13.753M123.371 140.624l-.053 8.591-2.826 3.399 6.24-2.038-.751-9.768M123.441 123.708l-.066 13.307M122.23 136.936l-.983-13.153" stroke="#2F1D4A" stroke-linecap="round" stroke-linejoin="round"/><path d="m120.233 140.222.088 6.321-2.782 1.382 5.485-.363-.527-7.047M120 123.673l.184 13.193M132.366 132.313l-.079-11.413M130.172 144.705l-.127 4.825 5.924-.437-3.436-1.387-.097-2.856M130.825 121.63l-.289 10.753" stroke="#2F1D4A" stroke-linecap="round" stroke-linejoin="round"/><path d="m116.639 87.584 4.753 20.779 1.9-.875-1.606-21.435-5.047 1.531ZM120.659 110.401l3.291-1.531.074 4.593-2.119 1.387-1.246-4.449Z" fill="#2F1D4A"/><path d="M154.763 18.346a65.781 65.781 0 0 1 2.014-2.104c11.887-11.85 41.594-11.99 41.893-11.99M173.395 22.918c-7.881 5.69-16.17 11.106-20.146 11.47-1.483.135-4.116.074-5.038-1.886-.943-2.004-.043-6.251 4.893-12.249M160.805 33.259c7.447-4.082 17.381-11.636 24.661-17.174 3.471-2.642 6.214-4.725 7.416-5.45 4.498-2.709 7.736-3.588 7.767-3.597 0 0 .895-.651.557-1.185-.338-.534-1.005-.507-1.005-.507-.14.035-3.493.94-8.223 3.792-1.281.774-4.059 2.883-7.574 5.556a660.8 660.8 0 0 1-8.908 6.693" stroke="#2F1D4A" stroke-linecap="round" stroke-linejoin="round"/><path d="M160.459 11.198c-1.83 1.12-3.493 2.38-4.924 3.806-7.46 7.432-10.79 14.252-8.912 18.242.899 1.915 2.887 2.94 5.652 2.94a12.7 12.7 0 0 0 1.132-.053c1.321-.123 3.014-.705 4.954-1.619M199.986 2.598c-1.694-.039-23.537.018-37.711 7.564M201.693 59.807s-7.872 7.926-5.485 19.829c1.461 7.292 5.191 9.33 5.191 9.33" stroke="#2F1D4A" stroke-linecap="round" stroke-linejoin="round"/><path d="M199.28 86.928s-3.01-7.327-1.681-14.654c.952-5.25 3.146-7.58 3.146-7.58" stroke="#2F1D4A" stroke-linecap="round" stroke-linejoin="round"/><path d="M199.574 81.023s.294 5.03 3.291 6.124c3.453 1.26 6.946-4.375 6.946-4.375" stroke="#2F1D4A" stroke-linecap="round" stroke-linejoin="round"/><path d="M201.11 85.616s3.874 1.605 6.068-1.894c2.194-3.5 1.975-11.01 1.975-11.01" stroke="#2F1D4A" stroke-linecap="round" stroke-linejoin="round"/><path d="M206.74 84.522s2.049-1.605 3.071-5.687c.851-3.398.878-8.604.878-8.604M199.109 5.416s-.685-.63-.145-1.702 1.365-1.36 1.852-1.12c.487.24.877 1.12.877 1.12" stroke="#2F1D4A" stroke-linecap="round" stroke-linejoin="round"/><path d="M199.745 5.223s-.097-.971.829-1.457c.926-.485 1.804.145 1.804 1.505" stroke="#2F1D4A" stroke-linecap="round" stroke-linejoin="round"/><path d="M200.522 5.175s1.557-.752 1.803.048c.584 1.894-1.676 1.82-1.676 1.82" stroke="#2F1D4A" stroke-linecap="round" stroke-linejoin="round"/><path d="M200.96 7.02c.049.145 4.143 11.812 4.827 14.485M202.378 6.29s3.949 11.619 4.827 14.825M207.542 27.777s.343 1.168.439 1.995M76.633 133.297l-2.777-13.123s-.878-.582-3.072-.582c-2.067 0-3.072 1.019-3.072 1.019l10.238 32.078s.658.511 1.535.437c.878-.074 1.61-.512 1.61-.512l-3.874-16.111M187.875 146.674l47.071 4.361M235.626 146.372l-46.215-3.928" stroke="#2F1D4A" stroke-linecap="round" stroke-linejoin="round"/><path d="m126.512 140.878-51.099-4.812s-.926-.337-.926-1.654c0-1.067.975-1.216.975-1.216l50.941 4.252" stroke="#2F1D4A" stroke-linecap="round" stroke-linejoin="round"/><path d="m76.778 132.763 28.378-10.035s.39-.043.583.512c.22.63-.219.971-.219.971l-23.963 9.528M233.287 162.509l4.581-29.164s1.203-.647 3.414-.096c1.563.389 2.44.971 2.44.971l-7.214 28.775s-.877.581-1.562.389c-.685-.192-1.659-.875-1.659-.875ZM151.38 133.988l-.246-4.484s1.755-1.019 3.216-.875c1.462.145 2.778.731 2.778.731l-.338 4.702M155.842 147.186l-.61 10.17s-.583.293-1.316.582c-.733.289-1.611-.293-1.611-.293l-.487-10.534M180.753 96.39c3.59-6.758 6.609-12.428 6.609-12.428s.877-1.557 1.562-.293 15.99 32.275 15.99 32.275.685 1.067-.781 1.557c-.658.219-7.328.796-14.582 1.369M176.251 104.868c1.172-2.209 2.392-4.497 3.568-6.715M187.647 119.019c-8.276.647-16.705 1.251-17.451 1.299-.83.057-1.852-.389-1.268-1.654.048-.105 2.624-4.956 5.836-11.001M179.757 136.32l-1.066-16.549M177.634 149.592c-.009.183.07.621.07.621l-3.585 1.894 6.656-.219-.289-2.078M177.853 119.881c-.048.14-.114 7.449-.145 16.369M181.801 119.518l-.288 16.95M183.707 136.687l-1.102-17.209M198.626 142.081l-1.027-23.731M196.138 148.279l-.075 1.785 7.53.144-4.089-1.784M196.537 118.315l-.399 23.766" stroke="#2F1D4A" stroke-linecap="round" stroke-linejoin="round"/><path d="m185.971 92.248 3.8-1.383.149 16.986-1.316.73-2.633-16.334ZM188.016 110.55l2.562-1.094-.439 3.57-1.61.293-.513-2.769Z" fill="#2F1D4A"/><path d="m194.019 141.788-.128-23.22M191.75 147.986c-.149 3.557-.198 4.996-.198 4.996l5.459 4.182-2.826-5.25-.022-3.705M192.917 118.643c.062.306-.452 12.948-.873 23M107.082 123.673l.342 10.573s-.877.438-1.461 0l-1.097-9.75M106.863 117.085l.166 5M104.677 122.868l-.987-8.749s.211-.135.685-.266M199.526 128.179h3.317M194.747 127.89h.878M184.119 127.501l7.117.096M180.319 127.304l1.36.017M167.909 126.696l7.969.293M176.536 124.802l-8.627-.293M180.512 124.972l-1.492-.061M191.043 125.265h-7.117M195.822 125.362h-.878M202.549 125.751l-3.313-.101M235.043 127.125l-2.848-.21M230.659 129.539l3.875.293M156.571 126.258l2.782.075M134.047 124.946l18.794.949M107.06 123.564l2.049.061M109.039 122.164l-2.027-.035M152.477 123.853l-18.505-.657M159.133 124.001h-3.221M237.144 128.297l1.848-10.971s-.952-.582-1.611-.656c-.658-.075-1.9.363-1.9.363l-.684 10.026M234.617 129.758l-.522 7.695s.267.31.658.363c.513.074.803-.075.803-.075l.184-1.421M237.162 128.192l1.466 4.812M235.626 146.127l.15-16.548M112.106 123.564l5.63.289M125.709 124.146l4.024.144M182.122 146.263s-1.316.363-1.097 1.238c.22.874 1.611.8 2.269.218.658-.581-.733-1.605-1.172-1.456Z" stroke="#2F1D4A" stroke-linecap="round" stroke-linejoin="round"/><path d="M69.63 168.918c4.307-9.54.457-20.567-8.6-24.63-9.056-4.063-19.89.376-24.196 9.916-4.306 9.539-.456 20.566 8.6 24.629 9.057 4.063 19.89-.376 24.197-9.915ZM97.27 88.061c2.928-6.488.544-13.883-5.325-16.516-5.87-2.633-13.003.492-15.932 6.98-2.929 6.488-.545 13.882 5.325 16.516 5.87 2.633 13.002-.492 15.931-6.98ZM222.948 186.939c4.711-10.434 1.313-22.13-7.589-26.124-8.902-3.993-19.937 1.227-24.647 11.661-4.71 10.434-1.313 22.13 7.589 26.124 8.902 3.993 19.937-1.227 24.647-11.661ZM304.005 171.955c3.998-8.854.425-19.089-7.98-22.859-8.404-3.771-18.458.35-22.455 9.204-3.997 8.854-.425 19.089 7.98 22.86 8.405 3.77 18.458-.351 22.455-9.205ZM85.023 201.411c.707-1.645 30.313-48.066 30.313-48.066s.702-1.168 1.101-.941c.549.315.496.53.549 1.409.386 6.57-.158 33.976-.158 33.976s.237 1.566-1.022 2.506c-1.255.941-28.821 12.524-29.84 12.997-1.022.468-1.65-.236-.943-1.877v-.004ZM24.2 110.287c.61-1.277 27.496-33.945 27.496-33.945s.605-.905.948-.73c.474.245.43.41.474 1.093.333 5.11-2.436 28.298-2.436 28.298s.202 1.216-.882 1.947c-1.084.73-23.906 4.427-24.788 4.794-.882.368-1.422-.184-.812-1.461v.004ZM292.223 113.398c.413-.985 18.698-26.177 18.698-26.177s.412-.7.645-.564c.32.188.294.32.32.844.229 3.937-.75 21.177-.75 21.177s.136.94-.597 1.5-17.166 4.06-17.763 4.34c-.596.28-.965-.14-.553-1.125v.005ZM257.378 151.543c.522-1.199 21.914-26.816 21.914-26.816s.518-.848.812-.682c.408.227.447.385.408 1.028-.351 5.59-1.11 21.373-1.11 21.373s-.689.503-1.637 1.164c-1.167.814-1.448 1.732-1.755 1.798-5.784 1.172-17.342 3.232-17.934 3.504-.755.341-1.22-.171-.698-1.369Z" fill="#E7E1EC"/><path d="M45.79 82.042c2.821-3.368 4.734-5.647 4.734-5.647s1.668-1.741 1.747.315l-1.9 20.354M36.316 93.35c2.87-3.425 5.752-6.872 8.166-9.755M50.099 99.995l-.369 3.954s.158 1.426-.715 1.741c-1.203.437-23.358 4.991-24.626 5.385-1.053.328-2.703.079-1.668-1.426.163-.232 5.744-6.916 11.866-14.23M11.66 125.423l-1.76 2.813-4.446.739 6.776 2.642 6.994-12.248 9.426-9.081" stroke="#2F1D4A" stroke-linecap="round" stroke-linejoin="round"/><path d="m18.956 116.057-2.593 1.833-3.449 5.521M26.53 110.707l-5.827 4.117M35.021 123.24l-2.663-1.443 2.33-12.883" stroke="#2F1D4A" stroke-linecap="round" stroke-linejoin="round"/><path d="M33.52 109.124c-.105.315-4.45 13.832-4.45 13.832l11.866 8.237 1.8 4.225.53-7.707-6.2-3.36M44.328 106.801l8.368 25.345-3.392 3.907 8.052-3.592-12.075-25.817" stroke="#2F1D4A" stroke-linecap="round" stroke-linejoin="round"/><path d="m50.059 116.906 2.637-.814 3.598 2.433-3.492-6.549-4.226 1.763 1.483 3.167ZM46.851 114.456l-6.972 2.905 2.435-10.031-1.273.21-4.449 13.517 11.29-3.482-1.03-3.119Z" stroke="#2F1D4A" stroke-linecap="round" stroke-linejoin="round"/><path d="m38.843 99.754 7.31-14.97 3.336-.87-9.057 15.525-1.589.315ZM37.413 101.893l2.86-.713-1.509 2.931-1.904.551.553-2.769Z" stroke="#2F1D4A" stroke-miterlimit="10"/><path d="M3.7 146.197c.157-.634 17.793-18.692 26.055-19.164 8.263-.477 4.45 6.334 2.704 6.811-1.747.476 1.908-4.117 3.97-3.01 2.067 1.107.479 3.01.479 3.01s3.695-6.413 7.942-4.117c3.814 2.061 1.43 6.335 1.43 6.335M96.007 76.753c1.233 3.005 1.33 6.658 0 10.17-.185.486-.387.954-.615 1.405M94.519 89.846c-3.177 4.825-8.833 7.143-13.81 5.275-5.897-2.217-8.613-9.483-6.064-16.224 2.55-6.746 9.4-10.416 15.302-8.198 2.123.796 3.835 2.249 5.037 4.099" stroke="#2F1D4A" stroke-linecap="round" stroke-linejoin="round"/><path d="m73.083 103.765 3.02 1.881v2.314l2.066-5.227-7.57-3.6 5.775-6.982" stroke="#2F1D4A" stroke-linecap="round" stroke-linejoin="round"/><path d="m75.848 91.338-8.43 8.906 3.563 2.218M82.702 98.105l.54-2.231M80.499 107.208l1.483-6.129M82.382 95.703l-6.88 19.116-2.664 2.485 5.673-1.885 1.519-6.269M90.245 101.434l.737-7.874M89.876 94.3l-2.422 12.632 8.373 2.712 1.009 2.52v-5.38l-6.916-2.271" stroke="#2F1D4A" stroke-linecap="round" stroke-linejoin="round"/><path d="m88.753 100.196-1.299.993-1.36-5.556-.79.153 1.29 8.745 1.532-1.072.627-3.263ZM90.934 101.232l3.12-2.27 1.856.844-2.177-3.416-3.247 2.48-.228 2.502" stroke="#2F1D4A" stroke-linecap="round" stroke-linejoin="round"/><path d="m83.5 86.959 3.612-13.543 3.523-.346-5.932 13.63-1.203.259ZM82.64 88.245l2.234-.429-1.031 2.402-1.461.511.258-2.484Z" stroke="#2F1D4A" stroke-miterlimit="10"/><path d="M33.35 164.425a19.127 19.127 0 0 1 .539-9.295c2.505-8.067 9.781-13.299 17.596-13.386M54.1 141.91c.944.131 1.887.337 2.822.626 9.64 2.974 14.959 13.433 11.878 23.359-3.08 9.93-13.396 15.564-23.037 12.589-5.937-1.832-10.237-6.5-11.944-12.139" stroke="#2F1D4A" stroke-linecap="round" stroke-linejoin="round"/><path d="M20.918 182.859c-5.24 3.574-9.785 6.658-9.785 6.658l-4.889-2.494 5.569 6.912 25.455-20.844" stroke="#2F1D4A" stroke-linecap="round" stroke-linejoin="round"/><path d="M36.47 172.072c-.062.179-7.145 5.048-13.806 9.593M30.387 188.41l.444-3.482 12.159-7.248M25.03 196.393l-.338 1.221-4.428 2.834 8.745-1.133 1.089-8.608" stroke="#2F1D4A" stroke-linecap="round" stroke-linejoin="round"/><path d="M35.456 180.282c-3.454 1.803-7.013 3.622-7.013 3.622l-2.891 10.578M41.853 176.77c-.044.131-2.11 1.255-4.607 2.576M49.282 184.084l1.238-4.751M48.593 194.692l2.721 4.807-3.41 2.717 8.18-1.356-7.951-12.349.697-2.682" stroke="#2F1D4A" stroke-linecap="round" stroke-linejoin="round"/><path d="m49.497 179.447-4.208 9.405 2.396 4.234M53.13 179.447s2.388 14.952 2.502 14.615c.114-.337 12.501-10.648 12.501-10.648l4.547 1.361-5.911-5.665-10 10.083-2.388-10.083" stroke="#2F1D4A" stroke-linecap="round" stroke-linejoin="round"/><path d="m52.924 146.464-4.83 18.722 2.483-.411 8.565-17.76-6.218-.551ZM46.851 166.975l3.59-.411-1.795 3.994-2.348.962.553-4.545Z" stroke="#2F1D4A" stroke-miterlimit="10"/><path d="M116.126 171.048c-.088 8.163-.237 15.778-.237 15.778s.237 1.567-1.023 2.507c-1.259.941-28.82 12.524-29.838 12.996-1.019.473-1.65-.236-.944-1.876.259-.604 4.388-7.205 9.522-15.333M109.092 160.707l5.3-8.325s.703-1.168 1.102-.94c.548.315.496.529.548 1.408.163 2.769.163 9.239.106 15.801M94.914 183.047c4.331-6.85 9.175-14.475 12.949-20.411M81.013 225.264l6.84-24.111M82.28 212.732c-3.317 8.324-7.305 18.245-7.305 18.245l-4.555 3.132 8.793-2.506 1.255-4.427" stroke="#2F1D4A" stroke-linecap="round" stroke-linejoin="round"/><path d="M86.673 201.542c0 .118-1.606 4.182-3.624 9.256M98.398 218.887l7.754-2.783 4.16 2.034-4.086-6.264-12.8 5.56 1.26-19.256" stroke="#2F1D4A" stroke-linecap="round" stroke-linejoin="round"/><path d="M93.505 198.725 90.68 221.66l5.477-1.964M104.265 212.657l-.312-3.989 5.104-16.36M101.044 217.981l-.079 7.673-3.216 3.132 7.696-3.29-.785-8.766M102.782 205.501l-1.501 3.871-.158 4.773M107.797 192.539l-4.208 10.875M115.643 204.07l-4.862 1.781 1.492-15.346" stroke="#2F1D4A" stroke-linecap="round" stroke-linejoin="round"/><path d="M111.097 191.288c0 .468-2.747 17.769-2.747 17.769l13.507-3.757 4.554 2.585-4.085-6.264-4.695 1.719" stroke="#2F1D4A" stroke-linecap="round" stroke-linejoin="round"/><path d="m103.348 184.53 6.494-21.19 4.397-2.502-9.215 23.066-1.676.626ZM102.198 187.137c.316-.105 3.142-1.356 3.142-1.356l-1.988 4.488-1.676.941.522-4.073Z" stroke="#2F1D4A" stroke-miterlimit="10"/><path d="M296.647 148.708c6.068 4.217 9.052 12.161 6.841 19.899-2.76 9.668-12.568 15.354-21.91 12.703-4.471-1.268-8.026-4.217-10.211-8.009M269.752 169.596c-1.018-3.303-1.119-6.964-.088-10.582 2.761-9.667 12.568-15.354 21.91-12.703 1.001.284 1.953.652 2.852 1.093M272.977 186.42l3.406-7.459M278.081 189.464l1.931-.853 2.295 2.288-1.909-6.859-9.176 6.225.922-2.021M271.547 192.334l3.949-1.737M275.299 178.135l-5.92 11.64" stroke="#2F1D4A" stroke-linecap="round" stroke-linejoin="round"/><path d="m287.761 198.362-2.269-2.546.957-13.81" stroke="#2F1D4A" stroke-linecap="round" stroke-linejoin="round"/><path d="m285.111 182.133-2.295 15.148 8.153 9.97s-3.313 3.224-2.932 3.079l7.772-2.931-5.981-6.71" stroke="#2F1D4A" stroke-linecap="round" stroke-linejoin="round"/><path d="m291.355 181.245-3.059 11.198 8.662 7.039-.381 3.958 3.313-6.745-9.044-5.717 1.847-10.114" stroke="#2F1D4A" stroke-linecap="round" stroke-linejoin="round"/><path d="m297.143 185.833 5.805 17.021-2.422 3.224 5.862-2.786-10.448-24.331M295.049 179.692l1.084 3.176" stroke="#2F1D4A" stroke-linecap="round" stroke-linejoin="round"/><path d="M283.263 169.561c0-.193 5.099-17.529 5.099-17.529l5.862-1.78-8.793 18.801-2.168.508ZM282.052 171.529l4.076-1.461-2.101 4.51-2.55 1.015.575-4.064Z" stroke="#2F1D4A" stroke-miterlimit="10"/><path d="M264.526 140.55c6.376-7.345 13.761-15.801 14.112-16.063.623-.468 1.167-.932 1.167.31 0 1.243-1.558 22.288-1.558 22.288M277.098 148.152c-3.388.753-21.278 3.981-21.278 3.981s-.935-.079-.544-.853c.039-.079 3.396-3.972 7.556-8.766M254.609 167.373l7.828-16.329M261.582 151.123c0 .231-11.528 19.645-11.528 19.645l-4.906-1.089 6.31 4.269 2.357-4.921" stroke="#2F1D4A" stroke-linecap="round" stroke-linejoin="round"/><path d="m258.154 151.744-7.091 10.796 4.208-.7" stroke="#2F1D4A" stroke-linecap="round" stroke-linejoin="round"/><path d="m259.243 151.512-4.985 8.464 2.571-.931M257.531 161.372l4.674-.853 1.79 2.795-.623-6.133-4.129.932M268.69 155.707l.137 7.765M268.594 149.959l.07 4.116M269.528 149.648l.544 8.233M274.666 148.638c.079.232-.157 1.71-.157 1.71M275.527 148.485l-.079 1.085" stroke="#2F1D4A" stroke-linecap="round" stroke-linejoin="round"/><path d="m268.905 142.737 5.92-11.26 3.427-.857-7.947 11.728-1.4.389ZM268.067 144.062l2.317-.686-1.755 2.37-1.128.25.566-1.934Z" stroke="#2F1D4A" stroke-miterlimit="10"/><path d="M310.364 97.76c-.04 5.297-.101 11.018-.101 11.018s0 .608-.509.91c-.509.302-16.464 3.592-17.452 3.972-.614.236-1.676.153-1.114-.835.053-.097 2.128-2.997 4.822-6.754M298.336 102.825c4.744-6.614 10.101-14.077 10.101-14.077s.641-1.08 1.369-.962c.457.074.457.555.558 1.163.039.223.035 3.001.013 6.409" stroke="#2F1D4A" stroke-linecap="round" stroke-linejoin="round"/><path d="m297.783 112.523.913 10.393 5.551 7.419.303 3.679 1.325-6.22-5.885-5.866-1.448-9.707M293.838 123.927l1.892-11.024M294.817 113.052l-5.634 20.94-3.423 2.656 6.24-1.973 1.255-7.323M301.144 117.282l-1.456 2.218M305.471 110.703l-3.392 5.157" stroke="#2F1D4A" stroke-linecap="round" stroke-linejoin="round"/><path d="m298.468 121.7-2.967 8.421-2.514 3.263 5.178-2.882 1.606-6.063M300.447 122.308l.531-1.894 5.406-9.864M307.534 121.705l5.164-1.518 2.282 1.968-1.825-4.777-8.066 3.185 3.12-10.394" stroke="#2F1D4A" stroke-linecap="round" stroke-linejoin="round"/><path d="m307.297 110.476-4.643 12.668 2.751-.809" stroke="#2F1D4A" stroke-linecap="round" stroke-linejoin="round"/><path d="m302.729 104.859 3.655-10.394 2.966-1.058-5.252 11.076-1.369.376ZM301.741 106.228l2.51-.835-1.597 2.729-1.448.683.535-2.577Z" stroke="#2F1D4A" stroke-miterlimit="10"/><path d="M220.524 187.84c6.109-9.888 4.242-22.092-4.171-27.257-8.412-5.166-20.185-1.337-26.294 8.551-6.11 9.888-4.242 22.091 4.17 27.257 8.413 5.165 20.186 1.337 26.295-8.551ZM178.489 204.801l5.898 6.933-3.19 4.716 7.091-4.361" stroke="#2F1D4A" stroke-linecap="round" stroke-linejoin="round"/><path d="m189.354 191.704-16.196 6.837 4.023 4.724" stroke="#2F1D4A" stroke-linecap="round" stroke-linejoin="round"/><path d="m190.06 192.767-12.409 6.36 10.167 10.84M193.492 215.873l-3.669-9.44 6.977-8.837" stroke="#2F1D4A" stroke-linecap="round" stroke-linejoin="round"/><path d="m189.67 202.727-3.032 3.233 4.844 17.441s-4.493 4.125-4.138 4.007c.356-.118 8.983-4.243 8.983-4.243l-1.905-4.9M195.146 196.888l-4.138 4.413M210.803 215.558l2.545-19.965M211.395 196.888c-.118.708-5.731 28.928-5.731 28.928l-5.199 3.77 8.806-2.003 1.238-9.711" stroke="#2F1D4A" stroke-linecap="round" stroke-linejoin="round"/><path d="M206.138 198.423c-.237.472-6.384 11.667-6.384 11.667l8.894.441" stroke="#2F1D4A" stroke-linecap="round" stroke-linejoin="round"/><path d="m207.674 198.187-3.901 9.663 5.231-.061M211.751 210.706l4.432.088 4.138 3.771-2.484-6.951-5.376-.092" stroke="#2F1D4A" stroke-linecap="round" stroke-linejoin="round"/><path d="m200.228 185.462 7.091-20.621 5.91-1.654-10.992 21.802-2.009.473ZM198.336 188.406l4.02-1.413-2.484 5.42-2.716.94 1.18-4.947Z" stroke="#2F1D4A" stroke-miterlimit="10"/><path d="M84.146 239s22.831-25.77 34.529-28.967c11.699-3.198 7.925 9.969 4.151 12.414-3.773 2.446-.754-3.95 4.34-5.455 5.095-1.504 2.453 3.95 2.453 3.95s2.831-6.019 8.68-8.088c5.849-2.069 4.906 3.574 4.906 3.574M191.184 232.915s5.2-9.33 11.176-12.441c5.981-3.11 8.838 3.627 8.838 3.627s2.861-14.773 10.399-17.362c7.539-2.59 6.24 8.552 6.24 8.552s-.263 4.274-2.597 3.11c-2.339-1.168 2.079-7.773 4.677-8.552 2.598-.779 4.941 2.332 4.941 2.332M188.898 137.851l-61.727-5.101.109 2.699 1.062.604-1.031.197.211 5.249 1.505.774h-1.47l.052 1.413 59.095 6.124.285-1.557-1.018-.437.491-.779-.491-2.039 1.689-.389.61-3.324-2.005-.762 2.238-.507.395-2.165Z" stroke="#2F1D4A" stroke-linecap="round" stroke-linejoin="round"/><path d="M132.199 135.782c.106-.014.224-.022.347-.031.123-.009.246-.013.373-.013s.246 0 .364.009c.119.004.224.013.325.021.232.022.461.07.684.145.224.074.43.188.61.337.18.148.325.341.439.573.11.231.171.516.18.848.004.245-.009.455-.044.635a1.845 1.845 0 0 1-.153.459c-.066.131-.15.24-.25.328a1.909 1.909 0 0 1-.321.236l1.255 2.717-1.11-.114-1.053-2.423-.575-.057.066 2.318-.957-.096-.175-5.892h-.005Zm1.505 1.041c-.1-.009-.197-.018-.294-.018-.096 0-.171 0-.219.013l.048 1.737.378.035c.267.026.482-.026.649-.158.167-.131.246-.367.237-.708-.009-.258-.079-.464-.215-.626-.136-.157-.329-.249-.584-.271v-.004ZM139.927 141.998a1.235 1.235 0 0 1-.237.175 2.028 2.028 0 0 1-.768.24c-.154.018-.32.018-.496 0a2.216 2.216 0 0 1-.816-.236 1.97 1.97 0 0 1-.614-.508 2.258 2.258 0 0 1-.395-.743 3.32 3.32 0 0 1-.154-.954c-.009-.376.035-.7.127-.971s.224-.494.391-.669a1.47 1.47 0 0 1 .601-.368c.233-.074.483-.096.755-.07.18.018.368.066.566.14.193.075.373.193.54.35.166.158.302.359.408.604.105.245.162.547.171.91 0 .245-.013.512-.057.792l-2.567-.258c.008.183.044.341.105.472.061.131.14.241.241.328a1.2 1.2 0 0 0 .338.21c.127.048.259.083.404.096.285.031.518.013.698-.048.18-.061.329-.144.443-.245l.32.757-.004-.004Zm-1.602-3.211c-.123-.013-.241 0-.351.026a.772.772 0 0 0-.505.42 1.051 1.051 0 0 0-.092.381l1.756.17c-.005-.284-.075-.516-.211-.695-.136-.18-.334-.28-.601-.307l.004.005ZM140.936 136.53l1.545.144.048 4.003c.004.441.057.752.149.931.092.18.241.28.443.302.149.013.272.009.369-.017.096-.027.193-.07.29-.127l.364.809c-.084.052-.163.105-.246.149a1.334 1.334 0 0 1-.557.162c-.11.008-.228.004-.365-.009-.451-.048-.789-.219-1.022-.516-.228-.298-.347-.696-.355-1.199l-.053-3.626-.601-.057-.013-.954.004.005ZM148.624 142.881a1.178 1.178 0 0 1-.246.18 2.155 2.155 0 0 1-.794.24 2.442 2.442 0 0 1-.513 0 2.317 2.317 0 0 1-.839-.24 1.936 1.936 0 0 1-.627-.517 2.365 2.365 0 0 1-.395-.752 3.161 3.161 0 0 1-.14-.967c0-.38.043-.708.144-.984.101-.276.237-.503.417-.678a1.51 1.51 0 0 1 .623-.372c.242-.074.501-.096.781-.07.189.018.382.066.58.144.197.079.381.197.553.355.166.157.302.363.412.612.105.25.158.556.162.923 0 .25-.022.516-.074.801l-2.642-.263c.005.184.04.346.101.477.062.131.141.245.241.337.101.092.215.162.347.21.132.052.268.083.413.096.294.031.535.013.719-.048a1.28 1.28 0 0 0 .461-.249l.316.765Zm-1.597-3.254c-.128-.013-.246 0-.36.026a.834.834 0 0 0-.527.429.979.979 0 0 0-.101.389l1.808.179c0-.288-.07-.525-.206-.708-.136-.184-.342-.285-.614-.315ZM149.774 139.408c.197-.088.425-.153.688-.206.264-.052.571-.061.931-.026.259.026.478.083.662.175.185.092.329.21.444.354.114.145.193.315.241.508.048.192.074.407.07.638 0 .298-.013.552-.031.757-.017.21-.026.394-.03.556a4.679 4.679 0 0 0 .035.647l.487.048v.958l-1.255-.127-.097-.599h-.035a1.29 1.29 0 0 1-.421.42c-.18.109-.426.149-.737.118-.369-.039-.658-.184-.873-.437-.215-.254-.325-.569-.325-.949 0-.241.039-.451.114-.617a.97.97 0 0 1 .329-.403c.145-.1.32-.166.522-.201s.43-.039.685-.017c.088.008.184.026.281.043.096.022.219.044.364.07a1.1 1.1 0 0 0 .013-.175v-.166c0-.223-.053-.385-.162-.494-.11-.105-.268-.171-.483-.193a1.83 1.83 0 0 0-.68.048 3.17 3.17 0 0 0-.509.18l-.228-.914v.004Zm1.259 3.324c.233.022.412-.008.531-.096a.8.8 0 0 0 .259-.302v-.52c-.048-.018-.123-.035-.22-.061a1.64 1.64 0 0 0-.316-.053 1.455 1.455 0 0 0-.28 0 .762.762 0 0 0-.251.07.433.433 0 0 0-.175.153.435.435 0 0 0-.066.245c0 .162.04.293.119.39.079.096.215.157.399.174ZM156.593 142.951c0-.118-.057-.214-.18-.297a2.944 2.944 0 0 0-.457-.241c-.18-.074-.377-.157-.592-.24a2.786 2.786 0 0 1-.592-.315c-.18-.127-.33-.28-.452-.455-.123-.18-.18-.398-.18-.665 0-.215.044-.403.127-.56.083-.158.197-.285.342-.385.145-.101.316-.171.518-.21.202-.039.417-.048.649-.026.246.022.466.065.654.122.189.061.351.127.487.197.141.074.259.149.356.232.096.083.184.157.254.223l-.43.744a3.312 3.312 0 0 0-.908-.521 1.782 1.782 0 0 0-.351-.079 1.1 1.1 0 0 0-.514.048c-.131.053-.197.145-.197.28 0 .105.061.197.184.272.123.074.277.153.457.227.18.074.377.153.596.241.215.087.417.188.597.31.18.123.334.271.452.446.123.175.18.394.18.652-.004.446-.154.779-.434 1.002-.281.223-.698.306-1.247.254a2.783 2.783 0 0 1-1.114-.337 2.872 2.872 0 0 1-.751-.595l.457-.774c.066.07.149.148.259.24.105.088.228.175.364.25.136.074.276.144.43.205.154.057.303.096.456.114.163.017.299 0 .417-.053.114-.052.176-.153.18-.306h-.017ZM162.161 144.264c-.07.065-.154.122-.263.179a2.338 2.338 0 0 1-.373.153 2.47 2.47 0 0 1-.465.092 2.82 2.82 0 0 1-.536 0 2.466 2.466 0 0 1-.869-.249 2.01 2.01 0 0 1-.645-.525 2.246 2.246 0 0 1-.394-.77 3.136 3.136 0 0 1-.128-.985c.005-.389.066-.721.176-1.006.109-.28.263-.511.452-.686.188-.175.412-.302.662-.377a2.202 2.202 0 0 1 1.418.079c.206.079.399.201.57.363.171.162.312.372.417.626.105.253.154.568.145.94a4.351 4.351 0 0 1-.097.818l-2.76-.275c0 .188.035.35.097.485.061.136.145.25.245.341.106.092.224.167.356.215.136.052.276.087.43.1.307.031.557.018.759-.048.202-.065.36-.144.487-.253l.316.783Zm-1.597-3.321a1.18 1.18 0 0 0-.378.027.937.937 0 0 0-.32.153.876.876 0 0 0-.237.28 1.008 1.008 0 0 0-.114.393l1.887.184c.004-.293-.062-.534-.198-.722-.136-.183-.351-.293-.636-.319l-.004.004ZM169.279 144.605c.171.017.333.008.478-.027.145-.035.272-.096.377-.175a.893.893 0 0 0 .351-.686.99.99 0 0 0-.083-.46.852.852 0 0 0-.263-.315 1.242 1.242 0 0 0-.413-.192 3.055 3.055 0 0 0-.526-.096l-.444-.044.022-.643 1.391-1.724-2.005-.188.031-.993 3.247.302-.031.827-1.465 1.684.179.018c.185.017.365.07.536.161.171.088.325.21.452.372.131.158.232.346.307.573.075.223.105.477.097.757a2.007 2.007 0 0 1-.22.879 1.862 1.862 0 0 1-.513.6 1.88 1.88 0 0 1-.711.319 2.552 2.552 0 0 1-.816.044 3.247 3.247 0 0 1-.702-.145 3.254 3.254 0 0 1-.676-.293l.303-.931c.043.035.109.07.188.109a4.08 4.08 0 0 0 .584.223c.105.031.21.048.316.057l.009-.013ZM173.79 145.331c.008-.21.074-.368.197-.481a.576.576 0 0 1 .47-.136.683.683 0 0 1 .473.232c.11.136.163.306.154.516-.009.21-.075.372-.197.486-.123.113-.286.157-.488.14a.65.65 0 0 1-.456-.237.747.747 0 0 1-.153-.52ZM177.274 143.1a6.074 6.074 0 0 1 .223-1.439c.123-.407.286-.74.487-.998.202-.258.439-.441.707-.555.268-.114.566-.158.891-.127.693.066 1.211.385 1.558.962.346.578.487 1.435.425 2.572a5.993 5.993 0 0 1-.237 1.448c-.127.403-.294.735-.496.989a1.726 1.726 0 0 1-.711.547 1.873 1.873 0 0 1-.886.114c-.689-.07-1.198-.407-1.536-1.002-.333-.599-.478-1.435-.425-2.511Zm1.053.105a4.883 4.883 0 0 0-.009.258v.249l2.08-1.841c-.136-.543-.43-.836-.878-.875-.346-.035-.623.131-.825.49-.206.358-.324.932-.364 1.719h-.004Zm2.167.214c.005-.096.009-.192.009-.28v-.262l-2.084 1.833c.14.564.426.87.869.914.342.035.618-.123.829-.472.206-.35.334-.928.377-1.737v.004Z" fill="#E1557A"/></g><defs><clipPath id="a"><path fill="#fff" d="M0 0h320v239H0z"/></clipPath></defs></svg>