<svg width="312" height="164" fill="none" xmlns="http://www.w3.org/2000/svg"><path d="M274.819 68.923l.536 53.577L2.96 119.887 1 65.017l273.819 3.906z" stroke="#FF7738" stroke-width="1.5"/><path d="M4.281 67.629l-.668 51.489 269.138.769 1.297-51.872L4.281 67.63z" fill="#fff" stroke="#3E2C73" stroke-width=".75"/><rect x="215.258" y="85.919" width="41.806" height="14.371" rx="1" fill="#3E2C73"/><rect x="57.178" y="95.064" width="52.258" height="2" rx="1" fill="#C1B2DD"/><rect x="114.661" y="95.064" width="11.758" height="2" rx="1" fill="#C1B2DD"/><rect x="57.629" y="88" width="58" height="3" rx="1.5" fill="#3E2C73"/><rect x="118.629" y="88" width="53" height="3" rx="1.5" fill="#3E2C73"/><circle cx="31.048" cy="92.451" r="11.758" fill="#FF7738"/><rect x="229.629" y="92.452" width="14.371" height="1.5" rx=".75" fill="#fff"/><circle cx="32.355" cy="93.758" r="11.383" stroke="#3E2C73" stroke-width=".75"/><path d="M310.093 109.423l.536 53.577-272.395-2.613-1.96-54.871 273.819 3.907z" stroke="#FF7738" stroke-width="1.5"/><path d="M39.555 108.129l-.668 51.489 269.138.769 1.297-51.872-269.767-.386z" fill="#fff" stroke="#3E2C73" stroke-width=".75"/><rect x="250.532" y="126.419" width="41.806" height="14.371" rx="1" fill="#3E2C73"/><rect x="92.452" y="135.564" width="13.065" height="2" rx="1" fill="#C1B2DD"/><rect x="109.436" y="135.564" width="49.645" height="2" rx="1" fill="#C1B2DD"/><rect x="264.903" y="132.952" width="14.371" height="1.5" rx=".75" fill="#fff"/><rect x="92.629" y="128" width="74" height="3" rx="1.5" fill="#3E2C73"/><rect x="170.629" y="128" width="10" height="3" rx="1.5" fill="#3E2C73"/><circle cx="66.323" cy="132.952" r="11.758" fill="#5A4A79"/><circle cx="67.629" cy="134.258" r="11.383" stroke="#3E2C73" stroke-width=".75"/><path d="M310.093 4.907l.536 53.577L38.234 55.87 36.274 1l273.819 3.907z" stroke="#FF7738" stroke-width="1.5"/><path d="M39.555 3.613l-.668 51.49 269.138.768 1.297-51.872-269.767-.386z" fill="#fff" stroke="#3E2C73" stroke-width=".75"/><rect x="250.532" y="21.903" width="41.806" height="14.371" rx="1" fill="#3E2C73"/><rect x="92.452" y="31.048" width="13.065" height="2" rx="1" fill="#C1B2DD"/><rect x="109.436" y="31.048" width="49.645" height="2" rx="1" fill="#C1B2DD"/><rect x="264.903" y="28.436" width="14.371" height="1.5" rx=".75" fill="#fff"/><rect x="92.629" y="24" width="72" height="3" rx="1.5" fill="#3E2C73"/><rect x="167.629" y="24" width="9" height="3" rx="1.5" fill="#3E2C73"/><circle cx="66.323" cy="28.435" r="11.758" fill="#EDE7F5"/><circle cx="67.629" cy="29.742" r="11.383" stroke="#3E2C73" stroke-width=".75"/></svg>