<svg xmlns="http://www.w3.org/2000/svg" width="959" height="570" fill="none"><g filter="url(#a)"><rect width="955" height="543" x="2" y="24" fill="#fff" rx="4"/><rect width="954" height="542" x="2.5" y="24.5" stroke="#E0DCE5" rx="3.5"/></g><path fill="#FAF9FB" stroke="#E0DCE5" d="M2.5 4A3.5 3.5 0 0 1 6 .5h947a3.5 3.5 0 0 1 3.5 3.5v65.5H2.5z"/><path stroke="#E0DCE5" d="M2 69.5h955M2 140.5h955M2 69.5h955M2 211.5h955M2 282.5h955M2 353.5h955M2 424.5h955M2 495.5h955M2 566.5h955M2 69.5h955"/><path fill="#80708F" d="M23.815 43.15q-1.395 0-2.34-.405-.93-.42-1.425-1.08-.48-.675-.51-1.41a.305.305 0 0 1 .315-.315h1.335q.195 0 .285.09.105.075.18.195.09.285.345.57.255.27.69.45.45.18 1.125.18 1.08 0 1.605-.36.54-.36.54-.975 0-.435-.285-.69-.285-.27-.885-.48-.585-.225-1.56-.465-1.125-.27-1.89-.645-.75-.39-1.14-.975-.375-.585-.375-1.485 0-.87.465-1.545.48-.675 1.35-1.065.885-.39 2.1-.39.975 0 1.725.27.75.255 1.245.69.495.42.75.915.27.48.285.945a.34.34 0 0 1-.09.225q-.075.09-.225.09h-1.395q-.12 0-.24-.06a.44.44 0 0 1-.195-.225q-.09-.465-.585-.795t-1.275-.33q-.81 0-1.305.3t-.495.93q0 .42.24.705.255.27.795.48.555.21 1.455.45 1.275.285 2.085.66t1.185.96q.375.57.375 1.455 0 .99-.54 1.695-.525.69-1.485 1.065t-2.235.375m10.029 0q-1.395 0-2.37-.48a3.48 3.48 0 0 1-1.47-1.395q-.51-.915-.57-2.19-.015-.615-.015-1.32t.015-1.35q.06-1.26.57-2.175.525-.915 1.485-1.395.975-.495 2.355-.495 1.02 0 1.83.27t1.38.75q.57.465.885 1.095t.33 1.365q.015.135-.09.225a.3.3 0 0 1-.225.09h-1.425q-.165 0-.27-.075a.5.5 0 0 1-.15-.285q-.24-.99-.825-1.35t-1.455-.36q-1.005 0-1.605.57-.6.555-.645 1.845-.045 1.23 0 2.52t.645 1.86q.6.555 1.605.555.87 0 1.455-.36.585-.375.825-1.35.045-.21.15-.285t.27-.075h1.425q.135 0 .225.09.105.09.09.225-.015.735-.33 1.365t-.885 1.11q-.57.465-1.38.735t-1.83.27m6.564-.15a.35.35 0 0 1-.255-.105.35.35 0 0 1-.105-.255v-9.765q0-.165.105-.27a.35.35 0 0 1 .255-.105h3.885q1.815 0 2.865.84t1.05 2.445q0 1.11-.555 1.845-.54.735-1.455 1.065l2.19 3.825q.045.09.045.165 0 .135-.105.225-.09.09-.21.09h-1.365q-.255 0-.39-.135t-.21-.27l-1.935-3.555h-2.085v3.6q0 .15-.105.255a.32.32 0 0 1-.255.105zm1.725-5.655h2.115q.915 0 1.365-.405.45-.42.45-1.17t-.45-1.17q-.435-.435-1.365-.435h-2.115zM50.5 43a.35.35 0 0 1-.255-.105.35.35 0 0 1-.105-.255v-9.765q0-.165.105-.27a.35.35 0 0 1 .255-.105h6.6q.165 0 .27.105t.105.27v.99q0 .15-.105.255a.37.37 0 0 1-.27.105h-4.935v2.655h4.605q.165 0 .27.105.105.09.105.255v.93q0 .165-.105.27a.4.4 0 0 1-.27.09h-4.605v2.745h5.055q.165 0 .27.105t.105.27v.99q0 .15-.105.255a.37.37 0 0 1-.27.105zm9.33 0a.35.35 0 0 1-.254-.105.35.35 0 0 1-.105-.255v-9.765q0-.165.105-.27a.35.35 0 0 1 .255-.105h6.6q.165 0 .27.105t.105.27v.99q0 .15-.105.255a.37.37 0 0 1-.27.105h-4.935v2.655h4.605q.165 0 .27.105.105.09.105.255v.93q0 .165-.105.27a.4.4 0 0 1-.27.09h-4.605v2.745h5.055q.165 0 .27.105t.105.27v.99q0 .15-.105.255a.37.37 0 0 1-.27.105zm9.332 0a.35.35 0 0 1-.255-.105.35.35 0 0 1-.105-.255v-9.765q0-.165.105-.27a.35.35 0 0 1 .255-.105h1.155q.21 0 .3.105a.8.8 0 0 1 .135.135l4.32 6.72v-6.585q0-.165.09-.27.105-.105.27-.105h1.26q.165 0 .27.105t.105.27v9.75q0 .165-.105.27a.35.35 0 0 1-.255.105h-1.17q-.21 0-.3-.105a.8.8 0 0 0-.135-.135l-4.305-6.57v6.45q0 .15-.105.255a.37.37 0 0 1-.27.105zM747.12 43a.35.35 0 0 1-.255-.105.35.35 0 0 1-.105-.255v-8.295h-2.775a.35.35 0 0 1-.255-.105.35.35 0 0 1-.105-.255v-1.11q0-.165.105-.27a.35.35 0 0 1 .255-.105h7.65q.165 0 .27.105t.105.27v1.11q0 .15-.105.255a.37.37 0 0 1-.27.105h-2.76v8.295q0 .15-.105.255a.37.37 0 0 1-.27.105zm9.082 0a.35.35 0 0 1-.255-.105.35.35 0 0 1-.105-.255v-8.295h-2.775a.35.35 0 0 1-.255-.105.35.35 0 0 1-.105-.255v-1.11q0-.165.105-.27a.35.35 0 0 1 .255-.105h7.65q.165 0 .27.105t.105.27v1.11q0 .15-.105.255a.37.37 0 0 1-.27.105h-2.76v8.295q0 .15-.105.255a.37.37 0 0 1-.27.105zm6.772 0a.35.35 0 0 1-.255-.105.35.35 0 0 1-.105-.255v-9.765q0-.165.105-.27a.35.35 0 0 1 .255-.105h6.51q.165 0 .27.105t.105.27v1.05q0 .165-.105.27a.4.4 0 0 1-.27.09h-4.815v2.85h4.515q.165 0 .27.105t.105.27v1.05q0 .15-.105.255a.37.37 0 0 1-.27.105h-4.515v3.72q0 .15-.105.255a.37.37 0 0 1-.27.105zm9.009 0a.35.35 0 0 1-.255-.105.35.35 0 0 1-.105-.255v-9.765q0-.165.105-.27a.35.35 0 0 1 .255-.105h3.66q1.515 0 2.49.465.99.465 1.485 1.38.51.915.525 2.235.03.66.03 1.17t-.03 1.155q-.03 1.395-.51 2.31-.48.9-1.455 1.35-.96.435-2.46.435zm1.725-1.725h1.935q.84 0 1.365-.24t.765-.765q.255-.54.27-1.41.015-.45.015-.78.015-.345 0-.675 0-.345-.015-.78-.03-1.23-.615-1.815t-1.86-.585h-1.86zM682.647 43a.35.35 0 0 1-.255-.105.35.35 0 0 1-.105-.255v-8.295h-2.775a.35.35 0 0 1-.255-.105.35.35 0 0 1-.105-.255v-1.11q0-.165.105-.27a.35.35 0 0 1 .255-.105h7.65q.165 0 .27.105t.105.27v1.11q0 .15-.105.255a.37.37 0 0 1-.27.105h-2.76v8.295q0 .15-.105.255a.37.37 0 0 1-.27.105zm9.082 0a.35.35 0 0 1-.255-.105.35.35 0 0 1-.105-.255v-8.295h-2.775a.35.35 0 0 1-.255-.105.35.35 0 0 1-.105-.255v-1.11q0-.165.105-.27a.35.35 0 0 1 .255-.105h7.65q.165 0 .27.105t.105.27v1.11q0 .15-.105.255a.37.37 0 0 1-.27.105h-2.76v8.295q0 .15-.105.255a.37.37 0 0 1-.27.105zm6.772 0a.35.35 0 0 1-.255-.105.35.35 0 0 1-.105-.255v-9.78q0-.15.105-.255a.35.35 0 0 1 .255-.105h1.41q.165 0 .255.105.105.105.105.255v9.78q0 .15-.105.255a.32.32 0 0 1-.255.105zm4.482 0a.35.35 0 0 1-.255-.105.35.35 0 0 1-.105-.255v-9.765q0-.165.105-.27a.35.35 0 0 1 .255-.105h3.66q1.515 0 2.49.465.99.465 1.485 1.38.51.915.525 2.235.03.66.03 1.17t-.03 1.155q-.03 1.395-.51 2.31-.48.9-1.455 1.35-.96.435-2.46.435zm1.725-1.725h1.935q.84 0 1.365-.24t.765-.765q.255-.54.27-1.41.015-.45.015-.78.015-.345 0-.675 0-.345-.015-.78-.03-1.23-.615-1.815t-1.86-.585h-1.86zM535.761 43a.35.35 0 0 1-.255-.105.35.35 0 0 1-.105-.255v-9.765q0-.165.105-.27a.35.35 0 0 1 .255-.105h6.51q.165 0 .27.105t.105.27v1.05q0 .165-.105.27a.4.4 0 0 1-.27.09h-4.815v2.85h4.515q.165 0 .27.105t.105.27v1.05q0 .15-.105.255a.37.37 0 0 1-.27.105h-4.515v3.72q0 .15-.105.255a.37.37 0 0 1-.27.105zm9.009 0a.35.35 0 0 1-.255-.105.35.35 0 0 1-.105-.255v-9.765q0-.165.105-.27a.35.35 0 0 1 .255-.105h3.885q1.815 0 2.865.84t1.05 2.445q0 1.11-.555 1.845-.54.735-1.455 1.065l2.19 3.825q.045.09.045.165 0 .135-.105.225-.09.09-.21.09h-1.365q-.255 0-.39-.135t-.21-.27l-1.935-3.555h-2.085v3.6q0 .15-.105.255a.32.32 0 0 1-.255.105zm1.725-5.655h2.115q.915 0 1.365-.405.45-.42.45-1.17t-.45-1.17q-.435-.435-1.365-.435h-2.115zm12.014 5.805q-1.335 0-2.295-.435a3.36 3.36 0 0 1-1.5-1.365q-.54-.93-.585-2.31a55 55 0 0 1 0-2.565q.045-1.365.6-2.28t1.515-1.38q.975-.465 2.265-.465t2.265.465 1.53 1.38.6 2.28a28 28 0 0 1 0 2.565q-.045 1.38-.585 2.31a3.35 3.35 0 0 1-1.515 1.365q-.96.435-2.295.435m0-1.725q.975 0 1.59-.57.615-.585.66-1.89.03-.66.03-1.215 0-.57-.03-1.215-.03-.87-.33-1.41-.285-.555-.78-.795-.495-.255-1.14-.255-.63 0-1.125.255-.495.24-.795.795-.285.54-.315 1.41a52 52 0 0 0 0 2.43q.045 1.305.66 1.89.615.57 1.575.57M564.591 43a.35.35 0 0 1-.255-.105.37.37 0 0 1-.105-.27v-1.05q0-.225.09-.36t.135-.195l5.22-6.75h-4.935q-.165 0-.27-.105a.38.38 0 0 1-.09-.255v-1.035q0-.165.09-.27.105-.105.27-.105h7.17q.165 0 .27.105t.105.27v1.035q0 .18-.06.3t-.135.225l-5.115 6.78h5.1q.165 0 .27.105t.105.27v1.05q0 .15-.105.255a.37.37 0 0 1-.27.105zm9.96 0a.35.35 0 0 1-.255-.105.35.35 0 0 1-.105-.255v-9.765q0-.165.105-.27a.35.35 0 0 1 .255-.105h6.6q.165 0 .27.105t.105.27v.99q0 .15-.105.255a.37.37 0 0 1-.27.105h-4.935v2.655h4.605q.165 0 .27.105.105.09.105.255v.93q0 .165-.105.27a.4.4 0 0 1-.27.09h-4.605v2.745h5.055q.165 0 .27.105t.105.27v.99q0 .15-.105.255a.37.37 0 0 1-.27.105zm9.331 0a.35.35 0 0 1-.255-.105.35.35 0 0 1-.105-.255v-9.765q0-.165.105-.27a.35.35 0 0 1 .255-.105h1.155q.21 0 .3.105a.8.8 0 0 1 .135.135l4.32 6.72v-6.585q0-.165.09-.27.105-.105.27-.105h1.26q.165 0 .27.105t.105.27v9.75q0 .165-.105.27a.35.35 0 0 1-.255.105h-1.17q-.21 0-.3-.105a.8.8 0 0 0-.135-.135l-4.305-6.57v6.45q0 .15-.105.255a.37.37 0 0 1-.27.105zm14.033 0a.35.35 0 0 1-.255-.105.35.35 0 0 1-.105-.255v-9.765q0-.165.105-.27a.35.35 0 0 1 .255-.105h6.51q.165 0 .27.105t.105.27v1.05q0 .165-.105.27a.4.4 0 0 1-.27.09h-4.815v2.85h4.515q.165 0 .27.105t.105.27v1.05q0 .15-.105.255a.37.37 0 0 1-.27.105h-4.515v3.72q0 .15-.105.255a.37.37 0 0 1-.27.105zm9.009 0a.35.35 0 0 1-.255-.105.35.35 0 0 1-.105-.255v-9.765q0-.165.105-.27a.35.35 0 0 1 .255-.105h3.885q1.815 0 2.865.84t1.05 2.445q0 1.11-.555 1.845-.54.735-1.455 1.065l2.19 3.825q.045.09.045.165 0 .135-.105.225-.09.09-.21.09h-1.365q-.255 0-.39-.135t-.21-.27l-1.935-3.555h-2.085v3.6q0 .15-.105.255a.32.32 0 0 1-.255.105zm1.725-5.655h2.115q.915 0 1.365-.405.45-.42.45-1.17t-.45-1.17q-.435-.435-1.365-.435h-2.115zM616.011 43a.34.34 0 0 1-.225-.09.3.3 0 0 1-.09-.225q0-.06.03-.135l3.615-9.675q.045-.15.165-.255.135-.12.36-.12h1.635q.225 0 .345.12.12.105.18.255l3.615 9.675q.015.075.015.135 0 .135-.09.225t-.21.09h-1.305q-.21 0-.315-.09a.6.6 0 0 1-.12-.195l-.705-1.83h-4.455l-.705 1.83a.5.5 0 0 1-.135.195q-.09.09-.3.09zm2.97-3.84h3.405l-1.71-4.635zm8.451 3.84q-.165 0-.27-.105a.35.35 0 0 1-.105-.255v-9.765q0-.165.105-.27t.27-.105h1.185q.21 0 .315.12.105.105.135.165l2.895 5.4 2.925-5.4a.7.7 0 0 1 .135-.165q.105-.12.315-.12h1.17q.165 0 .27.105t.105.27v9.765q0 .15-.105.255a.37.37 0 0 1-.27.105h-1.26q-.165 0-.27-.105a.38.38 0 0 1-.09-.255v-6.495l-2.1 4.005a.9.9 0 0 1-.195.24.5.5 0 0 1-.315.09h-.615q-.21 0-.33-.09-.105-.105-.18-.24l-2.1-4.005v6.495q0 .15-.105.255a.35.35 0 0 1-.255.105zm12.143 0a.35.35 0 0 1-.255-.105.35.35 0 0 1-.105-.255v-9.765q0-.165.105-.27a.35.35 0 0 1 .255-.105h6.6q.165 0 .27.105t.105.27v.99q0 .15-.105.255a.37.37 0 0 1-.27.105h-4.935v2.655h4.605q.165 0 .27.105.105.09.105.255v.93q0 .165-.105.27a.4.4 0 0 1-.27.09h-4.605v2.745h5.055q.165 0 .27.105t.105.27v.99q0 .15-.105.255a.37.37 0 0 1-.27.105zm12.616.15q-1.395 0-2.34-.405-.93-.42-1.425-1.08-.48-.675-.51-1.41a.305.305 0 0 1 .315-.315h1.335q.195 0 .285.09.105.075.18.195.09.285.345.57.255.27.69.45.45.18 1.125.18 1.08 0 1.605-.36.54-.36.54-.975 0-.435-.285-.69-.285-.27-.885-.48-.585-.225-1.56-.465-1.125-.27-1.89-.645-.75-.39-1.14-.975-.375-.585-.375-1.485 0-.87.465-1.545.48-.675 1.35-1.065.885-.39 2.1-.39.975 0 1.725.27.75.255 1.245.69.495.42.75.915.27.48.285.945a.34.34 0 0 1-.09.225q-.075.09-.225.09h-1.395q-.12 0-.24-.06a.44.44 0 0 1-.195-.225q-.09-.465-.585-.795t-1.275-.33q-.81 0-1.305.3t-.495.93q0 .42.24.705.255.27.795.48.555.21 1.455.45 1.275.285 2.085.66t1.185.96q.375.57.375 1.455 0 .99-.54 1.695-.525.69-1.485 1.065t-2.235.375M178.912 42.15q-1.395 0-2.37-.48a3.48 3.48 0 0 1-1.47-1.395q-.51-.915-.57-2.19-.015-.615-.015-1.32t.015-1.35q.06-1.26.57-2.175.525-.915 1.485-1.395.975-.495 2.355-.495 1.02 0 1.83.27t1.38.75q.57.465.885 1.095t.33 1.365q.015.135-.09.225a.3.3 0 0 1-.225.09h-1.425q-.165 0-.27-.075a.5.5 0 0 1-.15-.285q-.24-.99-.825-1.35t-1.455-.36q-1.005 0-1.605.57-.6.555-.645 1.845-.045 1.23 0 2.52t.645 1.86q.6.555 1.605.555.87 0 1.455-.36.585-.375.825-1.35.045-.21.15-.285t.27-.075h1.425q.135 0 .225.09.105.09.09.225-.015.735-.33 1.365t-.885 1.11q-.57.465-1.38.735t-1.83.27m10.239 0q-1.335 0-2.295-.435a3.36 3.36 0 0 1-1.5-1.365q-.54-.93-.585-2.31a55 55 0 0 1 0-2.565q.045-1.365.6-2.28t1.515-1.38q.975-.465 2.265-.465t2.265.465 1.53 1.38.6 2.28a28 28 0 0 1 0 2.565q-.045 1.38-.585 2.31a3.35 3.35 0 0 1-1.515 1.365q-.96.435-2.295.435m0-1.725q.975 0 1.59-.57.615-.585.66-1.89.03-.66.03-1.215 0-.57-.03-1.215-.03-.87-.33-1.41-.285-.555-.78-.795-.495-.255-1.14-.255-.63 0-1.125.255-.495.24-.795.795-.285.54-.315 1.41a52 52 0 0 0 0 2.43q.045 1.305.66 1.89.615.57 1.575.57M195.906 42a.35.35 0 0 1-.255-.105.35.35 0 0 1-.105-.255v-9.78q0-.15.105-.255a.35.35 0 0 1 .255-.105h1.395q.15 0 .255.105t.105.255v8.355h4.755q.165 0 .27.105t.105.27v1.05q0 .15-.105.255a.37.37 0 0 1-.27.105zm8.701 0a.35.35 0 0 1-.255-.105.35.35 0 0 1-.105-.255v-9.765q0-.165.105-.27a.35.35 0 0 1 .255-.105h3.66q1.515 0 2.49.465.99.465 1.485 1.38.51.915.525 2.235.03.66.03 1.17t-.03 1.155q-.03 1.395-.51 2.31-.48.9-1.455 1.35-.96.435-2.46.435zm1.725-1.725h1.935q.84 0 1.365-.24t.765-.765q.255-.54.27-1.41.015-.45.015-.78.015-.345 0-.675 0-.345-.015-.78-.03-1.23-.615-1.815t-1.86-.585h-1.86zm15.535 1.875q-1.395 0-2.34-.405-.93-.42-1.425-1.08-.48-.675-.51-1.41a.305.305 0 0 1 .315-.315h1.335q.195 0 .285.09.105.075.18.195.09.285.345.57.255.27.69.45.45.18 1.125.18 1.08 0 1.605-.36.54-.36.54-.975 0-.435-.285-.69-.285-.27-.885-.48-.585-.225-1.56-.465-1.125-.27-1.89-.645-.75-.39-1.14-.975-.375-.585-.375-1.485 0-.87.465-1.545.48-.675 1.35-1.065.885-.39 2.1-.39.975 0 1.725.27.75.255 1.245.69.495.42.75.915.27.48.285.945a.34.34 0 0 1-.09.225q-.075.09-.225.09h-1.395q-.12 0-.24-.06a.44.44 0 0 1-.195-.225q-.09-.465-.585-.795t-1.275-.33q-.81 0-1.305.3t-.495.93q0 .42.24.705.255.27.795.48.555.21 1.455.45 1.275.285 2.085.66t1.185.96q.375.57.375 1.455 0 .99-.54 1.695-.525.69-1.485 1.065t-2.235.375m8.532-.15a.35.35 0 0 1-.255-.105.35.35 0 0 1-.105-.255v-8.295h-2.775a.35.35 0 0 1-.255-.105.35.35 0 0 1-.105-.255v-1.11q0-.165.105-.27a.35.35 0 0 1 .255-.105h7.65q.165 0 .27.105t.105.27v1.11q0 .15-.105.255a.37.37 0 0 1-.27.105h-2.76v8.295q0 .15-.105.255a.37.37 0 0 1-.27.105zm4.668 0a.34.34 0 0 1-.225-.09.3.3 0 0 1-.09-.225q0-.06.03-.135l3.615-9.675q.045-.15.165-.255.135-.12.36-.12h1.635q.225 0 .345.12.12.105.18.255l3.615 9.675q.015.075.015.135 0 .135-.09.225t-.21.09h-1.305q-.21 0-.315-.09a.6.6 0 0 1-.12-.195l-.705-1.83h-4.455l-.705 1.83a.5.5 0 0 1-.135.195q-.09.09-.3.09zm2.97-3.84h3.405l-1.71-4.635zm8.435 3.84a.35.35 0 0 1-.255-.105.35.35 0 0 1-.105-.255v-9.765q0-.165.105-.27a.35.35 0 0 1 .255-.105h3.885q1.815 0 2.865.84t1.05 2.445q0 1.11-.555 1.845-.54.735-1.455 1.065l2.19 3.825q.045.09.045.165 0 .135-.105.225-.09.09-.21.09h-1.365q-.255 0-.39-.135t-.21-.27l-1.935-3.555h-2.085v3.6q0 .15-.105.255a.32.32 0 0 1-.255.105zm1.725-5.655h2.115q.915 0 1.365-.405.45-.42.45-1.17t-.45-1.17q-.435-.435-1.365-.435h-2.115zM258.758 42a.35.35 0 0 1-.255-.105.35.35 0 0 1-.105-.255v-8.295h-2.775a.35.35 0 0 1-.255-.105.35.35 0 0 1-.105-.255v-1.11q0-.165.105-.27a.35.35 0 0 1 .255-.105h7.65q.165 0 .27.105t.105.27v1.11q0 .15-.105.255a.37.37 0 0 1-.27.105h-2.76v8.295q0 .15-.105.255a.37.37 0 0 1-.27.105zM821.784 43.15q-1.395 0-2.34-.405-.93-.42-1.425-1.08-.48-.675-.51-1.41a.305.305 0 0 1 .315-.315h1.335q.195 0 .285.09.105.075.18.195.09.285.345.57.255.27.69.45.45.18 1.125.18 1.08 0 1.605-.36.54-.36.54-.975 0-.435-.285-.69-.285-.27-.885-.48-.585-.225-1.56-.465-1.125-.27-1.89-.645-.75-.39-1.14-.975-.375-.585-.375-1.485 0-.87.465-1.545.48-.675 1.35-1.065.885-.39 2.1-.39.975 0 1.725.27.75.255 1.245.69.495.42.75.915.27.48.285.945a.34.34 0 0 1-.09.225q-.075.09-.225.09h-1.395q-.12 0-.24-.06a.44.44 0 0 1-.195-.225q-.09-.465-.585-.795t-1.275-.33q-.81 0-1.305.3t-.495.93q0 .42.24.705.255.27.795.48.555.21 1.455.45 1.275.285 2.085.66t1.185.96q.375.57.375 1.455 0 .99-.54 1.695-.525.69-1.485 1.065t-2.235.375m10.029 0q-1.395 0-2.37-.48a3.48 3.48 0 0 1-1.47-1.395q-.51-.915-.57-2.19-.015-.615-.015-1.32t.015-1.35q.06-1.26.57-2.175.525-.915 1.485-1.395.975-.495 2.355-.495 1.02 0 1.83.27t1.38.75q.57.465.885 1.095t.33 1.365q.015.135-.09.225a.3.3 0 0 1-.225.09h-1.425q-.165 0-.27-.075a.5.5 0 0 1-.15-.285q-.24-.99-.825-1.35t-1.455-.36q-1.005 0-1.605.57-.6.555-.645 1.845-.045 1.23 0 2.52t.645 1.86q.6.555 1.605.555.87 0 1.455-.36.585-.375.825-1.35.045-.21.15-.285t.27-.075h1.425q.135 0 .225.09.105.09.09.225-.015.735-.33 1.365t-.885 1.11q-.57.465-1.38.735t-1.83.27m6.564-.15a.35.35 0 0 1-.255-.105.35.35 0 0 1-.105-.255v-9.765q0-.165.105-.27a.35.35 0 0 1 .255-.105h3.885q1.815 0 2.865.84t1.05 2.445q0 1.11-.555 1.845-.54.735-1.455 1.065l2.19 3.825q.045.09.045.165 0 .135-.105.225-.09.09-.21.09h-1.365q-.255 0-.39-.135t-.21-.27l-1.935-3.555h-2.085v3.6q0 .15-.105.255a.32.32 0 0 1-.255.105zm1.725-5.655h2.115q.915 0 1.365-.405.45-.42.45-1.17t-.45-1.17q-.435-.435-1.365-.435h-2.115zM848.469 43a.35.35 0 0 1-.255-.105.35.35 0 0 1-.105-.255v-9.765q0-.165.105-.27a.35.35 0 0 1 .255-.105h6.6q.165 0 .27.105t.105.27v.99q0 .15-.105.255a.37.37 0 0 1-.27.105h-4.935v2.655h4.605q.165 0 .27.105.105.09.105.255v.93q0 .165-.105.27a.4.4 0 0 1-.27.09h-4.605v2.745h5.055q.165 0 .27.105t.105.27v.99q0 .15-.105.255a.37.37 0 0 1-.27.105zm9.332 0a.35.35 0 0 1-.255-.105.35.35 0 0 1-.105-.255v-9.765q0-.165.105-.27a.35.35 0 0 1 .255-.105h6.6q.165 0 .27.105t.105.27v.99q0 .15-.105.255a.37.37 0 0 1-.27.105h-4.935v2.655h4.605q.165 0 .27.105.105.09.105.255v.93q0 .165-.105.27a.4.4 0 0 1-.27.09h-4.605v2.745h5.055q.165 0 .27.105t.105.27v.99q0 .15-.105.255a.37.37 0 0 1-.27.105zm9.331 0a.35.35 0 0 1-.255-.105.35.35 0 0 1-.105-.255v-9.765q0-.165.105-.27a.35.35 0 0 1 .255-.105h1.155q.21 0 .3.105a.8.8 0 0 1 .135.135l4.32 6.72v-6.585q0-.165.09-.27.105-.105.27-.105h1.26q.165 0 .27.105t.105.27v9.75q0 .165-.105.27a.35.35 0 0 1-.255.105h-1.17q-.21 0-.3-.105a.8.8 0 0 0-.135-.135l-4.305-6.57v6.45q0 .15-.105.255a.37.37 0 0 1-.27.105zm14.033 0a.35.35 0 0 1-.255-.105.35.35 0 0 1-.105-.255v-9.78q0-.15.105-.255a.35.35 0 0 1 .255-.105h1.395q.15 0 .255.105t.105.255v8.355h4.755q.165 0 .27.105t.105.27v1.05q0 .15-.105.255a.37.37 0 0 1-.27.105zm12.244.15q-1.335 0-2.295-.435a3.36 3.36 0 0 1-1.5-1.365q-.54-.93-.585-2.31a55 55 0 0 1 0-2.565q.045-1.365.6-2.28t1.515-1.38q.975-.465 2.265-.465t2.265.465 1.53 1.38.6 2.28a28 28 0 0 1 0 2.565q-.045 1.38-.585 2.31a3.35 3.35 0 0 1-1.515 1.365q-.96.435-2.295.435m0-1.725q.975 0 1.59-.57.615-.585.66-1.89.03-.66.03-1.215 0-.57-.03-1.215-.03-.87-.33-1.41-.285-.555-.78-.795-.495-.255-1.14-.255-.63 0-1.125.255-.495.24-.795.795-.285.54-.315 1.41a52 52 0 0 0 0 2.43q.045 1.305.66 1.89.615.57 1.575.57M898.954 43a.34.34 0 0 1-.225-.09.3.3 0 0 1-.09-.225q0-.06.03-.135l3.615-9.675q.045-.15.165-.255.135-.12.36-.12h1.635q.225 0 .345.12.12.105.18.255l3.615 9.675q.015.075.015.135 0 .135-.09.225t-.21.09h-1.305q-.21 0-.315-.09a.6.6 0 0 1-.12-.195l-.705-1.83h-4.455l-.705 1.83a.5.5 0 0 1-.135.195q-.09.09-.3.09zm2.97-3.84h3.405l-1.71-4.635zm8.435 3.84a.35.35 0 0 1-.255-.105.35.35 0 0 1-.105-.255v-9.765q0-.165.105-.27a.35.35 0 0 1 .255-.105h3.66q1.515 0 2.49.465.99.465 1.485 1.38.51.915.525 2.235.03.66.03 1.17t-.03 1.155q-.03 1.395-.51 2.31-.48.9-1.455 1.35-.96.435-2.46.435zm1.725-1.725h1.935q.84 0 1.365-.24t.765-.765q.255-.54.27-1.41.015-.45.015-.78.015-.345 0-.675 0-.345-.015-.78-.03-1.23-.615-1.815t-1.86-.585h-1.86zm12.107 1.875q-1.395 0-2.34-.405-.93-.42-1.425-1.08-.48-.675-.51-1.41a.305.305 0 0 1 .315-.315h1.335q.195 0 .285.09.105.075.18.195.09.285.345.57.255.27.69.45.45.18 1.125.18 1.08 0 1.605-.36.54-.36.54-.975 0-.435-.285-.69-.285-.27-.885-.48-.585-.225-1.56-.465-1.125-.27-1.89-.645-.75-.39-1.14-.975-.375-.585-.375-1.485 0-.87.465-1.545.48-.675 1.35-1.065.885-.39 2.1-.39.975 0 1.725.27.75.255 1.245.69.495.42.75.915.27.48.285.945a.34.34 0 0 1-.09.225q-.075.09-.225.09h-1.395q-.12 0-.24-.06a.44.44 0 0 1-.195-.225q-.09-.465-.585-.795t-1.275-.33q-.81 0-1.305.3t-.495.93q0 .42.24.705.255.27.795.48.555.21 1.455.45 1.275.285 2.085.66t1.185.96q.375.57.375 1.455 0 .99-.54 1.695-.525.69-1.485 1.065t-2.235.375M296.046 42q-.225 0-.36-.12a.74.74 0 0 1-.165-.33l-1.785-9.615a.2.2 0 0 0-.015-.075v-.045q0-.135.09-.225a.34.34 0 0 1 .225-.09h1.32q.375 0 .42.3l1.245 6.795 1.35-4.395q.045-.12.15-.24.12-.135.345-.135h.81q.24 0 .345.135.105.12.135.24l1.365 4.38 1.245-6.78q.045-.3.42-.3h1.32q.12 0 .21.09t.09.225v.045q0 .03-.015.075l-1.785 9.615a.58.58 0 0 1-.165.33q-.135.12-.36.12h-1.005q-.225 0-.36-.12a.66.66 0 0 1-.165-.255l-1.68-5.01-1.68 5.01a.9.9 0 0 1-.18.255q-.12.12-.36.12zm9.452 0a.34.34 0 0 1-.225-.09.3.3 0 0 1-.09-.225q0-.06.03-.135l3.615-9.675q.045-.15.165-.255.135-.12.36-.12h1.635q.225 0 .345.12.12.105.18.255l3.615 9.675q.015.075.015.135 0 .135-.09.225t-.21.09h-1.305q-.21 0-.315-.09a.6.6 0 0 1-.12-.195l-.705-1.83h-4.455l-.705 1.83a.5.5 0 0 1-.135.195q-.09.09-.3.09zm2.97-3.84h3.405l-1.71-4.635zm8.435 3.84a.35.35 0 0 1-.255-.105.35.35 0 0 1-.105-.255v-9.765q0-.165.105-.27a.35.35 0 0 1 .255-.105h3.885q1.815 0 2.865.84t1.05 2.445q0 1.11-.555 1.845-.54.735-1.455 1.065l2.19 3.825q.045.09.045.165 0 .135-.105.225-.09.09-.21.09h-1.365q-.255 0-.39-.135t-.21-.27l-1.935-3.555h-2.085v3.6q0 .15-.105.255a.32.32 0 0 1-.255.105zm1.725-5.655h2.115q.915 0 1.365-.405.45-.42.45-1.17t-.45-1.17q-.435-.435-1.365-.435h-2.115zM327.011 42q-.165 0-.27-.105a.35.35 0 0 1-.105-.255v-9.765q0-.165.105-.27t.27-.105h1.185q.21 0 .315.12.105.105.135.165l2.895 5.4 2.925-5.4a.7.7 0 0 1 .135-.165q.105-.12.315-.12h1.17q.165 0 .27.105t.105.27v9.765q0 .15-.105.255a.37.37 0 0 1-.27.105h-1.26q-.165 0-.27-.105a.38.38 0 0 1-.09-.255v-6.495l-2.1 4.005a.9.9 0 0 1-.195.24.5.5 0 0 1-.315.09h-.615q-.21 0-.33-.09-.105-.105-.18-.24l-2.1-4.005v6.495q0 .15-.105.255a.35.35 0 0 1-.255.105zm18.856.15q-1.395 0-2.34-.405-.93-.42-1.425-1.08-.48-.675-.51-1.41a.305.305 0 0 1 .315-.315h1.335q.195 0 .285.09.105.075.18.195.09.285.345.57.255.27.69.45.45.18 1.125.18 1.08 0 1.605-.36.54-.36.54-.975 0-.435-.285-.69-.285-.27-.885-.48-.585-.225-1.56-.465-1.125-.27-1.89-.645-.75-.39-1.14-.975-.375-.585-.375-1.485 0-.87.465-1.545.48-.675 1.35-1.065.885-.39 2.1-.39.975 0 1.725.27.75.255 1.245.69.495.42.75.915.27.48.285.945a.34.34 0 0 1-.09.225q-.075.09-.225.09h-1.395q-.12 0-.24-.06a.44.44 0 0 1-.195-.225q-.09-.465-.585-.795t-1.275-.33q-.81 0-1.305.3t-.495.93q0 .42.24.705.255.27.795.48.555.21 1.455.45 1.275.285 2.085.66t1.185.96q.375.57.375 1.455 0 .99-.54 1.695-.525.69-1.485 1.065t-2.235.375m8.532-.15a.35.35 0 0 1-.255-.105.35.35 0 0 1-.105-.255v-8.295h-2.775a.35.35 0 0 1-.255-.105.35.35 0 0 1-.105-.255v-1.11q0-.165.105-.27a.35.35 0 0 1 .255-.105h7.65q.165 0 .27.105t.105.27v1.11q0 .15-.105.255a.37.37 0 0 1-.27.105h-2.76v8.295q0 .15-.105.255a.37.37 0 0 1-.27.105zm4.668 0a.34.34 0 0 1-.225-.09.3.3 0 0 1-.09-.225q0-.06.03-.135l3.615-9.675q.045-.15.165-.255.135-.12.36-.12h1.635q.225 0 .345.12.12.105.18.255l3.615 9.675q.015.075.015.135 0 .135-.09.225t-.21.09h-1.305q-.21 0-.315-.09a.6.6 0 0 1-.12-.195l-.705-1.83h-4.455l-.705 1.83a.5.5 0 0 1-.135.195q-.09.09-.3.09zm2.97-3.84h3.405l-1.71-4.635zm8.435 3.84a.35.35 0 0 1-.255-.105.35.35 0 0 1-.105-.255v-9.765q0-.165.105-.27a.35.35 0 0 1 .255-.105h3.885q1.815 0 2.865.84t1.05 2.445q0 1.11-.555 1.845-.54.735-1.455 1.065l2.19 3.825q.045.09.045.165 0 .135-.105.225-.09.09-.21.09h-1.365q-.255 0-.39-.135t-.21-.27l-1.935-3.555h-2.085v3.6q0 .15-.105.255a.32.32 0 0 1-.255.105zm1.725-5.655h2.115q.915 0 1.365-.405.45-.42.45-1.17t-.45-1.17q-.435-.435-1.365-.435h-2.115zM382.758 42a.35.35 0 0 1-.255-.105.35.35 0 0 1-.105-.255v-8.295h-2.775a.35.35 0 0 1-.255-.105.35.35 0 0 1-.105-.255v-1.11q0-.165.105-.27a.35.35 0 0 1 .255-.105h7.65q.165 0 .27.105t.105.27v1.11q0 .15-.105.255a.37.37 0 0 1-.27.105h-2.76v8.295q0 .15-.105.255a.37.37 0 0 1-.27.105zM410.196 43.15q-1.395 0-2.34-.405-.93-.42-1.425-1.08-.48-.675-.51-1.41a.305.305 0 0 1 .315-.315h1.335q.195 0 .285.09.105.075.18.195.09.285.345.57.255.27.69.45.45.18 1.125.18 1.08 0 1.605-.36.54-.36.54-.975 0-.435-.285-.69-.285-.27-.885-.48-.585-.225-1.56-.465-1.125-.27-1.89-.645-.75-.39-1.14-.975-.375-.585-.375-1.485 0-.87.465-1.545.48-.675 1.35-1.065.885-.39 2.1-.39.975 0 1.725.27.75.255 1.245.69.495.42.75.915.27.48.285.945a.34.34 0 0 1-.09.225q-.075.09-.225.09h-1.395q-.12 0-.24-.06a.44.44 0 0 1-.195-.225q-.09-.465-.585-.795t-1.275-.33q-.81 0-1.305.3t-.495.93q0 .42.24.705.255.27.795.48.555.21 1.455.45 1.275.285 2.085.66t1.185.96q.375.57.375 1.455 0 .99-.54 1.695-.525.69-1.485 1.065t-2.235.375m6.339-.15a.35.35 0 0 1-.255-.105.35.35 0 0 1-.105-.255v-9.78q0-.15.105-.255a.35.35 0 0 1 .255-.105h1.395q.15 0 .255.105t.105.255v8.355h4.755q.165 0 .27.105t.105.27v1.05q0 .15-.105.255a.37.37 0 0 1-.27.105zm12.244.15q-1.335 0-2.295-.435a3.36 3.36 0 0 1-1.5-1.365q-.54-.93-.585-2.31a55 55 0 0 1 0-2.565q.045-1.365.6-2.28t1.515-1.38q.975-.465 2.265-.465t2.265.465 1.53 1.38.6 2.28a28 28 0 0 1 0 2.565q-.045 1.38-.585 2.31a3.35 3.35 0 0 1-1.515 1.365q-.96.435-2.295.435m0-1.725q.975 0 1.59-.57.615-.585.66-1.89.03-.66.03-1.215 0-.57-.03-1.215-.03-.87-.33-1.41-.285-.555-.78-.795-.495-.255-1.14-.255-.63 0-1.125.255-.495.24-.795.795-.285.54-.315 1.41a52 52 0 0 0 0 2.43q.045 1.305.66 1.89.615.57 1.575.57M436.782 43q-.225 0-.36-.12a.74.74 0 0 1-.165-.33l-1.785-9.615a.2.2 0 0 0-.015-.075v-.045q0-.135.09-.225a.34.34 0 0 1 .225-.09h1.32q.375 0 .42.3l1.245 6.795 1.35-4.395q.045-.12.15-.24.12-.135.345-.135h.81q.24 0 .345.135.105.12.135.24l1.365 4.38 1.245-6.78q.045-.3.42-.3h1.32q.12 0 .21.09t.09.225v.045q0 .03-.015.075l-1.785 9.615a.58.58 0 0 1-.165.33q-.135.12-.36.12h-1.005q-.225 0-.36-.12a.66.66 0 0 1-.165-.255l-1.68-5.01-1.68 5.01a.9.9 0 0 1-.18.255q-.12.12-.36.12zm14.133 0a.35.35 0 0 1-.255-.105.35.35 0 0 1-.105-.255v-9.765q0-.165.105-.27a.35.35 0 0 1 .255-.105h6.51q.165 0 .27.105t.105.27v1.05q0 .165-.105.27a.4.4 0 0 1-.27.09h-4.815v2.85h4.515q.165 0 .27.105t.105.27v1.05q0 .15-.105.255a.37.37 0 0 1-.27.105h-4.515v3.72q0 .15-.105.255a.37.37 0 0 1-.27.105zm9.009 0a.35.35 0 0 1-.255-.105.35.35 0 0 1-.105-.255v-9.765q0-.165.105-.27a.35.35 0 0 1 .255-.105h3.885q1.815 0 2.865.84t1.05 2.445q0 1.11-.555 1.845-.54.735-1.455 1.065l2.19 3.825q.045.09.045.165 0 .135-.105.225-.09.09-.21.09h-1.365q-.255 0-.39-.135t-.21-.27l-1.935-3.555h-2.085v3.6q0 .15-.105.255a.32.32 0 0 1-.255.105zm1.725-5.655h2.115q.915 0 1.365-.405.45-.42.45-1.17t-.45-1.17q-.435-.435-1.365-.435h-2.115zM469.011 43a.34.34 0 0 1-.225-.09.3.3 0 0 1-.09-.225q0-.06.03-.135l3.615-9.675q.045-.15.165-.255.135-.12.36-.12h1.635q.225 0 .345.12.12.105.18.255l3.615 9.675q.015.075.015.135 0 .135-.09.225t-.21.09h-1.305q-.21 0-.315-.09a.6.6 0 0 1-.12-.195l-.705-1.83h-4.455l-.705 1.83a.5.5 0 0 1-.135.195q-.09.09-.3.09zm2.97-3.84h3.405l-1.71-4.635zm8.451 3.84q-.165 0-.27-.105a.35.35 0 0 1-.105-.255v-9.765q0-.165.105-.27t.27-.105h1.185q.21 0 .315.12.105.105.135.165l2.895 5.4 2.925-5.4a.7.7 0 0 1 .135-.165q.105-.12.315-.12h1.17q.165 0 .27.105t.105.27v9.765q0 .15-.105.255a.37.37 0 0 1-.27.105h-1.26q-.165 0-.27-.105a.38.38 0 0 1-.09-.255v-6.495l-2.1 4.005a.9.9 0 0 1-.195.24.5.5 0 0 1-.315.09h-.615q-.21 0-.33-.09-.105-.105-.18-.24l-2.1-4.005v6.495q0 .15-.105.255a.35.35 0 0 1-.255.105zm12.143 0a.35.35 0 0 1-.255-.105.35.35 0 0 1-.105-.255v-9.765q0-.165.105-.27a.35.35 0 0 1 .255-.105h6.6q.165 0 .27.105t.105.27v.99q0 .15-.105.255a.37.37 0 0 1-.27.105h-4.935v2.655h4.605q.165 0 .27.105.105.09.105.255v.93q0 .165-.105.27a.4.4 0 0 1-.27.09h-4.605v2.745h5.055q.165 0 .27.105t.105.27v.99q0 .15-.105.255a.37.37 0 0 1-.27.105zm12.616.15q-1.395 0-2.34-.405-.93-.42-1.425-1.08-.48-.675-.51-1.41a.305.305 0 0 1 .315-.315h1.335q.195 0 .285.09.105.075.18.195.09.285.345.57.255.27.69.45.45.18 1.125.18 1.08 0 1.605-.36.54-.36.54-.975 0-.435-.285-.69-.285-.27-.885-.48-.585-.225-1.56-.465-1.125-.27-1.89-.645-.75-.39-1.14-.975-.375-.585-.375-1.485 0-.87.465-1.545.48-.675 1.35-1.065.885-.39 2.1-.39.975 0 1.725.27.75.255 1.245.69.495.42.75.915.27.48.285.945a.34.34 0 0 1-.09.225q-.075.09-.225.09h-1.395q-.12 0-.24-.06a.44.44 0 0 1-.195-.225q-.09-.465-.585-.795t-1.275-.33q-.81 0-1.305.3t-.495.93q0 .42.24.705.255.27.795.48.555.21 1.455.45 1.275.285 2.085.66t1.185.96q.375.57.375 1.455 0 .99-.54 1.695-.525.69-1.485 1.065t-2.235.375"/><rect width="119" height="14" x="19" y="97" fill="#E0DCE5" rx="4"/><rect width="43" height="14" x="173" y="97" fill="#E0DCE5" rx="2"/><rect width="43" height="14" x="173" y="168" fill="#E0DCE5" rx="2"/><rect width="43" height="14" x="173" y="239" fill="#E0DCE5" rx="2"/><rect width="43" height="14" x="173" y="310" fill="#E0DCE5" rx="2"/><rect width="43" height="14" x="173" y="381" fill="#E0DCE5" rx="2"/><rect width="43" height="14" x="173" y="452" fill="#E0DCE5" rx="2"/><rect width="43" height="14" x="173" y="521" fill="#E0DCE5" rx="2"/><rect width="43" height="14" x="293" y="310" fill="#E0DCE5" rx="2"/><rect width="43" height="14" x="293" y="381" fill="#E0DCE5" rx="2"/><rect width="43" height="14" x="293" y="452" fill="#E0DCE5" rx="2"/><rect width="43" height="14" x="293" y="521" fill="#E0DCE5" rx="2"/><rect width="43" height="14" x="293" y="168" fill="#E0DCE5" rx="2"/><rect width="43" height="14" x="293" y="97" fill="#E0DCE5" rx="2"/><rect width="43" height="14" x="405" y="168" fill="#E0DCE5" rx="2"/><rect width="43" height="14" x="293" y="239" fill="#E0DCE5" rx="2"/><rect width="43" height="14" x="405" y="310" fill="#E0DCE5" rx="2"/><rect width="43" height="14" x="405" y="381" fill="#E0DCE5" rx="2"/><rect width="43" height="14" x="405" y="452" fill="#E0DCE5" rx="2"/><rect width="43" height="14" x="405" y="521" fill="#E0DCE5" rx="2"/><rect width="43" height="14" x="534" y="310" fill="#E0DCE5" rx="2"/><rect width="43" height="14" x="534" y="381" fill="#E0DCE5" rx="2"/><rect width="43" height="14" x="534" y="452" fill="#E0DCE5" rx="2"/><rect width="43" height="14" x="534" y="521" fill="#E0DCE5" rx="2"/><rect width="43" height="14" x="534" y="168" fill="#E0DCE5" rx="2"/><rect width="43" height="14" x="405" y="97" fill="#E0DCE5" rx="2"/><rect width="43" height="14" x="678" y="310" fill="#E0DCE5" rx="2"/><rect width="43" height="14" x="678" y="381" fill="#E0DCE5" rx="2"/><rect width="43" height="14" x="678" y="452" fill="#E0DCE5" rx="2"/><rect width="43" height="14" x="678" y="521" fill="#E0DCE5" rx="2"/><rect width="43" height="14" x="678" y="168" fill="#E0DCE5" rx="2"/><rect width="43" height="14" x="405" y="239" fill="#E0DCE5" rx="2"/><rect width="43" height="14" x="743" y="310" fill="#E0DCE5" rx="2"/><rect width="43" height="14" x="743" y="381" fill="#E0DCE5" rx="2"/><rect width="43" height="14" x="743" y="452" fill="#E0DCE5" rx="2"/><rect width="43" height="14" x="743" y="521" fill="#E0DCE5" rx="2"/><rect width="43" height="14" x="816" y="310" fill="#E0DCE5" rx="2"/><rect width="43" height="14" x="816" y="381" fill="#E0DCE5" rx="2"/><rect width="43" height="14" x="816" y="452" fill="#E0DCE5" rx="2"/><rect width="43" height="14" x="816" y="521" fill="#E0DCE5" rx="2"/><rect width="119" height="14" x="19" y="310" fill="#E0DCE5" rx="4"/><rect width="119" height="14" x="19" y="381" fill="#E0DCE5" rx="4"/><rect width="119" height="14" x="19" y="452" fill="#E0DCE5" rx="4"/><rect width="119" height="14" x="19" y="523" fill="#E0DCE5" rx="4"/><rect width="43" height="14" x="743" y="168" fill="#E0DCE5" rx="2"/><rect width="43" height="14" x="534" y="97" fill="#E0DCE5" rx="2"/><rect width="43" height="14" x="816" y="168" fill="#E0DCE5" rx="2"/><rect width="43" height="14" x="534" y="239" fill="#E0DCE5" rx="2"/><rect width="43" height="14" x="678" y="97" fill="#E0DCE5" rx="2"/><rect width="43" height="14" x="678" y="239" fill="#E0DCE5" rx="2"/><rect width="43" height="14" x="743" y="97" fill="#E0DCE5" rx="2"/><rect width="43" height="14" x="743" y="239" fill="#E0DCE5" rx="2"/><rect width="43" height="14" x="816" y="97" fill="#E0DCE5" rx="2"/><rect width="43" height="14" x="816" y="239" fill="#E0DCE5" rx="2"/><rect width="119" height="14" x="19" y="168" fill="#E0DCE5" rx="4"/><rect width="119" height="14" x="19" y="239" fill="#E0DCE5" rx="4"/><defs><filter id="a" width="959" height="547" x="0" y="23" color-interpolation-filters="sRGB" filterUnits="userSpaceOnUse"><feFlood flood-opacity="0" result="BackgroundImageFix"/><feColorMatrix in="SourceAlpha" result="hardAlpha" values="0 0 0 0 0 0 0 0 0 0 0 0 0 0 0 0 0 0 127 0"/><feOffset dy="1"/><feGaussianBlur stdDeviation="1"/><feColorMatrix values="0 0 0 0 0.168627 0 0 0 0 0.133333 0 0 0 0 0.2 0 0 0 0.04 0"/><feBlend in2="BackgroundImageFix" result="effect1_dropShadow_10125_4978"/><feBlend in="SourceGraphic" in2="effect1_dropShadow_10125_4978" result="shape"/></filter></defs></svg>
