<svg width="600" height="300" fill="none" xmlns="http://www.w3.org/2000/svg"><g clip-path="url(#a)"><path fill="#FAF9FB" d="M0 0h600v300H0z"/><circle cx="100" cy="300" r="100" fill="#33BF9E"/><path fill="#6C5FC7" d="M250 118h125v125H250z"/><path d="M-28.383 182.701c23.632 15.505 34.441 9.161 32.428-19.031-2.014-28.192 8.796-34.536 32.428-19.032 23.632 15.505 34.44 9.161 32.427-19.031-2.013-28.192 8.796-34.536 32.428-19.032 23.632 15.505 34.441 9.161 32.428-19.031-2.013-28.192 8.796-34.536 32.428-19.032 23.632 15.505 34.441 9.161 32.428-19.031-2.014-28.192 8.795-34.536 32.427-19.032 23.632 15.505 34.442 9.161 32.428-19.031-2.013-28.192 8.796-34.536 32.428-19.032" stroke="#F5B000" stroke-width="13" stroke-linecap="round"/><ellipse cx="487.418" cy="123.159" rx="47.5" ry="120" transform="rotate(141.013 487.418 123.159)" fill="#F55459"/></g><defs><clipPath id="a"><path fill="#fff" d="M0 0h600v300H0z"/></clipPath></defs></svg>
