<svg width="600" height="300" fill="none" xmlns="http://www.w3.org/2000/svg"><g clip-path="url(#a)"><path fill="#FAF9FB" d="M0 0h600v300H0z"/><path d="M-78.952 276.814c-54.979-18.908-77.846-171.674-81.163-264.684 136.89-97.48 437.583-207.698 545.238 131.27C382.571 269.332 70.99 328.38-78.952 276.814Z" fill="#F5B000" fill-opacity=".07" style="mix-blend-mode:darken"/><path d="M300 127c-112 23-107.667 123.041-112 175.541l246 165.5c96.5-24.5 133.573-145.302 74.5-222.041C455 176.5 375.483 111.499 300 127Z" fill="#3D74DB" fill-opacity=".07" style="mix-blend-mode:darken"/><path d="M353 173c-29.334-22.734-11.667-119.667 5.5-176.5C461.333-34.167 665.8-38.8 661 188c-27.5 75.5-228 47-308-15Z" fill="#EF4D79" fill-opacity=".09" style="mix-blend-mode:darken"/><path d="M457.724 142a11.206 11.206 0 0 1-6.854-2.407 11.014 11.014 0 0 1-3.885-6.174 11.016 11.016 0 0 1 .828-7.247l18.989-39.707-22.879-14.902a9.26 9.26 0 0 1-3.914-7.153 9.244 9.244 0 0 1 3.265-7.471l77.993-60.626a11.03 11.03 0 0 1 13.702.147 11.01 11.01 0 0 1 2.971 13.366l-19.081 39.615 23.064 15.18a9.257 9.257 0 0 1 4.076 7.22 9.253 9.253 0 0 1-3.52 7.404l-77.993 60.348a10.653 10.653 0 0 1-6.762 2.407Zm-.463-78.397 22.231 14.439a7.124 7.124 0 0 1 2.501 9.256l-16.488 33.969 63.08-48.778-22.787-14.625a6.942 6.942 0 0 1-2.408-9.256l16.488-34.339-62.617 49.334Z" fill="#EF4D79"/><g clip-path="url(#b)"><path d="M135.453 202.3c-.835-.549-1.671-1.098-1.958-2.483l-23.571-40.613-46.347-4.125c-3.056-.812-5.563-2.459-6.137-5.228-.573-2.77.238-5.827 1.336-7.498L90.72 108.3 80.424 62.051c-.574-2.77.238-5.826 2.72-7.784 2.484-1.959 5.253-2.532 7.76-.885l42.29 19.408 40.612-23.572c5.253-2.532 11.939 1.86 10.865 7.138l-5.51 46.633 34.602 31.108c2.507 1.647 3.081 4.417 2.269 7.473-.811 3.057-3.294 5.015-6.064 5.588l-45.151 8.625-18.571 42.838c-1.648 2.508-4.131 4.466-6.351 4.204-1.934 1.122-3.606.024-4.442-.525Zm-16.744-56.468c.836.549 1.671 1.098 1.958 2.483l17.124 30.394 14.203-32.547c1.098-1.671 2.745-4.179 5.515-4.752l34.621-7.167-26.22-22.012c-1.671-1.098-2.245-3.868-2.818-6.638l5.034-34.98-30.943 17.959c-1.934 1.122-4.703 1.696-6.375.598L98.811 74.13l7.167 34.622c.573 2.77.311 4.99-2.172 6.949l-24.233 25.957 34.695 3.649c1.934-1.122 3.605-.024 4.441.525Z" fill="#F5B000"/></g><path d="M130.96 47.597c1.059-12.121 3.908-39.81 6.824-53.597M63.648 98.9C52.98 93.048 28.782 79.29 17.337 71.07M214 90.5c11.833-2.833 39-8.9 53-10.5M180 175.073c8.198 8.992 26.636 29.846 34.801 41.33M94.65 179c-8.752 8.452-29.07 27.479-40.316 35.97" stroke="#F5B000" stroke-width="10" stroke-linecap="round"/><g clip-path="url(#c)"><path d="M273.05 298a5.473 5.473 0 0 1-3.525-1.275 5.548 5.548 0 0 1-1.95-6.225l6.975-29.4a51.22 51.22 0 0 1-8.55-27.975c0-30 26.925-54.75 60-54.75s60 24.6 60 54.75-26.925 54.675-60 54.675a64.41 64.41 0 0 1-23.325-4.35l-27.15 13.575a6.005 6.005 0 0 1-2.475.975Zm11.925-41.1a5.548 5.548 0 0 1 1.125 4.875l-5.1 19.8 18.675-9.3a5.474 5.474 0 0 1 4.725 0 52.496 52.496 0 0 0 21.6 4.275c26.85 0 48.75-19.5 48.75-43.425 0-23.925-21.9-43.5-48.75-43.5s-48.75 19.5-48.75 43.5a39.907 39.907 0 0 0 7.725 23.4v.375Z" fill="#3D74DB"/></g></g><defs><clipPath id="a"><path fill="#fff" d="M0 0h600v300H0z"/></clipPath><clipPath id="b"><path fill="#fff" transform="rotate(33.304 47.396 194.997)" d="M0 0h160v160H0z"/></clipPath><clipPath id="c"><path fill="#fff" transform="translate(266 178)" d="M0 0h120v120H0z"/></clipPath></defs></svg>