<svg width="600" height="300" fill="none" xmlns="http://www.w3.org/2000/svg"><g clip-path="url(#a)"><path fill="#FAF9FB" d="M0 0h600v300H0z"/><path d="M-4.5 81.5H613M-4.5 215.5H613M-4.5 118.5H613" stroke="#E7E1EC" stroke-width="2"/><path d="M189.5 84.734a1 1 0 0 0 2 0h-2Zm2 8.47a1 1 0 0 0-2 0h2Zm-2 8.468a1 1 0 0 0 2 0h-2Zm2 8.469a1 1 0 1 0-2 0h2Zm-2 8.468a1 1 0 1 0 2 0h-2Zm2 8.469a1 1 0 0 0-2 0h2Zm-2 8.469a1 1 0 0 0 2 0h-2Zm2 8.469a1 1 0 1 0-2 0h2Zm-2 8.468a1 1 0 1 0 2 0h-2Zm2 8.469a1 1 0 0 0-2 0h2Zm-2 8.469a1 1 0 0 0 2 0h-2Zm2 8.469a1 1 0 1 0-2 0h2Zm-2 8.468a1 1 0 1 0 2 0h-2Zm2 8.469a1 1 0 0 0-2 0h2Zm-2 8.469a1 1 0 0 0 2 0h-2Zm2 8.469a1 1 0 1 0-2 0h2Zm-2-131.266v4.234h2V80.5h-2Zm0 12.703v8.469h2v-8.469h-2Zm0 16.938v8.468h2v-8.468h-2Zm0 16.937v8.469h2v-8.469h-2Zm0 16.938v8.468h2v-8.468h-2Zm0 16.937v8.469h2v-8.469h-2Zm0 16.938v8.468h2v-8.468h-2Zm0 16.937v8.469h2v-8.469h-2Zm0 16.938V216h2v-4.234h-2ZM283.5 84.734a1 1 0 0 0 2 0h-2Zm2 8.47a1 1 0 0 0-2 0h2Zm-2 8.468a1 1 0 0 0 2 0h-2Zm2 8.469a1 1 0 1 0-2 0h2Zm-2 8.468a1 1 0 1 0 2 0h-2Zm2 8.469a1 1 0 0 0-2 0h2Zm-2 8.469a1 1 0 0 0 2 0h-2Zm2 8.469a1 1 0 1 0-2 0h2Zm-2 8.468a1 1 0 1 0 2 0h-2Zm2 8.469a1 1 0 0 0-2 0h2Zm-2 8.469a1 1 0 0 0 2 0h-2Zm2 8.469a1 1 0 1 0-2 0h2Zm-2 8.468a1 1 0 1 0 2 0h-2Zm2 8.469a1 1 0 0 0-2 0h2Zm-2 8.469a1 1 0 0 0 2 0h-2Zm2 8.469a1 1 0 1 0-2 0h2Zm-2-131.266v4.234h2V80.5h-2Zm0 12.703v8.469h2v-8.469h-2Zm0 16.938v8.468h2v-8.468h-2Zm0 16.937v8.469h2v-8.469h-2Zm0 16.938v8.468h2v-8.468h-2Zm0 16.937v8.469h2v-8.469h-2Zm0 16.938v8.468h2v-8.468h-2Zm0 16.937v8.469h2v-8.469h-2Zm0 16.938V216h2v-4.234h-2ZM407.5 84.734a1 1 0 0 0 2 0h-2Zm2 8.47a1 1 0 0 0-2 0h2Zm-2 8.468a1 1 0 0 0 2 0h-2Zm2 8.469a1 1 0 1 0-2 0h2Zm-2 8.468a1 1 0 1 0 2 0h-2Zm2 8.469a1 1 0 0 0-2 0h2Zm-2 8.469a1 1 0 0 0 2 0h-2Zm2 8.469a1 1 0 1 0-2 0h2Zm-2 8.468a1 1 0 1 0 2 0h-2Zm2 8.469a1 1 0 0 0-2 0h2Zm-2 8.469a1 1 0 0 0 2 0h-2Zm2 8.469a1 1 0 1 0-2 0h2Zm-2 8.468a1 1 0 1 0 2 0h-2Zm2 8.469a1 1 0 0 0-2 0h2Zm-2 8.469a1 1 0 0 0 2 0h-2Zm2 8.469a1 1 0 1 0-2 0h2Zm-2-131.266v4.234h2V80.5h-2Zm0 12.703v8.469h2v-8.469h-2Zm0 16.938v8.468h2v-8.468h-2Zm0 16.937v8.469h2v-8.469h-2Zm0 16.938v8.468h2v-8.468h-2Zm0 16.937v8.469h2v-8.469h-2Zm0 16.938v8.468h2v-8.468h-2Zm0 16.937v8.469h2v-8.469h-2Zm0 16.938V216h2v-4.234h-2ZM202.5 84.734a1 1 0 0 0 2 0h-2Zm2 8.47a1 1 0 0 0-2 0h2Zm-2 8.468a1 1 0 0 0 2 0h-2Zm2 8.469a1 1 0 1 0-2 0h2Zm-2 8.468a1 1 0 1 0 2 0h-2Zm2 8.469a1 1 0 0 0-2 0h2Zm-2 8.469a1 1 0 0 0 2 0h-2Zm2 8.469a1 1 0 1 0-2 0h2Zm-2 8.468a1 1 0 1 0 2 0h-2Zm2 8.469a1 1 0 0 0-2 0h2Zm-2 8.469a1 1 0 0 0 2 0h-2Zm2 8.469a1 1 0 1 0-2 0h2Zm-2 8.468a1 1 0 1 0 2 0h-2Zm2 8.469a1 1 0 0 0-2 0h2Zm-2 8.469a1 1 0 0 0 2 0h-2Zm2 8.469a1 1 0 1 0-2 0h2Zm-2-131.266v4.234h2V80.5h-2Zm0 12.703v8.469h2v-8.469h-2Zm0 16.938v8.468h2v-8.468h-2Zm0 16.937v8.469h2v-8.469h-2Zm0 16.938v8.468h2v-8.468h-2Zm0 16.937v8.469h2v-8.469h-2Zm0 16.938v8.468h2v-8.468h-2Zm0 16.937v8.469h2v-8.469h-2Zm0 16.938V216h2v-4.234h-2ZM306.5 84.734a1 1 0 0 0 2 0h-2Zm2 8.47a1 1 0 0 0-2 0h2Zm-2 8.468a1 1 0 0 0 2 0h-2Zm2 8.469a1 1 0 1 0-2 0h2Zm-2 8.468a1 1 0 1 0 2 0h-2Zm2 8.469a1 1 0 0 0-2 0h2Zm-2 8.469a1 1 0 0 0 2 0h-2Zm2 8.469a1 1 0 1 0-2 0h2Zm-2 8.468a1 1 0 1 0 2 0h-2Zm2 8.469a1 1 0 0 0-2 0h2Zm-2 8.469a1 1 0 0 0 2 0h-2Zm2 8.469a1 1 0 1 0-2 0h2Zm-2 8.468a1 1 0 1 0 2 0h-2Zm2 8.469a1 1 0 0 0-2 0h2Zm-2 8.469a1 1 0 0 0 2 0h-2Zm2 8.469a1 1 0 1 0-2 0h2Zm-2-131.266v4.234h2V80.5h-2Zm0 12.703v8.469h2v-8.469h-2Zm0 16.938v8.468h2v-8.468h-2Zm0 16.937v8.469h2v-8.469h-2Zm0 16.938v8.468h2v-8.468h-2Zm0 16.937v8.469h2v-8.469h-2Zm0 16.938v8.468h2v-8.468h-2Zm0 16.937v8.469h2v-8.469h-2Zm0 16.938V216h2v-4.234h-2ZM426.5 84.734a1 1 0 0 0 2 0h-2Zm2 8.47a1 1 0 0 0-2 0h2Zm-2 8.468a1 1 0 0 0 2 0h-2Zm2 8.469a1 1 0 1 0-2 0h2Zm-2 8.468a1 1 0 1 0 2 0h-2Zm2 8.469a1 1 0 0 0-2 0h2Zm-2 8.469a1 1 0 0 0 2 0h-2Zm2 8.469a1 1 0 1 0-2 0h2Zm-2 8.468a1 1 0 1 0 2 0h-2Zm2 8.469a1 1 0 0 0-2 0h2Zm-2 8.469a1 1 0 0 0 2 0h-2Zm2 8.469a1 1 0 1 0-2 0h2Zm-2 8.468a1 1 0 1 0 2 0h-2Zm2 8.469a1 1 0 0 0-2 0h2Zm-2 8.469a1 1 0 0 0 2 0h-2Zm2 8.469a1 1 0 1 0-2 0h2Zm-2-131.266v4.234h2V80.5h-2Zm0 12.703v8.469h2v-8.469h-2Zm0 16.938v8.468h2v-8.468h-2Zm0 16.937v8.469h2v-8.469h-2Zm0 16.938v8.468h2v-8.468h-2Zm0 16.937v8.469h2v-8.469h-2Zm0 16.938v8.468h2v-8.468h-2Zm0 16.937v8.469h2v-8.469h-2Zm0 16.938V216h2v-4.234h-2Z" fill="#E7E1EC"/><path d="M69.65 216c-1.013 0-1.963-.38-2.85-1.14-.76-.76-1.14-1.71-1.14-2.85 0-.507.127-1.077.38-1.71l45.79-122.55a6.824 6.824 0 0 1 2.09-3.23c1.14-1.013 2.66-1.52 4.56-1.52h20.71c1.9 0 3.357.507 4.37 1.52a8.356 8.356 0 0 1 2.28 3.23l45.79 122.55c.127.633.19 1.203.19 1.71 0 1.14-.38 2.09-1.14 2.85-.76.76-1.647 1.14-2.66 1.14h-16.53c-1.773 0-3.103-.38-3.99-1.14-.76-.887-1.267-1.71-1.52-2.47l-8.93-23.18h-56.43l-8.93 23.18c-.253.76-.823 1.583-1.71 2.47-.76.76-2.027 1.14-3.8 1.14H69.65Zm37.62-48.64h43.13l-21.66-58.71-21.47 58.71ZM206.898 216c-1.393 0-2.533-.443-3.42-1.33-.76-.887-1.14-1.963-1.14-3.23v-10.83c0-1.14.254-2.217.76-3.23.634-1.14 1.267-2.09 1.9-2.85l48.64-57.57h-45.22c-1.266 0-2.343-.38-3.23-1.14-.886-.887-1.33-2.027-1.33-3.42v-10.64c0-1.267.444-2.343 1.33-3.23.887-.887 1.964-1.33 3.23-1.33h72.01c1.394 0 2.47.443 3.23 1.33.887.887 1.33 1.963 1.33 3.23v11.59c0 1.14-.253 2.153-.76 3.04a27.595 27.595 0 0 1-1.9 2.85l-47.5 57h49.59c1.267 0 2.344.443 3.23 1.33.887.76 1.33 1.837 1.33 3.23v10.64c0 1.267-.443 2.343-1.33 3.23-.886.887-1.963 1.33-3.23 1.33h-77.52Zm151.098 1.9c-8.994 0-16.657-1.33-22.99-3.99-6.334-2.66-11.527-6.333-15.58-11.02-4.054-4.687-7.094-10.07-9.12-16.15-2.027-6.207-3.23-12.793-3.61-19.76-.127-3.42-.254-7.157-.38-11.21v-12.54c.126-4.18.253-8.043.38-11.59.253-6.967 1.456-13.49 3.61-19.57 2.153-6.207 5.256-11.59 9.31-16.15 4.18-4.56 9.436-8.17 15.77-10.83 6.333-2.66 13.87-3.99 22.61-3.99 8.866 0 16.466 1.33 22.8 3.99 6.333 2.66 11.526 6.27 15.58 10.83 4.18 4.56 7.283 9.943 9.31 16.15 2.153 6.08 3.356 12.603 3.61 19.57.253 3.547.38 7.41.38 11.59v12.54c0 4.053-.127 7.79-.38 11.21-.254 6.967-1.394 13.553-3.42 19.76-2.027 6.08-5.067 11.463-9.12 16.15-4.054 4.687-9.31 8.36-15.77 11.02-6.334 2.66-13.997 3.99-22.99 3.99Zm0-21.85c8.233 0 14.25-2.66 18.05-7.98 3.926-5.447 5.953-12.793 6.08-22.04.253-3.673.38-7.347.38-11.02v-11.4c0-3.8-.127-7.41-.38-10.83-.127-8.993-2.154-16.213-6.08-21.66-3.8-5.573-9.817-8.36-18.05-8.36-8.107 0-14.124 2.787-18.05 8.36-3.8 5.447-5.827 12.667-6.08 21.66 0 3.42-.064 7.03-.19 10.83v11.4c.126 3.673.19 7.347.19 11.02.253 9.247 2.343 16.593 6.27 22.04 3.926 5.32 9.88 7.98 17.86 7.98ZM455.509 216c-1.14 0-2.09-.38-2.85-1.14-.76-.887-1.14-1.9-1.14-3.04 0-.633.063-1.14.19-1.52.253-.38.443-.697.57-.95l27.93-38.57c-2.534.633-5.194.887-7.98.76-6.334-.127-12.287-1.33-17.86-3.61-5.447-2.407-10.26-5.573-14.44-9.5a47.996 47.996 0 0 1-9.69-13.87c-2.28-5.32-3.42-11.083-3.42-17.29 0-5.7 1.076-11.273 3.23-16.72 2.153-5.573 5.32-10.577 9.5-15.01 4.306-4.433 9.626-7.917 15.96-10.45 6.46-2.66 13.996-3.99 22.61-3.99 8.486 0 15.96 1.203 22.42 3.61 6.46 2.407 11.843 5.763 16.15 10.07 4.433 4.18 7.726 8.993 9.88 14.44 2.28 5.447 3.42 11.21 3.42 17.29 0 5.447-.887 10.513-2.66 15.2-1.773 4.687-3.99 8.993-6.65 12.92a867.983 867.983 0 0 1-7.6 11.21l-33.44 46.36c-.507.633-1.267 1.457-2.28 2.47-.887.887-2.28 1.33-4.18 1.33h-17.67Zm22.8-64.6c4.56 0 8.676-.95 12.35-2.85 3.8-2.027 6.776-4.813 8.93-8.36 2.28-3.673 3.42-7.98 3.42-12.92 0-5.067-1.14-9.373-3.42-12.92-2.154-3.673-5.13-6.46-8.93-8.36-3.8-2.027-7.917-3.04-12.35-3.04-4.56 0-8.74 1.013-12.54 3.04-3.674 1.9-6.65 4.687-8.93 8.36-2.154 3.547-3.23 7.853-3.23 12.92 0 4.94 1.076 9.247 3.23 12.92 2.28 3.547 5.256 6.333 8.93 8.36 3.8 1.9 7.98 2.85 12.54 2.85Z" fill="#2B1D38"/></g><defs><clipPath id="a"><path fill="#fff" d="M0 0h600v300H0z"/></clipPath></defs></svg>