<svg width="600" height="300" viewBox="0 0 600 300" fill="none" xmlns="http://www.w3.org/2000/svg">
<g clip-path="url(#clip0_252:198)">
<rect width="600" height="300" fill="#FAF9FB"/>
<path d="M76.6 236C75.32 236 74.2 235.52 73.24 234.56C72.28 233.6 71.8 232.48 71.8 231.2C71.8 230.4 71.88 229.52 72.04 228.56L131.56 73.28C132.2 71.68 133.08 70.4 134.2 69.44C135.32 68.48 137 68 139.24 68H155.56C157.64 68 159.24 68.48 160.36 69.44C161.64 70.4 162.6 71.68 163.24 73.28L222.52 228.56C222.84 229.52 223 230.4 223 231.2C223 232.48 222.52 233.6 221.56 234.56C220.6 235.52 219.48 236 218.2 236H205.96C204.04 236 202.6 235.52 201.64 234.56C200.84 233.6 200.28 232.72 199.96 231.92L186.76 197.84H108.04L94.84 231.92C94.68 232.72 94.12 233.6 93.16 234.56C92.2 235.52 90.76 236 88.84 236H76.6ZM115 177.2H179.8L147.4 92L115 177.2ZM251.061 236C249.461 236 248.101 235.52 246.981 234.56C246.021 233.44 245.541 232.08 245.541 230.48V116.96C245.541 115.36 246.021 114 246.981 112.88C248.101 111.76 249.461 111.2 251.061 111.2H262.101C263.701 111.2 265.061 111.76 266.181 112.88C267.301 114 267.861 115.36 267.861 116.96V127.52C271.061 122.08 275.461 118 281.061 115.28C286.661 112.56 293.381 111.2 301.221 111.2H310.821C312.421 111.2 313.701 111.76 314.661 112.88C315.621 113.84 316.101 115.12 316.101 116.72V126.56C316.101 128.16 315.621 129.44 314.661 130.4C313.701 131.36 312.421 131.84 310.821 131.84H296.421C287.781 131.84 280.981 134.4 276.021 139.52C271.061 144.48 268.581 151.28 268.581 159.92V230.48C268.581 232.08 268.021 233.44 266.901 234.56C265.781 235.52 264.421 236 262.821 236H251.061ZM398.393 238.4C388.793 238.4 380.793 236.72 374.393 233.36C367.993 229.84 362.873 225.52 359.033 220.4V230.48C359.033 232.08 358.473 233.44 357.353 234.56C356.393 235.52 355.113 236 353.513 236H342.473C340.873 236 339.513 235.52 338.393 234.56C337.433 233.44 336.953 232.08 336.953 230.48V71.12C336.953 69.52 337.433 68.24 338.393 67.28C339.513 66.16 340.873 65.6 342.473 65.6H353.993C355.753 65.6 357.113 66.16 358.073 67.28C359.033 68.24 359.513 69.52 359.513 71.12V126.32C363.513 121.36 368.633 117.2 374.873 113.84C381.273 110.48 389.113 108.8 398.393 108.8C407.353 108.8 414.953 110.4 421.193 113.6C427.593 116.64 432.793 120.88 436.793 126.32C440.953 131.76 444.073 137.92 446.153 144.8C448.233 151.68 449.353 158.88 449.513 166.4C449.673 168.96 449.753 171.36 449.753 173.6C449.753 175.84 449.673 178.24 449.513 180.8C449.353 188.48 448.233 195.76 446.153 202.64C444.073 209.52 440.953 215.68 436.793 221.12C432.793 226.4 427.593 230.64 421.193 233.84C414.953 236.88 407.353 238.4 398.393 238.4ZM393.353 218.96C401.673 218.96 408.153 217.2 412.793 213.68C417.593 210 421.033 205.28 423.113 199.52C425.193 193.6 426.393 187.28 426.713 180.56C426.873 175.92 426.873 171.28 426.713 166.64C426.393 159.92 425.193 153.68 423.113 147.92C421.033 142 417.593 137.28 412.793 133.76C408.153 130.08 401.673 128.24 393.353 128.24C385.833 128.24 379.593 130 374.633 133.52C369.673 137.04 365.913 141.52 363.353 146.96C360.953 152.4 359.673 157.92 359.513 163.52C359.353 166.08 359.273 169.2 359.273 172.88C359.273 176.4 359.353 179.44 359.513 182C359.833 187.92 361.113 193.76 363.353 199.52C365.753 205.12 369.353 209.76 374.153 213.44C379.113 217.12 385.513 218.96 393.353 218.96ZM529.128 238.4C512.648 238.4 499.528 233.36 489.768 223.28C480.008 213.04 474.648 199.12 473.688 181.52C473.528 179.44 473.448 176.8 473.448 173.6C473.448 170.24 473.528 167.52 473.688 165.44C474.328 154.08 476.968 144.16 481.608 135.68C486.248 127.04 492.568 120.4 500.568 115.76C508.728 111.12 518.248 108.8 529.128 108.8C541.288 108.8 551.448 111.36 559.608 116.48C567.928 121.6 574.248 128.88 578.568 138.32C582.888 147.76 585.047 158.8 585.047 171.44V175.52C585.047 177.28 584.488 178.64 583.368 179.6C582.408 180.56 581.128 181.04 579.528 181.04H496.488C496.488 181.2 496.488 181.52 496.488 182C496.488 182.48 496.488 182.88 496.488 183.2C496.808 189.76 498.248 195.92 500.808 201.68C503.368 207.28 507.048 211.84 511.848 215.36C516.648 218.88 522.408 220.64 529.128 220.64C534.888 220.64 539.688 219.76 543.528 218C547.368 216.24 550.488 214.32 552.888 212.24C555.288 210 556.888 208.32 557.688 207.2C559.128 205.12 560.248 203.92 561.048 203.6C561.848 203.12 563.128 202.88 564.888 202.88H576.408C578.008 202.88 579.288 203.36 580.248 204.32C581.368 205.12 581.848 206.32 581.688 207.92C581.528 210.32 580.248 213.28 577.848 216.8C575.448 220.16 572.008 223.52 567.528 226.88C563.048 230.24 557.608 233.04 551.208 235.28C544.808 237.36 537.448 238.4 529.128 238.4ZM496.488 164.48H562.248V163.76C562.248 156.56 560.888 150.16 558.168 144.56C555.608 138.96 551.848 134.56 546.888 131.36C541.928 128 536.008 126.32 529.128 126.32C522.248 126.32 516.328 128 511.368 131.36C506.568 134.56 502.888 138.96 500.328 144.56C497.768 150.16 496.488 156.56 496.488 163.76V164.48ZM703.984 281.6C702.224 281.6 700.864 281.04 699.904 279.92C698.944 278.96 698.464 277.68 698.464 276.08V220.4C694.464 225.52 689.264 229.84 682.864 233.36C676.624 236.72 668.864 238.4 659.584 238.4C650.784 238.4 643.184 236.88 636.784 233.84C630.384 230.64 625.104 226.48 620.944 221.36C616.944 216.08 613.904 210.08 611.824 203.36C609.904 196.48 608.784 189.28 608.464 181.76C608.304 179.2 608.224 176.48 608.224 173.6C608.224 170.72 608.304 168 608.464 165.44C608.784 157.76 609.904 150.56 611.824 143.84C613.904 137.12 616.944 131.12 620.944 125.84C625.104 120.56 630.384 116.4 636.784 113.36C643.184 110.32 650.784 108.8 659.584 108.8C669.184 108.8 677.184 110.56 683.584 114.08C689.984 117.6 695.104 122 698.944 127.28V116.72C698.944 115.12 699.424 113.84 700.384 112.88C701.504 111.76 702.864 111.2 704.464 111.2H715.504C717.104 111.2 718.384 111.76 719.344 112.88C720.464 113.84 721.024 115.12 721.024 116.72V276.08C721.024 277.68 720.464 278.96 719.344 279.92C718.384 281.04 717.104 281.6 715.504 281.6H703.984ZM664.624 218.96C672.304 218.96 678.544 217.2 683.344 213.68C688.304 210.16 691.984 205.68 694.384 200.24C696.944 194.8 698.304 189.28 698.464 183.68C698.624 180.96 698.704 177.84 698.704 174.32C698.704 170.8 698.624 167.76 698.464 165.2C698.304 159.28 697.024 153.52 694.624 147.92C692.224 142.16 688.544 137.44 683.584 133.76C678.784 130.08 672.464 128.24 664.624 128.24C656.464 128.24 649.984 130.08 645.184 133.76C640.384 137.28 636.944 142 634.864 147.92C632.784 153.68 631.584 159.92 631.264 166.64C631.104 171.28 631.104 175.92 631.264 180.56C631.584 187.28 632.784 193.6 634.864 199.52C636.944 205.28 640.384 210 645.184 213.68C649.984 217.2 656.464 218.96 664.624 218.96ZM803.273 238.4C793.033 238.4 784.313 236.16 777.113 231.68C770.073 227.04 764.713 220.64 761.033 212.48C757.353 204.32 755.513 194.96 755.513 184.4V116.72C755.513 115.12 755.993 113.84 756.953 112.88C758.073 111.76 759.433 111.2 761.033 111.2H773.033C774.633 111.2 775.913 111.76 776.873 112.88C777.993 113.84 778.553 115.12 778.553 116.72V183.2C778.553 207.04 788.953 218.96 809.753 218.96C819.673 218.96 827.593 215.84 833.513 209.6C839.593 203.2 842.633 194.4 842.633 183.2V116.72C842.633 115.12 843.113 113.84 844.073 112.88C845.193 111.76 846.553 111.2 848.153 111.2H859.913C861.673 111.2 863.033 111.76 863.993 112.88C864.953 113.84 865.433 115.12 865.433 116.72V230.48C865.433 232.08 864.953 233.44 863.993 234.56C863.033 235.52 861.673 236 859.913 236H848.873C847.273 236 845.913 235.52 844.793 234.56C843.833 233.44 843.353 232.08 843.353 230.48V219.92C839.033 225.52 833.753 230 827.513 233.36C821.433 236.72 813.353 238.4 803.273 238.4ZM906.608 236C905.008 236 903.648 235.52 902.528 234.56C901.568 233.44 901.088 232.08 901.088 230.48V116.72C901.088 115.12 901.568 113.84 902.528 112.88C903.648 111.76 905.008 111.2 906.608 111.2H918.128C919.728 111.2 921.008 111.76 921.968 112.88C922.928 113.84 923.408 115.12 923.408 116.72V230.48C923.408 232.08 922.928 233.44 921.968 234.56C921.008 235.52 919.728 236 918.128 236H906.608ZM904.688 87.92C903.088 87.92 901.728 87.44 900.608 86.48C899.648 85.36 899.168 84 899.168 82.4V69.44C899.168 67.84 899.648 66.56 900.608 65.6C901.728 64.48 903.088 63.92 904.688 63.92H919.808C921.408 63.92 922.688 64.48 923.648 65.6C924.768 66.56 925.328 67.84 925.328 69.44V82.4C925.328 84 924.768 85.36 923.648 86.48C922.688 87.44 921.408 87.92 919.808 87.92H904.688ZM964.733 236C963.133 236 961.773 235.52 960.653 234.56C959.693 233.44 959.213 232.08 959.213 230.48V116.72C959.213 115.12 959.693 113.84 960.653 112.88C961.773 111.76 963.133 111.2 964.733 111.2H976.013C977.613 111.2 978.893 111.76 979.853 112.88C980.973 113.84 981.533 115.12 981.533 116.72V127.28C985.693 121.84 990.893 117.44 997.133 114.08C1003.53 110.56 1011.69 108.8 1021.61 108.8C1032.01 108.8 1040.81 111.12 1048.01 115.76C1055.37 120.24 1060.89 126.56 1064.57 134.72C1068.25 142.72 1070.09 152.08 1070.09 162.8V230.48C1070.09 232.08 1069.61 233.44 1068.65 234.56C1067.69 235.52 1066.41 236 1064.81 236H1052.81C1051.21 236 1049.85 235.52 1048.73 234.56C1047.77 233.44 1047.29 232.08 1047.29 230.48V164C1047.29 152.8 1044.57 144.08 1039.13 137.84C1033.69 131.44 1025.69 128.24 1015.13 128.24C1005.21 128.24 997.213 131.44 991.133 137.84C985.213 144.08 982.253 152.8 982.253 164V230.48C982.253 232.08 981.693 233.44 980.573 234.56C979.613 235.52 978.333 236 976.733 236H964.733ZM1139.56 238.4C1131.56 238.4 1124.28 236.8 1117.72 233.6C1111.16 230.4 1105.88 226.08 1101.88 220.64C1097.88 215.2 1095.88 209.04 1095.88 202.16C1095.88 191.12 1100.36 182.32 1109.32 175.76C1118.28 169.2 1129.96 164.88 1144.36 162.8L1180.12 157.76V150.8C1180.12 143.12 1177.88 137.12 1173.4 132.8C1169.08 128.48 1161.96 126.32 1152.04 126.32C1144.84 126.32 1139 127.76 1134.52 130.64C1130.2 133.52 1127.16 137.2 1125.4 141.68C1124.44 144.08 1122.76 145.28 1120.36 145.28H1109.56C1107.8 145.28 1106.44 144.8 1105.48 143.84C1104.68 142.72 1104.28 141.44 1104.28 140C1104.28 137.6 1105.16 134.64 1106.92 131.12C1108.84 127.6 1111.72 124.16 1115.56 120.8C1119.4 117.44 1124.28 114.64 1130.2 112.4C1136.28 110 1143.64 108.8 1152.28 108.8C1161.88 108.8 1169.96 110.08 1176.52 112.64C1183.08 115.04 1188.2 118.32 1191.88 122.48C1195.72 126.64 1198.44 131.36 1200.04 136.64C1201.8 141.92 1202.68 147.28 1202.68 152.72V230.48C1202.68 232.08 1202.12 233.44 1201 234.56C1200.04 235.52 1198.76 236 1197.16 236H1186.12C1184.36 236 1183 235.52 1182.04 234.56C1181.08 233.44 1180.6 232.08 1180.6 230.48V220.16C1178.52 223.04 1175.72 225.92 1172.2 228.8C1168.68 231.52 1164.28 233.84 1159 235.76C1153.72 237.52 1147.24 238.4 1139.56 238.4ZM1144.6 220.4C1151.16 220.4 1157.16 219.04 1162.6 216.32C1168.04 213.44 1172.28 209.04 1175.32 203.12C1178.52 197.2 1180.12 189.76 1180.12 180.8V174.08L1152.28 178.16C1140.92 179.76 1132.36 182.48 1126.6 186.32C1120.84 190 1117.96 194.72 1117.96 200.48C1117.96 204.96 1119.24 208.72 1121.8 211.76C1124.52 214.64 1127.88 216.8 1131.88 218.24C1136.04 219.68 1140.28 220.4 1144.6 220.4Z" fill="#EBE6EF"/>
<path d="M76.6 266C75.32 266 74.2 265.52 73.24 264.56C72.28 263.6 71.8 262.48 71.8 261.2C71.8 260.4 71.88 259.52 72.04 258.56L131.56 103.28C132.2 101.68 133.08 100.4 134.2 99.44C135.32 98.48 137 98 139.24 98H155.56C157.64 98 159.24 98.48 160.36 99.44C161.64 100.4 162.6 101.68 163.24 103.28L222.52 258.56C222.84 259.52 223 260.4 223 261.2C223 262.48 222.52 263.6 221.56 264.56C220.6 265.52 219.48 266 218.2 266H205.96C204.04 266 202.6 265.52 201.64 264.56C200.84 263.6 200.28 262.72 199.96 261.92L186.76 227.84H108.04L94.84 261.92C94.68 262.72 94.12 263.6 93.16 264.56C92.2 265.52 90.76 266 88.84 266H76.6ZM115 207.2H179.8L147.4 122L115 207.2ZM251.061 266C249.461 266 248.101 265.52 246.981 264.56C246.021 263.44 245.541 262.08 245.541 260.48V146.96C245.541 145.36 246.021 144 246.981 142.88C248.101 141.76 249.461 141.2 251.061 141.2H262.101C263.701 141.2 265.061 141.76 266.181 142.88C267.301 144 267.861 145.36 267.861 146.96V157.52C271.061 152.08 275.461 148 281.061 145.28C286.661 142.56 293.381 141.2 301.221 141.2H310.821C312.421 141.2 313.701 141.76 314.661 142.88C315.621 143.84 316.101 145.12 316.101 146.72V156.56C316.101 158.16 315.621 159.44 314.661 160.4C313.701 161.36 312.421 161.84 310.821 161.84H296.421C287.781 161.84 280.981 164.4 276.021 169.52C271.061 174.48 268.581 181.28 268.581 189.92V260.48C268.581 262.08 268.021 263.44 266.901 264.56C265.781 265.52 264.421 266 262.821 266H251.061ZM398.393 268.4C388.793 268.4 380.793 266.72 374.393 263.36C367.993 259.84 362.873 255.52 359.033 250.4V260.48C359.033 262.08 358.473 263.44 357.353 264.56C356.393 265.52 355.113 266 353.513 266H342.473C340.873 266 339.513 265.52 338.393 264.56C337.433 263.44 336.953 262.08 336.953 260.48V101.12C336.953 99.52 337.433 98.24 338.393 97.28C339.513 96.16 340.873 95.6 342.473 95.6H353.993C355.753 95.6 357.113 96.16 358.073 97.28C359.033 98.24 359.513 99.52 359.513 101.12V156.32C363.513 151.36 368.633 147.2 374.873 143.84C381.273 140.48 389.113 138.8 398.393 138.8C407.353 138.8 414.953 140.4 421.193 143.6C427.593 146.64 432.793 150.88 436.793 156.32C440.953 161.76 444.073 167.92 446.153 174.8C448.233 181.68 449.353 188.88 449.513 196.4C449.673 198.96 449.753 201.36 449.753 203.6C449.753 205.84 449.673 208.24 449.513 210.8C449.353 218.48 448.233 225.76 446.153 232.64C444.073 239.52 440.953 245.68 436.793 251.12C432.793 256.4 427.593 260.64 421.193 263.84C414.953 266.88 407.353 268.4 398.393 268.4ZM393.353 248.96C401.673 248.96 408.153 247.2 412.793 243.68C417.593 240 421.033 235.28 423.113 229.52C425.193 223.6 426.393 217.28 426.713 210.56C426.873 205.92 426.873 201.28 426.713 196.64C426.393 189.92 425.193 183.68 423.113 177.92C421.033 172 417.593 167.28 412.793 163.76C408.153 160.08 401.673 158.24 393.353 158.24C385.833 158.24 379.593 160 374.633 163.52C369.673 167.04 365.913 171.52 363.353 176.96C360.953 182.4 359.673 187.92 359.513 193.52C359.353 196.08 359.273 199.2 359.273 202.88C359.273 206.4 359.353 209.44 359.513 212C359.833 217.92 361.113 223.76 363.353 229.52C365.753 235.12 369.353 239.76 374.153 243.44C379.113 247.12 385.513 248.96 393.353 248.96ZM529.128 268.4C512.648 268.4 499.528 263.36 489.768 253.28C480.008 243.04 474.648 229.12 473.688 211.52C473.528 209.44 473.448 206.8 473.448 203.6C473.448 200.24 473.528 197.52 473.688 195.44C474.328 184.08 476.968 174.16 481.608 165.68C486.248 157.04 492.568 150.4 500.568 145.76C508.728 141.12 518.248 138.8 529.128 138.8C541.288 138.8 551.448 141.36 559.608 146.48C567.928 151.6 574.248 158.88 578.568 168.32C582.888 177.76 585.047 188.8 585.047 201.44V205.52C585.047 207.28 584.488 208.64 583.368 209.6C582.408 210.56 581.128 211.04 579.528 211.04H496.488C496.488 211.2 496.488 211.52 496.488 212C496.488 212.48 496.488 212.88 496.488 213.2C496.808 219.76 498.248 225.92 500.808 231.68C503.368 237.28 507.048 241.84 511.848 245.36C516.648 248.88 522.408 250.64 529.128 250.64C534.888 250.64 539.688 249.76 543.528 248C547.368 246.24 550.488 244.32 552.888 242.24C555.288 240 556.888 238.32 557.688 237.2C559.128 235.12 560.248 233.92 561.048 233.6C561.848 233.12 563.128 232.88 564.888 232.88H576.408C578.008 232.88 579.288 233.36 580.248 234.32C581.368 235.12 581.848 236.32 581.688 237.92C581.528 240.32 580.248 243.28 577.848 246.8C575.448 250.16 572.008 253.52 567.528 256.88C563.048 260.24 557.608 263.04 551.208 265.28C544.808 267.36 537.448 268.4 529.128 268.4ZM496.488 194.48H562.248V193.76C562.248 186.56 560.888 180.16 558.168 174.56C555.608 168.96 551.848 164.56 546.888 161.36C541.928 158 536.008 156.32 529.128 156.32C522.248 156.32 516.328 158 511.368 161.36C506.568 164.56 502.888 168.96 500.328 174.56C497.768 180.16 496.488 186.56 496.488 193.76V194.48ZM703.984 311.6C702.224 311.6 700.864 311.04 699.904 309.92C698.944 308.96 698.464 307.68 698.464 306.08V250.4C694.464 255.52 689.264 259.84 682.864 263.36C676.624 266.72 668.864 268.4 659.584 268.4C650.784 268.4 643.184 266.88 636.784 263.84C630.384 260.64 625.104 256.48 620.944 251.36C616.944 246.08 613.904 240.08 611.824 233.36C609.904 226.48 608.784 219.28 608.464 211.76C608.304 209.2 608.224 206.48 608.224 203.6C608.224 200.72 608.304 198 608.464 195.44C608.784 187.76 609.904 180.56 611.824 173.84C613.904 167.12 616.944 161.12 620.944 155.84C625.104 150.56 630.384 146.4 636.784 143.36C643.184 140.32 650.784 138.8 659.584 138.8C669.184 138.8 677.184 140.56 683.584 144.08C689.984 147.6 695.104 152 698.944 157.28V146.72C698.944 145.12 699.424 143.84 700.384 142.88C701.504 141.76 702.864 141.2 704.464 141.2H715.504C717.104 141.2 718.384 141.76 719.344 142.88C720.464 143.84 721.024 145.12 721.024 146.72V306.08C721.024 307.68 720.464 308.96 719.344 309.92C718.384 311.04 717.104 311.6 715.504 311.6H703.984ZM664.624 248.96C672.304 248.96 678.544 247.2 683.344 243.68C688.304 240.16 691.984 235.68 694.384 230.24C696.944 224.8 698.304 219.28 698.464 213.68C698.624 210.96 698.704 207.84 698.704 204.32C698.704 200.8 698.624 197.76 698.464 195.2C698.304 189.28 697.024 183.52 694.624 177.92C692.224 172.16 688.544 167.44 683.584 163.76C678.784 160.08 672.464 158.24 664.624 158.24C656.464 158.24 649.984 160.08 645.184 163.76C640.384 167.28 636.944 172 634.864 177.92C632.784 183.68 631.584 189.92 631.264 196.64C631.104 201.28 631.104 205.92 631.264 210.56C631.584 217.28 632.784 223.6 634.864 229.52C636.944 235.28 640.384 240 645.184 243.68C649.984 247.2 656.464 248.96 664.624 248.96ZM803.273 268.4C793.033 268.4 784.313 266.16 777.113 261.68C770.073 257.04 764.713 250.64 761.033 242.48C757.353 234.32 755.513 224.96 755.513 214.4V146.72C755.513 145.12 755.993 143.84 756.953 142.88C758.073 141.76 759.433 141.2 761.033 141.2H773.033C774.633 141.2 775.913 141.76 776.873 142.88C777.993 143.84 778.553 145.12 778.553 146.72V213.2C778.553 237.04 788.953 248.96 809.753 248.96C819.673 248.96 827.593 245.84 833.513 239.6C839.593 233.2 842.633 224.4 842.633 213.2V146.72C842.633 145.12 843.113 143.84 844.073 142.88C845.193 141.76 846.553 141.2 848.153 141.2H859.913C861.673 141.2 863.033 141.76 863.993 142.88C864.953 143.84 865.433 145.12 865.433 146.72V260.48C865.433 262.08 864.953 263.44 863.993 264.56C863.033 265.52 861.673 266 859.913 266H848.873C847.273 266 845.913 265.52 844.793 264.56C843.833 263.44 843.353 262.08 843.353 260.48V249.92C839.033 255.52 833.753 260 827.513 263.36C821.433 266.72 813.353 268.4 803.273 268.4ZM906.608 266C905.008 266 903.648 265.52 902.528 264.56C901.568 263.44 901.088 262.08 901.088 260.48V146.72C901.088 145.12 901.568 143.84 902.528 142.88C903.648 141.76 905.008 141.2 906.608 141.2H918.128C919.728 141.2 921.008 141.76 921.968 142.88C922.928 143.84 923.408 145.12 923.408 146.72V260.48C923.408 262.08 922.928 263.44 921.968 264.56C921.008 265.52 919.728 266 918.128 266H906.608ZM904.688 117.92C903.088 117.92 901.728 117.44 900.608 116.48C899.648 115.36 899.168 114 899.168 112.4V99.44C899.168 97.84 899.648 96.56 900.608 95.6C901.728 94.48 903.088 93.92 904.688 93.92H919.808C921.408 93.92 922.688 94.48 923.648 95.6C924.768 96.56 925.328 97.84 925.328 99.44V112.4C925.328 114 924.768 115.36 923.648 116.48C922.688 117.44 921.408 117.92 919.808 117.92H904.688ZM964.733 266C963.133 266 961.773 265.52 960.653 264.56C959.693 263.44 959.213 262.08 959.213 260.48V146.72C959.213 145.12 959.693 143.84 960.653 142.88C961.773 141.76 963.133 141.2 964.733 141.2H976.013C977.613 141.2 978.893 141.76 979.853 142.88C980.973 143.84 981.533 145.12 981.533 146.72V157.28C985.693 151.84 990.893 147.44 997.133 144.08C1003.53 140.56 1011.69 138.8 1021.61 138.8C1032.01 138.8 1040.81 141.12 1048.01 145.76C1055.37 150.24 1060.89 156.56 1064.57 164.72C1068.25 172.72 1070.09 182.08 1070.09 192.8V260.48C1070.09 262.08 1069.61 263.44 1068.65 264.56C1067.69 265.52 1066.41 266 1064.81 266H1052.81C1051.21 266 1049.85 265.52 1048.73 264.56C1047.77 263.44 1047.29 262.08 1047.29 260.48V194C1047.29 182.8 1044.57 174.08 1039.13 167.84C1033.69 161.44 1025.69 158.24 1015.13 158.24C1005.21 158.24 997.213 161.44 991.133 167.84C985.213 174.08 982.253 182.8 982.253 194V260.48C982.253 262.08 981.693 263.44 980.573 264.56C979.613 265.52 978.333 266 976.733 266H964.733ZM1139.56 268.4C1131.56 268.4 1124.28 266.8 1117.72 263.6C1111.16 260.4 1105.88 256.08 1101.88 250.64C1097.88 245.2 1095.88 239.04 1095.88 232.16C1095.88 221.12 1100.36 212.32 1109.32 205.76C1118.28 199.2 1129.96 194.88 1144.36 192.8L1180.12 187.76V180.8C1180.12 173.12 1177.88 167.12 1173.4 162.8C1169.08 158.48 1161.96 156.32 1152.04 156.32C1144.84 156.32 1139 157.76 1134.52 160.64C1130.2 163.52 1127.16 167.2 1125.4 171.68C1124.44 174.08 1122.76 175.28 1120.36 175.28H1109.56C1107.8 175.28 1106.44 174.8 1105.48 173.84C1104.68 172.72 1104.28 171.44 1104.28 170C1104.28 167.6 1105.16 164.64 1106.92 161.12C1108.84 157.6 1111.72 154.16 1115.56 150.8C1119.4 147.44 1124.28 144.64 1130.2 142.4C1136.28 140 1143.64 138.8 1152.28 138.8C1161.88 138.8 1169.96 140.08 1176.52 142.64C1183.08 145.04 1188.2 148.32 1191.88 152.48C1195.72 156.64 1198.44 161.36 1200.04 166.64C1201.8 171.92 1202.68 177.28 1202.68 182.72V260.48C1202.68 262.08 1202.12 263.44 1201 264.56C1200.04 265.52 1198.76 266 1197.16 266H1186.12C1184.36 266 1183 265.52 1182.04 264.56C1181.08 263.44 1180.6 262.08 1180.6 260.48V250.16C1178.52 253.04 1175.72 255.92 1172.2 258.8C1168.68 261.52 1164.28 263.84 1159 265.76C1153.72 267.52 1147.24 268.4 1139.56 268.4ZM1144.6 250.4C1151.16 250.4 1157.16 249.04 1162.6 246.32C1168.04 243.44 1172.28 239.04 1175.32 233.12C1178.52 227.2 1180.12 219.76 1180.12 210.8V204.08L1152.28 208.16C1140.92 209.76 1132.36 212.48 1126.6 216.32C1120.84 220 1117.96 224.72 1117.96 230.48C1117.96 234.96 1119.24 238.72 1121.8 241.76C1124.52 244.64 1127.88 246.8 1131.88 248.24C1136.04 249.68 1140.28 250.4 1144.6 250.4Z" fill="#DBD6E1"/>
</g>
<defs>
<clipPath id="clip0_252:198">
<rect width="600" height="300" fill="white"/>
</clipPath>
</defs>
</svg>
