<svg xmlns="http://www.w3.org/2000/svg" width="291" height="151" fill="none"><path fill="#F6F6F8" d="M170.72 27.48c-5.3-.41-9.53-7.87-9.53-7.87 2.7 9.34-1.1 11.68-1.1 11.68L149.62 15l-5.39 9.1c-1.28.28-1.52-1.5-1.52-1.5-1.28-1.1-.75-7.03-.75-7.03-6.05 10.4-11.62 9.94-11.62 9.94l13.65-21.26a6.95 6.95 0 0 1 11.68-.02l15.05 23.25Z"/><path fill="#F58452" d="M207.59 148.14h13.3s-1.75-7.31-6.66-7.31c-4.9 0-6.64 7.31-6.64 7.31ZM163.08 142.28h16.02s-.62-12.06-6.77-12.49c-6.16-.43-9.25 12.5-9.25 12.5ZM67.25 140.06h18.63s-.99-10.27-9.31-10.27c-8.33 0-9.32 10.27-9.32 10.27Z"/><path fill="#B29DD2" d="m220.92 105.07-50.2-77.6c-5.6-.76-9.53-7.86-9.53-7.86 1.5 5.2 1.29 9.7-1.1 11.68l46.9 73.02h-6.5l10.08 12.26h4.1c5.9 0 9.46-6.54 6.25-11.5ZM127.36 30.15s34.85 32.2 44.04 69.8l8.55-9.65s-12.93-36.39-38-62.34l2.28-3.85c-3.81-2-2.27-8.54-2.27-8.54-5.66 9.54-11.63 9.94-11.63 9.94l-2.97 4.64ZM158.59 104.5c-12.4-36.92-39.55-61.4-39.55-61.4L96.8 77.75c15.93 12.54 21.95 27.53 21.95 27.53l-25.51.06 6.64-10.84c-3.91-4.82-9.04-6.93-9.04-6.93l-4.84 7.25 12.78 21.75h35.92c-.93-4.93-6.65-23.87-22.3-40.94l8.47-12.9s21.32 21.41 28.1 53.84h7.7l10.56-11.96-8.63-.1Z"/><path fill="#F6F6F8" d="M144.8 127.12c-13.95 4.41-17 5.71-14.13 8.36 2.11 1.93 9.52 6.21 10.3 11.25a4.77 4.77 0 0 1-.76 3.27l-52.82-2.55c3.68-.96 6.5-2.12 8.76-3.58 9.05-5.79-8.07-11.11 9.07-14.59 9.8-1.99 24.83-4.23 28.96-7.14 3.27-2.3-1.26-5.57-1.09-5.57h16.76s10.8 5.55-5.05 10.55Z"/><path stroke="#3F2B56" stroke-linecap="round" stroke-linejoin="round" d="M290.14 116.57H.86L25.5 83.2l8.99 13.6 26.43-44.66 36.2 61.6"/><path stroke="#3F2B56" stroke-linecap="round" stroke-linejoin="round" d="m204.92 74.99 14.37-16.17 14.12 19.76 8.99-11.55 23.6 44.4 9.5-11.8L284.5 114M160.64 112.08l24-27.08 25.93 31.57"/><path stroke="#F58452" stroke-linecap="round" stroke-linejoin="round" d="m79.15 77.81 13.6-19.25 7.46 10.6"/><path stroke="#3F2B56" stroke-linecap="round" stroke-linejoin="round" d="M88.07 147.27c.67-.18 1.31-.38 1.92-.58l1.2-.41.17-.07 1.15-.45.17-.07c.23-.1.45-.19.67-.3a17.62 17.62 0 0 0 3.4-1.94 5.93 5.93 0 0 0 2.02-2.45l.07-.19.06-.25c.03-.09.04-.17.05-.25.07-.4.05-.78-.03-1.16 0-.04 0-.08-.02-.12-.49-2.22-2.8-4.1-1.53-6.28.12-.21.3-.41.53-.61 1.23-1.08 3.93-2 7.32-2.86 5.93-1.49 13.97-2.72 19.91-3.96.05 0 .1-.02.13-.03 2.07-.43 3.87-.87 5.23-1.32a11 11 0 0 0 3.83-1.94 3.17 3.17 0 0 0 1-1.4c.14-.49-.05-1.4-.57-2.2-.64-1-1.66-1.86-1.66-1.86M140.28 150c.36-.56.6-1.14.67-1.74l.04-.43v-.02a5.31 5.31 0 0 0-.03-1.08c-.23-2.17-1.55-3.92-3.2-5.44-2.42-2.22-5.55-3.96-7.07-5.79 0-.01 0-.02-.02-.02-.48-.6-.8-1.2-.88-1.83a1.22 1.22 0 0 1 0-.27v-.01c.27-2.24 7.25-3.85 13.6-5.8.9-.28 1.78-.56 2.63-.86 3.62-1.24 6.62-2.66 7.4-4.46.3-.67-.03-2.39-.88-3.52-1.04-1.4-2.69-2.16-2.69-2.16M66.37 134.03l3.72 4.23M74.32 127.74l2.06 8.21M82.4 135.56l1.68-3.97M166.29 131.72l.51 4.62M171.3 137.23l3.46-11.42M175.78 140.83l4.11-5.27M209.33 140.83l1.67 3.98M216.65 145.45l3.46-5.4M111.97 146.34s6.16 1.42 11.17-2.3c0 0 2.82 2.82 8.34 2.82M106.74 138.26s3.6 1.41 7.44-1.92c0 0 5.2 4.68 10.33-.07 0 0 1.42 2.05 4.37 2.05"/><path stroke="#3F2B56" stroke-linecap="round" stroke-linejoin="round" d="M115.85 130.18s3.83.49 5.9-.9c0 0 1.02.94 2.19 1.02M141.38 119.57s1.63.11 2.86-.84c0 0 .84.9 2.3 1M95.63 101.32l4.24-6.82c-3.27-3.47-9.04-6.93-9.04-6.93l-2.76 4.13"/><path stroke="#3F2B56" stroke-linecap="round" stroke-linejoin="round" d="M94.87 105.28h23.87s-4.23-13.67-21.95-27.53l22.25-34.65s27.61 25.4 39.55 61.4h5.6"/><path stroke="#3F2B56" stroke-linecap="round" stroke-linejoin="round" d="M148.97 116.57c-7.7-33.37-28.11-53.84-28.11-53.84l-8.47 12.9c16.93 18.54 21.52 37.62 21.52 37.62M171.4 99.94s-8.15-34.82-44.04-69.8l16.63-25.9a6.95 6.95 0 0 1 11.68-.01l65.25 100.84a7.45 7.45 0 0 1-6.26 11.5h-.24"/><path stroke="#3F2B56" stroke-linecap="round" stroke-linejoin="round" d="M178.96 87.57s-11.25-31.5-37-59.6l7.66-12.97L207 104.3h-3.92M130.34 25.51s5.57.45 11.62-9.94c0 0-.7 6.35.75 7.02"/><path stroke="#3F2B56" stroke-linecap="round" stroke-linejoin="round" d="M160.08 31.3s3.8-2.35 1.1-11.69c0 0 4.24 7.46 9.53 7.87"/></svg>
