<svg xmlns="http://www.w3.org/2000/svg" width="303" height="105" fill="none"><path fill="#EBB432" d="m139.09 46.51-21.82 50.43-94.06-7.47-9.92-3.53 18.38-45.75 101.74 2.47 5.68 3.85Z"/><path fill="#CE8D1B" d="M117.27 96.93 23.2 89.46l-9.92-3.53 98.2 7.18 5.78 3.82Z"/><path fill="#E1557A" d="m93.85 99.48-4.6-1.63 3.12-1.19s-9.28-1.26-10.02-1.55c-.75-.3-6.54-3.94-10.25-4.98-3.7-1.04-8.98-1.18-8.98-1.18s9.95-2.97 11.8-4.75c3.84-3.68 5.35-6.98 5.35-6.98 0-4.38-4.23-10.69-6.09-11.2-1.85-.53-6.98 2.89-8.09 3.85-1.11.97-9.2 11.73-9.2 11.73-.74-5.72-5.2-15.3-6.68-15.96-1.49-.67-6.31 1.41-7.65 2.23-1.33.81-4.15 6.3-4.37 7.35-.23 1.03 1.33 5.71 2.74 7.57 1.41 1.85 6.83 4.75 6.83 4.75-1.41 1.18-11.06 5.2-11.06 5.2l2.6 6.3s6.23-4.68 7.35-5.79c1.11-1.11 3.34-3.49 3.34-3.49 3.56 2 7.64 1.19 7.64 1.19s.9 1.19 2.15 2.52c1.26 1.34 7.42 7.42 7.42 7.42L72.4 98l-4.53-3.71s5.5.96 6.01 1.19c.52.22 6.24 4.67 7.8 5.04 1.56.38 8.46 1.93 8.46 1.93l-1.78-2.3 5.49-.67Zm-49.28-21.3.74-6.82s4.98 9.22 6.47 14.67c0 0-3.13-2.65-7.21-7.85ZM59.56 88.8l-2.23-1.64s6.09-7.12 7.57-8.8c1.49-1.66 5.13-5.07 5.13-5.07l2.28 8.3s-8.89 5.57-12.75 7.2Z"/><path fill="#E1557A" d="M63.14 73.45c-2.72 3.47-6.24 8.15-6.24 8.15a27.13 27.13 0 0 0-.96-4.23s1.02-2.7 1.26-3.16c.23-.47-.31-4.27-.47-5.05-.16-.77-.08-5.82 0-6.28.08-.47 3.42-4.35 3.65-4.74.23-.39 3.03-12.89 3.26-13.74.23-.86 2.47-3.38 2.47-3.38l6.62.16s-4.48 11.37-4.84 12.69a87.82 87.82 0 0 0-1.14 6.44c-.08.62-3.03 3.57-3.61 4.2 0 0-.5 2.15-.6 2.7-.09.57.6 6.24.6 6.24Z"/><path fill="#EBB432" d="m268.2 61.04-4.4 32-45.37 8.98-99.54-8.85 12.75-29.45 3.2-7.42 19.03-2.47 114.33 7.2Z"/><path fill="#E1557A" d="M135.68 102.02s5.11-3.03 6.1-3.18c1-.15 5.65 1.22 6.1 1.22.46 0 1.53-.38 1.53-.38s3.05-9.54 3.44-10.07c.38-.54 5.18-4.2 5.18-4.2s7.1.38 7.78.38c.7 0 1.99 3.97 2.06 4.43.08.46 0 7.3 0 7.3l-7.55-.58-.6-5.73s-4.2 9.77-4.43 10.53c-.23.76-3.82 2.06-4.28 2.21-.45.15-4.57.23-4.57.23l-.92-2.06-4.27 1.52-.46-2.13-5.11.5Z"/><path fill="#CE8D1B" d="m268.18 61.04-48.71 10.2-87.84-7.52 3.2-7.42 19.03-2.47 114.32 7.2Z"/><path fill="#E1557A" d="M237.42 98.26s1.89-5.15 3.18-6.67c1.3-1.53 5.5-4.35 6.26-4.66l9.76-1.22c.77 1 1.91 7.4 1.91 7.4s2.37 2.3 2.9 2.22c.54-.08 11.83-1 12.74-.69.92.3 4.43 3.2 4.43 3.2l-5.19-.15 1.22 1.22s-7.78-1.07-8.93-.99c-1.14.08-7.63 1.45-8.24 1.37-.6-.07-3.89-2.06-4.11-2.44-.23-.38-1.53-6.02-1.84-7.1-.07-.26-.35-.59-.75-.93 0 0-3.44 2.62-3.98 3.38-.53.76-2.08 4.62-2.08 4.62"/><path fill="#AD6CAA" d="M173.67 45.74s1.55 2.36 2.17 4.15l-3.12 3.02 6.65.28s-.19-5.94-3.63-10.56l9.95-13.43s5.63 11.15 5.72 24.7l5.36.35s-.7-16.89-7.91-29.46l10.27-14.05c.8-1.1 2.52-.8 2.92.5l14.38 46.86c.45 1.46-.7 2.91-2.22 2.81l-9.43-.59s.17-3.25-.27-5.8l4.93.35-10.3-36.68-5 7.12s7.2 15.3 7.2 34.75l-13.45-1.23s1.23-11.26-3.43-20.5l-3.96 4.93s3.17 5.89 2.81 15.21l-14.07-1.04a2.52 2.52 0 0 1-1.76-4.12l6.19-7.57Z"/><path fill="#AD6CAA" d="m263.22 15.73-.46-2.1-6.69 2.47-.07-.91 5.3-4.94-1.46-1.28-6.94 5.21-2.1.37.36-6.03-2.2-.28c-.63 2.93-1.55 8.32-1.55 8.32l-36.13 24.77.53 1.74 38.34-20.3 6.31-1.37 4.84 1.28.82-1.83-5.84-1.91 6.94-3.2ZM199.5 59.88l.4 9.68 3.18.27-1.73-9.78-1.84-.17ZM181.85 58.47l-2.02 9.37 2.93.26.56-9.63h-1.47ZM151.14 9.6s-.18-3-.18-3.96c0-.97-.26-3.52-.26-3.52l-2.29-.35-.35 5.63-1.99-.56-5.49-4.63-1.22 1.2 4.3 4.55-.22.6-6.66-1.53-.49 1.48 6.37 2.13-.42 1.09-4.9 1.17.43 1.48 4.74-.63 5.11 1.04 30.78 24.27.97-1.3L151.14 9.6Z"/><path fill="#E1557A" d="m243.14 37.06 4.05.05-2.48 5.83-1.57-5.88Z"/><path fill="#F58452" d="m261.35 38.02-1.16-3.75 3.24-1.32 1.22 3.65-3.3 1.42Z"/><path fill="#E1557A" d="m273.53 27.38 5.37-.5 1.37 5.77 4.56-.76-.15 4.06 3.25.1-.87-6.9-5.37.46-1.11-5.63-6.7.4-.35 3Z"/><path fill="#EBB432" d="M281.18 45.98c-.16 1.42 1.19 1.6 1.72 1.57.54-.02 1.48-.15 1.52-1.42.02-.64-.67-1.49-1.52-1.52-.86-.03-1.65.66-1.72 1.37Z"/><path fill="#E1557A" d="m279.36 59.11 3.57-.24.82 3.07-3.71.98-.68-3.8Z"/><path fill="#F58452" d="m294.73 28.89 2.18 3.64 5.3-2.48-7.48-1.16Z"/><path fill="#EBB432" d="m289.62 13.37.13 2.86-3.26.34-.44-3.17 3.57-.03Z"/><path fill="#F58452" d="m278.73 8.2-3.03 2.42-1.93-7.6 4.96 5.18ZM217.26 13.8l1.4 4.35 4.62-3.28-2.27-3.54-3.75 2.47Z"/><path fill="#E1557A" d="m209.18 7.65 4.55-.07-2-3.47-2.55 3.54ZM95.19 19.33c-1.33.64-1.21 1.98-.58 2.74.6.71 2.01.94 2.78-.06 1.07-1.38-.7-3.4-2.2-2.68Z"/><path fill="#F58452" d="m111.87 28.04 6.88-1.41.25-5.56 5.5 1.1.85 2.29-4.53-.85-.28 5.4-7.5 1.42-1.17-2.39Z"/><path fill="#E1557A" d="m140.36 25.62 2.27-.22-.13 2.99 2.04-.22.47 5.6 4.12-.32.91 4.84-2.17 1.16-.81-3.96-3.59.79s-.53-5.7-.66-5.7c-.12 0-2.29.42-2.29.42l-.16-5.38Z"/><path fill="#EBB432" d="m130.97 18.68.97 7.57 3.14-6.1-4.12-1.47ZM157.64 6.46c.14 1.96 2.89 1.71 3.06.4.13-.94-.24-1.76-1.2-1.95-.9-.18-1.95.3-1.86 1.55Z"/><path fill="#F58452" d="m163.03 11.59 3.48-2.99 1.53 1.12 2.1-3.06 1.52.61 1.43-2.86 2.09 1.2-2.44 4.18-1.84-1.07-2.4 3.68-1.63-1.74-1.69 2.3-2.15-1.37ZM99.11 12.98l-.93-2.03 3.79-1.93 1.07 2.54-3.93 1.42Z"/><path fill="#E1557A" d="m109.69.5.96 7.07 3.25-4.46L109.7.5ZM127.08 3.38l5.04-1.65.6 3.47-2.17.71-3.47-2.53Z"/><path fill="#F58452" d="m121.15 12.24-4.18-5.18 5.65 2.53-1.47 2.65Z"/><path fill="#EBB432" d="m114.65 14.88-4.08.14.08 2.36 3.85.14.15-2.64ZM256.05 42.82l-2.13 3.29 1.15 1.42-2.4 3.47 1.78 1.24 3.02-4.8-.89-1.42 2.14-3.11-3.65-5.69-1.5 1.51 2.48 4.09Z"/><path fill="#E1557A" d="M46.62 86.9s-6.79-.22-7.96-.12c-1.18.1-8.03 3.27-8.03 3.27s-12.1 1.68-13.03 1.52c-.46-.08-2.84-.86-5.22-1.65 2.86-.55 9.75-.84 9.75-.84l1.07.38-9.93-3.53 1.51-3.75s-6.58.83-8.73 1.5c-2.15.66-4.97 1.78-5.34 2.52 0 0 .07 4.6 1.04 8.39 0 0 2 .3 3.7.51 1.71.23 7.13 2 8.25 2.38 1.1.37 3.19 1.11 4.6 1.26 1.4.15 4.6-.15 6.23-.52 1.63-.37 6.16-2.82 7.27-3.26 1.12-.45 5.2-1.5 5.2-1.5l-.3-.73 4.32-1.85c2.76-1.22 5.97-2.7 6.74-3.35 0 0-.46-.24-1.14-.63Z"/><path fill="#CE8D1B" d="m131.64 63.72-4.38 30.2-8.37-.74 12.75-29.46Z"/><path fill="#000" d="M90.14 102.8h-.07c-.07-.02-6.92-1.57-8.47-1.94-1.05-.25-3.54-2-6.21-3.92-.74-.53-1.5-1.08-1.64-1.15-.09-.03-.6-.18-3.43-.7a.35.35 0 0 1-.28-.42.35.35 0 0 1 .4-.28c3.21.6 3.49.72 3.59.76.19.08.68.43 1.77 1.22 1.85 1.33 4.96 3.57 5.96 3.8 1.2.3 5.56 1.28 7.51 1.72l-1.18-1.53a.35.35 0 0 1 .23-.56l4.02-.49-3.2-1.13a.35.35 0 0 1-.01-.66l1.84-.7c-2.67-.37-8.14-1.15-8.75-1.4-.2-.07-.64-.32-1.47-.79-2.1-1.19-6-3.4-8.74-4.16-3.62-1.02-8.84-1.18-8.9-1.18a.35.35 0 0 1-.08-.68c.1-.03 9.88-2.97 11.66-4.67 3.44-3.3 5-6.32 5.23-6.8-.05-4.3-4.15-10.32-5.83-10.8-1.55-.43-6.43 2.63-7.76 3.8-.86.74-6.37 7.95-9.16 11.66a.35.35 0 0 1-.63-.17c-.76-5.86-5.2-15.1-6.47-15.67-1.23-.56-5.77 1.26-7.32 2.2-1.23.75-4.01 6.17-4.22 7.12-.19.9 1.3 5.47 2.69 7.29 1.34 1.77 6.66 4.62 6.71 4.65a.35.35 0 0 1 .06.58c-1.3 1.1-9.1 4.4-10.83 5.12l2.3 5.56c1.34-1.01 6.02-4.55 6.94-5.48 1.1-1.1 3.31-3.46 3.34-3.48a.35.35 0 0 1 .42-.07c3.4 1.92 7.37 1.16 7.4 1.15.14-.02.28.03.36.14 0 0 .9 1.18 2.12 2.49a633.1 633.1 0 0 0 7.23 7.23l4.52-2.52-4.13-3.38a.35.35 0 0 1 .44-.55l4.53 3.72a.35.35 0 0 1-.05.57l-5.2 2.9a.35.35 0 0 1-.41-.06c-.07-.06-6.18-6.1-7.44-7.43-1-1.05-1.75-2-2.04-2.38-.9.14-4.29.52-7.43-1.14-.56.6-2.24 2.39-3.16 3.3-1.12 1.12-7.13 5.63-7.39 5.83a.35.35 0 0 1-.53-.15l-2.6-6.31a.35.35 0 0 1 .2-.46c3-1.25 8.68-3.7 10.52-4.83-1.39-.78-5.24-3-6.44-4.58-1.48-1.94-3.06-6.68-2.81-7.85.25-1.15 3.1-6.7 4.54-7.57 1.28-.79 6.27-3.02 7.97-2.25 1.66.75 5.74 9.7 6.75 15.4 1.8-2.38 7.78-10.27 8.76-11.12.93-.8 6.28-4.53 8.41-3.93 2.1.59 6.34 7.15 6.34 11.55 0 .05 0 .1-.03.14-.06.14-1.58 3.4-5.42 7.08-1.4 1.36-7.08 3.3-10.08 4.26 1.88.14 4.78.44 7.11 1.1 2.81.78 6.77 3.02 8.9 4.22.68.39 1.21.69 1.38.76.51.2 6.37 1.05 9.94 1.53a.35.35 0 0 1 .08.68l-2.23.85 3.7 1.31a.35.35 0 0 1-.07.68l-4.88.6 1.4 1.8c.1.12.1.28.02.4a.35.35 0 0 1-.3.17ZM59.57 89.14a.35.35 0 0 1-.21-.06l-2.23-1.64a.35.35 0 0 1-.06-.51c.06-.08 6.1-7.14 7.58-8.8.9-1 2.55-2.63 3.78-3.81a.35.35 0 0 1 .49.5 82.7 82.7 0 0 0-3.75 3.78c-1.3 1.46-6.17 7.15-7.32 8.5l1.76 1.3c3.53-1.55 10.93-6.11 12.3-6.97l-2.22-8.06a.35.35 0 1 1 .68-.18l2.29 8.31c.04.15-.02.3-.15.4-.37.22-8.97 5.6-12.8 7.22a.35.35 0 0 1-.14.02Zm-7.79-2.76a.35.35 0 0 1-.22-.09 59.6 59.6 0 0 1-7.26-7.9.35.35 0 0 1-.07-.25l.74-6.83a.35.35 0 0 1 .65-.12c.05.09 5.02 9.32 6.5 14.75a.35.35 0 0 1-.34.44Zm-6.84-8.3a65.97 65.97 0 0 0 6.14 6.83c-1.4-4.27-4.34-10.07-5.54-12.38l-.6 5.55Z"/><path fill="#000" d="M57.63 91.3a.35.35 0 0 1-.35-.33l-.7-8.84c-4.77 2.4-6.24 7.67-6.26 7.72a.35.35 0 1 1-.67-.18c.06-.24 1.66-5.98 7.1-8.4a.35.35 0 0 1 .49.3l.74 9.35a.35.35 0 0 1-.35.38ZM70.02 73.64c-.1 0-.2-.05-.27-.14-1.14-1.46-3.83-3.32-3.86-3.34a.35.35 0 0 1 .4-.58c.11.08 2.8 1.94 4.01 3.5a.35.35 0 0 1-.28.56ZM72.3 83.42a.35.35 0 0 1-.34-.35V81.6a.35.35 0 1 1 .7 0v1.47c0 .2-.16.35-.35.35ZM45.31 71.7c-.1 0-.2-.04-.27-.13l-2.75-3.49a.35.35 0 1 1 .55-.43l2.75 3.49a.35.35 0 0 1-.28.57Z"/><path fill="#000" d="M47.77 87.89a.35.35 0 0 1-.12-.68l4.02-1.5c.18-.07.38.02.45.2a.35.35 0 0 1-.2.45l-4.03 1.5a.35.35 0 0 1-.12.03ZM60.21 89.52a.35.35 0 0 1-.35-.35c0-.2.15-.35.35-.35a.35.35 0 1 1 0 .7Z"/><path fill="#000" d="m62.06 89.03-1.87.14 1.64 1.09.23-1.23Z"/><path fill="#000" d="M61.84 90.6a.35.35 0 0 1-.2-.05L60 89.46a.35.35 0 0 1 .17-.64l1.87-.14c.11 0 .22.04.29.12.07.08.1.19.08.3l-.23 1.22a.35.35 0 0 1-.34.29Zm-.6-1.16.35.23.05-.26-.4.03ZM23.22 89.81c-.04 0-.08 0-.12-.02l-9.92-3.53a.35.35 0 0 1-.2-.46l1.5-3.75a.35.35 0 1 1 .65.26l-1.37 3.41 9.58 3.41a.35.35 0 0 1-.12.68ZM30.64 90.4a.35.35 0 0 1-.35-.35c0-.18 1.26-.82 3.78-1.92 3.78-1.63 4.37-1.68 4.57-1.7.72-.06 3.47 0 5.64.05.2 0 .35.17.35.36 0 .2-.18.35-.36.34-3.06-.08-5.03-.1-5.57-.05-.91.08-6.12 2.4-7.91 3.24a.36.36 0 0 1-.15.04Z"/><path fill="#000" d="M19.22 99.13c-.36 0-.69-.01-.95-.04-1.3-.14-3.1-.74-4.29-1.15l-.39-.13c-.65-.22-6.43-2.13-8.17-2.36-1.71-.22-3.72-.52-3.72-.52a.35.35 0 0 1-.29-.26A43.43 43.43 0 0 1 .36 86.2c0-.05.01-.1.04-.16.55-1.1 4.72-2.44 5.55-2.7 1.53-.47 5.22-1.02 7.28-1.3.19-.03.37.1.4.3.02.19-.11.36-.3.39-2.04.28-5.69.82-7.17 1.28-2.52.78-4.7 1.77-5.1 2.28.02.68.16 4.63.98 7.98.57.09 2.11.31 3.47.49 1.8.23 7.64 2.17 8.3 2.39l.4.13c1.16.4 2.91.99 4.13 1.11 1.4.15 4.59-.16 6.12-.5 1.06-.25 3.46-1.44 5.22-2.3.9-.45 1.62-.8 2-.96.93-.37 3.8-1.13 4.86-1.4l-.15-.37a.35.35 0 0 1 .18-.45l4.32-1.85a65.7 65.7 0 0 0 6.21-2.99l-.65-.37a.35.35 0 1 1 .35-.6l1.13.63a.35.35 0 0 1 .06.57c-.65.55-2.95 1.7-6.82 3.4l-4 1.72.17.42a.35.35 0 0 1-.24.47c-.04 0-4.08 1.04-5.16 1.47-.35.14-1.1.51-1.95.93-1.89.94-4.24 2.1-5.38 2.35-1.32.3-3.74.57-5.39.57Z"/><path fill="#000" d="M17.78 91.93c-.1 0-.17 0-.22-.02-.47-.08-2.53-.75-5.61-1.76-2.14-.71-4.36-1.44-4.73-1.51-.82-.16-5.13-.71-5.17-.72a.35.35 0 1 1 .09-.69c.18.02 4.37.56 5.2.72.4.08 2.1.63 4.83 1.53 2.37.78 5.05 1.66 5.51 1.74.64.12 8.26-.87 12.92-1.51a.35.35 0 0 1 .1.7c-1.18.15-11.1 1.52-12.92 1.52ZM56.89 81.94a.35.35 0 0 1-.28-.56c.03-.04 3.47-4.62 6.15-8.03-.15-1.22-.67-5.64-.58-6.2.09-.56.58-2.64.6-2.73a.35.35 0 0 1 .09-.16c.08-.1.23-.24.4-.42 1.99-2.06 3.04-3.26 3.11-3.58.07-.54.77-5.12 1.15-6.49.33-1.18 3.82-10.08 4.67-12.25l-5.96-.15c-.84.97-2.13 2.57-2.28 3.11-.08.29-.46 1.96-.9 3.9-1.72 7.47-2.26 9.7-2.4 9.94-.09.14-.44.58-1.12 1.41a36.58 36.58 0 0 0-2.49 3.22c-.07.44-.13 5.45 0 6.14.02.04.8 4.58.44 5.27l-.46 1.1a.35.35 0 1 1-.65-.25c.25-.62.4-1 .49-1.16.14-.43-.3-3.8-.5-4.82a56.5 56.5 0 0 1 0-6.42c.05-.3.62-1.07 2.63-3.52.49-.6 1-1.22 1.06-1.33.17-.4 1.51-6.24 2.31-9.73l.92-3.93c.24-.9 2.3-3.25 2.54-3.52a.36.36 0 0 1 .27-.11l6.62.16a.35.35 0 0 1 .32.48c-.05.1-4.48 11.36-4.83 12.65a88.28 88.28 0 0 0-1.13 6.4c-.06.47-.93 1.5-3.3 3.96l-.34.35c-.1.42-.5 2.12-.57 2.6-.05.35.27 3.42.6 6.14.01.09-.02.18-.07.25-2.69 3.43-6.2 8.1-6.23 8.14a.35.35 0 0 1-.28.14ZM111.48 93.53h-.03l-35.17-2.6a.35.35 0 1 1 .05-.7l34.93 2.58 21.82-50.3a.35.35 0 0 1 .64.28L111.8 93.33a.35.35 0 0 1-.32.2ZM36.2 87.97h-.02l-22.9-1.7a.35.35 0 0 1-.33-.37c.01-.19.18-.34.37-.32l22.91 1.7a.35.35 0 0 1-.02.69Z"/><path fill="#000" d="M117.27 97.29a.35.35 0 0 1-.19-.06l-5.78-3.76a.35.35 0 0 1 .38-.59l5.78 3.76a.35.35 0 0 1-.19.65ZM136.55 56.43a.35.35 0 0 1-.05-.7l17.32-2.25 11.14.7c.2 0 .34.18.33.37-.01.19-.16.33-.37.33l-11.07-.7-17.26 2.25h-.04ZM219.47 71.59a.3.3 0 0 1-.03 0l-87.84-7.52a.35.35 0 0 1 .06-.7l87.8 7.52 48.66-10.2c.18-.03.38.09.41.28a.35.35 0 0 1-.27.41l-48.72 10.2-.07.01Z"/><path fill="#000" d="M154.56 66.03a.35.35 0 0 1-.35-.33l-.7-11.86a.35.35 0 0 1 .33-.37c.19 0 .36.14.37.33l.7 11.86c.01.19-.14.36-.33.37h-.02ZM218.42 102.36h-.01a.35.35 0 0 1-.34-.36l1.05-30.78c.01-.19.2-.34.37-.33.19 0 .34.16.33.36l-1.05 30.78c0 .19-.16.33-.35.33ZM152.56 103.71a.35.35 0 0 1-.13-.67c2.34-.97 2.52-1.39 2.53-1.4.23-.78 4.26-10.17 4.44-10.57a.35.35 0 0 1 .67.1l.58 5.44 6.89.54c.02-2.64.05-6.55 0-6.88-.1-.6-1.27-3.89-1.77-4.14-.2 0-.32-.15-.32-.34 0-.2.18-.35.37-.35 1.14 0 2.4 4.67 2.4 4.72.09.46.03 6.22.01 7.37 0 .1-.04.19-.11.26a.36.36 0 0 1-.27.09l-7.55-.6a.35.35 0 0 1-.32-.3l-.47-4.4c-1.5 3.52-3.72 8.73-3.88 9.26-.07.22-.22.73-2.94 1.85a.35.35 0 0 1-.13.02Z"/><path fill="#000" d="M146.44 104.53a.35.35 0 0 1-.32-.21l-.78-1.76-3.97 1.41c-.1.03-.2.03-.28-.02a.35.35 0 0 1-.18-.23l-.39-1.83-4.8.47a.35.35 0 0 1-.37-.24.35.35 0 0 1 .16-.4c.53-.32 5.2-3.07 6.23-3.23.66-.1 2.46.32 4.56.85.68.17 1.45.36 1.6.37.25 0 .83-.17 1.24-.3.62-1.93 3.05-9.48 3.43-10 .39-.56 4.45-3.66 5.26-4.28a.34.34 0 0 1 .23-.07l5.29.27a.35.35 0 0 1-.04.7l-5.16-.27a69.51 69.51 0 0 0-5.01 4.05c-.28.44-2.23 6.35-3.39 9.97a.35.35 0 0 1-.21.22 7 7 0 0 1-1.65.4c-.18 0-.63-.1-1.75-.38-1.4-.35-3.72-.93-4.3-.84-.53.08-2.72 1.26-4.58 2.33l3.5-.35c.19-.02.34.1.38.27l.37 1.75 3.9-1.4c.17-.06.36.03.44.2l.82 1.84c1.92-.04 3.97-.12 4.24-.2a.35.35 0 1 1 .22.66c-.47.16-3.7.23-4.68.25Z"/><path fill="#000" d="M159.72 91.56a.35.35 0 0 1-.23-.61l6.1-5.42a.35.35 0 1 1 .46.52l-6.1 5.42a.35.35 0 0 1-.23.09ZM250.74 89.17a.35.35 0 0 1-.23-.08c-1.22-1.06-3.2-1.95-3.55-1.83a.36.36 0 0 1-.45-.2.34.34 0 0 1 .2-.45c.84-.34 3.24 1.07 4.26 1.95a.35.35 0 0 1-.23.61Z"/><path fill="#000" d="M257.52 99.64h-.1c-.67-.09-4.07-2.11-4.37-2.61-.15-.25-.49-1.58-1.24-4.68-.28-1.13-.52-2.12-.63-2.5-.02-.07-.1-.25-.43-.57-1.07.82-3.3 2.57-3.67 3.12a45.2 45.2 0 0 0-2.05 4.55.35.35 0 1 1-.65-.26c.07-.16 1.57-3.9 2.12-4.7.55-.78 3.7-3.18 4.06-3.45.13-.1.32-.1.44.02.48.41.76.77.86 1.1.11.4.35 1.38.63 2.53.4 1.67 1.02 4.2 1.17 4.49.3.37 3.4 2.2 3.85 2.26.3.03 2.6-.4 4.26-.7 1.74-.33 3.37-.63 3.92-.67.91-.06 5.8.57 7.97.85l-.5-.48a.35.35 0 0 1-.06-.39c.05-.13.2-.2.33-.21l4.15.12c-1.34-1.07-3-2.32-3.51-2.5-.82-.25-11.93.62-12.58.71-.59.08-2.06-1.22-3.2-2.32a.35.35 0 0 1-.1-.19c-.42-2.38-1.21-6.07-1.74-7.07l-9.5 1.18c-.78.36-4.83 3.08-6.07 4.54-1.24 1.46-3.1 6.52-3.12 6.57a.35.35 0 0 1-.45.2.35.35 0 0 1-.21-.44c.08-.22 1.92-5.23 3.24-6.78 1.33-1.56 5.53-4.4 6.4-4.75a.35.35 0 0 1 .08-.03l9.77-1.22c.12-.01.24.04.32.14.76.98 1.76 6.39 1.95 7.43 1 .97 2.25 2 2.56 2.05.07-.02 11.8-1.03 12.87-.67.95.31 4.17 2.96 4.54 3.26a.35.35 0 0 1-.24.62l-4.3-.13.6.6c.1.1.13.27.06.4a.35.35 0 0 1-.36.2c-2.16-.3-7.96-1.05-8.86-1-.5.04-2.2.36-3.83.66-2.57.48-3.91.72-4.38.72ZM201.37 60.4h-.04l-1.84-.17a.35.35 0 0 1 .06-.7l1.46.14c-.09-18.95-7.1-34.06-7.17-34.21a.35.35 0 0 1 .03-.35l3.44-4.9a.35.35 0 1 1 .58.4l-3.34 4.73a91.63 91.63 0 0 1 7.17 34.71.35.35 0 0 1-.35.35Z"/><path fill="#000" d="M214.35 61.27h-.16l-9.43-.6a.35.35 0 0 1-.33-.37c0-.03.17-3.25-.26-5.73a.35.35 0 0 1 .09-.3.34.34 0 0 1 .28-.1l4.43.31-10.16-36.2a.35.35 0 0 1 .68-.19l10.29 36.68a.35.35 0 0 1-.36.44l-4.49-.32c.29 2 .25 4.25.22 5.1l9.09.57a1.8 1.8 0 0 0 1.55-.69c.38-.48.49-1.09.31-1.67l-14.38-46.86a1.28 1.28 0 0 0-1.03-.91c-.5-.08-.97.1-1.27.52L189.28 24.8c7.06 12.49 7.84 29.26 7.85 29.42 0 .1-.04.2-.1.27a.36.36 0 0 1-.28.1l-5.36-.35a.35.35 0 0 1-.33-.35c-.07-11.68-4.35-21.68-5.43-24.02l-9.45 12.75c3.32 4.62 3.54 10.3 3.55 10.55 0 .1-.04.19-.1.26a.32.32 0 0 1-.27.1l-6.64-.28a.35.35 0 0 1-.23-.6l2.95-2.86a22.17 22.17 0 0 0-1.8-3.46l-5.89 7.19a2.14 2.14 0 0 0-.31 2.23 2.14 2.14 0 0 0 1.84 1.32l13.7 1.02c.25-8.9-2.75-14.62-2.78-14.68a.35.35 0 0 1 .03-.38l3.96-4.93c.07-.1.2-.14.31-.13.12.01.22.09.28.2 4.19 8.3 3.65 18.33 3.5 20.33l9.2.84a.35.35 0 0 1-.07.7l-9.55-.88a.35.35 0 0 1-.31-.38c0-.11 1.12-10.87-3.16-19.81l-3.47 4.32c.56 1.14 3.07 6.73 2.75 15.18a.35.35 0 0 1-.38.34l-14.07-1.05c-1.09-.08-2-.73-2.43-1.73-.43-1-.27-2.1.42-2.95l6.2-7.57a.35.35 0 0 1 .56.03c.06.1 1.58 2.41 2.2 4.23.05.13.01.27-.08.36l-2.53 2.45 5.44.23c-.1-1.36-.7-6.16-3.53-9.98a.35.35 0 0 1 0-.42L185.4 29a.35.35 0 0 1 .6.05c.05.11 5.57 11.2 5.75 24.53l4.65.3c-.17-2.6-1.37-17.6-7.85-28.91a.35.35 0 0 1 .02-.38l10.27-14.05a2 2 0 0 1 1.96-.79 2 2 0 0 1 1.58 1.4L216.77 58a2.53 2.53 0 0 1-2.42 3.27Z"/><path fill="#000" d="M213.2 42.69a.35.35 0 0 1-.16-.66L250 22.46a.36.36 0 0 1 .09-.03l6.3-1.38a.35.35 0 0 1 .17 0l4.55 1.21.54-1.2-5.47-1.8a.35.35 0 0 1-.04-.64l6.69-3.09-.31-1.43-6.32 2.33a.35.35 0 0 1-.47-.3l-.07-.92c0-.1.03-.21.11-.28l5.02-4.67-.96-.84-6.72 5.04a.35.35 0 0 1-.15.06l-2.1.37a.35.35 0 0 1-.4-.37l.34-5.7-1.55-.2c-.63 2.95-1.48 7.94-1.49 8a.35.35 0 0 1-.14.22l-36.13 24.78a.35.35 0 0 1-.4-.58l36.01-24.7c.15-.88.96-5.55 1.53-8.18.04-.17.2-.29.39-.27l2.19.28c.18.02.32.18.3.36l-.33 5.6 1.58-.28 6.88-5.16c.13-.1.31-.1.44.02l1.46 1.28a.35.35 0 0 1 0 .51l-5.17 4.82.02.29 6.26-2.3a.35.35 0 0 1 .46.25l.46 2.1a.35.35 0 0 1-.2.39l-6.13 2.83 5 1.64a.35.35 0 0 1 .21.47l-.82 1.83a.35.35 0 0 1-.41.2l-4.76-1.26-6.18 1.34-36.92 19.55a.35.35 0 0 1-.16.04ZM203.09 70.18a.3.3 0 0 1-.03 0l-3.18-.27a.35.35 0 0 1-.32-.34l-.4-9.67a.35.35 0 0 1 .39-.37l1.84.17c.16.02.29.13.31.29l1.73 9.78a.35.35 0 0 1-.34.41Zm-2.84-.94 2.41.2-1.6-9.07-1.18-.1.37 8.97ZM182.76 68.44h-.03l-2.92-.25a.35.35 0 0 1-.31-.42l2.02-9.38a.35.35 0 0 1 .34-.27h1.46a.35.35 0 0 1 .35.37l-.56 9.62a.35.35 0 0 1-.35.33Zm-2.5-.91 2.17.18.52-8.9h-.8l-1.88 8.72ZM178.41 39.41a.35.35 0 0 1-.22-.07L147.48 15.1l-4.97-1-4.69.61a.35.35 0 0 1-.38-.24L137 13a.35.35 0 0 1 .26-.44l4.73-1.13.22-.58-6.02-2a.35.35 0 0 1-.22-.45l.49-1.48a.35.35 0 0 1 .4-.23l6.37 1.45.04-.1-4.16-4.39a.35.35 0 0 1 .01-.49l1.22-1.2a.35.35 0 0 1 .48-.02l5.42 4.59 1.5.41.33-5.2c0-.1.05-.18.13-.24a.35.35 0 0 1 .27-.08l2.29.35c.16.03.28.16.3.31 0 .1.26 2.58.26 3.56 0 .83.13 3.21.17 3.8l28.13 28.07c.12.13.14.32.03.46l-.96 1.3a.35.35 0 0 1-.28.14ZM142.52 13.4h.07l5.1 1.04c.06.01.11.04.15.07l30.5 24.05.57-.77L150.9 9.84a.35.35 0 0 1-.1-.22c-.01-.13-.18-3.02-.18-3.98 0-.76-.17-2.54-.24-3.22l-1.64-.25-.32 5.25c-.01.1-.06.2-.15.26a.35.35 0 0 1-.3.05l-1.99-.55a.34.34 0 0 1-.13-.07l-5.24-4.43-.75.74 4.07 4.3c.1.09.12.23.07.36l-.22.6a.35.35 0 0 1-.4.21l-6.36-1.45-.28.85 6.03 2.01c.1.03.17.1.2.18.05.09.05.19.02.28l-.41 1.1a.35.35 0 0 1-.25.2l-4.55 1.1.25.83 4.44-.59h.05ZM244.72 43.29h-.03a.35.35 0 0 1-.31-.26l-1.57-5.88a.35.35 0 0 1 .34-.44l4.06.05a.35.35 0 0 1 .31.49l-2.48 5.83a.35.35 0 0 1-.32.2Zm-1.12-5.88 1.2 4.46 1.87-4.42-3.07-.04ZM261.36 38.37a.35.35 0 0 1-.33-.25l-1.17-3.75a.35.35 0 0 1 .2-.42l3.25-1.32a.35.35 0 0 1 .46.21l1.22 3.65a.35.35 0 0 1-.2.43l-3.3 1.42a.35.35 0 0 1-.13.03Zm-.74-3.9.96 3.08 2.64-1.14-1-3-2.6 1.06ZM287.93 36.4h-.01l-3.25-.1a.35.35 0 0 1-.33-.37l.13-3.63-4.14.7a.35.35 0 0 1-.4-.27l-1.3-5.48-5.06.48a.34.34 0 0 1-.29-.1.35.35 0 0 1-.1-.3l.36-2.99c.02-.16.16-.3.33-.3l6.69-.4c.2-.02.33.1.36.27l1.06 5.32 5.06-.43c.17-.01.35.12.38.3l.86 6.9a.35.35 0 0 1-.35.4Zm-2.88-.8 2.48.08-.77-6.15-5.03.43a.34.34 0 0 1-.38-.28l-1.05-5.33-6.1.37-.27 2.27 4.94-.47c.17-.02.34.1.38.27l1.3 5.46 4.23-.7c.1-.02.21 0 .29.08.08.07.12.17.12.27l-.14 3.7ZM282.82 47.9c-.3 0-1.09-.06-1.59-.59-.32-.34-.46-.8-.4-1.37.1-.93 1.07-1.73 2.09-1.68 1.06.04 1.88 1.06 1.85 1.88-.03 1.1-.66 1.7-1.85 1.76h-.1Zm.03-2.94c-.68 0-1.27.56-1.32 1.05-.04.36.03.63.21.82.3.32.86.38 1.15.37.69-.03 1.16-.23 1.19-1.09 0-.44-.51-1.13-1.19-1.15h-.04ZM280.05 63.27a.35.35 0 0 1-.35-.29l-.68-3.81a.35.35 0 0 1 .32-.41l3.57-.24c.17 0 .32.1.36.26l.82 3.06a.35.35 0 0 1-.25.43l-3.7.99a.36.36 0 0 1-.1 0Zm-.27-3.84.54 3.05 3-.8-.65-2.44-2.9.2ZM296.91 32.88a.35.35 0 0 1-.3-.17l-2.18-3.64a.35.35 0 0 1 .36-.53l7.48 1.16a.35.35 0 0 1 .1.66l-5.3 2.48a.35.35 0 0 1-.16.04Zm-1.5-3.53 1.64 2.73 3.98-1.87-5.61-.86ZM286.5 16.92a.35.35 0 0 1-.35-.3l-.45-3.17a.35.35 0 0 1 .35-.4l3.57-.03a.4.4 0 0 1 .25.1c.07.06.1.15.1.25l.14 2.84c0 .18-.13.34-.31.36l-3.27.34h-.04Zm-.05-3.17.34 2.43 2.6-.27-.1-2.19-2.84.03ZM275.71 10.96l-.11-.01a.35.35 0 0 1-.23-.25l-1.94-7.59a.35.35 0 0 1 .6-.33l4.96 5.18c.07.07.1.16.1.26s-.06.19-.13.25l-3.03 2.42a.35.35 0 0 1-.22.07Zm-1.27-6.73 1.48 5.77 2.3-1.84-3.78-3.93ZM218.67 18.5c-.04 0-.07 0-.1-.02a.35.35 0 0 1-.23-.22l-1.4-4.35a.35.35 0 0 1 .13-.4l3.75-2.48a.35.35 0 0 1 .49.1l2.27 3.55c.1.16.06.37-.1.48l-4.6 3.27a.35.35 0 0 1-.2.07Zm-.99-4.55 1.18 3.64 3.95-2.81-1.9-2.97-3.23 2.14ZM209.19 8a.35.35 0 0 1-.31-.19.35.35 0 0 1 .03-.36l2.54-3.55c.07-.1.18-.15.3-.15.12.01.23.08.29.18l2 3.48a.35.35 0 0 1-.3.52L209.2 8Zm2.51-3.25-1.82 2.54 3.26-.05-1.44-2.5ZM96.02 23.03c-.65 0-1.29-.28-1.67-.74a2.25 2.25 0 0 1-.5-1.87c.1-.43.38-1.02 1.19-1.4.98-.48 1.96 0 2.51.67.65.8.7 1.8.12 2.54-.39.5-.96.79-1.6.8h-.05Zm-.17-3.5c-.17 0-.34.03-.5.11-.45.22-.73.53-.81.93-.1.42.04.9.34 1.27.26.3.7.5 1.17.5.3-.01.74-.11 1.07-.54.44-.58.24-1.24-.11-1.67-.28-.34-.7-.6-1.16-.6ZM113.04 30.78a.35.35 0 0 1-.32-.2l-1.16-2.38a.35.35 0 0 1 .24-.5l6.62-1.36.24-5.29a.35.35 0 0 1 .42-.33l5.5 1.1c.11.03.21.11.25.23l.85 2.29c.05.12.02.25-.06.35-.08.1-.2.14-.33.12l-4.13-.78-.26 5c-.01.17-.13.3-.29.33l-7.5 1.42h-.07Zm-.65-2.48.85 1.74 6.97-1.31.27-5.14a.35.35 0 0 1 .41-.32l3.92.73-.56-1.53-4.91-.98-.23 5.16c-.01.16-.13.3-.28.32l-6.44 1.33ZM147.88 39.8a.35.35 0 0 1-.34-.28l-.75-3.61-3.23.7a.35.35 0 0 1-.43-.3c-.16-1.74-.44-4.46-.57-5.33a166 166 0 0 0-1.97.36c-.1.02-.2 0-.28-.07a.35.35 0 0 1-.13-.27l-.16-5.37c0-.18.13-.34.32-.36l2.26-.22c.1 0 .2.03.27.1.08.07.12.16.11.27l-.1 2.57 1.63-.17a.35.35 0 0 1 .39.32l.44 5.24 3.77-.28c.17-.02.34.1.37.28l.91 4.84c.03.15-.04.3-.18.37l-2.17 1.17a.35.35 0 0 1-.16.04Zm-.82-4.66a.35.35 0 0 1 .34.28l.73 3.5 1.53-.82-.8-4.28-3.81.29a.36.36 0 0 1-.38-.32l-.44-5.24-1.69.18a.35.35 0 0 1-.38-.36l.1-2.58-1.53.15.13 4.64c1.82-.34 1.92-.34 1.96-.34.4 0 .44 0 .97 5.6l3.2-.7h.07ZM131.94 26.6h-.06a.35.35 0 0 1-.28-.3l-.98-7.58a.35.35 0 0 1 .47-.37l4.11 1.48a.35.35 0 0 1 .2.49l-3.15 6.1a.35.35 0 0 1-.3.18Zm-.55-7.4.76 5.9 2.44-4.75-3.2-1.15ZM159.22 8.23h-.07c-.8-.02-1.76-.5-1.85-1.75-.06-.79.26-1.25.55-1.5a2.02 2.02 0 0 1 1.73-.41c1.06.21 1.64 1.13 1.48 2.33-.12.88-1.03 1.33-1.84 1.33Zm-1.23-1.8c.08 1 .92 1.1 1.18 1.1.54.03 1.13-.25 1.2-.72.04-.4.06-1.36-.93-1.56-.43-.08-.86.01-1.13.25-.24.21-.35.53-.32.93ZM165.19 13.3a.35.35 0 0 1-.19-.05l-2.15-1.37a.35.35 0 0 1-.16-.27c-.01-.11.03-.22.12-.29l3.47-2.99c.13-.1.3-.1.44-.01l1.24.9 1.89-2.76c.1-.13.27-.19.42-.13l1.23.5 1.28-2.57a.35.35 0 0 1 .5-.15l2.07 1.2a.35.35 0 0 1 .13.47l-2.44 4.19a.35.35 0 0 1-.47.12l-1.55-.9-2.22 3.4a.35.35 0 0 1-.55.04l-1.34-1.42-1.44 1.95a.35.35 0 0 1-.28.15Zm-1.57-1.76 1.48.94 1.49-2.03a.35.35 0 0 1 .26-.14c.1 0 .2.03.28.1l1.33 1.42 2.15-3.3c.1-.16.31-.2.47-.11l1.54.9 2.08-3.59-1.45-.83-1.27 2.53a.35.35 0 0 1-.44.17l-1.27-.51-1.94 2.83a.35.35 0 0 1-.5.08l-1.3-.95-2.9 2.5ZM99.12 13.33a.35.35 0 0 1-.32-.2l-.93-2.04a.35.35 0 0 1 .16-.46l3.79-1.93a.35.35 0 0 1 .48.18l1.07 2.54a.35.35 0 0 1-.2.46l-3.93 1.43a.35.35 0 0 1-.12.02Zm-.47-2.23.65 1.44 3.28-1.2-.78-1.84-3.15 1.6ZM110.66 7.92l-.09-.01a.35.35 0 0 1-.26-.3l-.97-7.06a.35.35 0 0 1 .54-.35l4.21 2.6a.35.35 0 0 1 .1.51l-3.25 4.47a.35.35 0 0 1-.28.14Zm-.52-6.73.75 5.47 2.51-3.46-3.26-2.01ZM130.56 6.26a.35.35 0 0 1-.21-.07l-3.47-2.53a.35.35 0 0 1 .1-.62l5.04-1.64c.1-.03.2-.02.29.03.08.05.15.14.16.24l.6 3.47a.35.35 0 0 1-.23.39l-2.18.71a.36.36 0 0 1-.1.02Zm-2.71-2.76 2.77 2.02 1.72-.56-.49-2.77-4 1.3ZM121.16 12.58c-.1 0-.2-.05-.27-.13l-4.18-5.18a.35.35 0 0 1 .41-.54l5.65 2.54a.35.35 0 0 1 .16.49l-1.46 2.64a.35.35 0 0 1-.31.18Zm-2.99-4.6 2.94 3.63 1.02-1.86-3.96-1.78ZM114.51 17.87h-.01l-3.86-.14a.35.35 0 0 1-.34-.34l-.07-2.36c0-.2.15-.35.34-.36l4.07-.14c.1-.01.2.03.26.1.07.07.1.17.1.27l-.14 2.64c-.01.19-.17.33-.35.33Zm-3.52-.83 3.19.12.1-1.92-3.34.12.05 1.68ZM254.46 52.58a.35.35 0 0 1-.2-.06l-1.78-1.25a.35.35 0 0 1-.09-.48l2.25-3.25-.99-1.22a.35.35 0 0 1-.02-.41l2.01-3.1-2.37-3.9a.35.35 0 0 1 .05-.43l1.51-1.52a.35.35 0 0 1 .54.06l3.65 5.7c.07.11.07.26-.01.38l-2 2.92.76 1.23c.08.11.08.26 0 .37l-3.02 4.8a.35.35 0 0 1-.3.16Zm-1.3-1.68 1.2.84 2.7-4.3-.77-1.24a.35.35 0 0 1 .01-.39l2-2.92-3.28-5.12-1.01 1 2.34 3.86c.07.11.07.26 0 .37l-2 3.08 1 1.22c.1.12.1.3.02.42l-2.2 3.18ZM188.04 56.33H188l-4.71-.3a.35.35 0 0 1-.33-.37c.01-.2.19-.33.37-.33l4.72.3a.35.35 0 0 1-.02.7ZM204.77 57.38h-.03l-3.49-.22a.35.35 0 1 1 .05-.7l3.49.22a.35.35 0 0 1-.02.7ZM259.4 94.26a.35.35 0 0 1-.07-.7l4.16-.81 4.3-31.39-51.47-3.25a.35.35 0 0 1-.33-.37c.01-.19.17-.33.37-.33l51.86 3.28a.35.35 0 0 1 .32.4l-4.4 32a.35.35 0 0 1-.27.3l-4.4.87h-.07ZM218.42 102.37h-.03l-61-5.42a.35.35 0 0 1-.31-.38c.01-.2.2-.34.38-.32l60.94 5.41 34.4-6.8c.18-.03.36.1.4.28a.35.35 0 0 1-.27.41l-34.44 6.81a.4.4 0 0 1-.07 0ZM150.63 96.34h-.03l-31.73-2.82a.35.35 0 1 1 .06-.7l31.73 2.83a.35.35 0 0 1-.03.7ZM58.72 92.64a.4.4 0 0 1-.03 0l-10.34-.83a.35.35 0 0 1-.32-.37c.01-.2.19-.33.38-.32l10.34.82a.35.35 0 0 1-.03.7Z"/><path fill="#000" d="M117.26 97.29h-.03l-36.9-2.94a.35.35 0 1 1 .05-.7l36.66 2.92 21.6-49.94L133.3 43 31.66 40.53a.35.35 0 0 1-.34-.35c0-.2.16-.34.35-.35l101.74 2.48c.07 0 .13.02.19.06l5.68 3.85c.14.1.2.27.13.43l-21.83 50.43a.35.35 0 0 1-.32.2ZM23.22 89.82l-.12-.02-9.92-3.54a.35.35 0 0 1-.2-.46l17.38-43.27a.35.35 0 0 1 .65.26L13.76 85.73l9.58 3.4a.35.35 0 0 1-.12.69Z"/><path fill="#000" d="M12.38 90.27a.35.35 0 0 1-.06-.69c2.85-.55 9.5-.84 9.79-.85.17-.02.36.15.36.34.01.2-.14.35-.33.36-.07 0-6.9.3-9.7.84h-.06ZM42.56 67.87c-.33.2-.76.7-1.22 1.34l2.13-.19-.91-1.15Z"/><path fill="#000" d="M41.35 69.56a.35.35 0 0 1-.28-.55c.53-.75.96-1.23 1.32-1.44.15-.1.35-.06.46.08l.9 1.16c.09.1.1.23.05.35a.35.35 0 0 1-.29.21l-2.13.2h-.03Zm1.16-1.2c-.1.1-.24.24-.4.43l.7-.06-.3-.37ZM66.1 69.87s.68.47 1.52 1.14h-2.54l1.01-1.14Z"/><path fill="#000" d="M67.63 71.36h-2.54a.35.35 0 0 1-.26-.59l1.01-1.13a.35.35 0 0 1 .46-.06c.03.02.71.49 1.54 1.15a.35.35 0 0 1-.21.63Zm-1.76-.7h.73l-.44-.32-.29.32ZM47.75 87.54c-.25.2-.77.51-1.45.87l.31-1.51 1.14.64Z"/><path fill="#000" d="M46.31 88.75a.35.35 0 0 1-.34-.42l.3-1.5a.35.35 0 0 1 .52-.24l1.14.64a.35.35 0 0 1 .06.57c-.26.22-.76.52-1.51.92a.35.35 0 0 1-.16.03Zm.56-1.31-.06.3.3-.17-.24-.13ZM67.87 94.64a.35.35 0 0 1-.19-.06l-8.31-5.49a.35.35 0 1 1 .38-.58L68.07 94a.35.35 0 0 1-.2.64Z"/><path fill="#000" d="M60.13 89.52a.35.35 0 0 1-.03-.7l3-.23c.19-.01.36.13.37.33.02.19-.13.36-.32.37l-3 .23h-.02ZM58.1 79.98 56.9 81.6c-.08-.6-.2-1.26-.36-1.94l1.58.32Z"/><path fill="#000" d="M56.9 81.95a.35.35 0 0 1-.35-.3c-.08-.58-.2-1.22-.35-1.9a.35.35 0 0 1 .41-.43l1.58.32a.35.35 0 0 1 .2.55l-1.21 1.62a.35.35 0 0 1-.28.14Zm.1-1.84.12.61.38-.5-.5-.1ZM165.82 85.8l-.89.78 1.68.2c-.29-.57-.57-.99-.8-.99Z"/><path fill="#000" d="M166.62 87.13a.3.3 0 0 1-.04 0l-1.68-.2a.35.35 0 0 1-.2-.61l.9-.79a.35.35 0 0 1 .23-.09c.36 0 .69.35 1.1 1.19.06.11.05.25-.02.36a.35.35 0 0 1-.29.14Zm-.87-.8.22.02-.1-.13-.12.1ZM246.84 86.94c-.21.08-.71.37-1.34.78l3.04-.32c-.75-.37-1.41-.58-1.7-.46Z"/><path fill="#000" d="M245.51 88.07a.35.35 0 0 1-.33-.23.35.35 0 0 1 .14-.41c.39-.25 1.08-.69 1.4-.82.37-.15 1.04.01 1.98.47.14.07.22.22.2.38a.35.35 0 0 1-.32.28l-3.03.33h-.04ZM183.31 58.47h-1.46l-.16.76 1.57.15.06-.91Z"/><path fill="#000" d="M183.27 59.73h-.03l-1.57-.15a.35.35 0 0 1-.31-.42l.16-.77a.35.35 0 0 1 .34-.27h1.46a.35.35 0 0 1 .35.37l-.05.9c0 .1-.05.2-.12.25a.35.35 0 0 1-.23.09Zm-1.15-.81.82.08.01-.18h-.8l-.03.1ZM199.5 59.88l1.85.17.17.98-1.97-.12-.05-1.03Z"/><path fill="#000" d="M201.53 61.38h-.02l-1.97-.12a.35.35 0 0 1-.33-.33l-.05-1.03a.35.35 0 0 1 .39-.37l1.84.17c.16.02.29.14.31.29l.18.98a.35.35 0 0 1-.35.41Zm-1.64-.8 1.22.08-.05-.28-1.18-.11.01.31ZM178.39 39.06l.96-1.3-.43-.43-1.08 1.3.55.43Z"/><path fill="#000" d="M178.4 39.4a.35.35 0 0 1-.22-.07l-.55-.43a.35.35 0 0 1-.05-.5l1.08-1.3a.35.35 0 0 1 .52-.02l.43.43c.12.12.13.32.03.46l-.96 1.3a.35.35 0 0 1-.28.14Z"/></svg>
