<svg xmlns="http://www.w3.org/2000/svg" viewBox="0 0 80 80"><defs><style>.c{fill:#fefefe}.d{fill:#f2f2f2}</style></defs><path d="M68.3 68.45a40 40 0 01-56.6-56.6z" fill="#6d429c"/><path d="M68.3 68.49a40 40 0 00-56.6-56.6z" fill="#5c2d91"/><path class="c" d="M32.68 30.54v-6.78h2.66v22.76h-3a.44.44 0 01-.42-.24L20.41 28.4c-.26-.41-.46-.86-.68-1.29l-.13-.23a1.85 1.85 0 000 .23c0 .86.11 1.73.11 2.6v16.81H17V23.75h3.12a.5.5 0 01.5.27q4.44 7 8.89 13.93l3.18 5a.14.14 0 00.12.08v-.38c0-1-.11-2-.12-3.06v-8.84c0-.06-.01-.13-.01-.21zM41.26 39.14v-15.4h11.53v2.37H44v7.58h8.16v2.41H44V44h9.36v2.53H41.27v-7.06c0-.11-.01-.22-.01-.33zM12.29 45.08a1.77 1.77 0 11-3.53 0 1.77 1.77 0 113.53 0zM62 26.14h-6.56v-2.39h15.8v2.39h-6.59v20.37H62z"/><path class="d" d="M11.07 51.77v3.52h3.24v.55h-3.24v4.07h-.61v-8.75h4.09v.55zM19.41 54.31a1.05 1.05 0 00-.66-.2 1.45 1.45 0 00-1.25.76A3.91 3.91 0 0017 57v3h-.55v-6.28H17v1.39a2.2 2.2 0 01.67-1.11 1.59 1.59 0 011.08-.4 1.48 1.48 0 01.62.11zM24.64 60v-1.28a2.59 2.59 0 01-.88 1 2.23 2.23 0 01-1.25.39 1.92 1.92 0 01-1.41-.5 1.66 1.66 0 01-.53-1.25c0-1.1.72-1.75 2.17-2l1.92-.29c0-1.34-.5-2-1.51-2a3.08 3.08 0 00-2.08.8v-.68a3.07 3.07 0 01.94-.47 3.58 3.58 0 011.13-.2 1.88 1.88 0 011.48.6 2.48 2.48 0 01.53 1.74V60zm-1.73-3.11a3 3 0 00-1.37.45 1.33 1.33 0 001 2.3 2 2 0 001.5-.66 2.49 2.49 0 00.6-1.73v-.61zM35.23 60v-3.78a2.75 2.75 0 00-.38-1.65 1.37 1.37 0 00-1.17-.47 1.62 1.62 0 00-1.25.63 2.38 2.38 0 00-.54 1.59V60h-.56v-3.76c0-1.4-.53-2.09-1.59-2.09a1.57 1.57 0 00-1.25.63 2.54 2.54 0 00-.49 1.66V60h-.57v-6.22H28v1a2.08 2.08 0 011.91-1.25 1.77 1.77 0 011.17.4 1.93 1.93 0 01.66 1 2.38 2.38 0 01.83-1 2.05 2.05 0 011.19-.38c1.37 0 2 .84 2 2.51V60zM38.12 56.87a3.11 3.11 0 00.6 2 2 2 0 001.64.72 3.35 3.35 0 002-.77v.6a3.65 3.65 0 01-2.17.68 2.48 2.48 0 01-2-.86 3.67 3.67 0 01-.75-2.5 3.51 3.51 0 01.78-2.3 2.52 2.52 0 012-.94 2.12 2.12 0 011.79.81 3.66 3.66 0 01.63 2.24v.25zm4-.51a2.82 2.82 0 00-.53-1.68 1.62 1.62 0 00-1.28-.68 2 2 0 00-1.45.59 2.87 2.87 0 00-.72 1.69zM49.91 60h-.52L48 55.29a4.94 4.94 0 01-.1-.53 2.91 2.91 0 01-.12.51L46.27 60h-.52l-1.89-6.25h.62l1.45 5a2.36 2.36 0 01.09.52 3.21 3.21 0 01.11-.52l1.59-5h.39l1.41 5a3.15 3.15 0 01.09.52 1.91 1.91 0 01.1-.52l1.49-5h.57zM55.9 60.12a2.73 2.73 0 01-2.16-.9 3.89 3.89 0 010-4.77 2.89 2.89 0 012.19-.88 2.65 2.65 0 012.11.88 3.46 3.46 0 01.77 2.41 3.42 3.42 0 01-.81 2.36 2.73 2.73 0 01-2.1.9zm0-6a2.25 2.25 0 00-1.76.75 3.08 3.08 0 00-.67 2.08 3 3 0 00.64 2 2.21 2.21 0 001.75.75 2.16 2.16 0 001.74-.74 3.75 3.75 0 000-4.09 2.14 2.14 0 00-1.66-.87zM63.67 54.31a1.08 1.08 0 00-.67-.2 1.46 1.46 0 00-1.25.76 4 4 0 00-.5 2.17V60h-.53v-6.28h.55v1.39A2.21 2.21 0 0162 54a1.61 1.61 0 011.07-.4 1.68 1.68 0 01.63.12zM68.73 60l-3-3.08V60h-.56v-9.28h.56v6l2.85-3h.73l-3 3L69.54 60z"/></svg>