<svg xmlns="http://www.w3.org/2000/svg" viewBox="0 0 80 80"><defs><style>.c{fill:#fefefe}</style></defs><path d="M68.28 68.45a40 40 0 01-56.6-56.6z" fill="#6d429c"/><path d="M68.28 68.49a40 40 0 00-56.6-56.6z" fill="#5c2d91"/><path class="c" d="M32.66 30.54v-6.78h2.66v22.76h-3a.44.44 0 01-.42-.24L20.39 28.4c-.26-.41-.46-.86-.68-1.29l-.13-.23a1.85 1.85 0 000 .23c0 .86.11 1.73.11 2.6v16.81H17V23.75h3.12a.5.5 0 01.5.27q4.44 7 8.89 13.93l3.18 5a.14.14 0 00.12.08v-.38c0-1-.11-2-.12-3.06v-8.84a.665.665 0 01-.03-.21zM41.24 39.14v-15.4h11.53v2.37H44v7.58h8.16v2.41H44V44h9.36v2.53H41.25v-7.06c0-.11-.01-.22-.01-.33zM55.89 59H50.6v.57a2.23 2.23 0 002.34 2 3.88 3.88 0 002.35-.82v1c0 .07-.11.16-.19.2a3.53 3.53 0 01-1.65.56 7.1 7.1 0 01-1.53 0A2.77 2.77 0 0149.84 61a4.66 4.66 0 01-.09-4.24 3.24 3.24 0 013.39-2 2.66 2.66 0 012.32 1.55 4.18 4.18 0 01.42 1.77c.01.32.01.61.01.92zm-5.27-1h4a2.32 2.32 0 00-.32-1.35 1.57 1.57 0 00-1.06-.78A2.22 2.22 0 0050.62 58zM33.9 60.91v1c0 .18-.14.21-.26.26a6.53 6.53 0 01-3.15.48 4.49 4.49 0 01-2.88-1.23 4.63 4.63 0 01-1.3-2.17 6 6 0 01.28-4.36 5 5 0 014.73-3 6.65 6.65 0 012.26.32l.32.12v1.21l-.26-.11a4.9 4.9 0 00-3.15-.43 3.78 3.78 0 00-2.93 2.85 4.84 4.84 0 00.56 4.21 3.34 3.34 0 002.65 1.51 5.25 5.25 0 003-.58zM42.75 58.6a4.09 4.09 0 01-1 2.81 3.34 3.34 0 01-2.32 1.21 3.59 3.59 0 01-2.67-.69 3.46 3.46 0 01-1.34-2.19 4.69 4.69 0 01.24-2.84 3.43 3.43 0 013-2.14 4 4 0 011.71.15 3.34 3.34 0 012.19 2.64 7.33 7.33 0 01.19 1.05zm-1.24.17v-.42a2.92 2.92 0 00-.83-2 2.44 2.44 0 00-3.62.54 3.6 3.6 0 00-.21 3.24 2.4 2.4 0 003 1.4 1.94 1.94 0 001.21-1 3.27 3.27 0 00.45-1.76zM45.9 62.46h-1.22V55h1.21v1.31h.06a2.3 2.3 0 011.41-1.4 1.94 1.94 0 011.19 0v1.19l-.24-.09a1.56 1.56 0 00-1.91.64 3.37 3.37 0 00-.51 1.83v3.6zM12.27 45.08a1.77 1.77 0 11-3.53 0 1.77 1.77 0 113.53 0zM62 26.14h-6.58v-2.39h15.8v2.39h-6.59v20.37H62z"/></svg>