<svg xmlns="http://www.w3.org/2000/svg" viewBox="0 0 80 80"><defs><radialGradient id="b" cx="351.94" cy="369.29" r="37" gradientTransform="matrix(1.08 0 0 -1.08 -340.36 433.92)" gradientUnits="userSpaceOnUse"><stop offset="0" stop-color="#06c2e7"/><stop offset=".25" stop-color="#0db8ec"/><stop offset=".5" stop-color="#12aef1"/><stop offset=".75" stop-color="#1f86f9"/><stop offset="1" stop-color="#107ddd"/></radialGradient><linearGradient id="a" x1="359.53" y1="343.19" x2="359.53" y2="423.47" gradientTransform="matrix(1 0 0 -1 -318.27 421.99)" gradientUnits="userSpaceOnUse"><stop offset="0" stop-color="#bdbdbd"/><stop offset="1" stop-color="#fff"/></linearGradient></defs><path d="M78.53 43.28c0 20.49-17.25 37.11-38.53 37.11S1.47 63.77 1.47 43.28 18.72 6.18 40 6.18s38.53 16.61 38.53 37.1z" style="isolation:isolate" opacity=".53"/><path d="M80 40a40 40 0 01-40 40h0a40 40 0 010-80h0a40 40 0 0140 40z" stroke="#cdcdcd" stroke-linecap="round" stroke-linejoin="round" stroke-width=".26" fill="url(#a)"/><path d="M76.87 40A36.86 36.86 0 0140 76.87 36.86 36.86 0 013.13 40 36.87 36.87 0 0140 3.14 36.87 36.87 0 0176.87 40z" fill="url(#b)"/><path d="M40 5.06a.54.54 0 00-.54.54v6.2a.54.54 0 101.08 0V5.6a.54.54 0 00-.54-.54zm-3.52.23h-.11a.52.52 0 00-.47.59l.27 2.59a.53.53 0 00.59.48.54.54 0 00.48-.59L37 5.77a.54.54 0 00-.52-.48zm7.06 0a.53.53 0 00-.48.48l-.27 2.59a.53.53 0 00.48.59.54.54 0 00.59-.48l.27-2.59a.53.53 0 00-.48-.59zm-10.67.52h-.11a.54.54 0 00-.41.64l1.28 6.06a.54.54 0 00.64.42.53.53 0 00.41-.64L33.4 6.24a.53.53 0 00-.53-.43zm14.28 0a.53.53 0 00-.53.42l-1.28 6.07a.52.52 0 00.41.63.53.53 0 00.64-.41l1.29-6.07a.53.53 0 00-.42-.63zm-17.73 1a.51.51 0 00-.21 0 .53.53 0 00-.34.67l.8 2.48a.54.54 0 001-.33l-.81-2.48a.55.55 0 00-.47-.37zm21.16 0a.53.53 0 00-.46.37l-.81 2.48a.54.54 0 101 .34l.81-2.48a.53.53 0 00-.35-.68h-.21zM26 8a.55.55 0 00-.49.76l2.52 5.66a.54.54 0 00.71.27A.53.53 0 0029 14l-2.48-5.65A.55.55 0 0026 8zm28 0a.52.52 0 00-.5.32L51 14a.54.54 0 001 .44l2.53-5.66a.54.54 0 00-.53-.73zM22.85 9.7a.54.54 0 00-.3.08.53.53 0 00-.2.73l1.3 2.26a.54.54 0 00.93-.54L23.28 10a.56.56 0 00-.43-.27zm34.3 0a.56.56 0 00-.43.27l-1.3 2.26a.54.54 0 00.93.54l1.3-2.26a.53.53 0 00-.2-.73.54.54 0 00-.3-.08zm-37.37 1.92a.57.57 0 00-.3.1.54.54 0 00-.12.75l3.64 5a.54.54 0 10.87-.63l-3.64-5a.52.52 0 00-.45-.22zm40.48 0a.52.52 0 00-.45.22l-3.65 5a.53.53 0 00.12.75.52.52 0 00.75-.12l3.65-5a.54.54 0 00-.12-.75.49.49 0 00-.3-.1zM17 13.92a.6.6 0 00-.39.14.54.54 0 000 .76l1.74 1.94a.54.54 0 10.8-.72L17.4 14.1a.55.55 0 00-.37-.18zm45.94 0a.5.5 0 00-.37.17L60.85 16a.55.55 0 000 .76.54.54 0 00.76 0l1.75-1.94a.54.54 0 00-.43-.89zM14.4 16.45a.55.55 0 00-.37.18.54.54 0 000 .76l4.61 4.15a.54.54 0 00.72-.8l-4.61-4.15a.52.52 0 00-.39-.14zm51.22 0a.52.52 0 00-.39.14l-4.61 4.14a.54.54 0 00.72.8L66 17.41a.54.54 0 000-.76.57.57 0 00-.38-.18zm-53.41 2.8a.52.52 0 00-.45.22.53.53 0 00.12.75L14 21.77a.53.53 0 00.75-.12.54.54 0 00-.12-.75l-2.11-1.53a.47.47 0 00-.3-.1zm55.59 0a.46.46 0 00-.29.1l-2.12 1.53a.53.53 0 00-.11.75.54.54 0 00.75.12l2.11-1.53a.54.54 0 00.12-.75.53.53 0 00-.46-.22zm-57.63 3a.52.52 0 00-.43.27.53.53 0 00.2.73l5.36 3.1a.54.54 0 00.74-.2.53.53 0 00-.2-.73l-5.37-3.1a.46.46 0 00-.3-.07zm59.66 0a.46.46 0 00-.3.07l-5.37 3.1a.53.53 0 00-.2.73.54.54 0 00.74.2l5.37-3.1a.54.54 0 00.19-.73.52.52 0 00-.43-.27zM8.62 25.47a.52.52 0 00-.5.32.54.54 0 00.27.71l2.38 1.06a.54.54 0 00.44-1l-2.38-1.04a.54.54 0 00-.21-.05zm62.77 0a.54.54 0 00-.21.05L68.8 26.6a.54.54 0 10.44 1l2.38-1.06a.54.54 0 00.27-.71.55.55 0 00-.5-.32zM7.24 28.81a.54.54 0 00-.46.37.53.53 0 00.34.68L13 31.78a.54.54 0 00.33-1l-5.9-1.92a.76.76 0 00-.21 0zm65.53 0a.57.57 0 00-.22 0l-5.89 1.92a.54.54 0 10.33 1l5.9-1.92a.53.53 0 00.34-.67.51.51 0 00-.46-.37zM6.38 32.32a.55.55 0 00-.53.43.54.54 0 00.42.64l2.55.54a.54.54 0 10.22-1l-2.55-.54h-.11zm67.24 0h-.11l-2.51.56a.53.53 0 00-.41.64.52.52 0 00.63.41l2.55-.54a.53.53 0 00-.11-1.06zM5.73 35.86a.53.53 0 00-.48.47.55.55 0 00.48.6l6.16.65a.53.53 0 00.59-.48.52.52 0 00-.47-.59l-6.17-.65zm68.54 0h-.11l-6.16.69a.53.53 0 00-.48.59.54.54 0 00.59.48l6.17-.62a.52.52 0 00.47-.59.53.53 0 00-.48-.48zM5.63 39.47a.54.54 0 000 1.08h2.61a.54.54 0 000-1.08zm66.13 0a.54.54 0 000 1.08h2.61a.54.54 0 100-1.08zM12 42.4h-.11l-6.17.6a.54.54 0 00-.47.6.53.53 0 00.59.47l6.16-.6a.53.53 0 00.48-.59.54.54 0 00-.48-.48zm56 0a.52.52 0 00-.48.48.53.53 0 00.47.59l6.17.65a.54.54 0 10.11-1.07l-6.16-.65zM8.93 46.07h-.11l-2.55.54a.55.55 0 00-.42.64.53.53 0 00.64.41L9 47.13a.54.54 0 00-.11-1.06zm62.14 0a.53.53 0 00-.53.42.54.54 0 00.42.64l2.55.54a.54.54 0 10.22-1l-2.55-.54zm-57.85 2.12a.51.51 0 00-.21 0l-5.9 1.91a.54.54 0 00.34 1l5.89-1.92a.54.54 0 00.35-.68.55.55 0 00-.47-.37zm53.55 0a.54.54 0 00-.12 1l5.9 1.92a.53.53 0 00.67-.35.52.52 0 00-.34-.67L67 48.24a.51.51 0 00-.21 0zM11 52.39a.54.54 0 00-.21 0L8.38 53.5a.54.54 0 10.44 1l2.38-1.06a.54.54 0 00.27-.71.55.55 0 00-.5-.32zm58.05 0a.55.55 0 00-.5.32.54.54 0 00.27.71l2.38 1.06a.54.54 0 10.44-1l-2.38-1.06a.54.54 0 00-.21-.05zm-53.44 1.19a.51.51 0 00-.31.07l-5.36 3.1a.54.54 0 00.53.93l5.37-3.1a.54.54 0 00.2-.74.53.53 0 00-.43-.26zm48.78 0a.53.53 0 00-.43.26.54.54 0 00.2.74l5.37 3.1a.53.53 0 00.73-.2.54.54 0 00-.19-.73l-5.37-3.1a.51.51 0 00-.31-.07zm-50.12 4.54a.58.58 0 00-.3.11l-2.11 1.53a.54.54 0 00.63.87l2.12-1.53a.53.53 0 00.11-.75.55.55 0 00-.45-.23zm51.45 0a.55.55 0 00-.46.22.54.54 0 00.12.75l2.11 1.54a.54.54 0 00.75-.12.53.53 0 00-.12-.75L66 58.25a.55.55 0 00-.29-.11zm-46.67.19a.52.52 0 00-.39.14l-4.61 4.14a.54.54 0 00.72.8l4.61-4.15a.53.53 0 000-.75.51.51 0 00-.33-.16zm41.89 0a.57.57 0 00-.38.18.54.54 0 000 .76l4.61 4.15a.54.54 0 10.72-.8l-4.61-4.15a.56.56 0 00-.38-.14zm-37.51 3.97a.53.53 0 00-.46.22l-3.64 5a.54.54 0 10.86.64l3.65-5a.53.53 0 00-.41-.85zm33.11 0a.55.55 0 00-.29.11.53.53 0 00-.12.75l3.64 5a.52.52 0 00.75.12.54.54 0 00.12-.75l-3.64-5a.55.55 0 00-.46-.22zm-37.82.78a.5.5 0 00-.37.17l-1.75 1.96a.54.54 0 00.8.72L19.15 64a.55.55 0 000-.76.53.53 0 00-.39-.13zm42.56 0a.52.52 0 00-.39.14.54.54 0 000 .76l1.75 1.93a.53.53 0 10.79-.71l-1.74-1.94a.55.55 0 00-.37-.18zm-32.76 2.17a.52.52 0 00-.5.32l-2.53 5.66a.54.54 0 001 .44L29 66a.54.54 0 00-.48-.76zm22.93 0a.8.8 0 00-.21.05.53.53 0 00-.24.72l2.51 5.67a.54.54 0 001-.44L52 65.56a.55.55 0 00-.5-.32zM24.08 67a.55.55 0 00-.43.27l-1.3 2.26a.54.54 0 00.93.53l1.3-2.25a.55.55 0 00-.19-.74.59.59 0 00-.31-.07zm31.84 0a.59.59 0 00-.31.07.55.55 0 00-.19.74l1.3 2.19a.54.54 0 10.93-.53l-1.3-2.26a.55.55 0 00-.43-.27zm-21.78.08a.54.54 0 00-.53.43l-1.29 6.06a.54.54 0 101.06.22l1.28-6.06a.53.53 0 00-.41-.64zm11.7 0h-.11a.52.52 0 00-.41.63l1.28 6.07a.54.54 0 00.64.41.53.53 0 00.41-.63l-1.28-6.07a.55.55 0 00-.53-.43zm-5.84.6a.54.54 0 00-.54.53v6.2a.54.54 0 101.08 0v-6.2a.54.54 0 00-.54-.53zm-9.87 2a.54.54 0 00-.46.37l-.81 2.48a.54.54 0 00.35.68.53.53 0 00.67-.35l.81-2.48a.53.53 0 00-.56-.7zm19.73 0a.39.39 0 00-.21 0 .54.54 0 00-.35.67l.81 2.48a.54.54 0 101-.33l-.8-2.48a.55.55 0 00-.47-.37zm-13.23 1.38a.55.55 0 00-.49.48l-.27 2.59a.55.55 0 00.48.6.54.54 0 00.59-.48l.27-2.6a.54.54 0 00-.47-.59zm6.72 0h-.11a.54.54 0 00-.48.59l.24 2.6a.53.53 0 101.06-.11l-.27-2.6a.53.53 0 00-.48-.48z" fill="#f4f2f3"/><path d="M65.19 18.51l-29.4 17.08-18.6 29.27 27.2-20.14z" style="isolation:isolate" opacity=".41"/><path d="M44.21 44.42l-8.42-8.83 29.9-20.11z" fill="#ff5150"/><path d="M44.21 44.42l-8.42-8.83-21.48 29z" fill="#f1f1f1"/><path d="M14.31 64.54l29.9-20.12 21.48-28.94z" style="isolation:isolate" opacity=".24"/></svg>