<svg xmlns="http://www.w3.org/2000/svg" viewBox="0 0 80 80"><path d="M39.08 14.36a38.65 38.65 0 0118.32 4.38 55.77 55.77 0 0115.1 11.55 62.75 62.75 0 017.39 9.41.47.47 0 010 .59 63.43 63.43 0 01-14.1 15.57 46.89 46.89 0 01-14.57 8A35.79 35.79 0 0138 65.6a38.63 38.63 0 01-16.17-4.72 57 57 0 01-15-11.8 63.21 63.21 0 01-6.74-8.82.41.41 0 010-.52 62.68 62.68 0 0116.5-17.36 44.22 44.22 0 0113.86-6.72 34.25 34.25 0 018.63-1.3zM4.52 40l.22.34a59.81 59.81 0 0010.61 11.52 44 44 0 0014.54 8.33 31.75 31.75 0 0017.52.81 40 40 0 0013.72-6.38A58.09 58.09 0 0073 43.39c.88-1.09 1.71-2.23 2.55-3.35l-.29-.44a60.43 60.43 0 00-5.42-6.6 53 53 0 00-13.07-10.28 34.76 34.76 0 00-15.91-4.53 33.36 33.36 0 00-15.12 3.27 49.66 49.66 0 00-13.88 9.85A58.9 58.9 0 004.52 40z" fill="#349966"/><path d="M38.37 21.46h3.27l.18 3.06 2.43.48 1.34-2.76 3 1.24-1 2.91 2 1.38 2.27-2 2.32 2.32-2 2.26 1.38 2.06 2.91-1 1.25 3L55 35.76l.48 2.42 3.06.19v3.27l-3 .19-.54 2.41 2.77 1.35-1.25 3-2.91-1-1.37 2.06 2 2.27-2.33 2.31-2.25-2-2.06 1.38 1 2.91-3 1.25L44.25 55l-2.43.49-.18 3h-3.27l-.19-3-2.42-.49-1.35 2.77-3-1.25 1-2.91-2.06-1.38-2.25 2-2.32-2.3 2-2.27-1.37-2-2.91 1-1.25-3L25 44.25l-.48-2.43-3.06-.19v-3.25l3.06-.2.48-2.42-2.76-1.35 1.25-3 2.91 1 1.37-2.06-2-2.25 2.32-2.32 2.26 2 2-1.37-1-2.91 3-1.25L35.76 25l2.42-.47zM40 50.37A10.37 10.37 0 1029.64 40 10.34 10.34 0 0040 50.37z" fill="#026699"/><path d="M40 46.28A6.28 6.28 0 1146.28 40 6.28 6.28 0 0140 46.28z" fill="#900"/></svg>