<svg xmlns="http://www.w3.org/2000/svg" viewBox="0 0 80 80"><path fill="#46a4da" d="M0 0h80v80H0z"/><path d="M58.73 70.49a14 14 0 007-1.44 7.45 7.45 0 003.8-4.64c1.16-4.32-.82-8.16-5.27-9.82a4.29 4.29 0 01-2.91-3 9.09 9.09 0 00-6.86-6.48c-4.83-1.16-8.58.32-11.31 4.49a2.65 2.65 0 01-2.56 1.4 4.75 4.75 0 00-4.56 2.57c-.72 1.21-1.23 1.37-2.43.78-5.67-2.78-9.05-7.07-9.49-13.59-.79-11.87 10.86-18.85 19.74-16.3 6.84 1.95 12 7.91 11.76 14.88a7.31 7.31 0 00.21 2.29 2.24 2.24 0 001 1.3 13.46 13.46 0 016.93 6.94c.14.31.26.63.43.93a3.34 3.34 0 003.19 1.57c1.08 0 .92-1.17 1.24-1.86.1-.23.17-.48.26-.73a30 30 0 001.45-14.18A30.72 30.72 0 0037.06 9.34C21.86 10.87 10.41 23.08 9.46 37c-.68 10 2.47 18.5 9.77 25.39 6.25 5.9 14 7.87 22.27 8.33 3.2.18 6.43 0 9.64 0z" fill="#fff"/></svg>