<svg xmlns="http://www.w3.org/2000/svg" viewBox="0 0 80 80"><path d="M79.45 55.79a.25.25 0 01-.21-.12c-.24-.39-24.17-39.52-38.2-36-.14 0-11.93 2-17.87 27.83a.24.24 0 01-.29.19.25.25 0 01-.2-.28c.05-.3 4.76-30.06 15.35-44.8a.25.25 0 01.34-.07c.23.16 23.11 15.75 41.31 53a.24.24 0 01-.11.32.27.27 0 01-.12-.07z" fill="#ed0000"/><path d="M25.92 5a.25.25 0 010 .25c-.22.4-22.15 40.69-12.13 51.1.09.12 7.73 9.32 33 1.57a.24.24 0 01.31.15.25.25 0 01-.14.32C46.67 58.5 18.54 69.3.48 67.5a.25.25 0 01-.22-.27C.32 66.93 2.38 39.32 25.5 5a.25.25 0 01.34-.07.2.2 0 01.08.07z" fill="#ed0000"/><path d="M8.64 76.74a.24.24 0 01.21-.12c.46 0 46.31-1.17 50.32-15.06 0-.13 4.2-11.35-15.17-29.39a.24.24 0 010-.35.26.26 0 01.35 0c.21.18 23.65 19.12 31.1 35.67a.24.24 0 01-.11.32c-.25.12-25.19 12.15-66.51 9.3a.24.24 0 01-.23-.25.28.28 0 01.04-.12z" fill="#ed0000"/></svg>