<svg xmlns="http://www.w3.org/2000/svg" fill="none" viewBox="0 0 80 80"><path fill="#B3E9E7" fill-rule="evenodd" d="M38 20a14.3 14.3 0 0 0-12.4 11.6c-.1.2-.1.3-.5.2l-3 .3a11.1 11.1 0 0 0-7.2 6.1h-.7c-2.1-.8-4.4-.8-6.6 0A11.2 11.2 0 0 0 0 47c-.9 6.2 3.1 11.9 9 12.8 1.4.3 60.4.3 61.7 0 2.3-.3 4.3-1.4 6-3.2 1.9-1.8 2.8-4 3.1-6.9.4-3.2-1-6.8-3.4-9.1a10.8 10.8 0 0 0-9.7-2.8l-.4.1-.2-1.1c-.6-4-2.8-7.3-6.3-9a11.6 11.6 0 0 0-8.2-.8c-.2 0-.3-.1-.7-.8-.7-1-2.5-2.8-3.5-3.6-2.8-2-6.4-2.9-9.5-2.5Z" clip-rule="evenodd"/><path fill="#13A19C" fill-rule="evenodd" d="M48.6 36.2c-2 .4-3.6 1.3-5 2.6-.9 1-1.3 1.6-1.8 2.6a8 8 0 0 0-.9 3.9 9 9 0 0 0 2.2 6.2c.4.4.5.6.4.6a19 19 0 0 0-6.4 3.2c-.2.2-.2.2-1-.2a19.2 19.2 0 0 0-3-1.2l.5-.7c.5-.7 1.1-1.8 1.4-2.7.3-.9.3-3 .1-4a8.4 8.4 0 0 0-2.6-4.3 7.7 7.7 0 0 0-4.7-1.9c-1.5 0-2.6.2-4 .9-1 .4-1.2.6-2 1.5a7.6 7.6 0 0 0-2.1 3.5c-.4 1.2-.4 3 0 4.1.3 1 1 2.4 1.6 3l.4.6-1 .4c-2.1.6-3.7 1.6-5 2.9-.6.6-1 1-1.3 1.7a6 6 0 0 0-.4 1c0 .2 26 0 26 0s26 .2 26 0a7 7 0 0 0-.6-2c-1.2-2.3-4-4.4-7.5-5.5l-1-.3.5-.8a9 9 0 0 0 2.1-6c0-2.5-1-5-3-6.7-2-2-5-2.9-8-2.4Z" clip-rule="evenodd"/></svg>