<svg width="12" height="18" xmlns="http://www.w3.org/2000/svg"><path d="M6.012 17.949l-1.493-6.376a10.935 10.935 0 0 0 2.985.002L6.012 17.95zM9.246 1.857c0 .52-.415.985-1.07 1.308l-.001 2.616c1.725.41 2.922 1.294 2.922 2.32 0 .416-.195.809-.542 1.156-.64.639-1.794 1.124-3.187 1.318-.03.005-.062.008-.093.012a8.917 8.917 0 0 1-.725.065l-.12.007a10.154 10.154 0 0 1-.895-.003c-.098-.005-.193-.013-.288-.02-.053-.004-.106-.007-.158-.012a9.247 9.247 0 0 1-.372-.043l-.045-.006C2.514 10.278.926 9.285.926 8.101c0-.415.196-.807.543-1.154.511-.512 1.352-.924 2.38-1.168V3.165c-.656-.323-1.07-.789-1.07-1.309C2.778.882 4.225.092 6.011.092s3.234.79 3.234 1.765z"/></svg>